<?xml version="1.0" encoding="utf-8" standalone="no"?>
<!DOCTYPE svg PUBLIC "-//W3C//DTD SVG 1.1//EN"
  "http://www.w3.org/Graphics/SVG/1.1/DTD/svg11.dtd">
<svg xmlns:xlink="http://www.w3.org/1999/xlink" width="568.410312pt" height="567.994375pt" viewBox="0 0 568.410312 567.994375" xmlns="http://www.w3.org/2000/svg" version="1.1">
 <metadata>
  <rdf:RDF xmlns:dc="http://purl.org/dc/elements/1.1/" xmlns:cc="http://creativecommons.org/ns#" xmlns:rdf="http://www.w3.org/1999/02/22-rdf-syntax-ns#">
   <cc:Work>
    <dc:type rdf:resource="http://purl.org/dc/dcmitype/StillImage"/>
    <dc:date>2026-04-06T02:31:29.887326</dc:date>
    <dc:format>image/svg+xml</dc:format>
    <dc:creator>
     <cc:Agent>
      <dc:title>Matplotlib v3.10.7, https://matplotlib.org/</dc:title>
     </cc:Agent>
    </dc:creator>
   </cc:Work>
  </rdf:RDF>
 </metadata>
 <defs>
  <style type="text/css">*{stroke-linejoin: round; stroke-linecap: butt}</style>
 </defs>
 <g id="figure_1">
  <g id="patch_1">
   <path d="M 0 567.994375 
L 568.410312 567.994375 
L 568.410312 0 
L 0 0 
z
" style="fill: #ffffff"/>
  </g>
  <g id="axes_1">
   <g id="patch_2">
    <path d="M 42.620313 530.438125 
L 561.210312 530.438125 
L 561.210312 22.318125 
L 42.620313 22.318125 
z
" style="fill: #ffffff"/>
   </g>
   <g id="matplotlib.axis_1">
    <g id="xtick_1">
     <g id="line2d_1">
      <defs>
       <path id="m0d9426a90b" d="M 0 0 
L 0 3.5 
" style="stroke: #000000; stroke-width: 0.8"/>
      </defs>
      <g>
       <use xlink:href="#m0d9426a90b" x="123.587854" y="530.438125" style="stroke: #000000; stroke-width: 0.8"/>
      </g>
     </g>
     <g id="text_1">
      <!-- −2 -->
      <g transform="translate(116.21676 545.036562) scale(0.1 -0.1)">
       <defs>
        <path id="DejaVuSans-2212" d="M 678 2272 
L 4684 2272 
L 4684 1741 
L 678 1741 
L 678 2272 
z
" transform="scale(0.015625)"/>
        <path id="DejaVuSans-32" d="M 1228 531 
L 3431 531 
L 3431 0 
L 469 0 
L 469 531 
Q 828 903 1448 1529 
Q 2069 2156 2228 2338 
Q 2531 2678 2651 2914 
Q 2772 3150 2772 3378 
Q 2772 3750 2511 3984 
Q 2250 4219 1831 4219 
Q 1534 4219 1204 4116 
Q 875 4013 500 3803 
L 500 4441 
Q 881 4594 1212 4672 
Q 1544 4750 1819 4750 
Q 2544 4750 2975 4387 
Q 3406 4025 3406 3419 
Q 3406 3131 3298 2873 
Q 3191 2616 2906 2266 
Q 2828 2175 2409 1742 
Q 1991 1309 1228 531 
z
" transform="scale(0.015625)"/>
       </defs>
       <use xlink:href="#DejaVuSans-2212"/>
       <use xlink:href="#DejaVuSans-32" transform="translate(83.789062 0)"/>
      </g>
     </g>
    </g>
    <g id="xtick_2">
     <g id="line2d_2">
      <g>
       <use xlink:href="#m0d9426a90b" x="212.63334" y="530.438125" style="stroke: #000000; stroke-width: 0.8"/>
      </g>
     </g>
     <g id="text_2">
      <!-- −1 -->
      <g transform="translate(205.262246 545.036562) scale(0.1 -0.1)">
       <defs>
        <path id="DejaVuSans-31" d="M 794 531 
L 1825 531 
L 1825 4091 
L 703 3866 
L 703 4441 
L 1819 4666 
L 2450 4666 
L 2450 531 
L 3481 531 
L 3481 0 
L 794 0 
L 794 531 
z
" transform="scale(0.015625)"/>
       </defs>
       <use xlink:href="#DejaVuSans-2212"/>
       <use xlink:href="#DejaVuSans-31" transform="translate(83.789062 0)"/>
      </g>
     </g>
    </g>
    <g id="xtick_3">
     <g id="line2d_3">
      <g>
       <use xlink:href="#m0d9426a90b" x="301.678826" y="530.438125" style="stroke: #000000; stroke-width: 0.8"/>
      </g>
     </g>
     <g id="text_3">
      <!-- 0 -->
      <g transform="translate(298.497576 545.036562) scale(0.1 -0.1)">
       <defs>
        <path id="DejaVuSans-30" d="M 2034 4250 
Q 1547 4250 1301 3770 
Q 1056 3291 1056 2328 
Q 1056 1369 1301 889 
Q 1547 409 2034 409 
Q 2525 409 2770 889 
Q 3016 1369 3016 2328 
Q 3016 3291 2770 3770 
Q 2525 4250 2034 4250 
z
M 2034 4750 
Q 2819 4750 3233 4129 
Q 3647 3509 3647 2328 
Q 3647 1150 3233 529 
Q 2819 -91 2034 -91 
Q 1250 -91 836 529 
Q 422 1150 422 2328 
Q 422 3509 836 4129 
Q 1250 4750 2034 4750 
z
" transform="scale(0.015625)"/>
       </defs>
       <use xlink:href="#DejaVuSans-30"/>
      </g>
     </g>
    </g>
    <g id="xtick_4">
     <g id="line2d_4">
      <g>
       <use xlink:href="#m0d9426a90b" x="390.724312" y="530.438125" style="stroke: #000000; stroke-width: 0.8"/>
      </g>
     </g>
     <g id="text_4">
      <!-- 1 -->
      <g transform="translate(387.543062 545.036562) scale(0.1 -0.1)">
       <use xlink:href="#DejaVuSans-31"/>
      </g>
     </g>
    </g>
    <g id="xtick_5">
     <g id="line2d_5">
      <g>
       <use xlink:href="#m0d9426a90b" x="479.769798" y="530.438125" style="stroke: #000000; stroke-width: 0.8"/>
      </g>
     </g>
     <g id="text_5">
      <!-- 2 -->
      <g transform="translate(476.588548 545.036562) scale(0.1 -0.1)">
       <use xlink:href="#DejaVuSans-32"/>
      </g>
     </g>
    </g>
    <g id="text_6">
     <!-- x0 -->
     <g transform="translate(295.774687 558.714687) scale(0.1 -0.1)">
      <defs>
       <path id="DejaVuSans-78" d="M 3513 3500 
L 2247 1797 
L 3578 0 
L 2900 0 
L 1881 1375 
L 863 0 
L 184 0 
L 1544 1831 
L 300 3500 
L 978 3500 
L 1906 2253 
L 2834 3500 
L 3513 3500 
z
" transform="scale(0.015625)"/>
      </defs>
      <use xlink:href="#DejaVuSans-78"/>
      <use xlink:href="#DejaVuSans-30" transform="translate(59.179688 0)"/>
     </g>
    </g>
   </g>
   <g id="matplotlib.axis_2">
    <g id="ytick_1">
     <g id="line2d_6">
      <defs>
       <path id="me8411b86ea" d="M 0 0 
L -3.5 0 
" style="stroke: #000000; stroke-width: 0.8"/>
      </defs>
      <g>
       <use xlink:href="#me8411b86ea" x="42.620313" y="481.915397" style="stroke: #000000; stroke-width: 0.8"/>
      </g>
     </g>
     <g id="text_7">
      <!-- −4 -->
      <g transform="translate(20.878125 485.714616) scale(0.1 -0.1)">
       <defs>
        <path id="DejaVuSans-34" d="M 2419 4116 
L 825 1625 
L 2419 1625 
L 2419 4116 
z
M 2253 4666 
L 3047 4666 
L 3047 1625 
L 3713 1625 
L 3713 1100 
L 3047 1100 
L 3047 0 
L 2419 0 
L 2419 1100 
L 313 1100 
L 313 1709 
L 2253 4666 
z
" transform="scale(0.015625)"/>
       </defs>
       <use xlink:href="#DejaVuSans-2212"/>
       <use xlink:href="#DejaVuSans-34" transform="translate(83.789062 0)"/>
      </g>
     </g>
    </g>
    <g id="ytick_2">
     <g id="line2d_7">
      <g>
       <use xlink:href="#me8411b86ea" x="42.620313" y="379.21988" style="stroke: #000000; stroke-width: 0.8"/>
      </g>
     </g>
     <g id="text_8">
      <!-- −2 -->
      <g transform="translate(20.878125 383.019099) scale(0.1 -0.1)">
       <use xlink:href="#DejaVuSans-2212"/>
       <use xlink:href="#DejaVuSans-32" transform="translate(83.789062 0)"/>
      </g>
     </g>
    </g>
    <g id="ytick_3">
     <g id="line2d_8">
      <g>
       <use xlink:href="#me8411b86ea" x="42.620313" y="276.524363" style="stroke: #000000; stroke-width: 0.8"/>
      </g>
     </g>
     <g id="text_9">
      <!-- 0 -->
      <g transform="translate(29.257813 280.323582) scale(0.1 -0.1)">
       <use xlink:href="#DejaVuSans-30"/>
      </g>
     </g>
    </g>
    <g id="ytick_4">
     <g id="line2d_9">
      <g>
       <use xlink:href="#me8411b86ea" x="42.620313" y="173.828846" style="stroke: #000000; stroke-width: 0.8"/>
      </g>
     </g>
     <g id="text_10">
      <!-- 2 -->
      <g transform="translate(29.257813 177.628065) scale(0.1 -0.1)">
       <use xlink:href="#DejaVuSans-32"/>
      </g>
     </g>
    </g>
    <g id="ytick_5">
     <g id="line2d_10">
      <g>
       <use xlink:href="#me8411b86ea" x="42.620313" y="71.133329" style="stroke: #000000; stroke-width: 0.8"/>
      </g>
     </g>
     <g id="text_11">
      <!-- 4 -->
      <g transform="translate(29.257813 74.932548) scale(0.1 -0.1)">
       <use xlink:href="#DejaVuSans-34"/>
      </g>
     </g>
    </g>
    <g id="text_12">
     <!-- x1 -->
     <g transform="translate(14.798438 282.51875) rotate(-90) scale(0.1 -0.1)">
      <use xlink:href="#DejaVuSans-78"/>
      <use xlink:href="#DejaVuSans-31" transform="translate(59.179688 0)"/>
     </g>
    </g>
   </g>
   <g id="line2d_11">
    <path d="M 536.900728 266.254811 
L 537.440814 271.235677 
L 537.63804 276.129752 
L 537.497961 280.972973 
L 537.022257 285.799485 
L 536.210243 290.642708 
L 535.059277 295.535642 
L 533.564762 300.510867 
L 531.720137 305.60054 
L 529.51689 310.8364 
L 526.944609 316.24953 
L 523.992832 321.86152 
L 520.644259 327.704423 
L 516.878708 333.8115 
L 512.675859 340.208436 
L 508.015252 346.913334 
L 502.876292 353.936719 
L 497.238245 361.281535 
L 491.080241 368.94315 
L 484.381271 376.909348 
L 477.12019 385.160339 
L 469.275795 393.671104 
L 460.82927 402.434288 
L 451.766756 411.340544 
L 447.002638 415.80273 
L 442.083551 420.247035 
L 437.010495 424.65543 
L 431.785101 429.009822 
L 426.409636 433.292045 
L 420.887 437.483866 
L 415.220728 441.566984 
L 409.414989 445.523027 
L 403.474586 449.333555 
L 397.404957 452.98006 
L 391.212174 456.443965 
L 384.902942 459.706623 
L 378.484602 462.749318 
L 371.965129 465.553269 
L 365.35313 468.09962 
L 358.657849 470.369451 
L 351.889163 472.343771 
L 345.057584 474.003522 
L 338.174257 475.329574 
L 331.250962 476.30273 
L 324.300114 476.903726 
L 317.334759 477.113226 
L 310.368583 476.911826 
L 303.4159 476.280055 
L 296.491724 475.200557 
L 289.612534 473.711563 
L 282.792795 471.842192 
L 276.045622 469.604643 
L 269.383495 467.012178 
L 262.818265 464.079117 
L 256.361148 460.820842 
L 250.02273 457.253797 
L 243.812963 453.395484 
L 237.741166 449.264469 
L 231.816028 444.880375 
L 226.045603 440.26389 
L 220.437315 435.436759 
L 214.997954 430.421789 
L 209.733679 425.24285 
L 204.650015 419.924868 
L 199.751855 414.493835 
L 195.043461 408.9768 
L 190.528462 403.401874 
L 186.209853 397.798229 
L 182.089999 392.196094 
L 178.168071 386.59674 
L 174.441775 380.98797 
L 170.910592 375.378326 
L 167.573932 369.775604 
L 164.431129 364.186848 
L 161.481445 358.618358 
L 158.724066 353.075684 
L 156.158108 347.563628 
L 153.782608 342.086245 
L 151.596535 336.64684 
L 149.59878 331.247973 
L 147.788162 325.891454 
L 146.163426 320.578345 
L 144.723243 315.308961 
L 143.466211 310.082868 
L 142.390854 304.898886 
L 141.49562 299.755084 
L 140.778888 294.648784 
L 140.238959 289.576563 
L 139.874061 284.534246 
L 139.682284 279.522609 
L 139.662607 274.547915 
L 139.815004 269.603794 
L 140.139409 264.684167 
L 140.635687 259.783722 
L 141.303642 254.897917 
L 142.143008 250.022981 
L 143.153457 245.155909 
L 144.334595 240.29447 
L 145.685962 235.437199 
L 147.207033 230.583401 
L 148.897218 225.733153 
L 150.755863 220.887299 
L 152.782245 216.047452 
L 154.97558 211.215998 
L 157.335016 206.396089 
L 159.859637 201.591648 
L 162.54846 196.807366 
L 165.400439 192.048707 
L 168.414461 187.321901 
L 171.589349 182.633949 
L 174.92386 177.992621 
L 178.416685 173.406458 
L 182.066452 168.884767 
L 185.871721 164.437629 
L 189.830989 160.075891 
L 193.942685 155.811171 
L 198.205176 151.655857 
L 202.615515 147.617319 
L 207.166304 143.697005 
L 211.851351 139.917044 
L 216.664297 136.299479 
L 221.598433 132.864937 
L 226.646697 129.632627 
L 231.801673 126.620341 
L 237.055594 123.844455 
L 242.40034 121.319927 
L 247.827441 119.060299 
L 253.328071 117.077694 
L 258.893054 115.382822 
L 264.512861 113.984971 
L 270.17761 112.892016 
L 275.877068 112.110414 
L 281.600649 111.645204 
L 287.337414 111.500008 
L 293.076073 111.677034 
L 298.804982 112.177068 
L 304.512146 112.999484 
L 310.185217 114.142236 
L 315.811495 115.601863 
L 321.377927 117.373484 
L 326.87364 119.446557 
L 332.291735 121.804086 
L 337.622525 124.435103 
L 342.856696 127.328428 
L 347.985398 130.472501 
L 353.00025 133.855385 
L 357.893335 137.464758 
L 362.657203 141.287922 
L 367.28487 145.311796 
L 371.769818 149.522922 
L 376.105994 153.907457 
L 380.287813 158.451183 
L 384.310155 163.139499 
L 388.168365 167.957424 
L 391.858257 172.889598 
L 395.376107 177.92028 
L 398.718662 183.033348 
L 401.88313 188.212302 
L 404.867188 193.440261 
L 407.66898 198.699962 
L 410.287112 203.973765 
L 412.720661 209.243647 
L 414.969166 214.491206 
L 417.034191 219.721667 
L 418.917564 224.953985 
L 420.619265 230.185279 
L 422.13936 235.412712 
L 423.478002 240.633511 
L 424.635431 245.844979 
L 425.611971 251.044487 
L 426.408038 256.229475 
L 427.024129 261.397456 
L 427.460832 266.546011 
L 427.718821 271.672792 
L 427.798856 276.775522 
L 427.701784 281.851994 
L 427.428539 286.900072 
L 426.980142 291.917688 
L 426.357701 296.902846 
L 425.562409 301.85362 
L 424.595549 306.768156 
L 423.458488 311.644667 
L 422.152682 316.481438 
L 420.679672 321.276826 
L 419.041087 326.029254 
L 417.23867 330.737992 
L 415.274294 335.406922 
L 413.14941 340.028721 
L 410.865674 344.593444 
L 408.425076 349.091232 
L 405.829942 353.512319 
L 403.082931 357.847024 
L 400.187036 362.085756 
L 397.145586 366.219011 
L 393.962243 370.237374 
L 390.641003 374.131519 
L 387.186198 377.892207 
L 383.602492 381.51029 
L 379.894885 384.976705 
L 376.068712 388.28248 
L 372.12964 391.418729 
L 368.083672 394.376657 
L 363.937145 397.147556 
L 359.69673 399.722806 
L 355.369433 402.093877 
L 350.962593 404.252324 
L 346.483885 406.189794 
L 341.941316 407.898022 
L 337.343231 409.368828 
L 332.698305 410.594124 
L 328.015551 411.56591 
L 323.304314 412.276272 
L 318.574275 412.717386 
L 313.835447 412.881517 
L 309.097417 412.764452 
L 304.367425 412.376852 
L 299.655271 411.721762 
L 294.970793 410.801683 
L 290.323508 409.619988 
L 285.722613 408.180914 
L 281.176982 406.489568 
L 276.69517 404.551922 
L 272.285409 402.374817 
L 267.955611 399.965959 
L 263.713368 397.333925 
L 259.565948 394.488155 
L 255.520301 391.438961 
L 251.583054 388.197518 
L 247.760514 384.775871 
L 244.058666 381.186931 
L 240.483176 377.444478 
L 237.039385 373.563157 
L 233.732318 369.558481 
L 230.566675 365.446833 
L 227.546836 361.245459 
L 224.67632 356.968621 
L 221.955903 352.612502 
L 219.387849 348.183594 
L 216.974504 343.690182 
L 214.717989 339.140249 
L 212.620196 334.54148 
L 210.682793 329.901262 
L 208.907219 325.226677 
L 207.294687 320.524513 
L 205.846184 315.801252 
L 204.562471 311.063081 
L 203.44408 306.315885 
L 202.491318 301.56525 
L 201.704264 296.816459 
L 201.082773 292.0745 
L 200.626471 287.344057 
L 200.334758 282.629516 
L 200.206807 277.934962 
L 200.241564 273.264183 
L 200.437751 268.620662 
L 200.79386 264.007586 
L 201.308127 259.427176 
L 201.97922 254.881145 
L 202.806422 250.374277 
L 203.78879 245.911666 
L 204.925122 241.498546 
L 206.213961 237.140288 
L 207.65359 232.842404 
L 209.242034 228.610542 
L 210.977062 224.450491 
L 212.856184 220.368175 
L 214.876654 216.369661 
L 217.035466 212.461152 
L 219.329358 208.648989 
L 221.754809 204.939652 
L 224.308042 201.339761 
L 226.985021 197.856074 
L 229.781453 194.495486 
L 232.692787 191.265031 
L 235.714213 188.171884 
L 238.840666 185.223356 
L 242.066822 182.426897 
L 245.387099 179.790096 
L 248.795657 177.32068 
L 252.286399 175.026516 
L 255.85297 172.915608 
L 259.488758 170.996098 
L 263.186968 169.276047 
L 266.942208 167.757817 
L 270.747342 166.445869 
L 274.594343 165.346175 
L 278.475242 164.463748 
L 282.382137 163.802642 
L 286.307185 163.365954 
L 290.242606 163.155821 
L 294.180681 163.173423 
L 298.113756 163.41898 
L 302.034237 163.891757 
L 305.934591 164.590056 
L 309.80735 165.511224 
L 313.645105 166.651648 
L 317.440512 168.006757 
L 321.186288 169.571023 
L 324.87521 171.337957 
L 328.500121 173.300115 
L 332.053923 175.44909 
L 335.529582 177.775521 
L 338.920124 180.269086 
L 342.219854 182.921484 
L 345.425083 185.728472 
L 348.530538 188.681305 
L 351.531185 191.771179 
L 354.422298 194.989384 
L 357.199456 198.327303 
L 359.858543 201.776415 
L 362.395752 205.328292 
L 364.80758 208.974601 
L 367.090829 212.707106 
L 369.24261 216.517661 
L 371.260337 220.398217 
L 373.141733 224.34082 
L 374.884824 228.337609 
L 376.487943 232.380819 
L 377.949731 236.462776 
L 379.269132 240.575905 
L 380.445398 244.712722 
L 381.478086 248.86584 
L 382.367273 253.028742 
L 383.113654 257.198938 
L 383.716621 261.372088 
L 384.175622 265.5434 
L 384.490333 269.708037 
L 384.660659 273.861117 
L 384.686731 277.997712 
L 384.568908 282.112848 
L 384.307778 286.201508 
L 383.904154 290.258626 
L 383.359081 294.279093 
L 382.673826 298.257754 
L 381.84989 302.189407 
L 380.888997 306.068808 
L 379.793101 309.890663 
L 378.564384 313.649637 
L 377.205253 317.340345 
L 375.718346 320.957361 
L 374.106527 324.495211 
L 372.372888 327.948375 
L 370.520748 331.31129 
L 368.553657 334.578344 
L 366.475388 337.743884 
L 364.289945 340.802207 
L 362.001558 343.747567 
L 359.614687 346.574173 
L 357.132503 349.278744 
L 354.55803 351.856805 
L 351.896364 354.299969 
L 349.152714 356.600437 
L 346.332389 358.751013 
L 343.440806 360.745104 
L 340.483481 362.576717 
L 337.466037 364.240466 
L 334.3942 365.731564 
L 331.273797 367.045827 
L 328.110763 368.179676 
L 324.911133 369.130131 
L 321.681046 369.894818 
L 318.426748 370.471963 
L 315.154584 370.860397 
L 311.871005 371.059551 
L 308.582566 371.06946 
L 305.295924 370.890762 
L 302.017841 370.524696 
L 298.755182 369.973106 
L 295.514916 369.238436 
L 292.304114 368.323733 
L 289.129954 367.232649 
L 285.998548 365.969204 
L 282.913076 364.537289 
L 279.879533 362.94162 
L 276.90392 361.187183 
L 273.991978 359.279183 
L 271.149182 357.223048 
L 268.380747 355.024424 
L 265.691626 352.689177 
L 263.08651 350.223393 
L 260.569826 347.633381 
L 258.145743 344.925667 
L 255.818164 342.106998 
L 253.590732 339.184341 
L 251.466827 336.164883 
L 249.449567 333.056034 
L 247.541809 329.865419 
L 245.746147 326.600886 
L 244.064914 323.270505 
L 242.500179 319.882562 
L 241.05375 316.445566 
L 239.727174 312.968245 
L 238.521734 309.459548 
L 237.438291 305.92707 
L 236.476913 302.369554 
L 235.638594 298.79118 
L 234.924284 295.197412 
L 234.334718 291.593679 
L 233.870411 287.985379 
L 233.531659 284.377877 
L 233.318544 280.776503 
L 233.230925 277.186557 
L 233.268448 273.613305 
L 233.430536 270.061979 
L 233.716398 266.537779 
L 234.125024 263.045873 
L 234.655184 259.591395 
L 235.305433 256.179446 
L 236.074106 252.815095 
L 236.959321 249.503377 
L 237.958976 246.249296 
L 239.070755 243.05782 
L 240.29212 239.933888 
L 241.620317 236.882403 
L 243.052373 233.908237 
L 244.585099 231.016228 
L 246.215757 228.210209 
L 247.94242 225.493796 
L 249.761704 222.873417 
L 251.670033 220.355274 
L 253.663694 217.945241 
L 255.738836 215.648864 
L 257.891471 213.471359 
L 260.117474 211.417617 
L 262.412581 209.492199 
L 264.772393 207.699338 
L 267.192372 206.042939 
L 269.667843 204.526579 
L 272.193993 203.153506 
L 274.765872 201.926642 
L 277.378395 200.848579 
L 280.026335 199.921582 
L 282.704331 199.147587 
L 285.406884 198.528202 
L 288.128357 198.064707 
L 290.862975 197.758054 
L 293.604828 197.608868 
L 296.348093 197.617308 
L 299.089148 197.781746 
L 301.822629 198.101151 
L 304.542637 198.574525 
L 307.243446 199.20049 
L 309.919496 199.977296 
L 312.565399 200.902816 
L 315.175938 201.974544 
L 317.746066 203.189601 
L 320.270906 204.544732 
L 322.745749 206.036303 
L 325.16606 207.660307 
L 327.527471 209.41236 
L 329.825787 211.287701 
L 332.05698 213.281194 
L 334.217195 215.387325 
L 336.302747 217.600207 
L 338.310119 219.913575 
L 340.235966 222.320787 
L 342.077112 224.814826 
L 343.830553 227.388301 
L 345.493454 230.033441 
L 348.537161 235.505866 
L 349.914065 238.323348 
L 352.370302 244.107312 
L 354.418876 250.052131 
L 356.049554 256.113451 
L 357.255357 262.248089 
L 358.032559 268.414033 
L 358.38069 274.570439 
L 358.302532 280.677638 
L 358.105355 283.700706 
L 358.105355 283.700706 
" clip-path="url(#p8c2f74523a)" style="fill: none; stroke: #000000; stroke-opacity: 0.3; stroke-width: 7; stroke-linecap: square"/>
   </g>
   <g id="line2d_12">
    <path d="M 536.900728 266.254811 
L 537.144547 274.123449 
L 537.114845 281.995668 
L 536.810978 289.862305 
L 536.233171 297.714206 
L 535.38165 305.54222 
L 534.256848 313.337227 
L 532.859261 321.090038 
L 531.190101 328.791527 
L 529.251478 336.432734 
L 527.045501 344.004699 
L 524.574481 351.498532 
L 521.840864 358.905284 
L 518.847833 366.216201 
L 515.599381 373.422835 
L 512.099501 380.516735 
L 508.35235 387.489559 
L 504.36225 394.332919 
L 500.13415 401.038756 
L 495.673621 407.599424 
L 490.98623 414.007276 
L 486.077672 420.254795 
L 480.953776 426.334447 
L 475.620857 432.239127 
L 470.085669 437.962222 
L 464.354964 443.497117 
L 458.435593 448.837351 
L 452.334499 453.976454 
L 446.058998 458.908477 
L 439.616727 463.628008 
L 433.015323 468.129638 
L 426.2625 472.408125 
L 419.366039 476.458229 
L 412.33402 480.275299 
L 405.174763 483.855256 
L 397.896587 487.194025 
L 390.507865 490.287714 
L 383.017041 493.132432 
L 375.432778 495.724942 
L 367.763903 498.062599 
L 360.019241 500.142758 
L 352.207647 501.962973 
L 344.338049 503.520801 
L 336.419503 504.814498 
L 328.461137 505.842922 
L 320.472079 506.604927 
L 312.461452 507.099575 
L 304.438457 507.325935 
L 296.412311 507.283806 
L 288.392204 506.973574 
L 280.387324 506.395627 
L 272.406824 505.550559 
L 264.45993 504.438977 
L 256.555765 503.062225 
L 248.703333 501.422212 
L 240.911636 499.520846 
L 233.189609 497.360237 
L 225.546258 494.942514 
L 217.990366 492.270531 
L 210.530528 489.347667 
L 203.175336 486.177302 
L 195.933289 482.763005 
L 188.812949 479.108373 
L 181.822563 475.217693 
L 174.970125 471.095732 
L 168.263633 466.747255 
L 161.71096 462.177205 
L 155.320055 457.390555 
L 149.098445 452.392922 
L 143.053353 447.190344 
L 137.191998 441.788858 
L 131.521437 436.19466 
L 126.048835 430.413984 
L 120.780791 424.45364 
L 115.723504 418.320789 
L 110.883174 412.022593 
L 106.265778 405.566338 
L 101.87744 398.959375 
L 97.723499 392.209522 
L 93.808775 385.324866 
L 90.138091 378.313491 
L 86.715985 371.183568 
L 83.547134 363.943356 
L 80.635216 356.601438 
L 77.983294 349.166562 
L 75.59443 341.647474 
L 73.471387 334.052959 
L 71.616981 326.391905 
L 70.032955 318.673353 
L 68.720443 310.906401 
L 67.680579 303.100144 
L 66.914226 295.263673 
L 66.422212 287.406177 
L 66.204417 279.536827 
L 66.260218 271.664761 
L 66.588999 263.799113 
L 67.189925 255.948974 
L 68.062108 248.12352 
L 69.203915 240.331769 
L 70.613345 232.582633 
L 72.288395 224.885025 
L 74.226881 217.247779 
L 76.426625 209.679812 
L 78.884806 202.189762 
L 81.598292 194.786111 
L 84.563948 187.477345 
L 87.778448 180.27183 
L 91.238536 173.178035 
L 94.940273 166.20403 
L 98.879384 159.35768 
L 103.051599 152.646853 
L 107.452432 146.079265 
L 112.077471 139.662746 
L 116.92154 133.404604 
L 121.979113 127.311889 
L 127.244664 121.39165 
L 132.712452 115.650747 
L 138.376764 110.096173 
L 144.23113 104.734252 
L 150.268757 99.571008 
L 156.482852 94.612461 
L 162.86644 89.864405 
L 169.412515 85.33277 
L 176.113436 81.022694 
L 182.961307 76.93897 
L 189.948235 73.08639 
L 197.066193 69.469491 
L 204.307086 66.09294 
L 211.662367 62.960509 
L 219.123321 60.075602 
L 226.681233 57.441621 
L 234.327309 55.061692 
L 242.052672 52.939062 
L 249.848183 51.076013 
L 257.704619 49.474448 
L 265.612756 48.136268 
L 273.563345 47.063087 
L 281.547041 46.256626 
L 289.554424 45.717605 
L 297.576062 45.446365 
L 305.602524 45.44325 
L 313.624408 45.708307 
L 321.632194 46.241681 
L 329.616479 47.042505 
L 337.567911 48.109552 
L 345.477141 49.441592 
L 353.334905 51.037109 
L 361.131796 52.894665 
L 368.858721 55.011834 
L 376.506705 57.385856 
L 384.066773 60.013971 
L 391.530098 62.893142 
L 398.887684 66.020393 
L 406.131059 69.391817 
L 413.251931 73.003211 
L 420.242013 76.85037 
L 427.093221 80.928839 
L 433.797291 85.234196 
L 440.346685 89.761186 
L 446.734101 94.5043 
L 452.952237 99.458029 
L 458.994043 104.616651 
L 464.852307 109.974445 
L 470.520679 115.524989 
L 475.993072 121.261656 
L 481.263399 127.177816 
L 486.325836 133.266667 
L 491.174452 139.521392 
L 495.804187 145.934611 
L 500.210236 152.498787 
L 504.387793 159.206383 
L 508.332297 166.049727 
L 512.039119 173.021124 
L 515.504423 180.112448 
L 518.724592 187.315462 
L 521.69601 194.621928 
L 524.415295 202.023509 
L 526.878961 209.511837 
L 529.084293 217.078237 
L 531.028781 224.713961 
L 532.709915 232.410259 
L 534.125457 240.158324 
L 535.272968 247.949292 
L 536.150939 255.77413 
L 536.758104 263.623771 
L 537.093196 271.489147 
L 537.155301 279.361186 
L 536.943237 287.230711 
L 536.457035 295.088561 
L 535.697026 302.925585 
L 534.66354 310.732634 
L 533.357322 318.500618 
L 531.778896 326.220295 
L 529.930166 333.882663 
L 527.813356 341.478784 
L 525.430692 348.999719 
L 522.784803 356.43666 
L 519.878219 363.780617 
L 516.714757 371.023073 
L 513.298513 378.155617 
L 509.633583 385.16984 
L 505.724399 392.057528 
L 501.575388 398.810278 
L 497.19199 405.420354 
L 492.579853 411.880165 
L 487.744627 418.182119 
L 482.692216 424.31887 
L 477.42854 430.282888 
L 471.960266 436.067458 
L 466.294207 441.666032 
L 460.437176 447.072064 
L 454.396178 452.279291 
L 448.178225 457.281268 
L 441.790896 462.072479 
L 435.241872 466.647589 
L 428.538836 471.001263 
L 421.689621 475.128484 
L 414.702065 479.024048 
L 407.584448 482.683773 
L 400.345124 486.103664 
L 392.992447 489.279725 
L 385.534881 492.208307 
L 377.980922 494.885571 
L 370.33937 497.30877 
L 362.619076 499.475348 
L 354.828889 501.382746 
L 346.97772 503.028771 
L 339.074546 504.411045 
L 331.128486 505.52833 
L 323.148679 506.37957 
L 315.144261 506.963713 
L 307.124373 507.280078 
L 299.098257 507.327814 
L 291.075109 507.107218 
L 283.064113 506.618771 
L 275.074455 505.862949 
L 267.115261 504.840605 
L 259.195784 503.552435 
L 251.325047 502.00027 
L 243.512033 500.186106 
L 235.765727 498.111942 
L 228.095002 495.780138 
L 220.508867 493.192918 
L 213.015942 490.353597 
L 205.62479 487.265637 
L 198.343974 483.932502 
L 191.181894 480.358004 
L 184.147105 476.545834 
L 177.247631 472.500704 
L 170.49143 468.227459 
L 163.886457 463.730943 
L 157.440457 459.01632 
L 151.161359 454.088662 
L 145.056416 448.953963 
L 139.132797 443.618333 
L 133.397669 438.087881 
L 127.857923 432.368997 
L 122.520696 426.468017 
L 117.392223 420.39207 
L 112.478635 414.148378 
L 107.786061 407.744164 
L 103.320254 401.186879 
L 99.087287 394.483971 
L 95.092021 387.643504 
L 91.339181 380.673612 
L 87.833496 373.582426 
L 84.579214 366.378242 
L 81.580916 359.069403 
L 78.841703 351.664648 
L 76.364525 344.172753 
L 74.152333 336.602495 
L 72.207556 328.962731 
L 70.532864 321.262416 
L 69.12942 313.510644 
L 67.998246 305.716523 
L 67.140363 297.889162 
L 66.556319 290.037667 
L 66.246776 282.171266 
L 66.211132 274.299097 
L 66.448675 266.430288 
L 66.958694 258.573971 
L 67.740097 250.739204 
L 68.79186 242.935174 
L 70.111986 235.170796 
L 71.698403 227.454963 
L 73.549037 219.796569 
L 75.661498 212.204378 
L 78.033511 204.687295 
L 80.661939 197.253804 
L 83.543585 189.912356 
L 86.675249 182.671403 
L 90.053409 175.539215 
L 93.674722 168.524228 
L 97.534908 161.634305 
L 101.629623 154.87727 
L 105.954525 148.260949 
L 110.504913 141.792919 
L 115.276266 135.480969 
L 120.263045 129.332137 
L 125.459647 123.353421 
L 130.86047 117.551814 
L 136.459547 111.934004 
L 142.251038 106.506914 
L 148.22813 101.276548 
L 154.38396 96.248861 
L 160.711664 91.429805 
L 167.204059 86.824966 
L 173.854015 82.440181 
L 180.653618 78.280216 
L 187.594916 74.349787 
L 194.669959 70.653608 
L 201.870557 67.195974 
L 209.188511 63.981436 
L 216.615092 61.013363 
L 224.141544 58.29507 
L 231.759115 55.829877 
L 239.458904 53.620641 
L 247.231958 51.670477 
L 255.069042 49.981244 
L 262.960913 48.554752 
L 270.898325 47.392813 
L 278.87198 46.496761 
L 286.872483 45.868168 
L 294.890401 45.507328 
L 302.916299 45.414489 
L 310.940743 45.5899 
L 318.95433 46.033324 
L 326.947524 46.74475 
L 334.910983 47.722892 
L 342.835369 48.96643 
L 350.711349 50.474043 
L 358.529709 52.243932 
L 366.281056 54.274498 
L 373.956438 56.56292 
L 381.546911 59.106348 
L 389.043534 61.901933 
L 396.437587 64.94637 
L 403.720119 68.236523 
L 410.88288 71.768124 
L 417.917631 75.536886 
L 424.816132 79.538524 
L 431.570468 83.768334 
L 438.172456 88.221745 
L 444.614852 92.893185 
L 450.890421 97.777076 
L 456.991927 102.867834 
L 462.912537 108.159519 
L 468.645156 113.646279 
L 474.183768 119.32143 
L 479.522361 125.178284 
L 484.654924 131.210155 
L 489.575875 137.410055 
L 494.279416 143.771059 
L 498.760815 150.285581 
L 503.015341 156.946039 
L 507.038266 163.744847 
L 510.825247 170.674193 
L 514.371798 177.72629 
L 517.674368 184.892864 
L 520.729407 192.16564 
L 523.533374 199.536343 
L 526.083072 206.996537 
L 528.375153 214.537777 
L 530.407175 222.151289 
L 532.176695 229.828299 
L 533.681286 237.560031 
L 534.918884 245.337612 
L 535.887216 253.152121 
L 536.585099 260.994478 
L 537.01135 268.855602 
L 537.164814 276.726415 
L 537.044775 284.59781 
L 536.650298 292.460586 
L 535.981819 300.305595 
L 535.039774 308.123692 
L 533.824639 315.905738 
L 532.337396 323.642641 
L 530.578899 331.325186 
L 528.551486 338.944458 
L 526.257497 346.491541 
L 523.699314 353.957533 
L 520.879816 361.33366 
L 517.801884 368.611026 
L 514.469717 375.781263 
L 510.887515 382.836003 
L 507.059512 389.766903 
L 502.990359 396.565813 
L 498.684787 403.224489 
L 494.148523 409.735398 
L 489.387297 416.091002 
L 484.406867 422.283804 
L 479.213298 428.306542 
L 473.812746 434.151904 
L 468.212085 439.81341 
L 462.418184 445.28458 
L 456.437943 450.55898 
L 450.278475 455.630444 
L 443.946982 460.492793 
L 437.451189 465.14077 
L 430.798824 469.569114 
L 423.997637 473.772622 
L 417.055538 477.746374 
L 409.980523 481.48548 
L 402.780979 484.986026 
L 395.465295 488.244102 
L 388.041877 491.255857 
L 380.519252 494.017736 
L 372.906032 496.526255 
L 365.211091 498.778943 
L 357.443302 500.773331 
L 349.611546 502.507019 
L 341.724784 503.977905 
L 333.792061 505.183998 
L 325.822525 506.124333 
L 317.825324 506.797948 
L 309.8096 507.203956 
L 301.784534 507.341761 
L 293.759371 507.21092 
L 285.74329 506.812002 
L 277.745471 506.145575 
L 269.775077 505.212289 
L 261.841262 504.013072 
L 253.953213 502.54904 
L 246.119894 500.822279 
L 238.350271 498.834874 
L 230.653279 496.588993 
L 223.037808 494.087065 
L 215.512735 491.331732 
L 208.086591 488.326542 
L 200.767907 485.075045 
L 193.565173 481.580868 
L 186.486804 477.847879 
L 179.541158 473.880177 
L 172.73615 469.682685 
L 166.079695 465.260324 
L 159.579649 460.618095 
L 153.243778 455.76121 
L 147.079753 450.695123 
L 141.094689 445.426013 
L 135.295699 439.960058 
L 129.689819 434.303506 
L 124.28398 428.462795 
L 119.084964 422.444601 
L 114.098827 416.256205 
L 109.331628 409.904889 
L 104.789312 403.397991 
L 100.477696 396.743012 
L 96.402356 389.947676 
L 92.567923 383.020164 
L 88.979027 375.968652 
L 85.640161 368.801355 
L 82.555632 361.526624 
L 79.729387 354.152992 
L 77.164262 346.689265 
L 74.863095 339.144248 
L 72.828576 331.526758 
L 71.063153 323.845714 
L 69.56882 316.110149 
L 68.346486 308.329182 
L 67.397062 300.51193 
L 66.721329 292.6675 
L 66.319814 284.805057 
L 66.192585 276.933803 
L 66.338841 269.06286 
L 66.757777 261.201349 
L 67.448488 253.358364 
L 68.409861 245.543018 
L 69.640407 237.764382 
L 71.137982 230.031328 
L 72.900441 222.352728 
L 74.925547 214.737407 
L 77.210931 207.194188 
L 79.753905 199.731783 
L 82.551206 192.358613 
L 85.59957 185.083096 
L 88.895627 177.913589 
L 92.43592 170.858429 
L 96.216652 163.925784 
L 100.233409 157.123435 
L 104.481777 150.459163 
L 108.957221 143.94066 
L 113.655114 137.575598 
L 118.570428 131.371402 
L 123.697484 125.335013 
L 129.030603 119.47337 
L 134.56399 113.793301 
L 140.291728 108.301603 
L 146.207475 103.004744 
L 152.304299 97.90861 
L 158.575263 93.019087 
L 165.013337 88.341927 
L 171.611352 83.88284 
L 178.361763 79.647119 
L 185.256562 75.639401 
L 192.287743 71.86432 
L 199.44725 68.326417 
L 206.726855 65.030052 
L 214.118022 61.979048 
L 221.612012 59.176759 
L 229.200085 56.62654 
L 229.200085 56.62654 
" clip-path="url(#p8c2f74523a)" style="fill: none; stroke-dasharray: 22.4,5.6,3.5,5.6; stroke-dashoffset: 0; stroke: #0000ff; stroke-opacity: 0.8; stroke-width: 3.5"/>
   </g>
   <g id="patch_3">
    <path d="M 42.620313 530.438125 
L 42.620313 22.318125 
" style="fill: none; stroke: #000000; stroke-width: 0.8; stroke-linejoin: miter; stroke-linecap: square"/>
   </g>
   <g id="patch_4">
    <path d="M 561.210312 530.438125 
L 561.210312 22.318125 
" style="fill: none; stroke: #000000; stroke-width: 0.8; stroke-linejoin: miter; stroke-linecap: square"/>
   </g>
   <g id="patch_5">
    <path d="M 42.620313 530.438125 
L 561.210312 530.438125 
" style="fill: none; stroke: #000000; stroke-width: 0.8; stroke-linejoin: miter; stroke-linecap: square"/>
   </g>
   <g id="patch_6">
    <path d="M 42.620313 22.318125 
L 561.210312 22.318125 
" style="fill: none; stroke: #000000; stroke-width: 0.8; stroke-linejoin: miter; stroke-linecap: square"/>
   </g>
   <g id="line2d_13">
    <path d="M 536.900728 266.254811 
L 537.178929 270.771537 
L 537.302303 275.152881 
L 537.276191 279.369322 
L 537.106657 283.399915 
L 536.800362 287.236156 
L 536.364119 290.876638 
L 535.804582 294.328794 
L 535.128178 297.604656 
L 534.340694 300.72131 
L 533.447188 303.698514 
L 532.452584 306.557663 
L 531.360215 309.321059 
L 528.892919 314.648325 
L 526.061464 319.853712 
L 522.86728 325.075837 
L 519.306232 330.433108 
L 515.36568 335.997176 
L 511.029968 341.803507 
L 506.282129 347.846157 
L 501.107056 354.084687 
L 495.49312 360.454283 
L 489.434014 366.880539 
L 482.928157 373.291762 
L 475.977761 379.663398 
L 468.586186 385.999774 
L 460.752763 392.379279 
L 443.725354 405.752199 
L 409.07556 432.792949 
L 403.570612 436.881898 
L 397.924963 440.923573 
L 392.140961 444.871192 
L 386.222085 448.68045 
L 380.172897 452.297082 
L 374.001893 455.684193 
L 367.718219 458.808308 
L 361.331129 461.63702 
L 354.850946 464.143103 
L 348.289326 466.307627 
L 341.658678 468.120423 
L 334.971411 469.571321 
L 328.240047 470.651924 
L 321.477621 471.355424 
L 314.69732 471.68017 
L 307.912333 471.625525 
L 301.135717 471.191788 
L 294.380745 470.379977 
L 287.660975 469.193122 
L 280.988669 467.643486 
L 274.376091 465.743336 
L 267.835323 463.504907 
L 261.378206 460.944195 
L 255.015933 458.080226 
L 248.758015 454.930754 
L 242.613963 451.513531 
L 236.592973 447.845688 
L 230.704002 443.943826 
L 224.954787 439.821512 
L 219.352339 435.490739 
L 213.903668 430.963498 
L 208.615321 426.25314 
L 203.494332 421.368971 
L 198.546333 416.32578 
L 193.775818 411.142689 
L 189.187278 405.838819 
L 184.784636 400.433022 
L 180.57205 394.950803 
L 176.551446 389.417051 
L 172.72339 383.854506 
L 169.088451 378.285911 
L 165.646965 372.731465 
L 162.398295 367.213348 
L 159.340753 361.743498 
L 156.472349 356.327756 
L 153.791091 350.971961 
L 151.295087 345.680594 
L 148.981773 340.454588 
L 146.84896 335.290119 
L 144.894815 330.181444 
L 143.117503 325.122823 
L 141.515355 320.108686 
L 140.086665 315.131008 
L 138.830397 310.182649 
L 137.74586 305.257398 
L 136.832361 300.349046 
L 136.089255 295.451812 
L 135.516248 290.56057 
L 135.113224 285.673221 
L 134.880073 280.788624 
L 134.816668 275.906658 
L 134.922996 271.028674 
L 135.198736 266.159148 
L 135.643545 261.302739 
L 136.256903 256.465317 
L 137.037881 251.653347 
L 137.98578 246.875282 
L 139.099182 242.137859 
L 140.376387 237.446776 
L 141.815694 232.80773 
L 143.415397 228.22509 
L 145.173334 223.704435 
L 147.087328 219.246427 
L 149.155266 214.849724 
L 151.375039 210.512983 
L 153.744645 206.234202 
L 156.261889 202.009514 
L 158.925139 197.832953 
L 161.732959 193.698052 
L 164.683933 189.599106 
L 167.776831 185.52863 
L 171.010841 181.478311 
L 174.385353 177.446707 
L 177.899757 173.432375 
L 181.553218 169.435509 
L 185.345351 165.457435 
L 189.276018 161.503362 
L 193.343251 157.591489 
L 197.545082 153.740014 
L 201.879232 149.96668 
L 206.343167 146.295481 
L 210.933285 142.754642 
L 215.643609 139.367478 
L 220.468166 136.157303 
L 225.400891 133.146002 
L 230.434796 130.353955 
L 235.561868 127.79627 
L 240.773651 125.477927 
L 246.061691 123.403903 
L 251.417491 121.57952 
L 256.832415 120.005754 
L 262.297786 118.682249 
L 267.804725 117.612323 
L 273.344352 116.799296 
L 278.907492 116.247474 
L 284.485585 115.96341 
L 290.068879 115.957269 
L 295.647174 116.240057 
L 301.210269 116.822779 
L 306.747968 117.71311 
L 312.249039 118.92759 
L 317.702172 120.468218 
L 323.096189 122.331669 
L 328.419914 124.514618 
L 333.662739 127.010829 
L 338.812691 129.809167 
L 343.860154 132.890152 
L 348.796345 136.232178 
L 353.612479 139.813637 
L 358.30044 143.613753 
L 362.852109 147.606946 
L 367.261709 151.772803 
L 371.52413 156.09268 
L 375.634262 160.547932 
L 379.587455 165.121375 
L 383.379382 169.796152 
L 387.0071 174.559991 
L 390.468036 179.401901 
L 393.759616 184.310893 
L 396.879544 189.276852 
L 399.825703 194.290008 
L 402.5968 199.343121 
L 405.191757 204.429637 
L 407.609493 209.543002 
L 409.849097 214.677183 
L 411.909763 219.826465 
L 413.791174 224.986599 
L 415.493136 230.153701 
L 417.015454 235.323891 
L 418.358061 240.493353 
L 419.520865 245.658938 
L 420.504168 250.817319 
L 421.30838 255.965098 
L 421.933909 261.098877 
L 422.381304 266.215176 
L 422.651019 271.310338 
L 422.743988 276.380444 
L 422.661266 281.421533 
L 422.403906 286.429642 
L 421.973079 291.401104 
L 421.369998 296.33145 
L 420.596248 301.217571 
L 419.653494 306.056696 
L 418.543401 310.846057 
L 417.267701 315.583124 
L 415.82819 320.266033 
L 414.226824 324.893397 
L 412.465596 329.463892 
L 410.546495 333.9762 
L 408.471656 338.428168 
L 406.242897 342.819914 
L 403.862523 347.147756 
L 401.33296 351.407143 
L 398.656637 355.593527 
L 395.836364 359.700687 
L 392.874248 363.723383 
L 389.773831 367.650645 
L 386.538975 371.470353 
L 383.17354 375.170385 
L 379.681952 378.738106 
L 376.068205 382.157966 
L 372.338275 385.414518 
L 368.498521 388.492422 
L 364.555302 391.376339 
L 360.515392 394.052758 
L 356.385946 396.504549 
L 352.175267 398.722331 
L 347.891839 400.698193 
L 343.544147 402.424226 
L 339.140738 403.894672 
L 334.690792 405.104443 
L 330.203318 406.054277 
L 325.687277 406.745893 
L 321.151632 407.181011 
L 316.605229 407.36172 
L 312.057048 407.292505 
L 307.515578 406.977005 
L 302.989232 406.418693 
L 298.486421 405.621044 
L 294.015452 404.587243 
L 289.584574 403.319817 
L 285.2018 401.820699 
L 280.875104 400.091755 
L 276.61246 398.134852 
L 272.421645 395.952946 
L 268.310861 393.546118 
L 264.287609 390.919609 
L 260.359269 388.079457 
L 256.53322 385.031698 
L 252.816358 381.784257 
L 249.216374 378.344829 
L 245.739152 374.726704 
L 242.390308 370.943937 
L 239.17546 367.010583 
L 236.099597 362.940755 
L 233.167987 358.752184 
L 230.383876 354.459977 
L 227.750248 350.078858 
L 225.270088 345.623552 
L 222.945934 341.106955 
L 220.779981 336.543583 
L 218.773386 331.941555 
L 216.927188 327.308196 
L 215.242426 322.650831 
L 213.719936 317.97563 
L 212.360348 313.287117 
L 211.163956 308.588121 
L 210.131015 303.881281 
L 209.26178 299.169238 
L 208.556341 294.455024 
L 208.015004 289.740156 
L 207.637544 285.028596 
L 207.423674 280.324572 
L 207.373106 275.632311 
L 207.485284 270.956687 
L 207.759954 266.303019 
L 208.195941 261.677979 
L 208.791974 257.088366 
L 209.546781 252.540984 
L 210.458778 248.042614 
L 211.526503 243.600682 
L 212.747581 239.221907 
L 214.119548 234.912938 
L 215.63994 230.680428 
L 217.30598 226.531006 
L 219.115043 222.470725 
L 221.063623 218.506084 
L 223.148132 214.643621 
L 225.364985 210.889877 
L 227.710248 207.251697 
L 230.180241 203.735853 
L 232.770225 200.350054 
L 235.47537 197.102081 
L 238.290848 193.999712 
L 241.211474 191.050508 
L 244.232157 188.263291 
L 247.346815 185.645204 
L 250.549292 183.203262 
L 253.833433 180.944479 
L 257.19284 178.874895 
L 260.620962 177.001392 
L 264.110751 175.327668 
L 267.655126 173.857197 
L 271.247008 172.593455 
L 274.879229 171.539013 
L 278.544449 170.696351 
L 282.235275 170.065984 
L 285.944312 169.6483 
L 289.664164 169.443686 
L 293.387474 169.451911 
L 297.106719 169.673077 
L 300.8146 170.10565 
L 304.503827 170.747998 
L 308.167114 171.59849 
L 311.797344 172.654611 
L 315.387087 173.914769 
L 318.929549 175.374439 
L 322.41797 177.028947 
L 325.845591 178.87362 
L 329.206004 180.902671 
L 332.492355 183.110637 
L 335.698978 185.489159 
L 338.820261 188.029753 
L 341.850594 190.723929 
L 344.78486 193.562636 
L 347.617593 196.535998 
L 350.344795 199.633717 
L 352.962526 202.845476 
L 355.466846 206.160958 
L 357.854313 209.570307 
L 360.121388 213.062443 
L 362.265773 216.628635 
L 364.285212 220.260229 
L 366.177449 223.94857 
L 367.940596 227.686037 
L 369.572835 231.464495 
L 371.073097 235.278622 
L 372.440333 239.123175 
L 373.673494 242.992911 
L 374.771755 246.8833 
L 375.734325 250.790204 
L 376.560837 254.710515 
L 377.250937 258.641149 
L 377.804271 262.579022 
L 378.220666 266.520975 
L 378.499815 270.464634 
L 378.641894 274.406508 
L 378.647091 278.34309 
L 378.515595 282.270871 
L 378.247852 286.185668 
L 377.844015 290.083871 
L 377.305052 293.959778 
L 376.631941 297.80766 
L 375.825659 301.62179 
L 374.88757 305.395738 
L 373.818702 309.123049 
L 372.621215 312.795864 
L 371.297281 316.406312 
L 369.849071 319.946523 
L 368.279217 323.408433 
L 366.59011 326.783371 
L 364.78535 330.063019 
L 362.868537 333.239057 
L 360.843276 336.303173 
L 358.71359 339.247571 
L 356.483456 342.06356 
L 354.157786 344.74465 
L 351.741493 347.284348 
L 349.239493 349.676187 
L 346.656973 351.914714 
L 343.999253 353.993872 
L 341.272081 355.910614 
L 338.48121 357.661892 
L 335.632388 359.244684 
L 332.731459 360.656964 
L 329.784433 361.896784 
L 326.797299 362.964262 
L 323.776044 363.859516 
L 320.726653 364.582676 
L 317.655076 365.13439 
L 314.567353 365.515632 
L 311.469306 365.727921 
L 308.366758 365.772774 
L 305.265527 365.651718 
L 302.171349 365.366426 
L 299.090006 364.918488 
L 296.027021 364.309858 
L 292.987915 363.542489 
L 289.978199 362.618378 
L 287.003273 361.53978 
L 284.068647 360.308586 
L 281.179404 358.928093 
L 278.340628 357.401594 
L 275.557376 355.732444 
L 272.834534 353.924578 
L 270.177139 351.981907 
L 267.5895 349.910065 
L 265.075925 347.714687 
L 262.640687 345.401427 
L 260.287807 342.976482 
L 258.02137 340.446453 
L 255.844558 337.818424 
L 253.76055 335.099479 
L 251.77249 332.29667 
L 249.883234 329.417135 
L 248.095577 326.468283 
L 246.411493 323.456698 
L 244.832955 320.38896 
L 243.361901 317.271609 
L 242.000017 314.110921 
L 240.74889 310.913048 
L 239.609462 307.683295 
L 238.582677 304.426966 
L 237.669443 301.149358 
L 236.870471 297.855559 
L 236.186408 294.550429 
L 235.617336 291.238751 
L 235.163333 287.925304 
L 234.824441 284.614892 
L 234.60053 281.312329 
L 234.491429 278.022409 
L 234.496363 274.750295 
L 234.614553 271.501153 
L 234.845176 268.280163 
L 235.187235 265.092635 
L 235.639666 261.944012 
L 236.200748 258.839969 
L 236.86876 255.786178 
L 237.641929 252.788306 
L 238.518299 249.8521 
L 239.495806 246.98343 
L 240.571729 244.188035 
L 241.743351 241.471657 
L 243.007901 238.839995 
L 244.36243 236.298739 
L 245.803844 233.853632 
L 247.328463 231.509918 
L 248.932606 229.272847 
L 250.612551 227.147581 
L 252.364412 225.139187 
L 254.184137 223.252693 
L 256.067225 221.49221 
L 258.009175 219.861852 
L 260.00546 218.365607 
L 262.051418 217.007253 
L 264.142231 215.790375 
L 266.27283 214.717316 
L 268.438149 213.790414 
L 270.633116 213.011868 
L 272.852568 212.383557 
L 275.091234 211.90704 
L 277.343822 211.582569 
L 279.605038 211.410398 
L 281.86961 211.390637 
L 284.132222 211.523051 
L 286.387531 211.807047 
L 288.630378 212.240854 
L 290.855605 212.822699 
L 293.058096 213.550676 
L 295.232745 214.422564 
L 297.374494 215.435792 
L 299.478656 216.586775 
L 301.54054 217.87193 
L 303.555522 219.287558 
L 305.519026 220.82967 
L 307.426612 222.493954 
L 309.274349 224.275321 
L 311.058307 226.16868 
L 312.774637 228.168874 
L 314.419573 230.270483 
L 315.989567 232.467854 
L 317.481667 234.754913 
L 318.892918 237.125584 
L 321.461536 242.093199 
L 323.67501 247.320261 
L 325.517954 252.755132 
L 326.976946 258.345805 
L 328.043417 264.040012 
L 328.712059 269.785427 
L 328.98053 275.529628 
L 328.851599 281.220341 
L 328.330012 286.80533 
L 327.425374 292.233408 
L 326.150306 297.454673 
L 324.520613 302.421247 
L 323.578825 304.795158 
L 323.578825 304.795158 
" clip-path="url(#p8c2f74523a)" style="fill: none; stroke-dasharray: 3.5,5.775; stroke-dashoffset: 0; stroke: #008000; stroke-opacity: 0.8; stroke-width: 3.5"/>
   </g>
   <g id="text_13">
    <!-- Phase Portrait (x0 vs x1) -->
    <g transform="translate(228.224062 16.318125) scale(0.12 -0.12)">
     <defs>
      <path id="DejaVuSans-50" d="M 1259 4147 
L 1259 2394 
L 2053 2394 
Q 2494 2394 2734 2622 
Q 2975 2850 2975 3272 
Q 2975 3691 2734 3919 
Q 2494 4147 2053 4147 
L 1259 4147 
z
M 628 4666 
L 2053 4666 
Q 2838 4666 3239 4311 
Q 3641 3956 3641 3272 
Q 3641 2581 3239 2228 
Q 2838 1875 2053 1875 
L 1259 1875 
L 1259 0 
L 628 0 
L 628 4666 
z
" transform="scale(0.015625)"/>
      <path id="DejaVuSans-68" d="M 3513 2113 
L 3513 0 
L 2938 0 
L 2938 2094 
Q 2938 2591 2744 2837 
Q 2550 3084 2163 3084 
Q 1697 3084 1428 2787 
Q 1159 2491 1159 1978 
L 1159 0 
L 581 0 
L 581 4863 
L 1159 4863 
L 1159 2956 
Q 1366 3272 1645 3428 
Q 1925 3584 2291 3584 
Q 2894 3584 3203 3211 
Q 3513 2838 3513 2113 
z
" transform="scale(0.015625)"/>
      <path id="DejaVuSans-61" d="M 2194 1759 
Q 1497 1759 1228 1600 
Q 959 1441 959 1056 
Q 959 750 1161 570 
Q 1363 391 1709 391 
Q 2188 391 2477 730 
Q 2766 1069 2766 1631 
L 2766 1759 
L 2194 1759 
z
M 3341 1997 
L 3341 0 
L 2766 0 
L 2766 531 
Q 2569 213 2275 61 
Q 1981 -91 1556 -91 
Q 1019 -91 701 211 
Q 384 513 384 1019 
Q 384 1609 779 1909 
Q 1175 2209 1959 2209 
L 2766 2209 
L 2766 2266 
Q 2766 2663 2505 2880 
Q 2244 3097 1772 3097 
Q 1472 3097 1187 3025 
Q 903 2953 641 2809 
L 641 3341 
Q 956 3463 1253 3523 
Q 1550 3584 1831 3584 
Q 2591 3584 2966 3190 
Q 3341 2797 3341 1997 
z
" transform="scale(0.015625)"/>
      <path id="DejaVuSans-73" d="M 2834 3397 
L 2834 2853 
Q 2591 2978 2328 3040 
Q 2066 3103 1784 3103 
Q 1356 3103 1142 2972 
Q 928 2841 928 2578 
Q 928 2378 1081 2264 
Q 1234 2150 1697 2047 
L 1894 2003 
Q 2506 1872 2764 1633 
Q 3022 1394 3022 966 
Q 3022 478 2636 193 
Q 2250 -91 1575 -91 
Q 1294 -91 989 -36 
Q 684 19 347 128 
L 347 722 
Q 666 556 975 473 
Q 1284 391 1588 391 
Q 1994 391 2212 530 
Q 2431 669 2431 922 
Q 2431 1156 2273 1281 
Q 2116 1406 1581 1522 
L 1381 1569 
Q 847 1681 609 1914 
Q 372 2147 372 2553 
Q 372 3047 722 3315 
Q 1072 3584 1716 3584 
Q 2034 3584 2315 3537 
Q 2597 3491 2834 3397 
z
" transform="scale(0.015625)"/>
      <path id="DejaVuSans-65" d="M 3597 1894 
L 3597 1613 
L 953 1613 
Q 991 1019 1311 708 
Q 1631 397 2203 397 
Q 2534 397 2845 478 
Q 3156 559 3463 722 
L 3463 178 
Q 3153 47 2828 -22 
Q 2503 -91 2169 -91 
Q 1331 -91 842 396 
Q 353 884 353 1716 
Q 353 2575 817 3079 
Q 1281 3584 2069 3584 
Q 2775 3584 3186 3129 
Q 3597 2675 3597 1894 
z
M 3022 2063 
Q 3016 2534 2758 2815 
Q 2500 3097 2075 3097 
Q 1594 3097 1305 2825 
Q 1016 2553 972 2059 
L 3022 2063 
z
" transform="scale(0.015625)"/>
      <path id="DejaVuSans-20" transform="scale(0.015625)"/>
      <path id="DejaVuSans-6f" d="M 1959 3097 
Q 1497 3097 1228 2736 
Q 959 2375 959 1747 
Q 959 1119 1226 758 
Q 1494 397 1959 397 
Q 2419 397 2687 759 
Q 2956 1122 2956 1747 
Q 2956 2369 2687 2733 
Q 2419 3097 1959 3097 
z
M 1959 3584 
Q 2709 3584 3137 3096 
Q 3566 2609 3566 1747 
Q 3566 888 3137 398 
Q 2709 -91 1959 -91 
Q 1206 -91 779 398 
Q 353 888 353 1747 
Q 353 2609 779 3096 
Q 1206 3584 1959 3584 
z
" transform="scale(0.015625)"/>
      <path id="DejaVuSans-72" d="M 2631 2963 
Q 2534 3019 2420 3045 
Q 2306 3072 2169 3072 
Q 1681 3072 1420 2755 
Q 1159 2438 1159 1844 
L 1159 0 
L 581 0 
L 581 3500 
L 1159 3500 
L 1159 2956 
Q 1341 3275 1631 3429 
Q 1922 3584 2338 3584 
Q 2397 3584 2469 3576 
Q 2541 3569 2628 3553 
L 2631 2963 
z
" transform="scale(0.015625)"/>
      <path id="DejaVuSans-74" d="M 1172 4494 
L 1172 3500 
L 2356 3500 
L 2356 3053 
L 1172 3053 
L 1172 1153 
Q 1172 725 1289 603 
Q 1406 481 1766 481 
L 2356 481 
L 2356 0 
L 1766 0 
Q 1100 0 847 248 
Q 594 497 594 1153 
L 594 3053 
L 172 3053 
L 172 3500 
L 594 3500 
L 594 4494 
L 1172 4494 
z
" transform="scale(0.015625)"/>
      <path id="DejaVuSans-69" d="M 603 3500 
L 1178 3500 
L 1178 0 
L 603 0 
L 603 3500 
z
M 603 4863 
L 1178 4863 
L 1178 4134 
L 603 4134 
L 603 4863 
z
" transform="scale(0.015625)"/>
      <path id="DejaVuSans-28" d="M 1984 4856 
Q 1566 4138 1362 3434 
Q 1159 2731 1159 2009 
Q 1159 1288 1364 580 
Q 1569 -128 1984 -844 
L 1484 -844 
Q 1016 -109 783 600 
Q 550 1309 550 2009 
Q 550 2706 781 3412 
Q 1013 4119 1484 4856 
L 1984 4856 
z
" transform="scale(0.015625)"/>
      <path id="DejaVuSans-76" d="M 191 3500 
L 800 3500 
L 1894 563 
L 2988 3500 
L 3597 3500 
L 2284 0 
L 1503 0 
L 191 3500 
z
" transform="scale(0.015625)"/>
      <path id="DejaVuSans-29" d="M 513 4856 
L 1013 4856 
Q 1481 4119 1714 3412 
Q 1947 2706 1947 2009 
Q 1947 1309 1714 600 
Q 1481 -109 1013 -844 
L 513 -844 
Q 928 -128 1133 580 
Q 1338 1288 1338 2009 
Q 1338 2731 1133 3434 
Q 928 4138 513 4856 
z
" transform="scale(0.015625)"/>
     </defs>
     <use xlink:href="#DejaVuSans-50"/>
     <use xlink:href="#DejaVuSans-68" transform="translate(60.302734 0)"/>
     <use xlink:href="#DejaVuSans-61" transform="translate(123.681641 0)"/>
     <use xlink:href="#DejaVuSans-73" transform="translate(184.960938 0)"/>
     <use xlink:href="#DejaVuSans-65" transform="translate(237.060547 0)"/>
     <use xlink:href="#DejaVuSans-20" transform="translate(298.583984 0)"/>
     <use xlink:href="#DejaVuSans-50" transform="translate(330.371094 0)"/>
     <use xlink:href="#DejaVuSans-6f" transform="translate(387.048828 0)"/>
     <use xlink:href="#DejaVuSans-72" transform="translate(448.230469 0)"/>
     <use xlink:href="#DejaVuSans-74" transform="translate(489.34375 0)"/>
     <use xlink:href="#DejaVuSans-72" transform="translate(528.552734 0)"/>
     <use xlink:href="#DejaVuSans-61" transform="translate(569.666016 0)"/>
     <use xlink:href="#DejaVuSans-69" transform="translate(630.945312 0)"/>
     <use xlink:href="#DejaVuSans-74" transform="translate(658.728516 0)"/>
     <use xlink:href="#DejaVuSans-20" transform="translate(697.9375 0)"/>
     <use xlink:href="#DejaVuSans-28" transform="translate(729.724609 0)"/>
     <use xlink:href="#DejaVuSans-78" transform="translate(768.738281 0)"/>
     <use xlink:href="#DejaVuSans-30" transform="translate(827.917969 0)"/>
     <use xlink:href="#DejaVuSans-20" transform="translate(891.541016 0)"/>
     <use xlink:href="#DejaVuSans-76" transform="translate(923.328125 0)"/>
     <use xlink:href="#DejaVuSans-73" transform="translate(982.507812 0)"/>
     <use xlink:href="#DejaVuSans-20" transform="translate(1034.607422 0)"/>
     <use xlink:href="#DejaVuSans-78" transform="translate(1066.394531 0)"/>
     <use xlink:href="#DejaVuSans-31" transform="translate(1125.574219 0)"/>
     <use xlink:href="#DejaVuSans-29" transform="translate(1189.197266 0)"/>
    </g>
   </g>
   <g id="line2d_14">
    <path d="M 536.900728 266.254811 
L 537.440586 271.245421 
L 537.636937 276.149019 
L 537.494056 281.000909 
L 537.014727 285.835976 
L 536.198802 290.688251 
L 535.043755 295.591173 
L 533.545363 300.577695 
L 531.696159 305.679812 
L 529.487386 310.929094 
L 526.907608 316.355927 
L 523.94334 321.989478 
L 520.579567 327.857867 
L 516.798671 333.986008 
L 512.582048 340.397262 
L 507.909218 347.110282 
L 502.758704 354.138704 
L 497.108199 361.491893 
L 490.935244 369.167238 
L 484.21752 377.156606 
L 476.934 385.436377 
L 469.066039 393.968396 
L 460.596774 402.70208 
L 451.516224 411.558623 
L 441.81758 420.447097 
L 436.736764 424.867064 
L 431.503305 429.247778 
L 426.118721 433.571644 
L 420.584913 437.819738 
L 414.904218 441.97174 
L 409.081435 446.004645 
L 403.121366 449.895451 
L 397.029081 453.621292 
L 390.810233 457.158135 
L 384.471274 460.481024 
L 378.021117 463.566589 
L 371.468677 466.391458 
L 364.823057 468.933021 
L 358.094071 471.168414 
L 351.292517 473.075544 
L 344.430768 474.639127 
L 337.521195 475.843879 
L 330.576185 476.675689 
L 323.608774 477.121712 
L 316.632719 477.172106 
L 309.6618 476.826461 
L 302.709798 476.084371 
L 295.79031 474.946453 
L 288.917277 473.41581 
L 282.10467 471.499483 
L 275.365005 469.211876 
L 268.710796 466.567394 
L 262.154253 463.580856 
L 255.707492 460.269524 
L 249.381927 456.653334 
L 243.186777 452.754631 
L 237.131261 448.595758 
L 231.224282 444.198837 
L 225.474313 439.587271 
L 219.888732 434.784776 
L 214.472836 429.813186 
L 209.231924 424.694335 
L 204.171046 419.449482 
L 199.29471 414.099888 
L 194.606371 408.665318 
L 190.108005 403.161811 
L 185.801589 397.605409 
L 181.688948 392.011533 
L 177.771439 386.394894 
L 174.049672 380.768084 
L 170.523453 375.140131 
L 167.192588 369.520065 
L 164.056822 363.916427 
L 161.115584 358.336908 
L 158.36791 352.787335 
L 155.812561 347.270986 
L 153.448298 341.791135 
L 151.273885 336.350756 
L 149.287915 330.952121 
L 147.488879 325.596241 
L 145.875316 320.282666 
L 144.445768 315.010945 
L 143.19881 309.780491 
L 142.132963 304.590236 
L 141.246822 299.438466 
L 140.539185 294.322902 
L 140.008851 289.241264 
L 139.654661 284.191285 
L 139.475475 279.170385 
L 139.470312 274.175883 
L 139.638404 269.205245 
L 139.978982 264.255936 
L 140.491308 259.325576 
L 141.174712 254.411571 
L 142.028669 249.511735 
L 143.05277 244.624647 
L 144.246607 239.748889 
L 145.609754 234.883343 
L 147.141903 230.026738 
L 148.842777 225.178732 
L 150.71202 220.340348 
L 152.749271 215.512605 
L 154.954086 210.696975 
L 157.326173 205.894844 
L 159.865064 201.109069 
L 162.569913 196.34439 
L 165.439876 191.605547 
L 168.473931 186.897817 
L 171.671227 182.226563 
L 175.030426 177.599027 
L 178.549468 173.024555 
L 182.226293 168.512491 
L 186.058567 164.072651 
L 190.044101 159.715274 
L 194.179858 155.452402 
L 198.461764 151.29773 
L 202.885745 147.264958 
L 207.447401 143.36792 
L 212.142358 139.621343 
L 216.965108 136.040743 
L 221.908978 132.641905 
L 226.967296 129.440615 
L 232.133091 126.452206 
L 237.399213 123.693213 
L 242.757356 121.178931 
L 248.198245 118.922835 
L 253.712607 116.938402 
L 259.291012 115.23806 
L 264.923617 113.835172 
L 270.599815 112.739571 
L 276.308568 111.957488 
L 282.038844 111.495154 
L 287.779659 111.357514 
L 293.519508 111.549538 
L 299.246853 112.07153 
L 304.950427 112.919845 
L 310.618964 114.090841 
L 316.241448 115.579884 
L 321.806427 117.381371 
L 327.303211 119.485905 
L 332.721936 121.881443 
L 338.052739 124.555939 
L 343.286117 127.496994 
L 348.412374 130.690835 
L 353.423081 134.122186 
L 358.310865 137.775117 
L 363.06835 141.633699 
L 367.688531 145.682243 
L 372.164448 149.903996 
L 376.490503 154.282965 
L 380.662061 158.804057 
L 384.674489 163.45218 
L 388.523448 168.212805 
L 392.204793 173.070943 
L 395.715507 178.01362 
L 399.053276 183.029403 
L 402.215789 188.106858 
L 405.200928 193.235154 
L 408.006804 198.403495 
L 410.632289 203.603266 
L 413.076681 208.827294 
L 415.339277 214.068408 
L 417.419485 219.319896 
L 419.316896 224.57534 
L 421.031527 229.829992 
L 422.563607 235.08008 
L 423.91337 240.321837 
L 425.081103 245.551734 
L 426.067195 250.766634 
L 426.872246 255.964271 
L 427.496954 261.142809 
L 427.942018 266.300414 
L 428.208177 271.435263 
L 428.296185 276.545939 
L 428.206927 281.631055 
L 427.941371 286.689148 
L 427.500483 291.718754 
L 426.885294 296.718207 
L 426.096758 301.686231 
L 425.136032 306.620799 
L 424.004414 311.519388 
L 422.703201 316.379473 
L 421.233811 321.198154 
L 419.597502 325.972855 
L 417.795934 330.699629 
L 415.831022 335.373743 
L 413.704684 339.990462 
L 411.419031 344.544596 
L 408.975966 349.031097 
L 406.378068 353.443273 
L 403.628317 357.773569 
L 400.729694 362.014436 
L 397.68545 366.157951 
L 394.498625 370.19599 
L 391.173223 374.119118 
L 387.71376 377.91731 
L 384.124751 381.580538 
L 380.411026 385.098717 
L 376.577286 388.461092 
L 372.629349 391.656761 
L 368.573572 394.674871 
L 364.41631 397.504567 
L 360.164195 400.13543 
L 355.823913 402.556008 
L 351.403144 404.756517 
L 346.909997 406.728076 
L 342.352576 408.461802 
L 337.739139 409.949731 
L 333.078212 411.182909 
L 328.378868 412.155782 
L 323.650361 412.864377 
L 318.901942 413.304719 
L 314.142829 413.473977 
L 309.382658 413.368858 
L 304.63094 412.990148 
L 299.897059 412.340343 
L 295.190401 411.421942 
L 290.520133 410.238397 
L 285.895852 408.793446 
L 281.326363 407.094078 
L 276.820095 405.14852 
L 272.385482 402.965 
L 268.030617 400.552223 
L 263.7639 397.919672 
L 259.592514 395.078276 
L 255.523153 392.039425 
L 251.562509 388.81451 
L 247.716904 385.414886 
L 243.992789 381.852731 
L 240.395313 378.139869 
L 236.929139 374.287914 
L 233.598932 370.308484 
L 230.40902 366.21282 
L 227.363729 362.012715 
L 224.466239 357.718526 
L 221.719338 353.340061 
L 219.125815 348.887131 
L 216.688195 344.369066 
L 214.408935 339.795402 
L 212.289616 335.174012 
L 210.331542 330.512197 
L 208.536015 325.817259 
L 206.904145 321.096102 
L 205.436976 316.355565 
L 204.134928 311.601208 
L 202.998232 306.83819 
L 202.027118 302.071671 
L 201.221669 297.3066 
L 200.58195 292.547688 
L 200.107553 287.799057 
L 199.797931 283.06467 
L 199.652536 278.348489 
L 199.670683 273.654482 
L 199.851738 268.986295 
L 200.194623 264.347733 
L 200.698123 259.742665 
L 201.361022 255.174962 
L 202.181946 250.648683 
L 203.159646 246.167583 
L 204.292331 241.736172 
L 205.578048 237.359192 
L 207.014846 233.041382 
L 208.600564 228.787778 
L 210.333224 224.603231 
L 212.210135 220.493629 
L 214.2284 216.465147 
L 216.385123 212.523958 
L 218.677148 208.676496 
L 221.101514 204.929266 
L 223.654373 201.28958 
L 226.331634 197.764951 
L 229.129207 194.362892 
L 232.042715 191.090961 
L 235.067921 187.957144 
L 238.199625 184.969392 
L 241.432382 182.135627 
L 244.760744 179.463771 
L 248.179004 176.961428 
L 251.681471 174.636943 
L 255.261606 172.497334 
L 258.912676 170.549269 
L 262.627946 168.799416 
L 266.400512 167.253733 
L 270.22332 165.91901 
L 274.088826 164.799431 
L 277.989389 163.898559 
L 281.917365 163.219959 
L 285.86509 162.766239 
L 289.824608 162.540599 
L 293.788 162.543006 
L 297.74737 162.772713 
L 301.694825 163.228972 
L 305.622614 163.910112 
L 309.522629 164.814592 
L 313.387348 165.938008 
L 317.209385 167.275366 
L 320.981352 168.821675 
L 324.696139 170.571311 
L 328.346316 172.518348 
L 331.925434 174.655163 
L 335.427252 176.973809 
L 338.845526 179.46634 
L 342.174362 182.124589 
L 345.407641 184.939879 
L 348.540396 187.903196 
L 351.567883 191.005476 
L 354.485357 194.237657 
L 357.288429 197.590802 
L 359.97259 201.055506 
L 362.534443 204.623027 
L 364.970792 208.284754 
L 367.278441 212.032077 
L 369.454514 215.856696 
L 371.496084 219.750022 
L 373.401182 223.70454 
L 375.167998 227.712925 
L 376.794726 231.767849 
L 378.279827 235.862312 
L 379.621735 239.989229 
L 380.819668 244.142472 
L 381.872968 248.316072 
L 382.780979 252.50406 
L 383.543271 256.70068 
L 384.159374 260.900261 
L 384.62948 265.097659 
L 384.953881 269.287813 
L 385.13287 273.465661 
L 385.166951 277.626199 
L 385.056547 281.764594 
L 384.802706 285.876031 
L 384.406572 289.9557 
L 383.869285 293.998789 
L 383.192206 298.000403 
L 382.37657 301.955816 
L 381.424282 305.859933 
L 380.337344 309.707605 
L 379.117756 313.493685 
L 377.767763 317.212875 
L 376.289451 320.859945 
L 374.685669 324.429191 
L 372.959362 327.914848 
L 371.113478 331.311152 
L 369.151233 334.612245 
L 367.07569 337.812133 
L 364.890736 340.904655 
L 362.600361 343.883631 
L 360.208554 346.742879 
L 357.719575 349.476318 
L 355.137586 352.077483 
L 352.467542 354.540449 
L 349.714488 356.859354 
L 346.883471 359.028338 
L 343.979765 361.041929 
L 341.008647 362.894074 
L 337.976006 364.580186 
L 334.887795 366.095836 
L 331.749968 367.436596 
L 328.568611 368.598713 
L 325.349938 369.577821 
L 322.100437 370.371794 
L 318.82662 370.978732 
L 315.535003 371.396739 
L 312.232098 371.624751 
L 308.924648 371.66126 
L 305.619245 371.507263 
L 302.322461 371.163993 
L 299.040871 370.632684 
L 295.780905 369.915364 
L 292.549276 369.013903 
L 289.352129 367.932299 
L 286.195561 366.674735 
L 283.085669 365.245393 
L 280.028289 363.64902 
L 277.029526 361.890485 
L 274.094626 359.97594 
L 271.228767 357.911639 
L 268.437125 355.703837 
L 265.724548 353.359038 
L 263.096098 350.884027 
L 260.555847 348.28594 
L 258.107795 345.571938 
L 255.75594 342.749183 
L 253.503929 339.824813 
L 251.355566 336.806253 
L 249.313671 333.700602 
L 247.380998 330.51493 
L 245.560301 327.256313 
L 243.853997 323.931635 
L 242.264615 320.547991 
L 240.79379 317.111847 
L 239.4431 313.629628 
L 238.214122 310.107762 
L 237.10813 306.552456 
L 236.12649 302.970007 
L 235.269775 299.366135 
L 234.538514 295.746525 
L 233.933233 292.116864 
L 233.454184 288.482678 
L 233.101716 284.849489 
L 232.875455 281.222485 
L 232.77499 277.606838 
L 232.799911 274.00772 
L 232.949543 270.430243 
L 233.22333 266.879464 
L 233.620013 263.360385 
L 234.138302 259.878004 
L 234.77691 256.437321 
L 235.534281 253.043348 
L 236.408996 249.701069 
L 237.398921 246.415558 
L 238.501893 243.191893 
L 239.715752 240.035151 
L 241.038062 236.950431 
L 242.466525 233.942893 
L 243.998114 231.0177 
L 245.629776 228.180012 
L 247.358459 225.43499 
L 249.180839 222.787721 
L 251.093704 220.243503 
L 253.093138 217.807265 
L 255.17521 215.483925 
L 257.335986 213.278401 
L 259.571291 211.195347 
L 261.876997 209.239788 
L 264.248398 207.415798 
L 266.680772 205.727436 
L 269.1694 204.178755 
L 271.709384 202.773319 
L 274.295789 201.515152 
L 276.923329 200.406743 
L 279.586708 199.450555 
L 282.280632 198.649051 
L 284.999731 198.00401 
L 287.738513 197.517659 
L 290.491438 197.190322 
L 293.252968 197.022304 
L 296.017563 197.013909 
L 298.779734 197.164689 
L 301.5338 197.474517 
L 304.27437 197.941389 
L 306.996054 198.563295 
L 309.693462 199.338221 
L 312.361379 200.263494 
L 314.994361 201.336568 
L 317.58755 202.553443 
L 320.136082 203.910117 
L 322.635102 205.402586 
L 325.080007 207.026405 
L 327.465996 208.777066 
L 329.789027 210.649251 
L 332.045056 212.637641 
L 334.230048 214.736915 
L 336.340267 216.941554 
L 338.371825 219.245885 
L 340.321662 221.644024 
L 342.186714 224.130088 
L 343.963933 226.698195 
L 345.650569 229.342452 
L 347.243781 232.05682 
L 348.741532 234.835442 
L 350.141782 237.67246 
L 351.442511 240.562026 
L 353.738397 246.475664 
L 355.617878 252.530973 
L 357.072897 258.683956 
L 358.097564 264.891501 
L 358.690211 271.112289 
L 358.850895 277.305687 
L 358.583095 283.432225 
L 358.583095 283.432225 
" clip-path="url(#p8c2f74523a)" style="fill: none; stroke-dasharray: 12.95,5.6; stroke-dashoffset: 0; stroke: #ff0000; stroke-opacity: 0.8; stroke-width: 3.5"/>
   </g>
   <g id="legend_1">
    <g id="patch_7">
     <path d="M 408.860312 89.030625 
L 554.210312 89.030625 
Q 556.210312 89.030625 556.210312 87.030625 
L 556.210312 29.318125 
Q 556.210312 27.318125 554.210312 27.318125 
L 408.860312 27.318125 
Q 406.860312 27.318125 406.860312 29.318125 
L 406.860312 87.030625 
Q 406.860312 89.030625 408.860312 89.030625 
z
" style="fill: #ffffff; opacity: 0.8; stroke: #cccccc; stroke-linejoin: miter"/>
    </g>
    <g id="line2d_15">
     <path d="M 410.860312 35.416562 
L 420.860312 35.416562 
L 430.860312 35.416562 
" style="fill: none; stroke: #000000; stroke-opacity: 0.3; stroke-width: 7; stroke-linecap: square"/>
    </g>
    <g id="text_14">
     <!-- True/Underlying model -->
     <g transform="translate(438.860312 38.916562) scale(0.1 -0.1)">
      <defs>
       <path id="DejaVuSans-54" d="M -19 4666 
L 3928 4666 
L 3928 4134 
L 2272 4134 
L 2272 0 
L 1638 0 
L 1638 4134 
L -19 4134 
L -19 4666 
z
" transform="scale(0.015625)"/>
       <path id="DejaVuSans-75" d="M 544 1381 
L 544 3500 
L 1119 3500 
L 1119 1403 
Q 1119 906 1312 657 
Q 1506 409 1894 409 
Q 2359 409 2629 706 
Q 2900 1003 2900 1516 
L 2900 3500 
L 3475 3500 
L 3475 0 
L 2900 0 
L 2900 538 
Q 2691 219 2414 64 
Q 2138 -91 1772 -91 
Q 1169 -91 856 284 
Q 544 659 544 1381 
z
M 1991 3584 
L 1991 3584 
z
" transform="scale(0.015625)"/>
       <path id="DejaVuSans-2f" d="M 1625 4666 
L 2156 4666 
L 531 -594 
L 0 -594 
L 1625 4666 
z
" transform="scale(0.015625)"/>
       <path id="DejaVuSans-55" d="M 556 4666 
L 1191 4666 
L 1191 1831 
Q 1191 1081 1462 751 
Q 1734 422 2344 422 
Q 2950 422 3222 751 
Q 3494 1081 3494 1831 
L 3494 4666 
L 4128 4666 
L 4128 1753 
Q 4128 841 3676 375 
Q 3225 -91 2344 -91 
Q 1459 -91 1007 375 
Q 556 841 556 1753 
L 556 4666 
z
" transform="scale(0.015625)"/>
       <path id="DejaVuSans-6e" d="M 3513 2113 
L 3513 0 
L 2938 0 
L 2938 2094 
Q 2938 2591 2744 2837 
Q 2550 3084 2163 3084 
Q 1697 3084 1428 2787 
Q 1159 2491 1159 1978 
L 1159 0 
L 581 0 
L 581 3500 
L 1159 3500 
L 1159 2956 
Q 1366 3272 1645 3428 
Q 1925 3584 2291 3584 
Q 2894 3584 3203 3211 
Q 3513 2838 3513 2113 
z
" transform="scale(0.015625)"/>
       <path id="DejaVuSans-64" d="M 2906 2969 
L 2906 4863 
L 3481 4863 
L 3481 0 
L 2906 0 
L 2906 525 
Q 2725 213 2448 61 
Q 2172 -91 1784 -91 
Q 1150 -91 751 415 
Q 353 922 353 1747 
Q 353 2572 751 3078 
Q 1150 3584 1784 3584 
Q 2172 3584 2448 3432 
Q 2725 3281 2906 2969 
z
M 947 1747 
Q 947 1113 1208 752 
Q 1469 391 1925 391 
Q 2381 391 2643 752 
Q 2906 1113 2906 1747 
Q 2906 2381 2643 2742 
Q 2381 3103 1925 3103 
Q 1469 3103 1208 2742 
Q 947 2381 947 1747 
z
" transform="scale(0.015625)"/>
       <path id="DejaVuSans-6c" d="M 603 4863 
L 1178 4863 
L 1178 0 
L 603 0 
L 603 4863 
z
" transform="scale(0.015625)"/>
       <path id="DejaVuSans-79" d="M 2059 -325 
Q 1816 -950 1584 -1140 
Q 1353 -1331 966 -1331 
L 506 -1331 
L 506 -850 
L 844 -850 
Q 1081 -850 1212 -737 
Q 1344 -625 1503 -206 
L 1606 56 
L 191 3500 
L 800 3500 
L 1894 763 
L 2988 3500 
L 3597 3500 
L 2059 -325 
z
" transform="scale(0.015625)"/>
       <path id="DejaVuSans-67" d="M 2906 1791 
Q 2906 2416 2648 2759 
Q 2391 3103 1925 3103 
Q 1463 3103 1205 2759 
Q 947 2416 947 1791 
Q 947 1169 1205 825 
Q 1463 481 1925 481 
Q 2391 481 2648 825 
Q 2906 1169 2906 1791 
z
M 3481 434 
Q 3481 -459 3084 -895 
Q 2688 -1331 1869 -1331 
Q 1566 -1331 1297 -1286 
Q 1028 -1241 775 -1147 
L 775 -588 
Q 1028 -725 1275 -790 
Q 1522 -856 1778 -856 
Q 2344 -856 2625 -561 
Q 2906 -266 2906 331 
L 2906 616 
Q 2728 306 2450 153 
Q 2172 0 1784 0 
Q 1141 0 747 490 
Q 353 981 353 1791 
Q 353 2603 747 3093 
Q 1141 3584 1784 3584 
Q 2172 3584 2450 3431 
Q 2728 3278 2906 2969 
L 2906 3500 
L 3481 3500 
L 3481 434 
z
" transform="scale(0.015625)"/>
       <path id="DejaVuSans-6d" d="M 3328 2828 
Q 3544 3216 3844 3400 
Q 4144 3584 4550 3584 
Q 5097 3584 5394 3201 
Q 5691 2819 5691 2113 
L 5691 0 
L 5113 0 
L 5113 2094 
Q 5113 2597 4934 2840 
Q 4756 3084 4391 3084 
Q 3944 3084 3684 2787 
Q 3425 2491 3425 1978 
L 3425 0 
L 2847 0 
L 2847 2094 
Q 2847 2600 2669 2842 
Q 2491 3084 2119 3084 
Q 1678 3084 1418 2786 
Q 1159 2488 1159 1978 
L 1159 0 
L 581 0 
L 581 3500 
L 1159 3500 
L 1159 2956 
Q 1356 3278 1631 3431 
Q 1906 3584 2284 3584 
Q 2666 3584 2933 3390 
Q 3200 3197 3328 2828 
z
" transform="scale(0.015625)"/>
      </defs>
      <use xlink:href="#DejaVuSans-54"/>
      <use xlink:href="#DejaVuSans-72" transform="translate(46.333984 0)"/>
      <use xlink:href="#DejaVuSans-75" transform="translate(87.447266 0)"/>
      <use xlink:href="#DejaVuSans-65" transform="translate(150.826172 0)"/>
      <use xlink:href="#DejaVuSans-2f" transform="translate(212.349609 0)"/>
      <use xlink:href="#DejaVuSans-55" transform="translate(246.041016 0)"/>
      <use xlink:href="#DejaVuSans-6e" transform="translate(319.234375 0)"/>
      <use xlink:href="#DejaVuSans-64" transform="translate(382.613281 0)"/>
      <use xlink:href="#DejaVuSans-65" transform="translate(446.089844 0)"/>
      <use xlink:href="#DejaVuSans-72" transform="translate(507.613281 0)"/>
      <use xlink:href="#DejaVuSans-6c" transform="translate(548.726562 0)"/>
      <use xlink:href="#DejaVuSans-79" transform="translate(576.509766 0)"/>
      <use xlink:href="#DejaVuSans-69" transform="translate(635.689453 0)"/>
      <use xlink:href="#DejaVuSans-6e" transform="translate(663.472656 0)"/>
      <use xlink:href="#DejaVuSans-67" transform="translate(726.851562 0)"/>
      <use xlink:href="#DejaVuSans-20" transform="translate(790.328125 0)"/>
      <use xlink:href="#DejaVuSans-6d" transform="translate(822.115234 0)"/>
      <use xlink:href="#DejaVuSans-6f" transform="translate(919.527344 0)"/>
      <use xlink:href="#DejaVuSans-64" transform="translate(980.708984 0)"/>
      <use xlink:href="#DejaVuSans-65" transform="translate(1044.185547 0)"/>
      <use xlink:href="#DejaVuSans-6c" transform="translate(1105.708984 0)"/>
     </g>
    </g>
    <g id="line2d_16">
     <path d="M 410.860312 50.094687 
L 420.860312 50.094687 
L 430.860312 50.094687 
" style="fill: none; stroke-dasharray: 12.95,5.6; stroke-dashoffset: 0; stroke: #ff0000; stroke-opacity: 0.8; stroke-width: 3.5"/>
    </g>
    <g id="text_15">
     <!-- AutoSINDy -->
     <g transform="translate(438.860312 53.594687) scale(0.1 -0.1)">
      <defs>
       <path id="DejaVuSans-41" d="M 2188 4044 
L 1331 1722 
L 3047 1722 
L 2188 4044 
z
M 1831 4666 
L 2547 4666 
L 4325 0 
L 3669 0 
L 3244 1197 
L 1141 1197 
L 716 0 
L 50 0 
L 1831 4666 
z
" transform="scale(0.015625)"/>
       <path id="DejaVuSans-53" d="M 3425 4513 
L 3425 3897 
Q 3066 4069 2747 4153 
Q 2428 4238 2131 4238 
Q 1616 4238 1336 4038 
Q 1056 3838 1056 3469 
Q 1056 3159 1242 3001 
Q 1428 2844 1947 2747 
L 2328 2669 
Q 3034 2534 3370 2195 
Q 3706 1856 3706 1288 
Q 3706 609 3251 259 
Q 2797 -91 1919 -91 
Q 1588 -91 1214 -16 
Q 841 59 441 206 
L 441 856 
Q 825 641 1194 531 
Q 1563 422 1919 422 
Q 2459 422 2753 634 
Q 3047 847 3047 1241 
Q 3047 1584 2836 1778 
Q 2625 1972 2144 2069 
L 1759 2144 
Q 1053 2284 737 2584 
Q 422 2884 422 3419 
Q 422 4038 858 4394 
Q 1294 4750 2059 4750 
Q 2388 4750 2728 4690 
Q 3069 4631 3425 4513 
z
" transform="scale(0.015625)"/>
       <path id="DejaVuSans-49" d="M 628 4666 
L 1259 4666 
L 1259 0 
L 628 0 
L 628 4666 
z
" transform="scale(0.015625)"/>
       <path id="DejaVuSans-4e" d="M 628 4666 
L 1478 4666 
L 3547 763 
L 3547 4666 
L 4159 4666 
L 4159 0 
L 3309 0 
L 1241 3903 
L 1241 0 
L 628 0 
L 628 4666 
z
" transform="scale(0.015625)"/>
       <path id="DejaVuSans-44" d="M 1259 4147 
L 1259 519 
L 2022 519 
Q 2988 519 3436 956 
Q 3884 1394 3884 2338 
Q 3884 3275 3436 3711 
Q 2988 4147 2022 4147 
L 1259 4147 
z
M 628 4666 
L 1925 4666 
Q 3281 4666 3915 4102 
Q 4550 3538 4550 2338 
Q 4550 1131 3912 565 
Q 3275 0 1925 0 
L 628 0 
L 628 4666 
z
" transform="scale(0.015625)"/>
      </defs>
      <use xlink:href="#DejaVuSans-41"/>
      <use xlink:href="#DejaVuSans-75" transform="translate(68.408203 0)"/>
      <use xlink:href="#DejaVuSans-74" transform="translate(131.787109 0)"/>
      <use xlink:href="#DejaVuSans-6f" transform="translate(170.996094 0)"/>
      <use xlink:href="#DejaVuSans-53" transform="translate(232.177734 0)"/>
      <use xlink:href="#DejaVuSans-49" transform="translate(295.654297 0)"/>
      <use xlink:href="#DejaVuSans-4e" transform="translate(325.146484 0)"/>
      <use xlink:href="#DejaVuSans-44" transform="translate(399.951172 0)"/>
      <use xlink:href="#DejaVuSans-79" transform="translate(476.953125 0)"/>
     </g>
    </g>
    <g id="line2d_17">
     <path d="M 410.860312 64.772812 
L 420.860312 64.772812 
L 430.860312 64.772812 
" style="fill: none; stroke-dasharray: 3.5,5.775; stroke-dashoffset: 0; stroke: #008000; stroke-opacity: 0.8; stroke-width: 3.5"/>
    </g>
    <g id="text_16">
     <!-- Standard SINDy -->
     <g transform="translate(438.860312 68.272812) scale(0.1 -0.1)">
      <use xlink:href="#DejaVuSans-53"/>
      <use xlink:href="#DejaVuSans-74" transform="translate(63.476562 0)"/>
      <use xlink:href="#DejaVuSans-61" transform="translate(102.685547 0)"/>
      <use xlink:href="#DejaVuSans-6e" transform="translate(163.964844 0)"/>
      <use xlink:href="#DejaVuSans-64" transform="translate(227.34375 0)"/>
      <use xlink:href="#DejaVuSans-61" transform="translate(290.820312 0)"/>
      <use xlink:href="#DejaVuSans-72" transform="translate(352.099609 0)"/>
      <use xlink:href="#DejaVuSans-64" transform="translate(391.462891 0)"/>
      <use xlink:href="#DejaVuSans-20" transform="translate(454.939453 0)"/>
      <use xlink:href="#DejaVuSans-53" transform="translate(486.726562 0)"/>
      <use xlink:href="#DejaVuSans-49" transform="translate(550.203125 0)"/>
      <use xlink:href="#DejaVuSans-4e" transform="translate(579.695312 0)"/>
      <use xlink:href="#DejaVuSans-44" transform="translate(654.5 0)"/>
      <use xlink:href="#DejaVuSans-79" transform="translate(731.501953 0)"/>
     </g>
    </g>
    <g id="line2d_18">
     <path d="M 410.860312 79.450937 
L 420.860312 79.450937 
L 430.860312 79.450937 
" style="fill: none; stroke-dasharray: 22.4,5.6,3.5,5.6; stroke-dashoffset: 0; stroke: #0000ff; stroke-opacity: 0.8; stroke-width: 3.5"/>
    </g>
    <g id="text_17">
     <!-- Standard PySR -->
     <g transform="translate(438.860312 82.950937) scale(0.1 -0.1)">
      <defs>
       <path id="DejaVuSans-52" d="M 2841 2188 
Q 3044 2119 3236 1894 
Q 3428 1669 3622 1275 
L 4263 0 
L 3584 0 
L 2988 1197 
Q 2756 1666 2539 1819 
Q 2322 1972 1947 1972 
L 1259 1972 
L 1259 0 
L 628 0 
L 628 4666 
L 2053 4666 
Q 2853 4666 3247 4331 
Q 3641 3997 3641 3322 
Q 3641 2881 3436 2590 
Q 3231 2300 2841 2188 
z
M 1259 4147 
L 1259 2491 
L 2053 2491 
Q 2509 2491 2742 2702 
Q 2975 2913 2975 3322 
Q 2975 3731 2742 3939 
Q 2509 4147 2053 4147 
L 1259 4147 
z
" transform="scale(0.015625)"/>
      </defs>
      <use xlink:href="#DejaVuSans-53"/>
      <use xlink:href="#DejaVuSans-74" transform="translate(63.476562 0)"/>
      <use xlink:href="#DejaVuSans-61" transform="translate(102.685547 0)"/>
      <use xlink:href="#DejaVuSans-6e" transform="translate(163.964844 0)"/>
      <use xlink:href="#DejaVuSans-64" transform="translate(227.34375 0)"/>
      <use xlink:href="#DejaVuSans-61" transform="translate(290.820312 0)"/>
      <use xlink:href="#DejaVuSans-72" transform="translate(352.099609 0)"/>
      <use xlink:href="#DejaVuSans-64" transform="translate(391.462891 0)"/>
      <use xlink:href="#DejaVuSans-20" transform="translate(454.939453 0)"/>
      <use xlink:href="#DejaVuSans-50" transform="translate(486.726562 0)"/>
      <use xlink:href="#DejaVuSans-79" transform="translate(547.029297 0)"/>
      <use xlink:href="#DejaVuSans-53" transform="translate(606.208984 0)"/>
      <use xlink:href="#DejaVuSans-52" transform="translate(669.685547 0)"/>
     </g>
    </g>
   </g>
  </g>
 </g>
 <defs>
  <clipPath id="p8c2f74523a">
   <rect x="42.620313" y="22.318125" width="518.59" height="508.12"/>
  </clipPath>
 </defs>
</svg>
