<?xml version="1.0" encoding="utf-8" standalone="no"?>
<!DOCTYPE svg PUBLIC "-//W3C//DTD SVG 1.1//EN"
  "http://www.w3.org/Graphics/SVG/1.1/DTD/svg11.dtd">
<svg xmlns:xlink="http://www.w3.org/1999/xlink" width="871.750937pt" height="285.79625pt" viewBox="0 0 871.750937 285.79625" xmlns="http://www.w3.org/2000/svg" version="1.1">
 <metadata>
  <rdf:RDF xmlns:dc="http://purl.org/dc/elements/1.1/" xmlns:cc="http://creativecommons.org/ns#" xmlns:rdf="http://www.w3.org/1999/02/22-rdf-syntax-ns#">
   <cc:Work>
    <dc:type rdf:resource="http://purl.org/dc/dcmitype/StillImage"/>
    <dc:date>2026-04-06T03:03:18.719238</dc:date>
    <dc:format>image/svg+xml</dc:format>
    <dc:creator>
     <cc:Agent>
      <dc:title>Matplotlib v3.10.7, https://matplotlib.org/</dc:title>
     </cc:Agent>
    </dc:creator>
   </cc:Work>
  </rdf:RDF>
 </metadata>
 <defs>
  <style type="text/css">*{stroke-linejoin: round; stroke-linecap: butt}</style>
 </defs>
 <g id="figure_1">
  <g id="patch_1">
   <path d="M 0 285.79625 
L 871.750937 285.79625 
L 871.750937 0 
L 0 0 
z
" style="fill: #ffffff"/>
  </g>
  <g id="axes_1">
   <g id="patch_2">
    <path d="M 52.160938 136.79 
L 858.750937 136.79 
L 858.750937 39.64 
L 52.160938 39.64 
z
" style="fill: #ffffff"/>
   </g>
   <g id="line2d_1">
    <path d="M 88.824119 49.114168 
L 94.701984 48.983842 
L 100.579849 49.092687 
L 106.457714 49.439661 
L 112.335579 50.029883 
L 118.213443 50.874 
L 124.091308 51.987642 
L 128.499707 53.014794 
L 132.908105 54.219931 
L 137.316504 55.615317 
L 141.724903 57.213343 
L 146.133301 59.026521 
L 150.5417 61.067472 
L 154.950099 63.347705 
L 159.358497 65.873941 
L 163.766896 68.644444 
L 168.175294 71.648397 
L 174.053159 75.981118 
L 179.931024 80.62017 
L 188.747821 87.924391 
L 199.034085 96.4002 
L 204.91195 100.920017 
L 209.320348 104.060555 
L 213.728747 106.943831 
L 218.137145 109.540457 
L 222.545544 111.830096 
L 226.953943 113.806155 
L 231.362341 115.47284 
L 235.77074 116.833677 
L 240.179138 117.893248 
L 244.587537 118.657191 
L 248.995936 119.132199 
L 253.404334 119.326034 
L 257.812733 119.245233 
L 262.221132 118.891079 
L 266.62953 118.264831 
L 271.037929 117.368681 
L 275.446327 116.205757 
L 279.854726 114.780123 
L 284.263125 113.096774 
L 288.671523 111.161643 
L 293.079922 108.981596 
L 297.48832 106.569514 
L 303.366185 103.043119 
L 309.24405 99.238138 
L 318.060847 93.226686 
L 328.347111 86.238309 
L 334.224976 82.50662 
L 338.633374 79.913249 
L 343.041773 77.536056 
L 347.450171 75.403926 
L 351.85857 73.539068 
L 356.266969 71.95702 
L 360.675367 70.666648 
L 365.083766 69.667943 
L 369.492164 68.95805 
L 373.900563 68.535827 
L 378.308962 68.398887 
L 382.71736 68.543602 
L 387.125759 68.9651 
L 391.534158 69.657265 
L 395.942556 70.612714 
L 400.350955 71.823373 
L 404.759353 73.27952 
L 409.167752 74.966865 
L 413.576151 76.866336 
L 419.454015 79.687008 
L 425.33188 82.772026 
L 434.148678 87.705295 
L 445.904407 94.315597 
L 451.782272 97.402445 
L 457.660137 100.222253 
L 462.068535 102.117307 
L 466.476934 103.795199 
L 470.885333 105.237372 
L 475.293731 106.433614 
L 479.70213 107.374945 
L 484.110529 108.055574 
L 488.518927 108.472955 
L 492.927326 108.62779 
L 497.335724 108.524023 
L 501.744123 108.168285 
L 506.152522 107.565973 
L 510.56092 106.724052 
L 514.969319 105.653176 
L 519.377717 104.367684 
L 523.786116 102.885606 
L 529.663981 100.641775 
L 535.541846 98.149182 
L 542.889177 94.793153 
L 560.522771 86.591549 
L 566.400636 84.108987 
L 572.278501 81.879871 
L 576.686899 80.407937 
L 581.095298 79.129566 
L 585.503697 78.060016 
L 589.912095 77.21016 
L 594.320494 76.586492 
L 598.728893 76.190811 
L 603.137291 76.023944 
L 607.54569 76.086319 
L 611.954088 76.375134 
L 616.362487 76.884328 
L 620.770886 77.604577 
L 625.179284 78.523298 
L 629.587683 79.624647 
L 635.465548 81.344849 
L 641.343412 83.309917 
L 648.690743 86.019637 
L 675.141135 96.088099 
L 681.019 97.958094 
L 686.896865 99.567129 
L 691.305263 100.57831 
L 695.713662 101.407732 
L 700.122061 102.046797 
L 704.530459 102.49117 
L 708.938858 102.737328 
L 713.347257 102.783853 
L 717.755655 102.632446 
L 722.164054 102.287928 
L 726.572452 101.758244 
L 732.450317 100.783535 
L 738.328182 99.531211 
L 744.206047 98.038051 
L 751.553378 95.90342 
L 760.370175 93.08688 
L 776.534303 87.851689 
L 783.881634 85.716491 
L 789.759499 84.216811 
L 795.637364 82.947093 
L 801.515229 81.939758 
L 807.393094 81.216003 
L 811.801492 80.868073 
L 816.209891 80.690465 
L 820.618289 80.682975 
L 822.087756 80.717828 
L 822.087756 80.717828 
" clip-path="url(#p35d6d4e53e)" style="fill: none; stroke: #000000; stroke-opacity: 0.4; stroke-width: 6; stroke-linecap: square"/>
   </g>
   <g id="matplotlib.axis_1">
    <g id="xtick_1">
     <g id="line2d_2">
      <defs>
       <path id="m62dcd5590b" d="M 0 0 
L 0 3.5 
" style="stroke: #000000; stroke-width: 0.8"/>
      </defs>
      <g>
       <use xlink:href="#m62dcd5590b" x="88.824119" y="136.79" style="stroke: #000000; stroke-width: 0.8"/>
      </g>
     </g>
    </g>
    <g id="xtick_2">
     <g id="line2d_3">
      <g>
       <use xlink:href="#m62dcd5590b" x="235.476847" y="136.79" style="stroke: #000000; stroke-width: 0.8"/>
      </g>
     </g>
    </g>
    <g id="xtick_3">
     <g id="line2d_4">
      <g>
       <use xlink:href="#m62dcd5590b" x="382.129574" y="136.79" style="stroke: #000000; stroke-width: 0.8"/>
      </g>
     </g>
    </g>
    <g id="xtick_4">
     <g id="line2d_5">
      <g>
       <use xlink:href="#m62dcd5590b" x="528.782301" y="136.79" style="stroke: #000000; stroke-width: 0.8"/>
      </g>
     </g>
    </g>
    <g id="xtick_5">
     <g id="line2d_6">
      <g>
       <use xlink:href="#m62dcd5590b" x="675.435028" y="136.79" style="stroke: #000000; stroke-width: 0.8"/>
      </g>
     </g>
    </g>
    <g id="xtick_6">
     <g id="line2d_7">
      <g>
       <use xlink:href="#m62dcd5590b" x="822.087756" y="136.79" style="stroke: #000000; stroke-width: 0.8"/>
      </g>
     </g>
    </g>
   </g>
   <g id="matplotlib.axis_2">
    <g id="ytick_1">
     <g id="line2d_8">
      <defs>
       <path id="m8dcaf6e0ad" d="M 0 0 
L -3.5 0 
" style="stroke: #000000; stroke-width: 0.8"/>
      </defs>
      <g>
       <use xlink:href="#m8dcaf6e0ad" x="52.160938" y="122.170866" style="stroke: #000000; stroke-width: 0.8"/>
      </g>
     </g>
     <g id="text_1">
      <!-- −2 -->
      <g transform="translate(30.41875 125.970085) scale(0.1 -0.1)">
       <defs>
        <path id="DejaVuSans-2212" d="M 678 2272 
L 4684 2272 
L 4684 1741 
L 678 1741 
L 678 2272 
z
" transform="scale(0.015625)"/>
        <path id="DejaVuSans-32" d="M 1228 531 
L 3431 531 
L 3431 0 
L 469 0 
L 469 531 
Q 828 903 1448 1529 
Q 2069 2156 2228 2338 
Q 2531 2678 2651 2914 
Q 2772 3150 2772 3378 
Q 2772 3750 2511 3984 
Q 2250 4219 1831 4219 
Q 1534 4219 1204 4116 
Q 875 4013 500 3803 
L 500 4441 
Q 881 4594 1212 4672 
Q 1544 4750 1819 4750 
Q 2544 4750 2975 4387 
Q 3406 4025 3406 3419 
Q 3406 3131 3298 2873 
Q 3191 2616 2906 2266 
Q 2828 2175 2409 1742 
Q 1991 1309 1228 531 
z
" transform="scale(0.015625)"/>
       </defs>
       <use xlink:href="#DejaVuSans-2212"/>
       <use xlink:href="#DejaVuSans-32" transform="translate(83.789062 0)"/>
      </g>
     </g>
    </g>
    <g id="ytick_2">
     <g id="line2d_9">
      <g>
       <use xlink:href="#m8dcaf6e0ad" x="52.160938" y="90.691715" style="stroke: #000000; stroke-width: 0.8"/>
      </g>
     </g>
     <g id="text_2">
      <!-- 0 -->
      <g transform="translate(38.798438 94.490934) scale(0.1 -0.1)">
       <defs>
        <path id="DejaVuSans-30" d="M 2034 4250 
Q 1547 4250 1301 3770 
Q 1056 3291 1056 2328 
Q 1056 1369 1301 889 
Q 1547 409 2034 409 
Q 2525 409 2770 889 
Q 3016 1369 3016 2328 
Q 3016 3291 2770 3770 
Q 2525 4250 2034 4250 
z
M 2034 4750 
Q 2819 4750 3233 4129 
Q 3647 3509 3647 2328 
Q 3647 1150 3233 529 
Q 2819 -91 2034 -91 
Q 1250 -91 836 529 
Q 422 1150 422 2328 
Q 422 3509 836 4129 
Q 1250 4750 2034 4750 
z
" transform="scale(0.015625)"/>
       </defs>
       <use xlink:href="#DejaVuSans-30"/>
      </g>
     </g>
    </g>
    <g id="ytick_3">
     <g id="line2d_10">
      <g>
       <use xlink:href="#m8dcaf6e0ad" x="52.160938" y="59.212564" style="stroke: #000000; stroke-width: 0.8"/>
      </g>
     </g>
     <g id="text_3">
      <!-- 2 -->
      <g transform="translate(38.798438 63.011783) scale(0.1 -0.1)">
       <use xlink:href="#DejaVuSans-32"/>
      </g>
     </g>
    </g>
    <g id="text_4">
     <!-- $x0$ -->
     <g transform="translate(24.339063 94.365) rotate(-90) scale(0.1 -0.1)">
      <defs>
       <path id="DejaVuSans-Oblique-78" d="M 3841 3500 
L 2234 1784 
L 3219 0 
L 2559 0 
L 1819 1388 
L 531 0 
L -166 0 
L 1556 1844 
L 641 3500 
L 1300 3500 
L 1972 2234 
L 3144 3500 
L 3841 3500 
z
" transform="scale(0.015625)"/>
      </defs>
      <use xlink:href="#DejaVuSans-Oblique-78" transform="translate(0 0.78125)"/>
      <use xlink:href="#DejaVuSans-30" transform="translate(59.179688 0.78125)"/>
     </g>
    </g>
   </g>
   <g id="line2d_11">
    <path d="M 88.824119 49.114168 
L 91.763052 49.139386 
L 94.701984 49.357502 
L 97.640917 49.766609 
L 102.049315 50.698868 
L 104.988248 51.513743 
L 107.92718 52.521218 
L 110.866112 53.703846 
L 113.805045 55.056306 
L 118.213443 57.391974 
L 121.152376 59.130872 
L 125.560774 62.019062 
L 131.438639 66.355568 
L 135.847038 69.906951 
L 141.724903 74.956787 
L 147.602768 80.303229 
L 156.419565 88.661634 
L 171.114227 102.613347 
L 176.992092 107.896293 
L 181.40049 111.659686 
L 185.808889 115.207231 
L 190.217287 118.498682 
L 194.625686 121.510099 
L 197.564618 123.330761 
L 201.973017 125.766814 
L 206.381416 127.857851 
L 209.320348 129.025351 
L 212.259281 130.012483 
L 215.198213 130.812457 
L 219.606612 131.727752 
L 222.545544 132.120888 
L 225.484476 132.321873 
L 228.423409 132.329513 
L 231.362341 132.144796 
L 234.301274 131.765815 
L 237.240206 131.167702 
L 241.648605 129.869527 
L 244.587537 128.781811 
L 247.526469 127.525393 
L 251.934868 125.322646 
L 256.343267 122.748366 
L 260.751665 119.84796 
L 265.160064 116.629642 
L 269.568463 113.148854 
L 273.976861 109.433995 
L 279.854726 104.180969 
L 287.202057 97.265919 
L 307.774584 77.566525 
L 315.121915 71.042288 
L 320.99978 66.217095 
L 325.408178 62.89984 
L 329.816577 59.846653 
L 334.224976 57.13653 
L 338.633374 54.756994 
L 341.572307 53.382079 
L 344.511239 52.182708 
L 347.450171 51.163488 
L 351.85857 49.960571 
L 354.797502 49.451279 
L 357.736435 49.142675 
L 360.675367 49.026981 
L 363.6143 49.104682 
L 366.553232 49.375223 
L 369.492164 49.837523 
L 373.900563 50.838762 
L 376.839496 51.688748 
L 379.778428 52.74603 
L 382.71736 53.974598 
L 387.125759 56.135535 
L 391.534158 58.679841 
L 395.942556 61.550163 
L 400.350955 64.720322 
L 404.759353 68.141359 
L 409.167752 71.783197 
L 416.515083 78.325103 
L 425.33188 86.626195 
L 441.496009 102.009345 
L 447.373873 107.331329 
L 453.251738 112.352837 
L 457.660137 115.863294 
L 462.068535 119.115334 
L 466.476934 122.054325 
L 470.885333 124.652018 
L 473.824265 126.19 
L 478.232664 128.21291 
L 481.171596 129.334823 
L 484.110529 130.281697 
L 487.049461 131.023309 
L 489.988393 131.637848 
L 492.927326 132.075441 
L 495.866258 132.321353 
L 498.805191 132.374091 
L 501.744123 132.23341 
L 504.683055 131.899999 
L 507.621988 131.360184 
L 512.030386 130.119663 
L 514.969319 129.087424 
L 517.908251 127.863265 
L 522.31665 125.721794 
L 526.725048 123.2272 
L 531.133447 120.367213 
L 535.541846 117.184488 
L 539.950244 113.736998 
L 545.828109 108.778235 
L 551.705974 103.48657 
L 559.053305 96.552323 
L 579.625832 76.877088 
L 585.503697 71.626505 
L 589.912095 67.919375 
L 594.320494 64.459583 
L 598.728893 61.267086 
L 603.137291 58.397701 
L 607.54569 55.840803 
L 611.954088 53.654453 
L 614.893021 52.412198 
L 617.831953 51.345018 
L 620.770886 50.469533 
L 623.709818 49.76142 
L 626.64875 49.30626 
L 629.587683 49.046857 
L 632.526615 48.980554 
L 635.465548 49.107881 
L 638.40448 49.428018 
L 641.343412 49.938917 
L 645.751811 50.975079 
L 648.690743 51.902152 
L 651.629676 53.0131 
L 654.568608 54.289971 
L 658.977007 56.534423 
L 663.385406 59.118388 
L 667.793804 62.038081 
L 672.202203 65.251535 
L 676.610601 68.746614 
L 682.488466 73.757808 
L 688.366331 79.064126 
L 697.183128 87.404438 
L 713.347257 102.77462 
L 719.225121 108.059096 
L 725.102986 113.012765 
L 729.511385 116.465038 
L 733.919783 119.64498 
L 738.328182 122.51368 
L 741.267114 124.2446 
L 744.206047 125.850926 
L 748.614445 127.914375 
L 751.553378 129.07939 
L 755.961776 130.495393 
L 760.370175 131.496322 
L 763.309107 131.978077 
L 766.24804 132.268916 
L 769.186972 132.36688 
L 772.125905 132.271466 
L 775.064837 131.982681 
L 778.00377 131.49678 
L 780.942702 130.752264 
L 783.881634 129.84934 
L 786.820567 128.756931 
L 789.759499 127.494116 
L 794.167898 125.252705 
L 798.576296 122.671585 
L 802.984695 119.771639 
L 807.393094 116.551413 
L 813.270958 111.84994 
L 819.148823 106.752452 
L 822.087756 104.084685 
L 822.087756 104.084685 
" clip-path="url(#p35d6d4e53e)" style="fill: none; stroke-dasharray: 22.4,5.6,3.5,5.6; stroke-dashoffset: 0; stroke: #0000ff; stroke-opacity: 0.8; stroke-width: 3.5"/>
   </g>
   <g id="patch_3">
    <path d="M 52.160938 136.79 
L 52.160938 39.64 
" style="fill: none; stroke: #000000; stroke-width: 0.8; stroke-linejoin: miter; stroke-linecap: square"/>
   </g>
   <g id="patch_4">
    <path d="M 858.750937 136.79 
L 858.750937 39.64 
" style="fill: none; stroke: #000000; stroke-width: 0.8; stroke-linejoin: miter; stroke-linecap: square"/>
   </g>
   <g id="patch_5">
    <path d="M 52.160938 136.79 
L 858.750938 136.79 
" style="fill: none; stroke: #000000; stroke-width: 0.8; stroke-linejoin: miter; stroke-linecap: square"/>
   </g>
   <g id="patch_6">
    <path d="M 52.160938 39.64 
L 858.750938 39.64 
" style="fill: none; stroke: #000000; stroke-width: 0.8; stroke-linejoin: miter; stroke-linecap: square"/>
   </g>
   <g id="line2d_12">
    <path d="M 88.824119 49.114168 
L 90.293586 48.389318 
L 91.763052 47.281716 
L 93.232518 45.857249 
L 94.701984 44.672393 
L 96.17145 44.162748 
L 97.640917 44.055909 
L 102.049315 44.193858 
L 116.743977 44.970452 
L 128.499707 45.784417 
L 138.78597 46.694064 
L 147.602768 47.680295 
L 154.950099 48.708604 
L 160.827963 49.721213 
L 166.705828 50.967955 
L 171.114227 52.102899 
L 175.522625 53.443871 
L 179.931024 55.000574 
L 184.339423 56.756839 
L 190.217287 59.367242 
L 194.625686 61.548002 
L 199.034085 64.000634 
L 203.442483 66.8055 
L 207.850882 69.961184 
L 213.728747 74.544644 
L 219.606612 79.392201 
L 225.484476 84.522411 
L 235.77074 93.714109 
L 240.179138 97.314218 
L 244.587537 100.656324 
L 250.465402 104.795728 
L 254.8738 107.653646 
L 259.282199 110.271387 
L 263.690598 112.64458 
L 268.098996 114.757089 
L 272.507395 116.554641 
L 275.446327 117.543855 
L 278.38526 118.345824 
L 281.324192 118.958225 
L 284.263125 119.386417 
L 287.202057 119.646364 
L 291.610456 119.778143 
L 296.018854 119.686706 
L 301.896719 119.340408 
L 307.774584 118.738272 
L 312.182982 118.025542 
L 316.591381 116.999898 
L 320.99978 115.639527 
L 325.408178 113.984741 
L 329.816577 112.095019 
L 334.224976 109.983707 
L 338.633374 107.607349 
L 343.041773 104.919967 
L 347.450171 101.949098 
L 356.266969 95.637834 
L 363.6143 90.204114 
L 372.431097 83.586635 
L 375.370029 81.636428 
L 378.308962 79.887818 
L 382.71736 77.574862 
L 390.064691 74.106179 
L 395.942556 71.542498 
L 398.881489 70.443741 
L 401.820421 69.540794 
L 404.759353 68.858271 
L 407.698286 68.385424 
L 412.106684 67.989814 
L 416.515083 67.845612 
L 422.392948 67.890625 
L 426.801346 68.104311 
L 431.209745 68.547399 
L 434.148678 69.012627 
L 437.08761 69.636643 
L 440.026542 70.429228 
L 444.434941 71.916914 
L 448.84334 73.702559 
L 454.721204 76.370037 
L 465.007468 81.353988 
L 472.354799 85.161983 
L 478.232664 88.48728 
L 485.579995 92.953138 
L 492.927326 97.339828 
L 497.335724 99.720654 
L 501.744123 101.859652 
L 506.152522 103.769845 
L 510.56092 105.469114 
L 514.969319 106.950344 
L 519.377717 108.178289 
L 523.786116 109.113454 
L 528.194515 109.737643 
L 532.602913 110.066081 
L 537.011312 110.128728 
L 541.419711 109.949898 
L 545.828109 109.534238 
L 550.236508 108.876105 
L 554.644906 107.975916 
L 559.053305 106.856754 
L 564.93117 105.097692 
L 570.809035 103.106013 
L 576.686899 100.859868 
L 581.095298 98.941672 
L 585.503697 96.775032 
L 589.912095 94.367167 
L 606.076224 85.201592 
L 610.484622 83.065199 
L 616.362487 80.487158 
L 622.240352 78.18235 
L 626.64875 76.682018 
L 631.057149 75.451728 
L 635.465548 74.533596 
L 639.873946 73.913321 
L 644.282345 73.534682 
L 650.16021 73.305396 
L 654.568608 73.319893 
L 658.977007 73.532696 
L 663.385406 74.007914 
L 666.324338 74.499072 
L 670.732737 75.517499 
L 675.141135 76.85534 
L 679.549534 78.455421 
L 685.427399 80.869892 
L 692.77473 84.162877 
L 701.591527 88.376615 
L 714.816723 94.760619 
L 720.694588 97.302822 
L 725.102986 99.001977 
L 729.511385 100.505352 
L 733.919783 101.80268 
L 738.328182 102.880804 
L 742.736581 103.723025 
L 747.144979 104.313918 
L 751.553378 104.645956 
L 755.961776 104.718754 
L 760.370175 104.535591 
L 764.778574 104.098683 
L 769.186972 103.409229 
L 773.595371 102.474276 
L 778.00377 101.313058 
L 783.881634 99.476324 
L 791.228965 96.879797 
L 808.86256 90.464469 
L 814.740425 88.557509 
L 820.618289 86.879792 
L 822.087756 86.502762 
L 822.087756 86.502762 
" clip-path="url(#p35d6d4e53e)" style="fill: none; stroke-dasharray: 3.5,5.775; stroke-dashoffset: 0; stroke: #008000; stroke-opacity: 0.8; stroke-width: 3.5"/>
   </g>
   <g id="line2d_13">
    <path d="M 88.824119 49.114168 
L 94.701984 48.984059 
L 100.579849 49.093083 
L 106.457714 49.439512 
L 112.335579 50.028195 
L 118.213443 50.870377 
L 124.091308 51.9833 
L 128.499707 53.009185 
L 132.908105 54.211417 
L 137.316504 55.60257 
L 141.724903 57.195845 
L 146.133301 59.004454 
L 150.5417 61.040488 
L 154.950099 63.314023 
L 159.358497 65.83086 
L 163.766896 68.591192 
L 168.175294 71.587488 
L 174.053159 75.917242 
L 179.931024 80.56073 
L 188.747821 87.867512 
L 197.564618 95.152293 
L 203.442483 99.746541 
L 207.850882 102.961217 
L 212.259281 105.930394 
L 216.667679 108.624072 
L 221.076078 111.022023 
L 225.484476 113.113865 
L 229.892875 114.896059 
L 234.301274 116.370164 
L 238.709672 117.541105 
L 243.118071 118.415326 
L 247.526469 118.999732 
L 251.934868 119.300774 
L 256.343267 119.323967 
L 260.751665 119.073513 
L 265.160064 118.552496 
L 269.568463 117.762981 
L 273.976861 116.706608 
L 278.38526 115.385216 
L 282.793658 113.802028 
L 287.202057 111.962402 
L 291.610456 109.875692 
L 296.018854 107.556272 
L 300.427253 105.024617 
L 306.305118 101.368896 
L 313.652449 96.475834 
L 329.816577 85.50901 
L 335.694442 81.836659 
L 340.10284 79.299471 
L 344.511239 76.986436 
L 348.919638 74.922788 
L 353.328036 73.127035 
L 357.736435 71.610862 
L 362.144833 70.38091 
L 366.553232 69.439996 
L 370.961631 68.787944 
L 375.370029 68.422871 
L 379.778428 68.341579 
L 384.186827 68.540046 
L 388.595225 69.01356 
L 393.003624 69.756406 
L 397.412022 70.76171 
L 401.820421 72.02059 
L 406.22882 73.521517 
L 410.637218 75.249715 
L 415.045617 77.185723 
L 420.923482 80.04807 
L 426.801346 83.164748 
L 435.618144 88.121413 
L 447.373873 94.71919 
L 453.251738 97.782218 
L 459.129603 100.567944 
L 463.538002 102.43229 
L 467.9464 104.077929 
L 472.354799 105.487602 
L 476.763197 106.648832 
L 481.171596 107.553838 
L 485.579995 108.198113 
L 489.988393 108.580244 
L 494.396792 108.701204 
L 498.805191 108.563898 
L 503.213589 108.173322 
L 507.621988 107.536235 
L 512.030386 106.661658 
L 516.438785 105.561132 
L 520.847184 104.24891 
L 525.255582 102.742916 
L 531.133447 100.470961 
L 537.011312 97.95441 
L 545.828109 93.883667 
L 560.522771 87.018688 
L 566.400636 84.494993 
L 572.278501 82.212327 
L 576.686899 80.694935 
L 581.095298 79.367153 
L 585.503697 78.244643 
L 589.912095 77.33892 
L 594.320494 76.657987 
L 598.728893 76.206222 
L 603.137291 75.985293 
L 607.54569 75.994115 
L 611.954088 76.229104 
L 616.362487 76.684459 
L 620.770886 77.351706 
L 625.179284 78.220021 
L 629.587683 79.275753 
L 635.465548 80.945868 
L 641.343412 82.871888 
L 648.690743 85.551844 
L 660.446473 90.159403 
L 670.732737 94.115748 
L 678.080068 96.679074 
L 683.957932 98.481609 
L 689.835797 100.011733 
L 694.244196 100.958423 
L 698.652594 101.720122 
L 703.060993 102.288957 
L 707.469392 102.660204 
L 711.87779 102.831812 
L 716.286189 102.804664 
L 720.694588 102.58202 
L 725.102986 102.16969 
L 729.511385 101.576024 
L 735.38925 100.521235 
L 741.267114 99.19599 
L 747.144979 97.64079 
L 754.49231 95.447248 
L 764.778574 92.106724 
L 778.00377 87.828935 
L 785.351101 85.687968 
L 791.228965 84.183766 
L 797.10683 82.909626 
L 802.984695 81.897299 
L 808.86256 81.169405 
L 813.270958 80.818664 
L 817.679357 80.63833 
L 822.087756 80.628533 
L 822.087756 80.628533 
" clip-path="url(#p35d6d4e53e)" style="fill: none; stroke-dasharray: 12.95,5.6; stroke-dashoffset: 0; stroke: #ff0000; stroke-opacity: 0.8; stroke-width: 3.5"/>
   </g>
  </g>
  <g id="axes_2">
   <g id="patch_7">
    <path d="M 52.160938 248.24 
L 858.750937 248.24 
L 858.750937 151.09 
L 52.160938 151.09 
z
" style="fill: #ffffff"/>
   </g>
   <g id="line2d_14">
    <path d="M 88.824119 197.893123 
L 102.049315 202.088019 
L 113.805045 205.904565 
L 121.152376 208.514335 
L 127.030241 210.796852 
L 132.908105 213.29938 
L 138.78597 216.043792 
L 144.663835 219.028797 
L 150.5417 222.230392 
L 168.175294 232.134417 
L 172.583693 234.220381 
L 175.522625 235.424741 
L 178.461558 236.44668 
L 181.40049 237.257338 
L 184.339423 237.827644 
L 187.278355 238.128317 
L 190.217287 238.129864 
L 193.15622 237.803002 
L 196.095152 237.161534 
L 199.034085 236.238972 
L 201.973017 235.05639 
L 204.91195 233.638103 
L 207.850882 232.011667 
L 212.259281 229.249991 
L 216.667679 226.207657 
L 231.362341 215.535109 
L 240.179138 209.284076 
L 248.995936 203.316541 
L 259.282199 196.657107 
L 279.854726 183.719317 
L 287.202057 179.294867 
L 293.079922 176.004043 
L 297.48832 173.76186 
L 301.896719 171.797475 
L 304.835651 170.6919 
L 307.774584 169.778098 
L 310.713516 169.075678 
L 313.652449 168.599919 
L 316.591381 168.36177 
L 319.530314 168.36785 
L 322.469246 168.620446 
L 325.408178 169.117516 
L 328.347111 169.851875 
L 331.286043 170.804717 
L 334.224976 171.957896 
L 337.163908 173.293459 
L 341.572307 175.596639 
L 345.980705 178.197487 
L 351.85857 181.99733 
L 387.125759 205.631413 
L 395.942556 211.101587 
L 403.289887 215.38778 
L 407.698286 217.75441 
L 412.106684 219.907604 
L 416.515083 221.800175 
L 420.923482 223.386303 
L 423.862414 224.251468 
L 426.801346 224.947818 
L 429.740279 225.462789 
L 432.679211 225.784089 
L 435.618144 225.899695 
L 438.557076 225.803301 
L 441.496009 225.502434 
L 444.434941 225.001852 
L 447.373873 224.308693 
L 450.312806 223.432747 
L 453.251738 222.386453 
L 457.660137 220.53135 
L 462.068535 218.389655 
L 467.9464 215.22 
L 475.293731 210.936283 
L 487.049461 203.73058 
L 498.805191 196.589005 
L 506.152522 192.332077 
L 512.030386 189.128504 
L 517.908251 186.181564 
L 522.31665 184.186666 
L 526.725048 182.415634 
L 531.133447 180.906176 
L 535.541846 179.698144 
L 538.480778 179.079613 
L 541.419711 178.618975 
L 544.358643 178.324151 
L 547.297575 178.200604 
L 550.236508 178.250869 
L 553.17544 178.474551 
L 556.114373 178.868328 
L 559.053305 179.425946 
L 563.461704 180.548691 
L 567.870102 181.975963 
L 572.278501 183.666307 
L 576.686899 185.577367 
L 582.564764 188.393032 
L 589.912095 192.202668 
L 616.362487 206.22783 
L 622.240352 209.017386 
L 628.118217 211.547961 
L 632.526615 213.234598 
L 636.935014 214.710271 
L 641.343412 215.94133 
L 645.751811 216.893774 
L 650.16021 217.54292 
L 654.568608 217.873411 
L 658.977007 217.879211 
L 663.385406 217.563607 
L 667.793804 216.939164 
L 672.202203 216.02577 
L 676.610601 214.848646 
L 681.019 213.436913 
L 685.427399 211.823097 
L 691.305263 209.419582 
L 698.652594 206.145485 
L 725.102986 194.071951 
L 730.980851 191.714736 
L 736.858716 189.60702 
L 741.267114 188.227087 
L 745.675513 187.051127 
L 750.083912 186.102664 
L 754.49231 185.400145 
L 758.900709 184.956939 
L 763.309107 184.781341 
L 767.717506 184.87537 
L 772.125905 185.233725 
L 776.534303 185.847294 
L 780.942702 186.701225 
L 785.351101 187.774848 
L 789.759499 189.041672 
L 795.637364 190.974627 
L 802.984695 193.66282 
L 813.270958 197.716427 
L 822.087756 201.225393 
L 822.087756 201.225393 
" clip-path="url(#p20cf48df2f)" style="fill: none; stroke: #000000; stroke-opacity: 0.4; stroke-width: 6; stroke-linecap: square"/>
   </g>
   <g id="matplotlib.axis_3">
    <g id="xtick_7">
     <g id="line2d_15">
      <g>
       <use xlink:href="#m62dcd5590b" x="88.824119" y="248.24" style="stroke: #000000; stroke-width: 0.8"/>
      </g>
     </g>
     <g id="text_5">
      <!-- 0 -->
      <g transform="translate(85.642869 262.838437) scale(0.1 -0.1)">
       <use xlink:href="#DejaVuSans-30"/>
      </g>
     </g>
    </g>
    <g id="xtick_8">
     <g id="line2d_16">
      <g>
       <use xlink:href="#m62dcd5590b" x="235.476847" y="248.24" style="stroke: #000000; stroke-width: 0.8"/>
      </g>
     </g>
     <g id="text_6">
      <!-- 2 -->
      <g transform="translate(232.295597 262.838437) scale(0.1 -0.1)">
       <use xlink:href="#DejaVuSans-32"/>
      </g>
     </g>
    </g>
    <g id="xtick_9">
     <g id="line2d_17">
      <g>
       <use xlink:href="#m62dcd5590b" x="382.129574" y="248.24" style="stroke: #000000; stroke-width: 0.8"/>
      </g>
     </g>
     <g id="text_7">
      <!-- 4 -->
      <g transform="translate(378.948324 262.838437) scale(0.1 -0.1)">
       <defs>
        <path id="DejaVuSans-34" d="M 2419 4116 
L 825 1625 
L 2419 1625 
L 2419 4116 
z
M 2253 4666 
L 3047 4666 
L 3047 1625 
L 3713 1625 
L 3713 1100 
L 3047 1100 
L 3047 0 
L 2419 0 
L 2419 1100 
L 313 1100 
L 313 1709 
L 2253 4666 
z
" transform="scale(0.015625)"/>
       </defs>
       <use xlink:href="#DejaVuSans-34"/>
      </g>
     </g>
    </g>
    <g id="xtick_10">
     <g id="line2d_18">
      <g>
       <use xlink:href="#m62dcd5590b" x="528.782301" y="248.24" style="stroke: #000000; stroke-width: 0.8"/>
      </g>
     </g>
     <g id="text_8">
      <!-- 6 -->
      <g transform="translate(525.601051 262.838437) scale(0.1 -0.1)">
       <defs>
        <path id="DejaVuSans-36" d="M 2113 2584 
Q 1688 2584 1439 2293 
Q 1191 2003 1191 1497 
Q 1191 994 1439 701 
Q 1688 409 2113 409 
Q 2538 409 2786 701 
Q 3034 994 3034 1497 
Q 3034 2003 2786 2293 
Q 2538 2584 2113 2584 
z
M 3366 4563 
L 3366 3988 
Q 3128 4100 2886 4159 
Q 2644 4219 2406 4219 
Q 1781 4219 1451 3797 
Q 1122 3375 1075 2522 
Q 1259 2794 1537 2939 
Q 1816 3084 2150 3084 
Q 2853 3084 3261 2657 
Q 3669 2231 3669 1497 
Q 3669 778 3244 343 
Q 2819 -91 2113 -91 
Q 1303 -91 875 529 
Q 447 1150 447 2328 
Q 447 3434 972 4092 
Q 1497 4750 2381 4750 
Q 2619 4750 2861 4703 
Q 3103 4656 3366 4563 
z
" transform="scale(0.015625)"/>
       </defs>
       <use xlink:href="#DejaVuSans-36"/>
      </g>
     </g>
    </g>
    <g id="xtick_11">
     <g id="line2d_19">
      <g>
       <use xlink:href="#m62dcd5590b" x="675.435028" y="248.24" style="stroke: #000000; stroke-width: 0.8"/>
      </g>
     </g>
     <g id="text_9">
      <!-- 8 -->
      <g transform="translate(672.253778 262.838437) scale(0.1 -0.1)">
       <defs>
        <path id="DejaVuSans-38" d="M 2034 2216 
Q 1584 2216 1326 1975 
Q 1069 1734 1069 1313 
Q 1069 891 1326 650 
Q 1584 409 2034 409 
Q 2484 409 2743 651 
Q 3003 894 3003 1313 
Q 3003 1734 2745 1975 
Q 2488 2216 2034 2216 
z
M 1403 2484 
Q 997 2584 770 2862 
Q 544 3141 544 3541 
Q 544 4100 942 4425 
Q 1341 4750 2034 4750 
Q 2731 4750 3128 4425 
Q 3525 4100 3525 3541 
Q 3525 3141 3298 2862 
Q 3072 2584 2669 2484 
Q 3125 2378 3379 2068 
Q 3634 1759 3634 1313 
Q 3634 634 3220 271 
Q 2806 -91 2034 -91 
Q 1263 -91 848 271 
Q 434 634 434 1313 
Q 434 1759 690 2068 
Q 947 2378 1403 2484 
z
M 1172 3481 
Q 1172 3119 1398 2916 
Q 1625 2713 2034 2713 
Q 2441 2713 2670 2916 
Q 2900 3119 2900 3481 
Q 2900 3844 2670 4047 
Q 2441 4250 2034 4250 
Q 1625 4250 1398 4047 
Q 1172 3844 1172 3481 
z
" transform="scale(0.015625)"/>
       </defs>
       <use xlink:href="#DejaVuSans-38"/>
      </g>
     </g>
    </g>
    <g id="xtick_12">
     <g id="line2d_20">
      <g>
       <use xlink:href="#m62dcd5590b" x="822.087756" y="248.24" style="stroke: #000000; stroke-width: 0.8"/>
      </g>
     </g>
     <g id="text_10">
      <!-- 10 -->
      <g transform="translate(815.725256 262.838437) scale(0.1 -0.1)">
       <defs>
        <path id="DejaVuSans-31" d="M 794 531 
L 1825 531 
L 1825 4091 
L 703 3866 
L 703 4441 
L 1819 4666 
L 2450 4666 
L 2450 531 
L 3481 531 
L 3481 0 
L 794 0 
L 794 531 
z
" transform="scale(0.015625)"/>
       </defs>
       <use xlink:href="#DejaVuSans-31"/>
       <use xlink:href="#DejaVuSans-30" transform="translate(63.623047 0)"/>
      </g>
     </g>
    </g>
    <g id="text_11">
     <!-- Time -->
     <g transform="translate(443.222344 276.516562) scale(0.1 -0.1)">
      <defs>
       <path id="DejaVuSans-54" d="M -19 4666 
L 3928 4666 
L 3928 4134 
L 2272 4134 
L 2272 0 
L 1638 0 
L 1638 4134 
L -19 4134 
L -19 4666 
z
" transform="scale(0.015625)"/>
       <path id="DejaVuSans-69" d="M 603 3500 
L 1178 3500 
L 1178 0 
L 603 0 
L 603 3500 
z
M 603 4863 
L 1178 4863 
L 1178 4134 
L 603 4134 
L 603 4863 
z
" transform="scale(0.015625)"/>
       <path id="DejaVuSans-6d" d="M 3328 2828 
Q 3544 3216 3844 3400 
Q 4144 3584 4550 3584 
Q 5097 3584 5394 3201 
Q 5691 2819 5691 2113 
L 5691 0 
L 5113 0 
L 5113 2094 
Q 5113 2597 4934 2840 
Q 4756 3084 4391 3084 
Q 3944 3084 3684 2787 
Q 3425 2491 3425 1978 
L 3425 0 
L 2847 0 
L 2847 2094 
Q 2847 2600 2669 2842 
Q 2491 3084 2119 3084 
Q 1678 3084 1418 2786 
Q 1159 2488 1159 1978 
L 1159 0 
L 581 0 
L 581 3500 
L 1159 3500 
L 1159 2956 
Q 1356 3278 1631 3431 
Q 1906 3584 2284 3584 
Q 2666 3584 2933 3390 
Q 3200 3197 3328 2828 
z
" transform="scale(0.015625)"/>
       <path id="DejaVuSans-65" d="M 3597 1894 
L 3597 1613 
L 953 1613 
Q 991 1019 1311 708 
Q 1631 397 2203 397 
Q 2534 397 2845 478 
Q 3156 559 3463 722 
L 3463 178 
Q 3153 47 2828 -22 
Q 2503 -91 2169 -91 
Q 1331 -91 842 396 
Q 353 884 353 1716 
Q 353 2575 817 3079 
Q 1281 3584 2069 3584 
Q 2775 3584 3186 3129 
Q 3597 2675 3597 1894 
z
M 3022 2063 
Q 3016 2534 2758 2815 
Q 2500 3097 2075 3097 
Q 1594 3097 1305 2825 
Q 1016 2553 972 2059 
L 3022 2063 
z
" transform="scale(0.015625)"/>
      </defs>
      <use xlink:href="#DejaVuSans-54"/>
      <use xlink:href="#DejaVuSans-69" transform="translate(57.958984 0)"/>
      <use xlink:href="#DejaVuSans-6d" transform="translate(85.742188 0)"/>
      <use xlink:href="#DejaVuSans-65" transform="translate(183.154297 0)"/>
     </g>
    </g>
   </g>
   <g id="matplotlib.axis_4">
    <g id="ytick_4">
     <g id="line2d_21">
      <g>
       <use xlink:href="#m8dcaf6e0ad" x="52.160938" y="224.373986" style="stroke: #000000; stroke-width: 0.8"/>
      </g>
     </g>
     <g id="text_12">
      <!-- −2.5 -->
      <g transform="translate(20.878125 228.173204) scale(0.1 -0.1)">
       <defs>
        <path id="DejaVuSans-2e" d="M 684 794 
L 1344 794 
L 1344 0 
L 684 0 
L 684 794 
z
" transform="scale(0.015625)"/>
        <path id="DejaVuSans-35" d="M 691 4666 
L 3169 4666 
L 3169 4134 
L 1269 4134 
L 1269 2991 
Q 1406 3038 1543 3061 
Q 1681 3084 1819 3084 
Q 2600 3084 3056 2656 
Q 3513 2228 3513 1497 
Q 3513 744 3044 326 
Q 2575 -91 1722 -91 
Q 1428 -91 1123 -41 
Q 819 9 494 109 
L 494 744 
Q 775 591 1075 516 
Q 1375 441 1709 441 
Q 2250 441 2565 725 
Q 2881 1009 2881 1497 
Q 2881 1984 2565 2268 
Q 2250 2553 1709 2553 
Q 1456 2553 1204 2497 
Q 953 2441 691 2322 
L 691 4666 
z
" transform="scale(0.015625)"/>
       </defs>
       <use xlink:href="#DejaVuSans-2212"/>
       <use xlink:href="#DejaVuSans-32" transform="translate(83.789062 0)"/>
       <use xlink:href="#DejaVuSans-2e" transform="translate(147.412109 0)"/>
       <use xlink:href="#DejaVuSans-35" transform="translate(179.199219 0)"/>
      </g>
     </g>
    </g>
    <g id="ytick_5">
     <g id="line2d_22">
      <g>
       <use xlink:href="#m8dcaf6e0ad" x="52.160938" y="199.854669" style="stroke: #000000; stroke-width: 0.8"/>
      </g>
     </g>
     <g id="text_13">
      <!-- 0.0 -->
      <g transform="translate(29.257812 203.653888) scale(0.1 -0.1)">
       <use xlink:href="#DejaVuSans-30"/>
       <use xlink:href="#DejaVuSans-2e" transform="translate(63.623047 0)"/>
       <use xlink:href="#DejaVuSans-30" transform="translate(95.410156 0)"/>
      </g>
     </g>
    </g>
    <g id="ytick_6">
     <g id="line2d_23">
      <g>
       <use xlink:href="#m8dcaf6e0ad" x="52.160938" y="175.335352" style="stroke: #000000; stroke-width: 0.8"/>
      </g>
     </g>
     <g id="text_14">
      <!-- 2.5 -->
      <g transform="translate(29.257812 179.134571) scale(0.1 -0.1)">
       <use xlink:href="#DejaVuSans-32"/>
       <use xlink:href="#DejaVuSans-2e" transform="translate(63.623047 0)"/>
       <use xlink:href="#DejaVuSans-35" transform="translate(95.410156 0)"/>
      </g>
     </g>
    </g>
    <g id="text_15">
     <!-- $x1$ -->
     <g transform="translate(14.798438 205.815) rotate(-90) scale(0.1 -0.1)">
      <use xlink:href="#DejaVuSans-Oblique-78" transform="translate(0 0.09375)"/>
      <use xlink:href="#DejaVuSans-31" transform="translate(59.179688 0.09375)"/>
     </g>
    </g>
   </g>
   <g id="line2d_24">
    <path d="M 88.824119 197.893123 
L 100.579849 209.786329 
L 107.92718 216.885 
L 113.805045 222.218718 
L 118.213443 225.952552 
L 122.621842 229.415566 
L 127.030241 232.571744 
L 131.438639 235.385415 
L 135.847038 237.829365 
L 138.78597 239.239961 
L 141.724903 240.467671 
L 144.663835 241.508756 
L 147.602768 242.356455 
L 150.5417 243.007014 
L 153.480632 243.457359 
L 156.419565 243.705484 
L 159.358497 243.750328 
L 162.29743 243.591987 
L 165.236362 243.230723 
L 168.175294 242.66789 
L 171.114227 241.905758 
L 174.053159 240.948791 
L 176.992092 239.801322 
L 179.931024 238.467917 
L 182.869956 236.955236 
L 187.278355 234.365249 
L 191.686754 231.413798 
L 196.095152 228.131773 
L 200.503551 224.554245 
L 204.91195 220.719103 
L 210.789814 215.272477 
L 218.137145 208.075413 
L 229.892875 196.119175 
L 238.709672 187.245966 
L 244.587537 181.596745 
L 250.465402 176.285207 
L 254.8738 172.58287 
L 259.282199 169.164433 
L 263.690598 166.065611 
L 268.098996 163.32025 
L 271.037929 161.700192 
L 273.976861 160.256852 
L 276.915794 158.997738 
L 279.854726 157.928173 
L 282.793658 157.053048 
L 285.732591 156.376785 
L 288.671523 155.902505 
L 291.610456 155.632442 
L 294.549388 155.567597 
L 297.48832 155.708369 
L 300.427253 156.054046 
L 303.366185 156.603524 
L 306.305118 157.3538 
L 309.24405 158.300523 
L 312.182982 159.438874 
L 315.121915 160.764637 
L 318.060847 162.271563 
L 320.99978 163.952691 
L 325.408178 166.784024 
L 329.816577 169.96011 
L 334.224976 173.447981 
L 338.633374 177.211319 
L 344.511239 182.591405 
L 350.389104 188.291619 
L 359.205901 197.202246 
L 372.431097 210.593362 
L 379.778428 217.661043 
L 385.656293 222.95518 
L 390.064691 226.650125 
L 394.47309 230.063769 
L 398.881489 233.161688 
L 403.289887 235.911947 
L 406.22882 237.539035 
L 409.167752 238.992691 
L 412.106684 240.264384 
L 415.045617 241.34888 
L 417.984549 242.240862 
L 420.923482 242.936438 
L 423.862414 243.432041 
L 426.801346 243.725307 
L 429.740279 243.814999 
L 432.679211 243.701375 
L 435.618144 243.38444 
L 438.557076 242.866079 
L 441.496009 242.148072 
L 444.434941 241.233517 
L 447.373873 240.127208 
L 450.312806 238.833909 
L 453.251738 237.359657 
L 456.190671 235.710567 
L 460.599069 232.926258 
L 465.007468 229.79609 
L 469.415866 226.354278 
L 473.824265 222.636749 
L 479.70213 217.317654 
L 485.579995 211.673746 
L 494.396792 202.824408 
L 510.56092 186.464735 
L 516.438785 180.850204 
L 522.31665 175.587089 
L 526.725048 171.927384 
L 531.133447 168.557729 
L 535.541846 165.515641 
L 539.950244 162.832617 
L 542.889177 161.256824 
L 545.828109 159.860096 
L 548.767042 158.648726 
L 551.705974 157.628484 
L 554.644906 156.803817 
L 557.583839 156.178632 
L 560.522771 155.755875 
L 563.461704 155.537843 
L 566.400636 155.525699 
L 569.339568 155.719552 
L 572.278501 156.117797 
L 575.217433 156.718617 
L 578.156366 157.519423 
L 581.095298 158.516381 
L 584.03423 159.705377 
L 586.973163 161.080877 
L 589.912095 162.636605 
L 594.320494 165.290768 
L 598.728893 168.304823 
L 603.137291 171.647913 
L 607.54569 175.284523 
L 611.954088 179.178047 
L 617.831953 184.697842 
L 625.179284 191.980564 
L 647.221277 214.213794 
L 653.099142 219.73013 
L 657.507541 223.630321 
L 661.915939 227.281689 
L 666.324338 230.647201 
L 670.732737 233.691101 
L 675.141135 236.382427 
L 678.080068 237.965819 
L 681.019 239.37063 
L 683.957932 240.592153 
L 686.896865 241.624698 
L 689.835797 242.463541 
L 692.77473 243.104539 
L 695.713662 243.544688 
L 698.652594 243.781905 
L 701.591527 243.815486 
L 704.530459 243.645564 
L 707.469392 243.272579 
L 710.408324 242.698109 
L 713.347257 241.924635 
L 716.286189 240.955977 
L 719.225121 239.796649 
L 722.164054 238.451919 
L 725.102986 236.928387 
L 729.511385 234.323302 
L 733.919783 231.359127 
L 738.328182 228.066998 
L 742.736581 224.481493 
L 747.144979 220.638104 
L 753.022844 215.18365 
L 760.370175 207.978949 
L 772.125905 196.015969 
L 780.942702 187.142879 
L 786.820567 181.496348 
L 792.698432 176.190306 
L 797.10683 172.494928 
L 801.515229 169.084754 
L 805.923627 165.994473 
L 810.332026 163.258366 
L 813.270958 161.644594 
L 816.209891 160.207956 
L 819.148823 158.955267 
L 822.087756 157.892133 
L 822.087756 157.892133 
" clip-path="url(#p20cf48df2f)" style="fill: none; stroke-dasharray: 22.4,5.6,3.5,5.6; stroke-dashoffset: 0; stroke: #0000ff; stroke-opacity: 0.8; stroke-width: 3.5"/>
   </g>
   <g id="patch_8">
    <path d="M 52.160938 248.24 
L 52.160938 151.09 
" style="fill: none; stroke: #000000; stroke-width: 0.8; stroke-linejoin: miter; stroke-linecap: square"/>
   </g>
   <g id="patch_9">
    <path d="M 858.750937 248.24 
L 858.750937 151.09 
" style="fill: none; stroke: #000000; stroke-width: 0.8; stroke-linejoin: miter; stroke-linecap: square"/>
   </g>
   <g id="patch_10">
    <path d="M 52.160938 248.24 
L 858.750938 248.24 
" style="fill: none; stroke: #000000; stroke-width: 0.8; stroke-linejoin: miter; stroke-linecap: square"/>
   </g>
   <g id="patch_11">
    <path d="M 52.160938 151.09 
L 858.750938 151.09 
" style="fill: none; stroke: #000000; stroke-width: 0.8; stroke-linejoin: miter; stroke-linecap: square"/>
   </g>
   <g id="line2d_25">
    <path d="M 88.824119 197.893123 
L 91.763052 198.735425 
L 94.701984 199.267742 
L 121.152376 202.32942 
L 129.969173 203.681139 
L 138.78597 205.264513 
L 146.133301 206.796933 
L 153.480632 208.562729 
L 159.358497 210.175756 
L 165.236362 212.001052 
L 171.114227 214.077048 
L 176.992092 216.443855 
L 182.869956 219.125518 
L 188.747821 222.107061 
L 196.095152 226.158898 
L 209.320348 233.583103 
L 213.728747 235.722194 
L 216.667679 236.943116 
L 219.606612 237.955639 
L 222.545544 238.723943 
L 225.484476 239.215654 
L 228.423409 239.403584 
L 231.362341 239.271848 
L 234.301274 238.819852 
L 237.240206 238.062641 
L 240.179138 237.026145 
L 243.118071 235.740931 
L 246.057003 234.238228 
L 250.465402 231.644874 
L 254.8738 228.739401 
L 260.751665 224.559696 
L 279.854726 210.656849 
L 288.671523 204.640228 
L 300.427253 196.938481 
L 315.121915 187.59777 
L 326.877645 180.337137 
L 332.755509 176.914189 
L 337.163908 174.533104 
L 341.572307 172.391503 
L 344.511239 171.141572 
L 347.450171 170.067937 
L 350.389104 169.197925 
L 353.328036 168.553431 
L 356.266969 168.149998 
L 359.205901 167.998592 
L 362.144833 168.108349 
L 365.083766 168.486604 
L 368.022698 169.134433 
L 370.961631 170.040624 
L 373.900563 171.179772 
L 376.839496 172.517118 
L 381.247894 174.817029 
L 385.656293 177.384292 
L 391.534158 181.11135 
L 398.881489 186.084663 
L 419.454015 200.176597 
L 429.740279 206.901248 
L 438.557076 212.404953 
L 444.434941 215.857026 
L 450.312806 219.025963 
L 454.721204 221.145845 
L 459.129603 222.993266 
L 463.538002 224.528617 
L 466.476934 225.361055 
L 469.415866 226.028053 
L 472.354799 226.518272 
L 475.293731 226.819773 
L 478.232664 226.920876 
L 481.171596 226.811536 
L 484.110529 226.485726 
L 487.049461 225.943281 
L 489.988393 225.191007 
L 492.927326 224.242796 
L 495.866258 223.117532 
L 500.274657 221.144623 
L 504.683055 218.893499 
L 510.56092 215.569177 
L 517.908251 211.07269 
L 548.767042 191.717913 
L 556.114373 187.548431 
L 561.992237 184.480422 
L 566.400636 182.380898 
L 570.809035 180.486928 
L 575.217433 178.830925 
L 579.625832 177.45225 
L 582.564764 176.711481 
L 585.503697 176.133103 
L 588.442629 175.734667 
L 591.381561 175.531662 
L 594.320494 175.535343 
L 597.259426 175.750077 
L 600.198359 176.172442 
L 603.137291 176.79191 
L 606.076224 177.593069 
L 610.484622 179.096978 
L 614.893021 180.912251 
L 619.301419 182.986982 
L 625.179284 186.073123 
L 632.526615 190.278598 
L 663.385406 208.439446 
L 669.26327 211.584587 
L 675.141135 214.464712 
L 679.549534 216.385502 
L 683.957932 218.049699 
L 688.366331 219.416835 
L 691.305263 220.145934 
L 694.244196 220.719187 
L 697.183128 221.12877 
L 700.122061 221.368889 
L 703.060993 221.434957 
L 705.999925 221.324933 
L 708.938858 221.039728 
L 711.87779 220.583644 
L 714.816723 219.964468 
L 719.225121 218.754046 
L 723.63352 217.245946 
L 728.041919 215.489215 
L 733.919783 212.844109 
L 741.267114 209.201421 
L 754.49231 202.259621 
L 763.309107 197.733558 
L 769.186972 194.906871 
L 775.064837 192.324956 
L 779.473236 190.600945 
L 783.881634 189.099255 
L 788.290033 187.851412 
L 792.698432 186.882083 
L 797.10683 186.206955 
L 801.515229 185.831883 
L 805.923627 185.753994 
L 810.332026 185.96072 
L 814.740425 186.431982 
L 819.148823 187.140846 
L 822.087756 187.729714 
L 822.087756 187.729714 
" clip-path="url(#p20cf48df2f)" style="fill: none; stroke-dasharray: 3.5,5.775; stroke-dashoffset: 0; stroke: #008000; stroke-opacity: 0.8; stroke-width: 3.5"/>
   </g>
   <g id="line2d_26">
    <path d="M 88.824119 197.893123 
L 102.049315 202.087219 
L 113.805045 205.902992 
L 121.152376 208.513041 
L 127.030241 210.796791 
L 132.908105 213.294508 
L 138.78597 216.031005 
L 144.663835 219.011577 
L 152.011166 223.038511 
L 168.175294 232.133887 
L 172.583693 234.270711 
L 175.522625 235.502657 
L 178.461558 236.538626 
L 181.40049 237.343919 
L 184.339423 237.889636 
L 187.278355 238.153197 
L 190.217287 238.118312 
L 193.15622 237.782056 
L 196.095152 237.147083 
L 199.034085 236.228255 
L 201.973017 235.047651 
L 204.91195 233.633044 
L 207.850882 232.017639 
L 212.259281 229.293689 
L 218.137145 225.277474 
L 228.423409 217.820795 
L 238.709672 210.459035 
L 247.526469 204.440614 
L 257.812733 197.724125 
L 272.507395 188.426357 
L 284.263125 181.190585 
L 290.140989 177.769258 
L 294.549388 175.380486 
L 298.957787 173.218577 
L 303.366185 171.360657 
L 306.305118 170.330823 
L 309.24405 169.494365 
L 312.182982 168.871531 
L 315.121915 168.47964 
L 318.060847 168.329361 
L 320.99978 168.428419 
L 323.938712 168.776076 
L 326.877645 169.366756 
L 329.816577 170.189594 
L 332.755509 171.227389 
L 335.694442 172.460618 
L 340.10284 174.626092 
L 344.511239 177.0975 
L 350.389104 180.731725 
L 357.736435 185.591931 
L 384.186827 203.351773 
L 393.003624 208.942707 
L 400.350955 213.357447 
L 406.22882 216.646223 
L 410.637218 218.912868 
L 415.045617 220.955137 
L 419.454015 222.719581 
L 422.392948 223.714189 
L 425.33188 224.544783 
L 428.270813 225.197485 
L 431.209745 225.659432 
L 434.148678 225.922049 
L 437.08761 225.979304 
L 440.026542 225.82885 
L 442.965475 225.473464 
L 445.904407 224.918178 
L 448.84334 224.173192 
L 451.782272 223.250868 
L 456.190671 221.568165 
L 460.599069 219.577889 
L 465.007468 217.34012 
L 470.885333 214.072138 
L 478.232664 209.699802 
L 504.683055 193.657474 
L 512.030386 189.579474 
L 517.908251 186.57865 
L 522.31665 184.531161 
L 526.725048 182.69961 
L 531.133447 181.124111 
L 535.541846 179.844813 
L 538.480778 179.17454 
L 541.419711 178.661778 
L 544.358643 178.31349 
L 547.297575 178.135128 
L 550.236508 178.129589 
L 553.17544 178.296478 
L 556.114373 178.633779 
L 559.053305 179.135628 
L 563.461704 180.180044 
L 567.870102 181.542994 
L 572.278501 183.183033 
L 576.686899 185.054604 
L 582.564764 187.830699 
L 589.912095 191.607829 
L 604.606757 199.551823 
L 613.423555 204.209367 
L 620.770886 207.846994 
L 626.64875 210.508843 
L 631.057149 212.314944 
L 635.465548 213.923357 
L 639.873946 215.302615 
L 644.282345 216.422608 
L 648.690743 217.256827 
L 653.099142 217.783815 
L 657.507541 217.990414 
L 661.915939 217.871818 
L 666.324338 217.433174 
L 670.732737 216.689197 
L 675.141135 215.662468 
L 679.549534 214.382739 
L 683.957932 212.883874 
L 689.835797 210.607467 
L 695.713662 208.092934 
L 704.530459 204.053741 
L 722.164054 195.893536 
L 729.511385 192.784392 
L 735.38925 190.541285 
L 741.267114 188.582804 
L 745.675513 187.337573 
L 750.083912 186.310863 
L 754.49231 185.523748 
L 758.900709 184.992827 
L 763.309107 184.729605 
L 767.717506 184.738466 
L 772.125905 185.017175 
L 776.534303 185.556312 
L 780.942702 186.339819 
L 785.351101 187.346464 
L 789.759499 188.550454 
L 795.637364 190.413454 
L 801.515229 192.505674 
L 810.332026 195.918745 
L 822.087756 200.631739 
L 822.087756 200.631739 
" clip-path="url(#p20cf48df2f)" style="fill: none; stroke-dasharray: 12.95,5.6; stroke-dashoffset: 0; stroke: #ff0000; stroke-opacity: 0.8; stroke-width: 3.5"/>
   </g>
  </g>
  <g id="text_16">
   <!-- State Variable Simulation Comparison -->
   <g transform="translate(285.843437 20.1175) scale(0.16 -0.16)">
    <defs>
     <path id="DejaVuSans-53" d="M 3425 4513 
L 3425 3897 
Q 3066 4069 2747 4153 
Q 2428 4238 2131 4238 
Q 1616 4238 1336 4038 
Q 1056 3838 1056 3469 
Q 1056 3159 1242 3001 
Q 1428 2844 1947 2747 
L 2328 2669 
Q 3034 2534 3370 2195 
Q 3706 1856 3706 1288 
Q 3706 609 3251 259 
Q 2797 -91 1919 -91 
Q 1588 -91 1214 -16 
Q 841 59 441 206 
L 441 856 
Q 825 641 1194 531 
Q 1563 422 1919 422 
Q 2459 422 2753 634 
Q 3047 847 3047 1241 
Q 3047 1584 2836 1778 
Q 2625 1972 2144 2069 
L 1759 2144 
Q 1053 2284 737 2584 
Q 422 2884 422 3419 
Q 422 4038 858 4394 
Q 1294 4750 2059 4750 
Q 2388 4750 2728 4690 
Q 3069 4631 3425 4513 
z
" transform="scale(0.015625)"/>
     <path id="DejaVuSans-74" d="M 1172 4494 
L 1172 3500 
L 2356 3500 
L 2356 3053 
L 1172 3053 
L 1172 1153 
Q 1172 725 1289 603 
Q 1406 481 1766 481 
L 2356 481 
L 2356 0 
L 1766 0 
Q 1100 0 847 248 
Q 594 497 594 1153 
L 594 3053 
L 172 3053 
L 172 3500 
L 594 3500 
L 594 4494 
L 1172 4494 
z
" transform="scale(0.015625)"/>
     <path id="DejaVuSans-61" d="M 2194 1759 
Q 1497 1759 1228 1600 
Q 959 1441 959 1056 
Q 959 750 1161 570 
Q 1363 391 1709 391 
Q 2188 391 2477 730 
Q 2766 1069 2766 1631 
L 2766 1759 
L 2194 1759 
z
M 3341 1997 
L 3341 0 
L 2766 0 
L 2766 531 
Q 2569 213 2275 61 
Q 1981 -91 1556 -91 
Q 1019 -91 701 211 
Q 384 513 384 1019 
Q 384 1609 779 1909 
Q 1175 2209 1959 2209 
L 2766 2209 
L 2766 2266 
Q 2766 2663 2505 2880 
Q 2244 3097 1772 3097 
Q 1472 3097 1187 3025 
Q 903 2953 641 2809 
L 641 3341 
Q 956 3463 1253 3523 
Q 1550 3584 1831 3584 
Q 2591 3584 2966 3190 
Q 3341 2797 3341 1997 
z
" transform="scale(0.015625)"/>
     <path id="DejaVuSans-20" transform="scale(0.015625)"/>
     <path id="DejaVuSans-56" d="M 1831 0 
L 50 4666 
L 709 4666 
L 2188 738 
L 3669 4666 
L 4325 4666 
L 2547 0 
L 1831 0 
z
" transform="scale(0.015625)"/>
     <path id="DejaVuSans-72" d="M 2631 2963 
Q 2534 3019 2420 3045 
Q 2306 3072 2169 3072 
Q 1681 3072 1420 2755 
Q 1159 2438 1159 1844 
L 1159 0 
L 581 0 
L 581 3500 
L 1159 3500 
L 1159 2956 
Q 1341 3275 1631 3429 
Q 1922 3584 2338 3584 
Q 2397 3584 2469 3576 
Q 2541 3569 2628 3553 
L 2631 2963 
z
" transform="scale(0.015625)"/>
     <path id="DejaVuSans-62" d="M 3116 1747 
Q 3116 2381 2855 2742 
Q 2594 3103 2138 3103 
Q 1681 3103 1420 2742 
Q 1159 2381 1159 1747 
Q 1159 1113 1420 752 
Q 1681 391 2138 391 
Q 2594 391 2855 752 
Q 3116 1113 3116 1747 
z
M 1159 2969 
Q 1341 3281 1617 3432 
Q 1894 3584 2278 3584 
Q 2916 3584 3314 3078 
Q 3713 2572 3713 1747 
Q 3713 922 3314 415 
Q 2916 -91 2278 -91 
Q 1894 -91 1617 61 
Q 1341 213 1159 525 
L 1159 0 
L 581 0 
L 581 4863 
L 1159 4863 
L 1159 2969 
z
" transform="scale(0.015625)"/>
     <path id="DejaVuSans-6c" d="M 603 4863 
L 1178 4863 
L 1178 0 
L 603 0 
L 603 4863 
z
" transform="scale(0.015625)"/>
     <path id="DejaVuSans-75" d="M 544 1381 
L 544 3500 
L 1119 3500 
L 1119 1403 
Q 1119 906 1312 657 
Q 1506 409 1894 409 
Q 2359 409 2629 706 
Q 2900 1003 2900 1516 
L 2900 3500 
L 3475 3500 
L 3475 0 
L 2900 0 
L 2900 538 
Q 2691 219 2414 64 
Q 2138 -91 1772 -91 
Q 1169 -91 856 284 
Q 544 659 544 1381 
z
M 1991 3584 
L 1991 3584 
z
" transform="scale(0.015625)"/>
     <path id="DejaVuSans-6f" d="M 1959 3097 
Q 1497 3097 1228 2736 
Q 959 2375 959 1747 
Q 959 1119 1226 758 
Q 1494 397 1959 397 
Q 2419 397 2687 759 
Q 2956 1122 2956 1747 
Q 2956 2369 2687 2733 
Q 2419 3097 1959 3097 
z
M 1959 3584 
Q 2709 3584 3137 3096 
Q 3566 2609 3566 1747 
Q 3566 888 3137 398 
Q 2709 -91 1959 -91 
Q 1206 -91 779 398 
Q 353 888 353 1747 
Q 353 2609 779 3096 
Q 1206 3584 1959 3584 
z
" transform="scale(0.015625)"/>
     <path id="DejaVuSans-6e" d="M 3513 2113 
L 3513 0 
L 2938 0 
L 2938 2094 
Q 2938 2591 2744 2837 
Q 2550 3084 2163 3084 
Q 1697 3084 1428 2787 
Q 1159 2491 1159 1978 
L 1159 0 
L 581 0 
L 581 3500 
L 1159 3500 
L 1159 2956 
Q 1366 3272 1645 3428 
Q 1925 3584 2291 3584 
Q 2894 3584 3203 3211 
Q 3513 2838 3513 2113 
z
" transform="scale(0.015625)"/>
     <path id="DejaVuSans-43" d="M 4122 4306 
L 4122 3641 
Q 3803 3938 3442 4084 
Q 3081 4231 2675 4231 
Q 1875 4231 1450 3742 
Q 1025 3253 1025 2328 
Q 1025 1406 1450 917 
Q 1875 428 2675 428 
Q 3081 428 3442 575 
Q 3803 722 4122 1019 
L 4122 359 
Q 3791 134 3420 21 
Q 3050 -91 2638 -91 
Q 1578 -91 968 557 
Q 359 1206 359 2328 
Q 359 3453 968 4101 
Q 1578 4750 2638 4750 
Q 3056 4750 3426 4639 
Q 3797 4528 4122 4306 
z
" transform="scale(0.015625)"/>
     <path id="DejaVuSans-70" d="M 1159 525 
L 1159 -1331 
L 581 -1331 
L 581 3500 
L 1159 3500 
L 1159 2969 
Q 1341 3281 1617 3432 
Q 1894 3584 2278 3584 
Q 2916 3584 3314 3078 
Q 3713 2572 3713 1747 
Q 3713 922 3314 415 
Q 2916 -91 2278 -91 
Q 1894 -91 1617 61 
Q 1341 213 1159 525 
z
M 3116 1747 
Q 3116 2381 2855 2742 
Q 2594 3103 2138 3103 
Q 1681 3103 1420 2742 
Q 1159 2381 1159 1747 
Q 1159 1113 1420 752 
Q 1681 391 2138 391 
Q 2594 391 2855 752 
Q 3116 1113 3116 1747 
z
" transform="scale(0.015625)"/>
     <path id="DejaVuSans-73" d="M 2834 3397 
L 2834 2853 
Q 2591 2978 2328 3040 
Q 2066 3103 1784 3103 
Q 1356 3103 1142 2972 
Q 928 2841 928 2578 
Q 928 2378 1081 2264 
Q 1234 2150 1697 2047 
L 1894 2003 
Q 2506 1872 2764 1633 
Q 3022 1394 3022 966 
Q 3022 478 2636 193 
Q 2250 -91 1575 -91 
Q 1294 -91 989 -36 
Q 684 19 347 128 
L 347 722 
Q 666 556 975 473 
Q 1284 391 1588 391 
Q 1994 391 2212 530 
Q 2431 669 2431 922 
Q 2431 1156 2273 1281 
Q 2116 1406 1581 1522 
L 1381 1569 
Q 847 1681 609 1914 
Q 372 2147 372 2553 
Q 372 3047 722 3315 
Q 1072 3584 1716 3584 
Q 2034 3584 2315 3537 
Q 2597 3491 2834 3397 
z
" transform="scale(0.015625)"/>
    </defs>
    <use xlink:href="#DejaVuSans-53"/>
    <use xlink:href="#DejaVuSans-74" transform="translate(63.476562 0)"/>
    <use xlink:href="#DejaVuSans-61" transform="translate(102.685547 0)"/>
    <use xlink:href="#DejaVuSans-74" transform="translate(163.964844 0)"/>
    <use xlink:href="#DejaVuSans-65" transform="translate(203.173828 0)"/>
    <use xlink:href="#DejaVuSans-20" transform="translate(264.697266 0)"/>
    <use xlink:href="#DejaVuSans-56" transform="translate(296.484375 0)"/>
    <use xlink:href="#DejaVuSans-61" transform="translate(357.142578 0)"/>
    <use xlink:href="#DejaVuSans-72" transform="translate(418.421875 0)"/>
    <use xlink:href="#DejaVuSans-69" transform="translate(459.535156 0)"/>
    <use xlink:href="#DejaVuSans-61" transform="translate(487.318359 0)"/>
    <use xlink:href="#DejaVuSans-62" transform="translate(548.597656 0)"/>
    <use xlink:href="#DejaVuSans-6c" transform="translate(612.074219 0)"/>
    <use xlink:href="#DejaVuSans-65" transform="translate(639.857422 0)"/>
    <use xlink:href="#DejaVuSans-20" transform="translate(701.380859 0)"/>
    <use xlink:href="#DejaVuSans-53" transform="translate(733.167969 0)"/>
    <use xlink:href="#DejaVuSans-69" transform="translate(796.644531 0)"/>
    <use xlink:href="#DejaVuSans-6d" transform="translate(824.427734 0)"/>
    <use xlink:href="#DejaVuSans-75" transform="translate(921.839844 0)"/>
    <use xlink:href="#DejaVuSans-6c" transform="translate(985.21875 0)"/>
    <use xlink:href="#DejaVuSans-61" transform="translate(1013.001953 0)"/>
    <use xlink:href="#DejaVuSans-74" transform="translate(1074.28125 0)"/>
    <use xlink:href="#DejaVuSans-69" transform="translate(1113.490234 0)"/>
    <use xlink:href="#DejaVuSans-6f" transform="translate(1141.273438 0)"/>
    <use xlink:href="#DejaVuSans-6e" transform="translate(1202.455078 0)"/>
    <use xlink:href="#DejaVuSans-20" transform="translate(1265.833984 0)"/>
    <use xlink:href="#DejaVuSans-43" transform="translate(1297.621094 0)"/>
    <use xlink:href="#DejaVuSans-6f" transform="translate(1367.445312 0)"/>
    <use xlink:href="#DejaVuSans-6d" transform="translate(1428.626953 0)"/>
    <use xlink:href="#DejaVuSans-70" transform="translate(1526.039062 0)"/>
    <use xlink:href="#DejaVuSans-61" transform="translate(1589.515625 0)"/>
    <use xlink:href="#DejaVuSans-72" transform="translate(1650.794922 0)"/>
    <use xlink:href="#DejaVuSans-69" transform="translate(1691.908203 0)"/>
    <use xlink:href="#DejaVuSans-73" transform="translate(1719.691406 0)"/>
    <use xlink:href="#DejaVuSans-6f" transform="translate(1771.791016 0)"/>
    <use xlink:href="#DejaVuSans-6e" transform="translate(1832.972656 0)"/>
   </g>
  </g>
  <g id="legend_1">
   <g id="patch_12">
    <path d="M 753.679062 66.7125 
L 864.750937 66.7125 
Q 866.750937 66.7125 866.750937 64.7125 
L 866.750937 7 
Q 866.750937 5 864.750937 5 
L 753.679062 5 
Q 751.679062 5 751.679062 7 
L 751.679062 64.7125 
Q 751.679062 66.7125 753.679062 66.7125 
z
" style="fill: #ffffff; opacity: 0.5; stroke: #cccccc; stroke-linejoin: miter"/>
   </g>
   <g id="line2d_27">
    <path d="M 755.679062 13.098437 
L 765.679062 13.098437 
L 775.679062 13.098437 
" style="fill: none; stroke: #000000; stroke-opacity: 0.4; stroke-width: 6; stroke-linecap: square"/>
   </g>
   <g id="text_17">
    <!-- True Trajectory -->
    <g transform="translate(783.679062 16.598437) scale(0.1 -0.1)">
     <defs>
      <path id="DejaVuSans-6a" d="M 603 3500 
L 1178 3500 
L 1178 -63 
Q 1178 -731 923 -1031 
Q 669 -1331 103 -1331 
L -116 -1331 
L -116 -844 
L 38 -844 
Q 366 -844 484 -692 
Q 603 -541 603 -63 
L 603 3500 
z
M 603 4863 
L 1178 4863 
L 1178 4134 
L 603 4134 
L 603 4863 
z
" transform="scale(0.015625)"/>
      <path id="DejaVuSans-63" d="M 3122 3366 
L 3122 2828 
Q 2878 2963 2633 3030 
Q 2388 3097 2138 3097 
Q 1578 3097 1268 2742 
Q 959 2388 959 1747 
Q 959 1106 1268 751 
Q 1578 397 2138 397 
Q 2388 397 2633 464 
Q 2878 531 3122 666 
L 3122 134 
Q 2881 22 2623 -34 
Q 2366 -91 2075 -91 
Q 1284 -91 818 406 
Q 353 903 353 1747 
Q 353 2603 823 3093 
Q 1294 3584 2113 3584 
Q 2378 3584 2631 3529 
Q 2884 3475 3122 3366 
z
" transform="scale(0.015625)"/>
      <path id="DejaVuSans-79" d="M 2059 -325 
Q 1816 -950 1584 -1140 
Q 1353 -1331 966 -1331 
L 506 -1331 
L 506 -850 
L 844 -850 
Q 1081 -850 1212 -737 
Q 1344 -625 1503 -206 
L 1606 56 
L 191 3500 
L 800 3500 
L 1894 763 
L 2988 3500 
L 3597 3500 
L 2059 -325 
z
" transform="scale(0.015625)"/>
     </defs>
     <use xlink:href="#DejaVuSans-54"/>
     <use xlink:href="#DejaVuSans-72" transform="translate(46.333984 0)"/>
     <use xlink:href="#DejaVuSans-75" transform="translate(87.447266 0)"/>
     <use xlink:href="#DejaVuSans-65" transform="translate(150.826172 0)"/>
     <use xlink:href="#DejaVuSans-20" transform="translate(212.349609 0)"/>
     <use xlink:href="#DejaVuSans-54" transform="translate(244.136719 0)"/>
     <use xlink:href="#DejaVuSans-72" transform="translate(290.470703 0)"/>
     <use xlink:href="#DejaVuSans-61" transform="translate(331.583984 0)"/>
     <use xlink:href="#DejaVuSans-6a" transform="translate(392.863281 0)"/>
     <use xlink:href="#DejaVuSans-65" transform="translate(420.646484 0)"/>
     <use xlink:href="#DejaVuSans-63" transform="translate(482.169922 0)"/>
     <use xlink:href="#DejaVuSans-74" transform="translate(537.150391 0)"/>
     <use xlink:href="#DejaVuSans-6f" transform="translate(576.359375 0)"/>
     <use xlink:href="#DejaVuSans-72" transform="translate(637.541016 0)"/>
     <use xlink:href="#DejaVuSans-79" transform="translate(678.654297 0)"/>
    </g>
   </g>
   <g id="line2d_28">
    <path d="M 755.679062 27.776562 
L 765.679062 27.776562 
L 775.679062 27.776562 
" style="fill: none; stroke-dasharray: 12.95,5.6; stroke-dashoffset: 0; stroke: #ff0000; stroke-opacity: 0.8; stroke-width: 3.5"/>
   </g>
   <g id="text_18">
    <!-- AutoSINDy -->
    <g transform="translate(783.679062 31.276562) scale(0.1 -0.1)">
     <defs>
      <path id="DejaVuSans-41" d="M 2188 4044 
L 1331 1722 
L 3047 1722 
L 2188 4044 
z
M 1831 4666 
L 2547 4666 
L 4325 0 
L 3669 0 
L 3244 1197 
L 1141 1197 
L 716 0 
L 50 0 
L 1831 4666 
z
" transform="scale(0.015625)"/>
      <path id="DejaVuSans-49" d="M 628 4666 
L 1259 4666 
L 1259 0 
L 628 0 
L 628 4666 
z
" transform="scale(0.015625)"/>
      <path id="DejaVuSans-4e" d="M 628 4666 
L 1478 4666 
L 3547 763 
L 3547 4666 
L 4159 4666 
L 4159 0 
L 3309 0 
L 1241 3903 
L 1241 0 
L 628 0 
L 628 4666 
z
" transform="scale(0.015625)"/>
      <path id="DejaVuSans-44" d="M 1259 4147 
L 1259 519 
L 2022 519 
Q 2988 519 3436 956 
Q 3884 1394 3884 2338 
Q 3884 3275 3436 3711 
Q 2988 4147 2022 4147 
L 1259 4147 
z
M 628 4666 
L 1925 4666 
Q 3281 4666 3915 4102 
Q 4550 3538 4550 2338 
Q 4550 1131 3912 565 
Q 3275 0 1925 0 
L 628 0 
L 628 4666 
z
" transform="scale(0.015625)"/>
     </defs>
     <use xlink:href="#DejaVuSans-41"/>
     <use xlink:href="#DejaVuSans-75" transform="translate(68.408203 0)"/>
     <use xlink:href="#DejaVuSans-74" transform="translate(131.787109 0)"/>
     <use xlink:href="#DejaVuSans-6f" transform="translate(170.996094 0)"/>
     <use xlink:href="#DejaVuSans-53" transform="translate(232.177734 0)"/>
     <use xlink:href="#DejaVuSans-49" transform="translate(295.654297 0)"/>
     <use xlink:href="#DejaVuSans-4e" transform="translate(325.146484 0)"/>
     <use xlink:href="#DejaVuSans-44" transform="translate(399.951172 0)"/>
     <use xlink:href="#DejaVuSans-79" transform="translate(476.953125 0)"/>
    </g>
   </g>
   <g id="line2d_29">
    <path d="M 755.679062 42.454687 
L 765.679062 42.454687 
L 775.679062 42.454687 
" style="fill: none; stroke-dasharray: 3.5,5.775; stroke-dashoffset: 0; stroke: #008000; stroke-opacity: 0.8; stroke-width: 3.5"/>
   </g>
   <g id="text_19">
    <!-- Standard SINDy -->
    <g transform="translate(783.679062 45.954687) scale(0.1 -0.1)">
     <defs>
      <path id="DejaVuSans-64" d="M 2906 2969 
L 2906 4863 
L 3481 4863 
L 3481 0 
L 2906 0 
L 2906 525 
Q 2725 213 2448 61 
Q 2172 -91 1784 -91 
Q 1150 -91 751 415 
Q 353 922 353 1747 
Q 353 2572 751 3078 
Q 1150 3584 1784 3584 
Q 2172 3584 2448 3432 
Q 2725 3281 2906 2969 
z
M 947 1747 
Q 947 1113 1208 752 
Q 1469 391 1925 391 
Q 2381 391 2643 752 
Q 2906 1113 2906 1747 
Q 2906 2381 2643 2742 
Q 2381 3103 1925 3103 
Q 1469 3103 1208 2742 
Q 947 2381 947 1747 
z
" transform="scale(0.015625)"/>
     </defs>
     <use xlink:href="#DejaVuSans-53"/>
     <use xlink:href="#DejaVuSans-74" transform="translate(63.476562 0)"/>
     <use xlink:href="#DejaVuSans-61" transform="translate(102.685547 0)"/>
     <use xlink:href="#DejaVuSans-6e" transform="translate(163.964844 0)"/>
     <use xlink:href="#DejaVuSans-64" transform="translate(227.34375 0)"/>
     <use xlink:href="#DejaVuSans-61" transform="translate(290.820312 0)"/>
     <use xlink:href="#DejaVuSans-72" transform="translate(352.099609 0)"/>
     <use xlink:href="#DejaVuSans-64" transform="translate(391.462891 0)"/>
     <use xlink:href="#DejaVuSans-20" transform="translate(454.939453 0)"/>
     <use xlink:href="#DejaVuSans-53" transform="translate(486.726562 0)"/>
     <use xlink:href="#DejaVuSans-49" transform="translate(550.203125 0)"/>
     <use xlink:href="#DejaVuSans-4e" transform="translate(579.695312 0)"/>
     <use xlink:href="#DejaVuSans-44" transform="translate(654.5 0)"/>
     <use xlink:href="#DejaVuSans-79" transform="translate(731.501953 0)"/>
    </g>
   </g>
   <g id="line2d_30">
    <path d="M 755.679062 57.132812 
L 765.679062 57.132812 
L 775.679062 57.132812 
" style="fill: none; stroke-dasharray: 22.4,5.6,3.5,5.6; stroke-dashoffset: 0; stroke: #0000ff; stroke-opacity: 0.8; stroke-width: 3.5"/>
   </g>
   <g id="text_20">
    <!-- Standard PySR -->
    <g transform="translate(783.679062 60.632812) scale(0.1 -0.1)">
     <defs>
      <path id="DejaVuSans-50" d="M 1259 4147 
L 1259 2394 
L 2053 2394 
Q 2494 2394 2734 2622 
Q 2975 2850 2975 3272 
Q 2975 3691 2734 3919 
Q 2494 4147 2053 4147 
L 1259 4147 
z
M 628 4666 
L 2053 4666 
Q 2838 4666 3239 4311 
Q 3641 3956 3641 3272 
Q 3641 2581 3239 2228 
Q 2838 1875 2053 1875 
L 1259 1875 
L 1259 0 
L 628 0 
L 628 4666 
z
" transform="scale(0.015625)"/>
      <path id="DejaVuSans-52" d="M 2841 2188 
Q 3044 2119 3236 1894 
Q 3428 1669 3622 1275 
L 4263 0 
L 3584 0 
L 2988 1197 
Q 2756 1666 2539 1819 
Q 2322 1972 1947 1972 
L 1259 1972 
L 1259 0 
L 628 0 
L 628 4666 
L 2053 4666 
Q 2853 4666 3247 4331 
Q 3641 3997 3641 3322 
Q 3641 2881 3436 2590 
Q 3231 2300 2841 2188 
z
M 1259 4147 
L 1259 2491 
L 2053 2491 
Q 2509 2491 2742 2702 
Q 2975 2913 2975 3322 
Q 2975 3731 2742 3939 
Q 2509 4147 2053 4147 
L 1259 4147 
z
" transform="scale(0.015625)"/>
     </defs>
     <use xlink:href="#DejaVuSans-53"/>
     <use xlink:href="#DejaVuSans-74" transform="translate(63.476562 0)"/>
     <use xlink:href="#DejaVuSans-61" transform="translate(102.685547 0)"/>
     <use xlink:href="#DejaVuSans-6e" transform="translate(163.964844 0)"/>
     <use xlink:href="#DejaVuSans-64" transform="translate(227.34375 0)"/>
     <use xlink:href="#DejaVuSans-61" transform="translate(290.820312 0)"/>
     <use xlink:href="#DejaVuSans-72" transform="translate(352.099609 0)"/>
     <use xlink:href="#DejaVuSans-64" transform="translate(391.462891 0)"/>
     <use xlink:href="#DejaVuSans-20" transform="translate(454.939453 0)"/>
     <use xlink:href="#DejaVuSans-50" transform="translate(486.726562 0)"/>
     <use xlink:href="#DejaVuSans-79" transform="translate(547.029297 0)"/>
     <use xlink:href="#DejaVuSans-53" transform="translate(606.208984 0)"/>
     <use xlink:href="#DejaVuSans-52" transform="translate(669.685547 0)"/>
    </g>
   </g>
  </g>
 </g>
 <defs>
  <clipPath id="p35d6d4e53e">
   <rect x="52.160938" y="39.64" width="806.59" height="97.15"/>
  </clipPath>
  <clipPath id="p20cf48df2f">
   <rect x="52.160938" y="151.09" width="806.59" height="97.15"/>
  </clipPath>
 </defs>
</svg>
