<?xml version="1.0" encoding="utf-8" standalone="no"?>
<!DOCTYPE svg PUBLIC "-//W3C//DTD SVG 1.1//EN"
  "http://www.w3.org/Graphics/SVG/1.1/DTD/svg11.dtd">
<svg xmlns:xlink="http://www.w3.org/1999/xlink" width="568.837812pt" height="568.578281pt" viewBox="0 0 568.837812 568.578281" xmlns="http://www.w3.org/2000/svg" version="1.1">
 <metadata>
  <rdf:RDF xmlns:dc="http://purl.org/dc/elements/1.1/" xmlns:cc="http://creativecommons.org/ns#" xmlns:rdf="http://www.w3.org/1999/02/22-rdf-syntax-ns#">
   <cc:Work>
    <dc:type rdf:resource="http://purl.org/dc/dcmitype/StillImage"/>
    <dc:date>2026-04-06T19:30:36.896085</dc:date>
    <dc:format>image/svg+xml</dc:format>
    <dc:creator>
     <cc:Agent>
      <dc:title>Matplotlib v3.10.7, https://matplotlib.org/</dc:title>
     </cc:Agent>
    </dc:creator>
   </cc:Work>
  </rdf:RDF>
 </metadata>
 <defs>
  <style type="text/css">*{stroke-linejoin: round; stroke-linecap: butt}</style>
 </defs>
 <g id="figure_1">
  <g id="patch_1">
   <path d="M 0 568.578281 
L 568.837812 568.578281 
L 568.837812 0 
L 0 0 
z
" style="fill: #ffffff"/>
  </g>
  <g id="axes_1">
   <g id="patch_2">
    <path d="M 40.807813 535.587656 
L 561.637812 535.587656 
L 561.637812 21.207656 
L 40.807813 21.207656 
z
" style="fill: #ffffff"/>
   </g>
   <g id="matplotlib.axis_1">
    <g id="xtick_1">
     <g id="line2d_1">
      <path d="M 88.866701 535.587656 
L 88.866701 21.207656 
" clip-path="url(#pd090de854c)" style="fill: none; stroke: #cccccc; stroke-width: 0.8; stroke-linecap: round"/>
     </g>
     <g id="line2d_2"/>
     <g id="text_1">
      <!-- −20 -->
      <g style="fill: #262626" transform="translate(80.385451 546.245469) scale(0.1 -0.1)">
       <defs>
        <path id="ArialMT-2212" d="M 3381 1997 
L 356 1997 
L 356 2522 
L 3381 2522 
L 3381 1997 
z
" transform="scale(0.015625)"/>
        <path id="ArialMT-32" d="M 3222 541 
L 3222 0 
L 194 0 
Q 188 203 259 391 
Q 375 700 629 1000 
Q 884 1300 1366 1694 
Q 2113 2306 2375 2664 
Q 2638 3022 2638 3341 
Q 2638 3675 2398 3904 
Q 2159 4134 1775 4134 
Q 1369 4134 1125 3890 
Q 881 3647 878 3216 
L 300 3275 
Q 359 3922 746 4261 
Q 1134 4600 1788 4600 
Q 2447 4600 2831 4234 
Q 3216 3869 3216 3328 
Q 3216 3053 3103 2787 
Q 2991 2522 2730 2228 
Q 2469 1934 1863 1422 
Q 1356 997 1212 845 
Q 1069 694 975 541 
L 3222 541 
z
" transform="scale(0.015625)"/>
        <path id="ArialMT-30" d="M 266 2259 
Q 266 3072 433 3567 
Q 600 4063 929 4331 
Q 1259 4600 1759 4600 
Q 2128 4600 2406 4451 
Q 2684 4303 2865 4023 
Q 3047 3744 3150 3342 
Q 3253 2941 3253 2259 
Q 3253 1453 3087 958 
Q 2922 463 2592 192 
Q 2263 -78 1759 -78 
Q 1097 -78 719 397 
Q 266 969 266 2259 
z
M 844 2259 
Q 844 1131 1108 757 
Q 1372 384 1759 384 
Q 2147 384 2411 759 
Q 2675 1134 2675 2259 
Q 2675 3391 2411 3762 
Q 2147 4134 1753 4134 
Q 1366 4134 1134 3806 
Q 844 3388 844 2259 
z
" transform="scale(0.015625)"/>
       </defs>
       <use xlink:href="#ArialMT-2212"/>
       <use xlink:href="#ArialMT-32" transform="translate(58.398438 0)"/>
       <use xlink:href="#ArialMT-30" transform="translate(114.013672 0)"/>
      </g>
     </g>
    </g>
    <g id="xtick_2">
     <g id="line2d_3">
      <path d="M 149.726551 535.587656 
L 149.726551 21.207656 
" clip-path="url(#pd090de854c)" style="fill: none; stroke: #cccccc; stroke-width: 0.8; stroke-linecap: round"/>
     </g>
     <g id="line2d_4"/>
     <g id="text_2">
      <!-- −15 -->
      <g style="fill: #262626" transform="translate(141.245301 546.245469) scale(0.1 -0.1)">
       <defs>
        <path id="ArialMT-31" d="M 2384 0 
L 1822 0 
L 1822 3584 
Q 1619 3391 1289 3197 
Q 959 3003 697 2906 
L 697 3450 
Q 1169 3672 1522 3987 
Q 1875 4303 2022 4600 
L 2384 4600 
L 2384 0 
z
" transform="scale(0.015625)"/>
        <path id="ArialMT-35" d="M 266 1200 
L 856 1250 
Q 922 819 1161 601 
Q 1400 384 1738 384 
Q 2144 384 2425 690 
Q 2706 997 2706 1503 
Q 2706 1984 2436 2262 
Q 2166 2541 1728 2541 
Q 1456 2541 1237 2417 
Q 1019 2294 894 2097 
L 366 2166 
L 809 4519 
L 3088 4519 
L 3088 3981 
L 1259 3981 
L 1013 2750 
Q 1425 3038 1878 3038 
Q 2478 3038 2890 2622 
Q 3303 2206 3303 1553 
Q 3303 931 2941 478 
Q 2500 -78 1738 -78 
Q 1113 -78 717 272 
Q 322 622 266 1200 
z
" transform="scale(0.015625)"/>
       </defs>
       <use xlink:href="#ArialMT-2212"/>
       <use xlink:href="#ArialMT-31" transform="translate(58.398438 0)"/>
       <use xlink:href="#ArialMT-35" transform="translate(114.013672 0)"/>
      </g>
     </g>
    </g>
    <g id="xtick_3">
     <g id="line2d_5">
      <path d="M 210.586402 535.587656 
L 210.586402 21.207656 
" clip-path="url(#pd090de854c)" style="fill: none; stroke: #cccccc; stroke-width: 0.8; stroke-linecap: round"/>
     </g>
     <g id="line2d_6"/>
     <g id="text_3">
      <!-- −10 -->
      <g style="fill: #262626" transform="translate(202.105152 546.245469) scale(0.1 -0.1)">
       <use xlink:href="#ArialMT-2212"/>
       <use xlink:href="#ArialMT-31" transform="translate(58.398438 0)"/>
       <use xlink:href="#ArialMT-30" transform="translate(114.013672 0)"/>
      </g>
     </g>
    </g>
    <g id="xtick_4">
     <g id="line2d_7">
      <path d="M 271.446252 535.587656 
L 271.446252 21.207656 
" clip-path="url(#pd090de854c)" style="fill: none; stroke: #cccccc; stroke-width: 0.8; stroke-linecap: round"/>
     </g>
     <g id="line2d_8"/>
     <g id="text_4">
      <!-- −5 -->
      <g style="fill: #262626" transform="translate(265.745471 546.245469) scale(0.1 -0.1)">
       <use xlink:href="#ArialMT-2212"/>
       <use xlink:href="#ArialMT-35" transform="translate(58.398438 0)"/>
      </g>
     </g>
    </g>
    <g id="xtick_5">
     <g id="line2d_9">
      <path d="M 332.306102 535.587656 
L 332.306102 21.207656 
" clip-path="url(#pd090de854c)" style="fill: none; stroke: #cccccc; stroke-width: 0.8; stroke-linecap: round"/>
     </g>
     <g id="line2d_10"/>
     <g id="text_5">
      <!-- 0 -->
      <g style="fill: #262626" transform="translate(329.525633 546.245469) scale(0.1 -0.1)">
       <use xlink:href="#ArialMT-30"/>
      </g>
     </g>
    </g>
    <g id="xtick_6">
     <g id="line2d_11">
      <path d="M 393.165953 535.587656 
L 393.165953 21.207656 
" clip-path="url(#pd090de854c)" style="fill: none; stroke: #cccccc; stroke-width: 0.8; stroke-linecap: round"/>
     </g>
     <g id="line2d_12"/>
     <g id="text_6">
      <!-- 5 -->
      <g style="fill: #262626" transform="translate(390.385484 546.245469) scale(0.1 -0.1)">
       <use xlink:href="#ArialMT-35"/>
      </g>
     </g>
    </g>
    <g id="xtick_7">
     <g id="line2d_13">
      <path d="M 454.025803 535.587656 
L 454.025803 21.207656 
" clip-path="url(#pd090de854c)" style="fill: none; stroke: #cccccc; stroke-width: 0.8; stroke-linecap: round"/>
     </g>
     <g id="line2d_14"/>
     <g id="text_7">
      <!-- 10 -->
      <g style="fill: #262626" transform="translate(448.464865 546.245469) scale(0.1 -0.1)">
       <use xlink:href="#ArialMT-31"/>
       <use xlink:href="#ArialMT-30" transform="translate(55.615234 0)"/>
      </g>
     </g>
    </g>
    <g id="xtick_8">
     <g id="line2d_15">
      <path d="M 514.885653 535.587656 
L 514.885653 21.207656 
" clip-path="url(#pd090de854c)" style="fill: none; stroke: #cccccc; stroke-width: 0.8; stroke-linecap: round"/>
     </g>
     <g id="line2d_16"/>
     <g id="text_8">
      <!-- 15 -->
      <g style="fill: #262626" transform="translate(509.324716 546.245469) scale(0.1 -0.1)">
       <use xlink:href="#ArialMT-31"/>
       <use xlink:href="#ArialMT-35" transform="translate(55.615234 0)"/>
      </g>
     </g>
    </g>
    <g id="text_9">
     <!-- x0 -->
     <g style="fill: #262626" transform="translate(295.942344 559.390781) scale(0.1 -0.1)">
      <defs>
       <path id="ArialMT-78" d="M 47 0 
L 1259 1725 
L 138 3319 
L 841 3319 
L 1350 2541 
Q 1494 2319 1581 2169 
Q 1719 2375 1834 2534 
L 2394 3319 
L 3066 3319 
L 1919 1756 
L 3153 0 
L 2463 0 
L 1781 1031 
L 1600 1309 
L 728 0 
L 47 0 
z
" transform="scale(0.015625)"/>
      </defs>
      <use xlink:href="#ArialMT-78"/>
      <use xlink:href="#ArialMT-30" transform="translate(50 0)"/>
     </g>
    </g>
   </g>
   <g id="matplotlib.axis_2">
    <g id="ytick_1">
     <g id="line2d_17">
      <path d="M 40.807813 493.349149 
L 561.637812 493.349149 
" clip-path="url(#pd090de854c)" style="fill: none; stroke: #cccccc; stroke-width: 0.8; stroke-linecap: round"/>
     </g>
     <g id="line2d_18"/>
     <g id="text_10">
      <!-- −30 -->
      <g style="fill: #262626" transform="translate(20.345313 496.928055) scale(0.1 -0.1)">
       <defs>
        <path id="ArialMT-33" d="M 269 1209 
L 831 1284 
Q 928 806 1161 595 
Q 1394 384 1728 384 
Q 2125 384 2398 659 
Q 2672 934 2672 1341 
Q 2672 1728 2419 1979 
Q 2166 2231 1775 2231 
Q 1616 2231 1378 2169 
L 1441 2663 
Q 1497 2656 1531 2656 
Q 1891 2656 2178 2843 
Q 2466 3031 2466 3422 
Q 2466 3731 2256 3934 
Q 2047 4138 1716 4138 
Q 1388 4138 1169 3931 
Q 950 3725 888 3313 
L 325 3413 
Q 428 3978 793 4289 
Q 1159 4600 1703 4600 
Q 2078 4600 2393 4439 
Q 2709 4278 2876 4000 
Q 3044 3722 3044 3409 
Q 3044 3113 2884 2869 
Q 2725 2625 2413 2481 
Q 2819 2388 3044 2092 
Q 3269 1797 3269 1353 
Q 3269 753 2831 336 
Q 2394 -81 1725 -81 
Q 1122 -81 723 278 
Q 325 638 269 1209 
z
" transform="scale(0.015625)"/>
       </defs>
       <use xlink:href="#ArialMT-2212"/>
       <use xlink:href="#ArialMT-33" transform="translate(58.398438 0)"/>
       <use xlink:href="#ArialMT-30" transform="translate(114.013672 0)"/>
      </g>
     </g>
    </g>
    <g id="ytick_2">
     <g id="line2d_19">
      <path d="M 40.807813 407.475086 
L 561.637812 407.475086 
" clip-path="url(#pd090de854c)" style="fill: none; stroke: #cccccc; stroke-width: 0.8; stroke-linecap: round"/>
     </g>
     <g id="line2d_20"/>
     <g id="text_11">
      <!-- −20 -->
      <g style="fill: #262626" transform="translate(20.345313 411.053992) scale(0.1 -0.1)">
       <use xlink:href="#ArialMT-2212"/>
       <use xlink:href="#ArialMT-32" transform="translate(58.398438 0)"/>
       <use xlink:href="#ArialMT-30" transform="translate(114.013672 0)"/>
      </g>
     </g>
    </g>
    <g id="ytick_3">
     <g id="line2d_21">
      <path d="M 40.807813 321.601023 
L 561.637812 321.601023 
" clip-path="url(#pd090de854c)" style="fill: none; stroke: #cccccc; stroke-width: 0.8; stroke-linecap: round"/>
     </g>
     <g id="line2d_22"/>
     <g id="text_12">
      <!-- −10 -->
      <g style="fill: #262626" transform="translate(20.345313 325.179929) scale(0.1 -0.1)">
       <use xlink:href="#ArialMT-2212"/>
       <use xlink:href="#ArialMT-31" transform="translate(58.398438 0)"/>
       <use xlink:href="#ArialMT-30" transform="translate(114.013672 0)"/>
      </g>
     </g>
    </g>
    <g id="ytick_4">
     <g id="line2d_23">
      <path d="M 40.807813 235.72696 
L 561.637812 235.72696 
" clip-path="url(#pd090de854c)" style="fill: none; stroke: #cccccc; stroke-width: 0.8; stroke-linecap: round"/>
     </g>
     <g id="line2d_24"/>
     <g id="text_13">
      <!-- 0 -->
      <g style="fill: #262626" transform="translate(31.746875 239.305866) scale(0.1 -0.1)">
       <use xlink:href="#ArialMT-30"/>
      </g>
     </g>
    </g>
    <g id="ytick_5">
     <g id="line2d_25">
      <path d="M 40.807813 149.852897 
L 561.637812 149.852897 
" clip-path="url(#pd090de854c)" style="fill: none; stroke: #cccccc; stroke-width: 0.8; stroke-linecap: round"/>
     </g>
     <g id="line2d_26"/>
     <g id="text_14">
      <!-- 10 -->
      <g style="fill: #262626" transform="translate(26.185938 153.431803) scale(0.1 -0.1)">
       <use xlink:href="#ArialMT-31"/>
       <use xlink:href="#ArialMT-30" transform="translate(55.615234 0)"/>
      </g>
     </g>
    </g>
    <g id="ytick_6">
     <g id="line2d_27">
      <path d="M 40.807813 63.978834 
L 561.637812 63.978834 
" clip-path="url(#pd090de854c)" style="fill: none; stroke: #cccccc; stroke-width: 0.8; stroke-linecap: round"/>
     </g>
     <g id="line2d_28"/>
     <g id="text_15">
      <!-- 20 -->
      <g style="fill: #262626" transform="translate(26.185938 67.55774) scale(0.1 -0.1)">
       <use xlink:href="#ArialMT-32"/>
       <use xlink:href="#ArialMT-30" transform="translate(55.615234 0)"/>
      </g>
     </g>
    </g>
    <g id="text_16">
     <!-- x1 -->
     <g style="fill: #262626" transform="translate(14.357813 283.678125) rotate(-90) scale(0.1 -0.1)">
      <use xlink:href="#ArialMT-78"/>
      <use xlink:href="#ArialMT-31" transform="translate(50 0)"/>
     </g>
    </g>
   </g>
   <g id="line2d_29">
    <path d="M 454.025803 149.852897 
L 454.428304 143.986261 
L 455.561812 138.482374 
L 457.306987 133.434155 
L 459.533351 128.959289 
L 462.099657 125.192404 
L 464.87585 122.139389 
L 467.760602 119.725127 
L 470.657674 117.932534 
L 473.473759 116.804986 
L 476.118483 116.44631 
L 478.510424 117.069322 
L 480.53203 118.727655 
L 482.058142 121.223154 
L 483.020524 124.398028 
L 483.408721 128.139656 
L 483.250398 132.403102 
L 482.497734 137.254571 
L 481.119469 142.665102 
L 479.105753 148.554338 
L 476.462984 154.80019 
L 473.21217 161.235569 
L 469.385292 167.641835 
L 465.065443 173.876399 
L 460.342316 179.834314 
L 455.301654 185.430758 
L 450.025253 190.60104 
L 444.590963 195.300594 
L 439.072685 199.504983 
L 433.540374 203.209896 
L 428.060037 206.431152 
L 422.703811 209.139224 
L 417.537527 211.299283 
L 412.60285 212.972544 
L 407.935077 214.214924 
L 403.563258 215.07631 
L 399.510195 215.600557 
L 395.792443 215.825488 
L 392.420311 215.782897 
L 389.39786 215.498546 
L 386.715715 214.993962 
L 384.364279 214.295577 
L 382.341607 213.429025 
L 380.642524 212.415829 
L 379.258617 211.273403 
L 378.178234 210.015054 
L 377.386486 208.649979 
L 376.865246 207.183264 
L 376.593147 205.615889 
L 376.551015 203.939779 
L 376.7404 202.135623 
L 377.163993 200.193398 
L 377.823485 198.103216 
L 378.719819 195.854845 
L 379.853192 193.437708 
L 381.223055 190.840882 
L 384.666322 185.06274 
L 389.085837 178.460471 
L 394.538406 170.965746 
L 401.020012 162.464115 
L 408.596856 152.896805 
L 417.40757 142.262276 
L 422.294586 136.614393 
L 427.472127 130.898369 
L 432.941208 125.210381 
L 438.676858 119.637453 
L 444.628089 114.257489 
L 450.717887 109.139274 
L 456.863588 104.367167 
L 463.013295 100.281843 
L 469.066506 97.280032 
L 474.882139 95.614916 
L 480.279505 95.394054 
L 485.055868 96.547056 
L 489.115077 98.97853 
L 492.395287 102.742434 
L 494.79779 107.881763 
L 496.18651 114.423882 
L 496.424345 122.260937 
L 495.511989 130.931132 
L 493.487714 140.084835 
L 490.413716 149.407596 
L 486.377529 158.612482 
L 481.492642 167.487413 
L 475.897862 175.948139 
L 469.734632 183.864345 
L 463.137428 191.14072 
L 456.233677 197.721703 
L 449.143368 203.585243 
L 441.983071 208.648802 
L 434.878879 212.888115 
L 427.939948 216.333409 
L 421.253708 219.04429 
L 414.885863 221.109748 
L 408.880394 222.648155 
L 403.269692 223.739172 
L 398.077097 224.409364 
L 393.311496 224.721408 
L 388.976368 224.730998 
L 385.069788 224.486822 
L 381.584424 224.030558 
L 378.507542 223.396875 
L 375.820407 222.614895 
L 373.502496 221.710352 
L 371.534578 220.703122 
L 369.897526 219.607283 
L 368.572319 218.43112 
L 367.540036 217.177123 
L 366.781861 215.841985 
L 366.278658 214.416663 
L 366.014038 212.893205 
L 365.984115 211.270867 
L 366.185678 209.547583 
L 366.614449 207.719116 
L 367.265086 205.779059 
L 368.131182 203.718832 
L 369.205262 201.527686 
L 371.946233 196.700684 
L 375.501943 191.214505 
L 379.924258 184.994386 
L 385.257467 177.966138 
L 391.546347 170.060641 
L 398.853383 161.227294 
L 407.239887 151.362464 
L 416.768218 140.415045 
L 427.507891 128.519173 
L 433.304003 122.485693 
L 439.368996 116.645538 
L 445.651519 111.182941 
L 452.057417 106.278861 
L 458.450314 102.111131 
L 464.725876 98.833434 
L 470.772997 96.446614 
L 476.499164 94.871147 
L 481.845347 94.297263 
L 486.653657 95.210334 
L 490.778999 97.52361 
L 494.119733 101.101841 
L 496.552925 106.144696 
L 497.974264 112.528808 
L 498.330196 119.89324 
L 497.615954 127.821497 
L 495.851673 136.383626 
L 493.075748 145.302668 
L 489.3519 154.304297 
L 484.765473 163.172776 
L 479.430414 171.736459 
L 473.484621 179.831093 
L 467.060323 187.336514 
L 460.283144 194.17824 
L 453.272109 200.327463 
L 446.139066 205.781222 
L 438.996497 210.440456 
L 431.962693 214.295761 
L 425.137139 217.385586 
L 418.598235 219.776652 
L 412.403296 221.563944 
L 406.588611 222.870275 
L 401.180967 223.757583 
L 396.196643 224.255276 
L 391.640647 224.423637 
L 387.513156 224.314936 
L 383.809517 223.973427 
L 380.520247 223.435347 
L 377.630811 222.729625 
L 375.121185 221.885534 
L 372.97191 220.927092 
L 371.164004 219.87172 
L 369.678568 218.73098 
L 368.496782 217.510565 
L 367.59991 216.210308 
L 366.969297 214.824175 
L 366.585519 213.341462 
L 366.438638 211.758071 
L 366.526277 210.073008 
L 366.844997 208.283172 
L 367.390237 206.383336 
L 368.156307 204.366142 
L 369.136398 202.222108 
L 371.705863 197.504985 
L 375.083559 192.142582 
L 379.323183 186.063733 
L 384.467547 179.193715 
L 390.561481 171.461792 
L 397.660273 162.810508 
L 405.833943 153.145859 
L 415.137931 142.392774 
L 425.65116 130.655585 
L 431.389845 124.56557 
L 437.399021 118.600391 
L 443.604268 112.9788 
L 449.926495 107.880048 
L 456.281946 103.443886 
L 462.582197 99.770566 
L 468.733205 96.920192 
L 474.568304 94.930883 
L 480.018873 94.077344 
L 485.028728 94.64631 
L 489.463605 96.833397 
L 493.111159 100.743099 
L 495.692769 106.386479 
L 497.116911 113.558213 
L 497.359036 121.844689 
L 496.401876 130.868871 
L 494.276719 140.310238 
L 491.063407 149.904776 
L 486.862426 159.411628 
L 481.794263 168.612465 
L 476.003555 177.344128 
L 469.632121 185.475665 
L 462.818967 192.908329 
L 455.700279 199.575584 
L 448.408672 205.440411 
L 441.070123 210.464561 
L 433.811634 214.646617 
L 426.741757 218.020964 
L 419.947056 220.651623 
L 413.492101 222.632247 
L 407.419474 224.086124 
L 401.758463 225.098829 
L 396.529928 225.697756 
L 391.741159 225.948197 
L 387.39363 225.907204 
L 383.483015 225.623495 
L 379.999184 225.137452 
L 376.926042 224.481685 
L 374.243033 223.686263 
L 371.930381 222.77672 
L 369.968264 221.772342 
L 368.336624 220.686286 
L 367.015168 219.525583 
L 365.983364 218.291136 
L 365.220444 216.97772 
L 364.705787 215.576668 
L 364.430416 214.086601 
L 364.389578 212.506797 
L 364.577555 210.834223 
L 364.987669 209.063533 
L 365.612279 207.18707 
L 366.442784 205.194861 
L 368.68464 200.813125 
L 371.708399 195.832208 
L 375.55881 190.162865 
L 380.277224 183.71718 
L 385.909159 176.417095 
L 392.51802 168.221219 
L 400.15829 159.070226 
L 408.89135 148.886197 
L 418.783238 137.634738 
L 424.146893 131.681933 
L 429.827171 125.59695 
L 435.829758 119.472189 
L 442.124812 113.426617 
L 448.64697 107.605779 
L 455.295343 102.181787 
L 461.964503 97.385471 
L 468.580865 93.524676 
L 475.002026 90.720129 
L 481.120339 88.934554 
L 486.835664 88.473777 
L 491.936125 89.725253 
L 496.248786 92.617219 
L 499.682157 96.912661 
L 502.099656 102.976092 
L 503.32757 110.68798 
L 503.306454 119.581833 
L 502.043903 129.237909 
L 499.554622 139.462232 
L 495.896527 149.980643 
L 491.162071 160.497222 
L 485.470525 170.684366 
L 478.979411 180.275735 
L 471.86952 189.112778 
L 464.310947 197.084392 
L 456.462741 204.126214 
L 448.472895 210.22062 
L 440.478844 215.390747 
L 432.60848 219.660661 
L 424.971074 223.079621 
L 417.655578 225.717215 
L 410.730833 227.660718 
L 404.245568 229.0151 
L 398.228651 229.901034 
L 392.695283 230.392726 
L 387.646201 230.546785 
L 383.074886 230.424149 
L 378.970341 230.077173 
L 375.3171 229.549629 
L 372.095221 228.8767 
L 369.278894 228.089438 
L 366.842208 227.212748 
L 364.761731 226.262912 
L 363.014184 225.251623 
L 361.576444 224.185982 
L 360.425541 223.068499 
L 359.538658 221.897094 
L 358.892272 220.665625 
L 358.469363 219.371878 
L 358.263613 218.016516 
L 358.268476 216.597351 
L 358.476727 215.109215 
L 358.88046 213.54396 
L 359.471086 211.890453 
L 361.17525 208.259256 
L 363.542465 204.08546 
L 366.635598 199.25491 
L 370.522231 193.623471 
L 378.020259 183.305421 
L 387.873332 170.219815 
L 396.001175 159.843365 
L 405.490013 148.244838 
L 410.759188 142.057648 
L 422.346475 128.981071 
L 428.653983 122.095229 
L 435.303275 115.033128 
L 442.292605 108.024036 
L 449.54147 101.347339 
L 456.948487 95.153002 
L 464.430248 89.592821 
L 471.915099 84.862211 
L 479.252939 81.332989 
L 486.272577 79.038969 
L 492.852506 78.199378 
L 498.773678 79.369523 
L 503.843315 82.331249 
L 507.899717 87.355549 
L 510.735212 94.546337 
L 512.208257 103.399559 
L 512.239182 113.719832 
L 510.786407 125.373923 
L 507.828374 138.087124 
L 503.370221 151.434447 
L 497.515296 164.8695 
L 490.436046 177.913048 
L 482.327921 190.165338 
L 473.408739 201.304578 
L 463.918691 211.086937 
L 454.113875 219.397787 
L 444.216674 226.346437 
L 434.410996 232.025969 
L 424.852131 236.541504 
L 415.666712 240.014419 
L 406.952893 242.582304 
L 398.786914 244.392552 
L 391.200413 245.584472 
L 384.203697 246.282317 
L 377.798456 246.594326 
L 371.977761 246.612722 
L 366.726061 246.413714 
L 362.019188 246.057496 
L 357.818243 245.593365 
L 350.775617 244.507064 
L 345.310134 243.406047 
L 336.592436 241.314791 
L 333.565587 240.678773 
L 332.086988 240.51373 
L 330.893894 240.546248 
L 329.887202 240.769132 
L 328.977886 241.175328 
L 328.104852 241.772416 
L 326.737664 243.054782 
L 325.152568 244.874857 
L 321.570815 249.485629 
L 316.004516 257.060673 
L 284.331886 300.773078 
L 274.631678 313.686781 
L 263.06754 328.717025 
L 256.532777 336.981303 
L 249.481766 345.667623 
L 241.91254 354.684414 
L 233.830231 363.913287 
L 225.250176 373.180786 
L 216.237715 382.275235 
L 206.88853 391.017729 
L 197.302266 399.205234 
L 187.582327 406.609466 
L 177.853296 412.95008 
L 168.355291 417.570378 
L 159.289435 419.742313 
L 150.922178 418.955107 
L 143.609924 414.910444 
L 137.798391 407.521455 
L 133.844287 396.841516 
L 131.904892 383.36231 
L 132.10802 367.673871 
L 134.5237 350.264746 
L 139.164173 331.521993 
L 145.975636 312.06744 
L 154.727894 293.343729 
L 165.075207 276.0125 
L 176.65748 260.497836 
L 189.102315 247.040101 
L 202.032105 235.704065 
L 215.117218 226.444745 
L 228.068967 219.129569 
L 240.649913 213.566609 
L 252.676668 209.508258 
L 264.019899 206.651226 
L 274.598481 204.718204 
L 284.375669 203.539052 
L 293.344209 202.928821 
L 301.513346 202.729094 
L 308.908803 202.808211 
L 315.57292 203.061086 
L 326.943338 203.77375 
L 339.914443 204.623308 
L 343.37341 204.704891 
L 346.499735 204.645058 
L 349.355836 204.429185 
L 351.988018 204.046468 
L 354.433518 203.485807 
L 356.731407 202.738141 
L 358.920441 201.796809 
L 361.039066 200.657558 
L 363.125414 199.318538 
L 363.125414 199.318538 
" clip-path="url(#pd090de854c)" style="fill: none; stroke: #000000; stroke-opacity: 0.3; stroke-width: 7; stroke-linecap: round"/>
   </g>
   <g id="line2d_30">
    <path d="M 454.025803 149.852897 
L 454.427278 144.009987 
L 455.548595 138.533665 
L 457.269868 133.458131 
L 459.477866 128.843754 
L 462.059851 124.754989 
L 464.905539 121.270246 
L 467.90256 118.47859 
L 470.93828 116.467824 
L 473.897356 115.333399 
L 476.66519 115.148284 
L 479.129761 115.971416 
L 481.177186 117.855484 
L 482.706547 120.800749 
L 483.629718 124.772687 
L 483.865408 129.717183 
L 483.353277 135.529784 
L 482.065365 142.062875 
L 479.982707 149.159588 
L 477.117556 156.633433 
L 473.510359 164.29593 
L 469.213252 171.95268 
L 464.3078 179.4361 
L 458.885337 186.597782 
L 453.045093 193.30764 
L 446.893944 199.478328 
L 440.538538 205.04464 
L 434.080864 209.976445 
L 427.616977 214.264517 
L 421.232381 217.92328 
L 415.002386 220.981636 
L 408.989848 223.480756 
L 403.245803 225.468709 
L 397.810629 226.997396 
L 392.711605 228.119224 
L 387.969138 228.885523 
L 383.593381 229.344327 
L 379.587831 229.539731 
L 375.950153 229.51132 
L 372.673036 229.293385 
L 369.745848 228.915775 
L 367.155073 228.402727 
L 364.885725 227.774856 
L 362.921691 227.047414 
L 361.24655 226.232819 
L 359.844259 225.338741 
L 358.698982 224.370965 
L 357.796442 223.330995 
L 357.123436 222.218278 
L 356.667717 221.030448 
L 356.419728 219.761658 
L 356.371088 218.404804 
L 356.514522 216.951488 
L 356.846671 215.389677 
L 357.364929 213.706666 
L 358.067836 211.888771 
L 360.039914 207.777828 
L 362.80219 202.903142 
L 366.432726 197.077034 
L 371.044449 190.081302 
L 380.152283 176.835447 
L 392.511603 159.457742 
L 402.966379 145.167052 
L 415.489939 128.578095 
L 422.590968 119.475278 
L 430.273485 109.911893 
L 438.533154 100.012728 
L 447.355161 89.936405 
L 456.687815 79.936352 
L 466.458312 70.317122 
L 476.543501 61.487922 
L 486.777724 53.929569 
L 496.939472 48.197303 
L 506.75113 44.887551 
L 515.880049 44.588565 
L 523.952218 47.819065 
L 530.568542 54.931543 
L 535.331794 66.072455 
L 537.89258 81.051349 
L 537.963722 99.408119 
L 535.39075 120.346615 
L 530.132167 142.891536 
L 522.306698 165.963597 
L 512.154838 188.523477 
L 500.027894 209.688543 
L 486.346556 228.802816 
L 471.562177 245.467551 
L 456.120019 259.525897 
L 440.430183 271.019454 
L 424.84746 280.131972 
L 409.665561 287.132542 
L 395.103923 292.329413 
L 381.329784 296.036552 
L 368.442114 298.542462 
L 356.504968 300.113235 
L 345.534163 300.967541 
L 335.524027 301.297608 
L 326.441357 301.252293 
L 318.241254 300.958041 
L 310.86618 300.510105 
L 298.337333 299.447144 
L 284.104396 298.13309 
L 276.918757 297.762284 
L 273.846136 297.770823 
L 271.054053 297.91724 
L 268.495058 298.205974 
L 266.129356 298.637232 
L 263.920724 299.209588 
L 261.834669 299.920927 
L 259.839847 300.767957 
L 257.911868 301.744809 
L 256.027762 302.844989 
L 252.307044 305.387653 
L 248.555798 308.320474 
L 234.363685 320.06873 
L 230.054374 323.209735 
L 225.774831 325.889715 
L 223.689015 326.984368 
L 221.667932 327.877704 
L 219.733171 328.543413 
L 217.909013 328.95189 
L 216.221855 329.078307 
L 214.696841 328.909121 
L 213.359115 328.430794 
L 212.233002 327.63228 
L 211.343665 326.508144 
L 210.710053 325.067901 
L 210.349153 323.324872 
L 210.275142 321.297193 
L 210.499242 319.010673 
L 211.022375 316.502013 
L 211.84417 313.808385 
L 212.961094 310.972214 
L 214.358936 308.039602 
L 216.020224 305.056828 
L 217.924734 302.067973 
L 220.048506 299.123375 
L 222.36038 296.259252 
L 224.828969 293.511286 
L 227.423242 290.912336 
L 230.107723 288.494793 
L 232.848597 286.277451 
L 235.613722 284.273287 
L 238.371134 282.495101 
L 241.090582 280.951257 
L 243.741578 279.646113 
L 246.301688 278.576381 
L 248.748479 277.738771 
L 251.061127 277.129606 
L 253.219914 276.74224 
L 255.211942 276.568823 
L 257.025998 276.601518 
L 258.651207 276.83273 
L 260.078417 277.254577 
L 261.300944 277.859272 
L 262.315271 278.64162 
L 263.117882 279.596425 
L 263.705421 280.718815 
L 264.075757 282.004538 
L 264.227895 283.450918 
L 264.161275 285.05666 
L 263.875339 286.820471 
L 263.369697 288.740708 
L 262.64391 290.817725 
L 261.697847 293.051054 
L 260.531726 295.438972 
L 259.145764 297.979761 
L 257.54109 300.669561 
L 253.67401 306.49025 
L 248.948877 312.830325 
L 243.400267 319.578111 
L 240.335315 323.05057 
L 237.094383 326.543486 
L 233.693757 330.018471 
L 230.149603 333.433782 
L 226.491011 336.72946 
L 222.750314 339.841457 
L 218.96307 342.703743 
L 215.168467 345.24001 
L 211.420672 347.368978 
L 207.775683 349.00919 
L 204.292182 350.082067 
L 201.03739 350.503778 
L 198.081243 350.218369 
L 195.493354 349.17325 
L 193.344721 347.329373 
L 191.699777 344.685145 
L 190.617438 341.256467 
L 190.149041 337.085523 
L 190.327329 332.251217 
L 191.177719 326.846293 
L 192.702862 320.991588 
L 194.889082 314.818322 
L 197.712441 308.469158 
L 201.121308 302.080675 
L 205.057789 295.783725 
L 209.453221 289.704933 
L 214.226568 283.938662 
L 219.295381 278.565414 
L 224.573182 273.652414 
L 229.977587 269.23091 
L 235.429802 265.320611 
L 240.853254 261.928535 
L 246.185212 259.038917 
L 251.368444 256.630487 
L 256.35131 254.675042 
L 261.09758 253.13689 
L 265.576177 251.979722 
L 269.760989 251.165134 
L 273.638977 250.657575 
L 277.200553 250.423033 
L 280.439705 250.429059 
L 283.357436 250.648309 
L 285.957307 251.056781 
L 288.24508 251.632896 
L 290.229283 252.361015 
L 291.919012 253.227629 
L 293.324341 254.222661 
L 294.45524 255.34064 
L 295.32157 256.57759 
L 295.932638 257.932872 
L 296.296064 259.409665 
L 296.418897 261.0121 
L 296.307195 262.746537 
L 295.963916 264.623172 
L 295.39132 266.652934 
L 294.590601 268.848132 
L 293.559192 271.224512 
L 292.293202 273.798828 
L 289.037016 279.613251 
L 284.750618 286.454 
L 279.337001 294.49762 
L 272.667557 303.916298 
L 264.596689 314.863518 
L 254.977391 327.39689 
L 249.547018 334.242576 
L 243.689099 341.432944 
L 237.402683 348.908878 
L 230.691706 356.594062 
L 223.580421 364.360802 
L 216.103563 372.057369 
L 208.317296 379.482817 
L 200.308246 386.3827 
L 192.178853 392.471282 
L 184.080119 397.405921 
L 176.183611 400.829087 
L 168.698234 402.372427 
L 161.860776 401.699938 
L 155.92725 398.522511 
L 151.157371 392.687586 
L 147.808382 384.134886 
L 146.091962 373.031051 
L 146.187627 359.661955 
L 148.187702 344.511987 
L 152.117131 328.160362 
L 157.908601 311.256191 
L 165.417747 294.443196 
L 174.427984 278.298134 
L 184.675978 263.2934 
L 195.867439 249.76207 
L 207.70131 237.89949 
L 219.887439 227.774859 
L 232.161082 219.352886 
L 244.293251 212.521631 
L 256.095419 207.120976 
L 267.417563 202.965287 
L 278.154939 199.862574 
L 288.230323 197.623795 
L 297.607038 196.079385 
L 306.265145 195.070983 
L 314.212539 194.466607 
L 321.469226 194.149678 
L 334.054147 194.007464 
L 348.816111 194.0165 
L 352.848041 193.891149 
L 356.523371 193.648879 
L 359.893867 193.265268 
L 363.007694 192.723202 
L 365.911198 192.007493 
L 368.64993 191.104687 
L 371.263753 190.005145 
L 373.791273 188.699868 
L 376.269449 187.180477 
L 378.732772 185.439443 
L 381.211313 183.470408 
L 383.734785 181.26725 
L 389.027618 176.134509 
L 394.805687 170.009096 
L 404.75075 158.933527 
L 416.581551 145.793244 
L 425.609332 136.199726 
L 430.456684 131.284756 
L 435.502074 126.388666 
L 440.718593 121.598867 
L 446.074756 117.014242 
L 451.515811 112.764548 
L 456.979494 108.987069 
L 462.394936 105.831168 
L 467.66901 103.456708 
L 472.700121 102.020351 
L 477.376172 101.681172 
L 481.57402 102.558847 
L 485.170268 104.752033 
L 488.037025 108.327343 
L 490.063724 113.262672 
L 491.148881 119.505503 
L 491.209439 126.934255 
L 490.205085 135.351452 
L 488.111111 144.535607 
L 484.947167 154.218612 
L 480.771393 164.126085 
L 475.660811 173.980686 
L 469.732436 183.54175 
L 463.116342 192.597603 
L 455.956745 200.982159 
L 448.403234 208.582175 
L 440.603131 215.331058 
L 432.695838 221.205126 
L 424.807484 226.218351 
L 417.050139 230.410476 
L 409.515967 233.843472 
L 402.282045 236.590058 
L 395.40508 238.729966 
L 388.928803 240.344421 
L 382.878312 241.511161 
L 377.270144 242.305044 
L 372.106385 242.792309 
L 367.382678 243.033827 
L 363.086355 243.081971 
L 359.199992 242.982707 
L 352.567341 242.489161 
L 347.285432 241.790582 
L 341.430787 240.685003 
L 332.514318 238.766245 
L 331.340713 238.874002 
L 330.68184 239.123862 
L 329.744641 239.786894 
L 328.731946 240.854441 
L 327.005507 243.118536 
L 323.638325 248.0535 
L 317.726976 257.138975 
L 306.966067 274.084951 
L 267.471151 336.751624 
L 249.910227 363.914787 
L 239.476696 379.651308 
L 227.826629 396.770182 
L 214.900842 415.091368 
L 200.679263 434.268184 
L 185.206834 453.718305 
L 168.623759 472.555021 
L 151.191998 489.558329 
L 133.344937 503.124701 
L 115.709155 511.351336 
L 99.116527 512.206747 
L 84.586123 503.831887 
L 73.25194 485.004614 
L 66.23481 455.57221 
L 64.481903 416.737644 
L 68.59683 371.069127 
L 78.702985 322.083935 
L 94.422073 273.529637 
L 114.93728 228.6734 
L 139.133031 189.778096 
L 165.776277 157.93975 
L 193.676377 133.234415 
L 221.797151 115.039748 
L 249.307546 102.374171 
L 275.600319 94.174373 
L 300.260933 89.472262 
L 323.029333 87.470463 
L 343.766397 87.574545 
L 362.412752 89.366588 
L 378.959663 92.566612 
L 393.429888 96.99694 
L 405.863774 102.539377 
L 416.311805 109.099286 
L 424.828277 116.589789 
L 431.483022 124.890499 
L 436.350321 133.870223 
L 439.516809 143.363583 
L 441.09157 153.176785 
L 441.192306 163.107667 
L 439.957875 172.948973 
L 437.540319 182.509523 
L 434.100548 191.60691 
L 429.806952 200.108816 
L 424.827618 207.905186 
L 419.327143 214.926847 
L 413.460816 221.141741 
L 407.371652 226.548667 
L 401.187567 231.172579 
L 395.019018 235.059161 
L 388.960062 238.267489 
L 383.085515 240.865983 
L 377.456161 242.926928 
L 372.114353 244.522794 
L 367.09143 245.724219 
L 362.404888 246.597102 
L 358.063103 247.202375 
L 354.065365 247.594647 
L 347.067491 247.928075 
L 341.295633 247.913636 
L 331.108983 247.70734 
L 328.249207 247.890084 
L 325.823488 248.340435 
L 324.724813 248.682651 
L 324.724813 248.682651 
" clip-path="url(#pd090de854c)" style="fill: none; stroke-dasharray: 22.4,5.6,3.5,5.6; stroke-dashoffset: 0; stroke: #0000ff; stroke-opacity: 0.8; stroke-width: 3.5"/>
   </g>
   <g id="patch_3">
    <path d="M 40.807813 535.587656 
L 40.807813 21.207656 
" style="fill: none; stroke: #cccccc; stroke-linejoin: miter; stroke-linecap: square"/>
   </g>
   <g id="patch_4">
    <path d="M 561.637812 535.587656 
L 561.637812 21.207656 
" style="fill: none; stroke: #cccccc; stroke-linejoin: miter; stroke-linecap: square"/>
   </g>
   <g id="patch_5">
    <path d="M 40.807812 535.587656 
L 561.637812 535.587656 
" style="fill: none; stroke: #cccccc; stroke-linejoin: miter; stroke-linecap: square"/>
   </g>
   <g id="patch_6">
    <path d="M 40.807812 21.207656 
L 561.637812 21.207656 
" style="fill: none; stroke: #cccccc; stroke-linejoin: miter; stroke-linecap: square"/>
   </g>
   <g id="line2d_31">
    <path d="M 454.025803 149.852897 
L 454.484619 144.168743 
L 455.610112 138.946554 
L 457.273381 134.198859 
L 459.365788 129.951994 
L 461.781069 126.236253 
L 464.419066 123.096389 
L 467.179529 120.591139 
L 469.962525 118.779236 
L 472.666727 117.72464 
L 475.195909 117.470573 
L 477.456726 118.051817 
L 479.355843 119.495463 
L 480.81735 121.784228 
L 481.77281 124.886896 
L 482.160146 128.750287 
L 481.951629 133.275789 
L 481.130766 138.354224 
L 479.69448 143.863701 
L 477.65744 149.677221 
L 475.038517 155.669663 
L 471.866137 161.718935 
L 468.184112 167.705662 
L 464.05479 173.513241 
L 459.55778 179.03276 
L 454.781882 184.171657 
L 449.816964 188.854036 
L 444.743828 193.033677 
L 439.635114 196.68427 
L 434.557112 199.797006 
L 429.567717 202.38753 
L 424.722354 204.479326 
L 420.070022 206.109396 
L 415.65251 207.318982 
L 411.509828 208.153306 
L 407.665211 208.652788 
L 404.137336 208.855591 
L 400.939916 208.797358 
L 398.07621 208.507356 
L 395.54438 208.010191 
L 393.340175 207.328627 
L 391.454769 206.479784 
L 389.87803 205.477438 
L 388.598717 204.334166 
L 387.605075 203.057335 
L 386.885691 201.651813 
L 386.429515 200.121451 
L 386.22567 198.467877 
L 386.265658 196.689672 
L 386.541894 194.784758 
L 387.045952 192.750985 
L 387.773087 190.583653 
L 388.721416 188.27638 
L 389.889057 185.822785 
L 391.275452 183.216644 
L 394.713785 177.510281 
L 399.073018 171.103432 
L 404.394573 163.969777 
L 410.69586 156.171156 
L 414.204349 152.074016 
L 417.938933 147.886312 
L 421.885801 143.646873 
L 426.028857 139.397919 
L 430.351555 135.18222 
L 434.83183 131.049231 
L 439.444377 127.052319 
L 444.157971 123.252419 
L 448.927263 119.729475 
L 453.701424 116.571131 
L 458.416791 113.883206 
L 463.000682 111.777249 
L 467.375731 110.365796 
L 471.459324 109.74379 
L 475.167424 109.996368 
L 478.413864 111.18621 
L 481.117751 113.333112 
L 483.199905 116.448213 
L 484.588555 120.496798 
L 485.235454 125.393661 
L 485.10653 131.028922 
L 484.203046 137.255119 
L 482.540715 143.915459 
L 480.14777 150.850918 
L 477.05827 157.910749 
L 473.314752 164.94826 
L 468.984724 171.821425 
L 464.159474 178.393084 
L 458.949939 184.54266 
L 453.46852 190.174852 
L 447.817245 195.224804 
L 442.083624 199.657264 
L 436.34439 203.459283 
L 430.6692 206.641645 
L 425.123826 209.231717 
L 419.770794 211.27152 
L 414.663848 212.814105 
L 409.853423 213.917407 
L 405.371538 214.635889 
L 401.242835 215.020358 
L 397.482873 215.116735 
L 394.094285 214.961422 
L 391.075395 214.586858 
L 388.418303 214.019305 
L 386.111952 213.280072 
L 384.143333 212.388078 
L 382.498155 211.355539 
L 381.162159 210.193036 
L 380.120802 208.908483 
L 379.360842 207.505267 
L 378.869778 205.985522 
L 378.634877 204.350626 
L 378.646255 202.59859 
L 378.894942 200.726506 
L 379.372869 198.730746 
L 380.07158 196.607767 
L 380.987224 194.350581 
L 382.117128 191.951326 
L 383.459469 189.401877 
L 386.781601 183.81217 
L 390.989479 177.489714 
L 396.146854 170.336764 
L 402.324791 162.314046 
L 409.563736 153.476035 
L 413.574889 148.813323 
L 417.834809 144.039836 
L 422.333054 139.197257 
L 427.059262 134.330842 
L 431.99669 129.494461 
L 437.125009 124.746398 
L 442.42244 120.145977 
L 447.838942 115.788554 
L 453.316538 111.779515 
L 458.786304 108.240946 
L 464.162691 105.319432 
L 469.354781 103.167199 
L 474.265136 101.925229 
L 478.793636 101.716565 
L 482.837444 102.628897 
L 486.292546 104.726768 
L 489.053365 108.037139 
L 491.023503 112.525347 
L 492.112386 118.125089 
L 492.265014 124.69442 
L 491.457759 132.054674 
L 489.710543 139.990484 
L 487.064006 148.281605 
L 483.559581 156.713364 
L 479.259598 165.09999 
L 474.237725 173.257417 
L 468.618085 181.010765 
L 462.548525 188.214854 
L 456.174234 194.759959 
L 449.612581 200.588722 
L 442.963565 205.667642 
L 436.310042 209.996965 
L 429.732289 213.590057 
L 423.309055 216.486945 
L 417.116855 218.743199 
L 411.223753 220.430301 
L 405.685857 221.625026 
L 400.54189 222.401188 
L 395.815589 222.824989 
L 391.515295 222.951459 
L 387.639018 222.826362 
L 384.176896 222.487 
L 381.114164 221.96403 
L 378.433399 221.282202 
L 376.115945 220.462273 
L 374.14303 219.519039 
L 372.496078 218.464814 
L 371.15775 217.306905 
L 370.111715 216.050225 
L 369.342401 214.697571 
L 368.836745 213.248188 
L 368.582258 211.70066 
L 368.567119 210.052632 
L 368.782411 208.298903 
L 369.219805 206.433717 
L 369.871739 204.45065 
L 370.732204 202.341966 
L 371.797734 200.097957 
L 374.533345 195.162854 
L 378.077079 189.549063 
L 382.469277 183.134108 
L 387.789098 175.772893 
L 394.158775 167.329403 
L 401.694357 157.734678 
L 410.449503 147.090304 
L 415.280867 141.457242 
L 420.411578 135.674686 
L 425.841332 129.790895 
L 431.569878 123.85906 
L 437.580794 117.956493 
L 443.849225 112.173547 
L 450.308449 106.649292 
L 456.874352 101.541546 
L 463.448199 97.027307 
L 469.920848 93.305186 
L 476.180508 90.58399 
L 482.108885 89.065982 
L 487.579471 88.922615 
L 492.457845 90.282941 
L 496.604085 93.230882 
L 499.875815 97.804649 
L 502.135321 103.953135 
L 503.254196 111.563269 
L 503.134526 120.436355 
L 501.742785 130.289176 
L 499.117428 140.772108 
L 495.335625 151.535196 
L 490.468063 162.270251 
L 484.604288 172.708506 
L 477.90482 182.594573 
L 470.583915 191.714648 
L 462.850451 199.933416 
L 454.865885 207.193972 
L 446.754342 213.482368 
L 438.620951 218.80835 
L 430.569041 223.199221 
L 422.703776 226.70602 
L 415.128163 229.408337 
L 407.933406 231.408155 
L 401.191124 232.81784 
L 394.944711 233.744184 
L 389.213953 234.280326 
L 383.997753 234.501938 
L 379.281253 234.469187 
L 375.041733 234.23051 
L 371.252716 233.825807 
L 367.886424 233.288359 
L 364.91512 232.645866 
L 362.311922 231.920421 
L 360.050964 231.129643 
L 358.107805 230.286401 
L 356.459356 229.399933 
L 355.084212 228.475979 
L 353.96238 227.51781 
L 353.075984 226.525742 
L 352.408071 225.49885 
L 351.944744 224.43306 
L 351.673185 223.323325 
L 351.58226 222.16312 
L 351.663856 220.943789 
L 351.910967 219.656017 
L 352.317917 218.289626 
L 353.603316 215.273384 
L 355.513093 211.796351 
L 358.065477 207.750745 
L 361.292594 203.024941 
L 367.514828 194.390874 
L 378.844689 179.191771 
L 390.302701 164.122926 
L 399.705848 152.025505 
L 410.628668 138.415354 
L 416.685125 131.133732 
L 423.170389 123.583149 
L 430.109167 115.812452 
L 437.498531 107.910291 
L 445.293844 100.018999 
L 453.396711 92.356055 
L 461.692211 85.172514 
L 470.062015 78.744138 
L 478.391581 73.346186 
L 486.550533 69.283936 
L 494.383482 66.901762 
L 501.686277 66.523824 
L 508.224896 68.415538 
L 513.747468 72.746706 
L 518.009775 79.591301 
L 520.815039 88.841453 
L 522.000333 100.268841 
L 521.41227 113.525879 
L 518.969028 128.11761 
L 514.743129 143.420187 
L 508.880475 158.825695 
L 501.483343 173.836732 
L 492.763795 187.980745 
L 483.06157 200.85033 
L 472.690328 212.245596 
L 461.901253 222.112052 
L 450.924946 230.446703 
L 439.969624 237.283033 
L 429.209695 242.709271 
L 418.79667 246.868327 
L 408.867934 249.939642 
L 399.538689 252.116901 
L 390.879652 253.582262 
L 382.91976 254.495016 
L 375.648829 254.984145 
L 369.034796 255.150642 
L 363.037293 255.076974 
L 357.614085 254.83147 
L 348.327759 254.052844 
L 330.125944 252.141131 
L 326.260384 252.181552 
L 324.583644 252.366539 
L 323.037465 252.665336 
L 321.595217 253.079887 
L 320.231951 253.612095 
L 318.924468 254.263903 
L 317.652321 255.038316 
L 315.135693 256.969189 
L 312.538401 259.445953 
L 309.727475 262.527144 
L 306.569894 266.299795 
L 300.875018 273.504634 
L 276.264573 305.280152 
L 267.15266 316.664081 
L 256.511243 329.581362 
L 244.206348 344.016858 
L 237.463451 351.668966 
L 230.372574 359.458792 
L 222.959427 367.242497 
L 215.23711 374.860657 
L 207.225226 382.134399 
L 198.983658 388.834407 
L 190.623676 394.682156 
L 182.311806 399.357996 
L 174.251711 402.528392 
L 166.666978 403.861689 
L 159.787921 403.080564 
L 153.842606 399.971358 
L 149.057891 394.409675 
L 145.659197 386.393522 
L 143.848389 376.083695 
L 143.748288 363.789225 
L 145.382572 349.967242 
L 148.753654 335.153072 
L 153.862137 319.868508 
L 160.517337 304.701226 
L 168.464521 290.206934 
L 177.503498 276.765225 
L 187.436881 264.626129 
L 197.992625 253.989585 
L 208.883507 244.955989 
L 219.851234 237.492742 
L 230.668213 231.476914 
L 241.150415 226.747967 
L 251.171858 223.136171 
L 260.660361 220.475238 
L 269.575897 218.610861 
L 277.890841 217.402537 
L 285.579446 216.718478 
L 292.627208 216.437919 
L 299.030231 216.448072 
L 304.802076 216.649409 
L 314.592554 217.334012 
L 331.112776 218.805423 
L 335.549981 218.885917 
L 337.467585 218.776842 
L 339.229705 218.560578 
L 340.867056 218.232615 
L 342.40695 217.788963 
L 343.875511 217.225681 
L 345.29617 216.538371 
L 346.690706 215.72199 
L 349.483513 213.679591 
L 352.403146 211.0427 
L 355.585933 207.745057 
L 359.155344 203.707188 
L 365.484512 196.069585 
L 373.337541 186.186138 
L 400.731934 151.21291 
L 411.644804 137.814318 
L 417.677256 130.665689 
L 424.125599 123.266128 
L 431.008249 115.671801 
L 438.324107 107.967415 
L 446.017455 100.310547 
L 453.996163 92.908535 
L 462.142491 86.016463 
L 470.337606 79.898375 
L 478.464553 74.823621 
L 486.396613 71.086302 
L 493.975903 69.012707 
L 501.008426 68.90559 
L 507.268916 70.997373 
L 512.519799 75.446139 
L 516.536459 82.296232 
L 519.130999 91.438985 
L 520.142886 102.651205 
L 519.429587 115.585189 
L 516.9143 129.765948 
L 512.693446 144.585911 
L 506.893768 159.468822 
L 499.628409 173.95376 
L 491.096298 187.593684 
L 481.631637 200.011413 
L 471.537296 211.016603 
L 461.052339 220.55863 
L 450.390526 228.637462 
L 439.742853 235.288963 
L 429.277254 240.590676 
L 419.14167 244.671891 
L 409.470984 247.698249 
L 400.376341 249.851307 
L 391.931196 251.307226 
L 384.164375 252.219821 
L 377.06893 252.714325 
L 370.615851 252.889457 
L 364.766305 252.824658 
L 359.479266 252.584807 
L 350.43243 251.79962 
L 340.105937 250.478155 
L 332.774931 249.609459 
L 329.079746 249.456039 
L 326.044914 249.693131 
L 324.706802 249.963716 
L 323.456497 250.337556 
L 322.271941 250.815953 
L 320.023329 252.094569 
L 317.819853 253.821681 
L 315.53816 256.033744 
L 313.064442 258.782143 
L 310.286244 262.141435 
L 310.286244 262.141435 
" clip-path="url(#pd090de854c)" style="fill: none; stroke-dasharray: 3.5,5.775; stroke-dashoffset: 0; stroke: #008000; stroke-opacity: 0.8; stroke-width: 3.5"/>
   </g>
   <g id="text_17">
    <!-- Phase Portrait (x0 vs x1) -->
    <g style="fill: #262626" transform="translate(241.010703 15.207656) scale(0.11 -0.11)">
     <defs>
      <path id="ArialMT-50" d="M 494 0 
L 494 4581 
L 2222 4581 
Q 2678 4581 2919 4538 
Q 3256 4481 3484 4323 
Q 3713 4166 3852 3881 
Q 3991 3597 3991 3256 
Q 3991 2672 3619 2267 
Q 3247 1863 2275 1863 
L 1100 1863 
L 1100 0 
L 494 0 
z
M 1100 2403 
L 2284 2403 
Q 2872 2403 3119 2622 
Q 3366 2841 3366 3238 
Q 3366 3525 3220 3729 
Q 3075 3934 2838 4000 
Q 2684 4041 2272 4041 
L 1100 4041 
L 1100 2403 
z
" transform="scale(0.015625)"/>
      <path id="ArialMT-68" d="M 422 0 
L 422 4581 
L 984 4581 
L 984 2938 
Q 1378 3394 1978 3394 
Q 2347 3394 2619 3248 
Q 2891 3103 3008 2847 
Q 3125 2591 3125 2103 
L 3125 0 
L 2563 0 
L 2563 2103 
Q 2563 2525 2380 2717 
Q 2197 2909 1863 2909 
Q 1613 2909 1392 2779 
Q 1172 2650 1078 2428 
Q 984 2206 984 1816 
L 984 0 
L 422 0 
z
" transform="scale(0.015625)"/>
      <path id="ArialMT-61" d="M 2588 409 
Q 2275 144 1986 34 
Q 1697 -75 1366 -75 
Q 819 -75 525 192 
Q 231 459 231 875 
Q 231 1119 342 1320 
Q 453 1522 633 1644 
Q 813 1766 1038 1828 
Q 1203 1872 1538 1913 
Q 2219 1994 2541 2106 
Q 2544 2222 2544 2253 
Q 2544 2597 2384 2738 
Q 2169 2928 1744 2928 
Q 1347 2928 1158 2789 
Q 969 2650 878 2297 
L 328 2372 
Q 403 2725 575 2942 
Q 747 3159 1072 3276 
Q 1397 3394 1825 3394 
Q 2250 3394 2515 3294 
Q 2781 3194 2906 3042 
Q 3031 2891 3081 2659 
Q 3109 2516 3109 2141 
L 3109 1391 
Q 3109 606 3145 398 
Q 3181 191 3288 0 
L 2700 0 
Q 2613 175 2588 409 
z
M 2541 1666 
Q 2234 1541 1622 1453 
Q 1275 1403 1131 1340 
Q 988 1278 909 1158 
Q 831 1038 831 891 
Q 831 666 1001 516 
Q 1172 366 1500 366 
Q 1825 366 2078 508 
Q 2331 650 2450 897 
Q 2541 1088 2541 1459 
L 2541 1666 
z
" transform="scale(0.015625)"/>
      <path id="ArialMT-73" d="M 197 991 
L 753 1078 
Q 800 744 1014 566 
Q 1228 388 1613 388 
Q 2000 388 2187 545 
Q 2375 703 2375 916 
Q 2375 1106 2209 1216 
Q 2094 1291 1634 1406 
Q 1016 1563 777 1677 
Q 538 1791 414 1992 
Q 291 2194 291 2438 
Q 291 2659 392 2848 
Q 494 3038 669 3163 
Q 800 3259 1026 3326 
Q 1253 3394 1513 3394 
Q 1903 3394 2198 3281 
Q 2494 3169 2634 2976 
Q 2775 2784 2828 2463 
L 2278 2388 
Q 2241 2644 2061 2787 
Q 1881 2931 1553 2931 
Q 1166 2931 1000 2803 
Q 834 2675 834 2503 
Q 834 2394 903 2306 
Q 972 2216 1119 2156 
Q 1203 2125 1616 2013 
Q 2213 1853 2448 1751 
Q 2684 1650 2818 1456 
Q 2953 1263 2953 975 
Q 2953 694 2789 445 
Q 2625 197 2315 61 
Q 2006 -75 1616 -75 
Q 969 -75 630 194 
Q 291 463 197 991 
z
" transform="scale(0.015625)"/>
      <path id="ArialMT-65" d="M 2694 1069 
L 3275 997 
Q 3138 488 2766 206 
Q 2394 -75 1816 -75 
Q 1088 -75 661 373 
Q 234 822 234 1631 
Q 234 2469 665 2931 
Q 1097 3394 1784 3394 
Q 2450 3394 2872 2941 
Q 3294 2488 3294 1666 
Q 3294 1616 3291 1516 
L 816 1516 
Q 847 969 1125 678 
Q 1403 388 1819 388 
Q 2128 388 2347 550 
Q 2566 713 2694 1069 
z
M 847 1978 
L 2700 1978 
Q 2663 2397 2488 2606 
Q 2219 2931 1791 2931 
Q 1403 2931 1139 2672 
Q 875 2413 847 1978 
z
" transform="scale(0.015625)"/>
      <path id="ArialMT-20" transform="scale(0.015625)"/>
      <path id="ArialMT-6f" d="M 213 1659 
Q 213 2581 725 3025 
Q 1153 3394 1769 3394 
Q 2453 3394 2887 2945 
Q 3322 2497 3322 1706 
Q 3322 1066 3130 698 
Q 2938 331 2570 128 
Q 2203 -75 1769 -75 
Q 1072 -75 642 372 
Q 213 819 213 1659 
z
M 791 1659 
Q 791 1022 1069 705 
Q 1347 388 1769 388 
Q 2188 388 2466 706 
Q 2744 1025 2744 1678 
Q 2744 2294 2464 2611 
Q 2184 2928 1769 2928 
Q 1347 2928 1069 2612 
Q 791 2297 791 1659 
z
" transform="scale(0.015625)"/>
      <path id="ArialMT-72" d="M 416 0 
L 416 3319 
L 922 3319 
L 922 2816 
Q 1116 3169 1280 3281 
Q 1444 3394 1641 3394 
Q 1925 3394 2219 3213 
L 2025 2691 
Q 1819 2813 1613 2813 
Q 1428 2813 1281 2702 
Q 1134 2591 1072 2394 
Q 978 2094 978 1738 
L 978 0 
L 416 0 
z
" transform="scale(0.015625)"/>
      <path id="ArialMT-74" d="M 1650 503 
L 1731 6 
Q 1494 -44 1306 -44 
Q 1000 -44 831 53 
Q 663 150 594 308 
Q 525 466 525 972 
L 525 2881 
L 113 2881 
L 113 3319 
L 525 3319 
L 525 4141 
L 1084 4478 
L 1084 3319 
L 1650 3319 
L 1650 2881 
L 1084 2881 
L 1084 941 
Q 1084 700 1114 631 
Q 1144 563 1211 522 
Q 1278 481 1403 481 
Q 1497 481 1650 503 
z
" transform="scale(0.015625)"/>
      <path id="ArialMT-69" d="M 425 3934 
L 425 4581 
L 988 4581 
L 988 3934 
L 425 3934 
z
M 425 0 
L 425 3319 
L 988 3319 
L 988 0 
L 425 0 
z
" transform="scale(0.015625)"/>
      <path id="ArialMT-28" d="M 1497 -1347 
Q 1031 -759 709 28 
Q 388 816 388 1659 
Q 388 2403 628 3084 
Q 909 3875 1497 4659 
L 1900 4659 
Q 1522 4009 1400 3731 
Q 1209 3300 1100 2831 
Q 966 2247 966 1656 
Q 966 153 1900 -1347 
L 1497 -1347 
z
" transform="scale(0.015625)"/>
      <path id="ArialMT-76" d="M 1344 0 
L 81 3319 
L 675 3319 
L 1388 1331 
Q 1503 1009 1600 663 
Q 1675 925 1809 1294 
L 2547 3319 
L 3125 3319 
L 1869 0 
L 1344 0 
z
" transform="scale(0.015625)"/>
      <path id="ArialMT-29" d="M 791 -1347 
L 388 -1347 
Q 1322 153 1322 1656 
Q 1322 2244 1188 2822 
Q 1081 3291 891 3722 
Q 769 4003 388 4659 
L 791 4659 
Q 1378 3875 1659 3084 
Q 1900 2403 1900 1659 
Q 1900 816 1576 28 
Q 1253 -759 791 -1347 
z
" transform="scale(0.015625)"/>
     </defs>
     <use xlink:href="#ArialMT-50"/>
     <use xlink:href="#ArialMT-68" transform="translate(66.699219 0)"/>
     <use xlink:href="#ArialMT-61" transform="translate(122.314453 0)"/>
     <use xlink:href="#ArialMT-73" transform="translate(177.929688 0)"/>
     <use xlink:href="#ArialMT-65" transform="translate(227.929688 0)"/>
     <use xlink:href="#ArialMT-20" transform="translate(283.544922 0)"/>
     <use xlink:href="#ArialMT-50" transform="translate(311.328125 0)"/>
     <use xlink:href="#ArialMT-6f" transform="translate(378.027344 0)"/>
     <use xlink:href="#ArialMT-72" transform="translate(433.642578 0)"/>
     <use xlink:href="#ArialMT-74" transform="translate(466.943359 0)"/>
     <use xlink:href="#ArialMT-72" transform="translate(494.726562 0)"/>
     <use xlink:href="#ArialMT-61" transform="translate(528.027344 0)"/>
     <use xlink:href="#ArialMT-69" transform="translate(583.642578 0)"/>
     <use xlink:href="#ArialMT-74" transform="translate(605.859375 0)"/>
     <use xlink:href="#ArialMT-20" transform="translate(633.642578 0)"/>
     <use xlink:href="#ArialMT-28" transform="translate(661.425781 0)"/>
     <use xlink:href="#ArialMT-78" transform="translate(694.726562 0)"/>
     <use xlink:href="#ArialMT-30" transform="translate(744.726562 0)"/>
     <use xlink:href="#ArialMT-20" transform="translate(800.341797 0)"/>
     <use xlink:href="#ArialMT-76" transform="translate(828.125 0)"/>
     <use xlink:href="#ArialMT-73" transform="translate(878.125 0)"/>
     <use xlink:href="#ArialMT-20" transform="translate(928.125 0)"/>
     <use xlink:href="#ArialMT-78" transform="translate(955.908203 0)"/>
     <use xlink:href="#ArialMT-31" transform="translate(1005.908203 0)"/>
     <use xlink:href="#ArialMT-29" transform="translate(1061.523438 0)"/>
    </g>
   </g>
   <g id="line2d_32">
    <path d="M 454.025803 149.852897 
L 454.415972 144.187919 
L 455.498651 138.958996 
L 457.147145 134.182146 
L 459.24787 129.893895 
L 461.688942 126.133566 
L 464.363486 122.950786 
L 467.169201 120.403587 
L 470.004683 118.550005 
L 472.769284 117.450079 
L 475.366299 117.151101 
L 477.701886 117.690211 
L 479.684719 119.091836 
L 481.235712 121.345744 
L 482.281598 124.427671 
L 482.761542 128.283704 
L 482.634388 132.828883 
L 481.866484 137.96505 
L 480.451778 143.564763 
L 478.398614 149.491703 
L 475.728989 155.59667 
L 472.492341 161.738054 
L 468.744548 167.781003 
L 464.554743 173.601199 
L 460.002419 179.109293 
L 455.168153 184.225887 
L 450.136423 188.890303 
L 444.987534 193.069975 
L 439.799603 196.739605 
L 434.647159 199.889954 
L 429.592934 202.533244 
L 424.69582 204.686534 
L 420.006028 206.379306 
L 415.560348 207.64897 
L 411.391375 208.533861 
L 407.522729 209.074862 
L 403.967057 209.308764 
L 400.734904 209.270916 
L 397.830467 208.993548 
L 395.251748 208.501287 
L 392.995801 207.817236 
L 391.056649 206.960524 
L 389.426179 205.944437 
L 388.096012 204.780381 
L 387.056662 203.477686 
L 386.299174 202.040188 
L 385.814827 200.470998 
L 385.594881 198.771901 
L 385.631999 196.941472 
L 385.920048 194.976595 
L 386.45369 192.873624 
L 387.227143 190.627928 
L 388.238289 188.233159 
L 389.485599 185.682743 
L 390.96758 182.970585 
L 392.683805 180.089604 
L 396.824353 173.79642 
L 401.91865 166.785187 
L 407.982244 159.062869 
L 415.003106 150.749573 
L 418.861456 146.428542 
L 422.939726 142.044496 
L 427.21998 137.646486 
L 431.682216 133.286212 
L 436.303281 129.020787 
L 441.046947 124.923973 
L 445.87382 121.072652 
L 450.741469 117.549497 
L 455.592954 114.451609 
L 460.364755 111.880524 
L 464.989096 109.938961 
L 469.388112 108.733879 
L 473.476923 108.356314 
L 477.169757 108.888623 
L 480.375483 110.394843 
L 483.010867 112.889185 
L 484.996745 116.370422 
L 486.260401 120.797898 
L 486.756509 126.074685 
L 486.448016 132.09134 
L 485.316297 138.703707 
L 483.379901 145.737132 
L 480.665765 153.014262 
L 477.225798 160.34362 
L 473.137815 167.557699 
L 468.486193 174.501112 
L 463.370127 181.04793 
L 457.892878 187.111071 
L 452.158762 192.615369 
L 446.27029 197.517074 
L 440.322692 201.795729 
L 434.408936 205.441083 
L 428.607224 208.472602 
L 422.986188 210.922232 
L 417.607745 212.831998 
L 412.51409 214.255235 
L 407.740079 215.245766 
L 403.312784 215.859559 
L 399.243262 216.144128 
L 395.539361 216.14434 
L 392.202896 215.899926 
L 389.22884 215.442083 
L 386.610082 214.798836 
L 384.336109 213.99113 
L 382.395212 213.035747 
L 380.774731 211.946892 
L 379.461691 210.732943 
L 378.443515 209.400099 
L 377.707301 207.953025 
L 377.242316 206.3914 
L 377.038452 204.713868 
L 377.086181 202.91794 
L 377.377914 200.998593 
L 377.908238 198.948806 
L 378.672645 196.761035 
L 379.666462 194.427151 
L 380.889439 191.93687 
L 382.342203 189.279514 
L 385.94186 183.421061 
L 390.491203 176.762431 
L 396.03394 169.235701 
L 402.618233 160.806782 
L 410.281673 151.530216 
L 414.520493 146.6246 
L 419.025115 141.585137 
L 423.786608 136.456143 
L 428.786683 131.297315 
L 434.003584 126.173501 
L 439.408205 121.161475 
L 444.958833 116.356702 
L 450.609243 111.86098 
L 456.300974 107.795077 
L 461.960679 104.295033 
L 467.50918 101.503726 
L 472.850295 99.570313 
L 477.879019 98.636379 
L 482.481946 98.838158 
L 486.540791 100.264036 
L 489.938643 102.97729 
L 492.56241 106.987969 
L 494.319398 112.234717 
L 495.124853 118.623762 
L 494.932878 125.986052 
L 493.719526 134.124833 
L 491.487394 142.810904 
L 488.283879 151.791694 
L 484.173612 160.812874 
L 479.25525 169.638186 
L 473.644772 178.064132 
L 467.472355 185.938781 
L 460.873095 193.146648 
L 453.981609 199.613044 
L 446.929649 205.28784 
L 439.837426 210.158826 
L 432.819139 214.231455 
L 425.969421 217.547431 
L 419.371386 220.163255 
L 413.090132 222.152386 
L 407.173471 223.594247 
L 401.65561 224.567341 
L 396.556377 225.144478 
L 391.884621 225.389774 
L 387.640742 225.358486 
L 383.818028 225.096397 
L 380.404949 224.64159 
L 377.38642 224.024712 
L 374.745159 223.27093 
L 372.462498 222.399183 
L 370.519154 221.425283 
L 368.896184 220.359079 
L 367.575055 219.208375 
L 366.53815 217.97738 
L 365.769714 216.666844 
L 365.254243 215.276634 
L 364.9792 213.803014 
L 364.933759 212.240526 
L 365.108208 210.582779 
L 365.494421 208.821959 
L 366.087972 206.947787 
L 366.884953 204.949675 
L 367.88253 202.81638 
L 370.484068 198.090557 
L 373.913454 192.656843 
L 378.219166 186.38918 
L 383.473273 179.15393 
L 389.769699 170.821346 
L 397.213982 161.298474 
L 405.906548 150.576648 
L 415.915687 138.792251 
L 421.414641 132.601192 
L 427.23399 126.285478 
L 433.351396 119.930288 
L 439.739108 113.629888 
L 446.358726 107.500213 
L 453.151346 101.691448 
L 460.0504 96.366966 
L 466.966478 91.723747 
L 473.791497 87.976722 
L 480.401231 85.354804 
L 486.64722 84.077179 
L 492.371157 84.354045 
L 497.402712 86.335052 
L 501.573288 90.111395 
L 504.717841 95.703781 
L 506.703005 103.005607 
L 507.41065 111.85137 
L 506.78101 121.958863 
L 504.790033 133.003453 
L 501.464204 144.618354 
L 496.881908 156.417525 
L 491.161505 168.025563 
L 484.459216 179.116623 
L 476.9548 189.444647 
L 468.838352 198.839518 
L 460.301434 207.189216 
L 451.526659 214.440715 
L 442.686711 220.578465 
L 433.932845 225.637835 
L 425.399515 229.685391 
L 417.19233 232.824383 
L 409.395741 235.173485 
L 402.06749 236.857785 
L 395.244382 237.995318 
L 388.944633 238.690192 
L 383.171871 239.030273 
L 377.918717 239.0883 
L 373.169665 238.924177 
L 368.903415 238.587445 
L 365.094541 238.118703 
L 361.715189 237.551742 
L 358.736011 236.913883 
L 356.127169 236.22684 
L 353.859038 235.507655 
L 350.231205 234.019112 
L 348.818149 233.264271 
L 347.639832 232.507096 
L 346.674197 231.748381 
L 345.901646 230.986795 
L 345.304126 230.219886 
L 344.866558 229.443506 
L 344.574969 228.652949 
L 344.417979 227.842452 
L 344.386353 227.00543 
L 344.668196 225.223592 
L 345.37868 223.244293 
L 346.500146 220.995826 
L 348.037167 218.397273 
L 351.187042 213.635479 
L 357.263524 205.071828 
L 368.953549 189.132549 
L 382.997344 170.278203 
L 397.307088 151.416587 
L 409.054674 136.395783 
L 415.656406 128.207174 
L 422.755961 119.643446 
L 430.354291 110.786026 
L 438.431531 101.767264 
L 446.957553 92.743596 
L 455.874392 83.930261 
L 465.098544 75.590031 
L 474.518113 68.04019 
L 483.985555 61.667361 
L 493.305545 56.910976 
L 502.245861 54.221983 
L 510.53691 54.036734 
L 517.88038 56.673611 
L 523.96956 62.370169 
L 528.513305 71.149039 
L 531.244497 82.889983 
L 531.969669 97.219928 
L 530.555675 113.59817 
L 526.989157 131.312115 
L 521.335062 149.602727 
L 513.774383 167.713604 
L 504.554089 184.939892 
L 493.9899 200.767207 
L 482.421045 214.836648 
L 470.191647 226.977311 
L 457.625032 237.169803 
L 445.009428 245.488987 
L 432.592095 252.063726 
L 420.575757 257.074081 
L 409.117762 260.747442 
L 398.326872 263.333671 
L 388.269232 265.066852 
L 378.97609 266.143916 
L 370.452128 266.722058 
L 362.682425 266.927618 
L 355.638256 266.867405 
L 349.280153 266.632895 
L 338.429159 265.946642 
L 329.702187 265.353569 
L 322.649165 265.159679 
L 319.615323 265.269627 
L 316.842455 265.537138 
L 314.284903 265.971391 
L 311.898385 266.580237 
L 309.643673 267.369454 
L 307.484143 268.34423 
L 305.38469 269.509506 
L 303.314328 270.870443 
L 301.244154 272.432577 
L 299.146008 274.201621 
L 294.765961 278.387487 
L 289.98835 283.485711 
L 284.641831 289.557948 
L 254.768285 324.337792 
L 244.662327 335.515634 
L 239.185768 341.350109 
L 233.438371 347.265937 
L 227.442458 353.169288 
L 221.228314 358.949094 
L 214.845795 364.462681 
L 208.352263 369.554127 
L 201.829911 374.044077 
L 195.376128 377.746088 
L 189.098574 380.4647 
L 183.128043 382.019514 
L 177.601705 382.24895 
L 172.666949 380.997951 
L 168.470111 378.193372 
L 165.152217 373.798514 
L 162.845548 367.836503 
L 161.652194 360.429382 
L 161.655399 351.751201 
L 162.888557 342.067769 
L 165.355313 331.686152 
L 169.005664 320.941388 
L 173.756346 310.159919 
L 179.486864 299.643321 
L 186.050185 289.659387 
L 193.281044 280.432562 
L 201.003072 272.122999 
L 209.040645 264.815132 
L 217.228214 258.52732 
L 225.415562 253.227291 
L 233.476695 248.847874 
L 241.303689 245.30903 
L 248.814357 242.526052 
L 255.939031 240.414681 
L 262.634251 238.893605 
L 268.864871 237.882574 
L 274.612002 237.303631 
L 279.868701 237.082704 
L 284.63797 237.15149 
L 288.931401 237.449828 
L 292.766756 237.926142 
L 296.166435 238.537888 
L 299.155878 239.251479 
L 301.76203 240.040846 
L 304.012375 240.886499 
L 305.933868 241.775161 
L 307.552614 242.697549 
L 308.892826 243.648976 
L 309.977539 244.627022 
L 310.82678 245.632865 
L 311.459178 246.669 
L 311.890925 247.739901 
L 312.135481 248.851794 
L 312.205441 250.011425 
L 312.109624 251.227431 
L 311.855361 252.509187 
L 311.448945 253.866488 
L 310.190005 256.853763 
L 308.33925 260.288241 
L 305.873441 264.284245 
L 302.744933 268.969812 
L 296.635602 277.610669 
L 288.501834 288.655273 
L 277.88892 302.609244 
L 269.189114 313.71933 
L 259.021052 326.34328 
L 247.270289 340.410331 
L 240.778843 347.906904 
L 233.884078 355.608202 
L 226.602345 363.407988 
L 218.960596 371.16654 
L 211.0207 378.675687 
L 202.854156 385.711088 
L 194.562999 391.999383 
L 186.283787 397.238067 
L 178.171558 401.11038 
L 170.41991 403.304326 
L 163.237119 403.523268 
L 156.853 401.515068 
L 151.50095 397.121514 
L 147.411152 390.276456 
L 144.78308 381.08605 
L 143.78435 369.773944 
L 144.51415 356.720738 
L 147.018146 342.402377 
L 151.253219 327.383794 
L 157.11646 312.236789 
L 164.431089 297.471105 
L 172.980309 283.545257 
L 182.508103 270.811125 
L 192.744651 259.519871 
L 203.420403 249.79007 
L 214.283628 241.628945 
L 225.110181 234.955723 
L 235.71444 229.628359 
L 245.948426 225.486332 
L 255.697605 222.371583 
L 264.882724 220.136132 
L 273.446902 218.636311 
L 281.362026 217.733114 
L 288.616212 217.290787 
L 295.221127 217.191842 
L 301.197638 217.329634 
L 306.580166 217.621334 
L 315.727504 218.414193 
L 331.272404 219.969247 
L 335.459655 220.048488 
L 337.26689 219.938911 
L 338.925455 219.724245 
L 340.4633 219.401275 
L 341.906641 218.966965 
L 343.279788 218.418329 
L 344.604402 217.75191 
L 345.901379 216.963951 
L 348.488023 215.005053 
L 351.180258 212.495458 
L 354.107267 209.373442 
L 357.393399 205.558026 
L 361.163696 200.948179 
L 361.163696 200.948179 
" clip-path="url(#pd090de854c)" style="fill: none; stroke-dasharray: 12.95,5.6; stroke-dashoffset: 0; stroke: #ff0000; stroke-opacity: 0.8; stroke-width: 3.5"/>
   </g>
   <g id="legend_1">
    <g id="line2d_33">
     <path d="M 49.807813 33.987344 
L 59.807813 33.987344 
L 69.807813 33.987344 
" style="fill: none; stroke: #000000; stroke-opacity: 0.3; stroke-width: 7; stroke-linecap: round"/>
    </g>
    <g id="text_18">
     <!-- True/Underlying model -->
     <g style="fill: #262626" transform="translate(77.807813 37.487344) scale(0.1 -0.1)">
      <defs>
       <path id="ArialMT-54" d="M 1659 0 
L 1659 4041 
L 150 4041 
L 150 4581 
L 3781 4581 
L 3781 4041 
L 2266 4041 
L 2266 0 
L 1659 0 
z
" transform="scale(0.015625)"/>
       <path id="ArialMT-75" d="M 2597 0 
L 2597 488 
Q 2209 -75 1544 -75 
Q 1250 -75 995 37 
Q 741 150 617 320 
Q 494 491 444 738 
Q 409 903 409 1263 
L 409 3319 
L 972 3319 
L 972 1478 
Q 972 1038 1006 884 
Q 1059 663 1231 536 
Q 1403 409 1656 409 
Q 1909 409 2131 539 
Q 2353 669 2445 892 
Q 2538 1116 2538 1541 
L 2538 3319 
L 3100 3319 
L 3100 0 
L 2597 0 
z
" transform="scale(0.015625)"/>
       <path id="ArialMT-2f" d="M 0 -78 
L 1328 4659 
L 1778 4659 
L 453 -78 
L 0 -78 
z
" transform="scale(0.015625)"/>
       <path id="ArialMT-55" d="M 3500 4581 
L 4106 4581 
L 4106 1934 
Q 4106 1244 3950 837 
Q 3794 431 3386 176 
Q 2978 -78 2316 -78 
Q 1672 -78 1262 144 
Q 853 366 678 786 
Q 503 1206 503 1934 
L 503 4581 
L 1109 4581 
L 1109 1938 
Q 1109 1341 1220 1058 
Q 1331 775 1601 622 
Q 1872 469 2263 469 
Q 2931 469 3215 772 
Q 3500 1075 3500 1938 
L 3500 4581 
z
" transform="scale(0.015625)"/>
       <path id="ArialMT-6e" d="M 422 0 
L 422 3319 
L 928 3319 
L 928 2847 
Q 1294 3394 1984 3394 
Q 2284 3394 2536 3286 
Q 2788 3178 2913 3003 
Q 3038 2828 3088 2588 
Q 3119 2431 3119 2041 
L 3119 0 
L 2556 0 
L 2556 2019 
Q 2556 2363 2490 2533 
Q 2425 2703 2258 2804 
Q 2091 2906 1866 2906 
Q 1506 2906 1245 2678 
Q 984 2450 984 1813 
L 984 0 
L 422 0 
z
" transform="scale(0.015625)"/>
       <path id="ArialMT-64" d="M 2575 0 
L 2575 419 
Q 2259 -75 1647 -75 
Q 1250 -75 917 144 
Q 584 363 401 755 
Q 219 1147 219 1656 
Q 219 2153 384 2558 
Q 550 2963 881 3178 
Q 1213 3394 1622 3394 
Q 1922 3394 2156 3267 
Q 2391 3141 2538 2938 
L 2538 4581 
L 3097 4581 
L 3097 0 
L 2575 0 
z
M 797 1656 
Q 797 1019 1065 703 
Q 1334 388 1700 388 
Q 2069 388 2326 689 
Q 2584 991 2584 1609 
Q 2584 2291 2321 2609 
Q 2059 2928 1675 2928 
Q 1300 2928 1048 2622 
Q 797 2316 797 1656 
z
" transform="scale(0.015625)"/>
       <path id="ArialMT-6c" d="M 409 0 
L 409 4581 
L 972 4581 
L 972 0 
L 409 0 
z
" transform="scale(0.015625)"/>
       <path id="ArialMT-79" d="M 397 -1278 
L 334 -750 
Q 519 -800 656 -800 
Q 844 -800 956 -737 
Q 1069 -675 1141 -563 
Q 1194 -478 1313 -144 
Q 1328 -97 1363 -6 
L 103 3319 
L 709 3319 
L 1400 1397 
Q 1534 1031 1641 628 
Q 1738 1016 1872 1384 
L 2581 3319 
L 3144 3319 
L 1881 -56 
Q 1678 -603 1566 -809 
Q 1416 -1088 1222 -1217 
Q 1028 -1347 759 -1347 
Q 597 -1347 397 -1278 
z
" transform="scale(0.015625)"/>
       <path id="ArialMT-67" d="M 319 -275 
L 866 -356 
Q 900 -609 1056 -725 
Q 1266 -881 1628 -881 
Q 2019 -881 2231 -725 
Q 2444 -569 2519 -288 
Q 2563 -116 2559 434 
Q 2191 0 1641 0 
Q 956 0 581 494 
Q 206 988 206 1678 
Q 206 2153 378 2554 
Q 550 2956 876 3175 
Q 1203 3394 1644 3394 
Q 2231 3394 2613 2919 
L 2613 3319 
L 3131 3319 
L 3131 450 
Q 3131 -325 2973 -648 
Q 2816 -972 2473 -1159 
Q 2131 -1347 1631 -1347 
Q 1038 -1347 672 -1080 
Q 306 -813 319 -275 
z
M 784 1719 
Q 784 1066 1043 766 
Q 1303 466 1694 466 
Q 2081 466 2343 764 
Q 2606 1063 2606 1700 
Q 2606 2309 2336 2618 
Q 2066 2928 1684 2928 
Q 1309 2928 1046 2623 
Q 784 2319 784 1719 
z
" transform="scale(0.015625)"/>
       <path id="ArialMT-6d" d="M 422 0 
L 422 3319 
L 925 3319 
L 925 2853 
Q 1081 3097 1340 3245 
Q 1600 3394 1931 3394 
Q 2300 3394 2536 3241 
Q 2772 3088 2869 2813 
Q 3263 3394 3894 3394 
Q 4388 3394 4653 3120 
Q 4919 2847 4919 2278 
L 4919 0 
L 4359 0 
L 4359 2091 
Q 4359 2428 4304 2576 
Q 4250 2725 4106 2815 
Q 3963 2906 3769 2906 
Q 3419 2906 3187 2673 
Q 2956 2441 2956 1928 
L 2956 0 
L 2394 0 
L 2394 2156 
Q 2394 2531 2256 2718 
Q 2119 2906 1806 2906 
Q 1569 2906 1367 2781 
Q 1166 2656 1075 2415 
Q 984 2175 984 1722 
L 984 0 
L 422 0 
z
" transform="scale(0.015625)"/>
      </defs>
      <use xlink:href="#ArialMT-54"/>
      <use xlink:href="#ArialMT-72" transform="translate(57.333984 0)"/>
      <use xlink:href="#ArialMT-75" transform="translate(90.634766 0)"/>
      <use xlink:href="#ArialMT-65" transform="translate(146.25 0)"/>
      <use xlink:href="#ArialMT-2f" transform="translate(201.865234 0)"/>
      <use xlink:href="#ArialMT-55" transform="translate(229.648438 0)"/>
      <use xlink:href="#ArialMT-6e" transform="translate(301.865234 0)"/>
      <use xlink:href="#ArialMT-64" transform="translate(357.480469 0)"/>
      <use xlink:href="#ArialMT-65" transform="translate(413.095703 0)"/>
      <use xlink:href="#ArialMT-72" transform="translate(468.710938 0)"/>
      <use xlink:href="#ArialMT-6c" transform="translate(502.011719 0)"/>
      <use xlink:href="#ArialMT-79" transform="translate(524.228516 0)"/>
      <use xlink:href="#ArialMT-69" transform="translate(574.228516 0)"/>
      <use xlink:href="#ArialMT-6e" transform="translate(596.445312 0)"/>
      <use xlink:href="#ArialMT-67" transform="translate(652.060547 0)"/>
      <use xlink:href="#ArialMT-20" transform="translate(707.675781 0)"/>
      <use xlink:href="#ArialMT-6d" transform="translate(735.458984 0)"/>
      <use xlink:href="#ArialMT-6f" transform="translate(818.759766 0)"/>
      <use xlink:href="#ArialMT-64" transform="translate(874.375 0)"/>
      <use xlink:href="#ArialMT-65" transform="translate(929.990234 0)"/>
      <use xlink:href="#ArialMT-6c" transform="translate(985.605469 0)"/>
     </g>
    </g>
    <g id="line2d_34">
     <path d="M 49.807813 48.371719 
L 59.807813 48.371719 
L 69.807813 48.371719 
" style="fill: none; stroke-dasharray: 12.95,5.6; stroke-dashoffset: 0; stroke: #ff0000; stroke-opacity: 0.8; stroke-width: 3.5"/>
    </g>
    <g id="text_19">
     <!-- AutoSINDy -->
     <g style="fill: #262626" transform="translate(77.807813 51.871719) scale(0.1 -0.1)">
      <defs>
       <path id="ArialMT-41" d="M -9 0 
L 1750 4581 
L 2403 4581 
L 4278 0 
L 3588 0 
L 3053 1388 
L 1138 1388 
L 634 0 
L -9 0 
z
M 1313 1881 
L 2866 1881 
L 2388 3150 
Q 2169 3728 2063 4100 
Q 1975 3659 1816 3225 
L 1313 1881 
z
" transform="scale(0.015625)"/>
       <path id="ArialMT-53" d="M 288 1472 
L 859 1522 
Q 900 1178 1048 958 
Q 1197 738 1509 602 
Q 1822 466 2213 466 
Q 2559 466 2825 569 
Q 3091 672 3220 851 
Q 3350 1031 3350 1244 
Q 3350 1459 3225 1620 
Q 3100 1781 2813 1891 
Q 2628 1963 1997 2114 
Q 1366 2266 1113 2400 
Q 784 2572 623 2826 
Q 463 3081 463 3397 
Q 463 3744 659 4045 
Q 856 4347 1234 4503 
Q 1613 4659 2075 4659 
Q 2584 4659 2973 4495 
Q 3363 4331 3572 4012 
Q 3781 3694 3797 3291 
L 3216 3247 
Q 3169 3681 2898 3903 
Q 2628 4125 2100 4125 
Q 1550 4125 1298 3923 
Q 1047 3722 1047 3438 
Q 1047 3191 1225 3031 
Q 1400 2872 2139 2705 
Q 2878 2538 3153 2413 
Q 3553 2228 3743 1945 
Q 3934 1663 3934 1294 
Q 3934 928 3725 604 
Q 3516 281 3123 101 
Q 2731 -78 2241 -78 
Q 1619 -78 1198 103 
Q 778 284 539 648 
Q 300 1013 288 1472 
z
" transform="scale(0.015625)"/>
       <path id="ArialMT-49" d="M 597 0 
L 597 4581 
L 1203 4581 
L 1203 0 
L 597 0 
z
" transform="scale(0.015625)"/>
       <path id="ArialMT-4e" d="M 488 0 
L 488 4581 
L 1109 4581 
L 3516 984 
L 3516 4581 
L 4097 4581 
L 4097 0 
L 3475 0 
L 1069 3600 
L 1069 0 
L 488 0 
z
" transform="scale(0.015625)"/>
       <path id="ArialMT-44" d="M 494 0 
L 494 4581 
L 2072 4581 
Q 2606 4581 2888 4516 
Q 3281 4425 3559 4188 
Q 3922 3881 4101 3404 
Q 4281 2928 4281 2316 
Q 4281 1794 4159 1391 
Q 4038 988 3847 723 
Q 3656 459 3429 307 
Q 3203 156 2883 78 
Q 2563 0 2147 0 
L 494 0 
z
M 1100 541 
L 2078 541 
Q 2531 541 2789 625 
Q 3047 709 3200 863 
Q 3416 1078 3536 1442 
Q 3656 1806 3656 2325 
Q 3656 3044 3420 3430 
Q 3184 3816 2847 3947 
Q 2603 4041 2063 4041 
L 1100 4041 
L 1100 541 
z
" transform="scale(0.015625)"/>
      </defs>
      <use xlink:href="#ArialMT-41"/>
      <use xlink:href="#ArialMT-75" transform="translate(66.699219 0)"/>
      <use xlink:href="#ArialMT-74" transform="translate(122.314453 0)"/>
      <use xlink:href="#ArialMT-6f" transform="translate(150.097656 0)"/>
      <use xlink:href="#ArialMT-53" transform="translate(205.712891 0)"/>
      <use xlink:href="#ArialMT-49" transform="translate(272.412109 0)"/>
      <use xlink:href="#ArialMT-4e" transform="translate(300.195312 0)"/>
      <use xlink:href="#ArialMT-44" transform="translate(372.412109 0)"/>
      <use xlink:href="#ArialMT-79" transform="translate(444.628906 0)"/>
     </g>
    </g>
    <g id="line2d_35">
     <path d="M 49.807813 62.756094 
L 59.807813 62.756094 
L 69.807813 62.756094 
" style="fill: none; stroke-dasharray: 3.5,5.775; stroke-dashoffset: 0; stroke: #008000; stroke-opacity: 0.8; stroke-width: 3.5"/>
    </g>
    <g id="text_20">
     <!-- Standard SINDy -->
     <g style="fill: #262626" transform="translate(77.807813 66.256094) scale(0.1 -0.1)">
      <use xlink:href="#ArialMT-53"/>
      <use xlink:href="#ArialMT-74" transform="translate(66.699219 0)"/>
      <use xlink:href="#ArialMT-61" transform="translate(94.482422 0)"/>
      <use xlink:href="#ArialMT-6e" transform="translate(150.097656 0)"/>
      <use xlink:href="#ArialMT-64" transform="translate(205.712891 0)"/>
      <use xlink:href="#ArialMT-61" transform="translate(261.328125 0)"/>
      <use xlink:href="#ArialMT-72" transform="translate(316.943359 0)"/>
      <use xlink:href="#ArialMT-64" transform="translate(350.244141 0)"/>
      <use xlink:href="#ArialMT-20" transform="translate(405.859375 0)"/>
      <use xlink:href="#ArialMT-53" transform="translate(433.642578 0)"/>
      <use xlink:href="#ArialMT-49" transform="translate(500.341797 0)"/>
      <use xlink:href="#ArialMT-4e" transform="translate(528.125 0)"/>
      <use xlink:href="#ArialMT-44" transform="translate(600.341797 0)"/>
      <use xlink:href="#ArialMT-79" transform="translate(672.558594 0)"/>
     </g>
    </g>
    <g id="line2d_36">
     <path d="M 49.807813 77.140469 
L 59.807813 77.140469 
L 69.807813 77.140469 
" style="fill: none; stroke-dasharray: 22.4,5.6,3.5,5.6; stroke-dashoffset: 0; stroke: #0000ff; stroke-opacity: 0.8; stroke-width: 3.5"/>
    </g>
    <g id="text_21">
     <!-- Standard PySR -->
     <g style="fill: #262626" transform="translate(77.807813 80.640469) scale(0.1 -0.1)">
      <defs>
       <path id="ArialMT-52" d="M 503 0 
L 503 4581 
L 2534 4581 
Q 3147 4581 3465 4457 
Q 3784 4334 3975 4021 
Q 4166 3709 4166 3331 
Q 4166 2844 3850 2509 
Q 3534 2175 2875 2084 
Q 3116 1969 3241 1856 
Q 3506 1613 3744 1247 
L 4541 0 
L 3778 0 
L 3172 953 
Q 2906 1366 2734 1584 
Q 2563 1803 2427 1890 
Q 2291 1978 2150 2013 
Q 2047 2034 1813 2034 
L 1109 2034 
L 1109 0 
L 503 0 
z
M 1109 2559 
L 2413 2559 
Q 2828 2559 3062 2645 
Q 3297 2731 3419 2920 
Q 3541 3109 3541 3331 
Q 3541 3656 3305 3865 
Q 3069 4075 2559 4075 
L 1109 4075 
L 1109 2559 
z
" transform="scale(0.015625)"/>
      </defs>
      <use xlink:href="#ArialMT-53"/>
      <use xlink:href="#ArialMT-74" transform="translate(66.699219 0)"/>
      <use xlink:href="#ArialMT-61" transform="translate(94.482422 0)"/>
      <use xlink:href="#ArialMT-6e" transform="translate(150.097656 0)"/>
      <use xlink:href="#ArialMT-64" transform="translate(205.712891 0)"/>
      <use xlink:href="#ArialMT-61" transform="translate(261.328125 0)"/>
      <use xlink:href="#ArialMT-72" transform="translate(316.943359 0)"/>
      <use xlink:href="#ArialMT-64" transform="translate(350.244141 0)"/>
      <use xlink:href="#ArialMT-20" transform="translate(405.859375 0)"/>
      <use xlink:href="#ArialMT-50" transform="translate(433.642578 0)"/>
      <use xlink:href="#ArialMT-79" transform="translate(500.341797 0)"/>
      <use xlink:href="#ArialMT-53" transform="translate(550.341797 0)"/>
      <use xlink:href="#ArialMT-52" transform="translate(617.041016 0)"/>
     </g>
    </g>
   </g>
  </g>
 </g>
 <defs>
  <clipPath id="pd090de854c">
   <rect x="40.807813" y="21.207656" width="520.83" height="514.38"/>
  </clipPath>
 </defs>
</svg>
