<?xml version="1.0" encoding="utf-8" standalone="no"?>
<!DOCTYPE svg PUBLIC "-//W3C//DTD SVG 1.1//EN"
  "http://www.w3.org/Graphics/SVG/1.1/DTD/svg11.dtd">
<svg xmlns:xlink="http://www.w3.org/1999/xlink" width="871.750937pt" height="285.79625pt" viewBox="0 0 871.750937 285.79625" xmlns="http://www.w3.org/2000/svg" version="1.1">
 <metadata>
  <rdf:RDF xmlns:dc="http://purl.org/dc/elements/1.1/" xmlns:cc="http://creativecommons.org/ns#" xmlns:rdf="http://www.w3.org/1999/02/22-rdf-syntax-ns#">
   <cc:Work>
    <dc:type rdf:resource="http://purl.org/dc/dcmitype/StillImage"/>
    <dc:date>2026-04-05T22:23:58.665762</dc:date>
    <dc:format>image/svg+xml</dc:format>
    <dc:creator>
     <cc:Agent>
      <dc:title>Matplotlib v3.10.7, https://matplotlib.org/</dc:title>
     </cc:Agent>
    </dc:creator>
   </cc:Work>
  </rdf:RDF>
 </metadata>
 <defs>
  <style type="text/css">*{stroke-linejoin: round; stroke-linecap: butt}</style>
 </defs>
 <g id="figure_1">
  <g id="patch_1">
   <path d="M 0 285.79625 
L 871.750937 285.79625 
L 871.750937 0 
L 0 0 
z
" style="fill: #ffffff"/>
  </g>
  <g id="axes_1">
   <g id="patch_2">
    <path d="M 52.160938 136.045271 
L 858.750937 136.045271 
L 858.750937 39.64 
L 52.160938 39.64 
z
" style="fill: #ffffff"/>
   </g>
   <g id="line2d_1">
    <path d="M 88.824119 44.582098 
L 93.232518 45.745796 
L 99.110383 46.995732 
L 106.457714 48.276959 
L 116.743977 49.817023 
L 166.705828 56.976633 
L 179.931024 59.220554 
L 191.686754 61.456219 
L 200.503551 63.333107 
L 209.320348 65.42881 
L 216.667679 67.385921 
L 224.01501 69.595589 
L 229.892875 71.597458 
L 235.77074 73.8609 
L 240.179138 75.764897 
L 244.587537 77.876371 
L 248.995936 80.229859 
L 253.404334 82.874426 
L 257.812733 85.857214 
L 262.221132 89.222994 
L 266.62953 93.007817 
L 271.037929 97.225922 
L 275.446327 101.8329 
L 281.324192 108.364994 
L 287.202057 114.846277 
L 290.140989 117.850446 
L 293.079922 120.596942 
L 296.018854 123.023663 
L 298.957787 125.091427 
L 301.896719 126.80507 
L 304.835651 128.182307 
L 307.774584 129.250065 
L 310.713516 130.044756 
L 313.652449 130.616358 
L 316.591381 131.006432 
L 320.99978 131.326498 
L 325.408178 131.417647 
L 331.286043 131.298815 
L 338.633374 130.912844 
L 348.919638 130.132004 
L 363.6143 128.77926 
L 382.71736 126.799561 
L 403.289887 124.442699 
L 420.923482 122.208231 
L 437.08761 119.937345 
L 450.312806 117.880203 
L 462.068535 115.849347 
L 472.354799 113.866116 
L 481.171596 111.970458 
L 489.988393 109.846103 
L 497.335724 107.856492 
L 503.213589 106.080326 
L 509.091454 104.097367 
L 514.969319 101.858775 
L 519.377717 99.977743 
L 523.786116 97.893114 
L 528.194515 95.568702 
L 532.602913 92.956663 
L 537.011312 90.010544 
L 541.419711 86.68661 
L 545.828109 82.946547 
L 550.236508 78.774494 
L 554.644906 74.203474 
L 560.522771 67.696825 
L 566.400636 61.191753 
L 569.339568 58.157142 
L 572.278501 55.375218 
L 575.217433 52.900558 
L 578.156366 50.765986 
L 581.095298 48.982577 
L 584.03423 47.539655 
L 586.973163 46.409662 
L 589.912095 45.555694 
L 592.851028 44.935171 
L 595.78996 44.507179 
L 600.198359 44.142395 
L 604.606757 44.022058 
L 610.484622 44.115666 
L 617.831953 44.483744 
L 628.118217 45.25056 
L 642.812879 46.590495 
L 661.915939 48.554824 
L 682.488466 50.891701 
L 700.122061 53.102605 
L 716.286189 55.341513 
L 729.511385 57.373312 
L 741.267114 59.374384 
L 751.553378 61.315691 
L 761.839641 63.492452 
L 770.656439 65.603824 
L 778.00377 67.58036 
L 785.351101 69.800689 
L 791.228965 71.810868 
L 797.10683 74.090763 
L 801.515229 76.018074 
L 805.923627 78.16733 
L 810.332026 80.574045 
L 814.740425 83.276926 
L 819.148823 86.317876 
L 822.087756 88.555132 
L 822.087756 88.555132 
" clip-path="url(#pf1fa4f655f)" style="fill: none; stroke: #000000; stroke-opacity: 0.4; stroke-width: 6; stroke-linecap: square"/>
   </g>
   <g id="matplotlib.axis_1">
    <g id="xtick_1">
     <g id="line2d_2">
      <defs>
       <path id="m2ae0f43fb9" d="M 0 0 
L 0 3.5 
" style="stroke: #000000; stroke-width: 0.8"/>
      </defs>
      <g>
       <use xlink:href="#m2ae0f43fb9" x="88.824119" y="136.045271" style="stroke: #000000; stroke-width: 0.8"/>
      </g>
     </g>
    </g>
    <g id="xtick_2">
     <g id="line2d_3">
      <g>
       <use xlink:href="#m2ae0f43fb9" x="235.476847" y="136.045271" style="stroke: #000000; stroke-width: 0.8"/>
      </g>
     </g>
    </g>
    <g id="xtick_3">
     <g id="line2d_4">
      <g>
       <use xlink:href="#m2ae0f43fb9" x="382.129574" y="136.045271" style="stroke: #000000; stroke-width: 0.8"/>
      </g>
     </g>
    </g>
    <g id="xtick_4">
     <g id="line2d_5">
      <g>
       <use xlink:href="#m2ae0f43fb9" x="528.782301" y="136.045271" style="stroke: #000000; stroke-width: 0.8"/>
      </g>
     </g>
    </g>
    <g id="xtick_5">
     <g id="line2d_6">
      <g>
       <use xlink:href="#m2ae0f43fb9" x="675.435028" y="136.045271" style="stroke: #000000; stroke-width: 0.8"/>
      </g>
     </g>
    </g>
    <g id="xtick_6">
     <g id="line2d_7">
      <g>
       <use xlink:href="#m2ae0f43fb9" x="822.087756" y="136.045271" style="stroke: #000000; stroke-width: 0.8"/>
      </g>
     </g>
    </g>
   </g>
   <g id="matplotlib.axis_2">
    <g id="ytick_1">
     <g id="line2d_8">
      <defs>
       <path id="m3264cf3ba3" d="M 0 0 
L -3.5 0 
" style="stroke: #000000; stroke-width: 0.8"/>
      </defs>
      <g>
       <use xlink:href="#m3264cf3ba3" x="52.160938" y="130.973869" style="stroke: #000000; stroke-width: 0.8"/>
      </g>
     </g>
     <g id="text_1">
      <!-- −2 -->
      <g transform="translate(30.41875 134.773088) scale(0.1 -0.1)">
       <defs>
        <path id="DejaVuSans-2212" d="M 678 2272 
L 4684 2272 
L 4684 1741 
L 678 1741 
L 678 2272 
z
" transform="scale(0.015625)"/>
        <path id="DejaVuSans-32" d="M 1228 531 
L 3431 531 
L 3431 0 
L 469 0 
L 469 531 
Q 828 903 1448 1529 
Q 2069 2156 2228 2338 
Q 2531 2678 2651 2914 
Q 2772 3150 2772 3378 
Q 2772 3750 2511 3984 
Q 2250 4219 1831 4219 
Q 1534 4219 1204 4116 
Q 875 4013 500 3803 
L 500 4441 
Q 881 4594 1212 4672 
Q 1544 4750 1819 4750 
Q 2544 4750 2975 4387 
Q 3406 4025 3406 3419 
Q 3406 3131 3298 2873 
Q 3191 2616 2906 2266 
Q 2828 2175 2409 1742 
Q 1991 1309 1228 531 
z
" transform="scale(0.015625)"/>
       </defs>
       <use xlink:href="#DejaVuSans-2212"/>
       <use xlink:href="#DejaVuSans-32" transform="translate(83.789062 0)"/>
      </g>
     </g>
    </g>
    <g id="ytick_2">
     <g id="line2d_9">
      <g>
       <use xlink:href="#m3264cf3ba3" x="52.160938" y="87.777983" style="stroke: #000000; stroke-width: 0.8"/>
      </g>
     </g>
     <g id="text_2">
      <!-- 0 -->
      <g transform="translate(38.798438 91.577202) scale(0.1 -0.1)">
       <defs>
        <path id="DejaVuSans-30" d="M 2034 4250 
Q 1547 4250 1301 3770 
Q 1056 3291 1056 2328 
Q 1056 1369 1301 889 
Q 1547 409 2034 409 
Q 2525 409 2770 889 
Q 3016 1369 3016 2328 
Q 3016 3291 2770 3770 
Q 2525 4250 2034 4250 
z
M 2034 4750 
Q 2819 4750 3233 4129 
Q 3647 3509 3647 2328 
Q 3647 1150 3233 529 
Q 2819 -91 2034 -91 
Q 1250 -91 836 529 
Q 422 1150 422 2328 
Q 422 3509 836 4129 
Q 1250 4750 2034 4750 
z
" transform="scale(0.015625)"/>
       </defs>
       <use xlink:href="#DejaVuSans-30"/>
      </g>
     </g>
    </g>
    <g id="ytick_3">
     <g id="line2d_10">
      <g>
       <use xlink:href="#m3264cf3ba3" x="52.160938" y="44.582098" style="stroke: #000000; stroke-width: 0.8"/>
      </g>
     </g>
     <g id="text_3">
      <!-- 2 -->
      <g transform="translate(38.798438 48.381316) scale(0.1 -0.1)">
       <use xlink:href="#DejaVuSans-32"/>
      </g>
     </g>
    </g>
    <g id="text_4">
     <!-- $x0$ -->
     <g transform="translate(24.339063 93.992635) rotate(-90) scale(0.1 -0.1)">
      <defs>
       <path id="DejaVuSans-Oblique-78" d="M 3841 3500 
L 2234 1784 
L 3219 0 
L 2559 0 
L 1819 1388 
L 531 0 
L -166 0 
L 1556 1844 
L 641 3500 
L 1300 3500 
L 1972 2234 
L 3144 3500 
L 3841 3500 
z
" transform="scale(0.015625)"/>
      </defs>
      <use xlink:href="#DejaVuSans-Oblique-78" transform="translate(0 0.78125)"/>
      <use xlink:href="#DejaVuSans-30" transform="translate(59.179688 0.78125)"/>
     </g>
    </g>
   </g>
   <g id="line2d_11">
    <path d="M 88.824119 44.582098 
L 91.763052 45.34631 
L 96.17145 46.20838 
L 100.579849 46.827589 
L 106.457714 47.399571 
L 113.805045 47.853103 
L 122.621842 48.17034 
L 135.847038 48.404908 
L 157.889031 48.536657 
L 216.667679 48.578086 
L 822.087756 48.579079 
L 822.087756 48.579079 
" clip-path="url(#pf1fa4f655f)" style="fill: none; stroke-dasharray: 22.4,5.6,3.5,5.6; stroke-dashoffset: 0; stroke: #0000ff; stroke-opacity: 0.8; stroke-width: 3.5"/>
   </g>
   <g id="patch_3">
    <path d="M 52.160938 136.045271 
L 52.160938 39.64 
" style="fill: none; stroke: #000000; stroke-width: 0.8; stroke-linejoin: miter; stroke-linecap: square"/>
   </g>
   <g id="patch_4">
    <path d="M 858.750937 136.045271 
L 858.750937 39.64 
" style="fill: none; stroke: #000000; stroke-width: 0.8; stroke-linejoin: miter; stroke-linecap: square"/>
   </g>
   <g id="patch_5">
    <path d="M 52.160938 136.045271 
L 858.750938 136.045271 
" style="fill: none; stroke: #000000; stroke-width: 0.8; stroke-linejoin: miter; stroke-linecap: square"/>
   </g>
   <g id="patch_6">
    <path d="M 52.160938 39.64 
L 858.750938 39.64 
" style="fill: none; stroke: #000000; stroke-width: 0.8; stroke-linejoin: miter; stroke-linecap: square"/>
   </g>
   <g id="line2d_12">
    <path d="M 88.824119 44.582098 
L 94.701984 46.184068 
L 100.579849 47.550787 
L 107.92718 49.013073 
L 118.213443 50.787718 
L 141.724903 54.492716 
L 157.889031 57.167109 
L 171.114227 59.588476 
L 181.40049 61.685865 
L 190.217287 63.683678 
L 199.034085 65.924171 
L 206.381416 68.033753 
L 212.259281 69.92635 
L 218.137145 72.049116 
L 224.01501 74.458803 
L 228.423409 76.495862 
L 232.831807 78.768321 
L 237.240206 81.316099 
L 241.648605 84.184132 
L 246.057003 87.420156 
L 248.995936 89.804024 
L 251.934868 92.380532 
L 256.343267 96.614324 
L 260.751665 101.26484 
L 266.62953 107.891148 
L 272.507395 114.46983 
L 275.446327 117.542956 
L 278.38526 120.366179 
L 281.324192 122.874 
L 284.263125 125.027237 
L 287.202057 126.812461 
L 290.140989 128.242201 
L 293.079922 129.349539 
L 296.018854 130.179681 
L 298.957787 130.779901 
L 301.896719 131.193833 
L 306.305118 131.546377 
L 310.713516 131.663213 
L 316.591381 131.572216 
L 323.938712 131.208766 
L 334.224976 130.440557 
L 348.919638 129.088629 
L 369.492164 126.958867 
L 390.064691 124.62408 
L 409.167752 122.232067 
L 425.33188 119.978375 
L 438.557076 117.925154 
L 450.312806 115.894187 
L 460.599069 113.91315 
L 469.415866 112.021664 
L 478.232664 109.900907 
L 485.579995 107.909049 
L 492.927326 105.653964 
L 498.805191 103.610366 
L 504.683055 101.300622 
L 509.091454 99.35689 
L 513.499853 97.197635 
L 517.908251 94.785298 
L 522.31665 92.075963 
L 526.725048 89.019899 
L 531.133447 85.568352 
L 535.541846 81.689095 
L 539.950244 77.384068 
L 544.358643 72.707094 
L 557.583839 58.235483 
L 560.522771 55.434072 
L 563.461704 52.945533 
L 566.400636 50.806942 
L 569.339568 49.029068 
L 572.278501 47.600372 
L 575.217433 46.489305 
L 578.156366 45.653139 
L 581.095298 45.046943 
L 584.03423 44.628673 
L 588.442629 44.274041 
L 592.851028 44.159121 
L 598.728893 44.255246 
L 606.076224 44.624257 
L 616.362487 45.395371 
L 631.057149 46.747763 
L 650.16021 48.72928 
L 670.732737 51.083426 
L 688.366331 53.315772 
L 704.530459 55.590795 
L 717.755655 57.663377 
L 729.511385 59.709471 
L 739.797648 61.698334 
L 750.083912 63.923811 
L 758.900709 66.075572 
L 766.24804 68.094077 
L 772.125905 69.898366 
L 778.00377 71.915289 
L 783.881634 74.197586 
L 788.290033 76.122221 
L 792.698432 78.265214 
L 797.10683 80.663297 
L 801.515229 83.357801 
L 805.923627 86.393298 
L 810.332026 89.812963 
L 814.740425 93.648639 
L 819.148823 97.906163 
L 822.087756 100.961184 
L 822.087756 100.961184 
" clip-path="url(#pf1fa4f655f)" style="fill: none; stroke-dasharray: 3.5,5.775; stroke-dashoffset: 0; stroke: #008000; stroke-opacity: 0.8; stroke-width: 3.5"/>
   </g>
   <g id="line2d_13">
    <path d="M 88.824119 44.582098 
L 93.232518 45.7456 
L 99.110383 46.994797 
L 106.457714 48.276787 
L 116.743977 49.81643 
L 166.705828 56.979162 
L 179.931024 59.225499 
L 191.686754 61.464244 
L 201.973017 63.674833 
L 210.789814 65.817413 
L 218.137145 67.829844 
L 224.01501 69.627486 
L 229.892875 71.632232 
L 235.77074 73.892475 
L 240.179138 75.791942 
L 244.587537 77.901833 
L 248.995936 80.260046 
L 253.404334 82.909869 
L 257.812733 85.898524 
L 262.221132 89.272328 
L 266.62953 93.067408 
L 271.037929 97.293156 
L 275.446327 101.908112 
L 282.793658 110.099036 
L 287.202057 114.928278 
L 290.140989 117.931929 
L 293.079922 120.669609 
L 296.018854 123.083823 
L 298.957787 125.143231 
L 301.896719 126.844293 
L 304.835651 128.205961 
L 307.774584 129.261854 
L 310.713516 130.053557 
L 313.652449 130.624073 
L 316.591381 131.013809 
L 320.99978 131.335881 
L 325.408178 131.427056 
L 331.286043 131.308583 
L 338.633374 130.922383 
L 348.919638 130.141045 
L 363.6143 128.787623 
L 382.71736 126.806844 
L 403.289887 124.448496 
L 420.923482 122.21458 
L 437.08761 119.945713 
L 450.312806 117.884218 
L 462.068535 115.849327 
L 472.354799 113.866338 
L 481.171596 111.973258 
L 489.988393 109.850657 
L 497.335724 107.857833 
L 504.683055 105.603834 
L 510.56092 103.563417 
L 516.438785 101.258392 
L 520.847184 99.317908 
L 525.255582 97.159395 
L 529.663981 94.743722 
L 534.072379 92.026608 
L 538.480778 88.960586 
L 542.889177 85.500527 
L 547.297575 81.614392 
L 551.705974 77.301613 
L 556.114373 72.618224 
L 569.339568 58.150216 
L 572.278501 55.360928 
L 575.217433 52.886678 
L 578.156366 50.763216 
L 581.095298 48.998965 
L 584.03423 47.578727 
L 586.973163 46.470892 
L 589.912095 45.634833 
L 592.851028 45.027538 
L 595.78996 44.607989 
L 600.198359 44.252006 
L 604.606757 44.137123 
L 610.484622 44.234955 
L 617.831953 44.606188 
L 628.118217 45.376864 
L 642.812879 46.723254 
L 661.915939 48.698694 
L 682.488466 51.051521 
L 700.122061 53.279607 
L 716.286189 55.541535 
L 729.511385 57.595605 
L 741.267114 59.621949 
L 751.553378 61.595253 
L 760.370175 63.477748 
L 769.186972 65.586771 
L 776.534303 67.565103 
L 783.881634 69.80064 
L 789.759499 71.82243 
L 795.637364 74.104347 
L 800.045763 76.023983 
L 804.454161 78.157759 
L 808.86256 80.544303 
L 813.270958 83.227457 
L 817.679357 86.254485 
L 822.087756 89.671165 
L 822.087756 89.671165 
" clip-path="url(#pf1fa4f655f)" style="fill: none; stroke-dasharray: 12.95,5.6; stroke-dashoffset: 0; stroke: #ff0000; stroke-opacity: 0.8; stroke-width: 3.5"/>
   </g>
  </g>
  <g id="axes_2">
   <g id="patch_7">
    <path d="M 52.160938 248.24 
L 858.750937 248.24 
L 858.750937 151.834729 
L 52.160938 151.834729 
z
" style="fill: #ffffff"/>
   </g>
   <g id="line2d_14">
    <path d="M 88.824119 211.118284 
L 91.763052 209.545648 
L 94.701984 208.374759 
L 97.640917 207.494583 
L 100.579849 206.834775 
L 104.988248 206.131707 
L 109.396646 205.659583 
L 115.274511 205.280412 
L 122.621842 205.055138 
L 131.438639 205.006432 
L 143.194369 205.161242 
L 157.889031 205.588095 
L 172.583693 206.242947 
L 184.339423 206.968316 
L 194.625686 207.806185 
L 203.442483 208.743318 
L 210.789814 209.724961 
L 218.137145 210.950473 
L 224.01501 212.169589 
L 228.423409 213.265116 
L 232.831807 214.552453 
L 237.240206 216.069558 
L 241.648605 217.859101 
L 246.057003 219.968284 
L 248.995936 221.575352 
L 251.934868 223.363091 
L 254.8738 225.33991 
L 259.282199 228.646499 
L 263.690598 232.295812 
L 271.037929 238.515735 
L 273.976861 240.647649 
L 275.446327 241.540034 
L 276.915794 242.276757 
L 278.38526 242.824721 
L 279.854726 243.148492 
L 281.324192 243.217463 
L 282.793658 243.013027 
L 284.263125 242.524056 
L 285.732591 241.746494 
L 287.202057 240.683363 
L 288.671523 239.344754 
L 290.140989 237.747836 
L 291.610456 235.916848 
L 294.549388 231.684995 
L 304.835651 215.657074 
L 307.774584 211.816443 
L 310.713516 208.597827 
L 313.652449 205.965006 
L 316.591381 203.831294 
L 319.530314 202.131168 
L 322.469246 200.792981 
L 325.408178 199.744067 
L 328.347111 198.925075 
L 332.755509 198.020133 
L 337.163908 197.391539 
L 343.041773 196.831143 
L 350.389104 196.394985 
L 360.675367 196.025367 
L 382.71736 195.526725 
L 416.515083 194.721565 
L 437.08761 194.010627 
L 453.251738 193.229279 
L 465.007468 192.458345 
L 475.293731 191.581128 
L 484.110529 190.616268 
L 491.45786 189.601153 
L 497.335724 188.609464 
L 503.213589 187.406601 
L 507.621988 186.327915 
L 512.030386 185.061968 
L 516.438785 183.571089 
L 520.847184 181.812693 
L 525.255582 179.741424 
L 528.194515 178.16258 
L 531.133447 176.401855 
L 534.072379 174.450831 
L 538.480778 171.180826 
L 542.889177 167.565351 
L 550.236508 161.294942 
L 553.17544 159.124018 
L 554.644906 158.206155 
L 556.114373 157.434606 
L 557.583839 156.836471 
L 559.053305 156.439781 
L 560.522771 156.273495 
L 561.992237 156.367505 
L 563.461704 156.752631 
L 564.93117 157.467574 
L 566.400636 158.505733 
L 567.870102 159.827639 
L 569.339568 161.394866 
L 572.278501 165.116896 
L 575.217433 169.385702 
L 584.03423 182.867045 
L 586.973163 186.786143 
L 589.912095 190.139692 
L 592.851028 192.927378 
L 595.78996 195.184792 
L 598.728893 196.982363 
L 601.667825 198.402038 
L 604.606757 199.51365 
L 607.54569 200.380336 
L 610.484622 201.056606 
L 614.893021 201.803143 
L 619.301419 202.323725 
L 625.179284 202.791717 
L 633.996081 203.221452 
L 647.221277 203.599208 
L 708.938858 205.10911 
L 726.572452 205.835418 
L 741.267114 206.668972 
L 753.022844 207.564957 
L 761.839641 208.442161 
L 769.186972 209.36197 
L 776.534303 210.501395 
L 782.412168 211.601315 
L 786.820567 212.595523 
L 791.228965 213.781783 
L 795.637364 215.198983 
L 800.045763 216.882897 
L 804.454161 218.866179 
L 808.86256 221.178367 
L 813.270958 223.84588 
L 817.679357 226.892021 
L 822.087756 230.336975 
L 822.087756 230.336975 
" clip-path="url(#pf99a5d85f5)" style="fill: none; stroke: #000000; stroke-opacity: 0.4; stroke-width: 6; stroke-linecap: square"/>
   </g>
   <g id="matplotlib.axis_3">
    <g id="xtick_7">
     <g id="line2d_15">
      <g>
       <use xlink:href="#m2ae0f43fb9" x="88.824119" y="248.24" style="stroke: #000000; stroke-width: 0.8"/>
      </g>
     </g>
     <g id="text_5">
      <!-- 0 -->
      <g transform="translate(85.642869 262.838437) scale(0.1 -0.1)">
       <use xlink:href="#DejaVuSans-30"/>
      </g>
     </g>
    </g>
    <g id="xtick_8">
     <g id="line2d_16">
      <g>
       <use xlink:href="#m2ae0f43fb9" x="235.476847" y="248.24" style="stroke: #000000; stroke-width: 0.8"/>
      </g>
     </g>
     <g id="text_6">
      <!-- 2 -->
      <g transform="translate(232.295597 262.838437) scale(0.1 -0.1)">
       <use xlink:href="#DejaVuSans-32"/>
      </g>
     </g>
    </g>
    <g id="xtick_9">
     <g id="line2d_17">
      <g>
       <use xlink:href="#m2ae0f43fb9" x="382.129574" y="248.24" style="stroke: #000000; stroke-width: 0.8"/>
      </g>
     </g>
     <g id="text_7">
      <!-- 4 -->
      <g transform="translate(378.948324 262.838437) scale(0.1 -0.1)">
       <defs>
        <path id="DejaVuSans-34" d="M 2419 4116 
L 825 1625 
L 2419 1625 
L 2419 4116 
z
M 2253 4666 
L 3047 4666 
L 3047 1625 
L 3713 1625 
L 3713 1100 
L 3047 1100 
L 3047 0 
L 2419 0 
L 2419 1100 
L 313 1100 
L 313 1709 
L 2253 4666 
z
" transform="scale(0.015625)"/>
       </defs>
       <use xlink:href="#DejaVuSans-34"/>
      </g>
     </g>
    </g>
    <g id="xtick_10">
     <g id="line2d_18">
      <g>
       <use xlink:href="#m2ae0f43fb9" x="528.782301" y="248.24" style="stroke: #000000; stroke-width: 0.8"/>
      </g>
     </g>
     <g id="text_8">
      <!-- 6 -->
      <g transform="translate(525.601051 262.838437) scale(0.1 -0.1)">
       <defs>
        <path id="DejaVuSans-36" d="M 2113 2584 
Q 1688 2584 1439 2293 
Q 1191 2003 1191 1497 
Q 1191 994 1439 701 
Q 1688 409 2113 409 
Q 2538 409 2786 701 
Q 3034 994 3034 1497 
Q 3034 2003 2786 2293 
Q 2538 2584 2113 2584 
z
M 3366 4563 
L 3366 3988 
Q 3128 4100 2886 4159 
Q 2644 4219 2406 4219 
Q 1781 4219 1451 3797 
Q 1122 3375 1075 2522 
Q 1259 2794 1537 2939 
Q 1816 3084 2150 3084 
Q 2853 3084 3261 2657 
Q 3669 2231 3669 1497 
Q 3669 778 3244 343 
Q 2819 -91 2113 -91 
Q 1303 -91 875 529 
Q 447 1150 447 2328 
Q 447 3434 972 4092 
Q 1497 4750 2381 4750 
Q 2619 4750 2861 4703 
Q 3103 4656 3366 4563 
z
" transform="scale(0.015625)"/>
       </defs>
       <use xlink:href="#DejaVuSans-36"/>
      </g>
     </g>
    </g>
    <g id="xtick_11">
     <g id="line2d_19">
      <g>
       <use xlink:href="#m2ae0f43fb9" x="675.435028" y="248.24" style="stroke: #000000; stroke-width: 0.8"/>
      </g>
     </g>
     <g id="text_9">
      <!-- 8 -->
      <g transform="translate(672.253778 262.838437) scale(0.1 -0.1)">
       <defs>
        <path id="DejaVuSans-38" d="M 2034 2216 
Q 1584 2216 1326 1975 
Q 1069 1734 1069 1313 
Q 1069 891 1326 650 
Q 1584 409 2034 409 
Q 2484 409 2743 651 
Q 3003 894 3003 1313 
Q 3003 1734 2745 1975 
Q 2488 2216 2034 2216 
z
M 1403 2484 
Q 997 2584 770 2862 
Q 544 3141 544 3541 
Q 544 4100 942 4425 
Q 1341 4750 2034 4750 
Q 2731 4750 3128 4425 
Q 3525 4100 3525 3541 
Q 3525 3141 3298 2862 
Q 3072 2584 2669 2484 
Q 3125 2378 3379 2068 
Q 3634 1759 3634 1313 
Q 3634 634 3220 271 
Q 2806 -91 2034 -91 
Q 1263 -91 848 271 
Q 434 634 434 1313 
Q 434 1759 690 2068 
Q 947 2378 1403 2484 
z
M 1172 3481 
Q 1172 3119 1398 2916 
Q 1625 2713 2034 2713 
Q 2441 2713 2670 2916 
Q 2900 3119 2900 3481 
Q 2900 3844 2670 4047 
Q 2441 4250 2034 4250 
Q 1625 4250 1398 4047 
Q 1172 3844 1172 3481 
z
" transform="scale(0.015625)"/>
       </defs>
       <use xlink:href="#DejaVuSans-38"/>
      </g>
     </g>
    </g>
    <g id="xtick_12">
     <g id="line2d_20">
      <g>
       <use xlink:href="#m2ae0f43fb9" x="822.087756" y="248.24" style="stroke: #000000; stroke-width: 0.8"/>
      </g>
     </g>
     <g id="text_10">
      <!-- 10 -->
      <g transform="translate(815.725256 262.838437) scale(0.1 -0.1)">
       <defs>
        <path id="DejaVuSans-31" d="M 794 531 
L 1825 531 
L 1825 4091 
L 703 3866 
L 703 4441 
L 1819 4666 
L 2450 4666 
L 2450 531 
L 3481 531 
L 3481 0 
L 794 0 
L 794 531 
z
" transform="scale(0.015625)"/>
       </defs>
       <use xlink:href="#DejaVuSans-31"/>
       <use xlink:href="#DejaVuSans-30" transform="translate(63.623047 0)"/>
      </g>
     </g>
    </g>
    <g id="text_11">
     <!-- Time -->
     <g transform="translate(443.222344 276.516562) scale(0.1 -0.1)">
      <defs>
       <path id="DejaVuSans-54" d="M -19 4666 
L 3928 4666 
L 3928 4134 
L 2272 4134 
L 2272 0 
L 1638 0 
L 1638 4134 
L -19 4134 
L -19 4666 
z
" transform="scale(0.015625)"/>
       <path id="DejaVuSans-69" d="M 603 3500 
L 1178 3500 
L 1178 0 
L 603 0 
L 603 3500 
z
M 603 4863 
L 1178 4863 
L 1178 4134 
L 603 4134 
L 603 4863 
z
" transform="scale(0.015625)"/>
       <path id="DejaVuSans-6d" d="M 3328 2828 
Q 3544 3216 3844 3400 
Q 4144 3584 4550 3584 
Q 5097 3584 5394 3201 
Q 5691 2819 5691 2113 
L 5691 0 
L 5113 0 
L 5113 2094 
Q 5113 2597 4934 2840 
Q 4756 3084 4391 3084 
Q 3944 3084 3684 2787 
Q 3425 2491 3425 1978 
L 3425 0 
L 2847 0 
L 2847 2094 
Q 2847 2600 2669 2842 
Q 2491 3084 2119 3084 
Q 1678 3084 1418 2786 
Q 1159 2488 1159 1978 
L 1159 0 
L 581 0 
L 581 3500 
L 1159 3500 
L 1159 2956 
Q 1356 3278 1631 3431 
Q 1906 3584 2284 3584 
Q 2666 3584 2933 3390 
Q 3200 3197 3328 2828 
z
" transform="scale(0.015625)"/>
       <path id="DejaVuSans-65" d="M 3597 1894 
L 3597 1613 
L 953 1613 
Q 991 1019 1311 708 
Q 1631 397 2203 397 
Q 2534 397 2845 478 
Q 3156 559 3463 722 
L 3463 178 
Q 3153 47 2828 -22 
Q 2503 -91 2169 -91 
Q 1331 -91 842 396 
Q 353 884 353 1716 
Q 353 2575 817 3079 
Q 1281 3584 2069 3584 
Q 2775 3584 3186 3129 
Q 3597 2675 3597 1894 
z
M 3022 2063 
Q 3016 2534 2758 2815 
Q 2500 3097 2075 3097 
Q 1594 3097 1305 2825 
Q 1016 2553 972 2059 
L 3022 2063 
z
" transform="scale(0.015625)"/>
      </defs>
      <use xlink:href="#DejaVuSans-54"/>
      <use xlink:href="#DejaVuSans-69" transform="translate(57.958984 0)"/>
      <use xlink:href="#DejaVuSans-6d" transform="translate(85.742188 0)"/>
      <use xlink:href="#DejaVuSans-65" transform="translate(183.154297 0)"/>
     </g>
    </g>
   </g>
   <g id="matplotlib.axis_4">
    <g id="ytick_4">
     <g id="line2d_21">
      <g>
       <use xlink:href="#m3264cf3ba3" x="52.160938" y="228.194502" style="stroke: #000000; stroke-width: 0.8"/>
      </g>
     </g>
     <g id="text_12">
      <!-- −2.5 -->
      <g transform="translate(20.878125 231.993721) scale(0.1 -0.1)">
       <defs>
        <path id="DejaVuSans-2e" d="M 684 794 
L 1344 794 
L 1344 0 
L 684 0 
L 684 794 
z
" transform="scale(0.015625)"/>
        <path id="DejaVuSans-35" d="M 691 4666 
L 3169 4666 
L 3169 4134 
L 1269 4134 
L 1269 2991 
Q 1406 3038 1543 3061 
Q 1681 3084 1819 3084 
Q 2600 3084 3056 2656 
Q 3513 2228 3513 1497 
Q 3513 744 3044 326 
Q 2575 -91 1722 -91 
Q 1428 -91 1123 -41 
Q 819 9 494 109 
L 494 744 
Q 775 591 1075 516 
Q 1375 441 1709 441 
Q 2250 441 2565 725 
Q 2881 1009 2881 1497 
Q 2881 1984 2565 2268 
Q 2250 2553 1709 2553 
Q 1456 2553 1204 2497 
Q 953 2441 691 2322 
L 691 4666 
z
" transform="scale(0.015625)"/>
       </defs>
       <use xlink:href="#DejaVuSans-2212"/>
       <use xlink:href="#DejaVuSans-32" transform="translate(83.789062 0)"/>
       <use xlink:href="#DejaVuSans-2e" transform="translate(147.412109 0)"/>
       <use xlink:href="#DejaVuSans-35" transform="translate(179.199219 0)"/>
      </g>
     </g>
    </g>
    <g id="ytick_5">
     <g id="line2d_22">
      <g>
       <use xlink:href="#m3264cf3ba3" x="52.160938" y="199.734139" style="stroke: #000000; stroke-width: 0.8"/>
      </g>
     </g>
     <g id="text_13">
      <!-- 0.0 -->
      <g transform="translate(29.257812 203.533358) scale(0.1 -0.1)">
       <use xlink:href="#DejaVuSans-30"/>
       <use xlink:href="#DejaVuSans-2e" transform="translate(63.623047 0)"/>
       <use xlink:href="#DejaVuSans-30" transform="translate(95.410156 0)"/>
      </g>
     </g>
    </g>
    <g id="ytick_6">
     <g id="line2d_23">
      <g>
       <use xlink:href="#m3264cf3ba3" x="52.160938" y="171.273776" style="stroke: #000000; stroke-width: 0.8"/>
      </g>
     </g>
     <g id="text_14">
      <!-- 2.5 -->
      <g transform="translate(29.257812 175.072995) scale(0.1 -0.1)">
       <use xlink:href="#DejaVuSans-32"/>
       <use xlink:href="#DejaVuSans-2e" transform="translate(63.623047 0)"/>
       <use xlink:href="#DejaVuSans-35" transform="translate(95.410156 0)"/>
      </g>
     </g>
    </g>
    <g id="text_15">
     <!-- $x1$ -->
     <g transform="translate(14.798438 206.187365) rotate(-90) scale(0.1 -0.1)">
      <use xlink:href="#DejaVuSans-Oblique-78" transform="translate(0 0.09375)"/>
      <use xlink:href="#DejaVuSans-31" transform="translate(59.179688 0.09375)"/>
     </g>
    </g>
   </g>
   <g id="line2d_24">
    <path d="M 88.824119 211.118284 
L 90.293586 209.81942 
L 91.763052 208.694048 
L 94.701984 206.858136 
L 97.640917 205.443742 
L 100.579849 204.339189 
L 103.518781 203.467119 
L 107.92718 202.478754 
L 112.335579 201.765629 
L 118.213443 201.104399 
L 125.560774 200.578537 
L 134.377572 200.209907 
L 146.133301 199.957066 
L 165.236362 199.799658 
L 207.850882 199.738442 
L 647.221277 199.734139 
L 822.087756 199.734139 
L 822.087756 199.734139 
" clip-path="url(#pf99a5d85f5)" style="fill: none; stroke-dasharray: 22.4,5.6,3.5,5.6; stroke-dashoffset: 0; stroke: #0000ff; stroke-opacity: 0.8; stroke-width: 3.5"/>
   </g>
   <g id="patch_8">
    <path d="M 52.160938 248.24 
L 52.160938 151.834729 
" style="fill: none; stroke: #000000; stroke-width: 0.8; stroke-linejoin: miter; stroke-linecap: square"/>
   </g>
   <g id="patch_9">
    <path d="M 858.750937 248.24 
L 858.750937 151.834729 
" style="fill: none; stroke: #000000; stroke-width: 0.8; stroke-linejoin: miter; stroke-linecap: square"/>
   </g>
   <g id="patch_10">
    <path d="M 52.160938 248.24 
L 858.750938 248.24 
" style="fill: none; stroke: #000000; stroke-width: 0.8; stroke-linejoin: miter; stroke-linecap: square"/>
   </g>
   <g id="patch_11">
    <path d="M 52.160938 151.834729 
L 858.750938 151.834729 
" style="fill: none; stroke: #000000; stroke-width: 0.8; stroke-linejoin: miter; stroke-linecap: square"/>
   </g>
   <g id="line2d_25">
    <path d="M 88.824119 211.118284 
L 96.17145 209.064712 
L 100.579849 208.064145 
L 104.988248 207.289509 
L 109.396646 206.718718 
L 115.274511 206.211531 
L 121.152376 205.920498 
L 128.499707 205.768779 
L 137.316504 205.799372 
L 149.072234 206.08747 
L 160.827963 206.596959 
L 172.583693 207.326566 
L 182.869956 208.188329 
L 191.686754 209.157444 
L 199.034085 210.195684 
L 204.91195 211.233844 
L 210.789814 212.516314 
L 215.198213 213.679607 
L 219.606612 215.052383 
L 224.01501 216.671158 
L 228.423409 218.574998 
L 232.831807 220.80654 
L 235.77074 222.498638 
L 238.709672 224.36902 
L 241.648605 226.428273 
L 246.057003 229.860069 
L 250.465402 233.623558 
L 257.812733 239.980847 
L 260.751665 242.095481 
L 262.221132 242.904271 
L 263.690598 243.485816 
L 265.160064 243.806154 
L 266.62953 243.857942 
L 268.098996 243.643968 
L 269.568463 243.171766 
L 271.037929 242.444152 
L 272.507395 241.45539 
L 273.976861 240.20165 
L 275.446327 238.680685 
L 276.915794 236.906666 
L 279.854726 232.742596 
L 282.793658 228.06204 
L 288.671523 218.520942 
L 291.610456 214.274281 
L 294.549388 210.627088 
L 297.48832 207.605109 
L 300.427253 205.158968 
L 303.366185 203.208923 
L 306.305118 201.668585 
L 309.24405 200.456723 
L 312.182982 199.503718 
L 315.121915 198.752765 
L 319.530314 197.90979 
L 323.938712 197.311299 
L 329.816577 196.766094 
L 337.163908 196.336069 
L 347.450171 195.98174 
L 368.022698 195.567975 
L 398.881489 194.91992 
L 419.454015 194.269864 
L 435.618144 193.557619 
L 448.84334 192.77922 
L 460.599069 191.866437 
L 469.415866 190.980238 
L 476.763197 190.052512 
L 484.110529 188.887154 
L 489.988393 187.727627 
L 495.866258 186.307264 
L 500.274657 185.031641 
L 504.683055 183.540052 
L 509.091454 181.794285 
L 513.499853 179.748806 
L 516.438785 178.191409 
L 519.377717 176.457126 
L 522.31665 174.530834 
L 525.255582 172.403219 
L 529.663981 168.86616 
L 539.950244 160.226102 
L 542.889177 158.215279 
L 544.358643 157.413635 
L 545.828109 156.796429 
L 547.297575 156.39934 
L 548.767042 156.247985 
L 550.236508 156.356514 
L 551.705974 156.736749 
L 553.17544 157.396238 
L 554.644906 158.33989 
L 556.114373 159.571233 
L 557.583839 161.08226 
L 559.053305 162.849256 
L 561.992237 166.982696 
L 566.400636 173.976209 
L 570.809035 180.960293 
L 573.747967 185.143109 
L 576.686899 188.760215 
L 579.625832 191.78388 
L 582.564764 194.252938 
L 585.503697 196.233406 
L 588.442629 197.801564 
L 591.381561 199.033193 
L 594.320494 199.996998 
L 597.259426 200.751167 
L 601.667825 201.589627 
L 606.076224 202.178563 
L 611.954088 202.711124 
L 619.301419 203.132542 
L 631.057149 203.529305 
L 657.507541 204.091238 
L 683.957932 204.750724 
L 704.530459 205.488621 
L 720.694588 206.283628 
L 733.919783 207.145651 
L 744.206047 208.015418 
L 753.022844 208.971237 
L 760.370175 209.985906 
L 766.24804 210.997905 
L 772.125905 212.248444 
L 776.534303 213.384267 
L 780.942702 214.72631 
L 785.351101 216.310067 
L 789.759499 218.172317 
L 794.167898 220.351401 
L 798.576296 222.885924 
L 801.515229 224.791637 
L 805.923627 227.978387 
L 810.332026 231.513107 
L 819.148823 238.84682 
L 822.087756 240.921977 
L 822.087756 240.921977 
" clip-path="url(#pf99a5d85f5)" style="fill: none; stroke-dasharray: 3.5,5.775; stroke-dashoffset: 0; stroke: #008000; stroke-opacity: 0.8; stroke-width: 3.5"/>
   </g>
   <g id="line2d_26">
    <path d="M 88.824119 211.118284 
L 91.763052 209.546323 
L 94.701984 208.378191 
L 97.640917 207.500703 
L 100.579849 206.836576 
L 104.988248 206.127387 
L 109.396646 205.658623 
L 115.274511 205.279769 
L 122.621842 205.056514 
L 132.908105 205.016918 
L 146.133301 205.232721 
L 160.827963 205.705905 
L 174.053159 206.330895 
L 185.808889 207.08517 
L 196.095152 207.957917 
L 204.91195 208.928483 
L 212.259281 209.954052 
L 218.137145 210.963576 
L 224.01501 212.191375 
L 228.423409 213.291996 
L 232.831807 214.582133 
L 237.240206 216.100861 
L 241.648605 217.893347 
L 246.057003 220.009655 
L 248.995936 221.624713 
L 251.934868 223.419373 
L 254.8738 225.400009 
L 259.282199 228.716017 
L 263.690598 232.377651 
L 271.037929 238.606555 
L 273.976861 240.73961 
L 275.446327 241.627004 
L 276.915794 242.353996 
L 278.38526 242.888994 
L 279.854726 243.202154 
L 281.324192 243.264979 
L 282.793658 243.054545 
L 284.263125 242.555145 
L 285.732591 241.757348 
L 287.202057 240.664697 
L 288.671523 239.287034 
L 290.140989 237.647907 
L 291.610456 235.777883 
L 294.549388 231.504703 
L 303.366185 217.624849 
L 306.305118 213.599929 
L 309.24405 210.124233 
L 312.182982 207.216071 
L 315.121915 204.840808 
L 318.060847 202.934945 
L 320.99978 201.424755 
L 323.938712 200.237992 
L 326.877645 199.30981 
L 329.816577 198.585131 
L 334.224976 197.783495 
L 338.633374 197.22483 
L 344.511239 196.723321 
L 351.85857 196.326613 
L 363.6143 195.943412 
L 394.47309 195.273519 
L 420.923482 194.584258 
L 440.026542 193.880634 
L 454.721204 193.13797 
L 466.476934 192.347347 
L 476.763197 191.442625 
L 485.579995 190.439796 
L 492.927326 189.380615 
L 498.805191 188.337474 
L 504.683055 187.067706 
L 509.091454 185.92853 
L 513.499853 184.592248 
L 517.908251 183.018469 
L 522.31665 181.160818 
L 526.725048 178.968702 
L 529.663981 177.297851 
L 532.602913 175.444119 
L 535.541846 173.404006 
L 539.950244 170.006258 
L 545.828109 165.021977 
L 550.236508 161.298587 
L 553.17544 159.099438 
L 554.644906 158.163132 
L 556.114373 157.375731 
L 557.583839 156.768815 
L 559.053305 156.373037 
L 560.522771 156.216787 
L 561.992237 156.32882 
L 563.461704 156.722725 
L 564.93117 157.411184 
L 566.400636 158.398722 
L 567.870102 159.674567 
L 569.339568 161.221391 
L 570.809035 163.01128 
L 573.747967 167.168275 
L 578.156366 174.175243 
L 582.564764 181.071117 
L 585.503697 185.184543 
L 588.442629 188.760978 
L 591.381561 191.768703 
L 594.320494 194.235067 
L 597.259426 196.219889 
L 600.198359 197.795777 
L 603.137291 199.035875 
L 606.076224 200.006449 
L 609.015156 200.764392 
L 613.423555 201.602507 
L 617.831953 202.185883 
L 623.709818 202.708112 
L 631.057149 203.118992 
L 642.812879 203.511804 
L 670.732737 204.120361 
L 698.652594 204.824514 
L 717.755655 205.50502 
L 733.919783 206.303185 
L 745.675513 207.085363 
L 755.961776 207.979355 
L 764.778574 208.969064 
L 772.125905 210.013301 
L 778.00377 211.040889 
L 783.881634 212.290653 
L 788.290033 213.411011 
L 792.698432 214.724834 
L 797.10683 216.271455 
L 801.515229 218.096927 
L 805.923627 220.251133 
L 808.86256 221.894925 
L 811.801492 223.71867 
L 814.740425 225.729358 
L 819.148823 229.086586 
L 822.087756 231.518403 
L 822.087756 231.518403 
" clip-path="url(#pf99a5d85f5)" style="fill: none; stroke-dasharray: 12.95,5.6; stroke-dashoffset: 0; stroke: #ff0000; stroke-opacity: 0.8; stroke-width: 3.5"/>
   </g>
  </g>
  <g id="text_16">
   <!-- State Variable Simulation Comparison -->
   <g transform="translate(285.843437 20.1175) scale(0.16 -0.16)">
    <defs>
     <path id="DejaVuSans-53" d="M 3425 4513 
L 3425 3897 
Q 3066 4069 2747 4153 
Q 2428 4238 2131 4238 
Q 1616 4238 1336 4038 
Q 1056 3838 1056 3469 
Q 1056 3159 1242 3001 
Q 1428 2844 1947 2747 
L 2328 2669 
Q 3034 2534 3370 2195 
Q 3706 1856 3706 1288 
Q 3706 609 3251 259 
Q 2797 -91 1919 -91 
Q 1588 -91 1214 -16 
Q 841 59 441 206 
L 441 856 
Q 825 641 1194 531 
Q 1563 422 1919 422 
Q 2459 422 2753 634 
Q 3047 847 3047 1241 
Q 3047 1584 2836 1778 
Q 2625 1972 2144 2069 
L 1759 2144 
Q 1053 2284 737 2584 
Q 422 2884 422 3419 
Q 422 4038 858 4394 
Q 1294 4750 2059 4750 
Q 2388 4750 2728 4690 
Q 3069 4631 3425 4513 
z
" transform="scale(0.015625)"/>
     <path id="DejaVuSans-74" d="M 1172 4494 
L 1172 3500 
L 2356 3500 
L 2356 3053 
L 1172 3053 
L 1172 1153 
Q 1172 725 1289 603 
Q 1406 481 1766 481 
L 2356 481 
L 2356 0 
L 1766 0 
Q 1100 0 847 248 
Q 594 497 594 1153 
L 594 3053 
L 172 3053 
L 172 3500 
L 594 3500 
L 594 4494 
L 1172 4494 
z
" transform="scale(0.015625)"/>
     <path id="DejaVuSans-61" d="M 2194 1759 
Q 1497 1759 1228 1600 
Q 959 1441 959 1056 
Q 959 750 1161 570 
Q 1363 391 1709 391 
Q 2188 391 2477 730 
Q 2766 1069 2766 1631 
L 2766 1759 
L 2194 1759 
z
M 3341 1997 
L 3341 0 
L 2766 0 
L 2766 531 
Q 2569 213 2275 61 
Q 1981 -91 1556 -91 
Q 1019 -91 701 211 
Q 384 513 384 1019 
Q 384 1609 779 1909 
Q 1175 2209 1959 2209 
L 2766 2209 
L 2766 2266 
Q 2766 2663 2505 2880 
Q 2244 3097 1772 3097 
Q 1472 3097 1187 3025 
Q 903 2953 641 2809 
L 641 3341 
Q 956 3463 1253 3523 
Q 1550 3584 1831 3584 
Q 2591 3584 2966 3190 
Q 3341 2797 3341 1997 
z
" transform="scale(0.015625)"/>
     <path id="DejaVuSans-20" transform="scale(0.015625)"/>
     <path id="DejaVuSans-56" d="M 1831 0 
L 50 4666 
L 709 4666 
L 2188 738 
L 3669 4666 
L 4325 4666 
L 2547 0 
L 1831 0 
z
" transform="scale(0.015625)"/>
     <path id="DejaVuSans-72" d="M 2631 2963 
Q 2534 3019 2420 3045 
Q 2306 3072 2169 3072 
Q 1681 3072 1420 2755 
Q 1159 2438 1159 1844 
L 1159 0 
L 581 0 
L 581 3500 
L 1159 3500 
L 1159 2956 
Q 1341 3275 1631 3429 
Q 1922 3584 2338 3584 
Q 2397 3584 2469 3576 
Q 2541 3569 2628 3553 
L 2631 2963 
z
" transform="scale(0.015625)"/>
     <path id="DejaVuSans-62" d="M 3116 1747 
Q 3116 2381 2855 2742 
Q 2594 3103 2138 3103 
Q 1681 3103 1420 2742 
Q 1159 2381 1159 1747 
Q 1159 1113 1420 752 
Q 1681 391 2138 391 
Q 2594 391 2855 752 
Q 3116 1113 3116 1747 
z
M 1159 2969 
Q 1341 3281 1617 3432 
Q 1894 3584 2278 3584 
Q 2916 3584 3314 3078 
Q 3713 2572 3713 1747 
Q 3713 922 3314 415 
Q 2916 -91 2278 -91 
Q 1894 -91 1617 61 
Q 1341 213 1159 525 
L 1159 0 
L 581 0 
L 581 4863 
L 1159 4863 
L 1159 2969 
z
" transform="scale(0.015625)"/>
     <path id="DejaVuSans-6c" d="M 603 4863 
L 1178 4863 
L 1178 0 
L 603 0 
L 603 4863 
z
" transform="scale(0.015625)"/>
     <path id="DejaVuSans-75" d="M 544 1381 
L 544 3500 
L 1119 3500 
L 1119 1403 
Q 1119 906 1312 657 
Q 1506 409 1894 409 
Q 2359 409 2629 706 
Q 2900 1003 2900 1516 
L 2900 3500 
L 3475 3500 
L 3475 0 
L 2900 0 
L 2900 538 
Q 2691 219 2414 64 
Q 2138 -91 1772 -91 
Q 1169 -91 856 284 
Q 544 659 544 1381 
z
M 1991 3584 
L 1991 3584 
z
" transform="scale(0.015625)"/>
     <path id="DejaVuSans-6f" d="M 1959 3097 
Q 1497 3097 1228 2736 
Q 959 2375 959 1747 
Q 959 1119 1226 758 
Q 1494 397 1959 397 
Q 2419 397 2687 759 
Q 2956 1122 2956 1747 
Q 2956 2369 2687 2733 
Q 2419 3097 1959 3097 
z
M 1959 3584 
Q 2709 3584 3137 3096 
Q 3566 2609 3566 1747 
Q 3566 888 3137 398 
Q 2709 -91 1959 -91 
Q 1206 -91 779 398 
Q 353 888 353 1747 
Q 353 2609 779 3096 
Q 1206 3584 1959 3584 
z
" transform="scale(0.015625)"/>
     <path id="DejaVuSans-6e" d="M 3513 2113 
L 3513 0 
L 2938 0 
L 2938 2094 
Q 2938 2591 2744 2837 
Q 2550 3084 2163 3084 
Q 1697 3084 1428 2787 
Q 1159 2491 1159 1978 
L 1159 0 
L 581 0 
L 581 3500 
L 1159 3500 
L 1159 2956 
Q 1366 3272 1645 3428 
Q 1925 3584 2291 3584 
Q 2894 3584 3203 3211 
Q 3513 2838 3513 2113 
z
" transform="scale(0.015625)"/>
     <path id="DejaVuSans-43" d="M 4122 4306 
L 4122 3641 
Q 3803 3938 3442 4084 
Q 3081 4231 2675 4231 
Q 1875 4231 1450 3742 
Q 1025 3253 1025 2328 
Q 1025 1406 1450 917 
Q 1875 428 2675 428 
Q 3081 428 3442 575 
Q 3803 722 4122 1019 
L 4122 359 
Q 3791 134 3420 21 
Q 3050 -91 2638 -91 
Q 1578 -91 968 557 
Q 359 1206 359 2328 
Q 359 3453 968 4101 
Q 1578 4750 2638 4750 
Q 3056 4750 3426 4639 
Q 3797 4528 4122 4306 
z
" transform="scale(0.015625)"/>
     <path id="DejaVuSans-70" d="M 1159 525 
L 1159 -1331 
L 581 -1331 
L 581 3500 
L 1159 3500 
L 1159 2969 
Q 1341 3281 1617 3432 
Q 1894 3584 2278 3584 
Q 2916 3584 3314 3078 
Q 3713 2572 3713 1747 
Q 3713 922 3314 415 
Q 2916 -91 2278 -91 
Q 1894 -91 1617 61 
Q 1341 213 1159 525 
z
M 3116 1747 
Q 3116 2381 2855 2742 
Q 2594 3103 2138 3103 
Q 1681 3103 1420 2742 
Q 1159 2381 1159 1747 
Q 1159 1113 1420 752 
Q 1681 391 2138 391 
Q 2594 391 2855 752 
Q 3116 1113 3116 1747 
z
" transform="scale(0.015625)"/>
     <path id="DejaVuSans-73" d="M 2834 3397 
L 2834 2853 
Q 2591 2978 2328 3040 
Q 2066 3103 1784 3103 
Q 1356 3103 1142 2972 
Q 928 2841 928 2578 
Q 928 2378 1081 2264 
Q 1234 2150 1697 2047 
L 1894 2003 
Q 2506 1872 2764 1633 
Q 3022 1394 3022 966 
Q 3022 478 2636 193 
Q 2250 -91 1575 -91 
Q 1294 -91 989 -36 
Q 684 19 347 128 
L 347 722 
Q 666 556 975 473 
Q 1284 391 1588 391 
Q 1994 391 2212 530 
Q 2431 669 2431 922 
Q 2431 1156 2273 1281 
Q 2116 1406 1581 1522 
L 1381 1569 
Q 847 1681 609 1914 
Q 372 2147 372 2553 
Q 372 3047 722 3315 
Q 1072 3584 1716 3584 
Q 2034 3584 2315 3537 
Q 2597 3491 2834 3397 
z
" transform="scale(0.015625)"/>
    </defs>
    <use xlink:href="#DejaVuSans-53"/>
    <use xlink:href="#DejaVuSans-74" transform="translate(63.476562 0)"/>
    <use xlink:href="#DejaVuSans-61" transform="translate(102.685547 0)"/>
    <use xlink:href="#DejaVuSans-74" transform="translate(163.964844 0)"/>
    <use xlink:href="#DejaVuSans-65" transform="translate(203.173828 0)"/>
    <use xlink:href="#DejaVuSans-20" transform="translate(264.697266 0)"/>
    <use xlink:href="#DejaVuSans-56" transform="translate(296.484375 0)"/>
    <use xlink:href="#DejaVuSans-61" transform="translate(357.142578 0)"/>
    <use xlink:href="#DejaVuSans-72" transform="translate(418.421875 0)"/>
    <use xlink:href="#DejaVuSans-69" transform="translate(459.535156 0)"/>
    <use xlink:href="#DejaVuSans-61" transform="translate(487.318359 0)"/>
    <use xlink:href="#DejaVuSans-62" transform="translate(548.597656 0)"/>
    <use xlink:href="#DejaVuSans-6c" transform="translate(612.074219 0)"/>
    <use xlink:href="#DejaVuSans-65" transform="translate(639.857422 0)"/>
    <use xlink:href="#DejaVuSans-20" transform="translate(701.380859 0)"/>
    <use xlink:href="#DejaVuSans-53" transform="translate(733.167969 0)"/>
    <use xlink:href="#DejaVuSans-69" transform="translate(796.644531 0)"/>
    <use xlink:href="#DejaVuSans-6d" transform="translate(824.427734 0)"/>
    <use xlink:href="#DejaVuSans-75" transform="translate(921.839844 0)"/>
    <use xlink:href="#DejaVuSans-6c" transform="translate(985.21875 0)"/>
    <use xlink:href="#DejaVuSans-61" transform="translate(1013.001953 0)"/>
    <use xlink:href="#DejaVuSans-74" transform="translate(1074.28125 0)"/>
    <use xlink:href="#DejaVuSans-69" transform="translate(1113.490234 0)"/>
    <use xlink:href="#DejaVuSans-6f" transform="translate(1141.273438 0)"/>
    <use xlink:href="#DejaVuSans-6e" transform="translate(1202.455078 0)"/>
    <use xlink:href="#DejaVuSans-20" transform="translate(1265.833984 0)"/>
    <use xlink:href="#DejaVuSans-43" transform="translate(1297.621094 0)"/>
    <use xlink:href="#DejaVuSans-6f" transform="translate(1367.445312 0)"/>
    <use xlink:href="#DejaVuSans-6d" transform="translate(1428.626953 0)"/>
    <use xlink:href="#DejaVuSans-70" transform="translate(1526.039062 0)"/>
    <use xlink:href="#DejaVuSans-61" transform="translate(1589.515625 0)"/>
    <use xlink:href="#DejaVuSans-72" transform="translate(1650.794922 0)"/>
    <use xlink:href="#DejaVuSans-69" transform="translate(1691.908203 0)"/>
    <use xlink:href="#DejaVuSans-73" transform="translate(1719.691406 0)"/>
    <use xlink:href="#DejaVuSans-6f" transform="translate(1771.791016 0)"/>
    <use xlink:href="#DejaVuSans-6e" transform="translate(1832.972656 0)"/>
   </g>
  </g>
  <g id="legend_1">
   <g id="patch_12">
    <path d="M 753.679062 66.7125 
L 864.750937 66.7125 
Q 866.750937 66.7125 866.750937 64.7125 
L 866.750937 7 
Q 866.750937 5 864.750937 5 
L 753.679062 5 
Q 751.679062 5 751.679062 7 
L 751.679062 64.7125 
Q 751.679062 66.7125 753.679062 66.7125 
z
" style="fill: #ffffff; opacity: 0.5; stroke: #cccccc; stroke-linejoin: miter"/>
   </g>
   <g id="line2d_27">
    <path d="M 755.679062 13.098437 
L 765.679062 13.098437 
L 775.679062 13.098437 
" style="fill: none; stroke: #000000; stroke-opacity: 0.4; stroke-width: 6; stroke-linecap: square"/>
   </g>
   <g id="text_17">
    <!-- True Trajectory -->
    <g transform="translate(783.679062 16.598437) scale(0.1 -0.1)">
     <defs>
      <path id="DejaVuSans-6a" d="M 603 3500 
L 1178 3500 
L 1178 -63 
Q 1178 -731 923 -1031 
Q 669 -1331 103 -1331 
L -116 -1331 
L -116 -844 
L 38 -844 
Q 366 -844 484 -692 
Q 603 -541 603 -63 
L 603 3500 
z
M 603 4863 
L 1178 4863 
L 1178 4134 
L 603 4134 
L 603 4863 
z
" transform="scale(0.015625)"/>
      <path id="DejaVuSans-63" d="M 3122 3366 
L 3122 2828 
Q 2878 2963 2633 3030 
Q 2388 3097 2138 3097 
Q 1578 3097 1268 2742 
Q 959 2388 959 1747 
Q 959 1106 1268 751 
Q 1578 397 2138 397 
Q 2388 397 2633 464 
Q 2878 531 3122 666 
L 3122 134 
Q 2881 22 2623 -34 
Q 2366 -91 2075 -91 
Q 1284 -91 818 406 
Q 353 903 353 1747 
Q 353 2603 823 3093 
Q 1294 3584 2113 3584 
Q 2378 3584 2631 3529 
Q 2884 3475 3122 3366 
z
" transform="scale(0.015625)"/>
      <path id="DejaVuSans-79" d="M 2059 -325 
Q 1816 -950 1584 -1140 
Q 1353 -1331 966 -1331 
L 506 -1331 
L 506 -850 
L 844 -850 
Q 1081 -850 1212 -737 
Q 1344 -625 1503 -206 
L 1606 56 
L 191 3500 
L 800 3500 
L 1894 763 
L 2988 3500 
L 3597 3500 
L 2059 -325 
z
" transform="scale(0.015625)"/>
     </defs>
     <use xlink:href="#DejaVuSans-54"/>
     <use xlink:href="#DejaVuSans-72" transform="translate(46.333984 0)"/>
     <use xlink:href="#DejaVuSans-75" transform="translate(87.447266 0)"/>
     <use xlink:href="#DejaVuSans-65" transform="translate(150.826172 0)"/>
     <use xlink:href="#DejaVuSans-20" transform="translate(212.349609 0)"/>
     <use xlink:href="#DejaVuSans-54" transform="translate(244.136719 0)"/>
     <use xlink:href="#DejaVuSans-72" transform="translate(290.470703 0)"/>
     <use xlink:href="#DejaVuSans-61" transform="translate(331.583984 0)"/>
     <use xlink:href="#DejaVuSans-6a" transform="translate(392.863281 0)"/>
     <use xlink:href="#DejaVuSans-65" transform="translate(420.646484 0)"/>
     <use xlink:href="#DejaVuSans-63" transform="translate(482.169922 0)"/>
     <use xlink:href="#DejaVuSans-74" transform="translate(537.150391 0)"/>
     <use xlink:href="#DejaVuSans-6f" transform="translate(576.359375 0)"/>
     <use xlink:href="#DejaVuSans-72" transform="translate(637.541016 0)"/>
     <use xlink:href="#DejaVuSans-79" transform="translate(678.654297 0)"/>
    </g>
   </g>
   <g id="line2d_28">
    <path d="M 755.679062 27.776562 
L 765.679062 27.776562 
L 775.679062 27.776562 
" style="fill: none; stroke-dasharray: 12.95,5.6; stroke-dashoffset: 0; stroke: #ff0000; stroke-opacity: 0.8; stroke-width: 3.5"/>
   </g>
   <g id="text_18">
    <!-- AutoSINDy -->
    <g transform="translate(783.679062 31.276562) scale(0.1 -0.1)">
     <defs>
      <path id="DejaVuSans-41" d="M 2188 4044 
L 1331 1722 
L 3047 1722 
L 2188 4044 
z
M 1831 4666 
L 2547 4666 
L 4325 0 
L 3669 0 
L 3244 1197 
L 1141 1197 
L 716 0 
L 50 0 
L 1831 4666 
z
" transform="scale(0.015625)"/>
      <path id="DejaVuSans-49" d="M 628 4666 
L 1259 4666 
L 1259 0 
L 628 0 
L 628 4666 
z
" transform="scale(0.015625)"/>
      <path id="DejaVuSans-4e" d="M 628 4666 
L 1478 4666 
L 3547 763 
L 3547 4666 
L 4159 4666 
L 4159 0 
L 3309 0 
L 1241 3903 
L 1241 0 
L 628 0 
L 628 4666 
z
" transform="scale(0.015625)"/>
      <path id="DejaVuSans-44" d="M 1259 4147 
L 1259 519 
L 2022 519 
Q 2988 519 3436 956 
Q 3884 1394 3884 2338 
Q 3884 3275 3436 3711 
Q 2988 4147 2022 4147 
L 1259 4147 
z
M 628 4666 
L 1925 4666 
Q 3281 4666 3915 4102 
Q 4550 3538 4550 2338 
Q 4550 1131 3912 565 
Q 3275 0 1925 0 
L 628 0 
L 628 4666 
z
" transform="scale(0.015625)"/>
     </defs>
     <use xlink:href="#DejaVuSans-41"/>
     <use xlink:href="#DejaVuSans-75" transform="translate(68.408203 0)"/>
     <use xlink:href="#DejaVuSans-74" transform="translate(131.787109 0)"/>
     <use xlink:href="#DejaVuSans-6f" transform="translate(170.996094 0)"/>
     <use xlink:href="#DejaVuSans-53" transform="translate(232.177734 0)"/>
     <use xlink:href="#DejaVuSans-49" transform="translate(295.654297 0)"/>
     <use xlink:href="#DejaVuSans-4e" transform="translate(325.146484 0)"/>
     <use xlink:href="#DejaVuSans-44" transform="translate(399.951172 0)"/>
     <use xlink:href="#DejaVuSans-79" transform="translate(476.953125 0)"/>
    </g>
   </g>
   <g id="line2d_29">
    <path d="M 755.679062 42.454687 
L 765.679062 42.454687 
L 775.679062 42.454687 
" style="fill: none; stroke-dasharray: 3.5,5.775; stroke-dashoffset: 0; stroke: #008000; stroke-opacity: 0.8; stroke-width: 3.5"/>
   </g>
   <g id="text_19">
    <!-- Standard SINDy -->
    <g transform="translate(783.679062 45.954687) scale(0.1 -0.1)">
     <defs>
      <path id="DejaVuSans-64" d="M 2906 2969 
L 2906 4863 
L 3481 4863 
L 3481 0 
L 2906 0 
L 2906 525 
Q 2725 213 2448 61 
Q 2172 -91 1784 -91 
Q 1150 -91 751 415 
Q 353 922 353 1747 
Q 353 2572 751 3078 
Q 1150 3584 1784 3584 
Q 2172 3584 2448 3432 
Q 2725 3281 2906 2969 
z
M 947 1747 
Q 947 1113 1208 752 
Q 1469 391 1925 391 
Q 2381 391 2643 752 
Q 2906 1113 2906 1747 
Q 2906 2381 2643 2742 
Q 2381 3103 1925 3103 
Q 1469 3103 1208 2742 
Q 947 2381 947 1747 
z
" transform="scale(0.015625)"/>
     </defs>
     <use xlink:href="#DejaVuSans-53"/>
     <use xlink:href="#DejaVuSans-74" transform="translate(63.476562 0)"/>
     <use xlink:href="#DejaVuSans-61" transform="translate(102.685547 0)"/>
     <use xlink:href="#DejaVuSans-6e" transform="translate(163.964844 0)"/>
     <use xlink:href="#DejaVuSans-64" transform="translate(227.34375 0)"/>
     <use xlink:href="#DejaVuSans-61" transform="translate(290.820312 0)"/>
     <use xlink:href="#DejaVuSans-72" transform="translate(352.099609 0)"/>
     <use xlink:href="#DejaVuSans-64" transform="translate(391.462891 0)"/>
     <use xlink:href="#DejaVuSans-20" transform="translate(454.939453 0)"/>
     <use xlink:href="#DejaVuSans-53" transform="translate(486.726562 0)"/>
     <use xlink:href="#DejaVuSans-49" transform="translate(550.203125 0)"/>
     <use xlink:href="#DejaVuSans-4e" transform="translate(579.695312 0)"/>
     <use xlink:href="#DejaVuSans-44" transform="translate(654.5 0)"/>
     <use xlink:href="#DejaVuSans-79" transform="translate(731.501953 0)"/>
    </g>
   </g>
   <g id="line2d_30">
    <path d="M 755.679062 57.132812 
L 765.679062 57.132812 
L 775.679062 57.132812 
" style="fill: none; stroke-dasharray: 22.4,5.6,3.5,5.6; stroke-dashoffset: 0; stroke: #0000ff; stroke-opacity: 0.8; stroke-width: 3.5"/>
   </g>
   <g id="text_20">
    <!-- Standard PySR -->
    <g transform="translate(783.679062 60.632812) scale(0.1 -0.1)">
     <defs>
      <path id="DejaVuSans-50" d="M 1259 4147 
L 1259 2394 
L 2053 2394 
Q 2494 2394 2734 2622 
Q 2975 2850 2975 3272 
Q 2975 3691 2734 3919 
Q 2494 4147 2053 4147 
L 1259 4147 
z
M 628 4666 
L 2053 4666 
Q 2838 4666 3239 4311 
Q 3641 3956 3641 3272 
Q 3641 2581 3239 2228 
Q 2838 1875 2053 1875 
L 1259 1875 
L 1259 0 
L 628 0 
L 628 4666 
z
" transform="scale(0.015625)"/>
      <path id="DejaVuSans-52" d="M 2841 2188 
Q 3044 2119 3236 1894 
Q 3428 1669 3622 1275 
L 4263 0 
L 3584 0 
L 2988 1197 
Q 2756 1666 2539 1819 
Q 2322 1972 1947 1972 
L 1259 1972 
L 1259 0 
L 628 0 
L 628 4666 
L 2053 4666 
Q 2853 4666 3247 4331 
Q 3641 3997 3641 3322 
Q 3641 2881 3436 2590 
Q 3231 2300 2841 2188 
z
M 1259 4147 
L 1259 2491 
L 2053 2491 
Q 2509 2491 2742 2702 
Q 2975 2913 2975 3322 
Q 2975 3731 2742 3939 
Q 2509 4147 2053 4147 
L 1259 4147 
z
" transform="scale(0.015625)"/>
     </defs>
     <use xlink:href="#DejaVuSans-53"/>
     <use xlink:href="#DejaVuSans-74" transform="translate(63.476562 0)"/>
     <use xlink:href="#DejaVuSans-61" transform="translate(102.685547 0)"/>
     <use xlink:href="#DejaVuSans-6e" transform="translate(163.964844 0)"/>
     <use xlink:href="#DejaVuSans-64" transform="translate(227.34375 0)"/>
     <use xlink:href="#DejaVuSans-61" transform="translate(290.820312 0)"/>
     <use xlink:href="#DejaVuSans-72" transform="translate(352.099609 0)"/>
     <use xlink:href="#DejaVuSans-64" transform="translate(391.462891 0)"/>
     <use xlink:href="#DejaVuSans-20" transform="translate(454.939453 0)"/>
     <use xlink:href="#DejaVuSans-50" transform="translate(486.726562 0)"/>
     <use xlink:href="#DejaVuSans-79" transform="translate(547.029297 0)"/>
     <use xlink:href="#DejaVuSans-53" transform="translate(606.208984 0)"/>
     <use xlink:href="#DejaVuSans-52" transform="translate(669.685547 0)"/>
    </g>
   </g>
  </g>
 </g>
 <defs>
  <clipPath id="pf1fa4f655f">
   <rect x="52.160938" y="39.64" width="806.59" height="96.405271"/>
  </clipPath>
  <clipPath id="pf99a5d85f5">
   <rect x="52.160938" y="151.834729" width="806.59" height="96.405271"/>
  </clipPath>
 </defs>
</svg>
