<?xml version="1.0" encoding="utf-8" standalone="no"?>
<!DOCTYPE svg PUBLIC "-//W3C//DTD SVG 1.1//EN"
  "http://www.w3.org/Graphics/SVG/1.1/DTD/svg11.dtd">
<svg xmlns:xlink="http://www.w3.org/1999/xlink" width="568.837812pt" height="568.578281pt" viewBox="0 0 568.837812 568.578281" xmlns="http://www.w3.org/2000/svg" version="1.1">
 <metadata>
  <rdf:RDF xmlns:dc="http://purl.org/dc/elements/1.1/" xmlns:cc="http://creativecommons.org/ns#" xmlns:rdf="http://www.w3.org/1999/02/22-rdf-syntax-ns#">
   <cc:Work>
    <dc:type rdf:resource="http://purl.org/dc/dcmitype/StillImage"/>
    <dc:date>2026-04-06T19:33:07.345502</dc:date>
    <dc:format>image/svg+xml</dc:format>
    <dc:creator>
     <cc:Agent>
      <dc:title>Matplotlib v3.10.7, https://matplotlib.org/</dc:title>
     </cc:Agent>
    </dc:creator>
   </cc:Work>
  </rdf:RDF>
 </metadata>
 <defs>
  <style type="text/css">*{stroke-linejoin: round; stroke-linecap: butt}</style>
 </defs>
 <g id="figure_1">
  <g id="patch_1">
   <path d="M 0 568.578281 
L 568.837812 568.578281 
L 568.837812 0 
L 0 0 
z
" style="fill: #ffffff"/>
  </g>
  <g id="axes_1">
   <g id="patch_2">
    <path d="M 40.807813 535.587656 
L 561.637812 535.587656 
L 561.637812 21.207656 
L 40.807813 21.207656 
z
" style="fill: #ffffff"/>
   </g>
   <g id="matplotlib.axis_1">
    <g id="xtick_1">
     <g id="line2d_1">
      <path d="M 85.507885 535.587656 
L 85.507885 21.207656 
" clip-path="url(#p02d6962ec8)" style="fill: none; stroke: #cccccc; stroke-width: 0.8; stroke-linecap: round"/>
     </g>
     <g id="line2d_2"/>
     <g id="text_1">
      <!-- −15 -->
      <g style="fill: #262626" transform="translate(77.026635 546.245469) scale(0.1 -0.1)">
       <defs>
        <path id="ArialMT-2212" d="M 3381 1997 
L 356 1997 
L 356 2522 
L 3381 2522 
L 3381 1997 
z
" transform="scale(0.015625)"/>
        <path id="ArialMT-31" d="M 2384 0 
L 1822 0 
L 1822 3584 
Q 1619 3391 1289 3197 
Q 959 3003 697 2906 
L 697 3450 
Q 1169 3672 1522 3987 
Q 1875 4303 2022 4600 
L 2384 4600 
L 2384 0 
z
" transform="scale(0.015625)"/>
        <path id="ArialMT-35" d="M 266 1200 
L 856 1250 
Q 922 819 1161 601 
Q 1400 384 1738 384 
Q 2144 384 2425 690 
Q 2706 997 2706 1503 
Q 2706 1984 2436 2262 
Q 2166 2541 1728 2541 
Q 1456 2541 1237 2417 
Q 1019 2294 894 2097 
L 366 2166 
L 809 4519 
L 3088 4519 
L 3088 3981 
L 1259 3981 
L 1013 2750 
Q 1425 3038 1878 3038 
Q 2478 3038 2890 2622 
Q 3303 2206 3303 1553 
Q 3303 931 2941 478 
Q 2500 -78 1738 -78 
Q 1113 -78 717 272 
Q 322 622 266 1200 
z
" transform="scale(0.015625)"/>
       </defs>
       <use xlink:href="#ArialMT-2212"/>
       <use xlink:href="#ArialMT-31" transform="translate(58.398438 0)"/>
       <use xlink:href="#ArialMT-35" transform="translate(114.013672 0)"/>
      </g>
     </g>
    </g>
    <g id="xtick_2">
     <g id="line2d_3">
      <path d="M 157.310295 535.587656 
L 157.310295 21.207656 
" clip-path="url(#p02d6962ec8)" style="fill: none; stroke: #cccccc; stroke-width: 0.8; stroke-linecap: round"/>
     </g>
     <g id="line2d_4"/>
     <g id="text_2">
      <!-- −10 -->
      <g style="fill: #262626" transform="translate(148.829045 546.245469) scale(0.1 -0.1)">
       <defs>
        <path id="ArialMT-30" d="M 266 2259 
Q 266 3072 433 3567 
Q 600 4063 929 4331 
Q 1259 4600 1759 4600 
Q 2128 4600 2406 4451 
Q 2684 4303 2865 4023 
Q 3047 3744 3150 3342 
Q 3253 2941 3253 2259 
Q 3253 1453 3087 958 
Q 2922 463 2592 192 
Q 2263 -78 1759 -78 
Q 1097 -78 719 397 
Q 266 969 266 2259 
z
M 844 2259 
Q 844 1131 1108 757 
Q 1372 384 1759 384 
Q 2147 384 2411 759 
Q 2675 1134 2675 2259 
Q 2675 3391 2411 3762 
Q 2147 4134 1753 4134 
Q 1366 4134 1134 3806 
Q 844 3388 844 2259 
z
" transform="scale(0.015625)"/>
       </defs>
       <use xlink:href="#ArialMT-2212"/>
       <use xlink:href="#ArialMT-31" transform="translate(58.398438 0)"/>
       <use xlink:href="#ArialMT-30" transform="translate(114.013672 0)"/>
      </g>
     </g>
    </g>
    <g id="xtick_3">
     <g id="line2d_5">
      <path d="M 229.112706 535.587656 
L 229.112706 21.207656 
" clip-path="url(#p02d6962ec8)" style="fill: none; stroke: #cccccc; stroke-width: 0.8; stroke-linecap: round"/>
     </g>
     <g id="line2d_6"/>
     <g id="text_3">
      <!-- −5 -->
      <g style="fill: #262626" transform="translate(223.411924 546.245469) scale(0.1 -0.1)">
       <use xlink:href="#ArialMT-2212"/>
       <use xlink:href="#ArialMT-35" transform="translate(58.398438 0)"/>
      </g>
     </g>
    </g>
    <g id="xtick_4">
     <g id="line2d_7">
      <path d="M 300.915116 535.587656 
L 300.915116 21.207656 
" clip-path="url(#p02d6962ec8)" style="fill: none; stroke: #cccccc; stroke-width: 0.8; stroke-linecap: round"/>
     </g>
     <g id="line2d_8"/>
     <g id="text_4">
      <!-- 0 -->
      <g style="fill: #262626" transform="translate(298.134647 546.245469) scale(0.1 -0.1)">
       <use xlink:href="#ArialMT-30"/>
      </g>
     </g>
    </g>
    <g id="xtick_5">
     <g id="line2d_9">
      <path d="M 372.717526 535.587656 
L 372.717526 21.207656 
" clip-path="url(#p02d6962ec8)" style="fill: none; stroke: #cccccc; stroke-width: 0.8; stroke-linecap: round"/>
     </g>
     <g id="line2d_10"/>
     <g id="text_5">
      <!-- 5 -->
      <g style="fill: #262626" transform="translate(369.937058 546.245469) scale(0.1 -0.1)">
       <use xlink:href="#ArialMT-35"/>
      </g>
     </g>
    </g>
    <g id="xtick_6">
     <g id="line2d_11">
      <path d="M 444.519937 535.587656 
L 444.519937 21.207656 
" clip-path="url(#p02d6962ec8)" style="fill: none; stroke: #cccccc; stroke-width: 0.8; stroke-linecap: round"/>
     </g>
     <g id="line2d_12"/>
     <g id="text_6">
      <!-- 10 -->
      <g style="fill: #262626" transform="translate(438.958999 546.245469) scale(0.1 -0.1)">
       <use xlink:href="#ArialMT-31"/>
       <use xlink:href="#ArialMT-30" transform="translate(55.615234 0)"/>
      </g>
     </g>
    </g>
    <g id="xtick_7">
     <g id="line2d_13">
      <path d="M 516.322347 535.587656 
L 516.322347 21.207656 
" clip-path="url(#p02d6962ec8)" style="fill: none; stroke: #cccccc; stroke-width: 0.8; stroke-linecap: round"/>
     </g>
     <g id="line2d_14"/>
     <g id="text_7">
      <!-- 15 -->
      <g style="fill: #262626" transform="translate(510.76141 546.245469) scale(0.1 -0.1)">
       <use xlink:href="#ArialMT-31"/>
       <use xlink:href="#ArialMT-35" transform="translate(55.615234 0)"/>
      </g>
     </g>
    </g>
    <g id="text_8">
     <!-- x0 -->
     <g style="fill: #262626" transform="translate(295.942344 559.390781) scale(0.1 -0.1)">
      <defs>
       <path id="ArialMT-78" d="M 47 0 
L 1259 1725 
L 138 3319 
L 841 3319 
L 1350 2541 
Q 1494 2319 1581 2169 
Q 1719 2375 1834 2534 
L 2394 3319 
L 3066 3319 
L 1919 1756 
L 3153 0 
L 2463 0 
L 1781 1031 
L 1600 1309 
L 728 0 
L 47 0 
z
" transform="scale(0.015625)"/>
      </defs>
      <use xlink:href="#ArialMT-78"/>
      <use xlink:href="#ArialMT-30" transform="translate(50 0)"/>
     </g>
    </g>
   </g>
   <g id="matplotlib.axis_2">
    <g id="ytick_1">
     <g id="line2d_15">
      <path d="M 40.807813 496.579855 
L 561.637812 496.579855 
" clip-path="url(#p02d6962ec8)" style="fill: none; stroke: #cccccc; stroke-width: 0.8; stroke-linecap: round"/>
     </g>
     <g id="line2d_16"/>
     <g id="text_9">
      <!-- −20 -->
      <g style="fill: #262626" transform="translate(20.345313 500.158761) scale(0.1 -0.1)">
       <defs>
        <path id="ArialMT-32" d="M 3222 541 
L 3222 0 
L 194 0 
Q 188 203 259 391 
Q 375 700 629 1000 
Q 884 1300 1366 1694 
Q 2113 2306 2375 2664 
Q 2638 3022 2638 3341 
Q 2638 3675 2398 3904 
Q 2159 4134 1775 4134 
Q 1369 4134 1125 3890 
Q 881 3647 878 3216 
L 300 3275 
Q 359 3922 746 4261 
Q 1134 4600 1788 4600 
Q 2447 4600 2831 4234 
Q 3216 3869 3216 3328 
Q 3216 3053 3103 2787 
Q 2991 2522 2730 2228 
Q 2469 1934 1863 1422 
Q 1356 997 1212 845 
Q 1069 694 975 541 
L 3222 541 
z
" transform="scale(0.015625)"/>
       </defs>
       <use xlink:href="#ArialMT-2212"/>
       <use xlink:href="#ArialMT-32" transform="translate(58.398438 0)"/>
       <use xlink:href="#ArialMT-30" transform="translate(114.013672 0)"/>
      </g>
     </g>
    </g>
    <g id="ytick_2">
     <g id="line2d_17">
      <path d="M 40.807813 387.187186 
L 561.637812 387.187186 
" clip-path="url(#p02d6962ec8)" style="fill: none; stroke: #cccccc; stroke-width: 0.8; stroke-linecap: round"/>
     </g>
     <g id="line2d_18"/>
     <g id="text_10">
      <!-- −10 -->
      <g style="fill: #262626" transform="translate(20.345313 390.766093) scale(0.1 -0.1)">
       <use xlink:href="#ArialMT-2212"/>
       <use xlink:href="#ArialMT-31" transform="translate(58.398438 0)"/>
       <use xlink:href="#ArialMT-30" transform="translate(114.013672 0)"/>
      </g>
     </g>
    </g>
    <g id="ytick_3">
     <g id="line2d_19">
      <path d="M 40.807813 277.794518 
L 561.637812 277.794518 
" clip-path="url(#p02d6962ec8)" style="fill: none; stroke: #cccccc; stroke-width: 0.8; stroke-linecap: round"/>
     </g>
     <g id="line2d_20"/>
     <g id="text_11">
      <!-- 0 -->
      <g style="fill: #262626" transform="translate(31.746875 281.373424) scale(0.1 -0.1)">
       <use xlink:href="#ArialMT-30"/>
      </g>
     </g>
    </g>
    <g id="ytick_4">
     <g id="line2d_21">
      <path d="M 40.807813 168.401849 
L 561.637812 168.401849 
" clip-path="url(#p02d6962ec8)" style="fill: none; stroke: #cccccc; stroke-width: 0.8; stroke-linecap: round"/>
     </g>
     <g id="line2d_22"/>
     <g id="text_12">
      <!-- 10 -->
      <g style="fill: #262626" transform="translate(26.185938 171.980755) scale(0.1 -0.1)">
       <use xlink:href="#ArialMT-31"/>
       <use xlink:href="#ArialMT-30" transform="translate(55.615234 0)"/>
      </g>
     </g>
    </g>
    <g id="ytick_5">
     <g id="line2d_23">
      <path d="M 40.807813 59.00918 
L 561.637812 59.00918 
" clip-path="url(#p02d6962ec8)" style="fill: none; stroke: #cccccc; stroke-width: 0.8; stroke-linecap: round"/>
     </g>
     <g id="line2d_24"/>
     <g id="text_13">
      <!-- 20 -->
      <g style="fill: #262626" transform="translate(26.185938 62.588086) scale(0.1 -0.1)">
       <use xlink:href="#ArialMT-32"/>
       <use xlink:href="#ArialMT-30" transform="translate(55.615234 0)"/>
      </g>
     </g>
    </g>
    <g id="text_14">
     <!-- x1 -->
     <g style="fill: #262626" transform="translate(14.357813 283.678125) rotate(-90) scale(0.1 -0.1)">
      <use xlink:href="#ArialMT-78"/>
      <use xlink:href="#ArialMT-31" transform="translate(50 0)"/>
     </g>
    </g>
   </g>
   <g id="line2d_25">
    <path d="M 444.519937 168.401849 
L 444.994807 160.928498 
L 446.332119 153.917245 
L 448.391075 147.486453 
L 451.017738 141.786042 
L 454.045464 136.987507 
L 457.320814 133.098354 
L 460.724243 130.022889 
L 464.142206 127.739354 
L 467.464622 126.303 
L 470.584866 125.846092 
L 473.406876 126.639731 
L 475.791966 128.752237 
L 477.592472 131.931186 
L 478.727889 135.975573 
L 479.185884 140.741932 
L 478.999094 146.173022 
L 478.111101 152.353178 
L 476.485026 159.245509 
L 474.109245 166.747649 
L 470.991308 174.704073 
L 467.156 182.90193 
L 462.641051 191.0627 
L 457.544497 199.004745 
L 451.972155 206.594373 
L 446.025185 213.723533 
L 439.800091 220.309817 
L 433.388719 226.296453 
L 426.878259 231.652311 
L 420.351242 236.371901 
L 413.885543 240.475373 
L 407.566272 243.925113 
L 401.471093 246.676754 
L 395.649165 248.808276 
L 390.14213 250.390912 
L 384.98426 251.488208 
L 380.202459 252.156032 
L 375.816258 252.442566 
L 371.837818 252.38831 
L 368.271933 252.026083 
L 365.107541 251.383307 
L 362.333318 250.493653 
L 359.946971 249.389775 
L 357.942394 248.099092 
L 356.309661 246.643786 
L 355.035026 245.04081 
L 354.100922 243.301876 
L 353.485963 241.433468 
L 353.164941 239.436831 
L 353.115235 237.301679 
L 353.338671 235.003413 
L 353.838426 232.529264 
L 354.616493 229.866638 
L 355.673987 227.002499 
L 357.01114 223.923373 
L 358.627303 220.615345 
L 360.520949 217.064061 
L 362.689668 213.254725 
L 365.14157 209.180268 
L 370.970064 200.223413 
L 378.005607 190.048664 
L 386.283578 178.544696 
L 395.924808 165.673093 
L 401.31777 158.73236 
L 407.083468 151.537673 
L 413.191928 144.256183 
L 419.644346 137.010408 
L 426.411262 129.911204 
L 433.43252 123.057812 
L 440.617259 116.537855 
L 447.867954 110.458795 
L 455.123374 105.254611 
L 462.264948 101.430684 
L 469.126227 99.309538 
L 475.494036 99.028188 
L 481.129186 100.496965 
L 485.918238 103.594355 
L 489.788228 108.389092 
L 492.622699 114.935945 
L 494.26111 123.269775 
L 494.541708 133.25319 
L 493.465311 144.29792 
L 491.077073 155.958576 
L 487.450372 167.834592 
L 482.688481 179.560449 
L 476.925295 190.865986 
L 470.324577 201.643878 
L 463.053202 211.728121 
L 455.269825 220.997301 
L 447.124785 229.380639 
L 438.759644 236.850045 
L 430.31193 243.300377 
L 421.930409 248.700725 
L 413.743863 253.089592 
L 405.855441 256.542911 
L 398.342662 259.174043 
L 391.257414 261.133778 
L 384.637911 262.523595 
L 378.511691 263.377335 
L 372.889239 263.774839 
L 367.774658 263.787057 
L 363.165677 263.476007 
L 359.053646 262.894784 
L 355.423543 262.087552 
L 352.253263 261.091409 
L 349.518593 259.939137 
L 347.196845 258.656052 
L 345.265453 257.260093 
L 343.701974 255.76181 
L 342.484087 254.164377 
L 341.589593 252.46358 
L 340.995914 250.647901 
L 340.683716 248.707209 
L 340.648413 246.640556 
L 340.886216 244.44531 
L 341.39208 242.116075 
L 342.159702 239.644688 
L 343.181521 237.02022 
L 344.44872 234.228979 
L 345.951224 231.254505 
L 347.682516 228.07999 
L 351.87754 221.091294 
L 357.094983 213.167651 
L 363.387101 204.214553 
L 370.806716 194.143952 
L 379.427553 182.891388 
L 389.321945 170.324846 
L 400.563463 156.379221 
L 406.723557 148.918403 
L 413.234122 141.225389 
L 420.072372 133.539501 
L 427.227846 126.099883 
L 434.639962 119.141228 
L 442.197636 112.894052 
L 449.739972 107.584892 
L 457.143876 103.409521 
L 464.278265 100.369016 
L 471.033993 98.36207 
L 477.341416 97.631014 
L 483.014257 98.794151 
L 487.881332 101.740972 
L 491.822728 106.299184 
L 494.693406 112.723142 
L 496.370301 120.855692 
L 496.79023 130.237044 
L 495.947568 140.336639 
L 493.86607 151.243705 
L 490.591036 162.605434 
L 486.197642 174.072368 
L 480.786579 185.369686 
L 474.49228 196.278732 
L 467.477438 206.590269 
L 459.898054 216.151225 
L 451.902344 224.866716 
L 443.63073 232.700047 
L 435.21517 239.647444 
L 426.788372 245.582718 
L 418.489895 250.493887 
L 410.437111 254.429933 
L 402.722516 257.475847 
L 395.413731 259.752631 
L 388.55357 261.416731 
L 382.173635 262.547049 
L 376.293133 263.181047 
L 370.917972 263.395518 
L 366.048361 263.257046 
L 361.67881 262.822006 
L 357.798132 262.136561 
L 354.389177 261.237561 
L 351.428321 260.162296 
L 348.892608 258.941362 
L 346.759643 257.596953 
L 345.007126 256.143794 
L 343.612855 254.58914 
L 342.554726 252.932777 
L 341.81073 251.167019 
L 341.357949 249.278231 
L 341.184659 247.261192 
L 341.288055 245.114635 
L 341.664081 242.834611 
L 342.307354 240.41446 
L 343.211164 237.844812 
L 344.367474 235.113584 
L 345.766921 232.205985 
L 347.398928 229.104568 
L 351.38393 222.273546 
L 356.385836 214.529863 
L 362.455154 205.778331 
L 369.644772 195.928841 
L 378.019923 184.908202 
L 387.663213 172.596665 
L 398.640052 158.898598 
L 411.043552 143.946907 
L 417.814049 136.189 
L 424.903671 128.590119 
L 432.224617 121.428925 
L 439.683576 114.933761 
L 447.181733 109.282653 
L 454.614765 104.603308 
L 461.87172 100.972293 
L 468.755966 98.438166 
L 475.186544 97.350866 
L 481.097167 98.075657 
L 486.329432 100.861727 
L 490.632813 105.842193 
L 493.678595 113.031143 
L 495.358797 122.167023 
L 495.644455 132.722942 
L 494.515199 144.218607 
L 492.00794 156.245711 
L 488.216877 168.467936 
L 483.260562 180.57846 
L 477.281147 192.29916 
L 470.449274 203.422192 
L 462.932261 213.780738 
L 454.894105 223.249011 
L 446.495483 231.742248 
L 437.892849 239.213294 
L 429.234834 245.613425 
L 420.671273 250.940833 
L 412.330238 255.239323 
L 404.313854 258.590449 
L 396.698303 261.113513 
L 389.533821 262.965568 
L 382.854964 264.255627 
L 376.686342 265.018584 
L 371.036556 265.337614 
L 365.907344 265.285394 
L 361.293603 264.923984 
L 357.183382 264.304827 
L 353.557691 263.469462 
L 350.392279 262.456196 
L 347.663814 261.297554 
L 345.348909 260.018103 
L 343.423902 258.634606 
L 341.864848 257.156017 
L 340.647527 255.583488 
L 339.747434 253.910363 
L 339.140242 252.1256 
L 338.81536 250.227443 
L 338.767179 248.214974 
L 338.988954 246.084327 
L 339.472806 243.828693 
L 340.209721 241.438316 
L 341.18955 238.900495 
L 342.40101 236.199583 
L 343.83449 233.318718 
L 345.499151 230.248321 
L 349.54843 223.479564 
L 354.596772 215.776274 
L 360.69542 207.032734 
L 367.905392 197.165687 
L 376.304391 186.131178 
L 385.951467 173.826462 
L 396.938984 160.167795 
L 409.268819 145.254344 
L 415.970408 137.502848 
L 423.052255 129.700678 
L 430.479156 121.999387 
L 438.173993 114.584377 
L 446.01774 107.674899 
L 453.886009 101.565001 
L 461.691989 96.646837 
L 469.267671 93.074199 
L 476.486052 90.799603 
L 483.228988 90.212632 
L 489.246509 91.806853 
L 494.334583 95.490852 
L 498.385272 100.9627 
L 501.237436 108.686742 
L 502.686129 118.51071 
L 502.661215 129.840351 
L 501.171659 142.140968 
L 498.234806 155.165459 
L 493.918989 168.564581 
L 488.333281 181.961369 
L 481.618398 194.938499 
L 473.960187 207.156688 
L 465.571942 218.413959 
L 456.654343 228.568785 
L 447.395034 237.539174 
L 437.96862 245.302674 
L 428.537244 251.88876 
L 419.251794 257.328089 
L 410.241188 261.683412 
L 401.61037 265.043371 
L 393.44056 267.519148 
L 385.789249 269.244459 
L 378.690495 270.373027 
L 372.162231 270.99938 
L 366.205328 271.195631 
L 360.812092 271.039409 
L 355.969553 270.597406 
L 351.659462 269.925381 
L 347.858292 269.068155 
L 344.535591 268.065283 
L 341.660791 266.948491 
L 339.206245 265.738521 
L 337.14449 264.450267 
L 335.448246 263.092775 
L 334.090411 261.669244 
L 333.044066 260.177022 
L 332.281461 258.608286 
L 331.782514 256.960216 
L 331.539769 255.233657 
L 331.545507 253.425821 
L 331.791202 251.530125 
L 332.267526 249.536188 
L 332.964345 247.42983 
L 333.870723 245.193074 
L 336.269058 240.240128 
L 339.48066 234.525868 
L 343.587184 227.886997 
L 348.675332 220.125495 
L 358.383331 205.879569 
L 366.473296 194.346721 
L 376.06252 181.128438 
L 381.455283 173.921413 
L 387.257444 166.353385 
L 393.474014 158.47169 
L 400.105863 150.297558 
L 407.144687 141.813789 
L 414.586281 133.0421 
L 422.431111 124.045877 
L 430.677117 115.117184 
L 439.229324 106.611918 
L 447.968117 98.721118 
L 456.795094 91.638152 
L 465.625717 85.611954 
L 474.282894 81.116173 
L 482.56466 78.193883 
L 490.327655 77.12435 
L 497.31345 78.614966 
L 503.294604 82.38783 
L 508.080344 88.788151 
L 511.425659 97.948303 
L 513.163557 109.226185 
L 513.200042 122.372905 
L 511.486059 137.218739 
L 507.996174 153.413746 
L 502.736448 170.416544 
L 495.828811 187.531098 
L 487.476717 204.146924 
L 477.910757 219.754788 
L 467.387912 233.944767 
L 456.191559 246.406252 
L 444.623844 256.993221 
L 432.947133 265.844921 
L 421.378401 273.079924 
L 410.100858 278.832144 
L 399.263907 283.256196 
L 388.983349 286.527357 
L 379.349133 288.833383 
L 370.398584 290.351738 
L 362.143863 291.240704 
L 354.586965 291.638164 
L 347.719712 291.661598 
L 341.52376 291.408087 
L 335.970595 290.95431 
L 331.014323 290.363066 
L 326.606085 289.690116 
L 319.270362 288.265825 
L 311.314718 286.336613 
L 303.439973 284.304039 
L 301.479304 283.965598 
L 299.918084 283.881946 
L 298.634823 284.046125 
L 297.515353 284.446773 
L 296.47236 285.084064 
L 295.438321 285.971953 
L 293.759147 287.818706 
L 291.763346 290.400484 
L 287.163854 296.886534 
L 279.954735 307.548711 
L 244.315168 360.655025 
L 232.870869 377.105445 
L 219.227507 396.252071 
L 211.517799 406.779714 
L 203.19902 417.844984 
L 194.268852 429.331232 
L 184.73335 441.087646 
L 174.610606 452.893264 
L 163.977711 464.478439 
L 152.947549 475.615269 
L 141.637681 486.045112 
L 130.170104 495.477165 
L 118.6918 503.554303 
L 107.486059 509.439977 
L 96.790169 512.206747 
L 86.918485 511.203946 
L 78.291492 506.051558 
L 71.435049 496.638923 
L 66.77 483.034035 
L 64.481903 465.863235 
L 64.721554 445.878153 
L 67.571571 423.701135 
L 73.046398 399.825244 
L 81.082558 375.04261 
L 91.408466 351.190977 
L 103.616219 329.113188 
L 117.280976 309.349473 
L 131.963385 292.206025 
L 147.217942 277.765352 
L 162.655749 265.970152 
L 177.936215 256.651545 
L 192.779206 249.56504 
L 206.968363 244.395215 
L 220.3511 240.755719 
L 232.831703 238.293294 
L 244.366823 236.791204 
L 254.9479 236.013847 
L 264.585843 235.75942 
L 273.310998 235.860205 
L 281.173319 236.182336 
L 294.58813 237.090179 
L 305.346248 237.915227 
L 309.891432 238.172408 
L 313.972318 238.276335 
L 317.660754 238.200115 
L 321.03038 237.925121 
L 324.135827 237.437587 
L 327.021026 236.723377 
L 329.732074 235.770944 
L 332.314695 234.571807 
L 334.814248 233.120546 
L 337.275719 231.414804 
L 337.275719 231.414804 
" clip-path="url(#p02d6962ec8)" style="fill: none; stroke: #000000; stroke-opacity: 0.3; stroke-width: 7; stroke-linecap: round"/>
   </g>
   <g id="line2d_26">
    <path d="M 444.519937 168.401849 
L 444.594731 167.198696 
L 444.816214 165.915992 
L 445.179411 164.572126 
L 446.304525 161.779203 
L 447.887257 158.984044 
L 449.829363 156.355016 
L 452.005005 154.058075 
L 454.275842 152.242529 
L 455.400265 151.560163 
L 456.493073 151.042186 
L 457.536619 150.696685 
L 458.513872 150.530766 
L 459.407953 150.548878 
L 460.201513 150.752839 
L 460.884479 151.133091 
L 461.44678 151.680071 
L 461.879119 152.383782 
L 462.173888 153.230586 
L 462.325433 154.202587 
L 462.336466 155.277597 
L 462.209696 156.433427 
L 461.948307 157.648311 
L 461.557977 158.898458 
L 460.430322 161.405471 
L 458.928782 163.780427 
L 457.168961 165.862508 
L 455.28261 167.532816 
L 453.399178 168.709589 
L 451.644505 169.341743 
L 450.847674 169.452492 
L 450.12034 169.427448 
L 449.473584 169.269213 
L 448.91697 168.982737 
L 448.455382 168.576551 
L 448.093705 168.059185 
L 447.836261 167.439429 
L 447.686316 166.727288 
L 447.709877 165.074292 
L 448.145 163.206069 
L 448.959096 161.235218 
L 450.091408 159.28282 
L 451.465974 157.468536 
L 452.99299 155.91035 
L 454.571993 154.703985 
L 456.099527 153.93412 
L 457.476262 153.646397 
L 458.080483 153.688361 
L 458.614097 153.854837 
L 459.067761 154.142264 
L 459.436546 154.541723 
L 459.715522 155.044291 
L 459.900512 155.640766 
L 459.977583 157.06698 
L 459.677105 158.705391 
L 459.031362 160.433749 
L 458.094719 162.125356 
L 456.944103 163.670578 
L 455.663902 164.968961 
L 454.344849 165.950911 
L 453.074168 166.569579 
L 451.934458 166.800076 
L 450.989928 166.650351 
L 450.296626 166.140708 
L 449.886633 165.317439 
L 449.77622 164.239154 
L 449.965539 162.976947 
L 450.430958 161.612505 
L 451.139584 160.231396 
L 452.039324 158.920151 
L 453.069769 157.760638 
L 454.162127 156.828877 
L 455.244966 156.179336 
L 456.246413 155.856748 
L 457.103099 155.874244 
L 457.761417 156.224756 
L 458.179207 156.878782 
L 458.338493 157.779289 
L 458.231645 158.858587 
L 457.876808 160.034676 
L 457.305191 161.224259 
L 456.562041 162.344328 
L 455.704155 163.326113 
L 454.792333 164.107556 
L 453.88841 164.649487 
L 453.050589 164.927173 
L 452.332105 164.932 
L 451.772167 164.67726 
L 451.403903 164.184912 
L 451.242161 163.494987 
L 451.29126 162.65497 
L 451.543277 161.720738 
L 451.974607 160.752815 
L 452.888718 159.373159 
L 453.992632 158.250254 
L 454.752874 157.72566 
L 455.475094 157.415997 
L 456.111227 157.34163 
L 456.622657 157.499601 
L 456.978332 157.874587 
L 457.157104 158.436178 
L 457.154495 159.139025 
L 456.97327 159.931762 
L 456.411665 161.164889 
L 455.593028 162.284047 
L 454.65112 163.134327 
L 453.729389 163.606895 
L 453.191741 163.688067 
L 452.755305 163.581084 
L 452.442957 163.301071 
L 452.272923 162.869232 
L 452.249842 162.318633 
L 452.483541 161.353004 
L 452.993757 160.347715 
L 453.697677 159.447878 
L 454.486553 158.778219 
L 455.243287 158.430634 
L 455.675716 158.399245 
L 456.017525 158.52883 
L 456.250065 158.804781 
L 456.358865 159.206302 
L 456.287512 159.973052 
L 455.956079 160.825932 
L 455.426713 161.635151 
L 454.785791 162.283972 
L 454.132193 162.68771 
L 453.560645 162.802148 
L 453.150388 162.624307 
L 452.951068 162.194926 
L 452.982635 161.584892 
L 453.230087 160.888213 
L 453.81558 160.000945 
L 454.540585 159.362863 
L 455.060526 159.142967 
L 455.477233 159.173334 
L 455.733346 159.440904 
L 455.798359 159.895788 
L 455.671406 160.46239 
L 455.252983 161.23817 
L 454.668406 161.854497 
L 454.076366 162.166388 
L 453.718718 162.162242 
L 453.490343 161.962018 
L 453.417064 161.60418 
L 453.564411 160.98274 
L 453.939336 160.349415 
L 454.434824 159.864036 
L 454.919281 159.642133 
L 455.270607 159.726622 
L 455.394956 159.971056 
L 455.35097 160.458153 
L 455.004768 161.130188 
L 454.488987 161.622441 
L 454.097853 161.763549 
L 453.831991 161.653108 
L 453.750878 161.333764 
L 453.919152 160.783655 
L 454.301285 160.276814 
L 454.734793 160.006635 
L 455.001554 160.025698 
L 455.126758 160.239604 
L 455.052211 160.67756 
L 454.698968 161.204836 
L 454.269997 161.462874 
L 454.030957 161.381733 
L 453.992222 161.08045 
L 454.205063 160.616216 
L 454.621996 160.261798 
L 454.858652 160.26601 
L 454.940956 160.475959 
L 454.811558 160.860267 
L 454.474632 161.208137 
L 454.220815 161.243234 
L 454.141537 161.07962 
L 454.237177 160.763253 
L 454.555544 160.438233 
L 454.776565 160.452176 
L 454.793314 160.668374 
L 454.582791 161.008259 
L 454.303018 161.103576 
L 454.255142 160.951381 
L 454.400469 160.659219 
L 454.458637 160.602074 
L 454.458637 160.602074 
" clip-path="url(#p02d6962ec8)" style="fill: none; stroke-dasharray: 22.4,5.6,3.5,5.6; stroke-dashoffset: 0; stroke: #0000ff; stroke-opacity: 0.8; stroke-width: 3.5"/>
   </g>
   <g id="patch_3">
    <path d="M 40.807813 535.587656 
L 40.807813 21.207656 
" style="fill: none; stroke: #cccccc; stroke-linejoin: miter; stroke-linecap: square"/>
   </g>
   <g id="patch_4">
    <path d="M 561.637812 535.587656 
L 561.637812 21.207656 
" style="fill: none; stroke: #cccccc; stroke-linejoin: miter; stroke-linecap: square"/>
   </g>
   <g id="patch_5">
    <path d="M 40.807813 535.587656 
L 561.637813 535.587656 
" style="fill: none; stroke: #cccccc; stroke-linejoin: miter; stroke-linecap: square"/>
   </g>
   <g id="patch_6">
    <path d="M 40.807813 21.207656 
L 561.637813 21.207656 
" style="fill: none; stroke: #cccccc; stroke-linejoin: miter; stroke-linecap: square"/>
   </g>
   <g id="line2d_27">
    <path d="M 444.519937 168.401849 
L 447.699434 161.167161 
L 451.05816 154.341408 
L 454.696514 148.033215 
L 458.622291 142.37256 
L 462.779744 137.50062 
L 466.998947 133.552759 
L 471.07889 130.63683 
L 474.832024 128.817793 
L 478.143263 128.118052 
L 480.918264 128.567129 
L 483.056807 130.212071 
L 484.437577 133.089005 
L 484.951336 137.169726 
L 484.540993 142.336286 
L 483.229835 148.413608 
L 481.127734 155.210121 
L 478.422753 162.551404 
L 475.345017 170.284586 
L 471.973004 178.263836 
L 468.297315 186.337617 
L 464.166196 194.334428 
L 459.453902 202.073409 
L 454.186465 209.386199 
L 448.538646 216.138995 
L 442.744206 222.243548 
L 437.005284 227.653882 
L 431.428477 232.358375 
L 426.063141 236.360216 
L 420.926107 239.673653 
L 416.041983 242.323037 
L 411.458666 244.340005 
L 407.224632 245.782002 
L 403.381933 246.711335 
L 399.939729 247.200164 
L 396.871405 247.314473 
L 394.133726 247.111368 
L 391.678795 246.625633 
L 389.463964 245.880389 
L 387.46698 244.880691 
L 385.678636 243.624756 
L 384.103947 242.106369 
L 382.754581 240.322754 
L 381.643204 238.272638 
L 380.778292 235.965854 
L 380.165647 233.417815 
L 379.812331 230.64526 
L 379.725466 227.669715 
L 379.927717 224.507572 
L 380.442601 221.173837 
L 381.305403 217.680698 
L 382.548565 214.030041 
L 384.200269 210.221653 
L 386.287142 206.251332 
L 388.807281 202.111116 
L 391.73089 197.794275 
L 395.019376 193.296193 
L 402.40409 183.758415 
L 418.583084 163.167544 
L 422.864628 157.970127 
L 427.345811 152.885753 
L 432.067618 148.002129 
L 437.046814 143.415547 
L 442.204951 139.243864 
L 447.42424 135.610499 
L 452.533026 132.644565 
L 457.3704 130.441968 
L 461.801462 129.079674 
L 465.757018 128.606092 
L 469.195 129.06749 
L 472.058684 130.528621 
L 474.240939 133.026801 
L 475.627993 136.57066 
L 476.126391 141.097973 
L 475.737018 146.478606 
L 474.514031 152.562101 
L 472.621226 159.196146 
L 470.247129 166.240039 
L 467.577807 173.567735 
L 464.635961 181.04951 
L 461.372066 188.548486 
L 457.644987 195.910529 
L 453.382852 202.982787 
L 448.606613 209.615991 
L 443.481463 215.710912 
L 438.19436 221.193655 
L 432.917811 226.026805 
L 427.751116 230.204395 
L 422.767764 233.727779 
L 418.01302 236.614329 
L 413.532014 238.891492 
L 409.375921 240.596238 
L 405.576824 241.784325 
L 402.153516 242.515782 
L 399.095356 242.855011 
L 396.367341 242.855816 
L 393.927535 242.564873 
L 391.736174 242.008524 
L 389.761771 241.202501 
L 387.988072 240.150194 
L 386.412999 238.848678 
L 385.043407 237.291303 
L 383.893549 235.477054 
L 382.978375 233.407221 
L 382.312087 231.088507 
L 381.909755 228.535591 
L 381.787832 225.763391 
L 381.964142 222.792406 
L 382.46451 219.636074 
L 383.316648 216.305193 
L 384.547721 212.809696 
L 386.181737 209.152918 
L 388.227091 205.333582 
L 390.682975 201.348569 
L 393.521416 197.194474 
L 396.698323 192.869591 
L 403.804481 183.727427 
L 419.344155 164.127329 
L 423.437004 159.216513 
L 427.695665 154.432157 
L 432.149722 149.859606 
L 436.816519 145.59135 
L 441.621288 141.734138 
L 446.455886 138.397503 
L 451.180887 135.688902 
L 455.656081 133.690608 
L 459.767697 132.464792 
L 463.448299 132.055234 
L 466.648732 132.500073 
L 469.302231 133.864421 
L 471.313868 136.174434 
L 472.586754 139.423349 
L 473.04407 143.574802 
L 472.68634 148.520218 
L 471.586867 154.129228 
L 469.887977 160.265652 
L 467.758227 166.801604 
L 465.352138 173.618943 
L 462.692526 180.597841 
L 459.738986 187.612954 
L 456.369961 194.525698 
L 452.495722 201.193813 
L 448.124406 207.484973 
L 443.365888 213.291615 
L 438.381199 218.537668 
L 433.3328 223.177242 
L 428.34304 227.192362 
L 423.501269 230.582194 
L 418.876844 233.357257 
L 414.52411 235.546686 
L 410.493925 237.187342 
L 406.816328 238.331359 
L 403.500512 239.035814 
L 400.535804 239.362755 
L 397.887402 239.359896 
L 395.517863 239.069708 
L 393.389478 238.52118 
L 391.476998 237.727231 
L 389.763499 236.693953 
L 388.249007 235.418928 
L 386.941016 233.898501 
L 385.854208 232.127659 
L 385.007159 230.109864 
L 384.418833 227.849575 
L 384.107943 225.356942 
L 384.096003 222.646422 
L 384.404663 219.732509 
L 385.059047 216.630447 
L 386.082483 213.351394 
L 387.49151 209.901797 
L 389.297449 206.28757 
L 391.508918 202.509069 
L 394.096601 198.566845 
L 397.0244 194.461915 
L 403.689886 185.784781 
L 418.524784 167.128006 
L 422.400693 162.426542 
L 426.388867 157.834315 
L 430.52599 153.426612 
L 434.828567 149.287721 
L 439.260561 145.512042 
L 443.748012 142.197406 
L 448.176632 139.436964 
L 452.42243 137.312454 
L 456.379052 135.882792 
L 459.967021 135.191392 
L 463.13188 135.275042 
L 465.815799 136.174191 
L 467.9357 137.938883 
L 469.409511 140.563611 
L 470.160935 144.037359 
L 470.155236 148.295505 
L 469.447941 153.229499 
L 468.139144 158.721882 
L 466.374647 164.653595 
L 464.294463 170.911016 
L 461.976974 177.38407 
L 459.414262 183.959574 
L 456.519261 190.514891 
L 453.18953 196.920384 
L 449.375801 203.047897 
L 445.115161 208.781551 
L 440.525143 214.032708 
L 435.753546 218.734092 
L 430.937318 222.853814 
L 426.196472 226.373606 
L 421.618195 229.299223 
L 417.274994 231.648223 
L 413.224297 233.45261 
L 409.501928 234.757697 
L 406.131567 235.616783 
L 403.101587 236.084339 
L 400.391034 236.211668 
L 397.965611 236.045471 
L 395.792943 235.613241 
L 393.844702 234.936467 
L 392.100923 234.025858 
L 390.559962 232.881416 
L 389.22497 231.501597 
L 388.109192 229.882051 
L 387.232068 228.022224 
L 386.614091 225.923944 
L 386.277462 223.592254 
L 386.244497 221.039096 
L 386.537323 218.276452 
L 387.177342 215.316754 
L 388.189003 212.173138 
L 389.580234 208.852757 
L 391.357595 205.362978 
L 393.519761 201.708809 
L 396.050291 197.891556 
L 398.900407 193.917758 
L 405.353111 185.531502 
L 419.68361 167.63698 
L 423.411842 163.171884 
L 427.223012 158.829563 
L 431.161897 154.682481 
L 435.209923 150.815601 
L 439.344638 147.311518 
L 443.500883 144.264503 
L 447.579007 141.751308 
L 451.479228 139.833663 
L 455.107493 138.567985 
L 458.395801 137.989994 
L 461.288608 138.133782 
L 463.728168 139.033817 
L 465.640748 140.722129 
L 466.950432 143.207876 
L 467.588327 146.475219 
L 467.555764 150.456076 
L 466.888492 155.066241 
L 465.686146 160.200078 
L 464.076258 165.750632 
L 462.177924 171.612886 
L 460.050725 177.683844 
L 457.686737 183.857369 
L 455.009391 190.019712 
L 451.929127 196.051353 
L 448.395986 201.834162 
L 444.427391 207.256489 
L 440.12628 212.2356 
L 435.614997 216.70153 
L 431.028363 220.617545 
L 426.486799 223.963833 
L 422.08746 226.741841 
L 417.905204 228.970536 
L 414.005271 230.678435 
L 410.419158 231.910833 
L 407.164247 232.716552 
L 404.236981 233.149179 
L 401.612808 233.254068 
L 399.264477 233.07221 
L 397.160976 232.634583 
L 395.281685 231.957195 
L 393.611044 231.051549 
L 392.145907 229.919845 
L 390.894904 228.560319 
L 389.870755 226.969442 
L 389.093557 225.145247 
L 388.585905 223.090769 
L 388.36986 220.809767 
L 388.470199 218.310235 
L 388.906632 215.602964 
L 389.697378 212.699002 
L 390.85859 209.609077 
L 392.398124 206.342275 
L 394.311392 202.905903 
L 396.586632 199.306124 
L 399.190916 195.549661 
L 405.203445 187.602976 
L 415.367765 174.881571 
L 422.427602 166.272877 
L 426.029635 162.088299 
L 429.705009 158.071572 
L 433.464388 154.296843 
L 437.290153 150.841874 
L 441.143984 147.787004 
L 444.950385 145.203947 
L 448.627861 143.156078 
L 452.086948 141.697619 
L 455.265408 140.862105 
L 458.105039 140.679643 
L 460.552954 141.1836 
L 462.546561 142.399557 
L 464.018401 144.346257 
L 464.90724 147.022081 
L 465.185978 150.389125 
L 464.869644 154.383789 
L 464.025289 158.920434 
L 462.753107 163.904449 
L 461.161561 169.239208 
L 459.328293 174.828647 
L 457.279312 180.575595 
L 454.973901 186.377714 
L 452.336919 192.126937 
L 449.296521 197.711835 
L 445.831883 203.025359 
L 441.982944 207.971801 
L 437.845601 212.47494 
L 433.540126 216.481766 
L 429.193728 219.956298 
L 424.912191 222.891433 
L 420.78757 225.292877 
L 416.89652 227.180567 
L 413.281981 228.592765 
L 409.974899 229.571634 
L 406.981766 230.166086 
L 404.288763 230.4213 
L 401.875194 230.380708 
L 399.715626 230.076202 
L 397.789366 229.528994 
L 396.079018 228.755618 
L 394.579051 227.761922 
L 393.294917 226.548167 
L 392.236073 225.113253 
L 391.420411 223.454389 
L 390.869602 221.571551 
L 390.604835 219.466622 
L 390.652479 217.143004 
L 391.029448 214.609936 
L 391.752604 211.876688 
L 392.836946 208.952781 
L 394.289335 205.848014 
L 396.103029 202.571132 
L 398.264408 199.13072 
L 400.745121 195.535515 
L 406.485666 187.927767 
L 416.232267 175.777129 
L 422.997249 167.590728 
L 426.424692 163.623854 
L 429.892537 159.825403 
L 433.415625 156.264616 
L 436.970713 153.012223 
L 440.524173 150.137099 
L 444.021592 147.70867 
L 447.3928 145.780221 
L 450.57043 144.393081 
L 453.492543 143.582667 
L 456.10853 143.376015 
L 458.366674 143.798685 
L 460.213669 144.875374 
L 461.5912 146.621233 
L 462.447402 149.034686 
L 462.759854 152.086323 
L 462.540768 155.724098 
L 461.842777 159.876416 
L 460.74539 164.459822 
L 459.355484 169.388537 
L 457.721344 174.573227 
L 455.871764 179.923479 
L 453.784969 185.345874 
L 451.397949 190.740095 
L 448.65032 196.004137 
L 445.504422 201.037228 
L 441.986974 205.748388 
L 438.169122 210.060644 
L 434.156387 213.917328 
L 430.062568 217.282945 
L 426.000358 220.138428 
L 422.06066 222.488565 
L 418.316677 224.351712 
L 414.828042 225.756586 
L 411.618838 226.744502 
L 408.701579 227.358088 
L 406.071574 227.642681 
L 403.710792 227.63408 
L 401.600619 227.364498 
L 399.72073 226.859116 
L 398.061824 226.129839 
L 396.618177 225.185794 
L 395.391892 224.029804 
L 394.396266 222.660639 
L 393.646373 221.077576 
L 393.163517 219.276978 
L 392.968413 217.261822 
L 393.081393 215.03618 
L 393.519444 212.604922 
L 394.30546 209.975576 
L 395.4421 207.157534 
L 396.927306 204.160468 
L 398.754579 200.995124 
L 400.912878 197.668829 
L 403.36537 194.194442 
L 408.967852 186.867969 
L 418.34574 175.270354 
L 424.806499 167.576528 
L 428.057644 163.892109 
L 431.324752 160.398547 
L 434.605954 157.159126 
L 437.884708 154.238627 
L 441.123475 151.696406 
L 444.274833 149.588601 
L 447.282705 147.957766 
L 450.092496 146.838938 
L 452.654788 146.259413 
L 454.926704 146.238964 
L 456.857972 146.806678 
L 458.397727 147.981425 
L 459.508697 149.758955 
L 460.154703 152.134515 
L 460.316936 155.0864 
L 460.021244 158.560805 
L 459.32326 162.491384 
L 458.29222 166.806575 
L 456.995157 171.427116 
L 455.47886 176.27191 
L 453.756083 181.257496 
L 451.791168 186.29497 
L 449.53028 191.2922 
L 446.927949 196.155399 
L 443.965893 200.795209 
L 440.659706 205.122525 
L 437.089284 209.076494 
L 433.342185 212.604396 
L 429.527703 215.667032 
L 425.741051 218.258451 
L 422.068853 220.380742 
L 418.588242 222.048641 
L 415.338729 223.294945 
L 412.347727 224.15546 
L 409.628717 224.670398 
L 407.174303 224.877163 
L 404.972634 224.808399 
L 403.008554 224.493941 
L 401.269977 223.95264 
L 399.751146 223.196032 
L 398.449995 222.232715 
L 397.37205 221.065117 
L 396.531416 219.692618 
L 395.942646 218.115263 
L 395.627176 216.329997 
L 395.602681 214.339898 
L 395.88628 212.148735 
L 396.491332 209.761187 
L 397.436298 207.18344 
L 398.717862 204.425069 
L 400.32625 201.496518 
L 402.250101 198.408636 
L 404.466639 195.172768 
L 409.614803 188.324469 
L 415.394562 181.112924 
L 424.49819 170.204678 
L 430.585653 163.410693 
L 433.612225 160.322009 
L 436.61909 157.519365 
L 439.574865 155.052592 
L 442.446587 152.970672 
L 442.446587 152.970672 
" clip-path="url(#p02d6962ec8)" style="fill: none; stroke-dasharray: 3.5,5.775; stroke-dashoffset: 0; stroke: #008000; stroke-opacity: 0.8; stroke-width: 3.5"/>
   </g>
   <g id="text_15">
    <!-- Phase Portrait (x0 vs x1) -->
    <g style="fill: #262626" transform="translate(241.010703 15.207656) scale(0.11 -0.11)">
     <defs>
      <path id="ArialMT-50" d="M 494 0 
L 494 4581 
L 2222 4581 
Q 2678 4581 2919 4538 
Q 3256 4481 3484 4323 
Q 3713 4166 3852 3881 
Q 3991 3597 3991 3256 
Q 3991 2672 3619 2267 
Q 3247 1863 2275 1863 
L 1100 1863 
L 1100 0 
L 494 0 
z
M 1100 2403 
L 2284 2403 
Q 2872 2403 3119 2622 
Q 3366 2841 3366 3238 
Q 3366 3525 3220 3729 
Q 3075 3934 2838 4000 
Q 2684 4041 2272 4041 
L 1100 4041 
L 1100 2403 
z
" transform="scale(0.015625)"/>
      <path id="ArialMT-68" d="M 422 0 
L 422 4581 
L 984 4581 
L 984 2938 
Q 1378 3394 1978 3394 
Q 2347 3394 2619 3248 
Q 2891 3103 3008 2847 
Q 3125 2591 3125 2103 
L 3125 0 
L 2563 0 
L 2563 2103 
Q 2563 2525 2380 2717 
Q 2197 2909 1863 2909 
Q 1613 2909 1392 2779 
Q 1172 2650 1078 2428 
Q 984 2206 984 1816 
L 984 0 
L 422 0 
z
" transform="scale(0.015625)"/>
      <path id="ArialMT-61" d="M 2588 409 
Q 2275 144 1986 34 
Q 1697 -75 1366 -75 
Q 819 -75 525 192 
Q 231 459 231 875 
Q 231 1119 342 1320 
Q 453 1522 633 1644 
Q 813 1766 1038 1828 
Q 1203 1872 1538 1913 
Q 2219 1994 2541 2106 
Q 2544 2222 2544 2253 
Q 2544 2597 2384 2738 
Q 2169 2928 1744 2928 
Q 1347 2928 1158 2789 
Q 969 2650 878 2297 
L 328 2372 
Q 403 2725 575 2942 
Q 747 3159 1072 3276 
Q 1397 3394 1825 3394 
Q 2250 3394 2515 3294 
Q 2781 3194 2906 3042 
Q 3031 2891 3081 2659 
Q 3109 2516 3109 2141 
L 3109 1391 
Q 3109 606 3145 398 
Q 3181 191 3288 0 
L 2700 0 
Q 2613 175 2588 409 
z
M 2541 1666 
Q 2234 1541 1622 1453 
Q 1275 1403 1131 1340 
Q 988 1278 909 1158 
Q 831 1038 831 891 
Q 831 666 1001 516 
Q 1172 366 1500 366 
Q 1825 366 2078 508 
Q 2331 650 2450 897 
Q 2541 1088 2541 1459 
L 2541 1666 
z
" transform="scale(0.015625)"/>
      <path id="ArialMT-73" d="M 197 991 
L 753 1078 
Q 800 744 1014 566 
Q 1228 388 1613 388 
Q 2000 388 2187 545 
Q 2375 703 2375 916 
Q 2375 1106 2209 1216 
Q 2094 1291 1634 1406 
Q 1016 1563 777 1677 
Q 538 1791 414 1992 
Q 291 2194 291 2438 
Q 291 2659 392 2848 
Q 494 3038 669 3163 
Q 800 3259 1026 3326 
Q 1253 3394 1513 3394 
Q 1903 3394 2198 3281 
Q 2494 3169 2634 2976 
Q 2775 2784 2828 2463 
L 2278 2388 
Q 2241 2644 2061 2787 
Q 1881 2931 1553 2931 
Q 1166 2931 1000 2803 
Q 834 2675 834 2503 
Q 834 2394 903 2306 
Q 972 2216 1119 2156 
Q 1203 2125 1616 2013 
Q 2213 1853 2448 1751 
Q 2684 1650 2818 1456 
Q 2953 1263 2953 975 
Q 2953 694 2789 445 
Q 2625 197 2315 61 
Q 2006 -75 1616 -75 
Q 969 -75 630 194 
Q 291 463 197 991 
z
" transform="scale(0.015625)"/>
      <path id="ArialMT-65" d="M 2694 1069 
L 3275 997 
Q 3138 488 2766 206 
Q 2394 -75 1816 -75 
Q 1088 -75 661 373 
Q 234 822 234 1631 
Q 234 2469 665 2931 
Q 1097 3394 1784 3394 
Q 2450 3394 2872 2941 
Q 3294 2488 3294 1666 
Q 3294 1616 3291 1516 
L 816 1516 
Q 847 969 1125 678 
Q 1403 388 1819 388 
Q 2128 388 2347 550 
Q 2566 713 2694 1069 
z
M 847 1978 
L 2700 1978 
Q 2663 2397 2488 2606 
Q 2219 2931 1791 2931 
Q 1403 2931 1139 2672 
Q 875 2413 847 1978 
z
" transform="scale(0.015625)"/>
      <path id="ArialMT-20" transform="scale(0.015625)"/>
      <path id="ArialMT-6f" d="M 213 1659 
Q 213 2581 725 3025 
Q 1153 3394 1769 3394 
Q 2453 3394 2887 2945 
Q 3322 2497 3322 1706 
Q 3322 1066 3130 698 
Q 2938 331 2570 128 
Q 2203 -75 1769 -75 
Q 1072 -75 642 372 
Q 213 819 213 1659 
z
M 791 1659 
Q 791 1022 1069 705 
Q 1347 388 1769 388 
Q 2188 388 2466 706 
Q 2744 1025 2744 1678 
Q 2744 2294 2464 2611 
Q 2184 2928 1769 2928 
Q 1347 2928 1069 2612 
Q 791 2297 791 1659 
z
" transform="scale(0.015625)"/>
      <path id="ArialMT-72" d="M 416 0 
L 416 3319 
L 922 3319 
L 922 2816 
Q 1116 3169 1280 3281 
Q 1444 3394 1641 3394 
Q 1925 3394 2219 3213 
L 2025 2691 
Q 1819 2813 1613 2813 
Q 1428 2813 1281 2702 
Q 1134 2591 1072 2394 
Q 978 2094 978 1738 
L 978 0 
L 416 0 
z
" transform="scale(0.015625)"/>
      <path id="ArialMT-74" d="M 1650 503 
L 1731 6 
Q 1494 -44 1306 -44 
Q 1000 -44 831 53 
Q 663 150 594 308 
Q 525 466 525 972 
L 525 2881 
L 113 2881 
L 113 3319 
L 525 3319 
L 525 4141 
L 1084 4478 
L 1084 3319 
L 1650 3319 
L 1650 2881 
L 1084 2881 
L 1084 941 
Q 1084 700 1114 631 
Q 1144 563 1211 522 
Q 1278 481 1403 481 
Q 1497 481 1650 503 
z
" transform="scale(0.015625)"/>
      <path id="ArialMT-69" d="M 425 3934 
L 425 4581 
L 988 4581 
L 988 3934 
L 425 3934 
z
M 425 0 
L 425 3319 
L 988 3319 
L 988 0 
L 425 0 
z
" transform="scale(0.015625)"/>
      <path id="ArialMT-28" d="M 1497 -1347 
Q 1031 -759 709 28 
Q 388 816 388 1659 
Q 388 2403 628 3084 
Q 909 3875 1497 4659 
L 1900 4659 
Q 1522 4009 1400 3731 
Q 1209 3300 1100 2831 
Q 966 2247 966 1656 
Q 966 153 1900 -1347 
L 1497 -1347 
z
" transform="scale(0.015625)"/>
      <path id="ArialMT-76" d="M 1344 0 
L 81 3319 
L 675 3319 
L 1388 1331 
Q 1503 1009 1600 663 
Q 1675 925 1809 1294 
L 2547 3319 
L 3125 3319 
L 1869 0 
L 1344 0 
z
" transform="scale(0.015625)"/>
      <path id="ArialMT-29" d="M 791 -1347 
L 388 -1347 
Q 1322 153 1322 1656 
Q 1322 2244 1188 2822 
Q 1081 3291 891 3722 
Q 769 4003 388 4659 
L 791 4659 
Q 1378 3875 1659 3084 
Q 1900 2403 1900 1659 
Q 1900 816 1576 28 
Q 1253 -759 791 -1347 
z
" transform="scale(0.015625)"/>
     </defs>
     <use xlink:href="#ArialMT-50"/>
     <use xlink:href="#ArialMT-68" transform="translate(66.699219 0)"/>
     <use xlink:href="#ArialMT-61" transform="translate(122.314453 0)"/>
     <use xlink:href="#ArialMT-73" transform="translate(177.929688 0)"/>
     <use xlink:href="#ArialMT-65" transform="translate(227.929688 0)"/>
     <use xlink:href="#ArialMT-20" transform="translate(283.544922 0)"/>
     <use xlink:href="#ArialMT-50" transform="translate(311.328125 0)"/>
     <use xlink:href="#ArialMT-6f" transform="translate(378.027344 0)"/>
     <use xlink:href="#ArialMT-72" transform="translate(433.642578 0)"/>
     <use xlink:href="#ArialMT-74" transform="translate(466.943359 0)"/>
     <use xlink:href="#ArialMT-72" transform="translate(494.726562 0)"/>
     <use xlink:href="#ArialMT-61" transform="translate(528.027344 0)"/>
     <use xlink:href="#ArialMT-69" transform="translate(583.642578 0)"/>
     <use xlink:href="#ArialMT-74" transform="translate(605.859375 0)"/>
     <use xlink:href="#ArialMT-20" transform="translate(633.642578 0)"/>
     <use xlink:href="#ArialMT-28" transform="translate(661.425781 0)"/>
     <use xlink:href="#ArialMT-78" transform="translate(694.726562 0)"/>
     <use xlink:href="#ArialMT-30" transform="translate(744.726562 0)"/>
     <use xlink:href="#ArialMT-20" transform="translate(800.341797 0)"/>
     <use xlink:href="#ArialMT-76" transform="translate(828.125 0)"/>
     <use xlink:href="#ArialMT-73" transform="translate(878.125 0)"/>
     <use xlink:href="#ArialMT-20" transform="translate(928.125 0)"/>
     <use xlink:href="#ArialMT-78" transform="translate(955.908203 0)"/>
     <use xlink:href="#ArialMT-31" transform="translate(1005.908203 0)"/>
     <use xlink:href="#ArialMT-29" transform="translate(1061.523438 0)"/>
    </g>
   </g>
   <g id="line2d_28">
    <path d="M 444.519937 168.401849 
L 445.018699 161.204116 
L 446.328336 154.546742 
L 448.302581 148.453229 
L 450.808682 142.975188 
L 453.715773 138.168223 
L 456.898179 134.102433 
L 460.234305 130.855602 
L 463.603432 128.504635 
L 466.885557 127.127709 
L 469.965617 126.783349 
L 472.73159 127.518478 
L 475.0754 129.360504 
L 476.903535 132.293557 
L 478.128772 136.284492 
L 478.681189 141.257715 
L 478.51261 147.10127 
L 477.584674 153.684037 
L 475.893168 160.839864 
L 473.449136 168.394602 
L 470.2808 176.161402 
L 466.447374 183.964113 
L 462.014987 191.634093 
L 457.065505 199.013641 
L 451.693033 205.986987 
L 445.992965 212.451063 
L 440.065856 218.328437 
L 434.006389 223.583379 
L 427.906377 228.190189 
L 421.852399 232.146137 
L 415.9161 235.472292 
L 410.164574 238.194209 
L 404.654508 240.349371 
L 399.427485 241.981463 
L 394.520354 243.134547 
L 389.961618 243.855384 
L 385.765614 244.185757 
L 381.945214 244.166358 
L 378.507638 243.836114 
L 375.451735 243.22558 
L 372.774483 242.362344 
L 370.470769 241.271723 
L 368.53203 239.972048 
L 366.948751 238.477216 
L 365.711169 236.799234 
L 364.808619 234.946237 
L 364.231325 232.921313 
L 363.970058 230.72644 
L 364.014957 228.362325 
L 364.35931 225.825057 
L 364.997012 223.109966 
L 365.922501 220.212219 
L 367.130909 217.125116 
L 368.620196 213.841757 
L 370.389051 210.355381 
L 372.436043 206.661139 
L 374.761623 202.749245 
L 377.36691 198.616328 
L 380.252575 194.264113 
L 386.866932 184.911216 
L 390.59702 179.919941 
L 394.606361 174.740787 
L 398.889412 169.400218 
L 403.438258 163.929723 
L 408.246552 158.362372 
L 413.293945 152.760498 
L 418.557048 147.192272 
L 424.007486 141.733325 
L 429.615051 136.470256 
L 435.32619 131.51932 
L 441.085388 126.999035 
L 446.830193 123.03448 
L 452.484807 119.764793 
L 457.95991 117.325905 
L 463.163649 115.849058 
L 467.993365 115.463047 
L 472.343576 116.25245 
L 476.110635 118.287722 
L 479.186597 121.614292 
L 481.484946 126.193028 
L 482.927124 131.965363 
L 483.441614 138.832273 
L 483.001766 146.618672 
L 481.593771 155.134759 
L 479.22471 164.16244 
L 475.943475 173.467513 
L 471.81333 182.819618 
L 466.921277 191.996664 
L 461.375174 200.814328 
L 455.290068 209.104047 
L 448.790563 216.747508 
L 442.000451 223.661485 
L 435.043449 229.78881 
L 428.030852 235.120235 
L 421.067524 239.661089 
L 414.24614 243.441297 
L 407.641724 246.508428 
L 401.322474 248.916116 
L 395.336904 250.7256 
L 389.724016 251.998739 
L 384.512663 252.796846 
L 379.718617 253.176335 
L 375.352517 253.190951 
L 371.415314 252.886465 
L 367.903923 252.303959 
L 364.810585 251.478516 
L 362.12395 250.437481 
L 359.83116 249.205664 
L 357.917562 247.79934 
L 356.368396 246.231029 
L 355.168507 244.510803 
L 354.30383 242.642327 
L 353.761446 240.626482 
L 353.52838 238.463016 
L 353.594396 236.147246 
L 353.951432 233.671915 
L 354.592056 231.029327 
L 355.509776 228.21025 
L 356.702081 225.203162 
L 358.167505 221.996054 
L 359.905618 218.577201 
L 361.916725 214.932485 
L 364.204891 211.050444 
L 369.629884 202.531453 
L 376.222634 192.938572 
L 384.030699 182.251641 
L 393.090889 170.518124 
L 398.093502 164.309725 
L 403.406182 157.920258 
L 409.019875 151.400495 
L 414.916028 144.822595 
L 421.073206 138.266108 
L 427.455857 131.83931 
L 434.017786 125.668126 
L 440.706126 119.891793 
L 447.445425 114.67811 
L 454.151266 110.201988 
L 460.726799 106.652883 
L 467.05345 104.21521 
L 473.008299 103.065424 
L 478.455118 103.371894 
L 483.255045 105.235957 
L 487.27192 108.734024 
L 490.369354 113.889481 
L 492.441281 120.61492 
L 493.393468 128.792159 
L 493.156358 138.224418 
L 491.715251 148.638196 
L 489.071631 159.744287 
L 485.274019 171.218082 
L 480.408754 182.743827 
L 474.584725 194.014452 
L 467.943788 204.7805 
L 460.637238 214.825427 
L 452.82825 223.994007 
L 444.677935 232.191748 
L 436.345171 239.361876 
L 427.971078 245.509886 
L 419.687187 250.662258 
L 411.603896 254.879046 
L 403.812528 258.236334 
L 396.38945 260.819417 
L 389.387128 262.717817 
L 382.847274 264.020055 
L 376.793988 264.809554 
L 371.240415 265.163411 
L 366.188999 265.150225 
L 361.633957 264.829626 
L 357.563721 264.253677 
L 353.961162 263.46384 
L 350.806764 262.495711 
L 348.078564 261.376274 
L 345.753886 260.126619 
L 343.809842 258.762017 
L 342.224421 257.292016 
L 340.975933 255.723423 
L 340.045496 254.056757 
L 339.415226 252.290947 
L 339.068794 250.42225 
L 338.993536 248.442947 
L 339.178077 246.344211 
L 339.612277 244.115933 
L 340.290861 241.744624 
L 341.209406 239.216266 
L 342.36465 236.516072 
L 343.757109 233.627271 
L 347.266209 227.212016 
L 351.774273 219.821148 
L 357.354725 211.299595 
L 364.099067 201.491744 
L 372.118737 190.276965 
L 381.527436 177.580754 
L 392.423927 163.440472 
L 398.449362 155.886615 
L 404.859952 148.072163 
L 411.649851 140.062902 
L 418.798311 131.961214 
L 426.278047 123.884128 
L 434.045712 115.985425 
L 442.037474 108.455124 
L 450.179315 101.503768 
L 458.364404 95.384695 
L 466.471182 90.364484 
L 474.354535 86.727173 
L 481.843981 84.743937 
L 488.757121 84.681179 
L 494.896672 86.730158 
L 500.066194 91.023852 
L 504.069927 97.616318 
L 506.746118 106.404078 
L 507.948115 117.219657 
L 507.588326 129.742927 
L 505.627437 143.576446 
L 502.075938 158.260319 
L 497.016199 173.306844 
L 490.569068 188.233026 
L 482.912105 202.622159 
L 474.246384 216.106104 
L 464.797065 228.431397 
L 454.793208 239.4181 
L 444.458564 248.985406 
L 434.001248 257.123342 
L 423.607725 263.882975 
L 413.435739 269.360741 
L 403.616878 273.678293 
L 394.252384 276.973138 
L 385.417402 279.385953 
L 377.1628 281.053627 
L 369.517904 282.103483 
L 362.494774 282.651072 
L 356.090364 282.797473 
L 350.290545 282.629967 
L 345.072696 282.222568 
L 340.407719 281.635913 
L 336.262624 280.919684 
L 332.601987 280.113527 
L 329.389382 279.247943 
L 326.58849 278.346337 
L 324.163916 277.425701 
L 322.081893 276.497661 
L 320.310566 275.569719 
L 318.820446 274.645714 
L 317.584596 273.72659 
L 316.57838 272.81116 
L 315.780104 271.896175 
L 315.170487 270.976963 
L 314.732264 270.047873 
L 314.451553 269.101855 
L 314.315686 268.131425 
L 314.314661 267.128246 
L 314.4408 266.083185 
L 315.049803 263.829299 
L 316.115651 261.285277 
L 317.635379 258.356617 
L 319.631651 254.93484 
L 323.626393 248.599082 
L 331.24884 237.081 
L 345.908994 215.450544 
L 358.538157 197.094108 
L 369.039005 182.06194 
L 381.502094 164.57277 
L 388.544985 154.894536 
L 396.160241 144.627971 
L 404.367299 133.818452 
L 413.168407 122.568219 
L 422.555932 111.008655 
L 432.502787 99.329508 
L 442.951728 87.794102 
L 453.825373 76.716964 
L 464.992958 66.515561 
L 476.298286 57.653781 
L 487.523039 50.670641 
L 498.40942 46.12929 
L 508.651478 44.588565 
L 517.906339 46.534594 
L 525.809233 52.341408 
L 532.000674 62.154495 
L 536.140118 75.916768 
L 537.963722 93.234824 
L 537.270202 113.507056 
L 533.998896 135.867143 
L 528.180145 159.346592 
L 519.987979 182.948608 
L 509.683631 205.739366 
L 497.61917 226.970617 
L 484.18888 246.08513 
L 469.806661 262.755126 
L 454.873908 276.8617 
L 439.758114 288.453657 
L 424.777968 297.702598 
L 410.19634 304.858366 
L 396.21654 310.210021 
L 382.986202 314.05485 
L 370.603469 316.677593 
L 359.123806 318.339322 
L 348.565626 319.267605 
L 338.921417 319.660409 
L 330.15995 319.679377 
L 322.236522 319.461769 
L 308.669614 318.725281 
L 297.706447 318.079231 
L 293.03238 317.916488 
L 288.80874 317.905882 
L 284.97234 318.071738 
L 281.464613 318.431051 
L 278.228788 318.998662 
L 275.213483 319.784917 
L 272.370608 320.798621 
L 269.653791 322.047535 
L 267.023126 323.538519 
L 264.440203 325.278423 
L 261.868121 327.274089 
L 259.274032 329.533074 
L 256.627767 332.063714 
L 253.899966 334.874271 
L 248.087358 341.373642 
L 241.635037 349.107676 
L 230.352611 363.176847 
L 216.676292 380.27791 
L 206.032857 393.2414 
L 200.231188 400.106449 
L 194.11376 407.153789 
L 187.69168 414.310449 
L 180.983751 421.484894 
L 174.025527 428.552888 
L 166.858816 435.378122 
L 159.545195 441.790701 
L 152.163015 447.599346 
L 144.801819 452.59662 
L 137.578899 456.558022 
L 130.621368 459.260217 
L 124.073854 460.479747 
L 118.094624 460.039754 
L 112.843792 457.788635 
L 108.486499 453.635952 
L 105.168416 447.597716 
L 103.030324 439.72922 
L 102.173332 430.214652 
L 102.6588 419.314374 
L 104.527892 407.339124 
L 107.748136 394.665884 
L 112.255645 381.677751 
L 117.950876 368.763328 
L 124.684479 356.254597 
L 132.292875 344.449862 
L 140.590966 333.570673 
L 149.388745 323.773736 
L 158.49986 315.14187 
L 167.74701 307.704742 
L 176.972427 301.435172 
L 186.035008 296.27451 
L 194.820532 292.133878 
L 203.231822 288.911655 
L 211.200642 286.498384 
L 218.673255 284.784964 
L 225.616836 283.667159 
L 232.013684 283.048953 
L 237.858598 282.84376 
L 243.157395 282.976328 
L 247.923793 283.382019 
L 252.177458 284.006309 
L 255.942506 284.804959 
L 259.245617 285.742049 
L 262.114903 286.789812 
L 264.578853 287.927233 
L 266.665465 289.139292 
L 268.401714 290.416005 
L 269.81273 291.752182 
L 270.922276 293.145462 
L 271.75096 294.597878 
L 272.318354 296.112797 
L 272.640696 297.696689 
L 272.731412 299.358248 
L 272.602571 301.107086 
L 272.263749 302.95442 
L 271.720636 304.91377 
L 270.978138 306.999094 
L 270.039238 309.225311 
L 267.566621 314.169953 
L 264.279951 319.893006 
L 260.118583 326.560541 
L 254.997818 334.351926 
L 248.798617 343.458667 
L 241.381819 354.075703 
L 232.588059 366.367283 
L 222.249732 380.462046 
L 210.221934 396.335248 
L 203.538496 404.890037 
L 196.403459 413.783013 
L 188.82121 422.935096 
L 180.806577 432.235815 
L 172.395855 441.524879 
L 163.632566 450.622719 
L 154.592949 459.284126 
L 145.375305 467.228698 
L 136.097535 474.140307 
L 126.923961 479.66026 
L 118.035257 483.423772 
L 109.64579 485.067231 
L 101.991857 484.280818 
L 95.32402 480.793446 
L 89.889365 474.4984 
L 85.924045 465.380673 
L 83.630664 453.611125 
L 83.155892 439.52401 
L 84.600258 423.578017 
L 87.9611 406.367502 
L 93.188333 388.525162 
L 100.136491 370.684685 
L 108.61001 353.43161 
L 118.359172 337.248379 
L 129.108249 322.499869 
L 140.569694 309.41662 
L 152.461407 298.111277 
L 164.52263 288.584366 
L 176.521214 280.758715 
L 188.25969 274.499099 
L 199.580302 269.634552 
L 210.36047 265.979451 
L 220.513126 263.346286 
L 229.982581 261.556712 
L 238.738683 260.446735 
L 246.773806 259.870996 
L 254.097992 259.703947 
L 260.733921 259.837402 
L 266.715415 260.183832 
L 272.082028 260.668564 
L 281.151412 261.832164 
L 300.240886 264.762559 
L 303.42044 264.833181 
L 306.062319 264.500602 
L 307.243434 264.179678 
L 308.35961 263.753527 
L 310.473472 262.576967 
L 312.540899 260.945642 
L 314.682023 258.819648 
L 317.007135 256.14128 
L 319.622786 252.830884 
L 321.073401 250.907739 
L 321.073401 250.907739 
" clip-path="url(#p02d6962ec8)" style="fill: none; stroke-dasharray: 12.95,5.6; stroke-dashoffset: 0; stroke: #ff0000; stroke-opacity: 0.8; stroke-width: 3.5"/>
   </g>
   <g id="legend_1">
    <g id="line2d_29">
     <path d="M 49.807813 33.987344 
L 59.807813 33.987344 
L 69.807813 33.987344 
" style="fill: none; stroke: #000000; stroke-opacity: 0.3; stroke-width: 7; stroke-linecap: round"/>
    </g>
    <g id="text_16">
     <!-- True/Underlying model -->
     <g style="fill: #262626" transform="translate(77.807813 37.487344) scale(0.1 -0.1)">
      <defs>
       <path id="ArialMT-54" d="M 1659 0 
L 1659 4041 
L 150 4041 
L 150 4581 
L 3781 4581 
L 3781 4041 
L 2266 4041 
L 2266 0 
L 1659 0 
z
" transform="scale(0.015625)"/>
       <path id="ArialMT-75" d="M 2597 0 
L 2597 488 
Q 2209 -75 1544 -75 
Q 1250 -75 995 37 
Q 741 150 617 320 
Q 494 491 444 738 
Q 409 903 409 1263 
L 409 3319 
L 972 3319 
L 972 1478 
Q 972 1038 1006 884 
Q 1059 663 1231 536 
Q 1403 409 1656 409 
Q 1909 409 2131 539 
Q 2353 669 2445 892 
Q 2538 1116 2538 1541 
L 2538 3319 
L 3100 3319 
L 3100 0 
L 2597 0 
z
" transform="scale(0.015625)"/>
       <path id="ArialMT-2f" d="M 0 -78 
L 1328 4659 
L 1778 4659 
L 453 -78 
L 0 -78 
z
" transform="scale(0.015625)"/>
       <path id="ArialMT-55" d="M 3500 4581 
L 4106 4581 
L 4106 1934 
Q 4106 1244 3950 837 
Q 3794 431 3386 176 
Q 2978 -78 2316 -78 
Q 1672 -78 1262 144 
Q 853 366 678 786 
Q 503 1206 503 1934 
L 503 4581 
L 1109 4581 
L 1109 1938 
Q 1109 1341 1220 1058 
Q 1331 775 1601 622 
Q 1872 469 2263 469 
Q 2931 469 3215 772 
Q 3500 1075 3500 1938 
L 3500 4581 
z
" transform="scale(0.015625)"/>
       <path id="ArialMT-6e" d="M 422 0 
L 422 3319 
L 928 3319 
L 928 2847 
Q 1294 3394 1984 3394 
Q 2284 3394 2536 3286 
Q 2788 3178 2913 3003 
Q 3038 2828 3088 2588 
Q 3119 2431 3119 2041 
L 3119 0 
L 2556 0 
L 2556 2019 
Q 2556 2363 2490 2533 
Q 2425 2703 2258 2804 
Q 2091 2906 1866 2906 
Q 1506 2906 1245 2678 
Q 984 2450 984 1813 
L 984 0 
L 422 0 
z
" transform="scale(0.015625)"/>
       <path id="ArialMT-64" d="M 2575 0 
L 2575 419 
Q 2259 -75 1647 -75 
Q 1250 -75 917 144 
Q 584 363 401 755 
Q 219 1147 219 1656 
Q 219 2153 384 2558 
Q 550 2963 881 3178 
Q 1213 3394 1622 3394 
Q 1922 3394 2156 3267 
Q 2391 3141 2538 2938 
L 2538 4581 
L 3097 4581 
L 3097 0 
L 2575 0 
z
M 797 1656 
Q 797 1019 1065 703 
Q 1334 388 1700 388 
Q 2069 388 2326 689 
Q 2584 991 2584 1609 
Q 2584 2291 2321 2609 
Q 2059 2928 1675 2928 
Q 1300 2928 1048 2622 
Q 797 2316 797 1656 
z
" transform="scale(0.015625)"/>
       <path id="ArialMT-6c" d="M 409 0 
L 409 4581 
L 972 4581 
L 972 0 
L 409 0 
z
" transform="scale(0.015625)"/>
       <path id="ArialMT-79" d="M 397 -1278 
L 334 -750 
Q 519 -800 656 -800 
Q 844 -800 956 -737 
Q 1069 -675 1141 -563 
Q 1194 -478 1313 -144 
Q 1328 -97 1363 -6 
L 103 3319 
L 709 3319 
L 1400 1397 
Q 1534 1031 1641 628 
Q 1738 1016 1872 1384 
L 2581 3319 
L 3144 3319 
L 1881 -56 
Q 1678 -603 1566 -809 
Q 1416 -1088 1222 -1217 
Q 1028 -1347 759 -1347 
Q 597 -1347 397 -1278 
z
" transform="scale(0.015625)"/>
       <path id="ArialMT-67" d="M 319 -275 
L 866 -356 
Q 900 -609 1056 -725 
Q 1266 -881 1628 -881 
Q 2019 -881 2231 -725 
Q 2444 -569 2519 -288 
Q 2563 -116 2559 434 
Q 2191 0 1641 0 
Q 956 0 581 494 
Q 206 988 206 1678 
Q 206 2153 378 2554 
Q 550 2956 876 3175 
Q 1203 3394 1644 3394 
Q 2231 3394 2613 2919 
L 2613 3319 
L 3131 3319 
L 3131 450 
Q 3131 -325 2973 -648 
Q 2816 -972 2473 -1159 
Q 2131 -1347 1631 -1347 
Q 1038 -1347 672 -1080 
Q 306 -813 319 -275 
z
M 784 1719 
Q 784 1066 1043 766 
Q 1303 466 1694 466 
Q 2081 466 2343 764 
Q 2606 1063 2606 1700 
Q 2606 2309 2336 2618 
Q 2066 2928 1684 2928 
Q 1309 2928 1046 2623 
Q 784 2319 784 1719 
z
" transform="scale(0.015625)"/>
       <path id="ArialMT-6d" d="M 422 0 
L 422 3319 
L 925 3319 
L 925 2853 
Q 1081 3097 1340 3245 
Q 1600 3394 1931 3394 
Q 2300 3394 2536 3241 
Q 2772 3088 2869 2813 
Q 3263 3394 3894 3394 
Q 4388 3394 4653 3120 
Q 4919 2847 4919 2278 
L 4919 0 
L 4359 0 
L 4359 2091 
Q 4359 2428 4304 2576 
Q 4250 2725 4106 2815 
Q 3963 2906 3769 2906 
Q 3419 2906 3187 2673 
Q 2956 2441 2956 1928 
L 2956 0 
L 2394 0 
L 2394 2156 
Q 2394 2531 2256 2718 
Q 2119 2906 1806 2906 
Q 1569 2906 1367 2781 
Q 1166 2656 1075 2415 
Q 984 2175 984 1722 
L 984 0 
L 422 0 
z
" transform="scale(0.015625)"/>
      </defs>
      <use xlink:href="#ArialMT-54"/>
      <use xlink:href="#ArialMT-72" transform="translate(57.333984 0)"/>
      <use xlink:href="#ArialMT-75" transform="translate(90.634766 0)"/>
      <use xlink:href="#ArialMT-65" transform="translate(146.25 0)"/>
      <use xlink:href="#ArialMT-2f" transform="translate(201.865234 0)"/>
      <use xlink:href="#ArialMT-55" transform="translate(229.648438 0)"/>
      <use xlink:href="#ArialMT-6e" transform="translate(301.865234 0)"/>
      <use xlink:href="#ArialMT-64" transform="translate(357.480469 0)"/>
      <use xlink:href="#ArialMT-65" transform="translate(413.095703 0)"/>
      <use xlink:href="#ArialMT-72" transform="translate(468.710938 0)"/>
      <use xlink:href="#ArialMT-6c" transform="translate(502.011719 0)"/>
      <use xlink:href="#ArialMT-79" transform="translate(524.228516 0)"/>
      <use xlink:href="#ArialMT-69" transform="translate(574.228516 0)"/>
      <use xlink:href="#ArialMT-6e" transform="translate(596.445312 0)"/>
      <use xlink:href="#ArialMT-67" transform="translate(652.060547 0)"/>
      <use xlink:href="#ArialMT-20" transform="translate(707.675781 0)"/>
      <use xlink:href="#ArialMT-6d" transform="translate(735.458984 0)"/>
      <use xlink:href="#ArialMT-6f" transform="translate(818.759766 0)"/>
      <use xlink:href="#ArialMT-64" transform="translate(874.375 0)"/>
      <use xlink:href="#ArialMT-65" transform="translate(929.990234 0)"/>
      <use xlink:href="#ArialMT-6c" transform="translate(985.605469 0)"/>
     </g>
    </g>
    <g id="line2d_30">
     <path d="M 49.807813 48.371719 
L 59.807813 48.371719 
L 69.807813 48.371719 
" style="fill: none; stroke-dasharray: 12.95,5.6; stroke-dashoffset: 0; stroke: #ff0000; stroke-opacity: 0.8; stroke-width: 3.5"/>
    </g>
    <g id="text_17">
     <!-- AutoSINDy -->
     <g style="fill: #262626" transform="translate(77.807813 51.871719) scale(0.1 -0.1)">
      <defs>
       <path id="ArialMT-41" d="M -9 0 
L 1750 4581 
L 2403 4581 
L 4278 0 
L 3588 0 
L 3053 1388 
L 1138 1388 
L 634 0 
L -9 0 
z
M 1313 1881 
L 2866 1881 
L 2388 3150 
Q 2169 3728 2063 4100 
Q 1975 3659 1816 3225 
L 1313 1881 
z
" transform="scale(0.015625)"/>
       <path id="ArialMT-53" d="M 288 1472 
L 859 1522 
Q 900 1178 1048 958 
Q 1197 738 1509 602 
Q 1822 466 2213 466 
Q 2559 466 2825 569 
Q 3091 672 3220 851 
Q 3350 1031 3350 1244 
Q 3350 1459 3225 1620 
Q 3100 1781 2813 1891 
Q 2628 1963 1997 2114 
Q 1366 2266 1113 2400 
Q 784 2572 623 2826 
Q 463 3081 463 3397 
Q 463 3744 659 4045 
Q 856 4347 1234 4503 
Q 1613 4659 2075 4659 
Q 2584 4659 2973 4495 
Q 3363 4331 3572 4012 
Q 3781 3694 3797 3291 
L 3216 3247 
Q 3169 3681 2898 3903 
Q 2628 4125 2100 4125 
Q 1550 4125 1298 3923 
Q 1047 3722 1047 3438 
Q 1047 3191 1225 3031 
Q 1400 2872 2139 2705 
Q 2878 2538 3153 2413 
Q 3553 2228 3743 1945 
Q 3934 1663 3934 1294 
Q 3934 928 3725 604 
Q 3516 281 3123 101 
Q 2731 -78 2241 -78 
Q 1619 -78 1198 103 
Q 778 284 539 648 
Q 300 1013 288 1472 
z
" transform="scale(0.015625)"/>
       <path id="ArialMT-49" d="M 597 0 
L 597 4581 
L 1203 4581 
L 1203 0 
L 597 0 
z
" transform="scale(0.015625)"/>
       <path id="ArialMT-4e" d="M 488 0 
L 488 4581 
L 1109 4581 
L 3516 984 
L 3516 4581 
L 4097 4581 
L 4097 0 
L 3475 0 
L 1069 3600 
L 1069 0 
L 488 0 
z
" transform="scale(0.015625)"/>
       <path id="ArialMT-44" d="M 494 0 
L 494 4581 
L 2072 4581 
Q 2606 4581 2888 4516 
Q 3281 4425 3559 4188 
Q 3922 3881 4101 3404 
Q 4281 2928 4281 2316 
Q 4281 1794 4159 1391 
Q 4038 988 3847 723 
Q 3656 459 3429 307 
Q 3203 156 2883 78 
Q 2563 0 2147 0 
L 494 0 
z
M 1100 541 
L 2078 541 
Q 2531 541 2789 625 
Q 3047 709 3200 863 
Q 3416 1078 3536 1442 
Q 3656 1806 3656 2325 
Q 3656 3044 3420 3430 
Q 3184 3816 2847 3947 
Q 2603 4041 2063 4041 
L 1100 4041 
L 1100 541 
z
" transform="scale(0.015625)"/>
      </defs>
      <use xlink:href="#ArialMT-41"/>
      <use xlink:href="#ArialMT-75" transform="translate(66.699219 0)"/>
      <use xlink:href="#ArialMT-74" transform="translate(122.314453 0)"/>
      <use xlink:href="#ArialMT-6f" transform="translate(150.097656 0)"/>
      <use xlink:href="#ArialMT-53" transform="translate(205.712891 0)"/>
      <use xlink:href="#ArialMT-49" transform="translate(272.412109 0)"/>
      <use xlink:href="#ArialMT-4e" transform="translate(300.195312 0)"/>
      <use xlink:href="#ArialMT-44" transform="translate(372.412109 0)"/>
      <use xlink:href="#ArialMT-79" transform="translate(444.628906 0)"/>
     </g>
    </g>
    <g id="line2d_31">
     <path d="M 49.807813 62.756094 
L 59.807813 62.756094 
L 69.807813 62.756094 
" style="fill: none; stroke-dasharray: 3.5,5.775; stroke-dashoffset: 0; stroke: #008000; stroke-opacity: 0.8; stroke-width: 3.5"/>
    </g>
    <g id="text_18">
     <!-- Standard SINDy -->
     <g style="fill: #262626" transform="translate(77.807813 66.256094) scale(0.1 -0.1)">
      <use xlink:href="#ArialMT-53"/>
      <use xlink:href="#ArialMT-74" transform="translate(66.699219 0)"/>
      <use xlink:href="#ArialMT-61" transform="translate(94.482422 0)"/>
      <use xlink:href="#ArialMT-6e" transform="translate(150.097656 0)"/>
      <use xlink:href="#ArialMT-64" transform="translate(205.712891 0)"/>
      <use xlink:href="#ArialMT-61" transform="translate(261.328125 0)"/>
      <use xlink:href="#ArialMT-72" transform="translate(316.943359 0)"/>
      <use xlink:href="#ArialMT-64" transform="translate(350.244141 0)"/>
      <use xlink:href="#ArialMT-20" transform="translate(405.859375 0)"/>
      <use xlink:href="#ArialMT-53" transform="translate(433.642578 0)"/>
      <use xlink:href="#ArialMT-49" transform="translate(500.341797 0)"/>
      <use xlink:href="#ArialMT-4e" transform="translate(528.125 0)"/>
      <use xlink:href="#ArialMT-44" transform="translate(600.341797 0)"/>
      <use xlink:href="#ArialMT-79" transform="translate(672.558594 0)"/>
     </g>
    </g>
    <g id="line2d_32">
     <path d="M 49.807813 77.140469 
L 59.807813 77.140469 
L 69.807813 77.140469 
" style="fill: none; stroke-dasharray: 22.4,5.6,3.5,5.6; stroke-dashoffset: 0; stroke: #0000ff; stroke-opacity: 0.8; stroke-width: 3.5"/>
    </g>
    <g id="text_19">
     <!-- Standard PySR -->
     <g style="fill: #262626" transform="translate(77.807813 80.640469) scale(0.1 -0.1)">
      <defs>
       <path id="ArialMT-52" d="M 503 0 
L 503 4581 
L 2534 4581 
Q 3147 4581 3465 4457 
Q 3784 4334 3975 4021 
Q 4166 3709 4166 3331 
Q 4166 2844 3850 2509 
Q 3534 2175 2875 2084 
Q 3116 1969 3241 1856 
Q 3506 1613 3744 1247 
L 4541 0 
L 3778 0 
L 3172 953 
Q 2906 1366 2734 1584 
Q 2563 1803 2427 1890 
Q 2291 1978 2150 2013 
Q 2047 2034 1813 2034 
L 1109 2034 
L 1109 0 
L 503 0 
z
M 1109 2559 
L 2413 2559 
Q 2828 2559 3062 2645 
Q 3297 2731 3419 2920 
Q 3541 3109 3541 3331 
Q 3541 3656 3305 3865 
Q 3069 4075 2559 4075 
L 1109 4075 
L 1109 2559 
z
" transform="scale(0.015625)"/>
      </defs>
      <use xlink:href="#ArialMT-53"/>
      <use xlink:href="#ArialMT-74" transform="translate(66.699219 0)"/>
      <use xlink:href="#ArialMT-61" transform="translate(94.482422 0)"/>
      <use xlink:href="#ArialMT-6e" transform="translate(150.097656 0)"/>
      <use xlink:href="#ArialMT-64" transform="translate(205.712891 0)"/>
      <use xlink:href="#ArialMT-61" transform="translate(261.328125 0)"/>
      <use xlink:href="#ArialMT-72" transform="translate(316.943359 0)"/>
      <use xlink:href="#ArialMT-64" transform="translate(350.244141 0)"/>
      <use xlink:href="#ArialMT-20" transform="translate(405.859375 0)"/>
      <use xlink:href="#ArialMT-50" transform="translate(433.642578 0)"/>
      <use xlink:href="#ArialMT-79" transform="translate(500.341797 0)"/>
      <use xlink:href="#ArialMT-53" transform="translate(550.341797 0)"/>
      <use xlink:href="#ArialMT-52" transform="translate(617.041016 0)"/>
     </g>
    </g>
   </g>
  </g>
 </g>
 <defs>
  <clipPath id="p02d6962ec8">
   <rect x="40.807813" y="21.207656" width="520.83" height="514.38"/>
  </clipPath>
 </defs>
</svg>
