<?xml version="1.0" encoding="utf-8" standalone="no"?>
<!DOCTYPE svg PUBLIC "-//W3C//DTD SVG 1.1//EN"
  "http://www.w3.org/Graphics/SVG/1.1/DTD/svg11.dtd">
<svg xmlns:xlink="http://www.w3.org/1999/xlink" width="568.202889pt" height="567.994375pt" viewBox="0 0 568.202889 567.994375" xmlns="http://www.w3.org/2000/svg" version="1.1">
 <metadata>
  <rdf:RDF xmlns:dc="http://purl.org/dc/elements/1.1/" xmlns:cc="http://creativecommons.org/ns#" xmlns:rdf="http://www.w3.org/1999/02/22-rdf-syntax-ns#">
   <cc:Work>
    <dc:type rdf:resource="http://purl.org/dc/dcmitype/StillImage"/>
    <dc:date>2026-04-05T21:26:45.063538</dc:date>
    <dc:format>image/svg+xml</dc:format>
    <dc:creator>
     <cc:Agent>
      <dc:title>Matplotlib v3.10.7, https://matplotlib.org/</dc:title>
     </cc:Agent>
    </dc:creator>
   </cc:Work>
  </rdf:RDF>
 </metadata>
 <defs>
  <style type="text/css">*{stroke-linejoin: round; stroke-linecap: butt}</style>
 </defs>
 <g id="figure_1">
  <g id="patch_1">
   <path d="M 0 567.994375 
L 568.202889 567.994375 
L 568.202889 0 
L 0 0 
z
" style="fill: #ffffff"/>
  </g>
  <g id="axes_1">
   <g id="patch_2">
    <path d="M 42.620313 530.438125 
L 554.681117 530.438125 
L 554.681117 22.318125 
L 42.620313 22.318125 
z
" style="fill: #ffffff"/>
   </g>
   <g id="matplotlib.axis_1">
    <g id="xtick_1">
     <g id="line2d_1">
      <defs>
       <path id="m5e97b55857" d="M 0 0 
L 0 3.5 
" style="stroke: #000000; stroke-width: 0.8"/>
      </defs>
      <g>
       <use xlink:href="#m5e97b55857" x="44.253467" y="530.438125" style="stroke: #000000; stroke-width: 0.8"/>
      </g>
     </g>
     <g id="text_1">
      <!-- −0.6 -->
      <g transform="translate(32.112061 545.036562) scale(0.1 -0.1)">
       <defs>
        <path id="DejaVuSans-2212" d="M 678 2272 
L 4684 2272 
L 4684 1741 
L 678 1741 
L 678 2272 
z
" transform="scale(0.015625)"/>
        <path id="DejaVuSans-30" d="M 2034 4250 
Q 1547 4250 1301 3770 
Q 1056 3291 1056 2328 
Q 1056 1369 1301 889 
Q 1547 409 2034 409 
Q 2525 409 2770 889 
Q 3016 1369 3016 2328 
Q 3016 3291 2770 3770 
Q 2525 4250 2034 4250 
z
M 2034 4750 
Q 2819 4750 3233 4129 
Q 3647 3509 3647 2328 
Q 3647 1150 3233 529 
Q 2819 -91 2034 -91 
Q 1250 -91 836 529 
Q 422 1150 422 2328 
Q 422 3509 836 4129 
Q 1250 4750 2034 4750 
z
" transform="scale(0.015625)"/>
        <path id="DejaVuSans-2e" d="M 684 794 
L 1344 794 
L 1344 0 
L 684 0 
L 684 794 
z
" transform="scale(0.015625)"/>
        <path id="DejaVuSans-36" d="M 2113 2584 
Q 1688 2584 1439 2293 
Q 1191 2003 1191 1497 
Q 1191 994 1439 701 
Q 1688 409 2113 409 
Q 2538 409 2786 701 
Q 3034 994 3034 1497 
Q 3034 2003 2786 2293 
Q 2538 2584 2113 2584 
z
M 3366 4563 
L 3366 3988 
Q 3128 4100 2886 4159 
Q 2644 4219 2406 4219 
Q 1781 4219 1451 3797 
Q 1122 3375 1075 2522 
Q 1259 2794 1537 2939 
Q 1816 3084 2150 3084 
Q 2853 3084 3261 2657 
Q 3669 2231 3669 1497 
Q 3669 778 3244 343 
Q 2819 -91 2113 -91 
Q 1303 -91 875 529 
Q 447 1150 447 2328 
Q 447 3434 972 4092 
Q 1497 4750 2381 4750 
Q 2619 4750 2861 4703 
Q 3103 4656 3366 4563 
z
" transform="scale(0.015625)"/>
       </defs>
       <use xlink:href="#DejaVuSans-2212"/>
       <use xlink:href="#DejaVuSans-30" transform="translate(83.789062 0)"/>
       <use xlink:href="#DejaVuSans-2e" transform="translate(147.412109 0)"/>
       <use xlink:href="#DejaVuSans-36" transform="translate(179.199219 0)"/>
      </g>
     </g>
    </g>
    <g id="xtick_2">
     <g id="line2d_2">
      <g>
       <use xlink:href="#m5e97b55857" x="129.05311" y="530.438125" style="stroke: #000000; stroke-width: 0.8"/>
      </g>
     </g>
     <g id="text_2">
      <!-- −0.4 -->
      <g transform="translate(116.911704 545.036562) scale(0.1 -0.1)">
       <defs>
        <path id="DejaVuSans-34" d="M 2419 4116 
L 825 1625 
L 2419 1625 
L 2419 4116 
z
M 2253 4666 
L 3047 4666 
L 3047 1625 
L 3713 1625 
L 3713 1100 
L 3047 1100 
L 3047 0 
L 2419 0 
L 2419 1100 
L 313 1100 
L 313 1709 
L 2253 4666 
z
" transform="scale(0.015625)"/>
       </defs>
       <use xlink:href="#DejaVuSans-2212"/>
       <use xlink:href="#DejaVuSans-30" transform="translate(83.789062 0)"/>
       <use xlink:href="#DejaVuSans-2e" transform="translate(147.412109 0)"/>
       <use xlink:href="#DejaVuSans-34" transform="translate(179.199219 0)"/>
      </g>
     </g>
    </g>
    <g id="xtick_3">
     <g id="line2d_3">
      <g>
       <use xlink:href="#m5e97b55857" x="213.852754" y="530.438125" style="stroke: #000000; stroke-width: 0.8"/>
      </g>
     </g>
     <g id="text_3">
      <!-- −0.2 -->
      <g transform="translate(201.711347 545.036562) scale(0.1 -0.1)">
       <defs>
        <path id="DejaVuSans-32" d="M 1228 531 
L 3431 531 
L 3431 0 
L 469 0 
L 469 531 
Q 828 903 1448 1529 
Q 2069 2156 2228 2338 
Q 2531 2678 2651 2914 
Q 2772 3150 2772 3378 
Q 2772 3750 2511 3984 
Q 2250 4219 1831 4219 
Q 1534 4219 1204 4116 
Q 875 4013 500 3803 
L 500 4441 
Q 881 4594 1212 4672 
Q 1544 4750 1819 4750 
Q 2544 4750 2975 4387 
Q 3406 4025 3406 3419 
Q 3406 3131 3298 2873 
Q 3191 2616 2906 2266 
Q 2828 2175 2409 1742 
Q 1991 1309 1228 531 
z
" transform="scale(0.015625)"/>
       </defs>
       <use xlink:href="#DejaVuSans-2212"/>
       <use xlink:href="#DejaVuSans-30" transform="translate(83.789062 0)"/>
       <use xlink:href="#DejaVuSans-2e" transform="translate(147.412109 0)"/>
       <use xlink:href="#DejaVuSans-32" transform="translate(179.199219 0)"/>
      </g>
     </g>
    </g>
    <g id="xtick_4">
     <g id="line2d_4">
      <g>
       <use xlink:href="#m5e97b55857" x="298.652397" y="530.438125" style="stroke: #000000; stroke-width: 0.8"/>
      </g>
     </g>
     <g id="text_4">
      <!-- 0.0 -->
      <g transform="translate(290.700835 545.036562) scale(0.1 -0.1)">
       <use xlink:href="#DejaVuSans-30"/>
       <use xlink:href="#DejaVuSans-2e" transform="translate(63.623047 0)"/>
       <use xlink:href="#DejaVuSans-30" transform="translate(95.410156 0)"/>
      </g>
     </g>
    </g>
    <g id="xtick_5">
     <g id="line2d_5">
      <g>
       <use xlink:href="#m5e97b55857" x="383.45204" y="530.438125" style="stroke: #000000; stroke-width: 0.8"/>
      </g>
     </g>
     <g id="text_5">
      <!-- 0.2 -->
      <g transform="translate(375.500478 545.036562) scale(0.1 -0.1)">
       <use xlink:href="#DejaVuSans-30"/>
       <use xlink:href="#DejaVuSans-2e" transform="translate(63.623047 0)"/>
       <use xlink:href="#DejaVuSans-32" transform="translate(95.410156 0)"/>
      </g>
     </g>
    </g>
    <g id="xtick_6">
     <g id="line2d_6">
      <g>
       <use xlink:href="#m5e97b55857" x="468.251684" y="530.438125" style="stroke: #000000; stroke-width: 0.8"/>
      </g>
     </g>
     <g id="text_6">
      <!-- 0.4 -->
      <g transform="translate(460.300121 545.036562) scale(0.1 -0.1)">
       <use xlink:href="#DejaVuSans-30"/>
       <use xlink:href="#DejaVuSans-2e" transform="translate(63.623047 0)"/>
       <use xlink:href="#DejaVuSans-34" transform="translate(95.410156 0)"/>
      </g>
     </g>
    </g>
    <g id="xtick_7">
     <g id="line2d_7">
      <g>
       <use xlink:href="#m5e97b55857" x="553.051327" y="530.438125" style="stroke: #000000; stroke-width: 0.8"/>
      </g>
     </g>
     <g id="text_7">
      <!-- 0.6 -->
      <g transform="translate(545.099764 545.036562) scale(0.1 -0.1)">
       <use xlink:href="#DejaVuSans-30"/>
       <use xlink:href="#DejaVuSans-2e" transform="translate(63.623047 0)"/>
       <use xlink:href="#DejaVuSans-36" transform="translate(95.410156 0)"/>
      </g>
     </g>
    </g>
    <g id="text_8">
     <!-- x0 -->
     <g transform="translate(292.51009 558.714687) scale(0.1 -0.1)">
      <defs>
       <path id="DejaVuSans-78" d="M 3513 3500 
L 2247 1797 
L 3578 0 
L 2900 0 
L 1881 1375 
L 863 0 
L 184 0 
L 1544 1831 
L 300 3500 
L 978 3500 
L 1906 2253 
L 2834 3500 
L 3513 3500 
z
" transform="scale(0.015625)"/>
      </defs>
      <use xlink:href="#DejaVuSans-78"/>
      <use xlink:href="#DejaVuSans-30" transform="translate(59.179688 0)"/>
     </g>
    </g>
   </g>
   <g id="matplotlib.axis_2">
    <g id="ytick_1">
     <g id="line2d_8">
      <defs>
       <path id="ma1e4dc69d5" d="M 0 0 
L -3.5 0 
" style="stroke: #000000; stroke-width: 0.8"/>
      </defs>
      <g>
       <use xlink:href="#ma1e4dc69d5" x="42.620313" y="484.410315" style="stroke: #000000; stroke-width: 0.8"/>
      </g>
     </g>
     <g id="text_9">
      <!-- −1 -->
      <g transform="translate(20.878125 488.209534) scale(0.1 -0.1)">
       <defs>
        <path id="DejaVuSans-31" d="M 794 531 
L 1825 531 
L 1825 4091 
L 703 3866 
L 703 4441 
L 1819 4666 
L 2450 4666 
L 2450 531 
L 3481 531 
L 3481 0 
L 794 0 
L 794 531 
z
" transform="scale(0.015625)"/>
       </defs>
       <use xlink:href="#DejaVuSans-2212"/>
       <use xlink:href="#DejaVuSans-31" transform="translate(83.789062 0)"/>
      </g>
     </g>
    </g>
    <g id="ytick_2">
     <g id="line2d_9">
      <g>
       <use xlink:href="#ma1e4dc69d5" x="42.620313" y="389.811779" style="stroke: #000000; stroke-width: 0.8"/>
      </g>
     </g>
     <g id="text_10">
      <!-- 0 -->
      <g transform="translate(29.257813 393.610998) scale(0.1 -0.1)">
       <use xlink:href="#DejaVuSans-30"/>
      </g>
     </g>
    </g>
    <g id="ytick_3">
     <g id="line2d_10">
      <g>
       <use xlink:href="#ma1e4dc69d5" x="42.620313" y="295.213244" style="stroke: #000000; stroke-width: 0.8"/>
      </g>
     </g>
     <g id="text_11">
      <!-- 1 -->
      <g transform="translate(29.257813 299.012463) scale(0.1 -0.1)">
       <use xlink:href="#DejaVuSans-31"/>
      </g>
     </g>
    </g>
    <g id="ytick_4">
     <g id="line2d_11">
      <g>
       <use xlink:href="#ma1e4dc69d5" x="42.620313" y="200.614708" style="stroke: #000000; stroke-width: 0.8"/>
      </g>
     </g>
     <g id="text_12">
      <!-- 2 -->
      <g transform="translate(29.257813 204.413927) scale(0.1 -0.1)">
       <use xlink:href="#DejaVuSans-32"/>
      </g>
     </g>
    </g>
    <g id="ytick_5">
     <g id="line2d_12">
      <g>
       <use xlink:href="#ma1e4dc69d5" x="42.620313" y="106.016173" style="stroke: #000000; stroke-width: 0.8"/>
      </g>
     </g>
     <g id="text_13">
      <!-- 3 -->
      <g transform="translate(29.257813 109.815392) scale(0.1 -0.1)">
       <defs>
        <path id="DejaVuSans-33" d="M 2597 2516 
Q 3050 2419 3304 2112 
Q 3559 1806 3559 1356 
Q 3559 666 3084 287 
Q 2609 -91 1734 -91 
Q 1441 -91 1130 -33 
Q 819 25 488 141 
L 488 750 
Q 750 597 1062 519 
Q 1375 441 1716 441 
Q 2309 441 2620 675 
Q 2931 909 2931 1356 
Q 2931 1769 2642 2001 
Q 2353 2234 1838 2234 
L 1294 2234 
L 1294 2753 
L 1863 2753 
Q 2328 2753 2575 2939 
Q 2822 3125 2822 3475 
Q 2822 3834 2567 4026 
Q 2313 4219 1838 4219 
Q 1578 4219 1281 4162 
Q 984 4106 628 3988 
L 628 4550 
Q 988 4650 1302 4700 
Q 1616 4750 1894 4750 
Q 2613 4750 3031 4423 
Q 3450 4097 3450 3541 
Q 3450 3153 3228 2886 
Q 3006 2619 2597 2516 
z
" transform="scale(0.015625)"/>
       </defs>
       <use xlink:href="#DejaVuSans-33"/>
      </g>
     </g>
    </g>
    <g id="text_14">
     <!-- x1 -->
     <g transform="translate(14.798438 282.51875) rotate(-90) scale(0.1 -0.1)">
      <use xlink:href="#DejaVuSans-78"/>
      <use xlink:href="#DejaVuSans-31" transform="translate(59.179688 0)"/>
     </g>
    </g>
   </g>
   <g id="line2d_13">
    <path d="M 510.651505 342.512512 
L 514.644887 348.188475 
L 518.129712 353.834556 
L 521.109141 359.440123 
L 523.587259 364.994953 
L 525.568915 370.490781 
L 526.375472 373.213535 
L 527.060314 375.91778 
L 527.624342 378.602257 
L 528.068496 381.265732 
L 528.393756 383.907005 
L 528.601144 386.524907 
L 528.691721 389.118298 
L 528.66659 391.68607 
L 528.526893 394.227145 
L 528.273812 396.740476 
L 527.90857 399.225046 
L 527.432431 401.67987 
L 526.846699 404.103992 
L 526.152719 406.496489 
L 524.44559 411.183062 
L 522.322607 415.732809 
L 519.795978 420.13944 
L 516.878557 424.397157 
L 513.583845 428.500653 
L 509.925989 432.445114 
L 505.919783 436.226213 
L 501.580664 439.840119 
L 496.924719 443.283489 
L 491.96868 446.553473 
L 486.729898 449.647707 
L 481.220899 452.563269 
L 475.455625 455.297173 
L 469.451937 457.847328 
L 463.227517 460.212047 
L 456.799868 462.390048 
L 450.186315 464.380455 
L 443.403999 466.182799 
L 436.469886 467.797017 
L 429.400759 469.223448 
L 422.213225 470.46284 
L 414.923707 471.516347 
L 407.548453 472.385526 
L 400.103527 473.072343 
L 392.604816 473.579166 
L 385.068028 473.908771 
L 377.50869 474.06434 
L 369.942149 474.049459 
L 362.383574 473.868122 
L 354.847953 473.524726 
L 347.349725 473.023732 
L 339.900644 472.367184 
L 332.515065 471.559218 
L 325.207495 470.604717 
L 317.99181 469.508665 
L 310.881251 468.276154 
L 303.888426 466.912381 
L 297.025308 465.422644 
L 286.998464 462.963711 
L 277.324423 460.252232 
L 268.035571 457.307421 
L 259.161086 454.149023 
L 253.487923 451.934754 
L 248.017433 449.640697 
L 242.755883 447.273092 
L 237.708908 444.838289 
L 232.881509 442.342739 
L 228.278101 439.792923 
L 223.904013 437.19369 
L 219.764172 434.550963 
L 215.862545 431.871306 
L 212.202531 429.161132 
L 208.786956 426.426699 
L 205.61808 423.674112 
L 202.697591 420.909322 
L 200.026608 418.138128 
L 197.605681 415.366176 
L 195.434791 412.598955 
L 193.513347 409.841805 
L 191.84019 407.099911 
L 190.413593 404.378303 
L 189.231256 401.681861 
L 188.290312 399.015307 
L 187.587323 396.383215 
L 187.118283 393.790001 
L 186.878615 391.239931 
L 186.863649 388.737006 
L 187.071275 386.284626 
L 187.496836 383.886936 
L 188.134873 381.548007 
L 188.979728 379.271659 
L 190.025536 377.061464 
L 191.266235 374.920745 
L 192.695559 372.852575 
L 194.307039 370.859779 
L 196.094006 368.944933 
L 198.049588 367.110362 
L 200.166711 365.358143 
L 202.4381 363.690106 
L 204.856278 362.107829 
L 208.74192 359.898056 
L 212.91374 357.887616 
L 217.343947 356.078685 
L 222.003726 354.472181 
L 226.863558 353.067849 
L 231.901052 351.866999 
L 237.089264 350.869907 
L 242.398492 350.07519 
L 247.800042 349.480677 
L 253.266219 349.083413 
L 258.770336 348.879655 
L 264.286708 348.864874 
L 269.790657 349.033756 
L 275.258505 349.380201 
L 280.667582 349.897321 
L 285.996221 350.577445 
L 292.940378 351.723104 
L 299.658713 353.121194 
L 306.109859 354.751158 
L 312.253651 356.594264 
L 318.050103 358.626277 
L 323.464497 360.823089 
L 328.46742 363.160784 
L 331.934884 364.992231 
L 335.149016 366.879636 
L 338.103286 368.813122 
L 340.792841 370.782871 
L 343.214508 372.779127 
L 345.366793 374.792194 
L 347.249881 376.812436 
L 348.864749 378.830593 
L 350.209269 380.83873 
L 351.284926 382.827772 
L 352.094766 384.788946 
L 352.642834 386.71402 
L 352.934173 388.595306 
L 352.974829 390.425655 
L 352.771844 392.198463 
L 352.333262 393.907665 
L 351.668127 395.547741 
L 350.786483 397.113711 
L 349.699371 398.601138 
L 348.418764 400.006121 
L 346.954589 401.324881 
L 345.31829 402.553766 
L 342.891282 404.04724 
L 340.212311 405.369755 
L 337.312429 406.517246 
L 334.22281 407.487366 
L 330.974756 408.279486 
L 327.599696 408.89469 
L 324.129183 409.335785 
L 319.704097 409.648807 
L 315.234715 409.704293 
L 310.780754 409.514038 
L 306.398098 409.092248 
L 302.137526 408.45502 
L 298.044717 407.620342 
L 294.160246 406.608097 
L 290.519583 405.440058 
L 287.153352 404.138647 
L 284.090036 402.724815 
L 281.354443 401.222376 
L 278.965525 399.654532 
L 276.936336 398.043631 
L 275.274036 396.411157 
L 273.979887 394.777735 
L 273.206721 393.483627 
L 272.662046 392.211011 
L 272.342809 390.96842 
L 272.242809 389.76517 
L 272.354367 388.609794 
L 272.668617 387.50989 
L 273.175498 386.472128 
L 273.863761 385.50224 
L 274.960094 384.392558 
L 276.293399 383.403696 
L 277.833857 382.540707 
L 279.551493 381.807618 
L 281.807419 381.104469 
L 284.226646 380.59487 
L 285.060386 380.467691 
L 285.060386 380.467691 
" clip-path="url(#p33cfea5740)" style="fill: none; stroke: #000000; stroke-opacity: 0.3; stroke-width: 7; stroke-linecap: square"/>
   </g>
   <g id="line2d_14">
    <path d="M 510.651505 342.512512 
L 514.688817 347.170655 
L 518.305334 351.912093 
L 521.493243 356.727587 
L 524.246067 361.607721 
L 526.557999 366.542986 
L 528.424661 371.523716 
L 529.842259 376.540191 
L 530.381729 379.058771 
L 530.808003 381.582603 
L 531.12085 384.110457 
L 531.32012 386.641097 
L 531.405626 389.173287 
L 531.377401 391.705788 
L 531.235493 394.237363 
L 530.979948 396.766777 
L 530.610895 399.292794 
L 530.128425 401.814174 
L 529.532849 404.329689 
L 528.003677 409.338217 
L 526.026266 414.308583 
L 523.604517 419.23107 
L 520.743393 424.096078 
L 517.44847 428.89407 
L 513.726915 433.615721 
L 509.586639 438.251809 
L 505.037011 442.793317 
L 500.089068 447.231488 
L 494.754883 451.557713 
L 489.049185 455.763822 
L 482.98792 459.841857 
L 476.589315 463.78427 
L 469.873837 467.583996 
L 462.863328 471.234257 
L 455.582219 474.729025 
L 448.055888 478.062611 
L 440.311127 481.229972 
L 432.375423 484.226716 
L 424.276555 487.048862 
L 416.041639 489.693293 
L 407.69714 492.15726 
L 399.26787 494.438664 
L 390.776309 496.535949 
L 382.243317 498.447909 
L 373.685575 500.173914 
L 365.117836 501.713544 
L 356.551175 503.066719 
L 347.993263 504.233559 
L 339.449594 505.214308 
L 330.921662 506.009304 
L 322.409466 506.618891 
L 313.910545 507.04339 
L 305.420874 507.283039 
L 296.935555 507.338011 
L 288.449144 507.208313 
L 279.956273 506.893881 
L 271.45234 506.394516 
L 262.934119 505.70994 
L 254.399523 504.839813 
L 245.849756 503.783795 
L 237.287581 502.541574 
L 228.719261 501.112941 
L 220.154263 499.497886 
L 211.604389 497.696537 
L 203.085959 495.709482 
L 194.617069 493.537531 
L 186.219179 491.182013 
L 177.916026 488.644769 
L 169.73286 485.928018 
L 161.696686 483.034807 
L 153.834948 479.968524 
L 146.175314 476.73331 
L 138.744959 473.333893 
L 131.570488 469.775449 
L 124.676513 466.063945 
L 118.086694 462.205651 
L 111.822328 458.207462 
L 105.902741 454.076691 
L 100.345701 449.820974 
L 95.166157 445.448444 
L 90.37798 440.967414 
L 85.992825 436.386554 
L 82.020862 431.714755 
L 78.471146 426.96108 
L 75.350974 422.134836 
L 72.667006 417.245416 
L 70.424564 412.302387 
L 68.628068 407.315408 
L 67.281219 402.294213 
L 66.777185 399.773856 
L 66.386438 397.24863 
L 66.109207 394.719769 
L 65.945659 392.188509 
L 65.895804 389.656089 
L 65.959648 387.123745 
L 66.137179 384.592713 
L 66.428348 382.064232 
L 66.833044 379.539539 
L 67.350998 377.019865 
L 67.981941 374.50644 
L 69.581592 369.503247 
L 71.629015 364.539755 
L 74.119934 359.62564 
L 77.049569 354.770525 
L 80.411807 349.98388 
L 84.199546 345.275035 
L 88.404754 340.653201 
L 93.017484 336.127303 
L 98.026998 331.70615 
L 103.420321 327.398204 
L 109.182848 323.211651 
L 115.298392 319.154421 
L 121.747936 315.233889 
L 128.511334 311.457211 
L 135.565816 307.830908 
L 142.887089 304.361042 
L 150.449513 301.053237 
L 158.226019 297.912308 
L 166.189099 294.942748 
L 174.311135 292.148235 
L 182.564986 289.531929 
L 190.924249 287.096491 
L 199.364896 284.843831 
L 207.863985 282.775574 
L 216.402105 280.892712 
L 224.962334 279.195912 
L 233.530371 277.685528 
L 242.096318 276.361571 
L 250.652012 275.223934 
L 259.193432 274.272331 
L 267.718832 273.506432 
L 276.228649 272.92588 
L 284.725903 272.530385 
L 293.214509 272.31969 
L 301.699635 272.293679 
L 310.186698 272.452334 
L 318.681078 272.795743 
L 327.186951 273.324131 
L 335.707879 274.037777 
L 344.244805 274.937027 
L 352.796774 276.022217 
L 361.360542 277.293665 
L 369.928813 278.751514 
L 378.492619 280.395826 
L 387.03849 282.226315 
L 395.550448 284.242422 
L 404.00979 286.443277 
L 412.394312 288.827383 
L 420.680489 291.392991 
L 428.84235 294.137582 
L 436.853016 297.058175 
L 444.684881 300.151256 
L 452.310409 303.412502 
L 459.702232 306.837267 
L 466.834433 310.420076 
L 473.682217 314.155032 
L 480.222298 318.035741 
L 486.433976 322.055185 
L 492.297638 326.206097 
L 497.796575 330.480649 
L 502.915596 334.870756 
L 507.641261 339.368024 
L 511.962366 343.963722 
L 515.86856 348.64898 
L 519.351467 353.41464 
L 522.403637 358.251419 
L 525.018678 363.149881 
L 527.191532 368.100437 
L 528.917655 373.093433 
L 530.193829 378.119098 
L 530.662383 380.641115 
L 531.017511 383.167615 
L 531.259069 385.697361 
L 531.386994 388.229117 
L 531.401225 390.761646 
L 531.301745 393.293713 
L 531.088526 395.824077 
L 530.761704 398.351502 
L 530.321493 400.874755 
L 529.768107 403.392603 
L 528.322847 408.407165 
L 526.428669 413.385378 
L 524.089501 418.317533 
L 521.309754 423.193965 
L 518.09528 428.005174 
L 514.452702 432.741763 
L 510.389731 437.394477 
L 505.915779 441.954313 
L 501.040995 446.412371 
L 495.777906 450.760118 
L 490.140323 454.989237 
L 484.143903 459.091706 
L 477.806884 463.059995 
L 471.148647 466.886783 
L 464.191468 470.565423 
L 456.95892 474.089628 
L 449.476241 477.453628 
L 441.770156 480.652384 
L 433.867987 483.681178 
L 425.797389 486.536174 
L 417.585781 489.213958 
L 409.259866 491.711715 
L 400.844396 494.027327 
L 392.363148 496.158987 
L 383.836268 498.105585 
L 375.281929 499.866292 
L 366.715277 501.440668 
L 358.147451 502.828609 
L 349.587763 504.03016 
L 341.041028 505.045579 
L 332.510105 505.875173 
L 323.9952 506.519299 
L 315.493964 506.978272 
L 307.002978 507.252378 
L 298.517254 507.341761 
L 290.031458 507.246491 
L 281.540141 506.966511 
L 273.038712 506.501635 
L 264.523089 505.85161 
L 255.991747 505.016099 
L 247.444644 503.994762 
L 238.884289 502.787264 
L 230.31678 501.39341 
L 221.749959 499.813065 
L 213.196391 498.046439 
L 204.670769 496.093948 
L 196.191 493.956361 
L 187.778312 491.634986 
L 179.455461 489.131394 
L 171.247991 486.447944 
L 163.182346 483.587375 
L 155.28598 480.553042 
L 147.586519 477.349029 
L 140.11154 473.979776 
L 132.887317 470.450589 
L 125.93925 466.767143 
L 119.291106 462.935694 
L 112.964369 458.963076 
L 106.979356 454.856407 
L 101.353369 450.623405 
L 96.102394 446.27202 
L 91.240369 441.81056 
L 86.779146 437.24766 
L 82.729593 432.59211 
L 79.100472 427.853012 
L 75.899721 423.039582 
L 73.134025 418.161216 
L 70.808835 413.227458 
L 68.929015 408.247927 
L 67.498055 403.232373 
L 66.951813 400.714145 
L 66.518861 398.190588 
L 66.199343 395.662937 
L 65.993376 393.132428 
L 65.901079 390.600297 
L 65.922495 388.067778 
L 66.057705 385.536113 
L 66.306573 383.006539 
L 66.668941 380.480288 
L 67.144647 377.958597 
L 67.73346 375.442695 
L 69.249398 370.433193 
L 71.213563 365.461556 
L 73.622183 360.537507 
L 76.470472 355.670673 
L 79.752479 350.870538 
L 83.461633 346.146511 
L 87.589601 341.507755 
L 92.127204 336.963309 
L 97.063684 332.521981 
L 102.386444 328.19229 
L 108.08142 323.982518 
L 108.08142 323.982518 
" clip-path="url(#p33cfea5740)" style="fill: none; stroke-dasharray: 22.4,5.6,3.5,5.6; stroke-dashoffset: 0; stroke: #0000ff; stroke-opacity: 0.8; stroke-width: 3.5"/>
   </g>
   <g id="patch_3">
    <path d="M 42.620313 530.438125 
L 42.620313 22.318125 
" style="fill: none; stroke: #000000; stroke-width: 0.8; stroke-linejoin: miter; stroke-linecap: square"/>
   </g>
   <g id="patch_4">
    <path d="M 554.681117 530.438125 
L 554.681117 22.318125 
" style="fill: none; stroke: #000000; stroke-width: 0.8; stroke-linejoin: miter; stroke-linecap: square"/>
   </g>
   <g id="patch_5">
    <path d="M 42.620313 530.438125 
L 554.681117 530.438125 
" style="fill: none; stroke: #000000; stroke-width: 0.8; stroke-linejoin: miter; stroke-linecap: square"/>
   </g>
   <g id="patch_6">
    <path d="M 42.620313 22.318125 
L 554.681117 22.318125 
" style="fill: none; stroke: #000000; stroke-width: 0.8; stroke-linejoin: miter; stroke-linecap: square"/>
   </g>
   <g id="line2d_15">
    <path d="M 510.651505 342.512512 
L 503.54507 55.338888 
L 400.378044 45.414489 
L 297.071174 62.813358 
L 238.236523 164.180911 
L 225.713952 208.490432 
L 223.612278 229.492249 
L 224.742843 242.251372 
L 227.256586 251.095563 
L 230.47051 257.712244 
L 234.074489 262.904854 
L 237.908368 267.110975 
L 241.880666 270.596528 
L 245.938327 273.528508 
L 250.047025 276.023672 
L 254.186044 278.160431 
L 258.340514 279.999735 
L 262.502266 281.580411 
L 266.66515 282.933549 
L 270.825346 284.081356 
L 274.981515 285.033083 
L 279.132689 285.794843 
L 283.278715 286.369984 
L 287.420915 286.744047 
L 291.560815 286.899692 
L 295.700318 286.812218 
L 299.841848 286.436664 
L 303.987991 285.714659 
L 308.140642 284.553891 
L 312.30013 282.816263 
L 316.462566 280.293347 
L 320.613059 276.640269 
L 324.708257 271.252854 
L 328.626191 262.984198 
L 331.981659 249.35593 
L 333.30931 224.361441 
L 325.683334 176.533302 
L 293.395006 140.714455 
L 261.306599 170.739265 
L 248.188273 202.383615 
L 244.309253 222.279777 
L 244.229873 235.328978 
L 245.931889 244.535706 
L 248.576258 251.390247 
L 251.761595 256.685722 
L 255.275702 260.877694 
L 258.998778 264.242057 
L 262.856837 266.958896 
L 266.804348 269.143533 
L 270.811039 270.872518 
L 274.857099 272.190717 
L 278.927875 273.126279 
L 283.013737 273.677052 
L 287.105994 273.828554 
L 291.197491 273.54522 
L 295.278397 272.747072 
L 299.336446 271.330315 
L 303.350083 269.118618 
L 307.279741 265.835012 
L 311.047211 261.028093 
L 314.484385 253.927924 
L 317.198733 243.178073 
L 318.169673 226.447112 
L 314.638319 201.311674 
L 301.474165 175.312143 
L 280.807499 173.413795 
L 265.228771 191.678285 
L 257.660473 210.245735 
L 255.031173 224.281776 
L 255.053514 234.587964 
L 256.545859 242.304264 
L 258.900442 248.214809 
L 261.787969 252.814062 
L 265.017535 256.416356 
L 268.471647 259.225072 
L 272.075462 261.369148 
L 275.778334 262.927062 
L 279.543493 263.94019 
L 283.342555 264.416212 
L 287.150376 264.330555 
L 290.940513 263.622087 
L 294.682359 262.189667 
L 298.327653 259.856168 
L 301.802976 256.361543 
L 304.975785 251.296575 
L 307.59527 244.040225 
L 309.155999 233.715377 
L 308.62543 219.484391 
L 304.172701 202.346342 
L 294.292526 189.142708 
L 281.510691 188.92595 
L 271.107642 199.241131 
L 265.030963 211.840645 
L 262.394147 222.839892 
L 261.985299 231.632665 
L 262.969034 238.526452 
L 264.834989 243.92215 
L 267.273749 248.138968 
L 270.092049 251.403564 
L 273.164467 253.868012 
L 276.403973 255.63097 
L 279.748504 256.742891 
L 283.147899 257.220298 
L 286.557498 257.03826 
L 289.930376 256.135842 
L 293.210721 254.405263 
L 296.318265 251.674257 
L 299.131983 247.697505 
L 301.451396 242.139551 
L 302.933941 234.608563 
L 302.999772 224.86085 
L 300.78435 213.48419 
L 295.495873 203.126225 
L 287.575262 198.265134 
L 279.281748 200.934686 
L 272.862041 208.440241 
L 268.983075 217.166483 
L 267.265204 225.200729 
L 267.113131 231.981447 
L 268.040135 237.502824 
L 269.702956 241.910378 
L 271.867655 245.360952 
L 274.374948 247.979461 
L 277.11172 249.852251 
L 279.992348 251.032184 
L 282.948722 251.531799 
L 285.919677 251.340148 
L 288.839846 250.398836 
L 291.63506 248.622318 
L 294.205856 245.879585 
L 296.409903 242.002897 
L 298.03405 236.814777 
L 298.761368 230.219371 
L 298.154559 222.440725 
L 295.747717 214.443837 
L 291.384863 208.202778 
L 285.689013 205.871614 
L 279.977825 207.998027 
L 275.422872 213.152174 
L 272.483519 219.436019 
L 271.061828 225.58888 
L 270.853441 231.048051 
L 271.55036 235.647748 
L 272.901586 239.388921 
L 274.717373 242.32808 
L 276.856881 244.524687 
L 279.211286 246.023895 
L 281.69371 246.848425 
L 284.228186 246.997239 
L 286.741577 246.444536 
L 289.154849 245.139771 
L 291.37254 243.010384 
L 293.272872 239.971651 
L 294.690654 235.954458 
L 295.406083 230.973051 
L 295.152067 225.245674 
L 293.670641 219.379588 
L 290.869456 214.457856 
L 287.024484 211.731591 
L 282.813214 211.886217 
L 279.020421 214.576199 
L 276.17388 218.792237 
L 274.436681 223.530698 
L 273.727534 228.12719 
L 273.867743 232.23822 
L 274.668355 235.725719 
L 275.961972 238.551251 
L 277.613444 240.720547 
L 279.510538 242.248375 
L 281.560842 243.14446 
L 283.68217 243.407747 
L 285.796254 243.021745 
L 287.821557 241.958378 
L 289.66578 240.181167 
L 291.218689 237.657722 
L 292.344323 234.388288 
L 292.881141 230.452341 
L 292.656064 226.082312 
L 291.530769 221.742171 
L 289.487771 218.125587 
L 286.720834 215.972073 
L 283.639999 215.723327 
L 280.737165 217.285722 
L 278.402648 220.13947 
L 276.830356 223.641523 
L 276.040423 227.264651 
L 275.95158 230.663596 
L 276.443121 233.651822 
L 277.389828 236.134358 
L 278.678502 238.074598 
L 280.208048 239.457108 
L 281.890624 240.275278 
L 283.645183 240.52195 
L 285.393717 240.185008 
L 287.056381 239.25055 
L 288.54597 237.707516 
L 289.764257 235.561153 
L 290.600547 232.855208 
L 290.936514 229.705762 
L 290.662849 226.341362 
L 289.714805 223.127457 
L 288.12042 220.532971 
L 286.038129 219.006527 
L 283.744673 218.802259 
L 281.560067 219.872782 
L 279.752723 221.918084 
L 278.479958 224.531385 
L 277.788822 227.337715 
L 277.647798 230.057892 
L 277.984564 232.506581 
L 278.710784 234.578048 
L 279.736508 236.210028 
L 280.977887 237.372055 
L 282.355138 238.043801 
L 283.793693 238.214538 
L 285.220332 237.875005 
L 286.56021 237.018741 
L 287.732707 235.661995 
L 288.655552 233.82892 
L 289.240603 231.589703 
L 289.404674 229.076605 
L 289.083733 226.494711 
L 288.258235 224.128116 
L 286.977584 222.295615 
L 285.373081 221.272668 
L 283.642228 221.199592 
L 282.000411 222.030963 
L 280.631622 223.576496 
L 279.652214 225.568834 
L 279.107686 227.746333 
L 278.989458 229.893479 
L 279.252753 231.85556 
L 279.835043 233.529892 
L 280.667709 234.850309 
L 281.680638 235.776833 
L 282.805888 236.287231 
L 283.976397 236.365158 
L 285.125499 236.008861 
L 286.186132 235.223043 
L 287.089507 234.0295 
L 287.766347 232.47411 
L 288.150659 230.638438 
L 288.186182 228.648612 
L 287.84144 226.682506 
L 287.122124 224.952974 
L 286.08334 223.678115 
L 284.834041 223.022361 
L 283.516826 223.06306 
L 282.281549 223.75527 
L 281.255111 224.966533 
L 280.521834 226.514441 
L 280.118466 228.213527 
L 280.045235 229.900704 
L 280.272089 231.453525 
L 280.754858 232.778394 
L 281.439415 233.81796 
L 282.268992 234.527896 
L 283.185192 234.886837 
L 284.130161 234.884753 
L 285.045144 234.515529 
L 285.871872 233.797368 
L 286.55359 232.76136 
L 287.033809 231.455261 
L 287.26667 229.967296 
L 287.216531 228.408764 
L 286.871826 226.924182 
L 286.251469 225.670986 
L 285.409469 224.794347 
L 284.43214 224.399153 
L 283.425289 224.516034 
L 282.494977 225.108845 
L 281.730286 226.079421 
L 281.191201 227.298114 
L 280.90639 228.630271 
L 280.877046 229.954093 
L 281.083109 231.170911 
L 281.490623 232.205579 
L 282.057551 233.004324 
L 282.736842 233.530413 
L 283.479871 233.76601 
L 284.236407 233.696269 
L 284.956474 233.32913 
L 285.591916 232.685474 
L 286.095611 231.795199 
L 286.425981 230.715288 
L 286.550061 229.521746 
L 286.448193 228.312726 
L 286.121889 227.200434 
L 285.593303 226.301041 
L 284.913026 225.707686 
L 284.148111 225.488581 
L 283.377249 225.650097 
L 282.677043 226.161699 
L 282.110335 226.948454 
L 281.720072 227.915766 
L 281.527722 228.963709 
L 281.533853 230.000503 
L 281.723661 230.947981 
L 282.07057 231.746065 
L 282.540967 232.347849 
L 283.096061 232.726874 
L 283.695093 232.861284 
L 284.295625 232.747759 
L 284.856823 232.397862 
L 285.338396 231.828122 
L 285.703999 231.075933 
L 285.92194 230.192004 
L 285.97219 229.24532 
L 285.843844 228.31559 
L 285.546207 227.488651 
L 285.102112 226.848308 
L 284.554503 226.45597 
L 283.956317 226.3518 
L 283.36587 226.534217 
L 282.83993 226.975311 
L 282.422303 227.616458 
L 282.144267 228.387665 
L 282.021398 229.213036 
L 282.052429 230.02356 
L 282.227022 230.7562 
L 282.522514 231.364817 
L 282.912198 231.811051 
L 283.363897 232.072026 
L 283.843841 232.134649 
L 284.317244 231.997501 
L 284.750264 231.670799 
L 285.110073 231.175413 
L 285.370114 230.548119 
L 285.507104 229.833176 
L 285.508886 229.088884 
L 285.371947 228.379414 
L 285.107838 227.76925 
L 284.738793 227.317734 
L 284.299787 227.064961 
L 283.832994 227.036361 
L 283.381773 227.222524 
L 282.986978 227.600082 
L 282.681866 228.123885 
L 282.486815 228.739802 
L 282.414565 229.389693 
L 282.461927 230.020724 
L 282.620106 230.5849 
L 282.87148 231.043225 
L 283.193107 231.369481 
L 283.559067 231.540587 
L 283.941091 231.551612 
L 284.311179 231.404491 
L 284.641581 231.10807 
L 284.907725 230.68558 
L 285.088052 230.167484 
L 285.14006 229.01455 
L 285.005942 228.476617 
L 284.776302 228.03034 
L 284.472592 227.714773 
L 284.122521 227.56086 
L 283.758918 227.576664 
L 283.414346 227.756176 
L 283.120145 228.077878 
L 282.765275 228.996499 
L 282.78399 229.998052 
L 283.138146 230.770883 
L 283.402545 231.002932 
L 283.697282 231.109187 
L 283.999563 231.087679 
L 284.286608 230.939453 
L 284.730368 230.32056 
L 284.893541 229.442818 
L 284.723644 228.588456 
L 284.27947 228.048609 
L 284.001322 227.959316 
L 283.719223 228.003241 
L 283.457207 228.16919 
L 283.07937 228.788696 
L 282.977318 229.581751 
L 283.162096 230.287304 
L 283.556512 230.700415 
L 284.030208 230.718702 
L 284.438499 230.349115 
L 284.6581 229.710227 
L 284.620521 229.005988 
L 284.342058 228.470049 
L 283.920979 228.279868 
L 283.503991 228.487174 
L 283.229549 228.997319 
L 283.175706 229.622481 
L 283.34373 230.160166 
L 283.667958 230.452916 
L 284.041677 230.427459 
L 284.349449 230.101801 
L 284.498306 229.58245 
L 284.44212 229.037616 
L 284.20493 228.646361 
L 283.869596 228.535908 
L 283.551313 228.731057 
L 283.353863 229.149082 
L 283.332579 229.640364 
L 283.482629 230.046929 
L 283.747481 230.250619 
L 284.040473 230.198737 
L 284.270573 229.917012 
L 284.368043 229.498137 
L 284.30416 229.078754 
L 284.104221 228.79625 
L 283.838403 228.739383 
L 283.596398 228.917178 
L 283.45644 229.258146 
L 283.507864 229.812017 
L 283.689114 230.041328 
L 283.920424 230.078313 
L 284.12784 229.917988 
L 284.262677 229.444479 
L 284.123747 229.00268 
L 283.926841 228.886293 
L 283.722452 228.960139 
L 283.540919 229.335279 
L 283.599794 229.763008 
L 283.840871 229.95219 
L 284.01789 229.881718 
L 284.173112 229.548443 
L 284.115484 229.168615 
L 283.895809 229.008034 
L 283.675914 229.165555 
L 283.608374 229.508585 
L 283.726792 229.788724 
L 283.937272 229.824385 
L 284.002231 229.774697 
L 284.002231 229.774697 
" clip-path="url(#p33cfea5740)" style="fill: none; stroke-dasharray: 3.5,5.775; stroke-dashoffset: 0; stroke: #008000; stroke-opacity: 0.8; stroke-width: 3.5"/>
   </g>
   <g id="text_15">
    <!-- Phase Portrait (x0 vs x1) -->
    <g transform="translate(224.959465 16.318125) scale(0.12 -0.12)">
     <defs>
      <path id="DejaVuSans-50" d="M 1259 4147 
L 1259 2394 
L 2053 2394 
Q 2494 2394 2734 2622 
Q 2975 2850 2975 3272 
Q 2975 3691 2734 3919 
Q 2494 4147 2053 4147 
L 1259 4147 
z
M 628 4666 
L 2053 4666 
Q 2838 4666 3239 4311 
Q 3641 3956 3641 3272 
Q 3641 2581 3239 2228 
Q 2838 1875 2053 1875 
L 1259 1875 
L 1259 0 
L 628 0 
L 628 4666 
z
" transform="scale(0.015625)"/>
      <path id="DejaVuSans-68" d="M 3513 2113 
L 3513 0 
L 2938 0 
L 2938 2094 
Q 2938 2591 2744 2837 
Q 2550 3084 2163 3084 
Q 1697 3084 1428 2787 
Q 1159 2491 1159 1978 
L 1159 0 
L 581 0 
L 581 4863 
L 1159 4863 
L 1159 2956 
Q 1366 3272 1645 3428 
Q 1925 3584 2291 3584 
Q 2894 3584 3203 3211 
Q 3513 2838 3513 2113 
z
" transform="scale(0.015625)"/>
      <path id="DejaVuSans-61" d="M 2194 1759 
Q 1497 1759 1228 1600 
Q 959 1441 959 1056 
Q 959 750 1161 570 
Q 1363 391 1709 391 
Q 2188 391 2477 730 
Q 2766 1069 2766 1631 
L 2766 1759 
L 2194 1759 
z
M 3341 1997 
L 3341 0 
L 2766 0 
L 2766 531 
Q 2569 213 2275 61 
Q 1981 -91 1556 -91 
Q 1019 -91 701 211 
Q 384 513 384 1019 
Q 384 1609 779 1909 
Q 1175 2209 1959 2209 
L 2766 2209 
L 2766 2266 
Q 2766 2663 2505 2880 
Q 2244 3097 1772 3097 
Q 1472 3097 1187 3025 
Q 903 2953 641 2809 
L 641 3341 
Q 956 3463 1253 3523 
Q 1550 3584 1831 3584 
Q 2591 3584 2966 3190 
Q 3341 2797 3341 1997 
z
" transform="scale(0.015625)"/>
      <path id="DejaVuSans-73" d="M 2834 3397 
L 2834 2853 
Q 2591 2978 2328 3040 
Q 2066 3103 1784 3103 
Q 1356 3103 1142 2972 
Q 928 2841 928 2578 
Q 928 2378 1081 2264 
Q 1234 2150 1697 2047 
L 1894 2003 
Q 2506 1872 2764 1633 
Q 3022 1394 3022 966 
Q 3022 478 2636 193 
Q 2250 -91 1575 -91 
Q 1294 -91 989 -36 
Q 684 19 347 128 
L 347 722 
Q 666 556 975 473 
Q 1284 391 1588 391 
Q 1994 391 2212 530 
Q 2431 669 2431 922 
Q 2431 1156 2273 1281 
Q 2116 1406 1581 1522 
L 1381 1569 
Q 847 1681 609 1914 
Q 372 2147 372 2553 
Q 372 3047 722 3315 
Q 1072 3584 1716 3584 
Q 2034 3584 2315 3537 
Q 2597 3491 2834 3397 
z
" transform="scale(0.015625)"/>
      <path id="DejaVuSans-65" d="M 3597 1894 
L 3597 1613 
L 953 1613 
Q 991 1019 1311 708 
Q 1631 397 2203 397 
Q 2534 397 2845 478 
Q 3156 559 3463 722 
L 3463 178 
Q 3153 47 2828 -22 
Q 2503 -91 2169 -91 
Q 1331 -91 842 396 
Q 353 884 353 1716 
Q 353 2575 817 3079 
Q 1281 3584 2069 3584 
Q 2775 3584 3186 3129 
Q 3597 2675 3597 1894 
z
M 3022 2063 
Q 3016 2534 2758 2815 
Q 2500 3097 2075 3097 
Q 1594 3097 1305 2825 
Q 1016 2553 972 2059 
L 3022 2063 
z
" transform="scale(0.015625)"/>
      <path id="DejaVuSans-20" transform="scale(0.015625)"/>
      <path id="DejaVuSans-6f" d="M 1959 3097 
Q 1497 3097 1228 2736 
Q 959 2375 959 1747 
Q 959 1119 1226 758 
Q 1494 397 1959 397 
Q 2419 397 2687 759 
Q 2956 1122 2956 1747 
Q 2956 2369 2687 2733 
Q 2419 3097 1959 3097 
z
M 1959 3584 
Q 2709 3584 3137 3096 
Q 3566 2609 3566 1747 
Q 3566 888 3137 398 
Q 2709 -91 1959 -91 
Q 1206 -91 779 398 
Q 353 888 353 1747 
Q 353 2609 779 3096 
Q 1206 3584 1959 3584 
z
" transform="scale(0.015625)"/>
      <path id="DejaVuSans-72" d="M 2631 2963 
Q 2534 3019 2420 3045 
Q 2306 3072 2169 3072 
Q 1681 3072 1420 2755 
Q 1159 2438 1159 1844 
L 1159 0 
L 581 0 
L 581 3500 
L 1159 3500 
L 1159 2956 
Q 1341 3275 1631 3429 
Q 1922 3584 2338 3584 
Q 2397 3584 2469 3576 
Q 2541 3569 2628 3553 
L 2631 2963 
z
" transform="scale(0.015625)"/>
      <path id="DejaVuSans-74" d="M 1172 4494 
L 1172 3500 
L 2356 3500 
L 2356 3053 
L 1172 3053 
L 1172 1153 
Q 1172 725 1289 603 
Q 1406 481 1766 481 
L 2356 481 
L 2356 0 
L 1766 0 
Q 1100 0 847 248 
Q 594 497 594 1153 
L 594 3053 
L 172 3053 
L 172 3500 
L 594 3500 
L 594 4494 
L 1172 4494 
z
" transform="scale(0.015625)"/>
      <path id="DejaVuSans-69" d="M 603 3500 
L 1178 3500 
L 1178 0 
L 603 0 
L 603 3500 
z
M 603 4863 
L 1178 4863 
L 1178 4134 
L 603 4134 
L 603 4863 
z
" transform="scale(0.015625)"/>
      <path id="DejaVuSans-28" d="M 1984 4856 
Q 1566 4138 1362 3434 
Q 1159 2731 1159 2009 
Q 1159 1288 1364 580 
Q 1569 -128 1984 -844 
L 1484 -844 
Q 1016 -109 783 600 
Q 550 1309 550 2009 
Q 550 2706 781 3412 
Q 1013 4119 1484 4856 
L 1984 4856 
z
" transform="scale(0.015625)"/>
      <path id="DejaVuSans-76" d="M 191 3500 
L 800 3500 
L 1894 563 
L 2988 3500 
L 3597 3500 
L 2284 0 
L 1503 0 
L 191 3500 
z
" transform="scale(0.015625)"/>
      <path id="DejaVuSans-29" d="M 513 4856 
L 1013 4856 
Q 1481 4119 1714 3412 
Q 1947 2706 1947 2009 
Q 1947 1309 1714 600 
Q 1481 -109 1013 -844 
L 513 -844 
Q 928 -128 1133 580 
Q 1338 1288 1338 2009 
Q 1338 2731 1133 3434 
Q 928 4138 513 4856 
z
" transform="scale(0.015625)"/>
     </defs>
     <use xlink:href="#DejaVuSans-50"/>
     <use xlink:href="#DejaVuSans-68" transform="translate(60.302734 0)"/>
     <use xlink:href="#DejaVuSans-61" transform="translate(123.681641 0)"/>
     <use xlink:href="#DejaVuSans-73" transform="translate(184.960938 0)"/>
     <use xlink:href="#DejaVuSans-65" transform="translate(237.060547 0)"/>
     <use xlink:href="#DejaVuSans-20" transform="translate(298.583984 0)"/>
     <use xlink:href="#DejaVuSans-50" transform="translate(330.371094 0)"/>
     <use xlink:href="#DejaVuSans-6f" transform="translate(387.048828 0)"/>
     <use xlink:href="#DejaVuSans-72" transform="translate(448.230469 0)"/>
     <use xlink:href="#DejaVuSans-74" transform="translate(489.34375 0)"/>
     <use xlink:href="#DejaVuSans-72" transform="translate(528.552734 0)"/>
     <use xlink:href="#DejaVuSans-61" transform="translate(569.666016 0)"/>
     <use xlink:href="#DejaVuSans-69" transform="translate(630.945312 0)"/>
     <use xlink:href="#DejaVuSans-74" transform="translate(658.728516 0)"/>
     <use xlink:href="#DejaVuSans-20" transform="translate(697.9375 0)"/>
     <use xlink:href="#DejaVuSans-28" transform="translate(729.724609 0)"/>
     <use xlink:href="#DejaVuSans-78" transform="translate(768.738281 0)"/>
     <use xlink:href="#DejaVuSans-30" transform="translate(827.917969 0)"/>
     <use xlink:href="#DejaVuSans-20" transform="translate(891.541016 0)"/>
     <use xlink:href="#DejaVuSans-76" transform="translate(923.328125 0)"/>
     <use xlink:href="#DejaVuSans-73" transform="translate(982.507812 0)"/>
     <use xlink:href="#DejaVuSans-20" transform="translate(1034.607422 0)"/>
     <use xlink:href="#DejaVuSans-78" transform="translate(1066.394531 0)"/>
     <use xlink:href="#DejaVuSans-31" transform="translate(1125.574219 0)"/>
     <use xlink:href="#DejaVuSans-29" transform="translate(1189.197266 0)"/>
    </g>
   </g>
   <g id="line2d_16">
    <path d="M 510.651505 342.512512 
L 514.601741 348.175677 
L 518.050149 353.808515 
L 520.999843 359.400557 
L 523.45503 364.941682 
L 525.420466 370.421951 
L 526.902183 375.83189 
L 527.463688 378.507591 
L 527.906744 381.162241 
L 528.232369 383.794767 
L 528.441601 386.404108 
L 528.535479 388.989199 
L 528.5151 391.549009 
L 528.381543 394.082489 
L 528.136054 396.58868 
L 527.779893 399.066634 
L 527.314322 401.515403 
L 526.06019 406.321701 
L 524.384666 411.000519 
L 522.299447 415.545252 
L 519.816605 419.949542 
L 516.948997 424.20762 
L 513.709798 428.313977 
L 510.112713 432.263549 
L 506.171927 436.051744 
L 501.901889 439.674226 
L 497.317569 443.127261 
L 492.434137 446.407378 
L 487.267093 449.511555 
L 481.832209 452.437236 
L 476.145407 455.182117 
L 470.222865 457.744484 
L 464.080847 460.12287 
L 457.735748 462.316246 
L 451.204036 464.324015 
L 444.50222 466.145824 
L 437.646809 467.781864 
L 430.654292 469.232553 
L 423.541108 470.498712 
L 416.32358 471.581546 
L 409.017971 472.482482 
L 401.640316 473.203428 
L 394.206536 473.746489 
L 386.732331 474.114118 
L 379.233132 474.309096 
L 371.724212 474.334397 
L 364.220426 474.193389 
L 356.736433 473.889603 
L 349.286528 473.42686 
L 341.884608 472.809233 
L 334.544336 472.040954 
L 327.278799 471.126557 
L 320.100826 470.070701 
L 313.022767 468.878257 
L 302.618905 466.844577 
L 292.504797 464.532628 
L 282.716311 461.96078 
L 273.286755 459.148013 
L 264.247065 456.113775 
L 255.625319 452.877943 
L 247.447093 449.460676 
L 242.252724 447.091751 
L 237.271768 444.657301 
L 232.509728 442.163398 
L 227.971728 439.616114 
L 223.662112 437.021497 
L 219.5849 434.385579 
L 215.743475 431.714348 
L 212.140666 429.013736 
L 208.778928 426.28964 
L 205.659965 423.54785 
L 202.785177 420.794108 
L 200.155348 418.03405 
L 197.770759 415.273207 
L 195.63133 412.517035 
L 193.736298 409.770821 
L 192.084625 407.039776 
L 190.67471 404.328951 
L 189.504509 401.643255 
L 188.571658 398.987491 
L 187.873195 396.366239 
L 187.405922 393.783987 
L 187.166158 391.24502 
L 187.149851 388.753452 
L 187.352679 386.313268 
L 187.769829 383.928195 
L 188.396303 381.601857 
L 189.226705 379.337643 
L 190.25536 377.138754 
L 191.476375 375.00825 
L 192.883491 372.948911 
L 194.47031 370.963406 
L 196.230144 369.054154 
L 198.156111 367.223384 
L 200.241176 365.47317 
L 202.478063 363.805307 
L 204.85941 362.221475 
L 208.685758 360.006354 
L 212.794253 357.987545 
L 217.158509 356.16808 
L 221.751817 354.550109 
L 226.547239 353.134757 
L 231.517748 351.922263 
L 236.636341 350.911981 
L 241.876179 350.102345 
L 247.210653 349.491023 
L 252.613555 349.074821 
L 258.059136 348.849808 
L 263.522204 348.811344 
L 268.978281 348.954064 
L 274.403576 349.272019 
L 279.775197 349.758622 
L 286.815967 350.657397 
L 293.672867 351.825068 
L 300.299845 353.242031 
L 306.654452 354.887512 
L 312.698007 356.739781 
L 318.395754 358.776352 
L 323.716969 360.974192 
L 328.635072 363.309911 
L 333.127674 365.759969 
L 336.206785 367.658401 
L 339.030034 369.598073 
L 341.592611 371.569252 
L 343.890961 373.562353 
L 345.922752 375.567968 
L 347.686987 377.57693 
L 349.183765 379.580306 
L 350.41444 381.56947 
L 351.381467 383.536109 
L 352.088348 385.472237 
L 352.539706 387.37027 
L 352.741063 389.222981 
L 352.698937 391.02358 
L 352.420706 392.765702 
L 351.914536 394.443406 
L 351.189414 396.051248 
L 350.25496 397.58421 
L 349.121474 399.03778 
L 347.799812 400.407923 
L 346.301318 401.691067 
L 344.637813 402.884169 
L 342.184198 404.330489 
L 339.488596 405.607389 
L 336.581425 406.711597 
L 333.493549 407.641302 
L 330.256027 408.396117 
L 326.899867 408.977027 
L 323.455785 409.386328 
L 319.072965 409.662152 
L 314.657186 409.684927 
L 310.263357 409.466708 
L 305.943444 409.021869 
L 301.745992 408.366821 
L 297.715701 407.519713 
L 293.893076 406.500127 
L 290.31414 405.328775 
L 287.010223 404.027188 
L 284.007806 402.617424 
L 281.328441 401.121771 
L 278.988732 399.562465 
L 277.000371 397.961432 
L 275.370243 396.340029 
L 274.10057 394.718821 
L 273.343005 393.435178 
L 272.811679 392.173673 
L 272.501856 390.943237 
L 272.407271 389.75221 
L 272.520233 388.608302 
L 272.831726 387.518547 
L 273.331555 386.489287 
L 274.008461 385.526147 
L 275.084958 384.422586 
L 276.393486 383.437844 
L 277.906945 382.578017 
L 279.597082 381.847399 
L 281.817585 381.144648 
L 283.793807 380.704766 
L 283.793807 380.704766 
" clip-path="url(#p33cfea5740)" style="fill: none; stroke-dasharray: 12.95,5.6; stroke-dashoffset: 0; stroke: #ff0000; stroke-opacity: 0.8; stroke-width: 3.5"/>
   </g>
   <g id="legend_1">
    <g id="patch_7">
     <path d="M 49.620313 89.030625 
L 194.970313 89.030625 
Q 196.970313 89.030625 196.970313 87.030625 
L 196.970313 29.318125 
Q 196.970313 27.318125 194.970313 27.318125 
L 49.620313 27.318125 
Q 47.620313 27.318125 47.620313 29.318125 
L 47.620313 87.030625 
Q 47.620313 89.030625 49.620313 89.030625 
z
" style="fill: #ffffff; opacity: 0.8; stroke: #cccccc; stroke-linejoin: miter"/>
    </g>
    <g id="line2d_17">
     <path d="M 51.620313 35.416562 
L 61.620313 35.416562 
L 71.620313 35.416562 
" style="fill: none; stroke: #000000; stroke-opacity: 0.3; stroke-width: 7; stroke-linecap: square"/>
    </g>
    <g id="text_16">
     <!-- True/Underlying model -->
     <g transform="translate(79.620313 38.916562) scale(0.1 -0.1)">
      <defs>
       <path id="DejaVuSans-54" d="M -19 4666 
L 3928 4666 
L 3928 4134 
L 2272 4134 
L 2272 0 
L 1638 0 
L 1638 4134 
L -19 4134 
L -19 4666 
z
" transform="scale(0.015625)"/>
       <path id="DejaVuSans-75" d="M 544 1381 
L 544 3500 
L 1119 3500 
L 1119 1403 
Q 1119 906 1312 657 
Q 1506 409 1894 409 
Q 2359 409 2629 706 
Q 2900 1003 2900 1516 
L 2900 3500 
L 3475 3500 
L 3475 0 
L 2900 0 
L 2900 538 
Q 2691 219 2414 64 
Q 2138 -91 1772 -91 
Q 1169 -91 856 284 
Q 544 659 544 1381 
z
M 1991 3584 
L 1991 3584 
z
" transform="scale(0.015625)"/>
       <path id="DejaVuSans-2f" d="M 1625 4666 
L 2156 4666 
L 531 -594 
L 0 -594 
L 1625 4666 
z
" transform="scale(0.015625)"/>
       <path id="DejaVuSans-55" d="M 556 4666 
L 1191 4666 
L 1191 1831 
Q 1191 1081 1462 751 
Q 1734 422 2344 422 
Q 2950 422 3222 751 
Q 3494 1081 3494 1831 
L 3494 4666 
L 4128 4666 
L 4128 1753 
Q 4128 841 3676 375 
Q 3225 -91 2344 -91 
Q 1459 -91 1007 375 
Q 556 841 556 1753 
L 556 4666 
z
" transform="scale(0.015625)"/>
       <path id="DejaVuSans-6e" d="M 3513 2113 
L 3513 0 
L 2938 0 
L 2938 2094 
Q 2938 2591 2744 2837 
Q 2550 3084 2163 3084 
Q 1697 3084 1428 2787 
Q 1159 2491 1159 1978 
L 1159 0 
L 581 0 
L 581 3500 
L 1159 3500 
L 1159 2956 
Q 1366 3272 1645 3428 
Q 1925 3584 2291 3584 
Q 2894 3584 3203 3211 
Q 3513 2838 3513 2113 
z
" transform="scale(0.015625)"/>
       <path id="DejaVuSans-64" d="M 2906 2969 
L 2906 4863 
L 3481 4863 
L 3481 0 
L 2906 0 
L 2906 525 
Q 2725 213 2448 61 
Q 2172 -91 1784 -91 
Q 1150 -91 751 415 
Q 353 922 353 1747 
Q 353 2572 751 3078 
Q 1150 3584 1784 3584 
Q 2172 3584 2448 3432 
Q 2725 3281 2906 2969 
z
M 947 1747 
Q 947 1113 1208 752 
Q 1469 391 1925 391 
Q 2381 391 2643 752 
Q 2906 1113 2906 1747 
Q 2906 2381 2643 2742 
Q 2381 3103 1925 3103 
Q 1469 3103 1208 2742 
Q 947 2381 947 1747 
z
" transform="scale(0.015625)"/>
       <path id="DejaVuSans-6c" d="M 603 4863 
L 1178 4863 
L 1178 0 
L 603 0 
L 603 4863 
z
" transform="scale(0.015625)"/>
       <path id="DejaVuSans-79" d="M 2059 -325 
Q 1816 -950 1584 -1140 
Q 1353 -1331 966 -1331 
L 506 -1331 
L 506 -850 
L 844 -850 
Q 1081 -850 1212 -737 
Q 1344 -625 1503 -206 
L 1606 56 
L 191 3500 
L 800 3500 
L 1894 763 
L 2988 3500 
L 3597 3500 
L 2059 -325 
z
" transform="scale(0.015625)"/>
       <path id="DejaVuSans-67" d="M 2906 1791 
Q 2906 2416 2648 2759 
Q 2391 3103 1925 3103 
Q 1463 3103 1205 2759 
Q 947 2416 947 1791 
Q 947 1169 1205 825 
Q 1463 481 1925 481 
Q 2391 481 2648 825 
Q 2906 1169 2906 1791 
z
M 3481 434 
Q 3481 -459 3084 -895 
Q 2688 -1331 1869 -1331 
Q 1566 -1331 1297 -1286 
Q 1028 -1241 775 -1147 
L 775 -588 
Q 1028 -725 1275 -790 
Q 1522 -856 1778 -856 
Q 2344 -856 2625 -561 
Q 2906 -266 2906 331 
L 2906 616 
Q 2728 306 2450 153 
Q 2172 0 1784 0 
Q 1141 0 747 490 
Q 353 981 353 1791 
Q 353 2603 747 3093 
Q 1141 3584 1784 3584 
Q 2172 3584 2450 3431 
Q 2728 3278 2906 2969 
L 2906 3500 
L 3481 3500 
L 3481 434 
z
" transform="scale(0.015625)"/>
       <path id="DejaVuSans-6d" d="M 3328 2828 
Q 3544 3216 3844 3400 
Q 4144 3584 4550 3584 
Q 5097 3584 5394 3201 
Q 5691 2819 5691 2113 
L 5691 0 
L 5113 0 
L 5113 2094 
Q 5113 2597 4934 2840 
Q 4756 3084 4391 3084 
Q 3944 3084 3684 2787 
Q 3425 2491 3425 1978 
L 3425 0 
L 2847 0 
L 2847 2094 
Q 2847 2600 2669 2842 
Q 2491 3084 2119 3084 
Q 1678 3084 1418 2786 
Q 1159 2488 1159 1978 
L 1159 0 
L 581 0 
L 581 3500 
L 1159 3500 
L 1159 2956 
Q 1356 3278 1631 3431 
Q 1906 3584 2284 3584 
Q 2666 3584 2933 3390 
Q 3200 3197 3328 2828 
z
" transform="scale(0.015625)"/>
      </defs>
      <use xlink:href="#DejaVuSans-54"/>
      <use xlink:href="#DejaVuSans-72" transform="translate(46.333984 0)"/>
      <use xlink:href="#DejaVuSans-75" transform="translate(87.447266 0)"/>
      <use xlink:href="#DejaVuSans-65" transform="translate(150.826172 0)"/>
      <use xlink:href="#DejaVuSans-2f" transform="translate(212.349609 0)"/>
      <use xlink:href="#DejaVuSans-55" transform="translate(246.041016 0)"/>
      <use xlink:href="#DejaVuSans-6e" transform="translate(319.234375 0)"/>
      <use xlink:href="#DejaVuSans-64" transform="translate(382.613281 0)"/>
      <use xlink:href="#DejaVuSans-65" transform="translate(446.089844 0)"/>
      <use xlink:href="#DejaVuSans-72" transform="translate(507.613281 0)"/>
      <use xlink:href="#DejaVuSans-6c" transform="translate(548.726562 0)"/>
      <use xlink:href="#DejaVuSans-79" transform="translate(576.509766 0)"/>
      <use xlink:href="#DejaVuSans-69" transform="translate(635.689453 0)"/>
      <use xlink:href="#DejaVuSans-6e" transform="translate(663.472656 0)"/>
      <use xlink:href="#DejaVuSans-67" transform="translate(726.851562 0)"/>
      <use xlink:href="#DejaVuSans-20" transform="translate(790.328125 0)"/>
      <use xlink:href="#DejaVuSans-6d" transform="translate(822.115234 0)"/>
      <use xlink:href="#DejaVuSans-6f" transform="translate(919.527344 0)"/>
      <use xlink:href="#DejaVuSans-64" transform="translate(980.708984 0)"/>
      <use xlink:href="#DejaVuSans-65" transform="translate(1044.185547 0)"/>
      <use xlink:href="#DejaVuSans-6c" transform="translate(1105.708984 0)"/>
     </g>
    </g>
    <g id="line2d_18">
     <path d="M 51.620313 50.094687 
L 61.620313 50.094687 
L 71.620313 50.094687 
" style="fill: none; stroke-dasharray: 12.95,5.6; stroke-dashoffset: 0; stroke: #ff0000; stroke-opacity: 0.8; stroke-width: 3.5"/>
    </g>
    <g id="text_17">
     <!-- AutoSINDy -->
     <g transform="translate(79.620313 53.594687) scale(0.1 -0.1)">
      <defs>
       <path id="DejaVuSans-41" d="M 2188 4044 
L 1331 1722 
L 3047 1722 
L 2188 4044 
z
M 1831 4666 
L 2547 4666 
L 4325 0 
L 3669 0 
L 3244 1197 
L 1141 1197 
L 716 0 
L 50 0 
L 1831 4666 
z
" transform="scale(0.015625)"/>
       <path id="DejaVuSans-53" d="M 3425 4513 
L 3425 3897 
Q 3066 4069 2747 4153 
Q 2428 4238 2131 4238 
Q 1616 4238 1336 4038 
Q 1056 3838 1056 3469 
Q 1056 3159 1242 3001 
Q 1428 2844 1947 2747 
L 2328 2669 
Q 3034 2534 3370 2195 
Q 3706 1856 3706 1288 
Q 3706 609 3251 259 
Q 2797 -91 1919 -91 
Q 1588 -91 1214 -16 
Q 841 59 441 206 
L 441 856 
Q 825 641 1194 531 
Q 1563 422 1919 422 
Q 2459 422 2753 634 
Q 3047 847 3047 1241 
Q 3047 1584 2836 1778 
Q 2625 1972 2144 2069 
L 1759 2144 
Q 1053 2284 737 2584 
Q 422 2884 422 3419 
Q 422 4038 858 4394 
Q 1294 4750 2059 4750 
Q 2388 4750 2728 4690 
Q 3069 4631 3425 4513 
z
" transform="scale(0.015625)"/>
       <path id="DejaVuSans-49" d="M 628 4666 
L 1259 4666 
L 1259 0 
L 628 0 
L 628 4666 
z
" transform="scale(0.015625)"/>
       <path id="DejaVuSans-4e" d="M 628 4666 
L 1478 4666 
L 3547 763 
L 3547 4666 
L 4159 4666 
L 4159 0 
L 3309 0 
L 1241 3903 
L 1241 0 
L 628 0 
L 628 4666 
z
" transform="scale(0.015625)"/>
       <path id="DejaVuSans-44" d="M 1259 4147 
L 1259 519 
L 2022 519 
Q 2988 519 3436 956 
Q 3884 1394 3884 2338 
Q 3884 3275 3436 3711 
Q 2988 4147 2022 4147 
L 1259 4147 
z
M 628 4666 
L 1925 4666 
Q 3281 4666 3915 4102 
Q 4550 3538 4550 2338 
Q 4550 1131 3912 565 
Q 3275 0 1925 0 
L 628 0 
L 628 4666 
z
" transform="scale(0.015625)"/>
      </defs>
      <use xlink:href="#DejaVuSans-41"/>
      <use xlink:href="#DejaVuSans-75" transform="translate(68.408203 0)"/>
      <use xlink:href="#DejaVuSans-74" transform="translate(131.787109 0)"/>
      <use xlink:href="#DejaVuSans-6f" transform="translate(170.996094 0)"/>
      <use xlink:href="#DejaVuSans-53" transform="translate(232.177734 0)"/>
      <use xlink:href="#DejaVuSans-49" transform="translate(295.654297 0)"/>
      <use xlink:href="#DejaVuSans-4e" transform="translate(325.146484 0)"/>
      <use xlink:href="#DejaVuSans-44" transform="translate(399.951172 0)"/>
      <use xlink:href="#DejaVuSans-79" transform="translate(476.953125 0)"/>
     </g>
    </g>
    <g id="line2d_19">
     <path d="M 51.620313 64.772812 
L 61.620313 64.772812 
L 71.620313 64.772812 
" style="fill: none; stroke-dasharray: 3.5,5.775; stroke-dashoffset: 0; stroke: #008000; stroke-opacity: 0.8; stroke-width: 3.5"/>
    </g>
    <g id="text_18">
     <!-- Standard SINDy -->
     <g transform="translate(79.620313 68.272812) scale(0.1 -0.1)">
      <use xlink:href="#DejaVuSans-53"/>
      <use xlink:href="#DejaVuSans-74" transform="translate(63.476562 0)"/>
      <use xlink:href="#DejaVuSans-61" transform="translate(102.685547 0)"/>
      <use xlink:href="#DejaVuSans-6e" transform="translate(163.964844 0)"/>
      <use xlink:href="#DejaVuSans-64" transform="translate(227.34375 0)"/>
      <use xlink:href="#DejaVuSans-61" transform="translate(290.820312 0)"/>
      <use xlink:href="#DejaVuSans-72" transform="translate(352.099609 0)"/>
      <use xlink:href="#DejaVuSans-64" transform="translate(391.462891 0)"/>
      <use xlink:href="#DejaVuSans-20" transform="translate(454.939453 0)"/>
      <use xlink:href="#DejaVuSans-53" transform="translate(486.726562 0)"/>
      <use xlink:href="#DejaVuSans-49" transform="translate(550.203125 0)"/>
      <use xlink:href="#DejaVuSans-4e" transform="translate(579.695312 0)"/>
      <use xlink:href="#DejaVuSans-44" transform="translate(654.5 0)"/>
      <use xlink:href="#DejaVuSans-79" transform="translate(731.501953 0)"/>
     </g>
    </g>
    <g id="line2d_20">
     <path d="M 51.620313 79.450937 
L 61.620313 79.450937 
L 71.620313 79.450937 
" style="fill: none; stroke-dasharray: 22.4,5.6,3.5,5.6; stroke-dashoffset: 0; stroke: #0000ff; stroke-opacity: 0.8; stroke-width: 3.5"/>
    </g>
    <g id="text_19">
     <!-- Standard PySR -->
     <g transform="translate(79.620313 82.950937) scale(0.1 -0.1)">
      <defs>
       <path id="DejaVuSans-52" d="M 2841 2188 
Q 3044 2119 3236 1894 
Q 3428 1669 3622 1275 
L 4263 0 
L 3584 0 
L 2988 1197 
Q 2756 1666 2539 1819 
Q 2322 1972 1947 1972 
L 1259 1972 
L 1259 0 
L 628 0 
L 628 4666 
L 2053 4666 
Q 2853 4666 3247 4331 
Q 3641 3997 3641 3322 
Q 3641 2881 3436 2590 
Q 3231 2300 2841 2188 
z
M 1259 4147 
L 1259 2491 
L 2053 2491 
Q 2509 2491 2742 2702 
Q 2975 2913 2975 3322 
Q 2975 3731 2742 3939 
Q 2509 4147 2053 4147 
L 1259 4147 
z
" transform="scale(0.015625)"/>
      </defs>
      <use xlink:href="#DejaVuSans-53"/>
      <use xlink:href="#DejaVuSans-74" transform="translate(63.476562 0)"/>
      <use xlink:href="#DejaVuSans-61" transform="translate(102.685547 0)"/>
      <use xlink:href="#DejaVuSans-6e" transform="translate(163.964844 0)"/>
      <use xlink:href="#DejaVuSans-64" transform="translate(227.34375 0)"/>
      <use xlink:href="#DejaVuSans-61" transform="translate(290.820312 0)"/>
      <use xlink:href="#DejaVuSans-72" transform="translate(352.099609 0)"/>
      <use xlink:href="#DejaVuSans-64" transform="translate(391.462891 0)"/>
      <use xlink:href="#DejaVuSans-20" transform="translate(454.939453 0)"/>
      <use xlink:href="#DejaVuSans-50" transform="translate(486.726562 0)"/>
      <use xlink:href="#DejaVuSans-79" transform="translate(547.029297 0)"/>
      <use xlink:href="#DejaVuSans-53" transform="translate(606.208984 0)"/>
      <use xlink:href="#DejaVuSans-52" transform="translate(669.685547 0)"/>
     </g>
    </g>
   </g>
  </g>
 </g>
 <defs>
  <clipPath id="p33cfea5740">
   <rect x="42.620313" y="22.318125" width="512.060804" height="508.12"/>
  </clipPath>
 </defs>
</svg>
