<?xml version="1.0" encoding="utf-8" standalone="no"?>
<!DOCTYPE svg PUBLIC "-//W3C//DTD SVG 1.1//EN"
  "http://www.w3.org/Graphics/SVG/1.1/DTD/svg11.dtd">
<svg xmlns:xlink="http://www.w3.org/1999/xlink" width="855.850937pt" height="285.79625pt" viewBox="0 0 855.850937 285.79625" xmlns="http://www.w3.org/2000/svg" version="1.1">
 <metadata>
  <rdf:RDF xmlns:dc="http://purl.org/dc/elements/1.1/" xmlns:cc="http://creativecommons.org/ns#" xmlns:rdf="http://www.w3.org/1999/02/22-rdf-syntax-ns#">
   <cc:Work>
    <dc:type rdf:resource="http://purl.org/dc/dcmitype/StillImage"/>
    <dc:date>2026-04-05T21:07:12.529177</dc:date>
    <dc:format>image/svg+xml</dc:format>
    <dc:creator>
     <cc:Agent>
      <dc:title>Matplotlib v3.10.7, https://matplotlib.org/</dc:title>
     </cc:Agent>
    </dc:creator>
   </cc:Work>
  </rdf:RDF>
 </metadata>
 <defs>
  <style type="text/css">*{stroke-linejoin: round; stroke-linecap: butt}</style>
 </defs>
 <g id="figure_1">
  <g id="patch_1">
   <path d="M 0 285.79625 
L 855.850937 285.79625 
L 855.850937 0 
L 0 0 
z
" style="fill: #ffffff"/>
  </g>
  <g id="axes_1">
   <g id="patch_2">
    <path d="M 52.160938 136.79 
L 842.850937 136.79 
L 842.850937 39.64 
L 52.160938 39.64 
z
" style="fill: #ffffff"/>
   </g>
   <g id="line2d_1">
    <path d="M 88.101392 47.864932 
L 92.42289 46.799975 
L 96.744387 45.944502 
L 101.065885 45.296139 
L 105.387382 44.851635 
L 109.70888 44.606763 
L 114.030377 44.55666 
L 118.351875 44.695862 
L 122.673372 45.018305 
L 126.99487 45.517323 
L 132.756867 46.444708 
L 138.518863 47.654134 
L 144.28086 49.124817 
L 150.042857 50.834074 
L 155.804854 52.757616 
L 163.007349 55.430779 
L 170.209845 58.357376 
L 178.85284 62.133746 
L 188.936335 66.798673 
L 207.662824 75.78532 
L 222.067816 82.584488 
L 232.15131 87.095032 
L 240.794305 90.712883 
L 247.996801 93.513907 
L 255.199297 96.094789 
L 262.401793 98.436178 
L 269.604289 100.522953 
L 276.806785 102.341322 
L 284.009281 103.880963 
L 289.771277 104.907775 
L 295.533274 105.751012 
L 301.295271 106.411121 
L 307.057267 106.890223 
L 314.259763 107.2405 
L 321.462259 107.325008 
L 328.664755 107.154959 
L 335.867251 106.744362 
L 343.069747 106.110182 
L 350.272243 105.270833 
L 358.915238 104.02086 
L 367.558233 102.541195 
L 377.641727 100.578254 
L 389.165721 98.101627 
L 406.451711 94.120136 
L 430.940197 88.478126 
L 443.90469 85.71794 
L 455.428683 83.493828 
L 465.512177 81.770655 
L 475.595672 80.28553 
L 484.238667 79.216798 
L 492.881662 78.343897 
L 501.524657 77.668633 
L 510.167652 77.191239 
L 518.810647 76.909746 
L 528.894141 76.820518 
L 538.977635 76.974514 
L 549.06113 77.351415 
L 560.585123 78.022837 
L 572.109117 78.912804 
L 586.514108 80.26412 
L 605.240598 82.279091 
L 649.896072 87.198142 
L 665.741563 88.667025 
L 680.146555 89.779338 
L 693.111048 90.568593 
L 706.07554 91.142342 
L 719.040033 91.49797 
L 732.004526 91.641833 
L 746.409517 91.56787 
L 760.814509 91.273413 
L 778.100499 90.678671 
L 798.267488 89.744403 
L 806.910483 89.292258 
L 806.910483 89.292258 
" clip-path="url(#pa8c7621491)" style="fill: none; stroke: #000000; stroke-opacity: 0.4; stroke-width: 6; stroke-linecap: square"/>
   </g>
   <g id="matplotlib.axis_1">
    <g id="xtick_1">
     <g id="line2d_2">
      <defs>
       <path id="m34bfb06910" d="M 0 0 
L 0 3.5 
" style="stroke: #000000; stroke-width: 0.8"/>
      </defs>
      <g>
       <use xlink:href="#m34bfb06910" x="88.101392" y="136.79" style="stroke: #000000; stroke-width: 0.8"/>
      </g>
     </g>
    </g>
    <g id="xtick_2">
     <g id="line2d_3">
      <g>
       <use xlink:href="#m34bfb06910" x="231.86321" y="136.79" style="stroke: #000000; stroke-width: 0.8"/>
      </g>
     </g>
    </g>
    <g id="xtick_3">
     <g id="line2d_4">
      <g>
       <use xlink:href="#m34bfb06910" x="375.625028" y="136.79" style="stroke: #000000; stroke-width: 0.8"/>
      </g>
     </g>
    </g>
    <g id="xtick_4">
     <g id="line2d_5">
      <g>
       <use xlink:href="#m34bfb06910" x="519.386847" y="136.79" style="stroke: #000000; stroke-width: 0.8"/>
      </g>
     </g>
    </g>
    <g id="xtick_5">
     <g id="line2d_6">
      <g>
       <use xlink:href="#m34bfb06910" x="663.148665" y="136.79" style="stroke: #000000; stroke-width: 0.8"/>
      </g>
     </g>
    </g>
    <g id="xtick_6">
     <g id="line2d_7">
      <g>
       <use xlink:href="#m34bfb06910" x="806.910483" y="136.79" style="stroke: #000000; stroke-width: 0.8"/>
      </g>
     </g>
    </g>
   </g>
   <g id="matplotlib.axis_2">
    <g id="ytick_1">
     <g id="line2d_8">
      <defs>
       <path id="m45f59c0a78" d="M 0 0 
L -3.5 0 
" style="stroke: #000000; stroke-width: 0.8"/>
      </defs>
      <g>
       <use xlink:href="#m45f59c0a78" x="52.160938" y="125.727538" style="stroke: #000000; stroke-width: 0.8"/>
      </g>
     </g>
     <g id="text_1">
      <!-- −0.5 -->
      <g transform="translate(20.878125 129.526756) scale(0.1 -0.1)">
       <defs>
        <path id="DejaVuSans-2212" d="M 678 2272 
L 4684 2272 
L 4684 1741 
L 678 1741 
L 678 2272 
z
" transform="scale(0.015625)"/>
        <path id="DejaVuSans-30" d="M 2034 4250 
Q 1547 4250 1301 3770 
Q 1056 3291 1056 2328 
Q 1056 1369 1301 889 
Q 1547 409 2034 409 
Q 2525 409 2770 889 
Q 3016 1369 3016 2328 
Q 3016 3291 2770 3770 
Q 2525 4250 2034 4250 
z
M 2034 4750 
Q 2819 4750 3233 4129 
Q 3647 3509 3647 2328 
Q 3647 1150 3233 529 
Q 2819 -91 2034 -91 
Q 1250 -91 836 529 
Q 422 1150 422 2328 
Q 422 3509 836 4129 
Q 1250 4750 2034 4750 
z
" transform="scale(0.015625)"/>
        <path id="DejaVuSans-2e" d="M 684 794 
L 1344 794 
L 1344 0 
L 684 0 
L 684 794 
z
" transform="scale(0.015625)"/>
        <path id="DejaVuSans-35" d="M 691 4666 
L 3169 4666 
L 3169 4134 
L 1269 4134 
L 1269 2991 
Q 1406 3038 1543 3061 
Q 1681 3084 1819 3084 
Q 2600 3084 3056 2656 
Q 3513 2228 3513 1497 
Q 3513 744 3044 326 
Q 2575 -91 1722 -91 
Q 1428 -91 1123 -41 
Q 819 9 494 109 
L 494 744 
Q 775 591 1075 516 
Q 1375 441 1709 441 
Q 2250 441 2565 725 
Q 2881 1009 2881 1497 
Q 2881 1984 2565 2268 
Q 2250 2553 1709 2553 
Q 1456 2553 1204 2497 
Q 953 2441 691 2322 
L 691 4666 
z
" transform="scale(0.015625)"/>
       </defs>
       <use xlink:href="#DejaVuSans-2212"/>
       <use xlink:href="#DejaVuSans-30" transform="translate(83.789062 0)"/>
       <use xlink:href="#DejaVuSans-2e" transform="translate(147.412109 0)"/>
       <use xlink:href="#DejaVuSans-35" transform="translate(179.199219 0)"/>
      </g>
     </g>
    </g>
    <g id="ytick_2">
     <g id="line2d_9">
      <g>
       <use xlink:href="#m45f59c0a78" x="52.160938" y="86.796235" style="stroke: #000000; stroke-width: 0.8"/>
      </g>
     </g>
     <g id="text_2">
      <!-- 0.0 -->
      <g transform="translate(29.257812 90.595454) scale(0.1 -0.1)">
       <use xlink:href="#DejaVuSans-30"/>
       <use xlink:href="#DejaVuSans-2e" transform="translate(63.623047 0)"/>
       <use xlink:href="#DejaVuSans-30" transform="translate(95.410156 0)"/>
      </g>
     </g>
    </g>
    <g id="ytick_3">
     <g id="line2d_10">
      <g>
       <use xlink:href="#m45f59c0a78" x="52.160938" y="47.864932" style="stroke: #000000; stroke-width: 0.8"/>
      </g>
     </g>
     <g id="text_3">
      <!-- 0.5 -->
      <g transform="translate(29.257812 51.664151) scale(0.1 -0.1)">
       <use xlink:href="#DejaVuSans-30"/>
       <use xlink:href="#DejaVuSans-2e" transform="translate(63.623047 0)"/>
       <use xlink:href="#DejaVuSans-35" transform="translate(95.410156 0)"/>
      </g>
     </g>
    </g>
    <g id="text_4">
     <!-- $x0$ -->
     <g transform="translate(14.798438 94.365) rotate(-90) scale(0.1 -0.1)">
      <defs>
       <path id="DejaVuSans-Oblique-78" d="M 3841 3500 
L 2234 1784 
L 3219 0 
L 2559 0 
L 1819 1388 
L 531 0 
L -166 0 
L 1556 1844 
L 641 3500 
L 1300 3500 
L 1972 2234 
L 3144 3500 
L 3841 3500 
z
" transform="scale(0.015625)"/>
      </defs>
      <use xlink:href="#DejaVuSans-Oblique-78" transform="translate(0 0.78125)"/>
      <use xlink:href="#DejaVuSans-30" transform="translate(59.179688 0.78125)"/>
     </g>
    </g>
   </g>
   <g id="line2d_11">
    <path d="M 88.101392 47.864932 
L 92.42289 46.781241 
L 96.744387 45.873581 
L 101.065885 45.145963 
L 105.387382 44.601622 
L 109.70888 44.242953 
L 114.030377 44.071516 
L 118.351875 44.088103 
L 122.673372 44.292604 
L 126.99487 44.684138 
L 131.316367 45.260983 
L 135.637865 46.020575 
L 139.959363 46.959596 
L 144.28086 48.073813 
L 150.042857 49.823044 
L 155.804854 51.859673 
L 161.56685 54.164614 
L 167.328847 56.713525 
L 174.531343 60.195426 
L 181.733839 63.936344 
L 191.817333 69.447469 
L 230.710811 90.968176 
L 252.318299 102.986158 
L 263.842292 109.313599 
L 272.485287 113.79795 
L 279.687783 117.246275 
L 285.44978 119.762988 
L 291.211776 122.031989 
L 296.973773 124.029752 
L 302.73577 125.737852 
L 307.057267 126.820007 
L 311.378765 127.726098 
L 315.700263 128.452119 
L 320.02176 128.994824 
L 324.343258 129.351852 
L 328.664755 129.521626 
L 332.986253 129.503381 
L 337.30775 129.297232 
L 341.629248 128.904047 
L 345.950745 128.325583 
L 350.272243 127.564386 
L 354.59374 126.623802 
L 358.915238 125.508069 
L 364.677235 123.756872 
L 370.439231 121.7184 
L 376.201228 119.411758 
L 381.963225 116.861341 
L 389.165721 113.37786 
L 396.368217 109.635785 
L 406.451711 104.123818 
L 445.345189 82.603336 
L 466.952676 70.585069 
L 478.47667 64.258454 
L 487.119665 59.775492 
L 494.322161 56.328792 
L 500.084158 53.813635 
L 505.846154 51.546353 
L 511.608151 49.550443 
L 517.370148 47.84431 
L 521.691645 46.763698 
L 526.013143 45.859173 
L 530.33464 45.134758 
L 534.656138 44.593685 
L 538.977635 44.238295 
L 543.299133 44.070187 
L 547.620631 44.090085 
L 551.942128 44.29789 
L 556.263626 44.692722 
L 560.585123 45.272802 
L 564.906621 46.035608 
L 569.228118 46.977751 
L 573.549616 48.095007 
L 579.311612 49.848168 
L 585.073609 51.88848 
L 590.835606 54.196811 
L 596.597603 56.748738 
L 603.800099 60.2338 
L 611.002594 63.977034 
L 621.086089 69.489834 
L 658.539067 90.218035 
L 680.146555 102.224723 
L 693.111048 109.35443 
L 701.754043 113.835983 
L 708.956539 117.281057 
L 714.718535 119.794673 
L 720.480532 122.060239 
L 726.242529 124.054292 
L 732.004526 125.758452 
L 736.326023 126.837525 
L 740.647521 127.740485 
L 744.969018 128.463284 
L 749.290516 129.002735 
L 753.612013 129.356481 
L 757.933511 129.522926 
L 762.255008 129.501377 
L 766.576506 129.291905 
L 770.898003 128.895437 
L 775.219501 128.313735 
L 779.540999 127.549325 
L 783.862496 126.605626 
L 788.183994 125.486832 
L 793.94599 123.731722 
L 799.707987 121.689573 
L 805.469984 119.379551 
L 806.910483 118.76292 
L 806.910483 118.76292 
" clip-path="url(#pa8c7621491)" style="fill: none; stroke-dasharray: 22.4,5.6,3.5,5.6; stroke-dashoffset: 0; stroke: #0000ff; stroke-opacity: 0.8; stroke-width: 3.5"/>
   </g>
   <g id="patch_3">
    <path d="M 52.160938 136.79 
L 52.160938 39.64 
" style="fill: none; stroke: #000000; stroke-width: 0.8; stroke-linejoin: miter; stroke-linecap: square"/>
   </g>
   <g id="patch_4">
    <path d="M 842.850937 136.79 
L 842.850937 39.64 
" style="fill: none; stroke: #000000; stroke-width: 0.8; stroke-linejoin: miter; stroke-linecap: square"/>
   </g>
   <g id="patch_5">
    <path d="M 52.160938 136.79 
L 842.850937 136.79 
" style="fill: none; stroke: #000000; stroke-width: 0.8; stroke-linejoin: miter; stroke-linecap: square"/>
   </g>
   <g id="patch_6">
    <path d="M 52.160938 39.64 
L 842.850937 39.64 
" style="fill: none; stroke: #000000; stroke-width: 0.8; stroke-linejoin: miter; stroke-linecap: square"/>
   </g>
   <g id="line2d_12">
    <path d="M 88.101392 47.864932 
L 90.98239 47.168751 
L 93.863389 46.654897 
L 96.744387 46.316325 
L 99.625385 46.145554 
L 102.506384 46.1367 
L 105.387382 46.286506 
L 108.268381 46.594072 
L 111.149379 47.05928 
L 114.030377 47.681343 
L 118.351875 48.901533 
L 122.673372 50.443931 
L 126.99487 52.272556 
L 131.316367 54.348882 
L 135.637865 56.661323 
L 138.518863 58.378253 
L 141.399862 60.372162 
L 142.840361 61.566962 
L 144.28086 62.98948 
L 145.721359 64.753131 
L 147.161858 67.000794 
L 148.602358 69.865785 
L 150.042857 73.397237 
L 152.923855 81.82825 
L 155.804854 90.230859 
L 157.245353 93.966909 
L 158.685852 97.343877 
L 160.126351 100.387042 
L 161.56685 103.135216 
L 164.447849 107.900821 
L 167.328847 111.890447 
L 170.209845 115.262709 
L 173.090844 118.113525 
L 175.971842 120.517927 
L 178.85284 122.561428 
L 181.733839 124.34221 
L 186.055336 126.686904 
L 190.376834 128.692861 
L 193.257832 129.803419 
L 196.138831 130.706685 
L 199.019829 131.400751 
L 201.900827 131.897327 
L 204.781826 132.212502 
L 207.662824 132.36012 
L 210.543822 132.348906 
L 213.424821 132.181474 
L 216.305819 131.855197 
L 219.186817 131.363936 
L 222.067816 130.701032 
L 224.948814 129.863464 
L 227.829813 128.856672 
L 232.15131 127.064899 
L 236.472808 125.008434 
L 242.234804 121.974657 
L 247.996801 118.686046 
L 255.199297 114.304442 
L 266.72329 106.957759 
L 285.44978 95.00057 
L 294.092775 89.740754 
L 302.73577 84.744957 
L 311.378765 80.0411 
L 318.581261 76.361494 
L 325.783757 72.934023 
L 331.545753 70.407813 
L 337.30775 68.104559 
L 343.069747 66.048234 
L 348.831744 64.254146 
L 354.59374 62.728172 
L 360.355737 61.46857 
L 366.117734 60.468483 
L 371.879731 59.718285 
L 377.641727 59.207383 
L 383.403724 58.92545 
L 389.165721 58.863042 
L 394.927717 59.011689 
L 400.689714 59.363588 
L 406.451711 59.911093 
L 412.213708 60.64614 
L 419.416203 61.814928 
L 426.618699 63.242523 
L 433.821195 64.905355 
L 441.023691 66.776196 
L 449.666686 69.252075 
L 459.750181 72.383413 
L 474.155172 77.118397 
L 495.76266 84.232628 
L 507.286653 87.785629 
L 517.370148 90.651402 
L 526.013143 92.882147 
L 534.656138 94.873787 
L 543.299133 96.604445 
L 550.501629 97.837067 
L 557.704125 98.875019 
L 564.906621 99.71813 
L 572.109117 100.369061 
L 580.752112 100.90326 
L 589.395107 101.178293 
L 598.038102 101.206584 
L 606.681097 101.001775 
L 615.324092 100.578746 
L 623.967087 99.953966 
L 634.050581 98.994853 
L 644.134076 97.819742 
L 655.658069 96.260693 
L 670.063061 94.078609 
L 724.80203 85.514557 
L 737.766522 83.849043 
L 749.290516 82.581647 
L 760.814509 81.538354 
L 772.338503 80.732767 
L 783.862496 80.170239 
L 795.38649 79.848628 
L 806.910483 79.759132 
L 806.910483 79.759132 
" clip-path="url(#pa8c7621491)" style="fill: none; stroke-dasharray: 3.5,5.775; stroke-dashoffset: 0; stroke: #008000; stroke-opacity: 0.8; stroke-width: 3.5"/>
   </g>
   <g id="line2d_13">
    <path d="M 88.101392 47.864932 
L 92.42289 46.808163 
L 96.744387 45.958997 
L 101.065885 45.315004 
L 105.387382 44.872979 
L 109.70888 44.628895 
L 114.030377 44.577957 
L 118.351875 44.714708 
L 122.673372 45.032967 
L 126.99487 45.525976 
L 132.756867 46.442386 
L 138.518863 47.637521 
L 144.28086 49.091125 
L 150.042857 50.781723 
L 155.804854 52.686836 
L 163.007349 55.334369 
L 170.209845 58.234002 
L 178.85284 61.97951 
L 188.936335 66.612127 
L 206.222325 74.859323 
L 220.627317 81.6547 
L 230.710811 86.187357 
L 239.353806 89.842991 
L 247.996801 93.232712 
L 255.199297 95.822842 
L 262.401793 98.177166 
L 269.604289 100.278656 
L 276.806785 102.114184 
L 284.009281 103.674483 
L 291.211776 104.954075 
L 296.973773 105.774302 
L 302.73577 106.414357 
L 309.938266 106.96434 
L 317.140762 107.243051 
L 324.343258 107.260351 
L 331.545753 107.028787 
L 338.748249 106.563313 
L 345.950745 105.880984 
L 353.153241 105.000654 
L 361.796236 103.711609 
L 370.439231 102.204064 
L 380.522726 100.221052 
L 393.487218 97.413939 
L 413.654207 92.764903 
L 433.821195 88.184904 
L 446.785688 85.468919 
L 458.309681 83.291574 
L 468.393176 81.610175 
L 478.47667 80.164379 
L 488.560164 78.972221 
L 497.203159 78.160668 
L 505.846154 77.546303 
L 514.489149 77.128301 
L 524.572644 76.883051 
L 534.656138 76.887327 
L 544.739632 77.12414 
L 554.823126 77.572201 
L 566.34712 78.310967 
L 579.311612 79.381507 
L 595.157103 80.944947 
L 618.20509 83.488989 
L 647.015074 86.644789 
L 664.301064 88.304726 
L 678.706056 89.47009 
L 693.111048 90.398413 
L 706.07554 91.013416 
L 719.040033 91.413473 
L 732.004526 91.601729 
L 746.409517 91.576122 
L 760.814509 91.327587 
L 776.66 90.836224 
L 795.38649 90.030497 
L 806.910483 89.451584 
L 806.910483 89.451584 
" clip-path="url(#pa8c7621491)" style="fill: none; stroke-dasharray: 12.95,5.6; stroke-dashoffset: 0; stroke: #ff0000; stroke-opacity: 0.8; stroke-width: 3.5"/>
   </g>
  </g>
  <g id="axes_2">
   <g id="patch_7">
    <path d="M 52.160938 248.24 
L 842.850937 248.24 
L 842.850937 151.09 
L 52.160938 151.09 
z
" style="fill: #ffffff"/>
   </g>
   <g id="line2d_14">
    <path d="M 88.101392 177.519731 
L 101.065885 185.208445 
L 111.149379 190.927872 
L 119.792374 195.544751 
L 126.99487 199.138209 
L 134.197366 202.465451 
L 141.399862 205.499461 
L 147.161858 207.701121 
L 152.923855 209.693307 
L 158.685852 211.469501 
L 164.447849 213.023155 
L 170.209845 214.350121 
L 175.971842 215.448265 
L 181.733839 216.317431 
L 187.495835 216.95944 
L 193.257832 217.378091 
L 199.019829 217.579158 
L 204.781826 217.570396 
L 210.543822 217.361534 
L 216.305819 216.961866 
L 223.508315 216.208431 
L 230.710811 215.195261 
L 237.913307 213.947462 
L 245.115803 212.491387 
L 253.758798 210.508117 
L 263.842292 207.932476 
L 275.366285 204.74241 
L 296.973773 198.450733 
L 312.819264 193.931153 
L 324.343258 190.854672 
L 334.426752 188.378963 
L 343.069747 186.456201 
L 351.712742 184.74326 
L 360.355737 183.258251 
L 368.998732 182.013138 
L 377.641727 181.01374 
L 386.284722 180.261391 
L 394.927717 179.756552 
L 403.570713 179.494343 
L 412.213708 179.465964 
L 420.856703 179.658782 
L 429.499698 180.056332 
L 439.583192 180.751609 
L 449.666686 181.663605 
L 461.19068 182.926332 
L 475.595672 184.749674 
L 495.76266 187.558617 
L 524.572644 191.558608 
L 540.418135 193.51252 
L 553.382627 194.895037 
L 566.34712 196.04488 
L 577.871113 196.850365 
L 589.395107 197.441401 
L 600.9191 197.816452 
L 612.443094 197.982003 
L 625.407586 197.931388 
L 638.372079 197.652585 
L 652.777071 197.111801 
L 668.622562 196.293804 
L 688.78955 195.024533 
L 749.290516 191.067385 
L 768.017005 190.153244 
L 785.302995 189.532202 
L 802.588985 189.143116 
L 806.910483 189.082574 
L 806.910483 189.082574 
" clip-path="url(#peca1b423cf)" style="fill: none; stroke: #000000; stroke-opacity: 0.4; stroke-width: 6; stroke-linecap: square"/>
   </g>
   <g id="matplotlib.axis_3">
    <g id="xtick_7">
     <g id="line2d_15">
      <g>
       <use xlink:href="#m34bfb06910" x="88.101392" y="248.24" style="stroke: #000000; stroke-width: 0.8"/>
      </g>
     </g>
     <g id="text_5">
      <!-- 0 -->
      <g transform="translate(84.920142 262.838437) scale(0.1 -0.1)">
       <use xlink:href="#DejaVuSans-30"/>
      </g>
     </g>
    </g>
    <g id="xtick_8">
     <g id="line2d_16">
      <g>
       <use xlink:href="#m34bfb06910" x="231.86321" y="248.24" style="stroke: #000000; stroke-width: 0.8"/>
      </g>
     </g>
     <g id="text_6">
      <!-- 1 -->
      <g transform="translate(228.68196 262.838437) scale(0.1 -0.1)">
       <defs>
        <path id="DejaVuSans-31" d="M 794 531 
L 1825 531 
L 1825 4091 
L 703 3866 
L 703 4441 
L 1819 4666 
L 2450 4666 
L 2450 531 
L 3481 531 
L 3481 0 
L 794 0 
L 794 531 
z
" transform="scale(0.015625)"/>
       </defs>
       <use xlink:href="#DejaVuSans-31"/>
      </g>
     </g>
    </g>
    <g id="xtick_9">
     <g id="line2d_17">
      <g>
       <use xlink:href="#m34bfb06910" x="375.625028" y="248.24" style="stroke: #000000; stroke-width: 0.8"/>
      </g>
     </g>
     <g id="text_7">
      <!-- 2 -->
      <g transform="translate(372.443778 262.838437) scale(0.1 -0.1)">
       <defs>
        <path id="DejaVuSans-32" d="M 1228 531 
L 3431 531 
L 3431 0 
L 469 0 
L 469 531 
Q 828 903 1448 1529 
Q 2069 2156 2228 2338 
Q 2531 2678 2651 2914 
Q 2772 3150 2772 3378 
Q 2772 3750 2511 3984 
Q 2250 4219 1831 4219 
Q 1534 4219 1204 4116 
Q 875 4013 500 3803 
L 500 4441 
Q 881 4594 1212 4672 
Q 1544 4750 1819 4750 
Q 2544 4750 2975 4387 
Q 3406 4025 3406 3419 
Q 3406 3131 3298 2873 
Q 3191 2616 2906 2266 
Q 2828 2175 2409 1742 
Q 1991 1309 1228 531 
z
" transform="scale(0.015625)"/>
       </defs>
       <use xlink:href="#DejaVuSans-32"/>
      </g>
     </g>
    </g>
    <g id="xtick_10">
     <g id="line2d_18">
      <g>
       <use xlink:href="#m34bfb06910" x="519.386847" y="248.24" style="stroke: #000000; stroke-width: 0.8"/>
      </g>
     </g>
     <g id="text_8">
      <!-- 3 -->
      <g transform="translate(516.205597 262.838437) scale(0.1 -0.1)">
       <defs>
        <path id="DejaVuSans-33" d="M 2597 2516 
Q 3050 2419 3304 2112 
Q 3559 1806 3559 1356 
Q 3559 666 3084 287 
Q 2609 -91 1734 -91 
Q 1441 -91 1130 -33 
Q 819 25 488 141 
L 488 750 
Q 750 597 1062 519 
Q 1375 441 1716 441 
Q 2309 441 2620 675 
Q 2931 909 2931 1356 
Q 2931 1769 2642 2001 
Q 2353 2234 1838 2234 
L 1294 2234 
L 1294 2753 
L 1863 2753 
Q 2328 2753 2575 2939 
Q 2822 3125 2822 3475 
Q 2822 3834 2567 4026 
Q 2313 4219 1838 4219 
Q 1578 4219 1281 4162 
Q 984 4106 628 3988 
L 628 4550 
Q 988 4650 1302 4700 
Q 1616 4750 1894 4750 
Q 2613 4750 3031 4423 
Q 3450 4097 3450 3541 
Q 3450 3153 3228 2886 
Q 3006 2619 2597 2516 
z
" transform="scale(0.015625)"/>
       </defs>
       <use xlink:href="#DejaVuSans-33"/>
      </g>
     </g>
    </g>
    <g id="xtick_11">
     <g id="line2d_19">
      <g>
       <use xlink:href="#m34bfb06910" x="663.148665" y="248.24" style="stroke: #000000; stroke-width: 0.8"/>
      </g>
     </g>
     <g id="text_9">
      <!-- 4 -->
      <g transform="translate(659.967415 262.838437) scale(0.1 -0.1)">
       <defs>
        <path id="DejaVuSans-34" d="M 2419 4116 
L 825 1625 
L 2419 1625 
L 2419 4116 
z
M 2253 4666 
L 3047 4666 
L 3047 1625 
L 3713 1625 
L 3713 1100 
L 3047 1100 
L 3047 0 
L 2419 0 
L 2419 1100 
L 313 1100 
L 313 1709 
L 2253 4666 
z
" transform="scale(0.015625)"/>
       </defs>
       <use xlink:href="#DejaVuSans-34"/>
      </g>
     </g>
    </g>
    <g id="xtick_12">
     <g id="line2d_20">
      <g>
       <use xlink:href="#m34bfb06910" x="806.910483" y="248.24" style="stroke: #000000; stroke-width: 0.8"/>
      </g>
     </g>
     <g id="text_10">
      <!-- 5 -->
      <g transform="translate(803.729233 262.838437) scale(0.1 -0.1)">
       <use xlink:href="#DejaVuSans-35"/>
      </g>
     </g>
    </g>
    <g id="text_11">
     <!-- Time -->
     <g transform="translate(435.272344 276.516562) scale(0.1 -0.1)">
      <defs>
       <path id="DejaVuSans-54" d="M -19 4666 
L 3928 4666 
L 3928 4134 
L 2272 4134 
L 2272 0 
L 1638 0 
L 1638 4134 
L -19 4134 
L -19 4666 
z
" transform="scale(0.015625)"/>
       <path id="DejaVuSans-69" d="M 603 3500 
L 1178 3500 
L 1178 0 
L 603 0 
L 603 3500 
z
M 603 4863 
L 1178 4863 
L 1178 4134 
L 603 4134 
L 603 4863 
z
" transform="scale(0.015625)"/>
       <path id="DejaVuSans-6d" d="M 3328 2828 
Q 3544 3216 3844 3400 
Q 4144 3584 4550 3584 
Q 5097 3584 5394 3201 
Q 5691 2819 5691 2113 
L 5691 0 
L 5113 0 
L 5113 2094 
Q 5113 2597 4934 2840 
Q 4756 3084 4391 3084 
Q 3944 3084 3684 2787 
Q 3425 2491 3425 1978 
L 3425 0 
L 2847 0 
L 2847 2094 
Q 2847 2600 2669 2842 
Q 2491 3084 2119 3084 
Q 1678 3084 1418 2786 
Q 1159 2488 1159 1978 
L 1159 0 
L 581 0 
L 581 3500 
L 1159 3500 
L 1159 2956 
Q 1356 3278 1631 3431 
Q 1906 3584 2284 3584 
Q 2666 3584 2933 3390 
Q 3200 3197 3328 2828 
z
" transform="scale(0.015625)"/>
       <path id="DejaVuSans-65" d="M 3597 1894 
L 3597 1613 
L 953 1613 
Q 991 1019 1311 708 
Q 1631 397 2203 397 
Q 2534 397 2845 478 
Q 3156 559 3463 722 
L 3463 178 
Q 3153 47 2828 -22 
Q 2503 -91 2169 -91 
Q 1331 -91 842 396 
Q 353 884 353 1716 
Q 353 2575 817 3079 
Q 1281 3584 2069 3584 
Q 2775 3584 3186 3129 
Q 3597 2675 3597 1894 
z
M 3022 2063 
Q 3016 2534 2758 2815 
Q 2500 3097 2075 3097 
Q 1594 3097 1305 2825 
Q 1016 2553 972 2059 
L 3022 2063 
z
" transform="scale(0.015625)"/>
      </defs>
      <use xlink:href="#DejaVuSans-54"/>
      <use xlink:href="#DejaVuSans-69" transform="translate(57.958984 0)"/>
      <use xlink:href="#DejaVuSans-6d" transform="translate(85.742188 0)"/>
      <use xlink:href="#DejaVuSans-65" transform="translate(183.154297 0)"/>
     </g>
    </g>
   </g>
   <g id="matplotlib.axis_4">
    <g id="ytick_4">
     <g id="line2d_21">
      <g>
       <use xlink:href="#m45f59c0a78" x="52.160938" y="220.748139" style="stroke: #000000; stroke-width: 0.8"/>
      </g>
     </g>
     <g id="text_12">
      <!-- −1 -->
      <g transform="translate(30.41875 224.547357) scale(0.1 -0.1)">
       <use xlink:href="#DejaVuSans-2212"/>
       <use xlink:href="#DejaVuSans-31" transform="translate(83.789062 0)"/>
      </g>
     </g>
    </g>
    <g id="ytick_5">
     <g id="line2d_22">
      <g>
       <use xlink:href="#m45f59c0a78" x="52.160938" y="191.9292" style="stroke: #000000; stroke-width: 0.8"/>
      </g>
     </g>
     <g id="text_13">
      <!-- 0 -->
      <g transform="translate(38.798438 195.728419) scale(0.1 -0.1)">
       <use xlink:href="#DejaVuSans-30"/>
      </g>
     </g>
    </g>
    <g id="ytick_6">
     <g id="line2d_23">
      <g>
       <use xlink:href="#m45f59c0a78" x="52.160938" y="163.110262" style="stroke: #000000; stroke-width: 0.8"/>
      </g>
     </g>
     <g id="text_14">
      <!-- 1 -->
      <g transform="translate(38.798438 166.90948) scale(0.1 -0.1)">
       <use xlink:href="#DejaVuSans-31"/>
      </g>
     </g>
    </g>
    <g id="text_15">
     <!-- $x1$ -->
     <g transform="translate(24.339063 205.815) rotate(-90) scale(0.1 -0.1)">
      <use xlink:href="#DejaVuSans-Oblique-78" transform="translate(0 0.09375)"/>
      <use xlink:href="#DejaVuSans-31" transform="translate(59.179688 0.09375)"/>
     </g>
    </g>
   </g>
   <g id="line2d_24">
    <path d="M 88.101392 177.519731 
L 96.744387 181.854188 
L 108.268381 187.895357 
L 137.078364 203.12849 
L 145.721359 207.405479 
L 152.923855 210.764897 
L 160.126351 213.894535 
L 167.328847 216.756994 
L 173.090844 218.832354 
L 178.85284 220.701491 
L 184.614837 222.353159 
L 190.376834 223.779311 
L 196.138831 224.975033 
L 201.900827 225.938217 
L 207.662824 226.66888 
L 213.424821 227.168295 
L 219.186817 227.43805 
L 224.948814 227.479273 
L 230.710811 227.292151 
L 236.472808 226.875864 
L 242.234804 226.22891 
L 247.996801 225.349801 
L 253.758798 224.237956 
L 259.520794 222.894628 
L 265.282791 221.323656 
L 271.044788 219.531932 
L 276.806785 217.529576 
L 282.568781 215.329705 
L 289.771277 212.326286 
L 296.973773 209.074311 
L 305.616768 204.899343 
L 315.700263 199.745745 
L 330.105254 192.090717 
L 347.391244 182.927348 
L 357.474739 177.83328 
L 366.117734 173.730819 
L 373.32023 170.553386 
L 380.522726 167.636167 
L 386.284722 165.512655 
L 392.046719 163.592191 
L 397.808716 161.886729 
L 403.570713 160.405111 
L 409.332709 159.153007 
L 415.094706 158.133166 
L 420.856703 157.346 
L 426.618699 156.790451 
L 432.380696 156.464933 
L 438.142693 156.36815 
L 443.90469 156.499656 
L 449.666686 156.860045 
L 455.428683 157.450708 
L 461.19068 158.273208 
L 466.952676 159.32843 
L 472.714673 160.615664 
L 478.47667 162.131762 
L 484.238667 163.87057 
L 490.000663 165.822751 
L 495.76266 167.975898 
L 502.965156 170.92667 
L 510.167652 174.133223 
L 518.810647 178.264161 
L 528.894141 183.381857 
L 541.858634 190.244407 
L 563.466122 201.694492 
L 573.549616 206.746586 
L 582.192611 210.799304 
L 589.395107 213.926305 
L 596.597603 216.785753 
L 602.359599 218.858469 
L 608.121596 220.724778 
L 613.883593 222.373511 
L 619.64559 223.796644 
L 625.407586 224.989304 
L 631.169583 225.949404 
L 636.93158 226.676994 
L 642.693576 227.17336 
L 648.455573 227.440086 
L 654.21757 227.478285 
L 659.979567 227.288139 
L 665.741563 226.86881 
L 671.50356 226.218793 
L 677.265557 225.336606 
L 683.027553 224.221693 
L 688.78955 222.875323 
L 694.551547 221.30136 
L 700.313544 219.506777 
L 706.07554 217.501721 
L 711.837537 215.299343 
L 719.040033 212.293099 
L 726.242529 209.038696 
L 734.885524 204.861385 
L 744.969018 199.705903 
L 759.37401 192.049845 
L 776.66 182.887861 
L 786.743494 177.795898 
L 795.38649 173.695951 
L 802.588985 170.521081 
L 806.910483 168.738972 
L 806.910483 168.738972 
" clip-path="url(#peca1b423cf)" style="fill: none; stroke-dasharray: 22.4,5.6,3.5,5.6; stroke-dashoffset: 0; stroke: #0000ff; stroke-opacity: 0.8; stroke-width: 3.5"/>
   </g>
   <g id="patch_8">
    <path d="M 52.160938 248.24 
L 52.160938 151.09 
" style="fill: none; stroke: #000000; stroke-width: 0.8; stroke-linejoin: miter; stroke-linecap: square"/>
   </g>
   <g id="patch_9">
    <path d="M 842.850937 248.24 
L 842.850937 151.09 
" style="fill: none; stroke: #000000; stroke-width: 0.8; stroke-linejoin: miter; stroke-linecap: square"/>
   </g>
   <g id="patch_10">
    <path d="M 52.160938 248.24 
L 842.850937 248.24 
" style="fill: none; stroke: #000000; stroke-width: 0.8; stroke-linejoin: miter; stroke-linecap: square"/>
   </g>
   <g id="patch_11">
    <path d="M 52.160938 151.09 
L 842.850937 151.09 
" style="fill: none; stroke: #000000; stroke-width: 0.8; stroke-linejoin: miter; stroke-linecap: square"/>
   </g>
   <g id="line2d_25">
    <path d="M 88.101392 177.519731 
L 95.303888 185.548969 
L 102.506384 193.282864 
L 108.268381 199.19045 
L 114.030377 204.772843 
L 119.792374 210.037324 
L 131.316367 220.345691 
L 134.197366 223.158755 
L 137.078364 226.218748 
L 139.959363 229.625633 
L 142.840361 233.455679 
L 147.161858 239.65174 
L 148.602358 241.456693 
L 150.042857 242.830848 
L 151.483356 243.624419 
L 152.923855 243.824091 
L 154.364354 243.550946 
L 155.804854 242.976819 
L 158.685852 241.460241 
L 164.447849 238.39204 
L 170.209845 235.378822 
L 173.090844 233.586754 
L 175.971842 231.412609 
L 178.85284 228.764007 
L 181.733839 225.628147 
L 184.614837 222.070739 
L 188.936335 216.238795 
L 194.698331 208.368423 
L 199.019829 202.887373 
L 203.341326 197.872883 
L 207.662824 193.215452 
L 232.15131 167.765095 
L 235.032308 165.196734 
L 237.913307 162.952838 
L 240.794305 161.071785 
L 243.675304 159.550323 
L 246.556302 158.362049 
L 249.4373 157.460568 
L 252.318299 156.793367 
L 255.199297 156.31209 
L 259.520794 155.84561 
L 263.842292 155.597925 
L 269.604289 155.505909 
L 275.366285 155.637444 
L 281.128282 155.986204 
L 286.890279 156.567443 
L 292.652276 157.401672 
L 298.414272 158.506722 
L 304.176269 159.891204 
L 309.938266 161.548681 
L 315.700263 163.454349 
L 322.902758 166.120247 
L 331.545753 169.594228 
L 364.677235 183.188909 
L 377.641727 188.172755 
L 389.165721 192.354455 
L 399.249215 195.752394 
L 407.89221 198.427238 
L 416.535205 200.857635 
L 425.1782 203.028871 
L 432.380696 204.630304 
L 439.583192 206.030154 
L 446.785688 207.211468 
L 453.988184 208.15459 
L 461.19068 208.842286 
L 468.393176 209.265471 
L 475.595672 209.426738 
L 482.798167 209.340062 
L 490.000663 209.027155 
L 497.203159 208.512546 
L 505.846154 207.661503 
L 514.489149 206.588505 
L 524.572644 205.09677 
L 536.096637 203.135232 
L 550.501629 200.419959 
L 592.276105 192.362427 
L 605.240598 190.146313 
L 616.764591 188.373382 
L 628.288585 186.818955 
L 638.372079 185.661672 
L 648.455573 184.712175 
L 658.539067 183.983441 
L 668.622562 183.482069 
L 678.706056 183.207372 
L 688.78955 183.151758 
L 698.873044 183.301961 
L 710.397038 183.70319 
L 721.921031 184.320075 
L 734.885524 185.229894 
L 750.731015 186.579268 
L 772.338503 188.669259 
L 806.910483 192.034996 
L 806.910483 192.034996 
" clip-path="url(#peca1b423cf)" style="fill: none; stroke-dasharray: 3.5,5.775; stroke-dashoffset: 0; stroke: #008000; stroke-opacity: 0.8; stroke-width: 3.5"/>
   </g>
   <g id="line2d_26">
    <path d="M 88.101392 177.519731 
L 101.065885 185.198116 
L 111.149379 190.904951 
L 119.792374 195.51242 
L 126.99487 199.101813 
L 134.197366 202.429101 
L 141.399862 205.466751 
L 147.161858 207.672923 
L 152.923855 209.669761 
L 158.685852 211.44991 
L 164.447849 213.007987 
L 170.209845 214.340545 
L 175.971842 215.446054 
L 181.733839 216.324799 
L 187.495835 216.978829 
L 193.257832 217.411857 
L 199.019829 217.629169 
L 204.781826 217.637546 
L 210.543822 217.445117 
L 216.305819 217.061266 
L 223.508315 216.328355 
L 230.710811 215.335502 
L 237.913307 214.107427 
L 245.115803 212.670493 
L 253.758798 210.709415 
L 263.842292 208.157426 
L 275.366285 204.98998 
L 294.092775 199.563078 
L 312.819264 194.200497 
L 324.343258 191.114374 
L 334.426752 188.626785 
L 344.510246 186.385079 
L 353.153241 184.686889 
L 361.796236 183.213373 
L 370.439231 181.977013 
L 379.082226 180.985452 
L 387.725222 180.241638 
L 396.368217 179.744046 
L 405.011212 179.486962 
L 413.654207 179.460832 
L 422.297202 179.652651 
L 430.940197 180.046392 
L 441.023691 180.736024 
L 451.107185 181.642006 
L 462.631179 182.896161 
L 477.036171 184.709108 
L 497.203159 187.504398 
L 526.013143 191.490425 
L 541.858634 193.444605 
L 554.823126 194.831291 
L 567.787619 195.987081 
L 579.311612 196.800527 
L 590.835606 197.40272 
L 602.359599 197.791534 
L 613.883593 197.971515 
L 626.848085 197.937753 
L 639.812578 197.676115 
L 654.21757 197.154416 
L 670.063061 196.355377 
L 690.230049 195.105302 
L 753.612013 190.998767 
L 772.338503 190.105579 
L 789.624493 189.503931 
L 806.910483 189.133118 
L 806.910483 189.133118 
" clip-path="url(#peca1b423cf)" style="fill: none; stroke-dasharray: 12.95,5.6; stroke-dashoffset: 0; stroke: #ff0000; stroke-opacity: 0.8; stroke-width: 3.5"/>
   </g>
  </g>
  <g id="text_16">
   <!-- State Variable Simulation Comparison -->
   <g transform="translate(269.943437 20.1175) scale(0.16 -0.16)">
    <defs>
     <path id="DejaVuSans-53" d="M 3425 4513 
L 3425 3897 
Q 3066 4069 2747 4153 
Q 2428 4238 2131 4238 
Q 1616 4238 1336 4038 
Q 1056 3838 1056 3469 
Q 1056 3159 1242 3001 
Q 1428 2844 1947 2747 
L 2328 2669 
Q 3034 2534 3370 2195 
Q 3706 1856 3706 1288 
Q 3706 609 3251 259 
Q 2797 -91 1919 -91 
Q 1588 -91 1214 -16 
Q 841 59 441 206 
L 441 856 
Q 825 641 1194 531 
Q 1563 422 1919 422 
Q 2459 422 2753 634 
Q 3047 847 3047 1241 
Q 3047 1584 2836 1778 
Q 2625 1972 2144 2069 
L 1759 2144 
Q 1053 2284 737 2584 
Q 422 2884 422 3419 
Q 422 4038 858 4394 
Q 1294 4750 2059 4750 
Q 2388 4750 2728 4690 
Q 3069 4631 3425 4513 
z
" transform="scale(0.015625)"/>
     <path id="DejaVuSans-74" d="M 1172 4494 
L 1172 3500 
L 2356 3500 
L 2356 3053 
L 1172 3053 
L 1172 1153 
Q 1172 725 1289 603 
Q 1406 481 1766 481 
L 2356 481 
L 2356 0 
L 1766 0 
Q 1100 0 847 248 
Q 594 497 594 1153 
L 594 3053 
L 172 3053 
L 172 3500 
L 594 3500 
L 594 4494 
L 1172 4494 
z
" transform="scale(0.015625)"/>
     <path id="DejaVuSans-61" d="M 2194 1759 
Q 1497 1759 1228 1600 
Q 959 1441 959 1056 
Q 959 750 1161 570 
Q 1363 391 1709 391 
Q 2188 391 2477 730 
Q 2766 1069 2766 1631 
L 2766 1759 
L 2194 1759 
z
M 3341 1997 
L 3341 0 
L 2766 0 
L 2766 531 
Q 2569 213 2275 61 
Q 1981 -91 1556 -91 
Q 1019 -91 701 211 
Q 384 513 384 1019 
Q 384 1609 779 1909 
Q 1175 2209 1959 2209 
L 2766 2209 
L 2766 2266 
Q 2766 2663 2505 2880 
Q 2244 3097 1772 3097 
Q 1472 3097 1187 3025 
Q 903 2953 641 2809 
L 641 3341 
Q 956 3463 1253 3523 
Q 1550 3584 1831 3584 
Q 2591 3584 2966 3190 
Q 3341 2797 3341 1997 
z
" transform="scale(0.015625)"/>
     <path id="DejaVuSans-20" transform="scale(0.015625)"/>
     <path id="DejaVuSans-56" d="M 1831 0 
L 50 4666 
L 709 4666 
L 2188 738 
L 3669 4666 
L 4325 4666 
L 2547 0 
L 1831 0 
z
" transform="scale(0.015625)"/>
     <path id="DejaVuSans-72" d="M 2631 2963 
Q 2534 3019 2420 3045 
Q 2306 3072 2169 3072 
Q 1681 3072 1420 2755 
Q 1159 2438 1159 1844 
L 1159 0 
L 581 0 
L 581 3500 
L 1159 3500 
L 1159 2956 
Q 1341 3275 1631 3429 
Q 1922 3584 2338 3584 
Q 2397 3584 2469 3576 
Q 2541 3569 2628 3553 
L 2631 2963 
z
" transform="scale(0.015625)"/>
     <path id="DejaVuSans-62" d="M 3116 1747 
Q 3116 2381 2855 2742 
Q 2594 3103 2138 3103 
Q 1681 3103 1420 2742 
Q 1159 2381 1159 1747 
Q 1159 1113 1420 752 
Q 1681 391 2138 391 
Q 2594 391 2855 752 
Q 3116 1113 3116 1747 
z
M 1159 2969 
Q 1341 3281 1617 3432 
Q 1894 3584 2278 3584 
Q 2916 3584 3314 3078 
Q 3713 2572 3713 1747 
Q 3713 922 3314 415 
Q 2916 -91 2278 -91 
Q 1894 -91 1617 61 
Q 1341 213 1159 525 
L 1159 0 
L 581 0 
L 581 4863 
L 1159 4863 
L 1159 2969 
z
" transform="scale(0.015625)"/>
     <path id="DejaVuSans-6c" d="M 603 4863 
L 1178 4863 
L 1178 0 
L 603 0 
L 603 4863 
z
" transform="scale(0.015625)"/>
     <path id="DejaVuSans-75" d="M 544 1381 
L 544 3500 
L 1119 3500 
L 1119 1403 
Q 1119 906 1312 657 
Q 1506 409 1894 409 
Q 2359 409 2629 706 
Q 2900 1003 2900 1516 
L 2900 3500 
L 3475 3500 
L 3475 0 
L 2900 0 
L 2900 538 
Q 2691 219 2414 64 
Q 2138 -91 1772 -91 
Q 1169 -91 856 284 
Q 544 659 544 1381 
z
M 1991 3584 
L 1991 3584 
z
" transform="scale(0.015625)"/>
     <path id="DejaVuSans-6f" d="M 1959 3097 
Q 1497 3097 1228 2736 
Q 959 2375 959 1747 
Q 959 1119 1226 758 
Q 1494 397 1959 397 
Q 2419 397 2687 759 
Q 2956 1122 2956 1747 
Q 2956 2369 2687 2733 
Q 2419 3097 1959 3097 
z
M 1959 3584 
Q 2709 3584 3137 3096 
Q 3566 2609 3566 1747 
Q 3566 888 3137 398 
Q 2709 -91 1959 -91 
Q 1206 -91 779 398 
Q 353 888 353 1747 
Q 353 2609 779 3096 
Q 1206 3584 1959 3584 
z
" transform="scale(0.015625)"/>
     <path id="DejaVuSans-6e" d="M 3513 2113 
L 3513 0 
L 2938 0 
L 2938 2094 
Q 2938 2591 2744 2837 
Q 2550 3084 2163 3084 
Q 1697 3084 1428 2787 
Q 1159 2491 1159 1978 
L 1159 0 
L 581 0 
L 581 3500 
L 1159 3500 
L 1159 2956 
Q 1366 3272 1645 3428 
Q 1925 3584 2291 3584 
Q 2894 3584 3203 3211 
Q 3513 2838 3513 2113 
z
" transform="scale(0.015625)"/>
     <path id="DejaVuSans-43" d="M 4122 4306 
L 4122 3641 
Q 3803 3938 3442 4084 
Q 3081 4231 2675 4231 
Q 1875 4231 1450 3742 
Q 1025 3253 1025 2328 
Q 1025 1406 1450 917 
Q 1875 428 2675 428 
Q 3081 428 3442 575 
Q 3803 722 4122 1019 
L 4122 359 
Q 3791 134 3420 21 
Q 3050 -91 2638 -91 
Q 1578 -91 968 557 
Q 359 1206 359 2328 
Q 359 3453 968 4101 
Q 1578 4750 2638 4750 
Q 3056 4750 3426 4639 
Q 3797 4528 4122 4306 
z
" transform="scale(0.015625)"/>
     <path id="DejaVuSans-70" d="M 1159 525 
L 1159 -1331 
L 581 -1331 
L 581 3500 
L 1159 3500 
L 1159 2969 
Q 1341 3281 1617 3432 
Q 1894 3584 2278 3584 
Q 2916 3584 3314 3078 
Q 3713 2572 3713 1747 
Q 3713 922 3314 415 
Q 2916 -91 2278 -91 
Q 1894 -91 1617 61 
Q 1341 213 1159 525 
z
M 3116 1747 
Q 3116 2381 2855 2742 
Q 2594 3103 2138 3103 
Q 1681 3103 1420 2742 
Q 1159 2381 1159 1747 
Q 1159 1113 1420 752 
Q 1681 391 2138 391 
Q 2594 391 2855 752 
Q 3116 1113 3116 1747 
z
" transform="scale(0.015625)"/>
     <path id="DejaVuSans-73" d="M 2834 3397 
L 2834 2853 
Q 2591 2978 2328 3040 
Q 2066 3103 1784 3103 
Q 1356 3103 1142 2972 
Q 928 2841 928 2578 
Q 928 2378 1081 2264 
Q 1234 2150 1697 2047 
L 1894 2003 
Q 2506 1872 2764 1633 
Q 3022 1394 3022 966 
Q 3022 478 2636 193 
Q 2250 -91 1575 -91 
Q 1294 -91 989 -36 
Q 684 19 347 128 
L 347 722 
Q 666 556 975 473 
Q 1284 391 1588 391 
Q 1994 391 2212 530 
Q 2431 669 2431 922 
Q 2431 1156 2273 1281 
Q 2116 1406 1581 1522 
L 1381 1569 
Q 847 1681 609 1914 
Q 372 2147 372 2553 
Q 372 3047 722 3315 
Q 1072 3584 1716 3584 
Q 2034 3584 2315 3537 
Q 2597 3491 2834 3397 
z
" transform="scale(0.015625)"/>
    </defs>
    <use xlink:href="#DejaVuSans-53"/>
    <use xlink:href="#DejaVuSans-74" transform="translate(63.476562 0)"/>
    <use xlink:href="#DejaVuSans-61" transform="translate(102.685547 0)"/>
    <use xlink:href="#DejaVuSans-74" transform="translate(163.964844 0)"/>
    <use xlink:href="#DejaVuSans-65" transform="translate(203.173828 0)"/>
    <use xlink:href="#DejaVuSans-20" transform="translate(264.697266 0)"/>
    <use xlink:href="#DejaVuSans-56" transform="translate(296.484375 0)"/>
    <use xlink:href="#DejaVuSans-61" transform="translate(357.142578 0)"/>
    <use xlink:href="#DejaVuSans-72" transform="translate(418.421875 0)"/>
    <use xlink:href="#DejaVuSans-69" transform="translate(459.535156 0)"/>
    <use xlink:href="#DejaVuSans-61" transform="translate(487.318359 0)"/>
    <use xlink:href="#DejaVuSans-62" transform="translate(548.597656 0)"/>
    <use xlink:href="#DejaVuSans-6c" transform="translate(612.074219 0)"/>
    <use xlink:href="#DejaVuSans-65" transform="translate(639.857422 0)"/>
    <use xlink:href="#DejaVuSans-20" transform="translate(701.380859 0)"/>
    <use xlink:href="#DejaVuSans-53" transform="translate(733.167969 0)"/>
    <use xlink:href="#DejaVuSans-69" transform="translate(796.644531 0)"/>
    <use xlink:href="#DejaVuSans-6d" transform="translate(824.427734 0)"/>
    <use xlink:href="#DejaVuSans-75" transform="translate(921.839844 0)"/>
    <use xlink:href="#DejaVuSans-6c" transform="translate(985.21875 0)"/>
    <use xlink:href="#DejaVuSans-61" transform="translate(1013.001953 0)"/>
    <use xlink:href="#DejaVuSans-74" transform="translate(1074.28125 0)"/>
    <use xlink:href="#DejaVuSans-69" transform="translate(1113.490234 0)"/>
    <use xlink:href="#DejaVuSans-6f" transform="translate(1141.273438 0)"/>
    <use xlink:href="#DejaVuSans-6e" transform="translate(1202.455078 0)"/>
    <use xlink:href="#DejaVuSans-20" transform="translate(1265.833984 0)"/>
    <use xlink:href="#DejaVuSans-43" transform="translate(1297.621094 0)"/>
    <use xlink:href="#DejaVuSans-6f" transform="translate(1367.445312 0)"/>
    <use xlink:href="#DejaVuSans-6d" transform="translate(1428.626953 0)"/>
    <use xlink:href="#DejaVuSans-70" transform="translate(1526.039062 0)"/>
    <use xlink:href="#DejaVuSans-61" transform="translate(1589.515625 0)"/>
    <use xlink:href="#DejaVuSans-72" transform="translate(1650.794922 0)"/>
    <use xlink:href="#DejaVuSans-69" transform="translate(1691.908203 0)"/>
    <use xlink:href="#DejaVuSans-73" transform="translate(1719.691406 0)"/>
    <use xlink:href="#DejaVuSans-6f" transform="translate(1771.791016 0)"/>
    <use xlink:href="#DejaVuSans-6e" transform="translate(1832.972656 0)"/>
   </g>
  </g>
  <g id="legend_1">
   <g id="patch_12">
    <path d="M 737.779063 66.7125 
L 848.850937 66.7125 
Q 850.850937 66.7125 850.850937 64.7125 
L 850.850937 7 
Q 850.850937 5 848.850937 5 
L 737.779063 5 
Q 735.779063 5 735.779063 7 
L 735.779063 64.7125 
Q 735.779063 66.7125 737.779063 66.7125 
z
" style="fill: #ffffff; opacity: 0.5; stroke: #cccccc; stroke-linejoin: miter"/>
   </g>
   <g id="line2d_27">
    <path d="M 739.779063 13.098437 
L 749.779063 13.098437 
L 759.779063 13.098437 
" style="fill: none; stroke: #000000; stroke-opacity: 0.4; stroke-width: 6; stroke-linecap: square"/>
   </g>
   <g id="text_17">
    <!-- True Trajectory -->
    <g transform="translate(767.779063 16.598437) scale(0.1 -0.1)">
     <defs>
      <path id="DejaVuSans-6a" d="M 603 3500 
L 1178 3500 
L 1178 -63 
Q 1178 -731 923 -1031 
Q 669 -1331 103 -1331 
L -116 -1331 
L -116 -844 
L 38 -844 
Q 366 -844 484 -692 
Q 603 -541 603 -63 
L 603 3500 
z
M 603 4863 
L 1178 4863 
L 1178 4134 
L 603 4134 
L 603 4863 
z
" transform="scale(0.015625)"/>
      <path id="DejaVuSans-63" d="M 3122 3366 
L 3122 2828 
Q 2878 2963 2633 3030 
Q 2388 3097 2138 3097 
Q 1578 3097 1268 2742 
Q 959 2388 959 1747 
Q 959 1106 1268 751 
Q 1578 397 2138 397 
Q 2388 397 2633 464 
Q 2878 531 3122 666 
L 3122 134 
Q 2881 22 2623 -34 
Q 2366 -91 2075 -91 
Q 1284 -91 818 406 
Q 353 903 353 1747 
Q 353 2603 823 3093 
Q 1294 3584 2113 3584 
Q 2378 3584 2631 3529 
Q 2884 3475 3122 3366 
z
" transform="scale(0.015625)"/>
      <path id="DejaVuSans-79" d="M 2059 -325 
Q 1816 -950 1584 -1140 
Q 1353 -1331 966 -1331 
L 506 -1331 
L 506 -850 
L 844 -850 
Q 1081 -850 1212 -737 
Q 1344 -625 1503 -206 
L 1606 56 
L 191 3500 
L 800 3500 
L 1894 763 
L 2988 3500 
L 3597 3500 
L 2059 -325 
z
" transform="scale(0.015625)"/>
     </defs>
     <use xlink:href="#DejaVuSans-54"/>
     <use xlink:href="#DejaVuSans-72" transform="translate(46.333984 0)"/>
     <use xlink:href="#DejaVuSans-75" transform="translate(87.447266 0)"/>
     <use xlink:href="#DejaVuSans-65" transform="translate(150.826172 0)"/>
     <use xlink:href="#DejaVuSans-20" transform="translate(212.349609 0)"/>
     <use xlink:href="#DejaVuSans-54" transform="translate(244.136719 0)"/>
     <use xlink:href="#DejaVuSans-72" transform="translate(290.470703 0)"/>
     <use xlink:href="#DejaVuSans-61" transform="translate(331.583984 0)"/>
     <use xlink:href="#DejaVuSans-6a" transform="translate(392.863281 0)"/>
     <use xlink:href="#DejaVuSans-65" transform="translate(420.646484 0)"/>
     <use xlink:href="#DejaVuSans-63" transform="translate(482.169922 0)"/>
     <use xlink:href="#DejaVuSans-74" transform="translate(537.150391 0)"/>
     <use xlink:href="#DejaVuSans-6f" transform="translate(576.359375 0)"/>
     <use xlink:href="#DejaVuSans-72" transform="translate(637.541016 0)"/>
     <use xlink:href="#DejaVuSans-79" transform="translate(678.654297 0)"/>
    </g>
   </g>
   <g id="line2d_28">
    <path d="M 739.779063 27.776562 
L 749.779063 27.776562 
L 759.779063 27.776562 
" style="fill: none; stroke-dasharray: 12.95,5.6; stroke-dashoffset: 0; stroke: #ff0000; stroke-opacity: 0.8; stroke-width: 3.5"/>
   </g>
   <g id="text_18">
    <!-- AutoSINDy -->
    <g transform="translate(767.779063 31.276562) scale(0.1 -0.1)">
     <defs>
      <path id="DejaVuSans-41" d="M 2188 4044 
L 1331 1722 
L 3047 1722 
L 2188 4044 
z
M 1831 4666 
L 2547 4666 
L 4325 0 
L 3669 0 
L 3244 1197 
L 1141 1197 
L 716 0 
L 50 0 
L 1831 4666 
z
" transform="scale(0.015625)"/>
      <path id="DejaVuSans-49" d="M 628 4666 
L 1259 4666 
L 1259 0 
L 628 0 
L 628 4666 
z
" transform="scale(0.015625)"/>
      <path id="DejaVuSans-4e" d="M 628 4666 
L 1478 4666 
L 3547 763 
L 3547 4666 
L 4159 4666 
L 4159 0 
L 3309 0 
L 1241 3903 
L 1241 0 
L 628 0 
L 628 4666 
z
" transform="scale(0.015625)"/>
      <path id="DejaVuSans-44" d="M 1259 4147 
L 1259 519 
L 2022 519 
Q 2988 519 3436 956 
Q 3884 1394 3884 2338 
Q 3884 3275 3436 3711 
Q 2988 4147 2022 4147 
L 1259 4147 
z
M 628 4666 
L 1925 4666 
Q 3281 4666 3915 4102 
Q 4550 3538 4550 2338 
Q 4550 1131 3912 565 
Q 3275 0 1925 0 
L 628 0 
L 628 4666 
z
" transform="scale(0.015625)"/>
     </defs>
     <use xlink:href="#DejaVuSans-41"/>
     <use xlink:href="#DejaVuSans-75" transform="translate(68.408203 0)"/>
     <use xlink:href="#DejaVuSans-74" transform="translate(131.787109 0)"/>
     <use xlink:href="#DejaVuSans-6f" transform="translate(170.996094 0)"/>
     <use xlink:href="#DejaVuSans-53" transform="translate(232.177734 0)"/>
     <use xlink:href="#DejaVuSans-49" transform="translate(295.654297 0)"/>
     <use xlink:href="#DejaVuSans-4e" transform="translate(325.146484 0)"/>
     <use xlink:href="#DejaVuSans-44" transform="translate(399.951172 0)"/>
     <use xlink:href="#DejaVuSans-79" transform="translate(476.953125 0)"/>
    </g>
   </g>
   <g id="line2d_29">
    <path d="M 739.779063 42.454687 
L 749.779063 42.454687 
L 759.779063 42.454687 
" style="fill: none; stroke-dasharray: 3.5,5.775; stroke-dashoffset: 0; stroke: #008000; stroke-opacity: 0.8; stroke-width: 3.5"/>
   </g>
   <g id="text_19">
    <!-- Standard SINDy -->
    <g transform="translate(767.779063 45.954687) scale(0.1 -0.1)">
     <defs>
      <path id="DejaVuSans-64" d="M 2906 2969 
L 2906 4863 
L 3481 4863 
L 3481 0 
L 2906 0 
L 2906 525 
Q 2725 213 2448 61 
Q 2172 -91 1784 -91 
Q 1150 -91 751 415 
Q 353 922 353 1747 
Q 353 2572 751 3078 
Q 1150 3584 1784 3584 
Q 2172 3584 2448 3432 
Q 2725 3281 2906 2969 
z
M 947 1747 
Q 947 1113 1208 752 
Q 1469 391 1925 391 
Q 2381 391 2643 752 
Q 2906 1113 2906 1747 
Q 2906 2381 2643 2742 
Q 2381 3103 1925 3103 
Q 1469 3103 1208 2742 
Q 947 2381 947 1747 
z
" transform="scale(0.015625)"/>
     </defs>
     <use xlink:href="#DejaVuSans-53"/>
     <use xlink:href="#DejaVuSans-74" transform="translate(63.476562 0)"/>
     <use xlink:href="#DejaVuSans-61" transform="translate(102.685547 0)"/>
     <use xlink:href="#DejaVuSans-6e" transform="translate(163.964844 0)"/>
     <use xlink:href="#DejaVuSans-64" transform="translate(227.34375 0)"/>
     <use xlink:href="#DejaVuSans-61" transform="translate(290.820312 0)"/>
     <use xlink:href="#DejaVuSans-72" transform="translate(352.099609 0)"/>
     <use xlink:href="#DejaVuSans-64" transform="translate(391.462891 0)"/>
     <use xlink:href="#DejaVuSans-20" transform="translate(454.939453 0)"/>
     <use xlink:href="#DejaVuSans-53" transform="translate(486.726562 0)"/>
     <use xlink:href="#DejaVuSans-49" transform="translate(550.203125 0)"/>
     <use xlink:href="#DejaVuSans-4e" transform="translate(579.695312 0)"/>
     <use xlink:href="#DejaVuSans-44" transform="translate(654.5 0)"/>
     <use xlink:href="#DejaVuSans-79" transform="translate(731.501953 0)"/>
    </g>
   </g>
   <g id="line2d_30">
    <path d="M 739.779063 57.132812 
L 749.779063 57.132812 
L 759.779063 57.132812 
" style="fill: none; stroke-dasharray: 22.4,5.6,3.5,5.6; stroke-dashoffset: 0; stroke: #0000ff; stroke-opacity: 0.8; stroke-width: 3.5"/>
   </g>
   <g id="text_20">
    <!-- Standard PySR -->
    <g transform="translate(767.779063 60.632812) scale(0.1 -0.1)">
     <defs>
      <path id="DejaVuSans-50" d="M 1259 4147 
L 1259 2394 
L 2053 2394 
Q 2494 2394 2734 2622 
Q 2975 2850 2975 3272 
Q 2975 3691 2734 3919 
Q 2494 4147 2053 4147 
L 1259 4147 
z
M 628 4666 
L 2053 4666 
Q 2838 4666 3239 4311 
Q 3641 3956 3641 3272 
Q 3641 2581 3239 2228 
Q 2838 1875 2053 1875 
L 1259 1875 
L 1259 0 
L 628 0 
L 628 4666 
z
" transform="scale(0.015625)"/>
      <path id="DejaVuSans-52" d="M 2841 2188 
Q 3044 2119 3236 1894 
Q 3428 1669 3622 1275 
L 4263 0 
L 3584 0 
L 2988 1197 
Q 2756 1666 2539 1819 
Q 2322 1972 1947 1972 
L 1259 1972 
L 1259 0 
L 628 0 
L 628 4666 
L 2053 4666 
Q 2853 4666 3247 4331 
Q 3641 3997 3641 3322 
Q 3641 2881 3436 2590 
Q 3231 2300 2841 2188 
z
M 1259 4147 
L 1259 2491 
L 2053 2491 
Q 2509 2491 2742 2702 
Q 2975 2913 2975 3322 
Q 2975 3731 2742 3939 
Q 2509 4147 2053 4147 
L 1259 4147 
z
" transform="scale(0.015625)"/>
     </defs>
     <use xlink:href="#DejaVuSans-53"/>
     <use xlink:href="#DejaVuSans-74" transform="translate(63.476562 0)"/>
     <use xlink:href="#DejaVuSans-61" transform="translate(102.685547 0)"/>
     <use xlink:href="#DejaVuSans-6e" transform="translate(163.964844 0)"/>
     <use xlink:href="#DejaVuSans-64" transform="translate(227.34375 0)"/>
     <use xlink:href="#DejaVuSans-61" transform="translate(290.820312 0)"/>
     <use xlink:href="#DejaVuSans-72" transform="translate(352.099609 0)"/>
     <use xlink:href="#DejaVuSans-64" transform="translate(391.462891 0)"/>
     <use xlink:href="#DejaVuSans-20" transform="translate(454.939453 0)"/>
     <use xlink:href="#DejaVuSans-50" transform="translate(486.726562 0)"/>
     <use xlink:href="#DejaVuSans-79" transform="translate(547.029297 0)"/>
     <use xlink:href="#DejaVuSans-53" transform="translate(606.208984 0)"/>
     <use xlink:href="#DejaVuSans-52" transform="translate(669.685547 0)"/>
    </g>
   </g>
  </g>
 </g>
 <defs>
  <clipPath id="pa8c7621491">
   <rect x="52.160938" y="39.64" width="790.69" height="97.15"/>
  </clipPath>
  <clipPath id="peca1b423cf">
   <rect x="52.160938" y="151.09" width="790.69" height="97.15"/>
  </clipPath>
 </defs>
</svg>
