<?xml version="1.0" encoding="utf-8" standalone="no"?>
<!DOCTYPE svg PUBLIC "-//W3C//DTD SVG 1.1//EN"
  "http://www.w3.org/Graphics/SVG/1.1/DTD/svg11.dtd">
<svg xmlns:xlink="http://www.w3.org/1999/xlink" width="568.233395pt" height="567.994375pt" viewBox="0 0 568.233395 567.994375" xmlns="http://www.w3.org/2000/svg" version="1.1">
 <metadata>
  <rdf:RDF xmlns:dc="http://purl.org/dc/elements/1.1/" xmlns:cc="http://creativecommons.org/ns#" xmlns:rdf="http://www.w3.org/1999/02/22-rdf-syntax-ns#">
   <cc:Work>
    <dc:type rdf:resource="http://purl.org/dc/dcmitype/StillImage"/>
    <dc:date>2026-04-05T21:19:13.872869</dc:date>
    <dc:format>image/svg+xml</dc:format>
    <dc:creator>
     <cc:Agent>
      <dc:title>Matplotlib v3.10.7, https://matplotlib.org/</dc:title>
     </cc:Agent>
    </dc:creator>
   </cc:Work>
  </rdf:RDF>
 </metadata>
 <defs>
  <style type="text/css">*{stroke-linejoin: round; stroke-linecap: butt}</style>
 </defs>
 <g id="figure_1">
  <g id="patch_1">
   <path d="M 0 567.994375 
L 568.233395 567.994375 
L 568.233395 0 
L 0 0 
z
" style="fill: #ffffff"/>
  </g>
  <g id="axes_1">
   <g id="patch_2">
    <path d="M 52.160938 530.438125 
L 554.685493 530.438125 
L 554.685493 22.318125 
L 52.160938 22.318125 
z
" style="fill: #ffffff"/>
   </g>
   <g id="matplotlib.axis_1">
    <g id="xtick_1">
     <g id="line2d_1">
      <defs>
       <path id="me9734f4f44" d="M 0 0 
L 0 3.5 
" style="stroke: #000000; stroke-width: 0.8"/>
      </defs>
      <g>
       <use xlink:href="#me9734f4f44" x="53.767886" y="530.438125" style="stroke: #000000; stroke-width: 0.8"/>
      </g>
     </g>
     <g id="text_1">
      <!-- −0.6 -->
      <g transform="translate(41.626479 545.036562) scale(0.1 -0.1)">
       <defs>
        <path id="DejaVuSans-2212" d="M 678 2272 
L 4684 2272 
L 4684 1741 
L 678 1741 
L 678 2272 
z
" transform="scale(0.015625)"/>
        <path id="DejaVuSans-30" d="M 2034 4250 
Q 1547 4250 1301 3770 
Q 1056 3291 1056 2328 
Q 1056 1369 1301 889 
Q 1547 409 2034 409 
Q 2525 409 2770 889 
Q 3016 1369 3016 2328 
Q 3016 3291 2770 3770 
Q 2525 4250 2034 4250 
z
M 2034 4750 
Q 2819 4750 3233 4129 
Q 3647 3509 3647 2328 
Q 3647 1150 3233 529 
Q 2819 -91 2034 -91 
Q 1250 -91 836 529 
Q 422 1150 422 2328 
Q 422 3509 836 4129 
Q 1250 4750 2034 4750 
z
" transform="scale(0.015625)"/>
        <path id="DejaVuSans-2e" d="M 684 794 
L 1344 794 
L 1344 0 
L 684 0 
L 684 794 
z
" transform="scale(0.015625)"/>
        <path id="DejaVuSans-36" d="M 2113 2584 
Q 1688 2584 1439 2293 
Q 1191 2003 1191 1497 
Q 1191 994 1439 701 
Q 1688 409 2113 409 
Q 2538 409 2786 701 
Q 3034 994 3034 1497 
Q 3034 2003 2786 2293 
Q 2538 2584 2113 2584 
z
M 3366 4563 
L 3366 3988 
Q 3128 4100 2886 4159 
Q 2644 4219 2406 4219 
Q 1781 4219 1451 3797 
Q 1122 3375 1075 2522 
Q 1259 2794 1537 2939 
Q 1816 3084 2150 3084 
Q 2853 3084 3261 2657 
Q 3669 2231 3669 1497 
Q 3669 778 3244 343 
Q 2819 -91 2113 -91 
Q 1303 -91 875 529 
Q 447 1150 447 2328 
Q 447 3434 972 4092 
Q 1497 4750 2381 4750 
Q 2619 4750 2861 4703 
Q 3103 4656 3366 4563 
z
" transform="scale(0.015625)"/>
       </defs>
       <use xlink:href="#DejaVuSans-2212"/>
       <use xlink:href="#DejaVuSans-30" transform="translate(83.789062 0)"/>
       <use xlink:href="#DejaVuSans-2e" transform="translate(147.412109 0)"/>
       <use xlink:href="#DejaVuSans-36" transform="translate(179.199219 0)"/>
      </g>
     </g>
    </g>
    <g id="xtick_2">
     <g id="line2d_2">
      <g>
       <use xlink:href="#me9734f4f44" x="136.986877" y="530.438125" style="stroke: #000000; stroke-width: 0.8"/>
      </g>
     </g>
     <g id="text_2">
      <!-- −0.4 -->
      <g transform="translate(124.84547 545.036562) scale(0.1 -0.1)">
       <defs>
        <path id="DejaVuSans-34" d="M 2419 4116 
L 825 1625 
L 2419 1625 
L 2419 4116 
z
M 2253 4666 
L 3047 4666 
L 3047 1625 
L 3713 1625 
L 3713 1100 
L 3047 1100 
L 3047 0 
L 2419 0 
L 2419 1100 
L 313 1100 
L 313 1709 
L 2253 4666 
z
" transform="scale(0.015625)"/>
       </defs>
       <use xlink:href="#DejaVuSans-2212"/>
       <use xlink:href="#DejaVuSans-30" transform="translate(83.789062 0)"/>
       <use xlink:href="#DejaVuSans-2e" transform="translate(147.412109 0)"/>
       <use xlink:href="#DejaVuSans-34" transform="translate(179.199219 0)"/>
      </g>
     </g>
    </g>
    <g id="xtick_3">
     <g id="line2d_3">
      <g>
       <use xlink:href="#me9734f4f44" x="220.205868" y="530.438125" style="stroke: #000000; stroke-width: 0.8"/>
      </g>
     </g>
     <g id="text_3">
      <!-- −0.2 -->
      <g transform="translate(208.064462 545.036562) scale(0.1 -0.1)">
       <defs>
        <path id="DejaVuSans-32" d="M 1228 531 
L 3431 531 
L 3431 0 
L 469 0 
L 469 531 
Q 828 903 1448 1529 
Q 2069 2156 2228 2338 
Q 2531 2678 2651 2914 
Q 2772 3150 2772 3378 
Q 2772 3750 2511 3984 
Q 2250 4219 1831 4219 
Q 1534 4219 1204 4116 
Q 875 4013 500 3803 
L 500 4441 
Q 881 4594 1212 4672 
Q 1544 4750 1819 4750 
Q 2544 4750 2975 4387 
Q 3406 4025 3406 3419 
Q 3406 3131 3298 2873 
Q 3191 2616 2906 2266 
Q 2828 2175 2409 1742 
Q 1991 1309 1228 531 
z
" transform="scale(0.015625)"/>
       </defs>
       <use xlink:href="#DejaVuSans-2212"/>
       <use xlink:href="#DejaVuSans-30" transform="translate(83.789062 0)"/>
       <use xlink:href="#DejaVuSans-2e" transform="translate(147.412109 0)"/>
       <use xlink:href="#DejaVuSans-32" transform="translate(179.199219 0)"/>
      </g>
     </g>
    </g>
    <g id="xtick_4">
     <g id="line2d_4">
      <g>
       <use xlink:href="#me9734f4f44" x="303.424859" y="530.438125" style="stroke: #000000; stroke-width: 0.8"/>
      </g>
     </g>
     <g id="text_4">
      <!-- 0.0 -->
      <g transform="translate(295.473296 545.036562) scale(0.1 -0.1)">
       <use xlink:href="#DejaVuSans-30"/>
       <use xlink:href="#DejaVuSans-2e" transform="translate(63.623047 0)"/>
       <use xlink:href="#DejaVuSans-30" transform="translate(95.410156 0)"/>
      </g>
     </g>
    </g>
    <g id="xtick_5">
     <g id="line2d_5">
      <g>
       <use xlink:href="#me9734f4f44" x="386.64385" y="530.438125" style="stroke: #000000; stroke-width: 0.8"/>
      </g>
     </g>
     <g id="text_5">
      <!-- 0.2 -->
      <g transform="translate(378.692288 545.036562) scale(0.1 -0.1)">
       <use xlink:href="#DejaVuSans-30"/>
       <use xlink:href="#DejaVuSans-2e" transform="translate(63.623047 0)"/>
       <use xlink:href="#DejaVuSans-32" transform="translate(95.410156 0)"/>
      </g>
     </g>
    </g>
    <g id="xtick_6">
     <g id="line2d_6">
      <g>
       <use xlink:href="#me9734f4f44" x="469.862841" y="530.438125" style="stroke: #000000; stroke-width: 0.8"/>
      </g>
     </g>
     <g id="text_6">
      <!-- 0.4 -->
      <g transform="translate(461.911279 545.036562) scale(0.1 -0.1)">
       <use xlink:href="#DejaVuSans-30"/>
       <use xlink:href="#DejaVuSans-2e" transform="translate(63.623047 0)"/>
       <use xlink:href="#DejaVuSans-34" transform="translate(95.410156 0)"/>
      </g>
     </g>
    </g>
    <g id="xtick_7">
     <g id="line2d_7">
      <g>
       <use xlink:href="#me9734f4f44" x="553.081832" y="530.438125" style="stroke: #000000; stroke-width: 0.8"/>
      </g>
     </g>
     <g id="text_7">
      <!-- 0.6 -->
      <g transform="translate(545.13027 545.036562) scale(0.1 -0.1)">
       <use xlink:href="#DejaVuSans-30"/>
       <use xlink:href="#DejaVuSans-2e" transform="translate(63.623047 0)"/>
       <use xlink:href="#DejaVuSans-36" transform="translate(95.410156 0)"/>
      </g>
     </g>
    </g>
    <g id="text_8">
     <!-- x0 -->
     <g transform="translate(297.28259 558.714687) scale(0.1 -0.1)">
      <defs>
       <path id="DejaVuSans-78" d="M 3513 3500 
L 2247 1797 
L 3578 0 
L 2900 0 
L 1881 1375 
L 863 0 
L 184 0 
L 1544 1831 
L 300 3500 
L 978 3500 
L 1906 2253 
L 2834 3500 
L 3513 3500 
z
" transform="scale(0.015625)"/>
      </defs>
      <use xlink:href="#DejaVuSans-78"/>
      <use xlink:href="#DejaVuSans-30" transform="translate(59.179688 0)"/>
     </g>
    </g>
   </g>
   <g id="matplotlib.axis_2">
    <g id="ytick_1">
     <g id="line2d_8">
      <defs>
       <path id="m0209f580f1" d="M 0 0 
L -3.5 0 
" style="stroke: #000000; stroke-width: 0.8"/>
      </defs>
      <g>
       <use xlink:href="#m0209f580f1" x="52.160938" y="464.762284" style="stroke: #000000; stroke-width: 0.8"/>
      </g>
     </g>
     <g id="text_9">
      <!-- −1.0 -->
      <g transform="translate(20.878125 468.561503) scale(0.1 -0.1)">
       <defs>
        <path id="DejaVuSans-31" d="M 794 531 
L 1825 531 
L 1825 4091 
L 703 3866 
L 703 4441 
L 1819 4666 
L 2450 4666 
L 2450 531 
L 3481 531 
L 3481 0 
L 794 0 
L 794 531 
z
" transform="scale(0.015625)"/>
       </defs>
       <use xlink:href="#DejaVuSans-2212"/>
       <use xlink:href="#DejaVuSans-31" transform="translate(83.789062 0)"/>
       <use xlink:href="#DejaVuSans-2e" transform="translate(147.412109 0)"/>
       <use xlink:href="#DejaVuSans-30" transform="translate(179.199219 0)"/>
      </g>
     </g>
    </g>
    <g id="ytick_2">
     <g id="line2d_9">
      <g>
       <use xlink:href="#m0209f580f1" x="52.160938" y="370.569457" style="stroke: #000000; stroke-width: 0.8"/>
      </g>
     </g>
     <g id="text_10">
      <!-- −0.5 -->
      <g transform="translate(20.878125 374.368675) scale(0.1 -0.1)">
       <defs>
        <path id="DejaVuSans-35" d="M 691 4666 
L 3169 4666 
L 3169 4134 
L 1269 4134 
L 1269 2991 
Q 1406 3038 1543 3061 
Q 1681 3084 1819 3084 
Q 2600 3084 3056 2656 
Q 3513 2228 3513 1497 
Q 3513 744 3044 326 
Q 2575 -91 1722 -91 
Q 1428 -91 1123 -41 
Q 819 9 494 109 
L 494 744 
Q 775 591 1075 516 
Q 1375 441 1709 441 
Q 2250 441 2565 725 
Q 2881 1009 2881 1497 
Q 2881 1984 2565 2268 
Q 2250 2553 1709 2553 
Q 1456 2553 1204 2497 
Q 953 2441 691 2322 
L 691 4666 
z
" transform="scale(0.015625)"/>
       </defs>
       <use xlink:href="#DejaVuSans-2212"/>
       <use xlink:href="#DejaVuSans-30" transform="translate(83.789062 0)"/>
       <use xlink:href="#DejaVuSans-2e" transform="translate(147.412109 0)"/>
       <use xlink:href="#DejaVuSans-35" transform="translate(179.199219 0)"/>
      </g>
     </g>
    </g>
    <g id="ytick_3">
     <g id="line2d_10">
      <g>
       <use xlink:href="#m0209f580f1" x="52.160938" y="276.376629" style="stroke: #000000; stroke-width: 0.8"/>
      </g>
     </g>
     <g id="text_11">
      <!-- 0.0 -->
      <g transform="translate(29.257812 280.175848) scale(0.1 -0.1)">
       <use xlink:href="#DejaVuSans-30"/>
       <use xlink:href="#DejaVuSans-2e" transform="translate(63.623047 0)"/>
       <use xlink:href="#DejaVuSans-30" transform="translate(95.410156 0)"/>
      </g>
     </g>
    </g>
    <g id="ytick_4">
     <g id="line2d_11">
      <g>
       <use xlink:href="#m0209f580f1" x="52.160938" y="182.183802" style="stroke: #000000; stroke-width: 0.8"/>
      </g>
     </g>
     <g id="text_12">
      <!-- 0.5 -->
      <g transform="translate(29.257812 185.983021) scale(0.1 -0.1)">
       <use xlink:href="#DejaVuSans-30"/>
       <use xlink:href="#DejaVuSans-2e" transform="translate(63.623047 0)"/>
       <use xlink:href="#DejaVuSans-35" transform="translate(95.410156 0)"/>
      </g>
     </g>
    </g>
    <g id="ytick_5">
     <g id="line2d_12">
      <g>
       <use xlink:href="#m0209f580f1" x="52.160938" y="87.990975" style="stroke: #000000; stroke-width: 0.8"/>
      </g>
     </g>
     <g id="text_13">
      <!-- 1.0 -->
      <g transform="translate(29.257812 91.790194) scale(0.1 -0.1)">
       <use xlink:href="#DejaVuSans-31"/>
       <use xlink:href="#DejaVuSans-2e" transform="translate(63.623047 0)"/>
       <use xlink:href="#DejaVuSans-30" transform="translate(95.410156 0)"/>
      </g>
     </g>
    </g>
    <g id="text_14">
     <!-- x1 -->
     <g transform="translate(14.798438 282.51875) rotate(-90) scale(0.1 -0.1)">
      <use xlink:href="#DejaVuSans-78"/>
      <use xlink:href="#DejaVuSans-31" transform="translate(59.179688 0)"/>
     </g>
    </g>
   </g>
   <g id="line2d_13">
    <path d="M 511.472337 182.183802 
L 513.494352 187.841515 
L 515.391283 193.487044 
L 517.163429 199.117686 
L 518.811151 204.730776 
L 520.334864 210.323687 
L 521.735044 215.893829 
L 523.012222 221.438647 
L 524.16697 226.955842 
L 525.199876 232.443924 
L 526.111688 237.900359 
L 526.903211 243.322511 
L 527.575288 248.707807 
L 528.128802 254.053733 
L 528.564677 259.357838 
L 528.883875 264.617729 
L 529.087397 269.831078 
L 529.176286 274.995616 
L 529.151623 280.109135 
L 529.01453 285.169488 
L 528.766166 290.174592 
L 528.407732 295.122421 
L 527.940469 300.011012 
L 527.365655 304.838464 
L 526.68461 309.602936 
L 525.898693 314.302649 
L 525.009302 318.935884 
L 524.017875 323.500984 
L 522.925891 327.996352 
L 521.734866 332.420454 
L 520.446358 336.771816 
L 519.061963 341.049025 
L 517.583317 345.25073 
L 516.012097 349.375639 
L 514.350018 353.422525 
L 512.598836 357.390218 
L 510.760344 361.277612 
L 508.836379 365.08366 
L 506.828813 368.807379 
L 502.570575 376.004192 
L 498.001416 382.861397 
L 493.137756 389.373317 
L 487.996625 395.535244 
L 482.590313 401.341359 
L 476.932502 406.785718 
L 471.040722 411.864154 
L 464.932324 416.573308 
L 458.624486 420.910628 
L 452.134208 424.87437 
L 445.478314 428.463599 
L 438.673451 431.678187 
L 431.736092 434.518815 
L 424.682532 436.986969 
L 417.52889 439.084946 
L 410.291109 440.815849 
L 402.984955 442.183591 
L 395.62602 443.192889 
L 388.229716 443.849273 
L 380.811283 444.159077 
L 373.385781 444.129443 
L 365.968097 443.768324 
L 358.572939 443.084477 
L 351.214476 442.086787 
L 343.904245 440.779322 
L 336.656332 439.170321 
L 329.484974 437.269505 
L 322.403788 435.086803 
L 315.425769 432.632353 
L 308.563289 429.916503 
L 301.828099 426.949808 
L 295.231326 423.743032 
L 288.783477 420.307147 
L 282.494435 416.653334 
L 276.373462 412.792982 
L 270.429198 408.737691 
L 264.66966 404.499265 
L 259.102244 400.089722 
L 253.733722 395.521283 
L 248.570247 390.806382 
L 243.617348 385.95766 
L 238.87993 380.987966 
L 234.362329 375.910206 
L 230.069773 370.734035 
L 226.007098 365.471248 
L 222.178197 360.134919 
L 218.586405 354.737817 
L 215.234496 349.292405 
L 212.124687 343.810841 
L 209.258635 338.304977 
L 206.637439 332.786359 
L 204.261638 327.26623 
L 202.131213 321.755525 
L 200.245584 316.264875 
L 198.603615 310.804604 
L 197.203609 305.384733 
L 196.043311 300.014977 
L 195.119906 294.704742 
L 194.430021 289.463134 
L 193.969724 284.29895 
L 193.734523 279.220683 
L 193.719836 274.236301 
L 193.923591 269.352576 
L 194.34122 264.577763 
L 194.967365 259.919967 
L 195.796471 255.386797 
L 196.822786 250.985365 
L 198.040359 246.722289 
L 199.44304 242.603689 
L 201.024482 238.63519 
L 202.77814 234.821921 
L 204.69727 231.168515 
L 206.774931 227.679108 
L 209.003982 224.357341 
L 211.377085 221.20636 
L 213.886705 218.228812 
L 216.525106 215.42685 
L 219.284357 212.802131 
L 222.156326 210.355815 
L 225.132685 208.088568 
L 228.204907 206.000557 
L 231.364267 204.091456 
L 234.603744 202.361614 
L 237.917749 200.812538 
L 241.29747 199.443837 
L 244.734223 198.254771 
L 248.219518 197.24429 
L 251.74506 196.411039 
L 255.302746 195.753349 
L 258.884672 195.269244 
L 262.483125 194.956438 
L 266.090589 194.812338 
L 269.699741 194.834039 
L 273.303454 195.018329 
L 276.894795 195.361684 
L 280.467026 195.860273 
L 284.013602 196.509956 
L 289.271531 197.757961 
L 294.436893 199.319519 
L 299.490067 201.17674 
L 304.412417 203.31017 
L 309.187225 205.70296 
L 313.798226 208.34128 
L 318.228065 211.204784 
L 322.460995 214.273118 
L 326.482916 217.526048 
L 330.281376 220.943461 
L 333.845571 224.505364 
L 337.166346 228.191887 
L 340.236192 231.983276 
L 343.049249 235.859902 
L 345.601304 239.802254 
L 347.889793 243.790942 
L 349.913798 247.806698 
L 351.674051 251.830372 
L 353.170541 255.844566 
L 354.401777 259.832947 
L 355.370049 263.77736 
L 356.078674 267.660691 
L 356.531946 271.466909 
L 356.735144 275.18106 
L 356.694525 278.78927 
L 356.41733 282.278745 
L 355.911779 285.637771 
L 355.187074 288.855712 
L 354.253398 291.923011 
L 353.121915 294.831192 
L 351.804182 297.572739 
L 350.309579 300.140034 
L 348.650307 302.526189 
L 346.839138 304.725446 
L 344.888879 306.733129 
L 342.812379 308.545643 
L 340.622525 310.160474 
L 338.332245 311.576192 
L 335.954504 312.792447 
L 333.502307 313.809972 
L 330.988699 314.630582 
L 328.426762 315.257174 
L 325.829587 315.693692 
L 323.208534 315.943013 
L 320.575932 316.008918 
L 317.944709 315.896703 
L 315.327145 315.612151 
L 311.878311 314.975584 
L 308.50013 314.06007 
L 305.21632 312.883372 
L 302.048551 311.464797 
L 299.016441 309.825195 
L 296.137556 307.98696 
L 293.427426 305.973605 
L 290.900505 303.805465 
L 288.57061 301.506155 
L 286.449337 299.099948 
L 284.54591 296.610416 
L 282.867186 294.060432 
L 281.417651 291.472163 
L 280.199421 288.867078 
L 279.212241 286.265945 
L 278.453486 283.688829 
L 277.918964 281.154513 
L 277.605677 278.67999 
L 277.507541 276.283811 
L 277.617021 273.982968 
L 277.925412 271.792596 
L 278.422845 269.725972 
L 279.09828 267.794516 
L 279.939507 266.007792 
L 280.933151 264.373506 
L 282.064667 262.897506 
L 283.318358 261.583801 
L 284.679993 260.436962 
L 286.135585 259.460588 
L 287.669956 258.655689 
L 289.268002 258.021868 
L 290.086201 257.768602 
L 290.086201 257.768602 
" clip-path="url(#pc2e6f5d092)" style="fill: none; stroke: #000000; stroke-opacity: 0.3; stroke-width: 7; stroke-linecap: square"/>
   </g>
   <g id="line2d_14">
    <path d="M 511.472337 182.183802 
L 513.505979 186.800198 
L 515.436965 191.460365 
L 517.264386 196.162017 
L 518.987247 200.902886 
L 520.604773 205.680636 
L 522.116207 210.49292 
L 523.520792 215.337394 
L 524.817844 220.211694 
L 526.006641 225.113454 
L 527.086675 230.040262 
L 528.057451 234.989706 
L 528.918474 239.95937 
L 529.669327 244.946832 
L 530.309553 249.949658 
L 530.838914 254.965397 
L 531.257184 259.991595 
L 531.564136 265.025799 
L 531.759626 270.065553 
L 531.843467 275.108389 
L 531.815694 280.151844 
L 531.676353 285.193455 
L 531.42549 290.230758 
L 531.063231 295.261296 
L 530.589664 300.282597 
L 530.005096 305.292216 
L 529.309844 310.28771 
L 528.504227 315.266635 
L 527.588639 320.226563 
L 526.563444 325.165047 
L 525.429216 330.079691 
L 524.186539 334.9681 
L 522.835999 339.827882 
L 521.378258 344.656667 
L 519.813946 349.452062 
L 518.1439 354.21175 
L 516.368964 358.933415 
L 514.489984 363.614743 
L 512.50788 368.253452 
L 510.423544 372.847234 
L 508.238061 377.393876 
L 505.952528 381.891172 
L 503.56804 386.336913 
L 501.085765 390.728934 
L 498.506841 395.065037 
L 495.832595 399.343145 
L 493.064359 403.561184 
L 490.203464 407.717081 
L 487.251313 411.808811 
L 484.209277 415.834316 
L 481.078908 419.791678 
L 477.86176 423.678982 
L 474.559388 427.494314 
L 471.173423 431.235818 
L 467.705439 434.901597 
L 464.157227 438.489918 
L 460.530586 441.999051 
L 456.827313 445.427265 
L 453.04936 448.772902 
L 449.198436 452.034243 
L 441.286854 458.297997 
L 433.111444 464.206565 
L 424.692817 469.748469 
L 416.05995 474.913898 
L 407.246888 479.693944 
L 398.299022 484.081558 
L 389.274743 488.072371 
L 380.241781 491.663734 
L 371.279939 494.857845 
L 362.47086 497.659124 
L 353.891631 500.076187 
L 345.602257 502.120679 
L 337.647653 503.806392 
L 330.029175 505.148234 
L 322.728138 506.160828 
L 315.688451 506.85698 
L 308.830829 507.246656 
L 302.057479 507.335687 
L 295.262461 507.125561 
L 288.342341 506.612934 
L 281.205351 505.790245 
L 273.781004 504.64624 
L 266.027721 503.167217 
L 257.933742 501.338221 
L 249.522426 499.144733 
L 240.841098 496.573468 
L 231.960418 493.614417 
L 222.960484 490.259816 
L 213.921708 486.506996 
L 204.920498 482.355436 
L 196.021297 477.808409 
L 187.275601 472.871732 
L 178.726195 467.552863 
L 170.402918 461.861469 
L 162.331588 455.807939 
L 154.532294 449.403912 
L 150.740109 446.074334 
L 147.022321 442.661841 
L 143.380889 439.168052 
L 139.817569 435.594726 
L 136.334113 431.943626 
L 132.932269 428.216516 
L 129.613723 424.415208 
L 126.380154 420.541521 
L 123.233086 416.597397 
L 120.174037 412.584776 
L 117.204523 408.505603 
L 114.326004 404.361862 
L 111.539943 400.155548 
L 108.847636 395.888757 
L 106.25038 391.563585 
L 103.749461 387.182132 
L 101.346115 382.746531 
L 99.041571 378.258925 
L 96.836888 373.72154 
L 94.733123 369.136604 
L 92.731322 364.506344 
L 90.83248 359.833015 
L 89.03758 355.118886 
L 87.347427 350.366285 
L 85.762828 345.57754 
L 84.284576 340.754983 
L 82.913413 335.900963 
L 81.650062 331.017844 
L 80.495068 326.108028 
L 79.448974 321.173919 
L 78.512312 316.217921 
L 77.685562 311.242451 
L 76.969178 306.249937 
L 76.363438 301.242828 
L 75.868617 296.223572 
L 75.484976 291.194618 
L 75.212729 286.158421 
L 75.052056 281.117444 
L 75.002963 276.074151 
L 75.065453 271.031005 
L 75.239516 265.990471 
L 75.525094 260.95501 
L 75.922093 255.927091 
L 76.430246 250.909165 
L 77.049285 245.903679 
L 77.778927 240.91308 
L 78.618846 235.939811 
L 79.568671 230.986314 
L 80.627867 226.054994 
L 81.7959 221.148257 
L 83.072217 216.268501 
L 84.456225 211.41812 
L 85.947285 206.5995 
L 87.544599 201.814971 
L 89.24737 197.066866 
L 91.054785 192.357508 
L 92.965991 187.689211 
L 94.980087 183.064275 
L 97.096024 178.48493 
L 99.312753 173.953404 
L 101.629208 169.471919 
L 104.044287 165.042681 
L 106.556839 160.667874 
L 109.165575 156.3496 
L 111.869207 152.08996 
L 114.66643 147.891041 
L 117.555907 143.754918 
L 120.53625 139.683633 
L 123.605946 135.679132 
L 126.763481 131.743362 
L 130.007323 127.878255 
L 133.335915 124.085725 
L 136.747654 120.367649 
L 140.240793 116.725792 
L 143.813589 113.161924 
L 147.464252 109.677791 
L 151.191012 106.275126 
L 154.99203 102.955617 
L 162.808197 96.572285 
L 170.895014 90.540105 
L 179.232854 84.870807 
L 187.794944 79.574596 
L 196.551033 74.661071 
L 205.458201 70.137673 
L 214.463193 66.00983 
L 223.502111 62.281054 
L 232.497694 58.950345 
L 241.368072 56.014754 
L 250.034678 53.466533 
L 258.429803 51.29522 
L 266.501141 49.487676 
L 274.235622 48.02913 
L 281.640869 46.904752 
L 288.762704 46.100943 
L 295.672684 45.606676 
L 302.463267 45.414489 
L 309.238607 45.521555 
L 316.104978 45.929249 
L 323.157183 46.644198 
L 330.477381 47.676061 
L 338.113541 49.038105 
L 346.092115 50.744941 
L 354.397846 52.81132 
L 362.993579 55.251259 
L 371.814082 58.075845 
L 380.782414 61.293635 
L 389.81662 64.909228 
L 398.83926 68.923594 
L 407.779415 73.335126 
L 416.5833 78.138393 
L 425.204333 83.326665 
L 433.60849 88.890957 
L 441.769181 94.821031 
L 449.664089 101.105793 
L 453.506317 104.377344 
L 457.275545 107.732919 
L 460.969769 111.170901 
L 464.587063 114.689649 
L 468.125689 118.287393 
L 471.583907 121.962361 
L 474.959988 125.712774 
L 478.252253 129.536815 
L 481.459045 133.432646 
L 484.578855 137.398318 
L 487.610175 141.431879 
L 490.551505 145.531375 
L 493.401389 149.694814 
L 496.158391 153.920188 
L 498.821225 158.205391 
L 501.388609 162.54832 
L 503.859271 166.946866 
L 506.231983 171.398892 
L 508.505539 175.902239 
L 510.678896 180.454676 
L 512.75101 185.053971 
L 514.720851 189.697885 
L 516.587432 194.384162 
L 518.349796 199.110523 
L 520.007151 203.874634 
L 521.558706 208.674161 
L 523.003685 213.506769 
L 524.341354 218.370104 
L 525.571017 223.261795 
L 526.692143 228.179436 
L 527.704204 233.120622 
L 528.606686 238.082943 
L 529.399117 243.063981 
L 530.081071 248.061303 
L 530.652286 253.072458 
L 531.1125 258.094997 
L 531.461471 263.126471 
L 531.698994 268.164421 
L 531.824917 273.206383 
L 531.839249 278.249894 
L 531.742 283.29249 
L 531.533201 288.331708 
L 531.212917 293.365085 
L 530.781271 298.390154 
L 530.238545 303.404468 
L 529.585021 308.405578 
L 528.820999 313.391041 
L 527.946817 318.358415 
L 526.962871 323.305263 
L 525.86971 328.229182 
L 524.667886 333.127771 
L 523.357966 337.998635 
L 521.940555 342.839382 
L 520.416317 347.647635 
L 518.786064 352.421066 
L 517.050607 357.157349 
L 515.210776 361.854167 
L 513.267434 366.509209 
L 511.221507 371.120184 
L 509.074058 375.684871 
L 506.826148 380.201045 
L 504.478861 384.666496 
L 502.033306 389.079019 
L 499.490659 393.436443 
L 496.852221 397.736676 
L 494.119294 401.977624 
L 491.293197 406.157208 
L 488.375276 410.273361 
L 485.366941 414.324054 
L 482.269718 418.307351 
L 479.085132 422.221315 
L 475.814731 426.064025 
L 472.460077 429.833572 
L 469.022797 433.528099 
L 465.504652 437.145848 
L 461.907401 440.685064 
L 458.232856 444.144011 
L 454.482786 447.520964 
L 450.659074 450.814256 
L 442.799517 457.143691 
L 434.672269 463.120118 
L 426.297549 468.731952 
L 417.703128 473.969179 
L 408.920381 478.822387 
L 399.99413 483.284473 
L 390.979359 487.350346 
L 381.941986 491.016975 
L 372.960278 494.285878 
L 364.116761 497.160545 
L 355.488501 499.649309 
L 347.140819 501.763049 
L 339.121903 503.515268 
L 331.440037 504.920799 
L 324.08277 505.994431 
L 316.999109 506.749371 
L 310.114329 507.196255 
L 303.333035 507.341761 
L 296.551058 507.187984 
L 289.660737 506.733092 
L 282.571114 505.969551 
L 275.205463 504.887113 
L 267.515443 503.472367 
L 259.485623 501.710545 
L 251.130512 499.586775 
L 242.495734 497.087725 
L 233.646649 494.202262 
L 224.662365 490.922907 
L 215.625627 487.245015 
L 206.611317 483.168657 
L 197.688824 478.695758 
L 188.911113 473.831961 
L 180.321398 468.584588 
L 171.95384 462.96257 
L 163.833153 456.976522 
L 159.872413 453.850437 
L 155.981209 450.637631 
L 152.161563 447.339712 
L 148.415497 443.95829 
L 144.744997 440.494996 
L 141.15198 436.95148 
L 137.638235 433.329476 
L 134.205447 429.630794 
L 130.855302 425.857247 
L 127.589458 422.010667 
L 124.409566 418.092896 
L 121.317177 414.105854 
L 118.313755 410.051526 
L 115.400761 405.931896 
L 112.579627 401.748967 
L 109.851787 397.504751 
L 107.218568 393.201329 
L 104.681203 388.840833 
L 102.240928 384.425397 
L 99.898944 379.95717 
L 97.656452 375.438308 
L 95.514542 370.871026 
L 93.474204 366.25758 
L 91.53643 361.600225 
L 89.702177 356.901231 
L 87.972402 352.162873 
L 86.347942 347.387472 
L 84.829532 342.57738 
L 83.417909 337.734948 
L 82.113773 332.862536 
L 80.917826 327.962511 
L 79.830641 323.037272 
L 78.85269 318.089239 
L 77.984446 313.120828 
L 77.226344 308.134462 
L 76.578821 303.132573 
L 76.042179 298.117606 
L 75.616622 293.092019 
L 75.302353 288.058266 
L 75.099537 283.018803 
L 75.008341 277.976094 
L 75.028793 272.932604 
L 75.160824 267.890798 
L 75.404366 262.853137 
L 75.759311 257.822079 
L 76.225554 252.800094 
L 76.802849 247.789635 
L 77.490856 242.793141 
L 78.289237 237.813053 
L 79.197611 232.851804 
L 80.215604 227.911833 
L 81.342697 222.995553 
L 82.578284 218.105351 
L 83.921759 213.243616 
L 85.372477 208.412723 
L 86.929795 203.615057 
L 88.59293 198.852956 
L 90.361017 194.128729 
L 92.233191 189.444682 
L 94.208547 184.803103 
L 96.286183 180.206294 
L 98.465064 175.656492 
L 100.744073 171.155895 
L 103.122096 166.706701 
L 105.59799 162.311091 
L 108.17059 157.971242 
L 110.838612 153.689259 
L 113.600719 149.467213 
L 116.455575 145.307176 
L 116.455575 145.307176 
" clip-path="url(#pc2e6f5d092)" style="fill: none; stroke-dasharray: 22.4,5.6,3.5,5.6; stroke-dashoffset: 0; stroke: #0000ff; stroke-opacity: 0.8; stroke-width: 3.5"/>
   </g>
   <g id="patch_3">
    <path d="M 52.160938 530.438125 
L 52.160938 22.318125 
" style="fill: none; stroke: #000000; stroke-width: 0.8; stroke-linejoin: miter; stroke-linecap: square"/>
   </g>
   <g id="patch_4">
    <path d="M 554.685493 530.438125 
L 554.685493 22.318125 
" style="fill: none; stroke: #000000; stroke-width: 0.8; stroke-linejoin: miter; stroke-linecap: square"/>
   </g>
   <g id="patch_5">
    <path d="M 52.160937 530.438125 
L 554.685493 530.438125 
" style="fill: none; stroke: #000000; stroke-width: 0.8; stroke-linejoin: miter; stroke-linecap: square"/>
   </g>
   <g id="patch_6">
    <path d="M 52.160937 22.318125 
L 554.685493 22.318125 
" style="fill: none; stroke: #000000; stroke-width: 0.8; stroke-linejoin: miter; stroke-linecap: square"/>
   </g>
   <g id="text_15">
    <!-- Phase Portrait (x0 vs x1) -->
    <g transform="translate(229.731965 16.318125) scale(0.12 -0.12)">
     <defs>
      <path id="DejaVuSans-50" d="M 1259 4147 
L 1259 2394 
L 2053 2394 
Q 2494 2394 2734 2622 
Q 2975 2850 2975 3272 
Q 2975 3691 2734 3919 
Q 2494 4147 2053 4147 
L 1259 4147 
z
M 628 4666 
L 2053 4666 
Q 2838 4666 3239 4311 
Q 3641 3956 3641 3272 
Q 3641 2581 3239 2228 
Q 2838 1875 2053 1875 
L 1259 1875 
L 1259 0 
L 628 0 
L 628 4666 
z
" transform="scale(0.015625)"/>
      <path id="DejaVuSans-68" d="M 3513 2113 
L 3513 0 
L 2938 0 
L 2938 2094 
Q 2938 2591 2744 2837 
Q 2550 3084 2163 3084 
Q 1697 3084 1428 2787 
Q 1159 2491 1159 1978 
L 1159 0 
L 581 0 
L 581 4863 
L 1159 4863 
L 1159 2956 
Q 1366 3272 1645 3428 
Q 1925 3584 2291 3584 
Q 2894 3584 3203 3211 
Q 3513 2838 3513 2113 
z
" transform="scale(0.015625)"/>
      <path id="DejaVuSans-61" d="M 2194 1759 
Q 1497 1759 1228 1600 
Q 959 1441 959 1056 
Q 959 750 1161 570 
Q 1363 391 1709 391 
Q 2188 391 2477 730 
Q 2766 1069 2766 1631 
L 2766 1759 
L 2194 1759 
z
M 3341 1997 
L 3341 0 
L 2766 0 
L 2766 531 
Q 2569 213 2275 61 
Q 1981 -91 1556 -91 
Q 1019 -91 701 211 
Q 384 513 384 1019 
Q 384 1609 779 1909 
Q 1175 2209 1959 2209 
L 2766 2209 
L 2766 2266 
Q 2766 2663 2505 2880 
Q 2244 3097 1772 3097 
Q 1472 3097 1187 3025 
Q 903 2953 641 2809 
L 641 3341 
Q 956 3463 1253 3523 
Q 1550 3584 1831 3584 
Q 2591 3584 2966 3190 
Q 3341 2797 3341 1997 
z
" transform="scale(0.015625)"/>
      <path id="DejaVuSans-73" d="M 2834 3397 
L 2834 2853 
Q 2591 2978 2328 3040 
Q 2066 3103 1784 3103 
Q 1356 3103 1142 2972 
Q 928 2841 928 2578 
Q 928 2378 1081 2264 
Q 1234 2150 1697 2047 
L 1894 2003 
Q 2506 1872 2764 1633 
Q 3022 1394 3022 966 
Q 3022 478 2636 193 
Q 2250 -91 1575 -91 
Q 1294 -91 989 -36 
Q 684 19 347 128 
L 347 722 
Q 666 556 975 473 
Q 1284 391 1588 391 
Q 1994 391 2212 530 
Q 2431 669 2431 922 
Q 2431 1156 2273 1281 
Q 2116 1406 1581 1522 
L 1381 1569 
Q 847 1681 609 1914 
Q 372 2147 372 2553 
Q 372 3047 722 3315 
Q 1072 3584 1716 3584 
Q 2034 3584 2315 3537 
Q 2597 3491 2834 3397 
z
" transform="scale(0.015625)"/>
      <path id="DejaVuSans-65" d="M 3597 1894 
L 3597 1613 
L 953 1613 
Q 991 1019 1311 708 
Q 1631 397 2203 397 
Q 2534 397 2845 478 
Q 3156 559 3463 722 
L 3463 178 
Q 3153 47 2828 -22 
Q 2503 -91 2169 -91 
Q 1331 -91 842 396 
Q 353 884 353 1716 
Q 353 2575 817 3079 
Q 1281 3584 2069 3584 
Q 2775 3584 3186 3129 
Q 3597 2675 3597 1894 
z
M 3022 2063 
Q 3016 2534 2758 2815 
Q 2500 3097 2075 3097 
Q 1594 3097 1305 2825 
Q 1016 2553 972 2059 
L 3022 2063 
z
" transform="scale(0.015625)"/>
      <path id="DejaVuSans-20" transform="scale(0.015625)"/>
      <path id="DejaVuSans-6f" d="M 1959 3097 
Q 1497 3097 1228 2736 
Q 959 2375 959 1747 
Q 959 1119 1226 758 
Q 1494 397 1959 397 
Q 2419 397 2687 759 
Q 2956 1122 2956 1747 
Q 2956 2369 2687 2733 
Q 2419 3097 1959 3097 
z
M 1959 3584 
Q 2709 3584 3137 3096 
Q 3566 2609 3566 1747 
Q 3566 888 3137 398 
Q 2709 -91 1959 -91 
Q 1206 -91 779 398 
Q 353 888 353 1747 
Q 353 2609 779 3096 
Q 1206 3584 1959 3584 
z
" transform="scale(0.015625)"/>
      <path id="DejaVuSans-72" d="M 2631 2963 
Q 2534 3019 2420 3045 
Q 2306 3072 2169 3072 
Q 1681 3072 1420 2755 
Q 1159 2438 1159 1844 
L 1159 0 
L 581 0 
L 581 3500 
L 1159 3500 
L 1159 2956 
Q 1341 3275 1631 3429 
Q 1922 3584 2338 3584 
Q 2397 3584 2469 3576 
Q 2541 3569 2628 3553 
L 2631 2963 
z
" transform="scale(0.015625)"/>
      <path id="DejaVuSans-74" d="M 1172 4494 
L 1172 3500 
L 2356 3500 
L 2356 3053 
L 1172 3053 
L 1172 1153 
Q 1172 725 1289 603 
Q 1406 481 1766 481 
L 2356 481 
L 2356 0 
L 1766 0 
Q 1100 0 847 248 
Q 594 497 594 1153 
L 594 3053 
L 172 3053 
L 172 3500 
L 594 3500 
L 594 4494 
L 1172 4494 
z
" transform="scale(0.015625)"/>
      <path id="DejaVuSans-69" d="M 603 3500 
L 1178 3500 
L 1178 0 
L 603 0 
L 603 3500 
z
M 603 4863 
L 1178 4863 
L 1178 4134 
L 603 4134 
L 603 4863 
z
" transform="scale(0.015625)"/>
      <path id="DejaVuSans-28" d="M 1984 4856 
Q 1566 4138 1362 3434 
Q 1159 2731 1159 2009 
Q 1159 1288 1364 580 
Q 1569 -128 1984 -844 
L 1484 -844 
Q 1016 -109 783 600 
Q 550 1309 550 2009 
Q 550 2706 781 3412 
Q 1013 4119 1484 4856 
L 1984 4856 
z
" transform="scale(0.015625)"/>
      <path id="DejaVuSans-76" d="M 191 3500 
L 800 3500 
L 1894 563 
L 2988 3500 
L 3597 3500 
L 2284 0 
L 1503 0 
L 191 3500 
z
" transform="scale(0.015625)"/>
      <path id="DejaVuSans-29" d="M 513 4856 
L 1013 4856 
Q 1481 4119 1714 3412 
Q 1947 2706 1947 2009 
Q 1947 1309 1714 600 
Q 1481 -109 1013 -844 
L 513 -844 
Q 928 -128 1133 580 
Q 1338 1288 1338 2009 
Q 1338 2731 1133 3434 
Q 928 4138 513 4856 
z
" transform="scale(0.015625)"/>
     </defs>
     <use xlink:href="#DejaVuSans-50"/>
     <use xlink:href="#DejaVuSans-68" transform="translate(60.302734 0)"/>
     <use xlink:href="#DejaVuSans-61" transform="translate(123.681641 0)"/>
     <use xlink:href="#DejaVuSans-73" transform="translate(184.960938 0)"/>
     <use xlink:href="#DejaVuSans-65" transform="translate(237.060547 0)"/>
     <use xlink:href="#DejaVuSans-20" transform="translate(298.583984 0)"/>
     <use xlink:href="#DejaVuSans-50" transform="translate(330.371094 0)"/>
     <use xlink:href="#DejaVuSans-6f" transform="translate(387.048828 0)"/>
     <use xlink:href="#DejaVuSans-72" transform="translate(448.230469 0)"/>
     <use xlink:href="#DejaVuSans-74" transform="translate(489.34375 0)"/>
     <use xlink:href="#DejaVuSans-72" transform="translate(528.552734 0)"/>
     <use xlink:href="#DejaVuSans-61" transform="translate(569.666016 0)"/>
     <use xlink:href="#DejaVuSans-69" transform="translate(630.945312 0)"/>
     <use xlink:href="#DejaVuSans-74" transform="translate(658.728516 0)"/>
     <use xlink:href="#DejaVuSans-20" transform="translate(697.9375 0)"/>
     <use xlink:href="#DejaVuSans-28" transform="translate(729.724609 0)"/>
     <use xlink:href="#DejaVuSans-78" transform="translate(768.738281 0)"/>
     <use xlink:href="#DejaVuSans-30" transform="translate(827.917969 0)"/>
     <use xlink:href="#DejaVuSans-20" transform="translate(891.541016 0)"/>
     <use xlink:href="#DejaVuSans-76" transform="translate(923.328125 0)"/>
     <use xlink:href="#DejaVuSans-73" transform="translate(982.507812 0)"/>
     <use xlink:href="#DejaVuSans-20" transform="translate(1034.607422 0)"/>
     <use xlink:href="#DejaVuSans-78" transform="translate(1066.394531 0)"/>
     <use xlink:href="#DejaVuSans-31" transform="translate(1125.574219 0)"/>
     <use xlink:href="#DejaVuSans-29" transform="translate(1189.197266 0)"/>
    </g>
   </g>
   <g id="line2d_15">
    <path d="M 511.472337 182.183802 
L 513.486517 187.83137 
L 515.376334 193.46622 
L 517.142136 199.085712 
L 518.784183 204.68714 
L 520.302968 210.267951 
L 521.699012 215.825611 
L 522.972836 221.357585 
L 524.125032 226.861391 
L 525.156166 232.334513 
L 526.067004 237.774596 
L 526.858337 243.1793 
L 527.530953 248.546289 
L 528.085706 253.873282 
L 528.52343 259.157965 
L 528.845139 264.398196 
L 529.051868 269.591853 
L 529.144653 274.736813 
L 529.124587 279.831017 
L 528.992746 284.872369 
L 528.75037 289.858958 
L 528.398714 294.788892 
L 527.939034 299.660279 
L 527.372638 304.471294 
L 526.70082 309.220074 
L 525.925018 313.904952 
L 525.046683 318.524277 
L 524.067266 323.076401 
L 522.988261 327.55974 
L 521.811156 331.97268 
L 520.537559 336.313802 
L 519.169087 340.581708 
L 517.70736 344.774996 
L 516.154034 348.892339 
L 514.510759 352.932372 
L 510.961375 360.775879 
L 507.073299 368.296413 
L 502.86088 375.485383 
L 498.338982 382.335415 
L 493.522662 388.839653 
L 488.4273 394.992152 
L 483.068544 400.787892 
L 477.462185 406.222371 
L 471.624264 411.29226 
L 465.570901 415.994731 
L 459.318345 420.32783 
L 452.88291 424.29047 
L 446.280947 427.882053 
L 439.528802 431.103069 
L 432.642797 433.954464 
L 425.639198 436.437984 
L 418.534153 438.556149 
L 411.343744 440.311921 
L 404.083823 441.709219 
L 396.770125 442.752355 
L 389.41816 443.44634 
L 382.043167 443.796835 
L 374.660223 443.809882 
L 367.283987 443.492313 
L 359.928919 442.851282 
L 352.609112 441.894514 
L 345.338265 440.630244 
L 338.129837 439.067011 
L 330.996711 437.21396 
L 323.951514 435.080478 
L 317.006394 432.676377 
L 310.173009 430.01183 
L 303.462718 427.097233 
L 296.886194 423.94339 
L 290.453809 420.561261 
L 284.175377 416.962083 
L 278.060163 413.157303 
L 272.117088 409.158503 
L 266.354324 404.977475 
L 260.779717 400.626088 
L 255.400504 396.116334 
L 250.22335 391.460273 
L 245.254553 386.67001 
L 240.499634 381.757677 
L 235.963787 376.735403 
L 231.651575 371.615295 
L 227.567001 366.409399 
L 223.71369 361.129722 
L 220.094509 355.788128 
L 216.712007 350.396412 
L 213.568117 344.966209 
L 210.664242 339.508988 
L 208.001422 334.036097 
L 205.579986 328.5586 
L 203.399975 323.087432 
L 201.46085 317.633254 
L 199.761597 312.206468 
L 198.300872 306.817293 
L 197.076694 301.475545 
L 196.086831 296.190868 
L 195.328536 290.972536 
L 194.79866 285.829498 
L 194.493763 280.770469 
L 194.409871 275.803671 
L 194.542803 270.93713 
L 194.887944 266.178423 
L 195.440364 261.534765 
L 196.194891 257.013099 
L 197.145936 252.61982 
L 198.287751 248.361109 
L 199.614255 244.242652 
L 201.119136 240.269758 
L 202.795902 236.447436 
L 204.637768 232.78013 
L 206.63784 229.272059 
L 208.788999 225.926934 
L 211.083982 222.748086 
L 213.515408 219.738542 
L 216.075734 216.900769 
L 218.757354 214.237017 
L 221.552545 211.749033 
L 224.453528 209.438203 
L 227.45247 207.305621 
L 230.541495 205.351849 
L 233.712711 203.577249 
L 236.958219 201.98171 
L 240.270137 200.564797 
L 243.640594 199.325799 
L 247.061784 198.263535 
L 250.52593 197.376639 
L 254.025348 196.663328 
L 257.552432 196.121539 
L 261.09965 195.748966 
L 264.659629 195.542903 
L 268.225062 195.50049 
L 271.788821 195.618514 
L 275.34391 195.893539 
L 278.883459 196.321924 
L 282.400836 196.899713 
L 287.621092 198.037537 
L 292.755719 199.487475 
L 297.784541 201.233868 
L 302.688528 203.26015 
L 307.449738 205.549037 
L 312.051359 208.082615 
L 316.477872 210.842385 
L 320.714884 213.809438 
L 324.749359 216.964488 
L 328.569511 220.288002 
L 332.16481 223.760284 
L 335.526131 227.361568 
L 338.645536 231.072101 
L 341.516488 234.872245 
L 344.133706 238.742549 
L 346.493149 242.663815 
L 348.592127 246.617227 
L 350.429072 250.584342 
L 352.003706 254.547246 
L 353.316889 258.488561 
L 354.37057 262.391501 
L 355.167874 266.240002 
L 355.712868 270.018654 
L 356.010684 273.712866 
L 356.067372 277.308842 
L 355.889834 280.793592 
L 355.485865 284.15508 
L 354.863962 287.382089 
L 354.033379 290.464393 
L 353.004 293.392694 
L 351.786276 296.158609 
L 350.391216 298.754803 
L 348.830245 301.174822 
L 347.115207 303.413246 
L 345.258267 305.465603 
L 343.271846 307.328333 
L 341.16858 308.998902 
L 338.961236 310.475615 
L 336.662662 311.757742 
L 334.285729 312.845422 
L 331.843272 313.73961 
L 329.348024 314.442157 
L 326.812586 314.955637 
L 324.249349 315.283425 
L 321.670458 315.429612 
L 319.087786 315.398935 
L 316.512833 315.196825 
L 313.11079 314.671092 
L 309.767505 313.867011 
L 306.506763 312.801868 
L 303.350771 311.494297 
L 300.32004 309.964086 
L 297.4333 308.231983 
L 294.707417 306.319492 
L 292.157316 304.248681 
L 289.795969 302.041979 
L 287.634364 299.72199 
L 285.681498 297.311311 
L 283.944386 294.832357 
L 282.42806 292.307186 
L 281.13564 289.757346 
L 280.068376 287.203729 
L 279.225713 284.666431 
L 278.605365 282.16463 
L 278.203385 279.71646 
L 278.014286 277.338924 
L 278.031133 275.047799 
L 278.245663 272.857571 
L 278.648393 270.781369 
L 279.228736 268.830895 
L 279.975142 267.016417 
L 280.87522 265.346732 
L 281.915872 263.829167 
L 283.083414 262.469572 
L 284.363713 261.272315 
L 285.742314 260.240335 
L 287.204565 259.375162 
L 289.12758 258.528406 
L 289.522581 258.390182 
L 289.522581 258.390182 
" clip-path="url(#pc2e6f5d092)" style="fill: none; stroke-dasharray: 12.95,5.6; stroke-dashoffset: 0; stroke: #ff0000; stroke-opacity: 0.8; stroke-width: 3.5"/>
   </g>
   <g id="legend_1">
    <g id="patch_7">
     <path d="M 402.335493 74.3525 
L 547.685493 74.3525 
Q 549.685493 74.3525 549.685493 72.3525 
L 549.685493 29.318125 
Q 549.685493 27.318125 547.685493 27.318125 
L 402.335493 27.318125 
Q 400.335493 27.318125 400.335493 29.318125 
L 400.335493 72.3525 
Q 400.335493 74.3525 402.335493 74.3525 
z
" style="fill: #ffffff; opacity: 0.8; stroke: #cccccc; stroke-linejoin: miter"/>
    </g>
    <g id="line2d_16">
     <path d="M 404.335493 35.416562 
L 414.335493 35.416562 
L 424.335493 35.416562 
" style="fill: none; stroke: #000000; stroke-opacity: 0.3; stroke-width: 7; stroke-linecap: square"/>
    </g>
    <g id="text_16">
     <!-- True/Underlying model -->
     <g transform="translate(432.335493 38.916562) scale(0.1 -0.1)">
      <defs>
       <path id="DejaVuSans-54" d="M -19 4666 
L 3928 4666 
L 3928 4134 
L 2272 4134 
L 2272 0 
L 1638 0 
L 1638 4134 
L -19 4134 
L -19 4666 
z
" transform="scale(0.015625)"/>
       <path id="DejaVuSans-75" d="M 544 1381 
L 544 3500 
L 1119 3500 
L 1119 1403 
Q 1119 906 1312 657 
Q 1506 409 1894 409 
Q 2359 409 2629 706 
Q 2900 1003 2900 1516 
L 2900 3500 
L 3475 3500 
L 3475 0 
L 2900 0 
L 2900 538 
Q 2691 219 2414 64 
Q 2138 -91 1772 -91 
Q 1169 -91 856 284 
Q 544 659 544 1381 
z
M 1991 3584 
L 1991 3584 
z
" transform="scale(0.015625)"/>
       <path id="DejaVuSans-2f" d="M 1625 4666 
L 2156 4666 
L 531 -594 
L 0 -594 
L 1625 4666 
z
" transform="scale(0.015625)"/>
       <path id="DejaVuSans-55" d="M 556 4666 
L 1191 4666 
L 1191 1831 
Q 1191 1081 1462 751 
Q 1734 422 2344 422 
Q 2950 422 3222 751 
Q 3494 1081 3494 1831 
L 3494 4666 
L 4128 4666 
L 4128 1753 
Q 4128 841 3676 375 
Q 3225 -91 2344 -91 
Q 1459 -91 1007 375 
Q 556 841 556 1753 
L 556 4666 
z
" transform="scale(0.015625)"/>
       <path id="DejaVuSans-6e" d="M 3513 2113 
L 3513 0 
L 2938 0 
L 2938 2094 
Q 2938 2591 2744 2837 
Q 2550 3084 2163 3084 
Q 1697 3084 1428 2787 
Q 1159 2491 1159 1978 
L 1159 0 
L 581 0 
L 581 3500 
L 1159 3500 
L 1159 2956 
Q 1366 3272 1645 3428 
Q 1925 3584 2291 3584 
Q 2894 3584 3203 3211 
Q 3513 2838 3513 2113 
z
" transform="scale(0.015625)"/>
       <path id="DejaVuSans-64" d="M 2906 2969 
L 2906 4863 
L 3481 4863 
L 3481 0 
L 2906 0 
L 2906 525 
Q 2725 213 2448 61 
Q 2172 -91 1784 -91 
Q 1150 -91 751 415 
Q 353 922 353 1747 
Q 353 2572 751 3078 
Q 1150 3584 1784 3584 
Q 2172 3584 2448 3432 
Q 2725 3281 2906 2969 
z
M 947 1747 
Q 947 1113 1208 752 
Q 1469 391 1925 391 
Q 2381 391 2643 752 
Q 2906 1113 2906 1747 
Q 2906 2381 2643 2742 
Q 2381 3103 1925 3103 
Q 1469 3103 1208 2742 
Q 947 2381 947 1747 
z
" transform="scale(0.015625)"/>
       <path id="DejaVuSans-6c" d="M 603 4863 
L 1178 4863 
L 1178 0 
L 603 0 
L 603 4863 
z
" transform="scale(0.015625)"/>
       <path id="DejaVuSans-79" d="M 2059 -325 
Q 1816 -950 1584 -1140 
Q 1353 -1331 966 -1331 
L 506 -1331 
L 506 -850 
L 844 -850 
Q 1081 -850 1212 -737 
Q 1344 -625 1503 -206 
L 1606 56 
L 191 3500 
L 800 3500 
L 1894 763 
L 2988 3500 
L 3597 3500 
L 2059 -325 
z
" transform="scale(0.015625)"/>
       <path id="DejaVuSans-67" d="M 2906 1791 
Q 2906 2416 2648 2759 
Q 2391 3103 1925 3103 
Q 1463 3103 1205 2759 
Q 947 2416 947 1791 
Q 947 1169 1205 825 
Q 1463 481 1925 481 
Q 2391 481 2648 825 
Q 2906 1169 2906 1791 
z
M 3481 434 
Q 3481 -459 3084 -895 
Q 2688 -1331 1869 -1331 
Q 1566 -1331 1297 -1286 
Q 1028 -1241 775 -1147 
L 775 -588 
Q 1028 -725 1275 -790 
Q 1522 -856 1778 -856 
Q 2344 -856 2625 -561 
Q 2906 -266 2906 331 
L 2906 616 
Q 2728 306 2450 153 
Q 2172 0 1784 0 
Q 1141 0 747 490 
Q 353 981 353 1791 
Q 353 2603 747 3093 
Q 1141 3584 1784 3584 
Q 2172 3584 2450 3431 
Q 2728 3278 2906 2969 
L 2906 3500 
L 3481 3500 
L 3481 434 
z
" transform="scale(0.015625)"/>
       <path id="DejaVuSans-6d" d="M 3328 2828 
Q 3544 3216 3844 3400 
Q 4144 3584 4550 3584 
Q 5097 3584 5394 3201 
Q 5691 2819 5691 2113 
L 5691 0 
L 5113 0 
L 5113 2094 
Q 5113 2597 4934 2840 
Q 4756 3084 4391 3084 
Q 3944 3084 3684 2787 
Q 3425 2491 3425 1978 
L 3425 0 
L 2847 0 
L 2847 2094 
Q 2847 2600 2669 2842 
Q 2491 3084 2119 3084 
Q 1678 3084 1418 2786 
Q 1159 2488 1159 1978 
L 1159 0 
L 581 0 
L 581 3500 
L 1159 3500 
L 1159 2956 
Q 1356 3278 1631 3431 
Q 1906 3584 2284 3584 
Q 2666 3584 2933 3390 
Q 3200 3197 3328 2828 
z
" transform="scale(0.015625)"/>
      </defs>
      <use xlink:href="#DejaVuSans-54"/>
      <use xlink:href="#DejaVuSans-72" transform="translate(46.333984 0)"/>
      <use xlink:href="#DejaVuSans-75" transform="translate(87.447266 0)"/>
      <use xlink:href="#DejaVuSans-65" transform="translate(150.826172 0)"/>
      <use xlink:href="#DejaVuSans-2f" transform="translate(212.349609 0)"/>
      <use xlink:href="#DejaVuSans-55" transform="translate(246.041016 0)"/>
      <use xlink:href="#DejaVuSans-6e" transform="translate(319.234375 0)"/>
      <use xlink:href="#DejaVuSans-64" transform="translate(382.613281 0)"/>
      <use xlink:href="#DejaVuSans-65" transform="translate(446.089844 0)"/>
      <use xlink:href="#DejaVuSans-72" transform="translate(507.613281 0)"/>
      <use xlink:href="#DejaVuSans-6c" transform="translate(548.726562 0)"/>
      <use xlink:href="#DejaVuSans-79" transform="translate(576.509766 0)"/>
      <use xlink:href="#DejaVuSans-69" transform="translate(635.689453 0)"/>
      <use xlink:href="#DejaVuSans-6e" transform="translate(663.472656 0)"/>
      <use xlink:href="#DejaVuSans-67" transform="translate(726.851562 0)"/>
      <use xlink:href="#DejaVuSans-20" transform="translate(790.328125 0)"/>
      <use xlink:href="#DejaVuSans-6d" transform="translate(822.115234 0)"/>
      <use xlink:href="#DejaVuSans-6f" transform="translate(919.527344 0)"/>
      <use xlink:href="#DejaVuSans-64" transform="translate(980.708984 0)"/>
      <use xlink:href="#DejaVuSans-65" transform="translate(1044.185547 0)"/>
      <use xlink:href="#DejaVuSans-6c" transform="translate(1105.708984 0)"/>
     </g>
    </g>
    <g id="line2d_17">
     <path d="M 404.335493 50.094687 
L 414.335493 50.094687 
L 424.335493 50.094687 
" style="fill: none; stroke-dasharray: 12.95,5.6; stroke-dashoffset: 0; stroke: #ff0000; stroke-opacity: 0.8; stroke-width: 3.5"/>
    </g>
    <g id="text_17">
     <!-- AutoSINDy -->
     <g transform="translate(432.335493 53.594687) scale(0.1 -0.1)">
      <defs>
       <path id="DejaVuSans-41" d="M 2188 4044 
L 1331 1722 
L 3047 1722 
L 2188 4044 
z
M 1831 4666 
L 2547 4666 
L 4325 0 
L 3669 0 
L 3244 1197 
L 1141 1197 
L 716 0 
L 50 0 
L 1831 4666 
z
" transform="scale(0.015625)"/>
       <path id="DejaVuSans-53" d="M 3425 4513 
L 3425 3897 
Q 3066 4069 2747 4153 
Q 2428 4238 2131 4238 
Q 1616 4238 1336 4038 
Q 1056 3838 1056 3469 
Q 1056 3159 1242 3001 
Q 1428 2844 1947 2747 
L 2328 2669 
Q 3034 2534 3370 2195 
Q 3706 1856 3706 1288 
Q 3706 609 3251 259 
Q 2797 -91 1919 -91 
Q 1588 -91 1214 -16 
Q 841 59 441 206 
L 441 856 
Q 825 641 1194 531 
Q 1563 422 1919 422 
Q 2459 422 2753 634 
Q 3047 847 3047 1241 
Q 3047 1584 2836 1778 
Q 2625 1972 2144 2069 
L 1759 2144 
Q 1053 2284 737 2584 
Q 422 2884 422 3419 
Q 422 4038 858 4394 
Q 1294 4750 2059 4750 
Q 2388 4750 2728 4690 
Q 3069 4631 3425 4513 
z
" transform="scale(0.015625)"/>
       <path id="DejaVuSans-49" d="M 628 4666 
L 1259 4666 
L 1259 0 
L 628 0 
L 628 4666 
z
" transform="scale(0.015625)"/>
       <path id="DejaVuSans-4e" d="M 628 4666 
L 1478 4666 
L 3547 763 
L 3547 4666 
L 4159 4666 
L 4159 0 
L 3309 0 
L 1241 3903 
L 1241 0 
L 628 0 
L 628 4666 
z
" transform="scale(0.015625)"/>
       <path id="DejaVuSans-44" d="M 1259 4147 
L 1259 519 
L 2022 519 
Q 2988 519 3436 956 
Q 3884 1394 3884 2338 
Q 3884 3275 3436 3711 
Q 2988 4147 2022 4147 
L 1259 4147 
z
M 628 4666 
L 1925 4666 
Q 3281 4666 3915 4102 
Q 4550 3538 4550 2338 
Q 4550 1131 3912 565 
Q 3275 0 1925 0 
L 628 0 
L 628 4666 
z
" transform="scale(0.015625)"/>
      </defs>
      <use xlink:href="#DejaVuSans-41"/>
      <use xlink:href="#DejaVuSans-75" transform="translate(68.408203 0)"/>
      <use xlink:href="#DejaVuSans-74" transform="translate(131.787109 0)"/>
      <use xlink:href="#DejaVuSans-6f" transform="translate(170.996094 0)"/>
      <use xlink:href="#DejaVuSans-53" transform="translate(232.177734 0)"/>
      <use xlink:href="#DejaVuSans-49" transform="translate(295.654297 0)"/>
      <use xlink:href="#DejaVuSans-4e" transform="translate(325.146484 0)"/>
      <use xlink:href="#DejaVuSans-44" transform="translate(399.951172 0)"/>
      <use xlink:href="#DejaVuSans-79" transform="translate(476.953125 0)"/>
     </g>
    </g>
    <g id="line2d_18">
     <path d="M 404.335493 64.772812 
L 414.335493 64.772812 
L 424.335493 64.772812 
" style="fill: none; stroke-dasharray: 22.4,5.6,3.5,5.6; stroke-dashoffset: 0; stroke: #0000ff; stroke-opacity: 0.8; stroke-width: 3.5"/>
    </g>
    <g id="text_18">
     <!-- Standard PySR -->
     <g transform="translate(432.335493 68.272812) scale(0.1 -0.1)">
      <defs>
       <path id="DejaVuSans-52" d="M 2841 2188 
Q 3044 2119 3236 1894 
Q 3428 1669 3622 1275 
L 4263 0 
L 3584 0 
L 2988 1197 
Q 2756 1666 2539 1819 
Q 2322 1972 1947 1972 
L 1259 1972 
L 1259 0 
L 628 0 
L 628 4666 
L 2053 4666 
Q 2853 4666 3247 4331 
Q 3641 3997 3641 3322 
Q 3641 2881 3436 2590 
Q 3231 2300 2841 2188 
z
M 1259 4147 
L 1259 2491 
L 2053 2491 
Q 2509 2491 2742 2702 
Q 2975 2913 2975 3322 
Q 2975 3731 2742 3939 
Q 2509 4147 2053 4147 
L 1259 4147 
z
" transform="scale(0.015625)"/>
      </defs>
      <use xlink:href="#DejaVuSans-53"/>
      <use xlink:href="#DejaVuSans-74" transform="translate(63.476562 0)"/>
      <use xlink:href="#DejaVuSans-61" transform="translate(102.685547 0)"/>
      <use xlink:href="#DejaVuSans-6e" transform="translate(163.964844 0)"/>
      <use xlink:href="#DejaVuSans-64" transform="translate(227.34375 0)"/>
      <use xlink:href="#DejaVuSans-61" transform="translate(290.820312 0)"/>
      <use xlink:href="#DejaVuSans-72" transform="translate(352.099609 0)"/>
      <use xlink:href="#DejaVuSans-64" transform="translate(391.462891 0)"/>
      <use xlink:href="#DejaVuSans-20" transform="translate(454.939453 0)"/>
      <use xlink:href="#DejaVuSans-50" transform="translate(486.726562 0)"/>
      <use xlink:href="#DejaVuSans-79" transform="translate(547.029297 0)"/>
      <use xlink:href="#DejaVuSans-53" transform="translate(606.208984 0)"/>
      <use xlink:href="#DejaVuSans-52" transform="translate(669.685547 0)"/>
     </g>
    </g>
   </g>
  </g>
 </g>
 <defs>
  <clipPath id="pc2e6f5d092">
   <rect x="52.160938" y="22.318125" width="502.524555" height="508.12"/>
  </clipPath>
 </defs>
</svg>
