<?xml version="1.0" encoding="utf-8" standalone="no"?>
<!DOCTYPE svg PUBLIC "-//W3C//DTD SVG 1.1//EN"
  "http://www.w3.org/Graphics/SVG/1.1/DTD/svg11.dtd">
<svg xmlns:xlink="http://www.w3.org/1999/xlink" width="568.412812pt" height="567.994375pt" viewBox="0 0 568.412812 567.994375" xmlns="http://www.w3.org/2000/svg" version="1.1">
 <metadata>
  <rdf:RDF xmlns:dc="http://purl.org/dc/elements/1.1/" xmlns:cc="http://creativecommons.org/ns#" xmlns:rdf="http://www.w3.org/1999/02/22-rdf-syntax-ns#">
   <cc:Work>
    <dc:type rdf:resource="http://purl.org/dc/dcmitype/StillImage"/>
    <dc:date>2026-04-02T02:14:51.235730</dc:date>
    <dc:format>image/svg+xml</dc:format>
    <dc:creator>
     <cc:Agent>
      <dc:title>Matplotlib v3.10.7, https://matplotlib.org/</dc:title>
     </cc:Agent>
    </dc:creator>
   </cc:Work>
  </rdf:RDF>
 </metadata>
 <defs>
  <style type="text/css">*{stroke-linejoin: round; stroke-linecap: butt}</style>
 </defs>
 <g id="figure_1">
  <g id="patch_1">
   <path d="M 0 567.994375 
L 568.412812 567.994375 
L 568.412812 0 
L 0 0 
z
" style="fill: #ffffff"/>
  </g>
  <g id="axes_1">
   <g id="patch_2">
    <path d="M 48.982813 530.438125 
L 561.212812 530.438125 
L 561.212812 22.318125 
L 48.982813 22.318125 
z
" style="fill: #ffffff"/>
   </g>
   <g id="matplotlib.axis_1">
    <g id="xtick_1">
     <g id="line2d_1">
      <defs>
       <path id="me864028cd3" d="M 0 0 
L 0 3.5 
" style="stroke: #000000; stroke-width: 0.8"/>
      </defs>
      <g>
       <use xlink:href="#me864028cd3" x="92.964695" y="530.438125" style="stroke: #000000; stroke-width: 0.8"/>
      </g>
     </g>
     <g id="text_1">
      <!-- −15 -->
      <g transform="translate(82.412351 545.036562) scale(0.1 -0.1)">
       <defs>
        <path id="DejaVuSans-2212" d="M 678 2272 
L 4684 2272 
L 4684 1741 
L 678 1741 
L 678 2272 
z
" transform="scale(0.015625)"/>
        <path id="DejaVuSans-31" d="M 794 531 
L 1825 531 
L 1825 4091 
L 703 3866 
L 703 4441 
L 1819 4666 
L 2450 4666 
L 2450 531 
L 3481 531 
L 3481 0 
L 794 0 
L 794 531 
z
" transform="scale(0.015625)"/>
        <path id="DejaVuSans-35" d="M 691 4666 
L 3169 4666 
L 3169 4134 
L 1269 4134 
L 1269 2991 
Q 1406 3038 1543 3061 
Q 1681 3084 1819 3084 
Q 2600 3084 3056 2656 
Q 3513 2228 3513 1497 
Q 3513 744 3044 326 
Q 2575 -91 1722 -91 
Q 1428 -91 1123 -41 
Q 819 9 494 109 
L 494 744 
Q 775 591 1075 516 
Q 1375 441 1709 441 
Q 2250 441 2565 725 
Q 2881 1009 2881 1497 
Q 2881 1984 2565 2268 
Q 2250 2553 1709 2553 
Q 1456 2553 1204 2497 
Q 953 2441 691 2322 
L 691 4666 
z
" transform="scale(0.015625)"/>
       </defs>
       <use xlink:href="#DejaVuSans-2212"/>
       <use xlink:href="#DejaVuSans-31" transform="translate(83.789062 0)"/>
       <use xlink:href="#DejaVuSans-35" transform="translate(147.412109 0)"/>
      </g>
     </g>
    </g>
    <g id="xtick_2">
     <g id="line2d_2">
      <g>
       <use xlink:href="#me864028cd3" x="163.649461" y="530.438125" style="stroke: #000000; stroke-width: 0.8"/>
      </g>
     </g>
     <g id="text_2">
      <!-- −10 -->
      <g transform="translate(153.097118 545.036562) scale(0.1 -0.1)">
       <defs>
        <path id="DejaVuSans-30" d="M 2034 4250 
Q 1547 4250 1301 3770 
Q 1056 3291 1056 2328 
Q 1056 1369 1301 889 
Q 1547 409 2034 409 
Q 2525 409 2770 889 
Q 3016 1369 3016 2328 
Q 3016 3291 2770 3770 
Q 2525 4250 2034 4250 
z
M 2034 4750 
Q 2819 4750 3233 4129 
Q 3647 3509 3647 2328 
Q 3647 1150 3233 529 
Q 2819 -91 2034 -91 
Q 1250 -91 836 529 
Q 422 1150 422 2328 
Q 422 3509 836 4129 
Q 1250 4750 2034 4750 
z
" transform="scale(0.015625)"/>
       </defs>
       <use xlink:href="#DejaVuSans-2212"/>
       <use xlink:href="#DejaVuSans-31" transform="translate(83.789062 0)"/>
       <use xlink:href="#DejaVuSans-30" transform="translate(147.412109 0)"/>
      </g>
     </g>
    </g>
    <g id="xtick_3">
     <g id="line2d_3">
      <g>
       <use xlink:href="#me864028cd3" x="234.334228" y="530.438125" style="stroke: #000000; stroke-width: 0.8"/>
      </g>
     </g>
     <g id="text_3">
      <!-- −5 -->
      <g transform="translate(226.963134 545.036562) scale(0.1 -0.1)">
       <use xlink:href="#DejaVuSans-2212"/>
       <use xlink:href="#DejaVuSans-35" transform="translate(83.789062 0)"/>
      </g>
     </g>
    </g>
    <g id="xtick_4">
     <g id="line2d_4">
      <g>
       <use xlink:href="#me864028cd3" x="305.018994" y="530.438125" style="stroke: #000000; stroke-width: 0.8"/>
      </g>
     </g>
     <g id="text_4">
      <!-- 0 -->
      <g transform="translate(301.837744 545.036562) scale(0.1 -0.1)">
       <use xlink:href="#DejaVuSans-30"/>
      </g>
     </g>
    </g>
    <g id="xtick_5">
     <g id="line2d_5">
      <g>
       <use xlink:href="#me864028cd3" x="375.70376" y="530.438125" style="stroke: #000000; stroke-width: 0.8"/>
      </g>
     </g>
     <g id="text_5">
      <!-- 5 -->
      <g transform="translate(372.52251 545.036562) scale(0.1 -0.1)">
       <use xlink:href="#DejaVuSans-35"/>
      </g>
     </g>
    </g>
    <g id="xtick_6">
     <g id="line2d_6">
      <g>
       <use xlink:href="#me864028cd3" x="446.388527" y="530.438125" style="stroke: #000000; stroke-width: 0.8"/>
      </g>
     </g>
     <g id="text_6">
      <!-- 10 -->
      <g transform="translate(440.026027 545.036562) scale(0.1 -0.1)">
       <use xlink:href="#DejaVuSans-31"/>
       <use xlink:href="#DejaVuSans-30" transform="translate(63.623047 0)"/>
      </g>
     </g>
    </g>
    <g id="xtick_7">
     <g id="line2d_7">
      <g>
       <use xlink:href="#me864028cd3" x="517.073293" y="530.438125" style="stroke: #000000; stroke-width: 0.8"/>
      </g>
     </g>
     <g id="text_7">
      <!-- 15 -->
      <g transform="translate(510.710793 545.036562) scale(0.1 -0.1)">
       <use xlink:href="#DejaVuSans-31"/>
       <use xlink:href="#DejaVuSans-35" transform="translate(63.623047 0)"/>
      </g>
     </g>
    </g>
    <g id="text_8">
     <!-- x0 -->
     <g transform="translate(298.957187 558.714687) scale(0.1 -0.1)">
      <defs>
       <path id="DejaVuSans-78" d="M 3513 3500 
L 2247 1797 
L 3578 0 
L 2900 0 
L 1881 1375 
L 863 0 
L 184 0 
L 1544 1831 
L 300 3500 
L 978 3500 
L 1906 2253 
L 2834 3500 
L 3513 3500 
z
" transform="scale(0.015625)"/>
      </defs>
      <use xlink:href="#DejaVuSans-78"/>
      <use xlink:href="#DejaVuSans-30" transform="translate(59.179688 0)"/>
     </g>
    </g>
   </g>
   <g id="matplotlib.axis_2">
    <g id="ytick_1">
     <g id="line2d_8">
      <defs>
       <path id="md6ca598170" d="M 0 0 
L -3.5 0 
" style="stroke: #000000; stroke-width: 0.8"/>
      </defs>
      <g>
       <use xlink:href="#md6ca598170" x="48.982813" y="491.884388" style="stroke: #000000; stroke-width: 0.8"/>
      </g>
     </g>
     <g id="text_9">
      <!-- −20 -->
      <g transform="translate(20.878125 495.683607) scale(0.1 -0.1)">
       <defs>
        <path id="DejaVuSans-32" d="M 1228 531 
L 3431 531 
L 3431 0 
L 469 0 
L 469 531 
Q 828 903 1448 1529 
Q 2069 2156 2228 2338 
Q 2531 2678 2651 2914 
Q 2772 3150 2772 3378 
Q 2772 3750 2511 3984 
Q 2250 4219 1831 4219 
Q 1534 4219 1204 4116 
Q 875 4013 500 3803 
L 500 4441 
Q 881 4594 1212 4672 
Q 1544 4750 1819 4750 
Q 2544 4750 2975 4387 
Q 3406 4025 3406 3419 
Q 3406 3131 3298 2873 
Q 3191 2616 2906 2266 
Q 2828 2175 2409 1742 
Q 1991 1309 1228 531 
z
" transform="scale(0.015625)"/>
       </defs>
       <use xlink:href="#DejaVuSans-2212"/>
       <use xlink:href="#DejaVuSans-32" transform="translate(83.789062 0)"/>
       <use xlink:href="#DejaVuSans-30" transform="translate(147.412109 0)"/>
      </g>
     </g>
    </g>
    <g id="ytick_2">
     <g id="line2d_9">
      <g>
       <use xlink:href="#md6ca598170" x="48.982813" y="383.678397" style="stroke: #000000; stroke-width: 0.8"/>
      </g>
     </g>
     <g id="text_10">
      <!-- −10 -->
      <g transform="translate(20.878125 387.477616) scale(0.1 -0.1)">
       <use xlink:href="#DejaVuSans-2212"/>
       <use xlink:href="#DejaVuSans-31" transform="translate(83.789062 0)"/>
       <use xlink:href="#DejaVuSans-30" transform="translate(147.412109 0)"/>
      </g>
     </g>
    </g>
    <g id="ytick_3">
     <g id="line2d_10">
      <g>
       <use xlink:href="#md6ca598170" x="48.982813" y="275.472406" style="stroke: #000000; stroke-width: 0.8"/>
      </g>
     </g>
     <g id="text_11">
      <!-- 0 -->
      <g transform="translate(35.620312 279.271625) scale(0.1 -0.1)">
       <use xlink:href="#DejaVuSans-30"/>
      </g>
     </g>
    </g>
    <g id="ytick_4">
     <g id="line2d_11">
      <g>
       <use xlink:href="#md6ca598170" x="48.982813" y="167.266415" style="stroke: #000000; stroke-width: 0.8"/>
      </g>
     </g>
     <g id="text_12">
      <!-- 10 -->
      <g transform="translate(29.257812 171.065634) scale(0.1 -0.1)">
       <use xlink:href="#DejaVuSans-31"/>
       <use xlink:href="#DejaVuSans-30" transform="translate(63.623047 0)"/>
      </g>
     </g>
    </g>
    <g id="ytick_5">
     <g id="line2d_12">
      <g>
       <use xlink:href="#md6ca598170" x="48.982813" y="59.060424" style="stroke: #000000; stroke-width: 0.8"/>
      </g>
     </g>
     <g id="text_13">
      <!-- 20 -->
      <g transform="translate(29.257812 62.859643) scale(0.1 -0.1)">
       <use xlink:href="#DejaVuSans-32"/>
       <use xlink:href="#DejaVuSans-30" transform="translate(63.623047 0)"/>
      </g>
     </g>
    </g>
    <g id="text_14">
     <!-- x1 -->
     <g transform="translate(14.798438 282.51875) rotate(-90) scale(0.1 -0.1)">
      <use xlink:href="#DejaVuSans-78"/>
      <use xlink:href="#DejaVuSans-31" transform="translate(59.179688 0)"/>
     </g>
    </g>
   </g>
   <g id="line2d_13">
    <path d="M 446.388527 167.266415 
L 446.856005 159.874134 
L 448.172502 152.938938 
L 450.199409 146.577907 
L 452.785186 140.939333 
L 455.765784 136.192852 
L 458.990152 132.345888 
L 462.340604 129.303786 
L 465.705365 127.045022 
L 468.976065 125.624249 
L 472.047741 125.172298 
L 474.825826 125.957328 
L 477.17379 128.046917 
L 478.94627 131.191382 
L 480.064013 135.191895 
L 480.51488 139.90655 
L 480.330997 145.278724 
L 479.456827 151.391838 
L 477.856062 158.209402 
L 475.517262 165.63016 
L 472.447857 173.500273 
L 468.672248 181.609201 
L 464.227576 189.681444 
L 459.210353 197.537334 
L 453.724747 205.044631 
L 447.870345 212.096456 
L 441.742148 218.611292 
L 435.430573 224.532986 
L 429.021451 229.830744 
L 422.596031 234.499137 
L 416.230974 238.558095 
L 410.010067 241.970412 
L 404.009762 244.692204 
L 398.278456 246.800604 
L 392.857141 248.366071 
L 387.779556 249.451464 
L 383.072186 250.112043 
L 378.754258 250.395469 
L 374.837746 250.341802 
L 371.327365 249.983504 
L 368.212229 249.347701 
L 365.481188 248.467698 
L 363.131986 247.375795 
L 361.158611 246.099112 
L 359.551293 244.659594 
L 358.296498 243.074006 
L 357.376934 241.353937 
L 356.771547 239.505796 
L 356.455522 237.530818 
L 356.406589 235.418829 
L 356.626547 233.145494 
L 357.118523 230.698185 
L 357.88448 228.064442 
L 358.925514 225.231372 
L 360.241853 222.185649 
L 361.83286 218.913506 
L 363.69703 215.400746 
L 365.831991 211.632733 
L 368.245728 207.602475 
L 373.983498 198.742783 
L 380.909529 188.678408 
L 389.058649 177.299234 
L 398.549808 164.56726 
L 403.858825 157.70182 
L 409.534778 150.58518 
L 415.548156 143.382678 
L 421.900138 136.215504 
L 428.561724 129.193312 
L 435.473692 122.414265 
L 442.546597 115.965035 
L 449.68443 109.951921 
L 456.826916 104.80419 
L 463.857328 101.021745 
L 470.611807 98.923609 
L 476.880498 98.645311 
L 482.427933 100.098155 
L 487.142441 103.161945 
L 490.952192 107.904669 
L 493.742544 114.380503 
L 495.355451 122.623928 
L 495.631682 132.499044 
L 494.57204 143.423962 
L 492.220975 154.958126 
L 488.650726 166.705312 
L 483.962957 178.303969 
L 478.289478 189.486864 
L 471.791504 200.147839 
L 464.633312 210.12269 
L 456.971088 219.291319 
L 448.952829 227.583715 
L 440.717896 234.972094 
L 432.401675 241.352454 
L 424.150618 246.694219 
L 416.0915 251.035476 
L 408.325865 254.451334 
L 400.930027 257.053924 
L 393.955065 258.9924 
L 387.438598 260.367141 
L 381.407736 261.211619 
L 375.8728 261.604812 
L 370.83783 261.616896 
L 366.300591 261.309221 
L 362.252566 260.734303 
L 358.678968 259.935828 
L 355.558035 258.950491 
L 352.865932 257.810718 
L 350.580322 256.541552 
L 348.678993 255.160736 
L 347.139851 253.678707 
L 345.940921 252.098602 
L 345.06035 250.416256 
L 344.475913 248.620272 
L 344.168574 246.700632 
L 344.133821 244.656398 
L 344.367922 242.484967 
L 344.865912 240.180999 
L 345.621585 237.736421 
L 346.627499 235.140423 
L 347.874973 232.379461 
L 349.35409 229.437254 
L 353.000677 222.950242 
L 357.627261 215.58704 
L 363.285999 207.251494 
L 370.028615 197.853316 
L 377.912277 187.315508 
L 387.019229 175.554344 
L 397.411125 162.438928 
L 409.180468 147.994323 
L 415.589694 140.384762 
L 422.321502 132.78225 
L 429.365597 125.423336 
L 436.662339 118.540167 
L 444.102374 112.360759 
L 451.52731 107.109193 
L 458.815968 102.979116 
L 465.839306 99.971593 
L 472.489877 97.986419 
L 478.699122 97.263294 
L 484.283662 98.413813 
L 489.074978 101.328667 
L 492.955025 105.837433 
L 495.781019 112.191704 
L 497.431812 120.236033 
L 497.845204 129.515617 
L 497.015659 139.505653 
L 494.966561 150.294401 
L 491.742504 161.532879 
L 487.417496 172.875422 
L 482.090659 184.050187 
L 475.894334 194.840893 
L 468.988682 205.040572 
L 461.527276 214.497812 
L 453.656023 223.118758 
L 445.513161 230.867115 
L 437.228594 237.739147 
L 428.932964 243.610036 
L 420.763657 248.467929 
L 412.836219 252.361278 
L 405.241706 255.37415 
L 398.046686 257.626236 
L 391.293307 259.272284 
L 385.012679 260.39034 
L 379.223711 261.01746 
L 373.932217 261.229605 
L 369.138405 261.092635 
L 364.836868 260.662314 
L 361.016594 259.984305 
L 357.660702 259.095057 
L 354.745934 258.031457 
L 352.24969 256.823767 
L 350.149925 255.493942 
L 348.424687 254.056546 
L 347.052119 252.518757 
L 346.010461 250.880362 
L 345.278045 249.133759 
L 344.832312 247.26546 
L 344.661719 245.270302 
L 344.763506 243.147031 
L 345.133679 240.891741 
L 345.766939 238.497843 
L 346.656681 235.95607 
L 347.794992 233.25447 
L 349.172656 230.378412 
L 350.77926 227.310639 
L 354.702234 220.553719 
L 359.626282 212.894039 
L 365.601127 204.237442 
L 372.678835 194.494798 
L 380.923622 183.59371 
L 390.41681 171.415727 
L 401.222788 157.866254 
L 413.433221 143.076757 
L 420.098331 135.403007 
L 427.077599 127.886558 
L 434.28459 120.803047 
L 441.627447 114.378342 
L 449.008891 108.788537 
L 456.326224 104.159953 
L 463.47022 100.568327 
L 470.247309 98.06169 
L 476.577791 96.986184 
L 482.396413 97.703112 
L 487.547234 100.45896 
L 491.783631 105.385398 
L 494.782004 112.496364 
L 496.436053 121.533139 
L 496.717264 131.974549 
L 495.605585 143.34551 
L 493.137354 155.242145 
L 489.405301 167.331785 
L 484.526133 179.310936 
L 478.639791 190.904492 
L 471.914259 201.906862 
L 464.514253 212.15304 
L 456.601216 221.518602 
L 448.333323 229.919705 
L 439.864594 237.309706 
L 431.341345 243.64041 
L 422.911081 248.910027 
L 414.699879 253.161888 
L 406.808274 256.476661 
L 399.311263 258.972355 
L 392.258301 260.804319 
L 385.683403 262.080383 
L 379.6108 262.835064 
L 374.048955 263.150633 
L 368.999583 263.09898 
L 364.457657 262.741491 
L 360.411413 262.12905 
L 356.842158 261.302747 
L 353.726018 260.300472 
L 351.040023 259.154399 
L 348.761151 257.888828 
L 346.866107 256.520339 
L 345.331321 255.057789 
L 344.132948 253.502319 
L 343.246866 251.847344 
L 342.649125 250.081942 
L 342.3293 248.204376 
L 342.281869 246.213737 
L 342.500192 244.106203 
L 342.976512 241.875038 
L 343.701957 239.510592 
L 344.666535 237.000301 
L 345.859138 234.328688 
L 347.270304 231.479075 
L 350.782204 225.202848 
L 355.254207 218.059168 
L 360.734339 209.937254 
L 367.275466 200.73875 
L 374.951229 190.4115 
L 383.824907 178.880751 
L 393.967789 166.04832 
L 405.456575 151.870869 
L 411.686112 144.370012 
L 418.283387 136.702603 
L 425.255001 128.98507 
L 432.566298 121.367321 
L 440.141362 114.032748 
L 447.863016 107.198223 
L 455.608811 101.154605 
L 463.293286 96.289792 
L 470.751049 92.75591 
L 477.857072 90.505989 
L 484.495051 89.925385 
L 490.418906 91.502312 
L 495.427781 95.146348 
L 499.415419 100.558837 
L 502.223187 108.199091 
L 503.64933 117.916489 
L 503.624805 129.123227 
L 502.158434 141.290409 
L 499.267295 154.173612 
L 495.018655 167.427382 
L 489.519892 180.678843 
L 482.909531 193.515199 
L 475.370523 205.600847 
L 467.112846 216.736001 
L 458.334055 226.780668 
L 449.218872 235.653747 
L 439.939185 243.33303 
L 430.654613 249.847671 
L 421.513696 255.227995 
L 412.643345 259.536071 
L 404.146872 262.859582 
L 396.104229 265.308502 
L 388.572015 267.015098 
L 381.583756 268.131423 
L 375.157108 268.750982 
L 369.292928 268.945103 
L 363.983641 268.790576 
L 359.216479 268.353368 
L 354.973477 267.688632 
L 351.231474 266.840706 
L 347.960493 265.848713 
L 345.13044 264.744036 
L 342.7141 263.547191 
L 340.684438 262.272912 
L 339.014597 260.930146 
L 337.677897 259.522057 
L 336.64784 258.046023 
L 335.897105 256.494304 
L 335.405924 254.864113 
L 335.166958 253.156283 
L 335.172606 251.368058 
L 335.414477 249.492926 
L 335.883386 247.520619 
L 336.569359 245.43711 
L 337.461629 243.224619 
L 339.822633 238.325402 
L 342.984244 232.67313 
L 347.026848 226.106276 
L 352.035796 218.42897 
L 361.592685 204.337582 
L 369.556725 192.92984 
L 378.996688 179.854948 
L 390.017357 165.240173 
L 396.137162 157.443977 
L 402.665783 149.358518 
L 409.595043 140.966779 
L 416.920805 132.290244 
L 424.643526 123.391612 
L 432.761179 114.559775 
L 441.180266 106.146773 
L 449.783035 98.341572 
L 458.472615 91.335441 
L 467.165784 85.374615 
L 475.688208 80.927603 
L 483.841063 78.037013 
L 491.483223 76.979083 
L 498.36028 78.453529 
L 504.248334 82.185466 
L 508.959582 88.516357 
L 512.252825 97.577141 
L 513.963671 108.732682 
L 513.999588 121.736787 
L 512.312284 136.421576 
L 508.876722 152.440901 
L 503.698866 169.259255 
L 496.898751 186.188152 
L 488.676662 202.623732 
L 479.2596 218.062284 
L 468.90055 232.098332 
L 457.878474 244.424637 
L 446.490817 254.896759 
L 434.99586 263.652437 
L 423.607201 270.808956 
L 412.505201 276.498776 
L 401.836932 280.874837 
L 391.716397 284.110512 
L 382.232143 286.391523 
L 373.420914 287.893407 
L 365.294682 288.77273 
L 357.855411 289.165878 
L 351.095051 289.189058 
L 344.995542 288.938297 
L 339.528815 288.489443 
L 334.64969 287.904613 
L 330.310069 287.238963 
L 323.08853 285.830122 
L 315.256721 283.921838 
L 307.504551 281.911313 
L 305.5744 281.576543 
L 304.037482 281.493798 
L 302.774195 281.656197 
L 301.67215 282.052498 
L 300.645392 282.682876 
L 299.627448 283.561134 
L 297.974411 285.387854 
L 296.009677 287.941624 
L 291.481778 294.357315 
L 284.384873 304.90383 
L 249.300055 357.434054 
L 238.033893 373.706021 
L 224.602898 392.644947 
L 217.013195 403.058387 
L 208.823903 414.003622 
L 200.032738 425.365269 
L 190.645661 436.994151 
L 180.680483 448.671704 
L 170.213095 460.131204 
L 159.354624 471.147223 
L 148.2208 481.463924 
L 136.931722 490.793659 
L 125.632084 498.783178 
L 114.600767 504.605005 
L 104.071364 507.341761 
L 94.353338 506.349838 
L 85.860629 501.253343 
L 79.11091 491.942815 
L 74.518476 478.485511 
L 72.265994 461.500978 
L 72.501915 441.732692 
L 75.30757 419.796247 
L 80.697178 396.179359 
L 88.608251 371.665564 
L 98.77343 348.07267 
L 110.791163 326.234378 
L 124.243221 306.685058 
L 138.69709 289.72758 
L 153.714201 275.443557 
L 168.91171 263.77631 
L 183.954327 254.55879 
L 198.566279 247.549159 
L 212.534574 242.435415 
L 225.709001 238.835399 
L 237.995337 236.399686 
L 249.350907 234.913891 
L 259.767283 234.144967 
L 269.255207 233.8933 
L 277.844549 233.992992 
L 285.584489 234.311628 
L 298.790491 235.209623 
L 309.381153 236.025721 
L 313.855588 236.280112 
L 317.872953 236.382912 
L 321.503977 236.307518 
L 324.821153 236.035507 
L 327.878262 235.553263 
L 330.718551 234.8468 
L 333.3874 233.904699 
L 335.929822 232.71857 
L 338.390467 231.283052 
L 340.813624 229.595813 
L 340.813624 229.595813 
" clip-path="url(#p6eed6b5a55)" style="fill: none; stroke: #000000; stroke-opacity: 0.3; stroke-width: 7; stroke-linecap: square"/>
   </g>
   <g id="line2d_14">
    <path d="M 446.388527 167.266415 
L 446.388527 167.266415 
" clip-path="url(#p6eed6b5a55)" style="fill: none; stroke-dasharray: 22.4,5.6,3.5,5.6; stroke-dashoffset: 0; stroke: #0000ff; stroke-opacity: 0.8; stroke-width: 3.5"/>
   </g>
   <g id="patch_3">
    <path d="M 48.982813 530.438125 
L 48.982813 22.318125 
" style="fill: none; stroke: #000000; stroke-width: 0.8; stroke-linejoin: miter; stroke-linecap: square"/>
   </g>
   <g id="patch_4">
    <path d="M 561.212812 530.438125 
L 561.212812 22.318125 
" style="fill: none; stroke: #000000; stroke-width: 0.8; stroke-linejoin: miter; stroke-linecap: square"/>
   </g>
   <g id="patch_5">
    <path d="M 48.982813 530.438125 
L 561.212812 530.438125 
" style="fill: none; stroke: #000000; stroke-width: 0.8; stroke-linejoin: miter; stroke-linecap: square"/>
   </g>
   <g id="patch_6">
    <path d="M 48.982813 22.318125 
L 561.212812 22.318125 
" style="fill: none; stroke: #000000; stroke-width: 0.8; stroke-linejoin: miter; stroke-linecap: square"/>
   </g>
   <g id="line2d_15">
    <path d="M 446.388527 167.266415 
L 446.849194 160.046569 
L 448.127197 153.374837 
L 450.078169 147.276121 
L 452.563285 141.787909 
L 455.448636 136.955782 
L 458.605697 132.831198 
L 461.9183 129.520528 
L 465.271907 127.119629 
L 468.552152 125.704337 
L 471.644838 125.33047 
L 474.435945 126.033827 
L 476.811624 127.830187 
L 478.658275 130.715633 
L 479.896091 134.745227 
L 480.467965 139.807688 
L 480.319401 145.684652 
L 479.418427 152.18029 
L 477.755596 159.121301 
L 475.343989 166.356919 
L 472.219211 173.75891 
L 468.439393 181.221569 
L 464.085193 188.661727 
L 459.259714 196.018553 
L 454.020639 203.089336 
L 448.429885 209.659746 
L 442.595155 215.654947 
L 436.616206 221.022034 
L 430.584846 225.730036 
L 424.584935 229.769915 
L 418.692386 233.154565 
L 412.975165 235.918814 
L 407.49357 238.117602 
L 402.297979 239.793514 
L 397.419189 240.987014 
L 392.880525 241.741674 
L 388.700136 242.100179 
L 384.890991 242.104327 
L 381.460879 241.795029 
L 378.412414 241.212306 
L 375.743029 240.395295 
L 373.442357 239.373755 
L 371.493519 238.147132 
L 369.890614 236.728493 
L 368.627527 235.129806 
L 367.697027 233.359959 
L 367.090767 231.424769 
L 366.799289 229.326976 
L 366.812018 227.066247 
L 367.117265 224.63917 
L 367.702225 222.039263 
L 368.553524 219.258378 
L 369.667747 216.296499 
L 371.049996 213.148023 
L 372.704256 209.806773 
L 374.633107 206.267945 
L 376.83773 202.528103 
L 379.317899 198.585186 
L 382.071989 194.438498 
L 388.388411 185.537897 
L 395.745786 175.848557 
L 399.792275 170.746762 
L 404.083707 165.515804 
L 408.623358 160.185899 
L 413.405163 154.799829 
L 418.413717 149.412939 
L 423.624274 144.093138 
L 429.002746 138.920897 
L 434.505707 133.989254 
L 440.080386 129.403808 
L 445.664675 125.282724 
L 451.187123 121.756728 
L 456.566939 118.969112 
L 461.735602 117.052312 
L 466.606335 116.11966 
L 471.055621 116.282384 
L 474.972632 117.615686 
L 478.259552 120.158488 
L 480.831575 123.913427 
L 482.616904 128.84686 
L 483.556753 134.888861 
L 483.605345 141.933222 
L 482.723572 149.837264 
L 480.905048 158.366981 
L 478.187315 167.256194 
L 474.624148 176.268042 
L 470.285201 185.195451 
L 465.256013 193.86114 
L 459.638003 202.117616 
L 453.54847 209.847178 
L 447.120599 216.961916 
L 440.480043 223.382728 
L 433.721472 229.041888 
L 426.953026 233.926551 
L 420.271016 238.043489 
L 413.759392 241.4185 
L 407.48974 244.096404 
L 401.521288 246.141047 
L 395.9009 247.6353 
L 390.663302 248.661039 
L 385.82698 249.252462 
L 381.399093 249.460604 
L 377.383177 249.333066 
L 373.779313 248.91227 
L 370.584123 248.235455 
L 367.790778 247.334683 
L 365.388988 246.236831 
L 363.361798 244.960109 
L 361.686174 243.508864 
L 360.354994 241.895691 
L 359.36114 240.130558 
L 358.696093 238.219571 
L 358.349925 236.164966 
L 358.311305 233.965118 
L 358.567494 231.614532 
L 359.104351 229.103852 
L 359.906326 226.419852 
L 360.959757 223.548361 
L 362.272132 220.487059 
L 363.849795 217.226089 
L 365.697117 213.754698 
L 367.817842 210.062853 
L 370.215089 206.141239 
L 375.848478 197.575027 
L 382.609685 187.995899 
L 390.494143 177.402998 
L 399.559279 165.881692 
L 404.551466 159.823459 
L 409.841485 153.625797 
L 415.411722 147.353275 
L 421.235622 141.086739 
L 427.277684 134.923316 
L 433.49347 128.976409 
L 439.829597 123.375702 
L 446.223739 118.267157 
L 452.608271 113.775396 
L 458.893489 110.067773 
L 464.970688 107.36291 
L 470.727384 105.840563 
L 476.04737 105.64128 
L 480.810707 106.866395 
L 484.893736 109.578031 
L 488.169065 113.799096 
L 490.505636 119.513514 
L 491.812576 126.747179 
L 492.037258 135.270461 
L 491.137505 144.718854 
L 489.106588 154.772095 
L 485.973222 165.154166 
L 481.801568 175.633293 
L 476.691231 186.021944 
L 470.777263 196.176834 
L 464.228254 205.994426 
L 457.143503 215.172532 
L 449.646696 223.483223 
L 441.89629 230.851145 
L 434.035437 237.240165 
L 426.19198 242.653372 
L 418.478456 247.133075 
L 410.992094 250.760807 
L 403.815576 253.641205 
L 397.011608 255.829219 
L 390.619868 257.399572 
L 384.670275 258.428351 
L 379.183761 258.988461 
L 374.172279 259.149624 
L 369.638798 258.97838 
L 365.57729 258.53803 
L 361.970127 257.87049 
L 358.79852 257.000611 
L 356.045993 255.95536 
L 353.695134 254.756686 
L 351.727589 253.421526 
L 350.124066 251.961801 
L 348.864332 250.38442 
L 347.927218 248.691278 
L 347.290537 246.879402 
L 346.936225 244.945645 
L 346.858385 242.888147 
L 347.052405 240.702181 
L 347.51335 238.379994 
L 348.235957 235.910807 
L 349.214638 233.280813 
L 350.443477 230.473178 
L 351.916232 227.468039 
L 355.578521 220.781646 
L 360.264769 213.097231 
L 366.061988 204.283838 
L 373.049818 194.235186 
L 381.305052 182.877251 
L 390.858344 170.26156 
L 401.804224 156.464263 
L 407.834477 149.164341 
L 414.228359 141.674372 
L 420.96305 134.087356 
L 428.002225 126.524207 
L 435.296047 119.133759 
L 442.781174 112.092761 
L 450.380755 105.60588 
L 458.004432 99.905701 
L 465.548339 95.252725 
L 472.898385 91.881072 
L 479.892706 89.992643 
L 486.334814 89.855324 
L 492.041364 91.657211 
L 496.842968 95.50255 
L 500.584199 101.411732 
L 503.123591 109.321297 
L 504.333637 119.083931 
L 504.10807 130.49018 
L 502.413408 143.162919 
L 499.274312 156.576192 
L 494.754611 170.265505 
L 488.957262 183.833505 
L 482.024345 196.949979 
L 474.13707 209.351849 
L 465.515769 220.843178 
L 456.388221 231.255669 
L 446.914815 240.402701 
L 437.292196 248.247467 
L 427.696095 254.807294 
L 418.276592 260.146734 
L 409.158107 264.377558 
L 400.439407 267.658761 
L 392.196553 270.131011 
L 384.477242 271.878679 
L 377.309372 273.013027 
L 370.709845 273.636405 
L 364.684569 273.842221 
L 359.22846 273.714932 
L 354.325356 273.329728 
L 349.948068 272.741558 
L 346.06842 271.991591 
L 342.658151 271.115832 
L 339.687853 270.14355 
L 337.126966 269.097274 
L 334.943784 267.992799 
L 333.105175 266.839167 
L 331.577528 265.641201 
L 330.341607 264.404811 
L 329.380915 263.132923 
L 328.678278 261.824656 
L 328.215855 260.475324 
L 327.975131 259.076438 
L 327.93692 257.6157 
L 328.081362 256.07701 
L 328.397678 254.446165 
L 328.890036 252.715608 
L 329.557806 250.873183 
L 331.420055 246.794516 
L 333.991706 242.074749 
L 337.299157 236.554407 
L 341.425331 230.067818 
L 349.388376 218.105078 
L 359.897253 202.843647 
L 368.582099 190.568793 
L 378.86326 176.305033 
L 390.923995 159.957929 
L 397.656697 151.066891 
L 404.866101 141.774178 
L 412.552205 132.163932 
L 420.709911 122.341611 
L 429.328956 112.433915 
L 438.350282 102.574267 
L 447.70324 93.034539 
L 457.315067 84.163304 
L 467.071561 76.320777 
L 476.817076 69.878813 
L 486.354525 65.220905 
L 495.445382 62.742188 
L 503.809676 62.849435 
L 511.167978 65.954264 
L 517.279272 72.227428 
L 521.826114 81.553531 
L 524.564474 93.712393 
L 525.331918 108.38424 
L 524.047611 125.149707 
L 520.712318 143.489836 
L 515.389933 162.753095 
L 508.167954 182.07153 
L 499.286112 200.76857 
L 489.015072 218.312022 
L 477.640469 234.292713 
L 465.462909 248.424487 
L 452.79797 260.544208 
L 439.970258 270.619331 
L 427.237909 278.7937 
L 414.809747 285.243855 
L 402.858641 290.161036 
L 391.516815 293.760337 
L 380.875847 296.280703 
L 370.987548 297.975333 
L 361.873751 298.997206 
L 353.530495 299.48529 
L 345.941159 299.574259 
L 339.078696 299.379941 
L 332.90564 298.999317 
L 322.42617 297.976165 
L 307.484365 296.181228 
L 302.208715 295.846504 
L 299.943552 295.863068 
L 297.881262 296.01149 
L 295.991513 296.297883 
L 294.243159 296.726886 
L 292.60424 297.301663 
L 291.041982 298.023905 
L 289.522995 298.893927 
L 288.024494 299.916453 
L 286.53073 301.099965 
L 283.482856 303.981717 
L 280.221862 307.605699 
L 276.583459 312.048402 
L 272.440482 317.430665 
L 264.978148 327.594394 
L 227.893996 378.963321 
L 215.422271 395.634112 
L 208.473495 404.598798 
L 201.049059 413.885551 
L 193.145208 423.432048 
L 184.780931 433.128555 
L 175.997958 442.817929 
L 166.860761 452.295618 
L 157.456553 461.309659 
L 147.89529 469.560682 
L 138.309672 476.701905 
L 128.855138 482.339138 
L 119.70987 486.030781 
L 111.074513 487.297375 
L 103.230262 485.763548 
L 96.521821 481.227286 
L 91.243206 473.624592 
L 87.631323 463.029348 
L 85.865964 449.653327 
L 86.06981 433.846183 
L 88.316571 416.10634 
L 92.629407 397.187634 
L 98.89142 377.896225 
L 106.926667 358.923914 
L 116.511062 340.846099 
L 127.372373 324.121777 
L 139.190224 309.09354 
L 151.608265 295.993333 
L 164.338447 284.934155 
L 177.103577 275.849132 
L 189.663306 268.593888 
L 201.825622 262.95955 
L 213.446439 258.677505 
L 224.420117 255.550851 
L 234.678557 253.404954 
L 244.180351 252.05447 
L 252.907124 251.328489 
L 260.863524 251.07051 
L 268.074037 251.138032 
L 274.578501 251.428661 
L 280.422608 251.863266 
L 290.322973 252.904317 
L 301.483417 254.216362 
L 307.088321 254.63695 
L 309.473651 254.668805 
L 311.63315 254.568869 
L 313.605619 254.331175 
L 315.429553 253.952678 
L 317.141513 253.431966 
L 318.76751 252.762946 
L 320.330789 251.939035 
L 321.855147 250.953884 
L 323.364849 249.80127 
L 324.884626 248.475093 
L 328.049727 245.274462 
L 331.497385 241.264691 
L 335.366324 236.33351 
L 342.329977 226.943703 
L 351.17627 214.668705 
L 371.690892 186.045186 
L 382.490664 171.410965 
L 395.079603 154.758034 
L 402.088145 145.713059 
L 409.57444 136.278788 
L 417.526454 126.565737 
L 425.921502 116.719006 
L 434.726252 106.918285 
L 443.896718 97.377847 
L 453.371257 88.330775 
L 463.024644 80.061788 
L 472.705309 73.03016 
L 482.235016 67.672933 
L 491.405919 64.386137 
L 499.980563 63.524784 
L 507.69188 65.402874 
L 514.24355 70.294391 
L 519.390403 78.506799 
L 522.877485 89.736395 
L 524.472899 103.419122 
L 524.041609 119.032264 
L 521.545437 136.094442 
L 517.043071 154.165616 
L 510.690057 172.847083 
L 502.691424 191.646658 
L 493.168717 209.583925 
L 482.422693 226.150802 
L 470.76441 241.017311 
L 458.492883 253.974488 
L 445.895082 264.934376 
L 433.245931 273.930029 
L 420.803668 281.11596 
L 408.75942 286.716361 
L 397.249218 290.935281 
L 386.378734 293.974543 
L 376.223119 296.036278 
L 366.827008 297.322928 
L 358.204563 298.0362 
L 350.343568 298.311979 
L 343.215381 298.249409 
L 336.784365 297.950391 
L 331.009723 297.501188 
L 321.24062 296.419096 
L 307.348204 294.654977 
L 302.451957 294.343213 
L 300.356107 294.367388 
L 298.444757 294.517707 
L 296.688683 294.798897 
L 295.058852 295.214767 
L 293.526377 295.768304 
L 292.062527 296.461681 
L 290.639106 297.296494 
L 289.2347 298.277489 
L 287.8325 299.411878 
L 284.963477 302.170881 
L 281.880981 305.636185 
L 278.437389 309.886779 
L 276.540903 312.341707 
L 276.540903 312.341707 
" clip-path="url(#p6eed6b5a55)" style="fill: none; stroke-dasharray: 3.5,5.775; stroke-dashoffset: 0; stroke: #008000; stroke-opacity: 0.8; stroke-width: 3.5"/>
   </g>
   <g id="text_15">
    <!-- Phase Portrait (x0 vs x1) -->
    <g transform="translate(231.406562 16.318125) scale(0.12 -0.12)">
     <defs>
      <path id="DejaVuSans-50" d="M 1259 4147 
L 1259 2394 
L 2053 2394 
Q 2494 2394 2734 2622 
Q 2975 2850 2975 3272 
Q 2975 3691 2734 3919 
Q 2494 4147 2053 4147 
L 1259 4147 
z
M 628 4666 
L 2053 4666 
Q 2838 4666 3239 4311 
Q 3641 3956 3641 3272 
Q 3641 2581 3239 2228 
Q 2838 1875 2053 1875 
L 1259 1875 
L 1259 0 
L 628 0 
L 628 4666 
z
" transform="scale(0.015625)"/>
      <path id="DejaVuSans-68" d="M 3513 2113 
L 3513 0 
L 2938 0 
L 2938 2094 
Q 2938 2591 2744 2837 
Q 2550 3084 2163 3084 
Q 1697 3084 1428 2787 
Q 1159 2491 1159 1978 
L 1159 0 
L 581 0 
L 581 4863 
L 1159 4863 
L 1159 2956 
Q 1366 3272 1645 3428 
Q 1925 3584 2291 3584 
Q 2894 3584 3203 3211 
Q 3513 2838 3513 2113 
z
" transform="scale(0.015625)"/>
      <path id="DejaVuSans-61" d="M 2194 1759 
Q 1497 1759 1228 1600 
Q 959 1441 959 1056 
Q 959 750 1161 570 
Q 1363 391 1709 391 
Q 2188 391 2477 730 
Q 2766 1069 2766 1631 
L 2766 1759 
L 2194 1759 
z
M 3341 1997 
L 3341 0 
L 2766 0 
L 2766 531 
Q 2569 213 2275 61 
Q 1981 -91 1556 -91 
Q 1019 -91 701 211 
Q 384 513 384 1019 
Q 384 1609 779 1909 
Q 1175 2209 1959 2209 
L 2766 2209 
L 2766 2266 
Q 2766 2663 2505 2880 
Q 2244 3097 1772 3097 
Q 1472 3097 1187 3025 
Q 903 2953 641 2809 
L 641 3341 
Q 956 3463 1253 3523 
Q 1550 3584 1831 3584 
Q 2591 3584 2966 3190 
Q 3341 2797 3341 1997 
z
" transform="scale(0.015625)"/>
      <path id="DejaVuSans-73" d="M 2834 3397 
L 2834 2853 
Q 2591 2978 2328 3040 
Q 2066 3103 1784 3103 
Q 1356 3103 1142 2972 
Q 928 2841 928 2578 
Q 928 2378 1081 2264 
Q 1234 2150 1697 2047 
L 1894 2003 
Q 2506 1872 2764 1633 
Q 3022 1394 3022 966 
Q 3022 478 2636 193 
Q 2250 -91 1575 -91 
Q 1294 -91 989 -36 
Q 684 19 347 128 
L 347 722 
Q 666 556 975 473 
Q 1284 391 1588 391 
Q 1994 391 2212 530 
Q 2431 669 2431 922 
Q 2431 1156 2273 1281 
Q 2116 1406 1581 1522 
L 1381 1569 
Q 847 1681 609 1914 
Q 372 2147 372 2553 
Q 372 3047 722 3315 
Q 1072 3584 1716 3584 
Q 2034 3584 2315 3537 
Q 2597 3491 2834 3397 
z
" transform="scale(0.015625)"/>
      <path id="DejaVuSans-65" d="M 3597 1894 
L 3597 1613 
L 953 1613 
Q 991 1019 1311 708 
Q 1631 397 2203 397 
Q 2534 397 2845 478 
Q 3156 559 3463 722 
L 3463 178 
Q 3153 47 2828 -22 
Q 2503 -91 2169 -91 
Q 1331 -91 842 396 
Q 353 884 353 1716 
Q 353 2575 817 3079 
Q 1281 3584 2069 3584 
Q 2775 3584 3186 3129 
Q 3597 2675 3597 1894 
z
M 3022 2063 
Q 3016 2534 2758 2815 
Q 2500 3097 2075 3097 
Q 1594 3097 1305 2825 
Q 1016 2553 972 2059 
L 3022 2063 
z
" transform="scale(0.015625)"/>
      <path id="DejaVuSans-20" transform="scale(0.015625)"/>
      <path id="DejaVuSans-6f" d="M 1959 3097 
Q 1497 3097 1228 2736 
Q 959 2375 959 1747 
Q 959 1119 1226 758 
Q 1494 397 1959 397 
Q 2419 397 2687 759 
Q 2956 1122 2956 1747 
Q 2956 2369 2687 2733 
Q 2419 3097 1959 3097 
z
M 1959 3584 
Q 2709 3584 3137 3096 
Q 3566 2609 3566 1747 
Q 3566 888 3137 398 
Q 2709 -91 1959 -91 
Q 1206 -91 779 398 
Q 353 888 353 1747 
Q 353 2609 779 3096 
Q 1206 3584 1959 3584 
z
" transform="scale(0.015625)"/>
      <path id="DejaVuSans-72" d="M 2631 2963 
Q 2534 3019 2420 3045 
Q 2306 3072 2169 3072 
Q 1681 3072 1420 2755 
Q 1159 2438 1159 1844 
L 1159 0 
L 581 0 
L 581 3500 
L 1159 3500 
L 1159 2956 
Q 1341 3275 1631 3429 
Q 1922 3584 2338 3584 
Q 2397 3584 2469 3576 
Q 2541 3569 2628 3553 
L 2631 2963 
z
" transform="scale(0.015625)"/>
      <path id="DejaVuSans-74" d="M 1172 4494 
L 1172 3500 
L 2356 3500 
L 2356 3053 
L 1172 3053 
L 1172 1153 
Q 1172 725 1289 603 
Q 1406 481 1766 481 
L 2356 481 
L 2356 0 
L 1766 0 
Q 1100 0 847 248 
Q 594 497 594 1153 
L 594 3053 
L 172 3053 
L 172 3500 
L 594 3500 
L 594 4494 
L 1172 4494 
z
" transform="scale(0.015625)"/>
      <path id="DejaVuSans-69" d="M 603 3500 
L 1178 3500 
L 1178 0 
L 603 0 
L 603 3500 
z
M 603 4863 
L 1178 4863 
L 1178 4134 
L 603 4134 
L 603 4863 
z
" transform="scale(0.015625)"/>
      <path id="DejaVuSans-28" d="M 1984 4856 
Q 1566 4138 1362 3434 
Q 1159 2731 1159 2009 
Q 1159 1288 1364 580 
Q 1569 -128 1984 -844 
L 1484 -844 
Q 1016 -109 783 600 
Q 550 1309 550 2009 
Q 550 2706 781 3412 
Q 1013 4119 1484 4856 
L 1984 4856 
z
" transform="scale(0.015625)"/>
      <path id="DejaVuSans-76" d="M 191 3500 
L 800 3500 
L 1894 563 
L 2988 3500 
L 3597 3500 
L 2284 0 
L 1503 0 
L 191 3500 
z
" transform="scale(0.015625)"/>
      <path id="DejaVuSans-29" d="M 513 4856 
L 1013 4856 
Q 1481 4119 1714 3412 
Q 1947 2706 1947 2009 
Q 1947 1309 1714 600 
Q 1481 -109 1013 -844 
L 513 -844 
Q 928 -128 1133 580 
Q 1338 1288 1338 2009 
Q 1338 2731 1133 3434 
Q 928 4138 513 4856 
z
" transform="scale(0.015625)"/>
     </defs>
     <use xlink:href="#DejaVuSans-50"/>
     <use xlink:href="#DejaVuSans-68" transform="translate(60.302734 0)"/>
     <use xlink:href="#DejaVuSans-61" transform="translate(123.681641 0)"/>
     <use xlink:href="#DejaVuSans-73" transform="translate(184.960938 0)"/>
     <use xlink:href="#DejaVuSans-65" transform="translate(237.060547 0)"/>
     <use xlink:href="#DejaVuSans-20" transform="translate(298.583984 0)"/>
     <use xlink:href="#DejaVuSans-50" transform="translate(330.371094 0)"/>
     <use xlink:href="#DejaVuSans-6f" transform="translate(387.048828 0)"/>
     <use xlink:href="#DejaVuSans-72" transform="translate(448.230469 0)"/>
     <use xlink:href="#DejaVuSans-74" transform="translate(489.34375 0)"/>
     <use xlink:href="#DejaVuSans-72" transform="translate(528.552734 0)"/>
     <use xlink:href="#DejaVuSans-61" transform="translate(569.666016 0)"/>
     <use xlink:href="#DejaVuSans-69" transform="translate(630.945312 0)"/>
     <use xlink:href="#DejaVuSans-74" transform="translate(658.728516 0)"/>
     <use xlink:href="#DejaVuSans-20" transform="translate(697.9375 0)"/>
     <use xlink:href="#DejaVuSans-28" transform="translate(729.724609 0)"/>
     <use xlink:href="#DejaVuSans-78" transform="translate(768.738281 0)"/>
     <use xlink:href="#DejaVuSans-30" transform="translate(827.917969 0)"/>
     <use xlink:href="#DejaVuSans-20" transform="translate(891.541016 0)"/>
     <use xlink:href="#DejaVuSans-76" transform="translate(923.328125 0)"/>
     <use xlink:href="#DejaVuSans-73" transform="translate(982.507812 0)"/>
     <use xlink:href="#DejaVuSans-20" transform="translate(1034.607422 0)"/>
     <use xlink:href="#DejaVuSans-78" transform="translate(1066.394531 0)"/>
     <use xlink:href="#DejaVuSans-31" transform="translate(1125.574219 0)"/>
     <use xlink:href="#DejaVuSans-29" transform="translate(1189.197266 0)"/>
    </g>
   </g>
   <g id="line2d_16">
    <path d="M 446.388527 167.266415 
L 446.848633 160.063255 
L 448.121869 153.441498 
L 450.060228 147.422522 
L 452.522567 142.035751 
L 455.372778 137.312412 
L 458.47846 133.289369 
L 461.729694 130.078307 
L 465.017495 127.779854 
L 468.230751 126.472154 
L 471.256226 126.210867 
L 473.97856 127.029167 
L 476.28027 128.937743 
L 478.041748 131.924801 
L 479.182792 135.979756 
L 479.66074 141.003378 
L 479.424408 146.836117 
L 478.443455 153.324442 
L 476.708397 160.320843 
L 474.230597 167.683829 
L 471.042271 175.27793 
L 467.196484 182.9737 
L 462.767155 190.64771 
L 457.835494 198.153792 
L 452.459639 205.266578 
L 446.745204 211.87612 
L 440.796357 217.906268 
L 434.710326 223.303486 
L 428.577389 228.036856 
L 422.480886 232.098073 
L 416.497208 235.501447 
L 410.695805 238.283898 
L 405.138727 240.487223 
L 399.871397 242.148781 
L 394.927934 243.315024 
L 390.335225 244.033363 
L 386.112929 244.352174 
L 382.273472 244.320792 
L 378.822051 243.989514 
L 375.756632 243.409596 
L 373.06712 242.627007 
L 370.73637 241.632172 
L 368.758811 240.432373 
L 367.129584 239.041459 
L 365.842267 237.470687 
L 364.888873 235.728718 
L 364.259852 233.821624 
L 363.944091 231.752882 
L 363.92891 229.523378 
L 364.200068 227.131403 
L 364.741988 224.572912 
L 365.548177 221.847374 
L 366.621227 218.949762 
L 367.962703 215.872642 
L 369.573575 212.608916 
L 371.454212 209.151814 
L 373.604388 205.494902 
L 376.023279 201.632074 
L 381.660922 193.265921 
L 388.348091 184.011911 
L 396.058984 173.914693 
L 400.318968 168.597825 
L 404.853006 163.144671 
L 409.652785 157.602117 
L 414.700718 152.029027 
L 419.96995 146.496244 
L 425.424356 141.086587 
L 431.018539 135.894853 
L 436.697834 131.027818 
L 442.399576 126.594933 
L 448.067421 122.63779 
L 453.627172 119.342499 
L 458.996204 116.902883 
L 464.088896 115.471841 
L 468.816631 115.161347 
L 473.087793 116.04245 
L 476.807772 118.145276 
L 479.87896 121.459027 
L 482.200755 125.931978 
L 483.669555 131.471481 
L 484.188851 137.977017 
L 483.770367 145.502934 
L 482.427131 153.77436 
L 480.176175 162.483398 
L 477.0539 171.369078 
L 473.11607 180.21736 
L 468.437821 188.861132 
L 463.113654 197.180209 
L 457.257438 205.101335 
L 451.00241 212.598185 
L 444.486322 219.649903 
L 437.765752 226.012544 
L 430.943442 231.611942 
L 424.125031 236.435102 
L 417.404536 240.489724 
L 410.864351 243.804197 
L 404.575247 246.427604 
L 398.596369 248.429722 
L 392.975237 249.89263 
L 387.742086 250.864817 
L 382.911483 251.404309 
L 378.492688 251.567457 
L 374.490206 251.405168 
L 370.90379 250.962901 
L 367.728437 250.28067 
L 364.954392 249.393045 
L 362.564528 248.322742 
L 360.537158 247.069182 
L 358.86476 245.647522 
L 357.539176 244.07125 
L 356.550409 242.350096 
L 355.886621 240.490034 
L 355.534135 238.493284 
L 355.477431 236.358308 
L 355.699152 234.079816 
L 356.180326 231.648875 
L 356.915199 229.058861 
L 357.907849 226.301399 
L 359.159754 223.364966 
L 360.672448 220.237194 
L 362.447523 216.90487 
L 364.486633 213.353934 
L 369.363864 205.535755 
L 375.318865 196.660148 
L 382.406874 186.690192 
L 390.727906 175.560614 
L 400.319884 163.363878 
L 405.584106 156.95374 
L 411.146773 150.41012 
L 416.991826 143.805797 
L 423.098581 137.227155 
L 429.441888 130.771096 
L 435.981373 124.550602 
L 442.647601 118.746048 
L 449.359114 113.542456 
L 456.024437 109.119568 
L 462.542072 105.651852 
L 468.800499 103.308496 
L 474.678179 102.253412 
L 480.043551 102.645237 
L 484.761459 104.641439 
L 488.701341 108.321394 
L 491.712394 113.611055 
L 493.674684 120.395241 
L 494.503817 128.525666 
L 494.150931 137.820945 
L 492.602702 148.066587 
L 489.881342 159.015 
L 486.044596 170.385491 
L 481.166989 181.83041 
L 475.339581 192.96928 
L 468.722888 203.574344 
L 461.476146 213.464308 
L 453.7541 222.4986 
L 445.70701 230.577374 
L 437.480649 237.641509 
L 429.216302 243.672607 
L 421.05109 248.697197 
L 413.104291 252.811226 
L 405.455263 256.094804 
L 398.168264 258.622251 
L 391.295799 260.471007 
L 384.878623 261.721624 
L 378.945739 262.457775 
L 373.5144 262.766245 
L 368.589549 262.735241 
L 364.157805 262.425255 
L 360.199856 261.876505 
L 356.696452 261.124762 
L 353.627794 260.200241 
L 350.973534 259.127597 
L 348.712774 257.925926 
L 346.824069 256.608766 
L 345.285273 255.18415 
L 344.069654 253.658997 
L 343.159926 252.04058 
L 342.5434 250.331943 
L 342.207367 248.532092 
L 342.139089 246.635996 
L 342.325805 244.634589 
L 342.754726 242.514764 
L 343.413039 240.25938 
L 344.288584 237.847702 
L 345.382519 235.263691 
L 346.702393 232.492788 
L 350.046288 226.324863 
L 354.373301 219.205039 
L 359.737054 210.981636 
L 366.210027 201.522699 
L 373.920362 190.709416 
L 382.969445 178.431676 
L 393.436055 164.73717 
L 399.219676 157.417869 
L 405.377485 149.835734 
L 411.912958 142.042412 
L 418.793484 134.116382 
L 425.9949 126.173754 
L 433.496645 118.354742 
L 441.253733 110.826162 
L 449.196759 103.781431 
L 457.231899 97.440567 
L 465.240905 92.050193 
L 473.081109 87.883528 
L 480.585691 85.24045 
L 487.61915 84.429678 
L 493.979565 85.643002 
L 499.43218 88.985277 
L 503.778491 94.502981 
L 506.856248 102.184213 
L 508.539455 111.958694 
L 508.738369 123.697771 
L 507.388072 137.152128 
L 504.437352 151.658192 
L 499.945545 166.635745 
L 494.020951 181.595228 
L 486.812901 196.113683 
L 478.51176 209.834759 
L 469.348924 222.468707 
L 459.59089 233.794723 
L 449.44888 243.706782 
L 439.132821 252.18337 
L 428.839403 259.251185 
L 418.734757 264.987962 
L 408.954457 269.52247 
L 399.603517 273.034515 
L 390.759807 275.695851 
L 382.477105 277.578183 
L 374.786073 278.804571 
L 367.704279 279.491146 
L 361.236413 279.744598 
L 355.374283 279.662182 
L 350.096787 279.331386 
L 345.372065 278.817059 
L 341.167472 278.162417 
L 337.449992 277.404489 
L 334.1856 276.574344 
L 331.339264 275.697084 
L 328.874946 274.791846 
L 326.755572 273.871837 
L 324.945882 272.946483 
L 323.420519 272.023211 
L 322.156215 271.106018 
L 321.129805 270.195514 
L 320.318226 269.288926 
L 319.698515 268.380093 
L 319.247815 267.459466 
L 318.948828 266.517329 
L 318.795133 265.54834 
L 318.779295 264.545476 
L 318.89424 263.500584 
L 319.490043 261.246496 
L 320.538364 258.700965 
L 322.039708 255.781885 
L 324.017922 252.392437 
L 327.966944 246.150906 
L 335.466447 234.840619 
L 349.848224 213.582144 
L 362.242841 195.651436 
L 378.429513 172.532241 
L 391.695752 153.932139 
L 399.142523 143.755694 
L 407.159256 133.082169 
L 415.764413 122.004657 
L 424.974371 110.638274 
L 434.74924 99.131049 
L 445.017608 87.766287 
L 455.695891 76.901242 
L 466.658835 66.933721 
L 477.739523 58.302089 
L 488.729369 51.485263 
L 499.378121 47.00272 
L 509.393861 45.414489 
L 518.45519 47.306457 
L 526.214462 53.059794 
L 532.256467 62.758108 
L 536.243742 76.272741 
L 537.929631 93.2645 
L 537.158279 113.18366 
L 533.864639 135.269966 
L 528.062971 158.528741 
L 519.903811 181.834625 
L 509.700168 204.303245 
L 497.792439 225.239258 
L 484.542225 244.12893 
L 470.332325 260.640136 
L 455.56674 274.622364 
L 440.642912 286.104142 
L 425.861912 295.257368 
L 411.481538 302.312506 
L 397.707906 307.530752 
L 384.69438 311.20378 
L 372.541576 313.653743 
L 361.297927 315.227324 
L 350.975731 316.117787 
L 341.55616 316.470284 
L 333.005598 316.445393 
L 325.281516 316.17984 
L 312.098076 315.354386 
L 301.48873 314.618808 
L 296.978135 314.401226 
L 292.918077 314.327427 
L 289.248969 314.422969 
L 285.910325 314.707825 
L 282.840756 315.19638 
L 279.979126 315.896966 
L 277.280488 316.812269 
L 274.710754 317.948174 
L 272.235006 319.310886 
L 269.817404 320.906296 
L 267.421189 322.739976 
L 265.008684 324.81718 
L 262.543116 327.143282 
L 260.000879 329.729983 
L 254.602806 335.745934 
L 248.632414 342.968037 
L 238.155556 356.206159 
L 220.491727 378.563966 
L 209.860994 391.679166 
L 204.069895 398.604611 
L 197.956348 405.697032 
L 191.524745 412.88322 
L 184.824238 420.064995 
L 177.884774 427.089065 
L 170.747528 433.788547 
L 163.474076 439.98823 
L 156.146404 445.504575 
L 148.866899 450.145712 
L 141.758354 453.711444 
L 134.963965 455.993246 
L 128.641556 456.762901 
L 122.900665 455.706316 
L 117.928448 452.802772 
L 113.908951 448.125904 
L 110.988918 441.766001 
L 109.27779 433.830007 
L 108.84771 424.441522 
L 109.733517 413.740798 
L 111.932751 401.884745 
L 115.407746 389.055992 
L 120.161055 375.886684 
L 126.086713 362.917157 
L 133.015561 350.443619 
L 140.775006 338.715047 
L 149.189017 327.933191 
L 158.078132 318.252569 
L 167.259448 309.780473 
L 176.546632 302.576963 
L 185.758848 296.602273 
L 194.765117 291.702123 
L 203.463608 287.789989 
L 211.769414 284.774033 
L 219.614615 282.554534 
L 226.948276 281.023882 
L 233.73645 280.06658 
L 239.962962 279.568946 
L 245.63322 279.452613 
L 250.762259 279.644119 
L 255.368219 280.080168 
L 259.472277 280.7086 
L 263.098659 281.488395 
L 266.27463 282.389667 
L 269.03224 283.393516 
L 271.404349 284.482994 
L 273.413146 285.639282 
L 275.081068 286.848589 
L 276.431511 288.102425 
L 277.488827 289.397602 
L 278.278321 290.736237 
L 278.826259 292.125746 
L 279.156608 293.576705 
L 279.276771 295.094623 
L 279.192787 296.688515 
L 278.910751 298.369495 
L 278.436382 300.150412 
L 277.775023 302.045856 
L 275.910823 306.247359 
L 273.326911 311.107985 
L 269.969421 316.751526 
L 265.771899 323.32629 
L 260.647903 331.001108 
L 254.501393 339.917084 
L 243.030272 356.075408 
L 233.611475 369.066144 
L 222.615088 383.861255 
L 216.496183 391.879372 
L 209.953491 400.25569 
L 202.982996 408.932578 
L 195.583455 417.839609 
L 187.757596 426.893603 
L 179.558374 435.977201 
L 171.029909 444.888458 
L 162.22232 453.389247 
L 153.219044 461.217026 
L 144.13683 468.084837 
L 135.125745 473.681308 
L 126.36917 477.670651 
L 118.083802 479.692666 
L 110.464189 479.322303 
L 103.744651 476.2943 
L 98.223165 470.584755 
L 94.139625 462.261229 
L 91.675182 451.482009 
L 90.952256 438.496108 
L 92.034529 423.643267 
L 94.926944 407.353951 
L 99.595527 390.172762 
L 105.973183 372.787235 
L 113.865643 355.783551 
L 123.052195 339.645362 
L 133.293241 324.75923 
L 144.330295 311.414618 
L 155.885988 299.803902 
L 167.664609 290.02132 
L 179.414437 281.977827 
L 190.946745 275.503648 
L 202.096603 270.440572 
L 212.735899 266.608969 
L 222.773341 263.807795 
L 232.151437 261.842702 
L 240.836987 260.589639 
L 248.818763 259.907029 
L 256.099865 259.665883 
L 262.697411 259.752205 
L 268.642741 260.066899 
L 273.978824 260.532106 
L 278.746449 261.096113 
L 286.742807 262.35395 
L 295.55612 264.106834 
L 301.613935 265.295656 
L 304.57452 265.689403 
L 306.949047 265.755134 
L 308.923024 265.493869 
L 310.637162 264.896531 
L 312.225692 263.958503 
L 313.792897 262.664038 
L 314.596803 261.875115 
L 314.596803 261.875115 
" clip-path="url(#p6eed6b5a55)" style="fill: none; stroke-dasharray: 12.95,5.6; stroke-dashoffset: 0; stroke: #ff0000; stroke-opacity: 0.8; stroke-width: 3.5"/>
   </g>
   <g id="legend_1">
    <g id="patch_7">
     <path d="M 55.982813 89.030625 
L 201.332813 89.030625 
Q 203.332813 89.030625 203.332813 87.030625 
L 203.332813 29.318125 
Q 203.332813 27.318125 201.332813 27.318125 
L 55.982813 27.318125 
Q 53.982813 27.318125 53.982813 29.318125 
L 53.982813 87.030625 
Q 53.982813 89.030625 55.982813 89.030625 
z
" style="fill: #ffffff; opacity: 0.8; stroke: #cccccc; stroke-linejoin: miter"/>
    </g>
    <g id="line2d_17">
     <path d="M 57.982813 35.416562 
L 67.982812 35.416562 
L 77.982812 35.416562 
" style="fill: none; stroke: #000000; stroke-opacity: 0.3; stroke-width: 7; stroke-linecap: square"/>
    </g>
    <g id="text_16">
     <!-- True/Underlying model -->
     <g transform="translate(85.982812 38.916562) scale(0.1 -0.1)">
      <defs>
       <path id="DejaVuSans-54" d="M -19 4666 
L 3928 4666 
L 3928 4134 
L 2272 4134 
L 2272 0 
L 1638 0 
L 1638 4134 
L -19 4134 
L -19 4666 
z
" transform="scale(0.015625)"/>
       <path id="DejaVuSans-75" d="M 544 1381 
L 544 3500 
L 1119 3500 
L 1119 1403 
Q 1119 906 1312 657 
Q 1506 409 1894 409 
Q 2359 409 2629 706 
Q 2900 1003 2900 1516 
L 2900 3500 
L 3475 3500 
L 3475 0 
L 2900 0 
L 2900 538 
Q 2691 219 2414 64 
Q 2138 -91 1772 -91 
Q 1169 -91 856 284 
Q 544 659 544 1381 
z
M 1991 3584 
L 1991 3584 
z
" transform="scale(0.015625)"/>
       <path id="DejaVuSans-2f" d="M 1625 4666 
L 2156 4666 
L 531 -594 
L 0 -594 
L 1625 4666 
z
" transform="scale(0.015625)"/>
       <path id="DejaVuSans-55" d="M 556 4666 
L 1191 4666 
L 1191 1831 
Q 1191 1081 1462 751 
Q 1734 422 2344 422 
Q 2950 422 3222 751 
Q 3494 1081 3494 1831 
L 3494 4666 
L 4128 4666 
L 4128 1753 
Q 4128 841 3676 375 
Q 3225 -91 2344 -91 
Q 1459 -91 1007 375 
Q 556 841 556 1753 
L 556 4666 
z
" transform="scale(0.015625)"/>
       <path id="DejaVuSans-6e" d="M 3513 2113 
L 3513 0 
L 2938 0 
L 2938 2094 
Q 2938 2591 2744 2837 
Q 2550 3084 2163 3084 
Q 1697 3084 1428 2787 
Q 1159 2491 1159 1978 
L 1159 0 
L 581 0 
L 581 3500 
L 1159 3500 
L 1159 2956 
Q 1366 3272 1645 3428 
Q 1925 3584 2291 3584 
Q 2894 3584 3203 3211 
Q 3513 2838 3513 2113 
z
" transform="scale(0.015625)"/>
       <path id="DejaVuSans-64" d="M 2906 2969 
L 2906 4863 
L 3481 4863 
L 3481 0 
L 2906 0 
L 2906 525 
Q 2725 213 2448 61 
Q 2172 -91 1784 -91 
Q 1150 -91 751 415 
Q 353 922 353 1747 
Q 353 2572 751 3078 
Q 1150 3584 1784 3584 
Q 2172 3584 2448 3432 
Q 2725 3281 2906 2969 
z
M 947 1747 
Q 947 1113 1208 752 
Q 1469 391 1925 391 
Q 2381 391 2643 752 
Q 2906 1113 2906 1747 
Q 2906 2381 2643 2742 
Q 2381 3103 1925 3103 
Q 1469 3103 1208 2742 
Q 947 2381 947 1747 
z
" transform="scale(0.015625)"/>
       <path id="DejaVuSans-6c" d="M 603 4863 
L 1178 4863 
L 1178 0 
L 603 0 
L 603 4863 
z
" transform="scale(0.015625)"/>
       <path id="DejaVuSans-79" d="M 2059 -325 
Q 1816 -950 1584 -1140 
Q 1353 -1331 966 -1331 
L 506 -1331 
L 506 -850 
L 844 -850 
Q 1081 -850 1212 -737 
Q 1344 -625 1503 -206 
L 1606 56 
L 191 3500 
L 800 3500 
L 1894 763 
L 2988 3500 
L 3597 3500 
L 2059 -325 
z
" transform="scale(0.015625)"/>
       <path id="DejaVuSans-67" d="M 2906 1791 
Q 2906 2416 2648 2759 
Q 2391 3103 1925 3103 
Q 1463 3103 1205 2759 
Q 947 2416 947 1791 
Q 947 1169 1205 825 
Q 1463 481 1925 481 
Q 2391 481 2648 825 
Q 2906 1169 2906 1791 
z
M 3481 434 
Q 3481 -459 3084 -895 
Q 2688 -1331 1869 -1331 
Q 1566 -1331 1297 -1286 
Q 1028 -1241 775 -1147 
L 775 -588 
Q 1028 -725 1275 -790 
Q 1522 -856 1778 -856 
Q 2344 -856 2625 -561 
Q 2906 -266 2906 331 
L 2906 616 
Q 2728 306 2450 153 
Q 2172 0 1784 0 
Q 1141 0 747 490 
Q 353 981 353 1791 
Q 353 2603 747 3093 
Q 1141 3584 1784 3584 
Q 2172 3584 2450 3431 
Q 2728 3278 2906 2969 
L 2906 3500 
L 3481 3500 
L 3481 434 
z
" transform="scale(0.015625)"/>
       <path id="DejaVuSans-6d" d="M 3328 2828 
Q 3544 3216 3844 3400 
Q 4144 3584 4550 3584 
Q 5097 3584 5394 3201 
Q 5691 2819 5691 2113 
L 5691 0 
L 5113 0 
L 5113 2094 
Q 5113 2597 4934 2840 
Q 4756 3084 4391 3084 
Q 3944 3084 3684 2787 
Q 3425 2491 3425 1978 
L 3425 0 
L 2847 0 
L 2847 2094 
Q 2847 2600 2669 2842 
Q 2491 3084 2119 3084 
Q 1678 3084 1418 2786 
Q 1159 2488 1159 1978 
L 1159 0 
L 581 0 
L 581 3500 
L 1159 3500 
L 1159 2956 
Q 1356 3278 1631 3431 
Q 1906 3584 2284 3584 
Q 2666 3584 2933 3390 
Q 3200 3197 3328 2828 
z
" transform="scale(0.015625)"/>
      </defs>
      <use xlink:href="#DejaVuSans-54"/>
      <use xlink:href="#DejaVuSans-72" transform="translate(46.333984 0)"/>
      <use xlink:href="#DejaVuSans-75" transform="translate(87.447266 0)"/>
      <use xlink:href="#DejaVuSans-65" transform="translate(150.826172 0)"/>
      <use xlink:href="#DejaVuSans-2f" transform="translate(212.349609 0)"/>
      <use xlink:href="#DejaVuSans-55" transform="translate(246.041016 0)"/>
      <use xlink:href="#DejaVuSans-6e" transform="translate(319.234375 0)"/>
      <use xlink:href="#DejaVuSans-64" transform="translate(382.613281 0)"/>
      <use xlink:href="#DejaVuSans-65" transform="translate(446.089844 0)"/>
      <use xlink:href="#DejaVuSans-72" transform="translate(507.613281 0)"/>
      <use xlink:href="#DejaVuSans-6c" transform="translate(548.726562 0)"/>
      <use xlink:href="#DejaVuSans-79" transform="translate(576.509766 0)"/>
      <use xlink:href="#DejaVuSans-69" transform="translate(635.689453 0)"/>
      <use xlink:href="#DejaVuSans-6e" transform="translate(663.472656 0)"/>
      <use xlink:href="#DejaVuSans-67" transform="translate(726.851562 0)"/>
      <use xlink:href="#DejaVuSans-20" transform="translate(790.328125 0)"/>
      <use xlink:href="#DejaVuSans-6d" transform="translate(822.115234 0)"/>
      <use xlink:href="#DejaVuSans-6f" transform="translate(919.527344 0)"/>
      <use xlink:href="#DejaVuSans-64" transform="translate(980.708984 0)"/>
      <use xlink:href="#DejaVuSans-65" transform="translate(1044.185547 0)"/>
      <use xlink:href="#DejaVuSans-6c" transform="translate(1105.708984 0)"/>
     </g>
    </g>
    <g id="line2d_18">
     <path d="M 57.982813 50.094687 
L 67.982812 50.094687 
L 77.982812 50.094687 
" style="fill: none; stroke-dasharray: 12.95,5.6; stroke-dashoffset: 0; stroke: #ff0000; stroke-opacity: 0.8; stroke-width: 3.5"/>
    </g>
    <g id="text_17">
     <!-- AutoSINDy -->
     <g transform="translate(85.982812 53.594687) scale(0.1 -0.1)">
      <defs>
       <path id="DejaVuSans-41" d="M 2188 4044 
L 1331 1722 
L 3047 1722 
L 2188 4044 
z
M 1831 4666 
L 2547 4666 
L 4325 0 
L 3669 0 
L 3244 1197 
L 1141 1197 
L 716 0 
L 50 0 
L 1831 4666 
z
" transform="scale(0.015625)"/>
       <path id="DejaVuSans-53" d="M 3425 4513 
L 3425 3897 
Q 3066 4069 2747 4153 
Q 2428 4238 2131 4238 
Q 1616 4238 1336 4038 
Q 1056 3838 1056 3469 
Q 1056 3159 1242 3001 
Q 1428 2844 1947 2747 
L 2328 2669 
Q 3034 2534 3370 2195 
Q 3706 1856 3706 1288 
Q 3706 609 3251 259 
Q 2797 -91 1919 -91 
Q 1588 -91 1214 -16 
Q 841 59 441 206 
L 441 856 
Q 825 641 1194 531 
Q 1563 422 1919 422 
Q 2459 422 2753 634 
Q 3047 847 3047 1241 
Q 3047 1584 2836 1778 
Q 2625 1972 2144 2069 
L 1759 2144 
Q 1053 2284 737 2584 
Q 422 2884 422 3419 
Q 422 4038 858 4394 
Q 1294 4750 2059 4750 
Q 2388 4750 2728 4690 
Q 3069 4631 3425 4513 
z
" transform="scale(0.015625)"/>
       <path id="DejaVuSans-49" d="M 628 4666 
L 1259 4666 
L 1259 0 
L 628 0 
L 628 4666 
z
" transform="scale(0.015625)"/>
       <path id="DejaVuSans-4e" d="M 628 4666 
L 1478 4666 
L 3547 763 
L 3547 4666 
L 4159 4666 
L 4159 0 
L 3309 0 
L 1241 3903 
L 1241 0 
L 628 0 
L 628 4666 
z
" transform="scale(0.015625)"/>
       <path id="DejaVuSans-44" d="M 1259 4147 
L 1259 519 
L 2022 519 
Q 2988 519 3436 956 
Q 3884 1394 3884 2338 
Q 3884 3275 3436 3711 
Q 2988 4147 2022 4147 
L 1259 4147 
z
M 628 4666 
L 1925 4666 
Q 3281 4666 3915 4102 
Q 4550 3538 4550 2338 
Q 4550 1131 3912 565 
Q 3275 0 1925 0 
L 628 0 
L 628 4666 
z
" transform="scale(0.015625)"/>
      </defs>
      <use xlink:href="#DejaVuSans-41"/>
      <use xlink:href="#DejaVuSans-75" transform="translate(68.408203 0)"/>
      <use xlink:href="#DejaVuSans-74" transform="translate(131.787109 0)"/>
      <use xlink:href="#DejaVuSans-6f" transform="translate(170.996094 0)"/>
      <use xlink:href="#DejaVuSans-53" transform="translate(232.177734 0)"/>
      <use xlink:href="#DejaVuSans-49" transform="translate(295.654297 0)"/>
      <use xlink:href="#DejaVuSans-4e" transform="translate(325.146484 0)"/>
      <use xlink:href="#DejaVuSans-44" transform="translate(399.951172 0)"/>
      <use xlink:href="#DejaVuSans-79" transform="translate(476.953125 0)"/>
     </g>
    </g>
    <g id="line2d_19">
     <path d="M 57.982813 64.772812 
L 67.982812 64.772812 
L 77.982812 64.772812 
" style="fill: none; stroke-dasharray: 3.5,5.775; stroke-dashoffset: 0; stroke: #008000; stroke-opacity: 0.8; stroke-width: 3.5"/>
    </g>
    <g id="text_18">
     <!-- Standard SINDy -->
     <g transform="translate(85.982812 68.272812) scale(0.1 -0.1)">
      <use xlink:href="#DejaVuSans-53"/>
      <use xlink:href="#DejaVuSans-74" transform="translate(63.476562 0)"/>
      <use xlink:href="#DejaVuSans-61" transform="translate(102.685547 0)"/>
      <use xlink:href="#DejaVuSans-6e" transform="translate(163.964844 0)"/>
      <use xlink:href="#DejaVuSans-64" transform="translate(227.34375 0)"/>
      <use xlink:href="#DejaVuSans-61" transform="translate(290.820312 0)"/>
      <use xlink:href="#DejaVuSans-72" transform="translate(352.099609 0)"/>
      <use xlink:href="#DejaVuSans-64" transform="translate(391.462891 0)"/>
      <use xlink:href="#DejaVuSans-20" transform="translate(454.939453 0)"/>
      <use xlink:href="#DejaVuSans-53" transform="translate(486.726562 0)"/>
      <use xlink:href="#DejaVuSans-49" transform="translate(550.203125 0)"/>
      <use xlink:href="#DejaVuSans-4e" transform="translate(579.695312 0)"/>
      <use xlink:href="#DejaVuSans-44" transform="translate(654.5 0)"/>
      <use xlink:href="#DejaVuSans-79" transform="translate(731.501953 0)"/>
     </g>
    </g>
    <g id="line2d_20">
     <path d="M 57.982813 79.450937 
L 67.982812 79.450937 
L 77.982812 79.450937 
" style="fill: none; stroke-dasharray: 22.4,5.6,3.5,5.6; stroke-dashoffset: 0; stroke: #0000ff; stroke-opacity: 0.8; stroke-width: 3.5"/>
    </g>
    <g id="text_19">
     <!-- Standard PySR -->
     <g transform="translate(85.982812 82.950937) scale(0.1 -0.1)">
      <defs>
       <path id="DejaVuSans-52" d="M 2841 2188 
Q 3044 2119 3236 1894 
Q 3428 1669 3622 1275 
L 4263 0 
L 3584 0 
L 2988 1197 
Q 2756 1666 2539 1819 
Q 2322 1972 1947 1972 
L 1259 1972 
L 1259 0 
L 628 0 
L 628 4666 
L 2053 4666 
Q 2853 4666 3247 4331 
Q 3641 3997 3641 3322 
Q 3641 2881 3436 2590 
Q 3231 2300 2841 2188 
z
M 1259 4147 
L 1259 2491 
L 2053 2491 
Q 2509 2491 2742 2702 
Q 2975 2913 2975 3322 
Q 2975 3731 2742 3939 
Q 2509 4147 2053 4147 
L 1259 4147 
z
" transform="scale(0.015625)"/>
      </defs>
      <use xlink:href="#DejaVuSans-53"/>
      <use xlink:href="#DejaVuSans-74" transform="translate(63.476562 0)"/>
      <use xlink:href="#DejaVuSans-61" transform="translate(102.685547 0)"/>
      <use xlink:href="#DejaVuSans-6e" transform="translate(163.964844 0)"/>
      <use xlink:href="#DejaVuSans-64" transform="translate(227.34375 0)"/>
      <use xlink:href="#DejaVuSans-61" transform="translate(290.820312 0)"/>
      <use xlink:href="#DejaVuSans-72" transform="translate(352.099609 0)"/>
      <use xlink:href="#DejaVuSans-64" transform="translate(391.462891 0)"/>
      <use xlink:href="#DejaVuSans-20" transform="translate(454.939453 0)"/>
      <use xlink:href="#DejaVuSans-50" transform="translate(486.726562 0)"/>
      <use xlink:href="#DejaVuSans-79" transform="translate(547.029297 0)"/>
      <use xlink:href="#DejaVuSans-53" transform="translate(606.208984 0)"/>
      <use xlink:href="#DejaVuSans-52" transform="translate(669.685547 0)"/>
     </g>
    </g>
   </g>
  </g>
 </g>
 <defs>
  <clipPath id="p6eed6b5a55">
   <rect x="48.982813" y="22.318125" width="512.23" height="508.12"/>
  </clipPath>
 </defs>
</svg>
