<?xml version="1.0" encoding="utf-8" standalone="no"?>
<!DOCTYPE svg PUBLIC "-//W3C//DTD SVG 1.1//EN"
  "http://www.w3.org/Graphics/SVG/1.1/DTD/svg11.dtd">
<svg xmlns:xlink="http://www.w3.org/1999/xlink" width="868.573437pt" height="429.79625pt" viewBox="0 0 868.573437 429.79625" xmlns="http://www.w3.org/2000/svg" version="1.1">
 <metadata>
  <rdf:RDF xmlns:dc="http://purl.org/dc/elements/1.1/" xmlns:cc="http://creativecommons.org/ns#" xmlns:rdf="http://www.w3.org/1999/02/22-rdf-syntax-ns#">
   <cc:Work>
    <dc:type rdf:resource="http://purl.org/dc/dcmitype/StillImage"/>
    <dc:date>2026-04-28T16:46:25.580245</dc:date>
    <dc:format>image/svg+xml</dc:format>
    <dc:creator>
     <cc:Agent>
      <dc:title>Matplotlib v3.10.7, https://matplotlib.org/</dc:title>
     </cc:Agent>
    </dc:creator>
   </cc:Work>
  </rdf:RDF>
 </metadata>
 <defs>
  <style type="text/css">*{stroke-linejoin: round; stroke-linecap: butt}</style>
 </defs>
 <g id="figure_1">
  <g id="patch_1">
   <path d="M 0 429.79625 
L 868.573438 429.79625 
L 868.573438 0 
L 0 0 
z
" style="fill: #ffffff"/>
  </g>
  <g id="axes_1">
   <g id="patch_2">
    <path d="M 58.523438 208.79 
L 855.573438 208.79 
L 855.573438 39.64 
L 58.523438 39.64 
z
" style="fill: #ffffff"/>
   </g>
   <g id="line2d_1">
    <path d="M 94.752983 184.625714 
L 97.25657 183.447763 
L 99.891926 181.955624 
L 102.131977 180.460427 
L 106.348546 177.386342 
L 111.355721 173.449785 
L 117.944109 167.963412 
L 133.229169 155.131729 
L 138.236344 151.273365 
L 142.58468 148.195704 
L 147.591854 144.9337 
L 152.467262 142.016319 
L 157.342669 139.353785 
L 162.218076 136.945618 
L 166.961715 134.846227 
L 171.705354 132.986742 
L 176.448994 131.366721 
L 181.192633 129.985721 
L 185.804505 128.871858 
L 191.602286 127.720401 
L 197.136532 126.856955 
L 202.670778 126.220453 
L 208.205024 125.80682 
L 213.871037 125.609976 
L 219.537051 125.638097 
L 225.203065 125.88681 
L 231.000846 126.365091 
L 236.798628 127.065196 
L 245.231764 128.362013 
L 251.556617 129.610444 
L 258.276772 131.167496 
L 265.655767 133.112488 
L 273.825368 135.502061 
L 283.444414 138.55597 
L 304.527256 145.355169 
L 310.588573 147.077783 
L 315.595748 148.271626 
L 319.944084 149.083379 
L 323.897117 149.600295 
L 327.586614 149.86221 
L 331.012576 149.890325 
L 334.30677 149.701168 
L 337.469196 149.301904 
L 340.499854 148.703067 
L 343.530513 147.877282 
L 346.429403 146.861094 
L 349.328294 145.610197 
L 352.622488 143.925709 
L 355.257843 142.352247 
L 358.024966 140.439655 
L 361.055625 138.061369 
L 364.218051 135.29039 
L 367.644013 131.988197 
L 371.465278 127.98049 
L 375.681846 123.220306 
L 380.557253 117.361696 
L 386.61857 109.70134 
L 400.849488 91.552875 
L 405.329592 86.28861 
L 409.019089 82.277583 
L 412.313283 79.007366 
L 415.343942 76.300728 
L 418.769903 73.498506 
L 421.800562 71.323357 
L 424.699453 69.507702 
L 427.598343 67.948305 
L 430.497234 66.642435 
L 433.396125 65.587357 
L 436.163248 64.811677 
L 438.930371 64.259639 
L 441.697494 63.928867 
L 444.596384 63.80833 
L 447.627043 63.873944 
L 450.789469 64.160314 
L 454.215431 64.701089 
L 457.77316 65.492655 
L 461.594425 66.575129 
L 465.679226 67.96336 
L 470.291097 69.770376 
L 475.693575 72.13849 
L 482.018428 75.159099 
L 490.188029 79.312354 
L 501.783592 85.485569 
L 519.572239 94.948238 
L 530.245428 100.313402 
L 541.182152 105.602147 
L 550.010592 109.632791 
L 557.78489 112.944092 
L 564.900349 115.735821 
L 571.488737 118.083523 
L 577.681821 120.055086 
L 583.479603 121.67179 
L 589.013849 122.98937 
L 595.075166 124.190884 
L 599.423502 124.8664 
L 603.771838 125.317762 
L 608.120174 125.543971 
L 612.46851 125.544025 
L 616.816846 125.316925 
L 621.165182 124.86167 
L 625.513518 124.177259 
L 629.861854 123.262691 
L 634.21019 122.116967 
L 638.558526 120.739086 
L 642.906862 119.128047 
L 647.255198 117.28285 
L 653.05298 114.540595 
L 658.32369 111.778118 
L 664.912078 108.054174 
L 686.126687 95.854877 
L 693.373914 92.164501 
L 698.512857 89.822313 
L 703.256496 87.898192 
L 707.7366 86.311648 
L 712.084936 85.004487 
L 716.301504 83.972519 
L 720.254537 83.230006 
L 724.602873 82.653451 
L 728.819441 82.291683 
L 733.167777 82.143308 
L 737.647881 82.212385 
L 742.391521 82.511852 
L 747.398695 83.058043 
L 752.669406 83.861958 
L 758.335419 84.955996 
L 764.923807 86.453332 
L 771.907499 88.284217 
L 780.0771 90.663688 
L 791.672663 94.295622 
L 813.809646 101.245031 
L 819.343892 102.892146 
L 819.343892 102.892146 
" clip-path="url(#ped8c95f564)" style="fill: none; stroke: #808080; stroke-opacity: 0.5; stroke-width: 6; stroke-linecap: square"/>
   </g>
   <g id="matplotlib.axis_1">
    <g id="xtick_1">
     <g id="line2d_2">
      <defs>
       <path id="m5a9dcd862e" d="M 0 0 
L 0 3.5 
" style="stroke: #000000; stroke-width: 0.8"/>
      </defs>
      <g>
       <use xlink:href="#m5a9dcd862e" x="94.752983" y="208.79" style="stroke: #000000; stroke-width: 0.8"/>
      </g>
     </g>
    </g>
    <g id="xtick_2">
     <g id="line2d_3">
      <g>
       <use xlink:href="#m5a9dcd862e" x="215.518134" y="208.79" style="stroke: #000000; stroke-width: 0.8"/>
      </g>
     </g>
    </g>
    <g id="xtick_3">
     <g id="line2d_4">
      <g>
       <use xlink:href="#m5a9dcd862e" x="336.283286" y="208.79" style="stroke: #000000; stroke-width: 0.8"/>
      </g>
     </g>
    </g>
    <g id="xtick_4">
     <g id="line2d_5">
      <g>
       <use xlink:href="#m5a9dcd862e" x="457.048438" y="208.79" style="stroke: #000000; stroke-width: 0.8"/>
      </g>
     </g>
    </g>
    <g id="xtick_5">
     <g id="line2d_6">
      <g>
       <use xlink:href="#m5a9dcd862e" x="577.813589" y="208.79" style="stroke: #000000; stroke-width: 0.8"/>
      </g>
     </g>
    </g>
    <g id="xtick_6">
     <g id="line2d_7">
      <g>
       <use xlink:href="#m5a9dcd862e" x="698.578741" y="208.79" style="stroke: #000000; stroke-width: 0.8"/>
      </g>
     </g>
    </g>
    <g id="xtick_7">
     <g id="line2d_8">
      <g>
       <use xlink:href="#m5a9dcd862e" x="819.343892" y="208.79" style="stroke: #000000; stroke-width: 0.8"/>
      </g>
     </g>
    </g>
   </g>
   <g id="matplotlib.axis_2">
    <g id="ytick_1">
     <g id="line2d_9">
      <defs>
       <path id="meaa6ed020b" d="M 0 0 
L -3.5 0 
" style="stroke: #000000; stroke-width: 0.8"/>
      </defs>
      <g>
       <use xlink:href="#meaa6ed020b" x="58.523438" y="184.625409" style="stroke: #000000; stroke-width: 0.8"/>
      </g>
     </g>
     <g id="text_1">
      <!-- −1.0 -->
      <g transform="translate(27.240625 188.424628) scale(0.1 -0.1)">
       <defs>
        <path id="DejaVuSans-2212" d="M 678 2272 
L 4684 2272 
L 4684 1741 
L 678 1741 
L 678 2272 
z
" transform="scale(0.015625)"/>
        <path id="DejaVuSans-31" d="M 794 531 
L 1825 531 
L 1825 4091 
L 703 3866 
L 703 4441 
L 1819 4666 
L 2450 4666 
L 2450 531 
L 3481 531 
L 3481 0 
L 794 0 
L 794 531 
z
" transform="scale(0.015625)"/>
        <path id="DejaVuSans-2e" d="M 684 794 
L 1344 794 
L 1344 0 
L 684 0 
L 684 794 
z
" transform="scale(0.015625)"/>
        <path id="DejaVuSans-30" d="M 2034 4250 
Q 1547 4250 1301 3770 
Q 1056 3291 1056 2328 
Q 1056 1369 1301 889 
Q 1547 409 2034 409 
Q 2525 409 2770 889 
Q 3016 1369 3016 2328 
Q 3016 3291 2770 3770 
Q 2525 4250 2034 4250 
z
M 2034 4750 
Q 2819 4750 3233 4129 
Q 3647 3509 3647 2328 
Q 3647 1150 3233 529 
Q 2819 -91 2034 -91 
Q 1250 -91 836 529 
Q 422 1150 422 2328 
Q 422 3509 836 4129 
Q 1250 4750 2034 4750 
z
" transform="scale(0.015625)"/>
       </defs>
       <use xlink:href="#DejaVuSans-2212"/>
       <use xlink:href="#DejaVuSans-31" transform="translate(83.789062 0)"/>
       <use xlink:href="#DejaVuSans-2e" transform="translate(147.412109 0)"/>
       <use xlink:href="#DejaVuSans-30" transform="translate(179.199219 0)"/>
      </g>
     </g>
    </g>
    <g id="ytick_2">
     <g id="line2d_10">
      <g>
       <use xlink:href="#meaa6ed020b" x="58.523438" y="142.558204" style="stroke: #000000; stroke-width: 0.8"/>
      </g>
     </g>
     <g id="text_2">
      <!-- −0.5 -->
      <g transform="translate(27.240625 146.357422) scale(0.1 -0.1)">
       <defs>
        <path id="DejaVuSans-35" d="M 691 4666 
L 3169 4666 
L 3169 4134 
L 1269 4134 
L 1269 2991 
Q 1406 3038 1543 3061 
Q 1681 3084 1819 3084 
Q 2600 3084 3056 2656 
Q 3513 2228 3513 1497 
Q 3513 744 3044 326 
Q 2575 -91 1722 -91 
Q 1428 -91 1123 -41 
Q 819 9 494 109 
L 494 744 
Q 775 591 1075 516 
Q 1375 441 1709 441 
Q 2250 441 2565 725 
Q 2881 1009 2881 1497 
Q 2881 1984 2565 2268 
Q 2250 2553 1709 2553 
Q 1456 2553 1204 2497 
Q 953 2441 691 2322 
L 691 4666 
z
" transform="scale(0.015625)"/>
       </defs>
       <use xlink:href="#DejaVuSans-2212"/>
       <use xlink:href="#DejaVuSans-30" transform="translate(83.789062 0)"/>
       <use xlink:href="#DejaVuSans-2e" transform="translate(147.412109 0)"/>
       <use xlink:href="#DejaVuSans-35" transform="translate(179.199219 0)"/>
      </g>
     </g>
    </g>
    <g id="ytick_3">
     <g id="line2d_11">
      <g>
       <use xlink:href="#meaa6ed020b" x="58.523438" y="100.490998" style="stroke: #000000; stroke-width: 0.8"/>
      </g>
     </g>
     <g id="text_3">
      <!-- 0.0 -->
      <g transform="translate(35.620313 104.290217) scale(0.1 -0.1)">
       <use xlink:href="#DejaVuSans-30"/>
       <use xlink:href="#DejaVuSans-2e" transform="translate(63.623047 0)"/>
       <use xlink:href="#DejaVuSans-30" transform="translate(95.410156 0)"/>
      </g>
     </g>
    </g>
    <g id="ytick_4">
     <g id="line2d_12">
      <g>
       <use xlink:href="#meaa6ed020b" x="58.523438" y="58.423793" style="stroke: #000000; stroke-width: 0.8"/>
      </g>
     </g>
     <g id="text_4">
      <!-- 0.5 -->
      <g transform="translate(35.620313 62.223012) scale(0.1 -0.1)">
       <use xlink:href="#DejaVuSans-30"/>
       <use xlink:href="#DejaVuSans-2e" transform="translate(63.623047 0)"/>
       <use xlink:href="#DejaVuSans-35" transform="translate(95.410156 0)"/>
      </g>
     </g>
    </g>
    <g id="text_5">
     <!-- $dx0/dt$ -->
     <g transform="translate(21.160938 140.365) rotate(-90) scale(0.1 -0.1)">
      <defs>
       <path id="DejaVuSans-Oblique-64" d="M 2675 525 
Q 2444 222 2128 65 
Q 1813 -91 1428 -91 
Q 903 -91 598 267 
Q 294 625 294 1247 
Q 294 1766 478 2236 
Q 663 2706 1013 3078 
Q 1244 3325 1534 3454 
Q 1825 3584 2144 3584 
Q 2481 3584 2739 3421 
Q 2997 3259 3138 2956 
L 3513 4863 
L 4091 4863 
L 3144 0 
L 2566 0 
L 2675 525 
z
M 891 1350 
Q 891 897 1095 644 
Q 1300 391 1663 391 
Q 1931 391 2161 520 
Q 2391 650 2566 903 
Q 2750 1166 2856 1509 
Q 2963 1853 2963 2188 
Q 2963 2622 2758 2865 
Q 2553 3109 2194 3109 
Q 1922 3109 1687 2981 
Q 1453 2853 1288 2613 
Q 1106 2353 998 2009 
Q 891 1666 891 1350 
z
" transform="scale(0.015625)"/>
       <path id="DejaVuSans-Oblique-78" d="M 3841 3500 
L 2234 1784 
L 3219 0 
L 2559 0 
L 1819 1388 
L 531 0 
L -166 0 
L 1556 1844 
L 641 3500 
L 1300 3500 
L 1972 2234 
L 3144 3500 
L 3841 3500 
z
" transform="scale(0.015625)"/>
       <path id="DejaVuSans-2f" d="M 1625 4666 
L 2156 4666 
L 531 -594 
L 0 -594 
L 1625 4666 
z
" transform="scale(0.015625)"/>
       <path id="DejaVuSans-Oblique-74" d="M 2706 3500 
L 2619 3053 
L 1472 3053 
L 1100 1153 
Q 1081 1047 1072 975 
Q 1063 903 1063 863 
Q 1063 663 1183 572 
Q 1303 481 1569 481 
L 2150 481 
L 2053 0 
L 1503 0 
Q 991 0 739 200 
Q 488 400 488 806 
Q 488 878 497 964 
Q 506 1050 525 1153 
L 897 3053 
L 409 3053 
L 500 3500 
L 978 3500 
L 1172 4494 
L 1747 4494 
L 1556 3500 
L 2706 3500 
z
" transform="scale(0.015625)"/>
      </defs>
      <use xlink:href="#DejaVuSans-Oblique-64" transform="translate(0 0.015625)"/>
      <use xlink:href="#DejaVuSans-Oblique-78" transform="translate(63.476562 0.015625)"/>
      <use xlink:href="#DejaVuSans-30" transform="translate(122.65625 0.015625)"/>
      <use xlink:href="#DejaVuSans-2f" transform="translate(186.279297 0.015625)"/>
      <use xlink:href="#DejaVuSans-Oblique-64" transform="translate(219.970703 0.015625)"/>
      <use xlink:href="#DejaVuSans-Oblique-74" transform="translate(283.447266 0.015625)"/>
     </g>
    </g>
   </g>
   <g id="line2d_13">
    <path d="M 94.752983 184.625413 
L 97.124803 183.516014 
L 99.760158 182.0355 
L 102.790816 180.0719 
L 106.348546 177.496384 
L 110.696882 174.057171 
L 116.758199 168.94549 
L 130.462046 157.302301 
L 135.996292 152.946329 
L 141.003467 149.286097 
L 145.878874 145.997934 
L 150.754281 142.978532 
L 155.49792 140.298633 
L 160.241559 137.871121 
L 164.985199 135.692044 
L 169.728838 133.755474 
L 174.604245 132.009485 
L 179.479652 130.500542 
L 184.486827 129.183924 
L 189.62577 128.062192 
L 194.89648 127.141879 
L 200.16719 126.445784 
L 205.569669 125.955631 
L 211.103915 125.678016 
L 216.769928 125.618528 
L 222.56771 125.781667 
L 228.497259 126.170761 
L 234.690343 126.803675 
L 241.015196 127.675267 
L 247.471816 128.793351 
L 254.060204 130.164916 
L 260.912128 131.822566 
L 268.291122 133.842318 
L 276.592491 136.351941 
L 287.660983 139.952312 
L 303.341346 145.052167 
L 309.534431 146.808898 
L 314.673373 148.042977 
L 319.153477 148.899471 
L 323.238278 149.462185 
L 327.059543 149.767347 
L 330.617272 149.831699 
L 334.043234 149.668866 
L 337.20566 149.302065 
L 340.368087 148.707706 
L 343.398745 147.906301 
L 346.297636 146.910735 
L 349.196526 145.674978 
L 351.963649 144.256825 
L 354.86254 142.524033 
L 357.893199 140.448292 
L 361.055625 137.999374 
L 364.349819 135.151272 
L 367.77578 131.884224 
L 371.465278 128.044623 
L 375.418311 123.602135 
L 379.898414 118.225232 
L 385.564428 111.052091 
L 400.190649 92.345848 
L 404.670753 87.073571 
L 408.623786 82.753447 
L 412.313283 79.050615 
L 415.871013 75.80115 
L 419.56051 72.743259 
L 423.908846 69.44755 
L 429.838395 65.248834 
L 434.054963 62.494422 
L 436.822086 60.939734 
L 439.062138 59.925666 
L 441.038655 59.26383 
L 442.883403 58.868927 
L 444.728152 58.699044 
L 446.572901 58.756692 
L 448.417649 59.030078 
L 450.525933 59.576487 
L 452.897753 60.434402 
L 455.796644 61.731432 
L 460.276748 64.013202 
L 472.794685 70.470344 
L 489.792726 79.102109 
L 503.891876 86.627653 
L 520.231078 95.279772 
L 531.167802 100.813439 
L 540.918616 105.504698 
L 549.747056 109.509811 
L 557.653122 112.859041 
L 564.900349 115.694349 
L 571.620504 118.088922 
L 577.813589 120.06613 
L 583.61137 121.691231 
L 589.145616 123.014547 
L 594.416327 124.045853 
L 599.423502 124.799522 
L 604.035373 125.274776 
L 608.515477 125.515681 
L 612.863813 125.52707 
L 617.080381 125.318713 
L 621.29695 124.887337 
L 625.513518 124.228745 
L 629.730086 123.341446 
L 633.946655 122.226655 
L 638.294991 120.842928 
L 642.775094 119.17635 
L 647.386966 117.2173 
L 652.262373 114.898833 
L 657.796619 112.016641 
L 664.78031 108.112944 
L 688.762042 94.470734 
L 694.296288 91.713123 
L 699.303463 89.465945 
L 703.915335 87.63671 
L 708.395439 86.100684 
L 712.743775 84.848665 
L 716.960343 83.864525 
L 721.176911 83.106718 
L 725.39348 82.570663 
L 729.741816 82.244088 
L 734.090152 82.13817 
L 738.570256 82.247743 
L 743.313895 82.589361 
L 748.32107 83.179516 
L 753.59178 84.025775 
L 759.521329 85.209554 
L 765.977949 86.729315 
L 773.356944 88.703591 
L 782.185384 91.306527 
L 795.230392 95.412295 
L 814.468485 101.44425 
L 819.343892 102.892131 
L 819.343892 102.892131 
" clip-path="url(#ped8c95f564)" style="fill: none; stroke-dasharray: 12.95,5.6; stroke-dashoffset: 0; stroke: #0000ff; stroke-opacity: 0.8; stroke-width: 3.5"/>
   </g>
   <g id="patch_3">
    <path d="M 58.523438 208.79 
L 58.523438 39.64 
" style="fill: none; stroke: #000000; stroke-width: 0.8; stroke-linejoin: miter; stroke-linecap: square"/>
   </g>
   <g id="patch_4">
    <path d="M 855.573438 208.79 
L 855.573438 39.64 
" style="fill: none; stroke: #000000; stroke-width: 0.8; stroke-linejoin: miter; stroke-linecap: square"/>
   </g>
   <g id="patch_5">
    <path d="M 58.523438 208.79 
L 855.573438 208.79 
" style="fill: none; stroke: #000000; stroke-width: 0.8; stroke-linejoin: miter; stroke-linecap: square"/>
   </g>
   <g id="patch_6">
    <path d="M 58.523438 39.64 
L 855.573438 39.64 
" style="fill: none; stroke: #000000; stroke-width: 0.8; stroke-linejoin: miter; stroke-linecap: square"/>
   </g>
   <g id="line2d_14">
    <path d="M 94.752983 185.109593 
L 97.124803 183.980892 
L 99.760158 182.475366 
L 102.790816 180.479894 
L 106.348546 177.86479 
L 110.696882 174.376541 
L 116.758199 169.199781 
L 129.934975 157.873923 
L 135.469221 153.456281 
L 140.476395 149.742114 
L 145.351803 146.406086 
L 150.22721 143.342804 
L 154.970849 140.623342 
L 159.714488 138.159008 
L 164.458128 135.945596 
L 169.201767 133.977002 
L 173.945406 132.245217 
L 178.820813 130.701638 
L 183.827988 129.352236 
L 188.966931 128.199485 
L 194.237641 127.249038 
L 199.508352 126.524369 
L 204.91083 126.006452 
L 210.445076 125.701928 
L 216.111089 125.616449 
L 221.908871 125.754594 
L 227.83842 126.119797 
L 233.899737 126.714265 
L 240.224589 127.559182 
L 246.549442 128.626433 
L 253.006062 129.939423 
L 259.726218 131.532091 
L 266.973445 133.482363 
L 275.011278 135.881139 
L 285.157395 139.156567 
L 304.659024 145.506785 
L 310.588573 147.150531 
L 315.595748 148.313603 
L 320.075852 149.126719 
L 324.160652 149.640305 
L 327.850149 149.886056 
L 331.407879 149.899811 
L 334.702073 149.694259 
L 337.864499 149.279184 
L 340.895158 148.663089 
L 343.925816 147.815598 
L 346.824707 146.771926 
L 349.723597 145.484147 
L 352.49072 144.014115 
L 355.389611 142.228321 
L 358.42027 140.097455 
L 361.582696 137.592361 
L 364.87689 134.688374 
L 368.302852 131.367348 
L 371.992349 127.475801 
L 376.077149 122.831653 
L 380.689021 117.241448 
L 386.750338 109.513663 
L 399.004739 93.799915 
L 403.748379 88.133501 
L 407.833179 83.594846 
L 411.522677 79.826174 
L 414.948638 76.646739 
L 418.111065 74.009242 
L 421.141723 71.761419 
L 424.040614 69.874922 
L 426.939504 68.249835 
L 429.838395 66.886542 
L 432.605518 65.826869 
L 435.372641 64.997981 
L 438.139764 64.392002 
L 441.038655 63.984712 
L 444.069313 63.791432 
L 447.099972 63.820093 
L 450.262398 64.071926 
L 453.556592 64.555763 
L 457.114321 65.30869 
L 460.935586 66.355039 
L 465.020387 67.710467 
L 469.500491 69.43358 
L 474.639433 71.651159 
L 480.964286 74.633171 
L 488.606816 78.497441 
L 499.938843 84.508356 
L 520.362846 95.350325 
L 531.29957 100.878281 
L 541.050384 105.563927 
L 549.878824 109.563839 
L 557.78489 112.908405 
L 565.032116 115.739397 
L 571.752272 118.129829 
L 577.945357 120.102963 
L 583.743138 121.723872 
L 589.277384 123.042696 
L 594.548094 124.069176 
L 599.555269 124.817506 
L 604.167141 125.286982 
L 608.647245 125.521526 
L 612.995581 125.526096 
L 617.212149 125.310596 
L 621.428717 124.871651 
L 625.645286 124.205182 
L 629.861854 123.309841 
L 634.078422 122.187002 
L 638.426758 120.795151 
L 642.906862 119.120597 
L 647.518734 117.15397 
L 652.394141 114.828743 
L 658.060155 111.86976 
L 665.043846 107.958355 
L 688.366739 94.679885 
L 693.900985 91.904797 
L 698.90816 89.638045 
L 703.520032 87.788379 
L 708.000135 86.230997 
L 712.348471 84.957464 
L 716.56504 83.952274 
L 720.781608 83.173707 
L 724.998176 82.617427 
L 729.346512 82.270568 
L 733.694848 82.145142 
L 738.174952 82.235599 
L 742.918592 82.558332 
L 747.793999 83.112548 
L 753.064709 83.936876 
L 758.86249 85.072255 
L 765.187343 86.536393 
L 772.43457 88.449583 
L 780.999474 90.949227 
L 793.122108 94.741793 
L 815.127324 101.642116 
L 819.343892 102.890967 
L 819.343892 102.890967 
" clip-path="url(#ped8c95f564)" style="fill: none; stroke-dasharray: 22.4,5.6,3.5,5.6; stroke-dashoffset: 0; stroke: #008000; stroke-opacity: 0.8; stroke-width: 3.5"/>
   </g>
   <g id="line2d_15">
    <path d="M 94.752983 184.640109 
L 97.124803 183.530518 
L 99.760158 182.049746 
L 102.790816 180.085803 
L 106.348546 177.509838 
L 110.696882 174.070024 
L 116.758199 168.95745 
L 130.462046 157.312227 
L 135.996292 152.955494 
L 141.003467 149.294623 
L 145.878874 146.005885 
L 150.754281 142.985955 
L 155.49792 140.305588 
L 160.241559 137.877652 
L 164.985199 135.698194 
L 169.728838 133.761286 
L 174.604245 132.014992 
L 179.479652 130.505785 
L 184.486827 129.188937 
L 189.62577 128.067009 
L 194.89648 127.146535 
L 200.16719 126.450319 
L 205.569669 125.96008 
L 211.103915 125.682417 
L 216.769928 125.622919 
L 222.56771 125.786085 
L 228.497259 126.175248 
L 234.690343 126.808272 
L 241.015196 127.680017 
L 247.471816 128.798296 
L 254.060204 130.170101 
L 260.912128 131.828041 
L 268.291122 133.848145 
L 276.592491 136.358206 
L 287.529215 139.915387 
L 303.341346 145.059952 
L 309.534431 146.81699 
L 314.673373 148.051285 
L 319.153477 148.907929 
L 323.238278 149.470741 
L 327.059543 149.775956 
L 330.617272 149.84032 
L 334.043234 149.677459 
L 337.20566 149.310593 
L 340.368087 148.71613 
L 343.398745 147.914586 
L 346.297636 146.918846 
L 349.196526 145.682873 
L 351.963649 144.264472 
L 354.86254 142.531377 
L 357.893199 140.455273 
L 361.055625 138.005928 
L 364.349819 135.157328 
L 367.77578 131.889709 
L 371.465278 128.049437 
L 375.418311 123.606172 
L 379.898414 118.22833 
L 385.564428 111.053936 
L 400.190649 92.34444 
L 404.670753 87.071485 
L 408.623786 82.752522 
L 412.181515 79.184559 
L 415.475709 76.184041 
L 418.638136 73.598438 
L 421.668794 71.402448 
L 424.567685 69.566637 
L 427.466576 67.992519 
L 430.233698 66.733749 
L 433.000821 65.710043 
L 435.767944 64.91571 
L 438.666835 64.320452 
L 441.565726 63.955063 
L 444.596384 63.801711 
L 447.627043 63.867577 
L 450.789469 64.154588 
L 454.215431 64.696218 
L 457.77316 65.488528 
L 461.594425 66.571405 
L 465.810994 68.007861 
L 470.422865 69.820794 
L 475.825343 72.194012 
L 482.281963 75.280161 
L 490.319797 79.385549 
L 503.233037 86.27154 
L 520.09931 95.210663 
L 531.036034 100.748411 
L 540.786849 105.443918 
L 549.615288 109.453533 
L 557.521354 112.807446 
L 564.768581 115.647675 
L 571.488737 118.047422 
L 577.681821 120.02997 
L 583.479603 121.660611 
L 589.013849 122.989741 
L 594.284559 124.02705 
L 599.291734 124.786988 
L 604.035373 125.279107 
L 608.515477 125.520054 
L 612.863813 125.531444 
L 617.080381 125.323051 
L 621.29695 124.891599 
L 625.513518 124.232892 
L 629.730086 123.345439 
L 633.946655 122.230452 
L 638.294991 120.846484 
L 642.775094 119.179615 
L 647.386966 117.220223 
L 652.262373 114.90135 
L 657.796619 112.018654 
L 664.78031 108.114275 
L 688.762042 94.469687 
L 694.296288 91.711611 
L 699.303463 89.464092 
L 703.915335 87.634658 
L 708.395439 86.098593 
L 712.743775 84.846722 
L 716.960343 83.862897 
L 721.176911 83.105518 
L 725.39348 82.569903 
L 729.741816 82.243665 
L 734.090152 82.137869 
L 738.570256 82.247316 
L 743.313895 82.588583 
L 748.32107 83.178267 
L 753.59178 84.024079 
L 759.521329 85.207545 
L 765.977949 86.727218 
L 773.356944 88.701641 
L 782.185384 91.304949 
L 795.230392 95.41141 
L 814.468485 101.444417 
L 819.343892 102.89255 
L 819.343892 102.89255 
" clip-path="url(#ped8c95f564)" style="fill: none; stroke-dasharray: 3.5,5.775; stroke-dashoffset: 0; stroke: #ff0000; stroke-opacity: 0.8; stroke-width: 3.5"/>
   </g>
  </g>
  <g id="axes_2">
   <g id="patch_7">
    <path d="M 58.523438 392.24 
L 855.573438 392.24 
L 855.573438 223.09 
L 58.523438 223.09 
z
" style="fill: #ffffff"/>
   </g>
   <g id="line2d_16">
    <path d="M 94.752983 305.324111 
L 96.729499 299.950237 
L 98.574248 295.538059 
L 100.418997 291.686994 
L 102.00021 288.9612 
L 103.844958 286.166384 
L 105.689707 283.75425 
L 107.534456 281.70662 
L 109.247436 280.115738 
L 110.960417 278.80892 
L 112.673398 277.77161 
L 114.386379 276.989255 
L 116.09936 276.447299 
L 117.812341 276.131189 
L 119.657089 276.026642 
L 121.501838 276.148965 
L 123.478355 276.51113 
L 125.586639 277.136306 
L 127.826691 278.040996 
L 130.330278 279.306006 
L 133.097401 280.963101 
L 136.391595 283.207781 
L 140.871699 286.557732 
L 146.405945 290.682381 
L 163.403986 303.178211 
L 171.178283 308.598466 
L 177.634904 312.83668 
L 183.300917 316.30064 
L 189.362234 319.732478 
L 197.2683 323.974 
L 205.174365 327.964816 
L 213.080431 331.706296 
L 220.986496 335.199812 
L 228.760794 338.394632 
L 236.535092 341.352314 
L 252.083688 346.910944 
L 259.330914 349.253385 
L 265.392231 350.987771 
L 270.79471 352.309761 
L 275.801884 353.308583 
L 280.413756 354.006318 
L 284.762092 354.444898 
L 289.769267 354.707381 
L 292.799925 354.645356 
L 295.830584 354.360243 
L 298.729475 353.869433 
L 301.628365 353.156371 
L 304.527256 352.212189 
L 307.426147 351.028016 
L 310.325037 349.594983 
L 313.223928 347.904221 
L 316.122819 345.946862 
L 319.021709 343.714034 
L 321.9206 341.196869 
L 324.819491 338.386498 
L 327.718382 335.274052 
L 330.74904 331.687519 
L 333.779699 327.750997 
L 336.810357 323.45435 
L 339.972783 318.57598 
L 343.135209 313.282939 
L 346.297636 307.563713 
L 349.59183 301.14058 
L 354.86254 290.710685 
L 361.055625 278.974094 
L 365.140425 271.695212 
L 368.566387 266.038481 
L 371.465278 261.660542 
L 374.100633 258.066639 
L 376.472453 255.190358 
L 378.712505 252.820484 
L 380.689021 251.034702 
L 382.53377 249.646161 
L 384.24675 248.613068 
L 385.827964 247.892415 
L 387.277409 247.465772 
L 388.726854 247.269802 
L 390.1763 247.297111 
L 391.625745 247.54034 
L 393.206958 248.043291 
L 394.788171 248.784899 
L 396.501152 249.846544 
L 398.345901 251.276622 
L 400.190649 252.989283 
L 402.167166 255.120623 
L 404.407218 257.88369 
L 406.779037 261.182762 
L 409.282625 265.046888 
L 412.049748 269.72905 
L 415.212174 275.544287 
L 419.955813 284.79431 
L 427.20304 299.549537 
L 433.923196 313.041914 
L 438.007996 320.760582 
L 441.433958 326.772169 
L 444.596384 331.870736 
L 447.890578 336.871865 
L 451.053004 341.285205 
L 454.215431 345.320899 
L 457.246089 348.835771 
L 460.276748 352.007119 
L 463.175638 354.720629 
L 465.942761 357.020281 
L 468.709884 359.037425 
L 471.477007 360.773292 
L 474.112362 362.166121 
L 476.747718 363.305357 
L 482.150196 365.254076 
L 485.576157 366.199127 
L 489.133887 366.954936 
L 492.823384 367.516736 
L 496.776417 367.892461 
L 500.992985 368.065042 
L 505.604857 368.021969 
L 510.612032 367.749462 
L 516.541581 367.196199 
L 524.052343 366.258691 
L 533.012551 364.910618 
L 540.786849 363.522124 
L 547.902308 362.026619 
L 554.490696 360.414771 
L 560.68378 358.67155 
L 566.613329 356.770656 
L 572.279343 354.720842 
L 577.813589 352.478972 
L 583.084299 350.106355 
L 588.223242 347.554281 
L 593.493952 344.683572 
L 597.315217 342.440903 
L 601.531786 339.696458 
L 606.143657 336.419364 
L 611.414368 332.390636 
L 617.870988 327.159253 
L 629.203015 317.624525 
L 638.163223 310.222508 
L 644.092772 305.607531 
L 648.968179 302.081284 
L 651.735302 300.329302 
L 654.765961 298.668494 
L 657.664851 297.331381 
L 660.563742 296.24067 
L 663.330865 295.429851 
L 666.097988 294.844429 
L 668.865111 294.484838 
L 671.632234 294.35151 
L 674.399357 294.444878 
L 677.16648 294.765375 
L 679.933603 295.313433 
L 682.700726 296.089486 
L 685.467848 297.093966 
L 688.498507 298.440711 
L 691.529165 300.022 
L 694.823359 301.991938 
L 698.512857 304.463969 
L 702.729425 307.567963 
L 707.868368 311.643966 
L 716.169736 318.56559 
L 724.734641 325.611329 
L 730.927725 330.447583 
L 736.330204 334.394311 
L 741.205611 337.687963 
L 745.685715 340.45263 
L 749.902283 342.795142 
L 753.855316 344.737763 
L 757.544813 346.309151 
L 763.342594 348.461779 
L 767.822698 349.866694 
L 772.302802 351.04305 
L 776.914674 352.023264 
L 781.526545 352.777586 
L 786.270184 353.326509 
L 791.013824 353.654205 
L 795.889231 353.769942 
L 800.896406 353.665724 
L 807.880097 353.255884 
L 813.809646 352.680676 
L 819.343892 351.947732 
L 819.343892 351.947732 
" clip-path="url(#p3a9b6a0b04)" style="fill: none; stroke: #808080; stroke-opacity: 0.5; stroke-width: 6; stroke-linecap: square"/>
   </g>
   <g id="matplotlib.axis_3">
    <g id="xtick_8">
     <g id="line2d_17">
      <g>
       <use xlink:href="#m5a9dcd862e" x="94.752983" y="392.24" style="stroke: #000000; stroke-width: 0.8"/>
      </g>
     </g>
     <g id="text_6">
      <!-- 0 -->
      <g transform="translate(91.571733 406.838437) scale(0.1 -0.1)">
       <use xlink:href="#DejaVuSans-30"/>
      </g>
     </g>
    </g>
    <g id="xtick_9">
     <g id="line2d_18">
      <g>
       <use xlink:href="#m5a9dcd862e" x="215.518134" y="392.24" style="stroke: #000000; stroke-width: 0.8"/>
      </g>
     </g>
     <g id="text_7">
      <!-- 2 -->
      <g transform="translate(212.336884 406.838437) scale(0.1 -0.1)">
       <defs>
        <path id="DejaVuSans-32" d="M 1228 531 
L 3431 531 
L 3431 0 
L 469 0 
L 469 531 
Q 828 903 1448 1529 
Q 2069 2156 2228 2338 
Q 2531 2678 2651 2914 
Q 2772 3150 2772 3378 
Q 2772 3750 2511 3984 
Q 2250 4219 1831 4219 
Q 1534 4219 1204 4116 
Q 875 4013 500 3803 
L 500 4441 
Q 881 4594 1212 4672 
Q 1544 4750 1819 4750 
Q 2544 4750 2975 4387 
Q 3406 4025 3406 3419 
Q 3406 3131 3298 2873 
Q 3191 2616 2906 2266 
Q 2828 2175 2409 1742 
Q 1991 1309 1228 531 
z
" transform="scale(0.015625)"/>
       </defs>
       <use xlink:href="#DejaVuSans-32"/>
      </g>
     </g>
    </g>
    <g id="xtick_10">
     <g id="line2d_19">
      <g>
       <use xlink:href="#m5a9dcd862e" x="336.283286" y="392.24" style="stroke: #000000; stroke-width: 0.8"/>
      </g>
     </g>
     <g id="text_8">
      <!-- 4 -->
      <g transform="translate(333.102036 406.838437) scale(0.1 -0.1)">
       <defs>
        <path id="DejaVuSans-34" d="M 2419 4116 
L 825 1625 
L 2419 1625 
L 2419 4116 
z
M 2253 4666 
L 3047 4666 
L 3047 1625 
L 3713 1625 
L 3713 1100 
L 3047 1100 
L 3047 0 
L 2419 0 
L 2419 1100 
L 313 1100 
L 313 1709 
L 2253 4666 
z
" transform="scale(0.015625)"/>
       </defs>
       <use xlink:href="#DejaVuSans-34"/>
      </g>
     </g>
    </g>
    <g id="xtick_11">
     <g id="line2d_20">
      <g>
       <use xlink:href="#m5a9dcd862e" x="457.048438" y="392.24" style="stroke: #000000; stroke-width: 0.8"/>
      </g>
     </g>
     <g id="text_9">
      <!-- 6 -->
      <g transform="translate(453.867188 406.838437) scale(0.1 -0.1)">
       <defs>
        <path id="DejaVuSans-36" d="M 2113 2584 
Q 1688 2584 1439 2293 
Q 1191 2003 1191 1497 
Q 1191 994 1439 701 
Q 1688 409 2113 409 
Q 2538 409 2786 701 
Q 3034 994 3034 1497 
Q 3034 2003 2786 2293 
Q 2538 2584 2113 2584 
z
M 3366 4563 
L 3366 3988 
Q 3128 4100 2886 4159 
Q 2644 4219 2406 4219 
Q 1781 4219 1451 3797 
Q 1122 3375 1075 2522 
Q 1259 2794 1537 2939 
Q 1816 3084 2150 3084 
Q 2853 3084 3261 2657 
Q 3669 2231 3669 1497 
Q 3669 778 3244 343 
Q 2819 -91 2113 -91 
Q 1303 -91 875 529 
Q 447 1150 447 2328 
Q 447 3434 972 4092 
Q 1497 4750 2381 4750 
Q 2619 4750 2861 4703 
Q 3103 4656 3366 4563 
z
" transform="scale(0.015625)"/>
       </defs>
       <use xlink:href="#DejaVuSans-36"/>
      </g>
     </g>
    </g>
    <g id="xtick_12">
     <g id="line2d_21">
      <g>
       <use xlink:href="#m5a9dcd862e" x="577.813589" y="392.24" style="stroke: #000000; stroke-width: 0.8"/>
      </g>
     </g>
     <g id="text_10">
      <!-- 8 -->
      <g transform="translate(574.632339 406.838437) scale(0.1 -0.1)">
       <defs>
        <path id="DejaVuSans-38" d="M 2034 2216 
Q 1584 2216 1326 1975 
Q 1069 1734 1069 1313 
Q 1069 891 1326 650 
Q 1584 409 2034 409 
Q 2484 409 2743 651 
Q 3003 894 3003 1313 
Q 3003 1734 2745 1975 
Q 2488 2216 2034 2216 
z
M 1403 2484 
Q 997 2584 770 2862 
Q 544 3141 544 3541 
Q 544 4100 942 4425 
Q 1341 4750 2034 4750 
Q 2731 4750 3128 4425 
Q 3525 4100 3525 3541 
Q 3525 3141 3298 2862 
Q 3072 2584 2669 2484 
Q 3125 2378 3379 2068 
Q 3634 1759 3634 1313 
Q 3634 634 3220 271 
Q 2806 -91 2034 -91 
Q 1263 -91 848 271 
Q 434 634 434 1313 
Q 434 1759 690 2068 
Q 947 2378 1403 2484 
z
M 1172 3481 
Q 1172 3119 1398 2916 
Q 1625 2713 2034 2713 
Q 2441 2713 2670 2916 
Q 2900 3119 2900 3481 
Q 2900 3844 2670 4047 
Q 2441 4250 2034 4250 
Q 1625 4250 1398 4047 
Q 1172 3844 1172 3481 
z
" transform="scale(0.015625)"/>
       </defs>
       <use xlink:href="#DejaVuSans-38"/>
      </g>
     </g>
    </g>
    <g id="xtick_13">
     <g id="line2d_22">
      <g>
       <use xlink:href="#m5a9dcd862e" x="698.578741" y="392.24" style="stroke: #000000; stroke-width: 0.8"/>
      </g>
     </g>
     <g id="text_11">
      <!-- 10 -->
      <g transform="translate(692.216241 406.838437) scale(0.1 -0.1)">
       <use xlink:href="#DejaVuSans-31"/>
       <use xlink:href="#DejaVuSans-30" transform="translate(63.623047 0)"/>
      </g>
     </g>
    </g>
    <g id="xtick_14">
     <g id="line2d_23">
      <g>
       <use xlink:href="#m5a9dcd862e" x="819.343892" y="392.24" style="stroke: #000000; stroke-width: 0.8"/>
      </g>
     </g>
     <g id="text_12">
      <!-- 12 -->
      <g transform="translate(812.981392 406.838437) scale(0.1 -0.1)">
       <use xlink:href="#DejaVuSans-31"/>
       <use xlink:href="#DejaVuSans-32" transform="translate(63.623047 0)"/>
      </g>
     </g>
    </g>
    <g id="text_13">
     <!-- Time -->
     <g transform="translate(444.814844 420.516562) scale(0.1 -0.1)">
      <defs>
       <path id="DejaVuSans-54" d="M -19 4666 
L 3928 4666 
L 3928 4134 
L 2272 4134 
L 2272 0 
L 1638 0 
L 1638 4134 
L -19 4134 
L -19 4666 
z
" transform="scale(0.015625)"/>
       <path id="DejaVuSans-69" d="M 603 3500 
L 1178 3500 
L 1178 0 
L 603 0 
L 603 3500 
z
M 603 4863 
L 1178 4863 
L 1178 4134 
L 603 4134 
L 603 4863 
z
" transform="scale(0.015625)"/>
       <path id="DejaVuSans-6d" d="M 3328 2828 
Q 3544 3216 3844 3400 
Q 4144 3584 4550 3584 
Q 5097 3584 5394 3201 
Q 5691 2819 5691 2113 
L 5691 0 
L 5113 0 
L 5113 2094 
Q 5113 2597 4934 2840 
Q 4756 3084 4391 3084 
Q 3944 3084 3684 2787 
Q 3425 2491 3425 1978 
L 3425 0 
L 2847 0 
L 2847 2094 
Q 2847 2600 2669 2842 
Q 2491 3084 2119 3084 
Q 1678 3084 1418 2786 
Q 1159 2488 1159 1978 
L 1159 0 
L 581 0 
L 581 3500 
L 1159 3500 
L 1159 2956 
Q 1356 3278 1631 3431 
Q 1906 3584 2284 3584 
Q 2666 3584 2933 3390 
Q 3200 3197 3328 2828 
z
" transform="scale(0.015625)"/>
       <path id="DejaVuSans-65" d="M 3597 1894 
L 3597 1613 
L 953 1613 
Q 991 1019 1311 708 
Q 1631 397 2203 397 
Q 2534 397 2845 478 
Q 3156 559 3463 722 
L 3463 178 
Q 3153 47 2828 -22 
Q 2503 -91 2169 -91 
Q 1331 -91 842 396 
Q 353 884 353 1716 
Q 353 2575 817 3079 
Q 1281 3584 2069 3584 
Q 2775 3584 3186 3129 
Q 3597 2675 3597 1894 
z
M 3022 2063 
Q 3016 2534 2758 2815 
Q 2500 3097 2075 3097 
Q 1594 3097 1305 2825 
Q 1016 2553 972 2059 
L 3022 2063 
z
" transform="scale(0.015625)"/>
      </defs>
      <use xlink:href="#DejaVuSans-54"/>
      <use xlink:href="#DejaVuSans-69" transform="translate(57.958984 0)"/>
      <use xlink:href="#DejaVuSans-6d" transform="translate(85.742188 0)"/>
      <use xlink:href="#DejaVuSans-65" transform="translate(183.154297 0)"/>
     </g>
    </g>
   </g>
   <g id="matplotlib.axis_4">
    <g id="ytick_5">
     <g id="line2d_24">
      <g>
       <use xlink:href="#meaa6ed020b" x="58.523438" y="378.540639" style="stroke: #000000; stroke-width: 0.8"/>
      </g>
     </g>
     <g id="text_14">
      <!-- −0.50 -->
      <g transform="translate(20.878125 382.339858) scale(0.1 -0.1)">
       <use xlink:href="#DejaVuSans-2212"/>
       <use xlink:href="#DejaVuSans-30" transform="translate(83.789062 0)"/>
       <use xlink:href="#DejaVuSans-2e" transform="translate(147.412109 0)"/>
       <use xlink:href="#DejaVuSans-35" transform="translate(179.199219 0)"/>
       <use xlink:href="#DejaVuSans-30" transform="translate(242.822266 0)"/>
      </g>
     </g>
    </g>
    <g id="ytick_6">
     <g id="line2d_25">
      <g>
       <use xlink:href="#meaa6ed020b" x="58.523438" y="355.660831" style="stroke: #000000; stroke-width: 0.8"/>
      </g>
     </g>
     <g id="text_15">
      <!-- −0.25 -->
      <g transform="translate(20.878125 359.46005) scale(0.1 -0.1)">
       <use xlink:href="#DejaVuSans-2212"/>
       <use xlink:href="#DejaVuSans-30" transform="translate(83.789062 0)"/>
       <use xlink:href="#DejaVuSans-2e" transform="translate(147.412109 0)"/>
       <use xlink:href="#DejaVuSans-32" transform="translate(179.199219 0)"/>
       <use xlink:href="#DejaVuSans-35" transform="translate(242.822266 0)"/>
      </g>
     </g>
    </g>
    <g id="ytick_7">
     <g id="line2d_26">
      <g>
       <use xlink:href="#meaa6ed020b" x="58.523438" y="332.781023" style="stroke: #000000; stroke-width: 0.8"/>
      </g>
     </g>
     <g id="text_16">
      <!-- 0.00 -->
      <g transform="translate(29.257813 336.580242) scale(0.1 -0.1)">
       <use xlink:href="#DejaVuSans-30"/>
       <use xlink:href="#DejaVuSans-2e" transform="translate(63.623047 0)"/>
       <use xlink:href="#DejaVuSans-30" transform="translate(95.410156 0)"/>
       <use xlink:href="#DejaVuSans-30" transform="translate(159.033203 0)"/>
      </g>
     </g>
    </g>
    <g id="ytick_8">
     <g id="line2d_27">
      <g>
       <use xlink:href="#meaa6ed020b" x="58.523438" y="309.901215" style="stroke: #000000; stroke-width: 0.8"/>
      </g>
     </g>
     <g id="text_17">
      <!-- 0.25 -->
      <g transform="translate(29.257813 313.700433) scale(0.1 -0.1)">
       <use xlink:href="#DejaVuSans-30"/>
       <use xlink:href="#DejaVuSans-2e" transform="translate(63.623047 0)"/>
       <use xlink:href="#DejaVuSans-32" transform="translate(95.410156 0)"/>
       <use xlink:href="#DejaVuSans-35" transform="translate(159.033203 0)"/>
      </g>
     </g>
    </g>
    <g id="ytick_9">
     <g id="line2d_28">
      <g>
       <use xlink:href="#meaa6ed020b" x="58.523438" y="287.021406" style="stroke: #000000; stroke-width: 0.8"/>
      </g>
     </g>
     <g id="text_18">
      <!-- 0.50 -->
      <g transform="translate(29.257813 290.820625) scale(0.1 -0.1)">
       <use xlink:href="#DejaVuSans-30"/>
       <use xlink:href="#DejaVuSans-2e" transform="translate(63.623047 0)"/>
       <use xlink:href="#DejaVuSans-35" transform="translate(95.410156 0)"/>
       <use xlink:href="#DejaVuSans-30" transform="translate(159.033203 0)"/>
      </g>
     </g>
    </g>
    <g id="ytick_10">
     <g id="line2d_29">
      <g>
       <use xlink:href="#meaa6ed020b" x="58.523438" y="264.141598" style="stroke: #000000; stroke-width: 0.8"/>
      </g>
     </g>
     <g id="text_19">
      <!-- 0.75 -->
      <g transform="translate(29.257813 267.940817) scale(0.1 -0.1)">
       <defs>
        <path id="DejaVuSans-37" d="M 525 4666 
L 3525 4666 
L 3525 4397 
L 1831 0 
L 1172 0 
L 2766 4134 
L 525 4134 
L 525 4666 
z
" transform="scale(0.015625)"/>
       </defs>
       <use xlink:href="#DejaVuSans-30"/>
       <use xlink:href="#DejaVuSans-2e" transform="translate(63.623047 0)"/>
       <use xlink:href="#DejaVuSans-37" transform="translate(95.410156 0)"/>
       <use xlink:href="#DejaVuSans-35" transform="translate(159.033203 0)"/>
      </g>
     </g>
    </g>
    <g id="ytick_11">
     <g id="line2d_30">
      <g>
       <use xlink:href="#meaa6ed020b" x="58.523438" y="241.26179" style="stroke: #000000; stroke-width: 0.8"/>
      </g>
     </g>
     <g id="text_20">
      <!-- 1.00 -->
      <g transform="translate(29.257813 245.061009) scale(0.1 -0.1)">
       <use xlink:href="#DejaVuSans-31"/>
       <use xlink:href="#DejaVuSans-2e" transform="translate(63.623047 0)"/>
       <use xlink:href="#DejaVuSans-30" transform="translate(95.410156 0)"/>
       <use xlink:href="#DejaVuSans-30" transform="translate(159.033203 0)"/>
      </g>
     </g>
    </g>
    <g id="text_21">
     <!-- $dx1/dt$ -->
     <g transform="translate(14.798438 323.815) rotate(-90) scale(0.1 -0.1)">
      <use xlink:href="#DejaVuSans-Oblique-64" transform="translate(0 0.015625)"/>
      <use xlink:href="#DejaVuSans-Oblique-78" transform="translate(63.476562 0.015625)"/>
      <use xlink:href="#DejaVuSans-31" transform="translate(122.65625 0.015625)"/>
      <use xlink:href="#DejaVuSans-2f" transform="translate(186.279297 0.015625)"/>
      <use xlink:href="#DejaVuSans-Oblique-64" transform="translate(219.970703 0.015625)"/>
      <use xlink:href="#DejaVuSans-Oblique-74" transform="translate(283.447266 0.015625)"/>
     </g>
    </g>
   </g>
   <g id="line2d_31">
    <path d="M 94.752983 332.781023 
L 96.861267 326.753158 
L 98.837783 321.741614 
L 100.8143 317.317921 
L 102.790816 313.450787 
L 104.635565 310.31194 
L 106.480314 307.596235 
L 108.325062 305.273825 
L 110.169811 303.315571 
L 112.014559 301.693188 
L 113.859308 300.379372 
L 115.704057 299.347905 
L 117.548805 298.573734 
L 119.393554 298.033043 
L 121.37007 297.687248 
L 123.478355 297.556026 
L 125.718406 297.65324 
L 128.090226 297.986664 
L 130.725581 298.593607 
L 133.624472 299.499629 
L 136.918666 300.771728 
L 140.739931 302.493778 
L 145.48357 304.891398 
L 151.940191 308.429643 
L 178.030207 322.98604 
L 187.122182 327.664171 
L 196.741229 332.36147 
L 207.28265 337.25529 
L 220.064122 342.931783 
L 237.193931 350.280023 
L 251.556617 356.229861 
L 261.175663 359.990194 
L 268.42289 362.591384 
L 274.220671 364.445494 
L 279.227846 365.820652 
L 283.70795 366.82103 
L 287.660983 367.480849 
L 291.35048 367.870956 
L 294.776442 368.006306 
L 297.938868 367.909842 
L 300.969526 367.59291 
L 303.868417 367.061289 
L 306.63554 366.324803 
L 309.270895 365.397254 
L 311.90625 364.232007 
L 314.541606 362.812658 
L 317.045193 361.21465 
L 319.548781 359.360722 
L 322.052368 357.239689 
L 324.687723 354.707998 
L 327.323078 351.861104 
L 329.958434 348.693341 
L 332.725556 345.019623 
L 335.624447 340.791916 
L 338.655106 335.96786 
L 341.817532 330.515381 
L 345.243494 324.166675 
L 349.196526 316.351583 
L 353.940166 306.455422 
L 367.512245 277.782757 
L 370.938207 271.238668 
L 373.837097 266.149984 
L 376.472453 261.95788 
L 378.844272 258.589504 
L 381.084324 255.797048 
L 383.060841 253.670787 
L 384.905589 251.988163 
L 386.750338 250.60945 
L 388.463319 249.609841 
L 390.044532 248.932056 
L 391.625745 248.492381 
L 393.206958 248.292143 
L 394.788171 248.331126 
L 396.369384 248.607576 
L 397.950597 249.11822 
L 399.531811 249.858304 
L 401.244791 250.911762 
L 403.08954 252.32809 
L 405.066056 254.153833 
L 407.174341 256.430029 
L 409.414392 259.189299 
L 411.91798 262.643371 
L 414.685103 266.849352 
L 417.847529 272.06171 
L 421.800562 279.033329 
L 427.730111 290.006828 
L 436.426783 306.059283 
L 441.038655 314.086039 
L 444.991688 320.528427 
L 448.681185 326.116366 
L 452.107147 330.909916 
L 455.401341 335.147339 
L 458.695534 339.017684 
L 461.857961 342.392439 
L 465.020387 345.443139 
L 468.182813 348.183532 
L 471.345239 350.630439 
L 474.507666 352.802858 
L 477.80186 354.7959 
L 481.227821 356.601393 
L 484.785551 358.215924 
L 488.475048 359.640196 
L 492.296313 360.878449 
L 496.381114 361.969817 
L 500.861218 362.93009 
L 505.736625 363.738279 
L 511.007335 364.382615 
L 516.805116 364.867165 
L 523.261737 365.182387 
L 530.245428 365.300658 
L 537.360887 365.202361 
L 544.344578 364.885691 
L 550.801198 364.37554 
L 556.862515 363.674139 
L 562.396761 362.812165 
L 567.535704 361.791403 
L 572.411111 360.598888 
L 577.022982 359.245636 
L 581.503086 357.699979 
L 585.851422 355.963664 
L 590.067991 354.042845 
L 594.284559 351.876263 
L 598.369359 349.530929 
L 602.585928 346.853511 
L 606.934264 343.826132 
L 611.546135 340.335701 
L 616.421543 336.362807 
L 621.955788 331.558526 
L 629.071247 325.065166 
L 642.906862 312.377783 
L 647.782269 308.252735 
L 651.86707 305.079375 
L 655.556567 302.491053 
L 658.850761 300.444709 
L 661.88142 298.810424 
L 664.78031 297.489302 
L 667.547433 296.462509 
L 670.314556 295.6741 
L 672.949911 295.150549 
L 675.585267 294.851397 
L 678.220622 294.776447 
L 680.855977 294.922758 
L 683.491332 295.284703 
L 686.258455 295.887798 
L 689.157346 296.753031 
L 692.188004 297.90077 
L 695.35043 299.34241 
L 698.776392 301.156915 
L 702.465889 303.367014 
L 706.682458 306.162093 
L 711.689633 309.763433 
L 718.673324 315.090846 
L 732.113635 325.381103 
L 738.174952 329.715772 
L 743.57743 333.307834 
L 748.584605 336.37174 
L 753.328245 339.021092 
L 758.071884 341.416198 
L 762.815523 343.557406 
L 767.559163 345.450209 
L 772.302802 347.101873 
L 777.046441 348.522158 
L 781.921848 349.752642 
L 786.929023 350.787971 
L 792.067966 351.624448 
L 797.338676 352.259488 
L 802.872922 352.698983 
L 808.407168 352.918141 
L 814.073182 352.922179 
L 819.343892 352.731266 
L 819.343892 352.731266 
" clip-path="url(#p3a9b6a0b04)" style="fill: none; stroke-dasharray: 12.95,5.6; stroke-dashoffset: 0; stroke: #0000ff; stroke-opacity: 0.8; stroke-width: 3.5"/>
   </g>
   <g id="patch_8">
    <path d="M 58.523438 392.24 
L 58.523438 223.09 
" style="fill: none; stroke: #000000; stroke-width: 0.8; stroke-linejoin: miter; stroke-linecap: square"/>
   </g>
   <g id="patch_9">
    <path d="M 855.573438 392.24 
L 855.573438 223.09 
" style="fill: none; stroke: #000000; stroke-width: 0.8; stroke-linejoin: miter; stroke-linecap: square"/>
   </g>
   <g id="patch_10">
    <path d="M 58.523438 392.24 
L 855.573438 392.24 
" style="fill: none; stroke: #000000; stroke-width: 0.8; stroke-linejoin: miter; stroke-linecap: square"/>
   </g>
   <g id="patch_11">
    <path d="M 58.523438 223.09 
L 855.573438 223.09 
" style="fill: none; stroke: #000000; stroke-width: 0.8; stroke-linejoin: miter; stroke-linecap: square"/>
   </g>
   <g id="line2d_32">
    <path d="M 94.752983 329.586695 
L 96.465964 324.977218 
L 98.047177 321.307725 
L 99.62839 318.174331 
L 101.209603 315.547681 
L 102.659049 313.557837 
L 104.108494 311.93928 
L 105.557939 310.663544 
L 107.007385 309.702021 
L 108.45683 309.026304 
L 109.906275 308.608494 
L 111.355721 308.421452 
L 112.936934 308.449899 
L 114.649915 308.718046 
L 116.494663 309.239724 
L 118.602947 310.075963 
L 121.106535 311.322343 
L 124.268961 313.161528 
L 129.671439 316.611611 
L 136.128059 320.659566 
L 140.344628 323.038515 
L 144.165893 324.949268 
L 147.987158 326.60947 
L 151.808423 328.019495 
L 155.629688 329.191551 
L 159.582721 330.174455 
L 163.799289 330.994706 
L 168.41116 331.661237 
L 173.550103 332.171866 
L 179.479652 332.527556 
L 186.726879 332.727603 
L 197.795371 332.781023 
L 211.630986 332.891563 
L 218.878212 333.174312 
L 224.807762 333.6243 
L 229.814936 334.220734 
L 234.29504 334.974738 
L 238.248073 335.85712 
L 241.93757 336.903874 
L 245.363532 338.106159 
L 248.525958 339.447952 
L 251.556617 340.977178 
L 254.455507 342.696874 
L 257.22263 344.606579 
L 259.857986 346.701897 
L 262.361573 348.974144 
L 264.86516 351.554151 
L 267.23698 354.315016 
L 269.6088 357.418407 
L 271.980619 360.901395 
L 274.352439 364.804498 
L 276.592491 368.916299 
L 278.832543 373.482656 
L 281.072595 378.54729 
L 283.312647 384.157389 
L 285.552699 390.363777 
L 287.792751 397.220628 
L 290.032802 404.780033 
L 292.272854 413.102494 
L 294.512906 422.254226 
L 296.429634 430.79625 
L 296.429634 430.79625 
" clip-path="url(#p3a9b6a0b04)" style="fill: none; stroke-dasharray: 22.4,5.6,3.5,5.6; stroke-dashoffset: 0; stroke: #008000; stroke-opacity: 0.8; stroke-width: 3.5"/>
   </g>
   <g id="line2d_33">
    <path d="M 94.752983 305.498546 
L 96.729499 300.123952 
L 98.574248 295.712072 
L 100.418997 291.853343 
L 102.263745 288.516621 
L 103.976726 285.856658 
L 105.689707 283.590906 
L 107.402688 281.692571 
L 109.115669 280.135457 
L 110.82865 278.894073 
L 112.54163 277.943729 
L 114.254611 277.260616 
L 115.967592 276.821874 
L 117.680573 276.605646 
L 119.525322 276.597785 
L 121.501838 276.82106 
L 123.610122 277.292227 
L 125.850174 278.021481 
L 128.353762 279.073089 
L 131.252652 280.54688 
L 134.546846 282.482772 
L 138.499879 285.072355 
L 143.770589 288.812803 
L 153.1261 295.786542 
L 163.008682 303.05025 
L 169.992374 307.90932 
L 176.580762 312.225027 
L 183.16915 316.272047 
L 189.889305 320.139259 
L 196.872997 323.898351 
L 204.120223 327.542818 
L 211.762753 331.136254 
L 220.064122 334.791185 
L 229.156098 338.545969 
L 238.775144 342.276263 
L 247.735352 345.521165 
L 255.773185 348.204857 
L 262.756876 350.310781 
L 268.818193 351.913374 
L 274.088904 353.086481 
L 278.832543 353.921864 
L 283.180879 354.463437 
L 287.133912 354.733659 
L 290.823409 354.761532 
L 294.249371 354.565773 
L 297.543565 354.151666 
L 300.574223 353.553324 
L 303.604882 352.725412 
L 306.503772 351.698927 
L 309.270895 350.487431 
L 312.038018 349.033051 
L 314.805141 347.320033 
L 317.572264 345.333668 
L 320.339387 343.060807 
L 323.10651 340.49042 
L 325.873633 337.614215 
L 328.772524 334.267746 
L 331.671414 330.579473 
L 334.702073 326.363589 
L 337.864499 321.58679 
L 341.290461 316.007027 
L 345.111726 309.346793 
L 349.723597 300.831085 
L 357.366127 286.151104 
L 363.032141 275.478353 
L 366.721638 268.974932 
L 369.752297 264.051106 
L 372.51942 259.975657 
L 374.891239 256.857755 
L 377.131291 254.270943 
L 379.239576 252.183023 
L 381.084324 250.650964 
L 382.929073 249.408647 
L 384.642054 248.524812 
L 386.223267 247.946412 
L 387.80448 247.600594 
L 389.385693 247.490215 
L 390.966906 247.616697 
L 392.548119 247.980011 
L 394.129332 248.578656 
L 395.710545 249.409666 
L 397.423526 250.566984 
L 399.268275 252.10383 
L 401.113024 253.930347 
L 403.08954 256.19253 
L 405.329592 259.1126 
L 407.701412 262.58054 
L 410.336767 266.83341 
L 413.367425 272.158588 
L 417.056923 279.118054 
L 421.93233 288.837052 
L 434.054963 313.208404 
L 438.271532 321.08887 
L 441.961029 327.537317 
L 445.386991 333.092982 
L 448.681185 338.013468 
L 451.843611 342.334029 
L 454.874269 346.099435 
L 457.77316 349.359773 
L 460.672051 352.293281 
L 463.570942 354.910687 
L 466.469832 357.225846 
L 469.368723 359.255069 
L 472.267614 361.016515 
L 475.298272 362.592847 
L 478.328931 363.920766 
L 481.491357 365.064252 
L 484.785551 366.017606 
L 488.211513 366.779316 
L 491.90101 367.368751 
L 495.854043 367.769851 
L 500.070611 367.974014 
L 504.81425 367.974156 
L 510.084961 367.743592 
L 516.01451 367.256174 
L 522.866433 366.461953 
L 530.508963 365.348167 
L 538.546797 363.95088 
L 546.321095 362.376599 
L 553.436554 360.715687 
L 560.024941 358.951096 
L 565.954491 357.138014 
L 571.488737 355.218832 
L 576.759447 353.156945 
L 581.766622 350.961181 
L 586.642029 348.58049 
L 591.385668 346.018421 
L 596.129308 343.200986 
L 600.872947 340.120302 
L 605.880122 336.596081 
L 611.150832 332.612229 
L 617.212149 327.741805 
L 625.249982 320.970701 
L 637.372616 310.760452 
L 642.511559 306.735124 
L 646.728127 303.701106 
L 650.417624 301.309756 
L 653.843586 299.346846 
L 657.006012 297.785184 
L 660.036671 296.537798 
L 662.935562 295.590285 
L 665.702685 294.922079 
L 668.33804 294.508033 
L 670.973395 294.315606 
L 673.60875 294.346729 
L 676.244105 294.600598 
L 678.87946 295.073654 
L 681.646583 295.799338 
L 684.545474 296.799865 
L 687.576133 298.092006 
L 690.738559 299.691004 
L 694.164521 301.685891 
L 697.854018 304.100393 
L 702.070586 307.139724 
L 707.077761 311.041806 
L 714.061452 316.797673 
L 726.315854 326.914874 
L 732.113635 331.387698 
L 737.12081 334.978294 
L 741.732682 338.02169 
L 746.212786 340.714216 
L 750.561122 343.068249 
L 754.77769 345.104161 
L 758.994258 346.899793 
L 763.342594 348.506988 
L 767.69093 349.874444 
L 772.039266 351.012621 
L 776.51937 351.95823 
L 781.131242 352.705809 
L 785.874881 353.252394 
L 790.882056 353.603618 
L 796.152766 353.743959 
L 801.555245 353.665619 
L 807.221258 353.362624 
L 813.150807 352.817956 
L 819.212124 352.035139 
L 819.343892 352.015673 
L 819.343892 352.015673 
" clip-path="url(#p3a9b6a0b04)" style="fill: none; stroke-dasharray: 3.5,5.775; stroke-dashoffset: 0; stroke: #ff0000; stroke-opacity: 0.8; stroke-width: 3.5"/>
   </g>
  </g>
  <g id="text_22">
   <!-- Derivative Comparison (New Trajectory) -->
   <g transform="translate(274.410938 22.9975) scale(0.16 -0.16)">
    <defs>
     <path id="DejaVuSans-44" d="M 1259 4147 
L 1259 519 
L 2022 519 
Q 2988 519 3436 956 
Q 3884 1394 3884 2338 
Q 3884 3275 3436 3711 
Q 2988 4147 2022 4147 
L 1259 4147 
z
M 628 4666 
L 1925 4666 
Q 3281 4666 3915 4102 
Q 4550 3538 4550 2338 
Q 4550 1131 3912 565 
Q 3275 0 1925 0 
L 628 0 
L 628 4666 
z
" transform="scale(0.015625)"/>
     <path id="DejaVuSans-72" d="M 2631 2963 
Q 2534 3019 2420 3045 
Q 2306 3072 2169 3072 
Q 1681 3072 1420 2755 
Q 1159 2438 1159 1844 
L 1159 0 
L 581 0 
L 581 3500 
L 1159 3500 
L 1159 2956 
Q 1341 3275 1631 3429 
Q 1922 3584 2338 3584 
Q 2397 3584 2469 3576 
Q 2541 3569 2628 3553 
L 2631 2963 
z
" transform="scale(0.015625)"/>
     <path id="DejaVuSans-76" d="M 191 3500 
L 800 3500 
L 1894 563 
L 2988 3500 
L 3597 3500 
L 2284 0 
L 1503 0 
L 191 3500 
z
" transform="scale(0.015625)"/>
     <path id="DejaVuSans-61" d="M 2194 1759 
Q 1497 1759 1228 1600 
Q 959 1441 959 1056 
Q 959 750 1161 570 
Q 1363 391 1709 391 
Q 2188 391 2477 730 
Q 2766 1069 2766 1631 
L 2766 1759 
L 2194 1759 
z
M 3341 1997 
L 3341 0 
L 2766 0 
L 2766 531 
Q 2569 213 2275 61 
Q 1981 -91 1556 -91 
Q 1019 -91 701 211 
Q 384 513 384 1019 
Q 384 1609 779 1909 
Q 1175 2209 1959 2209 
L 2766 2209 
L 2766 2266 
Q 2766 2663 2505 2880 
Q 2244 3097 1772 3097 
Q 1472 3097 1187 3025 
Q 903 2953 641 2809 
L 641 3341 
Q 956 3463 1253 3523 
Q 1550 3584 1831 3584 
Q 2591 3584 2966 3190 
Q 3341 2797 3341 1997 
z
" transform="scale(0.015625)"/>
     <path id="DejaVuSans-74" d="M 1172 4494 
L 1172 3500 
L 2356 3500 
L 2356 3053 
L 1172 3053 
L 1172 1153 
Q 1172 725 1289 603 
Q 1406 481 1766 481 
L 2356 481 
L 2356 0 
L 1766 0 
Q 1100 0 847 248 
Q 594 497 594 1153 
L 594 3053 
L 172 3053 
L 172 3500 
L 594 3500 
L 594 4494 
L 1172 4494 
z
" transform="scale(0.015625)"/>
     <path id="DejaVuSans-20" transform="scale(0.015625)"/>
     <path id="DejaVuSans-43" d="M 4122 4306 
L 4122 3641 
Q 3803 3938 3442 4084 
Q 3081 4231 2675 4231 
Q 1875 4231 1450 3742 
Q 1025 3253 1025 2328 
Q 1025 1406 1450 917 
Q 1875 428 2675 428 
Q 3081 428 3442 575 
Q 3803 722 4122 1019 
L 4122 359 
Q 3791 134 3420 21 
Q 3050 -91 2638 -91 
Q 1578 -91 968 557 
Q 359 1206 359 2328 
Q 359 3453 968 4101 
Q 1578 4750 2638 4750 
Q 3056 4750 3426 4639 
Q 3797 4528 4122 4306 
z
" transform="scale(0.015625)"/>
     <path id="DejaVuSans-6f" d="M 1959 3097 
Q 1497 3097 1228 2736 
Q 959 2375 959 1747 
Q 959 1119 1226 758 
Q 1494 397 1959 397 
Q 2419 397 2687 759 
Q 2956 1122 2956 1747 
Q 2956 2369 2687 2733 
Q 2419 3097 1959 3097 
z
M 1959 3584 
Q 2709 3584 3137 3096 
Q 3566 2609 3566 1747 
Q 3566 888 3137 398 
Q 2709 -91 1959 -91 
Q 1206 -91 779 398 
Q 353 888 353 1747 
Q 353 2609 779 3096 
Q 1206 3584 1959 3584 
z
" transform="scale(0.015625)"/>
     <path id="DejaVuSans-70" d="M 1159 525 
L 1159 -1331 
L 581 -1331 
L 581 3500 
L 1159 3500 
L 1159 2969 
Q 1341 3281 1617 3432 
Q 1894 3584 2278 3584 
Q 2916 3584 3314 3078 
Q 3713 2572 3713 1747 
Q 3713 922 3314 415 
Q 2916 -91 2278 -91 
Q 1894 -91 1617 61 
Q 1341 213 1159 525 
z
M 3116 1747 
Q 3116 2381 2855 2742 
Q 2594 3103 2138 3103 
Q 1681 3103 1420 2742 
Q 1159 2381 1159 1747 
Q 1159 1113 1420 752 
Q 1681 391 2138 391 
Q 2594 391 2855 752 
Q 3116 1113 3116 1747 
z
" transform="scale(0.015625)"/>
     <path id="DejaVuSans-73" d="M 2834 3397 
L 2834 2853 
Q 2591 2978 2328 3040 
Q 2066 3103 1784 3103 
Q 1356 3103 1142 2972 
Q 928 2841 928 2578 
Q 928 2378 1081 2264 
Q 1234 2150 1697 2047 
L 1894 2003 
Q 2506 1872 2764 1633 
Q 3022 1394 3022 966 
Q 3022 478 2636 193 
Q 2250 -91 1575 -91 
Q 1294 -91 989 -36 
Q 684 19 347 128 
L 347 722 
Q 666 556 975 473 
Q 1284 391 1588 391 
Q 1994 391 2212 530 
Q 2431 669 2431 922 
Q 2431 1156 2273 1281 
Q 2116 1406 1581 1522 
L 1381 1569 
Q 847 1681 609 1914 
Q 372 2147 372 2553 
Q 372 3047 722 3315 
Q 1072 3584 1716 3584 
Q 2034 3584 2315 3537 
Q 2597 3491 2834 3397 
z
" transform="scale(0.015625)"/>
     <path id="DejaVuSans-6e" d="M 3513 2113 
L 3513 0 
L 2938 0 
L 2938 2094 
Q 2938 2591 2744 2837 
Q 2550 3084 2163 3084 
Q 1697 3084 1428 2787 
Q 1159 2491 1159 1978 
L 1159 0 
L 581 0 
L 581 3500 
L 1159 3500 
L 1159 2956 
Q 1366 3272 1645 3428 
Q 1925 3584 2291 3584 
Q 2894 3584 3203 3211 
Q 3513 2838 3513 2113 
z
" transform="scale(0.015625)"/>
     <path id="DejaVuSans-28" d="M 1984 4856 
Q 1566 4138 1362 3434 
Q 1159 2731 1159 2009 
Q 1159 1288 1364 580 
Q 1569 -128 1984 -844 
L 1484 -844 
Q 1016 -109 783 600 
Q 550 1309 550 2009 
Q 550 2706 781 3412 
Q 1013 4119 1484 4856 
L 1984 4856 
z
" transform="scale(0.015625)"/>
     <path id="DejaVuSans-4e" d="M 628 4666 
L 1478 4666 
L 3547 763 
L 3547 4666 
L 4159 4666 
L 4159 0 
L 3309 0 
L 1241 3903 
L 1241 0 
L 628 0 
L 628 4666 
z
" transform="scale(0.015625)"/>
     <path id="DejaVuSans-77" d="M 269 3500 
L 844 3500 
L 1563 769 
L 2278 3500 
L 2956 3500 
L 3675 769 
L 4391 3500 
L 4966 3500 
L 4050 0 
L 3372 0 
L 2619 2869 
L 1863 0 
L 1184 0 
L 269 3500 
z
" transform="scale(0.015625)"/>
     <path id="DejaVuSans-6a" d="M 603 3500 
L 1178 3500 
L 1178 -63 
Q 1178 -731 923 -1031 
Q 669 -1331 103 -1331 
L -116 -1331 
L -116 -844 
L 38 -844 
Q 366 -844 484 -692 
Q 603 -541 603 -63 
L 603 3500 
z
M 603 4863 
L 1178 4863 
L 1178 4134 
L 603 4134 
L 603 4863 
z
" transform="scale(0.015625)"/>
     <path id="DejaVuSans-63" d="M 3122 3366 
L 3122 2828 
Q 2878 2963 2633 3030 
Q 2388 3097 2138 3097 
Q 1578 3097 1268 2742 
Q 959 2388 959 1747 
Q 959 1106 1268 751 
Q 1578 397 2138 397 
Q 2388 397 2633 464 
Q 2878 531 3122 666 
L 3122 134 
Q 2881 22 2623 -34 
Q 2366 -91 2075 -91 
Q 1284 -91 818 406 
Q 353 903 353 1747 
Q 353 2603 823 3093 
Q 1294 3584 2113 3584 
Q 2378 3584 2631 3529 
Q 2884 3475 3122 3366 
z
" transform="scale(0.015625)"/>
     <path id="DejaVuSans-79" d="M 2059 -325 
Q 1816 -950 1584 -1140 
Q 1353 -1331 966 -1331 
L 506 -1331 
L 506 -850 
L 844 -850 
Q 1081 -850 1212 -737 
Q 1344 -625 1503 -206 
L 1606 56 
L 191 3500 
L 800 3500 
L 1894 763 
L 2988 3500 
L 3597 3500 
L 2059 -325 
z
" transform="scale(0.015625)"/>
     <path id="DejaVuSans-29" d="M 513 4856 
L 1013 4856 
Q 1481 4119 1714 3412 
Q 1947 2706 1947 2009 
Q 1947 1309 1714 600 
Q 1481 -109 1013 -844 
L 513 -844 
Q 928 -128 1133 580 
Q 1338 1288 1338 2009 
Q 1338 2731 1133 3434 
Q 928 4138 513 4856 
z
" transform="scale(0.015625)"/>
    </defs>
    <use xlink:href="#DejaVuSans-44"/>
    <use xlink:href="#DejaVuSans-65" transform="translate(77.001953 0)"/>
    <use xlink:href="#DejaVuSans-72" transform="translate(138.525391 0)"/>
    <use xlink:href="#DejaVuSans-69" transform="translate(179.638672 0)"/>
    <use xlink:href="#DejaVuSans-76" transform="translate(207.421875 0)"/>
    <use xlink:href="#DejaVuSans-61" transform="translate(266.601562 0)"/>
    <use xlink:href="#DejaVuSans-74" transform="translate(327.880859 0)"/>
    <use xlink:href="#DejaVuSans-69" transform="translate(367.089844 0)"/>
    <use xlink:href="#DejaVuSans-76" transform="translate(394.873047 0)"/>
    <use xlink:href="#DejaVuSans-65" transform="translate(454.052734 0)"/>
    <use xlink:href="#DejaVuSans-20" transform="translate(515.576172 0)"/>
    <use xlink:href="#DejaVuSans-43" transform="translate(547.363281 0)"/>
    <use xlink:href="#DejaVuSans-6f" transform="translate(617.1875 0)"/>
    <use xlink:href="#DejaVuSans-6d" transform="translate(678.369141 0)"/>
    <use xlink:href="#DejaVuSans-70" transform="translate(775.78125 0)"/>
    <use xlink:href="#DejaVuSans-61" transform="translate(839.257812 0)"/>
    <use xlink:href="#DejaVuSans-72" transform="translate(900.537109 0)"/>
    <use xlink:href="#DejaVuSans-69" transform="translate(941.650391 0)"/>
    <use xlink:href="#DejaVuSans-73" transform="translate(969.433594 0)"/>
    <use xlink:href="#DejaVuSans-6f" transform="translate(1021.533203 0)"/>
    <use xlink:href="#DejaVuSans-6e" transform="translate(1082.714844 0)"/>
    <use xlink:href="#DejaVuSans-20" transform="translate(1146.09375 0)"/>
    <use xlink:href="#DejaVuSans-28" transform="translate(1177.880859 0)"/>
    <use xlink:href="#DejaVuSans-4e" transform="translate(1216.894531 0)"/>
    <use xlink:href="#DejaVuSans-65" transform="translate(1291.699219 0)"/>
    <use xlink:href="#DejaVuSans-77" transform="translate(1353.222656 0)"/>
    <use xlink:href="#DejaVuSans-20" transform="translate(1435.009766 0)"/>
    <use xlink:href="#DejaVuSans-54" transform="translate(1466.796875 0)"/>
    <use xlink:href="#DejaVuSans-72" transform="translate(1513.130859 0)"/>
    <use xlink:href="#DejaVuSans-61" transform="translate(1554.244141 0)"/>
    <use xlink:href="#DejaVuSans-6a" transform="translate(1615.523438 0)"/>
    <use xlink:href="#DejaVuSans-65" transform="translate(1643.306641 0)"/>
    <use xlink:href="#DejaVuSans-63" transform="translate(1704.830078 0)"/>
    <use xlink:href="#DejaVuSans-74" transform="translate(1759.810547 0)"/>
    <use xlink:href="#DejaVuSans-6f" transform="translate(1799.019531 0)"/>
    <use xlink:href="#DejaVuSans-72" transform="translate(1860.201172 0)"/>
    <use xlink:href="#DejaVuSans-79" transform="translate(1901.314453 0)"/>
    <use xlink:href="#DejaVuSans-29" transform="translate(1960.494141 0)"/>
   </g>
  </g>
  <g id="legend_1">
   <g id="patch_12">
    <path d="M 750.501562 66.7125 
L 861.573437 66.7125 
Q 863.573437 66.7125 863.573437 64.7125 
L 863.573437 7 
Q 863.573437 5 861.573437 5 
L 750.501562 5 
Q 748.501562 5 748.501562 7 
L 748.501562 64.7125 
Q 748.501562 66.7125 750.501562 66.7125 
z
" style="fill: #ffffff; opacity: 0.9; stroke: #cccccc; stroke-linejoin: miter"/>
   </g>
   <g id="line2d_34">
    <path d="M 752.501562 13.098438 
L 762.501562 13.098438 
L 772.501562 13.098438 
" style="fill: none; stroke: #808080; stroke-opacity: 0.5; stroke-width: 6; stroke-linecap: square"/>
   </g>
   <g id="text_23">
    <!-- True Derivative -->
    <g transform="translate(780.501562 16.598438) scale(0.1 -0.1)">
     <defs>
      <path id="DejaVuSans-75" d="M 544 1381 
L 544 3500 
L 1119 3500 
L 1119 1403 
Q 1119 906 1312 657 
Q 1506 409 1894 409 
Q 2359 409 2629 706 
Q 2900 1003 2900 1516 
L 2900 3500 
L 3475 3500 
L 3475 0 
L 2900 0 
L 2900 538 
Q 2691 219 2414 64 
Q 2138 -91 1772 -91 
Q 1169 -91 856 284 
Q 544 659 544 1381 
z
M 1991 3584 
L 1991 3584 
z
" transform="scale(0.015625)"/>
     </defs>
     <use xlink:href="#DejaVuSans-54"/>
     <use xlink:href="#DejaVuSans-72" transform="translate(46.333984 0)"/>
     <use xlink:href="#DejaVuSans-75" transform="translate(87.447266 0)"/>
     <use xlink:href="#DejaVuSans-65" transform="translate(150.826172 0)"/>
     <use xlink:href="#DejaVuSans-20" transform="translate(212.349609 0)"/>
     <use xlink:href="#DejaVuSans-44" transform="translate(244.136719 0)"/>
     <use xlink:href="#DejaVuSans-65" transform="translate(321.138672 0)"/>
     <use xlink:href="#DejaVuSans-72" transform="translate(382.662109 0)"/>
     <use xlink:href="#DejaVuSans-69" transform="translate(423.775391 0)"/>
     <use xlink:href="#DejaVuSans-76" transform="translate(451.558594 0)"/>
     <use xlink:href="#DejaVuSans-61" transform="translate(510.738281 0)"/>
     <use xlink:href="#DejaVuSans-74" transform="translate(572.017578 0)"/>
     <use xlink:href="#DejaVuSans-69" transform="translate(611.226562 0)"/>
     <use xlink:href="#DejaVuSans-76" transform="translate(639.009766 0)"/>
     <use xlink:href="#DejaVuSans-65" transform="translate(698.189453 0)"/>
    </g>
   </g>
   <g id="line2d_35">
    <path d="M 752.501562 27.776563 
L 762.501562 27.776563 
L 772.501562 27.776563 
" style="fill: none; stroke-dasharray: 3.5,5.775; stroke-dashoffset: 0; stroke: #ff0000; stroke-opacity: 0.8; stroke-width: 3.5"/>
   </g>
   <g id="text_24">
    <!-- AutoSINDy -->
    <g transform="translate(780.501562 31.276563) scale(0.1 -0.1)">
     <defs>
      <path id="DejaVuSans-41" d="M 2188 4044 
L 1331 1722 
L 3047 1722 
L 2188 4044 
z
M 1831 4666 
L 2547 4666 
L 4325 0 
L 3669 0 
L 3244 1197 
L 1141 1197 
L 716 0 
L 50 0 
L 1831 4666 
z
" transform="scale(0.015625)"/>
      <path id="DejaVuSans-53" d="M 3425 4513 
L 3425 3897 
Q 3066 4069 2747 4153 
Q 2428 4238 2131 4238 
Q 1616 4238 1336 4038 
Q 1056 3838 1056 3469 
Q 1056 3159 1242 3001 
Q 1428 2844 1947 2747 
L 2328 2669 
Q 3034 2534 3370 2195 
Q 3706 1856 3706 1288 
Q 3706 609 3251 259 
Q 2797 -91 1919 -91 
Q 1588 -91 1214 -16 
Q 841 59 441 206 
L 441 856 
Q 825 641 1194 531 
Q 1563 422 1919 422 
Q 2459 422 2753 634 
Q 3047 847 3047 1241 
Q 3047 1584 2836 1778 
Q 2625 1972 2144 2069 
L 1759 2144 
Q 1053 2284 737 2584 
Q 422 2884 422 3419 
Q 422 4038 858 4394 
Q 1294 4750 2059 4750 
Q 2388 4750 2728 4690 
Q 3069 4631 3425 4513 
z
" transform="scale(0.015625)"/>
      <path id="DejaVuSans-49" d="M 628 4666 
L 1259 4666 
L 1259 0 
L 628 0 
L 628 4666 
z
" transform="scale(0.015625)"/>
     </defs>
     <use xlink:href="#DejaVuSans-41"/>
     <use xlink:href="#DejaVuSans-75" transform="translate(68.408203 0)"/>
     <use xlink:href="#DejaVuSans-74" transform="translate(131.787109 0)"/>
     <use xlink:href="#DejaVuSans-6f" transform="translate(170.996094 0)"/>
     <use xlink:href="#DejaVuSans-53" transform="translate(232.177734 0)"/>
     <use xlink:href="#DejaVuSans-49" transform="translate(295.654297 0)"/>
     <use xlink:href="#DejaVuSans-4e" transform="translate(325.146484 0)"/>
     <use xlink:href="#DejaVuSans-44" transform="translate(399.951172 0)"/>
     <use xlink:href="#DejaVuSans-79" transform="translate(476.953125 0)"/>
    </g>
   </g>
   <g id="line2d_36">
    <path d="M 752.501562 42.454688 
L 762.501562 42.454688 
L 772.501562 42.454688 
" style="fill: none; stroke-dasharray: 22.4,5.6,3.5,5.6; stroke-dashoffset: 0; stroke: #008000; stroke-opacity: 0.8; stroke-width: 3.5"/>
   </g>
   <g id="text_25">
    <!-- Standard SINDy -->
    <g transform="translate(780.501562 45.954688) scale(0.1 -0.1)">
     <defs>
      <path id="DejaVuSans-64" d="M 2906 2969 
L 2906 4863 
L 3481 4863 
L 3481 0 
L 2906 0 
L 2906 525 
Q 2725 213 2448 61 
Q 2172 -91 1784 -91 
Q 1150 -91 751 415 
Q 353 922 353 1747 
Q 353 2572 751 3078 
Q 1150 3584 1784 3584 
Q 2172 3584 2448 3432 
Q 2725 3281 2906 2969 
z
M 947 1747 
Q 947 1113 1208 752 
Q 1469 391 1925 391 
Q 2381 391 2643 752 
Q 2906 1113 2906 1747 
Q 2906 2381 2643 2742 
Q 2381 3103 1925 3103 
Q 1469 3103 1208 2742 
Q 947 2381 947 1747 
z
" transform="scale(0.015625)"/>
     </defs>
     <use xlink:href="#DejaVuSans-53"/>
     <use xlink:href="#DejaVuSans-74" transform="translate(63.476562 0)"/>
     <use xlink:href="#DejaVuSans-61" transform="translate(102.685547 0)"/>
     <use xlink:href="#DejaVuSans-6e" transform="translate(163.964844 0)"/>
     <use xlink:href="#DejaVuSans-64" transform="translate(227.34375 0)"/>
     <use xlink:href="#DejaVuSans-61" transform="translate(290.820312 0)"/>
     <use xlink:href="#DejaVuSans-72" transform="translate(352.099609 0)"/>
     <use xlink:href="#DejaVuSans-64" transform="translate(391.462891 0)"/>
     <use xlink:href="#DejaVuSans-20" transform="translate(454.939453 0)"/>
     <use xlink:href="#DejaVuSans-53" transform="translate(486.726562 0)"/>
     <use xlink:href="#DejaVuSans-49" transform="translate(550.203125 0)"/>
     <use xlink:href="#DejaVuSans-4e" transform="translate(579.695312 0)"/>
     <use xlink:href="#DejaVuSans-44" transform="translate(654.5 0)"/>
     <use xlink:href="#DejaVuSans-79" transform="translate(731.501953 0)"/>
    </g>
   </g>
   <g id="line2d_37">
    <path d="M 752.501562 57.132813 
L 762.501562 57.132813 
L 772.501562 57.132813 
" style="fill: none; stroke-dasharray: 12.95,5.6; stroke-dashoffset: 0; stroke: #0000ff; stroke-opacity: 0.8; stroke-width: 3.5"/>
   </g>
   <g id="text_26">
    <!-- Standard PySR -->
    <g transform="translate(780.501562 60.632813) scale(0.1 -0.1)">
     <defs>
      <path id="DejaVuSans-50" d="M 1259 4147 
L 1259 2394 
L 2053 2394 
Q 2494 2394 2734 2622 
Q 2975 2850 2975 3272 
Q 2975 3691 2734 3919 
Q 2494 4147 2053 4147 
L 1259 4147 
z
M 628 4666 
L 2053 4666 
Q 2838 4666 3239 4311 
Q 3641 3956 3641 3272 
Q 3641 2581 3239 2228 
Q 2838 1875 2053 1875 
L 1259 1875 
L 1259 0 
L 628 0 
L 628 4666 
z
" transform="scale(0.015625)"/>
      <path id="DejaVuSans-52" d="M 2841 2188 
Q 3044 2119 3236 1894 
Q 3428 1669 3622 1275 
L 4263 0 
L 3584 0 
L 2988 1197 
Q 2756 1666 2539 1819 
Q 2322 1972 1947 1972 
L 1259 1972 
L 1259 0 
L 628 0 
L 628 4666 
L 2053 4666 
Q 2853 4666 3247 4331 
Q 3641 3997 3641 3322 
Q 3641 2881 3436 2590 
Q 3231 2300 2841 2188 
z
M 1259 4147 
L 1259 2491 
L 2053 2491 
Q 2509 2491 2742 2702 
Q 2975 2913 2975 3322 
Q 2975 3731 2742 3939 
Q 2509 4147 2053 4147 
L 1259 4147 
z
" transform="scale(0.015625)"/>
     </defs>
     <use xlink:href="#DejaVuSans-53"/>
     <use xlink:href="#DejaVuSans-74" transform="translate(63.476562 0)"/>
     <use xlink:href="#DejaVuSans-61" transform="translate(102.685547 0)"/>
     <use xlink:href="#DejaVuSans-6e" transform="translate(163.964844 0)"/>
     <use xlink:href="#DejaVuSans-64" transform="translate(227.34375 0)"/>
     <use xlink:href="#DejaVuSans-61" transform="translate(290.820312 0)"/>
     <use xlink:href="#DejaVuSans-72" transform="translate(352.099609 0)"/>
     <use xlink:href="#DejaVuSans-64" transform="translate(391.462891 0)"/>
     <use xlink:href="#DejaVuSans-20" transform="translate(454.939453 0)"/>
     <use xlink:href="#DejaVuSans-50" transform="translate(486.726562 0)"/>
     <use xlink:href="#DejaVuSans-79" transform="translate(547.029297 0)"/>
     <use xlink:href="#DejaVuSans-53" transform="translate(606.208984 0)"/>
     <use xlink:href="#DejaVuSans-52" transform="translate(669.685547 0)"/>
    </g>
   </g>
  </g>
 </g>
 <defs>
  <clipPath id="ped8c95f564">
   <rect x="58.523438" y="39.64" width="797.05" height="169.15"/>
  </clipPath>
  <clipPath id="p3a9b6a0b04">
   <rect x="58.523438" y="223.09" width="797.05" height="169.15"/>
  </clipPath>
 </defs>
</svg>
