<?xml version="1.0" encoding="utf-8" standalone="no"?>
<!DOCTYPE svg PUBLIC "-//W3C//DTD SVG 1.1//EN"
  "http://www.w3.org/Graphics/SVG/1.1/DTD/svg11.dtd">
<svg xmlns:xlink="http://www.w3.org/1999/xlink" width="568.410312pt" height="567.994375pt" viewBox="0 0 568.410312 567.994375" xmlns="http://www.w3.org/2000/svg" version="1.1">
 <metadata>
  <rdf:RDF xmlns:dc="http://purl.org/dc/elements/1.1/" xmlns:cc="http://creativecommons.org/ns#" xmlns:rdf="http://www.w3.org/1999/02/22-rdf-syntax-ns#">
   <cc:Work>
    <dc:type rdf:resource="http://purl.org/dc/dcmitype/StillImage"/>
    <dc:date>2026-04-06T02:02:30.266963</dc:date>
    <dc:format>image/svg+xml</dc:format>
    <dc:creator>
     <cc:Agent>
      <dc:title>Matplotlib v3.10.7, https://matplotlib.org/</dc:title>
     </cc:Agent>
    </dc:creator>
   </cc:Work>
  </rdf:RDF>
 </metadata>
 <defs>
  <style type="text/css">*{stroke-linejoin: round; stroke-linecap: butt}</style>
 </defs>
 <g id="figure_1">
  <g id="patch_1">
   <path d="M 0 567.994375 
L 568.410312 567.994375 
L 568.410312 0 
L 0 0 
z
" style="fill: #ffffff"/>
  </g>
  <g id="axes_1">
   <g id="patch_2">
    <path d="M 42.620313 530.438125 
L 561.210312 530.438125 
L 561.210312 22.318125 
L 42.620313 22.318125 
z
" style="fill: #ffffff"/>
   </g>
   <g id="matplotlib.axis_1">
    <g id="xtick_1">
     <g id="line2d_1">
      <defs>
       <path id="mad5561aafd" d="M 0 0 
L 0 3.5 
" style="stroke: #000000; stroke-width: 0.8"/>
      </defs>
      <g>
       <use xlink:href="#mad5561aafd" x="123.480024" y="530.438125" style="stroke: #000000; stroke-width: 0.8"/>
      </g>
     </g>
     <g id="text_1">
      <!-- −2 -->
      <g transform="translate(116.10893 545.036562) scale(0.1 -0.1)">
       <defs>
        <path id="DejaVuSans-2212" d="M 678 2272 
L 4684 2272 
L 4684 1741 
L 678 1741 
L 678 2272 
z
" transform="scale(0.015625)"/>
        <path id="DejaVuSans-32" d="M 1228 531 
L 3431 531 
L 3431 0 
L 469 0 
L 469 531 
Q 828 903 1448 1529 
Q 2069 2156 2228 2338 
Q 2531 2678 2651 2914 
Q 2772 3150 2772 3378 
Q 2772 3750 2511 3984 
Q 2250 4219 1831 4219 
Q 1534 4219 1204 4116 
Q 875 4013 500 3803 
L 500 4441 
Q 881 4594 1212 4672 
Q 1544 4750 1819 4750 
Q 2544 4750 2975 4387 
Q 3406 4025 3406 3419 
Q 3406 3131 3298 2873 
Q 3191 2616 2906 2266 
Q 2828 2175 2409 1742 
Q 1991 1309 1228 531 
z
" transform="scale(0.015625)"/>
       </defs>
       <use xlink:href="#DejaVuSans-2212"/>
       <use xlink:href="#DejaVuSans-32" transform="translate(83.789062 0)"/>
      </g>
     </g>
    </g>
    <g id="xtick_2">
     <g id="line2d_2">
      <g>
       <use xlink:href="#mad5561aafd" x="212.41709" y="530.438125" style="stroke: #000000; stroke-width: 0.8"/>
      </g>
     </g>
     <g id="text_2">
      <!-- −1 -->
      <g transform="translate(205.045996 545.036562) scale(0.1 -0.1)">
       <defs>
        <path id="DejaVuSans-31" d="M 794 531 
L 1825 531 
L 1825 4091 
L 703 3866 
L 703 4441 
L 1819 4666 
L 2450 4666 
L 2450 531 
L 3481 531 
L 3481 0 
L 794 0 
L 794 531 
z
" transform="scale(0.015625)"/>
       </defs>
       <use xlink:href="#DejaVuSans-2212"/>
       <use xlink:href="#DejaVuSans-31" transform="translate(83.789062 0)"/>
      </g>
     </g>
    </g>
    <g id="xtick_3">
     <g id="line2d_3">
      <g>
       <use xlink:href="#mad5561aafd" x="301.354156" y="530.438125" style="stroke: #000000; stroke-width: 0.8"/>
      </g>
     </g>
     <g id="text_3">
      <!-- 0 -->
      <g transform="translate(298.172906 545.036562) scale(0.1 -0.1)">
       <defs>
        <path id="DejaVuSans-30" d="M 2034 4250 
Q 1547 4250 1301 3770 
Q 1056 3291 1056 2328 
Q 1056 1369 1301 889 
Q 1547 409 2034 409 
Q 2525 409 2770 889 
Q 3016 1369 3016 2328 
Q 3016 3291 2770 3770 
Q 2525 4250 2034 4250 
z
M 2034 4750 
Q 2819 4750 3233 4129 
Q 3647 3509 3647 2328 
Q 3647 1150 3233 529 
Q 2819 -91 2034 -91 
Q 1250 -91 836 529 
Q 422 1150 422 2328 
Q 422 3509 836 4129 
Q 1250 4750 2034 4750 
z
" transform="scale(0.015625)"/>
       </defs>
       <use xlink:href="#DejaVuSans-30"/>
      </g>
     </g>
    </g>
    <g id="xtick_4">
     <g id="line2d_4">
      <g>
       <use xlink:href="#mad5561aafd" x="390.291221" y="530.438125" style="stroke: #000000; stroke-width: 0.8"/>
      </g>
     </g>
     <g id="text_4">
      <!-- 1 -->
      <g transform="translate(387.109971 545.036562) scale(0.1 -0.1)">
       <use xlink:href="#DejaVuSans-31"/>
      </g>
     </g>
    </g>
    <g id="xtick_5">
     <g id="line2d_5">
      <g>
       <use xlink:href="#mad5561aafd" x="479.228287" y="530.438125" style="stroke: #000000; stroke-width: 0.8"/>
      </g>
     </g>
     <g id="text_5">
      <!-- 2 -->
      <g transform="translate(476.047037 545.036562) scale(0.1 -0.1)">
       <use xlink:href="#DejaVuSans-32"/>
      </g>
     </g>
    </g>
    <g id="text_6">
     <!-- x0 -->
     <g transform="translate(295.774687 558.714687) scale(0.1 -0.1)">
      <defs>
       <path id="DejaVuSans-78" d="M 3513 3500 
L 2247 1797 
L 3578 0 
L 2900 0 
L 1881 1375 
L 863 0 
L 184 0 
L 1544 1831 
L 300 3500 
L 978 3500 
L 1906 2253 
L 2834 3500 
L 3513 3500 
z
" transform="scale(0.015625)"/>
      </defs>
      <use xlink:href="#DejaVuSans-78"/>
      <use xlink:href="#DejaVuSans-30" transform="translate(59.179688 0)"/>
     </g>
    </g>
   </g>
   <g id="matplotlib.axis_2">
    <g id="ytick_1">
     <g id="line2d_6">
      <defs>
       <path id="mf5567c4b28" d="M 0 0 
L -3.5 0 
" style="stroke: #000000; stroke-width: 0.8"/>
      </defs>
      <g>
       <use xlink:href="#mf5567c4b28" x="42.620313" y="482.007875" style="stroke: #000000; stroke-width: 0.8"/>
      </g>
     </g>
     <g id="text_7">
      <!-- −4 -->
      <g transform="translate(20.878125 485.807093) scale(0.1 -0.1)">
       <defs>
        <path id="DejaVuSans-34" d="M 2419 4116 
L 825 1625 
L 2419 1625 
L 2419 4116 
z
M 2253 4666 
L 3047 4666 
L 3047 1625 
L 3713 1625 
L 3713 1100 
L 3047 1100 
L 3047 0 
L 2419 0 
L 2419 1100 
L 313 1100 
L 313 1709 
L 2253 4666 
z
" transform="scale(0.015625)"/>
       </defs>
       <use xlink:href="#DejaVuSans-2212"/>
       <use xlink:href="#DejaVuSans-34" transform="translate(83.789062 0)"/>
      </g>
     </g>
    </g>
    <g id="ytick_2">
     <g id="line2d_7">
      <g>
       <use xlink:href="#mf5567c4b28" x="42.620313" y="379.072663" style="stroke: #000000; stroke-width: 0.8"/>
      </g>
     </g>
     <g id="text_8">
      <!-- −2 -->
      <g transform="translate(20.878125 382.871882) scale(0.1 -0.1)">
       <use xlink:href="#DejaVuSans-2212"/>
       <use xlink:href="#DejaVuSans-32" transform="translate(83.789062 0)"/>
      </g>
     </g>
    </g>
    <g id="ytick_3">
     <g id="line2d_8">
      <g>
       <use xlink:href="#mf5567c4b28" x="42.620313" y="276.137452" style="stroke: #000000; stroke-width: 0.8"/>
      </g>
     </g>
     <g id="text_9">
      <!-- 0 -->
      <g transform="translate(29.257813 279.93667) scale(0.1 -0.1)">
       <use xlink:href="#DejaVuSans-30"/>
      </g>
     </g>
    </g>
    <g id="ytick_4">
     <g id="line2d_9">
      <g>
       <use xlink:href="#mf5567c4b28" x="42.620313" y="173.20224" style="stroke: #000000; stroke-width: 0.8"/>
      </g>
     </g>
     <g id="text_10">
      <!-- 2 -->
      <g transform="translate(29.257813 177.001459) scale(0.1 -0.1)">
       <use xlink:href="#DejaVuSans-32"/>
      </g>
     </g>
    </g>
    <g id="ytick_5">
     <g id="line2d_10">
      <g>
       <use xlink:href="#mf5567c4b28" x="42.620313" y="70.267029" style="stroke: #000000; stroke-width: 0.8"/>
      </g>
     </g>
     <g id="text_11">
      <!-- 4 -->
      <g transform="translate(29.257813 74.066248) scale(0.1 -0.1)">
       <use xlink:href="#DejaVuSans-34"/>
      </g>
     </g>
    </g>
    <g id="text_12">
     <!-- x1 -->
     <g transform="translate(14.798438 282.51875) rotate(-90) scale(0.1 -0.1)">
      <use xlink:href="#DejaVuSans-78"/>
      <use xlink:href="#DejaVuSans-31" transform="translate(59.179688 0)"/>
     </g>
    </g>
   </g>
   <g id="line2d_11">
    <path d="M 536.289655 265.843931 
L 536.829084 270.836422 
L 537.026069 275.74192 
L 536.886161 280.596445 
L 536.411036 285.434222 
L 535.60001 290.288749 
L 534.450447 295.193104 
L 532.95775 300.179941 
L 531.115372 305.281493 
L 528.914807 310.529574 
L 526.345658 315.955339 
L 523.397475 321.580427 
L 520.05298 327.436967 
L 516.292014 333.558299 
L 512.094282 339.970165 
L 507.439349 346.690713 
L 502.306646 353.73049 
L 496.675464 361.09245 
L 490.524958 368.771946 
L 483.834145 376.756739 
L 476.581905 385.026987 
L 468.747061 393.557617 
L 460.31082 402.341254 
L 451.259341 411.268297 
L 446.501023 415.740899 
L 441.587926 420.195576 
L 436.521047 424.614261 
L 431.302016 428.978816 
L 425.933095 433.271034 
L 420.417184 437.472639 
L 414.757811 441.565287 
L 408.959141 445.530563 
L 403.025971 449.349985 
L 396.963732 453.005002 
L 390.778489 456.476991 
L 384.476939 459.747264 
L 378.066414 462.797062 
L 371.554878 465.607556 
L 364.95093 468.159851 
L 358.263802 470.43498 
L 351.503357 472.413908 
L 344.680096 474.077533 
L 337.80515 475.40668 
L 330.890285 476.382108 
L 323.9479 476.984506 
L 316.991026 477.194495 
L 310.033331 476.992625 
L 303.089114 476.359379 
L 296.173369 475.277362 
L 289.302555 473.784893 
L 282.49112 471.911158 
L 275.752162 469.668387 
L 269.098147 467.069871 
L 262.540911 464.129964 
L 256.091656 460.864084 
L 249.760955 457.288713 
L 243.558749 453.421395 
L 237.494345 449.280738 
L 231.576421 444.886412 
L 225.813022 440.259151 
L 220.211563 435.420754 
L 214.778825 430.394079 
L 209.52096 425.203052 
L 204.443485 419.872658 
L 199.551289 414.428948 
L 194.848628 408.899036 
L 190.339126 403.311098 
L 186.025776 397.694374 
L 181.910938 392.079164 
L 177.993785 386.46674 
L 174.272026 380.844879 
L 170.745143 375.222143 
L 167.412545 369.606343 
L 164.273569 364.004544 
L 161.327476 358.423057 
L 158.573455 352.867446 
L 156.010621 347.342525 
L 153.638014 341.852357 
L 151.454602 336.400257 
L 149.45928 330.988788 
L 147.650866 325.619767 
L 146.028109 320.294257 
L 144.589679 315.012574 
L 143.334178 309.774284 
L 142.26013 304.578201 
L 141.365986 299.422393 
L 140.650127 294.304176 
L 140.110855 289.220116 
L 139.746402 284.16603 
L 139.554858 279.142696 
L 139.535205 274.15639 
L 139.687417 269.20073 
L 140.011426 264.269621 
L 140.5071 259.357738 
L 141.174241 254.460529 
L 142.012586 249.574215 
L 143.021804 244.695783 
L 144.201504 239.822997 
L 145.551226 234.954389 
L 147.070445 230.089262 
L 148.758572 225.227693 
L 150.614954 220.370529 
L 152.638869 215.519386 
L 154.829533 210.676655 
L 157.186096 205.845496 
L 159.707643 201.029841 
L 162.393192 196.234393 
L 165.241699 191.464627 
L 168.252051 186.726789 
L 171.423073 182.027895 
L 174.753524 177.375734 
L 178.242097 172.778866 
L 181.88742 168.246622 
L 185.688055 163.789104 
L 189.642502 159.417186 
L 193.749192 155.142512 
L 198.006494 150.977499 
L 202.411462 146.929535 
L 206.95671 143.000071 
L 211.636053 139.211287 
L 216.443139 135.585279 
L 221.371267 132.142721 
L 226.413384 128.902866 
L 231.562083 125.88355 
L 236.809607 123.101185 
L 242.147846 120.570764 
L 247.568339 118.305862 
L 253.062272 116.31863 
L 258.620479 114.619801 
L 264.233443 113.218688 
L 269.891295 112.123182 
L 275.583813 111.339756 
L 281.300425 110.87346 
L 287.030206 110.727926 
L 292.761877 110.905364 
L 298.483811 111.406566 
L 304.184026 112.230901 
L 309.85019 113.376321 
L 315.469617 114.839354 
L 321.029271 116.61511 
L 326.518293 118.693021 
L 331.929791 121.056053 
L 337.25409 123.693211 
L 342.481888 126.593289 
L 347.604345 129.744701 
L 352.613091 133.13548 
L 357.500218 136.753278 
L 362.258286 140.585365 
L 366.880319 144.618631 
L 371.359805 148.839585 
L 375.690702 153.234355 
L 379.867429 157.788686 
L 383.884873 162.487944 
L 387.738386 167.317115 
L 391.423785 172.2608 
L 394.937353 177.303224 
L 398.275837 182.428226 
L 401.436452 187.619268 
L 404.416877 192.859429 
L 407.215257 198.131406 
L 409.830202 203.417518 
L 412.260787 208.6997 
L 414.506555 213.959508 
L 416.569066 219.202176 
L 418.450145 224.446706 
L 420.149774 229.690211 
L 421.668019 234.929844 
L 423.005031 240.16283 
L 424.16105 245.386462 
L 425.136402 250.598105 
L 425.931499 255.795195 
L 426.54684 260.975238 
L 426.983012 266.13581 
L 427.240687 271.274557 
L 427.320624 276.389197 
L 427.22367 281.477518 
L 426.950758 286.537378 
L 426.502907 291.566705 
L 425.881223 296.563498 
L 425.0869 301.525828 
L 424.121217 306.451834 
L 422.985541 311.339727 
L 421.681325 316.187788 
L 420.210108 320.994368 
L 418.573518 325.757889 
L 416.773296 330.477616 
L 414.811312 335.157445 
L 412.689015 339.790031 
L 410.408059 344.365408 
L 407.970433 348.873694 
L 405.378459 353.3051 
L 402.634792 357.649923 
L 399.742424 361.898547 
L 396.704677 366.041449 
L 393.525209 370.069191 
L 390.208014 373.972425 
L 386.757415 377.741892 
L 383.178072 381.368419 
L 379.47498 384.842925 
L 375.653466 388.156415 
L 371.71919 391.299985 
L 367.678148 394.264817 
L 363.53667 397.042183 
L 359.301418 399.623444 
L 354.97939 402.000048 
L 350.577915 404.163534 
L 346.10466 406.105526 
L 341.567623 407.81774 
L 336.975136 409.29198 
L 332.335866 410.520136 
L 327.658813 411.49419 
L 322.953313 412.20621 
L 318.229033 412.648353 
L 313.495975 412.812867 
L 308.763714 412.695529 
L 304.039481 412.307025 
L 299.333064 411.650405 
L 294.65429 410.728179 
L 290.012664 409.543726 
L 285.417371 408.101293 
L 280.877274 406.405999 
L 276.400919 404.463831 
L 271.996528 402.281644 
L 267.672002 399.867164 
L 263.434923 397.228986 
L 259.292554 394.376575 
L 255.251832 391.320263 
L 251.319379 388.071255 
L 247.501493 384.641622 
L 243.804153 381.044305 
L 240.233016 377.293117 
L 236.793419 373.402737 
L 233.490378 369.388714 
L 230.328589 365.267469 
L 227.312428 361.056289 
L 224.445406 356.769469 
L 221.728302 352.403183 
L 219.163374 347.963938 
L 216.752968 343.460037 
L 214.4992 338.899485 
L 212.403962 334.289983 
L 210.468918 329.638934 
L 208.695505 324.953439 
L 207.084937 320.240299 
L 205.638198 315.506014 
L 204.356048 310.756784 
L 203.239018 305.998508 
L 202.287416 301.236784 
L 201.501321 296.47691 
L 200.880587 291.723883 
L 200.42484 286.982399 
L 200.133482 282.256854 
L 200.005687 277.551344 
L 200.040402 272.869662 
L 200.23635 268.215303 
L 200.592025 263.59146 
L 201.105666 259.000359 
L 201.775942 254.443718 
L 202.602137 249.926331 
L 203.583308 245.453304 
L 204.718258 241.029883 
L 206.005527 236.661453 
L 207.443403 232.353538 
L 209.029913 228.111799 
L 210.762829 223.942037 
L 212.639663 219.850194 
L 214.657672 215.842347 
L 216.813856 211.924715 
L 219.104955 208.103654 
L 221.527453 204.38566 
L 224.077577 200.777367 
L 226.751297 197.285548 
L 229.544324 193.917117 
L 232.452112 190.679122 
L 235.46986 187.578756 
L 238.592507 184.623346 
L 241.814734 181.82036 
L 245.130968 179.177404 
L 248.535376 176.702225 
L 252.021868 174.402706 
L 255.584096 172.28687 
L 259.215458 170.362881 
L 262.909164 168.638816 
L 266.659832 167.117042 
L 270.460334 165.802032 
L 274.30265 164.699771 
L 278.178824 163.815284 
L 282.080962 163.152635 
L 286.001231 162.714927 
L 289.93186 162.504304 
L 293.86514 162.521947 
L 297.793427 162.768078 
L 301.709134 163.241958 
L 305.604739 163.941887 
L 309.472782 164.865204 
L 313.305865 166.00829 
L 317.096651 167.366563 
L 320.837865 168.93448 
L 324.522296 170.705538 
L 328.142793 172.672275 
L 331.692268 174.826266 
L 335.163695 177.158127 
L 338.550109 179.657512 
L 341.845821 182.316101 
L 345.047148 185.12964 
L 348.148822 188.089366 
L 351.145815 191.186452 
L 354.033408 194.412168 
L 356.807184 197.757877 
L 359.463034 201.215039 
L 361.997154 204.775207 
L 364.406045 208.430027 
L 366.686514 212.171243 
L 368.835675 215.990692 
L 370.850946 219.880306 
L 372.73005 223.832111 
L 374.471019 227.838229 
L 376.072186 231.890875 
L 377.532194 235.98236 
L 378.849989 240.105089 
L 380.024822 244.251562 
L 381.056254 248.414373 
L 381.944358 252.586992 
L 382.68983 256.766921 
L 383.292062 260.949811 
L 383.750504 265.130858 
L 384.064833 269.305216 
L 384.234951 273.467989 
L 384.260992 277.614239 
L 384.143312 281.738981 
L 383.8825 285.837183 
L 383.479368 289.903771 
L 382.934957 293.933622 
L 382.250538 297.921569 
L 381.427605 301.862399 
L 380.467882 305.750854 
L 379.37332 309.58163 
L 378.146098 313.349377 
L 376.788623 317.0487 
L 375.303526 320.674158 
L 373.693669 324.220265 
L 371.962141 327.681489 
L 370.112257 331.052253 
L 368.14756 334.326933 
L 366.071822 337.49986 
L 363.88904 340.565322 
L 361.60344 343.517557 
L 359.219474 346.35076 
L 356.740313 349.061643 
L 354.168974 351.645722 
L 351.51055 354.094588 
L 348.77024 356.400426 
L 345.953349 358.556021 
L 343.065287 360.554766 
L 340.111563 362.390655 
L 337.097793 364.058287 
L 334.029695 365.552865 
L 330.913092 366.870196 
L 327.753909 368.00669 
L 324.558175 368.959364 
L 321.332022 369.725836 
L 318.081685 370.304329 
L 314.813505 370.693669 
L 311.533925 370.893288 
L 308.249489 370.90322 
L 304.966849 370.724105 
L 301.692758 370.357185 
L 298.434071 369.804307 
L 295.19775 369.067922 
L 291.990858 368.151084 
L 288.820563 367.057454 
L 285.69297 365.79106 
L 282.611254 364.355803 
L 279.581405 362.756409 
L 276.609415 360.997877 
L 273.701018 359.085424 
L 270.861684 357.02449 
L 268.09662 354.820734 
L 265.410773 352.480036 
L 262.808828 350.008498 
L 260.29521 347.41244 
L 257.874078 344.698406 
L 255.549333 341.873158 
L 253.324613 338.94368 
L 251.203293 335.917175 
L 249.18849 332.801069 
L 247.283055 329.603007 
L 245.48958 326.330855 
L 243.810393 322.9927 
L 242.247563 319.59685 
L 240.802895 316.151832 
L 239.477934 312.666395 
L 238.273962 309.149509 
L 237.191839 305.608785 
L 236.231631 302.042966 
L 235.394333 298.45624 
L 234.680893 294.854084 
L 234.092045 291.24194 
L 233.628303 287.625218 
L 233.289964 284.009296 
L 233.077108 280.399517 
L 232.989596 276.801192 
L 233.027072 273.219599 
L 233.188964 269.659984 
L 233.474478 266.127559 
L 233.882606 262.627503 
L 234.412121 259.164962 
L 235.061578 255.745049 
L 235.829315 252.372845 
L 236.713451 249.053398 
L 237.71189 245.791721 
L 238.822315 242.592797 
L 240.042193 239.461574 
L 241.368772 236.402967 
L 242.799085 233.421859 
L 244.329945 230.523099 
L 245.958618 227.710531 
L 247.683178 224.987778 
L 249.500247 222.361283 
L 251.406252 219.837263 
L 253.397486 217.421604 
L 255.470101 215.119867 
L 257.620115 212.93728 
L 259.843408 210.878745 
L 262.13572 208.948833 
L 264.492659 207.151787 
L 266.909692 205.491522 
L 269.382148 203.971622 
L 271.905222 202.595345 
L 274.473971 201.365618 
L 277.083312 200.285039 
L 279.728028 199.355878 
L 282.402764 198.580076 
L 285.102026 197.959245 
L 287.820185 197.494668 
L 290.551474 197.1873 
L 293.289988 197.037766 
L 296.029913 197.046225 
L 298.76763 197.211047 
L 301.497783 197.531198 
L 304.21448 198.005676 
L 306.912 198.633103 
L 309.584791 199.411722 
L 312.227473 200.339401 
L 314.834834 201.413631 
L 317.401833 202.631524 
L 319.923598 203.989818 
L 322.395428 205.484871 
L 324.812791 207.112665 
L 327.171328 208.868808 
L 329.466845 210.748526 
L 331.695322 212.746671 
L 333.852907 214.857718 
L 335.935919 217.075765 
L 337.940847 219.394532 
L 339.864348 221.807363 
L 341.703253 224.307224 
L 343.454559 226.886705 
L 345.115436 229.538018 
L 348.155436 235.023217 
L 349.530664 237.847274 
L 351.983911 243.644739 
L 354.02999 249.603433 
L 355.658683 255.6789 
L 356.863017 261.827857 
L 357.639273 268.008192 
L 357.98698 274.178967 
L 357.908917 280.30042 
L 357.71198 283.330545 
L 357.71198 283.330545 
" clip-path="url(#pcee1c2813a)" style="fill: none; stroke: #000000; stroke-opacity: 0.3; stroke-width: 7; stroke-linecap: square"/>
   </g>
   <g id="line2d_12">
    <path d="M 536.289655 265.843931 
L 536.510437 273.695744 
L 536.459007 281.550376 
L 536.135179 289.398708 
L 535.540098 297.231706 
L 534.674909 305.040336 
L 533.54048 312.815605 
L 532.140145 320.548479 
L 530.478009 328.230137 
L 528.556517 335.851973 
L 526.378117 343.40538 
L 523.945811 350.881795 
L 521.25852 358.272675 
L 518.315095 365.569457 
L 515.117655 372.763706 
L 511.668316 379.846983 
L 507.969316 386.810961 
L 504.025734 393.647164 
L 499.84405 400.347499 
L 495.430469 406.904358 
L 490.791196 413.310133 
L 485.932522 419.557343 
L 480.860171 425.63853 
L 475.580036 431.546651 
L 470.098491 437.275118 
L 464.421912 442.817344 
L 458.556835 448.166891 
L 452.509749 453.317297 
L 446.28769 458.262599 
L 439.898276 462.99737 
L 433.349127 467.516184 
L 426.647927 471.813791 
L 419.802711 475.884927 
L 412.821867 479.724938 
L 405.713923 483.329758 
L 398.487404 486.695323 
L 391.15085 489.817752 
L 383.712807 492.693185 
L 376.181851 495.318406 
L 368.566581 497.69078 
L 360.875599 499.807669 
L 353.117542 501.66663 
L 345.301033 503.265222 
L 337.434853 504.601681 
L 329.527911 505.674827 
L 321.589114 506.483483 
L 313.627366 507.026671 
L 305.651698 507.303418 
L 297.671173 507.313465 
L 289.694822 507.057136 
L 281.731676 506.53475 
L 273.79072 505.746832 
L 265.881018 504.693921 
L 258.01148 503.377277 
L 250.190869 501.798709 
L 242.427944 499.960024 
L 234.731448 497.863232 
L 227.110039 495.510347 
L 219.572308 492.904094 
L 212.126819 490.047722 
L 204.782137 486.94448 
L 197.546748 483.597813 
L 190.42939 480.011174 
L 183.438603 476.18873 
L 176.582695 472.135146 
L 169.869968 467.855088 
L 163.308539 463.353394 
L 156.906646 458.634961 
L 150.671818 453.70533 
L 144.611091 448.570449 
L 138.731502 443.236266 
L 133.03995 437.708881 
L 127.543224 431.994435 
L 122.247605 426.09962 
L 117.159087 420.031464 
L 112.283663 413.796995 
L 107.627181 407.403392 
L 103.196018 400.857814 
L 98.996449 394.167971 
L 95.034401 387.341907 
L 91.315801 380.387661 
L 87.845934 373.313303 
L 84.629523 366.127239 
L 81.667923 358.837998 
L 78.961051 351.454086 
L 76.50882 343.98401 
L 74.311332 336.436347 
L 72.369703 328.819458 
L 70.686899 321.141972 
L 69.26628 313.412705 
L 68.111205 305.640474 
L 67.224652 297.834114 
L 66.608979 290.002642 
L 66.264925 282.155141 
L 66.192585 274.300686 
L 66.392055 266.448356 
L 66.863531 258.607233 
L 67.606178 250.786387 
L 68.619709 242.994867 
L 69.904271 235.241731 
L 71.460012 227.536033 
L 73.286042 219.886693 
L 75.383756 212.303054 
L 77.749632 204.794069 
L 80.377652 197.368396 
L 83.261803 190.034691 
L 86.396478 182.801503 
L 89.774173 175.677223 
L 93.390232 168.669805 
L 97.241317 161.787045 
L 101.324089 155.036738 
L 105.634847 148.426537 
L 110.170881 141.964273 
L 114.927547 135.657302 
L 119.899325 129.51272 
L 125.080696 123.537624 
L 130.465932 117.738923 
L 136.049041 112.123654 
L 141.823412 106.69818 
L 147.78219 101.468554 
L 153.918518 96.44083 
L 160.225437 91.620843 
L 166.695929 87.014532 
L 173.322672 82.627077 
L 180.098218 78.463337 
L 187.015121 74.528168 
L 194.065738 70.826178 
L 201.242628 67.362122 
L 208.537587 64.139894 
L 215.942092 61.163026 
L 223.447624 58.435051 
L 231.045549 55.959222 
L 238.726994 53.738931 
L 246.482753 51.776598 
L 254.30352 50.074259 
L 262.179991 48.63395 
L 270.102846 47.457415 
L 278.062658 46.546507 
L 286.049975 45.902071 
L 294.05535 45.524575 
L 302.069335 45.414489 
L 310.082498 45.571984 
L 318.085347 45.997337 
L 326.068433 46.689804 
L 334.022328 47.648281 
L 341.937607 48.871661 
L 349.804932 50.358546 
L 357.614727 52.107621 
L 365.357758 54.116568 
L 373.024931 56.382731 
L 380.607153 58.903453 
L 388.095551 61.675808 
L 395.480987 64.6969 
L 402.755154 67.962929 
L 409.910028 71.469804 
L 416.937588 75.213434 
L 423.82995 79.189484 
L 430.579427 83.393664 
L 437.178684 87.820874 
L 443.620485 92.465761 
L 449.897595 97.322974 
L 456.002959 102.386937 
L 461.929202 107.652108 
L 467.669654 113.112205 
L 473.217877 118.760725 
L 478.567433 124.591167 
L 483.712408 130.596865 
L 488.645803 136.771073 
L 493.362662 143.106501 
L 497.858679 149.59572 
L 502.12955 156.231301 
L 506.170502 163.005642 
L 509.980483 169.911299 
L 513.555445 176.94035 
L 516.89031 184.084714 
L 519.979998 191.336313 
L 522.82033 198.686957 
L 525.400867 206.128275 
L 527.717069 213.651403 
L 529.766211 221.24739 
L 531.54557 228.907283 
L 533.052824 236.622092 
L 534.289171 244.382736 
L 535.254663 252.180156 
L 535.948989 260.005291 
L 536.371837 267.84908 
L 536.523252 275.702489 
L 536.402062 283.556365 
L 536.008867 291.40164 
L 535.344732 299.229275 
L 534.410718 307.030231 
L 533.207784 314.795541 
L 531.740412 322.51614 
L 530.01171 330.183336 
L 528.024253 337.788515 
L 525.780613 345.323059 
L 523.283726 352.778443 
L 520.530639 360.146076 
L 517.522205 367.417467 
L 514.260352 374.584172 
L 510.747008 381.637746 
L 506.984826 388.569921 
L 502.97983 395.372113 
L 498.738299 402.036525 
L 494.266455 408.555526 
L 489.570519 414.921484 
L 484.656774 421.127009 
L 479.530711 427.164584 
L 474.198525 433.027443 
L 468.666566 438.708974 
L 462.941184 444.202563 
L 457.029021 449.501877 
L 450.936479 454.600372 
L 444.670954 459.492414 
L 438.240031 464.17255 
L 431.651297 468.635323 
L 424.912524 472.875601 
L 418.031839 476.888046 
L 411.017715 480.668369 
L 403.878671 484.212475 
L 396.62323 487.516266 
L 389.259933 490.575984 
L 381.797336 493.387714 
L 374.244025 495.948603 
L 366.608598 498.25598 
L 358.899653 500.307177 
L 351.125848 502.099877 
L 343.295796 503.631581 
L 335.41836 504.900896 
L 327.502438 505.906607 
L 319.556932 506.647504 
L 311.59076 507.122738 
L 303.612994 507.331289 
L 295.632675 507.273267 
L 287.658838 506.94896 
L 279.700516 506.358656 
L 271.766671 505.503007 
L 263.866405 504.382518 
L 256.008532 502.998801 
L 248.20182 501.353631 
L 240.455038 499.448783 
L 232.776903 497.286392 
L 225.17606 494.868441 
L 217.661082 492.197994 
L 210.240533 489.278267 
L 202.922977 486.112476 
L 195.71689 482.704191 
L 188.631089 479.05684 
L 181.673961 475.174916 
L 174.853829 471.063052 
L 168.179017 466.725882 
L 161.657537 462.168361 
L 155.297683 457.395385 
L 149.106654 452.412765 
L 143.091515 447.22642 
L 137.259332 441.842273 
L 131.6169 436.266523 
L 126.171001 430.505311 
L 120.92772 424.565554 
L 115.893064 418.454258 
L 111.073037 412.178427 
L 106.473493 405.745329 
L 102.100936 399.162113 
L 97.96143 392.436715 
L 94.060969 385.577153 
L 90.405546 378.591448 
L 86.999933 371.487728 
L 83.848733 364.274496 
L 80.952258 356.960262 
L 78.310439 349.553532 
L 75.923209 342.06281 
L 73.790962 334.496686 
L 71.915099 326.86347 
L 70.298903 319.171923 
L 68.945772 311.430849 
L 67.859106 303.649054 
L 67.041545 295.835411 
L 66.495291 287.998981 
L 66.22063 280.14884 
L 66.217696 272.294066 
L 66.486624 264.443735 
L 67.027528 256.606933 
L 67.839329 248.792717 
L 68.922077 241.010142 
L 70.275914 233.268264 
L 71.900979 225.576137 
L 73.796094 217.942659 
L 75.963049 210.377285 
L 78.396448 202.888752 
L 81.090395 195.485739 
L 84.03899 188.176924 
L 87.236593 180.970771 
L 90.675416 173.875615 
L 94.35183 166.899295 
L 98.262452 160.049623 
L 102.403896 153.334407 
L 106.772403 146.761239 
L 111.365377 140.337988 
L 116.177503 134.071819 
L 121.203316 127.969848 
L 126.437351 122.039195 
L 131.873713 116.286675 
L 137.506351 110.719335 
L 143.328476 105.343307 
L 149.333251 100.16467 
L 155.513841 95.189502 
L 161.863219 90.42353 
L 168.374342 85.872687 
L 175.039798 81.54191 
L 181.852155 77.436083 
L 188.803981 73.560093 
L 195.887553 69.918425 
L 203.095434 66.515834 
L 210.419175 63.355937 
L 217.850282 60.442298 
L 225.380262 57.778482 
L 233.000375 55.367602 
L 240.701696 53.213041 
L 248.474943 51.316918 
L 256.31082 49.681304 
L 264.20003 48.308272 
L 272.133228 47.199413 
L 280.100964 46.356558 
L 288.093792 45.780254 
L 296.102264 45.471007 
L 304.116934 45.429321 
L 312.128367 45.655213 
L 320.127062 46.148932 
L 328.103587 46.909444 
L 336.048514 47.935679 
L 343.952414 49.226567 
L 351.805961 50.780553 
L 359.599557 52.59629 
L 367.324082 54.671183 
L 374.970426 57.002609 
L 382.52948 59.587948 
L 389.992456 62.42412 
L 397.350211 65.508193 
L 404.594678 68.836123 
L 411.717807 72.403853 
L 418.711547 76.207321 
L 425.568134 80.242055 
L 432.279915 84.503737 
L 438.839639 88.987051 
L 445.240059 93.686673 
L 451.47393 98.597279 
L 457.534246 103.713169 
L 463.413624 109.02877 
L 469.105593 114.537608 
L 474.603689 120.233206 
L 479.901449 126.109089 
L 484.993068 132.158482 
L 489.871517 138.374591 
L 494.532413 144.750005 
L 498.97137 151.277312 
L 503.18399 157.949095 
L 507.165964 164.757684 
L 510.916439 171.695643 
L 514.430465 178.754911 
L 517.703092 185.927427 
L 520.729437 193.205128 
L 523.504468 200.579748 
L 526.01763 208.042821 
L 528.265987 215.585406 
L 530.246601 223.198562 
L 531.956521 230.873349 
L 533.394401 238.600729 
L 534.561608 246.37163 
L 535.457849 254.176991 
L 536.082835 262.007753 
L 536.436311 269.854858 
L 536.518168 277.709257 
L 536.327374 285.561793 
L 535.864914 293.403423 
L 535.131774 301.225105 
L 534.128891 309.017803 
L 532.857979 316.772544 
L 531.3236 324.480316 
L 529.528451 332.132492 
L 527.475228 339.720449 
L 525.166758 347.235568 
L 522.604646 354.66935 
L 519.786102 362.013195 
L 516.712871 369.258648 
L 513.386697 376.397258 
L 509.809335 383.420601 
L 505.984505 390.320361 
L 501.918483 397.08807 
L 497.617505 403.716073 
L 493.087809 410.196714 
L 488.33566 416.522372 
L 483.36713 422.685676 
L 478.187797 428.679235 
L 472.803987 434.496412 
L 467.222025 440.130571 
L 461.448282 445.575118 
L 455.489385 450.823712 
L 449.351919 455.869971 
L 443.043438 460.708413 
L 436.571496 465.333553 
L 429.943666 469.739962 
L 423.167846 473.922492 
L 416.252256 477.876014 
L 409.205411 481.596399 
L 402.035824 485.079519 
L 394.752015 488.321302 
L 387.362533 491.317982 
L 379.875945 494.065871 
L 372.300842 496.562268 
L 364.645818 498.80447 
L 356.91948 500.789843 
L 349.130472 502.51604 
L 341.287467 503.980815 
L 333.399357 505.182922 
L 325.475036 506.121114 
L 317.523394 506.79422 
L 309.553399 507.201351 
L 301.574122 507.341761 
L 293.594599 507.215705 
L 285.623866 506.823434 
L 277.670939 506.16528 
L 269.744825 505.24185 
L 261.854559 504.053935 
L 254.008918 502.603276 
L 246.216679 500.891614 
L 238.486611 498.920773 
L 230.827405 496.692829 
L 223.247686 494.210057 
L 215.756018 491.475641 
L 208.360967 488.492763 
L 201.071064 485.26469 
L 193.894901 481.794925 
L 186.841183 478.087198 
L 179.918249 474.14611 
L 173.134443 469.976263 
L 166.498018 465.582333 
L 160.017125 460.969231 
L 153.699739 456.142128 
L 147.552957 451.106915 
L 141.583871 445.869489 
L 135.799513 440.43581 
L 130.2067 434.812032 
L 124.812005 429.004535 
L 119.621446 423.020304 
L 114.641042 416.866319 
L 109.876766 410.549635 
L 105.334648 404.07744 
L 101.021034 397.457133 
L 96.941976 390.696711 
L 93.103526 383.804171 
L 89.511367 376.787516 
L 86.170656 369.655005 
L 83.08462 362.415162 
L 80.25322 355.076491 
L 77.676419 347.647497 
L 75.354315 340.136724 
L 73.287299 332.552632 
L 71.477399 324.903675 
L 69.928042 317.198646 
L 68.642655 309.446337 
L 67.624479 301.655547 
L 66.876198 293.835219 
L 66.39933 285.994423 
L 66.194052 278.142236 
L 66.260539 270.287735 
L 66.599059 262.439997 
L 67.209164 254.608105 
L 68.090149 246.801111 
L 69.242143 239.028072 
L 70.665274 231.298042 
L 72.359 223.619999 
L 74.324103 216.003093 
L 76.559767 208.45653 
L 79.060224 200.989007 
L 81.819708 193.609226 
L 84.832786 186.325831 
L 88.092346 179.147297 
L 91.592138 172.08176 
L 95.328726 165.137044 
L 99.298673 158.320972 
L 103.498296 151.641287 
L 107.92468 145.105748 
L 112.574179 138.721953 
L 117.441383 132.497042 
L 122.520884 126.438152 
L 127.807163 120.552317 
L 133.294328 114.846539 
L 138.976029 109.3275 
L 144.845451 104.001305 
L 150.895782 98.874059 
L 157.120155 93.951745 
L 163.511568 89.240285 
L 170.062824 84.745201 
L 176.766505 80.47141 
L 183.615193 76.423823 
L 190.601396 72.607265 
L 197.717582 69.026399 
L 204.955799 65.685389 
L 212.307683 62.587954 
L 219.764869 59.737811 
L 219.764869 59.737811 
" clip-path="url(#pcee1c2813a)" style="fill: none; stroke-dasharray: 22.4,5.6,3.5,5.6; stroke-dashoffset: 0; stroke: #0000ff; stroke-opacity: 0.8; stroke-width: 3.5"/>
   </g>
   <g id="patch_3">
    <path d="M 42.620313 530.438125 
L 42.620313 22.318125 
" style="fill: none; stroke: #000000; stroke-width: 0.8; stroke-linejoin: miter; stroke-linecap: square"/>
   </g>
   <g id="patch_4">
    <path d="M 561.210312 530.438125 
L 561.210312 22.318125 
" style="fill: none; stroke: #000000; stroke-width: 0.8; stroke-linejoin: miter; stroke-linecap: square"/>
   </g>
   <g id="patch_5">
    <path d="M 42.620313 530.438125 
L 561.210312 530.438125 
" style="fill: none; stroke: #000000; stroke-width: 0.8; stroke-linejoin: miter; stroke-linecap: square"/>
   </g>
   <g id="patch_6">
    <path d="M 42.620313 22.318125 
L 561.210312 22.318125 
" style="fill: none; stroke: #000000; stroke-width: 0.8; stroke-linejoin: miter; stroke-linecap: square"/>
   </g>
   <g id="line2d_13">
    <path d="M 536.289655 265.843931 
L 536.906839 268.594059 
L 537.336155 271.284196 
L 537.57977 273.95429 
L 537.63804 276.644654 
L 537.508162 279.395874 
L 537.184185 282.248586 
L 536.658289 285.243237 
L 535.91865 288.418593 
L 534.951792 291.812244 
L 533.74134 295.458753 
L 532.268516 299.388421 
L 530.513059 303.628579 
L 528.452455 308.198366 
L 526.06348 313.113085 
L 523.321859 318.381037 
L 520.203048 324.004393 
L 516.682385 329.981766 
L 512.735636 336.307193 
L 508.338871 342.973645 
L 503.46874 349.973151 
L 498.10254 357.297345 
L 492.217865 364.938005 
L 485.79346 372.88185 
L 478.808767 381.111444 
L 471.244829 389.597735 
L 463.08588 398.294531 
L 454.318022 407.142712 
L 444.935356 416.051095 
L 440.012977 420.495275 
L 434.936243 424.913983 
L 429.707313 429.288427 
L 424.328348 433.599818 
L 418.801573 437.829315 
L 413.130207 441.956744 
L 407.31696 445.961426 
L 401.367639 449.820407 
L 395.288047 453.510737 
L 389.084068 457.009521 
L 382.762659 460.293573 
L 376.330633 463.337975 
L 369.797815 466.120047 
L 363.174034 468.617112 
L 356.469169 470.80683 
L 349.694 472.668619 
L 342.85987 474.178818 
L 335.979808 475.324712 
L 329.066843 476.093583 
L 322.133978 476.473236 
L 315.194595 476.455756 
L 308.263084 476.032827 
L 301.353116 475.21005 
L 294.478358 473.993024 
L 287.652382 472.387619 
L 280.888443 470.403705 
L 274.200345 468.053829 
L 267.599549 465.356286 
L 261.097518 462.32937 
L 254.70559 458.991357 
L 248.43437 455.361726 
L 242.294409 451.461419 
L 236.293748 447.310675 
L 230.440425 442.929735 
L 224.742357 438.338752 
L 219.206694 433.55759 
L 213.840342 428.606239 
L 208.647987 423.503119 
L 203.634316 418.266654 
L 198.803901 412.915091 
L 194.160647 407.466242 
L 189.708109 401.938156 
L 185.44804 396.346045 
L 181.38219 390.705121 
L 177.512234 385.030298 
L 173.839305 379.335598 
L 170.364095 373.634893 
L 167.086198 367.937633 
L 164.005209 362.253266 
L 161.120694 356.590937 
L 158.431877 350.958469 
L 155.937615 345.362841 
L 153.636441 339.807056 
L 151.526884 334.294116 
L 149.607487 328.826835 
L 147.876662 323.406879 
L 146.332664 318.034973 
L 144.973919 312.709688 
L 143.798855 307.42959 
L 142.80593 302.1932 
L 141.993627 296.99841 
L 141.360447 291.842548 
L 140.905237 286.722532 
L 140.626847 281.635276 
L 140.524152 276.577761 
L 140.596121 271.546809 
L 140.841832 266.539117 
L 141.26064 261.552147 
L 141.851902 256.583358 
L 142.614979 251.630368 
L 143.54933 246.690928 
L 144.654535 241.763002 
L 145.930227 236.846091 
L 147.376038 231.939695 
L 148.991573 227.043544 
L 150.776498 222.157684 
L 152.730549 217.282652 
L 154.853186 212.421093 
L 157.143867 207.575655 
L 159.601973 202.749273 
L 162.226892 197.945339 
L 165.017969 193.168009 
L 167.97387 188.423864 
L 171.093263 183.719486 
L 174.374681 179.061749 
L 177.816594 174.458103 
L 181.417247 169.916936 
L 185.173814 165.448916 
L 189.083468 161.06471 
L 193.143196 156.775217 
L 197.349839 152.591943 
L 201.699802 148.527317 
L 206.188109 144.595388 
L 210.809781 140.810208 
L 215.559627 137.185855 
L 220.432213 133.7371 
L 225.421466 130.479331 
L 230.519825 127.427968 
L 235.719726 124.598432 
L 241.01343 122.005699 
L 246.392824 119.665515 
L 251.849037 117.59315 
L 257.372057 115.800683 
L 262.95187 114.300188 
L 268.578415 113.102798 
L 274.24115 112.219656 
L 279.928966 111.659411 
L 285.630523 111.424636 
L 291.334481 111.517901 
L 297.02962 111.940874 
L 302.704345 112.693761 
L 308.347066 113.773288 
L 313.946976 115.171079 
L 319.493267 116.87876 
L 324.975355 118.887588 
L 330.382594 121.187029 
L 335.704925 123.764469 
L 340.933574 126.605677 
L 346.059769 129.696418 
L 351.074981 133.022522 
L 355.97086 136.568997 
L 360.739898 140.320639 
L 365.375865 144.262804 
L 369.872528 148.380848 
L 374.223879 152.660354 
L 378.42416 157.086774 
L 382.468442 161.646194 
L 386.352873 166.32589 
L 390.073604 171.113137 
L 393.626964 175.995528 
L 397.009531 180.960663 
L 400.218603 185.997141 
L 403.252291 191.09509 
L 406.108707 196.244635 
L 408.786089 201.436265 
L 411.282904 206.660624 
L 413.598161 211.909607 
L 415.731387 217.176717 
L 417.682111 222.455459 
L 419.449934 227.739631 
L 421.034635 233.023397 
L 422.436325 238.302045 
L 423.655386 243.572039 
L 424.692203 248.829842 
L 425.547201 254.07205 
L 426.220898 259.295694 
L 426.713987 264.498407 
L 427.027305 269.678255 
L 427.16169 274.8333 
L 427.118018 279.961556 
L 426.897177 285.061391 
L 426.500174 290.131116 
L 425.928168 295.168758 
L 425.182314 300.172344 
L 424.263835 305.139704 
L 423.1739 310.068876 
L 421.913863 314.957273 
L 420.485329 319.80152 
L 418.889903 324.598239 
L 417.129306 329.343766 
L 415.205164 334.034498 
L 413.119441 338.665833 
L 410.874517 343.232134 
L 408.472768 347.727764 
L 405.916743 352.146779 
L 403.208888 356.483151 
L 400.352189 360.729732 
L 397.350219 364.87837 
L 394.206546 368.92091 
L 390.924964 372.848974 
L 387.509184 376.6539 
L 383.963662 380.32614 
L 380.293566 383.855499 
L 376.504066 387.231783 
L 372.600567 390.444833 
L 368.58848 393.483854 
L 364.474077 396.338008 
L 360.264352 398.996711 
L 355.966299 401.449383 
L 351.587098 403.685945 
L 347.134101 405.695351 
L 342.615417 407.468167 
L 338.039672 408.996652 
L 333.415489 410.273066 
L 328.751546 411.290603 
L 324.056871 412.041793 
L 319.340831 412.522481 
L 314.612871 412.731265 
L 309.882436 412.666746 
L 305.15886 412.328458 
L 300.451871 411.71626 
L 295.770904 410.833497 
L 291.125014 409.685912 
L 286.523259 408.279248 
L 281.974458 406.619761 
L 277.487689 404.714672 
L 273.071228 402.573161 
L 268.732705 400.20546 
L 264.479752 397.621801 
L 260.319719 394.832477 
L 256.260034 391.848566 
L 252.307119 388.6814 
L 248.466708 385.342264 
L 244.744537 381.842441 
L 241.146075 378.193028 
L 237.676758 374.405503 
L 234.341046 370.490671 
L 231.142794 366.458815 
L 228.085859 362.320215 
L 225.173866 358.084866 
L 222.410368 353.762932 
L 219.798076 349.363547 
L 217.339219 344.895182 
L 215.036027 340.366307 
L 212.890548 335.785091 
L 210.904743 331.159737 
L 209.079906 326.497365 
L 207.416976 321.804466 
L 205.91689 317.087529 
L 204.580444 312.35281 
L 203.408368 307.606443 
L 202.400884 302.85373 
L 201.557957 298.099536 
L 200.879548 293.34873 
L 200.365505 288.606072 
L 200.015651 283.876095 
L 199.829402 279.162981 
L 199.805962 274.470779 
L 199.944534 269.803536 
L 200.244204 265.165345 
L 200.704096 260.560043 
L 201.322928 255.99167 
L 202.099202 251.464415 
L 203.031422 246.982465 
L 204.117949 242.550178 
L 205.357236 238.171707 
L 206.747246 233.851837 
L 208.285686 229.595692 
L 209.97026 225.408395 
L 211.798492 221.295292 
L 213.768038 217.261647 
L 215.875919 213.313533 
L 218.118843 209.45741 
L 220.493514 205.699737 
L 222.99642 202.047146 
L 225.624178 198.506396 
L 228.372635 195.084858 
L 231.237273 191.790152 
L 234.213575 188.629898 
L 237.296789 185.611693 
L 240.48224 182.743584 
L 243.76442 180.033489 
L 247.137463 177.4892 
L 250.595501 175.118509 
L 254.132469 172.928831 
L 257.742249 170.928364 
L 261.418019 169.12386 
L 265.152688 167.521376 
L 268.939164 166.12697 
L 272.770261 164.945946 
L 276.638572 163.984391 
L 280.536361 163.24562 
L 284.455807 162.731772 
L 288.389085 162.444991 
L 292.328427 162.38653 
L 296.265729 162.557916 
L 300.1931 162.957557 
L 304.102773 163.582669 
L 307.986979 164.430467 
L 311.83814 165.497496 
L 315.648362 166.779966 
L 319.410438 168.271891 
L 323.117447 169.966536 
L 326.762467 171.857167 
L 330.338841 173.936761 
L 333.839706 176.197735 
L 337.259143 178.63171 
L 340.591583 181.230085 
L 343.831455 183.984258 
L 346.973475 186.885652 
L 350.012255 189.925248 
L 352.9434 193.094254 
L 355.762849 196.383989 
L 358.466542 199.785772 
L 361.05069 203.291112 
L 363.511462 206.891255 
L 365.845938 210.578153 
L 368.051492 214.344007 
L 370.125495 218.181015 
L 372.065554 222.081614 
L 373.869269 226.038119 
L 375.535018 230.043655 
L 377.061422 234.091605 
L 378.447099 238.175354 
L 379.690871 242.288491 
L 380.791551 246.424606 
L 381.748612 250.577945 
L 382.561723 254.742946 
L 383.230553 258.914051 
L 383.754948 263.085818 
L 384.134727 267.252907 
L 384.370291 271.410301 
L 384.462209 275.553072 
L 384.41105 279.676293 
L 384.217557 283.775044 
L 383.882405 287.844554 
L 383.406844 291.879997 
L 382.79228 295.876526 
L 382.040122 299.829291 
L 381.151962 303.73336 
L 380.129289 307.58393 
L 378.974213 311.375853 
L 377.689009 315.103888 
L 376.275952 318.762795 
L 374.737526 322.347213 
L 373.076087 325.851815 
L 371.294688 329.270865 
L 369.396563 332.598533 
L 367.384944 335.828989 
L 365.263289 338.956346 
L 363.034941 341.974559 
L 360.703994 344.87747 
L 358.274723 347.658912 
L 355.751407 350.312711 
L 353.13854 352.832835 
L 350.440563 355.212824 
L 347.66263 357.446832 
L 344.810055 359.529171 
L 341.888154 361.454153 
L 338.902411 363.216514 
L 335.858367 364.810357 
L 332.762078 366.231402 
L 329.619705 367.475734 
L 326.437409 368.539443 
L 323.221423 369.419304 
L 319.978162 370.111502 
L 316.714194 370.614625 
L 313.436107 370.927772 
L 310.15049 371.050039 
L 306.863876 370.981292 
L 303.58306 370.721129 
L 300.314555 370.271596 
L 297.064807 369.635221 
L 293.840263 368.814531 
L 290.647193 367.81266 
L 287.492135 366.632858 
L 284.380976 365.280091 
L 281.319472 363.759639 
L 278.313383 362.076785 
L 275.36821 360.237127 
L 272.48967 358.246572 
L 269.682619 356.111752 
L 266.95176 353.839421 
L 264.301792 351.436332 
L 261.737131 348.909294 
L 259.262337 346.265417 
L 256.881063 343.511771 
L 254.596803 340.655414 
L 252.413052 337.703403 
L 250.333023 334.662688 
L 248.360026 331.540435 
L 246.496504 328.343374 
L 244.744763 325.078156 
L 243.107106 321.751435 
L 241.585575 318.369699 
L 240.182284 314.939553 
L 238.898563 311.467068 
L 237.735622 307.958232 
L 236.694672 304.419032 
L 235.776685 300.855302 
L 234.982698 297.272909 
L 234.313043 293.67729 
L 233.767951 290.073821 
L 233.347653 286.467876 
L 233.052154 282.864738 
L 232.881542 279.269653 
L 232.835241 275.687658 
L 232.912589 272.123755 
L 233.112922 268.582952 
L 233.435357 265.070231 
L 233.879112 261.590516 
L 234.44275 258.148737 
L 235.124752 254.749821 
L 235.9236 251.398696 
L 236.837551 248.100315 
L 237.864976 244.859609 
L 239.003576 241.68161 
L 240.250971 238.571366 
L 241.604781 235.533921 
L 243.062396 232.574334 
L 244.621316 229.697742 
L 246.27836 226.90927 
L 248.030265 224.21404 
L 249.873769 221.617174 
L 251.805385 219.123704 
L 253.821706 216.738904 
L 255.918675 214.46764 
L 258.092162 212.31473 
L 260.33804 210.284991 
L 262.651987 208.382965 
L 265.029694 206.613603 
L 267.466328 204.980815 
L 269.957006 203.488405 
L 272.496846 202.140178 
L 275.080837 200.939435 
L 277.703891 199.889968 
L 280.360641 198.993889 
L 283.045698 198.253151 
L 285.75367 197.66971 
L 288.479144 197.244864 
L 291.216537 196.980306 
L 293.960321 196.875744 
L 296.704973 196.930717 
L 299.444969 197.144763 
L 302.174877 197.516766 
L 304.889049 198.045781 
L 307.582221 198.7291 
L 310.24916 199.563872 
L 312.884635 200.547249 
L 315.483602 201.675883 
L 318.040803 202.946387 
L 320.551616 204.354208 
L 323.011464 205.894715 
L 325.415772 207.563271 
L 327.760221 209.354975 
L 330.040304 211.264765 
L 332.252286 213.28709 
L 334.392487 215.416368 
L 336.457223 217.647016 
L 338.443098 219.973385 
L 340.346565 222.389648 
L 342.164886 224.889988 
L 343.895371 227.468589 
L 345.53533 230.119634 
L 347.082363 232.837367 
L 348.533946 235.615891 
L 351.143845 241.332797 
L 353.3516 247.225476 
L 355.146186 253.249876 
L 355.886173 256.298132 
L 355.886173 256.298132 
" clip-path="url(#pcee1c2813a)" style="fill: none; stroke-dasharray: 3.5,5.775; stroke-dashoffset: 0; stroke: #008000; stroke-opacity: 0.8; stroke-width: 3.5"/>
   </g>
   <g id="text_13">
    <!-- Phase Portrait (x0 vs x1) -->
    <g transform="translate(228.224062 16.318125) scale(0.12 -0.12)">
     <defs>
      <path id="DejaVuSans-50" d="M 1259 4147 
L 1259 2394 
L 2053 2394 
Q 2494 2394 2734 2622 
Q 2975 2850 2975 3272 
Q 2975 3691 2734 3919 
Q 2494 4147 2053 4147 
L 1259 4147 
z
M 628 4666 
L 2053 4666 
Q 2838 4666 3239 4311 
Q 3641 3956 3641 3272 
Q 3641 2581 3239 2228 
Q 2838 1875 2053 1875 
L 1259 1875 
L 1259 0 
L 628 0 
L 628 4666 
z
" transform="scale(0.015625)"/>
      <path id="DejaVuSans-68" d="M 3513 2113 
L 3513 0 
L 2938 0 
L 2938 2094 
Q 2938 2591 2744 2837 
Q 2550 3084 2163 3084 
Q 1697 3084 1428 2787 
Q 1159 2491 1159 1978 
L 1159 0 
L 581 0 
L 581 4863 
L 1159 4863 
L 1159 2956 
Q 1366 3272 1645 3428 
Q 1925 3584 2291 3584 
Q 2894 3584 3203 3211 
Q 3513 2838 3513 2113 
z
" transform="scale(0.015625)"/>
      <path id="DejaVuSans-61" d="M 2194 1759 
Q 1497 1759 1228 1600 
Q 959 1441 959 1056 
Q 959 750 1161 570 
Q 1363 391 1709 391 
Q 2188 391 2477 730 
Q 2766 1069 2766 1631 
L 2766 1759 
L 2194 1759 
z
M 3341 1997 
L 3341 0 
L 2766 0 
L 2766 531 
Q 2569 213 2275 61 
Q 1981 -91 1556 -91 
Q 1019 -91 701 211 
Q 384 513 384 1019 
Q 384 1609 779 1909 
Q 1175 2209 1959 2209 
L 2766 2209 
L 2766 2266 
Q 2766 2663 2505 2880 
Q 2244 3097 1772 3097 
Q 1472 3097 1187 3025 
Q 903 2953 641 2809 
L 641 3341 
Q 956 3463 1253 3523 
Q 1550 3584 1831 3584 
Q 2591 3584 2966 3190 
Q 3341 2797 3341 1997 
z
" transform="scale(0.015625)"/>
      <path id="DejaVuSans-73" d="M 2834 3397 
L 2834 2853 
Q 2591 2978 2328 3040 
Q 2066 3103 1784 3103 
Q 1356 3103 1142 2972 
Q 928 2841 928 2578 
Q 928 2378 1081 2264 
Q 1234 2150 1697 2047 
L 1894 2003 
Q 2506 1872 2764 1633 
Q 3022 1394 3022 966 
Q 3022 478 2636 193 
Q 2250 -91 1575 -91 
Q 1294 -91 989 -36 
Q 684 19 347 128 
L 347 722 
Q 666 556 975 473 
Q 1284 391 1588 391 
Q 1994 391 2212 530 
Q 2431 669 2431 922 
Q 2431 1156 2273 1281 
Q 2116 1406 1581 1522 
L 1381 1569 
Q 847 1681 609 1914 
Q 372 2147 372 2553 
Q 372 3047 722 3315 
Q 1072 3584 1716 3584 
Q 2034 3584 2315 3537 
Q 2597 3491 2834 3397 
z
" transform="scale(0.015625)"/>
      <path id="DejaVuSans-65" d="M 3597 1894 
L 3597 1613 
L 953 1613 
Q 991 1019 1311 708 
Q 1631 397 2203 397 
Q 2534 397 2845 478 
Q 3156 559 3463 722 
L 3463 178 
Q 3153 47 2828 -22 
Q 2503 -91 2169 -91 
Q 1331 -91 842 396 
Q 353 884 353 1716 
Q 353 2575 817 3079 
Q 1281 3584 2069 3584 
Q 2775 3584 3186 3129 
Q 3597 2675 3597 1894 
z
M 3022 2063 
Q 3016 2534 2758 2815 
Q 2500 3097 2075 3097 
Q 1594 3097 1305 2825 
Q 1016 2553 972 2059 
L 3022 2063 
z
" transform="scale(0.015625)"/>
      <path id="DejaVuSans-20" transform="scale(0.015625)"/>
      <path id="DejaVuSans-6f" d="M 1959 3097 
Q 1497 3097 1228 2736 
Q 959 2375 959 1747 
Q 959 1119 1226 758 
Q 1494 397 1959 397 
Q 2419 397 2687 759 
Q 2956 1122 2956 1747 
Q 2956 2369 2687 2733 
Q 2419 3097 1959 3097 
z
M 1959 3584 
Q 2709 3584 3137 3096 
Q 3566 2609 3566 1747 
Q 3566 888 3137 398 
Q 2709 -91 1959 -91 
Q 1206 -91 779 398 
Q 353 888 353 1747 
Q 353 2609 779 3096 
Q 1206 3584 1959 3584 
z
" transform="scale(0.015625)"/>
      <path id="DejaVuSans-72" d="M 2631 2963 
Q 2534 3019 2420 3045 
Q 2306 3072 2169 3072 
Q 1681 3072 1420 2755 
Q 1159 2438 1159 1844 
L 1159 0 
L 581 0 
L 581 3500 
L 1159 3500 
L 1159 2956 
Q 1341 3275 1631 3429 
Q 1922 3584 2338 3584 
Q 2397 3584 2469 3576 
Q 2541 3569 2628 3553 
L 2631 2963 
z
" transform="scale(0.015625)"/>
      <path id="DejaVuSans-74" d="M 1172 4494 
L 1172 3500 
L 2356 3500 
L 2356 3053 
L 1172 3053 
L 1172 1153 
Q 1172 725 1289 603 
Q 1406 481 1766 481 
L 2356 481 
L 2356 0 
L 1766 0 
Q 1100 0 847 248 
Q 594 497 594 1153 
L 594 3053 
L 172 3053 
L 172 3500 
L 594 3500 
L 594 4494 
L 1172 4494 
z
" transform="scale(0.015625)"/>
      <path id="DejaVuSans-69" d="M 603 3500 
L 1178 3500 
L 1178 0 
L 603 0 
L 603 3500 
z
M 603 4863 
L 1178 4863 
L 1178 4134 
L 603 4134 
L 603 4863 
z
" transform="scale(0.015625)"/>
      <path id="DejaVuSans-28" d="M 1984 4856 
Q 1566 4138 1362 3434 
Q 1159 2731 1159 2009 
Q 1159 1288 1364 580 
Q 1569 -128 1984 -844 
L 1484 -844 
Q 1016 -109 783 600 
Q 550 1309 550 2009 
Q 550 2706 781 3412 
Q 1013 4119 1484 4856 
L 1984 4856 
z
" transform="scale(0.015625)"/>
      <path id="DejaVuSans-76" d="M 191 3500 
L 800 3500 
L 1894 563 
L 2988 3500 
L 3597 3500 
L 2284 0 
L 1503 0 
L 191 3500 
z
" transform="scale(0.015625)"/>
      <path id="DejaVuSans-29" d="M 513 4856 
L 1013 4856 
Q 1481 4119 1714 3412 
Q 1947 2706 1947 2009 
Q 1947 1309 1714 600 
Q 1481 -109 1013 -844 
L 513 -844 
Q 928 -128 1133 580 
Q 1338 1288 1338 2009 
Q 1338 2731 1133 3434 
Q 928 4138 513 4856 
z
" transform="scale(0.015625)"/>
     </defs>
     <use xlink:href="#DejaVuSans-50"/>
     <use xlink:href="#DejaVuSans-68" transform="translate(60.302734 0)"/>
     <use xlink:href="#DejaVuSans-61" transform="translate(123.681641 0)"/>
     <use xlink:href="#DejaVuSans-73" transform="translate(184.960938 0)"/>
     <use xlink:href="#DejaVuSans-65" transform="translate(237.060547 0)"/>
     <use xlink:href="#DejaVuSans-20" transform="translate(298.583984 0)"/>
     <use xlink:href="#DejaVuSans-50" transform="translate(330.371094 0)"/>
     <use xlink:href="#DejaVuSans-6f" transform="translate(387.048828 0)"/>
     <use xlink:href="#DejaVuSans-72" transform="translate(448.230469 0)"/>
     <use xlink:href="#DejaVuSans-74" transform="translate(489.34375 0)"/>
     <use xlink:href="#DejaVuSans-72" transform="translate(528.552734 0)"/>
     <use xlink:href="#DejaVuSans-61" transform="translate(569.666016 0)"/>
     <use xlink:href="#DejaVuSans-69" transform="translate(630.945312 0)"/>
     <use xlink:href="#DejaVuSans-74" transform="translate(658.728516 0)"/>
     <use xlink:href="#DejaVuSans-20" transform="translate(697.9375 0)"/>
     <use xlink:href="#DejaVuSans-28" transform="translate(729.724609 0)"/>
     <use xlink:href="#DejaVuSans-78" transform="translate(768.738281 0)"/>
     <use xlink:href="#DejaVuSans-30" transform="translate(827.917969 0)"/>
     <use xlink:href="#DejaVuSans-20" transform="translate(891.541016 0)"/>
     <use xlink:href="#DejaVuSans-76" transform="translate(923.328125 0)"/>
     <use xlink:href="#DejaVuSans-73" transform="translate(982.507812 0)"/>
     <use xlink:href="#DejaVuSans-20" transform="translate(1034.607422 0)"/>
     <use xlink:href="#DejaVuSans-78" transform="translate(1066.394531 0)"/>
     <use xlink:href="#DejaVuSans-31" transform="translate(1125.574219 0)"/>
     <use xlink:href="#DejaVuSans-29" transform="translate(1189.197266 0)"/>
    </g>
   </g>
   <g id="line2d_14">
    <path d="M 536.289655 265.843931 
L 536.828783 270.844131 
L 537.02506 275.757002 
L 536.882764 280.617894 
L 536.404685 285.461732 
L 535.590691 290.322587 
L 534.438276 295.233935 
L 532.943246 300.228764 
L 531.098167 305.339099 
L 528.89432 310.59654 
L 526.320316 316.031502 
L 523.362724 321.673177 
L 520.006585 327.549713 
L 516.234345 333.686049 
L 512.027466 340.105574 
L 507.365542 346.826972 
L 502.227166 353.863917 
L 496.590107 361.225813 
L 490.431975 368.910108 
L 483.730519 376.908731 
L 476.464767 385.198147 
L 468.616114 393.740303 
L 460.167724 402.484734 
L 451.109606 411.352777 
L 441.434922 420.25366 
L 436.366635 424.680225 
L 431.146053 429.067826 
L 425.774677 433.398886 
L 420.254392 437.654502 
L 414.587512 441.814373 
L 408.778806 445.855502 
L 402.833045 449.754893 
L 396.75527 453.489685 
L 390.551095 457.035847 
L 384.226938 460.368421 
L 377.791665 463.464006 
L 371.254146 466.299203 
L 364.62344 468.851369 
L 357.909314 471.097601 
L 351.122515 473.015756 
L 344.275367 474.590473 
L 337.380193 475.806391 
L 330.44933 476.649323 
L 323.495769 477.106335 
L 316.533216 477.167488 
L 309.575413 476.83227 
L 302.636104 476.100174 
L 295.728848 474.971717 
L 288.867553 473.449899 
L 282.066159 471.541658 
L 275.337162 469.261321 
L 268.693062 466.623215 
L 262.146052 463.642089 
L 255.708236 460.335135 
L 249.39102 456.722238 
L 243.203628 452.825723 
L 237.155283 448.66792 
L 231.254891 444.270934 
L 225.510933 439.658167 
L 219.9308 434.853348 
L 214.519805 429.878352 
L 209.283263 424.755049 
L 204.22624 419.50474 
L 199.353263 414.148735 
L 194.667807 408.706855 
L 190.171868 403.195207 
L 185.867442 397.629894 
L 181.756373 392.026404 
L 177.840039 386.399515 
L 174.119069 380.761888 
L 170.593285 375.122615 
L 167.262509 369.490788 
L 164.126504 363.87501 
L 161.184713 358.283033 
L 158.436186 352.720743 
L 155.879695 347.191465 
L 153.514013 341.698522 
L 151.337914 336.244933 
L 149.35 330.833017 
L 147.548769 325.463823 
L 145.932766 320.136934 
L 144.500537 314.851928 
L 143.250663 309.608251 
L 142.181666 304.404861 
L 141.292145 299.24007 
L 140.580898 294.111615 
L 140.04672 289.017235 
L 139.688456 283.954683 
L 139.504962 278.921392 
L 139.495254 273.914695 
L 139.658559 268.932068 
L 139.994106 263.970986 
L 140.501151 259.029078 
L 141.179018 254.103757 
L 142.027177 249.192844 
L 143.045212 244.294923 
L 144.232707 239.408579 
L 145.58923 234.532699 
L 147.114465 229.666014 
L 148.808128 224.808185 
L 150.669853 219.960232 
L 152.699274 215.123178 
L 154.89594 210.298491 
L 157.25955 205.487556 
L 159.789629 200.693228 
L 162.485327 195.920242 
L 165.345794 191.173329 
L 168.370003 186.457764 
L 171.557099 181.778901 
L 174.905741 177.143974 
L 178.413871 172.562315 
L 182.079428 168.043256 
L 185.900082 163.596602 
L 189.873645 159.232577 
L 193.997086 154.963206 
L 198.266343 150.80217 
L 202.677352 146.763149 
L 207.225728 142.859961 
L 211.907108 139.107313 
L 216.716003 135.520704 
L 221.645765 132.115904 
L 226.689745 128.908684 
L 231.840998 125.914367 
L 237.0924 123.149468 
L 242.435677 120.629275 
L 247.86159 118.367265 
L 253.360902 116.376917 
L 258.924217 114.670663 
L 264.541731 113.261862 
L 270.202876 112.160366 
L 275.896657 111.372432 
L 281.612079 110.904316 
L 287.338199 110.760989 
L 293.063551 110.947446 
L 298.776639 111.46403 
L 304.466229 112.307143 
L 310.121091 113.473181 
L 315.730241 114.957553 
L 321.282263 116.754698 
L 326.766495 118.855266 
L 332.173094 121.247251 
L 337.49222 123.918647 
L 342.714392 126.857086 
L 347.829932 130.048839 
L 352.830425 133.478655 
L 357.708506 137.130619 
L 362.456809 140.988816 
L 367.068332 145.037571 
L 371.536123 149.260149 
L 375.854583 153.640551 
L 380.019075 158.163674 
L 384.024962 162.814414 
L 387.867902 167.578231 
L 391.543745 172.440122 
L 395.049467 177.387089 
L 398.382746 182.407669 
L 401.541261 187.490399 
L 404.522888 192.62442 
L 407.325729 197.798903 
L 409.948644 203.0052 
L 412.390925 208.236102 
L 414.651858 213.484401 
L 416.730846 218.743351 
L 418.627468 224.0065 
L 420.341733 229.269062 
L 421.873868 234.527233 
L 423.224098 239.777211 
L 424.392704 245.015436 
L 425.38007 250.238738 
L 426.186792 255.444819 
L 426.813565 260.631816 
L 427.261086 265.797869 
L 427.530092 270.941126 
L 427.621333 276.060145 
L 427.535696 281.153515 
L 427.274148 286.219752 
L 426.837657 291.257373 
L 426.227253 296.26469 
L 425.443892 301.240408 
L 424.488733 306.182486 
L 423.363077 311.088386 
L 422.068222 315.955573 
L 420.605587 320.781133 
L 418.976434 325.562478 
L 417.182426 330.295656 
L 415.225479 334.975928 
L 413.107511 339.598557 
L 410.830635 344.158349 
L 408.396753 348.650257 
L 405.808446 353.067588 
L 403.06869 357.402798 
L 400.180461 361.648341 
L 397.147008 365.796304 
L 393.971367 369.838572 
L 390.657534 373.765726 
L 387.210014 377.567753 
L 383.633312 381.234645 
L 379.932243 384.756332 
L 376.111498 388.122082 
L 372.176877 391.321013 
L 368.134714 394.34229 
L 363.991344 397.175081 
L 359.753376 399.808986 
L 355.427471 402.232578 
L 351.021283 404.436093 
L 346.542887 406.410661 
L 342.000359 408.147413 
L 337.401921 409.638399 
L 332.756068 410.874684 
L 328.071836 411.850713 
L 323.358441 412.562512 
L 318.625099 413.006104 
L 313.88099 413.178652 
L 309.135713 413.076865 
L 304.398739 412.701508 
L 299.679419 412.055059 
L 294.987103 411.139996 
L 290.330924 409.959752 
L 285.720443 408.518039 
L 281.164433 406.82182 
L 276.671298 404.879294 
L 272.249442 402.69866 
L 267.906934 400.288599 
L 263.652147 397.658559 
L 259.492245 394.819445 
L 255.433905 391.782627 
L 251.483803 388.559473 
L 247.648244 385.161321 
L 243.933669 381.600322 
L 240.345216 377.88829 
L 236.887542 374.036837 
L 233.565305 370.057573 
L 230.382829 365.961733 
L 227.344436 361.761104 
L 224.453306 357.466052 
L 221.712227 353.086394 
L 219.123988 348.631951 
L 216.691117 344.112062 
L 214.41607 339.536275 
L 212.300436 334.912483 
L 210.34552 330.248006 
L 208.552628 325.550167 
L 206.922874 320.825892 
L 205.457306 316.082038 
L 204.156349 311.324191 
L 203.020237 306.557534 
L 202.049205 301.787252 
L 201.243339 297.018318 
L 200.602707 292.255465 
L 200.126907 287.502842 
L 199.815392 282.764433 
L 199.667618 278.044222 
L 199.682903 273.346199 
L 199.860615 268.674033 
L 200.199678 264.031548 
L 200.698878 259.422629 
L 201.357002 254.851163 
L 202.172679 250.321226 
L 203.144659 245.836588 
L 204.271154 241.40177 
L 205.550215 237.02152 
L 206.979892 232.700587 
L 208.558028 228.444011 
L 210.282646 224.256652 
L 212.15106 220.144395 
L 214.16038 216.113412 
L 216.307715 212.169875 
L 218.589915 208.320211 
L 221.004027 204.57092 
L 223.546211 200.929302 
L 226.212388 197.402856 
L 228.998481 193.999081 
L 231.900125 190.725521 
L 234.913097 187.590143 
L 238.032215 184.60088 
L 241.252052 181.765632 
L 244.567182 179.092301 
L 247.971919 176.588471 
L 251.460594 174.262466 
L 255.026696 172.12128 
L 258.663518 170.171564 
L 262.364354 168.419969 
L 266.12233 166.872437 
L 269.930423 165.535736 
L 273.781123 164.414041 
L 277.666821 163.510909 
L 281.579909 162.829898 
L 285.512758 162.373611 
L 289.457446 162.145243 
L 293.40609 162.144769 
L 297.350831 162.371451 
L 301.283808 162.824549 
L 305.197306 163.502403 
L 309.083252 164.403487 
L 312.934156 165.523417 
L 316.742661 166.85722 
L 320.501411 168.399926 
L 324.203324 170.145935 
L 327.840999 172.089345 
L 331.408012 174.222557 
L 334.898142 176.53765 
L 338.305168 179.0267 
L 341.623215 181.681563 
L 344.846185 184.493587 
L 347.969124 187.453776 
L 350.987302 190.553083 
L 353.895985 193.782461 
L 356.690797 197.132989 
L 359.367236 200.595275 
L 361.921914 204.160584 
L 364.351638 207.820309 
L 366.653218 211.565843 
L 368.823782 215.388888 
L 370.860406 219.280856 
L 372.761119 223.234227 
L 374.524114 227.241667 
L 376.147584 231.295844 
L 377.629989 235.389745 
L 378.969761 239.516276 
L 380.166117 243.669298 
L 381.218396 247.842827 
L 382.125939 252.030877 
L 382.888315 256.227682 
L 383.505049 260.427553 
L 383.97633 264.625332 
L 384.302446 268.815942 
L 384.483688 272.994305 
L 384.520555 277.155405 
L 384.413466 281.294392 
L 384.163465 285.40644 
L 383.771691 289.486728 
L 383.239281 293.530432 
L 382.567591 297.532649 
L 381.75785 301.488642 
L 380.811958 305.393311 
L 379.73191 309.241505 
L 378.519699 313.028073 
L 377.177563 316.747718 
L 375.707583 320.395205 
L 374.112595 323.964837 
L 372.395536 327.450855 
L 370.559344 330.847502 
L 368.607221 334.148927 
L 366.54222 337.349146 
L 364.368214 340.442012 
L 362.089176 343.421357 
L 359.709078 346.281017 
L 357.232163 349.014924 
L 354.662575 351.616631 
L 352.005246 354.08023 
L 349.2652 356.399879 
L 346.44746 358.569734 
L 343.557274 360.58434 
L 340.599896 362.437665 
L 337.581185 364.125134 
L 334.507065 365.642334 
L 331.383461 366.98485 
L 328.216428 368.14894 
L 325.012149 369.130251 
L 321.777078 369.92666 
L 318.517697 370.536272 
L 315.240486 370.957189 
L 311.951925 371.188351 
L 308.658723 371.228246 
L 305.367439 371.077862 
L 302.084613 370.738422 
L 298.816786 370.211146 
L 295.570359 369.498051 
L 292.352009 368.60099 
L 289.167856 367.523942 
L 286.023968 366.271068 
L 282.926414 364.846528 
L 279.881004 363.255049 
L 276.893816 361.501475 
L 273.970076 359.591935 
L 271.11494 357.532659 
L 268.333566 355.329881 
L 265.630781 352.990083 
L 263.01163 350.520025 
L 260.480172 347.926826 
L 258.040393 345.21763 
L 255.696281 342.399582 
L 253.451472 339.479803 
L 251.309759 336.465706 
L 249.273957 333.364379 
L 247.346814 330.182886 
L 245.531078 326.928293 
L 243.829163 323.607481 
L 242.243595 320.227538 
L 240.776006 316.794932 
L 239.427975 313.31609 
L 238.201079 309.797439 
L 237.096591 306.245189 
L 236.11588 302.665643 
L 235.25952 299.064524 
L 234.528042 295.447525 
L 233.921978 291.820339 
L 233.441582 288.188499 
L 233.087205 284.557533 
L 232.85848 280.932638 
L 232.755 277.318993 
L 232.776362 273.721774 
L 232.921897 270.146101 
L 233.191052 266.597037 
L 233.582577 263.079588 
L 234.095191 259.598754 
L 234.727613 256.159537 
L 235.478297 252.766953 
L 236.345832 249.425985 
L 237.328093 246.141705 
L 238.42293 242.919187 
L 239.628193 239.763506 
L 240.94146 236.679752 
L 242.360444 233.673084 
L 243.882132 230.748652 
L 245.503489 227.911608 
L 247.221477 225.167101 
L 249.03279 222.520206 
L 250.934232 219.976212 
L 252.92191 217.540032 
L 254.991911 215.21657 
L 257.140325 213.010731 
L 259.362999 210.927155 
L 261.655827 208.970852 
L 264.014129 207.145884 
L 266.433211 205.456295 
L 268.90838 203.90613 
L 271.434765 202.49894 
L 274.00746 201.238738 
L 276.621209 200.128007 
L 279.270746 199.169205 
L 281.950807 198.364791 
L 284.656053 197.716542 
L 287.381023 197.226683 
L 290.12021 196.895544 
L 292.868105 196.723435 
L 295.619201 196.710667 
L 298.368037 196.856803 
L 301.108966 197.161722 
L 303.836623 197.623441 
L 306.545649 198.239963 
L 309.230683 199.009294 
L 311.886532 199.928778 
L 314.507787 200.995888 
L 317.089607 202.206649 
L 319.627155 203.557079 
L 322.115596 205.043198 
L 324.550351 206.660581 
L 326.926638 208.404748 
L 329.240433 210.270399 
L 331.487706 212.25224 
L 333.664441 214.344968 
L 335.766913 216.543086 
L 337.79125 218.840941 
L 339.734399 221.232668 
L 341.593307 223.712396 
L 343.364933 226.274262 
L 345.046537 228.912385 
L 346.635283 231.62074 
L 348.129136 234.393478 
L 349.526062 237.224752 
L 352.021339 243.039624 
L 354.107459 249.019202 
L 355.7753 255.119044 
L 357.017577 261.295496 
L 357.830573 267.506368 
L 358.213486 273.710724 
L 358.167863 279.868469 
L 357.985802 282.917649 
L 357.985802 282.917649 
" clip-path="url(#pcee1c2813a)" style="fill: none; stroke-dasharray: 12.95,5.6; stroke-dashoffset: 0; stroke: #ff0000; stroke-opacity: 0.8; stroke-width: 3.5"/>
   </g>
   <g id="legend_1">
    <g id="patch_7">
     <path d="M 408.860312 89.030625 
L 554.210312 89.030625 
Q 556.210312 89.030625 556.210312 87.030625 
L 556.210312 29.318125 
Q 556.210312 27.318125 554.210312 27.318125 
L 408.860312 27.318125 
Q 406.860312 27.318125 406.860312 29.318125 
L 406.860312 87.030625 
Q 406.860312 89.030625 408.860312 89.030625 
z
" style="fill: #ffffff; opacity: 0.8; stroke: #cccccc; stroke-linejoin: miter"/>
    </g>
    <g id="line2d_15">
     <path d="M 410.860312 35.416562 
L 420.860312 35.416562 
L 430.860312 35.416562 
" style="fill: none; stroke: #000000; stroke-opacity: 0.3; stroke-width: 7; stroke-linecap: square"/>
    </g>
    <g id="text_14">
     <!-- True/Underlying model -->
     <g transform="translate(438.860312 38.916562) scale(0.1 -0.1)">
      <defs>
       <path id="DejaVuSans-54" d="M -19 4666 
L 3928 4666 
L 3928 4134 
L 2272 4134 
L 2272 0 
L 1638 0 
L 1638 4134 
L -19 4134 
L -19 4666 
z
" transform="scale(0.015625)"/>
       <path id="DejaVuSans-75" d="M 544 1381 
L 544 3500 
L 1119 3500 
L 1119 1403 
Q 1119 906 1312 657 
Q 1506 409 1894 409 
Q 2359 409 2629 706 
Q 2900 1003 2900 1516 
L 2900 3500 
L 3475 3500 
L 3475 0 
L 2900 0 
L 2900 538 
Q 2691 219 2414 64 
Q 2138 -91 1772 -91 
Q 1169 -91 856 284 
Q 544 659 544 1381 
z
M 1991 3584 
L 1991 3584 
z
" transform="scale(0.015625)"/>
       <path id="DejaVuSans-2f" d="M 1625 4666 
L 2156 4666 
L 531 -594 
L 0 -594 
L 1625 4666 
z
" transform="scale(0.015625)"/>
       <path id="DejaVuSans-55" d="M 556 4666 
L 1191 4666 
L 1191 1831 
Q 1191 1081 1462 751 
Q 1734 422 2344 422 
Q 2950 422 3222 751 
Q 3494 1081 3494 1831 
L 3494 4666 
L 4128 4666 
L 4128 1753 
Q 4128 841 3676 375 
Q 3225 -91 2344 -91 
Q 1459 -91 1007 375 
Q 556 841 556 1753 
L 556 4666 
z
" transform="scale(0.015625)"/>
       <path id="DejaVuSans-6e" d="M 3513 2113 
L 3513 0 
L 2938 0 
L 2938 2094 
Q 2938 2591 2744 2837 
Q 2550 3084 2163 3084 
Q 1697 3084 1428 2787 
Q 1159 2491 1159 1978 
L 1159 0 
L 581 0 
L 581 3500 
L 1159 3500 
L 1159 2956 
Q 1366 3272 1645 3428 
Q 1925 3584 2291 3584 
Q 2894 3584 3203 3211 
Q 3513 2838 3513 2113 
z
" transform="scale(0.015625)"/>
       <path id="DejaVuSans-64" d="M 2906 2969 
L 2906 4863 
L 3481 4863 
L 3481 0 
L 2906 0 
L 2906 525 
Q 2725 213 2448 61 
Q 2172 -91 1784 -91 
Q 1150 -91 751 415 
Q 353 922 353 1747 
Q 353 2572 751 3078 
Q 1150 3584 1784 3584 
Q 2172 3584 2448 3432 
Q 2725 3281 2906 2969 
z
M 947 1747 
Q 947 1113 1208 752 
Q 1469 391 1925 391 
Q 2381 391 2643 752 
Q 2906 1113 2906 1747 
Q 2906 2381 2643 2742 
Q 2381 3103 1925 3103 
Q 1469 3103 1208 2742 
Q 947 2381 947 1747 
z
" transform="scale(0.015625)"/>
       <path id="DejaVuSans-6c" d="M 603 4863 
L 1178 4863 
L 1178 0 
L 603 0 
L 603 4863 
z
" transform="scale(0.015625)"/>
       <path id="DejaVuSans-79" d="M 2059 -325 
Q 1816 -950 1584 -1140 
Q 1353 -1331 966 -1331 
L 506 -1331 
L 506 -850 
L 844 -850 
Q 1081 -850 1212 -737 
Q 1344 -625 1503 -206 
L 1606 56 
L 191 3500 
L 800 3500 
L 1894 763 
L 2988 3500 
L 3597 3500 
L 2059 -325 
z
" transform="scale(0.015625)"/>
       <path id="DejaVuSans-67" d="M 2906 1791 
Q 2906 2416 2648 2759 
Q 2391 3103 1925 3103 
Q 1463 3103 1205 2759 
Q 947 2416 947 1791 
Q 947 1169 1205 825 
Q 1463 481 1925 481 
Q 2391 481 2648 825 
Q 2906 1169 2906 1791 
z
M 3481 434 
Q 3481 -459 3084 -895 
Q 2688 -1331 1869 -1331 
Q 1566 -1331 1297 -1286 
Q 1028 -1241 775 -1147 
L 775 -588 
Q 1028 -725 1275 -790 
Q 1522 -856 1778 -856 
Q 2344 -856 2625 -561 
Q 2906 -266 2906 331 
L 2906 616 
Q 2728 306 2450 153 
Q 2172 0 1784 0 
Q 1141 0 747 490 
Q 353 981 353 1791 
Q 353 2603 747 3093 
Q 1141 3584 1784 3584 
Q 2172 3584 2450 3431 
Q 2728 3278 2906 2969 
L 2906 3500 
L 3481 3500 
L 3481 434 
z
" transform="scale(0.015625)"/>
       <path id="DejaVuSans-6d" d="M 3328 2828 
Q 3544 3216 3844 3400 
Q 4144 3584 4550 3584 
Q 5097 3584 5394 3201 
Q 5691 2819 5691 2113 
L 5691 0 
L 5113 0 
L 5113 2094 
Q 5113 2597 4934 2840 
Q 4756 3084 4391 3084 
Q 3944 3084 3684 2787 
Q 3425 2491 3425 1978 
L 3425 0 
L 2847 0 
L 2847 2094 
Q 2847 2600 2669 2842 
Q 2491 3084 2119 3084 
Q 1678 3084 1418 2786 
Q 1159 2488 1159 1978 
L 1159 0 
L 581 0 
L 581 3500 
L 1159 3500 
L 1159 2956 
Q 1356 3278 1631 3431 
Q 1906 3584 2284 3584 
Q 2666 3584 2933 3390 
Q 3200 3197 3328 2828 
z
" transform="scale(0.015625)"/>
      </defs>
      <use xlink:href="#DejaVuSans-54"/>
      <use xlink:href="#DejaVuSans-72" transform="translate(46.333984 0)"/>
      <use xlink:href="#DejaVuSans-75" transform="translate(87.447266 0)"/>
      <use xlink:href="#DejaVuSans-65" transform="translate(150.826172 0)"/>
      <use xlink:href="#DejaVuSans-2f" transform="translate(212.349609 0)"/>
      <use xlink:href="#DejaVuSans-55" transform="translate(246.041016 0)"/>
      <use xlink:href="#DejaVuSans-6e" transform="translate(319.234375 0)"/>
      <use xlink:href="#DejaVuSans-64" transform="translate(382.613281 0)"/>
      <use xlink:href="#DejaVuSans-65" transform="translate(446.089844 0)"/>
      <use xlink:href="#DejaVuSans-72" transform="translate(507.613281 0)"/>
      <use xlink:href="#DejaVuSans-6c" transform="translate(548.726562 0)"/>
      <use xlink:href="#DejaVuSans-79" transform="translate(576.509766 0)"/>
      <use xlink:href="#DejaVuSans-69" transform="translate(635.689453 0)"/>
      <use xlink:href="#DejaVuSans-6e" transform="translate(663.472656 0)"/>
      <use xlink:href="#DejaVuSans-67" transform="translate(726.851562 0)"/>
      <use xlink:href="#DejaVuSans-20" transform="translate(790.328125 0)"/>
      <use xlink:href="#DejaVuSans-6d" transform="translate(822.115234 0)"/>
      <use xlink:href="#DejaVuSans-6f" transform="translate(919.527344 0)"/>
      <use xlink:href="#DejaVuSans-64" transform="translate(980.708984 0)"/>
      <use xlink:href="#DejaVuSans-65" transform="translate(1044.185547 0)"/>
      <use xlink:href="#DejaVuSans-6c" transform="translate(1105.708984 0)"/>
     </g>
    </g>
    <g id="line2d_16">
     <path d="M 410.860312 50.094687 
L 420.860312 50.094687 
L 430.860312 50.094687 
" style="fill: none; stroke-dasharray: 12.95,5.6; stroke-dashoffset: 0; stroke: #ff0000; stroke-opacity: 0.8; stroke-width: 3.5"/>
    </g>
    <g id="text_15">
     <!-- AutoSINDy -->
     <g transform="translate(438.860312 53.594687) scale(0.1 -0.1)">
      <defs>
       <path id="DejaVuSans-41" d="M 2188 4044 
L 1331 1722 
L 3047 1722 
L 2188 4044 
z
M 1831 4666 
L 2547 4666 
L 4325 0 
L 3669 0 
L 3244 1197 
L 1141 1197 
L 716 0 
L 50 0 
L 1831 4666 
z
" transform="scale(0.015625)"/>
       <path id="DejaVuSans-53" d="M 3425 4513 
L 3425 3897 
Q 3066 4069 2747 4153 
Q 2428 4238 2131 4238 
Q 1616 4238 1336 4038 
Q 1056 3838 1056 3469 
Q 1056 3159 1242 3001 
Q 1428 2844 1947 2747 
L 2328 2669 
Q 3034 2534 3370 2195 
Q 3706 1856 3706 1288 
Q 3706 609 3251 259 
Q 2797 -91 1919 -91 
Q 1588 -91 1214 -16 
Q 841 59 441 206 
L 441 856 
Q 825 641 1194 531 
Q 1563 422 1919 422 
Q 2459 422 2753 634 
Q 3047 847 3047 1241 
Q 3047 1584 2836 1778 
Q 2625 1972 2144 2069 
L 1759 2144 
Q 1053 2284 737 2584 
Q 422 2884 422 3419 
Q 422 4038 858 4394 
Q 1294 4750 2059 4750 
Q 2388 4750 2728 4690 
Q 3069 4631 3425 4513 
z
" transform="scale(0.015625)"/>
       <path id="DejaVuSans-49" d="M 628 4666 
L 1259 4666 
L 1259 0 
L 628 0 
L 628 4666 
z
" transform="scale(0.015625)"/>
       <path id="DejaVuSans-4e" d="M 628 4666 
L 1478 4666 
L 3547 763 
L 3547 4666 
L 4159 4666 
L 4159 0 
L 3309 0 
L 1241 3903 
L 1241 0 
L 628 0 
L 628 4666 
z
" transform="scale(0.015625)"/>
       <path id="DejaVuSans-44" d="M 1259 4147 
L 1259 519 
L 2022 519 
Q 2988 519 3436 956 
Q 3884 1394 3884 2338 
Q 3884 3275 3436 3711 
Q 2988 4147 2022 4147 
L 1259 4147 
z
M 628 4666 
L 1925 4666 
Q 3281 4666 3915 4102 
Q 4550 3538 4550 2338 
Q 4550 1131 3912 565 
Q 3275 0 1925 0 
L 628 0 
L 628 4666 
z
" transform="scale(0.015625)"/>
      </defs>
      <use xlink:href="#DejaVuSans-41"/>
      <use xlink:href="#DejaVuSans-75" transform="translate(68.408203 0)"/>
      <use xlink:href="#DejaVuSans-74" transform="translate(131.787109 0)"/>
      <use xlink:href="#DejaVuSans-6f" transform="translate(170.996094 0)"/>
      <use xlink:href="#DejaVuSans-53" transform="translate(232.177734 0)"/>
      <use xlink:href="#DejaVuSans-49" transform="translate(295.654297 0)"/>
      <use xlink:href="#DejaVuSans-4e" transform="translate(325.146484 0)"/>
      <use xlink:href="#DejaVuSans-44" transform="translate(399.951172 0)"/>
      <use xlink:href="#DejaVuSans-79" transform="translate(476.953125 0)"/>
     </g>
    </g>
    <g id="line2d_17">
     <path d="M 410.860312 64.772812 
L 420.860312 64.772812 
L 430.860312 64.772812 
" style="fill: none; stroke-dasharray: 3.5,5.775; stroke-dashoffset: 0; stroke: #008000; stroke-opacity: 0.8; stroke-width: 3.5"/>
    </g>
    <g id="text_16">
     <!-- Standard SINDy -->
     <g transform="translate(438.860312 68.272812) scale(0.1 -0.1)">
      <use xlink:href="#DejaVuSans-53"/>
      <use xlink:href="#DejaVuSans-74" transform="translate(63.476562 0)"/>
      <use xlink:href="#DejaVuSans-61" transform="translate(102.685547 0)"/>
      <use xlink:href="#DejaVuSans-6e" transform="translate(163.964844 0)"/>
      <use xlink:href="#DejaVuSans-64" transform="translate(227.34375 0)"/>
      <use xlink:href="#DejaVuSans-61" transform="translate(290.820312 0)"/>
      <use xlink:href="#DejaVuSans-72" transform="translate(352.099609 0)"/>
      <use xlink:href="#DejaVuSans-64" transform="translate(391.462891 0)"/>
      <use xlink:href="#DejaVuSans-20" transform="translate(454.939453 0)"/>
      <use xlink:href="#DejaVuSans-53" transform="translate(486.726562 0)"/>
      <use xlink:href="#DejaVuSans-49" transform="translate(550.203125 0)"/>
      <use xlink:href="#DejaVuSans-4e" transform="translate(579.695312 0)"/>
      <use xlink:href="#DejaVuSans-44" transform="translate(654.5 0)"/>
      <use xlink:href="#DejaVuSans-79" transform="translate(731.501953 0)"/>
     </g>
    </g>
    <g id="line2d_18">
     <path d="M 410.860312 79.450937 
L 420.860312 79.450937 
L 430.860312 79.450937 
" style="fill: none; stroke-dasharray: 22.4,5.6,3.5,5.6; stroke-dashoffset: 0; stroke: #0000ff; stroke-opacity: 0.8; stroke-width: 3.5"/>
    </g>
    <g id="text_17">
     <!-- Standard PySR -->
     <g transform="translate(438.860312 82.950937) scale(0.1 -0.1)">
      <defs>
       <path id="DejaVuSans-52" d="M 2841 2188 
Q 3044 2119 3236 1894 
Q 3428 1669 3622 1275 
L 4263 0 
L 3584 0 
L 2988 1197 
Q 2756 1666 2539 1819 
Q 2322 1972 1947 1972 
L 1259 1972 
L 1259 0 
L 628 0 
L 628 4666 
L 2053 4666 
Q 2853 4666 3247 4331 
Q 3641 3997 3641 3322 
Q 3641 2881 3436 2590 
Q 3231 2300 2841 2188 
z
M 1259 4147 
L 1259 2491 
L 2053 2491 
Q 2509 2491 2742 2702 
Q 2975 2913 2975 3322 
Q 2975 3731 2742 3939 
Q 2509 4147 2053 4147 
L 1259 4147 
z
" transform="scale(0.015625)"/>
      </defs>
      <use xlink:href="#DejaVuSans-53"/>
      <use xlink:href="#DejaVuSans-74" transform="translate(63.476562 0)"/>
      <use xlink:href="#DejaVuSans-61" transform="translate(102.685547 0)"/>
      <use xlink:href="#DejaVuSans-6e" transform="translate(163.964844 0)"/>
      <use xlink:href="#DejaVuSans-64" transform="translate(227.34375 0)"/>
      <use xlink:href="#DejaVuSans-61" transform="translate(290.820312 0)"/>
      <use xlink:href="#DejaVuSans-72" transform="translate(352.099609 0)"/>
      <use xlink:href="#DejaVuSans-64" transform="translate(391.462891 0)"/>
      <use xlink:href="#DejaVuSans-20" transform="translate(454.939453 0)"/>
      <use xlink:href="#DejaVuSans-50" transform="translate(486.726562 0)"/>
      <use xlink:href="#DejaVuSans-79" transform="translate(547.029297 0)"/>
      <use xlink:href="#DejaVuSans-53" transform="translate(606.208984 0)"/>
      <use xlink:href="#DejaVuSans-52" transform="translate(669.685547 0)"/>
     </g>
    </g>
   </g>
  </g>
 </g>
 <defs>
  <clipPath id="pcee1c2813a">
   <rect x="42.620313" y="22.318125" width="518.59" height="508.12"/>
  </clipPath>
 </defs>
</svg>
