<?xml version="1.0" encoding="utf-8" standalone="no"?>
<!DOCTYPE svg PUBLIC "-//W3C//DTD SVG 1.1//EN"
  "http://www.w3.org/Graphics/SVG/1.1/DTD/svg11.dtd">
<svg xmlns:xlink="http://www.w3.org/1999/xlink" width="568.410312pt" height="567.994375pt" viewBox="0 0 568.410312 567.994375" xmlns="http://www.w3.org/2000/svg" version="1.1">
 <metadata>
  <rdf:RDF xmlns:dc="http://purl.org/dc/elements/1.1/" xmlns:cc="http://creativecommons.org/ns#" xmlns:rdf="http://www.w3.org/1999/02/22-rdf-syntax-ns#">
   <cc:Work>
    <dc:type rdf:resource="http://purl.org/dc/dcmitype/StillImage"/>
    <dc:date>2026-04-06T01:50:58.053046</dc:date>
    <dc:format>image/svg+xml</dc:format>
    <dc:creator>
     <cc:Agent>
      <dc:title>Matplotlib v3.10.7, https://matplotlib.org/</dc:title>
     </cc:Agent>
    </dc:creator>
   </cc:Work>
  </rdf:RDF>
 </metadata>
 <defs>
  <style type="text/css">*{stroke-linejoin: round; stroke-linecap: butt}</style>
 </defs>
 <g id="figure_1">
  <g id="patch_1">
   <path d="M 0 567.994375 
L 568.410312 567.994375 
L 568.410312 0 
L 0 0 
z
" style="fill: #ffffff"/>
  </g>
  <g id="axes_1">
   <g id="patch_2">
    <path d="M 42.620313 530.438125 
L 561.210312 530.438125 
L 561.210312 22.318125 
L 42.620313 22.318125 
z
" style="fill: #ffffff"/>
   </g>
   <g id="matplotlib.axis_1">
    <g id="xtick_1">
     <g id="line2d_1">
      <defs>
       <path id="mece86e8501" d="M 0 0 
L 0 3.5 
" style="stroke: #000000; stroke-width: 0.8"/>
      </defs>
      <g>
       <use xlink:href="#mece86e8501" x="124.116251" y="530.438125" style="stroke: #000000; stroke-width: 0.8"/>
      </g>
     </g>
     <g id="text_1">
      <!-- −2 -->
      <g transform="translate(116.745157 545.036562) scale(0.1 -0.1)">
       <defs>
        <path id="DejaVuSans-2212" d="M 678 2272 
L 4684 2272 
L 4684 1741 
L 678 1741 
L 678 2272 
z
" transform="scale(0.015625)"/>
        <path id="DejaVuSans-32" d="M 1228 531 
L 3431 531 
L 3431 0 
L 469 0 
L 469 531 
Q 828 903 1448 1529 
Q 2069 2156 2228 2338 
Q 2531 2678 2651 2914 
Q 2772 3150 2772 3378 
Q 2772 3750 2511 3984 
Q 2250 4219 1831 4219 
Q 1534 4219 1204 4116 
Q 875 4013 500 3803 
L 500 4441 
Q 881 4594 1212 4672 
Q 1544 4750 1819 4750 
Q 2544 4750 2975 4387 
Q 3406 4025 3406 3419 
Q 3406 3131 3298 2873 
Q 3191 2616 2906 2266 
Q 2828 2175 2409 1742 
Q 1991 1309 1228 531 
z
" transform="scale(0.015625)"/>
       </defs>
       <use xlink:href="#DejaVuSans-2212"/>
       <use xlink:href="#DejaVuSans-32" transform="translate(83.789062 0)"/>
      </g>
     </g>
    </g>
    <g id="xtick_2">
     <g id="line2d_2">
      <g>
       <use xlink:href="#mece86e8501" x="212.975883" y="530.438125" style="stroke: #000000; stroke-width: 0.8"/>
      </g>
     </g>
     <g id="text_2">
      <!-- −1 -->
      <g transform="translate(205.60479 545.036562) scale(0.1 -0.1)">
       <defs>
        <path id="DejaVuSans-31" d="M 794 531 
L 1825 531 
L 1825 4091 
L 703 3866 
L 703 4441 
L 1819 4666 
L 2450 4666 
L 2450 531 
L 3481 531 
L 3481 0 
L 794 0 
L 794 531 
z
" transform="scale(0.015625)"/>
       </defs>
       <use xlink:href="#DejaVuSans-2212"/>
       <use xlink:href="#DejaVuSans-31" transform="translate(83.789062 0)"/>
      </g>
     </g>
    </g>
    <g id="xtick_3">
     <g id="line2d_3">
      <g>
       <use xlink:href="#mece86e8501" x="301.835516" y="530.438125" style="stroke: #000000; stroke-width: 0.8"/>
      </g>
     </g>
     <g id="text_3">
      <!-- 0 -->
      <g transform="translate(298.654266 545.036562) scale(0.1 -0.1)">
       <defs>
        <path id="DejaVuSans-30" d="M 2034 4250 
Q 1547 4250 1301 3770 
Q 1056 3291 1056 2328 
Q 1056 1369 1301 889 
Q 1547 409 2034 409 
Q 2525 409 2770 889 
Q 3016 1369 3016 2328 
Q 3016 3291 2770 3770 
Q 2525 4250 2034 4250 
z
M 2034 4750 
Q 2819 4750 3233 4129 
Q 3647 3509 3647 2328 
Q 3647 1150 3233 529 
Q 2819 -91 2034 -91 
Q 1250 -91 836 529 
Q 422 1150 422 2328 
Q 422 3509 836 4129 
Q 1250 4750 2034 4750 
z
" transform="scale(0.015625)"/>
       </defs>
       <use xlink:href="#DejaVuSans-30"/>
      </g>
     </g>
    </g>
    <g id="xtick_4">
     <g id="line2d_4">
      <g>
       <use xlink:href="#mece86e8501" x="390.695149" y="530.438125" style="stroke: #000000; stroke-width: 0.8"/>
      </g>
     </g>
     <g id="text_4">
      <!-- 1 -->
      <g transform="translate(387.513899 545.036562) scale(0.1 -0.1)">
       <use xlink:href="#DejaVuSans-31"/>
      </g>
     </g>
    </g>
    <g id="xtick_5">
     <g id="line2d_5">
      <g>
       <use xlink:href="#mece86e8501" x="479.554782" y="530.438125" style="stroke: #000000; stroke-width: 0.8"/>
      </g>
     </g>
     <g id="text_5">
      <!-- 2 -->
      <g transform="translate(476.373532 545.036562) scale(0.1 -0.1)">
       <use xlink:href="#DejaVuSans-32"/>
      </g>
     </g>
    </g>
    <g id="text_6">
     <!-- x0 -->
     <g transform="translate(295.774687 558.714687) scale(0.1 -0.1)">
      <defs>
       <path id="DejaVuSans-78" d="M 3513 3500 
L 2247 1797 
L 3578 0 
L 2900 0 
L 1881 1375 
L 863 0 
L 184 0 
L 1544 1831 
L 300 3500 
L 978 3500 
L 1906 2253 
L 2834 3500 
L 3513 3500 
z
" transform="scale(0.015625)"/>
      </defs>
      <use xlink:href="#DejaVuSans-78"/>
      <use xlink:href="#DejaVuSans-30" transform="translate(59.179688 0)"/>
     </g>
    </g>
   </g>
   <g id="matplotlib.axis_2">
    <g id="ytick_1">
     <g id="line2d_6">
      <defs>
       <path id="m59d18261d1" d="M 0 0 
L -3.5 0 
" style="stroke: #000000; stroke-width: 0.8"/>
      </defs>
      <g>
       <use xlink:href="#m59d18261d1" x="42.620313" y="491.024822" style="stroke: #000000; stroke-width: 0.8"/>
      </g>
     </g>
     <g id="text_7">
      <!-- −4 -->
      <g transform="translate(20.878125 494.82404) scale(0.1 -0.1)">
       <defs>
        <path id="DejaVuSans-34" d="M 2419 4116 
L 825 1625 
L 2419 1625 
L 2419 4116 
z
M 2253 4666 
L 3047 4666 
L 3047 1625 
L 3713 1625 
L 3713 1100 
L 3047 1100 
L 3047 0 
L 2419 0 
L 2419 1100 
L 313 1100 
L 313 1709 
L 2253 4666 
z
" transform="scale(0.015625)"/>
       </defs>
       <use xlink:href="#DejaVuSans-2212"/>
       <use xlink:href="#DejaVuSans-34" transform="translate(83.789062 0)"/>
      </g>
     </g>
    </g>
    <g id="ytick_2">
     <g id="line2d_7">
      <g>
       <use xlink:href="#m59d18261d1" x="42.620313" y="383.676506" style="stroke: #000000; stroke-width: 0.8"/>
      </g>
     </g>
     <g id="text_8">
      <!-- −2 -->
      <g transform="translate(20.878125 387.475724) scale(0.1 -0.1)">
       <use xlink:href="#DejaVuSans-2212"/>
       <use xlink:href="#DejaVuSans-32" transform="translate(83.789062 0)"/>
      </g>
     </g>
    </g>
    <g id="ytick_3">
     <g id="line2d_8">
      <g>
       <use xlink:href="#m59d18261d1" x="42.620313" y="276.32819" style="stroke: #000000; stroke-width: 0.8"/>
      </g>
     </g>
     <g id="text_9">
      <!-- 0 -->
      <g transform="translate(29.257813 280.127409) scale(0.1 -0.1)">
       <use xlink:href="#DejaVuSans-30"/>
      </g>
     </g>
    </g>
    <g id="ytick_4">
     <g id="line2d_9">
      <g>
       <use xlink:href="#m59d18261d1" x="42.620313" y="168.979874" style="stroke: #000000; stroke-width: 0.8"/>
      </g>
     </g>
     <g id="text_10">
      <!-- 2 -->
      <g transform="translate(29.257813 172.779093) scale(0.1 -0.1)">
       <use xlink:href="#DejaVuSans-32"/>
      </g>
     </g>
    </g>
    <g id="ytick_5">
     <g id="line2d_10">
      <g>
       <use xlink:href="#m59d18261d1" x="42.620313" y="61.631558" style="stroke: #000000; stroke-width: 0.8"/>
      </g>
     </g>
     <g id="text_11">
      <!-- 4 -->
      <g transform="translate(29.257813 65.430777) scale(0.1 -0.1)">
       <use xlink:href="#DejaVuSans-34"/>
      </g>
     </g>
    </g>
    <g id="text_12">
     <!-- x1 -->
     <g transform="translate(14.798438 282.51875) rotate(-90) scale(0.1 -0.1)">
      <use xlink:href="#DejaVuSans-78"/>
      <use xlink:href="#DejaVuSans-31" transform="translate(59.179688 0)"/>
     </g>
    </g>
   </g>
   <g id="line2d_11">
    <path d="M 536.566469 265.593358 
L 537.105428 270.799891 
L 537.302242 275.915701 
L 537.162456 280.978352 
L 536.687744 286.023537 
L 535.877425 291.086191 
L 534.728862 296.200808 
L 533.237465 301.401444 
L 531.396691 306.721714 
L 529.198042 312.194793 
L 526.63113 317.853175 
L 523.685514 323.719426 
L 520.34393 329.827051 
L 516.586239 336.210821 
L 512.392161 342.897581 
L 507.741282 349.906256 
L 502.613048 357.247847 
L 496.986768 364.925433 
L 490.841617 372.93417 
L 484.15663 381.261291 
L 476.910703 389.886108 
L 469.082681 398.782468 
L 460.653785 407.942683 
L 451.610187 417.252452 
L 446.856012 421.916805 
L 441.947192 426.562467 
L 436.884725 431.170593 
L 431.670237 435.722267 
L 426.305991 440.198504 
L 420.794882 444.580243 
L 415.140436 448.848353 
L 409.346815 452.983632 
L 403.418811 456.966802 
L 397.36185 460.778519 
L 391.181992 464.399362 
L 384.885929 467.80984 
L 378.480985 470.99039 
L 371.975119 473.921378 
L 365.37692 476.583097 
L 358.695614 478.955766 
L 351.941056 481.019537 
L 345.123735 482.754485 
L 338.254775 484.140616 
L 331.34593 485.157863 
L 324.409589 485.786088 
L 317.458773 486.005079 
L 310.507135 485.794555 
L 303.568964 485.13416 
L 296.65924 484.005754 
L 289.794408 482.449299 
L 282.988904 480.495232 
L 276.255813 478.156308 
L 269.607591 475.446386 
L 263.056064 472.380437 
L 256.612424 468.974541 
L 250.287235 465.245884 
L 244.090429 461.212764 
L 238.031305 456.894586 
L 232.118533 452.311864 
L 226.360153 447.48622 
L 220.76357 442.440388 
L 215.335562 437.198206 
L 210.082274 431.784626 
L 205.009221 426.225704 
L 200.121284 420.548608 
L 195.422718 414.781614 
L 190.917142 408.954107 
L 186.607547 403.096579 
L 182.496291 397.240629 
L 178.582549 391.387587 
L 174.86403 385.524702 
L 171.340218 379.660904 
L 168.010522 373.80434 
L 164.874279 367.962376 
L 161.930751 362.141596 
L 159.179128 356.347802 
L 156.618524 350.586012 
L 154.247983 344.860467 
L 152.066473 339.17462 
L 150.072887 333.531148 
L 148.266048 327.931943 
L 146.644703 322.378114 
L 145.207527 316.869992 
L 143.953118 311.407122 
L 142.880005 305.98827 
L 141.98664 300.611419 
L 141.271404 295.27377 
L 140.732601 289.971743 
L 140.368466 284.700975 
L 140.177089 279.462277 
L 140.157453 274.262195 
L 140.309532 269.094073 
L 140.633259 263.951553 
L 141.128502 258.829085 
L 141.795062 253.721921 
L 142.632677 248.626117 
L 143.641017 243.538534 
L 144.819689 238.456839 
L 146.168236 233.3795 
L 147.686132 228.305793 
L 149.37279 223.235796 
L 151.227555 218.170392 
L 153.249708 213.111268 
L 155.438465 208.060916 
L 157.792977 203.022632 
L 160.312328 198.000518 
L 162.995539 192.999476 
L 165.841565 188.025218 
L 168.849297 183.084256 
L 172.017558 178.183908 
L 175.345109 173.332297 
L 178.830645 168.538349 
L 182.472794 163.811795 
L 186.27012 159.163172 
L 190.221124 154.603818 
L 194.324239 150.145878 
L 198.577834 145.8023 
L 202.978967 141.580788 
L 207.520258 137.482858 
L 212.195526 133.531639 
L 216.998427 129.750174 
L 221.922265 126.160024 
L 226.959992 122.781269 
L 232.104208 119.632506 
L 237.347163 116.730854 
L 242.680755 114.091948 
L 248.096528 111.729943 
L 253.585677 109.657513 
L 259.139045 107.885851 
L 264.747122 106.424669 
L 270.400048 105.282196 
L 276.087611 104.465181 
L 281.799245 103.978894 
L 287.524037 103.82712 
L 293.250718 104.012166 
L 298.96767 104.534856 
L 304.662922 105.394533 
L 310.324153 106.589059 
L 315.938688 108.114816 
L 321.493502 109.966704 
L 326.977744 112.133701 
L 332.384531 114.598042 
L 337.704195 117.348262 
L 342.92744 120.372674 
L 348.045438 123.659195 
L 353.049823 127.195346 
L 357.932695 130.968248 
L 362.686621 134.964627 
L 367.304629 139.17081 
L 371.780216 143.572728 
L 376.107342 148.155912 
L 380.280432 152.9055 
L 384.294379 157.806228 
L 388.144536 162.842438 
L 391.826726 167.998072 
L 395.337235 173.256678 
L 398.672813 178.601402 
L 401.830676 184.014998 
L 404.808506 189.479818 
L 407.60445 194.977819 
L 410.217118 200.490561 
L 412.645587 205.999204 
L 414.889399 211.484513 
L 416.950114 216.951949 
L 418.829556 222.421326 
L 420.527706 227.889634 
L 422.044628 233.353904 
L 423.380476 238.811241 
L 424.535489 244.258824 
L 425.509991 249.693904 
L 426.304396 255.113807 
L 426.919202 260.515932 
L 427.354994 265.897751 
L 427.612444 271.25681 
L 427.692312 276.590728 
L 427.595442 281.897199 
L 427.322768 287.173988 
L 426.875306 292.418936 
L 426.254164 297.629955 
L 425.460532 302.805033 
L 424.49569 307.94223 
L 423.361003 313.03968 
L 422.057922 318.09559 
L 420.587987 323.108241 
L 418.952822 328.075986 
L 417.154167 332.998061 
L 415.193891 337.878526 
L 413.073442 342.709723 
L 410.794472 347.481258 
L 408.358968 352.182827 
L 405.769251 356.804219 
L 403.027973 361.335316 
L 400.138122 365.76609 
L 397.10302 370.086609 
L 393.926321 374.287031 
L 390.612013 378.357607 
L 387.164419 382.288681 
L 383.588193 386.070687 
L 379.888325 389.694154 
L 376.070138 393.149702 
L 372.139287 396.428045 
L 368.101764 399.519987 
L 363.963891 402.416427 
L 359.732327 405.108353 
L 355.414061 407.586848 
L 351.016419 409.843088 
L 346.547059 411.868339 
L 342.013971 413.65396 
L 337.425483 415.191404 
L 332.790252 416.472215 
L 328.117272 417.488029 
L 323.415868 418.230575 
L 318.695701 418.691675 
L 313.966764 418.863242 
L 309.238623 418.740872 
L 304.518503 418.335712 
L 299.816184 417.650941 
L 295.141484 416.689177 
L 290.503899 415.453943 
L 285.912606 413.94967 
L 281.376463 412.181694 
L 276.904005 410.15626 
L 272.503448 407.880517 
L 268.182688 405.362522 
L 263.949298 402.611238 
L 259.810535 399.636537 
L 255.773332 396.449193 
L 251.844302 393.060891 
L 248.029741 389.48422 
L 244.335619 385.732678 
L 240.767591 381.820666 
L 237.330989 377.763495 
L 234.030824 373.577381 
L 230.871788 369.279446 
L 227.858252 364.887722 
L 224.993727 360.417115 
L 222.278988 355.863635 
L 219.716294 351.234067 
L 217.307986 346.537073 
L 215.056181 341.780997 
L 212.962767 336.973874 
L 211.029407 332.123422 
L 209.257539 327.237047 
L 207.648373 322.321843 
L 206.202894 317.384587 
L 204.921859 312.431745 
L 203.805803 307.469469 
L 202.855029 302.503597 
L 202.069618 297.539655 
L 201.449425 292.582853 
L 200.994075 287.638089 
L 200.70297 282.709947 
L 200.575286 277.802699 
L 200.609971 272.920301 
L 200.805749 268.066398 
L 201.161114 263.244319 
L 201.674308 258.456385 
L 202.344 253.704389 
L 203.169475 248.993329 
L 204.149793 244.328531 
L 205.283754 239.715467 
L 206.569903 235.159751 
L 208.006527 230.667144 
L 209.591655 226.24355 
L 211.323062 221.89502 
L 213.198263 217.627749 
L 215.214515 213.448075 
L 217.368821 209.362484 
L 219.657925 205.377604 
L 222.078314 201.500209 
L 224.626218 197.737219 
L 227.29761 194.095697 
L 230.088205 190.582852 
L 232.993462 187.206036 
L 236.008583 183.972749 
L 239.12851 180.890632 
L 242.347933 177.967475 
L 245.661279 175.211209 
L 249.062723 172.629912 
L 252.546179 170.231807 
L 256.105307 168.02526 
L 259.733506 166.018783 
L 263.423997 164.220803 
L 267.171399 162.633787 
L 270.968592 161.262399 
L 274.807562 160.112881 
L 278.680362 159.190474 
L 282.579102 158.499416 
L 286.495958 158.042942 
L 290.423165 157.823289 
L 294.353021 157.841688 
L 298.277887 158.098371 
L 302.190185 158.592568 
L 306.082399 159.322504 
L 309.947074 160.285407 
L 313.77682 161.4775 
L 317.564305 162.894006 
L 321.302262 164.529143 
L 324.983485 166.376132 
L 328.60083 168.427188 
L 332.147215 170.673526 
L 335.615619 173.10536 
L 338.999085 175.711901 
L 342.291927 178.48447 
L 345.490467 181.418633 
L 348.589441 184.50525 
L 351.583825 187.735116 
L 354.468903 191.099127 
L 357.240264 194.588276 
L 359.893802 198.193656 
L 362.425715 201.906457 
L 364.832509 205.717969 
L 367.110993 209.619581 
L 369.258283 213.60278 
L 371.271799 217.659152 
L 373.149267 221.780381 
L 374.88872 225.958252 
L 376.488493 230.184645 
L 377.94723 234.451543 
L 379.263877 238.751024 
L 380.437688 243.075268 
L 381.468221 247.41655 
L 382.355552 251.768059 
L 383.100375 256.127193 
L 383.702083 260.489415 
L 384.160127 264.849715 
L 384.474181 269.203038 
L 384.644152 273.54428 
L 384.670169 277.868291 
L 384.552592 282.169871 
L 384.292007 286.443775 
L 383.889226 290.684708 
L 383.34529 294.887329 
L 382.661466 299.04625 
L 381.839249 303.156034 
L 380.880362 307.211197 
L 379.786753 311.206208 
L 378.5606 315.135488 
L 377.204306 318.993411 
L 375.720502 322.774302 
L 374.112047 326.47244 
L 372.382027 330.082056 
L 370.533753 333.597333 
L 368.570767 337.012408 
L 366.496836 340.321367 
L 364.315954 343.518253 
L 362.032344 346.597058 
L 359.650454 349.551729 
L 357.173451 352.378834 
L 354.604352 355.073699 
L 351.948241 357.627555 
L 349.210317 360.03225 
L 346.39588 362.280261 
L 343.510331 364.364698 
L 340.559179 366.279296 
L 337.548033 368.018423 
L 334.482607 369.577078 
L 331.368717 370.950886 
L 328.212285 372.136106 
L 325.019333 373.129623 
L 321.795988 373.928955 
L 318.548482 374.532249 
L 315.283147 374.938282 
L 312.006422 375.146459 
L 308.724846 375.156817 
L 305.445064 374.970022 
L 302.173823 374.587372 
L 298.917974 374.01079 
L 295.684471 373.242835 
L 292.480371 372.28669 
L 289.312836 371.146173 
L 286.187966 369.825485 
L 283.108933 368.328695 
L 280.081721 366.660731 
L 277.11232 364.826806 
L 274.206455 362.832361 
L 271.369592 360.683069 
L 268.606936 358.384832 
L 265.923427 355.943783 
L 263.323748 353.366283 
L 260.812318 350.658926 
L 258.393294 347.828534 
L 256.070573 344.88216 
L 253.84779 341.827087 
L 251.728318 338.670828 
L 249.715268 335.421126 
L 247.811492 332.085955 
L 246.019578 328.673517 
L 244.341854 325.192247 
L 242.780385 321.650807 
L 241.336975 318.058092 
L 240.013167 314.423226 
L 238.810243 310.755561 
L 237.729062 307.063037 
L 236.769691 303.344342 
L 235.933121 299.603844 
L 235.220302 295.847253 
L 234.631967 292.080247 
L 234.168628 288.308467 
L 233.830584 284.537521 
L 233.617913 280.772981 
L 233.530478 277.020386 
L 233.567922 273.285241 
L 233.729672 269.573016 
L 234.014938 265.889147 
L 234.42271 262.239034 
L 234.951764 258.628044 
L 235.600656 255.061511 
L 236.367724 251.544732 
L 237.251091 248.082971 
L 238.24866 244.681458 
L 239.358118 241.345387 
L 240.576934 238.07992 
L 241.902359 234.890182 
L 243.331427 231.781266 
L 244.860954 228.75823 
L 246.488208 225.825079 
L 248.211267 222.985594 
L 250.026754 220.246495 
L 251.9311 217.614263 
L 253.920599 215.095039 
L 255.99141 212.69462 
L 258.139553 210.41846 
L 260.360909 208.27167 
L 262.651226 206.259017 
L 265.006113 204.384928 
L 267.421041 202.653482 
L 269.891345 201.068421 
L 272.412223 199.633139 
L 274.978734 198.35069 
L 277.585804 197.223783 
L 280.228217 196.254787 
L 282.900624 195.445724 
L 285.597536 194.798277 
L 288.313329 194.313783 
L 291.04224 193.993237 
L 293.77837 193.837291 
L 296.515909 193.846113 
L 299.251243 194.018002 
L 301.979018 194.351878 
L 304.69335 194.846699 
L 307.388521 195.501025 
L 310.058986 196.313026 
L 312.699367 197.280477 
L 315.304458 198.400762 
L 317.869221 199.670869 
L 320.388791 201.087396 
L 322.858469 202.646546 
L 325.273728 204.344129 
L 327.63021 206.175561 
L 329.923729 208.135868 
L 332.150265 210.219679 
L 334.305972 212.421233 
L 336.387171 214.734373 
L 338.390353 217.152551 
L 340.31218 219.668826 
L 342.149484 222.275863 
L 343.899265 224.965933 
L 345.558695 227.730915 
L 347.125115 230.562296 
L 348.596049 233.451279 
L 349.97008 236.396411 
L 352.42119 242.442428 
L 354.465489 248.656588 
L 356.092763 254.992526 
L 357.296049 261.405105 
L 358.071629 267.850407 
L 358.419033 274.28574 
L 358.341039 280.669636 
L 358.144273 283.82967 
L 358.144273 283.82967 
" clip-path="url(#pd26ce55c60)" style="fill: none; stroke: #000000; stroke-opacity: 0.3; stroke-width: 7; stroke-linecap: square"/>
   </g>
   <g id="line2d_12">
    <path d="M 536.566469 265.593358 
L 537.111164 270.63415 
L 537.32311 275.63532 
L 537.2033 280.631661 
L 536.751295 285.657967 
L 535.963972 290.749013 
L 534.836109 295.939633 
L 533.361042 301.264643 
L 531.529739 306.758646 
L 529.332366 312.456084 
L 526.757693 318.390641 
L 523.792824 324.59501 
L 520.425683 331.100601 
L 516.628867 337.936565 
L 512.351644 345.131527 
L 507.523054 352.713858 
L 502.143106 360.706849 
L 496.2724 369.122615 
L 489.840146 377.960105 
L 482.792812 387.211724 
L 475.119827 396.855435 
L 466.809995 406.849769 
L 457.807751 417.132634 
L 448.0757 427.617321 
L 437.66823 438.189495 
L 432.235914 443.464633 
L 426.589563 448.705556 
L 420.805168 453.88983 
L 414.847395 458.993617 
L 408.707175 463.991321 
L 402.380656 468.855327 
L 395.899542 473.556993 
L 389.305102 478.067988 
L 382.534702 482.358607 
L 375.62795 486.398831 
L 368.591107 490.159131 
L 361.440503 493.610873 
L 354.180132 496.726551 
L 346.824776 499.480602 
L 339.382693 501.849543 
L 331.866329 503.812482 
L 324.289878 505.351885 
L 316.670853 506.453625 
L 309.035614 507.107423 
L 301.369666 507.307969 
L 293.709544 507.052143 
L 286.07093 506.34366 
L 278.45592 505.1882 
L 270.893675 503.59661 
L 263.384121 501.583499 
L 255.951596 499.166825 
L 248.602194 496.367889 
L 241.351019 493.209861 
L 234.215084 489.719056 
L 227.196459 485.923208 
L 220.325333 481.851252 
L 213.58286 477.532891 
L 206.982968 472.997676 
L 200.535027 468.275065 
L 194.2429 463.394042 
L 188.091762 458.382451 
L 182.107076 453.267202 
L 176.30234 448.074043 
L 170.706888 442.827253 
L 165.26956 437.549173 
L 160.010835 432.260121 
L 150.004099 421.721686 
L 140.697271 411.338855 
L 132.067234 401.210241 
L 124.11058 391.408506 
L 116.784418 381.983546 
L 106.936631 368.615059 
L 98.390729 356.196386 
L 93.306676 348.440927 
L 88.796054 341.084579 
L 84.796069 334.099781 
L 81.240054 327.458639 
L 78.097303 321.13219 
L 75.349705 315.089949 
L 72.983932 309.299983 
L 70.988679 303.728785 
L 69.353039 298.3424 
L 68.067904 293.106279 
L 67.125449 287.985706 
L 66.519415 282.945942 
L 66.246289 277.952221 
L 66.303672 272.969819 
L 66.692397 267.964025 
L 67.415205 262.900066 
L 68.477068 257.743177 
L 69.886627 252.458421 
L 71.653992 247.010816 
L 73.793834 241.365341 
L 76.32348 235.486986 
L 79.263829 229.340902 
L 82.637115 222.893467 
L 86.468293 216.110998 
L 90.755276 208.965347 
L 98.000584 197.517973 
L 103.462831 189.379538 
L 112.76098 176.380976 
L 119.701631 167.194056 
L 127.260241 157.61122 
L 135.470874 147.670125 
L 144.336042 137.429345 
L 153.896711 126.971148 
L 158.93801 121.693477 
L 164.146874 116.404539 
L 169.537866 111.122489 
L 175.080488 105.867322 
L 180.78664 100.66021 
L 186.667045 95.524601 
L 192.752078 90.486056 
L 199.015212 85.571144 
L 205.412811 80.807903 
L 211.988427 76.225056 
L 218.692556 71.851845 
L 225.548398 67.718526 
L 232.526664 63.854075 
L 239.635696 60.287808 
L 246.874253 57.047966 
L 254.210035 54.161783 
L 261.625911 51.652988 
L 269.119074 49.543056 
L 276.671786 47.850713 
L 284.278313 46.591388 
L 291.908432 45.776512 
L 299.581645 45.414489 
L 307.239988 45.508162 
L 314.909648 46.057239 
L 322.53215 47.055908 
L 330.114429 48.494905 
L 337.647538 50.361138 
L 345.108002 52.637709 
L 352.482823 55.30449 
L 359.76776 58.338561 
L 366.946915 61.714849 
L 374.01522 65.406215 
L 380.947831 69.384136 
L 387.743057 73.619202 
L 394.376815 78.081596 
L 400.873044 82.741175 
L 407.231518 87.569608 
L 413.414197 92.538227 
L 419.411178 97.619373 
L 425.236904 102.786853 
L 430.926487 108.016515 
L 436.412431 113.28551 
L 441.733387 118.572781 
L 451.854177 129.127023 
L 461.278391 139.547364 
L 470.029229 149.729994 
L 478.093666 159.597975 
L 485.512974 169.09763 
L 492.33475 178.195156 
L 501.478454 191.054181 
L 506.823496 199.099919 
L 513.935635 210.412294 
L 518.134055 217.472027 
L 521.873169 224.172877 
L 525.161815 230.545153 
L 528.021866 236.621848 
L 530.476776 242.437057 
L 532.546205 248.025647 
L 534.247653 253.422566 
L 535.594299 258.662751 
L 536.596368 263.781122 
L 537.261871 268.812458 
L 537.595077 273.791451 
L 537.598853 278.752756 
L 537.273025 283.730965 
L 536.615309 288.760731 
L 535.621736 293.876697 
L 534.285584 299.113519 
L 532.599103 304.505848 
L 530.552573 310.088023 
L 528.135112 315.893946 
L 525.335382 321.956952 
L 522.138446 328.30861 
L 518.528784 334.979405 
L 514.467367 341.997671 
L 509.8882 349.39142 
L 504.729592 357.18876 
L 499.091825 365.405611 
L 492.901962 374.046322 
L 486.134855 383.108605 
L 478.736 392.575918 
L 470.686841 402.415944 
L 461.988022 412.576398 
L 452.595548 422.981711 
L 442.473057 433.530241 
L 437.156451 438.818481 
L 431.654358 444.091104 
L 426.022089 449.327309 
L 420.182398 454.504505 
L 414.181048 459.598093 
L 408.010414 464.582301 
L 401.677466 469.429879 
L 395.1867 474.112082 
L 388.546833 478.599956 
L 381.760268 482.863895 
L 374.843486 486.874115 
L 367.81522 490.601579 
L 360.636734 494.017391 
L 353.36673 497.094057 
L 345.994821 499.806281 
L 338.542143 502.130782 
L 331.020269 504.047115 
L 323.432824 505.537983 
L 315.807775 506.589799 
L 308.174441 507.192918 
L 300.496724 507.341761 
L 292.835272 507.033988 
L 285.194331 506.273926 
L 277.584639 505.067823 
L 270.028395 503.427021 
L 262.524839 501.366397 
L 255.098585 498.904372 
L 247.745906 496.062165 
L 240.486645 492.863146 
L 233.360296 489.334088 
L 226.356093 485.503238 
L 219.486089 481.3996 
L 212.747173 477.05273 
L 206.17634 472.492731 
L 199.7396 467.748747 
L 193.467495 462.850006 
L 187.363603 457.824348 
L 181.428134 452.698602 
L 175.658844 447.498142 
L 170.066597 442.246708 
L 164.653589 436.966346 
L 154.341428 426.397847 
L 144.724983 415.932406 
L 135.800992 405.680972 
L 127.559457 395.72714 
L 119.953195 386.13061 
L 112.986503 376.930274 
L 106.580534 368.147748 
L 98.074018 355.766366 
L 93.020651 348.035361 
L 88.539477 340.702217 
L 84.564595 333.739209 
L 81.030763 327.118528 
L 77.909157 320.811022 
L 75.181582 314.786207 
L 72.835028 309.012026 
L 70.858174 303.454966 
L 69.240133 298.081054 
L 67.971933 292.855733 
L 67.045739 287.744308 
L 66.455483 282.71206 
L 66.197683 277.724241 
L 66.270009 272.74616 
L 66.673504 267.74312 
L 67.410893 262.680374 
L 68.487398 257.523173 
L 69.911689 252.236593 
L 71.693965 246.785676 
L 73.849172 241.135409 
L 76.39464 235.25079 
L 79.351467 229.097039 
L 82.74175 222.640576 
L 86.590876 215.847643 
L 90.894329 208.690596 
L 98.162366 197.224544 
L 103.647929 189.072993 
L 109.747218 180.499004 
L 116.398763 171.50453 
L 123.676852 162.102058 
L 131.543592 152.321879 
L 140.114493 142.212304 
L 149.345864 131.843758 
L 154.190945 126.591265 
L 159.235381 121.312554 
L 164.485204 116.023513 
L 169.919836 110.742611 
L 175.525963 105.490155 
L 181.291086 100.288252 
L 187.215905 95.160362 
L 193.302664 90.131798 
L 199.574917 85.229292 
L 205.97907 80.480586 
L 212.572704 75.914895 
L 219.292661 71.561634 
L 226.151409 67.45055 
L 233.148185 63.611201 
L 240.257821 60.072379 
L 247.474451 56.861697 
L 254.801702 54.00484 
L 262.212552 51.526953 
L 269.697342 49.448748 
L 277.256197 47.789243 
L 284.863759 46.563693 
L 292.492788 45.783199 
L 300.168772 45.45592 
L 307.836102 45.584724 
L 315.496855 46.168949 
L 323.117408 47.202019 
L 330.689398 48.674402 
L 338.216731 50.572671 
L 345.667515 52.879622 
L 353.035099 55.574981 
L 360.314326 58.635839 
L 367.475912 62.036656 
L 374.520362 65.750166 
L 381.442523 69.747856 
L 388.22727 74.000477 
L 394.874916 78.478265 
L 401.375735 83.15209 
L 407.687035 87.991998 
L 413.866693 92.969827 
L 419.846222 98.058223 
L 425.662778 103.231046 
L 431.3177 108.464321 
L 436.801466 113.735319 
L 442.105292 119.023133 
L 447.238509 124.308684 
L 456.969563 134.805881 
L 466.013187 145.110738 
L 474.396885 155.134306 
L 482.116534 164.812315 
L 489.211452 174.102559 
L 495.667273 182.980431 
L 501.621553 191.4357 
L 506.936456 199.471608 
L 514.019605 210.771739 
L 518.194039 217.824868 
L 521.909642 224.521429 
L 525.174266 230.891312 
L 528.010665 236.967944 
L 528.010665 236.967944 
" clip-path="url(#pd26ce55c60)" style="fill: none; stroke-dasharray: 22.4,5.6,3.5,5.6; stroke-dashoffset: 0; stroke: #0000ff; stroke-opacity: 0.8; stroke-width: 3.5"/>
   </g>
   <g id="patch_3">
    <path d="M 42.620313 530.438125 
L 42.620313 22.318125 
" style="fill: none; stroke: #000000; stroke-width: 0.8; stroke-linejoin: miter; stroke-linecap: square"/>
   </g>
   <g id="patch_4">
    <path d="M 561.210312 530.438125 
L 561.210312 22.318125 
" style="fill: none; stroke: #000000; stroke-width: 0.8; stroke-linejoin: miter; stroke-linecap: square"/>
   </g>
   <g id="patch_5">
    <path d="M 42.620313 530.438125 
L 561.210312 530.438125 
" style="fill: none; stroke: #000000; stroke-width: 0.8; stroke-linejoin: miter; stroke-linecap: square"/>
   </g>
   <g id="patch_6">
    <path d="M 42.620313 22.318125 
L 561.210312 22.318125 
" style="fill: none; stroke: #000000; stroke-width: 0.8; stroke-linejoin: miter; stroke-linecap: square"/>
   </g>
   <g id="line2d_13">
    <path d="M 536.566469 265.593358 
L 534.503383 264.427242 
L 532.42256 263.41952 
L 530.334371 262.579579 
L 528.24809 261.915268 
L 526.172338 261.4337 
L 524.114617 261.140527 
L 522.079928 261.03907 
L 520.072857 261.132325 
L 518.097071 261.422396 
L 516.153924 261.909621 
L 514.244094 262.593896 
L 512.367704 263.474745 
L 510.523896 264.550968 
L 508.710146 265.820503 
L 506.923934 267.281286 
L 505.162131 268.931078 
L 503.421573 270.76742 
L 501.697722 272.787387 
L 499.98591 274.988017 
L 496.579435 279.919233 
L 493.161702 285.536174 
L 489.687556 291.81078 
L 486.110245 298.713209 
L 480.442249 310.168174 
L 469.752959 331.833993 
L 464.882876 341.240324 
L 459.589669 350.966332 
L 453.819598 360.928353 
L 447.520143 371.036404 
L 444.158158 376.113876 
L 440.647821 381.189906 
L 436.985138 386.251561 
L 433.164793 391.285272 
L 429.185429 396.277739 
L 425.045891 401.215679 
L 420.745026 406.085807 
L 416.283383 410.875033 
L 411.660481 415.570218 
L 406.880764 420.158748 
L 401.9489 424.628032 
L 396.869559 428.965478 
L 391.64886 433.158192 
L 386.293195 437.194353 
L 380.811859 441.060309 
L 375.214264 444.742334 
L 369.509825 448.226702 
L 363.708199 451.498713 
L 357.820304 454.544127 
L 351.856101 457.346009 
L 345.825518 459.887331 
L 339.738485 462.151063 
L 333.604226 464.120303 
L 327.432428 465.775471 
L 321.230711 467.100115 
L 315.006635 468.077868 
L 308.767758 468.692365 
L 302.52144 468.930787 
L 296.274033 468.774529 
L 290.03289 468.21887 
L 283.805383 467.259422 
L 277.598886 465.891795 
L 271.421803 464.118274 
L 265.281707 461.936776 
L 259.189765 459.364127 
L 253.15721 456.417502 
L 247.195273 453.114077 
L 241.31605 449.476153 
L 235.533157 445.528692 
L 229.860409 441.3041 
L 224.31162 436.834885 
L 218.900608 432.153555 
L 213.63995 427.291645 
L 208.544881 422.287106 
L 203.624609 417.168032 
L 198.888293 411.962439 
L 194.345093 406.698344 
L 190.0015 401.398739 
L 185.864775 396.089574 
L 181.935582 390.783052 
L 178.214561 385.49133 
L 174.702349 380.226553 
L 171.397714 374.996623 
L 168.29857 369.809121 
L 165.400247 364.663961 
L 162.698073 359.561057 
L 160.18738 354.500305 
L 157.863137 349.47979 
L 155.719361 344.496602 
L 153.750746 339.545799 
L 151.951987 334.62244 
L 150.317801 329.721589 
L 148.843409 324.838108 
L 147.523487 319.966101 
L 146.354653 315.100435 
L 145.333526 310.235975 
L 144.456761 305.367623 
L 143.721763 300.490783 
L 143.125715 295.600325 
L 142.667902 290.693133 
L 142.347611 285.766093 
L 142.164168 280.816151 
L 142.117613 275.841078 
L 142.207991 270.838227 
L 142.437117 265.807687 
L 142.80681 260.749545 
L 143.318914 255.663975 
L 143.975818 250.552145 
L 144.780147 245.414999 
L 145.735511 240.256483 
L 146.845513 235.080539 
L 148.113747 229.89119 
L 149.544007 224.69342 
L 151.140602 219.492418 
L 152.90734 214.295605 
L 154.848032 209.110399 
L 156.966389 203.94423 
L 159.265787 198.805086 
L 161.750221 193.701614 
L 164.421189 188.642587 
L 167.280188 183.63678 
L 170.328537 178.692893 
L 173.566599 173.819474 
L 176.995003 169.025507 
L 180.610458 164.318264 
L 184.409671 159.705017 
L 188.389181 155.193013 
L 192.544247 150.788945 
L 196.869675 146.498967 
L 201.357014 142.328813 
L 205.99781 138.284215 
L 210.783574 134.371091 
L 215.704903 130.595417 
L 220.751571 126.962356 
L 225.91287 123.480453 
L 231.178095 120.158254 
L 236.53666 117.004601 
L 241.977982 114.029544 
L 247.491189 111.243494 
L 253.067428 108.661502 
L 258.697844 106.298617 
L 264.373712 104.16992 
L 270.087036 102.291938 
L 275.830338 100.68277 
L 281.59789 99.360638 
L 287.383964 98.343765 
L 293.182765 97.649748 
L 298.989082 97.296328 
L 304.798271 97.302498 
L 310.604605 97.678717 
L 316.402358 98.435444 
L 322.185522 99.581897 
L 327.947722 101.124946 
L 333.682156 103.070192 
L 339.3785 105.408284 
L 345.026426 108.129868 
L 350.615451 111.224647 
L 356.133749 114.677746 
L 361.568009 118.469967 
L 366.90332 122.572311 
L 372.124769 126.955776 
L 377.217776 131.591669 
L 382.166898 136.447934 
L 386.956113 141.489493 
L 391.573189 146.6854 
L 396.005891 152.004712 
L 400.242564 157.417552 
L 404.272575 162.894937 
L 408.086962 168.409715 
L 411.682348 173.945171 
L 415.055353 179.484593 
L 418.202955 185.012095 
L 421.123961 190.514818 
L 423.819188 195.983371 
L 426.292278 201.415193 
L 428.546872 206.807726 
L 430.58665 212.15872 
L 432.41636 217.468084 
L 434.041498 222.737625 
L 435.467572 227.971153 
L 436.700093 233.17248 
L 437.74443 238.345364 
L 438.606111 243.494323 
L 439.290422 248.624212 
L 439.80148 253.739211 
L 440.143396 258.843499 
L 440.320109 263.941022 
L 440.335283 269.035706 
L 440.191983 274.130989 
L 439.89201 279.228553 
L 439.437167 284.330078 
L 438.829178 289.437088 
L 438.069295 294.550528 
L 437.158056 299.670117 
L 436.095515 304.794435 
L 434.881696 309.921927 
L 433.51638 315.05063 
L 431.998955 320.177418 
L 430.328588 325.29796 
L 428.504504 330.407737 
L 426.525733 335.50193 
L 424.391153 340.575066 
L 422.100153 345.619988 
L 419.652122 350.629536 
L 417.046634 355.596433 
L 414.283226 360.51295 
L 411.361696 365.370805 
L 408.283392 370.160864 
L 405.04966 374.873994 
L 401.662118 379.500995 
L 398.122661 384.032461 
L 394.433908 388.458672 
L 390.600496 392.769437 
L 386.627062 396.954562 
L 382.518451 401.003767 
L 378.280074 404.906727 
L 373.918186 408.652813 
L 369.440399 412.230726 
L 364.854321 415.629165 
L 360.167585 418.836774 
L 355.388341 421.84195 
L 350.525121 424.632675 
L 345.586464 427.196571 
L 340.580911 429.521262 
L 335.516911 431.594629 
L 330.402982 433.403915 
L 325.247458 434.936512 
L 320.058081 436.181613 
L 314.842592 437.128411 
L 309.608729 437.766932 
L 304.36394 438.086643 
L 299.115589 438.078911 
L 293.871111 437.740306 
L 288.637947 437.067397 
L 283.42366 436.057969 
L 278.235749 434.710323 
L 273.082214 433.026593 
L 267.971852 431.015762 
L 262.913459 428.686811 
L 257.915869 426.049546 
L 252.988429 423.115856 
L 248.140997 419.901298 
L 243.383523 416.425379 
L 238.725958 412.707604 
L 234.177979 408.767302 
L 229.749869 404.626075 
L 225.45133 400.306155 
L 221.290484 395.828284 
L 217.275452 391.213206 
L 213.413898 386.480807 
L 209.713387 381.651554 
L 206.179858 376.743447 
L 202.817015 371.770188 
L 199.628565 366.745478 
L 196.617877 361.682223 
L 193.787621 356.592392 
L 191.138987 351.484952 
L 188.671787 346.365465 
L 186.385832 341.239491 
L 184.280842 336.1122 
L 182.35589 330.987613 
L 180.609484 325.868031 
L 179.039903 320.754374 
L 177.64543 315.647563 
L 176.424423 310.548496 
L 175.374959 305.45735 
L 174.495312 300.373997 
L 173.784161 295.298415 
L 173.240186 290.230579 
L 172.862187 285.170657 
L 172.649004 280.118537 
L 172.599933 275.074676 
L 172.714739 270.040357 
L 172.993188 265.01686 
L 173.435091 260.005722 
L 174.040504 255.008519 
L 174.809744 250.027709 
L 175.743243 245.066686 
L 176.841431 240.128839 
L 178.104629 235.217742 
L 179.533499 230.337228 
L 181.128422 225.491836 
L 182.8893 220.686688 
L 184.816031 215.926906 
L 186.908224 211.217666 
L 189.165772 206.564409 
L 191.587623 201.972851 
L 194.171673 197.448821 
L 196.915818 192.998148 
L 199.817581 188.626691 
L 202.874495 184.340267 
L 206.082775 180.144816 
L 209.437442 176.046383 
L 212.933517 172.051014 
L 216.565759 168.164957 
L 220.328565 164.394061 
L 224.215356 160.744871 
L 228.21886 157.224671 
L 232.331805 153.840741 
L 236.546916 150.600757 
L 240.856422 147.512153 
L 245.252499 144.583805 
L 249.727447 141.825806 
L 254.273564 139.248249 
L 258.883316 136.861451 
L 263.548999 134.676328 
L 268.263522 132.704757 
L 273.020304 130.959099 
L 277.812762 129.451718 
L 282.634387 128.194495 
L 287.479009 127.200892 
L 292.34073 126.482869 
L 297.213752 126.050735 
L 302.092278 125.914802 
L 306.970311 126.083935 
L 311.842342 126.56882 
L 316.702043 127.375099 
L 321.542424 128.504339 
L 326.356496 129.958106 
L 331.13694 131.736087 
L 335.876372 133.838345 
L 340.566022 136.258158 
L 345.196304 138.984195 
L 349.757629 142.005124 
L 354.240396 145.308551 
L 358.634023 148.879965 
L 362.927755 152.700931 
L 367.111017 156.751093 
L 371.173233 161.010096 
L 375.104361 165.458047 
L 378.893308 170.072253 
L 382.530975 174.831668 
L 386.009688 179.716931 
L 389.321776 184.708682 
L 392.460296 189.788836 
L 395.418247 194.938326 
L 398.191403 200.142705 
L 400.777105 205.390409 
L 403.172696 210.669874 
L 405.375991 215.970559 
L 407.385485 221.282639 
L 409.201408 226.599917 
L 410.824784 231.918048 
L 412.256637 237.232687 
L 413.498105 242.539875 
L 414.550954 247.836717 
L 415.417297 253.121585 
L 416.099318 258.393329 
L 416.599197 263.650798 
L 416.919032 268.892729 
L 417.061164 274.118596 
L 417.027568 279.327375 
L 416.820006 284.517673 
L 416.440243 289.688091 
L 415.889961 294.836883 
L 415.170726 299.96264 
L 414.283793 305.062659 
L 413.230299 310.133552 
L 412.011382 315.17193 
L 410.628251 320.174027 
L 409.081749 325.136106 
L 407.37299 330.053083 
L 405.503275 334.919247 
L 403.473909 339.728882 
L 401.286473 344.47599 
L 398.942108 349.154441 
L 396.442982 353.757112 
L 393.791787 358.276462 
L 390.991216 362.704947 
L 388.04437 367.034843 
L 384.9541 371.25832 
L 381.724713 375.366887 
L 378.361171 379.35179 
L 374.868435 383.204276 
L 371.251799 386.915463 
L 367.516709 390.476411 
L 363.669722 393.877666 
L 359.717826 397.109587 
L 355.668012 400.162536 
L 351.527362 403.02689 
L 347.303355 405.692646 
L 343.003682 408.149854 
L 338.636076 410.388653 
L 334.208271 412.399182 
L 329.727918 414.172065 
L 325.20287 415.696803 
L 320.640667 416.964757 
L 316.048712 417.968124 
L 311.434405 418.699099 
L 306.805113 419.15109 
L 302.168069 419.315893 
L 297.530522 419.189838 
L 292.899721 418.771051 
L 288.282918 418.05766 
L 283.687457 417.049477 
L 279.120608 415.745349 
L 274.590122 414.150123 
L 270.103895 412.270804 
L 265.669825 410.114398 
L 261.295823 407.689209 
L 256.990232 405.004306 
L 252.761401 402.072891 
L 248.617624 398.909462 
L 244.567197 395.528515 
L 240.618104 391.944692 
L 236.779076 388.174616 
L 233.057533 384.234713 
L 229.460421 380.141185 
L 225.994688 375.910233 
L 222.666706 371.5572 
L 219.483249 367.098907 
L 216.448978 362.548819 
L 213.567895 357.919267 
L 210.843999 353.222582 
L 208.280768 348.470033 
L 205.881511 343.673113 
L 203.647851 338.839818 
L 201.580941 333.977107 
L 199.681933 329.091936 
L 197.951713 324.190595 
L 196.390774 319.278858 
L 194.998921 314.36062 
L 193.775786 309.439271 
L 192.721002 304.518202 
L 191.834157 299.600622 
L 191.114587 294.689149 
L 190.561626 289.786138 
L 190.174612 284.893901 
L 189.952884 280.014749 
L 189.895796 275.151129 
L 190.002728 270.305115 
L 190.273119 265.479416 
L 190.706419 260.676919 
L 191.302078 255.900516 
L 192.059454 251.153328 
L 192.978193 246.438377 
L 194.057543 241.759475 
L 195.296639 237.120638 
L 196.694615 232.525879 
L 198.250324 227.979392 
L 199.963038 223.485433 
L 201.830964 219.048796 
L 203.85204 214.674395 
L 206.024202 210.367142 
L 208.344957 206.132077 
L 210.812133 201.974217 
L 213.422086 197.899 
L 216.17083 193.911959 
L 219.054374 190.018625 
L 222.06833 186.224742 
L 225.208308 182.535761 
L 228.468723 178.957987 
L 231.843729 175.497911 
L 235.327482 172.162026 
L 238.913957 168.957197 
L 242.596835 165.889966 
L 246.36947 162.968249 
L 250.225155 160.200248 
L 254.157184 157.594165 
L 258.158926 155.158509 
L 262.223471 152.902029 
L 266.34433 150.834297 
L 270.515101 148.965038 
L 274.729379 147.303973 
L 278.980885 145.860551 
L 283.263402 144.645476 
L 287.571019 143.667913 
L 291.897882 142.936702 
L 296.238139 142.460685 
L 300.585858 142.247421 
L 304.935456 142.306513 
L 309.280797 142.642559 
L 313.615647 143.259222 
L 317.93377 144.160162 
L 322.228627 145.346924 
L 326.493855 146.822698 
L 330.721945 148.583521 
L 334.905197 150.624188 
L 339.035913 152.939495 
L 343.106188 155.522288 
L 347.107629 158.365214 
L 351.031473 161.455568 
L 354.868913 164.779785 
L 358.611141 168.324303 
L 362.249351 172.074988 
L 365.774833 176.015668 
L 365.774833 176.015668 
" clip-path="url(#pd26ce55c60)" style="fill: none; stroke-dasharray: 3.5,5.775; stroke-dashoffset: 0; stroke: #008000; stroke-opacity: 0.8; stroke-width: 3.5"/>
   </g>
   <g id="text_13">
    <!-- Phase Portrait (x0 vs x1) -->
    <g transform="translate(228.224062 16.318125) scale(0.12 -0.12)">
     <defs>
      <path id="DejaVuSans-50" d="M 1259 4147 
L 1259 2394 
L 2053 2394 
Q 2494 2394 2734 2622 
Q 2975 2850 2975 3272 
Q 2975 3691 2734 3919 
Q 2494 4147 2053 4147 
L 1259 4147 
z
M 628 4666 
L 2053 4666 
Q 2838 4666 3239 4311 
Q 3641 3956 3641 3272 
Q 3641 2581 3239 2228 
Q 2838 1875 2053 1875 
L 1259 1875 
L 1259 0 
L 628 0 
L 628 4666 
z
" transform="scale(0.015625)"/>
      <path id="DejaVuSans-68" d="M 3513 2113 
L 3513 0 
L 2938 0 
L 2938 2094 
Q 2938 2591 2744 2837 
Q 2550 3084 2163 3084 
Q 1697 3084 1428 2787 
Q 1159 2491 1159 1978 
L 1159 0 
L 581 0 
L 581 4863 
L 1159 4863 
L 1159 2956 
Q 1366 3272 1645 3428 
Q 1925 3584 2291 3584 
Q 2894 3584 3203 3211 
Q 3513 2838 3513 2113 
z
" transform="scale(0.015625)"/>
      <path id="DejaVuSans-61" d="M 2194 1759 
Q 1497 1759 1228 1600 
Q 959 1441 959 1056 
Q 959 750 1161 570 
Q 1363 391 1709 391 
Q 2188 391 2477 730 
Q 2766 1069 2766 1631 
L 2766 1759 
L 2194 1759 
z
M 3341 1997 
L 3341 0 
L 2766 0 
L 2766 531 
Q 2569 213 2275 61 
Q 1981 -91 1556 -91 
Q 1019 -91 701 211 
Q 384 513 384 1019 
Q 384 1609 779 1909 
Q 1175 2209 1959 2209 
L 2766 2209 
L 2766 2266 
Q 2766 2663 2505 2880 
Q 2244 3097 1772 3097 
Q 1472 3097 1187 3025 
Q 903 2953 641 2809 
L 641 3341 
Q 956 3463 1253 3523 
Q 1550 3584 1831 3584 
Q 2591 3584 2966 3190 
Q 3341 2797 3341 1997 
z
" transform="scale(0.015625)"/>
      <path id="DejaVuSans-73" d="M 2834 3397 
L 2834 2853 
Q 2591 2978 2328 3040 
Q 2066 3103 1784 3103 
Q 1356 3103 1142 2972 
Q 928 2841 928 2578 
Q 928 2378 1081 2264 
Q 1234 2150 1697 2047 
L 1894 2003 
Q 2506 1872 2764 1633 
Q 3022 1394 3022 966 
Q 3022 478 2636 193 
Q 2250 -91 1575 -91 
Q 1294 -91 989 -36 
Q 684 19 347 128 
L 347 722 
Q 666 556 975 473 
Q 1284 391 1588 391 
Q 1994 391 2212 530 
Q 2431 669 2431 922 
Q 2431 1156 2273 1281 
Q 2116 1406 1581 1522 
L 1381 1569 
Q 847 1681 609 1914 
Q 372 2147 372 2553 
Q 372 3047 722 3315 
Q 1072 3584 1716 3584 
Q 2034 3584 2315 3537 
Q 2597 3491 2834 3397 
z
" transform="scale(0.015625)"/>
      <path id="DejaVuSans-65" d="M 3597 1894 
L 3597 1613 
L 953 1613 
Q 991 1019 1311 708 
Q 1631 397 2203 397 
Q 2534 397 2845 478 
Q 3156 559 3463 722 
L 3463 178 
Q 3153 47 2828 -22 
Q 2503 -91 2169 -91 
Q 1331 -91 842 396 
Q 353 884 353 1716 
Q 353 2575 817 3079 
Q 1281 3584 2069 3584 
Q 2775 3584 3186 3129 
Q 3597 2675 3597 1894 
z
M 3022 2063 
Q 3016 2534 2758 2815 
Q 2500 3097 2075 3097 
Q 1594 3097 1305 2825 
Q 1016 2553 972 2059 
L 3022 2063 
z
" transform="scale(0.015625)"/>
      <path id="DejaVuSans-20" transform="scale(0.015625)"/>
      <path id="DejaVuSans-6f" d="M 1959 3097 
Q 1497 3097 1228 2736 
Q 959 2375 959 1747 
Q 959 1119 1226 758 
Q 1494 397 1959 397 
Q 2419 397 2687 759 
Q 2956 1122 2956 1747 
Q 2956 2369 2687 2733 
Q 2419 3097 1959 3097 
z
M 1959 3584 
Q 2709 3584 3137 3096 
Q 3566 2609 3566 1747 
Q 3566 888 3137 398 
Q 2709 -91 1959 -91 
Q 1206 -91 779 398 
Q 353 888 353 1747 
Q 353 2609 779 3096 
Q 1206 3584 1959 3584 
z
" transform="scale(0.015625)"/>
      <path id="DejaVuSans-72" d="M 2631 2963 
Q 2534 3019 2420 3045 
Q 2306 3072 2169 3072 
Q 1681 3072 1420 2755 
Q 1159 2438 1159 1844 
L 1159 0 
L 581 0 
L 581 3500 
L 1159 3500 
L 1159 2956 
Q 1341 3275 1631 3429 
Q 1922 3584 2338 3584 
Q 2397 3584 2469 3576 
Q 2541 3569 2628 3553 
L 2631 2963 
z
" transform="scale(0.015625)"/>
      <path id="DejaVuSans-74" d="M 1172 4494 
L 1172 3500 
L 2356 3500 
L 2356 3053 
L 1172 3053 
L 1172 1153 
Q 1172 725 1289 603 
Q 1406 481 1766 481 
L 2356 481 
L 2356 0 
L 1766 0 
Q 1100 0 847 248 
Q 594 497 594 1153 
L 594 3053 
L 172 3053 
L 172 3500 
L 594 3500 
L 594 4494 
L 1172 4494 
z
" transform="scale(0.015625)"/>
      <path id="DejaVuSans-69" d="M 603 3500 
L 1178 3500 
L 1178 0 
L 603 0 
L 603 3500 
z
M 603 4863 
L 1178 4863 
L 1178 4134 
L 603 4134 
L 603 4863 
z
" transform="scale(0.015625)"/>
      <path id="DejaVuSans-28" d="M 1984 4856 
Q 1566 4138 1362 3434 
Q 1159 2731 1159 2009 
Q 1159 1288 1364 580 
Q 1569 -128 1984 -844 
L 1484 -844 
Q 1016 -109 783 600 
Q 550 1309 550 2009 
Q 550 2706 781 3412 
Q 1013 4119 1484 4856 
L 1984 4856 
z
" transform="scale(0.015625)"/>
      <path id="DejaVuSans-76" d="M 191 3500 
L 800 3500 
L 1894 563 
L 2988 3500 
L 3597 3500 
L 2284 0 
L 1503 0 
L 191 3500 
z
" transform="scale(0.015625)"/>
      <path id="DejaVuSans-29" d="M 513 4856 
L 1013 4856 
Q 1481 4119 1714 3412 
Q 1947 2706 1947 2009 
Q 1947 1309 1714 600 
Q 1481 -109 1013 -844 
L 513 -844 
Q 928 -128 1133 580 
Q 1338 1288 1338 2009 
Q 1338 2731 1133 3434 
Q 928 4138 513 4856 
z
" transform="scale(0.015625)"/>
     </defs>
     <use xlink:href="#DejaVuSans-50"/>
     <use xlink:href="#DejaVuSans-68" transform="translate(60.302734 0)"/>
     <use xlink:href="#DejaVuSans-61" transform="translate(123.681641 0)"/>
     <use xlink:href="#DejaVuSans-73" transform="translate(184.960938 0)"/>
     <use xlink:href="#DejaVuSans-65" transform="translate(237.060547 0)"/>
     <use xlink:href="#DejaVuSans-20" transform="translate(298.583984 0)"/>
     <use xlink:href="#DejaVuSans-50" transform="translate(330.371094 0)"/>
     <use xlink:href="#DejaVuSans-6f" transform="translate(387.048828 0)"/>
     <use xlink:href="#DejaVuSans-72" transform="translate(448.230469 0)"/>
     <use xlink:href="#DejaVuSans-74" transform="translate(489.34375 0)"/>
     <use xlink:href="#DejaVuSans-72" transform="translate(528.552734 0)"/>
     <use xlink:href="#DejaVuSans-61" transform="translate(569.666016 0)"/>
     <use xlink:href="#DejaVuSans-69" transform="translate(630.945312 0)"/>
     <use xlink:href="#DejaVuSans-74" transform="translate(658.728516 0)"/>
     <use xlink:href="#DejaVuSans-20" transform="translate(697.9375 0)"/>
     <use xlink:href="#DejaVuSans-28" transform="translate(729.724609 0)"/>
     <use xlink:href="#DejaVuSans-78" transform="translate(768.738281 0)"/>
     <use xlink:href="#DejaVuSans-30" transform="translate(827.917969 0)"/>
     <use xlink:href="#DejaVuSans-20" transform="translate(891.541016 0)"/>
     <use xlink:href="#DejaVuSans-76" transform="translate(923.328125 0)"/>
     <use xlink:href="#DejaVuSans-73" transform="translate(982.507812 0)"/>
     <use xlink:href="#DejaVuSans-20" transform="translate(1034.607422 0)"/>
     <use xlink:href="#DejaVuSans-78" transform="translate(1066.394531 0)"/>
     <use xlink:href="#DejaVuSans-31" transform="translate(1125.574219 0)"/>
     <use xlink:href="#DejaVuSans-29" transform="translate(1189.197266 0)"/>
    </g>
   </g>
   <g id="line2d_14">
    <path d="M 536.566469 265.593358 
L 537.104726 270.817113 
L 537.299897 275.949381 
L 537.156275 281.027152 
L 536.676666 286.086968 
L 535.860943 291.164473 
L 534.706606 296.294684 
L 533.209456 301.512102 
L 531.362054 306.850215 
L 529.155674 312.342067 
L 526.578913 318.019449 
L 523.618325 323.912871 
L 520.258935 330.051739 
L 516.483172 336.462095 
L 512.272479 343.168347 
L 507.606435 350.189962 
L 502.463621 357.541147 
L 496.821797 365.231631 
L 490.658577 373.25859 
L 483.951718 381.613413 
L 476.680279 390.271267 
L 468.825702 399.192099 
L 460.371216 408.322841 
L 451.306937 417.580889 
L 446.543926 422.22854 
L 441.626151 426.870964 
L 436.554888 431.490046 
L 431.331414 436.067666 
L 425.957256 440.5854 
L 420.434326 445.023442 
L 414.764972 449.360515 
L 408.953999 453.572558 
L 403.006215 457.635505 
L 396.926696 461.525439 
L 390.721098 465.217223 
L 384.39588 468.684761 
L 377.95995 471.903631 
L 371.42222 474.849413 
L 364.791789 477.498483 
L 358.078466 479.826955 
L 351.29304 481.811764 
L 344.447869 483.436972 
L 337.555307 484.686643 
L 330.627724 485.546071 
L 323.678137 486.001871 
L 316.720281 486.043814 
L 309.767909 485.671529 
L 302.834771 484.884642 
L 295.934438 483.683854 
L 289.080821 482.072463 
L 282.287857 480.057888 
L 275.568029 477.655228 
L 268.933818 474.879579 
L 262.397401 471.746472 
L 255.970862 468.273986 
L 249.665579 464.482993 
L 243.490741 460.39686 
L 237.455541 456.038956 
L 231.568851 451.432413 
L 225.839116 446.601703 
L 220.273689 441.571611 
L 214.877848 436.36495 
L 209.656872 431.004531 
L 204.615793 425.512562 
L 199.759102 419.911254 
L 195.090241 414.221243 
L 190.611177 408.459275 
L 186.323879 402.642096 
L 182.230165 396.785806 
L 178.331388 390.90576 
L 174.628155 385.015095 
L 171.120271 379.123232 
L 167.807545 373.239588 
L 164.689723 367.373076 
L 161.766236 361.531717 
L 159.036125 355.721586 
L 156.498158 349.946098 
L 154.151102 344.20867 
L 151.993726 338.5124 
L 150.024632 332.859657 
L 148.242317 327.251492 
L 146.645327 321.68744 
L 145.232212 316.167034 
L 144.001555 310.689665 
L 142.951881 305.254224 
L 142.081795 299.85893 
L 141.390099 294.501423 
L 140.875595 289.17934 
L 140.537129 283.890337 
L 140.373565 278.631741 
L 140.383924 273.400782 
L 140.567435 268.194854 
L 140.923329 263.011355 
L 141.450864 257.847843 
L 142.149366 252.701658 
L 143.018304 247.570573 
L 144.057257 242.45318 
L 145.265802 237.348071 
L 146.643501 232.254159 
L 148.19003 227.170195 
L 149.905093 222.095919 
L 151.788303 217.03251 
L 153.839273 211.981147 
L 156.057528 206.943483 
L 158.442745 201.921084 
L 160.994415 196.917071 
L 163.711646 191.936539 
L 166.593545 186.984584 
L 169.639039 182.066865 
L 172.847224 177.189136 
L 176.216704 172.35912 
L 179.745347 167.586727 
L 183.431023 162.881868 
L 187.27133 158.254936 
L 191.264003 153.716784 
L 195.405925 149.280119 
L 199.692937 144.959343 
L 204.120883 140.768856 
L 208.68528 136.723184 
L 213.381664 132.837797 
L 218.204441 129.128932 
L 223.146856 125.613036 
L 228.202157 122.306553 
L 233.363299 119.225439 
L 238.623047 116.386898 
L 243.973027 113.806759 
L 249.403913 111.498879 
L 254.906381 109.477112 
L 260.47096 107.75421 
L 266.087758 106.34387 
L 271.746147 105.256046 
L 277.435094 104.4969 
L 283.143567 104.072591 
L 288.860597 103.987944 
L 294.574689 104.247769 
L 300.274348 104.852011 
L 305.948372 105.796528 
L 311.585554 107.077177 
L 317.174947 108.688802 
L 322.705176 110.62521 
L 328.165644 112.87632 
L 333.54659 115.429358 
L 338.838255 118.271549 
L 344.031241 121.38977 
L 349.115962 124.769469 
L 354.084107 128.394612 
L 358.928415 132.248547 
L 363.641623 136.314622 
L 368.216834 140.576452 
L 372.647203 145.016561 
L 376.927237 149.618323 
L 381.052397 154.366084 
L 385.018143 159.244189 
L 388.820225 164.237578 
L 392.454591 169.330727 
L 395.9183 174.510233 
L 399.209102 179.7643 
L 402.324749 185.08113 
L 405.263186 190.449553 
L 408.022582 195.858443 
L 410.601854 201.298938 
L 413.000337 206.763664 
L 415.217364 212.245243 
L 417.25238 217.736775 
L 419.105005 223.231668 
L 420.775279 228.725042 
L 422.263453 234.213013 
L 423.569777 239.691701 
L 424.694559 245.157467 
L 425.638203 250.607082 
L 426.401322 256.038186 
L 426.984628 261.44885 
L 427.388835 266.837145 
L 427.614699 272.201141 
L 427.662983 277.539337 
L 427.534592 282.850223 
L 427.230513 288.132191 
L 426.751734 293.383632 
L 426.099311 298.602716 
L 425.274218 303.78802 
L 424.277644 308.937304 
L 423.110924 314.047797 
L 421.775395 319.116726 
L 420.272515 324.140919 
L 418.603584 329.117537 
L 416.770316 334.042292 
L 414.774688 338.910072 
L 412.618679 343.715762 
L 410.304467 348.453777 
L 407.834018 353.118662 
L 405.209995 357.703258 
L 402.435463 362.199523 
L 399.513485 366.599416 
L 396.447404 370.894526 
L 393.24035 375.076202 
L 389.896427 379.13449 
L 386.42025 383.05885 
L 382.816436 386.838743 
L 379.089909 390.463597 
L 375.24548 393.922117 
L 371.289066 397.202959 
L 367.227114 400.294881 
L 363.066075 403.186643 
L 358.812661 405.867486 
L 354.473657 408.325573 
L 350.056815 410.550921 
L 345.570295 412.534535 
L 341.022258 414.267421 
L 336.421005 415.741563 
L 331.775115 416.947939 
L 327.093674 417.881134 
L 322.385925 418.537407 
L 317.661114 418.913014 
L 312.928439 419.005396 
L 308.19752 418.811563 
L 303.477806 418.332749 
L 298.778607 417.571952 
L 294.109233 416.532171 
L 289.478767 415.217377 
L 284.896716 413.631872 
L 280.371764 411.783248 
L 275.912218 409.68034 
L 271.526384 407.331983 
L 267.222226 404.747479 
L 263.008005 401.936948 
L 258.89076 398.9119 
L 254.87704 395.684281 
L 250.973393 392.266035 
L 247.185998 388.669047 
L 243.521158 384.906044 
L 239.983881 380.989303 
L 236.578697 376.930859 
L 233.31014 372.742748 
L 230.18241 368.436604 
L 227.199701 364.024615 
L 224.36508 359.517448 
L 221.681233 354.925194 
L 219.150843 350.257946 
L 216.776335 345.5253 
L 214.560067 340.737049 
L 212.503541 335.901271 
L 210.607983 331.025461 
L 208.874622 326.117113 
L 207.304495 321.183322 
L 205.898577 316.231095 
L 204.657231 311.26616 
L 203.580633 306.293839 
L 202.668957 301.319454 
L 201.922234 296.348127 
L 201.340476 291.384718 
L 200.923231 286.433534 
L 200.669902 281.498724 
L 200.579893 276.58444 
L 200.65247 271.694852 
L 200.886954 266.833799 
L 201.282215 262.005323 
L 201.836984 257.21355 
L 202.549992 252.462602 
L 203.419807 247.756811 
L 204.445126 243.100196 
L 205.624093 238.497588 
L 206.954687 233.954059 
L 208.434887 229.474685 
L 210.062459 225.064844 
L 211.835354 220.729741 
L 213.750798 216.475647 
L 215.805807 212.309125 
L 217.9974 208.236737 
L 220.322334 204.265299 
L 222.777555 200.401732 
L 225.359119 196.653732 
L 228.06284 193.029186 
L 230.884532 189.535983 
L 233.819726 186.182028 
L 236.864082 182.975699 
L 240.012309 179.925237 
L 243.258872 177.03882 
L 246.598238 174.324628 
L 250.024622 171.790476 
L 253.532238 169.444966 
L 257.114487 167.295196 
L 260.764579 165.34788 
L 264.475726 163.60973 
L 268.240983 162.086692 
L 272.053242 160.785566 
L 275.90495 159.710363 
L 279.788467 158.864439 
L 283.69615 158.251147 
L 287.620351 157.872842 
L 291.553123 157.732458 
L 295.486602 157.829576 
L 299.412959 158.163032 
L 303.324366 158.731668 
L 307.213147 159.533382 
L 311.071277 160.566166 
L 314.891345 161.825121 
L 318.666084 163.304753 
L 322.388226 164.99957 
L 326.050787 166.903457 
L 329.64647 169.00996 
L 333.168973 171.310975 
L 336.612203 173.798086 
L 339.970066 176.462877 
L 343.236815 179.296733 
L 346.406489 182.290508 
L 349.474273 185.4348 
L 352.435575 188.720171 
L 355.285798 192.137186 
L 358.020701 195.676558 
L 360.635926 199.328527 
L 363.128212 203.084066 
L 365.494497 206.934293 
L 367.731717 210.870325 
L 369.837124 214.883605 
L 371.807918 218.965293 
L 373.642243 223.107663 
L 375.338399 227.303182 
L 376.894686 231.544319 
L 378.309668 235.823868 
L 379.581883 240.134555 
L 380.710638 244.470065 
L 381.695363 248.824242 
L 382.53549 253.190927 
L 383.230675 257.564173 
L 383.780528 261.938128 
L 384.185319 266.307442 
L 384.445417 270.666846 
L 384.561193 275.011067 
L 384.533226 279.334883 
L 384.362012 283.633248 
L 384.048675 287.901101 
L 383.594435 292.133378 
L 383.000508 296.325014 
L 382.268333 300.470854 
L 381.399219 304.565908 
L 380.395153 308.604789 
L 379.258218 312.582059 
L 377.990497 316.492277 
L 376.594318 320.329854 
L 375.071853 324.089249 
L 373.426035 327.76446 
L 371.6599 331.349423 
L 369.776483 334.838078 
L 367.779087 338.224284 
L 365.670868 341.501734 
L 363.4558 344.664017 
L 361.137959 347.704711 
L 358.721419 350.617396 
L 356.210521 353.395779 
L 353.609517 356.033152 
L 350.923432 358.523463 
L 348.157381 360.860737 
L 345.316476 363.039001 
L 342.406049 365.052717 
L 339.431447 366.895736 
L 336.398592 368.563522 
L 333.313469 370.051714 
L 330.182061 371.35595 
L 327.01047 372.472593 
L 323.804937 373.397381 
L 320.571933 374.128422 
L 317.317948 374.664068 
L 314.049474 375.002669 
L 310.772988 375.143445 
L 307.495202 375.085181 
L 304.222632 374.829242 
L 300.961775 374.377236 
L 297.719127 373.730772 
L 294.501032 372.892263 
L 291.314108 371.86399 
L 288.164383 370.650366 
L 285.057833 369.255986 
L 282.00043 367.685448 
L 278.997885 365.943904 
L 276.056166 364.036651 
L 273.180376 361.970224 
L 270.375544 359.751256 
L 267.646703 357.386378 
L 264.998552 354.882455 
L 262.435999 352.246644 
L 259.962967 349.486391 
L 257.583306 346.609164 
L 255.300866 343.622431 
L 253.119148 340.533615 
L 251.041806 337.350434 
L 249.071519 334.080225 
L 247.210907 330.730298 
L 245.462585 327.307966 
L 243.828839 323.82034 
L 242.312065 320.274736 
L 240.913775 316.677819 
L 239.635429 313.036215 
L 238.478487 309.356547 
L 237.444107 305.645218 
L 236.533541 301.908717 
L 235.747259 298.152951 
L 235.085685 294.383798 
L 234.549246 290.607136 
L 234.138092 286.828688 
L 233.852474 283.054163 
L 233.691923 279.288958 
L 233.655939 275.538451 
L 233.744016 271.808022 
L 233.955391 268.102993 
L 234.289415 264.428637 
L 234.744741 260.790181 
L 235.319991 257.192851 
L 236.01379 253.641872 
L 236.824493 250.142485 
L 237.750594 246.699912 
L 238.789871 243.319456 
L 239.940075 240.006423 
L 241.19896 236.76612 
L 242.564004 233.603863 
L 244.032821 230.525053 
L 245.602302 227.535046 
L 247.269313 224.639195 
L 249.030721 221.842854 
L 250.883125 219.151277 
L 252.823229 216.569958 
L 254.84705 214.103937 
L 256.95059 211.758239 
L 259.129849 209.537891 
L 261.380594 207.447615 
L 263.69863 205.492534 
L 266.079211 203.676708 
L 268.517578 202.004175 
L 271.008973 200.478973 
L 273.548471 199.104603 
L 276.131104 197.885046 
L 278.751586 196.822634 
L 281.404625 195.919673 
L 284.084928 195.17847 
L 286.787143 194.600608 
L 289.505788 194.188122 
L 292.235373 193.941065 
L 294.970409 193.859468 
L 297.705406 193.943363 
L 300.43494 194.192009 
L 303.153389 194.604971 
L 305.855458 195.179915 
L 308.53585 195.914494 
L 311.189269 196.806361 
L 313.810603 197.852506 
L 316.394517 199.05003 
L 318.936277 200.394597 
L 321.431146 201.881868 
L 323.874393 203.507503 
L 326.261549 205.266731 
L 328.587948 207.154707 
L 330.849687 209.165816 
L 333.042866 211.294441 
L 335.163591 213.534964 
L 337.208266 215.881584 
L 339.173151 218.328344 
L 341.055327 220.869113 
L 342.851871 223.497763 
L 344.559876 226.208169 
L 346.176733 228.994205 
L 347.699739 231.849602 
L 349.12699 234.768299 
L 350.456579 237.744236 
L 352.815488 243.843714 
L 354.763817 250.100282 
L 356.293409 256.468008 
L 357.397922 262.901775 
L 358.074548 269.357959 
L 358.323369 275.794192 
L 358.146795 282.168939 
L 357.9007 285.320585 
L 357.9007 285.320585 
" clip-path="url(#pd26ce55c60)" style="fill: none; stroke-dasharray: 12.95,5.6; stroke-dashoffset: 0; stroke: #ff0000; stroke-opacity: 0.8; stroke-width: 3.5"/>
   </g>
   <g id="legend_1">
    <g id="patch_7">
     <path d="M 49.620313 89.030625 
L 194.970313 89.030625 
Q 196.970313 89.030625 196.970313 87.030625 
L 196.970313 29.318125 
Q 196.970313 27.318125 194.970313 27.318125 
L 49.620313 27.318125 
Q 47.620313 27.318125 47.620313 29.318125 
L 47.620313 87.030625 
Q 47.620313 89.030625 49.620313 89.030625 
z
" style="fill: #ffffff; opacity: 0.8; stroke: #cccccc; stroke-linejoin: miter"/>
    </g>
    <g id="line2d_15">
     <path d="M 51.620313 35.416562 
L 61.620313 35.416562 
L 71.620313 35.416562 
" style="fill: none; stroke: #000000; stroke-opacity: 0.3; stroke-width: 7; stroke-linecap: square"/>
    </g>
    <g id="text_14">
     <!-- True/Underlying model -->
     <g transform="translate(79.620313 38.916562) scale(0.1 -0.1)">
      <defs>
       <path id="DejaVuSans-54" d="M -19 4666 
L 3928 4666 
L 3928 4134 
L 2272 4134 
L 2272 0 
L 1638 0 
L 1638 4134 
L -19 4134 
L -19 4666 
z
" transform="scale(0.015625)"/>
       <path id="DejaVuSans-75" d="M 544 1381 
L 544 3500 
L 1119 3500 
L 1119 1403 
Q 1119 906 1312 657 
Q 1506 409 1894 409 
Q 2359 409 2629 706 
Q 2900 1003 2900 1516 
L 2900 3500 
L 3475 3500 
L 3475 0 
L 2900 0 
L 2900 538 
Q 2691 219 2414 64 
Q 2138 -91 1772 -91 
Q 1169 -91 856 284 
Q 544 659 544 1381 
z
M 1991 3584 
L 1991 3584 
z
" transform="scale(0.015625)"/>
       <path id="DejaVuSans-2f" d="M 1625 4666 
L 2156 4666 
L 531 -594 
L 0 -594 
L 1625 4666 
z
" transform="scale(0.015625)"/>
       <path id="DejaVuSans-55" d="M 556 4666 
L 1191 4666 
L 1191 1831 
Q 1191 1081 1462 751 
Q 1734 422 2344 422 
Q 2950 422 3222 751 
Q 3494 1081 3494 1831 
L 3494 4666 
L 4128 4666 
L 4128 1753 
Q 4128 841 3676 375 
Q 3225 -91 2344 -91 
Q 1459 -91 1007 375 
Q 556 841 556 1753 
L 556 4666 
z
" transform="scale(0.015625)"/>
       <path id="DejaVuSans-6e" d="M 3513 2113 
L 3513 0 
L 2938 0 
L 2938 2094 
Q 2938 2591 2744 2837 
Q 2550 3084 2163 3084 
Q 1697 3084 1428 2787 
Q 1159 2491 1159 1978 
L 1159 0 
L 581 0 
L 581 3500 
L 1159 3500 
L 1159 2956 
Q 1366 3272 1645 3428 
Q 1925 3584 2291 3584 
Q 2894 3584 3203 3211 
Q 3513 2838 3513 2113 
z
" transform="scale(0.015625)"/>
       <path id="DejaVuSans-64" d="M 2906 2969 
L 2906 4863 
L 3481 4863 
L 3481 0 
L 2906 0 
L 2906 525 
Q 2725 213 2448 61 
Q 2172 -91 1784 -91 
Q 1150 -91 751 415 
Q 353 922 353 1747 
Q 353 2572 751 3078 
Q 1150 3584 1784 3584 
Q 2172 3584 2448 3432 
Q 2725 3281 2906 2969 
z
M 947 1747 
Q 947 1113 1208 752 
Q 1469 391 1925 391 
Q 2381 391 2643 752 
Q 2906 1113 2906 1747 
Q 2906 2381 2643 2742 
Q 2381 3103 1925 3103 
Q 1469 3103 1208 2742 
Q 947 2381 947 1747 
z
" transform="scale(0.015625)"/>
       <path id="DejaVuSans-6c" d="M 603 4863 
L 1178 4863 
L 1178 0 
L 603 0 
L 603 4863 
z
" transform="scale(0.015625)"/>
       <path id="DejaVuSans-79" d="M 2059 -325 
Q 1816 -950 1584 -1140 
Q 1353 -1331 966 -1331 
L 506 -1331 
L 506 -850 
L 844 -850 
Q 1081 -850 1212 -737 
Q 1344 -625 1503 -206 
L 1606 56 
L 191 3500 
L 800 3500 
L 1894 763 
L 2988 3500 
L 3597 3500 
L 2059 -325 
z
" transform="scale(0.015625)"/>
       <path id="DejaVuSans-67" d="M 2906 1791 
Q 2906 2416 2648 2759 
Q 2391 3103 1925 3103 
Q 1463 3103 1205 2759 
Q 947 2416 947 1791 
Q 947 1169 1205 825 
Q 1463 481 1925 481 
Q 2391 481 2648 825 
Q 2906 1169 2906 1791 
z
M 3481 434 
Q 3481 -459 3084 -895 
Q 2688 -1331 1869 -1331 
Q 1566 -1331 1297 -1286 
Q 1028 -1241 775 -1147 
L 775 -588 
Q 1028 -725 1275 -790 
Q 1522 -856 1778 -856 
Q 2344 -856 2625 -561 
Q 2906 -266 2906 331 
L 2906 616 
Q 2728 306 2450 153 
Q 2172 0 1784 0 
Q 1141 0 747 490 
Q 353 981 353 1791 
Q 353 2603 747 3093 
Q 1141 3584 1784 3584 
Q 2172 3584 2450 3431 
Q 2728 3278 2906 2969 
L 2906 3500 
L 3481 3500 
L 3481 434 
z
" transform="scale(0.015625)"/>
       <path id="DejaVuSans-6d" d="M 3328 2828 
Q 3544 3216 3844 3400 
Q 4144 3584 4550 3584 
Q 5097 3584 5394 3201 
Q 5691 2819 5691 2113 
L 5691 0 
L 5113 0 
L 5113 2094 
Q 5113 2597 4934 2840 
Q 4756 3084 4391 3084 
Q 3944 3084 3684 2787 
Q 3425 2491 3425 1978 
L 3425 0 
L 2847 0 
L 2847 2094 
Q 2847 2600 2669 2842 
Q 2491 3084 2119 3084 
Q 1678 3084 1418 2786 
Q 1159 2488 1159 1978 
L 1159 0 
L 581 0 
L 581 3500 
L 1159 3500 
L 1159 2956 
Q 1356 3278 1631 3431 
Q 1906 3584 2284 3584 
Q 2666 3584 2933 3390 
Q 3200 3197 3328 2828 
z
" transform="scale(0.015625)"/>
      </defs>
      <use xlink:href="#DejaVuSans-54"/>
      <use xlink:href="#DejaVuSans-72" transform="translate(46.333984 0)"/>
      <use xlink:href="#DejaVuSans-75" transform="translate(87.447266 0)"/>
      <use xlink:href="#DejaVuSans-65" transform="translate(150.826172 0)"/>
      <use xlink:href="#DejaVuSans-2f" transform="translate(212.349609 0)"/>
      <use xlink:href="#DejaVuSans-55" transform="translate(246.041016 0)"/>
      <use xlink:href="#DejaVuSans-6e" transform="translate(319.234375 0)"/>
      <use xlink:href="#DejaVuSans-64" transform="translate(382.613281 0)"/>
      <use xlink:href="#DejaVuSans-65" transform="translate(446.089844 0)"/>
      <use xlink:href="#DejaVuSans-72" transform="translate(507.613281 0)"/>
      <use xlink:href="#DejaVuSans-6c" transform="translate(548.726562 0)"/>
      <use xlink:href="#DejaVuSans-79" transform="translate(576.509766 0)"/>
      <use xlink:href="#DejaVuSans-69" transform="translate(635.689453 0)"/>
      <use xlink:href="#DejaVuSans-6e" transform="translate(663.472656 0)"/>
      <use xlink:href="#DejaVuSans-67" transform="translate(726.851562 0)"/>
      <use xlink:href="#DejaVuSans-20" transform="translate(790.328125 0)"/>
      <use xlink:href="#DejaVuSans-6d" transform="translate(822.115234 0)"/>
      <use xlink:href="#DejaVuSans-6f" transform="translate(919.527344 0)"/>
      <use xlink:href="#DejaVuSans-64" transform="translate(980.708984 0)"/>
      <use xlink:href="#DejaVuSans-65" transform="translate(1044.185547 0)"/>
      <use xlink:href="#DejaVuSans-6c" transform="translate(1105.708984 0)"/>
     </g>
    </g>
    <g id="line2d_16">
     <path d="M 51.620313 50.094687 
L 61.620313 50.094687 
L 71.620313 50.094687 
" style="fill: none; stroke-dasharray: 12.95,5.6; stroke-dashoffset: 0; stroke: #ff0000; stroke-opacity: 0.8; stroke-width: 3.5"/>
    </g>
    <g id="text_15">
     <!-- AutoSINDy -->
     <g transform="translate(79.620313 53.594687) scale(0.1 -0.1)">
      <defs>
       <path id="DejaVuSans-41" d="M 2188 4044 
L 1331 1722 
L 3047 1722 
L 2188 4044 
z
M 1831 4666 
L 2547 4666 
L 4325 0 
L 3669 0 
L 3244 1197 
L 1141 1197 
L 716 0 
L 50 0 
L 1831 4666 
z
" transform="scale(0.015625)"/>
       <path id="DejaVuSans-53" d="M 3425 4513 
L 3425 3897 
Q 3066 4069 2747 4153 
Q 2428 4238 2131 4238 
Q 1616 4238 1336 4038 
Q 1056 3838 1056 3469 
Q 1056 3159 1242 3001 
Q 1428 2844 1947 2747 
L 2328 2669 
Q 3034 2534 3370 2195 
Q 3706 1856 3706 1288 
Q 3706 609 3251 259 
Q 2797 -91 1919 -91 
Q 1588 -91 1214 -16 
Q 841 59 441 206 
L 441 856 
Q 825 641 1194 531 
Q 1563 422 1919 422 
Q 2459 422 2753 634 
Q 3047 847 3047 1241 
Q 3047 1584 2836 1778 
Q 2625 1972 2144 2069 
L 1759 2144 
Q 1053 2284 737 2584 
Q 422 2884 422 3419 
Q 422 4038 858 4394 
Q 1294 4750 2059 4750 
Q 2388 4750 2728 4690 
Q 3069 4631 3425 4513 
z
" transform="scale(0.015625)"/>
       <path id="DejaVuSans-49" d="M 628 4666 
L 1259 4666 
L 1259 0 
L 628 0 
L 628 4666 
z
" transform="scale(0.015625)"/>
       <path id="DejaVuSans-4e" d="M 628 4666 
L 1478 4666 
L 3547 763 
L 3547 4666 
L 4159 4666 
L 4159 0 
L 3309 0 
L 1241 3903 
L 1241 0 
L 628 0 
L 628 4666 
z
" transform="scale(0.015625)"/>
       <path id="DejaVuSans-44" d="M 1259 4147 
L 1259 519 
L 2022 519 
Q 2988 519 3436 956 
Q 3884 1394 3884 2338 
Q 3884 3275 3436 3711 
Q 2988 4147 2022 4147 
L 1259 4147 
z
M 628 4666 
L 1925 4666 
Q 3281 4666 3915 4102 
Q 4550 3538 4550 2338 
Q 4550 1131 3912 565 
Q 3275 0 1925 0 
L 628 0 
L 628 4666 
z
" transform="scale(0.015625)"/>
      </defs>
      <use xlink:href="#DejaVuSans-41"/>
      <use xlink:href="#DejaVuSans-75" transform="translate(68.408203 0)"/>
      <use xlink:href="#DejaVuSans-74" transform="translate(131.787109 0)"/>
      <use xlink:href="#DejaVuSans-6f" transform="translate(170.996094 0)"/>
      <use xlink:href="#DejaVuSans-53" transform="translate(232.177734 0)"/>
      <use xlink:href="#DejaVuSans-49" transform="translate(295.654297 0)"/>
      <use xlink:href="#DejaVuSans-4e" transform="translate(325.146484 0)"/>
      <use xlink:href="#DejaVuSans-44" transform="translate(399.951172 0)"/>
      <use xlink:href="#DejaVuSans-79" transform="translate(476.953125 0)"/>
     </g>
    </g>
    <g id="line2d_17">
     <path d="M 51.620313 64.772812 
L 61.620313 64.772812 
L 71.620313 64.772812 
" style="fill: none; stroke-dasharray: 3.5,5.775; stroke-dashoffset: 0; stroke: #008000; stroke-opacity: 0.8; stroke-width: 3.5"/>
    </g>
    <g id="text_16">
     <!-- Standard SINDy -->
     <g transform="translate(79.620313 68.272812) scale(0.1 -0.1)">
      <use xlink:href="#DejaVuSans-53"/>
      <use xlink:href="#DejaVuSans-74" transform="translate(63.476562 0)"/>
      <use xlink:href="#DejaVuSans-61" transform="translate(102.685547 0)"/>
      <use xlink:href="#DejaVuSans-6e" transform="translate(163.964844 0)"/>
      <use xlink:href="#DejaVuSans-64" transform="translate(227.34375 0)"/>
      <use xlink:href="#DejaVuSans-61" transform="translate(290.820312 0)"/>
      <use xlink:href="#DejaVuSans-72" transform="translate(352.099609 0)"/>
      <use xlink:href="#DejaVuSans-64" transform="translate(391.462891 0)"/>
      <use xlink:href="#DejaVuSans-20" transform="translate(454.939453 0)"/>
      <use xlink:href="#DejaVuSans-53" transform="translate(486.726562 0)"/>
      <use xlink:href="#DejaVuSans-49" transform="translate(550.203125 0)"/>
      <use xlink:href="#DejaVuSans-4e" transform="translate(579.695312 0)"/>
      <use xlink:href="#DejaVuSans-44" transform="translate(654.5 0)"/>
      <use xlink:href="#DejaVuSans-79" transform="translate(731.501953 0)"/>
     </g>
    </g>
    <g id="line2d_18">
     <path d="M 51.620313 79.450937 
L 61.620313 79.450937 
L 71.620313 79.450937 
" style="fill: none; stroke-dasharray: 22.4,5.6,3.5,5.6; stroke-dashoffset: 0; stroke: #0000ff; stroke-opacity: 0.8; stroke-width: 3.5"/>
    </g>
    <g id="text_17">
     <!-- Standard PySR -->
     <g transform="translate(79.620313 82.950937) scale(0.1 -0.1)">
      <defs>
       <path id="DejaVuSans-52" d="M 2841 2188 
Q 3044 2119 3236 1894 
Q 3428 1669 3622 1275 
L 4263 0 
L 3584 0 
L 2988 1197 
Q 2756 1666 2539 1819 
Q 2322 1972 1947 1972 
L 1259 1972 
L 1259 0 
L 628 0 
L 628 4666 
L 2053 4666 
Q 2853 4666 3247 4331 
Q 3641 3997 3641 3322 
Q 3641 2881 3436 2590 
Q 3231 2300 2841 2188 
z
M 1259 4147 
L 1259 2491 
L 2053 2491 
Q 2509 2491 2742 2702 
Q 2975 2913 2975 3322 
Q 2975 3731 2742 3939 
Q 2509 4147 2053 4147 
L 1259 4147 
z
" transform="scale(0.015625)"/>
      </defs>
      <use xlink:href="#DejaVuSans-53"/>
      <use xlink:href="#DejaVuSans-74" transform="translate(63.476562 0)"/>
      <use xlink:href="#DejaVuSans-61" transform="translate(102.685547 0)"/>
      <use xlink:href="#DejaVuSans-6e" transform="translate(163.964844 0)"/>
      <use xlink:href="#DejaVuSans-64" transform="translate(227.34375 0)"/>
      <use xlink:href="#DejaVuSans-61" transform="translate(290.820312 0)"/>
      <use xlink:href="#DejaVuSans-72" transform="translate(352.099609 0)"/>
      <use xlink:href="#DejaVuSans-64" transform="translate(391.462891 0)"/>
      <use xlink:href="#DejaVuSans-20" transform="translate(454.939453 0)"/>
      <use xlink:href="#DejaVuSans-50" transform="translate(486.726562 0)"/>
      <use xlink:href="#DejaVuSans-79" transform="translate(547.029297 0)"/>
      <use xlink:href="#DejaVuSans-53" transform="translate(606.208984 0)"/>
      <use xlink:href="#DejaVuSans-52" transform="translate(669.685547 0)"/>
     </g>
    </g>
   </g>
  </g>
 </g>
 <defs>
  <clipPath id="pd26ce55c60">
   <rect x="42.620313" y="22.318125" width="518.59" height="508.12"/>
  </clipPath>
 </defs>
</svg>
