<?xml version="1.0" encoding="utf-8" standalone="no"?>
<!DOCTYPE svg PUBLIC "-//W3C//DTD SVG 1.1//EN"
  "http://www.w3.org/Graphics/SVG/1.1/DTD/svg11.dtd">
<svg xmlns:xlink="http://www.w3.org/1999/xlink" width="568.780821pt" height="568.70625pt" viewBox="0 0 568.780821 568.70625" xmlns="http://www.w3.org/2000/svg" version="1.1">
 <metadata>
  <rdf:RDF xmlns:dc="http://purl.org/dc/elements/1.1/" xmlns:cc="http://creativecommons.org/ns#" xmlns:rdf="http://www.w3.org/1999/02/22-rdf-syntax-ns#">
   <cc:Work>
    <dc:type rdf:resource="http://purl.org/dc/dcmitype/StillImage"/>
    <dc:date>2026-04-01T23:51:53.395492</dc:date>
    <dc:format>image/svg+xml</dc:format>
    <dc:creator>
     <cc:Agent>
      <dc:title>Matplotlib v3.10.7, https://matplotlib.org/</dc:title>
     </cc:Agent>
    </dc:creator>
   </cc:Work>
  </rdf:RDF>
 </metadata>
 <defs>
  <style type="text/css">*{stroke-linejoin: round; stroke-linecap: butt}</style>
 </defs>
 <g id="figure_1">
  <g id="patch_1">
   <path d="M 0 568.70625 
L 568.780821 568.70625 
L 568.780821 0 
L 0 0 
z
" style="fill: #ffffff"/>
  </g>
  <g id="axes_1">
   <g id="patch_2">
    <path d="M 47.085938 532.215625 
L 555.654338 532.215625 
L 555.654338 21.935625 
L 47.085938 21.935625 
z
" style="fill: #ffffff"/>
   </g>
   <g id="matplotlib.axis_1">
    <g id="xtick_1">
     <g id="line2d_1">
      <path d="M 48.351599 532.215625 
L 48.351599 21.935625 
" clip-path="url(#p4133895b27)" style="fill: none; stroke: #cccccc; stroke-width: 0.8; stroke-linecap: round"/>
     </g>
     <g id="text_1">
      <!-- −0.6 -->
      <g style="fill: #262626" transform="translate(38.481287 546.373437) scale(0.1 -0.1)">
       <defs>
        <path id="ArialMT-2212" d="M 3381 1997 
L 356 1997 
L 356 2522 
L 3381 2522 
L 3381 1997 
z
" transform="scale(0.015625)"/>
        <path id="ArialMT-30" d="M 266 2259 
Q 266 3072 433 3567 
Q 600 4063 929 4331 
Q 1259 4600 1759 4600 
Q 2128 4600 2406 4451 
Q 2684 4303 2865 4023 
Q 3047 3744 3150 3342 
Q 3253 2941 3253 2259 
Q 3253 1453 3087 958 
Q 2922 463 2592 192 
Q 2263 -78 1759 -78 
Q 1097 -78 719 397 
Q 266 969 266 2259 
z
M 844 2259 
Q 844 1131 1108 757 
Q 1372 384 1759 384 
Q 2147 384 2411 759 
Q 2675 1134 2675 2259 
Q 2675 3391 2411 3762 
Q 2147 4134 1753 4134 
Q 1366 4134 1134 3806 
Q 844 3388 844 2259 
z
" transform="scale(0.015625)"/>
        <path id="ArialMT-2e" d="M 581 0 
L 581 641 
L 1222 641 
L 1222 0 
L 581 0 
z
" transform="scale(0.015625)"/>
        <path id="ArialMT-36" d="M 3184 3459 
L 2625 3416 
Q 2550 3747 2413 3897 
Q 2184 4138 1850 4138 
Q 1581 4138 1378 3988 
Q 1113 3794 959 3422 
Q 806 3050 800 2363 
Q 1003 2672 1297 2822 
Q 1591 2972 1913 2972 
Q 2475 2972 2870 2558 
Q 3266 2144 3266 1488 
Q 3266 1056 3080 686 
Q 2894 316 2569 119 
Q 2244 -78 1831 -78 
Q 1128 -78 684 439 
Q 241 956 241 2144 
Q 241 3472 731 4075 
Q 1159 4600 1884 4600 
Q 2425 4600 2770 4297 
Q 3116 3994 3184 3459 
z
M 888 1484 
Q 888 1194 1011 928 
Q 1134 663 1356 523 
Q 1578 384 1822 384 
Q 2178 384 2434 671 
Q 2691 959 2691 1453 
Q 2691 1928 2437 2201 
Q 2184 2475 1800 2475 
Q 1419 2475 1153 2201 
Q 888 1928 888 1484 
z
" transform="scale(0.015625)"/>
       </defs>
       <use xlink:href="#ArialMT-2212"/>
       <use xlink:href="#ArialMT-30" transform="translate(58.398438 0)"/>
       <use xlink:href="#ArialMT-2e" transform="translate(114.013672 0)"/>
       <use xlink:href="#ArialMT-36" transform="translate(141.796875 0)"/>
      </g>
     </g>
    </g>
    <g id="xtick_2">
     <g id="line2d_2">
      <path d="M 132.731469 532.215625 
L 132.731469 21.935625 
" clip-path="url(#p4133895b27)" style="fill: none; stroke: #cccccc; stroke-width: 0.8; stroke-linecap: round"/>
     </g>
     <g id="text_2">
      <!-- −0.4 -->
      <g style="fill: #262626" transform="translate(122.861157 546.373437) scale(0.1 -0.1)">
       <defs>
        <path id="ArialMT-34" d="M 2069 0 
L 2069 1097 
L 81 1097 
L 81 1613 
L 2172 4581 
L 2631 4581 
L 2631 1613 
L 3250 1613 
L 3250 1097 
L 2631 1097 
L 2631 0 
L 2069 0 
z
M 2069 1613 
L 2069 3678 
L 634 1613 
L 2069 1613 
z
" transform="scale(0.015625)"/>
       </defs>
       <use xlink:href="#ArialMT-2212"/>
       <use xlink:href="#ArialMT-30" transform="translate(58.398438 0)"/>
       <use xlink:href="#ArialMT-2e" transform="translate(114.013672 0)"/>
       <use xlink:href="#ArialMT-34" transform="translate(141.796875 0)"/>
      </g>
     </g>
    </g>
    <g id="xtick_3">
     <g id="line2d_3">
      <path d="M 217.11134 532.215625 
L 217.11134 21.935625 
" clip-path="url(#p4133895b27)" style="fill: none; stroke: #cccccc; stroke-width: 0.8; stroke-linecap: round"/>
     </g>
     <g id="text_3">
      <!-- −0.2 -->
      <g style="fill: #262626" transform="translate(207.241027 546.373437) scale(0.1 -0.1)">
       <defs>
        <path id="ArialMT-32" d="M 3222 541 
L 3222 0 
L 194 0 
Q 188 203 259 391 
Q 375 700 629 1000 
Q 884 1300 1366 1694 
Q 2113 2306 2375 2664 
Q 2638 3022 2638 3341 
Q 2638 3675 2398 3904 
Q 2159 4134 1775 4134 
Q 1369 4134 1125 3890 
Q 881 3647 878 3216 
L 300 3275 
Q 359 3922 746 4261 
Q 1134 4600 1788 4600 
Q 2447 4600 2831 4234 
Q 3216 3869 3216 3328 
Q 3216 3053 3103 2787 
Q 2991 2522 2730 2228 
Q 2469 1934 1863 1422 
Q 1356 997 1212 845 
Q 1069 694 975 541 
L 3222 541 
z
" transform="scale(0.015625)"/>
       </defs>
       <use xlink:href="#ArialMT-2212"/>
       <use xlink:href="#ArialMT-30" transform="translate(58.398438 0)"/>
       <use xlink:href="#ArialMT-2e" transform="translate(114.013672 0)"/>
       <use xlink:href="#ArialMT-32" transform="translate(141.796875 0)"/>
      </g>
     </g>
    </g>
    <g id="xtick_4">
     <g id="line2d_4">
      <path d="M 301.49121 532.215625 
L 301.49121 21.935625 
" clip-path="url(#p4133895b27)" style="fill: none; stroke: #cccccc; stroke-width: 0.8; stroke-linecap: round"/>
     </g>
     <g id="text_4">
      <!-- 0.0 -->
      <g style="fill: #262626" transform="translate(294.54121 546.373437) scale(0.1 -0.1)">
       <use xlink:href="#ArialMT-30"/>
       <use xlink:href="#ArialMT-2e" transform="translate(55.615234 0)"/>
       <use xlink:href="#ArialMT-30" transform="translate(83.398438 0)"/>
      </g>
     </g>
    </g>
    <g id="xtick_5">
     <g id="line2d_5">
      <path d="M 385.87108 532.215625 
L 385.87108 21.935625 
" clip-path="url(#p4133895b27)" style="fill: none; stroke: #cccccc; stroke-width: 0.8; stroke-linecap: round"/>
     </g>
     <g id="text_5">
      <!-- 0.2 -->
      <g style="fill: #262626" transform="translate(378.92108 546.373437) scale(0.1 -0.1)">
       <use xlink:href="#ArialMT-30"/>
       <use xlink:href="#ArialMT-2e" transform="translate(55.615234 0)"/>
       <use xlink:href="#ArialMT-32" transform="translate(83.398438 0)"/>
      </g>
     </g>
    </g>
    <g id="xtick_6">
     <g id="line2d_6">
      <path d="M 470.250951 532.215625 
L 470.250951 21.935625 
" clip-path="url(#p4133895b27)" style="fill: none; stroke: #cccccc; stroke-width: 0.8; stroke-linecap: round"/>
     </g>
     <g id="text_6">
      <!-- 0.4 -->
      <g style="fill: #262626" transform="translate(463.300951 546.373437) scale(0.1 -0.1)">
       <use xlink:href="#ArialMT-30"/>
       <use xlink:href="#ArialMT-2e" transform="translate(55.615234 0)"/>
       <use xlink:href="#ArialMT-34" transform="translate(83.398438 0)"/>
      </g>
     </g>
    </g>
    <g id="xtick_7">
     <g id="line2d_7">
      <path d="M 554.630821 532.215625 
L 554.630821 21.935625 
" clip-path="url(#p4133895b27)" style="fill: none; stroke: #cccccc; stroke-width: 0.8; stroke-linecap: round"/>
     </g>
     <g id="text_7">
      <!-- 0.6 -->
      <g style="fill: #262626" transform="translate(547.680821 546.373437) scale(0.1 -0.1)">
       <use xlink:href="#ArialMT-30"/>
       <use xlink:href="#ArialMT-2e" transform="translate(55.615234 0)"/>
       <use xlink:href="#ArialMT-36" transform="translate(83.398438 0)"/>
      </g>
     </g>
    </g>
    <g id="text_8">
     <!-- x0 -->
     <g style="fill: #262626" transform="translate(296.089669 559.51875) scale(0.1 -0.1)">
      <defs>
       <path id="ArialMT-78" d="M 47 0 
L 1259 1725 
L 138 3319 
L 841 3319 
L 1350 2541 
Q 1494 2319 1581 2169 
Q 1719 2375 1834 2534 
L 2394 3319 
L 3066 3319 
L 1919 1756 
L 3153 0 
L 2463 0 
L 1781 1031 
L 1600 1309 
L 728 0 
L 47 0 
z
" transform="scale(0.015625)"/>
      </defs>
      <use xlink:href="#ArialMT-78"/>
      <use xlink:href="#ArialMT-30" transform="translate(50 0)"/>
     </g>
    </g>
   </g>
   <g id="matplotlib.axis_2">
    <g id="ytick_1">
     <g id="line2d_8">
      <path d="M 47.085938 478.084544 
L 555.654338 478.084544 
" clip-path="url(#p4133895b27)" style="fill: none; stroke: #cccccc; stroke-width: 0.8; stroke-linecap: round"/>
     </g>
     <g id="text_9">
      <!-- −1.0 -->
      <g style="fill: #262626" transform="translate(20.345312 481.66345) scale(0.1 -0.1)">
       <defs>
        <path id="ArialMT-31" d="M 2384 0 
L 1822 0 
L 1822 3584 
Q 1619 3391 1289 3197 
Q 959 3003 697 2906 
L 697 3450 
Q 1169 3672 1522 3987 
Q 1875 4303 2022 4600 
L 2384 4600 
L 2384 0 
z
" transform="scale(0.015625)"/>
       </defs>
       <use xlink:href="#ArialMT-2212"/>
       <use xlink:href="#ArialMT-31" transform="translate(58.398438 0)"/>
       <use xlink:href="#ArialMT-2e" transform="translate(114.013672 0)"/>
       <use xlink:href="#ArialMT-30" transform="translate(141.796875 0)"/>
      </g>
     </g>
    </g>
    <g id="ytick_2">
     <g id="line2d_9">
      <path d="M 47.085938 396.20133 
L 555.654338 396.20133 
" clip-path="url(#p4133895b27)" style="fill: none; stroke: #cccccc; stroke-width: 0.8; stroke-linecap: round"/>
     </g>
     <g id="text_10">
      <!-- −0.5 -->
      <g style="fill: #262626" transform="translate(20.345312 399.780236) scale(0.1 -0.1)">
       <defs>
        <path id="ArialMT-35" d="M 266 1200 
L 856 1250 
Q 922 819 1161 601 
Q 1400 384 1738 384 
Q 2144 384 2425 690 
Q 2706 997 2706 1503 
Q 2706 1984 2436 2262 
Q 2166 2541 1728 2541 
Q 1456 2541 1237 2417 
Q 1019 2294 894 2097 
L 366 2166 
L 809 4519 
L 3088 4519 
L 3088 3981 
L 1259 3981 
L 1013 2750 
Q 1425 3038 1878 3038 
Q 2478 3038 2890 2622 
Q 3303 2206 3303 1553 
Q 3303 931 2941 478 
Q 2500 -78 1738 -78 
Q 1113 -78 717 272 
Q 322 622 266 1200 
z
" transform="scale(0.015625)"/>
       </defs>
       <use xlink:href="#ArialMT-2212"/>
       <use xlink:href="#ArialMT-30" transform="translate(58.398438 0)"/>
       <use xlink:href="#ArialMT-2e" transform="translate(114.013672 0)"/>
       <use xlink:href="#ArialMT-35" transform="translate(141.796875 0)"/>
      </g>
     </g>
    </g>
    <g id="ytick_3">
     <g id="line2d_10">
      <path d="M 47.085938 314.318116 
L 555.654338 314.318116 
" clip-path="url(#p4133895b27)" style="fill: none; stroke: #cccccc; stroke-width: 0.8; stroke-linecap: round"/>
     </g>
     <g id="text_11">
      <!-- 0.0 -->
      <g style="fill: #262626" transform="translate(26.185938 317.897022) scale(0.1 -0.1)">
       <use xlink:href="#ArialMT-30"/>
       <use xlink:href="#ArialMT-2e" transform="translate(55.615234 0)"/>
       <use xlink:href="#ArialMT-30" transform="translate(83.398438 0)"/>
      </g>
     </g>
    </g>
    <g id="ytick_4">
     <g id="line2d_11">
      <path d="M 47.085938 232.434902 
L 555.654338 232.434902 
" clip-path="url(#p4133895b27)" style="fill: none; stroke: #cccccc; stroke-width: 0.8; stroke-linecap: round"/>
     </g>
     <g id="text_12">
      <!-- 0.5 -->
      <g style="fill: #262626" transform="translate(26.185938 236.013808) scale(0.1 -0.1)">
       <use xlink:href="#ArialMT-30"/>
       <use xlink:href="#ArialMT-2e" transform="translate(55.615234 0)"/>
       <use xlink:href="#ArialMT-35" transform="translate(83.398438 0)"/>
      </g>
     </g>
    </g>
    <g id="ytick_5">
     <g id="line2d_12">
      <path d="M 47.085938 150.551688 
L 555.654338 150.551688 
" clip-path="url(#p4133895b27)" style="fill: none; stroke: #cccccc; stroke-width: 0.8; stroke-linecap: round"/>
     </g>
     <g id="text_13">
      <!-- 1.0 -->
      <g style="fill: #262626" transform="translate(26.185938 154.130594) scale(0.1 -0.1)">
       <use xlink:href="#ArialMT-31"/>
       <use xlink:href="#ArialMT-2e" transform="translate(55.615234 0)"/>
       <use xlink:href="#ArialMT-30" transform="translate(83.398438 0)"/>
      </g>
     </g>
    </g>
    <g id="ytick_6">
     <g id="line2d_13">
      <path d="M 47.085938 68.668474 
L 555.654338 68.668474 
" clip-path="url(#p4133895b27)" style="fill: none; stroke: #cccccc; stroke-width: 0.8; stroke-linecap: round"/>
     </g>
     <g id="text_14">
      <!-- 1.5 -->
      <g style="fill: #262626" transform="translate(26.185938 72.247381) scale(0.1 -0.1)">
       <use xlink:href="#ArialMT-31"/>
       <use xlink:href="#ArialMT-2e" transform="translate(55.615234 0)"/>
       <use xlink:href="#ArialMT-35" transform="translate(83.398438 0)"/>
      </g>
     </g>
    </g>
    <g id="text_15">
     <!-- x1 -->
     <g style="fill: #262626" transform="translate(14.357812 282.356094) rotate(-90) scale(0.1 -0.1)">
      <use xlink:href="#ArialMT-78"/>
      <use xlink:href="#ArialMT-31" transform="translate(50 0)"/>
     </g>
    </g>
   </g>
   <g id="line2d_14">
    <path d="M 512.440886 232.434902 
L 514.491108 237.353236 
L 516.4145 242.260977 
L 518.211367 247.155777 
L 519.882074 252.035319 
L 521.427043 256.897319 
L 522.846755 261.739526 
L 524.141749 266.559718 
L 525.312605 271.355897 
L 526.35992 276.126767 
L 527.284451 280.870126 
L 528.087016 285.583683 
L 528.768468 290.265201 
L 529.329704 294.912493 
L 529.771659 299.523429 
L 530.095309 304.09593 
L 530.301671 308.627972 
L 530.3918 313.11758 
L 530.366793 317.562838 
L 530.227787 321.961878 
L 529.975958 326.312888 
L 529.612525 330.614109 
L 529.138743 334.863833 
L 528.555911 339.060409 
L 527.865365 343.202235 
L 527.068485 347.287764 
L 526.166687 351.315504 
L 525.16143 355.284012 
L 524.054213 359.191902 
L 522.846574 363.037839 
L 521.540091 366.820542 
L 520.136384 370.538783 
L 518.637112 374.191387 
L 517.043974 377.777232 
L 515.35871 381.295249 
L 511.718961 388.123792 
L 507.732586 394.669529 
L 503.414947 400.925826 
L 498.782049 406.886895 
L 493.850543 412.547803 
L 488.637695 417.904457 
L 483.155966 422.951798 
L 477.419231 427.68466 
L 471.445262 432.099419 
L 465.251654 436.193156 
L 458.855824 439.963652 
L 452.275008 443.409392 
L 445.526266 446.529562 
L 438.626478 449.324051 
L 431.592345 451.79345 
L 424.44039 453.939053 
L 417.186957 455.762855 
L 409.848211 457.267555 
L 402.440139 458.456553 
L 394.978548 459.333951 
L 387.479069 459.904555 
L 379.95715 460.173872 
L 372.428065 460.148111 
L 364.906907 459.834184 
L 357.408588 459.239707 
L 349.947477 458.3724 
L 342.535271 457.235802 
L 335.186251 455.837073 
L 327.914855 454.184665 
L 320.734889 452.28721 
L 313.659529 450.153521 
L 306.70132 447.792593 
L 299.872176 445.213601 
L 293.18338 442.425903 
L 286.645585 439.439037 
L 280.268813 436.262724 
L 274.062454 432.906863 
L 268.035269 429.381539 
L 262.195388 425.697013 
L 256.550308 421.863732 
L 251.106897 417.892321 
L 245.871394 413.793588 
L 240.849402 409.578522 
L 236.045899 405.258293 
L 231.465279 400.844122 
L 227.112843 396.3444 
L 222.993495 391.769382 
L 219.111182 387.130432 
L 215.469285 382.438652 
L 212.070618 377.704875 
L 208.917429 372.93967 
L 206.011397 368.153341 
L 203.353636 363.355926 
L 200.944693 358.557196 
L 198.784549 353.766659 
L 196.872616 348.993556 
L 195.207742 344.246862 
L 193.788207 339.535289 
L 192.611723 334.86728 
L 191.675437 330.251015 
L 190.975928 325.694408 
L 190.509209 321.205106 
L 190.270728 316.790493 
L 190.255835 312.457497 
L 190.462434 308.212003 
L 190.885888 304.061188 
L 191.520767 300.012097 
L 192.361439 296.071345 
L 193.402071 292.245116 
L 194.636628 288.53916 
L 196.058876 284.958801 
L 197.662379 281.508926 
L 199.4405 278.193995 
L 201.386402 275.018035 
L 203.493045 271.984642 
L 205.753191 269.096982 
L 208.159398 266.357787 
L 210.704026 263.76936 
L 213.379233 261.333574 
L 216.176974 259.051867 
L 219.089006 256.925249 
L 222.106885 254.954297 
L 225.221963 253.139158 
L 228.425395 251.479548 
L 231.710062 249.975771 
L 235.070296 248.629137 
L 238.497163 247.439305 
L 241.981858 246.405632 
L 245.515772 245.527207 
L 249.090493 244.802849 
L 252.697809 244.231109 
L 256.329701 243.810269 
L 261.806572 243.457528 
L 267.295637 243.43194 
L 272.77234 243.724304 
L 278.213122 244.32406 
L 283.595423 245.219285 
L 288.897685 246.396697 
L 294.099345 247.841652 
L 299.180843 249.538146 
L 304.123669 251.468971 
L 308.911756 253.622116 
L 313.527727 255.982871 
L 317.9545 258.533472 
L 322.176666 261.256259 
L 326.180486 264.133679 
L 329.953891 267.148282 
L 333.486483 270.282723 
L 336.769535 273.519761 
L 339.795992 276.842262 
L 342.560468 280.233195 
L 345.059248 283.675634 
L 347.290291 287.152759 
L 349.253222 290.647854 
L 350.949216 294.144388 
L 352.376758 297.6283 
L 353.53598 301.084429 
L 354.429581 304.497271 
L 355.061252 307.852265 
L 355.435683 311.135786 
L 355.558555 314.335148 
L 355.436546 317.438602 
L 355.077328 320.435339 
L 354.489569 323.315488 
L 353.682929 326.070116 
L 352.668066 328.691229 
L 351.456632 331.171771 
L 350.059608 333.505284 
L 348.487064 335.685196 
L 346.751867 337.705869 
L 344.866977 339.562608 
L 342.845396 341.251663 
L 340.700164 342.770221 
L 338.444361 344.116412 
L 336.09111 345.289305 
L 333.653568 346.28891 
L 331.144936 347.116178 
L 328.578453 347.772999 
L 325.967399 348.262205 
L 322.4387 348.659442 
L 318.881535 348.771049 
L 315.32678 348.607429 
L 311.803687 348.180669 
L 308.339426 347.504199 
L 304.959087 346.59279 
L 301.685683 345.462554 
L 298.540143 344.130945 
L 295.541321 342.61676 
L 292.705987 340.940137 
L 290.049088 339.120401 
L 287.585184 337.175915 
L 285.327234 335.128028 
L 283.285793 332.997536 
L 281.469014 330.804626 
L 279.882648 328.568875 
L 278.53004 326.309251 
L 277.412134 324.044112 
L 276.527472 321.791206 
L 275.872214 319.567653 
L 275.442987 317.388504 
L 275.235287 315.26947 
L 275.242067 313.226129 
L 275.455094 311.272446 
L 275.864952 309.420769 
L 276.46104 307.681834 
L 277.23157 306.064762 
L 278.163573 304.577058 
L 279.242893 303.224615 
L 280.45419 302.011709 
L 281.781671 300.941589 
L 283.583693 299.810984 
L 285.516531 298.913041 
L 287.550253 298.247384 
L 287.966481 298.141884 
L 287.966481 298.141884 
" clip-path="url(#p4133895b27)" style="fill: none; stroke: #000000; stroke-opacity: 0.3; stroke-width: 7; stroke-linecap: round"/>
   </g>
   <g id="line2d_15">
    <path d="M 512.440886 232.434902 
L 516.208594 240.301014 
L 519.567099 248.298785 
L 522.518384 256.413128 
L 525.064679 264.629146 
L 527.208661 272.933179 
L 528.952348 281.31048 
L 530.29729 289.745893 
L 531.244721 298.224308 
L 531.795563 306.730657 
L 531.950423 315.249917 
L 531.709596 323.767108 
L 531.07306 332.267293 
L 530.040482 340.735581 
L 528.611214 349.15712 
L 526.784294 357.517107 
L 524.558447 365.800779 
L 521.932084 373.993418 
L 518.9033 382.080349 
L 515.469879 390.046941 
L 511.629291 397.878607 
L 507.37869 405.560803 
L 502.714917 413.079029 
L 500.227019 416.772133 
L 497.634501 420.418827 
L 494.93688 424.017311 
L 492.133692 427.565982 
L 489.225168 431.063992 
L 486.212202 434.509178 
L 483.095783 437.899213 
L 479.876971 441.231826 
L 476.556902 444.504799 
L 473.136786 447.715973 
L 469.617906 450.863242 
L 466.00162 453.944556 
L 462.28936 456.957922 
L 458.482631 459.901402 
L 454.583014 462.773113 
L 450.592162 465.571228 
L 446.511803 468.293977 
L 442.34374 470.939644 
L 438.089848 473.506569 
L 433.752077 475.993147 
L 429.332451 478.397831 
L 420.256104 482.9556 
L 410.87848 487.1686 
L 401.218437 491.026447 
L 391.29602 494.519647 
L 381.132458 497.639597 
L 370.750163 500.378583 
L 360.172733 502.729785 
L 349.424953 504.68727 
L 338.532788 506.245997 
L 327.523393 507.401816 
L 316.425103 508.151466 
L 305.267442 508.492579 
L 294.081115 508.423674 
L 282.902639 507.944052 
L 271.774033 507.054673 
L 260.730236 505.75817 
L 249.80435 504.058091 
L 239.02773 501.958895 
L 228.429977 499.465949 
L 218.038946 496.58553 
L 207.880741 493.324826 
L 197.979718 489.691933 
L 188.35848 485.695857 
L 183.659367 483.564689 
L 179.037884 481.346514 
L 174.496366 479.042715 
L 170.037036 476.65473 
L 165.662009 474.184054 
L 161.373291 471.632239 
L 157.172778 469.000895 
L 153.062257 466.291687 
L 149.043406 463.506337 
L 145.117792 460.646626 
L 141.286874 457.71439 
L 137.552002 454.711522 
L 133.914415 451.639972 
L 130.375245 448.501748 
L 126.935513 445.298912 
L 123.596132 442.033586 
L 120.357902 438.707947 
L 117.221519 435.32423 
L 114.187566 431.884725 
L 111.256517 428.391782 
L 108.428739 424.847804 
L 105.70463 421.254925 
L 103.085174 417.613099 
L 100.570169 413.923808 
L 95.851874 406.410452 
L 91.546639 398.73008 
L 87.651636 390.897867 
L 84.164315 382.928942 
L 81.082403 374.838387 
L 78.403905 366.64124 
L 76.127105 358.352488 
L 74.250562 349.987076 
L 72.773116 341.559899 
L 71.693882 333.085809 
L 71.012254 324.579607 
L 70.727904 316.056052 
L 70.840782 307.529853 
L 71.351114 299.015675 
L 72.259406 290.528135 
L 73.56644 282.081804 
L 75.273276 273.691206 
L 77.381252 265.370819 
L 79.891985 257.135075 
L 82.806285 248.995279 
L 86.12607 240.963547 
L 89.85502 233.057972 
L 93.995553 225.296237 
L 98.548798 217.695546 
L 100.980187 213.960841 
L 103.514592 210.272636 
L 106.151792 206.632949 
L 108.891485 203.043769 
L 111.733288 199.507054 
L 114.676738 196.024734 
L 117.72129 192.598708 
L 120.86632 189.230847 
L 124.111124 185.922992 
L 127.454914 182.676953 
L 130.896826 179.494513 
L 134.435912 176.377424 
L 138.071145 173.327408 
L 141.801417 170.346159 
L 145.625539 167.435339 
L 149.542242 164.596582 
L 153.550177 161.831495 
L 157.647912 159.14165 
L 161.833938 156.528593 
L 166.106663 153.993841 
L 170.464415 151.538879 
L 174.90544 149.165165 
L 184.0299 144.667156 
L 193.46441 140.510879 
L 203.192049 136.706924 
L 213.194605 133.265407 
L 223.452579 130.195975 
L 233.94518 127.507799 
L 244.650328 125.209579 
L 255.538418 123.307669 
L 266.569027 121.806954 
L 277.703526 120.712511 
L 288.904583 120.028206 
L 300.136161 119.756695 
L 311.363521 119.899424 
L 322.55322 120.456629 
L 333.67311 121.427337 
L 344.692341 122.809361 
L 355.581358 124.599308 
L 366.311904 126.792573 
L 376.857016 129.38334 
L 387.19103 132.364583 
L 397.289577 135.728068 
L 407.129583 139.464348 
L 416.689274 143.562767 
L 425.948168 148.01146 
L 430.458771 150.363119 
L 434.887082 152.797348 
L 439.230906 155.312324 
L 443.488129 157.906147 
L 447.656717 160.576842 
L 451.734719 163.322358 
L 455.720261 166.14057 
L 459.611556 169.029275 
L 463.406744 171.986476 
L 467.10339 175.012281 
L 470.700729 178.10532 
L 474.19835 181.263751 
L 477.595867 184.485732 
L 480.892919 187.769417 
L 484.089172 191.112959 
L 487.184315 194.514508 
L 490.178065 197.972211 
L 493.070164 201.484215 
L 495.860379 205.048662 
L 498.548504 208.663694 
L 503.617785 216.038064 
L 508.276863 223.59241 
L 512.525008 231.311778 
L 516.361899 239.181182 
L 519.787626 247.185595 
L 522.802686 255.309959 
L 525.407991 263.539176 
L 527.604861 271.858114 
L 529.395025 280.251604 
L 530.780624 288.704443 
L 531.764209 297.201389 
L 532.348741 305.727167 
L 532.537592 314.266462 
L 532.334543 322.803927 
L 531.74338 331.32604 
L 530.762497 339.824136 
L 529.386567 348.282293 
L 527.610899 356.683984 
L 525.43155 365.012878 
L 522.845323 373.252835 
L 519.849769 381.38791 
L 516.443184 389.402349 
L 512.624613 397.28059 
L 508.393844 405.007268 
L 503.751416 412.567206 
L 501.276201 416.279958 
L 498.698611 419.945423 
L 496.018923 423.561756 
L 493.237461 427.127129 
L 490.354594 430.639722 
L 487.370741 434.097729 
L 484.286365 437.499355 
L 481.101976 440.842818 
L 477.818132 444.126348 
L 474.435437 447.348187 
L 470.95454 450.506589 
L 467.376139 453.599818 
L 463.700978 456.626154 
L 459.929848 459.583886 
L 456.063585 462.471316 
L 452.103073 465.286759 
L 448.049242 468.02854 
L 443.903071 470.694998 
L 439.665583 473.284483 
L 435.337847 475.795357 
L 430.920982 478.225995 
L 426.416151 480.574782 
L 421.824565 482.840118 
L 417.147858 485.020553 
L 412.390134 487.115121 
L 402.646974 491.04029 
L 392.624944 494.603209 
L 382.353751 497.792662 
L 371.863121 500.598733 
L 361.182789 503.012801 
L 350.342508 505.027543 
L 339.372045 506.636932 
L 328.301181 507.83624 
L 317.15971 508.622036 
L 305.977443 508.992185 
L 294.784204 508.94585 
L 283.609831 508.483492 
L 272.484177 507.606867 
L 261.43711 506.319032 
L 250.498513 504.624337 
L 239.69828 502.528433 
L 229.066323 500.038265 
L 218.632568 497.162078 
L 208.427008 493.909233 
L 198.478879 490.286174 
L 188.811153 486.301847 
L 179.444042 481.967239 
L 174.879096 479.672126 
L 170.396158 477.293751 
L 165.997303 474.833606 
L 161.684508 472.293206 
L 157.459649 469.674094 
L 153.324502 466.97784 
L 149.280741 464.206039 
L 145.329943 461.36031 
L 141.473583 458.442303 
L 137.713036 455.453689 
L 134.049577 452.396169 
L 130.484381 449.271468 
L 127.018524 446.081337 
L 123.652979 442.827555 
L 120.388621 439.511924 
L 117.226225 436.136275 
L 114.166465 432.702464 
L 111.209916 429.212373 
L 108.357052 425.66791 
L 105.608245 422.071009 
L 102.963772 418.42363 
L 100.423804 414.727761 
L 97.988416 410.985413 
L 95.657582 407.198626 
L 91.308966 399.500016 
L 87.375743 391.648764 
L 83.854095 383.662118 
L 80.738608 375.557739 
L 78.027916 367.348043 
L 75.722736 359.044194 
L 73.820624 350.661426 
L 72.319517 342.214928 
L 71.217733 333.719842 
L 70.513966 325.191264 
L 70.207294 316.644246 
L 70.297171 308.093791 
L 70.783433 299.55486 
L 71.666293 291.042364 
L 72.946348 282.571171 
L 74.624569 274.156102 
L 76.702312 265.811932 
L 79.181308 257.553391 
L 82.063672 249.395161 
L 85.351894 241.351881 
L 89.048848 233.438142 
L 93.157784 225.66849 
L 95.367865 221.842229 
L 97.682334 218.057424 
L 100.101703 214.315879 
L 102.626509 210.619398 
L 105.257313 206.96978 
L 107.993394 203.368703 
L 110.832737 199.818027 
L 113.775092 196.319965 
L 116.82013 192.87669 
L 119.967411 189.490333 
L 123.216389 186.162982 
L 126.566403 182.896678 
L 130.016685 179.693422 
L 133.566356 176.555169 
L 137.214428 173.48383 
L 140.9598 170.481275 
L 144.801265 167.549328 
L 148.737503 164.689768 
L 152.767086 161.904334 
L 156.888473 159.194719 
L 161.100016 156.562573 
L 165.399956 154.0095 
L 169.786424 151.537065 
L 174.257439 149.146784 
L 178.810913 146.840133 
L 183.444647 144.618543 
L 188.15633 142.483401 
L 197.80376 138.477794 
L 207.732524 134.833536 
L 217.920187 131.560153 
L 228.342551 128.66647 
L 238.973657 126.160615 
L 249.785786 124.050014 
L 249.785786 124.050014 
" clip-path="url(#p4133895b27)" style="fill: none; stroke-dasharray: 22.4,5.6,3.5,5.6; stroke-dashoffset: 0; stroke: #0000ff; stroke-opacity: 0.8; stroke-width: 3.5"/>
   </g>
   <g id="patch_3">
    <path d="M 47.085938 532.215625 
L 47.085938 21.935625 
" style="fill: none; stroke: #cccccc; stroke-width: 0.8; stroke-linejoin: miter; stroke-linecap: square"/>
   </g>
   <g id="patch_4">
    <path d="M 555.654338 532.215625 
L 555.654338 21.935625 
" style="fill: none; stroke: #cccccc; stroke-width: 0.8; stroke-linejoin: miter; stroke-linecap: square"/>
   </g>
   <g id="patch_5">
    <path d="M 47.085938 532.215625 
L 555.654338 532.215625 
" style="fill: none; stroke: #cccccc; stroke-width: 0.8; stroke-linejoin: miter; stroke-linecap: square"/>
   </g>
   <g id="patch_6">
    <path d="M 47.085938 21.935625 
L 555.654338 21.935625 
" style="fill: none; stroke: #cccccc; stroke-width: 0.8; stroke-linejoin: miter; stroke-linecap: square"/>
   </g>
   <g id="line2d_16">
    <path d="M 512.440886 232.434902 
L 501.139419 177.14404 
L 351.65943 45.13017 
L 301.009856 71.9818 
L 285.529673 81.116055 
L 272.48892 89.341833 
L 269.344666 91.493343 
L 269.336951 91.348712 
L 269.278048 91.781376 
L 269.331241 91.261512 
L 269.291115 91.646231 
" clip-path="url(#p4133895b27)" style="fill: none; stroke-dasharray: 3.5,5.775; stroke-dashoffset: 0; stroke: #008000; stroke-opacity: 0.8; stroke-width: 3.5"/>
   </g>
   <g id="text_16">
    <!-- Phase Portrait (x0 vs x1) -->
    <g style="fill: #262626" transform="translate(235.6842 15.935625) scale(0.12 -0.12)">
     <defs>
      <path id="ArialMT-50" d="M 494 0 
L 494 4581 
L 2222 4581 
Q 2678 4581 2919 4538 
Q 3256 4481 3484 4323 
Q 3713 4166 3852 3881 
Q 3991 3597 3991 3256 
Q 3991 2672 3619 2267 
Q 3247 1863 2275 1863 
L 1100 1863 
L 1100 0 
L 494 0 
z
M 1100 2403 
L 2284 2403 
Q 2872 2403 3119 2622 
Q 3366 2841 3366 3238 
Q 3366 3525 3220 3729 
Q 3075 3934 2838 4000 
Q 2684 4041 2272 4041 
L 1100 4041 
L 1100 2403 
z
" transform="scale(0.015625)"/>
      <path id="ArialMT-68" d="M 422 0 
L 422 4581 
L 984 4581 
L 984 2938 
Q 1378 3394 1978 3394 
Q 2347 3394 2619 3248 
Q 2891 3103 3008 2847 
Q 3125 2591 3125 2103 
L 3125 0 
L 2563 0 
L 2563 2103 
Q 2563 2525 2380 2717 
Q 2197 2909 1863 2909 
Q 1613 2909 1392 2779 
Q 1172 2650 1078 2428 
Q 984 2206 984 1816 
L 984 0 
L 422 0 
z
" transform="scale(0.015625)"/>
      <path id="ArialMT-61" d="M 2588 409 
Q 2275 144 1986 34 
Q 1697 -75 1366 -75 
Q 819 -75 525 192 
Q 231 459 231 875 
Q 231 1119 342 1320 
Q 453 1522 633 1644 
Q 813 1766 1038 1828 
Q 1203 1872 1538 1913 
Q 2219 1994 2541 2106 
Q 2544 2222 2544 2253 
Q 2544 2597 2384 2738 
Q 2169 2928 1744 2928 
Q 1347 2928 1158 2789 
Q 969 2650 878 2297 
L 328 2372 
Q 403 2725 575 2942 
Q 747 3159 1072 3276 
Q 1397 3394 1825 3394 
Q 2250 3394 2515 3294 
Q 2781 3194 2906 3042 
Q 3031 2891 3081 2659 
Q 3109 2516 3109 2141 
L 3109 1391 
Q 3109 606 3145 398 
Q 3181 191 3288 0 
L 2700 0 
Q 2613 175 2588 409 
z
M 2541 1666 
Q 2234 1541 1622 1453 
Q 1275 1403 1131 1340 
Q 988 1278 909 1158 
Q 831 1038 831 891 
Q 831 666 1001 516 
Q 1172 366 1500 366 
Q 1825 366 2078 508 
Q 2331 650 2450 897 
Q 2541 1088 2541 1459 
L 2541 1666 
z
" transform="scale(0.015625)"/>
      <path id="ArialMT-73" d="M 197 991 
L 753 1078 
Q 800 744 1014 566 
Q 1228 388 1613 388 
Q 2000 388 2187 545 
Q 2375 703 2375 916 
Q 2375 1106 2209 1216 
Q 2094 1291 1634 1406 
Q 1016 1563 777 1677 
Q 538 1791 414 1992 
Q 291 2194 291 2438 
Q 291 2659 392 2848 
Q 494 3038 669 3163 
Q 800 3259 1026 3326 
Q 1253 3394 1513 3394 
Q 1903 3394 2198 3281 
Q 2494 3169 2634 2976 
Q 2775 2784 2828 2463 
L 2278 2388 
Q 2241 2644 2061 2787 
Q 1881 2931 1553 2931 
Q 1166 2931 1000 2803 
Q 834 2675 834 2503 
Q 834 2394 903 2306 
Q 972 2216 1119 2156 
Q 1203 2125 1616 2013 
Q 2213 1853 2448 1751 
Q 2684 1650 2818 1456 
Q 2953 1263 2953 975 
Q 2953 694 2789 445 
Q 2625 197 2315 61 
Q 2006 -75 1616 -75 
Q 969 -75 630 194 
Q 291 463 197 991 
z
" transform="scale(0.015625)"/>
      <path id="ArialMT-65" d="M 2694 1069 
L 3275 997 
Q 3138 488 2766 206 
Q 2394 -75 1816 -75 
Q 1088 -75 661 373 
Q 234 822 234 1631 
Q 234 2469 665 2931 
Q 1097 3394 1784 3394 
Q 2450 3394 2872 2941 
Q 3294 2488 3294 1666 
Q 3294 1616 3291 1516 
L 816 1516 
Q 847 969 1125 678 
Q 1403 388 1819 388 
Q 2128 388 2347 550 
Q 2566 713 2694 1069 
z
M 847 1978 
L 2700 1978 
Q 2663 2397 2488 2606 
Q 2219 2931 1791 2931 
Q 1403 2931 1139 2672 
Q 875 2413 847 1978 
z
" transform="scale(0.015625)"/>
      <path id="ArialMT-20" transform="scale(0.015625)"/>
      <path id="ArialMT-6f" d="M 213 1659 
Q 213 2581 725 3025 
Q 1153 3394 1769 3394 
Q 2453 3394 2887 2945 
Q 3322 2497 3322 1706 
Q 3322 1066 3130 698 
Q 2938 331 2570 128 
Q 2203 -75 1769 -75 
Q 1072 -75 642 372 
Q 213 819 213 1659 
z
M 791 1659 
Q 791 1022 1069 705 
Q 1347 388 1769 388 
Q 2188 388 2466 706 
Q 2744 1025 2744 1678 
Q 2744 2294 2464 2611 
Q 2184 2928 1769 2928 
Q 1347 2928 1069 2612 
Q 791 2297 791 1659 
z
" transform="scale(0.015625)"/>
      <path id="ArialMT-72" d="M 416 0 
L 416 3319 
L 922 3319 
L 922 2816 
Q 1116 3169 1280 3281 
Q 1444 3394 1641 3394 
Q 1925 3394 2219 3213 
L 2025 2691 
Q 1819 2813 1613 2813 
Q 1428 2813 1281 2702 
Q 1134 2591 1072 2394 
Q 978 2094 978 1738 
L 978 0 
L 416 0 
z
" transform="scale(0.015625)"/>
      <path id="ArialMT-74" d="M 1650 503 
L 1731 6 
Q 1494 -44 1306 -44 
Q 1000 -44 831 53 
Q 663 150 594 308 
Q 525 466 525 972 
L 525 2881 
L 113 2881 
L 113 3319 
L 525 3319 
L 525 4141 
L 1084 4478 
L 1084 3319 
L 1650 3319 
L 1650 2881 
L 1084 2881 
L 1084 941 
Q 1084 700 1114 631 
Q 1144 563 1211 522 
Q 1278 481 1403 481 
Q 1497 481 1650 503 
z
" transform="scale(0.015625)"/>
      <path id="ArialMT-69" d="M 425 3934 
L 425 4581 
L 988 4581 
L 988 3934 
L 425 3934 
z
M 425 0 
L 425 3319 
L 988 3319 
L 988 0 
L 425 0 
z
" transform="scale(0.015625)"/>
      <path id="ArialMT-28" d="M 1497 -1347 
Q 1031 -759 709 28 
Q 388 816 388 1659 
Q 388 2403 628 3084 
Q 909 3875 1497 4659 
L 1900 4659 
Q 1522 4009 1400 3731 
Q 1209 3300 1100 2831 
Q 966 2247 966 1656 
Q 966 153 1900 -1347 
L 1497 -1347 
z
" transform="scale(0.015625)"/>
      <path id="ArialMT-76" d="M 1344 0 
L 81 3319 
L 675 3319 
L 1388 1331 
Q 1503 1009 1600 663 
Q 1675 925 1809 1294 
L 2547 3319 
L 3125 3319 
L 1869 0 
L 1344 0 
z
" transform="scale(0.015625)"/>
      <path id="ArialMT-29" d="M 791 -1347 
L 388 -1347 
Q 1322 153 1322 1656 
Q 1322 2244 1188 2822 
Q 1081 3291 891 3722 
Q 769 4003 388 4659 
L 791 4659 
Q 1378 3875 1659 3084 
Q 1900 2403 1900 1659 
Q 1900 816 1576 28 
Q 1253 -759 791 -1347 
z
" transform="scale(0.015625)"/>
     </defs>
     <use xlink:href="#ArialMT-50"/>
     <use xlink:href="#ArialMT-68" transform="translate(66.699219 0)"/>
     <use xlink:href="#ArialMT-61" transform="translate(122.314453 0)"/>
     <use xlink:href="#ArialMT-73" transform="translate(177.929688 0)"/>
     <use xlink:href="#ArialMT-65" transform="translate(227.929688 0)"/>
     <use xlink:href="#ArialMT-20" transform="translate(283.544922 0)"/>
     <use xlink:href="#ArialMT-50" transform="translate(311.328125 0)"/>
     <use xlink:href="#ArialMT-6f" transform="translate(378.027344 0)"/>
     <use xlink:href="#ArialMT-72" transform="translate(433.642578 0)"/>
     <use xlink:href="#ArialMT-74" transform="translate(466.943359 0)"/>
     <use xlink:href="#ArialMT-72" transform="translate(494.726562 0)"/>
     <use xlink:href="#ArialMT-61" transform="translate(528.027344 0)"/>
     <use xlink:href="#ArialMT-69" transform="translate(583.642578 0)"/>
     <use xlink:href="#ArialMT-74" transform="translate(605.859375 0)"/>
     <use xlink:href="#ArialMT-20" transform="translate(633.642578 0)"/>
     <use xlink:href="#ArialMT-28" transform="translate(661.425781 0)"/>
     <use xlink:href="#ArialMT-78" transform="translate(694.726562 0)"/>
     <use xlink:href="#ArialMT-30" transform="translate(744.726562 0)"/>
     <use xlink:href="#ArialMT-20" transform="translate(800.341797 0)"/>
     <use xlink:href="#ArialMT-76" transform="translate(828.125 0)"/>
     <use xlink:href="#ArialMT-73" transform="translate(878.125 0)"/>
     <use xlink:href="#ArialMT-20" transform="translate(928.125 0)"/>
     <use xlink:href="#ArialMT-78" transform="translate(955.908203 0)"/>
     <use xlink:href="#ArialMT-31" transform="translate(1005.908203 0)"/>
     <use xlink:href="#ArialMT-29" transform="translate(1061.523438 0)"/>
    </g>
   </g>
   <g id="line2d_17">
    <path d="M 512.440886 232.434902 
L 515.396992 239.256974 
L 518.107887 246.15053 
L 520.569508 253.104161 
L 522.778168 260.106146 
L 524.730553 267.144457 
L 526.423723 274.206754 
L 527.853953 281.282273 
L 529.017329 288.360756 
L 529.913437 295.427107 
L 530.542423 302.466584 
L 530.904895 309.464956 
L 531.001927 316.408503 
L 530.835057 323.284017 
L 530.406287 330.0788 
L 529.718084 336.780669 
L 528.773377 343.377948 
L 527.575562 349.859476 
L 526.128497 356.214599 
L 524.436506 362.43318 
L 522.504375 368.505589 
L 520.337357 374.422709 
L 517.941168 380.175935 
L 515.321986 385.757171 
L 512.486458 391.158836 
L 509.441691 396.373857 
L 506.195258 401.395675 
L 502.75535 406.218291 
L 499.135731 410.83775 
L 495.351275 415.25067 
L 491.415258 419.453965 
L 487.340595 423.445343 
L 483.13984 427.2233 
L 478.825183 430.787123 
L 474.408455 434.13689 
L 469.901125 437.273471 
L 465.314299 440.198524 
L 460.658723 442.914499 
L 455.944781 445.424637 
L 451.182495 447.732968 
L 446.381527 449.844315 
L 441.551175 451.764289 
L 436.700378 453.499294 
L 431.837712 455.056522 
L 426.971391 456.443959 
L 422.109269 457.670378 
L 417.258837 458.745344 
L 412.427226 459.679215 
L 407.619709 460.476463 
L 402.83972 461.136213 
L 398.091829 461.664579 
L 393.380292 462.067556 
L 384.081676 462.52044 
L 374.9714 462.539315 
L 366.071772 462.165833 
L 357.399882 461.438847 
L 348.967603 460.394413 
L 340.781588 459.065789 
L 332.843271 457.483435 
L 325.148869 455.675013 
L 317.68938 453.665388 
L 310.455934 451.475091 
L 303.457394 449.115331 
L 296.692183 446.59806 
L 290.157092 443.934808 
L 283.848825 441.136279 
L 277.764001 438.212346 
L 271.899156 435.172054 
L 266.250735 432.023622 
L 260.815102 428.774439 
L 255.588531 425.431066 
L 250.567213 421.999237 
L 245.747252 418.483857 
L 241.124667 414.889003 
L 236.695388 411.217923 
L 232.455927 407.473602 
L 228.406509 403.66202 
L 224.54618 399.78868 
L 220.873666 395.858887 
L 217.387715 391.878002 
L 214.087101 387.851443 
L 210.97062 383.784688 
L 208.037095 379.68327 
L 205.285369 375.552778 
L 202.714314 371.398862 
L 200.322822 367.227226 
L 198.109811 363.043634 
L 196.074224 358.853905 
L 194.215025 354.663916 
L 192.531205 350.479602 
L 191.021778 346.306955 
L 189.685782 342.152024 
L 188.52228 338.020914 
L 187.530422 333.919696 
L 186.710319 329.853121 
L 186.060594 325.827972 
L 185.579146 321.851562 
L 185.263721 317.930845 
L 185.111921 314.072416 
L 185.121197 310.282513 
L 185.288852 306.567012 
L 185.612041 302.931435 
L 186.087771 299.380941 
L 186.712899 295.920333 
L 187.484134 292.554054 
L 188.398038 289.286189 
L 189.451023 286.120463 
L 190.639354 283.060244 
L 191.959145 280.108541 
L 193.406364 277.268004 
L 194.97683 274.540924 
L 196.666213 271.929233 
L 198.470035 269.434506 
L 200.38367 267.057958 
L 202.402341 264.800444 
L 204.521127 262.662464 
L 206.734948 260.644172 
L 210.220491 257.843452 
L 213.884478 255.314433 
L 217.70637 253.054151 
L 221.666482 251.058905 
L 225.745986 249.324252 
L 229.926906 247.845013 
L 234.192121 246.615271 
L 238.525367 245.628367 
L 242.911233 244.876906 
L 247.335162 244.352754 
L 251.783454 244.047037 
L 256.243261 243.950144 
L 260.702593 244.051723 
L 265.150311 244.340686 
L 269.575943 244.808309 
L 273.968578 245.452394 
L 278.317437 246.265347 
L 284.030133 247.598628 
L 289.623823 249.200635 
L 295.07711 251.054273 
L 300.370177 253.14311 
L 305.484783 255.451375 
L 310.404266 257.96396 
L 315.113543 260.666418 
L 319.599107 263.544965 
L 323.84903 266.586478 
L 327.852962 269.778498 
L 331.598531 273.106149 
L 335.069461 276.548162 
L 338.253418 280.083843 
L 341.140061 283.692596 
L 343.721032 287.353919 
L 345.989948 291.047398 
L 347.942408 294.752711 
L 349.575991 298.449629 
L 350.890252 302.11801 
L 351.88673 305.737806 
L 352.568939 309.289057 
L 352.941893 312.75226 
L 353.011742 316.10869 
L 352.789443 319.338487 
L 352.287416 322.423741 
L 351.51916 325.348801 
L 350.499257 328.100275 
L 349.243367 330.667029 
L 347.768229 333.040187 
L 346.091665 335.213133 
L 344.232574 337.181507 
L 342.210937 338.94321 
L 340.047813 340.498401 
L 337.764484 341.84895 
L 335.377163 342.994839 
L 332.905066 343.939104 
L 330.367358 344.686224 
L 327.782106 345.241489 
L 325.166279 345.610999 
L 321.877581 345.822275 
L 318.594431 345.769451 
L 315.342747 345.469788 
L 312.145772 344.942528 
L 309.024071 344.208885 
L 305.995791 343.285989 
L 303.078761 342.189377 
L 300.289361 340.937817 
L 297.130415 339.257101 
L 294.196051 337.410162 
L 291.502214 335.426587 
L 289.060351 333.334928 
L 286.877416 331.162704 
L 284.955876 328.936399 
L 283.29947 326.680952 
L 281.911945 324.420534 
L 280.791899 322.178193 
L 279.935678 319.975176 
L 279.337369 317.83093 
L 279.029971 316.10174 
L 279.029971 316.10174 
" clip-path="url(#p4133895b27)" style="fill: none; stroke-dasharray: 12.95,5.6; stroke-dashoffset: 0; stroke: #ff0000; stroke-opacity: 0.8; stroke-width: 3.5"/>
   </g>
   <g id="legend_1">
    <g id="patch_7">
     <path d="M 415.879338 87.473125 
L 548.654338 87.473125 
Q 550.654338 87.473125 550.654338 85.473125 
L 550.654338 28.935625 
Q 550.654338 26.935625 548.654338 26.935625 
L 415.879338 26.935625 
Q 413.879338 26.935625 413.879338 28.935625 
L 413.879338 85.473125 
Q 413.879338 87.473125 415.879338 87.473125 
z
" style="fill: #ffffff; opacity: 0.8; stroke: #cccccc; stroke-linejoin: miter"/>
    </g>
    <g id="line2d_18">
     <path d="M 417.879338 34.715312 
L 427.879338 34.715312 
L 437.879338 34.715312 
" style="fill: none; stroke: #000000; stroke-opacity: 0.3; stroke-width: 7; stroke-linecap: round"/>
    </g>
    <g id="text_17">
     <!-- True/Underlying model -->
     <g style="fill: #262626" transform="translate(445.879338 38.215312) scale(0.1 -0.1)">
      <defs>
       <path id="ArialMT-54" d="M 1659 0 
L 1659 4041 
L 150 4041 
L 150 4581 
L 3781 4581 
L 3781 4041 
L 2266 4041 
L 2266 0 
L 1659 0 
z
" transform="scale(0.015625)"/>
       <path id="ArialMT-75" d="M 2597 0 
L 2597 488 
Q 2209 -75 1544 -75 
Q 1250 -75 995 37 
Q 741 150 617 320 
Q 494 491 444 738 
Q 409 903 409 1263 
L 409 3319 
L 972 3319 
L 972 1478 
Q 972 1038 1006 884 
Q 1059 663 1231 536 
Q 1403 409 1656 409 
Q 1909 409 2131 539 
Q 2353 669 2445 892 
Q 2538 1116 2538 1541 
L 2538 3319 
L 3100 3319 
L 3100 0 
L 2597 0 
z
" transform="scale(0.015625)"/>
       <path id="ArialMT-2f" d="M 0 -78 
L 1328 4659 
L 1778 4659 
L 453 -78 
L 0 -78 
z
" transform="scale(0.015625)"/>
       <path id="ArialMT-55" d="M 3500 4581 
L 4106 4581 
L 4106 1934 
Q 4106 1244 3950 837 
Q 3794 431 3386 176 
Q 2978 -78 2316 -78 
Q 1672 -78 1262 144 
Q 853 366 678 786 
Q 503 1206 503 1934 
L 503 4581 
L 1109 4581 
L 1109 1938 
Q 1109 1341 1220 1058 
Q 1331 775 1601 622 
Q 1872 469 2263 469 
Q 2931 469 3215 772 
Q 3500 1075 3500 1938 
L 3500 4581 
z
" transform="scale(0.015625)"/>
       <path id="ArialMT-6e" d="M 422 0 
L 422 3319 
L 928 3319 
L 928 2847 
Q 1294 3394 1984 3394 
Q 2284 3394 2536 3286 
Q 2788 3178 2913 3003 
Q 3038 2828 3088 2588 
Q 3119 2431 3119 2041 
L 3119 0 
L 2556 0 
L 2556 2019 
Q 2556 2363 2490 2533 
Q 2425 2703 2258 2804 
Q 2091 2906 1866 2906 
Q 1506 2906 1245 2678 
Q 984 2450 984 1813 
L 984 0 
L 422 0 
z
" transform="scale(0.015625)"/>
       <path id="ArialMT-64" d="M 2575 0 
L 2575 419 
Q 2259 -75 1647 -75 
Q 1250 -75 917 144 
Q 584 363 401 755 
Q 219 1147 219 1656 
Q 219 2153 384 2558 
Q 550 2963 881 3178 
Q 1213 3394 1622 3394 
Q 1922 3394 2156 3267 
Q 2391 3141 2538 2938 
L 2538 4581 
L 3097 4581 
L 3097 0 
L 2575 0 
z
M 797 1656 
Q 797 1019 1065 703 
Q 1334 388 1700 388 
Q 2069 388 2326 689 
Q 2584 991 2584 1609 
Q 2584 2291 2321 2609 
Q 2059 2928 1675 2928 
Q 1300 2928 1048 2622 
Q 797 2316 797 1656 
z
" transform="scale(0.015625)"/>
       <path id="ArialMT-6c" d="M 409 0 
L 409 4581 
L 972 4581 
L 972 0 
L 409 0 
z
" transform="scale(0.015625)"/>
       <path id="ArialMT-79" d="M 397 -1278 
L 334 -750 
Q 519 -800 656 -800 
Q 844 -800 956 -737 
Q 1069 -675 1141 -563 
Q 1194 -478 1313 -144 
Q 1328 -97 1363 -6 
L 103 3319 
L 709 3319 
L 1400 1397 
Q 1534 1031 1641 628 
Q 1738 1016 1872 1384 
L 2581 3319 
L 3144 3319 
L 1881 -56 
Q 1678 -603 1566 -809 
Q 1416 -1088 1222 -1217 
Q 1028 -1347 759 -1347 
Q 597 -1347 397 -1278 
z
" transform="scale(0.015625)"/>
       <path id="ArialMT-67" d="M 319 -275 
L 866 -356 
Q 900 -609 1056 -725 
Q 1266 -881 1628 -881 
Q 2019 -881 2231 -725 
Q 2444 -569 2519 -288 
Q 2563 -116 2559 434 
Q 2191 0 1641 0 
Q 956 0 581 494 
Q 206 988 206 1678 
Q 206 2153 378 2554 
Q 550 2956 876 3175 
Q 1203 3394 1644 3394 
Q 2231 3394 2613 2919 
L 2613 3319 
L 3131 3319 
L 3131 450 
Q 3131 -325 2973 -648 
Q 2816 -972 2473 -1159 
Q 2131 -1347 1631 -1347 
Q 1038 -1347 672 -1080 
Q 306 -813 319 -275 
z
M 784 1719 
Q 784 1066 1043 766 
Q 1303 466 1694 466 
Q 2081 466 2343 764 
Q 2606 1063 2606 1700 
Q 2606 2309 2336 2618 
Q 2066 2928 1684 2928 
Q 1309 2928 1046 2623 
Q 784 2319 784 1719 
z
" transform="scale(0.015625)"/>
       <path id="ArialMT-6d" d="M 422 0 
L 422 3319 
L 925 3319 
L 925 2853 
Q 1081 3097 1340 3245 
Q 1600 3394 1931 3394 
Q 2300 3394 2536 3241 
Q 2772 3088 2869 2813 
Q 3263 3394 3894 3394 
Q 4388 3394 4653 3120 
Q 4919 2847 4919 2278 
L 4919 0 
L 4359 0 
L 4359 2091 
Q 4359 2428 4304 2576 
Q 4250 2725 4106 2815 
Q 3963 2906 3769 2906 
Q 3419 2906 3187 2673 
Q 2956 2441 2956 1928 
L 2956 0 
L 2394 0 
L 2394 2156 
Q 2394 2531 2256 2718 
Q 2119 2906 1806 2906 
Q 1569 2906 1367 2781 
Q 1166 2656 1075 2415 
Q 984 2175 984 1722 
L 984 0 
L 422 0 
z
" transform="scale(0.015625)"/>
      </defs>
      <use xlink:href="#ArialMT-54"/>
      <use xlink:href="#ArialMT-72" transform="translate(57.333984 0)"/>
      <use xlink:href="#ArialMT-75" transform="translate(90.634766 0)"/>
      <use xlink:href="#ArialMT-65" transform="translate(146.25 0)"/>
      <use xlink:href="#ArialMT-2f" transform="translate(201.865234 0)"/>
      <use xlink:href="#ArialMT-55" transform="translate(229.648438 0)"/>
      <use xlink:href="#ArialMT-6e" transform="translate(301.865234 0)"/>
      <use xlink:href="#ArialMT-64" transform="translate(357.480469 0)"/>
      <use xlink:href="#ArialMT-65" transform="translate(413.095703 0)"/>
      <use xlink:href="#ArialMT-72" transform="translate(468.710938 0)"/>
      <use xlink:href="#ArialMT-6c" transform="translate(502.011719 0)"/>
      <use xlink:href="#ArialMT-79" transform="translate(524.228516 0)"/>
      <use xlink:href="#ArialMT-69" transform="translate(574.228516 0)"/>
      <use xlink:href="#ArialMT-6e" transform="translate(596.445312 0)"/>
      <use xlink:href="#ArialMT-67" transform="translate(652.060547 0)"/>
      <use xlink:href="#ArialMT-20" transform="translate(707.675781 0)"/>
      <use xlink:href="#ArialMT-6d" transform="translate(735.458984 0)"/>
      <use xlink:href="#ArialMT-6f" transform="translate(818.759766 0)"/>
      <use xlink:href="#ArialMT-64" transform="translate(874.375 0)"/>
      <use xlink:href="#ArialMT-65" transform="translate(929.990234 0)"/>
      <use xlink:href="#ArialMT-6c" transform="translate(985.605469 0)"/>
     </g>
    </g>
    <g id="line2d_19">
     <path d="M 417.879338 49.099687 
L 427.879338 49.099687 
L 437.879338 49.099687 
" style="fill: none; stroke-dasharray: 12.95,5.6; stroke-dashoffset: 0; stroke: #ff0000; stroke-opacity: 0.8; stroke-width: 3.5"/>
    </g>
    <g id="text_18">
     <!-- AutoSINDy -->
     <g style="fill: #262626" transform="translate(445.879338 52.599687) scale(0.1 -0.1)">
      <defs>
       <path id="ArialMT-41" d="M -9 0 
L 1750 4581 
L 2403 4581 
L 4278 0 
L 3588 0 
L 3053 1388 
L 1138 1388 
L 634 0 
L -9 0 
z
M 1313 1881 
L 2866 1881 
L 2388 3150 
Q 2169 3728 2063 4100 
Q 1975 3659 1816 3225 
L 1313 1881 
z
" transform="scale(0.015625)"/>
       <path id="ArialMT-53" d="M 288 1472 
L 859 1522 
Q 900 1178 1048 958 
Q 1197 738 1509 602 
Q 1822 466 2213 466 
Q 2559 466 2825 569 
Q 3091 672 3220 851 
Q 3350 1031 3350 1244 
Q 3350 1459 3225 1620 
Q 3100 1781 2813 1891 
Q 2628 1963 1997 2114 
Q 1366 2266 1113 2400 
Q 784 2572 623 2826 
Q 463 3081 463 3397 
Q 463 3744 659 4045 
Q 856 4347 1234 4503 
Q 1613 4659 2075 4659 
Q 2584 4659 2973 4495 
Q 3363 4331 3572 4012 
Q 3781 3694 3797 3291 
L 3216 3247 
Q 3169 3681 2898 3903 
Q 2628 4125 2100 4125 
Q 1550 4125 1298 3923 
Q 1047 3722 1047 3438 
Q 1047 3191 1225 3031 
Q 1400 2872 2139 2705 
Q 2878 2538 3153 2413 
Q 3553 2228 3743 1945 
Q 3934 1663 3934 1294 
Q 3934 928 3725 604 
Q 3516 281 3123 101 
Q 2731 -78 2241 -78 
Q 1619 -78 1198 103 
Q 778 284 539 648 
Q 300 1013 288 1472 
z
" transform="scale(0.015625)"/>
       <path id="ArialMT-49" d="M 597 0 
L 597 4581 
L 1203 4581 
L 1203 0 
L 597 0 
z
" transform="scale(0.015625)"/>
       <path id="ArialMT-4e" d="M 488 0 
L 488 4581 
L 1109 4581 
L 3516 984 
L 3516 4581 
L 4097 4581 
L 4097 0 
L 3475 0 
L 1069 3600 
L 1069 0 
L 488 0 
z
" transform="scale(0.015625)"/>
       <path id="ArialMT-44" d="M 494 0 
L 494 4581 
L 2072 4581 
Q 2606 4581 2888 4516 
Q 3281 4425 3559 4188 
Q 3922 3881 4101 3404 
Q 4281 2928 4281 2316 
Q 4281 1794 4159 1391 
Q 4038 988 3847 723 
Q 3656 459 3429 307 
Q 3203 156 2883 78 
Q 2563 0 2147 0 
L 494 0 
z
M 1100 541 
L 2078 541 
Q 2531 541 2789 625 
Q 3047 709 3200 863 
Q 3416 1078 3536 1442 
Q 3656 1806 3656 2325 
Q 3656 3044 3420 3430 
Q 3184 3816 2847 3947 
Q 2603 4041 2063 4041 
L 1100 4041 
L 1100 541 
z
" transform="scale(0.015625)"/>
      </defs>
      <use xlink:href="#ArialMT-41"/>
      <use xlink:href="#ArialMT-75" transform="translate(66.699219 0)"/>
      <use xlink:href="#ArialMT-74" transform="translate(122.314453 0)"/>
      <use xlink:href="#ArialMT-6f" transform="translate(150.097656 0)"/>
      <use xlink:href="#ArialMT-53" transform="translate(205.712891 0)"/>
      <use xlink:href="#ArialMT-49" transform="translate(272.412109 0)"/>
      <use xlink:href="#ArialMT-4e" transform="translate(300.195312 0)"/>
      <use xlink:href="#ArialMT-44" transform="translate(372.412109 0)"/>
      <use xlink:href="#ArialMT-79" transform="translate(444.628906 0)"/>
     </g>
    </g>
    <g id="line2d_20">
     <path d="M 417.879338 63.484062 
L 427.879338 63.484062 
L 437.879338 63.484062 
" style="fill: none; stroke-dasharray: 3.5,5.775; stroke-dashoffset: 0; stroke: #008000; stroke-opacity: 0.8; stroke-width: 3.5"/>
    </g>
    <g id="text_19">
     <!-- Standard SINDy -->
     <g style="fill: #262626" transform="translate(445.879338 66.984062) scale(0.1 -0.1)">
      <use xlink:href="#ArialMT-53"/>
      <use xlink:href="#ArialMT-74" transform="translate(66.699219 0)"/>
      <use xlink:href="#ArialMT-61" transform="translate(94.482422 0)"/>
      <use xlink:href="#ArialMT-6e" transform="translate(150.097656 0)"/>
      <use xlink:href="#ArialMT-64" transform="translate(205.712891 0)"/>
      <use xlink:href="#ArialMT-61" transform="translate(261.328125 0)"/>
      <use xlink:href="#ArialMT-72" transform="translate(316.943359 0)"/>
      <use xlink:href="#ArialMT-64" transform="translate(350.244141 0)"/>
      <use xlink:href="#ArialMT-20" transform="translate(405.859375 0)"/>
      <use xlink:href="#ArialMT-53" transform="translate(433.642578 0)"/>
      <use xlink:href="#ArialMT-49" transform="translate(500.341797 0)"/>
      <use xlink:href="#ArialMT-4e" transform="translate(528.125 0)"/>
      <use xlink:href="#ArialMT-44" transform="translate(600.341797 0)"/>
      <use xlink:href="#ArialMT-79" transform="translate(672.558594 0)"/>
     </g>
    </g>
    <g id="line2d_21">
     <path d="M 417.879338 77.868437 
L 427.879338 77.868437 
L 437.879338 77.868437 
" style="fill: none; stroke-dasharray: 22.4,5.6,3.5,5.6; stroke-dashoffset: 0; stroke: #0000ff; stroke-opacity: 0.8; stroke-width: 3.5"/>
    </g>
    <g id="text_20">
     <!-- Standard PySR -->
     <g style="fill: #262626" transform="translate(445.879338 81.368437) scale(0.1 -0.1)">
      <defs>
       <path id="ArialMT-52" d="M 503 0 
L 503 4581 
L 2534 4581 
Q 3147 4581 3465 4457 
Q 3784 4334 3975 4021 
Q 4166 3709 4166 3331 
Q 4166 2844 3850 2509 
Q 3534 2175 2875 2084 
Q 3116 1969 3241 1856 
Q 3506 1613 3744 1247 
L 4541 0 
L 3778 0 
L 3172 953 
Q 2906 1366 2734 1584 
Q 2563 1803 2427 1890 
Q 2291 1978 2150 2013 
Q 2047 2034 1813 2034 
L 1109 2034 
L 1109 0 
L 503 0 
z
M 1109 2559 
L 2413 2559 
Q 2828 2559 3062 2645 
Q 3297 2731 3419 2920 
Q 3541 3109 3541 3331 
Q 3541 3656 3305 3865 
Q 3069 4075 2559 4075 
L 1109 4075 
L 1109 2559 
z
" transform="scale(0.015625)"/>
      </defs>
      <use xlink:href="#ArialMT-53"/>
      <use xlink:href="#ArialMT-74" transform="translate(66.699219 0)"/>
      <use xlink:href="#ArialMT-61" transform="translate(94.482422 0)"/>
      <use xlink:href="#ArialMT-6e" transform="translate(150.097656 0)"/>
      <use xlink:href="#ArialMT-64" transform="translate(205.712891 0)"/>
      <use xlink:href="#ArialMT-61" transform="translate(261.328125 0)"/>
      <use xlink:href="#ArialMT-72" transform="translate(316.943359 0)"/>
      <use xlink:href="#ArialMT-64" transform="translate(350.244141 0)"/>
      <use xlink:href="#ArialMT-20" transform="translate(405.859375 0)"/>
      <use xlink:href="#ArialMT-50" transform="translate(433.642578 0)"/>
      <use xlink:href="#ArialMT-79" transform="translate(500.341797 0)"/>
      <use xlink:href="#ArialMT-53" transform="translate(550.341797 0)"/>
      <use xlink:href="#ArialMT-52" transform="translate(617.041016 0)"/>
     </g>
    </g>
   </g>
  </g>
 </g>
 <defs>
  <clipPath id="p4133895b27">
   <rect x="47.085938" y="21.935625" width="508.5684" height="510.28"/>
  </clipPath>
 </defs>
</svg>
