<?xml version="1.0" encoding="utf-8" standalone="no"?>
<!DOCTYPE svg PUBLIC "-//W3C//DTD SVG 1.1//EN"
  "http://www.w3.org/Graphics/SVG/1.1/DTD/svg11.dtd">
<svg xmlns:xlink="http://www.w3.org/1999/xlink" width="862.180312pt" height="285.79625pt" viewBox="0 0 862.180312 285.79625" xmlns="http://www.w3.org/2000/svg" version="1.1">
 <metadata>
  <rdf:RDF xmlns:dc="http://purl.org/dc/elements/1.1/" xmlns:cc="http://creativecommons.org/ns#" xmlns:rdf="http://www.w3.org/1999/02/22-rdf-syntax-ns#">
   <cc:Work>
    <dc:type rdf:resource="http://purl.org/dc/dcmitype/StillImage"/>
    <dc:date>2026-04-28T16:47:17.880355</dc:date>
    <dc:format>image/svg+xml</dc:format>
    <dc:creator>
     <cc:Agent>
      <dc:title>Matplotlib v3.10.7, https://matplotlib.org/</dc:title>
     </cc:Agent>
    </dc:creator>
   </cc:Work>
  </rdf:RDF>
 </metadata>
 <defs>
  <style type="text/css">*{stroke-linejoin: round; stroke-linecap: butt}</style>
 </defs>
 <g id="figure_1">
  <g id="patch_1">
   <path d="M 0 285.79625 
L 862.180313 285.79625 
L 862.180313 0 
L 0 0 
z
" style="fill: #ffffff"/>
  </g>
  <g id="axes_1">
   <g id="patch_2">
    <path d="M 42.620313 136.79 
L 849.180312 136.79 
L 849.180312 39.64 
L 42.620313 39.64 
z
" style="fill: #ffffff"/>
   </g>
   <g id="line2d_1">
    <path d="M 79.282131 44.055909 
L 105.731539 47.01741 
L 127.772712 49.265513 
L 149.813885 51.28467 
L 171.855058 53.070043 
L 193.896232 54.63561 
L 218.876228 56.18095 
L 245.325636 57.595774 
L 276.183278 59.019287 
L 314.387979 60.547029 
L 373.164441 62.642087 
L 448.10443 65.34634 
L 490.717365 67.11393 
L 527.452654 68.859005 
L 562.718531 70.761669 
L 597.984408 72.892408 
L 640.597343 75.712657 
L 700.843216 79.711144 
L 725.823213 81.13813 
L 746.394975 82.099276 
L 765.497325 82.767387 
L 783.130263 83.166195 
L 800.763202 83.342477 
L 812.518494 83.333513 
L 812.518494 83.333513 
" clip-path="url(#p0d103dbcc6)" style="fill: none; stroke: #000000; stroke-opacity: 0.4; stroke-width: 6; stroke-linecap: square"/>
   </g>
   <g id="matplotlib.axis_1">
    <g id="xtick_1">
     <g id="line2d_2">
      <defs>
       <path id="m0dffb762fb" d="M 0 0 
L 0 3.5 
" style="stroke: #000000; stroke-width: 0.8"/>
      </defs>
      <g>
       <use xlink:href="#m0dffb762fb" x="79.282131" y="136.79" style="stroke: #000000; stroke-width: 0.8"/>
      </g>
     </g>
    </g>
    <g id="xtick_2">
     <g id="line2d_3">
      <g>
       <use xlink:href="#m0dffb762fb" x="225.929403" y="136.79" style="stroke: #000000; stroke-width: 0.8"/>
      </g>
     </g>
    </g>
    <g id="xtick_3">
     <g id="line2d_4">
      <g>
       <use xlink:href="#m0dffb762fb" x="372.576676" y="136.79" style="stroke: #000000; stroke-width: 0.8"/>
      </g>
     </g>
    </g>
    <g id="xtick_4">
     <g id="line2d_5">
      <g>
       <use xlink:href="#m0dffb762fb" x="519.223949" y="136.79" style="stroke: #000000; stroke-width: 0.8"/>
      </g>
     </g>
    </g>
    <g id="xtick_5">
     <g id="line2d_6">
      <g>
       <use xlink:href="#m0dffb762fb" x="665.871222" y="136.79" style="stroke: #000000; stroke-width: 0.8"/>
      </g>
     </g>
    </g>
    <g id="xtick_6">
     <g id="line2d_7">
      <g>
       <use xlink:href="#m0dffb762fb" x="812.518494" y="136.79" style="stroke: #000000; stroke-width: 0.8"/>
      </g>
     </g>
    </g>
   </g>
   <g id="matplotlib.axis_2">
    <g id="ytick_1">
     <g id="line2d_8">
      <defs>
       <path id="m3bd020f814" d="M 0 0 
L -3.5 0 
" style="stroke: #000000; stroke-width: 0.8"/>
      </defs>
      <g>
       <use xlink:href="#m3bd020f814" x="42.620313" y="129.231678" style="stroke: #000000; stroke-width: 0.8"/>
      </g>
     </g>
     <g id="text_1">
      <!-- −4 -->
      <g transform="translate(20.878125 133.030897) scale(0.1 -0.1)">
       <defs>
        <path id="DejaVuSans-2212" d="M 678 2272 
L 4684 2272 
L 4684 1741 
L 678 1741 
L 678 2272 
z
" transform="scale(0.015625)"/>
        <path id="DejaVuSans-34" d="M 2419 4116 
L 825 1625 
L 2419 1625 
L 2419 4116 
z
M 2253 4666 
L 3047 4666 
L 3047 1625 
L 3713 1625 
L 3713 1100 
L 3047 1100 
L 3047 0 
L 2419 0 
L 2419 1100 
L 313 1100 
L 313 1709 
L 2253 4666 
z
" transform="scale(0.015625)"/>
       </defs>
       <use xlink:href="#DejaVuSans-2212"/>
       <use xlink:href="#DejaVuSans-34" transform="translate(83.789062 0)"/>
      </g>
     </g>
    </g>
    <g id="ytick_2">
     <g id="line2d_9">
      <g>
       <use xlink:href="#m3bd020f814" x="42.620313" y="95.16137" style="stroke: #000000; stroke-width: 0.8"/>
      </g>
     </g>
     <g id="text_2">
      <!-- −2 -->
      <g transform="translate(20.878125 98.960589) scale(0.1 -0.1)">
       <defs>
        <path id="DejaVuSans-32" d="M 1228 531 
L 3431 531 
L 3431 0 
L 469 0 
L 469 531 
Q 828 903 1448 1529 
Q 2069 2156 2228 2338 
Q 2531 2678 2651 2914 
Q 2772 3150 2772 3378 
Q 2772 3750 2511 3984 
Q 2250 4219 1831 4219 
Q 1534 4219 1204 4116 
Q 875 4013 500 3803 
L 500 4441 
Q 881 4594 1212 4672 
Q 1544 4750 1819 4750 
Q 2544 4750 2975 4387 
Q 3406 4025 3406 3419 
Q 3406 3131 3298 2873 
Q 3191 2616 2906 2266 
Q 2828 2175 2409 1742 
Q 1991 1309 1228 531 
z
" transform="scale(0.015625)"/>
       </defs>
       <use xlink:href="#DejaVuSans-2212"/>
       <use xlink:href="#DejaVuSans-32" transform="translate(83.789062 0)"/>
      </g>
     </g>
    </g>
    <g id="ytick_3">
     <g id="line2d_10">
      <g>
       <use xlink:href="#m3bd020f814" x="42.620313" y="61.091063" style="stroke: #000000; stroke-width: 0.8"/>
      </g>
     </g>
     <g id="text_3">
      <!-- 0 -->
      <g transform="translate(29.257813 64.890282) scale(0.1 -0.1)">
       <defs>
        <path id="DejaVuSans-30" d="M 2034 4250 
Q 1547 4250 1301 3770 
Q 1056 3291 1056 2328 
Q 1056 1369 1301 889 
Q 1547 409 2034 409 
Q 2525 409 2770 889 
Q 3016 1369 3016 2328 
Q 3016 3291 2770 3770 
Q 2525 4250 2034 4250 
z
M 2034 4750 
Q 2819 4750 3233 4129 
Q 3647 3509 3647 2328 
Q 3647 1150 3233 529 
Q 2819 -91 2034 -91 
Q 1250 -91 836 529 
Q 422 1150 422 2328 
Q 422 3509 836 4129 
Q 1250 4750 2034 4750 
z
" transform="scale(0.015625)"/>
       </defs>
       <use xlink:href="#DejaVuSans-30"/>
      </g>
     </g>
    </g>
    <g id="text_4">
     <!-- $x0$ -->
     <g transform="translate(14.798438 94.365) rotate(-90) scale(0.1 -0.1)">
      <defs>
       <path id="DejaVuSans-Oblique-78" d="M 3841 3500 
L 2234 1784 
L 3219 0 
L 2559 0 
L 1819 1388 
L 531 0 
L -166 0 
L 1556 1844 
L 641 3500 
L 1300 3500 
L 1972 2234 
L 3144 3500 
L 3841 3500 
z
" transform="scale(0.015625)"/>
      </defs>
      <use xlink:href="#DejaVuSans-Oblique-78" transform="translate(0 0.78125)"/>
      <use xlink:href="#DejaVuSans-30" transform="translate(59.179688 0.78125)"/>
     </g>
    </g>
   </g>
   <g id="line2d_11">
    <path d="M 79.282131 44.055909 
L 118.956243 48.554797 
L 142.466827 50.976461 
L 164.508001 53.007566 
L 186.549174 54.805688 
L 210.059759 56.494176 
L 235.039755 58.069085 
L 262.958574 59.606267 
L 292.346805 61.001193 
L 321.735036 62.172814 
L 349.653856 63.062199 
L 376.103264 63.680208 
L 401.08326 64.048293 
L 427.532668 64.211846 
L 455.451488 64.161776 
L 490.717365 63.860763 
L 558.310296 62.993089 
L 624.433816 62.249037 
L 686.149101 61.785518 
L 761.08909 61.459258 
L 812.518494 61.330691 
L 812.518494 61.330691 
" clip-path="url(#p0d103dbcc6)" style="fill: none; stroke-dasharray: 22.4,5.6,3.5,5.6; stroke-dashoffset: 0; stroke: #0000ff; stroke-opacity: 0.8; stroke-width: 3.5"/>
   </g>
   <g id="patch_3">
    <path d="M 42.620313 136.79 
L 42.620313 39.64 
" style="fill: none; stroke: #000000; stroke-width: 0.8; stroke-linejoin: miter; stroke-linecap: square"/>
   </g>
   <g id="patch_4">
    <path d="M 849.180312 136.79 
L 849.180312 39.64 
" style="fill: none; stroke: #000000; stroke-width: 0.8; stroke-linejoin: miter; stroke-linecap: square"/>
   </g>
   <g id="patch_5">
    <path d="M 42.620313 136.79 
L 849.180313 136.79 
" style="fill: none; stroke: #000000; stroke-width: 0.8; stroke-linejoin: miter; stroke-linecap: square"/>
   </g>
   <g id="patch_6">
    <path d="M 42.620313 39.64 
L 849.180313 39.64 
" style="fill: none; stroke: #000000; stroke-width: 0.8; stroke-linejoin: miter; stroke-linecap: square"/>
   </g>
   <g id="line2d_12">
    <path d="M 79.282131 44.055909 
L 95.445658 46.041299 
L 116.017419 48.813863 
L 151.283297 53.844363 
L 273.244455 71.55108 
L 292.346805 74.562661 
L 305.571509 76.853787 
L 317.326802 79.115337 
L 327.612683 81.324158 
L 336.429152 83.420135 
L 345.245621 85.720605 
L 354.062091 88.230456 
L 364.347971 91.411416 
L 376.103264 95.322737 
L 395.205614 101.773991 
L 402.552672 103.987859 
L 409.89973 105.987209 
L 418.716199 108.174751 
L 429.00208 110.510836 
L 440.757372 112.944314 
L 452.512664 115.15611 
L 465.737368 117.407534 
L 478.962072 119.43279 
L 493.656188 121.443674 
L 508.350303 123.22653 
L 524.51383 124.949728 
L 540.677357 126.447314 
L 558.310296 127.848322 
L 575.943235 129.028931 
L 595.045585 130.08163 
L 614.147935 130.918606 
L 634.719697 131.597022 
L 655.291458 132.058843 
L 677.332632 132.324829 
L 699.373805 132.360619 
L 721.414978 132.167125 
L 743.456151 131.739479 
L 772.844382 131.08362 
L 787.538498 131.513283 
L 808.11026 132.005125 
L 812.518494 132.083337 
L 812.518494 132.083337 
" clip-path="url(#p0d103dbcc6)" style="fill: none; stroke-dasharray: 3.5,5.775; stroke-dashoffset: 0; stroke: #008000; stroke-opacity: 0.8; stroke-width: 3.5"/>
   </g>
   <g id="line2d_13">
    <path d="M 79.282131 44.055909 
L 105.731539 47.021338 
L 127.772712 49.27459 
L 149.813885 51.29688 
L 171.855058 53.088073 
L 195.365643 54.762772 
L 220.34564 56.308844 
L 248.264459 57.802032 
L 280.591513 59.293518 
L 320.265625 60.88904 
L 395.205614 63.621331 
L 452.512664 65.827116 
L 492.186776 67.568651 
L 527.452654 69.328465 
L 561.249119 71.229678 
L 596.514996 73.433705 
L 645.005578 76.715797 
L 690.557336 79.737537 
L 715.537332 81.172781 
L 736.109094 82.140955 
L 755.211444 82.815856 
L 772.844382 83.217482 
L 790.477321 83.391042 
L 808.11026 83.334522 
L 812.518494 83.285486 
L 812.518494 83.285486 
" clip-path="url(#p0d103dbcc6)" style="fill: none; stroke-dasharray: 12.95,5.6; stroke-dashoffset: 0; stroke: #ff0000; stroke-opacity: 0.8; stroke-width: 3.5"/>
   </g>
  </g>
  <g id="axes_2">
   <g id="patch_7">
    <path d="M 42.620313 248.24 
L 849.180312 248.24 
L 849.180312 151.09 
L 42.620313 151.09 
z
" style="fill: #ffffff"/>
   </g>
   <g id="line2d_14">
    <path d="M 79.282131 189.553929 
L 89.568012 188.874581 
L 101.323304 187.872076 
L 116.017419 186.398422 
L 139.528004 183.787079 
L 171.855058 180.231139 
L 190.957409 178.352369 
L 210.059759 176.69664 
L 229.162109 175.263797 
L 248.264459 174.051258 
L 267.366809 173.051751 
L 287.938571 172.199694 
L 309.979744 171.521519 
L 332.020917 171.063868 
L 355.531502 170.801926 
L 379.042087 170.756294 
L 404.022083 170.925297 
L 430.471491 171.325877 
L 458.390311 171.977099 
L 487.778542 172.897946 
L 521.575007 174.198307 
L 612.678523 177.87592 
L 631.780874 178.311631 
L 647.944401 178.465263 
L 662.638516 178.387764 
L 675.86322 178.105878 
L 689.087924 177.590062 
L 700.843216 176.908224 
L 712.598509 175.998659 
L 724.353801 174.868864 
L 736.109094 173.531606 
L 749.333798 171.802101 
L 764.027913 169.641706 
L 781.660852 166.800576 
L 812.518494 161.580985 
L 812.518494 161.580985 
" clip-path="url(#p25f8aa0b1f)" style="fill: none; stroke: #000000; stroke-opacity: 0.4; stroke-width: 6; stroke-linecap: square"/>
   </g>
   <g id="matplotlib.axis_3">
    <g id="xtick_7">
     <g id="line2d_15">
      <g>
       <use xlink:href="#m0dffb762fb" x="79.282131" y="248.24" style="stroke: #000000; stroke-width: 0.8"/>
      </g>
     </g>
     <g id="text_5">
      <!-- 0 -->
      <g transform="translate(76.100881 262.838437) scale(0.1 -0.1)">
       <use xlink:href="#DejaVuSans-30"/>
      </g>
     </g>
    </g>
    <g id="xtick_8">
     <g id="line2d_16">
      <g>
       <use xlink:href="#m0dffb762fb" x="225.929403" y="248.24" style="stroke: #000000; stroke-width: 0.8"/>
      </g>
     </g>
     <g id="text_6">
      <!-- 1 -->
      <g transform="translate(222.748153 262.838437) scale(0.1 -0.1)">
       <defs>
        <path id="DejaVuSans-31" d="M 794 531 
L 1825 531 
L 1825 4091 
L 703 3866 
L 703 4441 
L 1819 4666 
L 2450 4666 
L 2450 531 
L 3481 531 
L 3481 0 
L 794 0 
L 794 531 
z
" transform="scale(0.015625)"/>
       </defs>
       <use xlink:href="#DejaVuSans-31"/>
      </g>
     </g>
    </g>
    <g id="xtick_9">
     <g id="line2d_17">
      <g>
       <use xlink:href="#m0dffb762fb" x="372.576676" y="248.24" style="stroke: #000000; stroke-width: 0.8"/>
      </g>
     </g>
     <g id="text_7">
      <!-- 2 -->
      <g transform="translate(369.395426 262.838437) scale(0.1 -0.1)">
       <use xlink:href="#DejaVuSans-32"/>
      </g>
     </g>
    </g>
    <g id="xtick_10">
     <g id="line2d_18">
      <g>
       <use xlink:href="#m0dffb762fb" x="519.223949" y="248.24" style="stroke: #000000; stroke-width: 0.8"/>
      </g>
     </g>
     <g id="text_8">
      <!-- 3 -->
      <g transform="translate(516.042699 262.838437) scale(0.1 -0.1)">
       <defs>
        <path id="DejaVuSans-33" d="M 2597 2516 
Q 3050 2419 3304 2112 
Q 3559 1806 3559 1356 
Q 3559 666 3084 287 
Q 2609 -91 1734 -91 
Q 1441 -91 1130 -33 
Q 819 25 488 141 
L 488 750 
Q 750 597 1062 519 
Q 1375 441 1716 441 
Q 2309 441 2620 675 
Q 2931 909 2931 1356 
Q 2931 1769 2642 2001 
Q 2353 2234 1838 2234 
L 1294 2234 
L 1294 2753 
L 1863 2753 
Q 2328 2753 2575 2939 
Q 2822 3125 2822 3475 
Q 2822 3834 2567 4026 
Q 2313 4219 1838 4219 
Q 1578 4219 1281 4162 
Q 984 4106 628 3988 
L 628 4550 
Q 988 4650 1302 4700 
Q 1616 4750 1894 4750 
Q 2613 4750 3031 4423 
Q 3450 4097 3450 3541 
Q 3450 3153 3228 2886 
Q 3006 2619 2597 2516 
z
" transform="scale(0.015625)"/>
       </defs>
       <use xlink:href="#DejaVuSans-33"/>
      </g>
     </g>
    </g>
    <g id="xtick_11">
     <g id="line2d_19">
      <g>
       <use xlink:href="#m0dffb762fb" x="665.871222" y="248.24" style="stroke: #000000; stroke-width: 0.8"/>
      </g>
     </g>
     <g id="text_9">
      <!-- 4 -->
      <g transform="translate(662.689972 262.838437) scale(0.1 -0.1)">
       <use xlink:href="#DejaVuSans-34"/>
      </g>
     </g>
    </g>
    <g id="xtick_12">
     <g id="line2d_20">
      <g>
       <use xlink:href="#m0dffb762fb" x="812.518494" y="248.24" style="stroke: #000000; stroke-width: 0.8"/>
      </g>
     </g>
     <g id="text_10">
      <!-- 5 -->
      <g transform="translate(809.337244 262.838437) scale(0.1 -0.1)">
       <defs>
        <path id="DejaVuSans-35" d="M 691 4666 
L 3169 4666 
L 3169 4134 
L 1269 4134 
L 1269 2991 
Q 1406 3038 1543 3061 
Q 1681 3084 1819 3084 
Q 2600 3084 3056 2656 
Q 3513 2228 3513 1497 
Q 3513 744 3044 326 
Q 2575 -91 1722 -91 
Q 1428 -91 1123 -41 
Q 819 9 494 109 
L 494 744 
Q 775 591 1075 516 
Q 1375 441 1709 441 
Q 2250 441 2565 725 
Q 2881 1009 2881 1497 
Q 2881 1984 2565 2268 
Q 2250 2553 1709 2553 
Q 1456 2553 1204 2497 
Q 953 2441 691 2322 
L 691 4666 
z
" transform="scale(0.015625)"/>
       </defs>
       <use xlink:href="#DejaVuSans-35"/>
      </g>
     </g>
    </g>
    <g id="text_11">
     <!-- Time -->
     <g transform="translate(433.666719 276.516562) scale(0.1 -0.1)">
      <defs>
       <path id="DejaVuSans-54" d="M -19 4666 
L 3928 4666 
L 3928 4134 
L 2272 4134 
L 2272 0 
L 1638 0 
L 1638 4134 
L -19 4134 
L -19 4666 
z
" transform="scale(0.015625)"/>
       <path id="DejaVuSans-69" d="M 603 3500 
L 1178 3500 
L 1178 0 
L 603 0 
L 603 3500 
z
M 603 4863 
L 1178 4863 
L 1178 4134 
L 603 4134 
L 603 4863 
z
" transform="scale(0.015625)"/>
       <path id="DejaVuSans-6d" d="M 3328 2828 
Q 3544 3216 3844 3400 
Q 4144 3584 4550 3584 
Q 5097 3584 5394 3201 
Q 5691 2819 5691 2113 
L 5691 0 
L 5113 0 
L 5113 2094 
Q 5113 2597 4934 2840 
Q 4756 3084 4391 3084 
Q 3944 3084 3684 2787 
Q 3425 2491 3425 1978 
L 3425 0 
L 2847 0 
L 2847 2094 
Q 2847 2600 2669 2842 
Q 2491 3084 2119 3084 
Q 1678 3084 1418 2786 
Q 1159 2488 1159 1978 
L 1159 0 
L 581 0 
L 581 3500 
L 1159 3500 
L 1159 2956 
Q 1356 3278 1631 3431 
Q 1906 3584 2284 3584 
Q 2666 3584 2933 3390 
Q 3200 3197 3328 2828 
z
" transform="scale(0.015625)"/>
       <path id="DejaVuSans-65" d="M 3597 1894 
L 3597 1613 
L 953 1613 
Q 991 1019 1311 708 
Q 1631 397 2203 397 
Q 2534 397 2845 478 
Q 3156 559 3463 722 
L 3463 178 
Q 3153 47 2828 -22 
Q 2503 -91 2169 -91 
Q 1331 -91 842 396 
Q 353 884 353 1716 
Q 353 2575 817 3079 
Q 1281 3584 2069 3584 
Q 2775 3584 3186 3129 
Q 3597 2675 3597 1894 
z
M 3022 2063 
Q 3016 2534 2758 2815 
Q 2500 3097 2075 3097 
Q 1594 3097 1305 2825 
Q 1016 2553 972 2059 
L 3022 2063 
z
" transform="scale(0.015625)"/>
      </defs>
      <use xlink:href="#DejaVuSans-54"/>
      <use xlink:href="#DejaVuSans-69" transform="translate(57.958984 0)"/>
      <use xlink:href="#DejaVuSans-6d" transform="translate(85.742188 0)"/>
      <use xlink:href="#DejaVuSans-65" transform="translate(183.154297 0)"/>
     </g>
    </g>
   </g>
   <g id="matplotlib.axis_4">
    <g id="ytick_4">
     <g id="line2d_21">
      <g>
       <use xlink:href="#m3bd020f814" x="42.620313" y="243.176304" style="stroke: #000000; stroke-width: 0.8"/>
      </g>
     </g>
     <g id="text_12">
      <!-- −3 -->
      <g transform="translate(20.878125 246.975523) scale(0.1 -0.1)">
       <use xlink:href="#DejaVuSans-2212"/>
       <use xlink:href="#DejaVuSans-33" transform="translate(83.789062 0)"/>
      </g>
     </g>
    </g>
    <g id="ytick_5">
     <g id="line2d_22">
      <g>
       <use xlink:href="#m3bd020f814" x="42.620313" y="216.365116" style="stroke: #000000; stroke-width: 0.8"/>
      </g>
     </g>
     <g id="text_13">
      <!-- −2 -->
      <g transform="translate(20.878125 220.164335) scale(0.1 -0.1)">
       <use xlink:href="#DejaVuSans-2212"/>
       <use xlink:href="#DejaVuSans-32" transform="translate(83.789062 0)"/>
      </g>
     </g>
    </g>
    <g id="ytick_6">
     <g id="line2d_23">
      <g>
       <use xlink:href="#m3bd020f814" x="42.620313" y="189.553929" style="stroke: #000000; stroke-width: 0.8"/>
      </g>
     </g>
     <g id="text_14">
      <!-- −1 -->
      <g transform="translate(20.878125 193.353147) scale(0.1 -0.1)">
       <use xlink:href="#DejaVuSans-2212"/>
       <use xlink:href="#DejaVuSans-31" transform="translate(83.789062 0)"/>
      </g>
     </g>
    </g>
    <g id="ytick_7">
     <g id="line2d_24">
      <g>
       <use xlink:href="#m3bd020f814" x="42.620313" y="162.742741" style="stroke: #000000; stroke-width: 0.8"/>
      </g>
     </g>
     <g id="text_15">
      <!-- 0 -->
      <g transform="translate(29.257813 166.54196) scale(0.1 -0.1)">
       <use xlink:href="#DejaVuSans-30"/>
      </g>
     </g>
    </g>
    <g id="text_16">
     <!-- $x1$ -->
     <g transform="translate(14.798438 205.815) rotate(-90) scale(0.1 -0.1)">
      <use xlink:href="#DejaVuSans-Oblique-78" transform="translate(0 0.09375)"/>
      <use xlink:href="#DejaVuSans-31" transform="translate(59.179688 0.09375)"/>
     </g>
    </g>
   </g>
   <g id="line2d_25">
    <path d="M 79.282131 189.553929 
L 89.568012 189.431207 
L 101.323304 189.037377 
L 114.548008 188.361026 
L 133.650358 187.12953 
L 185.079762 183.680529 
L 205.651524 182.575185 
L 224.753874 181.757487 
L 243.856224 181.149223 
L 264.427986 180.72442 
L 284.999748 180.525387 
L 307.040921 180.540459 
L 330.551506 180.783931 
L 357.000914 181.287373 
L 389.327968 182.141349 
L 440.757372 183.763903 
L 501.003246 185.607024 
L 542.146769 186.639728 
L 583.290292 187.446021 
L 627.372639 188.081508 
L 678.802043 188.589063 
L 741.98674 188.976683 
L 812.518494 189.223594 
L 812.518494 189.223594 
" clip-path="url(#p25f8aa0b1f)" style="fill: none; stroke-dasharray: 22.4,5.6,3.5,5.6; stroke-dashoffset: 0; stroke: #0000ff; stroke-opacity: 0.8; stroke-width: 3.5"/>
   </g>
   <g id="patch_8">
    <path d="M 42.620313 248.24 
L 42.620313 151.09 
" style="fill: none; stroke: #000000; stroke-width: 0.8; stroke-linejoin: miter; stroke-linecap: square"/>
   </g>
   <g id="patch_9">
    <path d="M 849.180312 248.24 
L 849.180312 151.09 
" style="fill: none; stroke: #000000; stroke-width: 0.8; stroke-linejoin: miter; stroke-linecap: square"/>
   </g>
   <g id="patch_10">
    <path d="M 42.620313 248.24 
L 849.180313 248.24 
" style="fill: none; stroke: #000000; stroke-width: 0.8; stroke-linejoin: miter; stroke-linecap: square"/>
   </g>
   <g id="patch_11">
    <path d="M 42.620313 151.09 
L 849.180313 151.09 
" style="fill: none; stroke: #000000; stroke-width: 0.8; stroke-linejoin: miter; stroke-linecap: square"/>
   </g>
   <g id="line2d_26">
    <path d="M 79.282131 189.553929 
L 88.0986 191.352495 
L 95.445658 192.624353 
L 102.792715 193.672734 
L 110.139773 194.498917 
L 117.486831 195.118966 
L 126.3033 195.629324 
L 136.589181 195.975321 
L 149.813885 196.165179 
L 173.32447 196.213409 
L 237.978578 196.2903 
L 251.203282 196.534742 
L 260.019751 196.889831 
L 267.366809 197.370997 
L 274.713867 198.081867 
L 280.591513 198.859723 
L 286.469159 199.862313 
L 292.346805 201.126177 
L 296.75504 202.266693 
L 301.163275 203.587264 
L 305.571509 205.09863 
L 309.979744 206.808349 
L 314.387979 208.719182 
L 318.796213 210.828023 
L 324.67386 213.93025 
L 330.551506 217.322994 
L 337.898564 221.870398 
L 359.939737 235.802535 
L 364.347971 238.266353 
L 368.756206 240.457957 
L 371.695029 241.707376 
L 374.633852 242.730657 
L 377.572675 243.460054 
L 380.511499 243.81623 
L 381.98091 243.824091 
L 383.450322 243.701674 
L 384.919733 243.437771 
L 386.389145 243.016958 
L 387.858556 242.433977 
L 389.327968 241.685096 
L 390.797379 240.770217 
L 392.266791 239.69027 
L 395.205614 237.12282 
L 399.613849 232.676216 
L 404.022083 228.306656 
L 406.960906 225.738244 
L 409.89973 223.49175 
L 412.838553 221.52862 
L 415.777376 219.781616 
L 420.18561 217.444322 
L 426.063257 214.657816 
L 431.940903 212.114669 
L 439.287961 209.181239 
L 448.10443 205.94376 
L 456.920899 202.959542 
L 465.737368 200.190576 
L 476.023249 197.196435 
L 486.30913 194.426262 
L 498.064423 191.502181 
L 509.819715 188.806643 
L 523.044419 186.015308 
L 536.269123 183.44913 
L 550.963238 180.82871 
L 567.126765 178.188939 
L 584.759704 175.554797 
L 603.862054 172.939451 
L 625.903227 170.163985 
L 652.352635 167.079176 
L 690.557336 162.877731 
L 740.517328 157.351032 
L 756.680855 155.60006 
L 759.619679 155.505909 
L 761.08909 155.59923 
L 762.558502 155.869309 
L 764.027913 156.416255 
L 765.497325 157.365825 
L 766.966736 158.825837 
L 768.436148 160.795329 
L 771.374971 165.295743 
L 772.844382 167.13092 
L 774.313794 168.438633 
L 775.783206 169.260355 
L 777.252617 169.71638 
L 778.722029 169.927245 
L 781.660852 169.947317 
L 786.069086 169.585189 
L 800.763202 167.917805 
L 812.518494 166.586901 
L 812.518494 166.586901 
" clip-path="url(#p25f8aa0b1f)" style="fill: none; stroke-dasharray: 3.5,5.775; stroke-dashoffset: 0; stroke: #008000; stroke-opacity: 0.8; stroke-width: 3.5"/>
   </g>
   <g id="line2d_27">
    <path d="M 79.282131 189.553929 
L 89.568012 188.882077 
L 101.323304 187.885594 
L 116.017419 186.414055 
L 142.466827 183.496068 
L 171.855058 180.327375 
L 192.42682 178.336332 
L 211.52917 176.707799 
L 230.63152 175.304269 
L 249.733871 174.123649 
L 268.836221 173.156146 
L 289.407982 172.337273 
L 311.449156 171.696873 
L 333.490329 171.28127 
L 357.000914 171.064998 
L 380.511499 171.06459 
L 405.491495 171.283048 
L 431.940903 171.742257 
L 459.859722 172.460152 
L 489.247953 173.443632 
L 524.51383 174.860134 
L 593.576173 177.711932 
L 614.147935 178.299296 
L 631.780874 178.575563 
L 646.474989 178.589163 
L 659.699693 178.394324 
L 672.924397 177.972086 
L 684.679689 177.385 
L 696.434982 176.58466 
L 708.190274 175.564094 
L 719.945567 174.324153 
L 731.700859 172.874787 
L 744.925563 171.018898 
L 759.619679 168.728244 
L 780.19144 165.267049 
L 811.049083 160.057768 
L 812.518494 159.822483 
L 812.518494 159.822483 
" clip-path="url(#p25f8aa0b1f)" style="fill: none; stroke-dasharray: 12.95,5.6; stroke-dashoffset: 0; stroke: #ff0000; stroke-opacity: 0.8; stroke-width: 3.5"/>
   </g>
  </g>
  <g id="text_17">
   <!-- State Variable Simulation Comparison -->
   <g transform="translate(276.272812 20.1175) scale(0.16 -0.16)">
    <defs>
     <path id="DejaVuSans-53" d="M 3425 4513 
L 3425 3897 
Q 3066 4069 2747 4153 
Q 2428 4238 2131 4238 
Q 1616 4238 1336 4038 
Q 1056 3838 1056 3469 
Q 1056 3159 1242 3001 
Q 1428 2844 1947 2747 
L 2328 2669 
Q 3034 2534 3370 2195 
Q 3706 1856 3706 1288 
Q 3706 609 3251 259 
Q 2797 -91 1919 -91 
Q 1588 -91 1214 -16 
Q 841 59 441 206 
L 441 856 
Q 825 641 1194 531 
Q 1563 422 1919 422 
Q 2459 422 2753 634 
Q 3047 847 3047 1241 
Q 3047 1584 2836 1778 
Q 2625 1972 2144 2069 
L 1759 2144 
Q 1053 2284 737 2584 
Q 422 2884 422 3419 
Q 422 4038 858 4394 
Q 1294 4750 2059 4750 
Q 2388 4750 2728 4690 
Q 3069 4631 3425 4513 
z
" transform="scale(0.015625)"/>
     <path id="DejaVuSans-74" d="M 1172 4494 
L 1172 3500 
L 2356 3500 
L 2356 3053 
L 1172 3053 
L 1172 1153 
Q 1172 725 1289 603 
Q 1406 481 1766 481 
L 2356 481 
L 2356 0 
L 1766 0 
Q 1100 0 847 248 
Q 594 497 594 1153 
L 594 3053 
L 172 3053 
L 172 3500 
L 594 3500 
L 594 4494 
L 1172 4494 
z
" transform="scale(0.015625)"/>
     <path id="DejaVuSans-61" d="M 2194 1759 
Q 1497 1759 1228 1600 
Q 959 1441 959 1056 
Q 959 750 1161 570 
Q 1363 391 1709 391 
Q 2188 391 2477 730 
Q 2766 1069 2766 1631 
L 2766 1759 
L 2194 1759 
z
M 3341 1997 
L 3341 0 
L 2766 0 
L 2766 531 
Q 2569 213 2275 61 
Q 1981 -91 1556 -91 
Q 1019 -91 701 211 
Q 384 513 384 1019 
Q 384 1609 779 1909 
Q 1175 2209 1959 2209 
L 2766 2209 
L 2766 2266 
Q 2766 2663 2505 2880 
Q 2244 3097 1772 3097 
Q 1472 3097 1187 3025 
Q 903 2953 641 2809 
L 641 3341 
Q 956 3463 1253 3523 
Q 1550 3584 1831 3584 
Q 2591 3584 2966 3190 
Q 3341 2797 3341 1997 
z
" transform="scale(0.015625)"/>
     <path id="DejaVuSans-20" transform="scale(0.015625)"/>
     <path id="DejaVuSans-56" d="M 1831 0 
L 50 4666 
L 709 4666 
L 2188 738 
L 3669 4666 
L 4325 4666 
L 2547 0 
L 1831 0 
z
" transform="scale(0.015625)"/>
     <path id="DejaVuSans-72" d="M 2631 2963 
Q 2534 3019 2420 3045 
Q 2306 3072 2169 3072 
Q 1681 3072 1420 2755 
Q 1159 2438 1159 1844 
L 1159 0 
L 581 0 
L 581 3500 
L 1159 3500 
L 1159 2956 
Q 1341 3275 1631 3429 
Q 1922 3584 2338 3584 
Q 2397 3584 2469 3576 
Q 2541 3569 2628 3553 
L 2631 2963 
z
" transform="scale(0.015625)"/>
     <path id="DejaVuSans-62" d="M 3116 1747 
Q 3116 2381 2855 2742 
Q 2594 3103 2138 3103 
Q 1681 3103 1420 2742 
Q 1159 2381 1159 1747 
Q 1159 1113 1420 752 
Q 1681 391 2138 391 
Q 2594 391 2855 752 
Q 3116 1113 3116 1747 
z
M 1159 2969 
Q 1341 3281 1617 3432 
Q 1894 3584 2278 3584 
Q 2916 3584 3314 3078 
Q 3713 2572 3713 1747 
Q 3713 922 3314 415 
Q 2916 -91 2278 -91 
Q 1894 -91 1617 61 
Q 1341 213 1159 525 
L 1159 0 
L 581 0 
L 581 4863 
L 1159 4863 
L 1159 2969 
z
" transform="scale(0.015625)"/>
     <path id="DejaVuSans-6c" d="M 603 4863 
L 1178 4863 
L 1178 0 
L 603 0 
L 603 4863 
z
" transform="scale(0.015625)"/>
     <path id="DejaVuSans-75" d="M 544 1381 
L 544 3500 
L 1119 3500 
L 1119 1403 
Q 1119 906 1312 657 
Q 1506 409 1894 409 
Q 2359 409 2629 706 
Q 2900 1003 2900 1516 
L 2900 3500 
L 3475 3500 
L 3475 0 
L 2900 0 
L 2900 538 
Q 2691 219 2414 64 
Q 2138 -91 1772 -91 
Q 1169 -91 856 284 
Q 544 659 544 1381 
z
M 1991 3584 
L 1991 3584 
z
" transform="scale(0.015625)"/>
     <path id="DejaVuSans-6f" d="M 1959 3097 
Q 1497 3097 1228 2736 
Q 959 2375 959 1747 
Q 959 1119 1226 758 
Q 1494 397 1959 397 
Q 2419 397 2687 759 
Q 2956 1122 2956 1747 
Q 2956 2369 2687 2733 
Q 2419 3097 1959 3097 
z
M 1959 3584 
Q 2709 3584 3137 3096 
Q 3566 2609 3566 1747 
Q 3566 888 3137 398 
Q 2709 -91 1959 -91 
Q 1206 -91 779 398 
Q 353 888 353 1747 
Q 353 2609 779 3096 
Q 1206 3584 1959 3584 
z
" transform="scale(0.015625)"/>
     <path id="DejaVuSans-6e" d="M 3513 2113 
L 3513 0 
L 2938 0 
L 2938 2094 
Q 2938 2591 2744 2837 
Q 2550 3084 2163 3084 
Q 1697 3084 1428 2787 
Q 1159 2491 1159 1978 
L 1159 0 
L 581 0 
L 581 3500 
L 1159 3500 
L 1159 2956 
Q 1366 3272 1645 3428 
Q 1925 3584 2291 3584 
Q 2894 3584 3203 3211 
Q 3513 2838 3513 2113 
z
" transform="scale(0.015625)"/>
     <path id="DejaVuSans-43" d="M 4122 4306 
L 4122 3641 
Q 3803 3938 3442 4084 
Q 3081 4231 2675 4231 
Q 1875 4231 1450 3742 
Q 1025 3253 1025 2328 
Q 1025 1406 1450 917 
Q 1875 428 2675 428 
Q 3081 428 3442 575 
Q 3803 722 4122 1019 
L 4122 359 
Q 3791 134 3420 21 
Q 3050 -91 2638 -91 
Q 1578 -91 968 557 
Q 359 1206 359 2328 
Q 359 3453 968 4101 
Q 1578 4750 2638 4750 
Q 3056 4750 3426 4639 
Q 3797 4528 4122 4306 
z
" transform="scale(0.015625)"/>
     <path id="DejaVuSans-70" d="M 1159 525 
L 1159 -1331 
L 581 -1331 
L 581 3500 
L 1159 3500 
L 1159 2969 
Q 1341 3281 1617 3432 
Q 1894 3584 2278 3584 
Q 2916 3584 3314 3078 
Q 3713 2572 3713 1747 
Q 3713 922 3314 415 
Q 2916 -91 2278 -91 
Q 1894 -91 1617 61 
Q 1341 213 1159 525 
z
M 3116 1747 
Q 3116 2381 2855 2742 
Q 2594 3103 2138 3103 
Q 1681 3103 1420 2742 
Q 1159 2381 1159 1747 
Q 1159 1113 1420 752 
Q 1681 391 2138 391 
Q 2594 391 2855 752 
Q 3116 1113 3116 1747 
z
" transform="scale(0.015625)"/>
     <path id="DejaVuSans-73" d="M 2834 3397 
L 2834 2853 
Q 2591 2978 2328 3040 
Q 2066 3103 1784 3103 
Q 1356 3103 1142 2972 
Q 928 2841 928 2578 
Q 928 2378 1081 2264 
Q 1234 2150 1697 2047 
L 1894 2003 
Q 2506 1872 2764 1633 
Q 3022 1394 3022 966 
Q 3022 478 2636 193 
Q 2250 -91 1575 -91 
Q 1294 -91 989 -36 
Q 684 19 347 128 
L 347 722 
Q 666 556 975 473 
Q 1284 391 1588 391 
Q 1994 391 2212 530 
Q 2431 669 2431 922 
Q 2431 1156 2273 1281 
Q 2116 1406 1581 1522 
L 1381 1569 
Q 847 1681 609 1914 
Q 372 2147 372 2553 
Q 372 3047 722 3315 
Q 1072 3584 1716 3584 
Q 2034 3584 2315 3537 
Q 2597 3491 2834 3397 
z
" transform="scale(0.015625)"/>
    </defs>
    <use xlink:href="#DejaVuSans-53"/>
    <use xlink:href="#DejaVuSans-74" transform="translate(63.476562 0)"/>
    <use xlink:href="#DejaVuSans-61" transform="translate(102.685547 0)"/>
    <use xlink:href="#DejaVuSans-74" transform="translate(163.964844 0)"/>
    <use xlink:href="#DejaVuSans-65" transform="translate(203.173828 0)"/>
    <use xlink:href="#DejaVuSans-20" transform="translate(264.697266 0)"/>
    <use xlink:href="#DejaVuSans-56" transform="translate(296.484375 0)"/>
    <use xlink:href="#DejaVuSans-61" transform="translate(357.142578 0)"/>
    <use xlink:href="#DejaVuSans-72" transform="translate(418.421875 0)"/>
    <use xlink:href="#DejaVuSans-69" transform="translate(459.535156 0)"/>
    <use xlink:href="#DejaVuSans-61" transform="translate(487.318359 0)"/>
    <use xlink:href="#DejaVuSans-62" transform="translate(548.597656 0)"/>
    <use xlink:href="#DejaVuSans-6c" transform="translate(612.074219 0)"/>
    <use xlink:href="#DejaVuSans-65" transform="translate(639.857422 0)"/>
    <use xlink:href="#DejaVuSans-20" transform="translate(701.380859 0)"/>
    <use xlink:href="#DejaVuSans-53" transform="translate(733.167969 0)"/>
    <use xlink:href="#DejaVuSans-69" transform="translate(796.644531 0)"/>
    <use xlink:href="#DejaVuSans-6d" transform="translate(824.427734 0)"/>
    <use xlink:href="#DejaVuSans-75" transform="translate(921.839844 0)"/>
    <use xlink:href="#DejaVuSans-6c" transform="translate(985.21875 0)"/>
    <use xlink:href="#DejaVuSans-61" transform="translate(1013.001953 0)"/>
    <use xlink:href="#DejaVuSans-74" transform="translate(1074.28125 0)"/>
    <use xlink:href="#DejaVuSans-69" transform="translate(1113.490234 0)"/>
    <use xlink:href="#DejaVuSans-6f" transform="translate(1141.273438 0)"/>
    <use xlink:href="#DejaVuSans-6e" transform="translate(1202.455078 0)"/>
    <use xlink:href="#DejaVuSans-20" transform="translate(1265.833984 0)"/>
    <use xlink:href="#DejaVuSans-43" transform="translate(1297.621094 0)"/>
    <use xlink:href="#DejaVuSans-6f" transform="translate(1367.445312 0)"/>
    <use xlink:href="#DejaVuSans-6d" transform="translate(1428.626953 0)"/>
    <use xlink:href="#DejaVuSans-70" transform="translate(1526.039062 0)"/>
    <use xlink:href="#DejaVuSans-61" transform="translate(1589.515625 0)"/>
    <use xlink:href="#DejaVuSans-72" transform="translate(1650.794922 0)"/>
    <use xlink:href="#DejaVuSans-69" transform="translate(1691.908203 0)"/>
    <use xlink:href="#DejaVuSans-73" transform="translate(1719.691406 0)"/>
    <use xlink:href="#DejaVuSans-6f" transform="translate(1771.791016 0)"/>
    <use xlink:href="#DejaVuSans-6e" transform="translate(1832.972656 0)"/>
   </g>
  </g>
  <g id="legend_1">
   <g id="patch_12">
    <path d="M 744.108437 66.7125 
L 855.180312 66.7125 
Q 857.180312 66.7125 857.180312 64.7125 
L 857.180312 7 
Q 857.180312 5 855.180312 5 
L 744.108437 5 
Q 742.108437 5 742.108437 7 
L 742.108437 64.7125 
Q 742.108437 66.7125 744.108437 66.7125 
z
" style="fill: #ffffff; opacity: 0.5; stroke: #cccccc; stroke-linejoin: miter"/>
   </g>
   <g id="line2d_28">
    <path d="M 746.108437 13.098437 
L 756.108437 13.098437 
L 766.108437 13.098437 
" style="fill: none; stroke: #000000; stroke-opacity: 0.4; stroke-width: 6; stroke-linecap: square"/>
   </g>
   <g id="text_18">
    <!-- True Trajectory -->
    <g transform="translate(774.108437 16.598437) scale(0.1 -0.1)">
     <defs>
      <path id="DejaVuSans-6a" d="M 603 3500 
L 1178 3500 
L 1178 -63 
Q 1178 -731 923 -1031 
Q 669 -1331 103 -1331 
L -116 -1331 
L -116 -844 
L 38 -844 
Q 366 -844 484 -692 
Q 603 -541 603 -63 
L 603 3500 
z
M 603 4863 
L 1178 4863 
L 1178 4134 
L 603 4134 
L 603 4863 
z
" transform="scale(0.015625)"/>
      <path id="DejaVuSans-63" d="M 3122 3366 
L 3122 2828 
Q 2878 2963 2633 3030 
Q 2388 3097 2138 3097 
Q 1578 3097 1268 2742 
Q 959 2388 959 1747 
Q 959 1106 1268 751 
Q 1578 397 2138 397 
Q 2388 397 2633 464 
Q 2878 531 3122 666 
L 3122 134 
Q 2881 22 2623 -34 
Q 2366 -91 2075 -91 
Q 1284 -91 818 406 
Q 353 903 353 1747 
Q 353 2603 823 3093 
Q 1294 3584 2113 3584 
Q 2378 3584 2631 3529 
Q 2884 3475 3122 3366 
z
" transform="scale(0.015625)"/>
      <path id="DejaVuSans-79" d="M 2059 -325 
Q 1816 -950 1584 -1140 
Q 1353 -1331 966 -1331 
L 506 -1331 
L 506 -850 
L 844 -850 
Q 1081 -850 1212 -737 
Q 1344 -625 1503 -206 
L 1606 56 
L 191 3500 
L 800 3500 
L 1894 763 
L 2988 3500 
L 3597 3500 
L 2059 -325 
z
" transform="scale(0.015625)"/>
     </defs>
     <use xlink:href="#DejaVuSans-54"/>
     <use xlink:href="#DejaVuSans-72" transform="translate(46.333984 0)"/>
     <use xlink:href="#DejaVuSans-75" transform="translate(87.447266 0)"/>
     <use xlink:href="#DejaVuSans-65" transform="translate(150.826172 0)"/>
     <use xlink:href="#DejaVuSans-20" transform="translate(212.349609 0)"/>
     <use xlink:href="#DejaVuSans-54" transform="translate(244.136719 0)"/>
     <use xlink:href="#DejaVuSans-72" transform="translate(290.470703 0)"/>
     <use xlink:href="#DejaVuSans-61" transform="translate(331.583984 0)"/>
     <use xlink:href="#DejaVuSans-6a" transform="translate(392.863281 0)"/>
     <use xlink:href="#DejaVuSans-65" transform="translate(420.646484 0)"/>
     <use xlink:href="#DejaVuSans-63" transform="translate(482.169922 0)"/>
     <use xlink:href="#DejaVuSans-74" transform="translate(537.150391 0)"/>
     <use xlink:href="#DejaVuSans-6f" transform="translate(576.359375 0)"/>
     <use xlink:href="#DejaVuSans-72" transform="translate(637.541016 0)"/>
     <use xlink:href="#DejaVuSans-79" transform="translate(678.654297 0)"/>
    </g>
   </g>
   <g id="line2d_29">
    <path d="M 746.108437 27.776562 
L 756.108437 27.776562 
L 766.108437 27.776562 
" style="fill: none; stroke-dasharray: 12.95,5.6; stroke-dashoffset: 0; stroke: #ff0000; stroke-opacity: 0.8; stroke-width: 3.5"/>
   </g>
   <g id="text_19">
    <!-- AutoSINDy -->
    <g transform="translate(774.108437 31.276562) scale(0.1 -0.1)">
     <defs>
      <path id="DejaVuSans-41" d="M 2188 4044 
L 1331 1722 
L 3047 1722 
L 2188 4044 
z
M 1831 4666 
L 2547 4666 
L 4325 0 
L 3669 0 
L 3244 1197 
L 1141 1197 
L 716 0 
L 50 0 
L 1831 4666 
z
" transform="scale(0.015625)"/>
      <path id="DejaVuSans-49" d="M 628 4666 
L 1259 4666 
L 1259 0 
L 628 0 
L 628 4666 
z
" transform="scale(0.015625)"/>
      <path id="DejaVuSans-4e" d="M 628 4666 
L 1478 4666 
L 3547 763 
L 3547 4666 
L 4159 4666 
L 4159 0 
L 3309 0 
L 1241 3903 
L 1241 0 
L 628 0 
L 628 4666 
z
" transform="scale(0.015625)"/>
      <path id="DejaVuSans-44" d="M 1259 4147 
L 1259 519 
L 2022 519 
Q 2988 519 3436 956 
Q 3884 1394 3884 2338 
Q 3884 3275 3436 3711 
Q 2988 4147 2022 4147 
L 1259 4147 
z
M 628 4666 
L 1925 4666 
Q 3281 4666 3915 4102 
Q 4550 3538 4550 2338 
Q 4550 1131 3912 565 
Q 3275 0 1925 0 
L 628 0 
L 628 4666 
z
" transform="scale(0.015625)"/>
     </defs>
     <use xlink:href="#DejaVuSans-41"/>
     <use xlink:href="#DejaVuSans-75" transform="translate(68.408203 0)"/>
     <use xlink:href="#DejaVuSans-74" transform="translate(131.787109 0)"/>
     <use xlink:href="#DejaVuSans-6f" transform="translate(170.996094 0)"/>
     <use xlink:href="#DejaVuSans-53" transform="translate(232.177734 0)"/>
     <use xlink:href="#DejaVuSans-49" transform="translate(295.654297 0)"/>
     <use xlink:href="#DejaVuSans-4e" transform="translate(325.146484 0)"/>
     <use xlink:href="#DejaVuSans-44" transform="translate(399.951172 0)"/>
     <use xlink:href="#DejaVuSans-79" transform="translate(476.953125 0)"/>
    </g>
   </g>
   <g id="line2d_30">
    <path d="M 746.108437 42.454687 
L 756.108437 42.454687 
L 766.108437 42.454687 
" style="fill: none; stroke-dasharray: 3.5,5.775; stroke-dashoffset: 0; stroke: #008000; stroke-opacity: 0.8; stroke-width: 3.5"/>
   </g>
   <g id="text_20">
    <!-- Standard SINDy -->
    <g transform="translate(774.108437 45.954687) scale(0.1 -0.1)">
     <defs>
      <path id="DejaVuSans-64" d="M 2906 2969 
L 2906 4863 
L 3481 4863 
L 3481 0 
L 2906 0 
L 2906 525 
Q 2725 213 2448 61 
Q 2172 -91 1784 -91 
Q 1150 -91 751 415 
Q 353 922 353 1747 
Q 353 2572 751 3078 
Q 1150 3584 1784 3584 
Q 2172 3584 2448 3432 
Q 2725 3281 2906 2969 
z
M 947 1747 
Q 947 1113 1208 752 
Q 1469 391 1925 391 
Q 2381 391 2643 752 
Q 2906 1113 2906 1747 
Q 2906 2381 2643 2742 
Q 2381 3103 1925 3103 
Q 1469 3103 1208 2742 
Q 947 2381 947 1747 
z
" transform="scale(0.015625)"/>
     </defs>
     <use xlink:href="#DejaVuSans-53"/>
     <use xlink:href="#DejaVuSans-74" transform="translate(63.476562 0)"/>
     <use xlink:href="#DejaVuSans-61" transform="translate(102.685547 0)"/>
     <use xlink:href="#DejaVuSans-6e" transform="translate(163.964844 0)"/>
     <use xlink:href="#DejaVuSans-64" transform="translate(227.34375 0)"/>
     <use xlink:href="#DejaVuSans-61" transform="translate(290.820312 0)"/>
     <use xlink:href="#DejaVuSans-72" transform="translate(352.099609 0)"/>
     <use xlink:href="#DejaVuSans-64" transform="translate(391.462891 0)"/>
     <use xlink:href="#DejaVuSans-20" transform="translate(454.939453 0)"/>
     <use xlink:href="#DejaVuSans-53" transform="translate(486.726562 0)"/>
     <use xlink:href="#DejaVuSans-49" transform="translate(550.203125 0)"/>
     <use xlink:href="#DejaVuSans-4e" transform="translate(579.695312 0)"/>
     <use xlink:href="#DejaVuSans-44" transform="translate(654.5 0)"/>
     <use xlink:href="#DejaVuSans-79" transform="translate(731.501953 0)"/>
    </g>
   </g>
   <g id="line2d_31">
    <path d="M 746.108437 57.132812 
L 756.108437 57.132812 
L 766.108437 57.132812 
" style="fill: none; stroke-dasharray: 22.4,5.6,3.5,5.6; stroke-dashoffset: 0; stroke: #0000ff; stroke-opacity: 0.8; stroke-width: 3.5"/>
   </g>
   <g id="text_21">
    <!-- Standard PySR -->
    <g transform="translate(774.108437 60.632812) scale(0.1 -0.1)">
     <defs>
      <path id="DejaVuSans-50" d="M 1259 4147 
L 1259 2394 
L 2053 2394 
Q 2494 2394 2734 2622 
Q 2975 2850 2975 3272 
Q 2975 3691 2734 3919 
Q 2494 4147 2053 4147 
L 1259 4147 
z
M 628 4666 
L 2053 4666 
Q 2838 4666 3239 4311 
Q 3641 3956 3641 3272 
Q 3641 2581 3239 2228 
Q 2838 1875 2053 1875 
L 1259 1875 
L 1259 0 
L 628 0 
L 628 4666 
z
" transform="scale(0.015625)"/>
      <path id="DejaVuSans-52" d="M 2841 2188 
Q 3044 2119 3236 1894 
Q 3428 1669 3622 1275 
L 4263 0 
L 3584 0 
L 2988 1197 
Q 2756 1666 2539 1819 
Q 2322 1972 1947 1972 
L 1259 1972 
L 1259 0 
L 628 0 
L 628 4666 
L 2053 4666 
Q 2853 4666 3247 4331 
Q 3641 3997 3641 3322 
Q 3641 2881 3436 2590 
Q 3231 2300 2841 2188 
z
M 1259 4147 
L 1259 2491 
L 2053 2491 
Q 2509 2491 2742 2702 
Q 2975 2913 2975 3322 
Q 2975 3731 2742 3939 
Q 2509 4147 2053 4147 
L 1259 4147 
z
" transform="scale(0.015625)"/>
     </defs>
     <use xlink:href="#DejaVuSans-53"/>
     <use xlink:href="#DejaVuSans-74" transform="translate(63.476562 0)"/>
     <use xlink:href="#DejaVuSans-61" transform="translate(102.685547 0)"/>
     <use xlink:href="#DejaVuSans-6e" transform="translate(163.964844 0)"/>
     <use xlink:href="#DejaVuSans-64" transform="translate(227.34375 0)"/>
     <use xlink:href="#DejaVuSans-61" transform="translate(290.820312 0)"/>
     <use xlink:href="#DejaVuSans-72" transform="translate(352.099609 0)"/>
     <use xlink:href="#DejaVuSans-64" transform="translate(391.462891 0)"/>
     <use xlink:href="#DejaVuSans-20" transform="translate(454.939453 0)"/>
     <use xlink:href="#DejaVuSans-50" transform="translate(486.726562 0)"/>
     <use xlink:href="#DejaVuSans-79" transform="translate(547.029297 0)"/>
     <use xlink:href="#DejaVuSans-53" transform="translate(606.208984 0)"/>
     <use xlink:href="#DejaVuSans-52" transform="translate(669.685547 0)"/>
    </g>
   </g>
  </g>
 </g>
 <defs>
  <clipPath id="p0d103dbcc6">
   <rect x="42.620313" y="39.64" width="806.56" height="97.15"/>
  </clipPath>
  <clipPath id="p25f8aa0b1f">
   <rect x="42.620313" y="151.09" width="806.56" height="97.15"/>
  </clipPath>
 </defs>
</svg>
