<?xml version="1.0" encoding="utf-8" standalone="no"?>
<!DOCTYPE svg PUBLIC "-//W3C//DTD SVG 1.1//EN"
  "http://www.w3.org/Graphics/SVG/1.1/DTD/svg11.dtd">
<svg xmlns:xlink="http://www.w3.org/1999/xlink" width="862.210938pt" height="285.79625pt" viewBox="0 0 862.210938 285.79625" xmlns="http://www.w3.org/2000/svg" version="1.1">
 <metadata>
  <rdf:RDF xmlns:dc="http://purl.org/dc/elements/1.1/" xmlns:cc="http://creativecommons.org/ns#" xmlns:rdf="http://www.w3.org/1999/02/22-rdf-syntax-ns#">
   <cc:Work>
    <dc:type rdf:resource="http://purl.org/dc/dcmitype/StillImage"/>
    <dc:date>2026-04-06T11:41:46.156804</dc:date>
    <dc:format>image/svg+xml</dc:format>
    <dc:creator>
     <cc:Agent>
      <dc:title>Matplotlib v3.10.7, https://matplotlib.org/</dc:title>
     </cc:Agent>
    </dc:creator>
   </cc:Work>
  </rdf:RDF>
 </metadata>
 <defs>
  <style type="text/css">*{stroke-linejoin: round; stroke-linecap: butt}</style>
 </defs>
 <g id="figure_1">
  <g id="patch_1">
   <path d="M -0 285.79625 
L 862.210938 285.79625 
L 862.210938 0 
L -0 0 
z
" style="fill: #ffffff"/>
  </g>
  <g id="axes_1">
   <g id="patch_2">
    <path d="M 52.160938 136.79 
L 849.210937 136.79 
L 849.210937 39.64 
L 52.160938 39.64 
z
" style="fill: #ffffff"/>
   </g>
   <g id="line2d_1">
    <path d="M 88.390483 44.341312 
L 92.746741 44.111579 
L 97.102999 44.081736 
L 101.459257 44.250743 
L 105.815515 44.616781 
L 110.171773 45.177285 
L 114.528031 45.928792 
L 118.884289 46.866937 
L 123.240547 47.986456 
L 129.048891 49.750503 
L 134.857235 51.80883 
L 140.665579 54.141607 
L 146.473923 56.727956 
L 152.282267 59.544037 
L 159.542696 63.348324 
L 166.803126 67.419928 
L 175.515642 72.582407 
L 187.13233 79.773461 
L 211.817792 95.183193 
L 220.530308 100.342285 
L 227.790738 104.419616 
L 235.051168 108.244436 
L 240.859512 111.093455 
L 246.667856 113.733298 
L 252.4762 116.145788 
L 258.284544 118.31455 
L 264.092888 120.22568 
L 269.901232 121.867698 
L 275.709576 123.228162 
L 281.51792 124.297207 
L 285.874178 124.903407 
L 290.230436 125.339749 
L 294.586694 125.605209 
L 298.942952 125.699659 
L 303.299209 125.623869 
L 307.655467 125.379507 
L 313.463811 124.796029 
L 319.272155 123.926087 
L 325.080499 122.780418 
L 330.888843 121.368665 
L 336.697187 119.704079 
L 342.505531 117.802022 
L 348.313875 115.679525 
L 354.122219 113.35529 
L 361.382649 110.197493 
L 368.643079 106.79989 
L 377.355595 102.473436 
L 388.972283 96.423318 
L 418.014003 81.116531 
L 426.726519 76.812088 
L 435.439035 72.774366 
L 442.699465 69.662673 
L 449.959895 66.818605 
L 455.768238 64.755894 
L 461.576582 62.899321 
L 467.384926 61.262541 
L 473.19327 59.856944 
L 479.001614 58.691662 
L 484.809958 57.773565 
L 490.618302 57.107262 
L 496.426646 56.695102 
L 502.23499 56.537172 
L 508.043334 56.631803 
L 513.851678 56.97679 
L 519.660022 57.568094 
L 525.468366 58.399662 
L 531.27671 59.463424 
L 537.085054 60.7493 
L 542.893398 62.245195 
L 548.701742 63.937001 
L 555.962172 66.302508 
L 563.222602 68.912878 
L 571.935118 72.315176 
L 582.09972 76.578588 
L 595.168494 82.352466 
L 621.306041 93.986721 
L 631.470643 98.22272 
L 640.183159 101.607976 
L 647.443589 104.210479 
L 654.704019 106.581146 
L 661.964449 108.69324 
L 667.772793 110.18142 
L 673.581137 111.479912 
L 679.389481 112.580754 
L 685.197825 113.477677 
L 691.006169 114.166239 
L 696.814513 114.643171 
L 702.622857 114.905481 
L 708.431201 114.952026 
L 714.239545 114.783616 
L 720.047889 114.40302 
L 725.856233 113.814958 
L 731.664577 113.02611 
L 737.472921 112.045107 
L 744.733351 110.564952 
L 751.99378 108.826104 
L 759.25421 106.852123 
L 766.51464 104.669388 
L 775.227156 101.817048 
L 785.391758 98.237179 
L 798.460532 93.376791 
L 812.981392 87.869915 
L 812.981392 87.869915 
" clip-path="url(#p4889ffee66)" style="fill: none; stroke: #000000; stroke-opacity: 0.4; stroke-width: 6; stroke-linecap: square"/>
   </g>
   <g id="matplotlib.axis_1">
    <g id="xtick_1">
     <g id="line2d_2">
      <defs>
       <path id="m02f3e93602" d="M 0 0 
L 0 3.5 
" style="stroke: #000000; stroke-width: 0.8"/>
      </defs>
      <g>
       <use xlink:href="#m02f3e93602" x="88.390483" y="136.79" style="stroke: #000000; stroke-width: 0.8"/>
      </g>
     </g>
    </g>
    <g id="xtick_2">
     <g id="line2d_3">
      <g>
       <use xlink:href="#m02f3e93602" x="233.308665" y="136.79" style="stroke: #000000; stroke-width: 0.8"/>
      </g>
     </g>
    </g>
    <g id="xtick_3">
     <g id="line2d_4">
      <g>
       <use xlink:href="#m02f3e93602" x="378.226847" y="136.79" style="stroke: #000000; stroke-width: 0.8"/>
      </g>
     </g>
    </g>
    <g id="xtick_4">
     <g id="line2d_5">
      <g>
       <use xlink:href="#m02f3e93602" x="523.145028" y="136.79" style="stroke: #000000; stroke-width: 0.8"/>
      </g>
     </g>
    </g>
    <g id="xtick_5">
     <g id="line2d_6">
      <g>
       <use xlink:href="#m02f3e93602" x="668.06321" y="136.79" style="stroke: #000000; stroke-width: 0.8"/>
      </g>
     </g>
    </g>
    <g id="xtick_6">
     <g id="line2d_7">
      <g>
       <use xlink:href="#m02f3e93602" x="812.981392" y="136.79" style="stroke: #000000; stroke-width: 0.8"/>
      </g>
     </g>
    </g>
   </g>
   <g id="matplotlib.axis_2">
    <g id="ytick_1">
     <g id="line2d_8">
      <defs>
       <path id="mcfbf89079c" d="M 0 0 
L -3.5 0 
" style="stroke: #000000; stroke-width: 0.8"/>
      </defs>
      <g>
       <use xlink:href="#mcfbf89079c" x="52.160938" y="115.645676" style="stroke: #000000; stroke-width: 0.8"/>
      </g>
     </g>
     <g id="text_1">
      <!-- −0.5 -->
      <g transform="translate(20.878125 119.444894) scale(0.1 -0.1)">
       <defs>
        <path id="DejaVuSans-2212" d="M 678 2272 
L 4684 2272 
L 4684 1741 
L 678 1741 
L 678 2272 
z
" transform="scale(0.015625)"/>
        <path id="DejaVuSans-30" d="M 2034 4250 
Q 1547 4250 1301 3770 
Q 1056 3291 1056 2328 
Q 1056 1369 1301 889 
Q 1547 409 2034 409 
Q 2525 409 2770 889 
Q 3016 1369 3016 2328 
Q 3016 3291 2770 3770 
Q 2525 4250 2034 4250 
z
M 2034 4750 
Q 2819 4750 3233 4129 
Q 3647 3509 3647 2328 
Q 3647 1150 3233 529 
Q 2819 -91 2034 -91 
Q 1250 -91 836 529 
Q 422 1150 422 2328 
Q 422 3509 836 4129 
Q 1250 4750 2034 4750 
z
" transform="scale(0.015625)"/>
        <path id="DejaVuSans-2e" d="M 684 794 
L 1344 794 
L 1344 0 
L 684 0 
L 684 794 
z
" transform="scale(0.015625)"/>
        <path id="DejaVuSans-35" d="M 691 4666 
L 3169 4666 
L 3169 4134 
L 1269 4134 
L 1269 2991 
Q 1406 3038 1543 3061 
Q 1681 3084 1819 3084 
Q 2600 3084 3056 2656 
Q 3513 2228 3513 1497 
Q 3513 744 3044 326 
Q 2575 -91 1722 -91 
Q 1428 -91 1123 -41 
Q 819 9 494 109 
L 494 744 
Q 775 591 1075 516 
Q 1375 441 1709 441 
Q 2250 441 2565 725 
Q 2881 1009 2881 1497 
Q 2881 1984 2565 2268 
Q 2250 2553 1709 2553 
Q 1456 2553 1204 2497 
Q 953 2441 691 2322 
L 691 4666 
z
" transform="scale(0.015625)"/>
       </defs>
       <use xlink:href="#DejaVuSans-2212"/>
       <use xlink:href="#DejaVuSans-30" transform="translate(83.789062 0)"/>
       <use xlink:href="#DejaVuSans-2e" transform="translate(147.412109 0)"/>
       <use xlink:href="#DejaVuSans-35" transform="translate(179.199219 0)"/>
      </g>
     </g>
    </g>
    <g id="ytick_2">
     <g id="line2d_9">
      <g>
       <use xlink:href="#mcfbf89079c" x="52.160938" y="88.22092" style="stroke: #000000; stroke-width: 0.8"/>
      </g>
     </g>
     <g id="text_2">
      <!-- 0.0 -->
      <g transform="translate(29.257812 92.020139) scale(0.1 -0.1)">
       <use xlink:href="#DejaVuSans-30"/>
       <use xlink:href="#DejaVuSans-2e" transform="translate(63.623047 0)"/>
       <use xlink:href="#DejaVuSans-30" transform="translate(95.410156 0)"/>
      </g>
     </g>
    </g>
    <g id="ytick_3">
     <g id="line2d_10">
      <g>
       <use xlink:href="#mcfbf89079c" x="52.160938" y="60.796165" style="stroke: #000000; stroke-width: 0.8"/>
      </g>
     </g>
     <g id="text_3">
      <!-- 0.5 -->
      <g transform="translate(29.257812 64.595384) scale(0.1 -0.1)">
       <use xlink:href="#DejaVuSans-30"/>
       <use xlink:href="#DejaVuSans-2e" transform="translate(63.623047 0)"/>
       <use xlink:href="#DejaVuSans-35" transform="translate(95.410156 0)"/>
      </g>
     </g>
    </g>
    <g id="text_4">
     <!-- $x0$ -->
     <g transform="translate(14.798438 94.365) rotate(-90) scale(0.1 -0.1)">
      <defs>
       <path id="DejaVuSans-Oblique-78" d="M 3841 3500 
L 2234 1784 
L 3219 0 
L 2559 0 
L 1819 1388 
L 531 0 
L -166 0 
L 1556 1844 
L 641 3500 
L 1300 3500 
L 1972 2234 
L 3144 3500 
L 3841 3500 
z
" transform="scale(0.015625)"/>
      </defs>
      <use xlink:href="#DejaVuSans-Oblique-78" transform="translate(0 0.78125)"/>
      <use xlink:href="#DejaVuSans-30" transform="translate(59.179688 0.78125)"/>
     </g>
    </g>
   </g>
   <g id="line2d_11">
    <path d="M 88.390483 44.341312 
L 92.746741 44.110593 
L 97.102999 44.078693 
L 101.459257 44.245661 
L 105.815515 44.610476 
L 110.171773 45.170737 
L 114.528031 45.922679 
L 118.884289 46.861878 
L 123.240547 47.983846 
L 127.596805 49.284369 
L 133.405149 51.288978 
L 139.213493 53.592002 
L 145.021837 56.177563 
L 150.830181 59.024877 
L 156.638524 62.109448 
L 163.898954 66.25835 
L 171.159384 70.682651 
L 179.8719 76.276423 
L 191.488588 84.051289 
L 216.17405 100.700774 
L 224.886566 106.269132 
L 232.146996 110.665191 
L 239.407426 114.77969 
L 245.21577 117.832459 
L 251.024114 120.644381 
L 256.832458 123.191335 
L 262.640802 125.453207 
L 268.449146 127.414828 
L 272.805404 128.682173 
L 277.161662 129.770192 
L 281.51792 130.674615 
L 285.874178 131.390929 
L 290.230436 131.914767 
L 294.586694 132.242638 
L 298.942952 132.372322 
L 303.299209 132.303103 
L 307.655467 132.035154 
L 312.011725 131.569178 
L 316.367983 130.906251 
L 320.724241 130.048092 
L 325.080499 128.997975 
L 329.436757 127.760923 
L 333.793015 126.343942 
L 339.601359 124.189207 
L 345.409703 121.750464 
L 351.218047 119.048558 
L 357.026391 116.104156 
L 362.834735 112.939018 
L 370.095165 108.708781 
L 377.355595 104.222673 
L 386.068111 98.580332 
L 399.136885 89.799855 
L 418.014003 77.098034 
L 426.726519 71.488245 
L 433.986949 67.039325 
L 441.247379 62.854828 
L 447.055723 59.731895 
L 452.864066 56.834199 
L 458.67241 54.183154 
L 464.480754 51.799389 
L 470.289098 49.70385 
L 474.645356 48.333965 
L 479.001614 47.146043 
L 483.357872 46.146544 
L 487.71413 45.340112 
L 492.070388 44.729423 
L 496.426646 44.316043 
L 500.782904 44.100908 
L 505.139162 44.084594 
L 509.49542 44.267151 
L 513.851678 44.647405 
L 518.207936 45.22284 
L 522.564194 45.989638 
L 526.920452 46.943337 
L 531.27671 48.079455 
L 535.632968 49.39382 
L 541.441312 51.416315 
L 547.249656 53.736455 
L 553.058 56.338047 
L 558.866344 59.200027 
L 564.674688 62.297739 
L 571.935118 66.460826 
L 579.195548 70.896727 
L 587.908064 76.500862 
L 599.524751 84.283234 
L 622.758127 99.972807 
L 631.470643 105.57548 
L 638.731073 110.009745 
L 645.991503 114.170828 
L 651.799847 117.266687 
L 657.608191 120.126608 
L 663.416535 122.725924 
L 669.224879 125.043618 
L 675.033223 127.063592 
L 679.389481 128.375999 
L 683.745739 129.51012 
L 688.101997 130.461761 
L 692.458255 131.226461 
L 696.814513 131.799732 
L 701.170771 132.177826 
L 705.527029 132.358144 
L 709.883287 132.339637 
L 714.239545 132.122292 
L 718.595803 131.706707 
L 722.952061 131.093853 
L 727.308319 130.285222 
L 731.664577 129.283626 
L 736.020835 128.093639 
L 740.377093 126.721764 
L 746.185436 124.62374 
L 751.99378 122.237659 
L 757.802124 119.584477 
L 763.610468 116.684803 
L 769.418812 113.560088 
L 776.679242 109.373655 
L 783.939672 104.923154 
L 792.652188 99.311969 
L 804.268876 91.537812 
L 812.981392 85.623817 
L 812.981392 85.623817 
" clip-path="url(#p4889ffee66)" style="fill: none; stroke-dasharray: 22.4,5.6,3.5,5.6; stroke-dashoffset: 0; stroke: #0000ff; stroke-opacity: 0.8; stroke-width: 3.5"/>
   </g>
   <g id="patch_3">
    <path d="M 52.160938 136.79 
L 52.160938 39.64 
" style="fill: none; stroke: #000000; stroke-width: 0.8; stroke-linejoin: miter; stroke-linecap: square"/>
   </g>
   <g id="patch_4">
    <path d="M 849.210937 136.79 
L 849.210937 39.64 
" style="fill: none; stroke: #000000; stroke-width: 0.8; stroke-linejoin: miter; stroke-linecap: square"/>
   </g>
   <g id="patch_5">
    <path d="M 52.160938 136.79 
L 849.210938 136.79 
" style="fill: none; stroke: #000000; stroke-width: 0.8; stroke-linejoin: miter; stroke-linecap: square"/>
   </g>
   <g id="patch_6">
    <path d="M 52.160938 39.64 
L 849.210938 39.64 
" style="fill: none; stroke: #000000; stroke-width: 0.8; stroke-linejoin: miter; stroke-linecap: square"/>
   </g>
   <g id="line2d_12">
    <path d="M 88.390483 44.341312 
L 92.746741 44.106803 
L 97.102999 44.062091 
L 101.459257 44.206925 
L 105.815515 44.540103 
L 110.171773 45.059524 
L 114.528031 45.762302 
L 118.884289 46.645104 
L 123.240547 47.704273 
L 129.048891 49.384102 
L 134.857235 51.360365 
L 140.665579 53.620806 
L 146.473923 56.149887 
L 152.282267 58.928141 
L 158.09061 61.932366 
L 165.35104 65.965628 
L 172.61147 70.257011 
L 181.323986 75.667391 
L 194.39276 84.092478 
L 210.365706 94.364106 
L 219.078222 99.716782 
L 226.338652 103.954446 
L 233.599082 107.942542 
L 240.859512 111.639555 
L 246.667856 114.359243 
L 252.4762 116.843964 
L 258.284544 119.073327 
L 264.092888 121.029731 
L 269.901232 122.699543 
L 275.709576 124.073373 
L 280.065834 124.90607 
L 284.422092 125.567938 
L 288.77835 126.058619 
L 293.134608 126.378296 
L 297.490866 126.527656 
L 301.847124 126.507807 
L 307.655467 126.220763 
L 313.463811 125.640366 
L 319.272155 124.772909 
L 325.080499 123.62651 
L 330.888843 122.211437 
L 336.697187 120.540436 
L 342.505531 118.628921 
L 348.313875 116.494789 
L 354.122219 114.157927 
L 361.382649 110.983974 
L 368.643079 107.56833 
L 377.355595 103.209558 
L 387.520197 97.859563 
L 422.370261 79.20678 
L 431.082777 74.948329 
L 438.343207 71.642568 
L 445.603637 68.594578 
L 451.41198 66.362215 
L 457.220324 64.328294 
L 463.028668 62.505688 
L 468.837012 60.905967 
L 474.645356 59.53922 
L 480.4537 58.413907 
L 486.262044 57.536849 
L 492.070388 56.913232 
L 497.878732 56.54662 
L 503.687076 56.438876 
L 509.49542 56.589927 
L 515.303764 56.997506 
L 521.112108 57.656794 
L 526.920452 58.560172 
L 532.728796 59.697114 
L 538.53714 61.054285 
L 544.345484 62.615985 
L 551.605914 64.828988 
L 558.866344 67.297844 
L 566.126774 69.985501 
L 574.83929 73.448067 
L 585.003892 77.736596 
L 599.524751 84.136709 
L 619.853955 93.09075 
L 630.018557 97.322367 
L 638.731073 100.717222 
L 645.991503 103.341078 
L 653.251933 105.748234 
L 660.512363 107.912689 
L 667.772793 109.810511 
L 673.581137 111.122267 
L 679.389481 112.24001 
L 685.197825 113.15571 
L 691.006169 113.863126 
L 696.814513 114.357941 
L 702.622857 114.637845 
L 708.431201 114.702552 
L 714.239545 114.553769 
L 720.047889 114.195149 
L 725.856233 113.632174 
L 731.664577 112.872013 
L 737.472921 111.923341 
L 744.733351 110.487698 
L 751.99378 108.794906 
L 759.25421 106.868601 
L 766.51464 104.733817 
L 775.227156 101.93397 
L 785.391758 98.400657 
L 797.008446 94.115099 
L 812.981392 88.046858 
L 812.981392 88.046858 
" clip-path="url(#p4889ffee66)" style="fill: none; stroke-dasharray: 3.5,5.775; stroke-dashoffset: 0; stroke: #008000; stroke-opacity: 0.8; stroke-width: 3.5"/>
   </g>
   <g id="line2d_13">
    <path d="M 88.390483 44.341312 
L 92.746741 44.112342 
L 97.102999 44.083531 
L 101.459257 44.253561 
L 105.815515 44.620245 
L 110.171773 45.180556 
L 114.528031 45.930552 
L 118.884289 46.865539 
L 123.240547 47.979968 
L 129.048891 49.734018 
L 134.857235 51.778873 
L 140.665579 54.095434 
L 146.473923 56.662602 
L 152.282267 59.457484 
L 159.542696 63.233867 
L 166.803126 67.276854 
L 175.515642 72.404802 
L 187.13233 79.552403 
L 213.269878 95.790201 
L 221.982394 100.906198 
L 229.242824 104.943883 
L 236.503254 108.725222 
L 242.311598 111.535955 
L 248.119942 114.133706 
L 253.928286 116.499747 
L 259.73663 118.61738 
L 265.544974 120.472042 
L 271.353318 122.051406 
L 277.161662 123.345486 
L 282.970006 124.346657 
L 287.326264 124.902091 
L 291.682522 125.288455 
L 296.03878 125.505256 
L 300.395038 125.552699 
L 304.751295 125.431792 
L 310.559639 125.011835 
L 316.367983 124.301944 
L 322.176327 123.310537 
L 327.984671 122.048224 
L 333.793015 120.527665 
L 339.601359 118.763464 
L 345.409703 116.772025 
L 351.218047 114.571413 
L 358.478477 111.556455 
L 365.738907 108.286441 
L 374.451423 104.087551 
L 384.616025 98.910782 
L 402.041057 89.704265 
L 416.561917 82.122839 
L 426.726519 77.080523 
L 435.439035 73.036701 
L 442.699465 69.915899 
L 449.959895 67.060277 
L 455.768238 64.988643 
L 461.576582 63.122305 
L 467.384926 61.474233 
L 473.19327 60.055506 
L 479.001614 58.875279 
L 484.809958 57.94071 
L 490.618302 57.256936 
L 496.426646 56.827045 
L 502.23499 56.652046 
L 508.043334 56.730914 
L 513.851678 57.060604 
L 519.660022 57.636101 
L 525.468366 58.45048 
L 531.27671 59.494954 
L 537.085054 60.758992 
L 542.893398 62.230405 
L 548.701742 63.89547 
L 555.962172 66.225937 
L 563.222602 68.802877 
L 571.935118 72.171048 
L 580.647634 75.778881 
L 592.264322 80.844182 
L 625.662299 95.596196 
L 634.374815 99.148718 
L 643.087331 102.454907 
L 650.347761 104.981499 
L 657.608191 107.269212 
L 664.868621 109.292368 
L 670.676965 110.705448 
L 676.485309 111.925463 
L 682.293653 112.944505 
L 688.101997 113.756346 
L 693.910341 114.356468 
L 699.718685 114.742079 
L 705.527029 114.912144 
L 711.335373 114.867356 
L 717.143717 114.610118 
L 722.952061 114.144501 
L 728.760405 113.476201 
L 734.568749 112.612484 
L 740.377093 111.562115 
L 747.637522 110.002284 
L 754.897952 108.189496 
L 762.158382 106.149348 
L 770.870898 103.440812 
L 779.583414 100.4981 
L 791.200102 96.307464 
L 810.07722 89.182478 
L 812.981392 88.083579 
L 812.981392 88.083579 
" clip-path="url(#p4889ffee66)" style="fill: none; stroke-dasharray: 12.95,5.6; stroke-dashoffset: 0; stroke: #ff0000; stroke-opacity: 0.8; stroke-width: 3.5"/>
   </g>
  </g>
  <g id="axes_2">
   <g id="patch_7">
    <path d="M 52.160938 248.24 
L 849.210937 248.24 
L 849.210937 151.09 
L 52.160938 151.09 
z
" style="fill: #ffffff"/>
   </g>
   <g id="line2d_14">
    <path d="M 88.390483 194.675774 
L 107.267601 207.466224 
L 115.980117 213.110666 
L 123.240547 217.582095 
L 130.500977 221.78196 
L 136.309321 224.910538 
L 142.117665 227.806328 
L 147.926009 230.448051 
L 153.734353 232.81346 
L 159.542696 234.88343 
L 163.898954 236.232591 
L 168.255212 237.401634 
L 172.61147 238.386554 
L 176.967728 239.18451 
L 181.323986 239.793818 
L 185.680244 240.213959 
L 190.036502 240.445572 
L 194.39276 240.49046 
L 198.749018 240.35153 
L 203.105276 240.031321 
L 207.461534 239.532814 
L 211.817792 238.859899 
L 217.626136 237.699253 
L 223.43448 236.249007 
L 229.242824 234.523485 
L 235.051168 232.538955 
L 240.859512 230.313628 
L 246.667856 227.867661 
L 253.928286 224.533778 
L 261.188716 220.937156 
L 269.901232 216.334049 
L 280.065834 210.668721 
L 296.03878 201.444724 
L 310.559639 193.11915 
L 320.724241 187.554563 
L 327.984671 183.800958 
L 335.245101 180.283514 
L 342.505531 177.049499 
L 348.313875 174.694183 
L 354.122219 172.564801 
L 359.930563 170.676874 
L 365.738907 169.043323 
L 371.547251 167.674476 
L 377.355595 166.578058 
L 383.163939 165.759154 
L 388.972283 165.220135 
L 394.780627 164.962374 
L 400.588971 164.985231 
L 406.397315 165.285728 
L 412.205659 165.85855 
L 418.014003 166.696049 
L 423.822347 167.78824 
L 429.630691 169.1228 
L 435.439035 170.685074 
L 441.247379 172.458067 
L 448.507809 174.942992 
L 455.768238 177.6999 
L 463.028668 180.693162 
L 471.741184 184.543004 
L 481.905786 189.302349 
L 496.426646 196.380932 
L 515.303764 205.548098 
L 525.468366 210.222264 
L 534.180882 213.965481 
L 541.441312 216.848693 
L 548.701742 219.480807 
L 555.962172 221.831443 
L 561.770516 223.491167 
L 567.57886 224.941626 
L 573.387204 226.174276 
L 579.195548 227.180753 
L 585.003892 227.954274 
L 590.812236 228.490394 
L 596.62058 228.78701 
L 602.428923 228.844357 
L 608.237267 228.665011 
L 614.045611 228.25389 
L 619.853955 227.618248 
L 625.662299 226.767682 
L 631.470643 225.712765 
L 637.278987 224.462117 
L 644.539417 222.641514 
L 651.799847 220.558877 
L 659.060277 218.242115 
L 667.772793 215.195914 
L 676.485309 211.913682 
L 688.101997 207.278699 
L 727.308319 191.350638 
L 736.020835 188.149355 
L 744.733351 185.197507 
L 751.99378 182.965766 
L 759.25421 180.96801 
L 766.51464 179.227703 
L 772.322984 178.034963 
L 778.131328 177.02881 
L 783.939672 176.215669 
L 789.748016 175.599981 
L 795.55636 175.184198 
L 801.364704 174.968783 
L 807.173048 174.952215 
L 812.981392 175.131471 
L 812.981392 175.131471 
" clip-path="url(#p7868252e84)" style="fill: none; stroke: #000000; stroke-opacity: 0.4; stroke-width: 6; stroke-linecap: square"/>
   </g>
   <g id="matplotlib.axis_3">
    <g id="xtick_7">
     <g id="line2d_15">
      <g>
       <use xlink:href="#m02f3e93602" x="88.390483" y="248.24" style="stroke: #000000; stroke-width: 0.8"/>
      </g>
     </g>
     <g id="text_5">
      <!-- 0 -->
      <g transform="translate(85.209233 262.838437) scale(0.1 -0.1)">
       <use xlink:href="#DejaVuSans-30"/>
      </g>
     </g>
    </g>
    <g id="xtick_8">
     <g id="line2d_16">
      <g>
       <use xlink:href="#m02f3e93602" x="233.308665" y="248.24" style="stroke: #000000; stroke-width: 0.8"/>
      </g>
     </g>
     <g id="text_6">
      <!-- 1 -->
      <g transform="translate(230.127415 262.838437) scale(0.1 -0.1)">
       <defs>
        <path id="DejaVuSans-31" d="M 794 531 
L 1825 531 
L 1825 4091 
L 703 3866 
L 703 4441 
L 1819 4666 
L 2450 4666 
L 2450 531 
L 3481 531 
L 3481 0 
L 794 0 
L 794 531 
z
" transform="scale(0.015625)"/>
       </defs>
       <use xlink:href="#DejaVuSans-31"/>
      </g>
     </g>
    </g>
    <g id="xtick_9">
     <g id="line2d_17">
      <g>
       <use xlink:href="#m02f3e93602" x="378.226847" y="248.24" style="stroke: #000000; stroke-width: 0.8"/>
      </g>
     </g>
     <g id="text_7">
      <!-- 2 -->
      <g transform="translate(375.045597 262.838437) scale(0.1 -0.1)">
       <defs>
        <path id="DejaVuSans-32" d="M 1228 531 
L 3431 531 
L 3431 0 
L 469 0 
L 469 531 
Q 828 903 1448 1529 
Q 2069 2156 2228 2338 
Q 2531 2678 2651 2914 
Q 2772 3150 2772 3378 
Q 2772 3750 2511 3984 
Q 2250 4219 1831 4219 
Q 1534 4219 1204 4116 
Q 875 4013 500 3803 
L 500 4441 
Q 881 4594 1212 4672 
Q 1544 4750 1819 4750 
Q 2544 4750 2975 4387 
Q 3406 4025 3406 3419 
Q 3406 3131 3298 2873 
Q 3191 2616 2906 2266 
Q 2828 2175 2409 1742 
Q 1991 1309 1228 531 
z
" transform="scale(0.015625)"/>
       </defs>
       <use xlink:href="#DejaVuSans-32"/>
      </g>
     </g>
    </g>
    <g id="xtick_10">
     <g id="line2d_18">
      <g>
       <use xlink:href="#m02f3e93602" x="523.145028" y="248.24" style="stroke: #000000; stroke-width: 0.8"/>
      </g>
     </g>
     <g id="text_8">
      <!-- 3 -->
      <g transform="translate(519.963778 262.838437) scale(0.1 -0.1)">
       <defs>
        <path id="DejaVuSans-33" d="M 2597 2516 
Q 3050 2419 3304 2112 
Q 3559 1806 3559 1356 
Q 3559 666 3084 287 
Q 2609 -91 1734 -91 
Q 1441 -91 1130 -33 
Q 819 25 488 141 
L 488 750 
Q 750 597 1062 519 
Q 1375 441 1716 441 
Q 2309 441 2620 675 
Q 2931 909 2931 1356 
Q 2931 1769 2642 2001 
Q 2353 2234 1838 2234 
L 1294 2234 
L 1294 2753 
L 1863 2753 
Q 2328 2753 2575 2939 
Q 2822 3125 2822 3475 
Q 2822 3834 2567 4026 
Q 2313 4219 1838 4219 
Q 1578 4219 1281 4162 
Q 984 4106 628 3988 
L 628 4550 
Q 988 4650 1302 4700 
Q 1616 4750 1894 4750 
Q 2613 4750 3031 4423 
Q 3450 4097 3450 3541 
Q 3450 3153 3228 2886 
Q 3006 2619 2597 2516 
z
" transform="scale(0.015625)"/>
       </defs>
       <use xlink:href="#DejaVuSans-33"/>
      </g>
     </g>
    </g>
    <g id="xtick_11">
     <g id="line2d_19">
      <g>
       <use xlink:href="#m02f3e93602" x="668.06321" y="248.24" style="stroke: #000000; stroke-width: 0.8"/>
      </g>
     </g>
     <g id="text_9">
      <!-- 4 -->
      <g transform="translate(664.88196 262.838437) scale(0.1 -0.1)">
       <defs>
        <path id="DejaVuSans-34" d="M 2419 4116 
L 825 1625 
L 2419 1625 
L 2419 4116 
z
M 2253 4666 
L 3047 4666 
L 3047 1625 
L 3713 1625 
L 3713 1100 
L 3047 1100 
L 3047 0 
L 2419 0 
L 2419 1100 
L 313 1100 
L 313 1709 
L 2253 4666 
z
" transform="scale(0.015625)"/>
       </defs>
       <use xlink:href="#DejaVuSans-34"/>
      </g>
     </g>
    </g>
    <g id="xtick_12">
     <g id="line2d_20">
      <g>
       <use xlink:href="#m02f3e93602" x="812.981392" y="248.24" style="stroke: #000000; stroke-width: 0.8"/>
      </g>
     </g>
     <g id="text_10">
      <!-- 5 -->
      <g transform="translate(809.800142 262.838437) scale(0.1 -0.1)">
       <use xlink:href="#DejaVuSans-35"/>
      </g>
     </g>
    </g>
    <g id="text_11">
     <!-- Time -->
     <g transform="translate(438.452344 276.516562) scale(0.1 -0.1)">
      <defs>
       <path id="DejaVuSans-54" d="M -19 4666 
L 3928 4666 
L 3928 4134 
L 2272 4134 
L 2272 0 
L 1638 0 
L 1638 4134 
L -19 4134 
L -19 4666 
z
" transform="scale(0.015625)"/>
       <path id="DejaVuSans-69" d="M 603 3500 
L 1178 3500 
L 1178 0 
L 603 0 
L 603 3500 
z
M 603 4863 
L 1178 4863 
L 1178 4134 
L 603 4134 
L 603 4863 
z
" transform="scale(0.015625)"/>
       <path id="DejaVuSans-6d" d="M 3328 2828 
Q 3544 3216 3844 3400 
Q 4144 3584 4550 3584 
Q 5097 3584 5394 3201 
Q 5691 2819 5691 2113 
L 5691 0 
L 5113 0 
L 5113 2094 
Q 5113 2597 4934 2840 
Q 4756 3084 4391 3084 
Q 3944 3084 3684 2787 
Q 3425 2491 3425 1978 
L 3425 0 
L 2847 0 
L 2847 2094 
Q 2847 2600 2669 2842 
Q 2491 3084 2119 3084 
Q 1678 3084 1418 2786 
Q 1159 2488 1159 1978 
L 1159 0 
L 581 0 
L 581 3500 
L 1159 3500 
L 1159 2956 
Q 1356 3278 1631 3431 
Q 1906 3584 2284 3584 
Q 2666 3584 2933 3390 
Q 3200 3197 3328 2828 
z
" transform="scale(0.015625)"/>
       <path id="DejaVuSans-65" d="M 3597 1894 
L 3597 1613 
L 953 1613 
Q 991 1019 1311 708 
Q 1631 397 2203 397 
Q 2534 397 2845 478 
Q 3156 559 3463 722 
L 3463 178 
Q 3153 47 2828 -22 
Q 2503 -91 2169 -91 
Q 1331 -91 842 396 
Q 353 884 353 1716 
Q 353 2575 817 3079 
Q 1281 3584 2069 3584 
Q 2775 3584 3186 3129 
Q 3597 2675 3597 1894 
z
M 3022 2063 
Q 3016 2534 2758 2815 
Q 2500 3097 2075 3097 
Q 1594 3097 1305 2825 
Q 1016 2553 972 2059 
L 3022 2063 
z
" transform="scale(0.015625)"/>
      </defs>
      <use xlink:href="#DejaVuSans-54"/>
      <use xlink:href="#DejaVuSans-69" transform="translate(57.958984 0)"/>
      <use xlink:href="#DejaVuSans-6d" transform="translate(85.742188 0)"/>
      <use xlink:href="#DejaVuSans-65" transform="translate(183.154297 0)"/>
     </g>
    </g>
   </g>
   <g id="matplotlib.axis_4">
    <g id="ytick_4">
     <g id="line2d_21">
      <g>
       <use xlink:href="#mcfbf89079c" x="52.160938" y="224.14913" style="stroke: #000000; stroke-width: 0.8"/>
      </g>
     </g>
     <g id="text_12">
      <!-- −1 -->
      <g transform="translate(30.41875 227.948348) scale(0.1 -0.1)">
       <use xlink:href="#DejaVuSans-2212"/>
       <use xlink:href="#DejaVuSans-31" transform="translate(83.789062 0)"/>
      </g>
     </g>
    </g>
    <g id="ytick_5">
     <g id="line2d_22">
      <g>
       <use xlink:href="#mcfbf89079c" x="52.160938" y="199.588" style="stroke: #000000; stroke-width: 0.8"/>
      </g>
     </g>
     <g id="text_13">
      <!-- 0 -->
      <g transform="translate(38.798438 203.387219) scale(0.1 -0.1)">
       <use xlink:href="#DejaVuSans-30"/>
      </g>
     </g>
    </g>
    <g id="ytick_6">
     <g id="line2d_23">
      <g>
       <use xlink:href="#mcfbf89079c" x="52.160938" y="175.02687" style="stroke: #000000; stroke-width: 0.8"/>
      </g>
     </g>
     <g id="text_14">
      <!-- 1 -->
      <g transform="translate(38.798438 178.826089) scale(0.1 -0.1)">
       <use xlink:href="#DejaVuSans-31"/>
      </g>
     </g>
    </g>
    <g id="text_15">
     <!-- $x1$ -->
     <g transform="translate(24.339063 205.815) rotate(-90) scale(0.1 -0.1)">
      <use xlink:href="#DejaVuSans-Oblique-78" transform="translate(0 0.09375)"/>
      <use xlink:href="#DejaVuSans-31" transform="translate(59.179688 0.09375)"/>
     </g>
    </g>
   </g>
   <g id="line2d_24">
    <path d="M 88.390483 194.675774 
L 114.528031 212.272769 
L 123.240547 217.822763 
L 130.500977 222.203428 
L 137.761407 226.303822 
L 143.569751 229.347428 
L 149.378095 232.153588 
L 155.186439 234.699399 
L 160.994782 236.964219 
L 166.803126 238.929791 
L 171.159384 240.198007 
L 175.515642 241.283226 
L 179.8719 242.180598 
L 184.228158 242.886046 
L 188.584416 243.396408 
L 192.940674 243.709394 
L 197.296932 243.823558 
L 201.65319 243.738432 
L 206.009448 243.454361 
L 210.365706 242.972644 
L 214.721964 242.29546 
L 219.078222 241.425826 
L 223.43448 240.367703 
L 227.790738 239.125827 
L 232.146996 237.70581 
L 237.95534 235.546546 
L 243.763684 233.099444 
L 249.572028 230.384301 
L 255.380372 227.423249 
L 261.188716 224.240479 
L 268.449146 219.989779 
L 275.709576 215.486413 
L 284.422092 209.82721 
L 297.490866 201.026842 
L 316.367983 188.30672 
L 325.080499 182.694066 
L 332.340929 178.247078 
L 339.601359 174.069524 
L 345.409703 170.956536 
L 351.218047 168.073823 
L 357.026391 165.44401 
L 362.834735 163.087845 
L 368.643079 161.024038 
L 372.999337 159.678049 
L 377.355595 158.511886 
L 381.711853 157.530786 
L 386.068111 156.739208 
L 390.424369 156.140676 
L 394.780627 155.737914 
L 399.136885 155.53273 
L 403.493143 155.52603 
L 407.849401 155.717886 
L 412.205659 156.10739 
L 416.561917 156.692814 
L 420.918175 157.471514 
L 425.274433 158.439962 
L 429.630691 159.593836 
L 433.986949 160.927897 
L 439.795293 162.976476 
L 445.603637 165.318316 
L 451.41198 167.934799 
L 457.220324 170.805276 
L 463.028668 173.907201 
L 470.289098 178.07275 
L 477.549528 182.509918 
L 486.262044 188.11389 
L 497.878732 195.890692 
L 521.112108 211.547025 
L 529.824624 217.131498 
L 537.085054 221.550285 
L 544.345484 225.696973 
L 550.153828 228.783193 
L 555.962172 231.636585 
L 561.770516 234.233834 
L 567.57886 236.553859 
L 573.387204 238.577934 
L 577.743462 239.891909 
L 582.09972 241.024267 
L 586.455978 241.969938 
L 590.812236 242.724645 
L 595.168494 243.284984 
L 599.524751 243.648455 
L 603.881009 243.813379 
L 608.237267 243.779049 
L 612.593525 243.545606 
L 616.949783 243.114093 
L 621.306041 242.486483 
L 625.662299 241.665562 
L 630.018557 240.655064 
L 634.374815 239.45953 
L 638.731073 238.08434 
L 644.539417 235.982154 
L 650.347761 233.588623 
L 656.156105 230.923083 
L 661.964449 228.00723 
L 667.772793 224.864889 
L 675.033223 220.657589 
L 682.293653 216.189322 
L 691.006169 210.560809 
L 702.622857 202.768259 
L 724.404147 188.082071 
L 733.116663 182.479548 
L 740.377093 178.044012 
L 747.637522 173.880454 
L 753.445866 170.780353 
L 759.25421 167.911898 
L 765.062554 165.297625 
L 770.870898 162.958169 
L 776.679242 160.912105 
L 781.0355 159.579999 
L 785.391758 158.428178 
L 789.748016 157.461805 
L 794.104274 156.685233 
L 798.460532 156.101987 
L 802.81679 155.714656 
L 807.173048 155.525023 
L 811.529306 155.533918 
L 812.981392 155.58102 
L 812.981392 155.58102 
" clip-path="url(#p7868252e84)" style="fill: none; stroke-dasharray: 22.4,5.6,3.5,5.6; stroke-dashoffset: 0; stroke: #0000ff; stroke-opacity: 0.8; stroke-width: 3.5"/>
   </g>
   <g id="patch_8">
    <path d="M 52.160938 248.24 
L 52.160938 151.09 
" style="fill: none; stroke: #000000; stroke-width: 0.8; stroke-linejoin: miter; stroke-linecap: square"/>
   </g>
   <g id="patch_9">
    <path d="M 849.210937 248.24 
L 849.210937 151.09 
" style="fill: none; stroke: #000000; stroke-width: 0.8; stroke-linejoin: miter; stroke-linecap: square"/>
   </g>
   <g id="patch_10">
    <path d="M 52.160938 248.24 
L 849.210938 248.24 
" style="fill: none; stroke: #000000; stroke-width: 0.8; stroke-linejoin: miter; stroke-linecap: square"/>
   </g>
   <g id="patch_11">
    <path d="M 52.160938 151.09 
L 849.210938 151.09 
" style="fill: none; stroke: #000000; stroke-width: 0.8; stroke-linejoin: miter; stroke-linecap: square"/>
   </g>
   <g id="line2d_25">
    <path d="M 88.390483 194.675774 
L 111.623859 209.622636 
L 121.788461 215.82581 
L 130.500977 220.889652 
L 137.761407 224.888724 
L 145.021837 228.61636 
L 150.830181 231.345078 
L 156.638524 233.804434 
L 162.446868 235.966434 
L 166.803126 237.383302 
L 171.159384 238.620146 
L 175.515642 239.672373 
L 179.8719 240.532299 
L 184.228158 241.18917 
L 188.584416 241.630152 
L 192.940674 241.84387 
L 197.296932 241.82344 
L 201.65319 241.570513 
L 206.009448 241.094583 
L 210.365706 240.412697 
L 214.721964 239.545322 
L 220.530308 238.135111 
L 226.338652 236.467702 
L 232.146996 234.561233 
L 237.95534 232.417387 
L 243.763684 230.030705 
L 249.572028 227.40078 
L 255.380372 224.542044 
L 262.640802 220.696289 
L 271.353318 215.799012 
L 287.326264 206.482862 
L 306.203381 195.547479 
L 317.820069 189.087709 
L 326.532585 184.487424 
L 333.793015 180.882918 
L 341.053445 177.547613 
L 346.861789 175.109516 
L 352.670133 172.89869 
L 358.478477 170.926504 
L 364.286821 169.195802 
L 370.095165 167.705159 
L 375.903509 166.454937 
L 381.711853 165.452595 
L 387.520197 164.714931 
L 391.876455 164.34945 
L 396.232713 164.156277 
L 400.588971 164.143933 
L 404.945229 164.316841 
L 409.301487 164.674981 
L 413.657745 165.213115 
L 419.466089 166.193678 
L 425.274433 167.447007 
L 431.082777 168.940597 
L 436.891121 170.645319 
L 444.151551 173.038661 
L 451.41198 175.693653 
L 458.67241 178.58419 
L 467.384926 182.324951 
L 476.097442 186.309429 
L 487.71413 191.89466 
L 509.49542 202.719908 
L 521.112108 208.347882 
L 529.824624 212.316172 
L 537.085054 215.371411 
L 542.893398 217.613506 
L 548.701742 219.655875 
L 554.510086 221.488372 
L 560.31843 223.108066 
L 566.126774 224.516849 
L 571.935118 225.718376 
L 577.743462 226.714991 
L 583.551806 227.505543 
L 589.36015 228.084689 
L 595.168494 228.444185 
L 600.976837 228.57547 
L 606.785181 228.47271 
L 612.593525 228.135233 
L 618.401869 227.568635 
L 624.210213 226.783915 
L 630.018557 225.795441 
L 635.826901 224.618472 
L 643.087331 222.903507 
L 650.347761 220.938803 
L 657.608191 218.743167 
L 664.868621 216.335113 
L 673.581137 213.197126 
L 683.745739 209.260207 
L 696.814513 203.924841 
L 718.595803 194.994251 
L 728.760405 191.077948 
L 737.472921 187.95403 
L 746.185436 185.094925 
L 753.445866 182.93908 
L 760.706296 181.003986 
L 767.966726 179.300622 
L 775.227156 177.841126 
L 782.487586 176.641961 
L 788.29593 175.884605 
L 794.104274 175.320664 
L 799.912618 174.962775 
L 805.720962 174.821084 
L 811.529306 174.90115 
L 812.981392 174.955905 
L 812.981392 174.955905 
" clip-path="url(#p7868252e84)" style="fill: none; stroke-dasharray: 3.5,5.775; stroke-dashoffset: 0; stroke: #008000; stroke-opacity: 0.8; stroke-width: 3.5"/>
   </g>
   <g id="line2d_26">
    <path d="M 88.390483 194.675774 
L 104.363429 205.545816 
L 113.075945 211.24599 
L 120.336375 215.77866 
L 127.596805 220.055746 
L 133.405149 223.259459 
L 139.213493 226.243608 
L 145.021837 228.98644 
L 150.830181 231.468338 
L 156.638524 233.671944 
L 162.446868 235.582295 
L 166.803126 236.815019 
L 171.159384 237.871414 
L 175.515642 238.747951 
L 179.8719 239.442012 
L 184.228158 239.95174 
L 188.584416 240.276175 
L 192.940674 240.415187 
L 197.296932 240.369442 
L 201.65319 240.140505 
L 206.009448 239.730682 
L 210.365706 239.143123 
L 214.721964 238.38175 
L 220.530308 237.104345 
L 226.338652 235.539366 
L 232.146996 233.70205 
L 237.95534 231.609664 
L 243.763684 229.281341 
L 249.572028 226.737924 
L 256.832458 223.290387 
L 264.092888 219.588356 
L 272.805404 214.879351 
L 284.422092 208.294371 
L 313.463811 191.640559 
L 322.176327 186.95711 
L 329.436757 183.274758 
L 336.697187 179.839428 
L 343.957617 176.691002 
L 349.765961 174.403064 
L 355.574305 172.338077 
L 361.382649 170.510415 
L 367.190993 168.932431 
L 372.999337 167.614367 
L 378.807681 166.564269 
L 384.616025 165.787979 
L 390.424369 165.289093 
L 396.232713 165.068968 
L 402.041057 165.12672 
L 407.849401 165.459234 
L 413.657745 166.061241 
L 419.466089 166.925368 
L 425.274433 168.042226 
L 431.082777 169.400496 
L 436.891121 170.987023 
L 442.699465 172.786961 
L 448.507809 174.783901 
L 455.768238 177.529839 
L 463.028668 180.518106 
L 471.741184 184.367263 
L 481.905786 189.128121 
L 497.878732 196.917161 
L 513.851678 204.663597 
L 524.01628 209.358577 
L 532.728796 213.135542 
L 539.989226 216.059096 
L 547.249656 218.742666 
L 554.510086 221.155656 
L 560.31843 222.873042 
L 566.126774 224.388078 
L 571.935118 225.690588 
L 577.743462 226.772181 
L 583.551806 227.626308 
L 589.36015 228.248317 
L 595.168494 228.635445 
L 600.976837 228.786836 
L 606.785181 228.703518 
L 612.593525 228.388378 
L 618.401869 227.846145 
L 624.210213 227.083313 
L 630.018557 226.108074 
L 635.826901 224.930236 
L 641.635245 223.561127 
L 648.895675 221.600338 
L 656.156105 219.388473 
L 663.416535 216.956078 
L 672.129051 213.792618 
L 682.293653 209.841533 
L 696.814513 203.90338 
L 720.047889 194.37519 
L 730.212491 190.457504 
L 738.925007 187.324828 
L 746.185436 184.914055 
L 753.445866 182.71478 
L 760.706296 180.751905 
L 767.966726 179.047086 
L 775.227156 177.618509 
L 781.0355 176.684425 
L 786.843844 175.942204 
L 792.652188 175.395951 
L 798.460532 175.048159 
L 804.268876 174.899721 
L 810.07722 174.94993 
L 812.981392 175.048874 
L 812.981392 175.048874 
" clip-path="url(#p7868252e84)" style="fill: none; stroke-dasharray: 12.95,5.6; stroke-dashoffset: 0; stroke: #ff0000; stroke-opacity: 0.8; stroke-width: 3.5"/>
   </g>
  </g>
  <g id="text_16">
   <!-- State Variable Simulation Comparison -->
   <g transform="translate(276.303437 20.1175) scale(0.16 -0.16)">
    <defs>
     <path id="DejaVuSans-53" d="M 3425 4513 
L 3425 3897 
Q 3066 4069 2747 4153 
Q 2428 4238 2131 4238 
Q 1616 4238 1336 4038 
Q 1056 3838 1056 3469 
Q 1056 3159 1242 3001 
Q 1428 2844 1947 2747 
L 2328 2669 
Q 3034 2534 3370 2195 
Q 3706 1856 3706 1288 
Q 3706 609 3251 259 
Q 2797 -91 1919 -91 
Q 1588 -91 1214 -16 
Q 841 59 441 206 
L 441 856 
Q 825 641 1194 531 
Q 1563 422 1919 422 
Q 2459 422 2753 634 
Q 3047 847 3047 1241 
Q 3047 1584 2836 1778 
Q 2625 1972 2144 2069 
L 1759 2144 
Q 1053 2284 737 2584 
Q 422 2884 422 3419 
Q 422 4038 858 4394 
Q 1294 4750 2059 4750 
Q 2388 4750 2728 4690 
Q 3069 4631 3425 4513 
z
" transform="scale(0.015625)"/>
     <path id="DejaVuSans-74" d="M 1172 4494 
L 1172 3500 
L 2356 3500 
L 2356 3053 
L 1172 3053 
L 1172 1153 
Q 1172 725 1289 603 
Q 1406 481 1766 481 
L 2356 481 
L 2356 0 
L 1766 0 
Q 1100 0 847 248 
Q 594 497 594 1153 
L 594 3053 
L 172 3053 
L 172 3500 
L 594 3500 
L 594 4494 
L 1172 4494 
z
" transform="scale(0.015625)"/>
     <path id="DejaVuSans-61" d="M 2194 1759 
Q 1497 1759 1228 1600 
Q 959 1441 959 1056 
Q 959 750 1161 570 
Q 1363 391 1709 391 
Q 2188 391 2477 730 
Q 2766 1069 2766 1631 
L 2766 1759 
L 2194 1759 
z
M 3341 1997 
L 3341 0 
L 2766 0 
L 2766 531 
Q 2569 213 2275 61 
Q 1981 -91 1556 -91 
Q 1019 -91 701 211 
Q 384 513 384 1019 
Q 384 1609 779 1909 
Q 1175 2209 1959 2209 
L 2766 2209 
L 2766 2266 
Q 2766 2663 2505 2880 
Q 2244 3097 1772 3097 
Q 1472 3097 1187 3025 
Q 903 2953 641 2809 
L 641 3341 
Q 956 3463 1253 3523 
Q 1550 3584 1831 3584 
Q 2591 3584 2966 3190 
Q 3341 2797 3341 1997 
z
" transform="scale(0.015625)"/>
     <path id="DejaVuSans-20" transform="scale(0.015625)"/>
     <path id="DejaVuSans-56" d="M 1831 0 
L 50 4666 
L 709 4666 
L 2188 738 
L 3669 4666 
L 4325 4666 
L 2547 0 
L 1831 0 
z
" transform="scale(0.015625)"/>
     <path id="DejaVuSans-72" d="M 2631 2963 
Q 2534 3019 2420 3045 
Q 2306 3072 2169 3072 
Q 1681 3072 1420 2755 
Q 1159 2438 1159 1844 
L 1159 0 
L 581 0 
L 581 3500 
L 1159 3500 
L 1159 2956 
Q 1341 3275 1631 3429 
Q 1922 3584 2338 3584 
Q 2397 3584 2469 3576 
Q 2541 3569 2628 3553 
L 2631 2963 
z
" transform="scale(0.015625)"/>
     <path id="DejaVuSans-62" d="M 3116 1747 
Q 3116 2381 2855 2742 
Q 2594 3103 2138 3103 
Q 1681 3103 1420 2742 
Q 1159 2381 1159 1747 
Q 1159 1113 1420 752 
Q 1681 391 2138 391 
Q 2594 391 2855 752 
Q 3116 1113 3116 1747 
z
M 1159 2969 
Q 1341 3281 1617 3432 
Q 1894 3584 2278 3584 
Q 2916 3584 3314 3078 
Q 3713 2572 3713 1747 
Q 3713 922 3314 415 
Q 2916 -91 2278 -91 
Q 1894 -91 1617 61 
Q 1341 213 1159 525 
L 1159 0 
L 581 0 
L 581 4863 
L 1159 4863 
L 1159 2969 
z
" transform="scale(0.015625)"/>
     <path id="DejaVuSans-6c" d="M 603 4863 
L 1178 4863 
L 1178 0 
L 603 0 
L 603 4863 
z
" transform="scale(0.015625)"/>
     <path id="DejaVuSans-75" d="M 544 1381 
L 544 3500 
L 1119 3500 
L 1119 1403 
Q 1119 906 1312 657 
Q 1506 409 1894 409 
Q 2359 409 2629 706 
Q 2900 1003 2900 1516 
L 2900 3500 
L 3475 3500 
L 3475 0 
L 2900 0 
L 2900 538 
Q 2691 219 2414 64 
Q 2138 -91 1772 -91 
Q 1169 -91 856 284 
Q 544 659 544 1381 
z
M 1991 3584 
L 1991 3584 
z
" transform="scale(0.015625)"/>
     <path id="DejaVuSans-6f" d="M 1959 3097 
Q 1497 3097 1228 2736 
Q 959 2375 959 1747 
Q 959 1119 1226 758 
Q 1494 397 1959 397 
Q 2419 397 2687 759 
Q 2956 1122 2956 1747 
Q 2956 2369 2687 2733 
Q 2419 3097 1959 3097 
z
M 1959 3584 
Q 2709 3584 3137 3096 
Q 3566 2609 3566 1747 
Q 3566 888 3137 398 
Q 2709 -91 1959 -91 
Q 1206 -91 779 398 
Q 353 888 353 1747 
Q 353 2609 779 3096 
Q 1206 3584 1959 3584 
z
" transform="scale(0.015625)"/>
     <path id="DejaVuSans-6e" d="M 3513 2113 
L 3513 0 
L 2938 0 
L 2938 2094 
Q 2938 2591 2744 2837 
Q 2550 3084 2163 3084 
Q 1697 3084 1428 2787 
Q 1159 2491 1159 1978 
L 1159 0 
L 581 0 
L 581 3500 
L 1159 3500 
L 1159 2956 
Q 1366 3272 1645 3428 
Q 1925 3584 2291 3584 
Q 2894 3584 3203 3211 
Q 3513 2838 3513 2113 
z
" transform="scale(0.015625)"/>
     <path id="DejaVuSans-43" d="M 4122 4306 
L 4122 3641 
Q 3803 3938 3442 4084 
Q 3081 4231 2675 4231 
Q 1875 4231 1450 3742 
Q 1025 3253 1025 2328 
Q 1025 1406 1450 917 
Q 1875 428 2675 428 
Q 3081 428 3442 575 
Q 3803 722 4122 1019 
L 4122 359 
Q 3791 134 3420 21 
Q 3050 -91 2638 -91 
Q 1578 -91 968 557 
Q 359 1206 359 2328 
Q 359 3453 968 4101 
Q 1578 4750 2638 4750 
Q 3056 4750 3426 4639 
Q 3797 4528 4122 4306 
z
" transform="scale(0.015625)"/>
     <path id="DejaVuSans-70" d="M 1159 525 
L 1159 -1331 
L 581 -1331 
L 581 3500 
L 1159 3500 
L 1159 2969 
Q 1341 3281 1617 3432 
Q 1894 3584 2278 3584 
Q 2916 3584 3314 3078 
Q 3713 2572 3713 1747 
Q 3713 922 3314 415 
Q 2916 -91 2278 -91 
Q 1894 -91 1617 61 
Q 1341 213 1159 525 
z
M 3116 1747 
Q 3116 2381 2855 2742 
Q 2594 3103 2138 3103 
Q 1681 3103 1420 2742 
Q 1159 2381 1159 1747 
Q 1159 1113 1420 752 
Q 1681 391 2138 391 
Q 2594 391 2855 752 
Q 3116 1113 3116 1747 
z
" transform="scale(0.015625)"/>
     <path id="DejaVuSans-73" d="M 2834 3397 
L 2834 2853 
Q 2591 2978 2328 3040 
Q 2066 3103 1784 3103 
Q 1356 3103 1142 2972 
Q 928 2841 928 2578 
Q 928 2378 1081 2264 
Q 1234 2150 1697 2047 
L 1894 2003 
Q 2506 1872 2764 1633 
Q 3022 1394 3022 966 
Q 3022 478 2636 193 
Q 2250 -91 1575 -91 
Q 1294 -91 989 -36 
Q 684 19 347 128 
L 347 722 
Q 666 556 975 473 
Q 1284 391 1588 391 
Q 1994 391 2212 530 
Q 2431 669 2431 922 
Q 2431 1156 2273 1281 
Q 2116 1406 1581 1522 
L 1381 1569 
Q 847 1681 609 1914 
Q 372 2147 372 2553 
Q 372 3047 722 3315 
Q 1072 3584 1716 3584 
Q 2034 3584 2315 3537 
Q 2597 3491 2834 3397 
z
" transform="scale(0.015625)"/>
    </defs>
    <use xlink:href="#DejaVuSans-53"/>
    <use xlink:href="#DejaVuSans-74" transform="translate(63.476562 0)"/>
    <use xlink:href="#DejaVuSans-61" transform="translate(102.685547 0)"/>
    <use xlink:href="#DejaVuSans-74" transform="translate(163.964844 0)"/>
    <use xlink:href="#DejaVuSans-65" transform="translate(203.173828 0)"/>
    <use xlink:href="#DejaVuSans-20" transform="translate(264.697266 0)"/>
    <use xlink:href="#DejaVuSans-56" transform="translate(296.484375 0)"/>
    <use xlink:href="#DejaVuSans-61" transform="translate(357.142578 0)"/>
    <use xlink:href="#DejaVuSans-72" transform="translate(418.421875 0)"/>
    <use xlink:href="#DejaVuSans-69" transform="translate(459.535156 0)"/>
    <use xlink:href="#DejaVuSans-61" transform="translate(487.318359 0)"/>
    <use xlink:href="#DejaVuSans-62" transform="translate(548.597656 0)"/>
    <use xlink:href="#DejaVuSans-6c" transform="translate(612.074219 0)"/>
    <use xlink:href="#DejaVuSans-65" transform="translate(639.857422 0)"/>
    <use xlink:href="#DejaVuSans-20" transform="translate(701.380859 0)"/>
    <use xlink:href="#DejaVuSans-53" transform="translate(733.167969 0)"/>
    <use xlink:href="#DejaVuSans-69" transform="translate(796.644531 0)"/>
    <use xlink:href="#DejaVuSans-6d" transform="translate(824.427734 0)"/>
    <use xlink:href="#DejaVuSans-75" transform="translate(921.839844 0)"/>
    <use xlink:href="#DejaVuSans-6c" transform="translate(985.21875 0)"/>
    <use xlink:href="#DejaVuSans-61" transform="translate(1013.001953 0)"/>
    <use xlink:href="#DejaVuSans-74" transform="translate(1074.28125 0)"/>
    <use xlink:href="#DejaVuSans-69" transform="translate(1113.490234 0)"/>
    <use xlink:href="#DejaVuSans-6f" transform="translate(1141.273438 0)"/>
    <use xlink:href="#DejaVuSans-6e" transform="translate(1202.455078 0)"/>
    <use xlink:href="#DejaVuSans-20" transform="translate(1265.833984 0)"/>
    <use xlink:href="#DejaVuSans-43" transform="translate(1297.621094 0)"/>
    <use xlink:href="#DejaVuSans-6f" transform="translate(1367.445312 0)"/>
    <use xlink:href="#DejaVuSans-6d" transform="translate(1428.626953 0)"/>
    <use xlink:href="#DejaVuSans-70" transform="translate(1526.039062 0)"/>
    <use xlink:href="#DejaVuSans-61" transform="translate(1589.515625 0)"/>
    <use xlink:href="#DejaVuSans-72" transform="translate(1650.794922 0)"/>
    <use xlink:href="#DejaVuSans-69" transform="translate(1691.908203 0)"/>
    <use xlink:href="#DejaVuSans-73" transform="translate(1719.691406 0)"/>
    <use xlink:href="#DejaVuSans-6f" transform="translate(1771.791016 0)"/>
    <use xlink:href="#DejaVuSans-6e" transform="translate(1832.972656 0)"/>
   </g>
  </g>
  <g id="legend_1">
   <g id="patch_12">
    <path d="M 744.139063 66.7125 
L 855.210938 66.7125 
Q 857.210938 66.7125 857.210938 64.7125 
L 857.210938 7 
Q 857.210938 5 855.210938 5 
L 744.139063 5 
Q 742.139063 5 742.139063 7 
L 742.139063 64.7125 
Q 742.139063 66.7125 744.139063 66.7125 
z
" style="fill: #ffffff; opacity: 0.5; stroke: #cccccc; stroke-linejoin: miter"/>
   </g>
   <g id="line2d_27">
    <path d="M 746.139063 13.098437 
L 756.139063 13.098437 
L 766.139063 13.098437 
" style="fill: none; stroke: #000000; stroke-opacity: 0.4; stroke-width: 6; stroke-linecap: square"/>
   </g>
   <g id="text_17">
    <!-- True Trajectory -->
    <g transform="translate(774.139063 16.598437) scale(0.1 -0.1)">
     <defs>
      <path id="DejaVuSans-6a" d="M 603 3500 
L 1178 3500 
L 1178 -63 
Q 1178 -731 923 -1031 
Q 669 -1331 103 -1331 
L -116 -1331 
L -116 -844 
L 38 -844 
Q 366 -844 484 -692 
Q 603 -541 603 -63 
L 603 3500 
z
M 603 4863 
L 1178 4863 
L 1178 4134 
L 603 4134 
L 603 4863 
z
" transform="scale(0.015625)"/>
      <path id="DejaVuSans-63" d="M 3122 3366 
L 3122 2828 
Q 2878 2963 2633 3030 
Q 2388 3097 2138 3097 
Q 1578 3097 1268 2742 
Q 959 2388 959 1747 
Q 959 1106 1268 751 
Q 1578 397 2138 397 
Q 2388 397 2633 464 
Q 2878 531 3122 666 
L 3122 134 
Q 2881 22 2623 -34 
Q 2366 -91 2075 -91 
Q 1284 -91 818 406 
Q 353 903 353 1747 
Q 353 2603 823 3093 
Q 1294 3584 2113 3584 
Q 2378 3584 2631 3529 
Q 2884 3475 3122 3366 
z
" transform="scale(0.015625)"/>
      <path id="DejaVuSans-79" d="M 2059 -325 
Q 1816 -950 1584 -1140 
Q 1353 -1331 966 -1331 
L 506 -1331 
L 506 -850 
L 844 -850 
Q 1081 -850 1212 -737 
Q 1344 -625 1503 -206 
L 1606 56 
L 191 3500 
L 800 3500 
L 1894 763 
L 2988 3500 
L 3597 3500 
L 2059 -325 
z
" transform="scale(0.015625)"/>
     </defs>
     <use xlink:href="#DejaVuSans-54"/>
     <use xlink:href="#DejaVuSans-72" transform="translate(46.333984 0)"/>
     <use xlink:href="#DejaVuSans-75" transform="translate(87.447266 0)"/>
     <use xlink:href="#DejaVuSans-65" transform="translate(150.826172 0)"/>
     <use xlink:href="#DejaVuSans-20" transform="translate(212.349609 0)"/>
     <use xlink:href="#DejaVuSans-54" transform="translate(244.136719 0)"/>
     <use xlink:href="#DejaVuSans-72" transform="translate(290.470703 0)"/>
     <use xlink:href="#DejaVuSans-61" transform="translate(331.583984 0)"/>
     <use xlink:href="#DejaVuSans-6a" transform="translate(392.863281 0)"/>
     <use xlink:href="#DejaVuSans-65" transform="translate(420.646484 0)"/>
     <use xlink:href="#DejaVuSans-63" transform="translate(482.169922 0)"/>
     <use xlink:href="#DejaVuSans-74" transform="translate(537.150391 0)"/>
     <use xlink:href="#DejaVuSans-6f" transform="translate(576.359375 0)"/>
     <use xlink:href="#DejaVuSans-72" transform="translate(637.541016 0)"/>
     <use xlink:href="#DejaVuSans-79" transform="translate(678.654297 0)"/>
    </g>
   </g>
   <g id="line2d_28">
    <path d="M 746.139063 27.776562 
L 756.139063 27.776562 
L 766.139063 27.776562 
" style="fill: none; stroke-dasharray: 12.95,5.6; stroke-dashoffset: 0; stroke: #ff0000; stroke-opacity: 0.8; stroke-width: 3.5"/>
   </g>
   <g id="text_18">
    <!-- AutoSINDy -->
    <g transform="translate(774.139063 31.276562) scale(0.1 -0.1)">
     <defs>
      <path id="DejaVuSans-41" d="M 2188 4044 
L 1331 1722 
L 3047 1722 
L 2188 4044 
z
M 1831 4666 
L 2547 4666 
L 4325 0 
L 3669 0 
L 3244 1197 
L 1141 1197 
L 716 0 
L 50 0 
L 1831 4666 
z
" transform="scale(0.015625)"/>
      <path id="DejaVuSans-49" d="M 628 4666 
L 1259 4666 
L 1259 0 
L 628 0 
L 628 4666 
z
" transform="scale(0.015625)"/>
      <path id="DejaVuSans-4e" d="M 628 4666 
L 1478 4666 
L 3547 763 
L 3547 4666 
L 4159 4666 
L 4159 0 
L 3309 0 
L 1241 3903 
L 1241 0 
L 628 0 
L 628 4666 
z
" transform="scale(0.015625)"/>
      <path id="DejaVuSans-44" d="M 1259 4147 
L 1259 519 
L 2022 519 
Q 2988 519 3436 956 
Q 3884 1394 3884 2338 
Q 3884 3275 3436 3711 
Q 2988 4147 2022 4147 
L 1259 4147 
z
M 628 4666 
L 1925 4666 
Q 3281 4666 3915 4102 
Q 4550 3538 4550 2338 
Q 4550 1131 3912 565 
Q 3275 0 1925 0 
L 628 0 
L 628 4666 
z
" transform="scale(0.015625)"/>
     </defs>
     <use xlink:href="#DejaVuSans-41"/>
     <use xlink:href="#DejaVuSans-75" transform="translate(68.408203 0)"/>
     <use xlink:href="#DejaVuSans-74" transform="translate(131.787109 0)"/>
     <use xlink:href="#DejaVuSans-6f" transform="translate(170.996094 0)"/>
     <use xlink:href="#DejaVuSans-53" transform="translate(232.177734 0)"/>
     <use xlink:href="#DejaVuSans-49" transform="translate(295.654297 0)"/>
     <use xlink:href="#DejaVuSans-4e" transform="translate(325.146484 0)"/>
     <use xlink:href="#DejaVuSans-44" transform="translate(399.951172 0)"/>
     <use xlink:href="#DejaVuSans-79" transform="translate(476.953125 0)"/>
    </g>
   </g>
   <g id="line2d_29">
    <path d="M 746.139063 42.454687 
L 756.139063 42.454687 
L 766.139063 42.454687 
" style="fill: none; stroke-dasharray: 3.5,5.775; stroke-dashoffset: 0; stroke: #008000; stroke-opacity: 0.8; stroke-width: 3.5"/>
   </g>
   <g id="text_19">
    <!-- Standard SINDy -->
    <g transform="translate(774.139063 45.954687) scale(0.1 -0.1)">
     <defs>
      <path id="DejaVuSans-64" d="M 2906 2969 
L 2906 4863 
L 3481 4863 
L 3481 0 
L 2906 0 
L 2906 525 
Q 2725 213 2448 61 
Q 2172 -91 1784 -91 
Q 1150 -91 751 415 
Q 353 922 353 1747 
Q 353 2572 751 3078 
Q 1150 3584 1784 3584 
Q 2172 3584 2448 3432 
Q 2725 3281 2906 2969 
z
M 947 1747 
Q 947 1113 1208 752 
Q 1469 391 1925 391 
Q 2381 391 2643 752 
Q 2906 1113 2906 1747 
Q 2906 2381 2643 2742 
Q 2381 3103 1925 3103 
Q 1469 3103 1208 2742 
Q 947 2381 947 1747 
z
" transform="scale(0.015625)"/>
     </defs>
     <use xlink:href="#DejaVuSans-53"/>
     <use xlink:href="#DejaVuSans-74" transform="translate(63.476562 0)"/>
     <use xlink:href="#DejaVuSans-61" transform="translate(102.685547 0)"/>
     <use xlink:href="#DejaVuSans-6e" transform="translate(163.964844 0)"/>
     <use xlink:href="#DejaVuSans-64" transform="translate(227.34375 0)"/>
     <use xlink:href="#DejaVuSans-61" transform="translate(290.820312 0)"/>
     <use xlink:href="#DejaVuSans-72" transform="translate(352.099609 0)"/>
     <use xlink:href="#DejaVuSans-64" transform="translate(391.462891 0)"/>
     <use xlink:href="#DejaVuSans-20" transform="translate(454.939453 0)"/>
     <use xlink:href="#DejaVuSans-53" transform="translate(486.726562 0)"/>
     <use xlink:href="#DejaVuSans-49" transform="translate(550.203125 0)"/>
     <use xlink:href="#DejaVuSans-4e" transform="translate(579.695312 0)"/>
     <use xlink:href="#DejaVuSans-44" transform="translate(654.5 0)"/>
     <use xlink:href="#DejaVuSans-79" transform="translate(731.501953 0)"/>
    </g>
   </g>
   <g id="line2d_30">
    <path d="M 746.139063 57.132812 
L 756.139063 57.132812 
L 766.139063 57.132812 
" style="fill: none; stroke-dasharray: 22.4,5.6,3.5,5.6; stroke-dashoffset: 0; stroke: #0000ff; stroke-opacity: 0.8; stroke-width: 3.5"/>
   </g>
   <g id="text_20">
    <!-- Standard PySR -->
    <g transform="translate(774.139063 60.632812) scale(0.1 -0.1)">
     <defs>
      <path id="DejaVuSans-50" d="M 1259 4147 
L 1259 2394 
L 2053 2394 
Q 2494 2394 2734 2622 
Q 2975 2850 2975 3272 
Q 2975 3691 2734 3919 
Q 2494 4147 2053 4147 
L 1259 4147 
z
M 628 4666 
L 2053 4666 
Q 2838 4666 3239 4311 
Q 3641 3956 3641 3272 
Q 3641 2581 3239 2228 
Q 2838 1875 2053 1875 
L 1259 1875 
L 1259 0 
L 628 0 
L 628 4666 
z
" transform="scale(0.015625)"/>
      <path id="DejaVuSans-52" d="M 2841 2188 
Q 3044 2119 3236 1894 
Q 3428 1669 3622 1275 
L 4263 0 
L 3584 0 
L 2988 1197 
Q 2756 1666 2539 1819 
Q 2322 1972 1947 1972 
L 1259 1972 
L 1259 0 
L 628 0 
L 628 4666 
L 2053 4666 
Q 2853 4666 3247 4331 
Q 3641 3997 3641 3322 
Q 3641 2881 3436 2590 
Q 3231 2300 2841 2188 
z
M 1259 4147 
L 1259 2491 
L 2053 2491 
Q 2509 2491 2742 2702 
Q 2975 2913 2975 3322 
Q 2975 3731 2742 3939 
Q 2509 4147 2053 4147 
L 1259 4147 
z
" transform="scale(0.015625)"/>
     </defs>
     <use xlink:href="#DejaVuSans-53"/>
     <use xlink:href="#DejaVuSans-74" transform="translate(63.476562 0)"/>
     <use xlink:href="#DejaVuSans-61" transform="translate(102.685547 0)"/>
     <use xlink:href="#DejaVuSans-6e" transform="translate(163.964844 0)"/>
     <use xlink:href="#DejaVuSans-64" transform="translate(227.34375 0)"/>
     <use xlink:href="#DejaVuSans-61" transform="translate(290.820312 0)"/>
     <use xlink:href="#DejaVuSans-72" transform="translate(352.099609 0)"/>
     <use xlink:href="#DejaVuSans-64" transform="translate(391.462891 0)"/>
     <use xlink:href="#DejaVuSans-20" transform="translate(454.939453 0)"/>
     <use xlink:href="#DejaVuSans-50" transform="translate(486.726562 0)"/>
     <use xlink:href="#DejaVuSans-79" transform="translate(547.029297 0)"/>
     <use xlink:href="#DejaVuSans-53" transform="translate(606.208984 0)"/>
     <use xlink:href="#DejaVuSans-52" transform="translate(669.685547 0)"/>
    </g>
   </g>
  </g>
 </g>
 <defs>
  <clipPath id="p4889ffee66">
   <rect x="52.160938" y="39.64" width="797.05" height="97.15"/>
  </clipPath>
  <clipPath id="p7868252e84">
   <rect x="52.160938" y="151.09" width="797.05" height="97.15"/>
  </clipPath>
 </defs>
</svg>
