<?xml version="1.0" encoding="utf-8" standalone="no"?>
<!DOCTYPE svg PUBLIC "-//W3C//DTD SVG 1.1//EN"
  "http://www.w3.org/Graphics/SVG/1.1/DTD/svg11.dtd">
<svg xmlns:xlink="http://www.w3.org/1999/xlink" width="568.410937pt" height="567.994375pt" viewBox="0 0 568.410937 567.994375" xmlns="http://www.w3.org/2000/svg" version="1.1">
 <metadata>
  <rdf:RDF xmlns:dc="http://purl.org/dc/elements/1.1/" xmlns:cc="http://creativecommons.org/ns#" xmlns:rdf="http://www.w3.org/1999/02/22-rdf-syntax-ns#">
   <cc:Work>
    <dc:type rdf:resource="http://purl.org/dc/dcmitype/StillImage"/>
    <dc:date>2026-04-06T12:01:16.207688</dc:date>
    <dc:format>image/svg+xml</dc:format>
    <dc:creator>
     <cc:Agent>
      <dc:title>Matplotlib v3.10.7, https://matplotlib.org/</dc:title>
     </cc:Agent>
    </dc:creator>
   </cc:Work>
  </rdf:RDF>
 </metadata>
 <defs>
  <style type="text/css">*{stroke-linejoin: round; stroke-linecap: butt}</style>
 </defs>
 <g id="figure_1">
  <g id="patch_1">
   <path d="M 0 567.994375 
L 568.410937 567.994375 
L 568.410937 0 
L 0 0 
z
" style="fill: #ffffff"/>
  </g>
  <g id="axes_1">
   <g id="patch_2">
    <path d="M 52.160938 530.438125 
L 561.210937 530.438125 
L 561.210937 22.318125 
L 52.160938 22.318125 
z
" style="fill: #ffffff"/>
   </g>
   <g id="matplotlib.axis_1">
    <g id="xtick_1">
     <g id="line2d_1">
      <defs>
       <path id="m1ef6832262" d="M 0 0 
L 0 3.5 
" style="stroke: #000000; stroke-width: 0.8"/>
      </defs>
      <g>
       <use xlink:href="#m1ef6832262" x="76.741547" y="530.438125" style="stroke: #000000; stroke-width: 0.8"/>
      </g>
     </g>
     <g id="text_1">
      <!-- −0.8 -->
      <g transform="translate(64.600141 545.036562) scale(0.1 -0.1)">
       <defs>
        <path id="DejaVuSans-2212" d="M 678 2272 
L 4684 2272 
L 4684 1741 
L 678 1741 
L 678 2272 
z
" transform="scale(0.015625)"/>
        <path id="DejaVuSans-30" d="M 2034 4250 
Q 1547 4250 1301 3770 
Q 1056 3291 1056 2328 
Q 1056 1369 1301 889 
Q 1547 409 2034 409 
Q 2525 409 2770 889 
Q 3016 1369 3016 2328 
Q 3016 3291 2770 3770 
Q 2525 4250 2034 4250 
z
M 2034 4750 
Q 2819 4750 3233 4129 
Q 3647 3509 3647 2328 
Q 3647 1150 3233 529 
Q 2819 -91 2034 -91 
Q 1250 -91 836 529 
Q 422 1150 422 2328 
Q 422 3509 836 4129 
Q 1250 4750 2034 4750 
z
" transform="scale(0.015625)"/>
        <path id="DejaVuSans-2e" d="M 684 794 
L 1344 794 
L 1344 0 
L 684 0 
L 684 794 
z
" transform="scale(0.015625)"/>
        <path id="DejaVuSans-38" d="M 2034 2216 
Q 1584 2216 1326 1975 
Q 1069 1734 1069 1313 
Q 1069 891 1326 650 
Q 1584 409 2034 409 
Q 2484 409 2743 651 
Q 3003 894 3003 1313 
Q 3003 1734 2745 1975 
Q 2488 2216 2034 2216 
z
M 1403 2484 
Q 997 2584 770 2862 
Q 544 3141 544 3541 
Q 544 4100 942 4425 
Q 1341 4750 2034 4750 
Q 2731 4750 3128 4425 
Q 3525 4100 3525 3541 
Q 3525 3141 3298 2862 
Q 3072 2584 2669 2484 
Q 3125 2378 3379 2068 
Q 3634 1759 3634 1313 
Q 3634 634 3220 271 
Q 2806 -91 2034 -91 
Q 1263 -91 848 271 
Q 434 634 434 1313 
Q 434 1759 690 2068 
Q 947 2378 1403 2484 
z
M 1172 3481 
Q 1172 3119 1398 2916 
Q 1625 2713 2034 2713 
Q 2441 2713 2670 2916 
Q 2900 3119 2900 3481 
Q 2900 3844 2670 4047 
Q 2441 4250 2034 4250 
Q 1625 4250 1398 4047 
Q 1172 3844 1172 3481 
z
" transform="scale(0.015625)"/>
       </defs>
       <use xlink:href="#DejaVuSans-2212"/>
       <use xlink:href="#DejaVuSans-30" transform="translate(83.789062 0)"/>
       <use xlink:href="#DejaVuSans-2e" transform="translate(147.412109 0)"/>
       <use xlink:href="#DejaVuSans-38" transform="translate(179.199219 0)"/>
      </g>
     </g>
    </g>
    <g id="xtick_2">
     <g id="line2d_2">
      <g>
       <use xlink:href="#m1ef6832262" x="134.227644" y="530.438125" style="stroke: #000000; stroke-width: 0.8"/>
      </g>
     </g>
     <g id="text_2">
      <!-- −0.6 -->
      <g transform="translate(122.086238 545.036562) scale(0.1 -0.1)">
       <defs>
        <path id="DejaVuSans-36" d="M 2113 2584 
Q 1688 2584 1439 2293 
Q 1191 2003 1191 1497 
Q 1191 994 1439 701 
Q 1688 409 2113 409 
Q 2538 409 2786 701 
Q 3034 994 3034 1497 
Q 3034 2003 2786 2293 
Q 2538 2584 2113 2584 
z
M 3366 4563 
L 3366 3988 
Q 3128 4100 2886 4159 
Q 2644 4219 2406 4219 
Q 1781 4219 1451 3797 
Q 1122 3375 1075 2522 
Q 1259 2794 1537 2939 
Q 1816 3084 2150 3084 
Q 2853 3084 3261 2657 
Q 3669 2231 3669 1497 
Q 3669 778 3244 343 
Q 2819 -91 2113 -91 
Q 1303 -91 875 529 
Q 447 1150 447 2328 
Q 447 3434 972 4092 
Q 1497 4750 2381 4750 
Q 2619 4750 2861 4703 
Q 3103 4656 3366 4563 
z
" transform="scale(0.015625)"/>
       </defs>
       <use xlink:href="#DejaVuSans-2212"/>
       <use xlink:href="#DejaVuSans-30" transform="translate(83.789062 0)"/>
       <use xlink:href="#DejaVuSans-2e" transform="translate(147.412109 0)"/>
       <use xlink:href="#DejaVuSans-36" transform="translate(179.199219 0)"/>
      </g>
     </g>
    </g>
    <g id="xtick_3">
     <g id="line2d_3">
      <g>
       <use xlink:href="#m1ef6832262" x="191.713742" y="530.438125" style="stroke: #000000; stroke-width: 0.8"/>
      </g>
     </g>
     <g id="text_3">
      <!-- −0.4 -->
      <g transform="translate(179.572335 545.036562) scale(0.1 -0.1)">
       <defs>
        <path id="DejaVuSans-34" d="M 2419 4116 
L 825 1625 
L 2419 1625 
L 2419 4116 
z
M 2253 4666 
L 3047 4666 
L 3047 1625 
L 3713 1625 
L 3713 1100 
L 3047 1100 
L 3047 0 
L 2419 0 
L 2419 1100 
L 313 1100 
L 313 1709 
L 2253 4666 
z
" transform="scale(0.015625)"/>
       </defs>
       <use xlink:href="#DejaVuSans-2212"/>
       <use xlink:href="#DejaVuSans-30" transform="translate(83.789062 0)"/>
       <use xlink:href="#DejaVuSans-2e" transform="translate(147.412109 0)"/>
       <use xlink:href="#DejaVuSans-34" transform="translate(179.199219 0)"/>
      </g>
     </g>
    </g>
    <g id="xtick_4">
     <g id="line2d_4">
      <g>
       <use xlink:href="#m1ef6832262" x="249.199839" y="530.438125" style="stroke: #000000; stroke-width: 0.8"/>
      </g>
     </g>
     <g id="text_4">
      <!-- −0.2 -->
      <g transform="translate(237.058433 545.036562) scale(0.1 -0.1)">
       <defs>
        <path id="DejaVuSans-32" d="M 1228 531 
L 3431 531 
L 3431 0 
L 469 0 
L 469 531 
Q 828 903 1448 1529 
Q 2069 2156 2228 2338 
Q 2531 2678 2651 2914 
Q 2772 3150 2772 3378 
Q 2772 3750 2511 3984 
Q 2250 4219 1831 4219 
Q 1534 4219 1204 4116 
Q 875 4013 500 3803 
L 500 4441 
Q 881 4594 1212 4672 
Q 1544 4750 1819 4750 
Q 2544 4750 2975 4387 
Q 3406 4025 3406 3419 
Q 3406 3131 3298 2873 
Q 3191 2616 2906 2266 
Q 2828 2175 2409 1742 
Q 1991 1309 1228 531 
z
" transform="scale(0.015625)"/>
       </defs>
       <use xlink:href="#DejaVuSans-2212"/>
       <use xlink:href="#DejaVuSans-30" transform="translate(83.789062 0)"/>
       <use xlink:href="#DejaVuSans-2e" transform="translate(147.412109 0)"/>
       <use xlink:href="#DejaVuSans-32" transform="translate(179.199219 0)"/>
      </g>
     </g>
    </g>
    <g id="xtick_5">
     <g id="line2d_5">
      <g>
       <use xlink:href="#m1ef6832262" x="306.685936" y="530.438125" style="stroke: #000000; stroke-width: 0.8"/>
      </g>
     </g>
     <g id="text_5">
      <!-- 0.0 -->
      <g transform="translate(298.734374 545.036562) scale(0.1 -0.1)">
       <use xlink:href="#DejaVuSans-30"/>
       <use xlink:href="#DejaVuSans-2e" transform="translate(63.623047 0)"/>
       <use xlink:href="#DejaVuSans-30" transform="translate(95.410156 0)"/>
      </g>
     </g>
    </g>
    <g id="xtick_6">
     <g id="line2d_6">
      <g>
       <use xlink:href="#m1ef6832262" x="364.172033" y="530.438125" style="stroke: #000000; stroke-width: 0.8"/>
      </g>
     </g>
     <g id="text_6">
      <!-- 0.2 -->
      <g transform="translate(356.220471 545.036562) scale(0.1 -0.1)">
       <use xlink:href="#DejaVuSans-30"/>
       <use xlink:href="#DejaVuSans-2e" transform="translate(63.623047 0)"/>
       <use xlink:href="#DejaVuSans-32" transform="translate(95.410156 0)"/>
      </g>
     </g>
    </g>
    <g id="xtick_7">
     <g id="line2d_7">
      <g>
       <use xlink:href="#m1ef6832262" x="421.658131" y="530.438125" style="stroke: #000000; stroke-width: 0.8"/>
      </g>
     </g>
     <g id="text_7">
      <!-- 0.4 -->
      <g transform="translate(413.706568 545.036562) scale(0.1 -0.1)">
       <use xlink:href="#DejaVuSans-30"/>
       <use xlink:href="#DejaVuSans-2e" transform="translate(63.623047 0)"/>
       <use xlink:href="#DejaVuSans-34" transform="translate(95.410156 0)"/>
      </g>
     </g>
    </g>
    <g id="xtick_8">
     <g id="line2d_8">
      <g>
       <use xlink:href="#m1ef6832262" x="479.144228" y="530.438125" style="stroke: #000000; stroke-width: 0.8"/>
      </g>
     </g>
     <g id="text_8">
      <!-- 0.6 -->
      <g transform="translate(471.192665 545.036562) scale(0.1 -0.1)">
       <use xlink:href="#DejaVuSans-30"/>
       <use xlink:href="#DejaVuSans-2e" transform="translate(63.623047 0)"/>
       <use xlink:href="#DejaVuSans-36" transform="translate(95.410156 0)"/>
      </g>
     </g>
    </g>
    <g id="xtick_9">
     <g id="line2d_9">
      <g>
       <use xlink:href="#m1ef6832262" x="536.630325" y="530.438125" style="stroke: #000000; stroke-width: 0.8"/>
      </g>
     </g>
     <g id="text_9">
      <!-- 0.8 -->
      <g transform="translate(528.678763 545.036562) scale(0.1 -0.1)">
       <use xlink:href="#DejaVuSans-30"/>
       <use xlink:href="#DejaVuSans-2e" transform="translate(63.623047 0)"/>
       <use xlink:href="#DejaVuSans-38" transform="translate(95.410156 0)"/>
      </g>
     </g>
    </g>
    <g id="text_10">
     <!-- x0 -->
     <g transform="translate(300.545312 558.714687) scale(0.1 -0.1)">
      <defs>
       <path id="DejaVuSans-78" d="M 3513 3500 
L 2247 1797 
L 3578 0 
L 2900 0 
L 1881 1375 
L 863 0 
L 184 0 
L 1544 1831 
L 300 3500 
L 978 3500 
L 1906 2253 
L 2834 3500 
L 3513 3500 
z
" transform="scale(0.015625)"/>
      </defs>
      <use xlink:href="#DejaVuSans-78"/>
      <use xlink:href="#DejaVuSans-30" transform="translate(59.179688 0)"/>
     </g>
    </g>
   </g>
   <g id="matplotlib.axis_2">
    <g id="ytick_1">
     <g id="line2d_10">
      <defs>
       <path id="md288cc2849" d="M 0 0 
L -3.5 0 
" style="stroke: #000000; stroke-width: 0.8"/>
      </defs>
      <g>
       <use xlink:href="#md288cc2849" x="52.160938" y="468.697644" style="stroke: #000000; stroke-width: 0.8"/>
      </g>
     </g>
     <g id="text_11">
      <!-- −1.5 -->
      <g transform="translate(20.878125 472.496863) scale(0.1 -0.1)">
       <defs>
        <path id="DejaVuSans-31" d="M 794 531 
L 1825 531 
L 1825 4091 
L 703 3866 
L 703 4441 
L 1819 4666 
L 2450 4666 
L 2450 531 
L 3481 531 
L 3481 0 
L 794 0 
L 794 531 
z
" transform="scale(0.015625)"/>
        <path id="DejaVuSans-35" d="M 691 4666 
L 3169 4666 
L 3169 4134 
L 1269 4134 
L 1269 2991 
Q 1406 3038 1543 3061 
Q 1681 3084 1819 3084 
Q 2600 3084 3056 2656 
Q 3513 2228 3513 1497 
Q 3513 744 3044 326 
Q 2575 -91 1722 -91 
Q 1428 -91 1123 -41 
Q 819 9 494 109 
L 494 744 
Q 775 591 1075 516 
Q 1375 441 1709 441 
Q 2250 441 2565 725 
Q 2881 1009 2881 1497 
Q 2881 1984 2565 2268 
Q 2250 2553 1709 2553 
Q 1456 2553 1204 2497 
Q 953 2441 691 2322 
L 691 4666 
z
" transform="scale(0.015625)"/>
       </defs>
       <use xlink:href="#DejaVuSans-2212"/>
       <use xlink:href="#DejaVuSans-31" transform="translate(83.789062 0)"/>
       <use xlink:href="#DejaVuSans-2e" transform="translate(147.412109 0)"/>
       <use xlink:href="#DejaVuSans-35" transform="translate(179.199219 0)"/>
      </g>
     </g>
    </g>
    <g id="ytick_2">
     <g id="line2d_11">
      <g>
       <use xlink:href="#md288cc2849" x="52.160938" y="404.590937" style="stroke: #000000; stroke-width: 0.8"/>
      </g>
     </g>
     <g id="text_12">
      <!-- −1.0 -->
      <g transform="translate(20.878125 408.390155) scale(0.1 -0.1)">
       <use xlink:href="#DejaVuSans-2212"/>
       <use xlink:href="#DejaVuSans-31" transform="translate(83.789062 0)"/>
       <use xlink:href="#DejaVuSans-2e" transform="translate(147.412109 0)"/>
       <use xlink:href="#DejaVuSans-30" transform="translate(179.199219 0)"/>
      </g>
     </g>
    </g>
    <g id="ytick_3">
     <g id="line2d_12">
      <g>
       <use xlink:href="#md288cc2849" x="52.160938" y="340.484229" style="stroke: #000000; stroke-width: 0.8"/>
      </g>
     </g>
     <g id="text_13">
      <!-- −0.5 -->
      <g transform="translate(20.878125 344.283448) scale(0.1 -0.1)">
       <use xlink:href="#DejaVuSans-2212"/>
       <use xlink:href="#DejaVuSans-30" transform="translate(83.789062 0)"/>
       <use xlink:href="#DejaVuSans-2e" transform="translate(147.412109 0)"/>
       <use xlink:href="#DejaVuSans-35" transform="translate(179.199219 0)"/>
      </g>
     </g>
    </g>
    <g id="ytick_4">
     <g id="line2d_13">
      <g>
       <use xlink:href="#md288cc2849" x="52.160938" y="276.377522" style="stroke: #000000; stroke-width: 0.8"/>
      </g>
     </g>
     <g id="text_14">
      <!-- 0.0 -->
      <g transform="translate(29.257812 280.176741) scale(0.1 -0.1)">
       <use xlink:href="#DejaVuSans-30"/>
       <use xlink:href="#DejaVuSans-2e" transform="translate(63.623047 0)"/>
       <use xlink:href="#DejaVuSans-30" transform="translate(95.410156 0)"/>
      </g>
     </g>
    </g>
    <g id="ytick_5">
     <g id="line2d_14">
      <g>
       <use xlink:href="#md288cc2849" x="52.160938" y="212.270815" style="stroke: #000000; stroke-width: 0.8"/>
      </g>
     </g>
     <g id="text_15">
      <!-- 0.5 -->
      <g transform="translate(29.257812 216.070034) scale(0.1 -0.1)">
       <use xlink:href="#DejaVuSans-30"/>
       <use xlink:href="#DejaVuSans-2e" transform="translate(63.623047 0)"/>
       <use xlink:href="#DejaVuSans-35" transform="translate(95.410156 0)"/>
      </g>
     </g>
    </g>
    <g id="ytick_6">
     <g id="line2d_15">
      <g>
       <use xlink:href="#md288cc2849" x="52.160938" y="148.164108" style="stroke: #000000; stroke-width: 0.8"/>
      </g>
     </g>
     <g id="text_16">
      <!-- 1.0 -->
      <g transform="translate(29.257812 151.963326) scale(0.1 -0.1)">
       <use xlink:href="#DejaVuSans-31"/>
       <use xlink:href="#DejaVuSans-2e" transform="translate(63.623047 0)"/>
       <use xlink:href="#DejaVuSans-30" transform="translate(95.410156 0)"/>
      </g>
     </g>
    </g>
    <g id="ytick_7">
     <g id="line2d_16">
      <g>
       <use xlink:href="#md288cc2849" x="52.160938" y="84.0574" style="stroke: #000000; stroke-width: 0.8"/>
      </g>
     </g>
     <g id="text_17">
      <!-- 1.5 -->
      <g transform="translate(29.257812 87.856619) scale(0.1 -0.1)">
       <use xlink:href="#DejaVuSans-31"/>
       <use xlink:href="#DejaVuSans-2e" transform="translate(63.623047 0)"/>
       <use xlink:href="#DejaVuSans-35" transform="translate(95.410156 0)"/>
      </g>
     </g>
    </g>
    <g id="text_18">
     <!-- x1 -->
     <g transform="translate(14.798438 282.51875) rotate(-90) scale(0.1 -0.1)">
      <use xlink:href="#DejaVuSans-78"/>
      <use xlink:href="#DejaVuSans-31" transform="translate(59.179688 0)"/>
     </g>
    </g>
   </g>
   <g id="line2d_17">
    <path d="M 536.630325 250.734839 
L 537.148107 255.919849 
L 537.5494 261.106035 
L 537.834206 266.290831 
L 538.002586 271.471669 
L 538.054656 276.645973 
L 537.990594 281.811171 
L 537.810734 286.965061 
L 537.515407 292.10515 
L 537.104938 297.228686 
L 536.579706 302.332945 
L 535.940151 307.41523 
L 535.186772 312.472874 
L 534.320124 317.503236 
L 533.34082 322.503704 
L 532.249535 327.471697 
L 531.046997 332.404657 
L 529.733996 337.300058 
L 528.311378 342.155402 
L 526.78005 346.968217 
L 525.140974 351.736061 
L 523.395173 356.456519 
L 521.543725 361.127206 
L 519.58777 365.745764 
L 517.528503 370.309862 
L 515.367179 374.817199 
L 513.105112 379.265502 
L 510.743671 383.652526 
L 508.284287 387.976053 
L 505.728446 392.233895 
L 503.077695 396.423892 
L 500.333637 400.543909 
L 497.497935 404.591845 
L 494.572309 408.565622 
L 491.558537 412.463192 
L 488.458443 416.282563 
L 485.273376 420.02274 
L 482.005011 423.682157 
L 478.655326 427.258766 
L 475.22632 430.750598 
L 471.720011 434.155754 
L 468.138435 437.472413 
L 464.483649 440.698828 
L 460.757727 443.833326 
L 456.962764 446.874312 
L 453.100874 449.820261 
L 449.174189 452.669727 
L 445.184861 455.421337 
L 441.135062 458.073792 
L 437.026981 460.625869 
L 432.862828 463.076421 
L 428.644833 465.424373 
L 424.375242 467.668727 
L 420.056323 469.808559 
L 415.690363 471.84302 
L 411.279666 473.771337 
L 406.826558 475.592808 
L 402.333383 477.306811 
L 397.802503 478.912796 
L 393.236301 480.410287 
L 388.637178 481.798884 
L 384.007555 483.078263 
L 379.349872 484.248174 
L 374.666587 485.30844 
L 369.96018 486.25896 
L 365.233148 487.09971 
L 355.727292 488.452168 
L 346.169384 489.367104 
L 336.580094 489.847004 
L 326.9804 489.895553 
L 317.391587 489.517634 
L 307.830321 488.71767 
L 298.310522 487.498768 
L 288.852586 485.866134 
L 279.476387 483.825628 
L 270.201208 481.383739 
L 261.045742 478.547597 
L 252.028093 475.324961 
L 243.165774 471.724226 
L 234.475706 467.754422 
L 225.974224 463.425212 
L 217.677068 458.746894 
L 209.599392 453.730401 
L 201.755757 448.387299 
L 194.160136 442.729788 
L 186.825909 436.770703 
L 179.765869 430.523514 
L 172.992217 424.002324 
L 166.516565 417.22187 
L 160.349932 410.197525 
L 154.502751 402.945295 
L 148.984861 395.48182 
L 143.805314 387.823869 
L 138.969877 379.980381 
L 134.486889 371.965121 
L 130.365136 363.79484 
L 126.612472 355.486328 
L 123.235828 347.056416 
L 120.241202 338.521973 
L 117.633666 329.899911 
L 115.417361 321.207178 
L 113.595504 312.460766 
L 112.170379 303.677704 
L 111.143344 294.875062 
L 110.514827 286.06995 
L 110.28433 277.279518 
L 110.450424 268.520957 
L 111.010754 259.811495 
L 111.962033 251.168403 
L 113.30005 242.60899 
L 115.019661 234.150606 
L 117.114798 225.810641 
L 119.578461 217.606524 
L 122.402732 209.555711 
L 125.582162 201.670976 
L 129.110897 193.966388 
L 132.980242 186.459279 
L 137.180956 179.166132 
L 141.70325 172.102583 
L 146.536788 165.283419 
L 151.670688 158.722584 
L 157.093521 152.433169 
L 162.793309 146.427421 
L 168.757529 140.71674 
L 174.973111 135.311674 
L 181.426437 130.22193 
L 188.103342 125.456362 
L 194.989115 121.022979 
L 202.068497 116.928943 
L 209.325684 113.180567 
L 216.744321 109.783317 
L 224.307511 106.741813 
L 231.997805 104.059825 
L 239.797212 101.740278 
L 247.689423 99.785001 
L 255.663624 98.194852 
L 263.702526 96.971225 
L 271.788491 96.114844 
L 279.904178 95.625672 
L 288.032538 95.502907 
L 296.156815 95.744989 
L 304.260547 96.349593 
L 312.327566 97.313633 
L 320.341996 98.633262 
L 328.288255 100.303867 
L 336.151056 102.320078 
L 343.915404 104.67576 
L 351.566597 107.364015 
L 359.090229 110.377185 
L 366.472183 113.706849 
L 373.69864 117.343825 
L 380.756072 121.278167 
L 387.631245 125.499168 
L 394.311219 129.995358 
L 400.783347 134.754507 
L 407.035275 139.76362 
L 413.057348 145.013025 
L 418.841502 150.496527 
L 424.37626 156.202192 
L 429.650826 162.117794 
L 434.655147 168.230896 
L 439.37991 174.528854 
L 443.816542 180.998814 
L 447.95721 187.627715 
L 451.794821 194.402288 
L 455.323026 201.309055 
L 458.536212 208.33433 
L 461.429509 215.464217 
L 463.998787 222.684615 
L 466.240657 229.981211 
L 468.152469 237.339486 
L 469.732315 244.744712 
L 470.979026 252.181953 
L 471.892176 259.636063 
L 472.472076 267.09169 
L 472.719781 274.533273 
L 472.636733 281.947588 
L 472.223883 289.323675 
L 471.482877 296.645209 
L 470.416032 303.896158 
L 469.026325 311.060968 
L 467.317392 318.124568 
L 465.293528 325.072366 
L 462.95969 331.890249 
L 460.321491 338.564586 
L 457.385206 345.082226 
L 454.157767 351.430498 
L 450.646769 357.597211 
L 446.860462 363.570655 
L 442.807759 369.3396 
L 438.49823 374.893295 
L 433.942107 380.221472 
L 429.150278 385.31434 
L 424.134293 390.16259 
L 418.906361 394.757394 
L 413.479349 399.090403 
L 407.866786 403.153748 
L 402.082774 406.940079 
L 396.136169 410.444859 
L 390.037564 413.662928 
L 383.800851 416.588332 
L 377.439899 419.215879 
L 370.968553 421.541145 
L 364.40063 423.560464 
L 357.749925 425.270938 
L 351.030207 426.670431 
L 344.255218 427.757568 
L 337.438677 428.531742 
L 330.594279 428.993105 
L 323.73569 429.142576 
L 316.876555 428.981835 
L 310.030492 428.513327 
L 303.211093 427.740259 
L 296.431928 426.666603 
L 289.706538 425.297095 
L 283.048444 423.637231 
L 276.471136 421.693274 
L 269.988083 419.472248 
L 263.612729 416.981944 
L 257.355135 414.22806 
L 251.224212 411.21478 
L 245.232662 407.94951 
L 239.392647 404.44 
L 233.715773 400.694331 
L 228.213092 396.720916 
L 222.895097 392.528499 
L 217.77173 388.126155 
L 212.852373 383.52329 
L 208.145855 378.729643 
L 203.660449 373.755282 
L 199.403871 368.610608 
L 195.383284 363.306353 
L 191.605292 357.853579 
L 188.075946 352.263681 
L 184.80074 346.548385 
L 181.784613 340.719748 
L 179.031947 334.790157 
L 176.546571 328.772333 
L 174.331757 322.679326 
L 172.390186 316.524326 
L 170.723456 310.315761 
L 169.334 304.065065 
L 168.224167 297.785862 
L 167.395667 291.491556 
L 166.84957 285.195341 
L 166.586305 278.910191 
L 166.60566 272.648869 
L 166.906784 266.423919 
L 167.488184 260.247671 
L 168.347727 254.132242 
L 169.482642 248.089531 
L 170.889513 242.131222 
L 172.564288 236.268785 
L 174.502271 230.513475 
L 176.698129 224.876329 
L 179.145886 219.368172 
L 181.838926 213.999611 
L 184.769993 208.781041 
L 187.931192 203.722638 
L 191.313984 198.834366 
L 194.909194 194.125971 
L 198.707619 189.60654 
L 202.704269 185.281814 
L 206.89065 181.160033 
L 211.257058 177.249605 
L 215.793611 173.558289 
L 220.490252 170.093196 
L 225.336748 166.860789 
L 230.322693 163.866882 
L 235.437504 161.116641 
L 240.670422 158.614584 
L 246.010516 156.364579 
L 251.446675 154.369848 
L 256.967616 152.632963 
L 262.56188 151.155849 
L 268.217831 149.939781 
L 273.923661 148.985386 
L 279.667384 148.292643 
L 285.43684 147.860884 
L 291.219691 147.68879 
L 297.003428 147.774396 
L 302.775409 148.115131 
L 308.525325 148.710142 
L 308.525325 148.710142 
" clip-path="url(#pd6e8f301eb)" style="fill: none; stroke: #000000; stroke-opacity: 0.3; stroke-width: 7; stroke-linecap: square"/>
   </g>
   <g id="line2d_18">
    <path d="M 536.630325 250.734839 
L 537.14895 255.84632 
L 537.552665 260.968041 
L 537.841208 266.097448 
L 538.014427 271.231981 
L 538.072301 276.36908 
L 538.01481 281.506182 
L 537.841969 286.640731 
L 537.5538 291.770158 
L 537.150451 296.891904 
L 536.632189 302.003421 
L 535.999279 307.102161 
L 535.252024 312.185584 
L 534.390732 317.251141 
L 533.41584 322.296303 
L 532.327896 327.31857 
L 531.127452 332.315438 
L 529.81509 337.284417 
L 528.391404 342.223006 
L 526.857111 347.128744 
L 525.213038 351.999204 
L 523.460011 356.83196 
L 521.59889 361.624601 
L 519.630542 366.374709 
L 517.55596 371.079917 
L 515.376235 375.737905 
L 513.092461 380.346352 
L 510.705762 384.90296 
L 508.217271 389.405419 
L 505.62824 393.851489 
L 502.940014 398.238985 
L 500.153939 402.565723 
L 497.271392 406.82954 
L 494.293753 411.028269 
L 491.222523 415.159822 
L 488.059282 419.222176 
L 484.805614 423.21331 
L 481.463134 427.131229 
L 478.033453 430.973928 
L 474.518303 434.739502 
L 470.919501 438.426117 
L 467.238865 442.031938 
L 463.47827 445.555165 
L 459.639531 448.993982 
L 455.724655 452.346691 
L 451.735798 455.611676 
L 447.675115 458.787321 
L 443.544887 461.872057 
L 439.347232 464.86428 
L 435.084709 467.762542 
L 430.760203 470.565501 
L 426.376601 473.271817 
L 421.936988 475.880215 
L 417.444331 478.389364 
L 408.315149 483.105642 
L 399.022034 487.412959 
L 389.600715 491.304397 
L 380.091021 494.775476 
L 370.533276 497.823072 
L 360.966625 500.445797 
L 351.421573 502.644195 
L 341.923879 504.41966 
L 332.4821 505.774607 
L 323.095228 506.711489 
L 313.750532 507.232628 
L 304.425194 507.339191 
L 295.092968 507.031723 
L 285.730214 506.309176 
L 276.318299 505.169846 
L 266.847853 503.611241 
L 257.325746 501.630992 
L 247.766413 499.22683 
L 238.199516 496.397991 
L 228.660198 493.144821 
L 219.188395 489.46925 
L 209.824161 485.375515 
L 200.606566 480.868869 
L 196.063383 478.463028 
L 191.569142 475.956894 
L 187.12754 473.351566 
L 182.742189 470.648171 
L 178.416035 467.848038 
L 174.151777 464.952565 
L 169.952109 461.963155 
L 165.819626 458.881252 
L 161.756812 455.708314 
L 157.765843 452.445945 
L 153.84879 449.095806 
L 150.007723 445.659559 
L 146.24466 442.138902 
L 142.561594 438.535535 
L 138.960353 434.851282 
L 135.442708 431.088018 
L 132.010427 427.247615 
L 128.665237 423.331979 
L 125.408879 419.343013 
L 122.242943 415.282736 
L 119.168966 411.153202 
L 116.188487 406.956468 
L 113.302995 402.694618 
L 110.514004 398.369737 
L 107.822867 393.984006 
L 105.23088 389.539638 
L 102.739341 385.038847 
L 100.349496 380.483869 
L 98.062617 375.876942 
L 95.879801 371.220386 
L 93.80209 366.516543 
L 91.830526 361.767755 
L 89.966097 356.976385 
L 88.209814 352.144796 
L 86.562508 347.275416 
L 85.024954 342.370688 
L 83.597922 337.433054 
L 82.28213 332.464972 
L 81.07832 327.468903 
L 79.987044 322.447352 
L 79.008796 317.40283 
L 78.144072 312.337854 
L 77.393307 307.254941 
L 76.756965 302.156623 
L 76.23531 297.045447 
L 75.828555 291.923967 
L 75.536909 286.794736 
L 75.360523 281.660306 
L 75.299574 276.523242 
L 75.354039 271.386106 
L 75.523842 266.25146 
L 75.808907 261.121863 
L 76.209097 255.999868 
L 76.724301 250.888045 
L 77.354207 245.788938 
L 78.098453 240.705081 
L 78.956678 235.639012 
L 79.92846 230.593252 
L 81.013399 225.570343 
L 82.2109 220.572777 
L 83.52032 215.603034 
L 84.941015 210.663595 
L 86.472284 205.756919 
L 88.113444 200.885488 
L 89.863624 196.051712 
L 91.721907 191.257985 
L 93.687377 186.506701 
L 95.759059 181.800227 
L 97.935998 177.140952 
L 100.217058 172.531175 
L 102.601058 167.973174 
L 105.08682 163.469227 
L 107.673111 159.021576 
L 110.358714 154.632493 
L 113.14224 150.304134 
L 116.022262 146.038633 
L 118.997355 141.838123 
L 122.066038 137.704696 
L 125.226852 133.640474 
L 128.47817 129.647446 
L 131.818333 125.727575 
L 135.245681 121.882822 
L 138.758495 118.115103 
L 142.355101 114.426364 
L 146.033629 110.818402 
L 149.792168 107.29298 
L 153.628808 103.851863 
L 157.541533 100.496759 
L 161.528478 97.229421 
L 165.587381 94.051417 
L 169.715904 90.964279 
L 173.911707 87.969537 
L 178.172224 85.068647 
L 182.495185 82.263141 
L 186.877476 79.554293 
L 191.315827 76.943329 
L 195.806966 74.431474 
L 204.933408 69.709667 
L 214.224896 65.397016 
L 223.644681 61.49977 
L 233.153313 58.023193 
L 242.710578 54.96992 
L 252.277906 52.341448 
L 261.822243 50.137458 
L 271.322251 48.356338 
L 280.763798 46.995781 
L 290.151354 46.053298 
L 299.496871 45.52669 
L 308.822339 45.414489 
L 318.153479 45.716529 
L 327.516532 46.433457 
L 336.927768 47.567243 
L 346.39661 49.120183 
L 355.919238 51.094888 
L 365.477277 53.493199 
L 375.044686 56.316498 
L 384.584577 59.564013 
L 394.057632 63.23386 
L 403.423217 67.322201 
L 412.643562 71.823195 
L 417.187889 74.226378 
L 421.683227 76.729924 
L 426.126138 79.332656 
L 430.513185 82.033396 
L 434.841201 84.830884 
L 439.10709 87.723854 
L 443.308368 90.710827 
L 447.442611 93.790307 
L 451.50739 96.960798 
L 455.500415 100.220737 
L 459.419443 103.568572 
L 463.262501 107.002583 
L 467.027637 110.521032 
L 470.712903 114.122184 
L 474.316421 117.804246 
L 477.836303 121.565441 
L 481.270842 125.403844 
L 484.618349 129.317517 
L 487.877134 133.304523 
L 491.045573 137.362876 
L 494.122004 141.490602 
L 497.104957 145.685599 
L 499.992973 149.945754 
L 502.784594 154.268957 
L 505.478433 158.653052 
L 508.073061 163.095896 
L 510.567254 167.595235 
L 512.959797 172.148809 
L 515.249479 176.754358 
L 517.435162 181.409589 
L 519.515668 186.11221 
L 521.490032 190.859848 
L 523.357301 195.650122 
L 525.116524 200.480652 
L 526.766827 205.349033 
L 528.307297 210.252857 
L 529.73724 215.189658 
L 531.055977 220.156965 
L 532.262827 225.152308 
L 533.357194 230.173198 
L 534.338439 235.217144 
L 535.20615 240.281616 
L 535.959929 245.364084 
L 536.599375 250.462018 
L 537.124175 255.572879 
L 537.533972 260.694119 
L 537.828643 265.823179 
L 538.008074 270.957502 
L 538.072151 276.094528 
L 538.020847 281.231699 
L 537.854093 286.366444 
L 537.572054 291.496206 
L 537.174902 296.618431 
L 536.662812 301.730563 
L 536.036042 306.830056 
L 535.294814 311.914348 
L 534.439578 316.980917 
L 533.470791 322.027242 
L 532.388911 327.050803 
L 531.194484 332.0491 
L 529.888014 337.01961 
L 528.470233 341.959877 
L 526.941878 346.867447 
L 525.303685 351.739865 
L 523.556477 356.574707 
L 521.701038 361.369523 
L 519.738372 366.121952 
L 517.669486 370.829638 
L 515.495385 375.490223 
L 513.217159 380.101388 
L 510.835864 384.660786 
L 508.352759 389.166183 
L 505.769111 393.615347 
L 503.086182 398.006046 
L 500.305316 402.336099 
L 497.427825 406.603287 
L 494.455212 410.805533 
L 491.388984 414.940757 
L 488.230648 419.006881 
L 484.981787 423.001886 
L 481.643946 426.923715 
L 478.218865 430.770466 
L 474.70828 434.540243 
L 471.113931 438.231147 
L 467.437648 441.841349 
L 463.681177 445.368972 
L 459.84654 448.812326 
L 455.935757 452.169718 
L 451.950849 455.43946 
L 447.894009 458.619943 
L 443.767214 461.709495 
L 439.573048 464.706676 
L 435.314094 467.610047 
L 430.992944 470.418172 
L 426.612514 473.12972 
L 422.175439 475.743266 
L 417.685435 478.257716 
L 408.561513 482.984954 
L 399.272143 487.303178 
L 389.853732 491.205859 
L 380.345739 494.688297 
L 370.789315 497.747079 
L 361.221724 500.381282 
L 351.676619 502.590942 
L 342.176952 504.377698 
L 332.733122 505.743806 
L 323.345858 506.691913 
L 313.999738 507.224054 
L 304.67405 507.341761 
L 295.342709 507.045319 
L 285.981499 506.333884 
L 276.56982 505.205715 
L 267.102128 503.65837 
L 257.58041 501.689347 
L 248.022032 499.296585 
L 238.455071 496.479175 
L 228.914391 493.23715 
L 219.440141 489.572987 
L 210.072834 485.490223 
L 200.850641 480.994591 
L 196.304773 478.594193 
L 191.807826 476.093381 
L 187.363644 473.49323 
L 182.975256 470.795035 
L 178.645687 468.000096 
L 174.377933 465.109722 
L 170.174766 462.125289 
L 166.038786 459.048221 
L 161.972214 455.880102 
L 157.977271 452.622515 
L 154.056161 449.277055 
L 150.210989 445.845363 
L 146.443787 442.329115 
L 142.756408 438.730117 
L 139.150703 435.050178 
L 135.628511 431.291115 
L 132.191626 427.454783 
L 128.841807 423.543067 
L 125.580666 419.557967 
L 122.409815 415.501481 
L 119.330853 411.375619 
L 116.34534 407.182419 
L 113.454806 402.923953 
L 110.660628 398.602383 
L 107.964182 394.219877 
L 105.366829 389.778605 
L 102.869893 385.280768 
L 100.474658 380.728593 
L 98.182252 376.124384 
L 95.993799 371.470444 
L 93.910408 366.769083 
L 91.93315 362.022633 
L 90.06305 357.233451 
L 88.300969 352.403951 
L 86.647769 347.536546 
L 85.104291 342.633655 
L 83.67134 337.697714 
L 82.349668 332.731178 
L 81.139861 327.736542 
L 80.042505 322.716301 
L 79.058164 317.67295 
L 78.18737 312.608999 
L 77.430588 307.526972 
L 76.788124 302.429413 
L 76.260281 297.318866 
L 75.847339 292.197874 
L 75.549547 287.068989 
L 75.367083 281.934772 
L 75.299964 276.797785 
L 75.348208 271.660588 
L 75.511809 266.525741 
L 75.790728 261.395808 
L 76.184854 256.273352 
L 76.693917 251.160922 
L 77.317647 246.061064 
L 78.055753 240.976321 
L 78.907909 235.909237 
L 79.873715 230.862347 
L 80.952619 225.838154 
L 82.144067 220.839158 
L 83.447484 215.867854 
L 84.862263 210.926734 
L 86.387719 206.018274 
L 88.023025 201.144897 
L 89.767351 196.30903 
L 91.619843 191.513086 
L 93.579622 186.759477 
L 95.645729 182.050585 
L 97.817067 177.388728 
L 100.092543 172.776224 
L 102.471037 168.215379 
L 104.951405 163.708491 
L 107.532427 159.25782 
L 110.212752 154.86555 
L 112.991035 150.533863 
L 115.865903 146.264925 
L 118.835966 142.060895 
L 121.899753 137.923883 
L 125.055678 133.855909 
L 128.302157 129.858993 
L 131.63758 125.935135 
L 135.060326 122.086328 
L 138.568693 118.314504 
L 142.160858 114.621494 
L 145.835002 111.009131 
L 149.589262 107.47922 
L 153.421796 104.033566 
L 157.330649 100.673895 
L 161.313659 97.401821 
L 165.368666 94.218956 
L 169.493414 91.126879 
L 173.685726 88.127176 
L 177.943157 85.221333 
L 182.262809 82.410688 
L 186.641785 79.696577 
L 191.077038 77.080289 
L 195.565532 74.563127 
L 204.687456 69.830618 
L 213.974665 65.506778 
L 223.391584 61.598555 
L 232.89852 58.110568 
L 242.455163 55.045948 
L 252.022042 52.406206 
L 261.56814 50.190814 
L 271.068541 48.398432 
L 275.797893 47.660139 
L 275.797893 47.660139 
" clip-path="url(#pd6e8f301eb)" style="fill: none; stroke-dasharray: 22.4,5.6,3.5,5.6; stroke-dashoffset: 0; stroke: #0000ff; stroke-opacity: 0.8; stroke-width: 3.5"/>
   </g>
   <g id="patch_3">
    <path d="M 52.160938 530.438125 
L 52.160938 22.318125 
" style="fill: none; stroke: #000000; stroke-width: 0.8; stroke-linejoin: miter; stroke-linecap: square"/>
   </g>
   <g id="patch_4">
    <path d="M 561.210937 530.438125 
L 561.210937 22.318125 
" style="fill: none; stroke: #000000; stroke-width: 0.8; stroke-linejoin: miter; stroke-linecap: square"/>
   </g>
   <g id="patch_5">
    <path d="M 52.160937 530.438125 
L 561.210937 530.438125 
" style="fill: none; stroke: #000000; stroke-width: 0.8; stroke-linejoin: miter; stroke-linecap: square"/>
   </g>
   <g id="patch_6">
    <path d="M 52.160937 22.318125 
L 561.210937 22.318125 
" style="fill: none; stroke: #000000; stroke-width: 0.8; stroke-linejoin: miter; stroke-linecap: square"/>
   </g>
   <g id="text_19">
    <!-- Phase Portrait (x0 vs x1) -->
    <g transform="translate(232.994687 16.318125) scale(0.12 -0.12)">
     <defs>
      <path id="DejaVuSans-50" d="M 1259 4147 
L 1259 2394 
L 2053 2394 
Q 2494 2394 2734 2622 
Q 2975 2850 2975 3272 
Q 2975 3691 2734 3919 
Q 2494 4147 2053 4147 
L 1259 4147 
z
M 628 4666 
L 2053 4666 
Q 2838 4666 3239 4311 
Q 3641 3956 3641 3272 
Q 3641 2581 3239 2228 
Q 2838 1875 2053 1875 
L 1259 1875 
L 1259 0 
L 628 0 
L 628 4666 
z
" transform="scale(0.015625)"/>
      <path id="DejaVuSans-68" d="M 3513 2113 
L 3513 0 
L 2938 0 
L 2938 2094 
Q 2938 2591 2744 2837 
Q 2550 3084 2163 3084 
Q 1697 3084 1428 2787 
Q 1159 2491 1159 1978 
L 1159 0 
L 581 0 
L 581 4863 
L 1159 4863 
L 1159 2956 
Q 1366 3272 1645 3428 
Q 1925 3584 2291 3584 
Q 2894 3584 3203 3211 
Q 3513 2838 3513 2113 
z
" transform="scale(0.015625)"/>
      <path id="DejaVuSans-61" d="M 2194 1759 
Q 1497 1759 1228 1600 
Q 959 1441 959 1056 
Q 959 750 1161 570 
Q 1363 391 1709 391 
Q 2188 391 2477 730 
Q 2766 1069 2766 1631 
L 2766 1759 
L 2194 1759 
z
M 3341 1997 
L 3341 0 
L 2766 0 
L 2766 531 
Q 2569 213 2275 61 
Q 1981 -91 1556 -91 
Q 1019 -91 701 211 
Q 384 513 384 1019 
Q 384 1609 779 1909 
Q 1175 2209 1959 2209 
L 2766 2209 
L 2766 2266 
Q 2766 2663 2505 2880 
Q 2244 3097 1772 3097 
Q 1472 3097 1187 3025 
Q 903 2953 641 2809 
L 641 3341 
Q 956 3463 1253 3523 
Q 1550 3584 1831 3584 
Q 2591 3584 2966 3190 
Q 3341 2797 3341 1997 
z
" transform="scale(0.015625)"/>
      <path id="DejaVuSans-73" d="M 2834 3397 
L 2834 2853 
Q 2591 2978 2328 3040 
Q 2066 3103 1784 3103 
Q 1356 3103 1142 2972 
Q 928 2841 928 2578 
Q 928 2378 1081 2264 
Q 1234 2150 1697 2047 
L 1894 2003 
Q 2506 1872 2764 1633 
Q 3022 1394 3022 966 
Q 3022 478 2636 193 
Q 2250 -91 1575 -91 
Q 1294 -91 989 -36 
Q 684 19 347 128 
L 347 722 
Q 666 556 975 473 
Q 1284 391 1588 391 
Q 1994 391 2212 530 
Q 2431 669 2431 922 
Q 2431 1156 2273 1281 
Q 2116 1406 1581 1522 
L 1381 1569 
Q 847 1681 609 1914 
Q 372 2147 372 2553 
Q 372 3047 722 3315 
Q 1072 3584 1716 3584 
Q 2034 3584 2315 3537 
Q 2597 3491 2834 3397 
z
" transform="scale(0.015625)"/>
      <path id="DejaVuSans-65" d="M 3597 1894 
L 3597 1613 
L 953 1613 
Q 991 1019 1311 708 
Q 1631 397 2203 397 
Q 2534 397 2845 478 
Q 3156 559 3463 722 
L 3463 178 
Q 3153 47 2828 -22 
Q 2503 -91 2169 -91 
Q 1331 -91 842 396 
Q 353 884 353 1716 
Q 353 2575 817 3079 
Q 1281 3584 2069 3584 
Q 2775 3584 3186 3129 
Q 3597 2675 3597 1894 
z
M 3022 2063 
Q 3016 2534 2758 2815 
Q 2500 3097 2075 3097 
Q 1594 3097 1305 2825 
Q 1016 2553 972 2059 
L 3022 2063 
z
" transform="scale(0.015625)"/>
      <path id="DejaVuSans-20" transform="scale(0.015625)"/>
      <path id="DejaVuSans-6f" d="M 1959 3097 
Q 1497 3097 1228 2736 
Q 959 2375 959 1747 
Q 959 1119 1226 758 
Q 1494 397 1959 397 
Q 2419 397 2687 759 
Q 2956 1122 2956 1747 
Q 2956 2369 2687 2733 
Q 2419 3097 1959 3097 
z
M 1959 3584 
Q 2709 3584 3137 3096 
Q 3566 2609 3566 1747 
Q 3566 888 3137 398 
Q 2709 -91 1959 -91 
Q 1206 -91 779 398 
Q 353 888 353 1747 
Q 353 2609 779 3096 
Q 1206 3584 1959 3584 
z
" transform="scale(0.015625)"/>
      <path id="DejaVuSans-72" d="M 2631 2963 
Q 2534 3019 2420 3045 
Q 2306 3072 2169 3072 
Q 1681 3072 1420 2755 
Q 1159 2438 1159 1844 
L 1159 0 
L 581 0 
L 581 3500 
L 1159 3500 
L 1159 2956 
Q 1341 3275 1631 3429 
Q 1922 3584 2338 3584 
Q 2397 3584 2469 3576 
Q 2541 3569 2628 3553 
L 2631 2963 
z
" transform="scale(0.015625)"/>
      <path id="DejaVuSans-74" d="M 1172 4494 
L 1172 3500 
L 2356 3500 
L 2356 3053 
L 1172 3053 
L 1172 1153 
Q 1172 725 1289 603 
Q 1406 481 1766 481 
L 2356 481 
L 2356 0 
L 1766 0 
Q 1100 0 847 248 
Q 594 497 594 1153 
L 594 3053 
L 172 3053 
L 172 3500 
L 594 3500 
L 594 4494 
L 1172 4494 
z
" transform="scale(0.015625)"/>
      <path id="DejaVuSans-69" d="M 603 3500 
L 1178 3500 
L 1178 0 
L 603 0 
L 603 3500 
z
M 603 4863 
L 1178 4863 
L 1178 4134 
L 603 4134 
L 603 4863 
z
" transform="scale(0.015625)"/>
      <path id="DejaVuSans-28" d="M 1984 4856 
Q 1566 4138 1362 3434 
Q 1159 2731 1159 2009 
Q 1159 1288 1364 580 
Q 1569 -128 1984 -844 
L 1484 -844 
Q 1016 -109 783 600 
Q 550 1309 550 2009 
Q 550 2706 781 3412 
Q 1013 4119 1484 4856 
L 1984 4856 
z
" transform="scale(0.015625)"/>
      <path id="DejaVuSans-76" d="M 191 3500 
L 800 3500 
L 1894 563 
L 2988 3500 
L 3597 3500 
L 2284 0 
L 1503 0 
L 191 3500 
z
" transform="scale(0.015625)"/>
      <path id="DejaVuSans-29" d="M 513 4856 
L 1013 4856 
Q 1481 4119 1714 3412 
Q 1947 2706 1947 2009 
Q 1947 1309 1714 600 
Q 1481 -109 1013 -844 
L 513 -844 
Q 928 -128 1133 580 
Q 1338 1288 1338 2009 
Q 1338 2731 1133 3434 
Q 928 4138 513 4856 
z
" transform="scale(0.015625)"/>
     </defs>
     <use xlink:href="#DejaVuSans-50"/>
     <use xlink:href="#DejaVuSans-68" transform="translate(60.302734 0)"/>
     <use xlink:href="#DejaVuSans-61" transform="translate(123.681641 0)"/>
     <use xlink:href="#DejaVuSans-73" transform="translate(184.960938 0)"/>
     <use xlink:href="#DejaVuSans-65" transform="translate(237.060547 0)"/>
     <use xlink:href="#DejaVuSans-20" transform="translate(298.583984 0)"/>
     <use xlink:href="#DejaVuSans-50" transform="translate(330.371094 0)"/>
     <use xlink:href="#DejaVuSans-6f" transform="translate(387.048828 0)"/>
     <use xlink:href="#DejaVuSans-72" transform="translate(448.230469 0)"/>
     <use xlink:href="#DejaVuSans-74" transform="translate(489.34375 0)"/>
     <use xlink:href="#DejaVuSans-72" transform="translate(528.552734 0)"/>
     <use xlink:href="#DejaVuSans-61" transform="translate(569.666016 0)"/>
     <use xlink:href="#DejaVuSans-69" transform="translate(630.945312 0)"/>
     <use xlink:href="#DejaVuSans-74" transform="translate(658.728516 0)"/>
     <use xlink:href="#DejaVuSans-20" transform="translate(697.9375 0)"/>
     <use xlink:href="#DejaVuSans-28" transform="translate(729.724609 0)"/>
     <use xlink:href="#DejaVuSans-78" transform="translate(768.738281 0)"/>
     <use xlink:href="#DejaVuSans-30" transform="translate(827.917969 0)"/>
     <use xlink:href="#DejaVuSans-20" transform="translate(891.541016 0)"/>
     <use xlink:href="#DejaVuSans-76" transform="translate(923.328125 0)"/>
     <use xlink:href="#DejaVuSans-73" transform="translate(982.507812 0)"/>
     <use xlink:href="#DejaVuSans-20" transform="translate(1034.607422 0)"/>
     <use xlink:href="#DejaVuSans-78" transform="translate(1066.394531 0)"/>
     <use xlink:href="#DejaVuSans-31" transform="translate(1125.574219 0)"/>
     <use xlink:href="#DejaVuSans-29" transform="translate(1189.197266 0)"/>
    </g>
   </g>
   <g id="line2d_19">
    <path d="M 536.630325 250.734839 
L 537.143892 255.918137 
L 537.54202 261.099811 
L 537.824713 266.277284 
L 537.992086 271.447996 
L 538.044382 276.609409 
L 537.981845 281.758986 
L 537.804753 286.894203 
L 537.513391 292.012525 
L 537.108171 297.111452 
L 536.589613 302.188518 
L 535.958239 307.241257 
L 535.214605 312.267219 
L 534.359274 317.263945 
L 533.392932 322.229025 
L 532.31637 327.160092 
L 531.130377 332.054784 
L 529.835778 336.910751 
L 528.433402 341.725642 
L 526.9242 346.497164 
L 525.309219 351.22308 
L 523.589504 355.901154 
L 521.766133 360.529171 
L 519.840192 365.104911 
L 517.812879 369.626226 
L 515.685481 374.091036 
L 513.459284 378.497258 
L 511.135606 382.842835 
L 508.715768 387.125704 
L 506.201202 391.343891 
L 503.593415 395.495492 
L 500.893915 399.578602 
L 498.10424 403.591348 
L 495.22593 407.531847 
L 492.260627 411.398319 
L 489.21004 415.18906 
L 486.075878 418.902365 
L 482.859875 422.536563 
L 479.56377 426.089974 
L 476.189392 429.561031 
L 472.738629 432.948249 
L 469.213366 436.250142 
L 465.615512 439.465259 
L 461.946981 442.592142 
L 458.209765 445.629455 
L 454.405901 448.575946 
L 450.537431 451.430364 
L 446.606409 454.191495 
L 442.6149 456.858115 
L 438.56503 459.429136 
L 434.458965 461.903552 
L 430.29887 464.280358 
L 426.086921 466.558588 
L 417.516257 470.815568 
L 408.764915 474.668021 
L 399.851035 478.110114 
L 390.793002 481.136795 
L 381.609449 483.744134 
L 372.319111 485.928653 
L 362.940902 487.688112 
L 353.493793 489.02091 
L 343.99682 489.926253 
L 334.469018 490.404465 
L 324.929422 490.456326 
L 315.396971 490.083834 
L 305.89052 489.289609 
L 296.428811 488.077056 
L 287.030342 486.450643 
L 277.713511 484.41527 
L 268.496354 481.976987 
L 259.396693 479.142405 
L 250.432064 475.918871 
L 241.619536 472.314683 
L 232.975986 468.338533 
L 224.517684 464.00013 
L 216.260573 459.309668 
L 208.22015 454.277985 
L 200.411255 448.916719 
L 192.848453 443.237843 
L 185.545489 437.254168 
L 178.515692 430.978894 
L 171.771809 424.425739 
L 165.325775 417.609037 
L 159.189181 410.543384 
L 153.372635 403.243996 
L 147.886259 395.726366 
L 142.739484 388.006357 
L 137.940825 380.100238 
L 133.498401 372.024455 
L 129.419232 363.795831 
L 125.709809 355.431342 
L 122.375865 346.948172 
L 119.422154 338.363689 
L 116.853001 329.69534 
L 114.671578 320.960697 
L 112.880511 312.177358 
L 111.481635 303.362956 
L 110.475794 294.535082 
L 109.863398 285.711314 
L 109.643698 276.909092 
L 109.815416 268.145766 
L 110.376484 259.43854 
L 111.323887 250.804369 
L 112.654183 242.260096 
L 114.36283 233.82218 
L 116.444795 225.506879 
L 118.894298 217.33014 
L 121.704697 209.307464 
L 124.868953 201.454153 
L 128.379042 193.784902 
L 132.2265 186.31411 
L 136.402206 179.055709 
L 140.896295 172.023028 
L 145.698559 165.229111 
L 150.797957 158.686209 
L 156.183093 152.406201 
L 161.842019 146.40037 
L 167.762205 140.679265 
L 173.930843 135.25309 
L 180.334485 130.131108 
L 186.959422 125.322152 
L 193.791532 120.834362 
L 200.816289 116.675059 
L 208.018971 112.851168 
L 215.384434 109.368578 
L 222.897378 106.232713 
L 230.542248 103.448246 
L 238.303276 101.018981 
L 246.164587 98.9483 
L 254.110124 97.238507 
L 262.123775 95.89143 
L 270.189348 94.908118 
L 278.29063 94.288758 
L 286.411397 94.0331 
L 294.535483 94.139832 
L 302.646771 94.607176 
L 310.729239 95.432591 
L 318.767029 96.612714 
L 326.744371 98.143762 
L 334.645781 100.020947 
L 342.455927 102.239058 
L 350.159735 104.792167 
L 357.742472 107.673605 
L 365.189578 110.876319 
L 372.487 114.392362 
L 379.620916 118.213416 
L 386.57792 122.330536 
L 393.345095 126.734147 
L 399.909782 131.414343 
L 406.260007 136.360478 
L 412.384104 141.561605 
L 418.270953 147.006265 
L 423.910042 152.682512 
L 429.291188 158.578135 
L 434.405037 164.680371 
L 439.242601 170.976236 
L 443.795537 177.452377 
L 448.056199 184.095112 
L 452.017322 190.890575 
L 455.672571 197.824557 
L 459.016013 204.882718 
L 462.042429 212.050507 
L 464.747347 219.313212 
L 467.126713 226.656029 
L 469.177449 234.06403 
L 470.896899 241.522251 
L 472.283156 249.015681 
L 473.335067 256.529319 
L 474.051914 264.048171 
L 474.433954 271.557334 
L 474.481867 279.041964 
L 474.197073 286.487336 
L 473.581721 293.878903 
L 472.638388 301.202212 
L 471.370582 308.443118 
L 469.782206 315.587618 
L 467.877865 322.621991 
L 465.662831 329.532836 
L 463.142777 336.306944 
L 460.324215 342.931598 
L 457.214009 349.394303 
L 453.819651 355.682989 
L 450.149211 361.786033 
L 446.211107 367.692087 
L 442.01447 373.390449 
L 437.568726 378.870713 
L 432.883821 384.123011 
L 427.970163 389.138026 
L 422.838444 393.906783 
L 417.499911 398.421079 
L 411.966028 402.673049 
L 406.248656 406.655468 
L 400.359981 410.361725 
L 394.312395 413.785604 
L 388.11866 416.921745 
L 381.791677 419.765154 
L 375.344595 422.31154 
L 368.790745 424.557263 
L 362.143572 426.499107 
L 355.416697 428.134753 
L 348.623794 429.462256 
L 341.778629 430.480404 
L 334.894998 431.188639 
L 327.986721 431.586835 
L 321.06759 431.67576 
L 314.15137 431.456542 
L 307.251752 430.931042 
L 300.382317 430.101738 
L 293.556573 428.971533 
L 286.787805 427.544173 
L 280.089195 425.823737 
L 273.47369 423.814997 
L 266.953998 421.523279 
L 260.54266 418.954304 
L 254.251816 416.114546 
L 248.093437 413.01077 
L 242.079105 409.65036 
L 236.220057 406.041164 
L 230.527273 402.191381 
L 225.011181 398.109831 
L 219.681985 393.805579 
L 214.549363 389.288196 
L 209.622567 384.567616 
L 204.910513 379.654054 
L 200.421447 374.558198 
L 196.163345 369.290914 
L 192.143553 363.863444 
L 188.368927 358.287276 
L 184.845933 352.574097 
L 181.580279 346.735895 
L 178.577373 340.78477 
L 175.841923 334.733044 
L 173.378108 328.593164 
L 171.189682 322.377683 
L 169.279592 316.099275 
L 167.650476 309.770656 
L 166.304227 303.404598 
L 165.242208 297.013879 
L 164.465334 290.611285 
L 163.973714 284.20954 
L 163.767143 277.82134 
L 163.844675 271.459273 
L 164.204852 265.135817 
L 164.845769 258.863357 
L 165.764754 252.654047 
L 166.958838 246.519944 
L 168.424341 240.472836 
L 170.157119 234.524302 
L 172.152606 228.685729 
L 174.405542 222.968115 
L 176.910397 217.382308 
L 179.661005 211.938737 
L 182.650795 206.647533 
L 185.872825 201.518552 
L 189.319561 196.561127 
L 192.98324 191.784391 
L 196.855566 187.196934 
L 200.92792 182.80698 
L 205.191375 178.622403 
L 209.636542 174.650453 
L 214.253857 170.898141 
L 219.033348 167.371838 
L 223.964811 164.077503 
L 229.037818 161.020686 
L 234.241626 158.206248 
L 239.565376 155.638783 
L 244.997947 153.32218 
L 250.528086 151.259893 
L 256.144406 149.45493 
L 261.835366 147.909579 
L 267.589371 146.625845 
L 273.394722 145.605003 
L 279.239688 144.847886 
L 285.112505 144.354875 
L 291.001414 144.125637 
L 296.89467 144.159513 
L 299.839272 144.274726 
L 299.839272 144.274726 
" clip-path="url(#pd6e8f301eb)" style="fill: none; stroke-dasharray: 12.95,5.6; stroke-dashoffset: 0; stroke: #ff0000; stroke-opacity: 0.8; stroke-width: 3.5"/>
   </g>
   <g id="legend_1">
    <g id="patch_7">
     <path d="M 234.010937 299.895312 
L 379.360937 299.895312 
Q 381.360937 299.895312 381.360937 297.895312 
L 381.360937 254.860937 
Q 381.360937 252.860937 379.360937 252.860937 
L 234.010937 252.860937 
Q 232.010937 252.860937 232.010937 254.860937 
L 232.010937 297.895312 
Q 232.010937 299.895312 234.010937 299.895312 
z
" style="fill: #ffffff; opacity: 0.8; stroke: #cccccc; stroke-linejoin: miter"/>
    </g>
    <g id="line2d_20">
     <path d="M 236.010937 260.959375 
L 246.010937 260.959375 
L 256.010937 260.959375 
" style="fill: none; stroke: #000000; stroke-opacity: 0.3; stroke-width: 7; stroke-linecap: square"/>
    </g>
    <g id="text_20">
     <!-- True/Underlying model -->
     <g transform="translate(264.010937 264.459375) scale(0.1 -0.1)">
      <defs>
       <path id="DejaVuSans-54" d="M -19 4666 
L 3928 4666 
L 3928 4134 
L 2272 4134 
L 2272 0 
L 1638 0 
L 1638 4134 
L -19 4134 
L -19 4666 
z
" transform="scale(0.015625)"/>
       <path id="DejaVuSans-75" d="M 544 1381 
L 544 3500 
L 1119 3500 
L 1119 1403 
Q 1119 906 1312 657 
Q 1506 409 1894 409 
Q 2359 409 2629 706 
Q 2900 1003 2900 1516 
L 2900 3500 
L 3475 3500 
L 3475 0 
L 2900 0 
L 2900 538 
Q 2691 219 2414 64 
Q 2138 -91 1772 -91 
Q 1169 -91 856 284 
Q 544 659 544 1381 
z
M 1991 3584 
L 1991 3584 
z
" transform="scale(0.015625)"/>
       <path id="DejaVuSans-2f" d="M 1625 4666 
L 2156 4666 
L 531 -594 
L 0 -594 
L 1625 4666 
z
" transform="scale(0.015625)"/>
       <path id="DejaVuSans-55" d="M 556 4666 
L 1191 4666 
L 1191 1831 
Q 1191 1081 1462 751 
Q 1734 422 2344 422 
Q 2950 422 3222 751 
Q 3494 1081 3494 1831 
L 3494 4666 
L 4128 4666 
L 4128 1753 
Q 4128 841 3676 375 
Q 3225 -91 2344 -91 
Q 1459 -91 1007 375 
Q 556 841 556 1753 
L 556 4666 
z
" transform="scale(0.015625)"/>
       <path id="DejaVuSans-6e" d="M 3513 2113 
L 3513 0 
L 2938 0 
L 2938 2094 
Q 2938 2591 2744 2837 
Q 2550 3084 2163 3084 
Q 1697 3084 1428 2787 
Q 1159 2491 1159 1978 
L 1159 0 
L 581 0 
L 581 3500 
L 1159 3500 
L 1159 2956 
Q 1366 3272 1645 3428 
Q 1925 3584 2291 3584 
Q 2894 3584 3203 3211 
Q 3513 2838 3513 2113 
z
" transform="scale(0.015625)"/>
       <path id="DejaVuSans-64" d="M 2906 2969 
L 2906 4863 
L 3481 4863 
L 3481 0 
L 2906 0 
L 2906 525 
Q 2725 213 2448 61 
Q 2172 -91 1784 -91 
Q 1150 -91 751 415 
Q 353 922 353 1747 
Q 353 2572 751 3078 
Q 1150 3584 1784 3584 
Q 2172 3584 2448 3432 
Q 2725 3281 2906 2969 
z
M 947 1747 
Q 947 1113 1208 752 
Q 1469 391 1925 391 
Q 2381 391 2643 752 
Q 2906 1113 2906 1747 
Q 2906 2381 2643 2742 
Q 2381 3103 1925 3103 
Q 1469 3103 1208 2742 
Q 947 2381 947 1747 
z
" transform="scale(0.015625)"/>
       <path id="DejaVuSans-6c" d="M 603 4863 
L 1178 4863 
L 1178 0 
L 603 0 
L 603 4863 
z
" transform="scale(0.015625)"/>
       <path id="DejaVuSans-79" d="M 2059 -325 
Q 1816 -950 1584 -1140 
Q 1353 -1331 966 -1331 
L 506 -1331 
L 506 -850 
L 844 -850 
Q 1081 -850 1212 -737 
Q 1344 -625 1503 -206 
L 1606 56 
L 191 3500 
L 800 3500 
L 1894 763 
L 2988 3500 
L 3597 3500 
L 2059 -325 
z
" transform="scale(0.015625)"/>
       <path id="DejaVuSans-67" d="M 2906 1791 
Q 2906 2416 2648 2759 
Q 2391 3103 1925 3103 
Q 1463 3103 1205 2759 
Q 947 2416 947 1791 
Q 947 1169 1205 825 
Q 1463 481 1925 481 
Q 2391 481 2648 825 
Q 2906 1169 2906 1791 
z
M 3481 434 
Q 3481 -459 3084 -895 
Q 2688 -1331 1869 -1331 
Q 1566 -1331 1297 -1286 
Q 1028 -1241 775 -1147 
L 775 -588 
Q 1028 -725 1275 -790 
Q 1522 -856 1778 -856 
Q 2344 -856 2625 -561 
Q 2906 -266 2906 331 
L 2906 616 
Q 2728 306 2450 153 
Q 2172 0 1784 0 
Q 1141 0 747 490 
Q 353 981 353 1791 
Q 353 2603 747 3093 
Q 1141 3584 1784 3584 
Q 2172 3584 2450 3431 
Q 2728 3278 2906 2969 
L 2906 3500 
L 3481 3500 
L 3481 434 
z
" transform="scale(0.015625)"/>
       <path id="DejaVuSans-6d" d="M 3328 2828 
Q 3544 3216 3844 3400 
Q 4144 3584 4550 3584 
Q 5097 3584 5394 3201 
Q 5691 2819 5691 2113 
L 5691 0 
L 5113 0 
L 5113 2094 
Q 5113 2597 4934 2840 
Q 4756 3084 4391 3084 
Q 3944 3084 3684 2787 
Q 3425 2491 3425 1978 
L 3425 0 
L 2847 0 
L 2847 2094 
Q 2847 2600 2669 2842 
Q 2491 3084 2119 3084 
Q 1678 3084 1418 2786 
Q 1159 2488 1159 1978 
L 1159 0 
L 581 0 
L 581 3500 
L 1159 3500 
L 1159 2956 
Q 1356 3278 1631 3431 
Q 1906 3584 2284 3584 
Q 2666 3584 2933 3390 
Q 3200 3197 3328 2828 
z
" transform="scale(0.015625)"/>
      </defs>
      <use xlink:href="#DejaVuSans-54"/>
      <use xlink:href="#DejaVuSans-72" transform="translate(46.333984 0)"/>
      <use xlink:href="#DejaVuSans-75" transform="translate(87.447266 0)"/>
      <use xlink:href="#DejaVuSans-65" transform="translate(150.826172 0)"/>
      <use xlink:href="#DejaVuSans-2f" transform="translate(212.349609 0)"/>
      <use xlink:href="#DejaVuSans-55" transform="translate(246.041016 0)"/>
      <use xlink:href="#DejaVuSans-6e" transform="translate(319.234375 0)"/>
      <use xlink:href="#DejaVuSans-64" transform="translate(382.613281 0)"/>
      <use xlink:href="#DejaVuSans-65" transform="translate(446.089844 0)"/>
      <use xlink:href="#DejaVuSans-72" transform="translate(507.613281 0)"/>
      <use xlink:href="#DejaVuSans-6c" transform="translate(548.726562 0)"/>
      <use xlink:href="#DejaVuSans-79" transform="translate(576.509766 0)"/>
      <use xlink:href="#DejaVuSans-69" transform="translate(635.689453 0)"/>
      <use xlink:href="#DejaVuSans-6e" transform="translate(663.472656 0)"/>
      <use xlink:href="#DejaVuSans-67" transform="translate(726.851562 0)"/>
      <use xlink:href="#DejaVuSans-20" transform="translate(790.328125 0)"/>
      <use xlink:href="#DejaVuSans-6d" transform="translate(822.115234 0)"/>
      <use xlink:href="#DejaVuSans-6f" transform="translate(919.527344 0)"/>
      <use xlink:href="#DejaVuSans-64" transform="translate(980.708984 0)"/>
      <use xlink:href="#DejaVuSans-65" transform="translate(1044.185547 0)"/>
      <use xlink:href="#DejaVuSans-6c" transform="translate(1105.708984 0)"/>
     </g>
    </g>
    <g id="line2d_21">
     <path d="M 236.010937 275.6375 
L 246.010937 275.6375 
L 256.010937 275.6375 
" style="fill: none; stroke-dasharray: 12.95,5.6; stroke-dashoffset: 0; stroke: #ff0000; stroke-opacity: 0.8; stroke-width: 3.5"/>
    </g>
    <g id="text_21">
     <!-- AutoSINDy -->
     <g transform="translate(264.010937 279.1375) scale(0.1 -0.1)">
      <defs>
       <path id="DejaVuSans-41" d="M 2188 4044 
L 1331 1722 
L 3047 1722 
L 2188 4044 
z
M 1831 4666 
L 2547 4666 
L 4325 0 
L 3669 0 
L 3244 1197 
L 1141 1197 
L 716 0 
L 50 0 
L 1831 4666 
z
" transform="scale(0.015625)"/>
       <path id="DejaVuSans-53" d="M 3425 4513 
L 3425 3897 
Q 3066 4069 2747 4153 
Q 2428 4238 2131 4238 
Q 1616 4238 1336 4038 
Q 1056 3838 1056 3469 
Q 1056 3159 1242 3001 
Q 1428 2844 1947 2747 
L 2328 2669 
Q 3034 2534 3370 2195 
Q 3706 1856 3706 1288 
Q 3706 609 3251 259 
Q 2797 -91 1919 -91 
Q 1588 -91 1214 -16 
Q 841 59 441 206 
L 441 856 
Q 825 641 1194 531 
Q 1563 422 1919 422 
Q 2459 422 2753 634 
Q 3047 847 3047 1241 
Q 3047 1584 2836 1778 
Q 2625 1972 2144 2069 
L 1759 2144 
Q 1053 2284 737 2584 
Q 422 2884 422 3419 
Q 422 4038 858 4394 
Q 1294 4750 2059 4750 
Q 2388 4750 2728 4690 
Q 3069 4631 3425 4513 
z
" transform="scale(0.015625)"/>
       <path id="DejaVuSans-49" d="M 628 4666 
L 1259 4666 
L 1259 0 
L 628 0 
L 628 4666 
z
" transform="scale(0.015625)"/>
       <path id="DejaVuSans-4e" d="M 628 4666 
L 1478 4666 
L 3547 763 
L 3547 4666 
L 4159 4666 
L 4159 0 
L 3309 0 
L 1241 3903 
L 1241 0 
L 628 0 
L 628 4666 
z
" transform="scale(0.015625)"/>
       <path id="DejaVuSans-44" d="M 1259 4147 
L 1259 519 
L 2022 519 
Q 2988 519 3436 956 
Q 3884 1394 3884 2338 
Q 3884 3275 3436 3711 
Q 2988 4147 2022 4147 
L 1259 4147 
z
M 628 4666 
L 1925 4666 
Q 3281 4666 3915 4102 
Q 4550 3538 4550 2338 
Q 4550 1131 3912 565 
Q 3275 0 1925 0 
L 628 0 
L 628 4666 
z
" transform="scale(0.015625)"/>
      </defs>
      <use xlink:href="#DejaVuSans-41"/>
      <use xlink:href="#DejaVuSans-75" transform="translate(68.408203 0)"/>
      <use xlink:href="#DejaVuSans-74" transform="translate(131.787109 0)"/>
      <use xlink:href="#DejaVuSans-6f" transform="translate(170.996094 0)"/>
      <use xlink:href="#DejaVuSans-53" transform="translate(232.177734 0)"/>
      <use xlink:href="#DejaVuSans-49" transform="translate(295.654297 0)"/>
      <use xlink:href="#DejaVuSans-4e" transform="translate(325.146484 0)"/>
      <use xlink:href="#DejaVuSans-44" transform="translate(399.951172 0)"/>
      <use xlink:href="#DejaVuSans-79" transform="translate(476.953125 0)"/>
     </g>
    </g>
    <g id="line2d_22">
     <path d="M 236.010937 290.315625 
L 246.010937 290.315625 
L 256.010937 290.315625 
" style="fill: none; stroke-dasharray: 22.4,5.6,3.5,5.6; stroke-dashoffset: 0; stroke: #0000ff; stroke-opacity: 0.8; stroke-width: 3.5"/>
    </g>
    <g id="text_22">
     <!-- Standard PySR -->
     <g transform="translate(264.010937 293.815625) scale(0.1 -0.1)">
      <defs>
       <path id="DejaVuSans-52" d="M 2841 2188 
Q 3044 2119 3236 1894 
Q 3428 1669 3622 1275 
L 4263 0 
L 3584 0 
L 2988 1197 
Q 2756 1666 2539 1819 
Q 2322 1972 1947 1972 
L 1259 1972 
L 1259 0 
L 628 0 
L 628 4666 
L 2053 4666 
Q 2853 4666 3247 4331 
Q 3641 3997 3641 3322 
Q 3641 2881 3436 2590 
Q 3231 2300 2841 2188 
z
M 1259 4147 
L 1259 2491 
L 2053 2491 
Q 2509 2491 2742 2702 
Q 2975 2913 2975 3322 
Q 2975 3731 2742 3939 
Q 2509 4147 2053 4147 
L 1259 4147 
z
" transform="scale(0.015625)"/>
      </defs>
      <use xlink:href="#DejaVuSans-53"/>
      <use xlink:href="#DejaVuSans-74" transform="translate(63.476562 0)"/>
      <use xlink:href="#DejaVuSans-61" transform="translate(102.685547 0)"/>
      <use xlink:href="#DejaVuSans-6e" transform="translate(163.964844 0)"/>
      <use xlink:href="#DejaVuSans-64" transform="translate(227.34375 0)"/>
      <use xlink:href="#DejaVuSans-61" transform="translate(290.820312 0)"/>
      <use xlink:href="#DejaVuSans-72" transform="translate(352.099609 0)"/>
      <use xlink:href="#DejaVuSans-64" transform="translate(391.462891 0)"/>
      <use xlink:href="#DejaVuSans-20" transform="translate(454.939453 0)"/>
      <use xlink:href="#DejaVuSans-50" transform="translate(486.726562 0)"/>
      <use xlink:href="#DejaVuSans-79" transform="translate(547.029297 0)"/>
      <use xlink:href="#DejaVuSans-53" transform="translate(606.208984 0)"/>
      <use xlink:href="#DejaVuSans-52" transform="translate(669.685547 0)"/>
     </g>
    </g>
   </g>
  </g>
 </g>
 <defs>
  <clipPath id="pd6e8f301eb">
   <rect x="52.160938" y="22.318125" width="509.05" height="508.12"/>
  </clipPath>
 </defs>
</svg>
