<?xml version="1.0" encoding="utf-8" standalone="no"?>
<!DOCTYPE svg PUBLIC "-//W3C//DTD SVG 1.1//EN"
  "http://www.w3.org/Graphics/SVG/1.1/DTD/svg11.dtd">
<svg xmlns:xlink="http://www.w3.org/1999/xlink" width="568.837812pt" height="568.578281pt" viewBox="0 0 568.837812 568.578281" xmlns="http://www.w3.org/2000/svg" version="1.1">
 <metadata>
  <rdf:RDF xmlns:dc="http://purl.org/dc/elements/1.1/" xmlns:cc="http://creativecommons.org/ns#" xmlns:rdf="http://www.w3.org/1999/02/22-rdf-syntax-ns#">
   <cc:Work>
    <dc:type rdf:resource="http://purl.org/dc/dcmitype/StillImage"/>
    <dc:date>2026-04-06T19:27:44.620277</dc:date>
    <dc:format>image/svg+xml</dc:format>
    <dc:creator>
     <cc:Agent>
      <dc:title>Matplotlib v3.10.7, https://matplotlib.org/</dc:title>
     </cc:Agent>
    </dc:creator>
   </cc:Work>
  </rdf:RDF>
 </metadata>
 <defs>
  <style type="text/css">*{stroke-linejoin: round; stroke-linecap: butt}</style>
 </defs>
 <g id="figure_1">
  <g id="patch_1">
   <path d="M 0 568.578281 
L 568.837812 568.578281 
L 568.837812 0 
L 0 0 
z
" style="fill: #ffffff"/>
  </g>
  <g id="axes_1">
   <g id="patch_2">
    <path d="M 40.807813 535.587656 
L 561.637812 535.587656 
L 561.637812 21.207656 
L 40.807813 21.207656 
z
" style="fill: #ffffff"/>
   </g>
   <g id="matplotlib.axis_1">
    <g id="xtick_1">
     <g id="line2d_1">
      <path d="M 84.497109 535.587656 
L 84.497109 21.207656 
" clip-path="url(#pc16fde9dad)" style="fill: none; stroke: #cccccc; stroke-width: 0.8; stroke-linecap: round"/>
     </g>
     <g id="line2d_2"/>
     <g id="text_1">
      <!-- −15 -->
      <g style="fill: #262626" transform="translate(76.015859 546.245469) scale(0.1 -0.1)">
       <defs>
        <path id="ArialMT-2212" d="M 3381 1997 
L 356 1997 
L 356 2522 
L 3381 2522 
L 3381 1997 
z
" transform="scale(0.015625)"/>
        <path id="ArialMT-31" d="M 2384 0 
L 1822 0 
L 1822 3584 
Q 1619 3391 1289 3197 
Q 959 3003 697 2906 
L 697 3450 
Q 1169 3672 1522 3987 
Q 1875 4303 2022 4600 
L 2384 4600 
L 2384 0 
z
" transform="scale(0.015625)"/>
        <path id="ArialMT-35" d="M 266 1200 
L 856 1250 
Q 922 819 1161 601 
Q 1400 384 1738 384 
Q 2144 384 2425 690 
Q 2706 997 2706 1503 
Q 2706 1984 2436 2262 
Q 2166 2541 1728 2541 
Q 1456 2541 1237 2417 
Q 1019 2294 894 2097 
L 366 2166 
L 809 4519 
L 3088 4519 
L 3088 3981 
L 1259 3981 
L 1013 2750 
Q 1425 3038 1878 3038 
Q 2478 3038 2890 2622 
Q 3303 2206 3303 1553 
Q 3303 931 2941 478 
Q 2500 -78 1738 -78 
Q 1113 -78 717 272 
Q 322 622 266 1200 
z
" transform="scale(0.015625)"/>
       </defs>
       <use xlink:href="#ArialMT-2212"/>
       <use xlink:href="#ArialMT-31" transform="translate(58.398438 0)"/>
       <use xlink:href="#ArialMT-35" transform="translate(114.013672 0)"/>
      </g>
     </g>
    </g>
    <g id="xtick_2">
     <g id="line2d_3">
      <path d="M 152.847781 535.587656 
L 152.847781 21.207656 
" clip-path="url(#pc16fde9dad)" style="fill: none; stroke: #cccccc; stroke-width: 0.8; stroke-linecap: round"/>
     </g>
     <g id="line2d_4"/>
     <g id="text_2">
      <!-- −10 -->
      <g style="fill: #262626" transform="translate(144.366531 546.245469) scale(0.1 -0.1)">
       <defs>
        <path id="ArialMT-30" d="M 266 2259 
Q 266 3072 433 3567 
Q 600 4063 929 4331 
Q 1259 4600 1759 4600 
Q 2128 4600 2406 4451 
Q 2684 4303 2865 4023 
Q 3047 3744 3150 3342 
Q 3253 2941 3253 2259 
Q 3253 1453 3087 958 
Q 2922 463 2592 192 
Q 2263 -78 1759 -78 
Q 1097 -78 719 397 
Q 266 969 266 2259 
z
M 844 2259 
Q 844 1131 1108 757 
Q 1372 384 1759 384 
Q 2147 384 2411 759 
Q 2675 1134 2675 2259 
Q 2675 3391 2411 3762 
Q 2147 4134 1753 4134 
Q 1366 4134 1134 3806 
Q 844 3388 844 2259 
z
" transform="scale(0.015625)"/>
       </defs>
       <use xlink:href="#ArialMT-2212"/>
       <use xlink:href="#ArialMT-31" transform="translate(58.398438 0)"/>
       <use xlink:href="#ArialMT-30" transform="translate(114.013672 0)"/>
      </g>
     </g>
    </g>
    <g id="xtick_3">
     <g id="line2d_5">
      <path d="M 221.198453 535.587656 
L 221.198453 21.207656 
" clip-path="url(#pc16fde9dad)" style="fill: none; stroke: #cccccc; stroke-width: 0.8; stroke-linecap: round"/>
     </g>
     <g id="line2d_6"/>
     <g id="text_3">
      <!-- −5 -->
      <g style="fill: #262626" transform="translate(215.497672 546.245469) scale(0.1 -0.1)">
       <use xlink:href="#ArialMT-2212"/>
       <use xlink:href="#ArialMT-35" transform="translate(58.398438 0)"/>
      </g>
     </g>
    </g>
    <g id="xtick_4">
     <g id="line2d_7">
      <path d="M 289.549126 535.587656 
L 289.549126 21.207656 
" clip-path="url(#pc16fde9dad)" style="fill: none; stroke: #cccccc; stroke-width: 0.8; stroke-linecap: round"/>
     </g>
     <g id="line2d_8"/>
     <g id="text_4">
      <!-- 0 -->
      <g style="fill: #262626" transform="translate(286.768657 546.245469) scale(0.1 -0.1)">
       <use xlink:href="#ArialMT-30"/>
      </g>
     </g>
    </g>
    <g id="xtick_5">
     <g id="line2d_9">
      <path d="M 357.899798 535.587656 
L 357.899798 21.207656 
" clip-path="url(#pc16fde9dad)" style="fill: none; stroke: #cccccc; stroke-width: 0.8; stroke-linecap: round"/>
     </g>
     <g id="line2d_10"/>
     <g id="text_5">
      <!-- 5 -->
      <g style="fill: #262626" transform="translate(355.11933 546.245469) scale(0.1 -0.1)">
       <use xlink:href="#ArialMT-35"/>
      </g>
     </g>
    </g>
    <g id="xtick_6">
     <g id="line2d_11">
      <path d="M 426.250471 535.587656 
L 426.250471 21.207656 
" clip-path="url(#pc16fde9dad)" style="fill: none; stroke: #cccccc; stroke-width: 0.8; stroke-linecap: round"/>
     </g>
     <g id="line2d_12"/>
     <g id="text_6">
      <!-- 10 -->
      <g style="fill: #262626" transform="translate(420.689533 546.245469) scale(0.1 -0.1)">
       <use xlink:href="#ArialMT-31"/>
       <use xlink:href="#ArialMT-30" transform="translate(55.615234 0)"/>
      </g>
     </g>
    </g>
    <g id="xtick_7">
     <g id="line2d_13">
      <path d="M 494.601143 535.587656 
L 494.601143 21.207656 
" clip-path="url(#pc16fde9dad)" style="fill: none; stroke: #cccccc; stroke-width: 0.8; stroke-linecap: round"/>
     </g>
     <g id="line2d_14"/>
     <g id="text_7">
      <!-- 15 -->
      <g style="fill: #262626" transform="translate(489.040206 546.245469) scale(0.1 -0.1)">
       <use xlink:href="#ArialMT-31"/>
       <use xlink:href="#ArialMT-35" transform="translate(55.615234 0)"/>
      </g>
     </g>
    </g>
    <g id="text_8">
     <!-- x0 -->
     <g style="fill: #262626" transform="translate(295.942344 559.390781) scale(0.1 -0.1)">
      <defs>
       <path id="ArialMT-78" d="M 47 0 
L 1259 1725 
L 138 3319 
L 841 3319 
L 1350 2541 
Q 1494 2319 1581 2169 
Q 1719 2375 1834 2534 
L 2394 3319 
L 3066 3319 
L 1919 1756 
L 3153 0 
L 2463 0 
L 1781 1031 
L 1600 1309 
L 728 0 
L 47 0 
z
" transform="scale(0.015625)"/>
      </defs>
      <use xlink:href="#ArialMT-78"/>
      <use xlink:href="#ArialMT-30" transform="translate(50 0)"/>
     </g>
    </g>
   </g>
   <g id="matplotlib.axis_2">
    <g id="ytick_1">
     <g id="line2d_15">
      <path d="M 40.807813 497.655824 
L 561.637812 497.655824 
" clip-path="url(#pc16fde9dad)" style="fill: none; stroke: #cccccc; stroke-width: 0.8; stroke-linecap: round"/>
     </g>
     <g id="line2d_16"/>
     <g id="text_9">
      <!-- −20 -->
      <g style="fill: #262626" transform="translate(20.345313 501.234731) scale(0.1 -0.1)">
       <defs>
        <path id="ArialMT-32" d="M 3222 541 
L 3222 0 
L 194 0 
Q 188 203 259 391 
Q 375 700 629 1000 
Q 884 1300 1366 1694 
Q 2113 2306 2375 2664 
Q 2638 3022 2638 3341 
Q 2638 3675 2398 3904 
Q 2159 4134 1775 4134 
Q 1369 4134 1125 3890 
Q 881 3647 878 3216 
L 300 3275 
Q 359 3922 746 4261 
Q 1134 4600 1788 4600 
Q 2447 4600 2831 4234 
Q 3216 3869 3216 3328 
Q 3216 3053 3103 2787 
Q 2991 2522 2730 2228 
Q 2469 1934 1863 1422 
Q 1356 997 1212 845 
Q 1069 694 975 541 
L 3222 541 
z
" transform="scale(0.015625)"/>
       </defs>
       <use xlink:href="#ArialMT-2212"/>
       <use xlink:href="#ArialMT-32" transform="translate(58.398438 0)"/>
       <use xlink:href="#ArialMT-30" transform="translate(114.013672 0)"/>
      </g>
     </g>
    </g>
    <g id="ytick_2">
     <g id="line2d_17">
      <path d="M 40.807813 395.795245 
L 561.637812 395.795245 
" clip-path="url(#pc16fde9dad)" style="fill: none; stroke: #cccccc; stroke-width: 0.8; stroke-linecap: round"/>
     </g>
     <g id="line2d_18"/>
     <g id="text_10">
      <!-- −10 -->
      <g style="fill: #262626" transform="translate(20.345313 399.374151) scale(0.1 -0.1)">
       <use xlink:href="#ArialMT-2212"/>
       <use xlink:href="#ArialMT-31" transform="translate(58.398438 0)"/>
       <use xlink:href="#ArialMT-30" transform="translate(114.013672 0)"/>
      </g>
     </g>
    </g>
    <g id="ytick_3">
     <g id="line2d_19">
      <path d="M 40.807813 293.934665 
L 561.637812 293.934665 
" clip-path="url(#pc16fde9dad)" style="fill: none; stroke: #cccccc; stroke-width: 0.8; stroke-linecap: round"/>
     </g>
     <g id="line2d_20"/>
     <g id="text_11">
      <!-- 0 -->
      <g style="fill: #262626" transform="translate(31.746875 297.513571) scale(0.1 -0.1)">
       <use xlink:href="#ArialMT-30"/>
      </g>
     </g>
    </g>
    <g id="ytick_4">
     <g id="line2d_21">
      <path d="M 40.807813 192.074085 
L 561.637812 192.074085 
" clip-path="url(#pc16fde9dad)" style="fill: none; stroke: #cccccc; stroke-width: 0.8; stroke-linecap: round"/>
     </g>
     <g id="line2d_22"/>
     <g id="text_12">
      <!-- 10 -->
      <g style="fill: #262626" transform="translate(26.185938 195.652992) scale(0.1 -0.1)">
       <use xlink:href="#ArialMT-31"/>
       <use xlink:href="#ArialMT-30" transform="translate(55.615234 0)"/>
      </g>
     </g>
    </g>
    <g id="ytick_5">
     <g id="line2d_23">
      <path d="M 40.807813 90.213506 
L 561.637812 90.213506 
" clip-path="url(#pc16fde9dad)" style="fill: none; stroke: #cccccc; stroke-width: 0.8; stroke-linecap: round"/>
     </g>
     <g id="line2d_24"/>
     <g id="text_13">
      <!-- 20 -->
      <g style="fill: #262626" transform="translate(26.185938 93.792412) scale(0.1 -0.1)">
       <use xlink:href="#ArialMT-32"/>
       <use xlink:href="#ArialMT-30" transform="translate(55.615234 0)"/>
      </g>
     </g>
    </g>
    <g id="text_14">
     <!-- x1 -->
     <g style="fill: #262626" transform="translate(14.357813 283.678125) rotate(-90) scale(0.1 -0.1)">
      <use xlink:href="#ArialMT-78"/>
      <use xlink:href="#ArialMT-31" transform="translate(50 0)"/>
     </g>
    </g>
   </g>
   <g id="line2d_25">
    <path d="M 426.250471 192.074085 
L 426.702513 185.115303 
L 427.975537 178.5868 
L 429.935513 172.598792 
L 432.435905 167.290875 
L 435.31808 162.822737 
L 438.435976 159.201367 
L 441.675792 156.337659 
L 444.929445 154.211353 
L 448.092142 152.873898 
L 451.062388 152.44845 
L 453.748737 153.187444 
L 456.019168 155.154495 
L 457.733119 158.114563 
L 458.813953 161.880478 
L 459.249932 166.318657 
L 459.072121 171.375795 
L 458.226817 177.130425 
L 456.678911 183.548193 
L 454.417341 190.533783 
L 451.449291 197.942378 
L 447.798357 205.575782 
L 443.500454 213.174653 
L 438.648905 220.569859 
L 433.34444 227.636913 
L 427.683358 234.275205 
L 421.757521 240.407998 
L 415.654361 245.982432 
L 409.456876 250.96952 
L 403.243631 255.364148 
L 397.088756 259.185081 
L 391.07327 262.397294 
L 385.271103 264.959474 
L 379.729051 266.944234 
L 374.486754 268.417899 
L 369.576837 269.439642 
L 365.02491 270.061484 
L 360.849565 270.328289 
L 357.06238 270.277769 
L 353.667917 269.940482 
L 350.655646 269.341964 
L 348.014787 268.513566 
L 345.743158 267.485694 
L 343.834947 266.283879 
L 342.280704 264.928777 
L 341.067344 263.436171 
L 340.178145 261.81697 
L 339.592749 260.077208 
L 339.287159 258.218047 
L 339.239842 256.229908 
L 339.452537 254.089887 
L 339.928268 251.786092 
L 340.668932 249.306797 
L 341.675589 246.639864 
L 342.948461 243.772747 
L 344.486931 240.69249 
L 346.289544 237.385725 
L 350.688039 230.04476 
L 356.236341 221.704617 
L 362.933666 212.230438 
L 370.813693 201.51856 
L 379.991442 189.533214 
L 385.12515 183.070377 
L 390.613676 176.37107 
L 396.428485 169.590938 
L 402.570717 162.844061 
L 409.01233 156.233664 
L 415.696056 149.852153 
L 422.535406 143.781119 
L 429.43754 138.120625 
L 436.344172 133.274768 
L 443.142431 129.714132 
L 449.67387 127.739035 
L 455.735561 127.477057 
L 461.099814 128.844704 
L 465.658643 131.728827 
L 469.342592 136.193429 
L 472.040802 142.289506 
L 473.60045 150.049522 
L 473.867559 159.345541 
L 472.842907 169.629801 
L 470.569478 180.487578 
L 467.117123 191.545886 
L 462.584149 202.464375 
L 457.098015 212.991484 
L 450.814612 223.027278 
L 443.892792 232.417184 
L 436.483583 241.048147 
L 428.730097 248.85426 
L 420.767091 255.809371 
L 412.725481 261.815574 
L 404.746884 266.844087 
L 396.953887 270.930765 
L 389.444683 274.14631 
L 382.293064 276.596279 
L 375.548423 278.421079 
L 369.247138 279.715202 
L 363.415422 280.510159 
L 358.063256 280.880294 
L 353.194547 280.89167 
L 348.807132 280.602037 
L 344.892779 280.060834 
L 341.437184 279.309182 
L 338.419308 278.381628 
L 335.816101 277.308693 
L 333.605966 276.113954 
L 331.767421 274.814111 
L 330.279103 273.418991 
L 329.119763 271.931547 
L 328.26827 270.347856 
L 327.703131 268.657193 
L 327.405941 266.850125 
L 327.372335 264.925769 
L 327.598706 262.881674 
L 328.080252 260.712815 
L 328.810972 258.411592 
L 329.783669 255.967829 
L 330.98995 253.368775 
L 334.068289 247.643166 
L 338.061647 241.135668 
L 343.028274 233.757597 
L 349.017912 225.420953 
L 356.080846 216.04375 
L 364.287256 205.565966 
L 373.705997 193.864677 
L 384.407105 180.87926 
L 390.271066 173.932147 
L 396.468651 166.768825 
L 402.978167 159.612139 
L 409.789658 152.684767 
L 416.845453 146.20524 
L 424.039809 140.388205 
L 431.219565 135.444601 
L 438.267543 131.55672 
L 445.058963 128.725564 
L 451.489924 126.856804 
L 457.494132 126.176084 
L 462.894264 127.259135 
L 467.527366 130.003056 
L 471.279288 134.247419 
L 474.011965 140.229063 
L 475.608247 147.801657 
L 476.007988 156.537068 
L 475.205835 165.941269 
L 473.224401 176.097343 
L 470.106806 186.676775 
L 465.924615 197.354169 
L 460.773677 207.873625 
L 454.781962 218.031542 
L 448.104342 227.633092 
L 440.88932 236.535741 
L 433.277985 244.651138 
L 425.40401 251.945115 
L 417.39301 258.414158 
L 409.371311 263.940767 
L 401.471764 268.513784 
L 393.8061 272.178818 
L 386.462366 275.01501 
L 379.504934 277.135029 
L 372.97456 278.68455 
L 366.901326 279.737041 
L 361.303516 280.327386 
L 356.186754 280.52709 
L 351.551238 280.398152 
L 347.391743 279.993066 
L 343.69762 279.354817 
L 340.452543 278.517716 
L 337.634023 277.516487 
L 335.220209 276.379619 
L 333.189781 275.127777 
L 331.521512 273.774673 
L 330.194268 272.327063 
L 329.187006 270.784747 
L 328.478776 269.140568 
L 328.047762 267.38183 
L 327.882802 265.503672 
L 327.981228 263.504913 
L 328.339177 261.381878 
L 328.951526 259.128363 
L 329.811887 256.735644 
L 330.91261 254.192471 
L 332.244782 251.485071 
L 335.576965 245.517361 
L 339.848538 238.743145 
L 345.111886 231.074199 
L 351.416222 222.424254 
L 358.813733 212.713138 
L 367.38286 201.872517 
L 377.188071 189.761435 
L 388.303131 176.393555 
L 394.383388 169.302957 
L 400.828408 162.07921 
L 407.577213 155.00354 
L 414.54622 148.335421 
L 421.646607 142.287473 
L 428.784307 137.025464 
L 435.860013 132.66831 
L 442.768107 129.287304 
L 449.321408 126.927661 
L 455.44285 125.915225 
L 461.069334 126.590111 
L 466.050069 129.184351 
L 470.146575 133.821893 
L 473.045939 140.515857 
L 474.645369 149.022698 
L 474.917294 158.851803 
L 473.842324 169.555949 
L 471.455596 180.754942 
L 467.84678 192.135622 
L 463.128729 203.412292 
L 457.436761 214.325979 
L 450.933314 224.683148 
L 443.777664 234.328471 
L 436.125925 243.144818 
L 428.131047 251.053264 
L 419.941966 258.009901 
L 411.700165 263.969359 
L 403.548278 268.929956 
L 395.608219 272.932479 
L 387.977205 276.052868 
L 380.727754 278.40221 
L 373.907688 280.126743 
L 367.549902 281.327977 
L 361.677822 282.038402 
L 356.299637 282.335465 
L 351.417 282.286841 
L 347.025054 281.950315 
L 343.112423 281.373789 
L 339.661028 280.595943 
L 336.647787 279.652443 
L 334.050486 278.573578 
L 331.846865 277.382223 
L 330.014398 276.093984 
L 328.530293 274.717202 
L 327.371492 273.252947 
L 326.514668 271.695023 
L 325.936666 270.033147 
L 325.627402 268.265686 
L 325.581537 266.391782 
L 325.79265 264.407838 
L 326.253242 262.307513 
L 326.954732 260.081722 
L 327.887458 257.718639 
L 329.04068 255.203695 
L 330.405248 252.521189 
L 333.801181 246.613012 
L 338.125513 239.888252 
L 343.424685 232.242622 
L 349.749816 223.583537 
L 357.172117 213.861897 
L 365.752775 203.007334 
L 375.560727 190.927422 
L 386.67014 177.581365 
L 392.693971 170.520372 
L 399.073396 163.302595 
L 405.814799 156.037633 
L 412.884668 148.866604 
L 420.209594 141.962145 
L 427.67627 135.52841 
L 435.166291 129.839201 
L 442.597015 125.259671 
L 449.808514 121.933023 
L 456.679887 119.815041 
L 463.098673 119.268485 
L 468.826915 120.752938 
L 473.670391 124.18328 
L 477.526353 129.278371 
L 480.241405 136.470585 
L 481.620455 145.618135 
L 481.59674 156.167689 
L 480.17879 167.621363 
L 477.38312 179.74907 
L 473.274776 192.225613 
L 467.957588 204.699983 
L 461.565508 216.783589 
L 454.275448 228.160511 
L 446.290449 238.642678 
L 437.801543 248.098306 
L 428.987354 256.451051 
L 420.014094 263.680005 
L 411.03611 269.812615 
L 402.197036 274.877426 
L 393.619595 278.932868 
L 385.403685 282.061482 
L 377.62662 284.366793 
L 370.343128 285.97331 
L 363.58563 287.024172 
L 357.371197 287.607398 
L 351.700659 287.790136 
L 346.566691 287.64467 
L 341.956946 287.233101 
L 337.854053 286.607347 
L 334.235615 285.809145 
L 331.072646 284.875324 
L 328.336045 283.835427 
L 325.999496 282.708768 
L 324.036855 281.509215 
L 322.422154 280.245192 
L 321.129594 278.919676 
L 320.13355 277.530199 
L 319.407606 276.069476 
L 318.932644 274.534883 
L 318.701568 272.927203 
L 318.70703 271.243843 
L 318.940914 269.478673 
L 319.39434 267.622026 
L 320.057661 265.660698 
L 320.920467 263.577951 
L 323.203508 258.966034 
L 326.260719 253.645222 
L 330.169831 247.463462 
L 335.013378 240.236368 
L 344.254687 226.971327 
L 351.955745 216.232557 
L 361.083989 203.924402 
L 371.740743 190.166666 
L 377.658465 182.827654 
L 383.971503 175.216342 
L 390.671951 167.316712 
L 397.755808 159.148986 
L 405.223515 150.772186 
L 413.073114 142.458266 
L 421.214192 134.538619 
L 429.532888 127.19113 
L 437.935528 120.595852 
L 446.341638 114.984581 
L 454.582642 110.798351 
L 462.46628 108.077271 
L 469.856087 107.081379 
L 476.506056 108.469361 
L 482.199679 111.98245 
L 486.755356 117.942085 
L 489.939853 126.471527 
L 491.594204 136.972885 
L 491.628936 149.214404 
L 489.997349 163.038048 
L 486.675232 178.117968 
L 481.668355 193.950061 
L 475.092788 209.886215 
L 467.142202 225.35798 
L 458.036103 239.891185 
L 448.01912 253.104132 
L 437.361006 264.707598 
L 426.349383 274.565615 
L 415.234003 282.807842 
L 404.221412 289.544689 
L 393.486012 294.900847 
L 383.170022 299.020287 
L 373.383679 302.066216 
L 364.212606 304.213464 
L 355.692334 305.627274 
L 347.83444 306.455032 
L 340.640822 306.825125 
L 334.103697 306.846946 
L 328.205602 306.61089 
L 322.919392 306.188358 
L 318.201382 305.637823 
L 310.291926 304.349294 
L 304.153735 303.043308 
L 295.835935 300.943418 
L 291.952606 299.995982 
L 290.086192 299.680844 
L 288.600024 299.602951 
L 287.378453 299.755826 
L 286.312798 300.128888 
L 285.319946 300.722299 
L 284.335615 301.549054 
L 282.737164 303.268651 
L 280.837307 305.672664 
L 276.458925 311.712126 
L 269.596368 321.640173 
L 235.670092 371.089921 
L 224.775951 386.407669 
L 211.788463 404.235979 
L 204.449382 414.038754 
L 196.530509 424.342139 
L 188.029639 435.037517 
L 178.952535 445.984459 
L 169.316419 456.977217 
L 159.194676 467.76471 
L 148.694764 478.134727 
L 137.928592 487.846437 
L 127.012293 496.629058 
L 116.085782 504.150056 
L 105.418732 509.63048 
L 95.237023 512.206747 
L 85.839897 511.272993 
L 77.627627 506.475366 
L 71.100792 497.710825 
L 66.660005 485.042684 
L 64.481903 469.054157 
L 64.710033 450.445122 
L 67.423043 429.795073 
L 72.634679 407.563126 
L 80.284519 384.486868 
L 90.114033 362.277507 
L 101.734926 341.719855 
L 114.742781 323.316946 
L 128.719366 307.353887 
L 143.240595 293.907508 
L 157.936264 282.924451 
L 172.482156 274.247465 
L 186.611604 267.648892 
L 200.11865 262.835028 
L 212.858042 259.446124 
L 224.738669 257.153246 
L 235.719264 255.754581 
L 245.79168 255.030748 
L 254.966301 254.793839 
L 263.272013 254.887685 
L 270.756371 255.187636 
L 283.526295 256.032971 
L 293.767241 256.801211 
L 298.093926 257.040684 
L 301.978632 257.137455 
L 305.489756 257.066483 
L 308.697394 256.810424 
L 311.653554 256.356458 
L 314.400054 255.691424 
L 316.980774 254.80457 
L 319.439242 253.687998 
L 321.818634 252.336661 
L 324.161775 250.748366 
L 324.161775 250.748366 
" clip-path="url(#pc16fde9dad)" style="fill: none; stroke: #000000; stroke-opacity: 0.3; stroke-width: 7; stroke-linecap: round"/>
   </g>
   <g id="line2d_26">
    <path d="M 426.250471 192.074085 
L 426.05425 195.126504 
L 425.491366 198.154699 
L 424.602789 201.132424 
L 423.426046 204.041822 
L 421.99676 206.868856 
L 420.3504 209.599625 
L 418.520549 212.223323 
L 416.540574 214.7315 
L 414.436875 217.122062 
L 412.235851 219.392913 
L 409.962413 221.542781 
L 405.289066 225.484581 
L 400.559504 228.973976 
L 395.892622 232.046426 
L 391.370214 234.745029 
L 387.050519 237.113629 
L 381.032043 240.14105 
L 373.940865 243.391265 
L 365.259118 247.059371 
L 349.563998 253.579376 
L 344.732813 255.852722 
L 340.669901 257.998004 
L 336.407457 260.515175 
L 331.162626 263.902272 
L 323.50511 269.138458 
L 313.460927 276.287601 
L 312.852171 276.728269 
L 312.852171 276.728269 
" clip-path="url(#pc16fde9dad)" style="fill: none; stroke-dasharray: 22.4,5.6,3.5,5.6; stroke-dashoffset: 0; stroke: #0000ff; stroke-opacity: 0.8; stroke-width: 3.5"/>
   </g>
   <g id="patch_3">
    <path d="M 40.807813 535.587656 
L 40.807813 21.207656 
" style="fill: none; stroke: #cccccc; stroke-linejoin: miter; stroke-linecap: square"/>
   </g>
   <g id="patch_4">
    <path d="M 561.637812 535.587656 
L 561.637812 21.207656 
" style="fill: none; stroke: #cccccc; stroke-linejoin: miter; stroke-linecap: square"/>
   </g>
   <g id="patch_5">
    <path d="M 40.807813 535.587656 
L 561.637812 535.587656 
" style="fill: none; stroke: #cccccc; stroke-linejoin: miter; stroke-linecap: square"/>
   </g>
   <g id="patch_6">
    <path d="M 40.807813 21.207656 
L 561.637812 21.207656 
" style="fill: none; stroke: #cccccc; stroke-linejoin: miter; stroke-linecap: square"/>
   </g>
   <g id="line2d_27">
    <path d="M 426.250471 192.074085 
L 426.847881 185.454552 
L 428.183707 179.294278 
L 430.077122 173.657565 
L 432.374659 168.605018 
L 434.936648 164.19396 
L 437.688961 160.47736 
L 440.634639 157.489892 
L 443.778157 155.264172 
L 447.062062 153.840085 
L 450.253808 153.29852 
L 453.079345 153.735644 
L 455.33167 155.232383 
L 456.95491 157.808581 
L 457.988413 161.422757 
L 458.459591 165.960034 
L 458.346429 171.286271 
L 457.57929 177.258514 
L 456.103098 183.738972 
L 453.906438 190.595727 
L 451.038225 197.695765 
L 447.552793 204.90476 
L 443.502803 212.06789 
L 438.948249 219.02711 
L 433.952564 225.627817 
L 428.600137 231.747268 
L 422.995012 237.316944 
L 417.245092 242.31718 
L 411.449895 246.76221 
L 405.689616 250.680614 
L 400.02547 254.100831 
L 394.494138 257.031266 
L 389.129643 259.475461 
L 383.961964 261.425061 
L 379.037229 262.884396 
L 374.404636 263.865775 
L 370.123464 264.402455 
L 366.228834 264.549567 
L 362.745724 264.364562 
L 359.66459 263.905424 
L 356.957477 263.218631 
L 354.587422 262.335742 
L 352.525666 261.268929 
L 350.752801 260.021168 
L 349.274665 258.585743 
L 348.106384 256.95526 
L 347.271973 255.124723 
L 346.789815 253.095373 
L 346.674948 250.872187 
L 346.919801 248.464635 
L 347.508991 245.882641 
L 348.421088 243.13585 
L 349.630474 240.22959 
L 351.115423 237.164697 
L 352.855141 233.940565 
L 354.838204 230.550111 
L 359.518232 223.225258 
L 365.146952 215.084666 
L 371.759853 206.056361 
L 379.419695 196.162132 
L 383.677157 190.970448 
L 388.240092 185.677253 
L 393.116109 180.34808 
L 398.289433 175.050249 
L 403.712845 169.85138 
L 409.289201 164.823053 
L 414.893417 160.041099 
L 420.408819 155.598107 
L 425.745126 151.59687 
L 430.917448 148.145946 
L 436.027576 145.343236 
L 441.179236 143.280172 
L 446.282602 142.067808 
L 451.042659 141.854174 
L 455.123071 142.805017 
L 458.366805 145.042892 
L 460.858335 148.585271 
L 462.70513 153.367345 
L 463.864192 159.267443 
L 464.163045 166.142744 
L 463.447621 173.829784 
L 461.681405 182.140235 
L 458.953747 190.880894 
L 455.375971 199.862855 
L 451.044566 208.885558 
L 446.02391 217.719612 
L 440.382986 226.12906 
L 434.218516 233.91156 
L 427.660608 240.933747 
L 420.861587 247.167913 
L 413.965977 252.64855 
L 407.099327 257.44426 
L 400.358296 261.621657 
L 393.814671 265.233143 
L 387.500402 268.293584 
L 381.434242 270.802495 
L 375.630605 272.748725 
L 370.125984 274.139974 
L 364.97423 275.003806 
L 360.234695 275.405529 
L 355.955197 275.42582 
L 352.141371 275.147583 
L 348.770911 274.643922 
L 345.797422 273.960977 
L 343.174087 273.122314 
L 340.871145 272.130049 
L 338.882348 270.975121 
L 337.221099 269.646642 
L 335.908527 268.13929 
L 334.963923 266.453907 
L 334.382458 264.600709 
L 334.149185 262.591614 
L 334.23089 260.439417 
L 334.589699 258.152102 
L 335.184154 255.736346 
L 335.987183 253.1906 
L 336.983173 250.508575 
L 338.162232 247.682254 
L 339.527291 244.70025 
L 341.095316 241.546296 
L 342.884025 238.203437 
L 344.916678 234.652939 
L 349.798181 226.83432 
L 355.87781 217.885505 
L 363.198183 207.606134 
L 371.725771 195.940399 
L 376.432576 189.656942 
L 381.446152 183.163951 
L 386.783952 176.549163 
L 392.484579 169.893061 
L 398.59577 163.26499 
L 405.16883 156.713528 
L 412.227906 150.274666 
L 419.656542 144.016448 
L 427.180206 138.061565 
L 434.457377 132.632826 
L 441.264813 128.003525 
L 447.784168 124.416801 
L 454.345426 122.057843 
L 460.843147 121.11195 
L 466.604771 121.844056 
L 471.241082 124.474398 
L 474.997258 129.036032 
L 478.057071 135.432097 
L 480.057402 143.591241 
L 480.605464 153.42428 
L 479.619724 164.669044 
L 477.179515 176.893673 
L 473.40941 189.665346 
L 468.450069 202.656185 
L 462.396467 215.556405 
L 455.316459 227.968759 
L 447.376502 239.487505 
L 438.815983 249.816076 
L 429.874918 258.865794 
L 420.711224 266.677236 
L 411.430571 273.358646 
L 402.149814 279.037689 
L 393.027713 283.824915 
L 384.236188 287.797693 
L 375.899675 291.001785 
L 368.05522 293.462574 
L 360.682103 295.209384 
L 353.771234 296.301567 
L 347.357448 296.841809 
L 341.497704 296.963466 
L 336.227145 296.803957 
L 331.532303 296.478913 
L 323.615015 295.600875 
L 320.250715 295.08711 
L 317.228355 294.512063 
L 314.545434 293.863874 
L 312.212835 293.142025 
L 310.234879 292.359962 
L 308.595709 291.541152 
L 307.256493 290.71199 
L 305.259476 289.103208 
L 303.841294 287.600915 
L 302.825107 286.12301 
L 302.488883 285.343037 
L 302.299662 284.507278 
L 302.278457 283.599929 
L 302.439288 282.609051 
L 302.784073 281.527265 
L 303.974771 279.076823 
L 305.700677 276.222896 
L 312.995629 264.60771 
L 320.113287 253.058596 
L 324.896468 245.637902 
L 330.826632 236.854161 
L 338.142068 226.432985 
L 352.039603 206.789388 
L 376.42345 171.726891 
L 383.887721 161.701447 
L 392.126437 151.301381 
L 401.256118 140.544377 
L 411.235109 129.505149 
L 421.688697 118.396328 
L 432.083184 107.584422 
L 442.41902 97.461212 
L 453.447854 88.331751 
L 464.958692 80.625928 
L 475.518601 75.138114 
L 485.79612 72.467335 
L 495.64972 73.015268 
L 503.682621 77.31569 
L 510.715629 85.441515 
L 515.617528 97.460738 
L 518.042058 113.130758 
L 518.310401 131.722758 
L 516.05956 152.701512 
L 511.180754 175.24042 
L 503.928765 198.195892 
L 494.647194 220.854596 
L 483.41391 242.462695 
L 470.533171 262.369599 
L 456.371924 280.192734 
L 441.184543 295.391428 
L 425.565014 307.673094 
L 410.321579 317.447176 
L 395.758696 325.329249 
L 381.627347 331.616252 
L 367.812782 336.349023 
L 354.632079 339.622149 
L 342.515018 341.745873 
L 331.588119 343.113643 
L 321.656299 344.001946 
L 312.476446 344.553838 
L 303.943134 344.85183 
L 288.928863 345.000734 
L 276.735869 345.147918 
L 271.535895 345.402714 
L 266.794555 345.829043 
L 262.425971 346.439661 
L 258.3608 347.241748 
L 254.551728 348.241891 
L 250.958448 349.448689 
L 247.5422 350.873834 
L 244.262393 352.529011 
L 241.073244 354.42879 
L 237.929146 356.581806 
L 234.787152 358.992146 
L 231.605809 361.663341 
L 228.345415 364.595648 
L 221.48959 371.223243 
L 214.07697 378.823991 
L 201.800672 391.903964 
L 192.797382 401.551538 
L 188.024866 406.546835 
L 183.063528 411.573017 
L 177.91536 416.555693 
L 172.602873 421.415073 
L 167.168957 426.073869 
L 161.672486 430.459539 
L 156.178994 434.484765 
L 150.746036 438.049182 
L 145.417765 441.015335 
L 140.252427 443.213335 
L 135.31298 444.476517 
L 130.703893 444.678339 
L 126.54426 443.76964 
L 122.936068 441.750229 
L 119.968145 438.617161 
L 117.754774 434.350236 
L 116.426838 428.94517 
L 116.085039 422.4747 
L 116.754513 415.091638 
L 118.382596 406.996351 
L 120.886422 398.402355 
L 124.180733 389.533855 
L 128.217832 380.654824 
L 132.964011 372.038939 
L 138.383364 363.927113 
L 144.403853 356.483825 
L 150.898832 349.780953 
L 157.695348 343.813537 
L 164.597873 338.528153 
L 171.419359 333.855742 
L 178.005824 329.73916 
L 184.252587 326.14545 
L 190.117589 323.060742 
L 195.618879 320.476286 
L 200.834861 318.376666 
L 205.865406 316.739422 
L 210.771663 315.540744 
L 215.541215 314.761396 
L 220.070029 314.383476 
L 224.228079 314.385008 
L 227.918445 314.732174 
L 231.08146 315.385637 
L 233.727113 316.300461 
L 235.903534 317.43041 
L 237.687936 318.732108 
L 239.160189 320.168442 
L 240.380903 321.714917 
L 241.382518 323.360752 
L 242.167468 325.109443 
L 242.720493 326.974133 
L 243.017301 328.973928 
L 243.037331 331.129988 
L 242.764499 333.462455 
L 242.186417 335.992772 
L 241.30017 338.735388 
L 240.105352 341.701909 
L 238.601968 344.902361 
L 236.791115 348.342184 
L 234.671795 352.023024 
L 232.243309 355.946688 
L 229.500575 360.110471 
L 226.445646 364.518002 
L 219.409811 374.080433 
L 211.193586 384.707601 
L 201.858987 396.477568 
L 191.399339 409.330143 
L 185.714576 416.027378 
L 179.711688 422.76932 
L 173.393478 429.427827 
L 166.783021 435.86965 
L 159.938333 441.970694 
L 152.964307 447.622679 
L 146.005909 452.72464 
L 139.194853 457.146619 
L 132.587722 460.68068 
L 126.19446 463.026616 
L 120.103802 463.882537 
L 114.550872 463.103982 
L 109.757517 460.655566 
L 105.850809 456.463161 
L 102.970091 450.421359 
L 101.265951 442.544013 
L 100.782404 433.123958 
L 101.522628 422.538159 
L 103.512157 411.081123 
L 106.757828 398.969303 
L 111.18766 386.471224 
L 116.714509 373.973018 
L 123.243909 361.931947 
L 130.634687 350.729653 
L 138.686043 340.594728 
L 147.235416 331.634614 
L 156.20249 323.856516 
L 165.499736 317.178179 
L 174.930577 311.466533 
L 184.193468 306.611976 
L 192.999286 302.563381 
L 201.160449 299.314516 
L 208.645316 296.847966 
L 215.57762 295.101759 
L 222.158004 293.975999 
L 228.508868 293.363245 
L 234.575358 293.169129 
L 240.185744 293.312586 
L 245.18056 293.721603 
L 249.486737 294.332577 
L 253.124895 295.088718 
L 256.185923 295.937101 
L 261.080061 297.722269 
L 264.983746 299.434964 
L 268.088052 301.077257 
L 269.284827 301.918106 
L 270.217879 302.797403 
L 270.88039 303.729423 
L 271.281578 304.722087 
L 271.444089 305.777337 
L 271.400247 306.892705 
L 271.188377 308.062881 
L 270.398305 310.55482 
L 269.275469 313.263226 
L 267.008941 317.944635 
L 264.961436 321.711547 
L 260.751996 328.812367 
L 254.789586 338.280453 
L 249.590014 346.252908 
L 243.169335 355.750754 
L 235.310829 366.902834 
L 220.568206 387.111872 
L 208.662285 403.30247 
L 201.974018 412.228328 
L 194.706505 421.596109 
L 186.817965 431.262013 
L 178.34663 441.095381 
L 169.413411 451.010484 
L 160.203981 460.945503 
L 150.839573 470.773747 
L 141.187417 480.161739 
L 131.041867 488.611625 
L 120.64235 495.619859 
L 110.661216 500.818792 
L 101.166873 503.711975 
L 92.165794 503.713813 
L 84.390724 500.691663 
L 77.982261 494.443317 
L 73.132246 484.798933 
L 70.192788 472.107954 
L 69.340977 456.602342 
L 70.789373 438.648074 
L 74.55372 419.154498 
L 80.435193 398.971351 
L 88.122336 378.663928 
L 97.51589 358.929186 
L 108.602372 340.319975 
L 121.136514 323.23252 
L 134.718675 308.291344 
L 148.725569 295.978579 
L 162.429609 286.118972 
L 175.51074 278.112674 
L 188.241618 271.450962 
L 200.998713 265.951901 
L 213.589369 261.702573 
L 225.387291 258.767571 
L 235.976537 256.966191 
L 245.394943 255.94883 
L 253.9814 255.364349 
L 283.335378 253.985838 
L 298.493838 253.255468 
L 302.454008 252.931825 
L 306.117375 252.475368 
L 309.613388 251.839406 
L 313.02058 250.994636 
L 316.366867 249.928212 
L 319.647397 248.638102 
L 322.846331 247.126802 
L 325.951046 245.397535 
L 328.965516 243.450543 
L 331.900635 241.284856 
L 334.782842 238.895606 
L 337.645096 236.275294 
L 340.525118 233.415037 
L 343.462482 230.301121 
L 349.662943 223.251786 
L 356.518107 214.987085 
L 368.389971 200.106727 
L 368.389971 200.106727 
" clip-path="url(#pc16fde9dad)" style="fill: none; stroke-dasharray: 3.5,5.775; stroke-dashoffset: 0; stroke: #008000; stroke-opacity: 0.8; stroke-width: 3.5"/>
   </g>
   <g id="text_15">
    <!-- Phase Portrait (x0 vs x1) -->
    <g style="fill: #262626" transform="translate(241.010703 15.207656) scale(0.11 -0.11)">
     <defs>
      <path id="ArialMT-50" d="M 494 0 
L 494 4581 
L 2222 4581 
Q 2678 4581 2919 4538 
Q 3256 4481 3484 4323 
Q 3713 4166 3852 3881 
Q 3991 3597 3991 3256 
Q 3991 2672 3619 2267 
Q 3247 1863 2275 1863 
L 1100 1863 
L 1100 0 
L 494 0 
z
M 1100 2403 
L 2284 2403 
Q 2872 2403 3119 2622 
Q 3366 2841 3366 3238 
Q 3366 3525 3220 3729 
Q 3075 3934 2838 4000 
Q 2684 4041 2272 4041 
L 1100 4041 
L 1100 2403 
z
" transform="scale(0.015625)"/>
      <path id="ArialMT-68" d="M 422 0 
L 422 4581 
L 984 4581 
L 984 2938 
Q 1378 3394 1978 3394 
Q 2347 3394 2619 3248 
Q 2891 3103 3008 2847 
Q 3125 2591 3125 2103 
L 3125 0 
L 2563 0 
L 2563 2103 
Q 2563 2525 2380 2717 
Q 2197 2909 1863 2909 
Q 1613 2909 1392 2779 
Q 1172 2650 1078 2428 
Q 984 2206 984 1816 
L 984 0 
L 422 0 
z
" transform="scale(0.015625)"/>
      <path id="ArialMT-61" d="M 2588 409 
Q 2275 144 1986 34 
Q 1697 -75 1366 -75 
Q 819 -75 525 192 
Q 231 459 231 875 
Q 231 1119 342 1320 
Q 453 1522 633 1644 
Q 813 1766 1038 1828 
Q 1203 1872 1538 1913 
Q 2219 1994 2541 2106 
Q 2544 2222 2544 2253 
Q 2544 2597 2384 2738 
Q 2169 2928 1744 2928 
Q 1347 2928 1158 2789 
Q 969 2650 878 2297 
L 328 2372 
Q 403 2725 575 2942 
Q 747 3159 1072 3276 
Q 1397 3394 1825 3394 
Q 2250 3394 2515 3294 
Q 2781 3194 2906 3042 
Q 3031 2891 3081 2659 
Q 3109 2516 3109 2141 
L 3109 1391 
Q 3109 606 3145 398 
Q 3181 191 3288 0 
L 2700 0 
Q 2613 175 2588 409 
z
M 2541 1666 
Q 2234 1541 1622 1453 
Q 1275 1403 1131 1340 
Q 988 1278 909 1158 
Q 831 1038 831 891 
Q 831 666 1001 516 
Q 1172 366 1500 366 
Q 1825 366 2078 508 
Q 2331 650 2450 897 
Q 2541 1088 2541 1459 
L 2541 1666 
z
" transform="scale(0.015625)"/>
      <path id="ArialMT-73" d="M 197 991 
L 753 1078 
Q 800 744 1014 566 
Q 1228 388 1613 388 
Q 2000 388 2187 545 
Q 2375 703 2375 916 
Q 2375 1106 2209 1216 
Q 2094 1291 1634 1406 
Q 1016 1563 777 1677 
Q 538 1791 414 1992 
Q 291 2194 291 2438 
Q 291 2659 392 2848 
Q 494 3038 669 3163 
Q 800 3259 1026 3326 
Q 1253 3394 1513 3394 
Q 1903 3394 2198 3281 
Q 2494 3169 2634 2976 
Q 2775 2784 2828 2463 
L 2278 2388 
Q 2241 2644 2061 2787 
Q 1881 2931 1553 2931 
Q 1166 2931 1000 2803 
Q 834 2675 834 2503 
Q 834 2394 903 2306 
Q 972 2216 1119 2156 
Q 1203 2125 1616 2013 
Q 2213 1853 2448 1751 
Q 2684 1650 2818 1456 
Q 2953 1263 2953 975 
Q 2953 694 2789 445 
Q 2625 197 2315 61 
Q 2006 -75 1616 -75 
Q 969 -75 630 194 
Q 291 463 197 991 
z
" transform="scale(0.015625)"/>
      <path id="ArialMT-65" d="M 2694 1069 
L 3275 997 
Q 3138 488 2766 206 
Q 2394 -75 1816 -75 
Q 1088 -75 661 373 
Q 234 822 234 1631 
Q 234 2469 665 2931 
Q 1097 3394 1784 3394 
Q 2450 3394 2872 2941 
Q 3294 2488 3294 1666 
Q 3294 1616 3291 1516 
L 816 1516 
Q 847 969 1125 678 
Q 1403 388 1819 388 
Q 2128 388 2347 550 
Q 2566 713 2694 1069 
z
M 847 1978 
L 2700 1978 
Q 2663 2397 2488 2606 
Q 2219 2931 1791 2931 
Q 1403 2931 1139 2672 
Q 875 2413 847 1978 
z
" transform="scale(0.015625)"/>
      <path id="ArialMT-20" transform="scale(0.015625)"/>
      <path id="ArialMT-6f" d="M 213 1659 
Q 213 2581 725 3025 
Q 1153 3394 1769 3394 
Q 2453 3394 2887 2945 
Q 3322 2497 3322 1706 
Q 3322 1066 3130 698 
Q 2938 331 2570 128 
Q 2203 -75 1769 -75 
Q 1072 -75 642 372 
Q 213 819 213 1659 
z
M 791 1659 
Q 791 1022 1069 705 
Q 1347 388 1769 388 
Q 2188 388 2466 706 
Q 2744 1025 2744 1678 
Q 2744 2294 2464 2611 
Q 2184 2928 1769 2928 
Q 1347 2928 1069 2612 
Q 791 2297 791 1659 
z
" transform="scale(0.015625)"/>
      <path id="ArialMT-72" d="M 416 0 
L 416 3319 
L 922 3319 
L 922 2816 
Q 1116 3169 1280 3281 
Q 1444 3394 1641 3394 
Q 1925 3394 2219 3213 
L 2025 2691 
Q 1819 2813 1613 2813 
Q 1428 2813 1281 2702 
Q 1134 2591 1072 2394 
Q 978 2094 978 1738 
L 978 0 
L 416 0 
z
" transform="scale(0.015625)"/>
      <path id="ArialMT-74" d="M 1650 503 
L 1731 6 
Q 1494 -44 1306 -44 
Q 1000 -44 831 53 
Q 663 150 594 308 
Q 525 466 525 972 
L 525 2881 
L 113 2881 
L 113 3319 
L 525 3319 
L 525 4141 
L 1084 4478 
L 1084 3319 
L 1650 3319 
L 1650 2881 
L 1084 2881 
L 1084 941 
Q 1084 700 1114 631 
Q 1144 563 1211 522 
Q 1278 481 1403 481 
Q 1497 481 1650 503 
z
" transform="scale(0.015625)"/>
      <path id="ArialMT-69" d="M 425 3934 
L 425 4581 
L 988 4581 
L 988 3934 
L 425 3934 
z
M 425 0 
L 425 3319 
L 988 3319 
L 988 0 
L 425 0 
z
" transform="scale(0.015625)"/>
      <path id="ArialMT-28" d="M 1497 -1347 
Q 1031 -759 709 28 
Q 388 816 388 1659 
Q 388 2403 628 3084 
Q 909 3875 1497 4659 
L 1900 4659 
Q 1522 4009 1400 3731 
Q 1209 3300 1100 2831 
Q 966 2247 966 1656 
Q 966 153 1900 -1347 
L 1497 -1347 
z
" transform="scale(0.015625)"/>
      <path id="ArialMT-76" d="M 1344 0 
L 81 3319 
L 675 3319 
L 1388 1331 
Q 1503 1009 1600 663 
Q 1675 925 1809 1294 
L 2547 3319 
L 3125 3319 
L 1869 0 
L 1344 0 
z
" transform="scale(0.015625)"/>
      <path id="ArialMT-29" d="M 791 -1347 
L 388 -1347 
Q 1322 153 1322 1656 
Q 1322 2244 1188 2822 
Q 1081 3291 891 3722 
Q 769 4003 388 4659 
L 791 4659 
Q 1378 3875 1659 3084 
Q 1900 2403 1900 1659 
Q 1900 816 1576 28 
Q 1253 -759 791 -1347 
z
" transform="scale(0.015625)"/>
     </defs>
     <use xlink:href="#ArialMT-50"/>
     <use xlink:href="#ArialMT-68" transform="translate(66.699219 0)"/>
     <use xlink:href="#ArialMT-61" transform="translate(122.314453 0)"/>
     <use xlink:href="#ArialMT-73" transform="translate(177.929688 0)"/>
     <use xlink:href="#ArialMT-65" transform="translate(227.929688 0)"/>
     <use xlink:href="#ArialMT-20" transform="translate(283.544922 0)"/>
     <use xlink:href="#ArialMT-50" transform="translate(311.328125 0)"/>
     <use xlink:href="#ArialMT-6f" transform="translate(378.027344 0)"/>
     <use xlink:href="#ArialMT-72" transform="translate(433.642578 0)"/>
     <use xlink:href="#ArialMT-74" transform="translate(466.943359 0)"/>
     <use xlink:href="#ArialMT-72" transform="translate(494.726562 0)"/>
     <use xlink:href="#ArialMT-61" transform="translate(528.027344 0)"/>
     <use xlink:href="#ArialMT-69" transform="translate(583.642578 0)"/>
     <use xlink:href="#ArialMT-74" transform="translate(605.859375 0)"/>
     <use xlink:href="#ArialMT-20" transform="translate(633.642578 0)"/>
     <use xlink:href="#ArialMT-28" transform="translate(661.425781 0)"/>
     <use xlink:href="#ArialMT-78" transform="translate(694.726562 0)"/>
     <use xlink:href="#ArialMT-30" transform="translate(744.726562 0)"/>
     <use xlink:href="#ArialMT-20" transform="translate(800.341797 0)"/>
     <use xlink:href="#ArialMT-76" transform="translate(828.125 0)"/>
     <use xlink:href="#ArialMT-73" transform="translate(878.125 0)"/>
     <use xlink:href="#ArialMT-20" transform="translate(928.125 0)"/>
     <use xlink:href="#ArialMT-78" transform="translate(955.908203 0)"/>
     <use xlink:href="#ArialMT-31" transform="translate(1005.908203 0)"/>
     <use xlink:href="#ArialMT-29" transform="translate(1061.523438 0)"/>
    </g>
   </g>
   <g id="line2d_28">
    <path d="M 426.250471 192.074085 
L 426.670529 185.217144 
L 427.883534 178.880137 
L 429.743952 173.11275 
L 432.115921 167.97898 
L 434.86791 163.539141 
L 437.868117 159.83775 
L 441.005547 156.902271 
L 444.170091 154.7597 
L 447.254946 153.452538 
L 450.158832 153.074573 
L 452.775164 153.730863 
L 454.995556 155.488654 
L 456.71757 158.337202 
L 457.853966 162.190908 
L 458.339635 166.925519 
L 458.135276 172.41035 
L 457.207743 178.525565 
L 455.561122 185.133925 
L 453.210067 192.091727 
L 450.179856 199.244836 
L 446.522336 206.427777 
L 442.306318 213.487093 
L 437.608802 220.273966 
L 432.52197 226.672794 
L 427.140535 232.598057 
L 421.561912 237.97964 
L 415.876136 242.792544 
L 410.164607 247.032246 
L 404.503336 250.708115 
L 398.951457 253.842063 
L 393.560499 256.456188 
L 388.379244 258.564783 
L 383.445981 260.182808 
L 378.794007 261.329316 
L 374.454758 262.025494 
L 370.458409 262.304319 
L 366.819722 262.218341 
L 363.547656 261.824669 
L 360.647391 261.17965 
L 358.112798 260.331716 
L 355.933943 259.315611 
L 354.098014 258.149085 
L 352.591899 256.835905 
L 351.403817 255.368954 
L 350.523981 253.735958 
L 349.945035 251.923359 
L 349.662287 249.92337 
L 349.671342 247.729636 
L 349.969276 245.341025 
L 350.553085 242.760888 
L 351.420035 239.992009 
L 352.566281 237.040296 
L 353.988734 233.907239 
L 355.685168 230.591306 
L 357.653357 227.090969 
L 359.89131 223.405323 
L 362.398584 219.526217 
L 365.175466 215.452895 
L 371.53917 206.72543 
L 378.982299 197.249486 
L 383.102352 192.266219 
L 387.481044 187.148863 
L 392.105748 181.938222 
L 396.958613 176.687096 
L 402.018984 171.457325 
L 407.251974 166.344741 
L 412.616834 161.455821 
L 418.064182 156.918626 
L 423.530251 152.855609 
L 428.94732 149.382134 
L 434.244535 146.572737 
L 439.345329 144.512101 
L 444.172193 143.288811 
L 448.641674 143.037284 
L 452.65523 143.919575 
L 456.105909 146.045013 
L 458.88818 149.413079 
L 460.912706 153.931053 
L 462.109864 159.471992 
L 462.43956 165.918033 
L 461.8684 173.155595 
L 460.388131 181.037953 
L 458.021529 189.370795 
L 454.799086 197.95269 
L 450.784703 206.561029 
L 446.064699 214.991232 
L 440.74053 223.047375 
L 434.931879 230.591382 
L 428.760899 237.502576 
L 422.35265 243.705132 
L 415.823385 249.170764 
L 409.280191 253.901222 
L 402.810217 257.93394 
L 396.488937 261.318369 
L 390.373444 264.103814 
L 384.513519 266.331969 
L 378.94931 268.030154 
L 373.716578 269.221636 
L 368.848914 269.93071 
L 364.369523 270.204253 
L 360.296835 270.097984 
L 356.639345 269.682081 
L 353.393095 269.023118 
L 350.549077 268.179894 
L 348.090766 267.188433 
L 345.999852 266.065906 
L 344.258475 264.810639 
L 342.851228 263.411233 
L 341.765268 261.850563 
L 340.991398 260.116161 
L 340.522378 258.203892 
L 340.35125 256.111585 
L 340.472057 253.845308 
L 340.8782 251.41218 
L 341.563327 248.818147 
L 342.519888 246.069339 
L 343.742121 243.162763 
L 345.225627 240.091046 
L 346.966813 236.845856 
L 348.96318 233.413614 
L 353.730395 225.930953 
L 359.555221 217.53633 
L 366.486462 208.166863 
L 374.575835 197.824178 
L 383.845527 186.61714 
L 388.918591 180.750233 
L 394.266531 174.769374 
L 399.873232 168.727291 
L 405.713355 162.700528 
L 411.749884 156.800947 
L 417.937675 151.169068 
L 424.213728 145.986259 
L 430.503091 141.446925 
L 436.715071 137.70747 
L 442.754239 134.87648 
L 448.520526 133.043213 
L 453.911478 132.3603 
L 458.803898 133.038016 
L 463.061901 135.238723 
L 466.545505 139.01084 
L 469.137427 144.228531 
L 470.741827 150.762829 
L 471.291811 158.505761 
L 470.74461 167.32158 
L 469.067647 177.015277 
L 466.282147 187.296148 
L 462.433755 197.85827 
L 457.599033 208.388064 
L 451.89828 218.624337 
L 445.462832 228.327682 
L 438.446795 237.311938 
L 431.011849 245.439956 
L 423.320113 252.621348 
L 415.522271 258.824353 
L 407.753923 264.064492 
L 400.123542 268.410874 
L 392.720033 271.95679 
L 385.607204 274.799167 
L 378.83629 277.018062 
L 372.447411 278.666255 
L 366.474767 279.780045 
L 360.947842 280.395369 
L 355.887582 280.566716 
L 351.306362 280.366268 
L 347.202905 279.879563 
L 343.565468 279.187328 
L 340.372833 278.352377 
L 337.598838 277.410143 
L 335.216572 276.37014 
L 333.201271 275.223666 
L 331.532443 273.954202 
L 330.193057 272.544409 
L 329.16993 270.990771 
L 328.450479 269.294353 
L 328.023048 267.466208 
L 327.875132 265.52049 
L 327.99401 263.469295 
L 328.366882 261.318893 
L 328.981728 259.068195 
L 329.828732 256.706469 
L 330.900351 254.216783 
L 332.193173 251.576324 
L 335.440354 245.739886 
L 339.606025 238.99638 
L 344.763397 231.169957 
L 351.014884 222.133132 
L 358.476081 211.79692 
L 367.260716 200.145073 
L 377.463968 187.251714 
L 383.106873 180.414721 
L 389.107393 173.37539 
L 395.447245 166.201257 
L 402.102099 158.966783 
L 409.03898 151.756131 
L 416.21274 144.684507 
L 423.578387 137.882759 
L 431.062543 131.601355 
L 438.577272 126.131631 
L 446.005707 121.767845 
L 453.210577 118.684348 
L 460.050523 116.997118 
L 466.369756 116.947502 
L 471.987089 118.865737 
L 476.706964 122.864847 
L 480.351243 128.832712 
L 482.780516 136.65141 
L 483.874955 146.262897 
L 483.54802 157.46753 
L 481.749973 169.899104 
L 478.498502 183.091908 
L 473.856251 196.582597 
L 467.94579 209.965019 
L 460.914429 222.863577 
L 452.94868 234.990674 
L 444.249595 246.113039 
L 435.032897 256.072253 
L 425.512697 264.770941 
L 415.890651 272.162288 
L 406.34368 278.261389 
L 397.015673 283.155015 
L 388.018726 286.988569 
L 379.433307 289.936702 
L 371.316902 292.155496 
L 363.710803 293.754093 
L 356.646055 294.798398 
L 350.145404 295.338531 
L 344.221663 295.437821 
L 338.874775 295.184421 
L 334.09009 294.682153 
L 329.839549 294.029295 
L 326.085718 293.298618 
L 322.787232 292.52812 
L 319.903902 291.724171 
L 317.400129 290.874054 
L 315.245772 289.959647 
L 313.41606 288.972276 
L 311.888847 287.914059 
L 310.643194 286.801642 
L 309.657799 285.657594 
L 308.910518 284.504128 
L 308.378946 283.357106 
L 308.041566 282.220932 
L 307.879197 281.087891 
L 307.875913 279.940301 
L 308.020416 278.753087 
L 308.305198 277.498271 
L 309.288727 274.682502 
L 310.839115 271.32583 
L 312.997444 267.330932 
L 315.814855 262.634792 
L 319.347981 257.156884 
L 326.150132 247.172453 
L 338.608938 229.485062 
L 351.208541 211.917337 
L 361.554883 197.777281 
L 373.731764 181.562223 
L 380.566434 172.701066 
L 387.923336 163.371976 
L 395.798652 153.669809 
L 404.1756 143.728785 
L 413.017443 133.7565 
L 422.25475 124.019781 
L 431.808712 114.749054 
L 441.580755 106.174902 
L 451.456788 98.614826 
L 461.277729 92.630206 
L 470.819353 88.718973 
L 479.822446 87.134865 
L 488.010702 88.310609 
L 495.068119 92.701813 
L 500.691717 100.245572 
L 504.620903 110.947206 
L 506.618922 124.737917 
L 506.517179 141.021976 
L 504.243505 159.088858 
L 499.834102 178.274951 
L 493.386658 197.858588 
L 485.100113 217.10238 
L 475.22183 235.320517 
L 464.05556 252.00782 
L 451.928433 266.81383 
L 439.184145 279.599192 
L 426.155916 290.385292 
L 413.136122 299.275393 
L 400.358567 306.38056 
L 388.001638 311.822195 
L 376.204732 315.792291 
L 365.075524 318.569561 
L 354.689394 320.452698 
L 345.087354 321.675715 
L 336.280983 322.379184 
L 328.260898 322.644211 
L 321.001379 322.549398 
L 314.465731 322.194976 
L 303.357707 321.186783 
L 294.452929 320.393076 
L 287.253126 320.062713 
L 281.350513 320.130789 
L 278.783913 320.31121 
L 276.425423 320.612434 
L 274.239189 321.063475 
L 272.188898 321.694348 
L 270.237544 322.53118 
L 268.350217 323.586591 
L 266.492556 324.870848 
L 264.633301 326.38344 
L 262.744941 328.119961 
L 258.783876 332.242085 
L 254.444598 337.230858 
L 249.584204 343.152377 
L 241.001775 354.090608 
L 211.98375 391.902065 
L 200.582589 406.188179 
L 194.275954 413.863805 
L 187.566871 421.827493 
L 180.464004 430.012609 
L 172.987728 438.31591 
L 165.1786 446.562298 
L 157.093399 454.519067 
L 148.814058 461.912408 
L 140.440525 468.503515 
L 132.085582 474.119202 
L 123.874405 478.517852 
L 115.96715 481.268821 
L 108.571453 481.975314 
L 101.911075 480.522938 
L 96.198202 476.831898 
L 91.649304 470.643341 
L 88.473828 461.964126 
L 86.843186 451.117279 
L 86.854856 438.470155 
L 88.563695 424.351439 
L 91.962499 409.204385 
L 96.991749 393.566517 
L 103.525379 377.996663 
L 111.386656 362.996159 
L 120.359109 348.982004 
L 130.19462 336.261333 
L 140.627916 325.040536 
L 151.392479 315.398928 
L 162.245178 307.300344 
L 172.983895 300.620455 
L 183.459796 295.206135 
L 193.560151 290.928239 
L 203.195743 287.691975 
L 212.288388 285.402581 
L 220.773913 283.923779 
L 228.608997 283.080004 
L 235.777724 282.687522 
L 242.290085 282.598457 
L 248.173744 282.72226 
L 253.464647 283.019426 
L 258.200074 283.47528 
L 262.416076 284.074209 
L 266.148211 284.782942 
L 272.312101 286.320272 
L 285.444888 290.126328 
L 289.32675 291.647961 
L 289.925709 291.549229 
L 290.728225 291.112955 
L 292.525508 289.793766 
L 293.359284 288.878472 
L 294.810113 286.7722 
L 301.592993 276.312146 
L 360.246697 188.568084 
L 375.585071 166.441493 
L 384.379834 154.136339 
L 393.965788 141.114371 
L 404.331409 127.565456 
L 415.444888 113.698472 
L 427.25055 99.732499 
L 439.681489 85.969322 
L 452.636059 73.065075 
L 465.920637 61.766264 
L 479.276814 52.609015 
L 492.34619 46.623424 
L 504.67525 44.588565 
L 515.78481 47.286492 
L 525.153056 55.272489 
L 532.276367 68.789988 
L 536.671709 87.687111 
L 537.963722 111.185911 
L 535.912749 138.391372 
L 530.457397 167.750448 
L 521.747883 197.656636 
L 510.129044 226.698783 
L 496.078344 253.692872 
L 480.141068 277.799908 
L 462.864373 298.549602 
L 444.790388 315.7275 
L 426.468196 329.34958 
L 408.389594 339.757213 
L 390.899297 347.513673 
L 374.207492 353.104432 
L 358.474801 356.849581 
L 343.84212 359.084466 
L 330.40037 360.226059 
L 318.152952 360.662654 
L 307.046131 360.671481 
L 296.998342 360.402922 
L 287.928482 359.947613 
L 287.928482 359.947613 
" clip-path="url(#pc16fde9dad)" style="fill: none; stroke-dasharray: 12.95,5.6; stroke-dashoffset: 0; stroke: #ff0000; stroke-opacity: 0.8; stroke-width: 3.5"/>
   </g>
   <g id="legend_1">
    <g id="line2d_29">
     <path d="M 49.807813 33.987344 
L 59.807813 33.987344 
L 69.807813 33.987344 
" style="fill: none; stroke: #000000; stroke-opacity: 0.3; stroke-width: 7; stroke-linecap: round"/>
    </g>
    <g id="text_16">
     <!-- True/Underlying model -->
     <g style="fill: #262626" transform="translate(77.807813 37.487344) scale(0.1 -0.1)">
      <defs>
       <path id="ArialMT-54" d="M 1659 0 
L 1659 4041 
L 150 4041 
L 150 4581 
L 3781 4581 
L 3781 4041 
L 2266 4041 
L 2266 0 
L 1659 0 
z
" transform="scale(0.015625)"/>
       <path id="ArialMT-75" d="M 2597 0 
L 2597 488 
Q 2209 -75 1544 -75 
Q 1250 -75 995 37 
Q 741 150 617 320 
Q 494 491 444 738 
Q 409 903 409 1263 
L 409 3319 
L 972 3319 
L 972 1478 
Q 972 1038 1006 884 
Q 1059 663 1231 536 
Q 1403 409 1656 409 
Q 1909 409 2131 539 
Q 2353 669 2445 892 
Q 2538 1116 2538 1541 
L 2538 3319 
L 3100 3319 
L 3100 0 
L 2597 0 
z
" transform="scale(0.015625)"/>
       <path id="ArialMT-2f" d="M 0 -78 
L 1328 4659 
L 1778 4659 
L 453 -78 
L 0 -78 
z
" transform="scale(0.015625)"/>
       <path id="ArialMT-55" d="M 3500 4581 
L 4106 4581 
L 4106 1934 
Q 4106 1244 3950 837 
Q 3794 431 3386 176 
Q 2978 -78 2316 -78 
Q 1672 -78 1262 144 
Q 853 366 678 786 
Q 503 1206 503 1934 
L 503 4581 
L 1109 4581 
L 1109 1938 
Q 1109 1341 1220 1058 
Q 1331 775 1601 622 
Q 1872 469 2263 469 
Q 2931 469 3215 772 
Q 3500 1075 3500 1938 
L 3500 4581 
z
" transform="scale(0.015625)"/>
       <path id="ArialMT-6e" d="M 422 0 
L 422 3319 
L 928 3319 
L 928 2847 
Q 1294 3394 1984 3394 
Q 2284 3394 2536 3286 
Q 2788 3178 2913 3003 
Q 3038 2828 3088 2588 
Q 3119 2431 3119 2041 
L 3119 0 
L 2556 0 
L 2556 2019 
Q 2556 2363 2490 2533 
Q 2425 2703 2258 2804 
Q 2091 2906 1866 2906 
Q 1506 2906 1245 2678 
Q 984 2450 984 1813 
L 984 0 
L 422 0 
z
" transform="scale(0.015625)"/>
       <path id="ArialMT-64" d="M 2575 0 
L 2575 419 
Q 2259 -75 1647 -75 
Q 1250 -75 917 144 
Q 584 363 401 755 
Q 219 1147 219 1656 
Q 219 2153 384 2558 
Q 550 2963 881 3178 
Q 1213 3394 1622 3394 
Q 1922 3394 2156 3267 
Q 2391 3141 2538 2938 
L 2538 4581 
L 3097 4581 
L 3097 0 
L 2575 0 
z
M 797 1656 
Q 797 1019 1065 703 
Q 1334 388 1700 388 
Q 2069 388 2326 689 
Q 2584 991 2584 1609 
Q 2584 2291 2321 2609 
Q 2059 2928 1675 2928 
Q 1300 2928 1048 2622 
Q 797 2316 797 1656 
z
" transform="scale(0.015625)"/>
       <path id="ArialMT-6c" d="M 409 0 
L 409 4581 
L 972 4581 
L 972 0 
L 409 0 
z
" transform="scale(0.015625)"/>
       <path id="ArialMT-79" d="M 397 -1278 
L 334 -750 
Q 519 -800 656 -800 
Q 844 -800 956 -737 
Q 1069 -675 1141 -563 
Q 1194 -478 1313 -144 
Q 1328 -97 1363 -6 
L 103 3319 
L 709 3319 
L 1400 1397 
Q 1534 1031 1641 628 
Q 1738 1016 1872 1384 
L 2581 3319 
L 3144 3319 
L 1881 -56 
Q 1678 -603 1566 -809 
Q 1416 -1088 1222 -1217 
Q 1028 -1347 759 -1347 
Q 597 -1347 397 -1278 
z
" transform="scale(0.015625)"/>
       <path id="ArialMT-67" d="M 319 -275 
L 866 -356 
Q 900 -609 1056 -725 
Q 1266 -881 1628 -881 
Q 2019 -881 2231 -725 
Q 2444 -569 2519 -288 
Q 2563 -116 2559 434 
Q 2191 0 1641 0 
Q 956 0 581 494 
Q 206 988 206 1678 
Q 206 2153 378 2554 
Q 550 2956 876 3175 
Q 1203 3394 1644 3394 
Q 2231 3394 2613 2919 
L 2613 3319 
L 3131 3319 
L 3131 450 
Q 3131 -325 2973 -648 
Q 2816 -972 2473 -1159 
Q 2131 -1347 1631 -1347 
Q 1038 -1347 672 -1080 
Q 306 -813 319 -275 
z
M 784 1719 
Q 784 1066 1043 766 
Q 1303 466 1694 466 
Q 2081 466 2343 764 
Q 2606 1063 2606 1700 
Q 2606 2309 2336 2618 
Q 2066 2928 1684 2928 
Q 1309 2928 1046 2623 
Q 784 2319 784 1719 
z
" transform="scale(0.015625)"/>
       <path id="ArialMT-6d" d="M 422 0 
L 422 3319 
L 925 3319 
L 925 2853 
Q 1081 3097 1340 3245 
Q 1600 3394 1931 3394 
Q 2300 3394 2536 3241 
Q 2772 3088 2869 2813 
Q 3263 3394 3894 3394 
Q 4388 3394 4653 3120 
Q 4919 2847 4919 2278 
L 4919 0 
L 4359 0 
L 4359 2091 
Q 4359 2428 4304 2576 
Q 4250 2725 4106 2815 
Q 3963 2906 3769 2906 
Q 3419 2906 3187 2673 
Q 2956 2441 2956 1928 
L 2956 0 
L 2394 0 
L 2394 2156 
Q 2394 2531 2256 2718 
Q 2119 2906 1806 2906 
Q 1569 2906 1367 2781 
Q 1166 2656 1075 2415 
Q 984 2175 984 1722 
L 984 0 
L 422 0 
z
" transform="scale(0.015625)"/>
      </defs>
      <use xlink:href="#ArialMT-54"/>
      <use xlink:href="#ArialMT-72" transform="translate(57.333984 0)"/>
      <use xlink:href="#ArialMT-75" transform="translate(90.634766 0)"/>
      <use xlink:href="#ArialMT-65" transform="translate(146.25 0)"/>
      <use xlink:href="#ArialMT-2f" transform="translate(201.865234 0)"/>
      <use xlink:href="#ArialMT-55" transform="translate(229.648438 0)"/>
      <use xlink:href="#ArialMT-6e" transform="translate(301.865234 0)"/>
      <use xlink:href="#ArialMT-64" transform="translate(357.480469 0)"/>
      <use xlink:href="#ArialMT-65" transform="translate(413.095703 0)"/>
      <use xlink:href="#ArialMT-72" transform="translate(468.710938 0)"/>
      <use xlink:href="#ArialMT-6c" transform="translate(502.011719 0)"/>
      <use xlink:href="#ArialMT-79" transform="translate(524.228516 0)"/>
      <use xlink:href="#ArialMT-69" transform="translate(574.228516 0)"/>
      <use xlink:href="#ArialMT-6e" transform="translate(596.445312 0)"/>
      <use xlink:href="#ArialMT-67" transform="translate(652.060547 0)"/>
      <use xlink:href="#ArialMT-20" transform="translate(707.675781 0)"/>
      <use xlink:href="#ArialMT-6d" transform="translate(735.458984 0)"/>
      <use xlink:href="#ArialMT-6f" transform="translate(818.759766 0)"/>
      <use xlink:href="#ArialMT-64" transform="translate(874.375 0)"/>
      <use xlink:href="#ArialMT-65" transform="translate(929.990234 0)"/>
      <use xlink:href="#ArialMT-6c" transform="translate(985.605469 0)"/>
     </g>
    </g>
    <g id="line2d_30">
     <path d="M 49.807813 48.371719 
L 59.807813 48.371719 
L 69.807813 48.371719 
" style="fill: none; stroke-dasharray: 12.95,5.6; stroke-dashoffset: 0; stroke: #ff0000; stroke-opacity: 0.8; stroke-width: 3.5"/>
    </g>
    <g id="text_17">
     <!-- AutoSINDy -->
     <g style="fill: #262626" transform="translate(77.807813 51.871719) scale(0.1 -0.1)">
      <defs>
       <path id="ArialMT-41" d="M -9 0 
L 1750 4581 
L 2403 4581 
L 4278 0 
L 3588 0 
L 3053 1388 
L 1138 1388 
L 634 0 
L -9 0 
z
M 1313 1881 
L 2866 1881 
L 2388 3150 
Q 2169 3728 2063 4100 
Q 1975 3659 1816 3225 
L 1313 1881 
z
" transform="scale(0.015625)"/>
       <path id="ArialMT-53" d="M 288 1472 
L 859 1522 
Q 900 1178 1048 958 
Q 1197 738 1509 602 
Q 1822 466 2213 466 
Q 2559 466 2825 569 
Q 3091 672 3220 851 
Q 3350 1031 3350 1244 
Q 3350 1459 3225 1620 
Q 3100 1781 2813 1891 
Q 2628 1963 1997 2114 
Q 1366 2266 1113 2400 
Q 784 2572 623 2826 
Q 463 3081 463 3397 
Q 463 3744 659 4045 
Q 856 4347 1234 4503 
Q 1613 4659 2075 4659 
Q 2584 4659 2973 4495 
Q 3363 4331 3572 4012 
Q 3781 3694 3797 3291 
L 3216 3247 
Q 3169 3681 2898 3903 
Q 2628 4125 2100 4125 
Q 1550 4125 1298 3923 
Q 1047 3722 1047 3438 
Q 1047 3191 1225 3031 
Q 1400 2872 2139 2705 
Q 2878 2538 3153 2413 
Q 3553 2228 3743 1945 
Q 3934 1663 3934 1294 
Q 3934 928 3725 604 
Q 3516 281 3123 101 
Q 2731 -78 2241 -78 
Q 1619 -78 1198 103 
Q 778 284 539 648 
Q 300 1013 288 1472 
z
" transform="scale(0.015625)"/>
       <path id="ArialMT-49" d="M 597 0 
L 597 4581 
L 1203 4581 
L 1203 0 
L 597 0 
z
" transform="scale(0.015625)"/>
       <path id="ArialMT-4e" d="M 488 0 
L 488 4581 
L 1109 4581 
L 3516 984 
L 3516 4581 
L 4097 4581 
L 4097 0 
L 3475 0 
L 1069 3600 
L 1069 0 
L 488 0 
z
" transform="scale(0.015625)"/>
       <path id="ArialMT-44" d="M 494 0 
L 494 4581 
L 2072 4581 
Q 2606 4581 2888 4516 
Q 3281 4425 3559 4188 
Q 3922 3881 4101 3404 
Q 4281 2928 4281 2316 
Q 4281 1794 4159 1391 
Q 4038 988 3847 723 
Q 3656 459 3429 307 
Q 3203 156 2883 78 
Q 2563 0 2147 0 
L 494 0 
z
M 1100 541 
L 2078 541 
Q 2531 541 2789 625 
Q 3047 709 3200 863 
Q 3416 1078 3536 1442 
Q 3656 1806 3656 2325 
Q 3656 3044 3420 3430 
Q 3184 3816 2847 3947 
Q 2603 4041 2063 4041 
L 1100 4041 
L 1100 541 
z
" transform="scale(0.015625)"/>
      </defs>
      <use xlink:href="#ArialMT-41"/>
      <use xlink:href="#ArialMT-75" transform="translate(66.699219 0)"/>
      <use xlink:href="#ArialMT-74" transform="translate(122.314453 0)"/>
      <use xlink:href="#ArialMT-6f" transform="translate(150.097656 0)"/>
      <use xlink:href="#ArialMT-53" transform="translate(205.712891 0)"/>
      <use xlink:href="#ArialMT-49" transform="translate(272.412109 0)"/>
      <use xlink:href="#ArialMT-4e" transform="translate(300.195312 0)"/>
      <use xlink:href="#ArialMT-44" transform="translate(372.412109 0)"/>
      <use xlink:href="#ArialMT-79" transform="translate(444.628906 0)"/>
     </g>
    </g>
    <g id="line2d_31">
     <path d="M 49.807813 62.756094 
L 59.807813 62.756094 
L 69.807813 62.756094 
" style="fill: none; stroke-dasharray: 3.5,5.775; stroke-dashoffset: 0; stroke: #008000; stroke-opacity: 0.8; stroke-width: 3.5"/>
    </g>
    <g id="text_18">
     <!-- Standard SINDy -->
     <g style="fill: #262626" transform="translate(77.807813 66.256094) scale(0.1 -0.1)">
      <use xlink:href="#ArialMT-53"/>
      <use xlink:href="#ArialMT-74" transform="translate(66.699219 0)"/>
      <use xlink:href="#ArialMT-61" transform="translate(94.482422 0)"/>
      <use xlink:href="#ArialMT-6e" transform="translate(150.097656 0)"/>
      <use xlink:href="#ArialMT-64" transform="translate(205.712891 0)"/>
      <use xlink:href="#ArialMT-61" transform="translate(261.328125 0)"/>
      <use xlink:href="#ArialMT-72" transform="translate(316.943359 0)"/>
      <use xlink:href="#ArialMT-64" transform="translate(350.244141 0)"/>
      <use xlink:href="#ArialMT-20" transform="translate(405.859375 0)"/>
      <use xlink:href="#ArialMT-53" transform="translate(433.642578 0)"/>
      <use xlink:href="#ArialMT-49" transform="translate(500.341797 0)"/>
      <use xlink:href="#ArialMT-4e" transform="translate(528.125 0)"/>
      <use xlink:href="#ArialMT-44" transform="translate(600.341797 0)"/>
      <use xlink:href="#ArialMT-79" transform="translate(672.558594 0)"/>
     </g>
    </g>
    <g id="line2d_32">
     <path d="M 49.807813 77.140469 
L 59.807813 77.140469 
L 69.807813 77.140469 
" style="fill: none; stroke-dasharray: 22.4,5.6,3.5,5.6; stroke-dashoffset: 0; stroke: #0000ff; stroke-opacity: 0.8; stroke-width: 3.5"/>
    </g>
    <g id="text_19">
     <!-- Standard PySR -->
     <g style="fill: #262626" transform="translate(77.807813 80.640469) scale(0.1 -0.1)">
      <defs>
       <path id="ArialMT-52" d="M 503 0 
L 503 4581 
L 2534 4581 
Q 3147 4581 3465 4457 
Q 3784 4334 3975 4021 
Q 4166 3709 4166 3331 
Q 4166 2844 3850 2509 
Q 3534 2175 2875 2084 
Q 3116 1969 3241 1856 
Q 3506 1613 3744 1247 
L 4541 0 
L 3778 0 
L 3172 953 
Q 2906 1366 2734 1584 
Q 2563 1803 2427 1890 
Q 2291 1978 2150 2013 
Q 2047 2034 1813 2034 
L 1109 2034 
L 1109 0 
L 503 0 
z
M 1109 2559 
L 2413 2559 
Q 2828 2559 3062 2645 
Q 3297 2731 3419 2920 
Q 3541 3109 3541 3331 
Q 3541 3656 3305 3865 
Q 3069 4075 2559 4075 
L 1109 4075 
L 1109 2559 
z
" transform="scale(0.015625)"/>
      </defs>
      <use xlink:href="#ArialMT-53"/>
      <use xlink:href="#ArialMT-74" transform="translate(66.699219 0)"/>
      <use xlink:href="#ArialMT-61" transform="translate(94.482422 0)"/>
      <use xlink:href="#ArialMT-6e" transform="translate(150.097656 0)"/>
      <use xlink:href="#ArialMT-64" transform="translate(205.712891 0)"/>
      <use xlink:href="#ArialMT-61" transform="translate(261.328125 0)"/>
      <use xlink:href="#ArialMT-72" transform="translate(316.943359 0)"/>
      <use xlink:href="#ArialMT-64" transform="translate(350.244141 0)"/>
      <use xlink:href="#ArialMT-20" transform="translate(405.859375 0)"/>
      <use xlink:href="#ArialMT-50" transform="translate(433.642578 0)"/>
      <use xlink:href="#ArialMT-79" transform="translate(500.341797 0)"/>
      <use xlink:href="#ArialMT-53" transform="translate(550.341797 0)"/>
      <use xlink:href="#ArialMT-52" transform="translate(617.041016 0)"/>
     </g>
    </g>
   </g>
  </g>
 </g>
 <defs>
  <clipPath id="pc16fde9dad">
   <rect x="40.807813" y="21.207656" width="520.83" height="514.38"/>
  </clipPath>
 </defs>
</svg>
