<?xml version="1.0" encoding="utf-8" standalone="no"?>
<!DOCTYPE svg PUBLIC "-//W3C//DTD SVG 1.1//EN"
  "http://www.w3.org/Graphics/SVG/1.1/DTD/svg11.dtd">
<svg xmlns:xlink="http://www.w3.org/1999/xlink" width="871.750937pt" height="285.79625pt" viewBox="0 0 871.750937 285.79625" xmlns="http://www.w3.org/2000/svg" version="1.1">
 <metadata>
  <rdf:RDF xmlns:dc="http://purl.org/dc/elements/1.1/" xmlns:cc="http://creativecommons.org/ns#" xmlns:rdf="http://www.w3.org/1999/02/22-rdf-syntax-ns#">
   <cc:Work>
    <dc:type rdf:resource="http://purl.org/dc/dcmitype/StillImage"/>
    <dc:date>2026-04-06T02:35:10.564551</dc:date>
    <dc:format>image/svg+xml</dc:format>
    <dc:creator>
     <cc:Agent>
      <dc:title>Matplotlib v3.10.7, https://matplotlib.org/</dc:title>
     </cc:Agent>
    </dc:creator>
   </cc:Work>
  </rdf:RDF>
 </metadata>
 <defs>
  <style type="text/css">*{stroke-linejoin: round; stroke-linecap: butt}</style>
 </defs>
 <g id="figure_1">
  <g id="patch_1">
   <path d="M 0 285.79625 
L 871.750937 285.79625 
L 871.750937 0 
L 0 0 
z
" style="fill: #ffffff"/>
  </g>
  <g id="axes_1">
   <g id="patch_2">
    <path d="M 52.160938 136.79 
L 858.750937 136.79 
L 858.750937 39.64 
L 52.160938 39.64 
z
" style="fill: #ffffff"/>
   </g>
   <g id="line2d_1">
    <path d="M 88.824119 46.386152 
L 94.701984 46.257592 
L 100.579849 46.364961 
L 106.457714 46.707232 
L 112.335579 47.289455 
L 118.213443 48.12213 
L 124.091308 49.220678 
L 129.969173 50.610072 
L 134.377572 51.86008 
L 138.78597 53.30182 
L 143.194369 54.947554 
L 147.602768 56.809664 
L 152.011166 58.900511 
L 156.419565 61.230364 
L 160.827963 63.80331 
L 165.236362 66.614651 
L 169.644761 69.650731 
L 175.522625 74.008059 
L 181.40049 78.645319 
L 203.442483 96.407053 
L 207.850882 99.581628 
L 212.259281 102.514077 
L 216.667679 105.172433 
L 221.076078 107.533657 
L 225.484476 109.585574 
L 229.892875 111.33106 
L 234.301274 112.773568 
L 238.709672 113.917272 
L 243.118071 114.767385 
L 247.526469 115.330163 
L 251.934868 115.612903 
L 256.343267 115.6232 
L 260.751665 115.363637 
L 265.160064 114.835151 
L 269.568463 114.039599 
L 273.976861 112.979757 
L 278.38526 111.659327 
L 282.793658 110.082931 
L 287.202057 108.256112 
L 291.610456 106.185337 
L 296.018854 103.879627 
L 300.427253 101.363198 
L 306.305118 97.736116 
L 313.652449 92.892788 
L 329.816577 82.062385 
L 335.694442 78.451586 
L 340.10284 75.960878 
L 344.511239 73.693646 
L 348.919638 71.676189 
L 353.328036 69.928222 
L 357.736435 68.462879 
L 362.144833 67.286438 
L 366.553232 66.396285 
L 370.961631 65.79079 
L 375.370029 65.468418 
L 379.778428 65.426405 
L 384.186827 65.660763 
L 388.595225 66.166278 
L 393.003624 66.936509 
L 397.412022 67.9638 
L 401.820421 69.240044 
L 406.22882 70.754274 
L 410.637218 72.490823 
L 415.045617 74.429301 
L 420.923482 77.283968 
L 426.801346 80.379855 
L 437.08761 86.106615 
L 447.373873 91.756367 
L 453.251738 94.743069 
L 459.129603 97.446965 
L 463.538002 99.247498 
L 467.9464 100.826529 
L 472.354799 102.16944 
L 476.763197 103.266482 
L 481.171596 104.109807 
L 485.579995 104.694772 
L 489.988393 105.019932 
L 494.396792 105.087046 
L 498.805191 104.901077 
L 503.213589 104.468541 
L 507.621988 103.794663 
L 512.030386 102.887523 
L 516.438785 101.758841 
L 520.847184 100.423977 
L 526.725048 98.356791 
L 532.602913 96.012353 
L 539.950244 92.793448 
L 564.93117 81.497824 
L 570.809035 79.230939 
L 576.686899 77.255754 
L 581.095298 75.994711 
L 585.503697 74.939657 
L 589.912095 74.101321 
L 594.320494 73.486106 
L 598.728893 73.095789 
L 603.137291 72.931183 
L 607.54569 72.992713 
L 611.954088 73.277613 
L 616.362487 73.779905 
L 620.770886 74.490392 
L 625.179284 75.39666 
L 631.057149 76.882091 
L 636.935014 78.644063 
L 642.812879 80.634047 
L 650.16021 83.349289 
L 672.202203 91.719969 
L 678.080068 93.674978 
L 683.957932 95.396544 
L 689.835797 96.839634 
L 694.244196 97.718708 
L 698.652594 98.412401 
L 703.060993 98.915114 
L 707.469392 99.22342 
L 711.87779 99.334922 
L 716.286189 99.250274 
L 720.694588 98.973205 
L 725.102986 98.510525 
L 729.511385 97.872123 
L 735.38925 96.769782 
L 741.267114 95.410376 
L 747.144979 93.835258 
L 754.49231 91.637238 
L 767.717506 87.375069 
L 778.00377 84.158372 
L 785.351101 82.103317 
L 791.228965 80.677205 
L 797.10683 79.486797 
L 802.984695 78.561426 
L 808.86256 77.919901 
L 813.270958 77.632536 
L 817.679357 77.513437 
L 822.087756 77.561445 
L 822.087756 77.561445 
" clip-path="url(#pc105f995ff)" style="fill: none; stroke: #000000; stroke-opacity: 0.4; stroke-width: 6; stroke-linecap: square"/>
   </g>
   <g id="matplotlib.axis_1">
    <g id="xtick_1">
     <g id="line2d_2">
      <defs>
       <path id="m17c05eabc4" d="M 0 0 
L 0 3.5 
" style="stroke: #000000; stroke-width: 0.8"/>
      </defs>
      <g>
       <use xlink:href="#m17c05eabc4" x="88.824119" y="136.79" style="stroke: #000000; stroke-width: 0.8"/>
      </g>
     </g>
    </g>
    <g id="xtick_2">
     <g id="line2d_3">
      <g>
       <use xlink:href="#m17c05eabc4" x="235.476847" y="136.79" style="stroke: #000000; stroke-width: 0.8"/>
      </g>
     </g>
    </g>
    <g id="xtick_3">
     <g id="line2d_4">
      <g>
       <use xlink:href="#m17c05eabc4" x="382.129574" y="136.79" style="stroke: #000000; stroke-width: 0.8"/>
      </g>
     </g>
    </g>
    <g id="xtick_4">
     <g id="line2d_5">
      <g>
       <use xlink:href="#m17c05eabc4" x="528.782301" y="136.79" style="stroke: #000000; stroke-width: 0.8"/>
      </g>
     </g>
    </g>
    <g id="xtick_5">
     <g id="line2d_6">
      <g>
       <use xlink:href="#m17c05eabc4" x="675.435028" y="136.79" style="stroke: #000000; stroke-width: 0.8"/>
      </g>
     </g>
    </g>
    <g id="xtick_6">
     <g id="line2d_7">
      <g>
       <use xlink:href="#m17c05eabc4" x="822.087756" y="136.79" style="stroke: #000000; stroke-width: 0.8"/>
      </g>
     </g>
    </g>
   </g>
   <g id="matplotlib.axis_2">
    <g id="ytick_1">
     <g id="line2d_8">
      <defs>
       <path id="mc4bd46ca52" d="M 0 0 
L -3.5 0 
" style="stroke: #000000; stroke-width: 0.8"/>
      </defs>
      <g>
       <use xlink:href="#mc4bd46ca52" x="52.160938" y="118.452615" style="stroke: #000000; stroke-width: 0.8"/>
      </g>
     </g>
     <g id="text_1">
      <!-- −2 -->
      <g transform="translate(30.41875 122.251833) scale(0.1 -0.1)">
       <defs>
        <path id="DejaVuSans-2212" d="M 678 2272 
L 4684 2272 
L 4684 1741 
L 678 1741 
L 678 2272 
z
" transform="scale(0.015625)"/>
        <path id="DejaVuSans-32" d="M 1228 531 
L 3431 531 
L 3431 0 
L 469 0 
L 469 531 
Q 828 903 1448 1529 
Q 2069 2156 2228 2338 
Q 2531 2678 2651 2914 
Q 2772 3150 2772 3378 
Q 2772 3750 2511 3984 
Q 2250 4219 1831 4219 
Q 1534 4219 1204 4116 
Q 875 4013 500 3803 
L 500 4441 
Q 881 4594 1212 4672 
Q 1544 4750 1819 4750 
Q 2544 4750 2975 4387 
Q 3406 4025 3406 3419 
Q 3406 3131 3298 2873 
Q 3191 2616 2906 2266 
Q 2828 2175 2409 1742 
Q 1991 1309 1228 531 
z
" transform="scale(0.015625)"/>
       </defs>
       <use xlink:href="#DejaVuSans-2212"/>
       <use xlink:href="#DejaVuSans-32" transform="translate(83.789062 0)"/>
      </g>
     </g>
    </g>
    <g id="ytick_2">
     <g id="line2d_9">
      <g>
       <use xlink:href="#mc4bd46ca52" x="52.160938" y="87.400143" style="stroke: #000000; stroke-width: 0.8"/>
      </g>
     </g>
     <g id="text_2">
      <!-- 0 -->
      <g transform="translate(38.798438 91.199361) scale(0.1 -0.1)">
       <defs>
        <path id="DejaVuSans-30" d="M 2034 4250 
Q 1547 4250 1301 3770 
Q 1056 3291 1056 2328 
Q 1056 1369 1301 889 
Q 1547 409 2034 409 
Q 2525 409 2770 889 
Q 3016 1369 3016 2328 
Q 3016 3291 2770 3770 
Q 2525 4250 2034 4250 
z
M 2034 4750 
Q 2819 4750 3233 4129 
Q 3647 3509 3647 2328 
Q 3647 1150 3233 529 
Q 2819 -91 2034 -91 
Q 1250 -91 836 529 
Q 422 1150 422 2328 
Q 422 3509 836 4129 
Q 1250 4750 2034 4750 
z
" transform="scale(0.015625)"/>
       </defs>
       <use xlink:href="#DejaVuSans-30"/>
      </g>
     </g>
    </g>
    <g id="ytick_3">
     <g id="line2d_10">
      <g>
       <use xlink:href="#mc4bd46ca52" x="52.160938" y="56.347671" style="stroke: #000000; stroke-width: 0.8"/>
      </g>
     </g>
     <g id="text_3">
      <!-- 2 -->
      <g transform="translate(38.798438 60.146889) scale(0.1 -0.1)">
       <use xlink:href="#DejaVuSans-32"/>
      </g>
     </g>
    </g>
    <g id="text_4">
     <!-- $x0$ -->
     <g transform="translate(24.339063 94.365) rotate(-90) scale(0.1 -0.1)">
      <defs>
       <path id="DejaVuSans-Oblique-78" d="M 3841 3500 
L 2234 1784 
L 3219 0 
L 2559 0 
L 1819 1388 
L 531 0 
L -166 0 
L 1556 1844 
L 641 3500 
L 1300 3500 
L 1972 2234 
L 3144 3500 
L 3841 3500 
z
" transform="scale(0.015625)"/>
      </defs>
      <use xlink:href="#DejaVuSans-Oblique-78" transform="translate(0 0.78125)"/>
      <use xlink:href="#DejaVuSans-30" transform="translate(59.179688 0.78125)"/>
     </g>
    </g>
   </g>
   <g id="line2d_11">
    <path d="M 88.824119 46.386152 
L 91.763052 46.356286 
L 94.701984 46.518575 
L 97.640917 46.854132 
L 102.049315 47.603195 
L 103.518781 47.948132 
L 107.92718 49.400438 
L 112.335579 51.235068 
L 115.274511 52.667361 
L 119.68291 55.121321 
L 124.091308 57.897778 
L 128.499707 60.991913 
L 132.908105 64.355446 
L 138.78597 69.207748 
L 144.663835 74.395158 
L 153.480632 82.610664 
L 171.114227 99.365596 
L 178.461558 105.873067 
L 184.339423 110.710606 
L 188.747821 114.05401 
L 193.15622 117.11822 
L 197.564618 119.882528 
L 201.973017 122.295369 
L 206.381416 124.361418 
L 210.789814 125.986755 
L 213.728747 126.938992 
L 216.667679 127.533497 
L 221.076078 128.171625 
L 224.01501 128.403378 
L 226.953943 128.448105 
L 229.892875 128.301273 
L 232.831807 127.95218 
L 235.77074 127.366978 
L 241.648605 125.723028 
L 247.526469 123.383082 
L 250.465402 121.976014 
L 254.8738 119.558961 
L 259.282199 116.818064 
L 263.690598 113.761517 
L 268.098996 110.430435 
L 273.976861 105.618372 
L 279.854726 100.471013 
L 287.202057 93.712478 
L 306.305118 75.740749 
L 312.182982 70.519976 
L 318.060847 65.610865 
L 322.469246 62.194541 
L 326.877645 59.037702 
L 331.286043 56.172536 
L 335.694442 53.647373 
L 338.633374 52.14381 
L 343.041773 50.194681 
L 347.450171 48.682083 
L 353.328036 47.124838 
L 356.266969 46.656014 
L 359.205901 46.404838 
L 362.144833 46.348249 
L 365.083766 46.481502 
L 368.022698 46.793523 
L 372.431097 47.519283 
L 375.370029 48.266307 
L 381.247894 50.401288 
L 385.656293 52.463645 
L 388.595225 54.030361 
L 391.534158 55.756452 
L 395.942556 58.607258 
L 400.350955 61.765487 
L 404.759353 65.191827 
L 410.637218 70.112121 
L 416.515083 75.35555 
L 423.862414 82.214111 
L 444.434941 101.643605 
L 450.312806 106.76323 
L 454.721204 110.378408 
L 459.129603 113.743344 
L 463.538002 116.840257 
L 467.9464 119.623857 
L 472.354799 122.085635 
L 475.293731 123.523669 
L 479.70213 125.367966 
L 485.579995 127.178404 
L 489.988393 127.933308 
L 492.927326 128.274491 
L 495.866258 128.440515 
L 498.805191 128.41689 
L 501.744123 128.199976 
L 504.683055 127.772711 
L 507.621988 127.09164 
L 513.499853 125.332229 
L 517.908251 123.581923 
L 522.31665 121.436841 
L 526.725048 118.930146 
L 531.133447 116.106524 
L 535.541846 112.987382 
L 539.950244 109.596876 
L 545.828109 104.718372 
L 551.705974 99.516572 
L 560.522771 91.345784 
L 572.278501 80.199568 
L 579.625832 73.47291 
L 585.503697 68.37968 
L 589.912095 64.776372 
L 594.320494 61.419738 
L 598.728893 58.332693 
L 603.137291 55.539794 
L 607.54569 53.09676 
L 611.954088 50.994986 
L 614.893021 49.830248 
L 617.831953 48.798074 
L 623.709818 47.216087 
L 626.64875 46.71184 
L 629.587683 46.431741 
L 632.526615 46.347225 
L 635.465548 46.452752 
L 638.40448 46.742669 
L 642.812879 47.43863 
L 645.751811 48.130801 
L 651.629676 50.235987 
L 656.038075 52.252291 
L 660.446473 54.627348 
L 663.385406 56.39443 
L 667.793804 59.332174 
L 672.202203 62.551743 
L 676.610601 66.036393 
L 682.488466 71.021622 
L 688.366331 76.310135 
L 697.183128 84.586228 
L 707.469392 94.480253 
L 713.347257 99.936075 
L 719.225121 105.15082 
L 725.102986 110.035773 
L 729.511385 113.432073 
L 733.919783 116.558899 
L 738.328182 119.379527 
L 742.736581 121.851898 
L 745.675513 123.313712 
L 750.083912 125.199535 
L 754.49231 126.705303 
L 757.431243 127.382442 
L 761.839641 128.073403 
L 764.778574 128.35599 
L 767.717506 128.454825 
L 770.656439 128.362689 
L 773.595371 128.075914 
L 776.534303 127.562011 
L 779.473236 126.79355 
L 783.881634 125.500172 
L 788.290033 123.761822 
L 792.698432 121.65044 
L 795.637364 120.041604 
L 798.576296 118.296214 
L 802.984695 115.396718 
L 807.393094 112.202136 
L 811.801492 108.75735 
L 817.679357 103.816012 
L 822.087756 99.90337 
L 822.087756 99.90337 
" clip-path="url(#pc105f995ff)" style="fill: none; stroke-dasharray: 22.4,5.6,3.5,5.6; stroke-dashoffset: 0; stroke: #0000ff; stroke-opacity: 0.8; stroke-width: 3.5"/>
   </g>
   <g id="patch_3">
    <path d="M 52.160938 136.79 
L 52.160938 39.64 
" style="fill: none; stroke: #000000; stroke-width: 0.8; stroke-linejoin: miter; stroke-linecap: square"/>
   </g>
   <g id="patch_4">
    <path d="M 858.750937 136.79 
L 858.750937 39.64 
" style="fill: none; stroke: #000000; stroke-width: 0.8; stroke-linejoin: miter; stroke-linecap: square"/>
   </g>
   <g id="patch_5">
    <path d="M 52.160938 136.79 
L 858.750938 136.79 
" style="fill: none; stroke: #000000; stroke-width: 0.8; stroke-linejoin: miter; stroke-linecap: square"/>
   </g>
   <g id="patch_6">
    <path d="M 52.160938 39.64 
L 858.750938 39.64 
" style="fill: none; stroke: #000000; stroke-width: 0.8; stroke-linejoin: miter; stroke-linecap: square"/>
   </g>
   <g id="line2d_12">
    <path d="M 88.824119 46.386152 
L 107.92718 50.616843 
L 113.805045 52.150796 
L 119.68291 53.925727 
L 124.091308 55.469711 
L 128.499707 57.238753 
L 132.908105 59.26731 
L 137.316504 61.579003 
L 141.724903 64.183234 
L 146.133301 67.069311 
L 150.5417 70.205072 
L 156.419565 74.683021 
L 184.339423 96.504612 
L 190.217287 100.705483 
L 194.625686 103.625092 
L 199.034085 106.269326 
L 203.442483 108.580637 
L 206.381416 109.916989 
L 209.320348 111.084792 
L 212.259281 112.084112 
L 215.198213 112.920651 
L 219.606612 113.887238 
L 224.01501 114.536041 
L 228.423409 114.897347 
L 232.831807 114.993823 
L 237.240206 114.839211 
L 241.648605 114.436724 
L 246.057003 113.780466 
L 250.465402 112.858051 
L 254.8738 111.654447 
L 259.282199 110.157649 
L 263.690598 108.364276 
L 268.098996 106.282926 
L 272.507395 103.938681 
L 276.915794 101.370334 
L 282.793658 97.687408 
L 293.079922 90.899802 
L 304.835651 83.19626 
L 312.182982 78.612022 
L 318.060847 75.17891 
L 322.469246 72.811784 
L 326.877645 70.682433 
L 331.286043 68.836228 
L 335.694442 67.303227 
L 340.10284 66.093801 
L 344.511239 65.204761 
L 348.919638 64.626268 
L 353.328036 64.348196 
L 357.736435 64.363651 
L 362.144833 64.669448 
L 366.553232 65.264017 
L 370.961631 66.143938 
L 375.370029 67.300728 
L 379.778428 68.720047 
L 384.186827 70.381081 
L 388.595225 72.258615 
L 394.47309 75.047501 
L 400.350955 78.090348 
L 409.167752 82.942477 
L 423.862414 91.093306 
L 431.209745 94.896747 
L 437.08761 97.691131 
L 442.965475 100.192516 
L 447.373873 101.835699 
L 451.782272 103.249391 
L 456.190671 104.410792 
L 460.599069 105.302175 
L 465.007468 105.912872 
L 469.415866 106.237909 
L 473.824265 106.277209 
L 478.232664 106.033619 
L 482.641062 105.511463 
L 487.049461 104.716784 
L 491.45786 103.658338 
L 495.866258 102.350036 
L 500.274657 100.813308 
L 504.683055 99.077219 
L 510.56092 96.515805 
L 517.908251 93.049767 
L 542.889177 80.999627 
L 548.767042 78.440674 
L 554.644906 76.119002 
L 559.053305 74.577204 
L 563.461704 73.237604 
L 567.870102 72.122062 
L 572.278501 71.246234 
L 576.686899 70.619814 
L 581.095298 70.247822 
L 585.503697 70.132353 
L 589.912095 70.272752 
L 594.320494 70.665891 
L 598.728893 71.305452 
L 603.137291 72.181011 
L 607.54569 73.278257 
L 611.954088 74.578441 
L 617.831953 76.588921 
L 623.709818 78.859841 
L 631.057149 81.961983 
L 658.977007 94.099826 
L 664.854872 96.280001 
L 670.732737 98.186202 
L 675.141135 99.4008 
L 679.549534 100.408038 
L 683.957932 101.193845 
L 688.366331 101.750521 
L 692.77473 102.077722 
L 697.183128 102.180529 
L 701.591527 102.068094 
L 705.999925 101.752558 
L 710.408324 101.247993 
L 716.286189 100.309586 
L 722.164054 99.108878 
L 729.511385 97.319267 
L 738.328182 94.903088 
L 755.961776 90.006945 
L 763.309107 88.238655 
L 769.186972 87.03367 
L 775.064837 86.050479 
L 780.942702 85.307448 
L 786.820567 84.808557 
L 792.698432 84.545473 
L 798.576296 84.500893 
L 804.454161 84.65194 
L 811.801492 85.076253 
L 819.148823 85.712249 
L 822.087756 86.013761 
L 822.087756 86.013761 
" clip-path="url(#pc105f995ff)" style="fill: none; stroke-dasharray: 3.5,5.775; stroke-dashoffset: 0; stroke: #008000; stroke-opacity: 0.8; stroke-width: 3.5"/>
   </g>
   <g id="line2d_13">
    <path d="M 88.824119 46.386152 
L 93.232518 46.340973 
L 106.457714 46.46983 
L 112.335579 46.953241 
L 118.213443 47.683626 
L 124.091308 48.69265 
L 129.969173 49.966892 
L 135.847038 51.556106 
L 140.255436 52.961626 
L 144.663835 54.564771 
L 149.072234 56.399429 
L 153.480632 58.462038 
L 157.889031 60.77345 
L 162.29743 63.363481 
L 166.705828 66.213595 
L 171.114227 69.353482 
L 175.522625 72.720796 
L 185.808889 81.370142 
L 191.686754 86.705721 
L 200.503551 94.733686 
L 212.259281 104.695133 
L 216.667679 108.066302 
L 221.076078 111.174561 
L 225.484476 114.006391 
L 229.892875 116.553885 
L 234.301274 118.831695 
L 238.709672 120.84269 
L 243.118071 122.598812 
L 247.526469 124.119171 
L 251.934868 125.420785 
L 256.343267 126.521264 
L 260.751665 127.436802 
L 266.62953 128.39788 
L 272.507395 129.075878 
L 278.38526 129.470117 
L 281.324192 129.542894 
L 301.896719 129.419875 
L 307.774584 128.97847 
L 313.652449 128.32117 
L 318.060847 127.677715 
L 323.938712 126.599121 
L 329.816577 125.248871 
L 334.224976 124.051141 
L 338.633374 122.676932 
L 343.041773 121.113874 
L 347.450171 119.334369 
L 351.85857 117.319908 
L 356.266969 115.070116 
L 360.675367 112.557943 
L 365.083766 109.760308 
L 369.492164 106.694363 
L 373.900563 103.36237 
L 379.778428 98.567583 
L 382.71736 95.967431 
L 403.289887 76.862966 
L 413.576151 68.339133 
L 417.984549 65.064747 
L 422.392948 62.056281 
L 426.801346 59.325165 
L 431.209745 56.877444 
L 435.618144 54.694797 
L 440.026542 52.773063 
L 444.434941 51.08761 
L 448.84334 49.626987 
L 453.251738 48.370862 
L 457.660137 47.305951 
L 463.538002 46.142994 
L 469.415866 45.245235 
L 475.293731 44.609684 
L 481.171596 44.193434 
L 485.579995 44.055909 
L 509.091454 44.156219 
L 514.969319 44.516053 
L 522.31665 45.255286 
L 528.194515 46.0709 
L 534.072379 47.106877 
L 539.950244 48.370596 
L 544.358643 49.492077 
L 548.767042 50.768831 
L 553.17544 52.228684 
L 557.583839 53.88618 
L 561.992237 55.750842 
L 566.400636 57.855878 
L 570.809035 60.198997 
L 575.217433 62.811529 
L 579.625832 65.706615 
L 584.03423 68.864108 
L 588.442629 72.301712 
L 594.320494 77.287231 
L 600.198359 82.371605 
L 619.301419 99.829348 
L 628.118217 107.077085 
L 632.526615 110.36083 
L 636.935014 113.362851 
L 641.343412 116.080967 
L 645.751811 118.532458 
L 650.16021 120.716021 
L 654.568608 122.642677 
L 658.977007 124.341801 
L 663.385406 125.822735 
L 667.793804 127.114809 
L 673.671669 128.55804 
L 679.549534 129.730713 
L 685.427399 130.661212 
L 691.305263 131.394071 
L 698.652594 132.033719 
L 705.999925 132.371489 
L 738.328182 132.340263 
L 747.144979 131.917429 
L 753.022844 131.443762 
L 760.370175 130.641913 
L 766.24804 129.815496 
L 772.125905 128.808 
L 778.00377 127.601873 
L 783.881634 126.150872 
L 789.759499 124.442366 
L 794.167898 122.954407 
L 798.576296 121.283236 
L 802.984695 119.397443 
L 807.393094 117.284715 
L 811.801492 114.928864 
L 816.209891 112.302818 
L 820.618289 109.409181 
L 822.087756 108.387531 
L 822.087756 108.387531 
" clip-path="url(#pc105f995ff)" style="fill: none; stroke-dasharray: 12.95,5.6; stroke-dashoffset: 0; stroke: #ff0000; stroke-opacity: 0.8; stroke-width: 3.5"/>
   </g>
  </g>
  <g id="axes_2">
   <g id="patch_7">
    <path d="M 52.160938 248.24 
L 858.750937 248.24 
L 858.750937 151.09 
L 52.160938 151.09 
z
" style="fill: #ffffff"/>
   </g>
   <g id="line2d_14">
    <path d="M 88.824119 197.548054 
L 102.049315 201.748686 
L 113.805045 205.57045 
L 121.152376 208.183788 
L 127.030241 210.469426 
L 132.908105 212.975375 
L 138.78597 215.723539 
L 144.663835 218.712625 
L 150.5417 221.918598 
L 168.175294 231.836164 
L 172.583693 233.92498 
L 175.522625 235.130987 
L 178.461558 236.154323 
L 181.40049 236.96609 
L 184.339423 237.537175 
L 187.278355 237.838259 
L 190.217287 237.839808 
L 193.15622 237.512499 
L 196.095152 236.870154 
L 199.034085 235.946331 
L 201.973017 234.762132 
L 204.91195 233.341906 
L 207.850882 231.713246 
L 212.259281 228.947794 
L 216.667679 225.901301 
L 231.362341 215.214161 
L 240.179138 208.954581 
L 248.995936 202.978887 
L 259.282199 196.310348 
L 279.854726 183.354869 
L 287.202057 178.92437 
L 293.079922 175.629046 
L 297.48832 173.383797 
L 301.896719 171.416727 
L 304.835651 170.30964 
L 307.774584 169.394589 
L 310.713516 168.691208 
L 313.652449 168.214799 
L 316.591381 167.976325 
L 319.530314 167.982413 
L 322.469246 168.235354 
L 325.408178 168.733104 
L 328.347111 169.468467 
L 331.286043 170.422612 
L 334.224976 171.577367 
L 337.163908 172.914756 
L 341.572307 175.221086 
L 345.980705 177.825489 
L 351.85857 181.630527 
L 387.125759 205.296924 
L 395.942556 210.774577 
L 403.289887 215.06663 
L 407.698286 217.436496 
L 412.106684 219.592634 
L 416.515083 221.487792 
L 420.923482 223.076089 
L 423.862414 223.942437 
L 426.801346 224.639739 
L 429.740279 225.155414 
L 432.679211 225.477154 
L 435.618144 225.592917 
L 438.557076 225.496392 
L 441.496009 225.195114 
L 444.434941 224.693847 
L 447.373873 223.99974 
L 450.312806 223.122596 
L 453.251738 222.074873 
L 457.660137 220.217232 
L 462.068535 218.072609 
L 467.9464 214.898621 
L 475.293731 210.609047 
L 487.049461 203.393492 
L 498.805191 196.242152 
L 506.152522 191.979404 
L 512.030386 188.771451 
L 517.908251 185.820482 
L 522.31665 183.822857 
L 526.725048 182.049404 
L 531.133447 180.537882 
L 535.541846 179.328198 
L 538.480778 178.708821 
L 541.419711 178.247553 
L 544.358643 177.952326 
L 547.297575 177.828611 
L 550.236508 177.878944 
L 553.17544 178.102933 
L 556.114373 178.497247 
L 559.053305 179.055628 
L 563.461704 180.179908 
L 567.870102 181.609132 
L 572.278501 183.301787 
L 576.686899 185.215459 
L 582.564764 188.034974 
L 589.912095 191.849819 
L 616.362487 205.894157 
L 622.240352 208.687526 
L 628.118217 211.221561 
L 632.526615 212.910505 
L 636.935014 214.388195 
L 641.343412 215.620937 
L 645.751811 216.574683 
L 650.16021 217.224717 
L 654.568608 217.55566 
L 658.977007 217.561468 
L 663.385406 217.245432 
L 667.793804 216.620136 
L 672.202203 215.705493 
L 676.610601 214.52676 
L 681.019 213.113096 
L 685.427399 211.497073 
L 691.305263 209.090272 
L 698.652594 205.811699 
L 725.102986 193.721658 
L 730.980851 191.361219 
L 736.858716 189.250621 
L 741.267114 187.868802 
L 745.675513 186.691235 
L 750.083912 185.741475 
L 754.49231 185.037995 
L 758.900709 184.594183 
L 763.309107 184.418345 
L 767.717506 184.512502 
L 772.125905 184.871347 
L 776.534303 185.485755 
L 780.942702 186.340854 
L 785.351101 187.415945 
L 789.759499 188.684501 
L 795.637364 190.620098 
L 802.984695 193.311967 
L 813.270958 197.371116 
L 822.087756 200.88488 
L 822.087756 200.88488 
" clip-path="url(#p7e171219d5)" style="fill: none; stroke: #000000; stroke-opacity: 0.4; stroke-width: 6; stroke-linecap: square"/>
   </g>
   <g id="matplotlib.axis_3">
    <g id="xtick_7">
     <g id="line2d_15">
      <g>
       <use xlink:href="#m17c05eabc4" x="88.824119" y="248.24" style="stroke: #000000; stroke-width: 0.8"/>
      </g>
     </g>
     <g id="text_5">
      <!-- 0 -->
      <g transform="translate(85.642869 262.838437) scale(0.1 -0.1)">
       <use xlink:href="#DejaVuSans-30"/>
      </g>
     </g>
    </g>
    <g id="xtick_8">
     <g id="line2d_16">
      <g>
       <use xlink:href="#m17c05eabc4" x="235.476847" y="248.24" style="stroke: #000000; stroke-width: 0.8"/>
      </g>
     </g>
     <g id="text_6">
      <!-- 2 -->
      <g transform="translate(232.295597 262.838437) scale(0.1 -0.1)">
       <use xlink:href="#DejaVuSans-32"/>
      </g>
     </g>
    </g>
    <g id="xtick_9">
     <g id="line2d_17">
      <g>
       <use xlink:href="#m17c05eabc4" x="382.129574" y="248.24" style="stroke: #000000; stroke-width: 0.8"/>
      </g>
     </g>
     <g id="text_7">
      <!-- 4 -->
      <g transform="translate(378.948324 262.838437) scale(0.1 -0.1)">
       <defs>
        <path id="DejaVuSans-34" d="M 2419 4116 
L 825 1625 
L 2419 1625 
L 2419 4116 
z
M 2253 4666 
L 3047 4666 
L 3047 1625 
L 3713 1625 
L 3713 1100 
L 3047 1100 
L 3047 0 
L 2419 0 
L 2419 1100 
L 313 1100 
L 313 1709 
L 2253 4666 
z
" transform="scale(0.015625)"/>
       </defs>
       <use xlink:href="#DejaVuSans-34"/>
      </g>
     </g>
    </g>
    <g id="xtick_10">
     <g id="line2d_18">
      <g>
       <use xlink:href="#m17c05eabc4" x="528.782301" y="248.24" style="stroke: #000000; stroke-width: 0.8"/>
      </g>
     </g>
     <g id="text_8">
      <!-- 6 -->
      <g transform="translate(525.601051 262.838437) scale(0.1 -0.1)">
       <defs>
        <path id="DejaVuSans-36" d="M 2113 2584 
Q 1688 2584 1439 2293 
Q 1191 2003 1191 1497 
Q 1191 994 1439 701 
Q 1688 409 2113 409 
Q 2538 409 2786 701 
Q 3034 994 3034 1497 
Q 3034 2003 2786 2293 
Q 2538 2584 2113 2584 
z
M 3366 4563 
L 3366 3988 
Q 3128 4100 2886 4159 
Q 2644 4219 2406 4219 
Q 1781 4219 1451 3797 
Q 1122 3375 1075 2522 
Q 1259 2794 1537 2939 
Q 1816 3084 2150 3084 
Q 2853 3084 3261 2657 
Q 3669 2231 3669 1497 
Q 3669 778 3244 343 
Q 2819 -91 2113 -91 
Q 1303 -91 875 529 
Q 447 1150 447 2328 
Q 447 3434 972 4092 
Q 1497 4750 2381 4750 
Q 2619 4750 2861 4703 
Q 3103 4656 3366 4563 
z
" transform="scale(0.015625)"/>
       </defs>
       <use xlink:href="#DejaVuSans-36"/>
      </g>
     </g>
    </g>
    <g id="xtick_11">
     <g id="line2d_19">
      <g>
       <use xlink:href="#m17c05eabc4" x="675.435028" y="248.24" style="stroke: #000000; stroke-width: 0.8"/>
      </g>
     </g>
     <g id="text_9">
      <!-- 8 -->
      <g transform="translate(672.253778 262.838437) scale(0.1 -0.1)">
       <defs>
        <path id="DejaVuSans-38" d="M 2034 2216 
Q 1584 2216 1326 1975 
Q 1069 1734 1069 1313 
Q 1069 891 1326 650 
Q 1584 409 2034 409 
Q 2484 409 2743 651 
Q 3003 894 3003 1313 
Q 3003 1734 2745 1975 
Q 2488 2216 2034 2216 
z
M 1403 2484 
Q 997 2584 770 2862 
Q 544 3141 544 3541 
Q 544 4100 942 4425 
Q 1341 4750 2034 4750 
Q 2731 4750 3128 4425 
Q 3525 4100 3525 3541 
Q 3525 3141 3298 2862 
Q 3072 2584 2669 2484 
Q 3125 2378 3379 2068 
Q 3634 1759 3634 1313 
Q 3634 634 3220 271 
Q 2806 -91 2034 -91 
Q 1263 -91 848 271 
Q 434 634 434 1313 
Q 434 1759 690 2068 
Q 947 2378 1403 2484 
z
M 1172 3481 
Q 1172 3119 1398 2916 
Q 1625 2713 2034 2713 
Q 2441 2713 2670 2916 
Q 2900 3119 2900 3481 
Q 2900 3844 2670 4047 
Q 2441 4250 2034 4250 
Q 1625 4250 1398 4047 
Q 1172 3844 1172 3481 
z
" transform="scale(0.015625)"/>
       </defs>
       <use xlink:href="#DejaVuSans-38"/>
      </g>
     </g>
    </g>
    <g id="xtick_12">
     <g id="line2d_20">
      <g>
       <use xlink:href="#m17c05eabc4" x="822.087756" y="248.24" style="stroke: #000000; stroke-width: 0.8"/>
      </g>
     </g>
     <g id="text_10">
      <!-- 10 -->
      <g transform="translate(815.725256 262.838437) scale(0.1 -0.1)">
       <defs>
        <path id="DejaVuSans-31" d="M 794 531 
L 1825 531 
L 1825 4091 
L 703 3866 
L 703 4441 
L 1819 4666 
L 2450 4666 
L 2450 531 
L 3481 531 
L 3481 0 
L 794 0 
L 794 531 
z
" transform="scale(0.015625)"/>
       </defs>
       <use xlink:href="#DejaVuSans-31"/>
       <use xlink:href="#DejaVuSans-30" transform="translate(63.623047 0)"/>
      </g>
     </g>
    </g>
    <g id="text_11">
     <!-- Time -->
     <g transform="translate(443.222344 276.516562) scale(0.1 -0.1)">
      <defs>
       <path id="DejaVuSans-54" d="M -19 4666 
L 3928 4666 
L 3928 4134 
L 2272 4134 
L 2272 0 
L 1638 0 
L 1638 4134 
L -19 4134 
L -19 4666 
z
" transform="scale(0.015625)"/>
       <path id="DejaVuSans-69" d="M 603 3500 
L 1178 3500 
L 1178 0 
L 603 0 
L 603 3500 
z
M 603 4863 
L 1178 4863 
L 1178 4134 
L 603 4134 
L 603 4863 
z
" transform="scale(0.015625)"/>
       <path id="DejaVuSans-6d" d="M 3328 2828 
Q 3544 3216 3844 3400 
Q 4144 3584 4550 3584 
Q 5097 3584 5394 3201 
Q 5691 2819 5691 2113 
L 5691 0 
L 5113 0 
L 5113 2094 
Q 5113 2597 4934 2840 
Q 4756 3084 4391 3084 
Q 3944 3084 3684 2787 
Q 3425 2491 3425 1978 
L 3425 0 
L 2847 0 
L 2847 2094 
Q 2847 2600 2669 2842 
Q 2491 3084 2119 3084 
Q 1678 3084 1418 2786 
Q 1159 2488 1159 1978 
L 1159 0 
L 581 0 
L 581 3500 
L 1159 3500 
L 1159 2956 
Q 1356 3278 1631 3431 
Q 1906 3584 2284 3584 
Q 2666 3584 2933 3390 
Q 3200 3197 3328 2828 
z
" transform="scale(0.015625)"/>
       <path id="DejaVuSans-65" d="M 3597 1894 
L 3597 1613 
L 953 1613 
Q 991 1019 1311 708 
Q 1631 397 2203 397 
Q 2534 397 2845 478 
Q 3156 559 3463 722 
L 3463 178 
Q 3153 47 2828 -22 
Q 2503 -91 2169 -91 
Q 1331 -91 842 396 
Q 353 884 353 1716 
Q 353 2575 817 3079 
Q 1281 3584 2069 3584 
Q 2775 3584 3186 3129 
Q 3597 2675 3597 1894 
z
M 3022 2063 
Q 3016 2534 2758 2815 
Q 2500 3097 2075 3097 
Q 1594 3097 1305 2825 
Q 1016 2553 972 2059 
L 3022 2063 
z
" transform="scale(0.015625)"/>
      </defs>
      <use xlink:href="#DejaVuSans-54"/>
      <use xlink:href="#DejaVuSans-69" transform="translate(57.958984 0)"/>
      <use xlink:href="#DejaVuSans-6d" transform="translate(85.742188 0)"/>
      <use xlink:href="#DejaVuSans-65" transform="translate(183.154297 0)"/>
     </g>
    </g>
   </g>
   <g id="matplotlib.axis_4">
    <g id="ytick_4">
     <g id="line2d_21">
      <g>
       <use xlink:href="#mc4bd46ca52" x="52.160938" y="224.065122" style="stroke: #000000; stroke-width: 0.8"/>
      </g>
     </g>
     <g id="text_12">
      <!-- −2.5 -->
      <g transform="translate(20.878125 227.864341) scale(0.1 -0.1)">
       <defs>
        <path id="DejaVuSans-2e" d="M 684 794 
L 1344 794 
L 1344 0 
L 684 0 
L 684 794 
z
" transform="scale(0.015625)"/>
        <path id="DejaVuSans-35" d="M 691 4666 
L 3169 4666 
L 3169 4134 
L 1269 4134 
L 1269 2991 
Q 1406 3038 1543 3061 
Q 1681 3084 1819 3084 
Q 2600 3084 3056 2656 
Q 3513 2228 3513 1497 
Q 3513 744 3044 326 
Q 2575 -91 1722 -91 
Q 1428 -91 1123 -41 
Q 819 9 494 109 
L 494 744 
Q 775 591 1075 516 
Q 1375 441 1709 441 
Q 2250 441 2565 725 
Q 2881 1009 2881 1497 
Q 2881 1984 2565 2268 
Q 2250 2553 1709 2553 
Q 1456 2553 1204 2497 
Q 953 2441 691 2322 
L 691 4666 
z
" transform="scale(0.015625)"/>
       </defs>
       <use xlink:href="#DejaVuSans-2212"/>
       <use xlink:href="#DejaVuSans-32" transform="translate(83.789062 0)"/>
       <use xlink:href="#DejaVuSans-2e" transform="translate(147.412109 0)"/>
       <use xlink:href="#DejaVuSans-35" transform="translate(179.199219 0)"/>
      </g>
     </g>
    </g>
    <g id="ytick_5">
     <g id="line2d_22">
      <g>
       <use xlink:href="#mc4bd46ca52" x="52.160938" y="199.512282" style="stroke: #000000; stroke-width: 0.8"/>
      </g>
     </g>
     <g id="text_13">
      <!-- 0.0 -->
      <g transform="translate(29.257812 203.3115) scale(0.1 -0.1)">
       <use xlink:href="#DejaVuSans-30"/>
       <use xlink:href="#DejaVuSans-2e" transform="translate(63.623047 0)"/>
       <use xlink:href="#DejaVuSans-30" transform="translate(95.410156 0)"/>
      </g>
     </g>
    </g>
    <g id="ytick_6">
     <g id="line2d_23">
      <g>
       <use xlink:href="#mc4bd46ca52" x="52.160938" y="174.959441" style="stroke: #000000; stroke-width: 0.8"/>
      </g>
     </g>
     <g id="text_14">
      <!-- 2.5 -->
      <g transform="translate(29.257812 178.75866) scale(0.1 -0.1)">
       <use xlink:href="#DejaVuSans-32"/>
       <use xlink:href="#DejaVuSans-2e" transform="translate(63.623047 0)"/>
       <use xlink:href="#DejaVuSans-35" transform="translate(95.410156 0)"/>
      </g>
     </g>
    </g>
    <g id="text_15">
     <!-- $x1$ -->
     <g transform="translate(14.798438 205.815) rotate(-90) scale(0.1 -0.1)">
      <use xlink:href="#DejaVuSans-Oblique-78" transform="translate(0 0.09375)"/>
      <use xlink:href="#DejaVuSans-31" transform="translate(59.179688 0.09375)"/>
     </g>
    </g>
   </g>
   <g id="line2d_24">
    <path d="M 88.824119 197.548054 
L 102.049315 210.967114 
L 107.92718 216.679426 
L 113.805045 222.071874 
L 118.213443 225.846774 
L 122.621842 229.346704 
L 127.030241 232.535029 
L 131.438639 235.378536 
L 135.847038 237.847524 
L 138.78597 239.27254 
L 141.724903 240.51291 
L 144.663835 241.562916 
L 147.602768 242.417655 
L 150.5417 243.073177 
L 153.480632 243.52634 
L 156.419565 243.775487 
L 159.358497 243.816255 
L 162.29743 243.647189 
L 165.236362 243.272947 
L 168.175294 242.695475 
L 171.114227 241.917506 
L 174.053159 240.942652 
L 176.992092 239.775417 
L 179.931024 238.421198 
L 182.869956 236.886306 
L 187.278355 234.261038 
L 191.686754 231.272865 
L 196.095152 227.953011 
L 200.503551 224.336178 
L 204.91195 220.460034 
L 210.789814 214.959411 
L 218.137145 207.696228 
L 241.648605 184.026818 
L 247.526469 178.572466 
L 251.934868 174.731581 
L 256.343267 171.149397 
L 260.751665 167.863433 
L 265.160064 164.908006 
L 269.568463 162.313918 
L 272.507395 160.798811 
L 275.446327 159.463464 
L 278.38526 158.314075 
L 281.324192 157.355996 
L 284.263125 156.593659 
L 287.202057 156.030594 
L 290.140989 155.669389 
L 293.079922 155.511312 
L 296.018854 155.560392 
L 298.957787 155.813232 
L 301.896719 156.269197 
L 304.835651 156.92587 
L 307.774584 157.780353 
L 310.713516 158.828594 
L 313.652449 160.065729 
L 316.591381 161.486056 
L 319.530314 163.082926 
L 323.938712 165.792915 
L 328.347111 168.855017 
L 332.755509 172.237264 
L 337.163908 175.904303 
L 341.572307 179.817983 
L 347.450171 185.349088 
L 354.797502 192.626539 
L 376.839496 214.870011 
L 382.71736 220.375749 
L 387.125759 224.256718 
L 391.534158 227.879151 
L 395.942556 231.205369 
L 400.350955 234.200633 
L 404.759353 236.83359 
L 407.698286 238.37392 
L 410.637218 239.7338 
L 413.576151 240.906888 
L 416.515083 241.887778 
L 419.454015 242.671925 
L 422.392948 243.255708 
L 425.33188 243.636369 
L 428.270813 243.811963 
L 431.209745 243.777531 
L 434.148678 243.534474 
L 437.08761 243.087388 
L 440.026542 242.437866 
L 442.965475 241.589059 
L 445.904407 240.54485 
L 448.84334 239.310114 
L 451.782272 237.890556 
L 454.721204 236.292766 
L 459.129603 233.578378 
L 463.538002 230.508237 
L 467.9464 227.114404 
L 472.354799 223.432339 
L 476.763197 219.500566 
L 482.641062 213.941262 
L 489.988393 206.633976 
L 512.030386 184.426451 
L 517.908251 178.948264 
L 522.31665 175.08501 
L 526.725048 171.476823 
L 531.133447 168.161357 
L 535.541846 165.173289 
L 539.950244 162.543839 
L 542.889177 161.003845 
L 545.828109 159.642649 
L 548.767042 158.46661 
L 551.705974 157.481145 
L 554.644906 156.690872 
L 557.583839 156.099455 
L 560.522771 155.709564 
L 563.461704 155.522682 
L 566.400636 155.541884 
L 569.339568 155.765782 
L 572.278501 156.192591 
L 575.217433 156.82068 
L 578.156366 157.646956 
L 581.095298 158.667644 
L 584.03423 159.877976 
L 586.973163 161.27237 
L 589.912095 162.84432 
L 594.320494 165.518717 
L 598.728893 168.548045 
L 603.137291 171.900753 
L 607.54569 175.541826 
L 611.954088 179.433284 
L 617.831953 184.941024 
L 625.179284 192.1985 
L 648.690743 215.871591 
L 654.568608 221.316396 
L 658.977007 225.139503 
L 663.385406 228.695141 
L 667.793804 231.946025 
L 672.202203 234.858229 
L 676.610601 237.401274 
L 679.549534 238.878308 
L 682.488466 240.172556 
L 685.427399 241.277976 
L 688.366331 242.189485 
L 691.305263 242.902811 
L 694.244196 243.414642 
L 697.183128 243.722516 
L 700.122061 243.824091 
L 703.060993 243.714766 
L 705.999925 243.399338 
L 708.938858 242.88003 
L 711.87779 242.159343 
L 714.816723 241.240616 
L 717.755655 240.128121 
L 720.694588 238.827048 
L 723.63352 237.3434 
L 726.572452 235.684053 
L 730.980851 232.882721 
L 735.38925 229.732873 
L 739.797648 226.267431 
L 744.206047 222.522573 
L 750.083912 217.162808 
L 755.961776 211.473925 
L 764.778574 202.583123 
L 779.473236 187.692071 
L 785.351101 182.04277 
L 791.228965 176.716215 
L 795.637364 172.993703 
L 800.045763 169.548221 
L 804.454161 166.415598 
L 808.86256 163.628584 
L 811.801492 161.977147 
L 814.740425 160.500003 
L 817.679357 159.203995 
L 820.618289 158.09517 
L 822.087756 157.612607 
L 822.087756 157.612607 
" clip-path="url(#p7e171219d5)" style="fill: none; stroke-dasharray: 22.4,5.6,3.5,5.6; stroke-dashoffset: 0; stroke: #0000ff; stroke-opacity: 0.8; stroke-width: 3.5"/>
   </g>
   <g id="patch_8">
    <path d="M 52.160938 248.24 
L 52.160938 151.09 
" style="fill: none; stroke: #000000; stroke-width: 0.8; stroke-linejoin: miter; stroke-linecap: square"/>
   </g>
   <g id="patch_9">
    <path d="M 858.750937 248.24 
L 858.750937 151.09 
" style="fill: none; stroke: #000000; stroke-width: 0.8; stroke-linejoin: miter; stroke-linecap: square"/>
   </g>
   <g id="patch_10">
    <path d="M 52.160938 248.24 
L 858.750938 248.24 
" style="fill: none; stroke: #000000; stroke-width: 0.8; stroke-linejoin: miter; stroke-linecap: square"/>
   </g>
   <g id="patch_11">
    <path d="M 52.160938 151.09 
L 858.750938 151.09 
" style="fill: none; stroke: #000000; stroke-width: 0.8; stroke-linejoin: miter; stroke-linecap: square"/>
   </g>
   <g id="line2d_25">
    <path d="M 88.824119 197.548054 
L 90.293586 198.923464 
L 93.232518 201.178716 
L 96.17145 203.042739 
L 100.579849 205.488268 
L 116.743977 214.104502 
L 141.724903 228.093816 
L 149.072234 231.768595 
L 153.480632 233.799069 
L 157.889031 235.558793 
L 160.827963 236.482869 
L 163.766896 237.144632 
L 166.705828 237.504273 
L 169.644761 237.548223 
L 172.583693 237.278832 
L 175.522625 236.706602 
L 178.461558 235.843562 
L 181.40049 234.704135 
L 184.339423 233.305692 
L 187.278355 231.68192 
L 191.686754 228.923997 
L 199.034085 223.900573 
L 215.198213 212.75262 
L 229.892875 202.969182 
L 240.179138 195.990813 
L 250.465402 188.674956 
L 259.282199 182.448206 
L 265.160064 178.599099 
L 269.568463 175.963582 
L 273.976861 173.586275 
L 278.38526 171.512154 
L 281.324192 170.327904 
L 284.263125 169.329888 
L 287.202057 168.543513 
L 290.140989 167.993529 
L 293.079922 167.695715 
L 296.018854 167.660148 
L 298.957787 167.882345 
L 301.896719 168.351558 
L 304.835651 169.051886 
L 307.774584 169.966885 
L 310.713516 171.081316 
L 313.652449 172.381833 
L 318.060847 174.651787 
L 322.469246 177.251341 
L 328.347111 181.082989 
L 357.736435 201.165125 
L 369.492164 209.21021 
L 375.370029 212.924712 
L 379.778428 215.460995 
L 384.186827 217.766197 
L 388.595225 219.847949 
L 393.003624 221.715582 
L 397.412022 223.357535 
L 401.820421 224.731711 
L 404.759353 225.462864 
L 407.698286 226.01551 
L 410.637218 226.365503 
L 413.576151 226.492336 
L 416.515083 226.38348 
L 419.454015 226.038883 
L 422.392948 225.465025 
L 425.33188 224.680923 
L 428.270813 223.709711 
L 432.679211 221.960889 
L 437.08761 219.938469 
L 442.965475 216.931334 
L 448.84334 213.657748 
L 456.190671 209.267763 
L 465.007468 203.687156 
L 482.641062 192.40251 
L 489.988393 187.971951 
L 495.866258 184.691006 
L 500.274657 182.461595 
L 504.683055 180.491606 
L 509.091454 178.829028 
L 512.030386 177.91021 
L 514.969319 177.152087 
L 517.908251 176.560356 
L 520.847184 176.137922 
L 523.786116 175.886681 
L 526.725048 175.806892 
L 529.663981 175.897648 
L 532.602913 176.157361 
L 535.541846 176.583107 
L 538.480778 177.171394 
L 541.419711 177.917358 
L 545.828109 179.317377 
L 550.236508 181.027037 
L 554.644906 183.003766 
L 560.522771 185.96128 
L 567.870102 189.98727 
L 579.625832 196.747281 
L 595.78996 206.029048 
L 601.667825 209.180717 
L 607.54569 212.089919 
L 613.423555 214.700155 
L 617.831953 216.435351 
L 622.240352 217.95643 
L 626.64875 219.231545 
L 631.057149 220.218864 
L 633.996081 220.693499 
L 636.935014 221.005692 
L 639.873946 221.144766 
L 642.812879 221.102911 
L 645.751811 220.878954 
L 648.690743 220.474572 
L 651.629676 219.897162 
L 654.568608 219.157212 
L 658.977007 217.770549 
L 663.385406 216.094225 
L 667.793804 214.176126 
L 673.671669 211.325176 
L 681.019 207.461754 
L 694.244196 200.44282 
L 700.122061 197.555663 
L 705.999925 194.898278 
L 711.87779 192.507166 
L 716.286189 190.911111 
L 720.694588 189.504824 
L 725.102986 188.308916 
L 729.511385 187.344309 
L 733.919783 186.630164 
L 738.328182 186.182347 
L 742.736581 186.011389 
L 747.144979 186.122405 
L 751.553378 186.513057 
L 755.961776 187.172903 
L 760.370175 188.082171 
L 764.778574 189.209215 
L 770.656439 190.976542 
L 779.473236 193.93945 
L 789.759499 197.378736 
L 797.10683 199.581921 
L 802.984695 201.126313 
L 808.86256 202.456802 
L 814.740425 203.565757 
L 820.618289 204.450311 
L 822.087756 204.636339 
L 822.087756 204.636339 
" clip-path="url(#p7e171219d5)" style="fill: none; stroke-dasharray: 3.5,5.775; stroke-dashoffset: 0; stroke: #008000; stroke-opacity: 0.8; stroke-width: 3.5"/>
   </g>
   <g id="line2d_26">
    <path d="M 88.824119 197.548054 
L 100.579849 201.267179 
L 118.213443 206.750148 
L 125.560774 209.312551 
L 131.438639 211.585977 
L 137.316504 214.109778 
L 143.194369 216.924272 
L 149.072234 220.05512 
L 154.950099 223.499049 
L 160.827963 227.202488 
L 172.583693 234.7673 
L 176.992092 237.307703 
L 179.931024 238.79171 
L 182.869956 240.050072 
L 185.808889 241.055792 
L 188.747821 241.769044 
L 191.686754 242.159294 
L 194.625686 242.21271 
L 197.564618 241.929808 
L 200.503551 241.326084 
L 203.442483 240.43313 
L 206.381416 239.275406 
L 209.320348 237.884609 
L 213.728747 235.45381 
L 218.137145 232.731538 
L 226.953943 226.904707 
L 234.301274 222.112132 
L 240.179138 218.531068 
L 246.057003 215.259935 
L 250.465402 213.027555 
L 256.343267 210.34134 
L 262.221132 207.961047 
L 268.098996 205.844075 
L 275.446327 203.489094 
L 284.263125 200.932491 
L 297.48832 197.320686 
L 313.652449 192.946318 
L 320.99978 190.697507 
L 326.877645 188.688186 
L 332.755509 186.441154 
L 338.633374 183.912845 
L 343.041773 181.81009 
L 347.450171 179.519332 
L 353.328036 176.173214 
L 359.205901 172.532551 
L 375.370029 162.247056 
L 378.308962 160.655809 
L 381.247894 159.263046 
L 384.186827 158.120586 
L 387.125759 157.275816 
L 390.064691 156.750924 
L 393.003624 156.561449 
L 395.942556 156.712134 
L 398.881489 157.196102 
L 401.820421 157.999819 
L 404.759353 159.093078 
L 407.698286 160.426264 
L 410.637218 161.961675 
L 415.045617 164.552057 
L 420.923482 168.332599 
L 434.148678 176.967839 
L 440.026542 180.472789 
L 444.434941 182.887454 
L 448.84334 185.104588 
L 453.251738 187.124077 
L 457.660137 188.954834 
L 463.538002 191.127344 
L 469.415866 193.033544 
L 475.293731 194.723388 
L 482.641062 196.611715 
L 494.396792 199.375656 
L 509.091454 202.615367 
L 520.847184 205.263891 
L 528.194515 207.135032 
L 534.072379 208.820279 
L 539.950244 210.719591 
L 545.828109 212.876165 
L 551.705974 215.33124 
L 556.114373 217.389652 
L 560.522771 219.644877 
L 564.93117 222.097696 
L 570.809035 225.650977 
L 578.156366 230.40954 
L 585.503697 235.157914 
L 589.912095 237.751686 
L 592.851028 239.276134 
L 595.78996 240.576496 
L 598.728893 241.622878 
L 601.667825 242.376034 
L 604.606757 242.802996 
L 607.54569 242.888313 
L 610.484622 242.63157 
L 613.423555 242.048039 
L 616.362487 241.16948 
L 619.301419 240.022176 
L 622.240352 238.638478 
L 626.64875 236.215545 
L 631.057149 233.502304 
L 639.873946 227.71431 
L 647.221277 222.989472 
L 653.099142 219.491792 
L 657.507541 217.088592 
L 661.915939 214.891371 
L 666.324338 212.902298 
L 670.732737 211.114873 
L 675.141135 209.516627 
L 681.019 207.651335 
L 686.896865 206.04928 
L 692.77473 204.664478 
L 700.122061 203.170531 
L 710.408324 201.351678 
L 726.572452 198.705496 
L 757.431243 193.775288 
L 764.778574 192.269962 
L 770.656439 190.875082 
L 776.534303 189.270816 
L 782.412168 187.418623 
L 788.290033 185.278883 
L 792.698432 183.462468 
L 797.10683 181.449369 
L 801.515229 179.230567 
L 805.923627 176.805214 
L 811.801492 173.27392 
L 819.148823 168.517112 
L 822.087756 166.578913 
L 822.087756 166.578913 
" clip-path="url(#p7e171219d5)" style="fill: none; stroke-dasharray: 12.95,5.6; stroke-dashoffset: 0; stroke: #ff0000; stroke-opacity: 0.8; stroke-width: 3.5"/>
   </g>
  </g>
  <g id="text_16">
   <!-- State Variable Simulation Comparison -->
   <g transform="translate(285.843437 20.1175) scale(0.16 -0.16)">
    <defs>
     <path id="DejaVuSans-53" d="M 3425 4513 
L 3425 3897 
Q 3066 4069 2747 4153 
Q 2428 4238 2131 4238 
Q 1616 4238 1336 4038 
Q 1056 3838 1056 3469 
Q 1056 3159 1242 3001 
Q 1428 2844 1947 2747 
L 2328 2669 
Q 3034 2534 3370 2195 
Q 3706 1856 3706 1288 
Q 3706 609 3251 259 
Q 2797 -91 1919 -91 
Q 1588 -91 1214 -16 
Q 841 59 441 206 
L 441 856 
Q 825 641 1194 531 
Q 1563 422 1919 422 
Q 2459 422 2753 634 
Q 3047 847 3047 1241 
Q 3047 1584 2836 1778 
Q 2625 1972 2144 2069 
L 1759 2144 
Q 1053 2284 737 2584 
Q 422 2884 422 3419 
Q 422 4038 858 4394 
Q 1294 4750 2059 4750 
Q 2388 4750 2728 4690 
Q 3069 4631 3425 4513 
z
" transform="scale(0.015625)"/>
     <path id="DejaVuSans-74" d="M 1172 4494 
L 1172 3500 
L 2356 3500 
L 2356 3053 
L 1172 3053 
L 1172 1153 
Q 1172 725 1289 603 
Q 1406 481 1766 481 
L 2356 481 
L 2356 0 
L 1766 0 
Q 1100 0 847 248 
Q 594 497 594 1153 
L 594 3053 
L 172 3053 
L 172 3500 
L 594 3500 
L 594 4494 
L 1172 4494 
z
" transform="scale(0.015625)"/>
     <path id="DejaVuSans-61" d="M 2194 1759 
Q 1497 1759 1228 1600 
Q 959 1441 959 1056 
Q 959 750 1161 570 
Q 1363 391 1709 391 
Q 2188 391 2477 730 
Q 2766 1069 2766 1631 
L 2766 1759 
L 2194 1759 
z
M 3341 1997 
L 3341 0 
L 2766 0 
L 2766 531 
Q 2569 213 2275 61 
Q 1981 -91 1556 -91 
Q 1019 -91 701 211 
Q 384 513 384 1019 
Q 384 1609 779 1909 
Q 1175 2209 1959 2209 
L 2766 2209 
L 2766 2266 
Q 2766 2663 2505 2880 
Q 2244 3097 1772 3097 
Q 1472 3097 1187 3025 
Q 903 2953 641 2809 
L 641 3341 
Q 956 3463 1253 3523 
Q 1550 3584 1831 3584 
Q 2591 3584 2966 3190 
Q 3341 2797 3341 1997 
z
" transform="scale(0.015625)"/>
     <path id="DejaVuSans-20" transform="scale(0.015625)"/>
     <path id="DejaVuSans-56" d="M 1831 0 
L 50 4666 
L 709 4666 
L 2188 738 
L 3669 4666 
L 4325 4666 
L 2547 0 
L 1831 0 
z
" transform="scale(0.015625)"/>
     <path id="DejaVuSans-72" d="M 2631 2963 
Q 2534 3019 2420 3045 
Q 2306 3072 2169 3072 
Q 1681 3072 1420 2755 
Q 1159 2438 1159 1844 
L 1159 0 
L 581 0 
L 581 3500 
L 1159 3500 
L 1159 2956 
Q 1341 3275 1631 3429 
Q 1922 3584 2338 3584 
Q 2397 3584 2469 3576 
Q 2541 3569 2628 3553 
L 2631 2963 
z
" transform="scale(0.015625)"/>
     <path id="DejaVuSans-62" d="M 3116 1747 
Q 3116 2381 2855 2742 
Q 2594 3103 2138 3103 
Q 1681 3103 1420 2742 
Q 1159 2381 1159 1747 
Q 1159 1113 1420 752 
Q 1681 391 2138 391 
Q 2594 391 2855 752 
Q 3116 1113 3116 1747 
z
M 1159 2969 
Q 1341 3281 1617 3432 
Q 1894 3584 2278 3584 
Q 2916 3584 3314 3078 
Q 3713 2572 3713 1747 
Q 3713 922 3314 415 
Q 2916 -91 2278 -91 
Q 1894 -91 1617 61 
Q 1341 213 1159 525 
L 1159 0 
L 581 0 
L 581 4863 
L 1159 4863 
L 1159 2969 
z
" transform="scale(0.015625)"/>
     <path id="DejaVuSans-6c" d="M 603 4863 
L 1178 4863 
L 1178 0 
L 603 0 
L 603 4863 
z
" transform="scale(0.015625)"/>
     <path id="DejaVuSans-75" d="M 544 1381 
L 544 3500 
L 1119 3500 
L 1119 1403 
Q 1119 906 1312 657 
Q 1506 409 1894 409 
Q 2359 409 2629 706 
Q 2900 1003 2900 1516 
L 2900 3500 
L 3475 3500 
L 3475 0 
L 2900 0 
L 2900 538 
Q 2691 219 2414 64 
Q 2138 -91 1772 -91 
Q 1169 -91 856 284 
Q 544 659 544 1381 
z
M 1991 3584 
L 1991 3584 
z
" transform="scale(0.015625)"/>
     <path id="DejaVuSans-6f" d="M 1959 3097 
Q 1497 3097 1228 2736 
Q 959 2375 959 1747 
Q 959 1119 1226 758 
Q 1494 397 1959 397 
Q 2419 397 2687 759 
Q 2956 1122 2956 1747 
Q 2956 2369 2687 2733 
Q 2419 3097 1959 3097 
z
M 1959 3584 
Q 2709 3584 3137 3096 
Q 3566 2609 3566 1747 
Q 3566 888 3137 398 
Q 2709 -91 1959 -91 
Q 1206 -91 779 398 
Q 353 888 353 1747 
Q 353 2609 779 3096 
Q 1206 3584 1959 3584 
z
" transform="scale(0.015625)"/>
     <path id="DejaVuSans-6e" d="M 3513 2113 
L 3513 0 
L 2938 0 
L 2938 2094 
Q 2938 2591 2744 2837 
Q 2550 3084 2163 3084 
Q 1697 3084 1428 2787 
Q 1159 2491 1159 1978 
L 1159 0 
L 581 0 
L 581 3500 
L 1159 3500 
L 1159 2956 
Q 1366 3272 1645 3428 
Q 1925 3584 2291 3584 
Q 2894 3584 3203 3211 
Q 3513 2838 3513 2113 
z
" transform="scale(0.015625)"/>
     <path id="DejaVuSans-43" d="M 4122 4306 
L 4122 3641 
Q 3803 3938 3442 4084 
Q 3081 4231 2675 4231 
Q 1875 4231 1450 3742 
Q 1025 3253 1025 2328 
Q 1025 1406 1450 917 
Q 1875 428 2675 428 
Q 3081 428 3442 575 
Q 3803 722 4122 1019 
L 4122 359 
Q 3791 134 3420 21 
Q 3050 -91 2638 -91 
Q 1578 -91 968 557 
Q 359 1206 359 2328 
Q 359 3453 968 4101 
Q 1578 4750 2638 4750 
Q 3056 4750 3426 4639 
Q 3797 4528 4122 4306 
z
" transform="scale(0.015625)"/>
     <path id="DejaVuSans-70" d="M 1159 525 
L 1159 -1331 
L 581 -1331 
L 581 3500 
L 1159 3500 
L 1159 2969 
Q 1341 3281 1617 3432 
Q 1894 3584 2278 3584 
Q 2916 3584 3314 3078 
Q 3713 2572 3713 1747 
Q 3713 922 3314 415 
Q 2916 -91 2278 -91 
Q 1894 -91 1617 61 
Q 1341 213 1159 525 
z
M 3116 1747 
Q 3116 2381 2855 2742 
Q 2594 3103 2138 3103 
Q 1681 3103 1420 2742 
Q 1159 2381 1159 1747 
Q 1159 1113 1420 752 
Q 1681 391 2138 391 
Q 2594 391 2855 752 
Q 3116 1113 3116 1747 
z
" transform="scale(0.015625)"/>
     <path id="DejaVuSans-73" d="M 2834 3397 
L 2834 2853 
Q 2591 2978 2328 3040 
Q 2066 3103 1784 3103 
Q 1356 3103 1142 2972 
Q 928 2841 928 2578 
Q 928 2378 1081 2264 
Q 1234 2150 1697 2047 
L 1894 2003 
Q 2506 1872 2764 1633 
Q 3022 1394 3022 966 
Q 3022 478 2636 193 
Q 2250 -91 1575 -91 
Q 1294 -91 989 -36 
Q 684 19 347 128 
L 347 722 
Q 666 556 975 473 
Q 1284 391 1588 391 
Q 1994 391 2212 530 
Q 2431 669 2431 922 
Q 2431 1156 2273 1281 
Q 2116 1406 1581 1522 
L 1381 1569 
Q 847 1681 609 1914 
Q 372 2147 372 2553 
Q 372 3047 722 3315 
Q 1072 3584 1716 3584 
Q 2034 3584 2315 3537 
Q 2597 3491 2834 3397 
z
" transform="scale(0.015625)"/>
    </defs>
    <use xlink:href="#DejaVuSans-53"/>
    <use xlink:href="#DejaVuSans-74" transform="translate(63.476562 0)"/>
    <use xlink:href="#DejaVuSans-61" transform="translate(102.685547 0)"/>
    <use xlink:href="#DejaVuSans-74" transform="translate(163.964844 0)"/>
    <use xlink:href="#DejaVuSans-65" transform="translate(203.173828 0)"/>
    <use xlink:href="#DejaVuSans-20" transform="translate(264.697266 0)"/>
    <use xlink:href="#DejaVuSans-56" transform="translate(296.484375 0)"/>
    <use xlink:href="#DejaVuSans-61" transform="translate(357.142578 0)"/>
    <use xlink:href="#DejaVuSans-72" transform="translate(418.421875 0)"/>
    <use xlink:href="#DejaVuSans-69" transform="translate(459.535156 0)"/>
    <use xlink:href="#DejaVuSans-61" transform="translate(487.318359 0)"/>
    <use xlink:href="#DejaVuSans-62" transform="translate(548.597656 0)"/>
    <use xlink:href="#DejaVuSans-6c" transform="translate(612.074219 0)"/>
    <use xlink:href="#DejaVuSans-65" transform="translate(639.857422 0)"/>
    <use xlink:href="#DejaVuSans-20" transform="translate(701.380859 0)"/>
    <use xlink:href="#DejaVuSans-53" transform="translate(733.167969 0)"/>
    <use xlink:href="#DejaVuSans-69" transform="translate(796.644531 0)"/>
    <use xlink:href="#DejaVuSans-6d" transform="translate(824.427734 0)"/>
    <use xlink:href="#DejaVuSans-75" transform="translate(921.839844 0)"/>
    <use xlink:href="#DejaVuSans-6c" transform="translate(985.21875 0)"/>
    <use xlink:href="#DejaVuSans-61" transform="translate(1013.001953 0)"/>
    <use xlink:href="#DejaVuSans-74" transform="translate(1074.28125 0)"/>
    <use xlink:href="#DejaVuSans-69" transform="translate(1113.490234 0)"/>
    <use xlink:href="#DejaVuSans-6f" transform="translate(1141.273438 0)"/>
    <use xlink:href="#DejaVuSans-6e" transform="translate(1202.455078 0)"/>
    <use xlink:href="#DejaVuSans-20" transform="translate(1265.833984 0)"/>
    <use xlink:href="#DejaVuSans-43" transform="translate(1297.621094 0)"/>
    <use xlink:href="#DejaVuSans-6f" transform="translate(1367.445312 0)"/>
    <use xlink:href="#DejaVuSans-6d" transform="translate(1428.626953 0)"/>
    <use xlink:href="#DejaVuSans-70" transform="translate(1526.039062 0)"/>
    <use xlink:href="#DejaVuSans-61" transform="translate(1589.515625 0)"/>
    <use xlink:href="#DejaVuSans-72" transform="translate(1650.794922 0)"/>
    <use xlink:href="#DejaVuSans-69" transform="translate(1691.908203 0)"/>
    <use xlink:href="#DejaVuSans-73" transform="translate(1719.691406 0)"/>
    <use xlink:href="#DejaVuSans-6f" transform="translate(1771.791016 0)"/>
    <use xlink:href="#DejaVuSans-6e" transform="translate(1832.972656 0)"/>
   </g>
  </g>
  <g id="legend_1">
   <g id="patch_12">
    <path d="M 753.679062 66.7125 
L 864.750937 66.7125 
Q 866.750937 66.7125 866.750937 64.7125 
L 866.750937 7 
Q 866.750937 5 864.750937 5 
L 753.679062 5 
Q 751.679062 5 751.679062 7 
L 751.679062 64.7125 
Q 751.679062 66.7125 753.679062 66.7125 
z
" style="fill: #ffffff; opacity: 0.5; stroke: #cccccc; stroke-linejoin: miter"/>
   </g>
   <g id="line2d_27">
    <path d="M 755.679062 13.098437 
L 765.679062 13.098437 
L 775.679062 13.098437 
" style="fill: none; stroke: #000000; stroke-opacity: 0.4; stroke-width: 6; stroke-linecap: square"/>
   </g>
   <g id="text_17">
    <!-- True Trajectory -->
    <g transform="translate(783.679062 16.598437) scale(0.1 -0.1)">
     <defs>
      <path id="DejaVuSans-6a" d="M 603 3500 
L 1178 3500 
L 1178 -63 
Q 1178 -731 923 -1031 
Q 669 -1331 103 -1331 
L -116 -1331 
L -116 -844 
L 38 -844 
Q 366 -844 484 -692 
Q 603 -541 603 -63 
L 603 3500 
z
M 603 4863 
L 1178 4863 
L 1178 4134 
L 603 4134 
L 603 4863 
z
" transform="scale(0.015625)"/>
      <path id="DejaVuSans-63" d="M 3122 3366 
L 3122 2828 
Q 2878 2963 2633 3030 
Q 2388 3097 2138 3097 
Q 1578 3097 1268 2742 
Q 959 2388 959 1747 
Q 959 1106 1268 751 
Q 1578 397 2138 397 
Q 2388 397 2633 464 
Q 2878 531 3122 666 
L 3122 134 
Q 2881 22 2623 -34 
Q 2366 -91 2075 -91 
Q 1284 -91 818 406 
Q 353 903 353 1747 
Q 353 2603 823 3093 
Q 1294 3584 2113 3584 
Q 2378 3584 2631 3529 
Q 2884 3475 3122 3366 
z
" transform="scale(0.015625)"/>
      <path id="DejaVuSans-79" d="M 2059 -325 
Q 1816 -950 1584 -1140 
Q 1353 -1331 966 -1331 
L 506 -1331 
L 506 -850 
L 844 -850 
Q 1081 -850 1212 -737 
Q 1344 -625 1503 -206 
L 1606 56 
L 191 3500 
L 800 3500 
L 1894 763 
L 2988 3500 
L 3597 3500 
L 2059 -325 
z
" transform="scale(0.015625)"/>
     </defs>
     <use xlink:href="#DejaVuSans-54"/>
     <use xlink:href="#DejaVuSans-72" transform="translate(46.333984 0)"/>
     <use xlink:href="#DejaVuSans-75" transform="translate(87.447266 0)"/>
     <use xlink:href="#DejaVuSans-65" transform="translate(150.826172 0)"/>
     <use xlink:href="#DejaVuSans-20" transform="translate(212.349609 0)"/>
     <use xlink:href="#DejaVuSans-54" transform="translate(244.136719 0)"/>
     <use xlink:href="#DejaVuSans-72" transform="translate(290.470703 0)"/>
     <use xlink:href="#DejaVuSans-61" transform="translate(331.583984 0)"/>
     <use xlink:href="#DejaVuSans-6a" transform="translate(392.863281 0)"/>
     <use xlink:href="#DejaVuSans-65" transform="translate(420.646484 0)"/>
     <use xlink:href="#DejaVuSans-63" transform="translate(482.169922 0)"/>
     <use xlink:href="#DejaVuSans-74" transform="translate(537.150391 0)"/>
     <use xlink:href="#DejaVuSans-6f" transform="translate(576.359375 0)"/>
     <use xlink:href="#DejaVuSans-72" transform="translate(637.541016 0)"/>
     <use xlink:href="#DejaVuSans-79" transform="translate(678.654297 0)"/>
    </g>
   </g>
   <g id="line2d_28">
    <path d="M 755.679062 27.776562 
L 765.679062 27.776562 
L 775.679062 27.776562 
" style="fill: none; stroke-dasharray: 12.95,5.6; stroke-dashoffset: 0; stroke: #ff0000; stroke-opacity: 0.8; stroke-width: 3.5"/>
   </g>
   <g id="text_18">
    <!-- AutoSINDy -->
    <g transform="translate(783.679062 31.276562) scale(0.1 -0.1)">
     <defs>
      <path id="DejaVuSans-41" d="M 2188 4044 
L 1331 1722 
L 3047 1722 
L 2188 4044 
z
M 1831 4666 
L 2547 4666 
L 4325 0 
L 3669 0 
L 3244 1197 
L 1141 1197 
L 716 0 
L 50 0 
L 1831 4666 
z
" transform="scale(0.015625)"/>
      <path id="DejaVuSans-49" d="M 628 4666 
L 1259 4666 
L 1259 0 
L 628 0 
L 628 4666 
z
" transform="scale(0.015625)"/>
      <path id="DejaVuSans-4e" d="M 628 4666 
L 1478 4666 
L 3547 763 
L 3547 4666 
L 4159 4666 
L 4159 0 
L 3309 0 
L 1241 3903 
L 1241 0 
L 628 0 
L 628 4666 
z
" transform="scale(0.015625)"/>
      <path id="DejaVuSans-44" d="M 1259 4147 
L 1259 519 
L 2022 519 
Q 2988 519 3436 956 
Q 3884 1394 3884 2338 
Q 3884 3275 3436 3711 
Q 2988 4147 2022 4147 
L 1259 4147 
z
M 628 4666 
L 1925 4666 
Q 3281 4666 3915 4102 
Q 4550 3538 4550 2338 
Q 4550 1131 3912 565 
Q 3275 0 1925 0 
L 628 0 
L 628 4666 
z
" transform="scale(0.015625)"/>
     </defs>
     <use xlink:href="#DejaVuSans-41"/>
     <use xlink:href="#DejaVuSans-75" transform="translate(68.408203 0)"/>
     <use xlink:href="#DejaVuSans-74" transform="translate(131.787109 0)"/>
     <use xlink:href="#DejaVuSans-6f" transform="translate(170.996094 0)"/>
     <use xlink:href="#DejaVuSans-53" transform="translate(232.177734 0)"/>
     <use xlink:href="#DejaVuSans-49" transform="translate(295.654297 0)"/>
     <use xlink:href="#DejaVuSans-4e" transform="translate(325.146484 0)"/>
     <use xlink:href="#DejaVuSans-44" transform="translate(399.951172 0)"/>
     <use xlink:href="#DejaVuSans-79" transform="translate(476.953125 0)"/>
    </g>
   </g>
   <g id="line2d_29">
    <path d="M 755.679062 42.454687 
L 765.679062 42.454687 
L 775.679062 42.454687 
" style="fill: none; stroke-dasharray: 3.5,5.775; stroke-dashoffset: 0; stroke: #008000; stroke-opacity: 0.8; stroke-width: 3.5"/>
   </g>
   <g id="text_19">
    <!-- Standard SINDy -->
    <g transform="translate(783.679062 45.954687) scale(0.1 -0.1)">
     <defs>
      <path id="DejaVuSans-64" d="M 2906 2969 
L 2906 4863 
L 3481 4863 
L 3481 0 
L 2906 0 
L 2906 525 
Q 2725 213 2448 61 
Q 2172 -91 1784 -91 
Q 1150 -91 751 415 
Q 353 922 353 1747 
Q 353 2572 751 3078 
Q 1150 3584 1784 3584 
Q 2172 3584 2448 3432 
Q 2725 3281 2906 2969 
z
M 947 1747 
Q 947 1113 1208 752 
Q 1469 391 1925 391 
Q 2381 391 2643 752 
Q 2906 1113 2906 1747 
Q 2906 2381 2643 2742 
Q 2381 3103 1925 3103 
Q 1469 3103 1208 2742 
Q 947 2381 947 1747 
z
" transform="scale(0.015625)"/>
     </defs>
     <use xlink:href="#DejaVuSans-53"/>
     <use xlink:href="#DejaVuSans-74" transform="translate(63.476562 0)"/>
     <use xlink:href="#DejaVuSans-61" transform="translate(102.685547 0)"/>
     <use xlink:href="#DejaVuSans-6e" transform="translate(163.964844 0)"/>
     <use xlink:href="#DejaVuSans-64" transform="translate(227.34375 0)"/>
     <use xlink:href="#DejaVuSans-61" transform="translate(290.820312 0)"/>
     <use xlink:href="#DejaVuSans-72" transform="translate(352.099609 0)"/>
     <use xlink:href="#DejaVuSans-64" transform="translate(391.462891 0)"/>
     <use xlink:href="#DejaVuSans-20" transform="translate(454.939453 0)"/>
     <use xlink:href="#DejaVuSans-53" transform="translate(486.726562 0)"/>
     <use xlink:href="#DejaVuSans-49" transform="translate(550.203125 0)"/>
     <use xlink:href="#DejaVuSans-4e" transform="translate(579.695312 0)"/>
     <use xlink:href="#DejaVuSans-44" transform="translate(654.5 0)"/>
     <use xlink:href="#DejaVuSans-79" transform="translate(731.501953 0)"/>
    </g>
   </g>
   <g id="line2d_30">
    <path d="M 755.679062 57.132812 
L 765.679062 57.132812 
L 775.679062 57.132812 
" style="fill: none; stroke-dasharray: 22.4,5.6,3.5,5.6; stroke-dashoffset: 0; stroke: #0000ff; stroke-opacity: 0.8; stroke-width: 3.5"/>
   </g>
   <g id="text_20">
    <!-- Standard PySR -->
    <g transform="translate(783.679062 60.632812) scale(0.1 -0.1)">
     <defs>
      <path id="DejaVuSans-50" d="M 1259 4147 
L 1259 2394 
L 2053 2394 
Q 2494 2394 2734 2622 
Q 2975 2850 2975 3272 
Q 2975 3691 2734 3919 
Q 2494 4147 2053 4147 
L 1259 4147 
z
M 628 4666 
L 2053 4666 
Q 2838 4666 3239 4311 
Q 3641 3956 3641 3272 
Q 3641 2581 3239 2228 
Q 2838 1875 2053 1875 
L 1259 1875 
L 1259 0 
L 628 0 
L 628 4666 
z
" transform="scale(0.015625)"/>
      <path id="DejaVuSans-52" d="M 2841 2188 
Q 3044 2119 3236 1894 
Q 3428 1669 3622 1275 
L 4263 0 
L 3584 0 
L 2988 1197 
Q 2756 1666 2539 1819 
Q 2322 1972 1947 1972 
L 1259 1972 
L 1259 0 
L 628 0 
L 628 4666 
L 2053 4666 
Q 2853 4666 3247 4331 
Q 3641 3997 3641 3322 
Q 3641 2881 3436 2590 
Q 3231 2300 2841 2188 
z
M 1259 4147 
L 1259 2491 
L 2053 2491 
Q 2509 2491 2742 2702 
Q 2975 2913 2975 3322 
Q 2975 3731 2742 3939 
Q 2509 4147 2053 4147 
L 1259 4147 
z
" transform="scale(0.015625)"/>
     </defs>
     <use xlink:href="#DejaVuSans-53"/>
     <use xlink:href="#DejaVuSans-74" transform="translate(63.476562 0)"/>
     <use xlink:href="#DejaVuSans-61" transform="translate(102.685547 0)"/>
     <use xlink:href="#DejaVuSans-6e" transform="translate(163.964844 0)"/>
     <use xlink:href="#DejaVuSans-64" transform="translate(227.34375 0)"/>
     <use xlink:href="#DejaVuSans-61" transform="translate(290.820312 0)"/>
     <use xlink:href="#DejaVuSans-72" transform="translate(352.099609 0)"/>
     <use xlink:href="#DejaVuSans-64" transform="translate(391.462891 0)"/>
     <use xlink:href="#DejaVuSans-20" transform="translate(454.939453 0)"/>
     <use xlink:href="#DejaVuSans-50" transform="translate(486.726562 0)"/>
     <use xlink:href="#DejaVuSans-79" transform="translate(547.029297 0)"/>
     <use xlink:href="#DejaVuSans-53" transform="translate(606.208984 0)"/>
     <use xlink:href="#DejaVuSans-52" transform="translate(669.685547 0)"/>
    </g>
   </g>
  </g>
 </g>
 <defs>
  <clipPath id="pc105f995ff">
   <rect x="52.160938" y="39.64" width="806.59" height="97.15"/>
  </clipPath>
  <clipPath id="p7e171219d5">
   <rect x="52.160938" y="151.09" width="806.59" height="97.15"/>
  </clipPath>
 </defs>
</svg>
