<?xml version="1.0" encoding="utf-8" standalone="no"?>
<!DOCTYPE svg PUBLIC "-//W3C//DTD SVG 1.1//EN"
  "http://www.w3.org/Graphics/SVG/1.1/DTD/svg11.dtd">
<svg xmlns:xlink="http://www.w3.org/1999/xlink" width="568.410938pt" height="567.994375pt" viewBox="0 0 568.410938 567.994375" xmlns="http://www.w3.org/2000/svg" version="1.1">
 <metadata>
  <rdf:RDF xmlns:dc="http://purl.org/dc/elements/1.1/" xmlns:cc="http://creativecommons.org/ns#" xmlns:rdf="http://www.w3.org/1999/02/22-rdf-syntax-ns#">
   <cc:Work>
    <dc:type rdf:resource="http://purl.org/dc/dcmitype/StillImage"/>
    <dc:date>2026-04-06T12:00:28.049933</dc:date>
    <dc:format>image/svg+xml</dc:format>
    <dc:creator>
     <cc:Agent>
      <dc:title>Matplotlib v3.10.7, https://matplotlib.org/</dc:title>
     </cc:Agent>
    </dc:creator>
   </cc:Work>
  </rdf:RDF>
 </metadata>
 <defs>
  <style type="text/css">*{stroke-linejoin: round; stroke-linecap: butt}</style>
 </defs>
 <g id="figure_1">
  <g id="patch_1">
   <path d="M 0 567.994375 
L 568.410938 567.994375 
L 568.410938 0 
L 0 0 
z
" style="fill: #ffffff"/>
  </g>
  <g id="axes_1">
   <g id="patch_2">
    <path d="M 52.160938 530.438125 
L 561.210937 530.438125 
L 561.210937 22.318125 
L 52.160938 22.318125 
z
" style="fill: #ffffff"/>
   </g>
   <g id="matplotlib.axis_1">
    <g id="xtick_1">
     <g id="line2d_1">
      <defs>
       <path id="mc87c87474d" d="M 0 0 
L 0 3.5 
" style="stroke: #000000; stroke-width: 0.8"/>
      </defs>
      <g>
       <use xlink:href="#mc87c87474d" x="76.734638" y="530.438125" style="stroke: #000000; stroke-width: 0.8"/>
      </g>
     </g>
     <g id="text_1">
      <!-- −0.8 -->
      <g transform="translate(64.593232 545.036562) scale(0.1 -0.1)">
       <defs>
        <path id="DejaVuSans-2212" d="M 678 2272 
L 4684 2272 
L 4684 1741 
L 678 1741 
L 678 2272 
z
" transform="scale(0.015625)"/>
        <path id="DejaVuSans-30" d="M 2034 4250 
Q 1547 4250 1301 3770 
Q 1056 3291 1056 2328 
Q 1056 1369 1301 889 
Q 1547 409 2034 409 
Q 2525 409 2770 889 
Q 3016 1369 3016 2328 
Q 3016 3291 2770 3770 
Q 2525 4250 2034 4250 
z
M 2034 4750 
Q 2819 4750 3233 4129 
Q 3647 3509 3647 2328 
Q 3647 1150 3233 529 
Q 2819 -91 2034 -91 
Q 1250 -91 836 529 
Q 422 1150 422 2328 
Q 422 3509 836 4129 
Q 1250 4750 2034 4750 
z
" transform="scale(0.015625)"/>
        <path id="DejaVuSans-2e" d="M 684 794 
L 1344 794 
L 1344 0 
L 684 0 
L 684 794 
z
" transform="scale(0.015625)"/>
        <path id="DejaVuSans-38" d="M 2034 2216 
Q 1584 2216 1326 1975 
Q 1069 1734 1069 1313 
Q 1069 891 1326 650 
Q 1584 409 2034 409 
Q 2484 409 2743 651 
Q 3003 894 3003 1313 
Q 3003 1734 2745 1975 
Q 2488 2216 2034 2216 
z
M 1403 2484 
Q 997 2584 770 2862 
Q 544 3141 544 3541 
Q 544 4100 942 4425 
Q 1341 4750 2034 4750 
Q 2731 4750 3128 4425 
Q 3525 4100 3525 3541 
Q 3525 3141 3298 2862 
Q 3072 2584 2669 2484 
Q 3125 2378 3379 2068 
Q 3634 1759 3634 1313 
Q 3634 634 3220 271 
Q 2806 -91 2034 -91 
Q 1263 -91 848 271 
Q 434 634 434 1313 
Q 434 1759 690 2068 
Q 947 2378 1403 2484 
z
M 1172 3481 
Q 1172 3119 1398 2916 
Q 1625 2713 2034 2713 
Q 2441 2713 2670 2916 
Q 2900 3119 2900 3481 
Q 2900 3844 2670 4047 
Q 2441 4250 2034 4250 
Q 1625 4250 1398 4047 
Q 1172 3844 1172 3481 
z
" transform="scale(0.015625)"/>
       </defs>
       <use xlink:href="#DejaVuSans-2212"/>
       <use xlink:href="#DejaVuSans-30" transform="translate(83.789062 0)"/>
       <use xlink:href="#DejaVuSans-2e" transform="translate(147.412109 0)"/>
       <use xlink:href="#DejaVuSans-38" transform="translate(179.199219 0)"/>
      </g>
     </g>
    </g>
    <g id="xtick_2">
     <g id="line2d_2">
      <g>
       <use xlink:href="#mc87c87474d" x="134.222044" y="530.438125" style="stroke: #000000; stroke-width: 0.8"/>
      </g>
     </g>
     <g id="text_2">
      <!-- −0.6 -->
      <g transform="translate(122.080638 545.036562) scale(0.1 -0.1)">
       <defs>
        <path id="DejaVuSans-36" d="M 2113 2584 
Q 1688 2584 1439 2293 
Q 1191 2003 1191 1497 
Q 1191 994 1439 701 
Q 1688 409 2113 409 
Q 2538 409 2786 701 
Q 3034 994 3034 1497 
Q 3034 2003 2786 2293 
Q 2538 2584 2113 2584 
z
M 3366 4563 
L 3366 3988 
Q 3128 4100 2886 4159 
Q 2644 4219 2406 4219 
Q 1781 4219 1451 3797 
Q 1122 3375 1075 2522 
Q 1259 2794 1537 2939 
Q 1816 3084 2150 3084 
Q 2853 3084 3261 2657 
Q 3669 2231 3669 1497 
Q 3669 778 3244 343 
Q 2819 -91 2113 -91 
Q 1303 -91 875 529 
Q 447 1150 447 2328 
Q 447 3434 972 4092 
Q 1497 4750 2381 4750 
Q 2619 4750 2861 4703 
Q 3103 4656 3366 4563 
z
" transform="scale(0.015625)"/>
       </defs>
       <use xlink:href="#DejaVuSans-2212"/>
       <use xlink:href="#DejaVuSans-30" transform="translate(83.789062 0)"/>
       <use xlink:href="#DejaVuSans-2e" transform="translate(147.412109 0)"/>
       <use xlink:href="#DejaVuSans-36" transform="translate(179.199219 0)"/>
      </g>
     </g>
    </g>
    <g id="xtick_3">
     <g id="line2d_3">
      <g>
       <use xlink:href="#mc87c87474d" x="191.709451" y="530.438125" style="stroke: #000000; stroke-width: 0.8"/>
      </g>
     </g>
     <g id="text_3">
      <!-- −0.4 -->
      <g transform="translate(179.568045 545.036562) scale(0.1 -0.1)">
       <defs>
        <path id="DejaVuSans-34" d="M 2419 4116 
L 825 1625 
L 2419 1625 
L 2419 4116 
z
M 2253 4666 
L 3047 4666 
L 3047 1625 
L 3713 1625 
L 3713 1100 
L 3047 1100 
L 3047 0 
L 2419 0 
L 2419 1100 
L 313 1100 
L 313 1709 
L 2253 4666 
z
" transform="scale(0.015625)"/>
       </defs>
       <use xlink:href="#DejaVuSans-2212"/>
       <use xlink:href="#DejaVuSans-30" transform="translate(83.789062 0)"/>
       <use xlink:href="#DejaVuSans-2e" transform="translate(147.412109 0)"/>
       <use xlink:href="#DejaVuSans-34" transform="translate(179.199219 0)"/>
      </g>
     </g>
    </g>
    <g id="xtick_4">
     <g id="line2d_4">
      <g>
       <use xlink:href="#mc87c87474d" x="249.196858" y="530.438125" style="stroke: #000000; stroke-width: 0.8"/>
      </g>
     </g>
     <g id="text_4">
      <!-- −0.2 -->
      <g transform="translate(237.055451 545.036562) scale(0.1 -0.1)">
       <defs>
        <path id="DejaVuSans-32" d="M 1228 531 
L 3431 531 
L 3431 0 
L 469 0 
L 469 531 
Q 828 903 1448 1529 
Q 2069 2156 2228 2338 
Q 2531 2678 2651 2914 
Q 2772 3150 2772 3378 
Q 2772 3750 2511 3984 
Q 2250 4219 1831 4219 
Q 1534 4219 1204 4116 
Q 875 4013 500 3803 
L 500 4441 
Q 881 4594 1212 4672 
Q 1544 4750 1819 4750 
Q 2544 4750 2975 4387 
Q 3406 4025 3406 3419 
Q 3406 3131 3298 2873 
Q 3191 2616 2906 2266 
Q 2828 2175 2409 1742 
Q 1991 1309 1228 531 
z
" transform="scale(0.015625)"/>
       </defs>
       <use xlink:href="#DejaVuSans-2212"/>
       <use xlink:href="#DejaVuSans-30" transform="translate(83.789062 0)"/>
       <use xlink:href="#DejaVuSans-2e" transform="translate(147.412109 0)"/>
       <use xlink:href="#DejaVuSans-32" transform="translate(179.199219 0)"/>
      </g>
     </g>
    </g>
    <g id="xtick_5">
     <g id="line2d_5">
      <g>
       <use xlink:href="#mc87c87474d" x="306.684264" y="530.438125" style="stroke: #000000; stroke-width: 0.8"/>
      </g>
     </g>
     <g id="text_5">
      <!-- 0.0 -->
      <g transform="translate(298.732702 545.036562) scale(0.1 -0.1)">
       <use xlink:href="#DejaVuSans-30"/>
       <use xlink:href="#DejaVuSans-2e" transform="translate(63.623047 0)"/>
       <use xlink:href="#DejaVuSans-30" transform="translate(95.410156 0)"/>
      </g>
     </g>
    </g>
    <g id="xtick_6">
     <g id="line2d_6">
      <g>
       <use xlink:href="#mc87c87474d" x="364.171671" y="530.438125" style="stroke: #000000; stroke-width: 0.8"/>
      </g>
     </g>
     <g id="text_6">
      <!-- 0.2 -->
      <g transform="translate(356.220108 545.036562) scale(0.1 -0.1)">
       <use xlink:href="#DejaVuSans-30"/>
       <use xlink:href="#DejaVuSans-2e" transform="translate(63.623047 0)"/>
       <use xlink:href="#DejaVuSans-32" transform="translate(95.410156 0)"/>
      </g>
     </g>
    </g>
    <g id="xtick_7">
     <g id="line2d_7">
      <g>
       <use xlink:href="#mc87c87474d" x="421.659077" y="530.438125" style="stroke: #000000; stroke-width: 0.8"/>
      </g>
     </g>
     <g id="text_7">
      <!-- 0.4 -->
      <g transform="translate(413.707515 545.036562) scale(0.1 -0.1)">
       <use xlink:href="#DejaVuSans-30"/>
       <use xlink:href="#DejaVuSans-2e" transform="translate(63.623047 0)"/>
       <use xlink:href="#DejaVuSans-34" transform="translate(95.410156 0)"/>
      </g>
     </g>
    </g>
    <g id="xtick_8">
     <g id="line2d_8">
      <g>
       <use xlink:href="#mc87c87474d" x="479.146484" y="530.438125" style="stroke: #000000; stroke-width: 0.8"/>
      </g>
     </g>
     <g id="text_8">
      <!-- 0.6 -->
      <g transform="translate(471.194922 545.036562) scale(0.1 -0.1)">
       <use xlink:href="#DejaVuSans-30"/>
       <use xlink:href="#DejaVuSans-2e" transform="translate(63.623047 0)"/>
       <use xlink:href="#DejaVuSans-36" transform="translate(95.410156 0)"/>
      </g>
     </g>
    </g>
    <g id="xtick_9">
     <g id="line2d_9">
      <g>
       <use xlink:href="#mc87c87474d" x="536.633891" y="530.438125" style="stroke: #000000; stroke-width: 0.8"/>
      </g>
     </g>
     <g id="text_9">
      <!-- 0.8 -->
      <g transform="translate(528.682328 545.036562) scale(0.1 -0.1)">
       <use xlink:href="#DejaVuSans-30"/>
       <use xlink:href="#DejaVuSans-2e" transform="translate(63.623047 0)"/>
       <use xlink:href="#DejaVuSans-38" transform="translate(95.410156 0)"/>
      </g>
     </g>
    </g>
    <g id="text_10">
     <!-- x0 -->
     <g transform="translate(300.545312 558.714687) scale(0.1 -0.1)">
      <defs>
       <path id="DejaVuSans-78" d="M 3513 3500 
L 2247 1797 
L 3578 0 
L 2900 0 
L 1881 1375 
L 863 0 
L 184 0 
L 1544 1831 
L 300 3500 
L 978 3500 
L 1906 2253 
L 2834 3500 
L 3513 3500 
z
" transform="scale(0.015625)"/>
      </defs>
      <use xlink:href="#DejaVuSans-78"/>
      <use xlink:href="#DejaVuSans-30" transform="translate(59.179688 0)"/>
     </g>
    </g>
   </g>
   <g id="matplotlib.axis_2">
    <g id="ytick_1">
     <g id="line2d_10">
      <defs>
       <path id="m45855f3653" d="M 0 0 
L -3.5 0 
" style="stroke: #000000; stroke-width: 0.8"/>
      </defs>
      <g>
       <use xlink:href="#m45855f3653" x="52.160938" y="468.558645" style="stroke: #000000; stroke-width: 0.8"/>
      </g>
     </g>
     <g id="text_11">
      <!-- −1.5 -->
      <g transform="translate(20.878125 472.357864) scale(0.1 -0.1)">
       <defs>
        <path id="DejaVuSans-31" d="M 794 531 
L 1825 531 
L 1825 4091 
L 703 3866 
L 703 4441 
L 1819 4666 
L 2450 4666 
L 2450 531 
L 3481 531 
L 3481 0 
L 794 0 
L 794 531 
z
" transform="scale(0.015625)"/>
        <path id="DejaVuSans-35" d="M 691 4666 
L 3169 4666 
L 3169 4134 
L 1269 4134 
L 1269 2991 
Q 1406 3038 1543 3061 
Q 1681 3084 1819 3084 
Q 2600 3084 3056 2656 
Q 3513 2228 3513 1497 
Q 3513 744 3044 326 
Q 2575 -91 1722 -91 
Q 1428 -91 1123 -41 
Q 819 9 494 109 
L 494 744 
Q 775 591 1075 516 
Q 1375 441 1709 441 
Q 2250 441 2565 725 
Q 2881 1009 2881 1497 
Q 2881 1984 2565 2268 
Q 2250 2553 1709 2553 
Q 1456 2553 1204 2497 
Q 953 2441 691 2322 
L 691 4666 
z
" transform="scale(0.015625)"/>
       </defs>
       <use xlink:href="#DejaVuSans-2212"/>
       <use xlink:href="#DejaVuSans-31" transform="translate(83.789062 0)"/>
       <use xlink:href="#DejaVuSans-2e" transform="translate(147.412109 0)"/>
       <use xlink:href="#DejaVuSans-35" transform="translate(179.199219 0)"/>
      </g>
     </g>
    </g>
    <g id="ytick_2">
     <g id="line2d_11">
      <g>
       <use xlink:href="#m45855f3653" x="52.160938" y="404.281942" style="stroke: #000000; stroke-width: 0.8"/>
      </g>
     </g>
     <g id="text_12">
      <!-- −1.0 -->
      <g transform="translate(20.878125 408.081161) scale(0.1 -0.1)">
       <use xlink:href="#DejaVuSans-2212"/>
       <use xlink:href="#DejaVuSans-31" transform="translate(83.789062 0)"/>
       <use xlink:href="#DejaVuSans-2e" transform="translate(147.412109 0)"/>
       <use xlink:href="#DejaVuSans-30" transform="translate(179.199219 0)"/>
      </g>
     </g>
    </g>
    <g id="ytick_3">
     <g id="line2d_12">
      <g>
       <use xlink:href="#m45855f3653" x="52.160938" y="340.00524" style="stroke: #000000; stroke-width: 0.8"/>
      </g>
     </g>
     <g id="text_13">
      <!-- −0.5 -->
      <g transform="translate(20.878125 343.804459) scale(0.1 -0.1)">
       <use xlink:href="#DejaVuSans-2212"/>
       <use xlink:href="#DejaVuSans-30" transform="translate(83.789062 0)"/>
       <use xlink:href="#DejaVuSans-2e" transform="translate(147.412109 0)"/>
       <use xlink:href="#DejaVuSans-35" transform="translate(179.199219 0)"/>
      </g>
     </g>
    </g>
    <g id="ytick_4">
     <g id="line2d_13">
      <g>
       <use xlink:href="#m45855f3653" x="52.160938" y="275.728537" style="stroke: #000000; stroke-width: 0.8"/>
      </g>
     </g>
     <g id="text_14">
      <!-- 0.0 -->
      <g transform="translate(29.257812 279.527756) scale(0.1 -0.1)">
       <use xlink:href="#DejaVuSans-30"/>
       <use xlink:href="#DejaVuSans-2e" transform="translate(63.623047 0)"/>
       <use xlink:href="#DejaVuSans-30" transform="translate(95.410156 0)"/>
      </g>
     </g>
    </g>
    <g id="ytick_5">
     <g id="line2d_14">
      <g>
       <use xlink:href="#m45855f3653" x="52.160938" y="211.451834" style="stroke: #000000; stroke-width: 0.8"/>
      </g>
     </g>
     <g id="text_15">
      <!-- 0.5 -->
      <g transform="translate(29.257812 215.251053) scale(0.1 -0.1)">
       <use xlink:href="#DejaVuSans-30"/>
       <use xlink:href="#DejaVuSans-2e" transform="translate(63.623047 0)"/>
       <use xlink:href="#DejaVuSans-35" transform="translate(95.410156 0)"/>
      </g>
     </g>
    </g>
    <g id="ytick_6">
     <g id="line2d_15">
      <g>
       <use xlink:href="#m45855f3653" x="52.160938" y="147.175132" style="stroke: #000000; stroke-width: 0.8"/>
      </g>
     </g>
     <g id="text_16">
      <!-- 1.0 -->
      <g transform="translate(29.257812 150.974351) scale(0.1 -0.1)">
       <use xlink:href="#DejaVuSans-31"/>
       <use xlink:href="#DejaVuSans-2e" transform="translate(63.623047 0)"/>
       <use xlink:href="#DejaVuSans-30" transform="translate(95.410156 0)"/>
      </g>
     </g>
    </g>
    <g id="ytick_7">
     <g id="line2d_16">
      <g>
       <use xlink:href="#m45855f3653" x="52.160938" y="82.898429" style="stroke: #000000; stroke-width: 0.8"/>
      </g>
     </g>
     <g id="text_17">
      <!-- 1.5 -->
      <g transform="translate(29.257812 86.697648) scale(0.1 -0.1)">
       <use xlink:href="#DejaVuSans-31"/>
       <use xlink:href="#DejaVuSans-2e" transform="translate(63.623047 0)"/>
       <use xlink:href="#DejaVuSans-35" transform="translate(95.410156 0)"/>
      </g>
     </g>
    </g>
    <g id="text_18">
     <!-- x1 -->
     <g transform="translate(14.798438 282.51875) rotate(-90) scale(0.1 -0.1)">
      <use xlink:href="#DejaVuSans-78"/>
      <use xlink:href="#DejaVuSans-31" transform="translate(59.179688 0)"/>
     </g>
    </g>
   </g>
   <g id="line2d_17">
    <path d="M 536.633891 250.017856 
L 537.151685 255.216615 
L 537.552987 260.416554 
L 537.837799 265.615099 
L 538.006182 270.809675 
L 538.058254 275.9977 
L 537.994191 281.176595 
L 537.814326 286.344152 
L 537.518993 291.497871 
L 537.108514 296.634994 
L 536.58327 301.752788 
L 535.943701 306.84855 
L 535.190305 311.919605 
L 534.323637 316.963306 
L 533.344311 321.977035 
L 532.253 326.958201 
L 531.050435 331.904242 
L 529.737404 336.812625 
L 528.314754 341.680844 
L 526.783391 346.506421 
L 525.144278 351.286908 
L 523.398437 356.019884 
L 521.546947 360.702957 
L 519.590947 365.333762 
L 517.531633 369.909963 
L 515.370261 374.429252 
L 513.108141 378.889351 
L 510.746647 383.288008 
L 508.287207 387.623001 
L 505.731308 391.892133 
L 503.080496 396.09324 
L 500.336376 400.224184 
L 497.500609 404.282853 
L 494.574917 408.267167 
L 491.561076 412.175073 
L 488.460911 416.004572 
L 485.275772 419.754667 
L 482.007332 423.423788 
L 478.657571 427.009882 
L 475.228487 430.510972 
L 471.722098 433.925158 
L 468.140441 437.250612 
L 464.485571 440.485583 
L 460.759565 443.628394 
L 456.964515 446.677443 
L 453.102537 449.631204 
L 449.175763 452.488226 
L 445.186344 455.247133 
L 441.136452 457.906621 
L 437.028278 460.465466 
L 432.86403 462.922516 
L 428.645939 465.276694 
L 424.376251 467.527 
L 420.057234 469.672506 
L 415.691174 471.712362 
L 411.280377 473.645792 
L 406.827168 475.472094 
L 402.33389 477.190642 
L 397.802906 478.800885 
L 393.2366 480.302347 
L 388.637373 481.694627 
L 384.007644 482.977399 
L 379.349855 484.150411 
L 374.666464 485.213489 
L 369.95995 486.16653 
L 365.232809 487.009509 
L 355.726737 488.365554 
L 346.168612 489.282915 
L 336.579103 489.764088 
L 326.979191 489.812766 
L 317.390159 489.433845 
L 307.828675 488.631759 
L 298.308659 487.409625 
L 288.850508 485.772662 
L 279.474095 483.726744 
L 270.198705 481.278381 
L 261.043031 478.434718 
L 252.025177 475.203536 
L 243.162655 471.593253 
L 234.47239 467.612922 
L 225.970714 463.272232 
L 217.673369 458.581508 
L 209.595509 453.551713 
L 201.751695 448.194442 
L 194.155901 442.521928 
L 186.821507 436.547042 
L 179.761307 430.283287 
L 172.987501 423.744804 
L 166.5117 416.94637 
L 160.344927 409.903398 
L 154.497613 402.631937 
L 148.979598 395.148671 
L 143.799932 387.470413 
L 138.964385 379.606125 
L 134.481295 371.569611 
L 130.359448 363.377664 
L 126.606699 355.04712 
L 123.229978 346.594854 
L 120.235284 338.03778 
L 117.627688 329.392854 
L 115.411333 320.677071 
L 113.589434 311.907465 
L 112.164277 303.101112 
L 111.137218 294.275128 
L 110.508687 285.446667 
L 110.278185 276.632925 
L 110.444283 267.851138 
L 111.004625 259.118581 
L 111.955926 250.452569 
L 113.293973 241.870459 
L 115.013624 233.389645 
L 117.108808 225.027565 
L 119.572527 216.801693 
L 122.396863 208.729531 
L 125.576365 200.823887 
L 129.10518 193.098869 
L 132.974613 185.571853 
L 137.175423 178.259366 
L 141.69782 171.177086 
L 146.531469 164.33984 
L 151.665486 157.761607 
L 157.088442 151.455514 
L 162.78836 145.43384 
L 168.752716 139.708015 
L 174.96844 134.288617 
L 181.421912 129.185376 
L 188.098969 124.407171 
L 194.984899 119.962032 
L 202.064443 115.857139 
L 209.321794 112.098823 
L 216.740601 108.692565 
L 224.303962 105.642995 
L 231.994432 102.953895 
L 239.794017 100.628197 
L 247.686407 98.667736 
L 255.66079 97.07337 
L 263.699875 95.846499 
L 271.786024 94.987847 
L 279.901897 94.497377 
L 288.030442 94.374287 
L 296.154904 94.61701 
L 304.25882 95.223218 
L 312.326022 96.189815 
L 320.340635 97.512942 
L 328.287075 99.187978 
L 336.150056 101.209535 
L 343.91458 103.571463 
L 351.565948 106.266847 
L 359.08975 109.288008 
L 366.471873 112.626502 
L 373.698494 116.273122 
L 380.756087 120.217896 
L 387.631417 124.45009 
L 394.311543 128.958203 
L 400.783818 133.729972 
L 407.035889 138.752369 
L 413.058099 144.015693 
L 418.842385 149.513736 
L 424.377268 155.234532 
L 429.651955 161.165821 
L 434.65639 167.295133 
L 439.381261 173.609791 
L 443.817993 180.096908 
L 447.958755 186.743387 
L 451.796455 193.535925 
L 455.324739 200.461007 
L 458.537999 207.504911 
L 461.431362 214.653705 
L 464.000699 221.893249 
L 466.242619 229.209194 
L 468.154475 236.586982 
L 469.734357 244.011844 
L 470.981097 251.468807 
L 471.894267 258.942684 
L 472.47418 266.418082 
L 472.721891 273.879398 
L 472.638841 281.313373 
L 472.225982 288.70902 
L 471.484959 296.049969 
L 470.41809 303.320146 
L 469.028351 310.503955 
L 467.319378 317.586286 
L 465.295469 324.552508 
L 462.961577 331.38847 
L 460.323319 338.080506 
L 457.386966 344.615429 
L 454.159455 350.980535 
L 450.648376 357.163601 
L 446.861983 363.152885 
L 442.809188 368.937128 
L 438.499561 374.50555 
L 433.943333 379.847856 
L 429.151395 384.954229 
L 424.135296 389.815335 
L 418.907245 394.422323 
L 413.48011 398.766822 
L 407.867419 402.840943 
L 402.083275 406.637314 
L 396.136535 410.151388 
L 390.03779 413.377991 
L 383.800935 416.311152 
L 377.439839 418.945667 
L 370.968345 421.277098 
L 364.400273 423.301773 
L 357.749417 425.016783 
L 351.029545 426.419986 
L 344.254402 427.510006 
L 337.437706 428.286233 
L 330.593151 428.748819 
L 323.734407 428.898687 
L 316.875115 428.737519 
L 310.028896 428.267769 
L 303.209342 427.492651 
L 296.430022 426.416149 
L 289.70448 425.043008 
L 283.046233 423.378743 
L 276.468776 421.429631 
L 269.985576 419.202716 
L 263.610076 416.705807 
L 257.352339 413.944621 
L 251.221277 410.92335 
L 245.229591 407.649422 
L 239.389443 404.130605 
L 233.71244 400.375004 
L 228.209633 396.391053 
L 222.891517 392.187518 
L 217.768033 387.7735 
L 212.848564 383.15843 
L 208.141939 378.352071 
L 203.656431 373.364519 
L 199.399756 368.206203 
L 195.379077 362.887882 
L 191.600999 357.420649 
L 188.071573 351.815928 
L 184.796292 346.085476 
L 181.780096 340.241383 
L 179.027368 334.296068 
L 176.541935 328.262286 
L 174.32707 322.153123 
L 172.385455 315.9818 
L 170.718688 309.756772 
L 169.3292 303.489501 
L 168.219341 297.193646 
L 167.390823 290.88265 
L 166.844713 284.569739 
L 166.581442 278.267922 
L 166.600798 271.989996 
L 166.901928 265.748539 
L 167.483341 259.555914 
L 168.342905 253.424268 
L 169.477845 247.365533 
L 170.884748 241.391424 
L 172.559561 235.513442 
L 174.497589 229.742869 
L 176.693496 224.090775 
L 179.141309 218.568012 
L 181.83441 213.185215 
L 184.765545 207.952806 
L 187.926815 202.88099 
L 191.309685 197.979755 
L 194.904976 193.258875 
L 198.703488 188.727459 
L 202.700228 184.391265 
L 206.886706 180.258555 
L 211.253213 176.337757 
L 215.789869 172.636652 
L 220.486616 169.162371 
L 225.333223 165.921392 
L 230.319282 162.919546 
L 235.434209 160.162012 
L 240.667247 157.65332 
L 246.007462 155.397349 
L 251.443745 153.397329 
L 256.964812 151.655838 
L 262.559203 150.174807 
L 268.215284 148.955514 
L 273.921243 147.998588 
L 279.665097 147.304008 
L 285.434684 146.871104 
L 291.217667 146.698554 
L 297.001536 146.784387 
L 302.773648 147.126025 
L 308.523695 147.722614 
L 308.523695 147.722614 
" clip-path="url(#p191080c766)" style="fill: none; stroke: #000000; stroke-opacity: 0.3; stroke-width: 7; stroke-linecap: square"/>
   </g>
   <g id="line2d_18">
    <path d="M 536.633891 250.017856 
L 537.152382 255.155845 
L 537.555671 260.30412 
L 537.843495 265.460108 
L 538.0157 270.62123 
L 538.072268 275.784904 
L 538.013179 280.94855 
L 537.838447 286.10959 
L 537.548097 291.265437 
L 537.142278 296.413511 
L 536.621259 301.551245 
L 535.985307 306.676071 
L 535.234728 311.785429 
L 534.369831 316.876752 
L 533.391054 321.947492 
L 532.298955 326.995129 
L 531.094088 332.017139 
L 529.777058 337.011016 
L 528.348441 341.974238 
L 526.808978 346.904326 
L 525.159568 351.798836 
L 523.401111 356.655329 
L 521.534595 361.471384 
L 519.560936 366.244559 
L 517.481359 370.972482 
L 515.297361 375.652841 
L 513.010439 380.283325 
L 510.622131 384.861655 
L 508.134155 389.385532 
L 505.548432 393.852761 
L 502.866955 398.261232 
L 500.091718 402.608834 
L 494.267751 411.113101 
L 488.091596 419.349456 
L 481.57419 427.302527 
L 478.19036 431.168093 
L 474.723995 434.957212 
L 471.17549 438.668056 
L 467.545241 442.298797 
L 463.833826 445.847626 
L 460.041302 449.312697 
L 456.168375 452.692212 
L 452.216307 455.98442 
L 448.186362 459.187571 
L 444.07998 462.299955 
L 439.898822 465.319807 
L 435.645235 468.245497 
L 431.321926 471.075504 
L 426.931602 473.808306 
L 422.47696 476.442426 
L 417.961016 478.97638 
L 413.386727 481.408858 
L 408.756948 483.738656 
L 404.074537 485.96457 
L 399.342311 488.085441 
L 394.563045 490.100115 
L 389.739367 492.007596 
L 384.873839 493.80698 
L 379.969021 495.497365 
L 375.02747 497.077891 
L 370.051695 498.547692 
L 365.044207 499.906057 
L 360.007534 501.152365 
L 354.944199 502.285994 
L 349.856734 503.306368 
L 344.747676 504.212899 
L 339.619582 505.005162 
L 334.475026 505.682819 
L 329.316579 506.245532 
L 324.146814 506.69301 
L 318.968315 507.024951 
L 313.783674 507.241218 
L 308.595486 507.341761 
L 303.406342 507.326531 
L 298.218832 507.195525 
L 293.035559 506.94873 
L 287.859114 506.586301 
L 282.692079 506.108475 
L 277.537037 505.515493 
L 272.396562 504.807639 
L 267.27324 503.98519 
L 262.169629 503.04859 
L 257.088271 501.998362 
L 252.031707 500.835031 
L 247.002479 499.55917 
L 242.003102 498.171338 
L 237.036093 496.672263 
L 232.103975 495.06275 
L 227.20927 493.343606 
L 222.354546 491.515687 
L 217.54227 489.579827 
L 212.77509 487.537041 
L 208.055741 485.388424 
L 203.386961 483.135072 
L 198.771489 480.778137 
L 194.212258 478.31875 
L 189.7122 475.758239 
L 185.274217 473.09802 
L 180.901213 470.339508 
L 176.59586 467.484158 
L 172.361326 464.53346 
L 168.199865 461.489053 
L 164.113324 458.352627 
L 160.10355 455.125871 
L 156.172182 451.810494 
L 152.320591 448.408251 
L 148.549466 444.920941 
L 144.859274 441.350376 
L 141.250485 437.698367 
L 137.72369 433.966741 
L 134.2789 430.157299 
L 130.916746 426.27189 
L 124.443945 418.280662 
L 118.313311 410.008127 
L 112.536827 401.469747 
L 109.786124 397.105935 
L 107.129607 392.681794 
L 104.569498 388.199393 
L 102.107672 383.660937 
L 99.745868 379.068674 
L 97.485822 374.424851 
L 95.329149 369.731744 
L 93.277469 364.991645 
L 91.331982 360.206933 
L 89.493761 355.380011 
L 87.763875 350.513281 
L 86.14332 345.609166 
L 84.633049 340.670094 
L 83.233788 335.698549 
L 81.946199 330.69703 
L 80.770942 325.668034 
L 79.708618 320.614068 
L 78.759846 315.53765 
L 77.925049 310.441326 
L 77.204597 305.327651 
L 76.598855 300.199181 
L 76.108134 295.058473 
L 75.732765 289.908098 
L 75.472886 284.750633 
L 75.328577 279.588659 
L 75.299917 274.424756 
L 75.386926 269.261499 
L 75.58965 264.101481 
L 75.907934 258.947279 
L 76.341569 253.801464 
L 76.890348 248.666611 
L 77.554003 243.545281 
L 78.332287 238.440056 
L 79.224758 233.353477 
L 80.230924 228.28808 
L 81.350292 223.246397 
L 82.58232 218.230947 
L 83.926454 213.244264 
L 85.381994 208.288828 
L 86.948206 203.367102 
L 88.624357 198.481552 
L 90.409721 193.634625 
L 92.303461 188.828773 
L 94.304816 184.066392 
L 96.413049 179.34986 
L 98.627422 174.681559 
L 100.947198 170.06385 
L 103.371771 165.499102 
L 105.900496 160.989632 
L 108.532713 156.537745 
L 111.26776 152.145745 
L 114.104743 147.815905 
L 117.0433 143.550558 
L 120.082057 139.351921 
L 123.219401 135.222183 
L 126.453722 131.163534 
L 129.783117 127.178098 
L 133.205528 123.268091 
L 136.718058 119.435488 
L 140.317651 115.682212 
L 144.001251 112.010186 
L 147.765889 108.421261 
L 151.607943 104.917301 
L 155.524484 101.499934 
L 159.51273 98.170743 
L 163.5699 94.931309 
L 167.693435 91.783163 
L 171.880871 88.727811 
L 176.13037 85.766615 
L 180.440204 82.900911 
L 184.808647 80.132036 
L 189.233955 77.461279 
L 193.714735 74.889955 
L 198.249294 72.419241 
L 202.835885 70.050288 
L 207.472759 67.784248 
L 212.158054 65.622215 
L 216.889912 63.565333 
L 221.666138 61.614562 
L 226.48448 59.770828 
L 231.342687 58.03506 
L 236.238455 56.408119 
L 241.169416 54.890907 
L 246.133102 53.484119 
L 251.127033 52.188418 
L 256.148728 51.004464 
L 261.19569 49.93285 
L 266.265407 48.974204 
L 271.355333 48.128939 
L 276.462917 47.397435 
L 281.585609 46.780075 
L 286.720852 46.277167 
L 291.866079 45.889055 
L 297.018715 45.615867 
L 302.176182 45.457696 
L 307.335902 45.414638 
L 312.495302 45.486716 
L 317.65179 45.673985 
L 322.802794 45.976285 
L 327.945741 46.393421 
L 333.078059 46.925204 
L 338.197188 47.571367 
L 343.300546 48.33168 
L 348.385595 49.205692 
L 353.449801 50.192927 
L 358.49063 51.29291 
L 363.505578 52.505091 
L 368.492084 53.828951 
L 373.447701 55.263763 
L 378.369998 56.808771 
L 383.25654 58.463221 
L 388.104985 60.226295 
L 392.912836 62.097188 
L 397.677951 64.07491 
L 402.398232 66.158453 
L 407.071578 68.346807 
L 411.696008 70.638909 
L 416.26957 73.033702 
L 420.790612 75.529985 
L 425.257513 78.126543 
L 429.66865 80.822162 
L 434.022293 83.615571 
L 438.317184 86.50555 
L 442.551384 89.490708 
L 446.722887 92.56964 
L 450.829684 95.740938 
L 454.869498 99.003117 
L 458.840031 102.354776 
L 462.738259 105.794248 
L 466.561093 109.31984 
L 470.305442 112.929858 
L 473.96833 116.622523 
L 477.546038 120.396069 
L 481.035806 124.248485 
L 484.434958 128.177739 
L 487.740814 132.181802 
L 490.95111 136.258587 
L 494.063486 140.405962 
L 497.076721 144.621694 
L 499.989682 148.903541 
L 502.801238 153.249264 
L 505.510406 157.656592 
L 508.116538 162.123253 
L 510.618999 166.646921 
L 513.017154 171.225267 
L 515.310369 175.855961 
L 517.497977 180.53665 
L 519.579303 185.265 
L 521.553575 190.038607 
L 523.420021 194.855063 
L 525.177863 199.711958 
L 526.826356 204.606862 
L 528.36465 209.537348 
L 529.792069 214.500929 
L 531.107949 219.495113 
L 532.311624 224.51741 
L 533.402505 229.565313 
L 534.379954 234.636308 
L 535.243559 239.727848 
L 535.992924 244.837382 
L 536.627651 249.962359 
L 537.147428 255.100221 
L 537.551898 260.248401 
L 537.840941 265.404319 
L 538.014446 270.565398 
L 538.072301 275.729058 
L 538.014483 280.892722 
L 537.840926 286.053799 
L 537.551797 291.209713 
L 537.147274 296.357888 
L 536.627535 301.495751 
L 535.992844 306.620736 
L 535.243426 311.730262 
L 534.379736 316.821788 
L 533.402238 321.892773 
L 532.311396 326.94068 
L 531.107771 331.96299 
L 529.791854 336.957161 
L 528.364409 341.920719 
L 526.826211 346.851193 
L 525.178033 351.746114 
L 523.420803 356.603045 
L 521.555275 361.419511 
L 519.582714 366.193148 
L 517.504398 370.921599 
L 515.321604 375.602503 
L 513.035807 380.233559 
L 510.648477 384.812408 
L 508.161527 389.336867 
L 505.576877 393.804758 
L 502.896451 398.2139 
L 497.256205 406.847467 
L 491.256371 415.221187 
L 484.909981 423.319355 
L 481.610368 427.260302 
L 478.227512 431.126682 
L 474.76197 434.916648 
L 471.214295 438.628354 
L 467.585071 442.259982 
L 463.8742 445.809678 
L 460.082474 449.275654 
L 456.210687 452.656123 
L 452.259634 455.9493 
L 448.230602 459.153454 
L 444.124672 462.266757 
L 439.944206 465.287596 
L 435.691566 468.214362 
L 431.369115 471.045445 
L 426.979449 473.779326 
L 422.525504 476.414432 
L 418.010207 478.949457 
L 413.436485 481.383096 
L 408.807264 483.714046 
L 404.125391 485.941102 
L 399.393765 488.063032 
L 394.615014 490.078843 
L 389.791768 491.98754 
L 384.926656 493.788132 
L 380.022256 495.479712 
L 375.081089 497.061351 
L 370.105672 498.532337 
L 365.098521 499.891962 
L 360.062153 501.139518 
L 354.999094 502.274381 
L 349.911865 503.295901 
L 344.803024 504.203652 
L 339.675131 504.997204 
L 334.530743 505.676136 
L 329.37243 506.240104 
L 324.20277 506.688747 
L 319.024352 507.021925 
L 313.839766 507.239495 
L 308.651602 507.341325 
L 303.462451 507.327356 
L 298.274915 507.197519 
L 293.091584 506.951963 
L 287.915048 506.590836 
L 282.747893 506.114292 
L 277.592704 505.52256 
L 272.452071 504.815865 
L 267.328553 503.994642 
L 262.224707 503.059325 
L 257.143089 502.010359 
L 252.086243 500.848254 
L 247.056707 499.573525 
L 242.056999 498.18689 
L 237.089632 496.689065 
L 232.157132 495.080778 
L 227.262023 493.362821 
L 222.406775 491.535988 
L 217.594023 489.60128 
L 212.826402 487.559699 
L 208.106557 485.41226 
L 203.437204 483.160041 
L 198.821125 480.804127 
L 194.26125 478.345831 
L 189.76051 475.786466 
L 185.321786 473.127355 
L 180.947995 470.369892 
L 176.642286 467.515512 
L 172.406989 464.565833 
L 168.244433 461.522474 
L 164.15688 458.387054 
L 160.146284 455.161251 
L 156.214404 451.846799 
L 152.362005 448.445486 
L 148.589851 444.959101 
L 144.898731 441.389435 
L 141.289139 437.738298 
L 137.76122 434.0075 
L 134.315549 430.198886 
L 130.952702 426.314304 
L 124.478188 418.324666 
L 118.345384 410.053551 
L 112.567106 401.516629 
L 109.815344 397.153478 
L 107.157921 392.729919 
L 104.59675 388.248136 
L 102.133742 383.710312 
L 99.770766 379.118641 
L 97.509619 374.475354 
L 95.352009 369.782729 
L 93.299198 365.043126 
L 91.352447 360.258908 
L 89.512992 355.432443 
L 87.781948 350.566125 
L 86.160311 345.662377 
L 84.648847 340.72367 
L 83.248322 335.752478 
L 81.95948 330.751278 
L 80.783013 325.722562 
L 79.719549 320.668839 
L 78.769546 315.59265 
L 77.933461 310.496537 
L 77.211732 305.38304 
L 76.604756 300.254713 
L 76.112874 295.114119 
L 75.736257 289.963835 
L 75.475074 284.806436 
L 75.329476 279.644496 
L 75.299574 274.480598 
L 75.385417 269.317326 
L 75.586888 264.157259 
L 75.903869 259.002977 
L 76.33622 253.857053 
L 76.883765 248.722066 
L 77.546262 243.600591 
L 78.323306 238.495177 
L 79.214492 233.408374 
L 80.219397 228.342726 
L 81.337555 223.300773 
L 82.568433 218.285049 
L 83.911358 213.298041 
L 85.365661 208.342239 
L 86.930669 203.420125 
L 88.605648 198.534174 
L 90.389814 193.68684 
L 92.282394 188.88053 
L 94.282613 184.11765 
L 96.38971 179.4006 
L 98.60293 174.731769 
L 100.921568 170.113522 
L 103.344993 165.548188 
L 105.872571 161.038093 
L 108.503587 156.585556 
L 111.237525 152.192895 
L 114.07378 147.862417 
L 117.011188 143.596359 
L 120.048589 139.396958 
L 123.184677 135.266428 
L 126.418053 131.207 
L 129.746806 127.220854 
L 133.168227 123.310013 
L 136.679604 119.476503 
L 140.278251 115.722313 
L 143.961018 112.049419 
L 147.724583 108.45968 
L 151.56587 104.954782 
L 155.481808 101.536408 
L 159.469434 98.206222 
L 163.5258 94.965835 
L 167.648354 91.816755 
L 171.835113 88.760384 
L 176.084095 85.798123 
L 180.393317 82.931354 
L 184.761094 80.161437 
L 189.185877 77.489668 
L 193.666037 74.917256 
L 198.199945 72.445412 
L 202.78592 70.075322 
L 207.422295 67.808174 
L 212.107216 65.645081 
L 216.83857 63.587048 
L 221.614246 61.635079 
L 226.432107 59.790147 
L 231.289923 58.053223 
L 236.185345 56.42518 
L 241.115934 54.906766 
L 246.079254 53.498729 
L 251.072861 52.201785 
L 256.094278 51.01664 
L 261.140995 49.943891 
L 266.210477 48.984008 
L 271.300189 48.137461 
L 276.407592 47.404686 
L 281.530138 46.786112 
L 286.665264 46.282048 
L 291.810396 45.89268 
L 296.962962 45.618194 
L 302.120391 45.458762 
L 307.280102 45.414489 
L 312.439514 45.485369 
L 317.59605 45.671357 
L 317.59605 45.671357 
" clip-path="url(#p191080c766)" style="fill: none; stroke-dasharray: 22.4,5.6,3.5,5.6; stroke-dashoffset: 0; stroke: #0000ff; stroke-opacity: 0.8; stroke-width: 3.5"/>
   </g>
   <g id="patch_3">
    <path d="M 52.160938 530.438125 
L 52.160938 22.318125 
" style="fill: none; stroke: #000000; stroke-width: 0.8; stroke-linejoin: miter; stroke-linecap: square"/>
   </g>
   <g id="patch_4">
    <path d="M 561.210937 530.438125 
L 561.210937 22.318125 
" style="fill: none; stroke: #000000; stroke-width: 0.8; stroke-linejoin: miter; stroke-linecap: square"/>
   </g>
   <g id="patch_5">
    <path d="M 52.160937 530.438125 
L 561.210937 530.438125 
" style="fill: none; stroke: #000000; stroke-width: 0.8; stroke-linejoin: miter; stroke-linecap: square"/>
   </g>
   <g id="patch_6">
    <path d="M 52.160937 22.318125 
L 561.210937 22.318125 
" style="fill: none; stroke: #000000; stroke-width: 0.8; stroke-linejoin: miter; stroke-linecap: square"/>
   </g>
   <g id="line2d_19">
    <path d="M 536.633891 250.017856 
L 537.37417 260.306626 
L 537.750403 270.703803 
L 537.741487 281.190523 
L 537.323415 291.742336 
L 536.952708 297.033591 
L 536.469853 302.328684 
L 535.871612 307.622617 
L 535.154994 312.910303 
L 534.316577 318.186234 
L 533.353705 323.444459 
L 532.264626 328.678848 
L 531.047584 333.883268 
L 529.701237 339.051761 
L 528.224057 344.177857 
L 526.615958 349.255576 
L 524.87815 354.279585 
L 523.011844 359.244553 
L 521.018606 364.145489 
L 518.900285 368.97718 
L 516.660072 373.735594 
L 514.302123 378.417749 
L 511.830596 383.02066 
L 509.24975 387.541666 
L 506.564415 391.978248 
L 503.779879 396.329069 
L 500.901579 400.593651 
L 497.934949 404.771516 
L 494.88526 408.86237 
L 488.559123 416.78379 
L 481.963081 424.364553 
L 475.133275 431.614031 
L 468.100574 438.544001 
L 460.886595 445.166804 
L 453.509025 451.494727 
L 445.97572 457.537255 
L 438.289607 463.301289 
L 430.448175 468.790221 
L 422.443082 474.000109 
L 414.263753 478.92376 
L 405.896872 483.543699 
L 397.328854 487.836276 
L 388.546721 491.770247 
L 384.072632 493.589982 
L 379.54222 495.304454 
L 374.954363 496.907698 
L 370.309383 498.393334 
L 365.608494 499.754873 
L 360.852911 500.98583 
L 356.044363 502.080151 
L 351.184422 503.030626 
L 346.276514 503.831565 
L 341.325067 504.478338 
L 336.334507 504.966316 
L 331.309566 505.291733 
L 326.255499 505.450106 
L 321.178624 505.440003 
L 316.085683 505.261688 
L 310.983424 504.915423 
L 305.878447 504.402142 
L 300.778218 503.72328 
L 295.689609 502.88264 
L 290.619057 501.885076 
L 285.572999 500.735438 
L 280.557424 499.43871 
L 275.578793 498.00087 
L 270.641887 496.428187 
L 265.750642 494.726925 
L 260.908997 492.903343 
L 256.120448 490.963449 
L 251.388402 488.913829 
L 246.714712 486.759981 
L 242.10056 484.50686 
L 233.055355 479.722276 
L 224.258391 474.596341 
L 215.707931 469.155422 
L 207.399956 463.421187 
L 199.328491 457.409475 
L 191.487985 451.13024 
L 183.873427 444.591117 
L 176.483834 437.796103 
L 169.320901 430.748184 
L 162.39044 423.449549 
L 155.704317 415.903057 
L 149.277157 408.112016 
L 143.130101 400.082408 
L 137.287 391.821893 
L 131.774923 383.340678 
L 126.622726 374.652603 
L 121.859807 365.773158 
L 119.632919 361.267685 
L 117.513414 356.721831 
L 115.504265 352.138283 
L 113.608754 347.519821 
L 111.829132 342.869526 
L 110.167297 338.190566 
L 108.625147 333.486109 
L 107.204265 328.759336 
L 105.906311 324.013574 
L 104.731878 319.252146 
L 103.681235 314.478359 
L 102.754646 309.695521 
L 101.952162 304.906881 
L 101.273705 300.11581 
L 100.718539 295.325437 
L 100.285741 290.538811 
L 99.97439 285.75898 
L 99.783484 280.988907 
L 99.711845 276.231599 
L 99.758113 271.489761 
L 99.92089 266.766009 
L 100.198774 262.062962 
L 100.590376 257.383167 
L 101.094208 252.72915 
L 101.708867 248.103227 
L 102.432982 243.507658 
L 103.265179 238.944706 
L 105.248453 229.92553 
L 107.648364 221.062915 
L 110.455035 212.373633 
L 113.658787 203.874329 
L 117.249589 195.581562 
L 121.217009 187.511896 
L 125.549733 179.681911 
L 130.234913 172.108027 
L 135.258892 164.806596 
L 140.605901 157.793273 
L 146.259269 151.083242 
L 152.201062 144.690793 
L 158.412434 138.62873 
L 164.874167 132.909106 
L 171.567062 127.541599 
L 178.472193 122.534728 
L 185.571277 117.895103 
L 192.847225 113.627105 
L 200.283576 109.734014 
L 207.865546 106.216583 
L 215.579078 103.074533 
L 223.411158 100.306071 
L 231.34964 97.908085 
L 239.38275 95.876867 
L 247.499008 94.207907 
L 255.686883 92.896538 
L 263.934566 91.938062 
L 272.229554 91.328204 
L 280.558944 91.062978 
L 288.908554 91.139522 
L 297.263592 91.555546 
L 305.608272 92.309749 
L 313.925769 93.401831 
L 322.19875 94.832016 
L 330.408948 96.601243 
L 338.537795 98.710578 
L 346.566349 101.161038 
L 354.475582 103.952947 
L 362.24645 107.086179 
L 369.86035 110.558578 
L 377.298999 114.366877 
L 384.544761 118.505674 
L 391.581032 122.966943 
L 398.39176 127.741191 
L 404.96265 132.815456 
L 411.280259 138.175351 
L 417.332656 143.804208 
L 423.109658 149.683517 
L 428.60202 155.793843 
L 433.802661 162.114746 
L 438.705375 168.625672 
L 443.305364 175.306262 
L 447.598991 182.137083 
L 451.583218 189.099327 
L 455.255824 196.17626 
L 458.61478 203.352141 
L 461.658222 210.612995 
L 464.384109 217.946546 
L 466.790251 225.341454 
L 468.873828 232.78789 
L 470.631707 240.276464 
L 472.060206 247.798264 
L 473.155188 255.344245 
L 473.912261 262.905181 
L 474.326976 270.470596 
L 474.395033 278.02929 
L 474.112645 285.568562 
L 473.477116 293.074011 
L 472.486461 300.530176 
L 471.141158 307.919486 
L 469.442938 315.223585 
L 467.395956 322.422931 
L 465.00697 329.497432 
L 462.284322 336.426751 
L 459.239532 343.191123 
L 455.885317 349.77131 
L 452.23628 356.149342 
L 448.308194 362.309004 
L 444.117414 368.235227 
L 439.680475 373.915731 
L 435.013709 379.339459 
L 430.1328 384.497524 
L 425.052357 389.382943 
L 419.786262 393.989863 
L 414.346653 398.314371 
L 408.744927 402.353244 
L 402.991229 406.104341 
L 397.094742 409.566234 
L 391.064114 412.737877 
L 384.907431 415.618704 
L 378.632705 418.208275 
L 372.248061 420.506306 
L 365.762091 422.512573 
L 359.183778 424.226865 
L 352.523305 425.648982 
L 345.791443 426.778734 
L 339.000135 427.615948 
L 332.162388 428.160522 
L 325.291903 428.412397 
L 318.403511 428.371713 
L 311.512415 428.038714 
L 304.634315 427.413904 
L 297.785019 426.498072 
L 290.980322 425.292227 
L 284.235471 423.797915 
L 277.565373 422.016929 
L 270.984084 419.951624 
L 264.50479 417.604876 
L 258.140035 414.979963 
L 251.901114 412.081039 
L 245.798836 408.912647 
L 239.843146 405.4802 
L 234.043432 401.789889 
L 228.408753 397.848498 
L 222.947859 393.664071 
L 217.669457 389.245189 
L 212.582322 384.601605 
L 207.695395 379.744028 
L 203.017797 374.683889 
L 198.558976 369.433907 
L 194.328507 364.007297 
L 190.336118 358.418214 
L 186.591498 352.681393 
L 183.104258 346.811971 
L 179.883439 340.825471 
L 176.937778 334.737498 
L 174.275045 328.563609 
L 171.902095 322.319134 
L 169.824969 316.019171 
L 168.04798 309.678123 
L 166.574725 303.310077 
L 165.407114 296.928337 
L 164.545847 290.545589 
L 163.99063 284.17402 
L 163.739542 277.824962 
L 163.79006 271.509434 
L 164.138425 265.237835 
L 164.780131 259.020207 
L 165.710089 252.866341 
L 166.922408 246.78576 
L 168.410925 240.787925 
L 170.16897 234.88226 
L 172.189602 229.078237 
L 174.465675 223.385395 
L 176.989785 217.813444 
L 179.754446 212.37217 
L 182.752004 207.071493 
L 185.974719 201.921385 
L 189.414769 196.93184 
L 193.064218 192.112711 
L 196.915083 187.473775 
L 200.959263 183.024433 
L 205.188584 178.773744 
L 209.59479 174.7304 
L 214.169478 170.902301 
L 218.904186 167.297013 
L 223.790266 163.921186 
L 228.81894 160.78085 
L 233.981284 157.881436 
L 239.268093 155.227399 
L 244.670038 152.822822 
L 250.177427 150.670931 
L 255.780316 148.774458 
L 261.468492 147.135693 
L 267.231252 145.756316 
L 273.0577 144.637795 
L 278.936418 143.781149 
L 284.855671 143.187153 
L 290.803406 142.856368 
L 296.767117 142.789012 
L 302.734128 142.985179 
L 308.691431 143.444571 
L 314.625883 144.166627 
L 320.524234 145.150395 
L 320.524234 145.150395 
" clip-path="url(#p191080c766)" style="fill: none; stroke-dasharray: 3.5,5.775; stroke-dashoffset: 0; stroke: #008000; stroke-opacity: 0.8; stroke-width: 3.5"/>
   </g>
   <g id="text_19">
    <!-- Phase Portrait (x0 vs x1) -->
    <g transform="translate(232.994687 16.318125) scale(0.12 -0.12)">
     <defs>
      <path id="DejaVuSans-50" d="M 1259 4147 
L 1259 2394 
L 2053 2394 
Q 2494 2394 2734 2622 
Q 2975 2850 2975 3272 
Q 2975 3691 2734 3919 
Q 2494 4147 2053 4147 
L 1259 4147 
z
M 628 4666 
L 2053 4666 
Q 2838 4666 3239 4311 
Q 3641 3956 3641 3272 
Q 3641 2581 3239 2228 
Q 2838 1875 2053 1875 
L 1259 1875 
L 1259 0 
L 628 0 
L 628 4666 
z
" transform="scale(0.015625)"/>
      <path id="DejaVuSans-68" d="M 3513 2113 
L 3513 0 
L 2938 0 
L 2938 2094 
Q 2938 2591 2744 2837 
Q 2550 3084 2163 3084 
Q 1697 3084 1428 2787 
Q 1159 2491 1159 1978 
L 1159 0 
L 581 0 
L 581 4863 
L 1159 4863 
L 1159 2956 
Q 1366 3272 1645 3428 
Q 1925 3584 2291 3584 
Q 2894 3584 3203 3211 
Q 3513 2838 3513 2113 
z
" transform="scale(0.015625)"/>
      <path id="DejaVuSans-61" d="M 2194 1759 
Q 1497 1759 1228 1600 
Q 959 1441 959 1056 
Q 959 750 1161 570 
Q 1363 391 1709 391 
Q 2188 391 2477 730 
Q 2766 1069 2766 1631 
L 2766 1759 
L 2194 1759 
z
M 3341 1997 
L 3341 0 
L 2766 0 
L 2766 531 
Q 2569 213 2275 61 
Q 1981 -91 1556 -91 
Q 1019 -91 701 211 
Q 384 513 384 1019 
Q 384 1609 779 1909 
Q 1175 2209 1959 2209 
L 2766 2209 
L 2766 2266 
Q 2766 2663 2505 2880 
Q 2244 3097 1772 3097 
Q 1472 3097 1187 3025 
Q 903 2953 641 2809 
L 641 3341 
Q 956 3463 1253 3523 
Q 1550 3584 1831 3584 
Q 2591 3584 2966 3190 
Q 3341 2797 3341 1997 
z
" transform="scale(0.015625)"/>
      <path id="DejaVuSans-73" d="M 2834 3397 
L 2834 2853 
Q 2591 2978 2328 3040 
Q 2066 3103 1784 3103 
Q 1356 3103 1142 2972 
Q 928 2841 928 2578 
Q 928 2378 1081 2264 
Q 1234 2150 1697 2047 
L 1894 2003 
Q 2506 1872 2764 1633 
Q 3022 1394 3022 966 
Q 3022 478 2636 193 
Q 2250 -91 1575 -91 
Q 1294 -91 989 -36 
Q 684 19 347 128 
L 347 722 
Q 666 556 975 473 
Q 1284 391 1588 391 
Q 1994 391 2212 530 
Q 2431 669 2431 922 
Q 2431 1156 2273 1281 
Q 2116 1406 1581 1522 
L 1381 1569 
Q 847 1681 609 1914 
Q 372 2147 372 2553 
Q 372 3047 722 3315 
Q 1072 3584 1716 3584 
Q 2034 3584 2315 3537 
Q 2597 3491 2834 3397 
z
" transform="scale(0.015625)"/>
      <path id="DejaVuSans-65" d="M 3597 1894 
L 3597 1613 
L 953 1613 
Q 991 1019 1311 708 
Q 1631 397 2203 397 
Q 2534 397 2845 478 
Q 3156 559 3463 722 
L 3463 178 
Q 3153 47 2828 -22 
Q 2503 -91 2169 -91 
Q 1331 -91 842 396 
Q 353 884 353 1716 
Q 353 2575 817 3079 
Q 1281 3584 2069 3584 
Q 2775 3584 3186 3129 
Q 3597 2675 3597 1894 
z
M 3022 2063 
Q 3016 2534 2758 2815 
Q 2500 3097 2075 3097 
Q 1594 3097 1305 2825 
Q 1016 2553 972 2059 
L 3022 2063 
z
" transform="scale(0.015625)"/>
      <path id="DejaVuSans-20" transform="scale(0.015625)"/>
      <path id="DejaVuSans-6f" d="M 1959 3097 
Q 1497 3097 1228 2736 
Q 959 2375 959 1747 
Q 959 1119 1226 758 
Q 1494 397 1959 397 
Q 2419 397 2687 759 
Q 2956 1122 2956 1747 
Q 2956 2369 2687 2733 
Q 2419 3097 1959 3097 
z
M 1959 3584 
Q 2709 3584 3137 3096 
Q 3566 2609 3566 1747 
Q 3566 888 3137 398 
Q 2709 -91 1959 -91 
Q 1206 -91 779 398 
Q 353 888 353 1747 
Q 353 2609 779 3096 
Q 1206 3584 1959 3584 
z
" transform="scale(0.015625)"/>
      <path id="DejaVuSans-72" d="M 2631 2963 
Q 2534 3019 2420 3045 
Q 2306 3072 2169 3072 
Q 1681 3072 1420 2755 
Q 1159 2438 1159 1844 
L 1159 0 
L 581 0 
L 581 3500 
L 1159 3500 
L 1159 2956 
Q 1341 3275 1631 3429 
Q 1922 3584 2338 3584 
Q 2397 3584 2469 3576 
Q 2541 3569 2628 3553 
L 2631 2963 
z
" transform="scale(0.015625)"/>
      <path id="DejaVuSans-74" d="M 1172 4494 
L 1172 3500 
L 2356 3500 
L 2356 3053 
L 1172 3053 
L 1172 1153 
Q 1172 725 1289 603 
Q 1406 481 1766 481 
L 2356 481 
L 2356 0 
L 1766 0 
Q 1100 0 847 248 
Q 594 497 594 1153 
L 594 3053 
L 172 3053 
L 172 3500 
L 594 3500 
L 594 4494 
L 1172 4494 
z
" transform="scale(0.015625)"/>
      <path id="DejaVuSans-69" d="M 603 3500 
L 1178 3500 
L 1178 0 
L 603 0 
L 603 3500 
z
M 603 4863 
L 1178 4863 
L 1178 4134 
L 603 4134 
L 603 4863 
z
" transform="scale(0.015625)"/>
      <path id="DejaVuSans-28" d="M 1984 4856 
Q 1566 4138 1362 3434 
Q 1159 2731 1159 2009 
Q 1159 1288 1364 580 
Q 1569 -128 1984 -844 
L 1484 -844 
Q 1016 -109 783 600 
Q 550 1309 550 2009 
Q 550 2706 781 3412 
Q 1013 4119 1484 4856 
L 1984 4856 
z
" transform="scale(0.015625)"/>
      <path id="DejaVuSans-76" d="M 191 3500 
L 800 3500 
L 1894 563 
L 2988 3500 
L 3597 3500 
L 2284 0 
L 1503 0 
L 191 3500 
z
" transform="scale(0.015625)"/>
      <path id="DejaVuSans-29" d="M 513 4856 
L 1013 4856 
Q 1481 4119 1714 3412 
Q 1947 2706 1947 2009 
Q 1947 1309 1714 600 
Q 1481 -109 1013 -844 
L 513 -844 
Q 928 -128 1133 580 
Q 1338 1288 1338 2009 
Q 1338 2731 1133 3434 
Q 928 4138 513 4856 
z
" transform="scale(0.015625)"/>
     </defs>
     <use xlink:href="#DejaVuSans-50"/>
     <use xlink:href="#DejaVuSans-68" transform="translate(60.302734 0)"/>
     <use xlink:href="#DejaVuSans-61" transform="translate(123.681641 0)"/>
     <use xlink:href="#DejaVuSans-73" transform="translate(184.960938 0)"/>
     <use xlink:href="#DejaVuSans-65" transform="translate(237.060547 0)"/>
     <use xlink:href="#DejaVuSans-20" transform="translate(298.583984 0)"/>
     <use xlink:href="#DejaVuSans-50" transform="translate(330.371094 0)"/>
     <use xlink:href="#DejaVuSans-6f" transform="translate(387.048828 0)"/>
     <use xlink:href="#DejaVuSans-72" transform="translate(448.230469 0)"/>
     <use xlink:href="#DejaVuSans-74" transform="translate(489.34375 0)"/>
     <use xlink:href="#DejaVuSans-72" transform="translate(528.552734 0)"/>
     <use xlink:href="#DejaVuSans-61" transform="translate(569.666016 0)"/>
     <use xlink:href="#DejaVuSans-69" transform="translate(630.945312 0)"/>
     <use xlink:href="#DejaVuSans-74" transform="translate(658.728516 0)"/>
     <use xlink:href="#DejaVuSans-20" transform="translate(697.9375 0)"/>
     <use xlink:href="#DejaVuSans-28" transform="translate(729.724609 0)"/>
     <use xlink:href="#DejaVuSans-78" transform="translate(768.738281 0)"/>
     <use xlink:href="#DejaVuSans-30" transform="translate(827.917969 0)"/>
     <use xlink:href="#DejaVuSans-20" transform="translate(891.541016 0)"/>
     <use xlink:href="#DejaVuSans-76" transform="translate(923.328125 0)"/>
     <use xlink:href="#DejaVuSans-73" transform="translate(982.507812 0)"/>
     <use xlink:href="#DejaVuSans-20" transform="translate(1034.607422 0)"/>
     <use xlink:href="#DejaVuSans-78" transform="translate(1066.394531 0)"/>
     <use xlink:href="#DejaVuSans-31" transform="translate(1125.574219 0)"/>
     <use xlink:href="#DejaVuSans-29" transform="translate(1189.197266 0)"/>
    </g>
   </g>
   <g id="line2d_20">
    <path d="M 536.633891 250.017856 
L 537.152423 255.22654 
L 537.554106 260.43424 
L 537.838924 265.638071 
L 538.006989 270.835137 
L 538.058559 276.022563 
L 537.993891 281.19747 
L 537.813282 286.357008 
L 537.517039 291.498282 
L 537.105611 296.618478 
L 536.579571 301.714877 
L 535.939491 306.784758 
L 535.185979 311.825445 
L 534.319657 316.834237 
L 533.341279 321.808581 
L 532.251707 326.74606 
L 531.051801 331.64426 
L 529.742452 336.500813 
L 528.324567 341.313352 
L 526.79917 346.079681 
L 525.167371 350.797748 
L 523.430281 355.4655 
L 521.589038 360.080927 
L 519.644793 364.642036 
L 517.598794 369.146991 
L 515.452364 373.594068 
L 513.206826 377.981542 
L 510.863523 382.307718 
L 508.423811 386.57093 
L 505.889129 390.769617 
L 503.260978 394.902286 
L 500.54086 398.967444 
L 497.730297 402.963611 
L 494.830817 406.889337 
L 491.844025 410.743215 
L 488.771582 414.523867 
L 485.61515 418.229913 
L 482.376411 421.859972 
L 479.057048 425.412685 
L 472.183546 432.280625 
L 465.009127 438.822819 
L 457.548533 445.028316 
L 449.817219 450.886027 
L 441.831024 456.384794 
L 433.606251 461.513383 
L 425.159874 466.260618 
L 416.509138 470.615352 
L 412.112728 472.642163 
L 407.671993 474.566857 
L 403.189232 476.388163 
L 398.666748 478.104761 
L 394.106915 479.715477 
L 389.512146 481.219228 
L 384.884856 482.614933 
L 380.22747 483.901576 
L 375.542429 485.078087 
L 370.832221 486.14363 
L 366.099361 487.097507 
L 361.346363 487.93902 
L 356.575746 488.667557 
L 351.790048 489.282458 
L 346.991828 489.78337 
L 342.18365 490.170104 
L 337.368079 490.442469 
L 332.547673 490.60037 
L 327.725016 490.643684 
L 322.902675 490.572621 
L 318.083204 490.387558 
L 313.269157 490.08887 
L 308.463074 489.677023 
L 303.667517 489.152478 
L 298.884998 488.516006 
L 294.117998 487.768521 
L 284.640457 485.944242 
L 275.254586 483.68777 
L 265.979465 481.009239 
L 256.833819 477.919661 
L 247.83589 474.43108 
L 239.003172 470.556553 
L 230.352846 466.309519 
L 221.901183 461.704031 
L 213.663995 456.75432 
L 205.656468 451.474771 
L 197.892953 445.879755 
L 190.38745 439.983611 
L 183.153022 433.800485 
L 176.202278 427.344408 
L 169.547209 420.629262 
L 163.199013 413.668786 
L 157.168551 406.476663 
L 151.465779 399.066604 
L 146.100215 391.452389 
L 141.080762 383.647961 
L 136.415511 375.667633 
L 132.112205 367.525903 
L 128.177599 359.237931 
L 124.617962 350.819234 
L 121.438864 342.285881 
L 118.644929 333.654651 
L 116.240369 324.942659 
L 114.228233 316.167787 
L 112.611 307.348237 
L 111.390321 298.502635 
L 110.566782 289.649921 
L 110.140494 280.809165 
L 110.110298 271.999449 
L 110.474451 263.239761 
L 111.230336 254.548865 
L 112.374309 245.945015 
L 113.902258 237.44621 
L 115.808906 229.06955 
L 118.088467 220.831669 
L 120.73439 212.748462 
L 123.739281 204.834882 
L 127.095355 197.105445 
L 130.793905 189.573562 
L 134.82583 182.252162 
L 139.181433 175.153476 
L 143.850371 168.288991 
L 148.822002 161.669868 
L 154.084969 155.306557 
L 159.627608 149.209226 
L 165.43778 143.387648 
L 171.502828 137.851193 
L 177.809848 132.609064 
L 184.345341 127.670033 
L 191.095549 123.042678 
L 198.046312 118.735268 
L 205.183038 114.755642 
L 212.490923 111.111436 
L 219.95468 107.809598 
L 227.558829 104.856729 
L 235.287575 102.258806 
L 243.124839 100.020958 
L 251.054395 98.147884 
L 259.059753 96.643002 
L 267.124341 95.50912 
L 275.231459 94.747997 
L 283.364364 94.36015 
L 291.50629 94.345453 
L 299.640542 94.702174 
L 307.750492 95.427874 
L 315.819645 96.518961 
L 323.831743 97.970643 
L 331.770651 99.777523 
L 339.620648 101.932878 
L 347.366217 104.429461 
L 354.992207 107.259198 
L 362.483924 110.413272 
L 369.82691 113.882495 
L 377.007345 117.656984 
L 384.011704 121.726605 
L 390.826962 126.080843 
L 397.440657 130.708877 
L 403.840626 135.599738 
L 410.015444 140.742172 
L 415.954016 146.12482 
L 421.645807 151.736135 
L 427.080891 157.564378 
L 432.249667 163.597699 
L 437.143334 169.823947 
L 441.753443 176.230824 
L 446.072156 182.805748 
L 450.0923 189.535804 
L 453.807063 196.407883 
L 457.210521 203.408375 
L 460.297144 210.523449 
L 463.062098 217.738872 
L 465.501293 225.040023 
L 467.611055 232.412052 
L 469.388709 239.839681 
L 470.832018 247.307471 
L 471.939526 254.799744 
L 472.710576 262.300686 
L 473.144971 269.794417 
L 473.243563 277.265093 
L 473.007647 284.696941 
L 472.439318 292.074363 
L 471.541443 299.382066 
L 470.31734 306.604946 
L 468.7713 313.728479 
L 466.908019 320.738425 
L 464.732908 327.621076 
L 462.25204 334.363308 
L 459.471884 340.952341 
L 456.399715 347.376194 
L 453.043139 353.623223 
L 449.410348 359.682393 
L 445.510058 365.543239 
L 441.351304 371.195635 
L 436.943757 376.630148 
L 432.297344 381.837634 
L 427.422459 386.809449 
L 422.329898 391.537414 
L 417.030712 396.013623 
L 411.536445 400.230766 
L 405.858839 404.181787 
L 400.009994 407.860101 
L 394.002313 411.259597 
L 387.848392 414.374463 
L 381.561175 417.199585 
L 375.153745 419.730161 
L 368.639426 421.962016 
L 362.031716 423.891594 
L 355.344233 425.515756 
L 348.590759 426.832302 
L 341.78513 427.83944 
L 334.941262 428.536208 
L 328.07309 428.922399 
L 321.194557 428.998323 
L 314.319547 428.765361 
L 307.461895 428.225329 
L 300.635326 427.380923 
L 293.853408 426.235561 
L 287.129607 424.793165 
L 280.477093 423.058586 
L 273.908905 421.037042 
L 267.437779 418.73446 
L 261.076162 416.157303 
L 254.836291 413.312407 
L 248.729935 410.207252 
L 242.768663 406.849558 
L 236.963606 403.247518 
L 231.325513 399.409664 
L 225.864851 395.344772 
L 220.591505 391.062039 
L 215.51512 386.570821 
L 210.644805 381.880817 
L 205.989233 377.001975 
L 201.55674 371.94444 
L 197.354998 366.718727 
L 193.391408 361.335494 
L 189.672752 355.805738 
L 186.205329 350.140708 
L 182.995052 344.351858 
L 180.047085 338.451018 
L 177.366292 332.450163 
L 174.956836 326.361589 
L 172.822348 320.197809 
L 170.966025 313.97151 
L 169.390242 307.695628 
L 168.097052 301.38319 
L 167.087739 295.047371 
L 166.363035 288.701398 
L 165.923202 282.358535 
L 165.767662 276.031993 
L 165.895508 269.734944 
L 166.305058 263.480395 
L 166.994102 257.281179 
L 167.959965 251.149967 
L 169.199188 245.099039 
L 170.708007 239.140514 
L 172.481951 233.286062 
L 174.516082 227.547017 
L 176.80505 221.934407 
L 179.342835 216.458686 
L 182.123159 211.130083 
L 185.139145 205.958263 
L 188.383542 200.952509 
L 191.848756 196.121759 
L 195.526655 191.474357 
L 199.408907 187.018421 
L 203.486699 182.761505 
L 207.750935 178.7108 
L 212.192251 174.873156 
L 216.800876 171.254846 
L 221.566888 167.861925 
L 226.48001 164.699872 
L 231.529767 161.773797 
L 236.705487 159.088447 
L 241.99623 156.647944 
L 247.390955 154.456168 
L 252.878404 152.516342 
L 258.447205 150.831272 
L 264.085881 149.403337 
L 269.782837 148.234199 
L 275.526435 147.325236 
L 281.304977 146.677077 
L 287.106755 146.289893 
L 292.920053 146.163374 
L 298.733205 146.296467 
L 304.534579 146.687766 
L 307.427241 146.979608 
L 307.427241 146.979608 
" clip-path="url(#p191080c766)" style="fill: none; stroke-dasharray: 12.95,5.6; stroke-dashoffset: 0; stroke: #ff0000; stroke-opacity: 0.8; stroke-width: 3.5"/>
   </g>
   <g id="legend_1">
    <g id="patch_7">
     <path d="M 234.010937 307.234375 
L 379.360937 307.234375 
Q 381.360937 307.234375 381.360937 305.234375 
L 381.360937 247.521875 
Q 381.360937 245.521875 379.360937 245.521875 
L 234.010937 245.521875 
Q 232.010937 245.521875 232.010937 247.521875 
L 232.010937 305.234375 
Q 232.010937 307.234375 234.010937 307.234375 
z
" style="fill: #ffffff; opacity: 0.8; stroke: #cccccc; stroke-linejoin: miter"/>
    </g>
    <g id="line2d_21">
     <path d="M 236.010937 253.620312 
L 246.010937 253.620312 
L 256.010937 253.620312 
" style="fill: none; stroke: #000000; stroke-opacity: 0.3; stroke-width: 7; stroke-linecap: square"/>
    </g>
    <g id="text_20">
     <!-- True/Underlying model -->
     <g transform="translate(264.010937 257.120312) scale(0.1 -0.1)">
      <defs>
       <path id="DejaVuSans-54" d="M -19 4666 
L 3928 4666 
L 3928 4134 
L 2272 4134 
L 2272 0 
L 1638 0 
L 1638 4134 
L -19 4134 
L -19 4666 
z
" transform="scale(0.015625)"/>
       <path id="DejaVuSans-75" d="M 544 1381 
L 544 3500 
L 1119 3500 
L 1119 1403 
Q 1119 906 1312 657 
Q 1506 409 1894 409 
Q 2359 409 2629 706 
Q 2900 1003 2900 1516 
L 2900 3500 
L 3475 3500 
L 3475 0 
L 2900 0 
L 2900 538 
Q 2691 219 2414 64 
Q 2138 -91 1772 -91 
Q 1169 -91 856 284 
Q 544 659 544 1381 
z
M 1991 3584 
L 1991 3584 
z
" transform="scale(0.015625)"/>
       <path id="DejaVuSans-2f" d="M 1625 4666 
L 2156 4666 
L 531 -594 
L 0 -594 
L 1625 4666 
z
" transform="scale(0.015625)"/>
       <path id="DejaVuSans-55" d="M 556 4666 
L 1191 4666 
L 1191 1831 
Q 1191 1081 1462 751 
Q 1734 422 2344 422 
Q 2950 422 3222 751 
Q 3494 1081 3494 1831 
L 3494 4666 
L 4128 4666 
L 4128 1753 
Q 4128 841 3676 375 
Q 3225 -91 2344 -91 
Q 1459 -91 1007 375 
Q 556 841 556 1753 
L 556 4666 
z
" transform="scale(0.015625)"/>
       <path id="DejaVuSans-6e" d="M 3513 2113 
L 3513 0 
L 2938 0 
L 2938 2094 
Q 2938 2591 2744 2837 
Q 2550 3084 2163 3084 
Q 1697 3084 1428 2787 
Q 1159 2491 1159 1978 
L 1159 0 
L 581 0 
L 581 3500 
L 1159 3500 
L 1159 2956 
Q 1366 3272 1645 3428 
Q 1925 3584 2291 3584 
Q 2894 3584 3203 3211 
Q 3513 2838 3513 2113 
z
" transform="scale(0.015625)"/>
       <path id="DejaVuSans-64" d="M 2906 2969 
L 2906 4863 
L 3481 4863 
L 3481 0 
L 2906 0 
L 2906 525 
Q 2725 213 2448 61 
Q 2172 -91 1784 -91 
Q 1150 -91 751 415 
Q 353 922 353 1747 
Q 353 2572 751 3078 
Q 1150 3584 1784 3584 
Q 2172 3584 2448 3432 
Q 2725 3281 2906 2969 
z
M 947 1747 
Q 947 1113 1208 752 
Q 1469 391 1925 391 
Q 2381 391 2643 752 
Q 2906 1113 2906 1747 
Q 2906 2381 2643 2742 
Q 2381 3103 1925 3103 
Q 1469 3103 1208 2742 
Q 947 2381 947 1747 
z
" transform="scale(0.015625)"/>
       <path id="DejaVuSans-6c" d="M 603 4863 
L 1178 4863 
L 1178 0 
L 603 0 
L 603 4863 
z
" transform="scale(0.015625)"/>
       <path id="DejaVuSans-79" d="M 2059 -325 
Q 1816 -950 1584 -1140 
Q 1353 -1331 966 -1331 
L 506 -1331 
L 506 -850 
L 844 -850 
Q 1081 -850 1212 -737 
Q 1344 -625 1503 -206 
L 1606 56 
L 191 3500 
L 800 3500 
L 1894 763 
L 2988 3500 
L 3597 3500 
L 2059 -325 
z
" transform="scale(0.015625)"/>
       <path id="DejaVuSans-67" d="M 2906 1791 
Q 2906 2416 2648 2759 
Q 2391 3103 1925 3103 
Q 1463 3103 1205 2759 
Q 947 2416 947 1791 
Q 947 1169 1205 825 
Q 1463 481 1925 481 
Q 2391 481 2648 825 
Q 2906 1169 2906 1791 
z
M 3481 434 
Q 3481 -459 3084 -895 
Q 2688 -1331 1869 -1331 
Q 1566 -1331 1297 -1286 
Q 1028 -1241 775 -1147 
L 775 -588 
Q 1028 -725 1275 -790 
Q 1522 -856 1778 -856 
Q 2344 -856 2625 -561 
Q 2906 -266 2906 331 
L 2906 616 
Q 2728 306 2450 153 
Q 2172 0 1784 0 
Q 1141 0 747 490 
Q 353 981 353 1791 
Q 353 2603 747 3093 
Q 1141 3584 1784 3584 
Q 2172 3584 2450 3431 
Q 2728 3278 2906 2969 
L 2906 3500 
L 3481 3500 
L 3481 434 
z
" transform="scale(0.015625)"/>
       <path id="DejaVuSans-6d" d="M 3328 2828 
Q 3544 3216 3844 3400 
Q 4144 3584 4550 3584 
Q 5097 3584 5394 3201 
Q 5691 2819 5691 2113 
L 5691 0 
L 5113 0 
L 5113 2094 
Q 5113 2597 4934 2840 
Q 4756 3084 4391 3084 
Q 3944 3084 3684 2787 
Q 3425 2491 3425 1978 
L 3425 0 
L 2847 0 
L 2847 2094 
Q 2847 2600 2669 2842 
Q 2491 3084 2119 3084 
Q 1678 3084 1418 2786 
Q 1159 2488 1159 1978 
L 1159 0 
L 581 0 
L 581 3500 
L 1159 3500 
L 1159 2956 
Q 1356 3278 1631 3431 
Q 1906 3584 2284 3584 
Q 2666 3584 2933 3390 
Q 3200 3197 3328 2828 
z
" transform="scale(0.015625)"/>
      </defs>
      <use xlink:href="#DejaVuSans-54"/>
      <use xlink:href="#DejaVuSans-72" transform="translate(46.333984 0)"/>
      <use xlink:href="#DejaVuSans-75" transform="translate(87.447266 0)"/>
      <use xlink:href="#DejaVuSans-65" transform="translate(150.826172 0)"/>
      <use xlink:href="#DejaVuSans-2f" transform="translate(212.349609 0)"/>
      <use xlink:href="#DejaVuSans-55" transform="translate(246.041016 0)"/>
      <use xlink:href="#DejaVuSans-6e" transform="translate(319.234375 0)"/>
      <use xlink:href="#DejaVuSans-64" transform="translate(382.613281 0)"/>
      <use xlink:href="#DejaVuSans-65" transform="translate(446.089844 0)"/>
      <use xlink:href="#DejaVuSans-72" transform="translate(507.613281 0)"/>
      <use xlink:href="#DejaVuSans-6c" transform="translate(548.726562 0)"/>
      <use xlink:href="#DejaVuSans-79" transform="translate(576.509766 0)"/>
      <use xlink:href="#DejaVuSans-69" transform="translate(635.689453 0)"/>
      <use xlink:href="#DejaVuSans-6e" transform="translate(663.472656 0)"/>
      <use xlink:href="#DejaVuSans-67" transform="translate(726.851562 0)"/>
      <use xlink:href="#DejaVuSans-20" transform="translate(790.328125 0)"/>
      <use xlink:href="#DejaVuSans-6d" transform="translate(822.115234 0)"/>
      <use xlink:href="#DejaVuSans-6f" transform="translate(919.527344 0)"/>
      <use xlink:href="#DejaVuSans-64" transform="translate(980.708984 0)"/>
      <use xlink:href="#DejaVuSans-65" transform="translate(1044.185547 0)"/>
      <use xlink:href="#DejaVuSans-6c" transform="translate(1105.708984 0)"/>
     </g>
    </g>
    <g id="line2d_22">
     <path d="M 236.010937 268.298437 
L 246.010937 268.298437 
L 256.010937 268.298437 
" style="fill: none; stroke-dasharray: 12.95,5.6; stroke-dashoffset: 0; stroke: #ff0000; stroke-opacity: 0.8; stroke-width: 3.5"/>
    </g>
    <g id="text_21">
     <!-- AutoSINDy -->
     <g transform="translate(264.010937 271.798437) scale(0.1 -0.1)">
      <defs>
       <path id="DejaVuSans-41" d="M 2188 4044 
L 1331 1722 
L 3047 1722 
L 2188 4044 
z
M 1831 4666 
L 2547 4666 
L 4325 0 
L 3669 0 
L 3244 1197 
L 1141 1197 
L 716 0 
L 50 0 
L 1831 4666 
z
" transform="scale(0.015625)"/>
       <path id="DejaVuSans-53" d="M 3425 4513 
L 3425 3897 
Q 3066 4069 2747 4153 
Q 2428 4238 2131 4238 
Q 1616 4238 1336 4038 
Q 1056 3838 1056 3469 
Q 1056 3159 1242 3001 
Q 1428 2844 1947 2747 
L 2328 2669 
Q 3034 2534 3370 2195 
Q 3706 1856 3706 1288 
Q 3706 609 3251 259 
Q 2797 -91 1919 -91 
Q 1588 -91 1214 -16 
Q 841 59 441 206 
L 441 856 
Q 825 641 1194 531 
Q 1563 422 1919 422 
Q 2459 422 2753 634 
Q 3047 847 3047 1241 
Q 3047 1584 2836 1778 
Q 2625 1972 2144 2069 
L 1759 2144 
Q 1053 2284 737 2584 
Q 422 2884 422 3419 
Q 422 4038 858 4394 
Q 1294 4750 2059 4750 
Q 2388 4750 2728 4690 
Q 3069 4631 3425 4513 
z
" transform="scale(0.015625)"/>
       <path id="DejaVuSans-49" d="M 628 4666 
L 1259 4666 
L 1259 0 
L 628 0 
L 628 4666 
z
" transform="scale(0.015625)"/>
       <path id="DejaVuSans-4e" d="M 628 4666 
L 1478 4666 
L 3547 763 
L 3547 4666 
L 4159 4666 
L 4159 0 
L 3309 0 
L 1241 3903 
L 1241 0 
L 628 0 
L 628 4666 
z
" transform="scale(0.015625)"/>
       <path id="DejaVuSans-44" d="M 1259 4147 
L 1259 519 
L 2022 519 
Q 2988 519 3436 956 
Q 3884 1394 3884 2338 
Q 3884 3275 3436 3711 
Q 2988 4147 2022 4147 
L 1259 4147 
z
M 628 4666 
L 1925 4666 
Q 3281 4666 3915 4102 
Q 4550 3538 4550 2338 
Q 4550 1131 3912 565 
Q 3275 0 1925 0 
L 628 0 
L 628 4666 
z
" transform="scale(0.015625)"/>
      </defs>
      <use xlink:href="#DejaVuSans-41"/>
      <use xlink:href="#DejaVuSans-75" transform="translate(68.408203 0)"/>
      <use xlink:href="#DejaVuSans-74" transform="translate(131.787109 0)"/>
      <use xlink:href="#DejaVuSans-6f" transform="translate(170.996094 0)"/>
      <use xlink:href="#DejaVuSans-53" transform="translate(232.177734 0)"/>
      <use xlink:href="#DejaVuSans-49" transform="translate(295.654297 0)"/>
      <use xlink:href="#DejaVuSans-4e" transform="translate(325.146484 0)"/>
      <use xlink:href="#DejaVuSans-44" transform="translate(399.951172 0)"/>
      <use xlink:href="#DejaVuSans-79" transform="translate(476.953125 0)"/>
     </g>
    </g>
    <g id="line2d_23">
     <path d="M 236.010937 282.976562 
L 246.010937 282.976562 
L 256.010937 282.976562 
" style="fill: none; stroke-dasharray: 3.5,5.775; stroke-dashoffset: 0; stroke: #008000; stroke-opacity: 0.8; stroke-width: 3.5"/>
    </g>
    <g id="text_22">
     <!-- Standard SINDy -->
     <g transform="translate(264.010937 286.476562) scale(0.1 -0.1)">
      <use xlink:href="#DejaVuSans-53"/>
      <use xlink:href="#DejaVuSans-74" transform="translate(63.476562 0)"/>
      <use xlink:href="#DejaVuSans-61" transform="translate(102.685547 0)"/>
      <use xlink:href="#DejaVuSans-6e" transform="translate(163.964844 0)"/>
      <use xlink:href="#DejaVuSans-64" transform="translate(227.34375 0)"/>
      <use xlink:href="#DejaVuSans-61" transform="translate(290.820312 0)"/>
      <use xlink:href="#DejaVuSans-72" transform="translate(352.099609 0)"/>
      <use xlink:href="#DejaVuSans-64" transform="translate(391.462891 0)"/>
      <use xlink:href="#DejaVuSans-20" transform="translate(454.939453 0)"/>
      <use xlink:href="#DejaVuSans-53" transform="translate(486.726562 0)"/>
      <use xlink:href="#DejaVuSans-49" transform="translate(550.203125 0)"/>
      <use xlink:href="#DejaVuSans-4e" transform="translate(579.695312 0)"/>
      <use xlink:href="#DejaVuSans-44" transform="translate(654.5 0)"/>
      <use xlink:href="#DejaVuSans-79" transform="translate(731.501953 0)"/>
     </g>
    </g>
    <g id="line2d_24">
     <path d="M 236.010937 297.654687 
L 246.010937 297.654687 
L 256.010937 297.654687 
" style="fill: none; stroke-dasharray: 22.4,5.6,3.5,5.6; stroke-dashoffset: 0; stroke: #0000ff; stroke-opacity: 0.8; stroke-width: 3.5"/>
    </g>
    <g id="text_23">
     <!-- Standard PySR -->
     <g transform="translate(264.010937 301.154687) scale(0.1 -0.1)">
      <defs>
       <path id="DejaVuSans-52" d="M 2841 2188 
Q 3044 2119 3236 1894 
Q 3428 1669 3622 1275 
L 4263 0 
L 3584 0 
L 2988 1197 
Q 2756 1666 2539 1819 
Q 2322 1972 1947 1972 
L 1259 1972 
L 1259 0 
L 628 0 
L 628 4666 
L 2053 4666 
Q 2853 4666 3247 4331 
Q 3641 3997 3641 3322 
Q 3641 2881 3436 2590 
Q 3231 2300 2841 2188 
z
M 1259 4147 
L 1259 2491 
L 2053 2491 
Q 2509 2491 2742 2702 
Q 2975 2913 2975 3322 
Q 2975 3731 2742 3939 
Q 2509 4147 2053 4147 
L 1259 4147 
z
" transform="scale(0.015625)"/>
      </defs>
      <use xlink:href="#DejaVuSans-53"/>
      <use xlink:href="#DejaVuSans-74" transform="translate(63.476562 0)"/>
      <use xlink:href="#DejaVuSans-61" transform="translate(102.685547 0)"/>
      <use xlink:href="#DejaVuSans-6e" transform="translate(163.964844 0)"/>
      <use xlink:href="#DejaVuSans-64" transform="translate(227.34375 0)"/>
      <use xlink:href="#DejaVuSans-61" transform="translate(290.820312 0)"/>
      <use xlink:href="#DejaVuSans-72" transform="translate(352.099609 0)"/>
      <use xlink:href="#DejaVuSans-64" transform="translate(391.462891 0)"/>
      <use xlink:href="#DejaVuSans-20" transform="translate(454.939453 0)"/>
      <use xlink:href="#DejaVuSans-50" transform="translate(486.726562 0)"/>
      <use xlink:href="#DejaVuSans-79" transform="translate(547.029297 0)"/>
      <use xlink:href="#DejaVuSans-53" transform="translate(606.208984 0)"/>
      <use xlink:href="#DejaVuSans-52" transform="translate(669.685547 0)"/>
     </g>
    </g>
   </g>
  </g>
 </g>
 <defs>
  <clipPath id="p191080c766">
   <rect x="52.160938" y="22.318125" width="509.05" height="508.12"/>
  </clipPath>
 </defs>
</svg>
