<?xml version="1.0" encoding="utf-8" standalone="no"?>
<!DOCTYPE svg PUBLIC "-//W3C//DTD SVG 1.1//EN"
  "http://www.w3.org/Graphics/SVG/1.1/DTD/svg11.dtd">
<svg xmlns:xlink="http://www.w3.org/1999/xlink" width="568.410937pt" height="567.994375pt" viewBox="0 0 568.410937 567.994375" xmlns="http://www.w3.org/2000/svg" version="1.1">
 <metadata>
  <rdf:RDF xmlns:dc="http://purl.org/dc/elements/1.1/" xmlns:cc="http://creativecommons.org/ns#" xmlns:rdf="http://www.w3.org/1999/02/22-rdf-syntax-ns#">
   <cc:Work>
    <dc:type rdf:resource="http://purl.org/dc/dcmitype/StillImage"/>
    <dc:date>2026-04-06T11:32:35.699389</dc:date>
    <dc:format>image/svg+xml</dc:format>
    <dc:creator>
     <cc:Agent>
      <dc:title>Matplotlib v3.10.7, https://matplotlib.org/</dc:title>
     </cc:Agent>
    </dc:creator>
   </cc:Work>
  </rdf:RDF>
 </metadata>
 <defs>
  <style type="text/css">*{stroke-linejoin: round; stroke-linecap: butt}</style>
 </defs>
 <g id="figure_1">
  <g id="patch_1">
   <path d="M 0 567.994375 
L 568.410937 567.994375 
L 568.410937 0 
L 0 0 
z
" style="fill: #ffffff"/>
  </g>
  <g id="axes_1">
   <g id="patch_2">
    <path d="M 52.160938 530.438125 
L 561.210937 530.438125 
L 561.210937 22.318125 
L 52.160938 22.318125 
z
" style="fill: #ffffff"/>
   </g>
   <g id="matplotlib.axis_1">
    <g id="xtick_1">
     <g id="line2d_1">
      <defs>
       <path id="ma70ef62ee4" d="M 0 0 
L 0 3.5 
" style="stroke: #000000; stroke-width: 0.8"/>
      </defs>
      <g>
       <use xlink:href="#ma70ef62ee4" x="76.735092" y="530.438125" style="stroke: #000000; stroke-width: 0.8"/>
      </g>
     </g>
     <g id="text_1">
      <!-- −0.8 -->
      <g transform="translate(64.593686 545.036562) scale(0.1 -0.1)">
       <defs>
        <path id="DejaVuSans-2212" d="M 678 2272 
L 4684 2272 
L 4684 1741 
L 678 1741 
L 678 2272 
z
" transform="scale(0.015625)"/>
        <path id="DejaVuSans-30" d="M 2034 4250 
Q 1547 4250 1301 3770 
Q 1056 3291 1056 2328 
Q 1056 1369 1301 889 
Q 1547 409 2034 409 
Q 2525 409 2770 889 
Q 3016 1369 3016 2328 
Q 3016 3291 2770 3770 
Q 2525 4250 2034 4250 
z
M 2034 4750 
Q 2819 4750 3233 4129 
Q 3647 3509 3647 2328 
Q 3647 1150 3233 529 
Q 2819 -91 2034 -91 
Q 1250 -91 836 529 
Q 422 1150 422 2328 
Q 422 3509 836 4129 
Q 1250 4750 2034 4750 
z
" transform="scale(0.015625)"/>
        <path id="DejaVuSans-2e" d="M 684 794 
L 1344 794 
L 1344 0 
L 684 0 
L 684 794 
z
" transform="scale(0.015625)"/>
        <path id="DejaVuSans-38" d="M 2034 2216 
Q 1584 2216 1326 1975 
Q 1069 1734 1069 1313 
Q 1069 891 1326 650 
Q 1584 409 2034 409 
Q 2484 409 2743 651 
Q 3003 894 3003 1313 
Q 3003 1734 2745 1975 
Q 2488 2216 2034 2216 
z
M 1403 2484 
Q 997 2584 770 2862 
Q 544 3141 544 3541 
Q 544 4100 942 4425 
Q 1341 4750 2034 4750 
Q 2731 4750 3128 4425 
Q 3525 4100 3525 3541 
Q 3525 3141 3298 2862 
Q 3072 2584 2669 2484 
Q 3125 2378 3379 2068 
Q 3634 1759 3634 1313 
Q 3634 634 3220 271 
Q 2806 -91 2034 -91 
Q 1263 -91 848 271 
Q 434 634 434 1313 
Q 434 1759 690 2068 
Q 947 2378 1403 2484 
z
M 1172 3481 
Q 1172 3119 1398 2916 
Q 1625 2713 2034 2713 
Q 2441 2713 2670 2916 
Q 2900 3119 2900 3481 
Q 2900 3844 2670 4047 
Q 2441 4250 2034 4250 
Q 1625 4250 1398 4047 
Q 1172 3844 1172 3481 
z
" transform="scale(0.015625)"/>
       </defs>
       <use xlink:href="#DejaVuSans-2212"/>
       <use xlink:href="#DejaVuSans-30" transform="translate(83.789062 0)"/>
       <use xlink:href="#DejaVuSans-2e" transform="translate(147.412109 0)"/>
       <use xlink:href="#DejaVuSans-38" transform="translate(179.199219 0)"/>
      </g>
     </g>
    </g>
    <g id="xtick_2">
     <g id="line2d_2">
      <g>
       <use xlink:href="#ma70ef62ee4" x="134.221698" y="530.438125" style="stroke: #000000; stroke-width: 0.8"/>
      </g>
     </g>
     <g id="text_2">
      <!-- −0.6 -->
      <g transform="translate(122.080292 545.036562) scale(0.1 -0.1)">
       <defs>
        <path id="DejaVuSans-36" d="M 2113 2584 
Q 1688 2584 1439 2293 
Q 1191 2003 1191 1497 
Q 1191 994 1439 701 
Q 1688 409 2113 409 
Q 2538 409 2786 701 
Q 3034 994 3034 1497 
Q 3034 2003 2786 2293 
Q 2538 2584 2113 2584 
z
M 3366 4563 
L 3366 3988 
Q 3128 4100 2886 4159 
Q 2644 4219 2406 4219 
Q 1781 4219 1451 3797 
Q 1122 3375 1075 2522 
Q 1259 2794 1537 2939 
Q 1816 3084 2150 3084 
Q 2853 3084 3261 2657 
Q 3669 2231 3669 1497 
Q 3669 778 3244 343 
Q 2819 -91 2113 -91 
Q 1303 -91 875 529 
Q 447 1150 447 2328 
Q 447 3434 972 4092 
Q 1497 4750 2381 4750 
Q 2619 4750 2861 4703 
Q 3103 4656 3366 4563 
z
" transform="scale(0.015625)"/>
       </defs>
       <use xlink:href="#DejaVuSans-2212"/>
       <use xlink:href="#DejaVuSans-30" transform="translate(83.789062 0)"/>
       <use xlink:href="#DejaVuSans-2e" transform="translate(147.412109 0)"/>
       <use xlink:href="#DejaVuSans-36" transform="translate(179.199219 0)"/>
      </g>
     </g>
    </g>
    <g id="xtick_3">
     <g id="line2d_3">
      <g>
       <use xlink:href="#ma70ef62ee4" x="191.708304" y="530.438125" style="stroke: #000000; stroke-width: 0.8"/>
      </g>
     </g>
     <g id="text_3">
      <!-- −0.4 -->
      <g transform="translate(179.566898 545.036562) scale(0.1 -0.1)">
       <defs>
        <path id="DejaVuSans-34" d="M 2419 4116 
L 825 1625 
L 2419 1625 
L 2419 4116 
z
M 2253 4666 
L 3047 4666 
L 3047 1625 
L 3713 1625 
L 3713 1100 
L 3047 1100 
L 3047 0 
L 2419 0 
L 2419 1100 
L 313 1100 
L 313 1709 
L 2253 4666 
z
" transform="scale(0.015625)"/>
       </defs>
       <use xlink:href="#DejaVuSans-2212"/>
       <use xlink:href="#DejaVuSans-30" transform="translate(83.789062 0)"/>
       <use xlink:href="#DejaVuSans-2e" transform="translate(147.412109 0)"/>
       <use xlink:href="#DejaVuSans-34" transform="translate(179.199219 0)"/>
      </g>
     </g>
    </g>
    <g id="xtick_4">
     <g id="line2d_4">
      <g>
       <use xlink:href="#ma70ef62ee4" x="249.19491" y="530.438125" style="stroke: #000000; stroke-width: 0.8"/>
      </g>
     </g>
     <g id="text_4">
      <!-- −0.2 -->
      <g transform="translate(237.053503 545.036562) scale(0.1 -0.1)">
       <defs>
        <path id="DejaVuSans-32" d="M 1228 531 
L 3431 531 
L 3431 0 
L 469 0 
L 469 531 
Q 828 903 1448 1529 
Q 2069 2156 2228 2338 
Q 2531 2678 2651 2914 
Q 2772 3150 2772 3378 
Q 2772 3750 2511 3984 
Q 2250 4219 1831 4219 
Q 1534 4219 1204 4116 
Q 875 4013 500 3803 
L 500 4441 
Q 881 4594 1212 4672 
Q 1544 4750 1819 4750 
Q 2544 4750 2975 4387 
Q 3406 4025 3406 3419 
Q 3406 3131 3298 2873 
Q 3191 2616 2906 2266 
Q 2828 2175 2409 1742 
Q 1991 1309 1228 531 
z
" transform="scale(0.015625)"/>
       </defs>
       <use xlink:href="#DejaVuSans-2212"/>
       <use xlink:href="#DejaVuSans-30" transform="translate(83.789062 0)"/>
       <use xlink:href="#DejaVuSans-2e" transform="translate(147.412109 0)"/>
       <use xlink:href="#DejaVuSans-32" transform="translate(179.199219 0)"/>
      </g>
     </g>
    </g>
    <g id="xtick_5">
     <g id="line2d_5">
      <g>
       <use xlink:href="#ma70ef62ee4" x="306.681516" y="530.438125" style="stroke: #000000; stroke-width: 0.8"/>
      </g>
     </g>
     <g id="text_5">
      <!-- 0.0 -->
      <g transform="translate(298.729953 545.036562) scale(0.1 -0.1)">
       <use xlink:href="#DejaVuSans-30"/>
       <use xlink:href="#DejaVuSans-2e" transform="translate(63.623047 0)"/>
       <use xlink:href="#DejaVuSans-30" transform="translate(95.410156 0)"/>
      </g>
     </g>
    </g>
    <g id="xtick_6">
     <g id="line2d_6">
      <g>
       <use xlink:href="#ma70ef62ee4" x="364.168121" y="530.438125" style="stroke: #000000; stroke-width: 0.8"/>
      </g>
     </g>
     <g id="text_6">
      <!-- 0.2 -->
      <g transform="translate(356.216559 545.036562) scale(0.1 -0.1)">
       <use xlink:href="#DejaVuSans-30"/>
       <use xlink:href="#DejaVuSans-2e" transform="translate(63.623047 0)"/>
       <use xlink:href="#DejaVuSans-32" transform="translate(95.410156 0)"/>
      </g>
     </g>
    </g>
    <g id="xtick_7">
     <g id="line2d_7">
      <g>
       <use xlink:href="#ma70ef62ee4" x="421.654727" y="530.438125" style="stroke: #000000; stroke-width: 0.8"/>
      </g>
     </g>
     <g id="text_7">
      <!-- 0.4 -->
      <g transform="translate(413.703165 545.036562) scale(0.1 -0.1)">
       <use xlink:href="#DejaVuSans-30"/>
       <use xlink:href="#DejaVuSans-2e" transform="translate(63.623047 0)"/>
       <use xlink:href="#DejaVuSans-34" transform="translate(95.410156 0)"/>
      </g>
     </g>
    </g>
    <g id="xtick_8">
     <g id="line2d_8">
      <g>
       <use xlink:href="#ma70ef62ee4" x="479.141333" y="530.438125" style="stroke: #000000; stroke-width: 0.8"/>
      </g>
     </g>
     <g id="text_8">
      <!-- 0.6 -->
      <g transform="translate(471.189771 545.036562) scale(0.1 -0.1)">
       <use xlink:href="#DejaVuSans-30"/>
       <use xlink:href="#DejaVuSans-2e" transform="translate(63.623047 0)"/>
       <use xlink:href="#DejaVuSans-36" transform="translate(95.410156 0)"/>
      </g>
     </g>
    </g>
    <g id="xtick_9">
     <g id="line2d_9">
      <g>
       <use xlink:href="#ma70ef62ee4" x="536.627939" y="530.438125" style="stroke: #000000; stroke-width: 0.8"/>
      </g>
     </g>
     <g id="text_9">
      <!-- 0.8 -->
      <g transform="translate(528.676376 545.036562) scale(0.1 -0.1)">
       <use xlink:href="#DejaVuSans-30"/>
       <use xlink:href="#DejaVuSans-2e" transform="translate(63.623047 0)"/>
       <use xlink:href="#DejaVuSans-38" transform="translate(95.410156 0)"/>
      </g>
     </g>
    </g>
    <g id="text_10">
     <!-- x0 -->
     <g transform="translate(300.545312 558.714687) scale(0.1 -0.1)">
      <defs>
       <path id="DejaVuSans-78" d="M 3513 3500 
L 2247 1797 
L 3578 0 
L 2900 0 
L 1881 1375 
L 863 0 
L 184 0 
L 1544 1831 
L 300 3500 
L 978 3500 
L 1906 2253 
L 2834 3500 
L 3513 3500 
z
" transform="scale(0.015625)"/>
      </defs>
      <use xlink:href="#DejaVuSans-78"/>
      <use xlink:href="#DejaVuSans-30" transform="translate(59.179688 0)"/>
     </g>
    </g>
   </g>
   <g id="matplotlib.axis_2">
    <g id="ytick_1">
     <g id="line2d_10">
      <defs>
       <path id="m8829d89a52" d="M 0 0 
L -3.5 0 
" style="stroke: #000000; stroke-width: 0.8"/>
      </defs>
      <g>
       <use xlink:href="#m8829d89a52" x="52.160938" y="468.931994" style="stroke: #000000; stroke-width: 0.8"/>
      </g>
     </g>
     <g id="text_11">
      <!-- −1.5 -->
      <g transform="translate(20.878125 472.731213) scale(0.1 -0.1)">
       <defs>
        <path id="DejaVuSans-31" d="M 794 531 
L 1825 531 
L 1825 4091 
L 703 3866 
L 703 4441 
L 1819 4666 
L 2450 4666 
L 2450 531 
L 3481 531 
L 3481 0 
L 794 0 
L 794 531 
z
" transform="scale(0.015625)"/>
        <path id="DejaVuSans-35" d="M 691 4666 
L 3169 4666 
L 3169 4134 
L 1269 4134 
L 1269 2991 
Q 1406 3038 1543 3061 
Q 1681 3084 1819 3084 
Q 2600 3084 3056 2656 
Q 3513 2228 3513 1497 
Q 3513 744 3044 326 
Q 2575 -91 1722 -91 
Q 1428 -91 1123 -41 
Q 819 9 494 109 
L 494 744 
Q 775 591 1075 516 
Q 1375 441 1709 441 
Q 2250 441 2565 725 
Q 2881 1009 2881 1497 
Q 2881 1984 2565 2268 
Q 2250 2553 1709 2553 
Q 1456 2553 1204 2497 
Q 953 2441 691 2322 
L 691 4666 
z
" transform="scale(0.015625)"/>
       </defs>
       <use xlink:href="#DejaVuSans-2212"/>
       <use xlink:href="#DejaVuSans-31" transform="translate(83.789062 0)"/>
       <use xlink:href="#DejaVuSans-2e" transform="translate(147.412109 0)"/>
       <use xlink:href="#DejaVuSans-35" transform="translate(179.199219 0)"/>
      </g>
     </g>
    </g>
    <g id="ytick_2">
     <g id="line2d_11">
      <g>
       <use xlink:href="#m8829d89a52" x="52.160938" y="404.747702" style="stroke: #000000; stroke-width: 0.8"/>
      </g>
     </g>
     <g id="text_12">
      <!-- −1.0 -->
      <g transform="translate(20.878125 408.546921) scale(0.1 -0.1)">
       <use xlink:href="#DejaVuSans-2212"/>
       <use xlink:href="#DejaVuSans-31" transform="translate(83.789062 0)"/>
       <use xlink:href="#DejaVuSans-2e" transform="translate(147.412109 0)"/>
       <use xlink:href="#DejaVuSans-30" transform="translate(179.199219 0)"/>
      </g>
     </g>
    </g>
    <g id="ytick_3">
     <g id="line2d_12">
      <g>
       <use xlink:href="#m8829d89a52" x="52.160938" y="340.563411" style="stroke: #000000; stroke-width: 0.8"/>
      </g>
     </g>
     <g id="text_13">
      <!-- −0.5 -->
      <g transform="translate(20.878125 344.362629) scale(0.1 -0.1)">
       <use xlink:href="#DejaVuSans-2212"/>
       <use xlink:href="#DejaVuSans-30" transform="translate(83.789062 0)"/>
       <use xlink:href="#DejaVuSans-2e" transform="translate(147.412109 0)"/>
       <use xlink:href="#DejaVuSans-35" transform="translate(179.199219 0)"/>
      </g>
     </g>
    </g>
    <g id="ytick_4">
     <g id="line2d_13">
      <g>
       <use xlink:href="#m8829d89a52" x="52.160938" y="276.379119" style="stroke: #000000; stroke-width: 0.8"/>
      </g>
     </g>
     <g id="text_14">
      <!-- 0.0 -->
      <g transform="translate(29.257812 280.178338) scale(0.1 -0.1)">
       <use xlink:href="#DejaVuSans-30"/>
       <use xlink:href="#DejaVuSans-2e" transform="translate(63.623047 0)"/>
       <use xlink:href="#DejaVuSans-30" transform="translate(95.410156 0)"/>
      </g>
     </g>
    </g>
    <g id="ytick_5">
     <g id="line2d_14">
      <g>
       <use xlink:href="#m8829d89a52" x="52.160938" y="212.194827" style="stroke: #000000; stroke-width: 0.8"/>
      </g>
     </g>
     <g id="text_15">
      <!-- 0.5 -->
      <g transform="translate(29.257812 215.994046) scale(0.1 -0.1)">
       <use xlink:href="#DejaVuSans-30"/>
       <use xlink:href="#DejaVuSans-2e" transform="translate(63.623047 0)"/>
       <use xlink:href="#DejaVuSans-35" transform="translate(95.410156 0)"/>
      </g>
     </g>
    </g>
    <g id="ytick_6">
     <g id="line2d_15">
      <g>
       <use xlink:href="#m8829d89a52" x="52.160938" y="148.010536" style="stroke: #000000; stroke-width: 0.8"/>
      </g>
     </g>
     <g id="text_16">
      <!-- 1.0 -->
      <g transform="translate(29.257812 151.809754) scale(0.1 -0.1)">
       <use xlink:href="#DejaVuSans-31"/>
       <use xlink:href="#DejaVuSans-2e" transform="translate(63.623047 0)"/>
       <use xlink:href="#DejaVuSans-30" transform="translate(95.410156 0)"/>
      </g>
     </g>
    </g>
    <g id="ytick_7">
     <g id="line2d_16">
      <g>
       <use xlink:href="#m8829d89a52" x="52.160938" y="83.826244" style="stroke: #000000; stroke-width: 0.8"/>
      </g>
     </g>
     <g id="text_17">
      <!-- 1.5 -->
      <g transform="translate(29.257812 87.625463) scale(0.1 -0.1)">
       <use xlink:href="#DejaVuSans-31"/>
       <use xlink:href="#DejaVuSans-2e" transform="translate(63.623047 0)"/>
       <use xlink:href="#DejaVuSans-35" transform="translate(95.410156 0)"/>
      </g>
     </g>
    </g>
    <g id="text_18">
     <!-- x1 -->
     <g transform="translate(14.798438 282.51875) rotate(-90) scale(0.1 -0.1)">
      <use xlink:href="#DejaVuSans-78"/>
      <use xlink:href="#DejaVuSans-31" transform="translate(59.179688 0)"/>
     </g>
    </g>
   </g>
   <g id="line2d_17">
    <path d="M 536.627939 250.705402 
L 537.145726 255.896687 
L 537.547022 261.089149 
L 537.831831 266.280221 
L 538.000212 271.467328 
L 538.052282 276.647894 
L 537.98822 281.819344 
L 537.808358 286.979471 
L 537.513029 292.125781 
L 537.102556 297.255518 
L 536.577319 302.365954 
L 535.937759 307.45439 
L 535.184373 312.518155 
L 534.317717 317.554604 
L 533.338405 322.561125 
L 532.24711 327.53513 
L 531.044561 332.47406 
L 529.731548 337.375386 
L 528.308919 342.236606 
L 526.777577 347.055245 
L 525.138486 351.82886 
L 523.392669 356.555031 
L 521.541205 361.23137 
L 519.585233 365.855517 
L 517.525948 370.425139 
L 515.364605 374.937932 
L 513.102517 379.391618 
L 510.741056 383.783951 
L 508.28165 388.112711 
L 505.725786 392.375706 
L 503.075012 396.570773 
L 500.33093 400.695777 
L 497.495203 404.748612 
L 494.569551 408.727198 
L 491.555752 412.629485 
L 488.455631 416.453478 
L 485.270536 420.198182 
L 482.002141 423.862027 
L 478.652427 427.442966 
L 475.223391 430.939023 
L 471.717051 434.3483 
L 468.135443 437.668973 
L 464.480625 440.899292 
L 460.75467 444.037585 
L 456.959673 447.082251 
L 453.097749 450.031765 
L 449.171029 452.88468 
L 445.181666 455.639619 
L 441.131831 458.295285 
L 437.023713 460.850451 
L 432.859524 463.303968 
L 428.641491 465.654762 
L 424.371863 467.901832 
L 420.052906 470.044254 
L 415.686907 472.081177 
L 411.276171 474.011827 
L 406.823024 475.835503 
L 402.329809 477.551581 
L 397.798888 479.159509 
L 393.232646 480.658812 
L 388.633482 482.04909 
L 384.003818 483.330018 
L 379.346094 484.501344 
L 374.662768 485.562893 
L 369.95632 486.514564 
L 365.229245 487.356331 
L 355.723306 488.710426 
L 346.165313 489.626469 
L 336.575938 490.10695 
L 326.976159 490.155558 
L 317.387261 489.777181 
L 307.825911 488.976249 
L 298.306027 487.755872 
L 288.848008 486.121262 
L 279.471725 484.078286 
L 270.196464 481.633443 
L 261.040918 478.793868 
L 252.023189 475.567331 
L 243.160791 471.962239 
L 234.470647 467.98763 
L 225.969089 463.653181 
L 217.67186 458.969202 
L 209.594112 453.946637 
L 201.750408 448.597068 
L 194.15472 442.93271 
L 186.820428 436.966414 
L 179.760326 430.711664 
L 172.986614 424.182582 
L 166.510904 417.393922 
L 160.344217 410.361076 
L 154.496984 403.100069 
L 148.979046 395.627561 
L 143.799452 387.960343 
L 138.963973 380.107362 
L 134.480945 372.082401 
L 130.359155 363.902232 
L 126.606459 355.583665 
L 123.229785 347.143551 
L 120.235132 338.59878 
L 117.627573 329.966282 
L 115.411249 321.26303 
L 113.589375 312.506032 
L 112.164237 303.71234 
L 111.137193 294.899045 
L 110.508671 286.083277 
L 110.278172 277.282207 
L 110.444268 268.513045 
L 111.004602 259.793043 
L 111.95589 251.13949 
L 113.293918 242.569719 
L 115.013545 234.101098 
L 117.1087 225.75104 
L 119.572385 217.536994 
L 122.396682 209.476437 
L 125.576139 201.58216 
L 129.104905 193.868248 
L 132.974284 186.352054 
L 137.175035 179.05008 
L 141.697369 171.977982 
L 146.530951 165.150566 
L 151.664896 158.58179 
L 157.087777 152.284764 
L 162.787616 146.271748 
L 168.751889 140.554154 
L 174.967525 135.142548 
L 181.420908 130.046643 
L 188.097872 125.275308 
L 194.983706 120.83656 
L 202.063151 116.737569 
L 209.320402 112.984656 
L 216.739105 109.583295 
L 224.302361 106.53811 
L 231.992724 103.852876 
L 239.7922 101.530522 
L 247.68448 99.572879 
L 255.658752 97.980806 
L 263.697725 96.755698 
L 271.783762 95.89828 
L 279.899521 95.408516 
L 288.027953 95.285602 
L 296.152301 95.527977 
L 304.256105 96.133313 
L 312.323195 97.09852 
L 320.337696 98.419746 
L 328.284026 100.092373 
L 336.146896 102.111024 
L 343.911313 104.469556 
L 351.562574 107.161065 
L 359.086272 110.177882 
L 366.468291 113.511576 
L 373.694812 117.152953 
L 380.752307 121.092057 
L 387.627541 125.318166 
L 394.307574 129.819798 
L 400.779759 134.584706 
L 407.031742 139.599882 
L 413.053868 144.855639 
L 418.838074 150.345777 
L 424.37288 156.058348 
L 429.647493 161.98111 
L 434.651859 168.10161 
L 439.376664 174.40719 
L 443.813335 180.88498 
L 447.954039 187.521904 
L 451.791685 194.304676 
L 455.31992 201.219801 
L 458.533135 208.253578 
L 461.426457 215.392094 
L 463.995758 222.62123 
L 466.237648 229.926657 
L 468.149477 237.293837 
L 469.729337 244.708025 
L 470.976059 252.154267 
L 471.889217 259.617399 
L 472.469122 267.082049 
L 472.716829 274.532638 
L 472.63378 281.955926 
L 472.220927 289.34094 
L 471.479915 296.671335 
L 470.41306 303.931059 
L 469.023341 311.10454 
L 467.314392 318.176689 
L 465.290511 325.132895 
L 462.956652 331.959029 
L 460.31843 338.641444 
L 457.382119 345.166972 
L 454.154652 351.522927 
L 450.643622 357.697103 
L 446.857282 363.677777 
L 442.804543 369.453703 
L 438.494976 375.01412 
L 433.938812 380.348744 
L 429.146941 385.447776 
L 424.130911 390.301894 
L 418.902933 394.902259 
L 413.475873 399.240511 
L 407.86326 403.308775 
L 402.079197 407.099687 
L 396.13254 410.60871 
L 390.033881 413.830673 
L 383.797112 416.759617 
L 377.436104 419.390345 
L 370.964701 421.718424 
L 364.39672 423.740188 
L 357.745957 425.452732 
L 351.026179 426.853918 
L 344.25113 427.942371 
L 337.434529 428.717481 
L 330.59007 429.179403 
L 323.73142 429.329055 
L 316.872225 429.168119 
L 310.026101 428.699044 
L 303.206642 427.925041 
L 296.427416 426.850086 
L 289.701968 425.47892 
L 283.043814 423.817047 
L 276.466448 421.870737 
L 269.983338 419.647024 
L 263.607927 417.153705 
L 257.350278 414.396489 
L 251.219301 411.379562 
L 245.227698 408.11034 
L 239.387631 404.596583 
L 233.710707 400.846381 
L 228.207977 396.868157 
L 222.889935 392.670666 
L 217.766522 388.262994 
L 212.847122 383.654559 
L 208.140563 378.85511 
L 203.655117 373.874729 
L 199.398502 368.723829 
L 195.377879 363.413154 
L 191.599853 357.953781 
L 188.070476 352.357118 
L 184.795241 346.634906 
L 181.779087 340.799214 
L 179.026397 334.862447 
L 176.540999 328.83734 
L 174.326165 322.736959 
L 172.384577 316.57451 
L 170.717833 310.358431 
L 169.328364 304.100171 
L 168.218521 297.813368 
L 167.390014 291.511445 
L 166.843913 285.207609 
L 166.580645 278.914853 
L 166.6 272.645953 
L 166.901127 266.413469 
L 167.482532 260.229747 
L 168.342083 254.106917 
L 169.477007 248.056893 
L 170.883891 242.091373 
L 172.558681 236.221841 
L 174.496681 230.459565 
L 176.692558 224.815597 
L 179.140337 219.300774 
L 181.833401 213.925716 
L 184.764494 208.70083 
L 187.925721 203.636305 
L 191.308543 198.742117 
L 194.903784 194.028024 
L 198.702243 189.503123 
L 202.698928 185.173163 
L 206.885347 181.046394 
L 211.251794 177.131233 
L 215.788386 173.43545 
L 220.485068 169.966164 
L 225.331608 166.729844 
L 230.317597 163.732314 
L 235.432453 160.978745 
L 240.665418 158.473659 
L 246.005558 156.220932 
L 251.441766 154.223787 
L 256.962755 152.4848 
L 262.557069 151.005898 
L 268.213071 149.788358 
L 273.918951 148.832808 
L 279.662725 148.139227 
L 285.432231 147.706945 
L 291.215134 147.534643 
L 296.998922 147.620352 
L 302.770954 147.961499 
L 308.520921 148.557231 
L 308.520921 148.557231 
" clip-path="url(#p36f40eac5c)" style="fill: none; stroke: #000000; stroke-opacity: 0.3; stroke-width: 7; stroke-linecap: square"/>
   </g>
   <g id="line2d_18">
    <path d="M 536.627939 250.705402 
L 537.146342 255.843232 
L 537.549383 260.991344 
L 537.836796 266.147161 
L 538.008431 271.308101 
L 538.064267 276.471579 
L 538.004286 281.635011 
L 537.828503 286.795815 
L 537.536942 291.951401 
L 537.129754 297.099185 
L 536.607208 302.236596 
L 535.969574 307.361065 
L 535.217156 312.470027 
L 534.350267 317.56091 
L 533.369348 322.631166 
L 532.274954 327.678268 
L 531.067639 332.699692 
L 529.747995 337.692926 
L 528.316618 342.655446 
L 526.774234 347.58477 
L 525.121677 352.47845 
L 523.35978 357.334037 
L 521.489412 362.149102 
L 519.511446 366.921204 
L 517.426885 371.647955 
L 515.23683 376.327017 
L 512.942383 380.95605 
L 510.544679 385.532734 
L 508.044859 390.054742 
L 505.444188 394.519814 
L 502.744021 398.925747 
L 499.945715 403.270339 
L 497.050659 407.551412 
L 494.060245 411.766779 
L 490.975985 415.914336 
L 487.799472 419.992045 
L 484.532301 423.997868 
L 481.176096 427.929795 
L 477.732485 431.785808 
L 474.203207 435.563985 
L 470.590077 439.262479 
L 466.894908 442.879441 
L 463.119549 446.413055 
L 459.26584 449.861496 
L 455.335735 453.22305 
L 451.33127 456.496084 
L 447.25448 459.678962 
L 443.107445 462.77009 
L 438.89221 465.767856 
L 434.610986 468.670779 
L 430.266095 471.477468 
L 425.859861 474.18653 
L 421.394677 476.796619 
L 416.872892 479.306364 
L 412.297105 481.714555 
L 407.670079 484.02008 
L 402.994575 486.22183 
L 398.273404 488.318748 
L 393.509453 490.309753 
L 388.705796 492.193954 
L 383.865586 493.970573 
L 378.991978 495.63883 
L 374.088054 497.198 
L 369.15717 498.647356 
L 364.202424 499.986364 
L 359.226712 501.214589 
L 354.232932 502.331597 
L 349.223797 503.33699 
L 344.202192 504.230404 
L 339.170319 505.011612 
L 334.129998 505.680444 
L 329.083045 506.236733 
L 324.031174 506.680333 
L 318.975849 507.011123 
L 313.918171 507.229053 
L 308.859105 507.334102 
L 303.799616 507.326251 
L 298.740778 507.205504 
L 293.683268 506.97184 
L 288.628208 506.625315 
L 283.576991 506.166032 
L 278.531013 505.59409 
L 273.49186 504.909636 
L 268.46107 504.112756 
L 263.44088 503.203689 
L 258.433849 502.182758 
L 253.44254 501.050284 
L 248.469586 499.806646 
L 243.517877 498.452184 
L 238.59052 496.987448 
L 233.690682 495.413086 
L 228.82153 493.729746 
L 223.986176 491.938133 
L 219.187915 490.038946 
L 214.429805 488.033089 
L 209.714786 485.921555 
L 205.045798 483.705336 
L 200.4257 481.385475 
L 195.857363 478.963018 
L 191.343372 476.439187 
L 186.886199 473.815276 
L 182.48831 471.092577 
L 178.152118 468.272427 
L 173.880009 465.356164 
L 169.674182 462.345276 
L 165.536764 459.241311 
L 161.469886 456.045816 
L 157.475631 452.760379 
L 153.556087 449.386584 
L 149.713202 445.926151 
L 145.948869 442.380852 
L 142.264983 438.752457 
L 138.663397 435.042775 
L 135.145982 431.253609 
L 131.714469 427.386885 
L 128.370535 423.444575 
L 125.115858 419.428647 
L 121.952071 415.341105 
L 118.880829 411.183949 
L 115.903636 406.959286 
L 113.021937 402.669261 
L 110.237178 398.316019 
L 107.550759 393.90173 
L 104.9641 389.428568 
L 102.478458 384.898795 
L 100.09503 380.314702 
L 97.815014 375.678582 
L 95.639556 370.992748 
L 93.569826 366.259517 
L 91.606818 361.481278 
L 89.751465 356.660441 
L 88.004702 351.799417 
L 86.367409 346.900633 
L 84.84049 341.966522 
L 83.424663 336.999567 
L 82.120587 332.00227 
L 80.928921 326.977129 
L 79.850267 321.926654 
L 78.885253 316.853362 
L 78.034311 311.759805 
L 77.297819 306.648537 
L 76.676151 301.522118 
L 76.169625 296.383107 
L 75.778583 291.234077 
L 75.503168 286.07761 
L 75.343469 280.916289 
L 75.299574 275.752696 
L 75.37151 270.589413 
L 75.559329 265.429033 
L 75.862886 260.274138 
L 76.281977 255.127304 
L 76.816403 249.991108 
L 77.465901 244.868118 
L 78.230234 239.760918 
L 79.108965 234.672056 
L 80.101606 229.60407 
L 81.20767 224.559499 
L 82.426609 219.540866 
L 83.757897 214.55071 
L 85.200814 209.591517 
L 86.754593 204.665753 
L 88.418464 199.775889 
L 90.1916 194.924369 
L 92.073196 190.11366 
L 94.062256 185.346149 
L 96.157742 180.624205 
L 98.358613 175.950194 
L 100.663774 171.326455 
L 103.072149 166.75535 
L 105.582479 162.239139 
L 108.193468 157.780061 
L 110.903818 153.380352 
L 113.712178 149.042214 
L 116.617214 144.767873 
L 119.617423 140.559438 
L 122.711265 136.418985 
L 125.897201 132.348596 
L 129.173641 128.350306 
L 132.539012 124.426181 
L 135.99158 120.578146 
L 139.529583 116.808096 
L 143.151258 113.117926 
L 146.85479 109.509482 
L 150.638389 105.984643 
L 154.500107 102.545126 
L 158.437963 99.192619 
L 162.449976 95.928808 
L 166.534105 92.755325 
L 170.688362 89.673837 
L 174.910546 86.685831 
L 179.198412 83.792759 
L 183.549719 80.996074 
L 187.962126 78.297161 
L 192.433385 75.697457 
L 196.96091 73.19818 
L 201.542055 70.800512 
L 206.174172 68.505635 
L 210.854514 66.314651 
L 215.580322 64.228719 
L 220.348551 62.248742 
L 225.156104 60.375581 
L 229.999887 58.610096 
L 234.876831 56.953066 
L 239.783585 55.4053 
L 244.717057 53.967352 
L 249.674202 52.639733 
L 254.651977 51.422956 
L 259.647569 50.317466 
L 264.657832 49.323693 
L 269.680519 48.441884 
L 274.713523 47.672258 
L 279.754736 47.015034 
L 284.802293 46.470392 
L 289.854429 46.038483 
L 294.909989 45.719368 
L 299.967905 45.513092 
L 305.027106 45.419705 
L 310.086484 45.43922 
L 315.145399 45.571678 
L 320.202739 45.817024 
L 325.257327 46.175193 
L 330.307981 46.646116 
L 335.353247 47.229673 
L 340.391903 47.925821 
L 345.421775 48.73433 
L 350.440567 49.65494 
L 355.445983 50.687394 
L 360.435528 51.831355 
L 365.406518 53.086556 
L 370.355886 54.452465 
L 375.280519 55.928516 
L 380.177307 57.514145 
L 385.043157 59.208696 
L 389.874736 61.011552 
L 394.668972 62.921827 
L 399.422826 64.938609 
L 404.133259 67.060984 
L 408.797352 69.287957 
L 413.412112 71.618549 
L 417.974925 74.051558 
L 422.483217 76.585757 
L 426.934415 79.219918 
L 431.326047 81.952746 
L 435.655643 84.78296 
L 439.920985 87.709086 
L 444.119877 90.729636 
L 448.250124 93.843117 
L 452.3096 97.047976 
L 456.296168 100.342679 
L 460.207865 103.725521 
L 464.042747 107.19478 
L 467.798867 110.748736 
L 471.474342 114.385611 
L 475.067253 118.103646 
L 478.575857 121.900928 
L 481.998425 125.775531 
L 485.333225 129.72553 
L 488.578593 133.748949 
L 491.732825 137.843826 
L 494.794403 142.008066 
L 497.761824 146.239562 
L 500.633586 150.53621 
L 503.408255 154.895861 
L 506.084357 159.316374 
L 508.66062 163.795499 
L 511.135787 168.330975 
L 513.508597 172.920543 
L 515.777869 177.561908 
L 517.942378 182.252779 
L 520.001111 186.990778 
L 521.95307 191.773518 
L 523.797259 196.598614 
L 525.532757 201.463653 
L 527.158605 206.366224 
L 528.674063 211.303848 
L 530.078407 216.274044 
L 531.370911 221.274331 
L 532.550933 226.302209 
L 533.617789 231.355172 
L 534.571022 236.430678 
L 535.410189 241.526179 
L 536.134846 246.639128 
L 536.744637 251.76697 
L 537.23916 256.90714 
L 537.618247 262.057058 
L 537.881744 267.214145 
L 538.029493 272.37582 
L 538.061426 277.539504 
L 537.977432 282.702603 
L 537.777634 287.862535 
L 537.462165 293.016719 
L 537.031158 298.162573 
L 536.484834 303.297527 
L 535.823373 308.418991 
L 535.047188 313.524412 
L 534.156698 318.611241 
L 533.152325 323.676927 
L 532.034577 328.718939 
L 530.803921 333.734724 
L 529.461054 338.721792 
L 528.006679 343.677655 
L 526.4415 348.599826 
L 524.766303 353.485846 
L 522.981842 358.333231 
L 521.089086 363.139583 
L 519.089013 367.902508 
L 516.982599 372.619613 
L 514.770903 377.288543 
L 512.454951 381.90691 
L 510.035975 386.472444 
L 507.515214 390.982871 
L 504.893906 395.435923 
L 502.173368 399.829377 
L 499.354885 404.160976 
L 496.439938 408.428599 
L 493.430012 412.630127 
L 490.326589 416.763441 
L 487.131229 420.82648 
L 483.845461 424.817144 
L 480.470995 428.73349 
L 477.009543 432.573579 
L 473.462819 436.335468 
L 469.832604 440.017284 
L 466.120651 443.617111 
L 462.328886 447.133208 
L 458.459237 450.563839 
L 454.513633 453.907265 
L 450.494081 457.161824 
L 446.402531 460.325804 
L 442.241154 463.397697 
L 438.012122 466.375991 
L 433.717608 469.259178 
L 429.359897 472.045832 
L 424.941179 474.734473 
L 420.46399 477.323853 
L 415.93087 479.812722 
L 411.344358 482.199833 
L 406.707138 484.484034 
L 402.021856 486.664116 
L 397.291518 488.739139 
L 392.519134 490.708162 
L 387.70771 492.570249 
L 382.860318 494.324566 
L 377.980212 495.970241 
L 373.070528 497.506683 
L 368.134401 498.933299 
L 363.174951 500.2495 
L 358.195139 501.454788 
L 353.198198 502.548677 
L 348.186516 503.530889 
L 343.16248 504.401147 
L 338.128457 505.159173 
L 333.086498 505.804756 
L 328.038626 506.337712 
L 322.986087 506.757964 
L 317.930126 507.065434 
L 312.871996 507.260046 
L 307.812791 507.341761 
L 302.753295 507.310535 
L 297.694532 507.166404 
L 292.637529 506.909408 
L 287.583346 506.53959 
L 282.533222 506.057027 
L 277.488246 505.46176 
L 272.450429 504.753988 
L 267.421781 503.933912 
L 262.404336 503.001745 
L 257.400417 501.957756 
L 252.412507 500.802187 
L 247.443607 499.535524 
L 242.496719 498.158251 
L 237.574837 496.670867 
L 232.681067 495.073946 
L 227.818684 493.368073 
L 222.990805 491.55408 
L 218.20055 489.632802 
L 213.451016 487.605081 
L 208.745233 485.47184 
L 204.086236 483.234026 
L 199.476713 480.892799 
L 194.919346 478.449314 
L 190.416807 475.904742 
L 185.971662 473.260313 
L 181.586423 470.517287 
L 177.263359 467.677098 
L 173.004739 464.741176 
L 168.812822 461.710965 
L 164.6898 458.587959 
L 160.637827 455.373678 
L 156.658903 452.069791 
L 152.755024 448.677967 
L 148.928179 445.199886 
L 145.180312 441.637269 
L 141.513347 437.991866 
L 137.929063 434.265557 
L 134.429242 430.46022 
L 131.015652 426.577746 
L 127.690024 422.620059 
L 124.454065 418.589113 
L 121.309333 414.486974 
L 118.257387 410.315708 
L 115.299768 406.077389 
L 112.437983 401.774122 
L 109.673507 397.40804 
L 107.007658 392.981368 
L 104.441752 388.496334 
L 101.97709 383.955169 
L 99.614936 379.360134 
L 97.356513 374.713513 
L 95.202882 370.017664 
L 93.155103 365.274946 
L 91.214219 360.487723 
L 89.381234 355.65838 
L 87.657105 350.789325 
L 86.042623 345.883019 
L 84.538579 340.941925 
L 83.145743 335.968507 
L 81.864848 330.965247 
L 80.696574 325.934645 
L 79.641431 320.879236 
L 78.699929 315.801553 
L 77.872558 310.704132 
L 77.159771 305.58952 
L 76.56196 300.460279 
L 76.079349 295.318983 
L 75.712164 290.168207 
L 75.460605 285.010526 
L 75.324838 279.848521 
L 75.304966 274.684781 
L 75.400924 269.52189 
L 75.612645 264.362431 
L 75.940043 259.208985 
L 76.382996 254.064138 
L 76.941312 248.930471 
L 77.614637 243.810545 
L 78.402618 238.706922 
L 79.30488 233.622155 
L 80.321012 228.558801 
L 81.450533 223.519403 
L 82.692806 218.506467 
L 84.047194 213.522499 
L 85.513036 208.569996 
L 87.089641 203.651451 
L 88.776244 198.76934 
L 90.571931 193.926081 
L 92.475788 189.124092 
L 94.48688 184.365783 
L 96.604244 179.653554 
L 98.826837 174.989779 
L 101.153482 170.37676 
L 103.583002 165.8168 
L 106.114196 161.312186 
L 108.745839 156.8652 
L 111.47663 152.478081 
L 114.305139 148.152988 
L 117.22994 143.892077 
L 120.249584 139.697489 
L 123.362599 135.571354 
L 126.567438 131.515752 
L 129.862441 127.53267 
L 133.245948 123.624091 
L 136.716278 119.79198 
L 140.271732 116.038294 
L 143.910537 112.364924 
L 147.630815 108.773659 
L 151.430691 105.266287 
L 155.308262 101.844572 
L 159.26162 98.510271 
L 163.288776 95.265063 
L 167.387624 92.110516 
L 171.556057 89.048197 
L 175.791928 86.079643 
L 180.093104 83.206387 
L 184.457332 80.429873 
L 188.882177 77.751416 
L 193.365203 75.172331 
L 197.903922 72.693898 
L 202.495835 70.317393 
L 207.138267 68.043988 
L 211.828314 65.8747 
L 216.563074 63.810546 
L 221.33963 61.852506 
L 226.154938 60.00155 
L 231.005847 58.258516 
L 235.889184 56.624079 
L 240.801773 55.098915 
L 245.740532 53.683665 
L 250.702179 52.378941 
L 255.683662 51.185217 
L 260.682339 50.102838 
L 265.695569 49.132149 
L 270.720844 48.273473 
L 275.755681 47.527087 
L 280.798081 46.893178 
L 285.846566 46.371858 
L 290.899659 45.963243 
L 295.955905 45.667439 
L 301.014151 45.484514 
L 306.073447 45.414489 
L 311.132859 45.457373 
L 311.132859 45.457373 
" clip-path="url(#p36f40eac5c)" style="fill: none; stroke-dasharray: 22.4,5.6,3.5,5.6; stroke-dashoffset: 0; stroke: #0000ff; stroke-opacity: 0.8; stroke-width: 3.5"/>
   </g>
   <g id="patch_3">
    <path d="M 52.160938 530.438125 
L 52.160938 22.318125 
" style="fill: none; stroke: #000000; stroke-width: 0.8; stroke-linejoin: miter; stroke-linecap: square"/>
   </g>
   <g id="patch_4">
    <path d="M 561.210937 530.438125 
L 561.210937 22.318125 
" style="fill: none; stroke: #000000; stroke-width: 0.8; stroke-linejoin: miter; stroke-linecap: square"/>
   </g>
   <g id="patch_5">
    <path d="M 52.160937 530.438125 
L 561.210937 530.438125 
" style="fill: none; stroke: #000000; stroke-width: 0.8; stroke-linejoin: miter; stroke-linecap: square"/>
   </g>
   <g id="patch_6">
    <path d="M 52.160937 22.318125 
L 561.210937 22.318125 
" style="fill: none; stroke: #000000; stroke-width: 0.8; stroke-linejoin: miter; stroke-linecap: square"/>
   </g>
   <g id="line2d_19">
    <path d="M 536.627939 250.705402 
L 537.145934 255.842531 
L 537.548962 260.963431 
L 537.837359 266.064507 
L 538.011601 271.142573 
L 538.072301 276.194993 
L 538.020073 281.219132 
L 537.855545 286.212569 
L 537.579406 291.172815 
L 537.192432 296.098136 
L 536.695442 300.987539 
L 536.089256 305.840029 
L 535.374687 310.654798 
L 534.552603 315.431204 
L 532.589325 324.869727 
L 530.206128 334.159914 
L 527.409607 343.308418 
L 524.205844 352.324405 
L 520.600599 361.216886 
L 516.599235 369.993552 
L 512.20689 378.656424 
L 507.428599 387.204701 
L 502.269781 395.628195 
L 496.736375 403.911099 
L 490.834983 412.03115 
L 484.573867 419.958683 
L 477.962006 427.66125 
L 471.010554 435.103885 
L 467.411318 438.71704 
L 463.731873 442.252135 
L 459.974042 445.705373 
L 456.139772 449.07357 
L 452.23101 452.353542 
L 448.249727 455.54241 
L 444.197967 458.63723 
L 440.077879 461.636158 
L 435.891654 464.53805 
L 431.64148 467.341759 
L 427.329548 470.046323 
L 422.958097 472.651072 
L 418.529371 475.155988 
L 414.045597 477.561376 
L 409.509003 479.867539 
L 400.286241 484.183688 
L 390.878738 488.108719 
L 381.303929 491.646061 
L 371.579137 494.798293 
L 361.721653 497.564423 
L 351.748853 499.941404 
L 341.678261 501.923748 
L 331.527809 503.503943 
L 321.315626 504.673846 
L 311.060354 505.425615 
L 300.780884 505.752109 
L 290.496406 505.647412 
L 280.226397 505.107128 
L 269.990426 504.127547 
L 264.891393 503.47182 
L 259.808315 502.704737 
L 254.743704 501.825615 
L 249.700038 500.833952 
L 244.679863 499.728738 
L 239.685768 498.508715 
L 234.720339 497.172623 
L 229.7862 495.719114 
L 224.885935 494.146656 
L 220.022259 492.453424 
L 215.197941 490.637498 
L 210.415752 488.696954 
L 205.67849 486.630056 
L 200.988976 484.434444 
L 196.350136 482.108518 
L 191.764931 479.651065 
L 187.236323 477.060869 
L 182.767255 474.337244 
L 178.360787 471.478838 
L 174.019925 468.486262 
L 169.747629 465.360961 
L 165.546861 462.104378 
L 161.420498 458.718574 
L 157.371586 455.205508 
L 153.402868 451.569256 
L 149.516949 447.814691 
L 145.716434 443.946685 
L 142.003795 439.970407 
L 138.381629 435.891648 
L 134.85205 431.717018 
L 131.41699 427.453363 
L 128.07838 423.10753 
L 124.838018 418.686175 
L 121.697714 414.196772 
L 118.658811 409.645884 
L 115.72249 405.039698 
L 112.889936 400.3844 
L 107.54041 390.949726 
L 102.617132 381.382882 
L 98.12509 371.714447 
L 94.068467 361.970083 
L 90.45014 352.165272 
L 87.272597 342.311786 
L 84.537851 332.41743 
L 82.247529 322.488627 
L 80.403132 312.531769 
L 79.005628 302.556021 
L 78.474655 297.564475 
L 78.055656 292.57244 
L 77.748579 287.581925 
L 77.553324 282.595088 
L 77.469793 277.614084 
L 77.497829 272.641107 
L 77.637311 267.67859 
L 77.887927 262.728981 
L 78.249314 257.794716 
L 78.72111 252.878232 
L 79.302899 247.981869 
L 79.994271 243.108155 
L 80.794649 238.259207 
L 81.703418 233.437027 
L 82.719963 228.643618 
L 85.073755 219.150654 
L 87.850243 209.793834 
L 91.042961 200.58499 
L 94.645155 191.535275 
L 98.649311 182.656283 
L 103.047546 173.96041 
L 107.831391 165.461858 
L 112.991482 157.177543 
L 118.51803 149.125873 
L 124.399932 141.327515 
L 130.625453 133.803561 
L 133.863148 130.151143 
L 137.18185 126.574893 
L 140.579836 123.077132 
L 144.055344 119.659898 
L 147.606573 116.325543 
L 151.231621 113.075387 
L 154.928569 109.910544 
L 162.530479 103.840959 
L 170.396686 98.122742 
L 178.51143 92.755628 
L 186.85901 87.737083 
L 195.42389 83.061852 
L 204.190845 78.724047 
L 213.144841 74.717871 
L 222.271096 71.040901 
L 231.554849 67.692904 
L 240.981314 64.67769 
L 250.535313 62.003681 
L 260.201458 59.681698 
L 269.963502 57.725988 
L 279.804761 56.151497 
L 289.707817 54.973181 
L 299.654544 54.203703 
L 309.62643 53.854115 
L 319.604448 53.930036 
L 329.569467 54.434539 
L 339.502253 55.366753 
L 349.383738 56.722904 
L 359.194973 58.497937 
L 368.917332 60.687168 
L 378.5323 63.286962 
L 388.021523 66.296378 
L 397.366536 69.718471 
L 401.979197 71.585773 
L 406.548812 73.558714 
L 411.072978 75.638592 
L 415.549292 77.826707 
L 419.975316 80.124313 
L 424.348616 82.533166 
L 428.666651 85.054466 
L 432.92687 87.689356 
L 437.126722 90.438981 
L 441.263652 93.304038 
L 445.335024 96.285855 
L 449.338237 99.384079 
L 453.270695 102.598204 
L 457.1298 105.927723 
L 460.913015 109.371467 
L 464.617662 112.928608 
L 468.241312 116.596393 
L 471.781558 120.371903 
L 475.235997 124.252218 
L 478.602345 128.233897 
L 481.878179 132.313384 
L 485.061501 136.485991 
L 488.150342 140.746946 
L 491.142737 145.091472 
L 494.036879 149.514639 
L 496.830865 154.011156 
L 499.52327 158.575734 
L 502.112701 163.203082 
L 504.597763 167.887908 
L 506.977225 172.625064 
L 509.249805 177.409134 
L 511.414648 182.235321 
L 513.47093 187.098866 
L 515.417824 191.995012 
L 517.254644 196.919231 
L 518.980676 201.866906 
L 522.098955 211.81666 
L 524.770052 221.812735 
L 526.992279 231.825049 
L 528.765813 241.826586 
L 530.091566 251.791624 
L 530.971717 261.696895 
L 531.409499 271.522149 
L 531.408776 281.249003 
L 530.974406 290.864385 
L 530.111563 300.357717 
L 528.825895 309.723 
L 527.123185 318.958457 
L 525.00928 328.064799 
L 522.489842 337.046025 
L 519.57041 345.906807 
L 516.256265 354.651828 
L 512.552544 363.283603 
L 508.464249 371.802834 
L 503.996609 380.203663 
L 499.155085 388.476869 
L 493.945696 396.606876 
L 488.375458 404.572236 
L 482.452023 412.34792 
L 476.184867 419.904317 
L 469.584319 427.21086 
L 462.662298 434.236903 
L 455.432125 440.954407 
L 451.705857 444.189053 
L 447.908035 447.337647 
L 444.040638 450.398061 
L 440.105641 453.368177 
L 436.105072 456.246398 
L 432.041005 459.031039 
L 427.915562 461.721597 
L 419.489027 466.818455 
L 410.842481 471.534331 
L 401.993004 475.8701 
L 392.957589 479.827858 
L 383.753137 483.409899 
L 374.396482 486.616532 
L 364.904469 489.446767 
L 355.294046 491.896861 
L 345.582418 493.960824 
L 335.786984 495.631253 
L 325.925672 496.899666 
L 316.016636 497.757586 
L 306.07848 498.197361 
L 296.130114 498.212721 
L 286.190653 497.798561 
L 276.279471 496.95154 
L 266.416023 495.66882 
L 261.508316 494.863259 
L 256.61991 493.94765 
L 251.753273 492.921535 
L 246.910891 491.784357 
L 242.095228 490.535579 
L 237.308828 489.174206 
L 232.554238 487.699241 
L 227.834006 486.109688 
L 223.150708 484.404409 
L 218.506919 482.582089 
L 213.905319 480.641435 
L 209.348587 478.581157 
L 204.839402 476.400028 
L 200.380477 474.096855 
L 195.974565 471.67023 
L 191.624447 469.119837 
L 187.332904 466.445363 
L 183.102708 463.646624 
L 178.936639 460.723787 
L 174.837545 457.677065 
L 170.808115 454.508564 
L 166.851038 451.220387 
L 162.968977 447.814767 
L 159.164559 444.294508 
L 155.44044 440.662809 
L 151.798917 436.924465 
L 148.242289 433.08427 
L 144.772818 429.147054 
L 141.392675 425.118134 
L 138.103981 421.003276 
L 134.908408 416.808584 
L 131.807629 412.540163 
L 128.803283 408.204044 
L 125.896888 403.806387 
L 123.089843 399.353479 
L 117.777869 390.303541 
L 112.875274 381.096769 
L 108.38846 371.771551 
L 104.321752 362.35736 
L 100.678754 352.880009 
L 97.461768 343.358053 
L 94.672449 333.805874 
L 92.311962 324.234965 
L 90.380842 314.654322 
L 88.879414 305.07249 
L 87.807496 295.49822 
L 87.164517 285.941052 
L 86.949573 276.411412 
L 87.161037 266.921173 
L 87.796985 257.482717 
L 88.854738 248.109105 
L 90.331075 238.813541 
L 92.222301 229.609205 
L 94.523892 220.509169 
L 97.231006 211.526452 
L 100.338011 202.67451 
L 103.838708 193.967456 
L 107.726397 185.420227 
L 111.99335 177.049747 
L 116.631429 168.873845 
L 121.63136 160.912172 
L 126.983069 153.185163 
L 132.675707 145.713734 
L 138.697163 138.517663 
L 145.034831 131.615976 
L 151.675053 125.024153 
L 158.603659 118.754676 
L 165.806 112.816806 
L 173.267078 107.214416 
L 180.971803 101.949248 
L 188.905101 97.019203 
L 197.052022 92.420714 
L 205.397777 88.149375 
L 213.927796 84.201972 
L 222.62761 80.576177 
L 231.482771 77.273415 
L 240.478693 74.297893 
L 249.600628 71.656813 
L 258.833216 69.361323 
L 268.160822 67.424029 
L 277.566972 65.859066 
L 287.034678 64.68051 
L 296.546331 63.901151 
L 296.546331 63.901151 
" clip-path="url(#p36f40eac5c)" style="fill: none; stroke-dasharray: 3.5,5.775; stroke-dashoffset: 0; stroke: #008000; stroke-opacity: 0.8; stroke-width: 3.5"/>
   </g>
   <g id="text_19">
    <!-- Phase Portrait (x0 vs x1) -->
    <g transform="translate(232.994687 16.318125) scale(0.12 -0.12)">
     <defs>
      <path id="DejaVuSans-50" d="M 1259 4147 
L 1259 2394 
L 2053 2394 
Q 2494 2394 2734 2622 
Q 2975 2850 2975 3272 
Q 2975 3691 2734 3919 
Q 2494 4147 2053 4147 
L 1259 4147 
z
M 628 4666 
L 2053 4666 
Q 2838 4666 3239 4311 
Q 3641 3956 3641 3272 
Q 3641 2581 3239 2228 
Q 2838 1875 2053 1875 
L 1259 1875 
L 1259 0 
L 628 0 
L 628 4666 
z
" transform="scale(0.015625)"/>
      <path id="DejaVuSans-68" d="M 3513 2113 
L 3513 0 
L 2938 0 
L 2938 2094 
Q 2938 2591 2744 2837 
Q 2550 3084 2163 3084 
Q 1697 3084 1428 2787 
Q 1159 2491 1159 1978 
L 1159 0 
L 581 0 
L 581 4863 
L 1159 4863 
L 1159 2956 
Q 1366 3272 1645 3428 
Q 1925 3584 2291 3584 
Q 2894 3584 3203 3211 
Q 3513 2838 3513 2113 
z
" transform="scale(0.015625)"/>
      <path id="DejaVuSans-61" d="M 2194 1759 
Q 1497 1759 1228 1600 
Q 959 1441 959 1056 
Q 959 750 1161 570 
Q 1363 391 1709 391 
Q 2188 391 2477 730 
Q 2766 1069 2766 1631 
L 2766 1759 
L 2194 1759 
z
M 3341 1997 
L 3341 0 
L 2766 0 
L 2766 531 
Q 2569 213 2275 61 
Q 1981 -91 1556 -91 
Q 1019 -91 701 211 
Q 384 513 384 1019 
Q 384 1609 779 1909 
Q 1175 2209 1959 2209 
L 2766 2209 
L 2766 2266 
Q 2766 2663 2505 2880 
Q 2244 3097 1772 3097 
Q 1472 3097 1187 3025 
Q 903 2953 641 2809 
L 641 3341 
Q 956 3463 1253 3523 
Q 1550 3584 1831 3584 
Q 2591 3584 2966 3190 
Q 3341 2797 3341 1997 
z
" transform="scale(0.015625)"/>
      <path id="DejaVuSans-73" d="M 2834 3397 
L 2834 2853 
Q 2591 2978 2328 3040 
Q 2066 3103 1784 3103 
Q 1356 3103 1142 2972 
Q 928 2841 928 2578 
Q 928 2378 1081 2264 
Q 1234 2150 1697 2047 
L 1894 2003 
Q 2506 1872 2764 1633 
Q 3022 1394 3022 966 
Q 3022 478 2636 193 
Q 2250 -91 1575 -91 
Q 1294 -91 989 -36 
Q 684 19 347 128 
L 347 722 
Q 666 556 975 473 
Q 1284 391 1588 391 
Q 1994 391 2212 530 
Q 2431 669 2431 922 
Q 2431 1156 2273 1281 
Q 2116 1406 1581 1522 
L 1381 1569 
Q 847 1681 609 1914 
Q 372 2147 372 2553 
Q 372 3047 722 3315 
Q 1072 3584 1716 3584 
Q 2034 3584 2315 3537 
Q 2597 3491 2834 3397 
z
" transform="scale(0.015625)"/>
      <path id="DejaVuSans-65" d="M 3597 1894 
L 3597 1613 
L 953 1613 
Q 991 1019 1311 708 
Q 1631 397 2203 397 
Q 2534 397 2845 478 
Q 3156 559 3463 722 
L 3463 178 
Q 3153 47 2828 -22 
Q 2503 -91 2169 -91 
Q 1331 -91 842 396 
Q 353 884 353 1716 
Q 353 2575 817 3079 
Q 1281 3584 2069 3584 
Q 2775 3584 3186 3129 
Q 3597 2675 3597 1894 
z
M 3022 2063 
Q 3016 2534 2758 2815 
Q 2500 3097 2075 3097 
Q 1594 3097 1305 2825 
Q 1016 2553 972 2059 
L 3022 2063 
z
" transform="scale(0.015625)"/>
      <path id="DejaVuSans-20" transform="scale(0.015625)"/>
      <path id="DejaVuSans-6f" d="M 1959 3097 
Q 1497 3097 1228 2736 
Q 959 2375 959 1747 
Q 959 1119 1226 758 
Q 1494 397 1959 397 
Q 2419 397 2687 759 
Q 2956 1122 2956 1747 
Q 2956 2369 2687 2733 
Q 2419 3097 1959 3097 
z
M 1959 3584 
Q 2709 3584 3137 3096 
Q 3566 2609 3566 1747 
Q 3566 888 3137 398 
Q 2709 -91 1959 -91 
Q 1206 -91 779 398 
Q 353 888 353 1747 
Q 353 2609 779 3096 
Q 1206 3584 1959 3584 
z
" transform="scale(0.015625)"/>
      <path id="DejaVuSans-72" d="M 2631 2963 
Q 2534 3019 2420 3045 
Q 2306 3072 2169 3072 
Q 1681 3072 1420 2755 
Q 1159 2438 1159 1844 
L 1159 0 
L 581 0 
L 581 3500 
L 1159 3500 
L 1159 2956 
Q 1341 3275 1631 3429 
Q 1922 3584 2338 3584 
Q 2397 3584 2469 3576 
Q 2541 3569 2628 3553 
L 2631 2963 
z
" transform="scale(0.015625)"/>
      <path id="DejaVuSans-74" d="M 1172 4494 
L 1172 3500 
L 2356 3500 
L 2356 3053 
L 1172 3053 
L 1172 1153 
Q 1172 725 1289 603 
Q 1406 481 1766 481 
L 2356 481 
L 2356 0 
L 1766 0 
Q 1100 0 847 248 
Q 594 497 594 1153 
L 594 3053 
L 172 3053 
L 172 3500 
L 594 3500 
L 594 4494 
L 1172 4494 
z
" transform="scale(0.015625)"/>
      <path id="DejaVuSans-69" d="M 603 3500 
L 1178 3500 
L 1178 0 
L 603 0 
L 603 3500 
z
M 603 4863 
L 1178 4863 
L 1178 4134 
L 603 4134 
L 603 4863 
z
" transform="scale(0.015625)"/>
      <path id="DejaVuSans-28" d="M 1984 4856 
Q 1566 4138 1362 3434 
Q 1159 2731 1159 2009 
Q 1159 1288 1364 580 
Q 1569 -128 1984 -844 
L 1484 -844 
Q 1016 -109 783 600 
Q 550 1309 550 2009 
Q 550 2706 781 3412 
Q 1013 4119 1484 4856 
L 1984 4856 
z
" transform="scale(0.015625)"/>
      <path id="DejaVuSans-76" d="M 191 3500 
L 800 3500 
L 1894 563 
L 2988 3500 
L 3597 3500 
L 2284 0 
L 1503 0 
L 191 3500 
z
" transform="scale(0.015625)"/>
      <path id="DejaVuSans-29" d="M 513 4856 
L 1013 4856 
Q 1481 4119 1714 3412 
Q 1947 2706 1947 2009 
Q 1947 1309 1714 600 
Q 1481 -109 1013 -844 
L 513 -844 
Q 928 -128 1133 580 
Q 1338 1288 1338 2009 
Q 1338 2731 1133 3434 
Q 928 4138 513 4856 
z
" transform="scale(0.015625)"/>
     </defs>
     <use xlink:href="#DejaVuSans-50"/>
     <use xlink:href="#DejaVuSans-68" transform="translate(60.302734 0)"/>
     <use xlink:href="#DejaVuSans-61" transform="translate(123.681641 0)"/>
     <use xlink:href="#DejaVuSans-73" transform="translate(184.960938 0)"/>
     <use xlink:href="#DejaVuSans-65" transform="translate(237.060547 0)"/>
     <use xlink:href="#DejaVuSans-20" transform="translate(298.583984 0)"/>
     <use xlink:href="#DejaVuSans-50" transform="translate(330.371094 0)"/>
     <use xlink:href="#DejaVuSans-6f" transform="translate(387.048828 0)"/>
     <use xlink:href="#DejaVuSans-72" transform="translate(448.230469 0)"/>
     <use xlink:href="#DejaVuSans-74" transform="translate(489.34375 0)"/>
     <use xlink:href="#DejaVuSans-72" transform="translate(528.552734 0)"/>
     <use xlink:href="#DejaVuSans-61" transform="translate(569.666016 0)"/>
     <use xlink:href="#DejaVuSans-69" transform="translate(630.945312 0)"/>
     <use xlink:href="#DejaVuSans-74" transform="translate(658.728516 0)"/>
     <use xlink:href="#DejaVuSans-20" transform="translate(697.9375 0)"/>
     <use xlink:href="#DejaVuSans-28" transform="translate(729.724609 0)"/>
     <use xlink:href="#DejaVuSans-78" transform="translate(768.738281 0)"/>
     <use xlink:href="#DejaVuSans-30" transform="translate(827.917969 0)"/>
     <use xlink:href="#DejaVuSans-20" transform="translate(891.541016 0)"/>
     <use xlink:href="#DejaVuSans-76" transform="translate(923.328125 0)"/>
     <use xlink:href="#DejaVuSans-73" transform="translate(982.507812 0)"/>
     <use xlink:href="#DejaVuSans-20" transform="translate(1034.607422 0)"/>
     <use xlink:href="#DejaVuSans-78" transform="translate(1066.394531 0)"/>
     <use xlink:href="#DejaVuSans-31" transform="translate(1125.574219 0)"/>
     <use xlink:href="#DejaVuSans-29" transform="translate(1189.197266 0)"/>
    </g>
   </g>
   <g id="line2d_20">
    <path d="M 536.627939 250.705402 
L 537.14511 255.918328 
L 537.545457 261.129149 
L 537.82899 266.335243 
L 537.995839 271.534008 
L 538.046264 276.722864 
L 537.980523 281.899236 
L 537.798911 287.060557 
L 537.50173 292.204251 
L 537.089411 297.327782 
L 536.562497 302.428645 
L 535.921531 307.504338 
L 535.167091 312.552375 
L 534.299764 317.57026 
L 533.320261 322.555549 
L 532.2294 327.505845 
L 531.027999 332.418751 
L 529.716909 337.291888 
L 528.296988 342.122871 
L 526.769218 346.909381 
L 525.134678 351.649153 
L 523.394445 356.339925 
L 521.549632 360.979456 
L 519.601355 365.565498 
L 517.550849 370.095884 
L 515.399437 374.56851 
L 513.148442 378.981273 
L 510.799218 383.332098 
L 508.353124 387.618901 
L 505.81163 391.83969 
L 503.176284 395.992548 
L 500.448634 400.075556 
L 497.630256 404.086826 
L 494.722732 408.024463 
L 491.727746 411.886676 
L 488.647049 415.671754 
L 485.482392 419.377983 
L 482.235552 423.003686 
L 478.908311 426.547176 
L 475.502541 430.006884 
L 472.020174 433.381322 
L 468.46314 436.669004 
L 464.833391 439.868479 
L 461.132886 442.978287 
L 457.36366 445.997099 
L 453.527798 448.923667 
L 449.627383 451.756745 
L 445.664516 454.495127 
L 441.641305 457.137596 
L 437.559924 459.683072 
L 433.42258 462.130565 
L 429.231483 464.479079 
L 424.988855 466.727665 
L 420.696927 468.875361 
L 416.357977 470.921351 
L 411.97431 472.864905 
L 407.548234 474.705293 
L 403.08206 476.441827 
L 394.038749 479.600701 
L 384.863257 482.337345 
L 375.574586 484.648236 
L 366.191887 486.530668 
L 356.734419 487.983083 
L 347.221488 489.004393 
L 337.672422 489.594766 
L 328.106529 489.755017 
L 318.543076 489.486778 
L 309.001188 488.792793 
L 299.499931 487.676264 
L 290.058117 486.141598 
L 280.694394 484.193806 
L 271.427193 481.838677 
L 262.274562 479.083019 
L 253.254392 475.934064 
L 244.384055 472.400142 
L 235.680641 468.490114 
L 227.160848 464.21354 
L 218.840781 459.58086 
L 210.736299 454.602889 
L 202.862513 449.29137 
L 195.234142 443.658489 
L 187.865366 437.717013 
L 180.769601 431.480417 
L 173.959936 424.962474 
L 167.448522 418.177685 
L 161.247042 411.140876 
L 155.366515 403.867319 
L 149.817064 396.372783 
L 144.608429 388.673252 
L 139.749271 380.7852 
L 135.247728 372.725302 
L 131.111187 364.510515 
L 127.346058 356.158073 
L 123.958328 347.68533 
L 120.952821 339.109868 
L 118.333812 330.449347 
L 116.104776 321.721531 
L 114.268182 312.944231 
L 112.826051 304.135281 
L 111.779227 295.312475 
L 111.127999 286.493565 
L 110.87185 277.696222 
L 111.009277 268.937941 
L 111.538334 260.236143 
L 112.45593 251.607952 
L 113.758452 243.070328 
L 115.441508 234.639977 
L 117.499792 226.333226 
L 119.927579 218.166229 
L 122.71809 210.154606 
L 125.864078 202.313711 
L 129.357587 194.658478 
L 133.189858 187.203286 
L 137.351757 179.962255 
L 141.833241 172.948764 
L 146.623872 166.175837 
L 151.712607 159.655944 
L 157.087748 153.400848 
L 162.737285 147.421985 
L 168.648483 141.729883 
L 174.808303 136.334652 
L 181.203235 131.245732 
L 187.819288 126.471756 
L 194.642238 122.020971 
L 201.657351 117.900602 
L 208.849692 114.117412 
L 216.204012 110.677417 
L 223.704769 107.585766 
L 231.336281 104.847184 
L 239.082593 102.465314 
L 246.927655 100.443316 
L 254.855272 98.783565 
L 262.849159 97.487552 
L 270.892983 96.556333 
L 278.970386 95.989869 
L 287.065022 95.787647 
L 295.160575 95.948368 
L 303.240838 96.469881 
L 311.289651 97.349602 
L 319.29107 98.583902 
L 327.229265 100.168705 
L 335.088616 102.099191 
L 342.853785 104.369754 
L 350.509583 106.974387 
L 358.04126 109.906134 
L 365.434274 113.157641 
L 372.67445 116.720887 
L 379.748064 120.587172 
L 386.641623 124.74744 
L 393.342272 129.191832 
L 399.837443 133.910156 
L 406.115079 138.891662 
L 412.163705 144.125059 
L 417.972154 149.598761 
L 423.530055 155.300561 
L 428.827392 161.218 
L 433.854771 167.338195 
L 438.603478 173.647881 
L 443.065171 180.133576 
L 447.23242 186.781385 
L 451.098191 193.577247 
L 454.656157 200.506838 
L 457.900734 207.555617 
L 460.826748 214.70892 
L 463.430007 221.951886 
L 465.706741 229.269591 
L 467.653927 236.647007 
L 469.269313 244.069067 
L 470.551077 251.520678 
L 471.498396 258.986774 
L 472.11087 266.452318 
L 472.388858 273.902345 
L 472.333469 281.322016 
L 471.946245 288.696565 
L 471.229692 296.011469 
L 470.186725 303.252327 
L 468.820982 310.404974 
L 467.136803 317.455527 
L 465.138938 324.390271 
L 462.833021 331.19593 
L 460.225057 337.859436 
L 457.32171 344.368105 
L 454.130257 350.709674 
L 450.658348 356.87213 
L 446.914393 362.844075 
L 442.907117 368.614387 
L 438.645808 374.172457 
L 434.140256 379.508206 
L 429.40056 384.611882 
L 424.437425 389.47448 
L 419.261804 394.087329 
L 413.885086 398.442371 
L 408.319031 402.532161 
L 402.57563 406.349632 
L 396.667303 409.888567 
L 390.606633 413.143109 
L 384.4065 416.108096 
L 378.080006 418.779019 
L 371.640398 421.151786 
L 365.101153 423.223207 
L 358.475829 424.990464 
L 351.77812 426.451479 
L 345.021795 427.604829 
L 338.220669 428.449535 
L 331.388588 428.985515 
L 324.539391 429.213062 
L 317.68689 429.133209 
L 310.844822 428.747621 
L 304.026878 428.058402 
L 297.246576 427.068514 
L 290.51735 425.781271 
L 283.852438 424.200693 
L 277.264874 422.33138 
L 270.767545 420.178339 
L 264.372982 417.747361 
L 258.093562 415.044544 
L 251.941306 412.076629 
L 245.927917 408.85085 
L 240.064861 405.374808 
L 234.363086 401.656763 
L 228.833322 397.705238 
L 223.48581 393.52929 
L 218.330376 389.138373 
L 213.376527 384.542241 
L 208.633127 379.751162 
L 204.108769 374.775601 
L 199.811447 369.626431 
L 195.748666 364.314807 
L 191.927557 358.852103 
L 188.354503 353.250037 
L 185.035592 347.520457 
L 181.976223 341.675471 
L 179.18127 335.727343 
L 176.655183 329.688466 
L 174.401614 323.571396 
L 172.423901 317.388747 
L 170.724642 311.15323 
L 169.3059 304.87759 
L 168.16929 298.5746 
L 167.315614 292.257015 
L 166.745359 285.937574 
L 166.458262 279.628947 
L 166.453537 273.343719 
L 166.729952 267.094402 
L 167.285486 260.893314 
L 168.117817 254.75269 
L 169.223902 248.684531 
L 170.600212 242.700644 
L 172.242794 236.812669 
L 174.146973 231.031887 
L 176.307797 225.369436 
L 178.719659 219.836069 
L 181.376527 214.442253 
L 184.271985 209.198197 
L 187.398997 204.113615 
L 190.750289 199.198023 
L 194.318027 194.460421 
L 198.094031 189.909453 
L 202.069801 185.553426 
L 206.236341 181.40004 
L 210.584468 177.456761 
L 215.104562 173.730431 
L 219.78675 170.227485 
L 224.620917 166.953961 
L 229.596597 163.915217 
L 234.703196 161.116342 
L 239.92983 158.561736 
L 245.265456 156.255358 
L 250.698882 154.200733 
L 256.218728 152.400664 
L 261.813543 150.857671 
L 267.471745 149.573548 
L 273.181698 148.549645 
L 278.931711 147.786855 
L 284.710072 147.285347 
L 290.505059 147.045012 
L 296.304985 147.065008 
L 302.098201 147.344083 
L 307.873126 147.880458 
L 307.873126 147.880458 
" clip-path="url(#p36f40eac5c)" style="fill: none; stroke-dasharray: 12.95,5.6; stroke-dashoffset: 0; stroke: #ff0000; stroke-opacity: 0.8; stroke-width: 3.5"/>
   </g>
   <g id="legend_1">
    <g id="patch_7">
     <path d="M 234.010937 307.234375 
L 379.360937 307.234375 
Q 381.360937 307.234375 381.360937 305.234375 
L 381.360937 247.521875 
Q 381.360937 245.521875 379.360937 245.521875 
L 234.010937 245.521875 
Q 232.010937 245.521875 232.010937 247.521875 
L 232.010937 305.234375 
Q 232.010937 307.234375 234.010937 307.234375 
z
" style="fill: #ffffff; opacity: 0.8; stroke: #cccccc; stroke-linejoin: miter"/>
    </g>
    <g id="line2d_21">
     <path d="M 236.010937 253.620312 
L 246.010937 253.620312 
L 256.010937 253.620312 
" style="fill: none; stroke: #000000; stroke-opacity: 0.3; stroke-width: 7; stroke-linecap: square"/>
    </g>
    <g id="text_20">
     <!-- True/Underlying model -->
     <g transform="translate(264.010937 257.120312) scale(0.1 -0.1)">
      <defs>
       <path id="DejaVuSans-54" d="M -19 4666 
L 3928 4666 
L 3928 4134 
L 2272 4134 
L 2272 0 
L 1638 0 
L 1638 4134 
L -19 4134 
L -19 4666 
z
" transform="scale(0.015625)"/>
       <path id="DejaVuSans-75" d="M 544 1381 
L 544 3500 
L 1119 3500 
L 1119 1403 
Q 1119 906 1312 657 
Q 1506 409 1894 409 
Q 2359 409 2629 706 
Q 2900 1003 2900 1516 
L 2900 3500 
L 3475 3500 
L 3475 0 
L 2900 0 
L 2900 538 
Q 2691 219 2414 64 
Q 2138 -91 1772 -91 
Q 1169 -91 856 284 
Q 544 659 544 1381 
z
M 1991 3584 
L 1991 3584 
z
" transform="scale(0.015625)"/>
       <path id="DejaVuSans-2f" d="M 1625 4666 
L 2156 4666 
L 531 -594 
L 0 -594 
L 1625 4666 
z
" transform="scale(0.015625)"/>
       <path id="DejaVuSans-55" d="M 556 4666 
L 1191 4666 
L 1191 1831 
Q 1191 1081 1462 751 
Q 1734 422 2344 422 
Q 2950 422 3222 751 
Q 3494 1081 3494 1831 
L 3494 4666 
L 4128 4666 
L 4128 1753 
Q 4128 841 3676 375 
Q 3225 -91 2344 -91 
Q 1459 -91 1007 375 
Q 556 841 556 1753 
L 556 4666 
z
" transform="scale(0.015625)"/>
       <path id="DejaVuSans-6e" d="M 3513 2113 
L 3513 0 
L 2938 0 
L 2938 2094 
Q 2938 2591 2744 2837 
Q 2550 3084 2163 3084 
Q 1697 3084 1428 2787 
Q 1159 2491 1159 1978 
L 1159 0 
L 581 0 
L 581 3500 
L 1159 3500 
L 1159 2956 
Q 1366 3272 1645 3428 
Q 1925 3584 2291 3584 
Q 2894 3584 3203 3211 
Q 3513 2838 3513 2113 
z
" transform="scale(0.015625)"/>
       <path id="DejaVuSans-64" d="M 2906 2969 
L 2906 4863 
L 3481 4863 
L 3481 0 
L 2906 0 
L 2906 525 
Q 2725 213 2448 61 
Q 2172 -91 1784 -91 
Q 1150 -91 751 415 
Q 353 922 353 1747 
Q 353 2572 751 3078 
Q 1150 3584 1784 3584 
Q 2172 3584 2448 3432 
Q 2725 3281 2906 2969 
z
M 947 1747 
Q 947 1113 1208 752 
Q 1469 391 1925 391 
Q 2381 391 2643 752 
Q 2906 1113 2906 1747 
Q 2906 2381 2643 2742 
Q 2381 3103 1925 3103 
Q 1469 3103 1208 2742 
Q 947 2381 947 1747 
z
" transform="scale(0.015625)"/>
       <path id="DejaVuSans-6c" d="M 603 4863 
L 1178 4863 
L 1178 0 
L 603 0 
L 603 4863 
z
" transform="scale(0.015625)"/>
       <path id="DejaVuSans-79" d="M 2059 -325 
Q 1816 -950 1584 -1140 
Q 1353 -1331 966 -1331 
L 506 -1331 
L 506 -850 
L 844 -850 
Q 1081 -850 1212 -737 
Q 1344 -625 1503 -206 
L 1606 56 
L 191 3500 
L 800 3500 
L 1894 763 
L 2988 3500 
L 3597 3500 
L 2059 -325 
z
" transform="scale(0.015625)"/>
       <path id="DejaVuSans-67" d="M 2906 1791 
Q 2906 2416 2648 2759 
Q 2391 3103 1925 3103 
Q 1463 3103 1205 2759 
Q 947 2416 947 1791 
Q 947 1169 1205 825 
Q 1463 481 1925 481 
Q 2391 481 2648 825 
Q 2906 1169 2906 1791 
z
M 3481 434 
Q 3481 -459 3084 -895 
Q 2688 -1331 1869 -1331 
Q 1566 -1331 1297 -1286 
Q 1028 -1241 775 -1147 
L 775 -588 
Q 1028 -725 1275 -790 
Q 1522 -856 1778 -856 
Q 2344 -856 2625 -561 
Q 2906 -266 2906 331 
L 2906 616 
Q 2728 306 2450 153 
Q 2172 0 1784 0 
Q 1141 0 747 490 
Q 353 981 353 1791 
Q 353 2603 747 3093 
Q 1141 3584 1784 3584 
Q 2172 3584 2450 3431 
Q 2728 3278 2906 2969 
L 2906 3500 
L 3481 3500 
L 3481 434 
z
" transform="scale(0.015625)"/>
       <path id="DejaVuSans-6d" d="M 3328 2828 
Q 3544 3216 3844 3400 
Q 4144 3584 4550 3584 
Q 5097 3584 5394 3201 
Q 5691 2819 5691 2113 
L 5691 0 
L 5113 0 
L 5113 2094 
Q 5113 2597 4934 2840 
Q 4756 3084 4391 3084 
Q 3944 3084 3684 2787 
Q 3425 2491 3425 1978 
L 3425 0 
L 2847 0 
L 2847 2094 
Q 2847 2600 2669 2842 
Q 2491 3084 2119 3084 
Q 1678 3084 1418 2786 
Q 1159 2488 1159 1978 
L 1159 0 
L 581 0 
L 581 3500 
L 1159 3500 
L 1159 2956 
Q 1356 3278 1631 3431 
Q 1906 3584 2284 3584 
Q 2666 3584 2933 3390 
Q 3200 3197 3328 2828 
z
" transform="scale(0.015625)"/>
      </defs>
      <use xlink:href="#DejaVuSans-54"/>
      <use xlink:href="#DejaVuSans-72" transform="translate(46.333984 0)"/>
      <use xlink:href="#DejaVuSans-75" transform="translate(87.447266 0)"/>
      <use xlink:href="#DejaVuSans-65" transform="translate(150.826172 0)"/>
      <use xlink:href="#DejaVuSans-2f" transform="translate(212.349609 0)"/>
      <use xlink:href="#DejaVuSans-55" transform="translate(246.041016 0)"/>
      <use xlink:href="#DejaVuSans-6e" transform="translate(319.234375 0)"/>
      <use xlink:href="#DejaVuSans-64" transform="translate(382.613281 0)"/>
      <use xlink:href="#DejaVuSans-65" transform="translate(446.089844 0)"/>
      <use xlink:href="#DejaVuSans-72" transform="translate(507.613281 0)"/>
      <use xlink:href="#DejaVuSans-6c" transform="translate(548.726562 0)"/>
      <use xlink:href="#DejaVuSans-79" transform="translate(576.509766 0)"/>
      <use xlink:href="#DejaVuSans-69" transform="translate(635.689453 0)"/>
      <use xlink:href="#DejaVuSans-6e" transform="translate(663.472656 0)"/>
      <use xlink:href="#DejaVuSans-67" transform="translate(726.851562 0)"/>
      <use xlink:href="#DejaVuSans-20" transform="translate(790.328125 0)"/>
      <use xlink:href="#DejaVuSans-6d" transform="translate(822.115234 0)"/>
      <use xlink:href="#DejaVuSans-6f" transform="translate(919.527344 0)"/>
      <use xlink:href="#DejaVuSans-64" transform="translate(980.708984 0)"/>
      <use xlink:href="#DejaVuSans-65" transform="translate(1044.185547 0)"/>
      <use xlink:href="#DejaVuSans-6c" transform="translate(1105.708984 0)"/>
     </g>
    </g>
    <g id="line2d_22">
     <path d="M 236.010937 268.298437 
L 246.010937 268.298437 
L 256.010937 268.298437 
" style="fill: none; stroke-dasharray: 12.95,5.6; stroke-dashoffset: 0; stroke: #ff0000; stroke-opacity: 0.8; stroke-width: 3.5"/>
    </g>
    <g id="text_21">
     <!-- AutoSINDy -->
     <g transform="translate(264.010937 271.798437) scale(0.1 -0.1)">
      <defs>
       <path id="DejaVuSans-41" d="M 2188 4044 
L 1331 1722 
L 3047 1722 
L 2188 4044 
z
M 1831 4666 
L 2547 4666 
L 4325 0 
L 3669 0 
L 3244 1197 
L 1141 1197 
L 716 0 
L 50 0 
L 1831 4666 
z
" transform="scale(0.015625)"/>
       <path id="DejaVuSans-53" d="M 3425 4513 
L 3425 3897 
Q 3066 4069 2747 4153 
Q 2428 4238 2131 4238 
Q 1616 4238 1336 4038 
Q 1056 3838 1056 3469 
Q 1056 3159 1242 3001 
Q 1428 2844 1947 2747 
L 2328 2669 
Q 3034 2534 3370 2195 
Q 3706 1856 3706 1288 
Q 3706 609 3251 259 
Q 2797 -91 1919 -91 
Q 1588 -91 1214 -16 
Q 841 59 441 206 
L 441 856 
Q 825 641 1194 531 
Q 1563 422 1919 422 
Q 2459 422 2753 634 
Q 3047 847 3047 1241 
Q 3047 1584 2836 1778 
Q 2625 1972 2144 2069 
L 1759 2144 
Q 1053 2284 737 2584 
Q 422 2884 422 3419 
Q 422 4038 858 4394 
Q 1294 4750 2059 4750 
Q 2388 4750 2728 4690 
Q 3069 4631 3425 4513 
z
" transform="scale(0.015625)"/>
       <path id="DejaVuSans-49" d="M 628 4666 
L 1259 4666 
L 1259 0 
L 628 0 
L 628 4666 
z
" transform="scale(0.015625)"/>
       <path id="DejaVuSans-4e" d="M 628 4666 
L 1478 4666 
L 3547 763 
L 3547 4666 
L 4159 4666 
L 4159 0 
L 3309 0 
L 1241 3903 
L 1241 0 
L 628 0 
L 628 4666 
z
" transform="scale(0.015625)"/>
       <path id="DejaVuSans-44" d="M 1259 4147 
L 1259 519 
L 2022 519 
Q 2988 519 3436 956 
Q 3884 1394 3884 2338 
Q 3884 3275 3436 3711 
Q 2988 4147 2022 4147 
L 1259 4147 
z
M 628 4666 
L 1925 4666 
Q 3281 4666 3915 4102 
Q 4550 3538 4550 2338 
Q 4550 1131 3912 565 
Q 3275 0 1925 0 
L 628 0 
L 628 4666 
z
" transform="scale(0.015625)"/>
      </defs>
      <use xlink:href="#DejaVuSans-41"/>
      <use xlink:href="#DejaVuSans-75" transform="translate(68.408203 0)"/>
      <use xlink:href="#DejaVuSans-74" transform="translate(131.787109 0)"/>
      <use xlink:href="#DejaVuSans-6f" transform="translate(170.996094 0)"/>
      <use xlink:href="#DejaVuSans-53" transform="translate(232.177734 0)"/>
      <use xlink:href="#DejaVuSans-49" transform="translate(295.654297 0)"/>
      <use xlink:href="#DejaVuSans-4e" transform="translate(325.146484 0)"/>
      <use xlink:href="#DejaVuSans-44" transform="translate(399.951172 0)"/>
      <use xlink:href="#DejaVuSans-79" transform="translate(476.953125 0)"/>
     </g>
    </g>
    <g id="line2d_23">
     <path d="M 236.010937 282.976562 
L 246.010937 282.976562 
L 256.010937 282.976562 
" style="fill: none; stroke-dasharray: 3.5,5.775; stroke-dashoffset: 0; stroke: #008000; stroke-opacity: 0.8; stroke-width: 3.5"/>
    </g>
    <g id="text_22">
     <!-- Standard SINDy -->
     <g transform="translate(264.010937 286.476562) scale(0.1 -0.1)">
      <use xlink:href="#DejaVuSans-53"/>
      <use xlink:href="#DejaVuSans-74" transform="translate(63.476562 0)"/>
      <use xlink:href="#DejaVuSans-61" transform="translate(102.685547 0)"/>
      <use xlink:href="#DejaVuSans-6e" transform="translate(163.964844 0)"/>
      <use xlink:href="#DejaVuSans-64" transform="translate(227.34375 0)"/>
      <use xlink:href="#DejaVuSans-61" transform="translate(290.820312 0)"/>
      <use xlink:href="#DejaVuSans-72" transform="translate(352.099609 0)"/>
      <use xlink:href="#DejaVuSans-64" transform="translate(391.462891 0)"/>
      <use xlink:href="#DejaVuSans-20" transform="translate(454.939453 0)"/>
      <use xlink:href="#DejaVuSans-53" transform="translate(486.726562 0)"/>
      <use xlink:href="#DejaVuSans-49" transform="translate(550.203125 0)"/>
      <use xlink:href="#DejaVuSans-4e" transform="translate(579.695312 0)"/>
      <use xlink:href="#DejaVuSans-44" transform="translate(654.5 0)"/>
      <use xlink:href="#DejaVuSans-79" transform="translate(731.501953 0)"/>
     </g>
    </g>
    <g id="line2d_24">
     <path d="M 236.010937 297.654687 
L 246.010937 297.654687 
L 256.010937 297.654687 
" style="fill: none; stroke-dasharray: 22.4,5.6,3.5,5.6; stroke-dashoffset: 0; stroke: #0000ff; stroke-opacity: 0.8; stroke-width: 3.5"/>
    </g>
    <g id="text_23">
     <!-- Standard PySR -->
     <g transform="translate(264.010937 301.154687) scale(0.1 -0.1)">
      <defs>
       <path id="DejaVuSans-52" d="M 2841 2188 
Q 3044 2119 3236 1894 
Q 3428 1669 3622 1275 
L 4263 0 
L 3584 0 
L 2988 1197 
Q 2756 1666 2539 1819 
Q 2322 1972 1947 1972 
L 1259 1972 
L 1259 0 
L 628 0 
L 628 4666 
L 2053 4666 
Q 2853 4666 3247 4331 
Q 3641 3997 3641 3322 
Q 3641 2881 3436 2590 
Q 3231 2300 2841 2188 
z
M 1259 4147 
L 1259 2491 
L 2053 2491 
Q 2509 2491 2742 2702 
Q 2975 2913 2975 3322 
Q 2975 3731 2742 3939 
Q 2509 4147 2053 4147 
L 1259 4147 
z
" transform="scale(0.015625)"/>
      </defs>
      <use xlink:href="#DejaVuSans-53"/>
      <use xlink:href="#DejaVuSans-74" transform="translate(63.476562 0)"/>
      <use xlink:href="#DejaVuSans-61" transform="translate(102.685547 0)"/>
      <use xlink:href="#DejaVuSans-6e" transform="translate(163.964844 0)"/>
      <use xlink:href="#DejaVuSans-64" transform="translate(227.34375 0)"/>
      <use xlink:href="#DejaVuSans-61" transform="translate(290.820312 0)"/>
      <use xlink:href="#DejaVuSans-72" transform="translate(352.099609 0)"/>
      <use xlink:href="#DejaVuSans-64" transform="translate(391.462891 0)"/>
      <use xlink:href="#DejaVuSans-20" transform="translate(454.939453 0)"/>
      <use xlink:href="#DejaVuSans-50" transform="translate(486.726562 0)"/>
      <use xlink:href="#DejaVuSans-79" transform="translate(547.029297 0)"/>
      <use xlink:href="#DejaVuSans-53" transform="translate(606.208984 0)"/>
      <use xlink:href="#DejaVuSans-52" transform="translate(669.685547 0)"/>
     </g>
    </g>
   </g>
  </g>
 </g>
 <defs>
  <clipPath id="p36f40eac5c">
   <rect x="52.160938" y="22.318125" width="509.05" height="508.12"/>
  </clipPath>
 </defs>
</svg>
