<?xml version="1.0" encoding="utf-8" standalone="no"?>
<!DOCTYPE svg PUBLIC "-//W3C//DTD SVG 1.1//EN"
  "http://www.w3.org/Graphics/SVG/1.1/DTD/svg11.dtd">
<svg xmlns:xlink="http://www.w3.org/1999/xlink" width="870.787812pt" height="284.863125pt" viewBox="0 0 870.787812 284.863125" xmlns="http://www.w3.org/2000/svg" version="1.1">
 <metadata>
  <rdf:RDF xmlns:dc="http://purl.org/dc/elements/1.1/" xmlns:cc="http://creativecommons.org/ns#" xmlns:rdf="http://www.w3.org/1999/02/22-rdf-syntax-ns#">
   <cc:Work>
    <dc:type rdf:resource="http://purl.org/dc/dcmitype/StillImage"/>
    <dc:date>2026-04-02T00:17:26.996688</dc:date>
    <dc:format>image/svg+xml</dc:format>
    <dc:creator>
     <cc:Agent>
      <dc:title>Matplotlib v3.10.7, https://matplotlib.org/</dc:title>
     </cc:Agent>
    </dc:creator>
   </cc:Work>
  </rdf:RDF>
 </metadata>
 <defs>
  <style type="text/css">*{stroke-linejoin: round; stroke-linecap: butt}</style>
 </defs>
 <g id="figure_1">
  <g id="patch_1">
   <path d="M 0 284.863125 
L 870.787812 284.863125 
L 870.787812 0 
L 0 0 
z
" style="fill: #ffffff"/>
  </g>
  <g id="axes_1">
   <g id="patch_2">
    <path d="M 54.096563 137.5575 
L 856.707812 137.5575 
L 856.707812 41.62375 
L 54.096563 41.62375 
z
" style="fill: #ffffff"/>
   </g>
   <g id="matplotlib.axis_1">
    <g id="xtick_1">
     <g id="line2d_1">
      <path d="M 90.578892 137.5575 
L 90.578892 41.62375 
" clip-path="url(#p128d087f8f)" style="fill: none; stroke: #cccccc; stroke-width: 0.8; stroke-linecap: round"/>
     </g>
    </g>
    <g id="xtick_2">
     <g id="line2d_2">
      <path d="M 236.50821 137.5575 
L 236.50821 41.62375 
" clip-path="url(#p128d087f8f)" style="fill: none; stroke: #cccccc; stroke-width: 0.8; stroke-linecap: round"/>
     </g>
    </g>
    <g id="xtick_3">
     <g id="line2d_3">
      <path d="M 382.437528 137.5575 
L 382.437528 41.62375 
" clip-path="url(#p128d087f8f)" style="fill: none; stroke: #cccccc; stroke-width: 0.8; stroke-linecap: round"/>
     </g>
    </g>
    <g id="xtick_4">
     <g id="line2d_4">
      <path d="M 528.366847 137.5575 
L 528.366847 41.62375 
" clip-path="url(#p128d087f8f)" style="fill: none; stroke: #cccccc; stroke-width: 0.8; stroke-linecap: round"/>
     </g>
    </g>
    <g id="xtick_5">
     <g id="line2d_5">
      <path d="M 674.296165 137.5575 
L 674.296165 41.62375 
" clip-path="url(#p128d087f8f)" style="fill: none; stroke: #cccccc; stroke-width: 0.8; stroke-linecap: round"/>
     </g>
    </g>
    <g id="xtick_6">
     <g id="line2d_6">
      <path d="M 820.225483 137.5575 
L 820.225483 41.62375 
" clip-path="url(#p128d087f8f)" style="fill: none; stroke: #cccccc; stroke-width: 0.8; stroke-linecap: round"/>
     </g>
    </g>
   </g>
   <g id="matplotlib.axis_2">
    <g id="ytick_1">
     <g id="line2d_7">
      <path d="M 54.096563 114.301615 
L 856.707812 114.301615 
" clip-path="url(#p128d087f8f)" style="fill: none; stroke: #cccccc; stroke-width: 0.8; stroke-linecap: round"/>
     </g>
     <g id="text_1">
      <!-- −2 -->
      <g style="fill: #262626" transform="translate(32.354375 118.100834) scale(0.1 -0.1)">
       <defs>
        <path id="DejaVuSerif-2212" d="M 678 2259 
L 4684 2259 
L 4684 1753 
L 678 1753 
L 678 2259 
z
" transform="scale(0.015625)"/>
        <path id="DejaVuSerif-32" d="M 819 3553 
L 469 3553 
L 469 4384 
Q 803 4563 1142 4656 
Q 1481 4750 1806 4750 
Q 2534 4750 2956 4397 
Q 3378 4044 3378 3438 
Q 3378 2753 2422 1800 
Q 2347 1728 2309 1691 
L 1131 513 
L 3078 513 
L 3078 1088 
L 3444 1088 
L 3444 0 
L 434 0 
L 434 341 
L 1850 1753 
Q 2319 2222 2519 2614 
Q 2719 3006 2719 3438 
Q 2719 3909 2473 4175 
Q 2228 4441 1797 4441 
Q 1350 4441 1106 4219 
Q 863 3997 819 3553 
z
" transform="scale(0.015625)"/>
       </defs>
       <use xlink:href="#DejaVuSerif-2212"/>
       <use xlink:href="#DejaVuSerif-32" transform="translate(83.789062 0)"/>
      </g>
     </g>
    </g>
    <g id="ytick_2">
     <g id="line2d_8">
      <path d="M 54.096563 86.675031 
L 856.707812 86.675031 
" clip-path="url(#p128d087f8f)" style="fill: none; stroke: #cccccc; stroke-width: 0.8; stroke-linecap: round"/>
     </g>
     <g id="text_2">
      <!-- 0 -->
      <g style="fill: #262626" transform="translate(40.734063 90.47425) scale(0.1 -0.1)">
       <defs>
        <path id="DejaVuSerif-30" d="M 2034 219 
Q 2513 219 2750 744 
Q 2988 1269 2988 2328 
Q 2988 3391 2750 3916 
Q 2513 4441 2034 4441 
Q 1556 4441 1318 3916 
Q 1081 3391 1081 2328 
Q 1081 1269 1318 744 
Q 1556 219 2034 219 
z
M 2034 -91 
Q 1275 -91 848 546 
Q 422 1184 422 2328 
Q 422 3475 848 4112 
Q 1275 4750 2034 4750 
Q 2797 4750 3222 4112 
Q 3647 3475 3647 2328 
Q 3647 1184 3222 546 
Q 2797 -91 2034 -91 
z
" transform="scale(0.015625)"/>
       </defs>
       <use xlink:href="#DejaVuSerif-30"/>
      </g>
     </g>
    </g>
    <g id="ytick_3">
     <g id="line2d_9">
      <path d="M 54.096563 59.048448 
L 856.707812 59.048448 
" clip-path="url(#p128d087f8f)" style="fill: none; stroke: #cccccc; stroke-width: 0.8; stroke-linecap: round"/>
     </g>
     <g id="text_3">
      <!-- 2 -->
      <g style="fill: #262626" transform="translate(40.734063 62.847667) scale(0.1 -0.1)">
       <use xlink:href="#DejaVuSerif-32"/>
      </g>
     </g>
    </g>
    <g id="text_4">
     <!-- $x0$ -->
     <g style="fill: #262626" transform="translate(25.85875 96.970625) rotate(-90) scale(0.12 -0.12)">
      <defs>
       <path id="DejaVuSans-Oblique-78" d="M 3841 3500 
L 2234 1784 
L 3219 0 
L 2559 0 
L 1819 1388 
L 531 0 
L -166 0 
L 1556 1844 
L 641 3500 
L 1300 3500 
L 1972 2234 
L 3144 3500 
L 3841 3500 
z
" transform="scale(0.015625)"/>
       <path id="DejaVuSans-30" d="M 2034 4250 
Q 1547 4250 1301 3770 
Q 1056 3291 1056 2328 
Q 1056 1369 1301 889 
Q 1547 409 2034 409 
Q 2525 409 2770 889 
Q 3016 1369 3016 2328 
Q 3016 3291 2770 3770 
Q 2525 4250 2034 4250 
z
M 2034 4750 
Q 2819 4750 3233 4129 
Q 3647 3509 3647 2328 
Q 3647 1150 3233 529 
Q 2819 -91 2034 -91 
Q 1250 -91 836 529 
Q 422 1150 422 2328 
Q 422 3509 836 4129 
Q 1250 4750 2034 4750 
z
" transform="scale(0.015625)"/>
      </defs>
      <use xlink:href="#DejaVuSans-Oblique-78" transform="translate(0 0.78125)"/>
      <use xlink:href="#DejaVuSans-30" transform="translate(59.179688 0.78125)"/>
     </g>
    </g>
   </g>
   <g id="line2d_10">
    <path d="M 90.578892 59.048448 
L 100.814415 59.902744 
L 113.974374 60.768227 
L 132.983203 61.778394 
L 168.076426 63.371318 
L 229.489566 66.167066 
L 264.582788 67.995996 
L 292.364923 69.652173 
L 315.760405 71.25386 
L 336.231452 72.865255 
L 353.778063 74.4586 
L 368.400239 75.992105 
L 381.560198 77.582826 
L 393.257939 79.207232 
L 403.493462 80.825311 
L 413.728985 82.668008 
L 422.502291 84.463868 
L 431.275597 86.490541 
L 440.048903 88.774981 
L 447.359991 90.888732 
L 456.133296 93.674902 
L 466.36882 97.20863 
L 488.302084 104.965526 
L 495.613172 107.243467 
L 501.462042 108.850167 
L 507.310913 110.230339 
L 513.159783 111.382113 
L 519.008654 112.315351 
L 524.857524 113.045798 
L 532.168612 113.707386 
L 539.4797 114.145322 
L 548.253006 114.446786 
L 558.48853 114.579264 
L 571.648488 114.526175 
L 590.657317 114.199793 
L 618.439452 113.475 
L 660.843763 112.134367 
L 710.559162 110.349468 
L 755.887908 108.507222 
L 793.905566 106.750147 
L 820.225483 105.377893 
L 820.225483 105.377893 
" clip-path="url(#p128d087f8f)" style="fill: none; stroke: #000000; stroke-opacity: 0.4; stroke-width: 6; stroke-linecap: round"/>
   </g>
   <g id="line2d_11">
    <path d="M 90.578892 59.048448 
L 105.201068 60.476281 
L 119.823244 62.110822 
L 134.445421 63.950676 
L 149.067597 66.002728 
L 163.689773 68.281733 
L 176.849731 70.545419 
L 190.00969 73.033105 
L 201.707431 75.454229 
L 213.405172 78.096149 
L 225.102913 80.984552 
L 235.338436 83.736543 
L 245.573959 86.714601 
L 255.809483 89.921385 
L 266.045006 93.343187 
L 277.742747 97.477263 
L 293.827141 103.416628 
L 315.760405 111.506296 
L 325.995928 115.045355 
L 334.769234 117.874105 
L 343.54254 120.477762 
L 352.315845 122.832644 
L 361.089151 124.925173 
L 369.862457 126.751881 
L 378.635763 128.319407 
L 387.409068 129.642866 
L 396.182374 130.736722 
L 404.95568 131.61389 
L 413.728985 132.286639 
L 423.964509 132.828598 
L 434.200032 133.125392 
L 444.435555 133.193098 
L 454.671079 133.046249 
L 466.36882 132.633699 
L 478.066561 131.981855 
L 489.764302 131.112554 
L 502.92426 129.900579 
L 516.084219 128.467926 
L 530.706395 126.649566 
L 546.790789 124.413314 
L 564.3374 121.739332 
L 581.884011 118.846674 
L 599.430623 115.740376 
L 616.977234 112.409163 
L 633.061628 109.127705 
L 647.683804 105.916289 
L 660.843763 102.800472 
L 672.541504 99.81683 
L 684.239245 96.59246 
L 694.474768 93.538993 
L 704.710291 90.244734 
L 714.945815 86.693572 
L 725.181338 82.875978 
L 735.416861 78.802542 
L 747.114602 73.902205 
L 783.670043 58.343146 
L 792.443348 54.947039 
L 801.216654 51.802426 
L 808.527742 49.397892 
L 815.83883 47.20118 
L 820.225483 45.984375 
L 820.225483 45.984375 
" clip-path="url(#p128d087f8f)" style="fill: none; stroke-dasharray: 22.4,5.6,3.5,5.6; stroke-dashoffset: 0; stroke: #0000ff; stroke-opacity: 0.8; stroke-width: 3.5"/>
   </g>
   <g id="patch_3">
    <path d="M 54.096563 137.5575 
L 54.096563 41.62375 
" style="fill: none; stroke: #cccccc; stroke-width: 0.8; stroke-linejoin: miter; stroke-linecap: square"/>
   </g>
   <g id="patch_4">
    <path d="M 856.707812 137.5575 
L 856.707812 41.62375 
" style="fill: none; stroke: #cccccc; stroke-width: 0.8; stroke-linejoin: miter; stroke-linecap: square"/>
   </g>
   <g id="patch_5">
    <path d="M 54.096563 137.5575 
L 856.707812 137.5575 
" style="fill: none; stroke: #cccccc; stroke-width: 0.8; stroke-linejoin: miter; stroke-linecap: square"/>
   </g>
   <g id="patch_6">
    <path d="M 54.096563 41.62375 
L 856.707812 41.62375 
" style="fill: none; stroke: #cccccc; stroke-width: 0.8; stroke-linejoin: miter; stroke-linecap: square"/>
   </g>
   <g id="line2d_12">
    <path d="M 90.578892 59.048448 
L 103.738851 60.183901 
L 121.285462 61.46192 
L 146.143161 63.022624 
L 248.498395 69.208974 
L 271.893877 70.944795 
L 292.364923 72.683293 
L 308.449317 74.259703 
L 323.071493 75.917773 
L 336.231452 77.650627 
L 347.929193 79.43113 
L 358.164716 81.216743 
L 366.938022 82.956954 
L 375.711327 84.923431 
L 384.484633 87.143522 
L 391.795721 89.203703 
L 399.106809 91.459624 
L 407.880115 94.408861 
L 418.115638 98.096867 
L 434.200032 103.935464 
L 441.51112 106.339987 
L 447.359991 108.072226 
L 453.208861 109.609003 
L 459.057732 110.939327 
L 464.906602 112.063889 
L 470.755472 112.995055 
L 478.066561 113.923669 
L 485.377649 114.617255 
L 494.150954 115.185152 
L 502.92426 115.528337 
L 514.622001 115.736235 
L 527.78196 115.730244 
L 545.328571 115.470471 
L 567.261835 114.909143 
L 599.430623 113.843051 
L 644.759369 112.10402 
L 694.474768 109.982509 
L 736.879079 107.965401 
L 771.972302 106.083178 
L 801.216654 104.295721 
L 820.225483 102.981707 
L 820.225483 102.981707 
" clip-path="url(#p128d087f8f)" style="fill: none; stroke-dasharray: 12.95,5.6; stroke-dashoffset: 0; stroke: #ff0000; stroke-opacity: 0.8; stroke-width: 3.5"/>
   </g>
  </g>
  <g id="axes_2">
   <g id="patch_7">
    <path d="M 54.096563 245.37125 
L 856.707812 245.37125 
L 856.707812 149.4375 
L 54.096563 149.4375 
z
" style="fill: #ffffff"/>
   </g>
   <g id="matplotlib.axis_3">
    <g id="xtick_7">
     <g id="line2d_13">
      <path d="M 90.578892 245.37125 
L 90.578892 149.4375 
" clip-path="url(#p0ac2dd84d8)" style="fill: none; stroke: #cccccc; stroke-width: 0.8; stroke-linecap: round"/>
     </g>
     <g id="text_5">
      <!-- 0 -->
      <g style="fill: #262626" transform="translate(87.397642 259.969687) scale(0.1 -0.1)">
       <use xlink:href="#DejaVuSerif-30"/>
      </g>
     </g>
    </g>
    <g id="xtick_8">
     <g id="line2d_14">
      <path d="M 236.50821 245.37125 
L 236.50821 149.4375 
" clip-path="url(#p0ac2dd84d8)" style="fill: none; stroke: #cccccc; stroke-width: 0.8; stroke-linecap: round"/>
     </g>
     <g id="text_6">
      <!-- 1 -->
      <g style="fill: #262626" transform="translate(233.32696 259.969687) scale(0.1 -0.1)">
       <defs>
        <path id="DejaVuSerif-31" d="M 909 0 
L 909 331 
L 1722 331 
L 1722 4213 
L 781 3603 
L 781 4013 
L 1919 4750 
L 2350 4750 
L 2350 331 
L 3163 331 
L 3163 0 
L 909 0 
z
" transform="scale(0.015625)"/>
       </defs>
       <use xlink:href="#DejaVuSerif-31"/>
      </g>
     </g>
    </g>
    <g id="xtick_9">
     <g id="line2d_15">
      <path d="M 382.437528 245.37125 
L 382.437528 149.4375 
" clip-path="url(#p0ac2dd84d8)" style="fill: none; stroke: #cccccc; stroke-width: 0.8; stroke-linecap: round"/>
     </g>
     <g id="text_7">
      <!-- 2 -->
      <g style="fill: #262626" transform="translate(379.256278 259.969687) scale(0.1 -0.1)">
       <use xlink:href="#DejaVuSerif-32"/>
      </g>
     </g>
    </g>
    <g id="xtick_10">
     <g id="line2d_16">
      <path d="M 528.366847 245.37125 
L 528.366847 149.4375 
" clip-path="url(#p0ac2dd84d8)" style="fill: none; stroke: #cccccc; stroke-width: 0.8; stroke-linecap: round"/>
     </g>
     <g id="text_8">
      <!-- 3 -->
      <g style="fill: #262626" transform="translate(525.185597 259.969687) scale(0.1 -0.1)">
       <defs>
        <path id="DejaVuSerif-33" d="M 622 4469 
Q 988 4606 1323 4678 
Q 1659 4750 1953 4750 
Q 2638 4750 3022 4454 
Q 3406 4159 3406 3634 
Q 3406 3213 3140 2930 
Q 2875 2647 2388 2547 
Q 2963 2466 3280 2130 
Q 3597 1794 3597 1259 
Q 3597 606 3158 257 
Q 2719 -91 1894 -91 
Q 1528 -91 1179 -12 
Q 831 66 488 225 
L 488 1131 
L 838 1131 
Q 869 681 1141 450 
Q 1413 219 1906 219 
Q 2384 219 2661 495 
Q 2938 772 2938 1253 
Q 2938 1803 2653 2086 
Q 2369 2369 1819 2369 
L 1522 2369 
L 1522 2688 
L 1678 2688 
Q 2225 2688 2498 2914 
Q 2772 3141 2772 3597 
Q 2772 4006 2547 4223 
Q 2322 4441 1900 4441 
Q 1478 4441 1245 4241 
Q 1013 4041 972 3647 
L 622 3647 
L 622 4469 
z
" transform="scale(0.015625)"/>
       </defs>
       <use xlink:href="#DejaVuSerif-33"/>
      </g>
     </g>
    </g>
    <g id="xtick_11">
     <g id="line2d_17">
      <path d="M 674.296165 245.37125 
L 674.296165 149.4375 
" clip-path="url(#p0ac2dd84d8)" style="fill: none; stroke: #cccccc; stroke-width: 0.8; stroke-linecap: round"/>
     </g>
     <g id="text_9">
      <!-- 4 -->
      <g style="fill: #262626" transform="translate(671.114915 259.969687) scale(0.1 -0.1)">
       <defs>
        <path id="DejaVuSerif-34" d="M 2234 1581 
L 2234 4063 
L 641 1581 
L 2234 1581 
z
M 3609 0 
L 1484 0 
L 1484 331 
L 2234 331 
L 2234 1247 
L 197 1247 
L 197 1588 
L 2241 4750 
L 2859 4750 
L 2859 1581 
L 3750 1581 
L 3750 1247 
L 2859 1247 
L 2859 331 
L 3609 331 
L 3609 0 
z
" transform="scale(0.015625)"/>
       </defs>
       <use xlink:href="#DejaVuSerif-34"/>
      </g>
     </g>
    </g>
    <g id="xtick_12">
     <g id="line2d_18">
      <path d="M 820.225483 245.37125 
L 820.225483 149.4375 
" clip-path="url(#p0ac2dd84d8)" style="fill: none; stroke: #cccccc; stroke-width: 0.8; stroke-linecap: round"/>
     </g>
     <g id="text_10">
      <!-- 5 -->
      <g style="fill: #262626" transform="translate(817.044233 259.969687) scale(0.1 -0.1)">
       <defs>
        <path id="DejaVuSerif-35" d="M 3219 4666 
L 3219 4153 
L 1081 4153 
L 1081 2816 
Q 1244 2928 1461 2984 
Q 1678 3041 1947 3041 
Q 2703 3041 3140 2622 
Q 3578 2203 3578 1478 
Q 3578 738 3136 323 
Q 2694 -91 1894 -91 
Q 1572 -91 1234 -12 
Q 897 66 544 225 
L 544 1131 
L 897 1131 
Q 925 688 1179 453 
Q 1434 219 1894 219 
Q 2388 219 2653 544 
Q 2919 869 2919 1478 
Q 2919 2084 2655 2407 
Q 2391 2731 1894 2731 
Q 1613 2731 1398 2631 
Q 1184 2531 1019 2322 
L 750 2322 
L 750 4666 
L 3219 4666 
z
" transform="scale(0.015625)"/>
       </defs>
       <use xlink:href="#DejaVuSerif-35"/>
      </g>
     </g>
    </g>
    <g id="text_11">
     <!-- Time -->
     <g style="fill: #262626" transform="translate(440.24 275.1675) scale(0.12 -0.12)">
      <defs>
       <path id="DejaVuSerif-54" d="M 1222 0 
L 1222 331 
L 1819 331 
L 1819 4294 
L 447 4294 
L 447 3566 
L 63 3566 
L 63 4666 
L 4206 4666 
L 4206 3566 
L 3822 3566 
L 3822 4294 
L 2450 4294 
L 2450 331 
L 3047 331 
L 3047 0 
L 1222 0 
z
" transform="scale(0.015625)"/>
       <path id="DejaVuSerif-69" d="M 622 4353 
Q 622 4497 726 4603 
Q 831 4709 978 4709 
Q 1122 4709 1226 4603 
Q 1331 4497 1331 4353 
Q 1331 4206 1228 4103 
Q 1125 4000 978 4000 
Q 831 4000 726 4103 
Q 622 4206 622 4353 
z
M 1356 331 
L 1900 331 
L 1900 0 
L 231 0 
L 231 331 
L 781 331 
L 781 2988 
L 231 2988 
L 231 3322 
L 1356 3322 
L 1356 331 
z
" transform="scale(0.015625)"/>
       <path id="DejaVuSerif-6d" d="M 3316 2675 
Q 3481 3041 3739 3227 
Q 3997 3413 4341 3413 
Q 4863 3413 5119 3089 
Q 5375 2766 5375 2113 
L 5375 331 
L 5894 331 
L 5894 0 
L 4300 0 
L 4300 331 
L 4800 331 
L 4800 2047 
Q 4800 2556 4650 2772 
Q 4500 2988 4153 2988 
Q 3769 2988 3567 2697 
Q 3366 2406 3366 1850 
L 3366 331 
L 3866 331 
L 3866 0 
L 2291 0 
L 2291 331 
L 2791 331 
L 2791 2069 
Q 2791 2566 2641 2777 
Q 2491 2988 2144 2988 
Q 1759 2988 1557 2697 
Q 1356 2406 1356 1850 
L 1356 331 
L 1856 331 
L 1856 0 
L 263 0 
L 263 331 
L 781 331 
L 781 2994 
L 231 2994 
L 231 3322 
L 1356 3322 
L 1356 2731 
Q 1516 3063 1762 3238 
Q 2009 3413 2322 3413 
Q 2709 3413 2968 3220 
Q 3228 3028 3316 2675 
z
" transform="scale(0.015625)"/>
       <path id="DejaVuSerif-65" d="M 3469 1600 
L 991 1600 
L 991 1575 
Q 991 903 1244 561 
Q 1497 219 1991 219 
Q 2369 219 2611 417 
Q 2853 616 2950 1006 
L 3413 1006 
Q 3275 459 2904 184 
Q 2534 -91 1931 -91 
Q 1203 -91 761 389 
Q 319 869 319 1663 
Q 319 2450 753 2931 
Q 1188 3413 1894 3413 
Q 2647 3413 3050 2948 
Q 3453 2484 3469 1600 
z
M 2791 1931 
Q 2772 2513 2545 2808 
Q 2319 3103 1894 3103 
Q 1497 3103 1269 2806 
Q 1041 2509 991 1931 
L 2791 1931 
z
" transform="scale(0.015625)"/>
      </defs>
      <use xlink:href="#DejaVuSerif-54"/>
      <use xlink:href="#DejaVuSerif-69" transform="translate(66.699219 0)"/>
      <use xlink:href="#DejaVuSerif-6d" transform="translate(98.681641 0)"/>
      <use xlink:href="#DejaVuSerif-65" transform="translate(193.505859 0)"/>
     </g>
    </g>
   </g>
   <g id="matplotlib.axis_4">
    <g id="ytick_4">
     <g id="line2d_19">
      <path d="M 54.096563 226.360784 
L 856.707812 226.360784 
" clip-path="url(#p0ac2dd84d8)" style="fill: none; stroke: #cccccc; stroke-width: 0.8; stroke-linecap: round"/>
     </g>
     <g id="text_12">
      <!-- −2.5 -->
      <g style="fill: #262626" transform="translate(22.81375 230.160003) scale(0.1 -0.1)">
       <defs>
        <path id="DejaVuSerif-2e" d="M 603 325 
Q 603 500 722 622 
Q 841 744 1019 744 
Q 1191 744 1312 622 
Q 1434 500 1434 325 
Q 1434 153 1312 31 
Q 1191 -91 1019 -91 
Q 841 -91 722 29 
Q 603 150 603 325 
z
" transform="scale(0.015625)"/>
       </defs>
       <use xlink:href="#DejaVuSerif-2212"/>
       <use xlink:href="#DejaVuSerif-32" transform="translate(83.789062 0)"/>
       <use xlink:href="#DejaVuSerif-2e" transform="translate(147.412109 0)"/>
       <use xlink:href="#DejaVuSerif-35" transform="translate(179.199219 0)"/>
      </g>
     </g>
    </g>
    <g id="ytick_5">
     <g id="line2d_20">
      <path d="M 54.096563 200.575382 
L 856.707812 200.575382 
" clip-path="url(#p0ac2dd84d8)" style="fill: none; stroke: #cccccc; stroke-width: 0.8; stroke-linecap: round"/>
     </g>
     <g id="text_13">
      <!-- 0.0 -->
      <g style="fill: #262626" transform="translate(31.193438 204.374601) scale(0.1 -0.1)">
       <use xlink:href="#DejaVuSerif-30"/>
       <use xlink:href="#DejaVuSerif-2e" transform="translate(63.623047 0)"/>
       <use xlink:href="#DejaVuSerif-30" transform="translate(95.410156 0)"/>
      </g>
     </g>
    </g>
    <g id="ytick_6">
     <g id="line2d_21">
      <path d="M 54.096563 174.789979 
L 856.707812 174.789979 
" clip-path="url(#p0ac2dd84d8)" style="fill: none; stroke: #cccccc; stroke-width: 0.8; stroke-linecap: round"/>
     </g>
     <g id="text_14">
      <!-- 2.5 -->
      <g style="fill: #262626" transform="translate(31.193438 178.589198) scale(0.1 -0.1)">
       <use xlink:href="#DejaVuSerif-32"/>
       <use xlink:href="#DejaVuSerif-2e" transform="translate(63.623047 0)"/>
       <use xlink:href="#DejaVuSerif-35" transform="translate(95.410156 0)"/>
      </g>
     </g>
    </g>
    <g id="text_15">
     <!-- $x1$ -->
     <g style="fill: #262626" transform="translate(16.318125 204.784375) rotate(-90) scale(0.12 -0.12)">
      <defs>
       <path id="DejaVuSans-31" d="M 794 531 
L 1825 531 
L 1825 4091 
L 703 3866 
L 703 4441 
L 1819 4666 
L 2450 4666 
L 2450 531 
L 3481 531 
L 3481 0 
L 794 0 
L 794 531 
z
" transform="scale(0.015625)"/>
      </defs>
      <use xlink:href="#DejaVuSans-Oblique-78" transform="translate(0 0.09375)"/>
      <use xlink:href="#DejaVuSans-31" transform="translate(59.179688 0.09375)"/>
     </g>
    </g>
   </g>
   <g id="line2d_22">
    <path d="M 90.578892 210.889543 
L 94.965545 209.781659 
L 99.352198 208.896684 
L 105.201068 207.976497 
L 111.049939 207.286135 
L 118.361027 206.658761 
L 127.134332 206.135476 
L 137.369856 205.745867 
L 150.529814 205.474406 
L 168.076426 205.350063 
L 191.471908 205.4301 
L 220.71626 205.763351 
L 251.42283 206.335721 
L 277.742747 207.036601 
L 299.676011 207.82748 
L 317.222623 208.658654 
L 333.307016 209.627177 
L 347.929193 210.737504 
L 359.626934 211.842037 
L 369.862457 213.016043 
L 378.635763 214.214576 
L 387.409068 215.627428 
L 396.182374 217.293971 
L 403.493462 218.90774 
L 410.80455 220.752847 
L 418.115638 222.857546 
L 425.426726 225.22821 
L 432.737814 227.842836 
L 441.51112 231.223622 
L 451.746643 235.181456 
L 457.595514 237.19508 
L 461.982167 238.451984 
L 464.906602 239.119462 
L 467.831037 239.615924 
L 470.755472 239.909264 
L 473.679908 239.971753 
L 476.604343 239.786532 
L 479.528778 239.343518 
L 482.453213 238.639039 
L 485.377649 237.67583 
L 488.302084 236.463036 
L 491.226519 235.01621 
L 494.150954 233.357315 
L 498.537607 230.535156 
L 504.386478 226.367822 
L 516.084219 217.914929 
L 520.470871 215.001737 
L 524.857524 212.342622 
L 529.244177 209.98925 
L 533.63083 207.964208 
L 538.017483 206.220616 
L 542.404136 204.731499 
L 546.790789 203.472105 
L 551.177441 202.41593 
L 557.026312 201.274843 
L 562.875182 200.38124 
L 570.18627 199.534973 
L 577.497359 198.91269 
L 586.270664 198.376281 
L 597.968405 197.896051 
L 614.052799 197.49085 
L 638.910498 197.126921 
L 785.13226 195.363231 
L 817.301048 194.643486 
L 820.225483 194.565533 
L 820.225483 194.565533 
" clip-path="url(#p0ac2dd84d8)" style="fill: none; stroke: #000000; stroke-opacity: 0.4; stroke-width: 6; stroke-linecap: round"/>
   </g>
   <g id="line2d_23">
    <path d="M 90.578892 210.889543 
L 118.361027 213.888704 
L 150.529814 217.376201 
L 168.076426 219.527151 
L 182.698602 221.545877 
L 195.85856 223.578453 
L 209.018519 225.842638 
L 220.71626 228.066104 
L 232.414001 230.498998 
L 248.498395 234.135616 
L 260.196136 236.682746 
L 268.969441 238.349991 
L 276.280529 239.490096 
L 282.1294 240.194062 
L 287.97827 240.67941 
L 293.827141 240.915937 
L 299.676011 240.87423 
L 304.062664 240.643108 
L 308.449317 240.227575 
L 312.83597 239.616198 
L 318.68484 238.525944 
L 324.533711 237.176946 
L 330.382581 235.609102 
L 337.693669 233.400123 
L 346.466975 230.478868 
L 358.164716 226.318176 
L 377.173545 219.526851 
L 388.871286 215.635235 
L 400.569027 211.954101 
L 412.266768 208.489085 
L 423.964509 205.245774 
L 435.66225 202.225347 
L 447.359991 199.424568 
L 460.519949 196.520404 
L 472.21769 194.164589 
L 483.915431 192.034465 
L 495.613172 190.133675 
L 507.310913 188.457016 
L 519.008654 186.990433 
L 532.168612 185.562771 
L 546.790789 184.197599 
L 567.261835 182.522923 
L 622.826105 178.123558 
L 635.986063 176.779307 
L 647.683804 175.378578 
L 657.919327 173.9554 
L 668.154851 172.31476 
L 678.390374 170.432379 
L 687.16368 168.599431 
L 697.399203 166.208455 
L 709.096944 163.215862 
L 731.030208 157.506433 
L 736.879079 156.199961 
L 742.727949 155.122958 
L 747.114602 154.50319 
L 751.501255 154.068287 
L 755.887908 153.835094 
L 760.274561 153.816288 
L 764.661214 154.02038 
L 769.047866 154.451707 
L 773.434519 155.110443 
L 777.821172 155.992455 
L 782.207825 157.08005 
L 788.056695 158.799035 
L 793.905566 160.765197 
L 801.216654 163.477549 
L 811.452177 167.556548 
L 820.225483 171.134981 
L 820.225483 171.134981 
" clip-path="url(#p0ac2dd84d8)" style="fill: none; stroke-dasharray: 22.4,5.6,3.5,5.6; stroke-dashoffset: 0; stroke: #0000ff; stroke-opacity: 0.8; stroke-width: 3.5"/>
   </g>
   <g id="patch_8">
    <path d="M 54.096563 245.37125 
L 54.096563 149.4375 
" style="fill: none; stroke: #cccccc; stroke-width: 0.8; stroke-linejoin: miter; stroke-linecap: square"/>
   </g>
   <g id="patch_9">
    <path d="M 856.707812 245.37125 
L 856.707812 149.4375 
" style="fill: none; stroke: #cccccc; stroke-width: 0.8; stroke-linejoin: miter; stroke-linecap: square"/>
   </g>
   <g id="patch_10">
    <path d="M 54.096563 245.37125 
L 856.707812 245.37125 
" style="fill: none; stroke: #cccccc; stroke-width: 0.8; stroke-linejoin: miter; stroke-linecap: square"/>
   </g>
   <g id="patch_11">
    <path d="M 54.096563 149.4375 
L 856.707812 149.4375 
" style="fill: none; stroke: #cccccc; stroke-width: 0.8; stroke-linejoin: miter; stroke-linecap: square"/>
   </g>
   <g id="line2d_24">
    <path d="M 90.578892 210.889543 
L 97.88998 209.893204 
L 105.201068 209.113007 
L 113.974374 208.397338 
L 124.209897 207.800696 
L 135.907638 207.346306 
L 150.529814 207.005362 
L 168.076426 206.842424 
L 188.547472 206.89219 
L 210.480737 207.167968 
L 232.414001 207.665894 
L 251.42283 208.301352 
L 268.969441 209.109173 
L 283.591617 209.985863 
L 296.751576 210.987411 
L 308.449317 212.104365 
L 318.68484 213.308263 
L 327.458146 214.548851 
L 336.231452 216.020943 
L 343.54254 217.454238 
L 350.853628 219.102955 
L 358.164716 220.989996 
L 365.475804 223.145349 
L 372.786892 225.575161 
L 380.09798 228.251515 
L 390.333504 232.289527 
L 400.569027 236.325445 
L 404.95568 237.865508 
L 409.342333 239.185804 
L 413.728985 240.206591 
L 416.653421 240.679183 
L 419.577856 240.954978 
L 422.502291 241.006814 
L 425.426726 240.806589 
L 428.351162 240.299821 
L 431.275597 239.444468 
L 434.200032 238.298653 
L 437.124467 236.919033 
L 441.51112 234.522611 
L 447.359991 230.947549 
L 463.444384 220.806678 
L 469.293255 217.414057 
L 476.604343 213.429665 
L 480.990996 211.238429 
L 485.377649 209.306429 
L 489.764302 207.612495 
L 494.150954 206.13502 
L 498.537607 204.851954 
L 504.386478 203.404682 
L 510.235348 202.209089 
L 516.084219 201.220274 
L 523.395307 200.222247 
L 532.168612 199.297708 
L 540.941918 198.597371 
L 551.177441 197.989768 
L 564.3374 197.43828 
L 580.421794 196.991481 
L 603.817276 196.585923 
L 644.759369 196.147968 
L 716.408032 195.37147 
L 752.963473 194.75079 
L 780.745607 194.076484 
L 804.141089 193.293261 
L 820.225483 192.585424 
L 820.225483 192.585424 
" clip-path="url(#p0ac2dd84d8)" style="fill: none; stroke-dasharray: 12.95,5.6; stroke-dashoffset: 0; stroke: #ff0000; stroke-opacity: 0.8; stroke-width: 3.5"/>
   </g>
  </g>
  <g id="text_16">
   <!-- State Variable Simulation Comparison -->
   <g style="fill: #262626" transform="translate(281.440313 20.1175) scale(0.16 -0.16)">
    <defs>
     <path id="DejaVuSerif-53" d="M 594 225 
L 594 1288 
L 953 1284 
Q 969 753 1261 498 
Q 1553 244 2150 244 
Q 2706 244 2998 464 
Q 3291 684 3291 1106 
Q 3291 1444 3114 1625 
Q 2938 1806 2369 1978 
L 1753 2163 
Q 1084 2366 811 2669 
Q 538 2972 538 3500 
Q 538 4094 959 4422 
Q 1381 4750 2144 4750 
Q 2469 4750 2856 4679 
Q 3244 4609 3681 4475 
L 3681 3481 
L 3328 3481 
Q 3275 3975 2998 4195 
Q 2722 4416 2156 4416 
Q 1663 4416 1405 4214 
Q 1147 4013 1147 3628 
Q 1147 3294 1340 3103 
Q 1534 2913 2163 2725 
L 2741 2553 
Q 3375 2363 3645 2067 
Q 3916 1772 3916 1275 
Q 3916 597 3481 253 
Q 3047 -91 2188 -91 
Q 1803 -91 1404 -12 
Q 1006 66 594 225 
z
" transform="scale(0.015625)"/>
     <path id="DejaVuSerif-74" d="M 691 2988 
L 184 2988 
L 184 3322 
L 691 3322 
L 691 4353 
L 1269 4353 
L 1269 3322 
L 2350 3322 
L 2350 2988 
L 1269 2988 
L 1269 878 
Q 1269 456 1350 337 
Q 1431 219 1650 219 
Q 1875 219 1978 351 
Q 2081 484 2088 781 
L 2522 781 
Q 2497 328 2275 118 
Q 2053 -91 1600 -91 
Q 1103 -91 897 129 
Q 691 350 691 878 
L 691 2988 
z
" transform="scale(0.015625)"/>
     <path id="DejaVuSerif-61" d="M 2547 1044 
L 2547 1747 
L 1806 1747 
Q 1378 1747 1168 1562 
Q 959 1378 959 997 
Q 959 650 1171 447 
Q 1384 244 1747 244 
Q 2106 244 2326 466 
Q 2547 688 2547 1044 
z
M 3122 2075 
L 3122 331 
L 3634 331 
L 3634 0 
L 2547 0 
L 2547 359 
Q 2356 128 2106 18 
Q 1856 -91 1522 -91 
Q 969 -91 644 203 
Q 319 497 319 997 
Q 319 1513 691 1797 
Q 1063 2081 1741 2081 
L 2547 2081 
L 2547 2309 
Q 2547 2688 2317 2895 
Q 2088 3103 1672 3103 
Q 1328 3103 1125 2947 
Q 922 2791 872 2484 
L 575 2484 
L 575 3156 
Q 875 3284 1158 3348 
Q 1441 3413 1709 3413 
Q 2400 3413 2761 3070 
Q 3122 2728 3122 2075 
z
" transform="scale(0.015625)"/>
     <path id="DejaVuSerif-20" transform="scale(0.015625)"/>
     <path id="DejaVuSerif-56" d="M 1119 4331 
L 2497 750 
L 3872 4331 
L 3347 4331 
L 3347 4666 
L 4716 4666 
L 4716 4331 
L 4263 4331 
L 2597 0 
L 2059 0 
L 403 4331 
L -63 4331 
L -63 4666 
L 1638 4666 
L 1638 4331 
L 1119 4331 
z
" transform="scale(0.015625)"/>
     <path id="DejaVuSerif-72" d="M 3059 3328 
L 3059 2497 
L 2728 2497 
Q 2713 2744 2591 2866 
Q 2469 2988 2234 2988 
Q 1809 2988 1582 2694 
Q 1356 2400 1356 1850 
L 1356 331 
L 2022 331 
L 2022 0 
L 263 0 
L 263 331 
L 781 331 
L 781 2994 
L 231 2994 
L 231 3322 
L 1356 3322 
L 1356 2731 
Q 1525 3078 1790 3245 
Q 2056 3413 2438 3413 
Q 2578 3413 2733 3391 
Q 2888 3369 3059 3328 
z
" transform="scale(0.015625)"/>
     <path id="DejaVuSerif-62" d="M 738 331 
L 738 4531 
L 184 4531 
L 184 4863 
L 1313 4863 
L 1313 2803 
Q 1481 3116 1742 3264 
Q 2003 3413 2388 3413 
Q 3000 3413 3387 2928 
Q 3775 2444 3775 1663 
Q 3775 881 3387 395 
Q 3000 -91 2388 -91 
Q 2003 -91 1742 57 
Q 1481 206 1313 519 
L 1313 0 
L 184 0 
L 184 331 
L 738 331 
z
M 1313 1497 
Q 1313 897 1542 583 
Q 1772 269 2209 269 
Q 2650 269 2876 622 
Q 3103 975 3103 1663 
Q 3103 2353 2876 2703 
Q 2650 3053 2209 3053 
Q 1772 3053 1542 2737 
Q 1313 2422 1313 1825 
L 1313 1497 
z
" transform="scale(0.015625)"/>
     <path id="DejaVuSerif-6c" d="M 1313 331 
L 1856 331 
L 1856 0 
L 184 0 
L 184 331 
L 738 331 
L 738 4531 
L 184 4531 
L 184 4863 
L 1313 4863 
L 1313 331 
z
" transform="scale(0.015625)"/>
     <path id="DejaVuSerif-75" d="M 2266 3322 
L 3341 3322 
L 3341 331 
L 3884 331 
L 3884 0 
L 2766 0 
L 2766 588 
Q 2606 256 2353 82 
Q 2100 -91 1766 -91 
Q 1213 -91 952 223 
Q 691 538 691 1209 
L 691 2988 
L 172 2988 
L 172 3322 
L 1269 3322 
L 1269 1388 
Q 1269 781 1417 556 
Q 1566 331 1947 331 
Q 2347 331 2556 625 
Q 2766 919 2766 1478 
L 2766 2988 
L 2266 2988 
L 2266 3322 
z
" transform="scale(0.015625)"/>
     <path id="DejaVuSerif-6f" d="M 1925 219 
Q 2388 219 2623 584 
Q 2859 950 2859 1663 
Q 2859 2375 2623 2739 
Q 2388 3103 1925 3103 
Q 1463 3103 1227 2739 
Q 991 2375 991 1663 
Q 991 950 1228 584 
Q 1466 219 1925 219 
z
M 1925 -91 
Q 1200 -91 759 389 
Q 319 869 319 1663 
Q 319 2456 758 2934 
Q 1197 3413 1925 3413 
Q 2653 3413 3092 2934 
Q 3531 2456 3531 1663 
Q 3531 869 3092 389 
Q 2653 -91 1925 -91 
z
" transform="scale(0.015625)"/>
     <path id="DejaVuSerif-6e" d="M 263 0 
L 263 331 
L 781 331 
L 781 2988 
L 231 2988 
L 231 3322 
L 1356 3322 
L 1356 2731 
Q 1516 3069 1770 3241 
Q 2025 3413 2363 3413 
Q 2913 3413 3172 3097 
Q 3431 2781 3431 2113 
L 3431 331 
L 3944 331 
L 3944 0 
L 2356 0 
L 2356 331 
L 2853 331 
L 2853 1931 
Q 2853 2541 2703 2767 
Q 2553 2994 2175 2994 
Q 1775 2994 1565 2701 
Q 1356 2409 1356 1850 
L 1356 331 
L 1856 331 
L 1856 0 
L 263 0 
z
" transform="scale(0.015625)"/>
     <path id="DejaVuSerif-43" d="M 4513 1234 
Q 4306 581 3820 245 
Q 3334 -91 2591 -91 
Q 2134 -91 1743 65 
Q 1353 222 1050 525 
Q 700 875 529 1320 
Q 359 1766 359 2328 
Q 359 3416 987 4083 
Q 1616 4750 2644 4750 
Q 3025 4750 3456 4650 
Q 3888 4550 4384 4347 
L 4384 3272 
L 4031 3272 
Q 3916 3859 3567 4137 
Q 3219 4416 2591 4416 
Q 1844 4416 1459 3886 
Q 1075 3356 1075 2328 
Q 1075 1303 1459 773 
Q 1844 244 2591 244 
Q 3113 244 3450 492 
Q 3788 741 3938 1234 
L 4513 1234 
z
" transform="scale(0.015625)"/>
     <path id="DejaVuSerif-70" d="M 1313 1825 
L 1313 1497 
Q 1313 897 1542 583 
Q 1772 269 2209 269 
Q 2650 269 2876 622 
Q 3103 975 3103 1663 
Q 3103 2353 2876 2703 
Q 2650 3053 2209 3053 
Q 1772 3053 1542 2737 
Q 1313 2422 1313 1825 
z
M 738 2988 
L 184 2988 
L 184 3322 
L 1313 3322 
L 1313 2803 
Q 1481 3116 1742 3264 
Q 2003 3413 2388 3413 
Q 3000 3413 3387 2928 
Q 3775 2444 3775 1663 
Q 3775 881 3387 395 
Q 3000 -91 2388 -91 
Q 2003 -91 1742 57 
Q 1481 206 1313 519 
L 1313 -997 
L 1856 -997 
L 1856 -1331 
L 184 -1331 
L 184 -997 
L 738 -997 
L 738 2988 
z
" transform="scale(0.015625)"/>
     <path id="DejaVuSerif-73" d="M 359 184 
L 359 959 
L 691 959 
Q 703 588 923 403 
Q 1144 219 1575 219 
Q 1963 219 2166 364 
Q 2369 509 2369 788 
Q 2369 1006 2220 1140 
Q 2072 1275 1594 1428 
L 1178 1569 
Q 750 1706 558 1912 
Q 366 2119 366 2438 
Q 366 2894 700 3153 
Q 1034 3413 1625 3413 
Q 1888 3413 2178 3344 
Q 2469 3275 2778 3144 
L 2778 2419 
L 2447 2419 
Q 2434 2741 2221 2922 
Q 2009 3103 1644 3103 
Q 1281 3103 1095 2975 
Q 909 2847 909 2591 
Q 909 2381 1050 2254 
Q 1191 2128 1613 1997 
L 2069 1856 
Q 2541 1709 2748 1489 
Q 2956 1269 2956 922 
Q 2956 450 2595 179 
Q 2234 -91 1600 -91 
Q 1278 -91 972 -22 
Q 666 47 359 184 
z
" transform="scale(0.015625)"/>
    </defs>
    <use xlink:href="#DejaVuSerif-53"/>
    <use xlink:href="#DejaVuSerif-74" transform="translate(68.505859 0)"/>
    <use xlink:href="#DejaVuSerif-61" transform="translate(108.691406 0)"/>
    <use xlink:href="#DejaVuSerif-74" transform="translate(168.310547 0)"/>
    <use xlink:href="#DejaVuSerif-65" transform="translate(208.496094 0)"/>
    <use xlink:href="#DejaVuSerif-20" transform="translate(267.675781 0)"/>
    <use xlink:href="#DejaVuSerif-56" transform="translate(299.462891 0)"/>
    <use xlink:href="#DejaVuSerif-61" transform="translate(362.554688 0)"/>
    <use xlink:href="#DejaVuSerif-72" transform="translate(422.173828 0)"/>
    <use xlink:href="#DejaVuSerif-69" transform="translate(469.976562 0)"/>
    <use xlink:href="#DejaVuSerif-61" transform="translate(501.958984 0)"/>
    <use xlink:href="#DejaVuSerif-62" transform="translate(561.578125 0)"/>
    <use xlink:href="#DejaVuSerif-6c" transform="translate(625.591797 0)"/>
    <use xlink:href="#DejaVuSerif-65" transform="translate(657.574219 0)"/>
    <use xlink:href="#DejaVuSerif-20" transform="translate(716.753906 0)"/>
    <use xlink:href="#DejaVuSerif-53" transform="translate(748.541016 0)"/>
    <use xlink:href="#DejaVuSerif-69" transform="translate(817.046875 0)"/>
    <use xlink:href="#DejaVuSerif-6d" transform="translate(849.029297 0)"/>
    <use xlink:href="#DejaVuSerif-75" transform="translate(943.853516 0)"/>
    <use xlink:href="#DejaVuSerif-6c" transform="translate(1008.257812 0)"/>
    <use xlink:href="#DejaVuSerif-61" transform="translate(1040.240234 0)"/>
    <use xlink:href="#DejaVuSerif-74" transform="translate(1099.859375 0)"/>
    <use xlink:href="#DejaVuSerif-69" transform="translate(1140.044922 0)"/>
    <use xlink:href="#DejaVuSerif-6f" transform="translate(1172.027344 0)"/>
    <use xlink:href="#DejaVuSerif-6e" transform="translate(1232.232422 0)"/>
    <use xlink:href="#DejaVuSerif-20" transform="translate(1296.636719 0)"/>
    <use xlink:href="#DejaVuSerif-43" transform="translate(1328.423828 0)"/>
    <use xlink:href="#DejaVuSerif-6f" transform="translate(1404.9375 0)"/>
    <use xlink:href="#DejaVuSerif-6d" transform="translate(1465.142578 0)"/>
    <use xlink:href="#DejaVuSerif-70" transform="translate(1559.966797 0)"/>
    <use xlink:href="#DejaVuSerif-61" transform="translate(1623.980469 0)"/>
    <use xlink:href="#DejaVuSerif-72" transform="translate(1683.599609 0)"/>
    <use xlink:href="#DejaVuSerif-69" transform="translate(1731.402344 0)"/>
    <use xlink:href="#DejaVuSerif-73" transform="translate(1763.384766 0)"/>
    <use xlink:href="#DejaVuSerif-6f" transform="translate(1814.703125 0)"/>
    <use xlink:href="#DejaVuSerif-6e" transform="translate(1874.908203 0)"/>
   </g>
  </g>
  <g id="legend_1">
   <g id="patch_12">
    <path d="M 752.300313 52.460938 
L 863.787812 52.460938 
Q 865.787812 52.460938 865.787812 50.460938 
L 865.787812 7 
Q 865.787812 5 863.787812 5 
L 752.300313 5 
Q 750.300313 5 750.300313 7 
L 750.300313 50.460938 
Q 750.300313 52.460938 752.300313 52.460938 
z
" style="fill: #ffffff; opacity: 0.5; stroke: #cccccc; stroke-linejoin: miter"/>
   </g>
   <g id="line2d_25">
    <path d="M 754.300313 13.098437 
L 764.300313 13.098437 
L 774.300313 13.098437 
" style="fill: none; stroke: #000000; stroke-opacity: 0.4; stroke-width: 6; stroke-linecap: round"/>
   </g>
   <g id="text_17">
    <!-- True Trajectory -->
    <g style="fill: #262626" transform="translate(782.300313 16.598437) scale(0.1 -0.1)">
     <defs>
      <path id="DejaVuSerif-6a" d="M 641 4353 
Q 641 4497 745 4603 
Q 850 4709 997 4709 
Q 1141 4709 1245 4603 
Q 1350 4497 1350 4353 
Q 1350 4206 1248 4103 
Q 1147 4000 997 4000 
Q 850 4000 745 4103 
Q 641 4206 641 4353 
z
M 781 2988 
L 238 2988 
L 238 3322 
L 1356 3322 
L 1356 -325 
Q 1356 -838 1051 -1130 
Q 747 -1422 213 -1422 
Q -13 -1422 -217 -1370 
Q -422 -1319 -616 -1216 
L -616 -531 
L -319 -531 
Q -297 -831 -164 -972 
Q -31 -1113 225 -1113 
Q 509 -1113 645 -920 
Q 781 -728 781 -325 
L 781 2988 
z
" transform="scale(0.015625)"/>
      <path id="DejaVuSerif-63" d="M 3291 997 
Q 3169 466 2822 187 
Q 2475 -91 1925 -91 
Q 1200 -91 759 389 
Q 319 869 319 1663 
Q 319 2459 759 2936 
Q 1200 3413 1925 3413 
Q 2241 3413 2553 3339 
Q 2866 3266 3181 3116 
L 3181 2266 
L 2847 2266 
Q 2781 2703 2561 2903 
Q 2341 3103 1931 3103 
Q 1466 3103 1228 2742 
Q 991 2381 991 1663 
Q 991 944 1227 581 
Q 1463 219 1931 219 
Q 2303 219 2525 412 
Q 2747 606 2828 997 
L 3291 997 
z
" transform="scale(0.015625)"/>
      <path id="DejaVuSerif-79" d="M 1381 -609 
L 1600 -56 
L 359 2988 
L -19 2988 
L -19 3322 
L 1509 3322 
L 1509 2988 
L 978 2988 
L 1913 703 
L 2847 2988 
L 2350 2988 
L 2350 3322 
L 3597 3322 
L 3597 2988 
L 3225 2988 
L 1703 -750 
Q 1547 -1138 1356 -1280 
Q 1166 -1422 819 -1422 
Q 672 -1422 517 -1397 
Q 363 -1372 206 -1325 
L 206 -691 
L 500 -691 
Q 519 -903 608 -995 
Q 697 -1088 884 -1088 
Q 1056 -1088 1161 -992 
Q 1266 -897 1381 -609 
z
" transform="scale(0.015625)"/>
     </defs>
     <use xlink:href="#DejaVuSerif-54"/>
     <use xlink:href="#DejaVuSerif-72" transform="translate(66.699219 0)"/>
     <use xlink:href="#DejaVuSerif-75" transform="translate(114.501953 0)"/>
     <use xlink:href="#DejaVuSerif-65" transform="translate(178.90625 0)"/>
     <use xlink:href="#DejaVuSerif-20" transform="translate(238.085938 0)"/>
     <use xlink:href="#DejaVuSerif-54" transform="translate(269.873047 0)"/>
     <use xlink:href="#DejaVuSerif-72" transform="translate(336.572266 0)"/>
     <use xlink:href="#DejaVuSerif-61" transform="translate(384.375 0)"/>
     <use xlink:href="#DejaVuSerif-6a" transform="translate(443.994141 0)"/>
     <use xlink:href="#DejaVuSerif-65" transform="translate(475 0)"/>
     <use xlink:href="#DejaVuSerif-63" transform="translate(534.179688 0)"/>
     <use xlink:href="#DejaVuSerif-74" transform="translate(590.185547 0)"/>
     <use xlink:href="#DejaVuSerif-6f" transform="translate(630.371094 0)"/>
     <use xlink:href="#DejaVuSerif-72" transform="translate(690.576172 0)"/>
     <use xlink:href="#DejaVuSerif-79" transform="translate(738.378906 0)"/>
    </g>
   </g>
   <g id="line2d_26">
    <path d="M 754.300313 27.91875 
L 764.300313 27.91875 
L 774.300313 27.91875 
" style="fill: none; stroke-dasharray: 12.95,5.6; stroke-dashoffset: 0; stroke: #ff0000; stroke-opacity: 0.8; stroke-width: 3.5"/>
   </g>
   <g id="text_18">
    <!-- AutoSINDy -->
    <g style="fill: #262626" transform="translate(782.300313 31.41875) scale(0.1 -0.1)">
     <defs>
      <path id="DejaVuSerif-41" d="M 1281 1691 
L 2994 1691 
L 2138 3909 
L 1281 1691 
z
M -38 0 
L -38 331 
L 372 331 
L 2034 4666 
L 2559 4666 
L 4225 331 
L 4684 331 
L 4684 0 
L 2988 0 
L 2988 331 
L 3506 331 
L 3116 1356 
L 1153 1356 
L 763 331 
L 1275 331 
L 1275 0 
L -38 0 
z
" transform="scale(0.015625)"/>
      <path id="DejaVuSerif-49" d="M 1581 331 
L 2175 331 
L 2175 0 
L 353 0 
L 353 331 
L 947 331 
L 947 4331 
L 353 4331 
L 353 4666 
L 2175 4666 
L 2175 4331 
L 1581 4331 
L 1581 331 
z
" transform="scale(0.015625)"/>
      <path id="DejaVuSerif-4e" d="M 313 0 
L 313 331 
L 941 331 
L 941 4331 
L 313 4331 
L 313 4666 
L 1509 4666 
L 4306 984 
L 4306 4331 
L 3681 4331 
L 3681 4666 
L 5319 4666 
L 5319 4331 
L 4691 4331 
L 4691 -91 
L 4313 -91 
L 1325 3841 
L 1325 331 
L 1953 331 
L 1953 0 
L 313 0 
z
" transform="scale(0.015625)"/>
      <path id="DejaVuSerif-44" d="M 1581 331 
L 2163 331 
Q 3072 331 3558 850 
Q 4044 1369 4044 2338 
Q 4044 3306 3559 3818 
Q 3075 4331 2163 4331 
L 1581 4331 
L 1581 331 
z
M 353 0 
L 353 331 
L 947 331 
L 947 4331 
L 353 4331 
L 353 4666 
L 2209 4666 
Q 3416 4666 4089 4050 
Q 4763 3434 4763 2338 
Q 4763 1238 4088 619 
Q 3413 0 2209 0 
L 353 0 
z
" transform="scale(0.015625)"/>
     </defs>
     <use xlink:href="#DejaVuSerif-41"/>
     <use xlink:href="#DejaVuSerif-75" transform="translate(72.216797 0)"/>
     <use xlink:href="#DejaVuSerif-74" transform="translate(136.621094 0)"/>
     <use xlink:href="#DejaVuSerif-6f" transform="translate(176.806641 0)"/>
     <use xlink:href="#DejaVuSerif-53" transform="translate(237.011719 0)"/>
     <use xlink:href="#DejaVuSerif-49" transform="translate(305.517578 0)"/>
     <use xlink:href="#DejaVuSerif-4e" transform="translate(345.019531 0)"/>
     <use xlink:href="#DejaVuSerif-44" transform="translate(432.519531 0)"/>
     <use xlink:href="#DejaVuSerif-79" transform="translate(512.695312 0)"/>
    </g>
   </g>
   <g id="line2d_27">
    <path d="M 754.300313 42.739062 
L 764.300313 42.739062 
L 774.300313 42.739062 
" style="fill: none; stroke-dasharray: 22.4,5.6,3.5,5.6; stroke-dashoffset: 0; stroke: #0000ff; stroke-opacity: 0.8; stroke-width: 3.5"/>
   </g>
   <g id="text_19">
    <!-- Standard PySR -->
    <g style="fill: #262626" transform="translate(782.300313 46.239062) scale(0.1 -0.1)">
     <defs>
      <path id="DejaVuSerif-64" d="M 3359 331 
L 3909 331 
L 3909 0 
L 2784 0 
L 2784 519 
Q 2616 206 2355 57 
Q 2094 -91 1709 -91 
Q 1097 -91 708 395 
Q 319 881 319 1663 
Q 319 2444 706 2928 
Q 1094 3413 1709 3413 
Q 2094 3413 2355 3264 
Q 2616 3116 2784 2803 
L 2784 4531 
L 2241 4531 
L 2241 4863 
L 3359 4863 
L 3359 331 
z
M 2784 1497 
L 2784 1825 
Q 2784 2422 2554 2737 
Q 2325 3053 1888 3053 
Q 1444 3053 1217 2703 
Q 991 2353 991 1663 
Q 991 975 1217 622 
Q 1444 269 1888 269 
Q 2325 269 2554 583 
Q 2784 897 2784 1497 
z
" transform="scale(0.015625)"/>
      <path id="DejaVuSerif-50" d="M 1581 2375 
L 2406 2375 
Q 2872 2375 3115 2626 
Q 3359 2878 3359 3353 
Q 3359 3831 3115 4081 
Q 2872 4331 2406 4331 
L 1581 4331 
L 1581 2375 
z
M 353 0 
L 353 331 
L 947 331 
L 947 4331 
L 353 4331 
L 353 4666 
L 2559 4666 
Q 3259 4666 3668 4311 
Q 4078 3956 4078 3353 
Q 4078 2753 3668 2397 
Q 3259 2041 2559 2041 
L 1581 2041 
L 1581 331 
L 2303 331 
L 2303 0 
L 353 0 
z
" transform="scale(0.015625)"/>
      <path id="DejaVuSerif-52" d="M 3066 2316 
Q 3284 2256 3442 2114 
Q 3600 1972 3725 1716 
L 4403 331 
L 4972 331 
L 4972 0 
L 3872 0 
L 3144 1484 
Q 2934 1916 2759 2042 
Q 2584 2169 2278 2169 
L 1581 2169 
L 1581 331 
L 2241 331 
L 2241 0 
L 353 0 
L 353 331 
L 947 331 
L 947 4331 
L 353 4331 
L 353 4666 
L 2719 4666 
Q 3400 4666 3770 4341 
Q 4141 4016 4141 3419 
Q 4141 2938 3870 2661 
Q 3600 2384 3066 2316 
z
M 1581 2503 
L 2503 2503 
Q 2975 2503 3200 2726 
Q 3425 2950 3425 3419 
Q 3425 3888 3200 4109 
Q 2975 4331 2503 4331 
L 1581 4331 
L 1581 2503 
z
" transform="scale(0.015625)"/>
     </defs>
     <use xlink:href="#DejaVuSerif-53"/>
     <use xlink:href="#DejaVuSerif-74" transform="translate(68.505859 0)"/>
     <use xlink:href="#DejaVuSerif-61" transform="translate(108.691406 0)"/>
     <use xlink:href="#DejaVuSerif-6e" transform="translate(168.310547 0)"/>
     <use xlink:href="#DejaVuSerif-64" transform="translate(232.714844 0)"/>
     <use xlink:href="#DejaVuSerif-61" transform="translate(296.728516 0)"/>
     <use xlink:href="#DejaVuSerif-72" transform="translate(356.347656 0)"/>
     <use xlink:href="#DejaVuSerif-64" transform="translate(404.150391 0)"/>
     <use xlink:href="#DejaVuSerif-20" transform="translate(468.164062 0)"/>
     <use xlink:href="#DejaVuSerif-50" transform="translate(499.951172 0)"/>
     <use xlink:href="#DejaVuSerif-79" transform="translate(567.236328 0)"/>
     <use xlink:href="#DejaVuSerif-53" transform="translate(623.730469 0)"/>
     <use xlink:href="#DejaVuSerif-52" transform="translate(692.236328 0)"/>
    </g>
   </g>
  </g>
 </g>
 <defs>
  <clipPath id="p128d087f8f">
   <rect x="54.096563" y="41.62375" width="802.61125" height="95.93375"/>
  </clipPath>
  <clipPath id="p0ac2dd84d8">
   <rect x="54.096563" y="149.4375" width="802.61125" height="95.93375"/>
  </clipPath>
 </defs>
</svg>
