<?xml version="1.0" encoding="utf-8" standalone="no"?>
<!DOCTYPE svg PUBLIC "-//W3C//DTD SVG 1.1//EN"
  "http://www.w3.org/Graphics/SVG/1.1/DTD/svg11.dtd">
<svg xmlns:xlink="http://www.w3.org/1999/xlink" width="862.892969pt" height="430.9525pt" viewBox="0 0 862.892969 430.9525" xmlns="http://www.w3.org/2000/svg" version="1.1">
 <metadata>
  <rdf:RDF xmlns:dc="http://purl.org/dc/elements/1.1/" xmlns:cc="http://creativecommons.org/ns#" xmlns:rdf="http://www.w3.org/1999/02/22-rdf-syntax-ns#">
   <cc:Work>
    <dc:type rdf:resource="http://purl.org/dc/dcmitype/StillImage"/>
    <dc:date>2026-04-28T18:33:40.722503</dc:date>
    <dc:format>image/svg+xml</dc:format>
    <dc:creator>
     <cc:Agent>
      <dc:title>Matplotlib v3.10.7, https://matplotlib.org/</dc:title>
     </cc:Agent>
    </dc:creator>
   </cc:Work>
  </rdf:RDF>
 </metadata>
 <defs>
  <style type="text/css">*{stroke-linejoin: round; stroke-linecap: butt}</style>
 </defs>
 <g id="figure_1">
  <g id="patch_1">
   <path d="M 0 430.9525 
L 862.892969 430.9525 
L 862.892969 -0 
L 0 -0 
z
" style="fill: #ffffff"/>
  </g>
  <g id="axes_1">
   <g id="patch_2">
    <path d="M 56.426719 211.405625 
L 849.392969 211.405625 
L 849.392969 40.215 
L 56.426719 40.215 
z
" style="fill: #ffffff"/>
   </g>
   <g id="matplotlib.axis_1">
    <g id="xtick_1">
     <g id="line2d_1">
      <path d="M 92.470639 211.405625 
L 92.470639 40.215 
" clip-path="url(#p44ec9c6aff)" style="fill: none; stroke: #cccccc; stroke-opacity: 0.25; stroke-width: 0.5; stroke-linecap: round"/>
     </g>
    </g>
    <g id="xtick_2">
     <g id="line2d_2">
      <path d="M 212.617041 211.405625 
L 212.617041 40.215 
" clip-path="url(#p44ec9c6aff)" style="fill: none; stroke: #cccccc; stroke-opacity: 0.25; stroke-width: 0.5; stroke-linecap: round"/>
     </g>
    </g>
    <g id="xtick_3">
     <g id="line2d_3">
      <path d="M 332.763442 211.405625 
L 332.763442 40.215 
" clip-path="url(#p44ec9c6aff)" style="fill: none; stroke: #cccccc; stroke-opacity: 0.25; stroke-width: 0.5; stroke-linecap: round"/>
     </g>
    </g>
    <g id="xtick_4">
     <g id="line2d_4">
      <path d="M 452.909844 211.405625 
L 452.909844 40.215 
" clip-path="url(#p44ec9c6aff)" style="fill: none; stroke: #cccccc; stroke-opacity: 0.25; stroke-width: 0.5; stroke-linecap: round"/>
     </g>
    </g>
    <g id="xtick_5">
     <g id="line2d_5">
      <path d="M 573.056245 211.405625 
L 573.056245 40.215 
" clip-path="url(#p44ec9c6aff)" style="fill: none; stroke: #cccccc; stroke-opacity: 0.25; stroke-width: 0.5; stroke-linecap: round"/>
     </g>
    </g>
    <g id="xtick_6">
     <g id="line2d_6">
      <path d="M 693.202647 211.405625 
L 693.202647 40.215 
" clip-path="url(#p44ec9c6aff)" style="fill: none; stroke: #cccccc; stroke-opacity: 0.25; stroke-width: 0.5; stroke-linecap: round"/>
     </g>
    </g>
    <g id="xtick_7">
     <g id="line2d_7">
      <path d="M 813.349048 211.405625 
L 813.349048 40.215 
" clip-path="url(#p44ec9c6aff)" style="fill: none; stroke: #cccccc; stroke-opacity: 0.25; stroke-width: 0.5; stroke-linecap: round"/>
     </g>
    </g>
   </g>
   <g id="matplotlib.axis_2">
    <g id="ytick_1">
     <g id="line2d_8">
      <path d="M 56.426719 208.236865 
L 849.392969 208.236865 
" clip-path="url(#p44ec9c6aff)" style="fill: none; stroke: #cccccc; stroke-opacity: 0.25; stroke-width: 0.5; stroke-linecap: round"/>
     </g>
     <g id="text_1">
      <!-- −1.25 -->
      <g style="fill: #262626" transform="translate(21.845938 211.656161) scale(0.09 -0.09)">
       <defs>
        <path id="DejaVuSerif-2212" d="M 678 2259 
L 4684 2259 
L 4684 1753 
L 678 1753 
L 678 2259 
z
" transform="scale(0.015625)"/>
        <path id="DejaVuSerif-31" d="M 909 0 
L 909 331 
L 1722 331 
L 1722 4213 
L 781 3603 
L 781 4013 
L 1919 4750 
L 2350 4750 
L 2350 331 
L 3163 331 
L 3163 0 
L 909 0 
z
" transform="scale(0.015625)"/>
        <path id="DejaVuSerif-2e" d="M 603 325 
Q 603 500 722 622 
Q 841 744 1019 744 
Q 1191 744 1312 622 
Q 1434 500 1434 325 
Q 1434 153 1312 31 
Q 1191 -91 1019 -91 
Q 841 -91 722 29 
Q 603 150 603 325 
z
" transform="scale(0.015625)"/>
        <path id="DejaVuSerif-32" d="M 819 3553 
L 469 3553 
L 469 4384 
Q 803 4563 1142 4656 
Q 1481 4750 1806 4750 
Q 2534 4750 2956 4397 
Q 3378 4044 3378 3438 
Q 3378 2753 2422 1800 
Q 2347 1728 2309 1691 
L 1131 513 
L 3078 513 
L 3078 1088 
L 3444 1088 
L 3444 0 
L 434 0 
L 434 341 
L 1850 1753 
Q 2319 2222 2519 2614 
Q 2719 3006 2719 3438 
Q 2719 3909 2473 4175 
Q 2228 4441 1797 4441 
Q 1350 4441 1106 4219 
Q 863 3997 819 3553 
z
" transform="scale(0.015625)"/>
        <path id="DejaVuSerif-35" d="M 3219 4666 
L 3219 4153 
L 1081 4153 
L 1081 2816 
Q 1244 2928 1461 2984 
Q 1678 3041 1947 3041 
Q 2703 3041 3140 2622 
Q 3578 2203 3578 1478 
Q 3578 738 3136 323 
Q 2694 -91 1894 -91 
Q 1572 -91 1234 -12 
Q 897 66 544 225 
L 544 1131 
L 897 1131 
Q 925 688 1179 453 
Q 1434 219 1894 219 
Q 2388 219 2653 544 
Q 2919 869 2919 1478 
Q 2919 2084 2655 2407 
Q 2391 2731 1894 2731 
Q 1613 2731 1398 2631 
Q 1184 2531 1019 2322 
L 750 2322 
L 750 4666 
L 3219 4666 
z
" transform="scale(0.015625)"/>
       </defs>
       <use xlink:href="#DejaVuSerif-2212"/>
       <use xlink:href="#DejaVuSerif-31" transform="translate(83.789062 0)"/>
       <use xlink:href="#DejaVuSerif-2e" transform="translate(147.412109 0)"/>
       <use xlink:href="#DejaVuSerif-32" transform="translate(179.199219 0)"/>
       <use xlink:href="#DejaVuSerif-35" transform="translate(242.822266 0)"/>
      </g>
     </g>
    </g>
    <g id="ytick_2">
     <g id="line2d_9">
      <path d="M 56.426719 186.949513 
L 849.392969 186.949513 
" clip-path="url(#p44ec9c6aff)" style="fill: none; stroke: #cccccc; stroke-opacity: 0.25; stroke-width: 0.5; stroke-linecap: round"/>
     </g>
     <g id="text_2">
      <!-- −1.00 -->
      <g style="fill: #262626" transform="translate(21.845938 190.368809) scale(0.09 -0.09)">
       <defs>
        <path id="DejaVuSerif-30" d="M 2034 219 
Q 2513 219 2750 744 
Q 2988 1269 2988 2328 
Q 2988 3391 2750 3916 
Q 2513 4441 2034 4441 
Q 1556 4441 1318 3916 
Q 1081 3391 1081 2328 
Q 1081 1269 1318 744 
Q 1556 219 2034 219 
z
M 2034 -91 
Q 1275 -91 848 546 
Q 422 1184 422 2328 
Q 422 3475 848 4112 
Q 1275 4750 2034 4750 
Q 2797 4750 3222 4112 
Q 3647 3475 3647 2328 
Q 3647 1184 3222 546 
Q 2797 -91 2034 -91 
z
" transform="scale(0.015625)"/>
       </defs>
       <use xlink:href="#DejaVuSerif-2212"/>
       <use xlink:href="#DejaVuSerif-31" transform="translate(83.789062 0)"/>
       <use xlink:href="#DejaVuSerif-2e" transform="translate(147.412109 0)"/>
       <use xlink:href="#DejaVuSerif-30" transform="translate(179.199219 0)"/>
       <use xlink:href="#DejaVuSerif-30" transform="translate(242.822266 0)"/>
      </g>
     </g>
    </g>
    <g id="ytick_3">
     <g id="line2d_10">
      <path d="M 56.426719 165.662161 
L 849.392969 165.662161 
" clip-path="url(#p44ec9c6aff)" style="fill: none; stroke: #cccccc; stroke-opacity: 0.25; stroke-width: 0.5; stroke-linecap: round"/>
     </g>
     <g id="text_3">
      <!-- −0.75 -->
      <g style="fill: #262626" transform="translate(21.845938 169.081457) scale(0.09 -0.09)">
       <defs>
        <path id="DejaVuSerif-37" d="M 3609 4347 
L 1784 0 
L 1319 0 
L 3059 4153 
L 903 4153 
L 903 3578 
L 538 3578 
L 538 4666 
L 3609 4666 
L 3609 4347 
z
" transform="scale(0.015625)"/>
       </defs>
       <use xlink:href="#DejaVuSerif-2212"/>
       <use xlink:href="#DejaVuSerif-30" transform="translate(83.789062 0)"/>
       <use xlink:href="#DejaVuSerif-2e" transform="translate(147.412109 0)"/>
       <use xlink:href="#DejaVuSerif-37" transform="translate(179.199219 0)"/>
       <use xlink:href="#DejaVuSerif-35" transform="translate(242.822266 0)"/>
      </g>
     </g>
    </g>
    <g id="ytick_4">
     <g id="line2d_11">
      <path d="M 56.426719 144.374809 
L 849.392969 144.374809 
" clip-path="url(#p44ec9c6aff)" style="fill: none; stroke: #cccccc; stroke-opacity: 0.25; stroke-width: 0.5; stroke-linecap: round"/>
     </g>
     <g id="text_4">
      <!-- −0.50 -->
      <g style="fill: #262626" transform="translate(21.845938 147.794105) scale(0.09 -0.09)">
       <use xlink:href="#DejaVuSerif-2212"/>
       <use xlink:href="#DejaVuSerif-30" transform="translate(83.789062 0)"/>
       <use xlink:href="#DejaVuSerif-2e" transform="translate(147.412109 0)"/>
       <use xlink:href="#DejaVuSerif-35" transform="translate(179.199219 0)"/>
       <use xlink:href="#DejaVuSerif-30" transform="translate(242.822266 0)"/>
      </g>
     </g>
    </g>
    <g id="ytick_5">
     <g id="line2d_12">
      <path d="M 56.426719 123.087456 
L 849.392969 123.087456 
" clip-path="url(#p44ec9c6aff)" style="fill: none; stroke: #cccccc; stroke-opacity: 0.25; stroke-width: 0.5; stroke-linecap: round"/>
     </g>
     <g id="text_5">
      <!-- −0.25 -->
      <g style="fill: #262626" transform="translate(21.845938 126.506753) scale(0.09 -0.09)">
       <use xlink:href="#DejaVuSerif-2212"/>
       <use xlink:href="#DejaVuSerif-30" transform="translate(83.789062 0)"/>
       <use xlink:href="#DejaVuSerif-2e" transform="translate(147.412109 0)"/>
       <use xlink:href="#DejaVuSerif-32" transform="translate(179.199219 0)"/>
       <use xlink:href="#DejaVuSerif-35" transform="translate(242.822266 0)"/>
      </g>
     </g>
    </g>
    <g id="ytick_6">
     <g id="line2d_13">
      <path d="M 56.426719 101.800104 
L 849.392969 101.800104 
" clip-path="url(#p44ec9c6aff)" style="fill: none; stroke: #cccccc; stroke-opacity: 0.25; stroke-width: 0.5; stroke-linecap: round"/>
     </g>
     <g id="text_6">
      <!-- 0.00 -->
      <g style="fill: #262626" transform="translate(29.387656 105.219401) scale(0.09 -0.09)">
       <use xlink:href="#DejaVuSerif-30"/>
       <use xlink:href="#DejaVuSerif-2e" transform="translate(63.623047 0)"/>
       <use xlink:href="#DejaVuSerif-30" transform="translate(95.410156 0)"/>
       <use xlink:href="#DejaVuSerif-30" transform="translate(159.033203 0)"/>
      </g>
     </g>
    </g>
    <g id="ytick_7">
     <g id="line2d_14">
      <path d="M 56.426719 80.512752 
L 849.392969 80.512752 
" clip-path="url(#p44ec9c6aff)" style="fill: none; stroke: #cccccc; stroke-opacity: 0.25; stroke-width: 0.5; stroke-linecap: round"/>
     </g>
     <g id="text_7">
      <!-- 0.25 -->
      <g style="fill: #262626" transform="translate(29.387656 83.932049) scale(0.09 -0.09)">
       <use xlink:href="#DejaVuSerif-30"/>
       <use xlink:href="#DejaVuSerif-2e" transform="translate(63.623047 0)"/>
       <use xlink:href="#DejaVuSerif-32" transform="translate(95.410156 0)"/>
       <use xlink:href="#DejaVuSerif-35" transform="translate(159.033203 0)"/>
      </g>
     </g>
    </g>
    <g id="ytick_8">
     <g id="line2d_15">
      <path d="M 56.426719 59.2254 
L 849.392969 59.2254 
" clip-path="url(#p44ec9c6aff)" style="fill: none; stroke: #cccccc; stroke-opacity: 0.25; stroke-width: 0.5; stroke-linecap: round"/>
     </g>
     <g id="text_8">
      <!-- 0.50 -->
      <g style="fill: #262626" transform="translate(29.387656 62.644697) scale(0.09 -0.09)">
       <use xlink:href="#DejaVuSerif-30"/>
       <use xlink:href="#DejaVuSerif-2e" transform="translate(63.623047 0)"/>
       <use xlink:href="#DejaVuSerif-35" transform="translate(95.410156 0)"/>
       <use xlink:href="#DejaVuSerif-30" transform="translate(159.033203 0)"/>
      </g>
     </g>
    </g>
    <g id="text_9">
     <!-- $dx0/dt$ -->
     <g style="fill: #262626" transform="translate(15.558281 143.575312) rotate(-90) scale(0.11 -0.11)">
      <defs>
       <path id="DejaVuSans-Oblique-64" d="M 2675 525 
Q 2444 222 2128 65 
Q 1813 -91 1428 -91 
Q 903 -91 598 267 
Q 294 625 294 1247 
Q 294 1766 478 2236 
Q 663 2706 1013 3078 
Q 1244 3325 1534 3454 
Q 1825 3584 2144 3584 
Q 2481 3584 2739 3421 
Q 2997 3259 3138 2956 
L 3513 4863 
L 4091 4863 
L 3144 0 
L 2566 0 
L 2675 525 
z
M 891 1350 
Q 891 897 1095 644 
Q 1300 391 1663 391 
Q 1931 391 2161 520 
Q 2391 650 2566 903 
Q 2750 1166 2856 1509 
Q 2963 1853 2963 2188 
Q 2963 2622 2758 2865 
Q 2553 3109 2194 3109 
Q 1922 3109 1687 2981 
Q 1453 2853 1288 2613 
Q 1106 2353 998 2009 
Q 891 1666 891 1350 
z
" transform="scale(0.015625)"/>
       <path id="DejaVuSans-Oblique-78" d="M 3841 3500 
L 2234 1784 
L 3219 0 
L 2559 0 
L 1819 1388 
L 531 0 
L -166 0 
L 1556 1844 
L 641 3500 
L 1300 3500 
L 1972 2234 
L 3144 3500 
L 3841 3500 
z
" transform="scale(0.015625)"/>
       <path id="DejaVuSans-30" d="M 2034 4250 
Q 1547 4250 1301 3770 
Q 1056 3291 1056 2328 
Q 1056 1369 1301 889 
Q 1547 409 2034 409 
Q 2525 409 2770 889 
Q 3016 1369 3016 2328 
Q 3016 3291 2770 3770 
Q 2525 4250 2034 4250 
z
M 2034 4750 
Q 2819 4750 3233 4129 
Q 3647 3509 3647 2328 
Q 3647 1150 3233 529 
Q 2819 -91 2034 -91 
Q 1250 -91 836 529 
Q 422 1150 422 2328 
Q 422 3509 836 4129 
Q 1250 4750 2034 4750 
z
" transform="scale(0.015625)"/>
       <path id="DejaVuSans-2f" d="M 1625 4666 
L 2156 4666 
L 531 -594 
L 0 -594 
L 1625 4666 
z
" transform="scale(0.015625)"/>
       <path id="DejaVuSans-Oblique-74" d="M 2706 3500 
L 2619 3053 
L 1472 3053 
L 1100 1153 
Q 1081 1047 1072 975 
Q 1063 903 1063 863 
Q 1063 663 1183 572 
Q 1303 481 1569 481 
L 2150 481 
L 2053 0 
L 1503 0 
Q 991 0 739 200 
Q 488 400 488 806 
Q 488 878 497 964 
Q 506 1050 525 1153 
L 897 3053 
L 409 3053 
L 500 3500 
L 978 3500 
L 1172 4494 
L 1747 4494 
L 1556 3500 
L 2706 3500 
z
" transform="scale(0.015625)"/>
      </defs>
      <use xlink:href="#DejaVuSans-Oblique-64" transform="translate(0 0.015625)"/>
      <use xlink:href="#DejaVuSans-Oblique-78" transform="translate(63.476562 0.015625)"/>
      <use xlink:href="#DejaVuSans-30" transform="translate(122.65625 0.015625)"/>
      <use xlink:href="#DejaVuSans-2f" transform="translate(186.279297 0.015625)"/>
      <use xlink:href="#DejaVuSans-Oblique-64" transform="translate(219.970703 0.015625)"/>
      <use xlink:href="#DejaVuSans-Oblique-74" transform="translate(283.447266 0.015625)"/>
     </g>
    </g>
   </g>
   <g id="line2d_16">
    <path d="M 92.470639 186.949821 
L 94.961399 185.757659 
L 97.583252 184.247519 
L 99.680734 182.827168 
L 103.875699 179.724098 
L 108.857219 175.747122 
L 115.280758 170.312744 
L 131.011874 156.88749 
L 135.993395 152.998346 
L 140.319452 149.899761 
L 145.300972 146.612762 
L 150.151399 143.67414 
L 155.001827 140.993413 
L 159.852254 138.570095 
L 164.571589 136.458878 
L 169.290924 134.590436 
L 174.010259 132.964321 
L 178.598502 131.615276 
L 183.186744 130.494345 
L 188.823727 129.358002 
L 194.198525 128.50226 
L 199.704416 127.852659 
L 205.210307 127.428714 
L 210.716197 127.226301 
L 216.353181 127.24427 
L 221.990164 127.485697 
L 227.75824 127.959436 
L 233.526316 128.657774 
L 241.65406 129.912575 
L 247.815414 131.128792 
L 254.370046 132.649861 
L 261.580141 134.556886 
L 269.576791 136.909361 
L 278.884369 139.888642 
L 303.005414 147.762096 
L 308.642397 149.323798 
L 313.361732 150.404337 
L 317.556696 151.140555 
L 321.358383 151.589468 
L 324.897884 151.792958 
L 328.306293 151.769767 
L 331.583609 151.523859 
L 334.729832 151.063051 
L 337.744962 150.398546 
L 340.760093 149.500363 
L 343.644131 148.408461 
L 346.528169 147.075364 
L 349.936578 145.230408 
L 352.55843 143.550214 
L 355.442468 141.426291 
L 358.457599 138.920743 
L 361.734915 135.896446 
L 365.274416 132.315351 
L 369.207195 128.002381 
L 373.533252 122.918123 
L 378.645865 116.551355 
L 385.462682 107.674326 
L 395.425723 94.716091 
L 400.145057 88.953093 
L 404.077837 84.491728 
L 407.486245 80.950829 
L 410.501376 78.120228 
L 414.303062 74.894304 
L 417.318193 72.642767 
L 420.202231 70.757755 
L 423.086269 69.132598 
L 425.970307 67.764528 
L 428.723252 66.695925 
L 431.476198 65.856642 
L 434.229143 65.244272 
L 436.982088 64.85641 
L 439.735034 64.690668 
L 443.143442 64.720549 
L 446.289666 64.983193 
L 449.566982 65.479316 
L 453.106483 66.246878 
L 456.777077 67.270156 
L 460.840948 68.638658 
L 465.298098 70.379368 
L 470.410711 72.620277 
L 476.572065 75.573767 
L 484.437623 79.604027 
L 494.925034 85.249757 
L 516.162041 96.73768 
L 527.436008 102.475579 
L 537.923419 107.597582 
L 546.575533 111.579348 
L 554.178906 114.837586 
L 561.126815 117.576118 
L 567.550355 119.872992 
L 573.580616 121.797841 
L 579.348692 123.407228 
L 584.854583 124.712928 
L 591.015936 125.927036 
L 595.341994 126.56953 
L 599.668051 126.984982 
L 603.994108 127.17238 
L 608.189072 127.135349 
L 612.384036 126.882001 
L 616.579001 126.411413 
L 620.773965 125.72266 
L 624.968929 124.81482 
L 629.294986 123.648169 
L 633.621043 122.246529 
L 637.9471 120.608888 
L 642.273157 118.734234 
L 648.041233 115.952432 
L 653.284939 113.150561 
L 659.839571 109.37705 
L 680.6833 97.178407 
L 687.762302 93.501513 
L 692.874915 91.117905 
L 697.59425 89.157094 
L 702.0514 87.537513 
L 706.377457 86.200007 
L 710.441329 85.169847 
L 714.374108 84.395717 
L 718.437979 83.825156 
L 722.632944 83.423744 
L 726.959001 83.239606 
L 731.41615 83.277072 
L 736.004393 83.538046 
L 740.85482 84.038129 
L 745.967433 84.790056 
L 751.473324 85.827804 
L 758.159048 87.334061 
L 764.844773 89.079768 
L 772.710331 91.372224 
L 783.197742 94.68042 
L 809.809547 103.165709 
L 813.349048 104.23022 
L 813.349048 104.23022 
" clip-path="url(#p44ec9c6aff)" style="fill: none; stroke: #808080; stroke-opacity: 0.5; stroke-width: 6; stroke-linecap: round"/>
   </g>
   <g id="line2d_17">
    <path d="M 92.470639 272.098921 
L 93.388288 248.388173 
L 94.305936 230.70861 
L 95.223585 217.583037 
L 96.141233 207.862715 
L 97.058881 200.664721 
L 97.97653 195.317885 
L 98.894178 191.318726 
L 99.811827 188.292224 
L 100.729475 185.95927 
L 101.778216 183.884017 
L 102.95805 182.051563 
L 104.400069 180.254819 
L 106.235366 178.347701 
L 109.250497 175.582092 
L 123.801779 162.835414 
L 130.094226 157.581919 
L 135.337931 153.490028 
L 140.188359 149.983667 
L 145.038787 146.751336 
L 149.758121 143.867585 
L 154.477456 141.240821 
L 159.196791 138.868377 
L 163.916126 136.745588 
L 168.635461 134.865787 
L 173.354796 133.220304 
L 178.205224 131.76205 
L 183.186744 130.495789 
L 188.299357 129.424636 
L 193.543062 128.556528 
L 198.786768 127.912853 
L 204.161566 127.476547 
L 209.667456 127.254108 
L 215.30444 127.251007 
L 221.072516 127.47161 
L 226.971684 127.919099 
L 233.133038 128.612447 
L 239.425485 129.546162 
L 245.717931 130.703019 
L 252.272563 132.136751 
L 259.08938 133.857662 
L 266.430568 135.941634 
L 274.951589 138.600228 
L 286.881019 142.582261 
L 299.33482 146.696389 
L 305.627266 148.536372 
L 310.870972 149.841199 
L 315.459214 150.75677 
L 319.654179 151.370898 
L 323.586958 151.726992 
L 327.388644 151.851971 
L 331.059238 151.757358 
L 334.729832 151.440095 
L 338.13824 150.925374 
L 341.284464 150.22473 
L 344.037409 149.386848 
L 346.528169 148.400169 
L 348.887837 147.224698 
L 351.247504 145.799126 
L 353.607171 144.1146 
L 356.097932 142.063443 
L 358.850877 139.506671 
L 362.128193 136.151657 
L 366.323157 131.525919 
L 371.43577 125.556511 
L 376.679476 119.092519 
L 382.709737 111.281195 
L 395.425723 94.697143 
L 400.145057 88.981921 
L 404.208929 84.408213 
L 407.879523 80.603095 
L 411.419024 77.254775 
L 414.69634 74.455633 
L 417.842563 72.062427 
L 420.726601 70.145065 
L 423.479547 68.579891 
L 426.1014 67.339106 
L 428.723252 66.341969 
L 431.345105 65.579942 
L 434.09805 65.016623 
L 436.982088 64.663979 
L 439.997219 64.527799 
L 443.143442 64.614574 
L 446.420758 64.933849 
L 449.829167 65.492315 
L 453.368668 66.295181 
L 457.170354 67.385542 
L 461.234226 68.781057 
L 465.822468 70.59813 
L 471.066174 72.922425 
L 477.35862 75.960492 
L 485.093086 79.956269 
L 496.891423 86.336774 
L 515.63767 96.457 
L 526.518359 102.060577 
L 536.219214 106.811901 
L 545.002421 110.869179 
L 552.867979 114.26296 
L 560.078074 117.136952 
L 566.763799 119.565225 
L 572.925153 121.571343 
L 578.693229 123.221376 
L 584.199119 124.566325 
L 589.442825 125.61601 
L 594.424345 126.385069 
L 599.012587 126.872589 
L 603.469737 127.123321 
L 607.795794 127.142005 
L 611.990758 126.938371 
L 616.185723 126.509176 
L 620.380687 125.850016 
L 624.575651 124.959238 
L 628.770616 123.83797 
L 633.096673 122.444431 
L 637.42273 120.817364 
L 642.010972 118.848253 
L 646.8614 116.514572 
L 652.36729 113.608759 
L 659.184108 109.74329 
L 683.960616 95.430423 
L 689.335414 92.727552 
L 694.185842 90.529786 
L 698.774084 88.692659 
L 703.100141 87.194603 
L 707.295105 85.969726 
L 711.49007 84.974154 
L 715.685034 84.207738 
L 719.879998 83.66575 
L 724.206055 83.335656 
L 728.532112 83.228643 
L 732.989262 83.339438 
L 737.708597 83.684806 
L 742.559024 84.262994 
L 747.80273 85.113453 
L 753.570806 86.277122 
L 759.863253 87.772367 
L 767.073348 89.720796 
L 775.725462 92.301401 
L 788.048169 96.2342 
L 808.760806 102.845283 
L 813.349048 104.230204 
L 813.349048 104.230204 
" clip-path="url(#p44ec9c6aff)" style="fill: none; stroke-dasharray: 12.95,5.6; stroke-dashoffset: 0; stroke: #0000ff; stroke-opacity: 0.8; stroke-width: 3.5"/>
   </g>
   <g id="patch_3">
    <path d="M 56.426719 211.405625 
L 56.426719 40.215 
" style="fill: none; stroke: #cccccc; stroke-width: 0.8; stroke-linejoin: miter; stroke-linecap: square"/>
   </g>
   <g id="patch_4">
    <path d="M 56.426719 211.405625 
L 849.392969 211.405625 
" style="fill: none; stroke: #cccccc; stroke-width: 0.8; stroke-linejoin: miter; stroke-linecap: square"/>
   </g>
   <g id="line2d_18">
    <path d="M 92.470639 186.204021 
L 94.830307 185.115013 
L 97.452159 183.660323 
L 100.46729 181.728555 
L 104.006791 179.190688 
L 108.201756 175.901234 
L 113.969832 171.069579 
L 129.30767 158.080071 
L 134.682468 153.893603 
L 139.663988 150.292783 
L 144.514416 147.057171 
L 149.364844 144.087462 
L 154.084178 141.453958 
L 158.803513 139.071371 
L 163.522848 136.936015 
L 168.242183 135.042062 
L 173.092611 133.338667 
L 177.943038 131.870888 
L 182.924559 130.594705 
L 188.037171 129.513293 
L 193.280877 128.634586 
L 198.524582 127.980413 
L 203.89938 127.533577 
L 209.405271 127.300678 
L 215.042254 127.287256 
L 220.810331 127.49771 
L 226.709499 127.935217 
L 232.870853 128.618497 
L 239.1633 129.541936 
L 245.455746 130.688159 
L 252.010378 132.110504 
L 258.827195 133.819265 
L 266.299475 135.928708 
L 274.820497 138.574695 
L 286.881019 142.580356 
L 299.203727 146.628142 
L 305.496174 148.458958 
L 310.739879 149.757234 
L 315.328122 150.665754 
L 319.391993 151.251968 
L 323.19368 151.581612 
L 326.733181 151.671062 
L 330.14159 151.534551 
L 333.418905 151.174949 
L 336.565129 150.598605 
L 339.580259 149.815102 
L 342.464297 148.836989 
L 345.348335 147.618678 
L 348.101281 146.216412 
L 350.985319 144.496904 
L 354.000449 142.431782 
L 357.01558 140.096974 
L 360.161803 137.381133 
L 363.439119 134.262111 
L 366.97862 130.583405 
L 370.780307 126.308612 
L 375.106364 121.096995 
L 380.350069 114.405257 
L 398.309761 91.131826 
L 402.504725 86.248929 
L 406.175319 82.30055 
L 409.583727 78.947414 
L 412.861043 76.036968 
L 415.876174 73.64593 
L 418.891305 71.538442 
L 421.775343 69.792617 
L 424.659381 68.312017 
L 427.412326 67.144282 
L 430.165271 66.211885 
L 432.918217 65.507731 
L 435.802255 65.004236 
L 438.686293 64.726324 
L 441.701423 64.659584 
L 444.847647 64.819868 
L 448.124963 65.217618 
L 451.533371 65.859203 
L 455.203965 66.783922 
L 459.136744 68.011973 
L 463.462801 69.605473 
L 468.313229 71.638764 
L 474.081305 74.309776 
L 480.898122 77.719014 
L 489.812421 82.44414 
L 523.109951 100.329841 
L 533.204084 105.372402 
L 542.249476 109.645682 
L 550.377219 113.243532 
L 557.718407 116.257369 
L 564.535224 118.820631 
L 570.82767 120.954879 
L 576.726839 122.726172 
L 582.23273 124.154726 
L 587.476435 125.291618 
L 592.589048 126.170591 
L 597.308383 126.758671 
L 601.765533 127.095112 
L 606.09159 127.202208 
L 610.286554 127.088105 
L 614.481518 126.751101 
L 618.676483 126.185695 
L 622.871447 125.389092 
L 627.066412 124.361196 
L 631.261376 123.104628 
L 635.587433 121.574966 
L 640.044583 119.76 
L 644.632825 117.652308 
L 649.745438 115.053593 
L 655.775699 111.730068 
L 664.034535 106.900293 
L 679.110188 98.055424 
L 685.271542 94.729677 
L 690.515248 92.146026 
L 695.234583 90.059546 
L 699.691732 88.32346 
L 704.017789 86.872894 
L 708.212754 85.696237 
L 712.407718 84.749781 
L 716.602682 84.032152 
L 720.797647 83.537987 
L 725.123704 83.255771 
L 729.449761 83.194552 
L 733.90691 83.349893 
L 738.626245 83.739008 
L 743.607766 84.377529 
L 748.982564 85.296856 
L 754.881732 86.535483 
L 761.436364 88.145845 
L 768.908644 90.22091 
L 777.954036 92.974243 
L 792.636412 97.714333 
L 808.891899 102.888354 
L 813.349048 104.236692 
L 813.349048 104.236692 
" clip-path="url(#p44ec9c6aff)" style="fill: none; stroke-dasharray: 22.4,5.6,3.5,5.6; stroke-dashoffset: 0; stroke: #008000; stroke-opacity: 0.8; stroke-width: 3.5"/>
   </g>
   <g id="line2d_19">
    <path d="M 92.470639 187.073939 
L 94.830307 185.949517 
L 97.452159 184.448954 
L 100.46729 182.458761 
L 104.006791 179.848366 
L 108.332848 176.362576 
L 114.232017 171.296484 
L 128.127836 159.27229 
L 133.633727 154.864557 
L 138.615247 151.162354 
L 143.465675 147.83704 
L 148.316102 144.784116 
L 153.035437 142.075065 
L 157.754772 139.621736 
L 162.474107 137.420066 
L 167.193442 135.463991 
L 171.912777 133.745443 
L 176.763205 132.216064 
L 181.744725 130.881616 
L 186.857338 129.744692 
L 191.96995 128.832427 
L 197.213656 128.121335 
L 202.588454 127.619067 
L 208.094345 127.332329 
L 213.731328 127.266801 
L 219.499404 127.427059 
L 225.398573 127.816497 
L 231.428834 128.437242 
L 237.721281 129.311217 
L 244.013727 130.409746 
L 250.437266 131.756294 
L 257.122991 133.384692 
L 264.333086 135.373154 
L 272.460829 137.853728 
L 282.817148 141.264051 
L 300.645746 147.165388 
L 306.676008 148.884304 
L 311.657528 150.081743 
L 316.114677 150.929201 
L 320.178549 151.477103 
L 323.980236 151.762149 
L 327.519737 151.801851 
L 330.797053 151.621333 
L 333.943276 151.231096 
L 336.958407 150.639407 
L 339.973537 149.816732 
L 342.857575 148.796974 
L 345.741613 147.533022 
L 348.494559 146.084276 
L 351.378597 144.316587 
L 354.393727 142.200913 
L 357.408858 139.816453 
L 360.555081 137.050968 
L 363.96349 133.751409 
L 367.634084 129.871302 
L 371.566863 125.379327 
L 376.024012 119.939227 
L 381.529903 112.848793 
L 396.605556 93.220719 
L 401.062706 87.898782 
L 404.995485 83.545658 
L 408.534986 79.954377 
L 411.812302 76.93856 
L 414.958525 74.343363 
L 417.973656 72.142732 
L 420.857694 70.306423 
L 423.741732 68.735403 
L 426.494677 67.48267 
L 429.247623 66.467709 
L 432.000568 65.684498 
L 434.753514 65.124334 
L 437.637552 64.764292 
L 440.652682 64.618796 
L 443.667813 64.694912 
L 446.814036 64.994781 
L 450.091352 65.526896 
L 453.630853 66.329797 
L 457.43254 67.427147 
L 461.496411 68.833832 
L 466.084654 70.66441 
L 471.328359 73.002504 
L 477.751898 76.120248 
L 485.617457 80.203058 
L 497.940164 86.888255 
L 515.506578 96.380046 
L 526.387267 101.994961 
L 536.088122 106.756693 
L 544.871328 110.823741 
L 552.736887 114.226621 
L 559.946982 117.109287 
L 566.632706 119.545913 
L 572.79406 121.560008 
L 578.562136 123.217758 
L 584.068027 124.570296 
L 589.311732 125.627359 
L 594.293252 126.403651 
L 598.881495 126.898125 
L 603.338644 127.155729 
L 607.664701 127.181076 
L 611.859666 126.983821 
L 616.05463 126.560883 
L 620.249594 125.907837 
L 624.444559 125.023003 
L 628.639523 123.907437 
L 632.834488 122.56494 
L 637.160545 120.949757 
L 641.617694 119.051336 
L 646.337029 116.799908 
L 651.711827 113.984396 
L 658.266459 110.288561 
L 669.147148 103.849416 
L 678.848003 98.206877 
L 685.009357 94.87325 
L 690.253062 92.279071 
L 695.10349 90.125739 
L 699.56064 88.383428 
L 703.886697 86.926016 
L 708.081661 85.74224 
L 712.276625 84.788458 
L 716.47159 84.06355 
L 720.666554 83.562295 
L 724.992611 83.273085 
L 729.318668 83.205303 
L 733.775818 83.354399 
L 738.495153 83.737521 
L 743.476673 84.370432 
L 748.851471 85.284549 
L 754.75064 86.518358 
L 761.174179 88.089713 
L 768.515367 90.118039 
L 777.560758 92.86025 
L 791.849856 97.463363 
L 808.629713 102.806554 
L 813.349048 104.233755 
L 813.349048 104.233755 
" clip-path="url(#p44ec9c6aff)" style="fill: none; stroke-dasharray: 3.5,5.775; stroke-dashoffset: 0; stroke: #ff0000; stroke-opacity: 0.8; stroke-width: 3.5"/>
   </g>
  </g>
  <g id="axes_2">
   <g id="patch_5">
    <path d="M 56.426719 393.39625 
L 849.392969 393.39625 
L 849.392969 222.205625 
L 56.426719 222.205625 
z
" style="fill: #ffffff"/>
   </g>
   <g id="matplotlib.axis_3">
    <g id="xtick_8">
     <g id="line2d_20">
      <path d="M 92.470639 393.39625 
L 92.470639 222.205625 
" clip-path="url(#pb1391bbfda)" style="fill: none; stroke: #cccccc; stroke-opacity: 0.25; stroke-width: 0.5; stroke-linecap: round"/>
     </g>
     <g id="text_10">
      <!-- 0 -->
      <g style="fill: #262626" transform="translate(89.607514 407.234844) scale(0.09 -0.09)">
       <use xlink:href="#DejaVuSerif-30"/>
      </g>
     </g>
    </g>
    <g id="xtick_9">
     <g id="line2d_21">
      <path d="M 212.617041 393.39625 
L 212.617041 222.205625 
" clip-path="url(#pb1391bbfda)" style="fill: none; stroke: #cccccc; stroke-opacity: 0.25; stroke-width: 0.5; stroke-linecap: round"/>
     </g>
     <g id="text_11">
      <!-- 2 -->
      <g style="fill: #262626" transform="translate(209.753916 407.234844) scale(0.09 -0.09)">
       <use xlink:href="#DejaVuSerif-32"/>
      </g>
     </g>
    </g>
    <g id="xtick_10">
     <g id="line2d_22">
      <path d="M 332.763442 393.39625 
L 332.763442 222.205625 
" clip-path="url(#pb1391bbfda)" style="fill: none; stroke: #cccccc; stroke-opacity: 0.25; stroke-width: 0.5; stroke-linecap: round"/>
     </g>
     <g id="text_12">
      <!-- 4 -->
      <g style="fill: #262626" transform="translate(329.900317 407.234844) scale(0.09 -0.09)">
       <defs>
        <path id="DejaVuSerif-34" d="M 2234 1581 
L 2234 4063 
L 641 1581 
L 2234 1581 
z
M 3609 0 
L 1484 0 
L 1484 331 
L 2234 331 
L 2234 1247 
L 197 1247 
L 197 1588 
L 2241 4750 
L 2859 4750 
L 2859 1581 
L 3750 1581 
L 3750 1247 
L 2859 1247 
L 2859 331 
L 3609 331 
L 3609 0 
z
" transform="scale(0.015625)"/>
       </defs>
       <use xlink:href="#DejaVuSerif-34"/>
      </g>
     </g>
    </g>
    <g id="xtick_11">
     <g id="line2d_23">
      <path d="M 452.909844 393.39625 
L 452.909844 222.205625 
" clip-path="url(#pb1391bbfda)" style="fill: none; stroke: #cccccc; stroke-opacity: 0.25; stroke-width: 0.5; stroke-linecap: round"/>
     </g>
     <g id="text_13">
      <!-- 6 -->
      <g style="fill: #262626" transform="translate(450.046719 407.234844) scale(0.09 -0.09)">
       <defs>
        <path id="DejaVuSerif-36" d="M 2094 219 
Q 2534 219 2771 542 
Q 3009 866 3009 1472 
Q 3009 2078 2771 2401 
Q 2534 2725 2094 2725 
Q 1647 2725 1412 2412 
Q 1178 2100 1178 1509 
Q 1178 888 1415 553 
Q 1653 219 2094 219 
z
M 1075 2569 
Q 1288 2803 1556 2918 
Q 1825 3034 2163 3034 
Q 2859 3034 3264 2615 
Q 3669 2197 3669 1472 
Q 3669 763 3233 336 
Q 2797 -91 2069 -91 
Q 1278 -91 853 498 
Q 428 1088 428 2181 
Q 428 3406 931 4078 
Q 1434 4750 2350 4750 
Q 2597 4750 2869 4703 
Q 3141 4656 3425 4563 
L 3425 3794 
L 3072 3794 
Q 3034 4109 2831 4275 
Q 2628 4441 2284 4441 
Q 1678 4441 1381 3981 
Q 1084 3522 1075 2569 
z
" transform="scale(0.015625)"/>
       </defs>
       <use xlink:href="#DejaVuSerif-36"/>
      </g>
     </g>
    </g>
    <g id="xtick_12">
     <g id="line2d_24">
      <path d="M 573.056245 393.39625 
L 573.056245 222.205625 
" clip-path="url(#pb1391bbfda)" style="fill: none; stroke: #cccccc; stroke-opacity: 0.25; stroke-width: 0.5; stroke-linecap: round"/>
     </g>
     <g id="text_14">
      <!-- 8 -->
      <g style="fill: #262626" transform="translate(570.19312 407.234844) scale(0.09 -0.09)">
       <defs>
        <path id="DejaVuSerif-38" d="M 2981 1275 
Q 2981 1775 2732 2051 
Q 2484 2328 2034 2328 
Q 1584 2328 1336 2051 
Q 1088 1775 1088 1275 
Q 1088 772 1336 495 
Q 1584 219 2034 219 
Q 2484 219 2732 495 
Q 2981 772 2981 1275 
z
M 2853 3541 
Q 2853 3966 2637 4203 
Q 2422 4441 2034 4441 
Q 1650 4441 1433 4203 
Q 1216 3966 1216 3541 
Q 1216 3113 1433 2875 
Q 1650 2638 2034 2638 
Q 2422 2638 2637 2875 
Q 2853 3113 2853 3541 
z
M 2516 2484 
Q 3047 2413 3344 2092 
Q 3641 1772 3641 1275 
Q 3641 619 3225 264 
Q 2809 -91 2034 -91 
Q 1263 -91 845 264 
Q 428 619 428 1275 
Q 428 1772 725 2092 
Q 1022 2413 1556 2484 
Q 1084 2569 832 2842 
Q 581 3116 581 3541 
Q 581 4103 968 4426 
Q 1356 4750 2034 4750 
Q 2713 4750 3100 4426 
Q 3488 4103 3488 3541 
Q 3488 3116 3236 2842 
Q 2984 2569 2516 2484 
z
" transform="scale(0.015625)"/>
       </defs>
       <use xlink:href="#DejaVuSerif-38"/>
      </g>
     </g>
    </g>
    <g id="xtick_13">
     <g id="line2d_25">
      <path d="M 693.202647 393.39625 
L 693.202647 222.205625 
" clip-path="url(#pb1391bbfda)" style="fill: none; stroke: #cccccc; stroke-opacity: 0.25; stroke-width: 0.5; stroke-linecap: round"/>
     </g>
     <g id="text_15">
      <!-- 10 -->
      <g style="fill: #262626" transform="translate(687.476397 407.234844) scale(0.09 -0.09)">
       <use xlink:href="#DejaVuSerif-31"/>
       <use xlink:href="#DejaVuSerif-30" transform="translate(63.623047 0)"/>
      </g>
     </g>
    </g>
    <g id="xtick_14">
     <g id="line2d_26">
      <path d="M 813.349048 393.39625 
L 813.349048 222.205625 
" clip-path="url(#pb1391bbfda)" style="fill: none; stroke: #cccccc; stroke-opacity: 0.25; stroke-width: 0.5; stroke-linecap: round"/>
     </g>
     <g id="text_16">
      <!-- 12 -->
      <g style="fill: #262626" transform="translate(807.622798 407.234844) scale(0.09 -0.09)">
       <use xlink:href="#DejaVuSerif-31"/>
       <use xlink:href="#DejaVuSerif-32" transform="translate(63.623047 0)"/>
      </g>
     </g>
    </g>
    <g id="text_17">
     <!-- Time -->
     <g style="fill: #262626" transform="translate(439.011172 421.464844) scale(0.11 -0.11)">
      <defs>
       <path id="DejaVuSerif-54" d="M 1222 0 
L 1222 331 
L 1819 331 
L 1819 4294 
L 447 4294 
L 447 3566 
L 63 3566 
L 63 4666 
L 4206 4666 
L 4206 3566 
L 3822 3566 
L 3822 4294 
L 2450 4294 
L 2450 331 
L 3047 331 
L 3047 0 
L 1222 0 
z
" transform="scale(0.015625)"/>
       <path id="DejaVuSerif-69" d="M 622 4353 
Q 622 4497 726 4603 
Q 831 4709 978 4709 
Q 1122 4709 1226 4603 
Q 1331 4497 1331 4353 
Q 1331 4206 1228 4103 
Q 1125 4000 978 4000 
Q 831 4000 726 4103 
Q 622 4206 622 4353 
z
M 1356 331 
L 1900 331 
L 1900 0 
L 231 0 
L 231 331 
L 781 331 
L 781 2988 
L 231 2988 
L 231 3322 
L 1356 3322 
L 1356 331 
z
" transform="scale(0.015625)"/>
       <path id="DejaVuSerif-6d" d="M 3316 2675 
Q 3481 3041 3739 3227 
Q 3997 3413 4341 3413 
Q 4863 3413 5119 3089 
Q 5375 2766 5375 2113 
L 5375 331 
L 5894 331 
L 5894 0 
L 4300 0 
L 4300 331 
L 4800 331 
L 4800 2047 
Q 4800 2556 4650 2772 
Q 4500 2988 4153 2988 
Q 3769 2988 3567 2697 
Q 3366 2406 3366 1850 
L 3366 331 
L 3866 331 
L 3866 0 
L 2291 0 
L 2291 331 
L 2791 331 
L 2791 2069 
Q 2791 2566 2641 2777 
Q 2491 2988 2144 2988 
Q 1759 2988 1557 2697 
Q 1356 2406 1356 1850 
L 1356 331 
L 1856 331 
L 1856 0 
L 263 0 
L 263 331 
L 781 331 
L 781 2994 
L 231 2994 
L 231 3322 
L 1356 3322 
L 1356 2731 
Q 1516 3063 1762 3238 
Q 2009 3413 2322 3413 
Q 2709 3413 2968 3220 
Q 3228 3028 3316 2675 
z
" transform="scale(0.015625)"/>
       <path id="DejaVuSerif-65" d="M 3469 1600 
L 991 1600 
L 991 1575 
Q 991 903 1244 561 
Q 1497 219 1991 219 
Q 2369 219 2611 417 
Q 2853 616 2950 1006 
L 3413 1006 
Q 3275 459 2904 184 
Q 2534 -91 1931 -91 
Q 1203 -91 761 389 
Q 319 869 319 1663 
Q 319 2450 753 2931 
Q 1188 3413 1894 3413 
Q 2647 3413 3050 2948 
Q 3453 2484 3469 1600 
z
M 2791 1931 
Q 2772 2513 2545 2808 
Q 2319 3103 1894 3103 
Q 1497 3103 1269 2806 
Q 1041 2509 991 1931 
L 2791 1931 
z
" transform="scale(0.015625)"/>
      </defs>
      <use xlink:href="#DejaVuSerif-54"/>
      <use xlink:href="#DejaVuSerif-69" transform="translate(66.699219 0)"/>
      <use xlink:href="#DejaVuSerif-6d" transform="translate(98.681641 0)"/>
      <use xlink:href="#DejaVuSerif-65" transform="translate(193.505859 0)"/>
     </g>
    </g>
   </g>
   <g id="matplotlib.axis_4">
    <g id="ytick_9">
     <g id="line2d_27">
      <path d="M 56.426719 379.53162 
L 849.392969 379.53162 
" clip-path="url(#pb1391bbfda)" style="fill: none; stroke: #cccccc; stroke-opacity: 0.25; stroke-width: 0.5; stroke-linecap: round"/>
     </g>
     <g id="text_18">
      <!-- −0.50 -->
      <g style="fill: #262626" transform="translate(21.845938 382.950917) scale(0.09 -0.09)">
       <use xlink:href="#DejaVuSerif-2212"/>
       <use xlink:href="#DejaVuSerif-30" transform="translate(83.789062 0)"/>
       <use xlink:href="#DejaVuSerif-2e" transform="translate(147.412109 0)"/>
       <use xlink:href="#DejaVuSerif-35" transform="translate(179.199219 0)"/>
       <use xlink:href="#DejaVuSerif-30" transform="translate(242.822266 0)"/>
      </g>
     </g>
    </g>
    <g id="ytick_10">
     <g id="line2d_28">
      <path d="M 56.426719 356.37579 
L 849.392969 356.37579 
" clip-path="url(#pb1391bbfda)" style="fill: none; stroke: #cccccc; stroke-opacity: 0.25; stroke-width: 0.5; stroke-linecap: round"/>
     </g>
     <g id="text_19">
      <!-- −0.25 -->
      <g style="fill: #262626" transform="translate(21.845938 359.795087) scale(0.09 -0.09)">
       <use xlink:href="#DejaVuSerif-2212"/>
       <use xlink:href="#DejaVuSerif-30" transform="translate(83.789062 0)"/>
       <use xlink:href="#DejaVuSerif-2e" transform="translate(147.412109 0)"/>
       <use xlink:href="#DejaVuSerif-32" transform="translate(179.199219 0)"/>
       <use xlink:href="#DejaVuSerif-35" transform="translate(242.822266 0)"/>
      </g>
     </g>
    </g>
    <g id="ytick_11">
     <g id="line2d_29">
      <path d="M 56.426719 333.21996 
L 849.392969 333.21996 
" clip-path="url(#pb1391bbfda)" style="fill: none; stroke: #cccccc; stroke-opacity: 0.25; stroke-width: 0.5; stroke-linecap: round"/>
     </g>
     <g id="text_20">
      <!-- 0.00 -->
      <g style="fill: #262626" transform="translate(29.387656 336.639257) scale(0.09 -0.09)">
       <use xlink:href="#DejaVuSerif-30"/>
       <use xlink:href="#DejaVuSerif-2e" transform="translate(63.623047 0)"/>
       <use xlink:href="#DejaVuSerif-30" transform="translate(95.410156 0)"/>
       <use xlink:href="#DejaVuSerif-30" transform="translate(159.033203 0)"/>
      </g>
     </g>
    </g>
    <g id="ytick_12">
     <g id="line2d_30">
      <path d="M 56.426719 310.06413 
L 849.392969 310.06413 
" clip-path="url(#pb1391bbfda)" style="fill: none; stroke: #cccccc; stroke-opacity: 0.25; stroke-width: 0.5; stroke-linecap: round"/>
     </g>
     <g id="text_21">
      <!-- 0.25 -->
      <g style="fill: #262626" transform="translate(29.387656 313.483427) scale(0.09 -0.09)">
       <use xlink:href="#DejaVuSerif-30"/>
       <use xlink:href="#DejaVuSerif-2e" transform="translate(63.623047 0)"/>
       <use xlink:href="#DejaVuSerif-32" transform="translate(95.410156 0)"/>
       <use xlink:href="#DejaVuSerif-35" transform="translate(159.033203 0)"/>
      </g>
     </g>
    </g>
    <g id="ytick_13">
     <g id="line2d_31">
      <path d="M 56.426719 286.9083 
L 849.392969 286.9083 
" clip-path="url(#pb1391bbfda)" style="fill: none; stroke: #cccccc; stroke-opacity: 0.25; stroke-width: 0.5; stroke-linecap: round"/>
     </g>
     <g id="text_22">
      <!-- 0.50 -->
      <g style="fill: #262626" transform="translate(29.387656 290.327597) scale(0.09 -0.09)">
       <use xlink:href="#DejaVuSerif-30"/>
       <use xlink:href="#DejaVuSerif-2e" transform="translate(63.623047 0)"/>
       <use xlink:href="#DejaVuSerif-35" transform="translate(95.410156 0)"/>
       <use xlink:href="#DejaVuSerif-30" transform="translate(159.033203 0)"/>
      </g>
     </g>
    </g>
    <g id="ytick_14">
     <g id="line2d_32">
      <path d="M 56.426719 263.75247 
L 849.392969 263.75247 
" clip-path="url(#pb1391bbfda)" style="fill: none; stroke: #cccccc; stroke-opacity: 0.25; stroke-width: 0.5; stroke-linecap: round"/>
     </g>
     <g id="text_23">
      <!-- 0.75 -->
      <g style="fill: #262626" transform="translate(29.387656 267.171766) scale(0.09 -0.09)">
       <use xlink:href="#DejaVuSerif-30"/>
       <use xlink:href="#DejaVuSerif-2e" transform="translate(63.623047 0)"/>
       <use xlink:href="#DejaVuSerif-37" transform="translate(95.410156 0)"/>
       <use xlink:href="#DejaVuSerif-35" transform="translate(159.033203 0)"/>
      </g>
     </g>
    </g>
    <g id="ytick_15">
     <g id="line2d_33">
      <path d="M 56.426719 240.596639 
L 849.392969 240.596639 
" clip-path="url(#pb1391bbfda)" style="fill: none; stroke: #cccccc; stroke-opacity: 0.25; stroke-width: 0.5; stroke-linecap: round"/>
     </g>
     <g id="text_24">
      <!-- 1.00 -->
      <g style="fill: #262626" transform="translate(29.387656 244.015936) scale(0.09 -0.09)">
       <use xlink:href="#DejaVuSerif-31"/>
       <use xlink:href="#DejaVuSerif-2e" transform="translate(63.623047 0)"/>
       <use xlink:href="#DejaVuSerif-30" transform="translate(95.410156 0)"/>
       <use xlink:href="#DejaVuSerif-30" transform="translate(159.033203 0)"/>
      </g>
     </g>
    </g>
    <g id="text_25">
     <!-- $dx1/dt$ -->
     <g style="fill: #262626" transform="translate(15.558281 325.565938) rotate(-90) scale(0.11 -0.11)">
      <defs>
       <path id="DejaVuSans-31" d="M 794 531 
L 1825 531 
L 1825 4091 
L 703 3866 
L 703 4441 
L 1819 4666 
L 2450 4666 
L 2450 531 
L 3481 531 
L 3481 0 
L 794 0 
L 794 531 
z
" transform="scale(0.015625)"/>
      </defs>
      <use xlink:href="#DejaVuSans-Oblique-64" transform="translate(0 0.015625)"/>
      <use xlink:href="#DejaVuSans-Oblique-78" transform="translate(63.476562 0.015625)"/>
      <use xlink:href="#DejaVuSans-31" transform="translate(122.65625 0.015625)"/>
      <use xlink:href="#DejaVuSans-2f" transform="translate(186.279297 0.015625)"/>
      <use xlink:href="#DejaVuSans-Oblique-64" transform="translate(219.970703 0.015625)"/>
      <use xlink:href="#DejaVuSans-Oblique-74" transform="translate(283.447266 0.015625)"/>
     </g>
    </g>
   </g>
   <g id="line2d_34">
    <path d="M 92.470639 305.431808 
L 94.437029 299.993104 
L 96.272326 295.527697 
L 98.107623 291.630173 
L 99.680734 288.871495 
L 101.647124 285.855963 
L 103.482421 283.441689 
L 105.317718 281.395002 
L 107.021922 279.807565 
L 108.726126 278.506486 
L 110.43033 277.477034 
L 112.134535 276.704478 
L 113.838739 276.17409 
L 115.542943 275.871139 
L 117.37824 275.782341 
L 119.213537 275.921836 
L 121.179927 276.303729 
L 123.277409 276.951169 
L 125.505984 277.880533 
L 127.996744 279.17389 
L 130.749689 280.862623 
L 134.027005 283.144394 
L 138.484155 286.54174 
L 143.465675 290.316165 
L 160.900996 303.355304 
L 168.635461 308.835905 
L 175.059 313.119489 
L 180.695984 316.619008 
L 186.857338 320.161189 
L 194.722896 324.445401 
L 202.588454 328.475929 
L 210.454012 332.254159 
L 218.188478 335.724739 
L 225.922943 338.954023 
L 233.657409 341.943323 
L 249.388525 347.655725 
L 256.467528 349.972185 
L 262.497789 351.716958 
L 267.872587 353.04331 
L 272.723015 354.01847 
L 277.311257 354.718051 
L 281.637314 355.155036 
L 286.618834 355.412664 
L 289.633965 355.340287 
L 292.649095 355.041686 
L 295.533133 354.534925 
L 298.417171 353.802824 
L 301.301209 352.836405 
L 304.185247 351.626692 
L 307.069285 350.16471 
L 309.953323 348.441482 
L 312.837361 346.448031 
L 315.721399 344.175381 
L 318.605437 341.614556 
L 321.489475 338.756579 
L 324.373513 335.592474 
L 327.388644 331.947486 
L 330.403775 327.947841 
L 333.418905 323.58328 
L 336.565129 318.628803 
L 339.711352 313.254168 
L 342.857575 307.44772 
L 346.134891 300.927597 
L 350.854226 291.416142 
L 357.277765 279.009324 
L 361.341637 271.626541 
L 364.750046 265.883261 
L 367.634084 261.433589 
L 370.255936 257.776404 
L 372.615604 254.845271 
L 374.844179 252.425842 
L 376.810568 250.598459 
L 378.645865 249.173128 
L 380.350069 248.107826 
L 382.054274 247.307256 
L 383.496293 246.875467 
L 384.938312 246.677132 
L 386.380331 246.70477 
L 387.82235 246.950933 
L 389.395461 247.459953 
L 390.968573 248.210507 
L 392.672777 249.28496 
L 394.376981 250.619244 
L 396.212278 252.332647 
L 398.178668 254.469574 
L 400.27615 257.071519 
L 402.635818 260.368738 
L 405.126578 264.239447 
L 407.879523 268.938545 
L 410.894654 274.533226 
L 415.745081 284.121334 
L 422.561898 298.222879 
L 429.640901 312.722355 
L 433.835865 320.811053 
L 437.244274 326.914101 
L 440.390497 332.087147 
L 443.667813 337.165725 
L 446.814036 341.648272 
L 449.960259 345.748541 
L 452.97539 349.32097 
L 455.990521 352.545659 
L 458.874559 355.306264 
L 461.627504 357.647306 
L 464.380449 359.702371 
L 467.002302 361.394844 
L 469.624155 362.830134 
L 472.246008 364.009285 
L 477.227528 365.87459 
L 480.635936 366.874606 
L 484.175438 367.681155 
L 487.846031 368.289002 
L 491.647718 368.696615 
L 495.71159 368.910186 
L 500.168739 368.915481 
L 505.019167 368.694259 
L 510.65615 368.206021 
L 517.735153 367.355353 
L 527.04273 365.974533 
L 534.908288 364.587023 
L 541.98729 363.116988 
L 548.541922 361.532623 
L 554.703276 359.818307 
L 560.602445 357.94758 
L 566.239428 355.92861 
L 571.745319 353.718532 
L 576.989024 351.377519 
L 582.101637 348.857313 
L 587.21425 346.087113 
L 592.589048 342.913706 
L 596.784013 340.127859 
L 601.372255 336.803686 
L 606.61596 332.719686 
L 613.039499 327.419858 
L 624.575651 317.543768 
L 633.227766 310.282366 
L 639.126934 305.618588 
L 643.977362 302.059393 
L 646.8614 300.219798 
L 649.745438 298.628984 
L 652.629476 297.287064 
L 655.513514 296.194542 
L 658.266459 295.384794 
L 661.019404 294.803183 
L 663.77235 294.450149 
L 666.525295 294.326127 
L 669.278241 294.431558 
L 672.031186 294.766878 
L 674.784131 295.332526 
L 677.537077 296.12894 
L 680.290022 297.156558 
L 683.305153 298.529871 
L 686.320283 300.140629 
L 689.597599 302.144178 
L 693.268193 304.655265 
L 697.463157 307.804939 
L 702.57577 311.936804 
L 710.965699 319.056878 
L 719.224535 325.96377 
L 725.385889 330.858369 
L 730.760687 334.852711 
L 735.611115 338.186098 
L 740.068264 340.984118 
L 744.263229 343.35489 
L 748.196008 345.320946 
L 751.866602 346.911291 
L 757.634678 349.089889 
L 762.091827 350.511753 
L 766.548977 351.702301 
L 771.137219 352.694339 
L 775.725462 353.457761 
L 780.444796 354.013307 
L 785.164131 354.344956 
L 790.014559 354.462089 
L 794.996079 354.356614 
L 801.943989 353.94183 
L 807.712065 353.375061 
L 813.349048 352.617896 
L 813.349048 352.617896 
" clip-path="url(#pb1391bbfda)" style="fill: none; stroke: #808080; stroke-opacity: 0.5; stroke-width: 6; stroke-linecap: round"/>
   </g>
   <g id="line2d_35">
    <path d="M 92.470639 336.761024 
L 99.025271 326.855013 
L 104.531162 318.930094 
L 109.643775 311.951761 
L 114.625295 305.529393 
L 119.34463 299.800731 
L 124.063965 294.42185 
L 128.652207 289.523882 
L 133.240449 284.942004 
L 137.959784 280.540488 
L 142.810212 276.318935 
L 147.791732 272.275688 
L 152.904345 268.408558 
L 158.279143 264.62285 
L 163.916126 260.927485 
L 169.946387 257.246518 
L 176.369927 253.587444 
L 183.580022 249.738845 
L 191.96995 245.519497 
L 202.195176 240.637719 
L 239.294392 223.167806 
L 247.946506 218.703555 
L 255.680972 214.467958 
L 263.02216 210.193856 
L 269.970069 205.893246 
L 276.786886 201.411992 
L 283.472611 196.750418 
L 290.289428 191.722261 
L 297.106245 186.415792 
L 304.185247 180.617752 
L 311.919713 173.986322 
L 321.489475 165.468205 
L 341.153371 147.880205 
L 347.445818 142.607197 
L 352.689523 138.494901 
L 357.277765 135.175456 
L 361.341637 132.50105 
L 365.143323 130.257321 
L 368.813917 128.351467 
L 372.222326 126.827822 
L 375.499642 125.598583 
L 378.776958 124.610091 
L 381.923181 123.894573 
L 385.069404 123.412592 
L 388.084535 123.172105 
L 391.099666 123.148206 
L 394.245889 123.351609 
L 397.392112 123.782993 
L 400.538335 124.434457 
L 403.815651 125.335701 
L 407.355153 126.547086 
L 411.025746 128.040419 
L 414.958525 129.878877 
L 419.284582 132.150149 
L 424.13501 134.951345 
L 429.903086 138.547159 
L 437.899737 143.820137 
L 454.417409 154.764617 
L 461.365319 159.060856 
L 467.39558 162.531127 
L 473.032563 165.51778 
L 478.276269 168.050527 
L 483.388882 170.278679 
L 488.370402 172.211845 
L 493.351922 173.904109 
L 498.20235 175.316708 
L 503.052777 176.495806 
L 507.903205 177.441948 
L 512.753632 178.157699 
L 517.60406 178.647658 
L 522.454488 178.917781 
L 527.436008 178.969903 
L 532.417528 178.797331 
L 537.399048 178.404893 
L 542.511661 177.779826 
L 547.755366 176.912941 
L 553.130164 175.797353 
L 558.636055 174.428944 
L 564.404131 172.766615 
L 570.565485 170.753848 
L 577.120117 168.372528 
L 584.330212 165.508249 
L 592.457955 162.032274 
L 603.338644 157.110184 
L 620.51178 149.345901 
L 628.246245 146.10727 
L 634.800877 143.599048 
L 640.568953 141.625319 
L 645.812659 140.058771 
L 650.794179 138.795229 
L 655.644606 137.795757 
L 660.232849 137.073794 
L 664.821091 136.57731 
L 669.409333 136.309632 
L 673.997576 136.269426 
L 678.585818 136.450701 
L 683.305153 136.857279 
L 688.15558 137.496148 
L 693.268193 138.393617 
L 698.774084 139.590242 
L 704.804345 141.135903 
L 711.621162 143.119129 
L 720.404369 145.921149 
L 749.638027 155.438662 
L 757.372492 157.613209 
L 764.451495 159.377441 
L 771.137219 160.815615 
L 777.560758 161.969614 
L 783.853205 162.871962 
L 790.014559 163.531093 
L 796.175913 163.967613 
L 802.337267 164.184088 
L 808.629713 164.180845 
L 813.349048 164.033736 
L 813.349048 164.033736 
" clip-path="url(#pb1391bbfda)" style="fill: none; stroke-dasharray: 12.95,5.6; stroke-dashoffset: 0; stroke: #0000ff; stroke-opacity: 0.8; stroke-width: 3.5"/>
   </g>
   <g id="patch_6">
    <path d="M 56.426719 393.39625 
L 56.426719 222.205625 
" style="fill: none; stroke: #cccccc; stroke-width: 0.8; stroke-linejoin: miter; stroke-linecap: square"/>
   </g>
   <g id="patch_7">
    <path d="M 56.426719 393.39625 
L 849.392969 393.39625 
" style="fill: none; stroke: #cccccc; stroke-width: 0.8; stroke-linejoin: miter; stroke-linecap: square"/>
   </g>
   <g id="line2d_36">
    <path d="M 92.470639 330.013779 
L 94.174843 325.348609 
L 95.747955 321.634636 
L 97.321067 318.46311 
L 98.894178 315.804332 
L 100.336197 313.78999 
L 101.778216 312.151339 
L 103.220235 310.859578 
L 104.662254 309.88576 
L 106.104273 309.201148 
L 107.546292 308.777511 
L 108.988311 308.587394 
L 110.561423 308.61526 
L 112.265627 308.885617 
L 114.100924 309.412471 
L 116.198406 310.257517 
L 118.689167 311.517429 
L 121.83539 313.376962 
L 127.210188 316.865773 
L 133.502634 320.880301 
L 137.697599 323.294676 
L 141.499285 325.235816 
L 145.169879 326.869888 
L 148.840473 328.26759 
L 152.642159 329.477176 
L 156.574939 330.493875 
L 160.769903 331.34452 
L 165.227053 332.021198 
L 170.208573 332.54947 
L 175.976649 332.927553 
L 182.924559 333.148424 
L 192.887599 333.219663 
L 208.880901 333.334987 
L 216.090996 333.625421 
L 221.859072 334.072981 
L 226.840592 334.67631 
L 231.297741 335.439032 
L 235.230521 336.331617 
L 238.901114 337.390476 
L 242.309523 338.606667 
L 245.455746 339.963981 
L 248.470877 341.510899 
L 251.354915 343.250491 
L 254.10786 345.182294 
L 256.729713 347.301857 
L 259.220473 349.600401 
L 261.711233 352.210268 
L 264.070901 355.003088 
L 266.430568 358.1424 
L 268.790236 361.665707 
L 271.149903 365.613994 
L 273.378478 369.773399 
L 275.607053 374.392625 
L 277.835627 379.515901 
L 280.064202 385.190961 
L 282.292777 391.469218 
L 284.521352 398.405475 
L 286.749927 406.052427 
L 288.978502 414.471277 
L 291.207076 423.729007 
L 293.025302 431.9525 
L 293.025302 431.9525 
" clip-path="url(#pb1391bbfda)" style="fill: none; stroke-dasharray: 22.4,5.6,3.5,5.6; stroke-dashoffset: 0; stroke: #008000; stroke-opacity: 0.8; stroke-width: 3.5"/>
   </g>
   <g id="line2d_37">
    <path d="M 92.470639 140.915021 
L 93.257195 140.905111 
L 94.043751 141.155381 
L 94.830307 141.650659 
L 95.747955 142.51812 
L 96.796696 143.862721 
L 97.97653 145.784869 
L 99.287456 148.366669 
L 100.860568 151.991723 
L 102.695865 156.833748 
L 104.793347 163.013523 
L 107.4152 171.445907 
L 111.216886 184.492753 
L 120.262278 215.774912 
L 123.932872 227.542672 
L 127.210188 237.334225 
L 130.356411 246.041931 
L 133.371542 253.739065 
L 136.386672 260.816652 
L 139.27071 267.036027 
L 142.285841 273.00947 
L 145.300972 278.49071 
L 148.316102 283.521892 
L 151.462326 288.335338 
L 154.608549 292.745294 
L 157.885865 296.953044 
L 161.163181 300.808174 
L 164.571589 304.484624 
L 168.111091 307.984719 
L 171.912777 311.428136 
L 175.845556 314.691652 
L 180.040521 317.886148 
L 184.628763 321.094698 
L 189.47919 324.212797 
L 194.722896 327.313779 
L 200.359879 330.381981 
L 206.39014 333.406326 
L 212.81368 336.377219 
L 219.630497 339.281858 
L 226.578407 341.999418 
L 233.395224 344.427984 
L 239.68767 346.43908 
L 245.324654 348.014717 
L 250.437266 349.222896 
L 255.156601 350.116115 
L 259.482658 350.714758 
L 263.54653 351.054915 
L 267.348217 351.150835 
L 270.887718 351.023009 
L 274.296126 350.680374 
L 277.573442 350.128123 
L 280.719665 349.374786 
L 283.734796 348.43212 
L 286.749927 347.256371 
L 289.765057 345.835209 
L 292.780188 344.163072 
L 295.795319 342.236862 
L 298.941542 339.955956 
L 302.087765 337.40229 
L 305.365081 334.461545 
L 308.904582 330.981834 
L 312.706269 326.924463 
L 316.901233 322.116727 
L 321.882753 316.059909 
L 329.617219 306.251005 
L 338.400426 295.202602 
L 343.644131 288.965507 
L 348.363466 283.690478 
L 355.311376 276.316295 
L 370.255936 260.870018 
L 374.844179 256.412794 
L 377.990402 253.648601 
L 380.612255 251.635876 
L 382.840829 250.203198 
L 384.807219 249.199793 
L 386.642516 248.520142 
L 388.34672 248.138659 
L 389.919832 248.020085 
L 391.361851 248.122394 
L 392.80387 248.437399 
L 394.245889 248.973698 
L 395.687908 249.737762 
L 397.261019 250.835902 
L 398.834131 252.212185 
L 400.538335 254.015346 
L 402.373632 256.312856 
L 404.340022 259.167527 
L 406.437504 262.632084 
L 408.797172 266.997133 
L 411.419024 272.343222 
L 414.434155 279.005731 
L 418.498027 288.566961 
L 428.985438 313.492676 
L 432.524939 321.183351 
L 435.540069 327.232098 
L 438.424107 332.528278 
L 441.177053 337.112406 
L 443.798906 341.041801 
L 446.289666 344.383709 
L 448.780426 347.355885 
L 451.271186 349.975412 
L 453.761946 352.263995 
L 456.252706 354.246719 
L 458.743466 355.950904 
L 461.365319 357.475221 
L 464.118264 358.814321 
L 467.002302 359.970717 
L 470.148525 360.992573 
L 473.688027 361.902686 
L 477.620806 362.681272 
L 482.340141 363.377622 
L 488.239309 364.007812 
L 496.367053 364.635201 
L 508.427575 365.328165 
L 519.177172 365.740498 
L 527.173822 365.83152 
L 533.728454 365.688147 
L 539.49653 365.343621 
L 544.740236 364.812408 
L 549.721756 364.083496 
L 554.441091 363.16628 
L 558.898241 362.07853 
L 563.35539 360.760631 
L 567.681447 359.250565 
L 572.007504 357.505902 
L 576.333561 355.523387 
L 580.790711 353.23292 
L 585.378953 350.618249 
L 590.098288 347.668179 
L 595.079808 344.282216 
L 600.585699 340.262086 
L 607.009238 335.287191 
L 615.661352 328.281123 
L 633.621043 313.666657 
L 639.782397 308.98597 
L 644.632825 305.567602 
L 648.958882 302.781581 
L 652.760568 300.587523 
L 656.168977 298.863798 
L 659.3152 297.50786 
L 662.330331 296.444855 
L 665.214369 295.663937 
L 667.967314 295.148184 
L 670.589167 294.875636 
L 673.21102 294.823185 
L 675.832872 294.994494 
L 678.454725 295.389946 
L 681.076578 296.006415 
L 683.829523 296.885877 
L 686.582469 297.996677 
L 689.597599 299.462505 
L 692.743823 301.246193 
L 696.152231 303.436958 
L 700.08501 306.243627 
L 704.673252 309.803583 
L 711.358977 315.307424 
L 722.239666 324.264443 
L 727.745557 328.49705 
L 732.595984 331.956552 
L 737.184226 334.963044 
L 741.641376 337.622987 
L 746.098526 340.025379 
L 750.555675 342.177926 
L 755.143918 344.146799 
L 759.863253 345.92863 
L 764.71368 347.521825 
L 769.6952 348.926774 
L 774.938906 350.172946 
L 780.313704 351.22147 
L 785.819595 352.071224 
L 791.456578 352.717922 
L 797.224654 353.153907 
L 802.861637 353.361388 
L 808.498621 353.349621 
L 813.349048 353.16104 
L 813.349048 353.16104 
" clip-path="url(#pb1391bbfda)" style="fill: none; stroke-dasharray: 3.5,5.775; stroke-dashoffset: 0; stroke: #ff0000; stroke-opacity: 0.8; stroke-width: 3.5"/>
   </g>
  </g>
  <g id="text_26">
   <!-- Derivative Comparison (New Trajectory) -->
   <g style="fill: #262626" transform="translate(263.019219 23.4975) scale(0.16 -0.16)">
    <defs>
     <path id="DejaVuSerif-44" d="M 1581 331 
L 2163 331 
Q 3072 331 3558 850 
Q 4044 1369 4044 2338 
Q 4044 3306 3559 3818 
Q 3075 4331 2163 4331 
L 1581 4331 
L 1581 331 
z
M 353 0 
L 353 331 
L 947 331 
L 947 4331 
L 353 4331 
L 353 4666 
L 2209 4666 
Q 3416 4666 4089 4050 
Q 4763 3434 4763 2338 
Q 4763 1238 4088 619 
Q 3413 0 2209 0 
L 353 0 
z
" transform="scale(0.015625)"/>
     <path id="DejaVuSerif-72" d="M 3059 3328 
L 3059 2497 
L 2728 2497 
Q 2713 2744 2591 2866 
Q 2469 2988 2234 2988 
Q 1809 2988 1582 2694 
Q 1356 2400 1356 1850 
L 1356 331 
L 2022 331 
L 2022 0 
L 263 0 
L 263 331 
L 781 331 
L 781 2994 
L 231 2994 
L 231 3322 
L 1356 3322 
L 1356 2731 
Q 1525 3078 1790 3245 
Q 2056 3413 2438 3413 
Q 2578 3413 2733 3391 
Q 2888 3369 3059 3328 
z
" transform="scale(0.015625)"/>
     <path id="DejaVuSerif-76" d="M 1581 0 
L 359 2988 
L -19 2988 
L -19 3322 
L 1509 3322 
L 1509 2988 
L 978 2988 
L 1913 703 
L 2847 2988 
L 2350 2988 
L 2350 3322 
L 3597 3322 
L 3597 2988 
L 3225 2988 
L 2003 0 
L 1581 0 
z
" transform="scale(0.015625)"/>
     <path id="DejaVuSerif-61" d="M 2547 1044 
L 2547 1747 
L 1806 1747 
Q 1378 1747 1168 1562 
Q 959 1378 959 997 
Q 959 650 1171 447 
Q 1384 244 1747 244 
Q 2106 244 2326 466 
Q 2547 688 2547 1044 
z
M 3122 2075 
L 3122 331 
L 3634 331 
L 3634 0 
L 2547 0 
L 2547 359 
Q 2356 128 2106 18 
Q 1856 -91 1522 -91 
Q 969 -91 644 203 
Q 319 497 319 997 
Q 319 1513 691 1797 
Q 1063 2081 1741 2081 
L 2547 2081 
L 2547 2309 
Q 2547 2688 2317 2895 
Q 2088 3103 1672 3103 
Q 1328 3103 1125 2947 
Q 922 2791 872 2484 
L 575 2484 
L 575 3156 
Q 875 3284 1158 3348 
Q 1441 3413 1709 3413 
Q 2400 3413 2761 3070 
Q 3122 2728 3122 2075 
z
" transform="scale(0.015625)"/>
     <path id="DejaVuSerif-74" d="M 691 2988 
L 184 2988 
L 184 3322 
L 691 3322 
L 691 4353 
L 1269 4353 
L 1269 3322 
L 2350 3322 
L 2350 2988 
L 1269 2988 
L 1269 878 
Q 1269 456 1350 337 
Q 1431 219 1650 219 
Q 1875 219 1978 351 
Q 2081 484 2088 781 
L 2522 781 
Q 2497 328 2275 118 
Q 2053 -91 1600 -91 
Q 1103 -91 897 129 
Q 691 350 691 878 
L 691 2988 
z
" transform="scale(0.015625)"/>
     <path id="DejaVuSerif-20" transform="scale(0.015625)"/>
     <path id="DejaVuSerif-43" d="M 4513 1234 
Q 4306 581 3820 245 
Q 3334 -91 2591 -91 
Q 2134 -91 1743 65 
Q 1353 222 1050 525 
Q 700 875 529 1320 
Q 359 1766 359 2328 
Q 359 3416 987 4083 
Q 1616 4750 2644 4750 
Q 3025 4750 3456 4650 
Q 3888 4550 4384 4347 
L 4384 3272 
L 4031 3272 
Q 3916 3859 3567 4137 
Q 3219 4416 2591 4416 
Q 1844 4416 1459 3886 
Q 1075 3356 1075 2328 
Q 1075 1303 1459 773 
Q 1844 244 2591 244 
Q 3113 244 3450 492 
Q 3788 741 3938 1234 
L 4513 1234 
z
" transform="scale(0.015625)"/>
     <path id="DejaVuSerif-6f" d="M 1925 219 
Q 2388 219 2623 584 
Q 2859 950 2859 1663 
Q 2859 2375 2623 2739 
Q 2388 3103 1925 3103 
Q 1463 3103 1227 2739 
Q 991 2375 991 1663 
Q 991 950 1228 584 
Q 1466 219 1925 219 
z
M 1925 -91 
Q 1200 -91 759 389 
Q 319 869 319 1663 
Q 319 2456 758 2934 
Q 1197 3413 1925 3413 
Q 2653 3413 3092 2934 
Q 3531 2456 3531 1663 
Q 3531 869 3092 389 
Q 2653 -91 1925 -91 
z
" transform="scale(0.015625)"/>
     <path id="DejaVuSerif-70" d="M 1313 1825 
L 1313 1497 
Q 1313 897 1542 583 
Q 1772 269 2209 269 
Q 2650 269 2876 622 
Q 3103 975 3103 1663 
Q 3103 2353 2876 2703 
Q 2650 3053 2209 3053 
Q 1772 3053 1542 2737 
Q 1313 2422 1313 1825 
z
M 738 2988 
L 184 2988 
L 184 3322 
L 1313 3322 
L 1313 2803 
Q 1481 3116 1742 3264 
Q 2003 3413 2388 3413 
Q 3000 3413 3387 2928 
Q 3775 2444 3775 1663 
Q 3775 881 3387 395 
Q 3000 -91 2388 -91 
Q 2003 -91 1742 57 
Q 1481 206 1313 519 
L 1313 -997 
L 1856 -997 
L 1856 -1331 
L 184 -1331 
L 184 -997 
L 738 -997 
L 738 2988 
z
" transform="scale(0.015625)"/>
     <path id="DejaVuSerif-73" d="M 359 184 
L 359 959 
L 691 959 
Q 703 588 923 403 
Q 1144 219 1575 219 
Q 1963 219 2166 364 
Q 2369 509 2369 788 
Q 2369 1006 2220 1140 
Q 2072 1275 1594 1428 
L 1178 1569 
Q 750 1706 558 1912 
Q 366 2119 366 2438 
Q 366 2894 700 3153 
Q 1034 3413 1625 3413 
Q 1888 3413 2178 3344 
Q 2469 3275 2778 3144 
L 2778 2419 
L 2447 2419 
Q 2434 2741 2221 2922 
Q 2009 3103 1644 3103 
Q 1281 3103 1095 2975 
Q 909 2847 909 2591 
Q 909 2381 1050 2254 
Q 1191 2128 1613 1997 
L 2069 1856 
Q 2541 1709 2748 1489 
Q 2956 1269 2956 922 
Q 2956 450 2595 179 
Q 2234 -91 1600 -91 
Q 1278 -91 972 -22 
Q 666 47 359 184 
z
" transform="scale(0.015625)"/>
     <path id="DejaVuSerif-6e" d="M 263 0 
L 263 331 
L 781 331 
L 781 2988 
L 231 2988 
L 231 3322 
L 1356 3322 
L 1356 2731 
Q 1516 3069 1770 3241 
Q 2025 3413 2363 3413 
Q 2913 3413 3172 3097 
Q 3431 2781 3431 2113 
L 3431 331 
L 3944 331 
L 3944 0 
L 2356 0 
L 2356 331 
L 2853 331 
L 2853 1931 
Q 2853 2541 2703 2767 
Q 2553 2994 2175 2994 
Q 1775 2994 1565 2701 
Q 1356 2409 1356 1850 
L 1356 331 
L 1856 331 
L 1856 0 
L 263 0 
z
" transform="scale(0.015625)"/>
     <path id="DejaVuSerif-28" d="M 2041 -997 
Q 1281 -656 893 83 
Q 506 822 506 1931 
Q 506 3044 893 3783 
Q 1281 4522 2041 4863 
L 2041 4556 
Q 1559 4225 1350 3623 
Q 1141 3022 1141 1931 
Q 1141 844 1350 242 
Q 1559 -359 2041 -691 
L 2041 -997 
z
" transform="scale(0.015625)"/>
     <path id="DejaVuSerif-4e" d="M 313 0 
L 313 331 
L 941 331 
L 941 4331 
L 313 4331 
L 313 4666 
L 1509 4666 
L 4306 984 
L 4306 4331 
L 3681 4331 
L 3681 4666 
L 5319 4666 
L 5319 4331 
L 4691 4331 
L 4691 -91 
L 4313 -91 
L 1325 3841 
L 1325 331 
L 1953 331 
L 1953 0 
L 313 0 
z
" transform="scale(0.015625)"/>
     <path id="DejaVuSerif-77" d="M 3072 3322 
L 3922 728 
L 4672 2988 
L 4191 2988 
L 4191 3322 
L 5394 3322 
L 5394 2988 
L 5025 2988 
L 4038 0 
L 3559 0 
L 2741 2484 
L 1919 0 
L 1459 0 
L 475 2988 
L 103 2988 
L 103 3322 
L 1606 3322 
L 1606 2988 
L 1069 2988 
L 1813 728 
L 2669 3322 
L 3072 3322 
z
" transform="scale(0.015625)"/>
     <path id="DejaVuSerif-6a" d="M 641 4353 
Q 641 4497 745 4603 
Q 850 4709 997 4709 
Q 1141 4709 1245 4603 
Q 1350 4497 1350 4353 
Q 1350 4206 1248 4103 
Q 1147 4000 997 4000 
Q 850 4000 745 4103 
Q 641 4206 641 4353 
z
M 781 2988 
L 238 2988 
L 238 3322 
L 1356 3322 
L 1356 -325 
Q 1356 -838 1051 -1130 
Q 747 -1422 213 -1422 
Q -13 -1422 -217 -1370 
Q -422 -1319 -616 -1216 
L -616 -531 
L -319 -531 
Q -297 -831 -164 -972 
Q -31 -1113 225 -1113 
Q 509 -1113 645 -920 
Q 781 -728 781 -325 
L 781 2988 
z
" transform="scale(0.015625)"/>
     <path id="DejaVuSerif-63" d="M 3291 997 
Q 3169 466 2822 187 
Q 2475 -91 1925 -91 
Q 1200 -91 759 389 
Q 319 869 319 1663 
Q 319 2459 759 2936 
Q 1200 3413 1925 3413 
Q 2241 3413 2553 3339 
Q 2866 3266 3181 3116 
L 3181 2266 
L 2847 2266 
Q 2781 2703 2561 2903 
Q 2341 3103 1931 3103 
Q 1466 3103 1228 2742 
Q 991 2381 991 1663 
Q 991 944 1227 581 
Q 1463 219 1931 219 
Q 2303 219 2525 412 
Q 2747 606 2828 997 
L 3291 997 
z
" transform="scale(0.015625)"/>
     <path id="DejaVuSerif-79" d="M 1381 -609 
L 1600 -56 
L 359 2988 
L -19 2988 
L -19 3322 
L 1509 3322 
L 1509 2988 
L 978 2988 
L 1913 703 
L 2847 2988 
L 2350 2988 
L 2350 3322 
L 3597 3322 
L 3597 2988 
L 3225 2988 
L 1703 -750 
Q 1547 -1138 1356 -1280 
Q 1166 -1422 819 -1422 
Q 672 -1422 517 -1397 
Q 363 -1372 206 -1325 
L 206 -691 
L 500 -691 
Q 519 -903 608 -995 
Q 697 -1088 884 -1088 
Q 1056 -1088 1161 -992 
Q 1266 -897 1381 -609 
z
" transform="scale(0.015625)"/>
     <path id="DejaVuSerif-29" d="M 453 -997 
L 453 -691 
Q 934 -359 1145 242 
Q 1356 844 1356 1931 
Q 1356 3022 1145 3623 
Q 934 4225 453 4556 
L 453 4863 
Q 1216 4522 1603 3783 
Q 1991 3044 1991 1931 
Q 1991 822 1603 83 
Q 1216 -656 453 -997 
z
" transform="scale(0.015625)"/>
    </defs>
    <use xlink:href="#DejaVuSerif-44"/>
    <use xlink:href="#DejaVuSerif-65" transform="translate(80.175781 0)"/>
    <use xlink:href="#DejaVuSerif-72" transform="translate(139.355469 0)"/>
    <use xlink:href="#DejaVuSerif-69" transform="translate(187.158203 0)"/>
    <use xlink:href="#DejaVuSerif-76" transform="translate(219.140625 0)"/>
    <use xlink:href="#DejaVuSerif-61" transform="translate(275.634766 0)"/>
    <use xlink:href="#DejaVuSerif-74" transform="translate(335.253906 0)"/>
    <use xlink:href="#DejaVuSerif-69" transform="translate(375.439453 0)"/>
    <use xlink:href="#DejaVuSerif-76" transform="translate(407.421875 0)"/>
    <use xlink:href="#DejaVuSerif-65" transform="translate(463.916016 0)"/>
    <use xlink:href="#DejaVuSerif-20" transform="translate(523.095703 0)"/>
    <use xlink:href="#DejaVuSerif-43" transform="translate(554.882812 0)"/>
    <use xlink:href="#DejaVuSerif-6f" transform="translate(631.396484 0)"/>
    <use xlink:href="#DejaVuSerif-6d" transform="translate(691.601562 0)"/>
    <use xlink:href="#DejaVuSerif-70" transform="translate(786.425781 0)"/>
    <use xlink:href="#DejaVuSerif-61" transform="translate(850.439453 0)"/>
    <use xlink:href="#DejaVuSerif-72" transform="translate(910.058594 0)"/>
    <use xlink:href="#DejaVuSerif-69" transform="translate(957.861328 0)"/>
    <use xlink:href="#DejaVuSerif-73" transform="translate(989.84375 0)"/>
    <use xlink:href="#DejaVuSerif-6f" transform="translate(1041.162109 0)"/>
    <use xlink:href="#DejaVuSerif-6e" transform="translate(1101.367188 0)"/>
    <use xlink:href="#DejaVuSerif-20" transform="translate(1165.771484 0)"/>
    <use xlink:href="#DejaVuSerif-28" transform="translate(1197.558594 0)"/>
    <use xlink:href="#DejaVuSerif-4e" transform="translate(1236.572266 0)"/>
    <use xlink:href="#DejaVuSerif-65" transform="translate(1324.072266 0)"/>
    <use xlink:href="#DejaVuSerif-77" transform="translate(1383.251953 0)"/>
    <use xlink:href="#DejaVuSerif-20" transform="translate(1468.847656 0)"/>
    <use xlink:href="#DejaVuSerif-54" transform="translate(1500.634766 0)"/>
    <use xlink:href="#DejaVuSerif-72" transform="translate(1567.333984 0)"/>
    <use xlink:href="#DejaVuSerif-61" transform="translate(1615.136719 0)"/>
    <use xlink:href="#DejaVuSerif-6a" transform="translate(1674.755859 0)"/>
    <use xlink:href="#DejaVuSerif-65" transform="translate(1705.761719 0)"/>
    <use xlink:href="#DejaVuSerif-63" transform="translate(1764.941406 0)"/>
    <use xlink:href="#DejaVuSerif-74" transform="translate(1820.947266 0)"/>
    <use xlink:href="#DejaVuSerif-6f" transform="translate(1861.132812 0)"/>
    <use xlink:href="#DejaVuSerif-72" transform="translate(1921.337891 0)"/>
    <use xlink:href="#DejaVuSerif-79" transform="translate(1969.140625 0)"/>
    <use xlink:href="#DejaVuSerif-29" transform="translate(2025.634766 0)"/>
   </g>
  </g>
  <g id="legend_1">
   <g id="patch_8">
    <path d="M 752.901719 60.425156 
L 856.592969 60.425156 
Q 858.392969 60.425156 858.392969 58.625156 
L 858.392969 6.3 
Q 858.392969 4.5 856.592969 4.5 
L 752.901719 4.5 
Q 751.101719 4.5 751.101719 6.3 
L 751.101719 58.625156 
Q 751.101719 60.425156 752.901719 60.425156 
z
" style="fill: #ffffff; opacity: 0.9; stroke: #cccccc; stroke-linejoin: miter"/>
   </g>
   <g id="line2d_38">
    <path d="M 754.701719 11.788594 
L 763.701719 11.788594 
L 772.701719 11.788594 
" style="fill: none; stroke: #808080; stroke-opacity: 0.5; stroke-width: 6; stroke-linecap: round"/>
   </g>
   <g id="text_27">
    <!-- True Derivative -->
    <g style="fill: #262626" transform="translate(779.901719 14.938594) scale(0.09 -0.09)">
     <defs>
      <path id="DejaVuSerif-75" d="M 2266 3322 
L 3341 3322 
L 3341 331 
L 3884 331 
L 3884 0 
L 2766 0 
L 2766 588 
Q 2606 256 2353 82 
Q 2100 -91 1766 -91 
Q 1213 -91 952 223 
Q 691 538 691 1209 
L 691 2988 
L 172 2988 
L 172 3322 
L 1269 3322 
L 1269 1388 
Q 1269 781 1417 556 
Q 1566 331 1947 331 
Q 2347 331 2556 625 
Q 2766 919 2766 1478 
L 2766 2988 
L 2266 2988 
L 2266 3322 
z
" transform="scale(0.015625)"/>
     </defs>
     <use xlink:href="#DejaVuSerif-54"/>
     <use xlink:href="#DejaVuSerif-72" transform="translate(66.699219 0)"/>
     <use xlink:href="#DejaVuSerif-75" transform="translate(114.501953 0)"/>
     <use xlink:href="#DejaVuSerif-65" transform="translate(178.90625 0)"/>
     <use xlink:href="#DejaVuSerif-20" transform="translate(238.085938 0)"/>
     <use xlink:href="#DejaVuSerif-44" transform="translate(269.873047 0)"/>
     <use xlink:href="#DejaVuSerif-65" transform="translate(350.048828 0)"/>
     <use xlink:href="#DejaVuSerif-72" transform="translate(409.228516 0)"/>
     <use xlink:href="#DejaVuSerif-69" transform="translate(457.03125 0)"/>
     <use xlink:href="#DejaVuSerif-76" transform="translate(489.013672 0)"/>
     <use xlink:href="#DejaVuSerif-61" transform="translate(545.507812 0)"/>
     <use xlink:href="#DejaVuSerif-74" transform="translate(605.126953 0)"/>
     <use xlink:href="#DejaVuSerif-69" transform="translate(645.3125 0)"/>
     <use xlink:href="#DejaVuSerif-76" transform="translate(677.294922 0)"/>
     <use xlink:href="#DejaVuSerif-65" transform="translate(733.789062 0)"/>
    </g>
   </g>
   <g id="line2d_39">
    <path d="M 754.701719 24.998906 
L 763.701719 24.998906 
L 772.701719 24.998906 
" style="fill: none; stroke-dasharray: 3.5,5.775; stroke-dashoffset: 0; stroke: #ff0000; stroke-opacity: 0.8; stroke-width: 3.5"/>
   </g>
   <g id="text_28">
    <!-- AutoSINDy -->
    <g style="fill: #262626" transform="translate(779.901719 28.148906) scale(0.09 -0.09)">
     <defs>
      <path id="DejaVuSerif-41" d="M 1281 1691 
L 2994 1691 
L 2138 3909 
L 1281 1691 
z
M -38 0 
L -38 331 
L 372 331 
L 2034 4666 
L 2559 4666 
L 4225 331 
L 4684 331 
L 4684 0 
L 2988 0 
L 2988 331 
L 3506 331 
L 3116 1356 
L 1153 1356 
L 763 331 
L 1275 331 
L 1275 0 
L -38 0 
z
" transform="scale(0.015625)"/>
      <path id="DejaVuSerif-53" d="M 594 225 
L 594 1288 
L 953 1284 
Q 969 753 1261 498 
Q 1553 244 2150 244 
Q 2706 244 2998 464 
Q 3291 684 3291 1106 
Q 3291 1444 3114 1625 
Q 2938 1806 2369 1978 
L 1753 2163 
Q 1084 2366 811 2669 
Q 538 2972 538 3500 
Q 538 4094 959 4422 
Q 1381 4750 2144 4750 
Q 2469 4750 2856 4679 
Q 3244 4609 3681 4475 
L 3681 3481 
L 3328 3481 
Q 3275 3975 2998 4195 
Q 2722 4416 2156 4416 
Q 1663 4416 1405 4214 
Q 1147 4013 1147 3628 
Q 1147 3294 1340 3103 
Q 1534 2913 2163 2725 
L 2741 2553 
Q 3375 2363 3645 2067 
Q 3916 1772 3916 1275 
Q 3916 597 3481 253 
Q 3047 -91 2188 -91 
Q 1803 -91 1404 -12 
Q 1006 66 594 225 
z
" transform="scale(0.015625)"/>
      <path id="DejaVuSerif-49" d="M 1581 331 
L 2175 331 
L 2175 0 
L 353 0 
L 353 331 
L 947 331 
L 947 4331 
L 353 4331 
L 353 4666 
L 2175 4666 
L 2175 4331 
L 1581 4331 
L 1581 331 
z
" transform="scale(0.015625)"/>
     </defs>
     <use xlink:href="#DejaVuSerif-41"/>
     <use xlink:href="#DejaVuSerif-75" transform="translate(72.216797 0)"/>
     <use xlink:href="#DejaVuSerif-74" transform="translate(136.621094 0)"/>
     <use xlink:href="#DejaVuSerif-6f" transform="translate(176.806641 0)"/>
     <use xlink:href="#DejaVuSerif-53" transform="translate(237.011719 0)"/>
     <use xlink:href="#DejaVuSerif-49" transform="translate(305.517578 0)"/>
     <use xlink:href="#DejaVuSerif-4e" transform="translate(345.019531 0)"/>
     <use xlink:href="#DejaVuSerif-44" transform="translate(432.519531 0)"/>
     <use xlink:href="#DejaVuSerif-79" transform="translate(512.695312 0)"/>
    </g>
   </g>
   <g id="line2d_40">
    <path d="M 754.701719 38.337188 
L 763.701719 38.337188 
L 772.701719 38.337188 
" style="fill: none; stroke-dasharray: 22.4,5.6,3.5,5.6; stroke-dashoffset: 0; stroke: #008000; stroke-opacity: 0.8; stroke-width: 3.5"/>
   </g>
   <g id="text_29">
    <!-- Standard SINDy -->
    <g style="fill: #262626" transform="translate(779.901719 41.487188) scale(0.09 -0.09)">
     <defs>
      <path id="DejaVuSerif-64" d="M 3359 331 
L 3909 331 
L 3909 0 
L 2784 0 
L 2784 519 
Q 2616 206 2355 57 
Q 2094 -91 1709 -91 
Q 1097 -91 708 395 
Q 319 881 319 1663 
Q 319 2444 706 2928 
Q 1094 3413 1709 3413 
Q 2094 3413 2355 3264 
Q 2616 3116 2784 2803 
L 2784 4531 
L 2241 4531 
L 2241 4863 
L 3359 4863 
L 3359 331 
z
M 2784 1497 
L 2784 1825 
Q 2784 2422 2554 2737 
Q 2325 3053 1888 3053 
Q 1444 3053 1217 2703 
Q 991 2353 991 1663 
Q 991 975 1217 622 
Q 1444 269 1888 269 
Q 2325 269 2554 583 
Q 2784 897 2784 1497 
z
" transform="scale(0.015625)"/>
     </defs>
     <use xlink:href="#DejaVuSerif-53"/>
     <use xlink:href="#DejaVuSerif-74" transform="translate(68.505859 0)"/>
     <use xlink:href="#DejaVuSerif-61" transform="translate(108.691406 0)"/>
     <use xlink:href="#DejaVuSerif-6e" transform="translate(168.310547 0)"/>
     <use xlink:href="#DejaVuSerif-64" transform="translate(232.714844 0)"/>
     <use xlink:href="#DejaVuSerif-61" transform="translate(296.728516 0)"/>
     <use xlink:href="#DejaVuSerif-72" transform="translate(356.347656 0)"/>
     <use xlink:href="#DejaVuSerif-64" transform="translate(404.150391 0)"/>
     <use xlink:href="#DejaVuSerif-20" transform="translate(468.164062 0)"/>
     <use xlink:href="#DejaVuSerif-53" transform="translate(499.951172 0)"/>
     <use xlink:href="#DejaVuSerif-49" transform="translate(568.457031 0)"/>
     <use xlink:href="#DejaVuSerif-4e" transform="translate(607.958984 0)"/>
     <use xlink:href="#DejaVuSerif-44" transform="translate(695.458984 0)"/>
     <use xlink:href="#DejaVuSerif-79" transform="translate(775.634766 0)"/>
    </g>
   </g>
   <g id="line2d_41">
    <path d="M 754.701719 51.675469 
L 763.701719 51.675469 
L 772.701719 51.675469 
" style="fill: none; stroke-dasharray: 12.95,5.6; stroke-dashoffset: 0; stroke: #0000ff; stroke-opacity: 0.8; stroke-width: 3.5"/>
   </g>
   <g id="text_30">
    <!-- Standard PySR -->
    <g style="fill: #262626" transform="translate(779.901719 54.825469) scale(0.09 -0.09)">
     <defs>
      <path id="DejaVuSerif-50" d="M 1581 2375 
L 2406 2375 
Q 2872 2375 3115 2626 
Q 3359 2878 3359 3353 
Q 3359 3831 3115 4081 
Q 2872 4331 2406 4331 
L 1581 4331 
L 1581 2375 
z
M 353 0 
L 353 331 
L 947 331 
L 947 4331 
L 353 4331 
L 353 4666 
L 2559 4666 
Q 3259 4666 3668 4311 
Q 4078 3956 4078 3353 
Q 4078 2753 3668 2397 
Q 3259 2041 2559 2041 
L 1581 2041 
L 1581 331 
L 2303 331 
L 2303 0 
L 353 0 
z
" transform="scale(0.015625)"/>
      <path id="DejaVuSerif-52" d="M 3066 2316 
Q 3284 2256 3442 2114 
Q 3600 1972 3725 1716 
L 4403 331 
L 4972 331 
L 4972 0 
L 3872 0 
L 3144 1484 
Q 2934 1916 2759 2042 
Q 2584 2169 2278 2169 
L 1581 2169 
L 1581 331 
L 2241 331 
L 2241 0 
L 353 0 
L 353 331 
L 947 331 
L 947 4331 
L 353 4331 
L 353 4666 
L 2719 4666 
Q 3400 4666 3770 4341 
Q 4141 4016 4141 3419 
Q 4141 2938 3870 2661 
Q 3600 2384 3066 2316 
z
M 1581 2503 
L 2503 2503 
Q 2975 2503 3200 2726 
Q 3425 2950 3425 3419 
Q 3425 3888 3200 4109 
Q 2975 4331 2503 4331 
L 1581 4331 
L 1581 2503 
z
" transform="scale(0.015625)"/>
     </defs>
     <use xlink:href="#DejaVuSerif-53"/>
     <use xlink:href="#DejaVuSerif-74" transform="translate(68.505859 0)"/>
     <use xlink:href="#DejaVuSerif-61" transform="translate(108.691406 0)"/>
     <use xlink:href="#DejaVuSerif-6e" transform="translate(168.310547 0)"/>
     <use xlink:href="#DejaVuSerif-64" transform="translate(232.714844 0)"/>
     <use xlink:href="#DejaVuSerif-61" transform="translate(296.728516 0)"/>
     <use xlink:href="#DejaVuSerif-72" transform="translate(356.347656 0)"/>
     <use xlink:href="#DejaVuSerif-64" transform="translate(404.150391 0)"/>
     <use xlink:href="#DejaVuSerif-20" transform="translate(468.164062 0)"/>
     <use xlink:href="#DejaVuSerif-50" transform="translate(499.951172 0)"/>
     <use xlink:href="#DejaVuSerif-79" transform="translate(567.236328 0)"/>
     <use xlink:href="#DejaVuSerif-53" transform="translate(623.730469 0)"/>
     <use xlink:href="#DejaVuSerif-52" transform="translate(692.236328 0)"/>
    </g>
   </g>
  </g>
 </g>
 <defs>
  <clipPath id="p44ec9c6aff">
   <rect x="56.426719" y="40.215" width="792.96625" height="171.190625"/>
  </clipPath>
  <clipPath id="pb1391bbfda">
   <rect x="56.426719" y="222.205625" width="792.96625" height="171.190625"/>
  </clipPath>
 </defs>
</svg>
