<?xml version="1.0" encoding="utf-8" standalone="no"?>
<!DOCTYPE svg PUBLIC "-//W3C//DTD SVG 1.1//EN"
  "http://www.w3.org/Graphics/SVG/1.1/DTD/svg11.dtd">
<svg xmlns:xlink="http://www.w3.org/1999/xlink" width="568.380937pt" height="567.994375pt" viewBox="0 0 568.380937 567.994375" xmlns="http://www.w3.org/2000/svg" version="1.1">
 <metadata>
  <rdf:RDF xmlns:dc="http://purl.org/dc/elements/1.1/" xmlns:cc="http://creativecommons.org/ns#" xmlns:rdf="http://www.w3.org/1999/02/22-rdf-syntax-ns#">
   <cc:Work>
    <dc:type rdf:resource="http://purl.org/dc/dcmitype/StillImage"/>
    <dc:date>2026-04-05T17:51:46.786502</dc:date>
    <dc:format>image/svg+xml</dc:format>
    <dc:creator>
     <cc:Agent>
      <dc:title>Matplotlib v3.10.7, https://matplotlib.org/</dc:title>
     </cc:Agent>
    </dc:creator>
   </cc:Work>
  </rdf:RDF>
 </metadata>
 <defs>
  <style type="text/css">*{stroke-linejoin: round; stroke-linecap: butt}</style>
 </defs>
 <g id="figure_1">
  <g id="patch_1">
   <path d="M 0 567.994375 
L 568.380937 567.994375 
L 568.380937 0 
L 0 0 
z
" style="fill: #ffffff"/>
  </g>
  <g id="axes_1">
   <g id="patch_2">
    <path d="M 52.160938 530.438125 
L 561.180937 530.438125 
L 561.180937 22.318125 
L 52.160938 22.318125 
z
" style="fill: #ffffff"/>
   </g>
   <g id="matplotlib.axis_1">
    <g id="xtick_1">
     <g id="line2d_1">
      <defs>
       <path id="m9b0c0e4b99" d="M 0 0 
L 0 3.5 
" style="stroke: #000000; stroke-width: 0.8"/>
      </defs>
      <g>
       <use xlink:href="#m9b0c0e4b99" x="55.135986" y="530.438125" style="stroke: #000000; stroke-width: 0.8"/>
      </g>
     </g>
     <g id="text_1">
      <!-- −0.3 -->
      <g transform="translate(42.99458 545.036562) scale(0.1 -0.1)">
       <defs>
        <path id="DejaVuSans-2212" d="M 678 2272 
L 4684 2272 
L 4684 1741 
L 678 1741 
L 678 2272 
z
" transform="scale(0.015625)"/>
        <path id="DejaVuSans-30" d="M 2034 4250 
Q 1547 4250 1301 3770 
Q 1056 3291 1056 2328 
Q 1056 1369 1301 889 
Q 1547 409 2034 409 
Q 2525 409 2770 889 
Q 3016 1369 3016 2328 
Q 3016 3291 2770 3770 
Q 2525 4250 2034 4250 
z
M 2034 4750 
Q 2819 4750 3233 4129 
Q 3647 3509 3647 2328 
Q 3647 1150 3233 529 
Q 2819 -91 2034 -91 
Q 1250 -91 836 529 
Q 422 1150 422 2328 
Q 422 3509 836 4129 
Q 1250 4750 2034 4750 
z
" transform="scale(0.015625)"/>
        <path id="DejaVuSans-2e" d="M 684 794 
L 1344 794 
L 1344 0 
L 684 0 
L 684 794 
z
" transform="scale(0.015625)"/>
        <path id="DejaVuSans-33" d="M 2597 2516 
Q 3050 2419 3304 2112 
Q 3559 1806 3559 1356 
Q 3559 666 3084 287 
Q 2609 -91 1734 -91 
Q 1441 -91 1130 -33 
Q 819 25 488 141 
L 488 750 
Q 750 597 1062 519 
Q 1375 441 1716 441 
Q 2309 441 2620 675 
Q 2931 909 2931 1356 
Q 2931 1769 2642 2001 
Q 2353 2234 1838 2234 
L 1294 2234 
L 1294 2753 
L 1863 2753 
Q 2328 2753 2575 2939 
Q 2822 3125 2822 3475 
Q 2822 3834 2567 4026 
Q 2313 4219 1838 4219 
Q 1578 4219 1281 4162 
Q 984 4106 628 3988 
L 628 4550 
Q 988 4650 1302 4700 
Q 1616 4750 1894 4750 
Q 2613 4750 3031 4423 
Q 3450 4097 3450 3541 
Q 3450 3153 3228 2886 
Q 3006 2619 2597 2516 
z
" transform="scale(0.015625)"/>
       </defs>
       <use xlink:href="#DejaVuSans-2212"/>
       <use xlink:href="#DejaVuSans-30" transform="translate(83.789062 0)"/>
       <use xlink:href="#DejaVuSans-2e" transform="translate(147.412109 0)"/>
       <use xlink:href="#DejaVuSans-33" transform="translate(179.199219 0)"/>
      </g>
     </g>
    </g>
    <g id="xtick_2">
     <g id="line2d_2">
      <g>
       <use xlink:href="#m9b0c0e4b99" x="112.451149" y="530.438125" style="stroke: #000000; stroke-width: 0.8"/>
      </g>
     </g>
     <g id="text_2">
      <!-- −0.2 -->
      <g transform="translate(100.309743 545.036562) scale(0.1 -0.1)">
       <defs>
        <path id="DejaVuSans-32" d="M 1228 531 
L 3431 531 
L 3431 0 
L 469 0 
L 469 531 
Q 828 903 1448 1529 
Q 2069 2156 2228 2338 
Q 2531 2678 2651 2914 
Q 2772 3150 2772 3378 
Q 2772 3750 2511 3984 
Q 2250 4219 1831 4219 
Q 1534 4219 1204 4116 
Q 875 4013 500 3803 
L 500 4441 
Q 881 4594 1212 4672 
Q 1544 4750 1819 4750 
Q 2544 4750 2975 4387 
Q 3406 4025 3406 3419 
Q 3406 3131 3298 2873 
Q 3191 2616 2906 2266 
Q 2828 2175 2409 1742 
Q 1991 1309 1228 531 
z
" transform="scale(0.015625)"/>
       </defs>
       <use xlink:href="#DejaVuSans-2212"/>
       <use xlink:href="#DejaVuSans-30" transform="translate(83.789062 0)"/>
       <use xlink:href="#DejaVuSans-2e" transform="translate(147.412109 0)"/>
       <use xlink:href="#DejaVuSans-32" transform="translate(179.199219 0)"/>
      </g>
     </g>
    </g>
    <g id="xtick_3">
     <g id="line2d_3">
      <g>
       <use xlink:href="#m9b0c0e4b99" x="169.766312" y="530.438125" style="stroke: #000000; stroke-width: 0.8"/>
      </g>
     </g>
     <g id="text_3">
      <!-- −0.1 -->
      <g transform="translate(157.624906 545.036562) scale(0.1 -0.1)">
       <defs>
        <path id="DejaVuSans-31" d="M 794 531 
L 1825 531 
L 1825 4091 
L 703 3866 
L 703 4441 
L 1819 4666 
L 2450 4666 
L 2450 531 
L 3481 531 
L 3481 0 
L 794 0 
L 794 531 
z
" transform="scale(0.015625)"/>
       </defs>
       <use xlink:href="#DejaVuSans-2212"/>
       <use xlink:href="#DejaVuSans-30" transform="translate(83.789062 0)"/>
       <use xlink:href="#DejaVuSans-2e" transform="translate(147.412109 0)"/>
       <use xlink:href="#DejaVuSans-31" transform="translate(179.199219 0)"/>
      </g>
     </g>
    </g>
    <g id="xtick_4">
     <g id="line2d_4">
      <g>
       <use xlink:href="#m9b0c0e4b99" x="227.081475" y="530.438125" style="stroke: #000000; stroke-width: 0.8"/>
      </g>
     </g>
     <g id="text_4">
      <!-- 0.0 -->
      <g transform="translate(219.129913 545.036562) scale(0.1 -0.1)">
       <use xlink:href="#DejaVuSans-30"/>
       <use xlink:href="#DejaVuSans-2e" transform="translate(63.623047 0)"/>
       <use xlink:href="#DejaVuSans-30" transform="translate(95.410156 0)"/>
      </g>
     </g>
    </g>
    <g id="xtick_5">
     <g id="line2d_5">
      <g>
       <use xlink:href="#m9b0c0e4b99" x="284.396638" y="530.438125" style="stroke: #000000; stroke-width: 0.8"/>
      </g>
     </g>
     <g id="text_5">
      <!-- 0.1 -->
      <g transform="translate(276.445076 545.036562) scale(0.1 -0.1)">
       <use xlink:href="#DejaVuSans-30"/>
       <use xlink:href="#DejaVuSans-2e" transform="translate(63.623047 0)"/>
       <use xlink:href="#DejaVuSans-31" transform="translate(95.410156 0)"/>
      </g>
     </g>
    </g>
    <g id="xtick_6">
     <g id="line2d_6">
      <g>
       <use xlink:href="#m9b0c0e4b99" x="341.711801" y="530.438125" style="stroke: #000000; stroke-width: 0.8"/>
      </g>
     </g>
     <g id="text_6">
      <!-- 0.2 -->
      <g transform="translate(333.760239 545.036562) scale(0.1 -0.1)">
       <use xlink:href="#DejaVuSans-30"/>
       <use xlink:href="#DejaVuSans-2e" transform="translate(63.623047 0)"/>
       <use xlink:href="#DejaVuSans-32" transform="translate(95.410156 0)"/>
      </g>
     </g>
    </g>
    <g id="xtick_7">
     <g id="line2d_7">
      <g>
       <use xlink:href="#m9b0c0e4b99" x="399.026964" y="530.438125" style="stroke: #000000; stroke-width: 0.8"/>
      </g>
     </g>
     <g id="text_7">
      <!-- 0.3 -->
      <g transform="translate(391.075402 545.036562) scale(0.1 -0.1)">
       <use xlink:href="#DejaVuSans-30"/>
       <use xlink:href="#DejaVuSans-2e" transform="translate(63.623047 0)"/>
       <use xlink:href="#DejaVuSans-33" transform="translate(95.410156 0)"/>
      </g>
     </g>
    </g>
    <g id="xtick_8">
     <g id="line2d_8">
      <g>
       <use xlink:href="#m9b0c0e4b99" x="456.342127" y="530.438125" style="stroke: #000000; stroke-width: 0.8"/>
      </g>
     </g>
     <g id="text_8">
      <!-- 0.4 -->
      <g transform="translate(448.390565 545.036562) scale(0.1 -0.1)">
       <defs>
        <path id="DejaVuSans-34" d="M 2419 4116 
L 825 1625 
L 2419 1625 
L 2419 4116 
z
M 2253 4666 
L 3047 4666 
L 3047 1625 
L 3713 1625 
L 3713 1100 
L 3047 1100 
L 3047 0 
L 2419 0 
L 2419 1100 
L 313 1100 
L 313 1709 
L 2253 4666 
z
" transform="scale(0.015625)"/>
       </defs>
       <use xlink:href="#DejaVuSans-30"/>
       <use xlink:href="#DejaVuSans-2e" transform="translate(63.623047 0)"/>
       <use xlink:href="#DejaVuSans-34" transform="translate(95.410156 0)"/>
      </g>
     </g>
    </g>
    <g id="xtick_9">
     <g id="line2d_9">
      <g>
       <use xlink:href="#m9b0c0e4b99" x="513.65729" y="530.438125" style="stroke: #000000; stroke-width: 0.8"/>
      </g>
     </g>
     <g id="text_9">
      <!-- 0.5 -->
      <g transform="translate(505.705728 545.036562) scale(0.1 -0.1)">
       <defs>
        <path id="DejaVuSans-35" d="M 691 4666 
L 3169 4666 
L 3169 4134 
L 1269 4134 
L 1269 2991 
Q 1406 3038 1543 3061 
Q 1681 3084 1819 3084 
Q 2600 3084 3056 2656 
Q 3513 2228 3513 1497 
Q 3513 744 3044 326 
Q 2575 -91 1722 -91 
Q 1428 -91 1123 -41 
Q 819 9 494 109 
L 494 744 
Q 775 591 1075 516 
Q 1375 441 1709 441 
Q 2250 441 2565 725 
Q 2881 1009 2881 1497 
Q 2881 1984 2565 2268 
Q 2250 2553 1709 2553 
Q 1456 2553 1204 2497 
Q 953 2441 691 2322 
L 691 4666 
z
" transform="scale(0.015625)"/>
       </defs>
       <use xlink:href="#DejaVuSans-30"/>
       <use xlink:href="#DejaVuSans-2e" transform="translate(63.623047 0)"/>
       <use xlink:href="#DejaVuSans-35" transform="translate(95.410156 0)"/>
      </g>
     </g>
    </g>
    <g id="text_10">
     <!-- x0 -->
     <g transform="translate(300.530312 558.714687) scale(0.1 -0.1)">
      <defs>
       <path id="DejaVuSans-78" d="M 3513 3500 
L 2247 1797 
L 3578 0 
L 2900 0 
L 1881 1375 
L 863 0 
L 184 0 
L 1544 1831 
L 300 3500 
L 978 3500 
L 1906 2253 
L 2834 3500 
L 3513 3500 
z
" transform="scale(0.015625)"/>
      </defs>
      <use xlink:href="#DejaVuSans-78"/>
      <use xlink:href="#DejaVuSans-30" transform="translate(59.179688 0)"/>
     </g>
    </g>
   </g>
   <g id="matplotlib.axis_2">
    <g id="ytick_1">
     <g id="line2d_10">
      <defs>
       <path id="m90c6ff48a7" d="M 0 0 
L -3.5 0 
" style="stroke: #000000; stroke-width: 0.8"/>
      </defs>
      <g>
       <use xlink:href="#m90c6ff48a7" x="52.160938" y="476.052086" style="stroke: #000000; stroke-width: 0.8"/>
      </g>
     </g>
     <g id="text_11">
      <!-- −0.8 -->
      <g transform="translate(20.878125 479.851305) scale(0.1 -0.1)">
       <defs>
        <path id="DejaVuSans-38" d="M 2034 2216 
Q 1584 2216 1326 1975 
Q 1069 1734 1069 1313 
Q 1069 891 1326 650 
Q 1584 409 2034 409 
Q 2484 409 2743 651 
Q 3003 894 3003 1313 
Q 3003 1734 2745 1975 
Q 2488 2216 2034 2216 
z
M 1403 2484 
Q 997 2584 770 2862 
Q 544 3141 544 3541 
Q 544 4100 942 4425 
Q 1341 4750 2034 4750 
Q 2731 4750 3128 4425 
Q 3525 4100 3525 3541 
Q 3525 3141 3298 2862 
Q 3072 2584 2669 2484 
Q 3125 2378 3379 2068 
Q 3634 1759 3634 1313 
Q 3634 634 3220 271 
Q 2806 -91 2034 -91 
Q 1263 -91 848 271 
Q 434 634 434 1313 
Q 434 1759 690 2068 
Q 947 2378 1403 2484 
z
M 1172 3481 
Q 1172 3119 1398 2916 
Q 1625 2713 2034 2713 
Q 2441 2713 2670 2916 
Q 2900 3119 2900 3481 
Q 2900 3844 2670 4047 
Q 2441 4250 2034 4250 
Q 1625 4250 1398 4047 
Q 1172 3844 1172 3481 
z
" transform="scale(0.015625)"/>
       </defs>
       <use xlink:href="#DejaVuSans-2212"/>
       <use xlink:href="#DejaVuSans-30" transform="translate(83.789062 0)"/>
       <use xlink:href="#DejaVuSans-2e" transform="translate(147.412109 0)"/>
       <use xlink:href="#DejaVuSans-38" transform="translate(179.199219 0)"/>
      </g>
     </g>
    </g>
    <g id="ytick_2">
     <g id="line2d_11">
      <g>
       <use xlink:href="#m90c6ff48a7" x="52.160938" y="409.800148" style="stroke: #000000; stroke-width: 0.8"/>
      </g>
     </g>
     <g id="text_12">
      <!-- −0.6 -->
      <g transform="translate(20.878125 413.599367) scale(0.1 -0.1)">
       <defs>
        <path id="DejaVuSans-36" d="M 2113 2584 
Q 1688 2584 1439 2293 
Q 1191 2003 1191 1497 
Q 1191 994 1439 701 
Q 1688 409 2113 409 
Q 2538 409 2786 701 
Q 3034 994 3034 1497 
Q 3034 2003 2786 2293 
Q 2538 2584 2113 2584 
z
M 3366 4563 
L 3366 3988 
Q 3128 4100 2886 4159 
Q 2644 4219 2406 4219 
Q 1781 4219 1451 3797 
Q 1122 3375 1075 2522 
Q 1259 2794 1537 2939 
Q 1816 3084 2150 3084 
Q 2853 3084 3261 2657 
Q 3669 2231 3669 1497 
Q 3669 778 3244 343 
Q 2819 -91 2113 -91 
Q 1303 -91 875 529 
Q 447 1150 447 2328 
Q 447 3434 972 4092 
Q 1497 4750 2381 4750 
Q 2619 4750 2861 4703 
Q 3103 4656 3366 4563 
z
" transform="scale(0.015625)"/>
       </defs>
       <use xlink:href="#DejaVuSans-2212"/>
       <use xlink:href="#DejaVuSans-30" transform="translate(83.789062 0)"/>
       <use xlink:href="#DejaVuSans-2e" transform="translate(147.412109 0)"/>
       <use xlink:href="#DejaVuSans-36" transform="translate(179.199219 0)"/>
      </g>
     </g>
    </g>
    <g id="ytick_3">
     <g id="line2d_12">
      <g>
       <use xlink:href="#m90c6ff48a7" x="52.160938" y="343.54821" style="stroke: #000000; stroke-width: 0.8"/>
      </g>
     </g>
     <g id="text_13">
      <!-- −0.4 -->
      <g transform="translate(20.878125 347.347429) scale(0.1 -0.1)">
       <use xlink:href="#DejaVuSans-2212"/>
       <use xlink:href="#DejaVuSans-30" transform="translate(83.789062 0)"/>
       <use xlink:href="#DejaVuSans-2e" transform="translate(147.412109 0)"/>
       <use xlink:href="#DejaVuSans-34" transform="translate(179.199219 0)"/>
      </g>
     </g>
    </g>
    <g id="ytick_4">
     <g id="line2d_13">
      <g>
       <use xlink:href="#m90c6ff48a7" x="52.160938" y="277.296272" style="stroke: #000000; stroke-width: 0.8"/>
      </g>
     </g>
     <g id="text_14">
      <!-- −0.2 -->
      <g transform="translate(20.878125 281.095491) scale(0.1 -0.1)">
       <use xlink:href="#DejaVuSans-2212"/>
       <use xlink:href="#DejaVuSans-30" transform="translate(83.789062 0)"/>
       <use xlink:href="#DejaVuSans-2e" transform="translate(147.412109 0)"/>
       <use xlink:href="#DejaVuSans-32" transform="translate(179.199219 0)"/>
      </g>
     </g>
    </g>
    <g id="ytick_5">
     <g id="line2d_14">
      <g>
       <use xlink:href="#m90c6ff48a7" x="52.160938" y="211.044334" style="stroke: #000000; stroke-width: 0.8"/>
      </g>
     </g>
     <g id="text_15">
      <!-- 0.0 -->
      <g transform="translate(29.257812 214.843553) scale(0.1 -0.1)">
       <use xlink:href="#DejaVuSans-30"/>
       <use xlink:href="#DejaVuSans-2e" transform="translate(63.623047 0)"/>
       <use xlink:href="#DejaVuSans-30" transform="translate(95.410156 0)"/>
      </g>
     </g>
    </g>
    <g id="ytick_6">
     <g id="line2d_15">
      <g>
       <use xlink:href="#m90c6ff48a7" x="52.160938" y="144.792396" style="stroke: #000000; stroke-width: 0.8"/>
      </g>
     </g>
     <g id="text_16">
      <!-- 0.2 -->
      <g transform="translate(29.257812 148.591615) scale(0.1 -0.1)">
       <use xlink:href="#DejaVuSans-30"/>
       <use xlink:href="#DejaVuSans-2e" transform="translate(63.623047 0)"/>
       <use xlink:href="#DejaVuSans-32" transform="translate(95.410156 0)"/>
      </g>
     </g>
    </g>
    <g id="ytick_7">
     <g id="line2d_16">
      <g>
       <use xlink:href="#m90c6ff48a7" x="52.160938" y="78.540458" style="stroke: #000000; stroke-width: 0.8"/>
      </g>
     </g>
     <g id="text_17">
      <!-- 0.4 -->
      <g transform="translate(29.257812 82.339676) scale(0.1 -0.1)">
       <use xlink:href="#DejaVuSans-30"/>
       <use xlink:href="#DejaVuSans-2e" transform="translate(63.623047 0)"/>
       <use xlink:href="#DejaVuSans-34" transform="translate(95.410156 0)"/>
      </g>
     </g>
    </g>
    <g id="text_18">
     <!-- x1 -->
     <g transform="translate(14.798438 282.51875) rotate(-90) scale(0.1 -0.1)">
      <use xlink:href="#DejaVuSans-78"/>
      <use xlink:href="#DejaVuSans-31" transform="translate(59.179688 0)"/>
     </g>
    </g>
   </g>
   <g id="line2d_17">
    <path d="M 513.65729 45.414489 
L 516.442523 55.363082 
L 519.055458 65.29025 
L 521.496508 75.191241 
L 523.766169 85.06137 
L 525.865014 94.896015 
L 527.793697 104.690621 
L 529.55295 114.440699 
L 531.143563 124.142203 
L 532.566343 133.792515 
L 533.822322 143.387178 
L 534.912608 152.921559 
L 535.838363 162.391131 
L 536.600804 171.791474 
L 537.201201 181.118277 
L 537.640881 190.367336 
L 537.921224 199.534554 
L 538.043665 208.615942 
L 538.009693 217.607618 
L 537.820853 226.505807 
L 537.478743 235.306843 
L 536.985017 244.007167 
L 536.341383 252.603328 
L 535.549604 261.09198 
L 534.611496 269.469888 
L 533.528931 277.733921 
L 532.303836 285.881059 
L 530.938191 293.908388 
L 529.434033 301.8131 
L 527.793451 309.592496 
L 526.018591 317.243985 
L 524.11165 324.765083 
L 522.074884 332.153413 
L 519.910601 339.406706 
L 517.621164 346.5228 
L 515.208991 353.499641 
L 512.676554 360.335283 
L 510.026379 367.027886 
L 507.26105 373.575719 
L 504.383201 379.977158 
L 501.395523 386.230686 
L 498.300762 392.334894 
L 495.101717 398.288481 
L 491.801244 404.090252 
L 488.40225 409.739122 
L 484.907701 415.23411 
L 481.320578 420.574331 
L 477.641928 425.758105 
L 473.873633 430.783876 
L 470.018735 435.650597 
L 466.08026 440.357306 
L 462.061217 444.903131 
L 457.964603 449.287291 
L 453.793398 453.509091 
L 449.550567 457.567926 
L 445.23906 461.46328 
L 440.861811 465.194724 
L 436.42174 468.76192 
L 431.921752 472.164618 
L 427.364735 475.402657 
L 422.753564 478.475964 
L 418.091098 481.384555 
L 413.38018 484.128536 
L 408.623638 486.7081 
L 403.824287 489.12353 
L 398.984925 491.375198 
L 394.108333 493.463563 
L 389.197281 495.389176 
L 384.254521 497.152672 
L 379.28279 498.75478 
L 374.284811 500.196314 
L 369.26329 501.478179 
L 364.220921 502.601368 
L 359.160379 503.566962 
L 354.084326 504.376132 
L 348.995409 505.030136 
L 343.896259 505.530325 
L 338.789492 505.878133 
L 333.677709 506.075087 
L 328.563495 506.122801 
L 323.449422 506.022979 
L 318.338045 505.777413 
L 313.231904 505.387982 
L 308.133524 504.856658 
L 303.045414 504.185498 
L 297.970071 503.376649 
L 292.909471 502.431147 
L 287.865248 501.348948 
L 282.839965 500.132085 
L 277.836156 498.782659 
L 272.856298 497.302797 
L 267.902816 495.694646 
L 262.978083 493.960378 
L 258.084414 492.102186 
L 253.224076 490.122287 
L 248.399277 488.022922 
L 243.612176 485.806353 
L 238.864876 483.474865 
L 234.159426 481.030768 
L 229.497824 478.476393 
L 224.882012 475.814095 
L 220.313879 473.04625 
L 215.795261 470.175259 
L 211.327941 467.203546 
L 202.554052 460.967758 
L 194.005399 454.358731 
L 185.694311 447.396676 
L 177.63226 440.10217 
L 169.829862 432.496158 
L 162.296874 424.59995 
L 155.042199 416.435225 
L 148.07388 408.024026 
L 141.399106 399.388765 
L 135.024206 390.552221 
L 128.955408 381.534993 
L 123.200216 372.354089 
L 117.764453 363.03244 
L 112.653095 353.592768 
L 107.870351 344.057256 
L 103.419658 334.447551 
L 99.303685 324.784764 
L 95.524328 315.089466 
L 92.082717 305.381693 
L 88.979209 295.680945 
L 86.213392 286.006181 
L 83.784085 276.375828 
L 81.689335 266.807771 
L 79.926421 257.319361 
L 78.491851 247.927412 
L 77.381363 238.648199 
L 76.589927 229.497461 
L 76.11174 220.4904 
L 75.940231 211.641681 
L 76.070917 202.963938 
L 76.499786 194.470255 
L 77.219601 186.17532 
L 78.222845 178.092947 
L 79.501731 170.23608 
L 81.048199 162.61679 
L 82.853914 155.246277 
L 84.91027 148.134867 
L 87.208388 141.292015 
L 89.739114 134.726304 
L 92.493024 128.445444 
L 95.460419 122.456272 
L 98.631327 116.764754 
L 101.995505 111.375985 
L 105.542435 106.294185 
L 109.261326 101.522703 
L 113.141116 97.064018 
L 117.170469 92.919732 
L 121.337775 89.090579 
L 125.631152 85.57642 
L 130.038874 82.376559 
L 134.553932 79.493741 
L 139.165593 76.928542 
L 143.861761 74.679933 
L 148.630608 72.746343 
L 153.460572 71.125655 
L 158.34036 69.81521 
L 163.258948 68.811804 
L 168.20558 68.111692 
L 173.169766 67.710583 
L 178.141288 67.603641 
L 183.110194 67.785489 
L 188.066798 68.250205 
L 193.001686 68.991324 
L 197.905711 70.001836 
L 202.769992 71.274189 
L 207.585918 72.800284 
L 212.345147 74.571483 
L 217.039603 76.5786 
L 221.66148 78.811908 
L 226.203239 81.261134 
L 230.65768 83.915786 
L 235.018869 86.77087 
L 239.279754 89.817937 
L 243.433122 93.046308 
L 247.47221 96.445346 
L 251.390703 100.004458 
L 255.182735 103.713091 
L 258.842886 107.560735 
L 262.366188 111.536921 
L 265.748119 115.631222 
L 268.984605 119.833253 
L 272.072022 124.132671 
L 275.007193 128.519175 
L 277.787391 132.982506 
L 280.410335 137.512446 
L 282.874194 142.09882 
L 285.177586 146.731494 
L 287.319574 151.400377 
L 289.299674 156.095418 
L 291.117847 160.806609 
L 292.774504 165.523984 
L 294.270337 170.237784 
L 295.60386 174.940497 
L 296.774941 179.623027 
L 297.784464 184.2758 
L 298.633582 188.88962 
L 299.609679 195.718118 
L 300.234041 202.411019 
L 300.513937 208.942029 
L 300.457986 215.286751 
L 300.076163 221.422689 
L 299.379789 227.329241 
L 298.381542 232.987708 
L 297.095446 238.381285 
L 295.53688 243.495068 
L 294.354575 246.742293 
L 293.061801 249.855313 
L 291.663017 252.830201 
L 290.163421 255.663486 
L 288.568224 258.352075 
L 286.882644 260.893248 
L 285.111912 263.284664 
L 283.26127 265.524354 
L 281.335969 267.610729 
L 279.341271 269.542573 
L 277.282451 271.319046 
L 275.164791 272.939685 
L 272.993586 274.404401 
L 270.774142 275.713482 
L 268.511774 276.867592 
L 266.211809 277.867771 
L 263.879583 278.715433 
L 261.520445 279.412369 
L 257.942956 280.179948 
L 254.332576 280.618358 
L 250.706288 280.734246 
L 247.0819 280.536925 
L 243.476326 280.036566 
L 239.905584 279.244201 
L 236.384799 278.171717 
L 232.928202 276.831864 
L 229.54913 275.238247 
L 226.260027 273.405332 
L 223.072442 271.348443 
L 219.997029 269.083763 
L 217.043551 266.628334 
L 214.220874 263.999988 
L 211.537315 261.21333 
L 209.001302 258.284692 
L 206.620432 255.232405 
L 204.401273 252.074411 
L 202.349358 248.828262 
L 200.469187 245.511119 
L 198.764228 242.139753 
L 197.236916 238.730545 
L 195.888652 235.299487 
L 194.719804 231.862179 
L 193.439137 227.295612 
L 192.471702 222.779905 
L 191.812105 218.346858 
L 191.455542 214.027085 
L 191.392895 209.852851 
L 191.613383 205.853216 
L 192.104615 202.053977 
L 192.852592 198.477665 
L 193.841704 195.143545 
L 195.054732 192.067617 
L 196.47285 189.262614 
L 198.07562 186.738005 
L 199.841314 184.500374 
L 201.261286 183.015824 
L 202.754056 181.699931 
L 204.310798 180.553577 
L 205.92272 179.57686 
L 207.581057 178.769091 
L 208.708088 178.323746 
L 208.708088 178.323746 
" clip-path="url(#pd1f66f4db3)" style="fill: none; stroke: #000000; stroke-opacity: 0.3; stroke-width: 7; stroke-linecap: square"/>
   </g>
   <g id="patch_3">
    <path d="M 52.160938 530.438125 
L 52.160938 22.318125 
" style="fill: none; stroke: #000000; stroke-width: 0.8; stroke-linejoin: miter; stroke-linecap: square"/>
   </g>
   <g id="patch_4">
    <path d="M 561.180937 530.438125 
L 561.180937 22.318125 
" style="fill: none; stroke: #000000; stroke-width: 0.8; stroke-linejoin: miter; stroke-linecap: square"/>
   </g>
   <g id="patch_5">
    <path d="M 52.160937 530.438125 
L 561.180937 530.438125 
" style="fill: none; stroke: #000000; stroke-width: 0.8; stroke-linejoin: miter; stroke-linecap: square"/>
   </g>
   <g id="patch_6">
    <path d="M 52.160937 22.318125 
L 561.180937 22.318125 
" style="fill: none; stroke: #000000; stroke-width: 0.8; stroke-linejoin: miter; stroke-linecap: square"/>
   </g>
   <g id="text_19">
    <!-- Phase Portrait (x0 vs x1) -->
    <g transform="translate(232.979687 16.318125) scale(0.12 -0.12)">
     <defs>
      <path id="DejaVuSans-50" d="M 1259 4147 
L 1259 2394 
L 2053 2394 
Q 2494 2394 2734 2622 
Q 2975 2850 2975 3272 
Q 2975 3691 2734 3919 
Q 2494 4147 2053 4147 
L 1259 4147 
z
M 628 4666 
L 2053 4666 
Q 2838 4666 3239 4311 
Q 3641 3956 3641 3272 
Q 3641 2581 3239 2228 
Q 2838 1875 2053 1875 
L 1259 1875 
L 1259 0 
L 628 0 
L 628 4666 
z
" transform="scale(0.015625)"/>
      <path id="DejaVuSans-68" d="M 3513 2113 
L 3513 0 
L 2938 0 
L 2938 2094 
Q 2938 2591 2744 2837 
Q 2550 3084 2163 3084 
Q 1697 3084 1428 2787 
Q 1159 2491 1159 1978 
L 1159 0 
L 581 0 
L 581 4863 
L 1159 4863 
L 1159 2956 
Q 1366 3272 1645 3428 
Q 1925 3584 2291 3584 
Q 2894 3584 3203 3211 
Q 3513 2838 3513 2113 
z
" transform="scale(0.015625)"/>
      <path id="DejaVuSans-61" d="M 2194 1759 
Q 1497 1759 1228 1600 
Q 959 1441 959 1056 
Q 959 750 1161 570 
Q 1363 391 1709 391 
Q 2188 391 2477 730 
Q 2766 1069 2766 1631 
L 2766 1759 
L 2194 1759 
z
M 3341 1997 
L 3341 0 
L 2766 0 
L 2766 531 
Q 2569 213 2275 61 
Q 1981 -91 1556 -91 
Q 1019 -91 701 211 
Q 384 513 384 1019 
Q 384 1609 779 1909 
Q 1175 2209 1959 2209 
L 2766 2209 
L 2766 2266 
Q 2766 2663 2505 2880 
Q 2244 3097 1772 3097 
Q 1472 3097 1187 3025 
Q 903 2953 641 2809 
L 641 3341 
Q 956 3463 1253 3523 
Q 1550 3584 1831 3584 
Q 2591 3584 2966 3190 
Q 3341 2797 3341 1997 
z
" transform="scale(0.015625)"/>
      <path id="DejaVuSans-73" d="M 2834 3397 
L 2834 2853 
Q 2591 2978 2328 3040 
Q 2066 3103 1784 3103 
Q 1356 3103 1142 2972 
Q 928 2841 928 2578 
Q 928 2378 1081 2264 
Q 1234 2150 1697 2047 
L 1894 2003 
Q 2506 1872 2764 1633 
Q 3022 1394 3022 966 
Q 3022 478 2636 193 
Q 2250 -91 1575 -91 
Q 1294 -91 989 -36 
Q 684 19 347 128 
L 347 722 
Q 666 556 975 473 
Q 1284 391 1588 391 
Q 1994 391 2212 530 
Q 2431 669 2431 922 
Q 2431 1156 2273 1281 
Q 2116 1406 1581 1522 
L 1381 1569 
Q 847 1681 609 1914 
Q 372 2147 372 2553 
Q 372 3047 722 3315 
Q 1072 3584 1716 3584 
Q 2034 3584 2315 3537 
Q 2597 3491 2834 3397 
z
" transform="scale(0.015625)"/>
      <path id="DejaVuSans-65" d="M 3597 1894 
L 3597 1613 
L 953 1613 
Q 991 1019 1311 708 
Q 1631 397 2203 397 
Q 2534 397 2845 478 
Q 3156 559 3463 722 
L 3463 178 
Q 3153 47 2828 -22 
Q 2503 -91 2169 -91 
Q 1331 -91 842 396 
Q 353 884 353 1716 
Q 353 2575 817 3079 
Q 1281 3584 2069 3584 
Q 2775 3584 3186 3129 
Q 3597 2675 3597 1894 
z
M 3022 2063 
Q 3016 2534 2758 2815 
Q 2500 3097 2075 3097 
Q 1594 3097 1305 2825 
Q 1016 2553 972 2059 
L 3022 2063 
z
" transform="scale(0.015625)"/>
      <path id="DejaVuSans-20" transform="scale(0.015625)"/>
      <path id="DejaVuSans-6f" d="M 1959 3097 
Q 1497 3097 1228 2736 
Q 959 2375 959 1747 
Q 959 1119 1226 758 
Q 1494 397 1959 397 
Q 2419 397 2687 759 
Q 2956 1122 2956 1747 
Q 2956 2369 2687 2733 
Q 2419 3097 1959 3097 
z
M 1959 3584 
Q 2709 3584 3137 3096 
Q 3566 2609 3566 1747 
Q 3566 888 3137 398 
Q 2709 -91 1959 -91 
Q 1206 -91 779 398 
Q 353 888 353 1747 
Q 353 2609 779 3096 
Q 1206 3584 1959 3584 
z
" transform="scale(0.015625)"/>
      <path id="DejaVuSans-72" d="M 2631 2963 
Q 2534 3019 2420 3045 
Q 2306 3072 2169 3072 
Q 1681 3072 1420 2755 
Q 1159 2438 1159 1844 
L 1159 0 
L 581 0 
L 581 3500 
L 1159 3500 
L 1159 2956 
Q 1341 3275 1631 3429 
Q 1922 3584 2338 3584 
Q 2397 3584 2469 3576 
Q 2541 3569 2628 3553 
L 2631 2963 
z
" transform="scale(0.015625)"/>
      <path id="DejaVuSans-74" d="M 1172 4494 
L 1172 3500 
L 2356 3500 
L 2356 3053 
L 1172 3053 
L 1172 1153 
Q 1172 725 1289 603 
Q 1406 481 1766 481 
L 2356 481 
L 2356 0 
L 1766 0 
Q 1100 0 847 248 
Q 594 497 594 1153 
L 594 3053 
L 172 3053 
L 172 3500 
L 594 3500 
L 594 4494 
L 1172 4494 
z
" transform="scale(0.015625)"/>
      <path id="DejaVuSans-69" d="M 603 3500 
L 1178 3500 
L 1178 0 
L 603 0 
L 603 3500 
z
M 603 4863 
L 1178 4863 
L 1178 4134 
L 603 4134 
L 603 4863 
z
" transform="scale(0.015625)"/>
      <path id="DejaVuSans-28" d="M 1984 4856 
Q 1566 4138 1362 3434 
Q 1159 2731 1159 2009 
Q 1159 1288 1364 580 
Q 1569 -128 1984 -844 
L 1484 -844 
Q 1016 -109 783 600 
Q 550 1309 550 2009 
Q 550 2706 781 3412 
Q 1013 4119 1484 4856 
L 1984 4856 
z
" transform="scale(0.015625)"/>
      <path id="DejaVuSans-76" d="M 191 3500 
L 800 3500 
L 1894 563 
L 2988 3500 
L 3597 3500 
L 2284 0 
L 1503 0 
L 191 3500 
z
" transform="scale(0.015625)"/>
      <path id="DejaVuSans-29" d="M 513 4856 
L 1013 4856 
Q 1481 4119 1714 3412 
Q 1947 2706 1947 2009 
Q 1947 1309 1714 600 
Q 1481 -109 1013 -844 
L 513 -844 
Q 928 -128 1133 580 
Q 1338 1288 1338 2009 
Q 1338 2731 1133 3434 
Q 928 4138 513 4856 
z
" transform="scale(0.015625)"/>
     </defs>
     <use xlink:href="#DejaVuSans-50"/>
     <use xlink:href="#DejaVuSans-68" transform="translate(60.302734 0)"/>
     <use xlink:href="#DejaVuSans-61" transform="translate(123.681641 0)"/>
     <use xlink:href="#DejaVuSans-73" transform="translate(184.960938 0)"/>
     <use xlink:href="#DejaVuSans-65" transform="translate(237.060547 0)"/>
     <use xlink:href="#DejaVuSans-20" transform="translate(298.583984 0)"/>
     <use xlink:href="#DejaVuSans-50" transform="translate(330.371094 0)"/>
     <use xlink:href="#DejaVuSans-6f" transform="translate(387.048828 0)"/>
     <use xlink:href="#DejaVuSans-72" transform="translate(448.230469 0)"/>
     <use xlink:href="#DejaVuSans-74" transform="translate(489.34375 0)"/>
     <use xlink:href="#DejaVuSans-72" transform="translate(528.552734 0)"/>
     <use xlink:href="#DejaVuSans-61" transform="translate(569.666016 0)"/>
     <use xlink:href="#DejaVuSans-69" transform="translate(630.945312 0)"/>
     <use xlink:href="#DejaVuSans-74" transform="translate(658.728516 0)"/>
     <use xlink:href="#DejaVuSans-20" transform="translate(697.9375 0)"/>
     <use xlink:href="#DejaVuSans-28" transform="translate(729.724609 0)"/>
     <use xlink:href="#DejaVuSans-78" transform="translate(768.738281 0)"/>
     <use xlink:href="#DejaVuSans-30" transform="translate(827.917969 0)"/>
     <use xlink:href="#DejaVuSans-20" transform="translate(891.541016 0)"/>
     <use xlink:href="#DejaVuSans-76" transform="translate(923.328125 0)"/>
     <use xlink:href="#DejaVuSans-73" transform="translate(982.507812 0)"/>
     <use xlink:href="#DejaVuSans-20" transform="translate(1034.607422 0)"/>
     <use xlink:href="#DejaVuSans-78" transform="translate(1066.394531 0)"/>
     <use xlink:href="#DejaVuSans-31" transform="translate(1125.574219 0)"/>
     <use xlink:href="#DejaVuSans-29" transform="translate(1189.197266 0)"/>
    </g>
   </g>
   <g id="line2d_18">
    <path d="M 513.65729 45.414489 
L 516.423087 55.335739 
L 519.018268 65.236111 
L 521.443288 75.110951 
L 523.698477 84.955497 
L 525.784486 94.765246 
L 527.702007 104.53573 
L 529.451732 114.262479 
L 531.034447 123.941114 
L 532.450905 133.567198 
L 533.702134 143.13657 
L 534.789197 152.645098 
L 535.713153 162.088656 
L 536.475151 171.463212 
L 537.076313 180.764676 
L 537.51801 189.98926 
L 537.801642 199.133208 
L 537.928608 208.192764 
L 537.900389 217.164278 
L 537.718441 226.044042 
L 537.384446 234.828667 
L 536.90011 243.514798 
L 536.267138 252.09908 
L 535.487306 260.57827 
L 534.562373 268.949067 
L 533.494296 277.208505 
L 532.285051 285.35365 
L 530.936612 293.381568 
L 529.451017 301.289446 
L 527.830292 309.074408 
L 526.07663 316.733925 
L 524.19224 324.265502 
L 522.17933 331.666642 
L 520.040163 338.934971 
L 517.776991 346.068055 
L 515.392206 353.063813 
L 512.888214 359.920196 
L 510.267418 366.635152 
L 507.532265 373.206756 
L 504.685199 379.633023 
L 501.728772 385.912324 
L 498.665544 392.043058 
L 495.498079 398.023623 
L 492.228968 403.852543 
L 488.860806 409.528286 
L 485.396268 415.049672 
L 481.838032 420.415545 
L 478.188778 425.624752 
L 474.451208 430.676262 
L 470.628028 435.568992 
L 466.721996 440.302202 
L 462.735871 444.875178 
L 458.672412 449.287204 
L 454.534391 453.537687 
L 450.32459 457.625982 
L 446.04581 461.551781 
L 441.700853 465.314795 
L 437.292523 468.914735 
L 432.823624 472.35143 
L 428.296974 475.624664 
L 423.715383 478.734539 
L 419.081661 481.681175 
L 414.398618 484.464693 
L 409.669056 487.085329 
L 404.895793 489.543271 
L 400.081615 491.839015 
L 395.229303 493.973069 
L 390.341641 495.945942 
L 385.421393 497.75825 
L 380.471345 499.410571 
L 375.494222 500.903764 
L 370.492749 502.238701 
L 365.469648 503.416254 
L 360.427615 504.437397 
L 355.369371 505.303066 
L 350.297552 506.01446 
L 345.214792 506.572786 
L 340.123726 506.979249 
L 335.026949 507.235151 
L 329.927089 507.341761 
L 324.826665 507.300584 
L 319.728194 507.11313 
L 314.634192 506.78091 
L 309.547133 506.305522 
L 304.469518 505.688534 
L 299.403727 504.931724 
L 294.352134 504.036875 
L 289.317115 503.005769 
L 284.300992 501.840264 
L 279.306122 500.542197 
L 274.334719 499.113584 
L 269.388996 497.556443 
L 264.471163 495.872795 
L 259.583372 494.064724 
L 254.727814 492.134298 
L 249.906518 490.083734 
L 245.121515 487.915254 
L 240.374832 485.631079 
L 235.668435 483.233481 
L 231.004326 480.724724 
L 226.384337 478.107193 
L 221.810299 475.383272 
L 217.284043 472.555346 
L 208.381964 466.597183 
L 199.691743 460.252445 
L 191.226271 453.541264 
L 182.99797 446.484015 
L 175.018225 439.101469 
L 167.297978 431.414535 
L 159.847332 423.444359 
L 152.675602 415.21222 
L 145.791595 406.739486 
L 139.203048 398.047591 
L 132.91725 389.157971 
L 126.940615 380.092039 
L 121.278782 370.871114 
L 115.936872 361.516453 
L 110.918953 352.049077 
L 106.228659 342.489894 
L 101.868764 332.859541 
L 97.841312 323.178372 
L 94.147845 313.466537 
L 90.788914 303.743694 
L 87.764675 294.029285 
L 85.074474 284.342271 
L 82.717003 274.701171 
L 80.690489 265.124183 
L 78.992276 255.628802 
L 77.61936 246.232226 
L 76.568015 236.951003 
L 75.83396 227.801118 
L 75.412503 218.79814 
L 75.29821 209.956781 
L 75.485356 201.291399 
L 75.967612 192.81557 
L 76.738204 184.542235 
L 77.79002 176.483846 
L 79.115366 168.651901 
L 80.706324 161.057508 
L 82.554505 153.710914 
L 84.651198 146.621689 
L 86.987438 139.798879 
L 89.553845 133.250524 
L 92.340886 126.984272 
L 95.33871 121.006865 
L 98.537257 115.324374 
L 101.926308 109.942329 
L 105.495401 104.865267 
L 109.233989 100.097334 
L 113.131361 95.641785 
L 117.176713 91.501236 
L 121.35917 87.677772 
L 125.667786 84.17254 
L 130.091592 80.986325 
L 134.619605 78.119067 
L 139.240854 75.57013 
L 143.944388 73.338383 
L 148.719336 71.421851 
L 153.554865 69.818233 
L 158.440263 68.524476 
L 163.364929 67.537027 
L 168.318356 66.851895 
L 173.290256 66.464371 
L 178.270428 66.369472 
L 183.248916 66.561574 
L 188.215947 67.034652 
L 193.161918 67.782315 
L 198.077551 68.797601 
L 202.9537 70.073329 
L 207.781562 71.601818 
L 212.552578 73.375086 
L 217.258413 75.384872 
L 221.891145 77.6225 
L 226.443011 80.079139 
L 230.906671 82.745608 
L 235.275065 85.612529 
L 239.541404 88.670337 
L 243.699364 91.909214 
L 247.742802 95.319252 
L 251.666051 98.890345 
L 255.46374 102.612292 
L 259.130799 106.4748 
L 262.662651 110.467481 
L 266.05491 114.579916 
L 269.303688 118.801642 
L 272.405401 123.122192 
L 275.356773 127.5311 
L 278.155026 132.017953 
L 280.79757 136.57236 
L 283.282314 141.184027 
L 285.607457 145.842741 
L 287.771507 150.538376 
L 289.773442 155.260984 
L 291.612424 160.00069 
L 293.288084 164.747841 
L 294.800326 169.492936 
L 296.149338 174.226632 
L 297.33574 178.939873 
L 298.360316 183.623716 
L 299.224281 188.269547 
L 300.222302 195.148669 
L 300.868365 201.896103 
L 301.169902 208.485895 
L 301.135748 214.893667 
L 300.775854 221.096423 
L 300.101392 227.072848 
L 299.124571 232.80323 
L 297.858542 238.269443 
L 296.860794 241.758733 
L 295.745108 245.118855 
L 294.516027 248.345788 
L 293.178197 251.435779 
L 291.736379 254.385388 
L 290.195482 257.191635 
L 288.560467 259.851722 
L 286.836424 262.363344 
L 285.028494 264.724454 
L 283.141887 266.933321 
L 281.181875 268.988652 
L 279.153757 270.889334 
L 277.062874 272.634724 
L 274.914579 274.224417 
L 272.714235 275.658309 
L 270.4672 276.936699 
L 268.178826 278.06005 
L 265.854431 279.029254 
L 263.499303 279.845413 
L 261.118697 280.509902 
L 258.717791 281.024445 
L 255.089605 281.51931 
L 251.44429 281.688754 
L 247.798449 281.541531 
L 244.168175 281.087602 
L 240.569018 280.33798 
L 237.015972 279.304612 
L 233.523326 278.000423 
L 230.104745 276.439083 
L 226.773125 274.635038 
L 223.540602 272.603374 
L 220.418566 270.359714 
L 217.417507 267.920198 
L 214.547148 265.301321 
L 211.816305 262.519905 
L 209.232919 259.592991 
L 206.8041 256.537759 
L 204.535984 253.371454 
L 202.433896 250.111306 
L 200.502226 246.77445 
L 198.744482 243.377855 
L 197.163354 239.938272 
L 195.760594 236.47212 
L 194.537186 232.995486 
L 193.493256 229.524009 
L 192.379275 224.929524 
L 191.579426 220.405552 
L 191.087728 215.984655 
L 190.89601 211.697303 
L 190.994091 207.571749 
L 191.369924 203.633881 
L 192.009769 199.907126 
L 192.898361 196.412355 
L 194.019075 193.167791 
L 195.354131 190.189007 
L 196.48483 188.137188 
L 197.717349 186.246656 
L 199.043255 184.520981 
L 200.453963 182.962964 
L 201.940759 181.574555 
L 203.49485 180.356885 
L 205.107407 179.310352 
L 206.769599 178.43452 
L 207.333172 178.180336 
L 207.333172 178.180336 
" clip-path="url(#pd1f66f4db3)" style="fill: none; stroke-dasharray: 12.95,5.6; stroke-dashoffset: 0; stroke: #ff0000; stroke-opacity: 0.8; stroke-width: 3.5"/>
   </g>
   <g id="legend_1">
    <g id="patch_7">
     <path d="M 59.160938 59.674375 
L 204.510938 59.674375 
Q 206.510938 59.674375 206.510938 57.674375 
L 206.510938 29.318125 
Q 206.510938 27.318125 204.510938 27.318125 
L 59.160938 27.318125 
Q 57.160938 27.318125 57.160938 29.318125 
L 57.160938 57.674375 
Q 57.160938 59.674375 59.160938 59.674375 
z
" style="fill: #ffffff; opacity: 0.8; stroke: #cccccc; stroke-linejoin: miter"/>
    </g>
    <g id="line2d_19">
     <path d="M 61.160938 35.416562 
L 71.160938 35.416562 
L 81.160938 35.416562 
" style="fill: none; stroke: #000000; stroke-opacity: 0.3; stroke-width: 7; stroke-linecap: square"/>
    </g>
    <g id="text_20">
     <!-- True/Underlying model -->
     <g transform="translate(89.160938 38.916562) scale(0.1 -0.1)">
      <defs>
       <path id="DejaVuSans-54" d="M -19 4666 
L 3928 4666 
L 3928 4134 
L 2272 4134 
L 2272 0 
L 1638 0 
L 1638 4134 
L -19 4134 
L -19 4666 
z
" transform="scale(0.015625)"/>
       <path id="DejaVuSans-75" d="M 544 1381 
L 544 3500 
L 1119 3500 
L 1119 1403 
Q 1119 906 1312 657 
Q 1506 409 1894 409 
Q 2359 409 2629 706 
Q 2900 1003 2900 1516 
L 2900 3500 
L 3475 3500 
L 3475 0 
L 2900 0 
L 2900 538 
Q 2691 219 2414 64 
Q 2138 -91 1772 -91 
Q 1169 -91 856 284 
Q 544 659 544 1381 
z
M 1991 3584 
L 1991 3584 
z
" transform="scale(0.015625)"/>
       <path id="DejaVuSans-2f" d="M 1625 4666 
L 2156 4666 
L 531 -594 
L 0 -594 
L 1625 4666 
z
" transform="scale(0.015625)"/>
       <path id="DejaVuSans-55" d="M 556 4666 
L 1191 4666 
L 1191 1831 
Q 1191 1081 1462 751 
Q 1734 422 2344 422 
Q 2950 422 3222 751 
Q 3494 1081 3494 1831 
L 3494 4666 
L 4128 4666 
L 4128 1753 
Q 4128 841 3676 375 
Q 3225 -91 2344 -91 
Q 1459 -91 1007 375 
Q 556 841 556 1753 
L 556 4666 
z
" transform="scale(0.015625)"/>
       <path id="DejaVuSans-6e" d="M 3513 2113 
L 3513 0 
L 2938 0 
L 2938 2094 
Q 2938 2591 2744 2837 
Q 2550 3084 2163 3084 
Q 1697 3084 1428 2787 
Q 1159 2491 1159 1978 
L 1159 0 
L 581 0 
L 581 3500 
L 1159 3500 
L 1159 2956 
Q 1366 3272 1645 3428 
Q 1925 3584 2291 3584 
Q 2894 3584 3203 3211 
Q 3513 2838 3513 2113 
z
" transform="scale(0.015625)"/>
       <path id="DejaVuSans-64" d="M 2906 2969 
L 2906 4863 
L 3481 4863 
L 3481 0 
L 2906 0 
L 2906 525 
Q 2725 213 2448 61 
Q 2172 -91 1784 -91 
Q 1150 -91 751 415 
Q 353 922 353 1747 
Q 353 2572 751 3078 
Q 1150 3584 1784 3584 
Q 2172 3584 2448 3432 
Q 2725 3281 2906 2969 
z
M 947 1747 
Q 947 1113 1208 752 
Q 1469 391 1925 391 
Q 2381 391 2643 752 
Q 2906 1113 2906 1747 
Q 2906 2381 2643 2742 
Q 2381 3103 1925 3103 
Q 1469 3103 1208 2742 
Q 947 2381 947 1747 
z
" transform="scale(0.015625)"/>
       <path id="DejaVuSans-6c" d="M 603 4863 
L 1178 4863 
L 1178 0 
L 603 0 
L 603 4863 
z
" transform="scale(0.015625)"/>
       <path id="DejaVuSans-79" d="M 2059 -325 
Q 1816 -950 1584 -1140 
Q 1353 -1331 966 -1331 
L 506 -1331 
L 506 -850 
L 844 -850 
Q 1081 -850 1212 -737 
Q 1344 -625 1503 -206 
L 1606 56 
L 191 3500 
L 800 3500 
L 1894 763 
L 2988 3500 
L 3597 3500 
L 2059 -325 
z
" transform="scale(0.015625)"/>
       <path id="DejaVuSans-67" d="M 2906 1791 
Q 2906 2416 2648 2759 
Q 2391 3103 1925 3103 
Q 1463 3103 1205 2759 
Q 947 2416 947 1791 
Q 947 1169 1205 825 
Q 1463 481 1925 481 
Q 2391 481 2648 825 
Q 2906 1169 2906 1791 
z
M 3481 434 
Q 3481 -459 3084 -895 
Q 2688 -1331 1869 -1331 
Q 1566 -1331 1297 -1286 
Q 1028 -1241 775 -1147 
L 775 -588 
Q 1028 -725 1275 -790 
Q 1522 -856 1778 -856 
Q 2344 -856 2625 -561 
Q 2906 -266 2906 331 
L 2906 616 
Q 2728 306 2450 153 
Q 2172 0 1784 0 
Q 1141 0 747 490 
Q 353 981 353 1791 
Q 353 2603 747 3093 
Q 1141 3584 1784 3584 
Q 2172 3584 2450 3431 
Q 2728 3278 2906 2969 
L 2906 3500 
L 3481 3500 
L 3481 434 
z
" transform="scale(0.015625)"/>
       <path id="DejaVuSans-6d" d="M 3328 2828 
Q 3544 3216 3844 3400 
Q 4144 3584 4550 3584 
Q 5097 3584 5394 3201 
Q 5691 2819 5691 2113 
L 5691 0 
L 5113 0 
L 5113 2094 
Q 5113 2597 4934 2840 
Q 4756 3084 4391 3084 
Q 3944 3084 3684 2787 
Q 3425 2491 3425 1978 
L 3425 0 
L 2847 0 
L 2847 2094 
Q 2847 2600 2669 2842 
Q 2491 3084 2119 3084 
Q 1678 3084 1418 2786 
Q 1159 2488 1159 1978 
L 1159 0 
L 581 0 
L 581 3500 
L 1159 3500 
L 1159 2956 
Q 1356 3278 1631 3431 
Q 1906 3584 2284 3584 
Q 2666 3584 2933 3390 
Q 3200 3197 3328 2828 
z
" transform="scale(0.015625)"/>
      </defs>
      <use xlink:href="#DejaVuSans-54"/>
      <use xlink:href="#DejaVuSans-72" transform="translate(46.333984 0)"/>
      <use xlink:href="#DejaVuSans-75" transform="translate(87.447266 0)"/>
      <use xlink:href="#DejaVuSans-65" transform="translate(150.826172 0)"/>
      <use xlink:href="#DejaVuSans-2f" transform="translate(212.349609 0)"/>
      <use xlink:href="#DejaVuSans-55" transform="translate(246.041016 0)"/>
      <use xlink:href="#DejaVuSans-6e" transform="translate(319.234375 0)"/>
      <use xlink:href="#DejaVuSans-64" transform="translate(382.613281 0)"/>
      <use xlink:href="#DejaVuSans-65" transform="translate(446.089844 0)"/>
      <use xlink:href="#DejaVuSans-72" transform="translate(507.613281 0)"/>
      <use xlink:href="#DejaVuSans-6c" transform="translate(548.726562 0)"/>
      <use xlink:href="#DejaVuSans-79" transform="translate(576.509766 0)"/>
      <use xlink:href="#DejaVuSans-69" transform="translate(635.689453 0)"/>
      <use xlink:href="#DejaVuSans-6e" transform="translate(663.472656 0)"/>
      <use xlink:href="#DejaVuSans-67" transform="translate(726.851562 0)"/>
      <use xlink:href="#DejaVuSans-20" transform="translate(790.328125 0)"/>
      <use xlink:href="#DejaVuSans-6d" transform="translate(822.115234 0)"/>
      <use xlink:href="#DejaVuSans-6f" transform="translate(919.527344 0)"/>
      <use xlink:href="#DejaVuSans-64" transform="translate(980.708984 0)"/>
      <use xlink:href="#DejaVuSans-65" transform="translate(1044.185547 0)"/>
      <use xlink:href="#DejaVuSans-6c" transform="translate(1105.708984 0)"/>
     </g>
    </g>
    <g id="line2d_20">
     <path d="M 61.160938 50.094687 
L 71.160938 50.094687 
L 81.160938 50.094687 
" style="fill: none; stroke-dasharray: 12.95,5.6; stroke-dashoffset: 0; stroke: #ff0000; stroke-opacity: 0.8; stroke-width: 3.5"/>
    </g>
    <g id="text_21">
     <!-- AutoSINDy -->
     <g transform="translate(89.160938 53.594687) scale(0.1 -0.1)">
      <defs>
       <path id="DejaVuSans-41" d="M 2188 4044 
L 1331 1722 
L 3047 1722 
L 2188 4044 
z
M 1831 4666 
L 2547 4666 
L 4325 0 
L 3669 0 
L 3244 1197 
L 1141 1197 
L 716 0 
L 50 0 
L 1831 4666 
z
" transform="scale(0.015625)"/>
       <path id="DejaVuSans-53" d="M 3425 4513 
L 3425 3897 
Q 3066 4069 2747 4153 
Q 2428 4238 2131 4238 
Q 1616 4238 1336 4038 
Q 1056 3838 1056 3469 
Q 1056 3159 1242 3001 
Q 1428 2844 1947 2747 
L 2328 2669 
Q 3034 2534 3370 2195 
Q 3706 1856 3706 1288 
Q 3706 609 3251 259 
Q 2797 -91 1919 -91 
Q 1588 -91 1214 -16 
Q 841 59 441 206 
L 441 856 
Q 825 641 1194 531 
Q 1563 422 1919 422 
Q 2459 422 2753 634 
Q 3047 847 3047 1241 
Q 3047 1584 2836 1778 
Q 2625 1972 2144 2069 
L 1759 2144 
Q 1053 2284 737 2584 
Q 422 2884 422 3419 
Q 422 4038 858 4394 
Q 1294 4750 2059 4750 
Q 2388 4750 2728 4690 
Q 3069 4631 3425 4513 
z
" transform="scale(0.015625)"/>
       <path id="DejaVuSans-49" d="M 628 4666 
L 1259 4666 
L 1259 0 
L 628 0 
L 628 4666 
z
" transform="scale(0.015625)"/>
       <path id="DejaVuSans-4e" d="M 628 4666 
L 1478 4666 
L 3547 763 
L 3547 4666 
L 4159 4666 
L 4159 0 
L 3309 0 
L 1241 3903 
L 1241 0 
L 628 0 
L 628 4666 
z
" transform="scale(0.015625)"/>
       <path id="DejaVuSans-44" d="M 1259 4147 
L 1259 519 
L 2022 519 
Q 2988 519 3436 956 
Q 3884 1394 3884 2338 
Q 3884 3275 3436 3711 
Q 2988 4147 2022 4147 
L 1259 4147 
z
M 628 4666 
L 1925 4666 
Q 3281 4666 3915 4102 
Q 4550 3538 4550 2338 
Q 4550 1131 3912 565 
Q 3275 0 1925 0 
L 628 0 
L 628 4666 
z
" transform="scale(0.015625)"/>
      </defs>
      <use xlink:href="#DejaVuSans-41"/>
      <use xlink:href="#DejaVuSans-75" transform="translate(68.408203 0)"/>
      <use xlink:href="#DejaVuSans-74" transform="translate(131.787109 0)"/>
      <use xlink:href="#DejaVuSans-6f" transform="translate(170.996094 0)"/>
      <use xlink:href="#DejaVuSans-53" transform="translate(232.177734 0)"/>
      <use xlink:href="#DejaVuSans-49" transform="translate(295.654297 0)"/>
      <use xlink:href="#DejaVuSans-4e" transform="translate(325.146484 0)"/>
      <use xlink:href="#DejaVuSans-44" transform="translate(399.951172 0)"/>
      <use xlink:href="#DejaVuSans-79" transform="translate(476.953125 0)"/>
     </g>
    </g>
   </g>
  </g>
 </g>
 <defs>
  <clipPath id="pd1f66f4db3">
   <rect x="52.160938" y="22.318125" width="509.02" height="508.12"/>
  </clipPath>
 </defs>
</svg>
