<?xml version="1.0" encoding="utf-8" standalone="no"?>
<!DOCTYPE svg PUBLIC "-//W3C//DTD SVG 1.1//EN"
  "http://www.w3.org/Graphics/SVG/1.1/DTD/svg11.dtd">
<svg xmlns:xlink="http://www.w3.org/1999/xlink" width="862.210312pt" height="429.79625pt" viewBox="0 0 862.210312 429.79625" xmlns="http://www.w3.org/2000/svg" version="1.1">
 <metadata>
  <rdf:RDF xmlns:dc="http://purl.org/dc/elements/1.1/" xmlns:cc="http://creativecommons.org/ns#" xmlns:rdf="http://www.w3.org/1999/02/22-rdf-syntax-ns#">
   <cc:Work>
    <dc:type rdf:resource="http://purl.org/dc/dcmitype/StillImage"/>
    <dc:date>2026-04-06T11:57:39.647469</dc:date>
    <dc:format>image/svg+xml</dc:format>
    <dc:creator>
     <cc:Agent>
      <dc:title>Matplotlib v3.10.7, https://matplotlib.org/</dc:title>
     </cc:Agent>
    </dc:creator>
   </cc:Work>
  </rdf:RDF>
 </metadata>
 <defs>
  <style type="text/css">*{stroke-linejoin: round; stroke-linecap: butt}</style>
 </defs>
 <g id="figure_1">
  <g id="patch_1">
   <path d="M 0 429.79625 
L 862.210312 429.79625 
L 862.210312 0 
L 0 0 
z
" style="fill: #ffffff"/>
  </g>
  <g id="axes_1">
   <g id="patch_2">
    <path d="M 42.620313 210.297001 
L 849.210312 210.297001 
L 849.210312 42.654002 
L 42.620313 42.654002 
z
" style="fill: #ffffff"/>
   </g>
   <g id="line2d_1">
    <path d="M 79.283494 113.727562 
L 86.910453 137.857996 
L 90.528369 148.56879 
L 93.461815 156.606287 
L 96.004135 162.962041 
L 98.448673 168.484323 
L 100.599866 172.786914 
L 102.555497 176.221022 
L 104.413346 179.046804 
L 106.173413 181.318385 
L 107.737917 182.996456 
L 109.20464 184.270241 
L 110.573581 185.191407 
L 111.942523 185.848313 
L 113.213683 186.216727 
L 114.484842 186.347871 
L 115.658221 186.254151 
L 117.418288 185.833386 
L 118.689448 185.277772 
L 120.058389 184.428623 
L 121.525112 183.242276 
L 123.089616 181.676257 
L 124.751902 179.690179 
L 126.609751 177.101119 
L 128.565382 173.983487 
L 130.716575 170.126594 
L 133.063332 165.45643 
L 135.703433 159.691853 
L 138.930223 152.061859 
L 142.254795 143.596804 
L 146.850526 131.211386 
L 155.259737 108.479593 
L 158.779872 99.679542 
L 161.811099 92.602043 
L 164.548982 86.757834 
L 166.99352 82.047761 
L 169.242495 78.189108 
L 171.295907 75.102259 
L 173.153756 72.697545 
L 174.913823 70.783188 
L 176.478328 69.396342 
L 177.94505 68.378967 
L 179.802899 67.367359 
L 181.171841 66.891241 
L 182.540782 66.643815 
L 183.909723 66.619672 
L 185.278665 66.813404 
L 186.745387 67.256604 
L 188.21211 67.937057 
L 189.776615 68.916881 
L 191.4389 70.236396 
L 193.198968 71.935674 
L 195.056817 74.054042 
L 197.012447 76.629546 
L 199.065859 79.698842 
L 201.803742 84.238649 
L 204.346061 88.9494 
L 207.279507 94.878034 
L 210.897423 102.726621 
L 216.568752 115.651637 
L 223.902366 132.243273 
L 227.813627 140.574042 
L 230.942636 146.734438 
L 233.582737 151.467249 
L 235.929493 155.241901 
L 238.080687 158.290054 
L 240.036317 160.677495 
L 242.480855 163.260731 
L 244.240923 164.770502 
L 245.903208 165.919455 
L 247.565494 166.800221 
L 249.129999 167.384931 
L 250.694503 167.733499 
L 252.259007 167.846615 
L 253.823512 167.724969 
L 255.388016 167.369249 
L 256.95252 166.780144 
L 258.517025 165.958345 
L 260.179311 164.83099 
L 262.232723 163.139959 
L 264.090572 161.323774 
L 266.143984 158.983916 
L 268.392959 156.060289 
L 270.837497 152.505957 
L 273.673161 147.966626 
L 276.997733 142.192459 
L 281.202338 134.409159 
L 287.362574 122.516958 
L 293.52281 110.751871 
L 297.042945 104.499118 
L 299.97639 99.732783 
L 302.51871 96.025005 
L 305.452156 92.172223 
L 307.701131 89.614681 
L 309.754543 87.598139 
L 311.710173 85.970666 
L 313.568022 84.698102 
L 315.328089 83.745815 
L 317.088157 83.046975 
L 318.750443 82.625866 
L 320.314947 82.446818 
L 321.879451 82.483398 
L 323.835082 82.7754 
L 325.497368 83.258564 
L 327.159654 83.971821 
L 328.919721 84.964585 
L 330.77757 86.262238 
L 332.830982 87.975196 
L 334.982175 90.0599 
L 337.328932 92.642869 
L 339.969033 95.893173 
L 342.902479 99.876407 
L 346.520395 105.198927 
L 350.431656 111.386353 
L 363.729943 132.783146 
L 367.445641 138.070191 
L 370.379086 141.865637 
L 373.019188 144.933517 
L 375.463726 147.443672 
L 377.712701 149.444014 
L 379.766113 150.989964 
L 381.721743 152.195442 
L 383.579592 153.084279 
L 385.730785 153.835438 
L 387.490853 154.222449 
L 389.25092 154.383258 
L 391.010988 154.32463 
L 392.868837 154.03216 
L 394.726686 153.510688 
L 396.682316 152.72312 
L 398.735728 151.64273 
L 400.886921 150.243949 
L 403.135896 148.502738 
L 405.482653 146.396881 
L 408.51388 143.332656 
L 411.349544 140.108237 
L 414.674116 135.975286 
L 418.976503 130.249013 
L 431.981446 112.703507 
L 435.697143 108.157496 
L 438.826152 104.674461 
L 441.564035 101.95551 
L 444.008573 99.834879 
L 446.257548 98.175275 
L 448.99543 96.480615 
L 451.048842 95.47938 
L 453.102254 94.722023 
L 455.155666 94.207528 
L 457.111297 93.942393 
L 459.066927 93.895742 
L 461.022558 94.066699 
L 462.978188 94.454386 
L 465.0316 95.093752 
L 467.085012 95.970093 
L 469.725113 97.37699 
L 471.974088 98.84687 
L 474.418626 100.708625 
L 477.156509 103.077519 
L 480.285518 106.089952 
L 484.001215 109.990966 
L 489.183636 115.791183 
L 501.993016 130.280448 
L 505.415369 133.693804 
L 508.251033 136.22349 
L 511.380042 138.695093 
L 513.922361 140.429118 
L 516.366899 141.835728 
L 518.713656 142.935834 
L 520.962631 143.751461 
L 523.113824 144.305512 
L 525.265018 144.631294 
L 527.31843 144.722831 
L 529.469623 144.592084 
L 531.523035 144.289657 
L 533.674229 143.745355 
L 535.923204 142.944454 
L 538.26996 141.875044 
L 540.81228 140.470373 
L 543.550163 138.700165 
L 546.58139 136.466787 
L 549.905962 133.736986 
L 554.110567 129.977432 
L 559.292988 124.994204 
L 568.093325 116.521002 
L 572.004586 113.095871 
L 575.52472 110.273907 
L 578.653729 108.042955 
L 581.587175 106.224125 
L 584.227276 104.839496 
L 586.769595 103.754359 
L 589.116352 102.986847 
L 591.463109 102.450314 
L 593.712084 102.123754 
L 595.961059 102.017194 
L 598.307815 102.131245 
L 600.654572 102.465822 
L 603.09911 103.038445 
L 605.641429 103.864994 
L 608.28153 104.959671 
L 611.019413 106.334728 
L 614.246203 108.221865 
L 617.472994 110.369321 
L 621.286473 113.186266 
L 626.566675 117.392227 
L 637.224861 125.934979 
L 641.62503 129.1639 
L 645.242946 131.552081 
L 648.371955 133.361662 
L 651.207619 134.754049 
L 653.945501 135.851866 
L 656.585602 136.709536 
L 659.225704 137.32757 
L 661.768023 137.697793 
L 664.310343 137.848828 
L 666.852662 137.782142 
L 669.394982 137.499206 
L 672.035083 136.978075 
L 674.772966 136.203868 
L 677.510848 135.228933 
L 680.444294 133.946788 
L 683.768866 132.242242 
L 687.582345 130.024868 
L 692.37364 126.961764 
L 700.489506 121.458577 
L 707.236431 116.976567 
L 711.343255 114.507505 
L 714.765608 112.696788 
L 718.481306 111.006098 
L 721.610315 109.831927 
L 724.641542 108.936119 
L 727.574988 108.306187 
L 730.410652 107.928353 
L 733.148535 107.787707 
L 735.886417 107.873199 
L 738.6243 108.146795 
L 741.459964 108.660519 
L 744.491191 109.444885 
L 747.717981 110.518033 
L 751.238116 111.932311 
L 755.149377 113.753055 
L 759.940672 116.2486 
L 766.003126 119.687981 
L 775.096808 124.835992 
L 779.692539 127.158399 
L 783.701582 128.955262 
L 787.319498 130.339757 
L 790.64407 131.383637 
L 793.773078 132.14213 
L 796.804306 132.648734 
L 800.031096 132.95017 
L 803.062323 133.004384 
L 806.09355 132.838683 
L 809.222559 132.446339 
L 812.449349 131.81646 
L 812.547131 131.794011 
L 812.547131 131.794011 
" clip-path="url(#p152a64f2f4)" style="fill: none; stroke: #808080; stroke-opacity: 0.5; stroke-width: 6; stroke-linecap: square"/>
   </g>
   <g id="matplotlib.axis_1">
    <g id="xtick_1">
     <g id="line2d_2">
      <defs>
       <path id="mcd435cd8ea" d="M 0 0 
L 0 3.5 
" style="stroke: #000000; stroke-width: 0.8"/>
      </defs>
      <g>
       <use xlink:href="#mcd435cd8ea" x="79.283494" y="210.297001" style="stroke: #000000; stroke-width: 0.8"/>
      </g>
     </g>
    </g>
    <g id="xtick_2">
     <g id="line2d_3">
      <g>
       <use xlink:href="#mcd435cd8ea" x="177.051979" y="210.297001" style="stroke: #000000; stroke-width: 0.8"/>
      </g>
     </g>
    </g>
    <g id="xtick_3">
     <g id="line2d_4">
      <g>
       <use xlink:href="#mcd435cd8ea" x="274.820464" y="210.297001" style="stroke: #000000; stroke-width: 0.8"/>
      </g>
     </g>
    </g>
    <g id="xtick_4">
     <g id="line2d_5">
      <g>
       <use xlink:href="#mcd435cd8ea" x="372.588949" y="210.297001" style="stroke: #000000; stroke-width: 0.8"/>
      </g>
     </g>
    </g>
    <g id="xtick_5">
     <g id="line2d_6">
      <g>
       <use xlink:href="#mcd435cd8ea" x="470.357434" y="210.297001" style="stroke: #000000; stroke-width: 0.8"/>
      </g>
     </g>
    </g>
    <g id="xtick_6">
     <g id="line2d_7">
      <g>
       <use xlink:href="#mcd435cd8ea" x="568.125919" y="210.297001" style="stroke: #000000; stroke-width: 0.8"/>
      </g>
     </g>
    </g>
    <g id="xtick_7">
     <g id="line2d_8">
      <g>
       <use xlink:href="#mcd435cd8ea" x="665.894403" y="210.297001" style="stroke: #000000; stroke-width: 0.8"/>
      </g>
     </g>
    </g>
    <g id="xtick_8">
     <g id="line2d_9">
      <g>
       <use xlink:href="#mcd435cd8ea" x="763.662888" y="210.297001" style="stroke: #000000; stroke-width: 0.8"/>
      </g>
     </g>
    </g>
   </g>
   <g id="matplotlib.axis_2">
    <g id="ytick_1">
     <g id="line2d_10">
      <defs>
       <path id="m1cfa0ebe85" d="M 0 0 
L -3.5 0 
" style="stroke: #000000; stroke-width: 0.8"/>
      </defs>
      <g>
       <use xlink:href="#m1cfa0ebe85" x="42.620313" y="199.313442" style="stroke: #000000; stroke-width: 0.8"/>
      </g>
     </g>
     <g id="text_1">
      <!-- −2 -->
      <g transform="translate(20.878125 203.112661) scale(0.1 -0.1)">
       <defs>
        <path id="DejaVuSans-2212" d="M 678 2272 
L 4684 2272 
L 4684 1741 
L 678 1741 
L 678 2272 
z
" transform="scale(0.015625)"/>
        <path id="DejaVuSans-32" d="M 1228 531 
L 3431 531 
L 3431 0 
L 469 0 
L 469 531 
Q 828 903 1448 1529 
Q 2069 2156 2228 2338 
Q 2531 2678 2651 2914 
Q 2772 3150 2772 3378 
Q 2772 3750 2511 3984 
Q 2250 4219 1831 4219 
Q 1534 4219 1204 4116 
Q 875 4013 500 3803 
L 500 4441 
Q 881 4594 1212 4672 
Q 1544 4750 1819 4750 
Q 2544 4750 2975 4387 
Q 3406 4025 3406 3419 
Q 3406 3131 3298 2873 
Q 3191 2616 2906 2266 
Q 2828 2175 2409 1742 
Q 1991 1309 1228 531 
z
" transform="scale(0.015625)"/>
       </defs>
       <use xlink:href="#DejaVuSans-2212"/>
       <use xlink:href="#DejaVuSans-32" transform="translate(83.789062 0)"/>
      </g>
     </g>
    </g>
    <g id="ytick_2">
     <g id="line2d_11">
      <g>
       <use xlink:href="#m1cfa0ebe85" x="42.620313" y="160.410801" style="stroke: #000000; stroke-width: 0.8"/>
      </g>
     </g>
     <g id="text_2">
      <!-- −1 -->
      <g transform="translate(20.878125 164.21002) scale(0.1 -0.1)">
       <defs>
        <path id="DejaVuSans-31" d="M 794 531 
L 1825 531 
L 1825 4091 
L 703 3866 
L 703 4441 
L 1819 4666 
L 2450 4666 
L 2450 531 
L 3481 531 
L 3481 0 
L 794 0 
L 794 531 
z
" transform="scale(0.015625)"/>
       </defs>
       <use xlink:href="#DejaVuSans-2212"/>
       <use xlink:href="#DejaVuSans-31" transform="translate(83.789062 0)"/>
      </g>
     </g>
    </g>
    <g id="ytick_3">
     <g id="line2d_12">
      <g>
       <use xlink:href="#m1cfa0ebe85" x="42.620313" y="121.50816" style="stroke: #000000; stroke-width: 0.8"/>
      </g>
     </g>
     <g id="text_3">
      <!-- 0 -->
      <g transform="translate(29.257813 125.307378) scale(0.1 -0.1)">
       <defs>
        <path id="DejaVuSans-30" d="M 2034 4250 
Q 1547 4250 1301 3770 
Q 1056 3291 1056 2328 
Q 1056 1369 1301 889 
Q 1547 409 2034 409 
Q 2525 409 2770 889 
Q 3016 1369 3016 2328 
Q 3016 3291 2770 3770 
Q 2525 4250 2034 4250 
z
M 2034 4750 
Q 2819 4750 3233 4129 
Q 3647 3509 3647 2328 
Q 3647 1150 3233 529 
Q 2819 -91 2034 -91 
Q 1250 -91 836 529 
Q 422 1150 422 2328 
Q 422 3509 836 4129 
Q 1250 4750 2034 4750 
z
" transform="scale(0.015625)"/>
       </defs>
       <use xlink:href="#DejaVuSans-30"/>
      </g>
     </g>
    </g>
    <g id="ytick_4">
     <g id="line2d_13">
      <g>
       <use xlink:href="#m1cfa0ebe85" x="42.620313" y="82.605518" style="stroke: #000000; stroke-width: 0.8"/>
      </g>
     </g>
     <g id="text_4">
      <!-- 1 -->
      <g transform="translate(29.257813 86.404737) scale(0.1 -0.1)">
       <use xlink:href="#DejaVuSans-31"/>
      </g>
     </g>
    </g>
    <g id="ytick_5">
     <g id="line2d_14">
      <g>
       <use xlink:href="#m1cfa0ebe85" x="42.620313" y="43.702877" style="stroke: #000000; stroke-width: 0.8"/>
      </g>
     </g>
     <g id="text_5">
      <!-- 2 -->
      <g transform="translate(29.257813 47.502096) scale(0.1 -0.1)">
       <use xlink:href="#DejaVuSans-32"/>
      </g>
     </g>
    </g>
    <g id="text_6">
     <!-- $dx0/dt$ -->
     <g transform="translate(14.798438 142.625502) rotate(-90) scale(0.1 -0.1)">
      <defs>
       <path id="DejaVuSans-Oblique-64" d="M 2675 525 
Q 2444 222 2128 65 
Q 1813 -91 1428 -91 
Q 903 -91 598 267 
Q 294 625 294 1247 
Q 294 1766 478 2236 
Q 663 2706 1013 3078 
Q 1244 3325 1534 3454 
Q 1825 3584 2144 3584 
Q 2481 3584 2739 3421 
Q 2997 3259 3138 2956 
L 3513 4863 
L 4091 4863 
L 3144 0 
L 2566 0 
L 2675 525 
z
M 891 1350 
Q 891 897 1095 644 
Q 1300 391 1663 391 
Q 1931 391 2161 520 
Q 2391 650 2566 903 
Q 2750 1166 2856 1509 
Q 2963 1853 2963 2188 
Q 2963 2622 2758 2865 
Q 2553 3109 2194 3109 
Q 1922 3109 1687 2981 
Q 1453 2853 1288 2613 
Q 1106 2353 998 2009 
Q 891 1666 891 1350 
z
" transform="scale(0.015625)"/>
       <path id="DejaVuSans-Oblique-78" d="M 3841 3500 
L 2234 1784 
L 3219 0 
L 2559 0 
L 1819 1388 
L 531 0 
L -166 0 
L 1556 1844 
L 641 3500 
L 1300 3500 
L 1972 2234 
L 3144 3500 
L 3841 3500 
z
" transform="scale(0.015625)"/>
       <path id="DejaVuSans-2f" d="M 1625 4666 
L 2156 4666 
L 531 -594 
L 0 -594 
L 1625 4666 
z
" transform="scale(0.015625)"/>
       <path id="DejaVuSans-Oblique-74" d="M 2706 3500 
L 2619 3053 
L 1472 3053 
L 1100 1153 
Q 1081 1047 1072 975 
Q 1063 903 1063 863 
Q 1063 663 1183 572 
Q 1303 481 1569 481 
L 2150 481 
L 2053 0 
L 1503 0 
Q 991 0 739 200 
Q 488 400 488 806 
Q 488 878 497 964 
Q 506 1050 525 1153 
L 897 3053 
L 409 3053 
L 500 3500 
L 978 3500 
L 1172 4494 
L 1747 4494 
L 1556 3500 
L 2706 3500 
z
" transform="scale(0.015625)"/>
      </defs>
      <use xlink:href="#DejaVuSans-Oblique-64" transform="translate(0 0.015625)"/>
      <use xlink:href="#DejaVuSans-Oblique-78" transform="translate(63.476562 0.015625)"/>
      <use xlink:href="#DejaVuSans-30" transform="translate(122.65625 0.015625)"/>
      <use xlink:href="#DejaVuSans-2f" transform="translate(186.279297 0.015625)"/>
      <use xlink:href="#DejaVuSans-Oblique-64" transform="translate(219.970703 0.015625)"/>
      <use xlink:href="#DejaVuSans-Oblique-74" transform="translate(283.447266 0.015625)"/>
     </g>
    </g>
   </g>
   <g id="line2d_15">
    <path d="M 79.283494 113.72763 
L 87.008235 138.166345 
L 91.115059 150.342875 
L 94.43963 160.359921 
L 95.808572 164.34903 
L 96.395261 165.430346 
L 96.786387 165.729889 
L 97.079731 165.723542 
L 97.861984 165.53722 
L 98.057547 165.785648 
L 98.350891 166.666061 
L 98.742017 168.831789 
L 99.328706 172.147594 
L 99.524269 172.403667 
L 99.719832 172.052516 
L 100.20874 170.374121 
L 100.306522 170.389775 
L 100.502085 171.14585 
L 101.186555 175.599327 
L 101.382118 174.735345 
L 101.675463 173.057101 
L 101.773244 173.071649 
L 101.968808 174.398499 
L 102.359934 177.778213 
L 102.457715 177.579225 
L 102.848841 174.896648 
L 102.946623 175.184995 
L 103.43553 179.338817 
L 103.826656 176.37655 
L 103.924438 176.888332 
L 104.315564 180.700192 
L 104.70669 177.643474 
L 104.902253 179.900794 
L 105.097816 181.865419 
L 105.195598 181.390469 
L 105.488942 178.655996 
L 105.684505 180.93347 
L 105.880068 182.83287 
L 106.075631 180.822434 
L 106.271194 179.682913 
L 106.564539 183.547031 
L 106.662321 183.523048 
L 106.955665 180.36657 
L 107.053447 180.945585 
L 107.346791 184.462201 
L 107.542354 182.341515 
L 107.640136 181.251824 
L 107.737917 181.274113 
L 108.031262 185.080806 
L 108.129043 184.9163 
L 108.422388 181.771421 
L 108.52017 182.350326 
L 108.813514 185.809518 
L 108.911296 185.262367 
L 109.20464 182.403199 
L 109.400203 184.495022 
L 109.595766 186.400257 
L 109.693548 185.977853 
L 109.986892 182.985538 
L 110.084674 183.235144 
L 110.4758 186.951431 
L 110.573581 186.50184 
L 110.964708 183.52744 
L 111.160271 185.023966 
L 111.453615 187.444026 
L 111.551397 187.348174 
L 111.844741 185.11407 
L 112.040304 184.045636 
L 112.138086 184.036587 
L 112.333649 184.957832 
L 112.822556 187.858673 
L 112.920338 187.955096 
L 113.115901 187.649156 
L 114.093716 184.75724 
L 114.484842 184.548276 
L 114.97375 184.585246 
L 115.267095 184.798507 
L 115.560439 185.333204 
L 115.951565 186.680569 
L 116.342691 187.912289 
L 116.440473 187.947934 
L 116.636036 187.460967 
L 117.222725 184.01424 
L 117.320507 184.07592 
L 117.51607 185.197534 
L 117.809414 187.363923 
L 117.907196 187.439217 
L 118.102759 186.136934 
L 118.396103 183.545997 
L 118.493885 183.614661 
L 118.885011 186.92191 
L 118.982792 186.757081 
L 119.373918 182.965529 
L 119.4717 183.311051 
L 119.765045 186.332552 
L 119.862826 186.214499 
L 120.253952 182.423448 
L 120.449515 184.454005 
L 120.645078 185.759472 
L 120.840641 183.450544 
L 121.036204 181.78716 
L 121.231767 183.837956 
L 121.42733 185.082345 
L 121.818457 181.171117 
L 122.111801 184.381895 
L 122.209583 184.231377 
L 122.502927 180.465984 
L 122.600709 180.571573 
L 122.894053 183.685522 
L 122.991835 183.259826 
L 123.285179 179.587845 
L 123.382961 179.86072 
L 123.676305 182.835642 
L 123.774087 182.35557 
L 124.067432 178.704754 
L 124.165213 178.849294 
L 124.458558 181.814426 
L 124.556339 181.63814 
L 124.947465 177.596235 
L 125.143028 179.158993 
L 125.338591 180.738447 
L 125.436373 180.435406 
L 125.827499 176.388219 
L 125.92528 176.603547 
L 126.316407 179.40999 
L 126.414188 178.958392 
L 126.903096 174.933332 
L 127.098659 176.162105 
L 127.392003 177.7799 
L 127.489785 177.473584 
L 128.076474 173.009448 
L 128.174256 173.194652 
L 128.663163 175.616732 
L 128.760945 175.543463 
L 128.956508 174.550005 
L 129.543197 170.473485 
L 129.640978 170.354105 
L 129.73876 170.429358 
L 130.032104 171.377416 
L 130.325449 172.296278 
L 130.521012 172.371555 
L 130.716575 171.914752 
L 131.107701 169.869832 
L 131.69439 166.680675 
L 132.085516 165.677668 
L 132.378861 165.482869 
L 132.769987 165.596024 
L 133.258895 165.748863 
L 133.552239 165.662884 
L 133.943365 165.277904 
L 134.432273 164.41216 
L 135.214525 162.469342 
L 141.374761 145.839269 
L 146.752745 131.468414 
L 155.944208 106.784623 
L 159.659906 97.532208 
L 165.037889 84.897001 
L 167.580209 79.12882 
L 168.362461 77.896361 
L 168.94915 77.384432 
L 169.438058 77.267774 
L 170.024747 77.406479 
L 170.611436 77.533014 
L 170.904781 77.430875 
L 171.198125 77.126504 
L 171.589251 76.325462 
L 172.078159 74.701643 
L 173.055974 71.145782 
L 173.349319 70.67378 
L 173.544882 70.614568 
L 173.740445 70.753573 
L 174.131571 71.470525 
L 174.71826 72.586217 
L 174.913823 72.659365 
L 175.109386 72.494677 
L 175.402731 71.79228 
L 175.98942 69.367411 
L 176.478328 67.70799 
L 176.771672 67.389398 
L 176.967235 67.496746 
L 177.26058 68.039249 
L 178.042832 69.863157 
L 178.336176 69.996856 
L 178.53174 69.831405 
L 178.825084 69.24655 
L 180.291807 65.429685 
L 180.585152 65.245065 
L 180.878496 65.269281 
L 181.367404 65.605285 
L 182.736345 66.724248 
L 183.323034 66.888637 
L 183.909723 66.826322 
L 184.496412 66.537832 
L 185.278665 65.861013 
L 185.963135 65.303359 
L 186.354261 65.24923 
L 186.647606 65.443378 
L 187.038732 66.08574 
L 187.52764 67.438323 
L 188.309892 69.659193 
L 188.603236 69.991391 
L 188.798799 69.970418 
L 189.092144 69.586909 
L 190.167741 67.392981 
L 190.363304 67.471558 
L 190.656648 68.049856 
L 191.145556 69.908734 
L 191.732245 72.103869 
L 192.02559 72.60676 
L 192.221153 72.653502 
L 192.416716 72.492202 
L 192.807842 71.760089 
L 193.394531 70.70276 
L 193.590094 70.609921 
L 193.785657 70.703524 
L 194.079002 71.194144 
L 194.567909 72.735069 
L 195.643506 76.44642 
L 196.132414 77.279134 
L 196.52354 77.517789 
L 197.012447 77.480935 
L 197.990262 77.271164 
L 198.47917 77.431438 
L 198.968078 77.840008 
L 199.554767 78.622642 
L 200.434801 80.214187 
L 202.292649 84.199242 
L 206.986163 94.212792 
L 211.581894 104.220672 
L 217.351004 117.415872 
L 224.097929 132.728809 
L 227.813627 140.612846 
L 231.040417 146.942791 
L 234.364989 152.959299 
L 238.374031 159.738214 
L 240.329662 162.698093 
L 241.600821 164.238425 
L 242.578637 165.083742 
L 243.45867 165.544892 
L 244.338704 165.735104 
L 245.414301 165.701703 
L 248.054402 165.493969 
L 249.521125 165.687852 
L 251.867881 166.010643 
L 253.236823 165.950912 
L 257.53921 165.517029 
L 260.472655 165.695604 
L 261.352689 165.431331 
L 262.232723 164.910005 
L 263.210538 164.034632 
L 264.383916 162.648984 
L 266.046202 160.296152 
L 269.370774 155.110298 
L 273.868724 147.726437 
L 277.48664 141.353184 
L 281.789027 133.288931 
L 295.282877 107.613313 
L 298.607449 101.968398 
L 301.540895 97.412 
L 304.278777 93.55823 
L 306.918878 90.213745 
L 309.363416 87.455425 
L 311.612392 85.242678 
L 313.568022 83.625998 
L 315.328089 82.463715 
L 316.892594 81.690056 
L 318.457098 81.170498 
L 319.923821 80.913 
L 321.390544 80.873039 
L 322.857267 81.047206 
L 324.323989 81.435267 
L 325.888494 82.084126 
L 327.55078 83.029992 
L 329.310847 84.294313 
L 331.364259 86.059703 
L 333.711016 88.385435 
L 336.351117 91.321765 
L 339.186781 94.809557 
L 342.218008 98.893573 
L 345.640361 103.894028 
L 349.747185 110.321581 
L 358.743085 124.987435 
L 363.338817 132.174395 
L 366.858952 137.274889 
L 369.890179 141.282839 
L 372.628061 144.535829 
L 375.170381 147.209022 
L 377.517138 149.357667 
L 379.668331 151.041823 
L 381.721743 152.379185 
L 383.677374 153.392385 
L 385.535222 154.106521 
L 387.29529 154.550098 
L 389.055357 154.759821 
L 390.717643 154.740613 
L 392.477711 154.492146 
L 394.237778 154.015652 
L 396.095627 153.277154 
L 398.051257 152.255533 
L 400.104669 150.934623 
L 402.353644 149.222257 
L 404.798182 147.076672 
L 407.438283 144.461624 
L 410.371729 141.228482 
L 413.696301 137.211712 
L 417.705343 131.991595 
L 424.061142 123.282133 
L 430.514723 114.559498 
L 434.328202 109.765688 
L 437.554992 106.053047 
L 440.390656 103.113278 
L 443.030758 100.686975 
L 445.475296 98.733514 
L 447.822052 97.142234 
L 449.973246 95.940179 
L 452.026658 95.032832 
L 454.08007 94.36898 
L 456.0357 93.969057 
L 457.991331 93.798805 
L 459.946961 93.858061 
L 461.902591 94.143341 
L 463.858222 94.647972 
L 465.911634 95.40356 
L 468.062827 96.428702 
L 470.311802 97.741343 
L 472.75634 99.428288 
L 475.396441 101.527803 
L 478.232106 104.068405 
L 481.458896 107.264981 
L 485.272375 111.366951 
L 490.748141 117.617828 
L 499.255133 127.328961 
L 503.264175 131.549242 
L 506.588747 134.738601 
L 509.522193 137.259412 
L 512.260075 139.327483 
L 514.802395 140.975766 
L 517.246933 142.293855 
L 519.495908 143.263019 
L 521.744883 143.990458 
L 523.896077 144.455298 
L 526.04727 144.692446 
L 528.198464 144.702945 
L 530.349657 144.490509 
L 532.500851 144.059641 
L 534.749826 143.382683 
L 537.096582 142.439831 
L 539.54112 141.215235 
L 542.181221 139.635221 
L 545.016885 137.669678 
L 548.145894 135.222453 
L 551.76381 132.102715 
L 556.261761 127.914924 
L 570.928989 114.016279 
L 574.546905 111.020204 
L 577.773695 108.63049 
L 580.707141 106.733383 
L 583.445024 105.227392 
L 585.987343 104.075374 
L 588.431881 103.202731 
L 590.876419 102.567849 
L 593.223176 102.185711 
L 595.569933 102.028449 
L 597.916689 102.096307 
L 600.263446 102.386634 
L 602.707984 102.919632 
L 605.152522 103.678492 
L 607.792623 104.736944 
L 610.530505 106.07531 
L 613.561733 107.810382 
L 616.886304 109.979373 
L 620.699784 112.742946 
L 625.58886 116.581448 
L 639.278273 127.496128 
L 643.189534 130.232491 
L 646.611887 132.357088 
L 649.740896 134.03767 
L 652.674342 135.358816 
L 655.412224 136.352407 
L 658.052325 137.080094 
L 660.594645 137.558385 
L 663.136964 137.813771 
L 665.679284 137.845252 
L 668.221604 137.655411 
L 670.861705 137.230663 
L 673.599587 136.556921 
L 676.435252 135.624952 
L 679.466479 134.38463 
L 682.693269 132.816996 
L 686.311185 130.801171 
L 690.515791 128.19102 
L 696.382682 124.257537 
L 706.55196 117.419414 
L 710.952129 114.755812 
L 714.667827 112.758309 
L 717.992399 111.212843 
L 721.121407 109.995681 
L 724.054853 109.084698 
L 726.890517 108.429108 
L 729.726181 108.002622 
L 732.464064 107.811241 
L 735.299728 107.839983 
L 738.135392 108.094609 
L 741.068838 108.588462 
L 744.100065 109.332972 
L 747.229074 110.333449 
L 750.651427 111.670039 
L 754.367125 113.365246 
L 758.767293 115.625029 
L 764.731966 118.963033 
L 775.87906 125.234396 
L 780.474791 127.531103 
L 784.386052 129.241714 
L 787.906187 130.543315 
L 791.230759 131.537506 
L 794.359768 132.247728 
L 797.488776 132.729097 
L 800.520003 132.971834 
L 803.551231 132.992491 
L 806.582458 132.793781 
L 809.711467 132.366174 
L 812.547131 131.793959 
L 812.547131 131.793959 
" clip-path="url(#p152a64f2f4)" style="fill: none; stroke-dasharray: 12.95,5.6; stroke-dashoffset: 0; stroke: #0000ff; stroke-opacity: 0.8; stroke-width: 3.5"/>
   </g>
   <g id="patch_3">
    <path d="M 42.620313 210.297001 
L 42.620313 42.654002 
" style="fill: none; stroke: #000000; stroke-width: 0.8; stroke-linejoin: miter; stroke-linecap: square"/>
   </g>
   <g id="patch_4">
    <path d="M 849.210312 210.297001 
L 849.210312 42.654002 
" style="fill: none; stroke: #000000; stroke-width: 0.8; stroke-linejoin: miter; stroke-linecap: square"/>
   </g>
   <g id="patch_5">
    <path d="M 42.620312 210.297001 
L 849.210313 210.297001 
" style="fill: none; stroke: #000000; stroke-width: 0.8; stroke-linejoin: miter; stroke-linecap: square"/>
   </g>
   <g id="patch_6">
    <path d="M 42.620312 42.654002 
L 849.210313 42.654002 
" style="fill: none; stroke: #000000; stroke-width: 0.8; stroke-linejoin: miter; stroke-linecap: square"/>
   </g>
   <g id="line2d_16">
    <path d="M 79.283494 114.178102 
L 80.652436 118.563184 
L 82.314722 123.101048 
L 85.44373 131.487233 
L 87.888268 138.956014 
L 90.137243 145.572271 
L 91.897311 150.046505 
L 95.319664 158.508951 
L 96.786387 162.935839 
L 100.795429 175.530149 
L 101.577681 177.115135 
L 102.262152 178.027705 
L 102.75106 178.376327 
L 103.239967 178.458411 
L 103.728875 178.269355 
L 104.217783 177.811669 
L 104.804472 176.921673 
L 105.488942 175.4511 
L 106.368976 172.980495 
L 107.640136 168.609356 
L 110.769145 157.443786 
L 111.844741 154.555002 
L 112.724775 152.819726 
L 113.409246 151.908843 
L 113.995935 151.449767 
L 114.484842 151.29862 
L 114.97375 151.358568 
L 115.462658 151.627838 
L 116.049347 152.221395 
L 116.733817 153.273338 
L 117.51607 154.920024 
L 118.493885 157.565344 
L 119.765045 161.752269 
L 123.578524 174.95316 
L 124.458558 177.079497 
L 125.24081 178.412489 
L 125.827499 179.027133 
L 126.316407 179.274859 
L 126.805314 179.279723 
L 127.294222 179.045304 
L 127.880911 178.461188 
L 128.565382 177.394969 
L 129.347634 175.738039 
L 130.423231 172.880284 
L 132.378861 166.859703 
L 134.432273 160.771894 
L 136.094559 156.56255 
L 138.441315 151.346386 
L 140.592509 146.354895 
L 142.548139 141.190773 
L 146.948308 129.28235 
L 149.00172 124.580203 
L 152.130728 117.48653 
L 153.695233 113.299398 
L 155.553082 107.64865 
L 158.975435 97.111984 
L 160.344376 93.675775 
L 161.517755 91.283428 
L 162.691133 89.374348 
L 164.060074 87.600808 
L 167.873554 82.993137 
L 169.242495 80.79917 
L 170.806999 77.823634 
L 173.251537 72.57892 
L 175.793857 67.297356 
L 177.358361 64.54941 
L 178.727303 62.586606 
L 179.900681 61.262696 
L 180.976278 60.34832 
L 182.051874 59.72224 
L 183.02969 59.404063 
L 184.007505 59.326619 
L 184.98532 59.493083 
L 185.963135 59.907831 
L 186.94095 60.575323 
L 188.016547 61.6046 
L 189.189925 63.076829 
L 190.461085 65.062722 
L 191.927808 67.793664 
L 193.98122 72.151968 
L 197.305792 79.236229 
L 198.870296 82.037977 
L 200.337019 84.216446 
L 201.901523 86.142402 
L 205.51944 90.414186 
L 206.7906 92.394285 
L 208.061759 94.809122 
L 209.430701 97.902462 
L 211.190768 102.462013 
L 215.590937 114.125673 
L 217.351004 118.035579 
L 219.404416 122.025943 
L 223.609021 130.029327 
L 226.053559 135.321556 
L 230.258165 144.500838 
L 232.213795 148.191844 
L 234.169426 151.421704 
L 236.711745 155.164194 
L 241.796385 162.174325 
L 244.240923 165.239634 
L 246.00099 167.120855 
L 247.565494 168.473155 
L 248.934436 169.369787 
L 250.205595 169.944845 
L 251.378974 170.248251 
L 252.552352 170.330799 
L 253.72573 170.192971 
L 254.899109 169.83797 
L 256.170268 169.215876 
L 257.53921 168.285366 
L 259.005932 167.018399 
L 260.766 165.193773 
L 263.112756 162.404275 
L 267.415143 156.858642 
L 270.837497 152.172323 
L 272.98869 148.847113 
L 275.042102 145.246053 
L 277.48664 140.45554 
L 282.766842 129.925561 
L 285.113599 125.870031 
L 291.860524 114.645428 
L 294.207281 109.987232 
L 299.487483 99.323143 
L 301.24755 96.373441 
L 302.812054 94.162069 
L 304.376559 92.332162 
L 305.941063 90.836643 
L 307.701131 89.468583 
L 309.754543 88.166151 
L 312.199081 86.880791 
L 314.7414 85.78266 
L 316.990375 85.047473 
L 318.946006 84.640245 
L 320.803855 84.487326 
L 322.563922 84.563713 
L 324.421771 84.869432 
L 326.475183 85.445224 
L 328.821939 86.348693 
L 331.462041 87.611728 
L 333.906579 89.023396 
L 335.862209 90.395543 
L 337.622276 91.900858 
L 339.284562 93.627888 
L 340.946848 95.697856 
L 342.706916 98.272781 
L 344.760328 101.709613 
L 347.987118 107.642626 
L 351.31169 113.606265 
L 353.658446 117.35303 
L 356.200766 120.970361 
L 363.632161 131.234469 
L 372.236935 143.938714 
L 374.388129 146.527217 
L 376.441541 148.651722 
L 378.397171 150.365461 
L 380.352802 151.793194 
L 382.308432 152.94995 
L 384.264063 153.844553 
L 386.121912 154.454094 
L 387.97976 154.827903 
L 389.739828 154.962127 
L 391.499895 154.881704 
L 393.259963 154.588219 
L 395.117812 154.050912 
L 396.975661 153.283969 
L 398.931291 152.230812 
L 400.886921 150.923432 
L 402.842552 149.355633 
L 404.895964 147.422686 
L 407.047157 145.085295 
L 409.393914 142.196385 
L 412.425141 138.078979 
L 419.074285 128.936945 
L 422.203293 125.115833 
L 431.101412 114.548802 
L 435.306017 108.887313 
L 439.217278 103.748018 
L 441.661816 100.90801 
L 443.81301 98.753596 
L 445.76864 97.101581 
L 447.724271 95.739683 
L 449.679901 94.650717 
L 451.635532 93.813454 
L 453.688944 93.181991 
L 455.742355 92.784114 
L 457.795767 92.605639 
L 459.946961 92.645923 
L 462.098154 92.917757 
L 464.151566 93.398694 
L 466.204978 94.10658 
L 468.25839 95.055665 
L 470.214021 96.200755 
L 472.267433 97.670646 
L 474.320845 99.418866 
L 476.56982 101.637654 
L 479.112139 104.468919 
L 482.925619 109.095507 
L 487.814695 114.960721 
L 491.041485 118.461658 
L 494.757183 122.13868 
L 504.730898 131.841146 
L 509.815537 136.774206 
L 512.748983 139.302778 
L 515.193521 141.123423 
L 517.442496 142.526981 
L 519.59369 143.607682 
L 521.647102 144.393169 
L 523.700514 144.936367 
L 525.656144 145.22921 
L 527.611774 145.305064 
L 529.567405 145.166691 
L 531.620817 144.793168 
L 533.674229 144.188207 
L 535.727641 143.355928 
L 537.878834 142.247877 
L 540.225591 140.779461 
L 542.76791 138.915669 
L 545.799138 136.398174 
L 550.394869 132.245374 
L 556.750668 126.56465 
L 562.128652 122.106367 
L 569.364485 116.077762 
L 579.142637 107.783742 
L 581.978301 105.746695 
L 584.52062 104.192308 
L 586.867377 103.016983 
L 589.116352 102.137826 
L 591.267546 101.527388 
L 593.418739 101.141943 
L 595.569933 100.980578 
L 597.721126 101.042057 
L 599.872319 101.324713 
L 602.023513 101.826181 
L 604.272488 102.579988 
L 606.619245 103.607671 
L 609.063783 104.9221 
L 611.801665 106.652445 
L 615.028455 108.96402 
L 620.015313 112.854425 
L 626.664457 117.983745 
L 631.651314 121.525013 
L 639.669399 126.891771 
L 646.12298 131.012373 
L 649.838677 133.136021 
L 652.869905 134.62706 
L 655.607787 135.734584 
L 658.150107 136.529558 
L 660.594645 137.062837 
L 662.941401 137.351581 
L 665.288158 137.417766 
L 667.634915 137.262575 
L 670.079453 136.872079 
L 672.621772 136.231739 
L 675.261873 135.336318 
L 678.195319 134.099111 
L 681.519891 132.448313 
L 685.822278 130.04926 
L 715.450079 112.991228 
L 719.165777 111.206363 
L 722.294786 109.940854 
L 725.13045 109.027144 
L 727.770551 108.400385 
L 730.410652 108.003356 
L 732.952971 107.843801 
L 735.495291 107.902353 
L 738.135392 108.18856 
L 740.873275 108.718215 
L 743.708939 109.499109 
L 746.740166 110.565908 
L 750.260301 112.051294 
L 754.660469 114.165062 
L 775.390152 124.449305 
L 781.550388 127.147244 
L 786.14612 128.930406 
L 789.959599 130.174811 
L 793.284171 131.03323 
L 796.413179 131.616841 
L 799.444407 131.956327 
L 802.377852 132.063472 
L 805.311298 131.951685 
L 808.342525 131.613581 
L 811.569315 131.023247 
L 812.547131 130.801564 
L 812.547131 130.801564 
" clip-path="url(#p152a64f2f4)" style="fill: none; stroke-dasharray: 22.4,5.6,3.5,5.6; stroke-dashoffset: 0; stroke: #008000; stroke-opacity: 0.8; stroke-width: 3.5"/>
   </g>
   <g id="line2d_17">
    <path d="M 79.283494 113.757912 
L 87.008235 138.100617 
L 90.626151 148.736076 
L 93.559597 156.710134 
L 96.199698 163.259736 
L 98.546454 168.50477 
L 100.697648 172.783038 
L 102.653278 176.195287 
L 104.511127 178.991288 
L 106.173413 181.110129 
L 107.737917 182.76515 
L 109.20464 184.013032 
L 110.573581 184.910169 
L 111.942523 185.548266 
L 113.213683 185.909434 
L 114.484842 186.049474 
L 115.756002 185.971044 
L 117.027162 185.67729 
L 118.396103 185.122778 
L 119.765045 184.325544 
L 121.231767 183.207891 
L 122.796272 181.723363 
L 124.458558 179.826413 
L 126.218625 177.473778 
L 128.174256 174.466313 
L 130.227667 170.892169 
L 132.476642 166.530016 
L 135.018962 161.099171 
L 137.952408 154.278439 
L 141.374761 145.717727 
L 145.872711 133.809166 
L 156.628679 105.097822 
L 160.051032 96.724954 
L 162.984477 90.11774 
L 165.526797 84.920042 
L 167.873554 80.622432 
L 170.024747 77.146037 
L 171.980378 74.395993 
L 173.838226 72.162485 
L 175.598294 70.398365 
L 177.26058 69.053512 
L 178.825084 68.076566 
L 180.291807 67.416438 
L 181.75853 67.004936 
L 183.127471 66.845265 
L 184.496412 66.901399 
L 185.865354 67.171609 
L 187.332077 67.695701 
L 188.798799 68.458215 
L 190.363304 69.528157 
L 192.02559 70.946261 
L 193.785657 72.750991 
L 195.643506 74.976817 
L 197.696918 77.794344 
L 199.945893 81.272372 
L 202.390431 85.477013 
L 205.128314 90.647718 
L 208.257322 97.050421 
L 212.070802 105.38202 
L 218.426601 119.904242 
L 224.391274 133.324702 
L 228.00919 140.931457 
L 231.040417 146.80395 
L 233.680518 151.456275 
L 236.125056 155.32228 
L 238.374031 158.464796 
L 240.427443 160.96095 
L 242.383074 162.990722 
L 244.240923 164.592979 
L 246.00099 165.808569 
L 247.663276 166.680912 
L 249.22778 167.25437 
L 250.792285 167.586662 
L 252.259007 167.679533 
L 253.72573 167.562386 
L 255.290235 167.209038 
L 256.854739 166.624616 
L 258.517025 165.757511 
L 260.277092 164.573242 
L 262.134941 163.039673 
L 264.090572 161.122979 
L 266.143984 158.795818 
L 268.392959 155.904255 
L 270.837497 152.392437 
L 273.575379 148.058884 
L 276.704388 142.67634 
L 280.615649 135.473532 
L 286.971448 123.216199 
L 292.936121 111.88885 
L 296.651819 105.296724 
L 299.780827 100.186475 
L 302.51871 96.131069 
L 304.963248 92.889085 
L 307.212223 90.254686 
L 309.363416 88.073009 
L 311.319047 86.393067 
L 313.176896 85.075309 
L 314.936963 84.083364 
L 316.697031 83.344812 
L 318.359317 82.881541 
L 320.021602 82.645628 
L 321.683888 82.635233 
L 323.346174 82.847069 
L 325.00846 83.278084 
L 326.768527 83.968788 
L 328.528595 84.894285 
L 330.386444 86.117396 
L 332.342074 87.666448 
L 334.493268 89.663164 
L 336.742243 92.055113 
L 339.284562 95.097872 
L 342.120226 98.859735 
L 345.347017 103.52302 
L 349.258278 109.584862 
L 355.907421 120.38229 
L 361.872094 129.90106 
L 365.587792 135.42807 
L 368.716801 139.705678 
L 371.454683 143.093364 
L 373.997003 145.894497 
L 376.343759 148.154815 
L 378.494953 149.932753 
L 380.548365 151.354572 
L 382.503995 152.450316 
L 384.459626 153.288502 
L 386.317475 153.843537 
L 388.175324 154.161713 
L 389.935391 154.243944 
L 391.695458 154.113767 
L 393.553307 153.748534 
L 395.411156 153.153804 
L 397.366787 152.286871 
L 399.420199 151.121092 
L 401.571392 149.633958 
L 403.820367 147.80887 
L 406.264905 145.54121 
L 409.002788 142.686454 
L 412.034015 139.191386 
L 415.55415 134.782837 
L 420.149881 128.647485 
L 431.688101 113.077992 
L 435.306017 108.65355 
L 438.435026 105.170644 
L 441.172909 102.43931 
L 443.715228 100.20241 
L 446.159766 98.348512 
L 448.408741 96.916641 
L 450.559935 95.803223 
L 452.613347 94.982937 
L 454.666759 94.405333 
L 456.622389 94.083725 
L 458.57802 93.985578 
L 460.53365 94.109281 
L 462.489281 94.451103 
L 464.542693 95.038338 
L 466.693886 95.894371 
L 468.942861 97.039078 
L 471.289618 98.491867 
L 473.831937 100.34125 
L 476.56982 102.622147 
L 479.601047 105.451842 
L 483.0234 108.960924 
L 487.325787 113.708086 
L 502.384142 130.618455 
L 505.806495 133.968955 
L 508.837722 136.638828 
L 511.673386 138.839923 
L 514.215706 140.542389 
L 516.660244 141.91668 
L 519.007 142.979616 
L 521.255975 143.753687 
L 523.407169 144.265267 
L 525.558362 144.551221 
L 527.709556 144.612332 
L 529.860749 144.451887 
L 532.011943 144.073963 
L 534.260918 143.452226 
L 536.607675 142.565607 
L 539.052213 141.396844 
L 541.594532 139.933909 
L 544.332415 138.101993 
L 547.363642 135.802657 
L 550.883777 132.841557 
L 555.088382 129.002285 
L 562.324215 122.029445 
L 568.582232 116.125232 
L 572.591275 112.637513 
L 576.013628 109.942657 
L 579.044855 107.827733 
L 581.880519 106.115947 
L 584.52062 104.776574 
L 587.06294 103.733623 
L 589.507478 102.968658 
L 591.854235 102.458973 
L 594.200991 102.171891 
L 596.547748 102.108917 
L 598.894504 102.269068 
L 601.241261 102.648581 
L 603.685799 103.27008 
L 606.228118 104.149939 
L 608.86822 105.298943 
L 611.703884 106.775218 
L 614.832892 108.659653 
L 618.353027 111.052561 
L 622.459851 114.123763 
L 628.326743 118.820378 
L 637.322643 126.010977 
L 641.527248 129.076072 
L 645.145164 131.442005 
L 648.371955 133.289272 
L 651.3054 134.722594 
L 654.141064 135.864284 
L 656.878947 136.725426 
L 659.519048 137.320688 
L 662.061368 137.669221 
L 664.603687 137.794781 
L 667.146007 137.698447 
L 669.688326 137.384838 
L 672.328428 136.837983 
L 675.06631 136.046637 
L 677.999756 134.962023 
L 681.128765 133.559626 
L 684.551118 131.77253 
L 688.462379 129.464901 
L 693.253673 126.364141 
L 709.485406 115.634902 
L 713.396667 113.443339 
L 716.916802 111.724081 
L 720.143592 110.393197 
L 723.174819 109.381084 
L 726.108265 108.6377 
L 728.943929 108.149445 
L 731.779593 107.892133 
L 734.615257 107.865594 
L 737.450921 108.06543 
L 740.286586 108.4854 
L 743.220031 109.141574 
L 746.34904 110.074194 
L 749.673612 111.304152 
L 753.291528 112.885124 
L 757.496134 114.974711 
L 762.776336 117.861057 
L 777.541346 126.077892 
L 781.843733 128.132723 
L 785.559431 129.670522 
L 788.981784 130.8545 
L 792.208574 131.743535 
L 795.337583 132.380565 
L 798.466591 132.787551 
L 801.497819 132.957954 
L 804.529046 132.907535 
L 807.658055 132.628281 
L 810.884845 132.108547 
L 812.547131 131.753916 
L 812.547131 131.753916 
" clip-path="url(#p152a64f2f4)" style="fill: none; stroke-dasharray: 3.5,5.775; stroke-dashoffset: 0; stroke: #ff0000; stroke-opacity: 0.8; stroke-width: 3.5"/>
   </g>
  </g>
  <g id="axes_2">
   <g id="patch_7">
    <path d="M 42.620313 392.24 
L 849.210312 392.24 
L 849.210312 224.597001 
L 42.620313 224.597001 
z
" style="fill: #ffffff"/>
   </g>
   <g id="line2d_18">
    <path d="M 79.283494 368.257633 
L 80.652436 368.262451 
L 81.923595 368.042846 
L 83.292537 367.577671 
L 84.563697 366.910921 
L 85.932638 365.942877 
L 87.399361 364.626509 
L 88.963865 362.914473 
L 90.626151 360.759742 
L 92.386218 358.116274 
L 94.341849 354.761911 
L 96.493042 350.596999 
L 98.742017 345.80385 
L 101.284337 339.818073 
L 104.315564 332.06937 
L 108.324606 321.15739 
L 118.102759 294.29865 
L 121.916238 284.564016 
L 125.143028 276.915457 
L 127.978692 270.758469 
L 130.521012 265.769941 
L 132.769987 261.833611 
L 134.823399 258.67277 
L 136.681248 256.200699 
L 139.028004 253.498571 
L 140.788072 251.832016 
L 142.450358 250.569303 
L 144.014862 249.658189 
L 145.481585 249.049173 
L 146.948308 248.678258 
L 148.415031 248.546283 
L 149.783972 248.639421 
L 151.152913 248.942111 
L 152.619636 249.499734 
L 154.086359 250.299534 
L 155.650863 251.420529 
L 157.215368 252.819036 
L 159.170998 254.900929 
L 160.931066 257.105278 
L 162.886696 259.93594 
L 165.037889 263.464735 
L 167.482428 267.933511 
L 170.22031 273.420369 
L 173.544882 280.606588 
L 178.140613 291.121474 
L 189.287707 316.739297 
L 192.612279 323.702452 
L 195.447943 329.140733 
L 197.892481 333.365114 
L 200.434801 337.293515 
L 202.683776 340.422232 
L 204.834969 343.032455 
L 206.7906 345.0691 
L 208.648448 346.697516 
L 210.408516 347.956657 
L 212.070802 348.88558 
L 213.733088 349.555194 
L 215.297592 349.94285 
L 216.764315 350.08784 
L 218.231038 350.016975 
L 219.991105 349.686756 
L 221.457828 349.195163 
L 223.022332 348.424675 
L 224.684618 347.341037 
L 226.444686 345.912037 
L 228.302534 344.108261 
L 230.355946 341.785875 
L 232.50714 339.011823 
L 234.853896 335.624302 
L 237.493998 331.412672 
L 240.525225 326.132551 
L 243.947578 319.776332 
L 248.836654 310.169558 
L 256.170268 295.783842 
L 259.592622 289.56718 
L 263.014975 283.845984 
L 265.850639 279.505421 
L 268.49074 275.865681 
L 270.935278 272.87683 
L 273.184253 270.479268 
L 275.237665 268.606806 
L 277.193296 267.122479 
L 279.051145 265.997778 
L 280.71343 265.238938 
L 282.766842 264.568973 
L 284.331347 264.286017 
L 285.895851 264.215485 
L 287.558137 264.367175 
L 289.220423 264.745926 
L 290.98049 265.387149 
L 292.740558 266.267777 
L 294.598407 267.448441 
L 296.554037 268.95996 
L 298.607449 270.832168 
L 300.758643 273.093513 
L 303.203181 276.002955 
L 305.647719 279.205889 
L 308.483383 283.29293 
L 312.003518 288.780422 
L 317.28372 297.483341 
L 324.226208 308.858054 
L 328.528595 315.493511 
L 331.950948 320.372035 
L 334.884394 324.17699 
L 337.524495 327.24107 
L 339.871251 329.633876 
L 342.022445 331.520821 
L 344.075857 333.028681 
L 346.129269 334.327318 
L 348.084899 335.293005 
L 349.942748 335.966666 
L 351.800597 336.404086 
L 353.658446 336.606496 
L 355.516295 336.575127 
L 357.374144 336.31121 
L 359.231993 335.815974 
L 361.089842 335.090651 
L 363.045472 334.079935 
L 365.196666 332.6939 
L 367.250078 331.140585 
L 369.499053 329.150705 
L 371.943591 326.686551 
L 374.779255 323.494675 
L 378.006045 319.514944 
L 382.112869 314.076765 
L 389.837609 303.388026 
L 395.508938 295.696569 
L 399.126854 291.145747 
L 402.158081 287.675016 
L 404.798182 284.978387 
L 407.731628 282.332423 
L 410.176166 280.42133 
L 412.425141 278.933876 
L 414.576335 277.761832 
L 416.727528 276.842391 
L 418.78094 276.207112 
L 420.73657 275.8281 
L 422.692201 275.675185 
L 424.647831 275.753871 
L 426.799025 276.077994 
L 428.754655 276.594171 
L 430.808067 277.37925 
L 432.959261 278.450585 
L 435.208236 279.822015 
L 437.652774 281.578493 
L 440.292875 283.754273 
L 443.226321 286.468478 
L 446.550892 289.861709 
L 450.853279 294.602317 
L 456.817952 301.591489 
L 463.173751 308.943125 
L 466.889449 312.901922 
L 470.702928 316.610186 
L 473.734156 319.243333 
L 476.472038 321.339734 
L 479.014358 323.021462 
L 481.458896 324.376544 
L 483.707871 325.379052 
L 485.859064 326.104309 
L 488.010258 326.590554 
L 490.161451 326.888764 
L 492.214863 326.946872 
L 494.366057 326.779214 
L 496.51725 326.387249 
L 498.766225 325.748151 
L 501.112982 324.843145 
L 503.55752 323.655206 
L 506.09984 322.169389 
L 508.837722 320.301796 
L 512.260075 317.659629 
L 515.584647 314.780434 
L 519.789253 310.829806 
L 534.945389 296.309915 
L 538.758868 293.09698 
L 541.985658 290.658928 
L 544.919104 288.718436 
L 547.559205 287.234553 
L 550.003743 286.111541 
L 553.03497 285.006866 
L 555.381727 284.404674 
L 557.728483 284.030449 
L 560.07524 283.88143 
L 562.421996 283.954858 
L 564.768753 284.247971 
L 567.213291 284.783928 
L 569.657829 285.552144 
L 572.395712 286.663518 
L 575.035813 287.965304 
L 577.969258 289.673076 
L 581.196049 291.815631 
L 585.009528 294.622071 
L 590.191949 298.737282 
L 604.076925 309.895412 
L 607.792623 312.507606 
L 610.921632 314.447973 
L 614.148422 316.177725 
L 616.984086 317.466352 
L 619.721969 318.473036 
L 622.36207 319.215023 
L 625.002171 319.724991 
L 627.54449 319.989927 
L 630.08681 320.026346 
L 632.629129 319.834242 
L 635.073668 319.465828 
L 637.615987 318.861555 
L 640.35387 317.98095 
L 643.287315 316.799915 
L 646.514106 315.251892 
L 650.03424 313.311165 
L 654.238846 310.724032 
L 659.030141 307.525795 
L 672.230646 298.566595 
L 676.435252 296.096248 
L 680.053168 294.213626 
L 683.37774 292.729364 
L 686.506748 291.574538 
L 689.440194 290.72741 
L 692.178077 290.160638 
L 694.915959 289.819498 
L 697.55606 289.676685 
L 700.293943 289.754152 
L 703.129607 290.063101 
L 706.063053 290.612889 
L 709.09428 291.410655 
L 712.32107 292.497407 
L 715.743424 293.895017 
L 719.654684 295.732678 
L 724.054853 298.072182 
L 730.801778 301.951363 
L 738.917644 306.557412 
L 743.904502 309.143408 
L 748.011326 311.025851 
L 751.531461 312.403083 
L 754.758251 313.433063 
L 757.88726 314.197782 
L 760.918487 314.739802 
L 763.949714 315.05387 
L 766.980941 315.144494 
L 770.012168 315.016183 
L 773.141177 314.65887 
L 776.270186 314.078034 
L 779.790321 313.183773 
L 783.212674 312.089144 
L 787.123935 310.598068 
L 791.817448 308.558599 
L 798.662155 305.312307 
L 809.32034 300.245589 
L 812.547131 298.869352 
L 812.547131 298.869352 
" clip-path="url(#pce42a251e0)" style="fill: none; stroke: #808080; stroke-opacity: 0.5; stroke-width: 6; stroke-linecap: square"/>
   </g>
   <g id="matplotlib.axis_3">
    <g id="xtick_9">
     <g id="line2d_19">
      <g>
       <use xlink:href="#mcd435cd8ea" x="79.283494" y="392.24" style="stroke: #000000; stroke-width: 0.8"/>
      </g>
     </g>
     <g id="text_7">
      <!-- 0 -->
      <g transform="translate(76.102244 406.838437) scale(0.1 -0.1)">
       <use xlink:href="#DejaVuSans-30"/>
      </g>
     </g>
    </g>
    <g id="xtick_10">
     <g id="line2d_20">
      <g>
       <use xlink:href="#mcd435cd8ea" x="177.051979" y="392.24" style="stroke: #000000; stroke-width: 0.8"/>
      </g>
     </g>
     <g id="text_8">
      <!-- 2 -->
      <g transform="translate(173.870729 406.838437) scale(0.1 -0.1)">
       <use xlink:href="#DejaVuSans-32"/>
      </g>
     </g>
    </g>
    <g id="xtick_11">
     <g id="line2d_21">
      <g>
       <use xlink:href="#mcd435cd8ea" x="274.820464" y="392.24" style="stroke: #000000; stroke-width: 0.8"/>
      </g>
     </g>
     <g id="text_9">
      <!-- 4 -->
      <g transform="translate(271.639214 406.838437) scale(0.1 -0.1)">
       <defs>
        <path id="DejaVuSans-34" d="M 2419 4116 
L 825 1625 
L 2419 1625 
L 2419 4116 
z
M 2253 4666 
L 3047 4666 
L 3047 1625 
L 3713 1625 
L 3713 1100 
L 3047 1100 
L 3047 0 
L 2419 0 
L 2419 1100 
L 313 1100 
L 313 1709 
L 2253 4666 
z
" transform="scale(0.015625)"/>
       </defs>
       <use xlink:href="#DejaVuSans-34"/>
      </g>
     </g>
    </g>
    <g id="xtick_12">
     <g id="line2d_22">
      <g>
       <use xlink:href="#mcd435cd8ea" x="372.588949" y="392.24" style="stroke: #000000; stroke-width: 0.8"/>
      </g>
     </g>
     <g id="text_10">
      <!-- 6 -->
      <g transform="translate(369.407699 406.838437) scale(0.1 -0.1)">
       <defs>
        <path id="DejaVuSans-36" d="M 2113 2584 
Q 1688 2584 1439 2293 
Q 1191 2003 1191 1497 
Q 1191 994 1439 701 
Q 1688 409 2113 409 
Q 2538 409 2786 701 
Q 3034 994 3034 1497 
Q 3034 2003 2786 2293 
Q 2538 2584 2113 2584 
z
M 3366 4563 
L 3366 3988 
Q 3128 4100 2886 4159 
Q 2644 4219 2406 4219 
Q 1781 4219 1451 3797 
Q 1122 3375 1075 2522 
Q 1259 2794 1537 2939 
Q 1816 3084 2150 3084 
Q 2853 3084 3261 2657 
Q 3669 2231 3669 1497 
Q 3669 778 3244 343 
Q 2819 -91 2113 -91 
Q 1303 -91 875 529 
Q 447 1150 447 2328 
Q 447 3434 972 4092 
Q 1497 4750 2381 4750 
Q 2619 4750 2861 4703 
Q 3103 4656 3366 4563 
z
" transform="scale(0.015625)"/>
       </defs>
       <use xlink:href="#DejaVuSans-36"/>
      </g>
     </g>
    </g>
    <g id="xtick_13">
     <g id="line2d_23">
      <g>
       <use xlink:href="#mcd435cd8ea" x="470.357434" y="392.24" style="stroke: #000000; stroke-width: 0.8"/>
      </g>
     </g>
     <g id="text_11">
      <!-- 8 -->
      <g transform="translate(467.176184 406.838437) scale(0.1 -0.1)">
       <defs>
        <path id="DejaVuSans-38" d="M 2034 2216 
Q 1584 2216 1326 1975 
Q 1069 1734 1069 1313 
Q 1069 891 1326 650 
Q 1584 409 2034 409 
Q 2484 409 2743 651 
Q 3003 894 3003 1313 
Q 3003 1734 2745 1975 
Q 2488 2216 2034 2216 
z
M 1403 2484 
Q 997 2584 770 2862 
Q 544 3141 544 3541 
Q 544 4100 942 4425 
Q 1341 4750 2034 4750 
Q 2731 4750 3128 4425 
Q 3525 4100 3525 3541 
Q 3525 3141 3298 2862 
Q 3072 2584 2669 2484 
Q 3125 2378 3379 2068 
Q 3634 1759 3634 1313 
Q 3634 634 3220 271 
Q 2806 -91 2034 -91 
Q 1263 -91 848 271 
Q 434 634 434 1313 
Q 434 1759 690 2068 
Q 947 2378 1403 2484 
z
M 1172 3481 
Q 1172 3119 1398 2916 
Q 1625 2713 2034 2713 
Q 2441 2713 2670 2916 
Q 2900 3119 2900 3481 
Q 2900 3844 2670 4047 
Q 2441 4250 2034 4250 
Q 1625 4250 1398 4047 
Q 1172 3844 1172 3481 
z
" transform="scale(0.015625)"/>
       </defs>
       <use xlink:href="#DejaVuSans-38"/>
      </g>
     </g>
    </g>
    <g id="xtick_14">
     <g id="line2d_24">
      <g>
       <use xlink:href="#mcd435cd8ea" x="568.125919" y="392.24" style="stroke: #000000; stroke-width: 0.8"/>
      </g>
     </g>
     <g id="text_12">
      <!-- 10 -->
      <g transform="translate(561.763419 406.838437) scale(0.1 -0.1)">
       <use xlink:href="#DejaVuSans-31"/>
       <use xlink:href="#DejaVuSans-30" transform="translate(63.623047 0)"/>
      </g>
     </g>
    </g>
    <g id="xtick_15">
     <g id="line2d_25">
      <g>
       <use xlink:href="#mcd435cd8ea" x="665.894403" y="392.24" style="stroke: #000000; stroke-width: 0.8"/>
      </g>
     </g>
     <g id="text_13">
      <!-- 12 -->
      <g transform="translate(659.531903 406.838437) scale(0.1 -0.1)">
       <use xlink:href="#DejaVuSans-31"/>
       <use xlink:href="#DejaVuSans-32" transform="translate(63.623047 0)"/>
      </g>
     </g>
    </g>
    <g id="xtick_16">
     <g id="line2d_26">
      <g>
       <use xlink:href="#mcd435cd8ea" x="763.662888" y="392.24" style="stroke: #000000; stroke-width: 0.8"/>
      </g>
     </g>
     <g id="text_14">
      <!-- 14 -->
      <g transform="translate(757.300388 406.838437) scale(0.1 -0.1)">
       <use xlink:href="#DejaVuSans-31"/>
       <use xlink:href="#DejaVuSans-34" transform="translate(63.623047 0)"/>
      </g>
     </g>
    </g>
    <g id="text_15">
     <!-- Time -->
     <g transform="translate(433.681719 420.516562) scale(0.1 -0.1)">
      <defs>
       <path id="DejaVuSans-54" d="M -19 4666 
L 3928 4666 
L 3928 4134 
L 2272 4134 
L 2272 0 
L 1638 0 
L 1638 4134 
L -19 4134 
L -19 4666 
z
" transform="scale(0.015625)"/>
       <path id="DejaVuSans-69" d="M 603 3500 
L 1178 3500 
L 1178 0 
L 603 0 
L 603 3500 
z
M 603 4863 
L 1178 4863 
L 1178 4134 
L 603 4134 
L 603 4863 
z
" transform="scale(0.015625)"/>
       <path id="DejaVuSans-6d" d="M 3328 2828 
Q 3544 3216 3844 3400 
Q 4144 3584 4550 3584 
Q 5097 3584 5394 3201 
Q 5691 2819 5691 2113 
L 5691 0 
L 5113 0 
L 5113 2094 
Q 5113 2597 4934 2840 
Q 4756 3084 4391 3084 
Q 3944 3084 3684 2787 
Q 3425 2491 3425 1978 
L 3425 0 
L 2847 0 
L 2847 2094 
Q 2847 2600 2669 2842 
Q 2491 3084 2119 3084 
Q 1678 3084 1418 2786 
Q 1159 2488 1159 1978 
L 1159 0 
L 581 0 
L 581 3500 
L 1159 3500 
L 1159 2956 
Q 1356 3278 1631 3431 
Q 1906 3584 2284 3584 
Q 2666 3584 2933 3390 
Q 3200 3197 3328 2828 
z
" transform="scale(0.015625)"/>
       <path id="DejaVuSans-65" d="M 3597 1894 
L 3597 1613 
L 953 1613 
Q 991 1019 1311 708 
Q 1631 397 2203 397 
Q 2534 397 2845 478 
Q 3156 559 3463 722 
L 3463 178 
Q 3153 47 2828 -22 
Q 2503 -91 2169 -91 
Q 1331 -91 842 396 
Q 353 884 353 1716 
Q 353 2575 817 3079 
Q 1281 3584 2069 3584 
Q 2775 3584 3186 3129 
Q 3597 2675 3597 1894 
z
M 3022 2063 
Q 3016 2534 2758 2815 
Q 2500 3097 2075 3097 
Q 1594 3097 1305 2825 
Q 1016 2553 972 2059 
L 3022 2063 
z
" transform="scale(0.015625)"/>
      </defs>
      <use xlink:href="#DejaVuSans-54"/>
      <use xlink:href="#DejaVuSans-69" transform="translate(57.958984 0)"/>
      <use xlink:href="#DejaVuSans-6d" transform="translate(85.742188 0)"/>
      <use xlink:href="#DejaVuSans-65" transform="translate(183.154297 0)"/>
     </g>
    </g>
   </g>
   <g id="matplotlib.axis_4">
    <g id="ytick_6">
     <g id="line2d_27">
      <g>
       <use xlink:href="#m1cfa0ebe85" x="42.620313" y="367.698389" style="stroke: #000000; stroke-width: 0.8"/>
      </g>
     </g>
     <g id="text_16">
      <!-- −4 -->
      <g transform="translate(20.878125 371.497607) scale(0.1 -0.1)">
       <use xlink:href="#DejaVuSans-2212"/>
       <use xlink:href="#DejaVuSans-34" transform="translate(83.789062 0)"/>
      </g>
     </g>
    </g>
    <g id="ytick_7">
     <g id="line2d_28">
      <g>
       <use xlink:href="#m1cfa0ebe85" x="42.620313" y="335.614666" style="stroke: #000000; stroke-width: 0.8"/>
      </g>
     </g>
     <g id="text_17">
      <!-- −2 -->
      <g transform="translate(20.878125 339.413885) scale(0.1 -0.1)">
       <use xlink:href="#DejaVuSans-2212"/>
       <use xlink:href="#DejaVuSans-32" transform="translate(83.789062 0)"/>
      </g>
     </g>
    </g>
    <g id="ytick_8">
     <g id="line2d_29">
      <g>
       <use xlink:href="#m1cfa0ebe85" x="42.620313" y="303.530943" style="stroke: #000000; stroke-width: 0.8"/>
      </g>
     </g>
     <g id="text_18">
      <!-- 0 -->
      <g transform="translate(29.257813 307.330162) scale(0.1 -0.1)">
       <use xlink:href="#DejaVuSans-30"/>
      </g>
     </g>
    </g>
    <g id="ytick_9">
     <g id="line2d_30">
      <g>
       <use xlink:href="#m1cfa0ebe85" x="42.620313" y="271.447221" style="stroke: #000000; stroke-width: 0.8"/>
      </g>
     </g>
     <g id="text_19">
      <!-- 2 -->
      <g transform="translate(29.257813 275.24644) scale(0.1 -0.1)">
       <use xlink:href="#DejaVuSans-32"/>
      </g>
     </g>
    </g>
    <g id="ytick_10">
     <g id="line2d_31">
      <g>
       <use xlink:href="#m1cfa0ebe85" x="42.620313" y="239.363498" style="stroke: #000000; stroke-width: 0.8"/>
      </g>
     </g>
     <g id="text_20">
      <!-- 4 -->
      <g transform="translate(29.257813 243.162717) scale(0.1 -0.1)">
       <use xlink:href="#DejaVuSans-34"/>
      </g>
     </g>
    </g>
    <g id="text_21">
     <!-- $dx1/dt$ -->
     <g transform="translate(14.798438 324.568501) rotate(-90) scale(0.1 -0.1)">
      <use xlink:href="#DejaVuSans-Oblique-64" transform="translate(0 0.015625)"/>
      <use xlink:href="#DejaVuSans-Oblique-78" transform="translate(63.476562 0.015625)"/>
      <use xlink:href="#DejaVuSans-31" transform="translate(122.65625 0.015625)"/>
      <use xlink:href="#DejaVuSans-2f" transform="translate(186.279297 0.015625)"/>
      <use xlink:href="#DejaVuSans-Oblique-64" transform="translate(219.970703 0.015625)"/>
      <use xlink:href="#DejaVuSans-Oblique-74" transform="translate(283.447266 0.015625)"/>
     </g>
    </g>
   </g>
   <g id="line2d_32">
    <path d="M 79.283494 367.52307 
L 80.554654 367.829919 
L 81.825814 367.918548 
L 83.096974 367.789721 
L 84.368133 367.444988 
L 85.737075 366.834626 
L 87.106016 365.979707 
L 88.572739 364.79743 
L 90.137243 363.240187 
L 91.799529 361.261483 
L 93.559597 358.817573 
L 95.515227 355.70427 
L 97.666421 351.830079 
L 100.013177 347.114535 
L 102.653278 341.274995 
L 105.684505 333.989279 
L 109.302422 324.679947 
L 114.875968 309.62742 
L 121.622894 291.541444 
L 125.338591 282.216931 
L 128.369819 275.180911 
L 131.107701 269.377291 
L 133.552239 264.705442 
L 135.801214 260.877119 
L 137.854626 257.804564 
L 139.810257 255.272397 
L 141.570324 253.337482 
L 143.23261 251.820338 
L 144.797114 250.674791 
L 146.361619 249.807777 
L 147.828342 249.250551 
L 149.197283 248.954652 
L 150.566224 248.87507 
L 151.935165 249.010675 
L 153.304107 249.359353 
L 154.77083 249.965837 
L 156.237552 250.808277 
L 157.802057 251.959756 
L 159.464343 253.460648 
L 161.22441 255.351915 
L 163.180041 257.800199 
L 165.233452 260.74002 
L 167.482428 264.359925 
L 169.926966 268.721241 
L 172.76263 274.260087 
L 176.087201 281.276471 
L 180.48737 291.135469 
L 191.830027 316.831731 
L 195.350161 324.102306 
L 198.283607 329.669479 
L 200.923708 334.215889 
L 203.368246 337.983658 
L 205.51944 340.911444 
L 207.572852 343.342447 
L 209.528482 345.310264 
L 211.28855 346.780887 
L 213.048617 347.959747 
L 214.710903 348.800955 
L 216.275407 349.349112 
L 217.839912 349.660598 
L 219.404416 349.736292 
L 220.96892 349.577582 
L 222.533425 349.186202 
L 224.097929 348.565098 
L 225.760215 347.658119 
L 227.520282 346.427417 
L 229.378131 344.837013 
L 231.333762 342.85431 
L 233.387174 340.451904 
L 235.636149 337.473156 
L 238.178468 333.714721 
L 241.014132 329.106236 
L 244.240923 323.426461 
L 248.445528 315.538929 
L 261.743815 290.231849 
L 265.068387 284.571208 
L 267.904051 280.154558 
L 270.544152 276.449251 
L 272.890909 273.525383 
L 275.139884 271.077675 
L 277.193296 269.163693 
L 279.148926 267.637706 
L 281.006775 266.464157 
L 282.766842 265.605172 
L 284.52691 264.995682 
L 286.189196 264.651987 
L 287.851482 264.534788 
L 289.513767 264.643752 
L 291.176053 264.977066 
L 292.838339 265.531441 
L 294.598407 266.354056 
L 296.456256 267.477151 
L 298.411886 268.930068 
L 300.465298 270.737574 
L 302.714273 273.023483 
L 305.158811 275.840481 
L 307.798912 279.230486 
L 310.830139 283.498617 
L 314.448056 289.002068 
L 319.434913 297.041208 
L 328.430813 311.588321 
L 332.146511 317.147642 
L 335.27552 321.44996 
L 338.111184 324.977679 
L 340.653504 327.795821 
L 343.00026 330.078417 
L 345.249235 331.958142 
L 347.302647 333.398514 
L 349.258278 334.514456 
L 351.213908 335.372922 
L 353.071757 335.945189 
L 354.929606 336.277954 
L 356.689673 336.371922 
L 358.449741 336.251958 
L 360.30759 335.896584 
L 362.165439 335.311719 
L 364.121069 334.456459 
L 366.174481 333.304729 
L 368.325674 331.830934 
L 370.57465 330.015854 
L 373.019188 327.750045 
L 375.659289 324.995373 
L 378.690516 321.493988 
L 382.210651 317.067134 
L 386.904164 310.770729 
L 398.24682 295.394915 
L 401.962518 290.824648 
L 405.091527 287.318229 
L 407.927191 284.469953 
L 410.469511 282.217406 
L 412.914049 280.347894 
L 415.163024 278.902839 
L 417.314217 277.779118 
L 419.367629 276.949736 
L 421.421041 276.362463 
L 423.376672 276.030061 
L 425.332302 275.918679 
L 427.287932 276.026366 
L 429.243563 276.35078 
L 431.296975 276.920334 
L 433.350387 277.717918 
L 435.50158 278.788671 
L 437.750555 280.152232 
L 440.195093 281.897878 
L 442.835195 284.062539 
L 445.76864 286.763 
L 449.093212 290.130287 
L 453.200036 294.626696 
L 460.044742 302.517624 
L 466.30276 309.601282 
L 470.214021 313.701436 
L 473.538593 316.877003 
L 476.472038 319.381959 
L 479.209921 321.430346 
L 481.75224 323.057241 
L 484.196779 324.354743 
L 486.543535 325.342968 
L 488.79251 326.046523 
L 490.943704 326.492688 
L 493.094897 326.714052 
L 495.246091 326.709777 
L 497.397284 326.481459 
L 499.548478 326.033125 
L 501.797453 325.336209 
L 504.144209 324.371252 
L 506.588747 323.123918 
L 509.228848 321.523185 
L 512.064512 319.540446 
L 515.193521 317.077004 
L 518.811437 313.938268 
L 523.407169 309.637983 
L 537.292145 296.435849 
L 541.007843 293.32782 
L 544.234633 290.911047 
L 547.168079 288.983236 
L 549.905962 287.442671 
L 552.546063 286.21252 
L 554.990601 285.30941 
L 557.435139 284.643468 
L 559.781895 284.233319 
L 562.128652 284.050292 
L 564.475408 284.093886 
L 566.822165 284.360529 
L 569.266703 284.868262 
L 571.809023 285.633524 
L 574.449124 286.670674 
L 577.187006 287.988882 
L 580.120452 289.648948 
L 583.347242 291.732665 
L 587.06294 294.404219 
L 591.756453 298.068588 
L 606.717026 309.963928 
L 610.530505 312.589727 
L 613.855077 314.617885 
L 616.886304 316.218947 
L 619.721969 317.476189 
L 622.459851 318.451339 
L 625.099952 319.157945 
L 627.642272 319.615 
L 630.184591 319.850259 
L 632.726911 319.864591 
L 635.269231 319.661041 
L 637.909332 319.224055 
L 640.647214 318.53704 
L 643.482878 317.588301 
L 646.416324 316.37262 
L 649.643114 314.790576 
L 653.261031 312.761299 
L 657.465636 310.142284 
L 663.332528 306.201611 
L 673.306243 299.489834 
L 677.706411 296.818435 
L 681.422109 294.812893 
L 684.746681 293.261395 
L 687.87569 292.040572 
L 690.906917 291.099016 
L 693.742581 290.444968 
L 696.578245 290.016981 
L 699.413909 289.819097 
L 702.151792 289.847807 
L 704.987456 290.102552 
L 707.82312 290.579375 
L 710.756566 291.294351 
L 713.885575 292.286119 
L 717.307928 293.610804 
L 721.023626 295.293361 
L 725.326013 297.491847 
L 731.095123 300.71127 
L 742.926687 307.374795 
L 747.424637 309.614033 
L 751.335898 311.31503 
L 754.856032 312.607994 
L 758.180604 313.595404 
L 761.407394 314.319519 
L 764.536403 314.78849 
L 767.56763 315.016887 
L 770.598858 315.02148 
L 773.630085 314.805908 
L 776.759093 314.361709 
L 780.083665 313.658926 
L 783.506019 312.706468 
L 787.221716 311.440096 
L 791.426322 309.764709 
L 796.510961 307.487601 
L 806.778021 302.567818 
L 812.547131 299.938535 
L 812.547131 299.938535 
" clip-path="url(#pce42a251e0)" style="fill: none; stroke-dasharray: 12.95,5.6; stroke-dashoffset: 0; stroke: #0000ff; stroke-opacity: 0.8; stroke-width: 3.5"/>
   </g>
   <g id="patch_8">
    <path d="M 42.620313 392.24 
L 42.620313 224.597001 
" style="fill: none; stroke: #000000; stroke-width: 0.8; stroke-linejoin: miter; stroke-linecap: square"/>
   </g>
   <g id="patch_9">
    <path d="M 849.210312 392.24 
L 849.210312 224.597001 
" style="fill: none; stroke: #000000; stroke-width: 0.8; stroke-linejoin: miter; stroke-linecap: square"/>
   </g>
   <g id="patch_10">
    <path d="M 42.620312 392.24 
L 849.210313 392.24 
" style="fill: none; stroke: #000000; stroke-width: 0.8; stroke-linejoin: miter; stroke-linecap: square"/>
   </g>
   <g id="patch_11">
    <path d="M 42.620312 224.597001 
L 849.210313 224.597001 
" style="fill: none; stroke: #000000; stroke-width: 0.8; stroke-linejoin: miter; stroke-linecap: square"/>
   </g>
   <g id="line2d_33">
    <path d="M 79.283494 365.675681 
L 80.359091 364.920308 
L 81.728032 363.649885 
L 86.323764 359.065474 
L 87.497142 358.356097 
L 88.572739 357.956012 
L 89.843899 357.739019 
L 93.16847 357.347923 
L 94.048504 356.940481 
L 94.928538 356.277934 
L 95.808572 355.315381 
L 96.688605 354.02833 
L 97.666421 352.215773 
L 98.839799 349.552977 
L 100.306522 345.638394 
L 103.43553 336.41986 
L 105.782287 329.918489 
L 108.324606 323.603951 
L 111.258052 316.261951 
L 113.115901 310.96591 
L 115.267095 304.085736 
L 119.765045 289.418997 
L 121.42733 284.903071 
L 122.894053 281.537076 
L 124.458558 278.506656 
L 126.609751 274.897764 
L 129.445415 270.103556 
L 131.401046 266.296178 
L 133.943365 260.786002 
L 136.681248 254.969582 
L 138.245752 252.161988 
L 139.516912 250.320067 
L 140.592509 249.116385 
L 141.570324 248.316199 
L 142.548139 247.791573 
L 143.525955 247.526783 
L 144.50377 247.497495 
L 145.579366 247.701079 
L 146.752745 248.153912 
L 148.219468 248.971496 
L 150.27288 250.40061 
L 155.748645 254.615069 
L 158.779872 257.128109 
L 160.735502 259.049964 
L 162.49557 261.111401 
L 164.255637 263.543867 
L 166.113486 266.506159 
L 168.460243 270.698719 
L 173.153756 279.678484 
L 177.553924 288.400381 
L 179.900681 293.576494 
L 182.149656 299.098576 
L 185.083102 306.974257 
L 189.287707 318.227699 
L 191.341119 323.077759 
L 193.198968 326.928614 
L 195.056817 330.281663 
L 197.012447 333.365037 
L 199.359204 336.635421 
L 202.194868 340.186248 
L 204.932751 343.268066 
L 207.181726 345.478359 
L 209.137356 347.099957 
L 210.995205 348.348724 
L 212.755272 349.262625 
L 214.51534 349.922415 
L 216.275407 350.33986 
L 218.035475 350.519791 
L 219.69776 350.461841 
L 221.262265 350.180849 
L 222.728988 349.686563 
L 224.097929 348.992972 
L 225.46687 348.047075 
L 226.835812 346.826976 
L 228.302534 345.2029 
L 229.867039 343.115915 
L 231.627106 340.375611 
L 233.876081 336.420619 
L 242.187511 321.353444 
L 248.445528 310.672441 
L 251.085629 305.570932 
L 259.788185 288.266976 
L 261.939378 284.792775 
L 264.188353 281.591577 
L 266.926236 278.106181 
L 270.935278 273.394329 
L 274.162068 269.888915 
L 276.411043 267.759636 
L 278.268892 266.307093 
L 279.833397 265.349208 
L 281.30012 264.693475 
L 282.766842 264.279021 
L 284.233565 264.102716 
L 285.700288 264.153467 
L 287.264792 264.439125 
L 288.927078 264.979202 
L 290.687146 265.787237 
L 292.642776 266.936853 
L 294.79397 268.472714 
L 297.140726 270.435714 
L 299.683046 272.857171 
L 302.616491 275.965979 
L 305.941063 279.82367 
L 309.167853 283.903912 
L 312.003518 287.84115 
L 314.643619 291.898617 
L 317.28372 296.380696 
L 320.412729 302.157527 
L 326.964091 314.377256 
L 329.310847 318.209376 
L 331.462041 321.298159 
L 333.515453 323.852478 
L 335.568864 326.048181 
L 337.720058 328.017927 
L 340.066815 329.856019 
L 342.609134 331.562274 
L 345.347017 333.131153 
L 347.987118 334.39801 
L 350.431656 335.334525 
L 352.680631 335.959921 
L 354.734043 336.298025 
L 356.591892 336.383674 
L 358.351959 336.249659 
L 360.112027 335.889382 
L 361.872094 335.292163 
L 363.632161 334.455478 
L 365.49001 333.320175 
L 367.445641 331.863343 
L 369.694616 329.897512 
L 372.236935 327.371948 
L 375.268163 324.040706 
L 378.592734 320.06166 
L 381.917306 315.733598 
L 385.144096 311.163755 
L 388.957576 305.35302 
L 395.606719 295.173547 
L 398.344602 291.426031 
L 400.78914 288.434924 
L 403.233678 285.795527 
L 405.678216 283.491574 
L 408.122754 281.494184 
L 410.567292 279.781005 
L 412.914049 278.399409 
L 415.163024 277.324608 
L 417.314217 276.536344 
L 419.367629 276.012135 
L 421.421041 275.715878 
L 423.474453 275.647137 
L 425.527865 275.800168 
L 427.679059 276.188383 
L 429.928034 276.830961 
L 432.27479 277.743692 
L 434.719328 278.940882 
L 437.261648 280.437855 
L 439.901749 282.254436 
L 442.639632 284.418673 
L 445.377514 286.874674 
L 448.115397 289.630043 
L 450.951061 292.803262 
L 454.08007 296.644322 
L 458.480238 302.441064 
L 464.151566 309.859352 
L 467.182794 313.440677 
L 469.822895 316.217883 
L 472.267433 318.477873 
L 474.711971 320.438637 
L 477.156509 322.119191 
L 479.698828 323.598702 
L 482.33893 324.875876 
L 484.979031 325.910184 
L 487.619132 326.708556 
L 490.161451 327.247725 
L 492.605989 327.537576 
L 494.952746 327.586258 
L 497.201721 327.406244 
L 499.352914 327.016128 
L 501.504108 326.407822 
L 503.753083 325.53876 
L 506.09984 324.384051 
L 508.544378 322.924546 
L 511.086697 321.145029 
L 513.82458 318.945983 
L 516.758025 316.289252 
L 519.887034 313.149563 
L 523.602732 309.094658 
L 535.727641 295.586984 
L 538.661086 292.808727 
L 541.398969 290.514224 
L 544.03907 288.590179 
L 546.58139 287.006657 
L 549.123709 285.683306 
L 551.666029 284.614738 
L 554.110567 283.822655 
L 556.555105 283.259445 
L 558.999643 282.923312 
L 561.444181 282.811621 
L 563.888719 282.920605 
L 566.431039 283.262821 
L 568.973358 283.832116 
L 571.61346 284.656285 
L 574.253561 285.713261 
L 576.991443 287.051971 
L 579.827107 288.694071 
L 582.760553 290.658661 
L 585.889562 293.034441 
L 589.311915 295.921163 
L 593.712084 299.946909 
L 603.196891 308.720384 
L 606.717026 311.607239 
L 609.846035 313.886891 
L 612.77948 315.75303 
L 615.712926 317.351477 
L 618.54859 318.643951 
L 621.384254 319.691105 
L 624.122137 320.47147 
L 626.86002 321.024371 
L 629.597902 321.345917 
L 632.238003 321.431442 
L 634.878105 321.290409 
L 637.420424 320.934417 
L 639.962744 320.358755 
L 642.602845 319.528011 
L 645.242946 318.463614 
L 647.980829 317.122024 
L 650.914274 315.433465 
L 654.141064 313.309392 
L 657.758981 310.650175 
L 662.452494 306.902789 
L 672.328428 298.947415 
L 676.044125 296.29087 
L 679.368697 294.186516 
L 682.399924 292.527491 
L 685.33337 291.174423 
L 688.169034 290.108897 
L 691.004698 289.28293 
L 693.840363 288.694874 
L 696.578245 288.349767 
L 699.316128 288.220909 
L 702.151792 288.313239 
L 704.987456 288.63211 
L 707.82312 289.173125 
L 710.756566 289.960206 
L 713.787793 291.006696 
L 717.014583 292.364912 
L 720.339155 294.008489 
L 724.054853 296.101298 
L 728.455021 298.84945 
L 736.766451 304.382394 
L 742.144435 307.807968 
L 746.153477 310.104831 
L 749.771393 311.922635 
L 753.095965 313.351314 
L 756.322755 314.502157 
L 759.451764 315.388498 
L 762.580773 316.042955 
L 765.612 316.449293 
L 768.545446 316.624323 
L 771.478891 316.581498 
L 774.412337 316.319812 
L 777.443564 315.821865 
L 780.474791 315.098313 
L 783.6038 314.122816 
L 786.928372 312.849016 
L 790.546288 311.215342 
L 794.653112 309.10573 
L 800.128877 306.019782 
L 810.689282 300.024748 
L 812.547131 299.063793 
L 812.547131 299.063793 
" clip-path="url(#pce42a251e0)" style="fill: none; stroke-dasharray: 22.4,5.6,3.5,5.6; stroke-dashoffset: 0; stroke: #008000; stroke-opacity: 0.8; stroke-width: 3.5"/>
   </g>
   <g id="line2d_34">
    <path d="M 79.283494 365.640695 
L 80.750217 365.917491 
L 82.119158 365.959028 
L 83.585881 365.772738 
L 85.052604 365.348205 
L 86.519327 364.684881 
L 87.98605 363.78153 
L 89.550554 362.551537 
L 91.21284 360.941113 
L 92.875126 359.016264 
L 94.635193 356.635522 
L 96.493042 353.744057 
L 98.448673 350.28976 
L 100.599866 346.02636 
L 102.946623 340.867874 
L 105.586724 334.519537 
L 108.911296 325.902041 
L 114.484842 310.697179 
L 120.058389 295.729137 
L 123.871869 286.119017 
L 127.19644 278.334315 
L 130.227667 271.800501 
L 132.96555 266.426141 
L 135.410088 262.107081 
L 137.659063 258.582395 
L 139.712475 255.777227 
L 141.570324 253.60996 
L 143.23261 251.991518 
L 144.797114 250.75992 
L 146.263837 249.871959 
L 147.73056 249.248773 
L 149.099501 248.909658 
L 150.468443 248.806053 
L 151.837384 248.937223 
L 153.206325 249.300413 
L 154.575267 249.890903 
L 156.041989 250.768274 
L 157.606494 251.971697 
L 159.26878 253.537691 
L 161.028847 255.501107 
L 162.984477 258.022584 
L 165.135671 261.169935 
L 167.580209 265.165548 
L 170.318092 270.093868 
L 173.4471 276.210294 
L 177.162798 283.996089 
L 181.75853 294.170101 
L 193.590094 320.649825 
L 196.816884 327.157688 
L 199.554767 332.186803 
L 201.999305 336.221994 
L 204.24828 339.512182 
L 206.301692 342.136265 
L 208.257322 344.283292 
L 210.115171 345.996976 
L 211.875239 347.323915 
L 213.537525 348.31115 
L 215.19981 349.040353 
L 216.764315 349.492097 
L 218.328819 349.718064 
L 219.893324 349.720261 
L 221.457828 349.499989 
L 223.022332 349.058415 
L 224.684618 348.348516 
L 226.346904 347.393052 
L 228.106971 346.117487 
L 229.96482 344.482548 
L 231.920451 342.450986 
L 233.973863 339.990023 
L 236.222838 336.934434 
L 238.667376 333.227746 
L 241.50304 328.500381 
L 244.827612 322.49279 
L 249.423343 313.680194 
L 258.321462 296.55173 
L 262.03716 289.921376 
L 265.26395 284.594838 
L 268.099614 280.317933 
L 270.739715 276.727664 
L 273.184253 273.777849 
L 275.433228 271.409932 
L 277.48664 269.55722 
L 279.442271 268.081695 
L 281.30012 266.951428 
L 283.060187 266.131328 
L 284.820254 265.560733 
L 286.48254 265.254867 
L 288.144826 265.177058 
L 289.807112 265.326899 
L 291.469398 265.701938 
L 293.229465 266.339524 
L 294.989533 267.216975 
L 296.847382 268.392531 
L 298.803012 269.891532 
L 300.954206 271.828164 
L 303.300962 274.252878 
L 305.843282 277.212095 
L 308.678946 280.869727 
L 311.905736 285.414277 
L 315.719215 291.192181 
L 320.999418 299.642569 
L 329.50641 313.26176 
L 333.222108 318.755488 
L 336.253335 322.854149 
L 338.991218 326.18699 
L 341.435756 328.823712 
L 343.684731 330.940345 
L 345.835924 332.671214 
L 347.889336 334.044129 
L 349.844967 335.088971 
L 351.702816 335.838851 
L 353.560665 336.349282 
L 355.320732 336.610974 
L 357.080799 336.657263 
L 358.840867 336.489952 
L 360.698716 336.085089 
L 362.556565 335.451053 
L 364.512195 334.543916 
L 366.565607 333.336039 
L 368.716801 331.800969 
L 370.965776 329.918627 
L 373.410314 327.576083 
L 376.050415 324.736011 
L 379.081642 321.138386 
L 382.699558 316.483811 
L 387.97976 309.287678 
L 395.997845 298.37396 
L 400.006888 293.314233 
L 403.33146 289.465167 
L 406.264905 286.393801 
L 409.002788 283.841438 
L 411.545107 281.772671 
L 413.891864 280.142716 
L 416.140839 278.848025 
L 418.292032 277.864957 
L 420.345444 277.166075 
L 422.398856 276.704889 
L 424.354487 276.487759 
L 426.310117 276.486201 
L 428.265748 276.698157 
L 430.31916 277.147011 
L 432.372572 277.821908 
L 434.523765 278.762731 
L 436.77274 279.989843 
L 439.217278 281.58794 
L 441.759598 283.517445 
L 444.595262 285.954854 
L 447.822052 289.036657 
L 451.53775 292.91179 
L 456.329045 298.25516 
L 468.25839 311.703039 
L 471.974088 315.467169 
L 475.103097 318.329852 
L 477.938761 320.627609 
L 480.578862 322.479764 
L 483.0234 323.926593 
L 485.370157 325.059182 
L 487.619132 325.900262 
L 489.770325 326.476279 
L 491.921519 326.82557 
L 494.072712 326.946056 
L 496.223906 326.838051 
L 498.375099 326.504259 
L 500.526293 325.949788 
L 502.775268 325.1424 
L 505.122024 324.06415 
L 507.664344 322.643636 
L 510.402227 320.849044 
L 513.335672 318.655278 
L 516.660244 315.886128 
L 520.669286 312.246289 
L 526.829522 306.307055 
L 534.260918 299.211167 
L 538.367742 295.594314 
L 541.887877 292.783515 
L 545.016885 290.562418 
L 547.950331 288.751668 
L 550.688214 287.32224 
L 553.328315 286.197891 
L 555.772853 285.390718 
L 558.217391 284.817193 
L 560.564147 284.491156 
L 562.910904 284.386616 
L 565.257661 284.502082 
L 567.702199 284.85145 
L 570.146737 285.426173 
L 572.689056 286.250759 
L 575.329157 287.338865 
L 578.164822 288.750357 
L 581.196049 290.508867 
L 584.618402 292.761132 
L 588.529663 295.611135 
L 593.712084 299.684442 
L 605.739211 309.243843 
L 609.748253 312.087275 
L 613.170607 314.253412 
L 616.299615 315.978615 
L 619.233061 317.343165 
L 621.970944 318.37479 
L 624.611045 319.134967 
L 627.153364 319.641617 
L 629.695684 319.923592 
L 632.238003 319.981016 
L 634.780323 319.816743 
L 637.322643 319.435049 
L 639.962744 318.816255 
L 642.700626 317.947219 
L 645.634072 316.777917 
L 648.763081 315.287175 
L 652.283215 313.355457 
L 656.390039 310.838067 
L 661.865805 307.196682 
L 673.404024 299.461493 
L 677.706411 296.887009 
L 681.422109 294.914571 
L 684.746681 293.392159 
L 687.87569 292.19615 
L 690.906917 291.27478 
L 693.840363 290.617115 
L 696.676027 290.206526 
L 699.511691 290.02098 
L 702.347355 290.061694 
L 705.183019 290.325847 
L 708.116465 290.826854 
L 711.147692 291.574948 
L 714.374482 292.607671 
L 717.796835 293.938622 
L 721.610315 295.667443 
L 726.010483 297.914437 
L 731.975156 301.232939 
L 743.12225 307.469548 
L 747.6202 309.703175 
L 751.531461 311.400462 
L 755.051596 312.689429 
L 758.376167 313.671424 
L 761.505176 314.369861 
L 764.536403 314.825325 
L 767.56763 315.056174 
L 770.598858 315.060817 
L 773.630085 314.842928 
L 776.759093 314.39411 
L 779.985884 313.708593 
L 783.408237 312.754056 
L 787.123935 311.484125 
L 791.32854 309.804734 
L 796.510961 307.479777 
L 812.547131 299.966767 
L 812.547131 299.966767 
" clip-path="url(#pce42a251e0)" style="fill: none; stroke-dasharray: 3.5,5.775; stroke-dashoffset: 0; stroke: #ff0000; stroke-opacity: 0.8; stroke-width: 3.5"/>
   </g>
  </g>
  <g id="text_22">
   <!-- Derivative Comparison (New Trajectory) -->
   <g transform="translate(268.047812 22.9975) scale(0.16 -0.16)">
    <defs>
     <path id="DejaVuSans-44" d="M 1259 4147 
L 1259 519 
L 2022 519 
Q 2988 519 3436 956 
Q 3884 1394 3884 2338 
Q 3884 3275 3436 3711 
Q 2988 4147 2022 4147 
L 1259 4147 
z
M 628 4666 
L 1925 4666 
Q 3281 4666 3915 4102 
Q 4550 3538 4550 2338 
Q 4550 1131 3912 565 
Q 3275 0 1925 0 
L 628 0 
L 628 4666 
z
" transform="scale(0.015625)"/>
     <path id="DejaVuSans-72" d="M 2631 2963 
Q 2534 3019 2420 3045 
Q 2306 3072 2169 3072 
Q 1681 3072 1420 2755 
Q 1159 2438 1159 1844 
L 1159 0 
L 581 0 
L 581 3500 
L 1159 3500 
L 1159 2956 
Q 1341 3275 1631 3429 
Q 1922 3584 2338 3584 
Q 2397 3584 2469 3576 
Q 2541 3569 2628 3553 
L 2631 2963 
z
" transform="scale(0.015625)"/>
     <path id="DejaVuSans-76" d="M 191 3500 
L 800 3500 
L 1894 563 
L 2988 3500 
L 3597 3500 
L 2284 0 
L 1503 0 
L 191 3500 
z
" transform="scale(0.015625)"/>
     <path id="DejaVuSans-61" d="M 2194 1759 
Q 1497 1759 1228 1600 
Q 959 1441 959 1056 
Q 959 750 1161 570 
Q 1363 391 1709 391 
Q 2188 391 2477 730 
Q 2766 1069 2766 1631 
L 2766 1759 
L 2194 1759 
z
M 3341 1997 
L 3341 0 
L 2766 0 
L 2766 531 
Q 2569 213 2275 61 
Q 1981 -91 1556 -91 
Q 1019 -91 701 211 
Q 384 513 384 1019 
Q 384 1609 779 1909 
Q 1175 2209 1959 2209 
L 2766 2209 
L 2766 2266 
Q 2766 2663 2505 2880 
Q 2244 3097 1772 3097 
Q 1472 3097 1187 3025 
Q 903 2953 641 2809 
L 641 3341 
Q 956 3463 1253 3523 
Q 1550 3584 1831 3584 
Q 2591 3584 2966 3190 
Q 3341 2797 3341 1997 
z
" transform="scale(0.015625)"/>
     <path id="DejaVuSans-74" d="M 1172 4494 
L 1172 3500 
L 2356 3500 
L 2356 3053 
L 1172 3053 
L 1172 1153 
Q 1172 725 1289 603 
Q 1406 481 1766 481 
L 2356 481 
L 2356 0 
L 1766 0 
Q 1100 0 847 248 
Q 594 497 594 1153 
L 594 3053 
L 172 3053 
L 172 3500 
L 594 3500 
L 594 4494 
L 1172 4494 
z
" transform="scale(0.015625)"/>
     <path id="DejaVuSans-20" transform="scale(0.015625)"/>
     <path id="DejaVuSans-43" d="M 4122 4306 
L 4122 3641 
Q 3803 3938 3442 4084 
Q 3081 4231 2675 4231 
Q 1875 4231 1450 3742 
Q 1025 3253 1025 2328 
Q 1025 1406 1450 917 
Q 1875 428 2675 428 
Q 3081 428 3442 575 
Q 3803 722 4122 1019 
L 4122 359 
Q 3791 134 3420 21 
Q 3050 -91 2638 -91 
Q 1578 -91 968 557 
Q 359 1206 359 2328 
Q 359 3453 968 4101 
Q 1578 4750 2638 4750 
Q 3056 4750 3426 4639 
Q 3797 4528 4122 4306 
z
" transform="scale(0.015625)"/>
     <path id="DejaVuSans-6f" d="M 1959 3097 
Q 1497 3097 1228 2736 
Q 959 2375 959 1747 
Q 959 1119 1226 758 
Q 1494 397 1959 397 
Q 2419 397 2687 759 
Q 2956 1122 2956 1747 
Q 2956 2369 2687 2733 
Q 2419 3097 1959 3097 
z
M 1959 3584 
Q 2709 3584 3137 3096 
Q 3566 2609 3566 1747 
Q 3566 888 3137 398 
Q 2709 -91 1959 -91 
Q 1206 -91 779 398 
Q 353 888 353 1747 
Q 353 2609 779 3096 
Q 1206 3584 1959 3584 
z
" transform="scale(0.015625)"/>
     <path id="DejaVuSans-70" d="M 1159 525 
L 1159 -1331 
L 581 -1331 
L 581 3500 
L 1159 3500 
L 1159 2969 
Q 1341 3281 1617 3432 
Q 1894 3584 2278 3584 
Q 2916 3584 3314 3078 
Q 3713 2572 3713 1747 
Q 3713 922 3314 415 
Q 2916 -91 2278 -91 
Q 1894 -91 1617 61 
Q 1341 213 1159 525 
z
M 3116 1747 
Q 3116 2381 2855 2742 
Q 2594 3103 2138 3103 
Q 1681 3103 1420 2742 
Q 1159 2381 1159 1747 
Q 1159 1113 1420 752 
Q 1681 391 2138 391 
Q 2594 391 2855 752 
Q 3116 1113 3116 1747 
z
" transform="scale(0.015625)"/>
     <path id="DejaVuSans-73" d="M 2834 3397 
L 2834 2853 
Q 2591 2978 2328 3040 
Q 2066 3103 1784 3103 
Q 1356 3103 1142 2972 
Q 928 2841 928 2578 
Q 928 2378 1081 2264 
Q 1234 2150 1697 2047 
L 1894 2003 
Q 2506 1872 2764 1633 
Q 3022 1394 3022 966 
Q 3022 478 2636 193 
Q 2250 -91 1575 -91 
Q 1294 -91 989 -36 
Q 684 19 347 128 
L 347 722 
Q 666 556 975 473 
Q 1284 391 1588 391 
Q 1994 391 2212 530 
Q 2431 669 2431 922 
Q 2431 1156 2273 1281 
Q 2116 1406 1581 1522 
L 1381 1569 
Q 847 1681 609 1914 
Q 372 2147 372 2553 
Q 372 3047 722 3315 
Q 1072 3584 1716 3584 
Q 2034 3584 2315 3537 
Q 2597 3491 2834 3397 
z
" transform="scale(0.015625)"/>
     <path id="DejaVuSans-6e" d="M 3513 2113 
L 3513 0 
L 2938 0 
L 2938 2094 
Q 2938 2591 2744 2837 
Q 2550 3084 2163 3084 
Q 1697 3084 1428 2787 
Q 1159 2491 1159 1978 
L 1159 0 
L 581 0 
L 581 3500 
L 1159 3500 
L 1159 2956 
Q 1366 3272 1645 3428 
Q 1925 3584 2291 3584 
Q 2894 3584 3203 3211 
Q 3513 2838 3513 2113 
z
" transform="scale(0.015625)"/>
     <path id="DejaVuSans-28" d="M 1984 4856 
Q 1566 4138 1362 3434 
Q 1159 2731 1159 2009 
Q 1159 1288 1364 580 
Q 1569 -128 1984 -844 
L 1484 -844 
Q 1016 -109 783 600 
Q 550 1309 550 2009 
Q 550 2706 781 3412 
Q 1013 4119 1484 4856 
L 1984 4856 
z
" transform="scale(0.015625)"/>
     <path id="DejaVuSans-4e" d="M 628 4666 
L 1478 4666 
L 3547 763 
L 3547 4666 
L 4159 4666 
L 4159 0 
L 3309 0 
L 1241 3903 
L 1241 0 
L 628 0 
L 628 4666 
z
" transform="scale(0.015625)"/>
     <path id="DejaVuSans-77" d="M 269 3500 
L 844 3500 
L 1563 769 
L 2278 3500 
L 2956 3500 
L 3675 769 
L 4391 3500 
L 4966 3500 
L 4050 0 
L 3372 0 
L 2619 2869 
L 1863 0 
L 1184 0 
L 269 3500 
z
" transform="scale(0.015625)"/>
     <path id="DejaVuSans-6a" d="M 603 3500 
L 1178 3500 
L 1178 -63 
Q 1178 -731 923 -1031 
Q 669 -1331 103 -1331 
L -116 -1331 
L -116 -844 
L 38 -844 
Q 366 -844 484 -692 
Q 603 -541 603 -63 
L 603 3500 
z
M 603 4863 
L 1178 4863 
L 1178 4134 
L 603 4134 
L 603 4863 
z
" transform="scale(0.015625)"/>
     <path id="DejaVuSans-63" d="M 3122 3366 
L 3122 2828 
Q 2878 2963 2633 3030 
Q 2388 3097 2138 3097 
Q 1578 3097 1268 2742 
Q 959 2388 959 1747 
Q 959 1106 1268 751 
Q 1578 397 2138 397 
Q 2388 397 2633 464 
Q 2878 531 3122 666 
L 3122 134 
Q 2881 22 2623 -34 
Q 2366 -91 2075 -91 
Q 1284 -91 818 406 
Q 353 903 353 1747 
Q 353 2603 823 3093 
Q 1294 3584 2113 3584 
Q 2378 3584 2631 3529 
Q 2884 3475 3122 3366 
z
" transform="scale(0.015625)"/>
     <path id="DejaVuSans-79" d="M 2059 -325 
Q 1816 -950 1584 -1140 
Q 1353 -1331 966 -1331 
L 506 -1331 
L 506 -850 
L 844 -850 
Q 1081 -850 1212 -737 
Q 1344 -625 1503 -206 
L 1606 56 
L 191 3500 
L 800 3500 
L 1894 763 
L 2988 3500 
L 3597 3500 
L 2059 -325 
z
" transform="scale(0.015625)"/>
     <path id="DejaVuSans-29" d="M 513 4856 
L 1013 4856 
Q 1481 4119 1714 3412 
Q 1947 2706 1947 2009 
Q 1947 1309 1714 600 
Q 1481 -109 1013 -844 
L 513 -844 
Q 928 -128 1133 580 
Q 1338 1288 1338 2009 
Q 1338 2731 1133 3434 
Q 928 4138 513 4856 
z
" transform="scale(0.015625)"/>
    </defs>
    <use xlink:href="#DejaVuSans-44"/>
    <use xlink:href="#DejaVuSans-65" transform="translate(77.001953 0)"/>
    <use xlink:href="#DejaVuSans-72" transform="translate(138.525391 0)"/>
    <use xlink:href="#DejaVuSans-69" transform="translate(179.638672 0)"/>
    <use xlink:href="#DejaVuSans-76" transform="translate(207.421875 0)"/>
    <use xlink:href="#DejaVuSans-61" transform="translate(266.601562 0)"/>
    <use xlink:href="#DejaVuSans-74" transform="translate(327.880859 0)"/>
    <use xlink:href="#DejaVuSans-69" transform="translate(367.089844 0)"/>
    <use xlink:href="#DejaVuSans-76" transform="translate(394.873047 0)"/>
    <use xlink:href="#DejaVuSans-65" transform="translate(454.052734 0)"/>
    <use xlink:href="#DejaVuSans-20" transform="translate(515.576172 0)"/>
    <use xlink:href="#DejaVuSans-43" transform="translate(547.363281 0)"/>
    <use xlink:href="#DejaVuSans-6f" transform="translate(617.1875 0)"/>
    <use xlink:href="#DejaVuSans-6d" transform="translate(678.369141 0)"/>
    <use xlink:href="#DejaVuSans-70" transform="translate(775.78125 0)"/>
    <use xlink:href="#DejaVuSans-61" transform="translate(839.257812 0)"/>
    <use xlink:href="#DejaVuSans-72" transform="translate(900.537109 0)"/>
    <use xlink:href="#DejaVuSans-69" transform="translate(941.650391 0)"/>
    <use xlink:href="#DejaVuSans-73" transform="translate(969.433594 0)"/>
    <use xlink:href="#DejaVuSans-6f" transform="translate(1021.533203 0)"/>
    <use xlink:href="#DejaVuSans-6e" transform="translate(1082.714844 0)"/>
    <use xlink:href="#DejaVuSans-20" transform="translate(1146.09375 0)"/>
    <use xlink:href="#DejaVuSans-28" transform="translate(1177.880859 0)"/>
    <use xlink:href="#DejaVuSans-4e" transform="translate(1216.894531 0)"/>
    <use xlink:href="#DejaVuSans-65" transform="translate(1291.699219 0)"/>
    <use xlink:href="#DejaVuSans-77" transform="translate(1353.222656 0)"/>
    <use xlink:href="#DejaVuSans-20" transform="translate(1435.009766 0)"/>
    <use xlink:href="#DejaVuSans-54" transform="translate(1466.796875 0)"/>
    <use xlink:href="#DejaVuSans-72" transform="translate(1513.130859 0)"/>
    <use xlink:href="#DejaVuSans-61" transform="translate(1554.244141 0)"/>
    <use xlink:href="#DejaVuSans-6a" transform="translate(1615.523438 0)"/>
    <use xlink:href="#DejaVuSans-65" transform="translate(1643.306641 0)"/>
    <use xlink:href="#DejaVuSans-63" transform="translate(1704.830078 0)"/>
    <use xlink:href="#DejaVuSans-74" transform="translate(1759.810547 0)"/>
    <use xlink:href="#DejaVuSans-6f" transform="translate(1799.019531 0)"/>
    <use xlink:href="#DejaVuSans-72" transform="translate(1860.201172 0)"/>
    <use xlink:href="#DejaVuSans-79" transform="translate(1901.314453 0)"/>
    <use xlink:href="#DejaVuSans-29" transform="translate(1960.494141 0)"/>
   </g>
  </g>
  <g id="legend_1">
   <g id="patch_12">
    <path d="M 744.138437 66.7125 
L 855.210312 66.7125 
Q 857.210312 66.7125 857.210312 64.7125 
L 857.210312 7 
Q 857.210312 5 855.210312 5 
L 744.138437 5 
Q 742.138437 5 742.138437 7 
L 742.138437 64.7125 
Q 742.138437 66.7125 744.138437 66.7125 
z
" style="fill: #ffffff; opacity: 0.9; stroke: #cccccc; stroke-linejoin: miter"/>
   </g>
   <g id="line2d_35">
    <path d="M 746.138437 13.098438 
L 756.138437 13.098438 
L 766.138437 13.098438 
" style="fill: none; stroke: #808080; stroke-opacity: 0.5; stroke-width: 6; stroke-linecap: square"/>
   </g>
   <g id="text_23">
    <!-- True Derivative -->
    <g transform="translate(774.138437 16.598438) scale(0.1 -0.1)">
     <defs>
      <path id="DejaVuSans-75" d="M 544 1381 
L 544 3500 
L 1119 3500 
L 1119 1403 
Q 1119 906 1312 657 
Q 1506 409 1894 409 
Q 2359 409 2629 706 
Q 2900 1003 2900 1516 
L 2900 3500 
L 3475 3500 
L 3475 0 
L 2900 0 
L 2900 538 
Q 2691 219 2414 64 
Q 2138 -91 1772 -91 
Q 1169 -91 856 284 
Q 544 659 544 1381 
z
M 1991 3584 
L 1991 3584 
z
" transform="scale(0.015625)"/>
     </defs>
     <use xlink:href="#DejaVuSans-54"/>
     <use xlink:href="#DejaVuSans-72" transform="translate(46.333984 0)"/>
     <use xlink:href="#DejaVuSans-75" transform="translate(87.447266 0)"/>
     <use xlink:href="#DejaVuSans-65" transform="translate(150.826172 0)"/>
     <use xlink:href="#DejaVuSans-20" transform="translate(212.349609 0)"/>
     <use xlink:href="#DejaVuSans-44" transform="translate(244.136719 0)"/>
     <use xlink:href="#DejaVuSans-65" transform="translate(321.138672 0)"/>
     <use xlink:href="#DejaVuSans-72" transform="translate(382.662109 0)"/>
     <use xlink:href="#DejaVuSans-69" transform="translate(423.775391 0)"/>
     <use xlink:href="#DejaVuSans-76" transform="translate(451.558594 0)"/>
     <use xlink:href="#DejaVuSans-61" transform="translate(510.738281 0)"/>
     <use xlink:href="#DejaVuSans-74" transform="translate(572.017578 0)"/>
     <use xlink:href="#DejaVuSans-69" transform="translate(611.226562 0)"/>
     <use xlink:href="#DejaVuSans-76" transform="translate(639.009766 0)"/>
     <use xlink:href="#DejaVuSans-65" transform="translate(698.189453 0)"/>
    </g>
   </g>
   <g id="line2d_36">
    <path d="M 746.138437 27.776563 
L 756.138437 27.776563 
L 766.138437 27.776563 
" style="fill: none; stroke-dasharray: 3.5,5.775; stroke-dashoffset: 0; stroke: #ff0000; stroke-opacity: 0.8; stroke-width: 3.5"/>
   </g>
   <g id="text_24">
    <!-- AutoSINDy -->
    <g transform="translate(774.138437 31.276563) scale(0.1 -0.1)">
     <defs>
      <path id="DejaVuSans-41" d="M 2188 4044 
L 1331 1722 
L 3047 1722 
L 2188 4044 
z
M 1831 4666 
L 2547 4666 
L 4325 0 
L 3669 0 
L 3244 1197 
L 1141 1197 
L 716 0 
L 50 0 
L 1831 4666 
z
" transform="scale(0.015625)"/>
      <path id="DejaVuSans-53" d="M 3425 4513 
L 3425 3897 
Q 3066 4069 2747 4153 
Q 2428 4238 2131 4238 
Q 1616 4238 1336 4038 
Q 1056 3838 1056 3469 
Q 1056 3159 1242 3001 
Q 1428 2844 1947 2747 
L 2328 2669 
Q 3034 2534 3370 2195 
Q 3706 1856 3706 1288 
Q 3706 609 3251 259 
Q 2797 -91 1919 -91 
Q 1588 -91 1214 -16 
Q 841 59 441 206 
L 441 856 
Q 825 641 1194 531 
Q 1563 422 1919 422 
Q 2459 422 2753 634 
Q 3047 847 3047 1241 
Q 3047 1584 2836 1778 
Q 2625 1972 2144 2069 
L 1759 2144 
Q 1053 2284 737 2584 
Q 422 2884 422 3419 
Q 422 4038 858 4394 
Q 1294 4750 2059 4750 
Q 2388 4750 2728 4690 
Q 3069 4631 3425 4513 
z
" transform="scale(0.015625)"/>
      <path id="DejaVuSans-49" d="M 628 4666 
L 1259 4666 
L 1259 0 
L 628 0 
L 628 4666 
z
" transform="scale(0.015625)"/>
     </defs>
     <use xlink:href="#DejaVuSans-41"/>
     <use xlink:href="#DejaVuSans-75" transform="translate(68.408203 0)"/>
     <use xlink:href="#DejaVuSans-74" transform="translate(131.787109 0)"/>
     <use xlink:href="#DejaVuSans-6f" transform="translate(170.996094 0)"/>
     <use xlink:href="#DejaVuSans-53" transform="translate(232.177734 0)"/>
     <use xlink:href="#DejaVuSans-49" transform="translate(295.654297 0)"/>
     <use xlink:href="#DejaVuSans-4e" transform="translate(325.146484 0)"/>
     <use xlink:href="#DejaVuSans-44" transform="translate(399.951172 0)"/>
     <use xlink:href="#DejaVuSans-79" transform="translate(476.953125 0)"/>
    </g>
   </g>
   <g id="line2d_37">
    <path d="M 746.138437 42.454688 
L 756.138437 42.454688 
L 766.138437 42.454688 
" style="fill: none; stroke-dasharray: 22.4,5.6,3.5,5.6; stroke-dashoffset: 0; stroke: #008000; stroke-opacity: 0.8; stroke-width: 3.5"/>
   </g>
   <g id="text_25">
    <!-- Standard SINDy -->
    <g transform="translate(774.138437 45.954688) scale(0.1 -0.1)">
     <defs>
      <path id="DejaVuSans-64" d="M 2906 2969 
L 2906 4863 
L 3481 4863 
L 3481 0 
L 2906 0 
L 2906 525 
Q 2725 213 2448 61 
Q 2172 -91 1784 -91 
Q 1150 -91 751 415 
Q 353 922 353 1747 
Q 353 2572 751 3078 
Q 1150 3584 1784 3584 
Q 2172 3584 2448 3432 
Q 2725 3281 2906 2969 
z
M 947 1747 
Q 947 1113 1208 752 
Q 1469 391 1925 391 
Q 2381 391 2643 752 
Q 2906 1113 2906 1747 
Q 2906 2381 2643 2742 
Q 2381 3103 1925 3103 
Q 1469 3103 1208 2742 
Q 947 2381 947 1747 
z
" transform="scale(0.015625)"/>
     </defs>
     <use xlink:href="#DejaVuSans-53"/>
     <use xlink:href="#DejaVuSans-74" transform="translate(63.476562 0)"/>
     <use xlink:href="#DejaVuSans-61" transform="translate(102.685547 0)"/>
     <use xlink:href="#DejaVuSans-6e" transform="translate(163.964844 0)"/>
     <use xlink:href="#DejaVuSans-64" transform="translate(227.34375 0)"/>
     <use xlink:href="#DejaVuSans-61" transform="translate(290.820312 0)"/>
     <use xlink:href="#DejaVuSans-72" transform="translate(352.099609 0)"/>
     <use xlink:href="#DejaVuSans-64" transform="translate(391.462891 0)"/>
     <use xlink:href="#DejaVuSans-20" transform="translate(454.939453 0)"/>
     <use xlink:href="#DejaVuSans-53" transform="translate(486.726562 0)"/>
     <use xlink:href="#DejaVuSans-49" transform="translate(550.203125 0)"/>
     <use xlink:href="#DejaVuSans-4e" transform="translate(579.695312 0)"/>
     <use xlink:href="#DejaVuSans-44" transform="translate(654.5 0)"/>
     <use xlink:href="#DejaVuSans-79" transform="translate(731.501953 0)"/>
    </g>
   </g>
   <g id="line2d_38">
    <path d="M 746.138437 57.132813 
L 756.138437 57.132813 
L 766.138437 57.132813 
" style="fill: none; stroke-dasharray: 12.95,5.6; stroke-dashoffset: 0; stroke: #0000ff; stroke-opacity: 0.8; stroke-width: 3.5"/>
   </g>
   <g id="text_26">
    <!-- Standard PySR -->
    <g transform="translate(774.138437 60.632813) scale(0.1 -0.1)">
     <defs>
      <path id="DejaVuSans-50" d="M 1259 4147 
L 1259 2394 
L 2053 2394 
Q 2494 2394 2734 2622 
Q 2975 2850 2975 3272 
Q 2975 3691 2734 3919 
Q 2494 4147 2053 4147 
L 1259 4147 
z
M 628 4666 
L 2053 4666 
Q 2838 4666 3239 4311 
Q 3641 3956 3641 3272 
Q 3641 2581 3239 2228 
Q 2838 1875 2053 1875 
L 1259 1875 
L 1259 0 
L 628 0 
L 628 4666 
z
" transform="scale(0.015625)"/>
      <path id="DejaVuSans-52" d="M 2841 2188 
Q 3044 2119 3236 1894 
Q 3428 1669 3622 1275 
L 4263 0 
L 3584 0 
L 2988 1197 
Q 2756 1666 2539 1819 
Q 2322 1972 1947 1972 
L 1259 1972 
L 1259 0 
L 628 0 
L 628 4666 
L 2053 4666 
Q 2853 4666 3247 4331 
Q 3641 3997 3641 3322 
Q 3641 2881 3436 2590 
Q 3231 2300 2841 2188 
z
M 1259 4147 
L 1259 2491 
L 2053 2491 
Q 2509 2491 2742 2702 
Q 2975 2913 2975 3322 
Q 2975 3731 2742 3939 
Q 2509 4147 2053 4147 
L 1259 4147 
z
" transform="scale(0.015625)"/>
     </defs>
     <use xlink:href="#DejaVuSans-53"/>
     <use xlink:href="#DejaVuSans-74" transform="translate(63.476562 0)"/>
     <use xlink:href="#DejaVuSans-61" transform="translate(102.685547 0)"/>
     <use xlink:href="#DejaVuSans-6e" transform="translate(163.964844 0)"/>
     <use xlink:href="#DejaVuSans-64" transform="translate(227.34375 0)"/>
     <use xlink:href="#DejaVuSans-61" transform="translate(290.820312 0)"/>
     <use xlink:href="#DejaVuSans-72" transform="translate(352.099609 0)"/>
     <use xlink:href="#DejaVuSans-64" transform="translate(391.462891 0)"/>
     <use xlink:href="#DejaVuSans-20" transform="translate(454.939453 0)"/>
     <use xlink:href="#DejaVuSans-50" transform="translate(486.726562 0)"/>
     <use xlink:href="#DejaVuSans-79" transform="translate(547.029297 0)"/>
     <use xlink:href="#DejaVuSans-53" transform="translate(606.208984 0)"/>
     <use xlink:href="#DejaVuSans-52" transform="translate(669.685547 0)"/>
    </g>
   </g>
  </g>
 </g>
 <defs>
  <clipPath id="p152a64f2f4">
   <rect x="42.620313" y="42.654002" width="806.59" height="167.642999"/>
  </clipPath>
  <clipPath id="pce42a251e0">
   <rect x="42.620313" y="224.597001" width="806.59" height="167.642999"/>
  </clipPath>
 </defs>
</svg>
