<?xml version="1.0" encoding="utf-8" standalone="no"?>
<!DOCTYPE svg PUBLIC "-//W3C//DTD SVG 1.1//EN"
  "http://www.w3.org/Graphics/SVG/1.1/DTD/svg11.dtd">
<svg xmlns:xlink="http://www.w3.org/1999/xlink" width="568.380313pt" height="567.994375pt" viewBox="0 0 568.380313 567.994375" xmlns="http://www.w3.org/2000/svg" version="1.1">
 <metadata>
  <rdf:RDF xmlns:dc="http://purl.org/dc/elements/1.1/" xmlns:cc="http://creativecommons.org/ns#" xmlns:rdf="http://www.w3.org/1999/02/22-rdf-syntax-ns#">
   <cc:Work>
    <dc:type rdf:resource="http://purl.org/dc/dcmitype/StillImage"/>
    <dc:date>2026-04-05T22:13:06.356478</dc:date>
    <dc:format>image/svg+xml</dc:format>
    <dc:creator>
     <cc:Agent>
      <dc:title>Matplotlib v3.10.7, https://matplotlib.org/</dc:title>
     </cc:Agent>
    </dc:creator>
   </cc:Work>
  </rdf:RDF>
 </metadata>
 <defs>
  <style type="text/css">*{stroke-linejoin: round; stroke-linecap: butt}</style>
 </defs>
 <g id="figure_1">
  <g id="patch_1">
   <path d="M 0 567.994375 
L 568.380313 567.994375 
L 568.380313 0 
L 0 0 
z
" style="fill: #ffffff"/>
  </g>
  <g id="axes_1">
   <g id="patch_2">
    <path d="M 42.620313 530.438125 
L 561.180312 530.438125 
L 561.180312 22.318125 
L 42.620313 22.318125 
z
" style="fill: #ffffff"/>
   </g>
   <g id="matplotlib.axis_1">
    <g id="xtick_1">
     <g id="line2d_1">
      <defs>
       <path id="m55cef41cad" d="M 0 0 
L 0 3.5 
" style="stroke: #000000; stroke-width: 0.8"/>
      </defs>
      <g>
       <use xlink:href="#m55cef41cad" x="68.584995" y="530.438125" style="stroke: #000000; stroke-width: 0.8"/>
      </g>
     </g>
     <g id="text_1">
      <!-- −2.0 -->
      <g transform="translate(56.443588 545.036562) scale(0.1 -0.1)">
       <defs>
        <path id="DejaVuSans-2212" d="M 678 2272 
L 4684 2272 
L 4684 1741 
L 678 1741 
L 678 2272 
z
" transform="scale(0.015625)"/>
        <path id="DejaVuSans-32" d="M 1228 531 
L 3431 531 
L 3431 0 
L 469 0 
L 469 531 
Q 828 903 1448 1529 
Q 2069 2156 2228 2338 
Q 2531 2678 2651 2914 
Q 2772 3150 2772 3378 
Q 2772 3750 2511 3984 
Q 2250 4219 1831 4219 
Q 1534 4219 1204 4116 
Q 875 4013 500 3803 
L 500 4441 
Q 881 4594 1212 4672 
Q 1544 4750 1819 4750 
Q 2544 4750 2975 4387 
Q 3406 4025 3406 3419 
Q 3406 3131 3298 2873 
Q 3191 2616 2906 2266 
Q 2828 2175 2409 1742 
Q 1991 1309 1228 531 
z
" transform="scale(0.015625)"/>
        <path id="DejaVuSans-2e" d="M 684 794 
L 1344 794 
L 1344 0 
L 684 0 
L 684 794 
z
" transform="scale(0.015625)"/>
        <path id="DejaVuSans-30" d="M 2034 4250 
Q 1547 4250 1301 3770 
Q 1056 3291 1056 2328 
Q 1056 1369 1301 889 
Q 1547 409 2034 409 
Q 2525 409 2770 889 
Q 3016 1369 3016 2328 
Q 3016 3291 2770 3770 
Q 2525 4250 2034 4250 
z
M 2034 4750 
Q 2819 4750 3233 4129 
Q 3647 3509 3647 2328 
Q 3647 1150 3233 529 
Q 2819 -91 2034 -91 
Q 1250 -91 836 529 
Q 422 1150 422 2328 
Q 422 3509 836 4129 
Q 1250 4750 2034 4750 
z
" transform="scale(0.015625)"/>
       </defs>
       <use xlink:href="#DejaVuSans-2212"/>
       <use xlink:href="#DejaVuSans-32" transform="translate(83.789062 0)"/>
       <use xlink:href="#DejaVuSans-2e" transform="translate(147.412109 0)"/>
       <use xlink:href="#DejaVuSans-30" transform="translate(179.199219 0)"/>
      </g>
     </g>
    </g>
    <g id="xtick_2">
     <g id="line2d_2">
      <g>
       <use xlink:href="#m55cef41cad" x="126.835434" y="530.438125" style="stroke: #000000; stroke-width: 0.8"/>
      </g>
     </g>
     <g id="text_2">
      <!-- −1.5 -->
      <g transform="translate(114.694028 545.036562) scale(0.1 -0.1)">
       <defs>
        <path id="DejaVuSans-31" d="M 794 531 
L 1825 531 
L 1825 4091 
L 703 3866 
L 703 4441 
L 1819 4666 
L 2450 4666 
L 2450 531 
L 3481 531 
L 3481 0 
L 794 0 
L 794 531 
z
" transform="scale(0.015625)"/>
        <path id="DejaVuSans-35" d="M 691 4666 
L 3169 4666 
L 3169 4134 
L 1269 4134 
L 1269 2991 
Q 1406 3038 1543 3061 
Q 1681 3084 1819 3084 
Q 2600 3084 3056 2656 
Q 3513 2228 3513 1497 
Q 3513 744 3044 326 
Q 2575 -91 1722 -91 
Q 1428 -91 1123 -41 
Q 819 9 494 109 
L 494 744 
Q 775 591 1075 516 
Q 1375 441 1709 441 
Q 2250 441 2565 725 
Q 2881 1009 2881 1497 
Q 2881 1984 2565 2268 
Q 2250 2553 1709 2553 
Q 1456 2553 1204 2497 
Q 953 2441 691 2322 
L 691 4666 
z
" transform="scale(0.015625)"/>
       </defs>
       <use xlink:href="#DejaVuSans-2212"/>
       <use xlink:href="#DejaVuSans-31" transform="translate(83.789062 0)"/>
       <use xlink:href="#DejaVuSans-2e" transform="translate(147.412109 0)"/>
       <use xlink:href="#DejaVuSans-35" transform="translate(179.199219 0)"/>
      </g>
     </g>
    </g>
    <g id="xtick_3">
     <g id="line2d_3">
      <g>
       <use xlink:href="#m55cef41cad" x="185.085873" y="530.438125" style="stroke: #000000; stroke-width: 0.8"/>
      </g>
     </g>
     <g id="text_3">
      <!-- −1.0 -->
      <g transform="translate(172.944467 545.036562) scale(0.1 -0.1)">
       <use xlink:href="#DejaVuSans-2212"/>
       <use xlink:href="#DejaVuSans-31" transform="translate(83.789062 0)"/>
       <use xlink:href="#DejaVuSans-2e" transform="translate(147.412109 0)"/>
       <use xlink:href="#DejaVuSans-30" transform="translate(179.199219 0)"/>
      </g>
     </g>
    </g>
    <g id="xtick_4">
     <g id="line2d_4">
      <g>
       <use xlink:href="#m55cef41cad" x="243.336312" y="530.438125" style="stroke: #000000; stroke-width: 0.8"/>
      </g>
     </g>
     <g id="text_4">
      <!-- −0.5 -->
      <g transform="translate(231.194906 545.036562) scale(0.1 -0.1)">
       <use xlink:href="#DejaVuSans-2212"/>
       <use xlink:href="#DejaVuSans-30" transform="translate(83.789062 0)"/>
       <use xlink:href="#DejaVuSans-2e" transform="translate(147.412109 0)"/>
       <use xlink:href="#DejaVuSans-35" transform="translate(179.199219 0)"/>
      </g>
     </g>
    </g>
    <g id="xtick_5">
     <g id="line2d_5">
      <g>
       <use xlink:href="#m55cef41cad" x="301.586751" y="530.438125" style="stroke: #000000; stroke-width: 0.8"/>
      </g>
     </g>
     <g id="text_5">
      <!-- 0.0 -->
      <g transform="translate(293.635189 545.036562) scale(0.1 -0.1)">
       <use xlink:href="#DejaVuSans-30"/>
       <use xlink:href="#DejaVuSans-2e" transform="translate(63.623047 0)"/>
       <use xlink:href="#DejaVuSans-30" transform="translate(95.410156 0)"/>
      </g>
     </g>
    </g>
    <g id="xtick_6">
     <g id="line2d_6">
      <g>
       <use xlink:href="#m55cef41cad" x="359.837191" y="530.438125" style="stroke: #000000; stroke-width: 0.8"/>
      </g>
     </g>
     <g id="text_6">
      <!-- 0.5 -->
      <g transform="translate(351.885628 545.036562) scale(0.1 -0.1)">
       <use xlink:href="#DejaVuSans-30"/>
       <use xlink:href="#DejaVuSans-2e" transform="translate(63.623047 0)"/>
       <use xlink:href="#DejaVuSans-35" transform="translate(95.410156 0)"/>
      </g>
     </g>
    </g>
    <g id="xtick_7">
     <g id="line2d_7">
      <g>
       <use xlink:href="#m55cef41cad" x="418.08763" y="530.438125" style="stroke: #000000; stroke-width: 0.8"/>
      </g>
     </g>
     <g id="text_7">
      <!-- 1.0 -->
      <g transform="translate(410.136067 545.036562) scale(0.1 -0.1)">
       <use xlink:href="#DejaVuSans-31"/>
       <use xlink:href="#DejaVuSans-2e" transform="translate(63.623047 0)"/>
       <use xlink:href="#DejaVuSans-30" transform="translate(95.410156 0)"/>
      </g>
     </g>
    </g>
    <g id="xtick_8">
     <g id="line2d_8">
      <g>
       <use xlink:href="#m55cef41cad" x="476.338069" y="530.438125" style="stroke: #000000; stroke-width: 0.8"/>
      </g>
     </g>
     <g id="text_8">
      <!-- 1.5 -->
      <g transform="translate(468.386506 545.036562) scale(0.1 -0.1)">
       <use xlink:href="#DejaVuSans-31"/>
       <use xlink:href="#DejaVuSans-2e" transform="translate(63.623047 0)"/>
       <use xlink:href="#DejaVuSans-35" transform="translate(95.410156 0)"/>
      </g>
     </g>
    </g>
    <g id="xtick_9">
     <g id="line2d_9">
      <g>
       <use xlink:href="#m55cef41cad" x="534.588508" y="530.438125" style="stroke: #000000; stroke-width: 0.8"/>
      </g>
     </g>
     <g id="text_9">
      <!-- 2.0 -->
      <g transform="translate(526.636946 545.036562) scale(0.1 -0.1)">
       <use xlink:href="#DejaVuSans-32"/>
       <use xlink:href="#DejaVuSans-2e" transform="translate(63.623047 0)"/>
       <use xlink:href="#DejaVuSans-30" transform="translate(95.410156 0)"/>
      </g>
     </g>
    </g>
    <g id="text_10">
     <!-- x0 -->
     <g transform="translate(295.759687 558.714687) scale(0.1 -0.1)">
      <defs>
       <path id="DejaVuSans-78" d="M 3513 3500 
L 2247 1797 
L 3578 0 
L 2900 0 
L 1881 1375 
L 863 0 
L 184 0 
L 1544 1831 
L 300 3500 
L 978 3500 
L 1906 2253 
L 2834 3500 
L 3513 3500 
z
" transform="scale(0.015625)"/>
      </defs>
      <use xlink:href="#DejaVuSans-78"/>
      <use xlink:href="#DejaVuSans-30" transform="translate(59.179688 0)"/>
     </g>
    </g>
   </g>
   <g id="matplotlib.axis_2">
    <g id="ytick_1">
     <g id="line2d_10">
      <defs>
       <path id="mc4e4ce82e9" d="M 0 0 
L -3.5 0 
" style="stroke: #000000; stroke-width: 0.8"/>
      </defs>
      <g>
       <use xlink:href="#mc4e4ce82e9" x="42.620313" y="518.179117" style="stroke: #000000; stroke-width: 0.8"/>
      </g>
     </g>
     <g id="text_11">
      <!-- −4 -->
      <g transform="translate(20.878125 521.978336) scale(0.1 -0.1)">
       <defs>
        <path id="DejaVuSans-34" d="M 2419 4116 
L 825 1625 
L 2419 1625 
L 2419 4116 
z
M 2253 4666 
L 3047 4666 
L 3047 1625 
L 3713 1625 
L 3713 1100 
L 3047 1100 
L 3047 0 
L 2419 0 
L 2419 1100 
L 313 1100 
L 313 1709 
L 2253 4666 
z
" transform="scale(0.015625)"/>
       </defs>
       <use xlink:href="#DejaVuSans-2212"/>
       <use xlink:href="#DejaVuSans-34" transform="translate(83.789062 0)"/>
      </g>
     </g>
    </g>
    <g id="ytick_2">
     <g id="line2d_11">
      <g>
       <use xlink:href="#mc4e4ce82e9" x="42.620313" y="457.711833" style="stroke: #000000; stroke-width: 0.8"/>
      </g>
     </g>
     <g id="text_12">
      <!-- −3 -->
      <g transform="translate(20.878125 461.511051) scale(0.1 -0.1)">
       <defs>
        <path id="DejaVuSans-33" d="M 2597 2516 
Q 3050 2419 3304 2112 
Q 3559 1806 3559 1356 
Q 3559 666 3084 287 
Q 2609 -91 1734 -91 
Q 1441 -91 1130 -33 
Q 819 25 488 141 
L 488 750 
Q 750 597 1062 519 
Q 1375 441 1716 441 
Q 2309 441 2620 675 
Q 2931 909 2931 1356 
Q 2931 1769 2642 2001 
Q 2353 2234 1838 2234 
L 1294 2234 
L 1294 2753 
L 1863 2753 
Q 2328 2753 2575 2939 
Q 2822 3125 2822 3475 
Q 2822 3834 2567 4026 
Q 2313 4219 1838 4219 
Q 1578 4219 1281 4162 
Q 984 4106 628 3988 
L 628 4550 
Q 988 4650 1302 4700 
Q 1616 4750 1894 4750 
Q 2613 4750 3031 4423 
Q 3450 4097 3450 3541 
Q 3450 3153 3228 2886 
Q 3006 2619 2597 2516 
z
" transform="scale(0.015625)"/>
       </defs>
       <use xlink:href="#DejaVuSans-2212"/>
       <use xlink:href="#DejaVuSans-33" transform="translate(83.789062 0)"/>
      </g>
     </g>
    </g>
    <g id="ytick_3">
     <g id="line2d_12">
      <g>
       <use xlink:href="#mc4e4ce82e9" x="42.620313" y="397.244548" style="stroke: #000000; stroke-width: 0.8"/>
      </g>
     </g>
     <g id="text_13">
      <!-- −2 -->
      <g transform="translate(20.878125 401.043767) scale(0.1 -0.1)">
       <use xlink:href="#DejaVuSans-2212"/>
       <use xlink:href="#DejaVuSans-32" transform="translate(83.789062 0)"/>
      </g>
     </g>
    </g>
    <g id="ytick_4">
     <g id="line2d_13">
      <g>
       <use xlink:href="#mc4e4ce82e9" x="42.620313" y="336.777264" style="stroke: #000000; stroke-width: 0.8"/>
      </g>
     </g>
     <g id="text_14">
      <!-- −1 -->
      <g transform="translate(20.878125 340.576483) scale(0.1 -0.1)">
       <use xlink:href="#DejaVuSans-2212"/>
       <use xlink:href="#DejaVuSans-31" transform="translate(83.789062 0)"/>
      </g>
     </g>
    </g>
    <g id="ytick_5">
     <g id="line2d_14">
      <g>
       <use xlink:href="#mc4e4ce82e9" x="42.620313" y="276.30998" style="stroke: #000000; stroke-width: 0.8"/>
      </g>
     </g>
     <g id="text_15">
      <!-- 0 -->
      <g transform="translate(29.257813 280.109199) scale(0.1 -0.1)">
       <use xlink:href="#DejaVuSans-30"/>
      </g>
     </g>
    </g>
    <g id="ytick_6">
     <g id="line2d_15">
      <g>
       <use xlink:href="#mc4e4ce82e9" x="42.620313" y="215.842696" style="stroke: #000000; stroke-width: 0.8"/>
      </g>
     </g>
     <g id="text_16">
      <!-- 1 -->
      <g transform="translate(29.257813 219.641914) scale(0.1 -0.1)">
       <use xlink:href="#DejaVuSans-31"/>
      </g>
     </g>
    </g>
    <g id="ytick_7">
     <g id="line2d_16">
      <g>
       <use xlink:href="#mc4e4ce82e9" x="42.620313" y="155.375411" style="stroke: #000000; stroke-width: 0.8"/>
      </g>
     </g>
     <g id="text_17">
      <!-- 2 -->
      <g transform="translate(29.257813 159.17463) scale(0.1 -0.1)">
       <use xlink:href="#DejaVuSans-32"/>
      </g>
     </g>
    </g>
    <g id="ytick_8">
     <g id="line2d_17">
      <g>
       <use xlink:href="#mc4e4ce82e9" x="42.620313" y="94.908127" style="stroke: #000000; stroke-width: 0.8"/>
      </g>
     </g>
     <g id="text_18">
      <!-- 3 -->
      <g transform="translate(29.257813 98.707346) scale(0.1 -0.1)">
       <use xlink:href="#DejaVuSans-33"/>
      </g>
     </g>
    </g>
    <g id="ytick_9">
     <g id="line2d_18">
      <g>
       <use xlink:href="#mc4e4ce82e9" x="42.620313" y="34.440843" style="stroke: #000000; stroke-width: 0.8"/>
      </g>
     </g>
     <g id="text_19">
      <!-- 4 -->
      <g transform="translate(29.257813 38.240062) scale(0.1 -0.1)">
       <use xlink:href="#DejaVuSans-34"/>
      </g>
     </g>
    </g>
    <g id="text_20">
     <!-- x1 -->
     <g transform="translate(14.798438 282.51875) rotate(-90) scale(0.1 -0.1)">
      <use xlink:href="#DejaVuSans-78"/>
      <use xlink:href="#DejaVuSans-31" transform="translate(59.179688 0)"/>
     </g>
    </g>
   </g>
   <g id="line2d_19">
    <path d="M 534.588508 336.777264 
L 532.342732 332.284775 
L 530.257919 328.424153 
L 528.311436 325.094028 
L 526.482838 322.204935 
L 524.757671 319.699385 
L 523.123595 317.529847 
L 520.083942 314.025254 
L 517.283508 311.377207 
L 514.658155 309.336633 
L 512.168895 307.783182 
L 509.785435 306.622207 
L 507.480925 305.769201 
L 505.232373 305.154063 
L 503.021814 304.725921 
L 499.752374 304.371636 
L 496.509602 304.291533 
L 493.264519 304.41991 
L 488.893498 304.836802 
L 484.438927 305.490681 
L 478.704809 306.597601 
L 472.728045 307.998346 
L 466.448934 309.700646 
L 459.81124 311.74291 
L 452.743692 314.189199 
L 446.720773 316.498196 
L 440.311822 319.184936 
L 435.207588 321.51661 
L 429.819224 324.162548 
L 424.117303 327.157523 
L 418.057985 330.561333 
L 411.583024 334.458805 
L 404.619764 338.95979 
L 397.081141 344.199167 
L 391.686229 348.180238 
L 385.957173 352.613597 
L 379.857504 357.557745 
L 373.347905 363.076128 
L 366.386214 369.237136 
L 358.927423 376.1141 
L 350.923116 383.784346 
L 342.301881 392.320346 
L 332.982323 401.815981 
L 317.528514 417.937847 
L 300.087957 436.166794 
L 287.244962 449.262441 
L 280.441764 455.986818 
L 273.376645 462.741949 
L 266.04853 469.445286 
L 258.461317 476.00096 
L 250.623878 482.299782 
L 242.550057 488.219244 
L 234.25867 493.623517 
L 225.773506 498.363451 
L 217.123329 502.276578 
L 208.341874 505.187109 
L 199.46683 506.906831 
L 190.538916 507.273176 
L 181.622565 506.187306 
L 172.783181 503.590117 
L 164.082461 499.460072 
L 155.5784 493.813212 
L 147.325283 486.703146 
L 139.373693 478.221057 
L 131.770506 468.495701 
L 124.558892 457.693405 
L 117.778315 446.018069 
L 111.468984 433.762826 
L 105.649347 421.233643 
L 100.315314 408.631645 
L 95.459597 396.139608 
L 91.071801 383.922585 
L 87.13843 372.127913 
L 83.64288 360.885207 
L 80.565446 350.306364 
L 77.883316 340.485561 
L 73.596699 323.38977 
L 70.513434 309.40545 
L 68.409344 298.07216 
L 67.097028 289.041885 
L 66.403011 281.934056 
L 66.191222 276.362711 
L 66.362777 272.01261 
L 66.83221 268.616862 
L 67.532584 265.956658 
L 68.416217 263.867176 
L 69.443755 262.213943 
L 70.5843 260.890613 
L 71.817334 259.823245 
L 73.126073 258.952061 
L 75.200087 257.906298 
L 77.380551 257.077484 
L 80.422874 256.192126 
L 85.212924 255.099893 
L 93.71843 253.475828 
L 107.698289 250.765099 
L 116.930384 248.730857 
L 125.79315 246.531936 
L 132.910913 244.556014 
L 140.519786 242.197686 
L 147.315118 239.851852 
L 154.608671 237.067825 
L 160.865462 234.457516 
L 167.557488 231.440759 
L 172.908103 228.827669 
L 178.576138 225.860917 
L 184.600368 222.488269 
L 191.034542 218.631401 
L 197.947382 214.185896 
L 205.42258 209.021243 
L 210.766575 205.102354 
L 216.436983 200.741937 
L 222.469692 195.881993 
L 228.903549 190.459373 
L 235.780358 184.405769 
L 243.144881 177.647722 
L 251.048031 170.117978 
L 259.563046 161.731892 
L 268.767908 152.37974 
L 284.031867 136.461066 
L 301.256784 118.422461 
L 313.941757 105.444339 
L 320.666323 98.741614 
L 327.647871 91.949486 
L 334.890721 85.174628 
L 342.394229 78.531334 
L 350.152227 72.138841 
L 358.153025 66.121325 
L 366.379409 60.607905 
L 374.808642 55.73264 
L 383.412461 51.634531 
L 392.157084 48.457518 
L 401.003201 46.350484 
L 409.905983 45.467253 
L 418.815074 45.966591 
L 427.674595 48.012202 
L 436.423305 51.809644 
L 444.994816 57.323862 
L 453.326668 64.345214 
L 461.36373 72.669592 
L 469.058205 82.098548 
L 476.369628 92.439286 
L 483.264869 103.504664 
L 489.718127 115.113195 
L 495.710937 127.089048 
L 501.232164 139.262044 
L 506.278009 151.467661 
L 510.852003 163.54703 
L 514.96501 175.346937 
L 518.635228 186.719822 
L 521.883601 197.495266 
L 524.730494 207.536249 
L 527.205234 216.822661 
L 529.336858 225.348739 
L 531.153823 233.120478 
L 533.954699 246.483703 
L 535.823911 257.195441 
L 536.960294 265.69112 
L 537.51281 272.369356 
L 537.605117 277.583688 
L 537.343215 281.649607 
L 536.804163 284.822067 
L 536.046308 287.299567 
L 535.119035 289.24772 
L 534.058831 290.793137 
L 532.890874 292.026609 
L 531.636554 293.023369 
L 530.313567 293.844408 
L 528.223788 294.832963 
L 526.030329 295.614668 
L 522.980959 296.465651 
L 518.185954 297.522578 
L 507.912293 299.447507 
L 495.724424 301.805598 
L 486.522796 303.818563 
L 478.843479 305.71192 
L 470.603221 307.98196 
L 462.994394 310.328173 
L 456.209135 312.63735 
L 448.949352 315.353468 
L 442.735162 317.903641 
L 436.091217 320.881511 
L 428.941052 324.392162 
L 423.19322 327.448541 
L 417.068816 330.932959 
L 410.534204 334.859087 
L 403.532874 339.342899 
L 398.557587 342.760749 
L 393.297202 346.600073 
L 387.714536 350.924529 
L 381.769004 355.794505 
L 375.416614 361.267115 
L 368.60997 367.396206 
L 361.298272 374.232351 
L 353.427315 381.822853 
L 340.445321 394.718453 
L 325.865784 409.544474 
L 297.394754 438.858011 
L 297.394754 438.858011 
" clip-path="url(#p28d48dda9c)" style="fill: none; stroke: #000000; stroke-opacity: 0.3; stroke-width: 7; stroke-linecap: square"/>
   </g>
   <g id="line2d_20">
    <path d="M 534.588508 336.777264 
L 528.622187 318.612725 
L 523.323152 303.406954 
L 518.6629 290.772661 
L 514.079893 279.037425 
L 512.974348 276.30998 
L 512.974348 276.30998 
" clip-path="url(#p28d48dda9c)" style="fill: none; stroke-dasharray: 22.4,5.6,3.5,5.6; stroke-dashoffset: 0; stroke: #0000ff; stroke-opacity: 0.8; stroke-width: 3.5"/>
   </g>
   <g id="patch_3">
    <path d="M 42.620313 530.438125 
L 42.620313 22.318125 
" style="fill: none; stroke: #000000; stroke-width: 0.8; stroke-linejoin: miter; stroke-linecap: square"/>
   </g>
   <g id="patch_4">
    <path d="M 561.180312 530.438125 
L 561.180312 22.318125 
" style="fill: none; stroke: #000000; stroke-width: 0.8; stroke-linejoin: miter; stroke-linecap: square"/>
   </g>
   <g id="patch_5">
    <path d="M 42.620313 530.438125 
L 561.180313 530.438125 
" style="fill: none; stroke: #000000; stroke-width: 0.8; stroke-linejoin: miter; stroke-linecap: square"/>
   </g>
   <g id="patch_6">
    <path d="M 42.620313 22.318125 
L 561.180313 22.318125 
" style="fill: none; stroke: #000000; stroke-width: 0.8; stroke-linejoin: miter; stroke-linecap: square"/>
   </g>
   <g id="line2d_21">
    <path d="M 534.588508 336.777264 
L 532.342769 332.28868 
L 530.257498 328.430055 
L 528.310898 325.104446 
L 526.483737 322.228688 
L 524.759948 319.735674 
L 521.570005 315.687596 
L 518.653181 312.618811 
L 515.943396 310.286174 
L 513.391132 308.516673 
L 510.95803 307.182164 
L 508.614279 306.18776 
L 506.336622 305.462667 
L 504.106237 304.952302 
L 500.817785 304.503285 
L 497.563467 304.346367 
L 494.313915 304.414199 
L 489.948985 304.775361 
L 485.508423 305.384779 
L 479.798445 306.439168 
L 473.85594 307.791725 
L 467.62346 309.446224 
L 461.040114 311.433878 
L 454.036491 313.811939 
L 448.075711 316.052403 
L 441.741567 318.658062 
L 434.97177 321.708486 
L 429.563353 324.34945 
L 423.828526 327.353794 
L 417.7213 330.789557 
L 411.187491 334.739484 
L 404.161122 339.307035 
L 396.564327 344.616831 
L 391.136515 348.644191 
L 385.381103 353.121782 
L 379.259924 358.111019 
L 372.732353 363.677245 
L 365.749868 369.894746 
L 358.259499 376.841427 
L 350.202404 384.598459 
L 341.512041 393.240159 
L 332.11804 402.839458 
L 316.541789 419.092166 
L 298.957029 437.469084 
L 286.006454 450.637786 
L 279.145726 457.372506 
L 272.024501 464.125899 
L 264.642342 470.821098 
L 257.005459 477.352615 
L 249.12179 483.609446 
L 241.001923 489.46525 
L 232.667365 494.767359 
L 224.142253 499.360461 
L 215.454152 503.075834 
L 206.642797 505.748833 
L 197.751846 507.220876 
L 188.828966 507.341761 
L 179.929553 505.999454 
L 171.111537 503.111436 
L 162.435646 498.639894 
L 153.962426 492.607742 
L 145.751915 485.076423 
L 137.858235 476.180474 
L 130.33255 466.084598 
L 123.216688 455.001519 
L 116.542318 443.167866 
L 110.337381 430.834009 
L 104.614183 418.244394 
L 99.376775 405.62756 
L 94.624625 393.202438 
L 90.345921 381.145201 
L 86.522538 369.592024 
L 83.133955 358.6617 
L 80.154132 348.426134 
L 77.555367 338.931039 
L 75.308538 330.195854 
L 73.384472 322.215343 
L 70.389684 308.433347 
L 68.354729 297.297497 
L 67.08983 288.430709 
L 66.434586 281.44098 
L 66.258483 275.964807 
L 66.45712 271.68702 
L 66.948396 268.345909 
L 67.668474 265.730428 
L 68.567988 263.673308 
L 69.609179 262.044436 
L 70.762901 260.742264 
L 72.007109 259.689333 
L 73.325024 258.826289 
L 75.412758 257.79034 
L 77.607163 256.969628 
L 80.664982 256.084502 
L 85.480649 254.992705 
L 94.918421 253.188915 
L 107.09891 250.818481 
L 116.295927 248.804516 
L 123.977281 246.921677 
L 132.215771 244.664432 
L 139.808582 242.337951 
L 146.582923 240.041341 
L 153.839189 237.329006 
L 160.05136 234.783844 
L 166.687643 231.822705 
L 173.819649 228.346202 
L 179.546844 225.324282 
L 185.648008 221.872709 
L 192.178168 217.906695 
L 199.202076 213.324214 
L 206.798582 207.998577 
L 212.227035 203.960541 
L 217.984529 199.470991 
L 224.107553 194.470634 
L 230.639328 188.891293 
L 237.625867 182.660559 
L 245.121661 175.699734 
L 253.185833 167.928819 
L 261.883575 159.268685 
L 271.286591 149.660749 
L 286.878749 133.379451 
L 304.481224 114.990557 
L 317.443821 101.822218 
L 324.310892 95.088697 
L 331.438524 88.339203 
L 338.825287 81.656949 
L 346.468631 75.133812 
L 354.357692 68.8929 
L 362.479601 63.062322 
L 370.818485 57.785587 
L 379.346685 53.224984 
L 388.033508 49.543311 
L 396.844464 46.914415 
L 405.733733 45.49222 
L 414.651514 45.414489 
L 423.544801 46.809957 
L 432.354377 49.757231 
L 441.019773 54.273534 
L 449.481158 60.351567 
L 457.676912 67.930887 
L 465.554791 76.861937 
L 473.064466 86.983564 
L 480.162357 98.08675 
L 486.817781 109.931041 
L 493.00548 122.270392 
L 498.708843 134.850619 
L 503.927796 147.453177 
L 508.663204 159.863158 
L 512.925416 171.899369 
L 516.732672 183.424347 
L 520.106457 194.325139 
L 523.072699 204.531749 
L 525.659018 213.996166 
L 527.894479 222.703514 
L 529.808431 230.654841 
L 532.785677 244.386786 
L 534.80692 255.47957 
L 536.061284 264.311623 
L 536.708127 271.273514 
L 536.877802 276.728232 
L 536.674195 280.9896 
L 536.179048 284.318253 
L 535.455923 286.92434 
L 534.553928 288.974241 
L 533.510894 290.59828 
L 532.355571 291.896635 
L 531.109915 292.946434 
L 529.790971 293.807929 
L 527.701669 294.841685 
L 525.505882 295.661099 
L 522.446516 296.545841 
L 517.628434 297.637528 
L 508.186002 299.442954 
L 495.998744 301.816839 
L 486.795819 303.834293 
L 479.10888 305.720775 
L 470.863717 307.982764 
L 463.264021 310.314575 
L 456.482868 312.616867 
L 449.218556 315.336397 
L 442.998796 317.888764 
L 436.353655 320.85889 
L 429.21127 324.346546 
L 423.475306 327.378208 
L 417.363675 330.842181 
L 410.821905 334.82234 
L 403.784341 339.422213 
L 396.17168 344.769292 
L 390.731563 348.823126 
L 384.960788 353.331096 
L 378.822524 358.352862 
L 372.274742 363.955413 
L 365.268919 370.212832 
L 357.752933 377.203586 
L 349.665596 385.007493 
L 340.941914 393.701856 
L 326.505412 408.547205 
L 291.839207 444.653868 
L 285.211009 451.313322 
L 285.211009 451.313322 
" clip-path="url(#p28d48dda9c)" style="fill: none; stroke-dasharray: 3.5,5.775; stroke-dashoffset: 0; stroke: #008000; stroke-opacity: 0.8; stroke-width: 3.5"/>
   </g>
   <g id="text_21">
    <!-- Phase Portrait (x0 vs x1) -->
    <g transform="translate(228.209062 16.318125) scale(0.12 -0.12)">
     <defs>
      <path id="DejaVuSans-50" d="M 1259 4147 
L 1259 2394 
L 2053 2394 
Q 2494 2394 2734 2622 
Q 2975 2850 2975 3272 
Q 2975 3691 2734 3919 
Q 2494 4147 2053 4147 
L 1259 4147 
z
M 628 4666 
L 2053 4666 
Q 2838 4666 3239 4311 
Q 3641 3956 3641 3272 
Q 3641 2581 3239 2228 
Q 2838 1875 2053 1875 
L 1259 1875 
L 1259 0 
L 628 0 
L 628 4666 
z
" transform="scale(0.015625)"/>
      <path id="DejaVuSans-68" d="M 3513 2113 
L 3513 0 
L 2938 0 
L 2938 2094 
Q 2938 2591 2744 2837 
Q 2550 3084 2163 3084 
Q 1697 3084 1428 2787 
Q 1159 2491 1159 1978 
L 1159 0 
L 581 0 
L 581 4863 
L 1159 4863 
L 1159 2956 
Q 1366 3272 1645 3428 
Q 1925 3584 2291 3584 
Q 2894 3584 3203 3211 
Q 3513 2838 3513 2113 
z
" transform="scale(0.015625)"/>
      <path id="DejaVuSans-61" d="M 2194 1759 
Q 1497 1759 1228 1600 
Q 959 1441 959 1056 
Q 959 750 1161 570 
Q 1363 391 1709 391 
Q 2188 391 2477 730 
Q 2766 1069 2766 1631 
L 2766 1759 
L 2194 1759 
z
M 3341 1997 
L 3341 0 
L 2766 0 
L 2766 531 
Q 2569 213 2275 61 
Q 1981 -91 1556 -91 
Q 1019 -91 701 211 
Q 384 513 384 1019 
Q 384 1609 779 1909 
Q 1175 2209 1959 2209 
L 2766 2209 
L 2766 2266 
Q 2766 2663 2505 2880 
Q 2244 3097 1772 3097 
Q 1472 3097 1187 3025 
Q 903 2953 641 2809 
L 641 3341 
Q 956 3463 1253 3523 
Q 1550 3584 1831 3584 
Q 2591 3584 2966 3190 
Q 3341 2797 3341 1997 
z
" transform="scale(0.015625)"/>
      <path id="DejaVuSans-73" d="M 2834 3397 
L 2834 2853 
Q 2591 2978 2328 3040 
Q 2066 3103 1784 3103 
Q 1356 3103 1142 2972 
Q 928 2841 928 2578 
Q 928 2378 1081 2264 
Q 1234 2150 1697 2047 
L 1894 2003 
Q 2506 1872 2764 1633 
Q 3022 1394 3022 966 
Q 3022 478 2636 193 
Q 2250 -91 1575 -91 
Q 1294 -91 989 -36 
Q 684 19 347 128 
L 347 722 
Q 666 556 975 473 
Q 1284 391 1588 391 
Q 1994 391 2212 530 
Q 2431 669 2431 922 
Q 2431 1156 2273 1281 
Q 2116 1406 1581 1522 
L 1381 1569 
Q 847 1681 609 1914 
Q 372 2147 372 2553 
Q 372 3047 722 3315 
Q 1072 3584 1716 3584 
Q 2034 3584 2315 3537 
Q 2597 3491 2834 3397 
z
" transform="scale(0.015625)"/>
      <path id="DejaVuSans-65" d="M 3597 1894 
L 3597 1613 
L 953 1613 
Q 991 1019 1311 708 
Q 1631 397 2203 397 
Q 2534 397 2845 478 
Q 3156 559 3463 722 
L 3463 178 
Q 3153 47 2828 -22 
Q 2503 -91 2169 -91 
Q 1331 -91 842 396 
Q 353 884 353 1716 
Q 353 2575 817 3079 
Q 1281 3584 2069 3584 
Q 2775 3584 3186 3129 
Q 3597 2675 3597 1894 
z
M 3022 2063 
Q 3016 2534 2758 2815 
Q 2500 3097 2075 3097 
Q 1594 3097 1305 2825 
Q 1016 2553 972 2059 
L 3022 2063 
z
" transform="scale(0.015625)"/>
      <path id="DejaVuSans-20" transform="scale(0.015625)"/>
      <path id="DejaVuSans-6f" d="M 1959 3097 
Q 1497 3097 1228 2736 
Q 959 2375 959 1747 
Q 959 1119 1226 758 
Q 1494 397 1959 397 
Q 2419 397 2687 759 
Q 2956 1122 2956 1747 
Q 2956 2369 2687 2733 
Q 2419 3097 1959 3097 
z
M 1959 3584 
Q 2709 3584 3137 3096 
Q 3566 2609 3566 1747 
Q 3566 888 3137 398 
Q 2709 -91 1959 -91 
Q 1206 -91 779 398 
Q 353 888 353 1747 
Q 353 2609 779 3096 
Q 1206 3584 1959 3584 
z
" transform="scale(0.015625)"/>
      <path id="DejaVuSans-72" d="M 2631 2963 
Q 2534 3019 2420 3045 
Q 2306 3072 2169 3072 
Q 1681 3072 1420 2755 
Q 1159 2438 1159 1844 
L 1159 0 
L 581 0 
L 581 3500 
L 1159 3500 
L 1159 2956 
Q 1341 3275 1631 3429 
Q 1922 3584 2338 3584 
Q 2397 3584 2469 3576 
Q 2541 3569 2628 3553 
L 2631 2963 
z
" transform="scale(0.015625)"/>
      <path id="DejaVuSans-74" d="M 1172 4494 
L 1172 3500 
L 2356 3500 
L 2356 3053 
L 1172 3053 
L 1172 1153 
Q 1172 725 1289 603 
Q 1406 481 1766 481 
L 2356 481 
L 2356 0 
L 1766 0 
Q 1100 0 847 248 
Q 594 497 594 1153 
L 594 3053 
L 172 3053 
L 172 3500 
L 594 3500 
L 594 4494 
L 1172 4494 
z
" transform="scale(0.015625)"/>
      <path id="DejaVuSans-69" d="M 603 3500 
L 1178 3500 
L 1178 0 
L 603 0 
L 603 3500 
z
M 603 4863 
L 1178 4863 
L 1178 4134 
L 603 4134 
L 603 4863 
z
" transform="scale(0.015625)"/>
      <path id="DejaVuSans-28" d="M 1984 4856 
Q 1566 4138 1362 3434 
Q 1159 2731 1159 2009 
Q 1159 1288 1364 580 
Q 1569 -128 1984 -844 
L 1484 -844 
Q 1016 -109 783 600 
Q 550 1309 550 2009 
Q 550 2706 781 3412 
Q 1013 4119 1484 4856 
L 1984 4856 
z
" transform="scale(0.015625)"/>
      <path id="DejaVuSans-76" d="M 191 3500 
L 800 3500 
L 1894 563 
L 2988 3500 
L 3597 3500 
L 2284 0 
L 1503 0 
L 191 3500 
z
" transform="scale(0.015625)"/>
      <path id="DejaVuSans-29" d="M 513 4856 
L 1013 4856 
Q 1481 4119 1714 3412 
Q 1947 2706 1947 2009 
Q 1947 1309 1714 600 
Q 1481 -109 1013 -844 
L 513 -844 
Q 928 -128 1133 580 
Q 1338 1288 1338 2009 
Q 1338 2731 1133 3434 
Q 928 4138 513 4856 
z
" transform="scale(0.015625)"/>
     </defs>
     <use xlink:href="#DejaVuSans-50"/>
     <use xlink:href="#DejaVuSans-68" transform="translate(60.302734 0)"/>
     <use xlink:href="#DejaVuSans-61" transform="translate(123.681641 0)"/>
     <use xlink:href="#DejaVuSans-73" transform="translate(184.960938 0)"/>
     <use xlink:href="#DejaVuSans-65" transform="translate(237.060547 0)"/>
     <use xlink:href="#DejaVuSans-20" transform="translate(298.583984 0)"/>
     <use xlink:href="#DejaVuSans-50" transform="translate(330.371094 0)"/>
     <use xlink:href="#DejaVuSans-6f" transform="translate(387.048828 0)"/>
     <use xlink:href="#DejaVuSans-72" transform="translate(448.230469 0)"/>
     <use xlink:href="#DejaVuSans-74" transform="translate(489.34375 0)"/>
     <use xlink:href="#DejaVuSans-72" transform="translate(528.552734 0)"/>
     <use xlink:href="#DejaVuSans-61" transform="translate(569.666016 0)"/>
     <use xlink:href="#DejaVuSans-69" transform="translate(630.945312 0)"/>
     <use xlink:href="#DejaVuSans-74" transform="translate(658.728516 0)"/>
     <use xlink:href="#DejaVuSans-20" transform="translate(697.9375 0)"/>
     <use xlink:href="#DejaVuSans-28" transform="translate(729.724609 0)"/>
     <use xlink:href="#DejaVuSans-78" transform="translate(768.738281 0)"/>
     <use xlink:href="#DejaVuSans-30" transform="translate(827.917969 0)"/>
     <use xlink:href="#DejaVuSans-20" transform="translate(891.541016 0)"/>
     <use xlink:href="#DejaVuSans-76" transform="translate(923.328125 0)"/>
     <use xlink:href="#DejaVuSans-73" transform="translate(982.507812 0)"/>
     <use xlink:href="#DejaVuSans-20" transform="translate(1034.607422 0)"/>
     <use xlink:href="#DejaVuSans-78" transform="translate(1066.394531 0)"/>
     <use xlink:href="#DejaVuSans-31" transform="translate(1125.574219 0)"/>
     <use xlink:href="#DejaVuSans-29" transform="translate(1189.197266 0)"/>
    </g>
   </g>
   <g id="line2d_22">
    <path d="M 534.588508 336.777264 
L 532.342769 332.28868 
L 530.257498 328.430055 
L 528.310898 325.104446 
L 526.483737 322.228688 
L 524.759948 319.735674 
L 521.570005 315.687596 
L 518.653181 312.618811 
L 515.943396 310.286174 
L 513.391132 308.516673 
L 510.95803 307.182164 
L 508.614279 306.18776 
L 506.336622 305.462667 
L 504.106237 304.952302 
L 500.817785 304.503285 
L 497.563467 304.346367 
L 494.313915 304.414199 
L 489.948985 304.775361 
L 485.508423 305.384779 
L 479.798445 306.439168 
L 473.85594 307.791725 
L 467.62346 309.446224 
L 461.040114 311.433878 
L 454.036491 313.811939 
L 448.075711 316.052403 
L 441.741567 318.658062 
L 434.97177 321.708486 
L 429.563353 324.34945 
L 423.828526 327.353794 
L 417.7213 330.789557 
L 411.187491 334.739484 
L 404.161122 339.307035 
L 396.564327 344.616831 
L 391.136515 348.644191 
L 385.381103 353.121782 
L 379.259924 358.111019 
L 372.732353 363.677245 
L 365.749868 369.894746 
L 358.259499 376.841427 
L 350.202404 384.598459 
L 341.512041 393.240159 
L 332.11804 402.839458 
L 316.541789 419.092166 
L 298.957029 437.469084 
L 286.006454 450.637786 
L 279.145726 457.372506 
L 272.024501 464.125899 
L 264.642342 470.821098 
L 257.005459 477.352615 
L 249.12179 483.609446 
L 241.001923 489.46525 
L 232.667365 494.767359 
L 224.142253 499.360461 
L 215.454152 503.075834 
L 206.642797 505.748833 
L 197.751846 507.220876 
L 188.828966 507.341761 
L 179.929553 505.999454 
L 171.111537 503.111436 
L 162.435646 498.639894 
L 153.962426 492.607742 
L 145.751915 485.076423 
L 137.858235 476.180474 
L 130.33255 466.084598 
L 123.216688 455.001519 
L 116.542318 443.167866 
L 110.337381 430.834009 
L 104.614183 418.244394 
L 99.376775 405.62756 
L 94.624625 393.202438 
L 90.345921 381.145201 
L 86.522538 369.592024 
L 83.133955 358.6617 
L 80.154132 348.426134 
L 77.555367 338.931039 
L 75.308538 330.195854 
L 73.384472 322.215343 
L 70.389684 308.433347 
L 68.354729 297.297497 
L 67.08983 288.430709 
L 66.434586 281.44098 
L 66.258483 275.964807 
L 66.45712 271.68702 
L 66.948396 268.345909 
L 67.668474 265.730428 
L 68.567988 263.673308 
L 69.609179 262.044436 
L 70.762901 260.742264 
L 72.007109 259.689333 
L 73.325024 258.826289 
L 75.412758 257.79034 
L 77.607163 256.969628 
L 80.664982 256.084502 
L 85.480649 254.992705 
L 94.918421 253.188915 
L 107.09891 250.818481 
L 116.295927 248.804516 
L 123.977281 246.921677 
L 132.215771 244.664432 
L 139.808582 242.337951 
L 146.582923 240.041341 
L 153.839189 237.329006 
L 160.05136 234.783844 
L 166.687643 231.822705 
L 173.819649 228.346202 
L 179.546844 225.324282 
L 185.648008 221.872709 
L 192.178168 217.906695 
L 199.202076 213.324214 
L 206.798582 207.998577 
L 212.227035 203.960541 
L 217.984529 199.470991 
L 224.107553 194.470634 
L 230.639328 188.891293 
L 237.625867 182.660559 
L 245.121661 175.699734 
L 253.185833 167.928819 
L 261.883575 159.268685 
L 271.286591 149.660749 
L 286.878749 133.379451 
L 304.481224 114.990557 
L 317.443821 101.822218 
L 324.310892 95.088697 
L 331.438524 88.339203 
L 338.825287 81.656949 
L 346.468631 75.133812 
L 354.357692 68.8929 
L 362.479601 63.062322 
L 370.818485 57.785587 
L 379.346685 53.224984 
L 388.033508 49.543311 
L 396.844464 46.914415 
L 405.733733 45.49222 
L 414.651514 45.414489 
L 423.544801 46.809957 
L 432.354377 49.757231 
L 441.019773 54.273534 
L 449.481158 60.351567 
L 457.676912 67.930887 
L 465.554791 76.861937 
L 473.064466 86.983564 
L 480.162357 98.08675 
L 486.817781 109.931041 
L 493.00548 122.270392 
L 498.708843 134.850619 
L 503.927796 147.453177 
L 508.663204 159.863158 
L 512.925416 171.899369 
L 516.732672 183.424347 
L 520.106457 194.325139 
L 523.072699 204.531749 
L 525.659018 213.996166 
L 527.894479 222.703514 
L 529.808431 230.654841 
L 532.785677 244.386786 
L 534.80692 255.47957 
L 536.061284 264.311623 
L 536.708127 271.273514 
L 536.877802 276.728232 
L 536.674195 280.9896 
L 536.179048 284.318253 
L 535.455923 286.92434 
L 534.553928 288.974241 
L 533.510894 290.59828 
L 532.355571 291.896635 
L 531.109915 292.946434 
L 529.790971 293.807929 
L 527.701669 294.841685 
L 525.505882 295.661099 
L 522.446516 296.545841 
L 517.628434 297.637528 
L 508.186002 299.442954 
L 495.998744 301.816839 
L 486.795819 303.834293 
L 479.10888 305.720775 
L 470.863717 307.982764 
L 463.264021 310.314575 
L 456.482868 312.616867 
L 449.218556 315.336397 
L 442.998796 317.888764 
L 436.353655 320.85889 
L 429.21127 324.346546 
L 423.475306 327.378208 
L 417.363675 330.842181 
L 410.821905 334.82234 
L 403.784341 339.422213 
L 396.17168 344.769292 
L 390.731563 348.823126 
L 384.960788 353.331096 
L 378.822524 358.352862 
L 372.274742 363.955413 
L 365.268919 370.212832 
L 357.752933 377.203586 
L 349.665596 385.007493 
L 340.941914 393.701856 
L 326.505412 408.547205 
L 291.839207 444.653868 
L 285.211009 451.313322 
L 285.211009 451.313322 
" clip-path="url(#p28d48dda9c)" style="fill: none; stroke-dasharray: 12.95,5.6; stroke-dashoffset: 0; stroke: #ff0000; stroke-opacity: 0.8; stroke-width: 3.5"/>
   </g>
   <g id="legend_1">
    <g id="patch_7">
     <path d="M 49.620313 89.030625 
L 194.970313 89.030625 
Q 196.970313 89.030625 196.970313 87.030625 
L 196.970313 29.318125 
Q 196.970313 27.318125 194.970313 27.318125 
L 49.620313 27.318125 
Q 47.620313 27.318125 47.620313 29.318125 
L 47.620313 87.030625 
Q 47.620313 89.030625 49.620313 89.030625 
z
" style="fill: #ffffff; opacity: 0.8; stroke: #cccccc; stroke-linejoin: miter"/>
    </g>
    <g id="line2d_23">
     <path d="M 51.620313 35.416562 
L 61.620313 35.416562 
L 71.620313 35.416562 
" style="fill: none; stroke: #000000; stroke-opacity: 0.3; stroke-width: 7; stroke-linecap: square"/>
    </g>
    <g id="text_22">
     <!-- True/Underlying model -->
     <g transform="translate(79.620313 38.916562) scale(0.1 -0.1)">
      <defs>
       <path id="DejaVuSans-54" d="M -19 4666 
L 3928 4666 
L 3928 4134 
L 2272 4134 
L 2272 0 
L 1638 0 
L 1638 4134 
L -19 4134 
L -19 4666 
z
" transform="scale(0.015625)"/>
       <path id="DejaVuSans-75" d="M 544 1381 
L 544 3500 
L 1119 3500 
L 1119 1403 
Q 1119 906 1312 657 
Q 1506 409 1894 409 
Q 2359 409 2629 706 
Q 2900 1003 2900 1516 
L 2900 3500 
L 3475 3500 
L 3475 0 
L 2900 0 
L 2900 538 
Q 2691 219 2414 64 
Q 2138 -91 1772 -91 
Q 1169 -91 856 284 
Q 544 659 544 1381 
z
M 1991 3584 
L 1991 3584 
z
" transform="scale(0.015625)"/>
       <path id="DejaVuSans-2f" d="M 1625 4666 
L 2156 4666 
L 531 -594 
L 0 -594 
L 1625 4666 
z
" transform="scale(0.015625)"/>
       <path id="DejaVuSans-55" d="M 556 4666 
L 1191 4666 
L 1191 1831 
Q 1191 1081 1462 751 
Q 1734 422 2344 422 
Q 2950 422 3222 751 
Q 3494 1081 3494 1831 
L 3494 4666 
L 4128 4666 
L 4128 1753 
Q 4128 841 3676 375 
Q 3225 -91 2344 -91 
Q 1459 -91 1007 375 
Q 556 841 556 1753 
L 556 4666 
z
" transform="scale(0.015625)"/>
       <path id="DejaVuSans-6e" d="M 3513 2113 
L 3513 0 
L 2938 0 
L 2938 2094 
Q 2938 2591 2744 2837 
Q 2550 3084 2163 3084 
Q 1697 3084 1428 2787 
Q 1159 2491 1159 1978 
L 1159 0 
L 581 0 
L 581 3500 
L 1159 3500 
L 1159 2956 
Q 1366 3272 1645 3428 
Q 1925 3584 2291 3584 
Q 2894 3584 3203 3211 
Q 3513 2838 3513 2113 
z
" transform="scale(0.015625)"/>
       <path id="DejaVuSans-64" d="M 2906 2969 
L 2906 4863 
L 3481 4863 
L 3481 0 
L 2906 0 
L 2906 525 
Q 2725 213 2448 61 
Q 2172 -91 1784 -91 
Q 1150 -91 751 415 
Q 353 922 353 1747 
Q 353 2572 751 3078 
Q 1150 3584 1784 3584 
Q 2172 3584 2448 3432 
Q 2725 3281 2906 2969 
z
M 947 1747 
Q 947 1113 1208 752 
Q 1469 391 1925 391 
Q 2381 391 2643 752 
Q 2906 1113 2906 1747 
Q 2906 2381 2643 2742 
Q 2381 3103 1925 3103 
Q 1469 3103 1208 2742 
Q 947 2381 947 1747 
z
" transform="scale(0.015625)"/>
       <path id="DejaVuSans-6c" d="M 603 4863 
L 1178 4863 
L 1178 0 
L 603 0 
L 603 4863 
z
" transform="scale(0.015625)"/>
       <path id="DejaVuSans-79" d="M 2059 -325 
Q 1816 -950 1584 -1140 
Q 1353 -1331 966 -1331 
L 506 -1331 
L 506 -850 
L 844 -850 
Q 1081 -850 1212 -737 
Q 1344 -625 1503 -206 
L 1606 56 
L 191 3500 
L 800 3500 
L 1894 763 
L 2988 3500 
L 3597 3500 
L 2059 -325 
z
" transform="scale(0.015625)"/>
       <path id="DejaVuSans-67" d="M 2906 1791 
Q 2906 2416 2648 2759 
Q 2391 3103 1925 3103 
Q 1463 3103 1205 2759 
Q 947 2416 947 1791 
Q 947 1169 1205 825 
Q 1463 481 1925 481 
Q 2391 481 2648 825 
Q 2906 1169 2906 1791 
z
M 3481 434 
Q 3481 -459 3084 -895 
Q 2688 -1331 1869 -1331 
Q 1566 -1331 1297 -1286 
Q 1028 -1241 775 -1147 
L 775 -588 
Q 1028 -725 1275 -790 
Q 1522 -856 1778 -856 
Q 2344 -856 2625 -561 
Q 2906 -266 2906 331 
L 2906 616 
Q 2728 306 2450 153 
Q 2172 0 1784 0 
Q 1141 0 747 490 
Q 353 981 353 1791 
Q 353 2603 747 3093 
Q 1141 3584 1784 3584 
Q 2172 3584 2450 3431 
Q 2728 3278 2906 2969 
L 2906 3500 
L 3481 3500 
L 3481 434 
z
" transform="scale(0.015625)"/>
       <path id="DejaVuSans-6d" d="M 3328 2828 
Q 3544 3216 3844 3400 
Q 4144 3584 4550 3584 
Q 5097 3584 5394 3201 
Q 5691 2819 5691 2113 
L 5691 0 
L 5113 0 
L 5113 2094 
Q 5113 2597 4934 2840 
Q 4756 3084 4391 3084 
Q 3944 3084 3684 2787 
Q 3425 2491 3425 1978 
L 3425 0 
L 2847 0 
L 2847 2094 
Q 2847 2600 2669 2842 
Q 2491 3084 2119 3084 
Q 1678 3084 1418 2786 
Q 1159 2488 1159 1978 
L 1159 0 
L 581 0 
L 581 3500 
L 1159 3500 
L 1159 2956 
Q 1356 3278 1631 3431 
Q 1906 3584 2284 3584 
Q 2666 3584 2933 3390 
Q 3200 3197 3328 2828 
z
" transform="scale(0.015625)"/>
      </defs>
      <use xlink:href="#DejaVuSans-54"/>
      <use xlink:href="#DejaVuSans-72" transform="translate(46.333984 0)"/>
      <use xlink:href="#DejaVuSans-75" transform="translate(87.447266 0)"/>
      <use xlink:href="#DejaVuSans-65" transform="translate(150.826172 0)"/>
      <use xlink:href="#DejaVuSans-2f" transform="translate(212.349609 0)"/>
      <use xlink:href="#DejaVuSans-55" transform="translate(246.041016 0)"/>
      <use xlink:href="#DejaVuSans-6e" transform="translate(319.234375 0)"/>
      <use xlink:href="#DejaVuSans-64" transform="translate(382.613281 0)"/>
      <use xlink:href="#DejaVuSans-65" transform="translate(446.089844 0)"/>
      <use xlink:href="#DejaVuSans-72" transform="translate(507.613281 0)"/>
      <use xlink:href="#DejaVuSans-6c" transform="translate(548.726562 0)"/>
      <use xlink:href="#DejaVuSans-79" transform="translate(576.509766 0)"/>
      <use xlink:href="#DejaVuSans-69" transform="translate(635.689453 0)"/>
      <use xlink:href="#DejaVuSans-6e" transform="translate(663.472656 0)"/>
      <use xlink:href="#DejaVuSans-67" transform="translate(726.851562 0)"/>
      <use xlink:href="#DejaVuSans-20" transform="translate(790.328125 0)"/>
      <use xlink:href="#DejaVuSans-6d" transform="translate(822.115234 0)"/>
      <use xlink:href="#DejaVuSans-6f" transform="translate(919.527344 0)"/>
      <use xlink:href="#DejaVuSans-64" transform="translate(980.708984 0)"/>
      <use xlink:href="#DejaVuSans-65" transform="translate(1044.185547 0)"/>
      <use xlink:href="#DejaVuSans-6c" transform="translate(1105.708984 0)"/>
     </g>
    </g>
    <g id="line2d_24">
     <path d="M 51.620313 50.094687 
L 61.620313 50.094687 
L 71.620313 50.094687 
" style="fill: none; stroke-dasharray: 12.95,5.6; stroke-dashoffset: 0; stroke: #ff0000; stroke-opacity: 0.8; stroke-width: 3.5"/>
    </g>
    <g id="text_23">
     <!-- AutoSINDy -->
     <g transform="translate(79.620313 53.594687) scale(0.1 -0.1)">
      <defs>
       <path id="DejaVuSans-41" d="M 2188 4044 
L 1331 1722 
L 3047 1722 
L 2188 4044 
z
M 1831 4666 
L 2547 4666 
L 4325 0 
L 3669 0 
L 3244 1197 
L 1141 1197 
L 716 0 
L 50 0 
L 1831 4666 
z
" transform="scale(0.015625)"/>
       <path id="DejaVuSans-53" d="M 3425 4513 
L 3425 3897 
Q 3066 4069 2747 4153 
Q 2428 4238 2131 4238 
Q 1616 4238 1336 4038 
Q 1056 3838 1056 3469 
Q 1056 3159 1242 3001 
Q 1428 2844 1947 2747 
L 2328 2669 
Q 3034 2534 3370 2195 
Q 3706 1856 3706 1288 
Q 3706 609 3251 259 
Q 2797 -91 1919 -91 
Q 1588 -91 1214 -16 
Q 841 59 441 206 
L 441 856 
Q 825 641 1194 531 
Q 1563 422 1919 422 
Q 2459 422 2753 634 
Q 3047 847 3047 1241 
Q 3047 1584 2836 1778 
Q 2625 1972 2144 2069 
L 1759 2144 
Q 1053 2284 737 2584 
Q 422 2884 422 3419 
Q 422 4038 858 4394 
Q 1294 4750 2059 4750 
Q 2388 4750 2728 4690 
Q 3069 4631 3425 4513 
z
" transform="scale(0.015625)"/>
       <path id="DejaVuSans-49" d="M 628 4666 
L 1259 4666 
L 1259 0 
L 628 0 
L 628 4666 
z
" transform="scale(0.015625)"/>
       <path id="DejaVuSans-4e" d="M 628 4666 
L 1478 4666 
L 3547 763 
L 3547 4666 
L 4159 4666 
L 4159 0 
L 3309 0 
L 1241 3903 
L 1241 0 
L 628 0 
L 628 4666 
z
" transform="scale(0.015625)"/>
       <path id="DejaVuSans-44" d="M 1259 4147 
L 1259 519 
L 2022 519 
Q 2988 519 3436 956 
Q 3884 1394 3884 2338 
Q 3884 3275 3436 3711 
Q 2988 4147 2022 4147 
L 1259 4147 
z
M 628 4666 
L 1925 4666 
Q 3281 4666 3915 4102 
Q 4550 3538 4550 2338 
Q 4550 1131 3912 565 
Q 3275 0 1925 0 
L 628 0 
L 628 4666 
z
" transform="scale(0.015625)"/>
      </defs>
      <use xlink:href="#DejaVuSans-41"/>
      <use xlink:href="#DejaVuSans-75" transform="translate(68.408203 0)"/>
      <use xlink:href="#DejaVuSans-74" transform="translate(131.787109 0)"/>
      <use xlink:href="#DejaVuSans-6f" transform="translate(170.996094 0)"/>
      <use xlink:href="#DejaVuSans-53" transform="translate(232.177734 0)"/>
      <use xlink:href="#DejaVuSans-49" transform="translate(295.654297 0)"/>
      <use xlink:href="#DejaVuSans-4e" transform="translate(325.146484 0)"/>
      <use xlink:href="#DejaVuSans-44" transform="translate(399.951172 0)"/>
      <use xlink:href="#DejaVuSans-79" transform="translate(476.953125 0)"/>
     </g>
    </g>
    <g id="line2d_25">
     <path d="M 51.620313 64.772812 
L 61.620313 64.772812 
L 71.620313 64.772812 
" style="fill: none; stroke-dasharray: 3.5,5.775; stroke-dashoffset: 0; stroke: #008000; stroke-opacity: 0.8; stroke-width: 3.5"/>
    </g>
    <g id="text_24">
     <!-- Standard SINDy -->
     <g transform="translate(79.620313 68.272812) scale(0.1 -0.1)">
      <use xlink:href="#DejaVuSans-53"/>
      <use xlink:href="#DejaVuSans-74" transform="translate(63.476562 0)"/>
      <use xlink:href="#DejaVuSans-61" transform="translate(102.685547 0)"/>
      <use xlink:href="#DejaVuSans-6e" transform="translate(163.964844 0)"/>
      <use xlink:href="#DejaVuSans-64" transform="translate(227.34375 0)"/>
      <use xlink:href="#DejaVuSans-61" transform="translate(290.820312 0)"/>
      <use xlink:href="#DejaVuSans-72" transform="translate(352.099609 0)"/>
      <use xlink:href="#DejaVuSans-64" transform="translate(391.462891 0)"/>
      <use xlink:href="#DejaVuSans-20" transform="translate(454.939453 0)"/>
      <use xlink:href="#DejaVuSans-53" transform="translate(486.726562 0)"/>
      <use xlink:href="#DejaVuSans-49" transform="translate(550.203125 0)"/>
      <use xlink:href="#DejaVuSans-4e" transform="translate(579.695312 0)"/>
      <use xlink:href="#DejaVuSans-44" transform="translate(654.5 0)"/>
      <use xlink:href="#DejaVuSans-79" transform="translate(731.501953 0)"/>
     </g>
    </g>
    <g id="line2d_26">
     <path d="M 51.620313 79.450937 
L 61.620313 79.450937 
L 71.620313 79.450937 
" style="fill: none; stroke-dasharray: 22.4,5.6,3.5,5.6; stroke-dashoffset: 0; stroke: #0000ff; stroke-opacity: 0.8; stroke-width: 3.5"/>
    </g>
    <g id="text_25">
     <!-- Standard PySR -->
     <g transform="translate(79.620313 82.950937) scale(0.1 -0.1)">
      <defs>
       <path id="DejaVuSans-52" d="M 2841 2188 
Q 3044 2119 3236 1894 
Q 3428 1669 3622 1275 
L 4263 0 
L 3584 0 
L 2988 1197 
Q 2756 1666 2539 1819 
Q 2322 1972 1947 1972 
L 1259 1972 
L 1259 0 
L 628 0 
L 628 4666 
L 2053 4666 
Q 2853 4666 3247 4331 
Q 3641 3997 3641 3322 
Q 3641 2881 3436 2590 
Q 3231 2300 2841 2188 
z
M 1259 4147 
L 1259 2491 
L 2053 2491 
Q 2509 2491 2742 2702 
Q 2975 2913 2975 3322 
Q 2975 3731 2742 3939 
Q 2509 4147 2053 4147 
L 1259 4147 
z
" transform="scale(0.015625)"/>
      </defs>
      <use xlink:href="#DejaVuSans-53"/>
      <use xlink:href="#DejaVuSans-74" transform="translate(63.476562 0)"/>
      <use xlink:href="#DejaVuSans-61" transform="translate(102.685547 0)"/>
      <use xlink:href="#DejaVuSans-6e" transform="translate(163.964844 0)"/>
      <use xlink:href="#DejaVuSans-64" transform="translate(227.34375 0)"/>
      <use xlink:href="#DejaVuSans-61" transform="translate(290.820312 0)"/>
      <use xlink:href="#DejaVuSans-72" transform="translate(352.099609 0)"/>
      <use xlink:href="#DejaVuSans-64" transform="translate(391.462891 0)"/>
      <use xlink:href="#DejaVuSans-20" transform="translate(454.939453 0)"/>
      <use xlink:href="#DejaVuSans-50" transform="translate(486.726562 0)"/>
      <use xlink:href="#DejaVuSans-79" transform="translate(547.029297 0)"/>
      <use xlink:href="#DejaVuSans-53" transform="translate(606.208984 0)"/>
      <use xlink:href="#DejaVuSans-52" transform="translate(669.685547 0)"/>
     </g>
    </g>
   </g>
  </g>
 </g>
 <defs>
  <clipPath id="p28d48dda9c">
   <rect x="42.620313" y="22.318125" width="518.56" height="508.12"/>
  </clipPath>
 </defs>
</svg>
