<?xml version="1.0" encoding="utf-8" standalone="no"?>
<!DOCTYPE svg PUBLIC "-//W3C//DTD SVG 1.1//EN"
  "http://www.w3.org/Graphics/SVG/1.1/DTD/svg11.dtd">
<svg xmlns:xlink="http://www.w3.org/1999/xlink" width="568.239405pt" height="567.994375pt" viewBox="0 0 568.239405 567.994375" xmlns="http://www.w3.org/2000/svg" version="1.1">
 <metadata>
  <rdf:RDF xmlns:dc="http://purl.org/dc/elements/1.1/" xmlns:cc="http://creativecommons.org/ns#" xmlns:rdf="http://www.w3.org/1999/02/22-rdf-syntax-ns#">
   <cc:Work>
    <dc:type rdf:resource="http://purl.org/dc/dcmitype/StillImage"/>
    <dc:date>2026-04-03T20:55:30.055074</dc:date>
    <dc:format>image/svg+xml</dc:format>
    <dc:creator>
     <cc:Agent>
      <dc:title>Matplotlib v3.10.7, https://matplotlib.org/</dc:title>
     </cc:Agent>
    </dc:creator>
   </cc:Work>
  </rdf:RDF>
 </metadata>
 <defs>
  <style type="text/css">*{stroke-linejoin: round; stroke-linecap: butt}</style>
 </defs>
 <g id="figure_1">
  <g id="patch_1">
   <path d="M 0 567.994375 
L 568.239405 567.994375 
L 568.239405 0 
L 0 0 
z
" style="fill: #ffffff"/>
  </g>
  <g id="axes_1">
   <g id="patch_2">
    <path d="M 52.160938 530.438125 
L 554.638832 530.438125 
L 554.638832 22.318125 
L 52.160938 22.318125 
z
" style="fill: #ffffff"/>
   </g>
   <g id="matplotlib.axis_1">
    <g id="xtick_1">
     <g id="line2d_1">
      <defs>
       <path id="ma1d2baf6c5" d="M 0 0 
L 0 3.5 
" style="stroke: #000000; stroke-width: 0.8"/>
      </defs>
      <g>
       <use xlink:href="#ma1d2baf6c5" x="53.707912" y="530.438125" style="stroke: #000000; stroke-width: 0.8"/>
      </g>
     </g>
     <g id="text_1">
      <!-- −0.6 -->
      <g transform="translate(41.566506 545.036562) scale(0.1 -0.1)">
       <defs>
        <path id="DejaVuSans-2212" d="M 678 2272 
L 4684 2272 
L 4684 1741 
L 678 1741 
L 678 2272 
z
" transform="scale(0.015625)"/>
        <path id="DejaVuSans-30" d="M 2034 4250 
Q 1547 4250 1301 3770 
Q 1056 3291 1056 2328 
Q 1056 1369 1301 889 
Q 1547 409 2034 409 
Q 2525 409 2770 889 
Q 3016 1369 3016 2328 
Q 3016 3291 2770 3770 
Q 2525 4250 2034 4250 
z
M 2034 4750 
Q 2819 4750 3233 4129 
Q 3647 3509 3647 2328 
Q 3647 1150 3233 529 
Q 2819 -91 2034 -91 
Q 1250 -91 836 529 
Q 422 1150 422 2328 
Q 422 3509 836 4129 
Q 1250 4750 2034 4750 
z
" transform="scale(0.015625)"/>
        <path id="DejaVuSans-2e" d="M 684 794 
L 1344 794 
L 1344 0 
L 684 0 
L 684 794 
z
" transform="scale(0.015625)"/>
        <path id="DejaVuSans-36" d="M 2113 2584 
Q 1688 2584 1439 2293 
Q 1191 2003 1191 1497 
Q 1191 994 1439 701 
Q 1688 409 2113 409 
Q 2538 409 2786 701 
Q 3034 994 3034 1497 
Q 3034 2003 2786 2293 
Q 2538 2584 2113 2584 
z
M 3366 4563 
L 3366 3988 
Q 3128 4100 2886 4159 
Q 2644 4219 2406 4219 
Q 1781 4219 1451 3797 
Q 1122 3375 1075 2522 
Q 1259 2794 1537 2939 
Q 1816 3084 2150 3084 
Q 2853 3084 3261 2657 
Q 3669 2231 3669 1497 
Q 3669 778 3244 343 
Q 2819 -91 2113 -91 
Q 1303 -91 875 529 
Q 447 1150 447 2328 
Q 447 3434 972 4092 
Q 1497 4750 2381 4750 
Q 2619 4750 2861 4703 
Q 3103 4656 3366 4563 
z
" transform="scale(0.015625)"/>
       </defs>
       <use xlink:href="#DejaVuSans-2212"/>
       <use xlink:href="#DejaVuSans-30" transform="translate(83.789062 0)"/>
       <use xlink:href="#DejaVuSans-2e" transform="translate(147.412109 0)"/>
       <use xlink:href="#DejaVuSans-36" transform="translate(179.199219 0)"/>
      </g>
     </g>
    </g>
    <g id="xtick_2">
     <g id="line2d_2">
      <g>
       <use xlink:href="#ma1d2baf6c5" x="136.937901" y="530.438125" style="stroke: #000000; stroke-width: 0.8"/>
      </g>
     </g>
     <g id="text_2">
      <!-- −0.4 -->
      <g transform="translate(124.796495 545.036562) scale(0.1 -0.1)">
       <defs>
        <path id="DejaVuSans-34" d="M 2419 4116 
L 825 1625 
L 2419 1625 
L 2419 4116 
z
M 2253 4666 
L 3047 4666 
L 3047 1625 
L 3713 1625 
L 3713 1100 
L 3047 1100 
L 3047 0 
L 2419 0 
L 2419 1100 
L 313 1100 
L 313 1709 
L 2253 4666 
z
" transform="scale(0.015625)"/>
       </defs>
       <use xlink:href="#DejaVuSans-2212"/>
       <use xlink:href="#DejaVuSans-30" transform="translate(83.789062 0)"/>
       <use xlink:href="#DejaVuSans-2e" transform="translate(147.412109 0)"/>
       <use xlink:href="#DejaVuSans-34" transform="translate(179.199219 0)"/>
      </g>
     </g>
    </g>
    <g id="xtick_3">
     <g id="line2d_3">
      <g>
       <use xlink:href="#ma1d2baf6c5" x="220.167889" y="530.438125" style="stroke: #000000; stroke-width: 0.8"/>
      </g>
     </g>
     <g id="text_3">
      <!-- −0.2 -->
      <g transform="translate(208.026483 545.036562) scale(0.1 -0.1)">
       <defs>
        <path id="DejaVuSans-32" d="M 1228 531 
L 3431 531 
L 3431 0 
L 469 0 
L 469 531 
Q 828 903 1448 1529 
Q 2069 2156 2228 2338 
Q 2531 2678 2651 2914 
Q 2772 3150 2772 3378 
Q 2772 3750 2511 3984 
Q 2250 4219 1831 4219 
Q 1534 4219 1204 4116 
Q 875 4013 500 3803 
L 500 4441 
Q 881 4594 1212 4672 
Q 1544 4750 1819 4750 
Q 2544 4750 2975 4387 
Q 3406 4025 3406 3419 
Q 3406 3131 3298 2873 
Q 3191 2616 2906 2266 
Q 2828 2175 2409 1742 
Q 1991 1309 1228 531 
z
" transform="scale(0.015625)"/>
       </defs>
       <use xlink:href="#DejaVuSans-2212"/>
       <use xlink:href="#DejaVuSans-30" transform="translate(83.789062 0)"/>
       <use xlink:href="#DejaVuSans-2e" transform="translate(147.412109 0)"/>
       <use xlink:href="#DejaVuSans-32" transform="translate(179.199219 0)"/>
      </g>
     </g>
    </g>
    <g id="xtick_4">
     <g id="line2d_4">
      <g>
       <use xlink:href="#ma1d2baf6c5" x="303.397878" y="530.438125" style="stroke: #000000; stroke-width: 0.8"/>
      </g>
     </g>
     <g id="text_4">
      <!-- 0.0 -->
      <g transform="translate(295.446315 545.036562) scale(0.1 -0.1)">
       <use xlink:href="#DejaVuSans-30"/>
       <use xlink:href="#DejaVuSans-2e" transform="translate(63.623047 0)"/>
       <use xlink:href="#DejaVuSans-30" transform="translate(95.410156 0)"/>
      </g>
     </g>
    </g>
    <g id="xtick_5">
     <g id="line2d_5">
      <g>
       <use xlink:href="#ma1d2baf6c5" x="386.627866" y="530.438125" style="stroke: #000000; stroke-width: 0.8"/>
      </g>
     </g>
     <g id="text_5">
      <!-- 0.2 -->
      <g transform="translate(378.676304 545.036562) scale(0.1 -0.1)">
       <use xlink:href="#DejaVuSans-30"/>
       <use xlink:href="#DejaVuSans-2e" transform="translate(63.623047 0)"/>
       <use xlink:href="#DejaVuSans-32" transform="translate(95.410156 0)"/>
      </g>
     </g>
    </g>
    <g id="xtick_6">
     <g id="line2d_6">
      <g>
       <use xlink:href="#ma1d2baf6c5" x="469.857855" y="530.438125" style="stroke: #000000; stroke-width: 0.8"/>
      </g>
     </g>
     <g id="text_6">
      <!-- 0.4 -->
      <g transform="translate(461.906292 545.036562) scale(0.1 -0.1)">
       <use xlink:href="#DejaVuSans-30"/>
       <use xlink:href="#DejaVuSans-2e" transform="translate(63.623047 0)"/>
       <use xlink:href="#DejaVuSans-34" transform="translate(95.410156 0)"/>
      </g>
     </g>
    </g>
    <g id="xtick_7">
     <g id="line2d_7">
      <g>
       <use xlink:href="#ma1d2baf6c5" x="553.087843" y="530.438125" style="stroke: #000000; stroke-width: 0.8"/>
      </g>
     </g>
     <g id="text_7">
      <!-- 0.6 -->
      <g transform="translate(545.13628 545.036562) scale(0.1 -0.1)">
       <use xlink:href="#DejaVuSans-30"/>
       <use xlink:href="#DejaVuSans-2e" transform="translate(63.623047 0)"/>
       <use xlink:href="#DejaVuSans-36" transform="translate(95.410156 0)"/>
      </g>
     </g>
    </g>
    <g id="text_8">
     <!-- x0 -->
     <g transform="translate(297.25926 558.714687) scale(0.1 -0.1)">
      <defs>
       <path id="DejaVuSans-78" d="M 3513 3500 
L 2247 1797 
L 3578 0 
L 2900 0 
L 1881 1375 
L 863 0 
L 184 0 
L 1544 1831 
L 300 3500 
L 978 3500 
L 1906 2253 
L 2834 3500 
L 3513 3500 
z
" transform="scale(0.015625)"/>
      </defs>
      <use xlink:href="#DejaVuSans-78"/>
      <use xlink:href="#DejaVuSans-30" transform="translate(59.179688 0)"/>
     </g>
    </g>
   </g>
   <g id="matplotlib.axis_2">
    <g id="ytick_1">
     <g id="line2d_8">
      <defs>
       <path id="m6a41eb0f0f" d="M 0 0 
L -3.5 0 
" style="stroke: #000000; stroke-width: 0.8"/>
      </defs>
      <g>
       <use xlink:href="#m6a41eb0f0f" x="52.160938" y="465.888159" style="stroke: #000000; stroke-width: 0.8"/>
      </g>
     </g>
     <g id="text_9">
      <!-- −1.0 -->
      <g transform="translate(20.878125 469.687378) scale(0.1 -0.1)">
       <defs>
        <path id="DejaVuSans-31" d="M 794 531 
L 1825 531 
L 1825 4091 
L 703 3866 
L 703 4441 
L 1819 4666 
L 2450 4666 
L 2450 531 
L 3481 531 
L 3481 0 
L 794 0 
L 794 531 
z
" transform="scale(0.015625)"/>
       </defs>
       <use xlink:href="#DejaVuSans-2212"/>
       <use xlink:href="#DejaVuSans-31" transform="translate(83.789062 0)"/>
       <use xlink:href="#DejaVuSans-2e" transform="translate(147.412109 0)"/>
       <use xlink:href="#DejaVuSans-30" transform="translate(179.199219 0)"/>
      </g>
     </g>
    </g>
    <g id="ytick_2">
     <g id="line2d_9">
      <g>
       <use xlink:href="#m6a41eb0f0f" x="52.160938" y="370.66224" style="stroke: #000000; stroke-width: 0.8"/>
      </g>
     </g>
     <g id="text_10">
      <!-- −0.5 -->
      <g transform="translate(20.878125 374.461459) scale(0.1 -0.1)">
       <defs>
        <path id="DejaVuSans-35" d="M 691 4666 
L 3169 4666 
L 3169 4134 
L 1269 4134 
L 1269 2991 
Q 1406 3038 1543 3061 
Q 1681 3084 1819 3084 
Q 2600 3084 3056 2656 
Q 3513 2228 3513 1497 
Q 3513 744 3044 326 
Q 2575 -91 1722 -91 
Q 1428 -91 1123 -41 
Q 819 9 494 109 
L 494 744 
Q 775 591 1075 516 
Q 1375 441 1709 441 
Q 2250 441 2565 725 
Q 2881 1009 2881 1497 
Q 2881 1984 2565 2268 
Q 2250 2553 1709 2553 
Q 1456 2553 1204 2497 
Q 953 2441 691 2322 
L 691 4666 
z
" transform="scale(0.015625)"/>
       </defs>
       <use xlink:href="#DejaVuSans-2212"/>
       <use xlink:href="#DejaVuSans-30" transform="translate(83.789062 0)"/>
       <use xlink:href="#DejaVuSans-2e" transform="translate(147.412109 0)"/>
       <use xlink:href="#DejaVuSans-35" transform="translate(179.199219 0)"/>
      </g>
     </g>
    </g>
    <g id="ytick_3">
     <g id="line2d_10">
      <g>
       <use xlink:href="#m6a41eb0f0f" x="52.160938" y="275.436321" style="stroke: #000000; stroke-width: 0.8"/>
      </g>
     </g>
     <g id="text_11">
      <!-- 0.0 -->
      <g transform="translate(29.257812 279.235539) scale(0.1 -0.1)">
       <use xlink:href="#DejaVuSans-30"/>
       <use xlink:href="#DejaVuSans-2e" transform="translate(63.623047 0)"/>
       <use xlink:href="#DejaVuSans-30" transform="translate(95.410156 0)"/>
      </g>
     </g>
    </g>
    <g id="ytick_4">
     <g id="line2d_11">
      <g>
       <use xlink:href="#m6a41eb0f0f" x="52.160938" y="180.210402" style="stroke: #000000; stroke-width: 0.8"/>
      </g>
     </g>
     <g id="text_12">
      <!-- 0.5 -->
      <g transform="translate(29.257812 184.00962) scale(0.1 -0.1)">
       <use xlink:href="#DejaVuSans-30"/>
       <use xlink:href="#DejaVuSans-2e" transform="translate(63.623047 0)"/>
       <use xlink:href="#DejaVuSans-35" transform="translate(95.410156 0)"/>
      </g>
     </g>
    </g>
    <g id="ytick_5">
     <g id="line2d_12">
      <g>
       <use xlink:href="#m6a41eb0f0f" x="52.160938" y="84.984482" style="stroke: #000000; stroke-width: 0.8"/>
      </g>
     </g>
     <g id="text_13">
      <!-- 1.0 -->
      <g transform="translate(29.257812 88.783701) scale(0.1 -0.1)">
       <use xlink:href="#DejaVuSans-31"/>
       <use xlink:href="#DejaVuSans-2e" transform="translate(63.623047 0)"/>
       <use xlink:href="#DejaVuSans-30" transform="translate(95.410156 0)"/>
      </g>
     </g>
    </g>
    <g id="text_14">
     <!-- x1 -->
     <g transform="translate(14.798438 282.51875) rotate(-90) scale(0.1 -0.1)">
      <use xlink:href="#DejaVuSans-78"/>
      <use xlink:href="#DejaVuSans-31" transform="translate(59.179688 0)"/>
     </g>
    </g>
   </g>
   <g id="line2d_13">
    <path d="M 511.472849 180.210402 
L 513.495131 185.930168 
L 515.392313 191.637615 
L 517.164693 197.330013 
L 518.812633 203.004667 
L 520.336548 208.658921 
L 521.736912 214.290154 
L 523.014259 219.895788 
L 524.16916 225.473494 
L 525.202202 231.021768 
L 526.114135 236.538048 
L 526.905762 242.01967 
L 527.577928 247.464031 
L 528.131515 252.868591 
L 528.567448 258.230869 
L 528.886687 263.548451 
L 529.090237 268.818979 
L 529.179138 274.04016 
L 529.154472 279.209763 
L 529.01736 284.325618 
L 528.768963 289.385617 
L 528.410482 294.387713 
L 527.943157 299.329921 
L 527.368267 304.21032 
L 526.687132 309.027048 
L 525.901111 313.778307 
L 525.011603 318.462358 
L 524.020045 323.077527 
L 522.927916 327.6222 
L 521.736734 332.094825 
L 520.448056 336.493912 
L 519.063478 340.818033 
L 517.584637 345.065821 
L 516.013209 349.235972 
L 514.350911 353.327243 
L 512.599497 357.338453 
L 510.760762 361.268483 
L 508.836542 365.116276 
L 506.828711 368.880835 
L 504.739182 372.561228 
L 500.322888 379.666088 
L 495.603763 386.424621 
L 490.598547 392.831583 
L 485.323065 398.882165 
L 479.788071 404.569677 
L 474.010331 409.889256 
L 468.007291 414.837099 
L 461.796217 419.410217 
L 455.394198 423.60644 
L 448.818151 427.424413 
L 442.084813 430.863599 
L 435.210747 433.924276 
L 428.212336 436.60754 
L 421.105792 438.915305 
L 413.907148 440.850299 
L 406.632259 442.416069 
L 399.296808 443.616977 
L 391.916297 444.458203 
L 384.506056 444.945744 
L 377.081236 445.086411 
L 369.656812 444.887836 
L 362.247584 444.358465 
L 354.868175 443.50756 
L 347.531335 442.34177 
L 340.249482 440.866328 
L 333.037153 439.09093 
L 325.908276 437.025509 
L 318.876159 434.680209 
L 311.953487 432.065385 
L 305.152323 429.191603 
L 298.484109 426.069639 
L 291.959661 422.710481 
L 285.589177 419.125326 
L 279.382231 415.325584 
L 273.347774 411.322875 
L 267.494136 407.129029 
L 261.829025 402.756089 
L 256.359526 398.216305 
L 251.092102 393.522142 
L 246.032593 388.686274 
L 241.18622 383.721585 
L 236.557577 378.641172 
L 232.151186 373.456878 
L 227.972497 368.178481 
L 224.025736 362.819166 
L 220.314517 357.391995 
L 216.841895 351.909723 
L 213.610367 346.384795 
L 210.62187 340.829348 
L 207.877781 335.25521 
L 205.37892 329.673899 
L 203.125546 324.096627 
L 201.117361 318.534295 
L 199.353507 312.997495 
L 197.832565 307.496512 
L 196.552561 302.04132 
L 195.510958 296.641587 
L 194.704663 291.306669 
L 194.130023 286.045616 
L 193.782824 280.867168 
L 193.658296 275.779755 
L 193.753184 270.790641 
L 194.064574 265.90735 
L 194.587212 261.138325 
L 195.31564 256.49151 
L 196.244205 251.974344 
L 197.367053 247.59377 
L 198.678135 243.356225 
L 200.171199 239.267647 
L 201.839801 235.333472 
L 203.677293 231.558634 
L 205.676833 227.947565 
L 207.831378 224.504198 
L 210.133689 221.231961 
L 212.576328 218.133785 
L 215.151658 215.212095 
L 217.851845 212.468817 
L 220.668855 209.905375 
L 223.59446 207.522692 
L 226.620228 205.321189 
L 229.737534 203.300786 
L 232.937862 201.461083 
L 236.216123 199.803659 
L 239.564526 198.328843 
L 242.974288 197.036046 
L 246.436818 195.924363 
L 249.943725 194.992577 
L 253.486807 194.23916 
L 257.058062 193.66227 
L 260.649677 193.259753 
L 264.25404 193.029142 
L 267.863728 192.967658 
L 271.471516 193.072208 
L 275.070373 193.339389 
L 278.653462 193.765482 
L 282.214142 194.346458 
L 285.745965 195.077974 
L 290.97597 196.447243 
L 296.106745 198.12765 
L 301.118996 200.100584 
L 305.994463 202.346034 
L 310.717301 204.850029 
L 315.270367 207.595465 
L 319.636815 210.561681 
L 323.801444 213.728141 
L 327.750702 217.074431 
L 331.472685 220.580257 
L 334.957137 224.225448 
L 338.195449 227.989956 
L 341.180663 231.853851 
L 343.907466 235.79733 
L 346.372195 239.800708 
L 348.572834 243.844423 
L 350.509015 247.909037 
L 352.181898 251.975324 
L 353.589986 256.026933 
L 354.733411 260.04623 
L 355.614834 264.015189 
L 356.237897 267.916873 
L 356.607225 271.735437 
L 356.728423 275.456128 
L 356.608077 279.065283 
L 356.253754 282.550333 
L 355.674005 285.899796 
L 354.878357 289.103286 
L 353.877325 292.151504 
L 352.682399 295.036245 
L 351.304413 297.749999 
L 349.753299 300.285124 
L 348.041748 302.635061 
L 346.182544 304.794352 
L 344.188511 306.758635 
L 342.072514 308.524639 
L 339.847452 310.090189 
L 337.526269 311.454203 
L 335.121945 312.616691 
L 332.647499 313.578761 
L 330.115991 314.342609 
L 327.540519 314.91153 
L 324.933875 315.289538 
L 322.307148 315.47922 
L 319.673254 315.485204 
L 317.044905 315.313008 
L 314.434164 314.968646 
L 311.000204 314.252997 
L 307.643028 313.259685 
L 304.385847 312.007058 
L 301.249819 310.515024 
L 298.254052 308.805053 
L 295.415603 306.900173 
L 292.74956 304.823732 
L 290.270351 302.59632 
L 287.991316 300.242502 
L 285.923458 297.786638 
L 284.075413 295.252382 
L 282.453444 292.66268 
L 281.061446 290.039767 
L 279.900941 287.405168 
L 278.971083 284.779703 
L 278.268654 282.183478 
L 277.789739 279.634776 
L 277.530848 277.1512 
L 277.485362 274.751299 
L 277.645452 272.45178 
L 278.002123 270.267476 
L 278.545208 268.211339 
L 279.263376 266.294446 
L 280.144123 264.525996 
L 281.173781 262.91331 
L 282.337509 261.461831 
L 283.619531 260.175346 
L 285.006265 259.058838 
L 286.483167 258.115054 
L 288.035076 257.344659 
L 289.6469 256.746895 
L 290.057457 256.624204 
L 290.057457 256.624204 
" clip-path="url(#pf87120b550)" style="fill: none; stroke: #000000; stroke-opacity: 0.3; stroke-width: 7; stroke-linecap: square"/>
   </g>
   <g id="line2d_14">
    <path d="M 511.472849 180.210402 
L 513.506631 184.889179 
L 515.437485 189.612314 
L 517.264501 194.377482 
L 518.986679 199.182381 
L 520.603244 204.024635 
L 522.113438 208.90186 
L 523.516502 213.811676 
L 524.811751 218.751679 
L 525.998463 223.719466 
L 527.076128 228.712587 
L 528.044252 233.72859 
L 528.90234 238.765022 
L 529.649975 243.81942 
L 530.286702 248.889313 
L 530.812281 253.97221 
L 531.22649 259.065619 
L 531.529103 264.167046 
L 531.719977 269.273997 
L 531.798927 274.383966 
L 531.765991 279.49445 
L 531.621216 284.602945 
L 531.364653 289.706951 
L 530.99643 294.803972 
L 530.516638 299.891495 
L 529.925588 304.967037 
L 529.223602 310.028117 
L 528.411001 315.072254 
L 527.488186 320.09698 
L 526.455522 325.099811 
L 525.313591 330.078312 
L 524.062982 335.030054 
L 522.704285 339.952605 
L 521.238169 344.84356 
L 519.665269 349.700488 
L 517.986428 354.521036 
L 516.202497 359.302854 
L 514.314328 364.043592 
L 512.32285 368.740934 
L 510.228957 373.392534 
L 508.033747 377.996149 
L 505.738321 382.549537 
L 503.343783 387.050458 
L 500.851308 391.496714 
L 498.262042 395.886073 
L 495.577321 400.216429 
L 492.798485 404.485677 
L 489.926875 408.691712 
L 486.963901 412.832481 
L 483.910943 416.905895 
L 480.769563 420.910009 
L 477.541328 424.842882 
L 474.227803 428.70257 
L 470.830638 432.487192 
L 467.35141 436.194825 
L 463.791945 439.823711 
L 460.154075 443.372099 
L 456.439635 446.838234 
L 452.650615 450.22044 
L 448.788808 453.516975 
L 444.856558 456.726314 
L 440.856219 459.846935 
L 436.790142 462.877316 
L 428.471129 468.66158 
L 419.922516 474.068296 
L 411.170727 479.087909 
L 402.244514 483.711663 
L 393.175426 487.932789 
L 383.995389 491.745407 
L 374.735463 495.145289 
L 365.423391 498.129587 
L 356.084118 500.696365 
L 346.734619 502.844982 
L 337.388192 504.575199 
L 328.051374 505.887358 
L 318.725464 506.781915 
L 309.408593 507.25937 
L 300.09546 507.319957 
L 290.78017 506.963756 
L 281.457312 506.190526 
L 272.123958 504.999866 
L 262.779442 503.391228 
L 253.430182 501.364317 
L 244.085998 498.919053 
L 234.763805 496.056028 
L 225.486208 492.77682 
L 216.279672 489.083732 
L 207.175039 484.98096 
L 198.204076 480.473532 
L 189.398416 475.568228 
L 180.787726 470.273194 
L 172.39968 464.597572 
L 168.296441 461.62038 
L 164.257448 458.552101 
L 160.28528 455.394182 
L 156.382395 452.148103 
L 152.550853 448.8155 
L 148.792713 445.398012 
L 145.110022 441.897283 
L 141.504722 438.315007 
L 137.97869 434.652902 
L 134.533621 430.912813 
L 131.17121 427.096584 
L 127.89314 423.206068 
L 124.701045 419.243157 
L 121.596536 415.209761 
L 118.581074 411.107903 
L 115.656121 406.939602 
L 112.823125 402.706888 
L 110.083496 398.41182 
L 107.438619 394.056478 
L 104.889726 389.643035 
L 102.438048 385.173663 
L 100.084802 380.650537 
L 97.831165 376.075863 
L 95.678285 371.451863 
L 93.627148 366.780835 
L 91.678743 362.065073 
L 89.834039 357.306877 
L 88.093969 352.508568 
L 86.459426 347.672486 
L 84.931142 342.801023 
L 83.509847 337.89657 
L 82.196256 332.96152 
L 80.991042 327.998285 
L 79.894836 323.009291 
L 78.908103 317.996996 
L 78.031309 312.963857 
L 77.264903 307.912336 
L 76.609291 302.844901 
L 76.064833 297.764035 
L 75.631724 292.672233 
L 75.310159 287.571991 
L 75.100314 282.465802 
L 75.002326 277.356169 
L 75.016278 272.245596 
L 75.142093 267.136587 
L 75.379691 262.031643 
L 75.728974 256.933263 
L 76.189809 251.843947 
L 76.762 246.766197 
L 77.445199 241.70249 
L 78.239053 236.655303 
L 79.143192 231.62711 
L 80.15721 226.620381 
L 81.280641 221.63758 
L 82.512864 216.68113 
L 83.853261 211.753454 
L 85.301193 206.856968 
L 86.855989 201.994084 
L 88.516913 197.167197 
L 90.283084 192.378647 
L 92.153625 187.630772 
L 94.127635 182.925903 
L 96.204185 178.266362 
L 98.38228 173.654447 
L 100.660791 169.092384 
L 103.038588 164.582402 
L 105.514523 160.126714 
L 108.087421 155.727527 
L 110.756038 151.387011 
L 113.51901 147.107254 
L 116.374972 142.890343 
L 119.322542 138.738353 
L 122.360309 134.653344 
L 125.4868 130.637334 
L 128.700436 126.692245 
L 131.999641 122.820002 
L 135.38283 119.022511 
L 138.848376 115.301664 
L 142.394604 111.659299 
L 146.019817 108.097156 
L 149.722317 104.616974 
L 153.50044 101.220476 
L 157.352444 97.909365 
L 161.276638 94.685284 
L 165.271532 91.549789 
L 169.335636 88.50444 
L 173.467527 85.550784 
L 177.66578 82.690341 
L 181.929181 79.924583 
L 186.256871 77.254935 
L 190.647989 74.682821 
L 195.10168 72.20966 
L 199.617297 69.836856 
L 204.194324 67.56579 
L 208.832227 65.397816 
L 213.530471 63.334286 
L 218.288379 61.376539 
L 223.105527 59.525932 
L 227.981151 57.783795 
L 232.913758 56.15138 
L 237.90186 54.629939 
L 242.943733 53.220683 
L 248.037658 51.924868 
L 253.181135 50.743655 
L 258.370639 49.678018 
L 263.602644 48.728934 
L 268.873456 47.897314 
L 274.179083 47.184099 
L 279.514829 46.590038 
L 284.875355 46.115603 
L 290.255327 45.761269 
L 295.649409 45.527435 
L 301.051862 45.414489 
L 306.4568 45.422559 
L 311.858456 45.551485 
L 317.251062 45.801109 
L 322.629035 46.171209 
L 327.9865 46.661505 
L 333.318122 47.271469 
L 338.619345 48.000355 
L 343.88561 48.847416 
L 349.112618 49.811868 
L 354.296074 50.892848 
L 359.432594 52.08933 
L 364.519723 53.400172 
L 369.555009 54.824233 
L 374.536162 56.36036 
L 379.461202 58.00734 
L 384.328818 59.763893 
L 389.138176 61.628704 
L 393.888443 63.600457 
L 398.578777 65.677829 
L 403.208671 67.859485 
L 407.777657 70.144067 
L 412.285152 72.53019 
L 416.730573 75.016471 
L 421.113251 77.601508 
L 425.432576 80.283922 
L 429.68763 83.062285 
L 433.87721 85.935115 
L 438.000116 88.90093 
L 442.055102 91.958226 
L 446.040797 95.10551 
L 449.955647 98.341211 
L 453.797999 101.663684 
L 457.566201 105.071284 
L 461.25861 108.562342 
L 464.873498 112.135187 
L 468.409159 115.788057 
L 471.863933 119.51912 
L 475.236158 123.326544 
L 478.524203 127.208474 
L 481.726413 131.163048 
L 484.841233 135.188318 
L 487.867184 139.282277 
L 490.802791 143.442917 
L 493.646609 147.668209 
L 496.397187 151.956119 
L 499.05319 156.304535 
L 501.613368 160.711298 
L 504.07647 165.174246 
L 506.441283 169.691204 
L 508.706584 174.259986 
L 510.871279 178.878344 
L 512.934361 183.543993 
L 514.894822 188.254646 
L 516.751695 193.008003 
L 518.504003 197.801757 
L 520.150904 202.633552 
L 521.691648 207.501003 
L 523.125483 212.401724 
L 524.451697 217.333323 
L 525.669571 222.293397 
L 526.77853 227.279511 
L 527.778085 232.289209 
L 528.667749 237.320038 
L 529.447078 242.369541 
L 530.115619 247.435248 
L 530.673065 252.514674 
L 531.119201 257.605326 
L 531.453811 262.70471 
L 531.676719 267.810334 
L 531.787746 272.919694 
L 531.786861 278.030286 
L 531.674119 283.139607 
L 531.44958 288.245155 
L 531.113341 293.344433 
L 530.665495 298.434932 
L 530.106288 303.514161 
L 529.43605 308.579637 
L 528.655108 313.628882 
L 527.763835 318.659423 
L 526.762597 323.668779 
L 525.651911 328.654499 
L 524.432375 333.614155 
L 523.104586 338.545318 
L 521.669184 343.445574 
L 520.126804 348.312496 
L 518.478228 353.143707 
L 516.724315 357.93686 
L 514.865925 362.689608 
L 512.903957 367.399623 
L 510.839305 372.064563 
L 508.67301 376.682155 
L 506.406181 381.250161 
L 504.039926 385.766343 
L 501.575397 390.22849 
L 499.013736 394.634372 
L 496.356226 398.981848 
L 493.604214 403.268816 
L 490.759048 407.493177 
L 487.822113 411.652861 
L 484.794785 415.745778 
L 481.678578 419.769946 
L 478.475064 423.723425 
L 475.185815 427.60428 
L 471.812457 431.410608 
L 468.356565 435.140486 
L 464.819898 438.792112 
L 461.204299 442.363739 
L 457.51161 445.85362 
L 453.743781 449.260053 
L 449.902611 452.581299 
L 445.990295 455.815774 
L 442.009209 458.961966 
L 437.961727 462.018357 
L 433.850394 464.983496 
L 425.446494 470.634194 
L 416.822287 475.90387 
L 408.004791 480.783187 
L 399.023948 485.264028 
L 389.911483 489.340066 
L 380.699692 493.00579 
L 371.418126 496.25771 
L 362.093802 499.093209 
L 352.749166 501.510859 
L 343.399387 503.510211 
L 334.056168 505.091237 
L 324.723208 506.25437 
L 315.40097 507.000077 
L 306.086087 507.328801 
L 296.772979 507.240705 
L 287.455384 506.735779 
L 278.128992 505.813679 
L 268.791465 504.473976 
L 259.444306 502.716143 
L 250.095597 500.540011 
L 240.756746 497.945554 
L 231.447724 494.933841 
L 222.192156 491.506643 
L 213.01837 487.666869 
L 203.957655 483.419128 
L 195.042216 478.768849 
L 186.302798 473.723537 
L 177.768559 468.291599 
L 169.465664 462.482768 
L 165.407992 459.440441 
L 161.416398 456.308067 
L 157.493438 453.087085 
L 153.641249 449.779103 
L 149.861877 446.385764 
L 146.157367 442.908712 
L 142.529686 439.349636 
L 138.980763 435.710219 
L 135.512327 431.992283 
L 132.126064 428.197678 
L 128.823663 424.328253 
L 125.606758 420.385898 
L 122.476999 416.372494 
L 119.435877 412.290043 
L 116.484846 408.140571 
L 113.625362 403.926101 
L 110.858826 399.648694 
L 108.186669 395.310403 
L 105.610152 390.913384 
L 103.130499 386.459811 
L 100.748934 381.951861 
L 98.466625 377.391736 
L 96.284769 372.781637 
L 94.204384 368.123848 
L 92.226447 363.420666 
L 90.351941 358.674391 
L 88.581782 353.887341 
L 86.916924 349.06184 
L 85.358123 344.200268 
L 83.906105 339.305021 
L 82.561591 334.378492 
L 81.325242 329.423089 
L 80.197749 324.441225 
L 79.179606 319.435354 
L 78.271271 314.407935 
L 77.4732 309.361428 
L 76.785787 304.298301 
L 76.209456 299.221029 
L 75.744428 294.132105 
L 75.390889 289.034026 
L 75.149026 283.929287 
L 75.01896 278.820384 
L 75.000842 273.709824 
L 75.094617 268.600112 
L 75.3002 263.493748 
L 75.617505 258.393233 
L 76.046377 253.301062 
L 76.586693 248.219744 
L 77.238126 243.151761 
L 78.000316 238.099588 
L 78.872905 233.065703 
L 79.855468 228.052568 
L 80.947607 223.062662 
L 82.148726 218.098415 
L 83.458198 213.162248 
L 84.875395 208.256583 
L 86.399627 203.383819 
L 88.030228 198.546378 
L 89.766338 193.746605 
L 91.607069 188.986839 
L 93.551535 184.269416 
L 95.598787 179.596643 
L 97.747899 174.970852 
L 99.997757 170.39428 
L 102.347227 165.86915 
L 104.795172 161.397687 
L 107.340395 156.982076 
L 109.981722 152.624534 
L 112.717803 148.327157 
L 115.547265 144.092029 
L 118.468738 139.921234 
L 121.480795 135.816812 
L 124.582022 131.780833 
L 127.770854 127.81523 
L 131.045706 123.921922 
L 134.404995 120.102827 
L 137.847112 116.359815 
L 141.370396 112.694783 
L 144.973151 109.10948 
L 148.65368 105.60564 
L 152.410286 102.184997 
L 156.241333 98.849238 
L 160.145001 95.600059 
L 164.119782 92.439026 
L 168.1642 89.367693 
L 172.276778 86.387611 
L 176.456209 83.500301 
L 180.701043 80.707267 
L 185.010391 78.009937 
L 189.383411 75.409735 
L 193.819263 72.90808 
L 198.317191 70.506383 
L 202.87666 68.206022 
L 207.497159 66.008364 
L 207.497159 66.008364 
" clip-path="url(#pf87120b550)" style="fill: none; stroke-dasharray: 22.4,5.6,3.5,5.6; stroke-dashoffset: 0; stroke: #0000ff; stroke-opacity: 0.8; stroke-width: 3.5"/>
   </g>
   <g id="patch_3">
    <path d="M 52.160938 530.438125 
L 52.160938 22.318125 
" style="fill: none; stroke: #000000; stroke-width: 0.8; stroke-linejoin: miter; stroke-linecap: square"/>
   </g>
   <g id="patch_4">
    <path d="M 554.638832 530.438125 
L 554.638832 22.318125 
" style="fill: none; stroke: #000000; stroke-width: 0.8; stroke-linejoin: miter; stroke-linecap: square"/>
   </g>
   <g id="patch_5">
    <path d="M 52.160937 530.438125 
L 554.638832 530.438125 
" style="fill: none; stroke: #000000; stroke-width: 0.8; stroke-linejoin: miter; stroke-linecap: square"/>
   </g>
   <g id="patch_6">
    <path d="M 52.160937 22.318125 
L 554.638832 22.318125 
" style="fill: none; stroke: #000000; stroke-width: 0.8; stroke-linejoin: miter; stroke-linecap: square"/>
   </g>
   <g id="line2d_15">
    <path d="M 511.472849 180.210402 
L 513.492778 185.930576 
L 515.387728 191.639863 
L 517.158006 197.335562 
L 518.803825 203.014938 
L 520.325641 208.675277 
L 521.723943 214.313866 
L 522.999217 219.927993 
L 524.152026 225.514984 
L 525.182903 231.072095 
L 526.092599 236.596732 
L 526.881892 242.086318 
L 527.551559 247.538276 
L 528.102447 252.950098 
L 528.53538 258.319212 
L 528.851384 263.643275 
L 529.051503 268.919968 
L 529.136781 274.146974 
L 529.108325 279.322061 
L 528.967228 284.442943 
L 528.714753 289.507599 
L 528.35218 294.514032 
L 527.880791 299.460245 
L 527.301918 304.344331 
L 526.616885 309.164344 
L 525.82716 313.918594 
L 524.934222 318.605413 
L 523.939551 323.223136 
L 522.844673 327.770177 
L 521.651105 332.244925 
L 520.360483 336.645997 
L 518.97445 340.972028 
L 517.494654 345.221654 
L 515.922776 349.393585 
L 514.260492 353.486508 
L 512.509575 357.499306 
L 510.671804 361.430882 
L 508.748958 365.280137 
L 506.742847 369.046036 
L 504.655277 372.727525 
L 500.243285 379.833768 
L 495.528093 386.592001 
L 490.525006 392.995809 
L 485.249702 399.039816 
L 479.717998 404.719091 
L 473.945944 410.029491 
L 467.949762 414.967694 
L 461.745776 419.530841 
L 455.350448 423.717182 
L 448.780281 427.525451 
L 442.051826 430.955258 
L 435.181621 434.007103 
L 428.186197 436.682002 
L 421.081971 438.982139 
L 413.885293 440.910192 
L 406.612365 442.469717 
L 399.279187 443.665102 
L 391.901636 444.501223 
L 384.495238 444.983962 
L 377.075348 445.119608 
L 369.656998 444.915156 
L 362.254858 444.378221 
L 354.883382 443.516782 
L 347.556482 442.339507 
L 340.28783 440.855335 
L 333.090644 439.07366 
L 325.977675 437.004252 
L 318.961391 434.657106 
L 312.053603 432.042615 
L 305.265837 429.171323 
L 298.609085 426.05404 
L 292.093815 422.701778 
L 285.730169 419.12568 
L 279.52757 415.337114 
L 273.49513 411.347532 
L 267.641381 407.168543 
L 261.974299 402.811874 
L 256.501508 398.289327 
L 251.22988 393.612836 
L 246.16596 388.794379 
L 241.315683 383.846019 
L 236.684415 378.779863 
L 232.277155 373.608054 
L 228.098131 368.342753 
L 224.151248 362.996117 
L 220.439777 357.580283 
L 216.966438 352.107329 
L 213.733572 346.589292 
L 210.742765 341.038063 
L 207.995294 335.465455 
L 205.491815 329.883105 
L 203.232465 324.302454 
L 201.217019 318.734808 
L 199.444554 313.191125 
L 197.913862 307.682211 
L 196.623167 302.21853 
L 195.570238 296.810227 
L 194.752517 291.467218 
L 194.166842 286.198914 
L 193.809814 281.014517 
L 193.677544 275.922766 
L 193.765775 270.932008 
L 194.069977 266.050301 
L 194.585136 261.285116 
L 195.306054 256.643692 
L 196.227145 252.132746 
L 197.342551 247.758585 
L 198.646202 243.527201 
L 200.131677 239.443988 
L 201.792423 235.514105 
L 203.621614 231.74218 
L 205.612238 228.132442 
L 207.757144 224.68881 
L 210.048958 221.41462 
L 212.480224 218.312984 
L 215.043325 215.3865 
L 217.73055 212.637392 
L 220.534107 210.067581 
L 223.44611 207.678443 
L 226.458638 205.471143 
L 229.563719 203.446357 
L 232.753363 201.604421 
L 236.019567 199.945384 
L 239.354345 198.468796 
L 242.749723 197.174013 
L 246.197777 196.059943 
L 249.690636 195.125196 
L 253.220476 194.368115 
L 256.779594 193.78661 
L 260.360336 193.378419 
L 263.955193 193.14089 
L 267.556767 193.071118 
L 271.157764 193.165974 
L 274.751094 193.421966 
L 278.329753 193.835462 
L 281.88696 194.402512 
L 285.416093 195.11897 
L 290.643073 196.464245 
L 295.771522 198.120298 
L 300.781584 200.070666 
L 305.65448 202.298076 
L 310.372677 204.784484 
L 314.919732 207.511267 
L 319.28054 210.459231 
L 323.441233 213.608767 
L 327.389199 216.939932 
L 331.113243 220.432533 
L 334.60338 224.066243 
L 337.85106 227.820685 
L 340.84903 231.67553 
L 343.591327 235.610576 
L 346.073404 239.605871 
L 348.291899 243.641748 
L 350.244817 247.69896 
L 351.931381 251.758732 
L 353.351987 255.802811 
L 354.508297 259.813618 
L 355.403007 263.774192 
L 356.039974 267.668364 
L 356.424069 271.480745 
L 356.561107 275.196749 
L 356.457908 278.802744 
L 356.122077 282.28593 
L 355.562082 285.63451 
L 354.787119 288.837639 
L 353.80704 291.88541 
L 352.632359 294.768995 
L 351.274091 297.480477 
L 349.743769 300.013009 
L 348.053332 302.360732 
L 346.215062 304.518737 
L 344.241547 306.483186 
L 342.145581 308.251127 
L 339.940127 309.820622 
L 337.638244 311.190655 
L 335.253028 312.361078 
L 332.797549 313.332705 
L 330.284808 314.107124 
L 327.727663 314.686797 
L 325.138785 315.074963 
L 322.530625 315.275575 
L 319.91532 315.293359 
L 317.304707 315.133648 
L 314.710232 314.802441 
L 311.295046 314.105495 
L 307.953034 313.132431 
L 304.707555 311.901775 
L 301.580275 310.43336 
L 298.591083 308.748099 
L 295.757999 306.867792 
L 293.097112 304.814918 
L 290.622523 302.612434 
L 288.346293 300.283576 
L 286.278456 297.851659 
L 284.42701 295.339892 
L 282.79794 292.7712 
L 281.395246 290.168054 
L 280.220971 287.552297 
L 279.275288 284.94501 
L 278.556567 282.366366 
L 278.061462 279.835515 
L 277.785001 277.370471 
L 277.720676 274.987993 
L 277.860579 272.703534 
L 278.19551 270.531152 
L 278.715106 268.483471 
L 279.407962 266.571631 
L 280.261761 264.805247 
L 281.263411 263.192415 
L 282.399184 261.739701 
L 283.654841 260.452162 
L 285.015769 259.333357 
L 286.467104 258.385367 
L 287.993864 257.608859 
L 289.985572 256.878174 
L 289.985572 256.878174 
" clip-path="url(#pf87120b550)" style="fill: none; stroke-dasharray: 3.5,5.775; stroke-dashoffset: 0; stroke: #008000; stroke-opacity: 0.8; stroke-width: 3.5"/>
   </g>
   <g id="text_15">
    <!-- Phase Portrait (x0 vs x1) -->
    <g transform="translate(229.708635 16.318125) scale(0.12 -0.12)">
     <defs>
      <path id="DejaVuSans-50" d="M 1259 4147 
L 1259 2394 
L 2053 2394 
Q 2494 2394 2734 2622 
Q 2975 2850 2975 3272 
Q 2975 3691 2734 3919 
Q 2494 4147 2053 4147 
L 1259 4147 
z
M 628 4666 
L 2053 4666 
Q 2838 4666 3239 4311 
Q 3641 3956 3641 3272 
Q 3641 2581 3239 2228 
Q 2838 1875 2053 1875 
L 1259 1875 
L 1259 0 
L 628 0 
L 628 4666 
z
" transform="scale(0.015625)"/>
      <path id="DejaVuSans-68" d="M 3513 2113 
L 3513 0 
L 2938 0 
L 2938 2094 
Q 2938 2591 2744 2837 
Q 2550 3084 2163 3084 
Q 1697 3084 1428 2787 
Q 1159 2491 1159 1978 
L 1159 0 
L 581 0 
L 581 4863 
L 1159 4863 
L 1159 2956 
Q 1366 3272 1645 3428 
Q 1925 3584 2291 3584 
Q 2894 3584 3203 3211 
Q 3513 2838 3513 2113 
z
" transform="scale(0.015625)"/>
      <path id="DejaVuSans-61" d="M 2194 1759 
Q 1497 1759 1228 1600 
Q 959 1441 959 1056 
Q 959 750 1161 570 
Q 1363 391 1709 391 
Q 2188 391 2477 730 
Q 2766 1069 2766 1631 
L 2766 1759 
L 2194 1759 
z
M 3341 1997 
L 3341 0 
L 2766 0 
L 2766 531 
Q 2569 213 2275 61 
Q 1981 -91 1556 -91 
Q 1019 -91 701 211 
Q 384 513 384 1019 
Q 384 1609 779 1909 
Q 1175 2209 1959 2209 
L 2766 2209 
L 2766 2266 
Q 2766 2663 2505 2880 
Q 2244 3097 1772 3097 
Q 1472 3097 1187 3025 
Q 903 2953 641 2809 
L 641 3341 
Q 956 3463 1253 3523 
Q 1550 3584 1831 3584 
Q 2591 3584 2966 3190 
Q 3341 2797 3341 1997 
z
" transform="scale(0.015625)"/>
      <path id="DejaVuSans-73" d="M 2834 3397 
L 2834 2853 
Q 2591 2978 2328 3040 
Q 2066 3103 1784 3103 
Q 1356 3103 1142 2972 
Q 928 2841 928 2578 
Q 928 2378 1081 2264 
Q 1234 2150 1697 2047 
L 1894 2003 
Q 2506 1872 2764 1633 
Q 3022 1394 3022 966 
Q 3022 478 2636 193 
Q 2250 -91 1575 -91 
Q 1294 -91 989 -36 
Q 684 19 347 128 
L 347 722 
Q 666 556 975 473 
Q 1284 391 1588 391 
Q 1994 391 2212 530 
Q 2431 669 2431 922 
Q 2431 1156 2273 1281 
Q 2116 1406 1581 1522 
L 1381 1569 
Q 847 1681 609 1914 
Q 372 2147 372 2553 
Q 372 3047 722 3315 
Q 1072 3584 1716 3584 
Q 2034 3584 2315 3537 
Q 2597 3491 2834 3397 
z
" transform="scale(0.015625)"/>
      <path id="DejaVuSans-65" d="M 3597 1894 
L 3597 1613 
L 953 1613 
Q 991 1019 1311 708 
Q 1631 397 2203 397 
Q 2534 397 2845 478 
Q 3156 559 3463 722 
L 3463 178 
Q 3153 47 2828 -22 
Q 2503 -91 2169 -91 
Q 1331 -91 842 396 
Q 353 884 353 1716 
Q 353 2575 817 3079 
Q 1281 3584 2069 3584 
Q 2775 3584 3186 3129 
Q 3597 2675 3597 1894 
z
M 3022 2063 
Q 3016 2534 2758 2815 
Q 2500 3097 2075 3097 
Q 1594 3097 1305 2825 
Q 1016 2553 972 2059 
L 3022 2063 
z
" transform="scale(0.015625)"/>
      <path id="DejaVuSans-20" transform="scale(0.015625)"/>
      <path id="DejaVuSans-6f" d="M 1959 3097 
Q 1497 3097 1228 2736 
Q 959 2375 959 1747 
Q 959 1119 1226 758 
Q 1494 397 1959 397 
Q 2419 397 2687 759 
Q 2956 1122 2956 1747 
Q 2956 2369 2687 2733 
Q 2419 3097 1959 3097 
z
M 1959 3584 
Q 2709 3584 3137 3096 
Q 3566 2609 3566 1747 
Q 3566 888 3137 398 
Q 2709 -91 1959 -91 
Q 1206 -91 779 398 
Q 353 888 353 1747 
Q 353 2609 779 3096 
Q 1206 3584 1959 3584 
z
" transform="scale(0.015625)"/>
      <path id="DejaVuSans-72" d="M 2631 2963 
Q 2534 3019 2420 3045 
Q 2306 3072 2169 3072 
Q 1681 3072 1420 2755 
Q 1159 2438 1159 1844 
L 1159 0 
L 581 0 
L 581 3500 
L 1159 3500 
L 1159 2956 
Q 1341 3275 1631 3429 
Q 1922 3584 2338 3584 
Q 2397 3584 2469 3576 
Q 2541 3569 2628 3553 
L 2631 2963 
z
" transform="scale(0.015625)"/>
      <path id="DejaVuSans-74" d="M 1172 4494 
L 1172 3500 
L 2356 3500 
L 2356 3053 
L 1172 3053 
L 1172 1153 
Q 1172 725 1289 603 
Q 1406 481 1766 481 
L 2356 481 
L 2356 0 
L 1766 0 
Q 1100 0 847 248 
Q 594 497 594 1153 
L 594 3053 
L 172 3053 
L 172 3500 
L 594 3500 
L 594 4494 
L 1172 4494 
z
" transform="scale(0.015625)"/>
      <path id="DejaVuSans-69" d="M 603 3500 
L 1178 3500 
L 1178 0 
L 603 0 
L 603 3500 
z
M 603 4863 
L 1178 4863 
L 1178 4134 
L 603 4134 
L 603 4863 
z
" transform="scale(0.015625)"/>
      <path id="DejaVuSans-28" d="M 1984 4856 
Q 1566 4138 1362 3434 
Q 1159 2731 1159 2009 
Q 1159 1288 1364 580 
Q 1569 -128 1984 -844 
L 1484 -844 
Q 1016 -109 783 600 
Q 550 1309 550 2009 
Q 550 2706 781 3412 
Q 1013 4119 1484 4856 
L 1984 4856 
z
" transform="scale(0.015625)"/>
      <path id="DejaVuSans-76" d="M 191 3500 
L 800 3500 
L 1894 563 
L 2988 3500 
L 3597 3500 
L 2284 0 
L 1503 0 
L 191 3500 
z
" transform="scale(0.015625)"/>
      <path id="DejaVuSans-29" d="M 513 4856 
L 1013 4856 
Q 1481 4119 1714 3412 
Q 1947 2706 1947 2009 
Q 1947 1309 1714 600 
Q 1481 -109 1013 -844 
L 513 -844 
Q 928 -128 1133 580 
Q 1338 1288 1338 2009 
Q 1338 2731 1133 3434 
Q 928 4138 513 4856 
z
" transform="scale(0.015625)"/>
     </defs>
     <use xlink:href="#DejaVuSans-50"/>
     <use xlink:href="#DejaVuSans-68" transform="translate(60.302734 0)"/>
     <use xlink:href="#DejaVuSans-61" transform="translate(123.681641 0)"/>
     <use xlink:href="#DejaVuSans-73" transform="translate(184.960938 0)"/>
     <use xlink:href="#DejaVuSans-65" transform="translate(237.060547 0)"/>
     <use xlink:href="#DejaVuSans-20" transform="translate(298.583984 0)"/>
     <use xlink:href="#DejaVuSans-50" transform="translate(330.371094 0)"/>
     <use xlink:href="#DejaVuSans-6f" transform="translate(387.048828 0)"/>
     <use xlink:href="#DejaVuSans-72" transform="translate(448.230469 0)"/>
     <use xlink:href="#DejaVuSans-74" transform="translate(489.34375 0)"/>
     <use xlink:href="#DejaVuSans-72" transform="translate(528.552734 0)"/>
     <use xlink:href="#DejaVuSans-61" transform="translate(569.666016 0)"/>
     <use xlink:href="#DejaVuSans-69" transform="translate(630.945312 0)"/>
     <use xlink:href="#DejaVuSans-74" transform="translate(658.728516 0)"/>
     <use xlink:href="#DejaVuSans-20" transform="translate(697.9375 0)"/>
     <use xlink:href="#DejaVuSans-28" transform="translate(729.724609 0)"/>
     <use xlink:href="#DejaVuSans-78" transform="translate(768.738281 0)"/>
     <use xlink:href="#DejaVuSans-30" transform="translate(827.917969 0)"/>
     <use xlink:href="#DejaVuSans-20" transform="translate(891.541016 0)"/>
     <use xlink:href="#DejaVuSans-76" transform="translate(923.328125 0)"/>
     <use xlink:href="#DejaVuSans-73" transform="translate(982.507812 0)"/>
     <use xlink:href="#DejaVuSans-20" transform="translate(1034.607422 0)"/>
     <use xlink:href="#DejaVuSans-78" transform="translate(1066.394531 0)"/>
     <use xlink:href="#DejaVuSans-31" transform="translate(1125.574219 0)"/>
     <use xlink:href="#DejaVuSans-29" transform="translate(1189.197266 0)"/>
    </g>
   </g>
   <g id="line2d_16">
    <path d="M 511.472849 180.210402 
L 513.492678 185.939446 
L 515.387353 191.655755 
L 517.157222 197.356627 
L 518.802542 203.039298 
L 520.323808 208.701155 
L 521.721542 214.339608 
L 522.996268 219.952065 
L 524.148579 225.535986 
L 525.179043 231.0888 
L 526.088433 236.608098 
L 526.877544 242.091487 
L 527.547171 247.536578 
L 528.098172 252.941038 
L 528.53139 258.302501 
L 528.847846 263.618777 
L 529.048585 268.887694 
L 529.134651 274.107083 
L 529.107148 279.274837 
L 528.967161 284.388813 
L 528.715941 289.447057 
L 528.354758 294.447634 
L 527.884878 299.38861 
L 527.307623 304.268118 
L 526.624301 309.084253 
L 525.836363 313.835312 
L 524.945275 318.519606 
L 523.952503 323.13545 
L 522.859558 327.681227 
L 521.667943 332.155284 
L 520.379283 336.556173 
L 518.995213 340.882464 
L 517.51737 345.132725 
L 515.947427 349.3056 
L 514.287055 353.399694 
L 512.538021 357.413822 
L 510.702104 361.346813 
L 508.781082 365.197498 
L 506.776763 368.964782 
L 504.690955 372.647535 
L 502.525542 376.244833 
L 497.963466 383.179439 
L 493.105759 389.761609 
L 487.967975 395.985283 
L 482.565931 401.845351 
L 476.915596 407.337233 
L 471.033185 412.457552 
L 464.934997 417.203444 
L 458.637459 421.572943 
L 452.15706 425.564968 
L 445.510328 429.178944 
L 438.713784 432.415408 
L 431.783922 435.275364 
L 424.737178 437.760639 
L 417.589866 439.873848 
L 410.358233 441.618063 
L 403.058289 442.997336 
L 395.705924 444.016119 
L 388.316798 444.679582 
L 380.906293 444.993559 
L 373.489628 444.964274 
L 366.08159 444.59876 
L 358.696768 443.90438 
L 351.349374 442.889079 
L 344.053218 441.561322 
L 336.821866 439.929889 
L 329.668296 438.004175 
L 322.605226 435.793822 
L 315.644884 433.308908 
L 308.799003 430.559876 
L 302.079006 427.557398 
L 295.495621 424.312558 
L 289.059271 420.836601 
L 282.779806 417.141052 
L 276.666524 413.237649 
L 270.728368 409.138265 
L 264.973522 404.854985 
L 259.409836 400.39997 
L 254.044545 395.785504 
L 248.8843 391.023937 
L 243.935379 386.127665 
L 239.203272 381.109102 
L 234.693139 375.980662 
L 230.409495 370.754728 
L 226.35629 365.443619 
L 222.537091 360.059612 
L 218.954692 354.614831 
L 215.611571 349.121325 
L 212.509577 343.59098 
L 209.650023 338.035502 
L 207.033857 332.466474 
L 204.661305 326.895182 
L 202.532301 321.332776 
L 200.646194 315.790123 
L 199.001853 310.27782 
L 197.597811 304.806273 
L 196.431961 299.385471 
L 195.501942 294.025224 
L 194.804871 288.734958 
L 194.337462 283.523766 
L 194.096136 278.400493 
L 194.076775 273.373481 
L 194.275053 268.450864 
L 194.68621 263.640315 
L 195.305167 258.949134 
L 196.126602 254.384337 
L 197.144779 249.952378 
L 198.353799 245.659489 
L 199.747432 241.511393 
L 201.319217 237.513423 
L 203.062513 233.670606 
L 204.97039 229.987385 
L 207.035808 226.467972 
L 209.251505 223.116059 
L 211.610078 219.934945 
L 214.104007 216.927618 
L 216.725615 214.096492 
L 219.467163 211.443757 
L 222.320802 208.971086 
L 225.278627 206.679786 
L 228.332685 204.570861 
L 231.474985 202.644773 
L 234.697524 200.901778 
L 237.992298 199.341647 
L 241.351322 197.963825 
L 244.76663 196.767469 
L 248.230328 195.751259 
L 251.734553 194.913688 
L 255.271541 194.252821 
L 258.833617 193.766439 
L 262.413181 193.452077 
L 266.0028 193.306863 
L 269.595113 193.327767 
L 273.182945 193.511404 
L 276.75926 193.854158 
L 280.317153 194.352212 
L 283.849965 195.001426 
L 287.351133 195.797542 
L 292.529827 197.257178 
L 297.602665 199.021089 
L 302.550286 201.07234 
L 307.35436 203.393283 
L 311.997828 205.965548 
L 316.46482 208.770215 
L 320.740685 211.787901 
L 324.812153 214.998829 
L 328.667142 218.382976 
L 332.294988 221.920128 
L 335.68632 225.590001 
L 338.833055 229.372317 
L 341.72854 233.246914 
L 344.367318 237.193801 
L 346.745329 241.19328 
L 348.859765 245.226 
L 350.709028 249.273018 
L 352.292843 253.315934 
L 353.612017 257.336864 
L 354.668591 261.318593 
L 355.465688 265.244584 
L 356.007453 269.099009 
L 356.299122 272.866893 
L 356.346806 276.534017 
L 356.157577 280.087093 
L 355.739332 283.513719 
L 355.100726 286.802386 
L 354.251191 289.942619 
L 353.200758 292.92483 
L 351.960094 295.740481 
L 350.540381 298.382017 
L 348.953252 300.842834 
L 347.210765 303.117418 
L 345.325283 305.201153 
L 343.309455 307.090475 
L 341.176127 308.782777 
L 338.938283 310.276363 
L 336.608989 311.570549 
L 334.201328 312.66548 
L 331.728341 313.562235 
L 329.202968 314.262734 
L 326.63801 314.769673 
L 324.046041 315.086596 
L 321.439405 315.217723 
L 318.830125 315.168015 
L 316.229882 314.943081 
L 313.649987 314.549118 
L 310.260474 313.772732 
L 306.950853 312.72549 
L 303.744004 311.426323 
L 300.661096 309.895397 
L 297.721472 308.153912 
L 294.942592 306.22388 
L 292.339963 304.127927 
L 289.9271 301.889091 
L 287.715492 299.530624 
L 285.714574 297.0758 
L 283.931762 294.547734 
L 282.372462 291.969198 
L 281.040117 289.36247 
L 279.936249 286.749168 
L 279.060505 284.150102 
L 278.410763 281.585151 
L 277.983207 279.073139 
L 277.772428 276.631736 
L 277.771529 274.277362 
L 277.972217 272.025089 
L 278.364955 269.888598 
L 278.939066 267.880118 
L 279.682875 266.010396 
L 280.583833 264.288663 
L 281.628641 262.722606 
L 282.803401 261.318395 
L 284.093742 260.080679 
L 285.484951 259.012622 
L 286.9621 258.115931 
L 288.510179 257.39088 
L 290.11421 256.836391 
L 290.11421 256.836391 
" clip-path="url(#pf87120b550)" style="fill: none; stroke-dasharray: 12.95,5.6; stroke-dashoffset: 0; stroke: #ff0000; stroke-opacity: 0.8; stroke-width: 3.5"/>
   </g>
   <g id="legend_1">
    <g id="patch_7">
     <path d="M 402.288832 89.030625 
L 547.638832 89.030625 
Q 549.638832 89.030625 549.638832 87.030625 
L 549.638832 29.318125 
Q 549.638832 27.318125 547.638832 27.318125 
L 402.288832 27.318125 
Q 400.288832 27.318125 400.288832 29.318125 
L 400.288832 87.030625 
Q 400.288832 89.030625 402.288832 89.030625 
z
" style="fill: #ffffff; opacity: 0.8; stroke: #cccccc; stroke-linejoin: miter"/>
    </g>
    <g id="line2d_17">
     <path d="M 404.288832 35.416562 
L 414.288832 35.416562 
L 424.288832 35.416562 
" style="fill: none; stroke: #000000; stroke-opacity: 0.3; stroke-width: 7; stroke-linecap: square"/>
    </g>
    <g id="text_16">
     <!-- True/Underlying model -->
     <g transform="translate(432.288832 38.916562) scale(0.1 -0.1)">
      <defs>
       <path id="DejaVuSans-54" d="M -19 4666 
L 3928 4666 
L 3928 4134 
L 2272 4134 
L 2272 0 
L 1638 0 
L 1638 4134 
L -19 4134 
L -19 4666 
z
" transform="scale(0.015625)"/>
       <path id="DejaVuSans-75" d="M 544 1381 
L 544 3500 
L 1119 3500 
L 1119 1403 
Q 1119 906 1312 657 
Q 1506 409 1894 409 
Q 2359 409 2629 706 
Q 2900 1003 2900 1516 
L 2900 3500 
L 3475 3500 
L 3475 0 
L 2900 0 
L 2900 538 
Q 2691 219 2414 64 
Q 2138 -91 1772 -91 
Q 1169 -91 856 284 
Q 544 659 544 1381 
z
M 1991 3584 
L 1991 3584 
z
" transform="scale(0.015625)"/>
       <path id="DejaVuSans-2f" d="M 1625 4666 
L 2156 4666 
L 531 -594 
L 0 -594 
L 1625 4666 
z
" transform="scale(0.015625)"/>
       <path id="DejaVuSans-55" d="M 556 4666 
L 1191 4666 
L 1191 1831 
Q 1191 1081 1462 751 
Q 1734 422 2344 422 
Q 2950 422 3222 751 
Q 3494 1081 3494 1831 
L 3494 4666 
L 4128 4666 
L 4128 1753 
Q 4128 841 3676 375 
Q 3225 -91 2344 -91 
Q 1459 -91 1007 375 
Q 556 841 556 1753 
L 556 4666 
z
" transform="scale(0.015625)"/>
       <path id="DejaVuSans-6e" d="M 3513 2113 
L 3513 0 
L 2938 0 
L 2938 2094 
Q 2938 2591 2744 2837 
Q 2550 3084 2163 3084 
Q 1697 3084 1428 2787 
Q 1159 2491 1159 1978 
L 1159 0 
L 581 0 
L 581 3500 
L 1159 3500 
L 1159 2956 
Q 1366 3272 1645 3428 
Q 1925 3584 2291 3584 
Q 2894 3584 3203 3211 
Q 3513 2838 3513 2113 
z
" transform="scale(0.015625)"/>
       <path id="DejaVuSans-64" d="M 2906 2969 
L 2906 4863 
L 3481 4863 
L 3481 0 
L 2906 0 
L 2906 525 
Q 2725 213 2448 61 
Q 2172 -91 1784 -91 
Q 1150 -91 751 415 
Q 353 922 353 1747 
Q 353 2572 751 3078 
Q 1150 3584 1784 3584 
Q 2172 3584 2448 3432 
Q 2725 3281 2906 2969 
z
M 947 1747 
Q 947 1113 1208 752 
Q 1469 391 1925 391 
Q 2381 391 2643 752 
Q 2906 1113 2906 1747 
Q 2906 2381 2643 2742 
Q 2381 3103 1925 3103 
Q 1469 3103 1208 2742 
Q 947 2381 947 1747 
z
" transform="scale(0.015625)"/>
       <path id="DejaVuSans-6c" d="M 603 4863 
L 1178 4863 
L 1178 0 
L 603 0 
L 603 4863 
z
" transform="scale(0.015625)"/>
       <path id="DejaVuSans-79" d="M 2059 -325 
Q 1816 -950 1584 -1140 
Q 1353 -1331 966 -1331 
L 506 -1331 
L 506 -850 
L 844 -850 
Q 1081 -850 1212 -737 
Q 1344 -625 1503 -206 
L 1606 56 
L 191 3500 
L 800 3500 
L 1894 763 
L 2988 3500 
L 3597 3500 
L 2059 -325 
z
" transform="scale(0.015625)"/>
       <path id="DejaVuSans-67" d="M 2906 1791 
Q 2906 2416 2648 2759 
Q 2391 3103 1925 3103 
Q 1463 3103 1205 2759 
Q 947 2416 947 1791 
Q 947 1169 1205 825 
Q 1463 481 1925 481 
Q 2391 481 2648 825 
Q 2906 1169 2906 1791 
z
M 3481 434 
Q 3481 -459 3084 -895 
Q 2688 -1331 1869 -1331 
Q 1566 -1331 1297 -1286 
Q 1028 -1241 775 -1147 
L 775 -588 
Q 1028 -725 1275 -790 
Q 1522 -856 1778 -856 
Q 2344 -856 2625 -561 
Q 2906 -266 2906 331 
L 2906 616 
Q 2728 306 2450 153 
Q 2172 0 1784 0 
Q 1141 0 747 490 
Q 353 981 353 1791 
Q 353 2603 747 3093 
Q 1141 3584 1784 3584 
Q 2172 3584 2450 3431 
Q 2728 3278 2906 2969 
L 2906 3500 
L 3481 3500 
L 3481 434 
z
" transform="scale(0.015625)"/>
       <path id="DejaVuSans-6d" d="M 3328 2828 
Q 3544 3216 3844 3400 
Q 4144 3584 4550 3584 
Q 5097 3584 5394 3201 
Q 5691 2819 5691 2113 
L 5691 0 
L 5113 0 
L 5113 2094 
Q 5113 2597 4934 2840 
Q 4756 3084 4391 3084 
Q 3944 3084 3684 2787 
Q 3425 2491 3425 1978 
L 3425 0 
L 2847 0 
L 2847 2094 
Q 2847 2600 2669 2842 
Q 2491 3084 2119 3084 
Q 1678 3084 1418 2786 
Q 1159 2488 1159 1978 
L 1159 0 
L 581 0 
L 581 3500 
L 1159 3500 
L 1159 2956 
Q 1356 3278 1631 3431 
Q 1906 3584 2284 3584 
Q 2666 3584 2933 3390 
Q 3200 3197 3328 2828 
z
" transform="scale(0.015625)"/>
      </defs>
      <use xlink:href="#DejaVuSans-54"/>
      <use xlink:href="#DejaVuSans-72" transform="translate(46.333984 0)"/>
      <use xlink:href="#DejaVuSans-75" transform="translate(87.447266 0)"/>
      <use xlink:href="#DejaVuSans-65" transform="translate(150.826172 0)"/>
      <use xlink:href="#DejaVuSans-2f" transform="translate(212.349609 0)"/>
      <use xlink:href="#DejaVuSans-55" transform="translate(246.041016 0)"/>
      <use xlink:href="#DejaVuSans-6e" transform="translate(319.234375 0)"/>
      <use xlink:href="#DejaVuSans-64" transform="translate(382.613281 0)"/>
      <use xlink:href="#DejaVuSans-65" transform="translate(446.089844 0)"/>
      <use xlink:href="#DejaVuSans-72" transform="translate(507.613281 0)"/>
      <use xlink:href="#DejaVuSans-6c" transform="translate(548.726562 0)"/>
      <use xlink:href="#DejaVuSans-79" transform="translate(576.509766 0)"/>
      <use xlink:href="#DejaVuSans-69" transform="translate(635.689453 0)"/>
      <use xlink:href="#DejaVuSans-6e" transform="translate(663.472656 0)"/>
      <use xlink:href="#DejaVuSans-67" transform="translate(726.851562 0)"/>
      <use xlink:href="#DejaVuSans-20" transform="translate(790.328125 0)"/>
      <use xlink:href="#DejaVuSans-6d" transform="translate(822.115234 0)"/>
      <use xlink:href="#DejaVuSans-6f" transform="translate(919.527344 0)"/>
      <use xlink:href="#DejaVuSans-64" transform="translate(980.708984 0)"/>
      <use xlink:href="#DejaVuSans-65" transform="translate(1044.185547 0)"/>
      <use xlink:href="#DejaVuSans-6c" transform="translate(1105.708984 0)"/>
     </g>
    </g>
    <g id="line2d_18">
     <path d="M 404.288832 50.094687 
L 414.288832 50.094687 
L 424.288832 50.094687 
" style="fill: none; stroke-dasharray: 12.95,5.6; stroke-dashoffset: 0; stroke: #ff0000; stroke-opacity: 0.8; stroke-width: 3.5"/>
    </g>
    <g id="text_17">
     <!-- AutoSINDy -->
     <g transform="translate(432.288832 53.594687) scale(0.1 -0.1)">
      <defs>
       <path id="DejaVuSans-41" d="M 2188 4044 
L 1331 1722 
L 3047 1722 
L 2188 4044 
z
M 1831 4666 
L 2547 4666 
L 4325 0 
L 3669 0 
L 3244 1197 
L 1141 1197 
L 716 0 
L 50 0 
L 1831 4666 
z
" transform="scale(0.015625)"/>
       <path id="DejaVuSans-53" d="M 3425 4513 
L 3425 3897 
Q 3066 4069 2747 4153 
Q 2428 4238 2131 4238 
Q 1616 4238 1336 4038 
Q 1056 3838 1056 3469 
Q 1056 3159 1242 3001 
Q 1428 2844 1947 2747 
L 2328 2669 
Q 3034 2534 3370 2195 
Q 3706 1856 3706 1288 
Q 3706 609 3251 259 
Q 2797 -91 1919 -91 
Q 1588 -91 1214 -16 
Q 841 59 441 206 
L 441 856 
Q 825 641 1194 531 
Q 1563 422 1919 422 
Q 2459 422 2753 634 
Q 3047 847 3047 1241 
Q 3047 1584 2836 1778 
Q 2625 1972 2144 2069 
L 1759 2144 
Q 1053 2284 737 2584 
Q 422 2884 422 3419 
Q 422 4038 858 4394 
Q 1294 4750 2059 4750 
Q 2388 4750 2728 4690 
Q 3069 4631 3425 4513 
z
" transform="scale(0.015625)"/>
       <path id="DejaVuSans-49" d="M 628 4666 
L 1259 4666 
L 1259 0 
L 628 0 
L 628 4666 
z
" transform="scale(0.015625)"/>
       <path id="DejaVuSans-4e" d="M 628 4666 
L 1478 4666 
L 3547 763 
L 3547 4666 
L 4159 4666 
L 4159 0 
L 3309 0 
L 1241 3903 
L 1241 0 
L 628 0 
L 628 4666 
z
" transform="scale(0.015625)"/>
       <path id="DejaVuSans-44" d="M 1259 4147 
L 1259 519 
L 2022 519 
Q 2988 519 3436 956 
Q 3884 1394 3884 2338 
Q 3884 3275 3436 3711 
Q 2988 4147 2022 4147 
L 1259 4147 
z
M 628 4666 
L 1925 4666 
Q 3281 4666 3915 4102 
Q 4550 3538 4550 2338 
Q 4550 1131 3912 565 
Q 3275 0 1925 0 
L 628 0 
L 628 4666 
z
" transform="scale(0.015625)"/>
      </defs>
      <use xlink:href="#DejaVuSans-41"/>
      <use xlink:href="#DejaVuSans-75" transform="translate(68.408203 0)"/>
      <use xlink:href="#DejaVuSans-74" transform="translate(131.787109 0)"/>
      <use xlink:href="#DejaVuSans-6f" transform="translate(170.996094 0)"/>
      <use xlink:href="#DejaVuSans-53" transform="translate(232.177734 0)"/>
      <use xlink:href="#DejaVuSans-49" transform="translate(295.654297 0)"/>
      <use xlink:href="#DejaVuSans-4e" transform="translate(325.146484 0)"/>
      <use xlink:href="#DejaVuSans-44" transform="translate(399.951172 0)"/>
      <use xlink:href="#DejaVuSans-79" transform="translate(476.953125 0)"/>
     </g>
    </g>
    <g id="line2d_19">
     <path d="M 404.288832 64.772812 
L 414.288832 64.772812 
L 424.288832 64.772812 
" style="fill: none; stroke-dasharray: 3.5,5.775; stroke-dashoffset: 0; stroke: #008000; stroke-opacity: 0.8; stroke-width: 3.5"/>
    </g>
    <g id="text_18">
     <!-- Standard SINDy -->
     <g transform="translate(432.288832 68.272812) scale(0.1 -0.1)">
      <use xlink:href="#DejaVuSans-53"/>
      <use xlink:href="#DejaVuSans-74" transform="translate(63.476562 0)"/>
      <use xlink:href="#DejaVuSans-61" transform="translate(102.685547 0)"/>
      <use xlink:href="#DejaVuSans-6e" transform="translate(163.964844 0)"/>
      <use xlink:href="#DejaVuSans-64" transform="translate(227.34375 0)"/>
      <use xlink:href="#DejaVuSans-61" transform="translate(290.820312 0)"/>
      <use xlink:href="#DejaVuSans-72" transform="translate(352.099609 0)"/>
      <use xlink:href="#DejaVuSans-64" transform="translate(391.462891 0)"/>
      <use xlink:href="#DejaVuSans-20" transform="translate(454.939453 0)"/>
      <use xlink:href="#DejaVuSans-53" transform="translate(486.726562 0)"/>
      <use xlink:href="#DejaVuSans-49" transform="translate(550.203125 0)"/>
      <use xlink:href="#DejaVuSans-4e" transform="translate(579.695312 0)"/>
      <use xlink:href="#DejaVuSans-44" transform="translate(654.5 0)"/>
      <use xlink:href="#DejaVuSans-79" transform="translate(731.501953 0)"/>
     </g>
    </g>
    <g id="line2d_20">
     <path d="M 404.288832 79.450937 
L 414.288832 79.450937 
L 424.288832 79.450937 
" style="fill: none; stroke-dasharray: 22.4,5.6,3.5,5.6; stroke-dashoffset: 0; stroke: #0000ff; stroke-opacity: 0.8; stroke-width: 3.5"/>
    </g>
    <g id="text_19">
     <!-- Standard PySR -->
     <g transform="translate(432.288832 82.950937) scale(0.1 -0.1)">
      <defs>
       <path id="DejaVuSans-52" d="M 2841 2188 
Q 3044 2119 3236 1894 
Q 3428 1669 3622 1275 
L 4263 0 
L 3584 0 
L 2988 1197 
Q 2756 1666 2539 1819 
Q 2322 1972 1947 1972 
L 1259 1972 
L 1259 0 
L 628 0 
L 628 4666 
L 2053 4666 
Q 2853 4666 3247 4331 
Q 3641 3997 3641 3322 
Q 3641 2881 3436 2590 
Q 3231 2300 2841 2188 
z
M 1259 4147 
L 1259 2491 
L 2053 2491 
Q 2509 2491 2742 2702 
Q 2975 2913 2975 3322 
Q 2975 3731 2742 3939 
Q 2509 4147 2053 4147 
L 1259 4147 
z
" transform="scale(0.015625)"/>
      </defs>
      <use xlink:href="#DejaVuSans-53"/>
      <use xlink:href="#DejaVuSans-74" transform="translate(63.476562 0)"/>
      <use xlink:href="#DejaVuSans-61" transform="translate(102.685547 0)"/>
      <use xlink:href="#DejaVuSans-6e" transform="translate(163.964844 0)"/>
      <use xlink:href="#DejaVuSans-64" transform="translate(227.34375 0)"/>
      <use xlink:href="#DejaVuSans-61" transform="translate(290.820312 0)"/>
      <use xlink:href="#DejaVuSans-72" transform="translate(352.099609 0)"/>
      <use xlink:href="#DejaVuSans-64" transform="translate(391.462891 0)"/>
      <use xlink:href="#DejaVuSans-20" transform="translate(454.939453 0)"/>
      <use xlink:href="#DejaVuSans-50" transform="translate(486.726562 0)"/>
      <use xlink:href="#DejaVuSans-79" transform="translate(547.029297 0)"/>
      <use xlink:href="#DejaVuSans-53" transform="translate(606.208984 0)"/>
      <use xlink:href="#DejaVuSans-52" transform="translate(669.685547 0)"/>
     </g>
    </g>
   </g>
  </g>
 </g>
 <defs>
  <clipPath id="pf87120b550">
   <rect x="52.160938" y="22.318125" width="502.477894" height="508.12"/>
  </clipPath>
 </defs>
</svg>
