<?xml version="1.0" encoding="utf-8" standalone="no"?>
<!DOCTYPE svg PUBLIC "-//W3C//DTD SVG 1.1//EN"
  "http://www.w3.org/Graphics/SVG/1.1/DTD/svg11.dtd">
<svg xmlns:xlink="http://www.w3.org/1999/xlink" width="855.850937pt" height="285.79625pt" viewBox="0 0 855.850937 285.79625" xmlns="http://www.w3.org/2000/svg" version="1.1">
 <metadata>
  <rdf:RDF xmlns:dc="http://purl.org/dc/elements/1.1/" xmlns:cc="http://creativecommons.org/ns#" xmlns:rdf="http://www.w3.org/1999/02/22-rdf-syntax-ns#">
   <cc:Work>
    <dc:type rdf:resource="http://purl.org/dc/dcmitype/StillImage"/>
    <dc:date>2026-04-03T20:54:39.256558</dc:date>
    <dc:format>image/svg+xml</dc:format>
    <dc:creator>
     <cc:Agent>
      <dc:title>Matplotlib v3.10.7, https://matplotlib.org/</dc:title>
     </cc:Agent>
    </dc:creator>
   </cc:Work>
  </rdf:RDF>
 </metadata>
 <defs>
  <style type="text/css">*{stroke-linejoin: round; stroke-linecap: butt}</style>
 </defs>
 <g id="figure_1">
  <g id="patch_1">
   <path d="M 0 285.79625 
L 855.850937 285.79625 
L 855.850937 0 
L 0 0 
z
" style="fill: #ffffff"/>
  </g>
  <g id="axes_1">
   <g id="patch_2">
    <path d="M 52.160938 136.79 
L 842.850937 136.79 
L 842.850937 39.64 
L 52.160938 39.64 
z
" style="fill: #ffffff"/>
   </g>
   <g id="line2d_1">
    <path d="M 88.101392 47.991356 
L 92.42289 46.891055 
L 96.744387 46.007192 
L 101.065885 45.33731 
L 105.387382 44.878054 
L 109.70888 44.625056 
L 114.030377 44.57329 
L 118.351875 44.717112 
L 122.673372 45.050256 
L 126.99487 45.565835 
L 131.316367 46.256343 
L 137.078364 47.434993 
L 142.840361 48.889123 
L 148.602358 50.595788 
L 154.364354 52.530088 
L 160.126351 54.669196 
L 167.328847 57.594435 
L 174.531343 60.750465 
L 183.174338 64.771066 
L 194.698331 70.388775 
L 222.067816 83.863177 
L 232.15131 88.523416 
L 240.794305 92.261335 
L 247.996801 95.155319 
L 255.199297 97.821855 
L 262.401793 100.24095 
L 269.604289 102.39698 
L 276.806785 104.275696 
L 282.568781 105.571687 
L 288.330778 106.679864 
L 294.092775 107.598527 
L 299.854772 108.327707 
L 305.616768 108.869162 
L 311.378765 109.226383 
L 318.581261 109.42194 
L 325.783757 109.35012 
L 332.986253 109.023289 
L 340.188749 108.458264 
L 347.391244 107.673471 
L 354.59374 106.688834 
L 363.236735 105.273738 
L 371.879731 103.641644 
L 381.963225 101.520394 
L 394.927717 98.548021 
L 441.023691 87.712752 
L 452.547685 85.35269 
L 462.631179 83.507014 
L 472.714673 81.899898 
L 481.357668 80.729545 
L 490.000663 79.759774 
L 498.643658 78.994129 
L 507.286653 78.432633 
L 515.929649 78.074891 
L 524.572644 77.915628 
L 534.656138 77.969279 
L 544.739632 78.262918 
L 554.823126 78.772352 
L 566.34712 79.584516 
L 579.311612 80.738439 
L 595.157103 82.399609 
L 619.64559 85.238081 
L 645.574575 88.177621 
L 661.420066 89.75777 
L 675.825058 90.977671 
L 688.78955 91.864708 
L 701.754043 92.532598 
L 714.718535 92.974724 
L 727.683028 93.195324 
L 740.647521 93.204321 
L 755.052512 92.987391 
L 770.898003 92.510883 
L 789.624493 91.700162 
L 806.910483 90.793563 
L 806.910483 90.793563 
" clip-path="url(#p4f77a196d3)" style="fill: none; stroke: #000000; stroke-opacity: 0.4; stroke-width: 6; stroke-linecap: square"/>
   </g>
   <g id="matplotlib.axis_1">
    <g id="xtick_1">
     <g id="line2d_2">
      <defs>
       <path id="m789df4f361" d="M 0 0 
L 0 3.5 
" style="stroke: #000000; stroke-width: 0.8"/>
      </defs>
      <g>
       <use xlink:href="#m789df4f361" x="88.101392" y="136.79" style="stroke: #000000; stroke-width: 0.8"/>
      </g>
     </g>
    </g>
    <g id="xtick_2">
     <g id="line2d_3">
      <g>
       <use xlink:href="#m789df4f361" x="231.86321" y="136.79" style="stroke: #000000; stroke-width: 0.8"/>
      </g>
     </g>
    </g>
    <g id="xtick_3">
     <g id="line2d_4">
      <g>
       <use xlink:href="#m789df4f361" x="375.625028" y="136.79" style="stroke: #000000; stroke-width: 0.8"/>
      </g>
     </g>
    </g>
    <g id="xtick_4">
     <g id="line2d_5">
      <g>
       <use xlink:href="#m789df4f361" x="519.386847" y="136.79" style="stroke: #000000; stroke-width: 0.8"/>
      </g>
     </g>
    </g>
    <g id="xtick_5">
     <g id="line2d_6">
      <g>
       <use xlink:href="#m789df4f361" x="663.148665" y="136.79" style="stroke: #000000; stroke-width: 0.8"/>
      </g>
     </g>
    </g>
    <g id="xtick_6">
     <g id="line2d_7">
      <g>
       <use xlink:href="#m789df4f361" x="806.910483" y="136.79" style="stroke: #000000; stroke-width: 0.8"/>
      </g>
     </g>
    </g>
   </g>
   <g id="matplotlib.axis_2">
    <g id="ytick_1">
     <g id="line2d_8">
      <defs>
       <path id="m7313a6f8ce" d="M 0 0 
L -3.5 0 
" style="stroke: #000000; stroke-width: 0.8"/>
      </defs>
      <g>
       <use xlink:href="#m7313a6f8ce" x="52.160938" y="128.438049" style="stroke: #000000; stroke-width: 0.8"/>
      </g>
     </g>
     <g id="text_1">
      <!-- −0.5 -->
      <g transform="translate(20.878125 132.237267) scale(0.1 -0.1)">
       <defs>
        <path id="DejaVuSans-2212" d="M 678 2272 
L 4684 2272 
L 4684 1741 
L 678 1741 
L 678 2272 
z
" transform="scale(0.015625)"/>
        <path id="DejaVuSans-30" d="M 2034 4250 
Q 1547 4250 1301 3770 
Q 1056 3291 1056 2328 
Q 1056 1369 1301 889 
Q 1547 409 2034 409 
Q 2525 409 2770 889 
Q 3016 1369 3016 2328 
Q 3016 3291 2770 3770 
Q 2525 4250 2034 4250 
z
M 2034 4750 
Q 2819 4750 3233 4129 
Q 3647 3509 3647 2328 
Q 3647 1150 3233 529 
Q 2819 -91 2034 -91 
Q 1250 -91 836 529 
Q 422 1150 422 2328 
Q 422 3509 836 4129 
Q 1250 4750 2034 4750 
z
" transform="scale(0.015625)"/>
        <path id="DejaVuSans-2e" d="M 684 794 
L 1344 794 
L 1344 0 
L 684 0 
L 684 794 
z
" transform="scale(0.015625)"/>
        <path id="DejaVuSans-35" d="M 691 4666 
L 3169 4666 
L 3169 4134 
L 1269 4134 
L 1269 2991 
Q 1406 3038 1543 3061 
Q 1681 3084 1819 3084 
Q 2600 3084 3056 2656 
Q 3513 2228 3513 1497 
Q 3513 744 3044 326 
Q 2575 -91 1722 -91 
Q 1428 -91 1123 -41 
Q 819 9 494 109 
L 494 744 
Q 775 591 1075 516 
Q 1375 441 1709 441 
Q 2250 441 2565 725 
Q 2881 1009 2881 1497 
Q 2881 1984 2565 2268 
Q 2250 2553 1709 2553 
Q 1456 2553 1204 2497 
Q 953 2441 691 2322 
L 691 4666 
z
" transform="scale(0.015625)"/>
       </defs>
       <use xlink:href="#DejaVuSans-2212"/>
       <use xlink:href="#DejaVuSans-30" transform="translate(83.789062 0)"/>
       <use xlink:href="#DejaVuSans-2e" transform="translate(147.412109 0)"/>
       <use xlink:href="#DejaVuSans-35" transform="translate(179.199219 0)"/>
      </g>
     </g>
    </g>
    <g id="ytick_2">
     <g id="line2d_9">
      <g>
       <use xlink:href="#m7313a6f8ce" x="52.160938" y="88.214702" style="stroke: #000000; stroke-width: 0.8"/>
      </g>
     </g>
     <g id="text_2">
      <!-- 0.0 -->
      <g transform="translate(29.257812 92.013921) scale(0.1 -0.1)">
       <use xlink:href="#DejaVuSans-30"/>
       <use xlink:href="#DejaVuSans-2e" transform="translate(63.623047 0)"/>
       <use xlink:href="#DejaVuSans-30" transform="translate(95.410156 0)"/>
      </g>
     </g>
    </g>
    <g id="ytick_3">
     <g id="line2d_10">
      <g>
       <use xlink:href="#m7313a6f8ce" x="52.160938" y="47.991356" style="stroke: #000000; stroke-width: 0.8"/>
      </g>
     </g>
     <g id="text_3">
      <!-- 0.5 -->
      <g transform="translate(29.257812 51.790575) scale(0.1 -0.1)">
       <use xlink:href="#DejaVuSans-30"/>
       <use xlink:href="#DejaVuSans-2e" transform="translate(63.623047 0)"/>
       <use xlink:href="#DejaVuSans-35" transform="translate(95.410156 0)"/>
      </g>
     </g>
    </g>
    <g id="text_4">
     <!-- $x0$ -->
     <g transform="translate(14.798438 94.365) rotate(-90) scale(0.1 -0.1)">
      <defs>
       <path id="DejaVuSans-Oblique-78" d="M 3841 3500 
L 2234 1784 
L 3219 0 
L 2559 0 
L 1819 1388 
L 531 0 
L -166 0 
L 1556 1844 
L 641 3500 
L 1300 3500 
L 1972 2234 
L 3144 3500 
L 3841 3500 
z
" transform="scale(0.015625)"/>
      </defs>
      <use xlink:href="#DejaVuSans-Oblique-78" transform="translate(0 0.78125)"/>
      <use xlink:href="#DejaVuSans-30" transform="translate(59.179688 0.78125)"/>
     </g>
    </g>
   </g>
   <g id="line2d_11">
    <path d="M 88.101392 47.991356 
L 92.42289 46.871611 
L 96.744387 45.933798 
L 101.065885 45.182011 
L 105.387382 44.619578 
L 109.70888 44.248973 
L 114.030377 44.071805 
L 118.351875 44.088895 
L 122.673372 44.300127 
L 126.99487 44.704594 
L 131.316367 45.300515 
L 135.637865 46.085247 
L 139.959363 47.055376 
L 144.28086 48.206596 
L 150.042857 50.014408 
L 155.804854 52.120962 
L 161.56685 54.509737 
L 167.328847 57.161877 
L 173.090844 60.055907 
L 178.85284 63.166963 
L 186.055336 67.315275 
L 194.698331 72.577993 
L 209.103323 81.679108 
L 246.556302 105.392234 
L 255.199297 110.577402 
L 262.401793 114.631911 
L 268.16379 117.652499 
L 273.925786 120.444817 
L 279.687783 122.985601 
L 285.44978 125.254565 
L 291.211776 127.233882 
L 295.533274 128.518888 
L 299.854772 129.626552 
L 304.176269 130.551988 
L 308.497767 131.291154 
L 312.819264 131.840759 
L 317.140762 132.198414 
L 321.462259 132.362538 
L 325.783757 132.332394 
L 330.105254 132.108147 
L 334.426752 131.690743 
L 338.748249 131.082049 
L 343.069747 130.284738 
L 347.391244 129.3023 
L 351.712742 128.139091 
L 357.474739 126.315858 
L 363.236735 124.194659 
L 368.998732 121.792053 
L 374.760729 119.126637 
L 380.522726 116.218472 
L 386.284722 113.087964 
L 393.487218 108.890783 
L 400.689714 104.406082 
L 407.89221 99.660614 
L 416.535205 93.680339 
L 442.46419 75.466692 
L 449.666686 70.788486 
L 456.869182 66.378615 
L 464.071678 62.263763 
L 469.833675 59.205893 
L 475.595672 56.377175 
L 481.357668 53.798058 
L 487.119665 51.488222 
L 492.881662 49.465624 
L 498.643658 47.746049 
L 502.965156 46.6634 
L 507.286653 45.763595 
L 511.608151 45.050576 
L 515.929649 44.527474 
L 520.251146 44.196621 
L 524.572644 44.059432 
L 528.894141 44.116547 
L 533.215639 44.367695 
L 537.537136 44.811763 
L 541.858634 45.446831 
L 546.180131 46.270062 
L 550.501629 47.277868 
L 554.823126 48.465798 
L 560.585123 50.320747 
L 566.34712 52.472032 
L 572.109117 54.902792 
L 577.871113 57.593783 
L 583.63311 60.523078 
L 590.835606 64.480514 
L 598.038102 68.708885 
L 608.121596 74.937844 
L 634.050581 91.403291 
L 657.098568 105.938824 
L 665.741563 111.093428 
L 672.944059 115.112461 
L 678.706056 118.099443 
L 684.468053 120.854329 
L 690.230049 123.354379 
L 695.992046 125.579706 
L 701.754043 127.512831 
L 706.07554 128.761736 
L 710.397038 129.832244 
L 714.718535 130.719607 
L 719.040033 131.419962 
L 723.361531 131.930199 
L 727.683028 132.248082 
L 732.004526 132.372228 
L 736.326023 132.302053 
L 740.647521 132.037906 
L 744.969018 131.580923 
L 749.290516 130.933122 
L 753.612013 130.09737 
L 757.933511 129.077308 
L 762.255008 127.877461 
L 768.017005 126.007209 
L 773.779002 123.841395 
L 779.540999 121.396923 
L 785.302995 118.692667 
L 791.064992 115.748834 
L 796.826989 112.585721 
L 804.029485 108.351512 
L 806.910483 106.5768 
L 806.910483 106.5768 
" clip-path="url(#p4f77a196d3)" style="fill: none; stroke-dasharray: 22.4,5.6,3.5,5.6; stroke-dashoffset: 0; stroke: #0000ff; stroke-opacity: 0.8; stroke-width: 3.5"/>
   </g>
   <g id="patch_3">
    <path d="M 52.160938 136.79 
L 52.160938 39.64 
" style="fill: none; stroke: #000000; stroke-width: 0.8; stroke-linejoin: miter; stroke-linecap: square"/>
   </g>
   <g id="patch_4">
    <path d="M 842.850937 136.79 
L 842.850937 39.64 
" style="fill: none; stroke: #000000; stroke-width: 0.8; stroke-linejoin: miter; stroke-linecap: square"/>
   </g>
   <g id="patch_5">
    <path d="M 52.160938 136.79 
L 842.850937 136.79 
" style="fill: none; stroke: #000000; stroke-width: 0.8; stroke-linejoin: miter; stroke-linecap: square"/>
   </g>
   <g id="patch_6">
    <path d="M 52.160938 39.64 
L 842.850937 39.64 
" style="fill: none; stroke: #000000; stroke-width: 0.8; stroke-linejoin: miter; stroke-linecap: square"/>
   </g>
   <g id="line2d_12">
    <path d="M 88.101392 47.991356 
L 92.42289 46.892318 
L 96.744387 46.009341 
L 101.065885 45.339938 
L 105.387382 44.880804 
L 109.70888 44.627772 
L 114.030377 44.575866 
L 118.351875 44.719416 
L 122.673372 45.051986 
L 126.99487 45.566539 
L 131.316367 46.255419 
L 137.078364 47.430835 
L 142.840361 48.880716 
L 148.602358 50.582916 
L 154.364354 52.514149 
L 160.126351 54.650242 
L 167.328847 57.57055 
L 174.531343 60.722656 
L 183.174338 64.740964 
L 194.698331 70.358541 
L 222.067816 83.831423 
L 232.15131 88.490946 
L 240.794305 92.232554 
L 247.996801 95.13281 
L 255.199297 97.807602 
L 262.401793 100.235319 
L 269.604289 102.398399 
L 276.806785 104.283353 
L 282.568781 105.584578 
L 288.330778 106.698674 
L 294.092775 107.624215 
L 299.854772 108.361305 
L 305.616768 108.911536 
L 311.378765 109.277903 
L 318.581261 109.484 
L 325.783757 109.420782 
L 332.986253 109.102134 
L 340.188749 108.544385 
L 347.391244 107.765984 
L 354.59374 106.787179 
L 363.236735 105.378725 
L 371.879731 103.752578 
L 381.963225 101.635108 
L 394.927717 98.666116 
L 442.46419 87.486838 
L 453.988184 85.14463 
L 464.071678 83.318328 
L 474.155172 81.730894 
L 482.798167 80.576761 
L 491.441162 79.622957 
L 500.084158 78.874478 
L 508.727153 78.33245 
L 517.370148 77.994334 
L 526.013143 77.854175 
L 536.096637 77.9286 
L 546.180131 78.240914 
L 556.263626 78.767682 
L 567.787619 79.597639 
L 580.752112 80.768791 
L 596.597603 82.446944 
L 622.526588 85.470191 
L 647.015074 88.245084 
L 662.860565 89.825262 
L 677.265557 91.040978 
L 690.230049 91.922639 
L 703.194542 92.585435 
L 716.159035 93.022589 
L 729.123527 93.236618 
L 742.08802 93.238432 
L 756.493012 93.013855 
L 772.338503 92.530343 
L 791.064992 91.71119 
L 806.910483 90.877053 
L 806.910483 90.877053 
" clip-path="url(#p4f77a196d3)" style="fill: none; stroke-dasharray: 3.5,5.775; stroke-dashoffset: 0; stroke: #008000; stroke-opacity: 0.8; stroke-width: 3.5"/>
   </g>
   <g id="line2d_13">
    <path d="M 88.101392 47.991356 
L 92.42289 46.892228 
L 96.744387 46.008979 
L 101.065885 45.339122 
L 105.387382 44.879359 
L 109.70888 44.625524 
L 114.030377 44.572651 
L 118.351875 44.715075 
L 122.673372 45.046371 
L 126.99487 45.559511 
L 131.316367 46.246847 
L 137.078364 47.420027 
L 142.840361 48.867505 
L 148.602358 50.567183 
L 154.364354 52.495837 
L 160.126351 54.629362 
L 167.328847 57.546591 
L 174.531343 60.695904 
L 183.174338 64.711425 
L 194.698331 70.32653 
L 222.067816 83.799658 
L 232.15131 88.460972 
L 240.794305 92.204516 
L 247.996801 95.106538 
L 255.199297 97.783145 
L 262.401793 100.212662 
L 269.604289 102.377481 
L 276.806785 104.264082 
L 282.568781 105.566548 
L 288.330778 106.681811 
L 294.092775 107.608443 
L 299.854772 108.346549 
L 305.616768 108.897723 
L 311.378765 109.264958 
L 318.581261 109.472037 
L 325.783757 109.409688 
L 332.986253 109.091792 
L 340.188749 108.534674 
L 347.391244 107.75678 
L 354.59374 106.778354 
L 363.236735 105.37018 
L 371.879731 103.744128 
L 381.963225 101.626549 
L 394.927717 98.657135 
L 442.46419 87.476259 
L 453.988184 85.134399 
L 464.071678 83.308819 
L 474.155172 81.722525 
L 482.798167 80.569705 
L 491.441162 79.617509 
L 500.084158 78.870908 
L 508.727153 78.330993 
L 517.370148 77.995181 
L 526.013143 77.85747 
L 536.096637 77.934865 
L 546.180131 78.250189 
L 556.263626 78.779922 
L 567.787619 79.6131 
L 580.752112 80.787518 
L 596.597603 82.468922 
L 623.967087 85.664687 
L 647.015074 88.269557 
L 662.860565 89.847682 
L 677.265557 91.060416 
L 690.230049 91.938603 
L 703.194542 92.597324 
L 716.159035 93.02997 
L 729.123527 93.239247 
L 742.08802 93.23626 
L 756.493012 93.006528 
L 772.338503 92.517852 
L 791.064992 91.693668 
L 806.910483 90.856447 
L 806.910483 90.856447 
" clip-path="url(#p4f77a196d3)" style="fill: none; stroke-dasharray: 12.95,5.6; stroke-dashoffset: 0; stroke: #ff0000; stroke-opacity: 0.8; stroke-width: 3.5"/>
   </g>
  </g>
  <g id="axes_2">
   <g id="patch_7">
    <path d="M 52.160938 248.24 
L 842.850937 248.24 
L 842.850937 151.09 
L 52.160938 151.09 
z
" style="fill: #ffffff"/>
   </g>
   <g id="line2d_14">
    <path d="M 88.101392 181.298392 
L 101.065885 191.02094 
L 109.70888 197.244788 
L 116.911376 202.188625 
L 124.113872 206.856067 
L 129.875868 210.360858 
L 135.637865 213.640747 
L 141.399862 216.679378 
L 147.161858 219.463426 
L 152.923855 221.982589 
L 158.685852 224.228626 
L 164.447849 226.193255 
L 170.209845 227.871233 
L 175.971842 229.259861 
L 181.733839 230.358941 
L 187.495835 231.170775 
L 193.257832 231.700168 
L 199.019829 231.954422 
L 204.781826 231.943342 
L 210.543822 231.679231 
L 216.305819 231.173842 
L 222.067816 230.438917 
L 227.829813 229.489818 
L 233.591809 228.342556 
L 240.794305 226.655252 
L 247.996801 224.718348 
L 255.199297 222.567371 
L 263.842292 219.75598 
L 273.925786 216.239835 
L 289.771277 210.43164 
L 309.938266 203.064958 
L 321.462259 199.105449 
L 331.545753 195.894471 
L 340.188749 193.381088 
L 348.831744 191.123667 
L 356.03424 189.456634 
L 363.236735 187.995823 
L 370.439231 186.748115 
L 377.641727 185.716643 
L 384.844223 184.90202 
L 392.046719 184.305194 
L 399.249215 183.923347 
L 406.451711 183.751205 
L 413.654207 183.781161 
L 420.856703 184.003268 
L 429.499698 184.505979 
L 438.142693 185.241914 
L 446.785688 186.183256 
L 456.869182 187.505896 
L 468.393176 189.252724 
L 482.798167 191.681742 
L 533.215639 200.438906 
L 546.180131 202.332406 
L 557.704125 203.789115 
L 569.228118 205.003409 
L 579.311612 205.850799 
L 589.395107 206.489783 
L 599.478601 206.919504 
L 609.562095 207.145235 
L 621.086089 207.164428 
L 632.610082 206.946897 
L 644.134076 206.517145 
L 657.098568 205.81665 
L 672.944059 204.716439 
L 693.111048 203.064499 
L 742.08802 198.948404 
L 759.37401 197.770223 
L 775.219501 196.91202 
L 791.064992 196.291279 
L 805.469984 195.943338 
L 806.910483 195.919862 
L 806.910483 195.919862 
" clip-path="url(#p6c8de745bb)" style="fill: none; stroke: #000000; stroke-opacity: 0.4; stroke-width: 6; stroke-linecap: square"/>
   </g>
   <g id="matplotlib.axis_3">
    <g id="xtick_7">
     <g id="line2d_15">
      <g>
       <use xlink:href="#m789df4f361" x="88.101392" y="248.24" style="stroke: #000000; stroke-width: 0.8"/>
      </g>
     </g>
     <g id="text_5">
      <!-- 0 -->
      <g transform="translate(84.920142 262.838437) scale(0.1 -0.1)">
       <use xlink:href="#DejaVuSans-30"/>
      </g>
     </g>
    </g>
    <g id="xtick_8">
     <g id="line2d_16">
      <g>
       <use xlink:href="#m789df4f361" x="231.86321" y="248.24" style="stroke: #000000; stroke-width: 0.8"/>
      </g>
     </g>
     <g id="text_6">
      <!-- 1 -->
      <g transform="translate(228.68196 262.838437) scale(0.1 -0.1)">
       <defs>
        <path id="DejaVuSans-31" d="M 794 531 
L 1825 531 
L 1825 4091 
L 703 3866 
L 703 4441 
L 1819 4666 
L 2450 4666 
L 2450 531 
L 3481 531 
L 3481 0 
L 794 0 
L 794 531 
z
" transform="scale(0.015625)"/>
       </defs>
       <use xlink:href="#DejaVuSans-31"/>
      </g>
     </g>
    </g>
    <g id="xtick_9">
     <g id="line2d_17">
      <g>
       <use xlink:href="#m789df4f361" x="375.625028" y="248.24" style="stroke: #000000; stroke-width: 0.8"/>
      </g>
     </g>
     <g id="text_7">
      <!-- 2 -->
      <g transform="translate(372.443778 262.838437) scale(0.1 -0.1)">
       <defs>
        <path id="DejaVuSans-32" d="M 1228 531 
L 3431 531 
L 3431 0 
L 469 0 
L 469 531 
Q 828 903 1448 1529 
Q 2069 2156 2228 2338 
Q 2531 2678 2651 2914 
Q 2772 3150 2772 3378 
Q 2772 3750 2511 3984 
Q 2250 4219 1831 4219 
Q 1534 4219 1204 4116 
Q 875 4013 500 3803 
L 500 4441 
Q 881 4594 1212 4672 
Q 1544 4750 1819 4750 
Q 2544 4750 2975 4387 
Q 3406 4025 3406 3419 
Q 3406 3131 3298 2873 
Q 3191 2616 2906 2266 
Q 2828 2175 2409 1742 
Q 1991 1309 1228 531 
z
" transform="scale(0.015625)"/>
       </defs>
       <use xlink:href="#DejaVuSans-32"/>
      </g>
     </g>
    </g>
    <g id="xtick_10">
     <g id="line2d_18">
      <g>
       <use xlink:href="#m789df4f361" x="519.386847" y="248.24" style="stroke: #000000; stroke-width: 0.8"/>
      </g>
     </g>
     <g id="text_8">
      <!-- 3 -->
      <g transform="translate(516.205597 262.838437) scale(0.1 -0.1)">
       <defs>
        <path id="DejaVuSans-33" d="M 2597 2516 
Q 3050 2419 3304 2112 
Q 3559 1806 3559 1356 
Q 3559 666 3084 287 
Q 2609 -91 1734 -91 
Q 1441 -91 1130 -33 
Q 819 25 488 141 
L 488 750 
Q 750 597 1062 519 
Q 1375 441 1716 441 
Q 2309 441 2620 675 
Q 2931 909 2931 1356 
Q 2931 1769 2642 2001 
Q 2353 2234 1838 2234 
L 1294 2234 
L 1294 2753 
L 1863 2753 
Q 2328 2753 2575 2939 
Q 2822 3125 2822 3475 
Q 2822 3834 2567 4026 
Q 2313 4219 1838 4219 
Q 1578 4219 1281 4162 
Q 984 4106 628 3988 
L 628 4550 
Q 988 4650 1302 4700 
Q 1616 4750 1894 4750 
Q 2613 4750 3031 4423 
Q 3450 4097 3450 3541 
Q 3450 3153 3228 2886 
Q 3006 2619 2597 2516 
z
" transform="scale(0.015625)"/>
       </defs>
       <use xlink:href="#DejaVuSans-33"/>
      </g>
     </g>
    </g>
    <g id="xtick_11">
     <g id="line2d_19">
      <g>
       <use xlink:href="#m789df4f361" x="663.148665" y="248.24" style="stroke: #000000; stroke-width: 0.8"/>
      </g>
     </g>
     <g id="text_9">
      <!-- 4 -->
      <g transform="translate(659.967415 262.838437) scale(0.1 -0.1)">
       <defs>
        <path id="DejaVuSans-34" d="M 2419 4116 
L 825 1625 
L 2419 1625 
L 2419 4116 
z
M 2253 4666 
L 3047 4666 
L 3047 1625 
L 3713 1625 
L 3713 1100 
L 3047 1100 
L 3047 0 
L 2419 0 
L 2419 1100 
L 313 1100 
L 313 1709 
L 2253 4666 
z
" transform="scale(0.015625)"/>
       </defs>
       <use xlink:href="#DejaVuSans-34"/>
      </g>
     </g>
    </g>
    <g id="xtick_12">
     <g id="line2d_20">
      <g>
       <use xlink:href="#m789df4f361" x="806.910483" y="248.24" style="stroke: #000000; stroke-width: 0.8"/>
      </g>
     </g>
     <g id="text_10">
      <!-- 5 -->
      <g transform="translate(803.729233 262.838437) scale(0.1 -0.1)">
       <use xlink:href="#DejaVuSans-35"/>
      </g>
     </g>
    </g>
    <g id="text_11">
     <!-- Time -->
     <g transform="translate(435.272344 276.516562) scale(0.1 -0.1)">
      <defs>
       <path id="DejaVuSans-54" d="M -19 4666 
L 3928 4666 
L 3928 4134 
L 2272 4134 
L 2272 0 
L 1638 0 
L 1638 4134 
L -19 4134 
L -19 4666 
z
" transform="scale(0.015625)"/>
       <path id="DejaVuSans-69" d="M 603 3500 
L 1178 3500 
L 1178 0 
L 603 0 
L 603 3500 
z
M 603 4863 
L 1178 4863 
L 1178 4134 
L 603 4134 
L 603 4863 
z
" transform="scale(0.015625)"/>
       <path id="DejaVuSans-6d" d="M 3328 2828 
Q 3544 3216 3844 3400 
Q 4144 3584 4550 3584 
Q 5097 3584 5394 3201 
Q 5691 2819 5691 2113 
L 5691 0 
L 5113 0 
L 5113 2094 
Q 5113 2597 4934 2840 
Q 4756 3084 4391 3084 
Q 3944 3084 3684 2787 
Q 3425 2491 3425 1978 
L 3425 0 
L 2847 0 
L 2847 2094 
Q 2847 2600 2669 2842 
Q 2491 3084 2119 3084 
Q 1678 3084 1418 2786 
Q 1159 2488 1159 1978 
L 1159 0 
L 581 0 
L 581 3500 
L 1159 3500 
L 1159 2956 
Q 1356 3278 1631 3431 
Q 1906 3584 2284 3584 
Q 2666 3584 2933 3390 
Q 3200 3197 3328 2828 
z
" transform="scale(0.015625)"/>
       <path id="DejaVuSans-65" d="M 3597 1894 
L 3597 1613 
L 953 1613 
Q 991 1019 1311 708 
Q 1631 397 2203 397 
Q 2534 397 2845 478 
Q 3156 559 3463 722 
L 3463 178 
Q 3153 47 2828 -22 
Q 2503 -91 2169 -91 
Q 1331 -91 842 396 
Q 353 884 353 1716 
Q 353 2575 817 3079 
Q 1281 3584 2069 3584 
Q 2775 3584 3186 3129 
Q 3597 2675 3597 1894 
z
M 3022 2063 
Q 3016 2534 2758 2815 
Q 2500 3097 2075 3097 
Q 1594 3097 1305 2825 
Q 1016 2553 972 2059 
L 3022 2063 
z
" transform="scale(0.015625)"/>
      </defs>
      <use xlink:href="#DejaVuSans-54"/>
      <use xlink:href="#DejaVuSans-69" transform="translate(57.958984 0)"/>
      <use xlink:href="#DejaVuSans-6d" transform="translate(85.742188 0)"/>
      <use xlink:href="#DejaVuSans-65" transform="translate(183.154297 0)"/>
     </g>
    </g>
   </g>
   <g id="matplotlib.axis_4">
    <g id="ytick_4">
     <g id="line2d_21">
      <g>
       <use xlink:href="#m7313a6f8ce" x="52.160938" y="235.961668" style="stroke: #000000; stroke-width: 0.8"/>
      </g>
     </g>
     <g id="text_12">
      <!-- −1 -->
      <g transform="translate(30.41875 239.760887) scale(0.1 -0.1)">
       <use xlink:href="#DejaVuSans-2212"/>
       <use xlink:href="#DejaVuSans-31" transform="translate(83.789062 0)"/>
      </g>
     </g>
    </g>
    <g id="ytick_5">
     <g id="line2d_22">
      <g>
       <use xlink:href="#m7313a6f8ce" x="52.160938" y="199.519484" style="stroke: #000000; stroke-width: 0.8"/>
      </g>
     </g>
     <g id="text_13">
      <!-- 0 -->
      <g transform="translate(38.798438 203.318702) scale(0.1 -0.1)">
       <use xlink:href="#DejaVuSans-30"/>
      </g>
     </g>
    </g>
    <g id="ytick_6">
     <g id="line2d_23">
      <g>
       <use xlink:href="#m7313a6f8ce" x="52.160938" y="163.077299" style="stroke: #000000; stroke-width: 0.8"/>
      </g>
     </g>
     <g id="text_14">
      <!-- 1 -->
      <g transform="translate(38.798438 166.876518) scale(0.1 -0.1)">
       <use xlink:href="#DejaVuSans-31"/>
      </g>
     </g>
    </g>
    <g id="text_15">
     <!-- $x1$ -->
     <g transform="translate(24.339063 205.815) rotate(-90) scale(0.1 -0.1)">
      <use xlink:href="#DejaVuSans-Oblique-78" transform="translate(0 0.09375)"/>
      <use xlink:href="#DejaVuSans-31" transform="translate(59.179688 0.09375)"/>
     </g>
    </g>
   </g>
   <g id="line2d_24">
    <path d="M 88.101392 181.298392 
L 96.744387 186.779185 
L 106.827881 193.449536 
L 137.078364 213.680047 
L 145.721359 219.088241 
L 152.923855 223.336127 
L 160.126351 227.293104 
L 165.888348 230.216626 
L 171.650344 232.900131 
L 177.412341 235.322738 
L 183.174338 237.465899 
L 188.936335 239.313798 
L 193.257832 240.498305 
L 197.57933 241.505657 
L 201.900827 242.333188 
L 206.222325 242.979272 
L 210.543822 243.443179 
L 214.86532 243.724761 
L 219.186817 243.824091 
L 223.508315 243.741231 
L 227.829813 243.476128 
L 232.15131 243.028694 
L 236.472808 242.399071 
L 240.794305 241.58788 
L 245.115803 240.596678 
L 249.4373 239.428058 
L 255.199297 237.600659 
L 260.961294 235.477043 
L 266.72329 233.072819 
L 272.485287 230.406376 
L 278.247284 227.498425 
L 284.009281 224.37168 
L 291.211776 220.192964 
L 298.414272 215.76173 
L 307.057267 210.187315 
L 320.02176 201.505604 
L 340.188749 187.972437 
L 348.831744 182.435987 
L 356.03424 178.047726 
L 363.236735 173.921735 
L 368.998732 170.843769 
L 374.760729 167.99006 
L 380.522726 165.382975 
L 386.284722 163.043085 
L 392.046719 160.989195 
L 397.808716 159.238557 
L 402.130213 158.134236 
L 406.451711 157.215821 
L 410.773208 156.489144 
L 415.094706 155.959373 
L 419.416203 155.630722 
L 423.737701 155.505909 
L 428.059199 155.586118 
L 432.380696 155.870584 
L 436.702194 156.356865 
L 441.023691 157.041091 
L 445.345189 157.918236 
L 449.666686 158.982604 
L 453.988184 160.227964 
L 459.750181 162.158534 
L 465.512177 164.38241 
L 471.274174 166.881458 
L 477.036171 169.635848 
L 482.798167 172.623953 
L 490.000663 176.651968 
L 497.203159 180.959301 
L 505.846154 186.422519 
L 515.929649 193.080307 
L 547.620631 214.250242 
L 556.263626 219.627304 
L 563.466122 223.841978 
L 570.668617 227.759564 
L 576.430614 230.647445 
L 582.192611 233.291953 
L 587.954608 235.672546 
L 593.716604 237.77104 
L 599.478601 239.572112 
L 603.800099 240.720407 
L 608.121596 241.690905 
L 612.443094 242.48115 
L 616.764591 243.089747 
L 621.086089 243.516094 
L 625.407586 243.760123 
L 629.729084 243.82192 
L 634.050581 243.701527 
L 638.372079 243.398874 
L 642.693576 242.913879 
L 647.015074 242.246776 
L 651.336571 241.39835 
L 655.658069 240.37034 
L 659.979567 239.165617 
L 665.741563 237.291557 
L 671.50356 235.123488 
L 677.265557 232.677483 
L 683.027553 229.972322 
L 688.78955 227.029044 
L 694.551547 223.870634 
L 701.754043 219.657874 
L 708.956539 215.199131 
L 717.599534 209.6008 
L 730.564026 200.902632 
L 749.290516 188.332854 
L 757.933511 182.780532 
L 765.136007 178.374402 
L 772.338503 174.22655 
L 778.100499 171.1284 
L 783.862496 168.252278 
L 789.624493 165.620724 
L 795.38649 163.254482 
L 801.148486 161.17251 
L 806.910483 159.392199 
L 806.910483 159.392199 
" clip-path="url(#p6c8de745bb)" style="fill: none; stroke-dasharray: 22.4,5.6,3.5,5.6; stroke-dashoffset: 0; stroke: #0000ff; stroke-opacity: 0.8; stroke-width: 3.5"/>
   </g>
   <g id="patch_8">
    <path d="M 52.160938 248.24 
L 52.160938 151.09 
" style="fill: none; stroke: #000000; stroke-width: 0.8; stroke-linejoin: miter; stroke-linecap: square"/>
   </g>
   <g id="patch_9">
    <path d="M 842.850937 248.24 
L 842.850937 151.09 
" style="fill: none; stroke: #000000; stroke-width: 0.8; stroke-linejoin: miter; stroke-linecap: square"/>
   </g>
   <g id="patch_10">
    <path d="M 52.160938 248.24 
L 842.850937 248.24 
" style="fill: none; stroke: #000000; stroke-width: 0.8; stroke-linejoin: miter; stroke-linecap: square"/>
   </g>
   <g id="patch_11">
    <path d="M 52.160938 151.09 
L 842.850937 151.09 
" style="fill: none; stroke: #000000; stroke-width: 0.8; stroke-linejoin: miter; stroke-linecap: square"/>
   </g>
   <g id="line2d_25">
    <path d="M 88.101392 181.298392 
L 101.065885 191.015188 
L 109.70888 197.232472 
L 116.911376 202.17169 
L 124.113872 206.838058 
L 129.875868 210.345138 
L 135.637865 213.629847 
L 141.399862 216.674991 
L 147.161858 219.465935 
L 152.923855 221.990589 
L 158.685852 224.239444 
L 164.447849 226.205547 
L 170.209845 227.884478 
L 175.971842 229.274323 
L 181.733839 230.375554 
L 187.495835 231.190939 
L 193.257832 231.725412 
L 199.019829 231.985934 
L 204.781826 231.981365 
L 210.543822 231.722278 
L 216.305819 231.220804 
L 222.067816 230.490462 
L 227.829813 229.545999 
L 233.591809 228.403239 
L 240.794305 226.721478 
L 247.996801 224.790305 
L 255.199297 222.645302 
L 263.842292 219.840396 
L 273.925786 216.330098 
L 289.771277 210.52708 
L 309.938266 203.150062 
L 321.462259 199.180567 
L 331.545753 195.962549 
L 340.188749 193.44217 
L 348.831744 191.174593 
L 356.03424 189.496236 
L 363.236735 188.021933 
L 370.439231 186.759708 
L 377.641727 185.714599 
L 384.844223 184.888736 
L 392.046719 184.281467 
L 399.249215 183.889499 
L 406.451711 183.70708 
L 413.654207 183.726186 
L 420.856703 183.936736 
L 429.499698 184.425213 
L 438.142693 185.14856 
L 446.785688 186.080495 
L 456.869182 187.393438 
L 468.393176 189.133179 
L 482.798167 191.559467 
L 534.656138 200.571494 
L 547.620631 202.456391 
L 559.144624 203.901997 
L 570.668617 205.102161 
L 580.752112 205.936613 
L 590.835606 206.563174 
L 600.9191 206.9811 
L 611.002594 207.194619 
L 622.526588 207.199783 
L 634.050581 206.969015 
L 645.574575 206.527513 
L 658.539067 205.816065 
L 674.384558 204.704534 
L 694.551547 203.041826 
L 742.08802 199.022683 
L 759.37401 197.824982 
L 775.219501 196.945233 
L 789.624493 196.35176 
L 804.029485 195.964757 
L 806.910483 195.912196 
L 806.910483 195.912196 
" clip-path="url(#p6c8de745bb)" style="fill: none; stroke-dasharray: 3.5,5.775; stroke-dashoffset: 0; stroke: #008000; stroke-opacity: 0.8; stroke-width: 3.5"/>
   </g>
   <g id="line2d_26">
    <path d="M 88.101392 181.298392 
L 101.065885 191.007001 
L 109.70888 197.219103 
L 116.911376 202.154328 
L 124.113872 206.817055 
L 129.875868 210.321536 
L 135.637865 213.604006 
L 141.399862 216.647379 
L 147.161858 219.437141 
L 152.923855 221.961323 
L 158.685852 224.210513 
L 164.447849 226.177816 
L 170.209845 227.858815 
L 175.971842 229.251538 
L 181.733839 230.356339 
L 187.495835 231.175822 
L 193.257832 231.714721 
L 199.019829 231.979782 
L 204.781826 231.979659 
L 210.543822 231.724734 
L 216.305819 231.226987 
L 222.067816 230.499829 
L 227.829813 229.557947 
L 233.591809 228.417147 
L 240.794305 226.737003 
L 247.996801 224.806625 
L 255.199297 222.661751 
L 263.842292 219.856351 
L 273.925786 216.344925 
L 289.771277 210.539645 
L 309.938266 203.159682 
L 321.462259 199.188533 
L 331.545753 195.969033 
L 340.188749 193.447329 
L 348.831744 191.178369 
L 356.03424 189.49883 
L 363.236735 188.02334 
L 370.439231 186.759964 
L 377.641727 185.713784 
L 384.844223 184.886987 
L 392.046719 184.278975 
L 399.249215 183.886511 
L 406.451711 183.703886 
L 413.654207 183.723109 
L 420.856703 183.934114 
L 429.499698 184.423581 
L 438.142693 185.148364 
L 446.785688 186.082114 
L 456.869182 187.39753 
L 468.393176 189.140357 
L 482.798167 191.570509 
L 534.656138 200.590878 
L 547.620631 202.475752 
L 559.144624 203.920564 
L 570.668617 205.11923 
L 580.752112 205.951824 
L 590.835606 206.576058 
L 600.9191 206.991239 
L 611.002594 207.201659 
L 622.526588 207.202945 
L 634.050581 206.968073 
L 645.574575 206.522391 
L 658.539067 205.806349 
L 674.384558 204.68968 
L 694.551547 203.021743 
L 742.08802 198.998743 
L 759.37401 197.802857 
L 775.219501 196.926113 
L 789.624493 196.336296 
L 804.029485 195.953617 
L 806.910483 195.901981 
L 806.910483 195.901981 
" clip-path="url(#p6c8de745bb)" style="fill: none; stroke-dasharray: 12.95,5.6; stroke-dashoffset: 0; stroke: #ff0000; stroke-opacity: 0.8; stroke-width: 3.5"/>
   </g>
  </g>
  <g id="text_16">
   <!-- State Variable Simulation Comparison -->
   <g transform="translate(269.943437 20.1175) scale(0.16 -0.16)">
    <defs>
     <path id="DejaVuSans-53" d="M 3425 4513 
L 3425 3897 
Q 3066 4069 2747 4153 
Q 2428 4238 2131 4238 
Q 1616 4238 1336 4038 
Q 1056 3838 1056 3469 
Q 1056 3159 1242 3001 
Q 1428 2844 1947 2747 
L 2328 2669 
Q 3034 2534 3370 2195 
Q 3706 1856 3706 1288 
Q 3706 609 3251 259 
Q 2797 -91 1919 -91 
Q 1588 -91 1214 -16 
Q 841 59 441 206 
L 441 856 
Q 825 641 1194 531 
Q 1563 422 1919 422 
Q 2459 422 2753 634 
Q 3047 847 3047 1241 
Q 3047 1584 2836 1778 
Q 2625 1972 2144 2069 
L 1759 2144 
Q 1053 2284 737 2584 
Q 422 2884 422 3419 
Q 422 4038 858 4394 
Q 1294 4750 2059 4750 
Q 2388 4750 2728 4690 
Q 3069 4631 3425 4513 
z
" transform="scale(0.015625)"/>
     <path id="DejaVuSans-74" d="M 1172 4494 
L 1172 3500 
L 2356 3500 
L 2356 3053 
L 1172 3053 
L 1172 1153 
Q 1172 725 1289 603 
Q 1406 481 1766 481 
L 2356 481 
L 2356 0 
L 1766 0 
Q 1100 0 847 248 
Q 594 497 594 1153 
L 594 3053 
L 172 3053 
L 172 3500 
L 594 3500 
L 594 4494 
L 1172 4494 
z
" transform="scale(0.015625)"/>
     <path id="DejaVuSans-61" d="M 2194 1759 
Q 1497 1759 1228 1600 
Q 959 1441 959 1056 
Q 959 750 1161 570 
Q 1363 391 1709 391 
Q 2188 391 2477 730 
Q 2766 1069 2766 1631 
L 2766 1759 
L 2194 1759 
z
M 3341 1997 
L 3341 0 
L 2766 0 
L 2766 531 
Q 2569 213 2275 61 
Q 1981 -91 1556 -91 
Q 1019 -91 701 211 
Q 384 513 384 1019 
Q 384 1609 779 1909 
Q 1175 2209 1959 2209 
L 2766 2209 
L 2766 2266 
Q 2766 2663 2505 2880 
Q 2244 3097 1772 3097 
Q 1472 3097 1187 3025 
Q 903 2953 641 2809 
L 641 3341 
Q 956 3463 1253 3523 
Q 1550 3584 1831 3584 
Q 2591 3584 2966 3190 
Q 3341 2797 3341 1997 
z
" transform="scale(0.015625)"/>
     <path id="DejaVuSans-20" transform="scale(0.015625)"/>
     <path id="DejaVuSans-56" d="M 1831 0 
L 50 4666 
L 709 4666 
L 2188 738 
L 3669 4666 
L 4325 4666 
L 2547 0 
L 1831 0 
z
" transform="scale(0.015625)"/>
     <path id="DejaVuSans-72" d="M 2631 2963 
Q 2534 3019 2420 3045 
Q 2306 3072 2169 3072 
Q 1681 3072 1420 2755 
Q 1159 2438 1159 1844 
L 1159 0 
L 581 0 
L 581 3500 
L 1159 3500 
L 1159 2956 
Q 1341 3275 1631 3429 
Q 1922 3584 2338 3584 
Q 2397 3584 2469 3576 
Q 2541 3569 2628 3553 
L 2631 2963 
z
" transform="scale(0.015625)"/>
     <path id="DejaVuSans-62" d="M 3116 1747 
Q 3116 2381 2855 2742 
Q 2594 3103 2138 3103 
Q 1681 3103 1420 2742 
Q 1159 2381 1159 1747 
Q 1159 1113 1420 752 
Q 1681 391 2138 391 
Q 2594 391 2855 752 
Q 3116 1113 3116 1747 
z
M 1159 2969 
Q 1341 3281 1617 3432 
Q 1894 3584 2278 3584 
Q 2916 3584 3314 3078 
Q 3713 2572 3713 1747 
Q 3713 922 3314 415 
Q 2916 -91 2278 -91 
Q 1894 -91 1617 61 
Q 1341 213 1159 525 
L 1159 0 
L 581 0 
L 581 4863 
L 1159 4863 
L 1159 2969 
z
" transform="scale(0.015625)"/>
     <path id="DejaVuSans-6c" d="M 603 4863 
L 1178 4863 
L 1178 0 
L 603 0 
L 603 4863 
z
" transform="scale(0.015625)"/>
     <path id="DejaVuSans-75" d="M 544 1381 
L 544 3500 
L 1119 3500 
L 1119 1403 
Q 1119 906 1312 657 
Q 1506 409 1894 409 
Q 2359 409 2629 706 
Q 2900 1003 2900 1516 
L 2900 3500 
L 3475 3500 
L 3475 0 
L 2900 0 
L 2900 538 
Q 2691 219 2414 64 
Q 2138 -91 1772 -91 
Q 1169 -91 856 284 
Q 544 659 544 1381 
z
M 1991 3584 
L 1991 3584 
z
" transform="scale(0.015625)"/>
     <path id="DejaVuSans-6f" d="M 1959 3097 
Q 1497 3097 1228 2736 
Q 959 2375 959 1747 
Q 959 1119 1226 758 
Q 1494 397 1959 397 
Q 2419 397 2687 759 
Q 2956 1122 2956 1747 
Q 2956 2369 2687 2733 
Q 2419 3097 1959 3097 
z
M 1959 3584 
Q 2709 3584 3137 3096 
Q 3566 2609 3566 1747 
Q 3566 888 3137 398 
Q 2709 -91 1959 -91 
Q 1206 -91 779 398 
Q 353 888 353 1747 
Q 353 2609 779 3096 
Q 1206 3584 1959 3584 
z
" transform="scale(0.015625)"/>
     <path id="DejaVuSans-6e" d="M 3513 2113 
L 3513 0 
L 2938 0 
L 2938 2094 
Q 2938 2591 2744 2837 
Q 2550 3084 2163 3084 
Q 1697 3084 1428 2787 
Q 1159 2491 1159 1978 
L 1159 0 
L 581 0 
L 581 3500 
L 1159 3500 
L 1159 2956 
Q 1366 3272 1645 3428 
Q 1925 3584 2291 3584 
Q 2894 3584 3203 3211 
Q 3513 2838 3513 2113 
z
" transform="scale(0.015625)"/>
     <path id="DejaVuSans-43" d="M 4122 4306 
L 4122 3641 
Q 3803 3938 3442 4084 
Q 3081 4231 2675 4231 
Q 1875 4231 1450 3742 
Q 1025 3253 1025 2328 
Q 1025 1406 1450 917 
Q 1875 428 2675 428 
Q 3081 428 3442 575 
Q 3803 722 4122 1019 
L 4122 359 
Q 3791 134 3420 21 
Q 3050 -91 2638 -91 
Q 1578 -91 968 557 
Q 359 1206 359 2328 
Q 359 3453 968 4101 
Q 1578 4750 2638 4750 
Q 3056 4750 3426 4639 
Q 3797 4528 4122 4306 
z
" transform="scale(0.015625)"/>
     <path id="DejaVuSans-70" d="M 1159 525 
L 1159 -1331 
L 581 -1331 
L 581 3500 
L 1159 3500 
L 1159 2969 
Q 1341 3281 1617 3432 
Q 1894 3584 2278 3584 
Q 2916 3584 3314 3078 
Q 3713 2572 3713 1747 
Q 3713 922 3314 415 
Q 2916 -91 2278 -91 
Q 1894 -91 1617 61 
Q 1341 213 1159 525 
z
M 3116 1747 
Q 3116 2381 2855 2742 
Q 2594 3103 2138 3103 
Q 1681 3103 1420 2742 
Q 1159 2381 1159 1747 
Q 1159 1113 1420 752 
Q 1681 391 2138 391 
Q 2594 391 2855 752 
Q 3116 1113 3116 1747 
z
" transform="scale(0.015625)"/>
     <path id="DejaVuSans-73" d="M 2834 3397 
L 2834 2853 
Q 2591 2978 2328 3040 
Q 2066 3103 1784 3103 
Q 1356 3103 1142 2972 
Q 928 2841 928 2578 
Q 928 2378 1081 2264 
Q 1234 2150 1697 2047 
L 1894 2003 
Q 2506 1872 2764 1633 
Q 3022 1394 3022 966 
Q 3022 478 2636 193 
Q 2250 -91 1575 -91 
Q 1294 -91 989 -36 
Q 684 19 347 128 
L 347 722 
Q 666 556 975 473 
Q 1284 391 1588 391 
Q 1994 391 2212 530 
Q 2431 669 2431 922 
Q 2431 1156 2273 1281 
Q 2116 1406 1581 1522 
L 1381 1569 
Q 847 1681 609 1914 
Q 372 2147 372 2553 
Q 372 3047 722 3315 
Q 1072 3584 1716 3584 
Q 2034 3584 2315 3537 
Q 2597 3491 2834 3397 
z
" transform="scale(0.015625)"/>
    </defs>
    <use xlink:href="#DejaVuSans-53"/>
    <use xlink:href="#DejaVuSans-74" transform="translate(63.476562 0)"/>
    <use xlink:href="#DejaVuSans-61" transform="translate(102.685547 0)"/>
    <use xlink:href="#DejaVuSans-74" transform="translate(163.964844 0)"/>
    <use xlink:href="#DejaVuSans-65" transform="translate(203.173828 0)"/>
    <use xlink:href="#DejaVuSans-20" transform="translate(264.697266 0)"/>
    <use xlink:href="#DejaVuSans-56" transform="translate(296.484375 0)"/>
    <use xlink:href="#DejaVuSans-61" transform="translate(357.142578 0)"/>
    <use xlink:href="#DejaVuSans-72" transform="translate(418.421875 0)"/>
    <use xlink:href="#DejaVuSans-69" transform="translate(459.535156 0)"/>
    <use xlink:href="#DejaVuSans-61" transform="translate(487.318359 0)"/>
    <use xlink:href="#DejaVuSans-62" transform="translate(548.597656 0)"/>
    <use xlink:href="#DejaVuSans-6c" transform="translate(612.074219 0)"/>
    <use xlink:href="#DejaVuSans-65" transform="translate(639.857422 0)"/>
    <use xlink:href="#DejaVuSans-20" transform="translate(701.380859 0)"/>
    <use xlink:href="#DejaVuSans-53" transform="translate(733.167969 0)"/>
    <use xlink:href="#DejaVuSans-69" transform="translate(796.644531 0)"/>
    <use xlink:href="#DejaVuSans-6d" transform="translate(824.427734 0)"/>
    <use xlink:href="#DejaVuSans-75" transform="translate(921.839844 0)"/>
    <use xlink:href="#DejaVuSans-6c" transform="translate(985.21875 0)"/>
    <use xlink:href="#DejaVuSans-61" transform="translate(1013.001953 0)"/>
    <use xlink:href="#DejaVuSans-74" transform="translate(1074.28125 0)"/>
    <use xlink:href="#DejaVuSans-69" transform="translate(1113.490234 0)"/>
    <use xlink:href="#DejaVuSans-6f" transform="translate(1141.273438 0)"/>
    <use xlink:href="#DejaVuSans-6e" transform="translate(1202.455078 0)"/>
    <use xlink:href="#DejaVuSans-20" transform="translate(1265.833984 0)"/>
    <use xlink:href="#DejaVuSans-43" transform="translate(1297.621094 0)"/>
    <use xlink:href="#DejaVuSans-6f" transform="translate(1367.445312 0)"/>
    <use xlink:href="#DejaVuSans-6d" transform="translate(1428.626953 0)"/>
    <use xlink:href="#DejaVuSans-70" transform="translate(1526.039062 0)"/>
    <use xlink:href="#DejaVuSans-61" transform="translate(1589.515625 0)"/>
    <use xlink:href="#DejaVuSans-72" transform="translate(1650.794922 0)"/>
    <use xlink:href="#DejaVuSans-69" transform="translate(1691.908203 0)"/>
    <use xlink:href="#DejaVuSans-73" transform="translate(1719.691406 0)"/>
    <use xlink:href="#DejaVuSans-6f" transform="translate(1771.791016 0)"/>
    <use xlink:href="#DejaVuSans-6e" transform="translate(1832.972656 0)"/>
   </g>
  </g>
  <g id="legend_1">
   <g id="patch_12">
    <path d="M 737.779063 66.7125 
L 848.850937 66.7125 
Q 850.850937 66.7125 850.850937 64.7125 
L 850.850937 7 
Q 850.850937 5 848.850937 5 
L 737.779063 5 
Q 735.779063 5 735.779063 7 
L 735.779063 64.7125 
Q 735.779063 66.7125 737.779063 66.7125 
z
" style="fill: #ffffff; opacity: 0.5; stroke: #cccccc; stroke-linejoin: miter"/>
   </g>
   <g id="line2d_27">
    <path d="M 739.779063 13.098437 
L 749.779063 13.098437 
L 759.779063 13.098437 
" style="fill: none; stroke: #000000; stroke-opacity: 0.4; stroke-width: 6; stroke-linecap: square"/>
   </g>
   <g id="text_17">
    <!-- True Trajectory -->
    <g transform="translate(767.779063 16.598437) scale(0.1 -0.1)">
     <defs>
      <path id="DejaVuSans-6a" d="M 603 3500 
L 1178 3500 
L 1178 -63 
Q 1178 -731 923 -1031 
Q 669 -1331 103 -1331 
L -116 -1331 
L -116 -844 
L 38 -844 
Q 366 -844 484 -692 
Q 603 -541 603 -63 
L 603 3500 
z
M 603 4863 
L 1178 4863 
L 1178 4134 
L 603 4134 
L 603 4863 
z
" transform="scale(0.015625)"/>
      <path id="DejaVuSans-63" d="M 3122 3366 
L 3122 2828 
Q 2878 2963 2633 3030 
Q 2388 3097 2138 3097 
Q 1578 3097 1268 2742 
Q 959 2388 959 1747 
Q 959 1106 1268 751 
Q 1578 397 2138 397 
Q 2388 397 2633 464 
Q 2878 531 3122 666 
L 3122 134 
Q 2881 22 2623 -34 
Q 2366 -91 2075 -91 
Q 1284 -91 818 406 
Q 353 903 353 1747 
Q 353 2603 823 3093 
Q 1294 3584 2113 3584 
Q 2378 3584 2631 3529 
Q 2884 3475 3122 3366 
z
" transform="scale(0.015625)"/>
      <path id="DejaVuSans-79" d="M 2059 -325 
Q 1816 -950 1584 -1140 
Q 1353 -1331 966 -1331 
L 506 -1331 
L 506 -850 
L 844 -850 
Q 1081 -850 1212 -737 
Q 1344 -625 1503 -206 
L 1606 56 
L 191 3500 
L 800 3500 
L 1894 763 
L 2988 3500 
L 3597 3500 
L 2059 -325 
z
" transform="scale(0.015625)"/>
     </defs>
     <use xlink:href="#DejaVuSans-54"/>
     <use xlink:href="#DejaVuSans-72" transform="translate(46.333984 0)"/>
     <use xlink:href="#DejaVuSans-75" transform="translate(87.447266 0)"/>
     <use xlink:href="#DejaVuSans-65" transform="translate(150.826172 0)"/>
     <use xlink:href="#DejaVuSans-20" transform="translate(212.349609 0)"/>
     <use xlink:href="#DejaVuSans-54" transform="translate(244.136719 0)"/>
     <use xlink:href="#DejaVuSans-72" transform="translate(290.470703 0)"/>
     <use xlink:href="#DejaVuSans-61" transform="translate(331.583984 0)"/>
     <use xlink:href="#DejaVuSans-6a" transform="translate(392.863281 0)"/>
     <use xlink:href="#DejaVuSans-65" transform="translate(420.646484 0)"/>
     <use xlink:href="#DejaVuSans-63" transform="translate(482.169922 0)"/>
     <use xlink:href="#DejaVuSans-74" transform="translate(537.150391 0)"/>
     <use xlink:href="#DejaVuSans-6f" transform="translate(576.359375 0)"/>
     <use xlink:href="#DejaVuSans-72" transform="translate(637.541016 0)"/>
     <use xlink:href="#DejaVuSans-79" transform="translate(678.654297 0)"/>
    </g>
   </g>
   <g id="line2d_28">
    <path d="M 739.779063 27.776562 
L 749.779063 27.776562 
L 759.779063 27.776562 
" style="fill: none; stroke-dasharray: 12.95,5.6; stroke-dashoffset: 0; stroke: #ff0000; stroke-opacity: 0.8; stroke-width: 3.5"/>
   </g>
   <g id="text_18">
    <!-- AutoSINDy -->
    <g transform="translate(767.779063 31.276562) scale(0.1 -0.1)">
     <defs>
      <path id="DejaVuSans-41" d="M 2188 4044 
L 1331 1722 
L 3047 1722 
L 2188 4044 
z
M 1831 4666 
L 2547 4666 
L 4325 0 
L 3669 0 
L 3244 1197 
L 1141 1197 
L 716 0 
L 50 0 
L 1831 4666 
z
" transform="scale(0.015625)"/>
      <path id="DejaVuSans-49" d="M 628 4666 
L 1259 4666 
L 1259 0 
L 628 0 
L 628 4666 
z
" transform="scale(0.015625)"/>
      <path id="DejaVuSans-4e" d="M 628 4666 
L 1478 4666 
L 3547 763 
L 3547 4666 
L 4159 4666 
L 4159 0 
L 3309 0 
L 1241 3903 
L 1241 0 
L 628 0 
L 628 4666 
z
" transform="scale(0.015625)"/>
      <path id="DejaVuSans-44" d="M 1259 4147 
L 1259 519 
L 2022 519 
Q 2988 519 3436 956 
Q 3884 1394 3884 2338 
Q 3884 3275 3436 3711 
Q 2988 4147 2022 4147 
L 1259 4147 
z
M 628 4666 
L 1925 4666 
Q 3281 4666 3915 4102 
Q 4550 3538 4550 2338 
Q 4550 1131 3912 565 
Q 3275 0 1925 0 
L 628 0 
L 628 4666 
z
" transform="scale(0.015625)"/>
     </defs>
     <use xlink:href="#DejaVuSans-41"/>
     <use xlink:href="#DejaVuSans-75" transform="translate(68.408203 0)"/>
     <use xlink:href="#DejaVuSans-74" transform="translate(131.787109 0)"/>
     <use xlink:href="#DejaVuSans-6f" transform="translate(170.996094 0)"/>
     <use xlink:href="#DejaVuSans-53" transform="translate(232.177734 0)"/>
     <use xlink:href="#DejaVuSans-49" transform="translate(295.654297 0)"/>
     <use xlink:href="#DejaVuSans-4e" transform="translate(325.146484 0)"/>
     <use xlink:href="#DejaVuSans-44" transform="translate(399.951172 0)"/>
     <use xlink:href="#DejaVuSans-79" transform="translate(476.953125 0)"/>
    </g>
   </g>
   <g id="line2d_29">
    <path d="M 739.779063 42.454687 
L 749.779063 42.454687 
L 759.779063 42.454687 
" style="fill: none; stroke-dasharray: 3.5,5.775; stroke-dashoffset: 0; stroke: #008000; stroke-opacity: 0.8; stroke-width: 3.5"/>
   </g>
   <g id="text_19">
    <!-- Standard SINDy -->
    <g transform="translate(767.779063 45.954687) scale(0.1 -0.1)">
     <defs>
      <path id="DejaVuSans-64" d="M 2906 2969 
L 2906 4863 
L 3481 4863 
L 3481 0 
L 2906 0 
L 2906 525 
Q 2725 213 2448 61 
Q 2172 -91 1784 -91 
Q 1150 -91 751 415 
Q 353 922 353 1747 
Q 353 2572 751 3078 
Q 1150 3584 1784 3584 
Q 2172 3584 2448 3432 
Q 2725 3281 2906 2969 
z
M 947 1747 
Q 947 1113 1208 752 
Q 1469 391 1925 391 
Q 2381 391 2643 752 
Q 2906 1113 2906 1747 
Q 2906 2381 2643 2742 
Q 2381 3103 1925 3103 
Q 1469 3103 1208 2742 
Q 947 2381 947 1747 
z
" transform="scale(0.015625)"/>
     </defs>
     <use xlink:href="#DejaVuSans-53"/>
     <use xlink:href="#DejaVuSans-74" transform="translate(63.476562 0)"/>
     <use xlink:href="#DejaVuSans-61" transform="translate(102.685547 0)"/>
     <use xlink:href="#DejaVuSans-6e" transform="translate(163.964844 0)"/>
     <use xlink:href="#DejaVuSans-64" transform="translate(227.34375 0)"/>
     <use xlink:href="#DejaVuSans-61" transform="translate(290.820312 0)"/>
     <use xlink:href="#DejaVuSans-72" transform="translate(352.099609 0)"/>
     <use xlink:href="#DejaVuSans-64" transform="translate(391.462891 0)"/>
     <use xlink:href="#DejaVuSans-20" transform="translate(454.939453 0)"/>
     <use xlink:href="#DejaVuSans-53" transform="translate(486.726562 0)"/>
     <use xlink:href="#DejaVuSans-49" transform="translate(550.203125 0)"/>
     <use xlink:href="#DejaVuSans-4e" transform="translate(579.695312 0)"/>
     <use xlink:href="#DejaVuSans-44" transform="translate(654.5 0)"/>
     <use xlink:href="#DejaVuSans-79" transform="translate(731.501953 0)"/>
    </g>
   </g>
   <g id="line2d_30">
    <path d="M 739.779063 57.132812 
L 749.779063 57.132812 
L 759.779063 57.132812 
" style="fill: none; stroke-dasharray: 22.4,5.6,3.5,5.6; stroke-dashoffset: 0; stroke: #0000ff; stroke-opacity: 0.8; stroke-width: 3.5"/>
   </g>
   <g id="text_20">
    <!-- Standard PySR -->
    <g transform="translate(767.779063 60.632812) scale(0.1 -0.1)">
     <defs>
      <path id="DejaVuSans-50" d="M 1259 4147 
L 1259 2394 
L 2053 2394 
Q 2494 2394 2734 2622 
Q 2975 2850 2975 3272 
Q 2975 3691 2734 3919 
Q 2494 4147 2053 4147 
L 1259 4147 
z
M 628 4666 
L 2053 4666 
Q 2838 4666 3239 4311 
Q 3641 3956 3641 3272 
Q 3641 2581 3239 2228 
Q 2838 1875 2053 1875 
L 1259 1875 
L 1259 0 
L 628 0 
L 628 4666 
z
" transform="scale(0.015625)"/>
      <path id="DejaVuSans-52" d="M 2841 2188 
Q 3044 2119 3236 1894 
Q 3428 1669 3622 1275 
L 4263 0 
L 3584 0 
L 2988 1197 
Q 2756 1666 2539 1819 
Q 2322 1972 1947 1972 
L 1259 1972 
L 1259 0 
L 628 0 
L 628 4666 
L 2053 4666 
Q 2853 4666 3247 4331 
Q 3641 3997 3641 3322 
Q 3641 2881 3436 2590 
Q 3231 2300 2841 2188 
z
M 1259 4147 
L 1259 2491 
L 2053 2491 
Q 2509 2491 2742 2702 
Q 2975 2913 2975 3322 
Q 2975 3731 2742 3939 
Q 2509 4147 2053 4147 
L 1259 4147 
z
" transform="scale(0.015625)"/>
     </defs>
     <use xlink:href="#DejaVuSans-53"/>
     <use xlink:href="#DejaVuSans-74" transform="translate(63.476562 0)"/>
     <use xlink:href="#DejaVuSans-61" transform="translate(102.685547 0)"/>
     <use xlink:href="#DejaVuSans-6e" transform="translate(163.964844 0)"/>
     <use xlink:href="#DejaVuSans-64" transform="translate(227.34375 0)"/>
     <use xlink:href="#DejaVuSans-61" transform="translate(290.820312 0)"/>
     <use xlink:href="#DejaVuSans-72" transform="translate(352.099609 0)"/>
     <use xlink:href="#DejaVuSans-64" transform="translate(391.462891 0)"/>
     <use xlink:href="#DejaVuSans-20" transform="translate(454.939453 0)"/>
     <use xlink:href="#DejaVuSans-50" transform="translate(486.726562 0)"/>
     <use xlink:href="#DejaVuSans-79" transform="translate(547.029297 0)"/>
     <use xlink:href="#DejaVuSans-53" transform="translate(606.208984 0)"/>
     <use xlink:href="#DejaVuSans-52" transform="translate(669.685547 0)"/>
    </g>
   </g>
  </g>
 </g>
 <defs>
  <clipPath id="p4f77a196d3">
   <rect x="52.160938" y="39.64" width="790.69" height="97.15"/>
  </clipPath>
  <clipPath id="p6c8de745bb">
   <rect x="52.160938" y="151.09" width="790.69" height="97.15"/>
  </clipPath>
 </defs>
</svg>
