<?xml version="1.0" encoding="utf-8" standalone="no"?>
<!DOCTYPE svg PUBLIC "-//W3C//DTD SVG 1.1//EN"
  "http://www.w3.org/Graphics/SVG/1.1/DTD/svg11.dtd">
<svg xmlns:xlink="http://www.w3.org/1999/xlink" width="568.410313pt" height="567.994375pt" viewBox="0 0 568.410313 567.994375" xmlns="http://www.w3.org/2000/svg" version="1.1">
 <metadata>
  <rdf:RDF xmlns:dc="http://purl.org/dc/elements/1.1/" xmlns:cc="http://creativecommons.org/ns#" xmlns:rdf="http://www.w3.org/1999/02/22-rdf-syntax-ns#">
   <cc:Work>
    <dc:type rdf:resource="http://purl.org/dc/dcmitype/StillImage"/>
    <dc:date>2026-04-06T01:35:10.536012</dc:date>
    <dc:format>image/svg+xml</dc:format>
    <dc:creator>
     <cc:Agent>
      <dc:title>Matplotlib v3.10.7, https://matplotlib.org/</dc:title>
     </cc:Agent>
    </dc:creator>
   </cc:Work>
  </rdf:RDF>
 </metadata>
 <defs>
  <style type="text/css">*{stroke-linejoin: round; stroke-linecap: butt}</style>
 </defs>
 <g id="figure_1">
  <g id="patch_1">
   <path d="M 0 567.994375 
L 568.410313 567.994375 
L 568.410313 0 
L 0 0 
z
" style="fill: #ffffff"/>
  </g>
  <g id="axes_1">
   <g id="patch_2">
    <path d="M 42.620313 530.438125 
L 561.210312 530.438125 
L 561.210312 22.318125 
L 42.620313 22.318125 
z
" style="fill: #ffffff"/>
   </g>
   <g id="matplotlib.axis_1">
    <g id="xtick_1">
     <g id="line2d_1">
      <defs>
       <path id="md6677bb580" d="M 0 0 
L 0 3.5 
" style="stroke: #000000; stroke-width: 0.8"/>
      </defs>
      <g>
       <use xlink:href="#md6677bb580" x="124.020762" y="530.438125" style="stroke: #000000; stroke-width: 0.8"/>
      </g>
     </g>
     <g id="text_1">
      <!-- −2 -->
      <g transform="translate(116.649668 545.036562) scale(0.1 -0.1)">
       <defs>
        <path id="DejaVuSans-2212" d="M 678 2272 
L 4684 2272 
L 4684 1741 
L 678 1741 
L 678 2272 
z
" transform="scale(0.015625)"/>
        <path id="DejaVuSans-32" d="M 1228 531 
L 3431 531 
L 3431 0 
L 469 0 
L 469 531 
Q 828 903 1448 1529 
Q 2069 2156 2228 2338 
Q 2531 2678 2651 2914 
Q 2772 3150 2772 3378 
Q 2772 3750 2511 3984 
Q 2250 4219 1831 4219 
Q 1534 4219 1204 4116 
Q 875 4013 500 3803 
L 500 4441 
Q 881 4594 1212 4672 
Q 1544 4750 1819 4750 
Q 2544 4750 2975 4387 
Q 3406 4025 3406 3419 
Q 3406 3131 3298 2873 
Q 3191 2616 2906 2266 
Q 2828 2175 2409 1742 
Q 1991 1309 1228 531 
z
" transform="scale(0.015625)"/>
       </defs>
       <use xlink:href="#DejaVuSans-2212"/>
       <use xlink:href="#DejaVuSans-32" transform="translate(83.789062 0)"/>
      </g>
     </g>
    </g>
    <g id="xtick_2">
     <g id="line2d_2">
      <g>
       <use xlink:href="#md6677bb580" x="212.96847" y="530.438125" style="stroke: #000000; stroke-width: 0.8"/>
      </g>
     </g>
     <g id="text_2">
      <!-- −1 -->
      <g transform="translate(205.597376 545.036562) scale(0.1 -0.1)">
       <defs>
        <path id="DejaVuSans-31" d="M 794 531 
L 1825 531 
L 1825 4091 
L 703 3866 
L 703 4441 
L 1819 4666 
L 2450 4666 
L 2450 531 
L 3481 531 
L 3481 0 
L 794 0 
L 794 531 
z
" transform="scale(0.015625)"/>
       </defs>
       <use xlink:href="#DejaVuSans-2212"/>
       <use xlink:href="#DejaVuSans-31" transform="translate(83.789062 0)"/>
      </g>
     </g>
    </g>
    <g id="xtick_3">
     <g id="line2d_3">
      <g>
       <use xlink:href="#md6677bb580" x="301.916178" y="530.438125" style="stroke: #000000; stroke-width: 0.8"/>
      </g>
     </g>
     <g id="text_3">
      <!-- 0 -->
      <g transform="translate(298.734928 545.036562) scale(0.1 -0.1)">
       <defs>
        <path id="DejaVuSans-30" d="M 2034 4250 
Q 1547 4250 1301 3770 
Q 1056 3291 1056 2328 
Q 1056 1369 1301 889 
Q 1547 409 2034 409 
Q 2525 409 2770 889 
Q 3016 1369 3016 2328 
Q 3016 3291 2770 3770 
Q 2525 4250 2034 4250 
z
M 2034 4750 
Q 2819 4750 3233 4129 
Q 3647 3509 3647 2328 
Q 3647 1150 3233 529 
Q 2819 -91 2034 -91 
Q 1250 -91 836 529 
Q 422 1150 422 2328 
Q 422 3509 836 4129 
Q 1250 4750 2034 4750 
z
" transform="scale(0.015625)"/>
       </defs>
       <use xlink:href="#DejaVuSans-30"/>
      </g>
     </g>
    </g>
    <g id="xtick_4">
     <g id="line2d_4">
      <g>
       <use xlink:href="#md6677bb580" x="390.863887" y="530.438125" style="stroke: #000000; stroke-width: 0.8"/>
      </g>
     </g>
     <g id="text_4">
      <!-- 1 -->
      <g transform="translate(387.682637 545.036562) scale(0.1 -0.1)">
       <use xlink:href="#DejaVuSans-31"/>
      </g>
     </g>
    </g>
    <g id="xtick_5">
     <g id="line2d_5">
      <g>
       <use xlink:href="#md6677bb580" x="479.811595" y="530.438125" style="stroke: #000000; stroke-width: 0.8"/>
      </g>
     </g>
     <g id="text_5">
      <!-- 2 -->
      <g transform="translate(476.630345 545.036562) scale(0.1 -0.1)">
       <use xlink:href="#DejaVuSans-32"/>
      </g>
     </g>
    </g>
    <g id="text_6">
     <!-- x0 -->
     <g transform="translate(295.774687 558.714687) scale(0.1 -0.1)">
      <defs>
       <path id="DejaVuSans-78" d="M 3513 3500 
L 2247 1797 
L 3578 0 
L 2900 0 
L 1881 1375 
L 863 0 
L 184 0 
L 1544 1831 
L 300 3500 
L 978 3500 
L 1906 2253 
L 2834 3500 
L 3513 3500 
z
" transform="scale(0.015625)"/>
      </defs>
      <use xlink:href="#DejaVuSans-78"/>
      <use xlink:href="#DejaVuSans-30" transform="translate(59.179688 0)"/>
     </g>
    </g>
   </g>
   <g id="matplotlib.axis_2">
    <g id="ytick_1">
     <g id="line2d_6">
      <defs>
       <path id="mc2f04c5d2b" d="M 0 0 
L -3.5 0 
" style="stroke: #000000; stroke-width: 0.8"/>
      </defs>
      <g>
       <use xlink:href="#mc2f04c5d2b" x="42.620313" y="491.156092" style="stroke: #000000; stroke-width: 0.8"/>
      </g>
     </g>
     <g id="text_7">
      <!-- −4 -->
      <g transform="translate(20.878125 494.95531) scale(0.1 -0.1)">
       <defs>
        <path id="DejaVuSans-34" d="M 2419 4116 
L 825 1625 
L 2419 1625 
L 2419 4116 
z
M 2253 4666 
L 3047 4666 
L 3047 1625 
L 3713 1625 
L 3713 1100 
L 3047 1100 
L 3047 0 
L 2419 0 
L 2419 1100 
L 313 1100 
L 313 1709 
L 2253 4666 
z
" transform="scale(0.015625)"/>
       </defs>
       <use xlink:href="#DejaVuSans-2212"/>
       <use xlink:href="#DejaVuSans-34" transform="translate(83.789062 0)"/>
      </g>
     </g>
    </g>
    <g id="ytick_2">
     <g id="line2d_7">
      <g>
       <use xlink:href="#mc2f04c5d2b" x="42.620313" y="383.766318" style="stroke: #000000; stroke-width: 0.8"/>
      </g>
     </g>
     <g id="text_8">
      <!-- −2 -->
      <g transform="translate(20.878125 387.565537) scale(0.1 -0.1)">
       <use xlink:href="#DejaVuSans-2212"/>
       <use xlink:href="#DejaVuSans-32" transform="translate(83.789062 0)"/>
      </g>
     </g>
    </g>
    <g id="ytick_3">
     <g id="line2d_8">
      <g>
       <use xlink:href="#mc2f04c5d2b" x="42.620313" y="276.376545" style="stroke: #000000; stroke-width: 0.8"/>
      </g>
     </g>
     <g id="text_9">
      <!-- 0 -->
      <g transform="translate(29.257813 280.175763) scale(0.1 -0.1)">
       <use xlink:href="#DejaVuSans-30"/>
      </g>
     </g>
    </g>
    <g id="ytick_4">
     <g id="line2d_9">
      <g>
       <use xlink:href="#mc2f04c5d2b" x="42.620313" y="168.986771" style="stroke: #000000; stroke-width: 0.8"/>
      </g>
     </g>
     <g id="text_10">
      <!-- 2 -->
      <g transform="translate(29.257813 172.78599) scale(0.1 -0.1)">
       <use xlink:href="#DejaVuSans-32"/>
      </g>
     </g>
    </g>
    <g id="ytick_5">
     <g id="line2d_10">
      <g>
       <use xlink:href="#mc2f04c5d2b" x="42.620313" y="61.596998" style="stroke: #000000; stroke-width: 0.8"/>
      </g>
     </g>
     <g id="text_11">
      <!-- 4 -->
      <g transform="translate(29.257813 65.396217) scale(0.1 -0.1)">
       <use xlink:href="#DejaVuSans-34"/>
      </g>
     </g>
    </g>
    <g id="text_12">
     <!-- x1 -->
     <g transform="translate(14.798438 282.51875) rotate(-90) scale(0.1 -0.1)">
      <use xlink:href="#DejaVuSans-78"/>
      <use xlink:href="#DejaVuSans-31" transform="translate(59.179688 0)"/>
     </g>
    </g>
   </g>
   <g id="line2d_11">
    <path d="M 536.879791 265.637567 
L 537.419284 270.846111 
L 537.616293 275.963896 
L 537.476368 281.028503 
L 537.001186 286.075636 
L 536.190063 291.140245 
L 535.040362 296.256838 
L 533.547487 301.459482 
L 531.704889 306.781806 
L 529.50406 312.257 
L 526.934604 317.917567 
L 523.986068 323.786083 
L 520.641173 329.896067 
L 516.879757 336.282302 
L 512.681522 342.971644 
L 508.026033 349.983026 
L 502.892715 357.327453 
L 497.26086 365.008004 
L 491.109618 373.019834 
L 484.418004 381.350171 
L 477.164896 389.978318 
L 469.329114 398.878114 
L 460.891864 408.041867 
L 451.839302 417.355231 
L 447.080414 422.021386 
L 442.16673 426.668842 
L 437.099244 431.278747 
L 431.879588 435.83218 
L 426.510026 440.310145 
L 420.993454 444.693576 
L 415.333404 448.963335 
L 409.53404 453.10021 
L 403.60016 457.084919 
L 397.537196 460.898108 
L 391.351213 464.520349 
L 385.048909 467.932144 
L 378.637616 471.113923 
L 372.125302 474.046043 
L 365.520563 476.708789 
L 358.832634 479.082375 
L 352.071381 481.146943 
L 345.247303 482.882561 
L 338.371535 484.269227 
L 331.455842 485.286867 
L 324.512626 485.915335 
L 317.55492 486.134411 
L 310.596393 485.923805 
L 303.651344 485.263155 
L 296.734772 484.134314 
L 289.863136 482.577257 
L 283.050886 480.622436 
L 276.311121 478.282608 
L 269.65631 475.57164 
L 263.098289 472.504507 
L 256.648262 469.097295 
L 250.316804 465.367199 
L 244.113855 461.332521 
L 238.048726 457.012675 
L 232.130094 452.428183 
L 226.366006 447.600676 
L 220.763876 442.552895 
L 215.330488 437.308689 
L 210.071993 431.893017 
L 204.993911 426.331949 
L 200.10113 420.652661 
L 195.397906 414.883439 
L 190.887865 409.053681 
L 186.573998 403.193891 
L 182.458667 397.33568 
L 178.541046 391.480377 
L 174.818842 385.615228 
L 171.291537 379.749165 
L 167.95854 373.89034 
L 164.819188 368.04612 
L 161.872743 362.223092 
L 159.118392 356.42706 
L 156.555251 350.663045 
L 154.182361 344.935288 
L 151.998688 339.247246 
L 150.003126 333.601595 
L 148.194497 328.000227 
L 146.571545 322.444253 
L 145.132943 316.934004 
L 143.877291 311.469024 
L 142.803115 306.048079 
L 141.908865 300.669152 
L 141.192919 295.329441 
L 140.653583 290.025366 
L 140.289086 284.752563 
L 140.09752 279.511842 
L 140.077864 274.309752 
L 140.230094 269.139634 
L 140.554142 263.995128 
L 141.049876 258.870682 
L 141.717097 253.761545 
L 142.555541 248.663773 
L 143.564881 243.574226 
L 144.744721 238.490568 
L 146.094604 233.411268 
L 147.614005 228.335602 
L 149.302335 223.263646 
L 151.158939 218.196286 
L 153.183096 213.135208 
L 155.374022 208.082906 
L 157.730868 203.042677 
L 160.252716 198.018622 
L 162.938587 193.01565 
L 165.787434 188.03947 
L 168.798146 183.0966 
L 171.969548 178.19436 
L 175.300398 173.340875 
L 178.789388 168.545075 
L 182.435147 163.816697 
L 186.236237 159.166278 
L 190.191157 154.605163 
L 194.298339 150.145501 
L 198.556149 145.800246 
L 202.961645 141.577104 
L 207.507437 137.477591 
L 212.187339 133.524846 
L 216.995001 129.741921 
L 221.923719 126.150385 
L 226.966439 122.770324 
L 232.115755 119.620346 
L 237.363906 116.717572 
L 242.702784 114.077647 
L 248.123926 111.71473 
L 253.618515 109.6415 
L 259.177388 107.869154 
L 264.791023 106.407407 
L 270.449553 105.264493 
L 276.142752 104.447163 
L 281.860048 103.960688 
L 287.590514 103.808856 
L 293.322872 103.993973 
L 299.04549 104.516864 
L 304.746387 105.376873 
L 310.413229 106.571861 
L 316.033329 108.098207 
L 321.593649 109.95081 
L 327.083327 112.118644 
L 332.495473 114.583937 
L 337.820409 117.335219 
L 343.048832 120.360799 
L 348.171902 123.64859 
L 353.181248 127.186106 
L 358.06896 130.960465 
L 362.827597 134.958388 
L 367.450182 139.166195 
L 371.930205 143.569813 
L 376.26162 148.154767 
L 380.438847 152.906189 
L 384.456772 157.80881 
L 388.310746 162.846964 
L 391.996586 168.00459 
L 395.510574 173.265226 
L 398.849458 178.612015 
L 402.010451 184.027702 
L 404.991233 189.494632 
L 407.789947 194.994757 
L 410.405205 200.509627 
L 412.836081 206.020398 
L 415.082117 211.507826 
L 417.144875 216.977373 
L 419.02618 222.448862 
L 420.726012 227.919282 
L 422.244439 233.385662 
L 423.581611 238.845107 
L 424.737768 244.294793 
L 425.713237 249.731973 
L 426.508429 255.153969 
L 427.123844 260.55818 
L 427.560068 265.942077 
L 427.817773 271.303206 
L 427.89772 276.639184 
L 427.800755 281.947704 
L 427.52781 287.226532 
L 427.079905 292.473505 
L 426.458147 297.686537 
L 425.663729 302.863613 
L 424.69793 308.002794 
L 423.562118 313.102213 
L 422.257746 318.160075 
L 420.786354 323.174662 
L 419.149568 328.144326 
L 417.34913 333.068302 
L 415.386911 337.950651 
L 413.26436 342.783715 
L 410.983132 347.557092 
L 408.545214 352.260477 
L 405.952929 356.883654 
L 403.208935 361.4165 
L 400.31622 365.848986 
L 397.278109 370.171173 
L 394.098262 374.373218 
L 390.780669 378.445366 
L 387.329657 382.377957 
L 383.749886 386.161424 
L 380.046351 389.78629 
L 376.224379 393.243173 
L 372.289633 396.522782 
L 368.248108 399.615918 
L 364.106134 402.513476 
L 359.870375 405.206442 
L 355.547829 407.685895 
L 351.145828 409.943006 
L 346.672038 411.969039 
L 342.134457 413.75535 
L 337.541421 415.293388 
L 332.901596 416.574693 
L 328.223984 417.590899 
L 323.51792 418.333732 
L 318.793075 418.79501 
L 314.059451 418.966643 
L 309.326623 418.844227 
L 304.601825 418.43891 
L 299.894845 417.753875 
L 295.215511 416.791739 
L 290.573329 415.556028 
L 285.977486 414.051174 
L 281.436847 412.282515 
L 276.959956 410.256299 
L 272.555037 407.979677 
L 268.229994 405.460709 
L 263.992409 402.708363 
L 259.849543 399.732513 
L 255.808338 396.543938 
L 251.875415 393.154328 
L 248.057072 389.576276 
L 244.359289 385.823284 
L 240.787725 381.909761 
L 237.347716 377.851023 
L 234.04428 373.663293 
L 230.882113 369.363699 
L 227.86559 364.970278 
L 224.998226 360.497944 
L 222.280796 355.942706 
L 219.715562 351.31135 
L 217.304867 346.612542 
L 215.05083 341.854629 
L 212.955341 337.04565 
L 211.020065 332.193324 
L 209.24644 327.305063 
L 207.635679 322.38796 
L 206.188767 317.448797 
L 204.906463 312.494043 
L 203.7893 307.52985 
L 202.837584 302.562061 
L 202.051395 297.596201 
L 201.430587 292.637485 
L 200.974786 287.690811 
L 200.683393 282.760767 
L 200.555582 277.851623 
L 200.590302 272.96734 
L 200.786273 268.111562 
L 201.14199 263.287621 
L 201.655693 258.497838 
L 202.326049 253.744006 
L 203.152342 249.031127 
L 204.133632 244.364528 
L 205.268717 239.749682 
L 206.55614 235.192207 
L 207.994188 230.697864 
L 209.580888 226.272562 
L 211.314011 221.922353 
L 213.19107 217.653434 
L 215.209321 213.472146 
L 217.365762 209.384977 
L 219.657135 205.398558 
L 222.079923 201.519666 
L 224.630353 197.755222 
L 227.304392 194.112294 
L 230.097753 190.598092 
L 233.00589 187.219972 
L 236.023999 183.985436 
L 239.147019 180.902129 
L 242.369632 177.977843 
L 245.686263 175.220513 
L 249.091078 172.638219 
L 252.577987 170.239187 
L 256.140642 168.031788 
L 259.772438 166.024537 
L 263.466587 164.225862 
L 267.217703 162.638233 
L 271.018659 161.266316 
L 274.861435 160.116354 
L 278.738073 159.193591 
L 282.640678 158.502265 
L 286.561416 158.045616 
L 290.492515 157.825878 
L 294.426267 157.844284 
L 298.355023 158.101066 
L 302.271199 158.595453 
L 306.16727 159.325672 
L 310.035776 160.288947 
L 313.869318 161.4815 
L 317.660557 162.898552 
L 321.40222 164.534321 
L 325.087091 166.382023 
L 328.708022 168.433871 
L 332.257922 170.681077 
L 335.729764 173.11385 
L 339.116583 175.721398 
L 342.412689 178.495038 
L 345.614399 181.430334 
L 348.716444 184.518143 
L 351.713796 187.749257 
L 354.601734 191.114567 
L 357.375842 194.605063 
L 360.03201 198.211835 
L 362.566433 201.92607 
L 364.975612 205.739054 
L 367.256355 209.642173 
L 369.405773 213.62691 
L 371.421284 217.684849 
L 373.300614 221.80767 
L 375.041791 225.987154 
L 376.64315 230.21518 
L 378.103332 234.483725 
L 379.421285 238.784867 
L 380.596259 243.11078 
L 381.627814 247.453739 
L 382.516024 251.806929 
L 383.261585 256.167746 
L 383.86389 260.531653 
L 384.322387 264.893637 
L 384.636753 269.248641 
L 384.806892 273.59156 
L 384.832935 277.917241 
L 384.715242 282.220482 
L 384.454398 286.496036 
L 384.051218 290.738607 
L 383.506742 294.942851 
L 382.822241 299.103378 
L 381.999209 303.214749 
L 381.039371 307.271479 
L 379.944679 311.268033 
L 378.71731 315.19883 
L 377.359672 319.058243 
L 375.874398 322.840594 
L 374.264348 326.540161 
L 372.532613 330.151171 
L 370.682507 333.667805 
L 368.717576 337.084198 
L 366.641589 340.394436 
L 364.458546 343.592556 
L 362.172672 346.672551 
L 359.788421 349.628362 
L 357.308963 352.45656 
L 354.737317 355.152465 
L 352.078574 357.707307 
L 349.337936 360.112931 
L 346.520709 362.361811 
L 343.632301 364.447052 
L 340.678223 366.362389 
L 337.664093 368.102189 
L 334.595628 369.661445 
L 331.478652 371.035784 
L 328.319091 372.221461 
L 325.122974 373.215362 
L 321.896435 374.015003 
L 318.64571 374.61853 
L 315.377139 375.024719 
L 312.097165 375.232977 
L 308.812337 375.243339 
L 305.529304 375.056472 
L 302.254821 374.673674 
L 298.995744 374.09687 
L 295.759036 373.328618 
L 292.551761 372.372104 
L 289.381086 371.231146 
L 286.253119 369.909948 
L 283.171034 368.41258 
L 280.140822 366.743972 
L 277.168477 364.909339 
L 274.259732 362.914124 
L 271.420058 360.764002 
L 268.654663 358.464877 
L 265.968494 356.022885 
L 263.366239 353.44439 
L 260.852319 350.735987 
L 258.430898 347.904502 
L 256.105874 344.95699 
L 253.880888 341.900737 
L 251.759315 338.743259 
L 249.74427 335.492302 
L 247.838607 332.155843 
L 246.044917 328.742087 
L 244.36553 325.259473 
L 242.802513 321.716665 
L 241.357672 318.122563 
L 240.032553 314.486293 
L 238.828437 310.817212 
L 237.746183 307.123262 
L 236.785861 303.40313 
L 235.948463 299.661187 
L 235.234937 295.903146 
L 234.646019 292.134686 
L 234.182221 288.361449 
L 233.843842 284.589046 
L 233.63096 280.823052 
L 233.543438 277.069008 
L 233.580919 273.332421 
L 233.742829 269.618762 
L 234.028378 265.93347 
L 234.436555 262.281947 
L 234.966133 258.669563 
L 235.615668 255.101653 
L 236.383497 251.583516 
L 237.267739 248.120418 
L 238.266297 244.717591 
L 239.376855 241.380232 
L 240.596878 238.113503 
L 241.923617 234.922534 
L 243.354101 231.812417 
L 244.885144 228.788213 
L 246.514012 225.85393 
L 248.238778 223.013348 
L 250.056064 220.273191 
L 251.962298 217.639943 
L 253.95377 215.119746 
L 256.026633 212.7184 
L 258.176904 210.441361 
L 260.400463 208.293742 
L 262.69305 206.280312 
L 265.050271 204.405498 
L 267.467592 202.673384 
L 269.940345 201.08771 
L 272.463721 199.651874 
L 275.032777 198.36893 
L 277.64243 197.241588 
L 280.287463 196.272218 
L 282.962519 195.462843 
L 285.662104 194.815145 
L 288.380588 194.330464 
L 291.112204 194.009794 
L 293.851046 193.853789 
L 296.591299 193.862614 
L 299.329343 194.034569 
L 302.059823 194.368574 
L 304.776845 194.863586 
L 307.474688 195.518164 
L 310.147799 196.330479 
L 312.790797 197.298304 
L 315.39847 198.419021 
L 317.965776 199.689619 
L 320.487842 201.106693 
L 322.959968 202.666445 
L 325.377621 204.364683 
L 327.73644 206.196823 
L 330.032231 208.157887 
L 332.260975 210.242503 
L 334.418818 212.444907 
L 336.50208 214.75894 
L 338.507247 217.178053 
L 340.430979 219.6953 
L 342.270104 222.303343 
L 344.02162 224.994452 
L 345.682695 227.760502 
L 347.250667 230.592976 
L 348.723059 233.483075 
L 350.098452 236.429344 
L 352.551992 242.477696 
L 354.598316 248.694256 
L 356.227204 255.032641 
L 357.431682 261.447696 
L 358.208031 267.895488 
L 358.555779 274.333306 
L 358.477708 280.719667 
L 358.280747 283.880922 
L 358.280747 283.880922 
" clip-path="url(#p77fcdb5303)" style="fill: none; stroke: #000000; stroke-opacity: 0.3; stroke-width: 7; stroke-linecap: square"/>
   </g>
   <g id="line2d_12">
    <path d="M 536.879791 265.637567 
L 537.419081 270.861855 
L 537.614753 275.994739 
L 537.471099 281.073233 
L 536.990923 286.133906 
L 536.174092 291.212424 
L 535.018094 296.343833 
L 533.518721 301.562661 
L 531.66852 306.902423 
L 529.458749 312.39619 
L 526.87799 318.07578 
L 523.91278 323.971726 
L 520.548129 330.113458 
L 516.766454 336.52703 
L 512.54919 343.236861 
L 507.875911 350.262422 
L 502.725206 357.617908 
L 497.074841 365.313029 
L 490.902457 373.344922 
L 484.18584 381.704925 
L 476.904091 390.368134 
L 469.038702 399.294408 
L 460.57296 408.430581 
L 451.497036 417.693935 
L 446.728076 422.344154 
L 441.804278 426.989072 
L 436.726924 431.610556 
L 431.497295 436.190475 
L 426.116926 440.710393 
L 420.587733 445.150489 
L 414.91207 449.489476 
L 409.094744 453.703283 
L 403.140566 457.767842 
L 397.054618 461.659226 
L 390.842556 465.352295 
L 384.510843 468.820949 
L 378.06839 472.040771 
L 371.524111 474.987341 
L 364.887109 477.637041 
L 358.167194 479.965989 
L 351.375163 481.951126 
L 344.523373 483.576526 
L 337.624186 484.826264 
L 330.689974 485.685641 
L 323.733761 486.141288 
L 316.769285 486.182984 
L 309.810302 485.810371 
L 302.870567 485.023088 
L 295.963654 483.821845 
L 289.103475 482.209953 
L 282.303972 480.19484 
L 275.577624 477.791612 
L 268.936913 475.015373 
L 262.394015 471.881661 
L 255.961012 468.408561 
L 249.649278 464.616949 
L 243.468001 460.530196 
L 237.426367 456.171674 
L 231.533249 451.564517 
L 225.797088 446.733199 
L 220.225231 441.702509 
L 214.822959 436.495262 
L 209.595552 431.134272 
L 204.548043 425.641751 
L 199.684925 420.039913 
L 195.009644 414.349398 
L 190.524177 408.586958 
L 186.2305 402.769344 
L 182.130443 396.912661 
L 178.225366 391.032269 
L 174.515889 385.141314 
L 171.001832 379.249218 
L 167.683016 373.365405 
L 164.5592 367.498791 
L 161.629831 361.657401 
L 158.893962 355.847314 
L 156.350374 350.071946 
L 153.997846 344.334713 
L 151.83516 338.638713 
L 149.860928 332.986313 
L 148.073659 327.378564 
L 146.471906 321.814993 
L 145.054226 316.295127 
L 143.81921 310.818353 
L 142.765391 305.383552 
L 141.891377 299.988935 
L 141.195973 294.632131 
L 140.677985 289.310765 
L 140.33626 284.022482 
L 140.169665 278.764594 
L 140.17722 273.534319 
L 140.358155 268.329035 
L 140.711699 263.146121 
L 141.237108 257.983122 
L 141.933709 252.837359 
L 142.800966 247.706587 
L 143.838456 242.589379 
L 145.045754 237.484306 
L 146.422418 232.390262 
L 147.96812 227.305977 
L 149.682561 222.231169 
L 151.565353 217.166994 
L 153.616104 212.11461 
L 155.834336 207.075646 
L 158.219723 202.051646 
L 160.771756 197.045706 
L 163.48954 192.062898 
L 166.372183 187.108294 
L 169.418612 182.18753 
L 172.627923 177.306337 
L 175.99872 172.472414 
L 179.528879 167.695653 
L 183.216275 162.985943 
L 187.05851 158.353662 
L 191.053326 153.809642 
L 195.197615 149.366576 
L 199.487231 145.038859 
L 203.918028 140.840887 
L 208.485535 136.787183 
L 213.185304 132.893213 
L 218.011753 129.175222 
L 222.958145 125.649676 
L 228.017741 122.333044 
L 233.183511 119.241302 
L 238.448238 116.391684 
L 243.803561 113.800059 
L 249.240167 111.480337 
L 254.748743 109.446429 
L 260.319828 107.711142 
L 265.943541 106.288236 
L 271.609259 105.187737 
L 277.305952 104.415882 
L 283.022589 103.978907 
L 288.748198 103.881712 
L 294.471286 104.129187 
L 300.180349 104.721358 
L 305.864173 105.65415 
L 311.511541 106.923488 
L 317.111495 108.524281 
L 322.652642 110.450403 
L 328.124369 112.691824 
L 333.516896 115.235804 
L 338.82044 118.069603 
L 344.025584 121.180124 
L 349.122718 124.552844 
L 354.103507 128.171734 
L 358.960662 132.020137 
L 363.686894 136.081392 
L 368.275281 140.339102 
L 372.718949 144.775776 
L 377.012378 149.374759 
L 381.151 154.120362 
L 385.130245 158.996895 
L 388.945836 163.989262 
L 392.593692 169.081899 
L 396.070842 174.261359 
L 399.375011 179.515807 
L 402.503923 184.833403 
L 405.455496 190.202937 
L 408.227872 195.613241 
L 410.819944 201.055418 
L 413.231025 206.522062 
L 415.460428 212.005766 
L 417.507574 217.499601 
L 419.372063 222.996948 
L 421.05392 228.492907 
L 422.553379 233.983583 
L 423.870679 239.465082 
L 425.006112 244.933757 
L 425.96007 250.386369 
L 426.733158 255.820558 
L 427.326081 261.234402 
L 427.739546 266.625976 
L 427.974302 271.993361 
L 428.031107 277.335064 
L 427.910863 282.649591 
L 427.614557 287.935354 
L 427.143172 293.190766 
L 426.497765 298.414018 
L 425.679307 303.60371 
L 424.688989 308.757631 
L 423.528146 313.873038 
L 422.198111 318.947187 
L 420.700345 323.976938 
L 419.036146 328.959482 
L 417.207227 333.890565 
L 415.215563 338.765105 
L 413.063129 343.578019 
L 410.752101 348.323751 
L 408.284443 352.99688 
L 405.662809 357.590273 
L 402.890258 362.095913 
L 399.969846 366.50578 
L 396.904906 370.811483 
L 393.69856 375.004394 
L 390.3549 379.074568 
L 386.878529 383.011465 
L 383.274049 386.804548 
L 379.546373 390.443238 
L 375.700295 393.91624 
L 371.741719 397.212185 
L 367.677077 400.319799 
L 363.512805 403.227804 
L 359.255603 405.925405 
L 354.912239 408.400721 
L 350.490452 410.643707 
L 345.998397 412.645299 
L 341.444225 414.396429 
L 336.836228 415.889009 
L 332.182979 417.113935 
L 327.493562 418.065704 
L 322.777225 418.740481 
L 318.043216 419.134433 
L 313.30074 419.244911 
L 308.559422 419.068827 
L 303.828725 418.607327 
L 299.117978 417.863328 
L 294.436509 416.83975 
L 289.793422 415.540489 
L 285.198243 413.969767 
L 280.659686 412.135121 
L 276.186087 410.045345 
L 271.785782 407.709229 
L 267.466768 405.136043 
L 263.237336 402.335869 
L 259.104563 399.320212 
L 255.075035 396.101018 
L 251.155336 392.690233 
L 247.351682 389.099752 
L 243.670415 385.342312 
L 240.11658 381.43022 
L 236.694748 377.375544 
L 233.409488 373.190353 
L 230.265039 368.886317 
L 227.265633 364.475665 
L 224.414373 359.969107 
L 221.713977 355.376778 
L 219.167164 350.708812 
L 216.776393 345.974848 
L 214.544052 341.184723 
L 212.471675 336.346554 
L 210.560514 331.46787 
L 208.811824 326.556199 
L 207.226669 321.618665 
L 205.806049 316.662312 
L 204.550348 311.692885 
L 203.459758 306.715723 
L 202.534475 301.736166 
L 201.774544 296.759346 
L 201.179996 291.790138 
L 200.750391 286.83285 
L 200.485143 281.891629 
L 200.383668 276.970624 
L 200.445241 272.074001 
L 200.669194 267.205592 
L 201.054404 262.369427 
L 201.599609 257.569614 
L 202.303546 252.810261 
L 203.164791 248.095684 
L 204.182045 243.429882 
L 205.353459 238.817664 
L 206.677018 234.264084 
L 208.150704 229.774196 
L 209.772293 225.353359 
L 211.539739 221.006756 
L 213.450276 216.74064 
L 215.500927 212.56156 
L 217.688717 208.476066 
L 220.010412 204.490963 
L 222.462966 200.613155 
L 225.042444 196.850341 
L 227.74467 193.210411 
L 230.565467 189.70126 
L 233.500375 186.330803 
L 236.545065 183.107427 
L 239.694254 180.039397 
L 242.942418 177.134928 
L 246.284035 174.402232 
L 249.713323 171.849165 
L 253.224509 169.484366 
L 256.810999 167.314995 
L 260.466008 165.347828 
L 264.18275 163.58964 
L 267.954282 162.046445 
L 271.7735 160.725113 
L 275.632847 159.629737 
L 279.524675 158.763751 
L 283.441336 158.130591 
L 287.375173 157.732691 
L 291.318229 157.573073 
L 295.262624 157.651394 
L 299.20051 157.966568 
L 303.124039 158.517509 
L 307.025514 159.302185 
L 310.896886 160.318664 
L 314.730717 161.562102 
L 318.519708 163.02705 
L 322.256562 164.708063 
L 325.93426 166.599066 
L 329.545473 168.693647 
L 333.083862 170.983717 
L 336.543296 173.46087 
L 339.917643 176.1167 
L 343.201118 178.942597 
L 346.38772 181.929416 
L 349.472595 185.067736 
L 352.45111 188.348103 
L 355.318631 191.761059 
L 358.070875 195.297295 
L 360.703445 198.947023 
L 363.213043 202.701183 
L 365.59657 206.550859 
L 367.850926 210.487132 
L 369.973326 214.501413 
L 371.960937 218.584825 
L 373.811868 222.729607 
L 375.52439 226.928195 
L 377.096773 231.173023 
L 378.527552 235.456858 
L 379.815236 239.772392 
L 380.959109 244.11329 
L 381.958577 248.473372 
L 382.813049 252.846461 
L 383.52216 257.226592 
L 384.085499 261.607892 
L 384.50332 265.985006 
L 384.775976 270.352655 
L 384.90382 274.705562 
L 384.88742 279.038498 
L 384.727255 283.346415 
L 384.424439 287.624252 
L 383.980179 291.86695 
L 383.395683 296.069446 
L 382.672378 300.226588 
L 381.811565 304.333392 
L 380.815221 308.384478 
L 379.685422 312.37441 
L 378.424242 316.297753 
L 377.034001 320.148921 
L 375.516864 323.92238 
L 373.875757 327.612126 
L 372.113709 331.212092 
L 370.233748 334.716215 
L 368.239169 338.118346 
L 366.133123 341.412176 
L 363.919577 344.591276 
L 361.602601 347.649205 
L 359.186264 350.57952 
L 356.674901 353.375906 
L 354.072759 356.03163 
L 351.38486 358.540601 
L 348.616316 360.896804 
L 345.772238 363.094223 
L 342.857955 365.127273 
L 339.878813 366.98976 
L 336.840739 368.677088 
L 333.749719 370.184836 
L 330.611742 371.508584 
L 327.432918 372.644631 
L 324.21949 373.588649 
L 320.977944 374.338682 
L 317.714783 374.893015 
L 314.436513 375.24993 
L 311.149628 375.408586 
L 307.860854 375.367696 
L 304.576731 375.12857 
L 301.30378 374.692759 
L 298.04852 374.061816 
L 294.817321 373.238107 
L 291.616828 372.223855 
L 288.4531 371.023441 
L 285.332145 369.641428 
L 282.259969 368.082382 
L 279.242312 366.35143 
L 276.285181 364.453844 
L 273.393712 362.396151 
L 270.572973 360.18498 
L 267.828031 357.826959 
L 265.163624 355.328954 
L 262.584697 352.698124 
L 260.095211 349.941931 
L 257.699052 347.067861 
L 255.400107 344.083397 
L 253.201913 340.995983 
L 251.10816 337.81336 
L 249.121565 334.542889 
L 247.244776 331.19191 
L 245.480446 327.76776 
L 243.830892 324.277576 
L 242.298541 320.728706 
L 240.884935 317.127838 
L 239.591563 313.481624 
L 238.41991 309.796714 
L 237.371163 306.079535 
L 236.446599 302.336598 
L 235.64671 298.573832 
L 234.971942 294.797132 
L 234.422743 291.012395 
L 233.999282 287.22536 
L 233.701831 283.441753 
L 233.529937 279.66698 
L 233.483113 275.906432 
L 233.560872 272.165498 
L 233.762461 268.449512 
L 234.087248 264.763752 
L 234.533895 261.113455 
L 235.101037 257.503851 
L 235.787306 253.940175 
L 236.59107 250.427674 
L 237.51083 246.971574 
L 238.544373 243.577188 
L 239.689456 240.249833 
L 240.943839 236.994824 
L 242.305009 233.817489 
L 243.770585 230.723239 
L 245.337461 227.717448 
L 247.002507 224.805488 
L 248.762595 221.992731 
L 250.614327 219.284453 
L 252.554409 216.686171 
L 254.57886 214.202953 
L 256.683682 211.839859 
L 258.864874 209.601947 
L 261.118202 207.493977 
L 263.439472 205.521105 
L 265.82393 203.687437 
L 268.266815 201.997056 
L 270.763362 200.454047 
L 273.308639 199.061955 
L 275.897672 197.824812 
L 278.525163 196.745003 
L 281.185806 195.824884 
L 283.874299 195.066813 
L 286.585272 194.472426 
L 289.313231 194.043811 
L 292.052666 193.78107 
L 294.798066 193.684282 
L 297.543924 193.753526 
L 300.28479 193.988105 
L 303.015024 194.387633 
L 305.729299 194.949809 
L 308.422294 195.67232 
L 311.088686 196.552853 
L 313.723333 197.588423 
L 316.320871 198.776165 
L 318.876535 200.111755 
L 321.385555 201.59087 
L 323.84317 203.20918 
L 326.244876 204.961926 
L 328.585975 206.84427 
L 330.862532 208.850591 
L 333.070611 210.975269 
L 335.206286 213.21268 
L 337.265928 215.557016 
L 339.245764 218.002307 
L 341.14284 220.542408 
L 342.954205 223.171171 
L 344.676917 225.882454 
L 346.308337 228.670114 
L 347.845733 231.52786 
L 349.28717 234.449609 
L 350.630714 237.429279 
L 351.874446 240.460795 
L 354.055872 246.655364 
L 355.820926 252.986258 
L 357.162306 259.407859 
L 358.074865 265.87546 
L 358.557645 272.346173 
L 358.611402 278.777795 
L 358.240301 285.12928 
L 358.240301 285.12928 
" clip-path="url(#p77fcdb5303)" style="fill: none; stroke-dasharray: 22.4,5.6,3.5,5.6; stroke-dashoffset: 0; stroke: #0000ff; stroke-opacity: 0.8; stroke-width: 3.5"/>
   </g>
   <g id="patch_3">
    <path d="M 42.620313 530.438125 
L 42.620313 22.318125 
" style="fill: none; stroke: #000000; stroke-width: 0.8; stroke-linejoin: miter; stroke-linecap: square"/>
   </g>
   <g id="patch_4">
    <path d="M 561.210312 530.438125 
L 561.210312 22.318125 
" style="fill: none; stroke: #000000; stroke-width: 0.8; stroke-linejoin: miter; stroke-linecap: square"/>
   </g>
   <g id="patch_5">
    <path d="M 42.620313 530.438125 
L 561.210312 530.438125 
" style="fill: none; stroke: #000000; stroke-width: 0.8; stroke-linejoin: miter; stroke-linecap: square"/>
   </g>
   <g id="patch_6">
    <path d="M 42.620313 22.318125 
L 561.210312 22.318125 
" style="fill: none; stroke: #000000; stroke-width: 0.8; stroke-linejoin: miter; stroke-linecap: square"/>
   </g>
   <g id="line2d_13">
    <path d="M 536.879791 265.637567 
L 537.425052 270.679314 
L 537.637315 275.681424 
L 537.517541 280.67869 
L 537.065276 285.705909 
L 536.277262 290.797863 
L 535.147868 295.98943 
L 533.66979 301.315485 
L 531.832379 306.810867 
L 529.623631 312.510358 
L 527.028715 318.448279 
L 524.030535 324.658257 
L 520.610329 331.173246 
L 516.746353 338.023468 
L 512.415709 345.2377 
L 507.593268 352.840044 
L 502.2526 360.849181 
L 496.366215 369.279208 
L 489.906141 378.13041 
L 482.844438 387.396549 
L 475.154329 397.052908 
L 466.811579 407.056728 
L 457.793804 417.35 
L 448.086373 427.83893 
L 442.970506 433.12337 
L 437.678301 438.414179 
L 432.210853 443.690046 
L 426.569254 448.929659 
L 420.754881 454.111364 
L 414.769603 459.211748 
L 408.615722 464.205639 
L 402.298508 469.064536 
L 395.823233 473.759935 
L 389.195467 478.263576 
L 382.421511 482.545744 
L 375.508567 486.575485 
L 368.466722 490.324621 
L 361.306064 493.764973 
L 354.036865 496.869408 
L 346.670269 499.610768 
L 339.218547 501.962875 
L 331.695603 503.909439 
L 324.115342 505.434172 
L 316.491634 506.52227 
L 308.839077 507.161067 
L 301.17305 507.341761 
L 293.508533 507.068175 
L 285.860505 506.344127 
L 278.243688 505.174588 
L 270.673081 503.568054 
L 263.163591 501.537817 
L 255.72798 499.105783 
L 248.379009 496.293861 
L 241.129069 493.124258 
L 233.990268 489.622148 
L 226.973781 485.815513 
L 220.087968 481.733877 
L 213.341191 477.406766 
L 206.741455 472.863258 
L 200.296133 468.133569 
L 194.011297 463.247691 
L 187.890576 458.232073 
L 181.937597 453.113162 
L 176.155728 447.91665 
L 170.547659 442.667772 
L 165.114918 437.389602 
L 159.857422 432.100169 
L 149.867687 421.558912 
L 140.573885 411.176234 
L 131.961318 401.04691 
L 124.010747 391.243023 
L 116.699008 381.817259 
L 109.999677 372.795971 
L 103.885417 364.196491 
L 98.328123 356.018727 
L 93.300112 348.2539 
L 88.774202 340.886291 
L 84.725165 333.892294 
L 81.128629 327.245852 
L 77.962779 320.916769 
L 75.207616 314.873089 
L 72.844935 309.081631 
L 70.859659 303.508103 
L 69.237937 298.117956 
L 67.969087 292.876365 
L 67.044404 287.748421 
L 66.45715 282.699275 
L 66.20379 277.694095 
L 66.282022 272.698086 
L 66.692746 267.676482 
L 67.438803 262.594452 
L 68.525024 257.417179 
L 69.959426 252.109773 
L 71.751264 246.637327 
L 73.913018 240.965151 
L 76.459061 235.058812 
L 79.405771 228.88434 
L 82.772514 222.409359 
L 86.579835 215.602179 
L 90.851047 208.434805 
L 95.610844 200.8823 
L 100.885431 192.923713 
L 106.702286 184.547865 
L 113.089433 175.747692 
L 120.074702 166.532659 
L 127.684903 156.924073 
L 135.945672 146.958038 
L 144.877553 136.699832 
L 154.499089 126.227123 
L 159.571683 120.945502 
L 164.819476 115.656039 
L 170.242393 110.376632 
L 175.840832 105.125598 
L 181.613325 99.925473 
L 187.556844 94.801711 
L 193.66836 89.779768 
L 199.944161 84.885428 
L 206.380782 80.146496 
L 212.972314 75.592258 
L 219.711076 71.252359 
L 226.589387 67.15644 
L 233.598978 63.332891 
L 240.73128 59.813448 
L 247.975426 56.625594 
L 255.319178 53.793017 
L 262.750296 51.339407 
L 270.256315 49.285702 
L 277.823843 47.655488 
L 285.438376 46.462405 
L 293.085056 45.713167 
L 300.749023 45.414489 
L 308.415682 45.570122 
L 316.069262 46.183597 
L 323.694719 47.247549 
L 331.277801 48.748186 
L 338.804263 50.671718 
L 346.260489 53.002666 
L 353.632033 55.722755 
L 360.906679 58.807605 
L 368.073703 62.229989 
L 375.122383 65.962675 
L 382.042739 69.978483 
L 388.82458 74.247161 
L 395.460442 78.738838 
L 401.944392 83.424474 
L 408.270495 88.275023 
L 414.433445 93.262618 
L 420.428191 98.357689 
L 426.251996 103.535077 
L 431.903258 108.772247 
L 437.380378 114.046663 
L 442.682166 119.337237 
L 452.758194 129.886437 
L 462.138335 140.295705 
L 470.834889 150.461931 
L 478.866463 160.30755 
L 486.256583 169.784434 
L 493.030636 178.855851 
L 499.216259 187.508564 
L 504.841348 195.738885 
L 509.933916 203.553774 
L 514.520742 210.970296 
L 518.628023 218.00913 
L 522.279591 224.697365 
L 525.497871 231.064346 
L 528.303368 237.141689 
L 530.713757 242.96279 
L 532.74551 248.561572 
L 534.411755 253.972665 
L 535.723956 259.230882 
L 536.69131 264.371084 
L 537.320034 269.428158 
L 537.615085 274.436935 
L 537.578015 279.432195 
L 537.208735 284.448745 
L 536.504869 289.521352 
L 535.461085 294.684882 
L 534.070783 299.974215 
L 532.323945 305.424201 
L 530.208929 311.069636 
L 527.71178 316.945039 
L 524.815688 323.084136 
L 521.502568 329.520275 
L 517.751211 336.284288 
L 513.539049 343.405282 
L 508.841565 350.909142 
L 503.632484 358.81527 
L 497.884643 367.140085 
L 491.570043 375.886766 
L 484.660835 385.050643 
L 477.129556 394.613554 
L 468.951631 404.535078 
L 460.10357 414.76416 
L 450.569022 425.213967 
L 445.540749 430.488942 
L 440.33624 435.779257 
L 434.95595 441.065226 
L 429.400967 446.32555 
L 423.672378 451.538932 
L 417.772214 456.682655 
L 411.701652 461.73316 
L 405.465142 466.662857 
L 399.067948 471.443251 
L 392.515333 476.045847 
L 385.813581 480.442466 
L 378.968604 484.601456 
L 371.989711 488.493885 
L 364.886982 492.091572 
L 357.670496 495.366339 
L 350.351058 498.29284 
L 342.939999 500.840845 
L 335.450798 502.991455 
L 327.897355 504.72836 
L 320.293569 506.035252 
L 312.653429 506.900317 
L 304.992242 507.308683 
L 297.325103 507.260908 
L 289.66699 506.760782 
L 282.032886 505.812097 
L 274.437162 504.422545 
L 266.895642 502.600593 
L 259.421636 500.365964 
L 252.027913 497.740541 
L 244.72724 494.746206 
L 237.531353 491.406392 
L 230.452905 487.747746 
L 223.500957 483.799398 
L 216.683878 479.590867 
L 210.010038 475.15167 
L 203.486741 470.510518 
L 197.121522 465.69914 
L 190.918602 460.744835 
L 184.881615 455.674059 
L 179.014196 450.51327 
L 173.319159 445.286932 
L 167.799104 440.021112 
L 162.45433 434.735029 
L 157.284758 429.446727 
L 147.470412 418.933596 
L 138.349331 408.607433 
L 129.904789 398.553486 
L 122.116923 388.840805 
L 114.961378 379.514366 
L 108.41152 370.597778 
L 102.439651 362.104844 
L 97.01777 354.031696 
L 92.118258 346.368429 
L 87.714365 339.096867 
L 83.781148 332.192661 
L 80.294613 325.628832 
L 77.233664 319.374391 
L 74.578584 313.39717 
L 72.311999 307.663617 
L 70.419211 302.13935 
L 68.886909 296.789744 
L 67.705208 291.579933 
L 66.865713 286.475011 
L 66.362559 281.440147 
L 66.192585 276.440505 
L 66.354047 271.441316 
L 66.848624 266.407789 
L 67.679479 261.305096 
L 68.85231 256.098408 
L 70.375505 250.752825 
L 72.258893 245.233459 
L 74.515716 239.505693 
L 77.160673 233.535153 
L 80.210979 227.288223 
L 83.68633 220.732769 
L 87.607819 213.837562 
L 91.999341 206.575691 
L 96.885844 198.922816 
L 102.293994 190.860332 
L 108.251349 182.378377 
L 114.786114 173.472308 
L 121.925825 164.15599 
L 129.697119 154.453067 
L 138.124561 144.4071 
L 147.227949 134.086959 
L 157.024585 123.576949 
L 162.185093 118.289304 
L 167.521047 113.002218 
L 173.031869 107.735018 
L 178.718092 102.50636 
L 184.576842 97.341407 
L 190.605097 92.265603 
L 196.799833 87.304388 
L 203.156638 82.484522 
L 209.672012 77.834632 
L 216.338431 73.384323 
L 223.148223 69.16324 
L 230.093715 65.201024 
L 237.165889 61.525654 
L 244.355886 58.169772 
L 251.651575 55.157356 
L 259.040723 52.512113 
L 266.511098 50.257752 
L 274.04971 48.412935 
L 281.642697 47.001411 
L 289.275227 46.030356 
L 296.932441 45.506517 
L 304.599484 45.436641 
L 312.261702 45.821119 
L 319.902936 46.662548 
L 327.508894 47.947498 
L 335.065323 49.662207 
L 342.557972 51.792911 
L 349.97368 54.321408 
L 357.297899 57.22808 
L 364.519842 60.485826 
L 371.628779 64.06743 
L 378.613979 67.945673 
L 385.466218 72.092477 
L 392.175488 76.476767 
L 398.735808 81.069477 
L 405.141236 85.84156 
L 411.38583 90.763966 
L 417.465047 95.809586 
L 423.374146 100.948805 
L 429.111506 106.159038 
L 434.67552 111.417737 
L 440.064583 116.702351 
L 445.278083 121.993277 
L 455.178336 132.517523 
L 464.385493 142.874685 
L 472.913039 152.966259 
L 480.781304 162.723527 
L 488.014215 172.101261 
L 494.637894 181.068108 
L 500.680141 189.614802 
L 506.168921 197.739624 
L 511.132003 205.452805 
L 515.595998 212.772313 
L 519.5867 219.720415 
L 523.127415 226.325169 
L 526.240261 232.616352 
L 528.944857 238.62625 
L 528.944857 238.62625 
" clip-path="url(#p77fcdb5303)" style="fill: none; stroke-dasharray: 3.5,5.775; stroke-dashoffset: 0; stroke: #008000; stroke-opacity: 0.8; stroke-width: 3.5"/>
   </g>
   <g id="text_13">
    <!-- Phase Portrait (x0 vs x1) -->
    <g transform="translate(228.224062 16.318125) scale(0.12 -0.12)">
     <defs>
      <path id="DejaVuSans-50" d="M 1259 4147 
L 1259 2394 
L 2053 2394 
Q 2494 2394 2734 2622 
Q 2975 2850 2975 3272 
Q 2975 3691 2734 3919 
Q 2494 4147 2053 4147 
L 1259 4147 
z
M 628 4666 
L 2053 4666 
Q 2838 4666 3239 4311 
Q 3641 3956 3641 3272 
Q 3641 2581 3239 2228 
Q 2838 1875 2053 1875 
L 1259 1875 
L 1259 0 
L 628 0 
L 628 4666 
z
" transform="scale(0.015625)"/>
      <path id="DejaVuSans-68" d="M 3513 2113 
L 3513 0 
L 2938 0 
L 2938 2094 
Q 2938 2591 2744 2837 
Q 2550 3084 2163 3084 
Q 1697 3084 1428 2787 
Q 1159 2491 1159 1978 
L 1159 0 
L 581 0 
L 581 4863 
L 1159 4863 
L 1159 2956 
Q 1366 3272 1645 3428 
Q 1925 3584 2291 3584 
Q 2894 3584 3203 3211 
Q 3513 2838 3513 2113 
z
" transform="scale(0.015625)"/>
      <path id="DejaVuSans-61" d="M 2194 1759 
Q 1497 1759 1228 1600 
Q 959 1441 959 1056 
Q 959 750 1161 570 
Q 1363 391 1709 391 
Q 2188 391 2477 730 
Q 2766 1069 2766 1631 
L 2766 1759 
L 2194 1759 
z
M 3341 1997 
L 3341 0 
L 2766 0 
L 2766 531 
Q 2569 213 2275 61 
Q 1981 -91 1556 -91 
Q 1019 -91 701 211 
Q 384 513 384 1019 
Q 384 1609 779 1909 
Q 1175 2209 1959 2209 
L 2766 2209 
L 2766 2266 
Q 2766 2663 2505 2880 
Q 2244 3097 1772 3097 
Q 1472 3097 1187 3025 
Q 903 2953 641 2809 
L 641 3341 
Q 956 3463 1253 3523 
Q 1550 3584 1831 3584 
Q 2591 3584 2966 3190 
Q 3341 2797 3341 1997 
z
" transform="scale(0.015625)"/>
      <path id="DejaVuSans-73" d="M 2834 3397 
L 2834 2853 
Q 2591 2978 2328 3040 
Q 2066 3103 1784 3103 
Q 1356 3103 1142 2972 
Q 928 2841 928 2578 
Q 928 2378 1081 2264 
Q 1234 2150 1697 2047 
L 1894 2003 
Q 2506 1872 2764 1633 
Q 3022 1394 3022 966 
Q 3022 478 2636 193 
Q 2250 -91 1575 -91 
Q 1294 -91 989 -36 
Q 684 19 347 128 
L 347 722 
Q 666 556 975 473 
Q 1284 391 1588 391 
Q 1994 391 2212 530 
Q 2431 669 2431 922 
Q 2431 1156 2273 1281 
Q 2116 1406 1581 1522 
L 1381 1569 
Q 847 1681 609 1914 
Q 372 2147 372 2553 
Q 372 3047 722 3315 
Q 1072 3584 1716 3584 
Q 2034 3584 2315 3537 
Q 2597 3491 2834 3397 
z
" transform="scale(0.015625)"/>
      <path id="DejaVuSans-65" d="M 3597 1894 
L 3597 1613 
L 953 1613 
Q 991 1019 1311 708 
Q 1631 397 2203 397 
Q 2534 397 2845 478 
Q 3156 559 3463 722 
L 3463 178 
Q 3153 47 2828 -22 
Q 2503 -91 2169 -91 
Q 1331 -91 842 396 
Q 353 884 353 1716 
Q 353 2575 817 3079 
Q 1281 3584 2069 3584 
Q 2775 3584 3186 3129 
Q 3597 2675 3597 1894 
z
M 3022 2063 
Q 3016 2534 2758 2815 
Q 2500 3097 2075 3097 
Q 1594 3097 1305 2825 
Q 1016 2553 972 2059 
L 3022 2063 
z
" transform="scale(0.015625)"/>
      <path id="DejaVuSans-20" transform="scale(0.015625)"/>
      <path id="DejaVuSans-6f" d="M 1959 3097 
Q 1497 3097 1228 2736 
Q 959 2375 959 1747 
Q 959 1119 1226 758 
Q 1494 397 1959 397 
Q 2419 397 2687 759 
Q 2956 1122 2956 1747 
Q 2956 2369 2687 2733 
Q 2419 3097 1959 3097 
z
M 1959 3584 
Q 2709 3584 3137 3096 
Q 3566 2609 3566 1747 
Q 3566 888 3137 398 
Q 2709 -91 1959 -91 
Q 1206 -91 779 398 
Q 353 888 353 1747 
Q 353 2609 779 3096 
Q 1206 3584 1959 3584 
z
" transform="scale(0.015625)"/>
      <path id="DejaVuSans-72" d="M 2631 2963 
Q 2534 3019 2420 3045 
Q 2306 3072 2169 3072 
Q 1681 3072 1420 2755 
Q 1159 2438 1159 1844 
L 1159 0 
L 581 0 
L 581 3500 
L 1159 3500 
L 1159 2956 
Q 1341 3275 1631 3429 
Q 1922 3584 2338 3584 
Q 2397 3584 2469 3576 
Q 2541 3569 2628 3553 
L 2631 2963 
z
" transform="scale(0.015625)"/>
      <path id="DejaVuSans-74" d="M 1172 4494 
L 1172 3500 
L 2356 3500 
L 2356 3053 
L 1172 3053 
L 1172 1153 
Q 1172 725 1289 603 
Q 1406 481 1766 481 
L 2356 481 
L 2356 0 
L 1766 0 
Q 1100 0 847 248 
Q 594 497 594 1153 
L 594 3053 
L 172 3053 
L 172 3500 
L 594 3500 
L 594 4494 
L 1172 4494 
z
" transform="scale(0.015625)"/>
      <path id="DejaVuSans-69" d="M 603 3500 
L 1178 3500 
L 1178 0 
L 603 0 
L 603 3500 
z
M 603 4863 
L 1178 4863 
L 1178 4134 
L 603 4134 
L 603 4863 
z
" transform="scale(0.015625)"/>
      <path id="DejaVuSans-28" d="M 1984 4856 
Q 1566 4138 1362 3434 
Q 1159 2731 1159 2009 
Q 1159 1288 1364 580 
Q 1569 -128 1984 -844 
L 1484 -844 
Q 1016 -109 783 600 
Q 550 1309 550 2009 
Q 550 2706 781 3412 
Q 1013 4119 1484 4856 
L 1984 4856 
z
" transform="scale(0.015625)"/>
      <path id="DejaVuSans-76" d="M 191 3500 
L 800 3500 
L 1894 563 
L 2988 3500 
L 3597 3500 
L 2284 0 
L 1503 0 
L 191 3500 
z
" transform="scale(0.015625)"/>
      <path id="DejaVuSans-29" d="M 513 4856 
L 1013 4856 
Q 1481 4119 1714 3412 
Q 1947 2706 1947 2009 
Q 1947 1309 1714 600 
Q 1481 -109 1013 -844 
L 513 -844 
Q 928 -128 1133 580 
Q 1338 1288 1338 2009 
Q 1338 2731 1133 3434 
Q 928 4138 513 4856 
z
" transform="scale(0.015625)"/>
     </defs>
     <use xlink:href="#DejaVuSans-50"/>
     <use xlink:href="#DejaVuSans-68" transform="translate(60.302734 0)"/>
     <use xlink:href="#DejaVuSans-61" transform="translate(123.681641 0)"/>
     <use xlink:href="#DejaVuSans-73" transform="translate(184.960938 0)"/>
     <use xlink:href="#DejaVuSans-65" transform="translate(237.060547 0)"/>
     <use xlink:href="#DejaVuSans-20" transform="translate(298.583984 0)"/>
     <use xlink:href="#DejaVuSans-50" transform="translate(330.371094 0)"/>
     <use xlink:href="#DejaVuSans-6f" transform="translate(387.048828 0)"/>
     <use xlink:href="#DejaVuSans-72" transform="translate(448.230469 0)"/>
     <use xlink:href="#DejaVuSans-74" transform="translate(489.34375 0)"/>
     <use xlink:href="#DejaVuSans-72" transform="translate(528.552734 0)"/>
     <use xlink:href="#DejaVuSans-61" transform="translate(569.666016 0)"/>
     <use xlink:href="#DejaVuSans-69" transform="translate(630.945312 0)"/>
     <use xlink:href="#DejaVuSans-74" transform="translate(658.728516 0)"/>
     <use xlink:href="#DejaVuSans-20" transform="translate(697.9375 0)"/>
     <use xlink:href="#DejaVuSans-28" transform="translate(729.724609 0)"/>
     <use xlink:href="#DejaVuSans-78" transform="translate(768.738281 0)"/>
     <use xlink:href="#DejaVuSans-30" transform="translate(827.917969 0)"/>
     <use xlink:href="#DejaVuSans-20" transform="translate(891.541016 0)"/>
     <use xlink:href="#DejaVuSans-76" transform="translate(923.328125 0)"/>
     <use xlink:href="#DejaVuSans-73" transform="translate(982.507812 0)"/>
     <use xlink:href="#DejaVuSans-20" transform="translate(1034.607422 0)"/>
     <use xlink:href="#DejaVuSans-78" transform="translate(1066.394531 0)"/>
     <use xlink:href="#DejaVuSans-31" transform="translate(1125.574219 0)"/>
     <use xlink:href="#DejaVuSans-29" transform="translate(1189.197266 0)"/>
    </g>
   </g>
   <g id="line2d_14">
    <path d="M 536.879791 265.637567 
L 537.418691 270.861877 
L 537.614219 275.994811 
L 537.470663 281.073358 
L 536.990824 286.134059 
L 536.174568 291.212558 
L 535.019385 296.343874 
L 533.521066 301.562514 
L 531.67216 306.901972 
L 529.463923 312.395298 
L 526.884939 318.074294 
L 523.921739 323.969482 
L 520.55933 330.11028 
L 516.780114 336.522743 
L 512.565511 343.231296 
L 507.89507 350.255422 
L 502.747344 357.609346 
L 497.100059 365.302813 
L 490.930799 373.333016 
L 484.217285 381.69136 
L 476.938543 390.35302 
L 469.075982 399.277954 
L 460.612801 408.413094 
L 451.539088 417.675827 
L 446.771075 422.325921 
L 441.848104 426.970855 
L 436.771452 431.592503 
L 431.542394 436.172743 
L 426.162456 440.693143 
L 420.63355 445.13389 
L 414.958024 449.4737 
L 409.140687 453.688498 
L 403.186349 457.75421 
L 397.10009 461.646906 
L 390.88757 465.341436 
L 384.555253 468.81169 
L 378.112056 472.033232 
L 371.566898 474.981627 
L 364.928888 477.633238 
L 358.207842 479.964161 
L 351.414562 481.951316 
L 344.561418 483.578753 
L 337.660778 484.830525 
L 330.725023 485.69191 
L 323.767187 486.149516 
L 316.801019 486.193102 
L 309.840286 485.822291 
L 302.898755 485.036709 
L 295.990013 483.837052 
L 289.127985 482.226617 
L 282.326626 480.212824 
L 275.598431 477.810778 
L 268.955896 475.035584 
L 262.411214 471.90278 
L 255.97648 468.430453 
L 249.663087 464.639486 
L 243.480234 460.553262 
L 237.437122 456.195162 
L 231.542635 451.588332 
L 225.805228 446.757257 
L 220.232259 441.726739 
L 214.829012 436.519604 
L 209.600773 431.158675 
L 204.552576 425.666175 
L 199.688917 420.064328 
L 195.013241 414.373782 
L 190.527516 408.611293 
L 186.233711 402.793616 
L 182.133645 396.93686 
L 178.228671 391.056387 
L 174.519393 385.165345 
L 171.005617 379.273156 
L 167.687148 373.389244 
L 164.563732 367.522523 
L 161.634795 361.681018 
L 158.899377 355.870807 
L 156.356242 350.095305 
L 154.004155 344.357927 
L 151.841881 338.66177 
L 149.868019 333.009202 
L 148.081062 327.401274 
L 146.479555 321.837514 
L 145.062045 316.31745 
L 143.82711 310.840469 
L 142.773276 305.405457 
L 141.899143 300.010626 
L 141.203512 294.653606 
L 140.685184 289.332028 
L 140.343003 284.043536 
L 140.175833 278.785447 
L 140.182693 273.554981 
L 140.362814 268.349519 
L 140.715427 263.166441 
L 141.23979 258.003294 
L 141.935232 252.8574 
L 142.801224 247.726516 
L 143.837348 242.609213 
L 145.043186 237.504062 
L 146.418303 232.409955 
L 147.962379 227.32562 
L 149.675125 222.250774 
L 151.556162 217.186566 
L 153.60511 212.134148 
L 155.821504 207.095146 
L 158.205027 202.071095 
L 160.755183 197.065086 
L 163.471091 192.082181 
L 166.351872 187.127443 
L 169.396465 182.2065 
L 172.60398 177.325072 
L 175.973035 172.49085 
L 179.501517 167.713716 
L 183.187312 163.00355 
L 187.028034 158.370722 
L 191.021438 153.826053 
L 195.164424 149.382232 
L 199.452853 145.053648 
L 203.882586 140.854693 
L 208.44916 136.799888 
L 213.148131 132.904696 
L 217.973923 129.185362 
L 222.919796 125.658359 
L 227.979015 122.340159 
L 233.144548 119.246747 
L 238.409177 116.395361 
L 243.764538 113.801883 
L 249.201313 111.480236 
L 254.710184 109.444344 
L 260.281682 107.707028 
L 265.905921 106.282063 
L 271.572271 105.179491 
L 277.269689 104.405564 
L 282.987137 103.966533 
L 288.713632 103.867313 
L 294.43767 104.112809 
L 300.147737 104.703061 
L 305.832605 105.634001 
L 311.481048 106.901566 
L 317.082093 108.500671 
L 322.624337 110.425198 
L 328.097153 112.665124 
L 333.49075 115.207707 
L 338.795336 118.040207 
L 344.00148 121.149529 
L 349.099564 124.521147 
L 354.081244 128.139031 
L 358.939224 131.986515 
L 363.666212 136.046937 
L 368.255279 140.303893 
L 372.699548 144.739887 
L 376.993499 149.338259 
L 381.132566 154.083313 
L 385.112185 158.959357 
L 388.928082 163.951287 
L 392.57618 169.043535 
L 396.053518 174.222653 
L 399.357832 179.476799 
L 402.486856 184.794132 
L 405.43852 190.163439 
L 408.210979 195.57355 
L 410.803139 201.015565 
L 413.214325 206.482077 
L 415.443863 211.965677 
L 417.491189 217.459435 
L 419.355915 222.956729 
L 421.038078 228.452658 
L 422.537922 233.943326 
L 423.855695 239.424838 
L 424.991699 244.893543 
L 425.946337 250.346202 
L 426.720218 255.780455 
L 427.314051 261.194376 
L 427.728546 266.586041 
L 427.964455 271.95353 
L 428.02254 277.295347 
L 427.903701 282.61 
L 427.60892 287.895902 
L 427.139179 293.151466 
L 426.495529 298.374886 
L 425.678938 303.564761 
L 424.690589 308.718884 
L 423.531805 313.834516 
L 422.203914 318.90892 
L 420.708364 323.938958 
L 419.046445 328.921828 
L 417.219856 333.853282 
L 415.23056 338.728245 
L 413.08052 343.541644 
L 410.771898 348.287928 
L 408.306645 352.961687 
L 405.687402 357.555796 
L 402.917214 362.062247 
L 399.999125 366.473027 
L 396.936456 370.779753 
L 393.732316 374.973809 
L 390.390784 379.045253 
L 386.916453 382.983553 
L 383.313918 386.778175 
L 379.588081 390.418544 
L 375.743728 393.893369 
L 371.786754 397.191283 
L 367.72359 400.301007 
L 363.560664 403.211262 
L 359.304675 405.911248 
L 354.962386 408.38908 
L 350.541537 410.634704 
L 346.050281 412.639045 
L 341.496771 414.393025 
L 336.889303 415.888544 
L 332.236449 417.116483 
L 327.547299 418.071326 
L 322.831107 418.749223 
L 318.097126 419.146324 
L 313.354567 419.259965 
L 308.61306 419.087043 
L 303.882079 418.628685 
L 299.170959 417.887798 
L 294.489036 416.867286 
L 289.845422 415.571033 
L 285.249652 414.003247 
L 280.710449 412.171455 
L 276.236157 410.084442 
L 271.835118 407.750993 
L 267.515336 405.180368 
L 263.285111 402.382646 
L 259.151526 399.369325 
L 255.121168 396.152352 
L 251.200626 392.743671 
L 247.396119 389.155176 
L 243.713992 385.399604 
L 240.15929 381.489264 
L 236.73658 377.436225 
L 233.450429 373.25256 
L 230.305075 368.949941 
L 227.304745 364.5406 
L 224.452536 360.035251 
L 221.75116 355.444031 
L 219.203328 350.77708 
L 216.811493 346.044038 
L 214.578035 341.254749 
L 212.504479 336.417331 
L 210.59207 331.539317 
L 208.842055 326.628239 
L 207.255491 321.691224 
L 205.833369 316.735318 
L 204.576066 311.76627 
L 203.483772 306.789422 
L 202.556675 301.810113 
L 201.794819 296.83348 
L 201.19823 291.864398 
L 200.766465 286.907175 
L 200.498941 281.965959 
L 200.395072 277.044898 
L 200.454138 272.148157 
L 200.67547 267.279567 
L 201.05795 262.443155 
L 201.600324 257.643026 
L 202.301336 252.883284 
L 203.159566 248.16824 
L 204.173727 243.501888 
L 205.341976 238.889032 
L 206.662311 234.334718 
L 208.132727 229.843992 
L 209.751008 225.422207 
L 211.515122 221.074537 
L 213.422314 216.807227 
L 215.469623 212.626818 
L 217.654086 208.539849 
L 219.97248 204.553119 
L 222.421775 200.673523 
L 224.998049 196.90875 
L 227.697136 193.266689 
L 230.514873 189.755223 
L 233.446811 186.382268 
L 236.488633 183.1562 
L 239.635068 180.085287 
L 242.880599 177.177741 
L 246.219712 174.441778 
L 249.646637 171.885255 
L 253.155606 169.516812 
L 256.740033 167.343619 
L 260.393134 165.372459 
L 264.108131 163.610119 
L 267.878083 162.062622 
L 271.69589 160.736852 
L 275.553995 159.636917 
L 279.44475 158.766269 
L 283.360507 158.128359 
L 287.293607 157.725639 
L 291.236093 157.561152 
L 295.180081 157.634571 
L 299.11772 157.944832 
L 303.041156 158.490869 
L 306.942689 159.270665 
L 310.814266 160.282312 
L 314.648443 161.520979 
L 318.437915 162.981236 
L 322.175379 164.657652 
L 325.853813 166.544166 
L 329.465881 168.634382 
L 333.00524 170.920221 
L 336.465753 173.393286 
L 339.841284 176.04518 
L 343.126046 178.867299 
L 346.314033 181.850507 
L 349.400389 184.985387 
L 352.38048 188.262485 
L 355.249669 191.672347 
L 358.003674 195.205664 
L 360.638097 198.852649 
L 363.149642 202.604242 
L 365.535211 206.451522 
L 367.791704 210.385572 
L 369.916339 214.397797 
L 371.906285 218.479319 
L 373.759655 222.622373 
L 375.47472 226.819391 
L 377.049754 231.062805 
L 378.483294 235.345378 
L 379.773852 239.659799 
L 380.920711 243.999728 
L 381.92328 248.358985 
L 382.780968 252.731389 
L 383.493409 257.110974 
L 384.060194 261.491866 
L 384.481573 265.868707 
L 384.757896 270.236221 
L 384.889513 274.58913 
L 384.876988 278.922207 
L 384.720795 283.230404 
L 384.422042 287.508665 
L 383.981929 291.751932 
L 383.401655 295.95515 
L 382.682638 300.113169 
L 381.826171 304.22101 
L 380.83422 308.273299 
L 379.70885 312.264609 
L 378.452122 316.189509 
L 377.066347 320.042422 
L 375.553674 323.817821 
L 373.917018 327.509709 
L 372.159393 331.112026 
L 370.283815 334.618715 
L 368.293567 338.023635 
L 366.191783 341.320483 
L 363.982418 344.502835 
L 361.669529 347.564252 
L 359.257172 350.498297 
L 356.749671 353.298653 
L 354.151258 355.958593 
L 351.466946 358.47202 
L 348.701833 360.832917 
L 345.861023 363.035263 
L 342.949835 365.073466 
L 339.973604 366.941327 
L 336.938249 368.634238 
L 333.849751 370.147763 
L 330.714093 371.47747 
L 327.537378 372.619643 
L 324.325845 373.569938 
L 321.085975 374.32638 
L 317.824272 374.887231 
L 314.547237 375.250755 
L 311.261365 375.416089 
L 307.973379 375.381924 
L 304.689823 375.149546 
L 301.417217 374.720486 
L 298.162084 374.096272 
L 294.930795 373.279248 
L 291.729998 372.271616 
L 288.565756 371.077734 
L 285.444081 369.702149 
L 282.370982 368.149407 
L 279.352206 366.424617 
L 276.39376 364.533032 
L 273.500789 362.481168 
L 270.678363 360.275639 
L 267.931554 357.923064 
L 265.265103 355.430296 
L 262.683962 352.804484 
L 260.192092 350.053086 
L 257.793386 347.18358 
L 255.491732 344.203448 
L 253.290671 341.120127 
L 251.193897 337.941355 
L 249.204127 334.674495 
L 247.324016 331.326885 
L 245.556215 327.905861 
L 243.903045 324.418565 
L 242.366936 320.872341 
L 240.949432 317.273883 
L 239.652024 313.629843 
L 238.476202 309.946873 
L 237.423154 306.231402 
L 236.49416 302.489945 
L 235.689717 298.72843 
L 235.010275 294.952756 
L 234.456286 291.168818 
L 234.027926 287.382357 
L 233.72547 283.599101 
L 233.548473 279.824455 
L 233.496456 276.063807 
L 233.568939 272.322546 
L 233.765178 268.606003 
L 234.084547 264.919456 
L 234.525722 261.268136 
L 235.087346 257.657271 
L 235.768062 254.092091 
L 236.56625 250.577839 
L 237.480423 247.119736 
L 238.508379 243.723091 
L 239.647891 240.393215 
L 240.896731 237.135419 
L 242.252397 233.955026 
L 243.712525 230.857441 
L 245.274022 227.848035 
L 246.933773 224.932178 
L 248.688663 222.115238 
L 250.535306 219.402492 
L 252.470426 216.79945 
L 254.490053 214.311187 
L 256.590201 211.942763 
L 258.766886 209.699238 
L 261.015882 207.585379 
L 263.33301 205.606345 
L 265.713527 203.766253 
L 268.152681 202.069197 
L 270.645718 200.519271 
L 273.187715 199.120037 
L 275.773708 197.875537 
L 278.398405 196.788175 
L 281.056508 195.860328 
L 283.742719 195.094372 
L 286.451676 194.491962 
L 289.177887 194.055211 
L 291.915846 193.784242 
L 294.660045 193.679158 
L 297.404978 193.740064 
L 300.145196 193.966285 
L 302.875058 194.357463 
L 305.589239 194.911319 
L 308.282414 195.625565 
L 310.949259 196.497912 
L 313.58463 197.525399 
L 316.18316 198.705184 
L 318.740077 200.032962 
L 321.250611 201.50443 
L 323.709994 203.115278 
L 326.113719 204.860764 
L 328.457082 206.736068 
L 330.736142 208.735582 
L 332.94696 210.853697 
L 335.085602 213.084804 
L 337.148435 215.423103 
L 339.131678 217.862636 
L 341.032374 220.397263 
L 342.847564 223.020842 
L 344.574302 225.727238 
L 346.209942 228.51031 
L 347.751746 231.363771 
L 349.197772 234.281542 
L 350.546082 237.25754 
L 351.794749 240.285692 
L 353.986527 246.474459 
L 355.762529 252.800784 
L 357.115395 259.219049 
L 358.039915 265.68454 
L 358.535059 272.154372 
L 358.601508 278.586344 
L 358.243341 284.93942 
L 358.243341 284.93942 
" clip-path="url(#p77fcdb5303)" style="fill: none; stroke-dasharray: 12.95,5.6; stroke-dashoffset: 0; stroke: #ff0000; stroke-opacity: 0.8; stroke-width: 3.5"/>
   </g>
   <g id="legend_1">
    <g id="patch_7">
     <path d="M 49.620313 525.438125 
L 194.970313 525.438125 
Q 196.970313 525.438125 196.970313 523.438125 
L 196.970313 465.725625 
Q 196.970313 463.725625 194.970313 463.725625 
L 49.620313 463.725625 
Q 47.620313 463.725625 47.620313 465.725625 
L 47.620313 523.438125 
Q 47.620313 525.438125 49.620313 525.438125 
z
" style="fill: #ffffff; opacity: 0.8; stroke: #cccccc; stroke-linejoin: miter"/>
    </g>
    <g id="line2d_15">
     <path d="M 51.620313 471.824062 
L 61.620313 471.824062 
L 71.620313 471.824062 
" style="fill: none; stroke: #000000; stroke-opacity: 0.3; stroke-width: 7; stroke-linecap: square"/>
    </g>
    <g id="text_14">
     <!-- True/Underlying model -->
     <g transform="translate(79.620313 475.324062) scale(0.1 -0.1)">
      <defs>
       <path id="DejaVuSans-54" d="M -19 4666 
L 3928 4666 
L 3928 4134 
L 2272 4134 
L 2272 0 
L 1638 0 
L 1638 4134 
L -19 4134 
L -19 4666 
z
" transform="scale(0.015625)"/>
       <path id="DejaVuSans-75" d="M 544 1381 
L 544 3500 
L 1119 3500 
L 1119 1403 
Q 1119 906 1312 657 
Q 1506 409 1894 409 
Q 2359 409 2629 706 
Q 2900 1003 2900 1516 
L 2900 3500 
L 3475 3500 
L 3475 0 
L 2900 0 
L 2900 538 
Q 2691 219 2414 64 
Q 2138 -91 1772 -91 
Q 1169 -91 856 284 
Q 544 659 544 1381 
z
M 1991 3584 
L 1991 3584 
z
" transform="scale(0.015625)"/>
       <path id="DejaVuSans-2f" d="M 1625 4666 
L 2156 4666 
L 531 -594 
L 0 -594 
L 1625 4666 
z
" transform="scale(0.015625)"/>
       <path id="DejaVuSans-55" d="M 556 4666 
L 1191 4666 
L 1191 1831 
Q 1191 1081 1462 751 
Q 1734 422 2344 422 
Q 2950 422 3222 751 
Q 3494 1081 3494 1831 
L 3494 4666 
L 4128 4666 
L 4128 1753 
Q 4128 841 3676 375 
Q 3225 -91 2344 -91 
Q 1459 -91 1007 375 
Q 556 841 556 1753 
L 556 4666 
z
" transform="scale(0.015625)"/>
       <path id="DejaVuSans-6e" d="M 3513 2113 
L 3513 0 
L 2938 0 
L 2938 2094 
Q 2938 2591 2744 2837 
Q 2550 3084 2163 3084 
Q 1697 3084 1428 2787 
Q 1159 2491 1159 1978 
L 1159 0 
L 581 0 
L 581 3500 
L 1159 3500 
L 1159 2956 
Q 1366 3272 1645 3428 
Q 1925 3584 2291 3584 
Q 2894 3584 3203 3211 
Q 3513 2838 3513 2113 
z
" transform="scale(0.015625)"/>
       <path id="DejaVuSans-64" d="M 2906 2969 
L 2906 4863 
L 3481 4863 
L 3481 0 
L 2906 0 
L 2906 525 
Q 2725 213 2448 61 
Q 2172 -91 1784 -91 
Q 1150 -91 751 415 
Q 353 922 353 1747 
Q 353 2572 751 3078 
Q 1150 3584 1784 3584 
Q 2172 3584 2448 3432 
Q 2725 3281 2906 2969 
z
M 947 1747 
Q 947 1113 1208 752 
Q 1469 391 1925 391 
Q 2381 391 2643 752 
Q 2906 1113 2906 1747 
Q 2906 2381 2643 2742 
Q 2381 3103 1925 3103 
Q 1469 3103 1208 2742 
Q 947 2381 947 1747 
z
" transform="scale(0.015625)"/>
       <path id="DejaVuSans-6c" d="M 603 4863 
L 1178 4863 
L 1178 0 
L 603 0 
L 603 4863 
z
" transform="scale(0.015625)"/>
       <path id="DejaVuSans-79" d="M 2059 -325 
Q 1816 -950 1584 -1140 
Q 1353 -1331 966 -1331 
L 506 -1331 
L 506 -850 
L 844 -850 
Q 1081 -850 1212 -737 
Q 1344 -625 1503 -206 
L 1606 56 
L 191 3500 
L 800 3500 
L 1894 763 
L 2988 3500 
L 3597 3500 
L 2059 -325 
z
" transform="scale(0.015625)"/>
       <path id="DejaVuSans-67" d="M 2906 1791 
Q 2906 2416 2648 2759 
Q 2391 3103 1925 3103 
Q 1463 3103 1205 2759 
Q 947 2416 947 1791 
Q 947 1169 1205 825 
Q 1463 481 1925 481 
Q 2391 481 2648 825 
Q 2906 1169 2906 1791 
z
M 3481 434 
Q 3481 -459 3084 -895 
Q 2688 -1331 1869 -1331 
Q 1566 -1331 1297 -1286 
Q 1028 -1241 775 -1147 
L 775 -588 
Q 1028 -725 1275 -790 
Q 1522 -856 1778 -856 
Q 2344 -856 2625 -561 
Q 2906 -266 2906 331 
L 2906 616 
Q 2728 306 2450 153 
Q 2172 0 1784 0 
Q 1141 0 747 490 
Q 353 981 353 1791 
Q 353 2603 747 3093 
Q 1141 3584 1784 3584 
Q 2172 3584 2450 3431 
Q 2728 3278 2906 2969 
L 2906 3500 
L 3481 3500 
L 3481 434 
z
" transform="scale(0.015625)"/>
       <path id="DejaVuSans-6d" d="M 3328 2828 
Q 3544 3216 3844 3400 
Q 4144 3584 4550 3584 
Q 5097 3584 5394 3201 
Q 5691 2819 5691 2113 
L 5691 0 
L 5113 0 
L 5113 2094 
Q 5113 2597 4934 2840 
Q 4756 3084 4391 3084 
Q 3944 3084 3684 2787 
Q 3425 2491 3425 1978 
L 3425 0 
L 2847 0 
L 2847 2094 
Q 2847 2600 2669 2842 
Q 2491 3084 2119 3084 
Q 1678 3084 1418 2786 
Q 1159 2488 1159 1978 
L 1159 0 
L 581 0 
L 581 3500 
L 1159 3500 
L 1159 2956 
Q 1356 3278 1631 3431 
Q 1906 3584 2284 3584 
Q 2666 3584 2933 3390 
Q 3200 3197 3328 2828 
z
" transform="scale(0.015625)"/>
      </defs>
      <use xlink:href="#DejaVuSans-54"/>
      <use xlink:href="#DejaVuSans-72" transform="translate(46.333984 0)"/>
      <use xlink:href="#DejaVuSans-75" transform="translate(87.447266 0)"/>
      <use xlink:href="#DejaVuSans-65" transform="translate(150.826172 0)"/>
      <use xlink:href="#DejaVuSans-2f" transform="translate(212.349609 0)"/>
      <use xlink:href="#DejaVuSans-55" transform="translate(246.041016 0)"/>
      <use xlink:href="#DejaVuSans-6e" transform="translate(319.234375 0)"/>
      <use xlink:href="#DejaVuSans-64" transform="translate(382.613281 0)"/>
      <use xlink:href="#DejaVuSans-65" transform="translate(446.089844 0)"/>
      <use xlink:href="#DejaVuSans-72" transform="translate(507.613281 0)"/>
      <use xlink:href="#DejaVuSans-6c" transform="translate(548.726562 0)"/>
      <use xlink:href="#DejaVuSans-79" transform="translate(576.509766 0)"/>
      <use xlink:href="#DejaVuSans-69" transform="translate(635.689453 0)"/>
      <use xlink:href="#DejaVuSans-6e" transform="translate(663.472656 0)"/>
      <use xlink:href="#DejaVuSans-67" transform="translate(726.851562 0)"/>
      <use xlink:href="#DejaVuSans-20" transform="translate(790.328125 0)"/>
      <use xlink:href="#DejaVuSans-6d" transform="translate(822.115234 0)"/>
      <use xlink:href="#DejaVuSans-6f" transform="translate(919.527344 0)"/>
      <use xlink:href="#DejaVuSans-64" transform="translate(980.708984 0)"/>
      <use xlink:href="#DejaVuSans-65" transform="translate(1044.185547 0)"/>
      <use xlink:href="#DejaVuSans-6c" transform="translate(1105.708984 0)"/>
     </g>
    </g>
    <g id="line2d_16">
     <path d="M 51.620313 486.502187 
L 61.620313 486.502187 
L 71.620313 486.502187 
" style="fill: none; stroke-dasharray: 12.95,5.6; stroke-dashoffset: 0; stroke: #ff0000; stroke-opacity: 0.8; stroke-width: 3.5"/>
    </g>
    <g id="text_15">
     <!-- AutoSINDy -->
     <g transform="translate(79.620313 490.002187) scale(0.1 -0.1)">
      <defs>
       <path id="DejaVuSans-41" d="M 2188 4044 
L 1331 1722 
L 3047 1722 
L 2188 4044 
z
M 1831 4666 
L 2547 4666 
L 4325 0 
L 3669 0 
L 3244 1197 
L 1141 1197 
L 716 0 
L 50 0 
L 1831 4666 
z
" transform="scale(0.015625)"/>
       <path id="DejaVuSans-53" d="M 3425 4513 
L 3425 3897 
Q 3066 4069 2747 4153 
Q 2428 4238 2131 4238 
Q 1616 4238 1336 4038 
Q 1056 3838 1056 3469 
Q 1056 3159 1242 3001 
Q 1428 2844 1947 2747 
L 2328 2669 
Q 3034 2534 3370 2195 
Q 3706 1856 3706 1288 
Q 3706 609 3251 259 
Q 2797 -91 1919 -91 
Q 1588 -91 1214 -16 
Q 841 59 441 206 
L 441 856 
Q 825 641 1194 531 
Q 1563 422 1919 422 
Q 2459 422 2753 634 
Q 3047 847 3047 1241 
Q 3047 1584 2836 1778 
Q 2625 1972 2144 2069 
L 1759 2144 
Q 1053 2284 737 2584 
Q 422 2884 422 3419 
Q 422 4038 858 4394 
Q 1294 4750 2059 4750 
Q 2388 4750 2728 4690 
Q 3069 4631 3425 4513 
z
" transform="scale(0.015625)"/>
       <path id="DejaVuSans-49" d="M 628 4666 
L 1259 4666 
L 1259 0 
L 628 0 
L 628 4666 
z
" transform="scale(0.015625)"/>
       <path id="DejaVuSans-4e" d="M 628 4666 
L 1478 4666 
L 3547 763 
L 3547 4666 
L 4159 4666 
L 4159 0 
L 3309 0 
L 1241 3903 
L 1241 0 
L 628 0 
L 628 4666 
z
" transform="scale(0.015625)"/>
       <path id="DejaVuSans-44" d="M 1259 4147 
L 1259 519 
L 2022 519 
Q 2988 519 3436 956 
Q 3884 1394 3884 2338 
Q 3884 3275 3436 3711 
Q 2988 4147 2022 4147 
L 1259 4147 
z
M 628 4666 
L 1925 4666 
Q 3281 4666 3915 4102 
Q 4550 3538 4550 2338 
Q 4550 1131 3912 565 
Q 3275 0 1925 0 
L 628 0 
L 628 4666 
z
" transform="scale(0.015625)"/>
      </defs>
      <use xlink:href="#DejaVuSans-41"/>
      <use xlink:href="#DejaVuSans-75" transform="translate(68.408203 0)"/>
      <use xlink:href="#DejaVuSans-74" transform="translate(131.787109 0)"/>
      <use xlink:href="#DejaVuSans-6f" transform="translate(170.996094 0)"/>
      <use xlink:href="#DejaVuSans-53" transform="translate(232.177734 0)"/>
      <use xlink:href="#DejaVuSans-49" transform="translate(295.654297 0)"/>
      <use xlink:href="#DejaVuSans-4e" transform="translate(325.146484 0)"/>
      <use xlink:href="#DejaVuSans-44" transform="translate(399.951172 0)"/>
      <use xlink:href="#DejaVuSans-79" transform="translate(476.953125 0)"/>
     </g>
    </g>
    <g id="line2d_17">
     <path d="M 51.620313 501.180312 
L 61.620313 501.180312 
L 71.620313 501.180312 
" style="fill: none; stroke-dasharray: 3.5,5.775; stroke-dashoffset: 0; stroke: #008000; stroke-opacity: 0.8; stroke-width: 3.5"/>
    </g>
    <g id="text_16">
     <!-- Standard SINDy -->
     <g transform="translate(79.620313 504.680312) scale(0.1 -0.1)">
      <use xlink:href="#DejaVuSans-53"/>
      <use xlink:href="#DejaVuSans-74" transform="translate(63.476562 0)"/>
      <use xlink:href="#DejaVuSans-61" transform="translate(102.685547 0)"/>
      <use xlink:href="#DejaVuSans-6e" transform="translate(163.964844 0)"/>
      <use xlink:href="#DejaVuSans-64" transform="translate(227.34375 0)"/>
      <use xlink:href="#DejaVuSans-61" transform="translate(290.820312 0)"/>
      <use xlink:href="#DejaVuSans-72" transform="translate(352.099609 0)"/>
      <use xlink:href="#DejaVuSans-64" transform="translate(391.462891 0)"/>
      <use xlink:href="#DejaVuSans-20" transform="translate(454.939453 0)"/>
      <use xlink:href="#DejaVuSans-53" transform="translate(486.726562 0)"/>
      <use xlink:href="#DejaVuSans-49" transform="translate(550.203125 0)"/>
      <use xlink:href="#DejaVuSans-4e" transform="translate(579.695312 0)"/>
      <use xlink:href="#DejaVuSans-44" transform="translate(654.5 0)"/>
      <use xlink:href="#DejaVuSans-79" transform="translate(731.501953 0)"/>
     </g>
    </g>
    <g id="line2d_18">
     <path d="M 51.620313 515.858437 
L 61.620313 515.858437 
L 71.620313 515.858437 
" style="fill: none; stroke-dasharray: 22.4,5.6,3.5,5.6; stroke-dashoffset: 0; stroke: #0000ff; stroke-opacity: 0.8; stroke-width: 3.5"/>
    </g>
    <g id="text_17">
     <!-- Standard PySR -->
     <g transform="translate(79.620313 519.358437) scale(0.1 -0.1)">
      <defs>
       <path id="DejaVuSans-52" d="M 2841 2188 
Q 3044 2119 3236 1894 
Q 3428 1669 3622 1275 
L 4263 0 
L 3584 0 
L 2988 1197 
Q 2756 1666 2539 1819 
Q 2322 1972 1947 1972 
L 1259 1972 
L 1259 0 
L 628 0 
L 628 4666 
L 2053 4666 
Q 2853 4666 3247 4331 
Q 3641 3997 3641 3322 
Q 3641 2881 3436 2590 
Q 3231 2300 2841 2188 
z
M 1259 4147 
L 1259 2491 
L 2053 2491 
Q 2509 2491 2742 2702 
Q 2975 2913 2975 3322 
Q 2975 3731 2742 3939 
Q 2509 4147 2053 4147 
L 1259 4147 
z
" transform="scale(0.015625)"/>
      </defs>
      <use xlink:href="#DejaVuSans-53"/>
      <use xlink:href="#DejaVuSans-74" transform="translate(63.476562 0)"/>
      <use xlink:href="#DejaVuSans-61" transform="translate(102.685547 0)"/>
      <use xlink:href="#DejaVuSans-6e" transform="translate(163.964844 0)"/>
      <use xlink:href="#DejaVuSans-64" transform="translate(227.34375 0)"/>
      <use xlink:href="#DejaVuSans-61" transform="translate(290.820312 0)"/>
      <use xlink:href="#DejaVuSans-72" transform="translate(352.099609 0)"/>
      <use xlink:href="#DejaVuSans-64" transform="translate(391.462891 0)"/>
      <use xlink:href="#DejaVuSans-20" transform="translate(454.939453 0)"/>
      <use xlink:href="#DejaVuSans-50" transform="translate(486.726562 0)"/>
      <use xlink:href="#DejaVuSans-79" transform="translate(547.029297 0)"/>
      <use xlink:href="#DejaVuSans-53" transform="translate(606.208984 0)"/>
      <use xlink:href="#DejaVuSans-52" transform="translate(669.685547 0)"/>
     </g>
    </g>
   </g>
  </g>
 </g>
 <defs>
  <clipPath id="p77fcdb5303">
   <rect x="42.620313" y="22.318125" width="518.59" height="508.12"/>
  </clipPath>
 </defs>
</svg>
