<?xml version="1.0" encoding="utf-8" standalone="no"?>
<!DOCTYPE svg PUBLIC "-//W3C//DTD SVG 1.1//EN"
  "http://www.w3.org/Graphics/SVG/1.1/DTD/svg11.dtd">
<svg xmlns:xlink="http://www.w3.org/1999/xlink" width="568.412812pt" height="567.994375pt" viewBox="0 0 568.412812 567.994375" xmlns="http://www.w3.org/2000/svg" version="1.1">
 <metadata>
  <rdf:RDF xmlns:dc="http://purl.org/dc/elements/1.1/" xmlns:cc="http://creativecommons.org/ns#" xmlns:rdf="http://www.w3.org/1999/02/22-rdf-syntax-ns#">
   <cc:Work>
    <dc:type rdf:resource="http://purl.org/dc/dcmitype/StillImage"/>
    <dc:date>2026-04-06T13:30:19.797595</dc:date>
    <dc:format>image/svg+xml</dc:format>
    <dc:creator>
     <cc:Agent>
      <dc:title>Matplotlib v3.10.7, https://matplotlib.org/</dc:title>
     </cc:Agent>
    </dc:creator>
   </cc:Work>
  </rdf:RDF>
 </metadata>
 <defs>
  <style type="text/css">*{stroke-linejoin: round; stroke-linecap: butt}</style>
 </defs>
 <g id="figure_1">
  <g id="patch_1">
   <path d="M 0 567.994375 
L 568.412812 567.994375 
L 568.412812 0 
L 0 0 
z
" style="fill: #ffffff"/>
  </g>
  <g id="axes_1">
   <g id="patch_2">
    <path d="M 48.982813 530.438125 
L 561.212812 530.438125 
L 561.212812 22.318125 
L 48.982813 22.318125 
z
" style="fill: #ffffff"/>
   </g>
   <g id="matplotlib.axis_1">
    <g id="xtick_1">
     <g id="line2d_1">
      <defs>
       <path id="m28682b085f" d="M 0 0 
L 0 3.5 
" style="stroke: #000000; stroke-width: 0.8"/>
      </defs>
      <g>
       <use xlink:href="#m28682b085f" x="110.142648" y="530.438125" style="stroke: #000000; stroke-width: 0.8"/>
      </g>
     </g>
     <g id="text_1">
      <!-- −15 -->
      <g transform="translate(99.590304 545.036562) scale(0.1 -0.1)">
       <defs>
        <path id="DejaVuSans-2212" d="M 678 2272 
L 4684 2272 
L 4684 1741 
L 678 1741 
L 678 2272 
z
" transform="scale(0.015625)"/>
        <path id="DejaVuSans-31" d="M 794 531 
L 1825 531 
L 1825 4091 
L 703 3866 
L 703 4441 
L 1819 4666 
L 2450 4666 
L 2450 531 
L 3481 531 
L 3481 0 
L 794 0 
L 794 531 
z
" transform="scale(0.015625)"/>
        <path id="DejaVuSans-35" d="M 691 4666 
L 3169 4666 
L 3169 4134 
L 1269 4134 
L 1269 2991 
Q 1406 3038 1543 3061 
Q 1681 3084 1819 3084 
Q 2600 3084 3056 2656 
Q 3513 2228 3513 1497 
Q 3513 744 3044 326 
Q 2575 -91 1722 -91 
Q 1428 -91 1123 -41 
Q 819 9 494 109 
L 494 744 
Q 775 591 1075 516 
Q 1375 441 1709 441 
Q 2250 441 2565 725 
Q 2881 1009 2881 1497 
Q 2881 1984 2565 2268 
Q 2250 2553 1709 2553 
Q 1456 2553 1204 2497 
Q 953 2441 691 2322 
L 691 4666 
z
" transform="scale(0.015625)"/>
       </defs>
       <use xlink:href="#DejaVuSans-2212"/>
       <use xlink:href="#DejaVuSans-31" transform="translate(83.789062 0)"/>
       <use xlink:href="#DejaVuSans-35" transform="translate(147.412109 0)"/>
      </g>
     </g>
    </g>
    <g id="xtick_2">
     <g id="line2d_2">
      <g>
       <use xlink:href="#m28682b085f" x="175.831044" y="530.438125" style="stroke: #000000; stroke-width: 0.8"/>
      </g>
     </g>
     <g id="text_2">
      <!-- −10 -->
      <g transform="translate(165.2787 545.036562) scale(0.1 -0.1)">
       <defs>
        <path id="DejaVuSans-30" d="M 2034 4250 
Q 1547 4250 1301 3770 
Q 1056 3291 1056 2328 
Q 1056 1369 1301 889 
Q 1547 409 2034 409 
Q 2525 409 2770 889 
Q 3016 1369 3016 2328 
Q 3016 3291 2770 3770 
Q 2525 4250 2034 4250 
z
M 2034 4750 
Q 2819 4750 3233 4129 
Q 3647 3509 3647 2328 
Q 3647 1150 3233 529 
Q 2819 -91 2034 -91 
Q 1250 -91 836 529 
Q 422 1150 422 2328 
Q 422 3509 836 4129 
Q 1250 4750 2034 4750 
z
" transform="scale(0.015625)"/>
       </defs>
       <use xlink:href="#DejaVuSans-2212"/>
       <use xlink:href="#DejaVuSans-31" transform="translate(83.789062 0)"/>
       <use xlink:href="#DejaVuSans-30" transform="translate(147.412109 0)"/>
      </g>
     </g>
    </g>
    <g id="xtick_3">
     <g id="line2d_3">
      <g>
       <use xlink:href="#m28682b085f" x="241.51944" y="530.438125" style="stroke: #000000; stroke-width: 0.8"/>
      </g>
     </g>
     <g id="text_3">
      <!-- −5 -->
      <g transform="translate(234.148347 545.036562) scale(0.1 -0.1)">
       <use xlink:href="#DejaVuSans-2212"/>
       <use xlink:href="#DejaVuSans-35" transform="translate(83.789062 0)"/>
      </g>
     </g>
    </g>
    <g id="xtick_4">
     <g id="line2d_4">
      <g>
       <use xlink:href="#m28682b085f" x="307.207836" y="530.438125" style="stroke: #000000; stroke-width: 0.8"/>
      </g>
     </g>
     <g id="text_4">
      <!-- 0 -->
      <g transform="translate(304.026586 545.036562) scale(0.1 -0.1)">
       <use xlink:href="#DejaVuSans-30"/>
      </g>
     </g>
    </g>
    <g id="xtick_5">
     <g id="line2d_5">
      <g>
       <use xlink:href="#m28682b085f" x="372.896233" y="530.438125" style="stroke: #000000; stroke-width: 0.8"/>
      </g>
     </g>
     <g id="text_5">
      <!-- 5 -->
      <g transform="translate(369.714983 545.036562) scale(0.1 -0.1)">
       <use xlink:href="#DejaVuSans-35"/>
      </g>
     </g>
    </g>
    <g id="xtick_6">
     <g id="line2d_6">
      <g>
       <use xlink:href="#m28682b085f" x="438.584629" y="530.438125" style="stroke: #000000; stroke-width: 0.8"/>
      </g>
     </g>
     <g id="text_6">
      <!-- 10 -->
      <g transform="translate(432.222129 545.036562) scale(0.1 -0.1)">
       <use xlink:href="#DejaVuSans-31"/>
       <use xlink:href="#DejaVuSans-30" transform="translate(63.623047 0)"/>
      </g>
     </g>
    </g>
    <g id="xtick_7">
     <g id="line2d_7">
      <g>
       <use xlink:href="#m28682b085f" x="504.273025" y="530.438125" style="stroke: #000000; stroke-width: 0.8"/>
      </g>
     </g>
     <g id="text_7">
      <!-- 15 -->
      <g transform="translate(497.910525 545.036562) scale(0.1 -0.1)">
       <use xlink:href="#DejaVuSans-31"/>
       <use xlink:href="#DejaVuSans-35" transform="translate(63.623047 0)"/>
      </g>
     </g>
    </g>
    <g id="text_8">
     <!-- x0 -->
     <g transform="translate(298.957187 558.714687) scale(0.1 -0.1)">
      <defs>
       <path id="DejaVuSans-78" d="M 3513 3500 
L 2247 1797 
L 3578 0 
L 2900 0 
L 1881 1375 
L 863 0 
L 184 0 
L 1544 1831 
L 300 3500 
L 978 3500 
L 1906 2253 
L 2834 3500 
L 3513 3500 
z
" transform="scale(0.015625)"/>
      </defs>
      <use xlink:href="#DejaVuSans-78"/>
      <use xlink:href="#DejaVuSans-30" transform="translate(59.179688 0)"/>
     </g>
    </g>
   </g>
   <g id="matplotlib.axis_2">
    <g id="ytick_1">
     <g id="line2d_8">
      <defs>
       <path id="m72e9d6b277" d="M 0 0 
L -3.5 0 
" style="stroke: #000000; stroke-width: 0.8"/>
      </defs>
      <g>
       <use xlink:href="#m72e9d6b277" x="48.982813" y="469.492522" style="stroke: #000000; stroke-width: 0.8"/>
      </g>
     </g>
     <g id="text_9">
      <!-- −20 -->
      <g transform="translate(20.878125 473.291741) scale(0.1 -0.1)">
       <defs>
        <path id="DejaVuSans-32" d="M 1228 531 
L 3431 531 
L 3431 0 
L 469 0 
L 469 531 
Q 828 903 1448 1529 
Q 2069 2156 2228 2338 
Q 2531 2678 2651 2914 
Q 2772 3150 2772 3378 
Q 2772 3750 2511 3984 
Q 2250 4219 1831 4219 
Q 1534 4219 1204 4116 
Q 875 4013 500 3803 
L 500 4441 
Q 881 4594 1212 4672 
Q 1544 4750 1819 4750 
Q 2544 4750 2975 4387 
Q 3406 4025 3406 3419 
Q 3406 3131 3298 2873 
Q 3191 2616 2906 2266 
Q 2828 2175 2409 1742 
Q 1991 1309 1228 531 
z
" transform="scale(0.015625)"/>
       </defs>
       <use xlink:href="#DejaVuSans-2212"/>
       <use xlink:href="#DejaVuSans-32" transform="translate(83.789062 0)"/>
       <use xlink:href="#DejaVuSans-30" transform="translate(147.412109 0)"/>
      </g>
     </g>
    </g>
    <g id="ytick_2">
     <g id="line2d_9">
      <g>
       <use xlink:href="#m72e9d6b277" x="48.982813" y="371.465883" style="stroke: #000000; stroke-width: 0.8"/>
      </g>
     </g>
     <g id="text_10">
      <!-- −10 -->
      <g transform="translate(20.878125 375.265102) scale(0.1 -0.1)">
       <use xlink:href="#DejaVuSans-2212"/>
       <use xlink:href="#DejaVuSans-31" transform="translate(83.789062 0)"/>
       <use xlink:href="#DejaVuSans-30" transform="translate(147.412109 0)"/>
      </g>
     </g>
    </g>
    <g id="ytick_3">
     <g id="line2d_10">
      <g>
       <use xlink:href="#m72e9d6b277" x="48.982813" y="273.439243" style="stroke: #000000; stroke-width: 0.8"/>
      </g>
     </g>
     <g id="text_11">
      <!-- 0 -->
      <g transform="translate(35.620312 277.238462) scale(0.1 -0.1)">
       <use xlink:href="#DejaVuSans-30"/>
      </g>
     </g>
    </g>
    <g id="ytick_4">
     <g id="line2d_11">
      <g>
       <use xlink:href="#m72e9d6b277" x="48.982813" y="175.412604" style="stroke: #000000; stroke-width: 0.8"/>
      </g>
     </g>
     <g id="text_12">
      <!-- 10 -->
      <g transform="translate(29.257812 179.211823) scale(0.1 -0.1)">
       <use xlink:href="#DejaVuSans-31"/>
       <use xlink:href="#DejaVuSans-30" transform="translate(63.623047 0)"/>
      </g>
     </g>
    </g>
    <g id="ytick_5">
     <g id="line2d_12">
      <g>
       <use xlink:href="#m72e9d6b277" x="48.982813" y="77.385964" style="stroke: #000000; stroke-width: 0.8"/>
      </g>
     </g>
     <g id="text_13">
      <!-- 20 -->
      <g transform="translate(29.257812 81.185183) scale(0.1 -0.1)">
       <use xlink:href="#DejaVuSans-32"/>
       <use xlink:href="#DejaVuSans-30" transform="translate(63.623047 0)"/>
      </g>
     </g>
    </g>
    <g id="text_14">
     <!-- x1 -->
     <g transform="translate(14.798438 282.51875) rotate(-90) scale(0.1 -0.1)">
      <use xlink:href="#DejaVuSans-78"/>
      <use xlink:href="#DejaVuSans-31" transform="translate(59.179688 0)"/>
     </g>
    </g>
   </g>
   <g id="line2d_13">
    <path d="M 438.584629 175.412604 
L 439.019064 168.715743 
L 440.242503 162.432968 
L 442.126138 156.670343 
L 444.529139 151.562211 
L 447.299053 147.26225 
L 450.295505 143.777184 
L 453.40913 141.021264 
L 456.536052 138.974991 
L 459.575561 137.687876 
L 462.430115 137.278442 
L 465.01183 137.98962 
L 467.193828 139.882634 
L 468.84102 142.731287 
L 469.879755 146.355457 
L 470.298752 150.626586 
L 470.127867 155.493379 
L 469.315488 161.031409 
L 467.827873 167.207619 
L 465.654392 173.930277 
L 462.801948 181.060019 
L 459.293219 188.406109 
L 455.162721 195.718966 
L 450.500141 202.835822 
L 445.402287 209.636879 
L 439.961704 216.025311 
L 434.266681 221.927272 
L 428.40124 227.291889 
L 422.445149 232.091267 
L 416.473911 236.320486 
L 410.558771 239.997603 
L 404.777589 243.08891 
L 399.201418 245.554653 
L 393.87523 247.464707 
L 388.837122 248.882905 
L 384.118448 249.866191 
L 379.743819 250.464627 
L 375.731105 250.72139 
L 372.091432 250.672771 
L 368.829184 250.34818 
L 365.934242 249.772189 
L 363.396245 248.974972 
L 361.213097 247.985788 
L 359.379211 246.829208 
L 357.885506 245.52511 
L 356.719407 244.088685 
L 355.864843 242.530429 
L 355.302248 240.85615 
L 355.008561 239.066966 
L 354.963087 237.153659 
L 355.167497 235.094186 
L 355.624698 232.877104 
L 356.336513 230.491127 
L 357.30396 227.924576 
L 358.527254 225.165375 
L 360.0058 222.201056 
L 363.722252 215.605212 
L 365.965373 211.954096 
L 371.297567 203.927869 
L 377.73403 194.810289 
L 385.307128 184.501597 
L 394.127401 172.967369 
L 399.06115 166.747787 
L 404.335896 160.300636 
L 409.924217 153.775702 
L 415.827208 147.282771 
L 422.017918 140.921184 
L 428.441312 134.779867 
L 435.014267 128.937341 
L 441.647561 123.489903 
L 448.285178 118.82644 
L 454.818643 115.399823 
L 461.095681 113.499067 
L 466.921267 113.246949 
L 472.076581 114.563119 
L 476.457843 117.338687 
L 479.998301 121.635245 
L 482.591415 127.501872 
L 484.090314 134.969807 
L 484.34702 143.915933 
L 483.362278 153.813102 
L 481.177399 164.262203 
L 477.859514 174.904286 
L 473.503101 185.411813 
L 468.230653 195.542691 
L 462.19199 205.200747 
L 455.539777 214.237225 
L 448.419159 222.543326 
L 440.967673 230.055624 
L 433.314828 236.748951 
L 425.586441 242.529085 
L 417.918612 247.368331 
L 410.429154 251.301189 
L 403.212436 254.395704 
L 396.339374 256.753458 
L 389.857439 258.509575 
L 383.80159 259.754988 
L 378.197021 260.520024 
L 373.053323 260.876227 
L 368.374252 260.887174 
L 364.157728 260.608444 
L 360.39584 260.08761 
L 357.074842 259.364251 
L 354.174513 258.471608 
L 351.672701 257.439058 
L 349.548651 256.289288 
L 347.781718 255.03837 
L 346.35137 253.695761 
L 345.237187 252.264303 
L 344.41886 250.740221 
L 343.875733 249.113193 
L 343.590119 247.374141 
L 343.557822 245.522215 
L 343.775376 243.555059 
L 344.238165 241.467834 
L 344.940424 239.253227 
L 345.875234 236.901444 
L 347.03453 234.400216 
L 349.992967 228.890115 
L 353.830783 222.627553 
L 358.603958 215.527185 
L 364.360298 207.504325 
L 371.148129 198.480072 
L 379.034897 188.396663 
L 388.086776 177.135799 
L 398.371073 164.639142 
L 409.962819 151.059811 
L 416.218787 144.172496 
L 422.764969 137.505864 
L 429.545939 131.27022 
L 436.460073 125.672133 
L 443.360176 120.914602 
L 450.133633 117.173057 
L 456.660525 114.448464 
L 462.840999 112.650042 
L 468.611341 111.994944 
L 473.801137 113.037229 
L 478.253778 115.677872 
L 481.859562 119.762481 
L 484.4858 125.518981 
L 486.019907 132.80655 
L 486.404078 141.213168 
L 485.633169 150.263403 
L 483.728912 160.037212 
L 480.732749 170.218444 
L 476.713455 180.49395 
L 471.763147 190.617463 
L 466.004811 200.393045 
L 459.587286 209.633202 
L 452.653292 218.200763 
L 445.33842 226.010704 
L 437.771138 233.030142 
L 430.072168 239.255696 
L 422.362916 244.574288 
L 414.771059 248.975181 
L 407.403974 252.502267 
L 400.346281 255.231707 
L 393.659843 257.271931 
L 387.383829 258.763129 
L 381.547148 259.776005 
L 376.167375 260.34413 
L 371.249912 260.536317 
L 366.794951 260.412233 
L 362.797469 260.022394 
L 359.247233 259.408167 
L 356.128552 258.602574 
L 353.419815 257.639031 
L 351.100019 256.544953 
L 349.148677 255.34023 
L 347.545388 254.038056 
L 346.26984 252.644932 
L 345.301811 251.160667 
L 344.621167 249.578374 
L 344.20694 247.885833 
L 344.048406 246.078367 
L 344.142998 244.15484 
L 344.487005 242.111713 
L 345.075503 239.943019 
L 345.902353 237.64036 
L 346.960203 235.19291 
L 348.240486 232.587414 
L 351.442879 226.844322 
L 355.548073 220.325082 
L 360.606413 212.944789 
L 366.665193 204.62042 
L 373.77457 195.274822 
L 382.009926 184.842231 
L 391.433222 173.187 
L 402.115348 160.322274 
L 407.958777 153.49856 
L 414.152762 146.546709 
L 420.638699 139.737361 
L 427.336262 133.320223 
L 434.160087 127.499914 
L 441.019772 122.435963 
L 447.819877 118.242808 
L 454.458899 114.98906 
L 460.756947 112.718232 
L 466.639958 111.743903 
L 472.047288 112.393387 
L 476.834023 114.889982 
L 480.770969 119.352971 
L 483.557401 125.794981 
L 485.094533 133.981632 
L 485.355867 143.440779 
L 484.322767 153.74203 
L 482.029003 164.519503 
L 478.560751 175.471825 
L 474.026469 186.324051 
L 468.556205 196.826956 
L 462.306069 206.794291 
L 455.429133 216.076572 
L 448.075431 224.56108 
L 440.391956 232.17186 
L 432.521842 238.866655 
L 424.601061 244.601805 
L 416.766692 249.375689 
L 409.135901 253.227561 
L 401.802116 256.230501 
L 394.835033 258.491415 
L 388.280611 260.151039 
L 382.170462 261.307059 
L 376.527102 261.990744 
L 371.358398 262.276627 
L 366.665941 262.229833 
L 362.445062 261.905974 
L 358.684829 261.351148 
L 355.367868 260.602579 
L 352.471992 259.694592 
L 349.975857 258.656334 
L 347.858068 257.50982 
L 346.096976 256.270069 
L 344.670677 254.945108 
L 343.557011 253.535967 
L 342.733561 252.036681 
L 342.178072 250.437357 
L 341.880854 248.736421 
L 341.836776 246.93305 
L 342.039666 245.023779 
L 342.482318 243.002508 
L 343.156485 240.860494 
L 344.052881 238.586356 
L 345.161185 236.166072 
L 346.472602 233.584533 
L 349.736263 227.898735 
L 353.892161 221.427088 
L 358.984929 214.069233 
L 365.063694 205.736068 
L 372.196894 196.380342 
L 380.443334 185.934335 
L 389.869264 174.3091 
L 400.545962 161.465376 
L 406.335163 154.670153 
L 412.466108 147.724047 
L 418.944932 140.732531 
L 425.739428 133.831413 
L 432.779046 127.186832 
L 439.954893 120.995257 
L 447.153175 115.520184 
L 454.294471 111.113023 
L 461.22508 107.911588 
L 467.828812 105.873324 
L 473.997584 105.347341 
L 479.50271 106.77592 
L 484.157531 110.077147 
L 487.863302 114.980463 
L 490.472602 121.901969 
L 491.797938 130.705214 
L 491.775146 140.857692 
L 490.412426 151.88026 
L 487.725648 163.551491 
L 483.777325 175.558428 
L 478.667243 187.563274 
L 472.524136 199.192065 
L 465.518026 210.140769 
L 457.844044 220.228396 
L 449.685784 229.328123 
L 441.21491 237.366478 
L 432.59116 244.323341 
L 423.962871 250.225125 
L 415.468082 255.099301 
L 407.224734 259.002101 
L 399.328835 262.012956 
L 391.854689 264.231497 
L 384.854891 265.777546 
L 378.360599 266.788855 
L 372.388221 267.350129 
L 366.938551 267.525989 
L 362.004553 267.385998 
L 357.574359 266.98992 
L 353.631274 266.387719 
L 350.153776 265.61956 
L 347.114005 264.720888 
L 344.483995 263.720132 
L 342.238455 262.635879 
L 340.35226 261.481476 
L 338.800452 260.26503 
L 337.558237 258.989405 
L 336.600989 257.652227 
L 335.903321 256.246484 
L 335.446859 254.769651 
L 335.224784 253.222483 
L 335.230033 251.602484 
L 335.454807 249.903753 
L 335.890571 248.116988 
L 336.528056 246.229483 
L 337.357256 244.225129 
L 339.551372 239.7868 
L 342.489503 234.666259 
L 346.246355 228.717174 
L 350.901244 221.762101 
L 359.782602 208.996344 
L 367.183702 198.661773 
L 375.956399 186.816885 
L 386.198069 173.576978 
L 391.885294 166.5142 
L 404.391902 151.587075 
L 411.19984 143.726775 
L 418.376679 135.665271 
L 425.920533 127.664279 
L 433.744515 120.042721 
L 441.739195 112.971784 
L 449.81455 106.624747 
L 457.89324 101.224679 
L 465.813254 97.196014 
L 473.389823 94.577353 
L 480.491795 93.618947 
L 486.882746 94.954686 
L 492.354601 98.335545 
L 496.732833 104.070865 
L 499.793293 112.279266 
L 501.383207 122.385363 
L 501.416586 134.166122 
L 499.848549 147.469457 
L 496.65583 161.981783 
L 491.843973 177.217969 
L 485.524525 192.554301 
L 477.883617 207.443723 
L 469.132202 221.429911 
L 459.505384 234.145535 
L 449.262406 245.312257 
L 438.679688 254.799226 
L 427.997256 262.731224 
L 417.413607 269.214502 
L 407.096354 274.369059 
L 397.182174 278.333447 
L 387.777012 281.26473 
L 378.963155 283.331157 
L 370.774749 284.691753 
L 363.222923 285.488355 
L 356.309498 285.844518 
L 350.026996 285.865518 
L 344.358632 285.638347 
L 339.278322 285.231718 
L 334.744079 284.701905 
L 327.1427 283.461875 
L 321.243592 282.205046 
L 313.249773 280.184193 
L 309.517701 279.272418 
L 307.723983 278.969141 
L 306.295702 278.89418 
L 305.121712 279.041301 
L 304.097565 279.400321 
L 303.143384 279.971397 
L 302.197394 280.767034 
L 300.661202 282.421907 
L 298.835345 284.735435 
L 294.627502 290.547577 
L 288.032243 300.10194 
L 255.427405 347.690445 
L 244.957594 362.431647 
L 232.475972 379.588915 
L 225.422749 389.022723 
L 217.812319 398.938298 
L 209.642559 409.231112 
L 200.919011 419.76602 
L 191.658224 430.345021 
L 181.930726 440.726482 
L 171.839788 450.706182 
L 161.492962 460.052352 
L 151.001855 468.504403 
L 140.500934 475.742317 
L 130.249369 481.016462 
L 120.46424 483.495761 
L 111.433135 482.597152 
L 103.540735 477.980104 
L 97.268122 469.545453 
L 93.000304 457.354129 
L 90.90704 441.967396 
L 91.126284 424.058788 
L 93.733621 404.185988 
L 98.742263 382.790831 
L 106.09414 360.583143 
L 115.540791 339.209722 
L 126.709047 319.425842 
L 139.210243 301.715601 
L 152.642437 286.353378 
L 166.59806 273.413108 
L 180.72133 262.843444 
L 194.700655 254.493051 
L 208.279758 248.142843 
L 221.260701 243.510168 
L 233.50389 240.24882 
L 244.921763 238.042244 
L 255.474662 236.696223 
L 265.154754 235.999635 
L 273.972021 235.771643 
L 281.954224 235.861956 
L 289.147064 236.150617 
L 301.419597 236.964135 
L 311.261655 237.703459 
L 315.419814 237.933918 
L 319.15321 238.027047 
L 322.527575 237.958747 
L 325.610275 237.712325 
L 328.451291 237.275446 
L 331.090814 236.635443 
L 333.571015 235.781969 
L 335.933724 234.707424 
L 338.220439 233.406951 
L 340.472314 231.878437 
L 340.472314 231.878437 
" clip-path="url(#p3d2d37fca5)" style="fill: none; stroke: #000000; stroke-opacity: 0.3; stroke-width: 7; stroke-linecap: square"/>
   </g>
   <g id="line2d_14">
    <path d="M 438.584629 175.412604 
L 438.992884 169.187107 
L 440.132192 163.358686 
L 441.879092 157.961582 
L 444.118193 153.056982 
L 446.734791 148.709714 
L 449.617039 144.997627 
L 452.652606 142.009064 
L 455.729067 139.831354 
L 458.732313 138.557518 
L 461.549009 138.263744 
L 464.068586 139.008369 
L 466.183766 140.83551 
L 467.789052 143.765671 
L 468.800727 147.759232 
L 469.141167 152.765114 
L 468.741735 158.696613 
L 467.574951 165.408764 
L 465.621306 172.748783 
L 462.881004 180.539553 
L 459.390244 188.590942 
L 455.19698 196.715383 
L 450.369679 204.73032 
L 444.995542 212.48201 
L 439.167879 219.828793 
L 432.989486 226.666296 
L 426.563277 232.920392 
L 419.992992 238.535516 
L 413.373151 243.496666 
L 406.792923 247.801826 
L 400.333006 251.468486 
L 394.058477 254.532104 
L 388.02852 257.033197 
L 382.287499 259.020601 
L 376.86997 260.545165 
L 371.801841 261.6582 
L 367.098072 262.408737 
L 362.768164 262.843739 
L 358.813165 263.004766 
L 355.230463 262.930361 
L 352.012044 262.652838 
L 349.147479 262.200738 
L 346.623671 261.597267 
L 344.426268 260.861328 
L 342.539999 260.008066 
L 340.949614 259.047428 
L 339.639883 257.987589 
L 338.596633 256.831917 
L 337.80681 255.581165 
L 337.257705 254.234655 
L 336.939679 252.787017 
L 336.844095 251.23163 
L 336.963129 249.560698 
L 337.292495 247.762625 
L 337.82954 245.824231 
L 338.572433 243.731534 
L 339.522442 241.467713 
L 342.061596 236.347999 
L 345.497871 230.294362 
L 349.92261 223.101522 
L 355.461 214.537979 
L 362.276299 204.34931 
L 370.564595 192.280848 
L 380.545955 178.104068 
L 392.441247 161.713662 
L 399.168295 152.70584 
L 406.435097 143.218269 
L 414.251163 133.320519 
L 422.604478 123.14802 
L 431.468806 112.873789 
L 440.79862 102.726381 
L 450.505818 93.027337 
L 460.481575 84.14236 
L 470.561396 76.529609 
L 480.545584 70.693729 
L 490.177081 67.175264 
L 499.161419 66.512233 
L 507.162392 69.168665 
L 513.826272 75.496762 
L 518.799522 85.640141 
L 521.758292 99.51398 
L 522.440167 116.745964 
L 520.669903 136.716935 
L 516.384464 158.593159 
L 509.640594 181.426664 
L 500.613866 204.254729 
L 489.57994 226.202016 
L 476.891163 246.559548 
L 462.943016 264.827351 
L 448.143047 280.721639 
L 432.883439 294.154632 
L 417.51899 305.196526 
L 402.354428 314.027278 
L 387.636749 320.893495 
L 373.559081 326.072659 
L 360.254223 329.84358 
L 347.813422 332.47161 
L 336.283258 334.19516 
L 325.679159 335.223135 
L 315.989759 335.733708 
L 307.183811 335.874449 
L 299.216493 335.768983 
L 285.570529 335.194 
L 269.869639 334.395735 
L 265.649191 334.317705 
L 261.831179 334.380914 
L 258.359406 334.601147 
L 255.179994 334.991861 
L 252.240674 335.564028 
L 249.49684 336.323149 
L 246.9059 337.273516 
L 244.427191 338.418361 
L 242.025431 339.758478 
L 239.669559 341.292884 
L 237.330512 343.01958 
L 234.979199 344.937519 
L 230.159372 349.323326 
L 225.060812 354.395472 
L 207.250882 372.641587 
L 200.450627 379.079839 
L 196.92651 382.20013 
L 193.349778 385.182609 
L 189.746179 387.970701 
L 186.144428 390.503275 
L 182.58136 392.712741 
L 179.101922 394.531302 
L 175.751177 395.893199 
L 172.57857 396.72831 
L 169.63926 396.976531 
L 166.988876 396.594864 
L 164.682558 395.542602 
L 162.776711 393.790645 
L 161.321043 391.341515 
L 160.360439 388.211063 
L 159.936158 384.430478 
L 160.07237 380.064496 
L 160.786722 375.187347 
L 162.086531 369.890503 
L 163.958461 364.281545 
L 166.382293 358.469628 
L 169.327095 352.573448 
L 172.741929 346.698925 
L 176.574157 340.948623 
L 180.763009 335.421093 
L 185.240062 330.188414 
L 189.936525 325.310765 
L 194.781923 320.840315 
L 199.708292 316.804992 
L 204.652399 313.218205 
L 209.55379 310.087011 
L 214.357481 307.405162 
L 219.019074 305.155244 
L 223.496747 303.318311 
L 227.755369 301.869303 
L 231.770785 300.780536 
L 235.521324 300.024721 
L 238.98901 299.572554 
L 242.166181 299.399005 
L 245.046927 299.480064 
L 247.627059 299.793083 
L 249.907001 300.318327 
L 251.889933 301.041047 
L 253.579446 301.947645 
L 254.980794 303.027052 
L 256.099845 304.27349 
L 256.94237 305.682369 
L 257.514491 307.251018 
L 257.821143 308.98139 
L 257.86648 310.876971 
L 257.655038 312.941762 
L 257.188857 315.183703 
L 256.468152 317.612991 
L 255.492773 320.240028 
L 254.261936 323.0765 
L 252.772121 326.136123 
L 251.017677 329.433566 
L 246.690691 336.7999 
L 241.217916 345.295712 
L 234.51959 355.012188 
L 226.513548 366.000669 
L 217.132026 378.206865 
L 211.916161 384.704681 
L 206.352079 391.409812 
L 200.453199 398.247961 
L 194.239659 405.129298 
L 187.740814 411.940803 
L 181.006298 418.529889 
L 174.093394 424.729014 
L 167.084497 430.330724 
L 160.080669 435.106496 
L 153.198649 438.808775 
L 146.585165 441.183557 
L 140.397541 441.983545 
L 134.812207 440.98606 
L 130.0111 438.033424 
L 126.181668 433.003574 
L 123.491427 425.916699 
L 122.091554 416.859257 
L 122.103489 406.031762 
L 123.588624 393.753453 
L 126.582128 380.395894 
L 131.038949 366.396985 
L 136.876147 352.199188 
L 143.961935 338.23464 
L 152.118963 324.866157 
L 161.150793 312.403909 
L 170.842761 301.061402 
L 180.979453 290.972593 
L 191.353508 282.19415 
L 201.775829 274.714066 
L 212.078681 268.472922 
L 222.121576 263.373667 
L 231.790863 259.297951 
L 240.999748 256.116748 
L 249.686725 253.699672 
L 257.810614 251.919359 
L 265.354268 250.660468 
L 272.310916 249.814486 
L 278.691488 249.288751 
L 284.514382 248.999023 
L 294.605555 248.860457 
L 309.601156 248.971575 
L 315.145905 248.699834 
L 317.566692 248.408726 
L 319.802172 247.994106 
L 321.88613 247.444081 
L 323.850816 246.74751 
L 325.727793 245.893964 
L 327.545642 244.873021 
L 329.331771 243.673982 
L 331.113046 242.285498 
L 332.915036 240.696686 
L 334.761921 238.89301 
L 338.686797 234.580509 
L 343.077478 229.213702 
L 348.127714 222.621837 
L 357.383815 210.003194 
L 384.765947 172.215359 
L 397.38741 155.364456 
L 404.467042 146.183708 
L 412.069709 136.59798 
L 420.191491 126.714688 
L 428.818863 116.678071 
L 437.898233 106.728307 
L 447.364556 97.131439 
L 457.113674 88.238597 
L 467.000185 80.469868 
L 476.839867 74.299591 
L 486.39654 70.242296 
L 495.396564 68.820086 
L 503.523257 70.493917 
L 510.437982 75.653052 
L 515.800862 84.468617 
L 519.282017 96.957089 
L 520.620147 112.806501 
L 519.606081 131.51994 
L 516.159992 152.333116 
L 510.290024 174.371017 
L 502.139215 196.707078 
L 491.938827 218.455705 
L 480.012719 238.889984 
L 466.729628 257.45145 
L 452.483005 273.796792 
L 437.659381 287.777578 
L 422.616153 299.409328 
L 407.666548 308.828866 
L 393.069789 316.25213 
L 379.033899 321.936773 
L 365.705442 326.151639 
L 353.191967 329.160305 
L 341.550316 331.200694 
L 330.80982 332.489631 
L 320.966063 333.207996 
L 311.997714 333.51446 
L 303.864165 333.535306 
L 289.894774 333.128377 
L 273.765682 332.444783 
L 269.421208 332.385683 
L 265.490242 332.460231 
L 261.914775 332.689597 
L 258.638716 333.09022 
L 255.612959 333.671707 
L 252.78959 334.442945 
L 250.122652 335.410933 
L 247.573657 336.57871 
L 245.106055 337.948417 
L 242.685429 339.521303 
L 240.28038 341.29762 
L 237.865348 343.275014 
L 232.908126 347.820977 
L 227.646815 353.121768 
L 205.547654 376.094892 
L 201.892999 379.614718 
L 198.142988 383.071777 
L 194.317228 386.41191 
L 190.439474 389.576247 
L 186.540363 392.495804 
L 182.661422 395.094726 
L 178.845684 397.297642 
L 175.140899 399.022768 
L 171.604349 400.194745 
L 168.295495 400.742496 
L 165.275602 400.600027 
L 162.610589 399.711135 
L 160.362074 398.052138 
L 158.589185 395.606646 
L 157.353097 392.371955 
L 156.694728 388.396879 
L 156.648923 383.740963 
L 157.24574 378.478895 
L 158.492864 372.71825 
L 160.378872 366.581553 
L 162.887211 360.19297 
L 165.983881 353.688626 
L 169.614795 347.194327 
L 173.72212 340.830809 
L 178.236723 334.711416 
L 183.081803 328.918526 
L 188.180201 323.526156 
L 193.451127 318.59256 
L 198.819377 314.144004 
L 204.212317 310.199567 
L 209.560022 306.764916 
L 214.805676 303.825507 
L 219.896456 301.363063 
L 224.784971 299.352384 
L 229.437897 297.761307 
L 233.82617 296.55722 
L 237.924811 295.70523 
L 241.721018 295.172865 
L 245.20538 294.929033 
L 248.371254 294.944233 
L 251.217705 295.19191 
L 253.747818 295.650872 
L 255.965431 296.301289 
L 257.876991 297.126622 
L 259.490307 298.116209 
L 260.813249 299.260634 
L 261.854448 300.553126 
L 262.621687 301.992276 
L 263.12233 303.577906 
L 263.363535 305.31164 
L 263.350197 307.199562 
L 263.086094 309.249294 
L 262.5751 311.468984 
L 261.817921 313.870476 
L 260.812949 316.467917 
L 259.558085 319.275723 
L 258.050467 322.309527 
L 254.249141 329.127616 
L 249.34013 337.072259 
L 243.231984 346.29569 
L 235.814384 356.92595 
L 226.969811 369.042674 
L 216.60099 382.595238 
L 210.826218 389.845639 
L 204.660199 397.338857 
L 198.110563 405.000437 
L 191.203911 412.709426 
L 183.975314 420.326302 
L 176.47589 427.673881 
L 168.785899 434.524593 
L 160.995992 440.631232 
L 153.233389 445.701193 
L 145.648787 449.426572 
L 138.413554 451.486536 
L 131.730274 451.590416 
L 125.81161 449.476245 
L 120.881682 444.966528 
L 117.155279 437.994166 
L 114.838467 428.589175 
L 114.084071 416.973647 
L 115.018669 403.451853 
L 117.6878 388.480689 
L 122.080284 372.578024 
L 128.117535 356.301259 
L 135.651472 340.186375 
L 144.489559 324.723786 
L 154.395937 310.294167 
L 165.117969 297.187989 
L 176.396417 285.575816 
L 187.982038 275.527375 
L 199.645803 267.028498 
L 211.186662 259.999029 
L 222.43704 254.313499 
L 233.262166 249.821198 
L 243.560669 246.359944 
L 253.261201 243.767109 
L 262.3219 241.889838 
L 270.718741 240.584013 
L 278.452993 239.725691 
L 285.53614 239.201218 
L 291.995216 238.917268 
L 303.182582 238.75576 
L 316.297597 238.670454 
L 319.88104 238.518587 
L 323.149215 238.256871 
L 326.147337 237.863988 
L 328.920128 237.320786 
L 331.508333 236.6127 
L 333.951345 235.72617 
L 336.287558 234.648621 
L 338.551883 233.368606 
L 340.777217 231.874859 
L 342.995566 230.155793 
L 345.238061 228.20046 
L 347.532508 225.995767 
L 349.906362 223.528363 
L 355.000383 217.750543 
L 360.727116 210.747452 
L 370.93585 197.67582 
L 388.545367 174.980842 
L 399.41116 161.416905 
L 405.399573 154.177204 
L 411.756116 146.718333 
L 418.470919 139.127398 
L 425.515257 131.535106 
L 432.851293 124.092135 
L 440.418288 116.995375 
L 448.134685 110.475793 
L 455.899217 104.796005 
L 463.575872 100.252714 
L 471.01303 97.157197 
L 478.024844 95.813813 
L 484.411214 96.504156 
L 489.954916 99.463838 
L 494.439933 104.815291 
L 497.650315 112.618933 
L 499.408785 122.743871 
L 499.566919 134.966488 
L 498.029273 148.919639 
L 494.772549 164.127958 
L 494.772549 164.127958 
" clip-path="url(#p3d2d37fca5)" style="fill: none; stroke-dasharray: 22.4,5.6,3.5,5.6; stroke-dashoffset: 0; stroke: #0000ff; stroke-opacity: 0.8; stroke-width: 3.5"/>
   </g>
   <g id="patch_3">
    <path d="M 48.982813 530.438125 
L 48.982813 22.318125 
" style="fill: none; stroke: #000000; stroke-width: 0.8; stroke-linejoin: miter; stroke-linecap: square"/>
   </g>
   <g id="patch_4">
    <path d="M 561.212812 530.438125 
L 561.212812 22.318125 
" style="fill: none; stroke: #000000; stroke-width: 0.8; stroke-linejoin: miter; stroke-linecap: square"/>
   </g>
   <g id="patch_5">
    <path d="M 48.982813 530.438125 
L 561.212812 530.438125 
" style="fill: none; stroke: #000000; stroke-width: 0.8; stroke-linejoin: miter; stroke-linecap: square"/>
   </g>
   <g id="patch_6">
    <path d="M 48.982813 22.318125 
L 561.212812 22.318125 
" style="fill: none; stroke: #000000; stroke-width: 0.8; stroke-linejoin: miter; stroke-linecap: square"/>
   </g>
   <g id="line2d_15">
    <path d="M 438.584629 175.412604 
L 439.019079 168.801668 
L 440.223019 162.716562 
L 442.052881 157.175453 
L 444.379998 152.219582 
L 447.077858 147.894066 
L 450.02651 144.255878 
L 453.110776 141.374893 
L 456.216161 139.322066 
L 459.229752 138.169938 
L 462.042074 137.97513 
L 464.54601 138.779071 
L 466.644225 140.587132 
L 468.245973 143.384504 
L 469.27759 147.120525 
L 469.675199 151.726929 
L 469.393793 157.105549 
L 468.412408 163.127348 
L 466.719374 169.651937 
L 464.328988 176.514051 
L 461.280205 183.545017 
L 457.620718 190.578189 
L 453.419527 197.456571 
L 448.758398 204.053367 
L 443.723023 210.253058 
L 438.406512 215.971312 
L 432.90004 221.15426 
L 427.294006 225.758431 
L 421.673355 229.767619 
L 416.113272 233.186032 
L 410.685375 236.024796 
L 405.448832 238.312507 
L 400.451243 240.08709 
L 395.735646 241.389586 
L 391.331464 242.266413 
L 387.258953 242.762429 
L 383.53446 242.922034 
L 380.164424 242.783988 
L 377.150015 242.380713 
L 374.490294 241.741846 
L 372.179832 240.890728 
L 370.210851 239.844284 
L 368.575121 238.617885 
L 367.262946 237.222914 
L 366.264562 235.66652 
L 365.570543 233.954474 
L 365.170547 232.092268 
L 365.056401 230.080003 
L 365.220244 227.917089 
L 365.654792 225.602327 
L 366.352844 223.133018 
L 367.310144 220.50399 
L 368.523119 217.709614 
L 369.988547 214.745206 
L 371.704003 211.602318 
L 373.669137 208.275456 
L 378.349541 201.057316 
L 384.032002 193.073508 
L 390.720683 184.352513 
L 398.395539 175.017835 
L 402.589655 170.181869 
L 407.004832 165.290113 
L 411.624553 160.392573 
L 416.428792 155.548507 
L 421.384588 150.837496 
L 426.45571 146.343161 
L 431.601253 142.157689 
L 436.763659 138.390406 
L 441.880621 135.152243 
L 446.884793 132.566804 
L 451.693101 130.755052 
L 456.216835 129.829429 
L 460.366213 129.891171 
L 464.040558 131.026173 
L 467.151049 133.24909 
L 469.611165 136.566757 
L 471.340095 140.953733 
L 472.280869 146.326975 
L 472.387704 152.582891 
L 471.632524 159.581115 
L 470.020189 167.141444 
L 467.567921 175.07161 
L 464.323558 183.165029 
L 460.356386 191.225539 
L 455.748748 199.063213 
L 450.602497 206.531474 
L 445.023503 213.504514 
L 439.123696 219.886023 
L 433.011878 225.62249 
L 426.794208 230.675026 
L 420.569264 235.034506 
L 414.423662 238.714375 
L 408.438698 241.737955 
L 402.677138 244.148251 
L 397.193598 245.993418 
L 392.032202 247.328114 
L 387.221033 248.208927 
L 382.782547 248.690969 
L 378.729386 248.827401 
L 375.06403 248.661244 
L 371.787021 248.23322 
L 368.892254 247.575128 
L 366.370896 246.712455 
L 364.212205 245.66679 
L 362.403802 244.452395 
L 360.933177 243.081883 
L 359.787226 241.56471 
L 358.953635 239.905699 
L 358.420687 238.108172 
L 358.176258 236.174659 
L 358.211309 234.102211 
L 358.517283 231.887108 
L 359.086619 229.524515 
L 359.912634 227.00772 
L 360.9923 224.327532 
L 362.322873 221.474762 
L 363.902707 218.439757 
L 365.731249 215.210818 
L 370.145538 208.135544 
L 375.588633 200.182392 
L 382.095363 191.306893 
L 389.6911 181.547023 
L 398.384422 171.014948 
L 403.130728 165.539138 
L 408.131755 159.98103 
L 413.366436 154.410532 
L 418.809544 148.904896 
L 424.430675 143.554415 
L 430.1813 138.476155 
L 436.007331 133.793216 
L 441.84607 129.640313 
L 447.614397 126.16673 
L 453.224419 123.523967 
L 458.575288 121.86634 
L 463.556058 121.337094 
L 468.049947 122.051835 
L 471.939226 124.08404 
L 475.112111 127.455453 
L 477.463875 132.151734 
L 478.910265 138.097396 
L 479.386508 145.171073 
L 478.845195 153.206799 
L 477.282304 161.978123 
L 474.712204 171.242309 
L 471.185437 180.735107 
L 466.783171 190.204406 
L 461.603987 199.406608 
L 455.771751 208.155061 
L 449.415868 216.290478 
L 442.673469 223.697809 
L 435.677301 230.314261 
L 428.558178 236.096392 
L 421.432492 241.046667 
L 414.405619 245.187786 
L 407.572017 248.560644 
L 401.003762 251.225863 
L 394.764077 253.248789 
L 388.89878 254.701409 
L 383.439399 255.655772 
L 378.407339 256.181589 
L 373.812007 256.342455 
L 369.654616 256.194236 
L 365.929899 255.784574 
L 362.627253 255.151762 
L 359.733022 254.327744 
L 357.230896 253.335613 
L 355.103778 252.19535 
L 353.333876 250.920652 
L 351.903757 249.521661 
L 350.795899 248.006561 
L 349.994754 246.377799 
L 349.485503 244.636346 
L 349.254076 242.781098 
L 349.289633 240.806348 
L 349.582656 238.705039 
L 350.123877 236.469088 
L 350.908485 234.08704 
L 351.933365 231.546366 
L 353.196216 228.834263 
L 354.69616 225.936725 
L 358.420461 219.526806 
L 363.140754 212.200275 
L 368.913613 203.847747 
L 375.808303 194.38996 
L 383.895436 183.794196 
L 393.230254 172.123245 
L 398.370891 165.944879 
L 403.824311 159.586991 
L 409.577477 153.114596 
L 415.6113 146.606175 
L 421.901277 140.155861 
L 428.402662 133.898793 
L 435.062989 127.982231 
L 441.815044 122.579322 
L 448.56763 117.882288 
L 455.220995 114.087421 
L 461.655983 111.400648 
L 467.737052 110.018104 
L 473.319887 110.134714 
L 478.251373 111.874246 
L 482.382374 115.305511 
L 485.567929 120.450952 
L 487.687571 127.235515 
L 488.635981 135.53103 
L 488.350616 145.104442 
L 486.801208 155.670158 
L 484.003521 166.895257 
L 480.015242 178.430475 
L 474.932177 189.930218 
L 468.88433 201.080104 
L 462.026183 211.617816 
L 454.526633 221.341853 
L 446.560329 230.114916 
L 438.299709 237.85215 
L 429.906452 244.526594 
L 421.530061 250.150256 
L 413.298201 254.776605 
L 405.32174 258.479924 
L 397.686206 261.351758 
L 390.462122 263.489564 
L 383.69429 264.991282 
L 377.416213 265.952577 
L 371.643916 266.462239 
L 366.381497 266.599953 
L 361.623418 266.434993 
L 357.356347 266.024927 
L 353.561584 265.416515 
L 350.217012 264.647518 
L 347.298225 263.746765 
L 344.779862 262.737812 
L 342.636523 261.63723 
L 340.843219 260.458216 
L 339.375988 259.209352 
L 338.212504 257.895183 
L 337.331619 256.517682 
L 336.71516 255.074319 
L 336.346119 253.560988 
L 336.210204 251.970653 
L 336.29633 250.293642 
L 336.594568 248.519506 
L 337.097518 246.636105 
L 337.801389 244.629549 
L 338.703516 242.485418 
L 341.100785 237.723653 
L 344.313309 232.217735 
L 348.389446 225.825211 
L 353.409337 218.392222 
L 359.473138 209.760311 
L 366.702624 199.782757 
L 375.230245 188.339377 
L 385.181127 175.402429 
L 396.652128 161.074108 
L 402.970233 153.477522 
L 409.671749 145.674143 
L 416.737044 137.76546 
L 424.140675 129.868077 
L 431.840689 122.144254 
L 439.766691 114.811931 
L 447.837566 108.107722 
L 455.939354 102.310785 
L 463.934962 97.707956 
L 471.663532 94.589317 
L 478.941406 93.243489 
L 485.568064 93.932215 
L 491.332294 96.844372 
L 496.025671 102.072546 
L 499.452314 109.620544 
L 501.444049 119.3584 
L 501.875905 131.008394 
L 500.671868 144.179678 
L 497.831255 158.402208 
L 493.398756 173.170862 
L 487.498107 187.978985 
L 480.291008 202.3474 
L 471.9865 215.877204 
L 462.816363 228.275704 
L 453.021609 239.339022 
L 442.840222 248.960212 
L 432.495212 257.114697 
L 422.188612 263.845955 
L 412.090904 269.257258 
L 402.343138 273.483869 
L 393.053167 276.677953 
L 384.299319 278.992298 
L 376.133327 280.571919 
L 368.584157 281.550087 
L 361.662093 282.047082 
L 355.361645 282.168067 
L 349.665589 282.003306 
L 344.54789 281.627861 
L 339.976151 281.102205 
L 335.914323 280.475233 
L 332.324161 279.784807 
L 326.403632 278.326892 
L 321.911985 276.892329 
L 318.572138 275.566047 
L 316.144092 274.377201 
L 314.429152 273.319629 
L 313.268838 272.368151 
L 312.540847 271.488906 
L 312.153617 270.644662 
L 312.041754 269.796825 
L 312.16112 268.905835 
L 312.485399 267.930506 
L 313.334816 266.212238 
L 315.187706 263.173367 
L 320.010714 255.89408 
L 352.605053 207.551798 
L 367.547974 185.775066 
L 380.115506 167.862021 
L 387.295124 157.840693 
L 395.115535 147.129251 
L 403.601254 135.776376 
L 412.764662 123.875838 
L 422.603551 111.577985 
L 433.086951 99.122787 
L 444.158389 86.8257 
L 455.709868 75.111516 
L 467.593782 64.474933 
L 479.601401 55.519854 
L 491.461747 48.932181 
L 502.841494 45.414489 
L 513.349222 45.651217 
L 522.549802 50.205536 
L 529.99183 59.415927 
L 535.242741 73.311998 
L 537.929631 91.543152 
L 537.787739 113.403243 
L 534.687936 137.857393 
L 528.656298 163.662428 
L 519.886062 189.554485 
L 508.70314 214.366989 
L 495.539163 237.166154 
L 480.884808 257.31234 
L 465.245685 274.47604 
L 449.102034 288.614845 
L 432.879387 299.885203 
L 416.93616 308.557679 
L 401.554579 314.973095 
L 386.94566 319.506969 
L 373.252062 322.534548 
L 360.555077 324.395681 
L 348.890782 325.383153 
L 338.25481 325.737197 
L 328.617867 325.661859 
L 319.927288 325.317899 
L 305.119097 324.33004 
L 293.230164 323.502449 
L 288.183541 323.286584 
L 283.634485 323.248132 
L 279.511086 323.411289 
L 275.745377 323.793788 
L 272.275623 324.406958 
L 269.04174 325.260185 
L 265.991282 326.358332 
L 263.076025 327.704358 
L 260.250043 329.300483 
L 257.472744 331.147636 
L 254.708623 333.246039 
L 251.924137 335.595394 
L 249.086807 338.196582 
L 243.155679 344.146196 
L 236.730241 351.072616 
L 213.30594 376.853634 
L 208.738618 381.622604 
L 203.993264 386.415087 
L 199.091087 391.161265 
L 194.058181 395.785268 
L 188.924541 400.204964 
L 183.735026 404.322868 
L 178.540526 408.03683 
L 173.396698 411.239449 
L 168.374237 413.814694 
L 163.549258 415.645867 
L 159.004335 416.616239 
L 154.830023 416.628005 
L 151.118943 415.601329 
L 147.962005 413.497307 
L 145.445995 410.305151 
L 143.644931 406.05897 
L 142.625737 400.816521 
L 142.431731 394.68821 
L 143.085599 387.818699 
L 144.598177 380.378185 
L 146.941205 372.564103 
L 150.071013 364.574096 
L 153.926342 356.6087 
L 158.418927 348.839358 
L 163.454544 341.423426 
L 168.926865 334.496958 
L 174.726009 328.143961 
L 180.743199 322.432471 
L 186.871414 317.396519 
L 193.016276 313.036095 
L 199.088682 309.341809 
L 205.01147 306.285282 
L 210.722713 303.826616 
L 216.165629 301.922747 
L 221.299828 300.523622 
L 226.094335 299.578012 
L 230.525204 299.035013 
L 234.58012 298.846758 
L 238.251625 298.968427 
L 241.539897 299.362672 
L 244.44845 299.996746 
L 246.984711 300.84438 
L 249.158302 301.885029 
L 250.980252 303.100809 
L 252.462536 304.480775 
L 253.617057 306.015547 
L 254.456128 307.697624 
L 254.990872 309.524598 
L 255.231719 311.495769 
L 255.188778 313.611718 
L 254.870057 315.876736 
L 254.282076 318.296982 
L 253.430425 320.879524 
L 252.320037 323.633125 
L 250.951665 326.567859 
L 249.326061 329.693804 
L 247.443357 333.020013 
L 242.898307 340.317099 
L 237.291249 348.51041 
L 230.591575 357.628361 
L 222.779746 367.612517 
L 218.457168 372.88823 
L 218.457168 372.88823 
" clip-path="url(#p3d2d37fca5)" style="fill: none; stroke-dasharray: 3.5,5.775; stroke-dashoffset: 0; stroke: #008000; stroke-opacity: 0.8; stroke-width: 3.5"/>
   </g>
   <g id="text_15">
    <!-- Phase Portrait (x0 vs x1) -->
    <g transform="translate(231.406562 16.318125) scale(0.12 -0.12)">
     <defs>
      <path id="DejaVuSans-50" d="M 1259 4147 
L 1259 2394 
L 2053 2394 
Q 2494 2394 2734 2622 
Q 2975 2850 2975 3272 
Q 2975 3691 2734 3919 
Q 2494 4147 2053 4147 
L 1259 4147 
z
M 628 4666 
L 2053 4666 
Q 2838 4666 3239 4311 
Q 3641 3956 3641 3272 
Q 3641 2581 3239 2228 
Q 2838 1875 2053 1875 
L 1259 1875 
L 1259 0 
L 628 0 
L 628 4666 
z
" transform="scale(0.015625)"/>
      <path id="DejaVuSans-68" d="M 3513 2113 
L 3513 0 
L 2938 0 
L 2938 2094 
Q 2938 2591 2744 2837 
Q 2550 3084 2163 3084 
Q 1697 3084 1428 2787 
Q 1159 2491 1159 1978 
L 1159 0 
L 581 0 
L 581 4863 
L 1159 4863 
L 1159 2956 
Q 1366 3272 1645 3428 
Q 1925 3584 2291 3584 
Q 2894 3584 3203 3211 
Q 3513 2838 3513 2113 
z
" transform="scale(0.015625)"/>
      <path id="DejaVuSans-61" d="M 2194 1759 
Q 1497 1759 1228 1600 
Q 959 1441 959 1056 
Q 959 750 1161 570 
Q 1363 391 1709 391 
Q 2188 391 2477 730 
Q 2766 1069 2766 1631 
L 2766 1759 
L 2194 1759 
z
M 3341 1997 
L 3341 0 
L 2766 0 
L 2766 531 
Q 2569 213 2275 61 
Q 1981 -91 1556 -91 
Q 1019 -91 701 211 
Q 384 513 384 1019 
Q 384 1609 779 1909 
Q 1175 2209 1959 2209 
L 2766 2209 
L 2766 2266 
Q 2766 2663 2505 2880 
Q 2244 3097 1772 3097 
Q 1472 3097 1187 3025 
Q 903 2953 641 2809 
L 641 3341 
Q 956 3463 1253 3523 
Q 1550 3584 1831 3584 
Q 2591 3584 2966 3190 
Q 3341 2797 3341 1997 
z
" transform="scale(0.015625)"/>
      <path id="DejaVuSans-73" d="M 2834 3397 
L 2834 2853 
Q 2591 2978 2328 3040 
Q 2066 3103 1784 3103 
Q 1356 3103 1142 2972 
Q 928 2841 928 2578 
Q 928 2378 1081 2264 
Q 1234 2150 1697 2047 
L 1894 2003 
Q 2506 1872 2764 1633 
Q 3022 1394 3022 966 
Q 3022 478 2636 193 
Q 2250 -91 1575 -91 
Q 1294 -91 989 -36 
Q 684 19 347 128 
L 347 722 
Q 666 556 975 473 
Q 1284 391 1588 391 
Q 1994 391 2212 530 
Q 2431 669 2431 922 
Q 2431 1156 2273 1281 
Q 2116 1406 1581 1522 
L 1381 1569 
Q 847 1681 609 1914 
Q 372 2147 372 2553 
Q 372 3047 722 3315 
Q 1072 3584 1716 3584 
Q 2034 3584 2315 3537 
Q 2597 3491 2834 3397 
z
" transform="scale(0.015625)"/>
      <path id="DejaVuSans-65" d="M 3597 1894 
L 3597 1613 
L 953 1613 
Q 991 1019 1311 708 
Q 1631 397 2203 397 
Q 2534 397 2845 478 
Q 3156 559 3463 722 
L 3463 178 
Q 3153 47 2828 -22 
Q 2503 -91 2169 -91 
Q 1331 -91 842 396 
Q 353 884 353 1716 
Q 353 2575 817 3079 
Q 1281 3584 2069 3584 
Q 2775 3584 3186 3129 
Q 3597 2675 3597 1894 
z
M 3022 2063 
Q 3016 2534 2758 2815 
Q 2500 3097 2075 3097 
Q 1594 3097 1305 2825 
Q 1016 2553 972 2059 
L 3022 2063 
z
" transform="scale(0.015625)"/>
      <path id="DejaVuSans-20" transform="scale(0.015625)"/>
      <path id="DejaVuSans-6f" d="M 1959 3097 
Q 1497 3097 1228 2736 
Q 959 2375 959 1747 
Q 959 1119 1226 758 
Q 1494 397 1959 397 
Q 2419 397 2687 759 
Q 2956 1122 2956 1747 
Q 2956 2369 2687 2733 
Q 2419 3097 1959 3097 
z
M 1959 3584 
Q 2709 3584 3137 3096 
Q 3566 2609 3566 1747 
Q 3566 888 3137 398 
Q 2709 -91 1959 -91 
Q 1206 -91 779 398 
Q 353 888 353 1747 
Q 353 2609 779 3096 
Q 1206 3584 1959 3584 
z
" transform="scale(0.015625)"/>
      <path id="DejaVuSans-72" d="M 2631 2963 
Q 2534 3019 2420 3045 
Q 2306 3072 2169 3072 
Q 1681 3072 1420 2755 
Q 1159 2438 1159 1844 
L 1159 0 
L 581 0 
L 581 3500 
L 1159 3500 
L 1159 2956 
Q 1341 3275 1631 3429 
Q 1922 3584 2338 3584 
Q 2397 3584 2469 3576 
Q 2541 3569 2628 3553 
L 2631 2963 
z
" transform="scale(0.015625)"/>
      <path id="DejaVuSans-74" d="M 1172 4494 
L 1172 3500 
L 2356 3500 
L 2356 3053 
L 1172 3053 
L 1172 1153 
Q 1172 725 1289 603 
Q 1406 481 1766 481 
L 2356 481 
L 2356 0 
L 1766 0 
Q 1100 0 847 248 
Q 594 497 594 1153 
L 594 3053 
L 172 3053 
L 172 3500 
L 594 3500 
L 594 4494 
L 1172 4494 
z
" transform="scale(0.015625)"/>
      <path id="DejaVuSans-69" d="M 603 3500 
L 1178 3500 
L 1178 0 
L 603 0 
L 603 3500 
z
M 603 4863 
L 1178 4863 
L 1178 4134 
L 603 4134 
L 603 4863 
z
" transform="scale(0.015625)"/>
      <path id="DejaVuSans-28" d="M 1984 4856 
Q 1566 4138 1362 3434 
Q 1159 2731 1159 2009 
Q 1159 1288 1364 580 
Q 1569 -128 1984 -844 
L 1484 -844 
Q 1016 -109 783 600 
Q 550 1309 550 2009 
Q 550 2706 781 3412 
Q 1013 4119 1484 4856 
L 1984 4856 
z
" transform="scale(0.015625)"/>
      <path id="DejaVuSans-76" d="M 191 3500 
L 800 3500 
L 1894 563 
L 2988 3500 
L 3597 3500 
L 2284 0 
L 1503 0 
L 191 3500 
z
" transform="scale(0.015625)"/>
      <path id="DejaVuSans-29" d="M 513 4856 
L 1013 4856 
Q 1481 4119 1714 3412 
Q 1947 2706 1947 2009 
Q 1947 1309 1714 600 
Q 1481 -109 1013 -844 
L 513 -844 
Q 928 -128 1133 580 
Q 1338 1288 1338 2009 
Q 1338 2731 1133 3434 
Q 928 4138 513 4856 
z
" transform="scale(0.015625)"/>
     </defs>
     <use xlink:href="#DejaVuSans-50"/>
     <use xlink:href="#DejaVuSans-68" transform="translate(60.302734 0)"/>
     <use xlink:href="#DejaVuSans-61" transform="translate(123.681641 0)"/>
     <use xlink:href="#DejaVuSans-73" transform="translate(184.960938 0)"/>
     <use xlink:href="#DejaVuSans-65" transform="translate(237.060547 0)"/>
     <use xlink:href="#DejaVuSans-20" transform="translate(298.583984 0)"/>
     <use xlink:href="#DejaVuSans-50" transform="translate(330.371094 0)"/>
     <use xlink:href="#DejaVuSans-6f" transform="translate(387.048828 0)"/>
     <use xlink:href="#DejaVuSans-72" transform="translate(448.230469 0)"/>
     <use xlink:href="#DejaVuSans-74" transform="translate(489.34375 0)"/>
     <use xlink:href="#DejaVuSans-72" transform="translate(528.552734 0)"/>
     <use xlink:href="#DejaVuSans-61" transform="translate(569.666016 0)"/>
     <use xlink:href="#DejaVuSans-69" transform="translate(630.945312 0)"/>
     <use xlink:href="#DejaVuSans-74" transform="translate(658.728516 0)"/>
     <use xlink:href="#DejaVuSans-20" transform="translate(697.9375 0)"/>
     <use xlink:href="#DejaVuSans-28" transform="translate(729.724609 0)"/>
     <use xlink:href="#DejaVuSans-78" transform="translate(768.738281 0)"/>
     <use xlink:href="#DejaVuSans-30" transform="translate(827.917969 0)"/>
     <use xlink:href="#DejaVuSans-20" transform="translate(891.541016 0)"/>
     <use xlink:href="#DejaVuSans-76" transform="translate(923.328125 0)"/>
     <use xlink:href="#DejaVuSans-73" transform="translate(982.507812 0)"/>
     <use xlink:href="#DejaVuSans-20" transform="translate(1034.607422 0)"/>
     <use xlink:href="#DejaVuSans-78" transform="translate(1066.394531 0)"/>
     <use xlink:href="#DejaVuSans-31" transform="translate(1125.574219 0)"/>
     <use xlink:href="#DejaVuSans-29" transform="translate(1189.197266 0)"/>
    </g>
   </g>
   <g id="line2d_16">
    <path d="M 438.584629 175.412604 
L 439.019353 168.795281 
L 440.225142 162.690148 
L 442.060346 157.116345 
L 444.39689 152.119212 
L 447.108833 147.748375 
L 450.075943 144.067745 
L 453.182106 141.148217 
L 456.313507 139.055824 
L 459.352485 137.873179 
L 462.191879 137.645314 
L 464.727719 138.406464 
L 466.858588 140.182605 
L 468.492237 142.965173 
L 469.554161 146.70419 
L 469.976843 151.3331 
L 469.716383 156.743185 
L 468.747816 162.802283 
L 467.060535 169.359739 
L 464.675518 176.248011 
L 461.625508 183.299152 
L 457.962416 190.342824 
L 453.759382 197.233232 
L 449.093535 203.833636 
L 444.054694 210.027578 
L 438.735525 215.740157 
L 433.227995 220.906881 
L 427.624691 225.488914 
L 422.007063 229.480501 
L 416.453054 232.882277 
L 411.033358 235.712027 
L 405.802316 238.002505 
L 400.810249 239.788594 
L 396.098061 241.111329 
L 391.692394 242.012642 
L 387.615921 242.533155 
L 383.886284 242.715348 
L 380.508068 242.592702 
L 377.484369 242.197426 
L 374.816033 241.559531 
L 372.498053 240.703128 
L 370.523312 239.647045 
L 368.883773 238.408512 
L 367.569805 236.99987 
L 366.571619 235.42853 
L 365.879607 233.700993 
L 365.483746 231.821256 
L 365.375775 229.788784 
L 365.548019 227.60222 
L 365.993049 225.259163 
L 366.70467 222.755366 
L 367.679433 220.085043 
L 368.913889 217.242405 
L 370.405156 214.222719 
L 372.151606 211.016959 
L 374.153319 207.621536 
L 376.410575 204.03394 
L 381.692866 196.273617 
L 388.001347 187.748369 
L 395.326842 178.541688 
L 399.36023 173.735141 
L 403.629577 168.835415 
L 408.122319 163.885341 
L 412.818292 158.942783 
L 417.694794 154.070793 
L 422.720447 149.348368 
L 427.854166 144.868202 
L 433.051287 140.728942 
L 438.253379 137.043796 
L 443.39308 133.92947 
L 448.398578 131.511262 
L 453.184355 129.906135 
L 457.659393 129.218245 
L 461.732031 129.542953 
L 465.303302 130.958059 
L 468.282842 133.483719 
L 470.584683 137.123962 
L 472.126631 141.846284 
L 472.857502 147.545797 
L 472.735305 154.103062 
L 471.733847 161.359748 
L 469.870295 169.121366 
L 467.172267 177.191097 
L 463.687913 185.356826 
L 459.499106 193.431091 
L 454.694246 201.237207 
L 449.375658 208.61842 
L 443.655027 215.465684 
L 437.644528 221.689786 
L 431.455865 227.237583 
L 425.192391 232.089504 
L 418.953345 236.241806 
L 412.821513 239.719899 
L 406.871785 242.558029 
L 401.166601 244.802069 
L 395.752539 246.503941 
L 390.671204 247.717975 
L 385.947792 248.497168 
L 381.599122 248.891492 
L 377.637704 248.948964 
L 374.066266 248.711533 
L 370.882113 248.214635 
L 368.080311 247.491289 
L 365.651208 246.566829 
L 363.583491 245.461347 
L 361.864845 244.192613 
L 360.482016 242.771658 
L 359.42213 241.20594 
L 358.671961 239.501533 
L 358.219868 237.659258 
L 358.055544 235.677278 
L 358.169336 233.552888 
L 358.552509 231.281288 
L 359.19963 228.854786 
L 360.106014 226.265423 
L 361.267279 223.504244 
L 362.68157 220.561313 
L 364.349798 217.426771 
L 366.272874 214.090761 
L 370.890428 206.777774 
L 376.562286 198.558689 
L 383.319026 189.420191 
L 391.186617 179.396719 
L 395.535909 174.099428 
L 400.159134 168.645401 
L 405.046681 163.079622 
L 410.18174 157.462432 
L 415.543864 151.860628 
L 421.108967 146.353239 
L 426.832578 141.051483 
L 432.666951 136.070517 
L 438.556537 131.539564 
L 444.425128 127.606908 
L 450.188751 124.423354 
L 455.754093 122.147973 
L 461.011991 120.923057 
L 465.850402 120.878096 
L 470.149003 122.130342 
L 473.792075 124.727139 
L 476.668922 128.6904 
L 478.673255 133.994745 
L 479.732059 140.522873 
L 479.784564 148.133436 
L 478.795441 156.626515 
L 476.77675 165.756272 
L 473.755122 175.269123 
L 469.795027 184.89818 
L 464.990363 194.398565 
L 459.449805 203.53633 
L 453.304138 212.13562 
L 446.688518 220.050926 
L 439.743555 227.179064 
L 432.602432 233.475055 
L 425.39459 238.914205 
L 418.233373 243.515198 
L 411.218136 247.31719 
L 404.437201 250.373768 
L 397.955081 252.753076 
L 391.827196 254.525312 
L 386.093739 255.763321 
L 380.777878 256.535009 
L 375.897449 256.9058 
L 371.458031 256.934384 
L 367.456742 256.670354 
L 363.887428 256.159527 
L 360.737435 255.437916 
L 357.991868 254.536421 
L 355.633436 253.478876 
L 353.644017 252.283066 
L 352.004972 250.963509 
L 350.69838 249.527831 
L 349.707084 247.981112 
L 349.014392 246.325696 
L 348.606736 244.558683 
L 348.471283 242.676276 
L 348.596326 240.672842 
L 348.973989 238.539272 
L 349.597744 236.265531 
L 350.461362 233.840989 
L 351.562435 231.252936 
L 352.901224 228.487426 
L 354.478313 225.530604 
L 358.357078 218.983607 
L 363.241311 211.494754 
L 369.190207 202.955215 
L 376.278683 193.283226 
L 384.576399 182.464301 
L 394.14205 170.560448 
L 399.402285 164.275495 
L 404.976171 157.823862 
L 410.850317 151.274 
L 417.001654 144.714453 
L 423.401938 138.246462 
L 430.003572 132.006834 
L 436.750077 126.146241 
L 443.569551 120.839577 
L 450.36819 116.283133 
L 457.043052 112.682771 
L 463.467325 110.246217 
L 469.504342 109.169156 
L 475.004651 109.6385 
L 479.814435 111.766816 
L 483.782591 115.634292 
L 486.761233 121.250625 
L 488.634936 128.509784 
L 489.301181 137.26375 
L 488.700355 147.262486 
L 486.821628 158.195748 
L 483.676423 169.720255 
L 479.342774 181.476654 
L 473.926056 193.121197 
L 467.561055 204.330145 
L 460.414047 214.859338 
L 452.658552 224.504536 
L 444.474695 233.139887 
L 436.037924 240.695457 
L 427.510384 247.161632 
L 419.039941 252.566921 
L 410.750803 256.977113 
L 402.749553 260.476061 
L 395.116271 263.161359 
L 387.916995 265.135406 
L 381.191176 266.497006 
L 374.966965 267.34091 
L 369.257195 267.753373 
L 364.06278 267.810934 
L 359.375445 267.579793 
L 355.17995 267.116083 
L 351.456081 266.466806 
L 348.17998 265.669449 
L 345.325882 264.754198 
L 342.867088 263.743851 
L 340.776865 262.655383 
L 339.02937 261.500093 
L 337.599773 260.28547 
L 336.465526 259.014171 
L 335.604904 257.68711 
L 334.999856 256.300831 
L 334.633932 254.850347 
L 334.49201 253.329349 
L 334.563286 251.72849 
L 334.838294 250.03757 
L 335.308913 248.245589 
L 335.971043 246.339346 
L 336.822258 244.304723 
L 339.088047 239.791108 
L 342.127846 234.571104 
L 345.988544 228.498007 
L 350.751235 221.409895 
L 356.518268 213.137223 
L 363.417896 203.515297 
L 371.591019 192.400329 
L 381.181741 179.710584 
L 392.31364 165.485204 
L 398.483671 157.858677 
L 405.056102 149.966244 
L 412.025328 141.881426 
L 419.369615 133.719974 
L 427.050918 125.632335 
L 435.022191 117.790507 
L 443.205453 110.423221 
L 451.505365 103.785261 
L 459.800417 98.166909 
L 467.9373 93.879982 
L 475.744491 91.247226 
L 483.019058 90.560528 
L 489.547905 92.07973 
L 495.106572 95.982301 
L 499.479919 102.332628 
L 502.463758 111.091694 
L 503.905422 122.036126 
L 503.679261 134.855364 
L 501.744917 149.086159 
L 498.11243 164.212255 
L 492.865029 179.67576 
L 486.15212 194.948146 
L 478.165505 209.543614 
L 469.141194 223.096402 
L 459.329476 235.323304 
L 448.98609 246.068414 
L 438.356006 255.270068 
L 427.66357 262.950631 
L 417.102781 269.197773 
L 406.837413 274.13846 
L 396.995865 277.925156 
L 387.674162 280.718265 
L 378.941187 282.677595 
L 370.835205 283.950813 
L 363.376645 284.674188 
L 356.565555 284.966103 
L 350.388753 284.929275 
L 344.821894 284.649409 
L 339.833143 284.197798 
L 335.385498 283.63223 
L 327.951569 282.333093 
L 322.19008 281.009645 
L 315.997332 279.27413 
L 308.03196 276.903402 
L 306.645761 276.781685 
L 305.923856 276.891306 
L 305.288227 277.144085 
L 304.389065 277.791834 
L 303.435514 278.788904 
L 301.875257 280.783253 
L 298.306079 285.851813 
L 290.536797 297.33438 
L 249.347911 358.645194 
L 236.920378 376.646343 
L 221.98783 397.686818 
L 213.494698 409.293769 
L 204.283891 421.53536 
L 194.35659 434.254816 
L 183.728958 447.24863 
L 172.453343 460.207973 
L 160.621627 472.727552 
L 148.373084 484.294117 
L 135.910764 494.277691 
L 123.502136 501.95953 
L 111.486095 506.566701 
L 100.268401 507.341761 
L 90.305563 503.629889 
L 82.082399 495.003285 
L 76.074074 481.333145 
L 72.694024 462.925537 
L 72.265994 440.45994 
L 74.9474 415.027593 
L 80.749546 387.933394 
L 89.488274 360.56467 
L 100.837722 334.215535 
L 114.346354 309.927457 
L 129.494699 288.426099 
L 145.74205 270.096402 
L 162.570287 255.02205 
L 179.516053 243.053624 
L 196.189444 233.887382 
L 212.282777 227.13585 
L 227.572734 222.387826 
L 241.900184 219.239095 
L 255.183062 217.332969 
L 267.379128 216.350012 
L 278.493653 216.028683 
L 288.558551 216.15013 
L 297.629783 216.544152 
L 313.075511 217.630582 
L 325.464551 218.535065 
L 330.719969 218.776 
L 335.455451 218.829737 
L 339.74569 218.673653 
L 343.662508 218.29044 
L 347.269597 217.671146 
L 350.627463 216.808954 
L 353.792556 215.699742 
L 356.812856 214.342717 
L 359.734503 212.737655 
L 362.599815 210.885259 
L 365.443921 208.787916 
L 368.299589 206.448929 
L 371.199298 203.870388 
L 377.225234 198.019101 
L 383.690917 191.294742 
L 402.450652 171.45895 
L 411.042444 162.919362 
L 415.53933 158.698122 
L 420.138401 154.599092 
L 424.809161 150.697683 
L 429.516768 147.074614 
L 434.217376 143.821472 
L 438.854173 141.034691 
L 443.369319 138.8083 
L 447.697751 137.245274 
L 451.765433 136.428411 
L 455.49684 136.431612 
L 458.816929 137.315757 
L 461.644666 139.128995 
L 463.913754 141.86028 
L 465.561926 145.490922 
L 466.52643 149.981102 
L 466.776195 155.230249 
L 466.292745 161.119681 
L 465.068241 167.520549 
L 463.112724 174.273838 
L 460.471193 181.219607 
L 457.191344 188.200778 
L 453.336232 195.058363 
L 448.988365 201.665478 
L 444.233588 207.911087 
L 439.163553 213.695414 
L 433.871117 218.960073 
L 428.445452 223.667271 
L 422.974525 227.790659 
L 417.536797 231.331853 
L 412.200319 234.308035 
L 407.028233 236.741421 
L 402.07311 238.66619 
L 397.373525 240.121575 
L 392.964267 241.147004 
L 388.871827 241.78454 
L 385.10961 242.071673 
L 381.689566 242.044842 
L 378.618533 241.73898 
L 375.895547 241.181401 
L 373.517837 240.396658 
L 371.480805 239.407216 
L 369.776694 238.229624 
L 368.396799 236.875948 
L 367.33227 235.356806 
L 366.573389 233.679492 
L 366.11132 231.846591 
L 365.937742 229.859743 
L 366.043739 227.719538 
L 366.423119 225.422754 
L 367.070546 222.965219 
L 367.98101 220.342811 
L 369.150172 217.549848 
L 370.575892 214.5806 
L 372.257043 211.429881 
L 374.192299 208.09367 
L 376.381467 204.566342 
L 381.525028 196.927874 
L 387.687253 188.540262 
L 387.687253 188.540262 
" clip-path="url(#p3d2d37fca5)" style="fill: none; stroke-dasharray: 12.95,5.6; stroke-dashoffset: 0; stroke: #ff0000; stroke-opacity: 0.8; stroke-width: 3.5"/>
   </g>
   <g id="legend_1">
    <g id="patch_7">
     <path d="M 55.982813 89.030625 
L 201.332813 89.030625 
Q 203.332813 89.030625 203.332813 87.030625 
L 203.332813 29.318125 
Q 203.332813 27.318125 201.332813 27.318125 
L 55.982813 27.318125 
Q 53.982813 27.318125 53.982813 29.318125 
L 53.982813 87.030625 
Q 53.982813 89.030625 55.982813 89.030625 
z
" style="fill: #ffffff; opacity: 0.8; stroke: #cccccc; stroke-linejoin: miter"/>
    </g>
    <g id="line2d_17">
     <path d="M 57.982813 35.416562 
L 67.982812 35.416562 
L 77.982812 35.416562 
" style="fill: none; stroke: #000000; stroke-opacity: 0.3; stroke-width: 7; stroke-linecap: square"/>
    </g>
    <g id="text_16">
     <!-- True/Underlying model -->
     <g transform="translate(85.982812 38.916562) scale(0.1 -0.1)">
      <defs>
       <path id="DejaVuSans-54" d="M -19 4666 
L 3928 4666 
L 3928 4134 
L 2272 4134 
L 2272 0 
L 1638 0 
L 1638 4134 
L -19 4134 
L -19 4666 
z
" transform="scale(0.015625)"/>
       <path id="DejaVuSans-75" d="M 544 1381 
L 544 3500 
L 1119 3500 
L 1119 1403 
Q 1119 906 1312 657 
Q 1506 409 1894 409 
Q 2359 409 2629 706 
Q 2900 1003 2900 1516 
L 2900 3500 
L 3475 3500 
L 3475 0 
L 2900 0 
L 2900 538 
Q 2691 219 2414 64 
Q 2138 -91 1772 -91 
Q 1169 -91 856 284 
Q 544 659 544 1381 
z
M 1991 3584 
L 1991 3584 
z
" transform="scale(0.015625)"/>
       <path id="DejaVuSans-2f" d="M 1625 4666 
L 2156 4666 
L 531 -594 
L 0 -594 
L 1625 4666 
z
" transform="scale(0.015625)"/>
       <path id="DejaVuSans-55" d="M 556 4666 
L 1191 4666 
L 1191 1831 
Q 1191 1081 1462 751 
Q 1734 422 2344 422 
Q 2950 422 3222 751 
Q 3494 1081 3494 1831 
L 3494 4666 
L 4128 4666 
L 4128 1753 
Q 4128 841 3676 375 
Q 3225 -91 2344 -91 
Q 1459 -91 1007 375 
Q 556 841 556 1753 
L 556 4666 
z
" transform="scale(0.015625)"/>
       <path id="DejaVuSans-6e" d="M 3513 2113 
L 3513 0 
L 2938 0 
L 2938 2094 
Q 2938 2591 2744 2837 
Q 2550 3084 2163 3084 
Q 1697 3084 1428 2787 
Q 1159 2491 1159 1978 
L 1159 0 
L 581 0 
L 581 3500 
L 1159 3500 
L 1159 2956 
Q 1366 3272 1645 3428 
Q 1925 3584 2291 3584 
Q 2894 3584 3203 3211 
Q 3513 2838 3513 2113 
z
" transform="scale(0.015625)"/>
       <path id="DejaVuSans-64" d="M 2906 2969 
L 2906 4863 
L 3481 4863 
L 3481 0 
L 2906 0 
L 2906 525 
Q 2725 213 2448 61 
Q 2172 -91 1784 -91 
Q 1150 -91 751 415 
Q 353 922 353 1747 
Q 353 2572 751 3078 
Q 1150 3584 1784 3584 
Q 2172 3584 2448 3432 
Q 2725 3281 2906 2969 
z
M 947 1747 
Q 947 1113 1208 752 
Q 1469 391 1925 391 
Q 2381 391 2643 752 
Q 2906 1113 2906 1747 
Q 2906 2381 2643 2742 
Q 2381 3103 1925 3103 
Q 1469 3103 1208 2742 
Q 947 2381 947 1747 
z
" transform="scale(0.015625)"/>
       <path id="DejaVuSans-6c" d="M 603 4863 
L 1178 4863 
L 1178 0 
L 603 0 
L 603 4863 
z
" transform="scale(0.015625)"/>
       <path id="DejaVuSans-79" d="M 2059 -325 
Q 1816 -950 1584 -1140 
Q 1353 -1331 966 -1331 
L 506 -1331 
L 506 -850 
L 844 -850 
Q 1081 -850 1212 -737 
Q 1344 -625 1503 -206 
L 1606 56 
L 191 3500 
L 800 3500 
L 1894 763 
L 2988 3500 
L 3597 3500 
L 2059 -325 
z
" transform="scale(0.015625)"/>
       <path id="DejaVuSans-67" d="M 2906 1791 
Q 2906 2416 2648 2759 
Q 2391 3103 1925 3103 
Q 1463 3103 1205 2759 
Q 947 2416 947 1791 
Q 947 1169 1205 825 
Q 1463 481 1925 481 
Q 2391 481 2648 825 
Q 2906 1169 2906 1791 
z
M 3481 434 
Q 3481 -459 3084 -895 
Q 2688 -1331 1869 -1331 
Q 1566 -1331 1297 -1286 
Q 1028 -1241 775 -1147 
L 775 -588 
Q 1028 -725 1275 -790 
Q 1522 -856 1778 -856 
Q 2344 -856 2625 -561 
Q 2906 -266 2906 331 
L 2906 616 
Q 2728 306 2450 153 
Q 2172 0 1784 0 
Q 1141 0 747 490 
Q 353 981 353 1791 
Q 353 2603 747 3093 
Q 1141 3584 1784 3584 
Q 2172 3584 2450 3431 
Q 2728 3278 2906 2969 
L 2906 3500 
L 3481 3500 
L 3481 434 
z
" transform="scale(0.015625)"/>
       <path id="DejaVuSans-6d" d="M 3328 2828 
Q 3544 3216 3844 3400 
Q 4144 3584 4550 3584 
Q 5097 3584 5394 3201 
Q 5691 2819 5691 2113 
L 5691 0 
L 5113 0 
L 5113 2094 
Q 5113 2597 4934 2840 
Q 4756 3084 4391 3084 
Q 3944 3084 3684 2787 
Q 3425 2491 3425 1978 
L 3425 0 
L 2847 0 
L 2847 2094 
Q 2847 2600 2669 2842 
Q 2491 3084 2119 3084 
Q 1678 3084 1418 2786 
Q 1159 2488 1159 1978 
L 1159 0 
L 581 0 
L 581 3500 
L 1159 3500 
L 1159 2956 
Q 1356 3278 1631 3431 
Q 1906 3584 2284 3584 
Q 2666 3584 2933 3390 
Q 3200 3197 3328 2828 
z
" transform="scale(0.015625)"/>
      </defs>
      <use xlink:href="#DejaVuSans-54"/>
      <use xlink:href="#DejaVuSans-72" transform="translate(46.333984 0)"/>
      <use xlink:href="#DejaVuSans-75" transform="translate(87.447266 0)"/>
      <use xlink:href="#DejaVuSans-65" transform="translate(150.826172 0)"/>
      <use xlink:href="#DejaVuSans-2f" transform="translate(212.349609 0)"/>
      <use xlink:href="#DejaVuSans-55" transform="translate(246.041016 0)"/>
      <use xlink:href="#DejaVuSans-6e" transform="translate(319.234375 0)"/>
      <use xlink:href="#DejaVuSans-64" transform="translate(382.613281 0)"/>
      <use xlink:href="#DejaVuSans-65" transform="translate(446.089844 0)"/>
      <use xlink:href="#DejaVuSans-72" transform="translate(507.613281 0)"/>
      <use xlink:href="#DejaVuSans-6c" transform="translate(548.726562 0)"/>
      <use xlink:href="#DejaVuSans-79" transform="translate(576.509766 0)"/>
      <use xlink:href="#DejaVuSans-69" transform="translate(635.689453 0)"/>
      <use xlink:href="#DejaVuSans-6e" transform="translate(663.472656 0)"/>
      <use xlink:href="#DejaVuSans-67" transform="translate(726.851562 0)"/>
      <use xlink:href="#DejaVuSans-20" transform="translate(790.328125 0)"/>
      <use xlink:href="#DejaVuSans-6d" transform="translate(822.115234 0)"/>
      <use xlink:href="#DejaVuSans-6f" transform="translate(919.527344 0)"/>
      <use xlink:href="#DejaVuSans-64" transform="translate(980.708984 0)"/>
      <use xlink:href="#DejaVuSans-65" transform="translate(1044.185547 0)"/>
      <use xlink:href="#DejaVuSans-6c" transform="translate(1105.708984 0)"/>
     </g>
    </g>
    <g id="line2d_18">
     <path d="M 57.982813 50.094687 
L 67.982812 50.094687 
L 77.982812 50.094687 
" style="fill: none; stroke-dasharray: 12.95,5.6; stroke-dashoffset: 0; stroke: #ff0000; stroke-opacity: 0.8; stroke-width: 3.5"/>
    </g>
    <g id="text_17">
     <!-- AutoSINDy -->
     <g transform="translate(85.982812 53.594687) scale(0.1 -0.1)">
      <defs>
       <path id="DejaVuSans-41" d="M 2188 4044 
L 1331 1722 
L 3047 1722 
L 2188 4044 
z
M 1831 4666 
L 2547 4666 
L 4325 0 
L 3669 0 
L 3244 1197 
L 1141 1197 
L 716 0 
L 50 0 
L 1831 4666 
z
" transform="scale(0.015625)"/>
       <path id="DejaVuSans-53" d="M 3425 4513 
L 3425 3897 
Q 3066 4069 2747 4153 
Q 2428 4238 2131 4238 
Q 1616 4238 1336 4038 
Q 1056 3838 1056 3469 
Q 1056 3159 1242 3001 
Q 1428 2844 1947 2747 
L 2328 2669 
Q 3034 2534 3370 2195 
Q 3706 1856 3706 1288 
Q 3706 609 3251 259 
Q 2797 -91 1919 -91 
Q 1588 -91 1214 -16 
Q 841 59 441 206 
L 441 856 
Q 825 641 1194 531 
Q 1563 422 1919 422 
Q 2459 422 2753 634 
Q 3047 847 3047 1241 
Q 3047 1584 2836 1778 
Q 2625 1972 2144 2069 
L 1759 2144 
Q 1053 2284 737 2584 
Q 422 2884 422 3419 
Q 422 4038 858 4394 
Q 1294 4750 2059 4750 
Q 2388 4750 2728 4690 
Q 3069 4631 3425 4513 
z
" transform="scale(0.015625)"/>
       <path id="DejaVuSans-49" d="M 628 4666 
L 1259 4666 
L 1259 0 
L 628 0 
L 628 4666 
z
" transform="scale(0.015625)"/>
       <path id="DejaVuSans-4e" d="M 628 4666 
L 1478 4666 
L 3547 763 
L 3547 4666 
L 4159 4666 
L 4159 0 
L 3309 0 
L 1241 3903 
L 1241 0 
L 628 0 
L 628 4666 
z
" transform="scale(0.015625)"/>
       <path id="DejaVuSans-44" d="M 1259 4147 
L 1259 519 
L 2022 519 
Q 2988 519 3436 956 
Q 3884 1394 3884 2338 
Q 3884 3275 3436 3711 
Q 2988 4147 2022 4147 
L 1259 4147 
z
M 628 4666 
L 1925 4666 
Q 3281 4666 3915 4102 
Q 4550 3538 4550 2338 
Q 4550 1131 3912 565 
Q 3275 0 1925 0 
L 628 0 
L 628 4666 
z
" transform="scale(0.015625)"/>
      </defs>
      <use xlink:href="#DejaVuSans-41"/>
      <use xlink:href="#DejaVuSans-75" transform="translate(68.408203 0)"/>
      <use xlink:href="#DejaVuSans-74" transform="translate(131.787109 0)"/>
      <use xlink:href="#DejaVuSans-6f" transform="translate(170.996094 0)"/>
      <use xlink:href="#DejaVuSans-53" transform="translate(232.177734 0)"/>
      <use xlink:href="#DejaVuSans-49" transform="translate(295.654297 0)"/>
      <use xlink:href="#DejaVuSans-4e" transform="translate(325.146484 0)"/>
      <use xlink:href="#DejaVuSans-44" transform="translate(399.951172 0)"/>
      <use xlink:href="#DejaVuSans-79" transform="translate(476.953125 0)"/>
     </g>
    </g>
    <g id="line2d_19">
     <path d="M 57.982813 64.772812 
L 67.982812 64.772812 
L 77.982812 64.772812 
" style="fill: none; stroke-dasharray: 3.5,5.775; stroke-dashoffset: 0; stroke: #008000; stroke-opacity: 0.8; stroke-width: 3.5"/>
    </g>
    <g id="text_18">
     <!-- Standard SINDy -->
     <g transform="translate(85.982812 68.272812) scale(0.1 -0.1)">
      <use xlink:href="#DejaVuSans-53"/>
      <use xlink:href="#DejaVuSans-74" transform="translate(63.476562 0)"/>
      <use xlink:href="#DejaVuSans-61" transform="translate(102.685547 0)"/>
      <use xlink:href="#DejaVuSans-6e" transform="translate(163.964844 0)"/>
      <use xlink:href="#DejaVuSans-64" transform="translate(227.34375 0)"/>
      <use xlink:href="#DejaVuSans-61" transform="translate(290.820312 0)"/>
      <use xlink:href="#DejaVuSans-72" transform="translate(352.099609 0)"/>
      <use xlink:href="#DejaVuSans-64" transform="translate(391.462891 0)"/>
      <use xlink:href="#DejaVuSans-20" transform="translate(454.939453 0)"/>
      <use xlink:href="#DejaVuSans-53" transform="translate(486.726562 0)"/>
      <use xlink:href="#DejaVuSans-49" transform="translate(550.203125 0)"/>
      <use xlink:href="#DejaVuSans-4e" transform="translate(579.695312 0)"/>
      <use xlink:href="#DejaVuSans-44" transform="translate(654.5 0)"/>
      <use xlink:href="#DejaVuSans-79" transform="translate(731.501953 0)"/>
     </g>
    </g>
    <g id="line2d_20">
     <path d="M 57.982813 79.450937 
L 67.982812 79.450937 
L 77.982812 79.450937 
" style="fill: none; stroke-dasharray: 22.4,5.6,3.5,5.6; stroke-dashoffset: 0; stroke: #0000ff; stroke-opacity: 0.8; stroke-width: 3.5"/>
    </g>
    <g id="text_19">
     <!-- Standard PySR -->
     <g transform="translate(85.982812 82.950937) scale(0.1 -0.1)">
      <defs>
       <path id="DejaVuSans-52" d="M 2841 2188 
Q 3044 2119 3236 1894 
Q 3428 1669 3622 1275 
L 4263 0 
L 3584 0 
L 2988 1197 
Q 2756 1666 2539 1819 
Q 2322 1972 1947 1972 
L 1259 1972 
L 1259 0 
L 628 0 
L 628 4666 
L 2053 4666 
Q 2853 4666 3247 4331 
Q 3641 3997 3641 3322 
Q 3641 2881 3436 2590 
Q 3231 2300 2841 2188 
z
M 1259 4147 
L 1259 2491 
L 2053 2491 
Q 2509 2491 2742 2702 
Q 2975 2913 2975 3322 
Q 2975 3731 2742 3939 
Q 2509 4147 2053 4147 
L 1259 4147 
z
" transform="scale(0.015625)"/>
      </defs>
      <use xlink:href="#DejaVuSans-53"/>
      <use xlink:href="#DejaVuSans-74" transform="translate(63.476562 0)"/>
      <use xlink:href="#DejaVuSans-61" transform="translate(102.685547 0)"/>
      <use xlink:href="#DejaVuSans-6e" transform="translate(163.964844 0)"/>
      <use xlink:href="#DejaVuSans-64" transform="translate(227.34375 0)"/>
      <use xlink:href="#DejaVuSans-61" transform="translate(290.820312 0)"/>
      <use xlink:href="#DejaVuSans-72" transform="translate(352.099609 0)"/>
      <use xlink:href="#DejaVuSans-64" transform="translate(391.462891 0)"/>
      <use xlink:href="#DejaVuSans-20" transform="translate(454.939453 0)"/>
      <use xlink:href="#DejaVuSans-50" transform="translate(486.726562 0)"/>
      <use xlink:href="#DejaVuSans-79" transform="translate(547.029297 0)"/>
      <use xlink:href="#DejaVuSans-53" transform="translate(606.208984 0)"/>
      <use xlink:href="#DejaVuSans-52" transform="translate(669.685547 0)"/>
     </g>
    </g>
   </g>
  </g>
 </g>
 <defs>
  <clipPath id="p3d2d37fca5">
   <rect x="48.982813" y="22.318125" width="512.23" height="508.12"/>
  </clipPath>
 </defs>
</svg>
