<?xml version="1.0" encoding="utf-8" standalone="no"?>
<!DOCTYPE svg PUBLIC "-//W3C//DTD SVG 1.1//EN"
  "http://www.w3.org/Graphics/SVG/1.1/DTD/svg11.dtd">
<svg xmlns:xlink="http://www.w3.org/1999/xlink" width="568.410312pt" height="567.994375pt" viewBox="0 0 568.410312 567.994375" xmlns="http://www.w3.org/2000/svg" version="1.1">
 <metadata>
  <rdf:RDF xmlns:dc="http://purl.org/dc/elements/1.1/" xmlns:cc="http://creativecommons.org/ns#" xmlns:rdf="http://www.w3.org/1999/02/22-rdf-syntax-ns#">
   <cc:Work>
    <dc:type rdf:resource="http://purl.org/dc/dcmitype/StillImage"/>
    <dc:date>2026-04-06T01:47:49.856389</dc:date>
    <dc:format>image/svg+xml</dc:format>
    <dc:creator>
     <cc:Agent>
      <dc:title>Matplotlib v3.10.7, https://matplotlib.org/</dc:title>
     </cc:Agent>
    </dc:creator>
   </cc:Work>
  </rdf:RDF>
 </metadata>
 <defs>
  <style type="text/css">*{stroke-linejoin: round; stroke-linecap: butt}</style>
 </defs>
 <g id="figure_1">
  <g id="patch_1">
   <path d="M 0 567.994375 
L 568.410312 567.994375 
L 568.410312 0 
L 0 0 
z
" style="fill: #ffffff"/>
  </g>
  <g id="axes_1">
   <g id="patch_2">
    <path d="M 42.620313 530.438125 
L 561.210312 530.438125 
L 561.210312 22.318125 
L 42.620313 22.318125 
z
" style="fill: #ffffff"/>
   </g>
   <g id="matplotlib.axis_1">
    <g id="xtick_1">
     <g id="line2d_1">
      <defs>
       <path id="me80adc6434" d="M 0 0 
L 0 3.5 
" style="stroke: #000000; stroke-width: 0.8"/>
      </defs>
      <g>
       <use xlink:href="#me80adc6434" x="123.979155" y="530.438125" style="stroke: #000000; stroke-width: 0.8"/>
      </g>
     </g>
     <g id="text_1">
      <!-- −2 -->
      <g transform="translate(116.608061 545.036562) scale(0.1 -0.1)">
       <defs>
        <path id="DejaVuSans-2212" d="M 678 2272 
L 4684 2272 
L 4684 1741 
L 678 1741 
L 678 2272 
z
" transform="scale(0.015625)"/>
        <path id="DejaVuSans-32" d="M 1228 531 
L 3431 531 
L 3431 0 
L 469 0 
L 469 531 
Q 828 903 1448 1529 
Q 2069 2156 2228 2338 
Q 2531 2678 2651 2914 
Q 2772 3150 2772 3378 
Q 2772 3750 2511 3984 
Q 2250 4219 1831 4219 
Q 1534 4219 1204 4116 
Q 875 4013 500 3803 
L 500 4441 
Q 881 4594 1212 4672 
Q 1544 4750 1819 4750 
Q 2544 4750 2975 4387 
Q 3406 4025 3406 3419 
Q 3406 3131 3298 2873 
Q 3191 2616 2906 2266 
Q 2828 2175 2409 1742 
Q 1991 1309 1228 531 
z
" transform="scale(0.015625)"/>
       </defs>
       <use xlink:href="#DejaVuSans-2212"/>
       <use xlink:href="#DejaVuSans-32" transform="translate(83.789062 0)"/>
      </g>
     </g>
    </g>
    <g id="xtick_2">
     <g id="line2d_2">
      <g>
       <use xlink:href="#me80adc6434" x="212.93084" y="530.438125" style="stroke: #000000; stroke-width: 0.8"/>
      </g>
     </g>
     <g id="text_2">
      <!-- −1 -->
      <g transform="translate(205.559746 545.036562) scale(0.1 -0.1)">
       <defs>
        <path id="DejaVuSans-31" d="M 794 531 
L 1825 531 
L 1825 4091 
L 703 3866 
L 703 4441 
L 1819 4666 
L 2450 4666 
L 2450 531 
L 3481 531 
L 3481 0 
L 794 0 
L 794 531 
z
" transform="scale(0.015625)"/>
       </defs>
       <use xlink:href="#DejaVuSans-2212"/>
       <use xlink:href="#DejaVuSans-31" transform="translate(83.789062 0)"/>
      </g>
     </g>
    </g>
    <g id="xtick_3">
     <g id="line2d_3">
      <g>
       <use xlink:href="#me80adc6434" x="301.882525" y="530.438125" style="stroke: #000000; stroke-width: 0.8"/>
      </g>
     </g>
     <g id="text_3">
      <!-- 0 -->
      <g transform="translate(298.701275 545.036562) scale(0.1 -0.1)">
       <defs>
        <path id="DejaVuSans-30" d="M 2034 4250 
Q 1547 4250 1301 3770 
Q 1056 3291 1056 2328 
Q 1056 1369 1301 889 
Q 1547 409 2034 409 
Q 2525 409 2770 889 
Q 3016 1369 3016 2328 
Q 3016 3291 2770 3770 
Q 2525 4250 2034 4250 
z
M 2034 4750 
Q 2819 4750 3233 4129 
Q 3647 3509 3647 2328 
Q 3647 1150 3233 529 
Q 2819 -91 2034 -91 
Q 1250 -91 836 529 
Q 422 1150 422 2328 
Q 422 3509 836 4129 
Q 1250 4750 2034 4750 
z
" transform="scale(0.015625)"/>
       </defs>
       <use xlink:href="#DejaVuSans-30"/>
      </g>
     </g>
    </g>
    <g id="xtick_4">
     <g id="line2d_4">
      <g>
       <use xlink:href="#me80adc6434" x="390.83421" y="530.438125" style="stroke: #000000; stroke-width: 0.8"/>
      </g>
     </g>
     <g id="text_4">
      <!-- 1 -->
      <g transform="translate(387.65296 545.036562) scale(0.1 -0.1)">
       <use xlink:href="#DejaVuSans-31"/>
      </g>
     </g>
    </g>
    <g id="xtick_5">
     <g id="line2d_5">
      <g>
       <use xlink:href="#me80adc6434" x="479.785895" y="530.438125" style="stroke: #000000; stroke-width: 0.8"/>
      </g>
     </g>
     <g id="text_5">
      <!-- 2 -->
      <g transform="translate(476.604645 545.036562) scale(0.1 -0.1)">
       <use xlink:href="#DejaVuSans-32"/>
      </g>
     </g>
    </g>
    <g id="text_6">
     <!-- x0 -->
     <g transform="translate(295.774687 558.714687) scale(0.1 -0.1)">
      <defs>
       <path id="DejaVuSans-78" d="M 3513 3500 
L 2247 1797 
L 3578 0 
L 2900 0 
L 1881 1375 
L 863 0 
L 184 0 
L 1544 1831 
L 300 3500 
L 978 3500 
L 1906 2253 
L 2834 3500 
L 3513 3500 
z
" transform="scale(0.015625)"/>
      </defs>
      <use xlink:href="#DejaVuSans-78"/>
      <use xlink:href="#DejaVuSans-30" transform="translate(59.179688 0)"/>
     </g>
    </g>
   </g>
   <g id="matplotlib.axis_2">
    <g id="ytick_1">
     <g id="line2d_6">
      <defs>
       <path id="md7f3720418" d="M 0 0 
L -3.5 0 
" style="stroke: #000000; stroke-width: 0.8"/>
      </defs>
      <g>
       <use xlink:href="#md7f3720418" x="42.620313" y="491.147467" style="stroke: #000000; stroke-width: 0.8"/>
      </g>
     </g>
     <g id="text_7">
      <!-- −4 -->
      <g transform="translate(20.878125 494.946686) scale(0.1 -0.1)">
       <defs>
        <path id="DejaVuSans-34" d="M 2419 4116 
L 825 1625 
L 2419 1625 
L 2419 4116 
z
M 2253 4666 
L 3047 4666 
L 3047 1625 
L 3713 1625 
L 3713 1100 
L 3047 1100 
L 3047 0 
L 2419 0 
L 2419 1100 
L 313 1100 
L 313 1709 
L 2253 4666 
z
" transform="scale(0.015625)"/>
       </defs>
       <use xlink:href="#DejaVuSans-2212"/>
       <use xlink:href="#DejaVuSans-34" transform="translate(83.789062 0)"/>
      </g>
     </g>
    </g>
    <g id="ytick_2">
     <g id="line2d_7">
      <g>
       <use xlink:href="#md7f3720418" x="42.620313" y="383.756036" style="stroke: #000000; stroke-width: 0.8"/>
      </g>
     </g>
     <g id="text_8">
      <!-- −2 -->
      <g transform="translate(20.878125 387.555255) scale(0.1 -0.1)">
       <use xlink:href="#DejaVuSans-2212"/>
       <use xlink:href="#DejaVuSans-32" transform="translate(83.789062 0)"/>
      </g>
     </g>
    </g>
    <g id="ytick_3">
     <g id="line2d_8">
      <g>
       <use xlink:href="#md7f3720418" x="42.620313" y="276.364605" style="stroke: #000000; stroke-width: 0.8"/>
      </g>
     </g>
     <g id="text_9">
      <!-- 0 -->
      <g transform="translate(29.257813 280.163824) scale(0.1 -0.1)">
       <use xlink:href="#DejaVuSans-30"/>
      </g>
     </g>
    </g>
    <g id="ytick_4">
     <g id="line2d_9">
      <g>
       <use xlink:href="#md7f3720418" x="42.620313" y="168.973174" style="stroke: #000000; stroke-width: 0.8"/>
      </g>
     </g>
     <g id="text_10">
      <!-- 2 -->
      <g transform="translate(29.257813 172.772393) scale(0.1 -0.1)">
       <use xlink:href="#DejaVuSans-32"/>
      </g>
     </g>
    </g>
    <g id="ytick_5">
     <g id="line2d_10">
      <g>
       <use xlink:href="#md7f3720418" x="42.620313" y="61.581743" style="stroke: #000000; stroke-width: 0.8"/>
      </g>
     </g>
     <g id="text_11">
      <!-- 4 -->
      <g transform="translate(29.257813 65.380962) scale(0.1 -0.1)">
       <use xlink:href="#DejaVuSans-34"/>
      </g>
     </g>
    </g>
    <g id="text_12">
     <!-- x1 -->
     <g transform="translate(14.798438 282.51875) rotate(-90) scale(0.1 -0.1)">
      <use xlink:href="#DejaVuSans-78"/>
      <use xlink:href="#DejaVuSans-31" transform="translate(59.179688 0)"/>
     </g>
    </g>
   </g>
   <g id="line2d_11">
    <path d="M 536.856643 265.625462 
L 537.39616 270.834086 
L 537.593178 275.95195 
L 537.453246 281.016635 
L 536.978043 286.063847 
L 536.166884 291.128534 
L 535.017132 296.245205 
L 533.52419 301.447929 
L 531.681509 306.770336 
L 529.480582 312.245614 
L 526.911011 317.906268 
L 523.962343 323.774875 
L 520.617298 329.884954 
L 516.855714 336.271287 
L 512.657292 342.960733 
L 508.001594 349.972223 
L 502.868048 357.316762 
L 497.23594 364.997432 
L 491.084423 373.009386 
L 484.39251 381.339852 
L 477.139078 389.968132 
L 469.302946 398.868065 
L 460.865319 408.031959 
L 451.812351 417.345468 
L 447.053251 422.011695 
L 442.139347 426.659222 
L 437.071635 431.269198 
L 431.851745 435.822701 
L 426.481943 440.300736 
L 420.965124 444.684235 
L 415.304821 448.954059 
L 409.505198 453.090998 
L 403.571053 457.075769 
L 397.507818 460.889016 
L 391.321558 464.511313 
L 385.018972 467.923161 
L 378.607393 471.104989 
L 372.094787 474.037155 
L 365.489754 476.699942 
L 358.801526 479.073565 
L 352.03997 481.138164 
L 345.215587 482.873809 
L 338.339511 484.260497 
L 331.42351 485.278152 
L 324.479983 485.906629 
L 317.521966 486.125709 
L 310.563128 485.9151 
L 303.617769 485.25444 
L 296.700887 484.125581 
L 289.828944 482.5685 
L 283.016389 480.613649 
L 276.276323 478.273785 
L 269.621214 475.562775 
L 263.0629 472.495595 
L 256.612585 469.08833 
L 250.280844 465.358176 
L 244.077618 461.323436 
L 238.012217 457.003524 
L 232.09332 452.418961 
L 226.328975 447.591379 
L 220.726594 442.54352 
L 215.292964 437.299233 
L 210.034234 431.883478 
L 204.955925 426.322324 
L 200.062925 420.642948 
L 195.359491 414.873638 
L 190.849247 409.04379 
L 186.535188 403.183909 
L 182.419673 397.325608 
L 178.501877 391.470214 
L 174.779506 385.604974 
L 171.252043 379.738821 
L 167.918898 373.879905 
L 164.779406 368.035595 
L 161.832828 362.212477 
L 159.078355 356.416356 
L 156.515099 350.652252 
L 154.142102 344.924407 
L 151.958332 339.236277 
L 149.962681 333.590538 
L 148.15397 327.989084 
L 146.530946 322.433025 
L 145.09228 316.92269 
L 143.836572 311.457626 
L 142.762347 306.036598 
L 141.868057 300.657587 
L 141.15208 295.317794 
L 140.612719 290.013638 
L 140.248206 284.740753 
L 140.056632 279.499951 
L 140.036975 274.297781 
L 140.189212 269.127583 
L 140.513274 263.982998 
L 141.00903 258.858472 
L 141.676281 253.749256 
L 142.514763 248.651406 
L 143.524147 243.56178 
L 144.704041 238.478043 
L 146.053984 233.398666 
L 147.573453 228.322921 
L 149.261858 223.250887 
L 151.118545 218.183449 
L 153.142793 213.122293 
L 155.333817 208.069913 
L 157.690768 203.029605 
L 160.212729 198.005474 
L 162.89872 193.002424 
L 165.747694 188.026167 
L 168.758541 183.083221 
L 171.930085 178.180905 
L 175.261083 173.327345 
L 178.750229 168.531472 
L 182.396151 163.80302 
L 186.197412 159.152529 
L 190.152509 154.591344 
L 194.259874 150.131613 
L 198.517875 145.786291 
L 202.923568 141.563084 
L 207.469563 137.463507 
L 212.149674 133.510702 
L 216.957551 129.727718 
L 221.886489 126.136126 
L 226.929435 122.756014 
L 232.07898 119.605987 
L 237.327367 116.703169 
L 242.666484 114.063203 
L 248.087867 111.700249 
L 253.582703 109.626987 
L 259.141824 107.854614 
L 264.75571 106.392844 
L 270.414492 105.249912 
L 276.107947 104.43257 
L 281.825498 103.946087 
L 287.55622 103.794253 
L 293.288834 103.979373 
L 299.011708 104.502272 
L 304.71286 105.362295 
L 310.379955 106.557301 
L 316.000307 108.083671 
L 321.560875 109.936302 
L 327.050799 112.10417 
L 332.463186 114.569501 
L 337.788361 117.320825 
L 343.017018 120.346451 
L 348.140317 123.634293 
L 353.149886 127.171864 
L 358.037817 130.946281 
L 362.796667 134.944265 
L 367.419459 139.152138 
L 371.899682 143.555823 
L 376.231291 148.140849 
L 380.408705 152.892344 
L 384.426809 157.79504 
L 388.280955 162.833273 
L 391.96696 167.990978 
L 395.481105 173.251695 
L 398.820138 178.598567 
L 401.981273 184.014337 
L 404.962188 189.481352 
L 407.761028 194.981561 
L 410.376402 200.496517 
L 412.807387 206.007372 
L 415.053524 211.494885 
L 417.116374 216.964516 
L 418.997763 222.43609 
L 420.697671 227.906594 
L 422.216165 233.373059 
L 423.553397 238.832588 
L 424.709606 244.282359 
L 425.685118 249.719622 
L 426.480346 255.141702 
L 427.095788 260.545996 
L 427.532032 265.929977 
L 427.789749 271.291188 
L 427.869699 276.627249 
L 427.77273 281.935851 
L 427.499772 287.214759 
L 427.051848 292.461814 
L 426.430062 297.674926 
L 425.635608 302.852083 
L 424.669766 307.991343 
L 423.533904 313.09084 
L 422.229473 318.148781 
L 420.758015 323.163445 
L 419.121156 328.133186 
L 417.320637 333.057237 
L 415.358331 337.939662 
L 413.235685 342.7728 
L 410.954355 347.546251 
L 408.516328 352.249709 
L 405.923927 356.872957 
L 403.17981 361.405873 
L 400.286966 365.838427 
L 397.24872 370.160682 
L 394.06873 374.362791 
L 390.750989 378.435002 
L 387.299822 382.367654 
L 383.719892 386.151179 
L 380.016191 389.776101 
L 376.194048 393.233037 
L 372.259126 396.512697 
L 368.21742 399.605881 
L 364.075261 402.503484 
L 359.839313 405.196491 
L 355.516574 407.675982 
L 351.114376 409.933128 
L 346.640385 411.959192 
L 342.102602 413.745531 
L 337.50936 415.283592 
L 332.869328 416.564917 
L 328.191507 417.581139 
L 323.485233 418.323983 
L 318.760176 418.785268 
L 314.02634 418.956904 
L 309.293301 418.834486 
L 304.568292 418.429163 
L 299.861101 417.744117 
L 295.181558 416.781967 
L 290.539169 415.546237 
L 285.94312 414.041359 
L 281.402278 412.272674 
L 276.925187 410.246426 
L 272.520071 407.969768 
L 268.194835 405.450762 
L 263.95706 402.698374 
L 259.814009 399.722477 
L 255.772623 396.533853 
L 251.839524 393.144191 
L 248.021011 389.566083 
L 244.323063 385.813034 
L 240.751338 381.899451 
L 237.311176 377.84065 
L 234.007592 373.652855 
L 230.845284 369.353195 
L 227.828626 364.959706 
L 224.961134 360.487303 
L 222.243582 355.931994 
L 219.678233 351.300568 
L 217.267431 346.601686 
L 215.013293 341.843701 
L 212.91771 337.034646 
L 210.982347 332.182246 
L 209.208644 327.293909 
L 207.597811 322.376731 
L 206.150834 317.437492 
L 204.868473 312.482661 
L 203.75126 307.518392 
L 202.799501 302.550526 
L 202.013277 297.584589 
L 201.392441 292.625796 
L 200.936619 287.679046 
L 200.645213 282.748926 
L 200.517397 277.839707 
L 200.552118 272.955348 
L 200.748098 268.099495 
L 201.103832 263.275479 
L 201.617557 258.485622 
L 202.287943 253.731717 
L 203.114273 249.018765 
L 204.095607 244.352094 
L 205.230742 239.737177 
L 206.518223 235.179631 
L 207.956335 230.68522 
L 209.543106 226.25985 
L 211.276307 221.909573 
L 213.15345 217.640588 
L 215.171791 213.459235 
L 217.328329 209.372003 
L 219.619804 205.385523 
L 222.042701 201.506571 
L 224.593244 197.742069 
L 227.267403 194.099085 
L 230.060889 190.584829 
L 232.969156 187.206657 
L 235.9874 183.972071 
L 239.110559 180.888716 
L 242.333317 177.964385 
L 245.650096 175.207012 
L 249.055063 172.624678 
L 252.542128 170.22561 
L 256.104942 168.018177 
L 259.736901 166.010894 
L 263.431214 164.212192 
L 267.182499 162.624538 
L 270.983625 161.252599 
L 274.826572 160.10262 
L 278.703384 159.179842 
L 282.606163 158.488506 
L 286.527076 158.03185 
L 290.458351 157.812108 
L 294.392279 157.830515 
L 298.321211 158.087301 
L 302.237561 158.581696 
L 306.133807 159.311926 
L 310.002486 160.275216 
L 313.836199 161.467787 
L 317.627608 162.884861 
L 321.369437 164.520656 
L 325.054474 166.368386 
L 328.675566 168.420266 
L 332.225625 170.667506 
L 335.697622 173.100317 
L 339.084593 175.707905 
L 342.380846 178.481587 
L 345.5827 181.416929 
L 348.684883 184.504786 
L 351.682369 187.735949 
L 354.570437 191.101311 
L 357.344669 194.591862 
L 360.000955 198.198689 
L 362.535491 201.912982 
L 364.944778 205.726025 
L 367.225623 209.629204 
L 369.375137 213.614002 
L 371.390739 217.672003 
L 373.270152 221.794888 
L 375.011407 225.974437 
L 376.612837 230.202528 
L 378.073085 234.471139 
L 379.391097 238.772347 
L 380.566124 243.098327 
L 381.597724 247.441353 
L 382.485974 251.79461 
L 383.231569 256.155495 
L 383.8339 260.519468 
L 384.292418 264.88152 
L 384.606798 269.236592 
L 384.776945 273.579578 
L 384.802989 277.905325 
L 384.68529 282.208633 
L 384.424435 286.484253 
L 384.021237 290.726889 
L 383.476737 294.931198 
L 382.792205 299.09179 
L 381.969136 303.203224 
L 381.009256 307.260016 
L 379.914514 311.256632 
L 378.687091 315.18749 
L 377.329392 319.046962 
L 375.844051 322.829372 
L 374.23393 326.528995 
L 372.502117 330.140061 
L 370.651929 333.65675 
L 368.686909 337.073196 
L 366.61083 340.383485 
L 364.427689 343.581654 
L 362.141713 346.661696 
L 359.757356 349.617553 
L 357.277787 352.445794 
L 354.706025 355.141742 
L 352.047164 357.696623 
L 349.306403 360.102284 
L 346.48905 362.351198 
L 343.600512 364.436472 
L 340.646303 366.351839 
L 337.632038 368.091665 
L 334.563436 369.650945 
L 331.446321 371.025305 
L 328.286618 372.211001 
L 325.090358 373.204917 
L 321.863675 374.004571 
L 318.612804 374.608107 
L 315.344087 375.014303 
L 312.063967 375.222563 
L 308.778992 375.232926 
L 305.495812 375.046056 
L 302.221183 374.663252 
L 298.961961 374.086439 
L 295.725108 373.318174 
L 292.517689 372.361646 
L 289.346872 371.220671 
L 286.218765 369.899452 
L 283.136542 368.402061 
L 280.106195 366.733427 
L 277.133717 364.898766 
L 274.224842 362.90352 
L 271.385041 360.753365 
L 268.619522 358.454205 
L 265.933234 356.012175 
L 263.330862 353.43364 
L 260.81683 350.725195 
L 258.3953 347.893666 
L 256.070173 344.946109 
L 253.845087 341.889809 
L 251.723419 338.732282 
L 249.708284 335.481275 
L 247.802536 332.144764 
L 246.008766 328.730956 
L 244.329304 325.248288 
L 242.766217 321.705426 
L 241.321312 318.111268 
L 239.996133 314.474941 
L 238.791963 310.805804 
L 237.709661 307.111797 
L 236.749296 303.391608 
L 235.91186 299.649607 
L 235.198303 295.891508 
L 234.609358 292.122989 
L 234.145539 288.349694 
L 233.807145 284.577233 
L 233.594254 280.811181 
L 233.506728 277.05708 
L 233.54421 273.320435 
L 233.706128 269.606718 
L 233.991689 265.921369 
L 234.399884 262.26979 
L 234.929486 258.657351 
L 235.57905 255.089385 
L 236.346913 251.571193 
L 237.231195 248.108042 
L 238.229798 244.705163 
L 239.340405 241.367752 
L 240.560484 238.100973 
L 241.887281 234.909955 
L 243.31783 231.79979 
L 244.848941 228.775539 
L 246.477881 225.841211 
L 248.202725 223.000585 
L 250.020092 220.260385 
L 251.926411 217.627096 
L 253.917972 215.106861 
L 255.990928 212.705478 
L 258.141296 210.428404 
L 260.364953 208.280751 
L 262.657643 206.26729 
L 265.014969 204.392448 
L 267.432399 202.660307 
L 269.905262 201.074609 
L 272.428751 199.638751 
L 274.997922 198.355786 
L 277.607692 197.228427 
L 280.252843 196.259042 
L 282.928018 195.449654 
L 285.627724 194.801947 
L 288.34633 194.317258 
L 291.078067 193.996583 
L 293.817032 193.840575 
L 296.557407 193.849401 
L 299.295574 194.021358 
L 302.026176 194.355369 
L 304.743319 194.850388 
L 307.441283 195.504977 
L 310.114514 196.317304 
L 312.75763 197.285144 
L 315.365419 198.405878 
L 317.93284 199.676496 
L 320.455019 201.093592 
L 322.927256 202.653368 
L 325.345017 204.351632 
L 327.703941 206.183801 
L 329.999835 208.144895 
L 332.228678 210.229543 
L 334.386618 212.43198 
L 336.469973 214.74605 
L 338.47523 217.1652 
L 340.399048 219.682485 
L 342.238255 222.290569 
L 343.989849 224.981719 
L 345.650998 227.747812 
L 347.219041 230.58033 
L 348.691499 233.470473 
L 350.066953 236.416788 
L 352.520602 242.465234 
L 354.567018 248.681889 
L 356.195979 255.020372 
L 357.400511 261.435526 
L 358.176894 267.883417 
L 358.524658 274.321335 
L 358.446583 280.707795 
L 358.249613 283.869098 
L 358.249613 283.869098 
" clip-path="url(#pe7b0c70666)" style="fill: none; stroke: #000000; stroke-opacity: 0.3; stroke-width: 7; stroke-linecap: square"/>
   </g>
   <g id="line2d_12">
    <path d="M 536.856643 265.625462 
L 537.415576 270.666516 
L 537.63804 275.666743 
L 537.528114 280.661067 
L 537.088491 285.684215 
L 536.318798 290.770518 
L 535.215503 295.954188 
L 533.772684 301.269209 
L 531.977044 306.749782 
L 529.811509 312.430302 
L 527.251801 318.345626 
L 524.2708 324.530863 
L 520.841485 331.021513 
L 516.951416 337.849722 
L 512.596818 345.045289 
L 507.776307 352.630875 
L 502.471966 360.622883 
L 496.639041 369.033396 
L 490.217283 377.86393 
L 483.1565 387.110653 
L 475.446554 396.751175 
L 467.099562 406.743027 
L 458.118399 417.027244 
L 448.469993 427.510568 
L 443.383279 432.793896 
L 438.113153 438.085175 
L 432.660613 443.363186 
L 427.026659 448.60671 
L 421.212492 453.794189 
L 415.221471 458.902193 
L 409.058765 463.905433 
L 402.731134 468.775307 
L 396.245339 473.483216 
L 389.608369 478.0008 
L 382.827384 482.298308 
L 375.909859 486.344766 
L 368.865553 490.111972 
L 361.704228 493.571721 
L 354.435849 496.696844 
L 347.0711 499.460145 
L 339.621717 501.835381 
L 332.101273 503.8061 
L 324.523341 505.355846 
L 316.90149 506.469656 
L 309.250061 507.134646 
L 301.584248 507.341761 
L 293.919102 507.094585 
L 286.269675 506.396698 
L 278.65078 505.252844 
L 271.077585 503.67128 
L 263.565269 501.665083 
L 256.127017 499.256048 
L 248.776012 496.465974 
L 241.524986 493.316955 
L 234.386613 489.834104 
L 227.372685 486.045394 
L 220.491523 481.980323 
L 213.751454 477.668387 
L 207.16032 473.138635 
L 200.725049 468.421235 
L 194.450617 463.546101 
L 188.33866 458.539584 
L 182.390811 453.428035 
L 176.609027 448.23708 
L 170.993372 442.991857 
L 165.543525 437.715435 
L 160.261878 432.426063 
L 150.21184 421.880721 
L 140.868721 411.489976 
L 132.241017 401.349438 
L 124.306114 391.530864 
L 117.004962 382.086335 
L 110.286592 373.043736 
L 104.122388 364.423133 
L 98.515376 356.226186 
L 93.466719 348.443792 
L 88.954926 341.057649 
L 84.934274 334.042401 
L 81.356602 327.371458 
L 78.187783 321.016379 
L 75.40707 314.94745 
L 73.004511 309.133682 
L 70.975302 303.541694 
L 69.31429 298.137214 
L 68.01427 292.884787 
L 67.067069 287.748724 
L 66.464386 282.693353 
L 66.199832 277.683338 
L 66.268044 272.683542 
L 66.666817 267.659294 
L 67.396101 262.576107 
L 68.458138 257.399795 
L 69.860495 252.096211 
L 71.613219 246.631259 
L 73.734533 240.970503 
L 76.247451 235.079099 
L 79.179953 228.921645 
L 82.556145 222.463548 
L 86.393853 215.67065 
L 90.696492 208.514228 
L 95.465076 200.970244 
L 100.711168 193.02067 
L 106.480878 184.655868 
L 112.837103 175.868565 
L 119.825515 166.665776 
L 127.463857 157.066742 
L 135.737967 147.107424 
L 144.64941 136.85403 
L 154.223304 126.384668 
L 159.271567 121.103837 
L 164.499281 115.814329 
L 169.909325 110.533887 
L 175.503592 105.280654 
L 181.279671 100.077191 
L 187.23254 94.949075 
L 193.357173 89.921882 
L 199.648129 85.021505 
L 206.099532 80.275912 
L 212.704235 75.714483 
L 219.454214 71.366899 
L 226.341446 67.262838 
L 233.357373 63.430724 
L 240.493677 59.902232 
L 247.739923 56.704826 
L 255.084293 53.862208 
L 262.514971 51.398078 
L 270.019862 49.333381 
L 277.586031 47.691706 
L 285.19924 46.486785 
L 292.844763 45.725438 
L 300.507872 45.414489 
L 308.174047 45.557771 
L 315.827591 46.158942 
L 323.45332 47.210762 
L 331.036727 48.69952 
L 338.563304 50.611505 
L 346.019186 52.931307 
L 353.389491 55.640703 
L 360.66157 58.715329 
L 367.824325 62.127951 
L 374.866658 65.851332 
L 381.778518 69.858322 
L 388.548953 74.118624 
L 395.170857 78.602391 
L 401.63941 83.280682 
L 407.949796 88.124553 
L 414.09749 93.106206 
L 420.080519 98.19633 
L 425.898171 103.369896 
L 431.549786 108.604396 
L 437.034705 113.877321 
L 442.352304 119.16762 
L 452.475368 129.719117 
L 461.897321 140.13341 
L 470.602663 150.30654 
L 478.608703 160.161824 
L 485.971752 169.651865 
L 492.753013 178.73919 
L 498.976347 187.408109 
L 504.643514 195.652932 
L 509.748867 203.481069 
L 514.316467 210.91188 
L 518.387573 217.968509 
L 522.008608 224.678288 
L 525.217859 231.069477 
L 528.038192 237.171253 
L 530.478784 243.015072 
L 532.545356 248.633481 
L 534.243209 254.061068 
L 535.578995 259.333062 
L 536.560906 264.48518 
L 537.196858 269.553085 
L 537.49423 274.572289 
L 537.45761 279.577841 
L 537.089953 284.604588 
L 536.391826 289.687011 
L 535.359946 294.8594 
L 533.989379 300.155861 
L 532.268002 305.610598 
L 530.179568 311.25806 
L 527.701323 317.133045 
L 524.806444 323.270694 
L 521.467113 329.706674 
L 517.668735 336.473849 
L 513.404946 343.602412 
L 508.677639 351.117041 
L 503.470453 359.034535 
L 497.744946 367.368631 
L 491.441386 376.122629 
L 484.50639 385.29327 
L 476.920549 394.86427 
L 468.695372 404.794489 
L 459.838267 415.030786 
L 450.320914 425.484993 
L 445.303591 430.760913 
L 440.103998 436.051511 
L 434.721305 441.337051 
L 429.156747 446.596111 
L 423.411559 451.80727 
L 417.488075 456.947688 
L 411.390668 461.993461 
L 405.125727 466.91677 
L 398.700065 471.688927 
L 392.120496 476.281246 
L 385.394522 480.665429 
L 378.528751 484.809729 
L 371.532415 488.685294 
L 364.415365 492.264066 
L 357.187449 495.517985 
L 349.859243 498.421878 
L 342.441593 500.945727 
L 334.947678 503.070864 
L 327.391135 504.78123 
L 319.785602 506.060765 
L 312.144878 506.897934 
L 304.484034 507.278135 
L 296.818171 507.20218 
L 289.162334 506.67412 
L 281.531566 505.698006 
L 273.940357 504.281793 
L 266.404687 502.434223 
L 258.938175 500.175235 
L 251.553927 497.526926 
L 244.265049 494.511388 
L 237.083451 491.152201 
L 230.022581 487.476267 
L 223.091482 483.512767 
L 216.298337 479.291218 
L 209.651326 474.841138 
L 203.157202 470.191169 
L 196.822766 465.372926 
L 190.650322 460.413463 
L 184.6414 455.338974 
L 178.79753 450.17565 
L 173.120565 444.947736 
L 167.608924 439.68095 
L 162.264456 434.394468 
L 157.089639 429.106334 
L 147.257418 418.595209 
L 138.140798 408.273408 
L 129.733941 398.224859 
L 122.005851 388.516677 
L 114.893266 379.192547 
L 108.350844 370.276964 
L 102.362362 361.785928 
L 96.93226 353.715725 
L 92.057289 346.055092 
L 87.706562 338.782703 
L 83.832886 331.872526 
L 80.389322 325.297504 
L 77.348109 319.028569 
L 74.690993 313.035691 
L 72.410695 307.287102 
L 70.502438 301.749059 
L 68.960662 296.386877 
L 67.777702 291.164925 
L 66.94542 286.04747 
L 66.456033 280.998888 
L 66.303665 275.983861 
L 66.483658 270.967327 
L 66.994881 265.914658 
L 67.837911 260.791369 
L 69.016674 255.563281 
L 70.54 250.196146 
L 72.41992 244.655789 
L 74.677425 238.90747 
L 77.336962 232.916142 
L 80.426268 226.646369 
L 83.967204 220.063946 
L 87.972248 213.135579 
L 92.44209 205.835006 
L 97.379976 198.139867 
L 102.809674 190.035201 
L 108.78346 181.513117 
L 115.367362 172.568781 
L 122.591732 163.215345 
L 130.463743 153.476756 
L 138.968844 143.399533 
L 148.116299 133.05617 
L 157.942853 122.533854 
L 163.121902 117.244768 
L 168.48287 111.959705 
L 174.026771 106.698266 
L 179.754059 101.479502 
L 185.65971 96.32904 
L 191.738466 91.272788 
L 197.985072 86.336654 
L 204.393279 81.547736 
L 210.957063 76.935193 
L 217.66835 72.528651 
L 224.518981 68.357759 
L 231.500797 64.452161 
L 238.60457 60.839636 
L 245.821638 57.552655 
L 253.140109 54.614643 
L 260.547988 52.04874 
L 268.033282 49.878087 
L 275.583195 48.120639 
L 283.184132 46.799428 
L 290.821334 45.920773 
L 298.48001 45.490564 
L 306.145374 45.51469 
L 313.802766 45.992666 
L 321.43605 46.926138 
L 329.030775 48.300897 
L 336.572524 50.102407 
L 344.046883 52.316132 
L 351.440527 54.923224 
L 358.73854 57.903275 
L 365.929985 61.228838 
L 373.003987 64.872356 
L 379.949669 68.806273 
L 386.758118 73.002396 
L 393.418769 77.429388 
L 399.927066 82.058458 
L 406.278514 86.860839 
L 412.468615 91.807764 
L 418.494167 96.872478 
L 424.354619 102.025979 
L 430.049237 107.246107 
L 435.577288 112.510734 
L 440.938037 117.797732 
L 451.150362 128.360323 
L 460.663907 138.79909 
L 469.462505 149.010628 
L 477.555991 158.912078 
L 484.99922 168.454134 
L 491.850788 177.598794 
L 498.145361 186.325898 
L 503.88425 194.629963 
L 509.059913 202.515608 
L 513.694183 210.001627 
L 517.824147 217.110675 
L 521.498535 223.869604 
L 524.755919 230.306723 
L 527.621795 236.451135 
L 528.911444 239.423238 
L 528.911444 239.423238 
" clip-path="url(#pe7b0c70666)" style="fill: none; stroke-dasharray: 22.4,5.6,3.5,5.6; stroke-dashoffset: 0; stroke: #0000ff; stroke-opacity: 0.8; stroke-width: 3.5"/>
   </g>
   <g id="patch_3">
    <path d="M 42.620313 530.438125 
L 42.620313 22.318125 
" style="fill: none; stroke: #000000; stroke-width: 0.8; stroke-linejoin: miter; stroke-linecap: square"/>
   </g>
   <g id="patch_4">
    <path d="M 561.210312 530.438125 
L 561.210312 22.318125 
" style="fill: none; stroke: #000000; stroke-width: 0.8; stroke-linejoin: miter; stroke-linecap: square"/>
   </g>
   <g id="patch_5">
    <path d="M 42.620313 530.438125 
L 561.210312 530.438125 
" style="fill: none; stroke: #000000; stroke-width: 0.8; stroke-linejoin: miter; stroke-linecap: square"/>
   </g>
   <g id="patch_6">
    <path d="M 42.620313 22.318125 
L 561.210312 22.318125 
" style="fill: none; stroke: #000000; stroke-width: 0.8; stroke-linejoin: miter; stroke-linecap: square"/>
   </g>
   <g id="line2d_13">
    <path d="M 536.856643 265.625462 
L 537.39289 270.932753 
L 537.580169 276.149396 
L 537.422742 281.311996 
L 536.923397 286.456715 
L 536.082013 291.618852 
L 534.896116 296.833138 
L 533.361547 302.13384 
L 531.470919 307.554329 
L 529.215563 313.127591 
L 526.584125 318.885464 
L 523.563206 324.858584 
L 520.137868 331.076533 
L 516.290553 337.565544 
L 512.002717 344.350207 
L 507.253929 351.450028 
L 502.022776 358.879065 
L 496.287017 366.646684 
L 490.024346 374.749084 
L 483.212631 383.176388 
L 475.831187 391.901627 
L 467.861879 400.88195 
L 459.28851 410.060842 
L 450.102153 419.351302 
L 445.277242 424.007813 
L 440.297216 428.653319 
L 435.163579 433.26909 
L 429.877835 437.836396 
L 424.441747 442.336228 
L 418.857471 446.748188 
L 413.12765 451.050395 
L 407.2574 455.218524 
L 401.251835 459.228249 
L 395.116342 463.055446 
L 388.856892 466.674826 
L 382.480304 470.060288 
L 375.995785 473.187878 
L 369.412542 476.033646 
L 362.739966 478.574486 
L 355.988147 480.787135 
L 349.168163 482.649412 
L 342.292534 484.146499 
L 335.373779 485.263575 
L 328.424421 485.987055 
L 321.457609 486.30475 
L 314.487158 486.207796 
L 307.526791 485.696974 
L 300.590229 484.773064 
L 293.691001 483.437884 
L 286.842953 481.695814 
L 280.059888 479.555317 
L 273.354108 477.032101 
L 266.737912 474.141875 
L 260.223292 470.900742 
L 253.822131 467.327253 
L 247.545558 463.442593 
L 241.402532 459.270131 
L 235.402009 454.833238 
L 229.552631 450.155024 
L 223.862611 445.259864 
L 218.33905 440.172313 
L 212.987021 434.914848 
L 207.8116 429.50995 
L 202.817613 423.979484 
L 198.009358 418.345299 
L 193.390087 412.627594 
L 188.961622 406.842709 
L 184.725786 401.00698 
L 180.684257 395.136099 
L 176.838256 389.245018 
L 173.18827 383.346449 
L 169.734024 377.449455 
L 166.475243 371.563097 
L 163.411595 365.695931 
L 160.54244 359.855637 
L 157.866762 354.047957 
L 155.383299 348.276041 
L 153.090785 342.543039 
L 150.987962 336.85179 
L 149.073408 331.204418 
L 147.34561 325.60175 
L 145.80312 320.043156 
L 144.44449 314.528005 
L 143.268309 309.055534 
L 142.273114 303.624486 
L 141.457525 298.232965 
L 140.820369 292.878543 
L 140.360471 287.558793 
L 140.0767 282.271312 
L 139.967947 277.013375 
L 140.033263 271.782195 
L 140.271904 266.575194 
L 140.683127 261.389792 
L 141.266215 256.22359 
L 142.020524 251.073962 
L 142.945547 245.938763 
L 144.040877 240.816708 
L 145.306108 235.706512 
L 146.740811 230.607227 
L 148.344677 225.517738 
L 150.117414 220.437975 
L 152.05862 215.369352 
L 154.167893 210.313279 
L 156.444737 205.271657 
L 158.888812 200.246302 
L 161.49957 195.240645 
L 164.276057 190.260119 
L 167.217317 185.310157 
L 170.322206 180.396759 
L 173.589753 175.526042 
L 177.018458 170.706122 
L 180.606068 165.947282 
L 184.350329 161.259802 
L 188.248707 156.65443 
L 192.298805 152.142408 
L 196.497335 147.736789 
L 200.839963 143.452211 
L 205.322352 139.303314 
L 209.93984 135.304815 
L 214.687773 131.472414 
L 219.560346 127.822418 
L 224.550612 124.371175 
L 229.651623 121.135035 
L 234.856148 118.129801 
L 240.156749 115.372521 
L 245.544862 112.878658 
L 251.011019 110.66157 
L 256.545749 108.734613 
L 262.139446 107.110013 
L 267.782078 105.800883 
L 273.462921 104.816472 
L 279.170899 104.162233 
L 284.894937 103.843624 
L 290.624032 103.864779 
L 296.346665 104.22976 
L 302.051371 104.937805 
L 307.72701 105.984199 
L 313.362446 107.364224 
L 318.946801 109.072191 
L 324.468788 111.101363 
L 329.917935 113.441262 
L 335.284617 116.078878 
L 340.559208 119.0012 
L 345.732448 122.1949 
L 350.794899 125.645259 
L 355.738411 129.33621 
L 360.555871 133.251168 
L 365.240168 137.373549 
L 369.78455 141.687049 
L 374.182326 146.174312 
L 378.42815 150.818906 
L 382.517608 155.605395 
L 386.446287 160.51834 
L 390.21006 165.542904 
L 393.804999 170.663802 
L 397.228268 175.86789 
L 400.477711 181.143611 
L 403.551166 186.479409 
L 406.446665 191.864349 
L 409.16246 197.287546 
L 411.697538 202.740368 
L 414.051286 208.215633 
L 416.223094 213.706161 
L 418.212456 219.205236 
L 420.019041 224.706456 
L 421.642927 230.205097 
L 423.084393 235.697399 
L 424.343718 241.179601 
L 425.421237 246.648178 
L 426.317378 252.100013 
L 427.032773 257.532818 
L 427.568149 262.944704 
L 427.924235 268.333781 
L 428.101804 273.69815 
L 428.101631 279.036337 
L 427.924634 284.346815 
L 427.571818 289.627933 
L 427.044186 294.878036 
L 426.342813 300.095239 
L 425.468688 305.278061 
L 424.423024 310.42416 
L 423.207188 315.530641 
L 421.822545 320.594608 
L 420.27059 325.612759 
L 418.552653 330.582116 
L 416.670497 335.498219 
L 414.626156 340.35578 
L 412.421664 345.14951 
L 410.059262 349.873645 
L 407.540974 354.522539 
L 404.869546 359.08884 
L 402.048128 363.56434 
L 399.079872 367.940824 
L 395.968209 372.209731 
L 392.716366 376.362226 
L 389.328554 380.388236 
L 385.809499 384.277153 
L 382.163926 388.018366 
L 378.396869 391.601265 
L 374.513256 395.01449 
L 370.519122 398.246754 
L 366.421024 401.286931 
L 362.225517 404.123893 
L 357.939419 406.747031 
L 353.569625 409.144654 
L 349.123981 411.307049 
L 344.610721 413.225524 
L 340.03808 414.891389 
L 335.414422 416.296945 
L 330.7484 417.433521 
L 326.049133 418.296099 
L 321.325882 418.881317 
L 316.587908 419.185813 
L 311.844417 419.207398 
L 307.105035 418.943493 
L 302.379182 418.395683 
L 297.676123 417.567269 
L 293.005129 416.461551 
L 288.375235 415.082773 
L 283.795892 413.435529 
L 279.27571 411.527597 
L 274.822914 409.36794 
L 270.445732 406.96552 
L 266.15205 404.329744 
L 261.950039 401.470826 
L 257.846645 398.400284 
L 253.848329 395.130035 
L 249.961552 391.671994 
L 246.192406 388.038004 
L 242.547103 384.240735 
L 239.030564 380.292361 
L 235.647244 376.204808 
L 232.401599 371.989999 
L 229.297754 367.659458 
L 226.339827 363.225246 
L 223.530819 358.697899 
L 220.873355 354.087386 
L 218.370061 349.403676 
L 216.023306 344.656246 
L 213.83539 339.854763 
L 211.807768 335.007195 
L 209.941627 330.12094 
L 208.238151 325.203398 
L 206.698339 320.261574 
L 205.323126 315.302382 
L 204.112843 310.331483 
L 203.067633 305.354147 
L 202.187643 300.375646 
L 201.472872 295.401054 
L 200.923305 290.435188 
L 200.538463 285.482337 
L 200.317722 280.546647 
L 200.260461 275.632265 
L 200.365916 270.743366 
L 200.633387 265.883789 
L 201.061712 261.057611 
L 201.649592 256.268994 
L 202.395731 251.5221 
L 203.298662 246.821305 
L 204.357054 242.170676 
L 205.569012 237.575107 
L 206.932476 233.039738 
L 208.445384 228.569706 
L 210.105464 224.170455 
L 211.910622 219.847266 
L 213.858035 215.606477 
L 215.944669 211.454709 
L 218.16749 207.398584 
L 220.523202 203.44497 
L 223.008699 199.600852 
L 225.619975 195.873952 
L 228.352786 192.272169 
L 231.202889 188.803403 
L 234.165754 185.475553 
L 237.236981 182.297005 
L 240.411218 179.275942 
L 243.682876 176.420471 
L 247.046368 173.7387 
L 250.495857 171.238355 
L 254.025499 168.927946 
L 257.628652 166.814426 
L 261.29849 164.904355 
L 265.028188 163.204291 
L 268.810769 161.720019 
L 272.639091 160.458158 
L 276.505585 159.422528 
L 280.402602 158.616297 
L 284.322493 158.042633 
L 288.257605 157.703711 
L 292.199988 157.602263 
L 296.141795 157.7377 
L 300.075217 158.108714 
L 303.992446 158.713997 
L 307.885829 159.551313 
L 311.747367 160.618511 
L 315.56969 161.910604 
L 319.345566 163.422033 
L 323.067769 165.14724 
L 326.729351 167.080058 
L 330.323061 169.213984 
L 333.842644 171.540913 
L 337.282048 174.052439 
L 340.635224 176.740159 
L 343.896468 179.595477 
L 347.059864 182.609277 
L 350.120643 185.772204 
L 353.074248 189.074876 
L 355.916123 192.50791 
L 358.642064 196.062074 
L 361.247753 199.727671 
L 363.729964 203.495737 
L 366.085664 207.357447 
L 368.31182 211.303978 
L 370.405713 215.32683 
L 372.364576 219.417225 
L 374.186575 223.567487 
L 375.870034 227.770126 
L 377.413276 232.017655 
L 378.81489 236.30291 
L 380.073433 240.618659 
L 381.188235 244.958616 
L 382.158743 249.316646 
L 382.984406 253.686614 
L 383.664902 258.062593 
L 384.199856 262.438748 
L 384.589559 266.809738 
L 384.834395 271.170295 
L 384.934752 275.51515 
L 384.891229 279.839082 
L 384.704337 284.137041 
L 384.375222 288.403958 
L 383.90512 292.634759 
L 383.295267 296.824367 
L 382.547122 300.967617 
L 381.662013 305.059502 
L 380.641951 309.094623 
L 379.489038 313.067527 
L 378.20538 316.97276 
L 376.793328 320.804724 
L 375.255075 324.557861 
L 373.593581 328.226163 
L 371.811906 331.803571 
L 369.913107 335.28402 
L 367.900512 338.661377 
L 365.777302 341.929335 
L 363.547476 345.081506 
L 361.215133 348.111496 
L 358.784369 351.012911 
L 356.259545 353.779494 
L 353.64494 356.404568 
L 350.945597 358.882139 
L 348.166645 361.20629 
L 345.313214 363.371107 
L 342.390651 365.371114 
L 339.404317 367.200231 
L 336.360146 368.854 
L 333.264124 370.328135 
L 330.122242 371.618349 
L 326.940606 372.72108 
L 323.72546 373.63215 
L 320.483269 374.349741 
L 317.22052 374.872265 
L 313.943698 375.198138 
L 310.659272 375.326639 
L 307.373945 375.256619 
L 304.09422 374.98948 
L 300.82658 374.52686 
L 297.577507 373.870396 
L 294.35333 373.022523 
L 291.160652 371.985544 
L 288.005483 370.763868 
L 284.893783 369.362079 
L 281.831509 367.784762 
L 278.824357 366.037056 
L 275.878278 364.124235 
L 272.998358 362.052802 
L 270.189619 359.829351 
L 267.457077 357.46048 
L 264.805421 354.953016 
L 262.239548 352.314072 
L 259.763371 349.551055 
L 257.380734 346.671392 
L 255.095479 343.682511 
L 252.911103 340.591798 
L 250.83125 337.406928 
L 248.8586 334.135207 
L 246.995768 330.783918 
L 245.245368 327.36034 
L 243.609685 323.871561 
L 242.091112 320.324869 
L 240.691161 316.72691 
L 239.411294 313.084294 
L 238.25297 309.403632 
L 237.217349 305.691312 
L 236.305683 301.953809 
L 235.518442 298.197026 
L 234.856053 294.426836 
L 234.318943 290.64911 
L 233.907263 286.869568 
L 233.621266 283.093919 
L 233.460483 279.327555 
L 233.424414 275.575855 
L 233.512556 271.844198 
L 233.724145 268.137908 
L 234.058532 264.462255 
L 234.51437 260.822466 
L 235.090283 257.223764 
L 235.784894 253.671372 
L 236.59656 250.170528 
L 237.523773 246.72645 
L 238.564311 243.344433 
L 239.715927 240.029776 
L 240.976373 236.787777 
L 242.34313 233.623739 
L 243.813811 230.543055 
L 245.385307 227.551061 
L 247.054487 224.653094 
L 248.818219 221.854491 
L 250.673105 219.160484 
L 252.61585 216.576549 
L 254.642476 214.107699 
L 256.748988 211.758937 
L 258.931393 209.535265 
L 261.18546 207.441382 
L 263.507002 205.482383 
L 265.891278 203.662305 
L 268.333539 201.985165 
L 270.829033 200.45498 
L 273.372845 199.075233 
L 275.960014 197.849882 
L 278.585264 196.78125 
L 281.243313 195.871639 
L 283.92888 195.123349 
L 286.636619 194.537963 
L 289.36106 194.117514 
L 292.096722 193.862068 
L 294.838125 193.771677 
L 297.579788 193.846393 
L 300.316292 194.085497 
L 303.042027 194.488583 
L 305.751699 195.053352 
L 308.440017 195.777502 
L 311.101689 196.658728 
L 313.731602 197.694068 
L 316.324427 198.880667 
L 318.875423 200.214242 
L 321.379853 201.690509 
L 323.832981 203.30518 
L 326.230329 205.05354 
L 328.567227 206.930795 
L 330.839763 208.931381 
L 333.044024 211.049729 
L 335.176103 213.28027 
L 337.23239 215.617249 
L 339.209134 218.054752 
L 341.103397 220.586686 
L 342.912239 223.206954 
L 344.632735 225.909464 
L 346.262254 228.688119 
L 347.798079 231.536679 
L 349.238283 234.449099 
L 350.580938 237.419337 
L 352.966234 243.509207 
L 354.94115 249.75863 
L 356.497354 256.121719 
L 357.62833 262.553384 
L 358.331102 269.010013 
L 358.605579 275.449241 
L 358.454007 281.829533 
L 358.220116 284.984914 
L 358.220116 284.984914 
" clip-path="url(#pe7b0c70666)" style="fill: none; stroke-dasharray: 3.5,5.775; stroke-dashoffset: 0; stroke: #008000; stroke-opacity: 0.8; stroke-width: 3.5"/>
   </g>
   <g id="text_13">
    <!-- Phase Portrait (x0 vs x1) -->
    <g transform="translate(228.224062 16.318125) scale(0.12 -0.12)">
     <defs>
      <path id="DejaVuSans-50" d="M 1259 4147 
L 1259 2394 
L 2053 2394 
Q 2494 2394 2734 2622 
Q 2975 2850 2975 3272 
Q 2975 3691 2734 3919 
Q 2494 4147 2053 4147 
L 1259 4147 
z
M 628 4666 
L 2053 4666 
Q 2838 4666 3239 4311 
Q 3641 3956 3641 3272 
Q 3641 2581 3239 2228 
Q 2838 1875 2053 1875 
L 1259 1875 
L 1259 0 
L 628 0 
L 628 4666 
z
" transform="scale(0.015625)"/>
      <path id="DejaVuSans-68" d="M 3513 2113 
L 3513 0 
L 2938 0 
L 2938 2094 
Q 2938 2591 2744 2837 
Q 2550 3084 2163 3084 
Q 1697 3084 1428 2787 
Q 1159 2491 1159 1978 
L 1159 0 
L 581 0 
L 581 4863 
L 1159 4863 
L 1159 2956 
Q 1366 3272 1645 3428 
Q 1925 3584 2291 3584 
Q 2894 3584 3203 3211 
Q 3513 2838 3513 2113 
z
" transform="scale(0.015625)"/>
      <path id="DejaVuSans-61" d="M 2194 1759 
Q 1497 1759 1228 1600 
Q 959 1441 959 1056 
Q 959 750 1161 570 
Q 1363 391 1709 391 
Q 2188 391 2477 730 
Q 2766 1069 2766 1631 
L 2766 1759 
L 2194 1759 
z
M 3341 1997 
L 3341 0 
L 2766 0 
L 2766 531 
Q 2569 213 2275 61 
Q 1981 -91 1556 -91 
Q 1019 -91 701 211 
Q 384 513 384 1019 
Q 384 1609 779 1909 
Q 1175 2209 1959 2209 
L 2766 2209 
L 2766 2266 
Q 2766 2663 2505 2880 
Q 2244 3097 1772 3097 
Q 1472 3097 1187 3025 
Q 903 2953 641 2809 
L 641 3341 
Q 956 3463 1253 3523 
Q 1550 3584 1831 3584 
Q 2591 3584 2966 3190 
Q 3341 2797 3341 1997 
z
" transform="scale(0.015625)"/>
      <path id="DejaVuSans-73" d="M 2834 3397 
L 2834 2853 
Q 2591 2978 2328 3040 
Q 2066 3103 1784 3103 
Q 1356 3103 1142 2972 
Q 928 2841 928 2578 
Q 928 2378 1081 2264 
Q 1234 2150 1697 2047 
L 1894 2003 
Q 2506 1872 2764 1633 
Q 3022 1394 3022 966 
Q 3022 478 2636 193 
Q 2250 -91 1575 -91 
Q 1294 -91 989 -36 
Q 684 19 347 128 
L 347 722 
Q 666 556 975 473 
Q 1284 391 1588 391 
Q 1994 391 2212 530 
Q 2431 669 2431 922 
Q 2431 1156 2273 1281 
Q 2116 1406 1581 1522 
L 1381 1569 
Q 847 1681 609 1914 
Q 372 2147 372 2553 
Q 372 3047 722 3315 
Q 1072 3584 1716 3584 
Q 2034 3584 2315 3537 
Q 2597 3491 2834 3397 
z
" transform="scale(0.015625)"/>
      <path id="DejaVuSans-65" d="M 3597 1894 
L 3597 1613 
L 953 1613 
Q 991 1019 1311 708 
Q 1631 397 2203 397 
Q 2534 397 2845 478 
Q 3156 559 3463 722 
L 3463 178 
Q 3153 47 2828 -22 
Q 2503 -91 2169 -91 
Q 1331 -91 842 396 
Q 353 884 353 1716 
Q 353 2575 817 3079 
Q 1281 3584 2069 3584 
Q 2775 3584 3186 3129 
Q 3597 2675 3597 1894 
z
M 3022 2063 
Q 3016 2534 2758 2815 
Q 2500 3097 2075 3097 
Q 1594 3097 1305 2825 
Q 1016 2553 972 2059 
L 3022 2063 
z
" transform="scale(0.015625)"/>
      <path id="DejaVuSans-20" transform="scale(0.015625)"/>
      <path id="DejaVuSans-6f" d="M 1959 3097 
Q 1497 3097 1228 2736 
Q 959 2375 959 1747 
Q 959 1119 1226 758 
Q 1494 397 1959 397 
Q 2419 397 2687 759 
Q 2956 1122 2956 1747 
Q 2956 2369 2687 2733 
Q 2419 3097 1959 3097 
z
M 1959 3584 
Q 2709 3584 3137 3096 
Q 3566 2609 3566 1747 
Q 3566 888 3137 398 
Q 2709 -91 1959 -91 
Q 1206 -91 779 398 
Q 353 888 353 1747 
Q 353 2609 779 3096 
Q 1206 3584 1959 3584 
z
" transform="scale(0.015625)"/>
      <path id="DejaVuSans-72" d="M 2631 2963 
Q 2534 3019 2420 3045 
Q 2306 3072 2169 3072 
Q 1681 3072 1420 2755 
Q 1159 2438 1159 1844 
L 1159 0 
L 581 0 
L 581 3500 
L 1159 3500 
L 1159 2956 
Q 1341 3275 1631 3429 
Q 1922 3584 2338 3584 
Q 2397 3584 2469 3576 
Q 2541 3569 2628 3553 
L 2631 2963 
z
" transform="scale(0.015625)"/>
      <path id="DejaVuSans-74" d="M 1172 4494 
L 1172 3500 
L 2356 3500 
L 2356 3053 
L 1172 3053 
L 1172 1153 
Q 1172 725 1289 603 
Q 1406 481 1766 481 
L 2356 481 
L 2356 0 
L 1766 0 
Q 1100 0 847 248 
Q 594 497 594 1153 
L 594 3053 
L 172 3053 
L 172 3500 
L 594 3500 
L 594 4494 
L 1172 4494 
z
" transform="scale(0.015625)"/>
      <path id="DejaVuSans-69" d="M 603 3500 
L 1178 3500 
L 1178 0 
L 603 0 
L 603 3500 
z
M 603 4863 
L 1178 4863 
L 1178 4134 
L 603 4134 
L 603 4863 
z
" transform="scale(0.015625)"/>
      <path id="DejaVuSans-28" d="M 1984 4856 
Q 1566 4138 1362 3434 
Q 1159 2731 1159 2009 
Q 1159 1288 1364 580 
Q 1569 -128 1984 -844 
L 1484 -844 
Q 1016 -109 783 600 
Q 550 1309 550 2009 
Q 550 2706 781 3412 
Q 1013 4119 1484 4856 
L 1984 4856 
z
" transform="scale(0.015625)"/>
      <path id="DejaVuSans-76" d="M 191 3500 
L 800 3500 
L 1894 563 
L 2988 3500 
L 3597 3500 
L 2284 0 
L 1503 0 
L 191 3500 
z
" transform="scale(0.015625)"/>
      <path id="DejaVuSans-29" d="M 513 4856 
L 1013 4856 
Q 1481 4119 1714 3412 
Q 1947 2706 1947 2009 
Q 1947 1309 1714 600 
Q 1481 -109 1013 -844 
L 513 -844 
Q 928 -128 1133 580 
Q 1338 1288 1338 2009 
Q 1338 2731 1133 3434 
Q 928 4138 513 4856 
z
" transform="scale(0.015625)"/>
     </defs>
     <use xlink:href="#DejaVuSans-50"/>
     <use xlink:href="#DejaVuSans-68" transform="translate(60.302734 0)"/>
     <use xlink:href="#DejaVuSans-61" transform="translate(123.681641 0)"/>
     <use xlink:href="#DejaVuSans-73" transform="translate(184.960938 0)"/>
     <use xlink:href="#DejaVuSans-65" transform="translate(237.060547 0)"/>
     <use xlink:href="#DejaVuSans-20" transform="translate(298.583984 0)"/>
     <use xlink:href="#DejaVuSans-50" transform="translate(330.371094 0)"/>
     <use xlink:href="#DejaVuSans-6f" transform="translate(387.048828 0)"/>
     <use xlink:href="#DejaVuSans-72" transform="translate(448.230469 0)"/>
     <use xlink:href="#DejaVuSans-74" transform="translate(489.34375 0)"/>
     <use xlink:href="#DejaVuSans-72" transform="translate(528.552734 0)"/>
     <use xlink:href="#DejaVuSans-61" transform="translate(569.666016 0)"/>
     <use xlink:href="#DejaVuSans-69" transform="translate(630.945312 0)"/>
     <use xlink:href="#DejaVuSans-74" transform="translate(658.728516 0)"/>
     <use xlink:href="#DejaVuSans-20" transform="translate(697.9375 0)"/>
     <use xlink:href="#DejaVuSans-28" transform="translate(729.724609 0)"/>
     <use xlink:href="#DejaVuSans-78" transform="translate(768.738281 0)"/>
     <use xlink:href="#DejaVuSans-30" transform="translate(827.917969 0)"/>
     <use xlink:href="#DejaVuSans-20" transform="translate(891.541016 0)"/>
     <use xlink:href="#DejaVuSans-76" transform="translate(923.328125 0)"/>
     <use xlink:href="#DejaVuSans-73" transform="translate(982.507812 0)"/>
     <use xlink:href="#DejaVuSans-20" transform="translate(1034.607422 0)"/>
     <use xlink:href="#DejaVuSans-78" transform="translate(1066.394531 0)"/>
     <use xlink:href="#DejaVuSans-31" transform="translate(1125.574219 0)"/>
     <use xlink:href="#DejaVuSans-29" transform="translate(1189.197266 0)"/>
    </g>
   </g>
   <g id="line2d_14">
    <path d="M 536.856643 265.625462 
L 537.395646 270.849557 
L 537.591234 275.982354 
L 537.447693 281.060842 
L 536.967816 286.121564 
L 536.151467 291.200166 
L 534.996127 296.331671 
L 533.497582 301.550591 
L 531.648372 306.890426 
L 529.439748 312.384233 
L 526.860282 318.063821 
L 523.896498 323.959718 
L 520.53339 330.101353 
L 516.75335 336.514788 
L 512.537785 343.224455 
L 507.866232 350.249843 
L 502.717231 357.605181 
L 497.068493 365.300214 
L 490.897589 373.33213 
L 484.182228 381.692325 
L 476.901423 390.355957 
L 469.036574 399.282951 
L 460.570871 408.420205 
L 451.494399 417.685047 
L 446.724919 422.336174 
L 441.800423 426.982115 
L 436.722188 431.604734 
L 431.491492 436.185894 
L 426.109864 440.707154 
L 420.579216 445.148688 
L 414.9019 449.4892 
L 409.08273 453.704601 
L 403.126518 457.770804 
L 397.038352 461.663868 
L 390.823894 465.35863 
L 384.489614 468.828969 
L 378.044438 472.050441 
L 371.497289 474.998605 
L 364.857284 477.649816 
L 358.134246 479.980168 
L 351.338986 481.966576 
L 344.483879 483.593098 
L 337.581301 484.843791 
L 330.643642 485.703943 
L 323.683942 486.160168 
L 316.715957 486.202238 
L 309.753459 485.829797 
L 302.810223 485.042488 
L 295.899838 483.841027 
L 289.036237 482.22873 
L 282.233376 480.213043 
L 275.503755 477.809092 
L 268.85987 475.032004 
L 262.313914 471.897339 
L 255.877986 468.423207 
L 249.563476 464.630511 
L 243.379583 460.54265 
L 237.335505 456.18302 
L 231.440124 451.57478 
L 225.701893 446.74243 
L 220.128165 441.710781 
L 214.724222 436.502663 
L 209.495343 431.140904 
L 204.44656 425.647729 
L 199.582363 420.045363 
L 194.906194 414.354454 
L 190.420015 408.591753 
L 186.12579 402.774011 
L 182.025335 396.917332 
L 178.119997 391.037072 
L 174.410378 385.146371 
L 170.896277 379.254644 
L 167.577497 373.371304 
L 164.453779 367.50526 
L 161.524548 361.664527 
L 158.788838 355.855172 
L 156.245411 350.080603 
L 153.89303 344.344226 
L 151.730459 338.64913 
L 149.756292 332.997673 
L 147.969022 327.390897 
L 146.367193 321.828323 
L 144.949349 316.30947 
L 143.714069 310.833718 
L 142.659877 305.399944 
L 141.785373 300.006352 
L 141.089358 294.650565 
L 140.570632 289.330206 
L 140.228043 284.042912 
L 140.060451 278.785992 
L 140.066879 273.556657 
L 140.246557 268.35228 
L 140.59872 263.170236 
L 141.122627 258.008061 
L 141.817608 252.86307 
L 142.683137 247.733011 
L 143.718799 242.616446 
L 144.924178 237.511938 
L 146.298844 232.418368 
L 147.842478 227.334458 
L 149.554798 222.259911 
L 151.435427 217.195869 
L 153.48399 212.143474 
L 155.700027 207.10434 
L 158.083227 202.079994 
L 160.633098 197.073515 
L 163.348766 192.089957 
L 166.229357 187.134373 
L 169.273818 182.212382 
L 172.481265 177.329695 
L 175.850322 172.493994 
L 179.378883 167.715156 
L 183.064844 163.003056 
L 186.905823 158.368059 
L 190.899584 153.820983 
L 195.043035 149.374513 
L 199.332043 145.043045 
L 203.762478 140.840974 
L 208.329882 136.782826 
L 213.029818 132.884071 
L 217.856717 129.160964 
L 222.803846 125.629996 
L 227.864471 122.307657 
L 233.031567 119.209951 
L 238.29792 116.354137 
L 243.655169 113.756119 
L 249.093996 111.429853 
L 254.605084 109.389292 
L 260.178964 107.647283 
L 265.805751 106.217636 
L 271.474809 105.110425 
L 277.175094 104.331933 
L 282.89556 103.888443 
L 288.625221 103.784896 
L 294.352566 104.026232 
L 300.066074 104.612515 
L 305.754507 105.539698 
L 311.406629 106.803736 
L 317.011459 108.399563 
L 322.557583 110.321079 
L 328.034365 112.558266 
L 333.432001 115.098387 
L 338.740688 117.928702 
L 343.950988 121.036116 
L 349.053269 124.406101 
L 354.039176 128.022618 
L 358.901406 131.86899 
L 363.632656 135.92854 
L 368.225989 140.184852 
L 372.674519 144.620415 
L 376.972718 149.21855 
L 381.116014 153.963546 
L 385.099835 158.83969 
L 388.919904 163.831866 
L 392.572137 168.924484 
L 396.053569 174.10408 
L 399.361932 179.358799 
L 402.494958 184.676787 
L 405.450574 190.046816 
L 408.22693 195.457702 
L 410.822933 200.900537 
L 413.237906 206.367906 
L 415.471174 211.852394 
L 417.52217 217.347063 
L 419.390509 222.845288 
L 421.076223 228.342164 
L 422.579559 233.833795 
L 423.900763 239.316287 
L 425.040137 244.785992 
L 425.998082 250.239671 
L 426.775208 255.674969 
L 427.372222 261.089967 
L 427.789834 266.482748 
L 428.028794 271.851398 
L 428.089863 277.194432 
L 427.973939 282.510366 
L 427.682001 287.797626 
L 427.21503 293.054635 
L 426.574072 298.2796 
L 425.760094 303.471133 
L 424.774272 308.627041 
L 423.617929 313.744599 
L 422.292384 318.821084 
L 420.799083 323.853374 
L 419.139308 328.838679 
L 417.314755 333.772769 
L 415.327378 338.650582 
L 413.179132 343.467057 
L 410.872174 348.216659 
L 408.408445 352.893989 
L 405.79058 357.491936 
L 403.021614 362.002496 
L 400.104584 366.417668 
L 397.042799 370.729073 
L 393.839361 374.928102 
L 390.49834 379.004816 
L 387.024319 382.948675 
L 383.421885 386.749142 
L 379.695931 390.395636 
L 375.851233 393.876859 
L 371.893681 397.181428 
L 367.829697 400.298043 
L 363.665703 403.215403 
L 359.408393 405.922685 
L 355.064523 408.407979 
L 350.64183 410.661199 
L 346.148466 412.673233 
L 341.592582 414.434966 
L 336.982475 415.938263 
L 332.326715 417.173964 
L 327.634396 418.136512 
L 322.914776 418.822015 
L 318.177116 419.226585 
L 313.43063 419.347518 
L 308.684959 419.181667 
L 303.949583 418.730128 
L 299.23385 417.995773 
L 294.547107 416.981479 
L 289.898478 415.691102 
L 285.297513 414.12882 
L 280.752946 412.302146 
L 276.273136 410.219852 
L 271.866442 407.890713 
L 267.540881 405.323982 
L 263.30477 402.52973 
L 259.165204 399.51946 
L 255.128788 396.305128 
L 251.202124 392.898685 
L 247.391445 389.312034 
L 243.70311 385.557926 
L 240.142178 381.648686 
L 236.713228 377.596402 
L 233.42084 373.413163 
L 230.26926 369.110661 
L 227.262728 364.701148 
L 224.404352 360.195357 
L 221.696851 355.603445 
L 219.142944 350.935569 
L 216.745093 346.201386 
L 214.505686 341.410759 
L 212.426253 336.571822 
L 210.508046 331.692117 
L 208.752317 326.779189 
L 207.160127 321.840178 
L 205.732475 316.882138 
L 204.469741 311.910826 
L 203.372118 306.931584 
L 202.439801 301.94976 
L 201.672836 296.970487 
L 201.071253 291.998648 
L 200.634614 287.038543 
L 200.362338 282.094319 
L 200.253847 277.170119 
L 200.308421 272.270103 
L 200.525399 267.398096 
L 200.903666 262.558117 
L 201.441972 257.754259 
L 202.139068 252.990619 
L 202.993541 248.271498 
L 204.004105 243.600879 
L 205.168928 238.983556 
L 206.486012 234.424564 
L 207.953359 229.928939 
L 209.568762 225.502024 
L 211.330194 221.148982 
L 213.234909 216.87605 
L 215.279954 212.689764 
L 217.462374 208.596658 
L 219.778955 204.603526 
L 222.226674 200.717257 
L 224.801617 196.945544 
L 227.499628 193.296277 
L 230.316551 189.777347 
L 233.247944 186.396676 
L 236.289501 183.162646 
L 239.435954 180.083542 
L 242.681795 177.167596 
L 246.021514 174.423041 
L 249.449345 171.857757 
L 252.95953 169.480408 
L 256.54548 167.298192 
L 260.200418 165.317926 
L 263.917563 163.54643 
L 267.689975 161.989762 
L 271.510556 160.65484 
L 275.371745 159.545813 
L 279.265889 158.66617 
L 283.185334 158.019402 
L 287.122416 157.607998 
L 291.069172 157.435041 
L 295.017707 157.500242 
L 298.960159 157.802567 
L 302.888665 158.340983 
L 306.795512 159.113505 
L 310.672634 160.118256 
L 314.512571 161.350425 
L 318.308006 162.8046 
L 322.05162 164.475368 
L 325.736375 166.356681 
L 329.354918 168.442158 
L 332.90089 170.723723 
L 336.368138 173.192978 
L 339.75051 175.841526 
L 343.042202 178.660761 
L 346.237192 181.641542 
L 349.330608 184.774441 
L 352.3178 188.049992 
L 355.194119 191.458727 
L 357.955266 194.991326 
L 360.596829 198.637985 
L 363.115499 202.389626 
L 365.508165 206.237314 
L 367.771717 210.172113 
L 369.90336 214.185413 
L 371.900251 218.268317 
L 373.760494 222.413047 
L 375.482351 226.612019 
L 377.064085 230.857652 
L 378.504225 235.142697 
L 379.801274 239.459828 
L 380.954508 243.802698 
L 381.963328 248.165118 
L 382.827136 252.5409 
L 383.545559 256.924072 
L 384.11818 261.308753 
L 384.545242 265.689585 
L 384.827091 270.061289 
L 384.964069 274.418586 
L 384.956732 278.756251 
L 384.80555 283.069234 
L 384.511623 287.352483 
L 384.076145 291.600945 
L 383.500307 295.809564 
L 382.785523 299.973197 
L 381.933077 304.086868 
L 380.944928 308.145207 
L 379.823135 312.142789 
L 378.569751 316.074188 
L 377.18708 319.933829 
L 375.677264 323.716187 
L 374.043211 327.415265 
L 372.287928 331.025004 
L 370.414423 334.539343 
L 368.425972 337.952137 
L 366.325701 341.257082 
L 364.117561 344.447744 
L 361.805602 347.517672 
L 359.393874 350.460419 
L 356.886694 353.269655 
L 354.28829 355.938639 
L 351.60367 358.461254 
L 348.837931 360.831459 
L 345.996172 363.043213 
L 343.08371 365.090898 
L 340.105878 366.968291 
L 337.068596 368.670751 
L 333.977848 370.193815 
L 330.839615 371.533015 
L 327.660005 372.684607 
L 324.44526 373.644212 
L 321.201866 374.409821 
L 317.936334 374.979664 
L 314.655174 375.351971 
L 311.364887 375.525848 
L 308.072207 375.499952 
L 304.783687 375.275541 
L 301.50586 374.854118 
L 298.245261 374.237189 
L 295.008274 373.427072 
L 291.801561 372.425943 
L 288.6312 371.238148 
L 285.503218 369.868219 
L 282.423639 368.320687 
L 279.398225 366.600655 
L 276.433002 364.713362 
L 273.533128 362.665324 
L 270.703691 360.463157 
L 267.949779 358.113478 
L 265.276149 355.623145 
L 262.687769 352.99931 
L 260.188618 350.249439 
L 257.782599 347.381022 
L 255.47362 344.401549 
L 253.265234 341.318469 
L 251.161151 338.139533 
L 249.164101 334.872116 
L 247.276751 331.52357 
L 245.501766 328.101246 
L 243.841479 324.612297 
L 242.298332 321.064082 
L 240.873881 317.463308 
L 239.569626 313.816638 
L 238.387068 310.130737 
L 237.327406 306.412043 
L 236.39193 302.667083 
L 235.581144 298.901795 
L 234.895509 295.122084 
L 234.335485 291.333853 
L 233.901256 287.54285 
L 233.593106 283.75481 
L 233.410598 279.975141 
L 233.353259 276.209235 
L 233.420618 272.462486 
L 233.611939 268.740228 
L 233.926604 265.04774 
L 234.363293 261.390257 
L 234.920659 257.773009 
L 235.597352 254.201226 
L 236.391757 250.680156 
L 237.302396 247.215022 
L 238.327073 243.811134 
L 239.463567 240.473809 
L 240.709656 237.208361 
L 242.062846 234.02012 
L 243.520778 230.914493 
L 245.080366 227.896862 
L 246.738498 224.972605 
L 248.492065 222.147102 
L 250.337688 219.425638 
L 252.272093 216.813736 
L 254.291315 214.316487 
L 256.391371 211.938968 
L 258.568278 209.686258 
L 260.817814 207.563141 
L 263.135802 205.574796 
L 265.5175 203.725364 
L 267.958152 202.018964 
L 270.453006 200.459714 
L 272.997137 199.051201 
L 275.585578 197.797494 
L 278.213034 196.701025 
L 280.8742 195.764198 
L 283.563774 194.989418 
L 286.276387 194.378367 
L 289.006543 193.933185 
L 291.748723 193.654024 
L 294.497413 193.541011 
L 297.247093 193.594275 
L 299.992307 193.813166 
L 302.727403 194.19735 
L 305.447041 194.744567 
L 308.145884 195.452545 
L 310.818594 196.319014 
L 313.460014 197.341025 
L 316.064762 198.515752 
L 318.628052 199.838898 
L 321.145098 201.306166 
L 323.611117 202.913255 
L 326.021587 204.655422 
L 328.371788 206.527854 
L 330.657764 208.52494 
L 332.87556 210.641068 
L 335.021228 212.870624 
L 337.09112 215.207805 
L 339.081439 217.646647 
L 340.989214 220.181 
L 342.811472 222.804714 
L 344.545253 225.511644 
L 346.187898 228.295639 
L 347.736653 231.150403 
L 349.189568 234.069843 
L 350.544689 237.047867 
L 351.800079 240.078391 
L 354.004991 246.272894 
L 355.793639 252.606208 
L 357.158582 259.032635 
L 358.094531 265.507389 
L 358.600388 271.987521 
L 358.676766 278.43077 
L 358.327681 284.796047 
L 358.327681 284.796047 
" clip-path="url(#pe7b0c70666)" style="fill: none; stroke-dasharray: 12.95,5.6; stroke-dashoffset: 0; stroke: #ff0000; stroke-opacity: 0.8; stroke-width: 3.5"/>
   </g>
   <g id="legend_1">
    <g id="patch_7">
     <path d="M 49.620313 89.030625 
L 194.970313 89.030625 
Q 196.970313 89.030625 196.970313 87.030625 
L 196.970313 29.318125 
Q 196.970313 27.318125 194.970313 27.318125 
L 49.620313 27.318125 
Q 47.620313 27.318125 47.620313 29.318125 
L 47.620313 87.030625 
Q 47.620313 89.030625 49.620313 89.030625 
z
" style="fill: #ffffff; opacity: 0.8; stroke: #cccccc; stroke-linejoin: miter"/>
    </g>
    <g id="line2d_15">
     <path d="M 51.620313 35.416562 
L 61.620313 35.416562 
L 71.620313 35.416562 
" style="fill: none; stroke: #000000; stroke-opacity: 0.3; stroke-width: 7; stroke-linecap: square"/>
    </g>
    <g id="text_14">
     <!-- True/Underlying model -->
     <g transform="translate(79.620313 38.916562) scale(0.1 -0.1)">
      <defs>
       <path id="DejaVuSans-54" d="M -19 4666 
L 3928 4666 
L 3928 4134 
L 2272 4134 
L 2272 0 
L 1638 0 
L 1638 4134 
L -19 4134 
L -19 4666 
z
" transform="scale(0.015625)"/>
       <path id="DejaVuSans-75" d="M 544 1381 
L 544 3500 
L 1119 3500 
L 1119 1403 
Q 1119 906 1312 657 
Q 1506 409 1894 409 
Q 2359 409 2629 706 
Q 2900 1003 2900 1516 
L 2900 3500 
L 3475 3500 
L 3475 0 
L 2900 0 
L 2900 538 
Q 2691 219 2414 64 
Q 2138 -91 1772 -91 
Q 1169 -91 856 284 
Q 544 659 544 1381 
z
M 1991 3584 
L 1991 3584 
z
" transform="scale(0.015625)"/>
       <path id="DejaVuSans-2f" d="M 1625 4666 
L 2156 4666 
L 531 -594 
L 0 -594 
L 1625 4666 
z
" transform="scale(0.015625)"/>
       <path id="DejaVuSans-55" d="M 556 4666 
L 1191 4666 
L 1191 1831 
Q 1191 1081 1462 751 
Q 1734 422 2344 422 
Q 2950 422 3222 751 
Q 3494 1081 3494 1831 
L 3494 4666 
L 4128 4666 
L 4128 1753 
Q 4128 841 3676 375 
Q 3225 -91 2344 -91 
Q 1459 -91 1007 375 
Q 556 841 556 1753 
L 556 4666 
z
" transform="scale(0.015625)"/>
       <path id="DejaVuSans-6e" d="M 3513 2113 
L 3513 0 
L 2938 0 
L 2938 2094 
Q 2938 2591 2744 2837 
Q 2550 3084 2163 3084 
Q 1697 3084 1428 2787 
Q 1159 2491 1159 1978 
L 1159 0 
L 581 0 
L 581 3500 
L 1159 3500 
L 1159 2956 
Q 1366 3272 1645 3428 
Q 1925 3584 2291 3584 
Q 2894 3584 3203 3211 
Q 3513 2838 3513 2113 
z
" transform="scale(0.015625)"/>
       <path id="DejaVuSans-64" d="M 2906 2969 
L 2906 4863 
L 3481 4863 
L 3481 0 
L 2906 0 
L 2906 525 
Q 2725 213 2448 61 
Q 2172 -91 1784 -91 
Q 1150 -91 751 415 
Q 353 922 353 1747 
Q 353 2572 751 3078 
Q 1150 3584 1784 3584 
Q 2172 3584 2448 3432 
Q 2725 3281 2906 2969 
z
M 947 1747 
Q 947 1113 1208 752 
Q 1469 391 1925 391 
Q 2381 391 2643 752 
Q 2906 1113 2906 1747 
Q 2906 2381 2643 2742 
Q 2381 3103 1925 3103 
Q 1469 3103 1208 2742 
Q 947 2381 947 1747 
z
" transform="scale(0.015625)"/>
       <path id="DejaVuSans-6c" d="M 603 4863 
L 1178 4863 
L 1178 0 
L 603 0 
L 603 4863 
z
" transform="scale(0.015625)"/>
       <path id="DejaVuSans-79" d="M 2059 -325 
Q 1816 -950 1584 -1140 
Q 1353 -1331 966 -1331 
L 506 -1331 
L 506 -850 
L 844 -850 
Q 1081 -850 1212 -737 
Q 1344 -625 1503 -206 
L 1606 56 
L 191 3500 
L 800 3500 
L 1894 763 
L 2988 3500 
L 3597 3500 
L 2059 -325 
z
" transform="scale(0.015625)"/>
       <path id="DejaVuSans-67" d="M 2906 1791 
Q 2906 2416 2648 2759 
Q 2391 3103 1925 3103 
Q 1463 3103 1205 2759 
Q 947 2416 947 1791 
Q 947 1169 1205 825 
Q 1463 481 1925 481 
Q 2391 481 2648 825 
Q 2906 1169 2906 1791 
z
M 3481 434 
Q 3481 -459 3084 -895 
Q 2688 -1331 1869 -1331 
Q 1566 -1331 1297 -1286 
Q 1028 -1241 775 -1147 
L 775 -588 
Q 1028 -725 1275 -790 
Q 1522 -856 1778 -856 
Q 2344 -856 2625 -561 
Q 2906 -266 2906 331 
L 2906 616 
Q 2728 306 2450 153 
Q 2172 0 1784 0 
Q 1141 0 747 490 
Q 353 981 353 1791 
Q 353 2603 747 3093 
Q 1141 3584 1784 3584 
Q 2172 3584 2450 3431 
Q 2728 3278 2906 2969 
L 2906 3500 
L 3481 3500 
L 3481 434 
z
" transform="scale(0.015625)"/>
       <path id="DejaVuSans-6d" d="M 3328 2828 
Q 3544 3216 3844 3400 
Q 4144 3584 4550 3584 
Q 5097 3584 5394 3201 
Q 5691 2819 5691 2113 
L 5691 0 
L 5113 0 
L 5113 2094 
Q 5113 2597 4934 2840 
Q 4756 3084 4391 3084 
Q 3944 3084 3684 2787 
Q 3425 2491 3425 1978 
L 3425 0 
L 2847 0 
L 2847 2094 
Q 2847 2600 2669 2842 
Q 2491 3084 2119 3084 
Q 1678 3084 1418 2786 
Q 1159 2488 1159 1978 
L 1159 0 
L 581 0 
L 581 3500 
L 1159 3500 
L 1159 2956 
Q 1356 3278 1631 3431 
Q 1906 3584 2284 3584 
Q 2666 3584 2933 3390 
Q 3200 3197 3328 2828 
z
" transform="scale(0.015625)"/>
      </defs>
      <use xlink:href="#DejaVuSans-54"/>
      <use xlink:href="#DejaVuSans-72" transform="translate(46.333984 0)"/>
      <use xlink:href="#DejaVuSans-75" transform="translate(87.447266 0)"/>
      <use xlink:href="#DejaVuSans-65" transform="translate(150.826172 0)"/>
      <use xlink:href="#DejaVuSans-2f" transform="translate(212.349609 0)"/>
      <use xlink:href="#DejaVuSans-55" transform="translate(246.041016 0)"/>
      <use xlink:href="#DejaVuSans-6e" transform="translate(319.234375 0)"/>
      <use xlink:href="#DejaVuSans-64" transform="translate(382.613281 0)"/>
      <use xlink:href="#DejaVuSans-65" transform="translate(446.089844 0)"/>
      <use xlink:href="#DejaVuSans-72" transform="translate(507.613281 0)"/>
      <use xlink:href="#DejaVuSans-6c" transform="translate(548.726562 0)"/>
      <use xlink:href="#DejaVuSans-79" transform="translate(576.509766 0)"/>
      <use xlink:href="#DejaVuSans-69" transform="translate(635.689453 0)"/>
      <use xlink:href="#DejaVuSans-6e" transform="translate(663.472656 0)"/>
      <use xlink:href="#DejaVuSans-67" transform="translate(726.851562 0)"/>
      <use xlink:href="#DejaVuSans-20" transform="translate(790.328125 0)"/>
      <use xlink:href="#DejaVuSans-6d" transform="translate(822.115234 0)"/>
      <use xlink:href="#DejaVuSans-6f" transform="translate(919.527344 0)"/>
      <use xlink:href="#DejaVuSans-64" transform="translate(980.708984 0)"/>
      <use xlink:href="#DejaVuSans-65" transform="translate(1044.185547 0)"/>
      <use xlink:href="#DejaVuSans-6c" transform="translate(1105.708984 0)"/>
     </g>
    </g>
    <g id="line2d_16">
     <path d="M 51.620313 50.094687 
L 61.620313 50.094687 
L 71.620313 50.094687 
" style="fill: none; stroke-dasharray: 12.95,5.6; stroke-dashoffset: 0; stroke: #ff0000; stroke-opacity: 0.8; stroke-width: 3.5"/>
    </g>
    <g id="text_15">
     <!-- AutoSINDy -->
     <g transform="translate(79.620313 53.594687) scale(0.1 -0.1)">
      <defs>
       <path id="DejaVuSans-41" d="M 2188 4044 
L 1331 1722 
L 3047 1722 
L 2188 4044 
z
M 1831 4666 
L 2547 4666 
L 4325 0 
L 3669 0 
L 3244 1197 
L 1141 1197 
L 716 0 
L 50 0 
L 1831 4666 
z
" transform="scale(0.015625)"/>
       <path id="DejaVuSans-53" d="M 3425 4513 
L 3425 3897 
Q 3066 4069 2747 4153 
Q 2428 4238 2131 4238 
Q 1616 4238 1336 4038 
Q 1056 3838 1056 3469 
Q 1056 3159 1242 3001 
Q 1428 2844 1947 2747 
L 2328 2669 
Q 3034 2534 3370 2195 
Q 3706 1856 3706 1288 
Q 3706 609 3251 259 
Q 2797 -91 1919 -91 
Q 1588 -91 1214 -16 
Q 841 59 441 206 
L 441 856 
Q 825 641 1194 531 
Q 1563 422 1919 422 
Q 2459 422 2753 634 
Q 3047 847 3047 1241 
Q 3047 1584 2836 1778 
Q 2625 1972 2144 2069 
L 1759 2144 
Q 1053 2284 737 2584 
Q 422 2884 422 3419 
Q 422 4038 858 4394 
Q 1294 4750 2059 4750 
Q 2388 4750 2728 4690 
Q 3069 4631 3425 4513 
z
" transform="scale(0.015625)"/>
       <path id="DejaVuSans-49" d="M 628 4666 
L 1259 4666 
L 1259 0 
L 628 0 
L 628 4666 
z
" transform="scale(0.015625)"/>
       <path id="DejaVuSans-4e" d="M 628 4666 
L 1478 4666 
L 3547 763 
L 3547 4666 
L 4159 4666 
L 4159 0 
L 3309 0 
L 1241 3903 
L 1241 0 
L 628 0 
L 628 4666 
z
" transform="scale(0.015625)"/>
       <path id="DejaVuSans-44" d="M 1259 4147 
L 1259 519 
L 2022 519 
Q 2988 519 3436 956 
Q 3884 1394 3884 2338 
Q 3884 3275 3436 3711 
Q 2988 4147 2022 4147 
L 1259 4147 
z
M 628 4666 
L 1925 4666 
Q 3281 4666 3915 4102 
Q 4550 3538 4550 2338 
Q 4550 1131 3912 565 
Q 3275 0 1925 0 
L 628 0 
L 628 4666 
z
" transform="scale(0.015625)"/>
      </defs>
      <use xlink:href="#DejaVuSans-41"/>
      <use xlink:href="#DejaVuSans-75" transform="translate(68.408203 0)"/>
      <use xlink:href="#DejaVuSans-74" transform="translate(131.787109 0)"/>
      <use xlink:href="#DejaVuSans-6f" transform="translate(170.996094 0)"/>
      <use xlink:href="#DejaVuSans-53" transform="translate(232.177734 0)"/>
      <use xlink:href="#DejaVuSans-49" transform="translate(295.654297 0)"/>
      <use xlink:href="#DejaVuSans-4e" transform="translate(325.146484 0)"/>
      <use xlink:href="#DejaVuSans-44" transform="translate(399.951172 0)"/>
      <use xlink:href="#DejaVuSans-79" transform="translate(476.953125 0)"/>
     </g>
    </g>
    <g id="line2d_17">
     <path d="M 51.620313 64.772812 
L 61.620313 64.772812 
L 71.620313 64.772812 
" style="fill: none; stroke-dasharray: 3.5,5.775; stroke-dashoffset: 0; stroke: #008000; stroke-opacity: 0.8; stroke-width: 3.5"/>
    </g>
    <g id="text_16">
     <!-- Standard SINDy -->
     <g transform="translate(79.620313 68.272812) scale(0.1 -0.1)">
      <use xlink:href="#DejaVuSans-53"/>
      <use xlink:href="#DejaVuSans-74" transform="translate(63.476562 0)"/>
      <use xlink:href="#DejaVuSans-61" transform="translate(102.685547 0)"/>
      <use xlink:href="#DejaVuSans-6e" transform="translate(163.964844 0)"/>
      <use xlink:href="#DejaVuSans-64" transform="translate(227.34375 0)"/>
      <use xlink:href="#DejaVuSans-61" transform="translate(290.820312 0)"/>
      <use xlink:href="#DejaVuSans-72" transform="translate(352.099609 0)"/>
      <use xlink:href="#DejaVuSans-64" transform="translate(391.462891 0)"/>
      <use xlink:href="#DejaVuSans-20" transform="translate(454.939453 0)"/>
      <use xlink:href="#DejaVuSans-53" transform="translate(486.726562 0)"/>
      <use xlink:href="#DejaVuSans-49" transform="translate(550.203125 0)"/>
      <use xlink:href="#DejaVuSans-4e" transform="translate(579.695312 0)"/>
      <use xlink:href="#DejaVuSans-44" transform="translate(654.5 0)"/>
      <use xlink:href="#DejaVuSans-79" transform="translate(731.501953 0)"/>
     </g>
    </g>
    <g id="line2d_18">
     <path d="M 51.620313 79.450937 
L 61.620313 79.450937 
L 71.620313 79.450937 
" style="fill: none; stroke-dasharray: 22.4,5.6,3.5,5.6; stroke-dashoffset: 0; stroke: #0000ff; stroke-opacity: 0.8; stroke-width: 3.5"/>
    </g>
    <g id="text_17">
     <!-- Standard PySR -->
     <g transform="translate(79.620313 82.950937) scale(0.1 -0.1)">
      <defs>
       <path id="DejaVuSans-52" d="M 2841 2188 
Q 3044 2119 3236 1894 
Q 3428 1669 3622 1275 
L 4263 0 
L 3584 0 
L 2988 1197 
Q 2756 1666 2539 1819 
Q 2322 1972 1947 1972 
L 1259 1972 
L 1259 0 
L 628 0 
L 628 4666 
L 2053 4666 
Q 2853 4666 3247 4331 
Q 3641 3997 3641 3322 
Q 3641 2881 3436 2590 
Q 3231 2300 2841 2188 
z
M 1259 4147 
L 1259 2491 
L 2053 2491 
Q 2509 2491 2742 2702 
Q 2975 2913 2975 3322 
Q 2975 3731 2742 3939 
Q 2509 4147 2053 4147 
L 1259 4147 
z
" transform="scale(0.015625)"/>
      </defs>
      <use xlink:href="#DejaVuSans-53"/>
      <use xlink:href="#DejaVuSans-74" transform="translate(63.476562 0)"/>
      <use xlink:href="#DejaVuSans-61" transform="translate(102.685547 0)"/>
      <use xlink:href="#DejaVuSans-6e" transform="translate(163.964844 0)"/>
      <use xlink:href="#DejaVuSans-64" transform="translate(227.34375 0)"/>
      <use xlink:href="#DejaVuSans-61" transform="translate(290.820312 0)"/>
      <use xlink:href="#DejaVuSans-72" transform="translate(352.099609 0)"/>
      <use xlink:href="#DejaVuSans-64" transform="translate(391.462891 0)"/>
      <use xlink:href="#DejaVuSans-20" transform="translate(454.939453 0)"/>
      <use xlink:href="#DejaVuSans-50" transform="translate(486.726562 0)"/>
      <use xlink:href="#DejaVuSans-79" transform="translate(547.029297 0)"/>
      <use xlink:href="#DejaVuSans-53" transform="translate(606.208984 0)"/>
      <use xlink:href="#DejaVuSans-52" transform="translate(669.685547 0)"/>
     </g>
    </g>
   </g>
  </g>
 </g>
 <defs>
  <clipPath id="pe7b0c70666">
   <rect x="42.620313" y="22.318125" width="518.59" height="508.12"/>
  </clipPath>
 </defs>
</svg>
