<?xml version="1.0" encoding="utf-8" standalone="no"?>
<!DOCTYPE svg PUBLIC "-//W3C//DTD SVG 1.1//EN"
  "http://www.w3.org/Graphics/SVG/1.1/DTD/svg11.dtd">
<svg xmlns:xlink="http://www.w3.org/1999/xlink" width="852.670313pt" height="285.79625pt" viewBox="0 0 852.670313 285.79625" xmlns="http://www.w3.org/2000/svg" version="1.1">
 <metadata>
  <rdf:RDF xmlns:dc="http://purl.org/dc/elements/1.1/" xmlns:cc="http://creativecommons.org/ns#" xmlns:rdf="http://www.w3.org/1999/02/22-rdf-syntax-ns#">
   <cc:Work>
    <dc:type rdf:resource="http://purl.org/dc/dcmitype/StillImage"/>
    <dc:date>2026-04-03T16:03:17.864583</dc:date>
    <dc:format>image/svg+xml</dc:format>
    <dc:creator>
     <cc:Agent>
      <dc:title>Matplotlib v3.10.7, https://matplotlib.org/</dc:title>
     </cc:Agent>
    </dc:creator>
   </cc:Work>
  </rdf:RDF>
 </metadata>
 <defs>
  <style type="text/css">*{stroke-linejoin: round; stroke-linecap: butt}</style>
 </defs>
 <g id="figure_1">
  <g id="patch_1">
   <path d="M 0 285.79625 
L 852.670313 285.79625 
L 852.670313 0 
L 0 0 
z
" style="fill: #ffffff"/>
  </g>
  <g id="axes_1">
   <g id="patch_2">
    <path d="M 42.620313 136.79 
L 839.670312 136.79 
L 839.670312 39.64 
L 42.620313 39.64 
z
" style="fill: #ffffff"/>
   </g>
   <g id="line2d_1">
    <path d="M 78.849858 47.784841 
L 86.110288 47.711473 
L 93.370718 47.856268 
L 100.631148 48.220757 
L 107.891578 48.814741 
L 115.152008 49.655713 
L 120.960352 50.525761 
L 126.768696 51.589485 
L 132.57704 52.864045 
L 138.385384 54.366825 
L 144.193728 56.114682 
L 150.002071 58.117879 
L 155.810415 60.371898 
L 161.618759 62.855437 
L 168.879189 66.222984 
L 180.495877 71.937428 
L 189.208393 76.137006 
L 195.016737 78.73108 
L 200.825081 81.083727 
L 206.633425 83.147898 
L 210.989683 84.487855 
L 215.345941 85.644297 
L 219.702199 86.619685 
L 224.058457 87.416082 
L 228.414715 88.036171 
L 232.770973 88.483251 
L 238.579317 88.817091 
L 244.387661 88.860946 
L 250.196005 88.620128 
L 256.004349 88.096286 
L 261.812693 87.292677 
L 267.621037 86.214288 
L 273.429381 84.867837 
L 279.237725 83.261767 
L 285.046069 81.409224 
L 290.854413 79.345484 
L 298.114842 76.543046 
L 321.348218 67.326984 
L 327.156562 65.330571 
L 332.964906 63.569409 
L 338.77325 62.078936 
L 344.581594 60.882251 
L 348.937852 60.184306 
L 353.29411 59.656207 
L 357.650368 59.296987 
L 362.006626 59.105734 
L 367.81497 59.109074 
L 373.623314 59.40213 
L 379.431658 59.976705 
L 385.240002 60.822402 
L 391.048346 61.927042 
L 396.85669 63.2719 
L 402.665034 64.829409 
L 409.925464 67.019011 
L 420.090066 70.369386 
L 434.610926 75.157688 
L 441.871355 77.299221 
L 447.679699 78.803675 
L 453.488043 80.082559 
L 459.296387 81.112688 
L 465.104731 81.880583 
L 470.913075 82.377463 
L 476.721419 82.600546 
L 482.529763 82.553054 
L 488.338107 82.243247 
L 494.146451 81.679142 
L 499.954795 80.872959 
L 505.763139 79.843738 
L 511.571483 78.617343 
L 518.831913 76.857524 
L 528.996515 74.113243 
L 546.421547 69.342618 
L 553.681977 67.591833 
L 560.942407 66.098779 
L 566.750751 65.128055 
L 572.559095 64.378569 
L 578.367439 63.862369 
L 584.175783 63.583325 
L 589.984126 63.542642 
L 595.79247 63.738677 
L 601.600814 64.163774 
L 607.409158 64.804247 
L 613.217502 65.640378 
L 620.477932 66.922418 
L 629.190448 68.732911 
L 642.259222 71.742951 
L 653.87591 74.372122 
L 662.588426 76.109258 
L 669.848856 77.311244 
L 675.6572 78.076927 
L 681.465544 78.650335 
L 687.273888 79.022469 
L 693.082232 79.188573 
L 698.890576 79.147418 
L 704.69892 78.903527 
L 710.507264 78.467199 
L 717.767694 77.675822 
L 725.028124 76.646653 
L 733.74064 75.167144 
L 746.809413 72.66855 
L 761.330273 69.937872 
L 770.042789 68.535483 
L 777.303219 67.584761 
L 784.563649 66.873392 
L 791.824079 66.424904 
L 799.084509 66.251654 
L 803.440767 66.280136 
L 803.440767 66.280136 
" clip-path="url(#p3169698fad)" style="fill: none; stroke: #000000; stroke-opacity: 0.4; stroke-width: 6; stroke-linecap: square"/>
   </g>
   <g id="matplotlib.axis_1">
    <g id="xtick_1">
     <g id="line2d_2">
      <defs>
       <path id="m5192c93e41" d="M 0 0 
L 0 3.5 
" style="stroke: #000000; stroke-width: 0.8"/>
      </defs>
      <g>
       <use xlink:href="#m5192c93e41" x="78.849858" y="136.79" style="stroke: #000000; stroke-width: 0.8"/>
      </g>
     </g>
    </g>
    <g id="xtick_2">
     <g id="line2d_3">
      <g>
       <use xlink:href="#m5192c93e41" x="223.76804" y="136.79" style="stroke: #000000; stroke-width: 0.8"/>
      </g>
     </g>
    </g>
    <g id="xtick_3">
     <g id="line2d_4">
      <g>
       <use xlink:href="#m5192c93e41" x="368.686222" y="136.79" style="stroke: #000000; stroke-width: 0.8"/>
      </g>
     </g>
    </g>
    <g id="xtick_4">
     <g id="line2d_5">
      <g>
       <use xlink:href="#m5192c93e41" x="513.604403" y="136.79" style="stroke: #000000; stroke-width: 0.8"/>
      </g>
     </g>
    </g>
    <g id="xtick_5">
     <g id="line2d_6">
      <g>
       <use xlink:href="#m5192c93e41" x="658.522585" y="136.79" style="stroke: #000000; stroke-width: 0.8"/>
      </g>
     </g>
    </g>
    <g id="xtick_6">
     <g id="line2d_7">
      <g>
       <use xlink:href="#m5192c93e41" x="803.440767" y="136.79" style="stroke: #000000; stroke-width: 0.8"/>
      </g>
     </g>
    </g>
   </g>
   <g id="matplotlib.axis_2">
    <g id="ytick_1">
     <g id="line2d_8">
      <defs>
       <path id="m087b10c1ef" d="M 0 0 
L -3.5 0 
" style="stroke: #000000; stroke-width: 0.8"/>
      </defs>
      <g>
       <use xlink:href="#m087b10c1ef" x="42.620313" y="118.173189" style="stroke: #000000; stroke-width: 0.8"/>
      </g>
     </g>
     <g id="text_1">
      <!-- −5 -->
      <g transform="translate(20.878125 121.972408) scale(0.1 -0.1)">
       <defs>
        <path id="DejaVuSans-2212" d="M 678 2272 
L 4684 2272 
L 4684 1741 
L 678 1741 
L 678 2272 
z
" transform="scale(0.015625)"/>
        <path id="DejaVuSans-35" d="M 691 4666 
L 3169 4666 
L 3169 4134 
L 1269 4134 
L 1269 2991 
Q 1406 3038 1543 3061 
Q 1681 3084 1819 3084 
Q 2600 3084 3056 2656 
Q 3513 2228 3513 1497 
Q 3513 744 3044 326 
Q 2575 -91 1722 -91 
Q 1428 -91 1123 -41 
Q 819 9 494 109 
L 494 744 
Q 775 591 1075 516 
Q 1375 441 1709 441 
Q 2250 441 2565 725 
Q 2881 1009 2881 1497 
Q 2881 1984 2565 2268 
Q 2250 2553 1709 2553 
Q 1456 2553 1204 2497 
Q 953 2441 691 2322 
L 691 4666 
z
" transform="scale(0.015625)"/>
       </defs>
       <use xlink:href="#DejaVuSans-2212"/>
       <use xlink:href="#DejaVuSans-35" transform="translate(83.789062 0)"/>
      </g>
     </g>
    </g>
    <g id="ytick_2">
     <g id="line2d_9">
      <g>
       <use xlink:href="#m087b10c1ef" x="42.620313" y="72.117118" style="stroke: #000000; stroke-width: 0.8"/>
      </g>
     </g>
     <g id="text_2">
      <!-- 0 -->
      <g transform="translate(29.257813 75.916336) scale(0.1 -0.1)">
       <defs>
        <path id="DejaVuSans-30" d="M 2034 4250 
Q 1547 4250 1301 3770 
Q 1056 3291 1056 2328 
Q 1056 1369 1301 889 
Q 1547 409 2034 409 
Q 2525 409 2770 889 
Q 3016 1369 3016 2328 
Q 3016 3291 2770 3770 
Q 2525 4250 2034 4250 
z
M 2034 4750 
Q 2819 4750 3233 4129 
Q 3647 3509 3647 2328 
Q 3647 1150 3233 529 
Q 2819 -91 2034 -91 
Q 1250 -91 836 529 
Q 422 1150 422 2328 
Q 422 3509 836 4129 
Q 1250 4750 2034 4750 
z
" transform="scale(0.015625)"/>
       </defs>
       <use xlink:href="#DejaVuSans-30"/>
      </g>
     </g>
    </g>
    <g id="text_3">
     <!-- $x0$ -->
     <g transform="translate(14.798438 94.365) rotate(-90) scale(0.1 -0.1)">
      <defs>
       <path id="DejaVuSans-Oblique-78" d="M 3841 3500 
L 2234 1784 
L 3219 0 
L 2559 0 
L 1819 1388 
L 531 0 
L -166 0 
L 1556 1844 
L 641 3500 
L 1300 3500 
L 1972 2234 
L 3144 3500 
L 3841 3500 
z
" transform="scale(0.015625)"/>
      </defs>
      <use xlink:href="#DejaVuSans-Oblique-78" transform="translate(0 0.78125)"/>
      <use xlink:href="#DejaVuSans-30" transform="translate(59.179688 0.78125)"/>
     </g>
    </g>
   </g>
   <g id="line2d_10">
    <path d="M 78.849858 47.784841 
L 81.75403 47.80074 
L 84.658202 48.196969 
L 87.562374 48.654167 
L 91.918632 48.987327 
L 99.179062 50.705116 
L 100.631148 50.804998 
L 104.987406 51.657299 
L 106.439492 52.075198 
L 107.891578 52.281678 
L 118.05618 55.147216 
L 120.960352 56.173884 
L 122.412438 56.711281 
L 123.864524 57.388831 
L 126.768696 59.095166 
L 129.672868 60.64428 
L 131.124954 61.157886 
L 132.57704 61.87297 
L 135.481212 63.630455 
L 139.83747 65.816247 
L 142.741642 67.254591 
L 144.193728 68.110537 
L 145.645814 69.121661 
L 147.097899 69.957513 
L 151.454157 72.094951 
L 157.262501 75.024843 
L 158.714587 76.025713 
L 163.070845 78.551271 
L 164.522931 79.217831 
L 165.975017 80.117583 
L 173.235447 84.0592 
L 174.687533 85.101868 
L 180.495877 88.3379 
L 183.400049 89.457499 
L 187.756307 91.672145 
L 192.112565 92.895401 
L 197.920909 95.110768 
L 200.825081 95.687925 
L 202.277167 96.300619 
L 205.181339 97.186083 
L 206.633425 97.505929 
L 208.085511 97.711719 
L 209.537597 97.801473 
L 210.989683 98.088131 
L 213.893855 98.190831 
L 216.798027 98.577267 
L 224.058457 98.658013 
L 226.962629 98.181709 
L 228.414715 98.097584 
L 231.318887 98.162036 
L 232.770973 98.008682 
L 235.675145 97.287594 
L 238.579317 96.532084 
L 240.031403 96.239424 
L 241.483489 95.758291 
L 244.387661 94.599112 
L 248.743919 93.391786 
L 251.648091 92.13655 
L 253.100177 91.658507 
L 256.004349 90.069461 
L 258.908521 88.360793 
L 261.812693 86.877818 
L 264.716865 85.605525 
L 267.621037 84.015102 
L 270.525209 82.030325 
L 273.429381 80.269261 
L 274.881467 79.713847 
L 276.333553 78.895781 
L 280.689811 76.053175 
L 282.141897 75.267747 
L 287.950241 70.993527 
L 290.854413 68.880495 
L 292.306499 68.102535 
L 293.758584 67.107056 
L 298.114842 64.515063 
L 299.566928 63.521436 
L 301.019014 62.72436 
L 303.923186 60.873257 
L 312.635702 56.561059 
L 314.087788 55.642898 
L 316.99196 54.178369 
L 321.348218 52.281396 
L 327.156562 49.878717 
L 328.608648 49.424948 
L 332.964906 47.603108 
L 334.416992 47.207206 
L 337.321164 46.166535 
L 340.225336 45.268191 
L 344.581594 44.368366 
L 347.485766 44.176739 
L 348.937852 44.055909 
L 354.746196 44.227434 
L 357.650368 44.523758 
L 360.55454 44.430741 
L 372.171228 46.443539 
L 375.0754 47.513427 
L 376.527486 47.980074 
L 377.979572 48.722997 
L 382.33583 50.221263 
L 383.787916 51.18941 
L 386.692088 52.588989 
L 388.144174 53.090941 
L 389.59626 53.871 
L 391.048346 54.452147 
L 392.500432 55.221025 
L 393.952518 56.123101 
L 395.404604 56.741948 
L 396.85669 57.723601 
L 398.308776 58.521405 
L 402.665034 61.383003 
L 405.569206 62.994123 
L 412.829636 67.457811 
L 414.281722 68.525254 
L 420.090066 72.034581 
L 422.994238 73.96375 
L 425.89841 75.57084 
L 427.350496 76.573049 
L 428.802582 77.436866 
L 430.254668 78.47633 
L 431.706754 79.377655 
L 436.063012 82.372503 
L 437.515098 83.330648 
L 440.41927 84.864026 
L 441.871355 85.381454 
L 446.227613 87.703369 
L 447.679699 88.640811 
L 452.035957 90.649051 
L 453.488043 91.510675 
L 454.940129 92.207208 
L 463.652645 95.158035 
L 465.104731 95.857387 
L 466.556817 96.255649 
L 468.008903 96.819584 
L 469.460989 97.227176 
L 470.913075 97.825373 
L 476.721419 98.998551 
L 479.625591 99.618106 
L 482.529763 100.242795 
L 485.433935 100.644645 
L 488.338107 100.765476 
L 491.242279 100.457256 
L 494.146451 100.058603 
L 495.598537 100.015202 
L 497.050623 99.840693 
L 499.954795 99.11102 
L 505.763139 97.110077 
L 510.119397 95.557073 
L 515.927741 93.302744 
L 521.736085 91.255604 
L 523.188171 90.50771 
L 528.996515 86.907602 
L 537.709031 81.202667 
L 542.065289 78.091893 
L 544.969461 76.405772 
L 546.421547 75.377908 
L 549.325719 73.84142 
L 552.229891 71.900309 
L 555.134063 70.043815 
L 558.038235 68.441486 
L 559.490321 67.428685 
L 562.394493 65.721445 
L 575.463267 58.087787 
L 579.819525 55.849765 
L 581.271611 54.92751 
L 584.175783 53.434156 
L 585.627869 52.660424 
L 587.079955 52.07865 
L 588.532041 51.6269 
L 595.79247 48.28299 
L 598.696642 47.430814 
L 601.600814 46.413583 
L 603.0529 46.085786 
L 604.504986 45.964777 
L 605.957072 46.030813 
L 608.861244 45.635301 
L 611.765416 45.172907 
L 613.217502 44.983174 
L 616.121674 45.055641 
L 620.477932 45.177887 
L 623.382104 45.490979 
L 624.83419 45.498835 
L 626.286276 45.765045 
L 627.738362 46.164665 
L 629.190448 46.357642 
L 630.642534 46.737973 
L 633.546706 47.212433 
L 636.450878 48.141958 
L 639.35505 48.550586 
L 640.807136 48.980618 
L 642.259222 49.783732 
L 643.711308 50.323701 
L 645.163394 51.051154 
L 649.519652 52.521011 
L 656.780082 56.227873 
L 658.232168 56.812097 
L 661.13634 58.396654 
L 662.588426 58.881027 
L 665.492598 60.226092 
L 668.39677 62.013598 
L 671.300942 63.298271 
L 682.91763 70.39594 
L 690.17806 73.977321 
L 691.630146 74.805767 
L 693.082232 75.793441 
L 695.986404 77.548524 
L 697.43849 78.549557 
L 698.890576 79.390231 
L 701.794748 81.572761 
L 706.151006 83.879573 
L 707.603092 84.682054 
L 710.507264 85.869834 
L 714.863522 87.878098 
L 717.767694 88.852656 
L 720.671866 90.377171 
L 722.123952 90.980806 
L 723.576038 91.457953 
L 725.028124 92.291398 
L 726.48021 92.888857 
L 727.932296 93.64137 
L 729.384382 94.215586 
L 730.836468 94.964675 
L 732.288554 95.34774 
L 733.74064 95.951232 
L 735.192726 96.333887 
L 736.644811 96.951169 
L 738.096897 97.316919 
L 741.001069 98.33163 
L 742.453155 98.525215 
L 746.809413 99.693161 
L 749.713585 99.931056 
L 752.617757 100.196971 
L 755.521929 100.351212 
L 756.974015 100.229883 
L 759.878187 99.62628 
L 762.782359 99.280916 
L 764.234445 99.016123 
L 767.138617 98.741308 
L 771.494875 97.986738 
L 774.399047 97.509849 
L 775.851133 97.111695 
L 777.303219 96.493692 
L 780.207391 95.678312 
L 784.563649 93.785281 
L 786.015735 92.937397 
L 793.276165 89.408182 
L 794.728251 88.632209 
L 799.084509 85.640181 
L 801.988681 83.615511 
L 803.440767 82.744111 
L 803.440767 82.744111 
" clip-path="url(#p3169698fad)" style="fill: none; stroke-dasharray: 22.4,5.6,3.5,5.6; stroke-dashoffset: 0; stroke: #0000ff; stroke-opacity: 0.8; stroke-width: 3.5"/>
   </g>
   <g id="patch_3">
    <path d="M 42.620313 136.79 
L 42.620313 39.64 
" style="fill: none; stroke: #000000; stroke-width: 0.8; stroke-linejoin: miter; stroke-linecap: square"/>
   </g>
   <g id="patch_4">
    <path d="M 839.670312 136.79 
L 839.670312 39.64 
" style="fill: none; stroke: #000000; stroke-width: 0.8; stroke-linejoin: miter; stroke-linecap: square"/>
   </g>
   <g id="patch_5">
    <path d="M 42.620313 136.79 
L 839.670312 136.79 
" style="fill: none; stroke: #000000; stroke-width: 0.8; stroke-linejoin: miter; stroke-linecap: square"/>
   </g>
   <g id="patch_6">
    <path d="M 42.620313 39.64 
L 839.670312 39.64 
" style="fill: none; stroke: #000000; stroke-width: 0.8; stroke-linejoin: miter; stroke-linecap: square"/>
   </g>
   <g id="line2d_11">
    <path d="M 78.849858 47.784841 
L 89.01446 45.65379 
L 91.918632 45.14566 
L 94.822804 44.847358 
L 96.27489 44.840358 
L 97.726976 44.993931 
L 99.179062 45.39572 
L 100.631148 46.129002 
L 103.53532 48.214152 
L 104.987406 48.724231 
L 106.439492 48.488639 
L 107.891578 49.111439 
L 109.343664 55.387517 
L 110.79575 66.708854 
L 112.247836 83.878738 
L 113.699922 114.089077 
L 116.604094 132.184847 
L 119.508266 132.227412 
L 123.864524 132.165916 
L 129.672868 132.179796 
L 199.372995 132.220959 
L 202.277167 132.213079 
L 206.633425 132.170515 
L 209.537597 132.298803 
L 212.441769 132.174508 
L 215.345941 132.174759 
L 216.798027 132.313223 
L 221.154285 132.169432 
L 224.058457 132.187585 
L 225.510543 132.276225 
L 231.318887 132.13823 
L 234.223059 132.263212 
L 238.579317 132.131507 
L 244.387661 132.200294 
L 250.196005 132.199785 
L 251.648091 132.25371 
L 256.004349 132.156019 
L 260.360607 132.21517 
L 264.716865 132.174124 
L 267.621037 132.229376 
L 271.977295 132.158916 
L 276.333553 132.221855 
L 280.689811 132.185481 
L 285.046069 132.197658 
L 295.21067 132.185008 
L 299.566928 132.20189 
L 303.923186 132.176591 
L 308.279444 132.182508 
L 311.183616 132.182596 
L 325.704476 132.16379 
L 338.77325 132.193522 
L 341.677422 132.241146 
L 344.581594 132.158968 
L 357.650368 132.262847 
L 360.55454 132.158714 
L 375.0754 132.24834 
L 377.979572 132.135281 
L 393.952518 132.15738 
L 396.85669 132.215624 
L 398.308776 132.258004 
L 401.212948 132.18831 
L 404.11712 132.177947 
L 407.021292 132.234557 
L 411.37755 132.170816 
L 417.185894 132.179236 
L 428.802582 132.212698 
L 438.967184 132.199372 
L 441.871355 132.167007 
L 447.679699 132.182554 
L 449.131785 132.115245 
L 453.488043 132.211095 
L 454.940129 132.248522 
L 457.844301 132.12296 
L 462.200559 132.246477 
L 478.173505 132.206342 
L 481.077677 132.242658 
L 482.529763 132.116731 
L 488.338107 132.280735 
L 491.242279 132.16157 
L 494.146451 132.181022 
L 495.598537 132.374091 
L 498.502709 132.187356 
L 502.858967 132.162437 
L 504.311053 132.254739 
L 511.571483 132.209273 
L 514.475655 132.247909 
L 517.379827 132.126969 
L 526.092343 132.167132 
L 527.544429 132.14053 
L 528.996515 132.306533 
L 534.804859 132.146675 
L 540.613203 132.195742 
L 544.969461 132.200819 
L 547.873633 132.219736 
L 552.229891 132.178366 
L 555.134063 132.230156 
L 559.490321 132.175706 
L 565.298665 132.18661 
L 576.915353 132.206118 
L 581.271611 132.173878 
L 594.340384 132.238299 
L 597.244556 132.183301 
L 608.861244 132.190818 
L 611.765416 132.234611 
L 614.669588 132.134599 
L 620.477932 132.193673 
L 621.930018 132.119823 
L 627.738362 132.239353 
L 634.998792 132.217302 
L 637.902964 132.18207 
L 642.259222 132.192416 
L 643.711308 132.329663 
L 648.067566 132.14755 
L 653.87591 132.20623 
L 655.327996 132.116099 
L 661.13634 132.256483 
L 668.39677 132.226889 
L 672.753028 132.169591 
L 675.6572 132.178983 
L 677.109286 132.292947 
L 682.91763 132.115653 
L 687.273888 132.239851 
L 691.630146 132.136662 
L 695.986404 132.223356 
L 700.342662 132.160517 
L 703.246834 132.295389 
L 707.603092 132.137696 
L 713.411436 132.18876 
L 716.315608 132.151301 
L 720.671866 132.218818 
L 725.028124 132.173839 
L 727.932296 132.224946 
L 730.836468 132.18566 
L 743.905241 132.196909 
L 751.165671 132.223786 
L 755.521929 132.183891 
L 803.440767 132.202244 
L 803.440767 132.202244 
" clip-path="url(#p3169698fad)" style="fill: none; stroke-dasharray: 3.5,5.775; stroke-dashoffset: 0; stroke: #008000; stroke-opacity: 0.8; stroke-width: 3.5"/>
   </g>
   <g id="line2d_12">
    <path d="M 78.849858 47.784841 
L 86.110288 47.173425 
L 89.01446 47.153381 
L 93.370718 47.166514 
L 96.27489 47.108891 
L 100.631148 47.629292 
L 103.53532 47.821424 
L 107.891578 48.528385 
L 110.79575 48.606597 
L 112.247836 48.822677 
L 116.604094 49.880688 
L 119.508266 50.322071 
L 123.864524 50.699004 
L 126.768696 50.983312 
L 131.124954 51.81144 
L 134.029126 52.812163 
L 144.193728 56.43012 
L 150.002071 57.999926 
L 152.906243 58.819554 
L 155.810415 59.788753 
L 158.714587 61.113538 
L 164.522931 63.355456 
L 165.975017 63.946699 
L 167.427103 64.848641 
L 171.783361 66.979543 
L 173.235447 67.656248 
L 176.139619 69.519487 
L 179.043791 71.141869 
L 186.304221 74.766479 
L 190.660479 77.320959 
L 193.564651 78.601924 
L 195.016737 79.148493 
L 197.920909 80.634979 
L 200.825081 81.691839 
L 210.989683 84.519561 
L 216.798027 85.728546 
L 219.702199 86.385707 
L 224.058457 87.862005 
L 226.962629 88.445393 
L 228.414715 88.761722 
L 234.223059 89.498842 
L 235.675145 89.770635 
L 240.031403 90.818138 
L 241.483489 91.013751 
L 250.196005 90.94558 
L 251.648091 91.068953 
L 258.908521 90.836472 
L 263.264779 90.547987 
L 266.168951 90.569767 
L 269.073123 90.345145 
L 271.977295 89.724137 
L 276.333553 88.644361 
L 280.689811 88.043037 
L 283.593983 87.173345 
L 286.498155 85.962656 
L 290.854413 83.958168 
L 293.758584 82.850273 
L 302.4711 80.040118 
L 306.827358 78.076926 
L 309.73153 76.953951 
L 311.183616 76.432225 
L 319.896132 72.513701 
L 321.348218 71.681571 
L 324.25239 70.302392 
L 327.156562 69.005443 
L 330.060734 67.852841 
L 331.51282 67.442795 
L 334.416992 66.466422 
L 340.225336 64.713407 
L 346.03368 62.395188 
L 351.842024 60.105401 
L 354.746196 59.175875 
L 357.650368 58.455229 
L 359.102454 58.11552 
L 362.006626 57.678012 
L 363.458712 57.415641 
L 367.81497 57.121941 
L 375.0754 56.884448 
L 377.979572 56.752516 
L 379.431658 56.788205 
L 380.883744 56.666956 
L 383.787916 56.616128 
L 385.240002 56.584578 
L 386.692088 56.79164 
L 388.144174 56.806357 
L 389.59626 56.648709 
L 393.952518 56.81998 
L 399.760862 58.056626 
L 405.569206 59.769972 
L 407.021292 60.298763 
L 412.829636 61.871384 
L 415.733808 62.802178 
L 420.090066 64.153253 
L 424.446324 65.477665 
L 428.802582 67.444095 
L 434.610926 69.169083 
L 441.871355 71.417307 
L 444.775527 72.09664 
L 447.679699 72.756852 
L 453.488043 74.533929 
L 457.844301 75.733898 
L 463.652645 77.343265 
L 466.556817 78.115162 
L 469.460989 78.945216 
L 478.173505 80.80322 
L 481.077677 81.359729 
L 485.433935 82.007914 
L 491.242279 82.533461 
L 504.311053 82.527949 
L 507.215225 82.219051 
L 511.571483 82.03969 
L 514.475655 81.651932 
L 515.927741 81.480271 
L 517.379827 81.160556 
L 520.283999 80.86527 
L 528.996515 79.044767 
L 530.448601 78.823348 
L 549.325719 74.183751 
L 555.134063 72.6115 
L 558.038235 71.554568 
L 560.942407 70.785073 
L 566.750751 69.148553 
L 572.559095 67.672651 
L 578.367439 66.381892 
L 581.271611 66.090488 
L 587.079955 64.901573 
L 598.696642 63.869449 
L 601.600814 63.749553 
L 604.504986 63.386637 
L 605.957072 63.320909 
L 607.409158 63.405144 
L 610.31333 63.37366 
L 613.217502 63.621118 
L 617.57376 63.660261 
L 619.025846 63.812842 
L 620.477932 63.818992 
L 626.286276 64.379453 
L 629.190448 64.683247 
L 632.09462 65.220005 
L 633.546706 65.319913 
L 636.450878 65.924841 
L 642.259222 67.142506 
L 648.067566 68.188167 
L 653.87591 69.602629 
L 661.13634 71.468311 
L 664.040512 71.957623 
L 668.39677 72.563095 
L 680.013458 75.076244 
L 685.821802 76.062748 
L 690.17806 76.775909 
L 691.630146 76.997376 
L 695.986404 77.912852 
L 697.43849 78.064104 
L 698.890576 78.347156 
L 703.246834 78.845272 
L 707.603092 79.018388 
L 710.507264 79.220131 
L 713.411436 79.19865 
L 717.767694 79.409621 
L 722.123952 79.375162 
L 723.576038 79.390082 
L 730.836468 78.636669 
L 736.644811 77.831889 
L 738.096897 77.712022 
L 739.548983 77.44384 
L 742.453155 77.385041 
L 764.234445 74.610481 
L 774.399047 72.949462 
L 777.303219 72.42306 
L 780.207391 71.635147 
L 781.659477 71.374771 
L 786.015735 70.867612 
L 790.371993 70.155113 
L 794.728251 69.426971 
L 797.632423 69.232921 
L 803.440767 68.502626 
L 803.440767 68.502626 
" clip-path="url(#p3169698fad)" style="fill: none; stroke-dasharray: 12.95,5.6; stroke-dashoffset: 0; stroke: #ff0000; stroke-opacity: 0.8; stroke-width: 3.5"/>
   </g>
  </g>
  <g id="axes_2">
   <g id="patch_7">
    <path d="M 42.620313 248.24 
L 839.670312 248.24 
L 839.670312 151.09 
L 42.620313 151.09 
z
" style="fill: #ffffff"/>
   </g>
   <g id="line2d_13">
    <path d="M 78.849858 218.778872 
L 112.247836 224.25 
L 120.960352 226.005498 
L 129.672868 228.021198 
L 138.385384 230.294968 
L 160.166673 236.242963 
L 164.522931 237.156665 
L 168.879189 237.869363 
L 173.235447 238.333275 
L 177.591705 238.500097 
L 180.495877 238.422172 
L 183.400049 238.181945 
L 187.756307 237.555363 
L 192.112565 236.642679 
L 196.468823 235.485414 
L 202.277167 233.64875 
L 210.989683 230.557944 
L 229.866801 223.859659 
L 241.483489 220.019787 
L 260.360607 214.083064 
L 274.881467 209.67202 
L 282.141897 207.682912 
L 287.950241 206.303147 
L 292.306499 205.459477 
L 296.662756 204.826593 
L 301.019014 204.435114 
L 305.375272 204.304922 
L 309.73153 204.445165 
L 314.087788 204.854258 
L 318.444046 205.514719 
L 322.800304 206.395782 
L 327.156562 207.46728 
L 332.964906 209.134675 
L 340.225336 211.479691 
L 370.719142 221.64533 
L 382.33583 225.24655 
L 391.048346 227.741776 
L 396.85669 229.220126 
L 402.665034 230.485238 
L 408.473378 231.483666 
L 412.829636 232.026518 
L 417.185894 232.369569 
L 421.542152 232.492616 
L 425.89841 232.384146 
L 430.254668 232.052976 
L 434.610926 231.509942 
L 438.967184 230.772316 
L 444.775527 229.528276 
L 450.583871 228.056131 
L 459.296387 225.595722 
L 475.269333 220.751313 
L 488.338107 216.876213 
L 497.050623 214.487174 
L 504.311053 212.707479 
L 510.119397 211.47591 
L 515.927741 210.461016 
L 521.736085 209.708615 
L 526.092343 209.341061 
L 530.448601 209.155854 
L 534.804859 209.160814 
L 539.161117 209.356498 
L 543.517375 209.736204 
L 549.325719 210.503557 
L 555.134063 211.523556 
L 562.394493 213.08052 
L 571.107009 215.232542 
L 589.984126 220.262047 
L 601.600814 223.211629 
L 610.31333 225.169055 
L 617.57376 226.543958 
L 623.382104 227.429883 
L 629.190448 228.082762 
L 634.998792 228.472144 
L 640.807136 228.582006 
L 646.61548 228.410753 
L 652.423824 227.971063 
L 658.232168 227.286975 
L 664.040512 226.39007 
L 671.300942 225.026676 
L 680.013458 223.147899 
L 711.95935 216.031722 
L 719.21978 214.721485 
L 726.48021 213.650044 
L 732.288554 213.005537 
L 738.096897 212.574839 
L 743.905241 212.372488 
L 749.713585 212.404578 
L 755.521929 212.666613 
L 761.330273 213.146739 
L 767.138617 213.824341 
L 774.399047 214.903062 
L 783.111563 216.434829 
L 797.632423 219.269066 
L 803.440767 220.410557 
L 803.440767 220.410557 
" clip-path="url(#p410222c391)" style="fill: none; stroke: #000000; stroke-opacity: 0.4; stroke-width: 6; stroke-linecap: square"/>
   </g>
   <g id="matplotlib.axis_3">
    <g id="xtick_7">
     <g id="line2d_14">
      <g>
       <use xlink:href="#m5192c93e41" x="78.849858" y="248.24" style="stroke: #000000; stroke-width: 0.8"/>
      </g>
     </g>
     <g id="text_4">
      <!-- 0 -->
      <g transform="translate(75.668608 262.838437) scale(0.1 -0.1)">
       <use xlink:href="#DejaVuSans-30"/>
      </g>
     </g>
    </g>
    <g id="xtick_8">
     <g id="line2d_15">
      <g>
       <use xlink:href="#m5192c93e41" x="223.76804" y="248.24" style="stroke: #000000; stroke-width: 0.8"/>
      </g>
     </g>
     <g id="text_5">
      <!-- 2 -->
      <g transform="translate(220.58679 262.838437) scale(0.1 -0.1)">
       <defs>
        <path id="DejaVuSans-32" d="M 1228 531 
L 3431 531 
L 3431 0 
L 469 0 
L 469 531 
Q 828 903 1448 1529 
Q 2069 2156 2228 2338 
Q 2531 2678 2651 2914 
Q 2772 3150 2772 3378 
Q 2772 3750 2511 3984 
Q 2250 4219 1831 4219 
Q 1534 4219 1204 4116 
Q 875 4013 500 3803 
L 500 4441 
Q 881 4594 1212 4672 
Q 1544 4750 1819 4750 
Q 2544 4750 2975 4387 
Q 3406 4025 3406 3419 
Q 3406 3131 3298 2873 
Q 3191 2616 2906 2266 
Q 2828 2175 2409 1742 
Q 1991 1309 1228 531 
z
" transform="scale(0.015625)"/>
       </defs>
       <use xlink:href="#DejaVuSans-32"/>
      </g>
     </g>
    </g>
    <g id="xtick_9">
     <g id="line2d_16">
      <g>
       <use xlink:href="#m5192c93e41" x="368.686222" y="248.24" style="stroke: #000000; stroke-width: 0.8"/>
      </g>
     </g>
     <g id="text_6">
      <!-- 4 -->
      <g transform="translate(365.504972 262.838437) scale(0.1 -0.1)">
       <defs>
        <path id="DejaVuSans-34" d="M 2419 4116 
L 825 1625 
L 2419 1625 
L 2419 4116 
z
M 2253 4666 
L 3047 4666 
L 3047 1625 
L 3713 1625 
L 3713 1100 
L 3047 1100 
L 3047 0 
L 2419 0 
L 2419 1100 
L 313 1100 
L 313 1709 
L 2253 4666 
z
" transform="scale(0.015625)"/>
       </defs>
       <use xlink:href="#DejaVuSans-34"/>
      </g>
     </g>
    </g>
    <g id="xtick_10">
     <g id="line2d_17">
      <g>
       <use xlink:href="#m5192c93e41" x="513.604403" y="248.24" style="stroke: #000000; stroke-width: 0.8"/>
      </g>
     </g>
     <g id="text_7">
      <!-- 6 -->
      <g transform="translate(510.423153 262.838437) scale(0.1 -0.1)">
       <defs>
        <path id="DejaVuSans-36" d="M 2113 2584 
Q 1688 2584 1439 2293 
Q 1191 2003 1191 1497 
Q 1191 994 1439 701 
Q 1688 409 2113 409 
Q 2538 409 2786 701 
Q 3034 994 3034 1497 
Q 3034 2003 2786 2293 
Q 2538 2584 2113 2584 
z
M 3366 4563 
L 3366 3988 
Q 3128 4100 2886 4159 
Q 2644 4219 2406 4219 
Q 1781 4219 1451 3797 
Q 1122 3375 1075 2522 
Q 1259 2794 1537 2939 
Q 1816 3084 2150 3084 
Q 2853 3084 3261 2657 
Q 3669 2231 3669 1497 
Q 3669 778 3244 343 
Q 2819 -91 2113 -91 
Q 1303 -91 875 529 
Q 447 1150 447 2328 
Q 447 3434 972 4092 
Q 1497 4750 2381 4750 
Q 2619 4750 2861 4703 
Q 3103 4656 3366 4563 
z
" transform="scale(0.015625)"/>
       </defs>
       <use xlink:href="#DejaVuSans-36"/>
      </g>
     </g>
    </g>
    <g id="xtick_11">
     <g id="line2d_18">
      <g>
       <use xlink:href="#m5192c93e41" x="658.522585" y="248.24" style="stroke: #000000; stroke-width: 0.8"/>
      </g>
     </g>
     <g id="text_8">
      <!-- 8 -->
      <g transform="translate(655.341335 262.838437) scale(0.1 -0.1)">
       <defs>
        <path id="DejaVuSans-38" d="M 2034 2216 
Q 1584 2216 1326 1975 
Q 1069 1734 1069 1313 
Q 1069 891 1326 650 
Q 1584 409 2034 409 
Q 2484 409 2743 651 
Q 3003 894 3003 1313 
Q 3003 1734 2745 1975 
Q 2488 2216 2034 2216 
z
M 1403 2484 
Q 997 2584 770 2862 
Q 544 3141 544 3541 
Q 544 4100 942 4425 
Q 1341 4750 2034 4750 
Q 2731 4750 3128 4425 
Q 3525 4100 3525 3541 
Q 3525 3141 3298 2862 
Q 3072 2584 2669 2484 
Q 3125 2378 3379 2068 
Q 3634 1759 3634 1313 
Q 3634 634 3220 271 
Q 2806 -91 2034 -91 
Q 1263 -91 848 271 
Q 434 634 434 1313 
Q 434 1759 690 2068 
Q 947 2378 1403 2484 
z
M 1172 3481 
Q 1172 3119 1398 2916 
Q 1625 2713 2034 2713 
Q 2441 2713 2670 2916 
Q 2900 3119 2900 3481 
Q 2900 3844 2670 4047 
Q 2441 4250 2034 4250 
Q 1625 4250 1398 4047 
Q 1172 3844 1172 3481 
z
" transform="scale(0.015625)"/>
       </defs>
       <use xlink:href="#DejaVuSans-38"/>
      </g>
     </g>
    </g>
    <g id="xtick_12">
     <g id="line2d_19">
      <g>
       <use xlink:href="#m5192c93e41" x="803.440767" y="248.24" style="stroke: #000000; stroke-width: 0.8"/>
      </g>
     </g>
     <g id="text_9">
      <!-- 10 -->
      <g transform="translate(797.078267 262.838437) scale(0.1 -0.1)">
       <defs>
        <path id="DejaVuSans-31" d="M 794 531 
L 1825 531 
L 1825 4091 
L 703 3866 
L 703 4441 
L 1819 4666 
L 2450 4666 
L 2450 531 
L 3481 531 
L 3481 0 
L 794 0 
L 794 531 
z
" transform="scale(0.015625)"/>
       </defs>
       <use xlink:href="#DejaVuSans-31"/>
       <use xlink:href="#DejaVuSans-30" transform="translate(63.623047 0)"/>
      </g>
     </g>
    </g>
    <g id="text_10">
     <!-- Time -->
     <g transform="translate(428.911719 276.516562) scale(0.1 -0.1)">
      <defs>
       <path id="DejaVuSans-54" d="M -19 4666 
L 3928 4666 
L 3928 4134 
L 2272 4134 
L 2272 0 
L 1638 0 
L 1638 4134 
L -19 4134 
L -19 4666 
z
" transform="scale(0.015625)"/>
       <path id="DejaVuSans-69" d="M 603 3500 
L 1178 3500 
L 1178 0 
L 603 0 
L 603 3500 
z
M 603 4863 
L 1178 4863 
L 1178 4134 
L 603 4134 
L 603 4863 
z
" transform="scale(0.015625)"/>
       <path id="DejaVuSans-6d" d="M 3328 2828 
Q 3544 3216 3844 3400 
Q 4144 3584 4550 3584 
Q 5097 3584 5394 3201 
Q 5691 2819 5691 2113 
L 5691 0 
L 5113 0 
L 5113 2094 
Q 5113 2597 4934 2840 
Q 4756 3084 4391 3084 
Q 3944 3084 3684 2787 
Q 3425 2491 3425 1978 
L 3425 0 
L 2847 0 
L 2847 2094 
Q 2847 2600 2669 2842 
Q 2491 3084 2119 3084 
Q 1678 3084 1418 2786 
Q 1159 2488 1159 1978 
L 1159 0 
L 581 0 
L 581 3500 
L 1159 3500 
L 1159 2956 
Q 1356 3278 1631 3431 
Q 1906 3584 2284 3584 
Q 2666 3584 2933 3390 
Q 3200 3197 3328 2828 
z
" transform="scale(0.015625)"/>
       <path id="DejaVuSans-65" d="M 3597 1894 
L 3597 1613 
L 953 1613 
Q 991 1019 1311 708 
Q 1631 397 2203 397 
Q 2534 397 2845 478 
Q 3156 559 3463 722 
L 3463 178 
Q 3153 47 2828 -22 
Q 2503 -91 2169 -91 
Q 1331 -91 842 396 
Q 353 884 353 1716 
Q 353 2575 817 3079 
Q 1281 3584 2069 3584 
Q 2775 3584 3186 3129 
Q 3597 2675 3597 1894 
z
M 3022 2063 
Q 3016 2534 2758 2815 
Q 2500 3097 2075 3097 
Q 1594 3097 1305 2825 
Q 1016 2553 972 2059 
L 3022 2063 
z
" transform="scale(0.015625)"/>
      </defs>
      <use xlink:href="#DejaVuSans-54"/>
      <use xlink:href="#DejaVuSans-69" transform="translate(57.958984 0)"/>
      <use xlink:href="#DejaVuSans-6d" transform="translate(85.742188 0)"/>
      <use xlink:href="#DejaVuSans-65" transform="translate(183.154297 0)"/>
     </g>
    </g>
   </g>
   <g id="matplotlib.axis_4">
    <g id="ytick_3">
     <g id="line2d_20">
      <g>
       <use xlink:href="#m087b10c1ef" x="42.620313" y="219.739366" style="stroke: #000000; stroke-width: 0.8"/>
      </g>
     </g>
     <g id="text_11">
      <!-- 0 -->
      <g transform="translate(29.257813 223.538585) scale(0.1 -0.1)">
       <use xlink:href="#DejaVuSans-30"/>
      </g>
     </g>
    </g>
    <g id="ytick_4">
     <g id="line2d_21">
      <g>
       <use xlink:href="#m087b10c1ef" x="42.620313" y="171.714691" style="stroke: #000000; stroke-width: 0.8"/>
      </g>
     </g>
     <g id="text_12">
      <!-- 10 -->
      <g transform="translate(22.895313 175.51391) scale(0.1 -0.1)">
       <use xlink:href="#DejaVuSans-31"/>
       <use xlink:href="#DejaVuSans-30" transform="translate(63.623047 0)"/>
      </g>
     </g>
    </g>
    <g id="text_13">
     <!-- $x1$ -->
     <g transform="translate(16.815625 205.815) rotate(-90) scale(0.1 -0.1)">
      <use xlink:href="#DejaVuSans-Oblique-78" transform="translate(0 0.09375)"/>
      <use xlink:href="#DejaVuSans-31" transform="translate(59.179688 0.09375)"/>
     </g>
    </g>
   </g>
   <g id="line2d_22">
    <path d="M 78.849858 218.778872 
L 90.466546 224.453829 
L 97.726976 227.811236 
L 106.439492 231.55236 
L 113.699922 234.411033 
L 119.508266 236.480116 
L 125.31661 238.300163 
L 129.672868 239.426673 
L 134.029126 240.365765 
L 138.385384 241.090268 
L 142.741642 241.620121 
L 147.097899 241.932871 
L 151.454157 242.03211 
L 155.810415 241.936377 
L 160.166673 241.631717 
L 164.522931 241.101409 
L 168.879189 240.355163 
L 173.235447 239.397976 
L 177.591705 238.2074 
L 181.947963 236.801236 
L 186.304221 235.218707 
L 192.112565 232.848964 
L 197.920909 230.243368 
L 205.181339 226.686056 
L 215.345941 221.324651 
L 237.127231 209.682003 
L 244.387661 206.152246 
L 250.196005 203.576987 
L 256.004349 201.270756 
L 260.360607 199.784624 
L 264.716865 198.494815 
L 269.073123 197.400971 
L 273.429381 196.555464 
L 277.785639 195.920106 
L 282.141897 195.524766 
L 286.498155 195.385882 
L 290.854413 195.535238 
L 295.21067 195.938823 
L 299.566928 196.581239 
L 303.923186 197.461614 
L 308.279444 198.562734 
L 312.635702 199.852908 
L 316.99196 201.351272 
L 322.800304 203.630078 
L 328.608648 206.204402 
L 334.416992 209.042413 
L 340.225336 212.124508 
L 348.937852 217.046036 
L 364.910798 226.096984 
L 373.623314 230.761926 
L 379.431658 233.618419 
L 385.240002 236.201912 
L 391.048346 238.451458 
L 395.404604 239.92025 
L 399.760862 241.168448 
L 404.11712 242.17116 
L 408.473378 242.943485 
L 412.829636 243.474634 
L 417.185894 243.760691 
L 421.542152 243.811452 
L 425.89841 243.613943 
L 430.254668 243.177652 
L 434.610926 242.481644 
L 438.967184 241.526767 
L 443.323441 240.365632 
L 447.679699 239.01183 
L 452.035957 237.450199 
L 456.392215 235.69556 
L 462.200559 233.135517 
L 468.008903 230.326304 
L 475.269333 226.504484 
L 482.529763 222.442573 
L 501.406881 211.612221 
L 507.215225 208.578608 
L 513.023569 205.79705 
L 518.831913 203.268364 
L 524.640257 201.012049 
L 528.996515 199.570896 
L 533.352773 198.378971 
L 537.709031 197.438024 
L 542.065289 196.770066 
L 546.421547 196.35201 
L 550.777805 196.16596 
L 555.134063 196.227892 
L 559.490321 196.520692 
L 563.846579 197.051353 
L 568.202837 197.811608 
L 572.559095 198.800179 
L 576.915353 200.01222 
L 581.271611 201.430053 
L 585.627869 203.061966 
L 591.436212 205.507355 
L 597.244556 208.261712 
L 603.0529 211.25327 
L 614.669588 217.56713 
L 629.190448 225.496828 
L 636.450878 229.201609 
L 643.711308 232.64125 
L 649.519652 235.091937 
L 653.87591 236.738295 
L 658.232168 238.188946 
L 662.588426 239.450377 
L 666.944684 240.536645 
L 671.300942 241.412917 
L 675.6572 242.07846 
L 680.013458 242.509946 
L 684.369716 242.701369 
L 688.725974 242.695012 
L 693.082232 242.488905 
L 697.43849 242.043468 
L 701.794748 241.343588 
L 706.151006 240.402336 
L 711.95935 238.840232 
L 717.767694 236.976584 
L 722.123952 235.384482 
L 727.932296 232.993132 
L 733.74064 230.294284 
L 739.548983 227.35191 
L 746.809413 223.386523 
L 771.494875 209.556315 
L 778.755305 205.833573 
L 784.563649 203.110641 
L 788.919907 201.28263 
L 793.276165 199.643519 
L 797.632423 198.217978 
L 801.988681 197.060088 
L 803.440767 196.730284 
L 803.440767 196.730284 
" clip-path="url(#p410222c391)" style="fill: none; stroke-dasharray: 22.4,5.6,3.5,5.6; stroke-dashoffset: 0; stroke: #0000ff; stroke-opacity: 0.8; stroke-width: 3.5"/>
   </g>
   <g id="patch_8">
    <path d="M 42.620313 248.24 
L 42.620313 151.09 
" style="fill: none; stroke: #000000; stroke-width: 0.8; stroke-linejoin: miter; stroke-linecap: square"/>
   </g>
   <g id="patch_9">
    <path d="M 839.670312 248.24 
L 839.670312 151.09 
" style="fill: none; stroke: #000000; stroke-width: 0.8; stroke-linejoin: miter; stroke-linecap: square"/>
   </g>
   <g id="patch_10">
    <path d="M 42.620313 248.24 
L 839.670312 248.24 
" style="fill: none; stroke: #000000; stroke-width: 0.8; stroke-linejoin: miter; stroke-linecap: square"/>
   </g>
   <g id="patch_11">
    <path d="M 42.620313 151.09 
L 839.670312 151.09 
" style="fill: none; stroke: #000000; stroke-width: 0.8; stroke-linejoin: miter; stroke-linecap: square"/>
   </g>
   <g id="line2d_23">
    <path d="M 78.849858 218.778872 
L 83.206116 218.138317 
L 87.562374 217.283296 
L 90.466546 216.557149 
L 93.370718 215.562014 
L 94.822804 214.89269 
L 96.27489 214.057945 
L 97.726976 212.987475 
L 99.179062 211.580268 
L 100.631148 209.741097 
L 102.083234 207.439632 
L 103.53532 204.758281 
L 104.987406 201.749135 
L 106.439492 198.344902 
L 107.891578 194.58526 
L 109.343664 192.110485 
L 110.79575 192.340036 
L 112.247836 192.376607 
L 113.699922 184.606556 
L 115.152008 165.714016 
L 116.604094 155.574359 
L 122.412438 155.555071 
L 132.57704 155.565431 
L 144.193728 155.557401 
L 158.714587 155.545035 
L 197.920909 155.570945 
L 225.510543 155.539749 
L 238.579317 155.581371 
L 334.416992 155.576197 
L 373.623314 155.538619 
L 376.527486 155.565317 
L 389.59626 155.535965 
L 417.185894 155.557412 
L 428.802582 155.560517 
L 433.15884 155.570096 
L 447.679699 155.542512 
L 452.035957 155.56559 
L 681.465544 155.565388 
L 684.369716 155.580949 
L 687.273888 155.533747 
L 693.082232 155.574436 
L 697.43849 155.562202 
L 701.794748 155.558041 
L 704.69892 155.536654 
L 710.507264 155.539655 
L 716.315608 155.579153 
L 745.357327 155.543749 
L 758.426101 155.58778 
L 762.782359 155.56806 
L 786.015735 155.546175 
L 788.919907 155.569013 
L 803.440767 155.55331 
L 803.440767 155.55331 
" clip-path="url(#p410222c391)" style="fill: none; stroke-dasharray: 3.5,5.775; stroke-dashoffset: 0; stroke: #008000; stroke-opacity: 0.8; stroke-width: 3.5"/>
   </g>
   <g id="line2d_24">
    <path d="M 78.849858 218.778872 
L 106.439492 223.755449 
L 116.604094 225.988447 
L 128.220782 228.892225 
L 134.029126 230.524691 
L 155.810415 236.84758 
L 161.618759 238.239165 
L 165.975017 239.103385 
L 170.331275 239.71841 
L 174.687533 240.057561 
L 177.591705 240.089997 
L 181.947963 239.867219 
L 186.304221 239.359932 
L 190.660479 238.546661 
L 195.016737 237.497477 
L 200.825081 235.848733 
L 209.537597 233.075964 
L 232.770973 225.456194 
L 241.483489 222.800362 
L 257.456435 218.031398 
L 269.073123 214.392108 
L 277.785639 211.523096 
L 287.950241 208.142213 
L 293.758584 206.393764 
L 299.566928 204.941372 
L 303.923186 204.062849 
L 308.279444 203.451294 
L 312.635702 203.098701 
L 316.99196 203.0248 
L 321.348218 203.249198 
L 325.704476 203.77209 
L 330.060734 204.533409 
L 335.869078 205.788262 
L 343.129508 207.640077 
L 350.389938 209.740682 
L 409.925464 227.790927 
L 417.185894 229.651212 
L 421.542152 230.582167 
L 425.89841 231.348506 
L 430.254668 231.888073 
L 434.610926 232.221139 
L 438.967184 232.35626 
L 443.323441 232.29985 
L 449.131785 231.9821 
L 453.488043 231.539992 
L 459.296387 230.691731 
L 465.104731 229.574228 
L 470.913075 228.221011 
L 478.173505 226.277921 
L 486.886021 223.716712 
L 511.571483 216.268197 
L 518.831913 214.285403 
L 526.092343 212.545027 
L 531.900687 211.411947 
L 537.709031 210.533439 
L 542.065289 210.057139 
L 547.873633 209.688094 
L 552.229891 209.622516 
L 556.586149 209.742333 
L 560.942407 210.066016 
L 566.750751 210.758185 
L 572.559095 211.702934 
L 579.819525 213.15832 
L 587.079955 214.802255 
L 601.600814 218.412853 
L 621.930018 223.506941 
L 630.642534 225.444879 
L 637.902964 226.808611 
L 643.711308 227.66209 
L 649.519652 228.316788 
L 655.327996 228.712568 
L 659.684254 228.81014 
L 665.492598 228.715624 
L 671.300942 228.441894 
L 677.109286 227.932338 
L 682.91763 227.207045 
L 690.17806 226.054037 
L 697.43849 224.64589 
L 706.151006 222.700975 
L 732.288554 216.789786 
L 739.548983 215.51534 
L 748.261499 214.231272 
L 755.521929 213.41835 
L 762.782359 212.859763 
L 768.590703 212.616341 
L 774.399047 212.572176 
L 780.207391 212.742872 
L 787.467821 213.255407 
L 794.728251 214.010034 
L 803.440767 215.169903 
L 803.440767 215.169903 
" clip-path="url(#p410222c391)" style="fill: none; stroke-dasharray: 12.95,5.6; stroke-dashoffset: 0; stroke: #ff0000; stroke-opacity: 0.8; stroke-width: 3.5"/>
   </g>
  </g>
  <g id="text_14">
   <!-- State Variable Simulation Comparison -->
   <g transform="translate(266.762812 20.1175) scale(0.16 -0.16)">
    <defs>
     <path id="DejaVuSans-53" d="M 3425 4513 
L 3425 3897 
Q 3066 4069 2747 4153 
Q 2428 4238 2131 4238 
Q 1616 4238 1336 4038 
Q 1056 3838 1056 3469 
Q 1056 3159 1242 3001 
Q 1428 2844 1947 2747 
L 2328 2669 
Q 3034 2534 3370 2195 
Q 3706 1856 3706 1288 
Q 3706 609 3251 259 
Q 2797 -91 1919 -91 
Q 1588 -91 1214 -16 
Q 841 59 441 206 
L 441 856 
Q 825 641 1194 531 
Q 1563 422 1919 422 
Q 2459 422 2753 634 
Q 3047 847 3047 1241 
Q 3047 1584 2836 1778 
Q 2625 1972 2144 2069 
L 1759 2144 
Q 1053 2284 737 2584 
Q 422 2884 422 3419 
Q 422 4038 858 4394 
Q 1294 4750 2059 4750 
Q 2388 4750 2728 4690 
Q 3069 4631 3425 4513 
z
" transform="scale(0.015625)"/>
     <path id="DejaVuSans-74" d="M 1172 4494 
L 1172 3500 
L 2356 3500 
L 2356 3053 
L 1172 3053 
L 1172 1153 
Q 1172 725 1289 603 
Q 1406 481 1766 481 
L 2356 481 
L 2356 0 
L 1766 0 
Q 1100 0 847 248 
Q 594 497 594 1153 
L 594 3053 
L 172 3053 
L 172 3500 
L 594 3500 
L 594 4494 
L 1172 4494 
z
" transform="scale(0.015625)"/>
     <path id="DejaVuSans-61" d="M 2194 1759 
Q 1497 1759 1228 1600 
Q 959 1441 959 1056 
Q 959 750 1161 570 
Q 1363 391 1709 391 
Q 2188 391 2477 730 
Q 2766 1069 2766 1631 
L 2766 1759 
L 2194 1759 
z
M 3341 1997 
L 3341 0 
L 2766 0 
L 2766 531 
Q 2569 213 2275 61 
Q 1981 -91 1556 -91 
Q 1019 -91 701 211 
Q 384 513 384 1019 
Q 384 1609 779 1909 
Q 1175 2209 1959 2209 
L 2766 2209 
L 2766 2266 
Q 2766 2663 2505 2880 
Q 2244 3097 1772 3097 
Q 1472 3097 1187 3025 
Q 903 2953 641 2809 
L 641 3341 
Q 956 3463 1253 3523 
Q 1550 3584 1831 3584 
Q 2591 3584 2966 3190 
Q 3341 2797 3341 1997 
z
" transform="scale(0.015625)"/>
     <path id="DejaVuSans-20" transform="scale(0.015625)"/>
     <path id="DejaVuSans-56" d="M 1831 0 
L 50 4666 
L 709 4666 
L 2188 738 
L 3669 4666 
L 4325 4666 
L 2547 0 
L 1831 0 
z
" transform="scale(0.015625)"/>
     <path id="DejaVuSans-72" d="M 2631 2963 
Q 2534 3019 2420 3045 
Q 2306 3072 2169 3072 
Q 1681 3072 1420 2755 
Q 1159 2438 1159 1844 
L 1159 0 
L 581 0 
L 581 3500 
L 1159 3500 
L 1159 2956 
Q 1341 3275 1631 3429 
Q 1922 3584 2338 3584 
Q 2397 3584 2469 3576 
Q 2541 3569 2628 3553 
L 2631 2963 
z
" transform="scale(0.015625)"/>
     <path id="DejaVuSans-62" d="M 3116 1747 
Q 3116 2381 2855 2742 
Q 2594 3103 2138 3103 
Q 1681 3103 1420 2742 
Q 1159 2381 1159 1747 
Q 1159 1113 1420 752 
Q 1681 391 2138 391 
Q 2594 391 2855 752 
Q 3116 1113 3116 1747 
z
M 1159 2969 
Q 1341 3281 1617 3432 
Q 1894 3584 2278 3584 
Q 2916 3584 3314 3078 
Q 3713 2572 3713 1747 
Q 3713 922 3314 415 
Q 2916 -91 2278 -91 
Q 1894 -91 1617 61 
Q 1341 213 1159 525 
L 1159 0 
L 581 0 
L 581 4863 
L 1159 4863 
L 1159 2969 
z
" transform="scale(0.015625)"/>
     <path id="DejaVuSans-6c" d="M 603 4863 
L 1178 4863 
L 1178 0 
L 603 0 
L 603 4863 
z
" transform="scale(0.015625)"/>
     <path id="DejaVuSans-75" d="M 544 1381 
L 544 3500 
L 1119 3500 
L 1119 1403 
Q 1119 906 1312 657 
Q 1506 409 1894 409 
Q 2359 409 2629 706 
Q 2900 1003 2900 1516 
L 2900 3500 
L 3475 3500 
L 3475 0 
L 2900 0 
L 2900 538 
Q 2691 219 2414 64 
Q 2138 -91 1772 -91 
Q 1169 -91 856 284 
Q 544 659 544 1381 
z
M 1991 3584 
L 1991 3584 
z
" transform="scale(0.015625)"/>
     <path id="DejaVuSans-6f" d="M 1959 3097 
Q 1497 3097 1228 2736 
Q 959 2375 959 1747 
Q 959 1119 1226 758 
Q 1494 397 1959 397 
Q 2419 397 2687 759 
Q 2956 1122 2956 1747 
Q 2956 2369 2687 2733 
Q 2419 3097 1959 3097 
z
M 1959 3584 
Q 2709 3584 3137 3096 
Q 3566 2609 3566 1747 
Q 3566 888 3137 398 
Q 2709 -91 1959 -91 
Q 1206 -91 779 398 
Q 353 888 353 1747 
Q 353 2609 779 3096 
Q 1206 3584 1959 3584 
z
" transform="scale(0.015625)"/>
     <path id="DejaVuSans-6e" d="M 3513 2113 
L 3513 0 
L 2938 0 
L 2938 2094 
Q 2938 2591 2744 2837 
Q 2550 3084 2163 3084 
Q 1697 3084 1428 2787 
Q 1159 2491 1159 1978 
L 1159 0 
L 581 0 
L 581 3500 
L 1159 3500 
L 1159 2956 
Q 1366 3272 1645 3428 
Q 1925 3584 2291 3584 
Q 2894 3584 3203 3211 
Q 3513 2838 3513 2113 
z
" transform="scale(0.015625)"/>
     <path id="DejaVuSans-43" d="M 4122 4306 
L 4122 3641 
Q 3803 3938 3442 4084 
Q 3081 4231 2675 4231 
Q 1875 4231 1450 3742 
Q 1025 3253 1025 2328 
Q 1025 1406 1450 917 
Q 1875 428 2675 428 
Q 3081 428 3442 575 
Q 3803 722 4122 1019 
L 4122 359 
Q 3791 134 3420 21 
Q 3050 -91 2638 -91 
Q 1578 -91 968 557 
Q 359 1206 359 2328 
Q 359 3453 968 4101 
Q 1578 4750 2638 4750 
Q 3056 4750 3426 4639 
Q 3797 4528 4122 4306 
z
" transform="scale(0.015625)"/>
     <path id="DejaVuSans-70" d="M 1159 525 
L 1159 -1331 
L 581 -1331 
L 581 3500 
L 1159 3500 
L 1159 2969 
Q 1341 3281 1617 3432 
Q 1894 3584 2278 3584 
Q 2916 3584 3314 3078 
Q 3713 2572 3713 1747 
Q 3713 922 3314 415 
Q 2916 -91 2278 -91 
Q 1894 -91 1617 61 
Q 1341 213 1159 525 
z
M 3116 1747 
Q 3116 2381 2855 2742 
Q 2594 3103 2138 3103 
Q 1681 3103 1420 2742 
Q 1159 2381 1159 1747 
Q 1159 1113 1420 752 
Q 1681 391 2138 391 
Q 2594 391 2855 752 
Q 3116 1113 3116 1747 
z
" transform="scale(0.015625)"/>
     <path id="DejaVuSans-73" d="M 2834 3397 
L 2834 2853 
Q 2591 2978 2328 3040 
Q 2066 3103 1784 3103 
Q 1356 3103 1142 2972 
Q 928 2841 928 2578 
Q 928 2378 1081 2264 
Q 1234 2150 1697 2047 
L 1894 2003 
Q 2506 1872 2764 1633 
Q 3022 1394 3022 966 
Q 3022 478 2636 193 
Q 2250 -91 1575 -91 
Q 1294 -91 989 -36 
Q 684 19 347 128 
L 347 722 
Q 666 556 975 473 
Q 1284 391 1588 391 
Q 1994 391 2212 530 
Q 2431 669 2431 922 
Q 2431 1156 2273 1281 
Q 2116 1406 1581 1522 
L 1381 1569 
Q 847 1681 609 1914 
Q 372 2147 372 2553 
Q 372 3047 722 3315 
Q 1072 3584 1716 3584 
Q 2034 3584 2315 3537 
Q 2597 3491 2834 3397 
z
" transform="scale(0.015625)"/>
    </defs>
    <use xlink:href="#DejaVuSans-53"/>
    <use xlink:href="#DejaVuSans-74" transform="translate(63.476562 0)"/>
    <use xlink:href="#DejaVuSans-61" transform="translate(102.685547 0)"/>
    <use xlink:href="#DejaVuSans-74" transform="translate(163.964844 0)"/>
    <use xlink:href="#DejaVuSans-65" transform="translate(203.173828 0)"/>
    <use xlink:href="#DejaVuSans-20" transform="translate(264.697266 0)"/>
    <use xlink:href="#DejaVuSans-56" transform="translate(296.484375 0)"/>
    <use xlink:href="#DejaVuSans-61" transform="translate(357.142578 0)"/>
    <use xlink:href="#DejaVuSans-72" transform="translate(418.421875 0)"/>
    <use xlink:href="#DejaVuSans-69" transform="translate(459.535156 0)"/>
    <use xlink:href="#DejaVuSans-61" transform="translate(487.318359 0)"/>
    <use xlink:href="#DejaVuSans-62" transform="translate(548.597656 0)"/>
    <use xlink:href="#DejaVuSans-6c" transform="translate(612.074219 0)"/>
    <use xlink:href="#DejaVuSans-65" transform="translate(639.857422 0)"/>
    <use xlink:href="#DejaVuSans-20" transform="translate(701.380859 0)"/>
    <use xlink:href="#DejaVuSans-53" transform="translate(733.167969 0)"/>
    <use xlink:href="#DejaVuSans-69" transform="translate(796.644531 0)"/>
    <use xlink:href="#DejaVuSans-6d" transform="translate(824.427734 0)"/>
    <use xlink:href="#DejaVuSans-75" transform="translate(921.839844 0)"/>
    <use xlink:href="#DejaVuSans-6c" transform="translate(985.21875 0)"/>
    <use xlink:href="#DejaVuSans-61" transform="translate(1013.001953 0)"/>
    <use xlink:href="#DejaVuSans-74" transform="translate(1074.28125 0)"/>
    <use xlink:href="#DejaVuSans-69" transform="translate(1113.490234 0)"/>
    <use xlink:href="#DejaVuSans-6f" transform="translate(1141.273438 0)"/>
    <use xlink:href="#DejaVuSans-6e" transform="translate(1202.455078 0)"/>
    <use xlink:href="#DejaVuSans-20" transform="translate(1265.833984 0)"/>
    <use xlink:href="#DejaVuSans-43" transform="translate(1297.621094 0)"/>
    <use xlink:href="#DejaVuSans-6f" transform="translate(1367.445312 0)"/>
    <use xlink:href="#DejaVuSans-6d" transform="translate(1428.626953 0)"/>
    <use xlink:href="#DejaVuSans-70" transform="translate(1526.039062 0)"/>
    <use xlink:href="#DejaVuSans-61" transform="translate(1589.515625 0)"/>
    <use xlink:href="#DejaVuSans-72" transform="translate(1650.794922 0)"/>
    <use xlink:href="#DejaVuSans-69" transform="translate(1691.908203 0)"/>
    <use xlink:href="#DejaVuSans-73" transform="translate(1719.691406 0)"/>
    <use xlink:href="#DejaVuSans-6f" transform="translate(1771.791016 0)"/>
    <use xlink:href="#DejaVuSans-6e" transform="translate(1832.972656 0)"/>
   </g>
  </g>
  <g id="legend_1">
   <g id="patch_12">
    <path d="M 734.598438 66.7125 
L 845.670313 66.7125 
Q 847.670313 66.7125 847.670313 64.7125 
L 847.670313 7 
Q 847.670313 5 845.670313 5 
L 734.598438 5 
Q 732.598438 5 732.598438 7 
L 732.598438 64.7125 
Q 732.598438 66.7125 734.598438 66.7125 
z
" style="fill: #ffffff; opacity: 0.5; stroke: #cccccc; stroke-linejoin: miter"/>
   </g>
   <g id="line2d_25">
    <path d="M 736.598438 13.098437 
L 746.598438 13.098437 
L 756.598438 13.098437 
" style="fill: none; stroke: #000000; stroke-opacity: 0.4; stroke-width: 6; stroke-linecap: square"/>
   </g>
   <g id="text_15">
    <!-- True Trajectory -->
    <g transform="translate(764.598438 16.598437) scale(0.1 -0.1)">
     <defs>
      <path id="DejaVuSans-6a" d="M 603 3500 
L 1178 3500 
L 1178 -63 
Q 1178 -731 923 -1031 
Q 669 -1331 103 -1331 
L -116 -1331 
L -116 -844 
L 38 -844 
Q 366 -844 484 -692 
Q 603 -541 603 -63 
L 603 3500 
z
M 603 4863 
L 1178 4863 
L 1178 4134 
L 603 4134 
L 603 4863 
z
" transform="scale(0.015625)"/>
      <path id="DejaVuSans-63" d="M 3122 3366 
L 3122 2828 
Q 2878 2963 2633 3030 
Q 2388 3097 2138 3097 
Q 1578 3097 1268 2742 
Q 959 2388 959 1747 
Q 959 1106 1268 751 
Q 1578 397 2138 397 
Q 2388 397 2633 464 
Q 2878 531 3122 666 
L 3122 134 
Q 2881 22 2623 -34 
Q 2366 -91 2075 -91 
Q 1284 -91 818 406 
Q 353 903 353 1747 
Q 353 2603 823 3093 
Q 1294 3584 2113 3584 
Q 2378 3584 2631 3529 
Q 2884 3475 3122 3366 
z
" transform="scale(0.015625)"/>
      <path id="DejaVuSans-79" d="M 2059 -325 
Q 1816 -950 1584 -1140 
Q 1353 -1331 966 -1331 
L 506 -1331 
L 506 -850 
L 844 -850 
Q 1081 -850 1212 -737 
Q 1344 -625 1503 -206 
L 1606 56 
L 191 3500 
L 800 3500 
L 1894 763 
L 2988 3500 
L 3597 3500 
L 2059 -325 
z
" transform="scale(0.015625)"/>
     </defs>
     <use xlink:href="#DejaVuSans-54"/>
     <use xlink:href="#DejaVuSans-72" transform="translate(46.333984 0)"/>
     <use xlink:href="#DejaVuSans-75" transform="translate(87.447266 0)"/>
     <use xlink:href="#DejaVuSans-65" transform="translate(150.826172 0)"/>
     <use xlink:href="#DejaVuSans-20" transform="translate(212.349609 0)"/>
     <use xlink:href="#DejaVuSans-54" transform="translate(244.136719 0)"/>
     <use xlink:href="#DejaVuSans-72" transform="translate(290.470703 0)"/>
     <use xlink:href="#DejaVuSans-61" transform="translate(331.583984 0)"/>
     <use xlink:href="#DejaVuSans-6a" transform="translate(392.863281 0)"/>
     <use xlink:href="#DejaVuSans-65" transform="translate(420.646484 0)"/>
     <use xlink:href="#DejaVuSans-63" transform="translate(482.169922 0)"/>
     <use xlink:href="#DejaVuSans-74" transform="translate(537.150391 0)"/>
     <use xlink:href="#DejaVuSans-6f" transform="translate(576.359375 0)"/>
     <use xlink:href="#DejaVuSans-72" transform="translate(637.541016 0)"/>
     <use xlink:href="#DejaVuSans-79" transform="translate(678.654297 0)"/>
    </g>
   </g>
   <g id="line2d_26">
    <path d="M 736.598438 27.776562 
L 746.598438 27.776562 
L 756.598438 27.776562 
" style="fill: none; stroke-dasharray: 12.95,5.6; stroke-dashoffset: 0; stroke: #ff0000; stroke-opacity: 0.8; stroke-width: 3.5"/>
   </g>
   <g id="text_16">
    <!-- AutoSINDy -->
    <g transform="translate(764.598438 31.276562) scale(0.1 -0.1)">
     <defs>
      <path id="DejaVuSans-41" d="M 2188 4044 
L 1331 1722 
L 3047 1722 
L 2188 4044 
z
M 1831 4666 
L 2547 4666 
L 4325 0 
L 3669 0 
L 3244 1197 
L 1141 1197 
L 716 0 
L 50 0 
L 1831 4666 
z
" transform="scale(0.015625)"/>
      <path id="DejaVuSans-49" d="M 628 4666 
L 1259 4666 
L 1259 0 
L 628 0 
L 628 4666 
z
" transform="scale(0.015625)"/>
      <path id="DejaVuSans-4e" d="M 628 4666 
L 1478 4666 
L 3547 763 
L 3547 4666 
L 4159 4666 
L 4159 0 
L 3309 0 
L 1241 3903 
L 1241 0 
L 628 0 
L 628 4666 
z
" transform="scale(0.015625)"/>
      <path id="DejaVuSans-44" d="M 1259 4147 
L 1259 519 
L 2022 519 
Q 2988 519 3436 956 
Q 3884 1394 3884 2338 
Q 3884 3275 3436 3711 
Q 2988 4147 2022 4147 
L 1259 4147 
z
M 628 4666 
L 1925 4666 
Q 3281 4666 3915 4102 
Q 4550 3538 4550 2338 
Q 4550 1131 3912 565 
Q 3275 0 1925 0 
L 628 0 
L 628 4666 
z
" transform="scale(0.015625)"/>
     </defs>
     <use xlink:href="#DejaVuSans-41"/>
     <use xlink:href="#DejaVuSans-75" transform="translate(68.408203 0)"/>
     <use xlink:href="#DejaVuSans-74" transform="translate(131.787109 0)"/>
     <use xlink:href="#DejaVuSans-6f" transform="translate(170.996094 0)"/>
     <use xlink:href="#DejaVuSans-53" transform="translate(232.177734 0)"/>
     <use xlink:href="#DejaVuSans-49" transform="translate(295.654297 0)"/>
     <use xlink:href="#DejaVuSans-4e" transform="translate(325.146484 0)"/>
     <use xlink:href="#DejaVuSans-44" transform="translate(399.951172 0)"/>
     <use xlink:href="#DejaVuSans-79" transform="translate(476.953125 0)"/>
    </g>
   </g>
   <g id="line2d_27">
    <path d="M 736.598438 42.454687 
L 746.598438 42.454687 
L 756.598438 42.454687 
" style="fill: none; stroke-dasharray: 3.5,5.775; stroke-dashoffset: 0; stroke: #008000; stroke-opacity: 0.8; stroke-width: 3.5"/>
   </g>
   <g id="text_17">
    <!-- Standard SINDy -->
    <g transform="translate(764.598438 45.954687) scale(0.1 -0.1)">
     <defs>
      <path id="DejaVuSans-64" d="M 2906 2969 
L 2906 4863 
L 3481 4863 
L 3481 0 
L 2906 0 
L 2906 525 
Q 2725 213 2448 61 
Q 2172 -91 1784 -91 
Q 1150 -91 751 415 
Q 353 922 353 1747 
Q 353 2572 751 3078 
Q 1150 3584 1784 3584 
Q 2172 3584 2448 3432 
Q 2725 3281 2906 2969 
z
M 947 1747 
Q 947 1113 1208 752 
Q 1469 391 1925 391 
Q 2381 391 2643 752 
Q 2906 1113 2906 1747 
Q 2906 2381 2643 2742 
Q 2381 3103 1925 3103 
Q 1469 3103 1208 2742 
Q 947 2381 947 1747 
z
" transform="scale(0.015625)"/>
     </defs>
     <use xlink:href="#DejaVuSans-53"/>
     <use xlink:href="#DejaVuSans-74" transform="translate(63.476562 0)"/>
     <use xlink:href="#DejaVuSans-61" transform="translate(102.685547 0)"/>
     <use xlink:href="#DejaVuSans-6e" transform="translate(163.964844 0)"/>
     <use xlink:href="#DejaVuSans-64" transform="translate(227.34375 0)"/>
     <use xlink:href="#DejaVuSans-61" transform="translate(290.820312 0)"/>
     <use xlink:href="#DejaVuSans-72" transform="translate(352.099609 0)"/>
     <use xlink:href="#DejaVuSans-64" transform="translate(391.462891 0)"/>
     <use xlink:href="#DejaVuSans-20" transform="translate(454.939453 0)"/>
     <use xlink:href="#DejaVuSans-53" transform="translate(486.726562 0)"/>
     <use xlink:href="#DejaVuSans-49" transform="translate(550.203125 0)"/>
     <use xlink:href="#DejaVuSans-4e" transform="translate(579.695312 0)"/>
     <use xlink:href="#DejaVuSans-44" transform="translate(654.5 0)"/>
     <use xlink:href="#DejaVuSans-79" transform="translate(731.501953 0)"/>
    </g>
   </g>
   <g id="line2d_28">
    <path d="M 736.598438 57.132812 
L 746.598438 57.132812 
L 756.598438 57.132812 
" style="fill: none; stroke-dasharray: 22.4,5.6,3.5,5.6; stroke-dashoffset: 0; stroke: #0000ff; stroke-opacity: 0.8; stroke-width: 3.5"/>
   </g>
   <g id="text_18">
    <!-- Standard PySR -->
    <g transform="translate(764.598438 60.632812) scale(0.1 -0.1)">
     <defs>
      <path id="DejaVuSans-50" d="M 1259 4147 
L 1259 2394 
L 2053 2394 
Q 2494 2394 2734 2622 
Q 2975 2850 2975 3272 
Q 2975 3691 2734 3919 
Q 2494 4147 2053 4147 
L 1259 4147 
z
M 628 4666 
L 2053 4666 
Q 2838 4666 3239 4311 
Q 3641 3956 3641 3272 
Q 3641 2581 3239 2228 
Q 2838 1875 2053 1875 
L 1259 1875 
L 1259 0 
L 628 0 
L 628 4666 
z
" transform="scale(0.015625)"/>
      <path id="DejaVuSans-52" d="M 2841 2188 
Q 3044 2119 3236 1894 
Q 3428 1669 3622 1275 
L 4263 0 
L 3584 0 
L 2988 1197 
Q 2756 1666 2539 1819 
Q 2322 1972 1947 1972 
L 1259 1972 
L 1259 0 
L 628 0 
L 628 4666 
L 2053 4666 
Q 2853 4666 3247 4331 
Q 3641 3997 3641 3322 
Q 3641 2881 3436 2590 
Q 3231 2300 2841 2188 
z
M 1259 4147 
L 1259 2491 
L 2053 2491 
Q 2509 2491 2742 2702 
Q 2975 2913 2975 3322 
Q 2975 3731 2742 3939 
Q 2509 4147 2053 4147 
L 1259 4147 
z
" transform="scale(0.015625)"/>
     </defs>
     <use xlink:href="#DejaVuSans-53"/>
     <use xlink:href="#DejaVuSans-74" transform="translate(63.476562 0)"/>
     <use xlink:href="#DejaVuSans-61" transform="translate(102.685547 0)"/>
     <use xlink:href="#DejaVuSans-6e" transform="translate(163.964844 0)"/>
     <use xlink:href="#DejaVuSans-64" transform="translate(227.34375 0)"/>
     <use xlink:href="#DejaVuSans-61" transform="translate(290.820312 0)"/>
     <use xlink:href="#DejaVuSans-72" transform="translate(352.099609 0)"/>
     <use xlink:href="#DejaVuSans-64" transform="translate(391.462891 0)"/>
     <use xlink:href="#DejaVuSans-20" transform="translate(454.939453 0)"/>
     <use xlink:href="#DejaVuSans-50" transform="translate(486.726562 0)"/>
     <use xlink:href="#DejaVuSans-79" transform="translate(547.029297 0)"/>
     <use xlink:href="#DejaVuSans-53" transform="translate(606.208984 0)"/>
     <use xlink:href="#DejaVuSans-52" transform="translate(669.685547 0)"/>
    </g>
   </g>
  </g>
 </g>
 <defs>
  <clipPath id="p3169698fad">
   <rect x="42.620313" y="39.64" width="797.05" height="97.15"/>
  </clipPath>
  <clipPath id="p410222c391">
   <rect x="42.620313" y="151.09" width="797.05" height="97.15"/>
  </clipPath>
 </defs>
</svg>
