<?xml version="1.0" encoding="utf-8" standalone="no"?>
<!DOCTYPE svg PUBLIC "-//W3C//DTD SVG 1.1//EN"
  "http://www.w3.org/Graphics/SVG/1.1/DTD/svg11.dtd">
<svg xmlns:xlink="http://www.w3.org/1999/xlink" width="568.410937pt" height="567.994375pt" viewBox="0 0 568.410937 567.994375" xmlns="http://www.w3.org/2000/svg" version="1.1">
 <metadata>
  <rdf:RDF xmlns:dc="http://purl.org/dc/elements/1.1/" xmlns:cc="http://creativecommons.org/ns#" xmlns:rdf="http://www.w3.org/1999/02/22-rdf-syntax-ns#">
   <cc:Work>
    <dc:type rdf:resource="http://purl.org/dc/dcmitype/StillImage"/>
    <dc:date>2026-04-06T11:13:56.399751</dc:date>
    <dc:format>image/svg+xml</dc:format>
    <dc:creator>
     <cc:Agent>
      <dc:title>Matplotlib v3.10.7, https://matplotlib.org/</dc:title>
     </cc:Agent>
    </dc:creator>
   </cc:Work>
  </rdf:RDF>
 </metadata>
 <defs>
  <style type="text/css">*{stroke-linejoin: round; stroke-linecap: butt}</style>
 </defs>
 <g id="figure_1">
  <g id="patch_1">
   <path d="M 0 567.994375 
L 568.410937 567.994375 
L 568.410937 0 
L 0 0 
z
" style="fill: #ffffff"/>
  </g>
  <g id="axes_1">
   <g id="patch_2">
    <path d="M 52.160938 530.438125 
L 561.210937 530.438125 
L 561.210937 22.318125 
L 52.160938 22.318125 
z
" style="fill: #ffffff"/>
   </g>
   <g id="matplotlib.axis_1">
    <g id="xtick_1">
     <g id="line2d_1">
      <defs>
       <path id="m8bafb20388" d="M 0 0 
L 0 3.5 
" style="stroke: #000000; stroke-width: 0.8"/>
      </defs>
      <g>
       <use xlink:href="#m8bafb20388" x="76.740442" y="530.438125" style="stroke: #000000; stroke-width: 0.8"/>
      </g>
     </g>
     <g id="text_1">
      <!-- −0.8 -->
      <g transform="translate(64.599036 545.036562) scale(0.1 -0.1)">
       <defs>
        <path id="DejaVuSans-2212" d="M 678 2272 
L 4684 2272 
L 4684 1741 
L 678 1741 
L 678 2272 
z
" transform="scale(0.015625)"/>
        <path id="DejaVuSans-30" d="M 2034 4250 
Q 1547 4250 1301 3770 
Q 1056 3291 1056 2328 
Q 1056 1369 1301 889 
Q 1547 409 2034 409 
Q 2525 409 2770 889 
Q 3016 1369 3016 2328 
Q 3016 3291 2770 3770 
Q 2525 4250 2034 4250 
z
M 2034 4750 
Q 2819 4750 3233 4129 
Q 3647 3509 3647 2328 
Q 3647 1150 3233 529 
Q 2819 -91 2034 -91 
Q 1250 -91 836 529 
Q 422 1150 422 2328 
Q 422 3509 836 4129 
Q 1250 4750 2034 4750 
z
" transform="scale(0.015625)"/>
        <path id="DejaVuSans-2e" d="M 684 794 
L 1344 794 
L 1344 0 
L 684 0 
L 684 794 
z
" transform="scale(0.015625)"/>
        <path id="DejaVuSans-38" d="M 2034 2216 
Q 1584 2216 1326 1975 
Q 1069 1734 1069 1313 
Q 1069 891 1326 650 
Q 1584 409 2034 409 
Q 2484 409 2743 651 
Q 3003 894 3003 1313 
Q 3003 1734 2745 1975 
Q 2488 2216 2034 2216 
z
M 1403 2484 
Q 997 2584 770 2862 
Q 544 3141 544 3541 
Q 544 4100 942 4425 
Q 1341 4750 2034 4750 
Q 2731 4750 3128 4425 
Q 3525 4100 3525 3541 
Q 3525 3141 3298 2862 
Q 3072 2584 2669 2484 
Q 3125 2378 3379 2068 
Q 3634 1759 3634 1313 
Q 3634 634 3220 271 
Q 2806 -91 2034 -91 
Q 1263 -91 848 271 
Q 434 634 434 1313 
Q 434 1759 690 2068 
Q 947 2378 1403 2484 
z
M 1172 3481 
Q 1172 3119 1398 2916 
Q 1625 2713 2034 2713 
Q 2441 2713 2670 2916 
Q 2900 3119 2900 3481 
Q 2900 3844 2670 4047 
Q 2441 4250 2034 4250 
Q 1625 4250 1398 4047 
Q 1172 3844 1172 3481 
z
" transform="scale(0.015625)"/>
       </defs>
       <use xlink:href="#DejaVuSans-2212"/>
       <use xlink:href="#DejaVuSans-30" transform="translate(83.789062 0)"/>
       <use xlink:href="#DejaVuSans-2e" transform="translate(147.412109 0)"/>
       <use xlink:href="#DejaVuSans-38" transform="translate(179.199219 0)"/>
      </g>
     </g>
    </g>
    <g id="xtick_2">
     <g id="line2d_2">
      <g>
       <use xlink:href="#m8bafb20388" x="134.226714" y="530.438125" style="stroke: #000000; stroke-width: 0.8"/>
      </g>
     </g>
     <g id="text_2">
      <!-- −0.6 -->
      <g transform="translate(122.085308 545.036562) scale(0.1 -0.1)">
       <defs>
        <path id="DejaVuSans-36" d="M 2113 2584 
Q 1688 2584 1439 2293 
Q 1191 2003 1191 1497 
Q 1191 994 1439 701 
Q 1688 409 2113 409 
Q 2538 409 2786 701 
Q 3034 994 3034 1497 
Q 3034 2003 2786 2293 
Q 2538 2584 2113 2584 
z
M 3366 4563 
L 3366 3988 
Q 3128 4100 2886 4159 
Q 2644 4219 2406 4219 
Q 1781 4219 1451 3797 
Q 1122 3375 1075 2522 
Q 1259 2794 1537 2939 
Q 1816 3084 2150 3084 
Q 2853 3084 3261 2657 
Q 3669 2231 3669 1497 
Q 3669 778 3244 343 
Q 2819 -91 2113 -91 
Q 1303 -91 875 529 
Q 447 1150 447 2328 
Q 447 3434 972 4092 
Q 1497 4750 2381 4750 
Q 2619 4750 2861 4703 
Q 3103 4656 3366 4563 
z
" transform="scale(0.015625)"/>
       </defs>
       <use xlink:href="#DejaVuSans-2212"/>
       <use xlink:href="#DejaVuSans-30" transform="translate(83.789062 0)"/>
       <use xlink:href="#DejaVuSans-2e" transform="translate(147.412109 0)"/>
       <use xlink:href="#DejaVuSans-36" transform="translate(179.199219 0)"/>
      </g>
     </g>
    </g>
    <g id="xtick_3">
     <g id="line2d_3">
      <g>
       <use xlink:href="#m8bafb20388" x="191.712986" y="530.438125" style="stroke: #000000; stroke-width: 0.8"/>
      </g>
     </g>
     <g id="text_3">
      <!-- −0.4 -->
      <g transform="translate(179.57158 545.036562) scale(0.1 -0.1)">
       <defs>
        <path id="DejaVuSans-34" d="M 2419 4116 
L 825 1625 
L 2419 1625 
L 2419 4116 
z
M 2253 4666 
L 3047 4666 
L 3047 1625 
L 3713 1625 
L 3713 1100 
L 3047 1100 
L 3047 0 
L 2419 0 
L 2419 1100 
L 313 1100 
L 313 1709 
L 2253 4666 
z
" transform="scale(0.015625)"/>
       </defs>
       <use xlink:href="#DejaVuSans-2212"/>
       <use xlink:href="#DejaVuSans-30" transform="translate(83.789062 0)"/>
       <use xlink:href="#DejaVuSans-2e" transform="translate(147.412109 0)"/>
       <use xlink:href="#DejaVuSans-34" transform="translate(179.199219 0)"/>
      </g>
     </g>
    </g>
    <g id="xtick_4">
     <g id="line2d_4">
      <g>
       <use xlink:href="#m8bafb20388" x="249.199258" y="530.438125" style="stroke: #000000; stroke-width: 0.8"/>
      </g>
     </g>
     <g id="text_4">
      <!-- −0.2 -->
      <g transform="translate(237.057852 545.036562) scale(0.1 -0.1)">
       <defs>
        <path id="DejaVuSans-32" d="M 1228 531 
L 3431 531 
L 3431 0 
L 469 0 
L 469 531 
Q 828 903 1448 1529 
Q 2069 2156 2228 2338 
Q 2531 2678 2651 2914 
Q 2772 3150 2772 3378 
Q 2772 3750 2511 3984 
Q 2250 4219 1831 4219 
Q 1534 4219 1204 4116 
Q 875 4013 500 3803 
L 500 4441 
Q 881 4594 1212 4672 
Q 1544 4750 1819 4750 
Q 2544 4750 2975 4387 
Q 3406 4025 3406 3419 
Q 3406 3131 3298 2873 
Q 3191 2616 2906 2266 
Q 2828 2175 2409 1742 
Q 1991 1309 1228 531 
z
" transform="scale(0.015625)"/>
       </defs>
       <use xlink:href="#DejaVuSans-2212"/>
       <use xlink:href="#DejaVuSans-30" transform="translate(83.789062 0)"/>
       <use xlink:href="#DejaVuSans-2e" transform="translate(147.412109 0)"/>
       <use xlink:href="#DejaVuSans-32" transform="translate(179.199219 0)"/>
      </g>
     </g>
    </g>
    <g id="xtick_5">
     <g id="line2d_5">
      <g>
       <use xlink:href="#m8bafb20388" x="306.68553" y="530.438125" style="stroke: #000000; stroke-width: 0.8"/>
      </g>
     </g>
     <g id="text_5">
      <!-- 0.0 -->
      <g transform="translate(298.733967 545.036562) scale(0.1 -0.1)">
       <use xlink:href="#DejaVuSans-30"/>
       <use xlink:href="#DejaVuSans-2e" transform="translate(63.623047 0)"/>
       <use xlink:href="#DejaVuSans-30" transform="translate(95.410156 0)"/>
      </g>
     </g>
    </g>
    <g id="xtick_6">
     <g id="line2d_6">
      <g>
       <use xlink:href="#m8bafb20388" x="364.171802" y="530.438125" style="stroke: #000000; stroke-width: 0.8"/>
      </g>
     </g>
     <g id="text_6">
      <!-- 0.2 -->
      <g transform="translate(356.220239 545.036562) scale(0.1 -0.1)">
       <use xlink:href="#DejaVuSans-30"/>
       <use xlink:href="#DejaVuSans-2e" transform="translate(63.623047 0)"/>
       <use xlink:href="#DejaVuSans-32" transform="translate(95.410156 0)"/>
      </g>
     </g>
    </g>
    <g id="xtick_7">
     <g id="line2d_7">
      <g>
       <use xlink:href="#m8bafb20388" x="421.658074" y="530.438125" style="stroke: #000000; stroke-width: 0.8"/>
      </g>
     </g>
     <g id="text_7">
      <!-- 0.4 -->
      <g transform="translate(413.706511 545.036562) scale(0.1 -0.1)">
       <use xlink:href="#DejaVuSans-30"/>
       <use xlink:href="#DejaVuSans-2e" transform="translate(63.623047 0)"/>
       <use xlink:href="#DejaVuSans-34" transform="translate(95.410156 0)"/>
      </g>
     </g>
    </g>
    <g id="xtick_8">
     <g id="line2d_8">
      <g>
       <use xlink:href="#m8bafb20388" x="479.144345" y="530.438125" style="stroke: #000000; stroke-width: 0.8"/>
      </g>
     </g>
     <g id="text_8">
      <!-- 0.6 -->
      <g transform="translate(471.192783 545.036562) scale(0.1 -0.1)">
       <use xlink:href="#DejaVuSans-30"/>
       <use xlink:href="#DejaVuSans-2e" transform="translate(63.623047 0)"/>
       <use xlink:href="#DejaVuSans-36" transform="translate(95.410156 0)"/>
      </g>
     </g>
    </g>
    <g id="xtick_9">
     <g id="line2d_9">
      <g>
       <use xlink:href="#m8bafb20388" x="536.630617" y="530.438125" style="stroke: #000000; stroke-width: 0.8"/>
      </g>
     </g>
     <g id="text_9">
      <!-- 0.8 -->
      <g transform="translate(528.679055 545.036562) scale(0.1 -0.1)">
       <use xlink:href="#DejaVuSans-30"/>
       <use xlink:href="#DejaVuSans-2e" transform="translate(63.623047 0)"/>
       <use xlink:href="#DejaVuSans-38" transform="translate(95.410156 0)"/>
      </g>
     </g>
    </g>
    <g id="text_10">
     <!-- x0 -->
     <g transform="translate(300.545312 558.714687) scale(0.1 -0.1)">
      <defs>
       <path id="DejaVuSans-78" d="M 3513 3500 
L 2247 1797 
L 3578 0 
L 2900 0 
L 1881 1375 
L 863 0 
L 184 0 
L 1544 1831 
L 300 3500 
L 978 3500 
L 1906 2253 
L 2834 3500 
L 3513 3500 
z
" transform="scale(0.015625)"/>
      </defs>
      <use xlink:href="#DejaVuSans-78"/>
      <use xlink:href="#DejaVuSans-30" transform="translate(59.179688 0)"/>
     </g>
    </g>
   </g>
   <g id="matplotlib.axis_2">
    <g id="ytick_1">
     <g id="line2d_10">
      <defs>
       <path id="m7c560683f2" d="M 0 0 
L -3.5 0 
" style="stroke: #000000; stroke-width: 0.8"/>
      </defs>
      <g>
       <use xlink:href="#m7c560683f2" x="52.160938" y="471.493607" style="stroke: #000000; stroke-width: 0.8"/>
      </g>
     </g>
     <g id="text_11">
      <!-- −1.5 -->
      <g transform="translate(20.878125 475.292826) scale(0.1 -0.1)">
       <defs>
        <path id="DejaVuSans-31" d="M 794 531 
L 1825 531 
L 1825 4091 
L 703 3866 
L 703 4441 
L 1819 4666 
L 2450 4666 
L 2450 531 
L 3481 531 
L 3481 0 
L 794 0 
L 794 531 
z
" transform="scale(0.015625)"/>
        <path id="DejaVuSans-35" d="M 691 4666 
L 3169 4666 
L 3169 4134 
L 1269 4134 
L 1269 2991 
Q 1406 3038 1543 3061 
Q 1681 3084 1819 3084 
Q 2600 3084 3056 2656 
Q 3513 2228 3513 1497 
Q 3513 744 3044 326 
Q 2575 -91 1722 -91 
Q 1428 -91 1123 -41 
Q 819 9 494 109 
L 494 744 
Q 775 591 1075 516 
Q 1375 441 1709 441 
Q 2250 441 2565 725 
Q 2881 1009 2881 1497 
Q 2881 1984 2565 2268 
Q 2250 2553 1709 2553 
Q 1456 2553 1204 2497 
Q 953 2441 691 2322 
L 691 4666 
z
" transform="scale(0.015625)"/>
       </defs>
       <use xlink:href="#DejaVuSans-2212"/>
       <use xlink:href="#DejaVuSans-31" transform="translate(83.789062 0)"/>
       <use xlink:href="#DejaVuSans-2e" transform="translate(147.412109 0)"/>
       <use xlink:href="#DejaVuSans-35" transform="translate(179.199219 0)"/>
      </g>
     </g>
    </g>
    <g id="ytick_2">
     <g id="line2d_11">
      <g>
       <use xlink:href="#m7c560683f2" x="52.160938" y="406.455021" style="stroke: #000000; stroke-width: 0.8"/>
      </g>
     </g>
     <g id="text_12">
      <!-- −1.0 -->
      <g transform="translate(20.878125 410.25424) scale(0.1 -0.1)">
       <use xlink:href="#DejaVuSans-2212"/>
       <use xlink:href="#DejaVuSans-31" transform="translate(83.789062 0)"/>
       <use xlink:href="#DejaVuSans-2e" transform="translate(147.412109 0)"/>
       <use xlink:href="#DejaVuSans-30" transform="translate(179.199219 0)"/>
      </g>
     </g>
    </g>
    <g id="ytick_3">
     <g id="line2d_12">
      <g>
       <use xlink:href="#m7c560683f2" x="52.160938" y="341.416435" style="stroke: #000000; stroke-width: 0.8"/>
      </g>
     </g>
     <g id="text_13">
      <!-- −0.5 -->
      <g transform="translate(20.878125 345.215654) scale(0.1 -0.1)">
       <use xlink:href="#DejaVuSans-2212"/>
       <use xlink:href="#DejaVuSans-30" transform="translate(83.789062 0)"/>
       <use xlink:href="#DejaVuSans-2e" transform="translate(147.412109 0)"/>
       <use xlink:href="#DejaVuSans-35" transform="translate(179.199219 0)"/>
      </g>
     </g>
    </g>
    <g id="ytick_4">
     <g id="line2d_13">
      <g>
       <use xlink:href="#m7c560683f2" x="52.160938" y="276.37785" style="stroke: #000000; stroke-width: 0.8"/>
      </g>
     </g>
     <g id="text_14">
      <!-- 0.0 -->
      <g transform="translate(29.257812 280.177068) scale(0.1 -0.1)">
       <use xlink:href="#DejaVuSans-30"/>
       <use xlink:href="#DejaVuSans-2e" transform="translate(63.623047 0)"/>
       <use xlink:href="#DejaVuSans-30" transform="translate(95.410156 0)"/>
      </g>
     </g>
    </g>
    <g id="ytick_5">
     <g id="line2d_14">
      <g>
       <use xlink:href="#m7c560683f2" x="52.160938" y="211.339264" style="stroke: #000000; stroke-width: 0.8"/>
      </g>
     </g>
     <g id="text_15">
      <!-- 0.5 -->
      <g transform="translate(29.257812 215.138483) scale(0.1 -0.1)">
       <use xlink:href="#DejaVuSans-30"/>
       <use xlink:href="#DejaVuSans-2e" transform="translate(63.623047 0)"/>
       <use xlink:href="#DejaVuSans-35" transform="translate(95.410156 0)"/>
      </g>
     </g>
    </g>
    <g id="ytick_6">
     <g id="line2d_15">
      <g>
       <use xlink:href="#m7c560683f2" x="52.160938" y="146.300678" style="stroke: #000000; stroke-width: 0.8"/>
      </g>
     </g>
     <g id="text_16">
      <!-- 1.0 -->
      <g transform="translate(29.257812 150.099897) scale(0.1 -0.1)">
       <use xlink:href="#DejaVuSans-31"/>
       <use xlink:href="#DejaVuSans-2e" transform="translate(63.623047 0)"/>
       <use xlink:href="#DejaVuSans-30" transform="translate(95.410156 0)"/>
      </g>
     </g>
    </g>
    <g id="ytick_7">
     <g id="line2d_16">
      <g>
       <use xlink:href="#m7c560683f2" x="52.160938" y="81.262093" style="stroke: #000000; stroke-width: 0.8"/>
      </g>
     </g>
     <g id="text_17">
      <!-- 1.5 -->
      <g transform="translate(29.257812 85.061311) scale(0.1 -0.1)">
       <use xlink:href="#DejaVuSans-31"/>
       <use xlink:href="#DejaVuSans-2e" transform="translate(63.623047 0)"/>
       <use xlink:href="#DejaVuSans-35" transform="translate(95.410156 0)"/>
      </g>
     </g>
    </g>
    <g id="text_18">
     <!-- x1 -->
     <g transform="translate(14.798438 282.51875) rotate(-90) scale(0.1 -0.1)">
      <use xlink:href="#DejaVuSans-78"/>
      <use xlink:href="#DejaVuSans-31" transform="translate(59.179688 0)"/>
     </g>
    </g>
   </g>
   <g id="line2d_17">
    <path d="M 536.630617 250.362415 
L 537.549695 260.884371 
L 538.002882 271.400683 
L 537.990891 281.890484 
L 537.515702 292.3341 
L 536.579998 302.71057 
L 535.18706 312.997896 
L 533.341103 323.174539 
L 531.047272 333.219416 
L 528.311645 343.111901 
L 525.141232 352.831828 
L 521.543971 362.359486 
L 517.528737 371.675624 
L 513.105332 380.761447 
L 508.284493 389.598618 
L 503.077885 398.169257 
L 497.498108 406.455943 
L 491.558693 414.44171 
L 485.273512 422.111147 
L 478.655442 429.452359 
L 471.720106 436.449603 
L 464.483722 443.08779 
L 456.962815 449.353043 
L 449.174216 455.232703 
L 441.135064 460.715323 
L 432.862805 465.790672 
L 424.375193 470.449733 
L 415.690288 474.684706 
L 406.826456 478.489002 
L 397.802373 481.85725 
L 388.637021 484.785292 
L 379.349686 487.270185 
L 369.959966 489.310201 
L 360.487764 490.904827 
L 350.953288 492.054764 
L 341.377057 492.761928 
L 331.779895 493.029451 
L 322.182932 492.861677 
L 312.606659 492.263875 
L 303.063537 491.239155 
L 293.572119 489.79196 
L 284.152576 487.927909 
L 274.824485 485.653269 
L 265.606835 482.974949 
L 256.518024 479.900498 
L 247.57586 476.438114 
L 238.797561 472.596635 
L 230.199756 468.385544 
L 221.79848 463.814966 
L 213.609182 458.89567 
L 205.646719 453.63907 
L 197.925358 448.057221 
L 190.458776 442.162824 
L 183.260059 435.969221 
L 176.341703 429.4904 
L 169.715616 422.74099 
L 163.393114 415.736266 
L 157.384922 408.492143 
L 151.701176 401.025184 
L 146.351422 393.352591 
L 141.343216 385.488314 
L 136.682834 377.441553 
L 132.37941 369.229017 
L 128.441265 360.867717 
L 124.875793 352.374711 
L 121.689456 343.767091 
L 118.88779 335.061995 
L 116.475403 326.276598 
L 114.455972 317.428118 
L 112.832248 308.533811 
L 111.606053 299.610976 
L 110.778279 290.67695 
L 110.348891 281.749113 
L 110.316926 272.844885 
L 110.680492 263.981725 
L 111.436767 255.177133 
L 112.582003 246.448652 
L 114.111523 237.813863 
L 116.019719 229.290387 
L 118.300059 220.895888 
L 120.945078 212.648069 
L 123.947301 204.563304 
L 127.302446 196.653085 
L 131.002618 188.934531 
L 135.038849 181.424795 
L 139.401624 174.140171 
L 144.08088 167.096091 
L 149.06601 160.307129 
L 154.345855 153.786999 
L 159.908714 147.548555 
L 165.742335 141.603791 
L 171.833923 135.963842 
L 178.170132 130.638982 
L 184.737072 125.638626 
L 191.520305 120.971329 
L 198.504845 116.644787 
L 205.675161 112.665833 
L 213.015174 109.040445 
L 220.508256 105.773738 
L 228.137237 102.869969 
L 235.884395 100.332532 
L 243.731578 98.16395 
L 251.666749 96.365279 
L 259.675547 94.9378 
L 267.740192 93.882634 
L 275.843192 93.200131 
L 283.967353 92.889864 
L 292.095772 92.950636 
L 300.211841 93.380476 
L 308.299243 94.176639 
L 316.341958 95.335608 
L 324.324256 96.853092 
L 332.230704 98.724026 
L 340.046158 100.942574 
L 347.755771 103.502126 
L 355.344989 106.395297 
L 362.79955 109.613931 
L 370.105487 113.149099 
L 377.249126 116.991097 
L 384.217086 121.129449 
L 390.996279 125.552906 
L 397.573913 130.249444 
L 403.937486 135.206269 
L 410.075231 140.410526 
L 415.979822 145.856455 
L 421.64069 151.533901 
L 427.046672 157.430564 
L 432.187342 163.533934 
L 437.053017 169.831286 
L 441.634753 176.309687 
L 445.924348 182.955993 
L 449.914341 189.756845 
L 453.598008 196.698676 
L 456.969368 203.767706 
L 460.023182 210.949944 
L 462.754948 218.231189 
L 465.160906 225.597026 
L 467.238038 233.03283 
L 468.984065 240.523766 
L 470.397448 248.054784 
L 471.477389 255.610627 
L 472.22383 263.175823 
L 472.637456 270.73469 
L 472.719653 278.271691 
L 472.471544 285.776421 
L 471.894366 293.23412 
L 470.990107 300.62828 
L 469.761414 307.942878 
L 468.211593 315.162378 
L 466.344611 322.271735 
L 464.165093 329.256385 
L 461.678323 336.102258 
L 458.890247 342.795766 
L 455.807468 349.32381 
L 452.437249 355.673779 
L 448.787513 361.833549 
L 444.866841 367.791483 
L 440.684475 373.536431 
L 436.250315 379.05773 
L 431.574922 384.345205 
L 426.669515 389.389168 
L 421.545974 394.180419 
L 416.216836 398.710242 
L 410.6953 402.970413 
L 404.995222 406.953192 
L 399.129216 410.652127 
L 393.104854 414.063218 
L 386.935441 417.180313 
L 380.634857 419.997758 
L 374.21696 422.510676 
L 367.69558 424.714961 
L 361.084523 426.607286 
L 354.397572 428.185096 
L 347.648481 429.44661 
L 340.850983 430.390823 
L 334.018782 431.017503 
L 327.165561 431.327195 
L 320.304974 431.321216 
L 313.450653 431.00166 
L 306.616204 430.371393 
L 299.815207 429.434057 
L 293.061218 428.194068 
L 286.367767 426.656618 
L 279.748361 424.827672 
L 273.216479 422.71397 
L 266.785577 420.323026 
L 260.468362 417.662539 
L 254.272468 414.736127 
L 248.209659 411.550256 
L 242.292373 408.112622 
L 236.532495 404.431255 
L 230.941353 400.514522 
L 225.529722 396.371125 
L 220.307817 392.010104 
L 215.285301 387.440834 
L 210.471281 382.673027 
L 205.874305 377.716729 
L 201.50237 372.582325 
L 197.362915 367.280533 
L 193.462822 361.822411 
L 189.808421 356.219349 
L 186.405482 350.483076 
L 183.259223 344.625656 
L 180.374305 338.659489 
L 177.754833 332.597311 
L 175.404356 326.452196 
L 173.325869 320.237552 
L 171.521517 313.965049 
L 169.993086 307.643122 
L 168.743183 301.285389 
L 167.77384 294.905562 
L 167.086446 288.517132 
L 166.68175 282.133374 
L 166.559861 275.767343 
L 166.720248 269.431877 
L 167.161737 263.139594 
L 167.882518 256.902894 
L 168.880137 250.733961 
L 170.1515 244.644757 
L 171.692875 238.647029 
L 173.499886 232.752301 
L 175.56752 226.971884 
L 177.890121 221.316868 
L 180.461394 215.798123 
L 183.274403 210.426304 
L 186.321573 205.211846 
L 189.594685 200.164964 
L 193.084884 195.295658 
L 196.782672 190.613707 
L 200.680899 186.126559 
L 204.77363 181.840808 
L 209.051262 177.765298 
L 213.504002 173.908233 
L 218.12188 170.277153 
L 222.894753 166.878946 
L 227.812301 163.719839 
L 232.864028 160.805401 
L 238.039264 158.140546 
L 243.327164 155.729526 
L 248.716706 153.57594 
L 254.196694 151.682725 
L 259.755757 150.052162 
L 265.382347 148.685876 
L 271.064742 147.58483 
L 276.791045 146.749334 
L 282.549183 146.179036 
L 288.326907 145.872928 
L 294.111794 145.829346 
L 299.891244 146.045965 
L 305.654064 146.520213 
L 311.392676 147.250477 
L 317.095001 148.234144 
L 322.748905 149.468085 
L 328.342617 150.94873 
L 333.864727 152.672074 
L 339.304186 154.633676 
L 344.650307 156.828656 
L 349.892762 159.251697 
L 355.021585 161.897046 
L 360.027172 164.758511 
L 364.900279 167.829466 
L 369.632023 171.102843 
L 374.213884 174.571142 
L 378.6377 178.226423 
L 382.895673 182.06031 
L 386.980364 186.063988 
L 390.884695 190.228207 
L 394.601952 194.543279 
L 398.125779 198.999079 
L 401.450182 203.585045 
L 404.569528 208.290177 
L 407.479538 213.105907 
L 410.176532 218.025944 
L 412.655317 223.039554 
L 414.911232 228.135953 
L 416.940178 233.304384 
L 418.738623 238.534124 
L 420.303596 243.814473 
L 421.63269 249.134766 
L 422.724064 254.484364 
L 423.576437 259.852659 
L 424.189096 265.22907 
L 424.561889 270.603049 
L 424.695228 275.964073 
L 424.59009 281.301652 
L 424.248015 286.605324 
L 423.671107 291.864655 
L 422.862033 297.069243 
L 421.824024 302.208713 
L 420.560876 307.272719 
L 419.076948 312.250948 
L 417.377163 317.133111 
L 415.466124 321.910145 
L 413.346583 326.575507 
L 411.023688 331.119438 
L 408.503076 335.532383 
L 405.790692 339.805274 
L 402.892783 343.929528 
L 399.815905 347.897048 
L 396.56692 351.700219 
L 393.152993 355.331915 
L 389.581598 358.785493 
L 385.860514 362.054795 
L 381.997824 365.134148 
L 378.00192 368.018366 
L 373.881498 370.702745 
L 369.64556 373.18307 
L 365.303414 375.455607 
L 360.864675 377.517111 
L 356.339262 379.364818 
L 351.737402 380.996453 
L 347.069625 382.410224 
L 342.346232 383.604888 
L 337.573669 384.579853 
L 332.761665 385.334032 
L 327.920788 385.866641 
L 323.061434 386.177372 
L 318.193826 386.266391 
L 313.328012 386.134341 
L 308.47387 385.782337 
L 303.641105 385.211972 
L 298.839248 384.425315 
L 294.077658 383.424907 
L 289.365521 382.213766 
L 284.71185 380.795387 
L 280.125486 379.173737 
L 275.615098 377.35326 
L 271.189179 375.338876 
L 266.856054 373.135978 
L 262.62387 370.750435 
L 258.500607 368.188593 
L 254.494066 365.457271 
L 250.611882 362.563765 
L 246.861511 359.515845 
L 243.249661 356.320856 
L 239.780653 352.982492 
L 236.461085 349.507824 
L 233.297504 345.904604 
L 230.296002 342.180698 
L 227.462215 338.344083 
L 224.801324 334.402849 
L 222.318055 330.365199 
L 220.016677 326.239446 
L 217.901006 322.034019 
L 215.974401 317.757457 
L 214.239764 313.418412 
L 212.699546 309.025648 
L 211.355738 304.588042 
L 210.209878 300.114583 
L 209.263049 295.614373 
L 208.515877 291.096626 
L 207.968533 286.570669 
L 207.620732 282.04594 
L 207.471737 277.53199 
L 207.520418 273.038013 
L 207.765995 268.569991 
L 208.207416 264.136938 
L 208.843176 259.748442 
L 209.671392 255.413794 
L 210.689801 251.141985 
L 211.895764 246.941704 
L 213.286259 242.821342 
L 214.857889 238.78899 
L 216.606876 234.852439 
L 218.529064 231.01918 
L 220.619917 227.296406 
L 222.874523 223.691007 
L 225.287588 220.209576 
L 227.85344 216.858404 
L 230.56603 213.643485 
L 233.418927 210.57051 
L 236.405325 207.644874 
L 239.518035 204.871668 
L 242.749492 202.255687 
L 246.091752 199.801423 
L 249.53649 197.51307 
L 253.076838 195.393865 
L 256.707967 193.446303 
L 260.421715 191.673997 
L 264.209831 190.080154 
L 268.06408 188.667533 
L 271.976244 187.438446 
L 275.93812 186.394757 
L 279.941522 185.537882 
L 283.97828 184.868787 
L 288.040241 184.387993 
L 292.119269 184.095572 
L 296.207241 183.991147 
L 300.296054 184.073894 
L 304.37762 184.34254 
L 308.443868 184.795366 
L 312.48674 185.430204 
L 316.4982 186.244437 
L 320.470223 187.235002 
L 324.394804 188.398385 
L 328.263952 189.730628 
L 332.069694 191.227323 
L 335.804841 192.88421 
L 339.464783 194.69902 
L 343.042204 196.667503 
L 346.529743 198.784934 
L 349.920378 201.046381 
L 353.207427 203.446701 
L 356.384548 205.980546 
L 359.445737 208.642359 
L 362.385329 211.426375 
L 365.197999 214.326619 
L 367.878761 217.33691 
L 370.422968 220.45086 
L 372.826312 223.66187 
L 375.084826 226.963135 
L 377.194879 230.34764 
L 379.153182 233.808164 
L 380.956783 237.337277 
L 382.603072 240.927341 
L 384.089775 244.57051 
L 385.41496 248.25873 
L 386.577033 251.983738 
L 387.57495 255.73893 
L 388.407682 259.518832 
L 389.073894 263.315152 
L 389.572621 267.119705 
L 389.903273 270.924456 
L 390.065638 274.721517 
L 390.059878 278.50315 
L 389.886531 282.261764 
L 389.546511 285.989919 
L 389.04111 289.680322 
L 388.371992 293.325829 
L 387.541199 296.919445 
L 386.551151 300.454324 
L 385.404639 303.923767 
L 384.104834 307.321226 
L 382.655281 310.6403 
L 381.059902 313.874736 
L 379.322994 317.018433 
L 377.449229 320.065435 
L 375.443657 323.009936 
L 373.311703 325.84628 
L 371.059147 328.568972 
L 368.68964 331.174285 
L 366.207333 333.658044 
L 363.617994 336.015264 
L 360.92749 338.241333 
L 358.141786 340.332018 
L 355.266946 342.283459 
L 352.309136 344.092169 
L 349.274616 345.755041 
L 346.169748 347.269339 
L 343.000993 348.632704 
L 339.77491 349.843151 
L 336.498156 350.899072 
L 333.177489 351.799231 
L 329.819765 352.542771 
L 326.431937 353.129207 
L 323.02106 353.55843 
L 319.594286 353.830706 
L 316.158867 353.946678 
L 312.722152 353.907361 
L 309.291592 353.714148 
L 305.873304 353.368448 
L 302.472113 352.871262 
L 299.095344 352.224197 
L 295.750171 351.429141 
L 292.443551 350.488252 
L 289.182223 349.403954 
L 285.972707 348.178941 
L 282.821306 346.816172 
L 279.734102 345.318878 
L 276.716963 343.690556 
L 273.775535 341.934972 
L 270.915249 340.056159 
L 268.141315 338.05842 
L 265.458727 335.946324 
L 262.87226 333.72471 
L 260.386471 331.398685 
L 258.005699 328.973622 
L 255.734063 326.455164 
L 253.575467 323.849223 
L 251.533594 321.161978 
L 249.611911 318.399876 
L 247.813665 315.569632 
L 246.141548 312.676262 
L 244.598112 309.724065 
L 243.186127 306.719499 
L 241.908039 303.669012 
L 240.765971 300.579033 
L 239.76172 297.455974 
L 238.896762 294.30623 
L 238.172245 291.136178 
L 237.588995 287.952178 
L 237.147515 284.760572 
L 236.847981 281.567685 
L 236.690249 278.379825 
L 236.673846 275.203281 
L 236.79798 272.044325 
L 237.06153 268.909213 
L 237.463055 265.804182 
L 238.000787 262.735452 
L 238.672635 259.709226 
L 238.672635 259.709226 
" clip-path="url(#p4722197652)" style="fill: none; stroke: #000000; stroke-opacity: 0.3; stroke-width: 7; stroke-linecap: square"/>
   </g>
   <g id="line2d_18">
    <path d="M 536.630617 250.362415 
L 537.549598 260.911911 
L 538.001571 271.442883 
L 537.986978 281.93404 
L 537.509234 292.364866 
L 536.57175 302.714841 
L 535.178236 312.963602 
L 533.333065 323.090856 
L 531.041564 333.076511 
L 528.311506 342.901787 
L 525.150664 352.547903 
L 521.567081 361.996298 
L 517.569403 371.228601 
L 513.167217 380.226894 
L 508.372176 388.975019 
L 503.195929 397.456815 
L 497.650349 405.656403 
L 491.74784 413.558186 
L 485.501667 421.147272 
L 478.926693 428.410857 
L 472.037781 435.336136 
L 464.84996 441.910634 
L 457.378699 448.122232 
L 449.640183 453.959735 
L 441.651684 459.414249 
L 433.430472 464.476875 
L 424.993907 469.139084 
L 416.359704 473.392745 
L 407.546086 477.230838 
L 398.571822 480.648722 
L 389.455683 483.641756 
L 380.216451 486.205682 
L 370.873168 488.33667 
L 361.445126 490.032123 
L 351.951639 491.291786 
L 342.412017 492.115405 
L 332.845498 492.503102 
L 323.271492 492.45544 
L 313.709366 491.974271 
L 304.178012 491.063636 
L 294.69632 489.727576 
L 285.283019 487.970488 
L 275.956927 485.7972 
L 266.736515 483.213812 
L 257.639331 480.228364 
L 248.682921 476.848893 
L 239.884594 473.083752 
L 231.261669 468.941704 
L 222.830811 464.432689 
L 214.607392 459.568254 
L 206.606786 454.359948 
L 198.844051 448.81957 
L 191.334197 442.959302 
L 184.091288 436.792332 
L 177.127816 430.333066 
L 170.456273 423.595912 
L 164.088778 416.595453 
L 158.037343 409.346614 
L 152.312792 401.865094 
L 146.924187 394.167381 
L 141.880588 386.269964 
L 137.190645 378.189425 
L 132.862853 369.942641 
L 128.904328 361.54697 
L 125.320335 353.020124 
L 122.116139 344.379815 
L 119.296571 335.643751 
L 116.866272 326.829894 
L 114.828383 317.956349 
L 113.1842 309.041151 
L 111.935022 300.102335 
L 111.081711 291.157834 
L 110.624914 282.225786 
L 110.563733 273.324121 
L 110.895525 264.470299 
L 111.61765 255.681785 
L 112.727052 246.975838 
L 114.220443 238.369886 
L 116.093025 229.880785 
L 118.338439 221.524577 
L 120.950327 213.317303 
L 123.921961 205.274718 
L 127.246361 197.412697 
L 130.91517 189.746202 
L 134.91871 182.289098 
L 139.247303 175.055253 
L 143.890967 168.058166 
L 148.83946 161.311417 
L 154.081366 154.827371 
L 159.604242 148.617085 
L 165.395646 142.691616 
L 171.442911 137.061596 
L 177.733109 131.737694 
L 184.252409 126.72912 
L 190.986282 122.043643 
L 197.920196 117.689033 
L 205.039492 113.672593 
L 212.329248 110.001625 
L 219.773972 106.681796 
L 227.35781 103.717282 
L 235.064906 101.112258 
L 242.879381 98.870416 
L 250.785095 96.995408 
L 258.765712 95.489159 
L 266.804863 94.352128 
L 274.886183 93.584776 
L 282.993382 93.187083 
L 291.109927 93.158954 
L 299.219474 93.498567 
L 307.305959 94.202728 
L 315.35332 95.268243 
L 323.345681 96.691473 
L 331.266929 98.468664 
L 339.101533 100.594424 
L 346.834518 103.062151 
L 354.450912 105.865239 
L 361.936024 108.996693 
L 369.274947 112.449367 
L 376.453719 116.214656 
L 383.459168 120.282951 
L 390.278122 124.644643 
L 396.897774 129.289801 
L 403.30513 134.208316 
L 409.488459 139.38888 
L 415.436997 144.819418 
L 421.139977 150.487858 
L 426.587073 156.381899 
L 431.767792 162.48903 
L 436.673171 168.795867 
L 441.295327 175.288527 
L 445.626376 181.953123 
L 449.65892 188.775648 
L 453.38543 195.741858 
L 456.800094 202.837017 
L 459.898231 210.046152 
L 462.67516 217.354291 
L 465.12671 224.746456 
L 467.248619 232.207408 
L 469.038439 239.721824 
L 470.494851 247.27441 
L 471.616531 254.84987 
L 472.402667 262.433015 
L 472.852399 270.008386 
L 472.966688 277.560855 
L 472.747559 285.075564 
L 472.197036 292.537656 
L 471.317627 299.932488 
L 470.111839 307.245145 
L 468.583912 314.461446 
L 466.739039 321.567692 
L 464.582415 328.550183 
L 462.119663 335.395538 
L 459.356462 342.090105 
L 456.300038 348.621337 
L 452.958425 354.977342 
L 449.339656 361.146226 
L 445.452123 367.1165 
L 441.304319 372.876419 
L 436.90603 378.415661 
L 432.267666 383.724681 
L 427.399639 388.793935 
L 422.312628 393.614353 
L 417.017461 398.176632 
L 411.525929 402.473134 
L 405.850255 406.497081 
L 400.00266 410.241694 
L 393.995526 413.700712 
L 387.841434 416.867676 
L 381.553543 419.737953 
L 375.145241 422.3078 
L 368.629918 424.573471 
L 362.021007 426.531761 
L 355.332178 428.179308 
L 348.577272 429.514643 
L 341.770157 430.537171 
L 334.924701 431.246296 
L 328.0547 431.641955 
L 321.174219 431.723977 
L 314.297069 431.494056 
L 307.436904 430.954703 
L 300.607379 430.108427 
L 293.821961 428.958236 
L 287.094407 427.507086 
L 280.437809 425.759676 
L 273.86494 423.721426 
L 267.388576 421.397752 
L 261.021193 418.794516 
L 254.77557 415.917584 
L 248.663445 412.774353 
L 242.696103 409.372817 
L 236.884827 405.720969 
L 231.240513 401.827162 
L 225.774353 397.699821 
L 220.496176 393.348606 
L 215.415257 388.783633 
L 210.540868 384.015016 
L 205.881818 379.053132 
L 201.447202 373.908487 
L 197.244492 368.592471 
L 193.280542 363.116772 
L 189.562205 357.493081 
L 186.095815 351.733235 
L 182.887968 345.849259 
L 179.943464 339.853661 
L 177.266455 333.759092 
L 174.861091 327.578203 
L 172.730978 321.323675 
L 170.879944 315.008423 
L 169.309939 308.645423 
L 168.022272 302.247642 
L 167.018251 295.82805 
L 166.298637 289.399521 
L 165.864363 282.975203 
L 165.714502 276.567882 
L 165.847521 270.190197 
L 166.261885 263.854788 
L 166.95554 257.57408 
L 167.926545 251.360805 
L 169.17121 245.226922 
L 170.685301 239.184128 
L 172.464582 233.244118 
L 174.504351 227.418265 
L 176.799956 221.718264 
L 179.345191 216.154672 
L 182.133391 210.737689 
L 185.157894 205.477512 
L 188.411643 200.383923 
L 191.887564 195.467025 
L 195.577306 190.735483 
L 199.472161 186.19753 
L 203.563419 181.8614 
L 207.842075 177.734833 
L 212.299039 173.825883 
L 216.924281 170.140932 
L 221.707523 166.685888 
L 226.638489 163.46666 
L 231.706713 160.488613 
L 236.901585 157.757402 
L 242.211935 155.276858 
L 247.62646 153.05033 
L 253.133855 151.081164 
L 258.722752 149.372141 
L 264.381575 147.926289 
L 270.098598 146.744763 
L 275.862073 145.828243 
L 281.66025 145.177409 
L 287.481439 144.792379 
L 293.313692 144.673467 
L 299.145325 144.819156 
L 304.964735 145.227485 
L 310.760314 145.896498 
L 316.520636 146.823704 
L 322.233982 148.006751 
L 327.88929 149.441587 
L 333.475668 151.123772 
L 338.98222 153.048867 
L 344.398345 155.211959 
L 349.713122 157.608206 
L 354.916651 160.231283 
L 359.99927 163.074546 
L 364.951315 166.13135 
L 369.763515 169.394661 
L 374.426268 172.85744 
L 378.931302 176.511461 
L 383.270633 180.348252 
L 387.436274 184.359342 
L 391.420714 188.535972 
L 395.216115 192.869306 
L 398.816204 197.34967 
L 402.215029 201.967223 
L 405.406636 206.71213 
L 408.385606 211.574378 
L 411.146209 216.543814 
L 413.684437 221.609829 
L 415.996617 226.761733 
L 418.079074 231.988839 
L 419.928698 237.280408 
L 421.542103 242.625499 
L 422.917694 248.013122 
L 424.054203 253.432281 
L 424.950362 258.871983 
L 425.605473 264.321314 
L 426.018604 269.769103 
L 426.190596 275.204532 
L 426.122595 280.61685 
L 425.815745 285.995309 
L 425.271736 291.329359 
L 424.492085 296.608158 
L 423.479967 301.821596 
L 422.238828 306.959691 
L 420.772113 312.012458 
L 419.083764 316.970234 
L 417.177609 321.823028 
L 415.058949 326.561926 
L 412.733305 331.178186 
L 410.206202 335.663067 
L 407.483583 340.008243 
L 404.571349 344.205053 
L 401.476609 348.246192 
L 398.206643 352.124563 
L 394.768732 355.833065 
L 391.170481 359.365094 
L 387.419525 362.713715 
L 383.524384 365.87356 
L 379.493697 368.839485 
L 375.336104 371.606342 
L 371.060454 374.169539 
L 366.6757 376.524165 
L 362.191317 378.667012 
L 357.616846 380.595097 
L 352.961826 382.305436 
L 348.235887 383.795625 
L 343.448825 385.062977 
L 338.610576 386.106552 
L 333.731092 386.925623 
L 328.820323 387.519468 
L 323.888181 387.887938 
L 318.944803 388.030653 
L 314.000083 387.948932 
L 309.063882 387.644292 
L 304.146062 387.118251 
L 299.256321 386.372874 
L 294.404628 385.410051 
L 289.60034 384.233244 
L 284.852748 382.846083 
L 280.171142 381.252203 
L 275.564527 379.455729 
L 271.042218 377.460673 
L 266.612584 375.272417 
L 262.283899 372.896481 
L 258.064435 370.338384 
L 253.962079 367.604059 
L 249.985043 364.699397 
L 246.140317 361.631384 
L 242.434773 358.407114 
L 238.875283 355.033677 
L 235.468249 351.518477 
L 232.220402 347.868946 
L 229.137033 344.093295 
L 226.223312 340.199801 
L 223.484403 336.196741 
L 220.924939 332.09259 
L 218.549871 327.895919 
L 216.362574 323.615724 
L 214.366292 319.261034 
L 212.564272 314.840875 
L 210.959188 310.364348 
L 209.554009 305.840714 
L 208.350067 301.279287 
L 207.34857 296.689386 
L 206.55073 292.080328 
L 205.957175 287.46137 
L 205.568791 282.841991 
L 205.384849 278.231355 
L 205.40451 273.638602 
L 205.626936 269.072874 
L 206.050726 264.543124 
L 206.67469 260.058575 
L 207.496121 255.627787 
L 208.512221 251.259279 
L 209.720191 246.961569 
L 211.11672 242.742869 
L 212.698644 238.611698 
L 214.461463 234.575599 
L 216.4006 230.642064 
L 218.511483 226.818585 
L 220.789095 223.112244 
L 223.228503 219.530446 
L 225.823677 216.079371 
L 228.568532 212.765138 
L 231.456983 209.593866 
L 234.4826 206.571181 
L 237.638965 203.703038 
L 240.918853 200.993976 
L 244.315003 198.448473 
L 247.820157 196.071005 
L 251.42682 193.865496 
L 255.127441 191.836191 
L 258.913987 189.985802 
L 262.778409 188.31698 
L 266.712655 186.83238 
L 270.708565 185.534068 
L 274.757854 184.424407 
L 278.852099 183.50419 
L 282.982875 182.774157 
L 287.141756 182.235047 
L 291.320333 181.887013 
L 295.510015 181.730464 
L 299.702416 181.764276 
L 303.889159 181.987286 
L 308.061866 182.39833 
L 312.212305 182.995679 
L 316.332008 183.777814 
L 320.413043 184.741798 
L 324.447492 185.884664 
L 328.427437 187.203446 
L 332.345225 188.694664 
L 336.192928 190.354991 
L 339.963453 192.179864 
L 343.649719 194.164701 
L 347.244645 196.30492 
L 350.741527 198.595506 
L 354.133355 201.031527 
L 357.414205 203.607061 
L 360.578164 206.316174 
L 363.619319 209.152931 
L 366.532223 212.111065 
L 369.311112 215.184323 
L 371.951495 218.365747 
L 374.448892 221.648376 
L 376.798822 225.025245 
L 378.997338 228.489175 
L 381.040172 232.032932 
L 382.924463 235.648891 
L 384.647348 239.32943 
L 386.205971 243.066924 
L 387.598027 246.853657 
L 388.820943 250.681793 
L 389.87358 254.543439 
L 390.754798 258.430698 
L 391.463471 262.335678 
L 391.999007 266.250516 
L 392.36062 270.167185 
L 392.54891 274.077913 
L 392.564473 277.97493 
L 392.40793 281.850472 
L 392.080393 285.696913 
L 391.582858 289.506445 
L 390.917593 293.271798 
L 390.086864 296.985707 
L 389.092962 300.64092 
L 387.938616 304.230413 
L 386.626508 307.746984 
L 385.160422 311.184215 
L 383.544146 314.535688 
L 381.781489 317.795011 
L 379.876625 320.956092 
L 377.833747 324.012682 
L 375.657937 326.95951 
L 373.354277 329.791306 
L 370.927872 332.502831 
L 368.384109 335.0892 
L 365.72844 337.545412 
L 362.966965 339.867574 
L 360.105783 342.051795 
L 357.151007 344.094226 
L 354.108948 345.991397 
L 350.986016 347.739775 
L 347.789001 349.337009 
L 344.524695 350.780744 
L 341.199896 352.068679 
L 337.82151 353.198895 
L 334.396555 354.169476 
L 330.932164 354.979684 
L 327.435471 355.628787 
L 323.913604 356.116105 
L 320.373716 356.441335 
L 316.823066 356.604226 
L 313.26877 356.605662 
L 309.717944 356.446525 
L 306.177684 356.127755 
L 302.655039 355.650642 
L 299.157134 355.016576 
L 295.690719 354.227976 
L 292.262543 353.287261 
L 288.87932 352.196906 
L 285.547652 350.959695 
L 282.274176 349.578548 
L 279.064951 348.057267 
L 275.926036 346.399652 
L 272.863438 344.609553 
L 269.883 342.69108 
L 266.99055 340.6485 
L 264.191173 338.486776 
L 261.489954 336.210873 
L 258.891914 333.82579 
L 256.401871 331.336735 
L 254.024567 328.749073 
L 251.763886 326.068659 
L 249.623712 323.301348 
L 247.607855 320.453016 
L 245.719892 317.529691 
L 243.963269 314.537538 
L 242.340507 311.482995 
L 240.854125 308.372498 
L 239.506559 305.212489 
L 238.300002 302.009502 
L 237.236461 298.770174 
L 236.316999 295.501195 
L 235.54268 292.209252 
L 234.914477 288.901019 
L 234.433123 285.583208 
L 234.09912 282.262581 
L 233.912054 278.945745 
L 233.871514 275.639303 
L 233.977035 272.349841 
L 234.227877 269.083917 
L 234.622869 265.847994 
L 235.160313 262.648328 
L 235.83851 259.491173 
L 235.83851 259.491173 
" clip-path="url(#p4722197652)" style="fill: none; stroke-dasharray: 22.4,5.6,3.5,5.6; stroke-dashoffset: 0; stroke: #0000ff; stroke-opacity: 0.8; stroke-width: 3.5"/>
   </g>
   <g id="patch_3">
    <path d="M 52.160938 530.438125 
L 52.160938 22.318125 
" style="fill: none; stroke: #000000; stroke-width: 0.8; stroke-linejoin: miter; stroke-linecap: square"/>
   </g>
   <g id="patch_4">
    <path d="M 561.210937 530.438125 
L 561.210937 22.318125 
" style="fill: none; stroke: #000000; stroke-width: 0.8; stroke-linejoin: miter; stroke-linecap: square"/>
   </g>
   <g id="patch_5">
    <path d="M 52.160937 530.438125 
L 561.210937 530.438125 
" style="fill: none; stroke: #000000; stroke-width: 0.8; stroke-linejoin: miter; stroke-linecap: square"/>
   </g>
   <g id="patch_6">
    <path d="M 52.160937 22.318125 
L 561.210937 22.318125 
" style="fill: none; stroke: #000000; stroke-width: 0.8; stroke-linejoin: miter; stroke-linecap: square"/>
   </g>
   <g id="line2d_19">
    <path d="M 536.630617 250.362415 
L 537.553571 260.737533 
L 538.016282 271.138912 
L 538.017229 281.549078 
L 537.557432 291.950553 
L 536.637911 302.325861 
L 535.259978 312.657321 
L 533.425453 322.927539 
L 531.13684 333.119141 
L 528.399167 343.212819 
L 525.217464 353.189267 
L 521.597148 363.028835 
L 517.544075 372.711258 
L 513.064947 382.214984 
L 508.169626 391.515606 
L 502.86797 400.588715 
L 497.170211 409.410447 
L 491.087322 417.95485 
L 484.631695 426.195169 
L 477.81854 434.109452 
L 470.663066 441.675746 
L 463.180628 448.873318 
L 455.387594 455.682187 
L 447.301597 462.085762 
L 438.941185 468.07649 
L 430.324906 473.646821 
L 421.471282 478.789703 
L 412.399329 483.501276 
L 403.128332 487.781016 
L 393.67725 491.631071 
L 384.065043 495.053585 
L 374.310638 498.05056 
L 364.432895 500.62503 
L 354.450479 502.780117 
L 344.381827 504.517631 
L 334.245375 505.839377 
L 324.059564 506.746969 
L 313.842715 507.241754 
L 303.613056 507.324414 
L 293.38888 506.994489 
L 283.188478 506.251516 
L 273.03019 505.094865 
L 262.93228 503.523592 
L 252.913084 501.536015 
L 242.991242 499.129518 
L 233.185397 496.301484 
L 223.514186 493.049885 
L 213.996423 489.370916 
L 204.651179 485.261318 
L 195.497493 480.721526 
L 186.55441 475.751972 
L 177.840683 470.354601 
L 169.375685 464.530885 
L 161.178525 458.286871 
L 153.266741 451.636728 
L 145.657872 444.594628 
L 138.368921 437.175416 
L 131.417171 429.397347 
L 124.818377 421.282688 
L 118.585574 412.856234 
L 112.731791 404.14278 
L 107.269543 395.166624 
L 102.21087 385.953905 
L 97.565815 376.529784 
L 93.342067 366.916527 
L 89.547312 357.136399 
L 86.1888 347.211329 
L 83.273294 337.162166 
L 80.805921 327.008192 
L 78.789974 316.767466 
L 77.228743 306.458048 
L 76.125089 296.097959 
L 75.481652 285.704803 
L 75.299574 275.296029 
L 75.57825 264.889086 
L 76.317073 254.501427 
L 77.514963 244.150765 
L 79.170759 233.854167 
L 81.281742 223.62933 
L 83.843336 213.495161 
L 86.850963 203.470567 
L 90.29944 193.575041 
L 94.183725 183.827952 
L 98.496844 174.250904 
L 103.229503 164.867842 
L 108.372412 155.702711 
L 113.915669 146.778877 
L 119.849133 138.122922 
L 126.160308 129.760642 
L 132.834508 121.714978 
L 139.857049 114.008871 
L 147.212955 106.663406 
L 154.886259 99.701084 
L 162.859434 93.137935 
L 171.114131 86.983147 
L 179.632002 81.245909 
L 188.394705 75.934406 
L 197.383186 71.05382 
L 206.578237 66.604981 
L 215.960857 62.586186 
L 225.512045 58.995733 
L 235.212853 55.832045 
L 245.044335 53.09184 
L 254.987816 50.772174 
L 265.024815 48.870998 
L 275.136851 47.386262 
L 285.305445 46.316208 
L 295.512274 45.659157 
L 305.739081 45.414489 
L 315.967584 45.582429 
L 326.179499 46.163203 
L 336.35648 47.157321 
L 346.480332 48.565367 
L 356.532685 50.38901 
L 366.494956 52.63071 
L 376.348561 55.292926 
L 386.074898 58.377512 
L 395.655207 61.888749 
L 405.070489 65.829261 
L 414.301698 70.199488 
L 423.329788 74.99987 
L 432.136046 80.228796 
L 440.700808 85.887032 
L 449.005203 91.967997 
L 457.031379 98.459214 
L 464.761484 105.348204 
L 472.178378 112.621214 
L 479.264045 120.261495 
L 486.002929 128.247167 
L 492.381423 136.553885 
L 498.385918 145.157305 
L 504.003554 154.033601 
L 509.221537 163.155987 
L 514.029894 172.499615 
L 518.420404 182.041619 
L 522.384846 191.759132 
L 525.91563 201.629856 
L 529.005421 211.632321 
L 531.649154 221.74716 
L 533.843107 231.956078 
L 535.583557 242.240783 
L 536.867378 252.583071 
L 537.691409 262.965297 
L 538.054587 273.369991 
L 537.957106 283.779713 
L 537.39916 294.177025 
L 536.381576 304.544226 
L 534.904982 314.864384 
L 532.972202 325.119637 
L 530.587369 335.291423 
L 527.754615 345.361177 
L 524.478864 355.309543 
L 520.76451 365.117958 
L 516.61867 374.764763 
L 512.050077 384.226545 
L 507.067465 393.47989 
L 501.680409 402.501786 
L 495.898309 411.265591 
L 489.733698 419.746059 
L 483.200714 427.919438 
L 476.313494 435.761978 
L 469.086657 443.252254 
L 461.535735 450.365676 
L 453.678152 457.086526 
L 445.532019 463.403931 
L 437.115447 469.307019 
L 428.446597 474.786564 
L 419.54452 479.835893 
L 410.428357 484.453925 
L 401.11714 488.641777 
L 391.6299 492.400568 
L 381.985593 495.731428 
L 372.203258 498.637761 
L 362.301577 501.122374 
L 352.29908 503.187542 
L 342.214301 504.835536 
L 332.065751 506.068249 
L 321.87177 506.887657 
L 311.650633 507.294366 
L 301.420621 507.288385 
L 291.200014 506.869721 
L 281.007161 506.037988 
L 270.86021 504.792931 
L 260.777553 503.132882 
L 250.777717 501.055578 
L 240.879232 498.558759 
L 231.100677 495.640647 
L 221.460729 492.2969 
L 211.97835 488.525193 
L 202.672569 484.324364 
L 193.56242 479.693253 
L 184.6666 474.633109 
L 176.004927 469.141415 
L 167.596137 463.224988 
L 159.458357 456.894604 
L 151.609714 450.161035 
L 144.067492 443.037072 
L 136.850286 435.537752 
L 129.973567 427.684669 
L 123.451504 419.501532 
L 117.298265 411.012052 
L 111.527051 402.239586 
L 106.151326 393.211295 
L 101.181078 383.951827 
L 96.625076 374.484623 
L 92.492084 364.833124 
L 88.790037 355.019942 
L 85.52677 345.067226 
L 82.707366 334.994422 
L 80.335983 324.820111 
L 78.416782 314.562878 
L 76.953162 304.241113 
L 75.94872 293.872526 
L 75.404521 283.474605 
L 75.320781 273.064789 
L 75.697721 262.660517 
L 76.534771 252.279456 
L 77.831741 241.938526 
L 79.585796 231.655638 
L 81.793241 221.44907 
L 84.450379 211.337098 
L 87.552557 201.338938 
L 91.095897 191.472494 
L 95.073256 181.759424 
L 99.476446 172.222565 
L 104.297278 162.884752 
L 109.526498 153.768761 
L 115.155356 144.90086 
L 121.171361 136.306057 
L 127.560937 128.008729 
L 134.31051 120.033252 
L 141.405796 112.401393 
L 148.831721 105.139388 
L 156.570974 98.262917 
L 164.605722 91.784555 
L 172.918128 85.716876 
L 181.490207 80.07004 
L 190.302953 74.852344 
L 199.337281 70.06511 
L 208.574148 65.707949 
L 217.994507 61.780475 
L 227.579399 58.281996 
L 237.309695 55.209139 
L 247.166706 52.559186 
L 257.131843 50.329667 
L 267.186521 48.518114 
L 277.312195 47.122521 
L 287.4905 46.140636 
L 297.703147 45.571825 
L 307.931851 45.415847 
L 318.158331 45.672463 
L 328.364236 46.341926 
L 338.531447 47.424217 
L 348.641563 48.920982 
L 358.676106 50.834257 
L 368.616598 53.166078 
L 378.444477 55.918212 
L 388.141156 59.094777 
L 397.687698 62.698031 
L 407.0651 66.729711 
L 416.254363 71.191553 
L 425.23678 76.082703 
L 433.992487 81.406953 
L 442.502804 87.157558 
L 450.749368 93.325427 
L 458.713816 99.901469 
L 466.378711 106.873738 
L 473.725017 114.229033 
L 480.73725 121.946016 
L 487.400695 130.0018 
L 493.700639 138.373494 
L 499.62356 147.038156 
L 505.155392 155.968561 
L 510.286052 165.140136 
L 515.006214 174.528913 
L 519.306554 184.110921 
L 523.178808 193.863296 
L 526.614688 203.763163 
L 529.609022 213.790996 
L 532.157207 223.927867 
L 534.254639 234.154844 
L 535.897652 244.453353 
L 537.082272 254.805586 
L 537.807365 265.19404 
L 538.072301 275.601262 
L 537.876449 286.0098 
L 537.220123 296.402033 
L 536.103147 306.760976 
L 534.528287 317.068746 
L 532.498809 327.307296 
L 530.017978 337.458584 
L 527.090177 347.50355 
L 523.718873 357.424777 
L 519.911135 367.200696 
L 515.674619 376.809072 
L 511.016982 386.227673 
L 505.947173 395.433869 
L 500.47337 404.40207 
L 494.607945 413.107296 
L 488.363899 421.524731 
L 481.754231 429.629555 
L 474.792926 437.399635 
L 467.49457 444.80754 
L 459.876346 451.837345 
L 451.955774 458.474783 
L 443.750371 464.705588 
L 435.277971 470.518789 
L 426.557477 475.904356 
L 417.607929 480.860705 
L 408.448365 485.387342 
L 399.097824 489.483774 
L 389.575268 493.150302 
L 379.899908 496.390076 
L 370.090448 499.205784 
L 360.165533 501.600046 
L 350.143808 503.575487 
L 340.043845 505.134204 
L 329.884045 506.278718 
L 319.68271 507.009718 
L 309.45813 507.32768 
L 299.228598 507.233081 
L 289.01246 506.725797 
L 278.827824 505.806071 
L 268.693089 504.472314 
L 258.626688 502.722733 
L 248.647055 500.555533 
L 238.772736 497.968923 
L 229.022231 494.959182 
L 219.414457 491.523974 
L 209.968374 487.661126 
L 200.702941 483.368466 
L 191.636891 478.646416 
L 182.790045 473.490348 
L 174.181093 467.906642 
L 165.828595 461.902754 
L 157.751109 455.486141 
L 149.966231 448.668016 
L 142.493318 441.459691 
L 135.347957 433.882204 
L 128.545385 425.957446 
L 122.100842 417.70731 
L 116.028145 409.154415 
L 110.341908 400.325711 
L 105.052382 391.245824 
L 100.169461 381.939181 
L 95.703039 372.430208 
L 91.661681 362.74198 
L 88.054108 352.898111 
L 84.885638 342.91823 
L 82.16133 332.821673 
L 79.886239 322.62777 
L 78.064278 312.355261 
L 76.699762 302.022104 
L 75.793952 291.645816 
L 75.347892 281.243875 
L 75.362625 270.833762 
L 75.838072 260.433053 
L 76.774736 250.058832 
L 78.16998 239.728912 
L 80.020965 229.461154 
L 82.32485 219.273419 
L 85.077507 209.184591 
L 88.275814 199.211768 
L 91.912854 189.376334 
L 95.981489 179.699917 
L 100.47458 170.204143 
L 105.383463 160.911554 
L 110.700467 151.846876 
L 116.413409 143.035176 
L 122.509873 134.501533 
L 128.977443 126.271025 
L 135.802394 118.366202 
L 142.970654 110.815245 
L 150.465189 103.634603 
L 158.268834 96.84019 
L 166.364427 90.447924 
L 174.734256 84.469469 
L 183.359584 78.916653 
L 192.221408 73.791392 
L 201.300716 69.095211 
L 210.578499 64.829633 
L 220.03579 60.994652 
L 229.653309 57.587572 
L 239.412332 54.605679 
L 249.294154 52.046253 
L 259.280068 49.906571 
L 269.35148 48.184457 
L 279.489942 46.877133 
L 289.677145 45.98383 
L 299.894782 45.503831 
L 310.124546 45.436421 
L 320.348099 45.781595 
L 330.547329 46.538928 
L 340.703848 47.709918 
L 350.799262 49.296107 
L 360.815176 51.299038 
L 370.733059 53.720544 
L 380.534492 56.563855 
L 390.200575 59.831463 
L 399.712402 63.525846 
L 409.051064 67.649481 
L 418.197793 72.202417 
L 427.132862 77.189729 
L 435.837537 82.60566 
L 444.293099 88.444312 
L 452.480827 94.699792 
L 460.382963 101.36152 
L 467.979935 108.420067 
L 475.255977 115.854793 
L 482.195353 123.644971 
L 488.782325 131.769873 
L 495.002808 140.207063 
L 500.841679 148.930228 
L 506.288456 157.914575 
L 511.332666 167.135309 
L 515.963847 176.567651 
L 520.173149 186.188304 
L 523.951439 195.972974 
L 527.293195 205.901868 
L 530.192896 215.955195 
L 532.645044 226.113169 
L 534.645446 236.356916 
L 536.189526 246.668263 
L 537.275827 257.029684 
L 537.90289 267.423654 
L 538.069298 277.832644 
L 537.774807 288.239134 
L 537.018723 298.625917 
L 535.803465 308.975273 
L 534.131451 319.269483 
L 532.005165 329.49076 
L 529.42831 339.620613 
L 526.403904 349.641904 
L 522.938579 359.533598 
L 519.03897 369.274663 
L 514.711812 378.844032 
L 509.965214 388.219307 
L 504.806687 397.376631 
L 499.248059 406.290837 
L 493.301157 414.936758 
L 486.977894 423.289508 
L 480.29153 431.325217 
L 473.255845 439.016209 
L 465.887612 446.344988 
L 458.203604 453.294058 
L 450.220609 459.84627 
L 441.956209 465.988338 
L 433.428951 471.70764 
L 424.657793 477.001477 
L 415.661693 481.867151 
L 406.45959 486.30201 
L 397.070518 490.305769 
L 387.513752 493.880533 
L 377.80806 497.029055 
L 367.972211 499.754087 
L 358.024966 502.058303 
L 347.984955 503.944198 
L 337.870665 505.414539 
L 327.700419 506.470287 
L 317.492545 507.112403 
L 307.265379 507.341761 
L 297.037219 507.158733 
L 286.826222 506.563647 
L 276.65075 505.555216 
L 266.529163 504.132151 
L 256.479846 502.293163 
L 246.521242 500.036374 
L 236.671776 497.359074 
L 226.950297 494.258597 
L 217.375656 490.732277 
L 207.966659 486.777951 
L 198.742244 482.393563 
L 189.721879 477.575419 
L 180.924408 472.32795 
L 172.368675 466.655584 
L 164.073324 460.563448 
L 156.056887 454.059484 
L 148.338457 447.153369 
L 140.934241 439.864515 
L 133.860446 432.212331 
L 127.132994 424.216257 
L 120.76706 415.898648 
L 114.777394 407.28487 
L 109.175052 398.399965 
L 103.971091 389.268976 
L 99.176318 379.916641 
L 94.800506 370.36734 
L 90.852533 360.64513 
L 87.338394 350.770313 
L 84.264087 340.76319 
L 81.635377 330.643977 
L 79.457239 320.431835 
L 77.733976 310.145045 
L 76.467459 299.8012 
L 75.659562 289.41789 
L 75.312017 279.012711 
L 75.425828 268.603124 
L 76.000868 258.20654 
L 77.035524 247.840501 
L 78.528184 237.522546 
L 78.528184 237.522546 
" clip-path="url(#p4722197652)" style="fill: none; stroke-dasharray: 3.5,5.775; stroke-dashoffset: 0; stroke: #008000; stroke-opacity: 0.8; stroke-width: 3.5"/>
   </g>
   <g id="text_19">
    <!-- Phase Portrait (x0 vs x1) -->
    <g transform="translate(232.994687 16.318125) scale(0.12 -0.12)">
     <defs>
      <path id="DejaVuSans-50" d="M 1259 4147 
L 1259 2394 
L 2053 2394 
Q 2494 2394 2734 2622 
Q 2975 2850 2975 3272 
Q 2975 3691 2734 3919 
Q 2494 4147 2053 4147 
L 1259 4147 
z
M 628 4666 
L 2053 4666 
Q 2838 4666 3239 4311 
Q 3641 3956 3641 3272 
Q 3641 2581 3239 2228 
Q 2838 1875 2053 1875 
L 1259 1875 
L 1259 0 
L 628 0 
L 628 4666 
z
" transform="scale(0.015625)"/>
      <path id="DejaVuSans-68" d="M 3513 2113 
L 3513 0 
L 2938 0 
L 2938 2094 
Q 2938 2591 2744 2837 
Q 2550 3084 2163 3084 
Q 1697 3084 1428 2787 
Q 1159 2491 1159 1978 
L 1159 0 
L 581 0 
L 581 4863 
L 1159 4863 
L 1159 2956 
Q 1366 3272 1645 3428 
Q 1925 3584 2291 3584 
Q 2894 3584 3203 3211 
Q 3513 2838 3513 2113 
z
" transform="scale(0.015625)"/>
      <path id="DejaVuSans-61" d="M 2194 1759 
Q 1497 1759 1228 1600 
Q 959 1441 959 1056 
Q 959 750 1161 570 
Q 1363 391 1709 391 
Q 2188 391 2477 730 
Q 2766 1069 2766 1631 
L 2766 1759 
L 2194 1759 
z
M 3341 1997 
L 3341 0 
L 2766 0 
L 2766 531 
Q 2569 213 2275 61 
Q 1981 -91 1556 -91 
Q 1019 -91 701 211 
Q 384 513 384 1019 
Q 384 1609 779 1909 
Q 1175 2209 1959 2209 
L 2766 2209 
L 2766 2266 
Q 2766 2663 2505 2880 
Q 2244 3097 1772 3097 
Q 1472 3097 1187 3025 
Q 903 2953 641 2809 
L 641 3341 
Q 956 3463 1253 3523 
Q 1550 3584 1831 3584 
Q 2591 3584 2966 3190 
Q 3341 2797 3341 1997 
z
" transform="scale(0.015625)"/>
      <path id="DejaVuSans-73" d="M 2834 3397 
L 2834 2853 
Q 2591 2978 2328 3040 
Q 2066 3103 1784 3103 
Q 1356 3103 1142 2972 
Q 928 2841 928 2578 
Q 928 2378 1081 2264 
Q 1234 2150 1697 2047 
L 1894 2003 
Q 2506 1872 2764 1633 
Q 3022 1394 3022 966 
Q 3022 478 2636 193 
Q 2250 -91 1575 -91 
Q 1294 -91 989 -36 
Q 684 19 347 128 
L 347 722 
Q 666 556 975 473 
Q 1284 391 1588 391 
Q 1994 391 2212 530 
Q 2431 669 2431 922 
Q 2431 1156 2273 1281 
Q 2116 1406 1581 1522 
L 1381 1569 
Q 847 1681 609 1914 
Q 372 2147 372 2553 
Q 372 3047 722 3315 
Q 1072 3584 1716 3584 
Q 2034 3584 2315 3537 
Q 2597 3491 2834 3397 
z
" transform="scale(0.015625)"/>
      <path id="DejaVuSans-65" d="M 3597 1894 
L 3597 1613 
L 953 1613 
Q 991 1019 1311 708 
Q 1631 397 2203 397 
Q 2534 397 2845 478 
Q 3156 559 3463 722 
L 3463 178 
Q 3153 47 2828 -22 
Q 2503 -91 2169 -91 
Q 1331 -91 842 396 
Q 353 884 353 1716 
Q 353 2575 817 3079 
Q 1281 3584 2069 3584 
Q 2775 3584 3186 3129 
Q 3597 2675 3597 1894 
z
M 3022 2063 
Q 3016 2534 2758 2815 
Q 2500 3097 2075 3097 
Q 1594 3097 1305 2825 
Q 1016 2553 972 2059 
L 3022 2063 
z
" transform="scale(0.015625)"/>
      <path id="DejaVuSans-20" transform="scale(0.015625)"/>
      <path id="DejaVuSans-6f" d="M 1959 3097 
Q 1497 3097 1228 2736 
Q 959 2375 959 1747 
Q 959 1119 1226 758 
Q 1494 397 1959 397 
Q 2419 397 2687 759 
Q 2956 1122 2956 1747 
Q 2956 2369 2687 2733 
Q 2419 3097 1959 3097 
z
M 1959 3584 
Q 2709 3584 3137 3096 
Q 3566 2609 3566 1747 
Q 3566 888 3137 398 
Q 2709 -91 1959 -91 
Q 1206 -91 779 398 
Q 353 888 353 1747 
Q 353 2609 779 3096 
Q 1206 3584 1959 3584 
z
" transform="scale(0.015625)"/>
      <path id="DejaVuSans-72" d="M 2631 2963 
Q 2534 3019 2420 3045 
Q 2306 3072 2169 3072 
Q 1681 3072 1420 2755 
Q 1159 2438 1159 1844 
L 1159 0 
L 581 0 
L 581 3500 
L 1159 3500 
L 1159 2956 
Q 1341 3275 1631 3429 
Q 1922 3584 2338 3584 
Q 2397 3584 2469 3576 
Q 2541 3569 2628 3553 
L 2631 2963 
z
" transform="scale(0.015625)"/>
      <path id="DejaVuSans-74" d="M 1172 4494 
L 1172 3500 
L 2356 3500 
L 2356 3053 
L 1172 3053 
L 1172 1153 
Q 1172 725 1289 603 
Q 1406 481 1766 481 
L 2356 481 
L 2356 0 
L 1766 0 
Q 1100 0 847 248 
Q 594 497 594 1153 
L 594 3053 
L 172 3053 
L 172 3500 
L 594 3500 
L 594 4494 
L 1172 4494 
z
" transform="scale(0.015625)"/>
      <path id="DejaVuSans-69" d="M 603 3500 
L 1178 3500 
L 1178 0 
L 603 0 
L 603 3500 
z
M 603 4863 
L 1178 4863 
L 1178 4134 
L 603 4134 
L 603 4863 
z
" transform="scale(0.015625)"/>
      <path id="DejaVuSans-28" d="M 1984 4856 
Q 1566 4138 1362 3434 
Q 1159 2731 1159 2009 
Q 1159 1288 1364 580 
Q 1569 -128 1984 -844 
L 1484 -844 
Q 1016 -109 783 600 
Q 550 1309 550 2009 
Q 550 2706 781 3412 
Q 1013 4119 1484 4856 
L 1984 4856 
z
" transform="scale(0.015625)"/>
      <path id="DejaVuSans-76" d="M 191 3500 
L 800 3500 
L 1894 563 
L 2988 3500 
L 3597 3500 
L 2284 0 
L 1503 0 
L 191 3500 
z
" transform="scale(0.015625)"/>
      <path id="DejaVuSans-29" d="M 513 4856 
L 1013 4856 
Q 1481 4119 1714 3412 
Q 1947 2706 1947 2009 
Q 1947 1309 1714 600 
Q 1481 -109 1013 -844 
L 513 -844 
Q 928 -128 1133 580 
Q 1338 1288 1338 2009 
Q 1338 2731 1133 3434 
Q 928 4138 513 4856 
z
" transform="scale(0.015625)"/>
     </defs>
     <use xlink:href="#DejaVuSans-50"/>
     <use xlink:href="#DejaVuSans-68" transform="translate(60.302734 0)"/>
     <use xlink:href="#DejaVuSans-61" transform="translate(123.681641 0)"/>
     <use xlink:href="#DejaVuSans-73" transform="translate(184.960938 0)"/>
     <use xlink:href="#DejaVuSans-65" transform="translate(237.060547 0)"/>
     <use xlink:href="#DejaVuSans-20" transform="translate(298.583984 0)"/>
     <use xlink:href="#DejaVuSans-50" transform="translate(330.371094 0)"/>
     <use xlink:href="#DejaVuSans-6f" transform="translate(387.048828 0)"/>
     <use xlink:href="#DejaVuSans-72" transform="translate(448.230469 0)"/>
     <use xlink:href="#DejaVuSans-74" transform="translate(489.34375 0)"/>
     <use xlink:href="#DejaVuSans-72" transform="translate(528.552734 0)"/>
     <use xlink:href="#DejaVuSans-61" transform="translate(569.666016 0)"/>
     <use xlink:href="#DejaVuSans-69" transform="translate(630.945312 0)"/>
     <use xlink:href="#DejaVuSans-74" transform="translate(658.728516 0)"/>
     <use xlink:href="#DejaVuSans-20" transform="translate(697.9375 0)"/>
     <use xlink:href="#DejaVuSans-28" transform="translate(729.724609 0)"/>
     <use xlink:href="#DejaVuSans-78" transform="translate(768.738281 0)"/>
     <use xlink:href="#DejaVuSans-30" transform="translate(827.917969 0)"/>
     <use xlink:href="#DejaVuSans-20" transform="translate(891.541016 0)"/>
     <use xlink:href="#DejaVuSans-76" transform="translate(923.328125 0)"/>
     <use xlink:href="#DejaVuSans-73" transform="translate(982.507812 0)"/>
     <use xlink:href="#DejaVuSans-20" transform="translate(1034.607422 0)"/>
     <use xlink:href="#DejaVuSans-78" transform="translate(1066.394531 0)"/>
     <use xlink:href="#DejaVuSans-31" transform="translate(1125.574219 0)"/>
     <use xlink:href="#DejaVuSans-29" transform="translate(1189.197266 0)"/>
    </g>
   </g>
   <g id="line2d_20">
    <path d="M 536.630617 250.362415 
L 537.549599 260.911906 
L 538.001572 271.442873 
L 537.98698 281.934025 
L 537.509236 292.364844 
L 536.571753 302.714814 
L 535.17824 312.963568 
L 533.333071 323.090814 
L 531.041571 333.076462 
L 528.311515 342.901731 
L 525.150676 352.547839 
L 521.567095 361.996226 
L 517.569419 371.228521 
L 513.167237 380.226806 
L 508.3722 388.974923 
L 503.195956 397.456711 
L 497.65038 405.65629 
L 491.747876 413.558065 
L 485.501707 421.147143 
L 478.926738 428.41072 
L 472.037832 435.335991 
L 464.850016 441.910481 
L 457.378761 448.122071 
L 449.640252 453.959567 
L 441.65176 459.414074 
L 433.430554 464.476694 
L 424.993996 469.138896 
L 416.359801 473.392551 
L 407.54619 477.230638 
L 398.571934 480.648517 
L 389.455803 483.641547 
L 380.21658 486.205468 
L 370.873305 488.336452 
L 361.445272 490.031902 
L 351.951792 491.291563 
L 342.412179 492.115179 
L 332.84567 492.502876 
L 323.271672 492.455213 
L 313.709555 491.974044 
L 304.17821 491.063409 
L 294.696527 489.72735 
L 285.283234 487.970264 
L 275.957151 485.796979 
L 266.736748 483.213594 
L 257.639572 480.22815 
L 248.683171 476.848684 
L 239.884852 473.083549 
L 231.261934 468.941507 
L 222.831083 464.432499 
L 214.607672 459.568072 
L 206.607072 454.359773 
L 198.844344 448.819405 
L 191.334496 442.959146 
L 184.091593 436.792186 
L 177.128127 430.332932 
L 170.456588 423.595789 
L 164.089097 416.595342 
L 158.037666 409.346516 
L 152.313119 401.865009 
L 146.924516 394.16731 
L 141.880919 386.269908 
L 137.190978 378.189384 
L 132.863187 369.942615 
L 128.904662 361.54696 
L 125.320669 353.02013 
L 122.116472 344.379837 
L 119.296902 335.64379 
L 116.866601 326.82995 
L 114.828708 317.956422 
L 113.184522 309.041242 
L 111.935339 300.102444 
L 111.082023 291.15796 
L 110.62522 282.22593 
L 110.564032 273.324282 
L 110.895817 264.470479 
L 111.617933 255.681982 
L 112.727327 246.976053 
L 114.220707 238.370118 
L 116.093279 229.881034 
L 118.338682 221.524842 
L 120.950559 213.317585 
L 123.92218 205.275017 
L 127.246567 197.413011 
L 130.915362 189.746532 
L 134.918887 182.289443 
L 139.247465 175.055612 
L 143.891114 168.058539 
L 148.839591 161.311804 
L 154.08148 154.82777 
L 159.604339 148.617496 
L 165.395725 142.692038 
L 171.442972 137.062028 
L 177.733151 131.738136 
L 184.252432 126.729571 
L 190.986286 122.044102 
L 197.92018 117.689498 
L 205.039457 113.673065 
L 212.329192 110.002102 
L 219.773896 106.682277 
L 227.357713 103.717766 
L 235.06479 101.112744 
L 242.879244 98.870904 
L 250.784937 96.995895 
L 258.765533 95.489645 
L 266.804664 94.352613 
L 274.885963 93.585257 
L 282.993143 93.187561 
L 291.109668 93.159427 
L 299.219194 93.499033 
L 307.30566 94.203187 
L 315.353002 95.268694 
L 323.345344 96.691914 
L 331.266574 98.469094 
L 339.10116 100.594843 
L 346.834128 103.062557 
L 354.450506 105.865632 
L 361.935601 108.997071 
L 369.274509 112.449728 
L 376.453266 116.215001 
L 383.458701 120.283279 
L 390.277641 124.644952 
L 396.897282 129.290091 
L 403.304626 134.208586 
L 409.487944 139.389129 
L 415.436472 144.819646 
L 421.139444 150.488064 
L 426.586532 156.382082 
L 431.767243 162.489189 
L 436.672616 168.796003 
L 441.294768 175.288637 
L 445.625813 181.953208 
L 449.658354 188.775708 
L 453.384863 195.741892 
L 456.799526 202.837025 
L 459.897664 210.046133 
L 462.674595 217.354246 
L 465.126147 224.746384 
L 467.24806 232.207309 
L 469.037886 239.721698 
L 470.494304 247.274257 
L 471.615992 254.84969 
L 472.402136 262.432808 
L 472.851878 270.008153 
L 472.966178 277.560596 
L 472.747061 285.07528 
L 472.196552 292.537346 
L 471.317156 299.932153 
L 470.111383 307.244785 
L 468.583473 314.461062 
L 466.738617 321.567285 
L 464.582011 328.549754 
L 462.119279 335.395086 
L 459.356098 342.089632 
L 456.299695 348.620844 
L 452.958103 354.976829 
L 449.339357 361.145694 
L 445.451847 367.11595 
L 441.304068 372.875853 
L 436.905804 378.415079 
L 432.267466 383.724084 
L 427.399465 388.793325 
L 422.31248 393.613731 
L 417.01734 398.175999 
L 411.525836 402.472491 
L 405.85019 406.49643 
L 400.002623 410.241035 
L 393.995518 413.700048 
L 387.841454 416.867007 
L 381.553592 419.737281 
L 375.145319 422.307125 
L 368.630025 424.572796 
L 362.021143 426.531087 
L 355.332343 428.178636 
L 348.577466 429.513974 
L 341.770379 430.536508 
L 334.924951 431.245639 
L 328.054979 431.641306 
L 321.174526 431.723337 
L 314.297403 431.493427 
L 307.437265 430.954087 
L 300.607766 430.107823 
L 293.822374 428.957647 
L 287.094844 427.506513 
L 280.43827 425.75912 
L 273.865425 423.720888 
L 267.389083 421.397234 
L 261.021722 418.794019 
L 254.77612 415.917109 
L 248.664015 412.773901 
L 242.696691 409.372389 
L 236.885433 405.720565 
L 231.241135 401.826785 
L 225.77499 397.699471 
L 220.496828 393.348284 
L 215.415922 388.783339 
L 210.541545 384.014751 
L 205.882505 379.052897 
L 201.447898 373.908283 
L 197.245196 368.592298 
L 193.281252 363.116631 
L 189.56292 357.492972 
L 186.096535 351.733159 
L 182.888689 345.849216 
L 179.944186 339.85365 
L 177.267176 333.759115 
L 174.861811 327.57826 
L 172.731695 321.323765 
L 170.880655 315.008547 
L 169.310644 308.645579 
L 168.022969 302.247832 
L 167.018939 295.828273 
L 166.299314 289.399776 
L 165.865028 282.97549 
L 165.715153 276.568201 
L 165.848157 270.190547 
L 166.262505 263.855169 
L 166.956143 257.574491 
L 167.927129 251.361245 
L 169.171775 245.227391 
L 170.685844 239.184624 
L 172.465103 233.244641 
L 174.504849 227.418814 
L 176.800429 221.718838 
L 179.345638 216.15527 
L 182.133812 210.738309 
L 185.158287 205.478154 
L 188.412007 200.384584 
L 191.887899 195.467706 
L 195.577611 190.736182 
L 199.472435 186.198245 
L 203.563662 181.862129 
L 207.842286 177.735575 
L 212.299218 173.826638 
L 216.924426 170.141698 
L 221.707635 166.686662 
L 226.638566 163.467441 
L 231.706757 160.489401 
L 236.901595 157.758193 
L 242.21191 155.277653 
L 247.6264 153.051125 
L 253.133761 151.081959 
L 258.722624 149.372934 
L 264.381412 147.927078 
L 270.098401 146.745547 
L 275.861842 145.82902 
L 281.659986 145.178177 
L 287.481141 144.793137 
L 293.313362 144.674214 
L 299.144963 144.819889 
L 304.964341 145.228204 
L 310.75989 145.8972 
L 316.520182 146.824388 
L 322.233498 148.007416 
L 327.888779 149.442232 
L 333.475129 151.124395 
L 338.981655 153.049466 
L 344.397755 155.212534 
L 349.712507 157.608755 
L 354.916014 160.231805 
L 359.998611 163.075039 
L 364.950635 166.131814 
L 369.762815 169.395095 
L 374.425551 172.857843 
L 378.930568 176.511832 
L 383.269884 180.34859 
L 387.435511 184.359646 
L 391.419939 188.536241 
L 395.215329 192.869541 
L 398.815409 197.349869 
L 402.214226 201.967386 
L 405.405828 206.712256 
L 408.384794 211.574467 
L 411.145393 216.543866 
L 413.68362 221.609844 
L 415.9958 226.761711 
L 418.07826 231.988779 
L 419.927888 237.28031 
L 421.541298 242.625365 
L 422.916896 248.01295 
L 424.053413 253.432072 
L 424.949583 258.871738 
L 425.604705 264.321033 
L 426.01785 269.768786 
L 426.189857 275.20418 
L 426.121872 280.616464 
L 425.81504 285.994888 
L 425.271051 291.328906 
L 424.49142 296.607673 
L 423.479324 301.82108 
L 422.238208 306.959144 
L 420.771518 312.011882 
L 419.083194 316.96963 
L 417.177067 321.822397 
L 415.058435 326.56127 
L 412.732821 331.177506 
L 410.205748 335.662363 
L 407.48316 340.007518 
L 404.570959 344.204307 
L 401.476251 348.245428 
L 398.206319 352.123781 
L 394.768443 355.832267 
L 391.170227 359.364283 
L 387.419306 362.712891 
L 383.524202 365.872725 
L 379.493552 368.83864 
L 375.335995 371.60549 
L 371.060383 374.168681 
L 366.675666 376.523303 
L 362.191321 378.666148 
L 357.616888 380.594233 
L 352.961906 382.304573 
L 348.236004 383.794765 
L 343.448979 385.062121 
L 338.610768 386.105702 
L 333.73132 386.924782 
L 328.820588 387.518636 
L 323.888482 387.887118 
L 318.94514 388.029846 
L 314.000454 387.948139 
L 309.064287 387.643516 
L 304.146501 387.117493 
L 299.256792 386.372136 
L 294.40513 385.409334 
L 289.600874 384.232549 
L 284.853311 382.845412 
L 280.171733 381.251557 
L 275.565146 379.45511 
L 271.042863 377.460082 
L 266.613254 375.271855 
L 262.284592 372.895949 
L 258.065151 370.337884 
L 253.962816 367.603592 
L 249.9858 364.698963 
L 246.141091 361.630985 
L 242.435563 358.40675 
L 238.876089 355.033349 
L 235.469068 351.518185 
L 232.221232 347.868692 
L 229.137874 344.093079 
L 226.224161 340.199623 
L 223.485259 336.196602 
L 220.9258 332.09249 
L 218.550735 327.895859 
L 216.363439 323.615703 
L 214.367157 319.261052 
L 212.565136 314.840933 
L 210.960048 310.364445 
L 209.554863 305.840851 
L 208.350914 301.279463 
L 207.349409 296.689601 
L 206.551558 292.080581 
L 205.957991 287.461661 
L 205.569593 282.84232 
L 205.385635 278.23172 
L 205.40528 273.639003 
L 205.627687 269.07331 
L 206.051458 264.543595 
L 206.6754 260.05908 
L 207.496808 255.628324 
L 208.512883 251.259847 
L 209.720827 246.962167 
L 211.11733 242.743497 
L 212.699226 238.612353 
L 214.462015 234.576281 
L 216.401122 230.642771 
L 218.511973 226.819316 
L 220.789552 223.112997 
L 223.228927 219.53122 
L 225.824067 216.080164 
L 228.568886 212.765949 
L 231.457301 209.594693 
L 234.482882 206.572023 
L 237.63921 203.703892 
L 240.91906 200.994842 
L 244.315172 198.449347 
L 247.820287 196.071887 
L 251.426912 193.866384 
L 255.127494 191.837083 
L 258.914001 189.986696 
L 262.778383 188.317875 
L 266.712591 186.833273 
L 270.708462 185.534957 
L 274.757712 184.425292 
L 278.851919 183.505068 
L 282.982656 182.775026 
L 287.141499 182.235906 
L 291.320039 181.88786 
L 295.509684 181.731297 
L 299.702049 181.765094 
L 303.888757 181.988087 
L 308.06143 182.399112 
L 312.211835 182.996441 
L 316.331505 183.778554 
L 320.412508 184.742514 
L 324.446927 185.885356 
L 328.426842 187.204112 
L 332.344602 188.695303 
L 336.192278 190.3556 
L 339.962777 192.180443 
L 343.649018 194.165249 
L 347.243921 196.305436 
L 350.740781 198.595988 
L 354.132589 201.031975 
L 357.413421 203.607474 
L 360.577363 206.316551 
L 363.618502 209.153272 
L 366.531393 212.111368 
L 369.310268 215.184588 
L 371.950641 218.365973 
L 374.44803 221.648562 
L 376.797953 225.025392 
L 378.996463 228.489282 
L 381.039294 232.032999 
L 382.923583 235.648919 
L 384.646468 239.329417 
L 386.205092 243.066871 
L 387.597151 246.853564 
L 388.820073 250.68166 
L 389.872716 254.543266 
L 390.753943 258.430486 
L 391.462626 262.335427 
L 391.998175 266.250227 
L 392.359802 270.166859 
L 392.548106 274.07755 
L 392.563687 277.97453 
L 392.407162 281.850036 
L 392.079645 285.696443 
L 391.582132 289.50594 
L 390.916889 293.271262 
L 390.086185 296.985139 
L 389.092309 300.640321 
L 387.93799 304.229785 
L 386.62591 307.746328 
L 385.159854 311.183532 
L 383.543608 314.53498 
L 381.780982 317.794279 
L 379.876151 320.955337 
L 377.833307 324.011907 
L 375.657531 326.958716 
L 373.353907 329.790493 
L 370.927538 332.502003 
L 368.383811 335.088357 
L 365.72818 337.544556 
L 362.966742 339.866708 
L 360.105598 342.05092 
L 357.150861 344.093343 
L 354.108841 345.990508 
L 350.985948 347.738883 
L 347.788972 349.336114 
L 344.524706 350.779849 
L 341.199946 352.067785 
L 337.821599 353.198005 
L 334.396682 354.16859 
L 330.93233 354.978806 
L 327.435676 355.627917 
L 323.913847 356.115245 
L 320.373996 356.440487 
L 316.823383 356.603392 
L 313.269123 356.604844 
L 309.718332 356.445724 
L 306.178107 356.126973 
L 302.655495 355.64988 
L 299.157623 355.015835 
L 295.69124 354.227258 
L 292.263095 353.286569 
L 288.879902 352.19624 
L 285.548262 350.959056 
L 282.274814 349.577937 
L 279.065615 348.056686 
L 275.926724 346.399103 
L 272.864149 344.609036 
L 269.883733 342.690596 
L 266.991303 340.648049 
L 264.191945 338.486361 
L 261.490744 336.210493 
L 258.89272 333.825447 
L 256.40269 331.336429 
L 254.025399 328.748805 
L 251.764728 326.068429 
L 249.624564 323.301157 
L 247.608714 320.452864 
L 245.720756 317.529578 
L 243.964138 314.537465 
L 242.341378 311.482961 
L 240.854996 308.372504 
L 239.507428 305.212535 
L 238.300869 302.009588 
L 237.237323 298.770299 
L 236.317855 295.501359 
L 235.543527 292.209454 
L 234.915314 288.90126 
L 234.433949 285.583487 
L 234.099932 282.262897 
L 233.912851 278.946097 
L 233.872295 275.639691 
L 233.977798 272.350265 
L 234.228621 269.084375 
L 234.623592 265.848485 
L 235.161013 262.648851 
L 235.839187 259.491727 
L 235.839187 259.491727 
" clip-path="url(#p4722197652)" style="fill: none; stroke-dasharray: 12.95,5.6; stroke-dashoffset: 0; stroke: #ff0000; stroke-opacity: 0.8; stroke-width: 3.5"/>
   </g>
   <g id="legend_1">
    <g id="patch_7">
     <path d="M 59.160938 89.030625 
L 204.510938 89.030625 
Q 206.510938 89.030625 206.510938 87.030625 
L 206.510938 29.318125 
Q 206.510938 27.318125 204.510938 27.318125 
L 59.160938 27.318125 
Q 57.160938 27.318125 57.160938 29.318125 
L 57.160938 87.030625 
Q 57.160938 89.030625 59.160938 89.030625 
z
" style="fill: #ffffff; opacity: 0.8; stroke: #cccccc; stroke-linejoin: miter"/>
    </g>
    <g id="line2d_21">
     <path d="M 61.160938 35.416562 
L 71.160938 35.416562 
L 81.160938 35.416562 
" style="fill: none; stroke: #000000; stroke-opacity: 0.3; stroke-width: 7; stroke-linecap: square"/>
    </g>
    <g id="text_20">
     <!-- True/Underlying model -->
     <g transform="translate(89.160938 38.916562) scale(0.1 -0.1)">
      <defs>
       <path id="DejaVuSans-54" d="M -19 4666 
L 3928 4666 
L 3928 4134 
L 2272 4134 
L 2272 0 
L 1638 0 
L 1638 4134 
L -19 4134 
L -19 4666 
z
" transform="scale(0.015625)"/>
       <path id="DejaVuSans-75" d="M 544 1381 
L 544 3500 
L 1119 3500 
L 1119 1403 
Q 1119 906 1312 657 
Q 1506 409 1894 409 
Q 2359 409 2629 706 
Q 2900 1003 2900 1516 
L 2900 3500 
L 3475 3500 
L 3475 0 
L 2900 0 
L 2900 538 
Q 2691 219 2414 64 
Q 2138 -91 1772 -91 
Q 1169 -91 856 284 
Q 544 659 544 1381 
z
M 1991 3584 
L 1991 3584 
z
" transform="scale(0.015625)"/>
       <path id="DejaVuSans-2f" d="M 1625 4666 
L 2156 4666 
L 531 -594 
L 0 -594 
L 1625 4666 
z
" transform="scale(0.015625)"/>
       <path id="DejaVuSans-55" d="M 556 4666 
L 1191 4666 
L 1191 1831 
Q 1191 1081 1462 751 
Q 1734 422 2344 422 
Q 2950 422 3222 751 
Q 3494 1081 3494 1831 
L 3494 4666 
L 4128 4666 
L 4128 1753 
Q 4128 841 3676 375 
Q 3225 -91 2344 -91 
Q 1459 -91 1007 375 
Q 556 841 556 1753 
L 556 4666 
z
" transform="scale(0.015625)"/>
       <path id="DejaVuSans-6e" d="M 3513 2113 
L 3513 0 
L 2938 0 
L 2938 2094 
Q 2938 2591 2744 2837 
Q 2550 3084 2163 3084 
Q 1697 3084 1428 2787 
Q 1159 2491 1159 1978 
L 1159 0 
L 581 0 
L 581 3500 
L 1159 3500 
L 1159 2956 
Q 1366 3272 1645 3428 
Q 1925 3584 2291 3584 
Q 2894 3584 3203 3211 
Q 3513 2838 3513 2113 
z
" transform="scale(0.015625)"/>
       <path id="DejaVuSans-64" d="M 2906 2969 
L 2906 4863 
L 3481 4863 
L 3481 0 
L 2906 0 
L 2906 525 
Q 2725 213 2448 61 
Q 2172 -91 1784 -91 
Q 1150 -91 751 415 
Q 353 922 353 1747 
Q 353 2572 751 3078 
Q 1150 3584 1784 3584 
Q 2172 3584 2448 3432 
Q 2725 3281 2906 2969 
z
M 947 1747 
Q 947 1113 1208 752 
Q 1469 391 1925 391 
Q 2381 391 2643 752 
Q 2906 1113 2906 1747 
Q 2906 2381 2643 2742 
Q 2381 3103 1925 3103 
Q 1469 3103 1208 2742 
Q 947 2381 947 1747 
z
" transform="scale(0.015625)"/>
       <path id="DejaVuSans-6c" d="M 603 4863 
L 1178 4863 
L 1178 0 
L 603 0 
L 603 4863 
z
" transform="scale(0.015625)"/>
       <path id="DejaVuSans-79" d="M 2059 -325 
Q 1816 -950 1584 -1140 
Q 1353 -1331 966 -1331 
L 506 -1331 
L 506 -850 
L 844 -850 
Q 1081 -850 1212 -737 
Q 1344 -625 1503 -206 
L 1606 56 
L 191 3500 
L 800 3500 
L 1894 763 
L 2988 3500 
L 3597 3500 
L 2059 -325 
z
" transform="scale(0.015625)"/>
       <path id="DejaVuSans-67" d="M 2906 1791 
Q 2906 2416 2648 2759 
Q 2391 3103 1925 3103 
Q 1463 3103 1205 2759 
Q 947 2416 947 1791 
Q 947 1169 1205 825 
Q 1463 481 1925 481 
Q 2391 481 2648 825 
Q 2906 1169 2906 1791 
z
M 3481 434 
Q 3481 -459 3084 -895 
Q 2688 -1331 1869 -1331 
Q 1566 -1331 1297 -1286 
Q 1028 -1241 775 -1147 
L 775 -588 
Q 1028 -725 1275 -790 
Q 1522 -856 1778 -856 
Q 2344 -856 2625 -561 
Q 2906 -266 2906 331 
L 2906 616 
Q 2728 306 2450 153 
Q 2172 0 1784 0 
Q 1141 0 747 490 
Q 353 981 353 1791 
Q 353 2603 747 3093 
Q 1141 3584 1784 3584 
Q 2172 3584 2450 3431 
Q 2728 3278 2906 2969 
L 2906 3500 
L 3481 3500 
L 3481 434 
z
" transform="scale(0.015625)"/>
       <path id="DejaVuSans-6d" d="M 3328 2828 
Q 3544 3216 3844 3400 
Q 4144 3584 4550 3584 
Q 5097 3584 5394 3201 
Q 5691 2819 5691 2113 
L 5691 0 
L 5113 0 
L 5113 2094 
Q 5113 2597 4934 2840 
Q 4756 3084 4391 3084 
Q 3944 3084 3684 2787 
Q 3425 2491 3425 1978 
L 3425 0 
L 2847 0 
L 2847 2094 
Q 2847 2600 2669 2842 
Q 2491 3084 2119 3084 
Q 1678 3084 1418 2786 
Q 1159 2488 1159 1978 
L 1159 0 
L 581 0 
L 581 3500 
L 1159 3500 
L 1159 2956 
Q 1356 3278 1631 3431 
Q 1906 3584 2284 3584 
Q 2666 3584 2933 3390 
Q 3200 3197 3328 2828 
z
" transform="scale(0.015625)"/>
      </defs>
      <use xlink:href="#DejaVuSans-54"/>
      <use xlink:href="#DejaVuSans-72" transform="translate(46.333984 0)"/>
      <use xlink:href="#DejaVuSans-75" transform="translate(87.447266 0)"/>
      <use xlink:href="#DejaVuSans-65" transform="translate(150.826172 0)"/>
      <use xlink:href="#DejaVuSans-2f" transform="translate(212.349609 0)"/>
      <use xlink:href="#DejaVuSans-55" transform="translate(246.041016 0)"/>
      <use xlink:href="#DejaVuSans-6e" transform="translate(319.234375 0)"/>
      <use xlink:href="#DejaVuSans-64" transform="translate(382.613281 0)"/>
      <use xlink:href="#DejaVuSans-65" transform="translate(446.089844 0)"/>
      <use xlink:href="#DejaVuSans-72" transform="translate(507.613281 0)"/>
      <use xlink:href="#DejaVuSans-6c" transform="translate(548.726562 0)"/>
      <use xlink:href="#DejaVuSans-79" transform="translate(576.509766 0)"/>
      <use xlink:href="#DejaVuSans-69" transform="translate(635.689453 0)"/>
      <use xlink:href="#DejaVuSans-6e" transform="translate(663.472656 0)"/>
      <use xlink:href="#DejaVuSans-67" transform="translate(726.851562 0)"/>
      <use xlink:href="#DejaVuSans-20" transform="translate(790.328125 0)"/>
      <use xlink:href="#DejaVuSans-6d" transform="translate(822.115234 0)"/>
      <use xlink:href="#DejaVuSans-6f" transform="translate(919.527344 0)"/>
      <use xlink:href="#DejaVuSans-64" transform="translate(980.708984 0)"/>
      <use xlink:href="#DejaVuSans-65" transform="translate(1044.185547 0)"/>
      <use xlink:href="#DejaVuSans-6c" transform="translate(1105.708984 0)"/>
     </g>
    </g>
    <g id="line2d_22">
     <path d="M 61.160938 50.094687 
L 71.160938 50.094687 
L 81.160938 50.094687 
" style="fill: none; stroke-dasharray: 12.95,5.6; stroke-dashoffset: 0; stroke: #ff0000; stroke-opacity: 0.8; stroke-width: 3.5"/>
    </g>
    <g id="text_21">
     <!-- AutoSINDy -->
     <g transform="translate(89.160938 53.594687) scale(0.1 -0.1)">
      <defs>
       <path id="DejaVuSans-41" d="M 2188 4044 
L 1331 1722 
L 3047 1722 
L 2188 4044 
z
M 1831 4666 
L 2547 4666 
L 4325 0 
L 3669 0 
L 3244 1197 
L 1141 1197 
L 716 0 
L 50 0 
L 1831 4666 
z
" transform="scale(0.015625)"/>
       <path id="DejaVuSans-53" d="M 3425 4513 
L 3425 3897 
Q 3066 4069 2747 4153 
Q 2428 4238 2131 4238 
Q 1616 4238 1336 4038 
Q 1056 3838 1056 3469 
Q 1056 3159 1242 3001 
Q 1428 2844 1947 2747 
L 2328 2669 
Q 3034 2534 3370 2195 
Q 3706 1856 3706 1288 
Q 3706 609 3251 259 
Q 2797 -91 1919 -91 
Q 1588 -91 1214 -16 
Q 841 59 441 206 
L 441 856 
Q 825 641 1194 531 
Q 1563 422 1919 422 
Q 2459 422 2753 634 
Q 3047 847 3047 1241 
Q 3047 1584 2836 1778 
Q 2625 1972 2144 2069 
L 1759 2144 
Q 1053 2284 737 2584 
Q 422 2884 422 3419 
Q 422 4038 858 4394 
Q 1294 4750 2059 4750 
Q 2388 4750 2728 4690 
Q 3069 4631 3425 4513 
z
" transform="scale(0.015625)"/>
       <path id="DejaVuSans-49" d="M 628 4666 
L 1259 4666 
L 1259 0 
L 628 0 
L 628 4666 
z
" transform="scale(0.015625)"/>
       <path id="DejaVuSans-4e" d="M 628 4666 
L 1478 4666 
L 3547 763 
L 3547 4666 
L 4159 4666 
L 4159 0 
L 3309 0 
L 1241 3903 
L 1241 0 
L 628 0 
L 628 4666 
z
" transform="scale(0.015625)"/>
       <path id="DejaVuSans-44" d="M 1259 4147 
L 1259 519 
L 2022 519 
Q 2988 519 3436 956 
Q 3884 1394 3884 2338 
Q 3884 3275 3436 3711 
Q 2988 4147 2022 4147 
L 1259 4147 
z
M 628 4666 
L 1925 4666 
Q 3281 4666 3915 4102 
Q 4550 3538 4550 2338 
Q 4550 1131 3912 565 
Q 3275 0 1925 0 
L 628 0 
L 628 4666 
z
" transform="scale(0.015625)"/>
      </defs>
      <use xlink:href="#DejaVuSans-41"/>
      <use xlink:href="#DejaVuSans-75" transform="translate(68.408203 0)"/>
      <use xlink:href="#DejaVuSans-74" transform="translate(131.787109 0)"/>
      <use xlink:href="#DejaVuSans-6f" transform="translate(170.996094 0)"/>
      <use xlink:href="#DejaVuSans-53" transform="translate(232.177734 0)"/>
      <use xlink:href="#DejaVuSans-49" transform="translate(295.654297 0)"/>
      <use xlink:href="#DejaVuSans-4e" transform="translate(325.146484 0)"/>
      <use xlink:href="#DejaVuSans-44" transform="translate(399.951172 0)"/>
      <use xlink:href="#DejaVuSans-79" transform="translate(476.953125 0)"/>
     </g>
    </g>
    <g id="line2d_23">
     <path d="M 61.160938 64.772812 
L 71.160938 64.772812 
L 81.160938 64.772812 
" style="fill: none; stroke-dasharray: 3.5,5.775; stroke-dashoffset: 0; stroke: #008000; stroke-opacity: 0.8; stroke-width: 3.5"/>
    </g>
    <g id="text_22">
     <!-- Standard SINDy -->
     <g transform="translate(89.160938 68.272812) scale(0.1 -0.1)">
      <use xlink:href="#DejaVuSans-53"/>
      <use xlink:href="#DejaVuSans-74" transform="translate(63.476562 0)"/>
      <use xlink:href="#DejaVuSans-61" transform="translate(102.685547 0)"/>
      <use xlink:href="#DejaVuSans-6e" transform="translate(163.964844 0)"/>
      <use xlink:href="#DejaVuSans-64" transform="translate(227.34375 0)"/>
      <use xlink:href="#DejaVuSans-61" transform="translate(290.820312 0)"/>
      <use xlink:href="#DejaVuSans-72" transform="translate(352.099609 0)"/>
      <use xlink:href="#DejaVuSans-64" transform="translate(391.462891 0)"/>
      <use xlink:href="#DejaVuSans-20" transform="translate(454.939453 0)"/>
      <use xlink:href="#DejaVuSans-53" transform="translate(486.726562 0)"/>
      <use xlink:href="#DejaVuSans-49" transform="translate(550.203125 0)"/>
      <use xlink:href="#DejaVuSans-4e" transform="translate(579.695312 0)"/>
      <use xlink:href="#DejaVuSans-44" transform="translate(654.5 0)"/>
      <use xlink:href="#DejaVuSans-79" transform="translate(731.501953 0)"/>
     </g>
    </g>
    <g id="line2d_24">
     <path d="M 61.160938 79.450937 
L 71.160938 79.450937 
L 81.160938 79.450937 
" style="fill: none; stroke-dasharray: 22.4,5.6,3.5,5.6; stroke-dashoffset: 0; stroke: #0000ff; stroke-opacity: 0.8; stroke-width: 3.5"/>
    </g>
    <g id="text_23">
     <!-- Standard PySR -->
     <g transform="translate(89.160938 82.950937) scale(0.1 -0.1)">
      <defs>
       <path id="DejaVuSans-52" d="M 2841 2188 
Q 3044 2119 3236 1894 
Q 3428 1669 3622 1275 
L 4263 0 
L 3584 0 
L 2988 1197 
Q 2756 1666 2539 1819 
Q 2322 1972 1947 1972 
L 1259 1972 
L 1259 0 
L 628 0 
L 628 4666 
L 2053 4666 
Q 2853 4666 3247 4331 
Q 3641 3997 3641 3322 
Q 3641 2881 3436 2590 
Q 3231 2300 2841 2188 
z
M 1259 4147 
L 1259 2491 
L 2053 2491 
Q 2509 2491 2742 2702 
Q 2975 2913 2975 3322 
Q 2975 3731 2742 3939 
Q 2509 4147 2053 4147 
L 1259 4147 
z
" transform="scale(0.015625)"/>
      </defs>
      <use xlink:href="#DejaVuSans-53"/>
      <use xlink:href="#DejaVuSans-74" transform="translate(63.476562 0)"/>
      <use xlink:href="#DejaVuSans-61" transform="translate(102.685547 0)"/>
      <use xlink:href="#DejaVuSans-6e" transform="translate(163.964844 0)"/>
      <use xlink:href="#DejaVuSans-64" transform="translate(227.34375 0)"/>
      <use xlink:href="#DejaVuSans-61" transform="translate(290.820312 0)"/>
      <use xlink:href="#DejaVuSans-72" transform="translate(352.099609 0)"/>
      <use xlink:href="#DejaVuSans-64" transform="translate(391.462891 0)"/>
      <use xlink:href="#DejaVuSans-20" transform="translate(454.939453 0)"/>
      <use xlink:href="#DejaVuSans-50" transform="translate(486.726562 0)"/>
      <use xlink:href="#DejaVuSans-79" transform="translate(547.029297 0)"/>
      <use xlink:href="#DejaVuSans-53" transform="translate(606.208984 0)"/>
      <use xlink:href="#DejaVuSans-52" transform="translate(669.685547 0)"/>
     </g>
    </g>
   </g>
  </g>
 </g>
 <defs>
  <clipPath id="p4722197652">
   <rect x="52.160938" y="22.318125" width="509.05" height="508.12"/>
  </clipPath>
 </defs>
</svg>
