<?xml version="1.0" encoding="utf-8" standalone="no"?>
<!DOCTYPE svg PUBLIC "-//W3C//DTD SVG 1.1//EN"
  "http://www.w3.org/Graphics/SVG/1.1/DTD/svg11.dtd">
<svg xmlns:xlink="http://www.w3.org/1999/xlink" width="861.247187pt" height="284.863125pt" viewBox="0 0 861.247187 284.863125" xmlns="http://www.w3.org/2000/svg" version="1.1">
 <metadata>
  <rdf:RDF xmlns:dc="http://purl.org/dc/elements/1.1/" xmlns:cc="http://creativecommons.org/ns#" xmlns:rdf="http://www.w3.org/1999/02/22-rdf-syntax-ns#">
   <cc:Work>
    <dc:type rdf:resource="http://purl.org/dc/dcmitype/StillImage"/>
    <dc:date>2026-04-02T00:13:14.323542</dc:date>
    <dc:format>image/svg+xml</dc:format>
    <dc:creator>
     <cc:Agent>
      <dc:title>Matplotlib v3.10.7, https://matplotlib.org/</dc:title>
     </cc:Agent>
    </dc:creator>
   </cc:Work>
  </rdf:RDF>
 </metadata>
 <defs>
  <style type="text/css">*{stroke-linejoin: round; stroke-linecap: butt}</style>
 </defs>
 <g id="figure_1">
  <g id="patch_1">
   <path d="M 0 284.863125 
L 861.247187 284.863125 
L 861.247187 0 
L 0 0 
z
" style="fill: #ffffff"/>
  </g>
  <g id="axes_1">
   <g id="patch_2">
    <path d="M 44.555937 137.260219 
L 847.167187 137.260219 
L 847.167187 41.62375 
L 44.555937 41.62375 
z
" style="fill: #ffffff"/>
   </g>
   <g id="matplotlib.axis_1">
    <g id="xtick_1">
     <g id="line2d_1">
      <path d="M 81.038267 137.260219 
L 81.038267 41.62375 
" clip-path="url(#p99b4ca646e)" style="fill: none; stroke: #cccccc; stroke-width: 0.8; stroke-linecap: round"/>
     </g>
    </g>
    <g id="xtick_2">
     <g id="line2d_2">
      <path d="M 226.967585 137.260219 
L 226.967585 41.62375 
" clip-path="url(#p99b4ca646e)" style="fill: none; stroke: #cccccc; stroke-width: 0.8; stroke-linecap: round"/>
     </g>
    </g>
    <g id="xtick_3">
     <g id="line2d_3">
      <path d="M 372.896903 137.260219 
L 372.896903 41.62375 
" clip-path="url(#p99b4ca646e)" style="fill: none; stroke: #cccccc; stroke-width: 0.8; stroke-linecap: round"/>
     </g>
    </g>
    <g id="xtick_4">
     <g id="line2d_4">
      <path d="M 518.826222 137.260219 
L 518.826222 41.62375 
" clip-path="url(#p99b4ca646e)" style="fill: none; stroke: #cccccc; stroke-width: 0.8; stroke-linecap: round"/>
     </g>
    </g>
    <g id="xtick_5">
     <g id="line2d_5">
      <path d="M 664.75554 137.260219 
L 664.75554 41.62375 
" clip-path="url(#p99b4ca646e)" style="fill: none; stroke: #cccccc; stroke-width: 0.8; stroke-linecap: round"/>
     </g>
    </g>
    <g id="xtick_6">
     <g id="line2d_6">
      <path d="M 810.684858 137.260219 
L 810.684858 41.62375 
" clip-path="url(#p99b4ca646e)" style="fill: none; stroke: #cccccc; stroke-width: 0.8; stroke-linecap: round"/>
     </g>
    </g>
   </g>
   <g id="matplotlib.axis_2">
    <g id="ytick_1">
     <g id="line2d_7">
      <path d="M 44.555937 132.017824 
L 847.167187 132.017824 
" clip-path="url(#p99b4ca646e)" style="fill: none; stroke: #cccccc; stroke-width: 0.8; stroke-linecap: round"/>
     </g>
     <g id="text_1">
      <!-- −2 -->
      <g style="fill: #262626" transform="translate(22.81375 135.817043) scale(0.1 -0.1)">
       <defs>
        <path id="DejaVuSerif-2212" d="M 678 2259 
L 4684 2259 
L 4684 1753 
L 678 1753 
L 678 2259 
z
" transform="scale(0.015625)"/>
        <path id="DejaVuSerif-32" d="M 819 3553 
L 469 3553 
L 469 4384 
Q 803 4563 1142 4656 
Q 1481 4750 1806 4750 
Q 2534 4750 2956 4397 
Q 3378 4044 3378 3438 
Q 3378 2753 2422 1800 
Q 2347 1728 2309 1691 
L 1131 513 
L 3078 513 
L 3078 1088 
L 3444 1088 
L 3444 0 
L 434 0 
L 434 341 
L 1850 1753 
Q 2319 2222 2519 2614 
Q 2719 3006 2719 3438 
Q 2719 3909 2473 4175 
Q 2228 4441 1797 4441 
Q 1350 4441 1106 4219 
Q 863 3997 819 3553 
z
" transform="scale(0.015625)"/>
       </defs>
       <use xlink:href="#DejaVuSerif-2212"/>
       <use xlink:href="#DejaVuSerif-32" transform="translate(83.789062 0)"/>
      </g>
     </g>
    </g>
    <g id="ytick_2">
     <g id="line2d_8">
      <path d="M 44.555937 88.994343 
L 847.167187 88.994343 
" clip-path="url(#p99b4ca646e)" style="fill: none; stroke: #cccccc; stroke-width: 0.8; stroke-linecap: round"/>
     </g>
     <g id="text_2">
      <!-- 0 -->
      <g style="fill: #262626" transform="translate(31.193437 92.793562) scale(0.1 -0.1)">
       <defs>
        <path id="DejaVuSerif-30" d="M 2034 219 
Q 2513 219 2750 744 
Q 2988 1269 2988 2328 
Q 2988 3391 2750 3916 
Q 2513 4441 2034 4441 
Q 1556 4441 1318 3916 
Q 1081 3391 1081 2328 
Q 1081 1269 1318 744 
Q 1556 219 2034 219 
z
M 2034 -91 
Q 1275 -91 848 546 
Q 422 1184 422 2328 
Q 422 3475 848 4112 
Q 1275 4750 2034 4750 
Q 2797 4750 3222 4112 
Q 3647 3475 3647 2328 
Q 3647 1184 3222 546 
Q 2797 -91 2034 -91 
z
" transform="scale(0.015625)"/>
       </defs>
       <use xlink:href="#DejaVuSerif-30"/>
      </g>
     </g>
    </g>
    <g id="ytick_3">
     <g id="line2d_9">
      <path d="M 44.555937 45.970862 
L 847.167187 45.970862 
" clip-path="url(#p99b4ca646e)" style="fill: none; stroke: #cccccc; stroke-width: 0.8; stroke-linecap: round"/>
     </g>
     <g id="text_3">
      <!-- 2 -->
      <g style="fill: #262626" transform="translate(31.193437 49.770081) scale(0.1 -0.1)">
       <use xlink:href="#DejaVuSerif-32"/>
      </g>
     </g>
    </g>
    <g id="text_4">
     <!-- $x0$ -->
     <g style="fill: #262626" transform="translate(16.318125 96.821985) rotate(-90) scale(0.12 -0.12)">
      <defs>
       <path id="DejaVuSans-Oblique-78" d="M 3841 3500 
L 2234 1784 
L 3219 0 
L 2559 0 
L 1819 1388 
L 531 0 
L -166 0 
L 1556 1844 
L 641 3500 
L 1300 3500 
L 1972 2234 
L 3144 3500 
L 3841 3500 
z
" transform="scale(0.015625)"/>
       <path id="DejaVuSans-30" d="M 2034 4250 
Q 1547 4250 1301 3770 
Q 1056 3291 1056 2328 
Q 1056 1369 1301 889 
Q 1547 409 2034 409 
Q 2525 409 2770 889 
Q 3016 1369 3016 2328 
Q 3016 3291 2770 3770 
Q 2525 4250 2034 4250 
z
M 2034 4750 
Q 2819 4750 3233 4129 
Q 3647 3509 3647 2328 
Q 3647 1150 3233 529 
Q 2819 -91 2034 -91 
Q 1250 -91 836 529 
Q 422 1150 422 2328 
Q 422 3509 836 4129 
Q 1250 4750 2034 4750 
z
" transform="scale(0.015625)"/>
      </defs>
      <use xlink:href="#DejaVuSans-Oblique-78" transform="translate(0 0.78125)"/>
      <use xlink:href="#DejaVuSans-30" transform="translate(59.179688 0.78125)"/>
     </g>
    </g>
   </g>
   <g id="line2d_10">
    <path d="M 81.038267 45.970862 
L 89.811573 47.129916 
L 100.047096 48.233067 
L 113.207055 49.412087 
L 132.215884 50.870984 
L 170.233542 53.501184 
L 214.10007 56.615566 
L 243.344423 58.912955 
L 268.202122 61.083404 
L 290.135386 63.226715 
L 309.144215 65.316379 
L 325.228609 67.296596 
L 339.850785 69.314336 
L 353.010744 71.361424 
L 364.708485 73.415451 
L 374.944008 75.435726 
L 383.717314 77.364577 
L 392.490619 79.504935 
L 401.263925 81.893914 
L 408.575013 84.110357 
L 415.886101 86.560779 
L 423.197189 89.271094 
L 430.508278 92.26464 
L 436.357148 94.873821 
L 443.668236 98.404574 
L 450.979324 102.205614 
L 459.75263 107.029527 
L 475.837024 115.954601 
L 481.685894 118.94678 
L 487.534765 121.682315 
L 491.921417 123.528166 
L 496.30807 125.173938 
L 500.694723 126.618095 
L 505.081376 127.865664 
L 509.468029 128.924572 
L 513.854682 129.805649 
L 519.703552 130.727945 
L 525.552423 131.401939 
L 531.401293 131.876379 
L 538.712381 132.243903 
L 547.485687 132.438098 
L 557.72121 132.428154 
L 570.881169 132.174225 
L 588.42778 131.593209 
L 613.28548 130.52991 
L 648.378702 128.795713 
L 689.320796 126.548196 
L 727.338454 124.242515 
L 760.969459 121.98292 
L 790.213811 119.802696 
L 810.684858 118.120717 
L 810.684858 118.120717 
" clip-path="url(#p99b4ca646e)" style="fill: none; stroke: #000000; stroke-opacity: 0.4; stroke-width: 6; stroke-linecap: round"/>
   </g>
   <g id="line2d_11">
    <path d="M 81.038267 45.970862 
L 92.736008 47.550899 
L 107.358184 49.281094 
L 126.367013 51.286882 
L 155.611366 54.128311 
L 238.95777 62.118626 
L 274.050992 65.759807 
L 304.757562 69.163782 
L 334.001915 72.625223 
L 363.246267 76.315085 
L 391.028402 80.042211 
L 421.734972 84.38721 
L 515.316899 97.823124 
L 534.325728 100.203808 
L 550.410122 102.010433 
L 566.494516 103.593871 
L 581.116692 104.820645 
L 595.738868 105.83321 
L 610.361044 106.625939 
L 624.983221 107.19868 
L 639.605397 107.557392 
L 655.689791 107.719435 
L 671.774184 107.65505 
L 689.320796 107.347444 
L 706.867407 106.814617 
L 725.876236 106.010098 
L 746.347283 104.911852 
L 768.280547 103.497626 
L 791.676029 101.748578 
L 810.684858 100.165497 
L 810.684858 100.165497 
" clip-path="url(#p99b4ca646e)" style="fill: none; stroke-dasharray: 22.4,5.6,3.5,5.6; stroke-dashoffset: 0; stroke: #0000ff; stroke-opacity: 0.8; stroke-width: 3.5"/>
   </g>
   <g id="patch_3">
    <path d="M 44.555937 137.260219 
L 44.555937 41.62375 
" style="fill: none; stroke: #cccccc; stroke-width: 0.8; stroke-linejoin: miter; stroke-linecap: square"/>
   </g>
   <g id="patch_4">
    <path d="M 847.167187 137.260219 
L 847.167187 41.62375 
" style="fill: none; stroke: #cccccc; stroke-width: 0.8; stroke-linejoin: miter; stroke-linecap: square"/>
   </g>
   <g id="patch_5">
    <path d="M 44.555938 137.260219 
L 847.167187 137.260219 
" style="fill: none; stroke: #cccccc; stroke-width: 0.8; stroke-linejoin: miter; stroke-linecap: square"/>
   </g>
   <g id="patch_6">
    <path d="M 44.555938 41.62375 
L 847.167187 41.62375 
" style="fill: none; stroke: #cccccc; stroke-width: 0.8; stroke-linejoin: miter; stroke-linecap: square"/>
   </g>
   <g id="line2d_12">
    <path d="M 81.038267 45.970862 
L 89.811573 47.700944 
L 98.584878 49.234544 
L 108.820402 50.794914 
L 120.518143 52.331819 
L 133.678101 53.826053 
L 152.68693 55.723413 
L 230.184464 63.171645 
L 249.193293 65.330221 
L 266.739904 67.531868 
L 282.824298 69.766221 
L 297.446474 72.025885 
L 310.606433 74.295268 
L 322.304174 76.55263 
L 332.539697 78.771808 
L 341.313003 80.912861 
L 348.624091 82.913798 
L 355.935179 85.167269 
L 361.78405 87.186215 
L 367.63292 89.423343 
L 373.48179 91.903492 
L 379.330661 94.628325 
L 386.641749 98.294323 
L 396.877272 103.726314 
L 421.734972 117.089873 
L 429.04606 120.731589 
L 434.89493 123.373213 
L 439.281583 125.14876 
L 443.668236 126.720707 
L 448.054889 128.069449 
L 452.441542 129.193322 
L 456.828195 130.116399 
L 462.677065 131.07479 
L 468.525936 131.770765 
L 474.374806 132.256032 
L 481.685894 132.641291 
L 490.4592 132.867898 
L 500.694723 132.904399 
L 513.854682 132.727322 
L 531.401293 132.239247 
L 553.334557 131.379907 
L 579.654474 130.112457 
L 610.361044 128.405453 
L 645.454267 126.224023 
L 683.471925 123.630805 
L 720.027366 120.920216 
L 753.658371 118.212093 
L 781.440506 115.753614 
L 803.37377 113.601478 
L 810.684858 112.827903 
L 810.684858 112.827903 
" clip-path="url(#p99b4ca646e)" style="fill: none; stroke-dasharray: 3.5,5.775; stroke-dashoffset: 0; stroke: #008000; stroke-opacity: 0.8; stroke-width: 3.5"/>
   </g>
   <g id="line2d_13">
    <path d="M 81.038267 45.970862 
L 89.811573 47.143794 
L 100.047096 48.283219 
L 113.207055 49.520131 
L 132.215884 51.067147 
L 168.771324 53.755528 
L 212.637853 57.037386 
L 241.882205 59.445448 
L 266.739904 61.720959 
L 287.210951 63.811689 
L 304.757562 65.813729 
L 320.841956 67.870012 
L 335.464132 69.97371 
L 348.624091 72.110094 
L 360.321832 74.255924 
L 370.557355 76.371179 
L 379.330661 78.397347 
L 388.103967 80.655213 
L 395.415055 82.739846 
L 402.726143 85.040091 
L 410.037231 87.587819 
L 417.348319 90.406961 
L 424.659407 93.513372 
L 431.970495 96.914831 
L 439.281583 100.613133 
L 448.054889 105.357753 
L 468.525936 116.624179 
L 474.374806 119.559665 
L 480.223677 122.21568 
L 484.610329 123.995345 
L 488.996982 125.583412 
L 493.383635 126.976837 
L 497.770288 128.177733 
L 502.156941 129.193371 
L 508.005811 130.28198 
L 513.854682 131.111317 
L 519.703552 131.721266 
L 527.01464 132.228028 
L 534.325728 132.511549 
L 543.099034 132.639001 
L 553.334557 132.574851 
L 566.494516 132.271008 
L 584.041127 131.63451 
L 608.898827 130.494027 
L 643.99205 128.645671 
L 684.934143 126.261655 
L 722.951801 123.827783 
L 755.120589 121.559069 
L 784.364941 119.27824 
L 809.22264 117.121133 
L 810.684858 116.986571 
L 810.684858 116.986571 
" clip-path="url(#p99b4ca646e)" style="fill: none; stroke-dasharray: 12.95,5.6; stroke-dashoffset: 0; stroke: #ff0000; stroke-opacity: 0.8; stroke-width: 3.5"/>
   </g>
  </g>
  <g id="axes_2">
   <g id="patch_7">
    <path d="M 44.555937 245.37125 
L 847.167187 245.37125 
L 847.167187 149.734781 
L 44.555937 149.734781 
z
" style="fill: #ffffff"/>
   </g>
   <g id="matplotlib.axis_3">
    <g id="xtick_7">
     <g id="line2d_14">
      <path d="M 81.038267 245.37125 
L 81.038267 149.734781 
" clip-path="url(#p1003db1415)" style="fill: none; stroke: #cccccc; stroke-width: 0.8; stroke-linecap: round"/>
     </g>
     <g id="text_5">
      <!-- 0 -->
      <g style="fill: #262626" transform="translate(77.857017 259.969687) scale(0.1 -0.1)">
       <use xlink:href="#DejaVuSerif-30"/>
      </g>
     </g>
    </g>
    <g id="xtick_8">
     <g id="line2d_15">
      <path d="M 226.967585 245.37125 
L 226.967585 149.734781 
" clip-path="url(#p1003db1415)" style="fill: none; stroke: #cccccc; stroke-width: 0.8; stroke-linecap: round"/>
     </g>
     <g id="text_6">
      <!-- 1 -->
      <g style="fill: #262626" transform="translate(223.786335 259.969687) scale(0.1 -0.1)">
       <defs>
        <path id="DejaVuSerif-31" d="M 909 0 
L 909 331 
L 1722 331 
L 1722 4213 
L 781 3603 
L 781 4013 
L 1919 4750 
L 2350 4750 
L 2350 331 
L 3163 331 
L 3163 0 
L 909 0 
z
" transform="scale(0.015625)"/>
       </defs>
       <use xlink:href="#DejaVuSerif-31"/>
      </g>
     </g>
    </g>
    <g id="xtick_9">
     <g id="line2d_16">
      <path d="M 372.896903 245.37125 
L 372.896903 149.734781 
" clip-path="url(#p1003db1415)" style="fill: none; stroke: #cccccc; stroke-width: 0.8; stroke-linecap: round"/>
     </g>
     <g id="text_7">
      <!-- 2 -->
      <g style="fill: #262626" transform="translate(369.715653 259.969687) scale(0.1 -0.1)">
       <use xlink:href="#DejaVuSerif-32"/>
      </g>
     </g>
    </g>
    <g id="xtick_10">
     <g id="line2d_17">
      <path d="M 518.826222 245.37125 
L 518.826222 149.734781 
" clip-path="url(#p1003db1415)" style="fill: none; stroke: #cccccc; stroke-width: 0.8; stroke-linecap: round"/>
     </g>
     <g id="text_8">
      <!-- 3 -->
      <g style="fill: #262626" transform="translate(515.644972 259.969687) scale(0.1 -0.1)">
       <defs>
        <path id="DejaVuSerif-33" d="M 622 4469 
Q 988 4606 1323 4678 
Q 1659 4750 1953 4750 
Q 2638 4750 3022 4454 
Q 3406 4159 3406 3634 
Q 3406 3213 3140 2930 
Q 2875 2647 2388 2547 
Q 2963 2466 3280 2130 
Q 3597 1794 3597 1259 
Q 3597 606 3158 257 
Q 2719 -91 1894 -91 
Q 1528 -91 1179 -12 
Q 831 66 488 225 
L 488 1131 
L 838 1131 
Q 869 681 1141 450 
Q 1413 219 1906 219 
Q 2384 219 2661 495 
Q 2938 772 2938 1253 
Q 2938 1803 2653 2086 
Q 2369 2369 1819 2369 
L 1522 2369 
L 1522 2688 
L 1678 2688 
Q 2225 2688 2498 2914 
Q 2772 3141 2772 3597 
Q 2772 4006 2547 4223 
Q 2322 4441 1900 4441 
Q 1478 4441 1245 4241 
Q 1013 4041 972 3647 
L 622 3647 
L 622 4469 
z
" transform="scale(0.015625)"/>
       </defs>
       <use xlink:href="#DejaVuSerif-33"/>
      </g>
     </g>
    </g>
    <g id="xtick_11">
     <g id="line2d_18">
      <path d="M 664.75554 245.37125 
L 664.75554 149.734781 
" clip-path="url(#p1003db1415)" style="fill: none; stroke: #cccccc; stroke-width: 0.8; stroke-linecap: round"/>
     </g>
     <g id="text_9">
      <!-- 4 -->
      <g style="fill: #262626" transform="translate(661.57429 259.969687) scale(0.1 -0.1)">
       <defs>
        <path id="DejaVuSerif-34" d="M 2234 1581 
L 2234 4063 
L 641 1581 
L 2234 1581 
z
M 3609 0 
L 1484 0 
L 1484 331 
L 2234 331 
L 2234 1247 
L 197 1247 
L 197 1588 
L 2241 4750 
L 2859 4750 
L 2859 1581 
L 3750 1581 
L 3750 1247 
L 2859 1247 
L 2859 331 
L 3609 331 
L 3609 0 
z
" transform="scale(0.015625)"/>
       </defs>
       <use xlink:href="#DejaVuSerif-34"/>
      </g>
     </g>
    </g>
    <g id="xtick_12">
     <g id="line2d_19">
      <path d="M 810.684858 245.37125 
L 810.684858 149.734781 
" clip-path="url(#p1003db1415)" style="fill: none; stroke: #cccccc; stroke-width: 0.8; stroke-linecap: round"/>
     </g>
     <g id="text_10">
      <!-- 5 -->
      <g style="fill: #262626" transform="translate(807.503608 259.969687) scale(0.1 -0.1)">
       <defs>
        <path id="DejaVuSerif-35" d="M 3219 4666 
L 3219 4153 
L 1081 4153 
L 1081 2816 
Q 1244 2928 1461 2984 
Q 1678 3041 1947 3041 
Q 2703 3041 3140 2622 
Q 3578 2203 3578 1478 
Q 3578 738 3136 323 
Q 2694 -91 1894 -91 
Q 1572 -91 1234 -12 
Q 897 66 544 225 
L 544 1131 
L 897 1131 
Q 925 688 1179 453 
Q 1434 219 1894 219 
Q 2388 219 2653 544 
Q 2919 869 2919 1478 
Q 2919 2084 2655 2407 
Q 2391 2731 1894 2731 
Q 1613 2731 1398 2631 
Q 1184 2531 1019 2322 
L 750 2322 
L 750 4666 
L 3219 4666 
z
" transform="scale(0.015625)"/>
       </defs>
       <use xlink:href="#DejaVuSerif-35"/>
      </g>
     </g>
    </g>
    <g id="text_11">
     <!-- Time -->
     <g style="fill: #262626" transform="translate(430.699375 275.1675) scale(0.12 -0.12)">
      <defs>
       <path id="DejaVuSerif-54" d="M 1222 0 
L 1222 331 
L 1819 331 
L 1819 4294 
L 447 4294 
L 447 3566 
L 63 3566 
L 63 4666 
L 4206 4666 
L 4206 3566 
L 3822 3566 
L 3822 4294 
L 2450 4294 
L 2450 331 
L 3047 331 
L 3047 0 
L 1222 0 
z
" transform="scale(0.015625)"/>
       <path id="DejaVuSerif-69" d="M 622 4353 
Q 622 4497 726 4603 
Q 831 4709 978 4709 
Q 1122 4709 1226 4603 
Q 1331 4497 1331 4353 
Q 1331 4206 1228 4103 
Q 1125 4000 978 4000 
Q 831 4000 726 4103 
Q 622 4206 622 4353 
z
M 1356 331 
L 1900 331 
L 1900 0 
L 231 0 
L 231 331 
L 781 331 
L 781 2988 
L 231 2988 
L 231 3322 
L 1356 3322 
L 1356 331 
z
" transform="scale(0.015625)"/>
       <path id="DejaVuSerif-6d" d="M 3316 2675 
Q 3481 3041 3739 3227 
Q 3997 3413 4341 3413 
Q 4863 3413 5119 3089 
Q 5375 2766 5375 2113 
L 5375 331 
L 5894 331 
L 5894 0 
L 4300 0 
L 4300 331 
L 4800 331 
L 4800 2047 
Q 4800 2556 4650 2772 
Q 4500 2988 4153 2988 
Q 3769 2988 3567 2697 
Q 3366 2406 3366 1850 
L 3366 331 
L 3866 331 
L 3866 0 
L 2291 0 
L 2291 331 
L 2791 331 
L 2791 2069 
Q 2791 2566 2641 2777 
Q 2491 2988 2144 2988 
Q 1759 2988 1557 2697 
Q 1356 2406 1356 1850 
L 1356 331 
L 1856 331 
L 1856 0 
L 263 0 
L 263 331 
L 781 331 
L 781 2994 
L 231 2994 
L 231 3322 
L 1356 3322 
L 1356 2731 
Q 1516 3063 1762 3238 
Q 2009 3413 2322 3413 
Q 2709 3413 2968 3220 
Q 3228 3028 3316 2675 
z
" transform="scale(0.015625)"/>
       <path id="DejaVuSerif-65" d="M 3469 1600 
L 991 1600 
L 991 1575 
Q 991 903 1244 561 
Q 1497 219 1991 219 
Q 2369 219 2611 417 
Q 2853 616 2950 1006 
L 3413 1006 
Q 3275 459 2904 184 
Q 2534 -91 1931 -91 
Q 1203 -91 761 389 
Q 319 869 319 1663 
Q 319 2450 753 2931 
Q 1188 3413 1894 3413 
Q 2647 3413 3050 2948 
Q 3453 2484 3469 1600 
z
M 2791 1931 
Q 2772 2513 2545 2808 
Q 2319 3103 1894 3103 
Q 1497 3103 1269 2806 
Q 1041 2509 991 1931 
L 2791 1931 
z
" transform="scale(0.015625)"/>
      </defs>
      <use xlink:href="#DejaVuSerif-54"/>
      <use xlink:href="#DejaVuSerif-69" transform="translate(66.699219 0)"/>
      <use xlink:href="#DejaVuSerif-6d" transform="translate(98.681641 0)"/>
      <use xlink:href="#DejaVuSerif-65" transform="translate(193.505859 0)"/>
     </g>
    </g>
   </g>
   <g id="matplotlib.axis_4">
    <g id="ytick_4">
     <g id="line2d_20">
      <path d="M 44.555937 244.44345 
L 847.167187 244.44345 
" clip-path="url(#p1003db1415)" style="fill: none; stroke: #cccccc; stroke-width: 0.8; stroke-linecap: round"/>
     </g>
     <g id="text_12">
      <!-- −4 -->
      <g style="fill: #262626" transform="translate(22.81375 248.242669) scale(0.1 -0.1)">
       <use xlink:href="#DejaVuSerif-2212"/>
       <use xlink:href="#DejaVuSerif-34" transform="translate(83.789062 0)"/>
      </g>
     </g>
    </g>
    <g id="ytick_5">
     <g id="line2d_21">
      <path d="M 44.555937 206.527137 
L 847.167187 206.527137 
" clip-path="url(#p1003db1415)" style="fill: none; stroke: #cccccc; stroke-width: 0.8; stroke-linecap: round"/>
     </g>
     <g id="text_13">
      <!-- −2 -->
      <g style="fill: #262626" transform="translate(22.81375 210.326356) scale(0.1 -0.1)">
       <use xlink:href="#DejaVuSerif-2212"/>
       <use xlink:href="#DejaVuSerif-32" transform="translate(83.789062 0)"/>
      </g>
     </g>
    </g>
    <g id="ytick_6">
     <g id="line2d_22">
      <path d="M 44.555937 168.610823 
L 847.167187 168.610823 
" clip-path="url(#p1003db1415)" style="fill: none; stroke: #cccccc; stroke-width: 0.8; stroke-linecap: round"/>
     </g>
     <g id="text_14">
      <!-- 0 -->
      <g style="fill: #262626" transform="translate(31.193437 172.410042) scale(0.1 -0.1)">
       <use xlink:href="#DejaVuSerif-30"/>
      </g>
     </g>
    </g>
    <g id="text_15">
     <!-- $x1$ -->
     <g style="fill: #262626" transform="translate(16.318125 204.933015) rotate(-90) scale(0.12 -0.12)">
      <defs>
       <path id="DejaVuSans-31" d="M 794 531 
L 1825 531 
L 1825 4091 
L 703 3866 
L 703 4441 
L 1819 4666 
L 2450 4666 
L 2450 531 
L 3481 531 
L 3481 0 
L 794 0 
L 794 531 
z
" transform="scale(0.015625)"/>
      </defs>
      <use xlink:href="#DejaVuSans-Oblique-78" transform="translate(0 0.09375)"/>
      <use xlink:href="#DejaVuSans-31" transform="translate(59.179688 0.09375)"/>
     </g>
    </g>
   </g>
   <g id="line2d_23">
    <path d="M 81.038267 187.56898 
L 83.962702 186.160461 
L 86.887138 184.95005 
L 91.27379 183.437056 
L 95.660443 182.214595 
L 100.047096 181.229413 
L 105.895967 180.206343 
L 111.744837 179.429814 
L 119.055925 178.704849 
L 126.367013 178.195529 
L 135.140319 177.792651 
L 146.83806 177.494496 
L 159.998018 177.384004 
L 177.54463 177.47942 
L 198.015676 177.821477 
L 219.948941 178.404745 
L 241.882205 179.198734 
L 262.353252 180.163355 
L 279.899863 181.210934 
L 294.522039 182.286385 
L 307.681998 183.468449 
L 319.379739 184.721269 
L 329.615262 186.008699 
L 339.850785 187.521559 
L 348.624091 189.042718 
L 355.935179 190.503399 
L 363.246267 192.17234 
L 370.557355 194.084232 
L 376.406226 195.814397 
L 382.255096 197.746043 
L 388.103967 199.90216 
L 393.952837 202.306993 
L 399.801708 204.983264 
L 405.650578 207.960407 
L 411.499448 211.252428 
L 417.348319 214.851975 
L 423.197189 218.730331 
L 430.508278 223.887656 
L 442.206018 232.219234 
L 446.592671 235.050206 
L 449.517107 236.744594 
L 452.441542 238.230694 
L 455.365977 239.457567 
L 458.290412 240.370099 
L 461.214847 240.909279 
L 464.139283 241.024138 
L 465.6015 240.912261 
L 467.063718 240.683688 
L 468.525936 240.336471 
L 469.988153 239.869397 
L 471.450371 239.281992 
L 474.374806 237.747963 
L 477.299241 235.745302 
L 480.223677 233.296707 
L 483.148112 230.436658 
L 486.072547 227.211411 
L 488.996982 223.679006 
L 493.383635 217.976621 
L 506.543594 200.482135 
L 510.930246 195.127483 
L 513.854682 191.810725 
L 516.779117 188.731633 
L 519.703552 185.914179 
L 522.627987 183.371632 
L 525.552423 181.06908 
L 528.476858 178.987163 
L 531.401293 177.113199 
L 534.325728 175.433865 
L 537.250164 173.935205 
L 541.636816 171.993881 
L 546.023469 170.374126 
L 550.410122 169.024603 
L 554.796775 167.903085 
L 559.183428 166.972251 
L 565.032298 165.970913 
L 570.881169 165.186008 
L 578.192257 164.435709 
L 586.965563 163.776428 
L 597.201086 163.23207 
L 611.823262 162.703804 
L 632.294309 162.211961 
L 680.54749 161.348119 
L 727.338454 160.403243 
L 760.969459 159.507777 
L 787.289376 158.598042 
L 809.22264 157.636487 
L 810.684858 157.564297 
L 810.684858 157.564297 
" clip-path="url(#p1003db1415)" style="fill: none; stroke: #000000; stroke-opacity: 0.4; stroke-width: 6; stroke-linecap: round"/>
   </g>
   <g id="line2d_24">
    <path d="M 81.038267 187.56898 
L 86.887138 186.205393 
L 92.736008 185.104654 
L 98.584878 184.209317 
L 105.895967 183.326031 
L 113.207055 182.653085 
L 121.98036 182.054916 
L 133.678101 181.502458 
L 146.83806 181.128215 
L 162.922454 180.924633 
L 181.931283 180.917312 
L 205.326764 181.13865 
L 234.571117 181.654605 
L 268.202122 182.474338 
L 306.21978 183.629628 
L 355.935179 185.379843 
L 401.263925 186.929391 
L 424.659407 187.51816 
L 443.668236 187.788772 
L 459.75263 187.81442 
L 474.374806 187.632018 
L 487.534765 187.265732 
L 500.694723 186.674994 
L 513.854682 185.842162 
L 527.01464 184.784605 
L 541.636816 183.375579 
L 557.72121 181.58536 
L 576.730039 179.222144 
L 604.512174 175.504485 
L 635.218744 171.453824 
L 655.689791 168.979216 
L 674.69862 166.893204 
L 693.707449 165.026296 
L 714.178495 163.253895 
L 736.111759 161.591246 
L 759.507241 160.02981 
L 785.827158 158.504515 
L 810.684858 157.257697 
L 810.684858 157.257697 
" clip-path="url(#p1003db1415)" style="fill: none; stroke-dasharray: 22.4,5.6,3.5,5.6; stroke-dashoffset: 0; stroke: #0000ff; stroke-opacity: 0.8; stroke-width: 3.5"/>
   </g>
   <g id="patch_8">
    <path d="M 44.555937 245.37125 
L 44.555937 149.734781 
" style="fill: none; stroke: #cccccc; stroke-width: 0.8; stroke-linejoin: miter; stroke-linecap: square"/>
   </g>
   <g id="patch_9">
    <path d="M 847.167187 245.37125 
L 847.167187 149.734781 
" style="fill: none; stroke: #cccccc; stroke-width: 0.8; stroke-linejoin: miter; stroke-linecap: square"/>
   </g>
   <g id="patch_10">
    <path d="M 44.555938 245.37125 
L 847.167187 245.37125 
" style="fill: none; stroke: #cccccc; stroke-width: 0.8; stroke-linejoin: miter; stroke-linecap: square"/>
   </g>
   <g id="patch_11">
    <path d="M 44.555938 149.734781 
L 847.167187 149.734781 
" style="fill: none; stroke: #cccccc; stroke-width: 0.8; stroke-linejoin: miter; stroke-linecap: square"/>
   </g>
   <g id="line2d_25">
    <path d="M 81.038267 187.56898 
L 88.349355 186.852848 
L 98.584878 185.560202 
L 119.055925 182.877463 
L 129.291448 181.800723 
L 138.064754 181.095439 
L 148.300277 180.520706 
L 158.535801 180.16905 
L 170.233542 180.000282 
L 183.3935 180.060174 
L 196.553459 180.337692 
L 211.175635 180.86908 
L 225.797811 181.62792 
L 238.95777 182.514791 
L 252.117728 183.62456 
L 263.815469 184.826189 
L 274.050992 186.076627 
L 284.286516 187.557953 
L 293.059822 189.055199 
L 300.37091 190.497422 
L 307.681998 192.148693 
L 314.993086 194.046398 
L 320.841956 195.774137 
L 326.690827 197.717711 
L 332.539697 199.907336 
L 338.388568 202.375997 
L 344.237438 205.153245 
L 348.624091 207.461131 
L 353.010744 209.977331 
L 357.397397 212.702416 
L 363.246267 216.638484 
L 369.095138 220.860822 
L 383.717314 231.702852 
L 388.103967 234.538328 
L 391.028402 236.204534 
L 393.952837 237.652909 
L 396.877272 238.852805 
L 399.801708 239.775691 
L 402.726143 240.395158 
L 405.650578 240.686915 
L 408.575013 240.628792 
L 411.499448 240.200739 
L 414.423884 239.384824 
L 417.348319 238.136013 
L 420.272754 236.416954 
L 423.197189 234.234989 
L 426.121625 231.61058 
L 429.04606 228.577309 
L 431.970495 225.181872 
L 434.89493 221.484084 
L 439.281583 215.53362 
L 448.054889 203.365608 
L 452.441542 197.801162 
L 455.365977 194.367772 
L 458.290412 191.174578 
L 461.214847 188.231457 
L 464.139283 185.542437 
L 467.063718 183.105691 
L 469.988153 180.913545 
L 472.912588 178.95247 
L 475.837024 177.203089 
L 478.761459 175.640209 
L 483.148112 173.60132 
L 487.534765 171.886021 
L 491.921417 170.444897 
L 496.30807 169.231836 
L 502.156941 167.895688 
L 508.005811 166.811409 
L 513.854682 165.930918 
L 521.16577 165.051876 
L 529.939075 164.234739 
L 540.174599 163.516773 
L 553.334557 162.84066 
L 570.881169 162.194494 
L 597.201086 161.487964 
L 720.027366 158.457112 
L 750.733936 157.403441 
L 774.129418 156.38164 
L 793.138247 155.325453 
L 807.760423 154.312123 
L 810.684858 154.081893 
L 810.684858 154.081893 
" clip-path="url(#p1003db1415)" style="fill: none; stroke-dasharray: 3.5,5.775; stroke-dashoffset: 0; stroke: #008000; stroke-opacity: 0.8; stroke-width: 3.5"/>
   </g>
   <g id="line2d_26">
    <path d="M 81.038267 187.56898 
L 83.962702 186.30641 
L 88.349355 184.714346 
L 92.736008 183.414227 
L 97.122661 182.348182 
L 101.509314 181.477187 
L 107.358184 180.559065 
L 114.669272 179.701157 
L 121.98036 179.072152 
L 130.753666 178.553129 
L 140.989189 178.182786 
L 154.149148 177.954119 
L 168.771324 177.927757 
L 187.780153 178.134574 
L 208.2512 178.579569 
L 230.184464 179.285923 
L 250.655511 180.173222 
L 268.202122 181.148434 
L 284.286516 182.268248 
L 297.446474 183.39482 
L 309.144215 184.598292 
L 319.379739 185.843902 
L 329.615262 187.315019 
L 338.388568 188.79448 
L 347.161873 190.519516 
L 354.472961 192.181097 
L 361.78405 194.082634 
L 367.63292 195.80239 
L 373.48179 197.722034 
L 379.330661 199.865067 
L 385.179531 202.256762 
L 391.028402 204.922394 
L 396.877272 207.866907 
L 402.726143 211.127444 
L 408.575013 214.7164 
L 414.423884 218.60127 
L 421.734972 223.751296 
L 433.432713 232.032218 
L 437.819366 234.916628 
L 440.743801 236.650427 
L 443.668236 238.152192 
L 446.592671 239.362655 
L 449.517107 240.231365 
L 452.441542 240.716691 
L 455.365977 240.78582 
L 456.828195 240.656467 
L 458.290412 240.414756 
L 459.75263 240.059066 
L 462.677065 239.002017 
L 465.6015 237.483372 
L 468.525936 235.510002 
L 471.450371 233.097596 
L 474.374806 230.270663 
L 477.299241 227.073552 
L 481.685894 221.79971 
L 487.534765 214.238991 
L 496.30807 202.762291 
L 500.694723 197.373777 
L 503.619158 194.028555 
L 506.543594 190.935925 
L 509.468029 188.095024 
L 512.392464 185.473871 
L 515.316899 183.066715 
L 518.241335 180.866638 
L 521.16577 178.865556 
L 524.090205 177.054221 
L 527.01464 175.422219 
L 531.401293 173.284813 
L 535.787946 171.480575 
L 540.174599 169.95989 
L 544.561252 168.678634 
L 548.947905 167.601558 
L 554.796775 166.428458 
L 560.645645 165.496227 
L 567.956734 164.593127 
L 575.267822 163.909323 
L 584.041127 163.294311 
L 595.738868 162.713199 
L 611.823262 162.174317 
L 635.218744 161.649699 
L 739.036195 159.558497 
L 768.280547 158.64973 
L 791.676029 157.70682 
L 810.684858 156.740197 
L 810.684858 156.740197 
" clip-path="url(#p1003db1415)" style="fill: none; stroke-dasharray: 12.95,5.6; stroke-dashoffset: 0; stroke: #ff0000; stroke-opacity: 0.8; stroke-width: 3.5"/>
   </g>
  </g>
  <g id="text_16">
   <!-- State Variable Simulation Comparison -->
   <g style="fill: #262626" transform="translate(271.899688 20.1175) scale(0.16 -0.16)">
    <defs>
     <path id="DejaVuSerif-53" d="M 594 225 
L 594 1288 
L 953 1284 
Q 969 753 1261 498 
Q 1553 244 2150 244 
Q 2706 244 2998 464 
Q 3291 684 3291 1106 
Q 3291 1444 3114 1625 
Q 2938 1806 2369 1978 
L 1753 2163 
Q 1084 2366 811 2669 
Q 538 2972 538 3500 
Q 538 4094 959 4422 
Q 1381 4750 2144 4750 
Q 2469 4750 2856 4679 
Q 3244 4609 3681 4475 
L 3681 3481 
L 3328 3481 
Q 3275 3975 2998 4195 
Q 2722 4416 2156 4416 
Q 1663 4416 1405 4214 
Q 1147 4013 1147 3628 
Q 1147 3294 1340 3103 
Q 1534 2913 2163 2725 
L 2741 2553 
Q 3375 2363 3645 2067 
Q 3916 1772 3916 1275 
Q 3916 597 3481 253 
Q 3047 -91 2188 -91 
Q 1803 -91 1404 -12 
Q 1006 66 594 225 
z
" transform="scale(0.015625)"/>
     <path id="DejaVuSerif-74" d="M 691 2988 
L 184 2988 
L 184 3322 
L 691 3322 
L 691 4353 
L 1269 4353 
L 1269 3322 
L 2350 3322 
L 2350 2988 
L 1269 2988 
L 1269 878 
Q 1269 456 1350 337 
Q 1431 219 1650 219 
Q 1875 219 1978 351 
Q 2081 484 2088 781 
L 2522 781 
Q 2497 328 2275 118 
Q 2053 -91 1600 -91 
Q 1103 -91 897 129 
Q 691 350 691 878 
L 691 2988 
z
" transform="scale(0.015625)"/>
     <path id="DejaVuSerif-61" d="M 2547 1044 
L 2547 1747 
L 1806 1747 
Q 1378 1747 1168 1562 
Q 959 1378 959 997 
Q 959 650 1171 447 
Q 1384 244 1747 244 
Q 2106 244 2326 466 
Q 2547 688 2547 1044 
z
M 3122 2075 
L 3122 331 
L 3634 331 
L 3634 0 
L 2547 0 
L 2547 359 
Q 2356 128 2106 18 
Q 1856 -91 1522 -91 
Q 969 -91 644 203 
Q 319 497 319 997 
Q 319 1513 691 1797 
Q 1063 2081 1741 2081 
L 2547 2081 
L 2547 2309 
Q 2547 2688 2317 2895 
Q 2088 3103 1672 3103 
Q 1328 3103 1125 2947 
Q 922 2791 872 2484 
L 575 2484 
L 575 3156 
Q 875 3284 1158 3348 
Q 1441 3413 1709 3413 
Q 2400 3413 2761 3070 
Q 3122 2728 3122 2075 
z
" transform="scale(0.015625)"/>
     <path id="DejaVuSerif-20" transform="scale(0.015625)"/>
     <path id="DejaVuSerif-56" d="M 1119 4331 
L 2497 750 
L 3872 4331 
L 3347 4331 
L 3347 4666 
L 4716 4666 
L 4716 4331 
L 4263 4331 
L 2597 0 
L 2059 0 
L 403 4331 
L -63 4331 
L -63 4666 
L 1638 4666 
L 1638 4331 
L 1119 4331 
z
" transform="scale(0.015625)"/>
     <path id="DejaVuSerif-72" d="M 3059 3328 
L 3059 2497 
L 2728 2497 
Q 2713 2744 2591 2866 
Q 2469 2988 2234 2988 
Q 1809 2988 1582 2694 
Q 1356 2400 1356 1850 
L 1356 331 
L 2022 331 
L 2022 0 
L 263 0 
L 263 331 
L 781 331 
L 781 2994 
L 231 2994 
L 231 3322 
L 1356 3322 
L 1356 2731 
Q 1525 3078 1790 3245 
Q 2056 3413 2438 3413 
Q 2578 3413 2733 3391 
Q 2888 3369 3059 3328 
z
" transform="scale(0.015625)"/>
     <path id="DejaVuSerif-62" d="M 738 331 
L 738 4531 
L 184 4531 
L 184 4863 
L 1313 4863 
L 1313 2803 
Q 1481 3116 1742 3264 
Q 2003 3413 2388 3413 
Q 3000 3413 3387 2928 
Q 3775 2444 3775 1663 
Q 3775 881 3387 395 
Q 3000 -91 2388 -91 
Q 2003 -91 1742 57 
Q 1481 206 1313 519 
L 1313 0 
L 184 0 
L 184 331 
L 738 331 
z
M 1313 1497 
Q 1313 897 1542 583 
Q 1772 269 2209 269 
Q 2650 269 2876 622 
Q 3103 975 3103 1663 
Q 3103 2353 2876 2703 
Q 2650 3053 2209 3053 
Q 1772 3053 1542 2737 
Q 1313 2422 1313 1825 
L 1313 1497 
z
" transform="scale(0.015625)"/>
     <path id="DejaVuSerif-6c" d="M 1313 331 
L 1856 331 
L 1856 0 
L 184 0 
L 184 331 
L 738 331 
L 738 4531 
L 184 4531 
L 184 4863 
L 1313 4863 
L 1313 331 
z
" transform="scale(0.015625)"/>
     <path id="DejaVuSerif-75" d="M 2266 3322 
L 3341 3322 
L 3341 331 
L 3884 331 
L 3884 0 
L 2766 0 
L 2766 588 
Q 2606 256 2353 82 
Q 2100 -91 1766 -91 
Q 1213 -91 952 223 
Q 691 538 691 1209 
L 691 2988 
L 172 2988 
L 172 3322 
L 1269 3322 
L 1269 1388 
Q 1269 781 1417 556 
Q 1566 331 1947 331 
Q 2347 331 2556 625 
Q 2766 919 2766 1478 
L 2766 2988 
L 2266 2988 
L 2266 3322 
z
" transform="scale(0.015625)"/>
     <path id="DejaVuSerif-6f" d="M 1925 219 
Q 2388 219 2623 584 
Q 2859 950 2859 1663 
Q 2859 2375 2623 2739 
Q 2388 3103 1925 3103 
Q 1463 3103 1227 2739 
Q 991 2375 991 1663 
Q 991 950 1228 584 
Q 1466 219 1925 219 
z
M 1925 -91 
Q 1200 -91 759 389 
Q 319 869 319 1663 
Q 319 2456 758 2934 
Q 1197 3413 1925 3413 
Q 2653 3413 3092 2934 
Q 3531 2456 3531 1663 
Q 3531 869 3092 389 
Q 2653 -91 1925 -91 
z
" transform="scale(0.015625)"/>
     <path id="DejaVuSerif-6e" d="M 263 0 
L 263 331 
L 781 331 
L 781 2988 
L 231 2988 
L 231 3322 
L 1356 3322 
L 1356 2731 
Q 1516 3069 1770 3241 
Q 2025 3413 2363 3413 
Q 2913 3413 3172 3097 
Q 3431 2781 3431 2113 
L 3431 331 
L 3944 331 
L 3944 0 
L 2356 0 
L 2356 331 
L 2853 331 
L 2853 1931 
Q 2853 2541 2703 2767 
Q 2553 2994 2175 2994 
Q 1775 2994 1565 2701 
Q 1356 2409 1356 1850 
L 1356 331 
L 1856 331 
L 1856 0 
L 263 0 
z
" transform="scale(0.015625)"/>
     <path id="DejaVuSerif-43" d="M 4513 1234 
Q 4306 581 3820 245 
Q 3334 -91 2591 -91 
Q 2134 -91 1743 65 
Q 1353 222 1050 525 
Q 700 875 529 1320 
Q 359 1766 359 2328 
Q 359 3416 987 4083 
Q 1616 4750 2644 4750 
Q 3025 4750 3456 4650 
Q 3888 4550 4384 4347 
L 4384 3272 
L 4031 3272 
Q 3916 3859 3567 4137 
Q 3219 4416 2591 4416 
Q 1844 4416 1459 3886 
Q 1075 3356 1075 2328 
Q 1075 1303 1459 773 
Q 1844 244 2591 244 
Q 3113 244 3450 492 
Q 3788 741 3938 1234 
L 4513 1234 
z
" transform="scale(0.015625)"/>
     <path id="DejaVuSerif-70" d="M 1313 1825 
L 1313 1497 
Q 1313 897 1542 583 
Q 1772 269 2209 269 
Q 2650 269 2876 622 
Q 3103 975 3103 1663 
Q 3103 2353 2876 2703 
Q 2650 3053 2209 3053 
Q 1772 3053 1542 2737 
Q 1313 2422 1313 1825 
z
M 738 2988 
L 184 2988 
L 184 3322 
L 1313 3322 
L 1313 2803 
Q 1481 3116 1742 3264 
Q 2003 3413 2388 3413 
Q 3000 3413 3387 2928 
Q 3775 2444 3775 1663 
Q 3775 881 3387 395 
Q 3000 -91 2388 -91 
Q 2003 -91 1742 57 
Q 1481 206 1313 519 
L 1313 -997 
L 1856 -997 
L 1856 -1331 
L 184 -1331 
L 184 -997 
L 738 -997 
L 738 2988 
z
" transform="scale(0.015625)"/>
     <path id="DejaVuSerif-73" d="M 359 184 
L 359 959 
L 691 959 
Q 703 588 923 403 
Q 1144 219 1575 219 
Q 1963 219 2166 364 
Q 2369 509 2369 788 
Q 2369 1006 2220 1140 
Q 2072 1275 1594 1428 
L 1178 1569 
Q 750 1706 558 1912 
Q 366 2119 366 2438 
Q 366 2894 700 3153 
Q 1034 3413 1625 3413 
Q 1888 3413 2178 3344 
Q 2469 3275 2778 3144 
L 2778 2419 
L 2447 2419 
Q 2434 2741 2221 2922 
Q 2009 3103 1644 3103 
Q 1281 3103 1095 2975 
Q 909 2847 909 2591 
Q 909 2381 1050 2254 
Q 1191 2128 1613 1997 
L 2069 1856 
Q 2541 1709 2748 1489 
Q 2956 1269 2956 922 
Q 2956 450 2595 179 
Q 2234 -91 1600 -91 
Q 1278 -91 972 -22 
Q 666 47 359 184 
z
" transform="scale(0.015625)"/>
    </defs>
    <use xlink:href="#DejaVuSerif-53"/>
    <use xlink:href="#DejaVuSerif-74" transform="translate(68.505859 0)"/>
    <use xlink:href="#DejaVuSerif-61" transform="translate(108.691406 0)"/>
    <use xlink:href="#DejaVuSerif-74" transform="translate(168.310547 0)"/>
    <use xlink:href="#DejaVuSerif-65" transform="translate(208.496094 0)"/>
    <use xlink:href="#DejaVuSerif-20" transform="translate(267.675781 0)"/>
    <use xlink:href="#DejaVuSerif-56" transform="translate(299.462891 0)"/>
    <use xlink:href="#DejaVuSerif-61" transform="translate(362.554688 0)"/>
    <use xlink:href="#DejaVuSerif-72" transform="translate(422.173828 0)"/>
    <use xlink:href="#DejaVuSerif-69" transform="translate(469.976562 0)"/>
    <use xlink:href="#DejaVuSerif-61" transform="translate(501.958984 0)"/>
    <use xlink:href="#DejaVuSerif-62" transform="translate(561.578125 0)"/>
    <use xlink:href="#DejaVuSerif-6c" transform="translate(625.591797 0)"/>
    <use xlink:href="#DejaVuSerif-65" transform="translate(657.574219 0)"/>
    <use xlink:href="#DejaVuSerif-20" transform="translate(716.753906 0)"/>
    <use xlink:href="#DejaVuSerif-53" transform="translate(748.541016 0)"/>
    <use xlink:href="#DejaVuSerif-69" transform="translate(817.046875 0)"/>
    <use xlink:href="#DejaVuSerif-6d" transform="translate(849.029297 0)"/>
    <use xlink:href="#DejaVuSerif-75" transform="translate(943.853516 0)"/>
    <use xlink:href="#DejaVuSerif-6c" transform="translate(1008.257812 0)"/>
    <use xlink:href="#DejaVuSerif-61" transform="translate(1040.240234 0)"/>
    <use xlink:href="#DejaVuSerif-74" transform="translate(1099.859375 0)"/>
    <use xlink:href="#DejaVuSerif-69" transform="translate(1140.044922 0)"/>
    <use xlink:href="#DejaVuSerif-6f" transform="translate(1172.027344 0)"/>
    <use xlink:href="#DejaVuSerif-6e" transform="translate(1232.232422 0)"/>
    <use xlink:href="#DejaVuSerif-20" transform="translate(1296.636719 0)"/>
    <use xlink:href="#DejaVuSerif-43" transform="translate(1328.423828 0)"/>
    <use xlink:href="#DejaVuSerif-6f" transform="translate(1404.9375 0)"/>
    <use xlink:href="#DejaVuSerif-6d" transform="translate(1465.142578 0)"/>
    <use xlink:href="#DejaVuSerif-70" transform="translate(1559.966797 0)"/>
    <use xlink:href="#DejaVuSerif-61" transform="translate(1623.980469 0)"/>
    <use xlink:href="#DejaVuSerif-72" transform="translate(1683.599609 0)"/>
    <use xlink:href="#DejaVuSerif-69" transform="translate(1731.402344 0)"/>
    <use xlink:href="#DejaVuSerif-73" transform="translate(1763.384766 0)"/>
    <use xlink:href="#DejaVuSerif-6f" transform="translate(1814.703125 0)"/>
    <use xlink:href="#DejaVuSerif-6e" transform="translate(1874.908203 0)"/>
   </g>
  </g>
  <g id="legend_1">
   <g id="patch_12">
    <path d="M 739.034687 67.28125 
L 854.247187 67.28125 
Q 856.247187 67.28125 856.247187 65.28125 
L 856.247187 7 
Q 856.247187 5 854.247187 5 
L 739.034687 5 
Q 737.034687 5 737.034687 7 
L 737.034687 65.28125 
Q 737.034687 67.28125 739.034687 67.28125 
z
" style="fill: #ffffff; opacity: 0.5; stroke: #cccccc; stroke-linejoin: miter"/>
   </g>
   <g id="line2d_27">
    <path d="M 741.034687 13.098437 
L 751.034687 13.098437 
L 761.034687 13.098437 
" style="fill: none; stroke: #000000; stroke-opacity: 0.4; stroke-width: 6; stroke-linecap: round"/>
   </g>
   <g id="text_17">
    <!-- True Trajectory -->
    <g style="fill: #262626" transform="translate(769.034687 16.598437) scale(0.1 -0.1)">
     <defs>
      <path id="DejaVuSerif-6a" d="M 641 4353 
Q 641 4497 745 4603 
Q 850 4709 997 4709 
Q 1141 4709 1245 4603 
Q 1350 4497 1350 4353 
Q 1350 4206 1248 4103 
Q 1147 4000 997 4000 
Q 850 4000 745 4103 
Q 641 4206 641 4353 
z
M 781 2988 
L 238 2988 
L 238 3322 
L 1356 3322 
L 1356 -325 
Q 1356 -838 1051 -1130 
Q 747 -1422 213 -1422 
Q -13 -1422 -217 -1370 
Q -422 -1319 -616 -1216 
L -616 -531 
L -319 -531 
Q -297 -831 -164 -972 
Q -31 -1113 225 -1113 
Q 509 -1113 645 -920 
Q 781 -728 781 -325 
L 781 2988 
z
" transform="scale(0.015625)"/>
      <path id="DejaVuSerif-63" d="M 3291 997 
Q 3169 466 2822 187 
Q 2475 -91 1925 -91 
Q 1200 -91 759 389 
Q 319 869 319 1663 
Q 319 2459 759 2936 
Q 1200 3413 1925 3413 
Q 2241 3413 2553 3339 
Q 2866 3266 3181 3116 
L 3181 2266 
L 2847 2266 
Q 2781 2703 2561 2903 
Q 2341 3103 1931 3103 
Q 1466 3103 1228 2742 
Q 991 2381 991 1663 
Q 991 944 1227 581 
Q 1463 219 1931 219 
Q 2303 219 2525 412 
Q 2747 606 2828 997 
L 3291 997 
z
" transform="scale(0.015625)"/>
      <path id="DejaVuSerif-79" d="M 1381 -609 
L 1600 -56 
L 359 2988 
L -19 2988 
L -19 3322 
L 1509 3322 
L 1509 2988 
L 978 2988 
L 1913 703 
L 2847 2988 
L 2350 2988 
L 2350 3322 
L 3597 3322 
L 3597 2988 
L 3225 2988 
L 1703 -750 
Q 1547 -1138 1356 -1280 
Q 1166 -1422 819 -1422 
Q 672 -1422 517 -1397 
Q 363 -1372 206 -1325 
L 206 -691 
L 500 -691 
Q 519 -903 608 -995 
Q 697 -1088 884 -1088 
Q 1056 -1088 1161 -992 
Q 1266 -897 1381 -609 
z
" transform="scale(0.015625)"/>
     </defs>
     <use xlink:href="#DejaVuSerif-54"/>
     <use xlink:href="#DejaVuSerif-72" transform="translate(66.699219 0)"/>
     <use xlink:href="#DejaVuSerif-75" transform="translate(114.501953 0)"/>
     <use xlink:href="#DejaVuSerif-65" transform="translate(178.90625 0)"/>
     <use xlink:href="#DejaVuSerif-20" transform="translate(238.085938 0)"/>
     <use xlink:href="#DejaVuSerif-54" transform="translate(269.873047 0)"/>
     <use xlink:href="#DejaVuSerif-72" transform="translate(336.572266 0)"/>
     <use xlink:href="#DejaVuSerif-61" transform="translate(384.375 0)"/>
     <use xlink:href="#DejaVuSerif-6a" transform="translate(443.994141 0)"/>
     <use xlink:href="#DejaVuSerif-65" transform="translate(475 0)"/>
     <use xlink:href="#DejaVuSerif-63" transform="translate(534.179688 0)"/>
     <use xlink:href="#DejaVuSerif-74" transform="translate(590.185547 0)"/>
     <use xlink:href="#DejaVuSerif-6f" transform="translate(630.371094 0)"/>
     <use xlink:href="#DejaVuSerif-72" transform="translate(690.576172 0)"/>
     <use xlink:href="#DejaVuSerif-79" transform="translate(738.378906 0)"/>
    </g>
   </g>
   <g id="line2d_28">
    <path d="M 741.034687 27.91875 
L 751.034687 27.91875 
L 761.034687 27.91875 
" style="fill: none; stroke-dasharray: 12.95,5.6; stroke-dashoffset: 0; stroke: #ff0000; stroke-opacity: 0.8; stroke-width: 3.5"/>
   </g>
   <g id="text_18">
    <!-- AutoSINDy -->
    <g style="fill: #262626" transform="translate(769.034687 31.41875) scale(0.1 -0.1)">
     <defs>
      <path id="DejaVuSerif-41" d="M 1281 1691 
L 2994 1691 
L 2138 3909 
L 1281 1691 
z
M -38 0 
L -38 331 
L 372 331 
L 2034 4666 
L 2559 4666 
L 4225 331 
L 4684 331 
L 4684 0 
L 2988 0 
L 2988 331 
L 3506 331 
L 3116 1356 
L 1153 1356 
L 763 331 
L 1275 331 
L 1275 0 
L -38 0 
z
" transform="scale(0.015625)"/>
      <path id="DejaVuSerif-49" d="M 1581 331 
L 2175 331 
L 2175 0 
L 353 0 
L 353 331 
L 947 331 
L 947 4331 
L 353 4331 
L 353 4666 
L 2175 4666 
L 2175 4331 
L 1581 4331 
L 1581 331 
z
" transform="scale(0.015625)"/>
      <path id="DejaVuSerif-4e" d="M 313 0 
L 313 331 
L 941 331 
L 941 4331 
L 313 4331 
L 313 4666 
L 1509 4666 
L 4306 984 
L 4306 4331 
L 3681 4331 
L 3681 4666 
L 5319 4666 
L 5319 4331 
L 4691 4331 
L 4691 -91 
L 4313 -91 
L 1325 3841 
L 1325 331 
L 1953 331 
L 1953 0 
L 313 0 
z
" transform="scale(0.015625)"/>
      <path id="DejaVuSerif-44" d="M 1581 331 
L 2163 331 
Q 3072 331 3558 850 
Q 4044 1369 4044 2338 
Q 4044 3306 3559 3818 
Q 3075 4331 2163 4331 
L 1581 4331 
L 1581 331 
z
M 353 0 
L 353 331 
L 947 331 
L 947 4331 
L 353 4331 
L 353 4666 
L 2209 4666 
Q 3416 4666 4089 4050 
Q 4763 3434 4763 2338 
Q 4763 1238 4088 619 
Q 3413 0 2209 0 
L 353 0 
z
" transform="scale(0.015625)"/>
     </defs>
     <use xlink:href="#DejaVuSerif-41"/>
     <use xlink:href="#DejaVuSerif-75" transform="translate(72.216797 0)"/>
     <use xlink:href="#DejaVuSerif-74" transform="translate(136.621094 0)"/>
     <use xlink:href="#DejaVuSerif-6f" transform="translate(176.806641 0)"/>
     <use xlink:href="#DejaVuSerif-53" transform="translate(237.011719 0)"/>
     <use xlink:href="#DejaVuSerif-49" transform="translate(305.517578 0)"/>
     <use xlink:href="#DejaVuSerif-4e" transform="translate(345.019531 0)"/>
     <use xlink:href="#DejaVuSerif-44" transform="translate(432.519531 0)"/>
     <use xlink:href="#DejaVuSerif-79" transform="translate(512.695312 0)"/>
    </g>
   </g>
   <g id="line2d_29">
    <path d="M 741.034687 42.739062 
L 751.034687 42.739062 
L 761.034687 42.739062 
" style="fill: none; stroke-dasharray: 3.5,5.775; stroke-dashoffset: 0; stroke: #008000; stroke-opacity: 0.8; stroke-width: 3.5"/>
   </g>
   <g id="text_19">
    <!-- Standard SINDy -->
    <g style="fill: #262626" transform="translate(769.034687 46.239062) scale(0.1 -0.1)">
     <defs>
      <path id="DejaVuSerif-64" d="M 3359 331 
L 3909 331 
L 3909 0 
L 2784 0 
L 2784 519 
Q 2616 206 2355 57 
Q 2094 -91 1709 -91 
Q 1097 -91 708 395 
Q 319 881 319 1663 
Q 319 2444 706 2928 
Q 1094 3413 1709 3413 
Q 2094 3413 2355 3264 
Q 2616 3116 2784 2803 
L 2784 4531 
L 2241 4531 
L 2241 4863 
L 3359 4863 
L 3359 331 
z
M 2784 1497 
L 2784 1825 
Q 2784 2422 2554 2737 
Q 2325 3053 1888 3053 
Q 1444 3053 1217 2703 
Q 991 2353 991 1663 
Q 991 975 1217 622 
Q 1444 269 1888 269 
Q 2325 269 2554 583 
Q 2784 897 2784 1497 
z
" transform="scale(0.015625)"/>
     </defs>
     <use xlink:href="#DejaVuSerif-53"/>
     <use xlink:href="#DejaVuSerif-74" transform="translate(68.505859 0)"/>
     <use xlink:href="#DejaVuSerif-61" transform="translate(108.691406 0)"/>
     <use xlink:href="#DejaVuSerif-6e" transform="translate(168.310547 0)"/>
     <use xlink:href="#DejaVuSerif-64" transform="translate(232.714844 0)"/>
     <use xlink:href="#DejaVuSerif-61" transform="translate(296.728516 0)"/>
     <use xlink:href="#DejaVuSerif-72" transform="translate(356.347656 0)"/>
     <use xlink:href="#DejaVuSerif-64" transform="translate(404.150391 0)"/>
     <use xlink:href="#DejaVuSerif-20" transform="translate(468.164062 0)"/>
     <use xlink:href="#DejaVuSerif-53" transform="translate(499.951172 0)"/>
     <use xlink:href="#DejaVuSerif-49" transform="translate(568.457031 0)"/>
     <use xlink:href="#DejaVuSerif-4e" transform="translate(607.958984 0)"/>
     <use xlink:href="#DejaVuSerif-44" transform="translate(695.458984 0)"/>
     <use xlink:href="#DejaVuSerif-79" transform="translate(775.634766 0)"/>
    </g>
   </g>
   <g id="line2d_30">
    <path d="M 741.034687 57.559375 
L 751.034687 57.559375 
L 761.034687 57.559375 
" style="fill: none; stroke-dasharray: 22.4,5.6,3.5,5.6; stroke-dashoffset: 0; stroke: #0000ff; stroke-opacity: 0.8; stroke-width: 3.5"/>
   </g>
   <g id="text_20">
    <!-- Standard PySR -->
    <g style="fill: #262626" transform="translate(769.034687 61.059375) scale(0.1 -0.1)">
     <defs>
      <path id="DejaVuSerif-50" d="M 1581 2375 
L 2406 2375 
Q 2872 2375 3115 2626 
Q 3359 2878 3359 3353 
Q 3359 3831 3115 4081 
Q 2872 4331 2406 4331 
L 1581 4331 
L 1581 2375 
z
M 353 0 
L 353 331 
L 947 331 
L 947 4331 
L 353 4331 
L 353 4666 
L 2559 4666 
Q 3259 4666 3668 4311 
Q 4078 3956 4078 3353 
Q 4078 2753 3668 2397 
Q 3259 2041 2559 2041 
L 1581 2041 
L 1581 331 
L 2303 331 
L 2303 0 
L 353 0 
z
" transform="scale(0.015625)"/>
      <path id="DejaVuSerif-52" d="M 3066 2316 
Q 3284 2256 3442 2114 
Q 3600 1972 3725 1716 
L 4403 331 
L 4972 331 
L 4972 0 
L 3872 0 
L 3144 1484 
Q 2934 1916 2759 2042 
Q 2584 2169 2278 2169 
L 1581 2169 
L 1581 331 
L 2241 331 
L 2241 0 
L 353 0 
L 353 331 
L 947 331 
L 947 4331 
L 353 4331 
L 353 4666 
L 2719 4666 
Q 3400 4666 3770 4341 
Q 4141 4016 4141 3419 
Q 4141 2938 3870 2661 
Q 3600 2384 3066 2316 
z
M 1581 2503 
L 2503 2503 
Q 2975 2503 3200 2726 
Q 3425 2950 3425 3419 
Q 3425 3888 3200 4109 
Q 2975 4331 2503 4331 
L 1581 4331 
L 1581 2503 
z
" transform="scale(0.015625)"/>
     </defs>
     <use xlink:href="#DejaVuSerif-53"/>
     <use xlink:href="#DejaVuSerif-74" transform="translate(68.505859 0)"/>
     <use xlink:href="#DejaVuSerif-61" transform="translate(108.691406 0)"/>
     <use xlink:href="#DejaVuSerif-6e" transform="translate(168.310547 0)"/>
     <use xlink:href="#DejaVuSerif-64" transform="translate(232.714844 0)"/>
     <use xlink:href="#DejaVuSerif-61" transform="translate(296.728516 0)"/>
     <use xlink:href="#DejaVuSerif-72" transform="translate(356.347656 0)"/>
     <use xlink:href="#DejaVuSerif-64" transform="translate(404.150391 0)"/>
     <use xlink:href="#DejaVuSerif-20" transform="translate(468.164062 0)"/>
     <use xlink:href="#DejaVuSerif-50" transform="translate(499.951172 0)"/>
     <use xlink:href="#DejaVuSerif-79" transform="translate(567.236328 0)"/>
     <use xlink:href="#DejaVuSerif-53" transform="translate(623.730469 0)"/>
     <use xlink:href="#DejaVuSerif-52" transform="translate(692.236328 0)"/>
    </g>
   </g>
  </g>
 </g>
 <defs>
  <clipPath id="p99b4ca646e">
   <rect x="44.555937" y="41.62375" width="802.61125" height="95.636469"/>
  </clipPath>
  <clipPath id="p1003db1415">
   <rect x="44.555937" y="149.734781" width="802.61125" height="95.636469"/>
  </clipPath>
 </defs>
</svg>
