<?xml version="1.0" encoding="utf-8" standalone="no"?>
<!DOCTYPE svg PUBLIC "-//W3C//DTD SVG 1.1//EN"
  "http://www.w3.org/Graphics/SVG/1.1/DTD/svg11.dtd">
<svg xmlns:xlink="http://www.w3.org/1999/xlink" width="568.410312pt" height="567.994375pt" viewBox="0 0 568.410312 567.994375" xmlns="http://www.w3.org/2000/svg" version="1.1">
 <metadata>
  <rdf:RDF xmlns:dc="http://purl.org/dc/elements/1.1/" xmlns:cc="http://creativecommons.org/ns#" xmlns:rdf="http://www.w3.org/1999/02/22-rdf-syntax-ns#">
   <cc:Work>
    <dc:type rdf:resource="http://purl.org/dc/dcmitype/StillImage"/>
    <dc:date>2026-04-06T03:14:19.807814</dc:date>
    <dc:format>image/svg+xml</dc:format>
    <dc:creator>
     <cc:Agent>
      <dc:title>Matplotlib v3.10.7, https://matplotlib.org/</dc:title>
     </cc:Agent>
    </dc:creator>
   </cc:Work>
  </rdf:RDF>
 </metadata>
 <defs>
  <style type="text/css">*{stroke-linejoin: round; stroke-linecap: butt}</style>
 </defs>
 <g id="figure_1">
  <g id="patch_1">
   <path d="M 0 567.994375 
L 568.410312 567.994375 
L 568.410312 0 
L 0 0 
z
" style="fill: #ffffff"/>
  </g>
  <g id="axes_1">
   <g id="patch_2">
    <path d="M 42.620313 530.438125 
L 561.210312 530.438125 
L 561.210312 22.318125 
L 42.620313 22.318125 
z
" style="fill: #ffffff"/>
   </g>
   <g id="matplotlib.axis_1">
    <g id="xtick_1">
     <g id="line2d_1">
      <defs>
       <path id="mee68885e3b" d="M 0 0 
L 0 3.5 
" style="stroke: #000000; stroke-width: 0.8"/>
      </defs>
      <g>
       <use xlink:href="#mee68885e3b" x="91.576382" y="530.438125" style="stroke: #000000; stroke-width: 0.8"/>
      </g>
     </g>
     <g id="text_1">
      <!-- −3 -->
      <g transform="translate(84.205288 545.036562) scale(0.1 -0.1)">
       <defs>
        <path id="DejaVuSans-2212" d="M 678 2272 
L 4684 2272 
L 4684 1741 
L 678 1741 
L 678 2272 
z
" transform="scale(0.015625)"/>
        <path id="DejaVuSans-33" d="M 2597 2516 
Q 3050 2419 3304 2112 
Q 3559 1806 3559 1356 
Q 3559 666 3084 287 
Q 2609 -91 1734 -91 
Q 1441 -91 1130 -33 
Q 819 25 488 141 
L 488 750 
Q 750 597 1062 519 
Q 1375 441 1716 441 
Q 2309 441 2620 675 
Q 2931 909 2931 1356 
Q 2931 1769 2642 2001 
Q 2353 2234 1838 2234 
L 1294 2234 
L 1294 2753 
L 1863 2753 
Q 2328 2753 2575 2939 
Q 2822 3125 2822 3475 
Q 2822 3834 2567 4026 
Q 2313 4219 1838 4219 
Q 1578 4219 1281 4162 
Q 984 4106 628 3988 
L 628 4550 
Q 988 4650 1302 4700 
Q 1616 4750 1894 4750 
Q 2613 4750 3031 4423 
Q 3450 4097 3450 3541 
Q 3450 3153 3228 2886 
Q 3006 2619 2597 2516 
z
" transform="scale(0.015625)"/>
       </defs>
       <use xlink:href="#DejaVuSans-2212"/>
       <use xlink:href="#DejaVuSans-33" transform="translate(83.789062 0)"/>
      </g>
     </g>
    </g>
    <g id="xtick_2">
     <g id="line2d_2">
      <g>
       <use xlink:href="#mee68885e3b" x="166.683412" y="530.438125" style="stroke: #000000; stroke-width: 0.8"/>
      </g>
     </g>
     <g id="text_2">
      <!-- −2 -->
      <g transform="translate(159.312319 545.036562) scale(0.1 -0.1)">
       <defs>
        <path id="DejaVuSans-32" d="M 1228 531 
L 3431 531 
L 3431 0 
L 469 0 
L 469 531 
Q 828 903 1448 1529 
Q 2069 2156 2228 2338 
Q 2531 2678 2651 2914 
Q 2772 3150 2772 3378 
Q 2772 3750 2511 3984 
Q 2250 4219 1831 4219 
Q 1534 4219 1204 4116 
Q 875 4013 500 3803 
L 500 4441 
Q 881 4594 1212 4672 
Q 1544 4750 1819 4750 
Q 2544 4750 2975 4387 
Q 3406 4025 3406 3419 
Q 3406 3131 3298 2873 
Q 3191 2616 2906 2266 
Q 2828 2175 2409 1742 
Q 1991 1309 1228 531 
z
" transform="scale(0.015625)"/>
       </defs>
       <use xlink:href="#DejaVuSans-2212"/>
       <use xlink:href="#DejaVuSans-32" transform="translate(83.789062 0)"/>
      </g>
     </g>
    </g>
    <g id="xtick_3">
     <g id="line2d_3">
      <g>
       <use xlink:href="#mee68885e3b" x="241.790443" y="530.438125" style="stroke: #000000; stroke-width: 0.8"/>
      </g>
     </g>
     <g id="text_3">
      <!-- −1 -->
      <g transform="translate(234.419349 545.036562) scale(0.1 -0.1)">
       <defs>
        <path id="DejaVuSans-31" d="M 794 531 
L 1825 531 
L 1825 4091 
L 703 3866 
L 703 4441 
L 1819 4666 
L 2450 4666 
L 2450 531 
L 3481 531 
L 3481 0 
L 794 0 
L 794 531 
z
" transform="scale(0.015625)"/>
       </defs>
       <use xlink:href="#DejaVuSans-2212"/>
       <use xlink:href="#DejaVuSans-31" transform="translate(83.789062 0)"/>
      </g>
     </g>
    </g>
    <g id="xtick_4">
     <g id="line2d_4">
      <g>
       <use xlink:href="#mee68885e3b" x="316.897473" y="530.438125" style="stroke: #000000; stroke-width: 0.8"/>
      </g>
     </g>
     <g id="text_4">
      <!-- 0 -->
      <g transform="translate(313.716223 545.036562) scale(0.1 -0.1)">
       <defs>
        <path id="DejaVuSans-30" d="M 2034 4250 
Q 1547 4250 1301 3770 
Q 1056 3291 1056 2328 
Q 1056 1369 1301 889 
Q 1547 409 2034 409 
Q 2525 409 2770 889 
Q 3016 1369 3016 2328 
Q 3016 3291 2770 3770 
Q 2525 4250 2034 4250 
z
M 2034 4750 
Q 2819 4750 3233 4129 
Q 3647 3509 3647 2328 
Q 3647 1150 3233 529 
Q 2819 -91 2034 -91 
Q 1250 -91 836 529 
Q 422 1150 422 2328 
Q 422 3509 836 4129 
Q 1250 4750 2034 4750 
z
" transform="scale(0.015625)"/>
       </defs>
       <use xlink:href="#DejaVuSans-30"/>
      </g>
     </g>
    </g>
    <g id="xtick_5">
     <g id="line2d_5">
      <g>
       <use xlink:href="#mee68885e3b" x="392.004503" y="530.438125" style="stroke: #000000; stroke-width: 0.8"/>
      </g>
     </g>
     <g id="text_5">
      <!-- 1 -->
      <g transform="translate(388.823253 545.036562) scale(0.1 -0.1)">
       <use xlink:href="#DejaVuSans-31"/>
      </g>
     </g>
    </g>
    <g id="xtick_6">
     <g id="line2d_6">
      <g>
       <use xlink:href="#mee68885e3b" x="467.111533" y="530.438125" style="stroke: #000000; stroke-width: 0.8"/>
      </g>
     </g>
     <g id="text_6">
      <!-- 2 -->
      <g transform="translate(463.930283 545.036562) scale(0.1 -0.1)">
       <use xlink:href="#DejaVuSans-32"/>
      </g>
     </g>
    </g>
    <g id="xtick_7">
     <g id="line2d_7">
      <g>
       <use xlink:href="#mee68885e3b" x="542.218564" y="530.438125" style="stroke: #000000; stroke-width: 0.8"/>
      </g>
     </g>
     <g id="text_7">
      <!-- 3 -->
      <g transform="translate(539.037314 545.036562) scale(0.1 -0.1)">
       <use xlink:href="#DejaVuSans-33"/>
      </g>
     </g>
    </g>
    <g id="text_8">
     <!-- x0 -->
     <g transform="translate(295.774687 558.714687) scale(0.1 -0.1)">
      <defs>
       <path id="DejaVuSans-78" d="M 3513 3500 
L 2247 1797 
L 3578 0 
L 2900 0 
L 1881 1375 
L 863 0 
L 184 0 
L 1544 1831 
L 300 3500 
L 978 3500 
L 1906 2253 
L 2834 3500 
L 3513 3500 
z
" transform="scale(0.015625)"/>
      </defs>
      <use xlink:href="#DejaVuSans-78"/>
      <use xlink:href="#DejaVuSans-30" transform="translate(59.179688 0)"/>
     </g>
    </g>
   </g>
   <g id="matplotlib.axis_2">
    <g id="ytick_1">
     <g id="line2d_8">
      <defs>
       <path id="m74f46ab96b" d="M 0 0 
L -3.5 0 
" style="stroke: #000000; stroke-width: 0.8"/>
      </defs>
      <g>
       <use xlink:href="#m74f46ab96b" x="42.620313" y="481.417525" style="stroke: #000000; stroke-width: 0.8"/>
      </g>
     </g>
     <g id="text_9">
      <!-- −4 -->
      <g transform="translate(20.878125 485.216744) scale(0.1 -0.1)">
       <defs>
        <path id="DejaVuSans-34" d="M 2419 4116 
L 825 1625 
L 2419 1625 
L 2419 4116 
z
M 2253 4666 
L 3047 4666 
L 3047 1625 
L 3713 1625 
L 3713 1100 
L 3047 1100 
L 3047 0 
L 2419 0 
L 2419 1100 
L 313 1100 
L 313 1709 
L 2253 4666 
z
" transform="scale(0.015625)"/>
       </defs>
       <use xlink:href="#DejaVuSans-2212"/>
       <use xlink:href="#DejaVuSans-34" transform="translate(83.789062 0)"/>
      </g>
     </g>
    </g>
    <g id="ytick_2">
     <g id="line2d_9">
      <g>
       <use xlink:href="#m74f46ab96b" x="42.620313" y="378.903001" style="stroke: #000000; stroke-width: 0.8"/>
      </g>
     </g>
     <g id="text_10">
      <!-- −2 -->
      <g transform="translate(20.878125 382.70222) scale(0.1 -0.1)">
       <use xlink:href="#DejaVuSans-2212"/>
       <use xlink:href="#DejaVuSans-32" transform="translate(83.789062 0)"/>
      </g>
     </g>
    </g>
    <g id="ytick_3">
     <g id="line2d_10">
      <g>
       <use xlink:href="#m74f46ab96b" x="42.620313" y="276.388478" style="stroke: #000000; stroke-width: 0.8"/>
      </g>
     </g>
     <g id="text_11">
      <!-- 0 -->
      <g transform="translate(29.257813 280.187696) scale(0.1 -0.1)">
       <use xlink:href="#DejaVuSans-30"/>
      </g>
     </g>
    </g>
    <g id="ytick_4">
     <g id="line2d_11">
      <g>
       <use xlink:href="#m74f46ab96b" x="42.620313" y="173.873954" style="stroke: #000000; stroke-width: 0.8"/>
      </g>
     </g>
     <g id="text_12">
      <!-- 2 -->
      <g transform="translate(29.257813 177.673173) scale(0.1 -0.1)">
       <use xlink:href="#DejaVuSans-32"/>
      </g>
     </g>
    </g>
    <g id="ytick_5">
     <g id="line2d_12">
      <g>
       <use xlink:href="#m74f46ab96b" x="42.620313" y="71.35943" style="stroke: #000000; stroke-width: 0.8"/>
      </g>
     </g>
     <g id="text_13">
      <!-- 4 -->
      <g transform="translate(29.257813 75.158649) scale(0.1 -0.1)">
       <use xlink:href="#DejaVuSans-34"/>
      </g>
     </g>
    </g>
    <g id="text_14">
     <!-- x1 -->
     <g transform="translate(14.798438 282.51875) rotate(-90) scale(0.1 -0.1)">
      <use xlink:href="#DejaVuSans-78"/>
      <use xlink:href="#DejaVuSans-31" transform="translate(59.179688 0)"/>
     </g>
    </g>
   </g>
   <g id="line2d_13">
    <path d="M 515.299652 266.137025 
L 515.755197 271.109113 
L 515.921551 275.994562 
L 515.803399 280.829247 
L 515.402158 285.647253 
L 514.71725 290.48194 
L 513.746447 295.366251 
L 512.485871 300.332707 
L 510.929989 305.41341 
L 509.07162 310.640042 
L 506.901983 316.043632 
L 504.412253 321.645732 
L 501.587839 327.478336 
L 498.411716 333.574651 
L 494.866747 339.960312 
L 490.935673 346.653393 
L 486.601124 353.6644 
L 481.845611 360.996272 
L 476.651531 368.644383 
L 471.001164 376.596542 
L 464.876673 384.832991 
L 458.260176 393.328756 
L 451.135801 402.076496 
L 443.491859 410.967055 
L 435.324385 419.857849 
L 431.045424 424.258475 
L 426.63797 428.605192 
L 422.103937 432.879868 
L 417.445769 437.064302 
L 412.666449 441.140223 
L 407.769493 445.089294 
L 402.758953 448.893106 
L 397.639414 452.533185 
L 392.415999 455.990984 
L 387.094363 459.247892 
L 381.680698 462.285225 
L 376.181729 465.084234 
L 370.604719 467.626097 
L 364.957463 469.891928 
L 359.248292 471.862769 
L 353.486073 473.519594 
L 347.680206 474.843309 
L 341.840627 475.81475 
L 335.977808 476.414687 
L 330.102754 476.623817 
L 324.227005 476.422773 
L 318.362639 475.792115 
L 312.522317 474.71452 
L 306.71994 473.22815 
L 300.967708 471.362073 
L 295.276682 469.128468 
L 289.65739 466.540572 
L 284.119828 463.61268 
L 278.673456 460.360148 
L 273.327202 456.799389 
L 268.089461 452.947876 
L 262.968094 448.824142 
L 257.970428 444.447775 
L 253.103259 439.839426 
L 248.372847 435.020802 
L 243.78492 430.014671 
L 239.344671 424.844859 
L 235.056762 419.53625 
L 230.925321 414.114789 
L 226.95394 408.607477 
L 223.145682 403.042376 
L 219.503073 397.448607 
L 216.028107 391.856346 
L 212.720086 386.26686 
L 209.577074 380.667975 
L 206.598634 375.068218 
L 203.784268 369.47537 
L 201.133414 363.896464 
L 198.645449 358.337788 
L 196.319688 352.804883 
L 194.155383 347.302541 
L 192.151726 341.834811 
L 190.307842 336.404993 
L 188.6228 331.015642 
L 187.095601 325.668563 
L 185.725188 320.364818 
L 184.51044 315.104721 
L 183.450173 309.887839 
L 182.543143 304.712992 
L 181.788043 299.578256 
L 181.183502 294.480956 
L 180.728089 289.417674 
L 180.420309 284.384244 
L 180.258552 279.38144 
L 180.241954 274.415513 
L 180.370497 269.480106 
L 180.644122 264.569149 
L 181.062717 259.677341 
L 181.626115 254.800147 
L 182.334093 249.933802 
L 183.186375 245.075309 
L 184.182627 240.222437 
L 185.322462 235.373726 
L 186.605437 230.528483 
L 188.031055 225.686783 
L 189.598762 220.849469 
L 191.307951 216.018153 
L 193.157959 211.195214 
L 195.148068 206.383799 
L 197.277505 201.587826 
L 199.545442 196.811976 
L 201.950995 192.061704 
L 204.493227 187.343229 
L 207.171144 182.663539 
L 209.983698 178.030391 
L 212.929785 173.45231 
L 216.008247 168.938589 
L 219.21787 164.499288 
L 222.557386 160.145238 
L 226.025471 155.888034 
L 229.620746 151.740044 
L 233.340726 147.708623 
L 237.179172 143.795218 
L 241.130859 140.021919 
L 245.190426 136.41073 
L 249.352213 132.982241 
L 253.610262 129.755628 
L 257.95832 126.748651 
L 262.389835 123.977657 
L 266.897959 121.457578 
L 271.475545 119.201932 
L 276.115151 117.222822 
L 280.809037 115.530936 
L 285.549165 114.13555 
L 290.327201 113.044521 
L 295.134512 112.264296 
L 299.96217 111.799906 
L 304.800949 111.654966 
L 309.641325 111.83168 
L 314.473477 112.330833 
L 319.287288 113.1518 
L 324.072343 114.292538 
L 328.817929 115.749591 
L 333.513037 117.51809 
L 338.148496 119.58751 
L 342.718486 121.940884 
L 347.214838 124.567264 
L 351.629694 127.455489 
L 355.955591 130.594022 
L 360.185458 133.970943 
L 364.31262 137.573955 
L 368.330791 141.390381 
L 372.23408 145.407164 
L 376.016991 149.610867 
L 379.674417 153.987675 
L 383.201648 158.523393 
L 386.594365 163.203446 
L 389.848643 168.01288 
L 392.960949 172.936362 
L 395.928144 177.958177 
L 398.747482 183.062234 
L 401.41661 188.232061 
L 403.933568 193.450805 
L 406.29679 198.701236 
L 408.505101 203.965744 
L 410.557722 209.226339 
L 412.454264 214.46465 
L 414.196048 219.685892 
L 415.784612 224.908988 
L 417.219943 230.131063 
L 418.502095 235.349282 
L 419.631197 240.560881 
L 420.607451 245.763164 
L 421.431132 250.953508 
L 422.102588 256.129358 
L 422.622242 261.288231 
L 422.990587 266.427711 
L 423.208193 271.545457 
L 423.2757 276.639194 
L 423.193822 281.70672 
L 422.963349 286.7459 
L 422.58514 291.754673 
L 422.060131 296.731045 
L 421.389328 301.673094 
L 420.573812 306.578968 
L 419.614737 311.446884 
L 418.513332 316.275132 
L 417.270895 321.062067 
L 415.888801 325.80612 
L 414.368519 330.506559 
L 412.711631 335.167261 
L 410.919359 339.780914 
L 408.9931 344.337592 
L 406.934533 348.827453 
L 404.745621 353.240748 
L 402.428604 357.567814 
L 399.986009 361.799075 
L 397.420643 365.925045 
L 394.735594 369.936326 
L 391.934234 373.823608 
L 389.020216 377.577669 
L 385.997475 381.189375 
L 382.870227 384.649681 
L 379.642971 387.949629 
L 376.32049 391.080351 
L 372.907845 394.033066 
L 369.410381 396.799082 
L 365.833726 399.369793 
L 362.183789 401.736684 
L 358.46676 403.891328 
L 354.689112 405.825383 
L 350.8576 407.5306 
L 346.979262 408.998814 
L 343.061415 410.221951 
L 339.111661 411.192024 
L 335.137883 411.901134 
L 331.148245 412.341471 
L 327.151195 412.505312 
L 323.154818 412.388453 
L 319.16522 412.001537 
L 315.190668 411.347601 
L 311.23946 410.429144 
L 307.319624 409.249531 
L 303.438915 407.812994 
L 299.604821 406.124629 
L 295.824555 404.190398 
L 292.105062 402.017129 
L 288.453016 399.612517 
L 284.874818 396.985121 
L 281.376602 394.144367 
L 277.964228 391.100547 
L 274.643285 387.864817 
L 271.419094 384.4492 
L 268.296704 380.866586 
L 265.280891 377.130728 
L 262.376164 373.256248 
L 259.586758 369.25863 
L 256.916639 365.154228 
L 254.369501 360.960259 
L 251.948312 356.690959 
L 249.653727 352.342517 
L 247.487655 347.921415 
L 245.452076 343.435921 
L 243.548777 338.894007 
L 241.779356 334.303344 
L 240.145218 329.671304 
L 238.647578 325.004958 
L 237.287459 320.31108 
L 236.065693 315.596144 
L 234.982922 310.866324 
L 234.039594 306.127495 
L 233.23597 301.385232 
L 232.572115 296.644811 
L 232.047908 291.911208 
L 231.663031 287.189103 
L 231.41698 282.482871 
L 231.309058 277.796591 
L 231.338375 273.134043 
L 231.503852 268.498706 
L 231.804218 263.893761 
L 232.237986 259.321423 
L 232.804031 254.783404 
L 233.50175 250.284479 
L 234.330346 245.829733 
L 235.288807 241.424391 
L 236.375901 237.073814 
L 237.590182 232.783505 
L 238.929984 228.559101 
L 240.393425 224.406382 
L 241.978405 220.331261 
L 243.682606 216.339794 
L 245.503496 212.438173 
L 247.43832 208.632729 
L 249.484111 204.92993 
L 251.637682 201.336383 
L 253.895628 197.858836 
L 256.25433 194.50417 
L 258.709947 191.279409 
L 261.258424 188.191714 
L 263.895487 185.248382 
L 266.616647 182.456852 
L 269.417194 179.824698 
L 272.292204 177.359634 
L 275.236534 175.069513 
L 278.244823 172.962325 
L 281.311495 171.046198 
L 284.430817 169.329179 
L 287.598242 167.813625 
L 290.807752 166.503989 
L 294.052574 165.406233 
L 297.325989 164.525361 
L 300.62133 163.865421 
L 303.931983 163.429502 
L 307.251385 163.219739 
L 310.573027 163.23731 
L 313.89045 163.482435 
L 317.19725 163.954378 
L 320.487075 164.651446 
L 323.753624 165.570991 
L 326.990648 166.709405 
L 330.191953 168.062126 
L 333.351395 169.623635 
L 336.462884 171.387455 
L 339.520381 173.346154 
L 342.517899 175.491342 
L 345.449507 177.813673 
L 348.309321 180.302844 
L 351.092538 182.950567 
L 353.796047 185.752607 
L 356.415399 188.700237 
L 358.946349 191.784665 
L 361.384911 194.997198 
L 363.727355 198.329234 
L 365.97021 201.772267 
L 368.110265 205.317884 
L 370.144565 208.957768 
L 372.070413 212.683694 
L 373.885372 216.487533 
L 375.58726 220.36125 
L 377.174158 224.296905 
L 378.644399 228.28665 
L 379.996579 232.322733 
L 381.229551 236.397496 
L 382.342423 240.503376 
L 383.334566 244.632903 
L 384.205606 248.778701 
L 384.955607 252.934266 
L 385.585155 257.097113 
L 386.093738 261.262907 
L 386.480891 265.426867 
L 386.746341 269.584165 
L 386.890005 273.729925 
L 386.911996 277.85923 
L 386.812616 281.967114 
L 386.592361 286.048567 
L 386.251917 290.098535 
L 385.792165 294.111916 
L 385.214175 298.083565 
L 384.519211 302.008289 
L 383.708728 305.880853 
L 382.784375 309.695972 
L 381.747991 313.448321 
L 380.601607 317.132525 
L 379.347448 320.743166 
L 377.98793 324.27478 
L 376.525661 327.721859 
L 374.963441 331.078846 
L 373.304262 334.340143 
L 371.551308 337.500103 
L 369.707956 340.553036 
L 367.777775 343.493206 
L 365.764525 346.31483 
L 363.670882 349.014634 
L 361.499396 351.588152 
L 359.254366 354.02701 
L 356.940184 356.323424 
L 354.561331 358.47021 
L 352.122372 360.460786 
L 349.627963 362.289171 
L 347.082845 363.949988 
L 344.491848 365.438457 
L 341.859888 366.750404 
L 339.191969 367.882255 
L 336.493183 368.831035 
L 333.768708 369.594374 
L 331.023811 370.170502 
L 328.263845 370.558251 
L 325.494251 370.757054 
L 322.720557 370.766946 
L 319.948379 370.588563 
L 317.183421 370.223142 
L 314.431472 369.672524 
L 311.698411 368.939149 
L 308.990202 368.026058 
L 306.312899 366.936897 
L 303.671658 365.675679 
L 301.06916 364.246288 
L 298.510463 362.653431 
L 296.000629 360.902086 
L 293.544499 358.997449 
L 291.146691 356.944937 
L 288.811604 354.750188 
L 286.543416 352.419056 
L 284.346083 349.957619 
L 282.223341 347.372171 
L 280.178704 344.669229 
L 278.215466 341.855528 
L 276.336697 338.938022 
L 274.545251 335.923886 
L 272.843757 332.820515 
L 271.234624 329.635524 
L 269.72004 326.376745 
L 268.301974 323.052233 
L 265.762153 316.239322 
L 263.626478 309.265617 
L 261.901737 302.188118 
L 260.592144 295.028616 
L 259.703235 287.829295 
L 259.237753 280.633124 
L 259.195498 273.48255 
L 259.573331 266.419495 
L 260.365167 259.485353 
L 261.561982 252.720995 
L 263.15181 246.166768 
L 265.119742 239.862491 
L 267.447928 233.84746 
L 270.116141 228.159474 
L 271.572526 225.447848 
L 273.107034 222.832087 
L 274.716649 220.318383 
L 276.398239 217.912597 
L 278.148555 215.620267 
L 279.964234 213.4466 
L 281.841796 211.396478 
L 283.777646 209.474453 
L 285.768072 207.684752 
L 287.809247 206.031272 
L 289.897228 204.517584 
L 292.027955 203.146932 
L 294.197254 201.92223 
L 296.400833 200.846067 
L 298.634286 199.920703 
L 300.893091 199.148072 
L 303.172608 198.529779 
L 305.468084 198.067101 
L 307.774647 197.760989 
L 310.087313 197.612066 
L 312.401169 197.62049 
L 314.713161 197.784639 
L 317.018766 198.103481 
L 319.313006 198.57602 
L 321.591052 199.200883 
L 323.848215 199.97632 
L 326.07995 200.900208 
L 328.281857 201.970047 
L 330.449678 203.182963 
L 332.579299 204.535705 
L 334.666751 206.024648 
L 336.708206 207.64579 
L 338.699981 209.394755 
L 340.638537 211.266791 
L 342.520478 213.25677 
L 344.342551 215.35919 
L 346.101647 217.568171 
L 349.419191 222.280431 
L 352.451111 227.339014 
L 355.177704 232.683378 
L 357.58236 238.254789 
L 359.654118 244.02856 
L 361.382025 249.962901 
L 362.757449 256.013539 
L 363.774506 262.137365 
L 364.430051 268.292441 
L 364.723688 274.437998 
L 364.657765 280.534432 
L 364.491452 283.552173 
L 364.491452 283.552173 
" clip-path="url(#p0f4deb6c77)" style="fill: none; stroke: #000000; stroke-opacity: 0.3; stroke-width: 7; stroke-linecap: square"/>
   </g>
   <g id="line2d_14">
    <path d="M 515.299652 266.137025 
L 515.487198 273.960335 
L 515.443478 281.786346 
L 515.168851 289.605782 
L 514.67566 297.410265 
L 513.976249 305.191415 
L 513.084491 312.941031 
L 512.021421 320.652033 
L 510.800456 328.318017 
L 509.411598 335.932674 
L 507.794936 343.488406 
L 505.83416 350.974095 
L 503.432789 358.374076 
L 497.866952 372.857865 
L 495.143317 379.936112 
L 492.068964 386.901946 
L 485.064201 400.429669 
L 481.393999 406.98684 
L 473.365656 419.632679 
L 464.583022 431.616989 
L 455.133948 442.883538 
L 445.042323 453.380011 
L 434.313265 463.057399 
L 428.741498 467.573096 
L 423.028821 471.870567 
L 417.310798 475.939264 
L 411.271035 479.778828 
L 405.392564 483.382008 
L 393.051799 489.866726 
L 386.563748 492.740415 
L 380.344015 495.362839 
L 373.748057 497.734838 
L 367.223894 499.845152 
L 360.804328 501.703095 
L 353.967134 503.29955 
L 347.18833 504.625842 
L 340.671084 505.690654 
L 334.146579 506.499419 
L 327.451001 507.047831 
L 320.617765 507.329474 
L 313.736339 507.340359 
L 306.895927 507.080777 
L 300.186371 506.553858 
L 293.650561 505.766028 
L 287.144361 504.722095 
L 280.389133 503.417503 
L 273.5343 501.842986 
L 267.08538 500.005699 
L 260.594147 497.916247 
L 253.964799 495.565455 
L 247.750057 492.96297 
L 241.257732 490.110063 
L 235.188584 487.008815 
L 228.894672 483.664955 
L 216.943 476.260286 
L 211.250377 472.210096 
L 205.491411 467.931076 
L 199.954693 463.433268 
L 194.570385 458.716193 
L 189.199551 453.790611 
L 179.059291 443.326973 
L 169.577944 432.09098 
L 160.769917 420.13508 
L 152.730089 407.515058 
L 149.01077 400.969865 
L 142.03017 387.464801 
L 138.886608 380.509861 
L 130.585062 358.975092 
L 128.145541 351.583337 
L 126.151265 344.104277 
L 124.514548 336.553954 
L 123.106033 328.944153 
L 121.872414 321.282286 
L 120.796664 313.574967 
L 119.890095 305.828416 
L 119.17259 298.049907 
L 118.658354 290.246966 
L 118.371879 282.428329 
L 118.312774 274.602886 
L 118.478996 266.779507 
L 118.868503 258.967064 
L 119.480335 251.17427 
L 120.279946 243.409691 
L 121.258669 235.680162 
L 122.409693 227.992444 
L 123.726207 220.353297 
L 125.226428 212.769537 
L 127.012043 205.2501 
L 129.204884 197.808714 
L 131.829964 190.462607 
L 140.235784 169.078317 
L 143.621481 162.18145 
L 150.624803 148.802359 
L 158.594278 136.011392 
L 162.791286 129.853167 
L 167.234959 123.868927 
L 171.73826 118.057181 
L 176.523055 112.432405 
L 181.39035 106.993798 
L 186.429805 101.75451 
L 191.690843 96.71434 
L 196.932516 91.884361 
L 208.034708 82.867637 
L 213.896523 78.693927 
L 219.682906 74.746588 
L 225.69322 71.035675 
L 231.777794 67.558842 
L 237.936949 64.327486 
L 244.223198 61.337357 
L 250.597693 58.600657 
L 256.942133 56.110982 
L 263.621231 53.880459 
L 269.98373 51.90661 
L 276.639557 50.187311 
L 283.516482 48.736678 
L 290.135438 47.552556 
L 296.621166 46.625602 
L 303.231381 45.956191 
L 310.00929 45.550735 
L 316.877441 45.414489 
L 323.745713 45.549157 
L 330.524456 45.953052 
L 337.135926 46.620953 
L 343.621185 47.546407 
L 350.237927 48.728979 
L 357.116539 50.178036 
L 363.774802 51.895868 
L 370.136599 53.868187 
L 376.814473 56.097185 
L 383.160816 58.5854 
L 389.532466 61.320576 
L 395.825813 64.309286 
L 401.978762 67.539298 
L 408.067315 71.014613 
L 414.07566 74.72411 
L 419.86541 78.670078 
L 425.725261 82.842444 
L 436.829834 91.856566 
L 442.067509 96.685216 
L 447.34017 101.724278 
L 452.369722 106.962374 
L 457.248211 112.399793 
L 462.026694 118.02356 
L 466.535281 123.834165 
L 470.974937 129.817284 
L 475.180714 135.974654 
L 483.149014 148.763777 
L 490.147121 162.140937 
L 493.542827 169.037146 
L 496.382681 176.055741 
L 501.949061 190.419662 
L 504.57768 197.765219 
L 506.77177 205.206068 
L 508.559754 212.725099 
L 510.061089 220.308551 
L 511.369062 227.947103 
L 512.519778 235.634131 
L 513.506897 243.363256 
L 514.313893 251.127904 
L 514.921884 258.920424 
L 515.319033 266.732961 
L 515.484436 274.556352 
L 515.419701 282.381667 
L 515.130963 290.200146 
L 514.624355 298.003033 
L 513.907261 305.781759 
L 513.00404 313.528272 
L 511.928964 321.235863 
L 510.69393 328.897965 
L 509.290933 336.508176 
L 507.652634 344.058768 
L 505.66111 351.538257 
L 503.224754 358.93061 
L 494.9237 380.467097 
L 491.804117 387.423425 
L 484.79831 400.929727 
L 481.082573 407.475546 
L 473.045596 420.09697 
L 464.238154 432.054449 
L 454.757204 443.292245 
L 444.630968 453.757996 
L 439.248557 458.684604 
L 433.87436 463.402866 
L 428.331051 467.901746 
L 422.569119 472.181899 
L 416.877474 476.233253 
L 404.927404 483.640112 
L 392.569806 490.087645 
L 386.076711 492.94184 
L 379.862161 495.545562 
L 373.236687 497.897673 
L 366.741528 499.988431 
L 360.295962 501.827042 
L 353.443096 503.402974 
L 346.684813 504.708978 
L 340.176446 505.754204 
L 333.642773 506.543335 
L 326.936571 507.07167 
L 320.098805 507.332891 
L 313.219549 507.323396 
L 306.388048 507.043585 
L 299.693623 506.496937 
L 293.169345 505.689959 
L 286.652214 504.626943 
L 279.873532 503.302451 
L 273.035812 501.707793 
L 266.61553 499.851624 
L 260.092229 497.743082 
L 253.495009 495.372873 
L 247.276026 492.752179 
L 240.787648 489.880217 
L 228.44528 483.398925 
L 222.567188 479.797526 
L 216.519721 475.95956 
L 210.813124 471.892664 
L 205.092193 467.596849 
L 199.52513 463.082731 
L 194.188752 458.349905 
L 188.796251 453.408581 
L 178.696364 442.915144 
L 169.24709 431.651565 
L 160.462371 419.670055 
L 152.431709 407.026744 
L 148.763629 400.470827 
L 141.753741 386.945326 
L 138.677048 379.980535 
L 130.385233 358.421439 
L 127.983721 351.022512 
L 126.019255 343.537625 
L 124.400417 335.982629 
L 123.013281 328.368718 
L 121.787472 320.703334 
L 120.724059 312.992872 
L 119.830767 305.243856 
L 119.129229 297.463198 
L 118.635083 289.659037 
L 118.358399 281.839444 
L 118.314968 274.013816 
L 118.502574 266.191197 
L 118.911398 258.380147 
L 119.531619 250.589229 
L 120.351802 242.826853 
L 121.350799 235.100449 
L 122.51156 227.416615 
L 123.831715 219.781634 
L 125.349135 212.202347 
L 127.160726 204.688241 
L 129.388958 197.25342 
L 132.039576 189.9151 
L 140.462825 168.555497 
L 143.901219 161.668824 
L 150.903342 148.310816 
L 158.890884 135.543344 
L 163.138838 129.397829 
L 167.55495 123.426912 
L 172.10946 117.628655 
L 176.868586 112.018066 
L 181.788238 106.594051 
L 186.797635 101.369808 
L 197.3341 91.530948 
L 208.475318 82.547359 
L 214.318386 78.391035 
L 220.148433 74.460996 
L 226.128862 70.76791 
L 232.258182 67.309222 
L 238.387543 64.096144 
L 244.720941 61.124724 
L 251.061445 58.406953 
L 257.445041 55.936201 
L 264.109127 53.725482 
L 270.467269 51.770558 
L 277.157928 50.071053 
L 284.025882 48.640828 
L 290.625131 47.476333 
L 297.113395 46.56866 
L 303.736453 45.918896 
L 310.523578 45.533531 
L 317.39392 45.417639 
L 324.257925 45.572593 
L 331.025448 45.996476 
L 337.622643 46.683825 
L 344.107258 47.62836 
L 350.746346 48.830496 
L 357.629218 50.299823 
L 364.251099 52.037169 
L 370.62387 54.028274 
L 377.310561 56.276966 
L 383.620529 58.783799 
L 390.023899 61.537789 
L 396.268324 64.544948 
L 402.459125 67.793069 
L 408.498268 71.286325 
L 414.534717 75.013579 
L 420.284709 78.976514 
L 426.155102 83.166142 
L 437.222359 92.21287 
L 442.478072 97.056939 
L 447.70692 102.11138 
L 452.764012 107.364597 
L 457.589436 112.816472 
L 462.394432 118.454343 
L 471.319499 130.274544 
L 475.46827 136.444303 
L 483.424395 149.257017 
L 490.418579 162.654817 
L 493.772943 169.561023 
L 499.336351 183.722959 
L 502.15772 190.968318 
L 504.757874 198.321621 
L 506.918582 205.768881 
L 508.679583 213.293224 
L 510.165665 220.880999 
L 511.460263 228.523442 
L 512.598892 236.213847 
L 513.57352 243.945895 
L 514.367677 251.712778 
L 514.958338 259.507197 
L 515.334203 267.320625 
L 515.486089 275.144392 
L 515.410926 282.970112 
L 515.102427 290.787522 
L 514.575287 298.588505 
L 513.844959 306.365034 
L 512.926792 314.109086 
L 511.839512 321.813389 
L 510.590833 329.471409 
L 509.17833 337.077781 
L 507.517745 344.623486 
L 505.493501 352.096971 
L 503.024748 359.482047 
L 494.709586 380.994016 
L 491.543196 387.941003 
L 484.540572 401.426618 
L 480.775157 407.961388 
L 472.724104 420.558966 
L 463.897876 432.490407 
L 454.389082 443.700154 
L 444.225531 454.135854 
L 438.863386 459.046558 
L 433.44156 463.748847 
L 427.92415 468.231347 
L 422.123492 472.494382 
L 416.442458 476.528896 
L 404.466744 483.900333 
L 398.180183 487.226802 
L 392.091648 490.311267 
L 385.600916 493.146212 
L 379.382845 495.731527 
L 372.731372 498.064 
L 366.267114 500.135557 
L 359.79261 501.95503 
L 352.925223 503.510637 
L 346.189421 504.796658 
L 339.68994 505.822615 
L 333.145248 506.592384 
L 326.426064 507.100838 
L 319.581915 507.341761 
L 312.703344 507.311962 
L 305.878938 507.011884 
L 299.197393 506.445415 
L 292.682611 505.619111 
L 286.153697 504.536777 
L 279.354002 503.192173 
L 272.53795 501.57729 
L 266.139615 499.702125 
L 259.585142 497.574216 
L 253.023597 495.184501 
L 246.791228 492.545367 
L 240.321042 489.654217 
L 234.266236 486.517355 
L 227.991352 483.136446 
L 222.109428 479.517524 
L 216.093752 475.661677 
L 210.363363 471.57781 
L 204.690117 467.265106 
L 199.099391 462.734461 
L 188.401888 453.02861 
L 178.338948 442.50537 
L 168.915545 431.213767 
L 160.148129 419.206239 
L 152.126045 406.539093 
L 148.511048 399.972391 
L 141.497125 386.426111 
L 138.467158 379.452316 
L 130.191929 357.868489 
L 127.81849 350.462412 
L 125.886639 342.971774 
L 124.288777 335.41196 
L 122.912029 327.793827 
L 121.702702 320.124848 
L 120.650084 312.411198 
L 119.770196 304.659529 
L 119.082601 296.876844 
L 118.606677 289.071085 
L 118.350445 281.250984 
L 118.320265 273.425065 
L 118.520525 265.602519 
L 118.94839 257.792927 
L 119.587358 250.004165 
L 120.42093 242.244106 
L 121.432588 234.520557 
L 122.604562 226.840171 
L 123.938936 219.209243 
L 125.471851 211.634229 
L 127.311771 204.125614 
L 129.573733 196.697387 
L 132.25039 189.367012 
L 140.712947 168.032418 
L 144.171617 161.155905 
L 151.186789 147.818726 
L 159.1758 135.075063 
L 163.481883 128.941917 
L 167.871951 122.983985 
L 172.477823 117.199251 
L 177.211363 111.60264 
L 182.177021 106.193261 
L 187.171054 100.983663 
L 197.745383 91.175836 
L 203.366294 86.591101 
L 208.911228 82.224515 
L 214.731859 78.085215 
L 220.60879 74.172284 
L 226.556757 70.496634 
L 232.730101 67.055971 
L 238.83524 63.860734 
L 245.208085 60.907985 
L 245.208085 60.907985 
" clip-path="url(#p0f4deb6c77)" style="fill: none; stroke-dasharray: 22.4,5.6,3.5,5.6; stroke-dashoffset: 0; stroke: #0000ff; stroke-opacity: 0.8; stroke-width: 3.5"/>
   </g>
   <g id="patch_3">
    <path d="M 42.620313 530.438125 
L 42.620313 22.318125 
" style="fill: none; stroke: #000000; stroke-width: 0.8; stroke-linejoin: miter; stroke-linecap: square"/>
   </g>
   <g id="patch_4">
    <path d="M 561.210312 530.438125 
L 561.210312 22.318125 
" style="fill: none; stroke: #000000; stroke-width: 0.8; stroke-linejoin: miter; stroke-linecap: square"/>
   </g>
   <g id="patch_5">
    <path d="M 42.620312 530.438125 
L 561.210312 530.438125 
" style="fill: none; stroke: #000000; stroke-width: 0.8; stroke-linejoin: miter; stroke-linecap: square"/>
   </g>
   <g id="patch_6">
    <path d="M 42.620312 22.318125 
L 561.210312 22.318125 
" style="fill: none; stroke: #000000; stroke-width: 0.8; stroke-linejoin: miter; stroke-linecap: square"/>
   </g>
   <g id="text_15">
    <!-- Phase Portrait (x0 vs x1) -->
    <g transform="translate(228.224062 16.318125) scale(0.12 -0.12)">
     <defs>
      <path id="DejaVuSans-50" d="M 1259 4147 
L 1259 2394 
L 2053 2394 
Q 2494 2394 2734 2622 
Q 2975 2850 2975 3272 
Q 2975 3691 2734 3919 
Q 2494 4147 2053 4147 
L 1259 4147 
z
M 628 4666 
L 2053 4666 
Q 2838 4666 3239 4311 
Q 3641 3956 3641 3272 
Q 3641 2581 3239 2228 
Q 2838 1875 2053 1875 
L 1259 1875 
L 1259 0 
L 628 0 
L 628 4666 
z
" transform="scale(0.015625)"/>
      <path id="DejaVuSans-68" d="M 3513 2113 
L 3513 0 
L 2938 0 
L 2938 2094 
Q 2938 2591 2744 2837 
Q 2550 3084 2163 3084 
Q 1697 3084 1428 2787 
Q 1159 2491 1159 1978 
L 1159 0 
L 581 0 
L 581 4863 
L 1159 4863 
L 1159 2956 
Q 1366 3272 1645 3428 
Q 1925 3584 2291 3584 
Q 2894 3584 3203 3211 
Q 3513 2838 3513 2113 
z
" transform="scale(0.015625)"/>
      <path id="DejaVuSans-61" d="M 2194 1759 
Q 1497 1759 1228 1600 
Q 959 1441 959 1056 
Q 959 750 1161 570 
Q 1363 391 1709 391 
Q 2188 391 2477 730 
Q 2766 1069 2766 1631 
L 2766 1759 
L 2194 1759 
z
M 3341 1997 
L 3341 0 
L 2766 0 
L 2766 531 
Q 2569 213 2275 61 
Q 1981 -91 1556 -91 
Q 1019 -91 701 211 
Q 384 513 384 1019 
Q 384 1609 779 1909 
Q 1175 2209 1959 2209 
L 2766 2209 
L 2766 2266 
Q 2766 2663 2505 2880 
Q 2244 3097 1772 3097 
Q 1472 3097 1187 3025 
Q 903 2953 641 2809 
L 641 3341 
Q 956 3463 1253 3523 
Q 1550 3584 1831 3584 
Q 2591 3584 2966 3190 
Q 3341 2797 3341 1997 
z
" transform="scale(0.015625)"/>
      <path id="DejaVuSans-73" d="M 2834 3397 
L 2834 2853 
Q 2591 2978 2328 3040 
Q 2066 3103 1784 3103 
Q 1356 3103 1142 2972 
Q 928 2841 928 2578 
Q 928 2378 1081 2264 
Q 1234 2150 1697 2047 
L 1894 2003 
Q 2506 1872 2764 1633 
Q 3022 1394 3022 966 
Q 3022 478 2636 193 
Q 2250 -91 1575 -91 
Q 1294 -91 989 -36 
Q 684 19 347 128 
L 347 722 
Q 666 556 975 473 
Q 1284 391 1588 391 
Q 1994 391 2212 530 
Q 2431 669 2431 922 
Q 2431 1156 2273 1281 
Q 2116 1406 1581 1522 
L 1381 1569 
Q 847 1681 609 1914 
Q 372 2147 372 2553 
Q 372 3047 722 3315 
Q 1072 3584 1716 3584 
Q 2034 3584 2315 3537 
Q 2597 3491 2834 3397 
z
" transform="scale(0.015625)"/>
      <path id="DejaVuSans-65" d="M 3597 1894 
L 3597 1613 
L 953 1613 
Q 991 1019 1311 708 
Q 1631 397 2203 397 
Q 2534 397 2845 478 
Q 3156 559 3463 722 
L 3463 178 
Q 3153 47 2828 -22 
Q 2503 -91 2169 -91 
Q 1331 -91 842 396 
Q 353 884 353 1716 
Q 353 2575 817 3079 
Q 1281 3584 2069 3584 
Q 2775 3584 3186 3129 
Q 3597 2675 3597 1894 
z
M 3022 2063 
Q 3016 2534 2758 2815 
Q 2500 3097 2075 3097 
Q 1594 3097 1305 2825 
Q 1016 2553 972 2059 
L 3022 2063 
z
" transform="scale(0.015625)"/>
      <path id="DejaVuSans-20" transform="scale(0.015625)"/>
      <path id="DejaVuSans-6f" d="M 1959 3097 
Q 1497 3097 1228 2736 
Q 959 2375 959 1747 
Q 959 1119 1226 758 
Q 1494 397 1959 397 
Q 2419 397 2687 759 
Q 2956 1122 2956 1747 
Q 2956 2369 2687 2733 
Q 2419 3097 1959 3097 
z
M 1959 3584 
Q 2709 3584 3137 3096 
Q 3566 2609 3566 1747 
Q 3566 888 3137 398 
Q 2709 -91 1959 -91 
Q 1206 -91 779 398 
Q 353 888 353 1747 
Q 353 2609 779 3096 
Q 1206 3584 1959 3584 
z
" transform="scale(0.015625)"/>
      <path id="DejaVuSans-72" d="M 2631 2963 
Q 2534 3019 2420 3045 
Q 2306 3072 2169 3072 
Q 1681 3072 1420 2755 
Q 1159 2438 1159 1844 
L 1159 0 
L 581 0 
L 581 3500 
L 1159 3500 
L 1159 2956 
Q 1341 3275 1631 3429 
Q 1922 3584 2338 3584 
Q 2397 3584 2469 3576 
Q 2541 3569 2628 3553 
L 2631 2963 
z
" transform="scale(0.015625)"/>
      <path id="DejaVuSans-74" d="M 1172 4494 
L 1172 3500 
L 2356 3500 
L 2356 3053 
L 1172 3053 
L 1172 1153 
Q 1172 725 1289 603 
Q 1406 481 1766 481 
L 2356 481 
L 2356 0 
L 1766 0 
Q 1100 0 847 248 
Q 594 497 594 1153 
L 594 3053 
L 172 3053 
L 172 3500 
L 594 3500 
L 594 4494 
L 1172 4494 
z
" transform="scale(0.015625)"/>
      <path id="DejaVuSans-69" d="M 603 3500 
L 1178 3500 
L 1178 0 
L 603 0 
L 603 3500 
z
M 603 4863 
L 1178 4863 
L 1178 4134 
L 603 4134 
L 603 4863 
z
" transform="scale(0.015625)"/>
      <path id="DejaVuSans-28" d="M 1984 4856 
Q 1566 4138 1362 3434 
Q 1159 2731 1159 2009 
Q 1159 1288 1364 580 
Q 1569 -128 1984 -844 
L 1484 -844 
Q 1016 -109 783 600 
Q 550 1309 550 2009 
Q 550 2706 781 3412 
Q 1013 4119 1484 4856 
L 1984 4856 
z
" transform="scale(0.015625)"/>
      <path id="DejaVuSans-76" d="M 191 3500 
L 800 3500 
L 1894 563 
L 2988 3500 
L 3597 3500 
L 2284 0 
L 1503 0 
L 191 3500 
z
" transform="scale(0.015625)"/>
      <path id="DejaVuSans-29" d="M 513 4856 
L 1013 4856 
Q 1481 4119 1714 3412 
Q 1947 2706 1947 2009 
Q 1947 1309 1714 600 
Q 1481 -109 1013 -844 
L 513 -844 
Q 928 -128 1133 580 
Q 1338 1288 1338 2009 
Q 1338 2731 1133 3434 
Q 928 4138 513 4856 
z
" transform="scale(0.015625)"/>
     </defs>
     <use xlink:href="#DejaVuSans-50"/>
     <use xlink:href="#DejaVuSans-68" transform="translate(60.302734 0)"/>
     <use xlink:href="#DejaVuSans-61" transform="translate(123.681641 0)"/>
     <use xlink:href="#DejaVuSans-73" transform="translate(184.960938 0)"/>
     <use xlink:href="#DejaVuSans-65" transform="translate(237.060547 0)"/>
     <use xlink:href="#DejaVuSans-20" transform="translate(298.583984 0)"/>
     <use xlink:href="#DejaVuSans-50" transform="translate(330.371094 0)"/>
     <use xlink:href="#DejaVuSans-6f" transform="translate(387.048828 0)"/>
     <use xlink:href="#DejaVuSans-72" transform="translate(448.230469 0)"/>
     <use xlink:href="#DejaVuSans-74" transform="translate(489.34375 0)"/>
     <use xlink:href="#DejaVuSans-72" transform="translate(528.552734 0)"/>
     <use xlink:href="#DejaVuSans-61" transform="translate(569.666016 0)"/>
     <use xlink:href="#DejaVuSans-69" transform="translate(630.945312 0)"/>
     <use xlink:href="#DejaVuSans-74" transform="translate(658.728516 0)"/>
     <use xlink:href="#DejaVuSans-20" transform="translate(697.9375 0)"/>
     <use xlink:href="#DejaVuSans-28" transform="translate(729.724609 0)"/>
     <use xlink:href="#DejaVuSans-78" transform="translate(768.738281 0)"/>
     <use xlink:href="#DejaVuSans-30" transform="translate(827.917969 0)"/>
     <use xlink:href="#DejaVuSans-20" transform="translate(891.541016 0)"/>
     <use xlink:href="#DejaVuSans-76" transform="translate(923.328125 0)"/>
     <use xlink:href="#DejaVuSans-73" transform="translate(982.507812 0)"/>
     <use xlink:href="#DejaVuSans-20" transform="translate(1034.607422 0)"/>
     <use xlink:href="#DejaVuSans-78" transform="translate(1066.394531 0)"/>
     <use xlink:href="#DejaVuSans-31" transform="translate(1125.574219 0)"/>
     <use xlink:href="#DejaVuSans-29" transform="translate(1189.197266 0)"/>
    </g>
   </g>
   <g id="line2d_15">
    <path d="M 515.299652 266.137025 
L 516.149702 268.618982 
L 516.676743 271.040869 
L 516.951796 273.420082 
L 517.08187 278.096467 
L 516.854604 284.984586 
L 516.200142 296.247303 
L 515.537174 305.118919 
L 514.81893 311.736782 
L 514.025288 316.168561 
L 513.372991 318.408839 
L 512.347244 320.684937 
L 510.766035 323.02454 
L 508.931183 325.453479 
L 507.376863 327.968157 
L 503.311149 335.900233 
L 501.574124 338.684778 
L 499.607653 341.558746 
L 497.405506 344.532514 
L 494.937512 347.618469 
L 492.636151 350.817669 
L 490.769227 354.111978 
L 489.04441 357.48538 
L 486.970849 360.942029 
L 481.082627 368.200939 
L 478.610397 372.009957 
L 476.338889 375.914382 
L 473.669334 379.916066 
L 470.314795 384.032234 
L 466.70446 388.273646 
L 459.645881 397.10519 
L 449.051066 411.095548 
L 440.15672 420.843573 
L 436.090666 425.81309 
L 432.303296 430.82568 
L 428.284261 435.868608 
L 423.582217 440.925135 
L 418.158432 445.969224 
L 406.990151 455.895064 
L 396.392449 465.436218 
L 391.00692 470.00217 
L 385.451018 474.3923 
L 379.70545 478.573916 
L 373.785881 482.513136 
L 367.718032 486.176877 
L 361.527162 489.532468 
L 355.229881 492.551867 
L 348.842504 495.208017 
L 342.378867 497.474873 
L 335.852176 499.334012 
L 329.275732 500.769394 
L 322.662599 501.769928 
L 316.02706 502.319726 
L 309.381844 502.421781 
L 302.739678 502.079086 
L 296.11324 501.294707 
L 289.514428 500.076502 
L 282.956234 498.436768 
L 276.446709 496.39471 
L 269.993905 493.969538 
L 263.603407 491.182215 
L 257.27058 488.055985 
L 250.987937 484.616403 
L 244.747986 480.889096 
L 238.557325 476.900212 
L 232.504158 472.678778 
L 226.764208 468.257493 
L 221.484153 463.6708 
L 216.641569 458.950654 
L 211.941623 454.120649 
L 206.955798 449.198239 
L 195.983864 439.150043 
L 191.346333 434.072205 
L 187.239363 428.983059 
L 182.982705 423.897638 
L 178.421917 418.836962 
L 174.099896 413.820568 
L 170.180844 408.858659 
L 166.572097 403.958494 
L 159.992373 394.363143 
L 152.58805 385.145547 
L 147.272954 376.342538 
L 140.896603 367.992612 
L 138.503149 364.010719 
L 134.247341 356.356883 
L 132.037598 352.694667 
L 129.745619 349.152723 
L 127.339864 345.742303 
L 125.277788 342.463426 
L 120.696291 333.220444 
L 118.455955 330.35883 
L 116.561631 327.636517 
L 115.411974 325.015732 
L 113.969699 319.967437 
L 113.295865 317.524159 
L 112.487788 315.139241 
L 111.44203 312.824822 
L 107.96742 306.405163 
L 106.29603 302.511619 
L 104.958107 298.862039 
L 104.000344 295.411421 
L 103.389699 292.110294 
L 103.030367 288.920405 
L 102.859913 285.812734 
L 102.867744 282.763564 
L 103.057091 279.749277 
L 103.644784 275.243646 
L 104.762691 269.181696 
L 105.788018 264.553544 
L 107.08845 259.812198 
L 111.304345 246.333755 
L 112.192456 244.538225 
L 113.487115 242.687683 
L 115.130794 240.75676 
L 116.548829 238.74202 
L 117.492389 236.668594 
L 118.741205 232.425785 
L 119.336506 230.268472 
L 120.067863 228.084351 
L 121.152907 225.857518 
L 122.833579 223.561282 
L 124.852877 221.165108 
L 126.567067 218.671074 
L 129.507889 213.455076 
L 131.235393 210.732324 
L 133.232512 207.916758 
L 135.451339 204.997145 
L 140.505134 198.802921 
L 142.601171 195.534798 
L 144.430607 192.177255 
L 146.538375 188.73231 
L 149.403709 185.176412 
L 152.562509 181.485605 
L 155.148089 177.673076 
L 157.513729 173.759679 
L 160.296675 169.7436 
L 171.071816 156.955446 
L 174.662269 152.45568 
L 181.659362 143.155827 
L 185.599958 138.37029 
L 194.646356 128.556912 
L 198.672252 123.558873 
L 202.528311 118.52066 
L 206.766392 113.455665 
L 211.758637 108.383945 
L 223.06798 98.34066 
L 239.256121 83.945731 
L 244.746116 79.426871 
L 250.423113 75.097782 
L 256.286533 70.992556 
L 262.31489 67.145408 
L 268.483603 63.587632 
L 274.76633 60.356421 
L 281.148775 57.476107 
L 287.616659 54.971004 
L 294.155705 52.865392 
L 300.752215 51.179106 
L 307.392795 49.92922 
L 314.064015 49.122324 
L 320.752521 48.76462 
L 327.445352 48.857792 
L 334.12818 49.404496 
L 340.789683 50.391736 
L 347.418539 51.806513 
L 354.00352 53.635791 
L 360.534478 55.862769 
L 367.005429 58.465179 
L 373.415498 61.419679 
L 379.771623 64.701911 
L 386.084602 68.286074 
L 392.358364 72.145858 
L 398.546047 76.253166 
L 404.509337 80.576599 
L 410.061756 85.081444 
L 415.130987 89.733413 
L 424.786884 99.375062 
L 430.176498 104.328236 
L 435.841702 109.343226 
L 440.875347 114.39397 
L 449.391073 124.528547 
L 458.504903 134.587725 
L 462.608905 139.544032 
L 466.394482 144.439082 
L 473.189615 154.023835 
L 480.827526 163.237652 
L 486.439693 172.023733 
L 493.041771 180.346971 
L 495.539716 184.312541 
L 497.782493 188.170633 
L 500.102315 191.918903 
L 502.494445 195.547666 
L 507.517838 202.405155 
L 509.461606 205.635307 
L 511.040273 208.763223 
L 512.835833 211.791188 
L 515.26437 214.688205 
L 517.36413 217.435909 
L 518.662899 220.074501 
L 520.598213 225.131758 
L 521.796273 227.550419 
L 527.463119 236.21171 
L 529.574183 239.995444 
L 532.867919 246.754226 
L 534.116995 248.269516 
L 535.538576 249.684439 
L 536.5519 251.007488 
L 537.102275 252.270868 
L 537.395752 253.498734 
L 537.618825 255.892231 
L 537.583236 259.400121 
L 537.001903 269.647112 
L 535.37016 298.157371 
L 534.846875 303.175206 
L 534.29842 306.207407 
L 533.610731 308.274596 
L 533.020318 309.341141 
L 532.136343 310.448212 
L 528.485869 314.172146 
L 526.154004 317.00087 
L 523.973171 320.086231 
L 522.915616 321.715845 
L 521.633321 323.409273 
L 517.807958 327.080324 
L 516.348604 329.071361 
L 513.305771 335.382988 
L 511.629271 337.609542 
L 509.37609 339.945112 
L 507.344907 342.399234 
L 503.89448 347.589213 
L 501.860849 350.325728 
L 499.566951 353.173719 
L 494.203769 359.250189 
L 491.762313 362.48484 
L 487.534401 369.263082 
L 484.569331 372.81827 
L 481.247444 376.517199 
L 478.520238 380.346887 
L 475.995061 384.285511 
L 472.974038 388.336044 
L 465.478718 396.831332 
L 458.051684 405.827669 
L 450.741492 415.24384 
L 446.431735 420.090311 
L 441.698886 425.02023 
L 437.294471 430.017178 
L 429.229182 440.143108 
L 424.534014 445.240774 
L 419.060698 450.330026 
L 407.567941 460.351032 
L 396.670657 469.978777 
L 391.154639 474.581082 
L 385.464119 479.00165 
L 379.581515 483.206204 
L 373.524365 487.159363 
L 367.318705 490.827013 
L 360.988595 494.178029 
L 354.55474 497.177493 
L 348.031585 499.801572 
L 341.433038 502.027873 
L 334.772897 503.835491 
L 328.064896 505.204727 
L 321.32286 506.124237 
L 314.560238 506.590899 
L 307.790479 506.601591 
L 301.026446 506.15765 
L 294.282054 505.262476 
L 287.568279 503.931164 
L 280.895972 502.179263 
L 274.275355 500.023062 
L 267.714584 497.483908 
L 261.213791 494.586004 
L 254.768135 491.35429 
L 248.364682 487.814921 
L 241.999459 483.99506 
L 235.711527 479.923278 
L 229.635096 475.631506 
L 223.962935 471.155176 
L 218.782222 466.529749 
L 208.914353 456.939058 
L 203.401926 452.011781 
L 197.632486 447.024117 
L 192.547357 442.002975 
L 183.782882 431.935343 
L 174.439325 421.960355 
L 170.269215 417.05227 
L 166.426685 412.209356 
L 162.900408 407.436868 
L 159.268071 402.742962 
L 155.138718 398.154585 
L 151.522343 393.687364 
L 148.657117 389.323449 
L 145.430184 385.063859 
L 141.764248 380.943935 
L 138.855692 376.964378 
L 136.367368 373.100599 
L 133.813435 369.353162 
L 131.179275 365.732723 
L 125.697487 358.920033 
L 121.720203 352.630378 
L 116.593226 346.873597 
L 114.952792 344.206127 
L 113.639477 341.630208 
L 112.122857 339.145016 
L 103.55741 328.508019 
L 102.277212 326.699842 
L 100.842317 324.985552 
L 97.210529 321.922942 
L 96.215796 320.554438 
L 95.072888 317.978587 
L 94.528094 316.753463 
L 93.770957 315.577605 
L 92.543905 314.472945 
L 90.992643 313.47114 
L 89.817942 312.568655 
L 86.910134 309.549827 
L 85.982729 308.933858 
L 83.806722 307.919371 
L 81.267637 307.240472 
L 79.45348 306.71354 
L 78.587637 306.426681 
L 77.567423 306.354854 
L 75.074717 306.52054 
L 74.211852 306.723528 
L 73.393696 307.238976 
L 72.454349 308.1592 
L 71.893365 308.513073 
L 67.185174 310.59837 
L 66.192585 311.304636 
L 66.192585 311.304636 
" clip-path="url(#p0f4deb6c77)" style="fill: none; stroke-dasharray: 12.95,5.6; stroke-dashoffset: 0; stroke: #ff0000; stroke-opacity: 0.8; stroke-width: 3.5"/>
   </g>
   <g id="legend_1">
    <g id="patch_7">
     <path d="M 49.620313 74.3525 
L 194.970313 74.3525 
Q 196.970313 74.3525 196.970313 72.3525 
L 196.970313 29.318125 
Q 196.970313 27.318125 194.970313 27.318125 
L 49.620313 27.318125 
Q 47.620313 27.318125 47.620313 29.318125 
L 47.620313 72.3525 
Q 47.620313 74.3525 49.620313 74.3525 
z
" style="fill: #ffffff; opacity: 0.8; stroke: #cccccc; stroke-linejoin: miter"/>
    </g>
    <g id="line2d_16">
     <path d="M 51.620313 35.416562 
L 61.620313 35.416562 
L 71.620313 35.416562 
" style="fill: none; stroke: #000000; stroke-opacity: 0.3; stroke-width: 7; stroke-linecap: square"/>
    </g>
    <g id="text_16">
     <!-- True/Underlying model -->
     <g transform="translate(79.620313 38.916562) scale(0.1 -0.1)">
      <defs>
       <path id="DejaVuSans-54" d="M -19 4666 
L 3928 4666 
L 3928 4134 
L 2272 4134 
L 2272 0 
L 1638 0 
L 1638 4134 
L -19 4134 
L -19 4666 
z
" transform="scale(0.015625)"/>
       <path id="DejaVuSans-75" d="M 544 1381 
L 544 3500 
L 1119 3500 
L 1119 1403 
Q 1119 906 1312 657 
Q 1506 409 1894 409 
Q 2359 409 2629 706 
Q 2900 1003 2900 1516 
L 2900 3500 
L 3475 3500 
L 3475 0 
L 2900 0 
L 2900 538 
Q 2691 219 2414 64 
Q 2138 -91 1772 -91 
Q 1169 -91 856 284 
Q 544 659 544 1381 
z
M 1991 3584 
L 1991 3584 
z
" transform="scale(0.015625)"/>
       <path id="DejaVuSans-2f" d="M 1625 4666 
L 2156 4666 
L 531 -594 
L 0 -594 
L 1625 4666 
z
" transform="scale(0.015625)"/>
       <path id="DejaVuSans-55" d="M 556 4666 
L 1191 4666 
L 1191 1831 
Q 1191 1081 1462 751 
Q 1734 422 2344 422 
Q 2950 422 3222 751 
Q 3494 1081 3494 1831 
L 3494 4666 
L 4128 4666 
L 4128 1753 
Q 4128 841 3676 375 
Q 3225 -91 2344 -91 
Q 1459 -91 1007 375 
Q 556 841 556 1753 
L 556 4666 
z
" transform="scale(0.015625)"/>
       <path id="DejaVuSans-6e" d="M 3513 2113 
L 3513 0 
L 2938 0 
L 2938 2094 
Q 2938 2591 2744 2837 
Q 2550 3084 2163 3084 
Q 1697 3084 1428 2787 
Q 1159 2491 1159 1978 
L 1159 0 
L 581 0 
L 581 3500 
L 1159 3500 
L 1159 2956 
Q 1366 3272 1645 3428 
Q 1925 3584 2291 3584 
Q 2894 3584 3203 3211 
Q 3513 2838 3513 2113 
z
" transform="scale(0.015625)"/>
       <path id="DejaVuSans-64" d="M 2906 2969 
L 2906 4863 
L 3481 4863 
L 3481 0 
L 2906 0 
L 2906 525 
Q 2725 213 2448 61 
Q 2172 -91 1784 -91 
Q 1150 -91 751 415 
Q 353 922 353 1747 
Q 353 2572 751 3078 
Q 1150 3584 1784 3584 
Q 2172 3584 2448 3432 
Q 2725 3281 2906 2969 
z
M 947 1747 
Q 947 1113 1208 752 
Q 1469 391 1925 391 
Q 2381 391 2643 752 
Q 2906 1113 2906 1747 
Q 2906 2381 2643 2742 
Q 2381 3103 1925 3103 
Q 1469 3103 1208 2742 
Q 947 2381 947 1747 
z
" transform="scale(0.015625)"/>
       <path id="DejaVuSans-6c" d="M 603 4863 
L 1178 4863 
L 1178 0 
L 603 0 
L 603 4863 
z
" transform="scale(0.015625)"/>
       <path id="DejaVuSans-79" d="M 2059 -325 
Q 1816 -950 1584 -1140 
Q 1353 -1331 966 -1331 
L 506 -1331 
L 506 -850 
L 844 -850 
Q 1081 -850 1212 -737 
Q 1344 -625 1503 -206 
L 1606 56 
L 191 3500 
L 800 3500 
L 1894 763 
L 2988 3500 
L 3597 3500 
L 2059 -325 
z
" transform="scale(0.015625)"/>
       <path id="DejaVuSans-67" d="M 2906 1791 
Q 2906 2416 2648 2759 
Q 2391 3103 1925 3103 
Q 1463 3103 1205 2759 
Q 947 2416 947 1791 
Q 947 1169 1205 825 
Q 1463 481 1925 481 
Q 2391 481 2648 825 
Q 2906 1169 2906 1791 
z
M 3481 434 
Q 3481 -459 3084 -895 
Q 2688 -1331 1869 -1331 
Q 1566 -1331 1297 -1286 
Q 1028 -1241 775 -1147 
L 775 -588 
Q 1028 -725 1275 -790 
Q 1522 -856 1778 -856 
Q 2344 -856 2625 -561 
Q 2906 -266 2906 331 
L 2906 616 
Q 2728 306 2450 153 
Q 2172 0 1784 0 
Q 1141 0 747 490 
Q 353 981 353 1791 
Q 353 2603 747 3093 
Q 1141 3584 1784 3584 
Q 2172 3584 2450 3431 
Q 2728 3278 2906 2969 
L 2906 3500 
L 3481 3500 
L 3481 434 
z
" transform="scale(0.015625)"/>
       <path id="DejaVuSans-6d" d="M 3328 2828 
Q 3544 3216 3844 3400 
Q 4144 3584 4550 3584 
Q 5097 3584 5394 3201 
Q 5691 2819 5691 2113 
L 5691 0 
L 5113 0 
L 5113 2094 
Q 5113 2597 4934 2840 
Q 4756 3084 4391 3084 
Q 3944 3084 3684 2787 
Q 3425 2491 3425 1978 
L 3425 0 
L 2847 0 
L 2847 2094 
Q 2847 2600 2669 2842 
Q 2491 3084 2119 3084 
Q 1678 3084 1418 2786 
Q 1159 2488 1159 1978 
L 1159 0 
L 581 0 
L 581 3500 
L 1159 3500 
L 1159 2956 
Q 1356 3278 1631 3431 
Q 1906 3584 2284 3584 
Q 2666 3584 2933 3390 
Q 3200 3197 3328 2828 
z
" transform="scale(0.015625)"/>
      </defs>
      <use xlink:href="#DejaVuSans-54"/>
      <use xlink:href="#DejaVuSans-72" transform="translate(46.333984 0)"/>
      <use xlink:href="#DejaVuSans-75" transform="translate(87.447266 0)"/>
      <use xlink:href="#DejaVuSans-65" transform="translate(150.826172 0)"/>
      <use xlink:href="#DejaVuSans-2f" transform="translate(212.349609 0)"/>
      <use xlink:href="#DejaVuSans-55" transform="translate(246.041016 0)"/>
      <use xlink:href="#DejaVuSans-6e" transform="translate(319.234375 0)"/>
      <use xlink:href="#DejaVuSans-64" transform="translate(382.613281 0)"/>
      <use xlink:href="#DejaVuSans-65" transform="translate(446.089844 0)"/>
      <use xlink:href="#DejaVuSans-72" transform="translate(507.613281 0)"/>
      <use xlink:href="#DejaVuSans-6c" transform="translate(548.726562 0)"/>
      <use xlink:href="#DejaVuSans-79" transform="translate(576.509766 0)"/>
      <use xlink:href="#DejaVuSans-69" transform="translate(635.689453 0)"/>
      <use xlink:href="#DejaVuSans-6e" transform="translate(663.472656 0)"/>
      <use xlink:href="#DejaVuSans-67" transform="translate(726.851562 0)"/>
      <use xlink:href="#DejaVuSans-20" transform="translate(790.328125 0)"/>
      <use xlink:href="#DejaVuSans-6d" transform="translate(822.115234 0)"/>
      <use xlink:href="#DejaVuSans-6f" transform="translate(919.527344 0)"/>
      <use xlink:href="#DejaVuSans-64" transform="translate(980.708984 0)"/>
      <use xlink:href="#DejaVuSans-65" transform="translate(1044.185547 0)"/>
      <use xlink:href="#DejaVuSans-6c" transform="translate(1105.708984 0)"/>
     </g>
    </g>
    <g id="line2d_17">
     <path d="M 51.620313 50.094687 
L 61.620313 50.094687 
L 71.620313 50.094687 
" style="fill: none; stroke-dasharray: 12.95,5.6; stroke-dashoffset: 0; stroke: #ff0000; stroke-opacity: 0.8; stroke-width: 3.5"/>
    </g>
    <g id="text_17">
     <!-- AutoSINDy -->
     <g transform="translate(79.620313 53.594687) scale(0.1 -0.1)">
      <defs>
       <path id="DejaVuSans-41" d="M 2188 4044 
L 1331 1722 
L 3047 1722 
L 2188 4044 
z
M 1831 4666 
L 2547 4666 
L 4325 0 
L 3669 0 
L 3244 1197 
L 1141 1197 
L 716 0 
L 50 0 
L 1831 4666 
z
" transform="scale(0.015625)"/>
       <path id="DejaVuSans-53" d="M 3425 4513 
L 3425 3897 
Q 3066 4069 2747 4153 
Q 2428 4238 2131 4238 
Q 1616 4238 1336 4038 
Q 1056 3838 1056 3469 
Q 1056 3159 1242 3001 
Q 1428 2844 1947 2747 
L 2328 2669 
Q 3034 2534 3370 2195 
Q 3706 1856 3706 1288 
Q 3706 609 3251 259 
Q 2797 -91 1919 -91 
Q 1588 -91 1214 -16 
Q 841 59 441 206 
L 441 856 
Q 825 641 1194 531 
Q 1563 422 1919 422 
Q 2459 422 2753 634 
Q 3047 847 3047 1241 
Q 3047 1584 2836 1778 
Q 2625 1972 2144 2069 
L 1759 2144 
Q 1053 2284 737 2584 
Q 422 2884 422 3419 
Q 422 4038 858 4394 
Q 1294 4750 2059 4750 
Q 2388 4750 2728 4690 
Q 3069 4631 3425 4513 
z
" transform="scale(0.015625)"/>
       <path id="DejaVuSans-49" d="M 628 4666 
L 1259 4666 
L 1259 0 
L 628 0 
L 628 4666 
z
" transform="scale(0.015625)"/>
       <path id="DejaVuSans-4e" d="M 628 4666 
L 1478 4666 
L 3547 763 
L 3547 4666 
L 4159 4666 
L 4159 0 
L 3309 0 
L 1241 3903 
L 1241 0 
L 628 0 
L 628 4666 
z
" transform="scale(0.015625)"/>
       <path id="DejaVuSans-44" d="M 1259 4147 
L 1259 519 
L 2022 519 
Q 2988 519 3436 956 
Q 3884 1394 3884 2338 
Q 3884 3275 3436 3711 
Q 2988 4147 2022 4147 
L 1259 4147 
z
M 628 4666 
L 1925 4666 
Q 3281 4666 3915 4102 
Q 4550 3538 4550 2338 
Q 4550 1131 3912 565 
Q 3275 0 1925 0 
L 628 0 
L 628 4666 
z
" transform="scale(0.015625)"/>
      </defs>
      <use xlink:href="#DejaVuSans-41"/>
      <use xlink:href="#DejaVuSans-75" transform="translate(68.408203 0)"/>
      <use xlink:href="#DejaVuSans-74" transform="translate(131.787109 0)"/>
      <use xlink:href="#DejaVuSans-6f" transform="translate(170.996094 0)"/>
      <use xlink:href="#DejaVuSans-53" transform="translate(232.177734 0)"/>
      <use xlink:href="#DejaVuSans-49" transform="translate(295.654297 0)"/>
      <use xlink:href="#DejaVuSans-4e" transform="translate(325.146484 0)"/>
      <use xlink:href="#DejaVuSans-44" transform="translate(399.951172 0)"/>
      <use xlink:href="#DejaVuSans-79" transform="translate(476.953125 0)"/>
     </g>
    </g>
    <g id="line2d_18">
     <path d="M 51.620313 64.772812 
L 61.620313 64.772812 
L 71.620313 64.772812 
" style="fill: none; stroke-dasharray: 22.4,5.6,3.5,5.6; stroke-dashoffset: 0; stroke: #0000ff; stroke-opacity: 0.8; stroke-width: 3.5"/>
    </g>
    <g id="text_18">
     <!-- Standard PySR -->
     <g transform="translate(79.620313 68.272812) scale(0.1 -0.1)">
      <defs>
       <path id="DejaVuSans-52" d="M 2841 2188 
Q 3044 2119 3236 1894 
Q 3428 1669 3622 1275 
L 4263 0 
L 3584 0 
L 2988 1197 
Q 2756 1666 2539 1819 
Q 2322 1972 1947 1972 
L 1259 1972 
L 1259 0 
L 628 0 
L 628 4666 
L 2053 4666 
Q 2853 4666 3247 4331 
Q 3641 3997 3641 3322 
Q 3641 2881 3436 2590 
Q 3231 2300 2841 2188 
z
M 1259 4147 
L 1259 2491 
L 2053 2491 
Q 2509 2491 2742 2702 
Q 2975 2913 2975 3322 
Q 2975 3731 2742 3939 
Q 2509 4147 2053 4147 
L 1259 4147 
z
" transform="scale(0.015625)"/>
      </defs>
      <use xlink:href="#DejaVuSans-53"/>
      <use xlink:href="#DejaVuSans-74" transform="translate(63.476562 0)"/>
      <use xlink:href="#DejaVuSans-61" transform="translate(102.685547 0)"/>
      <use xlink:href="#DejaVuSans-6e" transform="translate(163.964844 0)"/>
      <use xlink:href="#DejaVuSans-64" transform="translate(227.34375 0)"/>
      <use xlink:href="#DejaVuSans-61" transform="translate(290.820312 0)"/>
      <use xlink:href="#DejaVuSans-72" transform="translate(352.099609 0)"/>
      <use xlink:href="#DejaVuSans-64" transform="translate(391.462891 0)"/>
      <use xlink:href="#DejaVuSans-20" transform="translate(454.939453 0)"/>
      <use xlink:href="#DejaVuSans-50" transform="translate(486.726562 0)"/>
      <use xlink:href="#DejaVuSans-79" transform="translate(547.029297 0)"/>
      <use xlink:href="#DejaVuSans-53" transform="translate(606.208984 0)"/>
      <use xlink:href="#DejaVuSans-52" transform="translate(669.685547 0)"/>
     </g>
    </g>
   </g>
  </g>
 </g>
 <defs>
  <clipPath id="p0f4deb6c77">
   <rect x="42.620313" y="22.318125" width="518.59" height="508.12"/>
  </clipPath>
 </defs>
</svg>
