<?xml version="1.0" encoding="utf-8" standalone="no"?>
<!DOCTYPE svg PUBLIC "-//W3C//DTD SVG 1.1//EN"
  "http://www.w3.org/Graphics/SVG/1.1/DTD/svg11.dtd">
<svg xmlns:xlink="http://www.w3.org/1999/xlink" width="568.410937pt" height="567.994375pt" viewBox="0 0 568.410937 567.994375" xmlns="http://www.w3.org/2000/svg" version="1.1">
 <metadata>
  <rdf:RDF xmlns:dc="http://purl.org/dc/elements/1.1/" xmlns:cc="http://creativecommons.org/ns#" xmlns:rdf="http://www.w3.org/1999/02/22-rdf-syntax-ns#">
   <cc:Work>
    <dc:type rdf:resource="http://purl.org/dc/dcmitype/StillImage"/>
    <dc:date>2026-04-06T11:14:52.108586</dc:date>
    <dc:format>image/svg+xml</dc:format>
    <dc:creator>
     <cc:Agent>
      <dc:title>Matplotlib v3.10.7, https://matplotlib.org/</dc:title>
     </cc:Agent>
    </dc:creator>
   </cc:Work>
  </rdf:RDF>
 </metadata>
 <defs>
  <style type="text/css">*{stroke-linejoin: round; stroke-linecap: butt}</style>
 </defs>
 <g id="figure_1">
  <g id="patch_1">
   <path d="M 0 567.994375 
L 568.410937 567.994375 
L 568.410937 0 
L 0 0 
z
" style="fill: #ffffff"/>
  </g>
  <g id="axes_1">
   <g id="patch_2">
    <path d="M 52.160938 530.438125 
L 561.210937 530.438125 
L 561.210937 22.318125 
L 52.160938 22.318125 
z
" style="fill: #ffffff"/>
   </g>
   <g id="matplotlib.axis_1">
    <g id="xtick_1">
     <g id="line2d_1">
      <defs>
       <path id="m18991ea7e9" d="M 0 0 
L 0 3.5 
" style="stroke: #000000; stroke-width: 0.8"/>
      </defs>
      <g>
       <use xlink:href="#m18991ea7e9" x="76.740442" y="530.438125" style="stroke: #000000; stroke-width: 0.8"/>
      </g>
     </g>
     <g id="text_1">
      <!-- −0.8 -->
      <g transform="translate(64.599036 545.036562) scale(0.1 -0.1)">
       <defs>
        <path id="DejaVuSans-2212" d="M 678 2272 
L 4684 2272 
L 4684 1741 
L 678 1741 
L 678 2272 
z
" transform="scale(0.015625)"/>
        <path id="DejaVuSans-30" d="M 2034 4250 
Q 1547 4250 1301 3770 
Q 1056 3291 1056 2328 
Q 1056 1369 1301 889 
Q 1547 409 2034 409 
Q 2525 409 2770 889 
Q 3016 1369 3016 2328 
Q 3016 3291 2770 3770 
Q 2525 4250 2034 4250 
z
M 2034 4750 
Q 2819 4750 3233 4129 
Q 3647 3509 3647 2328 
Q 3647 1150 3233 529 
Q 2819 -91 2034 -91 
Q 1250 -91 836 529 
Q 422 1150 422 2328 
Q 422 3509 836 4129 
Q 1250 4750 2034 4750 
z
" transform="scale(0.015625)"/>
        <path id="DejaVuSans-2e" d="M 684 794 
L 1344 794 
L 1344 0 
L 684 0 
L 684 794 
z
" transform="scale(0.015625)"/>
        <path id="DejaVuSans-38" d="M 2034 2216 
Q 1584 2216 1326 1975 
Q 1069 1734 1069 1313 
Q 1069 891 1326 650 
Q 1584 409 2034 409 
Q 2484 409 2743 651 
Q 3003 894 3003 1313 
Q 3003 1734 2745 1975 
Q 2488 2216 2034 2216 
z
M 1403 2484 
Q 997 2584 770 2862 
Q 544 3141 544 3541 
Q 544 4100 942 4425 
Q 1341 4750 2034 4750 
Q 2731 4750 3128 4425 
Q 3525 4100 3525 3541 
Q 3525 3141 3298 2862 
Q 3072 2584 2669 2484 
Q 3125 2378 3379 2068 
Q 3634 1759 3634 1313 
Q 3634 634 3220 271 
Q 2806 -91 2034 -91 
Q 1263 -91 848 271 
Q 434 634 434 1313 
Q 434 1759 690 2068 
Q 947 2378 1403 2484 
z
M 1172 3481 
Q 1172 3119 1398 2916 
Q 1625 2713 2034 2713 
Q 2441 2713 2670 2916 
Q 2900 3119 2900 3481 
Q 2900 3844 2670 4047 
Q 2441 4250 2034 4250 
Q 1625 4250 1398 4047 
Q 1172 3844 1172 3481 
z
" transform="scale(0.015625)"/>
       </defs>
       <use xlink:href="#DejaVuSans-2212"/>
       <use xlink:href="#DejaVuSans-30" transform="translate(83.789062 0)"/>
       <use xlink:href="#DejaVuSans-2e" transform="translate(147.412109 0)"/>
       <use xlink:href="#DejaVuSans-38" transform="translate(179.199219 0)"/>
      </g>
     </g>
    </g>
    <g id="xtick_2">
     <g id="line2d_2">
      <g>
       <use xlink:href="#m18991ea7e9" x="134.226714" y="530.438125" style="stroke: #000000; stroke-width: 0.8"/>
      </g>
     </g>
     <g id="text_2">
      <!-- −0.6 -->
      <g transform="translate(122.085308 545.036562) scale(0.1 -0.1)">
       <defs>
        <path id="DejaVuSans-36" d="M 2113 2584 
Q 1688 2584 1439 2293 
Q 1191 2003 1191 1497 
Q 1191 994 1439 701 
Q 1688 409 2113 409 
Q 2538 409 2786 701 
Q 3034 994 3034 1497 
Q 3034 2003 2786 2293 
Q 2538 2584 2113 2584 
z
M 3366 4563 
L 3366 3988 
Q 3128 4100 2886 4159 
Q 2644 4219 2406 4219 
Q 1781 4219 1451 3797 
Q 1122 3375 1075 2522 
Q 1259 2794 1537 2939 
Q 1816 3084 2150 3084 
Q 2853 3084 3261 2657 
Q 3669 2231 3669 1497 
Q 3669 778 3244 343 
Q 2819 -91 2113 -91 
Q 1303 -91 875 529 
Q 447 1150 447 2328 
Q 447 3434 972 4092 
Q 1497 4750 2381 4750 
Q 2619 4750 2861 4703 
Q 3103 4656 3366 4563 
z
" transform="scale(0.015625)"/>
       </defs>
       <use xlink:href="#DejaVuSans-2212"/>
       <use xlink:href="#DejaVuSans-30" transform="translate(83.789062 0)"/>
       <use xlink:href="#DejaVuSans-2e" transform="translate(147.412109 0)"/>
       <use xlink:href="#DejaVuSans-36" transform="translate(179.199219 0)"/>
      </g>
     </g>
    </g>
    <g id="xtick_3">
     <g id="line2d_3">
      <g>
       <use xlink:href="#m18991ea7e9" x="191.712986" y="530.438125" style="stroke: #000000; stroke-width: 0.8"/>
      </g>
     </g>
     <g id="text_3">
      <!-- −0.4 -->
      <g transform="translate(179.57158 545.036562) scale(0.1 -0.1)">
       <defs>
        <path id="DejaVuSans-34" d="M 2419 4116 
L 825 1625 
L 2419 1625 
L 2419 4116 
z
M 2253 4666 
L 3047 4666 
L 3047 1625 
L 3713 1625 
L 3713 1100 
L 3047 1100 
L 3047 0 
L 2419 0 
L 2419 1100 
L 313 1100 
L 313 1709 
L 2253 4666 
z
" transform="scale(0.015625)"/>
       </defs>
       <use xlink:href="#DejaVuSans-2212"/>
       <use xlink:href="#DejaVuSans-30" transform="translate(83.789062 0)"/>
       <use xlink:href="#DejaVuSans-2e" transform="translate(147.412109 0)"/>
       <use xlink:href="#DejaVuSans-34" transform="translate(179.199219 0)"/>
      </g>
     </g>
    </g>
    <g id="xtick_4">
     <g id="line2d_4">
      <g>
       <use xlink:href="#m18991ea7e9" x="249.199258" y="530.438125" style="stroke: #000000; stroke-width: 0.8"/>
      </g>
     </g>
     <g id="text_4">
      <!-- −0.2 -->
      <g transform="translate(237.057852 545.036562) scale(0.1 -0.1)">
       <defs>
        <path id="DejaVuSans-32" d="M 1228 531 
L 3431 531 
L 3431 0 
L 469 0 
L 469 531 
Q 828 903 1448 1529 
Q 2069 2156 2228 2338 
Q 2531 2678 2651 2914 
Q 2772 3150 2772 3378 
Q 2772 3750 2511 3984 
Q 2250 4219 1831 4219 
Q 1534 4219 1204 4116 
Q 875 4013 500 3803 
L 500 4441 
Q 881 4594 1212 4672 
Q 1544 4750 1819 4750 
Q 2544 4750 2975 4387 
Q 3406 4025 3406 3419 
Q 3406 3131 3298 2873 
Q 3191 2616 2906 2266 
Q 2828 2175 2409 1742 
Q 1991 1309 1228 531 
z
" transform="scale(0.015625)"/>
       </defs>
       <use xlink:href="#DejaVuSans-2212"/>
       <use xlink:href="#DejaVuSans-30" transform="translate(83.789062 0)"/>
       <use xlink:href="#DejaVuSans-2e" transform="translate(147.412109 0)"/>
       <use xlink:href="#DejaVuSans-32" transform="translate(179.199219 0)"/>
      </g>
     </g>
    </g>
    <g id="xtick_5">
     <g id="line2d_5">
      <g>
       <use xlink:href="#m18991ea7e9" x="306.68553" y="530.438125" style="stroke: #000000; stroke-width: 0.8"/>
      </g>
     </g>
     <g id="text_5">
      <!-- 0.0 -->
      <g transform="translate(298.733967 545.036562) scale(0.1 -0.1)">
       <use xlink:href="#DejaVuSans-30"/>
       <use xlink:href="#DejaVuSans-2e" transform="translate(63.623047 0)"/>
       <use xlink:href="#DejaVuSans-30" transform="translate(95.410156 0)"/>
      </g>
     </g>
    </g>
    <g id="xtick_6">
     <g id="line2d_6">
      <g>
       <use xlink:href="#m18991ea7e9" x="364.171802" y="530.438125" style="stroke: #000000; stroke-width: 0.8"/>
      </g>
     </g>
     <g id="text_6">
      <!-- 0.2 -->
      <g transform="translate(356.220239 545.036562) scale(0.1 -0.1)">
       <use xlink:href="#DejaVuSans-30"/>
       <use xlink:href="#DejaVuSans-2e" transform="translate(63.623047 0)"/>
       <use xlink:href="#DejaVuSans-32" transform="translate(95.410156 0)"/>
      </g>
     </g>
    </g>
    <g id="xtick_7">
     <g id="line2d_7">
      <g>
       <use xlink:href="#m18991ea7e9" x="421.658074" y="530.438125" style="stroke: #000000; stroke-width: 0.8"/>
      </g>
     </g>
     <g id="text_7">
      <!-- 0.4 -->
      <g transform="translate(413.706511 545.036562) scale(0.1 -0.1)">
       <use xlink:href="#DejaVuSans-30"/>
       <use xlink:href="#DejaVuSans-2e" transform="translate(63.623047 0)"/>
       <use xlink:href="#DejaVuSans-34" transform="translate(95.410156 0)"/>
      </g>
     </g>
    </g>
    <g id="xtick_8">
     <g id="line2d_8">
      <g>
       <use xlink:href="#m18991ea7e9" x="479.144345" y="530.438125" style="stroke: #000000; stroke-width: 0.8"/>
      </g>
     </g>
     <g id="text_8">
      <!-- 0.6 -->
      <g transform="translate(471.192783 545.036562) scale(0.1 -0.1)">
       <use xlink:href="#DejaVuSans-30"/>
       <use xlink:href="#DejaVuSans-2e" transform="translate(63.623047 0)"/>
       <use xlink:href="#DejaVuSans-36" transform="translate(95.410156 0)"/>
      </g>
     </g>
    </g>
    <g id="xtick_9">
     <g id="line2d_9">
      <g>
       <use xlink:href="#m18991ea7e9" x="536.630617" y="530.438125" style="stroke: #000000; stroke-width: 0.8"/>
      </g>
     </g>
     <g id="text_9">
      <!-- 0.8 -->
      <g transform="translate(528.679055 545.036562) scale(0.1 -0.1)">
       <use xlink:href="#DejaVuSans-30"/>
       <use xlink:href="#DejaVuSans-2e" transform="translate(63.623047 0)"/>
       <use xlink:href="#DejaVuSans-38" transform="translate(95.410156 0)"/>
      </g>
     </g>
    </g>
    <g id="text_10">
     <!-- x0 -->
     <g transform="translate(300.545312 558.714687) scale(0.1 -0.1)">
      <defs>
       <path id="DejaVuSans-78" d="M 3513 3500 
L 2247 1797 
L 3578 0 
L 2900 0 
L 1881 1375 
L 863 0 
L 184 0 
L 1544 1831 
L 300 3500 
L 978 3500 
L 1906 2253 
L 2834 3500 
L 3513 3500 
z
" transform="scale(0.015625)"/>
      </defs>
      <use xlink:href="#DejaVuSans-78"/>
      <use xlink:href="#DejaVuSans-30" transform="translate(59.179688 0)"/>
     </g>
    </g>
   </g>
   <g id="matplotlib.axis_2">
    <g id="ytick_1">
     <g id="line2d_10">
      <defs>
       <path id="m2e64725ca7" d="M 0 0 
L -3.5 0 
" style="stroke: #000000; stroke-width: 0.8"/>
      </defs>
      <g>
       <use xlink:href="#m2e64725ca7" x="52.160938" y="469.225111" style="stroke: #000000; stroke-width: 0.8"/>
      </g>
     </g>
     <g id="text_11">
      <!-- −1.5 -->
      <g transform="translate(20.878125 473.02433) scale(0.1 -0.1)">
       <defs>
        <path id="DejaVuSans-31" d="M 794 531 
L 1825 531 
L 1825 4091 
L 703 3866 
L 703 4441 
L 1819 4666 
L 2450 4666 
L 2450 531 
L 3481 531 
L 3481 0 
L 794 0 
L 794 531 
z
" transform="scale(0.015625)"/>
        <path id="DejaVuSans-35" d="M 691 4666 
L 3169 4666 
L 3169 4134 
L 1269 4134 
L 1269 2991 
Q 1406 3038 1543 3061 
Q 1681 3084 1819 3084 
Q 2600 3084 3056 2656 
Q 3513 2228 3513 1497 
Q 3513 744 3044 326 
Q 2575 -91 1722 -91 
Q 1428 -91 1123 -41 
Q 819 9 494 109 
L 494 744 
Q 775 591 1075 516 
Q 1375 441 1709 441 
Q 2250 441 2565 725 
Q 2881 1009 2881 1497 
Q 2881 1984 2565 2268 
Q 2250 2553 1709 2553 
Q 1456 2553 1204 2497 
Q 953 2441 691 2322 
L 691 4666 
z
" transform="scale(0.015625)"/>
       </defs>
       <use xlink:href="#DejaVuSans-2212"/>
       <use xlink:href="#DejaVuSans-31" transform="translate(83.789062 0)"/>
       <use xlink:href="#DejaVuSans-2e" transform="translate(147.412109 0)"/>
       <use xlink:href="#DejaVuSans-35" transform="translate(179.199219 0)"/>
      </g>
     </g>
    </g>
    <g id="ytick_2">
     <g id="line2d_11">
      <g>
       <use xlink:href="#m2e64725ca7" x="52.160938" y="404.941809" style="stroke: #000000; stroke-width: 0.8"/>
      </g>
     </g>
     <g id="text_12">
      <!-- −1.0 -->
      <g transform="translate(20.878125 408.741028) scale(0.1 -0.1)">
       <use xlink:href="#DejaVuSans-2212"/>
       <use xlink:href="#DejaVuSans-31" transform="translate(83.789062 0)"/>
       <use xlink:href="#DejaVuSans-2e" transform="translate(147.412109 0)"/>
       <use xlink:href="#DejaVuSans-30" transform="translate(179.199219 0)"/>
      </g>
     </g>
    </g>
    <g id="ytick_3">
     <g id="line2d_12">
      <g>
       <use xlink:href="#m2e64725ca7" x="52.160938" y="340.658507" style="stroke: #000000; stroke-width: 0.8"/>
      </g>
     </g>
     <g id="text_13">
      <!-- −0.5 -->
      <g transform="translate(20.878125 344.457726) scale(0.1 -0.1)">
       <use xlink:href="#DejaVuSans-2212"/>
       <use xlink:href="#DejaVuSans-30" transform="translate(83.789062 0)"/>
       <use xlink:href="#DejaVuSans-2e" transform="translate(147.412109 0)"/>
       <use xlink:href="#DejaVuSans-35" transform="translate(179.199219 0)"/>
      </g>
     </g>
    </g>
    <g id="ytick_4">
     <g id="line2d_13">
      <g>
       <use xlink:href="#m2e64725ca7" x="52.160938" y="276.375205" style="stroke: #000000; stroke-width: 0.8"/>
      </g>
     </g>
     <g id="text_14">
      <!-- 0.0 -->
      <g transform="translate(29.257812 280.174423) scale(0.1 -0.1)">
       <use xlink:href="#DejaVuSans-30"/>
       <use xlink:href="#DejaVuSans-2e" transform="translate(63.623047 0)"/>
       <use xlink:href="#DejaVuSans-30" transform="translate(95.410156 0)"/>
      </g>
     </g>
    </g>
    <g id="ytick_5">
     <g id="line2d_14">
      <g>
       <use xlink:href="#m2e64725ca7" x="52.160938" y="212.091902" style="stroke: #000000; stroke-width: 0.8"/>
      </g>
     </g>
     <g id="text_15">
      <!-- 0.5 -->
      <g transform="translate(29.257812 215.891121) scale(0.1 -0.1)">
       <use xlink:href="#DejaVuSans-30"/>
       <use xlink:href="#DejaVuSans-2e" transform="translate(63.623047 0)"/>
       <use xlink:href="#DejaVuSans-35" transform="translate(95.410156 0)"/>
      </g>
     </g>
    </g>
    <g id="ytick_6">
     <g id="line2d_15">
      <g>
       <use xlink:href="#m2e64725ca7" x="52.160938" y="147.8086" style="stroke: #000000; stroke-width: 0.8"/>
      </g>
     </g>
     <g id="text_16">
      <!-- 1.0 -->
      <g transform="translate(29.257812 151.607819) scale(0.1 -0.1)">
       <use xlink:href="#DejaVuSans-31"/>
       <use xlink:href="#DejaVuSans-2e" transform="translate(63.623047 0)"/>
       <use xlink:href="#DejaVuSans-30" transform="translate(95.410156 0)"/>
      </g>
     </g>
    </g>
    <g id="ytick_7">
     <g id="line2d_16">
      <g>
       <use xlink:href="#m2e64725ca7" x="52.160938" y="83.525298" style="stroke: #000000; stroke-width: 0.8"/>
      </g>
     </g>
     <g id="text_17">
      <!-- 1.5 -->
      <g transform="translate(29.257812 87.324517) scale(0.1 -0.1)">
       <use xlink:href="#DejaVuSans-31"/>
       <use xlink:href="#DejaVuSans-2e" transform="translate(63.623047 0)"/>
       <use xlink:href="#DejaVuSans-35" transform="translate(95.410156 0)"/>
      </g>
     </g>
    </g>
    <g id="text_18">
     <!-- x1 -->
     <g transform="translate(14.798438 282.51875) rotate(-90) scale(0.1 -0.1)">
      <use xlink:href="#DejaVuSans-78"/>
      <use xlink:href="#DejaVuSans-31" transform="translate(59.179688 0)"/>
     </g>
    </g>
   </g>
   <g id="line2d_17">
    <path d="M 536.630617 250.661884 
L 537.549695 261.061649 
L 538.002882 271.455837 
L 537.990891 281.823822 
L 537.515702 292.146158 
L 536.579998 302.402127 
L 535.18706 312.569988 
L 533.341103 322.628451 
L 531.047272 332.556678 
L 528.311645 342.334283 
L 525.141232 351.941334 
L 521.543971 361.358349 
L 517.528737 370.5663 
L 513.105332 379.546611 
L 508.284493 388.281157 
L 503.077885 396.752266 
L 497.498108 404.94272 
L 491.558693 412.83575 
L 485.273512 420.416123 
L 478.655442 427.672082 
L 471.720106 434.588068 
L 464.483722 441.149167 
L 456.962815 447.341663 
L 449.174216 453.153043 
L 441.135064 458.571994 
L 432.862805 463.588404 
L 424.375193 468.19336 
L 415.690288 472.379153 
L 406.826456 476.13927 
L 397.802373 479.468403 
L 388.637021 482.362442 
L 379.349686 484.818478 
L 369.959966 486.834804 
L 360.487764 488.410912 
L 350.953288 489.547495 
L 341.377057 490.246447 
L 331.779895 490.510863 
L 322.182932 490.345037 
L 312.606659 489.754178 
L 303.063537 488.741358 
L 293.572119 487.310968 
L 284.152576 485.468565 
L 274.824485 483.22034 
L 265.606835 480.573122 
L 256.518024 477.534375 
L 247.57586 474.112199 
L 238.797561 470.315331 
L 230.199756 466.153142 
L 221.79848 461.635641 
L 213.609182 456.773473 
L 205.646719 451.577917 
L 197.925358 446.060889 
L 190.458776 440.234943 
L 183.260059 434.113265 
L 176.341703 427.709682 
L 169.715616 421.038652 
L 163.393114 414.115272 
L 157.384922 406.955274 
L 151.701176 399.575027 
L 146.351422 391.991535 
L 141.343216 384.218585 
L 136.682834 376.26527 
L 132.37941 368.148105 
L 128.441265 359.883904 
L 124.875793 351.489525 
L 121.689456 342.981865 
L 118.88779 334.37786 
L 116.475403 325.694487 
L 114.455972 316.948762 
L 112.832248 308.157744 
L 111.606053 299.338528 
L 110.778279 290.508252 
L 110.348891 281.684092 
L 110.316926 272.883268 
L 110.680492 264.123034 
L 111.436767 255.420689 
L 112.582003 246.793571 
L 114.111523 238.259056 
L 116.019719 229.834562 
L 118.300059 221.537547 
L 120.945078 213.385508 
L 123.947301 205.39463 
L 127.302446 197.576272 
L 131.002618 189.947353 
L 135.038849 182.524826 
L 139.401624 175.324797 
L 144.08088 168.362519 
L 149.06601 161.652396 
L 154.345855 155.207983 
L 159.908714 149.041986 
L 165.742335 143.166257 
L 171.833923 137.591804 
L 178.170132 132.328781 
L 184.737072 127.386494 
L 191.520305 122.773397 
L 198.504845 118.497098 
L 205.675161 114.564352 
L 213.015174 110.981065 
L 220.508256 107.752294 
L 228.137237 104.882245 
L 235.884395 102.374275 
L 243.731578 100.230876 
L 251.666749 98.453093 
L 259.675547 97.042191 
L 267.740192 95.999279 
L 275.843192 95.324701 
L 283.967353 95.018038 
L 292.095772 95.078104 
L 300.211841 95.502953 
L 308.299243 96.28987 
L 316.341958 97.43538 
L 324.324256 98.935241 
L 332.230704 100.784449 
L 340.046158 102.977233 
L 347.755771 105.507061 
L 355.344989 108.366634 
L 362.79955 111.547891 
L 370.105487 115.042005 
L 377.249126 118.839387 
L 384.217086 122.929681 
L 390.996279 127.301768 
L 397.573913 131.943767 
L 403.937486 136.843029 
L 410.075231 141.986849 
L 415.979822 147.369536 
L 421.64069 152.98105 
L 427.046672 158.809237 
L 432.187342 164.841728 
L 437.053017 171.06595 
L 441.634753 177.469119 
L 445.924348 184.038242 
L 449.914341 190.760117 
L 453.598008 197.621333 
L 456.969368 204.608272 
L 460.023182 211.707104 
L 462.754948 218.903793 
L 465.160906 226.184091 
L 467.238038 233.533545 
L 468.984065 240.937489 
L 470.397448 248.381051 
L 471.477389 255.849148 
L 472.22383 263.326491 
L 472.637456 270.797578 
L 472.719653 278.247053 
L 472.471544 285.664632 
L 471.894366 293.035726 
L 470.990107 300.344018 
L 469.761414 307.573673 
L 468.211593 314.709334 
L 466.344611 321.736131 
L 464.165093 328.63967 
L 461.678323 335.406042 
L 458.890247 342.021819 
L 455.807468 348.474054 
L 452.437249 354.750282 
L 448.787513 360.83852 
L 444.866841 366.727265 
L 440.684475 372.405498 
L 436.250315 377.862679 
L 431.574922 383.088751 
L 426.669515 388.07414 
L 421.545974 392.80975 
L 416.216836 397.286969 
L 410.6953 401.497667 
L 404.995222 405.434195 
L 399.129216 409.090175 
L 393.104854 412.461653 
L 386.935441 415.54255 
L 380.634857 418.327276 
L 374.21696 420.811012 
L 367.69558 422.989699 
L 361.084523 424.860049 
L 354.397572 426.419536 
L 347.648481 427.6664 
L 340.850983 428.599648 
L 334.018782 429.219051 
L 327.165561 429.525146 
L 320.304974 429.519237 
L 313.450653 429.203391 
L 306.616204 428.580443 
L 299.815207 427.653993 
L 293.061218 426.428404 
L 286.367767 424.908808 
L 279.748361 423.101101 
L 273.216479 421.011945 
L 266.785577 418.648767 
L 260.468362 416.019176 
L 254.272468 413.126748 
L 248.209659 409.977874 
L 242.292373 406.580161 
L 236.532495 402.941545 
L 230.941353 399.070296 
L 225.529722 394.975016 
L 220.307817 390.664639 
L 215.285301 386.148431 
L 210.471281 381.435992 
L 205.874305 376.537251 
L 201.50237 371.462471 
L 197.362915 366.222249 
L 193.462822 360.827511 
L 189.808421 355.289516 
L 186.405482 349.619858 
L 183.259223 343.830459 
L 180.374305 337.933576 
L 177.754833 331.941798 
L 175.404356 325.868045 
L 173.325869 319.72557 
L 171.521517 313.52591 
L 169.993086 307.277398 
L 168.743183 300.993496 
L 167.77384 294.687757 
L 167.086446 288.373515 
L 166.68175 282.06389 
L 166.559861 275.771787 
L 166.720248 269.509894 
L 167.161737 263.290682 
L 167.882518 257.126409 
L 168.880137 251.029115 
L 170.1515 245.010624 
L 171.692875 239.082546 
L 173.499886 233.256273 
L 175.56752 227.542983 
L 177.890121 221.953638 
L 180.461394 216.498982 
L 183.274403 211.189545 
L 186.321573 206.035641 
L 189.594685 201.047368 
L 193.084884 196.234608 
L 196.782672 191.607028 
L 200.680899 187.171989 
L 204.77363 182.936007 
L 209.051262 178.907826 
L 213.504002 175.095552 
L 218.12188 171.50664 
L 222.894753 168.147896 
L 227.812301 165.025475 
L 232.864028 162.144882 
L 238.039264 159.510973 
L 243.327164 157.127952 
L 248.716706 154.999375 
L 254.196694 153.128146 
L 259.755757 151.516519 
L 265.382347 150.166099 
L 271.064742 149.077839 
L 276.791045 148.252045 
L 282.549183 147.68837 
L 288.326907 147.385818 
L 294.111794 147.342742 
L 299.891244 147.556845 
L 305.654064 148.025585 
L 311.392676 148.747369 
L 317.095001 149.719613 
L 322.748905 150.939224 
L 328.342617 152.402674 
L 333.864727 154.106006 
L 339.304186 156.044828 
L 344.650307 158.214318 
L 349.892762 160.609221 
L 355.021585 163.22385 
L 360.027172 166.052085 
L 364.900279 169.087377 
L 369.632023 172.322741 
L 374.213884 175.750764 
L 378.6377 179.363596 
L 382.895673 183.15296 
L 386.980364 187.110144 
L 390.884695 191.226005 
L 394.601952 195.490967 
L 398.125779 199.895022 
L 401.450182 204.427732 
L 404.569528 209.078224 
L 407.479538 213.838029 
L 410.176532 218.700931 
L 412.655317 223.656318 
L 414.911232 228.693533 
L 416.940178 233.801945 
L 418.738623 238.970952 
L 420.303596 244.189982 
L 421.63269 249.448491 
L 422.724064 254.735965 
L 423.576437 260.041918 
L 424.189096 265.355894 
L 424.561889 270.667465 
L 424.695228 275.966233 
L 424.59009 281.241828 
L 424.248015 286.483909 
L 423.671107 291.682164 
L 422.862033 296.826312 
L 421.824024 301.906098 
L 420.560876 306.911297 
L 419.076948 311.831714 
L 417.377163 316.657181 
L 415.466124 321.37874 
L 413.346583 325.989924 
L 411.023688 330.481087 
L 408.503076 334.842785 
L 405.790692 339.066056 
L 402.892783 343.142416 
L 399.815905 347.063861 
L 396.56692 350.822867 
L 393.152993 354.412388 
L 389.581598 357.82586 
L 385.860514 361.057196 
L 381.997824 364.100789 
L 378.00192 366.951513 
L 373.881498 369.604719 
L 369.64556 372.05624 
L 365.303414 374.302387 
L 360.864675 376.33995 
L 356.339262 378.166201 
L 351.737402 379.778888 
L 347.069625 381.176241 
L 342.346232 382.357032 
L 337.573669 383.320674 
L 332.761665 384.066095 
L 327.920788 384.592519 
L 323.061434 384.899642 
L 318.193826 384.987627 
L 313.328012 384.85711 
L 308.47387 384.509193 
L 303.641105 383.945453 
L 298.839248 383.16793 
L 294.077658 382.17914 
L 289.365521 380.982064 
L 284.71185 379.580157 
L 280.125486 377.977339 
L 275.615098 376.178003 
L 271.189179 374.187011 
L 266.856054 372.009695 
L 262.62387 369.651855 
L 258.500607 367.119763 
L 254.494066 364.42016 
L 250.611882 361.560256 
L 246.861511 358.547731 
L 243.249661 355.389844 
L 239.780653 352.090248 
L 236.461085 348.655931 
L 233.297504 345.094555 
L 230.296002 341.413894 
L 227.462215 337.621833 
L 224.801324 333.726368 
L 222.318055 329.735606 
L 220.016677 325.657766 
L 217.901006 321.501176 
L 215.974401 317.274277 
L 214.239764 312.98562 
L 212.699546 308.643869 
L 211.355738 304.257796 
L 210.209878 299.836287 
L 209.263049 295.388337 
L 208.515877 290.923054 
L 207.968533 286.449656 
L 207.620732 281.977472 
L 207.471737 277.515942 
L 207.520418 273.074153 
L 207.765995 268.658018 
L 208.207416 264.276444 
L 208.843176 259.938912 
L 209.671392 255.654602 
L 210.689801 251.4324 
L 211.895764 247.280896 
L 213.286259 243.208383 
L 214.857889 239.222858 
L 216.606876 235.332022 
L 218.529064 231.543279 
L 220.619917 227.863736 
L 222.874523 224.300206 
L 225.287588 220.859204 
L 227.85344 217.54695 
L 230.56603 214.369365 
L 233.418927 211.332076 
L 236.405325 208.440415 
L 239.518035 205.699414 
L 242.749492 203.113811 
L 246.091752 200.688048 
L 249.53649 198.42627 
L 253.076838 196.331675 
L 256.707967 194.40673 
L 260.421715 192.655005 
L 264.209831 191.079671 
L 268.06408 189.683455 
L 271.976244 188.468641 
L 275.93812 187.437073 
L 279.941522 186.590148 
L 283.97828 185.928823 
L 288.040241 185.453613 
L 292.119269 185.164587 
L 296.207241 185.061375 
L 300.296054 185.143161 
L 304.37762 185.408688 
L 308.443868 185.856255 
L 312.48674 186.483721 
L 316.4982 187.288498 
L 320.470223 188.267559 
L 324.394804 189.417433 
L 328.263952 190.734205 
L 332.069694 192.213518 
L 335.804841 193.851164 
L 339.464783 195.644899 
L 343.042204 197.590523 
L 346.529743 199.683364 
L 349.920378 201.918549 
L 353.207427 204.290995 
L 356.384548 206.795415 
L 359.445737 209.426316 
L 362.385329 212.178001 
L 365.197999 215.044565 
L 367.878761 218.019899 
L 370.422968 221.097687 
L 372.826312 224.271408 
L 375.084826 227.534335 
L 377.194879 230.879537 
L 379.153182 234.299874 
L 380.956783 237.788005 
L 382.603072 241.336378 
L 384.089775 244.937239 
L 385.41496 248.582628 
L 386.577033 252.264378 
L 387.57495 255.975962 
L 388.407682 259.711968 
L 389.073894 263.464202 
L 389.572621 267.224574 
L 389.903273 270.985141 
L 390.065638 274.738107 
L 390.059878 278.475824 
L 389.886531 282.19079 
L 389.546511 285.87565 
L 389.04111 289.523197 
L 388.371992 293.12637 
L 387.541199 296.678254 
L 386.551151 300.172083 
L 385.404639 303.601236 
L 384.104834 306.95924 
L 382.655281 310.23977 
L 381.059902 313.436645 
L 379.322994 316.543834 
L 377.449229 319.555452 
L 375.443657 322.465759 
L 373.311703 325.269165 
L 371.059147 327.960239 
L 368.68964 330.535297 
L 366.207333 332.990213 
L 363.617994 335.320058 
L 360.92749 337.520277 
L 358.141786 339.586683 
L 355.266946 341.515461 
L 352.309136 343.303168 
L 349.274616 344.946729 
L 346.169748 346.443442 
L 343.000993 347.790974 
L 339.77491 348.987364 
L 336.498156 350.031023 
L 333.177489 350.920729 
L 329.819765 351.655634 
L 326.431937 352.235259 
L 323.02106 352.659498 
L 319.594286 352.928613 
L 316.158867 353.043238 
L 312.722152 353.004378 
L 309.291592 352.813408 
L 305.873304 352.471723 
L 302.472113 351.98031 
L 299.095344 351.340759 
L 295.750171 350.554937 
L 292.443551 349.624974 
L 289.182223 348.553268 
L 285.972707 347.34248 
L 282.821306 345.995537 
L 279.734102 344.515631 
L 276.716963 342.906219 
L 273.775535 341.171022 
L 270.915249 339.314028 
L 268.141315 337.339488 
L 265.458727 335.251919 
L 262.87226 333.056105 
L 260.386471 330.757091 
L 258.005699 328.36019 
L 255.734063 325.870979 
L 253.575467 323.2953 
L 251.533594 320.639262 
L 249.611911 317.909235 
L 247.813665 315.111858 
L 246.141548 312.252089 
L 244.598112 309.334175 
L 243.186127 306.364501 
L 241.908039 303.349439 
L 240.765971 300.295343 
L 239.76172 297.208552 
L 238.896762 294.095386 
L 238.172245 290.962147 
L 237.588995 287.815122 
L 237.147515 284.66058 
L 236.847981 281.504772 
L 236.690249 278.353931 
L 236.673846 275.214276 
L 236.79798 272.092004 
L 237.06153 268.9933 
L 237.463055 265.924327 
L 238.000787 262.891234 
L 238.672635 259.900151 
L 238.672635 259.900151 
" clip-path="url(#p370d669518)" style="fill: none; stroke: #000000; stroke-opacity: 0.3; stroke-width: 7; stroke-linecap: square"/>
   </g>
   <g id="line2d_18">
    <path d="M 536.630617 250.661884 
L 537.552838 260.952452 
L 538.013074 271.273903 
L 538.009524 281.605491 
L 537.543413 291.926607 
L 536.615966 302.216638 
L 535.228717 312.455061 
L 533.383868 322.621285 
L 531.084549 332.694708 
L 528.336527 342.655501 
L 525.145568 352.483836 
L 521.517733 362.160042 
L 517.459718 371.664513 
L 512.979191 380.977875 
L 508.086175 390.082066 
L 502.790688 398.959021 
L 497.103017 407.590911 
L 491.034025 415.960075 
L 484.595527 424.049349 
L 477.801303 431.843335 
L 470.665128 439.326631 
L 463.200998 446.484133 
L 455.423415 453.301002 
L 447.347736 459.763151 
L 438.990815 465.858609 
L 430.369502 471.575402 
L 421.5008 476.901905 
L 412.402139 481.826833 
L 403.091641 486.339889 
L 393.588393 490.433123 
L 383.911486 494.098581 
L 374.08008 497.328701 
L 364.113678 500.116306 
L 354.032243 502.455413 
L 343.856153 504.342483 
L 333.605789 505.773982 
L 323.301512 506.746781 
L 312.963939 507.258175 
L 302.613862 507.306789 
L 292.271938 506.893676 
L 281.958825 506.019892 
L 271.695072 504.686902 
L 261.501391 502.896606 
L 251.39835 500.652304 
L 241.405862 497.959591 
L 231.543837 494.82406 
L 221.831982 491.251694 
L 212.290086 487.248908 
L 202.937454 482.823512 
L 193.792261 477.985358 
L 184.872684 472.744303 
L 176.196605 467.110547 
L 167.781914 461.09471 
L 159.645672 454.708708 
L 151.803419 447.966167 
L 144.270695 440.880716 
L 137.062664 433.466262 
L 130.194433 425.737109 
L 123.679959 417.708676 
L 117.531374 409.397685 
L 111.760809 400.82086 
L 106.379956 391.995121 
L 101.400391 382.937752 
L 96.83226 373.666894 
L 92.683685 364.201535 
L 88.96279 354.560663 
L 85.677208 344.763367 
L 82.83441 334.829062 
L 80.440223 324.777687 
L 78.498356 314.629556 
L 77.012518 304.40498 
L 75.985906 294.124261 
L 75.421516 283.807989 
L 75.32056 273.476895 
L 75.68215 263.151606 
L 76.505399 252.85275 
L 77.788909 242.60083 
L 79.531046 232.416593 
L 81.72835 222.320511 
L 84.375382 212.332505 
L 87.466701 202.472496 
L 90.996384 192.76016 
L 94.958245 183.21538 
L 99.344332 173.857335 
L 104.144922 164.704249 
L 109.35029 155.774346 
L 114.950286 147.085497 
L 120.934475 138.655736 
L 127.290813 130.50198 
L 134.005779 122.639852 
L 141.065846 115.084973 
L 148.457145 107.852521 
L 156.165502 100.957786 
L 164.175396 94.414568 
L 172.470174 88.235115 
L 181.033184 82.431674 
L 189.847525 77.015964 
L 198.895986 71.999779 
L 208.160354 67.393107 
L 217.621671 63.204211 
L 227.260983 59.441353 
L 237.059206 56.112216 
L 246.996938 53.224509 
L 257.054194 50.783903 
L 267.210656 48.794269 
L 277.446006 47.259475 
L 287.739928 46.182781 
L 298.071791 45.567428 
L 308.420846 45.414489 
L 318.766423 45.723246 
L 329.087848 46.492984 
L 339.364592 47.722379 
L 349.575807 49.410039 
L 359.701034 51.552385 
L 369.720273 54.144152 
L 379.613525 57.18007 
L 389.361066 60.654301 
L 398.942867 64.560887 
L 408.339791 68.891781 
L 417.5335 73.637425 
L 426.505661 78.788264 
L 435.238342 84.334234 
L 443.713324 90.265102 
L 451.913755 96.568761 
L 459.823873 103.231839 
L 467.427918 110.240965 
L 474.710645 117.582354 
L 481.656549 125.242003 
L 488.251912 133.204356 
L 494.48433 141.452891 
L 500.341398 149.971085 
L 505.81132 158.74212 
L 510.882071 167.748912 
L 515.543762 176.973246 
L 519.787959 186.396267 
L 523.606231 195.999122 
L 526.990816 205.762799 
L 529.933769 215.667979 
L 532.429525 225.694703 
L 534.474042 235.822724 
L 536.063277 246.031791 
L 537.193893 256.301649 
L 537.862419 266.611698 
L 538.067892 276.941246 
L 537.810864 287.269653 
L 537.091881 297.576281 
L 535.912195 307.840638 
L 534.272985 318.041866 
L 532.17794 328.159582 
L 529.632172 338.17378 
L 526.640794 348.064455 
L 523.209582 357.811905 
L 519.344309 367.396043 
L 515.053127 376.797826 
L 510.345459 385.998874 
L 505.230727 394.980806 
L 499.718943 403.725696 
L 493.820193 412.215223 
L 487.546677 420.432643 
L 480.91166 428.362112 
L 473.928408 435.987791 
L 466.61067 443.294418 
L 458.972344 450.266351 
L 451.029062 456.889985 
L 442.797276 463.152804 
L 434.293435 469.04229 
L 425.534338 474.546611 
L 416.537009 479.653579 
L 407.319725 484.353415 
L 397.901305 488.637548 
L 388.300567 492.497406 
L 378.53652 495.925176 
L 368.628473 498.91273 
L 358.596426 501.454605 
L 348.46063 503.546602 
L 338.241338 505.18452 
L 327.958822 506.364954 
L 317.633718 507.084242 
L 307.286739 507.341511 
L 296.938567 507.137142 
L 286.609883 506.471513 
L 276.32121 505.345797 
L 266.093488 503.760981 
L 255.947101 501.720827 
L 245.902134 499.230274 
L 235.97867 496.294262 
L 226.196459 492.918483 
L 216.575707 489.108527 
L 207.135442 484.872596 
L 197.894155 480.219947 
L 188.870334 475.159835 
L 180.081971 469.702187 
L 171.547534 463.856918 
L 163.283738 457.636261 
L 155.306562 451.053327 
L 147.631984 444.121228 
L 140.275337 436.853629 
L 133.252435 429.264284 
L 126.576841 421.368835 
L 120.261226 413.183601 
L 114.318266 404.724897 
L 108.759871 396.009446 
L 103.598415 387.054158 
L 98.843623 377.877298 
L 94.504235 368.497578 
L 90.588992 358.933713 
L 87.105789 349.204645 
L 84.062943 339.329604 
L 81.465854 329.328556 
L 79.318896 319.221681 
L 77.626443 309.029161 
L 76.391978 298.771215 
L 75.619348 288.468435 
L 75.309358 278.141487 
L 75.461799 267.811016 
L 76.076459 257.497669 
L 77.152238 247.221932 
L 78.688319 237.004742 
L 80.680874 226.866419 
L 83.125118 216.827051 
L 86.016267 206.906726 
L 89.348691 197.125174 
L 93.116949 187.502634 
L 97.312771 178.058064 
L 101.927038 168.809994 
L 106.950628 159.776958 
L 112.373664 150.976944 
L 118.186348 142.428489 
L 124.376388 134.148233 
L 130.930778 126.152233 
L 137.836516 118.456543 
L 145.079968 111.076517 
L 152.647466 104.028066 
L 160.523313 97.324676 
L 168.691266 90.979132 
L 177.135082 85.004217 
L 185.838056 79.411879 
L 194.783324 74.214614 
L 203.952575 69.422077 
L 213.327135 65.043146 
L 222.888328 61.086697 
L 232.617208 57.560679 
L 242.494556 54.473548 
L 252.500367 51.830644 
L 262.614461 49.636499 
L 272.816657 47.895643 
L 283.086715 46.611623 
L 293.404013 45.788439 
L 303.74786 45.426848 
L 314.097569 45.526809 
L 324.432458 46.088279 
L 334.732002 47.110233 
L 344.9752 48.59201 
L 355.141714 50.529748 
L 365.211382 52.918834 
L 375.164041 55.754657 
L 384.979908 59.031668 
L 394.63865 62.744577 
L 404.121301 66.885097 
L 413.409221 71.444276 
L 422.483773 76.413162 
L 431.3269 81.781956 
L 439.919948 87.541005 
L 448.246275 93.678013 
L 456.289693 100.180131 
L 464.03401 107.03451 
L 471.4638 114.227594 
L 478.563013 121.745843 
L 485.318171 129.573572 
L 491.716336 137.694671 
L 497.744567 146.093033 
L 503.390839 154.752022 
L 508.642507 163.654882 
L 513.48993 172.783325 
L 517.924063 182.118785 
L 521.93586 191.642693 
L 525.517296 201.336163 
L 528.65976 211.180056 
L 531.357932 221.154404 
L 533.60711 231.239099 
L 535.40259 241.414037 
L 536.74075 251.659024 
L 537.617439 261.953488 
L 538.031928 272.276782 
L 537.98409 282.60826 
L 537.473795 292.927274 
L 536.502006 303.213334 
L 535.069242 313.445458 
L 533.179397 323.603356 
L 530.836925 333.666867 
L 528.046281 343.615826 
L 524.812961 353.430468 
L 521.14213 363.090446 
L 517.042109 372.576847 
L 512.521714 381.870992 
L 507.58976 390.954202 
L 502.256005 399.808424 
L 496.530004 408.414958 
L 490.424085 416.757215 
L 483.950988 424.818928 
L 477.123453 432.583831 
L 469.955011 440.036482 
L 462.459131 447.160761 
L 454.651532 453.943234 
L 446.548246 460.370853 
L 438.165303 466.430571 
L 429.519332 472.110332 
L 420.627048 477.397396 
L 411.506772 482.282158 
L 402.177029 486.755438 
L 392.656347 490.808054 
L 382.963623 494.431937 
L 373.117985 497.618364 
L 363.139434 500.36204 
L 353.048075 502.658106 
L 342.864011 504.501703 
L 332.60746 505.889154 
L 322.299017 506.816183 
L 311.959359 507.282073 
L 301.609169 507.286528 
L 291.26913 506.829252 
L 280.959774 505.911142 
L 270.702133 504.532586 
L 260.516525 502.697478 
L 250.423187 500.4101 
L 240.442352 497.674733 
L 230.593842 494.496805 
L 220.898079 490.88135 
L 211.374004 486.836676 
L 202.040401 482.37143 
L 192.916053 477.494258 
L 184.019079 472.21485 
L 175.368275 466.542632 
L 166.980256 460.489911 
L 158.871421 454.06927 
L 151.058169 447.293293 
L 143.556012 440.175444 
L 136.381184 432.729076 
L 129.54714 424.969876 
L 123.067083 416.91374 
L 116.954213 408.576562 
L 111.220658 399.97491 
L 105.879284 391.125399 
L 100.939712 382.046311 
L 96.411291 372.756063 
L 92.303369 363.273074 
L 88.624084 353.616186 
L 85.382292 343.80445 
L 82.583298 333.857825 
L 80.232134 323.796338 
L 78.333833 313.640015 
L 76.892134 303.409035 
L 75.911443 293.123933 
L 75.392482 282.805347 
L 75.335719 272.473918 
L 75.741618 262.150288 
L 76.609336 251.854962 
L 77.938606 241.608938 
L 79.725535 231.432498 
L 81.966001 221.345874 
L 84.655878 211.3693 
L 87.78978 201.522579 
L 91.362781 191.826131 
L 95.36657 182.298863 
L 99.792635 172.959595 
L 104.632471 163.827146 
L 109.876413 154.919632 
L 115.515126 146.255874 
L 121.53629 137.852459 
L 127.927435 129.725861 
L 134.676089 121.892551 
L 141.768799 114.36805 
L 149.192279 107.168644 
L 156.930824 100.30777 
L 164.968619 93.798737 
L 173.289849 87.654851 
L 181.877941 81.888262 
L 190.716322 76.51191 
L 199.786686 71.535409 
L 209.070661 66.968243 
L 218.549871 62.819894 
L 228.205453 59.09853 
L 238.018372 55.813103 
L 247.968639 52.968921 
L 258.036234 50.571174 
L 268.201134 48.625047 
L 278.443129 47.134322 
L 288.741668 46.103511 
L 299.076081 45.533356 
L 309.425694 45.424492 
L 319.76983 45.777551 
L 330.087942 46.591737 
L 340.358988 47.866902 
L 350.562651 49.599181 
L 360.678628 51.784623 
L 370.686617 54.419278 
L 380.566758 57.497809 
L 390.298568 61.015415 
L 399.863099 64.963819 
L 409.241428 69.334682 
L 418.414632 74.119665 
L 427.364536 79.309157 
L 436.072235 84.893943 
L 444.521096 90.861749 
L 452.694516 97.200261 
L 460.575892 103.897165 
L 468.149641 110.939058 
L 475.399376 118.312769 
L 482.311616 126.00264 
L 488.8729 133.992994 
L 495.069766 142.268154 
L 500.890008 150.811593 
L 506.320571 159.606842 
L 511.351798 168.635643 
L 515.974039 177.879733 
L 520.177655 187.320845 
L 523.954392 196.940167 
L 527.295211 206.718741 
L 530.194752 216.636625 
L 532.647655 226.673877 
L 534.64859 236.810555 
L 536.193642 247.026483 
L 537.278265 257.301175 
L 537.901655 267.614 
L 538.063008 277.944324 
L 537.761567 288.271527 
L 536.997953 298.575058 
L 535.772341 308.833943 
L 534.088521 319.027888 
L 531.950284 329.136592 
L 529.361484 339.139787 
L 526.327254 349.01755 
L 522.852471 358.749493 
L 518.945334 368.31666 
L 514.614043 377.700094 
L 509.866865 386.88089 
L 504.713197 395.840731 
L 499.162371 404.560849 
L 493.226585 413.024569 
L 486.918039 421.215217 
L 480.249 429.116198 
L 473.232676 436.711698 
L 465.88237 443.98552 
L 458.213676 450.924102 
L 450.242188 457.513879 
L 441.98356 463.741392 
L 433.454166 469.594108 
L 424.670601 475.059227 
L 415.651079 480.126967 
L 406.413818 484.787546 
L 396.97707 489.031316 
L 387.35958 492.849641 
L 377.580386 496.233763 
L 367.65942 499.178168 
L 357.616617 501.677344 
L 347.471918 503.725932 
L 337.245519 505.319621 
L 326.957933 506.454136 
L 316.62982 507.128507 
L 306.281843 507.341761 
L 295.934632 507.093099 
L 285.608851 506.382747 
L 275.325439 505.211131 
L 265.104761 503.581867 
L 254.967182 501.498576 
L 244.932991 498.96505 
L 235.022304 495.986053 
L 225.255425 492.566679 
L 215.651411 488.714958 
L 206.229318 484.438917 
L 197.008083 479.746755 
L 188.006286 474.64754 
L 179.242563 469.150775 
L 170.733718 463.268501 
L 162.496553 457.012759 
L 154.547706 450.395738 
L 146.903307 443.430373 
L 139.579381 436.130087 
L 132.589644 428.510336 
L 125.947812 420.586574 
L 119.667391 412.374374 
L 113.761268 403.889905 
L 108.242045 395.149826 
L 103.11967 386.17224 
L 98.404089 376.975249 
L 94.105005 367.577028 
L 90.231427 357.99619 
L 86.791895 348.251782 
L 83.792095 338.363654 
L 81.237712 328.351659 
L 79.134162 318.235667 
L 77.486127 308.035821 
L 76.297656 297.772586 
L 75.569891 287.466578 
L 75.303975 277.138412 
L 75.50088 266.808682 
L 76.160718 256.498082 
L 77.282236 246.227327 
L 78.862426 236.016854 
L 80.89828 225.887102 
L 80.89828 225.887102 
" clip-path="url(#p370d669518)" style="fill: none; stroke-dasharray: 22.4,5.6,3.5,5.6; stroke-dashoffset: 0; stroke: #0000ff; stroke-opacity: 0.8; stroke-width: 3.5"/>
   </g>
   <g id="patch_3">
    <path d="M 52.160938 530.438125 
L 52.160938 22.318125 
" style="fill: none; stroke: #000000; stroke-width: 0.8; stroke-linejoin: miter; stroke-linecap: square"/>
   </g>
   <g id="patch_4">
    <path d="M 561.210937 530.438125 
L 561.210937 22.318125 
" style="fill: none; stroke: #000000; stroke-width: 0.8; stroke-linejoin: miter; stroke-linecap: square"/>
   </g>
   <g id="patch_5">
    <path d="M 52.160937 530.438125 
L 561.210937 530.438125 
" style="fill: none; stroke: #000000; stroke-width: 0.8; stroke-linejoin: miter; stroke-linecap: square"/>
   </g>
   <g id="patch_6">
    <path d="M 52.160937 22.318125 
L 561.210937 22.318125 
" style="fill: none; stroke: #000000; stroke-width: 0.8; stroke-linejoin: miter; stroke-linecap: square"/>
   </g>
   <g id="line2d_19">
    <path d="M 536.630617 250.661884 
L 537.553571 260.916517 
L 538.016282 271.197106 
L 538.017229 281.48638 
L 537.557432 291.767065 
L 536.637911 302.021886 
L 535.259978 312.233368 
L 533.425453 322.384319 
L 531.13684 332.457567 
L 528.399167 342.43403 
L 525.217464 352.294622 
L 521.597148 362.019925 
L 517.544075 371.589907 
L 513.064947 380.983268 
L 508.169626 390.175883 
L 502.86797 399.143628 
L 497.170211 407.862914 
L 491.087322 416.308093 
L 484.631695 424.452718 
L 477.81854 432.275093 
L 470.663066 439.753521 
L 463.180628 446.867509 
L 455.387594 453.597307 
L 447.301597 459.926518 
L 438.941185 465.847677 
L 430.324906 471.35332 
L 421.471282 476.436479 
L 412.399329 481.093337 
L 403.128332 485.323377 
L 393.67725 489.128722 
L 384.065043 492.511491 
L 374.310638 495.473662 
L 364.432895 498.018235 
L 354.450479 500.148296 
L 344.381827 501.865632 
L 334.245375 503.172029 
L 324.059564 504.069082 
L 313.842715 504.558121 
L 303.613056 504.639821 
L 293.38888 504.313727 
L 283.188478 503.579382 
L 273.03019 502.436163 
L 262.93228 500.883137 
L 252.913084 498.918642 
L 242.991242 496.540091 
L 233.185397 493.744898 
L 223.514186 490.53106 
L 213.996423 486.894813 
L 204.651179 482.83294 
L 195.497493 478.345868 
L 186.55441 473.434024 
L 177.840683 468.099332 
L 169.375685 462.343247 
L 161.178525 456.171744 
L 153.266741 449.598828 
L 145.657872 442.638506 
L 138.368921 435.305452 
L 131.417171 427.617709 
L 124.818377 419.597284 
L 118.585574 411.268685 
L 112.731791 402.65642 
L 107.269543 393.784503 
L 102.21087 384.67877 
L 97.565815 375.364089 
L 93.342067 365.862469 
L 89.547312 356.195917 
L 86.1888 346.386105 
L 83.273294 336.453641 
L 80.805921 326.417584 
L 78.789974 316.295783 
L 77.228743 306.106086 
L 76.125089 295.866307 
L 75.481652 285.593846 
L 75.299574 275.305947 
L 75.57825 265.019858 
L 76.317073 254.75283 
L 77.514963 244.522368 
L 79.170759 234.345343 
L 81.281742 224.239246 
L 83.843336 214.222764 
L 86.850963 204.314583 
L 90.29944 194.533973 
L 94.183725 184.900075 
L 98.496844 175.434244 
L 103.229503 166.160146 
L 108.372412 157.101448 
L 113.915669 148.281246 
L 119.849133 139.725811 
L 126.160308 131.460641 
L 132.834508 123.50841 
L 139.857049 115.891793 
L 147.212955 108.63163 
L 154.886259 101.75016 
L 162.859434 95.263228 
L 171.114131 89.179914 
L 179.632002 83.509302 
L 188.394705 78.259482 
L 197.383186 73.435573 
L 206.578237 69.038397 
L 215.960857 65.066272 
L 225.512045 61.517514 
L 235.212853 58.390566 
L 245.044335 55.682182 
L 254.987816 53.389454 
L 265.024815 51.510356 
L 275.136851 50.042863 
L 285.305445 48.985235 
L 295.512274 48.335814 
L 305.739081 48.093987 
L 315.967584 48.259977 
L 326.179499 48.834007 
L 336.35648 49.81658 
L 346.480332 51.208274 
L 356.532685 53.01074 
L 366.494956 55.226407 
L 376.348561 57.857708 
L 386.074898 60.906473 
L 395.655207 64.376934 
L 405.070489 68.271685 
L 414.301698 72.591162 
L 423.329788 77.335798 
L 432.136046 82.504 
L 440.700808 88.096529 
L 449.005203 94.106876 
L 457.031379 100.522711 
L 464.761484 107.331701 
L 472.178378 114.52025 
L 479.264045 122.071806 
L 486.002929 129.964742 
L 492.381423 138.174995 
L 498.385918 146.678504 
L 504.003554 155.451722 
L 509.221537 164.468171 
L 514.029894 173.703292 
L 518.420404 183.134486 
L 522.384846 192.739151 
L 525.91563 202.495248 
L 529.005421 212.381556 
L 531.649154 222.378933 
L 533.843107 232.469297 
L 535.583557 242.634566 
L 536.867378 252.856751 
L 537.691409 263.11841 
L 538.054587 273.402275 
L 537.957106 283.691111 
L 537.39916 293.967681 
L 536.381576 304.214489 
L 534.904982 314.4148 
L 532.972202 324.550961 
L 530.587369 334.604623 
L 527.754615 344.557439 
L 524.478864 354.390276 
L 520.76451 364.084787 
L 516.61867 373.619565 
L 512.050077 382.971469 
L 507.067465 392.117356 
L 501.680409 401.034482 
L 495.898309 409.696514 
L 489.733698 418.0785 
L 483.200714 426.156963 
L 476.313494 433.908428 
L 469.086657 441.311721 
L 461.535735 448.342536 
L 453.678152 454.985337 
L 445.532019 461.22938 
L 437.115447 467.063916 
L 428.446597 472.479828 
L 419.54452 477.47052 
L 410.428357 482.034923 
L 401.11714 486.174143 
L 391.6299 489.889283 
L 381.985593 493.181462 
L 372.203258 496.054044 
L 362.301577 498.509804 
L 352.29908 500.550989 
L 342.214301 502.179845 
L 332.065751 503.398243 
L 321.87177 504.208135 
L 311.650633 504.610122 
L 301.420621 504.60421 
L 291.200014 504.190407 
L 281.007161 503.368334 
L 270.86021 502.137735 
L 260.777553 500.496964 
L 250.777717 498.443784 
L 240.879232 495.97596 
L 231.100677 493.091736 
L 221.460729 489.786819 
L 211.97835 486.058912 
L 202.672569 481.906867 
L 193.56242 477.329536 
L 184.6666 472.328155 
L 176.004927 466.900235 
L 167.596137 461.052515 
L 159.458357 454.795644 
L 151.609714 448.140271 
L 144.067492 441.099038 
L 136.850286 433.686806 
L 129.973567 425.92492 
L 123.451504 417.836813 
L 117.298265 409.44592 
L 111.527051 400.775327 
L 106.151326 391.851881 
L 101.181078 382.699941 
L 96.625076 373.342678 
L 92.492084 363.803261 
L 88.790037 354.104038 
L 85.52677 344.266902 
L 82.707366 334.311071 
L 80.335983 324.254913 
L 78.416782 314.116795 
L 76.953162 303.914896 
L 75.94872 293.666718 
L 75.404521 283.389546 
L 75.320781 273.100618 
L 75.697721 262.81717 
L 76.534771 252.556662 
L 77.831741 242.33582 
L 79.585796 232.172346 
L 81.793241 222.084305 
L 84.450379 212.089761 
L 87.552557 202.207708 
L 91.095897 192.455842 
L 95.073256 182.855569 
L 99.476446 173.42946 
L 104.297278 164.200085 
L 109.526498 155.189957 
L 115.155356 146.425038 
L 121.171361 137.930045 
L 127.560937 129.729072 
L 134.31051 121.846213 
L 141.405796 114.302982 
L 148.831721 107.12531 
L 156.570974 100.328695 
L 164.605722 93.925565 
L 172.918128 87.928349 
L 181.490207 82.347088 
L 190.302953 77.189985 
L 199.337281 72.458344 
L 208.574148 68.151782 
L 217.994507 64.269918 
L 227.579399 60.812066 
L 237.309695 57.774894 
L 247.166706 55.155714 
L 257.131843 52.952086 
L 267.186521 51.16157 
L 277.312195 49.782185 
L 287.4905 48.811702 
L 297.703147 48.249496 
L 307.931851 48.09533 
L 318.158331 48.348965 
L 328.364236 49.010654 
L 338.531447 50.080377 
L 348.641563 51.55976 
L 358.676106 53.450816 
L 368.616598 55.755559 
L 378.444477 58.475732 
L 388.141156 61.615408 
L 397.687698 65.176818 
L 407.0651 69.161679 
L 416.254363 73.571706 
L 425.23678 78.406056 
L 433.992487 83.668476 
L 442.502804 89.352301 
L 450.749368 95.448543 
L 458.713816 101.948218 
L 466.378711 108.83952 
L 473.725017 116.109398 
L 480.73725 123.736765 
L 487.400695 131.698998 
L 493.700639 139.973473 
L 499.62356 148.537514 
L 505.155392 157.364211 
L 510.286052 166.429278 
L 515.006214 175.709024 
L 519.306554 185.179759 
L 523.178808 194.81888 
L 526.614688 204.603782 
L 529.609022 214.515163 
L 532.157207 224.534315 
L 534.254639 234.642529 
L 535.897652 244.821442 
L 537.082272 255.053456 
L 537.807365 265.321271 
L 538.072301 275.607636 
L 537.876449 285.895301 
L 537.220123 296.16685 
L 536.103147 306.405497 
L 534.528287 316.593563 
L 532.498809 326.713215 
L 530.017978 336.746618 
L 527.090177 346.674932 
L 523.718873 356.480946 
L 519.911135 366.143339 
L 515.674619 375.640134 
L 511.016982 384.949358 
L 505.947173 394.048644 
L 500.47337 402.912699 
L 494.607945 411.516832 
L 488.363899 419.836516 
L 481.754231 427.847221 
L 474.792926 435.527068 
L 467.49457 442.848946 
L 459.876346 449.797115 
L 451.955774 456.357473 
L 443.750371 462.515921 
L 435.277971 468.261614 
L 426.557477 473.584639 
L 417.607929 478.483431 
L 408.448365 482.957501 
L 399.097824 487.006361 
L 389.575268 490.630311 
L 379.899908 493.832462 
L 370.090448 496.615471 
L 360.165533 498.981929 
L 350.143808 500.93443 
L 340.043845 502.475045 
L 329.884045 503.606268 
L 319.68271 504.328779 
L 309.45813 504.643049 
L 299.228598 504.549548 
L 289.01246 504.048155 
L 278.827824 503.13911 
L 268.693089 501.820842 
L 258.626688 500.091578 
L 248.647055 497.949546 
L 238.772736 495.392974 
L 229.022231 492.418184 
L 219.414457 489.022869 
L 209.968374 485.20488 
L 200.702941 480.96207 
L 191.636891 476.294856 
L 182.790045 471.198664 
L 174.181093 465.679801 
L 165.828595 459.745636 
L 157.751109 453.403538 
L 149.966231 446.66459 
L 142.493318 439.539974 
L 135.347957 432.050484 
L 128.545385 424.217755 
L 122.100842 416.063427 
L 116.028145 407.609855 
L 110.341908 398.883678 
L 105.052382 389.909235 
L 100.169461 380.710668 
L 95.703039 371.312121 
L 91.661681 361.736401 
L 88.054108 352.006847 
L 84.885638 342.142862 
L 82.16133 332.163554 
L 79.886239 322.088031 
L 78.064278 311.934815 
L 76.699762 301.721656 
L 75.793952 291.465866 
L 75.347892 281.184721 
L 75.362625 270.8955 
L 75.838072 260.615573 
L 76.774736 250.361826 
L 78.16998 240.151866 
L 80.020965 230.003346 
L 82.32485 219.933919 
L 85.077507 209.962251 
L 88.275814 200.105241 
L 91.912854 190.384025 
L 95.981489 180.819979 
L 100.47458 171.434478 
L 105.383463 162.249802 
L 110.700467 153.29039 
L 116.413409 144.58102 
L 122.509873 136.146477 
L 128.977443 128.011549 
L 135.802394 120.198523 
L 142.970654 112.735254 
L 150.465189 105.637999 
L 158.268834 98.922489 
L 166.364427 92.604455 
L 174.734256 86.695428 
L 183.359584 81.207096 
L 192.221408 76.141354 
L 201.300716 71.499709 
L 210.578499 67.283667 
L 220.03579 63.49322 
L 229.653309 60.125706 
L 239.412332 57.178442 
L 249.294154 54.648738 
L 259.280068 52.533904 
L 269.35148 50.831788 
L 279.489942 49.539646 
L 289.677145 48.656717 
L 299.894782 48.182292 
L 310.124546 48.115664 
L 320.348099 48.45683 
L 330.547329 49.205369 
L 340.703848 50.36276 
L 350.799262 51.930529 
L 360.815176 53.9102 
L 370.733059 56.303585 
L 380.534492 59.113878 
L 390.200575 62.343539 
L 399.712402 65.995019 
L 409.051064 70.070767 
L 418.197793 74.570831 
L 427.132862 79.500227 
L 435.837537 84.853262 
L 444.293099 90.624111 
L 452.480827 96.806947 
L 460.382963 103.391313 
L 467.979935 110.367891 
L 475.255977 117.716279 
L 482.195353 125.41599 
L 488.782325 133.446539 
L 495.002808 141.785749 
L 500.841679 150.407614 
L 506.288456 159.287626 
L 511.332666 168.401282 
L 515.963847 177.724087 
L 520.173149 187.233017 
L 523.951439 196.904059 
L 527.293195 206.71765 
L 530.192896 216.654229 
L 532.645044 226.69424 
L 534.645446 236.819029 
L 536.189526 247.010631 
L 537.275827 257.251726 
L 537.90289 267.524993 
L 538.069298 277.813105 
L 537.774807 288.098746 
L 537.018723 298.364908 
L 535.803465 308.594079 
L 534.131451 318.768744 
L 532.005165 328.871323 
L 529.42831 338.883539 
L 526.403904 348.788454 
L 522.938579 358.565278 
L 519.03897 368.193221 
L 514.711812 377.651462 
L 509.965214 386.917864 
L 504.806687 395.968845 
L 499.248059 404.779531 
L 493.301157 413.325048 
L 486.977894 421.5808 
L 480.29153 429.523191 
L 473.255845 437.124869 
L 465.887612 444.368539 
L 458.203604 451.236911 
L 450.220609 457.713033 
L 441.956209 463.783774 
L 433.428951 469.436659 
L 424.657793 474.66902 
L 415.661693 479.478189 
L 406.45959 483.861547 
L 397.070518 487.81881 
L 387.513752 491.352062 
L 377.80806 494.46402 
L 367.972211 497.157407 
L 358.024966 499.434864 
L 347.984955 501.298859 
L 337.870665 502.752125 
L 327.700419 503.795613 
L 317.492545 504.430272 
L 307.265379 504.656966 
L 297.037219 504.476063 
L 286.826222 503.887888 
L 276.65075 502.891168 
L 266.529163 501.484629 
L 256.479846 499.666997 
L 246.521242 497.436416 
L 236.671776 494.790206 
L 226.950297 491.725735 
L 217.375656 488.240366 
L 207.966659 484.33196 
L 198.742244 479.998488 
L 189.721879 475.236297 
L 180.924408 470.049765 
L 172.368675 464.443272 
L 164.073324 458.421882 
L 156.056887 451.993448 
L 148.338457 445.167534 
L 140.934241 437.963324 
L 133.860446 430.400003 
L 127.132994 422.496786 
L 120.76706 414.275769 
L 114.777394 405.762021 
L 109.175052 396.980295 
L 103.971091 387.955342 
L 99.176318 378.711616 
L 94.800506 369.273209 
L 90.852533 359.663902 
L 87.338394 349.903759 
L 84.264087 340.012848 
L 81.635377 330.011147 
L 79.457239 319.917597 
L 77.733976 309.750267 
L 76.467459 299.526543 
L 75.659562 289.263812 
L 75.312017 278.979468 
L 75.425828 268.690765 
L 76.000868 258.414916 
L 77.035524 248.169256 
L 78.528184 237.971122 
L 78.528184 237.971122 
" clip-path="url(#p370d669518)" style="fill: none; stroke-dasharray: 3.5,5.775; stroke-dashoffset: 0; stroke: #008000; stroke-opacity: 0.8; stroke-width: 3.5"/>
   </g>
   <g id="text_19">
    <!-- Phase Portrait (x0 vs x1) -->
    <g transform="translate(232.994687 16.318125) scale(0.12 -0.12)">
     <defs>
      <path id="DejaVuSans-50" d="M 1259 4147 
L 1259 2394 
L 2053 2394 
Q 2494 2394 2734 2622 
Q 2975 2850 2975 3272 
Q 2975 3691 2734 3919 
Q 2494 4147 2053 4147 
L 1259 4147 
z
M 628 4666 
L 2053 4666 
Q 2838 4666 3239 4311 
Q 3641 3956 3641 3272 
Q 3641 2581 3239 2228 
Q 2838 1875 2053 1875 
L 1259 1875 
L 1259 0 
L 628 0 
L 628 4666 
z
" transform="scale(0.015625)"/>
      <path id="DejaVuSans-68" d="M 3513 2113 
L 3513 0 
L 2938 0 
L 2938 2094 
Q 2938 2591 2744 2837 
Q 2550 3084 2163 3084 
Q 1697 3084 1428 2787 
Q 1159 2491 1159 1978 
L 1159 0 
L 581 0 
L 581 4863 
L 1159 4863 
L 1159 2956 
Q 1366 3272 1645 3428 
Q 1925 3584 2291 3584 
Q 2894 3584 3203 3211 
Q 3513 2838 3513 2113 
z
" transform="scale(0.015625)"/>
      <path id="DejaVuSans-61" d="M 2194 1759 
Q 1497 1759 1228 1600 
Q 959 1441 959 1056 
Q 959 750 1161 570 
Q 1363 391 1709 391 
Q 2188 391 2477 730 
Q 2766 1069 2766 1631 
L 2766 1759 
L 2194 1759 
z
M 3341 1997 
L 3341 0 
L 2766 0 
L 2766 531 
Q 2569 213 2275 61 
Q 1981 -91 1556 -91 
Q 1019 -91 701 211 
Q 384 513 384 1019 
Q 384 1609 779 1909 
Q 1175 2209 1959 2209 
L 2766 2209 
L 2766 2266 
Q 2766 2663 2505 2880 
Q 2244 3097 1772 3097 
Q 1472 3097 1187 3025 
Q 903 2953 641 2809 
L 641 3341 
Q 956 3463 1253 3523 
Q 1550 3584 1831 3584 
Q 2591 3584 2966 3190 
Q 3341 2797 3341 1997 
z
" transform="scale(0.015625)"/>
      <path id="DejaVuSans-73" d="M 2834 3397 
L 2834 2853 
Q 2591 2978 2328 3040 
Q 2066 3103 1784 3103 
Q 1356 3103 1142 2972 
Q 928 2841 928 2578 
Q 928 2378 1081 2264 
Q 1234 2150 1697 2047 
L 1894 2003 
Q 2506 1872 2764 1633 
Q 3022 1394 3022 966 
Q 3022 478 2636 193 
Q 2250 -91 1575 -91 
Q 1294 -91 989 -36 
Q 684 19 347 128 
L 347 722 
Q 666 556 975 473 
Q 1284 391 1588 391 
Q 1994 391 2212 530 
Q 2431 669 2431 922 
Q 2431 1156 2273 1281 
Q 2116 1406 1581 1522 
L 1381 1569 
Q 847 1681 609 1914 
Q 372 2147 372 2553 
Q 372 3047 722 3315 
Q 1072 3584 1716 3584 
Q 2034 3584 2315 3537 
Q 2597 3491 2834 3397 
z
" transform="scale(0.015625)"/>
      <path id="DejaVuSans-65" d="M 3597 1894 
L 3597 1613 
L 953 1613 
Q 991 1019 1311 708 
Q 1631 397 2203 397 
Q 2534 397 2845 478 
Q 3156 559 3463 722 
L 3463 178 
Q 3153 47 2828 -22 
Q 2503 -91 2169 -91 
Q 1331 -91 842 396 
Q 353 884 353 1716 
Q 353 2575 817 3079 
Q 1281 3584 2069 3584 
Q 2775 3584 3186 3129 
Q 3597 2675 3597 1894 
z
M 3022 2063 
Q 3016 2534 2758 2815 
Q 2500 3097 2075 3097 
Q 1594 3097 1305 2825 
Q 1016 2553 972 2059 
L 3022 2063 
z
" transform="scale(0.015625)"/>
      <path id="DejaVuSans-20" transform="scale(0.015625)"/>
      <path id="DejaVuSans-6f" d="M 1959 3097 
Q 1497 3097 1228 2736 
Q 959 2375 959 1747 
Q 959 1119 1226 758 
Q 1494 397 1959 397 
Q 2419 397 2687 759 
Q 2956 1122 2956 1747 
Q 2956 2369 2687 2733 
Q 2419 3097 1959 3097 
z
M 1959 3584 
Q 2709 3584 3137 3096 
Q 3566 2609 3566 1747 
Q 3566 888 3137 398 
Q 2709 -91 1959 -91 
Q 1206 -91 779 398 
Q 353 888 353 1747 
Q 353 2609 779 3096 
Q 1206 3584 1959 3584 
z
" transform="scale(0.015625)"/>
      <path id="DejaVuSans-72" d="M 2631 2963 
Q 2534 3019 2420 3045 
Q 2306 3072 2169 3072 
Q 1681 3072 1420 2755 
Q 1159 2438 1159 1844 
L 1159 0 
L 581 0 
L 581 3500 
L 1159 3500 
L 1159 2956 
Q 1341 3275 1631 3429 
Q 1922 3584 2338 3584 
Q 2397 3584 2469 3576 
Q 2541 3569 2628 3553 
L 2631 2963 
z
" transform="scale(0.015625)"/>
      <path id="DejaVuSans-74" d="M 1172 4494 
L 1172 3500 
L 2356 3500 
L 2356 3053 
L 1172 3053 
L 1172 1153 
Q 1172 725 1289 603 
Q 1406 481 1766 481 
L 2356 481 
L 2356 0 
L 1766 0 
Q 1100 0 847 248 
Q 594 497 594 1153 
L 594 3053 
L 172 3053 
L 172 3500 
L 594 3500 
L 594 4494 
L 1172 4494 
z
" transform="scale(0.015625)"/>
      <path id="DejaVuSans-69" d="M 603 3500 
L 1178 3500 
L 1178 0 
L 603 0 
L 603 3500 
z
M 603 4863 
L 1178 4863 
L 1178 4134 
L 603 4134 
L 603 4863 
z
" transform="scale(0.015625)"/>
      <path id="DejaVuSans-28" d="M 1984 4856 
Q 1566 4138 1362 3434 
Q 1159 2731 1159 2009 
Q 1159 1288 1364 580 
Q 1569 -128 1984 -844 
L 1484 -844 
Q 1016 -109 783 600 
Q 550 1309 550 2009 
Q 550 2706 781 3412 
Q 1013 4119 1484 4856 
L 1984 4856 
z
" transform="scale(0.015625)"/>
      <path id="DejaVuSans-76" d="M 191 3500 
L 800 3500 
L 1894 563 
L 2988 3500 
L 3597 3500 
L 2284 0 
L 1503 0 
L 191 3500 
z
" transform="scale(0.015625)"/>
      <path id="DejaVuSans-29" d="M 513 4856 
L 1013 4856 
Q 1481 4119 1714 3412 
Q 1947 2706 1947 2009 
Q 1947 1309 1714 600 
Q 1481 -109 1013 -844 
L 513 -844 
Q 928 -128 1133 580 
Q 1338 1288 1338 2009 
Q 1338 2731 1133 3434 
Q 928 4138 513 4856 
z
" transform="scale(0.015625)"/>
     </defs>
     <use xlink:href="#DejaVuSans-50"/>
     <use xlink:href="#DejaVuSans-68" transform="translate(60.302734 0)"/>
     <use xlink:href="#DejaVuSans-61" transform="translate(123.681641 0)"/>
     <use xlink:href="#DejaVuSans-73" transform="translate(184.960938 0)"/>
     <use xlink:href="#DejaVuSans-65" transform="translate(237.060547 0)"/>
     <use xlink:href="#DejaVuSans-20" transform="translate(298.583984 0)"/>
     <use xlink:href="#DejaVuSans-50" transform="translate(330.371094 0)"/>
     <use xlink:href="#DejaVuSans-6f" transform="translate(387.048828 0)"/>
     <use xlink:href="#DejaVuSans-72" transform="translate(448.230469 0)"/>
     <use xlink:href="#DejaVuSans-74" transform="translate(489.34375 0)"/>
     <use xlink:href="#DejaVuSans-72" transform="translate(528.552734 0)"/>
     <use xlink:href="#DejaVuSans-61" transform="translate(569.666016 0)"/>
     <use xlink:href="#DejaVuSans-69" transform="translate(630.945312 0)"/>
     <use xlink:href="#DejaVuSans-74" transform="translate(658.728516 0)"/>
     <use xlink:href="#DejaVuSans-20" transform="translate(697.9375 0)"/>
     <use xlink:href="#DejaVuSans-28" transform="translate(729.724609 0)"/>
     <use xlink:href="#DejaVuSans-78" transform="translate(768.738281 0)"/>
     <use xlink:href="#DejaVuSans-30" transform="translate(827.917969 0)"/>
     <use xlink:href="#DejaVuSans-20" transform="translate(891.541016 0)"/>
     <use xlink:href="#DejaVuSans-76" transform="translate(923.328125 0)"/>
     <use xlink:href="#DejaVuSans-73" transform="translate(982.507812 0)"/>
     <use xlink:href="#DejaVuSans-20" transform="translate(1034.607422 0)"/>
     <use xlink:href="#DejaVuSans-78" transform="translate(1066.394531 0)"/>
     <use xlink:href="#DejaVuSans-31" transform="translate(1125.574219 0)"/>
     <use xlink:href="#DejaVuSans-29" transform="translate(1189.197266 0)"/>
    </g>
   </g>
   <g id="line2d_20">
    <path d="M 536.630617 250.661884 
L 537.549599 261.088864 
L 538.001572 271.497537 
L 537.98698 281.866856 
L 537.509236 292.176544 
L 536.571753 302.406321 
L 535.17824 312.536058 
L 533.333071 322.545698 
L 531.041571 332.415385 
L 528.311515 342.126554 
L 525.150676 351.660643 
L 521.567095 360.999308 
L 517.569419 370.124389 
L 513.167237 379.018179 
L 508.3722 387.664705 
L 503.195956 396.047995 
L 497.65038 404.152353 
L 491.747876 411.962366 
L 485.501707 419.463314 
L 478.926738 426.642539 
L 472.037832 433.487388 
L 464.850016 439.98553 
L 457.378761 446.124986 
L 449.640252 451.894692 
L 441.65176 457.285856 
L 433.430554 462.289684 
L 424.993996 466.897745 
L 416.359801 471.102003 
L 407.54619 474.895519 
L 398.571934 478.273707 
L 389.455803 481.231979 
L 380.21658 483.766126 
L 370.873305 485.872363 
L 361.445272 487.548124 
L 351.951792 488.793156 
L 342.412179 489.607209 
L 332.84567 489.990402 
L 323.271672 489.943293 
L 313.709555 489.467712 
L 304.17821 488.567652 
L 294.696527 487.247109 
L 285.283234 485.510428 
L 275.957151 483.36238 
L 266.736748 480.808996 
L 257.639572 477.858222 
L 248.683171 474.518001 
L 239.884852 470.79659 
L 231.261934 466.702649 
L 222.831083 462.246003 
L 214.607672 457.438066 
L 206.607072 452.29025 
L 198.844344 446.814221 
L 191.334496 441.022017 
L 184.091593 434.926673 
L 177.128127 428.542429 
L 170.456588 421.883524 
L 164.089097 414.964372 
L 158.037666 407.799726 
L 152.313119 400.4051 
L 146.924516 392.796793 
L 141.880919 384.991103 
L 137.190978 377.004416 
L 132.863187 368.853417 
L 128.904662 360.555259 
L 125.320669 352.127449 
L 122.116472 343.587495 
L 119.296902 334.952899 
L 116.866601 326.241412 
L 114.828708 317.470931 
L 113.184522 308.659282 
L 111.935339 299.824289 
L 111.082023 290.983675 
L 110.62522 282.155372 
L 110.564032 273.357098 
L 110.895817 264.606112 
L 111.617933 255.919675 
L 112.727327 247.314846 
L 114.220707 238.808851 
L 116.093279 230.41835 
L 118.338682 222.159197 
L 120.950559 214.04725 
L 123.92218 206.098079 
L 127.246567 198.327373 
L 130.915362 190.749923 
L 134.918887 183.379433 
L 139.247465 176.229608 
L 143.891114 169.313791 
L 148.839591 162.645404 
L 154.08148 156.236668 
L 159.604339 150.098513 
L 165.395725 144.241866 
L 171.442972 138.677237 
L 177.733151 133.415171 
L 184.252432 128.464769 
L 190.986286 123.833712 
L 197.92018 119.529678 
L 205.039457 115.559886 
L 212.329192 111.931554 
L 219.773896 108.650282 
L 227.357713 105.720197 
L 235.06479 103.145427 
L 242.879244 100.92962 
L 250.784937 99.076386 
L 258.765533 97.587628 
L 266.804664 96.4638 
L 274.885963 95.705356 
L 282.993143 95.312277 
L 291.109668 95.28447 
L 299.219194 95.620133 
L 307.30566 96.316109 
L 315.353002 97.369242 
L 323.345344 98.775935 
L 331.266574 100.532477 
L 339.10116 102.63354 
L 346.834128 105.072597 
L 354.450506 107.84312 
L 361.935601 110.938194 
L 369.274509 114.350756 
L 376.453266 118.072304 
L 383.458701 122.093337 
L 390.277641 126.404359 
L 396.897282 130.995555 
L 403.304626 135.856932 
L 409.487944 140.977314 
L 415.436472 146.344767 
L 421.139444 151.947358 
L 426.586532 157.77293 
L 431.767243 163.809116 
L 436.672616 170.04269 
L 441.294768 176.459926 
L 445.625813 183.047102 
L 449.658354 189.790373 
L 453.384863 196.675661 
L 456.799526 203.688398 
L 459.897664 210.813788 
L 462.674595 218.037034 
L 465.126147 225.343327 
L 467.24806 232.71761 
L 469.037886 240.144736 
L 470.494304 247.609588 
L 471.615992 255.097049 
L 472.402136 262.592105 
L 472.851878 270.079478 
L 472.966178 277.544216 
L 472.747061 284.971633 
L 472.196552 292.347043 
L 471.317156 299.655975 
L 470.111383 306.883687 
L 468.583473 314.016163 
L 466.738617 321.039862 
L 464.582011 327.941244 
L 462.119279 334.707083 
L 459.356098 341.323885 
L 456.299695 347.779252 
L 452.958103 354.061426 
L 449.339357 360.158653 
L 445.451847 366.059577 
L 441.304068 371.752591 
L 436.905804 377.22749 
L 432.267466 382.474843 
L 427.399465 387.485216 
L 422.31248 392.249643 
L 417.01734 396.75893 
L 411.525836 401.005528 
L 405.85019 404.982737 
L 400.002623 408.683857 
L 393.995518 412.1027 
L 387.841454 415.232882 
L 381.553592 418.069824 
L 375.145319 420.609825 
L 368.630025 422.849185 
L 362.021143 424.784735 
L 355.332343 426.413151 
L 348.577466 427.732982 
L 341.770379 428.743641 
L 334.924951 429.444537 
L 328.054979 429.83561 
L 321.174526 429.916688 
L 314.297403 429.689448 
L 307.437265 429.15637 
L 300.607766 428.319935 
L 293.822374 427.183115 
L 287.094844 425.748833 
L 280.43827 424.021732 
L 273.865425 422.00717 
L 267.389083 419.710501 
L 261.021722 417.137516 
L 254.77612 414.294015 
L 248.664015 411.187309 
L 242.696691 407.825298 
L 236.885433 404.215882 
L 231.241135 400.36732 
L 225.77499 396.287936 
L 220.496828 391.987278 
L 215.415922 387.475346 
L 210.541545 382.762135 
L 205.882505 377.857902 
L 201.447898 372.773031 
L 197.245196 367.51878 
L 193.281252 362.106702 
L 189.56292 356.548349 
L 186.096535 350.855424 
L 182.888689 345.03981 
L 179.944186 339.11387 
L 177.267176 333.090109 
L 174.861811 326.981032 
L 172.731695 320.79917 
L 170.880655 314.557289 
L 169.310644 308.268214 
L 168.022969 301.944763 
L 167.018939 295.599753 
L 166.299314 289.245909 
L 165.865028 282.896228 
L 165.715153 276.563345 
L 165.848157 270.259754 
L 166.262505 263.997948 
L 166.956143 257.790207 
L 167.927129 251.649114 
L 169.171775 245.586491 
L 170.685844 239.613899 
L 172.465103 233.742896 
L 174.504849 227.984723 
L 176.800429 222.35094 
L 179.345638 216.851981 
L 182.133812 211.497926 
L 185.158287 206.298856 
L 188.412007 201.264438 
L 191.887899 196.404658 
L 195.577611 191.728081 
L 199.472435 187.242842 
L 203.563662 182.957081 
L 207.842286 178.878448 
L 212.299218 175.014905 
L 216.924426 171.372757 
L 221.707635 167.957845 
L 226.638566 164.776008 
L 231.706757 161.832551 
L 236.901595 159.133061 
L 242.21191 156.681326 
L 247.6264 154.480655 
L 253.133761 152.534356 
L 258.722624 150.845178 
L 264.381412 149.416113 
L 270.098401 148.248302 
L 275.861842 147.342419 
L 281.659986 146.699135 
L 287.481141 146.318566 
L 293.313362 146.201024 
L 299.144963 146.345007 
L 304.964341 146.74858 
L 310.75989 147.409807 
L 316.520182 148.326229 
L 322.233498 149.495518 
L 327.888779 150.913671 
L 333.475129 152.576299 
L 338.981655 154.479015 
L 344.397755 156.616964 
L 349.712507 158.985358 
L 354.916014 161.577947 
L 359.998611 164.388163 
L 364.950635 167.40944 
L 369.762815 170.634824 
L 374.425551 174.05736 
L 378.930568 177.668916 
L 383.269884 181.461118 
L 387.435511 185.425595 
L 391.419939 189.553688 
L 395.215329 193.836666 
L 398.815409 198.264964 
L 402.214226 202.828859 
L 405.405828 207.518628 
L 408.384794 212.324374 
L 411.145393 217.236064 
L 413.68362 222.243211 
L 415.9958 227.33525 
L 418.07826 232.501617 
L 419.927888 237.731699 
L 421.541298 243.014682 
L 422.916896 248.339702 
L 424.053413 253.695893 
L 424.949583 259.072389 
L 425.604705 264.458402 
L 426.01785 269.842891 
L 426.189857 275.215165 
L 426.121872 280.564596 
L 425.81504 285.880562 
L 425.271051 291.152636 
L 424.49142 296.370102 
L 423.479324 301.522966 
L 422.238208 306.601363 
L 420.771518 311.595425 
L 419.083194 316.495598 
L 417.177067 321.292011 
L 415.058435 325.975852 
L 412.732821 330.53848 
L 410.205748 334.971256 
L 407.48316 339.265951 
L 404.570959 343.414003 
L 401.476251 347.408195 
L 398.206319 351.24151 
L 394.768443 354.90693 
L 391.170227 358.397929 
L 387.419306 361.70765 
L 383.524202 364.830789 
L 379.493552 367.762262 
L 375.335995 370.496981 
L 371.060383 373.030406 
L 366.675666 375.357684 
L 362.191321 377.475644 
L 357.616888 379.381338 
L 352.961906 381.071816 
L 348.236004 382.544703 
L 343.448979 383.797342 
L 338.610768 384.828804 
L 333.73132 385.638372 
L 328.820588 386.225329 
L 323.888482 386.589532 
L 318.94514 386.730602 
L 314.000454 386.649845 
L 309.064287 386.348759 
L 304.146501 385.828844 
L 299.256792 385.092143 
L 294.40513 384.140522 
L 289.600874 382.977403 
L 284.853311 381.606375 
L 280.171733 380.031029 
L 275.565146 378.255444 
L 271.042863 376.283584 
L 266.613254 374.120769 
L 262.284592 371.772454 
L 258.065151 369.244095 
L 253.962816 366.541556 
L 249.9858 363.670658 
L 246.141091 360.638308 
L 242.435563 357.451515 
L 238.876089 354.117289 
L 235.469068 350.642947 
L 232.221232 347.035834 
L 229.137874 343.304067 
L 226.224161 339.455825 
L 223.485259 335.499291 
L 220.9258 331.442839 
L 218.550735 327.294943 
L 216.363439 323.064492 
L 214.367157 318.760411 
L 212.565136 314.391622 
L 210.960048 309.967119 
L 209.554863 305.496056 
L 208.350914 300.98764 
L 207.349409 296.451079 
L 206.551558 291.895583 
L 205.957991 287.330301 
L 205.569593 282.764604 
L 205.385635 278.207546 
L 205.40528 273.668164 
L 205.627687 269.155492 
L 206.051458 264.67838 
L 206.6754 260.245942 
L 207.496808 255.86664 
L 208.512883 251.548894 
L 209.720827 247.301122 
L 211.11733 243.131443 
L 212.699226 239.048273 
L 214.462015 235.059071 
L 216.401122 231.171241 
L 218.511973 227.392187 
L 220.789552 223.728909 
L 223.228927 220.188726 
L 225.824067 216.777747 
L 228.568886 213.50202 
L 231.457301 210.367591 
L 234.482882 207.380022 
L 237.63921 204.545199 
L 240.91906 201.867608 
L 244.315172 199.351674 
L 247.820287 197.001823 
L 251.426912 194.821932 
L 255.127494 192.816197 
L 258.914001 190.987298 
L 262.778383 189.337857 
L 266.712591 187.870495 
L 270.708462 186.587257 
L 274.757712 185.490478 
L 278.851919 184.580941 
L 282.982656 183.859377 
L 287.141499 183.326518 
L 291.320039 182.982514 
L 295.509684 182.827768 
L 299.702049 182.861173 
L 303.888757 183.081576 
L 308.06143 183.487828 
L 312.211835 184.07822 
L 316.331505 184.851251 
L 320.412508 185.804017 
L 324.446927 186.933587 
L 328.426842 188.237028 
L 332.344602 189.710902 
L 336.192278 191.351919 
L 339.962777 193.15557 
L 343.649018 195.117327 
L 347.243921 197.23266 
L 350.740781 199.496612 
L 354.132589 201.904311 
L 357.413421 204.449901 
L 360.577363 207.127517 
L 363.618502 209.931296 
L 366.531393 212.85504 
L 369.310268 215.892571 
L 371.950641 219.037012 
L 374.44803 222.28148 
L 376.797953 225.619096 
L 378.996463 229.04276 
L 381.039294 232.545324 
L 382.923583 236.119253 
L 384.646468 239.75701 
L 386.205092 243.451061 
L 387.597151 247.19378 
L 388.820073 250.977421 
L 389.872716 254.794183 
L 390.753943 258.636261 
L 391.462626 262.495855 
L 391.998175 266.365193 
L 392.359802 270.236341 
L 392.548106 274.101618 
L 392.563687 277.953343 
L 392.407162 281.783843 
L 392.079645 285.585582 
L 391.582132 289.350841 
L 390.916889 293.072436 
L 390.086185 296.743184 
L 389.092309 300.35592 
L 387.93799 303.9037 
L 386.62591 307.379405 
L 385.159854 310.776694 
L 383.543608 314.089222 
L 381.780982 317.310671 
L 379.876151 320.435021 
L 377.833307 323.456094 
L 375.657531 326.368683 
L 373.353907 329.167575 
L 370.927538 331.847597 
L 368.383811 334.403916 
L 365.72818 336.831591 
L 362.966742 339.126776 
L 360.105598 341.285623 
L 357.150861 343.304328 
L 354.108841 345.179461 
L 350.985948 346.907532 
L 347.788972 348.486216 
L 344.524706 349.913185 
L 341.199946 351.186164 
L 337.821599 352.303259 
L 334.396682 353.262573 
L 330.93233 354.063379 
L 327.435676 354.704953 
L 323.913847 355.186622 
L 320.373996 355.508087 
L 316.823383 355.6691 
L 313.269123 355.670534 
L 309.718332 355.513262 
L 306.178107 355.198213 
L 302.655495 354.72666 
L 299.157623 354.099979 
L 295.69124 353.32056 
L 292.263095 352.390794 
L 288.879902 351.313127 
L 285.548262 350.09031 
L 282.274814 348.725231 
L 279.065615 347.221645 
L 275.926724 345.583311 
L 272.864149 343.814032 
L 269.883733 341.91787 
L 266.991303 339.899044 
L 264.191945 337.762459 
L 261.490744 335.51302 
L 258.89272 333.155671 
L 256.40269 330.695558 
L 254.025399 328.137983 
L 251.764728 325.488735 
L 249.624564 322.753598 
L 247.608714 319.938383 
L 245.720756 317.049044 
L 243.964138 314.091678 
L 242.341378 311.072646 
L 240.854996 307.99831 
L 239.507428 304.875037 
L 238.300869 301.709285 
L 237.237323 298.507614 
L 236.317855 295.276635 
L 235.543527 292.022959 
L 234.915314 288.753183 
L 234.433949 285.473938 
L 234.099932 282.19191 
L 233.912851 278.913627 
L 233.872295 275.645618 
L 233.977798 272.394392 
L 234.228621 269.166428 
L 234.623592 265.968116 
L 235.161013 262.805639 
L 235.839187 259.685178 
L 235.839187 259.685178 
" clip-path="url(#p370d669518)" style="fill: none; stroke-dasharray: 12.95,5.6; stroke-dashoffset: 0; stroke: #ff0000; stroke-opacity: 0.8; stroke-width: 3.5"/>
   </g>
   <g id="legend_1">
    <g id="patch_7">
     <path d="M 59.160938 89.030625 
L 204.510938 89.030625 
Q 206.510938 89.030625 206.510938 87.030625 
L 206.510938 29.318125 
Q 206.510938 27.318125 204.510938 27.318125 
L 59.160938 27.318125 
Q 57.160938 27.318125 57.160938 29.318125 
L 57.160938 87.030625 
Q 57.160938 89.030625 59.160938 89.030625 
z
" style="fill: #ffffff; opacity: 0.8; stroke: #cccccc; stroke-linejoin: miter"/>
    </g>
    <g id="line2d_21">
     <path d="M 61.160938 35.416562 
L 71.160938 35.416562 
L 81.160938 35.416562 
" style="fill: none; stroke: #000000; stroke-opacity: 0.3; stroke-width: 7; stroke-linecap: square"/>
    </g>
    <g id="text_20">
     <!-- True/Underlying model -->
     <g transform="translate(89.160938 38.916562) scale(0.1 -0.1)">
      <defs>
       <path id="DejaVuSans-54" d="M -19 4666 
L 3928 4666 
L 3928 4134 
L 2272 4134 
L 2272 0 
L 1638 0 
L 1638 4134 
L -19 4134 
L -19 4666 
z
" transform="scale(0.015625)"/>
       <path id="DejaVuSans-75" d="M 544 1381 
L 544 3500 
L 1119 3500 
L 1119 1403 
Q 1119 906 1312 657 
Q 1506 409 1894 409 
Q 2359 409 2629 706 
Q 2900 1003 2900 1516 
L 2900 3500 
L 3475 3500 
L 3475 0 
L 2900 0 
L 2900 538 
Q 2691 219 2414 64 
Q 2138 -91 1772 -91 
Q 1169 -91 856 284 
Q 544 659 544 1381 
z
M 1991 3584 
L 1991 3584 
z
" transform="scale(0.015625)"/>
       <path id="DejaVuSans-2f" d="M 1625 4666 
L 2156 4666 
L 531 -594 
L 0 -594 
L 1625 4666 
z
" transform="scale(0.015625)"/>
       <path id="DejaVuSans-55" d="M 556 4666 
L 1191 4666 
L 1191 1831 
Q 1191 1081 1462 751 
Q 1734 422 2344 422 
Q 2950 422 3222 751 
Q 3494 1081 3494 1831 
L 3494 4666 
L 4128 4666 
L 4128 1753 
Q 4128 841 3676 375 
Q 3225 -91 2344 -91 
Q 1459 -91 1007 375 
Q 556 841 556 1753 
L 556 4666 
z
" transform="scale(0.015625)"/>
       <path id="DejaVuSans-6e" d="M 3513 2113 
L 3513 0 
L 2938 0 
L 2938 2094 
Q 2938 2591 2744 2837 
Q 2550 3084 2163 3084 
Q 1697 3084 1428 2787 
Q 1159 2491 1159 1978 
L 1159 0 
L 581 0 
L 581 3500 
L 1159 3500 
L 1159 2956 
Q 1366 3272 1645 3428 
Q 1925 3584 2291 3584 
Q 2894 3584 3203 3211 
Q 3513 2838 3513 2113 
z
" transform="scale(0.015625)"/>
       <path id="DejaVuSans-64" d="M 2906 2969 
L 2906 4863 
L 3481 4863 
L 3481 0 
L 2906 0 
L 2906 525 
Q 2725 213 2448 61 
Q 2172 -91 1784 -91 
Q 1150 -91 751 415 
Q 353 922 353 1747 
Q 353 2572 751 3078 
Q 1150 3584 1784 3584 
Q 2172 3584 2448 3432 
Q 2725 3281 2906 2969 
z
M 947 1747 
Q 947 1113 1208 752 
Q 1469 391 1925 391 
Q 2381 391 2643 752 
Q 2906 1113 2906 1747 
Q 2906 2381 2643 2742 
Q 2381 3103 1925 3103 
Q 1469 3103 1208 2742 
Q 947 2381 947 1747 
z
" transform="scale(0.015625)"/>
       <path id="DejaVuSans-6c" d="M 603 4863 
L 1178 4863 
L 1178 0 
L 603 0 
L 603 4863 
z
" transform="scale(0.015625)"/>
       <path id="DejaVuSans-79" d="M 2059 -325 
Q 1816 -950 1584 -1140 
Q 1353 -1331 966 -1331 
L 506 -1331 
L 506 -850 
L 844 -850 
Q 1081 -850 1212 -737 
Q 1344 -625 1503 -206 
L 1606 56 
L 191 3500 
L 800 3500 
L 1894 763 
L 2988 3500 
L 3597 3500 
L 2059 -325 
z
" transform="scale(0.015625)"/>
       <path id="DejaVuSans-67" d="M 2906 1791 
Q 2906 2416 2648 2759 
Q 2391 3103 1925 3103 
Q 1463 3103 1205 2759 
Q 947 2416 947 1791 
Q 947 1169 1205 825 
Q 1463 481 1925 481 
Q 2391 481 2648 825 
Q 2906 1169 2906 1791 
z
M 3481 434 
Q 3481 -459 3084 -895 
Q 2688 -1331 1869 -1331 
Q 1566 -1331 1297 -1286 
Q 1028 -1241 775 -1147 
L 775 -588 
Q 1028 -725 1275 -790 
Q 1522 -856 1778 -856 
Q 2344 -856 2625 -561 
Q 2906 -266 2906 331 
L 2906 616 
Q 2728 306 2450 153 
Q 2172 0 1784 0 
Q 1141 0 747 490 
Q 353 981 353 1791 
Q 353 2603 747 3093 
Q 1141 3584 1784 3584 
Q 2172 3584 2450 3431 
Q 2728 3278 2906 2969 
L 2906 3500 
L 3481 3500 
L 3481 434 
z
" transform="scale(0.015625)"/>
       <path id="DejaVuSans-6d" d="M 3328 2828 
Q 3544 3216 3844 3400 
Q 4144 3584 4550 3584 
Q 5097 3584 5394 3201 
Q 5691 2819 5691 2113 
L 5691 0 
L 5113 0 
L 5113 2094 
Q 5113 2597 4934 2840 
Q 4756 3084 4391 3084 
Q 3944 3084 3684 2787 
Q 3425 2491 3425 1978 
L 3425 0 
L 2847 0 
L 2847 2094 
Q 2847 2600 2669 2842 
Q 2491 3084 2119 3084 
Q 1678 3084 1418 2786 
Q 1159 2488 1159 1978 
L 1159 0 
L 581 0 
L 581 3500 
L 1159 3500 
L 1159 2956 
Q 1356 3278 1631 3431 
Q 1906 3584 2284 3584 
Q 2666 3584 2933 3390 
Q 3200 3197 3328 2828 
z
" transform="scale(0.015625)"/>
      </defs>
      <use xlink:href="#DejaVuSans-54"/>
      <use xlink:href="#DejaVuSans-72" transform="translate(46.333984 0)"/>
      <use xlink:href="#DejaVuSans-75" transform="translate(87.447266 0)"/>
      <use xlink:href="#DejaVuSans-65" transform="translate(150.826172 0)"/>
      <use xlink:href="#DejaVuSans-2f" transform="translate(212.349609 0)"/>
      <use xlink:href="#DejaVuSans-55" transform="translate(246.041016 0)"/>
      <use xlink:href="#DejaVuSans-6e" transform="translate(319.234375 0)"/>
      <use xlink:href="#DejaVuSans-64" transform="translate(382.613281 0)"/>
      <use xlink:href="#DejaVuSans-65" transform="translate(446.089844 0)"/>
      <use xlink:href="#DejaVuSans-72" transform="translate(507.613281 0)"/>
      <use xlink:href="#DejaVuSans-6c" transform="translate(548.726562 0)"/>
      <use xlink:href="#DejaVuSans-79" transform="translate(576.509766 0)"/>
      <use xlink:href="#DejaVuSans-69" transform="translate(635.689453 0)"/>
      <use xlink:href="#DejaVuSans-6e" transform="translate(663.472656 0)"/>
      <use xlink:href="#DejaVuSans-67" transform="translate(726.851562 0)"/>
      <use xlink:href="#DejaVuSans-20" transform="translate(790.328125 0)"/>
      <use xlink:href="#DejaVuSans-6d" transform="translate(822.115234 0)"/>
      <use xlink:href="#DejaVuSans-6f" transform="translate(919.527344 0)"/>
      <use xlink:href="#DejaVuSans-64" transform="translate(980.708984 0)"/>
      <use xlink:href="#DejaVuSans-65" transform="translate(1044.185547 0)"/>
      <use xlink:href="#DejaVuSans-6c" transform="translate(1105.708984 0)"/>
     </g>
    </g>
    <g id="line2d_22">
     <path d="M 61.160938 50.094687 
L 71.160938 50.094687 
L 81.160938 50.094687 
" style="fill: none; stroke-dasharray: 12.95,5.6; stroke-dashoffset: 0; stroke: #ff0000; stroke-opacity: 0.8; stroke-width: 3.5"/>
    </g>
    <g id="text_21">
     <!-- AutoSINDy -->
     <g transform="translate(89.160938 53.594687) scale(0.1 -0.1)">
      <defs>
       <path id="DejaVuSans-41" d="M 2188 4044 
L 1331 1722 
L 3047 1722 
L 2188 4044 
z
M 1831 4666 
L 2547 4666 
L 4325 0 
L 3669 0 
L 3244 1197 
L 1141 1197 
L 716 0 
L 50 0 
L 1831 4666 
z
" transform="scale(0.015625)"/>
       <path id="DejaVuSans-53" d="M 3425 4513 
L 3425 3897 
Q 3066 4069 2747 4153 
Q 2428 4238 2131 4238 
Q 1616 4238 1336 4038 
Q 1056 3838 1056 3469 
Q 1056 3159 1242 3001 
Q 1428 2844 1947 2747 
L 2328 2669 
Q 3034 2534 3370 2195 
Q 3706 1856 3706 1288 
Q 3706 609 3251 259 
Q 2797 -91 1919 -91 
Q 1588 -91 1214 -16 
Q 841 59 441 206 
L 441 856 
Q 825 641 1194 531 
Q 1563 422 1919 422 
Q 2459 422 2753 634 
Q 3047 847 3047 1241 
Q 3047 1584 2836 1778 
Q 2625 1972 2144 2069 
L 1759 2144 
Q 1053 2284 737 2584 
Q 422 2884 422 3419 
Q 422 4038 858 4394 
Q 1294 4750 2059 4750 
Q 2388 4750 2728 4690 
Q 3069 4631 3425 4513 
z
" transform="scale(0.015625)"/>
       <path id="DejaVuSans-49" d="M 628 4666 
L 1259 4666 
L 1259 0 
L 628 0 
L 628 4666 
z
" transform="scale(0.015625)"/>
       <path id="DejaVuSans-4e" d="M 628 4666 
L 1478 4666 
L 3547 763 
L 3547 4666 
L 4159 4666 
L 4159 0 
L 3309 0 
L 1241 3903 
L 1241 0 
L 628 0 
L 628 4666 
z
" transform="scale(0.015625)"/>
       <path id="DejaVuSans-44" d="M 1259 4147 
L 1259 519 
L 2022 519 
Q 2988 519 3436 956 
Q 3884 1394 3884 2338 
Q 3884 3275 3436 3711 
Q 2988 4147 2022 4147 
L 1259 4147 
z
M 628 4666 
L 1925 4666 
Q 3281 4666 3915 4102 
Q 4550 3538 4550 2338 
Q 4550 1131 3912 565 
Q 3275 0 1925 0 
L 628 0 
L 628 4666 
z
" transform="scale(0.015625)"/>
      </defs>
      <use xlink:href="#DejaVuSans-41"/>
      <use xlink:href="#DejaVuSans-75" transform="translate(68.408203 0)"/>
      <use xlink:href="#DejaVuSans-74" transform="translate(131.787109 0)"/>
      <use xlink:href="#DejaVuSans-6f" transform="translate(170.996094 0)"/>
      <use xlink:href="#DejaVuSans-53" transform="translate(232.177734 0)"/>
      <use xlink:href="#DejaVuSans-49" transform="translate(295.654297 0)"/>
      <use xlink:href="#DejaVuSans-4e" transform="translate(325.146484 0)"/>
      <use xlink:href="#DejaVuSans-44" transform="translate(399.951172 0)"/>
      <use xlink:href="#DejaVuSans-79" transform="translate(476.953125 0)"/>
     </g>
    </g>
    <g id="line2d_23">
     <path d="M 61.160938 64.772812 
L 71.160938 64.772812 
L 81.160938 64.772812 
" style="fill: none; stroke-dasharray: 3.5,5.775; stroke-dashoffset: 0; stroke: #008000; stroke-opacity: 0.8; stroke-width: 3.5"/>
    </g>
    <g id="text_22">
     <!-- Standard SINDy -->
     <g transform="translate(89.160938 68.272812) scale(0.1 -0.1)">
      <use xlink:href="#DejaVuSans-53"/>
      <use xlink:href="#DejaVuSans-74" transform="translate(63.476562 0)"/>
      <use xlink:href="#DejaVuSans-61" transform="translate(102.685547 0)"/>
      <use xlink:href="#DejaVuSans-6e" transform="translate(163.964844 0)"/>
      <use xlink:href="#DejaVuSans-64" transform="translate(227.34375 0)"/>
      <use xlink:href="#DejaVuSans-61" transform="translate(290.820312 0)"/>
      <use xlink:href="#DejaVuSans-72" transform="translate(352.099609 0)"/>
      <use xlink:href="#DejaVuSans-64" transform="translate(391.462891 0)"/>
      <use xlink:href="#DejaVuSans-20" transform="translate(454.939453 0)"/>
      <use xlink:href="#DejaVuSans-53" transform="translate(486.726562 0)"/>
      <use xlink:href="#DejaVuSans-49" transform="translate(550.203125 0)"/>
      <use xlink:href="#DejaVuSans-4e" transform="translate(579.695312 0)"/>
      <use xlink:href="#DejaVuSans-44" transform="translate(654.5 0)"/>
      <use xlink:href="#DejaVuSans-79" transform="translate(731.501953 0)"/>
     </g>
    </g>
    <g id="line2d_24">
     <path d="M 61.160938 79.450937 
L 71.160938 79.450937 
L 81.160938 79.450937 
" style="fill: none; stroke-dasharray: 22.4,5.6,3.5,5.6; stroke-dashoffset: 0; stroke: #0000ff; stroke-opacity: 0.8; stroke-width: 3.5"/>
    </g>
    <g id="text_23">
     <!-- Standard PySR -->
     <g transform="translate(89.160938 82.950937) scale(0.1 -0.1)">
      <defs>
       <path id="DejaVuSans-52" d="M 2841 2188 
Q 3044 2119 3236 1894 
Q 3428 1669 3622 1275 
L 4263 0 
L 3584 0 
L 2988 1197 
Q 2756 1666 2539 1819 
Q 2322 1972 1947 1972 
L 1259 1972 
L 1259 0 
L 628 0 
L 628 4666 
L 2053 4666 
Q 2853 4666 3247 4331 
Q 3641 3997 3641 3322 
Q 3641 2881 3436 2590 
Q 3231 2300 2841 2188 
z
M 1259 4147 
L 1259 2491 
L 2053 2491 
Q 2509 2491 2742 2702 
Q 2975 2913 2975 3322 
Q 2975 3731 2742 3939 
Q 2509 4147 2053 4147 
L 1259 4147 
z
" transform="scale(0.015625)"/>
      </defs>
      <use xlink:href="#DejaVuSans-53"/>
      <use xlink:href="#DejaVuSans-74" transform="translate(63.476562 0)"/>
      <use xlink:href="#DejaVuSans-61" transform="translate(102.685547 0)"/>
      <use xlink:href="#DejaVuSans-6e" transform="translate(163.964844 0)"/>
      <use xlink:href="#DejaVuSans-64" transform="translate(227.34375 0)"/>
      <use xlink:href="#DejaVuSans-61" transform="translate(290.820312 0)"/>
      <use xlink:href="#DejaVuSans-72" transform="translate(352.099609 0)"/>
      <use xlink:href="#DejaVuSans-64" transform="translate(391.462891 0)"/>
      <use xlink:href="#DejaVuSans-20" transform="translate(454.939453 0)"/>
      <use xlink:href="#DejaVuSans-50" transform="translate(486.726562 0)"/>
      <use xlink:href="#DejaVuSans-79" transform="translate(547.029297 0)"/>
      <use xlink:href="#DejaVuSans-53" transform="translate(606.208984 0)"/>
      <use xlink:href="#DejaVuSans-52" transform="translate(669.685547 0)"/>
     </g>
    </g>
   </g>
  </g>
 </g>
 <defs>
  <clipPath id="p370d669518">
   <rect x="52.160938" y="22.318125" width="509.05" height="508.12"/>
  </clipPath>
 </defs>
</svg>
