<?xml version="1.0" encoding="utf-8" standalone="no"?>
<!DOCTYPE svg PUBLIC "-//W3C//DTD SVG 1.1//EN"
  "http://www.w3.org/Graphics/SVG/1.1/DTD/svg11.dtd">
<svg xmlns:xlink="http://www.w3.org/1999/xlink" width="568.410312pt" height="567.994375pt" viewBox="0 0 568.410312 567.994375" xmlns="http://www.w3.org/2000/svg" version="1.1">
 <metadata>
  <rdf:RDF xmlns:dc="http://purl.org/dc/elements/1.1/" xmlns:cc="http://creativecommons.org/ns#" xmlns:rdf="http://www.w3.org/1999/02/22-rdf-syntax-ns#">
   <cc:Work>
    <dc:type rdf:resource="http://purl.org/dc/dcmitype/StillImage"/>
    <dc:date>2026-04-06T02:28:05.826946</dc:date>
    <dc:format>image/svg+xml</dc:format>
    <dc:creator>
     <cc:Agent>
      <dc:title>Matplotlib v3.10.7, https://matplotlib.org/</dc:title>
     </cc:Agent>
    </dc:creator>
   </cc:Work>
  </rdf:RDF>
 </metadata>
 <defs>
  <style type="text/css">*{stroke-linejoin: round; stroke-linecap: butt}</style>
 </defs>
 <g id="figure_1">
  <g id="patch_1">
   <path d="M 0 567.994375 
L 568.410312 567.994375 
L 568.410312 0 
L 0 0 
z
" style="fill: #ffffff"/>
  </g>
  <g id="axes_1">
   <g id="patch_2">
    <path d="M 42.620313 530.438125 
L 561.210312 530.438125 
L 561.210312 22.318125 
L 42.620313 22.318125 
z
" style="fill: #ffffff"/>
   </g>
   <g id="matplotlib.axis_1">
    <g id="xtick_1">
     <g id="line2d_1">
      <defs>
       <path id="mc4b1c6ede0" d="M 0 0 
L 0 3.5 
" style="stroke: #000000; stroke-width: 0.8"/>
      </defs>
      <g>
       <use xlink:href="#mc4b1c6ede0" x="123.520215" y="530.438125" style="stroke: #000000; stroke-width: 0.8"/>
      </g>
     </g>
     <g id="text_1">
      <!-- −2 -->
      <g transform="translate(116.149121 545.036562) scale(0.1 -0.1)">
       <defs>
        <path id="DejaVuSans-2212" d="M 678 2272 
L 4684 2272 
L 4684 1741 
L 678 1741 
L 678 2272 
z
" transform="scale(0.015625)"/>
        <path id="DejaVuSans-32" d="M 1228 531 
L 3431 531 
L 3431 0 
L 469 0 
L 469 531 
Q 828 903 1448 1529 
Q 2069 2156 2228 2338 
Q 2531 2678 2651 2914 
Q 2772 3150 2772 3378 
Q 2772 3750 2511 3984 
Q 2250 4219 1831 4219 
Q 1534 4219 1204 4116 
Q 875 4013 500 3803 
L 500 4441 
Q 881 4594 1212 4672 
Q 1544 4750 1819 4750 
Q 2544 4750 2975 4387 
Q 3406 4025 3406 3419 
Q 3406 3131 3298 2873 
Q 3191 2616 2906 2266 
Q 2828 2175 2409 1742 
Q 1991 1309 1228 531 
z
" transform="scale(0.015625)"/>
       </defs>
       <use xlink:href="#DejaVuSans-2212"/>
       <use xlink:href="#DejaVuSans-32" transform="translate(83.789062 0)"/>
      </g>
     </g>
    </g>
    <g id="xtick_2">
     <g id="line2d_2">
      <g>
       <use xlink:href="#mc4b1c6ede0" x="212.512181" y="530.438125" style="stroke: #000000; stroke-width: 0.8"/>
      </g>
     </g>
     <g id="text_2">
      <!-- −1 -->
      <g transform="translate(205.141087 545.036562) scale(0.1 -0.1)">
       <defs>
        <path id="DejaVuSans-31" d="M 794 531 
L 1825 531 
L 1825 4091 
L 703 3866 
L 703 4441 
L 1819 4666 
L 2450 4666 
L 2450 531 
L 3481 531 
L 3481 0 
L 794 0 
L 794 531 
z
" transform="scale(0.015625)"/>
       </defs>
       <use xlink:href="#DejaVuSans-2212"/>
       <use xlink:href="#DejaVuSans-31" transform="translate(83.789062 0)"/>
      </g>
     </g>
    </g>
    <g id="xtick_3">
     <g id="line2d_3">
      <g>
       <use xlink:href="#mc4b1c6ede0" x="301.504146" y="530.438125" style="stroke: #000000; stroke-width: 0.8"/>
      </g>
     </g>
     <g id="text_3">
      <!-- 0 -->
      <g transform="translate(298.322896 545.036562) scale(0.1 -0.1)">
       <defs>
        <path id="DejaVuSans-30" d="M 2034 4250 
Q 1547 4250 1301 3770 
Q 1056 3291 1056 2328 
Q 1056 1369 1301 889 
Q 1547 409 2034 409 
Q 2525 409 2770 889 
Q 3016 1369 3016 2328 
Q 3016 3291 2770 3770 
Q 2525 4250 2034 4250 
z
M 2034 4750 
Q 2819 4750 3233 4129 
Q 3647 3509 3647 2328 
Q 3647 1150 3233 529 
Q 2819 -91 2034 -91 
Q 1250 -91 836 529 
Q 422 1150 422 2328 
Q 422 3509 836 4129 
Q 1250 4750 2034 4750 
z
" transform="scale(0.015625)"/>
       </defs>
       <use xlink:href="#DejaVuSans-30"/>
      </g>
     </g>
    </g>
    <g id="xtick_4">
     <g id="line2d_4">
      <g>
       <use xlink:href="#mc4b1c6ede0" x="390.496112" y="530.438125" style="stroke: #000000; stroke-width: 0.8"/>
      </g>
     </g>
     <g id="text_4">
      <!-- 1 -->
      <g transform="translate(387.314862 545.036562) scale(0.1 -0.1)">
       <use xlink:href="#DejaVuSans-31"/>
      </g>
     </g>
    </g>
    <g id="xtick_5">
     <g id="line2d_5">
      <g>
       <use xlink:href="#mc4b1c6ede0" x="479.488077" y="530.438125" style="stroke: #000000; stroke-width: 0.8"/>
      </g>
     </g>
     <g id="text_5">
      <!-- 2 -->
      <g transform="translate(476.306827 545.036562) scale(0.1 -0.1)">
       <use xlink:href="#DejaVuSans-32"/>
      </g>
     </g>
    </g>
    <g id="text_6">
     <!-- x0 -->
     <g transform="translate(295.774687 558.714687) scale(0.1 -0.1)">
      <defs>
       <path id="DejaVuSans-78" d="M 3513 3500 
L 2247 1797 
L 3578 0 
L 2900 0 
L 1881 1375 
L 863 0 
L 184 0 
L 1544 1831 
L 300 3500 
L 978 3500 
L 1906 2253 
L 2834 3500 
L 3513 3500 
z
" transform="scale(0.015625)"/>
      </defs>
      <use xlink:href="#DejaVuSans-78"/>
      <use xlink:href="#DejaVuSans-30" transform="translate(59.179688 0)"/>
     </g>
    </g>
   </g>
   <g id="matplotlib.axis_2">
    <g id="ytick_1">
     <g id="line2d_6">
      <defs>
       <path id="mf888719549" d="M 0 0 
L -3.5 0 
" style="stroke: #000000; stroke-width: 0.8"/>
      </defs>
      <g>
       <use xlink:href="#mf888719549" x="42.620313" y="482.866286" style="stroke: #000000; stroke-width: 0.8"/>
      </g>
     </g>
     <g id="text_7">
      <!-- −4 -->
      <g transform="translate(20.878125 486.665505) scale(0.1 -0.1)">
       <defs>
        <path id="DejaVuSans-34" d="M 2419 4116 
L 825 1625 
L 2419 1625 
L 2419 4116 
z
M 2253 4666 
L 3047 4666 
L 3047 1625 
L 3713 1625 
L 3713 1100 
L 3047 1100 
L 3047 0 
L 2419 0 
L 2419 1100 
L 313 1100 
L 313 1709 
L 2253 4666 
z
" transform="scale(0.015625)"/>
       </defs>
       <use xlink:href="#DejaVuSans-2212"/>
       <use xlink:href="#DejaVuSans-34" transform="translate(83.789062 0)"/>
      </g>
     </g>
    </g>
    <g id="ytick_2">
     <g id="line2d_7">
      <g>
       <use xlink:href="#mf888719549" x="42.620313" y="379.621473" style="stroke: #000000; stroke-width: 0.8"/>
      </g>
     </g>
     <g id="text_8">
      <!-- −2 -->
      <g transform="translate(20.878125 383.420692) scale(0.1 -0.1)">
       <use xlink:href="#DejaVuSans-2212"/>
       <use xlink:href="#DejaVuSans-32" transform="translate(83.789062 0)"/>
      </g>
     </g>
    </g>
    <g id="ytick_3">
     <g id="line2d_8">
      <g>
       <use xlink:href="#mf888719549" x="42.620313" y="276.37666" style="stroke: #000000; stroke-width: 0.8"/>
      </g>
     </g>
     <g id="text_9">
      <!-- 0 -->
      <g transform="translate(29.257813 280.175879) scale(0.1 -0.1)">
       <use xlink:href="#DejaVuSans-30"/>
      </g>
     </g>
    </g>
    <g id="ytick_4">
     <g id="line2d_9">
      <g>
       <use xlink:href="#mf888719549" x="42.620313" y="173.131847" style="stroke: #000000; stroke-width: 0.8"/>
      </g>
     </g>
     <g id="text_10">
      <!-- 2 -->
      <g transform="translate(29.257813 176.931066) scale(0.1 -0.1)">
       <use xlink:href="#DejaVuSans-32"/>
      </g>
     </g>
    </g>
    <g id="ytick_5">
     <g id="line2d_10">
      <g>
       <use xlink:href="#mf888719549" x="42.620313" y="69.887034" style="stroke: #000000; stroke-width: 0.8"/>
      </g>
     </g>
     <g id="text_11">
      <!-- 4 -->
      <g transform="translate(29.257813 73.686253) scale(0.1 -0.1)">
       <use xlink:href="#DejaVuSans-34"/>
      </g>
     </g>
    </g>
    <g id="text_12">
     <!-- x1 -->
     <g transform="translate(14.798438 282.51875) rotate(-90) scale(0.1 -0.1)">
      <use xlink:href="#DejaVuSans-78"/>
      <use xlink:href="#DejaVuSans-31" transform="translate(59.179688 0)"/>
     </g>
    </g>
   </g>
   <g id="line2d_11">
    <path d="M 536.584668 266.052179 
L 537.12443 271.059686 
L 537.321537 275.979938 
L 537.181542 280.849065 
L 536.706124 285.701392 
L 535.894598 290.570521 
L 534.744324 295.489626 
L 533.250707 300.491462 
L 531.407191 305.608359 
L 529.205268 310.872224 
L 526.634533 316.314309 
L 523.68453 321.956316 
L 520.33797 327.830471 
L 516.574683 333.970214 
L 512.374359 340.401365 
L 507.716553 347.142126 
L 502.580682 354.203077 
L 496.946024 361.58718 
L 490.791721 369.289774 
L 484.096778 377.298583 
L 476.840061 385.593706 
L 469.000381 394.149993 
L 460.558933 402.96005 
L 451.501866 411.913943 
L 446.740611 416.399997 
L 441.824481 420.868073 
L 436.754474 425.300048 
L 431.532221 429.67773 
L 426.159987 433.982858 
L 420.64067 438.197101 
L 414.977804 442.302058 
L 409.175554 446.27926 
L 403.238722 450.11017 
L 397.172741 453.77618 
L 390.98368 457.258612 
L 384.67824 460.538721 
L 378.263758 463.597692 
L 371.748203 466.41664 
L 365.140178 468.976611 
L 358.448922 471.258583 
L 351.684304 473.243464 
L 344.856831 474.912091 
L 337.977641 476.245236 
L 331.058508 477.223598 
L 324.111837 477.827808 
L 317.150669 478.038429 
L 310.188679 477.835952 
L 303.240175 477.200801 
L 296.320161 476.11553 
L 289.445106 474.618571 
L 282.629467 472.739201 
L 275.886348 470.489684 
L 269.228226 467.883352 
L 262.666942 464.934603 
L 256.213706 461.6589 
L 249.879098 458.072776 
L 243.673063 454.193826 
L 237.604915 450.040715 
L 231.683338 445.633172 
L 225.916382 440.991994 
L 220.311465 436.139043 
L 214.875374 431.09725 
L 209.614262 425.890609 
L 204.533654 420.544183 
L 199.638438 415.0841 
L 194.932874 409.537556 
L 190.420588 403.932811 
L 186.104575 398.299193 
L 181.987197 392.667094 
L 178.067627 387.03779 
L 174.34357 381.399019 
L 170.81451 375.759371 
L 167.479855 370.126681 
L 164.338941 364.508033 
L 161.39103 358.909758 
L 158.635309 353.337437 
L 156.070892 347.795899 
L 153.696821 342.289218 
L 151.512062 336.820719 
L 149.515507 331.392975 
L 147.705978 326.007805 
L 146.082218 320.666277 
L 144.642901 315.368708 
L 143.386624 310.114663 
L 142.311913 304.902952 
L 141.417218 299.731637 
L 140.700916 294.598025 
L 140.161312 289.498673 
L 139.796634 284.429386 
L 139.604972 279.390943 
L 139.585306 274.38964 
L 139.737612 269.419075 
L 140.061822 264.473133 
L 140.557802 259.546477 
L 141.225355 254.634539 
L 142.064216 249.733528 
L 143.074058 244.840423 
L 144.254486 239.952981 
L 145.605041 235.069729 
L 147.125198 230.18997 
L 148.814367 225.313779 
L 150.671895 220.442005 
L 152.697059 215.576271 
L 154.889076 210.718975 
L 157.247094 205.873285 
L 159.770197 201.043146 
L 162.457404 196.233274 
L 165.307668 191.449162 
L 168.319879 186.697074 
L 171.492859 181.984047 
L 174.825366 177.317893 
L 178.316092 172.707199 
L 181.963665 168.161323 
L 185.766647 163.690398 
L 189.723534 159.305331 
L 193.83276 155.0178 
L 198.092689 150.84026 
L 202.500377 146.78012 
L 207.04843 142.838837 
L 211.730661 139.038658 
L 216.540715 135.401744 
L 221.471885 131.948831 
L 226.517114 128.699232 
L 231.668992 125.670834 
L 236.919755 122.880101 
L 242.261289 120.342069 
L 247.685128 118.070355 
L 253.182452 116.077146 
L 258.74409 114.373208 
L 264.360519 112.96788 
L 270.021863 111.86908 
L 275.717896 111.083297 
L 281.438037 110.615598 
L 287.171354 110.469626 
L 292.906563 110.647598 
L 298.632029 111.150308 
L 304.335763 111.977122 
L 310.005424 113.125987 
L 315.628321 114.59342 
L 321.191407 116.374517 
L 326.683817 118.458679 
L 332.098655 120.828818 
L 337.426241 123.473908 
L 342.657266 126.382708 
L 347.782885 129.543599 
L 352.794723 132.944576 
L 357.684867 136.573256 
L 362.445872 140.416869 
L 367.070757 144.462266 
L 371.553009 148.695915 
L 375.886579 153.103903 
L 380.065885 157.671932 
L 384.085809 162.385325 
L 387.941701 167.22902 
L 391.629374 172.187575 
L 395.145111 177.245165 
L 398.485656 182.385582 
L 401.648222 187.592237 
L 404.630487 192.848159 
L 407.430594 198.135993 
L 410.047153 203.438004 
L 412.479239 208.736074 
L 414.726393 214.011701 
L 416.790177 219.270138 
L 418.672417 224.530443 
L 420.373096 229.789719 
L 421.892278 235.045111 
L 423.230115 240.293836 
L 424.386848 245.533179 
L 425.362801 250.760498 
L 426.158389 255.973219 
L 426.77411 261.168842 
L 427.210551 266.344935 
L 427.468385 271.499139 
L 427.548372 276.629162 
L 427.451358 281.732788 
L 427.178277 286.807866 
L 426.73015 291.85232 
L 426.108082 296.864143 
L 425.313269 301.841398 
L 424.34699 306.78222 
L 423.210613 311.684814 
L 421.905591 316.547457 
L 420.433467 321.368494 
L 418.795867 326.146342 
L 416.994533 330.880265 
L 415.031338 335.574169 
L 412.907731 340.220689 
L 410.625367 344.809827 
L 408.186236 349.331674 
L 405.592662 353.776408 
L 402.847302 358.134298 
L 399.953148 362.395702 
L 396.913526 366.551065 
L 393.732096 370.590921 
L 390.412852 374.505895 
L 386.960123 378.286699 
L 383.378572 381.924134 
L 379.673194 385.40909 
L 375.84932 388.732546 
L 371.912616 391.885571 
L 367.86908 394.859321 
L 363.725045 397.64504 
L 359.487179 400.234065 
L 355.162482 402.617817 
L 350.758291 404.78781 
L 346.282274 406.735643 
L 341.742436 408.453008 
L 337.147114 409.931681 
L 332.504981 411.163531 
L 327.825041 412.140515 
L 323.116636 412.854676 
L 318.38944 413.29815 
L 313.65346 413.463159 
L 308.918278 413.345467 
L 304.191129 412.955794 
L 299.481807 412.2972 
L 294.800144 411.3722 
L 290.155653 410.184184 
L 285.557523 408.737413 
L 281.014625 407.03702 
L 276.535506 405.08901 
L 272.128396 402.90026 
L 267.801201 400.478518 
L 263.561507 397.832405 
L 259.41658 394.971415 
L 255.373364 391.905911 
L 251.438484 388.64713 
L 247.618241 385.207181 
L 243.918618 381.599045 
L 240.345277 377.836574 
L 236.903557 373.934493 
L 233.598477 369.908397 
L 230.434736 365.774756 
L 227.416713 361.55091 
L 224.547922 357.251197 
L 221.82914 352.871778 
L 219.262629 348.419181 
L 216.850735 343.901734 
L 214.595576 339.327464 
L 212.499044 334.704098 
L 210.562805 330.03906 
L 208.788299 325.339472 
L 207.176736 320.612157 
L 205.729104 315.863633 
L 204.446162 311.100118 
L 203.328443 306.327531 
L 202.376254 301.551485 
L 201.589674 296.777294 
L 200.968556 292.009971 
L 200.512528 287.254226 
L 200.22099 282.514468 
L 200.093116 277.794804 
L 200.127853 273.099041 
L 200.323922 268.430684 
L 200.679816 263.792934 
L 201.193774 259.188024 
L 201.864464 254.617677 
L 202.691169 250.086703 
L 203.672946 245.600222 
L 204.808596 241.163497 
L 206.09666 236.781928 
L 207.535423 232.461056 
L 209.122913 228.206559 
L 210.856898 224.024256 
L 212.734891 219.920105 
L 214.754146 215.900204 
L 216.911661 211.970789 
L 219.204174 208.138235 
L 221.628167 204.409058 
L 224.179866 200.789912 
L 226.855236 197.287591 
L 229.649987 193.909028 
L 232.55957 190.661295 
L 235.579181 187.551603 
L 238.703755 184.587304 
L 241.927972 181.775887 
L 245.246253 179.124983 
L 248.652762 176.642359 
L 252.141406 174.335923 
L 255.705833 172.213724 
L 259.339436 170.283947 
L 263.035423 168.554697 
L 266.788406 167.028346 
L 270.591254 165.70938 
L 274.435941 164.603804 
L 278.314508 163.716657 
L 282.219055 163.052015 
L 286.141744 162.612991 
L 290.074799 162.401734 
L 294.010508 162.41943 
L 297.941219 162.666301 
L 301.859343 163.141606 
L 305.757353 163.84364 
L 309.627784 164.769735 
L 313.463233 165.916259 
L 317.256359 167.278617 
L 320.999883 168.85125 
L 324.686588 170.627635 
L 328.30932 172.600288 
L 331.860986 174.760757 
L 335.334556 177.099632 
L 338.72306 179.606535 
L 342.020806 182.27312 
L 345.22411 185.095121 
L 348.327698 188.063749 
L 351.326542 191.17015 
L 354.215917 194.405568 
L 356.991405 197.761341 
L 359.648894 201.228901 
L 362.184578 204.799776 
L 364.594956 208.465589 
L 366.876833 212.218058 
L 369.027321 216.048995 
L 371.043835 219.950308 
L 372.9241 223.913999 
L 374.666143 227.932166 
L 376.268299 231.997001 
L 377.729208 236.100792 
L 379.047816 240.235921 
L 380.223375 244.394866 
L 381.255443 248.570198 
L 382.144095 252.755366 
L 382.890027 256.947868 
L 383.492632 261.143339 
L 383.951357 265.336962 
L 384.26588 269.523875 
L 384.436103 273.699168 
L 384.462159 277.857889 
L 384.344407 281.995037 
L 384.083434 286.105566 
L 383.680053 290.184385 
L 383.135307 294.226356 
L 382.450464 298.226298 
L 381.627023 302.178981 
L 380.666708 306.079131 
L 379.571471 309.921429 
L 378.343492 313.700508 
L 376.985178 317.410958 
L 375.499164 321.04732 
L 373.888314 324.604093 
L 372.155717 328.075728 
L 370.304691 331.45663 
L 368.338782 334.741159 
L 366.261762 337.92363 
L 364.077632 340.998312 
L 361.790621 343.959426 
L 359.405184 346.801151 
L 356.924492 349.520188 
L 354.351567 352.112039 
L 351.691501 354.568271 
L 348.9495 356.881044 
L 346.13087 359.043123 
L 343.241025 361.047879 
L 340.285477 362.88929 
L 337.269847 364.561937 
L 334.199856 366.06101 
L 331.081329 367.382304 
L 327.920196 368.522217 
L 324.722489 369.477756 
L 321.494344 370.246533 
L 318.242001 370.826765 
L 314.971804 371.217277 
L 311.690199 371.417496 
L 308.403736 371.427458 
L 305.11907 371.247804 
L 301.842957 370.87978 
L 298.582259 370.32524 
L 295.34394 369.58664 
L 292.135069 368.667045 
L 288.962816 367.570125 
L 285.833293 366.299922 
L 282.749675 364.860348 
L 279.717955 363.256144 
L 276.744131 361.492323 
L 273.833939 359.574118 
L 270.992851 357.506985 
L 268.22608 355.2966 
L 265.538576 352.948862 
L 262.935025 350.46989 
L 260.419855 347.866025 
L 257.997228 345.143827 
L 255.671048 342.310082 
L 253.444955 339.371792 
L 251.322326 336.336184 
L 249.306279 333.210706 
L 247.399668 330.003025 
L 245.605085 326.721032 
L 243.924862 323.372836 
L 242.361068 319.966772 
L 240.915508 316.511393 
L 239.589729 313.015473 
L 238.385014 309.488008 
L 237.302222 305.936635 
L 236.341422 302.360091 
L 235.503607 298.762577 
L 234.789727 295.149587 
L 234.200515 291.526578 
L 233.736487 287.898979 
L 233.397939 284.27218 
L 233.184951 280.651544 
L 233.097386 277.042396 
L 233.134885 273.450031 
L 233.296876 269.87971 
L 233.582567 266.33666 
L 233.990947 262.826077 
L 234.520789 259.353121 
L 235.170647 255.922922 
L 235.938857 252.540576 
L 236.82354 249.211145 
L 237.822595 245.939658 
L 238.933705 242.731112 
L 240.154336 239.590471 
L 241.481734 236.522664 
L 242.91293 233.53259 
L 244.444735 230.625112 
L 246.074413 227.804084 
L 247.800038 225.073141 
L 249.618228 222.438747 
L 251.52541 219.907135 
L 253.517873 217.484211 
L 255.591768 215.175551 
L 257.743109 212.986399 
L 259.967774 210.921672 
L 262.261502 208.985956 
L 264.619895 207.183505 
L 267.03842 205.518246 
L 269.512402 203.993775 
L 272.037034 202.613358 
L 274.607368 201.379932 
L 277.21832 200.296103 
L 279.864669 199.364147 
L 282.541055 198.586012 
L 285.241984 197.963314 
L 287.961821 197.49734 
L 290.694796 197.189047 
L 293.435001 197.039063 
L 296.176617 197.047548 
L 298.916024 197.212866 
L 301.647862 197.53398 
L 304.366236 198.009885 
L 307.065421 198.639199 
L 309.739862 199.42016 
L 312.384175 200.350629 
L 314.993146 201.42809 
L 317.561729 202.649646 
L 320.085051 204.012025 
L 322.558406 205.511575 
L 324.977262 207.144266 
L 327.337254 208.90569 
L 329.634189 210.791061 
L 331.864041 212.795217 
L 334.022958 214.912614 
L 336.107256 217.137332 
L 338.113421 219.463073 
L 340.038111 221.883161 
L 341.878151 224.39054 
L 343.630538 226.97778 
L 345.292439 229.637068 
L 348.334316 235.138764 
L 349.710393 237.971316 
L 352.165154 243.786217 
L 354.212497 249.762834 
L 355.842195 255.856575 
L 357.047272 262.024025 
L 357.824007 268.222949 
L 358.171929 274.412285 
L 358.093818 280.552149 
L 357.896759 283.591388 
L 357.896759 283.591388 
" clip-path="url(#p8ceb53e4f9)" style="fill: none; stroke: #000000; stroke-opacity: 0.3; stroke-width: 7; stroke-linecap: square"/>
   </g>
   <g id="line2d_12">
    <path d="M 536.584668 266.052179 
L 536.804831 273.965304 
L 536.75141 281.881228 
L 536.424356 289.790729 
L 535.824429 297.684646 
L 534.952386 305.553817 
L 533.809153 313.389118 
L 532.395751 321.181373 
L 530.713792 328.921495 
L 528.765594 336.60058 
L 526.553472 344.209725 
L 524.079895 351.740095 
L 521.347453 359.182813 
L 518.359296 366.5292 
L 515.119175 373.770865 
L 511.63084 380.899416 
L 507.89814 387.906552 
L 503.925104 394.783954 
L 499.716174 401.523597 
L 495.276127 408.117811 
L 490.609743 414.55893 
L 485.721824 420.839385 
L 480.617335 426.951622 
L 475.301374 432.888439 
L 469.779085 438.643007 
L 464.055611 444.208499 
L 458.136137 449.578195 
L 452.025751 454.745392 
L 445.72964 459.703757 
L 439.253168 464.44734 
L 432.601699 468.97019 
L 425.780837 473.266495 
L 418.795766 477.330391 
L 411.652412 481.156458 
L 404.357621 484.739745 
L 396.918242 488.075306 
L 389.341585 491.158401 
L 381.634688 493.984147 
L 373.806217 496.548315 
L 365.866401 498.847376 
L 357.825472 500.877798 
L 349.694039 502.636339 
L 341.483174 504.11961 
L 333.205477 505.325193 
L 324.874604 506.25158 
L 316.504213 506.897265 
L 308.107895 507.261058 
L 299.700256 507.341761 
L 291.295895 507.139331 
L 282.908986 506.654642 
L 274.5537 505.888569 
L 266.243743 504.842256 
L 257.993459 503.517007 
L 249.815592 501.915155 
L 241.721425 500.039742 
L 233.722246 497.89381 
L 225.828854 495.480591 
L 218.051865 492.80351 
L 210.400113 489.866728 
L 202.881203 486.674863 
L 195.502741 483.232534 
L 188.272102 479.544499 
L 181.196144 475.61562 
L 174.280882 471.451269 
L 167.531897 467.057147 
L 160.954767 462.438957 
L 154.555034 457.602527 
L 148.33801 452.5537 
L 142.308894 447.298766 
L 136.472853 441.84432 
L 130.835055 436.196955 
L 125.400614 430.363389 
L 120.17478 424.350339 
L 115.162641 418.164971 
L 110.369142 411.814731 
L 105.799223 405.307068 
L 101.457676 398.649536 
L 97.349499 391.849725 
L 93.479158 384.915623 
L 89.850736 377.855442 
L 86.468318 370.677396 
L 83.335771 363.389775 
L 80.457083 356.000935 
L 77.835461 348.519518 
L 75.47363 340.954315 
L 73.374316 333.314113 
L 71.539998 325.60774 
L 69.973225 317.844104 
L 68.675679 310.032264 
L 67.648547 302.181338 
L 66.893011 294.300444 
L 66.410005 286.398697 
L 66.200516 278.485305 
L 66.264634 270.569475 
L 66.601962 262.660392 
L 67.212104 254.76724 
L 68.094411 246.899158 
L 69.248277 239.065386 
L 70.672199 231.275013 
L 72.36421 223.537023 
L 74.322347 215.860402 
L 76.544406 208.254049 
L 79.028189 200.726968 
L 81.770659 193.287861 
L 84.768372 185.945258 
L 88.017884 178.707687 
L 91.515574 171.583556 
L 95.257715 164.581369 
L 99.239972 157.709196 
L 103.457746 150.974885 
L 107.906436 144.386284 
L 112.581381 137.951099 
L 117.477724 131.677101 
L 122.590417 125.571554 
L 127.914348 119.641483 
L 133.444408 113.893912 
L 139.175453 108.335713 
L 145.102383 102.973812 
L 151.219995 97.8146 
L 157.523032 92.864235 
L 164.006237 88.128871 
L 170.664114 83.614483 
L 177.491717 79.327169 
L 184.483172 75.27241 
L 191.632147 71.455406 
L 198.932314 67.881362 
L 206.376761 64.555216 
L 213.959265 61.482182 
L 221.671411 58.666566 
L 229.503854 56.112277 
L 237.44725 53.823221 
L 245.491628 51.802931 
L 253.626944 50.05529 
L 261.840962 48.582861 
L 270.120643 47.387661 
L 278.452949 46.471709 
L 286.824711 45.836586 
L 295.221685 45.484095 
L 303.629427 45.414489 
L 312.033538 45.62744 
L 320.419617 46.12262 
L 328.773777 46.899301 
L 337.081008 47.956743 
L 345.328361 49.292823 
L 353.503698 50.904951 
L 361.594883 52.790532 
L 369.590493 54.946678 
L 377.478875 57.370365 
L 385.250838 60.057591 
L 392.898029 63.004044 
L 400.412095 66.205414 
L 407.785116 69.657177 
L 415.009614 73.354734 
L 422.079359 77.292814 
L 428.988492 81.465935 
L 435.731152 85.868618 
L 442.301589 90.4952 
L 448.69438 95.340054 
L 454.904289 100.396965 
L 460.926124 105.659539 
L 466.754692 111.121383 
L 472.384844 116.77593 
L 477.811332 122.616671 
L 483.029059 128.636522 
L 488.032986 134.828226 
L 492.818075 141.184527 
L 497.379447 147.698015 
L 501.711936 154.361292 
L 505.811006 161.166448 
L 509.672318 168.105432 
L 513.291533 175.170192 
L 516.664586 182.352557 
L 519.787173 189.644321 
L 522.65596 197.036901 
L 525.267887 204.52162 
L 527.619893 212.089799 
L 529.709237 219.732692 
L 531.533012 227.44148 
L 533.089385 235.207143 
L 534.376814 243.020614 
L 535.393755 250.872829 
L 536.139001 258.754706 
L 536.611196 266.657067 
L 536.810094 274.570717 
L 536.735728 282.486461 
L 536.388132 290.395108 
L 535.767679 298.287507 
L 534.874609 306.154384 
L 533.710266 313.986636 
L 532.27626 321.775211 
L 530.574202 329.511051 
L 528.606028 337.185203 
L 526.373578 344.788567 
L 523.879737 352.312399 
L 521.127628 359.748044 
L 518.120372 367.086846 
L 514.861359 374.320299 
L 511.354005 381.439748 
L 507.602523 388.437056 
L 503.611296 395.3042 
L 499.384707 402.033162 
L 494.927274 408.616103 
L 490.243691 415.045063 
L 485.338956 421.312693 
L 480.218121 427.411772 
L 474.886239 433.335082 
L 469.348398 439.075598 
L 463.609727 444.626204 
L 457.675413 449.980413 
L 451.550656 455.13187 
L 445.240655 460.074216 
L 438.750805 464.801318 
L 432.085987 469.306885 
L 425.251952 473.58534 
L 418.254621 477.631243 
L 411.099919 481.439156 
L 403.794395 485.003944 
L 396.343706 488.320147 
L 388.755908 491.383323 
L 381.039508 494.189221 
L 373.203009 496.73359 
L 365.255782 499.01262 
L 357.206876 501.02204 
L 349.068113 502.759079 
L 340.851781 504.221234 
L 332.570169 505.405999 
L 324.236009 506.311423 
L 315.862908 506.935171 
L 307.465193 507.276721 
L 299.057282 507.335847 
L 290.653595 507.112327 
L 282.268136 506.606483 
L 273.916262 505.818513 
L 265.611222 504.750276 
L 257.365921 503.403883 
L 249.193264 501.781446 
L 241.105244 499.885512 
L 233.114477 497.718692 
L 225.230585 495.284789 
L 217.462751 492.587778 
L 209.820157 489.631632 
L 202.311269 486.420634 
L 194.944301 482.959119 
L 187.725732 479.252225 
L 180.661808 475.3052 
L 173.758775 471.123293 
L 167.022623 466.71199 
L 160.458972 462.076729 
L 154.073107 457.223618 
L 147.870272 452.158848 
L 141.855711 446.888615 
L 136.034617 441.419334 
L 130.412214 435.757327 
L 124.993618 429.909575 
L 119.783932 423.88314 
L 114.788258 417.685083 
L 110.011548 411.322673 
L 105.459064 404.803126 
L 101.135441 398.134254 
L 97.045241 391.323939 
L 93.193025 384.380061 
L 89.583042 377.310671 
L 86.21985 370.123827 
L 83.106949 362.828036 
L 80.247724 355.43185 
L 77.645561 347.943826 
L 75.303448 340.372627 
L 73.224611 332.726973 
L 71.411074 325.015838 
L 69.864734 317.248223 
L 68.587492 309.433126 
L 67.580821 301.579592 
L 66.846409 293.696753 
L 66.384701 285.793793 
L 66.196026 277.879899 
L 66.280714 269.964258 
L 66.638659 262.05603 
L 67.269955 254.164497 
L 68.17346 246.298785 
L 69.347919 238.468002 
L 70.792081 230.681259 
L 72.50427 222.947563 
L 74.482975 215.27608 
L 76.725504 207.675609 
L 79.229068 200.154919 
L 81.990879 192.72278 
L 85.007774 185.387791 
L 88.27665 178.158727 
L 91.793444 171.043813 
L 95.55402 164.051233 
L 99.554244 157.189171 
L 103.789748 150.465591 
L 108.25604 143.888615 
L 112.948187 137.465702 
L 117.861226 131.204264 
L 122.990193 125.111712 
L 128.330062 119.195212 
L 133.8757 113.462061 
L 139.621939 107.918856 
L 145.563609 102.572156 
L 151.69554 97.428517 
L 158.012426 92.494227 
L 164.509345 87.775743 
L 171.180707 83.278768 
L 178.020889 79.008963 
L 185.024266 74.971991 
L 192.184613 71.173173 
L 199.496628 67.618157 
L 206.952687 64.31156 
L 214.545052 61.257943 
L 222.265984 58.461873 
L 230.106673 55.927418 
L 238.058966 53.659154 
L 246.111548 51.66011 
L 254.252969 49.933244 
L 262.471779 48.481518 
L 270.75569 47.307232 
L 279.091918 46.413183 
L 287.466284 45.80022 
L 295.864556 45.469115 
L 304.272504 45.420641 
L 312.67606 45.654857 
L 321.059828 46.172095 
L 329.4102 46.970809 
L 337.713625 48.049395 
L 345.956552 49.406249 
L 354.126475 51.039155 
L 362.209938 52.945937 
L 370.196792 55.123028 
L 378.076976 57.566825 
L 385.840426 60.273724 
L 393.478146 63.239679 
L 400.981091 66.460637 
L 408.342471 69.931619 
L 415.555545 73.647628 
L 422.613568 77.603668 
L 429.510298 81.794417 
L 436.239801 86.214628 
L 442.796729 90.858321 
L 449.175743 95.719508 
L 455.371504 100.792197 
L 461.378763 106.070116 
L 467.192317 111.547117 
L 472.807026 117.216344 
L 478.217752 123.07093 
L 483.419355 129.104012 
L 488.406817 135.308452 
L 493.174844 141.677216 
L 497.718685 148.202604 
L 502.03359 154.876913 
L 506.114813 161.692441 
L 509.95794 168.641251 
L 513.558207 175.715441 
L 516.91192 182.906596 
L 520.015386 190.206295 
L 522.864914 197.606119 
L 525.457272 205.097487 
L 527.788957 212.671787 
L 529.857717 220.320101 
L 531.661301 228.033509 
L 533.197471 235.803089 
L 534.464466 243.619838 
L 535.460323 251.474684 
L 536.184351 259.358457 
L 536.63586 267.261991 
L 536.814177 275.176119 
L 536.7191 283.091673 
L 536.350272 290.999384 
L 535.708585 298.890099 
L 534.794932 306.75467 
L 533.610228 314.583951 
L 532.155834 322.368867 
L 530.433013 330.100231 
L 528.44421 337.76917 
L 526.191872 345.366817 
L 523.678469 352.884313 
L 520.90687 360.312935 
L 517.879941 367.643849 
L 514.601541 374.868718 
L 511.075528 381.979204 
L 507.305778 388.966989 
L 503.296463 395.823936 
L 499.051882 402.541833 
L 494.576871 409.11308 
L 489.876266 415.530077 
L 484.954906 421.785247 
L 479.817756 427.871221 
L 474.469906 433.780605 
L 468.916508 439.506645 
L 463.162714 445.042584 
L 457.213689 450.381698 
L 451.074623 455.51747 
L 444.750567 460.443369 
L 438.246941 465.153522 
L 431.569163 469.642054 
L 424.722733 473.903132 
L 417.713351 477.93114 
L 410.546372 481.720394 
L 403.228867 485.266042 
L 395.767903 488.563236 
L 388.170697 491.607196 
L 380.445096 494.393411 
L 372.598929 496.917258 
L 364.642759 499.175357 
L 356.587149 501.164323 
L 348.442769 502.880873 
L 340.221154 504.322092 
L 331.934464 505.485066 
L 323.596544 506.368484 
L 315.22124 506.971032 
L 306.822342 507.291511 
L 298.414117 507.329179 
L 290.011542 507.083516 
L 281.628657 506.555595 
L 273.2795 505.746492 
L 264.97792 504.657376 
L 256.737458 503.289878 
L 248.571678 501.645983 
L 240.491539 499.728888 
L 232.507998 497.541794 
L 224.631838 495.087969 
L 216.873076 492.371039 
L 209.241143 489.394938 
L 201.743393 486.164391 
L 194.387176 482.684125 
L 187.179774 478.958918 
L 180.12788 474.99378 
L 173.237678 470.793912 
L 166.514669 466.365095 
L 159.96435 461.713111 
L 153.592214 456.843794 
L 147.403584 451.76313 
L 141.403664 446.47725 
L 135.597616 440.992821 
L 129.990599 435.316508 
L 124.587745 429.455034 
L 119.394216 423.415254 
L 114.415209 417.204182 
L 109.655621 410.829335 
L 105.120349 404.298231 
L 100.814213 397.618433 
L 96.742003 390.797638 
L 92.908413 383.843716 
L 89.317426 376.764938 
L 85.973025 369.569574 
L 82.879091 362.265927 
L 80.039358 354.862416 
L 77.457309 347.367613 
L 75.135543 339.790345 
L 73.076658 332.139438 
L 71.283135 324.423734 
L 69.757269 316.65216 
L 68.501022 308.833751 
L 67.515447 300.977642 
L 66.801595 293.092967 
L 66.360395 285.188853 
L 66.192585 277.274485 
L 66.298533 269.359095 
L 66.677708 261.45186 
L 67.329578 253.561959 
L 68.25349 245.698542 
L 69.448601 237.870787 
L 70.913672 230.08785 
L 72.646606 222.358686 
L 74.645307 214.692254 
L 76.907562 207.097462 
L 79.430969 199.583216 
L 82.212716 192.158326 
L 85.249245 184.831272 
L 88.536994 177.610533 
L 92.072324 170.504523 
L 95.851382 163.521624 
L 99.869964 156.67004 
L 104.123402 149.957556 
L 108.607024 143.391952 
L 113.316139 136.980934 
L 118.245879 130.732148 
L 123.39121 124.652999 
L 128.747008 118.750439 
L 134.308147 113.031419 
L 140.06948 107.50281 
L 146.025886 102.171412 
L 152.172213 97.04376 
L 158.50317 92.125935 
L 165.013469 87.424017 
L 171.697654 82.943984 
L 178.550524 78.691781 
L 185.566532 74.673068 
L 192.73917 70.892955 
L 200.061929 67.356551 
L 207.527948 64.068811 
L 215.130476 61.034719 
L 222.861698 58.258848 
L 230.711945 55.744968 
L 238.671546 53.496854 
L 246.730606 51.518133 
L 254.878534 49.81228 
L 263.103307 48.382028 
L 271.391872 47.229397 
L 279.73118 46.356409 
L 279.73118 46.356409 
" clip-path="url(#p8ceb53e4f9)" style="fill: none; stroke-dasharray: 22.4,5.6,3.5,5.6; stroke-dashoffset: 0; stroke: #0000ff; stroke-opacity: 0.8; stroke-width: 3.5"/>
   </g>
   <g id="patch_3">
    <path d="M 42.620313 530.438125 
L 42.620313 22.318125 
" style="fill: none; stroke: #000000; stroke-width: 0.8; stroke-linejoin: miter; stroke-linecap: square"/>
   </g>
   <g id="patch_4">
    <path d="M 561.210312 530.438125 
L 561.210312 22.318125 
" style="fill: none; stroke: #000000; stroke-width: 0.8; stroke-linejoin: miter; stroke-linecap: square"/>
   </g>
   <g id="patch_5">
    <path d="M 42.620313 530.438125 
L 561.210312 530.438125 
" style="fill: none; stroke: #000000; stroke-width: 0.8; stroke-linejoin: miter; stroke-linecap: square"/>
   </g>
   <g id="patch_6">
    <path d="M 42.620313 22.318125 
L 561.210312 22.318125 
" style="fill: none; stroke: #000000; stroke-width: 0.8; stroke-linejoin: miter; stroke-linecap: square"/>
   </g>
   <g id="line2d_13">
    <path d="M 536.584668 266.052179 
L 536.865652 270.37953 
L 536.999715 274.577962 
L 536.991191 278.652934 
L 536.844111 282.611042 
L 536.562403 286.459132 
L 536.149958 290.204551 
L 535.609992 293.856252 
L 534.945486 297.423668 
L 534.159102 300.916556 
L 533.253825 304.344991 
L 532.231299 307.720066 
L 531.092926 311.053039 
L 529.84011 314.355163 
L 526.994708 320.912267 
L 523.697326 327.480989 
L 519.943725 334.14481 
L 515.725547 340.981777 
L 511.027793 348.050775 
L 505.833236 355.400404 
L 500.121258 363.057982 
L 493.870512 371.028365 
L 487.059172 379.301348 
L 479.668319 387.836906 
L 471.6811 396.583228 
L 463.085313 405.469211 
L 453.874874 414.409767 
L 449.037964 418.872377 
L 444.04762 423.312351 
L 438.905082 427.715887 
L 433.611639 432.069098 
L 428.169358 436.356863 
L 422.579735 440.565118 
L 416.846777 444.675145 
L 410.974489 448.668226 
L 404.966952 452.525579 
L 398.829222 456.22688 
L 392.56583 459.750962 
L 386.184499 463.073812 
L 379.692954 466.171417 
L 373.098995 469.019975 
L 366.411459 471.595967 
L 359.639382 473.872079 
L 352.794428 475.828519 
L 345.888261 477.445492 
L 338.932556 478.703714 
L 331.939678 479.58754 
L 324.922965 480.079374 
L 317.896111 480.176531 
L 310.872811 479.876328 
L 303.86669 479.176466 
L 296.891362 478.079329 
L 289.961232 476.589473 
L 283.088934 474.720621 
L 276.287101 472.486497 
L 269.568261 469.90086 
L 262.944364 466.979617 
L 256.42746 463.740926 
L 250.027278 460.203259 
L 243.75355 456.385086 
L 237.615894 452.304838 
L 231.623217 447.980796 
L 225.784262 443.431204 
L 220.105667 438.67348 
L 214.594069 433.72504 
L 209.255978 428.603331 
L 204.097265 423.325709 
L 199.123661 417.909409 
L 194.33879 412.372218 
L 189.746276 406.731925 
L 185.349615 401.006187 
L 181.151677 395.212894 
L 177.155018 389.370725 
L 173.360253 383.496185 
L 169.767999 377.605778 
L 166.378791 371.715599 
L 163.192583 365.841041 
L 160.208788 359.997632 
L 157.425714 354.195 
L 154.841664 348.442773 
L 152.454942 342.750094 
L 150.263481 337.124347 
L 148.264745 331.571722 
L 146.456211 326.092254 
L 144.835356 320.685982 
L 143.399718 315.352647 
L 142.146774 310.09018 
L 141.073864 304.894917 
L 140.179106 299.759992 
L 139.460622 294.678539 
L 138.916612 289.643735 
L 138.545463 284.647719 
L 138.345759 279.681687 
L 138.316978 274.7376 
L 138.458594 269.80742 
L 138.770122 264.883488 
L 139.251356 259.958175 
L 139.902447 255.024058 
L 140.723912 250.077735 
L 141.716269 245.115803 
L 142.879991 240.135392 
L 144.215757 235.13464 
L 145.724481 230.113045 
L 147.406603 225.075044 
L 149.262563 220.025078 
L 151.292679 214.967913 
L 153.497269 209.909829 
L 155.876533 204.858805 
L 158.429568 199.825433 
L 161.155469 194.820305 
L 164.053193 189.853942 
L 167.121465 184.937871 
L 170.358576 180.084259 
L 173.761676 175.304375 
L 177.32791 170.609486 
L 181.054311 166.010684 
L 184.937611 161.518773 
L 188.974088 157.14388 
L 193.15917 152.894745 
L 197.488282 148.780113 
L 201.956719 144.808916 
L 206.559622 140.989244 
L 211.291812 137.328938 
L 216.147214 133.837468 
L 221.119752 130.524303 
L 226.203153 127.399288 
L 231.391087 124.472667 
L 236.676794 121.755987 
L 242.052175 119.263355 
L 247.509131 117.008883 
L 253.039362 115.006337 
L 258.634305 113.271399 
L 264.284627 111.82028 
L 269.979724 110.666474 
L 275.708992 109.823475 
L 281.461797 109.303418 
L 287.226915 109.119253 
L 292.992457 109.28061 
L 298.746451 109.78842 
L 304.476929 110.643611 
L 310.172138 111.84583 
L 315.819814 113.392446 
L 321.407882 115.275587 
L 326.925628 117.480377 
L 332.36234 119.991944 
L 337.707638 122.795221 
L 342.95116 125.872066 
L 348.083573 129.202086 
L 353.097376 132.764642 
L 357.98507 136.539099 
L 362.739433 140.505432 
L 367.353672 144.642603 
L 371.822151 148.931095 
L 376.1406 153.354915 
L 380.30475 157.89807 
L 384.310502 162.545204 
L 388.154191 167.281701 
L 391.83295 172.095397 
L 395.344655 176.977113 
L 398.687187 181.917673 
L 401.858524 186.908234 
L 404.856893 191.940879 
L 407.680961 197.009176 
L 410.329799 202.108009 
L 412.802477 207.23226 
L 415.098135 212.376933 
L 417.216022 217.537466 
L 419.155655 222.709847 
L 420.916837 227.890468 
L 422.499369 233.075721 
L 423.903112 238.262058 
L 425.127979 243.446021 
L 426.174106 248.624375 
L 427.04186 253.794103 
L 427.73161 258.952187 
L 428.243774 264.095656 
L 428.578813 269.221582 
L 428.73738 274.327214 
L 428.720323 279.409968 
L 428.52849 284.467261 
L 428.16278 289.4965 
L 427.624112 294.495231 
L 426.91358 299.461024 
L 426.032461 304.391376 
L 424.982035 309.283786 
L 423.763647 314.135625 
L 422.378618 318.944497 
L 420.828472 323.707633 
L 419.114972 328.421745 
L 417.239883 333.083543 
L 415.205076 337.689447 
L 413.012341 342.236138 
L 410.663782 346.719343 
L 408.161891 351.133725 
L 405.509159 355.473946 
L 402.708253 359.734251 
L 399.7617 363.908993 
L 396.672575 367.991048 
L 393.444552 371.971896 
L 390.081304 375.843013 
L 386.586755 379.595547 
L 382.964697 383.220246 
L 379.21975 386.706529 
L 375.35733 390.042862 
L 371.382854 393.217712 
L 367.302003 396.219668 
L 363.120475 399.03622 
L 358.844948 401.655033 
L 354.482891 404.064398 
L 350.041772 406.252604 
L 345.529234 408.208731 
L 340.953193 409.92061 
L 336.322329 411.378715 
L 331.645781 412.57606 
L 326.932683 413.505656 
L 322.19217 414.161658 
L 317.433827 414.537883 
L 312.667397 414.632301 
L 307.902534 414.446051 
L 303.148893 413.980272 
L 298.415955 413.236982 
L 293.713595 412.219037 
L 289.051153 410.932608 
L 284.437439 409.385929 
L 279.881262 407.58723 
L 275.391165 405.545046 
L 270.975872 403.269043 
L 266.643156 400.77006 
L 262.400095 398.059392 
L 258.253768 395.148333 
L 254.210974 392.048064 
L 250.278516 388.7704 
L 246.462178 385.326749 
L 242.767096 381.72809 
L 239.198401 377.985403 
L 235.760978 374.109416 
L 232.459651 370.111019 
L 229.298334 366.000203 
L 226.280402 361.786368 
L 223.409228 357.478911 
L 220.687977 353.086978 
L 218.119747 348.619734 
L 215.706872 344.085449 
L 213.451253 339.491861 
L 211.354791 334.846706 
L 209.419212 330.157494 
L 207.646187 325.431721 
L 206.036757 320.676087 
L 204.59162 315.896846 
L 203.311477 311.100253 
L 202.196882 306.292399 
L 201.248353 301.479278 
L 200.465887 296.666318 
L 199.849209 291.858656 
L 199.398045 287.061433 
L 199.111989 282.279715 
L 198.990633 277.518427 
L 199.033109 272.782262 
L 199.238311 268.075816 
L 199.605136 263.403685 
L 200.132347 258.770465 
L 200.818738 254.180656 
L 201.662653 249.638787 
L 202.662202 245.149411 
L 203.815496 240.717084 
L 205.120512 236.346406 
L 206.575272 232.041905 
L 208.177324 227.808293 
L 209.923976 223.650374 
L 211.812538 219.572958 
L 213.840162 215.58097 
L 216.004083 211.679167 
L 218.300996 207.872755 
L 220.727334 204.167169 
L 223.279532 200.567843 
L 225.953831 197.080437 
L 228.746606 193.7104 
L 231.653568 190.464019 
L 234.670115 187.347969 
L 237.791646 184.368924 
L 241.013325 181.533747 
L 244.330467 178.849479 
L 247.737564 176.323834 
L 251.228747 173.964766 
L 254.798146 171.780233 
L 258.439662 169.777985 
L 262.147223 167.96674 
L 265.91393 166.354348 
L 269.732557 164.948188 
L 273.595878 163.75564 
L 277.496541 162.783234 
L 281.426959 162.038854 
L 285.379085 161.527133 
L 289.344734 161.251314 
L 293.315723 161.21464 
L 297.283931 161.419125 
L 301.240785 161.867435 
L 305.177955 162.557822 
L 309.087263 163.486867 
L 312.960529 164.651151 
L 316.789823 166.046304 
L 320.566776 167.667392 
L 324.283941 169.506388 
L 327.934248 171.554242 
L 331.510625 173.801902 
L 335.006347 176.240044 
L 338.414446 178.858245 
L 341.729194 181.645526 
L 344.945297 184.590818 
L 348.057463 187.683052 
L 351.060738 190.911433 
L 353.950128 194.26439 
L 356.721796 197.731551 
L 359.372286 201.302989 
L 361.898136 204.968775 
L 364.296166 208.719431 
L 366.563242 212.545242 
L 368.69714 216.438061 
L 370.695918 220.39024 
L 372.55763 224.394134 
L 374.280547 228.442465 
L 375.862979 232.528024 
L 377.303923 236.644754 
L 378.602578 240.78694 
L 379.75814 244.948862 
L 380.769977 249.12501 
L 381.63746 253.310037 
L 382.360509 257.49917 
L 382.9392 261.687798 
L 383.37361 265.871306 
L 383.663969 270.045134 
L 383.810466 274.204907 
L 383.813792 278.346322 
L 383.674783 282.465088 
L 383.394273 286.556914 
L 382.973257 290.617429 
L 382.412643 294.642464 
L 381.713876 298.627493 
L 380.878551 302.567888 
L 379.908263 306.459019 
L 378.804798 310.296076 
L 377.569803 314.074426 
L 376.205569 317.788765 
L 374.714555 321.43362 
L 373.099221 325.003516 
L 371.362255 328.492774 
L 369.506183 331.895737 
L 367.534301 335.206087 
L 365.450098 338.417353 
L 363.257065 341.523063 
L 360.958944 344.516679 
L 358.559346 347.391357 
L 356.062726 350.140179 
L 353.473737 352.756231 
L 350.797033 355.232595 
L 348.037506 357.562608 
L 345.200017 359.738932 
L 342.290186 361.755338 
L 339.313794 363.605867 
L 336.276626 365.284559 
L 333.184621 366.786094 
L 330.043845 368.104351 
L 326.860809 369.235584 
L 323.642105 370.176568 
L 320.394328 370.924076 
L 317.124092 371.475757 
L 313.838275 371.828737 
L 310.543716 371.98307 
L 307.247238 371.939405 
L 303.95566 371.698393 
L 300.67568 371.261493 
L 297.4143 370.630131 
L 294.178013 369.808147 
L 290.9732 368.799841 
L 287.806247 367.609511 
L 284.683301 366.241959 
L 281.610771 364.702306 
L 278.594239 362.996932 
L 275.639131 361.13244 
L 272.750871 359.115433 
L 269.934598 356.952666 
L 267.195623 354.651284 
L 264.538321 352.218622 
L 261.966899 349.662039 
L 259.485564 346.988897 
L 257.098229 344.206475 
L 254.808914 341.322335 
L 252.620728 338.343629 
L 250.536627 335.277436 
L 248.559566 332.130837 
L 246.692226 328.910735 
L 244.937361 325.624191 
L 243.296896 322.277675 
L 241.772627 318.877564 
L 240.36635 315.430238 
L 239.079609 311.94189 
L 237.914014 308.418788 
L 236.870436 304.866663 
L 235.949636 301.291163 
L 235.152375 297.697938 
L 234.479188 294.092495 
L 233.930675 290.480357 
L 233.50677 286.866658 
L 233.207312 283.256478 
L 233.032143 279.654896 
L 232.980892 276.066905 
L 233.053261 272.497475 
L 233.248332 268.951372 
L 233.565103 265.433334 
L 234.002573 261.948099 
L 234.559533 258.500379 
L 235.234866 255.094835 
L 236.026843 251.736117 
L 236.933656 248.42887 
L 237.953499 245.177743 
L 239.084354 241.987415 
L 240.324314 238.862506 
L 241.670835 235.807787 
L 243.121303 232.828047 
L 244.6731 229.928075 
L 246.323387 227.112717 
L 248.069446 224.386823 
L 249.907889 221.75541 
L 251.835253 219.223514 
L 253.848077 216.796171 
L 255.942667 214.478403 
L 258.115436 212.275429 
L 260.362119 210.192296 
L 262.67838 208.234032 
L 265.059885 206.405665 
L 267.50209 204.711986 
L 270.000483 203.158274 
L 272.549976 201.748821 
L 275.145428 200.48782 
L 277.781697 199.379466 
L 280.453503 198.427387 
L 283.155474 197.635886 
L 285.881934 197.007264 
L 288.627184 196.543645 
L 291.385523 196.247148 
L 294.151236 196.119064 
L 296.91839 196.161243 
L 299.681165 196.372963 
L 302.43375 196.753287 
L 305.170338 197.301281 
L 307.885249 198.015162 
L 310.572524 198.893334 
L 313.226745 199.931955 
L 315.842534 201.127014 
L 318.414516 202.474498 
L 320.937567 203.969813 
L 323.406302 205.608182 
L 325.816171 207.3836 
L 328.162683 209.289982 
L 330.441347 211.321238 
L 332.647993 213.471077 
L 334.778254 215.732867 
L 336.828704 218.099821 
L 338.795976 220.565139 
L 340.676704 223.122024 
L 342.467853 225.763761 
L 344.166257 228.483354 
L 345.76965 231.274275 
L 347.275818 234.130027 
L 348.682549 237.044112 
L 349.987939 240.010237 
L 351.189987 243.021955 
L 353.279318 249.158868 
L 354.941557 255.408591 
L 356.169798 261.72633 
L 356.961504 268.07012 
L 357.315927 274.399012 
L 357.235467 280.673462 
L 356.725527 286.854856 
L 355.793245 292.904917 
L 354.449624 298.785609 
L 352.707306 304.458868 
L 352.707306 304.458868 
" clip-path="url(#p8ceb53e4f9)" style="fill: none; stroke-dasharray: 3.5,5.775; stroke-dashoffset: 0; stroke: #008000; stroke-opacity: 0.8; stroke-width: 3.5"/>
   </g>
   <g id="text_13">
    <!-- Phase Portrait (x0 vs x1) -->
    <g transform="translate(228.224062 16.318125) scale(0.12 -0.12)">
     <defs>
      <path id="DejaVuSans-50" d="M 1259 4147 
L 1259 2394 
L 2053 2394 
Q 2494 2394 2734 2622 
Q 2975 2850 2975 3272 
Q 2975 3691 2734 3919 
Q 2494 4147 2053 4147 
L 1259 4147 
z
M 628 4666 
L 2053 4666 
Q 2838 4666 3239 4311 
Q 3641 3956 3641 3272 
Q 3641 2581 3239 2228 
Q 2838 1875 2053 1875 
L 1259 1875 
L 1259 0 
L 628 0 
L 628 4666 
z
" transform="scale(0.015625)"/>
      <path id="DejaVuSans-68" d="M 3513 2113 
L 3513 0 
L 2938 0 
L 2938 2094 
Q 2938 2591 2744 2837 
Q 2550 3084 2163 3084 
Q 1697 3084 1428 2787 
Q 1159 2491 1159 1978 
L 1159 0 
L 581 0 
L 581 4863 
L 1159 4863 
L 1159 2956 
Q 1366 3272 1645 3428 
Q 1925 3584 2291 3584 
Q 2894 3584 3203 3211 
Q 3513 2838 3513 2113 
z
" transform="scale(0.015625)"/>
      <path id="DejaVuSans-61" d="M 2194 1759 
Q 1497 1759 1228 1600 
Q 959 1441 959 1056 
Q 959 750 1161 570 
Q 1363 391 1709 391 
Q 2188 391 2477 730 
Q 2766 1069 2766 1631 
L 2766 1759 
L 2194 1759 
z
M 3341 1997 
L 3341 0 
L 2766 0 
L 2766 531 
Q 2569 213 2275 61 
Q 1981 -91 1556 -91 
Q 1019 -91 701 211 
Q 384 513 384 1019 
Q 384 1609 779 1909 
Q 1175 2209 1959 2209 
L 2766 2209 
L 2766 2266 
Q 2766 2663 2505 2880 
Q 2244 3097 1772 3097 
Q 1472 3097 1187 3025 
Q 903 2953 641 2809 
L 641 3341 
Q 956 3463 1253 3523 
Q 1550 3584 1831 3584 
Q 2591 3584 2966 3190 
Q 3341 2797 3341 1997 
z
" transform="scale(0.015625)"/>
      <path id="DejaVuSans-73" d="M 2834 3397 
L 2834 2853 
Q 2591 2978 2328 3040 
Q 2066 3103 1784 3103 
Q 1356 3103 1142 2972 
Q 928 2841 928 2578 
Q 928 2378 1081 2264 
Q 1234 2150 1697 2047 
L 1894 2003 
Q 2506 1872 2764 1633 
Q 3022 1394 3022 966 
Q 3022 478 2636 193 
Q 2250 -91 1575 -91 
Q 1294 -91 989 -36 
Q 684 19 347 128 
L 347 722 
Q 666 556 975 473 
Q 1284 391 1588 391 
Q 1994 391 2212 530 
Q 2431 669 2431 922 
Q 2431 1156 2273 1281 
Q 2116 1406 1581 1522 
L 1381 1569 
Q 847 1681 609 1914 
Q 372 2147 372 2553 
Q 372 3047 722 3315 
Q 1072 3584 1716 3584 
Q 2034 3584 2315 3537 
Q 2597 3491 2834 3397 
z
" transform="scale(0.015625)"/>
      <path id="DejaVuSans-65" d="M 3597 1894 
L 3597 1613 
L 953 1613 
Q 991 1019 1311 708 
Q 1631 397 2203 397 
Q 2534 397 2845 478 
Q 3156 559 3463 722 
L 3463 178 
Q 3153 47 2828 -22 
Q 2503 -91 2169 -91 
Q 1331 -91 842 396 
Q 353 884 353 1716 
Q 353 2575 817 3079 
Q 1281 3584 2069 3584 
Q 2775 3584 3186 3129 
Q 3597 2675 3597 1894 
z
M 3022 2063 
Q 3016 2534 2758 2815 
Q 2500 3097 2075 3097 
Q 1594 3097 1305 2825 
Q 1016 2553 972 2059 
L 3022 2063 
z
" transform="scale(0.015625)"/>
      <path id="DejaVuSans-20" transform="scale(0.015625)"/>
      <path id="DejaVuSans-6f" d="M 1959 3097 
Q 1497 3097 1228 2736 
Q 959 2375 959 1747 
Q 959 1119 1226 758 
Q 1494 397 1959 397 
Q 2419 397 2687 759 
Q 2956 1122 2956 1747 
Q 2956 2369 2687 2733 
Q 2419 3097 1959 3097 
z
M 1959 3584 
Q 2709 3584 3137 3096 
Q 3566 2609 3566 1747 
Q 3566 888 3137 398 
Q 2709 -91 1959 -91 
Q 1206 -91 779 398 
Q 353 888 353 1747 
Q 353 2609 779 3096 
Q 1206 3584 1959 3584 
z
" transform="scale(0.015625)"/>
      <path id="DejaVuSans-72" d="M 2631 2963 
Q 2534 3019 2420 3045 
Q 2306 3072 2169 3072 
Q 1681 3072 1420 2755 
Q 1159 2438 1159 1844 
L 1159 0 
L 581 0 
L 581 3500 
L 1159 3500 
L 1159 2956 
Q 1341 3275 1631 3429 
Q 1922 3584 2338 3584 
Q 2397 3584 2469 3576 
Q 2541 3569 2628 3553 
L 2631 2963 
z
" transform="scale(0.015625)"/>
      <path id="DejaVuSans-74" d="M 1172 4494 
L 1172 3500 
L 2356 3500 
L 2356 3053 
L 1172 3053 
L 1172 1153 
Q 1172 725 1289 603 
Q 1406 481 1766 481 
L 2356 481 
L 2356 0 
L 1766 0 
Q 1100 0 847 248 
Q 594 497 594 1153 
L 594 3053 
L 172 3053 
L 172 3500 
L 594 3500 
L 594 4494 
L 1172 4494 
z
" transform="scale(0.015625)"/>
      <path id="DejaVuSans-69" d="M 603 3500 
L 1178 3500 
L 1178 0 
L 603 0 
L 603 3500 
z
M 603 4863 
L 1178 4863 
L 1178 4134 
L 603 4134 
L 603 4863 
z
" transform="scale(0.015625)"/>
      <path id="DejaVuSans-28" d="M 1984 4856 
Q 1566 4138 1362 3434 
Q 1159 2731 1159 2009 
Q 1159 1288 1364 580 
Q 1569 -128 1984 -844 
L 1484 -844 
Q 1016 -109 783 600 
Q 550 1309 550 2009 
Q 550 2706 781 3412 
Q 1013 4119 1484 4856 
L 1984 4856 
z
" transform="scale(0.015625)"/>
      <path id="DejaVuSans-76" d="M 191 3500 
L 800 3500 
L 1894 563 
L 2988 3500 
L 3597 3500 
L 2284 0 
L 1503 0 
L 191 3500 
z
" transform="scale(0.015625)"/>
      <path id="DejaVuSans-29" d="M 513 4856 
L 1013 4856 
Q 1481 4119 1714 3412 
Q 1947 2706 1947 2009 
Q 1947 1309 1714 600 
Q 1481 -109 1013 -844 
L 513 -844 
Q 928 -128 1133 580 
Q 1338 1288 1338 2009 
Q 1338 2731 1133 3434 
Q 928 4138 513 4856 
z
" transform="scale(0.015625)"/>
     </defs>
     <use xlink:href="#DejaVuSans-50"/>
     <use xlink:href="#DejaVuSans-68" transform="translate(60.302734 0)"/>
     <use xlink:href="#DejaVuSans-61" transform="translate(123.681641 0)"/>
     <use xlink:href="#DejaVuSans-73" transform="translate(184.960938 0)"/>
     <use xlink:href="#DejaVuSans-65" transform="translate(237.060547 0)"/>
     <use xlink:href="#DejaVuSans-20" transform="translate(298.583984 0)"/>
     <use xlink:href="#DejaVuSans-50" transform="translate(330.371094 0)"/>
     <use xlink:href="#DejaVuSans-6f" transform="translate(387.048828 0)"/>
     <use xlink:href="#DejaVuSans-72" transform="translate(448.230469 0)"/>
     <use xlink:href="#DejaVuSans-74" transform="translate(489.34375 0)"/>
     <use xlink:href="#DejaVuSans-72" transform="translate(528.552734 0)"/>
     <use xlink:href="#DejaVuSans-61" transform="translate(569.666016 0)"/>
     <use xlink:href="#DejaVuSans-69" transform="translate(630.945312 0)"/>
     <use xlink:href="#DejaVuSans-74" transform="translate(658.728516 0)"/>
     <use xlink:href="#DejaVuSans-20" transform="translate(697.9375 0)"/>
     <use xlink:href="#DejaVuSans-28" transform="translate(729.724609 0)"/>
     <use xlink:href="#DejaVuSans-78" transform="translate(768.738281 0)"/>
     <use xlink:href="#DejaVuSans-30" transform="translate(827.917969 0)"/>
     <use xlink:href="#DejaVuSans-20" transform="translate(891.541016 0)"/>
     <use xlink:href="#DejaVuSans-76" transform="translate(923.328125 0)"/>
     <use xlink:href="#DejaVuSans-73" transform="translate(982.507812 0)"/>
     <use xlink:href="#DejaVuSans-20" transform="translate(1034.607422 0)"/>
     <use xlink:href="#DejaVuSans-78" transform="translate(1066.394531 0)"/>
     <use xlink:href="#DejaVuSans-31" transform="translate(1125.574219 0)"/>
     <use xlink:href="#DejaVuSans-29" transform="translate(1189.197266 0)"/>
    </g>
   </g>
   <g id="line2d_14">
    <path d="M 536.584668 266.052179 
L 537.175869 269.547903 
L 537.527029 273.024796 
L 537.63804 276.511337 
L 537.50751 280.036233 
L 537.131778 283.628643 
L 536.504943 287.318397 
L 535.619718 291.1357 
L 534.465717 295.111783 
L 533.031204 299.278322 
L 531.301898 303.667692 
L 529.261075 308.312821 
L 526.890438 313.246894 
L 524.168381 318.502792 
L 521.07192 324.112967 
L 517.575476 330.10816 
L 513.651389 336.516153 
L 509.270549 343.362458 
L 504.401862 350.663682 
L 499.013648 358.43158 
L 493.073581 366.66542 
L 486.550259 375.349408 
L 479.41272 384.456485 
L 471.634699 393.928473 
L 463.192609 403.692515 
L 454.069941 413.642876 
L 449.250833 418.646218 
L 444.259365 423.643644 
L 439.094933 428.615491 
L 433.760079 433.53658 
L 428.257347 438.381735 
L 422.589455 443.125756 
L 416.76013 447.741876 
L 410.773117 452.201625 
L 404.635681 456.476467 
L 398.355088 460.537869 
L 391.93875 464.357704 
L 385.395143 467.908246 
L 378.733349 471.159964 
L 371.965092 474.0911 
L 365.102099 476.679898 
L 358.156139 478.905359 
L 351.139776 480.74913 
L 344.066492 482.192922 
L 336.950459 483.230929 
L 329.805844 483.857349 
L 322.646728 484.067115 
L 315.487444 483.858963 
L 308.342995 483.233805 
L 301.227014 482.203203 
L 294.153132 480.77872 
L 287.134794 478.972288 
L 280.185122 476.798942 
L 273.317295 474.27633 
L 266.541934 471.426591 
L 259.86966 468.271869 
L 253.310875 464.834232 
L 246.875304 461.137061 
L 240.572188 457.205123 
L 234.40812 453.061914 
L 228.389692 448.730927 
L 222.523313 444.235304 
L 216.81465 439.597893 
L 211.268661 434.841389 
L 205.888275 429.984328 
L 200.676419 425.045251 
L 195.635898 420.042266 
L 190.768912 414.992398 
L 186.077023 409.911599 
L 181.560572 404.811353 
L 177.219899 399.703141 
L 173.055284 394.598072 
L 169.066613 389.506071 
L 165.253339 384.435791 
L 161.614391 379.392345 
L 158.148699 374.380846 
L 154.855184 369.406134 
L 151.732564 364.472102 
L 148.779345 359.581576 
L 145.993996 354.735016 
L 143.37499 349.932882 
L 140.920826 345.175459 
L 138.629938 340.462386 
L 136.50073 335.792562 
L 134.531863 331.163501 
L 132.722003 326.572718 
L 131.069862 322.017634 
L 129.574178 317.495271 
L 128.233784 313.002216 
L 127.047919 308.534403 
L 126.015825 304.087763 
L 125.136803 299.658212 
L 124.41023 295.24143 
L 123.835653 290.832924 
L 123.413067 286.428124 
L 123.142468 282.022464 
L 123.023908 277.611441 
L 123.057544 273.190434 
L 123.243734 268.754878 
L 123.58323 264.300731 
L 124.076779 259.82395 
L 124.725166 255.320674 
L 125.529295 250.786985 
L 126.49026 246.219341 
L 127.609373 241.61545 
L 128.887944 236.973024 
L 130.327269 232.290113 
L 131.928781 227.564769 
L 133.694016 222.79589 
L 135.624412 217.984545 
L 137.721403 213.131806 
L 139.986335 208.239263 
L 142.420692 203.30864 
L 145.025871 198.343125 
L 147.802695 193.349022 
L 150.75199 188.332637 
L 153.874377 183.300912 
L 157.170601 178.261206 
L 160.64099 173.222928 
L 164.284721 168.199022 
L 168.100969 163.202431 
L 172.088604 158.24662 
L 176.246523 153.345958 
L 180.572785 148.516875 
L 185.063792 143.778393 
L 189.715943 139.149532 
L 194.52528 134.649352 
L 199.487682 130.298288 
L 204.597826 126.117608 
L 209.848588 122.128417 
L 215.232846 118.35182 
L 220.743181 114.808224 
L 226.371755 111.519345 
L 232.109487 108.505216 
L 237.945947 105.782116 
L 243.870705 103.366326 
L 249.873216 101.272855 
L 255.942337 99.517062 
L 262.066138 98.110127 
L 268.232288 97.057248 
L 274.428453 96.363625 
L 280.642416 96.033168 
L 286.861402 96.068786 
L 293.07267 96.468529 
L 299.26409 97.225058 
L 305.423534 98.331032 
L 311.539161 99.778344 
L 317.598834 101.557123 
L 323.591235 103.654218 
L 329.506303 106.053758 
L 335.333979 108.73987 
L 341.064557 111.696601 
L 346.688351 114.906452 
L 352.196912 118.351207 
L 357.583178 122.012753 
L 362.840091 125.872974 
L 367.960909 129.914172 
L 372.939127 134.117863 
L 377.769472 138.466875 
L 382.44781 142.945824 
L 386.970007 147.539325 
L 391.332161 152.232613 
L 395.530679 157.010832 
L 399.562912 161.861328 
L 403.42696 166.773672 
L 407.120922 171.737437 
L 410.643027 176.742778 
L 413.991785 181.78015 
L 417.166278 186.842163 
L 420.165967 191.92332 
L 422.990312 197.018125 
L 425.638821 202.121509 
L 428.111205 207.22883 
L 430.407421 212.337065 
L 432.527534 217.444454 
L 434.471611 222.54924 
L 436.239718 227.649896 
L 437.832032 232.745324 
L 439.24875 237.835332 
L 440.490038 242.920331 
L 441.556058 248.000729 
L 442.446956 253.076962 
L 443.162902 258.149869 
L 443.703989 263.220445 
L 444.070244 268.289654 
L 444.261696 273.358458 
L 444.27837 278.427624 
L 444.120232 283.498329 
L 443.78721 288.571114 
L 443.279237 293.64588 
L 442.596247 298.72253 
L 441.738232 303.800546 
L 440.705032 308.879818 
L 439.496632 313.958784 
L 438.113193 319.03468 
L 436.554876 324.104744 
L 434.821996 329.165604 
L 432.914632 334.214203 
L 430.833331 339.24533 
L 428.579065 344.252182 
L 426.152805 349.227956 
L 423.55579 354.165198 
L 420.788982 359.05644 
L 417.854225 363.891862 
L 414.754059 368.66009 
L 411.491022 373.349752 
L 408.068013 377.94906 
L 404.487708 382.445614 
L 400.754047 386.825482 
L 396.871844 391.073924 
L 392.845912 395.176201 
L 388.681447 399.117713 
L 384.383603 402.882626 
L 379.958937 406.455619 
L 375.414851 409.821975 
L 370.758745 412.96698 
L 365.998308 415.876754 
L 361.141462 418.536015 
L 356.197242 420.932606 
L 351.175238 423.056458 
L 346.08504 424.897499 
L 340.936328 426.446963 
L 335.739249 427.695271 
L 330.504361 428.63769 
L 325.242314 429.272281 
L 319.963757 429.597104 
L 314.679203 429.611483 
L 309.39969 429.31495 
L 304.135818 428.711628 
L 298.897827 427.807989 
L 293.695958 426.610507 
L 288.540144 425.126429 
L 283.44071 423.363968 
L 278.406889 421.333986 
L 273.447282 419.048507 
L 268.570491 416.519555 
L 263.784739 413.759295 
L 259.098421 410.781002 
L 254.518575 407.598226 
L 250.051555 404.224491 
L 245.703715 400.673322 
L 241.481057 396.957899 
L 237.389564 393.092196 
L 233.433952 389.088778 
L 229.618367 384.959459 
L 225.946952 380.716056 
L 222.423578 376.369833 
L 219.051991 371.932398 
L 215.834973 367.413312 
L 212.7749 362.821192 
L 209.87415 358.164654 
L 207.134917 353.451789 
L 204.559253 348.690673 
L 202.148577 343.887531 
L 199.904063 339.047805 
L 197.826885 334.176935 
L 195.918105 329.280009 
L 194.178683 324.36187 
L 192.609202 319.426183 
L 191.210105 314.476158 
L 189.981837 309.515006 
L 188.924764 304.545824 
L 188.039223 299.571327 
L 187.325299 294.593929 
L 186.782974 289.615962 
L 186.412232 284.639762 
L 186.21297 279.667806 
L 186.185153 274.702117 
L 186.328451 269.745322 
L 186.642416 264.800323 
L 187.126598 259.870021 
L 187.780405 254.95769 
L 188.60342 250.066157 
L 189.594743 245.199637 
L 190.753277 240.362888 
L 192.077927 235.560666 
L 193.567376 230.798237 
L 195.220556 226.080577 
L 197.035627 221.414462 
L 199.010451 216.807311 
L 201.142887 212.266546 
L 203.430489 207.80004 
L 205.871082 203.415753 
L 208.461412 199.12315 
L 211.197833 194.932184 
L 214.076704 190.852806 
L 217.094021 186.895109 
L 220.245977 183.069808 
L 223.527513 179.387902 
L 226.933153 175.860428 
L 230.457422 172.498421 
L 234.09451 169.312538 
L 237.838623 166.314495 
L 241.682824 163.51438 
L 245.619835 160.921711 
L 249.642377 158.546005 
L 253.742952 156.395864 
L 257.913855 154.480982 
L 262.146687 152.80764 
L 266.432873 151.381054 
L 270.763836 150.206439 
L 275.13097 149.287824 
L 279.525285 148.629863 
L 283.937777 148.233092 
L 288.359469 148.096867 
L 292.781386 148.220541 
L 297.194715 148.602405 
L 301.590218 149.240693 
L 305.95931 150.130259 
L 310.293608 151.265055 
L 314.58473 152.639036 
L 318.824599 154.245526 
L 323.004796 156.07729 
L 327.117997 158.125375 
L 331.157177 160.380415 
L 335.115311 162.833046 
L 338.985737 165.473784 
L 342.761597 168.292447 
L 346.437264 171.278834 
L 350.007424 174.422777 
L 353.46676 177.714105 
L 356.810306 181.142905 
L 360.033028 184.698716 
L 363.131019 188.372163 
L 366.100637 192.154146 
L 368.938243 196.035564 
L 371.640488 200.007733 
L 374.20403 204.061692 
L 376.626435 208.189894 
L 378.905469 212.385117 
L 381.0389 216.640142 
L 383.024725 220.948124 
L 384.86096 225.302205 
L 386.546312 229.696661 
L 388.079635 234.126012 
L 389.459784 238.584777 
L 390.685799 243.067688 
L 391.756704 247.56966 
L 392.672085 252.086117 
L 393.431641 256.612586 
L 394.035073 261.144589 
L 394.482256 265.677646 
L 394.772988 270.207574 
L 394.907612 274.729979 
L 394.886586 279.240416 
L 394.710365 283.734441 
L 394.379606 288.207403 
L 393.894814 292.654964 
L 393.257148 297.071973 
L 392.467893 301.453122 
L 391.528337 305.793101 
L 390.440018 310.086286 
L 389.204265 314.327237 
L 387.82324 318.509459 
L 386.299257 322.626269 
L 384.634635 326.670982 
L 382.831996 330.636645 
L 380.893742 334.516212 
L 378.823276 338.301908 
L 376.624177 341.985836 
L 374.300023 345.560098 
L 371.854726 349.016772 
L 369.292036 352.347477 
L 366.616757 355.544049 
L 363.833861 358.59837 
L 360.948322 361.50232 
L 357.965416 364.24815 
L 354.890388 366.827351 
L 351.729376 369.232965 
L 348.48865 371.458283 
L 345.174483 373.496595 
L 341.793345 375.34196 
L 338.351842 376.987629 
L 334.857086 378.429568 
L 331.316253 379.664145 
L 327.736523 380.687726 
L 324.12512 381.497674 
L 320.489535 382.090793 
L 316.837239 382.467034 
L 313.175695 382.626783 
L 309.512365 382.570426 
L 305.85459 382.29929 
L 302.210033 381.814557 
L 298.585827 381.120067 
L 294.989033 380.220004 
L 291.426708 379.11855 
L 287.905655 377.820535 
L 284.432975 376.331005 
L 281.014875 374.656555 
L 277.657452 372.803963 
L 274.366805 370.780007 
L 271.148697 368.591726 
L 268.009116 366.246548 
L 264.953004 363.752254 
L 261.985183 361.116667 
L 259.110476 358.347608 
L 256.333356 355.452832 
L 253.658438 352.440465 
L 251.089316 349.318151 
L 248.629472 346.093481 
L 246.282392 342.774046 
L 244.051234 339.367201 
L 241.939244 335.880532 
L 239.948761 332.320822 
L 238.082036 328.694775 
L 236.341318 325.009094 
L 234.728568 321.270232 
L 233.24582 317.484703 
L 231.894325 313.658347 
L 230.675259 309.796935 
L 229.589802 305.90624 
L 228.638873 301.991884 
L 227.823478 298.059413 
L 227.143917 294.114075 
L 226.600426 290.161094 
L 226.193244 286.205693 
L 225.922357 282.253087 
L 225.787876 278.308344 
L 225.789201 274.376668 
L 225.925679 270.463273 
L 226.196655 266.573373 
L 226.601209 262.712297 
L 227.138582 258.885242 
L 227.807245 255.097827 
L 228.605612 251.355698 
L 229.532096 247.664504 
L 230.584821 244.030039 
L 231.762085 240.458092 
L 233.06134 236.954833 
L 234.47998 233.526456 
L 236.015398 230.179159 
L 237.664674 226.919181 
L 239.425049 223.75297 
L 241.292879 220.686909 
L 243.264469 217.727378 
L 245.336122 214.880755 
L 247.503841 212.153233 
L 249.763717 209.551436 
L 252.111043 207.081148 
L 254.541069 204.748107 
L 257.049043 202.558049 
L 259.62997 200.51622 
L 262.278843 198.628442 
L 264.990083 196.898842 
L 267.758086 195.331469 
L 270.577244 193.930369 
L 273.441818 192.698835 
L 276.34594 191.640718 
L 279.283531 190.757607 
L 282.2485 190.050995 
L 285.234758 189.522374 
L 288.236217 189.172379 
L 291.246584 189.002022 
L 294.25975 189.010021 
L 297.269616 189.195011 
L 300.270083 189.555622 
L 303.255192 190.089722 
L 306.218743 190.795311 
L 309.155077 191.668586 
L 312.058551 192.705688 
L 314.923524 193.902756 
L 317.744607 195.255412 
L 320.516177 196.759194 
L 323.23339 198.40862 
L 325.891422 200.198181 
L 328.485449 202.122367 
L 331.010967 204.175438 
L 333.463272 206.351461 
L 335.838541 208.644233 
L 338.132969 211.04754 
L 340.342754 213.555173 
L 342.464337 216.160891 
L 344.494347 218.85836 
L 346.429917 221.641361 
L 348.268185 224.503675 
L 348.268185 224.503675 
" clip-path="url(#p8ceb53e4f9)" style="fill: none; stroke-dasharray: 12.95,5.6; stroke-dashoffset: 0; stroke: #ff0000; stroke-opacity: 0.8; stroke-width: 3.5"/>
   </g>
   <g id="legend_1">
    <g id="patch_7">
     <path d="M 408.860312 89.030625 
L 554.210312 89.030625 
Q 556.210312 89.030625 556.210312 87.030625 
L 556.210312 29.318125 
Q 556.210312 27.318125 554.210312 27.318125 
L 408.860312 27.318125 
Q 406.860312 27.318125 406.860312 29.318125 
L 406.860312 87.030625 
Q 406.860312 89.030625 408.860312 89.030625 
z
" style="fill: #ffffff; opacity: 0.8; stroke: #cccccc; stroke-linejoin: miter"/>
    </g>
    <g id="line2d_15">
     <path d="M 410.860312 35.416562 
L 420.860312 35.416562 
L 430.860312 35.416562 
" style="fill: none; stroke: #000000; stroke-opacity: 0.3; stroke-width: 7; stroke-linecap: square"/>
    </g>
    <g id="text_14">
     <!-- True/Underlying model -->
     <g transform="translate(438.860312 38.916562) scale(0.1 -0.1)">
      <defs>
       <path id="DejaVuSans-54" d="M -19 4666 
L 3928 4666 
L 3928 4134 
L 2272 4134 
L 2272 0 
L 1638 0 
L 1638 4134 
L -19 4134 
L -19 4666 
z
" transform="scale(0.015625)"/>
       <path id="DejaVuSans-75" d="M 544 1381 
L 544 3500 
L 1119 3500 
L 1119 1403 
Q 1119 906 1312 657 
Q 1506 409 1894 409 
Q 2359 409 2629 706 
Q 2900 1003 2900 1516 
L 2900 3500 
L 3475 3500 
L 3475 0 
L 2900 0 
L 2900 538 
Q 2691 219 2414 64 
Q 2138 -91 1772 -91 
Q 1169 -91 856 284 
Q 544 659 544 1381 
z
M 1991 3584 
L 1991 3584 
z
" transform="scale(0.015625)"/>
       <path id="DejaVuSans-2f" d="M 1625 4666 
L 2156 4666 
L 531 -594 
L 0 -594 
L 1625 4666 
z
" transform="scale(0.015625)"/>
       <path id="DejaVuSans-55" d="M 556 4666 
L 1191 4666 
L 1191 1831 
Q 1191 1081 1462 751 
Q 1734 422 2344 422 
Q 2950 422 3222 751 
Q 3494 1081 3494 1831 
L 3494 4666 
L 4128 4666 
L 4128 1753 
Q 4128 841 3676 375 
Q 3225 -91 2344 -91 
Q 1459 -91 1007 375 
Q 556 841 556 1753 
L 556 4666 
z
" transform="scale(0.015625)"/>
       <path id="DejaVuSans-6e" d="M 3513 2113 
L 3513 0 
L 2938 0 
L 2938 2094 
Q 2938 2591 2744 2837 
Q 2550 3084 2163 3084 
Q 1697 3084 1428 2787 
Q 1159 2491 1159 1978 
L 1159 0 
L 581 0 
L 581 3500 
L 1159 3500 
L 1159 2956 
Q 1366 3272 1645 3428 
Q 1925 3584 2291 3584 
Q 2894 3584 3203 3211 
Q 3513 2838 3513 2113 
z
" transform="scale(0.015625)"/>
       <path id="DejaVuSans-64" d="M 2906 2969 
L 2906 4863 
L 3481 4863 
L 3481 0 
L 2906 0 
L 2906 525 
Q 2725 213 2448 61 
Q 2172 -91 1784 -91 
Q 1150 -91 751 415 
Q 353 922 353 1747 
Q 353 2572 751 3078 
Q 1150 3584 1784 3584 
Q 2172 3584 2448 3432 
Q 2725 3281 2906 2969 
z
M 947 1747 
Q 947 1113 1208 752 
Q 1469 391 1925 391 
Q 2381 391 2643 752 
Q 2906 1113 2906 1747 
Q 2906 2381 2643 2742 
Q 2381 3103 1925 3103 
Q 1469 3103 1208 2742 
Q 947 2381 947 1747 
z
" transform="scale(0.015625)"/>
       <path id="DejaVuSans-6c" d="M 603 4863 
L 1178 4863 
L 1178 0 
L 603 0 
L 603 4863 
z
" transform="scale(0.015625)"/>
       <path id="DejaVuSans-79" d="M 2059 -325 
Q 1816 -950 1584 -1140 
Q 1353 -1331 966 -1331 
L 506 -1331 
L 506 -850 
L 844 -850 
Q 1081 -850 1212 -737 
Q 1344 -625 1503 -206 
L 1606 56 
L 191 3500 
L 800 3500 
L 1894 763 
L 2988 3500 
L 3597 3500 
L 2059 -325 
z
" transform="scale(0.015625)"/>
       <path id="DejaVuSans-67" d="M 2906 1791 
Q 2906 2416 2648 2759 
Q 2391 3103 1925 3103 
Q 1463 3103 1205 2759 
Q 947 2416 947 1791 
Q 947 1169 1205 825 
Q 1463 481 1925 481 
Q 2391 481 2648 825 
Q 2906 1169 2906 1791 
z
M 3481 434 
Q 3481 -459 3084 -895 
Q 2688 -1331 1869 -1331 
Q 1566 -1331 1297 -1286 
Q 1028 -1241 775 -1147 
L 775 -588 
Q 1028 -725 1275 -790 
Q 1522 -856 1778 -856 
Q 2344 -856 2625 -561 
Q 2906 -266 2906 331 
L 2906 616 
Q 2728 306 2450 153 
Q 2172 0 1784 0 
Q 1141 0 747 490 
Q 353 981 353 1791 
Q 353 2603 747 3093 
Q 1141 3584 1784 3584 
Q 2172 3584 2450 3431 
Q 2728 3278 2906 2969 
L 2906 3500 
L 3481 3500 
L 3481 434 
z
" transform="scale(0.015625)"/>
       <path id="DejaVuSans-6d" d="M 3328 2828 
Q 3544 3216 3844 3400 
Q 4144 3584 4550 3584 
Q 5097 3584 5394 3201 
Q 5691 2819 5691 2113 
L 5691 0 
L 5113 0 
L 5113 2094 
Q 5113 2597 4934 2840 
Q 4756 3084 4391 3084 
Q 3944 3084 3684 2787 
Q 3425 2491 3425 1978 
L 3425 0 
L 2847 0 
L 2847 2094 
Q 2847 2600 2669 2842 
Q 2491 3084 2119 3084 
Q 1678 3084 1418 2786 
Q 1159 2488 1159 1978 
L 1159 0 
L 581 0 
L 581 3500 
L 1159 3500 
L 1159 2956 
Q 1356 3278 1631 3431 
Q 1906 3584 2284 3584 
Q 2666 3584 2933 3390 
Q 3200 3197 3328 2828 
z
" transform="scale(0.015625)"/>
      </defs>
      <use xlink:href="#DejaVuSans-54"/>
      <use xlink:href="#DejaVuSans-72" transform="translate(46.333984 0)"/>
      <use xlink:href="#DejaVuSans-75" transform="translate(87.447266 0)"/>
      <use xlink:href="#DejaVuSans-65" transform="translate(150.826172 0)"/>
      <use xlink:href="#DejaVuSans-2f" transform="translate(212.349609 0)"/>
      <use xlink:href="#DejaVuSans-55" transform="translate(246.041016 0)"/>
      <use xlink:href="#DejaVuSans-6e" transform="translate(319.234375 0)"/>
      <use xlink:href="#DejaVuSans-64" transform="translate(382.613281 0)"/>
      <use xlink:href="#DejaVuSans-65" transform="translate(446.089844 0)"/>
      <use xlink:href="#DejaVuSans-72" transform="translate(507.613281 0)"/>
      <use xlink:href="#DejaVuSans-6c" transform="translate(548.726562 0)"/>
      <use xlink:href="#DejaVuSans-79" transform="translate(576.509766 0)"/>
      <use xlink:href="#DejaVuSans-69" transform="translate(635.689453 0)"/>
      <use xlink:href="#DejaVuSans-6e" transform="translate(663.472656 0)"/>
      <use xlink:href="#DejaVuSans-67" transform="translate(726.851562 0)"/>
      <use xlink:href="#DejaVuSans-20" transform="translate(790.328125 0)"/>
      <use xlink:href="#DejaVuSans-6d" transform="translate(822.115234 0)"/>
      <use xlink:href="#DejaVuSans-6f" transform="translate(919.527344 0)"/>
      <use xlink:href="#DejaVuSans-64" transform="translate(980.708984 0)"/>
      <use xlink:href="#DejaVuSans-65" transform="translate(1044.185547 0)"/>
      <use xlink:href="#DejaVuSans-6c" transform="translate(1105.708984 0)"/>
     </g>
    </g>
    <g id="line2d_16">
     <path d="M 410.860312 50.094687 
L 420.860312 50.094687 
L 430.860312 50.094687 
" style="fill: none; stroke-dasharray: 12.95,5.6; stroke-dashoffset: 0; stroke: #ff0000; stroke-opacity: 0.8; stroke-width: 3.5"/>
    </g>
    <g id="text_15">
     <!-- AutoSINDy -->
     <g transform="translate(438.860312 53.594687) scale(0.1 -0.1)">
      <defs>
       <path id="DejaVuSans-41" d="M 2188 4044 
L 1331 1722 
L 3047 1722 
L 2188 4044 
z
M 1831 4666 
L 2547 4666 
L 4325 0 
L 3669 0 
L 3244 1197 
L 1141 1197 
L 716 0 
L 50 0 
L 1831 4666 
z
" transform="scale(0.015625)"/>
       <path id="DejaVuSans-53" d="M 3425 4513 
L 3425 3897 
Q 3066 4069 2747 4153 
Q 2428 4238 2131 4238 
Q 1616 4238 1336 4038 
Q 1056 3838 1056 3469 
Q 1056 3159 1242 3001 
Q 1428 2844 1947 2747 
L 2328 2669 
Q 3034 2534 3370 2195 
Q 3706 1856 3706 1288 
Q 3706 609 3251 259 
Q 2797 -91 1919 -91 
Q 1588 -91 1214 -16 
Q 841 59 441 206 
L 441 856 
Q 825 641 1194 531 
Q 1563 422 1919 422 
Q 2459 422 2753 634 
Q 3047 847 3047 1241 
Q 3047 1584 2836 1778 
Q 2625 1972 2144 2069 
L 1759 2144 
Q 1053 2284 737 2584 
Q 422 2884 422 3419 
Q 422 4038 858 4394 
Q 1294 4750 2059 4750 
Q 2388 4750 2728 4690 
Q 3069 4631 3425 4513 
z
" transform="scale(0.015625)"/>
       <path id="DejaVuSans-49" d="M 628 4666 
L 1259 4666 
L 1259 0 
L 628 0 
L 628 4666 
z
" transform="scale(0.015625)"/>
       <path id="DejaVuSans-4e" d="M 628 4666 
L 1478 4666 
L 3547 763 
L 3547 4666 
L 4159 4666 
L 4159 0 
L 3309 0 
L 1241 3903 
L 1241 0 
L 628 0 
L 628 4666 
z
" transform="scale(0.015625)"/>
       <path id="DejaVuSans-44" d="M 1259 4147 
L 1259 519 
L 2022 519 
Q 2988 519 3436 956 
Q 3884 1394 3884 2338 
Q 3884 3275 3436 3711 
Q 2988 4147 2022 4147 
L 1259 4147 
z
M 628 4666 
L 1925 4666 
Q 3281 4666 3915 4102 
Q 4550 3538 4550 2338 
Q 4550 1131 3912 565 
Q 3275 0 1925 0 
L 628 0 
L 628 4666 
z
" transform="scale(0.015625)"/>
      </defs>
      <use xlink:href="#DejaVuSans-41"/>
      <use xlink:href="#DejaVuSans-75" transform="translate(68.408203 0)"/>
      <use xlink:href="#DejaVuSans-74" transform="translate(131.787109 0)"/>
      <use xlink:href="#DejaVuSans-6f" transform="translate(170.996094 0)"/>
      <use xlink:href="#DejaVuSans-53" transform="translate(232.177734 0)"/>
      <use xlink:href="#DejaVuSans-49" transform="translate(295.654297 0)"/>
      <use xlink:href="#DejaVuSans-4e" transform="translate(325.146484 0)"/>
      <use xlink:href="#DejaVuSans-44" transform="translate(399.951172 0)"/>
      <use xlink:href="#DejaVuSans-79" transform="translate(476.953125 0)"/>
     </g>
    </g>
    <g id="line2d_17">
     <path d="M 410.860312 64.772812 
L 420.860312 64.772812 
L 430.860312 64.772812 
" style="fill: none; stroke-dasharray: 3.5,5.775; stroke-dashoffset: 0; stroke: #008000; stroke-opacity: 0.8; stroke-width: 3.5"/>
    </g>
    <g id="text_16">
     <!-- Standard SINDy -->
     <g transform="translate(438.860312 68.272812) scale(0.1 -0.1)">
      <use xlink:href="#DejaVuSans-53"/>
      <use xlink:href="#DejaVuSans-74" transform="translate(63.476562 0)"/>
      <use xlink:href="#DejaVuSans-61" transform="translate(102.685547 0)"/>
      <use xlink:href="#DejaVuSans-6e" transform="translate(163.964844 0)"/>
      <use xlink:href="#DejaVuSans-64" transform="translate(227.34375 0)"/>
      <use xlink:href="#DejaVuSans-61" transform="translate(290.820312 0)"/>
      <use xlink:href="#DejaVuSans-72" transform="translate(352.099609 0)"/>
      <use xlink:href="#DejaVuSans-64" transform="translate(391.462891 0)"/>
      <use xlink:href="#DejaVuSans-20" transform="translate(454.939453 0)"/>
      <use xlink:href="#DejaVuSans-53" transform="translate(486.726562 0)"/>
      <use xlink:href="#DejaVuSans-49" transform="translate(550.203125 0)"/>
      <use xlink:href="#DejaVuSans-4e" transform="translate(579.695312 0)"/>
      <use xlink:href="#DejaVuSans-44" transform="translate(654.5 0)"/>
      <use xlink:href="#DejaVuSans-79" transform="translate(731.501953 0)"/>
     </g>
    </g>
    <g id="line2d_18">
     <path d="M 410.860312 79.450937 
L 420.860312 79.450937 
L 430.860312 79.450937 
" style="fill: none; stroke-dasharray: 22.4,5.6,3.5,5.6; stroke-dashoffset: 0; stroke: #0000ff; stroke-opacity: 0.8; stroke-width: 3.5"/>
    </g>
    <g id="text_17">
     <!-- Standard PySR -->
     <g transform="translate(438.860312 82.950937) scale(0.1 -0.1)">
      <defs>
       <path id="DejaVuSans-52" d="M 2841 2188 
Q 3044 2119 3236 1894 
Q 3428 1669 3622 1275 
L 4263 0 
L 3584 0 
L 2988 1197 
Q 2756 1666 2539 1819 
Q 2322 1972 1947 1972 
L 1259 1972 
L 1259 0 
L 628 0 
L 628 4666 
L 2053 4666 
Q 2853 4666 3247 4331 
Q 3641 3997 3641 3322 
Q 3641 2881 3436 2590 
Q 3231 2300 2841 2188 
z
M 1259 4147 
L 1259 2491 
L 2053 2491 
Q 2509 2491 2742 2702 
Q 2975 2913 2975 3322 
Q 2975 3731 2742 3939 
Q 2509 4147 2053 4147 
L 1259 4147 
z
" transform="scale(0.015625)"/>
      </defs>
      <use xlink:href="#DejaVuSans-53"/>
      <use xlink:href="#DejaVuSans-74" transform="translate(63.476562 0)"/>
      <use xlink:href="#DejaVuSans-61" transform="translate(102.685547 0)"/>
      <use xlink:href="#DejaVuSans-6e" transform="translate(163.964844 0)"/>
      <use xlink:href="#DejaVuSans-64" transform="translate(227.34375 0)"/>
      <use xlink:href="#DejaVuSans-61" transform="translate(290.820312 0)"/>
      <use xlink:href="#DejaVuSans-72" transform="translate(352.099609 0)"/>
      <use xlink:href="#DejaVuSans-64" transform="translate(391.462891 0)"/>
      <use xlink:href="#DejaVuSans-20" transform="translate(454.939453 0)"/>
      <use xlink:href="#DejaVuSans-50" transform="translate(486.726562 0)"/>
      <use xlink:href="#DejaVuSans-79" transform="translate(547.029297 0)"/>
      <use xlink:href="#DejaVuSans-53" transform="translate(606.208984 0)"/>
      <use xlink:href="#DejaVuSans-52" transform="translate(669.685547 0)"/>
     </g>
    </g>
   </g>
  </g>
 </g>
 <defs>
  <clipPath id="p8ceb53e4f9">
   <rect x="42.620313" y="22.318125" width="518.59" height="508.12"/>
  </clipPath>
 </defs>
</svg>
