<?xml version="1.0" encoding="utf-8" standalone="no"?>
<!DOCTYPE svg PUBLIC "-//W3C//DTD SVG 1.1//EN"
  "http://www.w3.org/Graphics/SVG/1.1/DTD/svg11.dtd">
<svg xmlns:xlink="http://www.w3.org/1999/xlink" width="568.410937pt" height="567.994375pt" viewBox="0 0 568.410937 567.994375" xmlns="http://www.w3.org/2000/svg" version="1.1">
 <metadata>
  <rdf:RDF xmlns:dc="http://purl.org/dc/elements/1.1/" xmlns:cc="http://creativecommons.org/ns#" xmlns:rdf="http://www.w3.org/1999/02/22-rdf-syntax-ns#">
   <cc:Work>
    <dc:type rdf:resource="http://purl.org/dc/dcmitype/StillImage"/>
    <dc:date>2026-04-06T12:02:00.880883</dc:date>
    <dc:format>image/svg+xml</dc:format>
    <dc:creator>
     <cc:Agent>
      <dc:title>Matplotlib v3.10.7, https://matplotlib.org/</dc:title>
     </cc:Agent>
    </dc:creator>
   </cc:Work>
  </rdf:RDF>
 </metadata>
 <defs>
  <style type="text/css">*{stroke-linejoin: round; stroke-linecap: butt}</style>
 </defs>
 <g id="figure_1">
  <g id="patch_1">
   <path d="M 0 567.994375 
L 568.410937 567.994375 
L 568.410937 0 
L 0 0 
z
" style="fill: #ffffff"/>
  </g>
  <g id="axes_1">
   <g id="patch_2">
    <path d="M 52.160938 530.438125 
L 561.210937 530.438125 
L 561.210937 22.318125 
L 52.160938 22.318125 
z
" style="fill: #ffffff"/>
   </g>
   <g id="matplotlib.axis_1">
    <g id="xtick_1">
     <g id="line2d_1">
      <defs>
       <path id="mbfede6b5f0" d="M 0 0 
L 0 3.5 
" style="stroke: #000000; stroke-width: 0.8"/>
      </defs>
      <g>
       <use xlink:href="#mbfede6b5f0" x="76.735808" y="530.438125" style="stroke: #000000; stroke-width: 0.8"/>
      </g>
     </g>
     <g id="text_1">
      <!-- −0.8 -->
      <g transform="translate(64.594402 545.036562) scale(0.1 -0.1)">
       <defs>
        <path id="DejaVuSans-2212" d="M 678 2272 
L 4684 2272 
L 4684 1741 
L 678 1741 
L 678 2272 
z
" transform="scale(0.015625)"/>
        <path id="DejaVuSans-30" d="M 2034 4250 
Q 1547 4250 1301 3770 
Q 1056 3291 1056 2328 
Q 1056 1369 1301 889 
Q 1547 409 2034 409 
Q 2525 409 2770 889 
Q 3016 1369 3016 2328 
Q 3016 3291 2770 3770 
Q 2525 4250 2034 4250 
z
M 2034 4750 
Q 2819 4750 3233 4129 
Q 3647 3509 3647 2328 
Q 3647 1150 3233 529 
Q 2819 -91 2034 -91 
Q 1250 -91 836 529 
Q 422 1150 422 2328 
Q 422 3509 836 4129 
Q 1250 4750 2034 4750 
z
" transform="scale(0.015625)"/>
        <path id="DejaVuSans-2e" d="M 684 794 
L 1344 794 
L 1344 0 
L 684 0 
L 684 794 
z
" transform="scale(0.015625)"/>
        <path id="DejaVuSans-38" d="M 2034 2216 
Q 1584 2216 1326 1975 
Q 1069 1734 1069 1313 
Q 1069 891 1326 650 
Q 1584 409 2034 409 
Q 2484 409 2743 651 
Q 3003 894 3003 1313 
Q 3003 1734 2745 1975 
Q 2488 2216 2034 2216 
z
M 1403 2484 
Q 997 2584 770 2862 
Q 544 3141 544 3541 
Q 544 4100 942 4425 
Q 1341 4750 2034 4750 
Q 2731 4750 3128 4425 
Q 3525 4100 3525 3541 
Q 3525 3141 3298 2862 
Q 3072 2584 2669 2484 
Q 3125 2378 3379 2068 
Q 3634 1759 3634 1313 
Q 3634 634 3220 271 
Q 2806 -91 2034 -91 
Q 1263 -91 848 271 
Q 434 634 434 1313 
Q 434 1759 690 2068 
Q 947 2378 1403 2484 
z
M 1172 3481 
Q 1172 3119 1398 2916 
Q 1625 2713 2034 2713 
Q 2441 2713 2670 2916 
Q 2900 3119 2900 3481 
Q 2900 3844 2670 4047 
Q 2441 4250 2034 4250 
Q 1625 4250 1398 4047 
Q 1172 3844 1172 3481 
z
" transform="scale(0.015625)"/>
       </defs>
       <use xlink:href="#DejaVuSans-2212"/>
       <use xlink:href="#DejaVuSans-30" transform="translate(83.789062 0)"/>
       <use xlink:href="#DejaVuSans-2e" transform="translate(147.412109 0)"/>
       <use xlink:href="#DejaVuSans-38" transform="translate(179.199219 0)"/>
      </g>
     </g>
    </g>
    <g id="xtick_2">
     <g id="line2d_2">
      <g>
       <use xlink:href="#mbfede6b5f0" x="134.219344" y="530.438125" style="stroke: #000000; stroke-width: 0.8"/>
      </g>
     </g>
     <g id="text_2">
      <!-- −0.6 -->
      <g transform="translate(122.077938 545.036562) scale(0.1 -0.1)">
       <defs>
        <path id="DejaVuSans-36" d="M 2113 2584 
Q 1688 2584 1439 2293 
Q 1191 2003 1191 1497 
Q 1191 994 1439 701 
Q 1688 409 2113 409 
Q 2538 409 2786 701 
Q 3034 994 3034 1497 
Q 3034 2003 2786 2293 
Q 2538 2584 2113 2584 
z
M 3366 4563 
L 3366 3988 
Q 3128 4100 2886 4159 
Q 2644 4219 2406 4219 
Q 1781 4219 1451 3797 
Q 1122 3375 1075 2522 
Q 1259 2794 1537 2939 
Q 1816 3084 2150 3084 
Q 2853 3084 3261 2657 
Q 3669 2231 3669 1497 
Q 3669 778 3244 343 
Q 2819 -91 2113 -91 
Q 1303 -91 875 529 
Q 447 1150 447 2328 
Q 447 3434 972 4092 
Q 1497 4750 2381 4750 
Q 2619 4750 2861 4703 
Q 3103 4656 3366 4563 
z
" transform="scale(0.015625)"/>
       </defs>
       <use xlink:href="#DejaVuSans-2212"/>
       <use xlink:href="#DejaVuSans-30" transform="translate(83.789062 0)"/>
       <use xlink:href="#DejaVuSans-2e" transform="translate(147.412109 0)"/>
       <use xlink:href="#DejaVuSans-36" transform="translate(179.199219 0)"/>
      </g>
     </g>
    </g>
    <g id="xtick_3">
     <g id="line2d_3">
      <g>
       <use xlink:href="#mbfede6b5f0" x="191.70288" y="530.438125" style="stroke: #000000; stroke-width: 0.8"/>
      </g>
     </g>
     <g id="text_3">
      <!-- −0.4 -->
      <g transform="translate(179.561474 545.036562) scale(0.1 -0.1)">
       <defs>
        <path id="DejaVuSans-34" d="M 2419 4116 
L 825 1625 
L 2419 1625 
L 2419 4116 
z
M 2253 4666 
L 3047 4666 
L 3047 1625 
L 3713 1625 
L 3713 1100 
L 3047 1100 
L 3047 0 
L 2419 0 
L 2419 1100 
L 313 1100 
L 313 1709 
L 2253 4666 
z
" transform="scale(0.015625)"/>
       </defs>
       <use xlink:href="#DejaVuSans-2212"/>
       <use xlink:href="#DejaVuSans-30" transform="translate(83.789062 0)"/>
       <use xlink:href="#DejaVuSans-2e" transform="translate(147.412109 0)"/>
       <use xlink:href="#DejaVuSans-34" transform="translate(179.199219 0)"/>
      </g>
     </g>
    </g>
    <g id="xtick_4">
     <g id="line2d_4">
      <g>
       <use xlink:href="#mbfede6b5f0" x="249.186416" y="530.438125" style="stroke: #000000; stroke-width: 0.8"/>
      </g>
     </g>
     <g id="text_4">
      <!-- −0.2 -->
      <g transform="translate(237.04501 545.036562) scale(0.1 -0.1)">
       <defs>
        <path id="DejaVuSans-32" d="M 1228 531 
L 3431 531 
L 3431 0 
L 469 0 
L 469 531 
Q 828 903 1448 1529 
Q 2069 2156 2228 2338 
Q 2531 2678 2651 2914 
Q 2772 3150 2772 3378 
Q 2772 3750 2511 3984 
Q 2250 4219 1831 4219 
Q 1534 4219 1204 4116 
Q 875 4013 500 3803 
L 500 4441 
Q 881 4594 1212 4672 
Q 1544 4750 1819 4750 
Q 2544 4750 2975 4387 
Q 3406 4025 3406 3419 
Q 3406 3131 3298 2873 
Q 3191 2616 2906 2266 
Q 2828 2175 2409 1742 
Q 1991 1309 1228 531 
z
" transform="scale(0.015625)"/>
       </defs>
       <use xlink:href="#DejaVuSans-2212"/>
       <use xlink:href="#DejaVuSans-30" transform="translate(83.789062 0)"/>
       <use xlink:href="#DejaVuSans-2e" transform="translate(147.412109 0)"/>
       <use xlink:href="#DejaVuSans-32" transform="translate(179.199219 0)"/>
      </g>
     </g>
    </g>
    <g id="xtick_5">
     <g id="line2d_5">
      <g>
       <use xlink:href="#mbfede6b5f0" x="306.669952" y="530.438125" style="stroke: #000000; stroke-width: 0.8"/>
      </g>
     </g>
     <g id="text_5">
      <!-- 0.0 -->
      <g transform="translate(298.718389 545.036562) scale(0.1 -0.1)">
       <use xlink:href="#DejaVuSans-30"/>
       <use xlink:href="#DejaVuSans-2e" transform="translate(63.623047 0)"/>
       <use xlink:href="#DejaVuSans-30" transform="translate(95.410156 0)"/>
      </g>
     </g>
    </g>
    <g id="xtick_6">
     <g id="line2d_6">
      <g>
       <use xlink:href="#mbfede6b5f0" x="364.153488" y="530.438125" style="stroke: #000000; stroke-width: 0.8"/>
      </g>
     </g>
     <g id="text_6">
      <!-- 0.2 -->
      <g transform="translate(356.201925 545.036562) scale(0.1 -0.1)">
       <use xlink:href="#DejaVuSans-30"/>
       <use xlink:href="#DejaVuSans-2e" transform="translate(63.623047 0)"/>
       <use xlink:href="#DejaVuSans-32" transform="translate(95.410156 0)"/>
      </g>
     </g>
    </g>
    <g id="xtick_7">
     <g id="line2d_7">
      <g>
       <use xlink:href="#mbfede6b5f0" x="421.637024" y="530.438125" style="stroke: #000000; stroke-width: 0.8"/>
      </g>
     </g>
     <g id="text_7">
      <!-- 0.4 -->
      <g transform="translate(413.685461 545.036562) scale(0.1 -0.1)">
       <use xlink:href="#DejaVuSans-30"/>
       <use xlink:href="#DejaVuSans-2e" transform="translate(63.623047 0)"/>
       <use xlink:href="#DejaVuSans-34" transform="translate(95.410156 0)"/>
      </g>
     </g>
    </g>
    <g id="xtick_8">
     <g id="line2d_8">
      <g>
       <use xlink:href="#mbfede6b5f0" x="479.12056" y="530.438125" style="stroke: #000000; stroke-width: 0.8"/>
      </g>
     </g>
     <g id="text_8">
      <!-- 0.6 -->
      <g transform="translate(471.168997 545.036562) scale(0.1 -0.1)">
       <use xlink:href="#DejaVuSans-30"/>
       <use xlink:href="#DejaVuSans-2e" transform="translate(63.623047 0)"/>
       <use xlink:href="#DejaVuSans-36" transform="translate(95.410156 0)"/>
      </g>
     </g>
    </g>
    <g id="xtick_9">
     <g id="line2d_9">
      <g>
       <use xlink:href="#mbfede6b5f0" x="536.604096" y="530.438125" style="stroke: #000000; stroke-width: 0.8"/>
      </g>
     </g>
     <g id="text_9">
      <!-- 0.8 -->
      <g transform="translate(528.652533 545.036562) scale(0.1 -0.1)">
       <use xlink:href="#DejaVuSans-30"/>
       <use xlink:href="#DejaVuSans-2e" transform="translate(63.623047 0)"/>
       <use xlink:href="#DejaVuSans-38" transform="translate(95.410156 0)"/>
      </g>
     </g>
    </g>
    <g id="text_10">
     <!-- x0 -->
     <g transform="translate(300.545312 558.714687) scale(0.1 -0.1)">
      <defs>
       <path id="DejaVuSans-78" d="M 3513 3500 
L 2247 1797 
L 3578 0 
L 2900 0 
L 1881 1375 
L 863 0 
L 184 0 
L 1544 1831 
L 300 3500 
L 978 3500 
L 1906 2253 
L 2834 3500 
L 3513 3500 
z
" transform="scale(0.015625)"/>
      </defs>
      <use xlink:href="#DejaVuSans-78"/>
      <use xlink:href="#DejaVuSans-30" transform="translate(59.179688 0)"/>
     </g>
    </g>
   </g>
   <g id="matplotlib.axis_2">
    <g id="ytick_1">
     <g id="line2d_10">
      <defs>
       <path id="mfba60f08dc" d="M 0 0 
L -3.5 0 
" style="stroke: #000000; stroke-width: 0.8"/>
      </defs>
      <g>
       <use xlink:href="#mfba60f08dc" x="52.160938" y="468.577038" style="stroke: #000000; stroke-width: 0.8"/>
      </g>
     </g>
     <g id="text_11">
      <!-- −1.5 -->
      <g transform="translate(20.878125 472.376257) scale(0.1 -0.1)">
       <defs>
        <path id="DejaVuSans-31" d="M 794 531 
L 1825 531 
L 1825 4091 
L 703 3866 
L 703 4441 
L 1819 4666 
L 2450 4666 
L 2450 531 
L 3481 531 
L 3481 0 
L 794 0 
L 794 531 
z
" transform="scale(0.015625)"/>
        <path id="DejaVuSans-35" d="M 691 4666 
L 3169 4666 
L 3169 4134 
L 1269 4134 
L 1269 2991 
Q 1406 3038 1543 3061 
Q 1681 3084 1819 3084 
Q 2600 3084 3056 2656 
Q 3513 2228 3513 1497 
Q 3513 744 3044 326 
Q 2575 -91 1722 -91 
Q 1428 -91 1123 -41 
Q 819 9 494 109 
L 494 744 
Q 775 591 1075 516 
Q 1375 441 1709 441 
Q 2250 441 2565 725 
Q 2881 1009 2881 1497 
Q 2881 1984 2565 2268 
Q 2250 2553 1709 2553 
Q 1456 2553 1204 2497 
Q 953 2441 691 2322 
L 691 4666 
z
" transform="scale(0.015625)"/>
       </defs>
       <use xlink:href="#DejaVuSans-2212"/>
       <use xlink:href="#DejaVuSans-31" transform="translate(83.789062 0)"/>
       <use xlink:href="#DejaVuSans-2e" transform="translate(147.412109 0)"/>
       <use xlink:href="#DejaVuSans-35" transform="translate(179.199219 0)"/>
      </g>
     </g>
    </g>
    <g id="ytick_2">
     <g id="line2d_11">
      <g>
       <use xlink:href="#mfba60f08dc" x="52.160938" y="404.294551" style="stroke: #000000; stroke-width: 0.8"/>
      </g>
     </g>
     <g id="text_12">
      <!-- −1.0 -->
      <g transform="translate(20.878125 408.09377) scale(0.1 -0.1)">
       <use xlink:href="#DejaVuSans-2212"/>
       <use xlink:href="#DejaVuSans-31" transform="translate(83.789062 0)"/>
       <use xlink:href="#DejaVuSans-2e" transform="translate(147.412109 0)"/>
       <use xlink:href="#DejaVuSans-30" transform="translate(179.199219 0)"/>
      </g>
     </g>
    </g>
    <g id="ytick_3">
     <g id="line2d_12">
      <g>
       <use xlink:href="#mfba60f08dc" x="52.160938" y="340.012063" style="stroke: #000000; stroke-width: 0.8"/>
      </g>
     </g>
     <g id="text_13">
      <!-- −0.5 -->
      <g transform="translate(20.878125 343.811282) scale(0.1 -0.1)">
       <use xlink:href="#DejaVuSans-2212"/>
       <use xlink:href="#DejaVuSans-30" transform="translate(83.789062 0)"/>
       <use xlink:href="#DejaVuSans-2e" transform="translate(147.412109 0)"/>
       <use xlink:href="#DejaVuSans-35" transform="translate(179.199219 0)"/>
      </g>
     </g>
    </g>
    <g id="ytick_4">
     <g id="line2d_13">
      <g>
       <use xlink:href="#mfba60f08dc" x="52.160938" y="275.729576" style="stroke: #000000; stroke-width: 0.8"/>
      </g>
     </g>
     <g id="text_14">
      <!-- 0.0 -->
      <g transform="translate(29.257812 279.528795) scale(0.1 -0.1)">
       <use xlink:href="#DejaVuSans-30"/>
       <use xlink:href="#DejaVuSans-2e" transform="translate(63.623047 0)"/>
       <use xlink:href="#DejaVuSans-30" transform="translate(95.410156 0)"/>
      </g>
     </g>
    </g>
    <g id="ytick_5">
     <g id="line2d_14">
      <g>
       <use xlink:href="#mfba60f08dc" x="52.160938" y="211.447089" style="stroke: #000000; stroke-width: 0.8"/>
      </g>
     </g>
     <g id="text_15">
      <!-- 0.5 -->
      <g transform="translate(29.257812 215.246308) scale(0.1 -0.1)">
       <use xlink:href="#DejaVuSans-30"/>
       <use xlink:href="#DejaVuSans-2e" transform="translate(63.623047 0)"/>
       <use xlink:href="#DejaVuSans-35" transform="translate(95.410156 0)"/>
      </g>
     </g>
    </g>
    <g id="ytick_6">
     <g id="line2d_15">
      <g>
       <use xlink:href="#mfba60f08dc" x="52.160938" y="147.164601" style="stroke: #000000; stroke-width: 0.8"/>
      </g>
     </g>
     <g id="text_16">
      <!-- 1.0 -->
      <g transform="translate(29.257812 150.96382) scale(0.1 -0.1)">
       <use xlink:href="#DejaVuSans-31"/>
       <use xlink:href="#DejaVuSans-2e" transform="translate(63.623047 0)"/>
       <use xlink:href="#DejaVuSans-30" transform="translate(95.410156 0)"/>
      </g>
     </g>
    </g>
    <g id="ytick_7">
     <g id="line2d_16">
      <g>
       <use xlink:href="#mfba60f08dc" x="52.160938" y="82.882114" style="stroke: #000000; stroke-width: 0.8"/>
      </g>
     </g>
     <g id="text_17">
      <!-- 1.5 -->
      <g transform="translate(29.257812 86.681333) scale(0.1 -0.1)">
       <use xlink:href="#DejaVuSans-31"/>
       <use xlink:href="#DejaVuSans-2e" transform="translate(63.623047 0)"/>
       <use xlink:href="#DejaVuSans-35" transform="translate(95.410156 0)"/>
      </g>
     </g>
    </g>
    <g id="text_18">
     <!-- x1 -->
     <g transform="translate(14.798438 282.51875) rotate(-90) scale(0.1 -0.1)">
      <use xlink:href="#DejaVuSans-78"/>
      <use xlink:href="#DejaVuSans-31" transform="translate(59.179688 0)"/>
     </g>
    </g>
   </g>
   <g id="line2d_17">
    <path d="M 536.604096 250.016581 
L 537.121855 255.215808 
L 537.52313 260.416215 
L 537.807924 265.615228 
L 537.976295 270.810271 
L 538.028363 275.998763 
L 537.964305 281.178124 
L 537.784452 286.346146 
L 537.489139 291.500329 
L 537.078687 296.637914 
L 536.553479 301.756169 
L 535.913953 306.852389 
L 535.160607 311.923901 
L 534.293997 316.968056 
L 533.314738 321.982236 
L 532.2235 326.963851 
L 531.021016 331.910337 
L 529.708074 336.819162 
L 528.28552 341.687819 
L 526.75426 346.51383 
L 525.115257 351.294747 
L 523.369533 356.028149 
L 521.518168 360.711643 
L 519.5623 365.342865 
L 517.503125 369.919478 
L 515.341897 374.439174 
L 513.07993 378.899674 
L 510.718595 383.298727 
L 508.25932 387.63411 
L 505.703594 391.903627 
L 503.05296 396.105112 
L 500.309025 400.236427 
L 497.473449 404.295462 
L 494.547953 408.280134 
L 491.534316 412.188392 
L 488.43436 416.018235 
L 485.249435 419.768668 
L 481.981215 423.438119 
L 478.63168 427.024536 
L 475.202827 430.525941 
L 471.696674 433.940434 
L 468.115258 437.266188 
L 464.460634 440.501449 
L 460.734878 443.644543 
L 456.940085 446.693867 
L 453.078366 449.647894 
L 449.151856 452.505173 
L 445.162706 455.264328 
L 441.113087 457.924056 
L 437.005189 460.483131 
L 432.841222 462.940402 
L 428.623415 465.294792 
L 424.354014 467.5453 
L 420.035288 469.691 
L 415.669522 471.731039 
L 411.259022 473.664643 
L 406.806113 475.491109 
L 402.313137 477.209812 
L 397.782459 478.8202 
L 393.21646 480.321797 
L 388.617542 481.714202 
L 383.988126 482.997089 
L 379.33065 484.170207 
L 374.647574 485.233381 
L 369.941377 486.186508 
L 365.214555 487.029563 
L 355.709123 488.385729 
L 346.151641 489.303174 
L 336.562778 489.78439 
L 326.963512 489.833072 
L 317.375126 489.454117 
L 307.814286 488.651959 
L 298.294911 487.429715 
L 288.837396 485.792605 
L 279.461615 483.746503 
L 270.186849 481.297919 
L 261.031792 478.454 
L 252.014544 475.222527 
L 243.15262 471.611919 
L 234.46294 467.63123 
L 225.961836 463.290149 
L 217.66505 458.599004 
L 209.587734 453.568755 
L 201.744448 448.211002 
L 194.149165 442.537978 
L 186.815266 436.562554 
L 179.75554 430.298235 
L 172.98219 423.759164 
L 166.506826 416.960118 
L 160.340468 409.916513 
L 154.493547 402.644397 
L 148.975904 395.160457 
L 143.796587 387.481508 
L 138.961366 379.616513 
L 134.478578 371.579275 
L 130.357007 363.386591 
L 126.604512 355.055298 
L 123.228018 346.602271 
L 120.233525 338.044427 
L 117.626105 329.398723 
L 115.409899 320.682155 
L 113.588123 311.91176 
L 112.163061 303.104615 
L 111.136072 294.277836 
L 110.507584 285.448581 
L 110.277097 276.634046 
L 110.443184 267.851468 
L 111.003488 259.118125 
L 111.954725 250.451333 
L 113.292682 241.868451 
L 115.012217 233.386874 
L 117.10726 225.024041 
L 119.570813 216.797429 
L 122.394959 208.72454 
L 125.574247 200.818185 
L 129.102824 193.092472 
L 132.971997 185.564778 
L 137.172524 178.251633 
L 141.694616 171.168716 
L 146.527939 164.330854 
L 151.661611 157.752029 
L 157.084202 151.445369 
L 162.783736 145.423153 
L 168.747691 139.696813 
L 174.962996 134.276927 
L 181.416034 129.173226 
L 188.092641 124.394591 
L 194.978108 119.949052 
L 202.057175 115.84379 
L 209.314037 112.085136 
L 216.732344 108.678571 
L 224.295197 105.628727 
L 231.985149 102.939385 
L 239.784208 100.613478 
L 247.676067 98.65284 
L 255.649913 97.058331 
L 263.688457 95.831349 
L 271.774062 94.97262 
L 279.889387 94.482106 
L 288.017385 94.359004 
L 296.1413 94.60175 
L 304.244671 95.208012 
L 312.31133 96.174696 
L 320.325403 97.497942 
L 328.271309 99.173129 
L 336.133759 101.194868 
L 343.897761 103.557009 
L 351.548614 106.252635 
L 359.07191 109.274068 
L 366.453535 112.612862 
L 373.67967 116.25981 
L 380.736788 120.20494 
L 387.611655 124.437515 
L 394.291331 128.946034 
L 400.76317 133.718232 
L 407.01482 138.74108 
L 413.036624 144.004879 
L 418.820521 149.503416 
L 424.355032 155.224727 
L 429.629363 161.156549 
L 434.633462 167.286413 
L 439.358014 173.60164 
L 443.794448 180.08934 
L 447.934931 186.736418 
L 451.772372 193.529567 
L 455.300419 200.455272 
L 458.513462 207.49981 
L 461.40663 214.649248 
L 463.975794 221.889443 
L 466.217564 229.206047 
L 468.129291 236.584498 
L 469.709066 244.010029 
L 470.955722 251.467663 
L 471.868831 258.942212 
L 472.448705 266.418283 
L 472.696399 273.88027 
L 472.613355 281.314915 
L 472.200524 288.711227 
L 471.459551 296.052837 
L 470.392753 303.323668 
L 469.003108 310.508124 
L 467.294251 317.591092 
L 465.270477 324.557941 
L 462.936743 331.394518 
L 460.298662 338.087156 
L 457.362507 344.622668 
L 454.135213 350.988347 
L 450.624371 357.171969 
L 446.838233 363.161792 
L 442.78571 368.946555 
L 438.476373 374.515479 
L 433.920453 379.858265 
L 429.128837 384.965097 
L 424.113076 389.826642 
L 418.885376 394.434045 
L 413.458607 398.778935 
L 407.846294 402.853422 
L 402.062539 406.650134 
L 396.1162 410.164525 
L 390.017866 413.391418 
L 383.781431 416.324843 
L 377.420762 418.959595 
L 370.949704 421.291236 
L 364.382075 423.316093 
L 357.731666 425.031257 
L 351.012247 426.434587 
L 344.23756 427.524705 
L 337.421323 428.301001 
L 330.577229 428.76363 
L 323.718946 428.91351 
L 316.860117 428.752329 
L 310.014358 428.282536 
L 303.195264 427.507348 
L 296.4164 426.430749 
L 289.691311 425.057485 
L 283.033513 423.39307 
L 276.456498 421.443782 
L 269.973734 419.216667 
L 263.598664 416.719534 
L 257.341349 413.958099 
L 251.210699 410.936557 
L 245.219416 407.662333 
L 239.379662 404.1432 
L 233.703041 400.387261 
L 228.200604 396.402951 
L 222.882846 392.199038 
L 217.759707 387.784623 
L 212.84057 383.169137 
L 208.134261 378.362346 
L 203.649055 373.374345 
L 199.392667 368.215564 
L 195.372259 362.896765 
L 191.594435 357.42904 
L 188.065247 351.823815 
L 184.790186 346.092847 
L 181.774194 340.248228 
L 179.021651 334.302378 
L 176.536386 328.268053 
L 174.32167 322.15834 
L 172.380185 315.986462 
L 170.71353 309.760873 
L 169.324136 303.493038 
L 168.214352 297.196617 
L 167.385889 290.885053 
L 166.839817 284.571573 
L 166.576563 278.26919 
L 166.595917 271.990699 
L 166.897027 265.74868 
L 167.478402 259.555498 
L 168.337907 253.4233 
L 169.472771 247.36402 
L 170.879579 241.389373 
L 172.554279 235.510862 
L 174.492177 229.73977 
L 176.687936 224.087167 
L 179.135584 218.563907 
L 181.828504 213.180626 
L 184.759441 207.947746 
L 187.920499 202.875473 
L 191.303141 197.973797 
L 194.89819 193.252492 
L 198.696446 188.720669 
L 202.692917 184.384084 
L 206.879113 180.251002 
L 211.245326 176.329851 
L 215.781677 172.628414 
L 220.478108 169.153819 
L 225.324388 165.912549 
L 230.310111 162.910433 
L 235.424694 160.152651 
L 240.65738 157.643733 
L 245.997235 155.387559 
L 251.433152 153.387358 
L 256.953847 151.645711 
L 262.547862 150.164546 
L 268.203561 148.945143 
L 273.909137 147.988132 
L 279.652604 147.29349 
L 285.421802 146.860546 
L 291.204396 146.687981 
L 296.987876 146.773821 
L 302.759599 147.11549 
L 308.509259 147.712133 
L 308.509259 147.712133 
" clip-path="url(#p660c4b950d)" style="fill: none; stroke: #000000; stroke-opacity: 0.3; stroke-width: 7; stroke-linecap: square"/>
   </g>
   <g id="line2d_18">
    <path d="M 536.604096 250.016581 
L 537.122563 255.154095 
L 537.525856 260.301893 
L 537.813713 265.457406 
L 537.98598 270.618052 
L 538.042639 275.781254 
L 537.983669 280.944429 
L 537.809086 286.105001 
L 537.518913 291.260384 
L 537.1133 296.407998 
L 536.592515 301.545277 
L 535.956825 306.669654 
L 535.206536 311.778571 
L 534.341956 316.869459 
L 533.363525 321.939772 
L 532.271798 326.98699 
L 531.067331 332.008591 
L 529.750728 337.002069 
L 528.322563 341.964903 
L 526.783579 346.894613 
L 525.134673 351.788758 
L 523.376745 356.644898 
L 521.510782 361.460612 
L 519.5377 366.233462 
L 517.458722 370.961073 
L 515.275345 375.641134 
L 512.989063 380.271337 
L 510.601414 384.849401 
L 508.114115 389.373028 
L 505.529084 393.840025 
L 502.848313 398.24828 
L 500.073794 402.595683 
L 494.251299 411.099606 
L 488.076658 419.335691 
L 481.56081 427.288569 
L 478.177779 431.154066 
L 474.712228 434.943137 
L 471.164554 438.653954 
L 467.535155 442.284688 
L 463.824607 445.833531 
L 460.032972 449.298638 
L 456.160954 452.678212 
L 452.209814 455.970501 
L 448.180815 459.173756 
L 444.075397 462.286268 
L 439.895218 465.306271 
L 435.642623 468.232138 
L 431.320316 471.062346 
L 426.931003 473.795373 
L 422.477378 476.429744 
L 417.962454 478.963974 
L 413.389188 481.396754 
L 408.760433 483.726878 
L 404.079046 485.953145 
L 399.347842 488.074394 
L 394.569596 490.089471 
L 389.746936 491.99738 
L 384.882421 493.797219 
L 379.978611 495.488084 
L 375.038064 497.069114 
L 370.063286 498.539445 
L 365.056788 499.898365 
L 360.021096 501.145253 
L 354.958733 502.279486 
L 349.872232 503.300489 
L 344.764124 504.207673 
L 339.63697 505.000613 
L 334.493341 505.678971 
L 329.335806 506.242408 
L 324.166939 506.690633 
L 318.989323 507.023344 
L 313.805549 507.240403 
L 308.618209 507.341761 
L 303.429895 507.327368 
L 298.243196 507.197219 
L 293.060715 506.951302 
L 287.885039 506.589771 
L 282.718752 506.112864 
L 277.564435 505.520819 
L 272.424662 504.813922 
L 267.302018 503.992448 
L 262.19906 503.056841 
L 257.118328 502.007623 
L 252.062364 500.845319 
L 247.033709 499.570499 
L 242.034876 498.183725 
L 237.068382 496.685722 
L 232.136748 495.077295 
L 227.242496 493.35925 
L 222.388194 491.532443 
L 217.576306 489.597707 
L 212.809478 487.556055 
L 208.090445 485.408583 
L 203.421941 483.156385 
L 198.806705 480.800613 
L 194.247667 478.342395 
L 189.747755 475.78306 
L 185.309873 473.124023 
L 180.936921 470.366696 
L 176.631573 467.512535 
L 172.396995 464.563028 
L 168.235443 461.519812 
L 164.148766 458.384577 
L 160.138816 455.159011 
L 156.207233 451.844822 
L 152.355395 448.443763 
L 148.58399 444.957635 
L 144.893493 441.388247 
L 141.284373 437.737409 
L 137.757223 434.006949 
L 134.312057 430.198667 
L 130.949504 426.314411 
L 124.475827 418.325466 
L 118.3442 410.05518 
L 112.566581 401.519009 
L 109.81525 397.156284 
L 107.158066 392.733217 
L 104.597244 388.251876 
L 102.134663 383.714465 
L 99.77206 379.12323 
L 97.511172 374.48042 
L 95.353616 369.788306 
L 93.30101 365.049183 
L 91.354558 360.265425 
L 89.515331 355.439437 
L 87.784401 350.57362 
L 86.162763 345.670393 
L 84.651372 340.732187 
L 83.250955 335.761484 
L 81.962173 330.76078 
L 80.785687 325.732573 
L 79.722099 320.679369 
L 78.772028 315.603685 
L 77.935899 310.508067 
L 77.21408 305.395067 
L 76.60694 300.267242 
L 76.114787 295.127148 
L 75.737956 289.977355 
L 75.476584 284.820439 
L 75.330751 279.65898 
L 75.300538 274.495557 
L 75.385966 269.332747 
L 75.58708 264.17314 
L 75.903728 259.019311 
L 76.335701 253.873834 
L 76.882792 248.73928 
L 77.544735 243.618211 
L 78.321283 238.513208 
L 79.211997 233.426812 
L 80.216384 228.361557 
L 81.333951 223.319977 
L 82.56416 218.304588 
L 83.906456 213.317924 
L 85.360139 208.362466 
L 86.924478 203.440675 
L 88.59874 198.555018 
L 90.382199 193.707939 
L 92.274018 188.901893 
L 94.273438 184.139272 
L 96.379719 179.422457 
L 98.592123 174.753827 
L 100.909914 170.135745 
L 103.332483 165.570577 
L 105.859186 161.060641 
L 108.489361 156.608241 
L 111.22235 152.215681 
L 114.057257 147.885234 
L 116.993723 143.61923 
L 120.030378 139.419888 
L 123.165615 135.289398 
L 126.39783 131.229947 
L 129.725124 127.24366 
L 133.14545 123.332754 
L 136.655916 119.499203 
L 140.253472 115.744932 
L 143.935064 112.071863 
L 147.69773 108.481849 
L 151.537849 104.976754 
L 155.452491 101.558207 
L 159.438872 98.227791 
L 163.49421 94.98709 
L 167.615943 91.837634 
L 171.801603 88.780929 
L 176.049348 85.818339 
L 180.35745 82.951199 
L 184.724179 80.180847 
L 189.147791 77.508573 
L 193.626892 74.935691 
L 198.159792 72.463381 
L 202.744743 70.092791 
L 207.379999 67.825075 
L 212.0637 65.661329 
L 216.793992 63.602695 
L 221.56868 61.650134 
L 226.385516 59.804575 
L 231.242249 58.066944 
L 236.136579 56.438106 
L 241.066137 54.918963 
L 246.02846 53.51021 
L 251.021066 52.212511 
L 256.041478 51.026527 
L 261.087198 49.952852 
L 266.155716 48.992115 
L 271.244487 48.144729 
L 276.350961 47.411077 
L 281.472589 46.791541 
L 286.606815 46.286432 
L 291.751074 45.896094 
L 296.90279 45.620654 
L 302.059387 45.46021 
L 307.218289 45.414857 
L 312.37692 45.484619 
L 317.532694 45.669553 
L 322.683036 45.969498 
L 327.825376 46.384265 
L 332.957142 46.91366 
L 338.075774 47.557423 
L 343.178692 48.315321 
L 348.263358 49.186907 
L 353.327239 50.171705 
L 358.367801 51.26924 
L 363.38254 52.478967 
L 368.368898 53.800366 
L 373.324427 55.23271 
L 378.246694 56.775247 
L 383.133267 58.427223 
L 387.981802 60.187822 
L 392.789803 62.056239 
L 397.555126 64.031487 
L 402.275671 66.112558 
L 406.949336 68.298445 
L 411.574137 70.588085 
L 416.14812 72.980421 
L 420.669632 75.474255 
L 425.137048 78.068373 
L 429.548747 80.761561 
L 433.902999 83.55255 
L 438.198544 86.44012 
L 442.433449 89.422882 
L 446.605711 92.499432 
L 450.71333 95.668363 
L 454.754029 98.928192 
L 458.725525 102.27752 
L 462.624796 105.71468 
L 466.448758 109.237983 
L 470.194328 112.845736 
L 473.858529 116.536162 
L 477.437649 120.307497 
L 480.928924 124.157732 
L 484.32967 128.084839 
L 487.637207 132.086789 
L 490.849261 136.161497 
L 493.963466 140.306835 
L 496.978594 144.520568 
L 499.893507 148.800459 
L 502.707066 153.144267 
L 505.418287 157.549724 
L 508.026517 162.014559 
L 510.531118 166.536447 
L 512.931458 171.11306 
L 515.226902 175.742069 
L 517.416784 180.421122 
L 519.500428 185.147886 
L 521.477065 189.919958 
L 523.345922 194.73493 
L 525.106222 199.590396 
L 526.75722 204.483925 
L 528.298065 209.413091 
L 529.728082 214.375409 
L 531.046604 219.368388 
L 532.252964 224.389538 
L 533.346574 229.436354 
L 534.326792 234.506323 
L 535.193208 239.596899 
L 535.945422 244.705531 
L 536.583035 249.82967 
L 537.105734 254.966759 
L 537.513162 260.11423 
L 537.805196 265.269507 
L 537.981723 270.430011 
L 538.042631 275.593163 
L 537.987894 280.756389 
L 537.817446 285.917096 
L 537.531451 291.07271 
L 537.130087 296.220656 
L 536.613529 301.35836 
L 535.98204 306.483258 
L 535.235843 311.592769 
L 534.375391 316.684352 
L 533.401148 321.755469 
L 532.313575 326.80358 
L 531.11323 331.826167 
L 529.800604 336.82069 
L 528.376459 341.784674 
L 526.841566 346.715649 
L 525.196698 351.611145 
L 523.442779 356.468727 
L 521.58056 361.285917 
L 519.611302 366.060355 
L 517.536278 370.78968 
L 515.356763 375.471534 
L 513.074226 380.103614 
L 510.690129 384.68356 
L 508.206383 389.20919 
L 505.624905 393.678323 
L 502.947613 398.088781 
L 497.313518 406.725189 
L 491.319691 415.10203 
L 484.979199 423.20359 
L 481.682513 427.146335 
L 478.302579 431.014578 
L 474.839958 434.806476 
L 471.295211 438.520181 
L 467.668922 442.153876 
L 463.960999 445.705705 
L 460.172226 449.173883 
L 456.303391 452.556622 
L 452.355283 455.852137 
L 448.329179 459.058697 
L 444.226149 462.174473 
L 440.048545 465.197853 
L 435.798719 468.127224 
L 431.479026 470.960976 
L 427.092056 473.697592 
L 422.640736 476.335493 
L 418.127993 478.873373 
L 413.556754 481.309927 
L 408.929943 483.643849 
L 404.250406 485.873932 
L 399.521044 487.998943 
L 394.744487 490.017888 
L 389.923365 491.929769 
L 385.060306 493.733595 
L 380.15789 495.428457 
L 375.218637 497.013423 
L 370.245063 498.487783 
L 365.239683 499.850823 
L 360.205014 501.101837 
L 355.143579 502.240196 
L 350.0579 503.265252 
L 344.950533 504.176575 
L 339.824036 504.973734 
L 334.680966 505.656307 
L 329.523891 506.223946 
L 324.355387 506.676291 
L 319.178044 507.013198 
L 313.994451 507.234523 
L 308.807195 507.340133 
L 303.618868 507.329965 
L 298.432071 507.20395 
L 293.249392 506.962235 
L 288.073419 506.604964 
L 282.906741 506.132291 
L 277.751939 505.544443 
L 272.611605 504.841643 
L 267.488295 504.024323 
L 262.384566 503.092916 
L 257.302974 502.047863 
L 252.246063 500.889674 
L 247.21637 499.618862 
L 242.216411 498.236142 
L 237.248701 496.742229 
L 232.315762 495.137847 
L 227.420119 493.423787 
L 222.564239 491.600841 
L 217.750756 489.670008 
L 212.982301 487.632287 
L 208.261516 485.48869 
L 203.591113 483.240294 
L 198.973869 480.888181 
L 194.412712 478.433661 
L 189.91057 475.878045 
L 185.470324 473.222653 
L 181.094888 470.468876 
L 176.787412 467.618146 
L 172.550235 464.672079 
L 168.385695 461.632291 
L 164.296061 458.5004 
L 160.283299 455.27808 
L 156.349184 451.967064 
L 152.494489 448.569138 
L 148.719988 445.086091 
L 145.026481 441.519713 
L 141.414467 437.871812 
L 137.884096 434.144197 
L 134.43594 430.338713 
L 131.070567 426.457207 
L 124.590861 418.473555 
L 118.452614 410.208197 
L 112.668579 401.676788 
L 109.913804 397.316299 
L 107.253274 392.895333 
L 104.688902 388.416075 
L 102.222601 383.880705 
L 99.856243 379.291415 
L 97.591628 374.650434 
L 95.430469 369.960037 
L 93.374032 365.222584 
L 91.423583 360.440435 
L 89.580361 355.615957 
L 87.845486 350.751543 
L 86.219957 345.849612 
L 84.704542 340.912637 
L 83.300009 335.943089 
L 82.007107 330.943443 
L 80.826527 325.916189 
L 79.758901 320.863838 
L 78.804688 315.788929 
L 77.964348 310.694 
L 77.23832 305.581593 
L 76.627004 300.45426 
L 76.130742 295.314563 
L 75.749708 290.165078 
L 75.484073 285.00838 
L 75.33399 279.847041 
L 75.299574 274.683642 
L 75.380874 269.520769 
L 75.577776 264.361 
L 75.890164 259.206913 
L 76.3179 254.061081 
L 76.860813 248.926083 
L 77.51866 243.804493 
L 78.291039 238.698859 
L 79.177549 233.611732 
L 80.177768 228.545654 
L 81.291234 223.503167 
L 82.517414 218.486802 
L 83.85564 213.499048 
L 85.305242 208.542395 
L 86.865552 203.619324 
L 88.535835 198.73231 
L 90.31531 193.883808 
L 92.203203 189.076223 
L 94.19874 184.311963 
L 96.301158 179.593428 
L 98.509701 174.923006 
L 100.823662 170.303062 
L 103.242407 165.735925 
L 105.765305 161.223923 
L 108.391638 156.769371 
L 111.120893 152.37459 
L 113.952464 148.041885 
L 116.885201 143.773494 
L 119.917951 139.571656 
L 123.049421 135.438582 
L 126.278226 131.376507 
L 129.602473 127.387609 
L 133.019464 123.473917 
L 136.526502 119.637454 
L 140.120912 115.880214 
L 143.799557 112.204175 
L 147.559119 108.611198 
L 151.396521 105.102971 
L 155.308685 101.681181 
L 159.292647 98.347494 
L 163.345449 95.103522 
L 167.464528 91.950778 
L 171.647894 88.890663 
L 175.893555 85.92458 
L 180.199523 83.053915 
L 184.564105 80.280027 
L 188.985751 77.604213 
L 193.462832 75.027684 
L 197.993723 72.551654 
L 202.576745 70.177308 
L 207.210235 67.905835 
L 211.892344 65.738353 
L 216.620966 63.675865 
L 221.393993 61.719378 
L 226.209294 59.869868 
L 231.064642 58.128307 
L 235.957691 56.49557 
L 240.886006 54.972408 
L 245.847153 53.55957 
L 250.838689 52.257775 
L 255.858141 51.067731 
L 260.902998 49.990038 
L 265.970728 49.025167 
L 271.058796 48.173592 
L 276.164667 47.435751 
L 281.285791 46.812074 
L 286.419608 46.302874 
L 291.563546 45.90834 
L 296.715032 45.628659 
L 301.871497 45.464006 
L 307.03036 45.414489 
L 312.189044 45.480104 
L 317.344968 45.660811 
L 317.344968 45.660811 
" clip-path="url(#p660c4b950d)" style="fill: none; stroke-dasharray: 22.4,5.6,3.5,5.6; stroke-dashoffset: 0; stroke: #0000ff; stroke-opacity: 0.8; stroke-width: 3.5"/>
   </g>
   <g id="patch_3">
    <path d="M 52.160938 530.438125 
L 52.160938 22.318125 
" style="fill: none; stroke: #000000; stroke-width: 0.8; stroke-linejoin: miter; stroke-linecap: square"/>
   </g>
   <g id="patch_4">
    <path d="M 561.210937 530.438125 
L 561.210937 22.318125 
" style="fill: none; stroke: #000000; stroke-width: 0.8; stroke-linejoin: miter; stroke-linecap: square"/>
   </g>
   <g id="patch_5">
    <path d="M 52.160937 530.438125 
L 561.210937 530.438125 
" style="fill: none; stroke: #000000; stroke-width: 0.8; stroke-linejoin: miter; stroke-linecap: square"/>
   </g>
   <g id="patch_6">
    <path d="M 52.160937 22.318125 
L 561.210937 22.318125 
" style="fill: none; stroke: #000000; stroke-width: 0.8; stroke-linejoin: miter; stroke-linecap: square"/>
   </g>
   <g id="line2d_19">
    <path d="M 536.604096 250.016581 
L 537.369265 260.512022 
L 537.745412 270.916255 
L 537.731971 281.206914 
L 537.324618 291.372813 
L 536.515374 301.413632 
L 535.294477 311.334256 
L 533.651648 321.141307 
L 532.66932 326.003393 
L 531.578564 330.838008 
L 530.378213 335.645601 
L 529.068033 340.425114 
L 527.648193 345.174869 
L 526.118862 349.893188 
L 524.480545 354.578049 
L 522.733583 359.227192 
L 520.879495 363.837227 
L 518.920255 368.404377 
L 516.857835 372.924864 
L 514.694426 377.394944 
L 512.432466 381.810139 
L 507.625546 390.459438 
L 502.463355 398.841184 
L 496.973745 406.925582 
L 491.183469 414.69207 
L 485.117198 422.125403 
L 478.795394 429.218201 
L 472.230335 435.971586 
L 465.430353 442.390376 
L 458.392253 448.48472 
L 451.107289 454.265897 
L 443.558883 459.7456 
L 435.721996 464.93237 
L 427.567732 469.833066 
L 419.061345 474.445591 
L 414.665186 476.641405 
L 410.166978 478.76239 
L 405.562719 480.805433 
L 400.848857 482.766734 
L 396.02184 484.642492 
L 391.079369 486.428207 
L 386.016987 488.1194 
L 380.834962 489.709332 
L 375.534951 491.190676 
L 370.118613 492.5561 
L 364.589674 493.798279 
L 358.950284 494.908179 
L 353.20975 495.877444 
L 347.379271 496.697995 
L 341.470044 497.36175 
L 335.494424 497.862014 
L 329.467091 498.18936 
L 323.405588 498.340005 
L 317.327997 498.311655 
L 311.2524 498.102017 
L 305.196865 497.709604 
L 299.179682 497.136331 
L 293.217401 496.386424 
L 287.325737 495.464949 
L 281.518558 494.378775 
L 275.807055 493.136223 
L 270.201402 491.746161 
L 264.708447 490.218275 
L 259.332892 488.562149 
L 254.079394 486.788207 
L 248.948504 484.905514 
L 243.939321 482.92246 
L 239.050778 480.847031 
L 234.280826 478.687174 
L 229.626087 476.449641 
L 220.645036 471.757693 
L 212.073252 466.801553 
L 203.874568 461.59931 
L 196.016813 456.152801 
L 188.470439 450.458316 
L 181.214201 444.503441 
L 174.233089 438.273039 
L 167.518155 431.750702 
L 161.070422 424.924355 
L 154.89481 417.784605 
L 149.004362 410.333111 
L 143.416081 402.58041 
L 138.150223 394.546358 
L 133.228178 386.264395 
L 128.67114 377.773046 
L 124.496436 369.116827 
L 120.717603 360.340357 
L 117.343719 351.486162 
L 114.376488 342.587333 
L 111.814665 333.672287 
L 109.651217 324.757434 
L 107.876613 315.852472 
L 106.479292 306.961032 
L 105.446772 298.081806 
L 104.766528 289.21225 
L 104.427493 280.35153 
L 104.42006 271.501878 
L 104.736543 262.66986 
L 105.372853 253.871127 
L 106.326472 245.125352 
L 107.598723 236.460948 
L 109.192919 227.910241 
L 111.114308 219.50861 
L 113.369617 211.290772 
L 115.965932 203.290331 
L 118.909491 195.533696 
L 122.20542 188.041832 
L 125.857107 180.829121 
L 127.816465 177.329084 
L 129.864731 173.900456 
L 132.001767 170.543305 
L 134.227069 167.257042 
L 138.939373 160.893142 
L 143.995083 154.800332 
L 149.385688 148.968052 
L 155.100275 143.385315 
L 161.127061 138.041331 
L 167.452375 132.928074 
L 174.061658 128.039773 
L 180.9395 123.373739 
L 188.069535 118.932695 
L 195.435099 114.72169 
L 203.019077 110.751734 
L 210.804202 107.036842 
L 218.773161 103.594297 
L 226.908554 100.444574 
L 235.192981 97.609249 
L 243.608695 95.110826 
L 252.137634 92.971649 
L 260.761212 91.21342 
L 269.459808 89.855953 
L 278.213298 88.918217 
L 287.000284 88.416213 
L 291.399496 88.333036 
L 295.798792 88.364132 
L 300.195309 88.510727 
L 304.586177 88.773699 
L 308.968524 89.153927 
L 313.339509 89.652027 
L 317.696202 90.26883 
L 322.035774 91.004219 
L 326.355467 91.857566 
L 330.652522 92.828247 
L 334.924233 93.915343 
L 339.167848 95.117978 
L 343.380788 96.434231 
L 347.560568 97.861675 
L 351.704703 99.397886 
L 359.876265 102.785962 
L 367.876555 106.573387 
L 375.687536 110.731317 
L 383.291474 115.229663 
L 390.671218 120.038851 
L 397.809863 125.130698 
L 404.690901 130.479706 
L 411.298591 136.065163 
L 417.61757 141.868615 
L 423.63422 147.87665 
L 429.336014 154.077865 
L 434.712159 160.462922 
L 439.754622 167.023185 
L 444.456628 173.75 
L 448.814881 180.632618 
L 452.827742 187.65878 
L 456.495724 194.81381 
L 459.82156 202.080107 
L 462.808866 209.438752 
L 465.462467 216.869177 
L 467.787413 224.350637 
L 469.788745 231.862797 
L 471.470728 239.387281 
L 472.837192 246.906828 
L 473.890333 254.407764 
L 474.631477 261.878172 
L 475.060708 269.308592 
L 475.176689 276.691873 
L 474.977457 284.021827 
L 474.460032 291.293193 
L 473.621177 298.500666 
L 472.457513 305.638397 
L 470.966267 312.698828 
L 469.145 319.673452 
L 466.993265 326.550699 
L 464.511836 333.317523 
L 461.703544 339.958694 
L 458.574233 346.457022 
L 455.131201 352.79444 
L 451.385498 358.952338 
L 447.349808 364.912361 
L 443.03913 370.657052 
L 438.470526 376.171124 
L 433.661953 381.440473 
L 428.632465 386.454563 
L 423.401277 391.204524 
L 417.987554 395.68399 
L 412.409728 399.889033 
L 406.685799 403.816826 
L 400.832225 407.466322 
L 394.864689 410.836986 
L 388.797637 413.928815 
L 382.644148 416.741864 
L 376.416648 419.276132 
L 370.126216 421.531167 
L 363.783424 423.50627 
L 357.398137 425.200359 
L 350.979639 426.612054 
L 344.536969 427.739845 
L 338.07871 428.582297 
L 331.61327 429.138113 
L 325.148791 429.40636 
L 318.693078 429.386719 
L 312.253765 429.07923 
L 305.837958 428.48489 
L 299.452506 427.605123 
L 293.103833 426.442017 
L 286.79793 424.998255 
L 280.540566 423.276803 
L 274.33726 421.281058 
L 268.193522 419.014542 
L 262.11501 416.480931 
L 256.10792 413.684039 
L 250.178783 410.62772 
L 244.33553 407.316199 
L 238.586843 403.75396 
L 232.942829 399.946052 
L 227.415296 395.898536 
L 222.017011 391.618054 
L 216.762813 387.113178 
L 211.668331 382.393437 
L 206.750343 377.47005 
L 202.026224 372.356004 
L 197.51359 367.065257 
L 193.229447 361.613372 
L 189.190224 356.016371 
L 185.410991 350.290739 
L 181.904804 344.452674 
L 178.68349 338.518098 
L 175.755697 332.501426 
L 173.128672 326.416248 
L 170.807254 320.274644 
L 168.794067 314.087139 
L 167.090533 307.863403 
L 165.695921 301.611796 
L 164.608747 295.340342 
L 163.826426 289.056828 
L 163.345617 282.76945 
L 163.162646 276.486785 
L 163.273414 270.219018 
L 163.673723 263.977186 
L 164.359296 257.773932 
L 165.325813 251.623453 
L 166.568967 245.540862 
L 168.084366 239.542492 
L 169.867548 233.644933 
L 171.913848 227.864789 
L 174.218258 222.217881 
L 176.775522 216.719393 
L 179.579616 211.382195 
L 182.624128 206.217975 
L 185.901859 201.236181 
L 189.404799 196.444056 
L 193.124411 191.847525 
L 197.051084 187.450185 
L 201.174774 183.254832 
L 205.484707 179.263107 
L 209.969558 175.476075 
L 214.617695 171.894574 
L 219.417092 168.519636 
L 224.355635 165.352549 
L 229.421148 162.395238 
L 234.601533 159.650441 
L 239.884791 157.121447 
L 245.259245 154.812714 
L 250.713383 152.729164 
L 256.236025 150.87648 
L 261.816297 149.260829 
L 267.44352 147.888631 
L 273.107371 146.766335 
L 278.797658 145.900259 
L 284.5044 145.296234 
L 290.217774 144.959326 
L 295.928035 144.894012 
L 301.625576 145.103138 
L 307.30084 145.58874 
L 307.30084 145.58874 
" clip-path="url(#p660c4b950d)" style="fill: none; stroke-dasharray: 3.5,5.775; stroke-dashoffset: 0; stroke: #008000; stroke-opacity: 0.8; stroke-width: 3.5"/>
   </g>
   <g id="text_19">
    <!-- Phase Portrait (x0 vs x1) -->
    <g transform="translate(232.994687 16.318125) scale(0.12 -0.12)">
     <defs>
      <path id="DejaVuSans-50" d="M 1259 4147 
L 1259 2394 
L 2053 2394 
Q 2494 2394 2734 2622 
Q 2975 2850 2975 3272 
Q 2975 3691 2734 3919 
Q 2494 4147 2053 4147 
L 1259 4147 
z
M 628 4666 
L 2053 4666 
Q 2838 4666 3239 4311 
Q 3641 3956 3641 3272 
Q 3641 2581 3239 2228 
Q 2838 1875 2053 1875 
L 1259 1875 
L 1259 0 
L 628 0 
L 628 4666 
z
" transform="scale(0.015625)"/>
      <path id="DejaVuSans-68" d="M 3513 2113 
L 3513 0 
L 2938 0 
L 2938 2094 
Q 2938 2591 2744 2837 
Q 2550 3084 2163 3084 
Q 1697 3084 1428 2787 
Q 1159 2491 1159 1978 
L 1159 0 
L 581 0 
L 581 4863 
L 1159 4863 
L 1159 2956 
Q 1366 3272 1645 3428 
Q 1925 3584 2291 3584 
Q 2894 3584 3203 3211 
Q 3513 2838 3513 2113 
z
" transform="scale(0.015625)"/>
      <path id="DejaVuSans-61" d="M 2194 1759 
Q 1497 1759 1228 1600 
Q 959 1441 959 1056 
Q 959 750 1161 570 
Q 1363 391 1709 391 
Q 2188 391 2477 730 
Q 2766 1069 2766 1631 
L 2766 1759 
L 2194 1759 
z
M 3341 1997 
L 3341 0 
L 2766 0 
L 2766 531 
Q 2569 213 2275 61 
Q 1981 -91 1556 -91 
Q 1019 -91 701 211 
Q 384 513 384 1019 
Q 384 1609 779 1909 
Q 1175 2209 1959 2209 
L 2766 2209 
L 2766 2266 
Q 2766 2663 2505 2880 
Q 2244 3097 1772 3097 
Q 1472 3097 1187 3025 
Q 903 2953 641 2809 
L 641 3341 
Q 956 3463 1253 3523 
Q 1550 3584 1831 3584 
Q 2591 3584 2966 3190 
Q 3341 2797 3341 1997 
z
" transform="scale(0.015625)"/>
      <path id="DejaVuSans-73" d="M 2834 3397 
L 2834 2853 
Q 2591 2978 2328 3040 
Q 2066 3103 1784 3103 
Q 1356 3103 1142 2972 
Q 928 2841 928 2578 
Q 928 2378 1081 2264 
Q 1234 2150 1697 2047 
L 1894 2003 
Q 2506 1872 2764 1633 
Q 3022 1394 3022 966 
Q 3022 478 2636 193 
Q 2250 -91 1575 -91 
Q 1294 -91 989 -36 
Q 684 19 347 128 
L 347 722 
Q 666 556 975 473 
Q 1284 391 1588 391 
Q 1994 391 2212 530 
Q 2431 669 2431 922 
Q 2431 1156 2273 1281 
Q 2116 1406 1581 1522 
L 1381 1569 
Q 847 1681 609 1914 
Q 372 2147 372 2553 
Q 372 3047 722 3315 
Q 1072 3584 1716 3584 
Q 2034 3584 2315 3537 
Q 2597 3491 2834 3397 
z
" transform="scale(0.015625)"/>
      <path id="DejaVuSans-65" d="M 3597 1894 
L 3597 1613 
L 953 1613 
Q 991 1019 1311 708 
Q 1631 397 2203 397 
Q 2534 397 2845 478 
Q 3156 559 3463 722 
L 3463 178 
Q 3153 47 2828 -22 
Q 2503 -91 2169 -91 
Q 1331 -91 842 396 
Q 353 884 353 1716 
Q 353 2575 817 3079 
Q 1281 3584 2069 3584 
Q 2775 3584 3186 3129 
Q 3597 2675 3597 1894 
z
M 3022 2063 
Q 3016 2534 2758 2815 
Q 2500 3097 2075 3097 
Q 1594 3097 1305 2825 
Q 1016 2553 972 2059 
L 3022 2063 
z
" transform="scale(0.015625)"/>
      <path id="DejaVuSans-20" transform="scale(0.015625)"/>
      <path id="DejaVuSans-6f" d="M 1959 3097 
Q 1497 3097 1228 2736 
Q 959 2375 959 1747 
Q 959 1119 1226 758 
Q 1494 397 1959 397 
Q 2419 397 2687 759 
Q 2956 1122 2956 1747 
Q 2956 2369 2687 2733 
Q 2419 3097 1959 3097 
z
M 1959 3584 
Q 2709 3584 3137 3096 
Q 3566 2609 3566 1747 
Q 3566 888 3137 398 
Q 2709 -91 1959 -91 
Q 1206 -91 779 398 
Q 353 888 353 1747 
Q 353 2609 779 3096 
Q 1206 3584 1959 3584 
z
" transform="scale(0.015625)"/>
      <path id="DejaVuSans-72" d="M 2631 2963 
Q 2534 3019 2420 3045 
Q 2306 3072 2169 3072 
Q 1681 3072 1420 2755 
Q 1159 2438 1159 1844 
L 1159 0 
L 581 0 
L 581 3500 
L 1159 3500 
L 1159 2956 
Q 1341 3275 1631 3429 
Q 1922 3584 2338 3584 
Q 2397 3584 2469 3576 
Q 2541 3569 2628 3553 
L 2631 2963 
z
" transform="scale(0.015625)"/>
      <path id="DejaVuSans-74" d="M 1172 4494 
L 1172 3500 
L 2356 3500 
L 2356 3053 
L 1172 3053 
L 1172 1153 
Q 1172 725 1289 603 
Q 1406 481 1766 481 
L 2356 481 
L 2356 0 
L 1766 0 
Q 1100 0 847 248 
Q 594 497 594 1153 
L 594 3053 
L 172 3053 
L 172 3500 
L 594 3500 
L 594 4494 
L 1172 4494 
z
" transform="scale(0.015625)"/>
      <path id="DejaVuSans-69" d="M 603 3500 
L 1178 3500 
L 1178 0 
L 603 0 
L 603 3500 
z
M 603 4863 
L 1178 4863 
L 1178 4134 
L 603 4134 
L 603 4863 
z
" transform="scale(0.015625)"/>
      <path id="DejaVuSans-28" d="M 1984 4856 
Q 1566 4138 1362 3434 
Q 1159 2731 1159 2009 
Q 1159 1288 1364 580 
Q 1569 -128 1984 -844 
L 1484 -844 
Q 1016 -109 783 600 
Q 550 1309 550 2009 
Q 550 2706 781 3412 
Q 1013 4119 1484 4856 
L 1984 4856 
z
" transform="scale(0.015625)"/>
      <path id="DejaVuSans-76" d="M 191 3500 
L 800 3500 
L 1894 563 
L 2988 3500 
L 3597 3500 
L 2284 0 
L 1503 0 
L 191 3500 
z
" transform="scale(0.015625)"/>
      <path id="DejaVuSans-29" d="M 513 4856 
L 1013 4856 
Q 1481 4119 1714 3412 
Q 1947 2706 1947 2009 
Q 1947 1309 1714 600 
Q 1481 -109 1013 -844 
L 513 -844 
Q 928 -128 1133 580 
Q 1338 1288 1338 2009 
Q 1338 2731 1133 3434 
Q 928 4138 513 4856 
z
" transform="scale(0.015625)"/>
     </defs>
     <use xlink:href="#DejaVuSans-50"/>
     <use xlink:href="#DejaVuSans-68" transform="translate(60.302734 0)"/>
     <use xlink:href="#DejaVuSans-61" transform="translate(123.681641 0)"/>
     <use xlink:href="#DejaVuSans-73" transform="translate(184.960938 0)"/>
     <use xlink:href="#DejaVuSans-65" transform="translate(237.060547 0)"/>
     <use xlink:href="#DejaVuSans-20" transform="translate(298.583984 0)"/>
     <use xlink:href="#DejaVuSans-50" transform="translate(330.371094 0)"/>
     <use xlink:href="#DejaVuSans-6f" transform="translate(387.048828 0)"/>
     <use xlink:href="#DejaVuSans-72" transform="translate(448.230469 0)"/>
     <use xlink:href="#DejaVuSans-74" transform="translate(489.34375 0)"/>
     <use xlink:href="#DejaVuSans-72" transform="translate(528.552734 0)"/>
     <use xlink:href="#DejaVuSans-61" transform="translate(569.666016 0)"/>
     <use xlink:href="#DejaVuSans-69" transform="translate(630.945312 0)"/>
     <use xlink:href="#DejaVuSans-74" transform="translate(658.728516 0)"/>
     <use xlink:href="#DejaVuSans-20" transform="translate(697.9375 0)"/>
     <use xlink:href="#DejaVuSans-28" transform="translate(729.724609 0)"/>
     <use xlink:href="#DejaVuSans-78" transform="translate(768.738281 0)"/>
     <use xlink:href="#DejaVuSans-30" transform="translate(827.917969 0)"/>
     <use xlink:href="#DejaVuSans-20" transform="translate(891.541016 0)"/>
     <use xlink:href="#DejaVuSans-76" transform="translate(923.328125 0)"/>
     <use xlink:href="#DejaVuSans-73" transform="translate(982.507812 0)"/>
     <use xlink:href="#DejaVuSans-20" transform="translate(1034.607422 0)"/>
     <use xlink:href="#DejaVuSans-78" transform="translate(1066.394531 0)"/>
     <use xlink:href="#DejaVuSans-31" transform="translate(1125.574219 0)"/>
     <use xlink:href="#DejaVuSans-29" transform="translate(1189.197266 0)"/>
    </g>
   </g>
   <g id="line2d_20">
    <path d="M 536.604096 250.016581 
L 537.13811 255.225372 
L 537.552059 260.432721 
L 537.845705 265.635931 
L 538.019039 270.832319 
L 538.072301 276.019225 
L 538.005735 281.19399 
L 537.819651 286.353967 
L 537.514383 291.496496 
L 537.090507 296.618957 
L 536.548811 301.718779 
L 535.890081 306.79339 
L 535.115159 311.84024 
L 534.224925 316.856766 
L 533.220457 321.840473 
L 532.102991 326.788933 
L 530.87376 331.699718 
L 529.534034 336.570424 
L 528.085125 341.398642 
L 526.528477 346.18205 
L 524.865622 350.918401 
L 523.098093 355.60545 
L 521.227437 360.240981 
L 519.255241 364.822773 
L 517.183148 369.348706 
L 515.012836 373.81674 
L 512.745979 378.224835 
L 510.384256 382.570979 
L 507.929367 386.853161 
L 505.38302 391.069476 
L 502.746915 395.218095 
L 500.022756 399.29719 
L 497.212237 403.30496 
L 494.317062 407.239609 
L 488.279474 414.88284 
L 481.923354 422.213879 
L 475.261991 429.220072 
L 468.308553 435.889694 
L 464.726414 439.094777 
L 461.076175 442.21152 
L 457.359486 445.238638 
L 453.578017 448.174911 
L 449.733438 451.019122 
L 445.827438 453.770086 
L 441.861683 456.426607 
L 437.837905 458.987603 
L 433.757888 461.452061 
L 429.623413 463.818968 
L 425.436293 466.087347 
L 421.198318 468.256207 
L 416.911393 470.324681 
L 412.577494 472.291976 
L 408.198594 474.157299 
L 403.776707 475.919896 
L 399.313834 477.578999 
L 390.273769 480.584272 
L 381.09611 483.168676 
L 371.799018 485.328192 
L 362.401786 487.060051 
L 352.924243 488.362151 
L 343.38687 489.233244 
L 333.810804 489.67332 
L 324.217441 489.682877 
L 314.628499 489.263809 
L 305.065728 488.418727 
L 295.550826 487.151163 
L 286.105083 485.465874 
L 276.74959 483.368127 
L 267.504562 480.864496 
L 258.389679 477.962179 
L 249.42386 474.66919 
L 240.624853 470.994545 
L 232.009902 466.947673 
L 223.594862 462.539015 
L 215.394901 457.779474 
L 207.424292 452.680558 
L 199.696199 447.254482 
L 192.223334 441.513761 
L 185.017349 435.471612 
L 178.089429 429.141574 
L 171.450176 422.53761 
L 165.109548 415.67418 
L 159.07725 408.565958 
L 153.362399 401.228129 
L 147.973852 393.676113 
L 142.920121 385.92565 
L 138.20926 377.992852 
L 133.849135 369.893993 
L 129.847003 361.645732 
L 126.209798 353.264891 
L 122.943952 344.768523 
L 120.055129 336.173915 
L 117.548648 327.498457 
L 115.428704 318.759725 
L 113.698915 309.975359 
L 112.362004 301.163072 
L 111.419475 292.340576 
L 110.872276 283.525587 
L 110.719811 274.735701 
L 110.960759 265.988422 
L 111.592721 257.301103 
L 112.612024 248.69081 
L 114.014422 240.174482 
L 115.794296 231.768605 
L 117.945447 223.48943 
L 120.460843 215.352834 
L 123.332602 207.374184 
L 126.552467 199.568605 
L 130.111396 191.950546 
L 134.000046 184.534126 
L 138.208652 177.33296 
L 142.727056 170.360034 
L 147.544927 163.62804 
L 152.651562 157.148884 
L 158.036106 150.93411 
L 163.68746 144.994697 
L 169.594237 139.340945 
L 175.744907 133.982835 
L 182.127511 128.929498 
L 188.729882 124.189675 
L 195.539473 119.771489 
L 202.543254 115.682321 
L 209.727943 111.929191 
L 217.079553 108.518167 
L 224.583774 105.454876 
L 232.225742 102.744231 
L 239.989987 100.390298 
L 247.860721 98.396725 
L 255.821458 96.766061 
L 263.855431 95.500358 
L 271.945445 94.600848 
L 280.073959 94.067831 
L 288.223266 93.901132 
L 296.375475 94.0994 
L 304.512682 94.660766 
L 312.617028 95.582506 
L 320.670878 96.860978 
L 328.65673 98.492065 
L 336.557631 100.470545 
L 344.356921 102.790726 
L 352.038481 105.446142 
L 359.586882 108.429543 
L 366.987058 111.733272 
L 374.224912 115.348767 
L 381.286777 119.267095 
L 388.159719 123.478709 
L 394.831577 127.973472 
L 401.290597 132.740932 
L 407.525953 137.76997 
L 413.527201 143.049201 
L 419.284533 148.566788 
L 424.788766 154.310479 
L 430.031045 160.267796 
L 435.003246 166.425788 
L 439.697548 172.771322 
L 444.106645 179.290949 
L 448.223768 185.970939 
L 452.042434 192.797404 
L 455.556864 199.756156 
L 458.761598 206.832888 
L 461.651738 214.013104 
L 464.223013 221.282158 
L 466.471503 228.62532 
L 468.394182 236.027739 
L 469.988423 243.474531 
L 471.252336 250.950764 
L 472.184804 258.441523 
L 472.785165 265.931896 
L 473.053812 273.407071 
L 472.991593 280.852303 
L 472.600174 288.252975 
L 471.882016 295.59466 
L 470.840045 302.863043 
L 469.478173 310.044136 
L 467.800717 317.12411 
L 465.812698 324.089439 
L 463.519772 330.926939 
L 460.927965 337.623629 
L 458.044035 344.167042 
L 454.875028 350.544941 
L 451.428494 356.745518 
L 447.712421 362.757417 
L 443.735057 368.569553 
L 439.505171 374.171473 
L 435.031746 379.553005 
L 430.324152 384.704497 
L 425.392119 389.616817 
L 420.245603 394.281152 
L 414.895051 398.689419 
L 409.351122 402.833851 
L 403.624887 406.707278 
L 397.727802 410.303119 
L 391.67158 413.615159 
L 385.468477 416.63801 
L 379.130974 419.36664 
L 372.671992 421.796702 
L 366.104824 423.924504 
L 359.443014 425.746775 
L 352.700552 427.261165 
L 345.891594 428.465709 
L 339.030596 429.359212 
L 332.132197 429.941171 
L 325.211158 430.211546 
L 318.282339 430.171257 
L 311.36061 429.821618 
L 304.460795 429.164739 
L 297.597589 428.203395 
L 290.78558 426.940831 
L 284.039002 425.381195 
L 277.371917 423.528995 
L 270.797974 421.389477 
L 264.330418 418.968465 
L 257.982195 416.272202 
L 251.765583 413.307691 
L 245.692582 410.082235 
L 239.774579 406.603747 
L 234.022449 402.880592 
L 228.446692 398.921471 
L 223.057067 394.735671 
L 217.863046 390.332699 
L 212.873468 385.722529 
L 208.096685 380.915457 
L 203.540686 375.922028 
L 199.212773 370.7532 
L 195.119983 365.420084 
L 191.268756 359.934113 
L 187.665086 354.306931 
L 184.314613 348.550349 
L 181.222307 342.67643 
L 178.392876 336.69733 
L 175.830406 330.625388 
L 173.53852 324.473046 
L 171.520456 318.252829 
L 169.778718 311.977357 
L 168.315525 305.659277 
L 167.132397 299.31127 
L 166.230348 292.94601 
L 165.609959 286.576163 
L 165.271026 280.214315 
L 165.213036 273.873015 
L 165.434745 267.564685 
L 165.934405 261.301625 
L 166.709829 255.096032 
L 167.758085 248.959852 
L 169.075952 242.904929 
L 170.659539 236.942824 
L 172.504518 231.084878 
L 174.606178 225.342234 
L 176.95918 219.725641 
L 179.557947 214.245691 
L 182.396349 208.912557 
L 185.467906 203.736119 
L 188.765821 198.72598 
L 192.282786 193.891235 
L 196.011299 189.240781 
L 199.943389 184.782988 
L 204.07079 180.525874 
L 208.384955 176.477117 
L 212.876886 172.643796 
L 217.537407 169.032757 
L 222.356905 165.650227 
L 227.3255 162.50203 
L 232.433043 159.593596 
L 237.668974 156.929674 
L 243.02257 154.514748 
L 248.482725 152.352603 
L 254.038111 150.446579 
L 259.677184 148.799571 
L 265.388104 147.413731 
L 271.15892 146.290924 
L 276.977457 145.432254 
L 282.831441 144.838362 
L 288.708506 144.509414 
L 294.596231 144.444823 
L 300.482187 144.643653 
L 303.420629 144.841362 
L 303.420629 144.841362 
" clip-path="url(#p660c4b950d)" style="fill: none; stroke-dasharray: 12.95,5.6; stroke-dashoffset: 0; stroke: #ff0000; stroke-opacity: 0.8; stroke-width: 3.5"/>
   </g>
   <g id="legend_1">
    <g id="patch_7">
     <path d="M 234.010937 307.234375 
L 379.360937 307.234375 
Q 381.360937 307.234375 381.360937 305.234375 
L 381.360937 247.521875 
Q 381.360937 245.521875 379.360937 245.521875 
L 234.010937 245.521875 
Q 232.010937 245.521875 232.010937 247.521875 
L 232.010937 305.234375 
Q 232.010937 307.234375 234.010937 307.234375 
z
" style="fill: #ffffff; opacity: 0.8; stroke: #cccccc; stroke-linejoin: miter"/>
    </g>
    <g id="line2d_21">
     <path d="M 236.010937 253.620312 
L 246.010937 253.620312 
L 256.010937 253.620312 
" style="fill: none; stroke: #000000; stroke-opacity: 0.3; stroke-width: 7; stroke-linecap: square"/>
    </g>
    <g id="text_20">
     <!-- True/Underlying model -->
     <g transform="translate(264.010937 257.120312) scale(0.1 -0.1)">
      <defs>
       <path id="DejaVuSans-54" d="M -19 4666 
L 3928 4666 
L 3928 4134 
L 2272 4134 
L 2272 0 
L 1638 0 
L 1638 4134 
L -19 4134 
L -19 4666 
z
" transform="scale(0.015625)"/>
       <path id="DejaVuSans-75" d="M 544 1381 
L 544 3500 
L 1119 3500 
L 1119 1403 
Q 1119 906 1312 657 
Q 1506 409 1894 409 
Q 2359 409 2629 706 
Q 2900 1003 2900 1516 
L 2900 3500 
L 3475 3500 
L 3475 0 
L 2900 0 
L 2900 538 
Q 2691 219 2414 64 
Q 2138 -91 1772 -91 
Q 1169 -91 856 284 
Q 544 659 544 1381 
z
M 1991 3584 
L 1991 3584 
z
" transform="scale(0.015625)"/>
       <path id="DejaVuSans-2f" d="M 1625 4666 
L 2156 4666 
L 531 -594 
L 0 -594 
L 1625 4666 
z
" transform="scale(0.015625)"/>
       <path id="DejaVuSans-55" d="M 556 4666 
L 1191 4666 
L 1191 1831 
Q 1191 1081 1462 751 
Q 1734 422 2344 422 
Q 2950 422 3222 751 
Q 3494 1081 3494 1831 
L 3494 4666 
L 4128 4666 
L 4128 1753 
Q 4128 841 3676 375 
Q 3225 -91 2344 -91 
Q 1459 -91 1007 375 
Q 556 841 556 1753 
L 556 4666 
z
" transform="scale(0.015625)"/>
       <path id="DejaVuSans-6e" d="M 3513 2113 
L 3513 0 
L 2938 0 
L 2938 2094 
Q 2938 2591 2744 2837 
Q 2550 3084 2163 3084 
Q 1697 3084 1428 2787 
Q 1159 2491 1159 1978 
L 1159 0 
L 581 0 
L 581 3500 
L 1159 3500 
L 1159 2956 
Q 1366 3272 1645 3428 
Q 1925 3584 2291 3584 
Q 2894 3584 3203 3211 
Q 3513 2838 3513 2113 
z
" transform="scale(0.015625)"/>
       <path id="DejaVuSans-64" d="M 2906 2969 
L 2906 4863 
L 3481 4863 
L 3481 0 
L 2906 0 
L 2906 525 
Q 2725 213 2448 61 
Q 2172 -91 1784 -91 
Q 1150 -91 751 415 
Q 353 922 353 1747 
Q 353 2572 751 3078 
Q 1150 3584 1784 3584 
Q 2172 3584 2448 3432 
Q 2725 3281 2906 2969 
z
M 947 1747 
Q 947 1113 1208 752 
Q 1469 391 1925 391 
Q 2381 391 2643 752 
Q 2906 1113 2906 1747 
Q 2906 2381 2643 2742 
Q 2381 3103 1925 3103 
Q 1469 3103 1208 2742 
Q 947 2381 947 1747 
z
" transform="scale(0.015625)"/>
       <path id="DejaVuSans-6c" d="M 603 4863 
L 1178 4863 
L 1178 0 
L 603 0 
L 603 4863 
z
" transform="scale(0.015625)"/>
       <path id="DejaVuSans-79" d="M 2059 -325 
Q 1816 -950 1584 -1140 
Q 1353 -1331 966 -1331 
L 506 -1331 
L 506 -850 
L 844 -850 
Q 1081 -850 1212 -737 
Q 1344 -625 1503 -206 
L 1606 56 
L 191 3500 
L 800 3500 
L 1894 763 
L 2988 3500 
L 3597 3500 
L 2059 -325 
z
" transform="scale(0.015625)"/>
       <path id="DejaVuSans-67" d="M 2906 1791 
Q 2906 2416 2648 2759 
Q 2391 3103 1925 3103 
Q 1463 3103 1205 2759 
Q 947 2416 947 1791 
Q 947 1169 1205 825 
Q 1463 481 1925 481 
Q 2391 481 2648 825 
Q 2906 1169 2906 1791 
z
M 3481 434 
Q 3481 -459 3084 -895 
Q 2688 -1331 1869 -1331 
Q 1566 -1331 1297 -1286 
Q 1028 -1241 775 -1147 
L 775 -588 
Q 1028 -725 1275 -790 
Q 1522 -856 1778 -856 
Q 2344 -856 2625 -561 
Q 2906 -266 2906 331 
L 2906 616 
Q 2728 306 2450 153 
Q 2172 0 1784 0 
Q 1141 0 747 490 
Q 353 981 353 1791 
Q 353 2603 747 3093 
Q 1141 3584 1784 3584 
Q 2172 3584 2450 3431 
Q 2728 3278 2906 2969 
L 2906 3500 
L 3481 3500 
L 3481 434 
z
" transform="scale(0.015625)"/>
       <path id="DejaVuSans-6d" d="M 3328 2828 
Q 3544 3216 3844 3400 
Q 4144 3584 4550 3584 
Q 5097 3584 5394 3201 
Q 5691 2819 5691 2113 
L 5691 0 
L 5113 0 
L 5113 2094 
Q 5113 2597 4934 2840 
Q 4756 3084 4391 3084 
Q 3944 3084 3684 2787 
Q 3425 2491 3425 1978 
L 3425 0 
L 2847 0 
L 2847 2094 
Q 2847 2600 2669 2842 
Q 2491 3084 2119 3084 
Q 1678 3084 1418 2786 
Q 1159 2488 1159 1978 
L 1159 0 
L 581 0 
L 581 3500 
L 1159 3500 
L 1159 2956 
Q 1356 3278 1631 3431 
Q 1906 3584 2284 3584 
Q 2666 3584 2933 3390 
Q 3200 3197 3328 2828 
z
" transform="scale(0.015625)"/>
      </defs>
      <use xlink:href="#DejaVuSans-54"/>
      <use xlink:href="#DejaVuSans-72" transform="translate(46.333984 0)"/>
      <use xlink:href="#DejaVuSans-75" transform="translate(87.447266 0)"/>
      <use xlink:href="#DejaVuSans-65" transform="translate(150.826172 0)"/>
      <use xlink:href="#DejaVuSans-2f" transform="translate(212.349609 0)"/>
      <use xlink:href="#DejaVuSans-55" transform="translate(246.041016 0)"/>
      <use xlink:href="#DejaVuSans-6e" transform="translate(319.234375 0)"/>
      <use xlink:href="#DejaVuSans-64" transform="translate(382.613281 0)"/>
      <use xlink:href="#DejaVuSans-65" transform="translate(446.089844 0)"/>
      <use xlink:href="#DejaVuSans-72" transform="translate(507.613281 0)"/>
      <use xlink:href="#DejaVuSans-6c" transform="translate(548.726562 0)"/>
      <use xlink:href="#DejaVuSans-79" transform="translate(576.509766 0)"/>
      <use xlink:href="#DejaVuSans-69" transform="translate(635.689453 0)"/>
      <use xlink:href="#DejaVuSans-6e" transform="translate(663.472656 0)"/>
      <use xlink:href="#DejaVuSans-67" transform="translate(726.851562 0)"/>
      <use xlink:href="#DejaVuSans-20" transform="translate(790.328125 0)"/>
      <use xlink:href="#DejaVuSans-6d" transform="translate(822.115234 0)"/>
      <use xlink:href="#DejaVuSans-6f" transform="translate(919.527344 0)"/>
      <use xlink:href="#DejaVuSans-64" transform="translate(980.708984 0)"/>
      <use xlink:href="#DejaVuSans-65" transform="translate(1044.185547 0)"/>
      <use xlink:href="#DejaVuSans-6c" transform="translate(1105.708984 0)"/>
     </g>
    </g>
    <g id="line2d_22">
     <path d="M 236.010937 268.298437 
L 246.010937 268.298437 
L 256.010937 268.298437 
" style="fill: none; stroke-dasharray: 12.95,5.6; stroke-dashoffset: 0; stroke: #ff0000; stroke-opacity: 0.8; stroke-width: 3.5"/>
    </g>
    <g id="text_21">
     <!-- AutoSINDy -->
     <g transform="translate(264.010937 271.798437) scale(0.1 -0.1)">
      <defs>
       <path id="DejaVuSans-41" d="M 2188 4044 
L 1331 1722 
L 3047 1722 
L 2188 4044 
z
M 1831 4666 
L 2547 4666 
L 4325 0 
L 3669 0 
L 3244 1197 
L 1141 1197 
L 716 0 
L 50 0 
L 1831 4666 
z
" transform="scale(0.015625)"/>
       <path id="DejaVuSans-53" d="M 3425 4513 
L 3425 3897 
Q 3066 4069 2747 4153 
Q 2428 4238 2131 4238 
Q 1616 4238 1336 4038 
Q 1056 3838 1056 3469 
Q 1056 3159 1242 3001 
Q 1428 2844 1947 2747 
L 2328 2669 
Q 3034 2534 3370 2195 
Q 3706 1856 3706 1288 
Q 3706 609 3251 259 
Q 2797 -91 1919 -91 
Q 1588 -91 1214 -16 
Q 841 59 441 206 
L 441 856 
Q 825 641 1194 531 
Q 1563 422 1919 422 
Q 2459 422 2753 634 
Q 3047 847 3047 1241 
Q 3047 1584 2836 1778 
Q 2625 1972 2144 2069 
L 1759 2144 
Q 1053 2284 737 2584 
Q 422 2884 422 3419 
Q 422 4038 858 4394 
Q 1294 4750 2059 4750 
Q 2388 4750 2728 4690 
Q 3069 4631 3425 4513 
z
" transform="scale(0.015625)"/>
       <path id="DejaVuSans-49" d="M 628 4666 
L 1259 4666 
L 1259 0 
L 628 0 
L 628 4666 
z
" transform="scale(0.015625)"/>
       <path id="DejaVuSans-4e" d="M 628 4666 
L 1478 4666 
L 3547 763 
L 3547 4666 
L 4159 4666 
L 4159 0 
L 3309 0 
L 1241 3903 
L 1241 0 
L 628 0 
L 628 4666 
z
" transform="scale(0.015625)"/>
       <path id="DejaVuSans-44" d="M 1259 4147 
L 1259 519 
L 2022 519 
Q 2988 519 3436 956 
Q 3884 1394 3884 2338 
Q 3884 3275 3436 3711 
Q 2988 4147 2022 4147 
L 1259 4147 
z
M 628 4666 
L 1925 4666 
Q 3281 4666 3915 4102 
Q 4550 3538 4550 2338 
Q 4550 1131 3912 565 
Q 3275 0 1925 0 
L 628 0 
L 628 4666 
z
" transform="scale(0.015625)"/>
      </defs>
      <use xlink:href="#DejaVuSans-41"/>
      <use xlink:href="#DejaVuSans-75" transform="translate(68.408203 0)"/>
      <use xlink:href="#DejaVuSans-74" transform="translate(131.787109 0)"/>
      <use xlink:href="#DejaVuSans-6f" transform="translate(170.996094 0)"/>
      <use xlink:href="#DejaVuSans-53" transform="translate(232.177734 0)"/>
      <use xlink:href="#DejaVuSans-49" transform="translate(295.654297 0)"/>
      <use xlink:href="#DejaVuSans-4e" transform="translate(325.146484 0)"/>
      <use xlink:href="#DejaVuSans-44" transform="translate(399.951172 0)"/>
      <use xlink:href="#DejaVuSans-79" transform="translate(476.953125 0)"/>
     </g>
    </g>
    <g id="line2d_23">
     <path d="M 236.010937 282.976562 
L 246.010937 282.976562 
L 256.010937 282.976562 
" style="fill: none; stroke-dasharray: 3.5,5.775; stroke-dashoffset: 0; stroke: #008000; stroke-opacity: 0.8; stroke-width: 3.5"/>
    </g>
    <g id="text_22">
     <!-- Standard SINDy -->
     <g transform="translate(264.010937 286.476562) scale(0.1 -0.1)">
      <use xlink:href="#DejaVuSans-53"/>
      <use xlink:href="#DejaVuSans-74" transform="translate(63.476562 0)"/>
      <use xlink:href="#DejaVuSans-61" transform="translate(102.685547 0)"/>
      <use xlink:href="#DejaVuSans-6e" transform="translate(163.964844 0)"/>
      <use xlink:href="#DejaVuSans-64" transform="translate(227.34375 0)"/>
      <use xlink:href="#DejaVuSans-61" transform="translate(290.820312 0)"/>
      <use xlink:href="#DejaVuSans-72" transform="translate(352.099609 0)"/>
      <use xlink:href="#DejaVuSans-64" transform="translate(391.462891 0)"/>
      <use xlink:href="#DejaVuSans-20" transform="translate(454.939453 0)"/>
      <use xlink:href="#DejaVuSans-53" transform="translate(486.726562 0)"/>
      <use xlink:href="#DejaVuSans-49" transform="translate(550.203125 0)"/>
      <use xlink:href="#DejaVuSans-4e" transform="translate(579.695312 0)"/>
      <use xlink:href="#DejaVuSans-44" transform="translate(654.5 0)"/>
      <use xlink:href="#DejaVuSans-79" transform="translate(731.501953 0)"/>
     </g>
    </g>
    <g id="line2d_24">
     <path d="M 236.010937 297.654687 
L 246.010937 297.654687 
L 256.010937 297.654687 
" style="fill: none; stroke-dasharray: 22.4,5.6,3.5,5.6; stroke-dashoffset: 0; stroke: #0000ff; stroke-opacity: 0.8; stroke-width: 3.5"/>
    </g>
    <g id="text_23">
     <!-- Standard PySR -->
     <g transform="translate(264.010937 301.154687) scale(0.1 -0.1)">
      <defs>
       <path id="DejaVuSans-52" d="M 2841 2188 
Q 3044 2119 3236 1894 
Q 3428 1669 3622 1275 
L 4263 0 
L 3584 0 
L 2988 1197 
Q 2756 1666 2539 1819 
Q 2322 1972 1947 1972 
L 1259 1972 
L 1259 0 
L 628 0 
L 628 4666 
L 2053 4666 
Q 2853 4666 3247 4331 
Q 3641 3997 3641 3322 
Q 3641 2881 3436 2590 
Q 3231 2300 2841 2188 
z
M 1259 4147 
L 1259 2491 
L 2053 2491 
Q 2509 2491 2742 2702 
Q 2975 2913 2975 3322 
Q 2975 3731 2742 3939 
Q 2509 4147 2053 4147 
L 1259 4147 
z
" transform="scale(0.015625)"/>
      </defs>
      <use xlink:href="#DejaVuSans-53"/>
      <use xlink:href="#DejaVuSans-74" transform="translate(63.476562 0)"/>
      <use xlink:href="#DejaVuSans-61" transform="translate(102.685547 0)"/>
      <use xlink:href="#DejaVuSans-6e" transform="translate(163.964844 0)"/>
      <use xlink:href="#DejaVuSans-64" transform="translate(227.34375 0)"/>
      <use xlink:href="#DejaVuSans-61" transform="translate(290.820312 0)"/>
      <use xlink:href="#DejaVuSans-72" transform="translate(352.099609 0)"/>
      <use xlink:href="#DejaVuSans-64" transform="translate(391.462891 0)"/>
      <use xlink:href="#DejaVuSans-20" transform="translate(454.939453 0)"/>
      <use xlink:href="#DejaVuSans-50" transform="translate(486.726562 0)"/>
      <use xlink:href="#DejaVuSans-79" transform="translate(547.029297 0)"/>
      <use xlink:href="#DejaVuSans-53" transform="translate(606.208984 0)"/>
      <use xlink:href="#DejaVuSans-52" transform="translate(669.685547 0)"/>
     </g>
    </g>
   </g>
  </g>
 </g>
 <defs>
  <clipPath id="p660c4b950d">
   <rect x="52.160938" y="22.318125" width="509.05" height="508.12"/>
  </clipPath>
 </defs>
</svg>
