<?xml version="1.0" encoding="utf-8" standalone="no"?>
<!DOCTYPE svg PUBLIC "-//W3C//DTD SVG 1.1//EN"
  "http://www.w3.org/Graphics/SVG/1.1/DTD/svg11.dtd">
<svg xmlns:xlink="http://www.w3.org/1999/xlink" width="871.750937pt" height="285.79625pt" viewBox="0 0 871.750937 285.79625" xmlns="http://www.w3.org/2000/svg" version="1.1">
 <metadata>
  <rdf:RDF xmlns:dc="http://purl.org/dc/elements/1.1/" xmlns:cc="http://creativecommons.org/ns#" xmlns:rdf="http://www.w3.org/1999/02/22-rdf-syntax-ns#">
   <cc:Work>
    <dc:type rdf:resource="http://purl.org/dc/dcmitype/StillImage"/>
    <dc:date>2026-04-05T22:39:52.623899</dc:date>
    <dc:format>image/svg+xml</dc:format>
    <dc:creator>
     <cc:Agent>
      <dc:title>Matplotlib v3.10.7, https://matplotlib.org/</dc:title>
     </cc:Agent>
    </dc:creator>
   </cc:Work>
  </rdf:RDF>
 </metadata>
 <defs>
  <style type="text/css">*{stroke-linejoin: round; stroke-linecap: butt}</style>
 </defs>
 <g id="figure_1">
  <g id="patch_1">
   <path d="M 0 285.79625 
L 871.750937 285.79625 
L 871.750937 0 
L 0 0 
z
" style="fill: #ffffff"/>
  </g>
  <g id="axes_1">
   <g id="patch_2">
    <path d="M 52.160938 136.069775 
L 858.750937 136.069775 
L 858.750937 39.64 
L 52.160938 39.64 
z
" style="fill: #ffffff"/>
   </g>
   <g id="line2d_1">
    <path d="M 88.824119 44.61034 
L 93.232518 45.773377 
L 99.110383 47.022604 
L 106.457714 48.303103 
L 116.743977 49.842291 
L 166.705828 56.997834 
L 179.931024 59.24048 
L 191.686754 61.474875 
L 200.503551 63.350697 
L 209.320348 65.445208 
L 216.667679 67.401207 
L 224.01501 69.60962 
L 229.892875 71.610352 
L 235.77074 73.872507 
L 240.179138 75.775423 
L 244.587537 77.885697 
L 248.995936 80.237848 
L 253.404334 82.880912 
L 257.812733 85.862006 
L 262.221132 89.225874 
L 266.62953 93.008546 
L 271.037929 97.224255 
L 275.446327 101.828615 
L 281.324192 108.356997 
L 287.202057 114.834598 
L 290.140989 117.83706 
L 293.079922 120.581996 
L 296.018854 123.007338 
L 298.957787 125.073927 
L 301.896719 126.786596 
L 304.835651 128.163051 
L 307.774584 129.230203 
L 310.713516 130.024441 
L 313.652449 130.595719 
L 316.591381 130.985572 
L 320.99978 131.305456 
L 325.408178 131.396553 
L 331.286043 131.277788 
L 338.633374 130.892036 
L 348.919638 130.11164 
L 363.6143 128.759665 
L 382.71736 126.781091 
L 403.289887 124.425567 
L 420.923482 122.192369 
L 437.08761 119.922773 
L 450.312806 117.866801 
L 462.068535 115.837098 
L 472.354799 113.854994 
L 481.171596 111.960413 
L 489.988393 109.837265 
L 497.335724 107.848784 
L 503.213589 106.073627 
L 509.091454 104.091795 
L 514.969319 101.854475 
L 519.377717 99.974512 
L 523.786116 97.891068 
L 528.194515 95.567976 
L 532.602913 92.957421 
L 537.011312 90.012976 
L 541.419711 86.69093 
L 545.828109 82.952992 
L 550.236508 78.78331 
L 554.644906 74.214887 
L 560.522771 67.711935 
L 566.400636 61.210559 
L 569.339568 58.177672 
L 572.278501 55.397329 
L 575.217433 52.924074 
L 578.156366 50.790715 
L 581.095298 49.008319 
L 584.03423 47.566217 
L 586.973163 46.436866 
L 589.912095 45.583384 
L 592.851028 44.963213 
L 595.78996 44.535465 
L 600.198359 44.170888 
L 604.606757 44.050619 
L 610.484622 44.144173 
L 617.831953 44.512043 
L 628.118217 45.278423 
L 642.812879 46.617596 
L 661.915939 48.580809 
L 682.488466 50.916359 
L 700.122061 53.126007 
L 716.286189 55.363643 
L 729.511385 57.394287 
L 741.267114 59.394223 
L 751.553378 61.334426 
L 761.839641 63.509951 
L 770.656439 65.620123 
L 778.00377 67.595536 
L 785.351101 69.814603 
L 791.228965 71.82364 
L 797.10683 74.10224 
L 801.515229 76.028456 
L 805.923627 78.176491 
L 810.332026 80.581838 
L 814.740425 83.283183 
L 819.148823 86.322406 
L 822.087756 88.558391 
L 822.087756 88.558391 
" clip-path="url(#pd5dce43b8b)" style="fill: none; stroke: #000000; stroke-opacity: 0.4; stroke-width: 6; stroke-linecap: square"/>
   </g>
   <g id="matplotlib.axis_1">
    <g id="xtick_1">
     <g id="line2d_2">
      <defs>
       <path id="m3ba6a56b02" d="M 0 0 
L 0 3.5 
" style="stroke: #000000; stroke-width: 0.8"/>
      </defs>
      <g>
       <use xlink:href="#m3ba6a56b02" x="88.824119" y="136.069775" style="stroke: #000000; stroke-width: 0.8"/>
      </g>
     </g>
    </g>
    <g id="xtick_2">
     <g id="line2d_3">
      <g>
       <use xlink:href="#m3ba6a56b02" x="235.476847" y="136.069775" style="stroke: #000000; stroke-width: 0.8"/>
      </g>
     </g>
    </g>
    <g id="xtick_3">
     <g id="line2d_4">
      <g>
       <use xlink:href="#m3ba6a56b02" x="382.129574" y="136.069775" style="stroke: #000000; stroke-width: 0.8"/>
      </g>
     </g>
    </g>
    <g id="xtick_4">
     <g id="line2d_5">
      <g>
       <use xlink:href="#m3ba6a56b02" x="528.782301" y="136.069775" style="stroke: #000000; stroke-width: 0.8"/>
      </g>
     </g>
    </g>
    <g id="xtick_5">
     <g id="line2d_6">
      <g>
       <use xlink:href="#m3ba6a56b02" x="675.435028" y="136.069775" style="stroke: #000000; stroke-width: 0.8"/>
      </g>
     </g>
    </g>
    <g id="xtick_6">
     <g id="line2d_7">
      <g>
       <use xlink:href="#m3ba6a56b02" x="822.087756" y="136.069775" style="stroke: #000000; stroke-width: 0.8"/>
      </g>
     </g>
    </g>
   </g>
   <g id="matplotlib.axis_2">
    <g id="ytick_1">
     <g id="line2d_8">
      <defs>
       <path id="m5d31aadfab" d="M 0 0 
L -3.5 0 
" style="stroke: #000000; stroke-width: 0.8"/>
      </defs>
      <g>
       <use xlink:href="#m5d31aadfab" x="52.160938" y="130.953027" style="stroke: #000000; stroke-width: 0.8"/>
      </g>
     </g>
     <g id="text_1">
      <!-- −2 -->
      <g transform="translate(30.41875 134.752245) scale(0.1 -0.1)">
       <defs>
        <path id="DejaVuSans-2212" d="M 678 2272 
L 4684 2272 
L 4684 1741 
L 678 1741 
L 678 2272 
z
" transform="scale(0.015625)"/>
        <path id="DejaVuSans-32" d="M 1228 531 
L 3431 531 
L 3431 0 
L 469 0 
L 469 531 
Q 828 903 1448 1529 
Q 2069 2156 2228 2338 
Q 2531 2678 2651 2914 
Q 2772 3150 2772 3378 
Q 2772 3750 2511 3984 
Q 2250 4219 1831 4219 
Q 1534 4219 1204 4116 
Q 875 4013 500 3803 
L 500 4441 
Q 881 4594 1212 4672 
Q 1544 4750 1819 4750 
Q 2544 4750 2975 4387 
Q 3406 4025 3406 3419 
Q 3406 3131 3298 2873 
Q 3191 2616 2906 2266 
Q 2828 2175 2409 1742 
Q 1991 1309 1228 531 
z
" transform="scale(0.015625)"/>
       </defs>
       <use xlink:href="#DejaVuSans-2212"/>
       <use xlink:href="#DejaVuSans-32" transform="translate(83.789062 0)"/>
      </g>
     </g>
    </g>
    <g id="ytick_2">
     <g id="line2d_9">
      <g>
       <use xlink:href="#m5d31aadfab" x="52.160938" y="87.781683" style="stroke: #000000; stroke-width: 0.8"/>
      </g>
     </g>
     <g id="text_2">
      <!-- 0 -->
      <g transform="translate(38.798438 91.580902) scale(0.1 -0.1)">
       <defs>
        <path id="DejaVuSans-30" d="M 2034 4250 
Q 1547 4250 1301 3770 
Q 1056 3291 1056 2328 
Q 1056 1369 1301 889 
Q 1547 409 2034 409 
Q 2525 409 2770 889 
Q 3016 1369 3016 2328 
Q 3016 3291 2770 3770 
Q 2525 4250 2034 4250 
z
M 2034 4750 
Q 2819 4750 3233 4129 
Q 3647 3509 3647 2328 
Q 3647 1150 3233 529 
Q 2819 -91 2034 -91 
Q 1250 -91 836 529 
Q 422 1150 422 2328 
Q 422 3509 836 4129 
Q 1250 4750 2034 4750 
z
" transform="scale(0.015625)"/>
       </defs>
       <use xlink:href="#DejaVuSans-30"/>
      </g>
     </g>
    </g>
    <g id="ytick_3">
     <g id="line2d_10">
      <g>
       <use xlink:href="#m5d31aadfab" x="52.160938" y="44.61034" style="stroke: #000000; stroke-width: 0.8"/>
      </g>
     </g>
     <g id="text_3">
      <!-- 2 -->
      <g transform="translate(38.798438 48.409559) scale(0.1 -0.1)">
       <use xlink:href="#DejaVuSans-32"/>
      </g>
     </g>
    </g>
    <g id="text_4">
     <!-- $x0$ -->
     <g transform="translate(24.339063 94.004888) rotate(-90) scale(0.1 -0.1)">
      <defs>
       <path id="DejaVuSans-Oblique-78" d="M 3841 3500 
L 2234 1784 
L 3219 0 
L 2559 0 
L 1819 1388 
L 531 0 
L -166 0 
L 1556 1844 
L 641 3500 
L 1300 3500 
L 1972 2234 
L 3144 3500 
L 3841 3500 
z
" transform="scale(0.015625)"/>
      </defs>
      <use xlink:href="#DejaVuSans-Oblique-78" transform="translate(0 0.78125)"/>
      <use xlink:href="#DejaVuSans-30" transform="translate(59.179688 0.78125)"/>
     </g>
    </g>
   </g>
   <g id="line2d_11">
    <path d="M 88.824119 44.61034 
L 93.232518 45.784482 
L 99.110383 47.07576 
L 104.988248 48.126561 
L 112.335579 49.185835 
L 121.152376 50.180686 
L 131.438639 51.066999 
L 143.194369 51.824397 
L 156.419565 52.449472 
L 172.583693 52.991027 
L 193.15622 53.448991 
L 219.606612 53.805826 
L 256.343267 54.06561 
L 313.652449 54.226795 
L 434.148678 54.295202 
L 822.087756 54.302075 
L 822.087756 54.302075 
" clip-path="url(#pd5dce43b8b)" style="fill: none; stroke-dasharray: 22.4,5.6,3.5,5.6; stroke-dashoffset: 0; stroke: #0000ff; stroke-opacity: 0.8; stroke-width: 3.5"/>
   </g>
   <g id="patch_3">
    <path d="M 52.160938 136.069775 
L 52.160938 39.64 
" style="fill: none; stroke: #000000; stroke-width: 0.8; stroke-linejoin: miter; stroke-linecap: square"/>
   </g>
   <g id="patch_4">
    <path d="M 858.750937 136.069775 
L 858.750937 39.64 
" style="fill: none; stroke: #000000; stroke-width: 0.8; stroke-linejoin: miter; stroke-linecap: square"/>
   </g>
   <g id="patch_5">
    <path d="M 52.160938 136.069775 
L 858.750938 136.069775 
" style="fill: none; stroke: #000000; stroke-width: 0.8; stroke-linejoin: miter; stroke-linecap: square"/>
   </g>
   <g id="patch_6">
    <path d="M 52.160938 39.64 
L 858.750938 39.64 
" style="fill: none; stroke: #000000; stroke-width: 0.8; stroke-linejoin: miter; stroke-linecap: square"/>
   </g>
   <g id="line2d_12">
    <path d="M 88.824119 44.61034 
L 93.232518 44.561768 
L 99.110383 44.795991 
L 106.457714 45.359559 
L 118.213443 46.526036 
L 135.847038 48.521412 
L 153.480632 50.731006 
L 171.114227 53.167764 
L 187.278355 55.632001 
L 200.503551 57.858127 
L 212.259281 60.05598 
L 222.545544 62.21606 
L 231.362341 64.309518 
L 238.709672 66.279101 
L 246.057003 68.509769 
L 251.934868 70.525998 
L 257.812733 72.79182 
L 262.221132 74.684222 
L 266.62953 76.769371 
L 271.037929 79.07786 
L 275.446327 81.647505 
L 279.854726 84.525207 
L 284.263125 87.766581 
L 287.202057 90.157169 
L 290.140989 92.746017 
L 294.549388 97.003365 
L 298.957787 101.652651 
L 307.774584 111.485133 
L 313.652449 117.898601 
L 316.591381 120.811311 
L 319.530314 123.328146 
L 322.469246 125.415918 
L 325.408178 127.140581 
L 328.347111 128.561025 
L 331.286043 129.682679 
L 334.224976 130.507871 
L 337.163908 131.067295 
L 340.10284 131.413885 
L 344.511239 131.65265 
L 350.389104 131.655301 
L 357.736435 131.40223 
L 368.022698 130.821547 
L 381.247894 129.857805 
L 395.942556 128.572165 
L 412.106684 126.927778 
L 428.270813 125.061834 
L 444.434941 122.987629 
L 460.599069 120.704123 
L 475.293731 118.421385 
L 488.518927 116.148185 
L 498.805191 114.183209 
L 507.621988 112.311643 
L 516.438785 110.20974 
L 523.786116 108.229889 
L 529.663981 106.458311 
L 535.541846 104.483513 
L 541.419711 102.264568 
L 547.297575 99.75129 
L 551.705974 97.635686 
L 556.114373 95.286027 
L 560.522771 92.660343 
L 564.93117 89.707041 
L 567.870102 87.527132 
L 570.809035 85.158322 
L 573.747967 82.588116 
L 578.156366 78.353038 
L 582.564764 73.723339 
L 598.728893 56.216652 
L 601.667825 53.586943 
L 604.606757 51.371357 
L 607.54569 49.526903 
L 610.484622 47.986237 
L 613.423555 46.731866 
L 616.362487 45.773576 
L 619.301419 45.097225 
L 622.240352 44.659099 
L 626.64875 44.32879 
L 631.057149 44.252542 
L 636.935014 44.372784 
L 645.751811 44.797142 
L 657.507541 45.595931 
L 672.202203 46.831486 
L 688.366331 48.435781 
L 704.530459 50.268299 
L 720.694588 52.311777 
L 736.858716 54.563429 
L 751.553378 56.811384 
L 764.778574 59.042626 
L 776.534303 61.253824 
L 786.820567 63.435125 
L 795.637364 65.555798 
L 802.984695 67.555859 
L 808.86256 69.347336 
L 814.740425 71.346172 
L 820.618289 73.594233 
L 822.087756 74.20096 
L 822.087756 74.20096 
" clip-path="url(#pd5dce43b8b)" style="fill: none; stroke-dasharray: 3.5,5.775; stroke-dashoffset: 0; stroke: #008000; stroke-opacity: 0.8; stroke-width: 3.5"/>
   </g>
   <g id="line2d_13">
    <path d="M 88.824119 44.61034 
L 93.232518 45.774874 
L 99.110383 47.031629 
L 106.457714 48.326415 
L 116.743977 49.884539 
L 166.705828 57.128861 
L 179.931024 59.402406 
L 190.217287 61.372808 
L 200.503551 63.57935 
L 209.320348 65.717012 
L 216.667679 67.724068 
L 222.545544 69.516292 
L 228.423409 71.51417 
L 234.301274 73.765366 
L 238.709672 75.656209 
L 243.118071 77.755321 
L 247.526469 80.099649 
L 251.934868 82.731932 
L 256.343267 85.698512 
L 260.751665 89.045253 
L 265.160064 92.808869 
L 269.568463 97.001214 
L 273.976861 101.586097 
L 279.854726 108.104894 
L 285.732591 114.605406 
L 288.671523 117.635937 
L 291.610456 120.410033 
L 294.549388 122.867249 
L 297.48832 124.973544 
L 300.427253 126.722068 
L 303.366185 128.129227 
L 306.305118 129.227157 
L 309.24405 130.056374 
L 312.182982 130.65941 
L 315.121915 131.076685 
L 319.530314 131.431599 
L 323.938712 131.546719 
L 329.816577 131.449538 
L 337.163908 131.078156 
L 347.450171 130.304993 
L 362.144833 128.952479 
L 381.247894 126.968914 
L 401.820421 124.610295 
L 419.454015 122.380652 
L 435.618144 120.120369 
L 448.84334 118.070011 
L 460.599069 116.048957 
L 470.885333 114.082073 
L 479.70213 112.20672 
L 488.518927 110.106808 
L 495.866258 108.138098 
L 503.213589 105.914797 
L 509.091454 103.905429 
L 514.969319 101.639279 
L 519.377717 99.734433 
L 523.786116 97.618813 
L 528.194515 95.25462 
L 532.602913 92.599038 
L 537.011312 89.605614 
L 541.419711 86.228803 
L 545.828109 82.433306 
L 550.236508 78.21012 
L 554.644906 73.600433 
L 561.992237 65.419963 
L 566.400636 60.594603 
L 569.339568 57.592164 
L 572.278501 54.853848 
L 575.217433 52.437301 
L 578.156366 50.37447 
L 581.095298 48.667409 
L 584.03423 47.298648 
L 586.973163 46.234469 
L 589.912095 45.433901 
L 592.851028 44.854514 
L 595.78996 44.456402 
L 600.198359 44.123175 
L 604.606757 44.023172 
L 610.484622 44.133557 
L 617.831953 44.514564 
L 628.118217 45.294721 
L 642.812879 46.652141 
L 661.915939 48.6399 
L 682.488466 51.003218 
L 700.122061 53.23795 
L 716.286189 55.504337 
L 729.511385 57.561251 
L 741.267114 59.58986 
L 751.553378 61.565319 
L 760.370175 63.450046 
L 769.186972 65.561983 
L 776.534303 67.543513 
L 783.881634 69.783128 
L 789.759499 71.808921 
L 795.637364 74.095426 
L 800.045763 76.018576 
L 804.454161 78.155953 
L 808.86256 80.545693 
L 813.270958 83.23106 
L 817.679357 86.258721 
L 822.087756 89.673706 
L 822.087756 89.673706 
" clip-path="url(#pd5dce43b8b)" style="fill: none; stroke-dasharray: 12.95,5.6; stroke-dashoffset: 0; stroke: #ff0000; stroke-opacity: 0.8; stroke-width: 3.5"/>
   </g>
  </g>
  <g id="axes_2">
   <g id="patch_7">
    <path d="M 52.160938 248.24 
L 858.750937 248.24 
L 858.750937 151.810225 
L 52.160938 151.810225 
z
" style="fill: #ffffff"/>
   </g>
   <g id="line2d_14">
    <path d="M 88.824119 211.105916 
L 91.763052 209.534257 
L 94.701984 208.364095 
L 97.640917 207.484465 
L 100.579849 206.825067 
L 104.988248 206.122436 
L 109.396646 205.650605 
L 115.274511 205.271669 
L 122.621842 205.046536 
L 131.438639 204.99786 
L 143.194369 205.152573 
L 157.889031 205.579161 
L 172.583693 206.233607 
L 184.339423 206.958526 
L 194.625686 207.795874 
L 203.442483 208.732425 
L 210.789814 209.713459 
L 218.137145 210.93821 
L 224.01501 212.156569 
L 228.423409 213.251415 
L 232.831807 214.537953 
L 237.240206 216.054115 
L 241.648605 217.842547 
L 246.057003 219.95042 
L 248.995936 221.55649 
L 251.934868 223.343119 
L 254.8738 225.31871 
L 259.282199 228.623246 
L 263.690598 232.270292 
L 271.037929 238.486353 
L 273.976861 240.616943 
L 275.446327 241.508774 
L 276.915794 242.245039 
L 278.38526 242.792663 
L 279.854726 243.116233 
L 281.324192 243.185162 
L 282.793658 242.980853 
L 284.263125 242.492185 
L 285.732591 241.715106 
L 287.202057 240.652635 
L 288.671523 239.314858 
L 290.140989 237.718931 
L 291.610456 235.88908 
L 294.549388 231.659856 
L 304.835651 215.641888 
L 307.774584 211.803642 
L 310.713516 208.587025 
L 313.652449 205.955839 
L 316.591381 203.823451 
L 319.530314 202.124382 
L 322.469246 200.787025 
L 325.408178 199.738762 
L 328.347111 198.92028 
L 332.755509 198.015899 
L 337.163908 197.387695 
L 343.041773 196.827647 
L 350.389104 196.39176 
L 360.675367 196.022372 
L 382.71736 195.524039 
L 416.515083 194.71938 
L 437.08761 194.008883 
L 453.251738 193.22802 
L 465.007468 192.457565 
L 475.293731 191.580893 
L 484.110529 190.616632 
L 491.45786 189.602147 
L 497.335724 188.611074 
L 503.213589 187.408958 
L 507.621988 186.330942 
L 512.030386 185.065782 
L 516.438785 183.575828 
L 520.847184 181.818524 
L 525.255582 179.748542 
L 528.194515 178.170678 
L 531.133447 176.411047 
L 534.072379 174.461234 
L 538.480778 171.19326 
L 542.889177 167.58003 
L 550.236508 161.313515 
L 553.17544 159.143939 
L 554.644906 158.226646 
L 556.114373 157.455576 
L 557.583839 156.857812 
L 559.053305 156.461369 
L 560.522771 156.295187 
L 561.992237 156.389138 
L 563.461704 156.774025 
L 564.93117 157.488524 
L 566.400636 158.526038 
L 567.870102 159.847123 
L 569.339568 161.413377 
L 572.278501 165.133096 
L 575.217433 169.39925 
L 584.03423 182.872222 
L 586.973163 186.788886 
L 589.912095 190.140352 
L 592.851028 192.926307 
L 595.78996 195.182319 
L 598.728893 196.978773 
L 601.667825 198.397567 
L 604.606757 199.508489 
L 607.54569 200.374637 
L 610.484622 201.050486 
L 614.893021 201.79656 
L 619.301419 202.316819 
L 625.179284 202.78452 
L 633.996081 203.213988 
L 647.221277 203.59151 
L 708.938858 205.100474 
L 726.572452 205.826331 
L 741.267114 206.659367 
L 753.022844 207.554795 
L 761.839641 208.431455 
L 769.186972 209.350693 
L 776.534303 210.48941 
L 782.412168 211.588647 
L 786.820567 212.582238 
L 791.228965 213.767761 
L 795.637364 215.184081 
L 800.045763 216.866949 
L 804.454161 218.849 
L 808.86256 221.159752 
L 813.270958 223.825609 
L 817.679357 226.869858 
L 822.087756 230.312672 
L 822.087756 230.312672 
" clip-path="url(#p807d99f8d1)" style="fill: none; stroke: #000000; stroke-opacity: 0.4; stroke-width: 6; stroke-linecap: square"/>
   </g>
   <g id="matplotlib.axis_3">
    <g id="xtick_7">
     <g id="line2d_15">
      <g>
       <use xlink:href="#m3ba6a56b02" x="88.824119" y="248.24" style="stroke: #000000; stroke-width: 0.8"/>
      </g>
     </g>
     <g id="text_5">
      <!-- 0 -->
      <g transform="translate(85.642869 262.838437) scale(0.1 -0.1)">
       <use xlink:href="#DejaVuSans-30"/>
      </g>
     </g>
    </g>
    <g id="xtick_8">
     <g id="line2d_16">
      <g>
       <use xlink:href="#m3ba6a56b02" x="235.476847" y="248.24" style="stroke: #000000; stroke-width: 0.8"/>
      </g>
     </g>
     <g id="text_6">
      <!-- 2 -->
      <g transform="translate(232.295597 262.838437) scale(0.1 -0.1)">
       <use xlink:href="#DejaVuSans-32"/>
      </g>
     </g>
    </g>
    <g id="xtick_9">
     <g id="line2d_17">
      <g>
       <use xlink:href="#m3ba6a56b02" x="382.129574" y="248.24" style="stroke: #000000; stroke-width: 0.8"/>
      </g>
     </g>
     <g id="text_7">
      <!-- 4 -->
      <g transform="translate(378.948324 262.838437) scale(0.1 -0.1)">
       <defs>
        <path id="DejaVuSans-34" d="M 2419 4116 
L 825 1625 
L 2419 1625 
L 2419 4116 
z
M 2253 4666 
L 3047 4666 
L 3047 1625 
L 3713 1625 
L 3713 1100 
L 3047 1100 
L 3047 0 
L 2419 0 
L 2419 1100 
L 313 1100 
L 313 1709 
L 2253 4666 
z
" transform="scale(0.015625)"/>
       </defs>
       <use xlink:href="#DejaVuSans-34"/>
      </g>
     </g>
    </g>
    <g id="xtick_10">
     <g id="line2d_18">
      <g>
       <use xlink:href="#m3ba6a56b02" x="528.782301" y="248.24" style="stroke: #000000; stroke-width: 0.8"/>
      </g>
     </g>
     <g id="text_8">
      <!-- 6 -->
      <g transform="translate(525.601051 262.838437) scale(0.1 -0.1)">
       <defs>
        <path id="DejaVuSans-36" d="M 2113 2584 
Q 1688 2584 1439 2293 
Q 1191 2003 1191 1497 
Q 1191 994 1439 701 
Q 1688 409 2113 409 
Q 2538 409 2786 701 
Q 3034 994 3034 1497 
Q 3034 2003 2786 2293 
Q 2538 2584 2113 2584 
z
M 3366 4563 
L 3366 3988 
Q 3128 4100 2886 4159 
Q 2644 4219 2406 4219 
Q 1781 4219 1451 3797 
Q 1122 3375 1075 2522 
Q 1259 2794 1537 2939 
Q 1816 3084 2150 3084 
Q 2853 3084 3261 2657 
Q 3669 2231 3669 1497 
Q 3669 778 3244 343 
Q 2819 -91 2113 -91 
Q 1303 -91 875 529 
Q 447 1150 447 2328 
Q 447 3434 972 4092 
Q 1497 4750 2381 4750 
Q 2619 4750 2861 4703 
Q 3103 4656 3366 4563 
z
" transform="scale(0.015625)"/>
       </defs>
       <use xlink:href="#DejaVuSans-36"/>
      </g>
     </g>
    </g>
    <g id="xtick_11">
     <g id="line2d_19">
      <g>
       <use xlink:href="#m3ba6a56b02" x="675.435028" y="248.24" style="stroke: #000000; stroke-width: 0.8"/>
      </g>
     </g>
     <g id="text_9">
      <!-- 8 -->
      <g transform="translate(672.253778 262.838437) scale(0.1 -0.1)">
       <defs>
        <path id="DejaVuSans-38" d="M 2034 2216 
Q 1584 2216 1326 1975 
Q 1069 1734 1069 1313 
Q 1069 891 1326 650 
Q 1584 409 2034 409 
Q 2484 409 2743 651 
Q 3003 894 3003 1313 
Q 3003 1734 2745 1975 
Q 2488 2216 2034 2216 
z
M 1403 2484 
Q 997 2584 770 2862 
Q 544 3141 544 3541 
Q 544 4100 942 4425 
Q 1341 4750 2034 4750 
Q 2731 4750 3128 4425 
Q 3525 4100 3525 3541 
Q 3525 3141 3298 2862 
Q 3072 2584 2669 2484 
Q 3125 2378 3379 2068 
Q 3634 1759 3634 1313 
Q 3634 634 3220 271 
Q 2806 -91 2034 -91 
Q 1263 -91 848 271 
Q 434 634 434 1313 
Q 434 1759 690 2068 
Q 947 2378 1403 2484 
z
M 1172 3481 
Q 1172 3119 1398 2916 
Q 1625 2713 2034 2713 
Q 2441 2713 2670 2916 
Q 2900 3119 2900 3481 
Q 2900 3844 2670 4047 
Q 2441 4250 2034 4250 
Q 1625 4250 1398 4047 
Q 1172 3844 1172 3481 
z
" transform="scale(0.015625)"/>
       </defs>
       <use xlink:href="#DejaVuSans-38"/>
      </g>
     </g>
    </g>
    <g id="xtick_12">
     <g id="line2d_20">
      <g>
       <use xlink:href="#m3ba6a56b02" x="822.087756" y="248.24" style="stroke: #000000; stroke-width: 0.8"/>
      </g>
     </g>
     <g id="text_10">
      <!-- 10 -->
      <g transform="translate(815.725256 262.838437) scale(0.1 -0.1)">
       <defs>
        <path id="DejaVuSans-31" d="M 794 531 
L 1825 531 
L 1825 4091 
L 703 3866 
L 703 4441 
L 1819 4666 
L 2450 4666 
L 2450 531 
L 3481 531 
L 3481 0 
L 794 0 
L 794 531 
z
" transform="scale(0.015625)"/>
       </defs>
       <use xlink:href="#DejaVuSans-31"/>
       <use xlink:href="#DejaVuSans-30" transform="translate(63.623047 0)"/>
      </g>
     </g>
    </g>
    <g id="text_11">
     <!-- Time -->
     <g transform="translate(443.222344 276.516562) scale(0.1 -0.1)">
      <defs>
       <path id="DejaVuSans-54" d="M -19 4666 
L 3928 4666 
L 3928 4134 
L 2272 4134 
L 2272 0 
L 1638 0 
L 1638 4134 
L -19 4134 
L -19 4666 
z
" transform="scale(0.015625)"/>
       <path id="DejaVuSans-69" d="M 603 3500 
L 1178 3500 
L 1178 0 
L 603 0 
L 603 3500 
z
M 603 4863 
L 1178 4863 
L 1178 4134 
L 603 4134 
L 603 4863 
z
" transform="scale(0.015625)"/>
       <path id="DejaVuSans-6d" d="M 3328 2828 
Q 3544 3216 3844 3400 
Q 4144 3584 4550 3584 
Q 5097 3584 5394 3201 
Q 5691 2819 5691 2113 
L 5691 0 
L 5113 0 
L 5113 2094 
Q 5113 2597 4934 2840 
Q 4756 3084 4391 3084 
Q 3944 3084 3684 2787 
Q 3425 2491 3425 1978 
L 3425 0 
L 2847 0 
L 2847 2094 
Q 2847 2600 2669 2842 
Q 2491 3084 2119 3084 
Q 1678 3084 1418 2786 
Q 1159 2488 1159 1978 
L 1159 0 
L 581 0 
L 581 3500 
L 1159 3500 
L 1159 2956 
Q 1356 3278 1631 3431 
Q 1906 3584 2284 3584 
Q 2666 3584 2933 3390 
Q 3200 3197 3328 2828 
z
" transform="scale(0.015625)"/>
       <path id="DejaVuSans-65" d="M 3597 1894 
L 3597 1613 
L 953 1613 
Q 991 1019 1311 708 
Q 1631 397 2203 397 
Q 2534 397 2845 478 
Q 3156 559 3463 722 
L 3463 178 
Q 3153 47 2828 -22 
Q 2503 -91 2169 -91 
Q 1331 -91 842 396 
Q 353 884 353 1716 
Q 353 2575 817 3079 
Q 1281 3584 2069 3584 
Q 2775 3584 3186 3129 
Q 3597 2675 3597 1894 
z
M 3022 2063 
Q 3016 2534 2758 2815 
Q 2500 3097 2075 3097 
Q 1594 3097 1305 2825 
Q 1016 2553 972 2059 
L 3022 2063 
z
" transform="scale(0.015625)"/>
      </defs>
      <use xlink:href="#DejaVuSans-54"/>
      <use xlink:href="#DejaVuSans-69" transform="translate(57.958984 0)"/>
      <use xlink:href="#DejaVuSans-6d" transform="translate(85.742188 0)"/>
      <use xlink:href="#DejaVuSans-65" transform="translate(183.154297 0)"/>
     </g>
    </g>
   </g>
   <g id="matplotlib.axis_4">
    <g id="ytick_4">
     <g id="line2d_21">
      <g>
       <use xlink:href="#m5d31aadfab" x="52.160938" y="228.17153" style="stroke: #000000; stroke-width: 0.8"/>
      </g>
     </g>
     <g id="text_12">
      <!-- −2.5 -->
      <g transform="translate(20.878125 231.970748) scale(0.1 -0.1)">
       <defs>
        <path id="DejaVuSans-2e" d="M 684 794 
L 1344 794 
L 1344 0 
L 684 0 
L 684 794 
z
" transform="scale(0.015625)"/>
        <path id="DejaVuSans-35" d="M 691 4666 
L 3169 4666 
L 3169 4134 
L 1269 4134 
L 1269 2991 
Q 1406 3038 1543 3061 
Q 1681 3084 1819 3084 
Q 2600 3084 3056 2656 
Q 3513 2228 3513 1497 
Q 3513 744 3044 326 
Q 2575 -91 1722 -91 
Q 1428 -91 1123 -41 
Q 819 9 494 109 
L 494 744 
Q 775 591 1075 516 
Q 1375 441 1709 441 
Q 2250 441 2565 725 
Q 2881 1009 2881 1497 
Q 2881 1984 2565 2268 
Q 2250 2553 1709 2553 
Q 1456 2553 1204 2497 
Q 953 2441 691 2322 
L 691 4666 
z
" transform="scale(0.015625)"/>
       </defs>
       <use xlink:href="#DejaVuSans-2212"/>
       <use xlink:href="#DejaVuSans-32" transform="translate(83.789062 0)"/>
       <use xlink:href="#DejaVuSans-2e" transform="translate(147.412109 0)"/>
       <use xlink:href="#DejaVuSans-35" transform="translate(179.199219 0)"/>
      </g>
     </g>
    </g>
    <g id="ytick_5">
     <g id="line2d_22">
      <g>
       <use xlink:href="#m5d31aadfab" x="52.160938" y="199.728841" style="stroke: #000000; stroke-width: 0.8"/>
      </g>
     </g>
     <g id="text_13">
      <!-- 0.0 -->
      <g transform="translate(29.257812 203.52806) scale(0.1 -0.1)">
       <use xlink:href="#DejaVuSans-30"/>
       <use xlink:href="#DejaVuSans-2e" transform="translate(63.623047 0)"/>
       <use xlink:href="#DejaVuSans-30" transform="translate(95.410156 0)"/>
      </g>
     </g>
    </g>
    <g id="ytick_6">
     <g id="line2d_23">
      <g>
       <use xlink:href="#m5d31aadfab" x="52.160938" y="171.286152" style="stroke: #000000; stroke-width: 0.8"/>
      </g>
     </g>
     <g id="text_14">
      <!-- 2.5 -->
      <g transform="translate(29.257812 175.085371) scale(0.1 -0.1)">
       <use xlink:href="#DejaVuSans-32"/>
       <use xlink:href="#DejaVuSans-2e" transform="translate(63.623047 0)"/>
       <use xlink:href="#DejaVuSans-35" transform="translate(95.410156 0)"/>
      </g>
     </g>
    </g>
    <g id="text_15">
     <!-- $x1$ -->
     <g transform="translate(14.798438 206.175112) rotate(-90) scale(0.1 -0.1)">
      <use xlink:href="#DejaVuSans-Oblique-78" transform="translate(0 0.09375)"/>
      <use xlink:href="#DejaVuSans-31" transform="translate(59.179688 0.09375)"/>
     </g>
    </g>
   </g>
   <g id="line2d_24">
    <path d="M 88.824119 211.105916 
L 91.763052 209.827906 
L 94.701984 208.74316 
L 99.110383 207.399117 
L 103.518781 206.315652 
L 109.396646 205.169188 
L 115.274511 204.272558 
L 122.621842 203.402702 
L 131.438639 202.617971 
L 141.724903 201.94618 
L 154.950099 201.336154 
L 171.114227 200.835735 
L 191.686754 200.432485 
L 219.606612 200.118603 
L 260.751665 199.89654 
L 331.286043 199.769578 
L 519.377717 199.729813 
L 822.087756 199.728843 
L 822.087756 199.728843 
" clip-path="url(#p807d99f8d1)" style="fill: none; stroke-dasharray: 22.4,5.6,3.5,5.6; stroke-dashoffset: 0; stroke: #0000ff; stroke-opacity: 0.8; stroke-width: 3.5"/>
   </g>
   <g id="patch_8">
    <path d="M 52.160938 248.24 
L 52.160938 151.810225 
" style="fill: none; stroke: #000000; stroke-width: 0.8; stroke-linejoin: miter; stroke-linecap: square"/>
   </g>
   <g id="patch_9">
    <path d="M 858.750937 248.24 
L 858.750937 151.810225 
" style="fill: none; stroke: #000000; stroke-width: 0.8; stroke-linejoin: miter; stroke-linecap: square"/>
   </g>
   <g id="patch_10">
    <path d="M 52.160938 248.24 
L 858.750938 248.24 
" style="fill: none; stroke: #000000; stroke-width: 0.8; stroke-linejoin: miter; stroke-linecap: square"/>
   </g>
   <g id="patch_11">
    <path d="M 52.160938 151.810225 
L 858.750938 151.810225 
" style="fill: none; stroke: #000000; stroke-width: 0.8; stroke-linejoin: miter; stroke-linecap: square"/>
   </g>
   <g id="line2d_25">
    <path d="M 88.824119 211.105916 
L 93.232518 209.596314 
L 97.640917 208.321875 
L 102.049315 207.304987 
L 106.457714 206.52424 
L 110.866112 205.941627 
L 116.743977 205.404786 
L 124.091308 205.008659 
L 132.908105 204.792211 
L 144.663835 204.75993 
L 159.358497 204.954215 
L 176.992092 205.423004 
L 191.686754 206.018326 
L 204.91195 206.776102 
L 215.198213 207.578695 
L 224.01501 208.478111 
L 231.362341 209.428523 
L 238.709672 210.618041 
L 244.587537 211.788576 
L 250.465402 213.204747 
L 254.8738 214.465487 
L 259.282199 215.933696 
L 263.690598 217.652095 
L 268.098996 219.670587 
L 271.037929 221.209937 
L 273.976861 222.921482 
L 276.915794 224.81596 
L 279.854726 226.899626 
L 284.263125 230.355072 
L 290.140989 235.396316 
L 294.549388 239.136151 
L 297.48832 241.30832 
L 298.957787 242.209509 
L 300.427253 242.943846 
L 301.896719 243.480941 
L 303.366185 243.790475 
L 304.835651 243.856828 
L 306.305118 243.665903 
L 307.774584 243.207224 
L 309.24405 242.475464 
L 310.713516 241.470791 
L 312.182982 240.194745 
L 313.652449 238.650517 
L 315.121915 236.858583 
L 318.060847 232.653347 
L 322.469246 225.482841 
L 326.877645 218.408442 
L 329.816577 214.207765 
L 332.755509 210.595201 
L 335.694442 207.601979 
L 338.633374 205.183908 
L 341.572307 203.258682 
L 344.511239 201.736128 
L 347.450171 200.5351 
L 350.389104 199.586736 
L 353.328036 198.835997 
L 357.736435 197.987938 
L 362.144833 197.380216 
L 368.022698 196.818463 
L 375.370029 196.363107 
L 385.656293 195.969237 
L 404.759353 195.518572 
L 445.904407 194.582001 
L 466.476934 193.876125 
L 481.171596 193.16742 
L 492.927326 192.400623 
L 503.213589 191.51136 
L 512.030386 190.519207 
L 519.377717 189.472515 
L 525.255582 188.448169 
L 531.133447 187.2127 
L 537.011312 185.710045 
L 541.419711 184.363171 
L 545.828109 182.782505 
L 550.236508 180.918458 
L 554.644906 178.715051 
L 557.583839 177.031555 
L 560.522771 175.160707 
L 563.461704 173.099705 
L 567.870102 169.672234 
L 573.747967 164.670127 
L 578.156366 160.970995 
L 581.095298 158.829572 
L 582.564764 157.942591 
L 584.03423 157.221705 
L 585.503697 156.6982 
L 586.973163 156.395855 
L 588.442629 156.336666 
L 589.912095 156.537284 
L 591.381561 157.004573 
L 592.851028 157.743287 
L 594.320494 158.757297 
L 595.78996 160.043203 
L 597.259426 161.588557 
L 598.728893 163.376841 
L 601.667825 167.549398 
L 606.076224 174.611258 
L 610.484622 181.552549 
L 613.423555 185.670431 
L 616.362487 189.21056 
L 619.301419 192.142135 
L 622.240352 194.508441 
L 625.179284 196.390569 
L 628.118217 197.877591 
L 631.057149 199.049828 
L 633.996081 199.975252 
L 636.935014 200.70809 
L 641.343412 201.537069 
L 645.751811 202.132918 
L 651.629676 202.686795 
L 658.977007 203.140539 
L 669.26327 203.540444 
L 688.366331 204.012733 
L 728.041919 204.978297 
L 747.144979 205.670087 
L 761.839641 206.413147 
L 773.595371 207.22136 
L 783.881634 208.162724 
L 792.698432 209.216564 
L 800.045763 210.33155 
L 805.923627 211.4257 
L 811.801492 212.749181 
L 816.209891 213.929053 
L 820.618289 215.307182 
L 822.087756 215.817691 
L 822.087756 215.817691 
" clip-path="url(#p807d99f8d1)" style="fill: none; stroke-dasharray: 3.5,5.775; stroke-dashoffset: 0; stroke: #008000; stroke-opacity: 0.8; stroke-width: 3.5"/>
   </g>
   <g id="line2d_26">
    <path d="M 88.824119 211.105916 
L 91.763052 209.572739 
L 94.701984 208.427191 
L 97.640917 207.562519 
L 100.579849 206.905274 
L 104.988248 206.200054 
L 109.396646 205.731288 
L 115.274511 205.349923 
L 122.621842 205.122761 
L 131.438639 205.071597 
L 143.194369 205.227239 
L 157.889031 205.660441 
L 172.583693 206.332299 
L 184.339423 207.080439 
L 194.625686 207.948378 
L 203.442483 208.914581 
L 210.789814 209.935715 
L 216.667679 210.940586 
L 222.545544 212.162012 
L 226.953943 213.255916 
L 231.362341 214.537145 
L 235.77074 216.043851 
L 240.179138 217.81996 
L 244.587537 219.914293 
L 247.526469 221.511595 
L 250.465402 223.28386 
L 253.404334 225.241337 
L 257.812733 228.517172 
L 262.221132 232.1418 
L 269.568463 238.362457 
L 272.507395 240.531376 
L 273.976861 241.449369 
L 275.446327 242.216232 
L 276.915794 242.79976 
L 278.38526 243.169643 
L 279.854726 243.298348 
L 281.324192 243.15827 
L 282.793658 242.731482 
L 284.263125 242.011311 
L 285.732591 240.993692 
L 287.202057 239.686984 
L 288.671523 238.11322 
L 290.140989 236.299786 
L 293.079922 232.110745 
L 297.48832 225.100244 
L 301.896719 218.243542 
L 304.835651 214.166576 
L 307.774584 210.626232 
L 310.713516 207.648958 
L 313.652449 205.205272 
L 316.591381 203.235467 
L 319.530314 201.668031 
L 322.469246 200.431504 
L 325.408178 199.461047 
L 328.347111 198.701117 
L 332.755509 197.85811 
L 337.163908 197.269337 
L 343.041773 196.740868 
L 350.389104 196.324739 
L 362.144833 195.928777 
L 388.595225 195.356461 
L 417.984549 194.631604 
L 437.08761 193.95888 
L 453.251738 193.167908 
L 465.007468 192.391773 
L 475.293731 191.504283 
L 484.110529 190.521854 
L 491.45786 189.485827 
L 497.335724 188.467094 
L 503.213589 187.229338 
L 507.621988 186.120847 
L 512.030386 184.822379 
L 516.438785 183.295689 
L 520.847184 181.495984 
L 525.255582 179.374578 
L 528.194515 177.757413 
L 531.133447 175.963526 
L 534.072379 173.985848 
L 538.480778 170.680145 
L 542.889177 167.036101 
L 550.236508 160.842246 
L 553.17544 158.72042 
L 554.644906 157.836067 
L 556.114373 157.110459 
L 557.583839 156.574509 
L 559.053305 156.260252 
L 560.522771 156.193397 
L 561.992237 156.397443 
L 563.461704 156.892839 
L 564.93117 157.68317 
L 566.400636 158.767577 
L 567.870102 160.138661 
L 569.339568 161.770644 
L 570.809035 163.632291 
L 573.747967 167.889122 
L 582.564764 181.720164 
L 585.503697 185.735644 
L 588.442629 189.208575 
L 591.381561 192.120144 
L 594.320494 194.504312 
L 597.259426 196.423042 
L 600.198359 197.948136 
L 603.137291 199.150538 
L 606.076224 200.09391 
L 609.015156 200.832664 
L 613.423555 201.65251 
L 617.831953 202.225639 
L 623.709818 202.741075 
L 631.057149 203.148415 
L 642.812879 203.538571 
L 670.732737 204.140857 
L 698.652594 204.838497 
L 717.755655 205.516091 
L 732.450317 206.2297 
L 745.675513 207.097431 
L 755.961776 207.994445 
L 764.778574 208.988487 
L 772.125905 210.037708 
L 778.00377 211.07014 
L 783.881634 212.325523 
L 788.290033 213.450517 
L 792.698432 214.768625 
L 797.10683 216.319094 
L 801.515229 218.1469 
L 805.923627 220.301312 
L 808.86256 221.942307 
L 811.801492 223.762355 
L 814.740425 225.766138 
L 819.148823 229.10814 
L 822.087756 231.527154 
L 822.087756 231.527154 
" clip-path="url(#p807d99f8d1)" style="fill: none; stroke-dasharray: 12.95,5.6; stroke-dashoffset: 0; stroke: #ff0000; stroke-opacity: 0.8; stroke-width: 3.5"/>
   </g>
  </g>
  <g id="text_16">
   <!-- State Variable Simulation Comparison -->
   <g transform="translate(285.843437 20.1175) scale(0.16 -0.16)">
    <defs>
     <path id="DejaVuSans-53" d="M 3425 4513 
L 3425 3897 
Q 3066 4069 2747 4153 
Q 2428 4238 2131 4238 
Q 1616 4238 1336 4038 
Q 1056 3838 1056 3469 
Q 1056 3159 1242 3001 
Q 1428 2844 1947 2747 
L 2328 2669 
Q 3034 2534 3370 2195 
Q 3706 1856 3706 1288 
Q 3706 609 3251 259 
Q 2797 -91 1919 -91 
Q 1588 -91 1214 -16 
Q 841 59 441 206 
L 441 856 
Q 825 641 1194 531 
Q 1563 422 1919 422 
Q 2459 422 2753 634 
Q 3047 847 3047 1241 
Q 3047 1584 2836 1778 
Q 2625 1972 2144 2069 
L 1759 2144 
Q 1053 2284 737 2584 
Q 422 2884 422 3419 
Q 422 4038 858 4394 
Q 1294 4750 2059 4750 
Q 2388 4750 2728 4690 
Q 3069 4631 3425 4513 
z
" transform="scale(0.015625)"/>
     <path id="DejaVuSans-74" d="M 1172 4494 
L 1172 3500 
L 2356 3500 
L 2356 3053 
L 1172 3053 
L 1172 1153 
Q 1172 725 1289 603 
Q 1406 481 1766 481 
L 2356 481 
L 2356 0 
L 1766 0 
Q 1100 0 847 248 
Q 594 497 594 1153 
L 594 3053 
L 172 3053 
L 172 3500 
L 594 3500 
L 594 4494 
L 1172 4494 
z
" transform="scale(0.015625)"/>
     <path id="DejaVuSans-61" d="M 2194 1759 
Q 1497 1759 1228 1600 
Q 959 1441 959 1056 
Q 959 750 1161 570 
Q 1363 391 1709 391 
Q 2188 391 2477 730 
Q 2766 1069 2766 1631 
L 2766 1759 
L 2194 1759 
z
M 3341 1997 
L 3341 0 
L 2766 0 
L 2766 531 
Q 2569 213 2275 61 
Q 1981 -91 1556 -91 
Q 1019 -91 701 211 
Q 384 513 384 1019 
Q 384 1609 779 1909 
Q 1175 2209 1959 2209 
L 2766 2209 
L 2766 2266 
Q 2766 2663 2505 2880 
Q 2244 3097 1772 3097 
Q 1472 3097 1187 3025 
Q 903 2953 641 2809 
L 641 3341 
Q 956 3463 1253 3523 
Q 1550 3584 1831 3584 
Q 2591 3584 2966 3190 
Q 3341 2797 3341 1997 
z
" transform="scale(0.015625)"/>
     <path id="DejaVuSans-20" transform="scale(0.015625)"/>
     <path id="DejaVuSans-56" d="M 1831 0 
L 50 4666 
L 709 4666 
L 2188 738 
L 3669 4666 
L 4325 4666 
L 2547 0 
L 1831 0 
z
" transform="scale(0.015625)"/>
     <path id="DejaVuSans-72" d="M 2631 2963 
Q 2534 3019 2420 3045 
Q 2306 3072 2169 3072 
Q 1681 3072 1420 2755 
Q 1159 2438 1159 1844 
L 1159 0 
L 581 0 
L 581 3500 
L 1159 3500 
L 1159 2956 
Q 1341 3275 1631 3429 
Q 1922 3584 2338 3584 
Q 2397 3584 2469 3576 
Q 2541 3569 2628 3553 
L 2631 2963 
z
" transform="scale(0.015625)"/>
     <path id="DejaVuSans-62" d="M 3116 1747 
Q 3116 2381 2855 2742 
Q 2594 3103 2138 3103 
Q 1681 3103 1420 2742 
Q 1159 2381 1159 1747 
Q 1159 1113 1420 752 
Q 1681 391 2138 391 
Q 2594 391 2855 752 
Q 3116 1113 3116 1747 
z
M 1159 2969 
Q 1341 3281 1617 3432 
Q 1894 3584 2278 3584 
Q 2916 3584 3314 3078 
Q 3713 2572 3713 1747 
Q 3713 922 3314 415 
Q 2916 -91 2278 -91 
Q 1894 -91 1617 61 
Q 1341 213 1159 525 
L 1159 0 
L 581 0 
L 581 4863 
L 1159 4863 
L 1159 2969 
z
" transform="scale(0.015625)"/>
     <path id="DejaVuSans-6c" d="M 603 4863 
L 1178 4863 
L 1178 0 
L 603 0 
L 603 4863 
z
" transform="scale(0.015625)"/>
     <path id="DejaVuSans-75" d="M 544 1381 
L 544 3500 
L 1119 3500 
L 1119 1403 
Q 1119 906 1312 657 
Q 1506 409 1894 409 
Q 2359 409 2629 706 
Q 2900 1003 2900 1516 
L 2900 3500 
L 3475 3500 
L 3475 0 
L 2900 0 
L 2900 538 
Q 2691 219 2414 64 
Q 2138 -91 1772 -91 
Q 1169 -91 856 284 
Q 544 659 544 1381 
z
M 1991 3584 
L 1991 3584 
z
" transform="scale(0.015625)"/>
     <path id="DejaVuSans-6f" d="M 1959 3097 
Q 1497 3097 1228 2736 
Q 959 2375 959 1747 
Q 959 1119 1226 758 
Q 1494 397 1959 397 
Q 2419 397 2687 759 
Q 2956 1122 2956 1747 
Q 2956 2369 2687 2733 
Q 2419 3097 1959 3097 
z
M 1959 3584 
Q 2709 3584 3137 3096 
Q 3566 2609 3566 1747 
Q 3566 888 3137 398 
Q 2709 -91 1959 -91 
Q 1206 -91 779 398 
Q 353 888 353 1747 
Q 353 2609 779 3096 
Q 1206 3584 1959 3584 
z
" transform="scale(0.015625)"/>
     <path id="DejaVuSans-6e" d="M 3513 2113 
L 3513 0 
L 2938 0 
L 2938 2094 
Q 2938 2591 2744 2837 
Q 2550 3084 2163 3084 
Q 1697 3084 1428 2787 
Q 1159 2491 1159 1978 
L 1159 0 
L 581 0 
L 581 3500 
L 1159 3500 
L 1159 2956 
Q 1366 3272 1645 3428 
Q 1925 3584 2291 3584 
Q 2894 3584 3203 3211 
Q 3513 2838 3513 2113 
z
" transform="scale(0.015625)"/>
     <path id="DejaVuSans-43" d="M 4122 4306 
L 4122 3641 
Q 3803 3938 3442 4084 
Q 3081 4231 2675 4231 
Q 1875 4231 1450 3742 
Q 1025 3253 1025 2328 
Q 1025 1406 1450 917 
Q 1875 428 2675 428 
Q 3081 428 3442 575 
Q 3803 722 4122 1019 
L 4122 359 
Q 3791 134 3420 21 
Q 3050 -91 2638 -91 
Q 1578 -91 968 557 
Q 359 1206 359 2328 
Q 359 3453 968 4101 
Q 1578 4750 2638 4750 
Q 3056 4750 3426 4639 
Q 3797 4528 4122 4306 
z
" transform="scale(0.015625)"/>
     <path id="DejaVuSans-70" d="M 1159 525 
L 1159 -1331 
L 581 -1331 
L 581 3500 
L 1159 3500 
L 1159 2969 
Q 1341 3281 1617 3432 
Q 1894 3584 2278 3584 
Q 2916 3584 3314 3078 
Q 3713 2572 3713 1747 
Q 3713 922 3314 415 
Q 2916 -91 2278 -91 
Q 1894 -91 1617 61 
Q 1341 213 1159 525 
z
M 3116 1747 
Q 3116 2381 2855 2742 
Q 2594 3103 2138 3103 
Q 1681 3103 1420 2742 
Q 1159 2381 1159 1747 
Q 1159 1113 1420 752 
Q 1681 391 2138 391 
Q 2594 391 2855 752 
Q 3116 1113 3116 1747 
z
" transform="scale(0.015625)"/>
     <path id="DejaVuSans-73" d="M 2834 3397 
L 2834 2853 
Q 2591 2978 2328 3040 
Q 2066 3103 1784 3103 
Q 1356 3103 1142 2972 
Q 928 2841 928 2578 
Q 928 2378 1081 2264 
Q 1234 2150 1697 2047 
L 1894 2003 
Q 2506 1872 2764 1633 
Q 3022 1394 3022 966 
Q 3022 478 2636 193 
Q 2250 -91 1575 -91 
Q 1294 -91 989 -36 
Q 684 19 347 128 
L 347 722 
Q 666 556 975 473 
Q 1284 391 1588 391 
Q 1994 391 2212 530 
Q 2431 669 2431 922 
Q 2431 1156 2273 1281 
Q 2116 1406 1581 1522 
L 1381 1569 
Q 847 1681 609 1914 
Q 372 2147 372 2553 
Q 372 3047 722 3315 
Q 1072 3584 1716 3584 
Q 2034 3584 2315 3537 
Q 2597 3491 2834 3397 
z
" transform="scale(0.015625)"/>
    </defs>
    <use xlink:href="#DejaVuSans-53"/>
    <use xlink:href="#DejaVuSans-74" transform="translate(63.476562 0)"/>
    <use xlink:href="#DejaVuSans-61" transform="translate(102.685547 0)"/>
    <use xlink:href="#DejaVuSans-74" transform="translate(163.964844 0)"/>
    <use xlink:href="#DejaVuSans-65" transform="translate(203.173828 0)"/>
    <use xlink:href="#DejaVuSans-20" transform="translate(264.697266 0)"/>
    <use xlink:href="#DejaVuSans-56" transform="translate(296.484375 0)"/>
    <use xlink:href="#DejaVuSans-61" transform="translate(357.142578 0)"/>
    <use xlink:href="#DejaVuSans-72" transform="translate(418.421875 0)"/>
    <use xlink:href="#DejaVuSans-69" transform="translate(459.535156 0)"/>
    <use xlink:href="#DejaVuSans-61" transform="translate(487.318359 0)"/>
    <use xlink:href="#DejaVuSans-62" transform="translate(548.597656 0)"/>
    <use xlink:href="#DejaVuSans-6c" transform="translate(612.074219 0)"/>
    <use xlink:href="#DejaVuSans-65" transform="translate(639.857422 0)"/>
    <use xlink:href="#DejaVuSans-20" transform="translate(701.380859 0)"/>
    <use xlink:href="#DejaVuSans-53" transform="translate(733.167969 0)"/>
    <use xlink:href="#DejaVuSans-69" transform="translate(796.644531 0)"/>
    <use xlink:href="#DejaVuSans-6d" transform="translate(824.427734 0)"/>
    <use xlink:href="#DejaVuSans-75" transform="translate(921.839844 0)"/>
    <use xlink:href="#DejaVuSans-6c" transform="translate(985.21875 0)"/>
    <use xlink:href="#DejaVuSans-61" transform="translate(1013.001953 0)"/>
    <use xlink:href="#DejaVuSans-74" transform="translate(1074.28125 0)"/>
    <use xlink:href="#DejaVuSans-69" transform="translate(1113.490234 0)"/>
    <use xlink:href="#DejaVuSans-6f" transform="translate(1141.273438 0)"/>
    <use xlink:href="#DejaVuSans-6e" transform="translate(1202.455078 0)"/>
    <use xlink:href="#DejaVuSans-20" transform="translate(1265.833984 0)"/>
    <use xlink:href="#DejaVuSans-43" transform="translate(1297.621094 0)"/>
    <use xlink:href="#DejaVuSans-6f" transform="translate(1367.445312 0)"/>
    <use xlink:href="#DejaVuSans-6d" transform="translate(1428.626953 0)"/>
    <use xlink:href="#DejaVuSans-70" transform="translate(1526.039062 0)"/>
    <use xlink:href="#DejaVuSans-61" transform="translate(1589.515625 0)"/>
    <use xlink:href="#DejaVuSans-72" transform="translate(1650.794922 0)"/>
    <use xlink:href="#DejaVuSans-69" transform="translate(1691.908203 0)"/>
    <use xlink:href="#DejaVuSans-73" transform="translate(1719.691406 0)"/>
    <use xlink:href="#DejaVuSans-6f" transform="translate(1771.791016 0)"/>
    <use xlink:href="#DejaVuSans-6e" transform="translate(1832.972656 0)"/>
   </g>
  </g>
  <g id="legend_1">
   <g id="patch_12">
    <path d="M 753.679062 66.7125 
L 864.750937 66.7125 
Q 866.750937 66.7125 866.750937 64.7125 
L 866.750937 7 
Q 866.750937 5 864.750937 5 
L 753.679062 5 
Q 751.679062 5 751.679062 7 
L 751.679062 64.7125 
Q 751.679062 66.7125 753.679062 66.7125 
z
" style="fill: #ffffff; opacity: 0.5; stroke: #cccccc; stroke-linejoin: miter"/>
   </g>
   <g id="line2d_27">
    <path d="M 755.679062 13.098437 
L 765.679062 13.098437 
L 775.679062 13.098437 
" style="fill: none; stroke: #000000; stroke-opacity: 0.4; stroke-width: 6; stroke-linecap: square"/>
   </g>
   <g id="text_17">
    <!-- True Trajectory -->
    <g transform="translate(783.679062 16.598437) scale(0.1 -0.1)">
     <defs>
      <path id="DejaVuSans-6a" d="M 603 3500 
L 1178 3500 
L 1178 -63 
Q 1178 -731 923 -1031 
Q 669 -1331 103 -1331 
L -116 -1331 
L -116 -844 
L 38 -844 
Q 366 -844 484 -692 
Q 603 -541 603 -63 
L 603 3500 
z
M 603 4863 
L 1178 4863 
L 1178 4134 
L 603 4134 
L 603 4863 
z
" transform="scale(0.015625)"/>
      <path id="DejaVuSans-63" d="M 3122 3366 
L 3122 2828 
Q 2878 2963 2633 3030 
Q 2388 3097 2138 3097 
Q 1578 3097 1268 2742 
Q 959 2388 959 1747 
Q 959 1106 1268 751 
Q 1578 397 2138 397 
Q 2388 397 2633 464 
Q 2878 531 3122 666 
L 3122 134 
Q 2881 22 2623 -34 
Q 2366 -91 2075 -91 
Q 1284 -91 818 406 
Q 353 903 353 1747 
Q 353 2603 823 3093 
Q 1294 3584 2113 3584 
Q 2378 3584 2631 3529 
Q 2884 3475 3122 3366 
z
" transform="scale(0.015625)"/>
      <path id="DejaVuSans-79" d="M 2059 -325 
Q 1816 -950 1584 -1140 
Q 1353 -1331 966 -1331 
L 506 -1331 
L 506 -850 
L 844 -850 
Q 1081 -850 1212 -737 
Q 1344 -625 1503 -206 
L 1606 56 
L 191 3500 
L 800 3500 
L 1894 763 
L 2988 3500 
L 3597 3500 
L 2059 -325 
z
" transform="scale(0.015625)"/>
     </defs>
     <use xlink:href="#DejaVuSans-54"/>
     <use xlink:href="#DejaVuSans-72" transform="translate(46.333984 0)"/>
     <use xlink:href="#DejaVuSans-75" transform="translate(87.447266 0)"/>
     <use xlink:href="#DejaVuSans-65" transform="translate(150.826172 0)"/>
     <use xlink:href="#DejaVuSans-20" transform="translate(212.349609 0)"/>
     <use xlink:href="#DejaVuSans-54" transform="translate(244.136719 0)"/>
     <use xlink:href="#DejaVuSans-72" transform="translate(290.470703 0)"/>
     <use xlink:href="#DejaVuSans-61" transform="translate(331.583984 0)"/>
     <use xlink:href="#DejaVuSans-6a" transform="translate(392.863281 0)"/>
     <use xlink:href="#DejaVuSans-65" transform="translate(420.646484 0)"/>
     <use xlink:href="#DejaVuSans-63" transform="translate(482.169922 0)"/>
     <use xlink:href="#DejaVuSans-74" transform="translate(537.150391 0)"/>
     <use xlink:href="#DejaVuSans-6f" transform="translate(576.359375 0)"/>
     <use xlink:href="#DejaVuSans-72" transform="translate(637.541016 0)"/>
     <use xlink:href="#DejaVuSans-79" transform="translate(678.654297 0)"/>
    </g>
   </g>
   <g id="line2d_28">
    <path d="M 755.679062 27.776562 
L 765.679062 27.776562 
L 775.679062 27.776562 
" style="fill: none; stroke-dasharray: 12.95,5.6; stroke-dashoffset: 0; stroke: #ff0000; stroke-opacity: 0.8; stroke-width: 3.5"/>
   </g>
   <g id="text_18">
    <!-- AutoSINDy -->
    <g transform="translate(783.679062 31.276562) scale(0.1 -0.1)">
     <defs>
      <path id="DejaVuSans-41" d="M 2188 4044 
L 1331 1722 
L 3047 1722 
L 2188 4044 
z
M 1831 4666 
L 2547 4666 
L 4325 0 
L 3669 0 
L 3244 1197 
L 1141 1197 
L 716 0 
L 50 0 
L 1831 4666 
z
" transform="scale(0.015625)"/>
      <path id="DejaVuSans-49" d="M 628 4666 
L 1259 4666 
L 1259 0 
L 628 0 
L 628 4666 
z
" transform="scale(0.015625)"/>
      <path id="DejaVuSans-4e" d="M 628 4666 
L 1478 4666 
L 3547 763 
L 3547 4666 
L 4159 4666 
L 4159 0 
L 3309 0 
L 1241 3903 
L 1241 0 
L 628 0 
L 628 4666 
z
" transform="scale(0.015625)"/>
      <path id="DejaVuSans-44" d="M 1259 4147 
L 1259 519 
L 2022 519 
Q 2988 519 3436 956 
Q 3884 1394 3884 2338 
Q 3884 3275 3436 3711 
Q 2988 4147 2022 4147 
L 1259 4147 
z
M 628 4666 
L 1925 4666 
Q 3281 4666 3915 4102 
Q 4550 3538 4550 2338 
Q 4550 1131 3912 565 
Q 3275 0 1925 0 
L 628 0 
L 628 4666 
z
" transform="scale(0.015625)"/>
     </defs>
     <use xlink:href="#DejaVuSans-41"/>
     <use xlink:href="#DejaVuSans-75" transform="translate(68.408203 0)"/>
     <use xlink:href="#DejaVuSans-74" transform="translate(131.787109 0)"/>
     <use xlink:href="#DejaVuSans-6f" transform="translate(170.996094 0)"/>
     <use xlink:href="#DejaVuSans-53" transform="translate(232.177734 0)"/>
     <use xlink:href="#DejaVuSans-49" transform="translate(295.654297 0)"/>
     <use xlink:href="#DejaVuSans-4e" transform="translate(325.146484 0)"/>
     <use xlink:href="#DejaVuSans-44" transform="translate(399.951172 0)"/>
     <use xlink:href="#DejaVuSans-79" transform="translate(476.953125 0)"/>
    </g>
   </g>
   <g id="line2d_29">
    <path d="M 755.679062 42.454687 
L 765.679062 42.454687 
L 775.679062 42.454687 
" style="fill: none; stroke-dasharray: 3.5,5.775; stroke-dashoffset: 0; stroke: #008000; stroke-opacity: 0.8; stroke-width: 3.5"/>
   </g>
   <g id="text_19">
    <!-- Standard SINDy -->
    <g transform="translate(783.679062 45.954687) scale(0.1 -0.1)">
     <defs>
      <path id="DejaVuSans-64" d="M 2906 2969 
L 2906 4863 
L 3481 4863 
L 3481 0 
L 2906 0 
L 2906 525 
Q 2725 213 2448 61 
Q 2172 -91 1784 -91 
Q 1150 -91 751 415 
Q 353 922 353 1747 
Q 353 2572 751 3078 
Q 1150 3584 1784 3584 
Q 2172 3584 2448 3432 
Q 2725 3281 2906 2969 
z
M 947 1747 
Q 947 1113 1208 752 
Q 1469 391 1925 391 
Q 2381 391 2643 752 
Q 2906 1113 2906 1747 
Q 2906 2381 2643 2742 
Q 2381 3103 1925 3103 
Q 1469 3103 1208 2742 
Q 947 2381 947 1747 
z
" transform="scale(0.015625)"/>
     </defs>
     <use xlink:href="#DejaVuSans-53"/>
     <use xlink:href="#DejaVuSans-74" transform="translate(63.476562 0)"/>
     <use xlink:href="#DejaVuSans-61" transform="translate(102.685547 0)"/>
     <use xlink:href="#DejaVuSans-6e" transform="translate(163.964844 0)"/>
     <use xlink:href="#DejaVuSans-64" transform="translate(227.34375 0)"/>
     <use xlink:href="#DejaVuSans-61" transform="translate(290.820312 0)"/>
     <use xlink:href="#DejaVuSans-72" transform="translate(352.099609 0)"/>
     <use xlink:href="#DejaVuSans-64" transform="translate(391.462891 0)"/>
     <use xlink:href="#DejaVuSans-20" transform="translate(454.939453 0)"/>
     <use xlink:href="#DejaVuSans-53" transform="translate(486.726562 0)"/>
     <use xlink:href="#DejaVuSans-49" transform="translate(550.203125 0)"/>
     <use xlink:href="#DejaVuSans-4e" transform="translate(579.695312 0)"/>
     <use xlink:href="#DejaVuSans-44" transform="translate(654.5 0)"/>
     <use xlink:href="#DejaVuSans-79" transform="translate(731.501953 0)"/>
    </g>
   </g>
   <g id="line2d_30">
    <path d="M 755.679062 57.132812 
L 765.679062 57.132812 
L 775.679062 57.132812 
" style="fill: none; stroke-dasharray: 22.4,5.6,3.5,5.6; stroke-dashoffset: 0; stroke: #0000ff; stroke-opacity: 0.8; stroke-width: 3.5"/>
   </g>
   <g id="text_20">
    <!-- Standard PySR -->
    <g transform="translate(783.679062 60.632812) scale(0.1 -0.1)">
     <defs>
      <path id="DejaVuSans-50" d="M 1259 4147 
L 1259 2394 
L 2053 2394 
Q 2494 2394 2734 2622 
Q 2975 2850 2975 3272 
Q 2975 3691 2734 3919 
Q 2494 4147 2053 4147 
L 1259 4147 
z
M 628 4666 
L 2053 4666 
Q 2838 4666 3239 4311 
Q 3641 3956 3641 3272 
Q 3641 2581 3239 2228 
Q 2838 1875 2053 1875 
L 1259 1875 
L 1259 0 
L 628 0 
L 628 4666 
z
" transform="scale(0.015625)"/>
      <path id="DejaVuSans-52" d="M 2841 2188 
Q 3044 2119 3236 1894 
Q 3428 1669 3622 1275 
L 4263 0 
L 3584 0 
L 2988 1197 
Q 2756 1666 2539 1819 
Q 2322 1972 1947 1972 
L 1259 1972 
L 1259 0 
L 628 0 
L 628 4666 
L 2053 4666 
Q 2853 4666 3247 4331 
Q 3641 3997 3641 3322 
Q 3641 2881 3436 2590 
Q 3231 2300 2841 2188 
z
M 1259 4147 
L 1259 2491 
L 2053 2491 
Q 2509 2491 2742 2702 
Q 2975 2913 2975 3322 
Q 2975 3731 2742 3939 
Q 2509 4147 2053 4147 
L 1259 4147 
z
" transform="scale(0.015625)"/>
     </defs>
     <use xlink:href="#DejaVuSans-53"/>
     <use xlink:href="#DejaVuSans-74" transform="translate(63.476562 0)"/>
     <use xlink:href="#DejaVuSans-61" transform="translate(102.685547 0)"/>
     <use xlink:href="#DejaVuSans-6e" transform="translate(163.964844 0)"/>
     <use xlink:href="#DejaVuSans-64" transform="translate(227.34375 0)"/>
     <use xlink:href="#DejaVuSans-61" transform="translate(290.820312 0)"/>
     <use xlink:href="#DejaVuSans-72" transform="translate(352.099609 0)"/>
     <use xlink:href="#DejaVuSans-64" transform="translate(391.462891 0)"/>
     <use xlink:href="#DejaVuSans-20" transform="translate(454.939453 0)"/>
     <use xlink:href="#DejaVuSans-50" transform="translate(486.726562 0)"/>
     <use xlink:href="#DejaVuSans-79" transform="translate(547.029297 0)"/>
     <use xlink:href="#DejaVuSans-53" transform="translate(606.208984 0)"/>
     <use xlink:href="#DejaVuSans-52" transform="translate(669.685547 0)"/>
    </g>
   </g>
  </g>
 </g>
 <defs>
  <clipPath id="pd5dce43b8b">
   <rect x="52.160938" y="39.64" width="806.59" height="96.429775"/>
  </clipPath>
  <clipPath id="p807d99f8d1">
   <rect x="52.160938" y="151.810225" width="806.59" height="96.429775"/>
  </clipPath>
 </defs>
</svg>
