<?xml version="1.0" encoding="utf-8" standalone="no"?>
<!DOCTYPE svg PUBLIC "-//W3C//DTD SVG 1.1//EN"
  "http://www.w3.org/Graphics/SVG/1.1/DTD/svg11.dtd">
<svg xmlns:xlink="http://www.w3.org/1999/xlink" width="867.526875pt" height="430.650625pt" viewBox="0 0 867.526875 430.650625" xmlns="http://www.w3.org/2000/svg" version="1.1">
 <metadata>
  <rdf:RDF xmlns:dc="http://purl.org/dc/elements/1.1/" xmlns:cc="http://creativecommons.org/ns#" xmlns:rdf="http://www.w3.org/1999/02/22-rdf-syntax-ns#">
   <cc:Work>
    <dc:type rdf:resource="http://purl.org/dc/dcmitype/StillImage"/>
    <dc:date>2026-04-01T23:51:45.968137</dc:date>
    <dc:format>image/svg+xml</dc:format>
    <dc:creator>
     <cc:Agent>
      <dc:title>Matplotlib v3.10.7, https://matplotlib.org/</dc:title>
     </cc:Agent>
    </dc:creator>
   </cc:Work>
  </rdf:RDF>
 </metadata>
 <defs>
  <style type="text/css">*{stroke-linejoin: round; stroke-linecap: butt}</style>
 </defs>
 <g id="figure_1">
  <g id="patch_1">
   <path d="M 0 430.650625 
L 867.526875 430.650625 
L 867.526875 0 
L 0 0 
z
" style="fill: #ffffff"/>
  </g>
  <g id="axes_1">
   <g id="patch_2">
    <path d="M 52.646875 211.2 
L 854.526875 211.2 
L 854.526875 39.04 
L 52.646875 39.04 
z
" style="fill: #ffffff"/>
   </g>
   <g id="matplotlib.axis_1">
    <g id="xtick_1">
     <g id="line2d_1">
      <path d="M 89.095966 211.2 
L 89.095966 39.04 
" clip-path="url(#pc71539c8e7)" style="fill: none; stroke: #cccccc; stroke-width: 0.8; stroke-linecap: round"/>
     </g>
    </g>
    <g id="xtick_2">
     <g id="line2d_2">
      <path d="M 186.293542 211.2 
L 186.293542 39.04 
" clip-path="url(#pc71539c8e7)" style="fill: none; stroke: #cccccc; stroke-width: 0.8; stroke-linecap: round"/>
     </g>
    </g>
    <g id="xtick_3">
     <g id="line2d_3">
      <path d="M 283.491117 211.2 
L 283.491117 39.04 
" clip-path="url(#pc71539c8e7)" style="fill: none; stroke: #cccccc; stroke-width: 0.8; stroke-linecap: round"/>
     </g>
    </g>
    <g id="xtick_4">
     <g id="line2d_4">
      <path d="M 380.688693 211.2 
L 380.688693 39.04 
" clip-path="url(#pc71539c8e7)" style="fill: none; stroke: #cccccc; stroke-width: 0.8; stroke-linecap: round"/>
     </g>
    </g>
    <g id="xtick_5">
     <g id="line2d_5">
      <path d="M 477.886269 211.2 
L 477.886269 39.04 
" clip-path="url(#pc71539c8e7)" style="fill: none; stroke: #cccccc; stroke-width: 0.8; stroke-linecap: round"/>
     </g>
    </g>
    <g id="xtick_6">
     <g id="line2d_6">
      <path d="M 575.083845 211.2 
L 575.083845 39.04 
" clip-path="url(#pc71539c8e7)" style="fill: none; stroke: #cccccc; stroke-width: 0.8; stroke-linecap: round"/>
     </g>
    </g>
    <g id="xtick_7">
     <g id="line2d_7">
      <path d="M 672.28142 211.2 
L 672.28142 39.04 
" clip-path="url(#pc71539c8e7)" style="fill: none; stroke: #cccccc; stroke-width: 0.8; stroke-linecap: round"/>
     </g>
    </g>
    <g id="xtick_8">
     <g id="line2d_8">
      <path d="M 769.478996 211.2 
L 769.478996 39.04 
" clip-path="url(#pc71539c8e7)" style="fill: none; stroke: #cccccc; stroke-width: 0.8; stroke-linecap: round"/>
     </g>
    </g>
   </g>
   <g id="matplotlib.axis_2">
    <g id="ytick_1">
     <g id="line2d_9">
      <path d="M 52.646875 196.282856 
L 854.526875 196.282856 
" clip-path="url(#pc71539c8e7)" style="fill: none; stroke: #cccccc; stroke-width: 0.8; stroke-linecap: round"/>
     </g>
     <g id="text_1">
      <!-- −1.00 -->
      <g style="fill: #262626" transform="translate(20.345313 199.861763) scale(0.1 -0.1)">
       <defs>
        <path id="ArialMT-2212" d="M 3381 1997 
L 356 1997 
L 356 2522 
L 3381 2522 
L 3381 1997 
z
" transform="scale(0.015625)"/>
        <path id="ArialMT-31" d="M 2384 0 
L 1822 0 
L 1822 3584 
Q 1619 3391 1289 3197 
Q 959 3003 697 2906 
L 697 3450 
Q 1169 3672 1522 3987 
Q 1875 4303 2022 4600 
L 2384 4600 
L 2384 0 
z
" transform="scale(0.015625)"/>
        <path id="ArialMT-2e" d="M 581 0 
L 581 641 
L 1222 641 
L 1222 0 
L 581 0 
z
" transform="scale(0.015625)"/>
        <path id="ArialMT-30" d="M 266 2259 
Q 266 3072 433 3567 
Q 600 4063 929 4331 
Q 1259 4600 1759 4600 
Q 2128 4600 2406 4451 
Q 2684 4303 2865 4023 
Q 3047 3744 3150 3342 
Q 3253 2941 3253 2259 
Q 3253 1453 3087 958 
Q 2922 463 2592 192 
Q 2263 -78 1759 -78 
Q 1097 -78 719 397 
Q 266 969 266 2259 
z
M 844 2259 
Q 844 1131 1108 757 
Q 1372 384 1759 384 
Q 2147 384 2411 759 
Q 2675 1134 2675 2259 
Q 2675 3391 2411 3762 
Q 2147 4134 1753 4134 
Q 1366 4134 1134 3806 
Q 844 3388 844 2259 
z
" transform="scale(0.015625)"/>
       </defs>
       <use xlink:href="#ArialMT-2212"/>
       <use xlink:href="#ArialMT-31" transform="translate(58.398438 0)"/>
       <use xlink:href="#ArialMT-2e" transform="translate(114.013672 0)"/>
       <use xlink:href="#ArialMT-30" transform="translate(141.796875 0)"/>
       <use xlink:href="#ArialMT-30" transform="translate(197.412109 0)"/>
      </g>
     </g>
    </g>
    <g id="ytick_2">
     <g id="line2d_10">
      <path d="M 52.646875 174.174765 
L 854.526875 174.174765 
" clip-path="url(#pc71539c8e7)" style="fill: none; stroke: #cccccc; stroke-width: 0.8; stroke-linecap: round"/>
     </g>
     <g id="text_2">
      <!-- −0.75 -->
      <g style="fill: #262626" transform="translate(20.345313 177.753672) scale(0.1 -0.1)">
       <defs>
        <path id="ArialMT-37" d="M 303 3981 
L 303 4522 
L 3269 4522 
L 3269 4084 
Q 2831 3619 2401 2847 
Q 1972 2075 1738 1259 
Q 1569 684 1522 0 
L 944 0 
Q 953 541 1156 1306 
Q 1359 2072 1739 2783 
Q 2119 3494 2547 3981 
L 303 3981 
z
" transform="scale(0.015625)"/>
        <path id="ArialMT-35" d="M 266 1200 
L 856 1250 
Q 922 819 1161 601 
Q 1400 384 1738 384 
Q 2144 384 2425 690 
Q 2706 997 2706 1503 
Q 2706 1984 2436 2262 
Q 2166 2541 1728 2541 
Q 1456 2541 1237 2417 
Q 1019 2294 894 2097 
L 366 2166 
L 809 4519 
L 3088 4519 
L 3088 3981 
L 1259 3981 
L 1013 2750 
Q 1425 3038 1878 3038 
Q 2478 3038 2890 2622 
Q 3303 2206 3303 1553 
Q 3303 931 2941 478 
Q 2500 -78 1738 -78 
Q 1113 -78 717 272 
Q 322 622 266 1200 
z
" transform="scale(0.015625)"/>
       </defs>
       <use xlink:href="#ArialMT-2212"/>
       <use xlink:href="#ArialMT-30" transform="translate(58.398438 0)"/>
       <use xlink:href="#ArialMT-2e" transform="translate(114.013672 0)"/>
       <use xlink:href="#ArialMT-37" transform="translate(141.796875 0)"/>
       <use xlink:href="#ArialMT-35" transform="translate(197.412109 0)"/>
      </g>
     </g>
    </g>
    <g id="ytick_3">
     <g id="line2d_11">
      <path d="M 52.646875 152.066674 
L 854.526875 152.066674 
" clip-path="url(#pc71539c8e7)" style="fill: none; stroke: #cccccc; stroke-width: 0.8; stroke-linecap: round"/>
     </g>
     <g id="text_3">
      <!-- −0.50 -->
      <g style="fill: #262626" transform="translate(20.345313 155.645581) scale(0.1 -0.1)">
       <use xlink:href="#ArialMT-2212"/>
       <use xlink:href="#ArialMT-30" transform="translate(58.398438 0)"/>
       <use xlink:href="#ArialMT-2e" transform="translate(114.013672 0)"/>
       <use xlink:href="#ArialMT-35" transform="translate(141.796875 0)"/>
       <use xlink:href="#ArialMT-30" transform="translate(197.412109 0)"/>
      </g>
     </g>
    </g>
    <g id="ytick_4">
     <g id="line2d_12">
      <path d="M 52.646875 129.958583 
L 854.526875 129.958583 
" clip-path="url(#pc71539c8e7)" style="fill: none; stroke: #cccccc; stroke-width: 0.8; stroke-linecap: round"/>
     </g>
     <g id="text_4">
      <!-- −0.25 -->
      <g style="fill: #262626" transform="translate(20.345313 133.53749) scale(0.1 -0.1)">
       <defs>
        <path id="ArialMT-32" d="M 3222 541 
L 3222 0 
L 194 0 
Q 188 203 259 391 
Q 375 700 629 1000 
Q 884 1300 1366 1694 
Q 2113 2306 2375 2664 
Q 2638 3022 2638 3341 
Q 2638 3675 2398 3904 
Q 2159 4134 1775 4134 
Q 1369 4134 1125 3890 
Q 881 3647 878 3216 
L 300 3275 
Q 359 3922 746 4261 
Q 1134 4600 1788 4600 
Q 2447 4600 2831 4234 
Q 3216 3869 3216 3328 
Q 3216 3053 3103 2787 
Q 2991 2522 2730 2228 
Q 2469 1934 1863 1422 
Q 1356 997 1212 845 
Q 1069 694 975 541 
L 3222 541 
z
" transform="scale(0.015625)"/>
       </defs>
       <use xlink:href="#ArialMT-2212"/>
       <use xlink:href="#ArialMT-30" transform="translate(58.398438 0)"/>
       <use xlink:href="#ArialMT-2e" transform="translate(114.013672 0)"/>
       <use xlink:href="#ArialMT-32" transform="translate(141.796875 0)"/>
       <use xlink:href="#ArialMT-35" transform="translate(197.412109 0)"/>
      </g>
     </g>
    </g>
    <g id="ytick_5">
     <g id="line2d_13">
      <path d="M 52.646875 107.850492 
L 854.526875 107.850492 
" clip-path="url(#pc71539c8e7)" style="fill: none; stroke: #cccccc; stroke-width: 0.8; stroke-linecap: round"/>
     </g>
     <g id="text_5">
      <!-- 0.00 -->
      <g style="fill: #262626" transform="translate(26.185938 111.429399) scale(0.1 -0.1)">
       <use xlink:href="#ArialMT-30"/>
       <use xlink:href="#ArialMT-2e" transform="translate(55.615234 0)"/>
       <use xlink:href="#ArialMT-30" transform="translate(83.398438 0)"/>
       <use xlink:href="#ArialMT-30" transform="translate(139.013672 0)"/>
      </g>
     </g>
    </g>
    <g id="ytick_6">
     <g id="line2d_14">
      <path d="M 52.646875 85.742401 
L 854.526875 85.742401 
" clip-path="url(#pc71539c8e7)" style="fill: none; stroke: #cccccc; stroke-width: 0.8; stroke-linecap: round"/>
     </g>
     <g id="text_6">
      <!-- 0.25 -->
      <g style="fill: #262626" transform="translate(26.185938 89.321308) scale(0.1 -0.1)">
       <use xlink:href="#ArialMT-30"/>
       <use xlink:href="#ArialMT-2e" transform="translate(55.615234 0)"/>
       <use xlink:href="#ArialMT-32" transform="translate(83.398438 0)"/>
       <use xlink:href="#ArialMT-35" transform="translate(139.013672 0)"/>
      </g>
     </g>
    </g>
    <g id="ytick_7">
     <g id="line2d_15">
      <path d="M 52.646875 63.63431 
L 854.526875 63.63431 
" clip-path="url(#pc71539c8e7)" style="fill: none; stroke: #cccccc; stroke-width: 0.8; stroke-linecap: round"/>
     </g>
     <g id="text_7">
      <!-- 0.50 -->
      <g style="fill: #262626" transform="translate(26.185938 67.213217) scale(0.1 -0.1)">
       <use xlink:href="#ArialMT-30"/>
       <use xlink:href="#ArialMT-2e" transform="translate(55.615234 0)"/>
       <use xlink:href="#ArialMT-35" transform="translate(83.398438 0)"/>
       <use xlink:href="#ArialMT-30" transform="translate(139.013672 0)"/>
      </g>
     </g>
    </g>
    <g id="ytick_8">
     <g id="line2d_16">
      <path d="M 52.646875 41.526219 
L 854.526875 41.526219 
" clip-path="url(#pc71539c8e7)" style="fill: none; stroke: #cccccc; stroke-width: 0.8; stroke-linecap: round"/>
     </g>
     <g id="text_8">
      <!-- 0.75 -->
      <g style="fill: #262626" transform="translate(26.185938 45.105126) scale(0.1 -0.1)">
       <use xlink:href="#ArialMT-30"/>
       <use xlink:href="#ArialMT-2e" transform="translate(55.615234 0)"/>
       <use xlink:href="#ArialMT-37" transform="translate(83.398438 0)"/>
       <use xlink:href="#ArialMT-35" transform="translate(139.013672 0)"/>
      </g>
     </g>
    </g>
    <g id="text_9">
     <!-- $dx0/dt$ -->
     <g style="fill: #262626" transform="translate(14.357813 141.27) rotate(-90) scale(0.1 -0.1)">
      <defs>
       <path id="DejaVuSans-Oblique-64" d="M 2675 525 
Q 2444 222 2128 65 
Q 1813 -91 1428 -91 
Q 903 -91 598 267 
Q 294 625 294 1247 
Q 294 1766 478 2236 
Q 663 2706 1013 3078 
Q 1244 3325 1534 3454 
Q 1825 3584 2144 3584 
Q 2481 3584 2739 3421 
Q 2997 3259 3138 2956 
L 3513 4863 
L 4091 4863 
L 3144 0 
L 2566 0 
L 2675 525 
z
M 891 1350 
Q 891 897 1095 644 
Q 1300 391 1663 391 
Q 1931 391 2161 520 
Q 2391 650 2566 903 
Q 2750 1166 2856 1509 
Q 2963 1853 2963 2188 
Q 2963 2622 2758 2865 
Q 2553 3109 2194 3109 
Q 1922 3109 1687 2981 
Q 1453 2853 1288 2613 
Q 1106 2353 998 2009 
Q 891 1666 891 1350 
z
" transform="scale(0.015625)"/>
       <path id="DejaVuSans-Oblique-78" d="M 3841 3500 
L 2234 1784 
L 3219 0 
L 2559 0 
L 1819 1388 
L 531 0 
L -166 0 
L 1556 1844 
L 641 3500 
L 1300 3500 
L 1972 2234 
L 3144 3500 
L 3841 3500 
z
" transform="scale(0.015625)"/>
       <path id="DejaVuSans-30" d="M 2034 4250 
Q 1547 4250 1301 3770 
Q 1056 3291 1056 2328 
Q 1056 1369 1301 889 
Q 1547 409 2034 409 
Q 2525 409 2770 889 
Q 3016 1369 3016 2328 
Q 3016 3291 2770 3770 
Q 2525 4250 2034 4250 
z
M 2034 4750 
Q 2819 4750 3233 4129 
Q 3647 3509 3647 2328 
Q 3647 1150 3233 529 
Q 2819 -91 2034 -91 
Q 1250 -91 836 529 
Q 422 1150 422 2328 
Q 422 3509 836 4129 
Q 1250 4750 2034 4750 
z
" transform="scale(0.015625)"/>
       <path id="DejaVuSans-2f" d="M 1625 4666 
L 2156 4666 
L 531 -594 
L 0 -594 
L 1625 4666 
z
" transform="scale(0.015625)"/>
       <path id="DejaVuSans-Oblique-74" d="M 2706 3500 
L 2619 3053 
L 1472 3053 
L 1100 1153 
Q 1081 1047 1072 975 
Q 1063 903 1063 863 
Q 1063 663 1183 572 
Q 1303 481 1569 481 
L 2150 481 
L 2053 0 
L 1503 0 
Q 991 0 739 200 
Q 488 400 488 806 
Q 488 878 497 964 
Q 506 1050 525 1153 
L 897 3053 
L 409 3053 
L 500 3500 
L 978 3500 
L 1172 4494 
L 1747 4494 
L 1556 3500 
L 2706 3500 
z
" transform="scale(0.015625)"/>
      </defs>
      <use xlink:href="#DejaVuSans-Oblique-64" transform="translate(0 0.015625)"/>
      <use xlink:href="#DejaVuSans-Oblique-78" transform="translate(63.476562 0.015625)"/>
      <use xlink:href="#DejaVuSans-30" transform="translate(122.65625 0.015625)"/>
      <use xlink:href="#DejaVuSans-2f" transform="translate(186.279297 0.015625)"/>
      <use xlink:href="#DejaVuSans-Oblique-64" transform="translate(219.970703 0.015625)"/>
      <use xlink:href="#DejaVuSans-Oblique-74" transform="translate(283.447266 0.015625)"/>
     </g>
    </g>
   </g>
   <g id="line2d_17">
    <path d="M 89.095966 63.634286 
L 94.734177 93.793816 
L 98.330967 111.858623 
L 101.441704 126.394266 
L 104.163599 138.103504 
L 106.593863 147.636501 
L 108.829705 155.545382 
L 110.871126 161.974433 
L 113.204179 168.507221 
L 114.953969 172.749437 
L 116.606548 176.216162 
L 118.259127 179.167806 
L 119.814496 181.483479 
L 121.272654 183.254157 
L 122.633601 184.562972 
L 123.897338 185.485623 
L 125.161075 186.130627 
L 126.327602 186.483113 
L 127.494128 186.605714 
L 128.660655 186.501643 
L 129.827181 186.174109 
L 131.188129 185.540955 
L 132.451865 184.709823 
L 133.812813 183.531046 
L 135.270971 181.961553 
L 136.82634 179.962333 
L 138.576129 177.344879 
L 140.52034 174.024066 
L 142.756182 169.734266 
L 145.283656 164.374496 
L 148.297183 157.430622 
L 151.602341 149.255876 
L 156.171237 137.28313 
L 164.725764 114.785488 
L 168.322554 106.037399 
L 171.433291 98.966389 
L 174.252396 93.094834 
L 176.877081 88.133155 
L 179.307344 84.009823 
L 181.543187 80.645028 
L 183.584608 77.953806 
L 185.528819 75.747117 
L 187.375819 73.988925 
L 189.611661 72.198723 
L 191.26424 71.180838 
L 192.91682 70.4198 
L 194.569399 69.905523 
L 196.221978 69.62792 
L 197.874557 69.576907 
L 199.527136 69.742395 
L 201.276926 70.14239 
L 203.123926 70.802434 
L 205.068137 71.745881 
L 207.109558 72.993312 
L 209.3454 74.625891 
L 211.581243 76.539537 
L 214.108717 79.014308 
L 217.025033 82.204678 
L 220.524612 86.381655 
L 226.065613 93.399771 
L 235.883877 105.793311 
L 239.772299 110.315065 
L 243.077457 113.828079 
L 245.993773 116.607586 
L 249.10451 119.24009 
L 251.729195 121.154368 
L 254.256669 122.721062 
L 256.686932 123.970143 
L 259.117195 124.96562 
L 261.450248 125.681504 
L 263.783301 126.161364 
L 266.310775 126.435862 
L 268.546618 126.456964 
L 270.87967 126.262486 
L 273.407144 125.823675 
L 276.031829 125.141701 
L 278.948145 124.145528 
L 282.156093 122.802026 
L 285.655672 121.088935 
L 289.544094 118.92167 
L 294.793463 115.717632 
L 306.069885 108.773866 
L 310.833201 106.123572 
L 314.916044 104.100168 
L 318.610044 102.517279 
L 321.915202 101.336381 
L 325.511992 100.299602 
L 328.71994 99.605716 
L 332.025098 99.123123 
L 335.330257 98.865251 
L 338.732625 98.82274 
L 342.232205 99.002331 
L 346.120626 99.433445 
L 350.009048 100.10823 
L 354.480732 101.120345 
L 360.118944 102.639183 
L 369.062313 105.305017 
L 378.491735 108.067913 
L 384.129946 109.480856 
L 389.184894 110.534057 
L 394.045421 111.318948 
L 398.711527 111.85008 
L 403.377633 112.157769 
L 407.946528 112.250419 
L 412.904265 112.123051 
L 418.445266 111.749727 
L 424.861161 111.085859 
L 432.443583 110.068514 
L 453.052217 107.188155 
L 460.440218 106.43874 
L 467.147745 105.98276 
L 473.758061 105.753305 
L 480.75722 105.736411 
L 488.436853 105.947239 
L 497.283011 106.426577 
L 533.931384 108.662124 
L 543.555227 108.867321 
L 553.665123 108.852363 
L 565.71923 108.591536 
L 612.185866 107.363793 
L 626.573026 107.384504 
L 646.112344 107.656218 
L 676.442031 108.059328 
L 696.661823 108.077431 
L 731.268774 107.826539 
L 760.820778 107.732504 
L 803.010151 107.867804 
L 818.077784 107.901816 
L 818.077784 107.901816 
" clip-path="url(#pc71539c8e7)" style="fill: none; stroke: #808080; stroke-opacity: 0.5; stroke-width: 6; stroke-linecap: round"/>
   </g>
   <g id="line2d_18">
    <path d="M 89.095966 66.296517 
L 91.817861 80.830957 
L 94.734177 95.163618 
L 97.942125 109.781212 
L 101.441704 124.677908 
L 104.941283 138.633692 
L 108.052021 150.180672 
L 110.773916 159.462081 
L 113.106969 166.661993 
L 115.14839 172.277409 
L 116.99539 176.731475 
L 118.647969 180.163957 
L 120.203338 182.88636 
L 121.564285 184.847064 
L 122.828022 186.306591 
L 123.994549 187.341414 
L 125.161075 188.07562 
L 126.230391 188.48617 
L 127.299707 188.649071 
L 128.369023 188.569407 
L 129.438339 188.25393 
L 130.507655 187.710966 
L 131.674181 186.867636 
L 132.937918 185.669665 
L 134.298866 184.0692 
L 135.854234 181.876546 
L 137.604024 178.992021 
L 139.548235 175.334227 
L 141.784077 170.636739 
L 144.505972 164.370906 
L 148.102762 155.48617 
L 162.587132 119.086223 
L 166.475553 110.221169 
L 169.975133 102.78056 
L 173.08587 96.664092 
L 175.904976 91.588124 
L 178.52966 87.310961 
L 180.959924 83.77425 
L 183.195766 80.907033 
L 185.237187 78.62976 
L 187.181398 76.773542 
L 189.028398 75.299476 
L 190.778188 74.169859 
L 192.527977 73.30211 
L 194.180557 72.722781 
L 195.833136 72.374541 
L 197.485715 72.253184 
L 199.138294 72.352551 
L 200.888084 72.689365 
L 202.637873 73.252825 
L 204.484874 74.078123 
L 206.526295 75.243616 
L 208.762137 76.793383 
L 211.192401 78.766802 
L 213.914296 81.279017 
L 217.122243 84.562457 
L 221.107875 88.982864 
L 227.912613 96.930169 
L 234.52293 104.518903 
L 238.702983 108.980672 
L 242.299772 112.497046 
L 245.50772 115.326907 
L 248.424036 117.616317 
L 251.243142 119.548318 
L 253.867826 121.081773 
L 256.3953 122.306256 
L 258.825564 123.245092 
L 261.255827 123.948898 
L 263.686091 124.420425 
L 266.116354 124.665666 
L 268.546618 124.691051 
L 271.074091 124.495398 
L 273.698776 124.067698 
L 276.517882 123.374386 
L 279.531408 122.394104 
L 282.836566 121.076048 
L 286.627777 119.312766 
L 291.293883 116.877563 
L 299.167937 112.465151 
L 306.555938 108.42239 
L 311.319254 106.064126 
L 315.402096 104.281826 
L 319.193307 102.863308 
L 322.790097 101.748785 
L 326.289677 100.892101 
L 329.692045 100.282217 
L 333.094414 99.893094 
L 336.593994 99.717989 
L 340.190783 99.763692 
L 343.981994 100.038335 
L 347.967626 100.550834 
L 352.439311 101.355624 
L 357.59147 102.51582 
L 364.590628 104.340781 
L 379.36663 108.250382 
L 385.296473 109.551016 
L 390.545842 110.481856 
L 395.503579 111.139891 
L 400.364106 111.564815 
L 405.321843 111.776244 
L 410.474002 111.769971 
L 415.917792 111.537943 
L 422.042056 111.046965 
L 429.527267 110.212199 
L 458.398797 106.747864 
L 465.689587 106.246197 
L 472.688746 105.985593 
L 479.882325 105.940829 
L 487.756379 106.118381 
L 497.185801 106.562938 
L 516.044645 107.744932 
L 528.584804 108.391455 
L 538.889121 108.700187 
L 549.096228 108.781008 
L 560.469861 108.641548 
L 576.60681 108.194519 
L 600.617812 107.550225 
L 615.199393 107.401085 
L 630.9475 107.470665 
L 661.860451 107.90241 
L 683.927243 108.066678 
L 707.063351 107.999876 
L 763.348252 107.746863 
L 818.077784 107.896614 
L 818.077784 107.896614 
" clip-path="url(#pc71539c8e7)" style="fill: none; stroke-dasharray: 12.95,5.6; stroke-dashoffset: 0; stroke: #0000ff; stroke-opacity: 0.8; stroke-width: 3.5"/>
   </g>
   <g id="patch_3">
    <path d="M 52.646875 211.2 
L 52.646875 39.04 
" style="fill: none; stroke: #cccccc; stroke-width: 0.8; stroke-linejoin: miter; stroke-linecap: square"/>
   </g>
   <g id="patch_4">
    <path d="M 854.526875 211.2 
L 854.526875 39.04 
" style="fill: none; stroke: #cccccc; stroke-width: 0.8; stroke-linejoin: miter; stroke-linecap: square"/>
   </g>
   <g id="patch_5">
    <path d="M 52.646875 211.2 
L 854.526875 211.2 
" style="fill: none; stroke: #cccccc; stroke-width: 0.8; stroke-linejoin: miter; stroke-linecap: square"/>
   </g>
   <g id="patch_6">
    <path d="M 52.646875 39.04 
L 854.526875 39.04 
" style="fill: none; stroke: #cccccc; stroke-width: 0.8; stroke-linejoin: miter; stroke-linecap: square"/>
   </g>
   <g id="line2d_19">
    <path d="M 89.095966 213.883613 
L 89.77644 203.431874 
L 90.359703 197.39012 
L 91.040177 192.699466 
L 91.817861 189.068174 
L 92.984387 183.887435 
L 93.567651 180.239222 
L 94.150914 175.309192 
L 94.831388 167.520016 
L 95.609072 155.534662 
L 96.483967 137.884722 
L 97.456072 113.290619 
L 98.719809 74.849105 
L 100.943843 -1 
M 110.446587 -1 
L 111.5516 50.83276 
L 113.106969 134.716624 
L 117.773074 393.809943 
L 118.609873 431.650625 
M 130.680948 431.650625 
L 136.145866 278.176461 
L 137.701234 242.665696 
L 139.159393 214.413507 
L 140.42313 193.9226 
L 141.686867 176.961154 
L 142.853393 164.169897 
L 144.019919 153.81444 
L 145.089235 146.17445 
L 146.158551 140.035986 
L 147.227867 135.147034 
L 148.297183 131.27549 
L 149.366499 128.215342 
L 150.435815 125.789131 
L 151.602341 123.693973 
L 152.866078 121.905602 
L 154.227026 120.381356 
L 155.685184 119.074715 
L 157.337763 117.884829 
L 159.184763 116.827451 
L 161.226184 115.922027 
L 163.462027 115.177883 
L 166.669975 114.37347 
L 169.975133 113.490825 
L 171.919344 112.740793 
L 173.571923 111.871974 
L 175.127291 110.808186 
L 176.68266 109.470022 
L 178.238028 107.835153 
L 179.890608 105.764314 
L 181.640397 103.207566 
L 183.584608 99.970119 
L 186.014871 95.457812 
L 190.097714 87.294991 
L 193.597293 80.509779 
L 195.833136 76.636234 
L 197.777346 73.703307 
L 199.429926 71.587995 
L 200.985294 69.946746 
L 202.443452 68.735019 
L 203.8044 67.900795 
L 205.068137 67.389035 
L 206.234663 67.144566 
L 207.40119 67.120357 
L 208.567716 67.316579 
L 209.734243 67.734625 
L 210.99798 68.435867 
L 212.261716 69.390096 
L 213.622664 70.691063 
L 215.178033 72.506397 
L 216.830612 74.787386 
L 218.774822 77.874865 
L 221.107875 82.033917 
L 224.510244 88.626373 
L 229.759613 98.786934 
L 232.481508 103.541145 
L 234.814561 107.177706 
L 237.050403 110.24747 
L 239.189035 112.808236 
L 241.327667 115.027895 
L 243.563509 117.023462 
L 245.896562 118.798235 
L 248.326826 120.357554 
L 250.757089 121.651617 
L 253.187353 122.695086 
L 255.520406 123.463232 
L 257.853458 123.999226 
L 260.186511 124.300392 
L 262.519564 124.369536 
L 264.852617 124.217929 
L 267.380091 123.825866 
L 270.101986 123.175755 
L 273.309934 122.173583 
L 277.489987 120.61752 
L 286.822198 116.818708 
L 296.834884 112.883323 
L 324.442676 102.38521 
L 328.622729 101.154064 
L 332.219519 100.318907 
L 335.524678 99.771344 
L 338.732625 99.462304 
L 341.940573 99.380993 
L 345.148521 99.525619 
L 348.453679 99.900367 
L 351.953258 100.521299 
L 355.93889 101.462092 
L 360.799417 102.852236 
L 370.520471 105.938051 
L 377.130788 107.895327 
L 382.282946 109.192139 
L 387.046262 110.165976 
L 391.712368 110.891661 
L 396.378474 111.389577 
L 401.14179 111.675077 
L 406.196738 111.756603 
L 411.737739 111.619068 
L 417.959213 111.235309 
L 425.444424 110.54041 
L 436.137584 109.300919 
L 454.024322 107.22576 
L 462.287218 106.513232 
L 469.675219 106.098202 
L 476.771588 105.924874 
L 484.062378 105.974437 
L 492.130853 106.258431 
L 502.629591 106.868208 
L 526.348962 108.312155 
L 536.556068 108.660284 
L 546.665964 108.779489 
L 557.845176 108.68264 
L 572.621178 108.31332 
L 602.853655 107.516093 
L 617.532446 107.396823 
L 633.669395 107.498606 
L 690.73198 108.06836 
L 718.145352 107.920893 
L 757.029567 107.743747 
L 796.788676 107.846543 
L 818.077784 107.896656 
L 818.077784 107.896656 
" clip-path="url(#pc71539c8e7)" style="fill: none; stroke-dasharray: 22.4,5.6,3.5,5.6; stroke-dashoffset: 0; stroke: #008000; stroke-opacity: 0.8; stroke-width: 3.5"/>
   </g>
   <g id="line2d_20">
    <path d="M 89.095966 43.478375 
L 99.594704 121.998784 
L 102.608231 142.653805 
L 105.038494 157.872544 
L 107.177126 169.890634 
L 109.024126 179.058776 
L 110.676705 186.213454 
L 112.232074 191.988193 
L 113.593021 196.245635 
L 114.856758 199.522732 
L 116.023285 201.969673 
L 117.092601 203.730802 
L 118.064706 204.939944 
L 118.939601 205.717529 
L 119.814496 206.21019 
L 120.59218 206.417462 
L 121.369864 206.41635 
L 122.244759 206.177434 
L 123.119654 205.700421 
L 124.091759 204.909349 
L 125.161075 203.74667 
L 126.424812 202.017003 
L 127.88297 199.604688 
L 129.535549 196.423834 
L 131.576971 191.990105 
L 134.201655 185.717369 
L 138.67334 174.350549 
L 145.283656 157.658676 
L 149.949762 146.511214 
L 154.9075 135.248814 
L 160.35129 123.435986 
L 165.406238 112.968132 
L 169.48908 104.988818 
L 172.891449 98.806006 
L 175.807765 93.9563 
L 178.43245 90.020325 
L 180.765502 86.906525 
L 183.001345 84.289011 
L 185.042766 82.225715 
L 187.084187 80.47924 
L 189.028398 79.110747 
L 190.875398 78.077569 
L 192.722399 77.299887 
L 194.569399 76.770846 
L 196.416399 76.481817 
L 198.263399 76.422767 
L 200.110399 76.582585 
L 202.05461 76.974144 
L 204.096031 77.616002 
L 206.234663 78.522881 
L 208.567716 79.761337 
L 210.99798 81.306739 
L 213.622664 83.240108 
L 216.53898 85.66967 
L 219.844138 88.724485 
L 223.73256 92.635194 
L 229.370771 98.660029 
L 237.147614 106.931824 
L 241.036035 110.727697 
L 244.341194 113.647156 
L 247.25751 115.937648 
L 249.979405 117.803923 
L 252.604089 119.335995 
L 255.131563 120.553096 
L 257.561827 121.481504 
L 259.99209 122.175155 
L 262.422354 122.641038 
L 264.949828 122.895888 
L 267.477302 122.930155 
L 270.199197 122.738458 
L 273.018302 122.313502 
L 276.031829 121.633451 
L 279.336987 120.656831 
L 283.128198 119.293632 
L 287.502672 117.476499 
L 293.335304 114.794746 
L 308.500148 107.712915 
L 313.360675 105.751637 
L 317.735149 104.225437 
L 321.817992 103.038511 
L 325.706413 102.138907 
L 329.497624 101.490441 
L 333.288835 101.071981 
L 337.080046 100.880379 
L 340.968468 100.908444 
L 345.05131 101.162644 
L 349.425784 101.663167 
L 354.286311 102.450627 
L 360.021733 103.615958 
L 368.57626 105.611935 
L 379.658261 108.158084 
L 385.976946 109.373704 
L 391.517947 110.217566 
L 396.767316 110.794174 
L 402.016685 111.145143 
L 407.363265 111.277714 
L 413.001476 111.19027 
L 419.12574 110.868164 
L 426.41653 110.251222 
L 436.915268 109.112476 
L 452.663375 107.421061 
L 461.120692 106.753104 
L 468.897535 106.362914 
L 476.577167 106.203586 
L 484.645642 106.263461 
L 493.880643 106.561938 
L 507.004065 107.233964 
L 526.835015 108.234981 
L 538.014227 108.56132 
L 548.999017 108.655427 
L 561.150334 108.529862 
L 579.328705 108.086974 
L 602.367602 107.57335 
L 618.115709 107.459844 
L 635.905237 107.566934 
L 689.371033 108.040165 
L 717.659299 107.917679 
L 759.751462 107.758516 
L 812.925626 107.882925 
L 818.077784 107.889777 
L 818.077784 107.889777 
" clip-path="url(#pc71539c8e7)" style="fill: none; stroke-dasharray: 3.5,5.775; stroke-dashoffset: 0; stroke: #ff0000; stroke-opacity: 0.8; stroke-width: 3.5"/>
   </g>
  </g>
  <g id="axes_2">
   <g id="patch_7">
    <path d="M 52.646875 394.16 
L 854.526875 394.16 
L 854.526875 222 
L 52.646875 222 
z
" style="fill: #ffffff"/>
   </g>
   <g id="matplotlib.axis_3">
    <g id="xtick_9">
     <g id="line2d_21">
      <path d="M 89.095966 394.16 
L 89.095966 222 
" clip-path="url(#p0220aee88f)" style="fill: none; stroke: #cccccc; stroke-width: 0.8; stroke-linecap: round"/>
     </g>
     <g id="text_10">
      <!-- 0 -->
      <g style="fill: #262626" transform="translate(86.315497 408.317813) scale(0.1 -0.1)">
       <use xlink:href="#ArialMT-30"/>
      </g>
     </g>
    </g>
    <g id="xtick_10">
     <g id="line2d_22">
      <path d="M 186.293542 394.16 
L 186.293542 222 
" clip-path="url(#p0220aee88f)" style="fill: none; stroke: #cccccc; stroke-width: 0.8; stroke-linecap: round"/>
     </g>
     <g id="text_11">
      <!-- 2 -->
      <g style="fill: #262626" transform="translate(183.513073 408.317813) scale(0.1 -0.1)">
       <use xlink:href="#ArialMT-32"/>
      </g>
     </g>
    </g>
    <g id="xtick_11">
     <g id="line2d_23">
      <path d="M 283.491117 394.16 
L 283.491117 222 
" clip-path="url(#p0220aee88f)" style="fill: none; stroke: #cccccc; stroke-width: 0.8; stroke-linecap: round"/>
     </g>
     <g id="text_12">
      <!-- 4 -->
      <g style="fill: #262626" transform="translate(280.710649 408.317813) scale(0.1 -0.1)">
       <defs>
        <path id="ArialMT-34" d="M 2069 0 
L 2069 1097 
L 81 1097 
L 81 1613 
L 2172 4581 
L 2631 4581 
L 2631 1613 
L 3250 1613 
L 3250 1097 
L 2631 1097 
L 2631 0 
L 2069 0 
z
M 2069 1613 
L 2069 3678 
L 634 1613 
L 2069 1613 
z
" transform="scale(0.015625)"/>
       </defs>
       <use xlink:href="#ArialMT-34"/>
      </g>
     </g>
    </g>
    <g id="xtick_12">
     <g id="line2d_24">
      <path d="M 380.688693 394.16 
L 380.688693 222 
" clip-path="url(#p0220aee88f)" style="fill: none; stroke: #cccccc; stroke-width: 0.8; stroke-linecap: round"/>
     </g>
     <g id="text_13">
      <!-- 6 -->
      <g style="fill: #262626" transform="translate(377.908224 408.317813) scale(0.1 -0.1)">
       <defs>
        <path id="ArialMT-36" d="M 3184 3459 
L 2625 3416 
Q 2550 3747 2413 3897 
Q 2184 4138 1850 4138 
Q 1581 4138 1378 3988 
Q 1113 3794 959 3422 
Q 806 3050 800 2363 
Q 1003 2672 1297 2822 
Q 1591 2972 1913 2972 
Q 2475 2972 2870 2558 
Q 3266 2144 3266 1488 
Q 3266 1056 3080 686 
Q 2894 316 2569 119 
Q 2244 -78 1831 -78 
Q 1128 -78 684 439 
Q 241 956 241 2144 
Q 241 3472 731 4075 
Q 1159 4600 1884 4600 
Q 2425 4600 2770 4297 
Q 3116 3994 3184 3459 
z
M 888 1484 
Q 888 1194 1011 928 
Q 1134 663 1356 523 
Q 1578 384 1822 384 
Q 2178 384 2434 671 
Q 2691 959 2691 1453 
Q 2691 1928 2437 2201 
Q 2184 2475 1800 2475 
Q 1419 2475 1153 2201 
Q 888 1928 888 1484 
z
" transform="scale(0.015625)"/>
       </defs>
       <use xlink:href="#ArialMT-36"/>
      </g>
     </g>
    </g>
    <g id="xtick_13">
     <g id="line2d_25">
      <path d="M 477.886269 394.16 
L 477.886269 222 
" clip-path="url(#p0220aee88f)" style="fill: none; stroke: #cccccc; stroke-width: 0.8; stroke-linecap: round"/>
     </g>
     <g id="text_14">
      <!-- 8 -->
      <g style="fill: #262626" transform="translate(475.1058 408.317813) scale(0.1 -0.1)">
       <defs>
        <path id="ArialMT-38" d="M 1131 2484 
Q 781 2613 612 2850 
Q 444 3088 444 3419 
Q 444 3919 803 4259 
Q 1163 4600 1759 4600 
Q 2359 4600 2725 4251 
Q 3091 3903 3091 3403 
Q 3091 3084 2923 2848 
Q 2756 2613 2416 2484 
Q 2838 2347 3058 2040 
Q 3278 1734 3278 1309 
Q 3278 722 2862 322 
Q 2447 -78 1769 -78 
Q 1091 -78 675 323 
Q 259 725 259 1325 
Q 259 1772 486 2073 
Q 713 2375 1131 2484 
z
M 1019 3438 
Q 1019 3113 1228 2906 
Q 1438 2700 1772 2700 
Q 2097 2700 2305 2904 
Q 2513 3109 2513 3406 
Q 2513 3716 2298 3927 
Q 2084 4138 1766 4138 
Q 1444 4138 1231 3931 
Q 1019 3725 1019 3438 
z
M 838 1322 
Q 838 1081 952 856 
Q 1066 631 1291 507 
Q 1516 384 1775 384 
Q 2178 384 2440 643 
Q 2703 903 2703 1303 
Q 2703 1709 2433 1975 
Q 2163 2241 1756 2241 
Q 1359 2241 1098 1978 
Q 838 1716 838 1322 
z
" transform="scale(0.015625)"/>
       </defs>
       <use xlink:href="#ArialMT-38"/>
      </g>
     </g>
    </g>
    <g id="xtick_14">
     <g id="line2d_26">
      <path d="M 575.083845 394.16 
L 575.083845 222 
" clip-path="url(#p0220aee88f)" style="fill: none; stroke: #cccccc; stroke-width: 0.8; stroke-linecap: round"/>
     </g>
     <g id="text_15">
      <!-- 10 -->
      <g style="fill: #262626" transform="translate(569.522907 408.317813) scale(0.1 -0.1)">
       <use xlink:href="#ArialMT-31"/>
       <use xlink:href="#ArialMT-30" transform="translate(55.615234 0)"/>
      </g>
     </g>
    </g>
    <g id="xtick_15">
     <g id="line2d_27">
      <path d="M 672.28142 394.16 
L 672.28142 222 
" clip-path="url(#p0220aee88f)" style="fill: none; stroke: #cccccc; stroke-width: 0.8; stroke-linecap: round"/>
     </g>
     <g id="text_16">
      <!-- 12 -->
      <g style="fill: #262626" transform="translate(666.720483 408.317813) scale(0.1 -0.1)">
       <use xlink:href="#ArialMT-31"/>
       <use xlink:href="#ArialMT-32" transform="translate(55.615234 0)"/>
      </g>
     </g>
    </g>
    <g id="xtick_16">
     <g id="line2d_28">
      <path d="M 769.478996 394.16 
L 769.478996 222 
" clip-path="url(#p0220aee88f)" style="fill: none; stroke: #cccccc; stroke-width: 0.8; stroke-linecap: round"/>
     </g>
     <g id="text_17">
      <!-- 14 -->
      <g style="fill: #262626" transform="translate(763.918059 408.317813) scale(0.1 -0.1)">
       <use xlink:href="#ArialMT-31"/>
       <use xlink:href="#ArialMT-34" transform="translate(55.615234 0)"/>
      </g>
     </g>
    </g>
    <g id="text_18">
     <!-- Time -->
     <g style="fill: #262626" transform="translate(442.664219 421.463125) scale(0.1 -0.1)">
      <defs>
       <path id="ArialMT-54" d="M 1659 0 
L 1659 4041 
L 150 4041 
L 150 4581 
L 3781 4581 
L 3781 4041 
L 2266 4041 
L 2266 0 
L 1659 0 
z
" transform="scale(0.015625)"/>
       <path id="ArialMT-69" d="M 425 3934 
L 425 4581 
L 988 4581 
L 988 3934 
L 425 3934 
z
M 425 0 
L 425 3319 
L 988 3319 
L 988 0 
L 425 0 
z
" transform="scale(0.015625)"/>
       <path id="ArialMT-6d" d="M 422 0 
L 422 3319 
L 925 3319 
L 925 2853 
Q 1081 3097 1340 3245 
Q 1600 3394 1931 3394 
Q 2300 3394 2536 3241 
Q 2772 3088 2869 2813 
Q 3263 3394 3894 3394 
Q 4388 3394 4653 3120 
Q 4919 2847 4919 2278 
L 4919 0 
L 4359 0 
L 4359 2091 
Q 4359 2428 4304 2576 
Q 4250 2725 4106 2815 
Q 3963 2906 3769 2906 
Q 3419 2906 3187 2673 
Q 2956 2441 2956 1928 
L 2956 0 
L 2394 0 
L 2394 2156 
Q 2394 2531 2256 2718 
Q 2119 2906 1806 2906 
Q 1569 2906 1367 2781 
Q 1166 2656 1075 2415 
Q 984 2175 984 1722 
L 984 0 
L 422 0 
z
" transform="scale(0.015625)"/>
       <path id="ArialMT-65" d="M 2694 1069 
L 3275 997 
Q 3138 488 2766 206 
Q 2394 -75 1816 -75 
Q 1088 -75 661 373 
Q 234 822 234 1631 
Q 234 2469 665 2931 
Q 1097 3394 1784 3394 
Q 2450 3394 2872 2941 
Q 3294 2488 3294 1666 
Q 3294 1616 3291 1516 
L 816 1516 
Q 847 969 1125 678 
Q 1403 388 1819 388 
Q 2128 388 2347 550 
Q 2566 713 2694 1069 
z
M 847 1978 
L 2700 1978 
Q 2663 2397 2488 2606 
Q 2219 2931 1791 2931 
Q 1403 2931 1139 2672 
Q 875 2413 847 1978 
z
" transform="scale(0.015625)"/>
      </defs>
      <use xlink:href="#ArialMT-54"/>
      <use xlink:href="#ArialMT-69" transform="translate(57.333984 0)"/>
      <use xlink:href="#ArialMT-6d" transform="translate(79.550781 0)"/>
      <use xlink:href="#ArialMT-65" transform="translate(162.851562 0)"/>
     </g>
    </g>
   </g>
   <g id="matplotlib.axis_4">
    <g id="ytick_9">
     <g id="line2d_29">
      <path d="M 52.646875 369.565142 
L 854.526875 369.565142 
" clip-path="url(#p0220aee88f)" style="fill: none; stroke: #cccccc; stroke-width: 0.8; stroke-linecap: round"/>
     </g>
     <g id="text_19">
      <!-- −3 -->
      <g style="fill: #262626" transform="translate(34.245313 373.144048) scale(0.1 -0.1)">
       <defs>
        <path id="ArialMT-33" d="M 269 1209 
L 831 1284 
Q 928 806 1161 595 
Q 1394 384 1728 384 
Q 2125 384 2398 659 
Q 2672 934 2672 1341 
Q 2672 1728 2419 1979 
Q 2166 2231 1775 2231 
Q 1616 2231 1378 2169 
L 1441 2663 
Q 1497 2656 1531 2656 
Q 1891 2656 2178 2843 
Q 2466 3031 2466 3422 
Q 2466 3731 2256 3934 
Q 2047 4138 1716 4138 
Q 1388 4138 1169 3931 
Q 950 3725 888 3313 
L 325 3413 
Q 428 3978 793 4289 
Q 1159 4600 1703 4600 
Q 2078 4600 2393 4439 
Q 2709 4278 2876 4000 
Q 3044 3722 3044 3409 
Q 3044 3113 2884 2869 
Q 2725 2625 2413 2481 
Q 2819 2388 3044 2092 
Q 3269 1797 3269 1353 
Q 3269 753 2831 336 
Q 2394 -81 1725 -81 
Q 1122 -81 723 278 
Q 325 638 269 1209 
z
" transform="scale(0.015625)"/>
       </defs>
       <use xlink:href="#ArialMT-2212"/>
       <use xlink:href="#ArialMT-33" transform="translate(58.398438 0)"/>
      </g>
     </g>
    </g>
    <g id="ytick_10">
     <g id="line2d_30">
      <path d="M 52.646875 342.008604 
L 854.526875 342.008604 
" clip-path="url(#p0220aee88f)" style="fill: none; stroke: #cccccc; stroke-width: 0.8; stroke-linecap: round"/>
     </g>
     <g id="text_20">
      <!-- −2 -->
      <g style="fill: #262626" transform="translate(34.245313 345.58751) scale(0.1 -0.1)">
       <use xlink:href="#ArialMT-2212"/>
       <use xlink:href="#ArialMT-32" transform="translate(58.398438 0)"/>
      </g>
     </g>
    </g>
    <g id="ytick_11">
     <g id="line2d_31">
      <path d="M 52.646875 314.452066 
L 854.526875 314.452066 
" clip-path="url(#p0220aee88f)" style="fill: none; stroke: #cccccc; stroke-width: 0.8; stroke-linecap: round"/>
     </g>
     <g id="text_21">
      <!-- −1 -->
      <g style="fill: #262626" transform="translate(34.245313 318.030972) scale(0.1 -0.1)">
       <use xlink:href="#ArialMT-2212"/>
       <use xlink:href="#ArialMT-31" transform="translate(58.398438 0)"/>
      </g>
     </g>
    </g>
    <g id="ytick_12">
     <g id="line2d_32">
      <path d="M 52.646875 286.895528 
L 854.526875 286.895528 
" clip-path="url(#p0220aee88f)" style="fill: none; stroke: #cccccc; stroke-width: 0.8; stroke-linecap: round"/>
     </g>
     <g id="text_22">
      <!-- 0 -->
      <g style="fill: #262626" transform="translate(40.085938 290.474434) scale(0.1 -0.1)">
       <use xlink:href="#ArialMT-30"/>
      </g>
     </g>
    </g>
    <g id="ytick_13">
     <g id="line2d_33">
      <path d="M 52.646875 259.33899 
L 854.526875 259.33899 
" clip-path="url(#p0220aee88f)" style="fill: none; stroke: #cccccc; stroke-width: 0.8; stroke-linecap: round"/>
     </g>
     <g id="text_23">
      <!-- 1 -->
      <g style="fill: #262626" transform="translate(40.085938 262.917896) scale(0.1 -0.1)">
       <use xlink:href="#ArialMT-31"/>
      </g>
     </g>
    </g>
    <g id="ytick_14">
     <g id="line2d_34">
      <path d="M 52.646875 231.782452 
L 854.526875 231.782452 
" clip-path="url(#p0220aee88f)" style="fill: none; stroke: #cccccc; stroke-width: 0.8; stroke-linecap: round"/>
     </g>
     <g id="text_24">
      <!-- 2 -->
      <g style="fill: #262626" transform="translate(40.085938 235.361358) scale(0.1 -0.1)">
       <use xlink:href="#ArialMT-32"/>
      </g>
     </g>
    </g>
    <g id="text_25">
     <!-- $dx1/dt$ -->
     <g style="fill: #262626" transform="translate(28.257813 324.23) rotate(-90) scale(0.1 -0.1)">
      <defs>
       <path id="DejaVuSans-31" d="M 794 531 
L 1825 531 
L 1825 4091 
L 703 3866 
L 703 4441 
L 1819 4666 
L 2450 4666 
L 2450 531 
L 3481 531 
L 3481 0 
L 794 0 
L 794 531 
z
" transform="scale(0.015625)"/>
      </defs>
      <use xlink:href="#DejaVuSans-Oblique-64" transform="translate(0 0.015625)"/>
      <use xlink:href="#DejaVuSans-Oblique-78" transform="translate(63.476562 0.015625)"/>
      <use xlink:href="#DejaVuSans-31" transform="translate(122.65625 0.015625)"/>
      <use xlink:href="#DejaVuSans-2f" transform="translate(186.279297 0.015625)"/>
      <use xlink:href="#DejaVuSans-Oblique-64" transform="translate(219.970703 0.015625)"/>
      <use xlink:href="#DejaVuSans-Oblique-74" transform="translate(283.447266 0.015625)"/>
     </g>
    </g>
   </g>
   <g id="line2d_35">
    <path d="M 89.095966 369.565714 
L 90.359703 369.072938 
L 91.62344 368.319346 
L 92.984387 367.236571 
L 94.345335 365.905154 
L 95.803493 364.154987 
L 97.456072 361.797066 
L 99.205862 358.904136 
L 101.150073 355.261147 
L 103.385915 350.585331 
L 106.010599 344.544244 
L 109.121337 336.795541 
L 113.009758 326.492687 
L 118.84239 310.242186 
L 124.772233 293.919857 
L 128.271812 284.916973 
L 131.38255 277.531074 
L 134.104445 271.542393 
L 136.631919 266.49527 
L 139.062182 262.134264 
L 141.298024 258.568764 
L 143.436656 255.576274 
L 145.380867 253.22426 
L 147.227867 251.326261 
L 148.977657 249.840565 
L 150.921868 248.488348 
L 152.574447 247.629904 
L 154.129815 247.063308 
L 155.685184 246.721481 
L 157.240552 246.59534 
L 158.893132 246.687488 
L 160.545711 247.001983 
L 162.2955 247.565225 
L 164.142501 248.402657 
L 166.086711 249.53724 
L 168.225343 251.054977 
L 170.363975 252.845549 
L 172.697028 255.104126 
L 175.321712 257.965408 
L 178.43245 261.701802 
L 182.515292 266.985793 
L 198.555031 288.112137 
L 201.9574 292.053237 
L 204.873716 295.111054 
L 207.4984 297.557359 
L 210.706348 300.200429 
L 213.136611 301.900878 
L 215.566875 303.328967 
L 217.899928 304.446205 
L 220.232981 305.317316 
L 222.566033 305.944689 
L 224.801876 306.319417 
L 227.037718 306.474594 
L 229.467982 306.409691 
L 231.801034 306.130475 
L 234.231298 305.611979 
L 236.855982 304.818616 
L 239.675088 303.730459 
L 242.785825 302.290346 
L 246.382615 300.376687 
L 250.271037 298.062193 
L 255.714827 294.541032 
L 265.630301 288.101193 
L 270.296407 285.344358 
L 274.37925 283.188939 
L 278.07325 281.490744 
L 281.475619 280.172657 
L 284.780777 279.133468 
L 287.891514 278.370369 
L 291.002252 277.831196 
L 294.210199 277.498671 
L 297.515358 277.381466 
L 300.917726 277.486704 
L 304.611727 277.834969 
L 308.208517 278.399782 
L 312.291359 279.274119 
L 317.151886 280.554974 
L 324.053834 282.6305 
L 340.190783 287.61372 
L 345.731784 289.002917 
L 350.592311 289.994957 
L 355.258417 290.722726 
L 359.827312 291.21053 
L 364.298997 291.465334 
L 368.770681 291.518602 
L 373.631208 291.352639 
L 379.074998 290.938922 
L 385.393683 290.227821 
L 393.170526 289.10972 
L 411.93216 286.331111 
L 419.22295 285.514648 
L 425.736056 285.008109 
L 432.054741 284.72658 
L 438.762268 284.651973 
L 445.955848 284.796867 
L 453.927112 285.185201 
L 465.981218 286.025567 
L 484.840063 287.338144 
L 494.561116 287.773231 
L 503.893328 287.970122 
L 513.808803 287.947303 
L 525.571278 287.679353 
L 550.068333 286.823017 
L 565.038756 286.461703 
L 578.745442 286.36584 
L 594.201917 286.493699 
L 647.764923 287.15327 
L 670.414978 287.043442 
L 718.048141 286.770213 
L 754.210461 286.880897 
L 798.344045 286.949845 
L 818.077784 286.915207 
L 818.077784 286.915207 
" clip-path="url(#p0220aee88f)" style="fill: none; stroke: #808080; stroke-opacity: 0.5; stroke-width: 6; stroke-linecap: round"/>
   </g>
   <g id="line2d_36">
    <path d="M 89.095966 352.348492 
L 90.554124 354.13593 
L 92.012282 355.57248 
L 93.37323 356.600165 
L 94.636967 357.287618 
L 95.900704 357.722727 
L 97.16444 357.910607 
L 98.428177 357.856934 
L 99.691914 357.567954 
L 100.955651 357.050476 
L 102.316599 356.246125 
L 103.774757 355.111063 
L 105.330126 353.603342 
L 106.982705 351.684456 
L 108.829705 349.180431 
L 110.871126 346.010742 
L 113.106969 342.106739 
L 115.634443 337.218185 
L 118.550759 331.069347 
L 122.147549 322.937024 
L 127.688549 309.779585 
L 134.590497 293.503465 
L 138.381708 285.131432 
L 141.589656 278.576658 
L 144.408762 273.307533 
L 147.033446 268.868018 
L 149.463709 265.190147 
L 151.699552 262.194975 
L 153.838184 259.69379 
L 155.879605 257.647013 
L 157.823816 256.011605 
L 159.670816 254.742856 
L 161.420606 253.795826 
L 163.170395 253.093867 
L 164.920185 252.632189 
L 166.669975 252.404175 
L 168.419764 252.401952 
L 170.169554 252.619306 
L 172.016554 253.076739 
L 173.960765 253.798008 
L 176.002186 254.803602 
L 178.140818 256.109674 
L 180.473871 257.80256 
L 183.001345 259.916162 
L 185.917661 262.661045 
L 189.32003 266.189275 
L 193.597293 270.970816 
L 207.595611 286.871828 
L 211.289611 290.597728 
L 214.497559 293.533357 
L 217.511086 295.991921 
L 220.330191 298.00238 
L 222.954876 299.607265 
L 225.48235 300.901649 
L 228.009824 301.947228 
L 230.440087 302.718251 
L 232.87035 303.259281 
L 235.300614 303.574652 
L 237.730877 303.671175 
L 240.258351 303.549294 
L 242.883036 303.19671 
L 245.604931 302.606651 
L 248.521247 301.746054 
L 251.729195 300.558786 
L 255.325984 298.978582 
L 259.506038 296.888747 
L 265.144249 293.800658 
L 277.198355 287.136566 
L 281.864461 284.855913 
L 285.947304 283.100936 
L 289.738515 281.710675 
L 293.335304 280.628606 
L 296.834884 279.809678 
L 300.237253 279.238462 
L 303.736832 278.8788 
L 307.236411 278.74342 
L 310.833201 278.825795 
L 314.624412 279.136367 
L 318.707255 279.698379 
L 323.27615 280.559669 
L 328.622729 281.802615 
L 336.302362 283.843307 
L 348.745311 287.148062 
L 354.772364 288.49836 
L 360.118944 289.467195 
L 365.173891 290.156644 
L 370.131629 290.605959 
L 375.089366 290.828531 
L 380.144314 290.832972 
L 385.588104 290.613341 
L 391.615158 290.143393 
L 398.905948 289.342647 
L 411.834949 287.647571 
L 422.430898 286.364302 
L 430.207741 285.642922 
L 437.30411 285.205522 
L 444.303269 284.995701 
L 451.594059 284.999368 
L 459.662534 285.230149 
L 469.772429 285.755657 
L 500.782591 287.523398 
L 510.989697 287.782833 
L 521.294014 287.819185 
L 533.1537 287.629028 
L 552.693018 287.049718 
L 571.551862 286.578077 
L 586.036232 286.442826 
L 601.97876 286.525257 
L 664.776767 287.105887 
L 697.731139 286.89716 
L 730.102248 286.788818 
L 777.638201 286.923104 
L 818.077784 286.92942 
L 818.077784 286.92942 
" clip-path="url(#p0220aee88f)" style="fill: none; stroke-dasharray: 12.95,5.6; stroke-dashoffset: 0; stroke: #0000ff; stroke-opacity: 0.8; stroke-width: 3.5"/>
   </g>
   <g id="patch_8">
    <path d="M 52.646875 394.16 
L 52.646875 222 
" style="fill: none; stroke: #cccccc; stroke-width: 0.8; stroke-linejoin: miter; stroke-linecap: square"/>
   </g>
   <g id="patch_9">
    <path d="M 854.526875 394.16 
L 854.526875 222 
" style="fill: none; stroke: #cccccc; stroke-width: 0.8; stroke-linejoin: miter; stroke-linecap: square"/>
   </g>
   <g id="patch_10">
    <path d="M 52.646875 394.16 
L 854.526875 394.16 
" style="fill: none; stroke: #cccccc; stroke-width: 0.8; stroke-linejoin: miter; stroke-linecap: square"/>
   </g>
   <g id="patch_11">
    <path d="M 52.646875 222 
L 854.526875 222 
" style="fill: none; stroke: #cccccc; stroke-width: 0.8; stroke-linejoin: miter; stroke-linecap: square"/>
   </g>
   <g id="line2d_37">
    <path d="M 132.241722 -1 
L 133.812813 75.826017 
L 135.173761 132.805678 
L 136.437498 176.726375 
L 137.506813 206.956401 
L 138.576129 231.015471 
L 139.548235 247.872013 
L 140.42313 259.320243 
L 141.200814 266.842854 
L 141.881288 271.606722 
L 142.561761 274.878956 
L 143.145025 276.647178 
L 143.631077 277.484865 
L 144.019919 277.789801 
L 144.408762 277.808441 
L 144.797604 277.575191 
L 145.283656 276.980048 
L 145.96413 275.690964 
L 146.839025 273.483717 
L 148.783236 267.737552 
L 150.144183 264.078591 
L 151.116289 262.028871 
L 151.893973 260.827097 
L 152.574447 260.125314 
L 153.15771 259.790739 
L 153.740973 259.700842 
L 154.324236 259.84801 
L 154.9075 260.219648 
L 155.587973 260.914272 
L 156.462868 262.169299 
L 157.532184 264.144971 
L 159.087553 267.566713 
L 162.19829 274.527928 
L 163.462027 276.792966 
L 164.531343 278.278461 
L 165.406238 279.160677 
L 166.281132 279.728336 
L 167.058817 279.967993 
L 167.836501 279.965209 
L 168.614185 279.732666 
L 169.48908 279.21913 
L 170.461186 278.374194 
L 171.627712 277.050998 
L 173.183081 274.927302 
L 177.654765 268.598671 
L 179.015713 267.152155 
L 180.182239 266.234949 
L 181.154345 265.73043 
L 182.12645 265.479484 
L 183.001345 265.478059 
L 183.87624 265.691516 
L 184.848345 266.178214 
L 185.82045 266.919686 
L 186.889766 268.013825 
L 188.153503 269.651531 
L 189.611661 271.946605 
L 191.361451 275.155857 
L 193.791714 280.139652 
L 199.332715 291.652077 
L 201.471347 295.492324 
L 203.318347 298.363222 
L 204.970926 300.546358 
L 206.526295 302.260358 
L 208.081663 303.649529 
L 209.539821 304.667951 
L 210.99798 305.425893 
L 212.456138 305.942347 
L 214.011506 306.251078 
L 215.566875 306.336956 
L 217.316664 306.20309 
L 219.260875 305.817381 
L 221.496718 305.138171 
L 224.510244 303.969025 
L 234.231298 300.024763 
L 239.869509 298.146797 
L 244.924457 296.381781 
L 248.618457 294.850374 
L 252.409668 293.030169 
L 257.561827 290.283129 
L 266.213565 285.664686 
L 270.490828 283.651518 
L 274.087618 282.19732 
L 277.295566 281.131551 
L 280.309093 280.358614 
L 283.225409 279.834946 
L 286.238935 279.523747 
L 289.349672 279.427999 
L 292.849252 279.545083 
L 297.320937 279.93125 
L 305.19499 280.880263 
L 316.08257 282.381831 
L 322.109623 283.442001 
L 328.428308 284.788919 
L 344.079205 288.249089 
L 349.036942 289.037521 
L 353.703048 289.554497 
L 358.369154 289.847908 
L 363.326891 289.934296 
L 368.770681 289.802305 
L 374.992156 289.421171 
L 382.671788 288.714321 
L 395.60079 287.257048 
L 407.363265 286.022913 
L 415.52895 285.391096 
L 423.111372 285.027348 
L 430.888215 284.877484 
L 439.345531 284.942601 
L 449.163796 285.248315 
L 462.870481 285.919866 
L 483.576326 286.924834 
L 494.658327 287.22021 
L 505.545907 287.28402 
L 517.988856 287.126206 
L 539.764016 286.576034 
L 559.011703 286.195426 
L 574.954231 286.111382 
L 593.813075 286.248684 
L 640.376922 286.679075 
L 666.234925 286.598879 
L 717.173247 286.404641 
L 818.077784 286.501419 
L 818.077784 286.501419 
" clip-path="url(#p0220aee88f)" style="fill: none; stroke-dasharray: 22.4,5.6,3.5,5.6; stroke-dashoffset: 0; stroke: #008000; stroke-opacity: 0.8; stroke-width: 3.5"/>
   </g>
   <g id="line2d_38">
    <path d="M 89.095966 400.79633 
L 90.165282 402.579494 
L 91.137387 403.819476 
L 92.012282 404.618049 
L 92.887177 405.112081 
L 93.664861 405.293793 
L 94.442545 405.233332 
L 95.22023 404.93213 
L 95.997914 404.392521 
L 96.872809 403.504472 
L 97.844914 402.175579 
L 98.91423 400.308908 
L 100.080757 397.806113 
L 101.344494 394.571475 
L 102.802652 390.205974 
L 104.455231 384.510082 
L 106.302231 377.320048 
L 108.538073 367.669597 
L 111.454389 354.014446 
L 119.620075 315.191277 
L 122.050338 305.012519 
L 124.18897 296.965887 
L 126.133181 290.460789 
L 127.980181 285.008013 
L 129.827181 280.241287 
L 131.576971 276.314836 
L 133.32676 272.905717 
L 135.173761 269.799302 
L 137.020761 267.122435 
L 138.964971 264.687759 
L 141.103603 262.37606 
L 143.339446 260.289236 
L 145.672499 258.410303 
L 148.005551 256.805464 
L 150.241394 255.521789 
L 152.380026 254.545403 
L 154.324236 253.89254 
L 156.171237 253.498725 
L 157.921026 253.344386 
L 159.670816 253.414507 
L 161.420606 253.716658 
L 163.170395 254.253773 
L 164.920185 255.023673 
L 166.767185 256.080541 
L 168.711396 257.448822 
L 170.850028 259.234607 
L 173.280291 261.574004 
L 176.099397 264.619103 
L 179.696187 268.855392 
L 191.16703 282.609627 
L 194.666609 286.317952 
L 197.874557 289.396174 
L 200.985294 292.078399 
L 204.096031 294.470956 
L 207.206769 296.588635 
L 210.317506 298.443469 
L 213.331032 299.988787 
L 216.247349 301.239113 
L 219.066454 302.204248 
L 221.691139 302.873385 
L 224.218613 303.29717 
L 226.746087 303.497022 
L 229.27356 303.47047 
L 231.801034 303.215583 
L 234.328508 302.736999 
L 236.953193 302.015575 
L 239.772299 301.007546 
L 242.883036 299.651696 
L 246.479826 297.830934 
L 251.145931 295.201015 
L 263.977722 287.834092 
L 268.254986 285.706137 
L 272.143407 284.013477 
L 275.837408 282.64489 
L 279.434198 281.547511 
L 283.030988 280.684447 
L 286.627777 280.052929 
L 290.224567 279.649184 
L 293.918568 279.463389 
L 297.709779 279.500743 
L 301.695411 279.768316 
L 305.972674 280.284575 
L 310.735991 281.093214 
L 316.374202 282.287675 
L 324.637097 284.294668 
L 336.399572 287.126554 
L 342.815468 288.430056 
L 348.453679 289.353771 
L 353.703048 289.99272 
L 358.855207 290.396286 
L 364.007365 290.578213 
L 369.353945 290.544168 
L 375.089366 290.279359 
L 381.505262 289.753257 
L 389.670947 288.846512 
L 412.515423 286.184045 
L 420.195055 285.590728 
L 427.583056 285.245547 
L 434.971057 285.125373 
L 442.845111 285.222835 
L 452.080112 285.568197 
L 465.884008 286.338355 
L 483.673536 287.289411 
L 494.658327 287.644667 
L 505.157065 287.760507 
L 516.627908 287.660329 
L 532.084384 287.282318 
L 559.594966 286.597896 
L 574.75981 286.47672 
L 591.674443 286.574878 
L 648.834239 287.097308 
L 677.802979 286.9479 
L 716.00672 286.79662 
L 761.112409 286.910563 
L 808.35673 286.923077 
L 818.077784 286.90756 
L 818.077784 286.90756 
" clip-path="url(#p0220aee88f)" style="fill: none; stroke-dasharray: 3.5,5.775; stroke-dashoffset: 0; stroke: #ff0000; stroke-opacity: 0.8; stroke-width: 3.5"/>
   </g>
  </g>
  <g id="text_26">
   <!-- Derivative Comparison (New Trajectory) -->
   <g style="fill: #262626" transform="translate(291.516875 22.4875) scale(0.16 -0.16)">
    <defs>
     <path id="ArialMT-44" d="M 494 0 
L 494 4581 
L 2072 4581 
Q 2606 4581 2888 4516 
Q 3281 4425 3559 4188 
Q 3922 3881 4101 3404 
Q 4281 2928 4281 2316 
Q 4281 1794 4159 1391 
Q 4038 988 3847 723 
Q 3656 459 3429 307 
Q 3203 156 2883 78 
Q 2563 0 2147 0 
L 494 0 
z
M 1100 541 
L 2078 541 
Q 2531 541 2789 625 
Q 3047 709 3200 863 
Q 3416 1078 3536 1442 
Q 3656 1806 3656 2325 
Q 3656 3044 3420 3430 
Q 3184 3816 2847 3947 
Q 2603 4041 2063 4041 
L 1100 4041 
L 1100 541 
z
" transform="scale(0.015625)"/>
     <path id="ArialMT-72" d="M 416 0 
L 416 3319 
L 922 3319 
L 922 2816 
Q 1116 3169 1280 3281 
Q 1444 3394 1641 3394 
Q 1925 3394 2219 3213 
L 2025 2691 
Q 1819 2813 1613 2813 
Q 1428 2813 1281 2702 
Q 1134 2591 1072 2394 
Q 978 2094 978 1738 
L 978 0 
L 416 0 
z
" transform="scale(0.015625)"/>
     <path id="ArialMT-76" d="M 1344 0 
L 81 3319 
L 675 3319 
L 1388 1331 
Q 1503 1009 1600 663 
Q 1675 925 1809 1294 
L 2547 3319 
L 3125 3319 
L 1869 0 
L 1344 0 
z
" transform="scale(0.015625)"/>
     <path id="ArialMT-61" d="M 2588 409 
Q 2275 144 1986 34 
Q 1697 -75 1366 -75 
Q 819 -75 525 192 
Q 231 459 231 875 
Q 231 1119 342 1320 
Q 453 1522 633 1644 
Q 813 1766 1038 1828 
Q 1203 1872 1538 1913 
Q 2219 1994 2541 2106 
Q 2544 2222 2544 2253 
Q 2544 2597 2384 2738 
Q 2169 2928 1744 2928 
Q 1347 2928 1158 2789 
Q 969 2650 878 2297 
L 328 2372 
Q 403 2725 575 2942 
Q 747 3159 1072 3276 
Q 1397 3394 1825 3394 
Q 2250 3394 2515 3294 
Q 2781 3194 2906 3042 
Q 3031 2891 3081 2659 
Q 3109 2516 3109 2141 
L 3109 1391 
Q 3109 606 3145 398 
Q 3181 191 3288 0 
L 2700 0 
Q 2613 175 2588 409 
z
M 2541 1666 
Q 2234 1541 1622 1453 
Q 1275 1403 1131 1340 
Q 988 1278 909 1158 
Q 831 1038 831 891 
Q 831 666 1001 516 
Q 1172 366 1500 366 
Q 1825 366 2078 508 
Q 2331 650 2450 897 
Q 2541 1088 2541 1459 
L 2541 1666 
z
" transform="scale(0.015625)"/>
     <path id="ArialMT-74" d="M 1650 503 
L 1731 6 
Q 1494 -44 1306 -44 
Q 1000 -44 831 53 
Q 663 150 594 308 
Q 525 466 525 972 
L 525 2881 
L 113 2881 
L 113 3319 
L 525 3319 
L 525 4141 
L 1084 4478 
L 1084 3319 
L 1650 3319 
L 1650 2881 
L 1084 2881 
L 1084 941 
Q 1084 700 1114 631 
Q 1144 563 1211 522 
Q 1278 481 1403 481 
Q 1497 481 1650 503 
z
" transform="scale(0.015625)"/>
     <path id="ArialMT-20" transform="scale(0.015625)"/>
     <path id="ArialMT-43" d="M 3763 1606 
L 4369 1453 
Q 4178 706 3683 314 
Q 3188 -78 2472 -78 
Q 1731 -78 1267 223 
Q 803 525 561 1097 
Q 319 1669 319 2325 
Q 319 3041 592 3573 
Q 866 4106 1370 4382 
Q 1875 4659 2481 4659 
Q 3169 4659 3637 4309 
Q 4106 3959 4291 3325 
L 3694 3184 
Q 3534 3684 3231 3912 
Q 2928 4141 2469 4141 
Q 1941 4141 1586 3887 
Q 1231 3634 1087 3207 
Q 944 2781 944 2328 
Q 944 1744 1114 1308 
Q 1284 872 1643 656 
Q 2003 441 2422 441 
Q 2931 441 3284 734 
Q 3638 1028 3763 1606 
z
" transform="scale(0.015625)"/>
     <path id="ArialMT-6f" d="M 213 1659 
Q 213 2581 725 3025 
Q 1153 3394 1769 3394 
Q 2453 3394 2887 2945 
Q 3322 2497 3322 1706 
Q 3322 1066 3130 698 
Q 2938 331 2570 128 
Q 2203 -75 1769 -75 
Q 1072 -75 642 372 
Q 213 819 213 1659 
z
M 791 1659 
Q 791 1022 1069 705 
Q 1347 388 1769 388 
Q 2188 388 2466 706 
Q 2744 1025 2744 1678 
Q 2744 2294 2464 2611 
Q 2184 2928 1769 2928 
Q 1347 2928 1069 2612 
Q 791 2297 791 1659 
z
" transform="scale(0.015625)"/>
     <path id="ArialMT-70" d="M 422 -1272 
L 422 3319 
L 934 3319 
L 934 2888 
Q 1116 3141 1344 3267 
Q 1572 3394 1897 3394 
Q 2322 3394 2647 3175 
Q 2972 2956 3137 2557 
Q 3303 2159 3303 1684 
Q 3303 1175 3120 767 
Q 2938 359 2589 142 
Q 2241 -75 1856 -75 
Q 1575 -75 1351 44 
Q 1128 163 984 344 
L 984 -1272 
L 422 -1272 
z
M 931 1641 
Q 931 1000 1190 694 
Q 1450 388 1819 388 
Q 2194 388 2461 705 
Q 2728 1022 2728 1688 
Q 2728 2322 2467 2637 
Q 2206 2953 1844 2953 
Q 1484 2953 1207 2617 
Q 931 2281 931 1641 
z
" transform="scale(0.015625)"/>
     <path id="ArialMT-73" d="M 197 991 
L 753 1078 
Q 800 744 1014 566 
Q 1228 388 1613 388 
Q 2000 388 2187 545 
Q 2375 703 2375 916 
Q 2375 1106 2209 1216 
Q 2094 1291 1634 1406 
Q 1016 1563 777 1677 
Q 538 1791 414 1992 
Q 291 2194 291 2438 
Q 291 2659 392 2848 
Q 494 3038 669 3163 
Q 800 3259 1026 3326 
Q 1253 3394 1513 3394 
Q 1903 3394 2198 3281 
Q 2494 3169 2634 2976 
Q 2775 2784 2828 2463 
L 2278 2388 
Q 2241 2644 2061 2787 
Q 1881 2931 1553 2931 
Q 1166 2931 1000 2803 
Q 834 2675 834 2503 
Q 834 2394 903 2306 
Q 972 2216 1119 2156 
Q 1203 2125 1616 2013 
Q 2213 1853 2448 1751 
Q 2684 1650 2818 1456 
Q 2953 1263 2953 975 
Q 2953 694 2789 445 
Q 2625 197 2315 61 
Q 2006 -75 1616 -75 
Q 969 -75 630 194 
Q 291 463 197 991 
z
" transform="scale(0.015625)"/>
     <path id="ArialMT-6e" d="M 422 0 
L 422 3319 
L 928 3319 
L 928 2847 
Q 1294 3394 1984 3394 
Q 2284 3394 2536 3286 
Q 2788 3178 2913 3003 
Q 3038 2828 3088 2588 
Q 3119 2431 3119 2041 
L 3119 0 
L 2556 0 
L 2556 2019 
Q 2556 2363 2490 2533 
Q 2425 2703 2258 2804 
Q 2091 2906 1866 2906 
Q 1506 2906 1245 2678 
Q 984 2450 984 1813 
L 984 0 
L 422 0 
z
" transform="scale(0.015625)"/>
     <path id="ArialMT-28" d="M 1497 -1347 
Q 1031 -759 709 28 
Q 388 816 388 1659 
Q 388 2403 628 3084 
Q 909 3875 1497 4659 
L 1900 4659 
Q 1522 4009 1400 3731 
Q 1209 3300 1100 2831 
Q 966 2247 966 1656 
Q 966 153 1900 -1347 
L 1497 -1347 
z
" transform="scale(0.015625)"/>
     <path id="ArialMT-4e" d="M 488 0 
L 488 4581 
L 1109 4581 
L 3516 984 
L 3516 4581 
L 4097 4581 
L 4097 0 
L 3475 0 
L 1069 3600 
L 1069 0 
L 488 0 
z
" transform="scale(0.015625)"/>
     <path id="ArialMT-77" d="M 1034 0 
L 19 3319 
L 600 3319 
L 1128 1403 
L 1325 691 
Q 1338 744 1497 1375 
L 2025 3319 
L 2603 3319 
L 3100 1394 
L 3266 759 
L 3456 1400 
L 4025 3319 
L 4572 3319 
L 3534 0 
L 2950 0 
L 2422 1988 
L 2294 2553 
L 1622 0 
L 1034 0 
z
" transform="scale(0.015625)"/>
     <path id="ArialMT-6a" d="M 419 3928 
L 419 4581 
L 981 4581 
L 981 3928 
L 419 3928 
z
M -294 -1288 
L -188 -809 
Q -19 -853 78 -853 
Q 250 -853 334 -739 
Q 419 -625 419 -169 
L 419 3319 
L 981 3319 
L 981 -181 
Q 981 -794 822 -1034 
Q 619 -1347 147 -1347 
Q -81 -1347 -294 -1288 
z
" transform="scale(0.015625)"/>
     <path id="ArialMT-63" d="M 2588 1216 
L 3141 1144 
Q 3050 572 2676 248 
Q 2303 -75 1759 -75 
Q 1078 -75 664 370 
Q 250 816 250 1647 
Q 250 2184 428 2587 
Q 606 2991 970 3192 
Q 1334 3394 1763 3394 
Q 2303 3394 2647 3120 
Q 2991 2847 3088 2344 
L 2541 2259 
Q 2463 2594 2264 2762 
Q 2066 2931 1784 2931 
Q 1359 2931 1093 2626 
Q 828 2322 828 1663 
Q 828 994 1084 691 
Q 1341 388 1753 388 
Q 2084 388 2306 591 
Q 2528 794 2588 1216 
z
" transform="scale(0.015625)"/>
     <path id="ArialMT-79" d="M 397 -1278 
L 334 -750 
Q 519 -800 656 -800 
Q 844 -800 956 -737 
Q 1069 -675 1141 -563 
Q 1194 -478 1313 -144 
Q 1328 -97 1363 -6 
L 103 3319 
L 709 3319 
L 1400 1397 
Q 1534 1031 1641 628 
Q 1738 1016 1872 1384 
L 2581 3319 
L 3144 3319 
L 1881 -56 
Q 1678 -603 1566 -809 
Q 1416 -1088 1222 -1217 
Q 1028 -1347 759 -1347 
Q 597 -1347 397 -1278 
z
" transform="scale(0.015625)"/>
     <path id="ArialMT-29" d="M 791 -1347 
L 388 -1347 
Q 1322 153 1322 1656 
Q 1322 2244 1188 2822 
Q 1081 3291 891 3722 
Q 769 4003 388 4659 
L 791 4659 
Q 1378 3875 1659 3084 
Q 1900 2403 1900 1659 
Q 1900 816 1576 28 
Q 1253 -759 791 -1347 
z
" transform="scale(0.015625)"/>
    </defs>
    <use xlink:href="#ArialMT-44"/>
    <use xlink:href="#ArialMT-65" transform="translate(72.216797 0)"/>
    <use xlink:href="#ArialMT-72" transform="translate(127.832031 0)"/>
    <use xlink:href="#ArialMT-69" transform="translate(161.132812 0)"/>
    <use xlink:href="#ArialMT-76" transform="translate(183.349609 0)"/>
    <use xlink:href="#ArialMT-61" transform="translate(233.349609 0)"/>
    <use xlink:href="#ArialMT-74" transform="translate(288.964844 0)"/>
    <use xlink:href="#ArialMT-69" transform="translate(316.748047 0)"/>
    <use xlink:href="#ArialMT-76" transform="translate(338.964844 0)"/>
    <use xlink:href="#ArialMT-65" transform="translate(388.964844 0)"/>
    <use xlink:href="#ArialMT-20" transform="translate(444.580078 0)"/>
    <use xlink:href="#ArialMT-43" transform="translate(472.363281 0)"/>
    <use xlink:href="#ArialMT-6f" transform="translate(544.580078 0)"/>
    <use xlink:href="#ArialMT-6d" transform="translate(600.195312 0)"/>
    <use xlink:href="#ArialMT-70" transform="translate(683.496094 0)"/>
    <use xlink:href="#ArialMT-61" transform="translate(739.111328 0)"/>
    <use xlink:href="#ArialMT-72" transform="translate(794.726562 0)"/>
    <use xlink:href="#ArialMT-69" transform="translate(828.027344 0)"/>
    <use xlink:href="#ArialMT-73" transform="translate(850.244141 0)"/>
    <use xlink:href="#ArialMT-6f" transform="translate(900.244141 0)"/>
    <use xlink:href="#ArialMT-6e" transform="translate(955.859375 0)"/>
    <use xlink:href="#ArialMT-20" transform="translate(1011.474609 0)"/>
    <use xlink:href="#ArialMT-28" transform="translate(1039.257812 0)"/>
    <use xlink:href="#ArialMT-4e" transform="translate(1072.558594 0)"/>
    <use xlink:href="#ArialMT-65" transform="translate(1144.775391 0)"/>
    <use xlink:href="#ArialMT-77" transform="translate(1200.390625 0)"/>
    <use xlink:href="#ArialMT-20" transform="translate(1272.607422 0)"/>
    <use xlink:href="#ArialMT-54" transform="translate(1298.640625 0)"/>
    <use xlink:href="#ArialMT-72" transform="translate(1355.974609 0)"/>
    <use xlink:href="#ArialMT-61" transform="translate(1389.275391 0)"/>
    <use xlink:href="#ArialMT-6a" transform="translate(1444.890625 0)"/>
    <use xlink:href="#ArialMT-65" transform="translate(1467.107422 0)"/>
    <use xlink:href="#ArialMT-63" transform="translate(1522.722656 0)"/>
    <use xlink:href="#ArialMT-74" transform="translate(1572.722656 0)"/>
    <use xlink:href="#ArialMT-6f" transform="translate(1600.505859 0)"/>
    <use xlink:href="#ArialMT-72" transform="translate(1656.121094 0)"/>
    <use xlink:href="#ArialMT-79" transform="translate(1689.421875 0)"/>
    <use xlink:href="#ArialMT-29" transform="translate(1739.421875 0)"/>
   </g>
  </g>
  <g id="legend_1">
   <g id="patch_12">
    <path d="M 756.27375 65.298437 
L 860.526875 65.298437 
Q 862.526875 65.298437 862.526875 63.298437 
L 862.526875 7 
Q 862.526875 5 860.526875 5 
L 756.27375 5 
Q 754.27375 5 754.27375 7 
L 754.27375 63.298437 
Q 754.27375 65.298437 756.27375 65.298437 
z
" style="fill: #ffffff; opacity: 0.9; stroke: #cccccc; stroke-linejoin: miter"/>
   </g>
   <g id="line2d_39">
    <path d="M 758.27375 12.657812 
L 768.27375 12.657812 
L 778.27375 12.657812 
" style="fill: none; stroke: #808080; stroke-opacity: 0.5; stroke-width: 6; stroke-linecap: round"/>
   </g>
   <g id="text_27">
    <!-- True Derivative -->
    <g style="fill: #262626" transform="translate(786.27375 16.157812) scale(0.1 -0.1)">
     <defs>
      <path id="ArialMT-75" d="M 2597 0 
L 2597 488 
Q 2209 -75 1544 -75 
Q 1250 -75 995 37 
Q 741 150 617 320 
Q 494 491 444 738 
Q 409 903 409 1263 
L 409 3319 
L 972 3319 
L 972 1478 
Q 972 1038 1006 884 
Q 1059 663 1231 536 
Q 1403 409 1656 409 
Q 1909 409 2131 539 
Q 2353 669 2445 892 
Q 2538 1116 2538 1541 
L 2538 3319 
L 3100 3319 
L 3100 0 
L 2597 0 
z
" transform="scale(0.015625)"/>
     </defs>
     <use xlink:href="#ArialMT-54"/>
     <use xlink:href="#ArialMT-72" transform="translate(57.333984 0)"/>
     <use xlink:href="#ArialMT-75" transform="translate(90.634766 0)"/>
     <use xlink:href="#ArialMT-65" transform="translate(146.25 0)"/>
     <use xlink:href="#ArialMT-20" transform="translate(201.865234 0)"/>
     <use xlink:href="#ArialMT-44" transform="translate(229.648438 0)"/>
     <use xlink:href="#ArialMT-65" transform="translate(301.865234 0)"/>
     <use xlink:href="#ArialMT-72" transform="translate(357.480469 0)"/>
     <use xlink:href="#ArialMT-69" transform="translate(390.78125 0)"/>
     <use xlink:href="#ArialMT-76" transform="translate(412.998047 0)"/>
     <use xlink:href="#ArialMT-61" transform="translate(462.998047 0)"/>
     <use xlink:href="#ArialMT-74" transform="translate(518.613281 0)"/>
     <use xlink:href="#ArialMT-69" transform="translate(546.396484 0)"/>
     <use xlink:href="#ArialMT-76" transform="translate(568.613281 0)"/>
     <use xlink:href="#ArialMT-65" transform="translate(618.613281 0)"/>
    </g>
   </g>
   <g id="line2d_40">
    <path d="M 758.27375 26.925 
L 768.27375 26.925 
L 778.27375 26.925 
" style="fill: none; stroke-dasharray: 3.5,5.775; stroke-dashoffset: 0; stroke: #ff0000; stroke-opacity: 0.8; stroke-width: 3.5"/>
   </g>
   <g id="text_28">
    <!-- AutoSINDy -->
    <g style="fill: #262626" transform="translate(786.27375 30.425) scale(0.1 -0.1)">
     <defs>
      <path id="ArialMT-41" d="M -9 0 
L 1750 4581 
L 2403 4581 
L 4278 0 
L 3588 0 
L 3053 1388 
L 1138 1388 
L 634 0 
L -9 0 
z
M 1313 1881 
L 2866 1881 
L 2388 3150 
Q 2169 3728 2063 4100 
Q 1975 3659 1816 3225 
L 1313 1881 
z
" transform="scale(0.015625)"/>
      <path id="ArialMT-53" d="M 288 1472 
L 859 1522 
Q 900 1178 1048 958 
Q 1197 738 1509 602 
Q 1822 466 2213 466 
Q 2559 466 2825 569 
Q 3091 672 3220 851 
Q 3350 1031 3350 1244 
Q 3350 1459 3225 1620 
Q 3100 1781 2813 1891 
Q 2628 1963 1997 2114 
Q 1366 2266 1113 2400 
Q 784 2572 623 2826 
Q 463 3081 463 3397 
Q 463 3744 659 4045 
Q 856 4347 1234 4503 
Q 1613 4659 2075 4659 
Q 2584 4659 2973 4495 
Q 3363 4331 3572 4012 
Q 3781 3694 3797 3291 
L 3216 3247 
Q 3169 3681 2898 3903 
Q 2628 4125 2100 4125 
Q 1550 4125 1298 3923 
Q 1047 3722 1047 3438 
Q 1047 3191 1225 3031 
Q 1400 2872 2139 2705 
Q 2878 2538 3153 2413 
Q 3553 2228 3743 1945 
Q 3934 1663 3934 1294 
Q 3934 928 3725 604 
Q 3516 281 3123 101 
Q 2731 -78 2241 -78 
Q 1619 -78 1198 103 
Q 778 284 539 648 
Q 300 1013 288 1472 
z
" transform="scale(0.015625)"/>
      <path id="ArialMT-49" d="M 597 0 
L 597 4581 
L 1203 4581 
L 1203 0 
L 597 0 
z
" transform="scale(0.015625)"/>
     </defs>
     <use xlink:href="#ArialMT-41"/>
     <use xlink:href="#ArialMT-75" transform="translate(66.699219 0)"/>
     <use xlink:href="#ArialMT-74" transform="translate(122.314453 0)"/>
     <use xlink:href="#ArialMT-6f" transform="translate(150.097656 0)"/>
     <use xlink:href="#ArialMT-53" transform="translate(205.712891 0)"/>
     <use xlink:href="#ArialMT-49" transform="translate(272.412109 0)"/>
     <use xlink:href="#ArialMT-4e" transform="translate(300.195312 0)"/>
     <use xlink:href="#ArialMT-44" transform="translate(372.412109 0)"/>
     <use xlink:href="#ArialMT-79" transform="translate(444.628906 0)"/>
    </g>
   </g>
   <g id="line2d_41">
    <path d="M 758.27375 41.309375 
L 768.27375 41.309375 
L 778.27375 41.309375 
" style="fill: none; stroke-dasharray: 22.4,5.6,3.5,5.6; stroke-dashoffset: 0; stroke: #008000; stroke-opacity: 0.8; stroke-width: 3.5"/>
   </g>
   <g id="text_29">
    <!-- Standard SINDy -->
    <g style="fill: #262626" transform="translate(786.27375 44.809375) scale(0.1 -0.1)">
     <defs>
      <path id="ArialMT-64" d="M 2575 0 
L 2575 419 
Q 2259 -75 1647 -75 
Q 1250 -75 917 144 
Q 584 363 401 755 
Q 219 1147 219 1656 
Q 219 2153 384 2558 
Q 550 2963 881 3178 
Q 1213 3394 1622 3394 
Q 1922 3394 2156 3267 
Q 2391 3141 2538 2938 
L 2538 4581 
L 3097 4581 
L 3097 0 
L 2575 0 
z
M 797 1656 
Q 797 1019 1065 703 
Q 1334 388 1700 388 
Q 2069 388 2326 689 
Q 2584 991 2584 1609 
Q 2584 2291 2321 2609 
Q 2059 2928 1675 2928 
Q 1300 2928 1048 2622 
Q 797 2316 797 1656 
z
" transform="scale(0.015625)"/>
     </defs>
     <use xlink:href="#ArialMT-53"/>
     <use xlink:href="#ArialMT-74" transform="translate(66.699219 0)"/>
     <use xlink:href="#ArialMT-61" transform="translate(94.482422 0)"/>
     <use xlink:href="#ArialMT-6e" transform="translate(150.097656 0)"/>
     <use xlink:href="#ArialMT-64" transform="translate(205.712891 0)"/>
     <use xlink:href="#ArialMT-61" transform="translate(261.328125 0)"/>
     <use xlink:href="#ArialMT-72" transform="translate(316.943359 0)"/>
     <use xlink:href="#ArialMT-64" transform="translate(350.244141 0)"/>
     <use xlink:href="#ArialMT-20" transform="translate(405.859375 0)"/>
     <use xlink:href="#ArialMT-53" transform="translate(433.642578 0)"/>
     <use xlink:href="#ArialMT-49" transform="translate(500.341797 0)"/>
     <use xlink:href="#ArialMT-4e" transform="translate(528.125 0)"/>
     <use xlink:href="#ArialMT-44" transform="translate(600.341797 0)"/>
     <use xlink:href="#ArialMT-79" transform="translate(672.558594 0)"/>
    </g>
   </g>
   <g id="line2d_42">
    <path d="M 758.27375 55.69375 
L 768.27375 55.69375 
L 778.27375 55.69375 
" style="fill: none; stroke-dasharray: 12.95,5.6; stroke-dashoffset: 0; stroke: #0000ff; stroke-opacity: 0.8; stroke-width: 3.5"/>
   </g>
   <g id="text_30">
    <!-- Standard PySR -->
    <g style="fill: #262626" transform="translate(786.27375 59.19375) scale(0.1 -0.1)">
     <defs>
      <path id="ArialMT-50" d="M 494 0 
L 494 4581 
L 2222 4581 
Q 2678 4581 2919 4538 
Q 3256 4481 3484 4323 
Q 3713 4166 3852 3881 
Q 3991 3597 3991 3256 
Q 3991 2672 3619 2267 
Q 3247 1863 2275 1863 
L 1100 1863 
L 1100 0 
L 494 0 
z
M 1100 2403 
L 2284 2403 
Q 2872 2403 3119 2622 
Q 3366 2841 3366 3238 
Q 3366 3525 3220 3729 
Q 3075 3934 2838 4000 
Q 2684 4041 2272 4041 
L 1100 4041 
L 1100 2403 
z
" transform="scale(0.015625)"/>
      <path id="ArialMT-52" d="M 503 0 
L 503 4581 
L 2534 4581 
Q 3147 4581 3465 4457 
Q 3784 4334 3975 4021 
Q 4166 3709 4166 3331 
Q 4166 2844 3850 2509 
Q 3534 2175 2875 2084 
Q 3116 1969 3241 1856 
Q 3506 1613 3744 1247 
L 4541 0 
L 3778 0 
L 3172 953 
Q 2906 1366 2734 1584 
Q 2563 1803 2427 1890 
Q 2291 1978 2150 2013 
Q 2047 2034 1813 2034 
L 1109 2034 
L 1109 0 
L 503 0 
z
M 1109 2559 
L 2413 2559 
Q 2828 2559 3062 2645 
Q 3297 2731 3419 2920 
Q 3541 3109 3541 3331 
Q 3541 3656 3305 3865 
Q 3069 4075 2559 4075 
L 1109 4075 
L 1109 2559 
z
" transform="scale(0.015625)"/>
     </defs>
     <use xlink:href="#ArialMT-53"/>
     <use xlink:href="#ArialMT-74" transform="translate(66.699219 0)"/>
     <use xlink:href="#ArialMT-61" transform="translate(94.482422 0)"/>
     <use xlink:href="#ArialMT-6e" transform="translate(150.097656 0)"/>
     <use xlink:href="#ArialMT-64" transform="translate(205.712891 0)"/>
     <use xlink:href="#ArialMT-61" transform="translate(261.328125 0)"/>
     <use xlink:href="#ArialMT-72" transform="translate(316.943359 0)"/>
     <use xlink:href="#ArialMT-64" transform="translate(350.244141 0)"/>
     <use xlink:href="#ArialMT-20" transform="translate(405.859375 0)"/>
     <use xlink:href="#ArialMT-50" transform="translate(433.642578 0)"/>
     <use xlink:href="#ArialMT-79" transform="translate(500.341797 0)"/>
     <use xlink:href="#ArialMT-53" transform="translate(550.341797 0)"/>
     <use xlink:href="#ArialMT-52" transform="translate(617.041016 0)"/>
    </g>
   </g>
  </g>
 </g>
 <defs>
  <clipPath id="pc71539c8e7">
   <rect x="52.646875" y="39.04" width="801.88" height="172.16"/>
  </clipPath>
  <clipPath id="p0220aee88f">
   <rect x="52.646875" y="222" width="801.88" height="172.16"/>
  </clipPath>
 </defs>
</svg>
