<?xml version="1.0" encoding="utf-8" standalone="no"?>
<!DOCTYPE svg PUBLIC "-//W3C//DTD SVG 1.1//EN"
  "http://www.w3.org/Graphics/SVG/1.1/DTD/svg11.dtd">
<svg xmlns:xlink="http://www.w3.org/1999/xlink" width="568.380313pt" height="567.994375pt" viewBox="0 0 568.380313 567.994375" xmlns="http://www.w3.org/2000/svg" version="1.1">
 <metadata>
  <rdf:RDF xmlns:dc="http://purl.org/dc/elements/1.1/" xmlns:cc="http://creativecommons.org/ns#" xmlns:rdf="http://www.w3.org/1999/02/22-rdf-syntax-ns#">
   <cc:Work>
    <dc:type rdf:resource="http://purl.org/dc/dcmitype/StillImage"/>
    <dc:date>2026-04-05T22:24:49.662073</dc:date>
    <dc:format>image/svg+xml</dc:format>
    <dc:creator>
     <cc:Agent>
      <dc:title>Matplotlib v3.10.7, https://matplotlib.org/</dc:title>
     </cc:Agent>
    </dc:creator>
   </cc:Work>
  </rdf:RDF>
 </metadata>
 <defs>
  <style type="text/css">*{stroke-linejoin: round; stroke-linecap: butt}</style>
 </defs>
 <g id="figure_1">
  <g id="patch_1">
   <path d="M 0 567.994375 
L 568.380313 567.994375 
L 568.380313 0 
L 0 0 
z
" style="fill: #ffffff"/>
  </g>
  <g id="axes_1">
   <g id="patch_2">
    <path d="M 42.620313 530.438125 
L 561.180312 530.438125 
L 561.180312 22.318125 
L 42.620313 22.318125 
z
" style="fill: #ffffff"/>
   </g>
   <g id="matplotlib.axis_1">
    <g id="xtick_1">
     <g id="line2d_1">
      <defs>
       <path id="m8d39ab938d" d="M 0 0 
L 0 3.5 
" style="stroke: #000000; stroke-width: 0.8"/>
      </defs>
      <g>
       <use xlink:href="#m8d39ab938d" x="68.584995" y="530.438125" style="stroke: #000000; stroke-width: 0.8"/>
      </g>
     </g>
     <g id="text_1">
      <!-- −2.0 -->
      <g transform="translate(56.443588 545.036562) scale(0.1 -0.1)">
       <defs>
        <path id="DejaVuSans-2212" d="M 678 2272 
L 4684 2272 
L 4684 1741 
L 678 1741 
L 678 2272 
z
" transform="scale(0.015625)"/>
        <path id="DejaVuSans-32" d="M 1228 531 
L 3431 531 
L 3431 0 
L 469 0 
L 469 531 
Q 828 903 1448 1529 
Q 2069 2156 2228 2338 
Q 2531 2678 2651 2914 
Q 2772 3150 2772 3378 
Q 2772 3750 2511 3984 
Q 2250 4219 1831 4219 
Q 1534 4219 1204 4116 
Q 875 4013 500 3803 
L 500 4441 
Q 881 4594 1212 4672 
Q 1544 4750 1819 4750 
Q 2544 4750 2975 4387 
Q 3406 4025 3406 3419 
Q 3406 3131 3298 2873 
Q 3191 2616 2906 2266 
Q 2828 2175 2409 1742 
Q 1991 1309 1228 531 
z
" transform="scale(0.015625)"/>
        <path id="DejaVuSans-2e" d="M 684 794 
L 1344 794 
L 1344 0 
L 684 0 
L 684 794 
z
" transform="scale(0.015625)"/>
        <path id="DejaVuSans-30" d="M 2034 4250 
Q 1547 4250 1301 3770 
Q 1056 3291 1056 2328 
Q 1056 1369 1301 889 
Q 1547 409 2034 409 
Q 2525 409 2770 889 
Q 3016 1369 3016 2328 
Q 3016 3291 2770 3770 
Q 2525 4250 2034 4250 
z
M 2034 4750 
Q 2819 4750 3233 4129 
Q 3647 3509 3647 2328 
Q 3647 1150 3233 529 
Q 2819 -91 2034 -91 
Q 1250 -91 836 529 
Q 422 1150 422 2328 
Q 422 3509 836 4129 
Q 1250 4750 2034 4750 
z
" transform="scale(0.015625)"/>
       </defs>
       <use xlink:href="#DejaVuSans-2212"/>
       <use xlink:href="#DejaVuSans-32" transform="translate(83.789062 0)"/>
       <use xlink:href="#DejaVuSans-2e" transform="translate(147.412109 0)"/>
       <use xlink:href="#DejaVuSans-30" transform="translate(179.199219 0)"/>
      </g>
     </g>
    </g>
    <g id="xtick_2">
     <g id="line2d_2">
      <g>
       <use xlink:href="#m8d39ab938d" x="126.835434" y="530.438125" style="stroke: #000000; stroke-width: 0.8"/>
      </g>
     </g>
     <g id="text_2">
      <!-- −1.5 -->
      <g transform="translate(114.694028 545.036562) scale(0.1 -0.1)">
       <defs>
        <path id="DejaVuSans-31" d="M 794 531 
L 1825 531 
L 1825 4091 
L 703 3866 
L 703 4441 
L 1819 4666 
L 2450 4666 
L 2450 531 
L 3481 531 
L 3481 0 
L 794 0 
L 794 531 
z
" transform="scale(0.015625)"/>
        <path id="DejaVuSans-35" d="M 691 4666 
L 3169 4666 
L 3169 4134 
L 1269 4134 
L 1269 2991 
Q 1406 3038 1543 3061 
Q 1681 3084 1819 3084 
Q 2600 3084 3056 2656 
Q 3513 2228 3513 1497 
Q 3513 744 3044 326 
Q 2575 -91 1722 -91 
Q 1428 -91 1123 -41 
Q 819 9 494 109 
L 494 744 
Q 775 591 1075 516 
Q 1375 441 1709 441 
Q 2250 441 2565 725 
Q 2881 1009 2881 1497 
Q 2881 1984 2565 2268 
Q 2250 2553 1709 2553 
Q 1456 2553 1204 2497 
Q 953 2441 691 2322 
L 691 4666 
z
" transform="scale(0.015625)"/>
       </defs>
       <use xlink:href="#DejaVuSans-2212"/>
       <use xlink:href="#DejaVuSans-31" transform="translate(83.789062 0)"/>
       <use xlink:href="#DejaVuSans-2e" transform="translate(147.412109 0)"/>
       <use xlink:href="#DejaVuSans-35" transform="translate(179.199219 0)"/>
      </g>
     </g>
    </g>
    <g id="xtick_3">
     <g id="line2d_3">
      <g>
       <use xlink:href="#m8d39ab938d" x="185.085873" y="530.438125" style="stroke: #000000; stroke-width: 0.8"/>
      </g>
     </g>
     <g id="text_3">
      <!-- −1.0 -->
      <g transform="translate(172.944467 545.036562) scale(0.1 -0.1)">
       <use xlink:href="#DejaVuSans-2212"/>
       <use xlink:href="#DejaVuSans-31" transform="translate(83.789062 0)"/>
       <use xlink:href="#DejaVuSans-2e" transform="translate(147.412109 0)"/>
       <use xlink:href="#DejaVuSans-30" transform="translate(179.199219 0)"/>
      </g>
     </g>
    </g>
    <g id="xtick_4">
     <g id="line2d_4">
      <g>
       <use xlink:href="#m8d39ab938d" x="243.336312" y="530.438125" style="stroke: #000000; stroke-width: 0.8"/>
      </g>
     </g>
     <g id="text_4">
      <!-- −0.5 -->
      <g transform="translate(231.194906 545.036562) scale(0.1 -0.1)">
       <use xlink:href="#DejaVuSans-2212"/>
       <use xlink:href="#DejaVuSans-30" transform="translate(83.789062 0)"/>
       <use xlink:href="#DejaVuSans-2e" transform="translate(147.412109 0)"/>
       <use xlink:href="#DejaVuSans-35" transform="translate(179.199219 0)"/>
      </g>
     </g>
    </g>
    <g id="xtick_5">
     <g id="line2d_5">
      <g>
       <use xlink:href="#m8d39ab938d" x="301.586751" y="530.438125" style="stroke: #000000; stroke-width: 0.8"/>
      </g>
     </g>
     <g id="text_5">
      <!-- 0.0 -->
      <g transform="translate(293.635189 545.036562) scale(0.1 -0.1)">
       <use xlink:href="#DejaVuSans-30"/>
       <use xlink:href="#DejaVuSans-2e" transform="translate(63.623047 0)"/>
       <use xlink:href="#DejaVuSans-30" transform="translate(95.410156 0)"/>
      </g>
     </g>
    </g>
    <g id="xtick_6">
     <g id="line2d_6">
      <g>
       <use xlink:href="#m8d39ab938d" x="359.837191" y="530.438125" style="stroke: #000000; stroke-width: 0.8"/>
      </g>
     </g>
     <g id="text_6">
      <!-- 0.5 -->
      <g transform="translate(351.885628 545.036562) scale(0.1 -0.1)">
       <use xlink:href="#DejaVuSans-30"/>
       <use xlink:href="#DejaVuSans-2e" transform="translate(63.623047 0)"/>
       <use xlink:href="#DejaVuSans-35" transform="translate(95.410156 0)"/>
      </g>
     </g>
    </g>
    <g id="xtick_7">
     <g id="line2d_7">
      <g>
       <use xlink:href="#m8d39ab938d" x="418.08763" y="530.438125" style="stroke: #000000; stroke-width: 0.8"/>
      </g>
     </g>
     <g id="text_7">
      <!-- 1.0 -->
      <g transform="translate(410.136067 545.036562) scale(0.1 -0.1)">
       <use xlink:href="#DejaVuSans-31"/>
       <use xlink:href="#DejaVuSans-2e" transform="translate(63.623047 0)"/>
       <use xlink:href="#DejaVuSans-30" transform="translate(95.410156 0)"/>
      </g>
     </g>
    </g>
    <g id="xtick_8">
     <g id="line2d_8">
      <g>
       <use xlink:href="#m8d39ab938d" x="476.338069" y="530.438125" style="stroke: #000000; stroke-width: 0.8"/>
      </g>
     </g>
     <g id="text_8">
      <!-- 1.5 -->
      <g transform="translate(468.386506 545.036562) scale(0.1 -0.1)">
       <use xlink:href="#DejaVuSans-31"/>
       <use xlink:href="#DejaVuSans-2e" transform="translate(63.623047 0)"/>
       <use xlink:href="#DejaVuSans-35" transform="translate(95.410156 0)"/>
      </g>
     </g>
    </g>
    <g id="xtick_9">
     <g id="line2d_9">
      <g>
       <use xlink:href="#m8d39ab938d" x="534.588508" y="530.438125" style="stroke: #000000; stroke-width: 0.8"/>
      </g>
     </g>
     <g id="text_9">
      <!-- 2.0 -->
      <g transform="translate(526.636946 545.036562) scale(0.1 -0.1)">
       <use xlink:href="#DejaVuSans-32"/>
       <use xlink:href="#DejaVuSans-2e" transform="translate(63.623047 0)"/>
       <use xlink:href="#DejaVuSans-30" transform="translate(95.410156 0)"/>
      </g>
     </g>
    </g>
    <g id="text_10">
     <!-- x0 -->
     <g transform="translate(295.759687 558.714687) scale(0.1 -0.1)">
      <defs>
       <path id="DejaVuSans-78" d="M 3513 3500 
L 2247 1797 
L 3578 0 
L 2900 0 
L 1881 1375 
L 863 0 
L 184 0 
L 1544 1831 
L 300 3500 
L 978 3500 
L 1906 2253 
L 2834 3500 
L 3513 3500 
z
" transform="scale(0.015625)"/>
      </defs>
      <use xlink:href="#DejaVuSans-78"/>
      <use xlink:href="#DejaVuSans-30" transform="translate(59.179688 0)"/>
     </g>
    </g>
   </g>
   <g id="matplotlib.axis_2">
    <g id="ytick_1">
     <g id="line2d_10">
      <defs>
       <path id="m77faba6b64" d="M 0 0 
L -3.5 0 
" style="stroke: #000000; stroke-width: 0.8"/>
      </defs>
      <g>
       <use xlink:href="#m77faba6b64" x="42.620313" y="517.770761" style="stroke: #000000; stroke-width: 0.8"/>
      </g>
     </g>
     <g id="text_11">
      <!-- −4 -->
      <g transform="translate(20.878125 521.569979) scale(0.1 -0.1)">
       <defs>
        <path id="DejaVuSans-34" d="M 2419 4116 
L 825 1625 
L 2419 1625 
L 2419 4116 
z
M 2253 4666 
L 3047 4666 
L 3047 1625 
L 3713 1625 
L 3713 1100 
L 3047 1100 
L 3047 0 
L 2419 0 
L 2419 1100 
L 313 1100 
L 313 1709 
L 2253 4666 
z
" transform="scale(0.015625)"/>
       </defs>
       <use xlink:href="#DejaVuSans-2212"/>
       <use xlink:href="#DejaVuSans-34" transform="translate(83.789062 0)"/>
      </g>
     </g>
    </g>
    <g id="ytick_2">
     <g id="line2d_11">
      <g>
       <use xlink:href="#m77faba6b64" x="42.620313" y="457.402084" style="stroke: #000000; stroke-width: 0.8"/>
      </g>
     </g>
     <g id="text_12">
      <!-- −3 -->
      <g transform="translate(20.878125 461.201303) scale(0.1 -0.1)">
       <defs>
        <path id="DejaVuSans-33" d="M 2597 2516 
Q 3050 2419 3304 2112 
Q 3559 1806 3559 1356 
Q 3559 666 3084 287 
Q 2609 -91 1734 -91 
Q 1441 -91 1130 -33 
Q 819 25 488 141 
L 488 750 
Q 750 597 1062 519 
Q 1375 441 1716 441 
Q 2309 441 2620 675 
Q 2931 909 2931 1356 
Q 2931 1769 2642 2001 
Q 2353 2234 1838 2234 
L 1294 2234 
L 1294 2753 
L 1863 2753 
Q 2328 2753 2575 2939 
Q 2822 3125 2822 3475 
Q 2822 3834 2567 4026 
Q 2313 4219 1838 4219 
Q 1578 4219 1281 4162 
Q 984 4106 628 3988 
L 628 4550 
Q 988 4650 1302 4700 
Q 1616 4750 1894 4750 
Q 2613 4750 3031 4423 
Q 3450 4097 3450 3541 
Q 3450 3153 3228 2886 
Q 3006 2619 2597 2516 
z
" transform="scale(0.015625)"/>
       </defs>
       <use xlink:href="#DejaVuSans-2212"/>
       <use xlink:href="#DejaVuSans-33" transform="translate(83.789062 0)"/>
      </g>
     </g>
    </g>
    <g id="ytick_3">
     <g id="line2d_12">
      <g>
       <use xlink:href="#m77faba6b64" x="42.620313" y="397.033408" style="stroke: #000000; stroke-width: 0.8"/>
      </g>
     </g>
     <g id="text_13">
      <!-- −2 -->
      <g transform="translate(20.878125 400.832627) scale(0.1 -0.1)">
       <use xlink:href="#DejaVuSans-2212"/>
       <use xlink:href="#DejaVuSans-32" transform="translate(83.789062 0)"/>
      </g>
     </g>
    </g>
    <g id="ytick_4">
     <g id="line2d_13">
      <g>
       <use xlink:href="#m77faba6b64" x="42.620313" y="336.664732" style="stroke: #000000; stroke-width: 0.8"/>
      </g>
     </g>
     <g id="text_14">
      <!-- −1 -->
      <g transform="translate(20.878125 340.463951) scale(0.1 -0.1)">
       <use xlink:href="#DejaVuSans-2212"/>
       <use xlink:href="#DejaVuSans-31" transform="translate(83.789062 0)"/>
      </g>
     </g>
    </g>
    <g id="ytick_5">
     <g id="line2d_14">
      <g>
       <use xlink:href="#m77faba6b64" x="42.620313" y="276.296056" style="stroke: #000000; stroke-width: 0.8"/>
      </g>
     </g>
     <g id="text_15">
      <!-- 0 -->
      <g transform="translate(29.257813 280.095275) scale(0.1 -0.1)">
       <use xlink:href="#DejaVuSans-30"/>
      </g>
     </g>
    </g>
    <g id="ytick_6">
     <g id="line2d_15">
      <g>
       <use xlink:href="#m77faba6b64" x="42.620313" y="215.92738" style="stroke: #000000; stroke-width: 0.8"/>
      </g>
     </g>
     <g id="text_16">
      <!-- 1 -->
      <g transform="translate(29.257813 219.726599) scale(0.1 -0.1)">
       <use xlink:href="#DejaVuSans-31"/>
      </g>
     </g>
    </g>
    <g id="ytick_7">
     <g id="line2d_16">
      <g>
       <use xlink:href="#m77faba6b64" x="42.620313" y="155.558704" style="stroke: #000000; stroke-width: 0.8"/>
      </g>
     </g>
     <g id="text_17">
      <!-- 2 -->
      <g transform="translate(29.257813 159.357923) scale(0.1 -0.1)">
       <use xlink:href="#DejaVuSans-32"/>
      </g>
     </g>
    </g>
    <g id="ytick_8">
     <g id="line2d_17">
      <g>
       <use xlink:href="#m77faba6b64" x="42.620313" y="95.190028" style="stroke: #000000; stroke-width: 0.8"/>
      </g>
     </g>
     <g id="text_18">
      <!-- 3 -->
      <g transform="translate(29.257813 98.989246) scale(0.1 -0.1)">
       <use xlink:href="#DejaVuSans-33"/>
      </g>
     </g>
    </g>
    <g id="ytick_9">
     <g id="line2d_18">
      <g>
       <use xlink:href="#m77faba6b64" x="42.620313" y="34.821352" style="stroke: #000000; stroke-width: 0.8"/>
      </g>
     </g>
     <g id="text_19">
      <!-- 4 -->
      <g transform="translate(29.257813 38.62057) scale(0.1 -0.1)">
       <use xlink:href="#DejaVuSans-34"/>
      </g>
     </g>
    </g>
    <g id="text_20">
     <!-- x1 -->
     <g transform="translate(14.798438 282.51875) rotate(-90) scale(0.1 -0.1)">
      <use xlink:href="#DejaVuSans-78"/>
      <use xlink:href="#DejaVuSans-31" transform="translate(59.179688 0)"/>
     </g>
    </g>
   </g>
   <g id="line2d_19">
    <path d="M 534.588508 336.664732 
L 532.342732 332.179569 
L 530.257919 328.325243 
L 528.311436 325.000549 
L 526.482838 322.116168 
L 524.757671 319.614703 
L 523.123595 317.448703 
L 520.083942 313.949825 
L 517.283508 311.306096 
L 514.658155 309.268851 
L 512.168895 307.717932 
L 509.785435 306.558851 
L 507.480925 305.707236 
L 505.232373 305.093101 
L 503.021814 304.665658 
L 499.752374 304.31195 
L 496.509602 304.231978 
L 493.264519 304.360145 
L 488.893498 304.776357 
L 484.438927 305.429171 
L 478.704809 306.534285 
L 472.728045 307.932746 
L 466.448934 309.63227 
L 459.81124 311.671204 
L 452.743692 314.113503 
L 446.720773 316.418734 
L 440.311822 319.101093 
L 435.207588 321.428965 
L 429.819224 324.070588 
L 424.117303 327.060678 
L 418.057985 330.458938 
L 411.583024 334.350054 
L 404.619764 338.843699 
L 397.081141 344.074531 
L 391.686229 348.049111 
L 385.957173 352.47524 
L 379.857504 357.411325 
L 373.347905 362.920709 
L 366.386214 369.071669 
L 358.927423 375.937419 
L 350.923116 383.595157 
L 342.301881 392.117236 
L 332.982323 401.597386 
L 317.528514 417.692961 
L 300.087957 435.892181 
L 287.244962 448.966472 
L 280.441764 455.679883 
L 273.376645 462.423998 
L 266.04853 469.116403 
L 258.461317 475.661386 
L 250.623878 481.949937 
L 242.550057 487.859745 
L 234.25867 493.255205 
L 225.773506 497.987409 
L 217.123329 501.894155 
L 208.341874 504.79994 
L 199.46683 506.516857 
L 190.538916 506.882604 
L 181.622565 505.798506 
L 172.783181 503.205552 
L 164.082461 499.082242 
L 155.5784 493.444591 
L 147.325283 486.346119 
L 139.373693 477.877863 
L 131.770506 468.168366 
L 124.558892 457.383687 
L 117.778315 445.727391 
L 111.468984 433.492133 
L 105.649347 420.983382 
L 100.315314 408.401935 
L 95.459597 395.93027 
L 91.071801 383.73317 
L 87.13843 371.957733 
L 83.64288 360.733361 
L 80.565446 350.17177 
L 77.883316 340.366982 
L 73.596699 323.29907 
L 70.513434 309.337555 
L 68.409344 298.022747 
L 67.097028 289.007199 
L 66.403011 281.91096 
L 66.191222 276.348701 
L 66.362777 272.005694 
L 66.83221 268.615484 
L 67.532584 265.959618 
L 68.416217 263.873544 
L 69.443755 262.223007 
L 70.5843 260.901835 
L 71.817334 259.836208 
L 73.126073 258.966444 
L 75.200087 257.922386 
L 77.380551 257.094924 
L 80.422874 256.21101 
L 85.212924 255.120558 
L 93.71843 253.499141 
L 107.698289 250.792833 
L 116.930384 248.761908 
L 125.79315 246.566574 
L 132.910913 244.593873 
L 140.519786 242.239391 
L 147.315118 239.897383 
L 154.608671 237.117896 
L 160.865462 234.511843 
L 167.557488 231.500006 
L 172.908103 228.891178 
L 178.576138 225.929264 
L 184.600368 222.562116 
L 191.034542 218.711538 
L 197.947382 214.273282 
L 205.42258 209.117052 
L 210.766575 205.204554 
L 216.436983 200.851247 
L 222.469692 195.999229 
L 228.903549 190.585451 
L 235.780358 184.541719 
L 243.144881 177.794694 
L 251.048031 170.277229 
L 259.563046 161.904819 
L 268.767908 152.567917 
L 284.031867 136.675204 
L 301.256784 118.666015 
L 313.941757 105.709057 
L 320.666323 99.017263 
L 327.647871 92.236212 
L 334.890721 85.472402 
L 342.394229 78.839942 
L 350.152227 72.457873 
L 358.153025 66.450171 
L 366.379409 60.945742 
L 374.808642 56.078427 
L 383.412461 51.987 
L 392.157084 48.815168 
L 401.003201 46.711571 
L 409.905983 45.829781 
L 418.815074 46.328304 
L 427.674595 48.370579 
L 436.423305 52.161828 
L 444.994816 57.667054 
L 453.326668 64.676955 
L 461.36373 72.987759 
L 469.058205 82.401338 
L 476.369628 92.725213 
L 483.264869 103.772545 
L 489.718127 115.362146 
L 495.710937 127.318469 
L 501.232164 139.471614 
L 506.278009 151.657326 
L 510.852003 163.716997 
L 514.96501 175.49766 
L 518.635228 186.851999 
L 521.883601 197.609871 
L 524.730494 207.634479 
L 527.205234 216.905747 
L 529.336858 225.417921 
L 531.153823 233.176986 
L 533.954699 246.518419 
L 535.823911 257.212688 
L 536.960294 265.694513 
L 537.51281 272.361858 
L 537.605117 277.567687 
L 537.343215 281.626975 
L 536.804163 284.794262 
L 536.046308 287.267722 
L 535.119035 289.212698 
L 534.058831 290.755594 
L 532.890874 291.987055 
L 531.636554 292.982189 
L 530.313567 293.80189 
L 528.223788 294.788832 
L 526.030329 295.569263 
L 522.980959 296.418858 
L 518.185954 297.474061 
L 507.912293 299.395851 
L 495.724424 301.750097 
L 486.522796 303.759779 
L 478.843479 305.650049 
L 470.603221 307.916387 
L 462.994394 310.258774 
L 456.209135 312.564185 
L 448.949352 315.275873 
L 442.735162 317.821888 
L 436.091217 320.794901 
L 428.941052 324.299827 
L 423.19322 327.351222 
L 417.068816 330.829958 
L 410.534204 334.749683 
L 403.532874 339.226183 
L 398.557587 342.638459 
L 393.297202 346.471522 
L 387.714536 350.788927 
L 381.769004 355.65096 
L 375.416614 361.114646 
L 368.60997 367.233741 
L 361.298272 374.058738 
L 353.427315 381.636862 
L 340.445321 394.511433 
L 325.865784 409.313276 
L 297.394754 438.579009 
L 297.394754 438.579009 
" clip-path="url(#paab9373f18)" style="fill: none; stroke: #000000; stroke-opacity: 0.3; stroke-width: 7; stroke-linecap: square"/>
   </g>
   <g id="line2d_20">
    <path d="M 534.588508 336.664732 
L 530.446802 323.964896 
L 525.782906 310.3535 
L 520.724239 296.38966 
L 515.396497 282.462802 
L 513.322334 276.833239 
L 513.325331 276.365379 
L 513.549927 276.30115 
L 515.791141 276.296056 
L 517.146106 276.296056 
L 517.146106 276.296056 
" clip-path="url(#paab9373f18)" style="fill: none; stroke-dasharray: 22.4,5.6,3.5,5.6; stroke-dashoffset: 0; stroke: #0000ff; stroke-opacity: 0.8; stroke-width: 3.5"/>
   </g>
   <g id="patch_3">
    <path d="M 42.620313 530.438125 
L 42.620313 22.318125 
" style="fill: none; stroke: #000000; stroke-width: 0.8; stroke-linejoin: miter; stroke-linecap: square"/>
   </g>
   <g id="patch_4">
    <path d="M 561.180312 530.438125 
L 561.180312 22.318125 
" style="fill: none; stroke: #000000; stroke-width: 0.8; stroke-linejoin: miter; stroke-linecap: square"/>
   </g>
   <g id="patch_5">
    <path d="M 42.620313 530.438125 
L 561.180313 530.438125 
" style="fill: none; stroke: #000000; stroke-width: 0.8; stroke-linejoin: miter; stroke-linecap: square"/>
   </g>
   <g id="patch_6">
    <path d="M 42.620313 22.318125 
L 561.180313 22.318125 
" style="fill: none; stroke: #000000; stroke-width: 0.8; stroke-linejoin: miter; stroke-linecap: square"/>
   </g>
   <g id="line2d_21">
    <path d="M 534.588508 336.664732 
L 532.347091 332.07368 
L 530.26954 328.145992 
L 528.332908 324.777798 
L 526.516998 321.880179 
L 524.805089 319.382155 
L 523.183096 317.225986 
L 520.160881 313.748066 
L 517.372044 311.145633 
L 514.757798 309.203914 
L 512.273032 307.765619 
L 509.883877 306.718297 
L 507.563313 305.975728 
L 505.290508 305.474642 
L 503.04861 305.165978 
L 499.715442 304.986657 
L 496.387131 305.069254 
L 493.037086 305.352735 
L 488.501392 305.974344 
L 483.851718 306.820045 
L 477.831298 308.143781 
L 471.528404 309.743289 
L 464.889388 311.627127 
L 457.856326 313.830585 
L 450.361942 316.415536 
L 443.979797 318.819306 
L 437.198617 321.591488 
L 429.955094 324.818621 
L 424.172258 327.605193 
L 418.045244 330.772143 
L 411.525315 334.395735 
L 404.55451 338.569344 
L 397.062706 343.408291 
L 391.737121 347.073433 
L 386.113043 351.146504 
L 380.156705 355.684304 
L 373.829247 360.751302 
L 367.088348 366.417313 
L 359.883226 372.761207 
L 352.159367 379.864992 
L 343.854493 387.811983 
L 334.900249 396.677588 
L 325.223156 406.531249 
L 303.391164 429.224197 
L 291.088215 441.905789 
L 284.562108 448.489723 
L 277.780089 455.167105 
L 270.739498 461.875102 
L 263.439206 468.538424 
L 255.884878 475.05145 
L 248.084139 481.301801 
L 240.047219 487.162269 
L 231.79495 492.478764 
L 223.351172 497.093304 
L 214.743494 500.834813 
L 206.011623 503.535701 
L 197.198753 505.033739 
L 188.353046 505.176279 
L 179.530158 503.850975 
L 170.788164 500.972421 
L 162.188084 496.507378 
L 153.790784 490.476037 
L 145.656145 482.947753 
L 137.8382 474.05941 
L 130.388966 463.978168 
L 123.34786 452.926242 
L 116.747746 441.140296 
L 110.61542 428.875468 
L 104.96087 416.374348 
L 99.789541 403.869279 
L 95.09945 391.579807 
L 90.876493 379.667966 
L 87.104012 368.27975 
L 83.75988 357.523652 
L 80.81793 347.466874 
L 78.250295 338.155467 
L 76.027843 329.599587 
L 72.50226 314.722542 
L 70.017252 302.617644 
L 68.372069 292.932033 
L 67.393863 285.269544 
L 66.942561 279.251275 
L 66.903697 274.539318 
L 67.187802 270.850475 
L 67.724983 267.953921 
L 68.461437 265.666593 
L 69.355824 263.844982 
L 70.376723 262.378457 
L 71.49998 261.181134 
L 72.707536 260.188264 
L 74.647683 258.976549 
L 76.713991 257.994038 
L 79.62926 256.905663 
L 83.490247 255.741308 
L 90.108086 254.046957 
L 119.852363 246.747789 
L 129.382721 244.10743 
L 138.448528 241.370141 
L 146.858502 238.593157 
L 154.39818 235.876496 
L 160.835003 233.365096 
L 167.68812 230.475951 
L 175.022725 227.115456 
L 180.888246 224.213174 
L 187.112817 220.911491 
L 193.746707 217.13051 
L 200.851707 212.769472 
L 208.501457 207.706093 
L 213.947751 203.866731 
L 219.706813 199.596272 
L 225.815028 194.833949 
L 232.311534 189.514312 
L 239.243675 183.561947 
L 246.662677 176.897461 
L 254.626646 169.437334 
L 263.200904 161.10186 
L 272.455347 151.812145 
L 287.779241 136.008006 
L 311.302687 111.612192 
L 324.53706 98.388261 
L 331.541323 91.680846 
L 338.803942 85.013034 
L 346.320967 78.48174 
L 354.087106 72.192915 
L 362.089773 66.278882 
L 370.310162 60.888995 
L 378.726281 56.178356 
L 387.310021 52.316932 
L 396.022352 49.4731 
L 404.822539 47.812324 
L 413.661881 47.485628 
L 422.485863 48.610793 
L 431.236839 51.283424 
L 439.854098 55.534313 
L 448.276475 61.360042 
L 456.444451 68.689068 
L 464.302249 77.400437 
L 471.798876 87.326167 
L 478.893334 98.252608 
L 485.547734 109.943927 
L 491.740649 122.150457 
L 497.456739 134.623867 
L 502.688814 147.126417 
L 507.440962 159.449705 
L 511.723185 171.41043 
L 515.552778 182.865668 
L 518.951295 193.703073 
L 521.944284 203.849253 
L 524.559395 213.255196 
L 526.825614 221.907634 
L 530.427757 236.971984 
L 532.975414 249.247242 
L 534.67098 259.079719 
L 535.689118 266.864042 
L 536.171927 272.981021 
L 536.23545 277.771341 
L 535.970628 281.521644 
L 535.448521 284.465923 
L 534.723896 286.790118 
L 533.838821 288.640044 
L 532.825322 290.128323 
L 531.707993 291.342317 
L 530.505216 292.347881 
L 528.570716 293.573345 
L 526.508737 294.565018 
L 523.597935 295.661019 
L 519.741308 296.830488 
L 513.984145 298.319076 
L 481.101263 306.440142 
L 471.370442 309.191927 
L 462.09615 312.063475 
L 453.473923 314.995746 
L 445.725977 317.882047 
L 439.096142 320.564952 
L 432.020382 323.66763 
L 424.425906 327.296857 
L 418.335479 330.446793 
L 411.854704 334.045629 
L 404.926114 338.186334 
L 397.481258 342.981811 
L 392.189795 346.611859 
L 386.603253 350.643223 
L 380.687413 355.133364 
L 374.404861 360.144767 
L 367.713041 365.74736 
L 360.562236 372.018754 
L 352.899198 379.041052 
L 344.661229 386.896786 
L 335.781578 395.664763 
L 326.186913 405.410926 
L 310.285757 421.909814 
L 292.34745 440.493252 
L 279.151022 453.703143 
L 272.166508 460.408507 
L 264.923517 467.081011 
L 264.923517 467.081011 
" clip-path="url(#paab9373f18)" style="fill: none; stroke-dasharray: 3.5,5.775; stroke-dashoffset: 0; stroke: #008000; stroke-opacity: 0.8; stroke-width: 3.5"/>
   </g>
   <g id="text_21">
    <!-- Phase Portrait (x0 vs x1) -->
    <g transform="translate(228.209062 16.318125) scale(0.12 -0.12)">
     <defs>
      <path id="DejaVuSans-50" d="M 1259 4147 
L 1259 2394 
L 2053 2394 
Q 2494 2394 2734 2622 
Q 2975 2850 2975 3272 
Q 2975 3691 2734 3919 
Q 2494 4147 2053 4147 
L 1259 4147 
z
M 628 4666 
L 2053 4666 
Q 2838 4666 3239 4311 
Q 3641 3956 3641 3272 
Q 3641 2581 3239 2228 
Q 2838 1875 2053 1875 
L 1259 1875 
L 1259 0 
L 628 0 
L 628 4666 
z
" transform="scale(0.015625)"/>
      <path id="DejaVuSans-68" d="M 3513 2113 
L 3513 0 
L 2938 0 
L 2938 2094 
Q 2938 2591 2744 2837 
Q 2550 3084 2163 3084 
Q 1697 3084 1428 2787 
Q 1159 2491 1159 1978 
L 1159 0 
L 581 0 
L 581 4863 
L 1159 4863 
L 1159 2956 
Q 1366 3272 1645 3428 
Q 1925 3584 2291 3584 
Q 2894 3584 3203 3211 
Q 3513 2838 3513 2113 
z
" transform="scale(0.015625)"/>
      <path id="DejaVuSans-61" d="M 2194 1759 
Q 1497 1759 1228 1600 
Q 959 1441 959 1056 
Q 959 750 1161 570 
Q 1363 391 1709 391 
Q 2188 391 2477 730 
Q 2766 1069 2766 1631 
L 2766 1759 
L 2194 1759 
z
M 3341 1997 
L 3341 0 
L 2766 0 
L 2766 531 
Q 2569 213 2275 61 
Q 1981 -91 1556 -91 
Q 1019 -91 701 211 
Q 384 513 384 1019 
Q 384 1609 779 1909 
Q 1175 2209 1959 2209 
L 2766 2209 
L 2766 2266 
Q 2766 2663 2505 2880 
Q 2244 3097 1772 3097 
Q 1472 3097 1187 3025 
Q 903 2953 641 2809 
L 641 3341 
Q 956 3463 1253 3523 
Q 1550 3584 1831 3584 
Q 2591 3584 2966 3190 
Q 3341 2797 3341 1997 
z
" transform="scale(0.015625)"/>
      <path id="DejaVuSans-73" d="M 2834 3397 
L 2834 2853 
Q 2591 2978 2328 3040 
Q 2066 3103 1784 3103 
Q 1356 3103 1142 2972 
Q 928 2841 928 2578 
Q 928 2378 1081 2264 
Q 1234 2150 1697 2047 
L 1894 2003 
Q 2506 1872 2764 1633 
Q 3022 1394 3022 966 
Q 3022 478 2636 193 
Q 2250 -91 1575 -91 
Q 1294 -91 989 -36 
Q 684 19 347 128 
L 347 722 
Q 666 556 975 473 
Q 1284 391 1588 391 
Q 1994 391 2212 530 
Q 2431 669 2431 922 
Q 2431 1156 2273 1281 
Q 2116 1406 1581 1522 
L 1381 1569 
Q 847 1681 609 1914 
Q 372 2147 372 2553 
Q 372 3047 722 3315 
Q 1072 3584 1716 3584 
Q 2034 3584 2315 3537 
Q 2597 3491 2834 3397 
z
" transform="scale(0.015625)"/>
      <path id="DejaVuSans-65" d="M 3597 1894 
L 3597 1613 
L 953 1613 
Q 991 1019 1311 708 
Q 1631 397 2203 397 
Q 2534 397 2845 478 
Q 3156 559 3463 722 
L 3463 178 
Q 3153 47 2828 -22 
Q 2503 -91 2169 -91 
Q 1331 -91 842 396 
Q 353 884 353 1716 
Q 353 2575 817 3079 
Q 1281 3584 2069 3584 
Q 2775 3584 3186 3129 
Q 3597 2675 3597 1894 
z
M 3022 2063 
Q 3016 2534 2758 2815 
Q 2500 3097 2075 3097 
Q 1594 3097 1305 2825 
Q 1016 2553 972 2059 
L 3022 2063 
z
" transform="scale(0.015625)"/>
      <path id="DejaVuSans-20" transform="scale(0.015625)"/>
      <path id="DejaVuSans-6f" d="M 1959 3097 
Q 1497 3097 1228 2736 
Q 959 2375 959 1747 
Q 959 1119 1226 758 
Q 1494 397 1959 397 
Q 2419 397 2687 759 
Q 2956 1122 2956 1747 
Q 2956 2369 2687 2733 
Q 2419 3097 1959 3097 
z
M 1959 3584 
Q 2709 3584 3137 3096 
Q 3566 2609 3566 1747 
Q 3566 888 3137 398 
Q 2709 -91 1959 -91 
Q 1206 -91 779 398 
Q 353 888 353 1747 
Q 353 2609 779 3096 
Q 1206 3584 1959 3584 
z
" transform="scale(0.015625)"/>
      <path id="DejaVuSans-72" d="M 2631 2963 
Q 2534 3019 2420 3045 
Q 2306 3072 2169 3072 
Q 1681 3072 1420 2755 
Q 1159 2438 1159 1844 
L 1159 0 
L 581 0 
L 581 3500 
L 1159 3500 
L 1159 2956 
Q 1341 3275 1631 3429 
Q 1922 3584 2338 3584 
Q 2397 3584 2469 3576 
Q 2541 3569 2628 3553 
L 2631 2963 
z
" transform="scale(0.015625)"/>
      <path id="DejaVuSans-74" d="M 1172 4494 
L 1172 3500 
L 2356 3500 
L 2356 3053 
L 1172 3053 
L 1172 1153 
Q 1172 725 1289 603 
Q 1406 481 1766 481 
L 2356 481 
L 2356 0 
L 1766 0 
Q 1100 0 847 248 
Q 594 497 594 1153 
L 594 3053 
L 172 3053 
L 172 3500 
L 594 3500 
L 594 4494 
L 1172 4494 
z
" transform="scale(0.015625)"/>
      <path id="DejaVuSans-69" d="M 603 3500 
L 1178 3500 
L 1178 0 
L 603 0 
L 603 3500 
z
M 603 4863 
L 1178 4863 
L 1178 4134 
L 603 4134 
L 603 4863 
z
" transform="scale(0.015625)"/>
      <path id="DejaVuSans-28" d="M 1984 4856 
Q 1566 4138 1362 3434 
Q 1159 2731 1159 2009 
Q 1159 1288 1364 580 
Q 1569 -128 1984 -844 
L 1484 -844 
Q 1016 -109 783 600 
Q 550 1309 550 2009 
Q 550 2706 781 3412 
Q 1013 4119 1484 4856 
L 1984 4856 
z
" transform="scale(0.015625)"/>
      <path id="DejaVuSans-76" d="M 191 3500 
L 800 3500 
L 1894 563 
L 2988 3500 
L 3597 3500 
L 2284 0 
L 1503 0 
L 191 3500 
z
" transform="scale(0.015625)"/>
      <path id="DejaVuSans-29" d="M 513 4856 
L 1013 4856 
Q 1481 4119 1714 3412 
Q 1947 2706 1947 2009 
Q 1947 1309 1714 600 
Q 1481 -109 1013 -844 
L 513 -844 
Q 928 -128 1133 580 
Q 1338 1288 1338 2009 
Q 1338 2731 1133 3434 
Q 928 4138 513 4856 
z
" transform="scale(0.015625)"/>
     </defs>
     <use xlink:href="#DejaVuSans-50"/>
     <use xlink:href="#DejaVuSans-68" transform="translate(60.302734 0)"/>
     <use xlink:href="#DejaVuSans-61" transform="translate(123.681641 0)"/>
     <use xlink:href="#DejaVuSans-73" transform="translate(184.960938 0)"/>
     <use xlink:href="#DejaVuSans-65" transform="translate(237.060547 0)"/>
     <use xlink:href="#DejaVuSans-20" transform="translate(298.583984 0)"/>
     <use xlink:href="#DejaVuSans-50" transform="translate(330.371094 0)"/>
     <use xlink:href="#DejaVuSans-6f" transform="translate(387.048828 0)"/>
     <use xlink:href="#DejaVuSans-72" transform="translate(448.230469 0)"/>
     <use xlink:href="#DejaVuSans-74" transform="translate(489.34375 0)"/>
     <use xlink:href="#DejaVuSans-72" transform="translate(528.552734 0)"/>
     <use xlink:href="#DejaVuSans-61" transform="translate(569.666016 0)"/>
     <use xlink:href="#DejaVuSans-69" transform="translate(630.945312 0)"/>
     <use xlink:href="#DejaVuSans-74" transform="translate(658.728516 0)"/>
     <use xlink:href="#DejaVuSans-20" transform="translate(697.9375 0)"/>
     <use xlink:href="#DejaVuSans-28" transform="translate(729.724609 0)"/>
     <use xlink:href="#DejaVuSans-78" transform="translate(768.738281 0)"/>
     <use xlink:href="#DejaVuSans-30" transform="translate(827.917969 0)"/>
     <use xlink:href="#DejaVuSans-20" transform="translate(891.541016 0)"/>
     <use xlink:href="#DejaVuSans-76" transform="translate(923.328125 0)"/>
     <use xlink:href="#DejaVuSans-73" transform="translate(982.507812 0)"/>
     <use xlink:href="#DejaVuSans-20" transform="translate(1034.607422 0)"/>
     <use xlink:href="#DejaVuSans-78" transform="translate(1066.394531 0)"/>
     <use xlink:href="#DejaVuSans-31" transform="translate(1125.574219 0)"/>
     <use xlink:href="#DejaVuSans-29" transform="translate(1189.197266 0)"/>
    </g>
   </g>
   <g id="line2d_22">
    <path d="M 534.588508 336.664732 
L 532.346232 332.11465 
L 530.266613 328.209444 
L 528.327338 324.848753 
L 526.508747 321.946632 
L 524.794509 319.434217 
L 521.625556 315.361833 
L 518.731263 312.281911 
L 516.044701 309.946075 
L 513.515775 308.177905 
L 511.105931 306.847685 
L 508.785065 305.858855 
L 506.529944 305.140252 
L 504.32152 304.636146 
L 501.065252 304.196671 
L 497.842048 304.04829 
L 494.622676 304.123607 
L 490.296757 304.493156 
L 485.893998 305.109015 
L 480.229985 306.168977 
L 474.332459 307.524476 
L 468.144442 309.179218 
L 461.605551 311.164063 
L 454.646977 313.535531 
L 448.723185 315.767177 
L 442.427447 318.359813 
L 435.698168 321.391622 
L 430.322052 324.01383 
L 424.621826 326.993946 
L 418.552076 330.398649 
L 412.059565 334.308615 
L 405.07948 338.824671 
L 397.535193 344.068535 
L 392.146971 348.041535 
L 386.43528 352.45523 
L 380.36305 357.368939 
L 373.890546 362.846209 
L 366.970098 368.959699 
L 359.550302 375.78534 
L 351.573209 383.40244 
L 342.974052 391.885602 
L 333.683786 401.308076 
L 318.289025 417.271164 
L 300.91823 435.362223 
L 288.126293 448.379049 
L 281.348563 455.06088 
L 274.312071 461.78336 
L 267.014479 468.479746 
L 259.461228 475.049048 
L 251.659448 481.385041 
L 243.617397 487.371275 
L 235.352749 492.86435 
L 226.88955 497.707652 
L 218.254575 501.743936 
L 209.479682 504.798444 
L 200.609618 506.715061 
L 191.690583 507.341761 
L 182.773786 506.541284 
L 173.917178 504.223808 
L 165.18037 500.330086 
L 156.624686 494.855406 
L 148.310189 487.849722 
L 140.294861 479.411861 
L 132.629606 469.70295 
L 125.362928 458.912717 
L 118.529257 447.276403 
L 112.156326 435.037504 
L 106.266531 422.456101 
L 100.864437 409.765785 
L 95.949957 397.186362 
L 91.517534 384.926507 
L 87.550061 373.135777 
L 84.026393 361.932654 
L 80.923005 351.415943 
L 78.211796 341.636947 
L 75.863726 332.624038 
L 73.848947 324.381322 
L 70.702441 310.127091 
L 68.549913 298.605238 
L 67.193775 289.437241 
L 66.468382 282.220449 
L 66.237651 276.578172 
L 66.3928 272.181471 
L 66.848565 268.75712 
L 67.538676 266.084511 
L 68.412048 263.989143 
L 69.42943 262.334579 
L 70.56117 261.016511 
L 71.784462 259.954077 
L 73.081918 259.085209 
L 75.139788 258.046337 
L 77.304493 257.225883 
L 80.322473 256.34322 
L 85.077714 255.257284 
L 94.401491 253.464355 
L 106.441655 251.109052 
L 115.536785 249.110452 
L 124.263065 246.950587 
L 132.500619 244.656076 
L 140.101989 242.289417 
L 146.891651 239.9517 
L 154.17235 237.189267 
L 160.412009 234.595783 
L 167.084256 231.577031 
L 174.262349 228.031366 
L 180.031752 224.948674 
L 186.18329 221.426304 
L 192.772818 217.378428 
L 199.866588 212.701018 
L 207.545611 207.264469 
L 213.036416 203.143531 
L 218.863696 198.562015 
L 225.064069 193.460789 
L 231.681257 187.771599 
L 238.76331 181.421449 
L 246.363565 174.332545 
L 254.543351 166.427438 
L 263.367618 157.62768 
L 277.971015 142.63497 
L 306.577232 112.894048 
L 319.711039 99.70572 
L 326.664191 92.989295 
L 333.876593 86.282446 
L 341.346355 79.669545 
L 349.069481 73.24774 
L 357.033834 67.143292 
L 365.225367 61.486976 
L 373.62653 56.425814 
L 382.207808 52.123347 
L 390.937124 48.742169 
L 399.7783 46.456211 
L 408.683756 45.414489 
L 417.602453 45.7496 
L 426.480143 47.58295 
L 435.256773 50.982748 
L 443.871635 55.954764 
L 452.26481 62.479743 
L 460.375307 70.482134 
L 468.15208 79.801086 
L 475.546213 90.264084 
L 482.516046 101.65156 
L 489.033236 113.716714 
L 495.075722 126.212435 
L 500.628149 138.878683 
L 505.693734 151.504055 
L 510.276255 163.880196 
L 514.387166 175.826677 
L 518.047229 187.218606 
L 521.279493 197.953276 
L 524.110748 207.962297 
L 526.569863 217.215151 
L 528.686415 225.695802 
L 532.009364 240.404949 
L 534.305294 252.330931 
L 535.775807 261.84224 
L 536.591176 269.3403 
L 536.89262 275.208316 
L 536.792564 279.782737 
L 536.379742 283.345514 
L 535.723188 286.125199 
L 534.876089 288.302799 
L 533.879253 290.019776 
L 532.76401 291.386097 
L 531.553921 292.485211 
L 530.267047 293.381505 
L 528.221962 294.450518 
L 526.06709 295.290516 
L 523.059423 296.188941 
L 519.124321 297.115477 
L 511.625123 298.59156 
L 496.022317 301.630616 
L 486.870673 303.660967 
L 479.219742 305.56033 
L 471.006304 307.837866 
L 463.429838 310.185329 
L 456.664749 312.502605 
L 449.413075 315.239123 
L 443.200601 317.806784 
L 436.560104 320.793485 
L 429.419321 324.299202 
L 423.68215 327.345726 
L 417.567569 330.824793 
L 411.020703 334.820444 
L 403.97554 339.436273 
L 396.353972 344.797002 
L 390.905803 348.860271 
L 385.127214 353.374683 
L 378.979872 358.401436 
L 372.422296 364.006203 
L 365.407146 370.261417 
L 357.880462 377.24424 
L 349.784213 385.035116 
L 341.051756 393.706959 
L 331.613253 403.324074 
L 310.317422 425.488521 
L 298.31168 437.940371 
L 291.941144 444.434217 
L 291.941144 444.434217 
" clip-path="url(#paab9373f18)" style="fill: none; stroke-dasharray: 12.95,5.6; stroke-dashoffset: 0; stroke: #ff0000; stroke-opacity: 0.8; stroke-width: 3.5"/>
   </g>
   <g id="legend_1">
    <g id="patch_7">
     <path d="M 49.620313 89.030625 
L 194.970313 89.030625 
Q 196.970313 89.030625 196.970313 87.030625 
L 196.970313 29.318125 
Q 196.970313 27.318125 194.970313 27.318125 
L 49.620313 27.318125 
Q 47.620313 27.318125 47.620313 29.318125 
L 47.620313 87.030625 
Q 47.620313 89.030625 49.620313 89.030625 
z
" style="fill: #ffffff; opacity: 0.8; stroke: #cccccc; stroke-linejoin: miter"/>
    </g>
    <g id="line2d_23">
     <path d="M 51.620313 35.416562 
L 61.620313 35.416562 
L 71.620313 35.416562 
" style="fill: none; stroke: #000000; stroke-opacity: 0.3; stroke-width: 7; stroke-linecap: square"/>
    </g>
    <g id="text_22">
     <!-- True/Underlying model -->
     <g transform="translate(79.620313 38.916562) scale(0.1 -0.1)">
      <defs>
       <path id="DejaVuSans-54" d="M -19 4666 
L 3928 4666 
L 3928 4134 
L 2272 4134 
L 2272 0 
L 1638 0 
L 1638 4134 
L -19 4134 
L -19 4666 
z
" transform="scale(0.015625)"/>
       <path id="DejaVuSans-75" d="M 544 1381 
L 544 3500 
L 1119 3500 
L 1119 1403 
Q 1119 906 1312 657 
Q 1506 409 1894 409 
Q 2359 409 2629 706 
Q 2900 1003 2900 1516 
L 2900 3500 
L 3475 3500 
L 3475 0 
L 2900 0 
L 2900 538 
Q 2691 219 2414 64 
Q 2138 -91 1772 -91 
Q 1169 -91 856 284 
Q 544 659 544 1381 
z
M 1991 3584 
L 1991 3584 
z
" transform="scale(0.015625)"/>
       <path id="DejaVuSans-2f" d="M 1625 4666 
L 2156 4666 
L 531 -594 
L 0 -594 
L 1625 4666 
z
" transform="scale(0.015625)"/>
       <path id="DejaVuSans-55" d="M 556 4666 
L 1191 4666 
L 1191 1831 
Q 1191 1081 1462 751 
Q 1734 422 2344 422 
Q 2950 422 3222 751 
Q 3494 1081 3494 1831 
L 3494 4666 
L 4128 4666 
L 4128 1753 
Q 4128 841 3676 375 
Q 3225 -91 2344 -91 
Q 1459 -91 1007 375 
Q 556 841 556 1753 
L 556 4666 
z
" transform="scale(0.015625)"/>
       <path id="DejaVuSans-6e" d="M 3513 2113 
L 3513 0 
L 2938 0 
L 2938 2094 
Q 2938 2591 2744 2837 
Q 2550 3084 2163 3084 
Q 1697 3084 1428 2787 
Q 1159 2491 1159 1978 
L 1159 0 
L 581 0 
L 581 3500 
L 1159 3500 
L 1159 2956 
Q 1366 3272 1645 3428 
Q 1925 3584 2291 3584 
Q 2894 3584 3203 3211 
Q 3513 2838 3513 2113 
z
" transform="scale(0.015625)"/>
       <path id="DejaVuSans-64" d="M 2906 2969 
L 2906 4863 
L 3481 4863 
L 3481 0 
L 2906 0 
L 2906 525 
Q 2725 213 2448 61 
Q 2172 -91 1784 -91 
Q 1150 -91 751 415 
Q 353 922 353 1747 
Q 353 2572 751 3078 
Q 1150 3584 1784 3584 
Q 2172 3584 2448 3432 
Q 2725 3281 2906 2969 
z
M 947 1747 
Q 947 1113 1208 752 
Q 1469 391 1925 391 
Q 2381 391 2643 752 
Q 2906 1113 2906 1747 
Q 2906 2381 2643 2742 
Q 2381 3103 1925 3103 
Q 1469 3103 1208 2742 
Q 947 2381 947 1747 
z
" transform="scale(0.015625)"/>
       <path id="DejaVuSans-6c" d="M 603 4863 
L 1178 4863 
L 1178 0 
L 603 0 
L 603 4863 
z
" transform="scale(0.015625)"/>
       <path id="DejaVuSans-79" d="M 2059 -325 
Q 1816 -950 1584 -1140 
Q 1353 -1331 966 -1331 
L 506 -1331 
L 506 -850 
L 844 -850 
Q 1081 -850 1212 -737 
Q 1344 -625 1503 -206 
L 1606 56 
L 191 3500 
L 800 3500 
L 1894 763 
L 2988 3500 
L 3597 3500 
L 2059 -325 
z
" transform="scale(0.015625)"/>
       <path id="DejaVuSans-67" d="M 2906 1791 
Q 2906 2416 2648 2759 
Q 2391 3103 1925 3103 
Q 1463 3103 1205 2759 
Q 947 2416 947 1791 
Q 947 1169 1205 825 
Q 1463 481 1925 481 
Q 2391 481 2648 825 
Q 2906 1169 2906 1791 
z
M 3481 434 
Q 3481 -459 3084 -895 
Q 2688 -1331 1869 -1331 
Q 1566 -1331 1297 -1286 
Q 1028 -1241 775 -1147 
L 775 -588 
Q 1028 -725 1275 -790 
Q 1522 -856 1778 -856 
Q 2344 -856 2625 -561 
Q 2906 -266 2906 331 
L 2906 616 
Q 2728 306 2450 153 
Q 2172 0 1784 0 
Q 1141 0 747 490 
Q 353 981 353 1791 
Q 353 2603 747 3093 
Q 1141 3584 1784 3584 
Q 2172 3584 2450 3431 
Q 2728 3278 2906 2969 
L 2906 3500 
L 3481 3500 
L 3481 434 
z
" transform="scale(0.015625)"/>
       <path id="DejaVuSans-6d" d="M 3328 2828 
Q 3544 3216 3844 3400 
Q 4144 3584 4550 3584 
Q 5097 3584 5394 3201 
Q 5691 2819 5691 2113 
L 5691 0 
L 5113 0 
L 5113 2094 
Q 5113 2597 4934 2840 
Q 4756 3084 4391 3084 
Q 3944 3084 3684 2787 
Q 3425 2491 3425 1978 
L 3425 0 
L 2847 0 
L 2847 2094 
Q 2847 2600 2669 2842 
Q 2491 3084 2119 3084 
Q 1678 3084 1418 2786 
Q 1159 2488 1159 1978 
L 1159 0 
L 581 0 
L 581 3500 
L 1159 3500 
L 1159 2956 
Q 1356 3278 1631 3431 
Q 1906 3584 2284 3584 
Q 2666 3584 2933 3390 
Q 3200 3197 3328 2828 
z
" transform="scale(0.015625)"/>
      </defs>
      <use xlink:href="#DejaVuSans-54"/>
      <use xlink:href="#DejaVuSans-72" transform="translate(46.333984 0)"/>
      <use xlink:href="#DejaVuSans-75" transform="translate(87.447266 0)"/>
      <use xlink:href="#DejaVuSans-65" transform="translate(150.826172 0)"/>
      <use xlink:href="#DejaVuSans-2f" transform="translate(212.349609 0)"/>
      <use xlink:href="#DejaVuSans-55" transform="translate(246.041016 0)"/>
      <use xlink:href="#DejaVuSans-6e" transform="translate(319.234375 0)"/>
      <use xlink:href="#DejaVuSans-64" transform="translate(382.613281 0)"/>
      <use xlink:href="#DejaVuSans-65" transform="translate(446.089844 0)"/>
      <use xlink:href="#DejaVuSans-72" transform="translate(507.613281 0)"/>
      <use xlink:href="#DejaVuSans-6c" transform="translate(548.726562 0)"/>
      <use xlink:href="#DejaVuSans-79" transform="translate(576.509766 0)"/>
      <use xlink:href="#DejaVuSans-69" transform="translate(635.689453 0)"/>
      <use xlink:href="#DejaVuSans-6e" transform="translate(663.472656 0)"/>
      <use xlink:href="#DejaVuSans-67" transform="translate(726.851562 0)"/>
      <use xlink:href="#DejaVuSans-20" transform="translate(790.328125 0)"/>
      <use xlink:href="#DejaVuSans-6d" transform="translate(822.115234 0)"/>
      <use xlink:href="#DejaVuSans-6f" transform="translate(919.527344 0)"/>
      <use xlink:href="#DejaVuSans-64" transform="translate(980.708984 0)"/>
      <use xlink:href="#DejaVuSans-65" transform="translate(1044.185547 0)"/>
      <use xlink:href="#DejaVuSans-6c" transform="translate(1105.708984 0)"/>
     </g>
    </g>
    <g id="line2d_24">
     <path d="M 51.620313 50.094687 
L 61.620313 50.094687 
L 71.620313 50.094687 
" style="fill: none; stroke-dasharray: 12.95,5.6; stroke-dashoffset: 0; stroke: #ff0000; stroke-opacity: 0.8; stroke-width: 3.5"/>
    </g>
    <g id="text_23">
     <!-- AutoSINDy -->
     <g transform="translate(79.620313 53.594687) scale(0.1 -0.1)">
      <defs>
       <path id="DejaVuSans-41" d="M 2188 4044 
L 1331 1722 
L 3047 1722 
L 2188 4044 
z
M 1831 4666 
L 2547 4666 
L 4325 0 
L 3669 0 
L 3244 1197 
L 1141 1197 
L 716 0 
L 50 0 
L 1831 4666 
z
" transform="scale(0.015625)"/>
       <path id="DejaVuSans-53" d="M 3425 4513 
L 3425 3897 
Q 3066 4069 2747 4153 
Q 2428 4238 2131 4238 
Q 1616 4238 1336 4038 
Q 1056 3838 1056 3469 
Q 1056 3159 1242 3001 
Q 1428 2844 1947 2747 
L 2328 2669 
Q 3034 2534 3370 2195 
Q 3706 1856 3706 1288 
Q 3706 609 3251 259 
Q 2797 -91 1919 -91 
Q 1588 -91 1214 -16 
Q 841 59 441 206 
L 441 856 
Q 825 641 1194 531 
Q 1563 422 1919 422 
Q 2459 422 2753 634 
Q 3047 847 3047 1241 
Q 3047 1584 2836 1778 
Q 2625 1972 2144 2069 
L 1759 2144 
Q 1053 2284 737 2584 
Q 422 2884 422 3419 
Q 422 4038 858 4394 
Q 1294 4750 2059 4750 
Q 2388 4750 2728 4690 
Q 3069 4631 3425 4513 
z
" transform="scale(0.015625)"/>
       <path id="DejaVuSans-49" d="M 628 4666 
L 1259 4666 
L 1259 0 
L 628 0 
L 628 4666 
z
" transform="scale(0.015625)"/>
       <path id="DejaVuSans-4e" d="M 628 4666 
L 1478 4666 
L 3547 763 
L 3547 4666 
L 4159 4666 
L 4159 0 
L 3309 0 
L 1241 3903 
L 1241 0 
L 628 0 
L 628 4666 
z
" transform="scale(0.015625)"/>
       <path id="DejaVuSans-44" d="M 1259 4147 
L 1259 519 
L 2022 519 
Q 2988 519 3436 956 
Q 3884 1394 3884 2338 
Q 3884 3275 3436 3711 
Q 2988 4147 2022 4147 
L 1259 4147 
z
M 628 4666 
L 1925 4666 
Q 3281 4666 3915 4102 
Q 4550 3538 4550 2338 
Q 4550 1131 3912 565 
Q 3275 0 1925 0 
L 628 0 
L 628 4666 
z
" transform="scale(0.015625)"/>
      </defs>
      <use xlink:href="#DejaVuSans-41"/>
      <use xlink:href="#DejaVuSans-75" transform="translate(68.408203 0)"/>
      <use xlink:href="#DejaVuSans-74" transform="translate(131.787109 0)"/>
      <use xlink:href="#DejaVuSans-6f" transform="translate(170.996094 0)"/>
      <use xlink:href="#DejaVuSans-53" transform="translate(232.177734 0)"/>
      <use xlink:href="#DejaVuSans-49" transform="translate(295.654297 0)"/>
      <use xlink:href="#DejaVuSans-4e" transform="translate(325.146484 0)"/>
      <use xlink:href="#DejaVuSans-44" transform="translate(399.951172 0)"/>
      <use xlink:href="#DejaVuSans-79" transform="translate(476.953125 0)"/>
     </g>
    </g>
    <g id="line2d_25">
     <path d="M 51.620313 64.772812 
L 61.620313 64.772812 
L 71.620313 64.772812 
" style="fill: none; stroke-dasharray: 3.5,5.775; stroke-dashoffset: 0; stroke: #008000; stroke-opacity: 0.8; stroke-width: 3.5"/>
    </g>
    <g id="text_24">
     <!-- Standard SINDy -->
     <g transform="translate(79.620313 68.272812) scale(0.1 -0.1)">
      <use xlink:href="#DejaVuSans-53"/>
      <use xlink:href="#DejaVuSans-74" transform="translate(63.476562 0)"/>
      <use xlink:href="#DejaVuSans-61" transform="translate(102.685547 0)"/>
      <use xlink:href="#DejaVuSans-6e" transform="translate(163.964844 0)"/>
      <use xlink:href="#DejaVuSans-64" transform="translate(227.34375 0)"/>
      <use xlink:href="#DejaVuSans-61" transform="translate(290.820312 0)"/>
      <use xlink:href="#DejaVuSans-72" transform="translate(352.099609 0)"/>
      <use xlink:href="#DejaVuSans-64" transform="translate(391.462891 0)"/>
      <use xlink:href="#DejaVuSans-20" transform="translate(454.939453 0)"/>
      <use xlink:href="#DejaVuSans-53" transform="translate(486.726562 0)"/>
      <use xlink:href="#DejaVuSans-49" transform="translate(550.203125 0)"/>
      <use xlink:href="#DejaVuSans-4e" transform="translate(579.695312 0)"/>
      <use xlink:href="#DejaVuSans-44" transform="translate(654.5 0)"/>
      <use xlink:href="#DejaVuSans-79" transform="translate(731.501953 0)"/>
     </g>
    </g>
    <g id="line2d_26">
     <path d="M 51.620313 79.450937 
L 61.620313 79.450937 
L 71.620313 79.450937 
" style="fill: none; stroke-dasharray: 22.4,5.6,3.5,5.6; stroke-dashoffset: 0; stroke: #0000ff; stroke-opacity: 0.8; stroke-width: 3.5"/>
    </g>
    <g id="text_25">
     <!-- Standard PySR -->
     <g transform="translate(79.620313 82.950937) scale(0.1 -0.1)">
      <defs>
       <path id="DejaVuSans-52" d="M 2841 2188 
Q 3044 2119 3236 1894 
Q 3428 1669 3622 1275 
L 4263 0 
L 3584 0 
L 2988 1197 
Q 2756 1666 2539 1819 
Q 2322 1972 1947 1972 
L 1259 1972 
L 1259 0 
L 628 0 
L 628 4666 
L 2053 4666 
Q 2853 4666 3247 4331 
Q 3641 3997 3641 3322 
Q 3641 2881 3436 2590 
Q 3231 2300 2841 2188 
z
M 1259 4147 
L 1259 2491 
L 2053 2491 
Q 2509 2491 2742 2702 
Q 2975 2913 2975 3322 
Q 2975 3731 2742 3939 
Q 2509 4147 2053 4147 
L 1259 4147 
z
" transform="scale(0.015625)"/>
      </defs>
      <use xlink:href="#DejaVuSans-53"/>
      <use xlink:href="#DejaVuSans-74" transform="translate(63.476562 0)"/>
      <use xlink:href="#DejaVuSans-61" transform="translate(102.685547 0)"/>
      <use xlink:href="#DejaVuSans-6e" transform="translate(163.964844 0)"/>
      <use xlink:href="#DejaVuSans-64" transform="translate(227.34375 0)"/>
      <use xlink:href="#DejaVuSans-61" transform="translate(290.820312 0)"/>
      <use xlink:href="#DejaVuSans-72" transform="translate(352.099609 0)"/>
      <use xlink:href="#DejaVuSans-64" transform="translate(391.462891 0)"/>
      <use xlink:href="#DejaVuSans-20" transform="translate(454.939453 0)"/>
      <use xlink:href="#DejaVuSans-50" transform="translate(486.726562 0)"/>
      <use xlink:href="#DejaVuSans-79" transform="translate(547.029297 0)"/>
      <use xlink:href="#DejaVuSans-53" transform="translate(606.208984 0)"/>
      <use xlink:href="#DejaVuSans-52" transform="translate(669.685547 0)"/>
     </g>
    </g>
   </g>
  </g>
 </g>
 <defs>
  <clipPath id="paab9373f18">
   <rect x="42.620313" y="22.318125" width="518.56" height="508.12"/>
  </clipPath>
 </defs>
</svg>
