<?xml version="1.0" encoding="utf-8" standalone="no"?>
<!DOCTYPE svg PUBLIC "-//W3C//DTD SVG 1.1//EN"
  "http://www.w3.org/Graphics/SVG/1.1/DTD/svg11.dtd">
<svg xmlns:xlink="http://www.w3.org/1999/xlink" width="568.410312pt" height="567.994375pt" viewBox="0 0 568.410312 567.994375" xmlns="http://www.w3.org/2000/svg" version="1.1">
 <metadata>
  <rdf:RDF xmlns:dc="http://purl.org/dc/elements/1.1/" xmlns:cc="http://creativecommons.org/ns#" xmlns:rdf="http://www.w3.org/1999/02/22-rdf-syntax-ns#">
   <cc:Work>
    <dc:type rdf:resource="http://purl.org/dc/dcmitype/StillImage"/>
    <dc:date>2026-04-06T01:52:02.836591</dc:date>
    <dc:format>image/svg+xml</dc:format>
    <dc:creator>
     <cc:Agent>
      <dc:title>Matplotlib v3.10.7, https://matplotlib.org/</dc:title>
     </cc:Agent>
    </dc:creator>
   </cc:Work>
  </rdf:RDF>
 </metadata>
 <defs>
  <style type="text/css">*{stroke-linejoin: round; stroke-linecap: butt}</style>
 </defs>
 <g id="figure_1">
  <g id="patch_1">
   <path d="M 0 567.994375 
L 568.410312 567.994375 
L 568.410312 0 
L 0 0 
z
" style="fill: #ffffff"/>
  </g>
  <g id="axes_1">
   <g id="patch_2">
    <path d="M 42.620313 530.438125 
L 561.210312 530.438125 
L 561.210312 22.318125 
L 42.620313 22.318125 
z
" style="fill: #ffffff"/>
   </g>
   <g id="matplotlib.axis_1">
    <g id="xtick_1">
     <g id="line2d_1">
      <defs>
       <path id="m2235da0930" d="M 0 0 
L 0 3.5 
" style="stroke: #000000; stroke-width: 0.8"/>
      </defs>
      <g>
       <use xlink:href="#m2235da0930" x="123.973771" y="530.438125" style="stroke: #000000; stroke-width: 0.8"/>
      </g>
     </g>
     <g id="text_1">
      <!-- −2 -->
      <g transform="translate(116.602677 545.036562) scale(0.1 -0.1)">
       <defs>
        <path id="DejaVuSans-2212" d="M 678 2272 
L 4684 2272 
L 4684 1741 
L 678 1741 
L 678 2272 
z
" transform="scale(0.015625)"/>
        <path id="DejaVuSans-32" d="M 1228 531 
L 3431 531 
L 3431 0 
L 469 0 
L 469 531 
Q 828 903 1448 1529 
Q 2069 2156 2228 2338 
Q 2531 2678 2651 2914 
Q 2772 3150 2772 3378 
Q 2772 3750 2511 3984 
Q 2250 4219 1831 4219 
Q 1534 4219 1204 4116 
Q 875 4013 500 3803 
L 500 4441 
Q 881 4594 1212 4672 
Q 1544 4750 1819 4750 
Q 2544 4750 2975 4387 
Q 3406 4025 3406 3419 
Q 3406 3131 3298 2873 
Q 3191 2616 2906 2266 
Q 2828 2175 2409 1742 
Q 1991 1309 1228 531 
z
" transform="scale(0.015625)"/>
       </defs>
       <use xlink:href="#DejaVuSans-2212"/>
       <use xlink:href="#DejaVuSans-32" transform="translate(83.789062 0)"/>
      </g>
     </g>
    </g>
    <g id="xtick_2">
     <g id="line2d_2">
      <g>
       <use xlink:href="#m2235da0930" x="212.865408" y="530.438125" style="stroke: #000000; stroke-width: 0.8"/>
      </g>
     </g>
     <g id="text_2">
      <!-- −1 -->
      <g transform="translate(205.494314 545.036562) scale(0.1 -0.1)">
       <defs>
        <path id="DejaVuSans-31" d="M 794 531 
L 1825 531 
L 1825 4091 
L 703 3866 
L 703 4441 
L 1819 4666 
L 2450 4666 
L 2450 531 
L 3481 531 
L 3481 0 
L 794 0 
L 794 531 
z
" transform="scale(0.015625)"/>
       </defs>
       <use xlink:href="#DejaVuSans-2212"/>
       <use xlink:href="#DejaVuSans-31" transform="translate(83.789062 0)"/>
      </g>
     </g>
    </g>
    <g id="xtick_3">
     <g id="line2d_3">
      <g>
       <use xlink:href="#m2235da0930" x="301.757044" y="530.438125" style="stroke: #000000; stroke-width: 0.8"/>
      </g>
     </g>
     <g id="text_3">
      <!-- 0 -->
      <g transform="translate(298.575794 545.036562) scale(0.1 -0.1)">
       <defs>
        <path id="DejaVuSans-30" d="M 2034 4250 
Q 1547 4250 1301 3770 
Q 1056 3291 1056 2328 
Q 1056 1369 1301 889 
Q 1547 409 2034 409 
Q 2525 409 2770 889 
Q 3016 1369 3016 2328 
Q 3016 3291 2770 3770 
Q 2525 4250 2034 4250 
z
M 2034 4750 
Q 2819 4750 3233 4129 
Q 3647 3509 3647 2328 
Q 3647 1150 3233 529 
Q 2819 -91 2034 -91 
Q 1250 -91 836 529 
Q 422 1150 422 2328 
Q 422 3509 836 4129 
Q 1250 4750 2034 4750 
z
" transform="scale(0.015625)"/>
       </defs>
       <use xlink:href="#DejaVuSans-30"/>
      </g>
     </g>
    </g>
    <g id="xtick_4">
     <g id="line2d_4">
      <g>
       <use xlink:href="#m2235da0930" x="390.648681" y="530.438125" style="stroke: #000000; stroke-width: 0.8"/>
      </g>
     </g>
     <g id="text_4">
      <!-- 1 -->
      <g transform="translate(387.467431 545.036562) scale(0.1 -0.1)">
       <use xlink:href="#DejaVuSans-31"/>
      </g>
     </g>
    </g>
    <g id="xtick_5">
     <g id="line2d_5">
      <g>
       <use xlink:href="#m2235da0930" x="479.540318" y="530.438125" style="stroke: #000000; stroke-width: 0.8"/>
      </g>
     </g>
     <g id="text_5">
      <!-- 2 -->
      <g transform="translate(476.359068 545.036562) scale(0.1 -0.1)">
       <use xlink:href="#DejaVuSans-32"/>
      </g>
     </g>
    </g>
    <g id="text_6">
     <!-- x0 -->
     <g transform="translate(295.774687 558.714687) scale(0.1 -0.1)">
      <defs>
       <path id="DejaVuSans-78" d="M 3513 3500 
L 2247 1797 
L 3578 0 
L 2900 0 
L 1881 1375 
L 863 0 
L 184 0 
L 1544 1831 
L 300 3500 
L 978 3500 
L 1906 2253 
L 2834 3500 
L 3513 3500 
z
" transform="scale(0.015625)"/>
      </defs>
      <use xlink:href="#DejaVuSans-78"/>
      <use xlink:href="#DejaVuSans-30" transform="translate(59.179688 0)"/>
     </g>
    </g>
   </g>
   <g id="matplotlib.axis_2">
    <g id="ytick_1">
     <g id="line2d_6">
      <defs>
       <path id="mb3be0cc5ed" d="M 0 0 
L -3.5 0 
" style="stroke: #000000; stroke-width: 0.8"/>
      </defs>
      <g>
       <use xlink:href="#mb3be0cc5ed" x="42.620313" y="490.991983" style="stroke: #000000; stroke-width: 0.8"/>
      </g>
     </g>
     <g id="text_7">
      <!-- −4 -->
      <g transform="translate(20.878125 494.791202) scale(0.1 -0.1)">
       <defs>
        <path id="DejaVuSans-34" d="M 2419 4116 
L 825 1625 
L 2419 1625 
L 2419 4116 
z
M 2253 4666 
L 3047 4666 
L 3047 1625 
L 3713 1625 
L 3713 1100 
L 3047 1100 
L 3047 0 
L 2419 0 
L 2419 1100 
L 313 1100 
L 313 1709 
L 2253 4666 
z
" transform="scale(0.015625)"/>
       </defs>
       <use xlink:href="#DejaVuSans-2212"/>
       <use xlink:href="#DejaVuSans-34" transform="translate(83.789062 0)"/>
      </g>
     </g>
    </g>
    <g id="ytick_2">
     <g id="line2d_7">
      <g>
       <use xlink:href="#mb3be0cc5ed" x="42.620313" y="383.682692" style="stroke: #000000; stroke-width: 0.8"/>
      </g>
     </g>
     <g id="text_8">
      <!-- −2 -->
      <g transform="translate(20.878125 387.481911) scale(0.1 -0.1)">
       <use xlink:href="#DejaVuSans-2212"/>
       <use xlink:href="#DejaVuSans-32" transform="translate(83.789062 0)"/>
      </g>
     </g>
    </g>
    <g id="ytick_3">
     <g id="line2d_8">
      <g>
       <use xlink:href="#mb3be0cc5ed" x="42.620313" y="276.373401" style="stroke: #000000; stroke-width: 0.8"/>
      </g>
     </g>
     <g id="text_9">
      <!-- 0 -->
      <g transform="translate(29.257813 280.17262) scale(0.1 -0.1)">
       <use xlink:href="#DejaVuSans-30"/>
      </g>
     </g>
    </g>
    <g id="ytick_4">
     <g id="line2d_9">
      <g>
       <use xlink:href="#mb3be0cc5ed" x="42.620313" y="169.06411" style="stroke: #000000; stroke-width: 0.8"/>
      </g>
     </g>
     <g id="text_10">
      <!-- 2 -->
      <g transform="translate(29.257813 172.863329) scale(0.1 -0.1)">
       <use xlink:href="#DejaVuSans-32"/>
      </g>
     </g>
    </g>
    <g id="ytick_5">
     <g id="line2d_10">
      <g>
       <use xlink:href="#mb3be0cc5ed" x="42.620313" y="61.754819" style="stroke: #000000; stroke-width: 0.8"/>
      </g>
     </g>
     <g id="text_11">
      <!-- 4 -->
      <g transform="translate(29.257813 65.554038) scale(0.1 -0.1)">
       <use xlink:href="#DejaVuSans-34"/>
      </g>
     </g>
    </g>
    <g id="text_12">
     <!-- x1 -->
     <g transform="translate(14.798438 282.51875) rotate(-90) scale(0.1 -0.1)">
      <use xlink:href="#DejaVuSans-78"/>
      <use xlink:href="#DejaVuSans-31" transform="translate(59.179688 0)"/>
     </g>
    </g>
   </g>
   <g id="line2d_11">
    <path d="M 536.572539 265.642472 
L 537.111692 270.847112 
L 537.308577 275.961062 
L 537.16874 281.021873 
L 536.693857 286.065224 
L 535.883246 291.126037 
L 534.73427 296.238795 
L 533.242336 301.43754 
L 531.400899 306.755876 
L 529.201458 312.226966 
L 526.633622 317.883291 
L 523.686944 323.747409 
L 520.344157 329.852814 
L 516.585112 336.234262 
L 512.389524 342.918592 
L 507.73697 349.924719 
L 502.606888 357.263641 
L 496.978583 364.938436 
L 490.831219 372.944262 
L 484.143823 381.268356 
L 476.895287 389.890037 
L 469.064445 398.783163 
L 460.632514 407.940048 
L 451.585658 417.246433 
L 446.829771 421.90909 
L 441.919184 426.553063 
L 436.854893 431.159513 
L 431.638527 435.709534 
L 426.272349 440.184143 
L 420.759255 444.564289 
L 415.102773 448.830848 
L 409.307065 452.964623 
L 403.376926 456.946345 
L 397.317784 460.756676 
L 391.1357 464.376203 
L 384.837369 467.785441 
L 378.430118 470.964835 
L 371.921909 473.894758 
L 365.321334 476.555509 
L 358.637621 478.927316 
L 351.88063 480.990336 
L 345.060854 482.724653 
L 338.18942 484.11028 
L 331.278087 485.127158 
L 324.339248 485.755154 
L 317.385928 485.974066 
L 310.431787 485.763618 
L 303.491117 485.103464 
L 296.578904 483.975468 
L 289.7116 482.419578 
L 282.903644 480.466222 
L 276.168128 478.128148 
L 269.517512 475.419211 
L 262.963625 472.354377 
L 256.517665 468.949719 
L 250.190198 465.222418 
L 243.991159 461.190764 
L 237.929853 456.874155 
L 232.014952 452.293099 
L 226.254498 447.46921 
L 220.655899 442.425212 
L 215.225937 437.184936 
L 209.970757 431.773324 
L 204.895876 426.216423 
L 200.006179 420.541391 
L 195.30592 414.776493 
L 190.798722 408.951104 
L 186.487574 403.095705 
L 182.374838 397.241885 
L 178.459687 391.39097 
L 174.739828 385.530216 
L 171.214747 379.66855 
L 167.883852 373.814115 
L 164.746479 367.974275 
L 161.801891 362.155611 
L 159.049276 356.363923 
L 156.487751 350.604228 
L 154.116356 344.880764 
L 151.93406 339.196985 
L 149.939756 333.555564 
L 148.132267 327.958394 
L 146.510338 322.406585 
L 145.072643 316.900465 
L 143.817783 311.439581 
L 142.744284 306.022699 
L 141.850597 300.647802 
L 141.135103 295.312094 
L 140.596107 290.011994 
L 140.23184 284.743142 
L 140.040394 279.506349 
L 140.020751 274.308157 
L 140.172885 269.141914 
L 140.496729 264.001264 
L 140.99215 258.880658 
L 141.65895 253.77535 
L 142.496866 248.681398 
L 143.505569 243.595665 
L 144.684666 238.515817 
L 146.033698 233.440325 
L 147.552142 228.368462 
L 149.239407 223.300308 
L 151.09484 218.236745 
L 153.117722 213.17946 
L 155.307267 208.130945 
L 157.662626 203.094493 
L 160.182885 198.074204 
L 162.867062 193.07498 
L 165.714114 188.10253 
L 168.722928 183.163364 
L 171.892331 178.264798 
L 175.221081 173.41495 
L 178.707871 168.622745 
L 182.351332 163.89791 
L 186.150027 159.250976 
L 190.102453 154.69328 
L 194.207046 150.23696 
L 198.462172 145.894961 
L 202.864891 141.674985 
L 207.407817 137.578544 
L 212.084769 133.628761 
L 216.8894 129.848671 
L 221.815011 126.259827 
L 226.854553 122.882299 
L 232.000622 119.734681 
L 237.245465 116.834084 
L 242.580978 114.196137 
L 247.998702 111.834991 
L 253.489828 109.763315 
L 259.045196 107.992297 
L 264.655293 106.531645 
L 270.310255 105.389588 
L 275.999866 104.572871 
L 281.713558 104.08676 
L 287.440411 103.935041 
L 293.169155 104.12002 
L 298.888166 104.64252 
L 304.585469 105.501884 
L 310.248739 106.695976 
L 315.865296 108.221178 
L 321.42211 110.072393 
L 326.908328 112.238602 
L 332.317062 114.702048 
L 337.638641 117.451267 
L 342.863768 120.47458 
L 347.983609 123.759907 
L 352.989797 127.294772 
L 357.874428 131.066303 
L 362.630065 135.061229 
L 367.249737 139.265883 
L 371.726935 143.6662 
L 376.05562 148.247718 
L 380.230214 152.995579 
L 384.245606 157.894526 
L 388.09715 162.928905 
L 391.780666 168.082665 
L 395.292439 173.339359 
L 398.629218 178.682141 
L 401.788219 184.093768 
L 404.767122 189.556602 
L 407.564072 195.052604 
L 410.177681 200.563341 
L 412.607025 206.069982 
L 414.851645 211.553297 
L 416.913103 217.018745 
L 418.793221 222.486134 
L 420.491982 227.952454 
L 422.009451 233.414737 
L 423.345781 238.870091 
L 424.501209 244.315693 
L 425.476063 249.748798 
L 426.270753 255.16673 
L 426.88578 260.566891 
L 427.321729 265.946754 
L 427.579272 271.303865 
L 427.659169 276.635844 
L 427.562265 281.940386 
L 427.289492 287.215257 
L 426.841869 292.458297 
L 426.220503 297.667423 
L 425.426586 302.840619 
L 424.461396 307.975949 
L 423.3263 313.071545 
L 422.02275 318.125617 
L 420.552285 323.136446 
L 418.916531 328.102386 
L 417.117228 333.022671 
L 415.156247 337.901361 
L 413.035034 342.730803 
L 410.755243 347.500603 
L 408.318862 352.200463 
L 405.728212 356.820175 
L 402.985947 361.349624 
L 400.095056 365.778788 
L 397.05886 370.097736 
L 393.881017 374.296631 
L 390.565516 378.365728 
L 387.116679 382.295372 
L 383.539166 386.076003 
L 379.837965 389.698153 
L 376.018402 393.152445 
L 372.086136 396.429596 
L 368.047159 399.520414 
L 363.907796 402.4158 
L 359.674708 405.106748 
L 355.354887 407.584343 
L 350.955661 409.839762 
L 346.48469 411.864277 
L 341.94997 413.649249 
L 337.359829 415.186134 
L 332.722929 416.466479 
L 328.048266 417.481924 
L 323.345169 418.2242 
L 318.623302 418.685132 
L 313.892662 418.856637 
L 309.162818 418.734312 
L 304.440998 418.329299 
L 299.736985 417.644777 
L 295.060601 416.683362 
L 290.421346 415.448578 
L 285.8284 413.944851 
L 281.290623 412.177518 
L 276.816554 410.15282 
L 272.414412 407.877904 
L 268.092095 405.360825 
L 263.857181 402.610542 
L 259.716927 399.636921 
L 255.67827 396.450736 
L 251.747826 393.063666 
L 247.93189 389.488296 
L 244.236438 385.738117 
L 240.667125 381.827527 
L 237.229285 377.771831 
L 233.927932 373.587238 
L 230.767758 369.290867 
L 227.753137 364.900739 
L 224.88758 360.431757 
L 222.171863 355.879932 
L 219.608246 351.252048 
L 217.199071 346.55676 
L 214.946455 341.802414 
L 212.852286 336.997038 
L 210.91823 332.14835 
L 209.145724 327.263751 
L 207.535979 322.350334 
L 206.089979 317.414873 
L 204.808483 312.463831 
L 203.692024 307.503359 
L 202.740908 302.539293 
L 201.955215 297.577155 
L 201.334798 292.622155 
L 200.879284 287.679188 
L 200.588075 282.752838 
L 200.460345 277.847374 
L 200.495042 272.966751 
L 200.69089 268.114613 
L 201.046383 263.294287 
L 201.559762 258.508093 
L 202.229695 253.757824 
L 203.055468 249.048477 
L 204.036139 244.385375 
L 205.170508 239.773988 
L 206.45712 235.219928 
L 207.894261 230.728954 
L 209.479961 226.306969 
L 211.211991 221.96002 
L 213.087867 217.6943 
L 215.104846 213.516145 
L 217.259928 209.432039 
L 219.549856 205.448608 
L 221.971117 201.572623 
L 224.519939 197.811001 
L 227.192293 194.170803 
L 229.983893 190.659234 
L 232.890196 187.283646 
L 235.906403 184.051534 
L 239.027454 180.970538 
L 242.248036 178.048444 
L 245.562576 175.29318 
L 248.965244 172.712821 
L 252.449955 170.315588 
L 256.010365 168.109843 
L 259.639871 166.104096 
L 263.331691 164.306769 
L 267.080443 162.72033 
L 270.879003 161.34944 
L 274.719356 160.200341 
L 278.593551 159.278269 
L 282.493695 158.587462 
L 286.411962 158.131154 
L 290.340583 157.911581 
L 294.271855 157.929973 
L 298.198134 158.186563 
L 302.111841 158.68058 
L 306.005457 159.410251 
L 309.871524 160.372804 
L 313.702649 161.564464 
L 317.491498 162.980454 
L 321.230802 164.614997 
L 324.913351 166.461314 
L 328.531999 168.511624 
L 332.079661 170.757146 
L 335.549314 173.188096 
L 338.933998 175.793689 
L 342.228027 178.565251 
L 345.427719 181.498347 
L 348.527808 184.583842 
L 351.523271 187.812534 
L 354.409388 191.175322 
L 357.181747 194.663203 
L 359.836241 198.267272 
L 362.369066 201.978723 
L 364.776726 205.788849 
L 367.056031 209.689043 
L 369.204094 213.670794 
L 371.218335 217.725691 
L 373.09648 221.845422 
L 374.836559 226.021774 
L 376.436909 230.246631 
L 377.896171 234.511978 
L 379.213292 238.809896 
L 380.387526 243.132567 
L 381.418431 247.472272 
L 382.306081 251.822199 
L 383.051172 256.179748 
L 383.653097 260.540384 
L 384.111305 264.899099 
L 384.425473 269.25084 
L 384.595505 273.590504 
L 384.621532 277.912942 
L 384.503912 282.212959 
L 384.243233 286.485309 
L 383.840307 290.7247 
L 383.296175 294.925793 
L 382.612105 299.083202 
L 381.789592 303.191492 
L 380.830359 307.245181 
L 379.736357 311.23874 
L 378.509762 315.166592 
L 377.152979 319.023112 
L 375.668641 322.802629 
L 374.059607 326.499422 
L 372.328963 330.107726 
L 370.480024 333.621725 
L 368.516331 337.035558 
L 366.441653 340.343315 
L 364.259986 343.539038 
L 361.975553 346.616724 
L 359.592806 349.570321 
L 357.11491 352.396399 
L 354.544885 355.090284 
L 351.887819 357.643211 
L 349.148908 360.047032 
L 346.333457 362.294226 
L 343.446869 364.377905 
L 340.494654 366.291807 
L 337.482424 368.030302 
L 334.415893 369.58839 
L 331.300882 370.961699 
L 328.143313 372.146487 
L 324.949211 373.139644 
L 321.724706 373.938686 
L 318.47603 374.54176 
L 315.209519 374.947645 
L 311.931614 375.155746 
L 308.648856 375.166101 
L 305.367893 374.979374 
L 302.095473 374.596862 
L 298.838451 374.020491 
L 295.603784 373.252814 
L 292.39853 372.297017 
L 289.229854 371.156914 
L 286.103858 369.836707 
L 283.023717 368.340461 
L 279.995415 366.673103 
L 277.024944 364.839845 
L 274.118032 362.846125 
L 271.280148 360.697615 
L 268.516496 358.400213 
L 265.832021 355.960051 
L 263.231406 353.383488 
L 260.719071 350.677115 
L 258.299176 347.847752 
L 255.975619 344.902449 
L 253.752035 341.848487 
L 251.631799 338.693375 
L 249.618025 335.444855 
L 247.713563 332.110896 
L 245.921004 328.699699 
L 244.242675 325.219694 
L 242.680643 321.679542 
L 241.236714 318.088133 
L 239.91243 314.454588 
L 238.709073 310.788257 
L 237.627501 307.097076 
L 236.667785 303.379732 
L 235.830914 299.640593 
L 235.117839 295.885369 
L 234.529291 292.119732 
L 234.065786 288.349323 
L 233.72762 284.579748 
L 233.514872 280.816576 
L 233.427405 277.065346 
L 233.464863 273.331559 
L 233.626671 269.620683 
L 233.91204 265.938153 
L 234.319959 262.289367 
L 234.849204 258.67969 
L 235.498329 255.114453 
L 236.265674 251.598953 
L 237.149359 248.13845 
L 238.147287 244.738174 
L 239.257145 241.403316 
L 240.476399 238.139036 
L 241.802302 234.950458 
L 243.231884 231.842672 
L 244.761962 228.820734 
L 246.389802 225.88865 
L 248.113482 223.050197 
L 249.929622 220.312093 
L 251.834654 217.680819 
L 253.824871 215.162511 
L 255.896427 212.762964 
L 258.045343 210.487632 
L 260.2675 208.341622 
L 262.558642 206.329701 
L 264.914377 204.456293 
L 267.330175 202.725477 
L 269.801368 201.140991 
L 272.323154 199.706231 
L 274.89059 198.424248 
L 277.498598 197.297752 
L 280.141964 196.329107 
L 282.815333 195.520339 
L 285.513216 194.873127 
L 288.229987 194.388809 
L 290.959881 194.06838 
L 293.696996 193.912491 
L 296.435521 193.92131 
L 299.17184 194.093136 
L 301.900598 194.426891 
L 304.615908 194.921531 
L 307.31205 195.575619 
L 309.983476 196.387325 
L 312.624808 197.354425 
L 315.230837 198.474302 
L 317.796524 199.743948 
L 320.317001 201.15996 
L 322.787569 202.718543 
L 325.203697 204.415508 
L 327.561029 206.246275 
L 329.855373 208.205869 
L 332.082712 210.288923 
L 334.239195 212.489676 
L 336.321143 214.801976 
L 338.325047 217.219275 
L 340.247566 219.734635 
L 342.085532 222.340724 
L 343.835943 225.029816 
L 345.495971 227.793793 
L 347.062955 230.624145 
L 348.534419 233.512077 
L 349.908944 236.456139 
L 352.360938 242.499958 
L 354.405972 248.711858 
L 356.033833 255.045494 
L 357.237552 261.455741 
L 358.013411 267.8987 
L 358.360941 274.331694 
L 358.282918 280.713269 
L 358.086081 283.872154 
L 358.086081 283.872154 
" clip-path="url(#p74e92aaf0b)" style="fill: none; stroke: #000000; stroke-opacity: 0.3; stroke-width: 7; stroke-linecap: square"/>
   </g>
   <g id="line2d_12">
    <path d="M 536.572539 265.642472 
L 537.117039 270.681098 
L 537.329023 275.680136 
L 537.209251 280.674344 
L 536.757359 285.698489 
L 535.97078 290.787286 
L 534.845137 295.975425 
L 533.374801 301.297515 
L 531.551881 306.787804 
L 529.367653 312.480319 
L 526.811469 318.408249 
L 523.87028 324.603825 
L 520.529782 331.098193 
L 516.763091 337.920387 
L 512.533592 345.098592 
L 507.780467 352.659055 
L 502.436905 360.625358 
L 496.474367 369.019713 
L 486.592594 382.40896 
L 479.286316 391.843468 
L 471.23025 401.654704 
L 462.630035 411.790261 
L 453.263464 422.176651 
L 448.361687 427.433723 
L 437.965973 438.000632 
L 432.50084 443.274772 
L 426.880442 448.515801 
L 421.076396 453.701639 
L 415.104862 458.807754 
L 408.96274 463.809063 
L 402.666492 468.677936 
L 396.185921 473.386762 
L 389.590489 477.905847 
L 382.80265 482.206028 
L 375.926326 486.257343 
L 368.868154 490.03011 
L 361.744908 493.496061 
L 354.452731 496.626949 
L 347.125167 499.397456 
L 339.654636 501.784341 
L 332.127953 503.764567 
L 324.594588 505.323321 
L 316.9841 506.446876 
L 309.302382 507.122393 
L 301.591954 507.341761 
L 293.882048 507.102779 
L 286.202417 506.407899 
L 278.596221 505.265396 
L 271.064897 503.688364 
L 263.53681 501.690409 
L 256.071409 499.286523 
L 248.749857 496.500224 
L 241.458275 493.354341 
L 234.342915 489.874783 
L 227.288149 486.089443 
L 220.420064 482.02695 
L 213.637791 477.716738 
L 207.047088 473.188981 
L 200.57848 468.472702 
L 194.284487 463.597655 
L 188.15427 458.591302 
L 182.182322 453.481273 
L 176.394661 448.292595 
L 170.772102 443.049717 
L 165.317308 437.774601 
L 154.938917 427.20828 
L 145.302728 416.735318 
L 140.692827 411.570544 
L 132.108723 401.441124 
L 124.066432 391.637514 
L 116.773253 382.211182 
L 106.910296 368.834536 
L 100.963732 360.45058 
L 95.62889 352.491827 
L 90.887726 344.939704 
L 86.669834 337.769028 
L 82.912365 330.953815 
L 79.580107 324.465888 
L 76.648044 318.275907 
L 74.099998 312.353014 
L 71.923907 306.66472 
L 70.108834 301.177927 
L 68.64616 295.858591 
L 67.528265 290.672393 
L 66.749139 285.584779 
L 66.304879 280.561033 
L 66.192585 275.566428 
L 66.412061 270.566209 
L 66.96434 265.525605 
L 67.852351 260.409903 
L 69.081146 255.184457 
L 70.656764 249.814676 
L 72.587527 244.266428 
L 74.88274 238.505899 
L 77.553305 232.500051 
L 80.613672 226.21714 
L 84.078926 219.626392 
L 87.980288 212.699278 
L 92.36058 205.408217 
L 97.287491 197.72683 
L 102.824593 189.633014 
L 108.94134 181.108593 
L 119.04939 167.531058 
L 122.713519 162.803588 
L 130.651764 153.063541 
L 139.118873 142.986654 
L 148.365193 132.642985 
L 153.181363 127.399247 
L 163.45451 116.83996 
L 168.818909 111.558522 
L 174.397541 106.301806 
L 180.102783 101.091306 
L 186.040625 95.950648 
L 192.087828 90.904678 
L 198.347462 85.980155 
L 204.732831 81.204393 
L 211.299055 76.606851 
L 218.007343 72.216258 
L 224.846132 68.063241 
L 231.843709 64.17642 
L 238.930469 60.586068 
L 246.167942 57.319018 
L 253.4797 54.403444 
L 260.886483 51.861616 
L 268.408379 49.718346 
L 275.93193 47.991178 
L 283.507446 46.693698 
L 291.165786 45.839657 
L 298.869148 45.439099 
L 306.5822 45.496732 
L 314.27789 46.011826 
L 321.917795 46.978497 
L 329.473492 48.385181 
L 336.995729 50.218072 
L 344.509288 52.463639 
L 351.871887 55.101604 
L 359.181645 58.107627 
L 366.368278 61.45874 
L 373.448972 65.126022 
L 380.388008 69.082678 
L 387.217054 73.29808 
L 393.864061 77.743505 
L 400.408298 82.388532 
L 406.741386 87.20419 
L 412.967877 92.161867 
L 418.973139 97.233953 
L 424.861212 102.394484 
L 436.070572 112.883545 
L 446.568818 123.452557 
L 451.556598 128.719617 
L 461.019274 139.140854 
L 465.494214 144.268376 
L 473.892658 154.30662 
L 481.734469 164.000084 
L 488.808727 173.306935 
L 498.455881 186.492334 
L 504.223828 194.74717 
L 509.373078 202.581114 
L 513.949391 210.015516 
L 518.021992 217.076331 
L 521.647703 223.790006 
L 524.856805 230.18514 
L 527.671028 236.291567 
L 530.105246 242.140576 
L 532.17083 247.764986 
L 533.878216 253.198147 
L 535.235589 258.474232 
L 536.250083 263.62766 
L 536.927234 268.69303 
L 537.270386 273.705083 
L 537.281893 278.698559 
L 536.961411 283.708215 
L 536.307329 288.768823 
L 535.316204 293.915089 
L 533.98245 299.181618 
L 532.299546 304.602953 
L 530.258734 310.213092 
L 527.850219 316.045654 
L 525.062607 322.133402 
L 521.880108 328.507659 
L 518.285944 335.198719 
L 514.24399 342.234638 
L 509.705246 349.642469 
L 504.595608 357.448509 
L 498.873909 365.673344 
L 489.27055 378.815417 
L 482.242821 388.094919 
L 474.451077 397.762828 
L 466.090362 407.779453 
L 461.649474 412.897951 
L 452.221398 423.306087 
L 447.268838 428.569489 
L 436.810707 439.138227 
L 431.292523 444.407035 
L 425.646363 449.638073 
L 419.789408 454.808762 
L 413.804318 459.89448 
L 407.604741 464.869544 
L 401.284885 469.706284 
L 394.764755 474.376448 
L 388.142659 478.850908 
L 381.325128 483.099628 
L 374.414312 487.093481 
L 367.339198 490.802094 
L 360.179276 494.198206 
L 352.873431 497.253036 
L 345.526724 499.942808 
L 338.028312 502.243544 
L 330.503875 504.133818 
L 322.959174 505.599803 
L 315.329892 506.627551 
L 307.639043 507.205009 
L 299.926697 507.325539 
L 292.220382 506.987663 
L 284.553617 506.195288 
L 276.965903 504.95785 
L 269.441899 503.288871 
L 261.913882 501.201814 
L 254.484426 498.713218 
L 247.171748 495.84759 
L 239.910624 492.627218 
L 232.814164 489.07953 
L 225.792284 485.231668 
L 218.943226 481.113432 
L 212.207978 476.753575 
L 205.630461 472.1828 
L 199.216769 467.429758 
L 192.938607 462.524091 
L 186.861849 457.493128 
L 180.910819 452.364036 
L 175.176537 447.161697 
L 169.572295 441.910046 
L 164.176552 436.630762 
L 153.863444 426.068241 
L 144.293782 415.612571 
L 139.727443 410.460647 
L 131.217677 400.363037 
L 123.242556 390.598208 
L 116.031614 381.214226 
L 106.245757 367.90543 
L 100.361036 359.567304 
L 95.093907 351.653364 
L 90.413073 344.143234 
L 86.247676 337.011793 
L 82.537712 330.23286 
L 79.250197 323.778004 
L 76.360546 317.617866 
L 73.853686 311.72125 
L 71.71751 306.055671 
L 69.941388 300.587891 
L 68.516884 295.283801 
L 67.436383 290.109069 
L 66.694305 285.029101 
L 66.286718 280.009172 
L 66.211044 275.014553 
L 66.467307 270.010474 
L 67.056565 264.962164 
L 67.982205 259.834915 
L 69.249246 254.594069 
L 70.864023 249.20508 
L 72.83505 243.633862 
L 75.171557 237.846573 
L 77.885056 231.810444 
L 80.989807 225.493697 
L 84.502303 218.865877 
L 88.454854 211.898615 
L 92.893382 204.564178 
L 97.885006 196.836994 
L 103.490037 188.694844 
L 109.671191 180.121549 
L 119.866536 166.473849 
L 127.504655 156.878614 
L 135.773064 146.924415 
L 140.123303 141.83208 
L 149.445796 131.463404 
L 154.306008 126.211724 
L 164.644974 115.647434 
L 170.067877 110.369751 
L 175.678016 105.121607 
L 181.436021 99.924759 
L 187.392737 94.803408 
L 193.491829 89.782425 
L 199.776279 84.889222 
L 206.214368 80.151145 
L 212.79494 75.597949 
L 219.552622 71.258369 
L 226.406373 67.162925 
L 233.444183 63.340663 
L 240.547646 59.820884 
L 247.821251 56.631077 
L 255.138306 53.79797 
L 262.581665 51.344161 
L 270.11037 49.293708 
L 277.636866 47.662504 
L 285.231446 46.463916 
L 292.903255 45.711921 
L 300.611259 45.414489 
L 308.322953 45.575703 
L 316.010009 46.193497 
L 323.632183 47.260725 
L 331.171777 48.76487 
L 338.695953 50.692178 
L 346.185238 53.028457 
L 353.519895 55.751437 
L 360.824122 58.837645 
L 367.965344 62.262527 
L 375.038042 65.997658 
L 381.929338 70.015201 
L 388.739945 74.285245 
L 395.346283 78.778121 
L 401.855279 83.464359 
L 408.160367 88.314362 
L 414.335015 93.300307 
L 420.317807 98.394466 
L 426.15268 103.57152 
L 431.787371 108.806754 
L 437.287596 114.077882 
L 447.715593 124.646061 
L 457.406015 135.131738 
L 462.050482 140.306382 
L 470.694821 150.460397 
L 478.787271 160.294363 
L 486.144158 169.754092 
L 496.067106 183.184512 
L 502.063314 191.605559 
L 507.450317 199.600175 
L 512.23843 207.186437 
L 516.497796 214.389111 
L 520.292562 221.234042 
L 523.659159 227.749355 
L 526.624135 233.964174 
L 527.961202 236.968498 
L 527.961202 236.968498 
" clip-path="url(#p74e92aaf0b)" style="fill: none; stroke-dasharray: 22.4,5.6,3.5,5.6; stroke-dashoffset: 0; stroke: #0000ff; stroke-opacity: 0.8; stroke-width: 3.5"/>
   </g>
   <g id="patch_3">
    <path d="M 42.620313 530.438125 
L 42.620313 22.318125 
" style="fill: none; stroke: #000000; stroke-width: 0.8; stroke-linejoin: miter; stroke-linecap: square"/>
   </g>
   <g id="patch_4">
    <path d="M 561.210312 530.438125 
L 561.210312 22.318125 
" style="fill: none; stroke: #000000; stroke-width: 0.8; stroke-linejoin: miter; stroke-linecap: square"/>
   </g>
   <g id="patch_5">
    <path d="M 42.620313 530.438125 
L 561.210312 530.438125 
" style="fill: none; stroke: #000000; stroke-width: 0.8; stroke-linejoin: miter; stroke-linecap: square"/>
   </g>
   <g id="patch_6">
    <path d="M 42.620313 22.318125 
L 561.210312 22.318125 
" style="fill: none; stroke: #000000; stroke-width: 0.8; stroke-linejoin: miter; stroke-linecap: square"/>
   </g>
   <g id="line2d_13">
    <path d="M 536.572539 265.642472 
L 537.165309 269.238119 
L 537.520465 272.812337 
L 537.63804 276.394349 
L 537.516798 280.013603 
L 537.153266 283.699985 
L 536.541757 287.484079 
L 535.675218 291.396852 
L 534.543538 295.47036 
L 533.135265 299.737151 
L 531.436435 304.230566 
L 529.43065 308.984635 
L 527.099955 314.033737 
L 524.423073 319.412251 
L 521.377335 325.15428 
L 517.937439 331.292583 
L 514.075915 337.857375 
L 509.763788 344.876903 
L 504.969864 352.371279 
L 499.662238 360.356098 
L 493.808057 368.835186 
L 487.375016 377.797798 
L 480.330986 387.222318 
L 472.647841 397.055953 
L 464.29983 407.230951 
L 455.267618 417.645356 
L 450.491361 422.901111 
L 445.540602 428.164514 
L 440.414232 433.416043 
L 435.114315 438.629417 
L 429.642918 443.778355 
L 424.002287 448.836496 
L 418.195703 453.775512 
L 412.226358 458.565268 
L 406.101198 463.174276 
L 399.827172 467.571051 
L 393.411388 471.724504 
L 386.862098 475.603611 
L 380.188118 479.175027 
L 373.40127 482.413211 
L 366.513376 485.292623 
L 359.536317 487.788566 
L 352.482864 489.879115 
L 345.366798 491.541976 
L 338.202816 492.769171 
L 331.005613 493.552726 
L 323.789797 493.885525 
L 316.570287 493.764869 
L 309.362801 493.190433 
L 302.181627 492.174646 
L 295.041054 490.729938 
L 287.95517 488.869162 
L 280.937723 486.608897 
L 274.002571 483.968838 
L 267.160772 480.973957 
L 260.423386 477.649227 
L 253.801243 474.019518 
L 247.304424 470.111216 
L 240.942494 465.952343 
L 234.72215 461.569183 
L 228.650088 456.988023 
L 222.732817 452.234734 
L 216.97603 447.334739 
L 211.384665 442.313236 
L 205.961515 437.190465 
L 200.709373 431.986666 
L 195.630908 426.7216 
L 190.728146 421.413701 
L 186.002444 416.08016 
L 181.453916 410.733113 
L 177.082671 405.384696 
L 172.888763 400.046643 
L 168.871842 394.729336 
L 165.031115 389.441751 
L 161.365285 384.18904 
L 157.873051 378.976351 
L 154.553111 373.808551 
L 151.403959 368.689475 
L 148.423883 363.621831 
L 145.611164 358.605854 
L 142.964078 353.641779 
L 140.480935 348.729665 
L 138.159988 343.868895 
L 135.999462 339.058093 
L 133.997865 334.294468 
L 132.153708 329.575231 
L 130.46555 324.897495 
L 128.931983 320.257971 
L 127.551697 315.652932 
L 126.32381 311.077975 
L 125.247438 306.528699 
L 124.321764 302.000675 
L 123.546045 297.489247 
L 122.919716 292.989576 
L 122.44268 288.496701 
L 122.114842 284.005662 
L 121.936166 279.511554 
L 121.906721 275.009352 
L 122.026787 270.494063 
L 122.297069 265.961127 
L 122.71827 261.405984 
L 123.291135 256.824233 
L 124.016531 252.211415 
L 124.895531 247.563385 
L 125.929481 242.877123 
L 127.119726 238.149608 
L 128.467614 233.378132 
L 129.974626 228.559975 
L 131.642382 223.693171 
L 133.472491 218.777793 
L 135.466565 213.813918 
L 137.626141 208.802134 
L 139.952903 203.743109 
L 142.448506 198.638896 
L 145.114151 193.494655 
L 147.951038 188.315551 
L 150.960188 183.107427 
L 154.142762 177.876451 
L 157.499588 172.630878 
L 161.030452 167.382827 
L 164.735139 162.144416 
L 168.613137 156.928418 
L 172.664005 151.748415 
L 176.88654 146.620383 
L 181.277907 141.563683 
L 185.835271 136.597675 
L 190.555421 131.741947 
L 195.43504 127.017521 
L 200.469621 122.446902 
L 205.652729 118.053421 
L 210.977928 113.860407 
L 216.43844 109.890604 
L 222.027107 106.1684 
L 227.735413 102.717091 
L 233.553236 99.556651 
L 239.47045 96.707055 
L 245.476766 94.186912 
L 251.561264 92.01562 
L 257.712038 90.208321 
L 263.916525 88.773547 
L 270.162161 87.719832 
L 276.436471 87.054172 
L 282.726328 86.78269 
L 289.018475 86.905832 
L 295.300157 87.417438 
L 301.558621 88.311345 
L 307.781406 89.580399 
L 313.955668 91.2154 
L 320.069341 93.202962 
L 326.111667 95.526074 
L 332.071892 98.167724 
L 337.939638 101.110732 
L 343.704515 104.335992 
L 349.357438 107.823271 
L 354.890835 111.552209 
L 360.297136 115.502448 
L 365.569116 119.654081 
L 370.699803 123.986202 
L 375.683558 128.479309 
L 380.516 133.115908 
L 385.192746 137.878506 
L 389.709665 142.75031 
L 394.062968 147.714408 
L 398.249895 152.756395 
L 402.268509 157.864422 
L 406.116872 163.026643 
L 409.793187 168.231874 
L 413.295966 173.469283 
L 416.624344 178.73049 
L 419.777867 184.009289 
L 422.756084 189.299471 
L 425.558593 194.595322 
L 428.185215 199.891604 
L 430.636034 205.184928 
L 432.911253 210.473369 
L 435.011074 215.755002 
L 436.935691 221.028184 
L 438.68543 226.291727 
L 440.260629 231.545531 
L 441.661576 236.790243 
L 442.888559 242.026511 
L 443.941837 247.255053 
L 444.821709 252.477 
L 445.528366 257.693802 
L 446.061896 262.907004 
L 446.422387 268.118154 
L 446.609909 273.328651 
L 446.624487 278.540302 
L 446.466048 283.754446 
L 446.134465 288.971907 
L 445.629612 294.193506 
L 444.951391 299.419685 
L 444.099575 304.651315 
L 443.073983 309.887964 
L 441.87453 315.128074 
L 440.501131 320.370092 
L 438.953818 325.611855 
L 437.232404 330.851604 
L 435.337038 336.085442 
L 433.268207 341.307839 
L 431.026396 346.513263 
L 428.612326 351.695445 
L 426.026427 356.848291 
L 423.269891 361.963061 
L 420.34453 367.029189 
L 417.252158 372.036109 
L 413.99494 376.972641 
L 410.57476 381.82722 
L 406.99471 386.586024 
L 403.25875 391.233901 
L 399.370845 395.755699 
L 395.335368 400.136153 
L 391.156555 404.358827 
L 386.840129 408.406852 
L 382.392753 412.263386 
L 377.821088 415.911588 
L 373.132151 419.3353 
L 368.333105 422.516696 
L 363.432464 425.440481 
L 358.439465 428.093204 
L 353.363344 430.461414 
L 348.213509 432.533039 
L 342.999814 434.294714 
L 337.732824 435.738216 
L 332.423359 436.858412 
L 327.082241 437.65017 
L 321.72021 438.10989 
L 316.348593 438.233854 
L 310.978494 438.023971 
L 305.620749 437.485129 
L 300.286194 436.622213 
L 294.98537 435.441173 
L 289.729304 433.948958 
L 284.527986 432.15624 
L 279.390771 430.075397 
L 274.327016 427.718808 
L 269.345678 425.099162 
L 264.455956 422.230504 
L 259.665612 419.127729 
L 254.981667 415.80594 
L 250.411142 412.280243 
L 245.960671 408.565422 
L 241.636892 404.677295 
L 237.44505 400.630292 
L 233.389745 396.438065 
L 229.475577 392.114265 
L 225.706841 387.671925 
L 222.087698 383.124556 
L 218.621229 378.483328 
L 215.310055 373.758311 
L 212.156798 368.959575 
L 209.163876 364.096557 
L 206.333542 359.178737 
L 203.667343 354.21335 
L 201.16655 349.206669 
L 198.83244 344.164967 
L 196.666166 339.094054 
L 194.668751 333.999516 
L 192.840824 328.88538 
L 191.182869 323.755058 
L 189.695373 318.611962 
L 188.378752 313.459294 
L 187.233362 308.299881 
L 186.259339 303.135912 
L 185.45674 297.969365 
L 184.82562 292.80222 
L 184.365973 287.636523 
L 184.077824 282.473848 
L 183.960994 277.316116 
L 184.015218 272.165422 
L 184.240233 267.023866 
L 184.635671 261.893875 
L 185.201303 256.777372 
L 185.936549 251.677538 
L 186.84068 246.598064 
L 187.912969 241.542643 
L 189.152505 236.515505 
L 190.558616 231.520446 
L 192.129996 226.563194 
L 193.865086 221.650195 
L 195.762329 216.787894 
L 197.819886 211.983327 
L 200.036215 207.243389 
L 202.408792 202.576998 
L 204.934726 197.993757 
L 207.611127 193.503273 
L 210.434742 189.115537 
L 213.402589 184.840945 
L 216.510412 180.691033 
L 219.753524 176.67767 
L 223.127235 172.812726 
L 226.626473 169.10796 
L 230.246291 165.576147 
L 233.980422 162.22929 
L 237.822188 159.079083 
L 241.764911 156.137222 
L 245.801615 153.41461 
L 249.925202 150.92349 
L 254.127584 148.673023 
L 258.4004 146.671374 
L 262.73529 144.926703 
L 267.12377 143.445886 
L 271.557004 142.236827 
L 276.025829 141.302841 
L 280.521025 140.645887 
L 285.033373 140.267924 
L 289.553753 140.169578 
L 294.072575 140.351712 
L 298.580702 140.810805 
L 303.069152 141.542141 
L 307.528945 142.541002 
L 311.951381 143.801754 
L 316.327347 145.318244 
L 320.648773 147.081639 
L 324.907889 149.082441 
L 329.096924 151.311152 
L 333.208484 153.757973 
L 337.234914 156.412262 
L 341.169863 159.262834 
L 345.007315 162.298412 
L 348.741256 165.507719 
L 352.366053 168.87969 
L 355.87597 172.402527 
L 359.26652 176.065467 
L 362.533516 179.858021 
L 365.672768 183.769704 
L 368.680412 187.790503 
L 371.55259 191.909984 
L 374.286453 196.119388 
L 376.879384 200.410354 
L 379.328762 204.774522 
L 381.632217 209.204016 
L 383.78742 213.690861 
L 385.792787 218.228605 
L 387.646892 222.811132 
L 389.348314 227.432328 
L 390.895814 232.086409 
L 392.288174 236.767733 
L 393.52473 241.471561 
L 394.604931 246.19334 
L 395.528226 250.928514 
L 396.294223 255.672621 
L 396.902489 260.421507 
L 397.353076 265.171105 
L 397.646134 269.917358 
L 397.781811 274.656211 
L 397.76043 279.383454 
L 397.582189 284.095256 
L 397.24784 288.787097 
L 396.758244 293.454318 
L 396.114259 298.092262 
L 395.316965 302.69593 
L 394.367241 307.260649 
L 393.266696 311.780539 
L 392.017074 316.249496 
L 390.620119 320.661417 
L 389.077862 325.009806 
L 387.392086 329.288273 
L 385.565524 333.489213 
L 383.601075 337.604808 
L 381.501639 341.627243 
L 379.270453 345.548465 
L 376.910535 349.360146 
L 374.425998 353.053439 
L 371.821142 356.619425 
L 369.100266 360.049181 
L 366.268016 363.333928 
L 363.328919 366.464177 
L 360.288572 369.431297 
L 357.152739 372.226804 
L 353.927182 374.842214 
L 350.617945 377.269677 
L 347.231123 379.500389 
L 343.773591 381.527982 
L 340.252337 383.346458 
L 336.674347 384.949822 
L 333.046744 386.333115 
L 329.376881 387.490539 
L 325.672376 388.419771 
L 321.940878 389.118978 
L 318.190035 389.586329 
L 314.42745 389.82114 
L 310.661064 389.822324 
L 306.89849 389.592221 
L 303.147295 389.133622 
L 299.415045 388.449316 
L 295.709088 387.543009 
L 292.03712 386.418508 
L 288.406027 385.081986 
L 284.822589 383.539906 
L 281.293589 381.798731 
L 277.825478 379.865395 
L 274.424983 377.747257 
L 271.097763 375.452573 
L 267.849347 372.989702 
L 264.685267 370.367001 
L 261.610685 367.592862 
L 258.63094 364.676157 
L 255.750268 361.625444 
L 252.972784 358.449243 
L 250.302603 355.156072 
L 247.74349 351.754202 
L 245.299306 348.252257 
L 242.972924 344.657925 
L 240.767117 340.978794 
L 238.684656 337.222455 
L 236.72801 333.396164 
L 234.899702 329.507333 
L 233.201429 325.562406 
L 231.63481 321.567735 
L 230.201463 317.529668 
L 228.902742 313.454298 
L 227.740065 309.34769 
L 226.714145 305.215308 
L 225.82563 301.062558 
L 225.07517 296.894849 
L 224.463176 292.717495 
L 223.990151 288.535656 
L 223.655939 284.354418 
L 223.460329 280.178863 
L 223.403107 276.014073 
L 223.483818 271.865211 
L 223.702146 267.73724 
L 224.057071 263.635529 
L 224.54752 259.565476 
L 225.17242 255.532479 
L 225.930422 251.542132 
L 226.820362 247.599896 
L 227.840269 243.711851 
L 228.988118 239.884119 
L 230.261883 236.12282 
L 231.659228 232.434259 
L 233.178011 228.824793 
L 234.815188 225.301187 
L 236.567661 221.870229 
L 238.432329 218.538708 
L 240.405765 215.313416 
L 242.484695 212.201469 
L 244.664932 209.209701 
L 246.942241 206.344927 
L 249.312382 203.613966 
L 251.770816 201.023316 
L 254.313064 198.580052 
L 256.933872 196.289964 
L 259.627951 194.158775 
L 262.390009 192.19221 
L 265.214536 190.395313 
L 268.095957 188.773813 
L 271.028233 187.331214 
L 274.005303 186.070921 
L 277.021108 184.99634 
L 280.069501 184.109947 
L 283.144158 183.41479 
L 286.23871 182.911253 
L 289.346786 182.599615 
L 292.462015 182.480157 
L 295.578099 182.552201 
L 298.688487 182.815374 
L 301.787016 183.26689 
L 304.867534 183.903884 
L 307.92389 184.723488 
L 310.950145 185.722086 
L 313.940098 186.896069 
L 316.888263 188.240214 
L 319.789175 189.749252 
L 322.637369 191.417913 
L 325.427689 193.240514 
L 328.154747 195.21118 
L 330.814052 197.32338 
L 333.40113 199.570567 
L 335.911509 201.946194 
L 338.340967 204.443609 
L 340.68547 207.055965 
L 342.941514 209.776455 
L 345.105602 212.598273 
L 345.105602 212.598273 
" clip-path="url(#p74e92aaf0b)" style="fill: none; stroke-dasharray: 3.5,5.775; stroke-dashoffset: 0; stroke: #008000; stroke-opacity: 0.8; stroke-width: 3.5"/>
   </g>
   <g id="text_13">
    <!-- Phase Portrait (x0 vs x1) -->
    <g transform="translate(228.224062 16.318125) scale(0.12 -0.12)">
     <defs>
      <path id="DejaVuSans-50" d="M 1259 4147 
L 1259 2394 
L 2053 2394 
Q 2494 2394 2734 2622 
Q 2975 2850 2975 3272 
Q 2975 3691 2734 3919 
Q 2494 4147 2053 4147 
L 1259 4147 
z
M 628 4666 
L 2053 4666 
Q 2838 4666 3239 4311 
Q 3641 3956 3641 3272 
Q 3641 2581 3239 2228 
Q 2838 1875 2053 1875 
L 1259 1875 
L 1259 0 
L 628 0 
L 628 4666 
z
" transform="scale(0.015625)"/>
      <path id="DejaVuSans-68" d="M 3513 2113 
L 3513 0 
L 2938 0 
L 2938 2094 
Q 2938 2591 2744 2837 
Q 2550 3084 2163 3084 
Q 1697 3084 1428 2787 
Q 1159 2491 1159 1978 
L 1159 0 
L 581 0 
L 581 4863 
L 1159 4863 
L 1159 2956 
Q 1366 3272 1645 3428 
Q 1925 3584 2291 3584 
Q 2894 3584 3203 3211 
Q 3513 2838 3513 2113 
z
" transform="scale(0.015625)"/>
      <path id="DejaVuSans-61" d="M 2194 1759 
Q 1497 1759 1228 1600 
Q 959 1441 959 1056 
Q 959 750 1161 570 
Q 1363 391 1709 391 
Q 2188 391 2477 730 
Q 2766 1069 2766 1631 
L 2766 1759 
L 2194 1759 
z
M 3341 1997 
L 3341 0 
L 2766 0 
L 2766 531 
Q 2569 213 2275 61 
Q 1981 -91 1556 -91 
Q 1019 -91 701 211 
Q 384 513 384 1019 
Q 384 1609 779 1909 
Q 1175 2209 1959 2209 
L 2766 2209 
L 2766 2266 
Q 2766 2663 2505 2880 
Q 2244 3097 1772 3097 
Q 1472 3097 1187 3025 
Q 903 2953 641 2809 
L 641 3341 
Q 956 3463 1253 3523 
Q 1550 3584 1831 3584 
Q 2591 3584 2966 3190 
Q 3341 2797 3341 1997 
z
" transform="scale(0.015625)"/>
      <path id="DejaVuSans-73" d="M 2834 3397 
L 2834 2853 
Q 2591 2978 2328 3040 
Q 2066 3103 1784 3103 
Q 1356 3103 1142 2972 
Q 928 2841 928 2578 
Q 928 2378 1081 2264 
Q 1234 2150 1697 2047 
L 1894 2003 
Q 2506 1872 2764 1633 
Q 3022 1394 3022 966 
Q 3022 478 2636 193 
Q 2250 -91 1575 -91 
Q 1294 -91 989 -36 
Q 684 19 347 128 
L 347 722 
Q 666 556 975 473 
Q 1284 391 1588 391 
Q 1994 391 2212 530 
Q 2431 669 2431 922 
Q 2431 1156 2273 1281 
Q 2116 1406 1581 1522 
L 1381 1569 
Q 847 1681 609 1914 
Q 372 2147 372 2553 
Q 372 3047 722 3315 
Q 1072 3584 1716 3584 
Q 2034 3584 2315 3537 
Q 2597 3491 2834 3397 
z
" transform="scale(0.015625)"/>
      <path id="DejaVuSans-65" d="M 3597 1894 
L 3597 1613 
L 953 1613 
Q 991 1019 1311 708 
Q 1631 397 2203 397 
Q 2534 397 2845 478 
Q 3156 559 3463 722 
L 3463 178 
Q 3153 47 2828 -22 
Q 2503 -91 2169 -91 
Q 1331 -91 842 396 
Q 353 884 353 1716 
Q 353 2575 817 3079 
Q 1281 3584 2069 3584 
Q 2775 3584 3186 3129 
Q 3597 2675 3597 1894 
z
M 3022 2063 
Q 3016 2534 2758 2815 
Q 2500 3097 2075 3097 
Q 1594 3097 1305 2825 
Q 1016 2553 972 2059 
L 3022 2063 
z
" transform="scale(0.015625)"/>
      <path id="DejaVuSans-20" transform="scale(0.015625)"/>
      <path id="DejaVuSans-6f" d="M 1959 3097 
Q 1497 3097 1228 2736 
Q 959 2375 959 1747 
Q 959 1119 1226 758 
Q 1494 397 1959 397 
Q 2419 397 2687 759 
Q 2956 1122 2956 1747 
Q 2956 2369 2687 2733 
Q 2419 3097 1959 3097 
z
M 1959 3584 
Q 2709 3584 3137 3096 
Q 3566 2609 3566 1747 
Q 3566 888 3137 398 
Q 2709 -91 1959 -91 
Q 1206 -91 779 398 
Q 353 888 353 1747 
Q 353 2609 779 3096 
Q 1206 3584 1959 3584 
z
" transform="scale(0.015625)"/>
      <path id="DejaVuSans-72" d="M 2631 2963 
Q 2534 3019 2420 3045 
Q 2306 3072 2169 3072 
Q 1681 3072 1420 2755 
Q 1159 2438 1159 1844 
L 1159 0 
L 581 0 
L 581 3500 
L 1159 3500 
L 1159 2956 
Q 1341 3275 1631 3429 
Q 1922 3584 2338 3584 
Q 2397 3584 2469 3576 
Q 2541 3569 2628 3553 
L 2631 2963 
z
" transform="scale(0.015625)"/>
      <path id="DejaVuSans-74" d="M 1172 4494 
L 1172 3500 
L 2356 3500 
L 2356 3053 
L 1172 3053 
L 1172 1153 
Q 1172 725 1289 603 
Q 1406 481 1766 481 
L 2356 481 
L 2356 0 
L 1766 0 
Q 1100 0 847 248 
Q 594 497 594 1153 
L 594 3053 
L 172 3053 
L 172 3500 
L 594 3500 
L 594 4494 
L 1172 4494 
z
" transform="scale(0.015625)"/>
      <path id="DejaVuSans-69" d="M 603 3500 
L 1178 3500 
L 1178 0 
L 603 0 
L 603 3500 
z
M 603 4863 
L 1178 4863 
L 1178 4134 
L 603 4134 
L 603 4863 
z
" transform="scale(0.015625)"/>
      <path id="DejaVuSans-28" d="M 1984 4856 
Q 1566 4138 1362 3434 
Q 1159 2731 1159 2009 
Q 1159 1288 1364 580 
Q 1569 -128 1984 -844 
L 1484 -844 
Q 1016 -109 783 600 
Q 550 1309 550 2009 
Q 550 2706 781 3412 
Q 1013 4119 1484 4856 
L 1984 4856 
z
" transform="scale(0.015625)"/>
      <path id="DejaVuSans-76" d="M 191 3500 
L 800 3500 
L 1894 563 
L 2988 3500 
L 3597 3500 
L 2284 0 
L 1503 0 
L 191 3500 
z
" transform="scale(0.015625)"/>
      <path id="DejaVuSans-29" d="M 513 4856 
L 1013 4856 
Q 1481 4119 1714 3412 
Q 1947 2706 1947 2009 
Q 1947 1309 1714 600 
Q 1481 -109 1013 -844 
L 513 -844 
Q 928 -128 1133 580 
Q 1338 1288 1338 2009 
Q 1338 2731 1133 3434 
Q 928 4138 513 4856 
z
" transform="scale(0.015625)"/>
     </defs>
     <use xlink:href="#DejaVuSans-50"/>
     <use xlink:href="#DejaVuSans-68" transform="translate(60.302734 0)"/>
     <use xlink:href="#DejaVuSans-61" transform="translate(123.681641 0)"/>
     <use xlink:href="#DejaVuSans-73" transform="translate(184.960938 0)"/>
     <use xlink:href="#DejaVuSans-65" transform="translate(237.060547 0)"/>
     <use xlink:href="#DejaVuSans-20" transform="translate(298.583984 0)"/>
     <use xlink:href="#DejaVuSans-50" transform="translate(330.371094 0)"/>
     <use xlink:href="#DejaVuSans-6f" transform="translate(387.048828 0)"/>
     <use xlink:href="#DejaVuSans-72" transform="translate(448.230469 0)"/>
     <use xlink:href="#DejaVuSans-74" transform="translate(489.34375 0)"/>
     <use xlink:href="#DejaVuSans-72" transform="translate(528.552734 0)"/>
     <use xlink:href="#DejaVuSans-61" transform="translate(569.666016 0)"/>
     <use xlink:href="#DejaVuSans-69" transform="translate(630.945312 0)"/>
     <use xlink:href="#DejaVuSans-74" transform="translate(658.728516 0)"/>
     <use xlink:href="#DejaVuSans-20" transform="translate(697.9375 0)"/>
     <use xlink:href="#DejaVuSans-28" transform="translate(729.724609 0)"/>
     <use xlink:href="#DejaVuSans-78" transform="translate(768.738281 0)"/>
     <use xlink:href="#DejaVuSans-30" transform="translate(827.917969 0)"/>
     <use xlink:href="#DejaVuSans-20" transform="translate(891.541016 0)"/>
     <use xlink:href="#DejaVuSans-76" transform="translate(923.328125 0)"/>
     <use xlink:href="#DejaVuSans-73" transform="translate(982.507812 0)"/>
     <use xlink:href="#DejaVuSans-20" transform="translate(1034.607422 0)"/>
     <use xlink:href="#DejaVuSans-78" transform="translate(1066.394531 0)"/>
     <use xlink:href="#DejaVuSans-31" transform="translate(1125.574219 0)"/>
     <use xlink:href="#DejaVuSans-29" transform="translate(1189.197266 0)"/>
    </g>
   </g>
   <g id="line2d_14">
    <path d="M 536.572539 265.642472 
L 537.110952 270.862841 
L 537.306299 275.992071 
L 537.162857 281.067109 
L 536.683412 286.124461 
L 535.867822 291.199737 
L 534.713569 296.327926 
L 533.21644 301.543505 
L 531.368981 306.879945 
L 529.162449 312.370272 
L 526.585426 318.046268 
L 523.624449 323.938437 
L 520.264527 330.076183 
L 516.488069 336.485553 
L 512.276499 343.190962 
L 507.609375 350.211895 
L 502.465255 357.562579 
L 496.821872 365.252768 
L 490.656814 373.279675 
L 483.947809 381.634729 
L 476.673882 390.293144 
L 468.816441 399.214919 
L 460.358682 408.347043 
L 451.29068 417.606973 
L 446.525627 422.255767 
L 441.605684 426.899483 
L 436.532122 431.520008 
L 431.306213 436.099228 
L 425.929481 440.618724 
L 420.403832 445.058695 
L 414.73161 449.397868 
L 408.917619 453.612181 
L 402.966661 457.677568 
L 396.883811 461.570112 
L 390.674723 465.264672 
L 384.345852 468.735149 
L 377.906109 471.957113 
L 371.364402 474.906135 
L 364.729834 477.558583 
L 358.012213 479.890558 
L 351.222331 481.878984 
L 344.372547 483.507909 
L 337.475222 484.761383 
L 330.542729 485.624685 
L 323.588091 486.084416 
L 316.625047 486.130331 
L 309.667358 485.762046 
L 302.72878 484.979175 
L 295.822893 483.78241 
L 288.963615 482.175036 
L 282.16489 480.164462 
L 275.439209 477.765784 
L 268.799061 474.994095 
L 262.256631 471.864923 
L 255.82401 468.396345 
L 249.512583 464.609234 
L 243.331546 460.526963 
L 237.290096 456.172905 
L 231.397112 451.570198 
L 225.661044 446.743319 
L 220.089247 441.717065 
L 214.687004 436.514253 
L 209.459596 431.157705 
L 204.412055 425.669638 
L 199.548876 420.07227 
L 194.873499 414.386248 
L 190.387893 408.628324 
L 186.094023 402.815253 
L 181.993709 396.96314 
L 178.088301 391.087347 
L 174.378402 385.20102 
L 170.863817 379.31358 
L 167.54435 373.434449 
L 164.419745 367.572543 
L 161.489428 361.735885 
L 158.752438 355.930552 
L 156.207538 350.159958 
L 153.853492 344.427518 
L 151.689065 338.736326 
L 149.712854 333.088752 
L 147.923353 327.485841 
L 146.319106 321.927121 
L 144.898658 316.412116 
L 143.660589 310.940211 
L 142.603423 305.510286 
L 141.72576 300.120551 
L 141.026401 294.768627 
L 140.504148 289.452139 
L 140.157847 284.168724 
L 139.98636 278.91569 
L 139.988707 273.690247 
L 140.164122 268.489762 
L 140.511838 263.311603 
L 141.031114 258.153301 
L 141.721283 253.012164 
L 142.581818 247.885931 
L 143.612306 242.773148 
L 144.812333 237.672363 
L 146.181471 232.582446 
L 147.719405 227.502098 
L 149.425853 222.431006 
L 151.300446 217.370286 
L 153.342813 212.321055 
L 155.552498 207.284901 
L 157.929198 202.263325 
L 160.472427 197.259375 
L 163.181322 192.278069 
L 166.05502 187.324425 
L 169.092476 182.404026 
L 172.29282 177.522544 
L 175.65469 172.687624 
L 179.175996 167.909099 
L 182.854649 163.196806 
L 186.688289 158.561069 
L 190.674696 154.012664 
L 194.810798 149.564237 
L 199.092488 145.23015 
L 203.51566 141.024768 
L 208.075878 136.962586 
L 212.768734 133.059043 
L 217.588684 129.330375 
L 222.529023 125.793067 
L 227.583046 122.463605 
L 232.743755 119.357994 
L 238.003967 116.493493 
L 243.355347 113.886029 
L 248.788605 111.549592 
L 254.294449 109.498175 
L 259.863435 107.744669 
L 265.485705 106.30293 
L 271.150645 105.183098 
L 276.847228 104.391531 
L 282.564424 103.934588 
L 288.291263 103.817285 
L 294.016249 104.044647 
L 299.72787 104.616824 
L 305.414893 105.529854 
L 311.066084 106.779776 
L 316.670464 108.3616 
L 322.21662 110.269315 
L 327.69391 112.492974 
L 333.092523 115.019897 
L 338.402645 117.837402 
L 343.614829 120.932446 
L 348.719432 124.290554 
L 353.708083 127.895716 
L 358.573464 131.731274 
L 363.308256 135.780567 
L 367.905506 140.027192 
L 372.358311 144.453644 
L 376.661124 149.04324 
L 380.809357 153.780252 
L 384.798423 158.648951 
L 388.624027 163.634201 
L 392.282068 168.720394 
L 395.769568 173.894036 
L 399.084244 179.143241 
L 402.223814 184.456126 
L 405.186194 189.821435 
L 407.969521 195.227952 
L 410.57269 200.666736 
L 412.995017 206.130346 
L 415.235816 211.611339 
L 417.294514 217.102752 
L 419.170715 222.597933 
L 420.864448 228.091954 
L 422.375952 233.580906 
L 423.705467 239.060876 
L 424.853292 244.528204 
L 425.819821 249.979634 
L 426.605661 255.412807 
L 427.211515 260.825801 
L 427.638087 266.216699 
L 427.886124 271.583589 
L 427.956383 276.924984 
L 427.849757 282.23941 
L 427.567221 287.525309 
L 427.109749 292.781118 
L 426.478381 298.005059 
L 425.674079 303.195764 
L 424.698013 308.351062 
L 423.551494 313.468258 
L 422.235834 318.544658 
L 420.752468 323.57717 
L 419.102669 328.563038 
L 417.28812 333.498067 
L 415.310759 338.377234 
L 413.172527 343.19552 
L 410.875565 347.947426 
L 408.421797 352.627598 
L 405.813839 357.228966 
L 403.054703 361.743566 
L 400.147402 366.163437 
L 397.095227 370.480237 
L 393.901252 374.6854 
L 390.569521 378.769017 
L 387.104591 382.720575 
L 383.511017 386.52956 
L 379.793667 390.185409 
L 375.957285 393.67685 
L 372.007731 396.992501 
L 367.951397 400.121051 
L 363.794674 403.051193 
L 359.544228 405.772084 
L 355.206782 408.2718 
L 350.790046 410.540215 
L 346.302145 412.568162 
L 341.751206 414.346473 
L 337.145501 415.866954 
L 332.493576 417.120383 
L 327.804505 418.101121 
L 323.087534 418.805189 
L 318.351908 419.228611 
L 313.606831 419.368599 
L 308.861931 419.221906 
L 304.126685 418.789533 
L 299.410443 418.074265 
L 294.722552 417.078884 
L 290.072141 415.80716 
L 285.468761 414.263178 
L 280.921161 412.454374 
L 276.437714 410.38946 
L 272.026792 408.077144 
L 267.69643 405.526623 
L 263.45496 402.747907 
L 259.309502 399.752469 
L 255.266681 396.55224 
L 251.333122 393.15915 
L 247.51508 389.585086 
L 243.81894 385.842783 
L 240.249783 381.944573 
L 236.812213 377.902558 
L 233.510833 373.728838 
L 230.349912 369.435122 
L 227.333716 365.033681 
L 224.465372 360.535275 
L 221.74762 355.950091 
L 219.183202 351.288315 
L 216.774596 346.559635 
L 214.524213 341.773945 
L 212.433599 336.939409 
L 210.504021 332.063598 
L 208.736749 327.154087 
L 207.132859 322.218038 
L 205.693363 317.262538 
L 204.418656 312.29336 
L 203.308945 307.315865 
L 202.364434 302.335414 
L 201.585183 297.357156 
L 200.971235 292.385984 
L 200.522162 287.426205 
L 200.237396 282.481962 
L 200.116368 277.557399 
L 200.158373 272.65667 
L 200.362759 267.783598 
L 200.728425 262.942185 
L 201.254134 258.136509 
L 201.938649 253.37065 
L 202.780573 248.648887 
L 203.778632 243.975185 
L 204.931012 239.354308 
L 206.235732 234.791264 
L 207.690811 230.29106 
L 209.294059 225.859011 
L 211.043471 221.500247 
L 212.93632 217.220974 
L 214.969676 213.027699 
L 217.140608 208.926925 
L 219.445924 204.925419 
L 221.882627 201.030039 
L 224.446828 197.248455 
L 227.1344 193.588542 
L 229.941213 190.058174 
L 232.862852 186.665261 
L 235.895039 183.41817 
L 239.032538 180.325189 
L 242.269867 177.394563 
L 245.601545 174.634537 
L 249.021832 172.053008 
L 252.525001 169.658657 
L 256.104488 167.458723 
L 259.753539 165.460073 
L 263.465398 163.669572 
L 267.233146 162.093332 
L 271.049708 160.73833 
L 274.90754 159.608786 
L 278.799002 158.708269 
L 282.716455 158.040348 
L 286.652243 157.60759 
L 290.598416 157.413166 
L 294.547082 157.456873 
L 298.490378 157.737765 
L 302.42044 158.254894 
L 306.329552 159.006357 
L 310.209645 159.990369 
L 314.053248 161.202194 
L 317.85303 162.636488 
L 321.601656 164.287907 
L 325.292075 166.150464 
L 328.916916 168.217847 
L 332.469798 170.48202 
L 335.944546 172.934622 
L 339.334984 175.56729 
L 342.635284 178.371448 
L 345.8394 181.337983 
L 348.942433 184.457474 
L 351.939707 187.720458 
L 354.826545 191.117469 
L 357.598624 194.639186 
L 360.251503 198.275799 
L 362.781847 202.018214 
L 365.186521 205.857478 
L 367.462388 209.784637 
L 369.606629 213.791062 
L 371.616376 217.867831 
L 373.489709 222.007144 
L 375.224868 226.201395 
L 376.820094 230.442977 
L 378.273895 234.724622 
L 379.584752 239.038977 
L 380.751921 243.379679 
L 381.774784 247.740522 
L 382.652724 252.115302 
L 383.385348 256.498033 
L 383.972222 260.882821 
L 384.413571 265.264301 
L 384.709721 269.637191 
L 384.860998 273.99621 
L 384.867939 278.336131 
L 384.730998 282.651905 
L 384.451255 286.938488 
L 384.029885 291.190836 
L 383.468062 295.403903 
L 382.767179 299.572556 
L 381.928501 303.691833 
L 380.953968 307.756381 
L 379.845616 311.760791 
L 378.605478 315.699655 
L 377.235833 319.567412 
L 375.738805 323.358559 
L 374.117276 327.067114 
L 372.374228 330.68703 
L 370.512646 334.212263 
L 368.53578 337.636678 
L 366.446733 340.953987 
L 364.249427 344.157756 
L 361.947887 347.241537 
L 359.546137 350.198879 
L 357.048471 353.023447 
L 354.459086 355.708499 
L 351.782967 358.247894 
L 349.025188 360.635566 
L 346.19082 362.865449 
L 343.285162 364.931894 
L 340.313519 366.828645 
L 337.281793 368.551012 
L 334.195949 370.094477 
L 331.061952 371.454522 
L 327.885893 372.627342 
L 324.673997 373.608499 
L 321.432741 374.395913 
L 318.168629 374.98774 
L 314.888163 375.382139 
L 311.59784 375.578142 
L 308.304386 375.574327 
L 305.01436 375.371878 
L 301.734301 374.972225 
L 298.470746 374.376795 
L 295.230087 373.587841 
L 292.018995 372.60746 
L 288.843562 371.439938 
L 285.709831 370.089749 
L 282.623844 368.561368 
L 279.591379 366.859845 
L 276.618482 364.990366 
L 273.710334 362.959413 
L 270.872047 360.773572 
L 268.108733 358.439427 
L 265.425172 355.963814 
L 262.82636 353.353858 
L 260.316301 350.61702 
L 257.898928 347.760784 
L 255.578173 344.792635 
L 253.357619 341.720021 
L 251.241001 338.550694 
L 249.231077 335.292039 
L 247.330542 331.951419 
L 245.542087 328.536196 
L 243.868071 325.053535 
L 242.310964 321.510811 
L 240.872345 317.914746 
L 239.553742 314.272019 
L 238.356678 310.589309 
L 237.282377 306.873071 
L 236.332154 303.129847 
L 235.506537 299.365588 
L 234.806007 295.586207 
L 234.23105 291.797623 
L 233.781871 288.005589 
L 233.458776 284.215852 
L 233.261351 280.433824 
L 233.189145 276.664899 
L 233.241709 272.914473 
L 233.418328 269.187883 
L 233.718407 265.490408 
L 234.140649 261.827279 
L 234.683727 258.203722 
L 235.346315 254.624963 
L 236.126821 251.096248 
L 237.023789 247.62279 
L 238.035047 244.209897 
L 239.158396 240.862879 
L 240.39164 237.587046 
L 241.732307 234.387725 
L 243.178063 231.270318 
L 244.725844 228.240207 
L 246.372565 225.302773 
L 248.115139 222.463399 
L 249.950212 219.727377 
L 251.874534 217.100235 
L 253.884163 214.587079 
L 255.975139 212.193006 
L 258.143502 209.923113 
L 260.385051 207.78221 
L 262.695632 205.775497 
L 265.070521 203.907153 
L 267.504982 202.181336 
L 269.994279 200.602205 
L 272.533503 199.173388 
L 275.117708 197.899003 
L 277.741605 196.781535 
L 280.399903 195.823447 
L 283.087309 195.027201 
L 285.798461 194.394537 
L 288.527871 193.927661 
L 291.270024 193.626787 
L 294.019401 193.492108 
L 296.770487 193.523819 
L 299.517819 193.721332 
L 302.255745 194.084383 
L 304.978914 194.61077 
L 307.681979 195.298282 
L 310.359592 196.144708 
L 313.006581 197.147152 
L 315.617552 198.302849 
L 318.187701 199.607544 
L 320.712222 201.056982 
L 323.186313 202.646903 
L 325.60543 204.372603 
L 327.964833 206.229307 
L 330.26054 208.211424 
L 332.488573 210.313365 
L 334.644958 212.529537 
L 336.726021 214.854151 
L 338.72794 217.28126 
L 340.647717 219.804716 
L 342.482352 222.418375 
L 344.228857 225.116093 
L 345.884546 227.89172 
L 347.44664 230.738956 
L 348.913159 233.651704 
L 350.282124 236.623864 
L 351.55157 239.649343 
L 353.785126 245.836181 
L 355.602952 252.164997 
L 356.997404 258.590014 
L 357.962989 265.066369 
L 358.498414 271.551048 
L 358.604097 278.001737 
L 358.283863 284.377304 
L 358.283863 284.377304 
" clip-path="url(#p74e92aaf0b)" style="fill: none; stroke-dasharray: 12.95,5.6; stroke-dashoffset: 0; stroke: #ff0000; stroke-opacity: 0.8; stroke-width: 3.5"/>
   </g>
   <g id="legend_1">
    <g id="patch_7">
     <path d="M 49.620313 89.030625 
L 194.970313 89.030625 
Q 196.970313 89.030625 196.970313 87.030625 
L 196.970313 29.318125 
Q 196.970313 27.318125 194.970313 27.318125 
L 49.620313 27.318125 
Q 47.620313 27.318125 47.620313 29.318125 
L 47.620313 87.030625 
Q 47.620313 89.030625 49.620313 89.030625 
z
" style="fill: #ffffff; opacity: 0.8; stroke: #cccccc; stroke-linejoin: miter"/>
    </g>
    <g id="line2d_15">
     <path d="M 51.620313 35.416562 
L 61.620313 35.416562 
L 71.620313 35.416562 
" style="fill: none; stroke: #000000; stroke-opacity: 0.3; stroke-width: 7; stroke-linecap: square"/>
    </g>
    <g id="text_14">
     <!-- True/Underlying model -->
     <g transform="translate(79.620313 38.916562) scale(0.1 -0.1)">
      <defs>
       <path id="DejaVuSans-54" d="M -19 4666 
L 3928 4666 
L 3928 4134 
L 2272 4134 
L 2272 0 
L 1638 0 
L 1638 4134 
L -19 4134 
L -19 4666 
z
" transform="scale(0.015625)"/>
       <path id="DejaVuSans-75" d="M 544 1381 
L 544 3500 
L 1119 3500 
L 1119 1403 
Q 1119 906 1312 657 
Q 1506 409 1894 409 
Q 2359 409 2629 706 
Q 2900 1003 2900 1516 
L 2900 3500 
L 3475 3500 
L 3475 0 
L 2900 0 
L 2900 538 
Q 2691 219 2414 64 
Q 2138 -91 1772 -91 
Q 1169 -91 856 284 
Q 544 659 544 1381 
z
M 1991 3584 
L 1991 3584 
z
" transform="scale(0.015625)"/>
       <path id="DejaVuSans-2f" d="M 1625 4666 
L 2156 4666 
L 531 -594 
L 0 -594 
L 1625 4666 
z
" transform="scale(0.015625)"/>
       <path id="DejaVuSans-55" d="M 556 4666 
L 1191 4666 
L 1191 1831 
Q 1191 1081 1462 751 
Q 1734 422 2344 422 
Q 2950 422 3222 751 
Q 3494 1081 3494 1831 
L 3494 4666 
L 4128 4666 
L 4128 1753 
Q 4128 841 3676 375 
Q 3225 -91 2344 -91 
Q 1459 -91 1007 375 
Q 556 841 556 1753 
L 556 4666 
z
" transform="scale(0.015625)"/>
       <path id="DejaVuSans-6e" d="M 3513 2113 
L 3513 0 
L 2938 0 
L 2938 2094 
Q 2938 2591 2744 2837 
Q 2550 3084 2163 3084 
Q 1697 3084 1428 2787 
Q 1159 2491 1159 1978 
L 1159 0 
L 581 0 
L 581 3500 
L 1159 3500 
L 1159 2956 
Q 1366 3272 1645 3428 
Q 1925 3584 2291 3584 
Q 2894 3584 3203 3211 
Q 3513 2838 3513 2113 
z
" transform="scale(0.015625)"/>
       <path id="DejaVuSans-64" d="M 2906 2969 
L 2906 4863 
L 3481 4863 
L 3481 0 
L 2906 0 
L 2906 525 
Q 2725 213 2448 61 
Q 2172 -91 1784 -91 
Q 1150 -91 751 415 
Q 353 922 353 1747 
Q 353 2572 751 3078 
Q 1150 3584 1784 3584 
Q 2172 3584 2448 3432 
Q 2725 3281 2906 2969 
z
M 947 1747 
Q 947 1113 1208 752 
Q 1469 391 1925 391 
Q 2381 391 2643 752 
Q 2906 1113 2906 1747 
Q 2906 2381 2643 2742 
Q 2381 3103 1925 3103 
Q 1469 3103 1208 2742 
Q 947 2381 947 1747 
z
" transform="scale(0.015625)"/>
       <path id="DejaVuSans-6c" d="M 603 4863 
L 1178 4863 
L 1178 0 
L 603 0 
L 603 4863 
z
" transform="scale(0.015625)"/>
       <path id="DejaVuSans-79" d="M 2059 -325 
Q 1816 -950 1584 -1140 
Q 1353 -1331 966 -1331 
L 506 -1331 
L 506 -850 
L 844 -850 
Q 1081 -850 1212 -737 
Q 1344 -625 1503 -206 
L 1606 56 
L 191 3500 
L 800 3500 
L 1894 763 
L 2988 3500 
L 3597 3500 
L 2059 -325 
z
" transform="scale(0.015625)"/>
       <path id="DejaVuSans-67" d="M 2906 1791 
Q 2906 2416 2648 2759 
Q 2391 3103 1925 3103 
Q 1463 3103 1205 2759 
Q 947 2416 947 1791 
Q 947 1169 1205 825 
Q 1463 481 1925 481 
Q 2391 481 2648 825 
Q 2906 1169 2906 1791 
z
M 3481 434 
Q 3481 -459 3084 -895 
Q 2688 -1331 1869 -1331 
Q 1566 -1331 1297 -1286 
Q 1028 -1241 775 -1147 
L 775 -588 
Q 1028 -725 1275 -790 
Q 1522 -856 1778 -856 
Q 2344 -856 2625 -561 
Q 2906 -266 2906 331 
L 2906 616 
Q 2728 306 2450 153 
Q 2172 0 1784 0 
Q 1141 0 747 490 
Q 353 981 353 1791 
Q 353 2603 747 3093 
Q 1141 3584 1784 3584 
Q 2172 3584 2450 3431 
Q 2728 3278 2906 2969 
L 2906 3500 
L 3481 3500 
L 3481 434 
z
" transform="scale(0.015625)"/>
       <path id="DejaVuSans-6d" d="M 3328 2828 
Q 3544 3216 3844 3400 
Q 4144 3584 4550 3584 
Q 5097 3584 5394 3201 
Q 5691 2819 5691 2113 
L 5691 0 
L 5113 0 
L 5113 2094 
Q 5113 2597 4934 2840 
Q 4756 3084 4391 3084 
Q 3944 3084 3684 2787 
Q 3425 2491 3425 1978 
L 3425 0 
L 2847 0 
L 2847 2094 
Q 2847 2600 2669 2842 
Q 2491 3084 2119 3084 
Q 1678 3084 1418 2786 
Q 1159 2488 1159 1978 
L 1159 0 
L 581 0 
L 581 3500 
L 1159 3500 
L 1159 2956 
Q 1356 3278 1631 3431 
Q 1906 3584 2284 3584 
Q 2666 3584 2933 3390 
Q 3200 3197 3328 2828 
z
" transform="scale(0.015625)"/>
      </defs>
      <use xlink:href="#DejaVuSans-54"/>
      <use xlink:href="#DejaVuSans-72" transform="translate(46.333984 0)"/>
      <use xlink:href="#DejaVuSans-75" transform="translate(87.447266 0)"/>
      <use xlink:href="#DejaVuSans-65" transform="translate(150.826172 0)"/>
      <use xlink:href="#DejaVuSans-2f" transform="translate(212.349609 0)"/>
      <use xlink:href="#DejaVuSans-55" transform="translate(246.041016 0)"/>
      <use xlink:href="#DejaVuSans-6e" transform="translate(319.234375 0)"/>
      <use xlink:href="#DejaVuSans-64" transform="translate(382.613281 0)"/>
      <use xlink:href="#DejaVuSans-65" transform="translate(446.089844 0)"/>
      <use xlink:href="#DejaVuSans-72" transform="translate(507.613281 0)"/>
      <use xlink:href="#DejaVuSans-6c" transform="translate(548.726562 0)"/>
      <use xlink:href="#DejaVuSans-79" transform="translate(576.509766 0)"/>
      <use xlink:href="#DejaVuSans-69" transform="translate(635.689453 0)"/>
      <use xlink:href="#DejaVuSans-6e" transform="translate(663.472656 0)"/>
      <use xlink:href="#DejaVuSans-67" transform="translate(726.851562 0)"/>
      <use xlink:href="#DejaVuSans-20" transform="translate(790.328125 0)"/>
      <use xlink:href="#DejaVuSans-6d" transform="translate(822.115234 0)"/>
      <use xlink:href="#DejaVuSans-6f" transform="translate(919.527344 0)"/>
      <use xlink:href="#DejaVuSans-64" transform="translate(980.708984 0)"/>
      <use xlink:href="#DejaVuSans-65" transform="translate(1044.185547 0)"/>
      <use xlink:href="#DejaVuSans-6c" transform="translate(1105.708984 0)"/>
     </g>
    </g>
    <g id="line2d_16">
     <path d="M 51.620313 50.094687 
L 61.620313 50.094687 
L 71.620313 50.094687 
" style="fill: none; stroke-dasharray: 12.95,5.6; stroke-dashoffset: 0; stroke: #ff0000; stroke-opacity: 0.8; stroke-width: 3.5"/>
    </g>
    <g id="text_15">
     <!-- AutoSINDy -->
     <g transform="translate(79.620313 53.594687) scale(0.1 -0.1)">
      <defs>
       <path id="DejaVuSans-41" d="M 2188 4044 
L 1331 1722 
L 3047 1722 
L 2188 4044 
z
M 1831 4666 
L 2547 4666 
L 4325 0 
L 3669 0 
L 3244 1197 
L 1141 1197 
L 716 0 
L 50 0 
L 1831 4666 
z
" transform="scale(0.015625)"/>
       <path id="DejaVuSans-53" d="M 3425 4513 
L 3425 3897 
Q 3066 4069 2747 4153 
Q 2428 4238 2131 4238 
Q 1616 4238 1336 4038 
Q 1056 3838 1056 3469 
Q 1056 3159 1242 3001 
Q 1428 2844 1947 2747 
L 2328 2669 
Q 3034 2534 3370 2195 
Q 3706 1856 3706 1288 
Q 3706 609 3251 259 
Q 2797 -91 1919 -91 
Q 1588 -91 1214 -16 
Q 841 59 441 206 
L 441 856 
Q 825 641 1194 531 
Q 1563 422 1919 422 
Q 2459 422 2753 634 
Q 3047 847 3047 1241 
Q 3047 1584 2836 1778 
Q 2625 1972 2144 2069 
L 1759 2144 
Q 1053 2284 737 2584 
Q 422 2884 422 3419 
Q 422 4038 858 4394 
Q 1294 4750 2059 4750 
Q 2388 4750 2728 4690 
Q 3069 4631 3425 4513 
z
" transform="scale(0.015625)"/>
       <path id="DejaVuSans-49" d="M 628 4666 
L 1259 4666 
L 1259 0 
L 628 0 
L 628 4666 
z
" transform="scale(0.015625)"/>
       <path id="DejaVuSans-4e" d="M 628 4666 
L 1478 4666 
L 3547 763 
L 3547 4666 
L 4159 4666 
L 4159 0 
L 3309 0 
L 1241 3903 
L 1241 0 
L 628 0 
L 628 4666 
z
" transform="scale(0.015625)"/>
       <path id="DejaVuSans-44" d="M 1259 4147 
L 1259 519 
L 2022 519 
Q 2988 519 3436 956 
Q 3884 1394 3884 2338 
Q 3884 3275 3436 3711 
Q 2988 4147 2022 4147 
L 1259 4147 
z
M 628 4666 
L 1925 4666 
Q 3281 4666 3915 4102 
Q 4550 3538 4550 2338 
Q 4550 1131 3912 565 
Q 3275 0 1925 0 
L 628 0 
L 628 4666 
z
" transform="scale(0.015625)"/>
      </defs>
      <use xlink:href="#DejaVuSans-41"/>
      <use xlink:href="#DejaVuSans-75" transform="translate(68.408203 0)"/>
      <use xlink:href="#DejaVuSans-74" transform="translate(131.787109 0)"/>
      <use xlink:href="#DejaVuSans-6f" transform="translate(170.996094 0)"/>
      <use xlink:href="#DejaVuSans-53" transform="translate(232.177734 0)"/>
      <use xlink:href="#DejaVuSans-49" transform="translate(295.654297 0)"/>
      <use xlink:href="#DejaVuSans-4e" transform="translate(325.146484 0)"/>
      <use xlink:href="#DejaVuSans-44" transform="translate(399.951172 0)"/>
      <use xlink:href="#DejaVuSans-79" transform="translate(476.953125 0)"/>
     </g>
    </g>
    <g id="line2d_17">
     <path d="M 51.620313 64.772812 
L 61.620313 64.772812 
L 71.620313 64.772812 
" style="fill: none; stroke-dasharray: 3.5,5.775; stroke-dashoffset: 0; stroke: #008000; stroke-opacity: 0.8; stroke-width: 3.5"/>
    </g>
    <g id="text_16">
     <!-- Standard SINDy -->
     <g transform="translate(79.620313 68.272812) scale(0.1 -0.1)">
      <use xlink:href="#DejaVuSans-53"/>
      <use xlink:href="#DejaVuSans-74" transform="translate(63.476562 0)"/>
      <use xlink:href="#DejaVuSans-61" transform="translate(102.685547 0)"/>
      <use xlink:href="#DejaVuSans-6e" transform="translate(163.964844 0)"/>
      <use xlink:href="#DejaVuSans-64" transform="translate(227.34375 0)"/>
      <use xlink:href="#DejaVuSans-61" transform="translate(290.820312 0)"/>
      <use xlink:href="#DejaVuSans-72" transform="translate(352.099609 0)"/>
      <use xlink:href="#DejaVuSans-64" transform="translate(391.462891 0)"/>
      <use xlink:href="#DejaVuSans-20" transform="translate(454.939453 0)"/>
      <use xlink:href="#DejaVuSans-53" transform="translate(486.726562 0)"/>
      <use xlink:href="#DejaVuSans-49" transform="translate(550.203125 0)"/>
      <use xlink:href="#DejaVuSans-4e" transform="translate(579.695312 0)"/>
      <use xlink:href="#DejaVuSans-44" transform="translate(654.5 0)"/>
      <use xlink:href="#DejaVuSans-79" transform="translate(731.501953 0)"/>
     </g>
    </g>
    <g id="line2d_18">
     <path d="M 51.620313 79.450937 
L 61.620313 79.450937 
L 71.620313 79.450937 
" style="fill: none; stroke-dasharray: 22.4,5.6,3.5,5.6; stroke-dashoffset: 0; stroke: #0000ff; stroke-opacity: 0.8; stroke-width: 3.5"/>
    </g>
    <g id="text_17">
     <!-- Standard PySR -->
     <g transform="translate(79.620313 82.950937) scale(0.1 -0.1)">
      <defs>
       <path id="DejaVuSans-52" d="M 2841 2188 
Q 3044 2119 3236 1894 
Q 3428 1669 3622 1275 
L 4263 0 
L 3584 0 
L 2988 1197 
Q 2756 1666 2539 1819 
Q 2322 1972 1947 1972 
L 1259 1972 
L 1259 0 
L 628 0 
L 628 4666 
L 2053 4666 
Q 2853 4666 3247 4331 
Q 3641 3997 3641 3322 
Q 3641 2881 3436 2590 
Q 3231 2300 2841 2188 
z
M 1259 4147 
L 1259 2491 
L 2053 2491 
Q 2509 2491 2742 2702 
Q 2975 2913 2975 3322 
Q 2975 3731 2742 3939 
Q 2509 4147 2053 4147 
L 1259 4147 
z
" transform="scale(0.015625)"/>
      </defs>
      <use xlink:href="#DejaVuSans-53"/>
      <use xlink:href="#DejaVuSans-74" transform="translate(63.476562 0)"/>
      <use xlink:href="#DejaVuSans-61" transform="translate(102.685547 0)"/>
      <use xlink:href="#DejaVuSans-6e" transform="translate(163.964844 0)"/>
      <use xlink:href="#DejaVuSans-64" transform="translate(227.34375 0)"/>
      <use xlink:href="#DejaVuSans-61" transform="translate(290.820312 0)"/>
      <use xlink:href="#DejaVuSans-72" transform="translate(352.099609 0)"/>
      <use xlink:href="#DejaVuSans-64" transform="translate(391.462891 0)"/>
      <use xlink:href="#DejaVuSans-20" transform="translate(454.939453 0)"/>
      <use xlink:href="#DejaVuSans-50" transform="translate(486.726562 0)"/>
      <use xlink:href="#DejaVuSans-79" transform="translate(547.029297 0)"/>
      <use xlink:href="#DejaVuSans-53" transform="translate(606.208984 0)"/>
      <use xlink:href="#DejaVuSans-52" transform="translate(669.685547 0)"/>
     </g>
    </g>
   </g>
  </g>
 </g>
 <defs>
  <clipPath id="p74e92aaf0b">
   <rect x="42.620313" y="22.318125" width="518.59" height="508.12"/>
  </clipPath>
 </defs>
</svg>
