<?xml version="1.0" encoding="utf-8" standalone="no"?>
<!DOCTYPE svg PUBLIC "-//W3C//DTD SVG 1.1//EN"
  "http://www.w3.org/Graphics/SVG/1.1/DTD/svg11.dtd">
<svg xmlns:xlink="http://www.w3.org/1999/xlink" width="568.410312pt" height="567.994375pt" viewBox="0 0 568.410312 567.994375" xmlns="http://www.w3.org/2000/svg" version="1.1">
 <metadata>
  <rdf:RDF xmlns:dc="http://purl.org/dc/elements/1.1/" xmlns:cc="http://creativecommons.org/ns#" xmlns:rdf="http://www.w3.org/1999/02/22-rdf-syntax-ns#">
   <cc:Work>
    <dc:type rdf:resource="http://purl.org/dc/dcmitype/StillImage"/>
    <dc:date>2026-04-06T02:35:11.398418</dc:date>
    <dc:format>image/svg+xml</dc:format>
    <dc:creator>
     <cc:Agent>
      <dc:title>Matplotlib v3.10.7, https://matplotlib.org/</dc:title>
     </cc:Agent>
    </dc:creator>
   </cc:Work>
  </rdf:RDF>
 </metadata>
 <defs>
  <style type="text/css">*{stroke-linejoin: round; stroke-linecap: butt}</style>
 </defs>
 <g id="figure_1">
  <g id="patch_1">
   <path d="M 0 567.994375 
L 568.410312 567.994375 
L 568.410312 0 
L 0 0 
z
" style="fill: #ffffff"/>
  </g>
  <g id="axes_1">
   <g id="patch_2">
    <path d="M 42.620313 530.438125 
L 561.210312 530.438125 
L 561.210312 22.318125 
L 42.620313 22.318125 
z
" style="fill: #ffffff"/>
   </g>
   <g id="matplotlib.axis_1">
    <g id="xtick_1">
     <g id="line2d_1">
      <defs>
       <path id="mc22881a209" d="M 0 0 
L 0 3.5 
" style="stroke: #000000; stroke-width: 0.8"/>
      </defs>
      <g>
       <use xlink:href="#mc22881a209" x="57.626323" y="530.438125" style="stroke: #000000; stroke-width: 0.8"/>
      </g>
     </g>
     <g id="text_1">
      <!-- −3 -->
      <g transform="translate(50.255229 545.036562) scale(0.1 -0.1)">
       <defs>
        <path id="DejaVuSans-2212" d="M 678 2272 
L 4684 2272 
L 4684 1741 
L 678 1741 
L 678 2272 
z
" transform="scale(0.015625)"/>
        <path id="DejaVuSans-33" d="M 2597 2516 
Q 3050 2419 3304 2112 
Q 3559 1806 3559 1356 
Q 3559 666 3084 287 
Q 2609 -91 1734 -91 
Q 1441 -91 1130 -33 
Q 819 25 488 141 
L 488 750 
Q 750 597 1062 519 
Q 1375 441 1716 441 
Q 2309 441 2620 675 
Q 2931 909 2931 1356 
Q 2931 1769 2642 2001 
Q 2353 2234 1838 2234 
L 1294 2234 
L 1294 2753 
L 1863 2753 
Q 2328 2753 2575 2939 
Q 2822 3125 2822 3475 
Q 2822 3834 2567 4026 
Q 2313 4219 1838 4219 
Q 1578 4219 1281 4162 
Q 984 4106 628 3988 
L 628 4550 
Q 988 4650 1302 4700 
Q 1616 4750 1894 4750 
Q 2613 4750 3031 4423 
Q 3450 4097 3450 3541 
Q 3450 3153 3228 2886 
Q 3006 2619 2597 2516 
z
" transform="scale(0.015625)"/>
       </defs>
       <use xlink:href="#DejaVuSans-2212"/>
       <use xlink:href="#DejaVuSans-33" transform="translate(83.789062 0)"/>
      </g>
     </g>
    </g>
    <g id="xtick_2">
     <g id="line2d_2">
      <g>
       <use xlink:href="#mc22881a209" x="140.505898" y="530.438125" style="stroke: #000000; stroke-width: 0.8"/>
      </g>
     </g>
     <g id="text_2">
      <!-- −2 -->
      <g transform="translate(133.134805 545.036562) scale(0.1 -0.1)">
       <defs>
        <path id="DejaVuSans-32" d="M 1228 531 
L 3431 531 
L 3431 0 
L 469 0 
L 469 531 
Q 828 903 1448 1529 
Q 2069 2156 2228 2338 
Q 2531 2678 2651 2914 
Q 2772 3150 2772 3378 
Q 2772 3750 2511 3984 
Q 2250 4219 1831 4219 
Q 1534 4219 1204 4116 
Q 875 4013 500 3803 
L 500 4441 
Q 881 4594 1212 4672 
Q 1544 4750 1819 4750 
Q 2544 4750 2975 4387 
Q 3406 4025 3406 3419 
Q 3406 3131 3298 2873 
Q 3191 2616 2906 2266 
Q 2828 2175 2409 1742 
Q 1991 1309 1228 531 
z
" transform="scale(0.015625)"/>
       </defs>
       <use xlink:href="#DejaVuSans-2212"/>
       <use xlink:href="#DejaVuSans-32" transform="translate(83.789062 0)"/>
      </g>
     </g>
    </g>
    <g id="xtick_3">
     <g id="line2d_3">
      <g>
       <use xlink:href="#mc22881a209" x="223.385474" y="530.438125" style="stroke: #000000; stroke-width: 0.8"/>
      </g>
     </g>
     <g id="text_3">
      <!-- −1 -->
      <g transform="translate(216.01438 545.036562) scale(0.1 -0.1)">
       <defs>
        <path id="DejaVuSans-31" d="M 794 531 
L 1825 531 
L 1825 4091 
L 703 3866 
L 703 4441 
L 1819 4666 
L 2450 4666 
L 2450 531 
L 3481 531 
L 3481 0 
L 794 0 
L 794 531 
z
" transform="scale(0.015625)"/>
       </defs>
       <use xlink:href="#DejaVuSans-2212"/>
       <use xlink:href="#DejaVuSans-31" transform="translate(83.789062 0)"/>
      </g>
     </g>
    </g>
    <g id="xtick_4">
     <g id="line2d_4">
      <g>
       <use xlink:href="#mc22881a209" x="306.265049" y="530.438125" style="stroke: #000000; stroke-width: 0.8"/>
      </g>
     </g>
     <g id="text_4">
      <!-- 0 -->
      <g transform="translate(303.083799 545.036562) scale(0.1 -0.1)">
       <defs>
        <path id="DejaVuSans-30" d="M 2034 4250 
Q 1547 4250 1301 3770 
Q 1056 3291 1056 2328 
Q 1056 1369 1301 889 
Q 1547 409 2034 409 
Q 2525 409 2770 889 
Q 3016 1369 3016 2328 
Q 3016 3291 2770 3770 
Q 2525 4250 2034 4250 
z
M 2034 4750 
Q 2819 4750 3233 4129 
Q 3647 3509 3647 2328 
Q 3647 1150 3233 529 
Q 2819 -91 2034 -91 
Q 1250 -91 836 529 
Q 422 1150 422 2328 
Q 422 3509 836 4129 
Q 1250 4750 2034 4750 
z
" transform="scale(0.015625)"/>
       </defs>
       <use xlink:href="#DejaVuSans-30"/>
      </g>
     </g>
    </g>
    <g id="xtick_5">
     <g id="line2d_5">
      <g>
       <use xlink:href="#mc22881a209" x="389.144624" y="530.438125" style="stroke: #000000; stroke-width: 0.8"/>
      </g>
     </g>
     <g id="text_5">
      <!-- 1 -->
      <g transform="translate(385.963374 545.036562) scale(0.1 -0.1)">
       <use xlink:href="#DejaVuSans-31"/>
      </g>
     </g>
    </g>
    <g id="xtick_6">
     <g id="line2d_6">
      <g>
       <use xlink:href="#mc22881a209" x="472.0242" y="530.438125" style="stroke: #000000; stroke-width: 0.8"/>
      </g>
     </g>
     <g id="text_6">
      <!-- 2 -->
      <g transform="translate(468.84295 545.036562) scale(0.1 -0.1)">
       <use xlink:href="#DejaVuSans-32"/>
      </g>
     </g>
    </g>
    <g id="xtick_7">
     <g id="line2d_7">
      <g>
       <use xlink:href="#mc22881a209" x="554.903775" y="530.438125" style="stroke: #000000; stroke-width: 0.8"/>
      </g>
     </g>
     <g id="text_7">
      <!-- 3 -->
      <g transform="translate(551.722525 545.036562) scale(0.1 -0.1)">
       <use xlink:href="#DejaVuSans-33"/>
      </g>
     </g>
    </g>
    <g id="text_8">
     <!-- x0 -->
     <g transform="translate(295.774687 558.714687) scale(0.1 -0.1)">
      <defs>
       <path id="DejaVuSans-78" d="M 3513 3500 
L 2247 1797 
L 3578 0 
L 2900 0 
L 1881 1375 
L 863 0 
L 184 0 
L 1544 1831 
L 300 3500 
L 978 3500 
L 1906 2253 
L 2834 3500 
L 3513 3500 
z
" transform="scale(0.015625)"/>
      </defs>
      <use xlink:href="#DejaVuSans-78"/>
      <use xlink:href="#DejaVuSans-30" transform="translate(59.179688 0)"/>
     </g>
    </g>
   </g>
   <g id="matplotlib.axis_2">
    <g id="ytick_1">
     <g id="line2d_8">
      <defs>
       <path id="m3d9796e38d" d="M 0 0 
L -3.5 0 
" style="stroke: #000000; stroke-width: 0.8"/>
      </defs>
      <g>
       <use xlink:href="#m3d9796e38d" x="42.620313" y="481.047849" style="stroke: #000000; stroke-width: 0.8"/>
      </g>
     </g>
     <g id="text_9">
      <!-- −4 -->
      <g transform="translate(20.878125 484.847068) scale(0.1 -0.1)">
       <defs>
        <path id="DejaVuSans-34" d="M 2419 4116 
L 825 1625 
L 2419 1625 
L 2419 4116 
z
M 2253 4666 
L 3047 4666 
L 3047 1625 
L 3713 1625 
L 3713 1100 
L 3047 1100 
L 3047 0 
L 2419 0 
L 2419 1100 
L 313 1100 
L 313 1709 
L 2253 4666 
z
" transform="scale(0.015625)"/>
       </defs>
       <use xlink:href="#DejaVuSans-2212"/>
       <use xlink:href="#DejaVuSans-34" transform="translate(83.789062 0)"/>
      </g>
     </g>
    </g>
    <g id="ytick_2">
     <g id="line2d_9">
      <g>
       <use xlink:href="#m3d9796e38d" x="42.620313" y="378.313608" style="stroke: #000000; stroke-width: 0.8"/>
      </g>
     </g>
     <g id="text_10">
      <!-- −2 -->
      <g transform="translate(20.878125 382.112827) scale(0.1 -0.1)">
       <use xlink:href="#DejaVuSans-2212"/>
       <use xlink:href="#DejaVuSans-32" transform="translate(83.789062 0)"/>
      </g>
     </g>
    </g>
    <g id="ytick_3">
     <g id="line2d_10">
      <g>
       <use xlink:href="#m3d9796e38d" x="42.620313" y="275.579368" style="stroke: #000000; stroke-width: 0.8"/>
      </g>
     </g>
     <g id="text_11">
      <!-- 0 -->
      <g transform="translate(29.257813 279.378586) scale(0.1 -0.1)">
       <use xlink:href="#DejaVuSans-30"/>
      </g>
     </g>
    </g>
    <g id="ytick_4">
     <g id="line2d_11">
      <g>
       <use xlink:href="#m3d9796e38d" x="42.620313" y="172.845127" style="stroke: #000000; stroke-width: 0.8"/>
      </g>
     </g>
     <g id="text_12">
      <!-- 2 -->
      <g transform="translate(29.257813 176.644346) scale(0.1 -0.1)">
       <use xlink:href="#DejaVuSans-32"/>
      </g>
     </g>
    </g>
    <g id="ytick_5">
     <g id="line2d_12">
      <g>
       <use xlink:href="#m3d9796e38d" x="42.620313" y="70.110886" style="stroke: #000000; stroke-width: 0.8"/>
      </g>
     </g>
     <g id="text_13">
      <!-- 4 -->
      <g transform="translate(29.257813 73.910105) scale(0.1 -0.1)">
       <use xlink:href="#DejaVuSans-34"/>
      </g>
     </g>
    </g>
    <g id="text_14">
     <!-- x1 -->
     <g transform="translate(14.798438 282.51875) rotate(-90) scale(0.1 -0.1)">
      <use xlink:href="#DejaVuSans-78"/>
      <use xlink:href="#DejaVuSans-31" transform="translate(59.179688 0)"/>
     </g>
    </g>
   </g>
   <g id="line2d_13">
    <path d="M 525.199126 265.305944 
L 525.701814 270.288687 
L 525.885383 275.184608 
L 525.755004 280.029655 
L 525.31224 284.857987 
L 524.556453 289.703036 
L 523.485186 294.597815 
L 522.094157 299.574916 
L 520.377263 304.666509 
L 518.326578 309.904343 
L 515.932414 315.319514 
L 513.185031 320.933621 
L 510.068328 326.778726 
L 506.563521 332.888107 
L 502.651696 339.287454 
L 498.31381 345.994881 
L 493.530695 353.020914 
L 488.283052 360.3685 
L 482.551456 368.033003 
L 476.316353 376.002206 
L 469.558062 384.256308 
L 462.256848 392.770282 
L 454.395199 401.53677 
L 445.960214 410.446384 
L 441.525985 414.910253 
L 436.947518 419.356233 
L 432.225743 423.766291 
L 427.362179 428.122325 
L 422.358936 432.406163 
L 417.218712 436.599565 
L 411.944798 440.684222 
L 406.541074 444.641756 
L 401.012012 448.453721 
L 395.362671 452.101601 
L 389.598704 455.566812 
L 383.726352 458.8307 
L 377.752447 461.874544 
L 371.684411 464.679551 
L 365.530257 467.226863 
L 359.298587 469.49755 
L 352.998596 471.472614 
L 346.640066 473.13299 
L 340.233372 474.459542 
L 333.789477 475.433066 
L 327.319936 476.034288 
L 320.836895 476.243867 
L 314.353087 476.042392 
L 307.88184 475.410382 
L 301.437125 474.330478 
L 295.034281 472.840922 
L 288.686772 470.970846 
L 282.406803 468.732453 
L 276.205992 466.13901 
L 270.095368 463.204843 
L 264.085371 459.94534 
L 258.185854 456.37695 
L 252.406079 452.517182 
L 246.75472 448.384609 
L 241.239865 443.998863 
L 235.869011 439.380636 
L 230.649066 434.551685 
L 225.586351 429.534825 
L 220.686598 424.353932 
L 215.95495 419.033946 
L 211.395961 413.600864 
L 207.013597 408.081749 
L 202.811237 402.504721 
L 198.791668 396.898963 
L 194.957091 391.294715 
L 191.306735 385.69325 
L 187.838464 380.082365 
L 184.551797 374.470606 
L 181.446182 368.865771 
L 178.521001 363.274908 
L 175.775566 357.704318 
L 173.209121 352.159554 
L 170.820841 346.64542 
L 168.609832 341.165971 
L 166.575132 335.724516 
L 164.715711 330.323613 
L 163.030468 324.965074 
L 161.518236 319.649961 
L 160.177778 314.37859 
L 159.007788 309.150527 
L 158.006893 303.96459 
L 157.17365 298.818848 
L 156.506548 293.710623 
L 156.004005 288.636489 
L 155.664375 283.592271 
L 155.485878 278.578745 
L 155.467563 273.602174 
L 155.609408 268.656189 
L 155.911349 263.734707 
L 156.373263 258.832414 
L 156.994965 253.944767 
L 157.77621 249.067993 
L 158.716691 244.199086 
L 159.816041 239.335813 
L 161.073833 234.47671 
L 162.489579 229.621083 
L 164.062728 224.769006 
L 165.792672 219.921324 
L 167.678738 215.079653 
L 169.720197 210.246377 
L 171.916255 205.42465 
L 174.266059 200.618397 
L 176.768696 195.832312 
L 179.423191 191.071858 
L 182.228509 186.34327 
L 185.183553 181.65355 
L 188.287168 177.010472 
L 191.538134 172.422579 
L 194.935175 167.899184 
L 198.47695 163.450369 
L 202.16206 159.086986 
L 205.989044 154.820658 
L 209.956381 150.663778 
L 214.061328 146.623716 
L 218.297 142.701924 
L 222.657633 138.920538 
L 227.137309 135.301609 
L 231.729783 131.865772 
L 236.428482 128.632243 
L 241.226504 125.618821 
L 246.11662 122.841888 
L 251.091273 120.316408 
L 256.142576 118.055928 
L 261.262318 116.072576 
L 266.441956 114.377064 
L 271.672622 112.978687 
L 276.945119 111.88532 
L 282.249921 111.103423 
L 287.577175 110.638037 
L 292.916701 110.492787 
L 298.257989 110.669879 
L 303.590203 111.170102 
L 308.902177 111.992828 
L 314.182419 113.136011 
L 319.419108 114.596188 
L 324.600096 116.368477 
L 329.715261 118.442332 
L 334.758182 120.80075 
L 339.719844 123.432759 
L 344.591577 126.327175 
L 349.365145 129.472434 
L 354.032746 132.856593 
L 358.587012 136.467327 
L 363.021008 140.291933 
L 367.328235 144.317324 
L 371.502624 148.530037 
L 375.538544 152.916226 
L 379.430795 157.461666 
L 383.174612 162.151749 
L 386.765662 166.971491 
L 390.200049 171.905525 
L 393.474308 176.938104 
L 396.585409 182.0531 
L 399.530755 187.234007 
L 402.308184 192.463937 
L 404.915966 197.725621 
L 407.352808 203.001412 
L 409.617846 208.273282 
L 411.710655 213.52282 
L 413.632688 218.755253 
L 415.385648 223.989543 
L 416.969516 229.222811 
L 418.384353 234.452214 
L 419.630301 239.674983 
L 420.707584 244.888416 
L 421.616505 250.089884 
L 422.357448 255.276827 
L 422.930878 260.446757 
L 423.337342 265.597253 
L 423.577467 270.725967 
L 423.65196 275.830622 
L 423.561609 280.909008 
L 423.307285 285.958989 
L 422.889937 290.978497 
L 422.310596 295.965535 
L 421.570374 300.918176 
L 420.670464 305.834565 
L 419.612138 310.712914 
L 418.396752 315.55151 
L 417.02574 320.348705 
L 415.500618 325.102926 
L 413.823008 329.813439 
L 411.994655 334.48413 
L 410.016907 339.107672 
L 407.891307 343.674115 
L 405.619708 348.1736 
L 403.204272 352.596354 
L 400.647476 356.932694 
L 397.952107 361.173024 
L 395.12126 365.307837 
L 392.158346 369.327715 
L 389.067084 373.223329 
L 385.851505 376.985435 
L 382.515951 380.604882 
L 379.065076 384.072604 
L 375.503844 387.379625 
L 371.837531 390.517058 
L 368.071724 393.476101 
L 364.212322 396.248045 
L 360.265532 398.824266 
L 356.237876 401.19623 
L 352.136186 403.355492 
L 347.967603 405.293692 
L 343.739583 407.002564 
L 339.459889 408.473925 
L 335.136599 409.699683 
L 330.7781 410.671835 
L 326.393091 411.382465 
L 321.990581 411.823746 
L 317.579891 411.987938 
L 313.169943 411.870829 
L 308.767477 411.483083 
L 304.381614 410.827746 
L 300.02151 409.90732 
L 295.696024 408.725179 
L 291.413716 407.285563 
L 287.182845 405.593579 
L 283.011374 403.655203 
L 278.906965 401.477276 
L 274.876982 399.06751 
L 270.92849 396.434483 
L 267.068256 393.587641 
L 263.302748 390.537297 
L 259.638134 387.294632 
L 256.080284 383.871694 
L 252.634769 380.281401 
L 249.306861 376.537537 
L 246.101534 372.654752 
L 243.023463 368.648567 
L 240.077023 364.535368 
L 237.266292 360.332409 
L 234.594543 356.053959 
L 232.0625 351.696198 
L 229.672269 347.26562 
L 227.426036 342.770513 
L 225.325772 338.218864 
L 223.37324 333.618362 
L 221.569991 328.976393 
L 219.917366 324.300046 
L 218.416493 319.596109 
L 217.068291 314.871067 
L 215.873468 310.13111 
L 214.832519 305.382124 
L 213.94573 300.629697 
L 213.213176 295.879116 
L 212.63472 291.135368 
L 212.210014 286.403141 
L 211.938501 281.686823 
L 211.819409 276.990499 
L 211.85176 272.317958 
L 212.034362 267.672686 
L 212.365812 263.057871 
L 212.844469 258.475734 
L 213.469092 253.927989 
L 214.239015 249.419421 
L 215.15336 244.955127 
L 216.211008 240.540343 
L 217.410601 236.180442 
L 218.750544 231.880937 
L 220.228997 227.64748 
L 221.843884 223.48586 
L 223.592887 219.402005 
L 225.47345 215.401983 
L 227.482776 211.492 
L 229.617829 207.678399 
L 231.875331 203.967664 
L 234.251767 200.366416 
L 236.74338 196.881415 
L 239.346174 193.519559 
L 242.055914 190.287887 
L 244.868123 187.193574 
L 247.778087 184.243934 
L 250.780849 181.44642 
L 253.871214 178.808625 
L 257.043748 176.338278 
L 260.292776 174.043249 
L 263.612382 171.931544 
L 266.996412 170.011311 
L 270.43854 168.290612 
L 273.933751 166.771809 
L 277.475401 165.459366 
L 281.056017 164.359258 
L 284.668186 163.476498 
L 288.304549 162.815142 
L 291.957809 162.378289 
L 295.620724 162.168077 
L 299.286109 162.185686 
L 302.946841 162.431336 
L 306.595849 162.904291 
L 310.226126 163.602853 
L 313.830717 164.524368 
L 317.402729 165.665222 
L 320.935325 167.020843 
L 324.421726 168.585699 
L 327.855211 170.353299 
L 331.229117 172.316196 
L 334.536837 174.465982 
L 337.771826 176.79329 
L 340.927591 179.287796 
L 343.998833 181.941194 
L 346.982118 184.74924 
L 349.872537 187.703187 
L 352.665406 190.794226 
L 355.356325 194.013644 
L 357.94118 197.352822 
L 360.41614 200.803234 
L 362.777661 204.35645 
L 365.022483 208.004135 
L 367.14763 211.738047 
L 369.150412 215.550039 
L 371.028423 219.432058 
L 372.779542 223.376148 
L 374.401933 227.374444 
L 375.894045 231.419178 
L 377.254612 235.502675 
L 378.482652 239.617354 
L 379.577468 243.755732 
L 380.538649 247.910416 
L 381.366264 252.074887 
L 382.060962 256.246656 
L 382.622177 260.421379 
L 383.049395 264.594264 
L 383.342314 268.760471 
L 383.500846 272.915117 
L 383.525113 277.053272 
L 383.415448 281.16996 
L 383.1724 285.260162 
L 382.796725 289.31881 
L 382.289394 293.340793 
L 381.65159 297.320954 
L 380.884707 301.25409 
L 379.990351 305.134953 
L 378.97034 308.958249 
L 377.826704 312.71864 
L 376.561685 316.410741 
L 375.177738 320.02912 
L 373.677529 323.568304 
L 372.063935 327.02277 
L 370.340046 330.386953 
L 368.509165 333.655239 
L 366.574805 336.821972 
L 364.540691 339.881449 
L 362.410763 342.82792 
L 360.189169 345.655592 
L 357.878863 348.361182 
L 355.482658 350.940216 
L 353.005298 353.384301 
L 350.451631 355.685637 
L 347.826598 357.837024 
L 345.135241 359.831866 
L 342.382695 361.66417 
L 339.574192 363.328546 
L 336.715062 364.820206 
L 333.810731 366.134965 
L 330.866719 367.269241 
L 327.888646 368.220055 
L 324.882225 368.98503 
L 321.853269 369.562393 
L 318.807684 369.950973 
L 315.751475 370.150202 
L 312.690742 370.160115 
L 309.631682 369.98135 
L 306.580589 369.615146 
L 303.543851 369.063348 
L 300.527955 368.3284 
L 297.539484 367.413353 
L 294.585117 366.321858 
L 291.670544 365.057936 
L 288.798724 363.625481 
L 285.975237 362.029211 
L 283.205669 360.274112 
L 280.495363 358.365393 
L 277.849415 356.308482 
L 275.272679 354.109029 
L 272.769765 351.772901 
L 270.345038 349.306188 
L 268.002622 346.715199 
L 265.746393 344.006464 
L 263.579986 341.186732 
L 261.506791 338.262973 
L 259.529955 335.242377 
L 257.652379 332.132355 
L 255.876723 328.940537 
L 254.205401 325.674773 
L 252.640583 322.343136 
L 251.184198 318.953916 
L 249.837926 315.515624 
L 248.603208 312.036992 
L 247.481238 308.526972 
L 246.472818 304.993162 
L 245.57801 301.434304 
L 244.79774 297.854581 
L 244.132892 294.259457 
L 243.58415 290.654366 
L 243.151994 287.044706 
L 242.836699 283.435843 
L 242.638341 279.833111 
L 242.556789 276.241812 
L 242.591713 272.667212 
L 242.742578 269.114547 
L 243.008646 265.589018 
L 243.388976 262.095795 
L 243.882426 258.640015 
L 244.487649 255.226779 
L 245.203095 251.861159 
L 246.027014 248.548193 
L 246.957449 245.292884 
L 247.992242 242.100206 
L 249.129035 238.975096 
L 250.365261 235.92246 
L 251.698156 232.947173 
L 253.124749 230.054073 
L 254.642493 227.246996 
L 256.249594 224.529558 
L 257.942902 221.908191 
L 259.71909 219.389099 
L 261.574701 216.978157 
L 263.50615 214.680914 
L 265.509727 212.502588 
L 267.581592 210.448072 
L 269.717776 208.521928 
L 271.914184 206.728391 
L 274.166592 205.071367 
L 276.47065 203.554435 
L 278.821878 202.180845 
L 281.215669 200.953518 
L 283.647289 199.875049 
L 286.111874 198.947702 
L 288.604433 198.173415 
L 291.119849 197.553796 
L 293.652875 197.090126 
L 296.198136 196.783358 
L 298.750131 196.634116 
L 301.30344 196.642559 
L 303.854691 196.807059 
L 306.398894 197.126585 
L 308.930557 197.600137 
L 311.444349 198.226338 
L 313.935097 199.003437 
L 316.397786 199.929305 
L 318.82756 201.001438 
L 321.219721 202.216953 
L 323.569729 203.572595 
L 325.873203 205.064729 
L 328.12592 206.689345 
L 330.323817 208.442059 
L 332.462987 210.318107 
L 334.539682 212.312351 
L 336.550315 214.419277 
L 338.491453 216.632993 
L 340.359826 218.947233 
L 342.152318 221.355353 
L 343.865975 223.850333 
L 347.045755 229.070915 
L 349.878701 234.545404 
L 352.350056 240.234087 
L 354.447875 246.10631 
L 356.161118 252.117116 
L 357.481776 258.222721 
L 358.404866 264.380511 
L 358.928437 270.549043 
L 359.053563 276.688046 
L 358.78435 282.758417 
L 358.78435 282.758417 
" clip-path="url(#pbfe14efddc)" style="fill: none; stroke: #000000; stroke-opacity: 0.3; stroke-width: 7; stroke-linecap: square"/>
   </g>
   <g id="line2d_14">
    <path d="M 525.199126 265.305944 
L 525.407771 273.173902 
L 525.35855 281.044585 
L 525.048471 288.908364 
L 524.492244 296.756764 
L 523.70458 304.581313 
L 522.701031 312.373578 
L 521.516665 320.126303 
L 520.190428 327.833868 
L 518.702505 335.491148 
L 516.86122 343.089554 
L 514.390148 350.61092 
L 511.649396 358.035817 
L 509.108761 365.36804 
L 502.762868 379.71244 
L 499.315446 386.70648 
L 495.597773 393.571957 
L 491.669817 400.300647 
L 487.47736 406.884576 
L 483.134738 413.315675 
L 478.570498 419.587345 
L 473.843179 425.691466 
L 468.900339 431.621228 
L 463.749671 437.369875 
L 458.395218 442.930626 
L 452.93198 448.297002 
L 447.233073 453.462945 
L 441.435141 458.42229 
L 435.437213 463.169293 
L 429.278422 467.698519 
L 422.987779 472.00467 
L 416.571112 476.082749 
L 410.031705 479.928004 
L 403.37667 483.535953 
L 396.612288 486.9024 
L 389.724865 490.023415 
L 382.711106 492.89551 
L 375.686099 495.515221 
L 368.50187 497.879592 
L 361.264569 499.985733 
L 353.978849 501.831375 
L 346.689435 503.414284 
L 339.232727 504.732459 
L 331.83145 505.784448 
L 324.328786 506.56927 
L 316.948207 507.08755 
L 309.201806 507.331457 
L 301.608787 507.30078 
L 293.848345 506.994165 
L 286.519383 506.416515 
L 279.058516 505.571225 
L 271.588264 504.459136 
L 264.214555 503.080861 
L 256.853191 501.438801 
L 249.5831 499.534365 
L 242.393054 497.369822 
L 235.290706 494.947881 
L 228.201656 492.271081 
L 221.257093 489.342778 
L 214.415551 486.166135 
L 207.655953 482.744952 
L 201.009624 479.083214 
L 194.482485 475.185181 
L 188.083678 471.055323 
L 181.833002 466.698507 
L 175.730683 462.119829 
L 169.80204 457.324484 
L 163.985797 452.318059 
L 158.36168 447.106475 
L 152.878538 441.695556 
L 147.628943 436.09179 
L 142.543335 430.301683 
L 137.624644 424.331849 
L 132.87297 418.189365 
L 128.41865 411.881369 
L 124.050534 405.414864 
L 119.993146 398.79749 
L 116.139254 392.037231 
L 112.453566 385.14161 
L 108.964504 378.119405 
L 102.798856 363.724356 
L 100.288401 356.371909 
L 97.527644 348.924401 
L 95.205326 341.38359 
L 93.471727 333.770756 
L 92.031838 326.101788 
L 90.73157 318.383555 
L 89.584932 310.621436 
L 88.625491 302.82124 
L 87.886539 294.990515 
L 87.388383 287.137568 
L 87.142002 279.271191 
L 87.149631 271.400523 
L 87.412591 263.534727 
L 87.933425 255.683584 
L 88.720514 247.855023 
L 89.796897 240.059464 
L 91.18837 232.308658 
L 92.920723 224.614357 
L 95.004904 216.988218 
L 101.696186 194.586326 
L 107.477971 180.101212 
L 114.186896 166.058637 
L 117.80693 159.224555 
L 121.697871 152.525658 
L 125.82976 145.969801 
L 130.063562 139.564359 
L 134.600187 133.316446 
L 139.258945 127.234035 
L 144.146673 121.323958 
L 149.231184 115.592886 
L 154.505062 110.047581 
L 159.981394 104.694634 
L 165.547139 99.540077 
L 171.361542 94.589925 
L 177.261975 89.849863 
L 183.328568 85.325572 
L 189.567317 81.022164 
L 195.940701 76.944641 
L 202.42266 73.097755 
L 209.01552 69.485955 
L 215.716899 66.11354 
L 222.566024 62.984373 
L 229.488103 60.101932 
L 236.4923 57.469876 
L 243.560293 55.090928 
L 250.731201 52.968027 
L 257.946945 51.103706 
L 265.26629 49.500169 
L 272.569586 48.158727 
L 279.988641 47.081554 
L 287.353601 46.269532 
L 294.733891 45.725368 
L 302.15967 45.442746 
L 309.879787 45.433896 
L 317.340879 45.69945 
L 324.681754 46.226743 
L 332.053292 47.021869 
L 339.470852 48.082034 
L 346.817755 49.406683 
L 354.105993 50.993475 
L 361.319886 52.841254 
L 368.503285 54.947716 
L 375.605621 57.310428 
L 382.58485 59.926456 
L 389.54582 62.793003 
L 396.371951 65.906491 
L 403.071826 69.263545 
L 409.687577 72.860203 
L 416.196157 76.692229 
L 422.576952 80.755147 
L 428.805063 85.044278 
L 434.866847 89.554731 
L 440.813405 94.281286 
L 446.621829 99.218228 
L 452.21007 104.360101 
L 457.664718 109.700595 
L 462.966507 115.233824 
L 468.063225 120.953238 
L 472.959072 126.852152 
L 477.623094 132.923867 
L 482.19818 139.161296 
L 486.438481 145.556976 
L 490.560602 152.103444 
L 494.464552 158.793428 
L 498.093786 165.619036 
L 504.869067 179.646308 
L 507.676521 186.829294 
L 510.669381 194.11825 
L 512.943367 201.50215 
L 519.488834 224.126139 
L 521.255994 231.817117 
L 522.667138 239.565125 
L 523.758593 247.357911 
L 524.563597 255.184645 
L 525.099377 263.035511 
L 525.378459 270.900977 
L 525.401453 278.771802 
L 525.171099 286.638927 
L 524.690141 294.493292 
L 523.959239 302.326126 
L 523.024564 310.12828 
L 521.901413 317.893524 
L 520.604974 325.615634 
L 519.150431 333.288382 
L 517.44311 340.905008 
L 515.162792 348.45078 
L 512.408135 355.904326 
L 509.890808 363.262363 
L 503.766191 377.671004 
L 500.270037 384.70078 
L 496.599697 391.604399 
L 492.757262 398.373066 
L 488.723129 404.999265 
L 484.394074 411.475145 
L 479.927784 417.792764 
L 475.180145 423.945539 
L 470.290789 429.926075 
L 465.20353 435.727291 
L 459.962444 441.342534 
L 454.524969 446.765419 
L 448.878969 451.989334 
L 443.103712 457.00855 
L 437.179622 461.816918 
L 431.067804 466.409047 
L 424.813792 470.779606 
L 418.427458 474.923509 
L 411.914699 478.835935 
L 405.282267 482.512344 
L 398.549098 485.948464 
L 391.715682 489.140256 
L 384.742146 492.084022 
L 377.695523 494.776545 
L 370.559492 497.214335 
L 363.388689 499.394933 
L 356.119314 501.315629 
L 348.754158 502.974212 
L 341.42557 504.368969 
L 333.948261 505.497868 
L 326.496074 506.359926 
L 319.158428 506.953971 
L 311.407636 507.278331 
L 303.784038 507.325832 
L 296.035689 507.098242 
L 288.638974 506.595781 
L 281.126844 505.826991 
L 273.732861 504.790854 
L 266.293382 503.488613 
L 258.994205 501.9214 
L 251.697965 500.091442 
L 244.471232 498.000869 
L 237.276508 495.651957 
L 230.232965 493.047426 
L 223.21408 490.19047 
L 216.343091 487.084306 
L 209.573457 483.732477 
L 202.904231 480.138938 
L 196.343563 476.307818 
L 189.910658 472.243572 
L 183.606288 467.950954 
L 177.449565 463.434974 
L 171.458772 458.700869 
L 165.644143 453.753993 
L 159.925604 448.600268 
L 154.460745 443.245612 
L 149.112721 437.696349 
L 143.942911 431.958781 
L 138.987121 426.039633 
L 134.253766 419.945714 
L 129.648067 413.684015 
L 125.324422 407.262366 
L 121.112714 400.687546 
L 117.162055 393.967339 
L 113.436437 387.109893 
L 109.988094 380.123339 
L 103.591518 365.792645 
L 101.028898 358.466077 
L 98.306516 351.046722 
L 95.797634 343.530723 
L 93.927337 335.936355 
L 92.425402 328.282379 
L 91.091203 320.577758 
L 89.897633 312.827697 
L 88.880594 305.037749 
L 88.076389 297.215024 
L 87.50801 289.367642 
L 87.190146 281.504283 
L 87.125923 273.634061 
L 87.316256 265.766111 
L 87.768298 257.910467 
L 88.474155 250.074264 
L 89.459244 242.268173 
L 90.754905 234.503654 
L 92.392479 226.792161 
L 94.390489 219.145602 
L 101.006289 196.676512 
L 103.782286 189.351706 
L 106.697779 182.133368 
L 109.862736 175.019306 
L 113.125476 168.024159 
L 116.730639 161.153716 
L 120.543043 154.415771 
L 124.575999 147.818326 
L 128.879419 141.369486 
L 133.259982 135.076605 
L 137.956819 128.946561 
L 142.786884 122.986783 
L 147.815798 117.204292 
L 153.029408 111.605802 
L 158.38778 106.197701 
L 163.956242 100.986111 
L 169.679493 95.977424 
L 175.588535 91.17717 
L 181.600044 86.591198 
L 187.778129 82.224712 
L 194.10765 78.082776 
L 200.574139 74.170137 
L 207.153888 70.491351 
L 213.819751 67.050722 
L 220.60108 63.85232 
L 227.531031 60.899733 
L 234.476006 58.196387 
L 241.587137 55.745492 
L 248.735501 53.549945 
L 255.951207 51.612154 
L 263.195129 49.934312 
L 270.507511 48.518891 
L 277.825428 47.366665 
L 285.20308 46.479659 
L 292.724789 45.859576 
L 299.991794 45.502216 
L 307.678199 45.414489 
L 315.263568 45.602647 
L 322.481889 46.054912 
L 329.940903 46.77369 
L 337.316339 47.757613 
L 344.70196 49.006014 
L 351.986477 50.517997 
L 359.265625 52.291085 
L 366.445865 54.323471 
L 373.536804 56.612725 
L 380.60909 59.156252 
L 387.536472 61.951192 
L 394.428133 64.994126 
L 401.172699 68.281548 
L 407.796925 71.809753 
L 414.322559 75.574595 
L 420.744372 79.571678 
L 427.031506 83.796306 
L 433.114753 88.243472 
L 439.092878 92.907634 
L 444.949331 97.784104 
L 450.594418 102.866894 
L 456.125611 108.150389 
L 461.428084 113.628283 
L 466.561674 119.294235 
L 471.530059 125.141717 
L 476.336671 131.163825 
L 480.855918 137.353508 
L 485.275288 143.704064 
L 489.377672 150.207595 
L 493.301518 156.856573 
L 497.027721 163.643637 
L 500.597011 170.560939 
L 503.938004 177.59886 
L 509.847734 192.009072 
L 512.324201 199.367867 
L 514.443328 206.806502 
L 518.899909 221.922369 
L 520.768901 229.594012 
L 522.280065 237.326368 
L 523.460593 245.106852 
L 524.344526 252.924391 
L 524.955767 260.768716 
L 525.309244 268.63032 
L 525.406917 276.500033 
L 525.249981 284.368691 
L 524.843611 292.227533 
L 524.183257 300.066495 
L 523.296026 307.877815 
L 522.212054 315.653992 
L 520.964663 323.387994 
L 519.580959 331.074732 
L 517.983675 338.708355 
L 515.886127 346.276696 
L 510.604621 361.142851 
L 507.787795 368.434332 
L 504.648576 375.613947 
L 501.210974 382.679677 
L 497.669316 389.620607 
L 493.885475 396.428732 
L 489.853207 403.096582 
L 485.691566 409.616462 
L 481.207338 415.981029 
L 476.618326 422.182338 
L 471.774594 428.21338 
L 466.744405 434.067274 
L 461.52559 439.737181 
L 456.092817 445.21636 
L 450.555066 450.498597 
L 444.779361 455.577771 
L 438.906649 460.447949 
L 432.862961 465.103329 
L 426.657696 469.538641 
L 420.30547 473.748744 
L 413.823995 477.728747 
L 407.217673 481.474018 
L 400.501613 484.980238 
L 393.694148 488.243277 
L 386.788459 491.259299 
L 379.732221 494.02491 
L 372.667716 496.536891 
L 365.463888 498.792341 
L 358.204648 500.788538 
L 350.921998 502.523225 
L 343.533454 503.99415 
L 336.176183 505.200238 
L 328.739583 506.139655 
L 321.285818 506.810497 
L 313.651963 507.214843 
L 305.984988 507.341761 
L 298.301712 507.194494 
L 290.714006 506.769962 
L 283.230311 506.079315 
L 275.805024 505.120193 
L 268.471178 503.894606 
L 261.056536 502.404077 
L 253.765541 500.650109 
L 246.513198 498.634695 
L 239.347815 496.360208 
L 232.273221 493.829509 
L 225.24431 491.045223 
L 218.31409 488.01087 
L 211.511328 484.729846 
L 204.817058 481.205914 
L 198.235665 477.443203 
L 191.761998 473.446045 
L 185.435283 469.219054 
L 179.227501 464.767227 
L 173.169757 460.095762 
L 167.305719 455.210006 
L 161.579109 450.115523 
L 156.016758 444.818583 
L 150.614618 439.32494 
L 145.422429 433.640995 
L 140.405949 427.773586 
L 135.558007 421.729494 
L 130.959931 415.515822 
L 126.533371 409.139218 
L 122.36041 402.607995 
L 118.336038 395.92923 
L 114.557193 389.110633 
L 111.044332 382.159871 
L 107.663208 375.084654 
L 104.490607 367.896254 
L 101.735515 360.597052 
L 96.452768 345.716097 
L 94.410403 338.141902 
L 92.838176 330.503781 
L 91.456641 322.813092 
L 90.221856 315.075445 
L 89.149803 307.296174 
L 88.28053 299.481995 
L 87.641344 291.640677 
L 87.251299 283.780805 
L 87.113759 275.911461 
L 87.230141 268.041752 
L 87.605586 260.181166 
L 88.233534 252.337947 
L 89.1364 244.522273 
L 90.341886 236.744754 
L 91.879631 229.016255 
L 93.777752 221.349366 
L 100.358897 198.811676 
L 102.885799 191.458918 
L 108.847306 177.063672 
L 112.165171 170.034695 
L 115.757905 163.126982 
L 119.506782 156.349954 
L 123.435795 149.711502 
L 127.567443 143.21889 
L 132.023821 136.880239 
L 136.545208 130.702717 
L 141.340772 124.693553 
L 146.321901 118.859464 
L 151.467979 113.207327 
L 156.818378 107.7437 
L 162.36088 102.475027 
L 167.999909 97.407317 
L 173.871164 92.546549 
L 179.865959 87.898213 
L 185.984658 83.467927 
L 192.259552 79.260764 
L 198.68205 75.281563 
L 205.239121 71.534909 
L 211.899391 68.025156 
L 218.636578 64.756448 
L 225.506684 61.73264 
L 232.484819 58.957005 
L 239.522398 56.43307 
L 239.522398 56.43307 
" clip-path="url(#pbfe14efddc)" style="fill: none; stroke-dasharray: 22.4,5.6,3.5,5.6; stroke-dashoffset: 0; stroke: #0000ff; stroke-opacity: 0.8; stroke-width: 3.5"/>
   </g>
   <g id="patch_3">
    <path d="M 42.620313 530.438125 
L 42.620313 22.318125 
" style="fill: none; stroke: #000000; stroke-width: 0.8; stroke-linejoin: miter; stroke-linecap: square"/>
   </g>
   <g id="patch_4">
    <path d="M 561.210312 530.438125 
L 561.210312 22.318125 
" style="fill: none; stroke: #000000; stroke-width: 0.8; stroke-linejoin: miter; stroke-linecap: square"/>
   </g>
   <g id="patch_5">
    <path d="M 42.620313 530.438125 
L 561.210312 530.438125 
" style="fill: none; stroke: #000000; stroke-width: 0.8; stroke-linejoin: miter; stroke-linecap: square"/>
   </g>
   <g id="patch_6">
    <path d="M 42.620313 22.318125 
L 561.210312 22.318125 
" style="fill: none; stroke: #000000; stroke-width: 0.8; stroke-linejoin: miter; stroke-linecap: square"/>
   </g>
   <g id="line2d_15">
    <path d="M 525.199126 265.305944 
L 523.495395 272.499698 
L 521.812623 278.740037 
L 520.14048 284.295258 
L 518.470889 289.351907 
L 515.113556 298.474534 
L 511.695524 306.835344 
L 508.176171 314.868133 
L 502.615549 326.855242 
L 496.576829 339.155346 
L 492.197594 347.60393 
L 487.468014 356.23794 
L 482.326665 365.009254 
L 476.710775 373.857578 
L 473.70609 378.289259 
L 470.560514 382.714465 
L 467.267569 387.125244 
L 463.819422 391.511987 
L 460.211337 395.86808 
L 456.439065 400.187378 
L 452.498357 404.463737 
L 448.386432 408.692399 
L 444.099167 412.867914 
L 439.637507 416.989303 
L 435.003126 421.056213 
L 430.197694 425.068294 
L 425.224738 429.023266 
L 420.086758 432.928126 
L 414.79172 436.778178 
L 409.348345 440.567046 
L 403.765353 444.288351 
L 398.052921 447.928752 
L 392.221283 451.479491 
L 386.284094 454.908263 
L 380.255457 458.179838 
L 374.149476 461.258984 
L 367.979563 464.112082 
L 361.762817 466.685093 
L 355.512205 468.945244 
L 349.240142 470.862404 
L 342.959045 472.406439 
L 336.680103 473.552735 
L 330.413125 474.287455 
L 324.164091 474.609131 
L 317.938621 474.517327 
L 311.741329 474.014805 
L 305.575186 473.108341 
L 299.442186 471.805835 
L 293.344506 470.115425 
L 287.283696 468.044517 
L 281.262455 465.601501 
L 275.284838 462.796343 
L 269.355825 459.642 
L 263.479646 456.145639 
L 257.66508 452.327776 
L 251.922755 448.215281 
L 246.263297 443.835021 
L 240.698113 439.21518 
L 235.240691 434.395301 
L 229.905091 429.410359 
L 224.705428 424.294548 
L 219.655717 419.081691 
L 214.769291 413.800448 
L 210.061026 408.481346 
L 205.540705 403.136533 
L 201.218113 397.778158 
L 197.102918 392.418305 
L 193.202852 387.065223 
L 189.524385 381.723145 
L 186.069357 376.394649 
L 182.839608 371.082317 
L 179.835587 365.788206 
L 177.05745 360.515021 
L 174.501181 355.263758 
L 172.162145 350.035121 
L 170.035707 344.829813 
L 168.116858 339.647611 
L 166.399082 334.489082 
L 164.876034 329.351544 
L 163.541405 324.231829 
L 162.388889 319.126768 
L 161.412699 314.032542 
L 160.606103 308.94454 
L 159.964607 303.857021 
L 159.484038 298.764093 
L 159.160224 293.659865 
L 158.9898 288.538908 
L 158.969045 283.393985 
L 159.096781 278.220508 
L 159.37217 273.014263 
L 159.794372 267.771035 
L 160.363072 262.487695 
L 161.078678 257.16116 
L 161.942858 251.792614 
L 162.957407 246.383704 
L 164.124279 240.937193 
L 165.445989 235.45643 
L 166.9255 229.949837 
L 168.565826 224.426825 
L 170.369869 218.897311 
L 172.341009 213.373083 
L 174.481869 207.86809 
L 176.79475 202.396771 
L 179.281457 196.973009 
L 181.944544 191.612762 
L 184.784708 186.329774 
L 187.801033 181.135588 
L 190.992605 176.041742 
L 194.357793 171.059403 
L 197.895103 166.197935 
L 201.60052 161.465041 
L 205.468112 156.867849 
L 209.491943 152.413488 
L 213.665497 148.109678 
L 217.98177 143.962136 
L 222.43177 139.97955 
L 227.005182 136.17284 
L 231.691695 132.552927 
L 236.480987 129.13135 
L 241.361637 125.921005 
L 246.322148 122.937412 
L 251.351274 120.197332 
L 256.437773 117.717525 
L 261.570953 115.513253 
L 266.739246 113.60458 
L 271.932907 112.006165 
L 277.143648 110.728019 
L 282.363178 109.780149 
L 287.583749 109.170376 
L 292.797782 108.905652 
L 297.999564 108.984349 
L 303.184508 109.400089 
L 308.348027 110.146495 
L 313.485466 111.216913 
L 318.593374 112.600603 
L 323.668086 114.286367 
L 328.705518 116.263502 
L 333.701589 118.521303 
L 338.651602 121.049188 
L 343.551722 123.837626 
L 348.39582 126.877953 
L 353.176333 130.161601 
L 357.885698 133.68 
L 362.516008 137.423405 
L 367.058339 141.384747 
L 371.502404 145.552458 
L 375.837465 149.912096 
L 380.05278 154.44922 
L 384.1382 159.148803 
L 388.081611 163.992887 
L 391.873219 168.961375 
L 395.504752 174.033708 
L 398.967943 179.189329 
L 402.255468 184.409481 
L 405.359856 189.671024 
L 408.277301 194.95795 
L 411.00573 200.258394 
L 413.54307 205.560492 
L 415.887722 210.854441 
L 418.039298 216.13137 
L 419.999025 221.389671 
L 421.768667 226.630944 
L 423.349986 231.856791 
L 424.74475 237.069207 
L 425.955398 242.273302 
L 426.984079 247.474915 
L 427.832765 252.679792 
L 428.503399 257.8935 
L 428.997749 263.12157 
L 429.317124 268.367731 
L 429.462506 273.633412 
L 429.43481 278.919149 
L 429.234625 284.224173 
L 428.862276 289.542467 
L 428.318066 294.867245 
L 427.602269 300.189446 
L 426.715081 305.497439 
L 425.65689 310.77774 
L 424.428439 316.015301 
L 423.03076 321.196143 
L 421.464429 326.302081 
L 419.731393 331.319688 
L 417.834055 336.237507 
L 415.774816 341.044082 
L 413.556409 345.729898 
L 411.18173 350.285277 
L 408.654815 354.707336 
L 405.980033 358.995323 
L 403.161755 363.148488 
L 400.204635 367.166404 
L 397.113376 371.052136 
L 393.8935 374.808232 
L 390.550792 378.436875 
L 387.091035 381.940247 
L 383.520267 385.31881 
L 379.844379 388.576072 
L 376.069968 391.708456 
L 372.203869 394.710142 
L 368.252918 397.575312 
L 364.224074 400.296302 
L 360.124347 402.864503 
L 355.961049 405.265565 
L 351.741582 407.483606 
L 347.473347 409.502743 
L 343.16362 411.307723 
L 338.820076 412.8782 
L 334.449928 414.198209 
L 330.060219 415.253235 
L 325.657997 416.028762 
L 321.250043 416.513355 
L 316.843489 416.692136 
L 312.444673 416.561948 
L 308.059685 416.122791 
L 303.694617 415.374662 
L 299.355396 414.320456 
L 295.047994 412.964422 
L 290.777982 411.319027 
L 286.550817 409.398724 
L 282.371953 407.21797 
L 278.246863 404.791632 
L 274.180876 402.138275 
L 270.179412 399.275573 
L 266.247921 396.220861 
L 262.391855 392.991476 
L 258.616765 389.603021 
L 254.928058 386.073343 
L 251.331402 382.41369 
L 247.83248 378.634986 
L 244.436975 374.748158 
L 241.150505 370.76217 
L 237.978923 366.685582 
L 234.927642 362.523038 
L 232.002057 358.27901 
L 229.207561 353.957969 
L 226.549146 349.563871 
L 224.03234 345.099276 
L 221.661225 340.5675 
L 219.439825 335.971878 
L 217.372166 331.315749 
L 215.461624 326.603098 
L 213.712008 321.837465 
L 212.125292 317.024486 
L 210.70339 312.169862 
L 209.448217 307.279295 
L 208.361126 302.358712 
L 207.443471 297.415058 
L 206.695394 292.45462 
L 206.117005 287.483666 
L 205.708411 282.508467 
L 205.469441 277.534793 
L 205.399759 272.568678 
L 205.498629 267.614684 
L 205.765304 262.677345 
L 206.19904 257.761191 
L 206.79892 252.870768 
L 207.564221 248.009491 
L 208.493726 243.18211 
L 209.586205 238.393395 
L 210.840432 233.648118 
L 212.254763 228.952046 
L 213.828229 224.30999 
L 215.558319 219.730062 
L 217.442504 215.220407 
L 219.478252 210.789173 
L 221.662253 206.445379 
L 223.99184 202.198795 
L 226.462011 198.060203 
L 229.067753 194.040394 
L 231.804051 190.150156 
L 234.665117 186.399802 
L 237.645115 182.80129 
L 240.736674 179.363733 
L 243.932421 176.096243 
L 247.224982 173.007915 
L 250.606756 170.106503 
L 254.069507 167.400524 
L 257.605332 164.894978 
L 261.206329 162.594863 
L 264.864607 160.505155 
L 268.572627 158.629682 
L 272.322338 156.97235 
L 276.10716 155.534775 
L 279.920517 154.318571 
L 283.755847 153.325332 
L 287.607103 152.555948 
L 291.468194 152.011273 
L 295.334217 151.690785 
L 299.200265 151.593957 
L 303.061435 151.720242 
L 306.913085 152.068636 
L 310.750853 152.638239 
L 314.570459 153.427003 
L 318.367622 154.432879 
L 322.138043 155.653767 
L 325.87731 157.087062 
L 329.58124 158.73066 
L 333.244856 160.580432 
L 336.863181 162.63225 
L 340.431218 164.881887 
L 343.943687 167.324244 
L 347.395152 169.954714 
L 350.779596 172.765493 
L 354.090999 175.748774 
L 357.323363 178.896688 
L 360.470589 182.200353 
L 363.526156 185.650335 
L 366.484163 189.235496 
L 369.338707 192.944696 
L 372.083946 196.766882 
L 374.714331 200.690798 
L 377.224135 204.704072 
L 379.609148 208.79656 
L 381.865161 212.958116 
L 383.988026 217.178761 
L 385.974104 221.449437 
L 387.81996 225.761058 
L 389.523486 230.108006 
L 391.082575 234.48466 
L 392.495164 238.88546 
L 393.759594 243.305829 
L 394.874438 247.742065 
L 395.839015 252.191349 
L 396.652648 256.650862 
L 397.314692 261.117691 
L 397.82472 265.589026 
L 398.182348 270.062531 
L 398.38775 274.534132 
L 398.441099 278.999755 
L 398.342619 283.455232 
L 398.092682 287.895789 
L 397.691642 292.316198 
L 397.140606 296.709837 
L 396.440684 301.070085 
L 395.593051 305.390382 
L 394.59909 309.663765 
L 393.460291 313.882717 
L 392.179055 318.040708 
L 390.757786 322.13121 
L 389.198952 326.147825 
L 387.505292 330.084508 
L 385.679757 333.935483 
L 383.726121 337.696601 
L 381.648155 341.363711 
L 379.449688 344.932638 
L 377.134792 348.399758 
L 374.707728 351.762027 
L 372.173375 355.015934 
L 369.536612 358.157973 
L 366.802363 361.184421 
L 363.975719 364.091465 
L 361.061887 366.875142 
L 358.066487 369.529129 
L 354.995136 372.047104 
L 351.853468 374.422617 
L 348.64722 376.648396 
L 345.382215 378.716289 
L 342.064402 380.617027 
L 338.69973 382.341343 
L 335.294128 383.880227 
L 331.853569 385.224004 
L 328.384094 386.362695 
L 324.89156 387.288981 
L 321.381827 387.995545 
L 317.860716 388.475616 
L 314.334035 388.722937 
L 310.807613 388.732482 
L 307.286985 388.504029 
L 303.777692 388.037355 
L 300.285251 387.332671 
L 296.815139 386.39162 
L 293.372819 385.21765 
L 289.963616 383.817433 
L 286.592854 382.197643 
L 283.265858 380.365055 
L 279.987944 378.327509 
L 276.76443 376.093786 
L 273.600644 373.673159 
L 270.501913 371.074898 
L 267.47354 368.308262 
L 264.520893 365.382614 
L 261.649338 362.307286 
L 258.864064 359.091456 
L 256.170261 355.744304 
L 253.573005 352.275122 
L 251.077485 348.692959 
L 248.688695 345.007029 
L 246.410899 341.227342 
L 244.248359 337.363904 
L 242.205133 333.426783 
L 240.285277 329.426453 
L 238.492288 325.373899 
L 236.828459 321.280389 
L 235.296082 317.157193 
L 233.897247 313.015301 
L 232.633798 308.866314 
L 231.506816 304.721381 
L 230.516298 300.589921 
L 229.662242 296.481355 
L 228.944516 292.404719 
L 228.362662 288.368741 
L 227.915631 284.380808 
L 227.601768 280.446329 
L 227.419417 276.570715 
L 227.366846 272.759204 
L 227.442134 269.016317 
L 227.643048 265.345737 
L 227.967025 261.750497 
L 228.411501 258.233627 
L 228.973841 254.798194 
L 229.651368 251.446917 
L 230.441181 248.182518 
L 231.340053 245.008008 
L 232.344754 241.926398 
L 233.451973 238.940775 
L 234.658385 236.054292 
L 235.96039 233.270422 
L 237.354001 230.592987 
L 238.835233 228.025812 
L 240.400017 225.572709 
L 242.044224 223.237736 
L 243.763421 221.02505 
L 245.552845 218.938722 
L 247.407732 216.982824 
L 249.323275 215.161306 
L 251.294549 213.478315 
L 253.316427 211.937678 
L 255.383636 210.542678 
L 257.490903 209.296599 
L 259.632963 208.202513 
L 261.804437 207.26357 
L 263.99992 206.482274 
L 266.214073 205.86031 
L 268.441552 205.399363 
L 270.67707 205.100831 
L 272.91526 204.966153 
L 275.15089 204.995898 
L 277.378924 205.1896 
L 279.594329 205.546796 
L 281.792151 206.066632 
L 283.967383 206.748352 
L 286.115246 207.590012 
L 288.23125 208.588313 
L 290.310908 209.739961 
L 292.349849 211.041177 
L 294.343616 212.488206 
L 296.288107 214.075737 
L 298.179631 215.796889 
L 300.014495 217.644783 
L 301.78904 219.612413 
L 303.499899 221.691624 
L 305.144085 223.873245 
L 308.221292 228.505303 
L 311.00133 233.426834 
L 313.469599 238.551812 
L 315.6159 243.793192 
L 317.435924 249.069967 
L 318.928896 254.307 
L 320.099021 259.441346 
L 320.953666 264.420363 
L 321.503371 269.202979 
L 321.761059 273.758566 
L 321.741341 278.064109 
L 321.460354 282.104293 
L 320.935047 285.867947 
L 320.18312 289.347954 
L 319.222698 292.539535 
L 318.072186 295.439857 
L 316.750123 298.04694 
L 315.275083 300.360189 
L 313.665603 302.379531 
L 313.665603 302.379531 
" clip-path="url(#pbfe14efddc)" style="fill: none; stroke-dasharray: 3.5,5.775; stroke-dashoffset: 0; stroke: #008000; stroke-opacity: 0.8; stroke-width: 3.5"/>
   </g>
   <g id="text_15">
    <!-- Phase Portrait (x0 vs x1) -->
    <g transform="translate(228.224062 16.318125) scale(0.12 -0.12)">
     <defs>
      <path id="DejaVuSans-50" d="M 1259 4147 
L 1259 2394 
L 2053 2394 
Q 2494 2394 2734 2622 
Q 2975 2850 2975 3272 
Q 2975 3691 2734 3919 
Q 2494 4147 2053 4147 
L 1259 4147 
z
M 628 4666 
L 2053 4666 
Q 2838 4666 3239 4311 
Q 3641 3956 3641 3272 
Q 3641 2581 3239 2228 
Q 2838 1875 2053 1875 
L 1259 1875 
L 1259 0 
L 628 0 
L 628 4666 
z
" transform="scale(0.015625)"/>
      <path id="DejaVuSans-68" d="M 3513 2113 
L 3513 0 
L 2938 0 
L 2938 2094 
Q 2938 2591 2744 2837 
Q 2550 3084 2163 3084 
Q 1697 3084 1428 2787 
Q 1159 2491 1159 1978 
L 1159 0 
L 581 0 
L 581 4863 
L 1159 4863 
L 1159 2956 
Q 1366 3272 1645 3428 
Q 1925 3584 2291 3584 
Q 2894 3584 3203 3211 
Q 3513 2838 3513 2113 
z
" transform="scale(0.015625)"/>
      <path id="DejaVuSans-61" d="M 2194 1759 
Q 1497 1759 1228 1600 
Q 959 1441 959 1056 
Q 959 750 1161 570 
Q 1363 391 1709 391 
Q 2188 391 2477 730 
Q 2766 1069 2766 1631 
L 2766 1759 
L 2194 1759 
z
M 3341 1997 
L 3341 0 
L 2766 0 
L 2766 531 
Q 2569 213 2275 61 
Q 1981 -91 1556 -91 
Q 1019 -91 701 211 
Q 384 513 384 1019 
Q 384 1609 779 1909 
Q 1175 2209 1959 2209 
L 2766 2209 
L 2766 2266 
Q 2766 2663 2505 2880 
Q 2244 3097 1772 3097 
Q 1472 3097 1187 3025 
Q 903 2953 641 2809 
L 641 3341 
Q 956 3463 1253 3523 
Q 1550 3584 1831 3584 
Q 2591 3584 2966 3190 
Q 3341 2797 3341 1997 
z
" transform="scale(0.015625)"/>
      <path id="DejaVuSans-73" d="M 2834 3397 
L 2834 2853 
Q 2591 2978 2328 3040 
Q 2066 3103 1784 3103 
Q 1356 3103 1142 2972 
Q 928 2841 928 2578 
Q 928 2378 1081 2264 
Q 1234 2150 1697 2047 
L 1894 2003 
Q 2506 1872 2764 1633 
Q 3022 1394 3022 966 
Q 3022 478 2636 193 
Q 2250 -91 1575 -91 
Q 1294 -91 989 -36 
Q 684 19 347 128 
L 347 722 
Q 666 556 975 473 
Q 1284 391 1588 391 
Q 1994 391 2212 530 
Q 2431 669 2431 922 
Q 2431 1156 2273 1281 
Q 2116 1406 1581 1522 
L 1381 1569 
Q 847 1681 609 1914 
Q 372 2147 372 2553 
Q 372 3047 722 3315 
Q 1072 3584 1716 3584 
Q 2034 3584 2315 3537 
Q 2597 3491 2834 3397 
z
" transform="scale(0.015625)"/>
      <path id="DejaVuSans-65" d="M 3597 1894 
L 3597 1613 
L 953 1613 
Q 991 1019 1311 708 
Q 1631 397 2203 397 
Q 2534 397 2845 478 
Q 3156 559 3463 722 
L 3463 178 
Q 3153 47 2828 -22 
Q 2503 -91 2169 -91 
Q 1331 -91 842 396 
Q 353 884 353 1716 
Q 353 2575 817 3079 
Q 1281 3584 2069 3584 
Q 2775 3584 3186 3129 
Q 3597 2675 3597 1894 
z
M 3022 2063 
Q 3016 2534 2758 2815 
Q 2500 3097 2075 3097 
Q 1594 3097 1305 2825 
Q 1016 2553 972 2059 
L 3022 2063 
z
" transform="scale(0.015625)"/>
      <path id="DejaVuSans-20" transform="scale(0.015625)"/>
      <path id="DejaVuSans-6f" d="M 1959 3097 
Q 1497 3097 1228 2736 
Q 959 2375 959 1747 
Q 959 1119 1226 758 
Q 1494 397 1959 397 
Q 2419 397 2687 759 
Q 2956 1122 2956 1747 
Q 2956 2369 2687 2733 
Q 2419 3097 1959 3097 
z
M 1959 3584 
Q 2709 3584 3137 3096 
Q 3566 2609 3566 1747 
Q 3566 888 3137 398 
Q 2709 -91 1959 -91 
Q 1206 -91 779 398 
Q 353 888 353 1747 
Q 353 2609 779 3096 
Q 1206 3584 1959 3584 
z
" transform="scale(0.015625)"/>
      <path id="DejaVuSans-72" d="M 2631 2963 
Q 2534 3019 2420 3045 
Q 2306 3072 2169 3072 
Q 1681 3072 1420 2755 
Q 1159 2438 1159 1844 
L 1159 0 
L 581 0 
L 581 3500 
L 1159 3500 
L 1159 2956 
Q 1341 3275 1631 3429 
Q 1922 3584 2338 3584 
Q 2397 3584 2469 3576 
Q 2541 3569 2628 3553 
L 2631 2963 
z
" transform="scale(0.015625)"/>
      <path id="DejaVuSans-74" d="M 1172 4494 
L 1172 3500 
L 2356 3500 
L 2356 3053 
L 1172 3053 
L 1172 1153 
Q 1172 725 1289 603 
Q 1406 481 1766 481 
L 2356 481 
L 2356 0 
L 1766 0 
Q 1100 0 847 248 
Q 594 497 594 1153 
L 594 3053 
L 172 3053 
L 172 3500 
L 594 3500 
L 594 4494 
L 1172 4494 
z
" transform="scale(0.015625)"/>
      <path id="DejaVuSans-69" d="M 603 3500 
L 1178 3500 
L 1178 0 
L 603 0 
L 603 3500 
z
M 603 4863 
L 1178 4863 
L 1178 4134 
L 603 4134 
L 603 4863 
z
" transform="scale(0.015625)"/>
      <path id="DejaVuSans-28" d="M 1984 4856 
Q 1566 4138 1362 3434 
Q 1159 2731 1159 2009 
Q 1159 1288 1364 580 
Q 1569 -128 1984 -844 
L 1484 -844 
Q 1016 -109 783 600 
Q 550 1309 550 2009 
Q 550 2706 781 3412 
Q 1013 4119 1484 4856 
L 1984 4856 
z
" transform="scale(0.015625)"/>
      <path id="DejaVuSans-76" d="M 191 3500 
L 800 3500 
L 1894 563 
L 2988 3500 
L 3597 3500 
L 2284 0 
L 1503 0 
L 191 3500 
z
" transform="scale(0.015625)"/>
      <path id="DejaVuSans-29" d="M 513 4856 
L 1013 4856 
Q 1481 4119 1714 3412 
Q 1947 2706 1947 2009 
Q 1947 1309 1714 600 
Q 1481 -109 1013 -844 
L 513 -844 
Q 928 -128 1133 580 
Q 1338 1288 1338 2009 
Q 1338 2731 1133 3434 
Q 928 4138 513 4856 
z
" transform="scale(0.015625)"/>
     </defs>
     <use xlink:href="#DejaVuSans-50"/>
     <use xlink:href="#DejaVuSans-68" transform="translate(60.302734 0)"/>
     <use xlink:href="#DejaVuSans-61" transform="translate(123.681641 0)"/>
     <use xlink:href="#DejaVuSans-73" transform="translate(184.960938 0)"/>
     <use xlink:href="#DejaVuSans-65" transform="translate(237.060547 0)"/>
     <use xlink:href="#DejaVuSans-20" transform="translate(298.583984 0)"/>
     <use xlink:href="#DejaVuSans-50" transform="translate(330.371094 0)"/>
     <use xlink:href="#DejaVuSans-6f" transform="translate(387.048828 0)"/>
     <use xlink:href="#DejaVuSans-72" transform="translate(448.230469 0)"/>
     <use xlink:href="#DejaVuSans-74" transform="translate(489.34375 0)"/>
     <use xlink:href="#DejaVuSans-72" transform="translate(528.552734 0)"/>
     <use xlink:href="#DejaVuSans-61" transform="translate(569.666016 0)"/>
     <use xlink:href="#DejaVuSans-69" transform="translate(630.945312 0)"/>
     <use xlink:href="#DejaVuSans-74" transform="translate(658.728516 0)"/>
     <use xlink:href="#DejaVuSans-20" transform="translate(697.9375 0)"/>
     <use xlink:href="#DejaVuSans-28" transform="translate(729.724609 0)"/>
     <use xlink:href="#DejaVuSans-78" transform="translate(768.738281 0)"/>
     <use xlink:href="#DejaVuSans-30" transform="translate(827.917969 0)"/>
     <use xlink:href="#DejaVuSans-20" transform="translate(891.541016 0)"/>
     <use xlink:href="#DejaVuSans-76" transform="translate(923.328125 0)"/>
     <use xlink:href="#DejaVuSans-73" transform="translate(982.507812 0)"/>
     <use xlink:href="#DejaVuSans-20" transform="translate(1034.607422 0)"/>
     <use xlink:href="#DejaVuSans-78" transform="translate(1066.394531 0)"/>
     <use xlink:href="#DejaVuSans-31" transform="translate(1125.574219 0)"/>
     <use xlink:href="#DejaVuSans-29" transform="translate(1189.197266 0)"/>
    </g>
   </g>
   <g id="line2d_16">
    <path d="M 525.199126 265.305944 
L 525.468479 267.801786 
L 525.318861 289.452098 
L 525.094577 291.778462 
L 524.75245 294.108323 
L 523.585794 298.795253 
L 522.984952 301.162854 
L 521.298018 305.971341 
L 519.354626 310.907955 
L 518.273166 313.435306 
L 514.377172 321.306551 
L 511.314954 326.837348 
L 507.919144 332.633944 
L 504.096763 338.727964 
L 499.895009 345.149963 
L 492.728769 355.458786 
L 484.494916 366.648645 
L 478.393685 374.625918 
L 471.747913 383.023803 
L 464.576309 391.835219 
L 456.764134 401.036456 
L 448.399237 410.583309 
L 439.370546 420.406416 
L 429.64303 430.406624 
L 419.359558 440.451474 
L 413.933261 445.43953 
L 408.395463 450.37357 
L 402.598738 455.227095 
L 396.694543 459.972369 
L 390.703644 464.580386 
L 384.6239 469.019592 
L 371.89848 477.271234 
L 364.999793 481.021087 
L 358.263146 484.467391 
L 351.805709 487.602654 
L 345.243807 490.410439 
L 338.453395 492.862832 
L 331.472071 494.931469 
L 324.366644 496.593324 
L 317.188966 497.831433 
L 309.971897 498.634439 
L 302.735597 498.995954 
L 295.494741 498.913818 
L 288.269893 498.390601 
L 281.094612 497.434165 
L 274.022136 496.056046 
L 267.118347 494.276528 
L 260.423907 492.118748 
L 253.799377 489.606143 
L 246.838822 486.749031 
L 239.795535 483.550945 
L 226.664351 476.276711 
L 220.216274 472.252748 
L 213.943802 468.005667 
L 207.795666 463.562996 
L 195.948387 454.19736 
L 190.287299 449.3248 
L 184.750594 444.357785 
L 179.356393 439.318889 
L 169.114196 429.109129 
L 164.23999 423.976619 
L 159.532156 418.848942 
L 150.641381 408.669266 
L 142.368091 398.678813 
L 134.764211 388.964536 
L 127.747595 379.593547 
L 121.341838 370.614193 
L 115.546343 362.057678 
L 110.25763 353.940828 
L 105.497221 346.267798 
L 101.226203 339.032265 
L 97.435172 332.218186 
L 94.072792 325.80586 
L 91.119538 319.768629 
L 88.554624 314.076539 
L 86.372221 308.696309 
L 84.595739 303.593392 
L 83.13204 298.731117 
L 82.539753 296.37914 
L 81.694097 291.806099 
L 81.331774 289.573866 
L 81.350707 283.007437 
L 81.486714 262.090001 
L 81.614271 260.075111 
L 82.408632 256.030549 
L 84.318524 249.856593 
L 85.88246 245.616373 
L 88.856117 238.986517 
L 92.561343 231.937274 
L 95.442949 226.951836 
L 98.699957 221.701108 
L 104.227249 213.260718 
L 108.374377 207.213942 
L 115.369623 197.445318 
L 126.300007 182.992257 
L 135.799063 171.010991 
L 146.552326 158.042842 
L 154.404574 148.878923 
L 162.894704 139.349376 
L 171.971858 129.524341 
L 181.779442 119.504091 
L 192.185814 109.422742 
L 197.571992 104.410875 
L 209.026482 94.567022 
L 214.931947 89.78981 
L 221.058137 85.148272 
L 233.501126 76.39579 
L 246.652872 68.567548 
L 253.313384 65.065303 
L 260.532575 61.892638 
L 267.855822 59.089936 
L 275.109238 56.678089 
L 282.319304 54.671564 
L 289.531673 53.083775 
L 296.767195 51.926242 
L 304.029441 51.208536 
L 311.307467 50.935239 
L 318.587275 51.108053 
L 325.86443 51.72336 
L 333.145632 52.775086 
L 340.465682 54.254643 
L 347.872294 56.152816 
L 355.338555 58.458293 
L 362.512855 61.147735 
L 369.094623 64.176325 
L 375.966095 67.513487 
L 382.584534 71.149237 
L 389.258798 75.045953 
L 395.664284 79.17984 
L 401.939308 83.52315 
L 408.013366 88.048252 
L 414.0178 92.728218 
L 419.810767 97.537774 
L 425.492151 102.451942 
L 431.011032 107.447238 
L 436.408864 112.501445 
L 446.573409 122.70447 
L 456.130235 132.911164 
L 465.024394 142.994577 
L 473.236902 152.850232 
L 480.847295 162.395357 
L 487.852345 171.566733 
L 497.243561 184.530518 
L 502.839095 192.608414 
L 510.262021 203.857474 
L 514.604672 210.785806 
L 518.516819 217.274809 
L 523.613249 226.232138 
L 527.817008 234.337054 
L 531.289377 241.693867 
L 533.123062 246.237627 
L 534.681972 250.532195 
L 535.961839 254.612313 
L 536.502833 256.582458 
L 537.263331 260.408644 
L 537.345657 262.276899 
L 537.63804 264.118222 
L 537.447911 290.154683 
L 536.311793 295.144576 
L 534.480279 300.278959 
L 532.980313 303.833759 
L 530.246338 309.43666 
L 526.881948 315.448355 
L 522.861612 321.963054 
L 516.425109 331.595708 
L 510.71661 339.654259 
L 501.804233 351.688639 
L 494.011491 361.793268 
L 485.163722 372.8988 
L 475.21009 385.041158 
L 463.973337 398.204203 
L 455.795631 407.503397 
L 446.9683 417.16019 
L 437.519902 427.09102 
L 427.35844 437.180138 
L 416.648182 447.276312 
L 405.21103 457.192308 
L 399.293725 462.015383 
L 393.192627 466.708682 
L 386.860987 471.240614 
L 380.392219 475.58149 
L 374.04027 479.693807 
L 367.239234 483.554753 
L 353.637809 490.355988 
L 347.010406 493.269952 
L 340.163758 495.828839 
L 333.107554 498.003295 
L 325.911625 499.768041 
L 318.632245 501.105007 
L 311.30826 502.001165 
L 303.961172 502.449594 
L 296.60709 502.447397 
L 289.265774 501.997017 
L 281.966087 501.104565 
L 274.76333 499.783688 
L 267.725324 498.052543 
L 260.89803 495.935664 
L 254.159641 493.457451 
L 247.098905 490.629934 
L 239.917527 487.456747 
L 226.539958 480.219645 
L 219.956185 476.210287 
L 213.545633 471.976575 
L 207.301111 467.54707 
L 201.228863 462.949704 
L 195.199365 458.21068 
L 189.352857 453.356104 
L 183.700119 448.410428 
L 172.849107 438.33782 
L 167.675231 433.253351 
L 162.663682 428.162675 
L 153.165836 418.031523 
L 144.274925 408.067584 
L 136.054732 398.371238 
L 128.423759 389.021406 
L 118.139204 375.771131 
L 111.938368 367.508083 
L 103.654606 356.016043 
L 94.266813 342.381875 
L 86.562795 330.586237 
L 80.303025 320.449075 
L 77.669671 315.934428 
L 73.236127 307.861423 
L 69.923511 300.866069 
L 68.009504 296.184868 
L 67.148336 293.27796 
L 66.493317 290.506018 
L 66.206472 289.161357 
L 66.244842 283.896645 
L 66.373158 261.950338 
L 67.24417 258.485973 
L 68.630259 254.893424 
L 69.134619 253.65306 
L 71.901939 248.40717 
L 73.561244 245.573387 
L 77.521474 239.375865 
L 82.381716 232.323444 
L 91.666845 219.721747 
L 101.55175 206.931404 
L 111.069202 194.912527 
L 125.395945 177.358092 
L 135.462374 165.390861 
L 142.802298 156.815443 
L 154.961919 143.113877 
L 163.827474 133.491562 
L 168.468422 128.562127 
L 178.281332 118.533069 
L 188.780056 108.391098 
L 194.233656 103.329206 
L 194.233656 103.329206 
" clip-path="url(#pbfe14efddc)" style="fill: none; stroke-dasharray: 12.95,5.6; stroke-dashoffset: 0; stroke: #ff0000; stroke-opacity: 0.8; stroke-width: 3.5"/>
   </g>
   <g id="legend_1">
    <g id="patch_7">
     <path d="M 49.620313 89.030625 
L 194.970313 89.030625 
Q 196.970313 89.030625 196.970313 87.030625 
L 196.970313 29.318125 
Q 196.970313 27.318125 194.970313 27.318125 
L 49.620313 27.318125 
Q 47.620313 27.318125 47.620313 29.318125 
L 47.620313 87.030625 
Q 47.620313 89.030625 49.620313 89.030625 
z
" style="fill: #ffffff; opacity: 0.8; stroke: #cccccc; stroke-linejoin: miter"/>
    </g>
    <g id="line2d_17">
     <path d="M 51.620313 35.416562 
L 61.620313 35.416562 
L 71.620313 35.416562 
" style="fill: none; stroke: #000000; stroke-opacity: 0.3; stroke-width: 7; stroke-linecap: square"/>
    </g>
    <g id="text_16">
     <!-- True/Underlying model -->
     <g transform="translate(79.620313 38.916562) scale(0.1 -0.1)">
      <defs>
       <path id="DejaVuSans-54" d="M -19 4666 
L 3928 4666 
L 3928 4134 
L 2272 4134 
L 2272 0 
L 1638 0 
L 1638 4134 
L -19 4134 
L -19 4666 
z
" transform="scale(0.015625)"/>
       <path id="DejaVuSans-75" d="M 544 1381 
L 544 3500 
L 1119 3500 
L 1119 1403 
Q 1119 906 1312 657 
Q 1506 409 1894 409 
Q 2359 409 2629 706 
Q 2900 1003 2900 1516 
L 2900 3500 
L 3475 3500 
L 3475 0 
L 2900 0 
L 2900 538 
Q 2691 219 2414 64 
Q 2138 -91 1772 -91 
Q 1169 -91 856 284 
Q 544 659 544 1381 
z
M 1991 3584 
L 1991 3584 
z
" transform="scale(0.015625)"/>
       <path id="DejaVuSans-2f" d="M 1625 4666 
L 2156 4666 
L 531 -594 
L 0 -594 
L 1625 4666 
z
" transform="scale(0.015625)"/>
       <path id="DejaVuSans-55" d="M 556 4666 
L 1191 4666 
L 1191 1831 
Q 1191 1081 1462 751 
Q 1734 422 2344 422 
Q 2950 422 3222 751 
Q 3494 1081 3494 1831 
L 3494 4666 
L 4128 4666 
L 4128 1753 
Q 4128 841 3676 375 
Q 3225 -91 2344 -91 
Q 1459 -91 1007 375 
Q 556 841 556 1753 
L 556 4666 
z
" transform="scale(0.015625)"/>
       <path id="DejaVuSans-6e" d="M 3513 2113 
L 3513 0 
L 2938 0 
L 2938 2094 
Q 2938 2591 2744 2837 
Q 2550 3084 2163 3084 
Q 1697 3084 1428 2787 
Q 1159 2491 1159 1978 
L 1159 0 
L 581 0 
L 581 3500 
L 1159 3500 
L 1159 2956 
Q 1366 3272 1645 3428 
Q 1925 3584 2291 3584 
Q 2894 3584 3203 3211 
Q 3513 2838 3513 2113 
z
" transform="scale(0.015625)"/>
       <path id="DejaVuSans-64" d="M 2906 2969 
L 2906 4863 
L 3481 4863 
L 3481 0 
L 2906 0 
L 2906 525 
Q 2725 213 2448 61 
Q 2172 -91 1784 -91 
Q 1150 -91 751 415 
Q 353 922 353 1747 
Q 353 2572 751 3078 
Q 1150 3584 1784 3584 
Q 2172 3584 2448 3432 
Q 2725 3281 2906 2969 
z
M 947 1747 
Q 947 1113 1208 752 
Q 1469 391 1925 391 
Q 2381 391 2643 752 
Q 2906 1113 2906 1747 
Q 2906 2381 2643 2742 
Q 2381 3103 1925 3103 
Q 1469 3103 1208 2742 
Q 947 2381 947 1747 
z
" transform="scale(0.015625)"/>
       <path id="DejaVuSans-6c" d="M 603 4863 
L 1178 4863 
L 1178 0 
L 603 0 
L 603 4863 
z
" transform="scale(0.015625)"/>
       <path id="DejaVuSans-79" d="M 2059 -325 
Q 1816 -950 1584 -1140 
Q 1353 -1331 966 -1331 
L 506 -1331 
L 506 -850 
L 844 -850 
Q 1081 -850 1212 -737 
Q 1344 -625 1503 -206 
L 1606 56 
L 191 3500 
L 800 3500 
L 1894 763 
L 2988 3500 
L 3597 3500 
L 2059 -325 
z
" transform="scale(0.015625)"/>
       <path id="DejaVuSans-67" d="M 2906 1791 
Q 2906 2416 2648 2759 
Q 2391 3103 1925 3103 
Q 1463 3103 1205 2759 
Q 947 2416 947 1791 
Q 947 1169 1205 825 
Q 1463 481 1925 481 
Q 2391 481 2648 825 
Q 2906 1169 2906 1791 
z
M 3481 434 
Q 3481 -459 3084 -895 
Q 2688 -1331 1869 -1331 
Q 1566 -1331 1297 -1286 
Q 1028 -1241 775 -1147 
L 775 -588 
Q 1028 -725 1275 -790 
Q 1522 -856 1778 -856 
Q 2344 -856 2625 -561 
Q 2906 -266 2906 331 
L 2906 616 
Q 2728 306 2450 153 
Q 2172 0 1784 0 
Q 1141 0 747 490 
Q 353 981 353 1791 
Q 353 2603 747 3093 
Q 1141 3584 1784 3584 
Q 2172 3584 2450 3431 
Q 2728 3278 2906 2969 
L 2906 3500 
L 3481 3500 
L 3481 434 
z
" transform="scale(0.015625)"/>
       <path id="DejaVuSans-6d" d="M 3328 2828 
Q 3544 3216 3844 3400 
Q 4144 3584 4550 3584 
Q 5097 3584 5394 3201 
Q 5691 2819 5691 2113 
L 5691 0 
L 5113 0 
L 5113 2094 
Q 5113 2597 4934 2840 
Q 4756 3084 4391 3084 
Q 3944 3084 3684 2787 
Q 3425 2491 3425 1978 
L 3425 0 
L 2847 0 
L 2847 2094 
Q 2847 2600 2669 2842 
Q 2491 3084 2119 3084 
Q 1678 3084 1418 2786 
Q 1159 2488 1159 1978 
L 1159 0 
L 581 0 
L 581 3500 
L 1159 3500 
L 1159 2956 
Q 1356 3278 1631 3431 
Q 1906 3584 2284 3584 
Q 2666 3584 2933 3390 
Q 3200 3197 3328 2828 
z
" transform="scale(0.015625)"/>
      </defs>
      <use xlink:href="#DejaVuSans-54"/>
      <use xlink:href="#DejaVuSans-72" transform="translate(46.333984 0)"/>
      <use xlink:href="#DejaVuSans-75" transform="translate(87.447266 0)"/>
      <use xlink:href="#DejaVuSans-65" transform="translate(150.826172 0)"/>
      <use xlink:href="#DejaVuSans-2f" transform="translate(212.349609 0)"/>
      <use xlink:href="#DejaVuSans-55" transform="translate(246.041016 0)"/>
      <use xlink:href="#DejaVuSans-6e" transform="translate(319.234375 0)"/>
      <use xlink:href="#DejaVuSans-64" transform="translate(382.613281 0)"/>
      <use xlink:href="#DejaVuSans-65" transform="translate(446.089844 0)"/>
      <use xlink:href="#DejaVuSans-72" transform="translate(507.613281 0)"/>
      <use xlink:href="#DejaVuSans-6c" transform="translate(548.726562 0)"/>
      <use xlink:href="#DejaVuSans-79" transform="translate(576.509766 0)"/>
      <use xlink:href="#DejaVuSans-69" transform="translate(635.689453 0)"/>
      <use xlink:href="#DejaVuSans-6e" transform="translate(663.472656 0)"/>
      <use xlink:href="#DejaVuSans-67" transform="translate(726.851562 0)"/>
      <use xlink:href="#DejaVuSans-20" transform="translate(790.328125 0)"/>
      <use xlink:href="#DejaVuSans-6d" transform="translate(822.115234 0)"/>
      <use xlink:href="#DejaVuSans-6f" transform="translate(919.527344 0)"/>
      <use xlink:href="#DejaVuSans-64" transform="translate(980.708984 0)"/>
      <use xlink:href="#DejaVuSans-65" transform="translate(1044.185547 0)"/>
      <use xlink:href="#DejaVuSans-6c" transform="translate(1105.708984 0)"/>
     </g>
    </g>
    <g id="line2d_18">
     <path d="M 51.620313 50.094687 
L 61.620313 50.094687 
L 71.620313 50.094687 
" style="fill: none; stroke-dasharray: 12.95,5.6; stroke-dashoffset: 0; stroke: #ff0000; stroke-opacity: 0.8; stroke-width: 3.5"/>
    </g>
    <g id="text_17">
     <!-- AutoSINDy -->
     <g transform="translate(79.620313 53.594687) scale(0.1 -0.1)">
      <defs>
       <path id="DejaVuSans-41" d="M 2188 4044 
L 1331 1722 
L 3047 1722 
L 2188 4044 
z
M 1831 4666 
L 2547 4666 
L 4325 0 
L 3669 0 
L 3244 1197 
L 1141 1197 
L 716 0 
L 50 0 
L 1831 4666 
z
" transform="scale(0.015625)"/>
       <path id="DejaVuSans-53" d="M 3425 4513 
L 3425 3897 
Q 3066 4069 2747 4153 
Q 2428 4238 2131 4238 
Q 1616 4238 1336 4038 
Q 1056 3838 1056 3469 
Q 1056 3159 1242 3001 
Q 1428 2844 1947 2747 
L 2328 2669 
Q 3034 2534 3370 2195 
Q 3706 1856 3706 1288 
Q 3706 609 3251 259 
Q 2797 -91 1919 -91 
Q 1588 -91 1214 -16 
Q 841 59 441 206 
L 441 856 
Q 825 641 1194 531 
Q 1563 422 1919 422 
Q 2459 422 2753 634 
Q 3047 847 3047 1241 
Q 3047 1584 2836 1778 
Q 2625 1972 2144 2069 
L 1759 2144 
Q 1053 2284 737 2584 
Q 422 2884 422 3419 
Q 422 4038 858 4394 
Q 1294 4750 2059 4750 
Q 2388 4750 2728 4690 
Q 3069 4631 3425 4513 
z
" transform="scale(0.015625)"/>
       <path id="DejaVuSans-49" d="M 628 4666 
L 1259 4666 
L 1259 0 
L 628 0 
L 628 4666 
z
" transform="scale(0.015625)"/>
       <path id="DejaVuSans-4e" d="M 628 4666 
L 1478 4666 
L 3547 763 
L 3547 4666 
L 4159 4666 
L 4159 0 
L 3309 0 
L 1241 3903 
L 1241 0 
L 628 0 
L 628 4666 
z
" transform="scale(0.015625)"/>
       <path id="DejaVuSans-44" d="M 1259 4147 
L 1259 519 
L 2022 519 
Q 2988 519 3436 956 
Q 3884 1394 3884 2338 
Q 3884 3275 3436 3711 
Q 2988 4147 2022 4147 
L 1259 4147 
z
M 628 4666 
L 1925 4666 
Q 3281 4666 3915 4102 
Q 4550 3538 4550 2338 
Q 4550 1131 3912 565 
Q 3275 0 1925 0 
L 628 0 
L 628 4666 
z
" transform="scale(0.015625)"/>
      </defs>
      <use xlink:href="#DejaVuSans-41"/>
      <use xlink:href="#DejaVuSans-75" transform="translate(68.408203 0)"/>
      <use xlink:href="#DejaVuSans-74" transform="translate(131.787109 0)"/>
      <use xlink:href="#DejaVuSans-6f" transform="translate(170.996094 0)"/>
      <use xlink:href="#DejaVuSans-53" transform="translate(232.177734 0)"/>
      <use xlink:href="#DejaVuSans-49" transform="translate(295.654297 0)"/>
      <use xlink:href="#DejaVuSans-4e" transform="translate(325.146484 0)"/>
      <use xlink:href="#DejaVuSans-44" transform="translate(399.951172 0)"/>
      <use xlink:href="#DejaVuSans-79" transform="translate(476.953125 0)"/>
     </g>
    </g>
    <g id="line2d_19">
     <path d="M 51.620313 64.772812 
L 61.620313 64.772812 
L 71.620313 64.772812 
" style="fill: none; stroke-dasharray: 3.5,5.775; stroke-dashoffset: 0; stroke: #008000; stroke-opacity: 0.8; stroke-width: 3.5"/>
    </g>
    <g id="text_18">
     <!-- Standard SINDy -->
     <g transform="translate(79.620313 68.272812) scale(0.1 -0.1)">
      <use xlink:href="#DejaVuSans-53"/>
      <use xlink:href="#DejaVuSans-74" transform="translate(63.476562 0)"/>
      <use xlink:href="#DejaVuSans-61" transform="translate(102.685547 0)"/>
      <use xlink:href="#DejaVuSans-6e" transform="translate(163.964844 0)"/>
      <use xlink:href="#DejaVuSans-64" transform="translate(227.34375 0)"/>
      <use xlink:href="#DejaVuSans-61" transform="translate(290.820312 0)"/>
      <use xlink:href="#DejaVuSans-72" transform="translate(352.099609 0)"/>
      <use xlink:href="#DejaVuSans-64" transform="translate(391.462891 0)"/>
      <use xlink:href="#DejaVuSans-20" transform="translate(454.939453 0)"/>
      <use xlink:href="#DejaVuSans-53" transform="translate(486.726562 0)"/>
      <use xlink:href="#DejaVuSans-49" transform="translate(550.203125 0)"/>
      <use xlink:href="#DejaVuSans-4e" transform="translate(579.695312 0)"/>
      <use xlink:href="#DejaVuSans-44" transform="translate(654.5 0)"/>
      <use xlink:href="#DejaVuSans-79" transform="translate(731.501953 0)"/>
     </g>
    </g>
    <g id="line2d_20">
     <path d="M 51.620313 79.450937 
L 61.620313 79.450937 
L 71.620313 79.450937 
" style="fill: none; stroke-dasharray: 22.4,5.6,3.5,5.6; stroke-dashoffset: 0; stroke: #0000ff; stroke-opacity: 0.8; stroke-width: 3.5"/>
    </g>
    <g id="text_19">
     <!-- Standard PySR -->
     <g transform="translate(79.620313 82.950937) scale(0.1 -0.1)">
      <defs>
       <path id="DejaVuSans-52" d="M 2841 2188 
Q 3044 2119 3236 1894 
Q 3428 1669 3622 1275 
L 4263 0 
L 3584 0 
L 2988 1197 
Q 2756 1666 2539 1819 
Q 2322 1972 1947 1972 
L 1259 1972 
L 1259 0 
L 628 0 
L 628 4666 
L 2053 4666 
Q 2853 4666 3247 4331 
Q 3641 3997 3641 3322 
Q 3641 2881 3436 2590 
Q 3231 2300 2841 2188 
z
M 1259 4147 
L 1259 2491 
L 2053 2491 
Q 2509 2491 2742 2702 
Q 2975 2913 2975 3322 
Q 2975 3731 2742 3939 
Q 2509 4147 2053 4147 
L 1259 4147 
z
" transform="scale(0.015625)"/>
      </defs>
      <use xlink:href="#DejaVuSans-53"/>
      <use xlink:href="#DejaVuSans-74" transform="translate(63.476562 0)"/>
      <use xlink:href="#DejaVuSans-61" transform="translate(102.685547 0)"/>
      <use xlink:href="#DejaVuSans-6e" transform="translate(163.964844 0)"/>
      <use xlink:href="#DejaVuSans-64" transform="translate(227.34375 0)"/>
      <use xlink:href="#DejaVuSans-61" transform="translate(290.820312 0)"/>
      <use xlink:href="#DejaVuSans-72" transform="translate(352.099609 0)"/>
      <use xlink:href="#DejaVuSans-64" transform="translate(391.462891 0)"/>
      <use xlink:href="#DejaVuSans-20" transform="translate(454.939453 0)"/>
      <use xlink:href="#DejaVuSans-50" transform="translate(486.726562 0)"/>
      <use xlink:href="#DejaVuSans-79" transform="translate(547.029297 0)"/>
      <use xlink:href="#DejaVuSans-53" transform="translate(606.208984 0)"/>
      <use xlink:href="#DejaVuSans-52" transform="translate(669.685547 0)"/>
     </g>
    </g>
   </g>
  </g>
 </g>
 <defs>
  <clipPath id="pbfe14efddc">
   <rect x="42.620313" y="22.318125" width="518.59" height="508.12"/>
  </clipPath>
 </defs>
</svg>
