<?xml version="1.0" encoding="utf-8" standalone="no"?>
<!DOCTYPE svg PUBLIC "-//W3C//DTD SVG 1.1//EN"
  "http://www.w3.org/Graphics/SVG/1.1/DTD/svg11.dtd">
<svg xmlns:xlink="http://www.w3.org/1999/xlink" width="568.410937pt" height="567.994375pt" viewBox="0 0 568.410937 567.994375" xmlns="http://www.w3.org/2000/svg" version="1.1">
 <metadata>
  <rdf:RDF xmlns:dc="http://purl.org/dc/elements/1.1/" xmlns:cc="http://creativecommons.org/ns#" xmlns:rdf="http://www.w3.org/1999/02/22-rdf-syntax-ns#">
   <cc:Work>
    <dc:type rdf:resource="http://purl.org/dc/dcmitype/StillImage"/>
    <dc:date>2026-04-06T11:40:58.714712</dc:date>
    <dc:format>image/svg+xml</dc:format>
    <dc:creator>
     <cc:Agent>
      <dc:title>Matplotlib v3.10.7, https://matplotlib.org/</dc:title>
     </cc:Agent>
    </dc:creator>
   </cc:Work>
  </rdf:RDF>
 </metadata>
 <defs>
  <style type="text/css">*{stroke-linejoin: round; stroke-linecap: butt}</style>
 </defs>
 <g id="figure_1">
  <g id="patch_1">
   <path d="M 0 567.994375 
L 568.410937 567.994375 
L 568.410937 0 
L 0 0 
z
" style="fill: #ffffff"/>
  </g>
  <g id="axes_1">
   <g id="patch_2">
    <path d="M 52.160938 530.438125 
L 561.210937 530.438125 
L 561.210937 22.318125 
L 52.160938 22.318125 
z
" style="fill: #ffffff"/>
   </g>
   <g id="matplotlib.axis_1">
    <g id="xtick_1">
     <g id="line2d_1">
      <defs>
       <path id="m397919df53" d="M 0 0 
L 0 3.5 
" style="stroke: #000000; stroke-width: 0.8"/>
      </defs>
      <g>
       <use xlink:href="#m397919df53" x="76.742342" y="530.438125" style="stroke: #000000; stroke-width: 0.8"/>
      </g>
     </g>
     <g id="text_1">
      <!-- −0.8 -->
      <g transform="translate(64.600936 545.036562) scale(0.1 -0.1)">
       <defs>
        <path id="DejaVuSans-2212" d="M 678 2272 
L 4684 2272 
L 4684 1741 
L 678 1741 
L 678 2272 
z
" transform="scale(0.015625)"/>
        <path id="DejaVuSans-30" d="M 2034 4250 
Q 1547 4250 1301 3770 
Q 1056 3291 1056 2328 
Q 1056 1369 1301 889 
Q 1547 409 2034 409 
Q 2525 409 2770 889 
Q 3016 1369 3016 2328 
Q 3016 3291 2770 3770 
Q 2525 4250 2034 4250 
z
M 2034 4750 
Q 2819 4750 3233 4129 
Q 3647 3509 3647 2328 
Q 3647 1150 3233 529 
Q 2819 -91 2034 -91 
Q 1250 -91 836 529 
Q 422 1150 422 2328 
Q 422 3509 836 4129 
Q 1250 4750 2034 4750 
z
" transform="scale(0.015625)"/>
        <path id="DejaVuSans-2e" d="M 684 794 
L 1344 794 
L 1344 0 
L 684 0 
L 684 794 
z
" transform="scale(0.015625)"/>
        <path id="DejaVuSans-38" d="M 2034 2216 
Q 1584 2216 1326 1975 
Q 1069 1734 1069 1313 
Q 1069 891 1326 650 
Q 1584 409 2034 409 
Q 2484 409 2743 651 
Q 3003 894 3003 1313 
Q 3003 1734 2745 1975 
Q 2488 2216 2034 2216 
z
M 1403 2484 
Q 997 2584 770 2862 
Q 544 3141 544 3541 
Q 544 4100 942 4425 
Q 1341 4750 2034 4750 
Q 2731 4750 3128 4425 
Q 3525 4100 3525 3541 
Q 3525 3141 3298 2862 
Q 3072 2584 2669 2484 
Q 3125 2378 3379 2068 
Q 3634 1759 3634 1313 
Q 3634 634 3220 271 
Q 2806 -91 2034 -91 
Q 1263 -91 848 271 
Q 434 634 434 1313 
Q 434 1759 690 2068 
Q 947 2378 1403 2484 
z
M 1172 3481 
Q 1172 3119 1398 2916 
Q 1625 2713 2034 2713 
Q 2441 2713 2670 2916 
Q 2900 3119 2900 3481 
Q 2900 3844 2670 4047 
Q 2441 4250 2034 4250 
Q 1625 4250 1398 4047 
Q 1172 3844 1172 3481 
z
" transform="scale(0.015625)"/>
       </defs>
       <use xlink:href="#DejaVuSans-2212"/>
       <use xlink:href="#DejaVuSans-30" transform="translate(83.789062 0)"/>
       <use xlink:href="#DejaVuSans-2e" transform="translate(147.412109 0)"/>
       <use xlink:href="#DejaVuSans-38" transform="translate(179.199219 0)"/>
      </g>
     </g>
    </g>
    <g id="xtick_2">
     <g id="line2d_2">
      <g>
       <use xlink:href="#m397919df53" x="134.144818" y="530.438125" style="stroke: #000000; stroke-width: 0.8"/>
      </g>
     </g>
     <g id="text_2">
      <!-- −0.6 -->
      <g transform="translate(122.003412 545.036562) scale(0.1 -0.1)">
       <defs>
        <path id="DejaVuSans-36" d="M 2113 2584 
Q 1688 2584 1439 2293 
Q 1191 2003 1191 1497 
Q 1191 994 1439 701 
Q 1688 409 2113 409 
Q 2538 409 2786 701 
Q 3034 994 3034 1497 
Q 3034 2003 2786 2293 
Q 2538 2584 2113 2584 
z
M 3366 4563 
L 3366 3988 
Q 3128 4100 2886 4159 
Q 2644 4219 2406 4219 
Q 1781 4219 1451 3797 
Q 1122 3375 1075 2522 
Q 1259 2794 1537 2939 
Q 1816 3084 2150 3084 
Q 2853 3084 3261 2657 
Q 3669 2231 3669 1497 
Q 3669 778 3244 343 
Q 2819 -91 2113 -91 
Q 1303 -91 875 529 
Q 447 1150 447 2328 
Q 447 3434 972 4092 
Q 1497 4750 2381 4750 
Q 2619 4750 2861 4703 
Q 3103 4656 3366 4563 
z
" transform="scale(0.015625)"/>
       </defs>
       <use xlink:href="#DejaVuSans-2212"/>
       <use xlink:href="#DejaVuSans-30" transform="translate(83.789062 0)"/>
       <use xlink:href="#DejaVuSans-2e" transform="translate(147.412109 0)"/>
       <use xlink:href="#DejaVuSans-36" transform="translate(179.199219 0)"/>
      </g>
     </g>
    </g>
    <g id="xtick_3">
     <g id="line2d_3">
      <g>
       <use xlink:href="#m397919df53" x="191.547295" y="530.438125" style="stroke: #000000; stroke-width: 0.8"/>
      </g>
     </g>
     <g id="text_3">
      <!-- −0.4 -->
      <g transform="translate(179.405889 545.036562) scale(0.1 -0.1)">
       <defs>
        <path id="DejaVuSans-34" d="M 2419 4116 
L 825 1625 
L 2419 1625 
L 2419 4116 
z
M 2253 4666 
L 3047 4666 
L 3047 1625 
L 3713 1625 
L 3713 1100 
L 3047 1100 
L 3047 0 
L 2419 0 
L 2419 1100 
L 313 1100 
L 313 1709 
L 2253 4666 
z
" transform="scale(0.015625)"/>
       </defs>
       <use xlink:href="#DejaVuSans-2212"/>
       <use xlink:href="#DejaVuSans-30" transform="translate(83.789062 0)"/>
       <use xlink:href="#DejaVuSans-2e" transform="translate(147.412109 0)"/>
       <use xlink:href="#DejaVuSans-34" transform="translate(179.199219 0)"/>
      </g>
     </g>
    </g>
    <g id="xtick_4">
     <g id="line2d_4">
      <g>
       <use xlink:href="#m397919df53" x="248.949772" y="530.438125" style="stroke: #000000; stroke-width: 0.8"/>
      </g>
     </g>
     <g id="text_4">
      <!-- −0.2 -->
      <g transform="translate(236.808366 545.036562) scale(0.1 -0.1)">
       <defs>
        <path id="DejaVuSans-32" d="M 1228 531 
L 3431 531 
L 3431 0 
L 469 0 
L 469 531 
Q 828 903 1448 1529 
Q 2069 2156 2228 2338 
Q 2531 2678 2651 2914 
Q 2772 3150 2772 3378 
Q 2772 3750 2511 3984 
Q 2250 4219 1831 4219 
Q 1534 4219 1204 4116 
Q 875 4013 500 3803 
L 500 4441 
Q 881 4594 1212 4672 
Q 1544 4750 1819 4750 
Q 2544 4750 2975 4387 
Q 3406 4025 3406 3419 
Q 3406 3131 3298 2873 
Q 3191 2616 2906 2266 
Q 2828 2175 2409 1742 
Q 1991 1309 1228 531 
z
" transform="scale(0.015625)"/>
       </defs>
       <use xlink:href="#DejaVuSans-2212"/>
       <use xlink:href="#DejaVuSans-30" transform="translate(83.789062 0)"/>
       <use xlink:href="#DejaVuSans-2e" transform="translate(147.412109 0)"/>
       <use xlink:href="#DejaVuSans-32" transform="translate(179.199219 0)"/>
      </g>
     </g>
    </g>
    <g id="xtick_5">
     <g id="line2d_5">
      <g>
       <use xlink:href="#m397919df53" x="306.352249" y="530.438125" style="stroke: #000000; stroke-width: 0.8"/>
      </g>
     </g>
     <g id="text_5">
      <!-- 0.0 -->
      <g transform="translate(298.400686 545.036562) scale(0.1 -0.1)">
       <use xlink:href="#DejaVuSans-30"/>
       <use xlink:href="#DejaVuSans-2e" transform="translate(63.623047 0)"/>
       <use xlink:href="#DejaVuSans-30" transform="translate(95.410156 0)"/>
      </g>
     </g>
    </g>
    <g id="xtick_6">
     <g id="line2d_6">
      <g>
       <use xlink:href="#m397919df53" x="363.754725" y="530.438125" style="stroke: #000000; stroke-width: 0.8"/>
      </g>
     </g>
     <g id="text_6">
      <!-- 0.2 -->
      <g transform="translate(355.803163 545.036562) scale(0.1 -0.1)">
       <use xlink:href="#DejaVuSans-30"/>
       <use xlink:href="#DejaVuSans-2e" transform="translate(63.623047 0)"/>
       <use xlink:href="#DejaVuSans-32" transform="translate(95.410156 0)"/>
      </g>
     </g>
    </g>
    <g id="xtick_7">
     <g id="line2d_7">
      <g>
       <use xlink:href="#m397919df53" x="421.157202" y="530.438125" style="stroke: #000000; stroke-width: 0.8"/>
      </g>
     </g>
     <g id="text_7">
      <!-- 0.4 -->
      <g transform="translate(413.205639 545.036562) scale(0.1 -0.1)">
       <use xlink:href="#DejaVuSans-30"/>
       <use xlink:href="#DejaVuSans-2e" transform="translate(63.623047 0)"/>
       <use xlink:href="#DejaVuSans-34" transform="translate(95.410156 0)"/>
      </g>
     </g>
    </g>
    <g id="xtick_8">
     <g id="line2d_8">
      <g>
       <use xlink:href="#m397919df53" x="478.559679" y="530.438125" style="stroke: #000000; stroke-width: 0.8"/>
      </g>
     </g>
     <g id="text_8">
      <!-- 0.6 -->
      <g transform="translate(470.608116 545.036562) scale(0.1 -0.1)">
       <use xlink:href="#DejaVuSans-30"/>
       <use xlink:href="#DejaVuSans-2e" transform="translate(63.623047 0)"/>
       <use xlink:href="#DejaVuSans-36" transform="translate(95.410156 0)"/>
      </g>
     </g>
    </g>
    <g id="xtick_9">
     <g id="line2d_9">
      <g>
       <use xlink:href="#m397919df53" x="535.962155" y="530.438125" style="stroke: #000000; stroke-width: 0.8"/>
      </g>
     </g>
     <g id="text_9">
      <!-- 0.8 -->
      <g transform="translate(528.010593 545.036562) scale(0.1 -0.1)">
       <use xlink:href="#DejaVuSans-30"/>
       <use xlink:href="#DejaVuSans-2e" transform="translate(63.623047 0)"/>
       <use xlink:href="#DejaVuSans-38" transform="translate(95.410156 0)"/>
      </g>
     </g>
    </g>
    <g id="text_10">
     <!-- x0 -->
     <g transform="translate(300.545312 558.714687) scale(0.1 -0.1)">
      <defs>
       <path id="DejaVuSans-78" d="M 3513 3500 
L 2247 1797 
L 3578 0 
L 2900 0 
L 1881 1375 
L 863 0 
L 184 0 
L 1544 1831 
L 300 3500 
L 978 3500 
L 1906 2253 
L 2834 3500 
L 3513 3500 
z
" transform="scale(0.015625)"/>
      </defs>
      <use xlink:href="#DejaVuSans-78"/>
      <use xlink:href="#DejaVuSans-30" transform="translate(59.179688 0)"/>
     </g>
    </g>
   </g>
   <g id="matplotlib.axis_2">
    <g id="ytick_1">
     <g id="line2d_10">
      <defs>
       <path id="mb031f588c8" d="M 0 0 
L -3.5 0 
" style="stroke: #000000; stroke-width: 0.8"/>
      </defs>
      <g>
       <use xlink:href="#mb031f588c8" x="52.160938" y="468.440983" style="stroke: #000000; stroke-width: 0.8"/>
      </g>
     </g>
     <g id="text_11">
      <!-- −1.5 -->
      <g transform="translate(20.878125 472.240202) scale(0.1 -0.1)">
       <defs>
        <path id="DejaVuSans-31" d="M 794 531 
L 1825 531 
L 1825 4091 
L 703 3866 
L 703 4441 
L 1819 4666 
L 2450 4666 
L 2450 531 
L 3481 531 
L 3481 0 
L 794 0 
L 794 531 
z
" transform="scale(0.015625)"/>
        <path id="DejaVuSans-35" d="M 691 4666 
L 3169 4666 
L 3169 4134 
L 1269 4134 
L 1269 2991 
Q 1406 3038 1543 3061 
Q 1681 3084 1819 3084 
Q 2600 3084 3056 2656 
Q 3513 2228 3513 1497 
Q 3513 744 3044 326 
Q 2575 -91 1722 -91 
Q 1428 -91 1123 -41 
Q 819 9 494 109 
L 494 744 
Q 775 591 1075 516 
Q 1375 441 1709 441 
Q 2250 441 2565 725 
Q 2881 1009 2881 1497 
Q 2881 1984 2565 2268 
Q 2250 2553 1709 2553 
Q 1456 2553 1204 2497 
Q 953 2441 691 2322 
L 691 4666 
z
" transform="scale(0.015625)"/>
       </defs>
       <use xlink:href="#DejaVuSans-2212"/>
       <use xlink:href="#DejaVuSans-31" transform="translate(83.789062 0)"/>
       <use xlink:href="#DejaVuSans-2e" transform="translate(147.412109 0)"/>
       <use xlink:href="#DejaVuSans-35" transform="translate(179.199219 0)"/>
      </g>
     </g>
    </g>
    <g id="ytick_2">
     <g id="line2d_11">
      <g>
       <use xlink:href="#mb031f588c8" x="52.160938" y="404.091723" style="stroke: #000000; stroke-width: 0.8"/>
      </g>
     </g>
     <g id="text_12">
      <!-- −1.0 -->
      <g transform="translate(20.878125 407.890942) scale(0.1 -0.1)">
       <use xlink:href="#DejaVuSans-2212"/>
       <use xlink:href="#DejaVuSans-31" transform="translate(83.789062 0)"/>
       <use xlink:href="#DejaVuSans-2e" transform="translate(147.412109 0)"/>
       <use xlink:href="#DejaVuSans-30" transform="translate(179.199219 0)"/>
      </g>
     </g>
    </g>
    <g id="ytick_3">
     <g id="line2d_12">
      <g>
       <use xlink:href="#mb031f588c8" x="52.160938" y="339.742463" style="stroke: #000000; stroke-width: 0.8"/>
      </g>
     </g>
     <g id="text_13">
      <!-- −0.5 -->
      <g transform="translate(20.878125 343.541682) scale(0.1 -0.1)">
       <use xlink:href="#DejaVuSans-2212"/>
       <use xlink:href="#DejaVuSans-30" transform="translate(83.789062 0)"/>
       <use xlink:href="#DejaVuSans-2e" transform="translate(147.412109 0)"/>
       <use xlink:href="#DejaVuSans-35" transform="translate(179.199219 0)"/>
      </g>
     </g>
    </g>
    <g id="ytick_4">
     <g id="line2d_13">
      <g>
       <use xlink:href="#mb031f588c8" x="52.160938" y="275.393203" style="stroke: #000000; stroke-width: 0.8"/>
      </g>
     </g>
     <g id="text_14">
      <!-- 0.0 -->
      <g transform="translate(29.257812 279.192422) scale(0.1 -0.1)">
       <use xlink:href="#DejaVuSans-30"/>
       <use xlink:href="#DejaVuSans-2e" transform="translate(63.623047 0)"/>
       <use xlink:href="#DejaVuSans-30" transform="translate(95.410156 0)"/>
      </g>
     </g>
    </g>
    <g id="ytick_5">
     <g id="line2d_14">
      <g>
       <use xlink:href="#mb031f588c8" x="52.160938" y="211.043943" style="stroke: #000000; stroke-width: 0.8"/>
      </g>
     </g>
     <g id="text_15">
      <!-- 0.5 -->
      <g transform="translate(29.257812 214.843162) scale(0.1 -0.1)">
       <use xlink:href="#DejaVuSans-30"/>
       <use xlink:href="#DejaVuSans-2e" transform="translate(63.623047 0)"/>
       <use xlink:href="#DejaVuSans-35" transform="translate(95.410156 0)"/>
      </g>
     </g>
    </g>
    <g id="ytick_6">
     <g id="line2d_15">
      <g>
       <use xlink:href="#mb031f588c8" x="52.160938" y="146.694683" style="stroke: #000000; stroke-width: 0.8"/>
      </g>
     </g>
     <g id="text_16">
      <!-- 1.0 -->
      <g transform="translate(29.257812 150.493902) scale(0.1 -0.1)">
       <use xlink:href="#DejaVuSans-31"/>
       <use xlink:href="#DejaVuSans-2e" transform="translate(63.623047 0)"/>
       <use xlink:href="#DejaVuSans-30" transform="translate(95.410156 0)"/>
      </g>
     </g>
    </g>
    <g id="ytick_7">
     <g id="line2d_16">
      <g>
       <use xlink:href="#mb031f588c8" x="52.160938" y="82.345423" style="stroke: #000000; stroke-width: 0.8"/>
      </g>
     </g>
     <g id="text_17">
      <!-- 1.5 -->
      <g transform="translate(29.257812 86.144642) scale(0.1 -0.1)">
       <use xlink:href="#DejaVuSans-31"/>
       <use xlink:href="#DejaVuSans-2e" transform="translate(63.623047 0)"/>
       <use xlink:href="#DejaVuSans-35" transform="translate(95.410156 0)"/>
      </g>
     </g>
    </g>
    <g id="text_18">
     <!-- x1 -->
     <g transform="translate(14.798438 282.51875) rotate(-90) scale(0.1 -0.1)">
      <use xlink:href="#DejaVuSans-78"/>
      <use xlink:href="#DejaVuSans-31" transform="translate(59.179688 0)"/>
     </g>
    </g>
   </g>
   <g id="line2d_17">
    <path d="M 535.962155 249.653499 
L 536.479184 254.858127 
L 536.879894 260.063935 
L 537.164286 265.268349 
L 537.33242 270.468788 
L 537.384414 275.662669 
L 537.320446 280.847411 
L 537.140847 286.020801 
L 536.84595 291.180338 
L 536.436077 296.323259 
L 535.91161 301.44683 
L 535.272986 306.548345 
L 534.520702 311.625124 
L 533.655314 316.674519 
L 532.677436 321.693907 
L 531.587737 326.680696 
L 530.386949 331.632321 
L 529.075857 336.546245 
L 527.65531 341.419959 
L 526.126209 346.250983 
L 524.489517 351.036867 
L 522.746255 355.775185 
L 520.897501 360.463544 
L 518.94439 365.099576 
L 516.888119 369.680943 
L 514.729939 374.205334 
L 512.471162 378.670468 
L 510.113157 383.07409 
L 507.65735 387.413976 
L 505.105227 391.687928 
L 502.458332 395.893777 
L 499.718265 400.029384 
L 496.886688 404.092635 
L 493.965318 408.081446 
L 490.95593 411.993763 
L 487.860345 415.827585 
L 484.679911 419.581914 
L 481.4163 423.255176 
L 478.071488 426.845318 
L 474.64747 430.350361 
L 471.146261 433.768401 
L 467.569895 437.097608 
L 463.920425 440.336231 
L 460.199923 443.482589 
L 456.410481 446.535081 
L 452.554208 449.492176 
L 448.633235 452.352424 
L 444.64971 455.114444 
L 440.605801 457.776935 
L 436.503696 460.338668 
L 432.345601 462.798492 
L 428.133741 465.155327 
L 423.870361 467.408173 
L 419.557725 469.556101 
L 415.198115 471.59826 
L 410.793835 473.533872 
L 406.347204 475.362236 
L 401.860565 477.082724 
L 397.336275 478.694785 
L 392.776715 480.197941 
L 388.184282 481.591793 
L 383.561394 482.876013 
L 378.910486 484.050349 
L 374.234014 485.114627 
L 369.534453 486.068744 
L 364.814296 486.912675 
L 355.322268 488.27025 
L 345.778263 489.188647 
L 336.202922 489.670363 
L 326.617192 489.719096 
L 317.042327 489.339747 
L 307.494969 488.536756 
L 297.989017 487.313242 
L 288.544839 485.674432 
L 279.182279 483.626204 
L 269.920592 481.175077 
L 260.778444 478.328204 
L 251.773912 475.093375 
L 242.924484 471.479016 
L 234.247057 467.494192 
L 225.757941 463.148602 
L 217.472855 458.452584 
L 209.406929 453.41711 
L 201.574704 448.053792 
L 193.990131 442.374875 
L 186.666573 436.393244 
L 179.616803 430.122418 
L 172.853004 423.576555 
L 166.386771 416.770447 
L 160.229108 409.719524 
L 154.390433 402.439855 
L 148.88057 394.948141 
L 143.708556 387.261216 
L 138.880153 379.388051 
L 134.403686 371.342465 
L 130.287928 363.141271 
L 126.540724 354.801323 
L 123.168991 346.339516 
L 120.178721 337.772783 
L 117.574978 329.118098 
L 115.361898 320.392476 
L 113.54269 311.612971 
L 112.119638 302.796677 
L 111.094097 293.96073 
L 110.466495 285.122303 
L 110.236333 276.298612 
L 110.402185 267.506912 
L 110.9617 258.764497 
L 111.911595 250.088703 
L 113.247666 241.496905 
L 114.964776 233.006518 
L 117.056865 224.634998 
L 119.516944 216.399841 
L 122.337108 208.318566 
L 125.511912 200.403999 
L 129.035514 192.670261 
L 132.89923 185.134748 
L 137.093834 177.814006 
L 141.60955 170.723731 
L 146.436057 163.878767 
L 151.56249 157.293108 
L 156.977434 150.979897 
L 162.668931 144.951426 
L 168.624476 139.219138 
L 174.831016 133.793622 
L 181.274955 128.68462 
L 187.942148 123.901021 
L 194.817904 119.450864 
L 201.886989 115.341338 
L 209.133618 111.578779 
L 216.541465 108.168676 
L 224.093653 105.115664 
L 231.772761 102.423529 
L 239.560823 100.095205 
L 247.441553 98.132531 
L 255.404155 96.536366 
L 263.431363 95.308109 
L 271.505566 94.448488 
L 279.609448 93.957464 
L 287.725984 93.834235 
L 295.838444 94.077233 
L 303.930388 94.684125 
L 311.985672 95.651812 
L 319.988444 96.976434 
L 327.923145 98.65336 
L 335.774508 100.6772 
L 343.527562 103.041794 
L 351.167626 105.74022 
L 358.680313 108.764791 
L 366.051529 112.107054 
L 373.267474 115.75779 
L 380.31464 119.707018 
L 387.179813 123.943989 
L 393.85007 128.457191 
L 400.312783 133.234346 
L 406.555617 138.262412 
L 412.56893 143.531678 
L 418.344671 149.035927 
L 423.871377 154.763181 
L 429.138271 160.701165 
L 434.135313 166.837396 
L 438.853203 173.159183 
L 443.283381 179.653622 
L 447.418026 186.307605 
L 451.250055 193.10781 
L 454.773127 200.040709 
L 457.98164 207.092564 
L 460.870728 214.249428 
L 463.436269 221.497144 
L 465.674878 228.821348 
L 467.583909 236.207463 
L 469.161456 243.640708 
L 470.406355 251.106088 
L 471.318176 258.588402 
L 471.897232 266.072238 
L 472.144577 273.541976 
L 472.061649 280.984344 
L 471.649401 288.388339 
L 470.909473 295.737575 
L 469.844179 303.015958 
L 468.456493 310.207877 
L 466.750046 317.298202 
L 464.729127 324.272287 
L 462.398683 331.115966 
L 459.764322 337.815556 
L 456.832308 344.357857 
L 453.609564 350.730148 
L 450.103673 356.920193 
L 446.322874 362.916238 
L 442.276066 368.70701 
L 437.972806 374.281718 
L 433.423309 379.630054 
L 428.638451 384.742191 
L 423.629762 389.608785 
L 418.409435 394.220974 
L 412.990317 398.570377 
L 407.385918 402.649097 
L 401.61032 406.449753 
L 395.672365 409.967795 
L 389.582631 413.198039 
L 383.35499 416.134511 
L 377.003291 418.772 
L 370.541358 421.106064 
L 363.98299 423.133023 
L 357.341959 424.849969 
L 350.632015 426.254757 
L 343.866881 427.346007 
L 337.060256 428.12311 
L 330.225814 428.586219 
L 323.377202 428.736255 
L 316.528044 428.574906 
L 309.691939 428.104625 
L 302.88246 427.328633 
L 296.113156 426.250915 
L 289.39755 424.876224 
L 282.74914 423.21008 
L 276.181399 421.258768 
L 269.707777 419.029339 
L 263.341696 416.529612 
L 257.093205 413.765309 
L 250.971201 410.740628 
L 244.988366 407.463004 
L 239.156846 403.940215 
L 233.48823 400.180374 
L 227.993553 396.191926 
L 222.683294 391.983646 
L 217.567379 387.564645 
L 212.655178 382.944365 
L 207.955506 378.132581 
L 203.476625 373.139399 
L 199.226239 367.97526 
L 195.2115 362.650936 
L 191.439004 357.177531 
L 187.914791 351.566483 
L 184.644349 345.829563 
L 181.632609 339.978873 
L 178.883948 334.026847 
L 176.402188 327.986254 
L 174.190594 321.870194 
L 172.251848 315.691905 
L 170.587543 309.45985 
L 169.200108 303.185504 
L 168.091889 296.882543 
L 167.264594 290.564423 
L 166.719292 284.244385 
L 166.45641 277.935455 
L 166.475736 271.650442 
L 166.776422 265.401939 
L 167.356976 259.202324 
L 168.21527 253.063756 
L 169.348533 246.998182 
L 170.753358 241.01733 
L 172.425697 235.132712 
L 174.360861 229.355626 
L 176.553525 223.697151 
L 178.997721 218.168153 
L 181.686843 212.779281 
L 184.613647 207.540965 
L 187.770248 202.463424 
L 191.148119 197.556656 
L 194.738099 192.830447 
L 198.530999 188.293916 
L 202.521835 183.952828 
L 206.702127 179.815452 
L 211.062184 175.890228 
L 215.592138 172.184946 
L 220.281946 168.706742 
L 225.121393 165.462105 
L 230.100085 162.45687 
L 235.207456 159.696224 
L 240.432763 157.1847 
L 245.765088 154.926182 
L 251.19334 152.923904 
L 256.70625 151.180447 
L 262.292376 149.697744 
L 267.940101 148.477075 
L 273.637631 147.519069 
L 279.372999 146.823705 
L 285.134062 146.390312 
L 290.908501 146.217567 
L 296.683825 146.303497 
L 302.44741 146.645521 
L 308.188962 147.242784 
L 308.188962 147.242784 
" clip-path="url(#pb7a9e8db19)" style="fill: none; stroke: #000000; stroke-opacity: 0.3; stroke-width: 7; stroke-linecap: square"/>
   </g>
   <g id="line2d_18">
    <path d="M 535.962155 249.653499 
L 536.481659 254.785908 
L 536.885741 259.928629 
L 537.174294 265.07908 
L 537.347325 270.234682 
L 537.404979 275.39286 
L 537.347399 280.55104 
L 537.174762 285.706655 
L 536.887258 290.857126 
L 536.485197 295.999893 
L 535.968994 301.132413 
L 535.339066 306.252142 
L 534.595856 311.356549 
L 533.739821 316.443091 
L 532.771525 321.509257 
L 531.69162 326.552564 
L 530.500759 331.57053 
L 529.199622 336.560683 
L 527.788896 341.520547 
L 526.269367 346.447686 
L 524.641896 351.339702 
L 522.907344 356.194196 
L 521.066599 361.008786 
L 519.120552 365.781083 
L 517.070184 370.50875 
L 514.916548 375.189497 
L 512.660694 379.82103 
L 510.3037 384.401079 
L 507.846643 388.927362 
L 505.29069 393.397665 
L 502.637074 397.809823 
L 499.88703 402.161673 
L 497.041816 406.451071 
L 494.102691 410.675868 
L 491.071005 414.833991 
L 487.948177 418.923422 
L 484.735626 422.942144 
L 481.434798 426.888168 
L 478.047135 430.759494 
L 474.574181 434.554208 
L 471.017548 438.270465 
L 467.378849 441.906415 
L 463.659727 445.460241 
L 459.861821 448.930115 
L 455.986878 452.314308 
L 452.036715 455.611164 
L 448.013153 458.819028 
L 443.918042 461.936274 
L 439.753227 464.96127 
L 435.520671 467.892495 
L 431.222405 470.728507 
L 426.860461 473.467865 
L 422.436902 476.109164 
L 417.953791 478.650986 
L 413.413304 481.092045 
L 408.817683 483.431136 
L 404.169172 485.667056 
L 399.47004 487.798644 
L 394.722563 489.824721 
L 389.929119 491.744259 
L 385.092144 493.556313 
L 380.214073 495.259941 
L 375.297365 496.854246 
L 370.344489 498.338314 
L 365.357994 499.711393 
L 360.340477 500.97282 
L 355.294531 502.121933 
L 350.222766 503.158117 
L 345.127807 504.080745 
L 340.012331 504.889356 
L 334.879042 505.583585 
L 329.730644 506.163065 
L 324.569845 506.627478 
L 319.399372 506.976495 
L 314.221972 507.209963 
L 309.040395 507.327818 
L 303.857391 507.329999 
L 298.675705 507.216493 
L 293.498103 506.987278 
L 288.327332 506.642509 
L 283.166121 506.182428 
L 278.017202 505.607281 
L 272.883287 504.91736 
L 267.767115 504.11295 
L 262.671363 503.19451 
L 257.598677 502.162585 
L 252.551702 501.017717 
L 247.533058 499.7605 
L 242.545388 498.391517 
L 237.591242 496.911522 
L 232.673125 495.321347 
L 227.793543 493.621822 
L 222.954968 491.813824 
L 218.159893 489.898225 
L 213.410695 487.876054 
L 208.709698 485.748413 
L 204.059227 483.516402 
L 199.461568 481.181164 
L 194.919026 478.743836 
L 190.433775 476.205706 
L 186.007934 473.568122 
L 181.643623 470.832432 
L 177.342919 468.000022 
L 173.107919 465.072276 
L 168.940582 462.050713 
L 164.842813 458.936905 
L 160.816516 455.732424 
L 156.86356 452.438877 
L 152.985821 449.05787 
L 149.185047 445.591129 
L 145.462933 442.040425 
L 141.821175 438.407533 
L 138.261429 434.694257 
L 134.785366 430.902398 
L 131.394529 427.033867 
L 128.090413 423.090615 
L 124.874514 419.074593 
L 121.748294 414.987778 
L 118.713223 410.832148 
L 115.770653 406.609776 
L 112.921892 402.322768 
L 110.168247 397.973231 
L 107.510993 393.563296 
L 104.951414 389.095094 
L 102.490678 384.570838 
L 100.12991 379.992771 
L 97.870238 375.363135 
L 95.71275 370.684194 
L 93.658552 365.95821 
L 91.708627 361.187519 
L 89.863916 356.374478 
L 88.125358 351.521445 
L 86.493855 346.630793 
L 84.970329 341.7049 
L 83.555565 336.746201 
L 82.250303 331.757145 
L 81.055285 326.740184 
L 79.971204 321.697782 
L 78.998785 316.632409 
L 78.138589 311.546573 
L 77.391134 306.442797 
L 76.756936 301.323601 
L 76.236456 296.191514 
L 75.83019 291.049074 
L 75.538448 285.89884 
L 75.36149 280.743377 
L 75.299574 275.58525 
L 75.352896 270.427023 
L 75.521689 265.271277 
L 75.805977 260.120588 
L 76.205726 254.977536 
L 76.720901 249.844696 
L 77.351401 244.724641 
L 78.097159 239.619959 
L 78.957878 234.533213 
L 79.933203 229.466958 
L 81.022775 224.423752 
L 82.226166 219.406136 
L 83.54298 214.416672 
L 84.972577 209.457872 
L 86.514259 204.532233 
L 88.167327 199.642253 
L 89.931007 194.790405 
L 91.804555 189.979189 
L 93.786983 185.211025 
L 95.877246 180.488314 
L 98.0743 175.813455 
L 100.377029 171.188817 
L 102.784336 166.616797 
L 105.2949 162.099685 
L 107.907344 157.639746 
L 110.620293 153.239246 
L 113.432307 148.900409 
L 116.34196 144.625493 
L 119.347622 140.41662 
L 122.44762 136.275887 
L 125.640284 132.205388 
L 128.923885 128.207172 
L 132.296703 124.283318 
L 135.756848 120.435753 
L 139.3024 116.666372 
L 142.931437 112.977069 
L 146.641996 109.369685 
L 150.432109 105.846094 
L 154.299687 102.407999 
L 158.242615 99.05707 
L 162.258778 95.794975 
L 166.346032 92.623326 
L 170.502225 89.543767 
L 174.725121 86.557757 
L 179.012471 83.666722 
L 183.362022 80.872088 
L 187.771505 78.175218 
L 192.238641 75.577509 
L 196.761104 73.080164 
L 201.336557 70.684354 
L 205.962664 68.391247 
L 210.637078 66.20195 
L 215.357447 64.117599 
L 220.121392 62.139136 
L 224.926532 60.267466 
L 229.770487 58.503495 
L 234.650872 56.848065 
L 239.565295 55.302049 
L 244.511358 53.866118 
L 249.486664 52.540913 
L 254.488812 51.327073 
L 259.515404 50.225173 
L 264.564036 49.235816 
L 269.632306 48.359407 
L 274.71781 47.596318 
L 279.818146 46.946921 
L 284.930913 46.411521 
L 290.053706 45.990456 
L 295.184123 45.683859 
L 300.319761 45.491835 
L 305.45822 45.414489 
L 310.597098 45.451857 
L 315.733991 45.604009 
L 320.866497 45.87081 
L 325.992215 46.252095 
L 331.108742 46.747704 
L 336.213677 47.357403 
L 341.304615 48.080995 
L 346.379153 48.918074 
L 351.434889 49.868209 
L 356.469421 50.930972 
L 361.48035 52.105861 
L 366.465267 53.392408 
L 371.421774 54.789942 
L 376.347477 56.297764 
L 381.239977 57.915175 
L 386.096885 59.641408 
L 390.915799 61.475727 
L 395.69434 63.417191 
L 400.430136 65.464837 
L 405.120812 67.6177 
L 409.764009 69.874747 
L 414.357346 72.234974 
L 418.898497 74.697178 
L 423.38514 77.260133 
L 427.814953 79.922612 
L 432.185641 82.683322 
L 436.49488 85.540996 
L 440.740433 88.494174 
L 444.920075 91.541377 
L 449.03158 94.681125 
L 453.072763 97.911874 
L 457.041399 101.232102 
L 460.935398 104.640107 
L 464.752683 108.134168 
L 468.491175 111.712567 
L 472.148855 115.373522 
L 475.723655 119.115274 
L 479.213687 122.935895 
L 482.617078 126.833446 
L 485.931958 130.805985 
L 489.156528 134.85152 
L 492.288935 138.968069 
L 495.327551 143.153509 
L 498.270765 147.405706 
L 501.116964 151.722523 
L 503.864626 156.101783 
L 506.512168 160.541311 
L 509.058268 165.038819 
L 511.501621 169.592008 
L 513.840919 174.198582 
L 516.074954 178.856207 
L 518.202463 183.562552 
L 520.222458 188.315197 
L 522.133967 193.111718 
L 523.936021 197.949691 
L 525.627751 202.826665 
L 527.208237 207.740188 
L 528.676839 212.687749 
L 530.032934 217.666835 
L 531.275897 222.674932 
L 532.405205 227.709513 
L 533.420292 232.768042 
L 534.320857 237.847956 
L 535.106617 242.946691 
L 535.777287 248.061683 
L 536.332678 253.190366 
L 536.772564 258.330158 
L 537.096964 263.478482 
L 537.305912 268.632761 
L 537.39944 273.790416 
L 537.377667 278.948877 
L 537.240681 284.105555 
L 536.98879 289.257893 
L 536.622312 294.403332 
L 536.141564 299.539313 
L 535.546941 304.663296 
L 534.838811 309.772718 
L 534.017733 314.865069 
L 533.084277 319.937842 
L 532.039009 324.988527 
L 530.882564 330.01464 
L 529.615555 335.013675 
L 528.238762 339.983197 
L 526.752973 344.920773 
L 525.158972 349.823971 
L 523.457608 354.690389 
L 521.649705 359.517602 
L 519.736241 364.303273 
L 517.718198 369.045068 
L 515.596558 373.740653 
L 513.37236 378.387733 
L 511.04662 382.983983 
L 508.620501 387.527189 
L 506.095167 392.015136 
L 503.471785 396.445609 
L 500.751579 400.816439 
L 497.935744 405.125427 
L 495.025626 409.370496 
L 492.022573 413.549572 
L 488.927935 417.660581 
L 485.74312 421.701501 
L 482.469507 425.670275 
L 479.108632 429.564989 
L 475.662034 433.38373 
L 472.131253 437.124583 
L 468.517891 440.785696 
L 464.82352 444.365176 
L 461.049879 447.861291 
L 457.198708 451.272311 
L 453.271748 454.596505 
L 449.270809 457.832211 
L 445.197667 460.977722 
L 441.054274 464.031513 
L 436.842582 466.99206 
L 432.564542 469.857837 
L 428.222177 472.627395 
L 423.817479 475.29924 
L 419.352615 477.872076 
L 414.829748 480.344607 
L 410.251045 482.715541 
L 405.618736 484.98366 
L 400.935032 487.14771 
L 396.202301 489.206647 
L 391.422909 491.159428 
L 386.599224 493.005014 
L 381.733666 494.742445 
L 376.828654 496.370728 
L 371.886726 497.889093 
L 366.910423 499.296772 
L 361.902287 500.592999 
L 356.864898 501.777091 
L 351.800845 502.848339 
L 346.712795 503.806264 
L 341.60342 504.650386 
L 336.475388 505.380234 
L 331.331393 505.995416 
L 326.174144 506.495523 
L 321.00638 506.880376 
L 315.830842 507.149801 
L 310.65027 507.303625 
L 305.46741 507.341761 
L 300.285027 507.264108 
L 295.105866 507.070795 
L 289.932673 506.761951 
L 284.768192 506.337714 
L 279.615155 505.798298 
L 274.476313 505.143915 
L 269.354351 504.374997 
L 264.251953 503.491976 
L 259.1718 502.495294 
L 254.116546 501.385463 
L 249.088861 500.163002 
L 244.091308 498.828635 
L 239.126451 497.383089 
L 234.196847 495.827097 
L 229.305017 494.161459 
L 224.45349 492.386988 
L 219.644662 490.504685 
L 214.880929 488.515551 
L 210.164677 486.420598 
L 205.498254 484.220896 
L 200.884003 481.917532 
L 196.324122 479.511764 
L 191.820808 477.004848 
L 187.376249 474.398053 
L 182.992591 471.692698 
L 178.671967 468.890121 
L 174.416362 465.991814 
L 170.227761 462.999267 
L 166.108141 459.913981 
L 162.059434 456.7375 
L 158.083555 453.471392 
L 154.182278 450.117357 
L 150.357375 446.677095 
L 146.610609 443.152316 
L 142.943704 439.544766 
L 139.358362 435.856216 
L 135.856151 432.088554 
L 132.438642 428.243665 
L 129.107393 424.323443 
L 125.863929 420.329817 
L 122.709748 416.264738 
L 119.646229 412.130254 
L 116.674749 407.928419 
L 113.796675 403.661288 
L 111.013343 399.330948 
L 108.326061 394.939509 
L 105.736026 390.489163 
L 103.244429 385.982105 
L 100.852456 381.420535 
L 98.561258 376.806677 
L 96.371964 372.142777 
L 94.285585 367.431152 
L 92.303131 362.674118 
L 90.425602 357.873997 
L 88.653969 353.033132 
L 86.989171 348.153886 
L 85.432029 343.238676 
L 83.983359 338.289923 
L 82.643965 333.310048 
L 81.414622 328.30149 
L 80.296071 323.266708 
L 79.288914 318.2082 
L 78.393756 313.128463 
L 77.611181 308.029999 
L 76.941749 302.91532 
L 76.385968 297.786955 
L 75.944199 292.647457 
L 75.6168 287.499377 
L 75.40411 282.345267 
L 75.306434 277.18769 
L 75.324022 272.029217 
L 75.456952 266.872424 
L 75.705306 261.719889 
L 76.069137 256.574187 
L 76.548467 251.437896 
L 77.143246 246.313602 
L 77.853242 241.203872 
L 78.678222 236.111274 
L 79.617924 231.038372 
L 80.672055 225.987731 
L 81.840234 220.961911 
L 83.121892 215.963436 
L 84.516459 210.99483 
L 86.023337 206.058607 
L 87.641891 201.157282 
L 89.371392 196.293353 
L 91.210925 191.469259 
L 93.159573 186.687443 
L 95.216391 181.950333 
L 97.380397 177.260355 
L 99.650512 172.619902 
L 102.025483 168.031296 
L 104.504053 163.496855 
L 107.084942 159.018885 
L 109.766832 154.599683 
L 112.548311 150.241502 
L 115.427813 145.946506 
L 118.403772 141.716857 
L 121.474598 137.554699 
L 124.63867 133.462165 
L 127.894277 129.441334 
L 131.239587 125.494178 
L 134.672763 121.622669 
L 138.191953 117.828759 
L 141.795275 114.114387 
L 145.480774 110.481424 
L 149.2464 106.931625 
L 153.090106 103.466746 
L 157.009827 100.088518 
L 161.003477 96.798661 
L 165.068915 93.598814 
L 169.203933 90.490494 
L 173.406325 87.475221 
L 177.673877 84.554486 
L 182.004354 81.729767 
L 186.395486 79.002455 
L 190.844963 76.373815 
L 195.350475 73.845116 
L 199.909708 71.417593 
L 204.520335 69.092473 
L 209.180006 66.870885 
L 213.886354 64.753835 
L 218.63701 62.742327 
L 223.429604 60.837339 
L 228.26176 59.039833 
L 233.131088 57.350672 
L 238.035193 55.770596 
L 242.971682 54.300345 
L 247.93816 52.940628 
L 252.932229 51.692144 
L 257.951485 50.555485 
L 262.993527 49.531124 
L 268.055953 48.619534 
L 273.136361 47.821157 
L 278.232348 47.136422 
L 283.34151 46.565654 
L 288.461445 46.109056 
L 293.58975 45.766834 
L 298.724024 45.539181 
L 303.861865 45.426227 
L 309.000869 45.427999 
L 314.138635 45.544487 
L 314.138635 45.544487 
" clip-path="url(#pb7a9e8db19)" style="fill: none; stroke-dasharray: 22.4,5.6,3.5,5.6; stroke-dashoffset: 0; stroke: #0000ff; stroke-opacity: 0.8; stroke-width: 3.5"/>
   </g>
   <g id="patch_3">
    <path d="M 52.160938 530.438125 
L 52.160938 22.318125 
" style="fill: none; stroke: #000000; stroke-width: 0.8; stroke-linejoin: miter; stroke-linecap: square"/>
   </g>
   <g id="patch_4">
    <path d="M 561.210937 530.438125 
L 561.210937 22.318125 
" style="fill: none; stroke: #000000; stroke-width: 0.8; stroke-linejoin: miter; stroke-linecap: square"/>
   </g>
   <g id="patch_5">
    <path d="M 52.160938 530.438125 
L 561.210937 530.438125 
" style="fill: none; stroke: #000000; stroke-width: 0.8; stroke-linejoin: miter; stroke-linecap: square"/>
   </g>
   <g id="patch_6">
    <path d="M 52.160938 22.318125 
L 561.210937 22.318125 
" style="fill: none; stroke: #000000; stroke-width: 0.8; stroke-linejoin: miter; stroke-linecap: square"/>
   </g>
   <g id="line2d_19">
    <path d="M 535.962155 249.653499 
L 536.708168 254.711009 
L 537.294589 259.780272 
L 537.718306 264.856834 
L 537.977562 269.935837 
L 538.072301 275.012213 
L 538.00247 280.080896 
L 537.768393 285.137035 
L 537.370713 290.175257 
L 536.811532 295.190801 
L 536.094202 300.179787 
L 535.222073 305.138336 
L 534.19868 310.062833 
L 533.028056 314.949771 
L 531.715015 319.79664 
L 530.264853 324.601786 
L 528.682868 329.363551 
L 526.974352 334.08037 
L 525.144945 338.751099 
L 523.200335 343.374998 
L 521.146109 347.951489 
L 516.731043 356.95986 
L 511.943878 365.771808 
L 506.825547 374.381442 
L 501.414644 382.781233 
L 495.746867 390.961616 
L 489.853317 398.910379 
L 483.76323 406.614362 
L 477.50117 414.059286 
L 471.08926 421.230745 
L 464.54697 428.11461 
L 457.89043 434.697861 
L 451.134517 440.968051 
L 444.291452 446.914379 
L 437.372253 452.526923 
L 430.3867 457.796772 
L 423.343228 462.716197 
L 416.249796 467.277904 
L 409.113364 471.475549 
L 401.940437 475.303241 
L 394.737004 478.755631 
L 387.508336 481.828262 
L 380.25942 484.517048 
L 372.994397 486.819278 
L 365.716929 488.733094 
L 358.430071 490.257822 
L 351.135981 491.39472 
L 343.836436 492.145888 
L 336.532268 492.515739 
L 329.223854 492.509855 
L 321.911033 492.135264 
L 314.59311 491.400625 
L 307.269175 490.31525 
L 299.938116 488.889485 
L 292.598832 487.133951 
L 285.250349 485.059394 
L 277.892233 482.676017 
L 270.524302 479.993711 
L 263.147554 477.020695 
L 255.763748 473.764112 
L 248.375779 470.229448 
L 240.988526 466.419599 
L 233.607738 462.336279 
L 226.242117 457.978071 
L 218.902015 453.342117 
L 211.600161 448.423708 
L 204.352826 443.216666 
L 197.177853 437.714205 
L 190.097462 431.910039 
L 183.135985 425.798835 
L 176.320628 419.377232 
L 169.681638 412.646332 
L 163.250585 405.609437 
L 157.060783 398.277032 
L 151.145764 390.663256 
L 145.538816 382.787399 
L 140.271109 374.674231 
L 135.37267 366.350861 
L 130.868831 357.847802 
L 126.78232 349.19631 
L 124.901706 344.824842 
L 123.131893 340.42796 
L 121.474595 336.009443 
L 119.931324 331.572936 
L 118.503563 327.122214 
L 117.19214 322.660566 
L 115.997694 318.191131 
L 114.920866 313.717047 
L 113.962161 309.241318 
L 113.122019 304.76696 
L 112.400476 300.296556 
L 111.797465 295.832567 
L 111.312914 291.377452 
L 110.946674 286.933582 
L 110.698564 282.503285 
L 110.56816 278.08863 
L 110.55498 273.691618 
L 110.658538 269.314254 
L 110.878279 264.958508 
L 111.213685 260.626282 
L 111.664001 256.319415 
L 112.22841 252.039729 
L 112.906092 247.789048 
L 113.696132 243.569209 
L 114.597707 239.381989 
L 115.609645 235.229248 
L 116.730682 231.112868 
L 117.959556 227.034729 
L 119.294864 222.996742 
L 120.735312 219.000818 
L 122.27913 215.048971 
L 125.669339 207.285666 
L 129.449876 199.72321 
L 133.602805 192.378277 
L 138.10757 185.267171 
L 142.942369 178.405966 
L 148.083043 171.808801 
L 153.504657 165.488597 
L 159.181406 159.456044 
L 165.087441 153.718771 
L 171.197 148.282835 
L 177.48572 143.150706 
L 183.930151 138.323455 
L 190.508518 133.80024 
L 197.201356 129.578999 
L 203.990377 125.657203 
L 210.860314 122.032459 
L 217.797212 118.702756 
L 224.789172 115.666958 
L 231.826366 112.925311 
L 238.899956 110.47881 
L 246.003125 108.330136 
L 253.1298 106.482614 
L 260.274986 104.940412 
L 267.434524 103.708118 
L 274.604622 102.790442 
L 281.781927 102.19156 
L 288.963147 101.915195 
L 296.144951 101.964091 
L 303.323694 102.339553 
L 310.495532 103.042086 
L 317.655842 104.070138 
L 324.799605 105.421282 
L 331.921072 107.091713 
L 339.013637 109.076445 
L 346.070239 111.369927 
L 353.082708 113.965933 
L 360.042403 116.858134 
L 366.939896 120.040273 
L 373.764946 123.506555 
L 380.506894 127.251525 
L 387.154059 131.27073 
L 393.694312 135.560162 
L 400.114718 140.116526 
L 406.401414 144.936957 
L 412.540018 150.018805 
L 418.514747 155.359033 
L 424.309164 160.954188 
L 429.90564 166.799759 
L 435.285276 172.88948 
L 440.428431 179.216008 
L 445.313961 185.76881 
L 449.920174 192.53585 
L 454.224561 199.502399 
L 458.20433 206.651011 
L 461.836567 213.962716 
L 465.099331 221.415669 
L 467.971452 228.986994 
L 470.433593 236.6523 
L 472.469205 244.386324 
L 474.063507 252.16339 
L 474.692068 256.060039 
L 475.206808 259.957834 
L 475.607031 263.853645 
L 475.891843 267.744228 
L 476.061388 271.626594 
L 476.115854 275.497764 
L 476.055428 279.354759 
L 475.880664 283.194717 
L 475.592015 287.014673 
L 475.190824 290.812016 
L 474.678467 294.584146 
L 474.05632 298.328463 
L 472.489253 305.723742 
L 470.505112 312.979133 
L 468.121905 320.077602 
L 465.358992 327.003108 
L 462.237417 333.741858 
L 458.778621 340.281041 
L 455.004388 346.609611 
L 450.936213 352.718224 
L 446.595317 358.598583 
L 442.001783 364.244509 
L 437.175096 369.650679 
L 432.133592 374.81322 
L 426.894424 379.72938 
L 421.474017 384.39706 
L 415.887325 388.814981 
L 410.148709 392.982056 
L 404.271518 396.897331 
L 398.268273 400.559613 
L 392.150997 403.967477 
L 385.930845 407.118665 
L 379.618649 410.010497 
L 373.224677 412.639478 
L 366.758753 415.001415 
L 360.230423 417.091673 
L 353.648715 418.905091 
L 347.022454 420.436392 
L 340.36008 421.680341 
L 333.66972 422.632052 
L 326.959297 423.28697 
L 320.236389 423.641649 
L 313.508452 423.693188 
L 306.782776 423.439896 
L 300.066589 422.881173 
L 293.36711 422.017194 
L 286.691759 420.849513 
L 280.048091 419.38019 
L 273.444088 417.612159 
L 266.888234 415.548876 
L 260.389422 413.194094 
L 253.957611 410.551846 
L 247.603241 407.626215 
L 241.337893 404.421307 
L 235.174158 400.941247 
L 229.1254 397.190148 
L 223.206503 393.172432 
L 217.432954 388.892706 
L 211.821459 384.356316 
L 206.389525 379.569502 
L 201.155244 374.539297 
L 196.137306 369.274804 
L 191.354539 363.786057 
L 186.825678 358.085349 
L 182.569015 352.186754 
L 178.602381 346.10579 
L 174.942073 339.86032 
L 171.603657 333.469075 
L 168.600728 326.952317 
L 165.945205 320.331067 
L 163.64758 313.626844 
L 161.71559 306.861339 
L 160.15587 300.05619 
L 158.972537 293.232556 
L 158.167965 286.411015 
L 157.743075 279.611611 
L 157.696376 272.853201 
L 158.025464 266.154158 
L 158.725884 259.531679 
L 159.791844 253.002111 
L 161.216403 246.581087 
L 162.99076 240.282922 
L 165.105407 234.121418 
L 167.549267 228.109085 
L 170.310296 222.257499 
L 173.375613 216.577389 
L 176.731182 211.077923 
L 180.362557 205.767641 
L 184.25456 200.653572 
L 188.391702 195.741764 
L 192.758278 191.037389 
L 197.338577 186.544383 
L 202.11694 182.266231 
L 207.078079 178.205662 
L 212.207064 174.365112 
L 217.489365 170.746837 
L 222.911255 167.353225 
L 228.459344 164.186782 
L 234.121123 161.25054 
L 239.884635 158.547965 
L 245.738467 156.082972 
L 251.672012 153.860173 
L 257.674965 151.884449 
L 263.737681 150.161104 
L 269.850852 148.695561 
L 276.005474 147.493269 
L 282.192875 146.559291 
L 288.404487 145.898485 
L 294.631858 145.514798 
L 300.86655 145.411519 
L 307.100056 145.590967 
L 307.100056 145.590967 
" clip-path="url(#pb7a9e8db19)" style="fill: none; stroke-dasharray: 3.5,5.775; stroke-dashoffset: 0; stroke: #008000; stroke-opacity: 0.8; stroke-width: 3.5"/>
   </g>
   <g id="text_19">
    <!-- Phase Portrait (x0 vs x1) -->
    <g transform="translate(232.994687 16.318125) scale(0.12 -0.12)">
     <defs>
      <path id="DejaVuSans-50" d="M 1259 4147 
L 1259 2394 
L 2053 2394 
Q 2494 2394 2734 2622 
Q 2975 2850 2975 3272 
Q 2975 3691 2734 3919 
Q 2494 4147 2053 4147 
L 1259 4147 
z
M 628 4666 
L 2053 4666 
Q 2838 4666 3239 4311 
Q 3641 3956 3641 3272 
Q 3641 2581 3239 2228 
Q 2838 1875 2053 1875 
L 1259 1875 
L 1259 0 
L 628 0 
L 628 4666 
z
" transform="scale(0.015625)"/>
      <path id="DejaVuSans-68" d="M 3513 2113 
L 3513 0 
L 2938 0 
L 2938 2094 
Q 2938 2591 2744 2837 
Q 2550 3084 2163 3084 
Q 1697 3084 1428 2787 
Q 1159 2491 1159 1978 
L 1159 0 
L 581 0 
L 581 4863 
L 1159 4863 
L 1159 2956 
Q 1366 3272 1645 3428 
Q 1925 3584 2291 3584 
Q 2894 3584 3203 3211 
Q 3513 2838 3513 2113 
z
" transform="scale(0.015625)"/>
      <path id="DejaVuSans-61" d="M 2194 1759 
Q 1497 1759 1228 1600 
Q 959 1441 959 1056 
Q 959 750 1161 570 
Q 1363 391 1709 391 
Q 2188 391 2477 730 
Q 2766 1069 2766 1631 
L 2766 1759 
L 2194 1759 
z
M 3341 1997 
L 3341 0 
L 2766 0 
L 2766 531 
Q 2569 213 2275 61 
Q 1981 -91 1556 -91 
Q 1019 -91 701 211 
Q 384 513 384 1019 
Q 384 1609 779 1909 
Q 1175 2209 1959 2209 
L 2766 2209 
L 2766 2266 
Q 2766 2663 2505 2880 
Q 2244 3097 1772 3097 
Q 1472 3097 1187 3025 
Q 903 2953 641 2809 
L 641 3341 
Q 956 3463 1253 3523 
Q 1550 3584 1831 3584 
Q 2591 3584 2966 3190 
Q 3341 2797 3341 1997 
z
" transform="scale(0.015625)"/>
      <path id="DejaVuSans-73" d="M 2834 3397 
L 2834 2853 
Q 2591 2978 2328 3040 
Q 2066 3103 1784 3103 
Q 1356 3103 1142 2972 
Q 928 2841 928 2578 
Q 928 2378 1081 2264 
Q 1234 2150 1697 2047 
L 1894 2003 
Q 2506 1872 2764 1633 
Q 3022 1394 3022 966 
Q 3022 478 2636 193 
Q 2250 -91 1575 -91 
Q 1294 -91 989 -36 
Q 684 19 347 128 
L 347 722 
Q 666 556 975 473 
Q 1284 391 1588 391 
Q 1994 391 2212 530 
Q 2431 669 2431 922 
Q 2431 1156 2273 1281 
Q 2116 1406 1581 1522 
L 1381 1569 
Q 847 1681 609 1914 
Q 372 2147 372 2553 
Q 372 3047 722 3315 
Q 1072 3584 1716 3584 
Q 2034 3584 2315 3537 
Q 2597 3491 2834 3397 
z
" transform="scale(0.015625)"/>
      <path id="DejaVuSans-65" d="M 3597 1894 
L 3597 1613 
L 953 1613 
Q 991 1019 1311 708 
Q 1631 397 2203 397 
Q 2534 397 2845 478 
Q 3156 559 3463 722 
L 3463 178 
Q 3153 47 2828 -22 
Q 2503 -91 2169 -91 
Q 1331 -91 842 396 
Q 353 884 353 1716 
Q 353 2575 817 3079 
Q 1281 3584 2069 3584 
Q 2775 3584 3186 3129 
Q 3597 2675 3597 1894 
z
M 3022 2063 
Q 3016 2534 2758 2815 
Q 2500 3097 2075 3097 
Q 1594 3097 1305 2825 
Q 1016 2553 972 2059 
L 3022 2063 
z
" transform="scale(0.015625)"/>
      <path id="DejaVuSans-20" transform="scale(0.015625)"/>
      <path id="DejaVuSans-6f" d="M 1959 3097 
Q 1497 3097 1228 2736 
Q 959 2375 959 1747 
Q 959 1119 1226 758 
Q 1494 397 1959 397 
Q 2419 397 2687 759 
Q 2956 1122 2956 1747 
Q 2956 2369 2687 2733 
Q 2419 3097 1959 3097 
z
M 1959 3584 
Q 2709 3584 3137 3096 
Q 3566 2609 3566 1747 
Q 3566 888 3137 398 
Q 2709 -91 1959 -91 
Q 1206 -91 779 398 
Q 353 888 353 1747 
Q 353 2609 779 3096 
Q 1206 3584 1959 3584 
z
" transform="scale(0.015625)"/>
      <path id="DejaVuSans-72" d="M 2631 2963 
Q 2534 3019 2420 3045 
Q 2306 3072 2169 3072 
Q 1681 3072 1420 2755 
Q 1159 2438 1159 1844 
L 1159 0 
L 581 0 
L 581 3500 
L 1159 3500 
L 1159 2956 
Q 1341 3275 1631 3429 
Q 1922 3584 2338 3584 
Q 2397 3584 2469 3576 
Q 2541 3569 2628 3553 
L 2631 2963 
z
" transform="scale(0.015625)"/>
      <path id="DejaVuSans-74" d="M 1172 4494 
L 1172 3500 
L 2356 3500 
L 2356 3053 
L 1172 3053 
L 1172 1153 
Q 1172 725 1289 603 
Q 1406 481 1766 481 
L 2356 481 
L 2356 0 
L 1766 0 
Q 1100 0 847 248 
Q 594 497 594 1153 
L 594 3053 
L 172 3053 
L 172 3500 
L 594 3500 
L 594 4494 
L 1172 4494 
z
" transform="scale(0.015625)"/>
      <path id="DejaVuSans-69" d="M 603 3500 
L 1178 3500 
L 1178 0 
L 603 0 
L 603 3500 
z
M 603 4863 
L 1178 4863 
L 1178 4134 
L 603 4134 
L 603 4863 
z
" transform="scale(0.015625)"/>
      <path id="DejaVuSans-28" d="M 1984 4856 
Q 1566 4138 1362 3434 
Q 1159 2731 1159 2009 
Q 1159 1288 1364 580 
Q 1569 -128 1984 -844 
L 1484 -844 
Q 1016 -109 783 600 
Q 550 1309 550 2009 
Q 550 2706 781 3412 
Q 1013 4119 1484 4856 
L 1984 4856 
z
" transform="scale(0.015625)"/>
      <path id="DejaVuSans-76" d="M 191 3500 
L 800 3500 
L 1894 563 
L 2988 3500 
L 3597 3500 
L 2284 0 
L 1503 0 
L 191 3500 
z
" transform="scale(0.015625)"/>
      <path id="DejaVuSans-29" d="M 513 4856 
L 1013 4856 
Q 1481 4119 1714 3412 
Q 1947 2706 1947 2009 
Q 1947 1309 1714 600 
Q 1481 -109 1013 -844 
L 513 -844 
Q 928 -128 1133 580 
Q 1338 1288 1338 2009 
Q 1338 2731 1133 3434 
Q 928 4138 513 4856 
z
" transform="scale(0.015625)"/>
     </defs>
     <use xlink:href="#DejaVuSans-50"/>
     <use xlink:href="#DejaVuSans-68" transform="translate(60.302734 0)"/>
     <use xlink:href="#DejaVuSans-61" transform="translate(123.681641 0)"/>
     <use xlink:href="#DejaVuSans-73" transform="translate(184.960938 0)"/>
     <use xlink:href="#DejaVuSans-65" transform="translate(237.060547 0)"/>
     <use xlink:href="#DejaVuSans-20" transform="translate(298.583984 0)"/>
     <use xlink:href="#DejaVuSans-50" transform="translate(330.371094 0)"/>
     <use xlink:href="#DejaVuSans-6f" transform="translate(387.048828 0)"/>
     <use xlink:href="#DejaVuSans-72" transform="translate(448.230469 0)"/>
     <use xlink:href="#DejaVuSans-74" transform="translate(489.34375 0)"/>
     <use xlink:href="#DejaVuSans-72" transform="translate(528.552734 0)"/>
     <use xlink:href="#DejaVuSans-61" transform="translate(569.666016 0)"/>
     <use xlink:href="#DejaVuSans-69" transform="translate(630.945312 0)"/>
     <use xlink:href="#DejaVuSans-74" transform="translate(658.728516 0)"/>
     <use xlink:href="#DejaVuSans-20" transform="translate(697.9375 0)"/>
     <use xlink:href="#DejaVuSans-28" transform="translate(729.724609 0)"/>
     <use xlink:href="#DejaVuSans-78" transform="translate(768.738281 0)"/>
     <use xlink:href="#DejaVuSans-30" transform="translate(827.917969 0)"/>
     <use xlink:href="#DejaVuSans-20" transform="translate(891.541016 0)"/>
     <use xlink:href="#DejaVuSans-76" transform="translate(923.328125 0)"/>
     <use xlink:href="#DejaVuSans-73" transform="translate(982.507812 0)"/>
     <use xlink:href="#DejaVuSans-20" transform="translate(1034.607422 0)"/>
     <use xlink:href="#DejaVuSans-78" transform="translate(1066.394531 0)"/>
     <use xlink:href="#DejaVuSans-31" transform="translate(1125.574219 0)"/>
     <use xlink:href="#DejaVuSans-29" transform="translate(1189.197266 0)"/>
    </g>
   </g>
   <g id="line2d_20">
    <path d="M 535.962155 249.653499 
L 536.478348 254.859275 
L 536.878443 260.063212 
L 537.162448 265.262703 
L 537.330484 270.455161 
L 537.382803 275.638021 
L 537.319655 280.808719 
L 537.141325 285.964703 
L 536.848109 291.103411 
L 536.440424 296.222318 
L 535.918805 301.318932 
L 535.283782 306.390763 
L 534.535923 311.435336 
L 533.675802 316.450166 
L 532.704118 321.432822 
L 531.621675 326.380913 
L 530.429277 331.292055 
L 529.127761 336.163877 
L 527.717972 340.994004 
L 526.200875 345.780124 
L 524.577534 350.519981 
L 522.849012 355.211319 
L 521.016401 359.851906 
L 519.080805 364.439499 
L 517.04344 368.971938 
L 514.905612 373.447124 
L 512.668626 377.862959 
L 510.333816 382.217372 
L 507.902526 386.508283 
L 505.376204 390.733704 
L 502.756381 394.891721 
L 500.044585 398.980417 
L 497.242372 402.997906 
L 494.351306 406.942294 
L 491.373048 410.811792 
L 488.30933 414.604687 
L 485.161883 418.319268 
L 481.932463 421.953853 
L 478.622832 425.506757 
L 475.234841 428.976408 
L 471.770399 432.361317 
L 468.231416 435.659992 
L 464.619824 438.87098 
L 460.937559 441.992819 
L 457.186635 445.024173 
L 453.369116 447.96379 
L 449.487063 450.810419 
L 445.542557 453.562845 
L 441.537683 456.219848 
L 437.474593 458.78034 
L 433.355475 461.243322 
L 429.182516 463.607792 
L 424.957918 465.872789 
L 420.683889 468.037346 
L 416.362687 470.100635 
L 411.996597 472.061917 
L 403.138902 475.675538 
L 394.129212 478.872693 
L 384.986246 481.649105 
L 375.72885 484.001146 
L 366.37602 485.926002 
L 356.946869 487.421999 
L 347.460558 488.487925 
L 337.936278 489.123821 
L 328.393204 489.330371 
L 318.850477 489.109069 
L 309.327104 488.462518 
L 299.842037 487.393771 
L 290.413986 485.90709 
L 281.061501 484.00733 
L 271.802923 481.700126 
L 262.656222 478.992129 
L 253.639215 475.890413 
L 244.769213 472.403146 
L 236.06325 468.539028 
L 227.53798 464.307457 
L 219.209476 459.718715 
L 211.093565 454.783451 
L 203.205347 449.513252 
L 195.559532 443.920145 
L 188.170304 438.016742 
L 181.051093 431.816363 
L 174.215009 425.332632 
L 167.674238 418.579904 
L 161.440503 411.572861 
L 155.524875 404.326635 
L 149.937541 396.856864 
L 144.688307 389.179403 
L 139.785919 381.310603 
L 135.2386 373.267024 
L 131.053836 365.065512 
L 127.238144 356.723197 
L 123.797623 348.257338 
L 120.737221 339.685428 
L 118.061342 331.025048 
L 115.773599 322.293888 
L 113.876604 313.509696 
L 112.372529 304.69025 
L 111.262375 295.8533 
L 110.546595 287.016558 
L 110.224838 278.197668 
L 110.295774 269.414109 
L 110.757635 260.68329 
L 111.607512 252.022338 
L 112.841975 243.448224 
L 114.456821 234.977674 
L 116.446934 226.627047 
L 118.80678 218.412536 
L 121.529774 210.349813 
L 124.608864 202.454292 
L 128.03629 194.740979 
L 131.803485 187.224333 
L 135.901511 179.918561 
L 140.320518 172.837144 
L 145.050259 165.993215 
L 150.079879 159.399359 
L 155.397866 153.06747 
L 160.992394 147.009115 
L 166.850907 141.234969 
L 172.960539 135.755293 
L 179.307952 130.579687 
L 185.879317 125.716951 
L 192.660571 121.175505 
L 199.637131 116.962758 
L 206.794208 113.085658 
L 214.116693 109.550415 
L 221.589173 106.362378 
L 229.196092 103.526474 
L 236.921608 101.046557 
L 244.749777 98.925998 
L 252.664503 97.167389 
L 260.649587 95.77244 
L 268.688778 94.74243 
L 276.765783 94.077544 
L 284.864316 93.777494 
L 292.96811 93.84121 
L 301.060993 94.266766 
L 309.126836 95.051806 
L 317.149707 96.192928 
L 325.113785 97.686283 
L 333.003442 99.527272 
L 340.803324 101.710514 
L 348.498216 104.230218 
L 356.073324 107.079644 
L 363.51406 110.251652 
L 370.806187 113.738425 
L 377.935907 117.531468 
L 384.889648 121.62192 
L 391.654457 126.000113 
L 398.217664 130.656041 
L 404.567098 135.57913 
L 410.691156 140.758258 
L 416.57854 146.182004 
L 422.218732 151.838312 
L 427.601563 157.714869 
L 432.717476 163.79893 
L 437.557585 170.077352 
L 442.113371 176.536775 
L 446.377211 183.163405 
L 450.34188 189.94328 
L 454.000846 196.862161 
L 457.348316 203.905577 
L 460.378902 211.058932 
L 463.088188 218.307411 
L 465.472178 225.636131 
L 467.52762 233.030092 
L 469.252024 240.474239 
L 470.64333 247.953486 
L 471.700471 255.452753 
L 472.422803 262.956983 
L 472.810438 270.451177 
L 472.864235 277.920448 
L 472.585489 285.349973 
L 471.976454 292.725155 
L 471.039796 300.031512 
L 469.778906 307.25478 
L 468.197874 314.380969 
L 466.301207 321.396245 
L 464.094297 328.2872 
L 461.582909 335.040625 
L 458.77347 341.64368 
L 455.673029 348.083937 
L 452.289007 354.349211 
L 448.629594 360.427914 
L 444.703303 366.30873 
L 440.51921 371.980845 
L 436.086907 377.433967 
L 431.416297 382.65812 
L 426.517903 387.644068 
L 421.402499 392.382901 
L 416.081306 396.866316 
L 410.565927 401.086612 
L 404.868203 405.036467 
L 399.000418 408.709394 
L 392.975025 412.099271 
L 386.804788 415.200658 
L 380.502704 418.008768 
L 374.081925 420.519228 
L 367.555848 422.72856 
L 360.93796 424.633662 
L 354.241897 426.232165 
L 347.481383 427.522358 
L 340.670202 428.50297 
L 333.822179 429.17363 
L 326.951147 429.534342 
L 320.070924 429.585853 
L 313.195268 429.329542 
L 306.3379 428.767228 
L 299.512386 427.901599 
L 292.732217 426.735691 
L 286.010703 425.273255 
L 279.360965 423.518626 
L 272.795983 421.476553 
L 266.328401 419.152575 
L 259.970716 416.552545 
L 253.735085 413.682964 
L 247.633358 410.550842 
L 241.677156 407.163553 
L 235.877599 403.529152 
L 230.245597 399.655956 
L 224.791581 395.552833 
L 219.52558 391.229059 
L 214.457311 386.694213 
L 209.595859 381.95841 
L 204.950049 377.031966 
L 200.52811 371.925624 
L 196.337796 366.650417 
L 192.386491 361.217608 
L 188.68084 355.638826 
L 185.227199 349.925834 
L 182.031239 344.090673 
L 179.098114 338.145557 
L 176.432557 332.102834 
L 174.038511 325.975041 
L 171.9196 319.774778 
L 170.078721 313.514761 
L 168.518232 307.207754 
L 167.240046 300.86656 
L 166.245267 294.503985 
L 165.534677 288.132828 
L 165.108316 281.765836 
L 164.965696 275.415684 
L 165.105881 269.094989 
L 165.527145 262.816189 
L 166.227458 256.591648 
L 167.204065 250.433515 
L 168.453721 244.353758 
L 169.972752 238.364185 
L 171.756756 232.476266 
L 173.801051 226.701334 
L 176.100289 221.050351 
L 178.648691 215.534006 
L 181.440089 210.162738 
L 184.467683 204.946505 
L 187.724429 199.895073 
L 191.20271 195.017708 
L 194.894556 190.323323 
L 198.791668 185.820505 
L 202.885234 181.517243 
L 207.16625 177.421296 
L 211.62526 173.539812 
L 216.252543 169.879533 
L 221.038124 166.446811 
L 225.971664 163.247322 
L 231.042686 160.28648 
L 236.240401 157.569011 
L 241.553856 155.099206 
L 246.971932 152.88092 
L 252.483304 150.917291 
L 258.076571 149.211173 
L 263.740176 147.764697 
L 269.462499 146.579544 
L 275.231852 145.656943 
L 281.036504 144.997394 
L 286.864711 144.601114 
L 292.704736 144.467589 
L 298.544873 144.595887 
L 304.373471 144.984546 
L 304.373471 144.984546 
" clip-path="url(#pb7a9e8db19)" style="fill: none; stroke-dasharray: 12.95,5.6; stroke-dashoffset: 0; stroke: #ff0000; stroke-opacity: 0.8; stroke-width: 3.5"/>
   </g>
   <g id="legend_1">
    <g id="patch_7">
     <path d="M 234.010937 307.234375 
L 379.360937 307.234375 
Q 381.360937 307.234375 381.360937 305.234375 
L 381.360937 247.521875 
Q 381.360937 245.521875 379.360937 245.521875 
L 234.010937 245.521875 
Q 232.010937 245.521875 232.010937 247.521875 
L 232.010937 305.234375 
Q 232.010937 307.234375 234.010937 307.234375 
z
" style="fill: #ffffff; opacity: 0.8; stroke: #cccccc; stroke-linejoin: miter"/>
    </g>
    <g id="line2d_21">
     <path d="M 236.010937 253.620312 
L 246.010937 253.620312 
L 256.010937 253.620312 
" style="fill: none; stroke: #000000; stroke-opacity: 0.3; stroke-width: 7; stroke-linecap: square"/>
    </g>
    <g id="text_20">
     <!-- True/Underlying model -->
     <g transform="translate(264.010937 257.120312) scale(0.1 -0.1)">
      <defs>
       <path id="DejaVuSans-54" d="M -19 4666 
L 3928 4666 
L 3928 4134 
L 2272 4134 
L 2272 0 
L 1638 0 
L 1638 4134 
L -19 4134 
L -19 4666 
z
" transform="scale(0.015625)"/>
       <path id="DejaVuSans-75" d="M 544 1381 
L 544 3500 
L 1119 3500 
L 1119 1403 
Q 1119 906 1312 657 
Q 1506 409 1894 409 
Q 2359 409 2629 706 
Q 2900 1003 2900 1516 
L 2900 3500 
L 3475 3500 
L 3475 0 
L 2900 0 
L 2900 538 
Q 2691 219 2414 64 
Q 2138 -91 1772 -91 
Q 1169 -91 856 284 
Q 544 659 544 1381 
z
M 1991 3584 
L 1991 3584 
z
" transform="scale(0.015625)"/>
       <path id="DejaVuSans-2f" d="M 1625 4666 
L 2156 4666 
L 531 -594 
L 0 -594 
L 1625 4666 
z
" transform="scale(0.015625)"/>
       <path id="DejaVuSans-55" d="M 556 4666 
L 1191 4666 
L 1191 1831 
Q 1191 1081 1462 751 
Q 1734 422 2344 422 
Q 2950 422 3222 751 
Q 3494 1081 3494 1831 
L 3494 4666 
L 4128 4666 
L 4128 1753 
Q 4128 841 3676 375 
Q 3225 -91 2344 -91 
Q 1459 -91 1007 375 
Q 556 841 556 1753 
L 556 4666 
z
" transform="scale(0.015625)"/>
       <path id="DejaVuSans-6e" d="M 3513 2113 
L 3513 0 
L 2938 0 
L 2938 2094 
Q 2938 2591 2744 2837 
Q 2550 3084 2163 3084 
Q 1697 3084 1428 2787 
Q 1159 2491 1159 1978 
L 1159 0 
L 581 0 
L 581 3500 
L 1159 3500 
L 1159 2956 
Q 1366 3272 1645 3428 
Q 1925 3584 2291 3584 
Q 2894 3584 3203 3211 
Q 3513 2838 3513 2113 
z
" transform="scale(0.015625)"/>
       <path id="DejaVuSans-64" d="M 2906 2969 
L 2906 4863 
L 3481 4863 
L 3481 0 
L 2906 0 
L 2906 525 
Q 2725 213 2448 61 
Q 2172 -91 1784 -91 
Q 1150 -91 751 415 
Q 353 922 353 1747 
Q 353 2572 751 3078 
Q 1150 3584 1784 3584 
Q 2172 3584 2448 3432 
Q 2725 3281 2906 2969 
z
M 947 1747 
Q 947 1113 1208 752 
Q 1469 391 1925 391 
Q 2381 391 2643 752 
Q 2906 1113 2906 1747 
Q 2906 2381 2643 2742 
Q 2381 3103 1925 3103 
Q 1469 3103 1208 2742 
Q 947 2381 947 1747 
z
" transform="scale(0.015625)"/>
       <path id="DejaVuSans-6c" d="M 603 4863 
L 1178 4863 
L 1178 0 
L 603 0 
L 603 4863 
z
" transform="scale(0.015625)"/>
       <path id="DejaVuSans-79" d="M 2059 -325 
Q 1816 -950 1584 -1140 
Q 1353 -1331 966 -1331 
L 506 -1331 
L 506 -850 
L 844 -850 
Q 1081 -850 1212 -737 
Q 1344 -625 1503 -206 
L 1606 56 
L 191 3500 
L 800 3500 
L 1894 763 
L 2988 3500 
L 3597 3500 
L 2059 -325 
z
" transform="scale(0.015625)"/>
       <path id="DejaVuSans-67" d="M 2906 1791 
Q 2906 2416 2648 2759 
Q 2391 3103 1925 3103 
Q 1463 3103 1205 2759 
Q 947 2416 947 1791 
Q 947 1169 1205 825 
Q 1463 481 1925 481 
Q 2391 481 2648 825 
Q 2906 1169 2906 1791 
z
M 3481 434 
Q 3481 -459 3084 -895 
Q 2688 -1331 1869 -1331 
Q 1566 -1331 1297 -1286 
Q 1028 -1241 775 -1147 
L 775 -588 
Q 1028 -725 1275 -790 
Q 1522 -856 1778 -856 
Q 2344 -856 2625 -561 
Q 2906 -266 2906 331 
L 2906 616 
Q 2728 306 2450 153 
Q 2172 0 1784 0 
Q 1141 0 747 490 
Q 353 981 353 1791 
Q 353 2603 747 3093 
Q 1141 3584 1784 3584 
Q 2172 3584 2450 3431 
Q 2728 3278 2906 2969 
L 2906 3500 
L 3481 3500 
L 3481 434 
z
" transform="scale(0.015625)"/>
       <path id="DejaVuSans-6d" d="M 3328 2828 
Q 3544 3216 3844 3400 
Q 4144 3584 4550 3584 
Q 5097 3584 5394 3201 
Q 5691 2819 5691 2113 
L 5691 0 
L 5113 0 
L 5113 2094 
Q 5113 2597 4934 2840 
Q 4756 3084 4391 3084 
Q 3944 3084 3684 2787 
Q 3425 2491 3425 1978 
L 3425 0 
L 2847 0 
L 2847 2094 
Q 2847 2600 2669 2842 
Q 2491 3084 2119 3084 
Q 1678 3084 1418 2786 
Q 1159 2488 1159 1978 
L 1159 0 
L 581 0 
L 581 3500 
L 1159 3500 
L 1159 2956 
Q 1356 3278 1631 3431 
Q 1906 3584 2284 3584 
Q 2666 3584 2933 3390 
Q 3200 3197 3328 2828 
z
" transform="scale(0.015625)"/>
      </defs>
      <use xlink:href="#DejaVuSans-54"/>
      <use xlink:href="#DejaVuSans-72" transform="translate(46.333984 0)"/>
      <use xlink:href="#DejaVuSans-75" transform="translate(87.447266 0)"/>
      <use xlink:href="#DejaVuSans-65" transform="translate(150.826172 0)"/>
      <use xlink:href="#DejaVuSans-2f" transform="translate(212.349609 0)"/>
      <use xlink:href="#DejaVuSans-55" transform="translate(246.041016 0)"/>
      <use xlink:href="#DejaVuSans-6e" transform="translate(319.234375 0)"/>
      <use xlink:href="#DejaVuSans-64" transform="translate(382.613281 0)"/>
      <use xlink:href="#DejaVuSans-65" transform="translate(446.089844 0)"/>
      <use xlink:href="#DejaVuSans-72" transform="translate(507.613281 0)"/>
      <use xlink:href="#DejaVuSans-6c" transform="translate(548.726562 0)"/>
      <use xlink:href="#DejaVuSans-79" transform="translate(576.509766 0)"/>
      <use xlink:href="#DejaVuSans-69" transform="translate(635.689453 0)"/>
      <use xlink:href="#DejaVuSans-6e" transform="translate(663.472656 0)"/>
      <use xlink:href="#DejaVuSans-67" transform="translate(726.851562 0)"/>
      <use xlink:href="#DejaVuSans-20" transform="translate(790.328125 0)"/>
      <use xlink:href="#DejaVuSans-6d" transform="translate(822.115234 0)"/>
      <use xlink:href="#DejaVuSans-6f" transform="translate(919.527344 0)"/>
      <use xlink:href="#DejaVuSans-64" transform="translate(980.708984 0)"/>
      <use xlink:href="#DejaVuSans-65" transform="translate(1044.185547 0)"/>
      <use xlink:href="#DejaVuSans-6c" transform="translate(1105.708984 0)"/>
     </g>
    </g>
    <g id="line2d_22">
     <path d="M 236.010937 268.298437 
L 246.010937 268.298437 
L 256.010937 268.298437 
" style="fill: none; stroke-dasharray: 12.95,5.6; stroke-dashoffset: 0; stroke: #ff0000; stroke-opacity: 0.8; stroke-width: 3.5"/>
    </g>
    <g id="text_21">
     <!-- AutoSINDy -->
     <g transform="translate(264.010937 271.798437) scale(0.1 -0.1)">
      <defs>
       <path id="DejaVuSans-41" d="M 2188 4044 
L 1331 1722 
L 3047 1722 
L 2188 4044 
z
M 1831 4666 
L 2547 4666 
L 4325 0 
L 3669 0 
L 3244 1197 
L 1141 1197 
L 716 0 
L 50 0 
L 1831 4666 
z
" transform="scale(0.015625)"/>
       <path id="DejaVuSans-53" d="M 3425 4513 
L 3425 3897 
Q 3066 4069 2747 4153 
Q 2428 4238 2131 4238 
Q 1616 4238 1336 4038 
Q 1056 3838 1056 3469 
Q 1056 3159 1242 3001 
Q 1428 2844 1947 2747 
L 2328 2669 
Q 3034 2534 3370 2195 
Q 3706 1856 3706 1288 
Q 3706 609 3251 259 
Q 2797 -91 1919 -91 
Q 1588 -91 1214 -16 
Q 841 59 441 206 
L 441 856 
Q 825 641 1194 531 
Q 1563 422 1919 422 
Q 2459 422 2753 634 
Q 3047 847 3047 1241 
Q 3047 1584 2836 1778 
Q 2625 1972 2144 2069 
L 1759 2144 
Q 1053 2284 737 2584 
Q 422 2884 422 3419 
Q 422 4038 858 4394 
Q 1294 4750 2059 4750 
Q 2388 4750 2728 4690 
Q 3069 4631 3425 4513 
z
" transform="scale(0.015625)"/>
       <path id="DejaVuSans-49" d="M 628 4666 
L 1259 4666 
L 1259 0 
L 628 0 
L 628 4666 
z
" transform="scale(0.015625)"/>
       <path id="DejaVuSans-4e" d="M 628 4666 
L 1478 4666 
L 3547 763 
L 3547 4666 
L 4159 4666 
L 4159 0 
L 3309 0 
L 1241 3903 
L 1241 0 
L 628 0 
L 628 4666 
z
" transform="scale(0.015625)"/>
       <path id="DejaVuSans-44" d="M 1259 4147 
L 1259 519 
L 2022 519 
Q 2988 519 3436 956 
Q 3884 1394 3884 2338 
Q 3884 3275 3436 3711 
Q 2988 4147 2022 4147 
L 1259 4147 
z
M 628 4666 
L 1925 4666 
Q 3281 4666 3915 4102 
Q 4550 3538 4550 2338 
Q 4550 1131 3912 565 
Q 3275 0 1925 0 
L 628 0 
L 628 4666 
z
" transform="scale(0.015625)"/>
      </defs>
      <use xlink:href="#DejaVuSans-41"/>
      <use xlink:href="#DejaVuSans-75" transform="translate(68.408203 0)"/>
      <use xlink:href="#DejaVuSans-74" transform="translate(131.787109 0)"/>
      <use xlink:href="#DejaVuSans-6f" transform="translate(170.996094 0)"/>
      <use xlink:href="#DejaVuSans-53" transform="translate(232.177734 0)"/>
      <use xlink:href="#DejaVuSans-49" transform="translate(295.654297 0)"/>
      <use xlink:href="#DejaVuSans-4e" transform="translate(325.146484 0)"/>
      <use xlink:href="#DejaVuSans-44" transform="translate(399.951172 0)"/>
      <use xlink:href="#DejaVuSans-79" transform="translate(476.953125 0)"/>
     </g>
    </g>
    <g id="line2d_23">
     <path d="M 236.010937 282.976562 
L 246.010937 282.976562 
L 256.010937 282.976562 
" style="fill: none; stroke-dasharray: 3.5,5.775; stroke-dashoffset: 0; stroke: #008000; stroke-opacity: 0.8; stroke-width: 3.5"/>
    </g>
    <g id="text_22">
     <!-- Standard SINDy -->
     <g transform="translate(264.010937 286.476562) scale(0.1 -0.1)">
      <use xlink:href="#DejaVuSans-53"/>
      <use xlink:href="#DejaVuSans-74" transform="translate(63.476562 0)"/>
      <use xlink:href="#DejaVuSans-61" transform="translate(102.685547 0)"/>
      <use xlink:href="#DejaVuSans-6e" transform="translate(163.964844 0)"/>
      <use xlink:href="#DejaVuSans-64" transform="translate(227.34375 0)"/>
      <use xlink:href="#DejaVuSans-61" transform="translate(290.820312 0)"/>
      <use xlink:href="#DejaVuSans-72" transform="translate(352.099609 0)"/>
      <use xlink:href="#DejaVuSans-64" transform="translate(391.462891 0)"/>
      <use xlink:href="#DejaVuSans-20" transform="translate(454.939453 0)"/>
      <use xlink:href="#DejaVuSans-53" transform="translate(486.726562 0)"/>
      <use xlink:href="#DejaVuSans-49" transform="translate(550.203125 0)"/>
      <use xlink:href="#DejaVuSans-4e" transform="translate(579.695312 0)"/>
      <use xlink:href="#DejaVuSans-44" transform="translate(654.5 0)"/>
      <use xlink:href="#DejaVuSans-79" transform="translate(731.501953 0)"/>
     </g>
    </g>
    <g id="line2d_24">
     <path d="M 236.010937 297.654687 
L 246.010937 297.654687 
L 256.010937 297.654687 
" style="fill: none; stroke-dasharray: 22.4,5.6,3.5,5.6; stroke-dashoffset: 0; stroke: #0000ff; stroke-opacity: 0.8; stroke-width: 3.5"/>
    </g>
    <g id="text_23">
     <!-- Standard PySR -->
     <g transform="translate(264.010937 301.154687) scale(0.1 -0.1)">
      <defs>
       <path id="DejaVuSans-52" d="M 2841 2188 
Q 3044 2119 3236 1894 
Q 3428 1669 3622 1275 
L 4263 0 
L 3584 0 
L 2988 1197 
Q 2756 1666 2539 1819 
Q 2322 1972 1947 1972 
L 1259 1972 
L 1259 0 
L 628 0 
L 628 4666 
L 2053 4666 
Q 2853 4666 3247 4331 
Q 3641 3997 3641 3322 
Q 3641 2881 3436 2590 
Q 3231 2300 2841 2188 
z
M 1259 4147 
L 1259 2491 
L 2053 2491 
Q 2509 2491 2742 2702 
Q 2975 2913 2975 3322 
Q 2975 3731 2742 3939 
Q 2509 4147 2053 4147 
L 1259 4147 
z
" transform="scale(0.015625)"/>
      </defs>
      <use xlink:href="#DejaVuSans-53"/>
      <use xlink:href="#DejaVuSans-74" transform="translate(63.476562 0)"/>
      <use xlink:href="#DejaVuSans-61" transform="translate(102.685547 0)"/>
      <use xlink:href="#DejaVuSans-6e" transform="translate(163.964844 0)"/>
      <use xlink:href="#DejaVuSans-64" transform="translate(227.34375 0)"/>
      <use xlink:href="#DejaVuSans-61" transform="translate(290.820312 0)"/>
      <use xlink:href="#DejaVuSans-72" transform="translate(352.099609 0)"/>
      <use xlink:href="#DejaVuSans-64" transform="translate(391.462891 0)"/>
      <use xlink:href="#DejaVuSans-20" transform="translate(454.939453 0)"/>
      <use xlink:href="#DejaVuSans-50" transform="translate(486.726562 0)"/>
      <use xlink:href="#DejaVuSans-79" transform="translate(547.029297 0)"/>
      <use xlink:href="#DejaVuSans-53" transform="translate(606.208984 0)"/>
      <use xlink:href="#DejaVuSans-52" transform="translate(669.685547 0)"/>
     </g>
    </g>
   </g>
  </g>
 </g>
 <defs>
  <clipPath id="pb7a9e8db19">
   <rect x="52.160938" y="22.318125" width="509.05" height="508.12"/>
  </clipPath>
 </defs>
</svg>
