<?xml version="1.0" encoding="utf-8" standalone="no"?>
<!DOCTYPE svg PUBLIC "-//W3C//DTD SVG 1.1//EN"
  "http://www.w3.org/Graphics/SVG/1.1/DTD/svg11.dtd">
<svg xmlns:xlink="http://www.w3.org/1999/xlink" width="862.210938pt" height="285.79625pt" viewBox="0 0 862.210938 285.79625" xmlns="http://www.w3.org/2000/svg" version="1.1">
 <metadata>
  <rdf:RDF xmlns:dc="http://purl.org/dc/elements/1.1/" xmlns:cc="http://creativecommons.org/ns#" xmlns:rdf="http://www.w3.org/1999/02/22-rdf-syntax-ns#">
   <cc:Work>
    <dc:type rdf:resource="http://purl.org/dc/dcmitype/StillImage"/>
    <dc:date>2026-04-06T11:40:04.395446</dc:date>
    <dc:format>image/svg+xml</dc:format>
    <dc:creator>
     <cc:Agent>
      <dc:title>Matplotlib v3.10.7, https://matplotlib.org/</dc:title>
     </cc:Agent>
    </dc:creator>
   </cc:Work>
  </rdf:RDF>
 </metadata>
 <defs>
  <style type="text/css">*{stroke-linejoin: round; stroke-linecap: butt}</style>
 </defs>
 <g id="figure_1">
  <g id="patch_1">
   <path d="M -0 285.79625 
L 862.210938 285.79625 
L 862.210938 0 
L -0 0 
z
" style="fill: #ffffff"/>
  </g>
  <g id="axes_1">
   <g id="patch_2">
    <path d="M 52.160938 136.79 
L 849.210937 136.79 
L 849.210937 39.64 
L 52.160938 39.64 
z
" style="fill: #ffffff"/>
   </g>
   <g id="line2d_1">
    <path d="M 88.390483 44.336279 
L 92.746741 44.106529 
L 97.102999 44.076684 
L 101.459257 44.245703 
L 105.815515 44.611768 
L 110.171773 45.172314 
L 114.528031 45.923875 
L 118.884289 46.862089 
L 123.240547 47.981691 
L 129.048891 49.745866 
L 134.857235 51.804345 
L 140.665579 54.137292 
L 146.473923 56.723831 
L 152.282267 59.540119 
L 159.542696 63.344684 
L 166.803126 67.416587 
L 175.515642 72.579445 
L 187.13233 79.771025 
L 211.817792 95.181888 
L 220.530308 100.341358 
L 227.790738 104.418988 
L 235.051168 108.244089 
L 240.859512 111.093316 
L 246.667856 113.733352 
L 252.4762 116.146019 
L 258.284544 118.314941 
L 264.092888 120.226211 
L 269.901232 121.868349 
L 275.709576 123.228913 
L 281.51792 124.298036 
L 285.874178 124.904281 
L 290.230436 125.340655 
L 294.586694 125.606134 
L 298.942952 125.700591 
L 303.299209 125.624796 
L 307.655467 125.380416 
L 313.463811 124.796895 
L 319.272155 123.926889 
L 325.080499 122.781136 
L 330.888843 121.369279 
L 336.697187 119.704571 
L 342.505531 117.802375 
L 348.313875 115.679723 
L 354.122219 113.355317 
L 361.382649 110.197289 
L 368.643079 106.799436 
L 377.355595 102.472665 
L 388.972283 96.422103 
L 418.014003 81.114194 
L 426.726519 76.809435 
L 435.439035 72.771418 
L 442.699465 69.659497 
L 449.959895 66.81522 
L 455.768238 64.752357 
L 461.576582 62.895649 
L 467.384926 61.258748 
L 473.19327 59.853048 
L 479.001614 58.687681 
L 484.809958 57.769516 
L 490.618302 57.103165 
L 496.426646 56.690974 
L 502.23499 56.533034 
L 508.043334 56.627671 
L 513.851678 56.972683 
L 519.660022 57.564031 
L 525.468366 58.395659 
L 531.27671 59.4595 
L 537.085054 60.74547 
L 542.893398 62.241475 
L 548.701742 63.933405 
L 555.962172 66.299085 
L 563.222602 68.909646 
L 571.935118 72.312194 
L 582.09972 76.575919 
L 595.168494 82.350219 
L 621.306041 93.985328 
L 631.470643 98.221637 
L 640.183159 101.607142 
L 647.443589 104.209835 
L 654.704019 106.580676 
L 661.964449 108.692925 
L 667.772793 110.181214 
L 673.581137 111.479802 
L 679.389481 112.580724 
L 685.197825 113.477713 
L 691.006169 114.166325 
L 696.814513 114.643292 
L 702.622857 114.905622 
L 708.431201 114.95217 
L 714.239545 114.783748 
L 720.047889 114.403123 
L 725.856233 113.815019 
L 731.664577 113.026112 
L 737.472921 112.045037 
L 744.733351 110.564775 
L 751.99378 108.825799 
L 759.25421 106.851673 
L 766.51464 104.668778 
L 775.227156 101.816229 
L 785.391758 98.236098 
L 798.460532 93.375353 
L 812.981392 87.868074 
L 812.981392 87.868074 
" clip-path="url(#p25f88e27b9)" style="fill: none; stroke: #000000; stroke-opacity: 0.4; stroke-width: 6; stroke-linecap: square"/>
   </g>
   <g id="matplotlib.axis_1">
    <g id="xtick_1">
     <g id="line2d_2">
      <defs>
       <path id="m496fb7ea41" d="M 0 0 
L 0 3.5 
" style="stroke: #000000; stroke-width: 0.8"/>
      </defs>
      <g>
       <use xlink:href="#m496fb7ea41" x="88.390483" y="136.79" style="stroke: #000000; stroke-width: 0.8"/>
      </g>
     </g>
    </g>
    <g id="xtick_2">
     <g id="line2d_3">
      <g>
       <use xlink:href="#m496fb7ea41" x="233.308665" y="136.79" style="stroke: #000000; stroke-width: 0.8"/>
      </g>
     </g>
    </g>
    <g id="xtick_3">
     <g id="line2d_4">
      <g>
       <use xlink:href="#m496fb7ea41" x="378.226847" y="136.79" style="stroke: #000000; stroke-width: 0.8"/>
      </g>
     </g>
    </g>
    <g id="xtick_4">
     <g id="line2d_5">
      <g>
       <use xlink:href="#m496fb7ea41" x="523.145028" y="136.79" style="stroke: #000000; stroke-width: 0.8"/>
      </g>
     </g>
    </g>
    <g id="xtick_5">
     <g id="line2d_6">
      <g>
       <use xlink:href="#m496fb7ea41" x="668.06321" y="136.79" style="stroke: #000000; stroke-width: 0.8"/>
      </g>
     </g>
    </g>
    <g id="xtick_6">
     <g id="line2d_7">
      <g>
       <use xlink:href="#m496fb7ea41" x="812.981392" y="136.79" style="stroke: #000000; stroke-width: 0.8"/>
      </g>
     </g>
    </g>
   </g>
   <g id="matplotlib.axis_2">
    <g id="ytick_1">
     <g id="line2d_8">
      <defs>
       <path id="m5d6fc402f5" d="M 0 0 
L -3.5 0 
" style="stroke: #000000; stroke-width: 0.8"/>
      </defs>
      <g>
       <use xlink:href="#m5d6fc402f5" x="52.160938" y="115.645871" style="stroke: #000000; stroke-width: 0.8"/>
      </g>
     </g>
     <g id="text_1">
      <!-- −0.5 -->
      <g transform="translate(20.878125 119.445089) scale(0.1 -0.1)">
       <defs>
        <path id="DejaVuSans-2212" d="M 678 2272 
L 4684 2272 
L 4684 1741 
L 678 1741 
L 678 2272 
z
" transform="scale(0.015625)"/>
        <path id="DejaVuSans-30" d="M 2034 4250 
Q 1547 4250 1301 3770 
Q 1056 3291 1056 2328 
Q 1056 1369 1301 889 
Q 1547 409 2034 409 
Q 2525 409 2770 889 
Q 3016 1369 3016 2328 
Q 3016 3291 2770 3770 
Q 2525 4250 2034 4250 
z
M 2034 4750 
Q 2819 4750 3233 4129 
Q 3647 3509 3647 2328 
Q 3647 1150 3233 529 
Q 2819 -91 2034 -91 
Q 1250 -91 836 529 
Q 422 1150 422 2328 
Q 422 3509 836 4129 
Q 1250 4750 2034 4750 
z
" transform="scale(0.015625)"/>
        <path id="DejaVuSans-2e" d="M 684 794 
L 1344 794 
L 1344 0 
L 684 0 
L 684 794 
z
" transform="scale(0.015625)"/>
        <path id="DejaVuSans-35" d="M 691 4666 
L 3169 4666 
L 3169 4134 
L 1269 4134 
L 1269 2991 
Q 1406 3038 1543 3061 
Q 1681 3084 1819 3084 
Q 2600 3084 3056 2656 
Q 3513 2228 3513 1497 
Q 3513 744 3044 326 
Q 2575 -91 1722 -91 
Q 1428 -91 1123 -41 
Q 819 9 494 109 
L 494 744 
Q 775 591 1075 516 
Q 1375 441 1709 441 
Q 2250 441 2565 725 
Q 2881 1009 2881 1497 
Q 2881 1984 2565 2268 
Q 2250 2553 1709 2553 
Q 1456 2553 1204 2497 
Q 953 2441 691 2322 
L 691 4666 
z
" transform="scale(0.015625)"/>
       </defs>
       <use xlink:href="#DejaVuSans-2212"/>
       <use xlink:href="#DejaVuSans-30" transform="translate(83.789062 0)"/>
       <use xlink:href="#DejaVuSans-2e" transform="translate(147.412109 0)"/>
       <use xlink:href="#DejaVuSans-35" transform="translate(179.199219 0)"/>
      </g>
     </g>
    </g>
    <g id="ytick_2">
     <g id="line2d_9">
      <g>
       <use xlink:href="#m5d6fc402f5" x="52.160938" y="88.219105" style="stroke: #000000; stroke-width: 0.8"/>
      </g>
     </g>
     <g id="text_2">
      <!-- 0.0 -->
      <g transform="translate(29.257812 92.018323) scale(0.1 -0.1)">
       <use xlink:href="#DejaVuSans-30"/>
       <use xlink:href="#DejaVuSans-2e" transform="translate(63.623047 0)"/>
       <use xlink:href="#DejaVuSans-30" transform="translate(95.410156 0)"/>
      </g>
     </g>
    </g>
    <g id="ytick_3">
     <g id="line2d_10">
      <g>
       <use xlink:href="#m5d6fc402f5" x="52.160938" y="60.792339" style="stroke: #000000; stroke-width: 0.8"/>
      </g>
     </g>
     <g id="text_3">
      <!-- 0.5 -->
      <g transform="translate(29.257812 64.591557) scale(0.1 -0.1)">
       <use xlink:href="#DejaVuSans-30"/>
       <use xlink:href="#DejaVuSans-2e" transform="translate(63.623047 0)"/>
       <use xlink:href="#DejaVuSans-35" transform="translate(95.410156 0)"/>
      </g>
     </g>
    </g>
    <g id="text_4">
     <!-- $x0$ -->
     <g transform="translate(14.798438 94.365) rotate(-90) scale(0.1 -0.1)">
      <defs>
       <path id="DejaVuSans-Oblique-78" d="M 3841 3500 
L 2234 1784 
L 3219 0 
L 2559 0 
L 1819 1388 
L 531 0 
L -166 0 
L 1556 1844 
L 641 3500 
L 1300 3500 
L 1972 2234 
L 3144 3500 
L 3841 3500 
z
" transform="scale(0.015625)"/>
      </defs>
      <use xlink:href="#DejaVuSans-Oblique-78" transform="translate(0 0.78125)"/>
      <use xlink:href="#DejaVuSans-30" transform="translate(59.179688 0.78125)"/>
     </g>
    </g>
   </g>
   <g id="line2d_11">
    <path d="M 88.390483 44.336279 
L 92.746741 44.105479 
L 97.102999 44.073214 
L 101.459257 44.239607 
L 105.815515 44.603886 
L 110.171773 45.164319 
L 114.528031 45.917857 
L 118.884289 46.860246 
L 123.240547 47.986087 
L 127.596805 49.289589 
L 133.405149 51.294286 
L 139.213493 53.592365 
L 145.021837 56.170087 
L 150.830181 59.009519 
L 156.638524 62.087615 
L 163.898954 66.230135 
L 171.159384 70.648881 
L 179.8719 76.236363 
L 191.488588 84.003561 
L 216.17405 100.641712 
L 224.886566 106.208335 
L 232.146996 110.603869 
L 239.407426 114.718017 
L 245.21577 117.769827 
L 251.024114 120.580094 
L 256.832458 123.126271 
L 262.640802 125.391055 
L 268.449146 127.361022 
L 272.805404 128.637497 
L 277.161662 129.735416 
L 281.51792 130.649012 
L 285.874178 131.373018 
L 290.230436 131.903343 
L 294.586694 132.237213 
L 298.942952 132.372979 
L 303.299209 132.310064 
L 307.655467 132.048716 
L 312.011725 131.590073 
L 316.367983 130.93594 
L 320.724241 130.088551 
L 325.080499 129.050689 
L 329.436757 127.825983 
L 333.793015 126.419681 
L 339.601359 124.274856 
L 345.409703 121.841649 
L 351.218047 119.143607 
L 357.026391 116.203624 
L 362.834735 113.043982 
L 370.095165 108.821184 
L 377.355595 104.341932 
L 386.068111 98.706227 
L 399.136885 89.931766 
L 418.014003 77.229109 
L 426.726519 71.614816 
L 433.986949 67.160004 
L 441.247379 62.96719 
L 447.055723 59.835134 
L 452.864066 56.925682 
L 458.67241 54.261111 
L 464.480754 51.864485 
L 470.289098 49.759228 
L 474.645356 48.384297 
L 479.001614 47.192021 
L 483.357872 46.187291 
L 487.71413 45.373603 
L 492.070388 44.753569 
L 496.426646 44.329391 
L 500.782904 44.102767 
L 505.139162 44.074659 
L 509.49542 44.245234 
L 513.851678 44.613665 
L 518.207936 45.178176 
L 522.564194 45.935753 
L 526.920452 46.882043 
L 531.27671 48.011681 
L 535.632968 49.318853 
L 541.441312 51.328266 
L 547.249656 53.630865 
L 553.058 56.212877 
L 558.866344 59.056272 
L 564.674688 62.137913 
L 571.935118 66.284264 
L 579.195548 70.706136 
L 587.908064 76.296414 
L 599.524751 84.065651 
L 624.210213 100.701556 
L 632.922729 106.265292 
L 640.183159 110.657626 
L 647.443589 114.767872 
L 653.251933 117.816056 
L 659.060277 120.622319 
L 664.868621 123.164207 
L 670.676965 125.424431 
L 676.485309 127.38965 
L 680.841567 128.66243 
L 685.197825 129.756543 
L 689.554083 130.666185 
L 693.910341 131.386181 
L 698.266599 131.912391 
L 702.622857 132.242099 
L 706.979115 132.373709 
L 711.335373 132.3066 
L 715.691631 132.041104 
L 720.047889 131.578327 
L 724.404147 130.9201 
L 728.760405 130.068695 
L 733.116663 129.026837 
L 737.472921 127.798284 
L 741.829179 126.388223 
L 747.637522 124.238667 
L 753.445866 121.801112 
L 759.25421 119.099074 
L 765.062554 116.155462 
L 770.870898 112.992537 
L 778.131328 108.766179 
L 785.391758 104.284035 
L 794.104274 98.645815 
L 807.173048 89.869623 
L 812.981392 85.926374 
L 812.981392 85.926374 
" clip-path="url(#p25f88e27b9)" style="fill: none; stroke-dasharray: 22.4,5.6,3.5,5.6; stroke-dashoffset: 0; stroke: #0000ff; stroke-opacity: 0.8; stroke-width: 3.5"/>
   </g>
   <g id="patch_3">
    <path d="M 52.160938 136.79 
L 52.160938 39.64 
" style="fill: none; stroke: #000000; stroke-width: 0.8; stroke-linejoin: miter; stroke-linecap: square"/>
   </g>
   <g id="patch_4">
    <path d="M 849.210937 136.79 
L 849.210937 39.64 
" style="fill: none; stroke: #000000; stroke-width: 0.8; stroke-linejoin: miter; stroke-linecap: square"/>
   </g>
   <g id="patch_5">
    <path d="M 52.160938 136.79 
L 849.210938 136.79 
" style="fill: none; stroke: #000000; stroke-width: 0.8; stroke-linejoin: miter; stroke-linecap: square"/>
   </g>
   <g id="patch_6">
    <path d="M 52.160938 39.64 
L 849.210938 39.64 
" style="fill: none; stroke: #000000; stroke-width: 0.8; stroke-linejoin: miter; stroke-linecap: square"/>
   </g>
   <g id="line2d_12">
    <path d="M 88.390483 44.336279 
L 92.746741 44.10314 
L 97.102999 44.065162 
L 101.459257 44.225883 
L 105.815515 44.587899 
L 110.171773 45.152377 
L 114.528031 45.918294 
L 118.884289 46.882476 
L 123.240547 48.03908 
L 127.596805 49.379925 
L 133.405149 51.436431 
L 139.213493 53.773781 
L 145.021837 56.361239 
L 150.830181 59.168042 
L 158.09061 62.941076 
L 165.35104 66.961359 
L 174.063556 72.051353 
L 184.228158 78.272337 
L 198.749018 87.481395 
L 216.17405 98.523705 
L 224.886566 103.792633 
L 232.146996 107.942069 
L 239.407426 111.804293 
L 245.21577 114.649024 
L 251.024114 117.248647 
L 256.832458 119.582134 
L 262.640802 121.632461 
L 268.449146 123.3864 
L 272.805404 124.501401 
L 277.161662 125.441248 
L 281.51792 126.20403 
L 285.874178 126.788617 
L 290.230436 127.19472 
L 294.586694 127.42279 
L 298.942952 127.473938 
L 303.299209 127.350003 
L 307.655467 127.053409 
L 312.011725 126.587244 
L 317.820069 125.708399 
L 323.628413 124.545216 
L 329.436757 123.110126 
L 335.245101 121.417512 
L 341.053445 119.483555 
L 346.861789 117.326003 
L 352.670133 114.963785 
L 359.930563 111.753165 
L 367.190993 108.292271 
L 375.903509 103.862877 
L 386.068111 98.397 
L 399.136885 91.062869 
L 422.370261 77.957158 
L 431.082777 73.319966 
L 438.343207 69.689203 
L 445.603637 66.330249 
L 451.41198 63.871293 
L 457.220324 61.637231 
L 463.028668 59.644032 
L 468.837012 57.903854 
L 474.645356 56.425648 
L 480.4537 55.215887 
L 486.262044 54.279281 
L 492.070388 53.619236 
L 497.878732 53.238051 
L 503.687076 53.136822 
L 509.49542 53.315064 
L 515.303764 53.770268 
L 521.112108 54.4974 
L 526.920452 55.488589 
L 532.728796 56.733025 
L 538.53714 58.21714 
L 544.345484 59.925145 
L 550.153828 61.839683 
L 557.414258 64.495537 
L 564.674688 67.409764 
L 571.935118 70.5472 
L 580.647634 74.558705 
L 590.812236 79.504692 
L 603.881009 86.132393 
L 625.662299 97.217914 
L 634.374815 101.41824 
L 641.635245 104.717575 
L 648.895675 107.781719 
L 656.156105 110.566234 
L 661.964449 112.566519 
L 667.772793 114.346763 
L 673.581137 115.893583 
L 679.389481 117.19662 
L 685.197825 118.248455 
L 691.006169 119.044471 
L 696.814513 119.582611 
L 702.622857 119.863146 
L 708.431201 119.888441 
L 714.239545 119.662749 
L 720.047889 119.192041 
L 725.856233 118.483843 
L 731.664577 117.547102 
L 737.472921 116.39206 
L 743.281265 115.030122 
L 749.089608 113.473723 
L 756.350038 111.275076 
L 763.610468 108.820807 
L 770.870898 106.139532 
L 779.583414 102.664006 
L 788.29593 98.957024 
L 799.912618 93.751167 
L 812.981392 87.702571 
L 812.981392 87.702571 
" clip-path="url(#p25f88e27b9)" style="fill: none; stroke-dasharray: 3.5,5.775; stroke-dashoffset: 0; stroke: #008000; stroke-opacity: 0.8; stroke-width: 3.5"/>
   </g>
   <g id="line2d_13">
    <path d="M 88.390483 44.336279 
L 92.746741 44.107041 
L 97.102999 44.077752 
L 101.459257 44.247125 
L 105.815515 44.613005 
L 110.171773 45.172402 
L 114.528031 45.921408 
L 118.884289 46.855363 
L 123.240547 47.968755 
L 129.048891 49.721473 
L 134.857235 51.76513 
L 140.665579 54.080707 
L 146.473923 56.647178 
L 152.282267 59.441722 
L 159.542696 63.218284 
L 166.803126 67.262217 
L 175.515642 72.392439 
L 187.13233 79.545179 
L 213.269878 95.803672 
L 221.982394 100.929179 
L 229.242824 104.97562 
L 236.503254 108.766344 
L 242.311598 111.584943 
L 248.119942 114.190793 
L 253.928286 116.565078 
L 259.73663 118.691007 
L 265.544974 120.553919 
L 271.353318 122.141388 
L 277.161662 123.443324 
L 282.970006 124.451995 
L 287.326264 125.012761 
L 291.682522 125.404156 
L 296.03878 125.625642 
L 300.395038 125.677386 
L 304.751295 125.560352 
L 310.559639 125.14483 
L 316.367983 124.438459 
L 322.176327 123.449579 
L 327.984671 122.188727 
L 333.793015 120.668501 
L 339.601359 118.903452 
L 345.409703 116.909942 
L 351.218047 114.706005 
L 358.478477 111.685103 
L 365.738907 108.40715 
L 374.451423 104.196138 
L 384.616025 99.001781 
L 400.588971 90.531237 
L 416.561917 82.138134 
L 426.726519 77.067035 
L 435.439035 72.997601 
L 442.699465 69.855154 
L 449.959895 66.977924 
L 455.768238 64.889227 
L 461.576582 63.006195 
L 467.384926 61.34195 
L 473.19327 59.907724 
L 479.001614 58.712824 
L 484.809958 57.764551 
L 490.618302 57.068182 
L 496.426646 56.626939 
L 502.23499 56.441954 
L 508.043334 56.512315 
L 513.851678 56.83508 
L 519.660022 57.405326 
L 525.468366 58.216204 
L 531.27671 59.25899 
L 537.085054 60.5232 
L 542.893398 61.99668 
L 548.701742 63.665723 
L 555.962172 66.003847 
L 563.222602 68.591389 
L 571.935118 71.97606 
L 580.647634 75.60431 
L 592.264322 80.702407 
L 625.662299 95.575444 
L 634.374815 99.16339 
L 643.087331 102.505395 
L 650.347761 105.061658 
L 657.608191 107.378468 
L 664.868621 109.429761 
L 670.676965 110.864406 
L 676.485309 112.104942 
L 682.293653 113.143281 
L 688.101997 113.97302 
L 693.910341 114.589479 
L 699.718685 114.989716 
L 705.527029 115.172555 
L 711.335373 115.138567 
L 717.143717 114.890046 
L 722.952061 114.430971 
L 728.760405 113.766961 
L 734.568749 112.905227 
L 740.377093 111.854495 
L 747.637522 110.290886 
L 754.897952 108.470635 
L 762.158382 106.419393 
L 770.870898 103.692899 
L 779.583414 100.727419 
L 789.748016 97.041054 
L 805.720962 90.972558 
L 812.981392 88.188627 
L 812.981392 88.188627 
" clip-path="url(#p25f88e27b9)" style="fill: none; stroke-dasharray: 12.95,5.6; stroke-dashoffset: 0; stroke: #ff0000; stroke-opacity: 0.8; stroke-width: 3.5"/>
   </g>
  </g>
  <g id="axes_2">
   <g id="patch_7">
    <path d="M 52.160938 248.24 
L 849.210937 248.24 
L 849.210937 151.09 
L 52.160938 151.09 
z
" style="fill: #ffffff"/>
   </g>
   <g id="line2d_14">
    <path d="M 88.390483 194.684951 
L 107.267601 207.483198 
L 115.980117 213.131081 
L 123.240547 217.605236 
L 130.500977 221.807661 
L 136.309321 224.938146 
L 142.117665 227.835702 
L 147.926009 230.479035 
L 153.734353 232.845885 
L 159.542696 234.917117 
L 163.898954 236.267101 
L 168.255212 237.436856 
L 172.61147 238.422377 
L 176.967728 239.220819 
L 181.323986 239.830499 
L 185.680244 240.250896 
L 190.036502 240.48265 
L 194.39276 240.527565 
L 198.749018 240.388551 
L 203.105276 240.068147 
L 207.461534 239.569336 
L 211.817792 238.896011 
L 217.626136 237.734657 
L 223.43448 236.283527 
L 229.242824 234.556953 
L 235.051168 232.571213 
L 240.859512 230.34453 
L 246.667856 227.897072 
L 253.928286 224.561157 
L 261.188716 220.962342 
L 269.901232 216.356428 
L 280.065834 210.687648 
L 296.03878 201.458028 
L 310.559639 193.127378 
L 320.724241 187.559399 
L 327.984671 183.803506 
L 335.245101 180.283918 
L 342.505531 177.047931 
L 348.313875 174.691179 
L 354.122219 172.560499 
L 359.930563 170.671421 
L 365.738907 169.036875 
L 371.547251 167.667193 
L 377.355595 166.570107 
L 383.163939 165.750704 
L 388.972283 165.211356 
L 394.780627 164.953438 
L 400.588971 164.976309 
L 406.397315 165.276989 
L 412.205659 165.850161 
L 418.014003 166.68817 
L 423.822347 167.781026 
L 429.630691 169.1164 
L 435.439035 170.679626 
L 441.247379 172.453701 
L 448.507809 174.94014 
L 455.768238 177.698729 
L 463.028668 180.693815 
L 471.741184 184.546004 
L 481.905786 189.30825 
L 496.426646 196.391148 
L 515.303764 205.563903 
L 525.468366 210.240918 
L 534.180882 213.986416 
L 541.441312 216.871386 
L 548.701742 219.505105 
L 555.962172 221.857174 
L 561.770516 223.51791 
L 567.57886 224.969253 
L 573.387204 226.202654 
L 579.195548 227.209745 
L 585.003892 227.983737 
L 590.812236 228.520184 
L 596.62058 228.816981 
L 602.428923 228.874363 
L 608.237267 228.694908 
L 614.045611 228.283536 
L 619.853955 227.647506 
L 625.662299 226.796422 
L 631.470643 225.740862 
L 637.278987 224.489452 
L 644.539417 222.667738 
L 651.799847 220.583832 
L 659.060277 218.265658 
L 667.772793 215.2176 
L 676.485309 211.933367 
L 688.101997 207.295559 
L 727.308319 191.357788 
L 736.020835 188.154554 
L 744.733351 185.200906 
L 751.99378 182.967805 
L 759.25421 180.96883 
L 766.51464 179.227463 
L 772.322984 178.033996 
L 778.131328 177.027229 
L 783.939672 176.213593 
L 789.748016 175.59753 
L 795.55636 175.181493 
L 801.364704 174.965947 
L 807.173048 174.949369 
L 812.981392 175.128734 
L 812.981392 175.128734 
" clip-path="url(#p9eca0eed27)" style="fill: none; stroke: #000000; stroke-opacity: 0.4; stroke-width: 6; stroke-linecap: square"/>
   </g>
   <g id="matplotlib.axis_3">
    <g id="xtick_7">
     <g id="line2d_15">
      <g>
       <use xlink:href="#m496fb7ea41" x="88.390483" y="248.24" style="stroke: #000000; stroke-width: 0.8"/>
      </g>
     </g>
     <g id="text_5">
      <!-- 0 -->
      <g transform="translate(85.209233 262.838437) scale(0.1 -0.1)">
       <use xlink:href="#DejaVuSans-30"/>
      </g>
     </g>
    </g>
    <g id="xtick_8">
     <g id="line2d_16">
      <g>
       <use xlink:href="#m496fb7ea41" x="233.308665" y="248.24" style="stroke: #000000; stroke-width: 0.8"/>
      </g>
     </g>
     <g id="text_6">
      <!-- 1 -->
      <g transform="translate(230.127415 262.838437) scale(0.1 -0.1)">
       <defs>
        <path id="DejaVuSans-31" d="M 794 531 
L 1825 531 
L 1825 4091 
L 703 3866 
L 703 4441 
L 1819 4666 
L 2450 4666 
L 2450 531 
L 3481 531 
L 3481 0 
L 794 0 
L 794 531 
z
" transform="scale(0.015625)"/>
       </defs>
       <use xlink:href="#DejaVuSans-31"/>
      </g>
     </g>
    </g>
    <g id="xtick_9">
     <g id="line2d_17">
      <g>
       <use xlink:href="#m496fb7ea41" x="378.226847" y="248.24" style="stroke: #000000; stroke-width: 0.8"/>
      </g>
     </g>
     <g id="text_7">
      <!-- 2 -->
      <g transform="translate(375.045597 262.838437) scale(0.1 -0.1)">
       <defs>
        <path id="DejaVuSans-32" d="M 1228 531 
L 3431 531 
L 3431 0 
L 469 0 
L 469 531 
Q 828 903 1448 1529 
Q 2069 2156 2228 2338 
Q 2531 2678 2651 2914 
Q 2772 3150 2772 3378 
Q 2772 3750 2511 3984 
Q 2250 4219 1831 4219 
Q 1534 4219 1204 4116 
Q 875 4013 500 3803 
L 500 4441 
Q 881 4594 1212 4672 
Q 1544 4750 1819 4750 
Q 2544 4750 2975 4387 
Q 3406 4025 3406 3419 
Q 3406 3131 3298 2873 
Q 3191 2616 2906 2266 
Q 2828 2175 2409 1742 
Q 1991 1309 1228 531 
z
" transform="scale(0.015625)"/>
       </defs>
       <use xlink:href="#DejaVuSans-32"/>
      </g>
     </g>
    </g>
    <g id="xtick_10">
     <g id="line2d_18">
      <g>
       <use xlink:href="#m496fb7ea41" x="523.145028" y="248.24" style="stroke: #000000; stroke-width: 0.8"/>
      </g>
     </g>
     <g id="text_8">
      <!-- 3 -->
      <g transform="translate(519.963778 262.838437) scale(0.1 -0.1)">
       <defs>
        <path id="DejaVuSans-33" d="M 2597 2516 
Q 3050 2419 3304 2112 
Q 3559 1806 3559 1356 
Q 3559 666 3084 287 
Q 2609 -91 1734 -91 
Q 1441 -91 1130 -33 
Q 819 25 488 141 
L 488 750 
Q 750 597 1062 519 
Q 1375 441 1716 441 
Q 2309 441 2620 675 
Q 2931 909 2931 1356 
Q 2931 1769 2642 2001 
Q 2353 2234 1838 2234 
L 1294 2234 
L 1294 2753 
L 1863 2753 
Q 2328 2753 2575 2939 
Q 2822 3125 2822 3475 
Q 2822 3834 2567 4026 
Q 2313 4219 1838 4219 
Q 1578 4219 1281 4162 
Q 984 4106 628 3988 
L 628 4550 
Q 988 4650 1302 4700 
Q 1616 4750 1894 4750 
Q 2613 4750 3031 4423 
Q 3450 4097 3450 3541 
Q 3450 3153 3228 2886 
Q 3006 2619 2597 2516 
z
" transform="scale(0.015625)"/>
       </defs>
       <use xlink:href="#DejaVuSans-33"/>
      </g>
     </g>
    </g>
    <g id="xtick_11">
     <g id="line2d_19">
      <g>
       <use xlink:href="#m496fb7ea41" x="668.06321" y="248.24" style="stroke: #000000; stroke-width: 0.8"/>
      </g>
     </g>
     <g id="text_9">
      <!-- 4 -->
      <g transform="translate(664.88196 262.838437) scale(0.1 -0.1)">
       <defs>
        <path id="DejaVuSans-34" d="M 2419 4116 
L 825 1625 
L 2419 1625 
L 2419 4116 
z
M 2253 4666 
L 3047 4666 
L 3047 1625 
L 3713 1625 
L 3713 1100 
L 3047 1100 
L 3047 0 
L 2419 0 
L 2419 1100 
L 313 1100 
L 313 1709 
L 2253 4666 
z
" transform="scale(0.015625)"/>
       </defs>
       <use xlink:href="#DejaVuSans-34"/>
      </g>
     </g>
    </g>
    <g id="xtick_12">
     <g id="line2d_20">
      <g>
       <use xlink:href="#m496fb7ea41" x="812.981392" y="248.24" style="stroke: #000000; stroke-width: 0.8"/>
      </g>
     </g>
     <g id="text_10">
      <!-- 5 -->
      <g transform="translate(809.800142 262.838437) scale(0.1 -0.1)">
       <use xlink:href="#DejaVuSans-35"/>
      </g>
     </g>
    </g>
    <g id="text_11">
     <!-- Time -->
     <g transform="translate(438.452344 276.516562) scale(0.1 -0.1)">
      <defs>
       <path id="DejaVuSans-54" d="M -19 4666 
L 3928 4666 
L 3928 4134 
L 2272 4134 
L 2272 0 
L 1638 0 
L 1638 4134 
L -19 4134 
L -19 4666 
z
" transform="scale(0.015625)"/>
       <path id="DejaVuSans-69" d="M 603 3500 
L 1178 3500 
L 1178 0 
L 603 0 
L 603 3500 
z
M 603 4863 
L 1178 4863 
L 1178 4134 
L 603 4134 
L 603 4863 
z
" transform="scale(0.015625)"/>
       <path id="DejaVuSans-6d" d="M 3328 2828 
Q 3544 3216 3844 3400 
Q 4144 3584 4550 3584 
Q 5097 3584 5394 3201 
Q 5691 2819 5691 2113 
L 5691 0 
L 5113 0 
L 5113 2094 
Q 5113 2597 4934 2840 
Q 4756 3084 4391 3084 
Q 3944 3084 3684 2787 
Q 3425 2491 3425 1978 
L 3425 0 
L 2847 0 
L 2847 2094 
Q 2847 2600 2669 2842 
Q 2491 3084 2119 3084 
Q 1678 3084 1418 2786 
Q 1159 2488 1159 1978 
L 1159 0 
L 581 0 
L 581 3500 
L 1159 3500 
L 1159 2956 
Q 1356 3278 1631 3431 
Q 1906 3584 2284 3584 
Q 2666 3584 2933 3390 
Q 3200 3197 3328 2828 
z
" transform="scale(0.015625)"/>
       <path id="DejaVuSans-65" d="M 3597 1894 
L 3597 1613 
L 953 1613 
Q 991 1019 1311 708 
Q 1631 397 2203 397 
Q 2534 397 2845 478 
Q 3156 559 3463 722 
L 3463 178 
Q 3153 47 2828 -22 
Q 2503 -91 2169 -91 
Q 1331 -91 842 396 
Q 353 884 353 1716 
Q 353 2575 817 3079 
Q 1281 3584 2069 3584 
Q 2775 3584 3186 3129 
Q 3597 2675 3597 1894 
z
M 3022 2063 
Q 3016 2534 2758 2815 
Q 2500 3097 2075 3097 
Q 1594 3097 1305 2825 
Q 1016 2553 972 2059 
L 3022 2063 
z
" transform="scale(0.015625)"/>
      </defs>
      <use xlink:href="#DejaVuSans-54"/>
      <use xlink:href="#DejaVuSans-69" transform="translate(57.958984 0)"/>
      <use xlink:href="#DejaVuSans-6d" transform="translate(85.742188 0)"/>
      <use xlink:href="#DejaVuSans-65" transform="translate(183.154297 0)"/>
     </g>
    </g>
   </g>
   <g id="matplotlib.axis_4">
    <g id="ytick_4">
     <g id="line2d_21">
      <g>
       <use xlink:href="#m5d6fc402f5" x="52.160938" y="224.176274" style="stroke: #000000; stroke-width: 0.8"/>
      </g>
     </g>
     <g id="text_12">
      <!-- −1 -->
      <g transform="translate(30.41875 227.975492) scale(0.1 -0.1)">
       <use xlink:href="#DejaVuSans-2212"/>
       <use xlink:href="#DejaVuSans-31" transform="translate(83.789062 0)"/>
      </g>
     </g>
    </g>
    <g id="ytick_5">
     <g id="line2d_22">
      <g>
       <use xlink:href="#m5d6fc402f5" x="52.160938" y="199.600171" style="stroke: #000000; stroke-width: 0.8"/>
      </g>
     </g>
     <g id="text_13">
      <!-- 0 -->
      <g transform="translate(38.798438 203.39939) scale(0.1 -0.1)">
       <use xlink:href="#DejaVuSans-30"/>
      </g>
     </g>
    </g>
    <g id="ytick_6">
     <g id="line2d_23">
      <g>
       <use xlink:href="#m5d6fc402f5" x="52.160938" y="175.024069" style="stroke: #000000; stroke-width: 0.8"/>
      </g>
     </g>
     <g id="text_14">
      <!-- 1 -->
      <g transform="translate(38.798438 178.823288) scale(0.1 -0.1)">
       <use xlink:href="#DejaVuSans-31"/>
      </g>
     </g>
    </g>
    <g id="text_15">
     <!-- $x1$ -->
     <g transform="translate(24.339063 205.815) rotate(-90) scale(0.1 -0.1)">
      <use xlink:href="#DejaVuSans-Oblique-78" transform="translate(0 0.09375)"/>
      <use xlink:href="#DejaVuSans-31" transform="translate(59.179688 0.09375)"/>
     </g>
    </g>
   </g>
   <g id="line2d_24">
    <path d="M 88.390483 194.684951 
L 114.528031 212.271389 
L 123.240547 217.817507 
L 130.500977 222.194429 
L 137.761407 226.291271 
L 143.569751 229.332749 
L 149.378095 232.137658 
L 155.186439 234.683073 
L 160.994782 236.948239 
L 166.803126 238.914814 
L 171.159384 240.184188 
L 175.515642 241.270908 
L 179.8719 242.170123 
L 184.228158 242.87775 
L 188.584416 243.390624 
L 192.940674 243.706444 
L 197.296932 243.823754 
L 201.65319 243.742072 
L 206.009448 243.461727 
L 210.365706 242.984 
L 214.721964 242.31105 
L 219.078222 241.44587 
L 223.43448 240.392398 
L 227.790738 239.155341 
L 232.146996 237.740292 
L 237.95534 235.587853 
L 243.763684 233.147813 
L 249.572028 230.440025 
L 255.380372 227.486636 
L 261.188716 224.311682 
L 268.449146 220.070349 
L 275.709576 215.575055 
L 284.422092 209.923377 
L 297.490866 201.130848 
L 316.367983 188.415218 
L 325.080499 182.800735 
L 332.340929 178.349582 
L 339.601359 174.165795 
L 345.409703 171.046861 
L 351.218047 168.157645 
L 357.026391 165.520794 
L 362.834735 163.156957 
L 368.643079 161.084756 
L 372.999337 159.731985 
L 377.355595 158.558636 
L 381.711853 157.569968 
L 386.068111 156.770467 
L 390.424369 156.163691 
L 394.780627 155.752396 
L 399.136885 155.538426 
L 403.493143 155.522727 
L 407.849401 155.705409 
L 412.205659 156.085607 
L 416.561917 156.661638 
L 420.918175 157.430903 
L 425.274433 158.389922 
L 429.630691 159.534419 
L 433.986949 160.859208 
L 439.795293 162.895687 
L 445.603637 165.225885 
L 451.41198 167.831413 
L 457.220324 170.691859 
L 463.028668 173.784802 
L 470.289098 177.940421 
L 477.549528 182.368594 
L 486.262044 187.962763 
L 497.878732 195.729623 
L 521.112108 211.382222 
L 529.824624 216.970477 
L 537.085054 221.393988 
L 544.345484 225.547278 
L 550.153828 228.640657 
L 555.962172 231.503109 
L 561.770516 234.111253 
L 567.57886 236.443802 
L 573.387204 238.481827 
L 577.743462 239.807108 
L 582.09972 240.951433 
L 586.455978 241.909683 
L 590.812236 242.677531 
L 595.168494 243.251515 
L 599.524751 243.629077 
L 603.881009 243.808478 
L 608.237267 243.788947 
L 612.593525 243.570556 
L 616.949783 243.154281 
L 621.306041 242.542024 
L 625.662299 241.736497 
L 630.018557 240.741361 
L 634.374815 239.561084 
L 638.731073 238.200972 
L 644.539417 236.118502 
L 650.347761 233.74414 
L 656.156105 231.097162 
L 661.964449 228.199208 
L 667.772793 225.073913 
L 675.033223 220.886073 
L 682.293653 216.434256 
L 691.006169 210.820758 
L 702.622857 203.040636 
L 725.856233 187.402823 
L 734.568749 181.834766 
L 741.829179 177.43583 
L 749.089608 173.315842 
L 754.897952 170.255636 
L 760.706296 167.431354 
L 766.51464 164.86512 
L 772.322984 162.57706 
L 778.131328 160.58524 
L 782.487586 159.295391 
L 786.843844 158.186918 
L 791.200102 157.26483 
L 795.55636 156.533239 
L 799.912618 155.995476 
L 804.268876 155.653935 
L 808.625134 155.510157 
L 812.981392 155.564797 
L 812.981392 155.564797 
" clip-path="url(#p9eca0eed27)" style="fill: none; stroke-dasharray: 22.4,5.6,3.5,5.6; stroke-dashoffset: 0; stroke: #0000ff; stroke-opacity: 0.8; stroke-width: 3.5"/>
   </g>
   <g id="patch_8">
    <path d="M 52.160938 248.24 
L 52.160938 151.09 
" style="fill: none; stroke: #000000; stroke-width: 0.8; stroke-linejoin: miter; stroke-linecap: square"/>
   </g>
   <g id="patch_9">
    <path d="M 849.210937 248.24 
L 849.210937 151.09 
" style="fill: none; stroke: #000000; stroke-width: 0.8; stroke-linejoin: miter; stroke-linecap: square"/>
   </g>
   <g id="patch_10">
    <path d="M 52.160938 248.24 
L 849.210938 248.24 
" style="fill: none; stroke: #000000; stroke-width: 0.8; stroke-linejoin: miter; stroke-linecap: square"/>
   </g>
   <g id="patch_11">
    <path d="M 52.160938 151.09 
L 849.210938 151.09 
" style="fill: none; stroke: #000000; stroke-width: 0.8; stroke-linejoin: miter; stroke-linecap: square"/>
   </g>
   <g id="line2d_25">
    <path d="M 88.390483 194.684951 
L 97.102999 200.507937 
L 123.240547 218.256571 
L 129.048891 221.79107 
L 134.857235 225.018527 
L 139.213493 227.215939 
L 143.569751 229.217118 
L 147.926009 231.025559 
L 153.734353 233.154456 
L 159.542696 234.990286 
L 165.35104 236.566877 
L 171.159384 237.912198 
L 176.967728 239.042372 
L 182.776072 239.958366 
L 188.584416 240.645877 
L 194.39276 241.07777 
L 198.749018 241.212875 
L 203.105276 241.168592 
L 207.461534 240.930244 
L 211.817792 240.485461 
L 216.17405 239.825957 
L 220.530308 238.9475 
L 224.886566 237.850901 
L 229.242824 236.541534 
L 233.599082 235.028781 
L 237.95534 233.325771 
L 243.763684 230.78635 
L 249.572028 227.978476 
L 255.380372 224.946571 
L 262.640802 220.908879 
L 271.353318 215.806568 
L 285.874178 206.99146 
L 303.299209 196.455747 
L 313.463811 190.574717 
L 322.176327 185.801883 
L 329.436757 182.070049 
L 336.697187 178.605705 
L 342.505531 176.051664 
L 348.313875 173.706882 
L 354.122219 171.580712 
L 359.930563 169.677084 
L 365.738907 167.995384 
L 371.547251 166.532624 
L 377.355595 165.28632 
L 383.163939 164.257376 
L 388.972283 163.452267 
L 394.780627 162.884163 
L 400.588971 162.572605 
L 406.397315 162.541544 
L 410.753573 162.717542 
L 415.109831 163.075495 
L 419.466089 163.623239 
L 423.822347 164.365902 
L 428.178605 165.304751 
L 432.534863 166.436615 
L 436.891121 167.754063 
L 442.699465 169.777871 
L 448.507809 172.07169 
L 454.316152 174.590592 
L 461.576582 177.985173 
L 470.289098 182.313097 
L 481.905786 188.348242 
L 499.330818 197.683704 
L 516.75585 206.987302 
L 525.468366 211.419495 
L 532.728796 214.895789 
L 539.989226 218.114284 
L 545.79757 220.475907 
L 551.605914 222.63513 
L 557.414258 224.588101 
L 563.222602 226.336613 
L 569.030946 227.88545 
L 574.83929 229.239339 
L 580.647634 230.400288 
L 586.455978 231.365595 
L 592.264322 232.126941 
L 598.072666 232.670547 
L 603.881009 232.978445 
L 609.689353 233.030787 
L 615.497697 232.808584 
L 621.306041 232.29649 
L 625.662299 231.716243 
L 630.018557 230.966404 
L 635.826901 229.705654 
L 641.635245 228.156818 
L 647.443589 226.338105 
L 653.251933 224.274008 
L 659.060277 221.99378 
L 666.320707 218.88903 
L 675.033223 214.877714 
L 686.649911 209.228926 
L 712.787459 196.378933 
L 722.952061 191.67032 
L 731.664577 187.874967 
L 738.925007 184.918793 
L 746.185436 182.175785 
L 753.445866 179.665113 
L 760.706296 177.401268 
L 767.966726 175.394635 
L 775.227156 173.653219 
L 782.487586 172.185324 
L 788.29593 171.215514 
L 794.104274 170.436348 
L 799.912618 169.8587 
L 805.720962 169.495704 
L 811.529306 169.361855 
L 812.981392 169.365918 
L 812.981392 169.365918 
" clip-path="url(#p9eca0eed27)" style="fill: none; stroke-dasharray: 3.5,5.775; stroke-dashoffset: 0; stroke: #008000; stroke-opacity: 0.8; stroke-width: 3.5"/>
   </g>
   <g id="line2d_26">
    <path d="M 88.390483 194.684951 
L 105.815515 206.512134 
L 114.528031 212.16928 
L 121.788461 216.655421 
L 129.048891 220.877012 
L 134.857235 224.030406 
L 140.665579 226.959427 
L 146.473923 229.642796 
L 152.282267 232.061389 
L 158.09061 234.198367 
L 163.898954 236.03929 
L 168.255212 237.21841 
L 172.61147 238.220167 
L 176.967728 239.041262 
L 181.323986 239.679285 
L 185.680244 240.132657 
L 190.036502 240.400599 
L 194.39276 240.483244 
L 198.749018 240.381483 
L 203.105276 240.09708 
L 207.461534 239.6326 
L 211.817792 238.991361 
L 216.17405 238.177519 
L 221.982394 236.832384 
L 227.790738 235.202608 
L 233.599082 233.303863 
L 239.407426 231.15381 
L 245.21577 228.77195 
L 251.024114 226.179447 
L 258.284544 222.677242 
L 265.544974 218.928428 
L 274.25749 214.17423 
L 285.874178 207.548325 
L 312.011725 192.497212 
L 320.724241 187.755272 
L 327.984671 184.012822 
L 335.245101 180.507994 
L 342.505531 177.281664 
L 348.313875 174.926083 
L 354.122219 172.789376 
L 359.930563 170.886565 
L 365.738907 169.230666 
L 371.547251 167.832582 
L 377.355595 166.70107 
L 383.163939 165.842676 
L 388.972283 165.261711 
L 394.780627 164.960237 
L 400.588971 164.938045 
L 406.397315 165.192707 
L 412.205659 165.719611 
L 418.014003 166.512021 
L 423.822347 167.561146 
L 429.630691 168.85621 
L 435.439035 170.384585 
L 441.247379 172.131897 
L 447.055723 174.082166 
L 454.316152 176.77869 
L 461.576582 179.728013 
L 470.289098 183.544887 
L 480.4537 188.288611 
L 494.97456 195.378387 
L 515.303764 205.298966 
L 525.468366 209.990568 
L 534.180882 213.754058 
L 541.441312 216.659196 
L 548.701742 219.318128 
L 555.962172 221.700609 
L 561.770516 223.389634 
L 567.57886 224.873053 
L 573.387204 226.140939 
L 579.195548 227.185185 
L 585.003892 227.999538 
L 590.812236 228.579628 
L 596.62058 228.923018 
L 602.428923 229.029174 
L 608.237267 228.899461 
L 614.045611 228.537109 
L 619.853955 227.947169 
L 625.662299 227.136477 
L 631.470643 226.113562 
L 637.278987 224.888567 
L 643.087331 223.47315 
L 650.347761 221.45613 
L 657.608191 219.190429 
L 664.868621 216.707152 
L 673.581137 213.487257 
L 683.745739 209.477731 
L 698.266599 203.471963 
L 720.047889 194.459829 
L 730.212491 190.49704 
L 738.925007 187.324532 
L 746.185436 184.880299 
L 753.445866 182.647785 
L 760.706296 180.652326 
L 767.966726 178.916012 
L 773.77507 177.726165 
L 779.583414 176.721992 
L 785.391758 175.909779 
L 791.200102 175.294213 
L 797.008446 174.878373 
L 802.81679 174.66372 
L 808.625134 174.6501 
L 812.981392 174.770806 
L 812.981392 174.770806 
" clip-path="url(#p9eca0eed27)" style="fill: none; stroke-dasharray: 12.95,5.6; stroke-dashoffset: 0; stroke: #ff0000; stroke-opacity: 0.8; stroke-width: 3.5"/>
   </g>
  </g>
  <g id="text_16">
   <!-- State Variable Simulation Comparison -->
   <g transform="translate(276.303437 20.1175) scale(0.16 -0.16)">
    <defs>
     <path id="DejaVuSans-53" d="M 3425 4513 
L 3425 3897 
Q 3066 4069 2747 4153 
Q 2428 4238 2131 4238 
Q 1616 4238 1336 4038 
Q 1056 3838 1056 3469 
Q 1056 3159 1242 3001 
Q 1428 2844 1947 2747 
L 2328 2669 
Q 3034 2534 3370 2195 
Q 3706 1856 3706 1288 
Q 3706 609 3251 259 
Q 2797 -91 1919 -91 
Q 1588 -91 1214 -16 
Q 841 59 441 206 
L 441 856 
Q 825 641 1194 531 
Q 1563 422 1919 422 
Q 2459 422 2753 634 
Q 3047 847 3047 1241 
Q 3047 1584 2836 1778 
Q 2625 1972 2144 2069 
L 1759 2144 
Q 1053 2284 737 2584 
Q 422 2884 422 3419 
Q 422 4038 858 4394 
Q 1294 4750 2059 4750 
Q 2388 4750 2728 4690 
Q 3069 4631 3425 4513 
z
" transform="scale(0.015625)"/>
     <path id="DejaVuSans-74" d="M 1172 4494 
L 1172 3500 
L 2356 3500 
L 2356 3053 
L 1172 3053 
L 1172 1153 
Q 1172 725 1289 603 
Q 1406 481 1766 481 
L 2356 481 
L 2356 0 
L 1766 0 
Q 1100 0 847 248 
Q 594 497 594 1153 
L 594 3053 
L 172 3053 
L 172 3500 
L 594 3500 
L 594 4494 
L 1172 4494 
z
" transform="scale(0.015625)"/>
     <path id="DejaVuSans-61" d="M 2194 1759 
Q 1497 1759 1228 1600 
Q 959 1441 959 1056 
Q 959 750 1161 570 
Q 1363 391 1709 391 
Q 2188 391 2477 730 
Q 2766 1069 2766 1631 
L 2766 1759 
L 2194 1759 
z
M 3341 1997 
L 3341 0 
L 2766 0 
L 2766 531 
Q 2569 213 2275 61 
Q 1981 -91 1556 -91 
Q 1019 -91 701 211 
Q 384 513 384 1019 
Q 384 1609 779 1909 
Q 1175 2209 1959 2209 
L 2766 2209 
L 2766 2266 
Q 2766 2663 2505 2880 
Q 2244 3097 1772 3097 
Q 1472 3097 1187 3025 
Q 903 2953 641 2809 
L 641 3341 
Q 956 3463 1253 3523 
Q 1550 3584 1831 3584 
Q 2591 3584 2966 3190 
Q 3341 2797 3341 1997 
z
" transform="scale(0.015625)"/>
     <path id="DejaVuSans-20" transform="scale(0.015625)"/>
     <path id="DejaVuSans-56" d="M 1831 0 
L 50 4666 
L 709 4666 
L 2188 738 
L 3669 4666 
L 4325 4666 
L 2547 0 
L 1831 0 
z
" transform="scale(0.015625)"/>
     <path id="DejaVuSans-72" d="M 2631 2963 
Q 2534 3019 2420 3045 
Q 2306 3072 2169 3072 
Q 1681 3072 1420 2755 
Q 1159 2438 1159 1844 
L 1159 0 
L 581 0 
L 581 3500 
L 1159 3500 
L 1159 2956 
Q 1341 3275 1631 3429 
Q 1922 3584 2338 3584 
Q 2397 3584 2469 3576 
Q 2541 3569 2628 3553 
L 2631 2963 
z
" transform="scale(0.015625)"/>
     <path id="DejaVuSans-62" d="M 3116 1747 
Q 3116 2381 2855 2742 
Q 2594 3103 2138 3103 
Q 1681 3103 1420 2742 
Q 1159 2381 1159 1747 
Q 1159 1113 1420 752 
Q 1681 391 2138 391 
Q 2594 391 2855 752 
Q 3116 1113 3116 1747 
z
M 1159 2969 
Q 1341 3281 1617 3432 
Q 1894 3584 2278 3584 
Q 2916 3584 3314 3078 
Q 3713 2572 3713 1747 
Q 3713 922 3314 415 
Q 2916 -91 2278 -91 
Q 1894 -91 1617 61 
Q 1341 213 1159 525 
L 1159 0 
L 581 0 
L 581 4863 
L 1159 4863 
L 1159 2969 
z
" transform="scale(0.015625)"/>
     <path id="DejaVuSans-6c" d="M 603 4863 
L 1178 4863 
L 1178 0 
L 603 0 
L 603 4863 
z
" transform="scale(0.015625)"/>
     <path id="DejaVuSans-75" d="M 544 1381 
L 544 3500 
L 1119 3500 
L 1119 1403 
Q 1119 906 1312 657 
Q 1506 409 1894 409 
Q 2359 409 2629 706 
Q 2900 1003 2900 1516 
L 2900 3500 
L 3475 3500 
L 3475 0 
L 2900 0 
L 2900 538 
Q 2691 219 2414 64 
Q 2138 -91 1772 -91 
Q 1169 -91 856 284 
Q 544 659 544 1381 
z
M 1991 3584 
L 1991 3584 
z
" transform="scale(0.015625)"/>
     <path id="DejaVuSans-6f" d="M 1959 3097 
Q 1497 3097 1228 2736 
Q 959 2375 959 1747 
Q 959 1119 1226 758 
Q 1494 397 1959 397 
Q 2419 397 2687 759 
Q 2956 1122 2956 1747 
Q 2956 2369 2687 2733 
Q 2419 3097 1959 3097 
z
M 1959 3584 
Q 2709 3584 3137 3096 
Q 3566 2609 3566 1747 
Q 3566 888 3137 398 
Q 2709 -91 1959 -91 
Q 1206 -91 779 398 
Q 353 888 353 1747 
Q 353 2609 779 3096 
Q 1206 3584 1959 3584 
z
" transform="scale(0.015625)"/>
     <path id="DejaVuSans-6e" d="M 3513 2113 
L 3513 0 
L 2938 0 
L 2938 2094 
Q 2938 2591 2744 2837 
Q 2550 3084 2163 3084 
Q 1697 3084 1428 2787 
Q 1159 2491 1159 1978 
L 1159 0 
L 581 0 
L 581 3500 
L 1159 3500 
L 1159 2956 
Q 1366 3272 1645 3428 
Q 1925 3584 2291 3584 
Q 2894 3584 3203 3211 
Q 3513 2838 3513 2113 
z
" transform="scale(0.015625)"/>
     <path id="DejaVuSans-43" d="M 4122 4306 
L 4122 3641 
Q 3803 3938 3442 4084 
Q 3081 4231 2675 4231 
Q 1875 4231 1450 3742 
Q 1025 3253 1025 2328 
Q 1025 1406 1450 917 
Q 1875 428 2675 428 
Q 3081 428 3442 575 
Q 3803 722 4122 1019 
L 4122 359 
Q 3791 134 3420 21 
Q 3050 -91 2638 -91 
Q 1578 -91 968 557 
Q 359 1206 359 2328 
Q 359 3453 968 4101 
Q 1578 4750 2638 4750 
Q 3056 4750 3426 4639 
Q 3797 4528 4122 4306 
z
" transform="scale(0.015625)"/>
     <path id="DejaVuSans-70" d="M 1159 525 
L 1159 -1331 
L 581 -1331 
L 581 3500 
L 1159 3500 
L 1159 2969 
Q 1341 3281 1617 3432 
Q 1894 3584 2278 3584 
Q 2916 3584 3314 3078 
Q 3713 2572 3713 1747 
Q 3713 922 3314 415 
Q 2916 -91 2278 -91 
Q 1894 -91 1617 61 
Q 1341 213 1159 525 
z
M 3116 1747 
Q 3116 2381 2855 2742 
Q 2594 3103 2138 3103 
Q 1681 3103 1420 2742 
Q 1159 2381 1159 1747 
Q 1159 1113 1420 752 
Q 1681 391 2138 391 
Q 2594 391 2855 752 
Q 3116 1113 3116 1747 
z
" transform="scale(0.015625)"/>
     <path id="DejaVuSans-73" d="M 2834 3397 
L 2834 2853 
Q 2591 2978 2328 3040 
Q 2066 3103 1784 3103 
Q 1356 3103 1142 2972 
Q 928 2841 928 2578 
Q 928 2378 1081 2264 
Q 1234 2150 1697 2047 
L 1894 2003 
Q 2506 1872 2764 1633 
Q 3022 1394 3022 966 
Q 3022 478 2636 193 
Q 2250 -91 1575 -91 
Q 1294 -91 989 -36 
Q 684 19 347 128 
L 347 722 
Q 666 556 975 473 
Q 1284 391 1588 391 
Q 1994 391 2212 530 
Q 2431 669 2431 922 
Q 2431 1156 2273 1281 
Q 2116 1406 1581 1522 
L 1381 1569 
Q 847 1681 609 1914 
Q 372 2147 372 2553 
Q 372 3047 722 3315 
Q 1072 3584 1716 3584 
Q 2034 3584 2315 3537 
Q 2597 3491 2834 3397 
z
" transform="scale(0.015625)"/>
    </defs>
    <use xlink:href="#DejaVuSans-53"/>
    <use xlink:href="#DejaVuSans-74" transform="translate(63.476562 0)"/>
    <use xlink:href="#DejaVuSans-61" transform="translate(102.685547 0)"/>
    <use xlink:href="#DejaVuSans-74" transform="translate(163.964844 0)"/>
    <use xlink:href="#DejaVuSans-65" transform="translate(203.173828 0)"/>
    <use xlink:href="#DejaVuSans-20" transform="translate(264.697266 0)"/>
    <use xlink:href="#DejaVuSans-56" transform="translate(296.484375 0)"/>
    <use xlink:href="#DejaVuSans-61" transform="translate(357.142578 0)"/>
    <use xlink:href="#DejaVuSans-72" transform="translate(418.421875 0)"/>
    <use xlink:href="#DejaVuSans-69" transform="translate(459.535156 0)"/>
    <use xlink:href="#DejaVuSans-61" transform="translate(487.318359 0)"/>
    <use xlink:href="#DejaVuSans-62" transform="translate(548.597656 0)"/>
    <use xlink:href="#DejaVuSans-6c" transform="translate(612.074219 0)"/>
    <use xlink:href="#DejaVuSans-65" transform="translate(639.857422 0)"/>
    <use xlink:href="#DejaVuSans-20" transform="translate(701.380859 0)"/>
    <use xlink:href="#DejaVuSans-53" transform="translate(733.167969 0)"/>
    <use xlink:href="#DejaVuSans-69" transform="translate(796.644531 0)"/>
    <use xlink:href="#DejaVuSans-6d" transform="translate(824.427734 0)"/>
    <use xlink:href="#DejaVuSans-75" transform="translate(921.839844 0)"/>
    <use xlink:href="#DejaVuSans-6c" transform="translate(985.21875 0)"/>
    <use xlink:href="#DejaVuSans-61" transform="translate(1013.001953 0)"/>
    <use xlink:href="#DejaVuSans-74" transform="translate(1074.28125 0)"/>
    <use xlink:href="#DejaVuSans-69" transform="translate(1113.490234 0)"/>
    <use xlink:href="#DejaVuSans-6f" transform="translate(1141.273438 0)"/>
    <use xlink:href="#DejaVuSans-6e" transform="translate(1202.455078 0)"/>
    <use xlink:href="#DejaVuSans-20" transform="translate(1265.833984 0)"/>
    <use xlink:href="#DejaVuSans-43" transform="translate(1297.621094 0)"/>
    <use xlink:href="#DejaVuSans-6f" transform="translate(1367.445312 0)"/>
    <use xlink:href="#DejaVuSans-6d" transform="translate(1428.626953 0)"/>
    <use xlink:href="#DejaVuSans-70" transform="translate(1526.039062 0)"/>
    <use xlink:href="#DejaVuSans-61" transform="translate(1589.515625 0)"/>
    <use xlink:href="#DejaVuSans-72" transform="translate(1650.794922 0)"/>
    <use xlink:href="#DejaVuSans-69" transform="translate(1691.908203 0)"/>
    <use xlink:href="#DejaVuSans-73" transform="translate(1719.691406 0)"/>
    <use xlink:href="#DejaVuSans-6f" transform="translate(1771.791016 0)"/>
    <use xlink:href="#DejaVuSans-6e" transform="translate(1832.972656 0)"/>
   </g>
  </g>
  <g id="legend_1">
   <g id="patch_12">
    <path d="M 744.139063 66.7125 
L 855.210938 66.7125 
Q 857.210938 66.7125 857.210938 64.7125 
L 857.210938 7 
Q 857.210938 5 855.210938 5 
L 744.139063 5 
Q 742.139063 5 742.139063 7 
L 742.139063 64.7125 
Q 742.139063 66.7125 744.139063 66.7125 
z
" style="fill: #ffffff; opacity: 0.5; stroke: #cccccc; stroke-linejoin: miter"/>
   </g>
   <g id="line2d_27">
    <path d="M 746.139063 13.098437 
L 756.139063 13.098437 
L 766.139063 13.098437 
" style="fill: none; stroke: #000000; stroke-opacity: 0.4; stroke-width: 6; stroke-linecap: square"/>
   </g>
   <g id="text_17">
    <!-- True Trajectory -->
    <g transform="translate(774.139063 16.598437) scale(0.1 -0.1)">
     <defs>
      <path id="DejaVuSans-6a" d="M 603 3500 
L 1178 3500 
L 1178 -63 
Q 1178 -731 923 -1031 
Q 669 -1331 103 -1331 
L -116 -1331 
L -116 -844 
L 38 -844 
Q 366 -844 484 -692 
Q 603 -541 603 -63 
L 603 3500 
z
M 603 4863 
L 1178 4863 
L 1178 4134 
L 603 4134 
L 603 4863 
z
" transform="scale(0.015625)"/>
      <path id="DejaVuSans-63" d="M 3122 3366 
L 3122 2828 
Q 2878 2963 2633 3030 
Q 2388 3097 2138 3097 
Q 1578 3097 1268 2742 
Q 959 2388 959 1747 
Q 959 1106 1268 751 
Q 1578 397 2138 397 
Q 2388 397 2633 464 
Q 2878 531 3122 666 
L 3122 134 
Q 2881 22 2623 -34 
Q 2366 -91 2075 -91 
Q 1284 -91 818 406 
Q 353 903 353 1747 
Q 353 2603 823 3093 
Q 1294 3584 2113 3584 
Q 2378 3584 2631 3529 
Q 2884 3475 3122 3366 
z
" transform="scale(0.015625)"/>
      <path id="DejaVuSans-79" d="M 2059 -325 
Q 1816 -950 1584 -1140 
Q 1353 -1331 966 -1331 
L 506 -1331 
L 506 -850 
L 844 -850 
Q 1081 -850 1212 -737 
Q 1344 -625 1503 -206 
L 1606 56 
L 191 3500 
L 800 3500 
L 1894 763 
L 2988 3500 
L 3597 3500 
L 2059 -325 
z
" transform="scale(0.015625)"/>
     </defs>
     <use xlink:href="#DejaVuSans-54"/>
     <use xlink:href="#DejaVuSans-72" transform="translate(46.333984 0)"/>
     <use xlink:href="#DejaVuSans-75" transform="translate(87.447266 0)"/>
     <use xlink:href="#DejaVuSans-65" transform="translate(150.826172 0)"/>
     <use xlink:href="#DejaVuSans-20" transform="translate(212.349609 0)"/>
     <use xlink:href="#DejaVuSans-54" transform="translate(244.136719 0)"/>
     <use xlink:href="#DejaVuSans-72" transform="translate(290.470703 0)"/>
     <use xlink:href="#DejaVuSans-61" transform="translate(331.583984 0)"/>
     <use xlink:href="#DejaVuSans-6a" transform="translate(392.863281 0)"/>
     <use xlink:href="#DejaVuSans-65" transform="translate(420.646484 0)"/>
     <use xlink:href="#DejaVuSans-63" transform="translate(482.169922 0)"/>
     <use xlink:href="#DejaVuSans-74" transform="translate(537.150391 0)"/>
     <use xlink:href="#DejaVuSans-6f" transform="translate(576.359375 0)"/>
     <use xlink:href="#DejaVuSans-72" transform="translate(637.541016 0)"/>
     <use xlink:href="#DejaVuSans-79" transform="translate(678.654297 0)"/>
    </g>
   </g>
   <g id="line2d_28">
    <path d="M 746.139063 27.776562 
L 756.139063 27.776562 
L 766.139063 27.776562 
" style="fill: none; stroke-dasharray: 12.95,5.6; stroke-dashoffset: 0; stroke: #ff0000; stroke-opacity: 0.8; stroke-width: 3.5"/>
   </g>
   <g id="text_18">
    <!-- AutoSINDy -->
    <g transform="translate(774.139063 31.276562) scale(0.1 -0.1)">
     <defs>
      <path id="DejaVuSans-41" d="M 2188 4044 
L 1331 1722 
L 3047 1722 
L 2188 4044 
z
M 1831 4666 
L 2547 4666 
L 4325 0 
L 3669 0 
L 3244 1197 
L 1141 1197 
L 716 0 
L 50 0 
L 1831 4666 
z
" transform="scale(0.015625)"/>
      <path id="DejaVuSans-49" d="M 628 4666 
L 1259 4666 
L 1259 0 
L 628 0 
L 628 4666 
z
" transform="scale(0.015625)"/>
      <path id="DejaVuSans-4e" d="M 628 4666 
L 1478 4666 
L 3547 763 
L 3547 4666 
L 4159 4666 
L 4159 0 
L 3309 0 
L 1241 3903 
L 1241 0 
L 628 0 
L 628 4666 
z
" transform="scale(0.015625)"/>
      <path id="DejaVuSans-44" d="M 1259 4147 
L 1259 519 
L 2022 519 
Q 2988 519 3436 956 
Q 3884 1394 3884 2338 
Q 3884 3275 3436 3711 
Q 2988 4147 2022 4147 
L 1259 4147 
z
M 628 4666 
L 1925 4666 
Q 3281 4666 3915 4102 
Q 4550 3538 4550 2338 
Q 4550 1131 3912 565 
Q 3275 0 1925 0 
L 628 0 
L 628 4666 
z
" transform="scale(0.015625)"/>
     </defs>
     <use xlink:href="#DejaVuSans-41"/>
     <use xlink:href="#DejaVuSans-75" transform="translate(68.408203 0)"/>
     <use xlink:href="#DejaVuSans-74" transform="translate(131.787109 0)"/>
     <use xlink:href="#DejaVuSans-6f" transform="translate(170.996094 0)"/>
     <use xlink:href="#DejaVuSans-53" transform="translate(232.177734 0)"/>
     <use xlink:href="#DejaVuSans-49" transform="translate(295.654297 0)"/>
     <use xlink:href="#DejaVuSans-4e" transform="translate(325.146484 0)"/>
     <use xlink:href="#DejaVuSans-44" transform="translate(399.951172 0)"/>
     <use xlink:href="#DejaVuSans-79" transform="translate(476.953125 0)"/>
    </g>
   </g>
   <g id="line2d_29">
    <path d="M 746.139063 42.454687 
L 756.139063 42.454687 
L 766.139063 42.454687 
" style="fill: none; stroke-dasharray: 3.5,5.775; stroke-dashoffset: 0; stroke: #008000; stroke-opacity: 0.8; stroke-width: 3.5"/>
   </g>
   <g id="text_19">
    <!-- Standard SINDy -->
    <g transform="translate(774.139063 45.954687) scale(0.1 -0.1)">
     <defs>
      <path id="DejaVuSans-64" d="M 2906 2969 
L 2906 4863 
L 3481 4863 
L 3481 0 
L 2906 0 
L 2906 525 
Q 2725 213 2448 61 
Q 2172 -91 1784 -91 
Q 1150 -91 751 415 
Q 353 922 353 1747 
Q 353 2572 751 3078 
Q 1150 3584 1784 3584 
Q 2172 3584 2448 3432 
Q 2725 3281 2906 2969 
z
M 947 1747 
Q 947 1113 1208 752 
Q 1469 391 1925 391 
Q 2381 391 2643 752 
Q 2906 1113 2906 1747 
Q 2906 2381 2643 2742 
Q 2381 3103 1925 3103 
Q 1469 3103 1208 2742 
Q 947 2381 947 1747 
z
" transform="scale(0.015625)"/>
     </defs>
     <use xlink:href="#DejaVuSans-53"/>
     <use xlink:href="#DejaVuSans-74" transform="translate(63.476562 0)"/>
     <use xlink:href="#DejaVuSans-61" transform="translate(102.685547 0)"/>
     <use xlink:href="#DejaVuSans-6e" transform="translate(163.964844 0)"/>
     <use xlink:href="#DejaVuSans-64" transform="translate(227.34375 0)"/>
     <use xlink:href="#DejaVuSans-61" transform="translate(290.820312 0)"/>
     <use xlink:href="#DejaVuSans-72" transform="translate(352.099609 0)"/>
     <use xlink:href="#DejaVuSans-64" transform="translate(391.462891 0)"/>
     <use xlink:href="#DejaVuSans-20" transform="translate(454.939453 0)"/>
     <use xlink:href="#DejaVuSans-53" transform="translate(486.726562 0)"/>
     <use xlink:href="#DejaVuSans-49" transform="translate(550.203125 0)"/>
     <use xlink:href="#DejaVuSans-4e" transform="translate(579.695312 0)"/>
     <use xlink:href="#DejaVuSans-44" transform="translate(654.5 0)"/>
     <use xlink:href="#DejaVuSans-79" transform="translate(731.501953 0)"/>
    </g>
   </g>
   <g id="line2d_30">
    <path d="M 746.139063 57.132812 
L 756.139063 57.132812 
L 766.139063 57.132812 
" style="fill: none; stroke-dasharray: 22.4,5.6,3.5,5.6; stroke-dashoffset: 0; stroke: #0000ff; stroke-opacity: 0.8; stroke-width: 3.5"/>
   </g>
   <g id="text_20">
    <!-- Standard PySR -->
    <g transform="translate(774.139063 60.632812) scale(0.1 -0.1)">
     <defs>
      <path id="DejaVuSans-50" d="M 1259 4147 
L 1259 2394 
L 2053 2394 
Q 2494 2394 2734 2622 
Q 2975 2850 2975 3272 
Q 2975 3691 2734 3919 
Q 2494 4147 2053 4147 
L 1259 4147 
z
M 628 4666 
L 2053 4666 
Q 2838 4666 3239 4311 
Q 3641 3956 3641 3272 
Q 3641 2581 3239 2228 
Q 2838 1875 2053 1875 
L 1259 1875 
L 1259 0 
L 628 0 
L 628 4666 
z
" transform="scale(0.015625)"/>
      <path id="DejaVuSans-52" d="M 2841 2188 
Q 3044 2119 3236 1894 
Q 3428 1669 3622 1275 
L 4263 0 
L 3584 0 
L 2988 1197 
Q 2756 1666 2539 1819 
Q 2322 1972 1947 1972 
L 1259 1972 
L 1259 0 
L 628 0 
L 628 4666 
L 2053 4666 
Q 2853 4666 3247 4331 
Q 3641 3997 3641 3322 
Q 3641 2881 3436 2590 
Q 3231 2300 2841 2188 
z
M 1259 4147 
L 1259 2491 
L 2053 2491 
Q 2509 2491 2742 2702 
Q 2975 2913 2975 3322 
Q 2975 3731 2742 3939 
Q 2509 4147 2053 4147 
L 1259 4147 
z
" transform="scale(0.015625)"/>
     </defs>
     <use xlink:href="#DejaVuSans-53"/>
     <use xlink:href="#DejaVuSans-74" transform="translate(63.476562 0)"/>
     <use xlink:href="#DejaVuSans-61" transform="translate(102.685547 0)"/>
     <use xlink:href="#DejaVuSans-6e" transform="translate(163.964844 0)"/>
     <use xlink:href="#DejaVuSans-64" transform="translate(227.34375 0)"/>
     <use xlink:href="#DejaVuSans-61" transform="translate(290.820312 0)"/>
     <use xlink:href="#DejaVuSans-72" transform="translate(352.099609 0)"/>
     <use xlink:href="#DejaVuSans-64" transform="translate(391.462891 0)"/>
     <use xlink:href="#DejaVuSans-20" transform="translate(454.939453 0)"/>
     <use xlink:href="#DejaVuSans-50" transform="translate(486.726562 0)"/>
     <use xlink:href="#DejaVuSans-79" transform="translate(547.029297 0)"/>
     <use xlink:href="#DejaVuSans-53" transform="translate(606.208984 0)"/>
     <use xlink:href="#DejaVuSans-52" transform="translate(669.685547 0)"/>
    </g>
   </g>
  </g>
 </g>
 <defs>
  <clipPath id="p25f88e27b9">
   <rect x="52.160938" y="39.64" width="797.05" height="97.15"/>
  </clipPath>
  <clipPath id="p9eca0eed27">
   <rect x="52.160938" y="151.09" width="797.05" height="97.15"/>
  </clipPath>
 </defs>
</svg>
