<?xml version="1.0" encoding="utf-8" standalone="no"?>
<!DOCTYPE svg PUBLIC "-//W3C//DTD SVG 1.1//EN"
  "http://www.w3.org/Graphics/SVG/1.1/DTD/svg11.dtd">
<svg xmlns:xlink="http://www.w3.org/1999/xlink" width="568.380312pt" height="567.994375pt" viewBox="0 0 568.380312 567.994375" xmlns="http://www.w3.org/2000/svg" version="1.1">
 <metadata>
  <rdf:RDF xmlns:dc="http://purl.org/dc/elements/1.1/" xmlns:cc="http://creativecommons.org/ns#" xmlns:rdf="http://www.w3.org/1999/02/22-rdf-syntax-ns#">
   <cc:Work>
    <dc:type rdf:resource="http://purl.org/dc/dcmitype/StillImage"/>
    <dc:date>2026-04-05T22:39:53.386677</dc:date>
    <dc:format>image/svg+xml</dc:format>
    <dc:creator>
     <cc:Agent>
      <dc:title>Matplotlib v3.10.7, https://matplotlib.org/</dc:title>
     </cc:Agent>
    </dc:creator>
   </cc:Work>
  </rdf:RDF>
 </metadata>
 <defs>
  <style type="text/css">*{stroke-linejoin: round; stroke-linecap: butt}</style>
 </defs>
 <g id="figure_1">
  <g id="patch_1">
   <path d="M 0 567.994375 
L 568.380312 567.994375 
L 568.380312 0 
L 0 0 
z
" style="fill: #ffffff"/>
  </g>
  <g id="axes_1">
   <g id="patch_2">
    <path d="M 42.620313 530.438125 
L 561.180312 530.438125 
L 561.180312 22.318125 
L 42.620313 22.318125 
z
" style="fill: #ffffff"/>
   </g>
   <g id="matplotlib.axis_1">
    <g id="xtick_1">
     <g id="line2d_1">
      <defs>
       <path id="m45fca23c79" d="M 0 0 
L 0 3.5 
" style="stroke: #000000; stroke-width: 0.8"/>
      </defs>
      <g>
       <use xlink:href="#m45fca23c79" x="70.136099" y="530.438125" style="stroke: #000000; stroke-width: 0.8"/>
      </g>
     </g>
     <g id="text_1">
      <!-- −2.0 -->
      <g transform="translate(57.994693 545.036562) scale(0.1 -0.1)">
       <defs>
        <path id="DejaVuSans-2212" d="M 678 2272 
L 4684 2272 
L 4684 1741 
L 678 1741 
L 678 2272 
z
" transform="scale(0.015625)"/>
        <path id="DejaVuSans-32" d="M 1228 531 
L 3431 531 
L 3431 0 
L 469 0 
L 469 531 
Q 828 903 1448 1529 
Q 2069 2156 2228 2338 
Q 2531 2678 2651 2914 
Q 2772 3150 2772 3378 
Q 2772 3750 2511 3984 
Q 2250 4219 1831 4219 
Q 1534 4219 1204 4116 
Q 875 4013 500 3803 
L 500 4441 
Q 881 4594 1212 4672 
Q 1544 4750 1819 4750 
Q 2544 4750 2975 4387 
Q 3406 4025 3406 3419 
Q 3406 3131 3298 2873 
Q 3191 2616 2906 2266 
Q 2828 2175 2409 1742 
Q 1991 1309 1228 531 
z
" transform="scale(0.015625)"/>
        <path id="DejaVuSans-2e" d="M 684 794 
L 1344 794 
L 1344 0 
L 684 0 
L 684 794 
z
" transform="scale(0.015625)"/>
        <path id="DejaVuSans-30" d="M 2034 4250 
Q 1547 4250 1301 3770 
Q 1056 3291 1056 2328 
Q 1056 1369 1301 889 
Q 1547 409 2034 409 
Q 2525 409 2770 889 
Q 3016 1369 3016 2328 
Q 3016 3291 2770 3770 
Q 2525 4250 2034 4250 
z
M 2034 4750 
Q 2819 4750 3233 4129 
Q 3647 3509 3647 2328 
Q 3647 1150 3233 529 
Q 2819 -91 2034 -91 
Q 1250 -91 836 529 
Q 422 1150 422 2328 
Q 422 3509 836 4129 
Q 1250 4750 2034 4750 
z
" transform="scale(0.015625)"/>
       </defs>
       <use xlink:href="#DejaVuSans-2212"/>
       <use xlink:href="#DejaVuSans-32" transform="translate(83.789062 0)"/>
       <use xlink:href="#DejaVuSans-2e" transform="translate(147.412109 0)"/>
       <use xlink:href="#DejaVuSans-30" transform="translate(179.199219 0)"/>
      </g>
     </g>
    </g>
    <g id="xtick_2">
     <g id="line2d_2">
      <g>
       <use xlink:href="#m45fca23c79" x="128.175568" y="530.438125" style="stroke: #000000; stroke-width: 0.8"/>
      </g>
     </g>
     <g id="text_2">
      <!-- −1.5 -->
      <g transform="translate(116.034161 545.036562) scale(0.1 -0.1)">
       <defs>
        <path id="DejaVuSans-31" d="M 794 531 
L 1825 531 
L 1825 4091 
L 703 3866 
L 703 4441 
L 1819 4666 
L 2450 4666 
L 2450 531 
L 3481 531 
L 3481 0 
L 794 0 
L 794 531 
z
" transform="scale(0.015625)"/>
        <path id="DejaVuSans-35" d="M 691 4666 
L 3169 4666 
L 3169 4134 
L 1269 4134 
L 1269 2991 
Q 1406 3038 1543 3061 
Q 1681 3084 1819 3084 
Q 2600 3084 3056 2656 
Q 3513 2228 3513 1497 
Q 3513 744 3044 326 
Q 2575 -91 1722 -91 
Q 1428 -91 1123 -41 
Q 819 9 494 109 
L 494 744 
Q 775 591 1075 516 
Q 1375 441 1709 441 
Q 2250 441 2565 725 
Q 2881 1009 2881 1497 
Q 2881 1984 2565 2268 
Q 2250 2553 1709 2553 
Q 1456 2553 1204 2497 
Q 953 2441 691 2322 
L 691 4666 
z
" transform="scale(0.015625)"/>
       </defs>
       <use xlink:href="#DejaVuSans-2212"/>
       <use xlink:href="#DejaVuSans-31" transform="translate(83.789062 0)"/>
       <use xlink:href="#DejaVuSans-2e" transform="translate(147.412109 0)"/>
       <use xlink:href="#DejaVuSans-35" transform="translate(179.199219 0)"/>
      </g>
     </g>
    </g>
    <g id="xtick_3">
     <g id="line2d_3">
      <g>
       <use xlink:href="#m45fca23c79" x="186.215036" y="530.438125" style="stroke: #000000; stroke-width: 0.8"/>
      </g>
     </g>
     <g id="text_3">
      <!-- −1.0 -->
      <g transform="translate(174.07363 545.036562) scale(0.1 -0.1)">
       <use xlink:href="#DejaVuSans-2212"/>
       <use xlink:href="#DejaVuSans-31" transform="translate(83.789062 0)"/>
       <use xlink:href="#DejaVuSans-2e" transform="translate(147.412109 0)"/>
       <use xlink:href="#DejaVuSans-30" transform="translate(179.199219 0)"/>
      </g>
     </g>
    </g>
    <g id="xtick_4">
     <g id="line2d_4">
      <g>
       <use xlink:href="#m45fca23c79" x="244.254505" y="530.438125" style="stroke: #000000; stroke-width: 0.8"/>
      </g>
     </g>
     <g id="text_4">
      <!-- −0.5 -->
      <g transform="translate(232.113099 545.036562) scale(0.1 -0.1)">
       <use xlink:href="#DejaVuSans-2212"/>
       <use xlink:href="#DejaVuSans-30" transform="translate(83.789062 0)"/>
       <use xlink:href="#DejaVuSans-2e" transform="translate(147.412109 0)"/>
       <use xlink:href="#DejaVuSans-35" transform="translate(179.199219 0)"/>
      </g>
     </g>
    </g>
    <g id="xtick_5">
     <g id="line2d_5">
      <g>
       <use xlink:href="#m45fca23c79" x="302.293974" y="530.438125" style="stroke: #000000; stroke-width: 0.8"/>
      </g>
     </g>
     <g id="text_5">
      <!-- 0.0 -->
      <g transform="translate(294.342412 545.036562) scale(0.1 -0.1)">
       <use xlink:href="#DejaVuSans-30"/>
       <use xlink:href="#DejaVuSans-2e" transform="translate(63.623047 0)"/>
       <use xlink:href="#DejaVuSans-30" transform="translate(95.410156 0)"/>
      </g>
     </g>
    </g>
    <g id="xtick_6">
     <g id="line2d_6">
      <g>
       <use xlink:href="#m45fca23c79" x="360.333443" y="530.438125" style="stroke: #000000; stroke-width: 0.8"/>
      </g>
     </g>
     <g id="text_6">
      <!-- 0.5 -->
      <g transform="translate(352.38188 545.036562) scale(0.1 -0.1)">
       <use xlink:href="#DejaVuSans-30"/>
       <use xlink:href="#DejaVuSans-2e" transform="translate(63.623047 0)"/>
       <use xlink:href="#DejaVuSans-35" transform="translate(95.410156 0)"/>
      </g>
     </g>
    </g>
    <g id="xtick_7">
     <g id="line2d_7">
      <g>
       <use xlink:href="#m45fca23c79" x="418.372912" y="530.438125" style="stroke: #000000; stroke-width: 0.8"/>
      </g>
     </g>
     <g id="text_7">
      <!-- 1.0 -->
      <g transform="translate(410.421349 545.036562) scale(0.1 -0.1)">
       <use xlink:href="#DejaVuSans-31"/>
       <use xlink:href="#DejaVuSans-2e" transform="translate(63.623047 0)"/>
       <use xlink:href="#DejaVuSans-30" transform="translate(95.410156 0)"/>
      </g>
     </g>
    </g>
    <g id="xtick_8">
     <g id="line2d_8">
      <g>
       <use xlink:href="#m45fca23c79" x="476.412381" y="530.438125" style="stroke: #000000; stroke-width: 0.8"/>
      </g>
     </g>
     <g id="text_8">
      <!-- 1.5 -->
      <g transform="translate(468.460818 545.036562) scale(0.1 -0.1)">
       <use xlink:href="#DejaVuSans-31"/>
       <use xlink:href="#DejaVuSans-2e" transform="translate(63.623047 0)"/>
       <use xlink:href="#DejaVuSans-35" transform="translate(95.410156 0)"/>
      </g>
     </g>
    </g>
    <g id="xtick_9">
     <g id="line2d_9">
      <g>
       <use xlink:href="#m45fca23c79" x="534.451849" y="530.438125" style="stroke: #000000; stroke-width: 0.8"/>
      </g>
     </g>
     <g id="text_9">
      <!-- 2.0 -->
      <g transform="translate(526.500287 545.036562) scale(0.1 -0.1)">
       <use xlink:href="#DejaVuSans-32"/>
       <use xlink:href="#DejaVuSans-2e" transform="translate(63.623047 0)"/>
       <use xlink:href="#DejaVuSans-30" transform="translate(95.410156 0)"/>
      </g>
     </g>
    </g>
    <g id="text_10">
     <!-- x0 -->
     <g transform="translate(295.759687 558.714687) scale(0.1 -0.1)">
      <defs>
       <path id="DejaVuSans-78" d="M 3513 3500 
L 2247 1797 
L 3578 0 
L 2900 0 
L 1881 1375 
L 863 0 
L 184 0 
L 1544 1831 
L 300 3500 
L 978 3500 
L 1906 2253 
L 2834 3500 
L 3513 3500 
z
" transform="scale(0.015625)"/>
      </defs>
      <use xlink:href="#DejaVuSans-78"/>
      <use xlink:href="#DejaVuSans-30" transform="translate(59.179688 0)"/>
     </g>
    </g>
   </g>
   <g id="matplotlib.axis_2">
    <g id="ytick_1">
     <g id="line2d_10">
      <defs>
       <path id="m8bb5f4ac73" d="M 0 0 
L -3.5 0 
" style="stroke: #000000; stroke-width: 0.8"/>
      </defs>
      <g>
       <use xlink:href="#m8bb5f4ac73" x="42.620313" y="514.615089" style="stroke: #000000; stroke-width: 0.8"/>
      </g>
     </g>
     <g id="text_11">
      <!-- −4 -->
      <g transform="translate(20.878125 518.414308) scale(0.1 -0.1)">
       <defs>
        <path id="DejaVuSans-34" d="M 2419 4116 
L 825 1625 
L 2419 1625 
L 2419 4116 
z
M 2253 4666 
L 3047 4666 
L 3047 1625 
L 3713 1625 
L 3713 1100 
L 3047 1100 
L 3047 0 
L 2419 0 
L 2419 1100 
L 313 1100 
L 313 1709 
L 2253 4666 
z
" transform="scale(0.015625)"/>
       </defs>
       <use xlink:href="#DejaVuSans-2212"/>
       <use xlink:href="#DejaVuSans-34" transform="translate(83.789062 0)"/>
      </g>
     </g>
    </g>
    <g id="ytick_2">
     <g id="line2d_11">
      <g>
       <use xlink:href="#m8bb5f4ac73" x="42.620313" y="454.66556" style="stroke: #000000; stroke-width: 0.8"/>
      </g>
     </g>
     <g id="text_12">
      <!-- −3 -->
      <g transform="translate(20.878125 458.464779) scale(0.1 -0.1)">
       <defs>
        <path id="DejaVuSans-33" d="M 2597 2516 
Q 3050 2419 3304 2112 
Q 3559 1806 3559 1356 
Q 3559 666 3084 287 
Q 2609 -91 1734 -91 
Q 1441 -91 1130 -33 
Q 819 25 488 141 
L 488 750 
Q 750 597 1062 519 
Q 1375 441 1716 441 
Q 2309 441 2620 675 
Q 2931 909 2931 1356 
Q 2931 1769 2642 2001 
Q 2353 2234 1838 2234 
L 1294 2234 
L 1294 2753 
L 1863 2753 
Q 2328 2753 2575 2939 
Q 2822 3125 2822 3475 
Q 2822 3834 2567 4026 
Q 2313 4219 1838 4219 
Q 1578 4219 1281 4162 
Q 984 4106 628 3988 
L 628 4550 
Q 988 4650 1302 4700 
Q 1616 4750 1894 4750 
Q 2613 4750 3031 4423 
Q 3450 4097 3450 3541 
Q 3450 3153 3228 2886 
Q 3006 2619 2597 2516 
z
" transform="scale(0.015625)"/>
       </defs>
       <use xlink:href="#DejaVuSans-2212"/>
       <use xlink:href="#DejaVuSans-33" transform="translate(83.789062 0)"/>
      </g>
     </g>
    </g>
    <g id="ytick_3">
     <g id="line2d_12">
      <g>
       <use xlink:href="#m8bb5f4ac73" x="42.620313" y="394.716031" style="stroke: #000000; stroke-width: 0.8"/>
      </g>
     </g>
     <g id="text_13">
      <!-- −2 -->
      <g transform="translate(20.878125 398.51525) scale(0.1 -0.1)">
       <use xlink:href="#DejaVuSans-2212"/>
       <use xlink:href="#DejaVuSans-32" transform="translate(83.789062 0)"/>
      </g>
     </g>
    </g>
    <g id="ytick_4">
     <g id="line2d_13">
      <g>
       <use xlink:href="#m8bb5f4ac73" x="42.620313" y="334.766502" style="stroke: #000000; stroke-width: 0.8"/>
      </g>
     </g>
     <g id="text_14">
      <!-- −1 -->
      <g transform="translate(20.878125 338.565721) scale(0.1 -0.1)">
       <use xlink:href="#DejaVuSans-2212"/>
       <use xlink:href="#DejaVuSans-31" transform="translate(83.789062 0)"/>
      </g>
     </g>
    </g>
    <g id="ytick_5">
     <g id="line2d_14">
      <g>
       <use xlink:href="#m8bb5f4ac73" x="42.620313" y="274.816973" style="stroke: #000000; stroke-width: 0.8"/>
      </g>
     </g>
     <g id="text_15">
      <!-- 0 -->
      <g transform="translate(29.257813 278.616192) scale(0.1 -0.1)">
       <use xlink:href="#DejaVuSans-30"/>
      </g>
     </g>
    </g>
    <g id="ytick_6">
     <g id="line2d_15">
      <g>
       <use xlink:href="#m8bb5f4ac73" x="42.620313" y="214.867444" style="stroke: #000000; stroke-width: 0.8"/>
      </g>
     </g>
     <g id="text_16">
      <!-- 1 -->
      <g transform="translate(29.257813 218.666663) scale(0.1 -0.1)">
       <use xlink:href="#DejaVuSans-31"/>
      </g>
     </g>
    </g>
    <g id="ytick_7">
     <g id="line2d_16">
      <g>
       <use xlink:href="#m8bb5f4ac73" x="42.620313" y="154.917915" style="stroke: #000000; stroke-width: 0.8"/>
      </g>
     </g>
     <g id="text_17">
      <!-- 2 -->
      <g transform="translate(29.257813 158.717134) scale(0.1 -0.1)">
       <use xlink:href="#DejaVuSans-32"/>
      </g>
     </g>
    </g>
    <g id="ytick_8">
     <g id="line2d_17">
      <g>
       <use xlink:href="#m8bb5f4ac73" x="42.620313" y="94.968386" style="stroke: #000000; stroke-width: 0.8"/>
      </g>
     </g>
     <g id="text_18">
      <!-- 3 -->
      <g transform="translate(29.257813 98.767605) scale(0.1 -0.1)">
       <use xlink:href="#DejaVuSans-33"/>
      </g>
     </g>
    </g>
    <g id="ytick_9">
     <g id="line2d_18">
      <g>
       <use xlink:href="#m8bb5f4ac73" x="42.620313" y="35.018857" style="stroke: #000000; stroke-width: 0.8"/>
      </g>
     </g>
     <g id="text_19">
      <!-- 4 -->
      <g transform="translate(29.257813 38.818076) scale(0.1 -0.1)">
       <use xlink:href="#DejaVuSans-34"/>
      </g>
     </g>
    </g>
    <g id="text_20">
     <!-- x1 -->
     <g transform="translate(14.798438 282.51875) rotate(-90) scale(0.1 -0.1)">
      <use xlink:href="#DejaVuSans-78"/>
      <use xlink:href="#DejaVuSans-31" transform="translate(59.179688 0)"/>
     </g>
    </g>
   </g>
   <g id="line2d_19">
    <path d="M 534.451849 334.766502 
L 532.214207 330.31248 
L 530.136945 326.484914 
L 528.197512 323.183305 
L 526.375537 320.31895 
L 524.656618 317.834853 
L 523.02846 315.683892 
L 519.999816 312.209307 
L 517.209525 309.583934 
L 514.59368 307.560833 
L 512.113435 306.020683 
L 509.738608 304.869649 
L 507.442444 304.023948 
L 505.202036 303.414076 
L 502.999483 302.989601 
L 499.741885 302.638349 
L 496.510857 302.558932 
L 493.277526 302.68621 
L 488.922337 303.099532 
L 484.4839 303.747813 
L 478.770549 304.845254 
L 472.815432 306.234005 
L 466.559062 307.921729 
L 459.945408 309.946506 
L 452.903458 312.371849 
L 446.902352 314.661074 
L 440.516613 317.324809 
L 433.673857 320.475134 
L 428.204836 323.20871 
L 422.410427 326.305339 
L 416.242166 329.832579 
L 409.637231 333.8828 
L 402.518446 338.573185 
L 394.794274 344.045728 
L 389.256799 348.209974 
L 383.368577 352.851023 
L 377.091851 358.029327 
L 370.386029 363.810237 
L 363.207685 370.26401 
L 355.510554 377.465799 
L 347.238809 385.489017 
L 338.31049 394.417877 
L 323.51873 409.658359 
L 300.800608 433.305002 
L 288.004127 446.288517 
L 281.225569 452.955316 
L 274.186038 459.652605 
L 266.884464 466.298545 
L 259.324731 472.798085 
L 251.515677 479.042973 
L 243.471098 484.911749 
L 235.20974 490.269747 
L 226.755308 494.969096 
L 218.13646 498.848716 
L 209.386809 501.734326 
L 200.543909 503.439322 
L 191.64833 503.80253 
L 182.764272 502.725959 
L 173.956902 500.151008 
L 165.287694 496.056327 
L 156.814433 490.457818 
L 148.591207 483.408633 
L 140.668416 474.999172 
L 133.092766 465.35709 
L 125.907271 454.64729 
L 119.151252 443.071925 
L 112.864772 430.921618 
L 107.066212 418.499717 
L 101.751498 406.005625 
L 96.913367 393.620551 
L 92.541463 381.508138 
L 88.622337 369.814459 
L 85.139448 358.668019 
L 82.073159 348.179758 
L 79.400744 338.443046 
L 75.129651 321.493639 
L 72.057554 307.629061 
L 69.961084 296.392812 
L 68.653521 287.43986 
L 67.962018 280.392892 
L 67.750995 274.869252 
L 67.921929 270.556399 
L 68.389662 267.189728 
L 69.0875 264.552302 
L 69.967932 262.480711 
L 70.991749 260.841634 
L 72.128163 259.529636 
L 73.356731 258.471407 
L 74.660731 257.607682 
L 76.727232 256.570874 
L 78.8998 255.749157 
L 81.931103 254.87138 
L 86.703805 253.788499 
L 95.178507 252.17834 
L 109.107734 249.490821 
L 118.306391 247.473998 
L 127.137059 245.293906 
L 134.229042 243.334902 
L 141.810358 240.996767 
L 148.581079 238.67102 
L 155.848216 235.910831 
L 162.082346 233.322873 
L 168.750136 230.331947 
L 174.081372 227.741233 
L 179.728878 224.799883 
L 185.73129 221.456114 
L 192.142161 217.632271 
L 199.029964 213.224831 
L 206.478088 208.104401 
L 211.802729 204.219068 
L 217.4526 199.895987 
L 223.463459 195.077657 
L 229.874014 189.701467 
L 236.725917 183.699698 
L 244.063767 176.999517 
L 251.938294 169.534247 
L 260.42247 161.219968 
L 269.593993 151.947894 
L 284.80267 136.165525 
L 301.965202 118.281376 
L 314.604233 105.414381 
L 321.304444 98.769049 
L 328.260706 92.035079 
L 335.477324 85.318231 
L 342.953656 78.731821 
L 350.683556 72.394064 
L 358.655377 66.428073 
L 366.851967 60.961862 
L 375.250671 56.128342 
L 383.823329 52.065323 
L 392.536281 48.915513 
L 401.35036 46.826521 
L 410.220897 45.950853 
L 419.097721 46.445915 
L 427.925156 48.47401 
L 436.642179 52.238936 
L 445.182646 57.705939 
L 453.484322 64.66717 
L 461.492275 72.92027 
L 469.158883 82.26849 
L 476.443826 92.520685 
L 483.314093 103.491314 
L 489.743979 115.000447 
L 495.715084 126.873756 
L 501.216315 138.94252 
L 506.243885 151.043625 
L 510.801312 163.019564 
L 514.899423 174.718433 
L 518.556349 185.993937 
L 521.792957 196.677116 
L 524.629539 206.632122 
L 527.095316 215.839018 
L 529.21922 224.292091 
L 531.029604 231.997284 
L 533.820336 245.246085 
L 535.682778 255.866103 
L 536.815045 264.289038 
L 537.36556 270.91009 
L 537.457533 276.079774 
L 537.19658 280.110879 
L 536.65948 283.256175 
L 535.904369 285.712461 
L 534.980455 287.643933 
L 533.924091 289.176117 
L 532.760364 290.399027 
L 531.510587 291.387252 
L 530.192391 292.201262 
L 528.110181 293.181351 
L 525.924666 293.956364 
L 522.886341 294.800059 
L 518.108702 295.847936 
L 507.87225 297.756383 
L 495.728523 300.094283 
L 486.560221 302.090012 
L 478.908716 303.967157 
L 470.698303 306.21776 
L 463.117034 308.543883 
L 456.35635 310.833287 
L 449.12286 313.526148 
L 442.931176 316.054486 
L 436.311294 319.006857 
L 429.187025 322.487448 
L 423.460011 325.517656 
L 417.357788 328.972239 
L 408.577728 334.273093 
L 403.87087 337.310168 
L 398.913602 340.698753 
L 393.672269 344.505202 
L 388.109823 348.79263 
L 382.185824 353.620906 
L 375.856441 359.046657 
L 369.074449 365.123267 
L 361.789232 371.900877 
L 353.946783 379.426385 
L 341.011806 392.211566 
L 326.485073 406.910638 
L 298.117159 435.973175 
L 298.117159 435.973175 
" clip-path="url(#p19e39e6d7c)" style="fill: none; stroke: #000000; stroke-opacity: 0.3; stroke-width: 7; stroke-linecap: square"/>
   </g>
   <g id="line2d_20">
    <path d="M 534.451849 334.766502 
L 530.123424 328.03225 
L 524.480976 319.777606 
L 519.673603 313.197781 
L 514.294947 306.311525 
L 509.846704 300.982212 
L 505.295766 295.86129 
L 500.332819 290.647668 
L 495.657593 286.080172 
L 491.110016 281.949072 
L 486.522217 278.084994 
L 482.333655 274.816986 
L 482.333655 274.816986 
" clip-path="url(#p19e39e6d7c)" style="fill: none; stroke-dasharray: 22.4,5.6,3.5,5.6; stroke-dashoffset: 0; stroke: #0000ff; stroke-opacity: 0.8; stroke-width: 3.5"/>
   </g>
   <g id="patch_3">
    <path d="M 42.620313 530.438125 
L 42.620313 22.318125 
" style="fill: none; stroke: #000000; stroke-width: 0.8; stroke-linejoin: miter; stroke-linecap: square"/>
   </g>
   <g id="patch_4">
    <path d="M 561.180312 530.438125 
L 561.180312 22.318125 
" style="fill: none; stroke: #000000; stroke-width: 0.8; stroke-linejoin: miter; stroke-linecap: square"/>
   </g>
   <g id="patch_5">
    <path d="M 42.620313 530.438125 
L 561.180312 530.438125 
" style="fill: none; stroke: #000000; stroke-width: 0.8; stroke-linejoin: miter; stroke-linecap: square"/>
   </g>
   <g id="patch_6">
    <path d="M 42.620313 22.318125 
L 561.180312 22.318125 
" style="fill: none; stroke: #000000; stroke-width: 0.8; stroke-linejoin: miter; stroke-linecap: square"/>
   </g>
   <g id="line2d_21">
    <path d="M 534.451849 334.766502 
L 534.684535 331.999874 
L 534.766229 329.341034 
L 534.713051 326.811913 
L 534.540502 324.422969 
L 533.897278 320.096481 
L 532.943413 316.377526 
L 531.764537 313.237909 
L 530.422859 310.624153 
L 528.964219 308.474843 
L 527.419927 306.726161 
L 525.810264 305.318793 
L 524.150018 304.197685 
L 522.446944 303.317733 
L 520.706866 302.638059 
L 518.932834 302.12566 
L 516.21149 301.611985 
L 513.419704 301.340822 
L 510.55752 301.258695 
L 506.630093 301.378718 
L 501.537408 301.815372 
L 496.233591 302.508325 
L 489.575803 303.636584 
L 482.572798 305.086499 
L 476.443121 306.566661 
L 470.006955 308.338892 
L 463.210654 310.467335 
L 457.465038 312.485517 
L 451.391501 314.847727 
L 444.926915 317.628415 
L 437.993038 320.919735 
L 432.427697 323.79082 
L 426.497008 327.070202 
L 420.146714 330.824921 
L 413.314576 335.135159 
L 405.930471 340.096756 
L 397.915308 345.825924 
L 392.176958 350.14301 
L 386.088794 354.916049 
L 379.61764 360.205653 
L 372.726779 366.080395 
L 365.376262 372.616183 
L 357.517828 379.896548 
L 349.099588 388.007887 
L 340.057957 397.026577 
L 330.320814 407.009205 
L 296.077566 442.664064 
L 289.51958 449.280279 
L 282.694413 455.998409 
L 275.597814 462.760558 
L 268.229747 469.491625 
L 260.595421 476.096916 
L 252.703534 482.466969 
L 244.57399 488.456501 
L 236.229813 493.912836 
L 227.701566 498.6615 
L 219.02832 502.530961 
L 210.24877 505.361085 
L 201.408881 506.992122 
L 192.539474 507.341761 
L 183.671081 506.335712 
L 174.826488 503.918782 
L 166.021162 500.062901 
L 157.300677 494.76895 
L 148.712968 488.045046 
L 140.337473 479.908007 
L 132.287321 470.465719 
L 124.674111 459.865721 
L 117.613023 448.306958 
L 111.139595 436.050885 
L 105.253428 423.365289 
L 99.912411 410.523215 
L 95.057326 397.75479 
L 90.637878 385.266669 
L 86.619814 373.245894 
L 82.99931 361.824482 
L 79.779574 351.111157 
L 76.967511 341.18628 
L 74.555545 332.075375 
L 72.529966 323.788418 
L 70.86358 316.303112 
L 69.521609 309.57799 
L 68.465693 303.561505 
L 67.65779 298.194311 
L 66.642362 289.1678 
L 66.230651 282.042713 
L 66.238945 276.420075 
L 66.541564 271.975662 
L 67.05395 268.451028 
L 67.720467 265.643589 
L 68.504666 263.395341 
L 69.382733 261.583443 
L 70.339058 260.112678 
L 71.363207 258.90876 
L 72.448124 257.913436 
L 74.179294 256.715601 
L 76.025753 255.773136 
L 77.980659 255.006392 
L 80.747893 254.162864 
L 84.454137 253.27538 
L 90.927712 252.008472 
L 114.039559 247.696592 
L 122.929582 245.738204 
L 130.020113 243.977098 
L 137.526156 241.879706 
L 144.155313 239.798032 
L 151.195421 237.324681 
L 157.1841 234.991678 
L 163.554579 232.268067 
L 170.381856 229.066701 
L 175.856461 226.288402 
L 181.685034 223.126188 
L 187.920093 219.514615 
L 194.621582 215.375427 
L 201.858688 210.611431 
L 209.709526 205.104663 
L 215.328905 200.947356 
L 221.290836 196.341385 
L 227.629766 191.222495 
L 234.382048 185.521188 
L 241.590497 179.156566 
L 249.303168 172.042444 
L 257.573726 164.088449 
L 266.468196 155.217555 
L 276.058534 145.359445 
L 309.900208 110.017719 
L 316.40134 103.451443 
L 323.174006 96.786082 
L 330.222864 90.081154 
L 337.546928 83.415987 
L 345.14281 76.878953 
L 352.997383 70.589214 
L 361.092435 64.680319 
L 369.402864 59.305359 
L 377.894019 54.631568 
L 386.527118 50.832983 
L 395.25876 48.074464 
L 404.048591 46.481308 
L 412.857057 46.169424 
L 421.653317 47.226545 
L 430.408875 49.688844 
L 439.093103 53.581369 
L 447.672489 58.924518 
L 456.084782 65.700379 
L 464.238695 73.843353 
L 472.03784 83.266403 
L 479.374447 93.80949 
L 486.179342 105.252972 
L 492.410839 117.349204 
L 498.093859 129.837004 
L 503.274509 142.46422 
L 508.012578 154.998926 
L 512.34575 167.249706 
L 516.297652 179.040152 
L 519.86653 190.237087 
L 523.043148 200.738619 
L 525.817729 210.465869 
L 528.196443 219.392716 
L 530.192806 227.51035 
L 531.833581 234.840138 
L 533.153223 241.422781 
L 534.189644 247.308978 
L 534.980343 252.557275 
L 535.96591 261.377265 
L 536.350313 268.333502 
L 536.313934 273.820369 
L 535.98033 278.157711 
L 535.432963 281.59976 
L 534.72707 284.345116 
L 533.899117 286.548064 
L 532.973275 288.328443 
L 531.965587 289.778824 
L 530.886915 290.971014 
L 529.744859 291.961809 
L 527.923962 293.162773 
L 525.984144 294.11696 
L 523.226161 295.13521 
L 520.283674 295.972465 
L 515.543641 297.052686 
L 506.828644 298.727696 
L 491.982821 301.572869 
L 483.216348 303.471435 
L 475.025909 305.475437 
L 467.564789 307.541386 
L 460.979828 309.587004 
L 453.992607 312.012896 
L 448.054532 314.297504 
L 441.744052 316.961149 
L 434.988355 320.088379 
L 429.576389 322.800107 
L 423.819872 325.883872 
L 417.667244 329.403583 
L 411.060211 333.434663 
L 403.931473 338.070205 
L 396.204154 343.425399 
L 387.790665 349.642533 
L 381.750289 354.354948 
L 375.325563 359.594381 
L 375.325563 359.594381 
" clip-path="url(#p19e39e6d7c)" style="fill: none; stroke-dasharray: 3.5,5.775; stroke-dashoffset: 0; stroke: #008000; stroke-opacity: 0.8; stroke-width: 3.5"/>
   </g>
   <g id="text_21">
    <!-- Phase Portrait (x0 vs x1) -->
    <g transform="translate(228.209062 16.318125) scale(0.12 -0.12)">
     <defs>
      <path id="DejaVuSans-50" d="M 1259 4147 
L 1259 2394 
L 2053 2394 
Q 2494 2394 2734 2622 
Q 2975 2850 2975 3272 
Q 2975 3691 2734 3919 
Q 2494 4147 2053 4147 
L 1259 4147 
z
M 628 4666 
L 2053 4666 
Q 2838 4666 3239 4311 
Q 3641 3956 3641 3272 
Q 3641 2581 3239 2228 
Q 2838 1875 2053 1875 
L 1259 1875 
L 1259 0 
L 628 0 
L 628 4666 
z
" transform="scale(0.015625)"/>
      <path id="DejaVuSans-68" d="M 3513 2113 
L 3513 0 
L 2938 0 
L 2938 2094 
Q 2938 2591 2744 2837 
Q 2550 3084 2163 3084 
Q 1697 3084 1428 2787 
Q 1159 2491 1159 1978 
L 1159 0 
L 581 0 
L 581 4863 
L 1159 4863 
L 1159 2956 
Q 1366 3272 1645 3428 
Q 1925 3584 2291 3584 
Q 2894 3584 3203 3211 
Q 3513 2838 3513 2113 
z
" transform="scale(0.015625)"/>
      <path id="DejaVuSans-61" d="M 2194 1759 
Q 1497 1759 1228 1600 
Q 959 1441 959 1056 
Q 959 750 1161 570 
Q 1363 391 1709 391 
Q 2188 391 2477 730 
Q 2766 1069 2766 1631 
L 2766 1759 
L 2194 1759 
z
M 3341 1997 
L 3341 0 
L 2766 0 
L 2766 531 
Q 2569 213 2275 61 
Q 1981 -91 1556 -91 
Q 1019 -91 701 211 
Q 384 513 384 1019 
Q 384 1609 779 1909 
Q 1175 2209 1959 2209 
L 2766 2209 
L 2766 2266 
Q 2766 2663 2505 2880 
Q 2244 3097 1772 3097 
Q 1472 3097 1187 3025 
Q 903 2953 641 2809 
L 641 3341 
Q 956 3463 1253 3523 
Q 1550 3584 1831 3584 
Q 2591 3584 2966 3190 
Q 3341 2797 3341 1997 
z
" transform="scale(0.015625)"/>
      <path id="DejaVuSans-73" d="M 2834 3397 
L 2834 2853 
Q 2591 2978 2328 3040 
Q 2066 3103 1784 3103 
Q 1356 3103 1142 2972 
Q 928 2841 928 2578 
Q 928 2378 1081 2264 
Q 1234 2150 1697 2047 
L 1894 2003 
Q 2506 1872 2764 1633 
Q 3022 1394 3022 966 
Q 3022 478 2636 193 
Q 2250 -91 1575 -91 
Q 1294 -91 989 -36 
Q 684 19 347 128 
L 347 722 
Q 666 556 975 473 
Q 1284 391 1588 391 
Q 1994 391 2212 530 
Q 2431 669 2431 922 
Q 2431 1156 2273 1281 
Q 2116 1406 1581 1522 
L 1381 1569 
Q 847 1681 609 1914 
Q 372 2147 372 2553 
Q 372 3047 722 3315 
Q 1072 3584 1716 3584 
Q 2034 3584 2315 3537 
Q 2597 3491 2834 3397 
z
" transform="scale(0.015625)"/>
      <path id="DejaVuSans-65" d="M 3597 1894 
L 3597 1613 
L 953 1613 
Q 991 1019 1311 708 
Q 1631 397 2203 397 
Q 2534 397 2845 478 
Q 3156 559 3463 722 
L 3463 178 
Q 3153 47 2828 -22 
Q 2503 -91 2169 -91 
Q 1331 -91 842 396 
Q 353 884 353 1716 
Q 353 2575 817 3079 
Q 1281 3584 2069 3584 
Q 2775 3584 3186 3129 
Q 3597 2675 3597 1894 
z
M 3022 2063 
Q 3016 2534 2758 2815 
Q 2500 3097 2075 3097 
Q 1594 3097 1305 2825 
Q 1016 2553 972 2059 
L 3022 2063 
z
" transform="scale(0.015625)"/>
      <path id="DejaVuSans-20" transform="scale(0.015625)"/>
      <path id="DejaVuSans-6f" d="M 1959 3097 
Q 1497 3097 1228 2736 
Q 959 2375 959 1747 
Q 959 1119 1226 758 
Q 1494 397 1959 397 
Q 2419 397 2687 759 
Q 2956 1122 2956 1747 
Q 2956 2369 2687 2733 
Q 2419 3097 1959 3097 
z
M 1959 3584 
Q 2709 3584 3137 3096 
Q 3566 2609 3566 1747 
Q 3566 888 3137 398 
Q 2709 -91 1959 -91 
Q 1206 -91 779 398 
Q 353 888 353 1747 
Q 353 2609 779 3096 
Q 1206 3584 1959 3584 
z
" transform="scale(0.015625)"/>
      <path id="DejaVuSans-72" d="M 2631 2963 
Q 2534 3019 2420 3045 
Q 2306 3072 2169 3072 
Q 1681 3072 1420 2755 
Q 1159 2438 1159 1844 
L 1159 0 
L 581 0 
L 581 3500 
L 1159 3500 
L 1159 2956 
Q 1341 3275 1631 3429 
Q 1922 3584 2338 3584 
Q 2397 3584 2469 3576 
Q 2541 3569 2628 3553 
L 2631 2963 
z
" transform="scale(0.015625)"/>
      <path id="DejaVuSans-74" d="M 1172 4494 
L 1172 3500 
L 2356 3500 
L 2356 3053 
L 1172 3053 
L 1172 1153 
Q 1172 725 1289 603 
Q 1406 481 1766 481 
L 2356 481 
L 2356 0 
L 1766 0 
Q 1100 0 847 248 
Q 594 497 594 1153 
L 594 3053 
L 172 3053 
L 172 3500 
L 594 3500 
L 594 4494 
L 1172 4494 
z
" transform="scale(0.015625)"/>
      <path id="DejaVuSans-69" d="M 603 3500 
L 1178 3500 
L 1178 0 
L 603 0 
L 603 3500 
z
M 603 4863 
L 1178 4863 
L 1178 4134 
L 603 4134 
L 603 4863 
z
" transform="scale(0.015625)"/>
      <path id="DejaVuSans-28" d="M 1984 4856 
Q 1566 4138 1362 3434 
Q 1159 2731 1159 2009 
Q 1159 1288 1364 580 
Q 1569 -128 1984 -844 
L 1484 -844 
Q 1016 -109 783 600 
Q 550 1309 550 2009 
Q 550 2706 781 3412 
Q 1013 4119 1484 4856 
L 1984 4856 
z
" transform="scale(0.015625)"/>
      <path id="DejaVuSans-76" d="M 191 3500 
L 800 3500 
L 1894 563 
L 2988 3500 
L 3597 3500 
L 2284 0 
L 1503 0 
L 191 3500 
z
" transform="scale(0.015625)"/>
      <path id="DejaVuSans-29" d="M 513 4856 
L 1013 4856 
Q 1481 4119 1714 3412 
Q 1947 2706 1947 2009 
Q 1947 1309 1714 600 
Q 1481 -109 1013 -844 
L 513 -844 
Q 928 -128 1133 580 
Q 1338 1288 1338 2009 
Q 1338 2731 1133 3434 
Q 928 4138 513 4856 
z
" transform="scale(0.015625)"/>
     </defs>
     <use xlink:href="#DejaVuSans-50"/>
     <use xlink:href="#DejaVuSans-68" transform="translate(60.302734 0)"/>
     <use xlink:href="#DejaVuSans-61" transform="translate(123.681641 0)"/>
     <use xlink:href="#DejaVuSans-73" transform="translate(184.960938 0)"/>
     <use xlink:href="#DejaVuSans-65" transform="translate(237.060547 0)"/>
     <use xlink:href="#DejaVuSans-20" transform="translate(298.583984 0)"/>
     <use xlink:href="#DejaVuSans-50" transform="translate(330.371094 0)"/>
     <use xlink:href="#DejaVuSans-6f" transform="translate(387.048828 0)"/>
     <use xlink:href="#DejaVuSans-72" transform="translate(448.230469 0)"/>
     <use xlink:href="#DejaVuSans-74" transform="translate(489.34375 0)"/>
     <use xlink:href="#DejaVuSans-72" transform="translate(528.552734 0)"/>
     <use xlink:href="#DejaVuSans-61" transform="translate(569.666016 0)"/>
     <use xlink:href="#DejaVuSans-69" transform="translate(630.945312 0)"/>
     <use xlink:href="#DejaVuSans-74" transform="translate(658.728516 0)"/>
     <use xlink:href="#DejaVuSans-20" transform="translate(697.9375 0)"/>
     <use xlink:href="#DejaVuSans-28" transform="translate(729.724609 0)"/>
     <use xlink:href="#DejaVuSans-78" transform="translate(768.738281 0)"/>
     <use xlink:href="#DejaVuSans-30" transform="translate(827.917969 0)"/>
     <use xlink:href="#DejaVuSans-20" transform="translate(891.541016 0)"/>
     <use xlink:href="#DejaVuSans-76" transform="translate(923.328125 0)"/>
     <use xlink:href="#DejaVuSans-73" transform="translate(982.507812 0)"/>
     <use xlink:href="#DejaVuSans-20" transform="translate(1034.607422 0)"/>
     <use xlink:href="#DejaVuSans-78" transform="translate(1066.394531 0)"/>
     <use xlink:href="#DejaVuSans-31" transform="translate(1125.574219 0)"/>
     <use xlink:href="#DejaVuSans-29" transform="translate(1189.197266 0)"/>
    </g>
   </g>
   <g id="line2d_22">
    <path d="M 534.451849 334.766502 
L 532.215464 330.428364 
L 530.134928 326.687687 
L 528.189463 323.454499 
L 526.360703 320.651423 
L 522.993893 316.095182 
L 519.935459 312.631947 
L 517.112229 309.991546 
L 514.468314 307.977474 
L 511.960736 306.445828 
L 509.55688 305.292519 
L 507.2302 304.436294 
L 504.960533 303.818619 
L 502.730778 303.391833 
L 499.433154 303.037692 
L 496.160314 302.95014 
L 492.885175 303.071093 
L 488.477592 303.488592 
L 483.986112 304.146183 
L 478.201724 305.258936 
L 472.17225 306.675839 
L 465.838194 308.407699 
L 459.135273 310.492677 
L 451.989212 312.996112 
L 445.893614 315.36394 
L 439.401315 318.128399 
L 432.444255 321.378075 
L 426.871874 324.202017 
L 420.948775 327.424799 
L 414.624099 331.122299 
L 407.838083 335.386331 
L 400.517801 340.331414 
L 395.298918 344.073268 
L 389.774028 348.227418 
L 383.910262 352.846769 
L 377.668015 357.993908 
L 371.004459 363.735573 
L 363.870823 370.144992 
L 356.211662 377.299102 
L 347.967437 385.277442 
L 339.070299 394.14881 
L 324.344015 409.250652 
L 295.499011 439.085579 
L 282.263079 452.243698 
L 275.259821 458.916862 
L 267.998781 465.55919 
L 260.480994 472.088033 
L 252.715099 478.390123 
L 244.712142 484.344867 
L 236.485521 489.818868 
L 228.05947 494.656072 
L 219.461968 498.696924 
L 210.724423 501.771721 
L 201.889455 503.720754 
L 193.004039 504.398943 
L 184.118628 503.660828 
L 175.290793 501.411945 
L 166.580306 497.617125 
L 158.046937 492.254958 
L 149.751605 485.369489 
L 141.749978 477.076813 
L 134.095308 467.521237 
L 126.83202 456.902675 
L 119.99633 445.447811 
L 113.618113 433.401155 
L 107.713033 421.007788 
L 102.291315 408.50719 
L 97.352282 396.1144 
L 92.888467 384.020389 
L 88.884702 372.376982 
L 85.321342 361.306397 
L 82.174374 350.89412 
L 79.41712 341.197077 
L 77.021281 332.238887 
L 74.957932 324.029022 
L 71.715051 309.777898 
L 69.471115 298.195194 
L 68.032074 288.923778 
L 67.234872 281.5818 
L 66.943463 275.806961 
L 67.049237 271.281347 
L 67.466065 267.737936 
L 68.126599 264.959479 
L 68.978523 262.772621 
L 69.981395 261.040865 
L 71.104411 259.658907 
L 72.323647 258.54427 
L 73.620961 257.633948 
L 75.684025 256.549002 
L 77.858575 255.698074 
L 80.894229 254.793197 
L 84.865248 253.869287 
L 91.561034 252.57563 
L 109.100521 249.258854 
L 118.35286 247.238579 
L 126.082202 245.339351 
L 133.152998 243.406933 
L 140.71361 241.109833 
L 147.45727 238.839433 
L 154.679216 236.155562 
L 160.861205 233.635448 
L 167.464686 230.702174 
L 174.560969 227.257445 
L 180.258962 224.263367 
L 186.329154 220.843184 
L 192.825478 216.914691 
L 199.812669 212.376946 
L 207.368944 207.105661 
L 212.767421 203.112006 
L 218.492675 198.673747 
L 224.580756 193.733209 
L 231.073094 188.225324 
L 238.016965 182.078598 
L 245.463526 175.217204 
L 253.472582 167.563711 
L 262.107568 159.04234 
L 276.388208 144.501763 
L 310.644731 109.099426 
L 317.191636 102.548241 
L 323.994468 95.906289 
L 331.055368 89.236899 
L 338.373194 82.619413 
L 345.94663 76.138352 
L 353.76594 69.910795 
L 361.81845 64.062579 
L 370.089576 58.730202 
L 378.554955 54.070257 
L 387.183891 50.246791 
L 395.942362 47.422695 
L 404.789393 45.76677 
L 413.674496 45.414489 
L 422.546189 46.489676 
L 431.346869 49.10008 
L 440.016287 53.264593 
L 448.495006 58.978689 
L 456.721153 66.203376 
L 464.640898 74.802826 
L 472.204652 84.612453 
L 479.366443 95.43819 
L 486.093455 107.043089 
L 492.361648 119.187217 
L 498.149358 131.608897 
L 503.454714 144.088266 
L 508.281049 156.420928 
L 512.634589 168.414615 
L 516.532106 179.923368 
L 519.995228 190.841331 
L 523.048006 201.082247 
L 525.717949 210.603986 
L 528.033303 219.382256 
L 530.023076 227.415914 
L 533.13878 241.334672 
L 535.279667 252.625689 
L 536.636432 261.651114 
L 537.368944 268.792471 
L 537.609403 274.406642 
L 537.463796 278.805834 
L 537.015795 282.250776 
L 536.330891 284.953413 
L 535.459755 287.082027 
L 534.441525 288.768877 
L 533.306278 290.116843 
L 532.077133 291.20568 
L 530.771531 292.095993 
L 528.698694 293.160451 
L 526.516217 293.997727 
L 523.471878 294.891687 
L 519.491702 295.809262 
L 511.916077 297.259706 
L 496.195707 300.230003 
L 486.999153 302.218505 
L 479.322166 304.083802 
L 471.09055 306.326215 
L 463.504716 308.642899 
L 456.736102 310.934168 
L 449.484645 313.644482 
L 443.274889 316.1911 
L 436.639132 319.157037 
L 429.50505 322.642102 
L 423.774 325.673321 
L 417.666045 329.137763 
L 411.126598 333.118721 
L 404.089138 337.720257 
L 396.475145 343.067245 
L 391.032177 347.12097 
L 385.25837 351.625964 
L 379.115424 356.64291 
L 372.56257 362.236436 
L 365.551169 368.479361 
L 358.028355 375.447709 
L 349.935363 383.220044 
L 341.20618 391.866986 
L 326.765371 406.615538 
L 292.119448 442.372679 
L 292.119448 442.372679 
" clip-path="url(#p19e39e6d7c)" style="fill: none; stroke-dasharray: 12.95,5.6; stroke-dashoffset: 0; stroke: #ff0000; stroke-opacity: 0.8; stroke-width: 3.5"/>
   </g>
   <g id="legend_1">
    <g id="patch_7">
     <path d="M 49.620313 89.030625 
L 194.970313 89.030625 
Q 196.970313 89.030625 196.970313 87.030625 
L 196.970313 29.318125 
Q 196.970313 27.318125 194.970313 27.318125 
L 49.620313 27.318125 
Q 47.620313 27.318125 47.620313 29.318125 
L 47.620313 87.030625 
Q 47.620313 89.030625 49.620313 89.030625 
z
" style="fill: #ffffff; opacity: 0.8; stroke: #cccccc; stroke-linejoin: miter"/>
    </g>
    <g id="line2d_23">
     <path d="M 51.620313 35.416562 
L 61.620313 35.416562 
L 71.620313 35.416562 
" style="fill: none; stroke: #000000; stroke-opacity: 0.3; stroke-width: 7; stroke-linecap: square"/>
    </g>
    <g id="text_22">
     <!-- True/Underlying model -->
     <g transform="translate(79.620313 38.916562) scale(0.1 -0.1)">
      <defs>
       <path id="DejaVuSans-54" d="M -19 4666 
L 3928 4666 
L 3928 4134 
L 2272 4134 
L 2272 0 
L 1638 0 
L 1638 4134 
L -19 4134 
L -19 4666 
z
" transform="scale(0.015625)"/>
       <path id="DejaVuSans-75" d="M 544 1381 
L 544 3500 
L 1119 3500 
L 1119 1403 
Q 1119 906 1312 657 
Q 1506 409 1894 409 
Q 2359 409 2629 706 
Q 2900 1003 2900 1516 
L 2900 3500 
L 3475 3500 
L 3475 0 
L 2900 0 
L 2900 538 
Q 2691 219 2414 64 
Q 2138 -91 1772 -91 
Q 1169 -91 856 284 
Q 544 659 544 1381 
z
M 1991 3584 
L 1991 3584 
z
" transform="scale(0.015625)"/>
       <path id="DejaVuSans-2f" d="M 1625 4666 
L 2156 4666 
L 531 -594 
L 0 -594 
L 1625 4666 
z
" transform="scale(0.015625)"/>
       <path id="DejaVuSans-55" d="M 556 4666 
L 1191 4666 
L 1191 1831 
Q 1191 1081 1462 751 
Q 1734 422 2344 422 
Q 2950 422 3222 751 
Q 3494 1081 3494 1831 
L 3494 4666 
L 4128 4666 
L 4128 1753 
Q 4128 841 3676 375 
Q 3225 -91 2344 -91 
Q 1459 -91 1007 375 
Q 556 841 556 1753 
L 556 4666 
z
" transform="scale(0.015625)"/>
       <path id="DejaVuSans-6e" d="M 3513 2113 
L 3513 0 
L 2938 0 
L 2938 2094 
Q 2938 2591 2744 2837 
Q 2550 3084 2163 3084 
Q 1697 3084 1428 2787 
Q 1159 2491 1159 1978 
L 1159 0 
L 581 0 
L 581 3500 
L 1159 3500 
L 1159 2956 
Q 1366 3272 1645 3428 
Q 1925 3584 2291 3584 
Q 2894 3584 3203 3211 
Q 3513 2838 3513 2113 
z
" transform="scale(0.015625)"/>
       <path id="DejaVuSans-64" d="M 2906 2969 
L 2906 4863 
L 3481 4863 
L 3481 0 
L 2906 0 
L 2906 525 
Q 2725 213 2448 61 
Q 2172 -91 1784 -91 
Q 1150 -91 751 415 
Q 353 922 353 1747 
Q 353 2572 751 3078 
Q 1150 3584 1784 3584 
Q 2172 3584 2448 3432 
Q 2725 3281 2906 2969 
z
M 947 1747 
Q 947 1113 1208 752 
Q 1469 391 1925 391 
Q 2381 391 2643 752 
Q 2906 1113 2906 1747 
Q 2906 2381 2643 2742 
Q 2381 3103 1925 3103 
Q 1469 3103 1208 2742 
Q 947 2381 947 1747 
z
" transform="scale(0.015625)"/>
       <path id="DejaVuSans-6c" d="M 603 4863 
L 1178 4863 
L 1178 0 
L 603 0 
L 603 4863 
z
" transform="scale(0.015625)"/>
       <path id="DejaVuSans-79" d="M 2059 -325 
Q 1816 -950 1584 -1140 
Q 1353 -1331 966 -1331 
L 506 -1331 
L 506 -850 
L 844 -850 
Q 1081 -850 1212 -737 
Q 1344 -625 1503 -206 
L 1606 56 
L 191 3500 
L 800 3500 
L 1894 763 
L 2988 3500 
L 3597 3500 
L 2059 -325 
z
" transform="scale(0.015625)"/>
       <path id="DejaVuSans-67" d="M 2906 1791 
Q 2906 2416 2648 2759 
Q 2391 3103 1925 3103 
Q 1463 3103 1205 2759 
Q 947 2416 947 1791 
Q 947 1169 1205 825 
Q 1463 481 1925 481 
Q 2391 481 2648 825 
Q 2906 1169 2906 1791 
z
M 3481 434 
Q 3481 -459 3084 -895 
Q 2688 -1331 1869 -1331 
Q 1566 -1331 1297 -1286 
Q 1028 -1241 775 -1147 
L 775 -588 
Q 1028 -725 1275 -790 
Q 1522 -856 1778 -856 
Q 2344 -856 2625 -561 
Q 2906 -266 2906 331 
L 2906 616 
Q 2728 306 2450 153 
Q 2172 0 1784 0 
Q 1141 0 747 490 
Q 353 981 353 1791 
Q 353 2603 747 3093 
Q 1141 3584 1784 3584 
Q 2172 3584 2450 3431 
Q 2728 3278 2906 2969 
L 2906 3500 
L 3481 3500 
L 3481 434 
z
" transform="scale(0.015625)"/>
       <path id="DejaVuSans-6d" d="M 3328 2828 
Q 3544 3216 3844 3400 
Q 4144 3584 4550 3584 
Q 5097 3584 5394 3201 
Q 5691 2819 5691 2113 
L 5691 0 
L 5113 0 
L 5113 2094 
Q 5113 2597 4934 2840 
Q 4756 3084 4391 3084 
Q 3944 3084 3684 2787 
Q 3425 2491 3425 1978 
L 3425 0 
L 2847 0 
L 2847 2094 
Q 2847 2600 2669 2842 
Q 2491 3084 2119 3084 
Q 1678 3084 1418 2786 
Q 1159 2488 1159 1978 
L 1159 0 
L 581 0 
L 581 3500 
L 1159 3500 
L 1159 2956 
Q 1356 3278 1631 3431 
Q 1906 3584 2284 3584 
Q 2666 3584 2933 3390 
Q 3200 3197 3328 2828 
z
" transform="scale(0.015625)"/>
      </defs>
      <use xlink:href="#DejaVuSans-54"/>
      <use xlink:href="#DejaVuSans-72" transform="translate(46.333984 0)"/>
      <use xlink:href="#DejaVuSans-75" transform="translate(87.447266 0)"/>
      <use xlink:href="#DejaVuSans-65" transform="translate(150.826172 0)"/>
      <use xlink:href="#DejaVuSans-2f" transform="translate(212.349609 0)"/>
      <use xlink:href="#DejaVuSans-55" transform="translate(246.041016 0)"/>
      <use xlink:href="#DejaVuSans-6e" transform="translate(319.234375 0)"/>
      <use xlink:href="#DejaVuSans-64" transform="translate(382.613281 0)"/>
      <use xlink:href="#DejaVuSans-65" transform="translate(446.089844 0)"/>
      <use xlink:href="#DejaVuSans-72" transform="translate(507.613281 0)"/>
      <use xlink:href="#DejaVuSans-6c" transform="translate(548.726562 0)"/>
      <use xlink:href="#DejaVuSans-79" transform="translate(576.509766 0)"/>
      <use xlink:href="#DejaVuSans-69" transform="translate(635.689453 0)"/>
      <use xlink:href="#DejaVuSans-6e" transform="translate(663.472656 0)"/>
      <use xlink:href="#DejaVuSans-67" transform="translate(726.851562 0)"/>
      <use xlink:href="#DejaVuSans-20" transform="translate(790.328125 0)"/>
      <use xlink:href="#DejaVuSans-6d" transform="translate(822.115234 0)"/>
      <use xlink:href="#DejaVuSans-6f" transform="translate(919.527344 0)"/>
      <use xlink:href="#DejaVuSans-64" transform="translate(980.708984 0)"/>
      <use xlink:href="#DejaVuSans-65" transform="translate(1044.185547 0)"/>
      <use xlink:href="#DejaVuSans-6c" transform="translate(1105.708984 0)"/>
     </g>
    </g>
    <g id="line2d_24">
     <path d="M 51.620313 50.094687 
L 61.620313 50.094687 
L 71.620313 50.094687 
" style="fill: none; stroke-dasharray: 12.95,5.6; stroke-dashoffset: 0; stroke: #ff0000; stroke-opacity: 0.8; stroke-width: 3.5"/>
    </g>
    <g id="text_23">
     <!-- AutoSINDy -->
     <g transform="translate(79.620313 53.594687) scale(0.1 -0.1)">
      <defs>
       <path id="DejaVuSans-41" d="M 2188 4044 
L 1331 1722 
L 3047 1722 
L 2188 4044 
z
M 1831 4666 
L 2547 4666 
L 4325 0 
L 3669 0 
L 3244 1197 
L 1141 1197 
L 716 0 
L 50 0 
L 1831 4666 
z
" transform="scale(0.015625)"/>
       <path id="DejaVuSans-53" d="M 3425 4513 
L 3425 3897 
Q 3066 4069 2747 4153 
Q 2428 4238 2131 4238 
Q 1616 4238 1336 4038 
Q 1056 3838 1056 3469 
Q 1056 3159 1242 3001 
Q 1428 2844 1947 2747 
L 2328 2669 
Q 3034 2534 3370 2195 
Q 3706 1856 3706 1288 
Q 3706 609 3251 259 
Q 2797 -91 1919 -91 
Q 1588 -91 1214 -16 
Q 841 59 441 206 
L 441 856 
Q 825 641 1194 531 
Q 1563 422 1919 422 
Q 2459 422 2753 634 
Q 3047 847 3047 1241 
Q 3047 1584 2836 1778 
Q 2625 1972 2144 2069 
L 1759 2144 
Q 1053 2284 737 2584 
Q 422 2884 422 3419 
Q 422 4038 858 4394 
Q 1294 4750 2059 4750 
Q 2388 4750 2728 4690 
Q 3069 4631 3425 4513 
z
" transform="scale(0.015625)"/>
       <path id="DejaVuSans-49" d="M 628 4666 
L 1259 4666 
L 1259 0 
L 628 0 
L 628 4666 
z
" transform="scale(0.015625)"/>
       <path id="DejaVuSans-4e" d="M 628 4666 
L 1478 4666 
L 3547 763 
L 3547 4666 
L 4159 4666 
L 4159 0 
L 3309 0 
L 1241 3903 
L 1241 0 
L 628 0 
L 628 4666 
z
" transform="scale(0.015625)"/>
       <path id="DejaVuSans-44" d="M 1259 4147 
L 1259 519 
L 2022 519 
Q 2988 519 3436 956 
Q 3884 1394 3884 2338 
Q 3884 3275 3436 3711 
Q 2988 4147 2022 4147 
L 1259 4147 
z
M 628 4666 
L 1925 4666 
Q 3281 4666 3915 4102 
Q 4550 3538 4550 2338 
Q 4550 1131 3912 565 
Q 3275 0 1925 0 
L 628 0 
L 628 4666 
z
" transform="scale(0.015625)"/>
      </defs>
      <use xlink:href="#DejaVuSans-41"/>
      <use xlink:href="#DejaVuSans-75" transform="translate(68.408203 0)"/>
      <use xlink:href="#DejaVuSans-74" transform="translate(131.787109 0)"/>
      <use xlink:href="#DejaVuSans-6f" transform="translate(170.996094 0)"/>
      <use xlink:href="#DejaVuSans-53" transform="translate(232.177734 0)"/>
      <use xlink:href="#DejaVuSans-49" transform="translate(295.654297 0)"/>
      <use xlink:href="#DejaVuSans-4e" transform="translate(325.146484 0)"/>
      <use xlink:href="#DejaVuSans-44" transform="translate(399.951172 0)"/>
      <use xlink:href="#DejaVuSans-79" transform="translate(476.953125 0)"/>
     </g>
    </g>
    <g id="line2d_25">
     <path d="M 51.620313 64.772812 
L 61.620313 64.772812 
L 71.620313 64.772812 
" style="fill: none; stroke-dasharray: 3.5,5.775; stroke-dashoffset: 0; stroke: #008000; stroke-opacity: 0.8; stroke-width: 3.5"/>
    </g>
    <g id="text_24">
     <!-- Standard SINDy -->
     <g transform="translate(79.620313 68.272812) scale(0.1 -0.1)">
      <use xlink:href="#DejaVuSans-53"/>
      <use xlink:href="#DejaVuSans-74" transform="translate(63.476562 0)"/>
      <use xlink:href="#DejaVuSans-61" transform="translate(102.685547 0)"/>
      <use xlink:href="#DejaVuSans-6e" transform="translate(163.964844 0)"/>
      <use xlink:href="#DejaVuSans-64" transform="translate(227.34375 0)"/>
      <use xlink:href="#DejaVuSans-61" transform="translate(290.820312 0)"/>
      <use xlink:href="#DejaVuSans-72" transform="translate(352.099609 0)"/>
      <use xlink:href="#DejaVuSans-64" transform="translate(391.462891 0)"/>
      <use xlink:href="#DejaVuSans-20" transform="translate(454.939453 0)"/>
      <use xlink:href="#DejaVuSans-53" transform="translate(486.726562 0)"/>
      <use xlink:href="#DejaVuSans-49" transform="translate(550.203125 0)"/>
      <use xlink:href="#DejaVuSans-4e" transform="translate(579.695312 0)"/>
      <use xlink:href="#DejaVuSans-44" transform="translate(654.5 0)"/>
      <use xlink:href="#DejaVuSans-79" transform="translate(731.501953 0)"/>
     </g>
    </g>
    <g id="line2d_26">
     <path d="M 51.620313 79.450937 
L 61.620313 79.450937 
L 71.620313 79.450937 
" style="fill: none; stroke-dasharray: 22.4,5.6,3.5,5.6; stroke-dashoffset: 0; stroke: #0000ff; stroke-opacity: 0.8; stroke-width: 3.5"/>
    </g>
    <g id="text_25">
     <!-- Standard PySR -->
     <g transform="translate(79.620313 82.950937) scale(0.1 -0.1)">
      <defs>
       <path id="DejaVuSans-52" d="M 2841 2188 
Q 3044 2119 3236 1894 
Q 3428 1669 3622 1275 
L 4263 0 
L 3584 0 
L 2988 1197 
Q 2756 1666 2539 1819 
Q 2322 1972 1947 1972 
L 1259 1972 
L 1259 0 
L 628 0 
L 628 4666 
L 2053 4666 
Q 2853 4666 3247 4331 
Q 3641 3997 3641 3322 
Q 3641 2881 3436 2590 
Q 3231 2300 2841 2188 
z
M 1259 4147 
L 1259 2491 
L 2053 2491 
Q 2509 2491 2742 2702 
Q 2975 2913 2975 3322 
Q 2975 3731 2742 3939 
Q 2509 4147 2053 4147 
L 1259 4147 
z
" transform="scale(0.015625)"/>
      </defs>
      <use xlink:href="#DejaVuSans-53"/>
      <use xlink:href="#DejaVuSans-74" transform="translate(63.476562 0)"/>
      <use xlink:href="#DejaVuSans-61" transform="translate(102.685547 0)"/>
      <use xlink:href="#DejaVuSans-6e" transform="translate(163.964844 0)"/>
      <use xlink:href="#DejaVuSans-64" transform="translate(227.34375 0)"/>
      <use xlink:href="#DejaVuSans-61" transform="translate(290.820312 0)"/>
      <use xlink:href="#DejaVuSans-72" transform="translate(352.099609 0)"/>
      <use xlink:href="#DejaVuSans-64" transform="translate(391.462891 0)"/>
      <use xlink:href="#DejaVuSans-20" transform="translate(454.939453 0)"/>
      <use xlink:href="#DejaVuSans-50" transform="translate(486.726562 0)"/>
      <use xlink:href="#DejaVuSans-79" transform="translate(547.029297 0)"/>
      <use xlink:href="#DejaVuSans-53" transform="translate(606.208984 0)"/>
      <use xlink:href="#DejaVuSans-52" transform="translate(669.685547 0)"/>
     </g>
    </g>
   </g>
  </g>
 </g>
 <defs>
  <clipPath id="p19e39e6d7c">
   <rect x="42.620313" y="22.318125" width="518.56" height="508.12"/>
  </clipPath>
 </defs>
</svg>
