<?xml version="1.0" encoding="utf-8" standalone="no"?>
<!DOCTYPE svg PUBLIC "-//W3C//DTD SVG 1.1//EN"
  "http://www.w3.org/Graphics/SVG/1.1/DTD/svg11.dtd">
<svg xmlns:xlink="http://www.w3.org/1999/xlink" width="855.850937pt" height="285.79625pt" viewBox="0 0 855.850937 285.79625" xmlns="http://www.w3.org/2000/svg" version="1.1">
 <metadata>
  <rdf:RDF xmlns:dc="http://purl.org/dc/elements/1.1/" xmlns:cc="http://creativecommons.org/ns#" xmlns:rdf="http://www.w3.org/1999/02/22-rdf-syntax-ns#">
   <cc:Work>
    <dc:type rdf:resource="http://purl.org/dc/dcmitype/StillImage"/>
    <dc:date>2026-04-03T20:55:29.320843</dc:date>
    <dc:format>image/svg+xml</dc:format>
    <dc:creator>
     <cc:Agent>
      <dc:title>Matplotlib v3.10.7, https://matplotlib.org/</dc:title>
     </cc:Agent>
    </dc:creator>
   </cc:Work>
  </rdf:RDF>
 </metadata>
 <defs>
  <style type="text/css">*{stroke-linejoin: round; stroke-linecap: butt}</style>
 </defs>
 <g id="figure_1">
  <g id="patch_1">
   <path d="M 0 285.79625 
L 855.850937 285.79625 
L 855.850937 0 
L 0 0 
z
" style="fill: #ffffff"/>
  </g>
  <g id="axes_1">
   <g id="patch_2">
    <path d="M 52.160938 136.79 
L 842.850937 136.79 
L 842.850937 39.64 
L 52.160938 39.64 
z
" style="fill: #ffffff"/>
   </g>
   <g id="line2d_1">
    <path d="M 88.101392 47.985791 
L 92.42289 46.885319 
L 96.744387 46.001318 
L 101.065885 45.331332 
L 105.387382 44.872005 
L 109.70888 44.618967 
L 114.030377 44.567193 
L 118.351875 44.711037 
L 122.673372 45.044233 
L 126.99487 45.559892 
L 131.316367 46.250508 
L 137.078364 47.429341 
L 142.840361 48.883697 
L 148.602358 50.590627 
L 154.364354 52.525228 
L 160.126351 54.664668 
L 167.328847 57.590362 
L 174.531343 60.746882 
L 183.174338 64.768108 
L 194.698331 70.38669 
L 222.067816 83.863186 
L 232.15131 88.524149 
L 240.794305 92.262649 
L 247.996801 95.157083 
L 255.199297 97.824033 
L 262.401793 100.243504 
L 269.604289 102.399869 
L 276.806785 104.278878 
L 282.568781 105.57507 
L 288.330778 106.683419 
L 294.092775 107.602225 
L 299.854772 108.331518 
L 305.616768 108.873058 
L 311.378765 109.230334 
L 318.581261 109.425922 
L 325.783757 109.35409 
L 332.986253 109.027208 
L 340.188749 108.462096 
L 347.391244 107.677181 
L 354.59374 106.692391 
L 363.236735 105.277074 
L 371.879731 103.644728 
L 381.963225 101.523147 
L 394.927717 98.550312 
L 441.023691 87.713359 
L 452.547685 85.352931 
L 462.631179 83.506968 
L 472.714673 81.899602 
L 481.357668 80.729067 
L 490.000663 79.759146 
L 498.643658 78.993381 
L 507.286653 78.431799 
L 515.929649 78.074001 
L 524.572644 77.914713 
L 534.656138 77.968372 
L 544.739632 78.262057 
L 554.823126 78.77157 
L 566.34712 79.58386 
L 579.311612 80.737963 
L 595.157103 82.39939 
L 619.64559 85.238304 
L 645.574575 88.178301 
L 661.420066 89.758696 
L 675.825058 90.978786 
L 688.78955 91.865961 
L 701.754043 92.533955 
L 714.718535 92.97615 
L 727.683028 93.196783 
L 740.647521 93.205782 
L 755.052512 92.988819 
L 770.898003 92.512236 
L 789.624493 91.701389 
L 806.910483 90.79465 
L 806.910483 90.79465 
" clip-path="url(#p6afbc85595)" style="fill: none; stroke: #000000; stroke-opacity: 0.4; stroke-width: 6; stroke-linecap: square"/>
   </g>
   <g id="matplotlib.axis_1">
    <g id="xtick_1">
     <g id="line2d_2">
      <defs>
       <path id="ma5a9258f36" d="M 0 0 
L 0 3.5 
" style="stroke: #000000; stroke-width: 0.8"/>
      </defs>
      <g>
       <use xlink:href="#ma5a9258f36" x="88.101392" y="136.79" style="stroke: #000000; stroke-width: 0.8"/>
      </g>
     </g>
    </g>
    <g id="xtick_2">
     <g id="line2d_3">
      <g>
       <use xlink:href="#ma5a9258f36" x="231.86321" y="136.79" style="stroke: #000000; stroke-width: 0.8"/>
      </g>
     </g>
    </g>
    <g id="xtick_3">
     <g id="line2d_4">
      <g>
       <use xlink:href="#ma5a9258f36" x="375.625028" y="136.79" style="stroke: #000000; stroke-width: 0.8"/>
      </g>
     </g>
    </g>
    <g id="xtick_4">
     <g id="line2d_5">
      <g>
       <use xlink:href="#ma5a9258f36" x="519.386847" y="136.79" style="stroke: #000000; stroke-width: 0.8"/>
      </g>
     </g>
    </g>
    <g id="xtick_5">
     <g id="line2d_6">
      <g>
       <use xlink:href="#ma5a9258f36" x="663.148665" y="136.79" style="stroke: #000000; stroke-width: 0.8"/>
      </g>
     </g>
    </g>
    <g id="xtick_6">
     <g id="line2d_7">
      <g>
       <use xlink:href="#ma5a9258f36" x="806.910483" y="136.79" style="stroke: #000000; stroke-width: 0.8"/>
      </g>
     </g>
    </g>
   </g>
   <g id="matplotlib.axis_2">
    <g id="ytick_1">
     <g id="line2d_8">
      <defs>
       <path id="mee9074acd5" d="M 0 0 
L -3.5 0 
" style="stroke: #000000; stroke-width: 0.8"/>
      </defs>
      <g>
       <use xlink:href="#mee9074acd5" x="52.160938" y="128.444986" style="stroke: #000000; stroke-width: 0.8"/>
      </g>
     </g>
     <g id="text_1">
      <!-- −0.5 -->
      <g transform="translate(20.878125 132.244204) scale(0.1 -0.1)">
       <defs>
        <path id="DejaVuSans-2212" d="M 678 2272 
L 4684 2272 
L 4684 1741 
L 678 1741 
L 678 2272 
z
" transform="scale(0.015625)"/>
        <path id="DejaVuSans-30" d="M 2034 4250 
Q 1547 4250 1301 3770 
Q 1056 3291 1056 2328 
Q 1056 1369 1301 889 
Q 1547 409 2034 409 
Q 2525 409 2770 889 
Q 3016 1369 3016 2328 
Q 3016 3291 2770 3770 
Q 2525 4250 2034 4250 
z
M 2034 4750 
Q 2819 4750 3233 4129 
Q 3647 3509 3647 2328 
Q 3647 1150 3233 529 
Q 2819 -91 2034 -91 
Q 1250 -91 836 529 
Q 422 1150 422 2328 
Q 422 3509 836 4129 
Q 1250 4750 2034 4750 
z
" transform="scale(0.015625)"/>
        <path id="DejaVuSans-2e" d="M 684 794 
L 1344 794 
L 1344 0 
L 684 0 
L 684 794 
z
" transform="scale(0.015625)"/>
        <path id="DejaVuSans-35" d="M 691 4666 
L 3169 4666 
L 3169 4134 
L 1269 4134 
L 1269 2991 
Q 1406 3038 1543 3061 
Q 1681 3084 1819 3084 
Q 2600 3084 3056 2656 
Q 3513 2228 3513 1497 
Q 3513 744 3044 326 
Q 2575 -91 1722 -91 
Q 1428 -91 1123 -41 
Q 819 9 494 109 
L 494 744 
Q 775 591 1075 516 
Q 1375 441 1709 441 
Q 2250 441 2565 725 
Q 2881 1009 2881 1497 
Q 2881 1984 2565 2268 
Q 2250 2553 1709 2553 
Q 1456 2553 1204 2497 
Q 953 2441 691 2322 
L 691 4666 
z
" transform="scale(0.015625)"/>
       </defs>
       <use xlink:href="#DejaVuSans-2212"/>
       <use xlink:href="#DejaVuSans-30" transform="translate(83.789062 0)"/>
       <use xlink:href="#DejaVuSans-2e" transform="translate(147.412109 0)"/>
       <use xlink:href="#DejaVuSans-35" transform="translate(179.199219 0)"/>
      </g>
     </g>
    </g>
    <g id="ytick_2">
     <g id="line2d_9">
      <g>
       <use xlink:href="#mee9074acd5" x="52.160938" y="88.215388" style="stroke: #000000; stroke-width: 0.8"/>
      </g>
     </g>
     <g id="text_2">
      <!-- 0.0 -->
      <g transform="translate(29.257812 92.014607) scale(0.1 -0.1)">
       <use xlink:href="#DejaVuSans-30"/>
       <use xlink:href="#DejaVuSans-2e" transform="translate(63.623047 0)"/>
       <use xlink:href="#DejaVuSans-30" transform="translate(95.410156 0)"/>
      </g>
     </g>
    </g>
    <g id="ytick_3">
     <g id="line2d_10">
      <g>
       <use xlink:href="#mee9074acd5" x="52.160938" y="47.985791" style="stroke: #000000; stroke-width: 0.8"/>
      </g>
     </g>
     <g id="text_3">
      <!-- 0.5 -->
      <g transform="translate(29.257812 51.785009) scale(0.1 -0.1)">
       <use xlink:href="#DejaVuSans-30"/>
       <use xlink:href="#DejaVuSans-2e" transform="translate(63.623047 0)"/>
       <use xlink:href="#DejaVuSans-35" transform="translate(95.410156 0)"/>
      </g>
     </g>
    </g>
    <g id="text_4">
     <!-- $x0$ -->
     <g transform="translate(14.798438 94.365) rotate(-90) scale(0.1 -0.1)">
      <defs>
       <path id="DejaVuSans-Oblique-78" d="M 3841 3500 
L 2234 1784 
L 3219 0 
L 2559 0 
L 1819 1388 
L 531 0 
L -166 0 
L 1556 1844 
L 641 3500 
L 1300 3500 
L 1972 2234 
L 3144 3500 
L 3841 3500 
z
" transform="scale(0.015625)"/>
      </defs>
      <use xlink:href="#DejaVuSans-Oblique-78" transform="translate(0 0.78125)"/>
      <use xlink:href="#DejaVuSans-30" transform="translate(59.179688 0.78125)"/>
     </g>
    </g>
   </g>
   <g id="line2d_11">
    <path d="M 88.101392 47.985791 
L 92.42289 46.866022 
L 96.744387 45.928519 
L 101.065885 45.177382 
L 105.387382 44.615941 
L 109.70888 44.246669 
L 114.030377 44.071174 
L 118.351875 44.090268 
L 122.673372 44.303829 
L 126.99487 44.710937 
L 131.316367 45.309796 
L 135.637865 46.097745 
L 139.959363 47.071352 
L 144.28086 48.226287 
L 150.042857 50.039379 
L 155.804854 52.151529 
L 161.56685 54.546173 
L 167.328847 57.204504 
L 173.090844 60.105238 
L 178.85284 63.223424 
L 186.055336 67.378387 
L 194.698331 72.632517 
L 219.186817 87.953597 
L 252.318299 108.553751 
L 259.520794 112.73761 
L 266.72329 116.639632 
L 272.485287 119.516109 
L 278.247284 122.147797 
L 284.009281 124.513725 
L 289.771277 126.595319 
L 295.533274 128.376276 
L 299.854772 129.506213 
L 304.176269 130.454148 
L 308.497767 131.215935 
L 312.819264 131.788175 
L 317.140762 132.168377 
L 321.462259 132.354859 
L 325.783757 132.346781 
L 330.105254 132.144214 
L 334.426752 131.748009 
L 338.748249 131.159943 
L 343.069747 130.382602 
L 347.391244 129.419394 
L 351.712742 128.274598 
L 357.474739 126.47452 
L 363.236735 124.37474 
L 368.998732 121.991713 
L 374.760729 119.344057 
L 380.522726 116.452081 
L 386.284722 113.336361 
L 393.487218 109.153574 
L 400.689714 104.670615 
L 407.89221 99.903703 
L 416.535205 93.864603 
L 442.46419 75.424447 
L 449.666686 70.719776 
L 456.869182 66.303436 
L 464.071678 62.191144 
L 469.833675 59.136752 
L 475.595672 56.311803 
L 481.357668 53.737021 
L 487.119665 51.432348 
L 492.881662 49.41582 
L 498.643658 47.703219 
L 502.965156 46.626374 
L 507.286653 45.732849 
L 511.608151 45.026562 
L 515.929649 44.51062 
L 520.251146 44.187329 
L 524.572644 44.058071 
L 528.894141 44.123453 
L 533.215639 44.383167 
L 537.537136 44.836061 
L 541.858634 45.480172 
L 546.180131 46.312619 
L 550.501629 47.329767 
L 554.823126 48.527116 
L 560.585123 50.394658 
L 566.34712 52.558467 
L 572.109117 55.001592 
L 577.871113 57.704804 
L 583.63311 60.646308 
L 590.835606 64.618284 
L 598.038102 68.855118 
L 608.121596 75.064228 
L 662.860565 109.165071 
L 670.063061 113.313304 
L 675.825058 116.424821 
L 681.587054 119.31794 
L 687.349051 121.967888 
L 693.111048 124.353497 
L 698.873044 126.456031 
L 704.635041 128.259017 
L 708.956539 129.406081 
L 713.278036 130.371595 
L 717.599534 131.15132 
L 721.921031 131.74178 
L 726.242529 132.140415 
L 730.564026 132.345441 
L 734.885524 132.35596 
L 739.207021 132.171945 
L 743.528519 131.794167 
L 747.850017 131.224332 
L 752.171514 130.464927 
L 756.493012 129.519303 
L 760.814509 128.391646 
L 765.136007 127.086891 
L 770.898003 125.081824 
L 776.66 122.787974 
L 782.421997 120.223277 
L 788.183994 117.407607 
L 793.94599 114.361716 
L 801.148486 110.259155 
L 806.910483 106.757009 
L 806.910483 106.757009 
" clip-path="url(#p6afbc85595)" style="fill: none; stroke-dasharray: 22.4,5.6,3.5,5.6; stroke-dashoffset: 0; stroke: #0000ff; stroke-opacity: 0.8; stroke-width: 3.5"/>
   </g>
   <g id="patch_3">
    <path d="M 52.160938 136.79 
L 52.160938 39.64 
" style="fill: none; stroke: #000000; stroke-width: 0.8; stroke-linejoin: miter; stroke-linecap: square"/>
   </g>
   <g id="patch_4">
    <path d="M 842.850937 136.79 
L 842.850937 39.64 
" style="fill: none; stroke: #000000; stroke-width: 0.8; stroke-linejoin: miter; stroke-linecap: square"/>
   </g>
   <g id="patch_5">
    <path d="M 52.160938 136.79 
L 842.850937 136.79 
" style="fill: none; stroke: #000000; stroke-width: 0.8; stroke-linejoin: miter; stroke-linecap: square"/>
   </g>
   <g id="patch_6">
    <path d="M 52.160938 39.64 
L 842.850937 39.64 
" style="fill: none; stroke: #000000; stroke-width: 0.8; stroke-linejoin: miter; stroke-linecap: square"/>
   </g>
   <g id="line2d_12">
    <path d="M 88.101392 47.985791 
L 92.42289 46.886612 
L 96.744387 46.003825 
L 101.065885 45.335063 
L 105.387382 44.877103 
L 109.70888 44.625793 
L 114.030377 44.576115 
L 118.351875 44.722309 
L 122.673372 45.057815 
L 126.99487 45.575455 
L 131.316367 46.267439 
L 137.078364 47.446822 
L 142.840361 48.900298 
L 148.602358 50.605613 
L 154.364354 52.539465 
L 160.126351 54.677709 
L 167.328847 57.600114 
L 174.531343 60.753707 
L 183.174338 64.772925 
L 194.698331 70.38983 
L 222.067816 83.849768 
L 232.15131 88.501041 
L 240.794305 92.234911 
L 247.996801 95.128615 
L 255.199297 97.796974 
L 262.401793 100.218474 
L 269.604289 102.375555 
L 276.806785 104.25466 
L 282.568781 105.55125 
L 288.330778 106.660699 
L 294.092775 107.581553 
L 299.854772 108.313915 
L 305.616768 108.859407 
L 311.378765 109.221082 
L 318.581261 109.421513 
L 325.783757 109.353045 
L 332.986253 109.029785 
L 340.188749 108.46827 
L 347.391244 107.68713 
L 354.59374 106.706743 
L 363.236735 105.29802 
L 371.879731 103.67341 
L 381.963225 101.559935 
L 394.927717 98.599245 
L 442.46419 87.471532 
L 453.988184 85.144605 
L 464.071678 83.331946 
L 474.155172 81.758148 
L 482.798167 80.615494 
L 491.441162 79.672782 
L 500.084158 78.934805 
L 508.727153 78.402476 
L 517.370148 78.073034 
L 526.013143 77.940314 
L 536.096637 78.021594 
L 546.180131 78.338553 
L 556.263626 78.867569 
L 567.787619 79.697035 
L 580.752112 80.863744 
L 596.597603 82.531201 
L 623.967087 85.694278 
L 647.015074 88.267596 
L 662.860565 89.824345 
L 677.265557 91.019175 
L 690.230049 91.88325 
L 703.194542 92.530325 
L 716.159035 92.954226 
L 729.123527 93.157964 
L 742.08802 93.152816 
L 756.493012 92.924663 
L 772.338503 92.442333 
L 791.064992 91.631121 
L 806.910483 90.808548 
L 806.910483 90.808548 
" clip-path="url(#p6afbc85595)" style="fill: none; stroke-dasharray: 3.5,5.775; stroke-dashoffset: 0; stroke: #008000; stroke-opacity: 0.8; stroke-width: 3.5"/>
   </g>
   <g id="line2d_13">
    <path d="M 88.101392 47.985791 
L 92.42289 46.886763 
L 96.744387 46.004289 
L 101.065885 45.33581 
L 105.387382 44.877952 
L 109.70888 44.626477 
L 114.030377 44.576343 
L 118.351875 44.721811 
L 122.673372 45.056381 
L 126.99487 45.572951 
L 131.316367 46.263804 
L 137.078364 47.441687 
L 142.840361 48.89374 
L 148.602358 50.597719 
L 154.364354 52.530266 
L 160.126351 54.667153 
L 167.328847 57.587675 
L 174.531343 60.739106 
L 183.174338 64.755425 
L 194.698331 70.368381 
L 222.067816 83.821351 
L 232.15131 88.470381 
L 240.794305 92.201724 
L 247.996801 95.092625 
L 255.199297 97.757452 
L 262.401793 100.174738 
L 269.604289 102.327096 
L 276.806785 104.20123 
L 282.568781 105.493871 
L 288.330778 106.599564 
L 294.092775 107.516995 
L 299.854772 108.246375 
L 305.616768 108.789401 
L 311.378765 109.149164 
L 318.581261 109.347988 
L 325.783757 109.278733 
L 332.986253 108.955414 
L 340.188749 108.394463 
L 347.391244 107.614412 
L 354.59374 106.635557 
L 363.236735 105.229188 
L 371.879731 103.607465 
L 381.963225 101.498041 
L 394.927717 98.543712 
L 441.023691 87.756754 
L 452.547685 85.409195 
L 462.631179 83.573444 
L 472.714673 81.972681 
L 481.357668 80.804467 
L 490.000663 79.834512 
L 498.643658 79.068163 
L 507.286653 78.506894 
L 515.929649 78.148502 
L 524.572644 77.987364 
L 534.656138 78.036846 
L 544.739632 78.32415 
L 554.823126 78.82628 
L 566.34712 79.629034 
L 579.311612 80.771415 
L 595.157103 82.417891 
L 619.64559 85.231689 
L 645.574575 88.148467 
L 661.420066 89.718915 
L 675.825058 90.930478 
L 688.78955 91.812004 
L 701.754043 92.477814 
L 714.718535 92.92082 
L 727.683028 93.143176 
L 740.647521 93.155395 
L 755.052512 92.9443 
L 770.898003 92.477256 
L 789.624493 91.678706 
L 806.910483 90.783677 
L 806.910483 90.783677 
" clip-path="url(#p6afbc85595)" style="fill: none; stroke-dasharray: 12.95,5.6; stroke-dashoffset: 0; stroke: #ff0000; stroke-opacity: 0.8; stroke-width: 3.5"/>
   </g>
  </g>
  <g id="axes_2">
   <g id="patch_7">
    <path d="M 52.160938 248.24 
L 842.850937 248.24 
L 842.850937 151.09 
L 52.160938 151.09 
z
" style="fill: #ffffff"/>
   </g>
   <g id="line2d_14">
    <path d="M 88.101392 181.278213 
L 101.065885 190.993092 
L 109.70888 197.21203 
L 116.911376 202.151967 
L 124.113872 206.815728 
L 129.875868 210.317754 
L 135.637865 213.595056 
L 141.399862 216.63129 
L 147.161858 219.413141 
L 152.923855 221.930318 
L 158.685852 224.174583 
L 164.447849 226.137663 
L 170.209845 227.814317 
L 175.971842 229.201849 
L 181.733839 230.300062 
L 187.495835 231.111256 
L 193.257832 231.640231 
L 199.019829 231.894285 
L 204.781826 231.883213 
L 210.543822 231.619311 
L 216.305819 231.114321 
L 222.067816 230.379976 
L 227.829813 229.431625 
L 233.591809 228.285268 
L 240.794305 226.599295 
L 247.996801 224.663918 
L 255.199297 222.514639 
L 263.842292 219.705465 
L 273.925786 216.192094 
L 289.771277 210.388481 
L 309.938266 203.027609 
L 321.462259 199.071223 
L 331.545753 195.862779 
L 340.188749 193.351378 
L 348.831744 191.095738 
L 356.03424 189.43002 
L 363.236735 187.970361 
L 370.439231 186.723637 
L 377.641727 185.692979 
L 384.844223 184.878998 
L 392.046719 184.282643 
L 399.249215 183.901097 
L 406.451711 183.729092 
L 413.654207 183.759024 
L 420.856703 183.980956 
L 429.499698 184.48327 
L 438.142693 185.218625 
L 446.785688 186.159224 
L 456.869182 187.48082 
L 468.393176 189.22627 
L 482.798167 191.653373 
L 533.215639 200.403628 
L 546.180131 202.295635 
L 557.704125 203.751195 
L 569.228118 204.964531 
L 579.311612 205.811253 
L 589.395107 206.449733 
L 599.478601 206.879114 
L 609.562095 207.104667 
L 621.086089 207.123845 
L 632.610082 206.906486 
L 644.134076 206.477074 
L 657.098568 205.777131 
L 672.944059 204.677788 
L 693.111048 203.027151 
L 742.08802 198.914303 
L 759.37401 197.737051 
L 775.219501 196.879525 
L 791.064992 196.259273 
L 805.469984 195.911607 
L 806.910483 195.888149 
L 806.910483 195.888149 
" clip-path="url(#p06b3487de5)" style="fill: none; stroke: #000000; stroke-opacity: 0.4; stroke-width: 6; stroke-linecap: square"/>
   </g>
   <g id="matplotlib.axis_3">
    <g id="xtick_7">
     <g id="line2d_15">
      <g>
       <use xlink:href="#ma5a9258f36" x="88.101392" y="248.24" style="stroke: #000000; stroke-width: 0.8"/>
      </g>
     </g>
     <g id="text_5">
      <!-- 0 -->
      <g transform="translate(84.920142 262.838437) scale(0.1 -0.1)">
       <use xlink:href="#DejaVuSans-30"/>
      </g>
     </g>
    </g>
    <g id="xtick_8">
     <g id="line2d_16">
      <g>
       <use xlink:href="#ma5a9258f36" x="231.86321" y="248.24" style="stroke: #000000; stroke-width: 0.8"/>
      </g>
     </g>
     <g id="text_6">
      <!-- 1 -->
      <g transform="translate(228.68196 262.838437) scale(0.1 -0.1)">
       <defs>
        <path id="DejaVuSans-31" d="M 794 531 
L 1825 531 
L 1825 4091 
L 703 3866 
L 703 4441 
L 1819 4666 
L 2450 4666 
L 2450 531 
L 3481 531 
L 3481 0 
L 794 0 
L 794 531 
z
" transform="scale(0.015625)"/>
       </defs>
       <use xlink:href="#DejaVuSans-31"/>
      </g>
     </g>
    </g>
    <g id="xtick_9">
     <g id="line2d_17">
      <g>
       <use xlink:href="#ma5a9258f36" x="375.625028" y="248.24" style="stroke: #000000; stroke-width: 0.8"/>
      </g>
     </g>
     <g id="text_7">
      <!-- 2 -->
      <g transform="translate(372.443778 262.838437) scale(0.1 -0.1)">
       <defs>
        <path id="DejaVuSans-32" d="M 1228 531 
L 3431 531 
L 3431 0 
L 469 0 
L 469 531 
Q 828 903 1448 1529 
Q 2069 2156 2228 2338 
Q 2531 2678 2651 2914 
Q 2772 3150 2772 3378 
Q 2772 3750 2511 3984 
Q 2250 4219 1831 4219 
Q 1534 4219 1204 4116 
Q 875 4013 500 3803 
L 500 4441 
Q 881 4594 1212 4672 
Q 1544 4750 1819 4750 
Q 2544 4750 2975 4387 
Q 3406 4025 3406 3419 
Q 3406 3131 3298 2873 
Q 3191 2616 2906 2266 
Q 2828 2175 2409 1742 
Q 1991 1309 1228 531 
z
" transform="scale(0.015625)"/>
       </defs>
       <use xlink:href="#DejaVuSans-32"/>
      </g>
     </g>
    </g>
    <g id="xtick_10">
     <g id="line2d_18">
      <g>
       <use xlink:href="#ma5a9258f36" x="519.386847" y="248.24" style="stroke: #000000; stroke-width: 0.8"/>
      </g>
     </g>
     <g id="text_8">
      <!-- 3 -->
      <g transform="translate(516.205597 262.838437) scale(0.1 -0.1)">
       <defs>
        <path id="DejaVuSans-33" d="M 2597 2516 
Q 3050 2419 3304 2112 
Q 3559 1806 3559 1356 
Q 3559 666 3084 287 
Q 2609 -91 1734 -91 
Q 1441 -91 1130 -33 
Q 819 25 488 141 
L 488 750 
Q 750 597 1062 519 
Q 1375 441 1716 441 
Q 2309 441 2620 675 
Q 2931 909 2931 1356 
Q 2931 1769 2642 2001 
Q 2353 2234 1838 2234 
L 1294 2234 
L 1294 2753 
L 1863 2753 
Q 2328 2753 2575 2939 
Q 2822 3125 2822 3475 
Q 2822 3834 2567 4026 
Q 2313 4219 1838 4219 
Q 1578 4219 1281 4162 
Q 984 4106 628 3988 
L 628 4550 
Q 988 4650 1302 4700 
Q 1616 4750 1894 4750 
Q 2613 4750 3031 4423 
Q 3450 4097 3450 3541 
Q 3450 3153 3228 2886 
Q 3006 2619 2597 2516 
z
" transform="scale(0.015625)"/>
       </defs>
       <use xlink:href="#DejaVuSans-33"/>
      </g>
     </g>
    </g>
    <g id="xtick_11">
     <g id="line2d_19">
      <g>
       <use xlink:href="#ma5a9258f36" x="663.148665" y="248.24" style="stroke: #000000; stroke-width: 0.8"/>
      </g>
     </g>
     <g id="text_9">
      <!-- 4 -->
      <g transform="translate(659.967415 262.838437) scale(0.1 -0.1)">
       <defs>
        <path id="DejaVuSans-34" d="M 2419 4116 
L 825 1625 
L 2419 1625 
L 2419 4116 
z
M 2253 4666 
L 3047 4666 
L 3047 1625 
L 3713 1625 
L 3713 1100 
L 3047 1100 
L 3047 0 
L 2419 0 
L 2419 1100 
L 313 1100 
L 313 1709 
L 2253 4666 
z
" transform="scale(0.015625)"/>
       </defs>
       <use xlink:href="#DejaVuSans-34"/>
      </g>
     </g>
    </g>
    <g id="xtick_12">
     <g id="line2d_20">
      <g>
       <use xlink:href="#ma5a9258f36" x="806.910483" y="248.24" style="stroke: #000000; stroke-width: 0.8"/>
      </g>
     </g>
     <g id="text_10">
      <!-- 5 -->
      <g transform="translate(803.729233 262.838437) scale(0.1 -0.1)">
       <use xlink:href="#DejaVuSans-35"/>
      </g>
     </g>
    </g>
    <g id="text_11">
     <!-- Time -->
     <g transform="translate(435.272344 276.516562) scale(0.1 -0.1)">
      <defs>
       <path id="DejaVuSans-54" d="M -19 4666 
L 3928 4666 
L 3928 4134 
L 2272 4134 
L 2272 0 
L 1638 0 
L 1638 4134 
L -19 4134 
L -19 4666 
z
" transform="scale(0.015625)"/>
       <path id="DejaVuSans-69" d="M 603 3500 
L 1178 3500 
L 1178 0 
L 603 0 
L 603 3500 
z
M 603 4863 
L 1178 4863 
L 1178 4134 
L 603 4134 
L 603 4863 
z
" transform="scale(0.015625)"/>
       <path id="DejaVuSans-6d" d="M 3328 2828 
Q 3544 3216 3844 3400 
Q 4144 3584 4550 3584 
Q 5097 3584 5394 3201 
Q 5691 2819 5691 2113 
L 5691 0 
L 5113 0 
L 5113 2094 
Q 5113 2597 4934 2840 
Q 4756 3084 4391 3084 
Q 3944 3084 3684 2787 
Q 3425 2491 3425 1978 
L 3425 0 
L 2847 0 
L 2847 2094 
Q 2847 2600 2669 2842 
Q 2491 3084 2119 3084 
Q 1678 3084 1418 2786 
Q 1159 2488 1159 1978 
L 1159 0 
L 581 0 
L 581 3500 
L 1159 3500 
L 1159 2956 
Q 1356 3278 1631 3431 
Q 1906 3584 2284 3584 
Q 2666 3584 2933 3390 
Q 3200 3197 3328 2828 
z
" transform="scale(0.015625)"/>
       <path id="DejaVuSans-65" d="M 3597 1894 
L 3597 1613 
L 953 1613 
Q 991 1019 1311 708 
Q 1631 397 2203 397 
Q 2534 397 2845 478 
Q 3156 559 3463 722 
L 3463 178 
Q 3153 47 2828 -22 
Q 2503 -91 2169 -91 
Q 1331 -91 842 396 
Q 353 884 353 1716 
Q 353 2575 817 3079 
Q 1281 3584 2069 3584 
Q 2775 3584 3186 3129 
Q 3597 2675 3597 1894 
z
M 3022 2063 
Q 3016 2534 2758 2815 
Q 2500 3097 2075 3097 
Q 1594 3097 1305 2825 
Q 1016 2553 972 2059 
L 3022 2063 
z
" transform="scale(0.015625)"/>
      </defs>
      <use xlink:href="#DejaVuSans-54"/>
      <use xlink:href="#DejaVuSans-69" transform="translate(57.958984 0)"/>
      <use xlink:href="#DejaVuSans-6d" transform="translate(85.742188 0)"/>
      <use xlink:href="#DejaVuSans-65" transform="translate(183.154297 0)"/>
     </g>
    </g>
   </g>
   <g id="matplotlib.axis_4">
    <g id="ytick_4">
     <g id="line2d_21">
      <g>
       <use xlink:href="#mee9074acd5" x="52.160938" y="235.89837" style="stroke: #000000; stroke-width: 0.8"/>
      </g>
     </g>
     <g id="text_12">
      <!-- −1 -->
      <g transform="translate(30.41875 239.697588) scale(0.1 -0.1)">
       <use xlink:href="#DejaVuSans-2212"/>
       <use xlink:href="#DejaVuSans-31" transform="translate(83.789062 0)"/>
      </g>
     </g>
    </g>
    <g id="ytick_5">
     <g id="line2d_22">
      <g>
       <use xlink:href="#mee9074acd5" x="52.160938" y="199.484932" style="stroke: #000000; stroke-width: 0.8"/>
      </g>
     </g>
     <g id="text_13">
      <!-- 0 -->
      <g transform="translate(38.798438 203.28415) scale(0.1 -0.1)">
       <use xlink:href="#DejaVuSans-30"/>
      </g>
     </g>
    </g>
    <g id="ytick_6">
     <g id="line2d_23">
      <g>
       <use xlink:href="#mee9074acd5" x="52.160938" y="163.071494" style="stroke: #000000; stroke-width: 0.8"/>
      </g>
     </g>
     <g id="text_14">
      <!-- 1 -->
      <g transform="translate(38.798438 166.870713) scale(0.1 -0.1)">
       <use xlink:href="#DejaVuSans-31"/>
      </g>
     </g>
    </g>
    <g id="text_15">
     <!-- $x1$ -->
     <g transform="translate(24.339063 205.815) rotate(-90) scale(0.1 -0.1)">
      <use xlink:href="#DejaVuSans-Oblique-78" transform="translate(0 0.09375)"/>
      <use xlink:href="#DejaVuSans-31" transform="translate(59.179688 0.09375)"/>
     </g>
    </g>
   </g>
   <g id="line2d_24">
    <path d="M 88.101392 181.278213 
L 96.744387 186.763876 
L 106.827881 193.439939 
L 137.078364 213.683869 
L 145.721359 219.093857 
L 152.923855 223.342264 
L 160.126351 227.298773 
L 165.888348 230.221153 
L 171.650344 232.90278 
L 177.412341 235.322712 
L 183.174338 237.462371 
L 188.936335 239.306135 
L 193.257832 240.487498 
L 197.57933 241.492186 
L 201.900827 242.318135 
L 206.222325 242.964329 
L 210.543822 243.430563 
L 214.86532 243.717051 
L 219.186817 243.824091 
L 223.508315 243.751818 
L 227.829813 243.500137 
L 232.15131 243.068769 
L 236.472808 242.457474 
L 240.794305 241.666315 
L 245.115803 240.696142 
L 249.4373 239.548818 
L 255.199297 237.74915 
L 260.961294 235.651616 
L 266.72329 233.27134 
L 272.485287 230.626521 
L 278.247284 227.737768 
L 284.009281 224.627701 
L 291.211776 220.466162 
L 298.414272 216.047915 
L 307.057267 210.483462 
L 318.581261 202.780352 
L 341.629248 187.309086 
L 350.272243 181.797403 
L 357.474739 177.438312 
L 364.677235 173.348965 
L 370.439231 170.305456 
L 376.201228 167.490521 
L 381.963225 164.926238 
L 387.725222 162.632865 
L 393.487218 160.629012 
L 397.808716 159.326621 
L 402.130213 158.203946 
L 406.451711 157.267857 
L 410.773208 156.524819 
L 415.094706 155.980613 
L 419.416203 155.639959 
L 423.737701 155.505909 
L 428.059199 155.579829 
L 432.380696 155.860954 
L 436.702194 156.346666 
L 441.023691 157.032732 
L 445.345189 157.913599 
L 449.666686 158.982975 
L 453.988184 160.234081 
L 459.750181 162.17277 
L 465.512177 164.404839 
L 471.274174 166.91199 
L 477.036171 169.674344 
L 482.798167 172.670216 
L 490.000663 176.707531 
L 497.203159 181.02353 
L 505.846154 186.496039 
L 515.929649 193.162729 
L 547.620631 214.342195 
L 556.263626 219.716008 
L 563.466122 223.925865 
L 569.228118 227.080798 
L 574.990115 230.019569 
L 580.752112 232.719159 
L 586.514108 235.158483 
L 592.276105 237.318777 
L 598.038102 239.184183 
L 602.359599 240.382257 
L 606.681097 241.403924 
L 611.002594 242.247009 
L 615.324092 242.910386 
L 619.64559 243.393802 
L 623.967087 243.697444 
L 628.288585 243.821613 
L 632.610082 243.766465 
L 636.93158 243.531929 
L 641.253077 243.117736 
L 645.574575 242.52363 
L 649.896072 241.749625 
L 654.21757 240.796496 
L 658.539067 239.665965 
L 664.301064 237.888118 
L 670.063061 235.811463 
L 675.825058 233.450868 
L 681.587054 230.824337 
L 687.349051 227.952324 
L 693.111048 224.85732 
L 700.313544 220.712067 
L 707.51604 216.307098 
L 716.159035 210.75438 
L 727.683028 203.059472 
L 750.731015 187.578441 
L 759.37401 182.054276 
L 766.576506 177.681316 
L 773.779002 173.575126 
L 779.540999 170.516137 
L 785.302995 167.684073 
L 791.064992 165.101139 
L 796.826989 162.787726 
L 802.588985 160.762546 
L 806.910483 159.443355 
L 806.910483 159.443355 
" clip-path="url(#p06b3487de5)" style="fill: none; stroke-dasharray: 22.4,5.6,3.5,5.6; stroke-dashoffset: 0; stroke: #0000ff; stroke-opacity: 0.8; stroke-width: 3.5"/>
   </g>
   <g id="patch_8">
    <path d="M 52.160938 248.24 
L 52.160938 151.09 
" style="fill: none; stroke: #000000; stroke-width: 0.8; stroke-linejoin: miter; stroke-linecap: square"/>
   </g>
   <g id="patch_9">
    <path d="M 842.850937 248.24 
L 842.850937 151.09 
" style="fill: none; stroke: #000000; stroke-width: 0.8; stroke-linejoin: miter; stroke-linecap: square"/>
   </g>
   <g id="patch_10">
    <path d="M 52.160938 248.24 
L 842.850937 248.24 
" style="fill: none; stroke: #000000; stroke-width: 0.8; stroke-linejoin: miter; stroke-linecap: square"/>
   </g>
   <g id="patch_11">
    <path d="M 52.160938 151.09 
L 842.850937 151.09 
" style="fill: none; stroke: #000000; stroke-width: 0.8; stroke-linejoin: miter; stroke-linecap: square"/>
   </g>
   <g id="line2d_25">
    <path d="M 88.101392 181.278213 
L 101.065885 191.002714 
L 109.70888 197.23016 
L 116.911376 202.17529 
L 124.113872 206.84255 
L 129.875868 210.346453 
L 135.637865 213.62519 
L 141.399862 216.66262 
L 147.161858 219.445201 
L 152.923855 221.961717 
L 158.685852 224.20315 
L 164.447849 226.162632 
L 170.209845 227.83549 
L 175.971842 229.219374 
L 181.733839 230.314299 
L 187.495835 231.122707 
L 193.257832 231.649432 
L 199.019829 231.901592 
L 204.781826 231.888436 
L 210.543822 231.621074 
L 216.305819 231.112219 
L 222.067816 230.375911 
L 227.829813 229.427271 
L 233.591809 228.282286 
L 240.794305 226.600382 
L 247.996801 224.671473 
L 255.199297 222.530287 
L 263.842292 219.730682 
L 273.925786 216.225926 
L 288.330778 210.962202 
L 309.938266 203.059063 
L 321.462259 199.098322 
L 331.545753 195.891875 
L 340.188749 193.384068 
L 348.831744 191.130831 
L 356.03424 189.465169 
L 363.236735 188.003707 
L 370.439231 186.754027 
L 377.641727 185.720811 
L 384.844223 184.905931 
L 392.046719 184.308566 
L 399.249215 183.925336 
L 406.451711 183.750457 
L 413.654207 183.775917 
L 422.297202 184.056644 
L 430.940197 184.590539 
L 439.583192 185.353634 
L 449.666686 186.498001 
L 459.750181 187.872445 
L 471.274174 189.66323 
L 487.119665 192.378656 
L 527.453642 199.439127 
L 540.418135 201.434775 
L 551.942128 203.001053 
L 563.466122 204.337471 
L 573.549616 205.299891 
L 583.63311 206.059038 
L 593.716604 206.610896 
L 603.800099 206.956586 
L 613.883593 207.101998 
L 625.407586 207.036214 
L 636.93158 206.74351 
L 649.896072 206.17619 
L 664.301064 205.302073 
L 681.587054 204.005302 
L 708.956539 201.676515 
L 737.766522 199.288152 
L 756.493012 197.969447 
L 772.338503 197.071608 
L 788.183994 196.406126 
L 802.588985 196.014441 
L 806.910483 195.936707 
L 806.910483 195.936707 
" clip-path="url(#p06b3487de5)" style="fill: none; stroke-dasharray: 3.5,5.775; stroke-dashoffset: 0; stroke: #008000; stroke-opacity: 0.8; stroke-width: 3.5"/>
   </g>
   <g id="line2d_26">
    <path d="M 88.101392 181.278213 
L 101.065885 191.005908 
L 109.70888 197.225476 
L 116.911376 202.163714 
L 124.113872 206.826627 
L 129.875868 210.329314 
L 135.637865 213.608368 
L 141.399862 216.646819 
L 147.161858 219.430288 
L 152.923855 221.946952 
L 158.685852 224.187558 
L 164.447849 226.145382 
L 170.209845 227.81618 
L 175.971842 229.198163 
L 181.733839 230.291867 
L 187.495835 231.100079 
L 193.257832 231.627713 
L 199.019829 231.881691 
L 204.781826 231.870835 
L 210.543822 231.60569 
L 216.305819 231.098386 
L 222.067816 230.362474 
L 227.829813 229.412765 
L 233.591809 228.26518 
L 240.794305 226.578167 
L 247.996801 224.642853 
L 255.199297 222.495093 
L 263.842292 219.689038 
L 273.925786 216.180776 
L 289.771277 210.388812 
L 309.938266 203.039037 
L 321.462259 199.090527 
L 331.545753 195.893182 
L 340.188749 193.391678 
L 348.831744 191.143564 
L 356.03424 189.48156 
L 363.236735 188.023474 
L 370.439231 186.777112 
L 377.641727 185.747308 
L 384.844223 184.936011 
L 392.046719 184.342406 
L 399.249215 183.963053 
L 406.451711 183.792066 
L 413.654207 183.821298 
L 422.297202 184.106183 
L 430.940197 184.64358 
L 439.583192 185.409271 
L 449.666686 186.55525 
L 459.750181 187.929586 
L 471.274174 189.718098 
L 487.119665 192.427115 
L 527.453642 199.463394 
L 540.418135 201.451532 
L 551.942128 203.011709 
L 563.466122 204.34253 
L 573.549616 205.300389 
L 583.63311 206.055217 
L 593.716604 206.602961 
L 603.800099 206.944737 
L 613.883593 207.08647 
L 625.407586 207.016847 
L 636.93158 206.720801 
L 649.896072 206.150446 
L 664.301064 205.273978 
L 681.587054 203.975858 
L 708.956539 201.647892 
L 737.766522 199.263345 
L 756.493012 197.948293 
L 772.338503 197.054133 
L 788.183994 196.392792 
L 802.588985 196.005186 
L 806.910483 195.928718 
L 806.910483 195.928718 
" clip-path="url(#p06b3487de5)" style="fill: none; stroke-dasharray: 12.95,5.6; stroke-dashoffset: 0; stroke: #ff0000; stroke-opacity: 0.8; stroke-width: 3.5"/>
   </g>
  </g>
  <g id="text_16">
   <!-- State Variable Simulation Comparison -->
   <g transform="translate(269.943437 20.1175) scale(0.16 -0.16)">
    <defs>
     <path id="DejaVuSans-53" d="M 3425 4513 
L 3425 3897 
Q 3066 4069 2747 4153 
Q 2428 4238 2131 4238 
Q 1616 4238 1336 4038 
Q 1056 3838 1056 3469 
Q 1056 3159 1242 3001 
Q 1428 2844 1947 2747 
L 2328 2669 
Q 3034 2534 3370 2195 
Q 3706 1856 3706 1288 
Q 3706 609 3251 259 
Q 2797 -91 1919 -91 
Q 1588 -91 1214 -16 
Q 841 59 441 206 
L 441 856 
Q 825 641 1194 531 
Q 1563 422 1919 422 
Q 2459 422 2753 634 
Q 3047 847 3047 1241 
Q 3047 1584 2836 1778 
Q 2625 1972 2144 2069 
L 1759 2144 
Q 1053 2284 737 2584 
Q 422 2884 422 3419 
Q 422 4038 858 4394 
Q 1294 4750 2059 4750 
Q 2388 4750 2728 4690 
Q 3069 4631 3425 4513 
z
" transform="scale(0.015625)"/>
     <path id="DejaVuSans-74" d="M 1172 4494 
L 1172 3500 
L 2356 3500 
L 2356 3053 
L 1172 3053 
L 1172 1153 
Q 1172 725 1289 603 
Q 1406 481 1766 481 
L 2356 481 
L 2356 0 
L 1766 0 
Q 1100 0 847 248 
Q 594 497 594 1153 
L 594 3053 
L 172 3053 
L 172 3500 
L 594 3500 
L 594 4494 
L 1172 4494 
z
" transform="scale(0.015625)"/>
     <path id="DejaVuSans-61" d="M 2194 1759 
Q 1497 1759 1228 1600 
Q 959 1441 959 1056 
Q 959 750 1161 570 
Q 1363 391 1709 391 
Q 2188 391 2477 730 
Q 2766 1069 2766 1631 
L 2766 1759 
L 2194 1759 
z
M 3341 1997 
L 3341 0 
L 2766 0 
L 2766 531 
Q 2569 213 2275 61 
Q 1981 -91 1556 -91 
Q 1019 -91 701 211 
Q 384 513 384 1019 
Q 384 1609 779 1909 
Q 1175 2209 1959 2209 
L 2766 2209 
L 2766 2266 
Q 2766 2663 2505 2880 
Q 2244 3097 1772 3097 
Q 1472 3097 1187 3025 
Q 903 2953 641 2809 
L 641 3341 
Q 956 3463 1253 3523 
Q 1550 3584 1831 3584 
Q 2591 3584 2966 3190 
Q 3341 2797 3341 1997 
z
" transform="scale(0.015625)"/>
     <path id="DejaVuSans-20" transform="scale(0.015625)"/>
     <path id="DejaVuSans-56" d="M 1831 0 
L 50 4666 
L 709 4666 
L 2188 738 
L 3669 4666 
L 4325 4666 
L 2547 0 
L 1831 0 
z
" transform="scale(0.015625)"/>
     <path id="DejaVuSans-72" d="M 2631 2963 
Q 2534 3019 2420 3045 
Q 2306 3072 2169 3072 
Q 1681 3072 1420 2755 
Q 1159 2438 1159 1844 
L 1159 0 
L 581 0 
L 581 3500 
L 1159 3500 
L 1159 2956 
Q 1341 3275 1631 3429 
Q 1922 3584 2338 3584 
Q 2397 3584 2469 3576 
Q 2541 3569 2628 3553 
L 2631 2963 
z
" transform="scale(0.015625)"/>
     <path id="DejaVuSans-62" d="M 3116 1747 
Q 3116 2381 2855 2742 
Q 2594 3103 2138 3103 
Q 1681 3103 1420 2742 
Q 1159 2381 1159 1747 
Q 1159 1113 1420 752 
Q 1681 391 2138 391 
Q 2594 391 2855 752 
Q 3116 1113 3116 1747 
z
M 1159 2969 
Q 1341 3281 1617 3432 
Q 1894 3584 2278 3584 
Q 2916 3584 3314 3078 
Q 3713 2572 3713 1747 
Q 3713 922 3314 415 
Q 2916 -91 2278 -91 
Q 1894 -91 1617 61 
Q 1341 213 1159 525 
L 1159 0 
L 581 0 
L 581 4863 
L 1159 4863 
L 1159 2969 
z
" transform="scale(0.015625)"/>
     <path id="DejaVuSans-6c" d="M 603 4863 
L 1178 4863 
L 1178 0 
L 603 0 
L 603 4863 
z
" transform="scale(0.015625)"/>
     <path id="DejaVuSans-75" d="M 544 1381 
L 544 3500 
L 1119 3500 
L 1119 1403 
Q 1119 906 1312 657 
Q 1506 409 1894 409 
Q 2359 409 2629 706 
Q 2900 1003 2900 1516 
L 2900 3500 
L 3475 3500 
L 3475 0 
L 2900 0 
L 2900 538 
Q 2691 219 2414 64 
Q 2138 -91 1772 -91 
Q 1169 -91 856 284 
Q 544 659 544 1381 
z
M 1991 3584 
L 1991 3584 
z
" transform="scale(0.015625)"/>
     <path id="DejaVuSans-6f" d="M 1959 3097 
Q 1497 3097 1228 2736 
Q 959 2375 959 1747 
Q 959 1119 1226 758 
Q 1494 397 1959 397 
Q 2419 397 2687 759 
Q 2956 1122 2956 1747 
Q 2956 2369 2687 2733 
Q 2419 3097 1959 3097 
z
M 1959 3584 
Q 2709 3584 3137 3096 
Q 3566 2609 3566 1747 
Q 3566 888 3137 398 
Q 2709 -91 1959 -91 
Q 1206 -91 779 398 
Q 353 888 353 1747 
Q 353 2609 779 3096 
Q 1206 3584 1959 3584 
z
" transform="scale(0.015625)"/>
     <path id="DejaVuSans-6e" d="M 3513 2113 
L 3513 0 
L 2938 0 
L 2938 2094 
Q 2938 2591 2744 2837 
Q 2550 3084 2163 3084 
Q 1697 3084 1428 2787 
Q 1159 2491 1159 1978 
L 1159 0 
L 581 0 
L 581 3500 
L 1159 3500 
L 1159 2956 
Q 1366 3272 1645 3428 
Q 1925 3584 2291 3584 
Q 2894 3584 3203 3211 
Q 3513 2838 3513 2113 
z
" transform="scale(0.015625)"/>
     <path id="DejaVuSans-43" d="M 4122 4306 
L 4122 3641 
Q 3803 3938 3442 4084 
Q 3081 4231 2675 4231 
Q 1875 4231 1450 3742 
Q 1025 3253 1025 2328 
Q 1025 1406 1450 917 
Q 1875 428 2675 428 
Q 3081 428 3442 575 
Q 3803 722 4122 1019 
L 4122 359 
Q 3791 134 3420 21 
Q 3050 -91 2638 -91 
Q 1578 -91 968 557 
Q 359 1206 359 2328 
Q 359 3453 968 4101 
Q 1578 4750 2638 4750 
Q 3056 4750 3426 4639 
Q 3797 4528 4122 4306 
z
" transform="scale(0.015625)"/>
     <path id="DejaVuSans-70" d="M 1159 525 
L 1159 -1331 
L 581 -1331 
L 581 3500 
L 1159 3500 
L 1159 2969 
Q 1341 3281 1617 3432 
Q 1894 3584 2278 3584 
Q 2916 3584 3314 3078 
Q 3713 2572 3713 1747 
Q 3713 922 3314 415 
Q 2916 -91 2278 -91 
Q 1894 -91 1617 61 
Q 1341 213 1159 525 
z
M 3116 1747 
Q 3116 2381 2855 2742 
Q 2594 3103 2138 3103 
Q 1681 3103 1420 2742 
Q 1159 2381 1159 1747 
Q 1159 1113 1420 752 
Q 1681 391 2138 391 
Q 2594 391 2855 752 
Q 3116 1113 3116 1747 
z
" transform="scale(0.015625)"/>
     <path id="DejaVuSans-73" d="M 2834 3397 
L 2834 2853 
Q 2591 2978 2328 3040 
Q 2066 3103 1784 3103 
Q 1356 3103 1142 2972 
Q 928 2841 928 2578 
Q 928 2378 1081 2264 
Q 1234 2150 1697 2047 
L 1894 2003 
Q 2506 1872 2764 1633 
Q 3022 1394 3022 966 
Q 3022 478 2636 193 
Q 2250 -91 1575 -91 
Q 1294 -91 989 -36 
Q 684 19 347 128 
L 347 722 
Q 666 556 975 473 
Q 1284 391 1588 391 
Q 1994 391 2212 530 
Q 2431 669 2431 922 
Q 2431 1156 2273 1281 
Q 2116 1406 1581 1522 
L 1381 1569 
Q 847 1681 609 1914 
Q 372 2147 372 2553 
Q 372 3047 722 3315 
Q 1072 3584 1716 3584 
Q 2034 3584 2315 3537 
Q 2597 3491 2834 3397 
z
" transform="scale(0.015625)"/>
    </defs>
    <use xlink:href="#DejaVuSans-53"/>
    <use xlink:href="#DejaVuSans-74" transform="translate(63.476562 0)"/>
    <use xlink:href="#DejaVuSans-61" transform="translate(102.685547 0)"/>
    <use xlink:href="#DejaVuSans-74" transform="translate(163.964844 0)"/>
    <use xlink:href="#DejaVuSans-65" transform="translate(203.173828 0)"/>
    <use xlink:href="#DejaVuSans-20" transform="translate(264.697266 0)"/>
    <use xlink:href="#DejaVuSans-56" transform="translate(296.484375 0)"/>
    <use xlink:href="#DejaVuSans-61" transform="translate(357.142578 0)"/>
    <use xlink:href="#DejaVuSans-72" transform="translate(418.421875 0)"/>
    <use xlink:href="#DejaVuSans-69" transform="translate(459.535156 0)"/>
    <use xlink:href="#DejaVuSans-61" transform="translate(487.318359 0)"/>
    <use xlink:href="#DejaVuSans-62" transform="translate(548.597656 0)"/>
    <use xlink:href="#DejaVuSans-6c" transform="translate(612.074219 0)"/>
    <use xlink:href="#DejaVuSans-65" transform="translate(639.857422 0)"/>
    <use xlink:href="#DejaVuSans-20" transform="translate(701.380859 0)"/>
    <use xlink:href="#DejaVuSans-53" transform="translate(733.167969 0)"/>
    <use xlink:href="#DejaVuSans-69" transform="translate(796.644531 0)"/>
    <use xlink:href="#DejaVuSans-6d" transform="translate(824.427734 0)"/>
    <use xlink:href="#DejaVuSans-75" transform="translate(921.839844 0)"/>
    <use xlink:href="#DejaVuSans-6c" transform="translate(985.21875 0)"/>
    <use xlink:href="#DejaVuSans-61" transform="translate(1013.001953 0)"/>
    <use xlink:href="#DejaVuSans-74" transform="translate(1074.28125 0)"/>
    <use xlink:href="#DejaVuSans-69" transform="translate(1113.490234 0)"/>
    <use xlink:href="#DejaVuSans-6f" transform="translate(1141.273438 0)"/>
    <use xlink:href="#DejaVuSans-6e" transform="translate(1202.455078 0)"/>
    <use xlink:href="#DejaVuSans-20" transform="translate(1265.833984 0)"/>
    <use xlink:href="#DejaVuSans-43" transform="translate(1297.621094 0)"/>
    <use xlink:href="#DejaVuSans-6f" transform="translate(1367.445312 0)"/>
    <use xlink:href="#DejaVuSans-6d" transform="translate(1428.626953 0)"/>
    <use xlink:href="#DejaVuSans-70" transform="translate(1526.039062 0)"/>
    <use xlink:href="#DejaVuSans-61" transform="translate(1589.515625 0)"/>
    <use xlink:href="#DejaVuSans-72" transform="translate(1650.794922 0)"/>
    <use xlink:href="#DejaVuSans-69" transform="translate(1691.908203 0)"/>
    <use xlink:href="#DejaVuSans-73" transform="translate(1719.691406 0)"/>
    <use xlink:href="#DejaVuSans-6f" transform="translate(1771.791016 0)"/>
    <use xlink:href="#DejaVuSans-6e" transform="translate(1832.972656 0)"/>
   </g>
  </g>
  <g id="legend_1">
   <g id="patch_12">
    <path d="M 737.779063 66.7125 
L 848.850937 66.7125 
Q 850.850937 66.7125 850.850937 64.7125 
L 850.850937 7 
Q 850.850937 5 848.850937 5 
L 737.779063 5 
Q 735.779063 5 735.779063 7 
L 735.779063 64.7125 
Q 735.779063 66.7125 737.779063 66.7125 
z
" style="fill: #ffffff; opacity: 0.5; stroke: #cccccc; stroke-linejoin: miter"/>
   </g>
   <g id="line2d_27">
    <path d="M 739.779063 13.098437 
L 749.779063 13.098437 
L 759.779063 13.098437 
" style="fill: none; stroke: #000000; stroke-opacity: 0.4; stroke-width: 6; stroke-linecap: square"/>
   </g>
   <g id="text_17">
    <!-- True Trajectory -->
    <g transform="translate(767.779063 16.598437) scale(0.1 -0.1)">
     <defs>
      <path id="DejaVuSans-6a" d="M 603 3500 
L 1178 3500 
L 1178 -63 
Q 1178 -731 923 -1031 
Q 669 -1331 103 -1331 
L -116 -1331 
L -116 -844 
L 38 -844 
Q 366 -844 484 -692 
Q 603 -541 603 -63 
L 603 3500 
z
M 603 4863 
L 1178 4863 
L 1178 4134 
L 603 4134 
L 603 4863 
z
" transform="scale(0.015625)"/>
      <path id="DejaVuSans-63" d="M 3122 3366 
L 3122 2828 
Q 2878 2963 2633 3030 
Q 2388 3097 2138 3097 
Q 1578 3097 1268 2742 
Q 959 2388 959 1747 
Q 959 1106 1268 751 
Q 1578 397 2138 397 
Q 2388 397 2633 464 
Q 2878 531 3122 666 
L 3122 134 
Q 2881 22 2623 -34 
Q 2366 -91 2075 -91 
Q 1284 -91 818 406 
Q 353 903 353 1747 
Q 353 2603 823 3093 
Q 1294 3584 2113 3584 
Q 2378 3584 2631 3529 
Q 2884 3475 3122 3366 
z
" transform="scale(0.015625)"/>
      <path id="DejaVuSans-79" d="M 2059 -325 
Q 1816 -950 1584 -1140 
Q 1353 -1331 966 -1331 
L 506 -1331 
L 506 -850 
L 844 -850 
Q 1081 -850 1212 -737 
Q 1344 -625 1503 -206 
L 1606 56 
L 191 3500 
L 800 3500 
L 1894 763 
L 2988 3500 
L 3597 3500 
L 2059 -325 
z
" transform="scale(0.015625)"/>
     </defs>
     <use xlink:href="#DejaVuSans-54"/>
     <use xlink:href="#DejaVuSans-72" transform="translate(46.333984 0)"/>
     <use xlink:href="#DejaVuSans-75" transform="translate(87.447266 0)"/>
     <use xlink:href="#DejaVuSans-65" transform="translate(150.826172 0)"/>
     <use xlink:href="#DejaVuSans-20" transform="translate(212.349609 0)"/>
     <use xlink:href="#DejaVuSans-54" transform="translate(244.136719 0)"/>
     <use xlink:href="#DejaVuSans-72" transform="translate(290.470703 0)"/>
     <use xlink:href="#DejaVuSans-61" transform="translate(331.583984 0)"/>
     <use xlink:href="#DejaVuSans-6a" transform="translate(392.863281 0)"/>
     <use xlink:href="#DejaVuSans-65" transform="translate(420.646484 0)"/>
     <use xlink:href="#DejaVuSans-63" transform="translate(482.169922 0)"/>
     <use xlink:href="#DejaVuSans-74" transform="translate(537.150391 0)"/>
     <use xlink:href="#DejaVuSans-6f" transform="translate(576.359375 0)"/>
     <use xlink:href="#DejaVuSans-72" transform="translate(637.541016 0)"/>
     <use xlink:href="#DejaVuSans-79" transform="translate(678.654297 0)"/>
    </g>
   </g>
   <g id="line2d_28">
    <path d="M 739.779063 27.776562 
L 749.779063 27.776562 
L 759.779063 27.776562 
" style="fill: none; stroke-dasharray: 12.95,5.6; stroke-dashoffset: 0; stroke: #ff0000; stroke-opacity: 0.8; stroke-width: 3.5"/>
   </g>
   <g id="text_18">
    <!-- AutoSINDy -->
    <g transform="translate(767.779063 31.276562) scale(0.1 -0.1)">
     <defs>
      <path id="DejaVuSans-41" d="M 2188 4044 
L 1331 1722 
L 3047 1722 
L 2188 4044 
z
M 1831 4666 
L 2547 4666 
L 4325 0 
L 3669 0 
L 3244 1197 
L 1141 1197 
L 716 0 
L 50 0 
L 1831 4666 
z
" transform="scale(0.015625)"/>
      <path id="DejaVuSans-49" d="M 628 4666 
L 1259 4666 
L 1259 0 
L 628 0 
L 628 4666 
z
" transform="scale(0.015625)"/>
      <path id="DejaVuSans-4e" d="M 628 4666 
L 1478 4666 
L 3547 763 
L 3547 4666 
L 4159 4666 
L 4159 0 
L 3309 0 
L 1241 3903 
L 1241 0 
L 628 0 
L 628 4666 
z
" transform="scale(0.015625)"/>
      <path id="DejaVuSans-44" d="M 1259 4147 
L 1259 519 
L 2022 519 
Q 2988 519 3436 956 
Q 3884 1394 3884 2338 
Q 3884 3275 3436 3711 
Q 2988 4147 2022 4147 
L 1259 4147 
z
M 628 4666 
L 1925 4666 
Q 3281 4666 3915 4102 
Q 4550 3538 4550 2338 
Q 4550 1131 3912 565 
Q 3275 0 1925 0 
L 628 0 
L 628 4666 
z
" transform="scale(0.015625)"/>
     </defs>
     <use xlink:href="#DejaVuSans-41"/>
     <use xlink:href="#DejaVuSans-75" transform="translate(68.408203 0)"/>
     <use xlink:href="#DejaVuSans-74" transform="translate(131.787109 0)"/>
     <use xlink:href="#DejaVuSans-6f" transform="translate(170.996094 0)"/>
     <use xlink:href="#DejaVuSans-53" transform="translate(232.177734 0)"/>
     <use xlink:href="#DejaVuSans-49" transform="translate(295.654297 0)"/>
     <use xlink:href="#DejaVuSans-4e" transform="translate(325.146484 0)"/>
     <use xlink:href="#DejaVuSans-44" transform="translate(399.951172 0)"/>
     <use xlink:href="#DejaVuSans-79" transform="translate(476.953125 0)"/>
    </g>
   </g>
   <g id="line2d_29">
    <path d="M 739.779063 42.454687 
L 749.779063 42.454687 
L 759.779063 42.454687 
" style="fill: none; stroke-dasharray: 3.5,5.775; stroke-dashoffset: 0; stroke: #008000; stroke-opacity: 0.8; stroke-width: 3.5"/>
   </g>
   <g id="text_19">
    <!-- Standard SINDy -->
    <g transform="translate(767.779063 45.954687) scale(0.1 -0.1)">
     <defs>
      <path id="DejaVuSans-64" d="M 2906 2969 
L 2906 4863 
L 3481 4863 
L 3481 0 
L 2906 0 
L 2906 525 
Q 2725 213 2448 61 
Q 2172 -91 1784 -91 
Q 1150 -91 751 415 
Q 353 922 353 1747 
Q 353 2572 751 3078 
Q 1150 3584 1784 3584 
Q 2172 3584 2448 3432 
Q 2725 3281 2906 2969 
z
M 947 1747 
Q 947 1113 1208 752 
Q 1469 391 1925 391 
Q 2381 391 2643 752 
Q 2906 1113 2906 1747 
Q 2906 2381 2643 2742 
Q 2381 3103 1925 3103 
Q 1469 3103 1208 2742 
Q 947 2381 947 1747 
z
" transform="scale(0.015625)"/>
     </defs>
     <use xlink:href="#DejaVuSans-53"/>
     <use xlink:href="#DejaVuSans-74" transform="translate(63.476562 0)"/>
     <use xlink:href="#DejaVuSans-61" transform="translate(102.685547 0)"/>
     <use xlink:href="#DejaVuSans-6e" transform="translate(163.964844 0)"/>
     <use xlink:href="#DejaVuSans-64" transform="translate(227.34375 0)"/>
     <use xlink:href="#DejaVuSans-61" transform="translate(290.820312 0)"/>
     <use xlink:href="#DejaVuSans-72" transform="translate(352.099609 0)"/>
     <use xlink:href="#DejaVuSans-64" transform="translate(391.462891 0)"/>
     <use xlink:href="#DejaVuSans-20" transform="translate(454.939453 0)"/>
     <use xlink:href="#DejaVuSans-53" transform="translate(486.726562 0)"/>
     <use xlink:href="#DejaVuSans-49" transform="translate(550.203125 0)"/>
     <use xlink:href="#DejaVuSans-4e" transform="translate(579.695312 0)"/>
     <use xlink:href="#DejaVuSans-44" transform="translate(654.5 0)"/>
     <use xlink:href="#DejaVuSans-79" transform="translate(731.501953 0)"/>
    </g>
   </g>
   <g id="line2d_30">
    <path d="M 739.779063 57.132812 
L 749.779063 57.132812 
L 759.779063 57.132812 
" style="fill: none; stroke-dasharray: 22.4,5.6,3.5,5.6; stroke-dashoffset: 0; stroke: #0000ff; stroke-opacity: 0.8; stroke-width: 3.5"/>
   </g>
   <g id="text_20">
    <!-- Standard PySR -->
    <g transform="translate(767.779063 60.632812) scale(0.1 -0.1)">
     <defs>
      <path id="DejaVuSans-50" d="M 1259 4147 
L 1259 2394 
L 2053 2394 
Q 2494 2394 2734 2622 
Q 2975 2850 2975 3272 
Q 2975 3691 2734 3919 
Q 2494 4147 2053 4147 
L 1259 4147 
z
M 628 4666 
L 2053 4666 
Q 2838 4666 3239 4311 
Q 3641 3956 3641 3272 
Q 3641 2581 3239 2228 
Q 2838 1875 2053 1875 
L 1259 1875 
L 1259 0 
L 628 0 
L 628 4666 
z
" transform="scale(0.015625)"/>
      <path id="DejaVuSans-52" d="M 2841 2188 
Q 3044 2119 3236 1894 
Q 3428 1669 3622 1275 
L 4263 0 
L 3584 0 
L 2988 1197 
Q 2756 1666 2539 1819 
Q 2322 1972 1947 1972 
L 1259 1972 
L 1259 0 
L 628 0 
L 628 4666 
L 2053 4666 
Q 2853 4666 3247 4331 
Q 3641 3997 3641 3322 
Q 3641 2881 3436 2590 
Q 3231 2300 2841 2188 
z
M 1259 4147 
L 1259 2491 
L 2053 2491 
Q 2509 2491 2742 2702 
Q 2975 2913 2975 3322 
Q 2975 3731 2742 3939 
Q 2509 4147 2053 4147 
L 1259 4147 
z
" transform="scale(0.015625)"/>
     </defs>
     <use xlink:href="#DejaVuSans-53"/>
     <use xlink:href="#DejaVuSans-74" transform="translate(63.476562 0)"/>
     <use xlink:href="#DejaVuSans-61" transform="translate(102.685547 0)"/>
     <use xlink:href="#DejaVuSans-6e" transform="translate(163.964844 0)"/>
     <use xlink:href="#DejaVuSans-64" transform="translate(227.34375 0)"/>
     <use xlink:href="#DejaVuSans-61" transform="translate(290.820312 0)"/>
     <use xlink:href="#DejaVuSans-72" transform="translate(352.099609 0)"/>
     <use xlink:href="#DejaVuSans-64" transform="translate(391.462891 0)"/>
     <use xlink:href="#DejaVuSans-20" transform="translate(454.939453 0)"/>
     <use xlink:href="#DejaVuSans-50" transform="translate(486.726562 0)"/>
     <use xlink:href="#DejaVuSans-79" transform="translate(547.029297 0)"/>
     <use xlink:href="#DejaVuSans-53" transform="translate(606.208984 0)"/>
     <use xlink:href="#DejaVuSans-52" transform="translate(669.685547 0)"/>
    </g>
   </g>
  </g>
 </g>
 <defs>
  <clipPath id="p6afbc85595">
   <rect x="52.160938" y="39.64" width="790.69" height="97.15"/>
  </clipPath>
  <clipPath id="p06b3487de5">
   <rect x="52.160938" y="151.09" width="790.69" height="97.15"/>
  </clipPath>
 </defs>
</svg>
