<?xml version="1.0" encoding="utf-8" standalone="no"?>
<!DOCTYPE svg PUBLIC "-//W3C//DTD SVG 1.1//EN"
  "http://www.w3.org/Graphics/SVG/1.1/DTD/svg11.dtd">
<svg xmlns:xlink="http://www.w3.org/1999/xlink" width="568.410937pt" height="567.994375pt" viewBox="0 0 568.410937 567.994375" xmlns="http://www.w3.org/2000/svg" version="1.1">
 <metadata>
  <rdf:RDF xmlns:dc="http://purl.org/dc/elements/1.1/" xmlns:cc="http://creativecommons.org/ns#" xmlns:rdf="http://www.w3.org/1999/02/22-rdf-syntax-ns#">
   <cc:Work>
    <dc:type rdf:resource="http://purl.org/dc/dcmitype/StillImage"/>
    <dc:date>2026-04-06T11:56:16.442599</dc:date>
    <dc:format>image/svg+xml</dc:format>
    <dc:creator>
     <cc:Agent>
      <dc:title>Matplotlib v3.10.7, https://matplotlib.org/</dc:title>
     </cc:Agent>
    </dc:creator>
   </cc:Work>
  </rdf:RDF>
 </metadata>
 <defs>
  <style type="text/css">*{stroke-linejoin: round; stroke-linecap: butt}</style>
 </defs>
 <g id="figure_1">
  <g id="patch_1">
   <path d="M 0 567.994375 
L 568.410937 567.994375 
L 568.410937 0 
L 0 0 
z
" style="fill: #ffffff"/>
  </g>
  <g id="axes_1">
   <g id="patch_2">
    <path d="M 52.160938 530.438125 
L 561.210937 530.438125 
L 561.210937 22.318125 
L 52.160938 22.318125 
z
" style="fill: #ffffff"/>
   </g>
   <g id="matplotlib.axis_1">
    <g id="xtick_1">
     <g id="line2d_1">
      <defs>
       <path id="m1a60c09115" d="M 0 0 
L 0 3.5 
" style="stroke: #000000; stroke-width: 0.8"/>
      </defs>
      <g>
       <use xlink:href="#m1a60c09115" x="76.737202" y="530.438125" style="stroke: #000000; stroke-width: 0.8"/>
      </g>
     </g>
     <g id="text_1">
      <!-- −0.8 -->
      <g transform="translate(64.595795 545.036562) scale(0.1 -0.1)">
       <defs>
        <path id="DejaVuSans-2212" d="M 678 2272 
L 4684 2272 
L 4684 1741 
L 678 1741 
L 678 2272 
z
" transform="scale(0.015625)"/>
        <path id="DejaVuSans-30" d="M 2034 4250 
Q 1547 4250 1301 3770 
Q 1056 3291 1056 2328 
Q 1056 1369 1301 889 
Q 1547 409 2034 409 
Q 2525 409 2770 889 
Q 3016 1369 3016 2328 
Q 3016 3291 2770 3770 
Q 2525 4250 2034 4250 
z
M 2034 4750 
Q 2819 4750 3233 4129 
Q 3647 3509 3647 2328 
Q 3647 1150 3233 529 
Q 2819 -91 2034 -91 
Q 1250 -91 836 529 
Q 422 1150 422 2328 
Q 422 3509 836 4129 
Q 1250 4750 2034 4750 
z
" transform="scale(0.015625)"/>
        <path id="DejaVuSans-2e" d="M 684 794 
L 1344 794 
L 1344 0 
L 684 0 
L 684 794 
z
" transform="scale(0.015625)"/>
        <path id="DejaVuSans-38" d="M 2034 2216 
Q 1584 2216 1326 1975 
Q 1069 1734 1069 1313 
Q 1069 891 1326 650 
Q 1584 409 2034 409 
Q 2484 409 2743 651 
Q 3003 894 3003 1313 
Q 3003 1734 2745 1975 
Q 2488 2216 2034 2216 
z
M 1403 2484 
Q 997 2584 770 2862 
Q 544 3141 544 3541 
Q 544 4100 942 4425 
Q 1341 4750 2034 4750 
Q 2731 4750 3128 4425 
Q 3525 4100 3525 3541 
Q 3525 3141 3298 2862 
Q 3072 2584 2669 2484 
Q 3125 2378 3379 2068 
Q 3634 1759 3634 1313 
Q 3634 634 3220 271 
Q 2806 -91 2034 -91 
Q 1263 -91 848 271 
Q 434 634 434 1313 
Q 434 1759 690 2068 
Q 947 2378 1403 2484 
z
M 1172 3481 
Q 1172 3119 1398 2916 
Q 1625 2713 2034 2713 
Q 2441 2713 2670 2916 
Q 2900 3119 2900 3481 
Q 2900 3844 2670 4047 
Q 2441 4250 2034 4250 
Q 1625 4250 1398 4047 
Q 1172 3844 1172 3481 
z
" transform="scale(0.015625)"/>
       </defs>
       <use xlink:href="#DejaVuSans-2212"/>
       <use xlink:href="#DejaVuSans-30" transform="translate(83.789062 0)"/>
       <use xlink:href="#DejaVuSans-2e" transform="translate(147.412109 0)"/>
       <use xlink:href="#DejaVuSans-38" transform="translate(179.199219 0)"/>
      </g>
     </g>
    </g>
    <g id="xtick_2">
     <g id="line2d_2">
      <g>
       <use xlink:href="#m1a60c09115" x="134.223177" y="530.438125" style="stroke: #000000; stroke-width: 0.8"/>
      </g>
     </g>
     <g id="text_2">
      <!-- −0.6 -->
      <g transform="translate(122.08177 545.036562) scale(0.1 -0.1)">
       <defs>
        <path id="DejaVuSans-36" d="M 2113 2584 
Q 1688 2584 1439 2293 
Q 1191 2003 1191 1497 
Q 1191 994 1439 701 
Q 1688 409 2113 409 
Q 2538 409 2786 701 
Q 3034 994 3034 1497 
Q 3034 2003 2786 2293 
Q 2538 2584 2113 2584 
z
M 3366 4563 
L 3366 3988 
Q 3128 4100 2886 4159 
Q 2644 4219 2406 4219 
Q 1781 4219 1451 3797 
Q 1122 3375 1075 2522 
Q 1259 2794 1537 2939 
Q 1816 3084 2150 3084 
Q 2853 3084 3261 2657 
Q 3669 2231 3669 1497 
Q 3669 778 3244 343 
Q 2819 -91 2113 -91 
Q 1303 -91 875 529 
Q 447 1150 447 2328 
Q 447 3434 972 4092 
Q 1497 4750 2381 4750 
Q 2619 4750 2861 4703 
Q 3103 4656 3366 4563 
z
" transform="scale(0.015625)"/>
       </defs>
       <use xlink:href="#DejaVuSans-2212"/>
       <use xlink:href="#DejaVuSans-30" transform="translate(83.789062 0)"/>
       <use xlink:href="#DejaVuSans-2e" transform="translate(147.412109 0)"/>
       <use xlink:href="#DejaVuSans-36" transform="translate(179.199219 0)"/>
      </g>
     </g>
    </g>
    <g id="xtick_3">
     <g id="line2d_3">
      <g>
       <use xlink:href="#m1a60c09115" x="191.709152" y="530.438125" style="stroke: #000000; stroke-width: 0.8"/>
      </g>
     </g>
     <g id="text_3">
      <!-- −0.4 -->
      <g transform="translate(179.567746 545.036562) scale(0.1 -0.1)">
       <defs>
        <path id="DejaVuSans-34" d="M 2419 4116 
L 825 1625 
L 2419 1625 
L 2419 4116 
z
M 2253 4666 
L 3047 4666 
L 3047 1625 
L 3713 1625 
L 3713 1100 
L 3047 1100 
L 3047 0 
L 2419 0 
L 2419 1100 
L 313 1100 
L 313 1709 
L 2253 4666 
z
" transform="scale(0.015625)"/>
       </defs>
       <use xlink:href="#DejaVuSans-2212"/>
       <use xlink:href="#DejaVuSans-30" transform="translate(83.789062 0)"/>
       <use xlink:href="#DejaVuSans-2e" transform="translate(147.412109 0)"/>
       <use xlink:href="#DejaVuSans-34" transform="translate(179.199219 0)"/>
      </g>
     </g>
    </g>
    <g id="xtick_4">
     <g id="line2d_4">
      <g>
       <use xlink:href="#m1a60c09115" x="249.195127" y="530.438125" style="stroke: #000000; stroke-width: 0.8"/>
      </g>
     </g>
     <g id="text_4">
      <!-- −0.2 -->
      <g transform="translate(237.053721 545.036562) scale(0.1 -0.1)">
       <defs>
        <path id="DejaVuSans-32" d="M 1228 531 
L 3431 531 
L 3431 0 
L 469 0 
L 469 531 
Q 828 903 1448 1529 
Q 2069 2156 2228 2338 
Q 2531 2678 2651 2914 
Q 2772 3150 2772 3378 
Q 2772 3750 2511 3984 
Q 2250 4219 1831 4219 
Q 1534 4219 1204 4116 
Q 875 4013 500 3803 
L 500 4441 
Q 881 4594 1212 4672 
Q 1544 4750 1819 4750 
Q 2544 4750 2975 4387 
Q 3406 4025 3406 3419 
Q 3406 3131 3298 2873 
Q 3191 2616 2906 2266 
Q 2828 2175 2409 1742 
Q 1991 1309 1228 531 
z
" transform="scale(0.015625)"/>
       </defs>
       <use xlink:href="#DejaVuSans-2212"/>
       <use xlink:href="#DejaVuSans-30" transform="translate(83.789062 0)"/>
       <use xlink:href="#DejaVuSans-2e" transform="translate(147.412109 0)"/>
       <use xlink:href="#DejaVuSans-32" transform="translate(179.199219 0)"/>
      </g>
     </g>
    </g>
    <g id="xtick_5">
     <g id="line2d_5">
      <g>
       <use xlink:href="#m1a60c09115" x="306.681102" y="530.438125" style="stroke: #000000; stroke-width: 0.8"/>
      </g>
     </g>
     <g id="text_5">
      <!-- 0.0 -->
      <g transform="translate(298.729539 545.036562) scale(0.1 -0.1)">
       <use xlink:href="#DejaVuSans-30"/>
       <use xlink:href="#DejaVuSans-2e" transform="translate(63.623047 0)"/>
       <use xlink:href="#DejaVuSans-30" transform="translate(95.410156 0)"/>
      </g>
     </g>
    </g>
    <g id="xtick_6">
     <g id="line2d_6">
      <g>
       <use xlink:href="#m1a60c09115" x="364.167077" y="530.438125" style="stroke: #000000; stroke-width: 0.8"/>
      </g>
     </g>
     <g id="text_6">
      <!-- 0.2 -->
      <g transform="translate(356.215515 545.036562) scale(0.1 -0.1)">
       <use xlink:href="#DejaVuSans-30"/>
       <use xlink:href="#DejaVuSans-2e" transform="translate(63.623047 0)"/>
       <use xlink:href="#DejaVuSans-32" transform="translate(95.410156 0)"/>
      </g>
     </g>
    </g>
    <g id="xtick_7">
     <g id="line2d_7">
      <g>
       <use xlink:href="#m1a60c09115" x="421.653052" y="530.438125" style="stroke: #000000; stroke-width: 0.8"/>
      </g>
     </g>
     <g id="text_7">
      <!-- 0.4 -->
      <g transform="translate(413.70149 545.036562) scale(0.1 -0.1)">
       <use xlink:href="#DejaVuSans-30"/>
       <use xlink:href="#DejaVuSans-2e" transform="translate(63.623047 0)"/>
       <use xlink:href="#DejaVuSans-34" transform="translate(95.410156 0)"/>
      </g>
     </g>
    </g>
    <g id="xtick_8">
     <g id="line2d_8">
      <g>
       <use xlink:href="#m1a60c09115" x="479.139027" y="530.438125" style="stroke: #000000; stroke-width: 0.8"/>
      </g>
     </g>
     <g id="text_8">
      <!-- 0.6 -->
      <g transform="translate(471.187465 545.036562) scale(0.1 -0.1)">
       <use xlink:href="#DejaVuSans-30"/>
       <use xlink:href="#DejaVuSans-2e" transform="translate(63.623047 0)"/>
       <use xlink:href="#DejaVuSans-36" transform="translate(95.410156 0)"/>
      </g>
     </g>
    </g>
    <g id="xtick_9">
     <g id="line2d_9">
      <g>
       <use xlink:href="#m1a60c09115" x="536.625002" y="530.438125" style="stroke: #000000; stroke-width: 0.8"/>
      </g>
     </g>
     <g id="text_9">
      <!-- 0.8 -->
      <g transform="translate(528.67344 545.036562) scale(0.1 -0.1)">
       <use xlink:href="#DejaVuSans-30"/>
       <use xlink:href="#DejaVuSans-2e" transform="translate(63.623047 0)"/>
       <use xlink:href="#DejaVuSans-38" transform="translate(95.410156 0)"/>
      </g>
     </g>
    </g>
    <g id="text_10">
     <!-- x0 -->
     <g transform="translate(300.545312 558.714687) scale(0.1 -0.1)">
      <defs>
       <path id="DejaVuSans-78" d="M 3513 3500 
L 2247 1797 
L 3578 0 
L 2900 0 
L 1881 1375 
L 863 0 
L 184 0 
L 1544 1831 
L 300 3500 
L 978 3500 
L 1906 2253 
L 2834 3500 
L 3513 3500 
z
" transform="scale(0.015625)"/>
      </defs>
      <use xlink:href="#DejaVuSans-78"/>
      <use xlink:href="#DejaVuSans-30" transform="translate(59.179688 0)"/>
     </g>
    </g>
   </g>
   <g id="matplotlib.axis_2">
    <g id="ytick_1">
     <g id="line2d_10">
      <defs>
       <path id="m1d7ac6551f" d="M 0 0 
L -3.5 0 
" style="stroke: #000000; stroke-width: 0.8"/>
      </defs>
      <g>
       <use xlink:href="#m1d7ac6551f" x="52.160938" y="466.570096" style="stroke: #000000; stroke-width: 0.8"/>
      </g>
     </g>
     <g id="text_11">
      <!-- −1.5 -->
      <g transform="translate(20.878125 470.369314) scale(0.1 -0.1)">
       <defs>
        <path id="DejaVuSans-31" d="M 794 531 
L 1825 531 
L 1825 4091 
L 703 3866 
L 703 4441 
L 1819 4666 
L 2450 4666 
L 2450 531 
L 3481 531 
L 3481 0 
L 794 0 
L 794 531 
z
" transform="scale(0.015625)"/>
        <path id="DejaVuSans-35" d="M 691 4666 
L 3169 4666 
L 3169 4134 
L 1269 4134 
L 1269 2991 
Q 1406 3038 1543 3061 
Q 1681 3084 1819 3084 
Q 2600 3084 3056 2656 
Q 3513 2228 3513 1497 
Q 3513 744 3044 326 
Q 2575 -91 1722 -91 
Q 1428 -91 1123 -41 
Q 819 9 494 109 
L 494 744 
Q 775 591 1075 516 
Q 1375 441 1709 441 
Q 2250 441 2565 725 
Q 2881 1009 2881 1497 
Q 2881 1984 2565 2268 
Q 2250 2553 1709 2553 
Q 1456 2553 1204 2497 
Q 953 2441 691 2322 
L 691 4666 
z
" transform="scale(0.015625)"/>
       </defs>
       <use xlink:href="#DejaVuSans-2212"/>
       <use xlink:href="#DejaVuSans-31" transform="translate(83.789062 0)"/>
       <use xlink:href="#DejaVuSans-2e" transform="translate(147.412109 0)"/>
       <use xlink:href="#DejaVuSans-35" transform="translate(179.199219 0)"/>
      </g>
     </g>
    </g>
    <g id="ytick_2">
     <g id="line2d_11">
      <g>
       <use xlink:href="#m1d7ac6551f" x="52.160938" y="402.310434" style="stroke: #000000; stroke-width: 0.8"/>
      </g>
     </g>
     <g id="text_12">
      <!-- −1.0 -->
      <g transform="translate(20.878125 406.109652) scale(0.1 -0.1)">
       <use xlink:href="#DejaVuSans-2212"/>
       <use xlink:href="#DejaVuSans-31" transform="translate(83.789062 0)"/>
       <use xlink:href="#DejaVuSans-2e" transform="translate(147.412109 0)"/>
       <use xlink:href="#DejaVuSans-30" transform="translate(179.199219 0)"/>
      </g>
     </g>
    </g>
    <g id="ytick_3">
     <g id="line2d_12">
      <g>
       <use xlink:href="#m1d7ac6551f" x="52.160938" y="338.050772" style="stroke: #000000; stroke-width: 0.8"/>
      </g>
     </g>
     <g id="text_13">
      <!-- −0.5 -->
      <g transform="translate(20.878125 341.84999) scale(0.1 -0.1)">
       <use xlink:href="#DejaVuSans-2212"/>
       <use xlink:href="#DejaVuSans-30" transform="translate(83.789062 0)"/>
       <use xlink:href="#DejaVuSans-2e" transform="translate(147.412109 0)"/>
       <use xlink:href="#DejaVuSans-35" transform="translate(179.199219 0)"/>
      </g>
     </g>
    </g>
    <g id="ytick_4">
     <g id="line2d_13">
      <g>
       <use xlink:href="#m1d7ac6551f" x="52.160938" y="273.79111" style="stroke: #000000; stroke-width: 0.8"/>
      </g>
     </g>
     <g id="text_14">
      <!-- 0.0 -->
      <g transform="translate(29.257812 277.590328) scale(0.1 -0.1)">
       <use xlink:href="#DejaVuSans-30"/>
       <use xlink:href="#DejaVuSans-2e" transform="translate(63.623047 0)"/>
       <use xlink:href="#DejaVuSans-30" transform="translate(95.410156 0)"/>
      </g>
     </g>
    </g>
    <g id="ytick_5">
     <g id="line2d_14">
      <g>
       <use xlink:href="#m1d7ac6551f" x="52.160938" y="209.531448" style="stroke: #000000; stroke-width: 0.8"/>
      </g>
     </g>
     <g id="text_15">
      <!-- 0.5 -->
      <g transform="translate(29.257812 213.330666) scale(0.1 -0.1)">
       <use xlink:href="#DejaVuSans-30"/>
       <use xlink:href="#DejaVuSans-2e" transform="translate(63.623047 0)"/>
       <use xlink:href="#DejaVuSans-35" transform="translate(95.410156 0)"/>
      </g>
     </g>
    </g>
    <g id="ytick_6">
     <g id="line2d_15">
      <g>
       <use xlink:href="#m1d7ac6551f" x="52.160938" y="145.271786" style="stroke: #000000; stroke-width: 0.8"/>
      </g>
     </g>
     <g id="text_16">
      <!-- 1.0 -->
      <g transform="translate(29.257812 149.071005) scale(0.1 -0.1)">
       <use xlink:href="#DejaVuSans-31"/>
       <use xlink:href="#DejaVuSans-2e" transform="translate(63.623047 0)"/>
       <use xlink:href="#DejaVuSans-30" transform="translate(95.410156 0)"/>
      </g>
     </g>
    </g>
    <g id="ytick_7">
     <g id="line2d_16">
      <g>
       <use xlink:href="#m1d7ac6551f" x="52.160938" y="81.012124" style="stroke: #000000; stroke-width: 0.8"/>
      </g>
     </g>
     <g id="text_17">
      <!-- 1.5 -->
      <g transform="translate(29.257812 84.811343) scale(0.1 -0.1)">
       <use xlink:href="#DejaVuSans-31"/>
       <use xlink:href="#DejaVuSans-2e" transform="translate(63.623047 0)"/>
       <use xlink:href="#DejaVuSans-35" transform="translate(95.410156 0)"/>
      </g>
     </g>
    </g>
    <g id="text_18">
     <!-- x1 -->
     <g transform="translate(14.798438 282.51875) rotate(-90) scale(0.1 -0.1)">
      <use xlink:href="#DejaVuSans-78"/>
      <use xlink:href="#DejaVuSans-31" transform="translate(59.179688 0)"/>
     </g>
    </g>
   </g>
   <g id="line2d_17">
    <path d="M 536.625002 248.087245 
L 537.142783 253.284626 
L 537.544076 258.483186 
L 537.828881 263.680353 
L 537.99726 268.873551 
L 538.04933 274.060201 
L 537.985269 279.237723 
L 537.805409 284.40391 
L 537.510083 289.556263 
L 537.099614 294.692023 
L 536.574383 299.808461 
L 535.93483 304.902872 
L 535.181452 309.972583 
L 534.314806 315.014947 
L 533.335505 320.027346 
L 532.244221 325.007192 
L 531.041686 329.951922 
L 529.728687 334.859004 
L 528.306073 339.725932 
L 526.774748 344.55023 
L 525.135676 349.329449 
L 523.389878 354.061171 
L 521.538434 358.743001 
L 519.582483 363.372578 
L 517.523221 367.947566 
L 515.361902 372.465658 
L 513.099839 376.924574 
L 510.738403 381.322065 
L 508.279024 385.655908 
L 505.723189 389.923909 
L 503.072443 394.123903 
L 500.328391 398.253751 
L 497.492695 402.311344 
L 494.567075 406.294602 
L 491.55331 410.201471 
L 488.453223 414.029955 
L 485.268162 417.779056 
L 481.999804 421.447204 
L 478.650126 425.032347 
L 475.221128 428.53251 
L 471.714826 431.94579 
L 468.133258 435.270363 
L 464.47848 438.504476 
L 460.752566 441.646453 
L 456.957611 444.694695 
L 453.095729 447.647673 
L 449.169052 450.503937 
L 445.179733 453.262112 
L 441.129942 455.920896 
L 437.02187 458.479062 
L 432.857726 460.935461 
L 428.639739 463.289015 
L 424.370158 465.538724 
L 420.051248 467.683661 
L 415.685297 469.722977 
L 411.27461 471.655894 
L 406.821511 473.481712 
L 402.328346 475.199804 
L 397.797475 476.80962 
L 393.231283 478.310684 
L 388.632169 479.702595 
L 384.002556 480.985026 
L 379.344883 482.157728 
L 374.661609 483.220524 
L 369.955212 484.173312 
L 365.228189 485.016068 
L 355.722354 486.371753 
L 346.164466 487.288872 
L 336.575197 487.769917 
L 326.975523 487.818582 
L 317.38673 487.439761 
L 307.825485 486.637888 
L 298.305706 485.416078 
L 288.84779 483.779549 
L 279.47161 481.734174 
L 270.196451 479.286459 
L 261.041005 476.44355 
L 252.023375 473.213225 
L 243.161075 469.603899 
L 234.471026 465.624623 
L 225.969561 461.285084 
L 217.672423 456.595604 
L 209.594764 451.567142 
L 201.751146 446.211291 
L 194.155541 440.540282 
L 186.82133 434.566979 
L 179.761305 428.304884 
L 172.987668 421.768135 
L 166.512029 414.971504 
L 160.345409 407.930399 
L 154.49824 400.660865 
L 148.980363 393.179583 
L 143.800826 385.503361 
L 138.965399 377.641158 
L 134.482421 369.606775 
L 130.360676 361.417 
L 126.608021 353.088664 
L 123.231384 344.638639 
L 120.236764 336.083834 
L 117.629233 327.441199 
L 115.412934 318.727727 
L 113.59108 309.960446 
L 112.165958 301.156428 
L 111.138925 292.332783 
L 110.51041 283.506663 
L 110.279913 274.695258 
L 110.446007 265.915799 
L 111.006336 257.185557 
L 111.957613 248.521843 
L 113.295627 239.942008 
L 115.015234 231.463443 
L 117.110367 223.103579 
L 119.574024 214.879888 
L 122.39829 206.809866 
L 125.577713 198.906318 
L 129.10644 191.183348 
L 132.975777 183.658328 
L 137.176482 176.347779 
L 141.698766 169.267377 
L 146.532294 162.431943 
L 151.666184 155.855454 
L 157.089005 149.551033 
L 162.788781 143.530956 
L 168.752989 137.806649 
L 174.968557 132.388688 
L 181.421869 127.286799 
L 188.09876 122.509861 
L 194.984518 118.0659 
L 202.063886 113.962096 
L 209.321056 110.204776 
L 216.739678 106.799421 
L 224.302852 103.75066 
L 231.99313 101.062273 
L 239.79252 98.737191 
L 247.684714 96.77725 
L 255.658898 95.183307 
L 263.697783 93.956761 
L 271.783731 93.098336 
L 279.899401 92.607996 
L 288.027744 92.484939 
L 296.152003 92.727598 
L 304.255718 93.333645 
L 312.32272 94.299986 
L 320.337133 95.622762 
L 328.283375 97.297354 
L 336.14616 99.318375 
L 343.910491 101.679677 
L 351.561668 104.374347 
L 359.085283 107.394706 
L 366.467222 110.732315 
L 373.693663 114.377968 
L 380.75108 118.321697 
L 387.626239 122.552769 
L 394.306199 127.059687 
L 400.778313 131.830191 
L 407.030227 136.851256 
L 413.052288 142.113185 
L 418.83643 147.60977 
L 424.371175 153.329049 
L 429.645731 159.258765 
L 434.650041 165.386453 
L 439.374794 171.699437 
L 443.811416 178.184834 
L 447.952075 184.829551 
L 451.789679 191.620288 
L 455.317876 198.543534 
L 458.531055 205.58557 
L 461.424346 212.732469 
L 463.993619 219.970094 
L 466.235484 227.2841 
L 468.147292 234.659931 
L 469.727134 242.082826 
L 470.973843 249.537811 
L 471.886991 257.009707 
L 472.46689 264.483123 
L 472.714594 271.942461 
L 472.631546 279.374465 
L 472.218697 286.768151 
L 471.477693 294.107154 
L 470.41085 301.375403 
L 469.021146 308.557308 
L 467.312216 315.637762 
L 465.288357 322.602136 
L 462.954524 329.436286 
L 460.31633 336.126548 
L 457.380051 342.659739 
L 454.15262 349.023158 
L 450.641629 355.204584 
L 446.85533 361.192281 
L 442.802635 366.97499 
L 438.493116 372.541936 
L 433.937002 377.882825 
L 429.145183 382.987844 
L 424.129209 387.847662 
L 418.901288 392.453429 
L 413.474288 396.796776 
L 407.861737 400.869816 
L 402.077737 404.665181 
L 396.131145 408.178324 
L 390.032552 411.404071 
L 383.795853 414.336454 
L 377.434915 416.970271 
L 370.963582 419.301084 
L 364.395673 421.325221 
L 357.744983 423.039777 
L 351.025278 424.442608 
L 344.250304 425.532339 
L 337.433778 426.30836 
L 330.589394 426.770824 
L 323.73082 426.920651 
L 316.871699 426.759527 
L 310.02565 426.289901 
L 303.206266 425.514989 
L 296.427115 424.438772 
L 289.70174 423.065995 
L 283.04366 421.402171 
L 276.466366 419.453576 
L 269.983327 417.227251 
L 263.607986 414.731005 
L 257.350406 411.97055 
L 251.219496 408.950081 
L 245.227959 405.67702 
L 239.387956 402.159137 
L 233.711094 398.404531 
L 228.208424 394.421636 
L 222.890441 390.219216 
L 217.767085 385.806368 
L 212.847738 381.192521 
L 208.14123 376.387436 
L 203.655834 371.401207 
L 199.399265 366.244258 
L 195.378686 360.927347 
L 191.600703 355.461563 
L 188.071364 349.858329 
L 184.796165 344.129396 
L 181.780044 338.286852 
L 179.027385 332.343114 
L 176.542014 326.310932 
L 174.327204 320.203387 
L 172.385637 314.033701 
L 170.718911 307.810323 
L 169.329458 301.544714 
L 168.219627 295.250528 
L 167.391129 288.941205 
L 166.845033 282.629967 
L 166.581769 276.329822 
L 166.601124 270.05356 
L 166.902247 263.813758 
L 167.483645 257.622774 
L 168.343187 251.492754 
L 169.478099 245.435625 
L 170.884968 239.4631 
L 172.559739 233.586676 
L 174.497718 227.817634 
L 176.693571 222.167038 
L 179.141323 216.645738 
L 181.834357 211.264369 
L 184.765418 206.033347 
L 187.92661 200.962876 
L 191.309395 196.06294 
L 194.904597 191.343312 
L 198.703014 186.813097 
L 202.699656 182.478053 
L 206.886029 178.346438 
L 211.252427 174.42668 
L 215.78897 170.726556 
L 220.485601 167.253196 
L 225.332087 164.013076 
L 230.318021 161.012026 
L 235.432821 158.255223 
L 240.665729 155.747196 
L 246.005811 153.491823 
L 251.441958 151.492333 
L 256.962887 149.751304 
L 262.557139 148.270665 
L 268.213079 147.051696 
L 273.918897 146.095023 
L 279.662608 145.400628 
L 285.432051 144.967839 
L 291.21489 144.795334 
L 296.998615 144.881144 
L 302.770584 145.222692 
L 308.520487 145.819123 
L 308.520487 145.819123 
" clip-path="url(#p605904cbe6)" style="fill: none; stroke: #000000; stroke-opacity: 0.3; stroke-width: 7; stroke-linecap: square"/>
   </g>
   <g id="line2d_18">
    <path d="M 536.625002 248.087245 
L 537.147814 253.223573 
L 537.553742 258.370267 
L 537.842929 263.524709 
L 538.015644 268.684297 
L 538.072301 273.846448 
L 538.013312 279.008577 
L 537.839118 284.16811 
L 537.550186 289.322466 
L 537.147091 294.469091 
L 536.630495 299.605462 
L 536.001059 304.729055 
L 535.259464 309.837361 
L 534.406413 314.927862 
L 533.442678 319.998083 
L 532.369088 325.045583 
L 531.18647 330.067923 
L 529.895663 335.062678 
L 528.49752 340.027419 
L 525.382853 349.85737 
L 521.849886 359.53902 
L 517.906175 369.053789 
L 513.55959 378.383584 
L 508.818164 387.510598 
L 506.301937 391.99257 
L 503.690118 396.417346 
L 500.983774 400.782807 
L 498.183991 405.086853 
L 495.291842 409.327378 
L 492.308454 413.502341 
L 489.234996 417.609748 
L 486.072637 421.647604 
L 482.82257 425.613935 
L 479.485972 429.506762 
L 476.064103 433.324175 
L 472.558286 437.064319 
L 468.969845 440.725337 
L 465.300135 444.305398 
L 461.550496 447.802661 
L 457.722383 451.215367 
L 453.817339 454.541821 
L 449.836906 457.780325 
L 445.782667 460.929212 
L 441.65619 463.9868 
L 437.459194 466.951511 
L 433.193501 469.821833 
L 428.86093 472.596256 
L 424.463353 475.273307 
L 420.002625 477.851492 
L 415.480779 480.329443 
L 410.899957 482.705869 
L 406.262299 484.979482 
L 401.569994 487.149032 
L 396.82523 489.213253 
L 392.030373 491.171021 
L 387.187888 493.021305 
L 382.300244 494.763069 
L 377.369949 496.39533 
L 372.399524 497.91708 
L 367.391644 499.327482 
L 362.349065 500.625793 
L 357.274545 501.811272 
L 352.17087 502.883229 
L 347.040851 503.840954 
L 341.887403 504.683925 
L 336.713496 505.411719 
L 331.522095 506.023914 
L 326.31618 506.520141 
L 321.098763 506.900019 
L 315.872898 507.163359 
L 310.641647 507.310076 
L 305.408077 507.340083 
L 300.17524 507.253352 
L 294.946233 507.049841 
L 289.724114 506.729705 
L 284.511914 506.293201 
L 279.312666 505.740583 
L 274.12937 505.072159 
L 268.965071 504.288232 
L 263.822701 503.389295 
L 258.705137 502.375934 
L 253.615252 501.248732 
L 248.555875 500.008325 
L 243.529873 498.655344 
L 238.539945 497.190601 
L 233.58871 495.614988 
L 228.67879 493.929393 
L 223.812747 492.134756 
L 218.993173 490.232011 
L 214.222464 488.222257 
L 209.502926 486.106659 
L 204.836865 483.886383 
L 200.226528 481.562633 
L 195.674182 479.136618 
L 191.181888 476.609685 
L 186.751626 473.983237 
L 182.385374 471.258678 
L 178.085056 468.437448 
L 173.852604 465.520987 
L 169.689764 462.510855 
L 165.598212 459.408659 
L 161.579623 456.216006 
L 157.635629 452.934534 
L 153.767857 449.565879 
L 149.977789 446.111784 
L 146.266848 442.574026 
L 142.636461 438.954386 
L 139.088017 435.254669 
L 135.622903 431.476678 
L 132.242394 427.62231 
L 128.947732 423.69349 
L 125.740153 419.692146 
L 122.620875 415.620229 
L 119.591106 411.479686 
L 116.651986 407.272547 
L 113.804627 403.000869 
L 111.050145 398.66671 
L 108.389637 394.27215 
L 105.824199 389.819264 
L 103.354881 385.310203 
L 98.708732 376.132266 
L 94.459403 366.755833 
L 90.6149 357.198764 
L 87.182959 347.479363 
L 85.624098 342.564545 
L 84.171204 337.616123 
L 82.825162 332.636488 
L 81.586858 327.62803 
L 80.457149 322.59316 
L 79.436924 317.534285 
L 78.526967 312.453871 
L 77.728035 307.354403 
L 77.040882 302.238363 
L 76.466217 297.108249 
L 76.004795 291.966561 
L 75.657212 286.815844 
L 75.424017 281.658654 
L 75.305759 276.497548 
L 75.302923 271.33509 
L 75.416048 266.173855 
L 75.645452 261.016439 
L 75.991388 255.865444 
L 76.454111 250.723472 
L 77.033793 245.593125 
L 77.730665 240.47702 
L 78.544675 235.377772 
L 79.475696 230.297988 
L 80.523601 225.24028 
L 81.688169 220.207245 
L 82.96923 215.201507 
L 84.366293 210.22565 
L 85.878786 205.282243 
L 87.506134 200.373858 
L 89.247663 195.503044 
L 91.10274 190.67238 
L 93.070398 185.884368 
L 95.149587 181.141488 
L 97.33926 176.446221 
L 99.638268 171.801015 
L 102.045491 167.208351 
L 104.559494 162.670595 
L 107.178769 158.190086 
L 109.901808 153.769161 
L 112.72702 149.410115 
L 115.652819 145.115278 
L 118.677357 140.886832 
L 121.798732 136.726923 
L 125.015038 132.6377 
L 128.324307 128.621258 
L 131.724562 124.679726 
L 135.213638 120.815062 
L 138.789329 117.029181 
L 142.449434 113.324004 
L 146.191707 109.701388 
L 150.013886 106.163226 
L 153.913599 102.711219 
L 157.888458 99.347028 
L 161.936074 96.072314 
L 166.054043 92.888676 
L 170.239932 89.797744 
L 174.491283 86.800946 
L 178.805632 83.899673 
L 183.180516 81.095316 
L 187.613478 78.3892 
L 192.102031 75.78268 
L 196.643721 73.276909 
L 201.236103 70.873003 
L 205.876729 68.572079 
L 210.563172 66.37519 
L 215.292979 64.283415 
L 220.063767 62.297634 
L 224.873164 60.418695 
L 229.718796 58.647448 
L 234.598315 56.984677 
L 239.509358 55.431193 
L 244.449636 53.987614 
L 249.416872 52.654531 
L 254.408789 51.432533 
L 259.42313 50.322147 
L 264.457636 49.323927 
L 269.510104 48.438241 
L 274.57834 47.665429 
L 279.66015 47.005832 
L 284.753352 46.459731 
L 289.85577 46.027431 
L 294.965252 45.709058 
L 300.079649 45.504711 
L 305.196815 45.414489 
L 310.314598 45.43843 
L 315.430866 45.576602 
L 320.543465 45.82889 
L 325.650245 46.195153 
L 330.749052 46.675251 
L 335.837721 47.268983 
L 340.914102 47.976178 
L 345.975996 48.796477 
L 351.021196 49.729498 
L 356.047498 50.77486 
L 361.052673 51.932113 
L 366.034507 53.200846 
L 370.990716 54.580449 
L 375.919006 56.07029 
L 380.817085 57.669736 
L 385.682634 59.378086 
L 390.513342 61.194675 
L 395.306829 63.118634 
L 400.060708 65.149067 
L 404.77259 67.285083 
L 409.440071 69.525716 
L 414.060737 71.870038 
L 418.632136 74.316907 
L 423.151815 76.865162 
L 427.617319 79.513637 
L 432.026192 82.261097 
L 436.375952 85.106339 
L 440.664139 88.047946 
L 444.888294 91.084483 
L 449.04596 94.214509 
L 453.134706 97.436517 
L 457.152051 100.749025 
L 461.095618 104.150345 
L 464.963042 107.63877 
L 468.751959 111.212594 
L 472.460059 114.870042 
L 476.084967 118.609359 
L 479.624506 122.428602 
L 483.076516 126.325813 
L 486.438836 130.29903 
L 489.709396 134.346234 
L 492.886046 138.465416 
L 495.96692 142.654407 
L 498.950177 146.911023 
L 501.833976 151.23308 
L 504.616588 155.618345 
L 507.296208 160.064588 
L 509.871378 164.569453 
L 512.340665 169.130573 
L 514.702638 173.745582 
L 516.955998 178.412077 
L 519.09937 183.127649 
L 521.131763 187.889805 
L 523.052209 192.696045 
L 524.859741 197.543868 
L 526.55353 202.430751 
L 528.132684 207.354162 
L 529.596687 212.311521 
L 530.945046 217.300247 
L 532.177267 222.317759 
L 533.292986 227.361467 
L 534.291793 232.428765 
L 535.173615 237.517043 
L 535.938396 242.623689 
L 536.586079 247.746092 
L 537.116719 252.881644 
L 537.530344 258.027721 
L 537.82725 263.181724 
L 538.007749 268.341056 
L 538.072154 273.503122 
L 538.020858 278.66534 
L 537.854248 283.825109 
L 537.572904 288.97988 
L 537.177417 294.127109 
L 536.668377 299.264249 
L 536.046434 304.388779 
L 535.312235 309.498156 
L 534.466557 314.589909 
L 533.510181 319.661569 
L 532.443889 324.710668 
L 531.2685 329.734766 
L 529.984836 334.731403 
L 528.593795 339.698204 
L 525.493191 349.532795 
L 521.973999 359.219656 
L 518.043826 368.740275 
L 513.710521 378.076531 
L 508.982069 387.210529 
L 506.472251 391.69625 
L 503.866765 396.12491 
L 501.166682 400.494391 
L 498.37305 404.802551 
L 495.487001 409.047353 
L 492.509665 413.226761 
L 489.442175 417.338738 
L 486.285703 421.381292 
L 483.041388 425.352402 
L 479.710494 429.250164 
L 476.294286 433.072676 
L 472.794032 436.818033 
L 469.211061 440.484384 
L 465.546651 444.06984 
L 461.802265 447.57265 
L 457.979367 450.991063 
L 454.07942 454.323325 
L 450.103971 457.567746 
L 446.054512 460.72259 
L 441.932766 463.786285 
L 437.740458 466.757254 
L 433.479312 469.633924 
L 429.151152 472.414788 
L 424.757748 475.098296 
L 420.301136 477.683082 
L 415.783348 480.167781 
L 411.206421 482.551028 
L 406.572492 484.831535 
L 401.883662 487.00797 
L 397.142294 489.079213 
L 392.350749 491.044141 
L 387.511395 492.901638 
L 382.626687 494.650669 
L 377.699071 496.290158 
L 372.731216 497.819265 
L 367.72579 499.23715 
L 362.685465 500.542977 
L 357.612988 501.735999 
L 352.51111 502.815434 
L 347.382741 503.780754 
L 342.230791 504.631429 
L 337.058173 505.366938 
L 331.867841 505.986847 
L 326.662776 506.490702 
L 321.446025 506.878305 
L 316.220636 507.14946 
L 310.989653 507.303979 
L 305.756133 507.341761 
L 300.523168 507.262697 
L 295.293814 507.066931 
L 290.071128 506.754606 
L 284.858162 506.325876 
L 279.657948 505.78098 
L 274.473548 505.120154 
L 269.307903 504.343879 
L 264.163949 503.452632 
L 259.044618 502.446904 
L 253.952792 501.327259 
L 248.891377 500.094274 
L 243.863082 498.748743 
L 238.870621 497.291461 
L 233.916693 495.72323 
L 229.003935 494.044924 
L 224.134988 492.257432 
L 219.312262 490.361834 
L 214.538172 488.35921 
L 209.815115 486.250648 
L 205.14542 484.037296 
L 200.531403 481.720324 
L 195.975148 479.301061 
L 191.47874 476.780838 
L 187.044248 474.160993 
L 182.673676 471.442915 
L 178.369 468.628012 
L 174.13199 465.71783 
L 169.964415 462.713914 
L 165.868033 459.617815 
L 161.84454 456.431126 
L 157.895605 453.155461 
L 154.022727 449.792547 
L 150.227404 446.344109 
L 146.511128 442.811881 
L 142.875341 439.197629 
L 139.321456 435.50314 
L 135.850766 431.730293 
L 132.464562 427.880971 
L 129.164131 423.957061 
L 125.950725 419.960479 
L 122.825571 415.893157 
L 119.789818 411.757113 
L 116.844615 407.554363 
L 113.991106 403.28693 
L 111.230414 398.95686 
L 108.563644 394.566218 
L 105.991854 390.117142 
L 103.516099 385.611772 
L 98.856886 376.440751 
L 94.594252 367.0706 
L 90.736141 357.51928 
L 87.290384 347.804949 
L 85.724508 342.89245 
L 84.26452 337.946208 
L 82.91133 332.968587 
L 81.665834 327.961969 
L 80.528918 322.928754 
L 79.501387 317.871399 
L 78.584044 312.792358 
L 77.77768 307.69409 
L 77.083071 302.579072 
L 76.500968 297.449796 
L 76.031996 292.308799 
L 75.67678 287.158616 
L 75.435923 282.001784 
L 75.31001 276.840855 
L 75.299574 271.678397 
L 75.404975 266.517001 
L 75.626575 261.359257 
L 75.964703 256.207756 
L 76.419662 251.065099 
L 76.991677 245.933899 
L 77.680753 240.816768 
L 78.486898 235.716316 
L 79.41008 230.635152 
L 80.450233 225.575892 
L 81.607182 220.541151 
L 82.880507 215.533518 
L 84.269784 210.555583 
L 85.774551 205.609926 
L 87.3943 200.699132 
L 89.128396 195.825771 
L 90.975946 190.99236 
L 92.936057 186.201413 
L 95.007795 181.455435 
L 97.190177 176.756928 
L 99.482081 172.108362 
L 101.882146 167.512129 
L 104.389009 162.970618 
L 107.001271 158.486203 
L 109.717481 154.061249 
L 112.536058 149.698076 
L 115.455219 145.398898 
L 118.473179 141.16593 
L 121.588127 137.001365 
L 124.798201 132.907384 
L 128.10143 128.886107 
L 131.495697 124.939528 
L 134.978884 121.069646 
L 138.548853 117.27843 
L 142.203429 113.567839 
L 145.940355 109.939752 
L 149.75729 106.395915 
L 153.651893 102.938075 
L 157.621816 99.567954 
L 161.664677 96.287254 
L 165.778056 93.09759 
L 169.959505 90.000441 
L 174.206571 86.997287 
L 178.516808 84.089579 
L 182.887746 81.278751 
L 187.316911 78.56614 
L 191.801845 75.952953 
L 196.340086 73.440394 
L 200.929182 71.029641 
L 205.566674 68.721853 
L 210.250119 66.51809 
L 214.977119 64.419288 
L 219.745273 62.42638 
L 224.552189 60.540273 
L 229.39548 58.761857 
L 234.272789 57.091923 
L 239.181809 55.531142 
L 244.120232 54.080186 
L 249.085759 52.739701 
L 254.076099 51.510317 
L 259.088995 50.392564 
L 264.12223 49.386863 
L 269.173585 48.493635 
L 274.240849 47.713271 
L 279.32182 47.046154 
L 284.414321 46.492566 
L 289.516192 46.052684 
L 294.625276 45.726685 
L 299.739415 45.514736 
L 304.856462 45.416946 
L 309.974273 45.433333 
L 315.090705 45.563883 
L 315.090705 45.563883 
" clip-path="url(#p605904cbe6)" style="fill: none; stroke-dasharray: 22.4,5.6,3.5,5.6; stroke-dashoffset: 0; stroke: #0000ff; stroke-opacity: 0.8; stroke-width: 3.5"/>
   </g>
   <g id="patch_3">
    <path d="M 52.160938 530.438125 
L 52.160938 22.318125 
" style="fill: none; stroke: #000000; stroke-width: 0.8; stroke-linejoin: miter; stroke-linecap: square"/>
   </g>
   <g id="patch_4">
    <path d="M 561.210937 530.438125 
L 561.210937 22.318125 
" style="fill: none; stroke: #000000; stroke-width: 0.8; stroke-linejoin: miter; stroke-linecap: square"/>
   </g>
   <g id="patch_5">
    <path d="M 52.160937 530.438125 
L 561.210937 530.438125 
" style="fill: none; stroke: #000000; stroke-width: 0.8; stroke-linejoin: miter; stroke-linecap: square"/>
   </g>
   <g id="patch_6">
    <path d="M 52.160937 22.318125 
L 561.210937 22.318125 
" style="fill: none; stroke: #000000; stroke-width: 0.8; stroke-linejoin: miter; stroke-linecap: square"/>
   </g>
   <g id="line2d_19">
    <path d="M 536.625002 248.087245 
L 537.438835 258.488714 
L 537.842083 268.846002 
L 537.833326 279.148609 
L 537.408435 289.389682 
L 536.560924 299.564361 
L 535.283069 309.665832 
L 534.480254 314.686654 
L 533.566946 319.685631 
L 532.542654 324.660645 
L 531.406886 329.609582 
L 530.159339 334.53028 
L 528.799588 339.420223 
L 527.327873 344.276647 
L 525.745012 349.096735 
L 524.051823 353.877676 
L 522.249292 358.616799 
L 520.338528 363.311097 
L 518.321279 367.958039 
L 516.199731 372.555593 
L 513.976074 377.101726 
L 511.652538 381.594571 
L 506.716118 390.413935 
L 501.41224 399.00564 
L 495.762917 407.364291 
L 489.789588 415.486713 
L 483.510043 423.367702 
L 476.940205 431.000688 
L 470.088729 438.368408 
L 462.959711 445.445421 
L 459.290978 448.864402 
L 455.551249 452.195288 
L 451.739232 455.43146 
L 447.853572 458.566382 
L 443.892374 461.591928 
L 439.853485 464.500214 
L 435.734738 467.283921 
L 431.533966 469.935725 
L 427.24934 472.449306 
L 422.878262 474.816819 
L 418.419439 477.034105 
L 413.872481 479.099471 
L 409.237002 481.011227 
L 404.513189 482.768511 
L 399.701043 484.371432 
L 394.802681 485.823105 
L 389.821424 487.128093 
L 384.760591 488.290961 
L 379.623994 489.316285 
L 374.415814 490.21021 
L 369.141699 490.978466 
L 363.808093 491.626376 
L 358.421439 492.15926 
L 347.515987 492.899824 
L 336.483413 493.233573 
L 325.385344 493.180178 
L 314.284176 492.75311 
L 303.240684 491.952078 
L 292.313636 490.770948 
L 281.558013 489.19735 
L 276.259379 488.258217 
L 271.020877 487.214895 
L 265.84827 486.064793 
L 260.745616 484.806019 
L 255.716142 483.437086 
L 250.763075 481.956509 
L 245.889151 480.363239 
L 241.097145 478.655815 
L 236.388146 476.834413 
L 231.762511 474.899965 
L 227.220591 472.853398 
L 222.762491 470.695985 
L 218.387904 468.429336 
L 214.095748 466.056186 
L 209.884673 463.579686 
L 205.753332 461.002989 
L 201.70044 458.329222 
L 197.724209 455.56216 
L 193.823211 452.705294 
L 186.242006 446.735424 
L 178.947743 440.445411 
L 171.934871 433.857344 
L 165.203824 426.987605 
L 158.757833 419.849804 
L 152.60658 412.453623 
L 146.762432 404.808071 
L 141.240841 396.922563 
L 136.058969 388.810434 
L 131.234505 380.48736 
L 126.783339 371.976422 
L 122.719616 363.304203 
L 119.054336 354.501708 
L 115.793374 345.602195 
L 112.940099 336.639492 
L 110.492038 327.643676 
L 108.444323 318.641729 
L 106.789104 309.65523 
L 105.516608 300.698416 
L 104.616396 291.78204 
L 104.078375 282.910602 
L 103.893169 274.086689 
L 104.052884 265.311279 
L 104.552179 256.586527 
L 105.387028 247.915573 
L 106.556806 239.307002 
L 108.062375 230.772511 
L 109.906679 222.328701 
L 112.094224 213.997412 
L 114.630192 205.802925 
L 117.519633 197.772037 
L 120.76704 189.931561 
L 124.37548 182.307014 
L 128.345396 174.919751 
L 132.675781 167.788733 
L 134.974677 164.323156 
L 137.361701 160.925828 
L 142.39645 154.339648 
L 147.770672 148.034149 
L 153.472503 142.009214 
L 159.488931 136.262983 
L 165.804996 130.791852 
L 172.405084 125.592149 
L 179.272844 120.660914 
L 186.391486 115.997535 
L 193.744122 111.602776 
L 201.31385 107.48205 
L 209.083825 103.643041 
L 217.037336 100.097091 
L 225.157656 96.859255 
L 233.428092 93.946394 
L 241.831486 91.378038 
L 250.350357 89.174352 
L 258.966518 87.35583 
L 267.660751 85.941832 
L 276.413232 84.950954 
L 280.804724 84.618918 
L 285.202806 84.398121 
L 289.604768 84.289979 
L 294.007817 84.296197 
L 298.409139 84.417432 
L 302.805914 84.654191 
L 307.195325 85.006979 
L 311.574593 85.475901 
L 315.940821 86.061319 
L 320.291296 86.762315 
L 324.623336 87.577799 
L 328.934257 88.506681 
L 333.221461 89.547483 
L 337.482266 90.698771 
L 345.915112 93.322628 
L 354.213911 96.357044 
L 362.360455 99.778156 
L 370.337895 103.558979 
L 378.129868 107.672136 
L 385.720683 112.090813 
L 393.095069 116.790949 
L 400.237949 121.750373 
L 407.134632 126.952529 
L 413.770616 132.383374 
L 420.131896 138.032899 
L 426.205272 143.894251 
L 431.978052 149.96208 
L 437.439406 156.231967 
L 442.579478 162.699175 
L 447.390274 169.357536 
L 451.866022 176.198112 
L 456.0022 183.210122 
L 459.797093 190.378305 
L 463.250098 197.685591 
L 466.362306 205.112206 
L 469.136014 212.63691 
L 471.574084 220.237911 
L 473.679709 227.894394 
L 475.455969 235.586497 
L 476.905497 243.296528 
L 478.030052 251.009404 
L 478.830833 258.711643 
L 479.307658 266.392482 
L 479.45978 274.041976 
L 479.285568 281.651067 
L 478.782859 289.210445 
L 477.949229 296.710399 
L 476.78256 304.139056 
L 475.281118 311.483358 
L 473.444179 318.727986 
L 471.272643 325.855575 
L 468.76848 332.847541 
L 465.936609 339.684089 
L 462.783311 346.345363 
L 459.317357 352.812049 
L 455.549791 359.066501 
L 451.493023 365.092326 
L 447.161721 370.876761 
L 442.571302 376.408743 
L 437.738257 381.680256 
L 432.679538 386.68594 
L 427.41228 391.42199 
L 421.953351 395.886942 
L 416.319349 400.080046 
L 410.526247 404.001462 
L 404.589242 407.651601 
L 398.523008 411.030894 
L 392.34111 414.139243 
L 386.056658 416.976208 
L 379.681963 419.540637 
L 373.228734 421.830686 
L 366.708314 423.844071 
L 360.131522 425.577848 
L 353.509011 427.028885 
L 346.851182 428.193877 
L 340.168282 429.069634 
L 333.470478 429.653117 
L 326.767736 429.94202 
L 320.069923 429.934438 
L 313.386666 429.629423 
L 306.727294 429.026987 
L 300.100923 428.127854 
L 293.516144 426.934203 
L 286.981322 425.448803 
L 280.504418 423.675553 
L 274.093121 421.61916 
L 267.754967 419.284865 
L 261.497517 416.678615 
L 255.328423 413.806562 
L 249.255769 410.675115 
L 243.288225 407.290758 
L 237.434965 403.659967 
L 231.706444 399.789223 
L 226.113685 395.685018 
L 220.668956 391.354041 
L 215.38546 386.803361 
L 210.277097 382.040402 
L 205.358634 377.073833 
L 200.645086 371.912927 
L 196.151572 366.568555 
L 191.892861 361.052941 
L 187.883323 355.379438 
L 184.135767 349.563208 
L 180.662239 343.620065 
L 177.472713 337.566793 
L 174.575403 331.420422 
L 171.977039 325.198022 
L 169.681654 318.915791 
L 167.692238 312.589423 
L 166.009624 306.233108 
L 164.633339 299.859783 
L 163.5619 293.481307 
L 162.792575 287.107877 
L 162.322245 280.749099 
L 162.147204 274.413682 
L 162.26354 268.110046 
L 162.667241 261.84653 
L 163.354308 255.631973 
L 164.320781 249.475523 
L 165.562783 243.387319 
L 167.076456 237.378255 
L 168.857945 231.459921 
L 170.903183 225.644797 
L 173.207983 219.945661 
L 175.767662 214.375486 
L 178.577089 208.947056 
L 181.630653 203.672824 
L 184.921762 198.564069 
L 188.443407 193.631514 
L 192.187504 188.884299 
L 196.145282 184.330472 
L 200.307308 179.977055 
L 204.663201 175.829611 
L 209.202228 171.893185 
L 213.912962 168.171941 
L 218.783644 164.66971 
L 223.80225 161.39013 
L 228.956531 158.336942 
L 234.234191 155.513994 
L 239.622944 152.925585 
L 245.110573 150.576342 
L 250.684965 148.471226 
L 256.334222 146.615566 
L 262.04654 145.014811 
L 267.810363 143.674358 
L 273.614286 142.599384 
L 279.447044 141.79472 
L 285.297601 141.264185 
L 291.155003 141.011138 
L 297.008501 141.03739 
L 302.84748 141.34375 
L 308.661474 141.929649 
L 308.661474 141.929649 
" clip-path="url(#p605904cbe6)" style="fill: none; stroke-dasharray: 3.5,5.775; stroke-dashoffset: 0; stroke: #008000; stroke-opacity: 0.8; stroke-width: 3.5"/>
   </g>
   <g id="text_19">
    <!-- Phase Portrait (x0 vs x1) -->
    <g transform="translate(232.994687 16.318125) scale(0.12 -0.12)">
     <defs>
      <path id="DejaVuSans-50" d="M 1259 4147 
L 1259 2394 
L 2053 2394 
Q 2494 2394 2734 2622 
Q 2975 2850 2975 3272 
Q 2975 3691 2734 3919 
Q 2494 4147 2053 4147 
L 1259 4147 
z
M 628 4666 
L 2053 4666 
Q 2838 4666 3239 4311 
Q 3641 3956 3641 3272 
Q 3641 2581 3239 2228 
Q 2838 1875 2053 1875 
L 1259 1875 
L 1259 0 
L 628 0 
L 628 4666 
z
" transform="scale(0.015625)"/>
      <path id="DejaVuSans-68" d="M 3513 2113 
L 3513 0 
L 2938 0 
L 2938 2094 
Q 2938 2591 2744 2837 
Q 2550 3084 2163 3084 
Q 1697 3084 1428 2787 
Q 1159 2491 1159 1978 
L 1159 0 
L 581 0 
L 581 4863 
L 1159 4863 
L 1159 2956 
Q 1366 3272 1645 3428 
Q 1925 3584 2291 3584 
Q 2894 3584 3203 3211 
Q 3513 2838 3513 2113 
z
" transform="scale(0.015625)"/>
      <path id="DejaVuSans-61" d="M 2194 1759 
Q 1497 1759 1228 1600 
Q 959 1441 959 1056 
Q 959 750 1161 570 
Q 1363 391 1709 391 
Q 2188 391 2477 730 
Q 2766 1069 2766 1631 
L 2766 1759 
L 2194 1759 
z
M 3341 1997 
L 3341 0 
L 2766 0 
L 2766 531 
Q 2569 213 2275 61 
Q 1981 -91 1556 -91 
Q 1019 -91 701 211 
Q 384 513 384 1019 
Q 384 1609 779 1909 
Q 1175 2209 1959 2209 
L 2766 2209 
L 2766 2266 
Q 2766 2663 2505 2880 
Q 2244 3097 1772 3097 
Q 1472 3097 1187 3025 
Q 903 2953 641 2809 
L 641 3341 
Q 956 3463 1253 3523 
Q 1550 3584 1831 3584 
Q 2591 3584 2966 3190 
Q 3341 2797 3341 1997 
z
" transform="scale(0.015625)"/>
      <path id="DejaVuSans-73" d="M 2834 3397 
L 2834 2853 
Q 2591 2978 2328 3040 
Q 2066 3103 1784 3103 
Q 1356 3103 1142 2972 
Q 928 2841 928 2578 
Q 928 2378 1081 2264 
Q 1234 2150 1697 2047 
L 1894 2003 
Q 2506 1872 2764 1633 
Q 3022 1394 3022 966 
Q 3022 478 2636 193 
Q 2250 -91 1575 -91 
Q 1294 -91 989 -36 
Q 684 19 347 128 
L 347 722 
Q 666 556 975 473 
Q 1284 391 1588 391 
Q 1994 391 2212 530 
Q 2431 669 2431 922 
Q 2431 1156 2273 1281 
Q 2116 1406 1581 1522 
L 1381 1569 
Q 847 1681 609 1914 
Q 372 2147 372 2553 
Q 372 3047 722 3315 
Q 1072 3584 1716 3584 
Q 2034 3584 2315 3537 
Q 2597 3491 2834 3397 
z
" transform="scale(0.015625)"/>
      <path id="DejaVuSans-65" d="M 3597 1894 
L 3597 1613 
L 953 1613 
Q 991 1019 1311 708 
Q 1631 397 2203 397 
Q 2534 397 2845 478 
Q 3156 559 3463 722 
L 3463 178 
Q 3153 47 2828 -22 
Q 2503 -91 2169 -91 
Q 1331 -91 842 396 
Q 353 884 353 1716 
Q 353 2575 817 3079 
Q 1281 3584 2069 3584 
Q 2775 3584 3186 3129 
Q 3597 2675 3597 1894 
z
M 3022 2063 
Q 3016 2534 2758 2815 
Q 2500 3097 2075 3097 
Q 1594 3097 1305 2825 
Q 1016 2553 972 2059 
L 3022 2063 
z
" transform="scale(0.015625)"/>
      <path id="DejaVuSans-20" transform="scale(0.015625)"/>
      <path id="DejaVuSans-6f" d="M 1959 3097 
Q 1497 3097 1228 2736 
Q 959 2375 959 1747 
Q 959 1119 1226 758 
Q 1494 397 1959 397 
Q 2419 397 2687 759 
Q 2956 1122 2956 1747 
Q 2956 2369 2687 2733 
Q 2419 3097 1959 3097 
z
M 1959 3584 
Q 2709 3584 3137 3096 
Q 3566 2609 3566 1747 
Q 3566 888 3137 398 
Q 2709 -91 1959 -91 
Q 1206 -91 779 398 
Q 353 888 353 1747 
Q 353 2609 779 3096 
Q 1206 3584 1959 3584 
z
" transform="scale(0.015625)"/>
      <path id="DejaVuSans-72" d="M 2631 2963 
Q 2534 3019 2420 3045 
Q 2306 3072 2169 3072 
Q 1681 3072 1420 2755 
Q 1159 2438 1159 1844 
L 1159 0 
L 581 0 
L 581 3500 
L 1159 3500 
L 1159 2956 
Q 1341 3275 1631 3429 
Q 1922 3584 2338 3584 
Q 2397 3584 2469 3576 
Q 2541 3569 2628 3553 
L 2631 2963 
z
" transform="scale(0.015625)"/>
      <path id="DejaVuSans-74" d="M 1172 4494 
L 1172 3500 
L 2356 3500 
L 2356 3053 
L 1172 3053 
L 1172 1153 
Q 1172 725 1289 603 
Q 1406 481 1766 481 
L 2356 481 
L 2356 0 
L 1766 0 
Q 1100 0 847 248 
Q 594 497 594 1153 
L 594 3053 
L 172 3053 
L 172 3500 
L 594 3500 
L 594 4494 
L 1172 4494 
z
" transform="scale(0.015625)"/>
      <path id="DejaVuSans-69" d="M 603 3500 
L 1178 3500 
L 1178 0 
L 603 0 
L 603 3500 
z
M 603 4863 
L 1178 4863 
L 1178 4134 
L 603 4134 
L 603 4863 
z
" transform="scale(0.015625)"/>
      <path id="DejaVuSans-28" d="M 1984 4856 
Q 1566 4138 1362 3434 
Q 1159 2731 1159 2009 
Q 1159 1288 1364 580 
Q 1569 -128 1984 -844 
L 1484 -844 
Q 1016 -109 783 600 
Q 550 1309 550 2009 
Q 550 2706 781 3412 
Q 1013 4119 1484 4856 
L 1984 4856 
z
" transform="scale(0.015625)"/>
      <path id="DejaVuSans-76" d="M 191 3500 
L 800 3500 
L 1894 563 
L 2988 3500 
L 3597 3500 
L 2284 0 
L 1503 0 
L 191 3500 
z
" transform="scale(0.015625)"/>
      <path id="DejaVuSans-29" d="M 513 4856 
L 1013 4856 
Q 1481 4119 1714 3412 
Q 1947 2706 1947 2009 
Q 1947 1309 1714 600 
Q 1481 -109 1013 -844 
L 513 -844 
Q 928 -128 1133 580 
Q 1338 1288 1338 2009 
Q 1338 2731 1133 3434 
Q 928 4138 513 4856 
z
" transform="scale(0.015625)"/>
     </defs>
     <use xlink:href="#DejaVuSans-50"/>
     <use xlink:href="#DejaVuSans-68" transform="translate(60.302734 0)"/>
     <use xlink:href="#DejaVuSans-61" transform="translate(123.681641 0)"/>
     <use xlink:href="#DejaVuSans-73" transform="translate(184.960938 0)"/>
     <use xlink:href="#DejaVuSans-65" transform="translate(237.060547 0)"/>
     <use xlink:href="#DejaVuSans-20" transform="translate(298.583984 0)"/>
     <use xlink:href="#DejaVuSans-50" transform="translate(330.371094 0)"/>
     <use xlink:href="#DejaVuSans-6f" transform="translate(387.048828 0)"/>
     <use xlink:href="#DejaVuSans-72" transform="translate(448.230469 0)"/>
     <use xlink:href="#DejaVuSans-74" transform="translate(489.34375 0)"/>
     <use xlink:href="#DejaVuSans-72" transform="translate(528.552734 0)"/>
     <use xlink:href="#DejaVuSans-61" transform="translate(569.666016 0)"/>
     <use xlink:href="#DejaVuSans-69" transform="translate(630.945312 0)"/>
     <use xlink:href="#DejaVuSans-74" transform="translate(658.728516 0)"/>
     <use xlink:href="#DejaVuSans-20" transform="translate(697.9375 0)"/>
     <use xlink:href="#DejaVuSans-28" transform="translate(729.724609 0)"/>
     <use xlink:href="#DejaVuSans-78" transform="translate(768.738281 0)"/>
     <use xlink:href="#DejaVuSans-30" transform="translate(827.917969 0)"/>
     <use xlink:href="#DejaVuSans-20" transform="translate(891.541016 0)"/>
     <use xlink:href="#DejaVuSans-76" transform="translate(923.328125 0)"/>
     <use xlink:href="#DejaVuSans-73" transform="translate(982.507812 0)"/>
     <use xlink:href="#DejaVuSans-20" transform="translate(1034.607422 0)"/>
     <use xlink:href="#DejaVuSans-78" transform="translate(1066.394531 0)"/>
     <use xlink:href="#DejaVuSans-31" transform="translate(1125.574219 0)"/>
     <use xlink:href="#DejaVuSans-29" transform="translate(1189.197266 0)"/>
    </g>
   </g>
   <g id="line2d_20">
    <path d="M 536.625002 248.087245 
L 537.14092 253.306671 
L 537.540309 258.52184 
L 537.82323 263.730101 
L 537.989862 268.928847 
L 538.04051 274.115518 
L 537.97548 279.287558 
L 537.795114 284.442427 
L 537.499762 289.57758 
L 537.089897 294.690533 
L 536.566106 299.778857 
L 535.928971 304.840124 
L 535.17911 309.871928 
L 534.317149 314.871856 
L 533.343835 319.837569 
L 532.260015 324.766787 
L 531.066535 329.657232 
L 529.764274 334.506647 
L 528.354117 339.312773 
L 526.837065 344.073428 
L 525.214211 348.786494 
L 523.486645 353.449853 
L 521.655491 358.061412 
L 519.721876 362.619075 
L 517.687037 367.120825 
L 515.552292 371.564715 
L 513.318961 375.948794 
L 510.98839 380.271137 
L 508.561931 384.529817 
L 506.041037 388.722992 
L 503.427236 392.848885 
L 500.722054 396.90572 
L 497.927042 400.891745 
L 495.043758 404.805205 
L 492.073853 408.644437 
L 489.019041 412.407841 
L 485.881037 416.093819 
L 482.661579 419.7008 
L 479.362409 423.227206 
L 475.985356 426.671557 
L 472.532301 430.03244 
L 469.005128 433.308441 
L 465.405739 436.498178 
L 461.736043 439.600258 
L 457.998022 442.613397 
L 454.193707 445.536376 
L 450.325126 448.36798 
L 446.394327 451.107025 
L 442.40336 453.752316 
L 434.24943 458.757402 
L 425.880538 463.375159 
L 417.314085 467.597881 
L 408.56793 471.418926 
L 399.660141 474.83223 
L 390.60904 477.832453 
L 381.433217 480.415327 
L 372.151373 482.577016 
L 362.78241 484.314912 
L 353.345303 485.627057 
L 343.859104 486.512315 
L 334.342885 486.970717 
L 324.815722 487.002775 
L 315.296613 486.610301 
L 305.804473 485.795771 
L 296.358113 484.562514 
L 286.976098 482.915002 
L 277.676894 480.858179 
L 268.478597 478.398222 
L 259.399086 475.541909 
L 250.455942 472.296799 
L 241.666266 468.671444 
L 233.046959 464.674807 
L 224.614296 460.316884 
L 216.384215 455.608155 
L 208.372193 450.559737 
L 200.593036 445.183513 
L 193.061262 439.49169 
L 185.790562 433.497253 
L 178.7942 427.213537 
L 172.084849 420.654353 
L 165.67437 413.834052 
L 159.574277 406.767217 
L 153.7951 399.468977 
L 148.346888 391.954695 
L 143.239001 384.240066 
L 138.479894 376.341139 
L 134.077628 368.27412 
L 130.039181 360.055565 
L 126.371011 351.702173 
L 123.078822 343.230852 
L 120.167357 334.658702 
L 117.640934 326.002919 
L 115.502732 317.28086 
L 113.755385 308.509942 
L 112.400742 299.707658 
L 111.439668 290.891526 
L 110.87259 282.079082 
L 110.698776 273.287811 
L 110.916958 264.535151 
L 111.525073 255.838454 
L 112.520099 247.214894 
L 113.898577 238.681563 
L 115.65593 230.255237 
L 117.787073 221.952519 
L 120.286161 213.789732 
L 123.146459 205.782783 
L 126.360828 197.947384 
L 129.921107 190.298643 
L 133.818691 182.851364 
L 138.044286 175.619869 
L 142.587843 168.617837 
L 147.438952 161.858648 
L 152.586352 155.354817 
L 158.018418 149.118454 
L 163.722961 143.161018 
L 169.687202 137.493161 
L 175.89808 132.125154 
L 182.34189 127.06624 
L 189.004669 122.325192 
L 195.872042 117.910032 
L 202.929239 113.827903 
L 210.161295 110.085522 
L 217.552842 106.688517 
L 225.088358 103.642029 
L 232.752086 100.950419 
L 240.528067 98.617169 
L 248.400247 96.645326 
L 256.352411 95.036861 
L 264.368295 93.793275 
L 272.431576 92.915301 
L 280.525922 92.402828 
L 288.634998 92.255323 
L 296.742548 92.471223 
L 304.832369 93.048514 
L 312.888365 93.984445 
L 320.894617 95.275465 
L 328.835295 96.917616 
L 336.694871 98.905959 
L 344.457969 101.235131 
L 352.109484 103.899061 
L 359.634656 106.890933 
L 367.018907 110.20354 
L 374.248173 113.828762 
L 381.308631 117.758092 
L 388.186884 121.982365 
L 394.870036 126.491754 
L 401.345459 131.276076 
L 407.60123 136.324357 
L 413.625747 141.625291 
L 419.407971 147.167019 
L 424.937499 152.937155 
L 430.204266 158.923022 
L 435.199072 165.111346 
L 439.9131 171.488616 
L 444.338204 178.04093 
L 448.466968 184.754043 
L 452.292374 191.613523 
L 455.80837 198.604602 
L 459.009327 205.712391 
L 461.890357 212.92181 
L 464.447348 220.217658 
L 466.676618 227.584668 
L 468.575495 235.007516 
L 470.14174 242.470877 
L 471.373881 249.95945 
L 472.271215 257.458019 
L 472.833479 264.951416 
L 473.061401 272.424676 
L 472.956127 279.862936 
L 472.519548 287.251539 
L 471.754281 294.57608 
L 470.663365 301.822303 
L 469.250759 308.976349 
L 467.520808 316.024541 
L 465.478541 322.953547 
L 463.129641 329.750407 
L 460.480172 336.402383 
L 457.537013 342.897271 
L 454.307378 349.223112 
L 450.799086 355.368386 
L 447.020503 361.322033 
L 442.980332 367.073268 
L 438.687954 372.611949 
L 434.153026 377.928217 
L 429.385703 383.012736 
L 424.396575 387.856699 
L 419.196506 392.451621 
L 413.79688 396.789755 
L 408.209289 400.863672 
L 402.445703 404.666548 
L 396.518396 408.192146 
L 390.43984 411.434603 
L 384.222854 414.388877 
L 377.880388 417.050278 
L 371.425629 419.414797 
L 364.871928 421.479061 
L 358.232747 423.240113 
L 351.521704 424.695882 
L 344.752467 425.844668 
L 337.938781 426.685508 
L 331.094409 427.218093 
L 324.233133 427.442556 
L 317.368687 427.359931 
L 310.514771 426.971621 
L 303.684997 426.279778 
L 296.892852 425.287181 
L 290.15174 423.997045 
L 283.474821 422.413439 
L 276.875145 420.540773 
L 270.365504 418.38416 
L 263.958438 415.949265 
L 257.666308 413.242156 
L 251.501049 410.269642 
L 245.474422 407.038827 
L 239.597773 403.557415 
L 233.882095 399.833566 
L 228.338108 395.875776 
L 222.975964 391.693136 
L 217.80558 387.294966 
L 212.836335 382.691064 
L 208.077169 377.891565 
L 203.536682 372.906866 
L 199.222789 367.747795 
L 195.143132 362.425345 
L 191.304714 356.950848 
L 187.714044 351.335861 
L 184.377239 345.592118 
L 181.299653 339.731625 
L 178.486339 333.766487 
L 175.941646 327.709008 
L 173.6694 321.571604 
L 171.672993 315.366787 
L 169.955021 309.107177 
L 168.517763 302.805427 
L 167.36276 296.474245 
L 166.491022 290.126339 
L 165.903112 283.774421 
L 165.598792 277.431145 
L 165.577509 271.109133 
L 165.837971 264.820899 
L 166.378375 258.578849 
L 167.196476 252.395293 
L 168.289261 246.282307 
L 169.653422 240.25187 
L 171.284945 234.315685 
L 173.17935 228.485237 
L 175.331743 222.771813 
L 177.736536 217.186296 
L 180.387875 211.739409 
L 183.279277 206.441436 
L 186.403859 201.302347 
L 189.754371 196.331818 
L 193.322981 191.538976 
L 197.101635 186.932733 
L 201.081758 182.521425 
L 205.25446 178.313002 
L 209.610555 174.315045 
L 214.140409 170.534478 
L 218.834226 166.977971 
L 223.681818 163.651527 
L 228.672782 160.560719 
L 233.796505 157.710696 
L 239.042081 155.105897 
L 244.398499 152.750486 
L 249.854514 150.647908 
L 255.398764 148.801165 
L 261.019771 147.212813 
L 266.70593 145.884678 
L 272.445591 144.818309 
L 278.227033 144.014524 
L 284.038514 143.473707 
L 289.868281 143.195789 
L 295.704611 143.180003 
L 301.535806 143.425257 
L 304.445843 143.645252 
L 304.445843 143.645252 
" clip-path="url(#p605904cbe6)" style="fill: none; stroke-dasharray: 12.95,5.6; stroke-dashoffset: 0; stroke: #ff0000; stroke-opacity: 0.8; stroke-width: 3.5"/>
   </g>
   <g id="legend_1">
    <g id="patch_7">
     <path d="M 234.010937 307.234375 
L 379.360937 307.234375 
Q 381.360937 307.234375 381.360937 305.234375 
L 381.360937 247.521875 
Q 381.360937 245.521875 379.360937 245.521875 
L 234.010937 245.521875 
Q 232.010937 245.521875 232.010937 247.521875 
L 232.010937 305.234375 
Q 232.010937 307.234375 234.010937 307.234375 
z
" style="fill: #ffffff; opacity: 0.8; stroke: #cccccc; stroke-linejoin: miter"/>
    </g>
    <g id="line2d_21">
     <path d="M 236.010937 253.620312 
L 246.010937 253.620312 
L 256.010937 253.620312 
" style="fill: none; stroke: #000000; stroke-opacity: 0.3; stroke-width: 7; stroke-linecap: square"/>
    </g>
    <g id="text_20">
     <!-- True/Underlying model -->
     <g transform="translate(264.010937 257.120312) scale(0.1 -0.1)">
      <defs>
       <path id="DejaVuSans-54" d="M -19 4666 
L 3928 4666 
L 3928 4134 
L 2272 4134 
L 2272 0 
L 1638 0 
L 1638 4134 
L -19 4134 
L -19 4666 
z
" transform="scale(0.015625)"/>
       <path id="DejaVuSans-75" d="M 544 1381 
L 544 3500 
L 1119 3500 
L 1119 1403 
Q 1119 906 1312 657 
Q 1506 409 1894 409 
Q 2359 409 2629 706 
Q 2900 1003 2900 1516 
L 2900 3500 
L 3475 3500 
L 3475 0 
L 2900 0 
L 2900 538 
Q 2691 219 2414 64 
Q 2138 -91 1772 -91 
Q 1169 -91 856 284 
Q 544 659 544 1381 
z
M 1991 3584 
L 1991 3584 
z
" transform="scale(0.015625)"/>
       <path id="DejaVuSans-2f" d="M 1625 4666 
L 2156 4666 
L 531 -594 
L 0 -594 
L 1625 4666 
z
" transform="scale(0.015625)"/>
       <path id="DejaVuSans-55" d="M 556 4666 
L 1191 4666 
L 1191 1831 
Q 1191 1081 1462 751 
Q 1734 422 2344 422 
Q 2950 422 3222 751 
Q 3494 1081 3494 1831 
L 3494 4666 
L 4128 4666 
L 4128 1753 
Q 4128 841 3676 375 
Q 3225 -91 2344 -91 
Q 1459 -91 1007 375 
Q 556 841 556 1753 
L 556 4666 
z
" transform="scale(0.015625)"/>
       <path id="DejaVuSans-6e" d="M 3513 2113 
L 3513 0 
L 2938 0 
L 2938 2094 
Q 2938 2591 2744 2837 
Q 2550 3084 2163 3084 
Q 1697 3084 1428 2787 
Q 1159 2491 1159 1978 
L 1159 0 
L 581 0 
L 581 3500 
L 1159 3500 
L 1159 2956 
Q 1366 3272 1645 3428 
Q 1925 3584 2291 3584 
Q 2894 3584 3203 3211 
Q 3513 2838 3513 2113 
z
" transform="scale(0.015625)"/>
       <path id="DejaVuSans-64" d="M 2906 2969 
L 2906 4863 
L 3481 4863 
L 3481 0 
L 2906 0 
L 2906 525 
Q 2725 213 2448 61 
Q 2172 -91 1784 -91 
Q 1150 -91 751 415 
Q 353 922 353 1747 
Q 353 2572 751 3078 
Q 1150 3584 1784 3584 
Q 2172 3584 2448 3432 
Q 2725 3281 2906 2969 
z
M 947 1747 
Q 947 1113 1208 752 
Q 1469 391 1925 391 
Q 2381 391 2643 752 
Q 2906 1113 2906 1747 
Q 2906 2381 2643 2742 
Q 2381 3103 1925 3103 
Q 1469 3103 1208 2742 
Q 947 2381 947 1747 
z
" transform="scale(0.015625)"/>
       <path id="DejaVuSans-6c" d="M 603 4863 
L 1178 4863 
L 1178 0 
L 603 0 
L 603 4863 
z
" transform="scale(0.015625)"/>
       <path id="DejaVuSans-79" d="M 2059 -325 
Q 1816 -950 1584 -1140 
Q 1353 -1331 966 -1331 
L 506 -1331 
L 506 -850 
L 844 -850 
Q 1081 -850 1212 -737 
Q 1344 -625 1503 -206 
L 1606 56 
L 191 3500 
L 800 3500 
L 1894 763 
L 2988 3500 
L 3597 3500 
L 2059 -325 
z
" transform="scale(0.015625)"/>
       <path id="DejaVuSans-67" d="M 2906 1791 
Q 2906 2416 2648 2759 
Q 2391 3103 1925 3103 
Q 1463 3103 1205 2759 
Q 947 2416 947 1791 
Q 947 1169 1205 825 
Q 1463 481 1925 481 
Q 2391 481 2648 825 
Q 2906 1169 2906 1791 
z
M 3481 434 
Q 3481 -459 3084 -895 
Q 2688 -1331 1869 -1331 
Q 1566 -1331 1297 -1286 
Q 1028 -1241 775 -1147 
L 775 -588 
Q 1028 -725 1275 -790 
Q 1522 -856 1778 -856 
Q 2344 -856 2625 -561 
Q 2906 -266 2906 331 
L 2906 616 
Q 2728 306 2450 153 
Q 2172 0 1784 0 
Q 1141 0 747 490 
Q 353 981 353 1791 
Q 353 2603 747 3093 
Q 1141 3584 1784 3584 
Q 2172 3584 2450 3431 
Q 2728 3278 2906 2969 
L 2906 3500 
L 3481 3500 
L 3481 434 
z
" transform="scale(0.015625)"/>
       <path id="DejaVuSans-6d" d="M 3328 2828 
Q 3544 3216 3844 3400 
Q 4144 3584 4550 3584 
Q 5097 3584 5394 3201 
Q 5691 2819 5691 2113 
L 5691 0 
L 5113 0 
L 5113 2094 
Q 5113 2597 4934 2840 
Q 4756 3084 4391 3084 
Q 3944 3084 3684 2787 
Q 3425 2491 3425 1978 
L 3425 0 
L 2847 0 
L 2847 2094 
Q 2847 2600 2669 2842 
Q 2491 3084 2119 3084 
Q 1678 3084 1418 2786 
Q 1159 2488 1159 1978 
L 1159 0 
L 581 0 
L 581 3500 
L 1159 3500 
L 1159 2956 
Q 1356 3278 1631 3431 
Q 1906 3584 2284 3584 
Q 2666 3584 2933 3390 
Q 3200 3197 3328 2828 
z
" transform="scale(0.015625)"/>
      </defs>
      <use xlink:href="#DejaVuSans-54"/>
      <use xlink:href="#DejaVuSans-72" transform="translate(46.333984 0)"/>
      <use xlink:href="#DejaVuSans-75" transform="translate(87.447266 0)"/>
      <use xlink:href="#DejaVuSans-65" transform="translate(150.826172 0)"/>
      <use xlink:href="#DejaVuSans-2f" transform="translate(212.349609 0)"/>
      <use xlink:href="#DejaVuSans-55" transform="translate(246.041016 0)"/>
      <use xlink:href="#DejaVuSans-6e" transform="translate(319.234375 0)"/>
      <use xlink:href="#DejaVuSans-64" transform="translate(382.613281 0)"/>
      <use xlink:href="#DejaVuSans-65" transform="translate(446.089844 0)"/>
      <use xlink:href="#DejaVuSans-72" transform="translate(507.613281 0)"/>
      <use xlink:href="#DejaVuSans-6c" transform="translate(548.726562 0)"/>
      <use xlink:href="#DejaVuSans-79" transform="translate(576.509766 0)"/>
      <use xlink:href="#DejaVuSans-69" transform="translate(635.689453 0)"/>
      <use xlink:href="#DejaVuSans-6e" transform="translate(663.472656 0)"/>
      <use xlink:href="#DejaVuSans-67" transform="translate(726.851562 0)"/>
      <use xlink:href="#DejaVuSans-20" transform="translate(790.328125 0)"/>
      <use xlink:href="#DejaVuSans-6d" transform="translate(822.115234 0)"/>
      <use xlink:href="#DejaVuSans-6f" transform="translate(919.527344 0)"/>
      <use xlink:href="#DejaVuSans-64" transform="translate(980.708984 0)"/>
      <use xlink:href="#DejaVuSans-65" transform="translate(1044.185547 0)"/>
      <use xlink:href="#DejaVuSans-6c" transform="translate(1105.708984 0)"/>
     </g>
    </g>
    <g id="line2d_22">
     <path d="M 236.010937 268.298437 
L 246.010937 268.298437 
L 256.010937 268.298437 
" style="fill: none; stroke-dasharray: 12.95,5.6; stroke-dashoffset: 0; stroke: #ff0000; stroke-opacity: 0.8; stroke-width: 3.5"/>
    </g>
    <g id="text_21">
     <!-- AutoSINDy -->
     <g transform="translate(264.010937 271.798437) scale(0.1 -0.1)">
      <defs>
       <path id="DejaVuSans-41" d="M 2188 4044 
L 1331 1722 
L 3047 1722 
L 2188 4044 
z
M 1831 4666 
L 2547 4666 
L 4325 0 
L 3669 0 
L 3244 1197 
L 1141 1197 
L 716 0 
L 50 0 
L 1831 4666 
z
" transform="scale(0.015625)"/>
       <path id="DejaVuSans-53" d="M 3425 4513 
L 3425 3897 
Q 3066 4069 2747 4153 
Q 2428 4238 2131 4238 
Q 1616 4238 1336 4038 
Q 1056 3838 1056 3469 
Q 1056 3159 1242 3001 
Q 1428 2844 1947 2747 
L 2328 2669 
Q 3034 2534 3370 2195 
Q 3706 1856 3706 1288 
Q 3706 609 3251 259 
Q 2797 -91 1919 -91 
Q 1588 -91 1214 -16 
Q 841 59 441 206 
L 441 856 
Q 825 641 1194 531 
Q 1563 422 1919 422 
Q 2459 422 2753 634 
Q 3047 847 3047 1241 
Q 3047 1584 2836 1778 
Q 2625 1972 2144 2069 
L 1759 2144 
Q 1053 2284 737 2584 
Q 422 2884 422 3419 
Q 422 4038 858 4394 
Q 1294 4750 2059 4750 
Q 2388 4750 2728 4690 
Q 3069 4631 3425 4513 
z
" transform="scale(0.015625)"/>
       <path id="DejaVuSans-49" d="M 628 4666 
L 1259 4666 
L 1259 0 
L 628 0 
L 628 4666 
z
" transform="scale(0.015625)"/>
       <path id="DejaVuSans-4e" d="M 628 4666 
L 1478 4666 
L 3547 763 
L 3547 4666 
L 4159 4666 
L 4159 0 
L 3309 0 
L 1241 3903 
L 1241 0 
L 628 0 
L 628 4666 
z
" transform="scale(0.015625)"/>
       <path id="DejaVuSans-44" d="M 1259 4147 
L 1259 519 
L 2022 519 
Q 2988 519 3436 956 
Q 3884 1394 3884 2338 
Q 3884 3275 3436 3711 
Q 2988 4147 2022 4147 
L 1259 4147 
z
M 628 4666 
L 1925 4666 
Q 3281 4666 3915 4102 
Q 4550 3538 4550 2338 
Q 4550 1131 3912 565 
Q 3275 0 1925 0 
L 628 0 
L 628 4666 
z
" transform="scale(0.015625)"/>
      </defs>
      <use xlink:href="#DejaVuSans-41"/>
      <use xlink:href="#DejaVuSans-75" transform="translate(68.408203 0)"/>
      <use xlink:href="#DejaVuSans-74" transform="translate(131.787109 0)"/>
      <use xlink:href="#DejaVuSans-6f" transform="translate(170.996094 0)"/>
      <use xlink:href="#DejaVuSans-53" transform="translate(232.177734 0)"/>
      <use xlink:href="#DejaVuSans-49" transform="translate(295.654297 0)"/>
      <use xlink:href="#DejaVuSans-4e" transform="translate(325.146484 0)"/>
      <use xlink:href="#DejaVuSans-44" transform="translate(399.951172 0)"/>
      <use xlink:href="#DejaVuSans-79" transform="translate(476.953125 0)"/>
     </g>
    </g>
    <g id="line2d_23">
     <path d="M 236.010937 282.976562 
L 246.010937 282.976562 
L 256.010937 282.976562 
" style="fill: none; stroke-dasharray: 3.5,5.775; stroke-dashoffset: 0; stroke: #008000; stroke-opacity: 0.8; stroke-width: 3.5"/>
    </g>
    <g id="text_22">
     <!-- Standard SINDy -->
     <g transform="translate(264.010937 286.476562) scale(0.1 -0.1)">
      <use xlink:href="#DejaVuSans-53"/>
      <use xlink:href="#DejaVuSans-74" transform="translate(63.476562 0)"/>
      <use xlink:href="#DejaVuSans-61" transform="translate(102.685547 0)"/>
      <use xlink:href="#DejaVuSans-6e" transform="translate(163.964844 0)"/>
      <use xlink:href="#DejaVuSans-64" transform="translate(227.34375 0)"/>
      <use xlink:href="#DejaVuSans-61" transform="translate(290.820312 0)"/>
      <use xlink:href="#DejaVuSans-72" transform="translate(352.099609 0)"/>
      <use xlink:href="#DejaVuSans-64" transform="translate(391.462891 0)"/>
      <use xlink:href="#DejaVuSans-20" transform="translate(454.939453 0)"/>
      <use xlink:href="#DejaVuSans-53" transform="translate(486.726562 0)"/>
      <use xlink:href="#DejaVuSans-49" transform="translate(550.203125 0)"/>
      <use xlink:href="#DejaVuSans-4e" transform="translate(579.695312 0)"/>
      <use xlink:href="#DejaVuSans-44" transform="translate(654.5 0)"/>
      <use xlink:href="#DejaVuSans-79" transform="translate(731.501953 0)"/>
     </g>
    </g>
    <g id="line2d_24">
     <path d="M 236.010937 297.654687 
L 246.010937 297.654687 
L 256.010937 297.654687 
" style="fill: none; stroke-dasharray: 22.4,5.6,3.5,5.6; stroke-dashoffset: 0; stroke: #0000ff; stroke-opacity: 0.8; stroke-width: 3.5"/>
    </g>
    <g id="text_23">
     <!-- Standard PySR -->
     <g transform="translate(264.010937 301.154687) scale(0.1 -0.1)">
      <defs>
       <path id="DejaVuSans-52" d="M 2841 2188 
Q 3044 2119 3236 1894 
Q 3428 1669 3622 1275 
L 4263 0 
L 3584 0 
L 2988 1197 
Q 2756 1666 2539 1819 
Q 2322 1972 1947 1972 
L 1259 1972 
L 1259 0 
L 628 0 
L 628 4666 
L 2053 4666 
Q 2853 4666 3247 4331 
Q 3641 3997 3641 3322 
Q 3641 2881 3436 2590 
Q 3231 2300 2841 2188 
z
M 1259 4147 
L 1259 2491 
L 2053 2491 
Q 2509 2491 2742 2702 
Q 2975 2913 2975 3322 
Q 2975 3731 2742 3939 
Q 2509 4147 2053 4147 
L 1259 4147 
z
" transform="scale(0.015625)"/>
      </defs>
      <use xlink:href="#DejaVuSans-53"/>
      <use xlink:href="#DejaVuSans-74" transform="translate(63.476562 0)"/>
      <use xlink:href="#DejaVuSans-61" transform="translate(102.685547 0)"/>
      <use xlink:href="#DejaVuSans-6e" transform="translate(163.964844 0)"/>
      <use xlink:href="#DejaVuSans-64" transform="translate(227.34375 0)"/>
      <use xlink:href="#DejaVuSans-61" transform="translate(290.820312 0)"/>
      <use xlink:href="#DejaVuSans-72" transform="translate(352.099609 0)"/>
      <use xlink:href="#DejaVuSans-64" transform="translate(391.462891 0)"/>
      <use xlink:href="#DejaVuSans-20" transform="translate(454.939453 0)"/>
      <use xlink:href="#DejaVuSans-50" transform="translate(486.726562 0)"/>
      <use xlink:href="#DejaVuSans-79" transform="translate(547.029297 0)"/>
      <use xlink:href="#DejaVuSans-53" transform="translate(606.208984 0)"/>
      <use xlink:href="#DejaVuSans-52" transform="translate(669.685547 0)"/>
     </g>
    </g>
   </g>
  </g>
 </g>
 <defs>
  <clipPath id="p605904cbe6">
   <rect x="52.160938" y="22.318125" width="509.05" height="508.12"/>
  </clipPath>
 </defs>
</svg>
