<?xml version="1.0" encoding="utf-8" standalone="no"?>
<!DOCTYPE svg PUBLIC "-//W3C//DTD SVG 1.1//EN"
  "http://www.w3.org/Graphics/SVG/1.1/DTD/svg11.dtd">
<svg xmlns:xlink="http://www.w3.org/1999/xlink" width="854.917812pt" height="284.863125pt" viewBox="0 0 854.917812 284.863125" xmlns="http://www.w3.org/2000/svg" version="1.1">
 <metadata>
  <rdf:RDF xmlns:dc="http://purl.org/dc/elements/1.1/" xmlns:cc="http://creativecommons.org/ns#" xmlns:rdf="http://www.w3.org/1999/02/22-rdf-syntax-ns#">
   <cc:Work>
    <dc:type rdf:resource="http://purl.org/dc/dcmitype/StillImage"/>
    <dc:date>2026-04-03T17:09:44.219622</dc:date>
    <dc:format>image/svg+xml</dc:format>
    <dc:creator>
     <cc:Agent>
      <dc:title>Matplotlib v3.10.7, https://matplotlib.org/</dc:title>
     </cc:Agent>
    </dc:creator>
   </cc:Work>
  </rdf:RDF>
 </metadata>
 <defs>
  <style type="text/css">*{stroke-linejoin: round; stroke-linecap: butt}</style>
 </defs>
 <g id="figure_1">
  <g id="patch_1">
   <path d="M 0 284.863125 
L 854.917812 284.863125 
L 854.917812 0 
L 0 0 
z
" style="fill: #ffffff"/>
  </g>
  <g id="axes_1">
   <g id="patch_2">
    <path d="M 54.096563 137.5575 
L 840.837813 137.5575 
L 840.837813 41.62375 
L 54.096563 41.62375 
z
" style="fill: #ffffff"/>
   </g>
   <g id="matplotlib.axis_1">
    <g id="xtick_1">
     <g id="line2d_1">
      <path d="M 89.857528 137.5575 
L 89.857528 41.62375 
" clip-path="url(#pfc86dc3164)" style="fill: none; stroke: #cccccc; stroke-width: 0.8; stroke-linecap: round"/>
     </g>
    </g>
    <g id="xtick_2">
     <g id="line2d_2">
      <path d="M 232.901392 137.5575 
L 232.901392 41.62375 
" clip-path="url(#pfc86dc3164)" style="fill: none; stroke: #cccccc; stroke-width: 0.8; stroke-linecap: round"/>
     </g>
    </g>
    <g id="xtick_3">
     <g id="line2d_3">
      <path d="M 375.945256 137.5575 
L 375.945256 41.62375 
" clip-path="url(#pfc86dc3164)" style="fill: none; stroke: #cccccc; stroke-width: 0.8; stroke-linecap: round"/>
     </g>
    </g>
    <g id="xtick_4">
     <g id="line2d_4">
      <path d="M 518.989119 137.5575 
L 518.989119 41.62375 
" clip-path="url(#pfc86dc3164)" style="fill: none; stroke: #cccccc; stroke-width: 0.8; stroke-linecap: round"/>
     </g>
    </g>
    <g id="xtick_5">
     <g id="line2d_5">
      <path d="M 662.032983 137.5575 
L 662.032983 41.62375 
" clip-path="url(#pfc86dc3164)" style="fill: none; stroke: #cccccc; stroke-width: 0.8; stroke-linecap: round"/>
     </g>
    </g>
    <g id="xtick_6">
     <g id="line2d_6">
      <path d="M 805.076847 137.5575 
L 805.076847 41.62375 
" clip-path="url(#pfc86dc3164)" style="fill: none; stroke: #cccccc; stroke-width: 0.8; stroke-linecap: round"/>
     </g>
    </g>
   </g>
   <g id="matplotlib.axis_2">
    <g id="ytick_1">
     <g id="line2d_7">
      <path d="M 54.096563 129.369413 
L 840.837813 129.369413 
" clip-path="url(#pfc86dc3164)" style="fill: none; stroke: #cccccc; stroke-width: 0.8; stroke-linecap: round"/>
     </g>
     <g id="text_1">
      <!-- −0.5 -->
      <g style="fill: #262626" transform="translate(22.81375 133.168631) scale(0.1 -0.1)">
       <defs>
        <path id="DejaVuSerif-2212" d="M 678 2259 
L 4684 2259 
L 4684 1753 
L 678 1753 
L 678 2259 
z
" transform="scale(0.015625)"/>
        <path id="DejaVuSerif-30" d="M 2034 219 
Q 2513 219 2750 744 
Q 2988 1269 2988 2328 
Q 2988 3391 2750 3916 
Q 2513 4441 2034 4441 
Q 1556 4441 1318 3916 
Q 1081 3391 1081 2328 
Q 1081 1269 1318 744 
Q 1556 219 2034 219 
z
M 2034 -91 
Q 1275 -91 848 546 
Q 422 1184 422 2328 
Q 422 3475 848 4112 
Q 1275 4750 2034 4750 
Q 2797 4750 3222 4112 
Q 3647 3475 3647 2328 
Q 3647 1184 3222 546 
Q 2797 -91 2034 -91 
z
" transform="scale(0.015625)"/>
        <path id="DejaVuSerif-2e" d="M 603 325 
Q 603 500 722 622 
Q 841 744 1019 744 
Q 1191 744 1312 622 
Q 1434 500 1434 325 
Q 1434 153 1312 31 
Q 1191 -91 1019 -91 
Q 841 -91 722 29 
Q 603 150 603 325 
z
" transform="scale(0.015625)"/>
        <path id="DejaVuSerif-35" d="M 3219 4666 
L 3219 4153 
L 1081 4153 
L 1081 2816 
Q 1244 2928 1461 2984 
Q 1678 3041 1947 3041 
Q 2703 3041 3140 2622 
Q 3578 2203 3578 1478 
Q 3578 738 3136 323 
Q 2694 -91 1894 -91 
Q 1572 -91 1234 -12 
Q 897 66 544 225 
L 544 1131 
L 897 1131 
Q 925 688 1179 453 
Q 1434 219 1894 219 
Q 2388 219 2653 544 
Q 2919 869 2919 1478 
Q 2919 2084 2655 2407 
Q 2391 2731 1894 2731 
Q 1613 2731 1398 2631 
Q 1184 2531 1019 2322 
L 750 2322 
L 750 4666 
L 3219 4666 
z
" transform="scale(0.015625)"/>
       </defs>
       <use xlink:href="#DejaVuSerif-2212"/>
       <use xlink:href="#DejaVuSerif-30" transform="translate(83.789062 0)"/>
       <use xlink:href="#DejaVuSerif-2e" transform="translate(147.412109 0)"/>
       <use xlink:href="#DejaVuSerif-35" transform="translate(179.199219 0)"/>
      </g>
     </g>
    </g>
    <g id="ytick_2">
     <g id="line2d_8">
      <path d="M 54.096563 90.051135 
L 840.837813 90.051135 
" clip-path="url(#pfc86dc3164)" style="fill: none; stroke: #cccccc; stroke-width: 0.8; stroke-linecap: round"/>
     </g>
     <g id="text_2">
      <!-- 0.0 -->
      <g style="fill: #262626" transform="translate(31.193438 93.850354) scale(0.1 -0.1)">
       <use xlink:href="#DejaVuSerif-30"/>
       <use xlink:href="#DejaVuSerif-2e" transform="translate(63.623047 0)"/>
       <use xlink:href="#DejaVuSerif-30" transform="translate(95.410156 0)"/>
      </g>
     </g>
    </g>
    <g id="ytick_3">
     <g id="line2d_9">
      <path d="M 54.096563 50.732858 
L 840.837813 50.732858 
" clip-path="url(#pfc86dc3164)" style="fill: none; stroke: #cccccc; stroke-width: 0.8; stroke-linecap: round"/>
     </g>
     <g id="text_3">
      <!-- 0.5 -->
      <g style="fill: #262626" transform="translate(31.193438 54.532077) scale(0.1 -0.1)">
       <use xlink:href="#DejaVuSerif-30"/>
       <use xlink:href="#DejaVuSerif-2e" transform="translate(63.623047 0)"/>
       <use xlink:href="#DejaVuSerif-35" transform="translate(95.410156 0)"/>
      </g>
     </g>
    </g>
    <g id="text_4">
     <!-- $x0$ -->
     <g style="fill: #262626" transform="translate(16.318125 96.970625) rotate(-90) scale(0.12 -0.12)">
      <defs>
       <path id="DejaVuSans-Oblique-78" d="M 3841 3500 
L 2234 1784 
L 3219 0 
L 2559 0 
L 1819 1388 
L 531 0 
L -166 0 
L 1556 1844 
L 641 3500 
L 1300 3500 
L 1972 2234 
L 3144 3500 
L 3841 3500 
z
" transform="scale(0.015625)"/>
       <path id="DejaVuSans-30" d="M 2034 4250 
Q 1547 4250 1301 3770 
Q 1056 3291 1056 2328 
Q 1056 1369 1301 889 
Q 1547 409 2034 409 
Q 2525 409 2770 889 
Q 3016 1369 3016 2328 
Q 3016 3291 2770 3770 
Q 2525 4250 2034 4250 
z
M 2034 4750 
Q 2819 4750 3233 4129 
Q 3647 3509 3647 2328 
Q 3647 1150 3233 529 
Q 2819 -91 2034 -91 
Q 1250 -91 836 529 
Q 422 1150 422 2328 
Q 422 3509 836 4129 
Q 1250 4750 2034 4750 
z
" transform="scale(0.015625)"/>
      </defs>
      <use xlink:href="#DejaVuSans-Oblique-78" transform="translate(0 0.78125)"/>
      <use xlink:href="#DejaVuSans-30" transform="translate(59.179688 0.78125)"/>
     </g>
    </g>
   </g>
   <g id="line2d_10">
    <path d="M 89.857528 50.732858 
L 94.157444 49.657315 
L 98.45736 48.793339 
L 102.757276 48.138531 
L 107.057191 47.689609 
L 111.357107 47.442303 
L 115.657023 47.391702 
L 119.956939 47.532288 
L 124.256854 47.857935 
L 128.55677 48.361914 
L 134.289991 49.298517 
L 140.023212 50.519964 
L 145.756433 52.005265 
L 151.489654 53.731513 
L 157.222875 55.674175 
L 164.389401 58.373909 
L 171.555927 61.329596 
L 180.155759 65.143503 
L 190.188896 69.854799 
L 208.821864 78.930773 
L 223.154916 85.797524 
L 233.188053 90.352902 
L 241.787885 94.006714 
L 248.954411 96.835581 
L 256.120937 99.442116 
L 263.287463 101.806779 
L 270.45399 103.914296 
L 277.620516 105.750739 
L 284.787042 107.305685 
L 290.520263 108.342703 
L 296.253484 109.194322 
L 301.986705 109.860992 
L 307.719926 110.344856 
L 314.886452 110.698615 
L 322.052978 110.783963 
L 329.219505 110.612224 
L 336.386031 110.197546 
L 343.552557 109.557062 
L 350.719083 108.70937 
L 359.318915 107.446972 
L 367.918746 105.9526 
L 377.951883 103.970146 
L 389.418325 101.468902 
L 406.617988 97.447836 
L 430.984177 91.749744 
L 443.883924 88.962123 
L 455.350366 86.715903 
L 465.383503 84.975602 
L 475.41664 83.475714 
L 484.016471 82.396359 
L 492.616303 81.514782 
L 501.216134 80.832806 
L 509.815966 80.350667 
L 518.415797 80.066376 
L 528.448934 79.976261 
L 538.482071 80.131787 
L 548.515207 80.512434 
L 559.981649 81.190531 
L 571.448091 82.089344 
L 585.781144 83.454092 
L 604.414112 85.489092 
L 648.846575 90.457037 
L 664.612932 91.940521 
L 678.945985 93.06389 
L 691.845732 93.86099 
L 704.745479 94.440442 
L 717.645227 94.799605 
L 730.544974 94.944898 
L 744.878026 94.8702 
L 759.211079 94.572817 
L 774.977436 94.030746 
L 795.04371 93.102341 
L 805.076847 92.571969 
L 805.076847 92.571969 
" clip-path="url(#pfc86dc3164)" style="fill: none; stroke: #000000; stroke-opacity: 0.4; stroke-width: 6; stroke-linecap: round"/>
   </g>
   <g id="line2d_11">
    <path d="M 89.857528 50.732858 
L 94.157444 49.638321 
L 98.45736 48.721633 
L 102.757276 47.9865 
L 107.057191 47.435133 
L 111.357107 47.070633 
L 115.657023 46.895302 
L 119.956939 46.910434 
L 124.256854 47.11632 
L 128.55677 47.512239 
L 132.856686 48.096468 
L 137.156602 48.866275 
L 141.456517 49.817922 
L 145.756433 50.946664 
L 151.489654 52.717049 
L 157.222875 54.779063 
L 162.956096 57.16172 
L 170.122622 60.20061 
L 174.422538 61.754642 
L 177.289148 62.557914 
L 180.155759 63.099892 
L 183.022369 63.35099 
L 184.455675 64.053476 
L 185.88898 65.270431 
L 188.75559 67.942866 
L 190.188896 68.978525 
L 191.622201 69.689008 
L 193.055506 70.097023 
L 195.922117 70.56171 
L 197.355422 71.657702 
L 198.788727 72.460788 
L 200.222032 73.472469 
L 201.655338 74.172169 
L 204.521948 76.452523 
L 205.955253 77.242153 
L 207.388559 78.194614 
L 210.255169 80.457301 
L 213.12178 82.050019 
L 215.98839 84.454331 
L 217.421695 85.048736 
L 218.855001 86.550205 
L 220.288306 87.112256 
L 221.721611 87.922549 
L 224.588222 91.446945 
L 226.021527 92.790899 
L 227.454832 93.163105 
L 228.888137 94.504028 
L 230.321443 95.263112 
L 231.754748 96.574586 
L 233.188053 97.311691 
L 234.621358 98.287929 
L 237.487969 100.522181 
L 240.354579 102.200808 
L 243.22119 104.360176 
L 244.654495 105.089006 
L 246.0878 105.954402 
L 247.521106 107.212024 
L 248.954411 107.690468 
L 250.387716 109.098835 
L 251.821021 109.566632 
L 253.254327 110.844438 
L 254.687632 111.939926 
L 256.120937 112.018797 
L 257.554242 112.905447 
L 260.420853 115.760393 
L 261.854158 116.50104 
L 263.287463 116.728885 
L 266.154074 116.818075 
L 267.587379 116.969955 
L 270.45399 117.617227 
L 273.3206 118.598279 
L 277.620516 120.391272 
L 287.653652 124.633405 
L 293.386873 126.787129 
L 299.120094 128.645376 
L 304.853315 130.194195 
L 309.153231 131.1544 
L 313.453147 131.934034 
L 317.753063 132.52933 
L 322.052978 132.937445 
L 326.352894 133.156456 
L 330.65281 133.185365 
L 334.952726 133.024092 
L 339.252641 132.673482 
L 343.552557 132.135301 
L 347.852473 131.412238 
L 352.152389 130.505465 
L 356.452304 129.418096 
L 362.185525 127.70852 
L 367.918746 125.712068 
L 373.651967 123.418314 
L 379.385188 120.813804 
L 382.251799 119.38973 
L 385.118409 117.70463 
L 387.98502 115.644746 
L 390.85163 113.172904 
L 393.718241 110.328512 
L 399.451462 104.13017 
L 400.884767 102.961732 
L 402.318072 102.199996 
L 403.751377 101.847791 
L 405.184683 101.818188 
L 406.617988 101.934502 
L 408.051293 101.930291 
L 409.484598 101.475209 
L 410.917904 100.470319 
L 412.351209 98.991407 
L 415.217819 95.753315 
L 416.651125 94.480502 
L 418.08443 93.502609 
L 419.517735 92.77357 
L 420.95104 92.224464 
L 422.384346 91.850629 
L 425.250956 91.461141 
L 429.550872 91.036035 
L 436.717398 90.440689 
L 449.617145 89.149622 
L 455.350366 88.599857 
L 458.216977 88.065245 
L 459.650282 87.641892 
L 461.083587 87.067996 
L 462.516893 86.279337 
L 463.950198 85.190357 
L 465.383503 83.798461 
L 468.250114 80.552485 
L 469.683419 79.214929 
L 471.116724 78.378123 
L 472.550029 78.028126 
L 475.41664 77.792057 
L 476.849945 77.423718 
L 478.28325 76.739238 
L 479.716556 75.71645 
L 481.149861 74.403214 
L 485.449777 69.770787 
L 488.316387 66.837349 
L 491.182998 64.379646 
L 494.049608 62.407717 
L 496.916219 60.716361 
L 501.216134 58.51262 
L 505.51605 56.581604 
L 511.249271 54.279521 
L 516.982492 52.259699 
L 522.715713 50.539832 
L 527.015629 49.452343 
L 531.315544 48.543768 
L 535.61546 47.818065 
L 539.915376 47.278351 
L 544.215292 46.926896 
L 548.515207 46.765126 
L 552.815123 46.793623 
L 557.115039 47.012246 
L 561.414955 47.420248 
L 565.71487 48.015995 
L 570.014786 48.796938 
L 574.314702 49.759612 
L 578.614618 50.899632 
L 584.347839 52.686239 
L 590.08106 54.729353 
L 594.380975 56.434966 
L 601.547502 59.600362 
L 605.847417 61.407434 
L 608.714028 62.369525 
L 611.580638 62.97355 
L 614.447249 63.139985 
L 615.880554 63.201498 
L 617.313859 63.514015 
L 618.747164 64.420247 
L 621.613775 67.323387 
L 623.04708 67.861087 
L 624.480385 68.250118 
L 625.913691 69.689115 
L 627.346996 70.55123 
L 628.780301 71.254621 
L 630.213606 72.487407 
L 631.646912 73.30554 
L 633.080217 74.281221 
L 634.513522 75.644406 
L 637.380133 77.425843 
L 640.246743 79.664861 
L 641.680048 80.441697 
L 643.113354 81.350424 
L 644.546659 82.618805 
L 647.413269 84.43355 
L 648.846575 85.669037 
L 650.27988 86.523176 
L 651.713185 87.239373 
L 656.013101 92.366532 
L 657.446406 93.501431 
L 658.879711 93.966912 
L 660.313017 95.494387 
L 661.746322 96.071684 
L 663.179627 97.29737 
L 664.612932 98.369989 
L 666.046238 99.106386 
L 670.346153 102.287609 
L 671.779459 102.980131 
L 674.646069 105.115301 
L 676.079374 105.681867 
L 677.51268 107.021124 
L 678.945985 107.597659 
L 680.37929 109.034095 
L 681.812595 109.298651 
L 683.245901 110.730346 
L 684.679206 111.630294 
L 686.112511 111.821387 
L 687.545816 112.785146 
L 688.979122 114.37892 
L 690.412427 115.694433 
L 691.845732 116.37472 
L 693.279037 116.560846 
L 697.578953 116.805007 
L 699.012258 117.079151 
L 701.878869 117.933742 
L 704.745479 119.034105 
L 720.511837 125.616217 
L 726.245058 127.617224 
L 731.978279 129.326984 
L 736.278195 130.406702 
L 740.57811 131.307769 
L 744.878026 132.028283 
L 749.177942 132.564965 
L 753.477858 132.915051 
L 757.777773 133.076704 
L 762.077689 133.048952 
L 766.377605 132.831695 
L 770.677521 132.425695 
L 774.977436 131.832586 
L 779.277352 131.054865 
L 783.577268 130.0959 
L 787.877184 128.959925 
L 793.610405 127.178884 
L 799.343626 125.106783 
L 805.076847 122.747336 
L 805.076847 122.747336 
" clip-path="url(#pfc86dc3164)" style="fill: none; stroke-dasharray: 22.4,5.6,3.5,5.6; stroke-dashoffset: 0; stroke: #0000ff; stroke-opacity: 0.8; stroke-width: 3.5"/>
   </g>
   <g id="patch_3">
    <path d="M 54.096563 137.5575 
L 54.096563 41.62375 
" style="fill: none; stroke: #cccccc; stroke-width: 0.8; stroke-linejoin: miter; stroke-linecap: square"/>
   </g>
   <g id="patch_4">
    <path d="M 840.837813 137.5575 
L 840.837813 41.62375 
" style="fill: none; stroke: #cccccc; stroke-width: 0.8; stroke-linejoin: miter; stroke-linecap: square"/>
   </g>
   <g id="patch_5">
    <path d="M 54.096563 137.5575 
L 840.837813 137.5575 
" style="fill: none; stroke: #cccccc; stroke-width: 0.8; stroke-linejoin: miter; stroke-linecap: square"/>
   </g>
   <g id="patch_6">
    <path d="M 54.096563 41.62375 
L 840.837813 41.62375 
" style="fill: none; stroke: #cccccc; stroke-width: 0.8; stroke-linejoin: miter; stroke-linecap: square"/>
   </g>
   <g id="line2d_12">
    <path d="M 89.857528 50.732858 
L 94.157444 49.993322 
L 99.890665 49.268883 
L 107.057191 48.655767 
L 115.657023 48.184147 
L 127.123465 47.798777 
L 145.756433 47.429777 
L 180.155759 47.012905 
L 234.621358 46.588271 
L 303.42001 46.283984 
L 402.318072 46.090139 
L 582.914533 45.998709 
L 805.076847 45.984375 
L 805.076847 45.984375 
" clip-path="url(#pfc86dc3164)" style="fill: none; stroke-dasharray: 3.5,5.775; stroke-dashoffset: 0; stroke: #008000; stroke-opacity: 0.8; stroke-width: 3.5"/>
   </g>
   <g id="line2d_13">
    <path d="M 89.857528 50.732858 
L 94.157444 49.642587 
L 98.45736 48.744061 
L 104.190581 47.796728 
L 109.923802 47.132472 
L 115.657023 46.726691 
L 121.390244 46.550729 
L 127.123465 46.608325 
L 132.856686 46.885762 
L 138.589907 47.363675 
L 144.323128 48.029733 
L 150.056349 48.883487 
L 155.78957 49.93826 
L 161.522791 51.185386 
L 168.689317 53.015229 
L 174.422538 54.704533 
L 180.155759 56.595327 
L 187.322285 59.20873 
L 194.488811 62.084541 
L 203.088643 65.815768 
L 211.688474 69.769585 
L 227.454832 77.287508 
L 238.921274 82.761403 
L 251.821021 88.686472 
L 261.854158 93.006062 
L 270.45399 96.471155 
L 277.620516 99.102009 
L 284.787042 101.465091 
L 290.520263 103.155156 
L 297.686789 105.005971 
L 304.853315 106.603664 
L 312.019842 107.954291 
L 319.186368 109.010419 
L 324.919589 109.660172 
L 332.086115 110.208597 
L 337.819336 110.427885 
L 344.985862 110.448048 
L 352.152389 110.200196 
L 359.318915 109.69775 
L 367.918746 108.846487 
L 375.085273 107.944007 
L 382.251799 106.818415 
L 389.418325 105.478733 
L 399.451462 103.366735 
L 410.917904 100.760419 
L 429.550872 96.190259 
L 446.750535 92.075007 
L 459.650282 89.210946 
L 468.250114 87.485145 
L 479.716556 85.433285 
L 489.749692 83.885603 
L 499.782829 82.590027 
L 511.249271 81.379552 
L 519.849102 80.693182 
L 531.315544 80.02899 
L 539.915376 79.735318 
L 548.515207 79.639498 
L 558.548344 79.766432 
L 568.581481 80.129139 
L 581.481228 80.841179 
L 600.114196 82.098955 
L 631.646912 84.711169 
L 709.045395 90.98826 
L 752.044552 94.309027 
L 762.077689 94.850181 
L 773.544131 95.247602 
L 786.443878 95.456955 
L 799.343626 95.430847 
L 805.076847 95.349123 
L 805.076847 95.349123 
" clip-path="url(#pfc86dc3164)" style="fill: none; stroke-dasharray: 12.95,5.6; stroke-dashoffset: 0; stroke: #ff0000; stroke-opacity: 0.8; stroke-width: 3.5"/>
   </g>
  </g>
  <g id="axes_2">
   <g id="patch_7">
    <path d="M 54.096563 245.37125 
L 840.837813 245.37125 
L 840.837813 149.4375 
L 54.096563 149.4375 
z
" style="fill: #ffffff"/>
   </g>
   <g id="matplotlib.axis_3">
    <g id="xtick_7">
     <g id="line2d_14">
      <path d="M 89.857528 245.37125 
L 89.857528 149.4375 
" clip-path="url(#p7562dc3a26)" style="fill: none; stroke: #cccccc; stroke-width: 0.8; stroke-linecap: round"/>
     </g>
     <g id="text_5">
      <!-- 0 -->
      <g style="fill: #262626" transform="translate(86.676278 259.969687) scale(0.1 -0.1)">
       <use xlink:href="#DejaVuSerif-30"/>
      </g>
     </g>
    </g>
    <g id="xtick_8">
     <g id="line2d_15">
      <path d="M 232.901392 245.37125 
L 232.901392 149.4375 
" clip-path="url(#p7562dc3a26)" style="fill: none; stroke: #cccccc; stroke-width: 0.8; stroke-linecap: round"/>
     </g>
     <g id="text_6">
      <!-- 1 -->
      <g style="fill: #262626" transform="translate(229.720142 259.969687) scale(0.1 -0.1)">
       <defs>
        <path id="DejaVuSerif-31" d="M 909 0 
L 909 331 
L 1722 331 
L 1722 4213 
L 781 3603 
L 781 4013 
L 1919 4750 
L 2350 4750 
L 2350 331 
L 3163 331 
L 3163 0 
L 909 0 
z
" transform="scale(0.015625)"/>
       </defs>
       <use xlink:href="#DejaVuSerif-31"/>
      </g>
     </g>
    </g>
    <g id="xtick_9">
     <g id="line2d_16">
      <path d="M 375.945256 245.37125 
L 375.945256 149.4375 
" clip-path="url(#p7562dc3a26)" style="fill: none; stroke: #cccccc; stroke-width: 0.8; stroke-linecap: round"/>
     </g>
     <g id="text_7">
      <!-- 2 -->
      <g style="fill: #262626" transform="translate(372.764006 259.969687) scale(0.1 -0.1)">
       <defs>
        <path id="DejaVuSerif-32" d="M 819 3553 
L 469 3553 
L 469 4384 
Q 803 4563 1142 4656 
Q 1481 4750 1806 4750 
Q 2534 4750 2956 4397 
Q 3378 4044 3378 3438 
Q 3378 2753 2422 1800 
Q 2347 1728 2309 1691 
L 1131 513 
L 3078 513 
L 3078 1088 
L 3444 1088 
L 3444 0 
L 434 0 
L 434 341 
L 1850 1753 
Q 2319 2222 2519 2614 
Q 2719 3006 2719 3438 
Q 2719 3909 2473 4175 
Q 2228 4441 1797 4441 
Q 1350 4441 1106 4219 
Q 863 3997 819 3553 
z
" transform="scale(0.015625)"/>
       </defs>
       <use xlink:href="#DejaVuSerif-32"/>
      </g>
     </g>
    </g>
    <g id="xtick_10">
     <g id="line2d_17">
      <path d="M 518.989119 245.37125 
L 518.989119 149.4375 
" clip-path="url(#p7562dc3a26)" style="fill: none; stroke: #cccccc; stroke-width: 0.8; stroke-linecap: round"/>
     </g>
     <g id="text_8">
      <!-- 3 -->
      <g style="fill: #262626" transform="translate(515.807869 259.969687) scale(0.1 -0.1)">
       <defs>
        <path id="DejaVuSerif-33" d="M 622 4469 
Q 988 4606 1323 4678 
Q 1659 4750 1953 4750 
Q 2638 4750 3022 4454 
Q 3406 4159 3406 3634 
Q 3406 3213 3140 2930 
Q 2875 2647 2388 2547 
Q 2963 2466 3280 2130 
Q 3597 1794 3597 1259 
Q 3597 606 3158 257 
Q 2719 -91 1894 -91 
Q 1528 -91 1179 -12 
Q 831 66 488 225 
L 488 1131 
L 838 1131 
Q 869 681 1141 450 
Q 1413 219 1906 219 
Q 2384 219 2661 495 
Q 2938 772 2938 1253 
Q 2938 1803 2653 2086 
Q 2369 2369 1819 2369 
L 1522 2369 
L 1522 2688 
L 1678 2688 
Q 2225 2688 2498 2914 
Q 2772 3141 2772 3597 
Q 2772 4006 2547 4223 
Q 2322 4441 1900 4441 
Q 1478 4441 1245 4241 
Q 1013 4041 972 3647 
L 622 3647 
L 622 4469 
z
" transform="scale(0.015625)"/>
       </defs>
       <use xlink:href="#DejaVuSerif-33"/>
      </g>
     </g>
    </g>
    <g id="xtick_11">
     <g id="line2d_18">
      <path d="M 662.032983 245.37125 
L 662.032983 149.4375 
" clip-path="url(#p7562dc3a26)" style="fill: none; stroke: #cccccc; stroke-width: 0.8; stroke-linecap: round"/>
     </g>
     <g id="text_9">
      <!-- 4 -->
      <g style="fill: #262626" transform="translate(658.851733 259.969687) scale(0.1 -0.1)">
       <defs>
        <path id="DejaVuSerif-34" d="M 2234 1581 
L 2234 4063 
L 641 1581 
L 2234 1581 
z
M 3609 0 
L 1484 0 
L 1484 331 
L 2234 331 
L 2234 1247 
L 197 1247 
L 197 1588 
L 2241 4750 
L 2859 4750 
L 2859 1581 
L 3750 1581 
L 3750 1247 
L 2859 1247 
L 2859 331 
L 3609 331 
L 3609 0 
z
" transform="scale(0.015625)"/>
       </defs>
       <use xlink:href="#DejaVuSerif-34"/>
      </g>
     </g>
    </g>
    <g id="xtick_12">
     <g id="line2d_19">
      <path d="M 805.076847 245.37125 
L 805.076847 149.4375 
" clip-path="url(#p7562dc3a26)" style="fill: none; stroke: #cccccc; stroke-width: 0.8; stroke-linecap: round"/>
     </g>
     <g id="text_10">
      <!-- 5 -->
      <g style="fill: #262626" transform="translate(801.895597 259.969687) scale(0.1 -0.1)">
       <use xlink:href="#DejaVuSerif-35"/>
      </g>
     </g>
    </g>
    <g id="text_11">
     <!-- Time -->
     <g style="fill: #262626" transform="translate(432.305 275.1675) scale(0.12 -0.12)">
      <defs>
       <path id="DejaVuSerif-54" d="M 1222 0 
L 1222 331 
L 1819 331 
L 1819 4294 
L 447 4294 
L 447 3566 
L 63 3566 
L 63 4666 
L 4206 4666 
L 4206 3566 
L 3822 3566 
L 3822 4294 
L 2450 4294 
L 2450 331 
L 3047 331 
L 3047 0 
L 1222 0 
z
" transform="scale(0.015625)"/>
       <path id="DejaVuSerif-69" d="M 622 4353 
Q 622 4497 726 4603 
Q 831 4709 978 4709 
Q 1122 4709 1226 4603 
Q 1331 4497 1331 4353 
Q 1331 4206 1228 4103 
Q 1125 4000 978 4000 
Q 831 4000 726 4103 
Q 622 4206 622 4353 
z
M 1356 331 
L 1900 331 
L 1900 0 
L 231 0 
L 231 331 
L 781 331 
L 781 2988 
L 231 2988 
L 231 3322 
L 1356 3322 
L 1356 331 
z
" transform="scale(0.015625)"/>
       <path id="DejaVuSerif-6d" d="M 3316 2675 
Q 3481 3041 3739 3227 
Q 3997 3413 4341 3413 
Q 4863 3413 5119 3089 
Q 5375 2766 5375 2113 
L 5375 331 
L 5894 331 
L 5894 0 
L 4300 0 
L 4300 331 
L 4800 331 
L 4800 2047 
Q 4800 2556 4650 2772 
Q 4500 2988 4153 2988 
Q 3769 2988 3567 2697 
Q 3366 2406 3366 1850 
L 3366 331 
L 3866 331 
L 3866 0 
L 2291 0 
L 2291 331 
L 2791 331 
L 2791 2069 
Q 2791 2566 2641 2777 
Q 2491 2988 2144 2988 
Q 1759 2988 1557 2697 
Q 1356 2406 1356 1850 
L 1356 331 
L 1856 331 
L 1856 0 
L 263 0 
L 263 331 
L 781 331 
L 781 2994 
L 231 2994 
L 231 3322 
L 1356 3322 
L 1356 2731 
Q 1516 3063 1762 3238 
Q 2009 3413 2322 3413 
Q 2709 3413 2968 3220 
Q 3228 3028 3316 2675 
z
" transform="scale(0.015625)"/>
       <path id="DejaVuSerif-65" d="M 3469 1600 
L 991 1600 
L 991 1575 
Q 991 903 1244 561 
Q 1497 219 1991 219 
Q 2369 219 2611 417 
Q 2853 616 2950 1006 
L 3413 1006 
Q 3275 459 2904 184 
Q 2534 -91 1931 -91 
Q 1203 -91 761 389 
Q 319 869 319 1663 
Q 319 2450 753 2931 
Q 1188 3413 1894 3413 
Q 2647 3413 3050 2948 
Q 3453 2484 3469 1600 
z
M 2791 1931 
Q 2772 2513 2545 2808 
Q 2319 3103 1894 3103 
Q 1497 3103 1269 2806 
Q 1041 2509 991 1931 
L 2791 1931 
z
" transform="scale(0.015625)"/>
      </defs>
      <use xlink:href="#DejaVuSerif-54"/>
      <use xlink:href="#DejaVuSerif-69" transform="translate(66.699219 0)"/>
      <use xlink:href="#DejaVuSerif-6d" transform="translate(98.681641 0)"/>
      <use xlink:href="#DejaVuSerif-65" transform="translate(193.505859 0)"/>
     </g>
    </g>
   </g>
   <g id="matplotlib.axis_4">
    <g id="ytick_4">
     <g id="line2d_20">
      <path d="M 54.096563 230.902697 
L 840.837813 230.902697 
" clip-path="url(#p7562dc3a26)" style="fill: none; stroke: #cccccc; stroke-width: 0.8; stroke-linecap: round"/>
     </g>
     <g id="text_12">
      <!-- −1 -->
      <g style="fill: #262626" transform="translate(32.354375 234.701916) scale(0.1 -0.1)">
       <use xlink:href="#DejaVuSerif-2212"/>
       <use xlink:href="#DejaVuSerif-31" transform="translate(83.789062 0)"/>
      </g>
     </g>
    </g>
    <g id="ytick_5">
     <g id="line2d_21">
      <path d="M 54.096563 194.947405 
L 840.837813 194.947405 
" clip-path="url(#p7562dc3a26)" style="fill: none; stroke: #cccccc; stroke-width: 0.8; stroke-linecap: round"/>
     </g>
     <g id="text_13">
      <!-- 0 -->
      <g style="fill: #262626" transform="translate(40.734063 198.746624) scale(0.1 -0.1)">
       <use xlink:href="#DejaVuSerif-30"/>
      </g>
     </g>
    </g>
    <g id="ytick_6">
     <g id="line2d_22">
      <path d="M 54.096563 158.992112 
L 840.837813 158.992112 
" clip-path="url(#p7562dc3a26)" style="fill: none; stroke: #cccccc; stroke-width: 0.8; stroke-linecap: round"/>
     </g>
     <g id="text_14">
      <!-- 1 -->
      <g style="fill: #262626" transform="translate(40.734063 162.791331) scale(0.1 -0.1)">
       <use xlink:href="#DejaVuSerif-31"/>
      </g>
     </g>
    </g>
    <g id="text_15">
     <!-- $x1$ -->
     <g style="fill: #262626" transform="translate(25.85875 204.784375) rotate(-90) scale(0.12 -0.12)">
      <defs>
       <path id="DejaVuSans-31" d="M 794 531 
L 1825 531 
L 1825 4091 
L 703 3866 
L 703 4441 
L 1819 4666 
L 2450 4666 
L 2450 531 
L 3481 531 
L 3481 0 
L 794 0 
L 794 531 
z
" transform="scale(0.015625)"/>
      </defs>
      <use xlink:href="#DejaVuSans-Oblique-78" transform="translate(0 0.09375)"/>
      <use xlink:href="#DejaVuSans-31" transform="translate(59.179688 0.09375)"/>
     </g>
    </g>
   </g>
   <g id="line2d_23">
    <path d="M 89.857528 176.969759 
L 102.757276 186.562407 
L 111.357107 192.703101 
L 118.523633 197.580884 
L 125.69016 202.185966 
L 131.423381 205.643931 
L 137.156602 208.879998 
L 142.889823 211.878032 
L 148.623044 214.624882 
L 154.356265 217.110388 
L 160.089486 219.326416 
L 165.822706 221.264797 
L 171.555927 222.920356 
L 177.289148 224.290431 
L 183.022369 225.374826 
L 188.75559 226.175814 
L 194.488811 226.698134 
L 200.222032 226.948991 
L 205.955253 226.938058 
L 211.688474 226.677477 
L 217.421695 226.17884 
L 223.154916 225.453734 
L 228.888137 224.517315 
L 234.621358 223.385382 
L 241.787885 221.720621 
L 248.954411 219.809595 
L 256.120937 217.687357 
L 264.720769 214.913528 
L 274.753905 211.444361 
L 290.520263 205.713768 
L 310.586536 198.445509 
L 322.052978 194.538902 
L 332.086115 191.370825 
L 340.685947 188.891022 
L 349.285778 186.663762 
L 356.452304 185.019002 
L 363.618831 183.577708 
L 370.785357 182.34667 
L 377.951883 181.328979 
L 385.118409 180.52524 
L 392.284935 179.936388 
L 399.451462 179.559643 
L 406.617988 179.389801 
L 413.784514 179.419357 
L 422.384346 179.704049 
L 430.984177 180.240282 
L 439.584009 181.001938 
L 449.617145 182.139769 
L 459.650282 183.504552 
L 471.116724 185.279334 
L 486.883082 187.966818 
L 527.015629 194.951144 
L 539.915376 196.922798 
L 551.381818 198.469643 
L 562.84826 199.790417 
L 572.881397 200.741247 
L 582.914533 201.489689 
L 592.94767 202.031396 
L 602.980807 202.368147 
L 614.447249 202.511261 
L 625.913691 202.41069 
L 637.380133 202.088056 
L 650.27988 201.492879 
L 664.612932 200.596284 
L 681.812595 199.284378 
L 711.912006 196.711336 
L 737.7115 194.598465 
L 754.911163 193.399057 
L 770.677521 192.511801 
L 786.443878 191.855509 
L 800.776931 191.47141 
L 805.076847 191.395876 
L 805.076847 191.395876 
" clip-path="url(#p7562dc3a26)" style="fill: none; stroke: #000000; stroke-opacity: 0.4; stroke-width: 6; stroke-linecap: round"/>
   </g>
   <g id="line2d_24">
    <path d="M 89.857528 176.969759 
L 98.45736 182.377971 
L 108.490497 188.961395 
L 138.589907 208.92511 
L 147.189738 214.262185 
L 154.356265 218.454332 
L 161.522791 222.360176 
L 167.256012 225.243591 
L 172.989233 227.907651 
L 180.155759 230.998107 
L 187.322285 233.885102 
L 191.622201 235.355876 
L 198.788727 237.493336 
L 203.088643 238.576895 
L 207.388559 239.464803 
L 211.688474 240.151897 
L 215.98839 240.640584 
L 220.288306 240.9229 
L 224.588222 240.999453 
L 228.888137 240.80372 
L 233.188053 240.410862 
L 237.487969 239.818948 
L 241.787885 239.02605 
L 246.0878 238.045959 
L 250.387716 236.881707 
L 254.687632 235.524915 
L 260.420853 233.450875 
L 270.45399 229.267643 
L 277.620516 226.045779 
L 283.353737 223.225749 
L 289.086958 220.191296 
L 296.253484 216.122775 
L 303.42001 211.79304 
L 312.019842 206.331978 
L 323.486284 198.756703 
L 347.852473 182.564152 
L 356.452304 177.150257 
L 363.618831 172.873503 
L 370.785357 168.866342 
L 376.518578 165.889505 
L 382.251799 163.1424 
L 386.551715 161.26589 
L 390.85163 159.59639 
L 395.151546 158.186955 
L 399.451462 157.095163 
L 405.184683 155.972476 
L 412.351209 154.729738 
L 416.651125 154.291562 
L 422.384346 154.037368 
L 433.850788 153.832385 
L 445.31723 153.819251 
L 458.216977 154.045754 
L 463.950198 154.325184 
L 468.250114 154.800718 
L 473.983335 155.814666 
L 479.716556 156.961171 
L 484.016471 158.061373 
L 488.316387 159.466583 
L 492.616303 161.14371 
L 498.349524 163.688223 
L 504.082745 166.502858 
L 509.815966 169.544166 
L 516.982492 173.621867 
L 524.149018 177.961412 
L 532.74885 183.437613 
L 544.215292 191.036765 
L 568.581481 207.291057 
L 577.181312 212.72831 
L 584.347839 217.024566 
L 591.514365 221.054932 
L 597.247586 224.049023 
L 602.980807 226.819388 
L 610.147333 230.003464 
L 620.18047 234.151777 
L 625.913691 236.13767 
L 631.646912 237.798826 
L 635.946827 238.81266 
L 640.246743 239.617354 
L 644.546659 240.221637 
L 648.846575 240.628271 
L 653.14649 240.830651 
L 657.446406 240.737271 
L 661.746322 240.424827 
L 666.046238 239.910374 
L 670.346153 239.195566 
L 674.646069 238.290706 
L 678.945985 237.198432 
L 683.245901 235.917855 
L 688.979122 233.940643 
L 694.712343 231.618683 
L 703.312174 227.977226 
L 709.045395 225.335217 
L 714.778616 222.470728 
L 720.511837 219.394562 
L 727.678363 215.284446 
L 734.844889 210.925528 
L 743.444721 205.441566 
L 756.344468 196.898464 
L 776.410742 183.58551 
L 785.010573 178.139019 
L 792.177099 173.82129 
L 799.343626 169.762151 
L 805.076847 166.735432 
L 805.076847 166.735432 
" clip-path="url(#p7562dc3a26)" style="fill: none; stroke-dasharray: 22.4,5.6,3.5,5.6; stroke-dashoffset: 0; stroke: #0000ff; stroke-opacity: 0.8; stroke-width: 3.5"/>
   </g>
   <g id="patch_8">
    <path d="M 54.096563 245.37125 
L 54.096563 149.4375 
" style="fill: none; stroke: #cccccc; stroke-width: 0.8; stroke-linejoin: miter; stroke-linecap: square"/>
   </g>
   <g id="patch_9">
    <path d="M 840.837813 245.37125 
L 840.837813 149.4375 
" style="fill: none; stroke: #cccccc; stroke-width: 0.8; stroke-linejoin: miter; stroke-linecap: square"/>
   </g>
   <g id="patch_10">
    <path d="M 54.096563 245.37125 
L 840.837813 245.37125 
" style="fill: none; stroke: #cccccc; stroke-width: 0.8; stroke-linejoin: miter; stroke-linecap: square"/>
   </g>
   <g id="patch_11">
    <path d="M 54.096563 149.4375 
L 840.837813 149.4375 
" style="fill: none; stroke: #cccccc; stroke-width: 0.8; stroke-linejoin: miter; stroke-linecap: square"/>
   </g>
   <g id="line2d_25">
    <path d="M 89.857528 176.969759 
L 92.724139 179.620888 
L 95.590749 181.912546 
L 98.45736 183.872833 
L 101.32397 185.536826 
L 104.190581 186.938016 
L 107.057191 188.109663 
L 109.923802 189.085015 
L 114.223718 190.249539 
L 118.523633 191.126194 
L 122.823549 191.780767 
L 128.55677 192.409471 
L 135.723296 192.92506 
L 144.323128 193.305063 
L 157.222875 193.624332 
L 178.722454 193.903162 
L 228.888137 194.278798 
L 301.986705 194.613745 
L 399.451462 194.823513 
L 565.71487 194.925799 
L 805.076847 194.945726 
L 805.076847 194.945726 
" clip-path="url(#p7562dc3a26)" style="fill: none; stroke-dasharray: 3.5,5.775; stroke-dashoffset: 0; stroke: #008000; stroke-opacity: 0.8; stroke-width: 3.5"/>
   </g>
   <g id="line2d_26">
    <path d="M 89.857528 176.969759 
L 91.290834 177.828379 
L 95.590749 180.847624 
L 97.024055 181.777014 
L 111.357107 189.674486 
L 114.223718 190.970911 
L 118.523633 192.942906 
L 127.123465 196.901417 
L 129.990075 198.14424 
L 151.489654 206.426532 
L 152.922959 207.035418 
L 154.356265 207.484788 
L 157.222875 208.654195 
L 158.65618 209.067687 
L 162.956096 210.868286 
L 164.389401 211.292524 
L 167.256012 212.451021 
L 172.989233 214.771442 
L 180.155759 217.517102 
L 183.022369 218.481439 
L 187.322285 220.119113 
L 198.788727 223.363156 
L 201.655338 223.745368 
L 204.521948 224.409847 
L 207.388559 225.211765 
L 208.821864 225.421381 
L 221.721611 226.230823 
L 226.021527 226.738054 
L 228.888137 226.748535 
L 230.321443 226.647408 
L 233.188053 226.119708 
L 234.621358 225.809955 
L 237.487969 225.573449 
L 241.787885 225.362761 
L 247.521106 224.828326 
L 250.387716 224.303942 
L 254.687632 223.411516 
L 260.420853 222.537067 
L 263.287463 221.992268 
L 266.154074 221.316137 
L 269.020684 220.488968 
L 271.887295 219.718935 
L 273.3206 219.2944 
L 276.187211 218.124101 
L 283.353737 215.761005 
L 284.787042 215.336227 
L 291.953568 212.541808 
L 309.153231 207.098641 
L 313.453147 205.259573 
L 319.186368 203.401769 
L 323.486284 201.852926 
L 324.919589 201.200354 
L 332.086115 198.544902 
L 336.386031 196.913216 
L 346.419168 193.408044 
L 356.452304 190.13747 
L 360.75222 189.061052 
L 373.651967 186.17107 
L 385.118409 182.86715 
L 389.418325 181.907357 
L 393.718241 181.220218 
L 398.018156 180.823453 
L 408.051293 179.846338 
L 410.917904 179.377409 
L 416.651125 178.967495 
L 418.08443 178.936242 
L 419.517735 178.672711 
L 422.384346 178.822194 
L 423.817651 178.903576 
L 425.250956 178.761447 
L 428.117567 178.841917 
L 432.417482 179.00068 
L 435.284093 179.211833 
L 438.150703 179.275468 
L 439.584009 179.332557 
L 441.017314 179.523267 
L 442.450619 179.487712 
L 459.650282 181.025375 
L 465.383503 182.130892 
L 466.816808 182.236177 
L 468.250114 182.576476 
L 469.683419 182.741898 
L 471.116724 182.780531 
L 473.983335 183.109999 
L 479.716556 184.232056 
L 481.149861 184.436394 
L 482.583166 184.496063 
L 484.016471 184.784454 
L 486.883082 185.090734 
L 495.482913 186.652595 
L 498.349524 187.045454 
L 499.782829 187.361821 
L 504.082745 187.83432 
L 509.815966 188.59442 
L 512.682576 189.276045 
L 515.549187 189.652888 
L 518.415797 190.287066 
L 522.715713 190.798852 
L 528.448934 191.506954 
L 535.61546 192.716494 
L 554.248428 195.893976 
L 565.71487 197.619671 
L 571.448091 198.289 
L 577.181312 198.751253 
L 584.347839 199.097492 
L 597.247586 199.63765 
L 604.414112 200.37211 
L 611.580638 200.401497 
L 651.713185 200.291443 
L 701.878869 200.171123 
L 742.011416 199.953171 
L 747.744637 199.74644 
L 750.611247 199.451135 
L 763.510994 197.658096 
L 779.277352 196.074046 
L 799.343626 194.252513 
L 805.076847 193.783608 
L 805.076847 193.783608 
" clip-path="url(#p7562dc3a26)" style="fill: none; stroke-dasharray: 12.95,5.6; stroke-dashoffset: 0; stroke: #ff0000; stroke-opacity: 0.8; stroke-width: 3.5"/>
   </g>
  </g>
  <g id="text_16">
   <!-- State Variable Simulation Comparison -->
   <g style="fill: #262626" transform="translate(265.570312 20.1175) scale(0.16 -0.16)">
    <defs>
     <path id="DejaVuSerif-53" d="M 594 225 
L 594 1288 
L 953 1284 
Q 969 753 1261 498 
Q 1553 244 2150 244 
Q 2706 244 2998 464 
Q 3291 684 3291 1106 
Q 3291 1444 3114 1625 
Q 2938 1806 2369 1978 
L 1753 2163 
Q 1084 2366 811 2669 
Q 538 2972 538 3500 
Q 538 4094 959 4422 
Q 1381 4750 2144 4750 
Q 2469 4750 2856 4679 
Q 3244 4609 3681 4475 
L 3681 3481 
L 3328 3481 
Q 3275 3975 2998 4195 
Q 2722 4416 2156 4416 
Q 1663 4416 1405 4214 
Q 1147 4013 1147 3628 
Q 1147 3294 1340 3103 
Q 1534 2913 2163 2725 
L 2741 2553 
Q 3375 2363 3645 2067 
Q 3916 1772 3916 1275 
Q 3916 597 3481 253 
Q 3047 -91 2188 -91 
Q 1803 -91 1404 -12 
Q 1006 66 594 225 
z
" transform="scale(0.015625)"/>
     <path id="DejaVuSerif-74" d="M 691 2988 
L 184 2988 
L 184 3322 
L 691 3322 
L 691 4353 
L 1269 4353 
L 1269 3322 
L 2350 3322 
L 2350 2988 
L 1269 2988 
L 1269 878 
Q 1269 456 1350 337 
Q 1431 219 1650 219 
Q 1875 219 1978 351 
Q 2081 484 2088 781 
L 2522 781 
Q 2497 328 2275 118 
Q 2053 -91 1600 -91 
Q 1103 -91 897 129 
Q 691 350 691 878 
L 691 2988 
z
" transform="scale(0.015625)"/>
     <path id="DejaVuSerif-61" d="M 2547 1044 
L 2547 1747 
L 1806 1747 
Q 1378 1747 1168 1562 
Q 959 1378 959 997 
Q 959 650 1171 447 
Q 1384 244 1747 244 
Q 2106 244 2326 466 
Q 2547 688 2547 1044 
z
M 3122 2075 
L 3122 331 
L 3634 331 
L 3634 0 
L 2547 0 
L 2547 359 
Q 2356 128 2106 18 
Q 1856 -91 1522 -91 
Q 969 -91 644 203 
Q 319 497 319 997 
Q 319 1513 691 1797 
Q 1063 2081 1741 2081 
L 2547 2081 
L 2547 2309 
Q 2547 2688 2317 2895 
Q 2088 3103 1672 3103 
Q 1328 3103 1125 2947 
Q 922 2791 872 2484 
L 575 2484 
L 575 3156 
Q 875 3284 1158 3348 
Q 1441 3413 1709 3413 
Q 2400 3413 2761 3070 
Q 3122 2728 3122 2075 
z
" transform="scale(0.015625)"/>
     <path id="DejaVuSerif-20" transform="scale(0.015625)"/>
     <path id="DejaVuSerif-56" d="M 1119 4331 
L 2497 750 
L 3872 4331 
L 3347 4331 
L 3347 4666 
L 4716 4666 
L 4716 4331 
L 4263 4331 
L 2597 0 
L 2059 0 
L 403 4331 
L -63 4331 
L -63 4666 
L 1638 4666 
L 1638 4331 
L 1119 4331 
z
" transform="scale(0.015625)"/>
     <path id="DejaVuSerif-72" d="M 3059 3328 
L 3059 2497 
L 2728 2497 
Q 2713 2744 2591 2866 
Q 2469 2988 2234 2988 
Q 1809 2988 1582 2694 
Q 1356 2400 1356 1850 
L 1356 331 
L 2022 331 
L 2022 0 
L 263 0 
L 263 331 
L 781 331 
L 781 2994 
L 231 2994 
L 231 3322 
L 1356 3322 
L 1356 2731 
Q 1525 3078 1790 3245 
Q 2056 3413 2438 3413 
Q 2578 3413 2733 3391 
Q 2888 3369 3059 3328 
z
" transform="scale(0.015625)"/>
     <path id="DejaVuSerif-62" d="M 738 331 
L 738 4531 
L 184 4531 
L 184 4863 
L 1313 4863 
L 1313 2803 
Q 1481 3116 1742 3264 
Q 2003 3413 2388 3413 
Q 3000 3413 3387 2928 
Q 3775 2444 3775 1663 
Q 3775 881 3387 395 
Q 3000 -91 2388 -91 
Q 2003 -91 1742 57 
Q 1481 206 1313 519 
L 1313 0 
L 184 0 
L 184 331 
L 738 331 
z
M 1313 1497 
Q 1313 897 1542 583 
Q 1772 269 2209 269 
Q 2650 269 2876 622 
Q 3103 975 3103 1663 
Q 3103 2353 2876 2703 
Q 2650 3053 2209 3053 
Q 1772 3053 1542 2737 
Q 1313 2422 1313 1825 
L 1313 1497 
z
" transform="scale(0.015625)"/>
     <path id="DejaVuSerif-6c" d="M 1313 331 
L 1856 331 
L 1856 0 
L 184 0 
L 184 331 
L 738 331 
L 738 4531 
L 184 4531 
L 184 4863 
L 1313 4863 
L 1313 331 
z
" transform="scale(0.015625)"/>
     <path id="DejaVuSerif-75" d="M 2266 3322 
L 3341 3322 
L 3341 331 
L 3884 331 
L 3884 0 
L 2766 0 
L 2766 588 
Q 2606 256 2353 82 
Q 2100 -91 1766 -91 
Q 1213 -91 952 223 
Q 691 538 691 1209 
L 691 2988 
L 172 2988 
L 172 3322 
L 1269 3322 
L 1269 1388 
Q 1269 781 1417 556 
Q 1566 331 1947 331 
Q 2347 331 2556 625 
Q 2766 919 2766 1478 
L 2766 2988 
L 2266 2988 
L 2266 3322 
z
" transform="scale(0.015625)"/>
     <path id="DejaVuSerif-6f" d="M 1925 219 
Q 2388 219 2623 584 
Q 2859 950 2859 1663 
Q 2859 2375 2623 2739 
Q 2388 3103 1925 3103 
Q 1463 3103 1227 2739 
Q 991 2375 991 1663 
Q 991 950 1228 584 
Q 1466 219 1925 219 
z
M 1925 -91 
Q 1200 -91 759 389 
Q 319 869 319 1663 
Q 319 2456 758 2934 
Q 1197 3413 1925 3413 
Q 2653 3413 3092 2934 
Q 3531 2456 3531 1663 
Q 3531 869 3092 389 
Q 2653 -91 1925 -91 
z
" transform="scale(0.015625)"/>
     <path id="DejaVuSerif-6e" d="M 263 0 
L 263 331 
L 781 331 
L 781 2988 
L 231 2988 
L 231 3322 
L 1356 3322 
L 1356 2731 
Q 1516 3069 1770 3241 
Q 2025 3413 2363 3413 
Q 2913 3413 3172 3097 
Q 3431 2781 3431 2113 
L 3431 331 
L 3944 331 
L 3944 0 
L 2356 0 
L 2356 331 
L 2853 331 
L 2853 1931 
Q 2853 2541 2703 2767 
Q 2553 2994 2175 2994 
Q 1775 2994 1565 2701 
Q 1356 2409 1356 1850 
L 1356 331 
L 1856 331 
L 1856 0 
L 263 0 
z
" transform="scale(0.015625)"/>
     <path id="DejaVuSerif-43" d="M 4513 1234 
Q 4306 581 3820 245 
Q 3334 -91 2591 -91 
Q 2134 -91 1743 65 
Q 1353 222 1050 525 
Q 700 875 529 1320 
Q 359 1766 359 2328 
Q 359 3416 987 4083 
Q 1616 4750 2644 4750 
Q 3025 4750 3456 4650 
Q 3888 4550 4384 4347 
L 4384 3272 
L 4031 3272 
Q 3916 3859 3567 4137 
Q 3219 4416 2591 4416 
Q 1844 4416 1459 3886 
Q 1075 3356 1075 2328 
Q 1075 1303 1459 773 
Q 1844 244 2591 244 
Q 3113 244 3450 492 
Q 3788 741 3938 1234 
L 4513 1234 
z
" transform="scale(0.015625)"/>
     <path id="DejaVuSerif-70" d="M 1313 1825 
L 1313 1497 
Q 1313 897 1542 583 
Q 1772 269 2209 269 
Q 2650 269 2876 622 
Q 3103 975 3103 1663 
Q 3103 2353 2876 2703 
Q 2650 3053 2209 3053 
Q 1772 3053 1542 2737 
Q 1313 2422 1313 1825 
z
M 738 2988 
L 184 2988 
L 184 3322 
L 1313 3322 
L 1313 2803 
Q 1481 3116 1742 3264 
Q 2003 3413 2388 3413 
Q 3000 3413 3387 2928 
Q 3775 2444 3775 1663 
Q 3775 881 3387 395 
Q 3000 -91 2388 -91 
Q 2003 -91 1742 57 
Q 1481 206 1313 519 
L 1313 -997 
L 1856 -997 
L 1856 -1331 
L 184 -1331 
L 184 -997 
L 738 -997 
L 738 2988 
z
" transform="scale(0.015625)"/>
     <path id="DejaVuSerif-73" d="M 359 184 
L 359 959 
L 691 959 
Q 703 588 923 403 
Q 1144 219 1575 219 
Q 1963 219 2166 364 
Q 2369 509 2369 788 
Q 2369 1006 2220 1140 
Q 2072 1275 1594 1428 
L 1178 1569 
Q 750 1706 558 1912 
Q 366 2119 366 2438 
Q 366 2894 700 3153 
Q 1034 3413 1625 3413 
Q 1888 3413 2178 3344 
Q 2469 3275 2778 3144 
L 2778 2419 
L 2447 2419 
Q 2434 2741 2221 2922 
Q 2009 3103 1644 3103 
Q 1281 3103 1095 2975 
Q 909 2847 909 2591 
Q 909 2381 1050 2254 
Q 1191 2128 1613 1997 
L 2069 1856 
Q 2541 1709 2748 1489 
Q 2956 1269 2956 922 
Q 2956 450 2595 179 
Q 2234 -91 1600 -91 
Q 1278 -91 972 -22 
Q 666 47 359 184 
z
" transform="scale(0.015625)"/>
    </defs>
    <use xlink:href="#DejaVuSerif-53"/>
    <use xlink:href="#DejaVuSerif-74" transform="translate(68.505859 0)"/>
    <use xlink:href="#DejaVuSerif-61" transform="translate(108.691406 0)"/>
    <use xlink:href="#DejaVuSerif-74" transform="translate(168.310547 0)"/>
    <use xlink:href="#DejaVuSerif-65" transform="translate(208.496094 0)"/>
    <use xlink:href="#DejaVuSerif-20" transform="translate(267.675781 0)"/>
    <use xlink:href="#DejaVuSerif-56" transform="translate(299.462891 0)"/>
    <use xlink:href="#DejaVuSerif-61" transform="translate(362.554688 0)"/>
    <use xlink:href="#DejaVuSerif-72" transform="translate(422.173828 0)"/>
    <use xlink:href="#DejaVuSerif-69" transform="translate(469.976562 0)"/>
    <use xlink:href="#DejaVuSerif-61" transform="translate(501.958984 0)"/>
    <use xlink:href="#DejaVuSerif-62" transform="translate(561.578125 0)"/>
    <use xlink:href="#DejaVuSerif-6c" transform="translate(625.591797 0)"/>
    <use xlink:href="#DejaVuSerif-65" transform="translate(657.574219 0)"/>
    <use xlink:href="#DejaVuSerif-20" transform="translate(716.753906 0)"/>
    <use xlink:href="#DejaVuSerif-53" transform="translate(748.541016 0)"/>
    <use xlink:href="#DejaVuSerif-69" transform="translate(817.046875 0)"/>
    <use xlink:href="#DejaVuSerif-6d" transform="translate(849.029297 0)"/>
    <use xlink:href="#DejaVuSerif-75" transform="translate(943.853516 0)"/>
    <use xlink:href="#DejaVuSerif-6c" transform="translate(1008.257812 0)"/>
    <use xlink:href="#DejaVuSerif-61" transform="translate(1040.240234 0)"/>
    <use xlink:href="#DejaVuSerif-74" transform="translate(1099.859375 0)"/>
    <use xlink:href="#DejaVuSerif-69" transform="translate(1140.044922 0)"/>
    <use xlink:href="#DejaVuSerif-6f" transform="translate(1172.027344 0)"/>
    <use xlink:href="#DejaVuSerif-6e" transform="translate(1232.232422 0)"/>
    <use xlink:href="#DejaVuSerif-20" transform="translate(1296.636719 0)"/>
    <use xlink:href="#DejaVuSerif-43" transform="translate(1328.423828 0)"/>
    <use xlink:href="#DejaVuSerif-6f" transform="translate(1404.9375 0)"/>
    <use xlink:href="#DejaVuSerif-6d" transform="translate(1465.142578 0)"/>
    <use xlink:href="#DejaVuSerif-70" transform="translate(1559.966797 0)"/>
    <use xlink:href="#DejaVuSerif-61" transform="translate(1623.980469 0)"/>
    <use xlink:href="#DejaVuSerif-72" transform="translate(1683.599609 0)"/>
    <use xlink:href="#DejaVuSerif-69" transform="translate(1731.402344 0)"/>
    <use xlink:href="#DejaVuSerif-73" transform="translate(1763.384766 0)"/>
    <use xlink:href="#DejaVuSerif-6f" transform="translate(1814.703125 0)"/>
    <use xlink:href="#DejaVuSerif-6e" transform="translate(1874.908203 0)"/>
   </g>
  </g>
  <g id="legend_1">
   <g id="patch_12">
    <path d="M 732.705312 67.28125 
L 847.917812 67.28125 
Q 849.917812 67.28125 849.917812 65.28125 
L 849.917812 7 
Q 849.917812 5 847.917812 5 
L 732.705312 5 
Q 730.705312 5 730.705312 7 
L 730.705312 65.28125 
Q 730.705312 67.28125 732.705312 67.28125 
z
" style="fill: #ffffff; opacity: 0.5; stroke: #cccccc; stroke-linejoin: miter"/>
   </g>
   <g id="line2d_27">
    <path d="M 734.705312 13.098437 
L 744.705312 13.098437 
L 754.705312 13.098437 
" style="fill: none; stroke: #000000; stroke-opacity: 0.4; stroke-width: 6; stroke-linecap: round"/>
   </g>
   <g id="text_17">
    <!-- True Trajectory -->
    <g style="fill: #262626" transform="translate(762.705312 16.598437) scale(0.1 -0.1)">
     <defs>
      <path id="DejaVuSerif-6a" d="M 641 4353 
Q 641 4497 745 4603 
Q 850 4709 997 4709 
Q 1141 4709 1245 4603 
Q 1350 4497 1350 4353 
Q 1350 4206 1248 4103 
Q 1147 4000 997 4000 
Q 850 4000 745 4103 
Q 641 4206 641 4353 
z
M 781 2988 
L 238 2988 
L 238 3322 
L 1356 3322 
L 1356 -325 
Q 1356 -838 1051 -1130 
Q 747 -1422 213 -1422 
Q -13 -1422 -217 -1370 
Q -422 -1319 -616 -1216 
L -616 -531 
L -319 -531 
Q -297 -831 -164 -972 
Q -31 -1113 225 -1113 
Q 509 -1113 645 -920 
Q 781 -728 781 -325 
L 781 2988 
z
" transform="scale(0.015625)"/>
      <path id="DejaVuSerif-63" d="M 3291 997 
Q 3169 466 2822 187 
Q 2475 -91 1925 -91 
Q 1200 -91 759 389 
Q 319 869 319 1663 
Q 319 2459 759 2936 
Q 1200 3413 1925 3413 
Q 2241 3413 2553 3339 
Q 2866 3266 3181 3116 
L 3181 2266 
L 2847 2266 
Q 2781 2703 2561 2903 
Q 2341 3103 1931 3103 
Q 1466 3103 1228 2742 
Q 991 2381 991 1663 
Q 991 944 1227 581 
Q 1463 219 1931 219 
Q 2303 219 2525 412 
Q 2747 606 2828 997 
L 3291 997 
z
" transform="scale(0.015625)"/>
      <path id="DejaVuSerif-79" d="M 1381 -609 
L 1600 -56 
L 359 2988 
L -19 2988 
L -19 3322 
L 1509 3322 
L 1509 2988 
L 978 2988 
L 1913 703 
L 2847 2988 
L 2350 2988 
L 2350 3322 
L 3597 3322 
L 3597 2988 
L 3225 2988 
L 1703 -750 
Q 1547 -1138 1356 -1280 
Q 1166 -1422 819 -1422 
Q 672 -1422 517 -1397 
Q 363 -1372 206 -1325 
L 206 -691 
L 500 -691 
Q 519 -903 608 -995 
Q 697 -1088 884 -1088 
Q 1056 -1088 1161 -992 
Q 1266 -897 1381 -609 
z
" transform="scale(0.015625)"/>
     </defs>
     <use xlink:href="#DejaVuSerif-54"/>
     <use xlink:href="#DejaVuSerif-72" transform="translate(66.699219 0)"/>
     <use xlink:href="#DejaVuSerif-75" transform="translate(114.501953 0)"/>
     <use xlink:href="#DejaVuSerif-65" transform="translate(178.90625 0)"/>
     <use xlink:href="#DejaVuSerif-20" transform="translate(238.085938 0)"/>
     <use xlink:href="#DejaVuSerif-54" transform="translate(269.873047 0)"/>
     <use xlink:href="#DejaVuSerif-72" transform="translate(336.572266 0)"/>
     <use xlink:href="#DejaVuSerif-61" transform="translate(384.375 0)"/>
     <use xlink:href="#DejaVuSerif-6a" transform="translate(443.994141 0)"/>
     <use xlink:href="#DejaVuSerif-65" transform="translate(475 0)"/>
     <use xlink:href="#DejaVuSerif-63" transform="translate(534.179688 0)"/>
     <use xlink:href="#DejaVuSerif-74" transform="translate(590.185547 0)"/>
     <use xlink:href="#DejaVuSerif-6f" transform="translate(630.371094 0)"/>
     <use xlink:href="#DejaVuSerif-72" transform="translate(690.576172 0)"/>
     <use xlink:href="#DejaVuSerif-79" transform="translate(738.378906 0)"/>
    </g>
   </g>
   <g id="line2d_28">
    <path d="M 734.705312 27.91875 
L 744.705312 27.91875 
L 754.705312 27.91875 
" style="fill: none; stroke-dasharray: 12.95,5.6; stroke-dashoffset: 0; stroke: #ff0000; stroke-opacity: 0.8; stroke-width: 3.5"/>
   </g>
   <g id="text_18">
    <!-- AutoSINDy -->
    <g style="fill: #262626" transform="translate(762.705312 31.41875) scale(0.1 -0.1)">
     <defs>
      <path id="DejaVuSerif-41" d="M 1281 1691 
L 2994 1691 
L 2138 3909 
L 1281 1691 
z
M -38 0 
L -38 331 
L 372 331 
L 2034 4666 
L 2559 4666 
L 4225 331 
L 4684 331 
L 4684 0 
L 2988 0 
L 2988 331 
L 3506 331 
L 3116 1356 
L 1153 1356 
L 763 331 
L 1275 331 
L 1275 0 
L -38 0 
z
" transform="scale(0.015625)"/>
      <path id="DejaVuSerif-49" d="M 1581 331 
L 2175 331 
L 2175 0 
L 353 0 
L 353 331 
L 947 331 
L 947 4331 
L 353 4331 
L 353 4666 
L 2175 4666 
L 2175 4331 
L 1581 4331 
L 1581 331 
z
" transform="scale(0.015625)"/>
      <path id="DejaVuSerif-4e" d="M 313 0 
L 313 331 
L 941 331 
L 941 4331 
L 313 4331 
L 313 4666 
L 1509 4666 
L 4306 984 
L 4306 4331 
L 3681 4331 
L 3681 4666 
L 5319 4666 
L 5319 4331 
L 4691 4331 
L 4691 -91 
L 4313 -91 
L 1325 3841 
L 1325 331 
L 1953 331 
L 1953 0 
L 313 0 
z
" transform="scale(0.015625)"/>
      <path id="DejaVuSerif-44" d="M 1581 331 
L 2163 331 
Q 3072 331 3558 850 
Q 4044 1369 4044 2338 
Q 4044 3306 3559 3818 
Q 3075 4331 2163 4331 
L 1581 4331 
L 1581 331 
z
M 353 0 
L 353 331 
L 947 331 
L 947 4331 
L 353 4331 
L 353 4666 
L 2209 4666 
Q 3416 4666 4089 4050 
Q 4763 3434 4763 2338 
Q 4763 1238 4088 619 
Q 3413 0 2209 0 
L 353 0 
z
" transform="scale(0.015625)"/>
     </defs>
     <use xlink:href="#DejaVuSerif-41"/>
     <use xlink:href="#DejaVuSerif-75" transform="translate(72.216797 0)"/>
     <use xlink:href="#DejaVuSerif-74" transform="translate(136.621094 0)"/>
     <use xlink:href="#DejaVuSerif-6f" transform="translate(176.806641 0)"/>
     <use xlink:href="#DejaVuSerif-53" transform="translate(237.011719 0)"/>
     <use xlink:href="#DejaVuSerif-49" transform="translate(305.517578 0)"/>
     <use xlink:href="#DejaVuSerif-4e" transform="translate(345.019531 0)"/>
     <use xlink:href="#DejaVuSerif-44" transform="translate(432.519531 0)"/>
     <use xlink:href="#DejaVuSerif-79" transform="translate(512.695312 0)"/>
    </g>
   </g>
   <g id="line2d_29">
    <path d="M 734.705312 42.739062 
L 744.705312 42.739062 
L 754.705312 42.739062 
" style="fill: none; stroke-dasharray: 3.5,5.775; stroke-dashoffset: 0; stroke: #008000; stroke-opacity: 0.8; stroke-width: 3.5"/>
   </g>
   <g id="text_19">
    <!-- Standard SINDy -->
    <g style="fill: #262626" transform="translate(762.705312 46.239062) scale(0.1 -0.1)">
     <defs>
      <path id="DejaVuSerif-64" d="M 3359 331 
L 3909 331 
L 3909 0 
L 2784 0 
L 2784 519 
Q 2616 206 2355 57 
Q 2094 -91 1709 -91 
Q 1097 -91 708 395 
Q 319 881 319 1663 
Q 319 2444 706 2928 
Q 1094 3413 1709 3413 
Q 2094 3413 2355 3264 
Q 2616 3116 2784 2803 
L 2784 4531 
L 2241 4531 
L 2241 4863 
L 3359 4863 
L 3359 331 
z
M 2784 1497 
L 2784 1825 
Q 2784 2422 2554 2737 
Q 2325 3053 1888 3053 
Q 1444 3053 1217 2703 
Q 991 2353 991 1663 
Q 991 975 1217 622 
Q 1444 269 1888 269 
Q 2325 269 2554 583 
Q 2784 897 2784 1497 
z
" transform="scale(0.015625)"/>
     </defs>
     <use xlink:href="#DejaVuSerif-53"/>
     <use xlink:href="#DejaVuSerif-74" transform="translate(68.505859 0)"/>
     <use xlink:href="#DejaVuSerif-61" transform="translate(108.691406 0)"/>
     <use xlink:href="#DejaVuSerif-6e" transform="translate(168.310547 0)"/>
     <use xlink:href="#DejaVuSerif-64" transform="translate(232.714844 0)"/>
     <use xlink:href="#DejaVuSerif-61" transform="translate(296.728516 0)"/>
     <use xlink:href="#DejaVuSerif-72" transform="translate(356.347656 0)"/>
     <use xlink:href="#DejaVuSerif-64" transform="translate(404.150391 0)"/>
     <use xlink:href="#DejaVuSerif-20" transform="translate(468.164062 0)"/>
     <use xlink:href="#DejaVuSerif-53" transform="translate(499.951172 0)"/>
     <use xlink:href="#DejaVuSerif-49" transform="translate(568.457031 0)"/>
     <use xlink:href="#DejaVuSerif-4e" transform="translate(607.958984 0)"/>
     <use xlink:href="#DejaVuSerif-44" transform="translate(695.458984 0)"/>
     <use xlink:href="#DejaVuSerif-79" transform="translate(775.634766 0)"/>
    </g>
   </g>
   <g id="line2d_30">
    <path d="M 734.705312 57.559375 
L 744.705312 57.559375 
L 754.705312 57.559375 
" style="fill: none; stroke-dasharray: 22.4,5.6,3.5,5.6; stroke-dashoffset: 0; stroke: #0000ff; stroke-opacity: 0.8; stroke-width: 3.5"/>
   </g>
   <g id="text_20">
    <!-- Standard PySR -->
    <g style="fill: #262626" transform="translate(762.705312 61.059375) scale(0.1 -0.1)">
     <defs>
      <path id="DejaVuSerif-50" d="M 1581 2375 
L 2406 2375 
Q 2872 2375 3115 2626 
Q 3359 2878 3359 3353 
Q 3359 3831 3115 4081 
Q 2872 4331 2406 4331 
L 1581 4331 
L 1581 2375 
z
M 353 0 
L 353 331 
L 947 331 
L 947 4331 
L 353 4331 
L 353 4666 
L 2559 4666 
Q 3259 4666 3668 4311 
Q 4078 3956 4078 3353 
Q 4078 2753 3668 2397 
Q 3259 2041 2559 2041 
L 1581 2041 
L 1581 331 
L 2303 331 
L 2303 0 
L 353 0 
z
" transform="scale(0.015625)"/>
      <path id="DejaVuSerif-52" d="M 3066 2316 
Q 3284 2256 3442 2114 
Q 3600 1972 3725 1716 
L 4403 331 
L 4972 331 
L 4972 0 
L 3872 0 
L 3144 1484 
Q 2934 1916 2759 2042 
Q 2584 2169 2278 2169 
L 1581 2169 
L 1581 331 
L 2241 331 
L 2241 0 
L 353 0 
L 353 331 
L 947 331 
L 947 4331 
L 353 4331 
L 353 4666 
L 2719 4666 
Q 3400 4666 3770 4341 
Q 4141 4016 4141 3419 
Q 4141 2938 3870 2661 
Q 3600 2384 3066 2316 
z
M 1581 2503 
L 2503 2503 
Q 2975 2503 3200 2726 
Q 3425 2950 3425 3419 
Q 3425 3888 3200 4109 
Q 2975 4331 2503 4331 
L 1581 4331 
L 1581 2503 
z
" transform="scale(0.015625)"/>
     </defs>
     <use xlink:href="#DejaVuSerif-53"/>
     <use xlink:href="#DejaVuSerif-74" transform="translate(68.505859 0)"/>
     <use xlink:href="#DejaVuSerif-61" transform="translate(108.691406 0)"/>
     <use xlink:href="#DejaVuSerif-6e" transform="translate(168.310547 0)"/>
     <use xlink:href="#DejaVuSerif-64" transform="translate(232.714844 0)"/>
     <use xlink:href="#DejaVuSerif-61" transform="translate(296.728516 0)"/>
     <use xlink:href="#DejaVuSerif-72" transform="translate(356.347656 0)"/>
     <use xlink:href="#DejaVuSerif-64" transform="translate(404.150391 0)"/>
     <use xlink:href="#DejaVuSerif-20" transform="translate(468.164062 0)"/>
     <use xlink:href="#DejaVuSerif-50" transform="translate(499.951172 0)"/>
     <use xlink:href="#DejaVuSerif-79" transform="translate(567.236328 0)"/>
     <use xlink:href="#DejaVuSerif-53" transform="translate(623.730469 0)"/>
     <use xlink:href="#DejaVuSerif-52" transform="translate(692.236328 0)"/>
    </g>
   </g>
  </g>
 </g>
 <defs>
  <clipPath id="pfc86dc3164">
   <rect x="54.096563" y="41.62375" width="786.74125" height="95.93375"/>
  </clipPath>
  <clipPath id="p7562dc3a26">
   <rect x="54.096563" y="149.4375" width="786.74125" height="95.93375"/>
  </clipPath>
 </defs>
</svg>
