<?xml version="1.0" encoding="utf-8" standalone="no"?>
<!DOCTYPE svg PUBLIC "-//W3C//DTD SVG 1.1//EN"
  "http://www.w3.org/Graphics/SVG/1.1/DTD/svg11.dtd">
<svg xmlns:xlink="http://www.w3.org/1999/xlink" width="568.382812pt" height="567.994375pt" viewBox="0 0 568.382812 567.994375" xmlns="http://www.w3.org/2000/svg" version="1.1">
 <metadata>
  <rdf:RDF xmlns:dc="http://purl.org/dc/elements/1.1/" xmlns:cc="http://creativecommons.org/ns#" xmlns:rdf="http://www.w3.org/1999/02/22-rdf-syntax-ns#">
   <cc:Work>
    <dc:type rdf:resource="http://purl.org/dc/dcmitype/StillImage"/>
    <dc:date>2026-04-02T02:03:09.060876</dc:date>
    <dc:format>image/svg+xml</dc:format>
    <dc:creator>
     <cc:Agent>
      <dc:title>Matplotlib v3.10.7, https://matplotlib.org/</dc:title>
     </cc:Agent>
    </dc:creator>
   </cc:Work>
  </rdf:RDF>
 </metadata>
 <defs>
  <style type="text/css">*{stroke-linejoin: round; stroke-linecap: butt}</style>
 </defs>
 <g id="figure_1">
  <g id="patch_1">
   <path d="M 0 567.994375 
L 568.382812 567.994375 
L 568.382812 0 
L 0 0 
z
" style="fill: #ffffff"/>
  </g>
  <g id="axes_1">
   <g id="patch_2">
    <path d="M 48.982813 530.438125 
L 561.182812 530.438125 
L 561.182812 22.318125 
L 48.982813 22.318125 
z
" style="fill: #ffffff"/>
   </g>
   <g id="matplotlib.axis_1">
    <g id="xtick_1">
     <g id="line2d_1">
      <defs>
       <path id="m39faff5064" d="M 0 0 
L 0 3.5 
" style="stroke: #000000; stroke-width: 0.8"/>
      </defs>
      <g>
       <use xlink:href="#m39faff5064" x="81.173096" y="530.438125" style="stroke: #000000; stroke-width: 0.8"/>
      </g>
     </g>
     <g id="text_1">
      <!-- −30 -->
      <g transform="translate(70.620752 545.036562) scale(0.1 -0.1)">
       <defs>
        <path id="DejaVuSans-2212" d="M 678 2272 
L 4684 2272 
L 4684 1741 
L 678 1741 
L 678 2272 
z
" transform="scale(0.015625)"/>
        <path id="DejaVuSans-33" d="M 2597 2516 
Q 3050 2419 3304 2112 
Q 3559 1806 3559 1356 
Q 3559 666 3084 287 
Q 2609 -91 1734 -91 
Q 1441 -91 1130 -33 
Q 819 25 488 141 
L 488 750 
Q 750 597 1062 519 
Q 1375 441 1716 441 
Q 2309 441 2620 675 
Q 2931 909 2931 1356 
Q 2931 1769 2642 2001 
Q 2353 2234 1838 2234 
L 1294 2234 
L 1294 2753 
L 1863 2753 
Q 2328 2753 2575 2939 
Q 2822 3125 2822 3475 
Q 2822 3834 2567 4026 
Q 2313 4219 1838 4219 
Q 1578 4219 1281 4162 
Q 984 4106 628 3988 
L 628 4550 
Q 988 4650 1302 4700 
Q 1616 4750 1894 4750 
Q 2613 4750 3031 4423 
Q 3450 4097 3450 3541 
Q 3450 3153 3228 2886 
Q 3006 2619 2597 2516 
z
" transform="scale(0.015625)"/>
        <path id="DejaVuSans-30" d="M 2034 4250 
Q 1547 4250 1301 3770 
Q 1056 3291 1056 2328 
Q 1056 1369 1301 889 
Q 1547 409 2034 409 
Q 2525 409 2770 889 
Q 3016 1369 3016 2328 
Q 3016 3291 2770 3770 
Q 2525 4250 2034 4250 
z
M 2034 4750 
Q 2819 4750 3233 4129 
Q 3647 3509 3647 2328 
Q 3647 1150 3233 529 
Q 2819 -91 2034 -91 
Q 1250 -91 836 529 
Q 422 1150 422 2328 
Q 422 3509 836 4129 
Q 1250 4750 2034 4750 
z
" transform="scale(0.015625)"/>
       </defs>
       <use xlink:href="#DejaVuSans-2212"/>
       <use xlink:href="#DejaVuSans-33" transform="translate(83.789062 0)"/>
       <use xlink:href="#DejaVuSans-30" transform="translate(147.412109 0)"/>
      </g>
     </g>
    </g>
    <g id="xtick_2">
     <g id="line2d_2">
      <g>
       <use xlink:href="#m39faff5064" x="179.645218" y="530.438125" style="stroke: #000000; stroke-width: 0.8"/>
      </g>
     </g>
     <g id="text_2">
      <!-- −20 -->
      <g transform="translate(169.092874 545.036562) scale(0.1 -0.1)">
       <defs>
        <path id="DejaVuSans-32" d="M 1228 531 
L 3431 531 
L 3431 0 
L 469 0 
L 469 531 
Q 828 903 1448 1529 
Q 2069 2156 2228 2338 
Q 2531 2678 2651 2914 
Q 2772 3150 2772 3378 
Q 2772 3750 2511 3984 
Q 2250 4219 1831 4219 
Q 1534 4219 1204 4116 
Q 875 4013 500 3803 
L 500 4441 
Q 881 4594 1212 4672 
Q 1544 4750 1819 4750 
Q 2544 4750 2975 4387 
Q 3406 4025 3406 3419 
Q 3406 3131 3298 2873 
Q 3191 2616 2906 2266 
Q 2828 2175 2409 1742 
Q 1991 1309 1228 531 
z
" transform="scale(0.015625)"/>
       </defs>
       <use xlink:href="#DejaVuSans-2212"/>
       <use xlink:href="#DejaVuSans-32" transform="translate(83.789062 0)"/>
       <use xlink:href="#DejaVuSans-30" transform="translate(147.412109 0)"/>
      </g>
     </g>
    </g>
    <g id="xtick_3">
     <g id="line2d_3">
      <g>
       <use xlink:href="#m39faff5064" x="278.11734" y="530.438125" style="stroke: #000000; stroke-width: 0.8"/>
      </g>
     </g>
     <g id="text_3">
      <!-- −10 -->
      <g transform="translate(267.564996 545.036562) scale(0.1 -0.1)">
       <defs>
        <path id="DejaVuSans-31" d="M 794 531 
L 1825 531 
L 1825 4091 
L 703 3866 
L 703 4441 
L 1819 4666 
L 2450 4666 
L 2450 531 
L 3481 531 
L 3481 0 
L 794 0 
L 794 531 
z
" transform="scale(0.015625)"/>
       </defs>
       <use xlink:href="#DejaVuSans-2212"/>
       <use xlink:href="#DejaVuSans-31" transform="translate(83.789062 0)"/>
       <use xlink:href="#DejaVuSans-30" transform="translate(147.412109 0)"/>
      </g>
     </g>
    </g>
    <g id="xtick_4">
     <g id="line2d_4">
      <g>
       <use xlink:href="#m39faff5064" x="376.589462" y="530.438125" style="stroke: #000000; stroke-width: 0.8"/>
      </g>
     </g>
     <g id="text_4">
      <!-- 0 -->
      <g transform="translate(373.408212 545.036562) scale(0.1 -0.1)">
       <use xlink:href="#DejaVuSans-30"/>
      </g>
     </g>
    </g>
    <g id="xtick_5">
     <g id="line2d_5">
      <g>
       <use xlink:href="#m39faff5064" x="475.061584" y="530.438125" style="stroke: #000000; stroke-width: 0.8"/>
      </g>
     </g>
     <g id="text_5">
      <!-- 10 -->
      <g transform="translate(468.699084 545.036562) scale(0.1 -0.1)">
       <use xlink:href="#DejaVuSans-31"/>
       <use xlink:href="#DejaVuSans-30" transform="translate(63.623047 0)"/>
      </g>
     </g>
    </g>
    <g id="text_6">
     <!-- x0 -->
     <g transform="translate(298.942187 558.714687) scale(0.1 -0.1)">
      <defs>
       <path id="DejaVuSans-78" d="M 3513 3500 
L 2247 1797 
L 3578 0 
L 2900 0 
L 1881 1375 
L 863 0 
L 184 0 
L 1544 1831 
L 300 3500 
L 978 3500 
L 1906 2253 
L 2834 3500 
L 3513 3500 
z
" transform="scale(0.015625)"/>
      </defs>
      <use xlink:href="#DejaVuSans-78"/>
      <use xlink:href="#DejaVuSans-30" transform="translate(59.179688 0)"/>
     </g>
    </g>
   </g>
   <g id="matplotlib.axis_2">
    <g id="ytick_1">
     <g id="line2d_6">
      <defs>
       <path id="maa80911b46" d="M 0 0 
L -3.5 0 
" style="stroke: #000000; stroke-width: 0.8"/>
      </defs>
      <g>
       <use xlink:href="#maa80911b46" x="48.982813" y="526.894555" style="stroke: #000000; stroke-width: 0.8"/>
      </g>
     </g>
     <g id="text_7">
      <!-- −80 -->
      <g transform="translate(20.878125 530.693774) scale(0.1 -0.1)">
       <defs>
        <path id="DejaVuSans-38" d="M 2034 2216 
Q 1584 2216 1326 1975 
Q 1069 1734 1069 1313 
Q 1069 891 1326 650 
Q 1584 409 2034 409 
Q 2484 409 2743 651 
Q 3003 894 3003 1313 
Q 3003 1734 2745 1975 
Q 2488 2216 2034 2216 
z
M 1403 2484 
Q 997 2584 770 2862 
Q 544 3141 544 3541 
Q 544 4100 942 4425 
Q 1341 4750 2034 4750 
Q 2731 4750 3128 4425 
Q 3525 4100 3525 3541 
Q 3525 3141 3298 2862 
Q 3072 2584 2669 2484 
Q 3125 2378 3379 2068 
Q 3634 1759 3634 1313 
Q 3634 634 3220 271 
Q 2806 -91 2034 -91 
Q 1263 -91 848 271 
Q 434 634 434 1313 
Q 434 1759 690 2068 
Q 947 2378 1403 2484 
z
M 1172 3481 
Q 1172 3119 1398 2916 
Q 1625 2713 2034 2713 
Q 2441 2713 2670 2916 
Q 2900 3119 2900 3481 
Q 2900 3844 2670 4047 
Q 2441 4250 2034 4250 
Q 1625 4250 1398 4047 
Q 1172 3844 1172 3481 
z
" transform="scale(0.015625)"/>
       </defs>
       <use xlink:href="#DejaVuSans-2212"/>
       <use xlink:href="#DejaVuSans-38" transform="translate(83.789062 0)"/>
       <use xlink:href="#DejaVuSans-30" transform="translate(147.412109 0)"/>
      </g>
     </g>
    </g>
    <g id="ytick_2">
     <g id="line2d_7">
      <g>
       <use xlink:href="#maa80911b46" x="48.982813" y="432.10163" style="stroke: #000000; stroke-width: 0.8"/>
      </g>
     </g>
     <g id="text_8">
      <!-- −60 -->
      <g transform="translate(20.878125 435.900848) scale(0.1 -0.1)">
       <defs>
        <path id="DejaVuSans-36" d="M 2113 2584 
Q 1688 2584 1439 2293 
Q 1191 2003 1191 1497 
Q 1191 994 1439 701 
Q 1688 409 2113 409 
Q 2538 409 2786 701 
Q 3034 994 3034 1497 
Q 3034 2003 2786 2293 
Q 2538 2584 2113 2584 
z
M 3366 4563 
L 3366 3988 
Q 3128 4100 2886 4159 
Q 2644 4219 2406 4219 
Q 1781 4219 1451 3797 
Q 1122 3375 1075 2522 
Q 1259 2794 1537 2939 
Q 1816 3084 2150 3084 
Q 2853 3084 3261 2657 
Q 3669 2231 3669 1497 
Q 3669 778 3244 343 
Q 2819 -91 2113 -91 
Q 1303 -91 875 529 
Q 447 1150 447 2328 
Q 447 3434 972 4092 
Q 1497 4750 2381 4750 
Q 2619 4750 2861 4703 
Q 3103 4656 3366 4563 
z
" transform="scale(0.015625)"/>
       </defs>
       <use xlink:href="#DejaVuSans-2212"/>
       <use xlink:href="#DejaVuSans-36" transform="translate(83.789062 0)"/>
       <use xlink:href="#DejaVuSans-30" transform="translate(147.412109 0)"/>
      </g>
     </g>
    </g>
    <g id="ytick_3">
     <g id="line2d_8">
      <g>
       <use xlink:href="#maa80911b46" x="48.982813" y="337.308704" style="stroke: #000000; stroke-width: 0.8"/>
      </g>
     </g>
     <g id="text_9">
      <!-- −40 -->
      <g transform="translate(20.878125 341.107923) scale(0.1 -0.1)">
       <defs>
        <path id="DejaVuSans-34" d="M 2419 4116 
L 825 1625 
L 2419 1625 
L 2419 4116 
z
M 2253 4666 
L 3047 4666 
L 3047 1625 
L 3713 1625 
L 3713 1100 
L 3047 1100 
L 3047 0 
L 2419 0 
L 2419 1100 
L 313 1100 
L 313 1709 
L 2253 4666 
z
" transform="scale(0.015625)"/>
       </defs>
       <use xlink:href="#DejaVuSans-2212"/>
       <use xlink:href="#DejaVuSans-34" transform="translate(83.789062 0)"/>
       <use xlink:href="#DejaVuSans-30" transform="translate(147.412109 0)"/>
      </g>
     </g>
    </g>
    <g id="ytick_4">
     <g id="line2d_9">
      <g>
       <use xlink:href="#maa80911b46" x="48.982813" y="242.515779" style="stroke: #000000; stroke-width: 0.8"/>
      </g>
     </g>
     <g id="text_10">
      <!-- −20 -->
      <g transform="translate(20.878125 246.314998) scale(0.1 -0.1)">
       <use xlink:href="#DejaVuSans-2212"/>
       <use xlink:href="#DejaVuSans-32" transform="translate(83.789062 0)"/>
       <use xlink:href="#DejaVuSans-30" transform="translate(147.412109 0)"/>
      </g>
     </g>
    </g>
    <g id="ytick_5">
     <g id="line2d_10">
      <g>
       <use xlink:href="#maa80911b46" x="48.982813" y="147.722854" style="stroke: #000000; stroke-width: 0.8"/>
      </g>
     </g>
     <g id="text_11">
      <!-- 0 -->
      <g transform="translate(35.620312 151.522073) scale(0.1 -0.1)">
       <use xlink:href="#DejaVuSans-30"/>
      </g>
     </g>
    </g>
    <g id="ytick_6">
     <g id="line2d_11">
      <g>
       <use xlink:href="#maa80911b46" x="48.982813" y="52.929929" style="stroke: #000000; stroke-width: 0.8"/>
      </g>
     </g>
     <g id="text_12">
      <!-- 20 -->
      <g transform="translate(29.257812 56.729147) scale(0.1 -0.1)">
       <use xlink:href="#DejaVuSans-32"/>
       <use xlink:href="#DejaVuSans-30" transform="translate(63.623047 0)"/>
      </g>
     </g>
    </g>
    <g id="text_13">
     <!-- x1 -->
     <g transform="translate(14.798438 282.51875) rotate(-90) scale(0.1 -0.1)">
      <use xlink:href="#DejaVuSans-78"/>
      <use xlink:href="#DejaVuSans-31" transform="translate(59.179688 0)"/>
     </g>
    </g>
   </g>
   <g id="line2d_12">
    <path d="M 475.061584 100.326391 
L 475.386171 97.129045 
L 476.287593 94.190969 
L 477.66019 91.524574 
L 479.402108 89.148505 
L 481.415388 87.085922 
L 483.607785 85.363394 
L 485.891689 84.02382 
L 488.181605 83.104539 
L 490.394042 82.634654 
L 492.447518 82.63503 
L 494.262558 83.118291 
L 495.761696 84.088826 
L 496.869898 85.545747 
L 497.530671 87.519852 
L 497.705252 89.925997 
L 497.366808 92.650766 
L 496.503079 95.596348 
L 495.116377 98.680545 
L 493.223585 101.836765 
L 490.856161 105.014028 
L 488.060134 108.176959 
L 484.896105 111.305797 
L 481.439249 114.396384 
L 477.736972 117.37796 
L 473.818099 120.125437 
L 469.757171 122.6103 
L 465.622941 124.813846 
L 461.478079 126.726631 
L 457.379168 128.348467 
L 453.376705 129.688424 
L 449.515104 130.764825 
L 445.832823 131.604666 
L 442.361534 132.227491 
L 439.119349 132.649694 
L 436.119335 132.889503 
L 433.371593 132.964429 
L 430.883256 132.891267 
L 428.658494 132.686094 
L 426.698508 132.364269 
L 425.001532 131.940436 
L 423.561059 131.426364 
L 422.364988 130.824608 
L 421.408413 130.140765 
L 420.686583 129.379645 
L 420.194171 128.544631 
L 419.925279 127.637675 
L 419.873438 126.659301 
L 420.031604 125.608605 
L 420.392161 124.483252 
L 420.946921 123.279481 
L 421.68728 121.993038 
L 423.722617 119.168048 
L 426.525474 115.988522 
L 430.111835 112.444267 
L 434.475755 108.541268 
L 439.589356 104.301688 
L 445.400528 99.769467 
L 451.867562 95.071371 
L 455.337593 92.72291 
L 458.946715 90.417072 
L 462.671569 88.191173 
L 466.481257 86.087043 
L 470.337346 84.151024 
L 474.193864 82.433974 
L 477.997306 80.991264 
L 481.686627 79.882778 
L 485.193246 79.172915 
L 488.462557 78.920673 
L 491.435125 79.157746 
L 494.023413 79.903785 
L 496.153258 81.164728 
L 497.764159 82.93274 
L 498.809283 85.186215 
L 499.255457 87.889777 
L 499.083175 90.994278 
L 498.286596 94.436798 
L 496.86558 98.133099 
L 494.827982 101.964474 
L 492.225358 105.830033 
L 489.116815 109.641587 
L 485.566763 113.322361 
L 481.64492 116.806996 
L 477.42631 120.041547 
L 472.991265 122.983486 
L 468.42542 125.601699 
L 463.815939 127.880825 
L 459.230109 129.83212 
L 454.727897 131.463905 
L 450.362218 132.788486 
L 446.178194 133.823468 
L 442.213162 134.591762 
L 438.49667 135.12158 
L 435.050478 135.44644 
L 431.888524 135.604629 
L 429.015183 135.612786 
L 426.428694 135.481502 
L 424.126009 135.227285 
L 422.102755 134.864482 
L 420.353233 134.405287 
L 418.870417 133.859735 
L 417.64596 133.235705 
L 416.670185 132.538918 
L 415.930015 131.772225 
L 415.412896 130.936244 
L 415.115316 130.03271 
L 415.033555 129.062194 
L 415.163313 128.023995 
L 415.499714 126.916139 
L 416.037301 125.735381 
L 416.770036 124.477201 
L 418.793918 121.704145 
L 421.542243 118.554403 
L 425.056785 115.001035 
L 429.365893 111.02104 
L 434.482894 106.618284 
L 440.406256 101.823672 
L 447.096892 96.712891 
L 454.527833 91.451988 
L 458.499791 88.842895 
L 462.61374 86.302542 
L 466.836822 83.879988 
L 471.127298 81.630839 
L 475.434545 79.617247 
L 479.699055 77.907909 
L 483.852439 76.578072 
L 487.819098 75.708655 
L 491.542709 75.360923 
L 494.928572 75.583129 
L 497.877461 76.409818 
L 500.304289 77.855631 
L 502.138112 79.915297 
L 503.322125 82.563642 
L 503.813665 85.755581 
L 503.584209 89.426123 
L 502.617118 93.489083 
L 500.904198 97.818364 
L 498.486922 102.27591 
L 495.423376 106.739587 
L 491.781243 111.103261 
L 487.637808 115.276802 
L 483.079956 119.186079 
L 478.204172 122.772961 
L 473.116541 125.99532 
L 467.924327 128.828393 
L 462.706942 131.268632 
L 457.543352 133.322445 
L 452.503139 135.004155 
L 447.645266 136.33614 
L 443.018072 137.348831 
L 438.659275 138.080715 
L 434.595975 138.578332 
L 430.844921 138.880431 
L 427.411899 139.001225 
L 424.296872 138.965432 
L 421.497404 138.795271 
L 419.008669 138.510173 
L 416.823462 138.126776 
L 414.932193 137.658928 
L 413.322878 137.117681 
L 411.975443 136.5089 
L 410.876392 135.837192 
L 410.019435 135.107623 
L 409.397375 134.323353 
L 409.002109 133.485636 
L 408.824622 132.593822 
L 408.854994 131.645352 
L 409.082396 130.635764 
L 409.495093 129.558689 
L 410.080438 128.405854 
L 411.766125 125.853552 
L 414.176041 122.943114 
L 417.335517 119.626565 
L 421.268863 115.855172 
L 425.99886 111.582396 
L 431.563688 106.802788 
L 438.039288 101.500394 
L 445.4454 95.746004 
L 453.729767 89.727071 
L 458.165278 86.708882 
L 462.768132 83.747716 
L 467.511298 80.898937 
L 472.352636 78.215477 
L 477.235135 75.793153 
L 482.093358 73.734005 
L 486.852256 72.13136 
L 491.427169 71.069834 
L 495.72382 70.625329 
L 499.638324 70.865036 
L 503.05718 71.84743 
L 505.873009 73.638787 
L 508.006358 76.253258 
L 509.354841 79.574079 
L 509.846044 83.483339 
L 509.441043 87.868327 
L 508.13441 92.621535 
L 505.954212 97.640654 
L 502.962006 102.828577 
L 499.251718 108.091842 
L 494.874442 113.234231 
L 489.92106 118.092299 
L 484.521798 122.58141 
L 478.800121 126.638196 
L 472.872732 130.220555 
L 466.849581 133.307649 
L 460.833852 135.899904 
L 454.921976 138.019013 
L 449.201861 139.710103 
L 443.733954 141.02334 
L 438.559584 141.999722 
L 433.711352 142.679995 
L 429.213177 143.104745 
L 425.080295 143.314402 
L 421.319264 143.349237 
L 417.9278 143.248684 
L 414.892567 143.034152 
L 412.198496 142.722408 
L 409.830686 142.331035 
L 407.773228 141.874479 
L 406.009209 141.364061 
L 404.520707 140.807965 
L 403.288798 140.211249 
L 402.293328 139.575996 
L 401.517849 138.903561 
L 400.952482 138.194941 
L 400.587547 137.44964 
L 400.413231 136.665638 
L 400.419589 135.839389 
L 400.596541 134.965824 
L 400.933879 134.03835 
L 402.063953 131.993824 
L 403.81275 129.658098 
L 406.198642 126.973277 
L 409.247728 123.870332 
L 415.163344 118.27671 
L 422.939654 111.33252 
L 429.297619 105.872081 
L 436.682459 99.756152 
L 445.147359 93.052086 
L 454.680486 85.946567 
L 459.834372 82.344987 
L 465.213908 78.793127 
L 470.776819 75.37095 
L 476.466546 72.173029 
L 482.212248 69.308545 
L 487.928802 66.90129 
L 493.523528 65.078794 
L 498.889932 63.957221 
L 503.87428 63.678799 
L 508.328982 64.347668 
L 512.116558 66.024665 
L 515.109638 68.72732 
L 517.190961 72.429862 
L 518.253376 77.063213 
L 518.205644 82.528433 
L 517.016782 88.642125 
L 514.704461 95.122535 
L 511.318535 101.723935 
L 506.941049 108.24183 
L 501.686244 114.512961 
L 495.700554 120.415303 
L 489.162607 125.868066 
L 482.248964 130.79148 
L 475.083112 135.077185 
L 467.820091 138.713053 
L 460.596389 141.714342 
L 453.527742 144.120845 
L 446.709139 145.996889 
L 440.215249 147.427218 
L 434.100344 148.468709 
L 428.39498 149.17803 
L 423.118373 149.612341 
L 418.280108 149.823684 
L 413.880142 149.858988 
L 406.347025 149.560235 
L 400.359937 148.95421 
L 395.724208 148.197576 
L 392.226975 147.384153 
L 389.672023 146.561545 
L 387.896757 145.750017 
L 386.746456 144.944435 
L 386.105683 144.128126 
L 385.899686 143.280676 
L 386.062136 142.370628 
L 386.551429 141.362216 
L 387.359879 140.220869 
L 389.175052 138.16203 
L 392.849477 134.487829 
L 400.111657 127.646605 
L 429.843528 100.576021 
L 439.462975 92.236632 
L 450.723339 82.996968 
L 456.941863 78.130101 
L 463.549002 73.187636 
L 470.519229 68.271356 
L 477.798259 63.513245 
L 485.303053 59.075495 
L 492.921813 55.150499 
L 500.513984 51.960854 
L 507.911739 49.757413 
L 514.944721 48.759235 
L 521.358112 49.193588 
L 526.890237 51.228984 
L 531.307082 54.939257 
L 534.402292 60.303569 
L 535.997175 67.2064 
L 535.940873 75.4397 
L 534.146813 84.697917 
L 530.648134 94.483612 
L 525.542975 104.33347 
L 518.985221 113.87298 
L 511.184505 122.816429 
L 502.406209 130.966908 
L 492.965612 138.209812 
L 483.108983 144.408358 
L 473.075148 149.534007 
L 463.089629 153.637234 
L 453.338511 156.812928 
L 443.968504 159.199925 
L 435.089062 160.930444 
L 426.768783 162.11502 
L 419.049919 162.86519 
L 411.953451 163.280736 
L 405.479091 163.449682 
L 399.608091 163.447698 
L 389.543447 163.144489 
L 372.253833 162.283885 
L 367.541893 162.314222 
L 363.620842 162.66484 
L 360.223739 163.370064 
L 357.091735 164.445799 
L 354.044631 165.917071 
L 350.924759 167.814103 
L 347.563846 170.164207 
L 343.820001 173.005715 
L 337.250019 178.310903 
L 322.697555 190.228724 
L 311.240192 199.286139 
L 302.378958 205.925588 
L 297.593936 209.326564 
L 292.586625 212.718536 
L 287.38778 216.054738 
L 282.042548 219.25153 
L 276.599121 222.199743 
L 271.121516 224.791372 
L 265.689577 226.919568 
L 260.398976 228.478642 
L 255.36121 229.364064 
L 250.703604 229.472465 
L 246.566515 228.700284 
L 243.054009 226.957181 
L 240.307045 224.273202 
L 238.455064 220.719729 
L 237.58873 216.385267 
L 237.759931 211.375438 
L 238.981783 205.81299 
L 241.228626 199.837789 
L 244.445303 193.618846 
L 248.592082 187.418068 
L 253.548126 181.421776 
L 259.17572 175.770602 
L 265.335225 170.57574 
L 271.885085 165.918946 
L 278.681817 161.852533 
L 285.580022 158.399376 
L 292.438635 155.543393 
L 299.152087 153.226054 
L 305.635427 151.399888 
L 311.819243 150.013843 
L 317.649933 149.012147 
L 323.089709 148.334315 
L 328.116592 147.915142 
L 332.723241 147.702138 
L 336.914393 147.6641 
L 340.700715 147.765376 
L 347.117575 148.267717 
L 352.123381 149.02186 
L 355.912008 149.914178 
L 358.656086 150.879728 
L 360.517902 151.888913 
L 361.169529 152.410155 
L 361.659618 152.945751 
L 361.997339 153.497033 
L 362.19094 154.06626 
L 362.24851 154.656718 
L 362.177977 155.272718 
L 361.683511 156.603707 
L 360.754469 158.109334 
L 359.385106 159.835817 
L 356.459729 162.965949 
L 352.375967 166.958537 
L 344.694455 174.108319 
L 336.800223 181.246903 
L 336.800223 181.246903 
" clip-path="url(#p103861c249)" style="fill: none; stroke: #000000; stroke-opacity: 0.3; stroke-width: 7; stroke-linecap: square"/>
   </g>
   <g id="line2d_13">
    <path d="M 475.061584 100.326391 
L 475.326087 97.506399 
L 476.063963 94.904104 
L 477.193471 92.534191 
L 478.63515 90.415442 
L 480.311904 88.57 
L 482.150112 87.018214 
L 484.077525 85.795633 
L 486.023737 84.935561 
L 487.920628 84.463946 
L 489.702357 84.399382 
L 491.305367 84.753108 
L 492.668382 85.529009 
L 493.732408 86.723613 
L 494.440735 88.326119 
L 494.74803 90.347228 
L 494.6296 92.734234 
L 494.06973 95.390303 
L 493.062943 98.230363 
L 491.613999 101.181105 
L 489.737896 104.180984 
L 487.459868 107.180216 
L 484.815386 110.140783 
L 481.85016 113.036429 
L 478.620136 115.852659 
L 475.190637 118.58517 
L 471.589901 121.153482 
L 467.856739 123.494439 
L 464.048298 125.5918 
L 460.217 127.435976 
L 456.410545 129.024035 
L 452.67191 130.359701 
L 449.039351 131.453354 
L 445.546398 132.322029 
L 442.221874 132.989255 
L 439.088977 133.471354 
L 436.161454 133.780104 
L 433.449221 133.930475 
L 430.960033 133.936605 
L 428.699476 133.811806 
L 426.670977 133.568564 
L 424.875794 133.218535 
L 423.313023 132.772549 
L 421.979536 132.240555 
L 420.866594 131.627059 
L 419.968445 130.934821 
L 419.282144 130.167549 
L 418.804403 129.327899 
L 418.53159 128.417472 
L 418.459728 127.436817 
L 418.584497 126.385426 
L 418.901234 125.261741 
L 419.40493 124.063145 
L 420.090234 122.785973 
L 421.984589 119.981361 
L 424.584827 116.83083 
L 427.92551 113.30963 
L 432.022487 109.415138 
L 436.870615 105.17069 
L 442.443761 100.625581 
L 448.69233 95.855651 
L 455.5444 91.014553 
L 459.173966 88.651358 
L 462.914608 86.37907 
L 466.738521 84.241265 
L 470.610421 82.284781 
L 474.487546 80.559713 
L 478.319656 79.119419 
L 482.049034 78.020513 
L 485.610484 77.322872 
L 488.931446 77.089633 
L 491.961376 77.377734 
L 494.632967 78.205397 
L 496.864129 79.571646 
L 498.587448 81.463954 
L 499.750186 83.858248 
L 500.314282 86.718905 
L 500.256351 89.998753 
L 499.567684 93.639072 
L 498.25425 97.569592 
L 496.328292 101.69752 
L 493.804661 105.891457 
L 490.740874 110.054313 
L 487.200777 114.103283 
L 483.251866 117.967183 
L 478.965276 121.586443 
L 474.41579 124.913111 
L 469.681834 127.910852 
L 464.845478 130.554947 
L 459.990266 132.835716 
L 455.180578 134.774722 
L 450.470571 136.38881 
L 445.908104 137.695793 
L 441.533759 138.71724 
L 437.380841 139.478477 
L 433.475379 140.008584 
L 429.836124 140.340401 
L 426.474543 140.510272 
L 423.394204 140.537874 
L 420.592898 140.435724 
L 418.066758 140.221067 
L 415.810595 139.908932 
L 413.817904 139.512136 
L 412.080858 139.041284 
L 410.590312 138.504768 
L 409.335801 137.908767 
L 408.304196 137.256904 
L 407.483576 136.551122 
L 406.868061 135.793347 
L 406.451773 134.984275 
L 406.228661 134.123329 
L 406.192501 133.208658 
L 406.336895 132.237142 
L 406.655272 131.204387 
L 407.14089 130.104729 
L 408.591754 127.678554 
L 410.697738 124.915546 
L 413.489642 121.766585 
L 416.999353 118.181238 
L 421.261748 114.109605 
L 426.308954 109.520084 
L 432.199029 104.40456 
L 439.012325 98.742152 
L 446.760082 92.629184 
L 455.379882 86.287427 
L 459.977152 83.134359 
L 464.73565 80.064102 
L 469.626858 77.13966 
L 474.610471 74.420907 
L 479.623899 71.998525 
L 484.597295 69.988488 
L 489.452117 68.494513 
L 494.101099 67.607917 
L 498.448247 67.407614 
L 502.388846 67.960118 
L 505.809454 69.319542 
L 508.592611 71.534543 
L 510.658931 74.646702 
L 511.913688 78.532713 
L 512.282828 83.048077 
L 511.725607 88.057108 
L 510.234585 93.432924 
L 507.835628 99.057449 
L 504.587906 104.821417 
L 500.583896 110.624369 
L 495.909006 116.312947 
L 490.631087 121.679813 
L 484.878697 126.63087 
L 478.77615 131.099355 
L 472.442301 135.044026 
L 465.990546 138.44916 
L 459.52882 141.324552 
L 453.158887 143.704734 
L 446.961384 145.633902 
L 440.994866 147.156558 
L 435.307124 148.318347 
L 429.935421 149.165541 
L 424.906492 149.745041 
L 420.236544 150.104376 
L 415.931254 150.291628 
L 408.390315 150.276158 
L 402.194034 149.901241 
L 397.214982 149.325956 
L 393.295056 148.653466 
L 390.27861 147.945719 
L 388.02395 147.236976 
L 386.393652 146.537893 
L 385.278875 145.846053 
L 384.598135 145.152032 
L 384.277985 144.436846 
L 384.265672 143.67721 
L 384.53564 142.850049 
L 385.069271 141.926027 
L 386.347383 140.280895 
L 388.249942 138.211127 
L 393.122737 133.356699 
L 405.23343 121.718504 
L 416.47281 111.168224 
L 432.369181 96.640355 
L 442.450435 87.739245 
L 448.059893 82.960786 
L 454.052297 78.026949 
L 460.425841 73.000253 
L 467.17503 67.955301 
L 474.258018 62.980839 
L 481.600711 58.241441 
L 489.127628 53.941472 
L 496.730265 50.290769 
L 504.267061 47.504626 
L 511.563397 45.803796 
L 518.411597 45.414489 
L 524.5763 46.569888 
L 529.853485 49.456315 
L 533.97707 54.059651 
L 536.714806 60.280869 
L 537.900994 67.961025 
L 537.43648 76.881255 
L 535.288655 86.76278 
L 531.483633 97.251726 
L 526.078049 107.83322 
L 519.248156 118.093728 
L 511.206158 127.717042 
L 502.183812 136.463128 
L 492.432427 144.168137 
L 482.222865 150.744396 
L 471.830506 156.191254 
L 461.457922 160.603579 
L 451.280225 164.074397 
L 441.442014 166.710573 
L 432.054874 168.635775 
L 423.197382 169.990472 
L 414.915135 170.931375 
L 407.224814 171.560082 
L 400.121288 171.937589 
L 387.605621 172.221584 
L 364.652565 172.393855 
L 357.947355 172.806797 
L 354.972671 173.144166 
L 352.197018 173.580685 
L 349.578928 174.12277 
L 347.075505 174.774835 
L 344.649922 175.538242 
L 342.283293 176.414082 
L 339.954741 177.405367 
L 335.326656 179.740707 
L 330.592549 182.54568 
L 325.57937 185.802901 
L 317.312384 191.478507 
L 304.649978 200.173437 
L 297.601096 204.680999 
L 290.199521 209.021123 
L 286.419711 211.004714 
L 282.625529 212.793769 
L 278.853996 214.337819 
L 275.148769 215.588151 
L 271.560135 216.497809 
L 268.145014 217.021593 
L 264.96696 217.116063 
L 262.096158 216.739534 
L 259.609427 215.852077 
L 257.556966 214.40537 
L 255.983761 212.425464 
L 254.949866 209.982727 
L 254.497801 207.144982 
L 254.652547 203.977512 
L 255.421552 200.543054 
L 256.794726 196.901803 
L 258.744444 193.11141 
L 261.225544 189.226985 
L 264.176367 185.302514 
L 267.570402 181.462603 
L 271.354331 177.80532 
L 275.449144 174.381162 
L 279.779279 171.230327 
L 284.272633 168.382712 
L 288.860551 165.857911 
L 293.477833 163.665216 
L 298.062733 161.803618 
L 302.556955 160.261809 
L 306.906255 159.016092 
L 311.071409 158.034182 
L 315.026777 157.292902 
L 318.75125 156.769839 
L 322.228004 156.442682 
L 325.444499 156.289227 
L 328.392476 156.287372 
L 331.067964 156.415121 
L 333.47127 156.650579 
L 335.608845 156.978264 
L 337.490633 157.392979 
L 339.123964 157.885435 
L 340.516513 158.447968 
L 341.676344 159.074639 
L 342.611906 159.761233 
L 343.332032 160.50526 
L 343.845946 161.305953 
L 344.163256 162.164272 
L 344.294578 163.08275 
L 344.246587 164.063676 
L 344.019496 165.10915 
L 343.613533 166.222033 
L 343.029147 167.405963 
L 341.328018 170.0054 
L 338.924162 172.952102 
L 335.829185 176.303128 
L 332.024507 180.100966 
L 327.440751 184.385646 
L 322.029686 189.178685 
L 315.764323 194.451431 
L 308.638911 200.125056 
L 300.68702 206.067711 
L 296.430055 209.063883 
L 292.001395 212.012247 
L 287.425388 214.856156 
L 282.73755 217.532625 
L 277.984563 219.972336 
L 273.22428 222.099637 
L 268.52572 223.832539 
L 263.969072 225.082721 
L 259.645692 225.755527 
L 255.639852 225.757793 
L 252.037627 225.036054 
L 248.959066 223.565843 
L 246.506011 221.345376 
L 244.760879 218.395656 
L 243.786662 214.760472 
L 243.626925 210.506398 
L 244.30581 205.722793 
L 245.828704 200.522571 
L 248.196662 195.073577 
L 251.359919 189.550035 
L 255.242897 184.096498 
L 259.760757 178.836802 
L 264.819403 173.874067 
L 270.315478 169.290697 
L 276.136366 165.148379 
L 282.16019 161.488084 
L 288.266809 158.324352 
L 294.368855 155.637899 
L 300.382224 153.405881 
L 306.234517 151.59843 
L 311.865844 150.178186 
L 317.228823 149.100293 
L 322.288586 148.312405 
L 327.022764 147.761191 
L 331.420323 147.418115 
L 335.477009 147.249404 
L 339.19357 147.223567 
L 345.634103 147.494263 
L 350.837573 148.057031 
L 354.931981 148.794659 
L 358.059269 149.633592 
L 360.358609 150.535198 
L 361.939514 151.481703 
L 362.907223 152.474978 
L 363.193631 152.995121 
L 363.361169 153.535051 
L 363.413945 154.097217 
L 363.190817 155.301736 
L 362.552496 156.642681 
L 361.522229 158.165244 
L 360.098386 159.918993 
L 357.154128 163.09916 
L 351.472337 168.718114 
L 340.680636 178.879966 
L 331.599012 187.22115 
L 324.195422 193.843599 
L 315.560098 201.327563 
L 305.624106 209.576012 
L 300.144259 213.92888 
L 294.334112 218.365164 
L 288.219767 222.806633 
L 281.841653 227.153877 
L 275.254522 231.286309 
L 268.527449 235.062163 
L 261.743297 238.326279 
L 255.012374 240.928015 
L 248.488609 242.634111 
L 242.336789 243.242435 
L 236.728873 242.601238 
L 231.843991 240.609152 
L 227.868442 237.215188 
L 224.995699 232.418741 
L 223.391648 226.222181 
L 223.15361 218.846299 
L 224.352795 210.692577 
L 226.999804 202.105958 
L 231.044165 193.373164 
L 236.374332 184.722692 
L 242.81769 176.324818 
L 250.149905 168.308775 
L 258.225773 160.985405 
L 266.848073 154.521429 
L 275.805215 148.968644 
L 284.905482 144.325917 
L 293.977036 140.539178 
L 302.869114 137.510451 
L 311.466273 135.154511 
L 319.683888 133.376264 
L 327.458259 132.081259 
L 334.746453 131.178721 
L 341.5263 130.581556 
L 347.793253 130.21108 
L 358.840725 129.928618 
L 372.073466 129.998158 
L 379.035614 130.011451 
L 384.862481 129.830064 
L 389.817751 129.368161 
L 394.13972 128.565841 
L 396.140946 128.023958 
L 398.07862 127.383875 
L 398.07862 127.383875 
" clip-path="url(#p103861c249)" style="fill: none; stroke-dasharray: 22.4,5.6,3.5,5.6; stroke-dashoffset: 0; stroke: #0000ff; stroke-opacity: 0.8; stroke-width: 3.5"/>
   </g>
   <g id="patch_3">
    <path d="M 48.982813 530.438125 
L 48.982813 22.318125 
" style="fill: none; stroke: #000000; stroke-width: 0.8; stroke-linejoin: miter; stroke-linecap: square"/>
   </g>
   <g id="patch_4">
    <path d="M 561.182812 530.438125 
L 561.182812 22.318125 
" style="fill: none; stroke: #000000; stroke-width: 0.8; stroke-linejoin: miter; stroke-linecap: square"/>
   </g>
   <g id="patch_5">
    <path d="M 48.982813 530.438125 
L 561.182812 530.438125 
" style="fill: none; stroke: #000000; stroke-width: 0.8; stroke-linejoin: miter; stroke-linecap: square"/>
   </g>
   <g id="patch_6">
    <path d="M 48.982813 22.318125 
L 561.182812 22.318125 
" style="fill: none; stroke: #000000; stroke-width: 0.8; stroke-linejoin: miter; stroke-linecap: square"/>
   </g>
   <g id="line2d_14">
    <path d="M 475.061584 100.326391 
L 477.353881 100.073217 
L 479.550204 99.960027 
L 481.623864 99.994005 
L 483.54199 100.189501 
L 485.265531 100.568037 
L 486.74634 101.161009 
L 487.922542 102.011112 
L 488.784957 103.107957 
L 489.335705 104.43172 
L 489.577775 105.963424 
L 489.515022 107.684935 
L 489.15217 109.578966 
L 488.494813 111.629076 
L 487.549409 113.819668 
L 486.323286 116.135991 
L 484.824641 118.56414 
L 483.062538 121.091055 
L 481.046871 123.70453 
L 478.73951 126.40125 
L 476.167868 129.15457 
L 470.568584 134.693519 
L 450.4682 153.754727 
L 441.208424 163.172348 
L 437.961828 166.647356 
L 434.658638 170.374579 
L 431.296615 174.445326 
L 427.866081 178.971981 
L 424.349917 184.088008 
L 420.723566 189.947944 
L 416.955031 196.727406 
L 413.004875 204.623086 
L 408.826221 213.852753 
L 404.357642 224.584483 
L 399.605201 236.841766 
L 394.609423 250.90579 
L 389.255062 267.083622 
L 383.262729 285.685066 
L 368.20994 331.784704 
L 358.808827 360.614512 
L 347.181833 393.228613 
L 331.867738 428.523337 
L 310.749767 463.526825 
L 281.274666 492.025272 
L 241.047601 507.341761 
L 189.398951 501.592785 
L 133.607263 468.276413 
L 89.317699 410.718036 
L 72.264631 343.543826 
L 85.92457 282.236765 
L 120.754496 234.687147 
L 164.198655 201.713741 
L 206.668976 179.964736 
L 244.015705 166.448186 
L 274.788264 158.024654 
L 299.321754 152.620397 
L 318.497463 149.649132 
L 333.185413 148.005392 
L 344.229359 146.9459 
L 352.592006 146.433806 
L 363.445276 146.232479 
L 369.552856 146.504084 
L 372.800007 146.859904 
L 374.680044 147.224913 
L 376.063692 147.770932 
L 376.250736 148.230003 
L 376.127659 148.420038 
L 376.031129 148.565895 
L 375.748371 148.800135 
L 375.563006 148.955805 
L 375.179784 149.231146 
L 375.000155 149.425519 
L 374.192111 150.080119 
L 373.696488 150.567545 
L 372.416799 151.573754 
L 370.894141 153.141138 
L 366.828384 156.747011 
L 361.417779 162.114088 
L 358.798113 164.735955 
L 355.816687 168.122524 
L 352.415317 172.506339 
L 348.440868 178.111472 
L 326.08992 210.601971 
L 321.413452 217.198387 
L 316.224529 224.206819 
L 310.432639 231.531595 
L 303.929651 239.050248 
L 296.589822 246.613516 
L 288.322815 254.075432 
L 279.173754 261.117144 
L 269.152054 267.126677 
L 258.411074 271.556141 
L 247.26172 273.938885 
L 236.172447 273.8895 
L 225.717167 271.137436 
L 216.670877 265.781076 
L 209.831617 258.159649 
L 205.716736 248.722188 
L 204.559078 238.026802 
L 206.306986 226.740669 
L 210.905333 215.743759 
L 217.908343 205.391691 
L 226.575591 195.735378 
L 236.310472 186.940903 
L 246.660206 179.289512 
L 257.283578 173.08465 
L 267.704929 167.837303 
L 277.645511 163.205111 
L 286.976813 159.079972 
L 295.681186 155.492885 
L 303.845026 152.607001 
L 311.462625 150.429355 
L 324.803421 147.273785 
L 335.622877 144.717608 
L 344.510389 142.593619 
L 373.655359 136.191191 
L 378.569277 134.776996 
L 386.406501 132.129012 
L 389.481251 130.890885 
L 392.561272 129.467946 
L 395.754749 127.817113 
L 399.15733 125.884013 
L 402.852126 123.602986 
L 406.909712 120.897086 
L 411.365536 117.67331 
L 416.115062 113.776007 
L 434.686481 97.73796 
L 442.839198 91.314102 
L 447.286807 88.031806 
L 451.960103 84.760255 
L 456.834177 81.549673 
L 461.877283 78.455875 
L 467.076855 75.557258 
L 472.462665 72.988515 
L 477.973364 70.859736 
L 483.515303 69.279311 
L 488.96726 68.356505 
L 494.180437 68.201448 
L 499.08492 68.844873 
L 503.535923 70.277045 
L 507.267934 72.532556 
L 510.106179 75.583958 
L 511.96718 79.341427 
L 512.854622 83.653187 
L 512.6974 88.337315 
L 511.538986 93.2226 
L 509.501703 98.162001 
L 506.698495 103.039058 
L 503.232924 107.767884 
L 499.19917 112.293171 
L 494.68203 116.590185 
L 489.756923 120.664773 
L 484.490165 124.553064 
L 479.014584 128.243995 
L 473.470465 131.72176 
L 467.939823 135.007452 
L 457.17033 141.037691 
L 447.055426 146.306267 
L 442.285495 148.602906 
L 425.05378 156.425181 
L 417.095022 160.332038 
L 409.37838 164.517593 
L 405.631828 166.726955 
L 401.994841 169.001429 
L 398.478009 171.399454 
L 394.992256 174.036474 
L 387.800779 179.880675 
L 371.215935 193.774088 
L 366.51353 197.909497 
L 361.616241 202.45411 
L 351.066942 213.045477 
L 338.779382 225.457699 
L 331.826302 232.16082 
L 324.253027 239.037935 
L 315.999273 245.9343 
L 307.004923 252.665781 
L 297.210263 259.019162 
L 286.703122 264.808112 
L 275.639111 269.454177 
L 264.181899 272.338781 
L 252.61558 273.06432 
L 241.344663 271.454154 
L 230.882738 267.498803 
L 221.905705 261.089526 
L 215.299441 252.801484 
L 211.61953 243.253644 
L 211.024238 232.951263 
L 213.274516 222.285888 
L 217.944657 211.68342 
L 224.764461 201.750559 
L 233.115541 192.725696 
L 242.441223 184.737027 
L 252.266901 177.81711 
L 262.200043 171.902867 
L 271.923139 166.803212 
L 281.211243 162.205063 
L 290.023947 158.232429 
L 298.337594 154.981024 
L 306.122175 152.433882 
L 313.341328 150.461357 
L 344.821693 142.711242 
L 355.071192 140.357271 
L 365.272698 137.797683 
L 371.529512 136.322372 
L 376.711352 134.72881 
L 385.035845 131.833882 
L 388.380893 130.520747 
L 391.629244 128.996659 
L 394.943911 127.20962 
L 400.383046 123.937162 
L 404.465982 121.259088 
L 408.964249 118.073651 
L 411.340712 116.240686 
L 416.325714 111.977805 
L 425.138453 104.23639 
L 432.266249 98.348608 
L 440.477118 92.065626 
L 449.6613 85.589352 
L 454.540538 82.352097 
L 459.558913 79.165438 
L 464.761403 76.148855 
L 470.143906 73.425885 
L 475.659958 71.108159 
L 481.238304 69.30493 
L 486.782897 68.12307 
L 492.1729 67.667069 
L 497.263016 68.038713 
L 501.93608 69.254314 
L 506.016015 71.270288 
L 509.313742 74.050072 
L 511.691954 77.527231 
L 513.065118 81.605466 
L 513.399473 86.158609 
L 512.713027 91.030628 
L 510.987362 96.031598 
L 508.208768 101.000549 
L 504.626516 105.848904 
L 500.455263 110.512223 
L 495.863874 114.948802 
L 490.975421 119.139667 
L 485.867182 123.088581 
L 480.570644 126.822039 
L 475.087989 130.383518 
L 469.560743 133.760266 
L 464.083622 136.93266 
L 458.712186 139.892664 
L 448.451254 145.16512 
L 438.992988 149.600371 
L 426.247389 155.323666 
L 418.307711 159.228025 
L 410.616884 163.368163 
L 403.222551 167.749295 
L 399.695484 170.031172 
L 396.236107 172.506347 
L 389.194191 178.004673 
L 377.496944 187.584982 
L 368.63904 195.137491 
L 363.90138 199.413364 
L 358.997839 204.120597 
L 342.429879 221.136286 
L 335.789694 227.61507 
L 328.436557 234.335503 
L 320.340789 241.152628 
L 311.514597 247.889568 
L 302.012076 254.337525 
L 291.929206 260.255782 
L 281.380576 265.382588 
L 270.277994 269.365081 
L 258.870198 271.495311 
L 247.553291 271.334513 
L 236.765641 268.82144 
L 227.085958 263.979159 
L 219.374821 256.995495 
L 214.235849 248.408465 
L 211.899139 238.639035 
L 212.338534 228.102443 
L 215.656065 217.637769 
L 221.203925 207.503369 
L 228.358626 197.88901 
L 236.644867 189.023101 
L 245.73553 181.1727 
L 255.451683 174.643504 
L 265.381555 169.219 
L 274.96516 164.350426 
L 284.107165 160.104637 
L 292.745387 156.517026 
L 300.848465 153.58806 
L 308.41587 151.283281 
L 321.76096 147.889699 
L 341.904676 142.861896 
L 352.918882 140.339419 
L 366.121701 136.934396 
L 372.421854 135.321457 
L 376.068264 134.166601 
L 384.84694 131.036361 
L 388.417048 129.642345 
L 391.944246 128.041395 
L 395.496613 126.155225 
L 399.246861 123.92903 
L 403.31934 121.29115 
L 407.799904 118.155394 
L 412.735912 114.421036 
L 418.136492 109.975379 
L 430.914039 99.077229 
L 438.793507 92.828829 
L 443.143141 89.593708 
L 447.751407 86.338046 
L 452.593825 83.111057 
L 457.635105 79.969279 
L 462.829154 76.976576 
L 468.173342 74.231597 
L 473.699677 71.86599 
L 479.333211 69.987375 
L 479.333211 69.987375 
" clip-path="url(#p103861c249)" style="fill: none; stroke-dasharray: 3.5,5.775; stroke-dashoffset: 0; stroke: #008000; stroke-opacity: 0.8; stroke-width: 3.5"/>
   </g>
   <g id="text_14">
    <!-- Phase Portrait (x0 vs x1) -->
    <g transform="translate(231.391562 16.318125) scale(0.12 -0.12)">
     <defs>
      <path id="DejaVuSans-50" d="M 1259 4147 
L 1259 2394 
L 2053 2394 
Q 2494 2394 2734 2622 
Q 2975 2850 2975 3272 
Q 2975 3691 2734 3919 
Q 2494 4147 2053 4147 
L 1259 4147 
z
M 628 4666 
L 2053 4666 
Q 2838 4666 3239 4311 
Q 3641 3956 3641 3272 
Q 3641 2581 3239 2228 
Q 2838 1875 2053 1875 
L 1259 1875 
L 1259 0 
L 628 0 
L 628 4666 
z
" transform="scale(0.015625)"/>
      <path id="DejaVuSans-68" d="M 3513 2113 
L 3513 0 
L 2938 0 
L 2938 2094 
Q 2938 2591 2744 2837 
Q 2550 3084 2163 3084 
Q 1697 3084 1428 2787 
Q 1159 2491 1159 1978 
L 1159 0 
L 581 0 
L 581 4863 
L 1159 4863 
L 1159 2956 
Q 1366 3272 1645 3428 
Q 1925 3584 2291 3584 
Q 2894 3584 3203 3211 
Q 3513 2838 3513 2113 
z
" transform="scale(0.015625)"/>
      <path id="DejaVuSans-61" d="M 2194 1759 
Q 1497 1759 1228 1600 
Q 959 1441 959 1056 
Q 959 750 1161 570 
Q 1363 391 1709 391 
Q 2188 391 2477 730 
Q 2766 1069 2766 1631 
L 2766 1759 
L 2194 1759 
z
M 3341 1997 
L 3341 0 
L 2766 0 
L 2766 531 
Q 2569 213 2275 61 
Q 1981 -91 1556 -91 
Q 1019 -91 701 211 
Q 384 513 384 1019 
Q 384 1609 779 1909 
Q 1175 2209 1959 2209 
L 2766 2209 
L 2766 2266 
Q 2766 2663 2505 2880 
Q 2244 3097 1772 3097 
Q 1472 3097 1187 3025 
Q 903 2953 641 2809 
L 641 3341 
Q 956 3463 1253 3523 
Q 1550 3584 1831 3584 
Q 2591 3584 2966 3190 
Q 3341 2797 3341 1997 
z
" transform="scale(0.015625)"/>
      <path id="DejaVuSans-73" d="M 2834 3397 
L 2834 2853 
Q 2591 2978 2328 3040 
Q 2066 3103 1784 3103 
Q 1356 3103 1142 2972 
Q 928 2841 928 2578 
Q 928 2378 1081 2264 
Q 1234 2150 1697 2047 
L 1894 2003 
Q 2506 1872 2764 1633 
Q 3022 1394 3022 966 
Q 3022 478 2636 193 
Q 2250 -91 1575 -91 
Q 1294 -91 989 -36 
Q 684 19 347 128 
L 347 722 
Q 666 556 975 473 
Q 1284 391 1588 391 
Q 1994 391 2212 530 
Q 2431 669 2431 922 
Q 2431 1156 2273 1281 
Q 2116 1406 1581 1522 
L 1381 1569 
Q 847 1681 609 1914 
Q 372 2147 372 2553 
Q 372 3047 722 3315 
Q 1072 3584 1716 3584 
Q 2034 3584 2315 3537 
Q 2597 3491 2834 3397 
z
" transform="scale(0.015625)"/>
      <path id="DejaVuSans-65" d="M 3597 1894 
L 3597 1613 
L 953 1613 
Q 991 1019 1311 708 
Q 1631 397 2203 397 
Q 2534 397 2845 478 
Q 3156 559 3463 722 
L 3463 178 
Q 3153 47 2828 -22 
Q 2503 -91 2169 -91 
Q 1331 -91 842 396 
Q 353 884 353 1716 
Q 353 2575 817 3079 
Q 1281 3584 2069 3584 
Q 2775 3584 3186 3129 
Q 3597 2675 3597 1894 
z
M 3022 2063 
Q 3016 2534 2758 2815 
Q 2500 3097 2075 3097 
Q 1594 3097 1305 2825 
Q 1016 2553 972 2059 
L 3022 2063 
z
" transform="scale(0.015625)"/>
      <path id="DejaVuSans-20" transform="scale(0.015625)"/>
      <path id="DejaVuSans-6f" d="M 1959 3097 
Q 1497 3097 1228 2736 
Q 959 2375 959 1747 
Q 959 1119 1226 758 
Q 1494 397 1959 397 
Q 2419 397 2687 759 
Q 2956 1122 2956 1747 
Q 2956 2369 2687 2733 
Q 2419 3097 1959 3097 
z
M 1959 3584 
Q 2709 3584 3137 3096 
Q 3566 2609 3566 1747 
Q 3566 888 3137 398 
Q 2709 -91 1959 -91 
Q 1206 -91 779 398 
Q 353 888 353 1747 
Q 353 2609 779 3096 
Q 1206 3584 1959 3584 
z
" transform="scale(0.015625)"/>
      <path id="DejaVuSans-72" d="M 2631 2963 
Q 2534 3019 2420 3045 
Q 2306 3072 2169 3072 
Q 1681 3072 1420 2755 
Q 1159 2438 1159 1844 
L 1159 0 
L 581 0 
L 581 3500 
L 1159 3500 
L 1159 2956 
Q 1341 3275 1631 3429 
Q 1922 3584 2338 3584 
Q 2397 3584 2469 3576 
Q 2541 3569 2628 3553 
L 2631 2963 
z
" transform="scale(0.015625)"/>
      <path id="DejaVuSans-74" d="M 1172 4494 
L 1172 3500 
L 2356 3500 
L 2356 3053 
L 1172 3053 
L 1172 1153 
Q 1172 725 1289 603 
Q 1406 481 1766 481 
L 2356 481 
L 2356 0 
L 1766 0 
Q 1100 0 847 248 
Q 594 497 594 1153 
L 594 3053 
L 172 3053 
L 172 3500 
L 594 3500 
L 594 4494 
L 1172 4494 
z
" transform="scale(0.015625)"/>
      <path id="DejaVuSans-69" d="M 603 3500 
L 1178 3500 
L 1178 0 
L 603 0 
L 603 3500 
z
M 603 4863 
L 1178 4863 
L 1178 4134 
L 603 4134 
L 603 4863 
z
" transform="scale(0.015625)"/>
      <path id="DejaVuSans-28" d="M 1984 4856 
Q 1566 4138 1362 3434 
Q 1159 2731 1159 2009 
Q 1159 1288 1364 580 
Q 1569 -128 1984 -844 
L 1484 -844 
Q 1016 -109 783 600 
Q 550 1309 550 2009 
Q 550 2706 781 3412 
Q 1013 4119 1484 4856 
L 1984 4856 
z
" transform="scale(0.015625)"/>
      <path id="DejaVuSans-76" d="M 191 3500 
L 800 3500 
L 1894 563 
L 2988 3500 
L 3597 3500 
L 2284 0 
L 1503 0 
L 191 3500 
z
" transform="scale(0.015625)"/>
      <path id="DejaVuSans-29" d="M 513 4856 
L 1013 4856 
Q 1481 4119 1714 3412 
Q 1947 2706 1947 2009 
Q 1947 1309 1714 600 
Q 1481 -109 1013 -844 
L 513 -844 
Q 928 -128 1133 580 
Q 1338 1288 1338 2009 
Q 1338 2731 1133 3434 
Q 928 4138 513 4856 
z
" transform="scale(0.015625)"/>
     </defs>
     <use xlink:href="#DejaVuSans-50"/>
     <use xlink:href="#DejaVuSans-68" transform="translate(60.302734 0)"/>
     <use xlink:href="#DejaVuSans-61" transform="translate(123.681641 0)"/>
     <use xlink:href="#DejaVuSans-73" transform="translate(184.960938 0)"/>
     <use xlink:href="#DejaVuSans-65" transform="translate(237.060547 0)"/>
     <use xlink:href="#DejaVuSans-20" transform="translate(298.583984 0)"/>
     <use xlink:href="#DejaVuSans-50" transform="translate(330.371094 0)"/>
     <use xlink:href="#DejaVuSans-6f" transform="translate(387.048828 0)"/>
     <use xlink:href="#DejaVuSans-72" transform="translate(448.230469 0)"/>
     <use xlink:href="#DejaVuSans-74" transform="translate(489.34375 0)"/>
     <use xlink:href="#DejaVuSans-72" transform="translate(528.552734 0)"/>
     <use xlink:href="#DejaVuSans-61" transform="translate(569.666016 0)"/>
     <use xlink:href="#DejaVuSans-69" transform="translate(630.945312 0)"/>
     <use xlink:href="#DejaVuSans-74" transform="translate(658.728516 0)"/>
     <use xlink:href="#DejaVuSans-20" transform="translate(697.9375 0)"/>
     <use xlink:href="#DejaVuSans-28" transform="translate(729.724609 0)"/>
     <use xlink:href="#DejaVuSans-78" transform="translate(768.738281 0)"/>
     <use xlink:href="#DejaVuSans-30" transform="translate(827.917969 0)"/>
     <use xlink:href="#DejaVuSans-20" transform="translate(891.541016 0)"/>
     <use xlink:href="#DejaVuSans-76" transform="translate(923.328125 0)"/>
     <use xlink:href="#DejaVuSans-73" transform="translate(982.507812 0)"/>
     <use xlink:href="#DejaVuSans-20" transform="translate(1034.607422 0)"/>
     <use xlink:href="#DejaVuSans-78" transform="translate(1066.394531 0)"/>
     <use xlink:href="#DejaVuSans-31" transform="translate(1125.574219 0)"/>
     <use xlink:href="#DejaVuSans-29" transform="translate(1189.197266 0)"/>
    </g>
   </g>
   <g id="line2d_15">
    <path d="M 475.061584 100.326391 
L 475.360449 97.492982 
L 476.195708 94.894423 
L 477.473619 92.540951 
L 479.088992 90.438851 
L 480.921831 88.584847 
L 482.848644 86.953573 
L 484.831305 85.609818 
L 486.837022 84.62124 
L 488.822811 84.038023 
L 490.735498 83.892881 
L 492.511718 84.201051 
L 494.077912 84.9603 
L 495.350332 86.150922 
L 496.23504 87.735736 
L 496.644573 89.680082 
L 496.603286 92.026706 
L 496.094564 94.68086 
L 495.101734 97.537536 
L 493.625533 100.508982 
L 491.684115 103.524704 
L 489.31305 106.531465 
L 486.565321 109.493286 
L 483.511325 112.391445 
L 480.238876 115.224476 
L 476.8532 118.008172 
L 473.327483 120.661819 
L 469.603273 123.075315 
L 465.749644 125.238861 
L 461.831168 127.148458 
L 457.907911 128.805906 
L 454.035439 130.218803 
L 450.264811 131.400547 
L 446.642583 132.370334 
L 443.210809 133.153162 
L 439.994325 133.771555 
L 436.968776 134.216216 
L 434.131248 134.486923 
L 431.484604 134.588988 
L 429.034861 134.531843 
L 426.791188 134.329038 
L 424.765903 133.998242 
L 422.974479 133.561241 
L 421.435539 133.043942 
L 420.168037 132.475209 
L 419.152864 131.862943 
L 418.368077 131.19908 
L 417.799087 130.47651 
L 417.433375 129.688508 
L 417.260495 128.828728 
L 417.272073 127.891208 
L 417.461803 126.87037 
L 417.825456 125.761017 
L 418.360871 124.558336 
L 419.06796 123.257894 
L 419.957204 121.860745 
L 422.309452 118.789273 
L 425.405009 115.344317 
L 429.219946 111.525776 
L 433.732968 107.338916 
L 438.929127 102.788131 
L 444.896096 97.923142 
L 448.204008 95.428146 
L 451.726051 92.92782 
L 455.446585 90.452763 
L 459.338756 88.036252 
L 463.36449 85.714238 
L 467.474498 83.525355 
L 471.608273 81.510908 
L 475.694089 79.714884 
L 479.651858 78.182752 
L 483.462155 76.956481 
L 487.098717 76.126694 
L 490.510971 75.776989 
L 493.642502 75.966806 
L 496.431053 76.731424 
L 498.808524 78.081963 
L 500.700974 80.005379 
L 502.028621 82.464473 
L 502.758539 85.448988 
L 502.893959 88.941972 
L 502.376703 92.829206 
L 501.17592 97.000657 
L 499.289345 101.351805 
L 496.743291 105.783643 
L 493.592659 110.202681 
L 489.920928 114.520941 
L 485.831199 118.656783 
L 481.367102 122.537691 
L 476.579153 126.097619 
L 471.535432 129.288508 
L 466.315023 132.081732 
L 461.008013 134.468102 
L 455.715488 136.457863 
L 450.549541 138.080697 
L 445.631162 139.386769 
L 441.011985 140.445322 
L 436.676349 141.277985 
L 432.61373 141.894972 
L 428.816545 142.308713 
L 425.280159 142.533848 
L 422.002875 142.587233 
L 418.985945 142.487936 
L 416.233731 142.257345 
L 411.591754 141.534683 
L 408.078091 140.613121 
L 405.57119 139.564025 
L 404.639061 138.985833 
L 403.882833 138.355918 
L 403.270335 137.655006 
L 402.798491 136.877832 
L 402.480715 136.035735 
L 402.327036 135.137973 
L 402.345481 134.191008 
L 402.542071 133.198501 
L 402.920826 132.16132 
L 403.48376 131.07753 
L 404.230884 129.942401 
L 406.267735 127.485213 
L 408.999063 124.697491 
L 414.414545 119.673917 
L 429.839495 105.806833 
L 436.588084 100.021683 
L 444.404395 93.735988 
L 458.025259 83.502252 
L 462.968728 80.064056 
L 468.128628 76.764733 
L 473.473229 73.688969 
L 478.940895 70.915636 
L 484.440088 68.517799 
L 489.849361 66.56271 
L 495.017366 65.111811 
L 499.845824 64.300717 
L 504.329356 64.324444 
L 508.374346 65.244458 
L 511.881077 67.089099 
L 514.745 69.854964 
L 516.856733 73.506906 
L 518.102062 77.978033 
L 518.361939 83.169709 
L 517.512485 88.951554 
L 515.435437 95.154865 
L 512.232445 101.526434 
L 508.109894 107.912137 
L 503.235126 114.193959 
L 497.752534 120.258646 
L 491.783559 125.997709 
L 485.426696 131.307418 
L 478.757486 136.088811 
L 471.828522 140.247686 
L 464.684793 143.705258 
L 457.557493 146.548951 
L 450.56445 148.840627 
L 443.767949 150.623329 
L 437.236287 151.959644 
L 431.043771 152.931706 
L 425.270642 153.641141 
L 419.948355 154.163022 
L 415.023248 154.498748 
L 410.457721 154.657018 
L 406.231808 154.658274 
L 398.807371 154.330835 
L 388.114095 153.457462 
L 379.993825 152.686235 
L 376.706177 152.370284 
L 375.091055 152.392337 
L 373.79675 152.638813 
L 372.071998 153.332103 
L 368.790108 155.037693 
L 366.409382 156.542881 
L 364.625924 157.892399 
L 361.511735 160.604565 
L 357.635408 164.326856 
L 340.822438 180.805634 
L 334.295475 186.929709 
L 317.393369 202.213654 
L 306.71069 211.42373 
L 300.700278 216.34983 
L 294.256013 221.40699 
L 287.41506 226.505971 
L 280.236993 231.535932 
L 272.803798 236.364428 
L 265.215078 240.840926 
L 257.511524 244.819728 
L 249.813829 248.035694 
L 242.295902 250.219341 
L 235.151456 251.134317 
L 228.594008 250.5774 
L 222.856882 248.378497 
L 218.191812 244.398073 
L 214.792148 238.49377 
L 212.874518 230.941645 
L 212.623148 222.14041 
L 214.132242 212.45254 
L 217.405971 202.204274 
L 222.358482 191.685617 
L 228.813884 181.150366 
L 236.499228 171.017417 
L 245.274833 161.726027 
L 255.001961 153.472588 
L 265.421168 146.355367 
L 276.1523 140.374497 
L 286.731308 135.441045 
L 297.126556 131.50501 
L 307.286775 128.469531 
L 317.08636 126.202299 
L 326.411817 124.558444 
L 335.161765 123.380536 
L 343.306125 122.556093 
L 350.895317 122.048603 
L 357.926825 121.777773 
L 370.334516 121.65371 
L 385.053074 121.590466 
L 392.841862 121.279183 
L 399.552315 120.742891 
L 405.491144 119.9233 
L 408.236226 119.371905 
L 410.858702 118.709385 
L 413.379289 117.92865 
L 415.819116 117.024076 
L 418.200544 115.992869 
L 420.547157 114.835063 
L 425.236427 112.15394 
L 430.074027 109.03257 
L 437.880174 103.624728 
L 446.683134 97.603871 
L 453.27383 93.504988 
L 460.386852 89.606012 
L 467.637754 86.051301 
L 471.203882 84.471029 
L 474.682149 83.075568 
L 478.043136 81.915713 
L 481.262874 81.050842 
L 484.322848 80.548914 
L 487.209991 80.486471 
L 489.884391 80.925912 
L 492.236192 81.840207 
L 494.178 83.183816 
L 495.642758 84.91675 
L 496.583522 87.004523 
L 496.973462 89.418158 
L 496.805867 92.134185 
L 496.094137 95.134641 
L 494.871791 98.407069 
L 493.191683 101.94359 
L 491.035789 105.618761 
L 488.41434 109.288673 
L 485.392065 112.879164 
L 482.028237 116.325881 
L 478.376674 119.574277 
L 474.48574 122.579613 
L 470.398347 125.30696 
L 466.15195 127.731194 
L 461.77855 129.836999 
L 457.332389 131.624627 
L 452.966112 133.129797 
L 448.745532 134.379864 
L 444.713433 135.397323 
L 440.900484 136.201674 
L 437.325246 136.809424 
L 433.99417 137.234089 
L 430.901595 137.486189 
L 428.029752 137.57325 
L 425.354605 137.499808 
L 422.906149 137.279544 
L 420.706828 136.943677 
L 418.765737 136.519332 
L 417.08656 136.027383 
L 415.667569 135.482454 
L 414.501623 134.892916 
L 413.576173 134.260892 
L 412.873257 133.582255 
L 412.3695 132.846625 
L 412.036171 132.037395 
L 411.856415 131.140751 
L 411.840974 130.158178 
L 412.000525 129.092123 
L 412.344056 127.944228 
L 412.878864 126.715327 
L 413.610558 125.405453 
L 414.543058 124.013828 
L 417.017708 120.9782 
L 420.296275 117.585752 
L 424.297589 113.792315 
L 429.003121 109.558765 
L 434.433195 104.880028 
L 440.622767 99.785898 
L 447.621423 94.341039 
L 451.444295 91.517989 
L 455.50503 88.699151 
L 459.756433 85.927503 
L 464.131448 83.228157 
L 468.56896 80.638278 
L 473.013799 78.207087 
L 477.416737 75.99586 
L 481.734489 74.077928 
L 485.929714 72.538679 
L 489.971013 71.475552 
L 493.832931 70.998046 
L 497.495955 71.227711 
L 500.822576 72.213006 
L 503.517503 73.837579 
L 505.603158 76.134131 
L 507.089666 79.109919 
L 507.957711 82.736362 
L 508.158542 86.949033 
L 507.61397 91.647663 
L 506.216368 96.69614 
L 503.830011 101.922523 
L 500.595033 107.150761 
L 496.734388 112.281136 
L 492.316877 117.234969 
L 487.417374 121.93896 
L 482.116824 126.325189 
L 476.502244 130.331114 
L 470.666725 133.899571 
L 464.709427 136.978776 
L 458.73162 139.526568 
L 452.816467 141.57918 
L 447.072105 143.217158 
L 441.587802 144.508885 
L 436.424474 145.511333 
L 431.614689 146.27006 
L 427.162669 146.819215 
L 423.044284 147.181533 
L 419.207058 147.368338 
L 415.609169 147.377559 
L 412.294231 147.234553 
L 406.598764 146.67401 
L 402.169316 145.953 
L 398.862989 145.178884 
L 396.380182 144.303861 
L 394.539335 143.265792 
L 393.839655 142.686157 
L 393.284292 142.072572 
L 392.875989 141.433718 
L 392.621392 140.781353 
L 392.523763 140.125007 
L 392.572143 139.461211 
L 392.75544 138.783458 
L 393.484072 137.351388 
L 394.627542 135.742054 
L 397.004221 132.765095 
L 400.38555 128.917006 
L 403.39277 125.775829 
L 407.163227 122.104474 
L 417.264182 112.833785 
L 430.961132 100.441969 
L 439.53643 93.072696 
L 449.56512 85.043799 
L 455.017762 80.871312 
L 460.772466 76.678022 
L 466.836619 72.542407 
L 473.183555 68.55536 
L 479.752559 64.820192 
L 486.448861 61.452629 
L 493.143643 58.580814 
L 499.674031 56.345308 
L 505.863347 54.904123 
L 511.760315 54.498679 
L 517.143901 55.295861 
L 521.737008 57.378714 
L 525.326053 60.770481 
L 527.760973 65.434599 
L 528.955219 71.274703 
L 528.885763 78.134622 
L 527.572546 85.820111 
L 524.928036 94.152058 
L 520.987428 102.706023 
L 515.848963 111.10635 
L 509.64317 119.078481 
L 502.532864 126.448963 
L 494.713149 133.14544 
L 486.411012 139.194528 
L 477.83011 144.485032 
L 469.143677 148.957621 
L 460.506547 152.681342 
L 452.033047 155.719116 
L 443.796998 158.127736 
L 435.831714 159.957864 
L 428.183308 161.267696 
L 420.980586 162.177049 
L 414.288932 162.802495 
L 402.497624 163.511004 
L 397.327712 163.670236 
L 388.121486 163.638724 
L 377.101485 163.391437 
L 371.430629 163.504729 
L 366.700796 163.926139 
L 362.511748 164.594597 
L 360.544415 165.015786 
L 360.544415 165.015786 
" clip-path="url(#p103861c249)" style="fill: none; stroke-dasharray: 12.95,5.6; stroke-dashoffset: 0; stroke: #ff0000; stroke-opacity: 0.8; stroke-width: 3.5"/>
   </g>
   <g id="legend_1">
    <g id="patch_7">
     <path d="M 55.982813 89.030625 
L 201.332813 89.030625 
Q 203.332813 89.030625 203.332813 87.030625 
L 203.332813 29.318125 
Q 203.332813 27.318125 201.332813 27.318125 
L 55.982813 27.318125 
Q 53.982813 27.318125 53.982813 29.318125 
L 53.982813 87.030625 
Q 53.982813 89.030625 55.982813 89.030625 
z
" style="fill: #ffffff; opacity: 0.8; stroke: #cccccc; stroke-linejoin: miter"/>
    </g>
    <g id="line2d_16">
     <path d="M 57.982813 35.416562 
L 67.982812 35.416562 
L 77.982812 35.416562 
" style="fill: none; stroke: #000000; stroke-opacity: 0.3; stroke-width: 7; stroke-linecap: square"/>
    </g>
    <g id="text_15">
     <!-- True/Underlying model -->
     <g transform="translate(85.982812 38.916562) scale(0.1 -0.1)">
      <defs>
       <path id="DejaVuSans-54" d="M -19 4666 
L 3928 4666 
L 3928 4134 
L 2272 4134 
L 2272 0 
L 1638 0 
L 1638 4134 
L -19 4134 
L -19 4666 
z
" transform="scale(0.015625)"/>
       <path id="DejaVuSans-75" d="M 544 1381 
L 544 3500 
L 1119 3500 
L 1119 1403 
Q 1119 906 1312 657 
Q 1506 409 1894 409 
Q 2359 409 2629 706 
Q 2900 1003 2900 1516 
L 2900 3500 
L 3475 3500 
L 3475 0 
L 2900 0 
L 2900 538 
Q 2691 219 2414 64 
Q 2138 -91 1772 -91 
Q 1169 -91 856 284 
Q 544 659 544 1381 
z
M 1991 3584 
L 1991 3584 
z
" transform="scale(0.015625)"/>
       <path id="DejaVuSans-2f" d="M 1625 4666 
L 2156 4666 
L 531 -594 
L 0 -594 
L 1625 4666 
z
" transform="scale(0.015625)"/>
       <path id="DejaVuSans-55" d="M 556 4666 
L 1191 4666 
L 1191 1831 
Q 1191 1081 1462 751 
Q 1734 422 2344 422 
Q 2950 422 3222 751 
Q 3494 1081 3494 1831 
L 3494 4666 
L 4128 4666 
L 4128 1753 
Q 4128 841 3676 375 
Q 3225 -91 2344 -91 
Q 1459 -91 1007 375 
Q 556 841 556 1753 
L 556 4666 
z
" transform="scale(0.015625)"/>
       <path id="DejaVuSans-6e" d="M 3513 2113 
L 3513 0 
L 2938 0 
L 2938 2094 
Q 2938 2591 2744 2837 
Q 2550 3084 2163 3084 
Q 1697 3084 1428 2787 
Q 1159 2491 1159 1978 
L 1159 0 
L 581 0 
L 581 3500 
L 1159 3500 
L 1159 2956 
Q 1366 3272 1645 3428 
Q 1925 3584 2291 3584 
Q 2894 3584 3203 3211 
Q 3513 2838 3513 2113 
z
" transform="scale(0.015625)"/>
       <path id="DejaVuSans-64" d="M 2906 2969 
L 2906 4863 
L 3481 4863 
L 3481 0 
L 2906 0 
L 2906 525 
Q 2725 213 2448 61 
Q 2172 -91 1784 -91 
Q 1150 -91 751 415 
Q 353 922 353 1747 
Q 353 2572 751 3078 
Q 1150 3584 1784 3584 
Q 2172 3584 2448 3432 
Q 2725 3281 2906 2969 
z
M 947 1747 
Q 947 1113 1208 752 
Q 1469 391 1925 391 
Q 2381 391 2643 752 
Q 2906 1113 2906 1747 
Q 2906 2381 2643 2742 
Q 2381 3103 1925 3103 
Q 1469 3103 1208 2742 
Q 947 2381 947 1747 
z
" transform="scale(0.015625)"/>
       <path id="DejaVuSans-6c" d="M 603 4863 
L 1178 4863 
L 1178 0 
L 603 0 
L 603 4863 
z
" transform="scale(0.015625)"/>
       <path id="DejaVuSans-79" d="M 2059 -325 
Q 1816 -950 1584 -1140 
Q 1353 -1331 966 -1331 
L 506 -1331 
L 506 -850 
L 844 -850 
Q 1081 -850 1212 -737 
Q 1344 -625 1503 -206 
L 1606 56 
L 191 3500 
L 800 3500 
L 1894 763 
L 2988 3500 
L 3597 3500 
L 2059 -325 
z
" transform="scale(0.015625)"/>
       <path id="DejaVuSans-67" d="M 2906 1791 
Q 2906 2416 2648 2759 
Q 2391 3103 1925 3103 
Q 1463 3103 1205 2759 
Q 947 2416 947 1791 
Q 947 1169 1205 825 
Q 1463 481 1925 481 
Q 2391 481 2648 825 
Q 2906 1169 2906 1791 
z
M 3481 434 
Q 3481 -459 3084 -895 
Q 2688 -1331 1869 -1331 
Q 1566 -1331 1297 -1286 
Q 1028 -1241 775 -1147 
L 775 -588 
Q 1028 -725 1275 -790 
Q 1522 -856 1778 -856 
Q 2344 -856 2625 -561 
Q 2906 -266 2906 331 
L 2906 616 
Q 2728 306 2450 153 
Q 2172 0 1784 0 
Q 1141 0 747 490 
Q 353 981 353 1791 
Q 353 2603 747 3093 
Q 1141 3584 1784 3584 
Q 2172 3584 2450 3431 
Q 2728 3278 2906 2969 
L 2906 3500 
L 3481 3500 
L 3481 434 
z
" transform="scale(0.015625)"/>
       <path id="DejaVuSans-6d" d="M 3328 2828 
Q 3544 3216 3844 3400 
Q 4144 3584 4550 3584 
Q 5097 3584 5394 3201 
Q 5691 2819 5691 2113 
L 5691 0 
L 5113 0 
L 5113 2094 
Q 5113 2597 4934 2840 
Q 4756 3084 4391 3084 
Q 3944 3084 3684 2787 
Q 3425 2491 3425 1978 
L 3425 0 
L 2847 0 
L 2847 2094 
Q 2847 2600 2669 2842 
Q 2491 3084 2119 3084 
Q 1678 3084 1418 2786 
Q 1159 2488 1159 1978 
L 1159 0 
L 581 0 
L 581 3500 
L 1159 3500 
L 1159 2956 
Q 1356 3278 1631 3431 
Q 1906 3584 2284 3584 
Q 2666 3584 2933 3390 
Q 3200 3197 3328 2828 
z
" transform="scale(0.015625)"/>
      </defs>
      <use xlink:href="#DejaVuSans-54"/>
      <use xlink:href="#DejaVuSans-72" transform="translate(46.333984 0)"/>
      <use xlink:href="#DejaVuSans-75" transform="translate(87.447266 0)"/>
      <use xlink:href="#DejaVuSans-65" transform="translate(150.826172 0)"/>
      <use xlink:href="#DejaVuSans-2f" transform="translate(212.349609 0)"/>
      <use xlink:href="#DejaVuSans-55" transform="translate(246.041016 0)"/>
      <use xlink:href="#DejaVuSans-6e" transform="translate(319.234375 0)"/>
      <use xlink:href="#DejaVuSans-64" transform="translate(382.613281 0)"/>
      <use xlink:href="#DejaVuSans-65" transform="translate(446.089844 0)"/>
      <use xlink:href="#DejaVuSans-72" transform="translate(507.613281 0)"/>
      <use xlink:href="#DejaVuSans-6c" transform="translate(548.726562 0)"/>
      <use xlink:href="#DejaVuSans-79" transform="translate(576.509766 0)"/>
      <use xlink:href="#DejaVuSans-69" transform="translate(635.689453 0)"/>
      <use xlink:href="#DejaVuSans-6e" transform="translate(663.472656 0)"/>
      <use xlink:href="#DejaVuSans-67" transform="translate(726.851562 0)"/>
      <use xlink:href="#DejaVuSans-20" transform="translate(790.328125 0)"/>
      <use xlink:href="#DejaVuSans-6d" transform="translate(822.115234 0)"/>
      <use xlink:href="#DejaVuSans-6f" transform="translate(919.527344 0)"/>
      <use xlink:href="#DejaVuSans-64" transform="translate(980.708984 0)"/>
      <use xlink:href="#DejaVuSans-65" transform="translate(1044.185547 0)"/>
      <use xlink:href="#DejaVuSans-6c" transform="translate(1105.708984 0)"/>
     </g>
    </g>
    <g id="line2d_17">
     <path d="M 57.982813 50.094687 
L 67.982812 50.094687 
L 77.982812 50.094687 
" style="fill: none; stroke-dasharray: 12.95,5.6; stroke-dashoffset: 0; stroke: #ff0000; stroke-opacity: 0.8; stroke-width: 3.5"/>
    </g>
    <g id="text_16">
     <!-- AutoSINDy -->
     <g transform="translate(85.982812 53.594687) scale(0.1 -0.1)">
      <defs>
       <path id="DejaVuSans-41" d="M 2188 4044 
L 1331 1722 
L 3047 1722 
L 2188 4044 
z
M 1831 4666 
L 2547 4666 
L 4325 0 
L 3669 0 
L 3244 1197 
L 1141 1197 
L 716 0 
L 50 0 
L 1831 4666 
z
" transform="scale(0.015625)"/>
       <path id="DejaVuSans-53" d="M 3425 4513 
L 3425 3897 
Q 3066 4069 2747 4153 
Q 2428 4238 2131 4238 
Q 1616 4238 1336 4038 
Q 1056 3838 1056 3469 
Q 1056 3159 1242 3001 
Q 1428 2844 1947 2747 
L 2328 2669 
Q 3034 2534 3370 2195 
Q 3706 1856 3706 1288 
Q 3706 609 3251 259 
Q 2797 -91 1919 -91 
Q 1588 -91 1214 -16 
Q 841 59 441 206 
L 441 856 
Q 825 641 1194 531 
Q 1563 422 1919 422 
Q 2459 422 2753 634 
Q 3047 847 3047 1241 
Q 3047 1584 2836 1778 
Q 2625 1972 2144 2069 
L 1759 2144 
Q 1053 2284 737 2584 
Q 422 2884 422 3419 
Q 422 4038 858 4394 
Q 1294 4750 2059 4750 
Q 2388 4750 2728 4690 
Q 3069 4631 3425 4513 
z
" transform="scale(0.015625)"/>
       <path id="DejaVuSans-49" d="M 628 4666 
L 1259 4666 
L 1259 0 
L 628 0 
L 628 4666 
z
" transform="scale(0.015625)"/>
       <path id="DejaVuSans-4e" d="M 628 4666 
L 1478 4666 
L 3547 763 
L 3547 4666 
L 4159 4666 
L 4159 0 
L 3309 0 
L 1241 3903 
L 1241 0 
L 628 0 
L 628 4666 
z
" transform="scale(0.015625)"/>
       <path id="DejaVuSans-44" d="M 1259 4147 
L 1259 519 
L 2022 519 
Q 2988 519 3436 956 
Q 3884 1394 3884 2338 
Q 3884 3275 3436 3711 
Q 2988 4147 2022 4147 
L 1259 4147 
z
M 628 4666 
L 1925 4666 
Q 3281 4666 3915 4102 
Q 4550 3538 4550 2338 
Q 4550 1131 3912 565 
Q 3275 0 1925 0 
L 628 0 
L 628 4666 
z
" transform="scale(0.015625)"/>
      </defs>
      <use xlink:href="#DejaVuSans-41"/>
      <use xlink:href="#DejaVuSans-75" transform="translate(68.408203 0)"/>
      <use xlink:href="#DejaVuSans-74" transform="translate(131.787109 0)"/>
      <use xlink:href="#DejaVuSans-6f" transform="translate(170.996094 0)"/>
      <use xlink:href="#DejaVuSans-53" transform="translate(232.177734 0)"/>
      <use xlink:href="#DejaVuSans-49" transform="translate(295.654297 0)"/>
      <use xlink:href="#DejaVuSans-4e" transform="translate(325.146484 0)"/>
      <use xlink:href="#DejaVuSans-44" transform="translate(399.951172 0)"/>
      <use xlink:href="#DejaVuSans-79" transform="translate(476.953125 0)"/>
     </g>
    </g>
    <g id="line2d_18">
     <path d="M 57.982813 64.772812 
L 67.982812 64.772812 
L 77.982812 64.772812 
" style="fill: none; stroke-dasharray: 3.5,5.775; stroke-dashoffset: 0; stroke: #008000; stroke-opacity: 0.8; stroke-width: 3.5"/>
    </g>
    <g id="text_17">
     <!-- Standard SINDy -->
     <g transform="translate(85.982812 68.272812) scale(0.1 -0.1)">
      <use xlink:href="#DejaVuSans-53"/>
      <use xlink:href="#DejaVuSans-74" transform="translate(63.476562 0)"/>
      <use xlink:href="#DejaVuSans-61" transform="translate(102.685547 0)"/>
      <use xlink:href="#DejaVuSans-6e" transform="translate(163.964844 0)"/>
      <use xlink:href="#DejaVuSans-64" transform="translate(227.34375 0)"/>
      <use xlink:href="#DejaVuSans-61" transform="translate(290.820312 0)"/>
      <use xlink:href="#DejaVuSans-72" transform="translate(352.099609 0)"/>
      <use xlink:href="#DejaVuSans-64" transform="translate(391.462891 0)"/>
      <use xlink:href="#DejaVuSans-20" transform="translate(454.939453 0)"/>
      <use xlink:href="#DejaVuSans-53" transform="translate(486.726562 0)"/>
      <use xlink:href="#DejaVuSans-49" transform="translate(550.203125 0)"/>
      <use xlink:href="#DejaVuSans-4e" transform="translate(579.695312 0)"/>
      <use xlink:href="#DejaVuSans-44" transform="translate(654.5 0)"/>
      <use xlink:href="#DejaVuSans-79" transform="translate(731.501953 0)"/>
     </g>
    </g>
    <g id="line2d_19">
     <path d="M 57.982813 79.450937 
L 67.982812 79.450937 
L 77.982812 79.450937 
" style="fill: none; stroke-dasharray: 22.4,5.6,3.5,5.6; stroke-dashoffset: 0; stroke: #0000ff; stroke-opacity: 0.8; stroke-width: 3.5"/>
    </g>
    <g id="text_18">
     <!-- Standard PySR -->
     <g transform="translate(85.982812 82.950937) scale(0.1 -0.1)">
      <defs>
       <path id="DejaVuSans-52" d="M 2841 2188 
Q 3044 2119 3236 1894 
Q 3428 1669 3622 1275 
L 4263 0 
L 3584 0 
L 2988 1197 
Q 2756 1666 2539 1819 
Q 2322 1972 1947 1972 
L 1259 1972 
L 1259 0 
L 628 0 
L 628 4666 
L 2053 4666 
Q 2853 4666 3247 4331 
Q 3641 3997 3641 3322 
Q 3641 2881 3436 2590 
Q 3231 2300 2841 2188 
z
M 1259 4147 
L 1259 2491 
L 2053 2491 
Q 2509 2491 2742 2702 
Q 2975 2913 2975 3322 
Q 2975 3731 2742 3939 
Q 2509 4147 2053 4147 
L 1259 4147 
z
" transform="scale(0.015625)"/>
      </defs>
      <use xlink:href="#DejaVuSans-53"/>
      <use xlink:href="#DejaVuSans-74" transform="translate(63.476562 0)"/>
      <use xlink:href="#DejaVuSans-61" transform="translate(102.685547 0)"/>
      <use xlink:href="#DejaVuSans-6e" transform="translate(163.964844 0)"/>
      <use xlink:href="#DejaVuSans-64" transform="translate(227.34375 0)"/>
      <use xlink:href="#DejaVuSans-61" transform="translate(290.820312 0)"/>
      <use xlink:href="#DejaVuSans-72" transform="translate(352.099609 0)"/>
      <use xlink:href="#DejaVuSans-64" transform="translate(391.462891 0)"/>
      <use xlink:href="#DejaVuSans-20" transform="translate(454.939453 0)"/>
      <use xlink:href="#DejaVuSans-50" transform="translate(486.726562 0)"/>
      <use xlink:href="#DejaVuSans-79" transform="translate(547.029297 0)"/>
      <use xlink:href="#DejaVuSans-53" transform="translate(606.208984 0)"/>
      <use xlink:href="#DejaVuSans-52" transform="translate(669.685547 0)"/>
     </g>
    </g>
   </g>
  </g>
 </g>
 <defs>
  <clipPath id="p103861c249">
   <rect x="48.982813" y="22.318125" width="512.2" height="508.12"/>
  </clipPath>
 </defs>
</svg>
