<?xml version="1.0" encoding="utf-8" standalone="no"?>
<!DOCTYPE svg PUBLIC "-//W3C//DTD SVG 1.1//EN"
  "http://www.w3.org/Graphics/SVG/1.1/DTD/svg11.dtd">
<svg xmlns:xlink="http://www.w3.org/1999/xlink" width="568.410937pt" height="567.994375pt" viewBox="0 0 568.410937 567.994375" xmlns="http://www.w3.org/2000/svg" version="1.1">
 <metadata>
  <rdf:RDF xmlns:dc="http://purl.org/dc/elements/1.1/" xmlns:cc="http://creativecommons.org/ns#" xmlns:rdf="http://www.w3.org/1999/02/22-rdf-syntax-ns#">
   <cc:Work>
    <dc:type rdf:resource="http://purl.org/dc/dcmitype/StillImage"/>
    <dc:date>2026-04-03T16:03:18.434552</dc:date>
    <dc:format>image/svg+xml</dc:format>
    <dc:creator>
     <cc:Agent>
      <dc:title>Matplotlib v3.10.7, https://matplotlib.org/</dc:title>
     </cc:Agent>
    </dc:creator>
   </cc:Work>
  </rdf:RDF>
 </metadata>
 <defs>
  <style type="text/css">*{stroke-linejoin: round; stroke-linecap: butt}</style>
 </defs>
 <g id="figure_1">
  <g id="patch_1">
   <path d="M 0 567.994375 
L 568.410937 567.994375 
L 568.410937 0 
L 0 0 
z
" style="fill: #ffffff"/>
  </g>
  <g id="axes_1">
   <g id="patch_2">
    <path d="M 52.160938 530.438125 
L 561.210937 530.438125 
L 561.210937 22.318125 
L 52.160938 22.318125 
z
" style="fill: #ffffff"/>
   </g>
   <g id="matplotlib.axis_1">
    <g id="xtick_1">
     <g id="line2d_1">
      <defs>
       <path id="m21572cf23d" d="M 0 0 
L 0 3.5 
" style="stroke: #000000; stroke-width: 0.8"/>
      </defs>
      <g>
       <use xlink:href="#m21572cf23d" x="101.444714" y="530.438125" style="stroke: #000000; stroke-width: 0.8"/>
      </g>
     </g>
     <g id="text_1">
      <!-- −6 -->
      <g transform="translate(94.07362 545.036562) scale(0.1 -0.1)">
       <defs>
        <path id="DejaVuSans-2212" d="M 678 2272 
L 4684 2272 
L 4684 1741 
L 678 1741 
L 678 2272 
z
" transform="scale(0.015625)"/>
        <path id="DejaVuSans-36" d="M 2113 2584 
Q 1688 2584 1439 2293 
Q 1191 2003 1191 1497 
Q 1191 994 1439 701 
Q 1688 409 2113 409 
Q 2538 409 2786 701 
Q 3034 994 3034 1497 
Q 3034 2003 2786 2293 
Q 2538 2584 2113 2584 
z
M 3366 4563 
L 3366 3988 
Q 3128 4100 2886 4159 
Q 2644 4219 2406 4219 
Q 1781 4219 1451 3797 
Q 1122 3375 1075 2522 
Q 1259 2794 1537 2939 
Q 1816 3084 2150 3084 
Q 2853 3084 3261 2657 
Q 3669 2231 3669 1497 
Q 3669 778 3244 343 
Q 2819 -91 2113 -91 
Q 1303 -91 875 529 
Q 447 1150 447 2328 
Q 447 3434 972 4092 
Q 1497 4750 2381 4750 
Q 2619 4750 2861 4703 
Q 3103 4656 3366 4563 
z
" transform="scale(0.015625)"/>
       </defs>
       <use xlink:href="#DejaVuSans-2212"/>
       <use xlink:href="#DejaVuSans-36" transform="translate(83.789062 0)"/>
      </g>
     </g>
    </g>
    <g id="xtick_2">
     <g id="line2d_2">
      <g>
       <use xlink:href="#m21572cf23d" x="197.975206" y="530.438125" style="stroke: #000000; stroke-width: 0.8"/>
      </g>
     </g>
     <g id="text_2">
      <!-- −4 -->
      <g transform="translate(190.604112 545.036562) scale(0.1 -0.1)">
       <defs>
        <path id="DejaVuSans-34" d="M 2419 4116 
L 825 1625 
L 2419 1625 
L 2419 4116 
z
M 2253 4666 
L 3047 4666 
L 3047 1625 
L 3713 1625 
L 3713 1100 
L 3047 1100 
L 3047 0 
L 2419 0 
L 2419 1100 
L 313 1100 
L 313 1709 
L 2253 4666 
z
" transform="scale(0.015625)"/>
       </defs>
       <use xlink:href="#DejaVuSans-2212"/>
       <use xlink:href="#DejaVuSans-34" transform="translate(83.789062 0)"/>
      </g>
     </g>
    </g>
    <g id="xtick_3">
     <g id="line2d_3">
      <g>
       <use xlink:href="#m21572cf23d" x="294.505698" y="530.438125" style="stroke: #000000; stroke-width: 0.8"/>
      </g>
     </g>
     <g id="text_3">
      <!-- −2 -->
      <g transform="translate(287.134604 545.036562) scale(0.1 -0.1)">
       <defs>
        <path id="DejaVuSans-32" d="M 1228 531 
L 3431 531 
L 3431 0 
L 469 0 
L 469 531 
Q 828 903 1448 1529 
Q 2069 2156 2228 2338 
Q 2531 2678 2651 2914 
Q 2772 3150 2772 3378 
Q 2772 3750 2511 3984 
Q 2250 4219 1831 4219 
Q 1534 4219 1204 4116 
Q 875 4013 500 3803 
L 500 4441 
Q 881 4594 1212 4672 
Q 1544 4750 1819 4750 
Q 2544 4750 2975 4387 
Q 3406 4025 3406 3419 
Q 3406 3131 3298 2873 
Q 3191 2616 2906 2266 
Q 2828 2175 2409 1742 
Q 1991 1309 1228 531 
z
" transform="scale(0.015625)"/>
       </defs>
       <use xlink:href="#DejaVuSans-2212"/>
       <use xlink:href="#DejaVuSans-32" transform="translate(83.789062 0)"/>
      </g>
     </g>
    </g>
    <g id="xtick_4">
     <g id="line2d_4">
      <g>
       <use xlink:href="#m21572cf23d" x="391.03619" y="530.438125" style="stroke: #000000; stroke-width: 0.8"/>
      </g>
     </g>
     <g id="text_4">
      <!-- 0 -->
      <g transform="translate(387.85494 545.036562) scale(0.1 -0.1)">
       <defs>
        <path id="DejaVuSans-30" d="M 2034 4250 
Q 1547 4250 1301 3770 
Q 1056 3291 1056 2328 
Q 1056 1369 1301 889 
Q 1547 409 2034 409 
Q 2525 409 2770 889 
Q 3016 1369 3016 2328 
Q 3016 3291 2770 3770 
Q 2525 4250 2034 4250 
z
M 2034 4750 
Q 2819 4750 3233 4129 
Q 3647 3509 3647 2328 
Q 3647 1150 3233 529 
Q 2819 -91 2034 -91 
Q 1250 -91 836 529 
Q 422 1150 422 2328 
Q 422 3509 836 4129 
Q 1250 4750 2034 4750 
z
" transform="scale(0.015625)"/>
       </defs>
       <use xlink:href="#DejaVuSans-30"/>
      </g>
     </g>
    </g>
    <g id="xtick_5">
     <g id="line2d_5">
      <g>
       <use xlink:href="#m21572cf23d" x="487.566682" y="530.438125" style="stroke: #000000; stroke-width: 0.8"/>
      </g>
     </g>
     <g id="text_5">
      <!-- 2 -->
      <g transform="translate(484.385432 545.036562) scale(0.1 -0.1)">
       <use xlink:href="#DejaVuSans-32"/>
      </g>
     </g>
    </g>
    <g id="text_6">
     <!-- x0 -->
     <g transform="translate(300.545312 558.714687) scale(0.1 -0.1)">
      <defs>
       <path id="DejaVuSans-78" d="M 3513 3500 
L 2247 1797 
L 3578 0 
L 2900 0 
L 1881 1375 
L 863 0 
L 184 0 
L 1544 1831 
L 300 3500 
L 978 3500 
L 1906 2253 
L 2834 3500 
L 3513 3500 
z
" transform="scale(0.015625)"/>
      </defs>
      <use xlink:href="#DejaVuSans-78"/>
      <use xlink:href="#DejaVuSans-30" transform="translate(59.179688 0)"/>
     </g>
    </g>
   </g>
   <g id="matplotlib.axis_2">
    <g id="ytick_1">
     <g id="line2d_6">
      <defs>
       <path id="mb7bb781550" d="M 0 0 
L -3.5 0 
" style="stroke: #000000; stroke-width: 0.8"/>
      </defs>
      <g>
       <use xlink:href="#mb7bb781550" x="52.160938" y="506.963155" style="stroke: #000000; stroke-width: 0.8"/>
      </g>
     </g>
     <g id="text_7">
      <!-- −5.0 -->
      <g transform="translate(20.878125 510.762374) scale(0.1 -0.1)">
       <defs>
        <path id="DejaVuSans-35" d="M 691 4666 
L 3169 4666 
L 3169 4134 
L 1269 4134 
L 1269 2991 
Q 1406 3038 1543 3061 
Q 1681 3084 1819 3084 
Q 2600 3084 3056 2656 
Q 3513 2228 3513 1497 
Q 3513 744 3044 326 
Q 2575 -91 1722 -91 
Q 1428 -91 1123 -41 
Q 819 9 494 109 
L 494 744 
Q 775 591 1075 516 
Q 1375 441 1709 441 
Q 2250 441 2565 725 
Q 2881 1009 2881 1497 
Q 2881 1984 2565 2268 
Q 2250 2553 1709 2553 
Q 1456 2553 1204 2497 
Q 953 2441 691 2322 
L 691 4666 
z
" transform="scale(0.015625)"/>
        <path id="DejaVuSans-2e" d="M 684 794 
L 1344 794 
L 1344 0 
L 684 0 
L 684 794 
z
" transform="scale(0.015625)"/>
       </defs>
       <use xlink:href="#DejaVuSans-2212"/>
       <use xlink:href="#DejaVuSans-35" transform="translate(83.789062 0)"/>
       <use xlink:href="#DejaVuSans-2e" transform="translate(147.412109 0)"/>
       <use xlink:href="#DejaVuSans-30" transform="translate(179.199219 0)"/>
      </g>
     </g>
    </g>
    <g id="ytick_2">
     <g id="line2d_7">
      <g>
       <use xlink:href="#mb7bb781550" x="52.160938" y="444.167741" style="stroke: #000000; stroke-width: 0.8"/>
      </g>
     </g>
     <g id="text_8">
      <!-- −2.5 -->
      <g transform="translate(20.878125 447.96696) scale(0.1 -0.1)">
       <use xlink:href="#DejaVuSans-2212"/>
       <use xlink:href="#DejaVuSans-32" transform="translate(83.789062 0)"/>
       <use xlink:href="#DejaVuSans-2e" transform="translate(147.412109 0)"/>
       <use xlink:href="#DejaVuSans-35" transform="translate(179.199219 0)"/>
      </g>
     </g>
    </g>
    <g id="ytick_3">
     <g id="line2d_8">
      <g>
       <use xlink:href="#mb7bb781550" x="52.160938" y="381.372327" style="stroke: #000000; stroke-width: 0.8"/>
      </g>
     </g>
     <g id="text_9">
      <!-- 0.0 -->
      <g transform="translate(29.257812 385.171546) scale(0.1 -0.1)">
       <use xlink:href="#DejaVuSans-30"/>
       <use xlink:href="#DejaVuSans-2e" transform="translate(63.623047 0)"/>
       <use xlink:href="#DejaVuSans-30" transform="translate(95.410156 0)"/>
      </g>
     </g>
    </g>
    <g id="ytick_4">
     <g id="line2d_9">
      <g>
       <use xlink:href="#mb7bb781550" x="52.160938" y="318.576913" style="stroke: #000000; stroke-width: 0.8"/>
      </g>
     </g>
     <g id="text_10">
      <!-- 2.5 -->
      <g transform="translate(29.257812 322.376132) scale(0.1 -0.1)">
       <use xlink:href="#DejaVuSans-32"/>
       <use xlink:href="#DejaVuSans-2e" transform="translate(63.623047 0)"/>
       <use xlink:href="#DejaVuSans-35" transform="translate(95.410156 0)"/>
      </g>
     </g>
    </g>
    <g id="ytick_5">
     <g id="line2d_10">
      <g>
       <use xlink:href="#mb7bb781550" x="52.160938" y="255.781499" style="stroke: #000000; stroke-width: 0.8"/>
      </g>
     </g>
     <g id="text_11">
      <!-- 5.0 -->
      <g transform="translate(29.257812 259.580718) scale(0.1 -0.1)">
       <use xlink:href="#DejaVuSans-35"/>
       <use xlink:href="#DejaVuSans-2e" transform="translate(63.623047 0)"/>
       <use xlink:href="#DejaVuSans-30" transform="translate(95.410156 0)"/>
      </g>
     </g>
    </g>
    <g id="ytick_6">
     <g id="line2d_11">
      <g>
       <use xlink:href="#mb7bb781550" x="52.160938" y="192.986085" style="stroke: #000000; stroke-width: 0.8"/>
      </g>
     </g>
     <g id="text_12">
      <!-- 7.5 -->
      <g transform="translate(29.257812 196.785304) scale(0.1 -0.1)">
       <defs>
        <path id="DejaVuSans-37" d="M 525 4666 
L 3525 4666 
L 3525 4397 
L 1831 0 
L 1172 0 
L 2766 4134 
L 525 4134 
L 525 4666 
z
" transform="scale(0.015625)"/>
       </defs>
       <use xlink:href="#DejaVuSans-37"/>
       <use xlink:href="#DejaVuSans-2e" transform="translate(63.623047 0)"/>
       <use xlink:href="#DejaVuSans-35" transform="translate(95.410156 0)"/>
      </g>
     </g>
    </g>
    <g id="ytick_7">
     <g id="line2d_12">
      <g>
       <use xlink:href="#mb7bb781550" x="52.160938" y="130.190671" style="stroke: #000000; stroke-width: 0.8"/>
      </g>
     </g>
     <g id="text_13">
      <!-- 10.0 -->
      <g transform="translate(22.895313 133.98989) scale(0.1 -0.1)">
       <defs>
        <path id="DejaVuSans-31" d="M 794 531 
L 1825 531 
L 1825 4091 
L 703 3866 
L 703 4441 
L 1819 4666 
L 2450 4666 
L 2450 531 
L 3481 531 
L 3481 0 
L 794 0 
L 794 531 
z
" transform="scale(0.015625)"/>
       </defs>
       <use xlink:href="#DejaVuSans-31"/>
       <use xlink:href="#DejaVuSans-30" transform="translate(63.623047 0)"/>
       <use xlink:href="#DejaVuSans-2e" transform="translate(127.246094 0)"/>
       <use xlink:href="#DejaVuSans-30" transform="translate(159.033203 0)"/>
      </g>
     </g>
    </g>
    <g id="ytick_8">
     <g id="line2d_13">
      <g>
       <use xlink:href="#mb7bb781550" x="52.160938" y="67.395258" style="stroke: #000000; stroke-width: 0.8"/>
      </g>
     </g>
     <g id="text_14">
      <!-- 12.5 -->
      <g transform="translate(22.895313 71.194476) scale(0.1 -0.1)">
       <use xlink:href="#DejaVuSans-31"/>
       <use xlink:href="#DejaVuSans-32" transform="translate(63.623047 0)"/>
       <use xlink:href="#DejaVuSans-2e" transform="translate(127.246094 0)"/>
       <use xlink:href="#DejaVuSans-35" transform="translate(159.033203 0)"/>
      </g>
     </g>
    </g>
    <g id="text_15">
     <!-- x1 -->
     <g transform="translate(14.798438 282.51875) rotate(-90) scale(0.1 -0.1)">
      <use xlink:href="#DejaVuSans-78"/>
      <use xlink:href="#DejaVuSans-31" transform="translate(59.179688 0)"/>
     </g>
    </g>
   </g>
   <g id="line2d_14">
    <path d="M 518.53331 376.348694 
L 518.826052 378.785221 
L 518.932954 381.179293 
L 518.857027 383.548487 
L 518.599182 385.909508 
L 518.159046 388.278703 
L 517.53519 390.672216 
L 516.725119 393.105984 
L 515.725279 395.595737 
L 513.859315 399.469246 
L 511.536854 403.550242 
L 508.73025 407.885155 
L 505.402725 412.52514 
L 501.516918 417.503214 
L 497.035089 422.833625 
L 491.91912 428.51185 
L 486.130517 434.514597 
L 479.630857 440.808153 
L 474.886315 445.138599 
L 469.805927 449.504164 
L 464.389895 453.834705 
L 458.643921 458.059542 
L 452.579207 462.107456 
L 446.212456 465.906687 
L 439.565871 469.384939 
L 436.146084 470.980958 
L 432.667157 472.469376 
L 429.133412 473.841005 
L 425.549517 475.086623 
L 421.920479 476.196973 
L 418.251655 477.162766 
L 414.54874 477.974678 
L 410.817776 478.623353 
L 407.065149 479.099399 
L 403.297587 479.393393 
L 399.522162 479.495876 
L 395.746291 479.397355 
L 391.977735 479.088307 
L 388.22463 478.560241 
L 384.495909 477.831859 
L 380.799412 476.917405 
L 377.142247 475.822846 
L 373.53118 474.554671 
L 369.972635 473.119883 
L 366.472689 471.526009 
L 363.037082 469.781091 
L 359.671207 467.893691 
L 356.380117 465.872892 
L 353.168519 463.728292 
L 350.040781 461.470011 
L 347.000926 459.108688 
L 344.052634 456.655478 
L 341.199243 454.122057 
L 335.788804 448.863882 
L 330.789456 443.437944 
L 326.215564 437.95633 
L 322.070004 432.473568 
L 318.347433 426.988731 
L 315.045127 421.530858 
L 312.159724 416.123134 
L 309.687219 410.782887 
L 307.62297 405.521595 
L 305.961694 400.344878 
L 304.697471 395.252504 
L 303.823739 390.238385 
L 303.333296 385.290581 
L 303.218682 380.405493 
L 303.477123 375.58037 
L 304.108171 370.793158 
L 305.110824 366.027587 
L 306.483516 361.273413 
L 308.22411 356.526413 
L 310.329908 351.788386 
L 312.797642 347.067157 
L 315.623481 342.37657 
L 318.803024 337.736494 
L 322.331308 333.172821 
L 326.202801 328.717464 
L 330.411406 324.408361 
L 334.950459 320.28947 
L 339.807651 316.396179 
L 344.95584 312.777476 
L 347.630286 311.097376 
L 350.366591 309.516202 
L 353.160738 308.04266 
L 356.008517 306.684759 
L 358.905525 305.449817 
L 361.847171 304.344458 
L 364.828673 303.374612 
L 367.845056 302.545519 
L 370.891155 301.861722 
L 373.961614 301.327073 
L 377.050886 300.944731 
L 380.153233 300.717161 
L 383.262727 300.646134 
L 386.373247 300.732731 
L 389.478483 300.977337 
L 392.571932 301.379644 
L 395.646902 301.938653 
L 398.696508 302.652669 
L 401.713677 303.519306 
L 404.692513 304.533407 
L 407.629278 305.686657 
L 410.518722 306.973691 
L 413.355794 308.38904 
L 416.1357 309.92705 
L 418.853896 311.58188 
L 421.506091 313.347504 
L 424.088246 315.21771 
L 426.596576 317.186099 
L 429.027548 319.246086 
L 431.377882 321.390902 
L 435.824776 325.907009 
L 439.916067 330.676537 
L 443.634606 335.638631 
L 446.967287 340.729458 
L 449.905043 345.88221 
L 452.442853 351.027106 
L 454.582999 356.145261 
L 456.329307 361.261434 
L 457.68225 366.364665 
L 458.643054 371.444526 
L 459.2137 376.491142 
L 459.396919 381.495189 
L 459.196196 386.44789 
L 458.61577 391.341021 
L 457.660633 396.166909 
L 456.336528 400.918427 
L 454.649953 405.589004 
L 452.608241 410.176347 
L 450.218641 414.670186 
L 447.489127 419.033099 
L 444.430508 423.227031 
L 441.056489 427.214619 
L 437.383675 430.959191 
L 433.431572 434.424767 
L 429.222583 437.57606 
L 424.782012 440.378473 
L 420.138062 442.798102 
L 417.749427 443.853965 
L 415.321836 444.801732 
L 412.859632 445.637359 
L 410.367336 446.356844 
L 407.849651 446.956231 
L 405.311462 447.431607 
L 402.757834 447.7791 
L 400.194015 447.994883 
L 397.625433 448.075172 
L 395.057283 448.017906 
L 392.493489 447.828301 
L 389.939364 447.507846 
L 387.400241 447.057764 
L 384.881277 446.479706 
L 382.387458 445.775743 
L 379.923594 444.948375 
L 377.494321 444.000522 
L 375.104102 442.935531 
L 372.757226 441.757172 
L 370.457806 440.46964 
L 368.209784 439.077554 
L 363.882823 436.000316 
L 359.804386 432.570895 
L 355.999731 428.841517 
L 352.491334 424.871194 
L 349.29859 420.723844 
L 346.432084 416.426407 
L 343.900884 412.002606 
L 341.713691 407.483102 
L 339.877239 402.896208 
L 338.396298 398.267889 
L 337.273673 393.621764 
L 336.510201 388.979103 
L 336.104754 384.35883 
L 336.054241 379.77752 
L 336.353601 375.249402 
L 336.996101 370.784953 
L 337.97694 366.397286 
L 339.291454 362.106526 
L 340.932757 357.933967 
L 342.891732 353.901987 
L 345.157024 350.034049 
L 347.715046 346.354701 
L 350.549973 342.889574 
L 353.643748 339.665385 
L 356.976078 336.709934 
L 360.524435 334.052105 
L 364.264056 331.721869 
L 368.167945 329.75028 
L 372.207932 328.166186 
L 376.355611 326.986465 
L 380.576823 326.231403 
L 384.837426 325.914993 
L 386.971977 325.923603 
L 389.103819 326.043725 
L 393.342939 326.616588 
L 397.522262 327.625073 
L 401.609802 329.053165 
L 405.574113 330.877353 
L 409.384285 333.06662 
L 413.010607 335.58391 
L 416.431182 338.401484 
L 419.624688 341.487254 
L 422.571291 344.807316 
L 425.253813 348.328507 
L 427.657728 352.018402 
L 429.771166 355.845315 
L 431.58491 359.778301 
L 433.092395 363.787152 
L 434.289713 367.842402 
L 435.176238 371.918765 
L 435.751855 376.000688 
L 436.01476 380.069527 
L 435.965028 384.106088 
L 435.604712 388.090819 
L 434.937838 392.003812 
L 433.970409 395.824803 
L 432.710401 399.533174 
L 431.167765 403.107948 
L 429.35443 406.527794 
L 427.284295 409.771026 
L 424.973239 412.815599 
L 422.439113 415.639115 
L 419.698258 418.223259 
L 416.768419 420.543737 
L 413.672399 422.571214 
L 410.433901 424.281067 
L 407.077526 425.653386 
L 403.628777 426.672981 
L 400.114051 427.329375 
L 396.560648 427.616809 
L 392.996762 427.534242 
L 389.45149 427.085345 
L 385.954823 426.278509 
L 382.537023 425.126726 
L 379.220338 423.645701 
L 376.029112 421.854119 
L 372.987662 419.772787 
L 370.118031 417.424231 
L 367.439992 414.832703 
L 364.971043 412.024175 
L 362.726411 409.026346 
L 360.71905 405.868633 
L 358.95964 402.58218 
L 357.456591 399.199853 
L 356.21595 395.755468 
L 355.240461 392.264752 
L 354.533723 388.743897 
L 354.098442 385.214089 
L 353.935435 381.696258 
L 354.04363 378.211075 
L 354.420062 374.778954 
L 355.059879 371.420053 
L 355.956334 368.15427 
L 357.100792 365.001249 
L 358.482729 361.980374 
L 360.089728 359.110774 
L 361.909493 356.409325 
L 363.929968 353.895676 
L 366.135378 351.593406 
L 368.508727 349.523575 
L 371.031829 347.704677 
L 373.685305 346.152635 
L 376.448586 344.880804 
L 379.299909 343.899974 
L 382.216324 343.218364 
L 385.173684 342.841625 
L 388.146778 342.772775 
L 391.114135 343.009461 
L 394.052376 343.547232 
L 396.93703 344.379971 
L 399.745102 345.498615 
L 402.455076 346.891158 
L 405.046908 348.542649 
L 407.502034 350.435195 
L 409.803363 352.547959 
L 411.935282 354.85716 
L 413.883653 357.336074 
L 415.635815 359.955032 
L 417.181094 362.685252 
L 418.512446 365.514637 
L 419.622833 368.422708 
L 420.506708 371.387769 
L 421.160288 374.388696 
L 421.581554 377.404936 
L 421.770251 380.416512 
L 421.727887 383.404015 
L 421.621011 384.882832 
L 421.621011 384.882832 
" clip-path="url(#p0e85ff3bbe)" style="fill: none; stroke: #000000; stroke-opacity: 0.3; stroke-width: 7; stroke-linecap: square"/>
   </g>
   <g id="line2d_15">
    <path d="M 518.53331 376.348694 
L 518.450006 383.909966 
L 517.677642 387.678901 
L 515.040291 395.123165 
L 513.978185 398.78817 
L 513.288094 402.419783 
L 512.870031 406.030206 
L 512.232486 409.631597 
L 510.444273 413.193419 
L 508.486206 416.70921 
L 505.162062 423.590328 
L 503.231551 426.942289 
L 502.708189 430.261243 
L 499.854841 436.80553 
L 498.242269 440.011836 
L 496.052548 443.157388 
L 494.970627 446.25606 
L 490.801901 452.298485 
L 487.106284 458.108995 
L 484.470542 460.92417 
L 482.408512 463.663427 
L 479.955679 466.341357 
L 476.994839 468.930844 
L 474.576109 471.448155 
L 471.760239 473.885323 
L 468.209984 476.229371 
L 451.15197 484.34211 
L 448.460759 486.084499 
L 444.713834 487.730439 
L 431.547556 491.9 
L 420.472148 494.996825 
L 416.515029 495.814419 
L 412.030012 496.506688 
L 402.352163 497.450183 
L 398.770243 497.731759 
L 395.091251 497.906888 
L 391.152337 497.969231 
L 387.193358 497.91361 
L 379.888489 497.468521 
L 370.555796 496.549951 
L 366.200977 495.875071 
L 357.322285 494.152951 
L 353.829619 493.101418 
L 349.115072 491.924609 
L 340.805786 489.198356 
L 328.461646 484.192018 
L 322.998235 482.25342 
L 314.326321 477.964996 
L 306.041961 473.173658 
L 300.175449 467.960431 
L 296.35658 465.205603 
L 292.005881 462.333342 
L 288.571065 459.342708 
L 286.42755 456.269059 
L 284.510882 453.133463 
L 282.161408 449.938966 
L 279.20671 446.672914 
L 275.941286 443.310305 
L 272.896035 439.851759 
L 270.553249 436.311014 
L 267.529042 429.069791 
L 264.318626 425.359501 
L 261.860238 421.563513 
L 259.678942 417.705342 
L 258.003001 413.780345 
L 256.924697 409.813371 
L 256.454398 405.8272 
L 254.952358 401.815787 
L 254.885594 397.778252 
L 254.414227 393.732284 
L 253.163721 389.663783 
L 252.389365 385.56221 
L 252.159611 377.328121 
L 251.386641 369.070189 
L 251.966268 364.935443 
L 253.328019 360.824285 
L 254.462022 356.744729 
L 254.902824 352.695542 
L 254.565109 344.637111 
L 255.368658 340.599199 
L 257.065077 336.596519 
L 263.105788 324.952329 
L 264.63928 321.18511 
L 267.160332 317.474997 
L 270.45399 313.848531 
L 273.234241 310.308125 
L 277.19442 303.438921 
L 279.560433 300.092645 
L 286.13766 293.682084 
L 288.64253 290.608819 
L 292.600726 287.626945 
L 296.968865 284.776651 
L 301.706324 282.052826 
L 313.692549 274.653309 
L 316.773231 272.409717 
L 320.359156 270.257748 
L 324.447941 268.219017 
L 328.692713 266.305279 
L 343.650344 261.446608 
L 348.320303 260.114438 
L 351.230581 258.892418 
L 355.517111 257.769306 
L 365.386536 255.958088 
L 374.527409 254.723615 
L 379.953492 254.312076 
L 385.79648 254.070032 
L 391.337089 253.997213 
L 396.923622 254.088491 
L 402.792795 254.350305 
L 407.995562 254.778386 
L 417.288089 256.042978 
L 426.648935 257.867959 
L 430.869705 258.989227 
L 436.076143 260.249247 
L 449.95217 264.853836 
L 457.884546 268.584284 
L 461.232732 270.612984 
L 465.077534 272.758722 
L 468.463998 274.999368 
L 472.547376 277.360935 
L 477.358388 279.846651 
L 481.367501 282.464415 
L 485.03228 285.197772 
L 488.15817 288.032457 
L 491.183675 290.960297 
L 494.972104 293.985419 
L 504.869264 303.669239 
L 507.561748 307.090729 
L 509.939419 310.580914 
L 513.288037 314.158449 
L 516.111513 317.824574 
L 519.485562 321.584634 
L 521.560024 325.424456 
L 524.505905 329.339816 
L 529.501444 337.405733 
L 531.720145 341.544623 
L 533.317682 345.742704 
L 535.093448 349.989505 
L 536.435079 354.282132 
L 536.740282 358.5993 
L 538.072301 367.285508 
L 537.581838 375.998358 
L 537.544804 380.341772 
L 537.173538 384.680233 
L 536.140801 388.997582 
L 535.620849 393.302229 
L 536.108243 401.894048 
L 534.81976 406.177715 
L 533.261244 410.423594 
L 530.694806 418.78187 
L 528.527591 426.991648 
L 527.511992 431.056867 
L 525.561513 435.075876 
L 522.521605 439.023208 
L 517.510325 446.668867 
L 513.617531 450.364155 
L 511.09829 453.963421 
L 508.914243 457.49333 
L 505.76686 460.939815 
L 500.69393 464.271606 
L 493.360367 470.558432 
L 490.730219 473.557773 
L 486.642843 476.454522 
L 483.597726 479.241479 
L 479.568932 481.929327 
L 474.842203 484.484717 
L 471.599548 486.923649 
L 466.455847 489.239539 
L 462.275485 491.416863 
L 452.466102 495.347493 
L 447.281183 497.090977 
L 443.20916 498.696497 
L 438.839179 500.183093 
L 434.164012 501.526464 
L 424.872913 503.802957 
L 415.450192 505.51401 
L 405.366839 506.643436 
L 401.389665 507.010164 
L 396.722534 507.250045 
L 391.46867 507.341761 
L 386.180818 507.275654 
L 381.360141 507.058309 
L 372.939256 506.242635 
L 367.687844 505.628911 
L 357.714964 503.960717 
L 341.97604 500.320413 
L 332.27914 497.129059 
L 328.23569 495.326155 
L 324.244488 493.400226 
L 321.53325 491.379747 
L 317.525282 489.253115 
L 313.836974 487.021263 
L 304.454757 482.172375 
L 293.931913 474.004636 
L 289.417142 471.058786 
L 285.767427 467.987116 
L 283.272032 464.827409 
L 280.536242 461.587401 
L 278.407789 458.282323 
L 275.790662 454.9008 
L 272.77019 451.437715 
L 270.30558 447.893182 
L 266.641089 444.260317 
L 264.554263 440.536433 
L 261.599332 436.744791 
L 259.463618 432.876826 
L 256.329168 428.926955 
L 254.934994 424.910449 
L 253.697973 420.856578 
L 252.013301 416.755673 
L 250.181907 412.604104 
L 248.743173 408.405181 
L 245.145972 399.859968 
L 243.662274 395.510812 
L 242.519943 391.119373 
L 241.556645 386.697751 
L 240.952873 382.251888 
L 240.923508 377.801147 
L 241.498068 373.362056 
L 242.538533 368.945526 
L 243.739345 364.556854 
L 244.627408 360.195718 
L 244.854823 355.855935 
L 245.769219 351.536959 
L 247.426929 347.255734 
L 249.592586 343.027755 
L 252.072248 338.865229 
L 257.404937 330.768911 
L 265.307219 319.23194 
L 268.214683 315.551787 
L 277.320223 305.022634 
L 282.557784 298.408453 
L 285.035273 295.224666 
L 287.668666 292.127392 
L 290.753673 289.121766 
L 294.672514 286.21444 
L 299.285213 283.423546 
L 303.954223 280.769434 
L 308.701548 278.255949 
L 313.536488 275.885938 
L 318.449915 273.661357 
L 323.414272 271.58327 
L 328.383572 269.651856 
L 333.2934 267.866402 
L 338.190982 266.223997 
L 343.429405 264.730458 
L 348.95664 263.4008 
L 363.91608 260.373127 
L 368.564346 259.634586 
L 382.001127 258.274856 
L 386.879537 258.077227 
L 392.172231 258.032275 
L 397.354831 258.144244 
L 401.899954 258.40115 
L 410.295895 259.281865 
L 415.602805 259.932568 
L 424.548459 261.647709 
L 429.012495 262.708063 
L 433.51284 263.903649 
L 437.743895 265.221715 
L 442.910344 266.6844 
L 447.407258 268.293532 
L 450.891729 270.017887 
L 455.181233 271.854883 
L 460.266789 273.836682 
L 464.547572 275.955408 
L 468.480101 278.194175 
L 472.168505 280.545618 
L 476.274439 283.010137 
L 481.106903 285.609813 
L 484.714647 288.339614 
L 488.931834 291.184027 
L 492.986062 294.14515 
L 496.034462 297.212217 
L 498.401557 300.361653 
L 501.86916 303.593453 
L 505.742501 306.935175 
L 509.257743 310.393131 
L 515.923093 317.606877 
L 517.887673 321.341184 
L 522.978968 329.018626 
L 525.718479 332.972001 
L 527.436082 336.987818 
L 528.070145 341.040675 
L 527.724133 345.108185 
L 528.60189 349.179368 
L 529.79655 353.278746 
L 531.285296 357.416077 
L 533.213584 365.790202 
L 533.242649 370.010962 
L 532.833871 374.22317 
L 532.583076 382.628418 
L 532.193324 386.820347 
L 530.552773 395.142707 
L 530.511605 399.276265 
L 529.11671 403.388097 
L 527.022767 407.461857 
L 526.011602 411.485368 
L 524.018726 415.467332 
L 522.641683 419.393598 
L 521.532637 423.269135 
L 518.885841 427.10025 
L 516.662078 430.862342 
L 515.86189 434.576151 
L 514.520934 438.254971 
L 512.267637 441.881381 
L 508.05945 445.420431 
L 505.230105 448.85257 
L 501.418368 452.183248 
L 498.843191 455.414219 
L 496.578241 458.576055 
L 493.716559 461.670304 
L 489.842799 464.661245 
L 474.293217 475.44252 
L 471.231977 477.868476 
L 466.796938 480.185194 
L 462.929162 482.376455 
L 460.391126 484.466091 
L 453.343208 488.366587 
L 448.701041 490.147557 
L 443.976967 491.787035 
L 440.675392 493.305183 
L 437.245492 494.730691 
L 432.607214 496.033256 
L 427.374565 497.189462 
L 423.585837 498.211655 
L 418.203007 499.098626 
L 414.396821 499.848011 
L 409.275145 500.468438 
L 400.054877 501.25659 
L 396.380413 501.469633 
L 392.594028 501.572112 
L 388.722004 501.560971 
L 381.289033 501.202593 
L 371.772863 500.358389 
L 362.576513 498.94995 
L 357.331266 498.028638 
L 352.926275 496.966709 
L 347.265105 495.752353 
L 341.490178 494.368079 
L 337.630998 492.83913 
L 334.134351 491.205132 
L 329.402861 489.445085 
L 325.19799 487.551847 
L 318.974222 483.4611 
L 311.597792 478.976357 
L 308.45125 476.569389 
L 306.023986 474.085299 
L 303.344727 471.527504 
L 299.302573 468.87033 
L 295.356516 466.092271 
L 292.19357 463.200393 
L 289.6934 460.229115 
L 285.326284 457.162312 
L 282.195699 453.983548 
L 278.252655 450.693004 
L 275.243855 447.306256 
L 271.318751 443.812901 
L 269.311556 440.230935 
L 266.149354 436.577322 
L 264.144307 432.845584 
L 260.909853 429.034433 
L 258.993383 425.14721 
L 256.062215 421.187929 
L 253.676464 417.14496 
L 252.662111 413.057021 
L 250.546805 408.919078 
L 247.888299 404.713635 
L 246.542266 400.447915 
L 246.169609 396.158011 
L 244.375308 387.512125 
L 243.346047 378.775363 
L 243.094187 374.391931 
L 243.72993 370.022496 
L 245.215597 365.680561 
L 246.892711 361.374095 
L 247.562842 357.105327 
L 248.702362 352.866704 
L 250.089833 348.660745 
L 251.529815 340.346696 
L 254.366387 332.148496 
L 256.564978 324.116214 
L 257.982462 320.151992 
L 260.06872 316.237579 
L 263.306956 312.396595 
L 267.579414 304.947315 
L 270.838886 301.327274 
L 277.498584 294.399734 
L 281.941353 291.094074 
L 289.009504 284.838754 
L 292.782968 281.864919 
L 300.43386 276.265775 
L 304.499829 273.639277 
L 309.597511 271.147428 
L 320.177566 266.62621 
L 330.786503 262.753752 
L 335.352497 261.028793 
L 335.352497 261.028793 
" clip-path="url(#p0e85ff3bbe)" style="fill: none; stroke-dasharray: 22.4,5.6,3.5,5.6; stroke-dashoffset: 0; stroke: #0000ff; stroke-opacity: 0.8; stroke-width: 3.5"/>
   </g>
   <g id="patch_3">
    <path d="M 52.160938 530.438125 
L 52.160938 22.318125 
" style="fill: none; stroke: #000000; stroke-width: 0.8; stroke-linejoin: miter; stroke-linecap: square"/>
   </g>
   <g id="patch_4">
    <path d="M 561.210937 530.438125 
L 561.210937 22.318125 
" style="fill: none; stroke: #000000; stroke-width: 0.8; stroke-linejoin: miter; stroke-linecap: square"/>
   </g>
   <g id="patch_5">
    <path d="M 52.160937 530.438125 
L 561.210937 530.438125 
" style="fill: none; stroke: #000000; stroke-width: 0.8; stroke-linejoin: miter; stroke-linecap: square"/>
   </g>
   <g id="patch_6">
    <path d="M 52.160937 22.318125 
L 561.210937 22.318125 
" style="fill: none; stroke: #000000; stroke-width: 0.8; stroke-linejoin: miter; stroke-linecap: square"/>
   </g>
   <g id="line2d_16">
    <path d="M 518.53331 376.348694 
L 521.840564 374.224196 
L 523.475279 372.998424 
L 526.640002 370.141907 
L 528.191608 368.526437 
L 529.699668 366.746066 
L 531.114851 364.728497 
L 532.362187 362.367654 
L 533.341066 359.523681 
L 533.925237 356.022939 
L 533.961921 351.657008 
L 533.157222 346.058168 
L 531.051914 338.698106 
L 527.209637 329.078757 
L 521.690027 317.041493 
L 516.283794 303.01732 
L 513.611063 287.278696 
L 514.845524 269.473667 
L 511.582157 249.809751 
L 478.696543 236.866027 
L 419.374603 238.066639 
L 329.407236 238.257914 
L 171.110035 197.618509 
L 123.891137 98.805569 
L 76.068149 45.613157 
L 76.101657 45.656412 
L 76.402714 45.654292 
L 76.020757 45.614977 
L 76.273567 45.714215 
L 75.919989 45.796144 
L 76.024823 45.571037 
L 76.594036 45.794133 
L 75.978303 45.603554 
L 76.527627 45.604807 
L 76.570203 45.813644 
L 76.005097 45.731584 
L 75.948794 45.456577 
L 76.427313 45.769689 
L 76.269085 45.7241 
L 75.989747 45.653173 
L 76.14364 45.566666 
L 76.509608 45.743841 
L 76.453105 45.76234 
L 75.949243 45.589614 
L 76.174495 45.59602 
L 76.472429 45.752733 
L 76.343697 45.754645 
L 76.101962 45.775744 
L 75.84067 45.569435 
L 76.143249 45.575734 
L 76.493128 45.760533 
L 76.36628 45.771202 
L 75.765897 45.700035 
L 75.694071 45.479437 
L 76.454857 45.762069 
L 76.344041 45.777236 
L 75.61851 45.601432 
L 76.484266 45.7908 
L 75.812376 45.591479 
L 76.005455 45.552571 
L 76.535448 45.867066 
L 76.128411 45.762945 
L 75.880561 45.57718 
L 76.223334 45.551727 
L 76.294093 45.685127 
L 76.570674 45.809175 
L 76.379442 45.80017 
L 75.851184 45.510008 
L 76.341515 45.687584 
L 76.464653 45.787427 
L 76.212906 45.596158 
L 75.930352 45.50979 
L 76.461681 45.754051 
L 76.442233 45.812397 
L 75.949483 45.598722 
L 76.265496 45.663202 
L 76.427053 45.767772 
L 76.057857 45.603802 
L 76.30058 45.715377 
L 76.221556 45.854665 
L 76.102606 45.630312 
L 75.991986 45.660972 
L 76.368461 45.705231 
L 76.462532 45.830227 
L 76.233733 45.710761 
L 75.965305 45.561182 
L 76.303437 45.568533 
L 76.558927 45.785193 
L 75.978708 45.60558 
L 76.258729 45.715666 
L 75.943523 45.834804 
L 76.040257 45.57295 
L 76.431881 45.7744 
L 76.297992 45.716203 
L 76.207496 45.749129 
L 76.001418 45.620392 
L 76.250121 45.583077 
L 76.572567 45.782114 
L 76.324333 45.73154 
L 76.245726 45.7892 
L 75.987186 45.612791 
L 75.996181 45.466921 
L 76.474211 45.757708 
L 76.337251 45.764092 
L 76.010913 45.58345 
L 76.188753 45.549432 
L 76.431538 45.769426 
L 76.289749 45.745544 
L 75.331561 45.671016 
L 75.882475 45.539061 
L 76.428114 45.727849 
L 76.361458 45.744176 
L 76.346091 45.834201 
L 75.88497 45.621355 
L 76.064493 45.570411 
L 76.459705 45.746425 
L 76.423984 45.774178 
L 76.164919 45.829884 
L 75.84366 45.585572 
L 75.958486 45.430536 
L 76.550899 45.76988 
L 76.489063 45.832463 
L 76.007079 45.719748 
L 75.945776 45.586749 
L 76.295324 45.58989 
L 76.481667 45.793853 
L 76.261435 45.790853 
L 75.899695 45.571689 
L 76.23929 45.653107 
L 76.465531 45.842963 
L 75.907849 45.581745 
L 76.295937 45.625684 
L 76.273033 45.671524 
L 76.476975 45.789755 
L 76.030708 45.575924 
L 76.209851 45.716685 
L 76.396061 45.576006 
L 76.066988 45.585601 
L 76.320582 45.683862 
L 76.360909 45.733609 
L 76.315605 45.744547 
L 76.079453 45.544278 
L 76.533064 45.756691 
L 76.044927 45.613709 
L 76.303194 45.605931 
L 76.655882 45.819135 
L 75.957534 45.599373 
L 76.546958 45.622409 
L 76.615458 45.842233 
L 75.968248 45.70537 
L 76.033075 45.497206 
L 76.428837 45.776356 
L 76.260423 45.723462 
L 76.541534 45.75855 
L 75.94842 45.574398 
L 75.988261 45.465908 
L 76.648097 45.834875 
L 76.295795 45.744808 
L 76.122292 45.736654 
L 75.788745 45.549608 
L 76.413147 45.752579 
L 76.311225 45.748195 
L 75.299574 45.698321 
L 75.945211 45.559997 
L 76.412091 45.728692 
L 76.366134 45.742988 
L 76.408606 45.879629 
L 75.924959 45.632886 
L 76.054905 45.574268 
L 76.434406 45.776861 
L 76.163193 45.849857 
L 75.87016 45.59491 
L 75.960745 45.414489 
L 76.594453 45.781541 
L 76.465546 45.81262 
L 75.892492 45.776187 
L 75.893213 45.584114 
L 76.097923 45.483246 
L 76.523394 45.893839 
L 75.653566 45.625626 
L 76.188942 45.613742 
L 76.491195 45.792372 
L 76.286868 45.778839 
L 75.802474 45.592623 
L 76.538149 45.866518 
L 75.884201 45.581577 
L 76.266922 45.663004 
L 76.448082 45.780776 
L 76.053768 45.593298 
L 76.113182 45.664449 
L 76.698308 45.650674 
L 76.0598 45.564506 
L 76.457822 45.728947 
L 76.337083 45.70478 
L 76.224658 45.710172 
L 76.011102 45.583537 
L 76.381185 45.604347 
L 76.299281 45.691516 
L 76.329455 45.71841 
L 76.256097 45.716782 
L 75.99676 45.604578 
L 76.427165 45.684435 
L 76.259894 45.716266 
L 75.89916 45.824932 
L 76.030427 45.568374 
L 76.40616 45.699027 
L 76.554472 45.877009 
L 76.332083 45.714426 
L 76.018618 45.615455 
L 76.244936 45.598696 
L 76.631898 45.798653 
L 76.306974 45.721786 
L 76.214934 45.764254 
L 76.005579 45.609216 
L 76.120579 45.483925 
L 76.468032 45.755661 
L 76.290483 45.749816 
L 76.021184 45.571712 
L 76.305733 45.593216 
L 76.439029 45.774916 
L 76.389228 45.736955 
L 75.53237 45.718001 
L 75.894284 45.536056 
L 76.651411 45.816153 
L 76.339294 45.745011 
L 76.214518 45.792308 
L 75.91582 45.603688 
L 76.044012 45.511966 
L 76.540732 45.798889 
L 76.383348 45.791027 
L 76.070888 45.710769 
L 76.014204 45.568556 
L 76.430551 45.754268 
L 76.321905 45.763243 
L 76.653745 45.858597 
L 75.44686 45.495806 
L 76.319219 45.688805 
L 76.54366 45.832531 
L 75.944428 45.612961 
L 76.089401 45.460171 
L 76.341047 45.708916 
L 76.619518 45.808283 
L 76.418668 45.803842 
L 75.889559 45.687154 
L 75.711959 45.471632 
L 76.30338 45.681362 
L 76.538245 45.803605 
L 75.841775 45.498774 
L 76.466955 45.797573 
L 76.168336 45.761969 
L 75.955755 45.599381 
L 76.113177 45.585827 
L 76.388547 45.749643 
L 76.082751 45.590031 
L 76.29056 45.714749 
L 76.155502 45.842692 
L 76.086439 45.615334 
L 76.545966 45.765121 
L 76.053325 45.631788 
L 76.311322 45.71509 
L 76.244064 45.777355 
L 76.028664 45.610991 
L 76.310345 45.601326 
L 76.641258 45.817664 
L 75.93317 45.595334 
L 76.51513 45.625088 
L 76.640707 45.860499 
L 75.938529 45.694753 
L 76.065347 45.517247 
L 76.425672 45.777229 
L 76.258338 45.725879 
L 75.98591 45.639617 
L 76.200021 45.662408 
" clip-path="url(#p0e85ff3bbe)" style="fill: none; stroke-dasharray: 3.5,5.775; stroke-dashoffset: 0; stroke: #008000; stroke-opacity: 0.8; stroke-width: 3.5"/>
   </g>
   <g id="text_16">
    <!-- Phase Portrait (x0 vs x1) -->
    <g transform="translate(232.994687 16.318125) scale(0.12 -0.12)">
     <defs>
      <path id="DejaVuSans-50" d="M 1259 4147 
L 1259 2394 
L 2053 2394 
Q 2494 2394 2734 2622 
Q 2975 2850 2975 3272 
Q 2975 3691 2734 3919 
Q 2494 4147 2053 4147 
L 1259 4147 
z
M 628 4666 
L 2053 4666 
Q 2838 4666 3239 4311 
Q 3641 3956 3641 3272 
Q 3641 2581 3239 2228 
Q 2838 1875 2053 1875 
L 1259 1875 
L 1259 0 
L 628 0 
L 628 4666 
z
" transform="scale(0.015625)"/>
      <path id="DejaVuSans-68" d="M 3513 2113 
L 3513 0 
L 2938 0 
L 2938 2094 
Q 2938 2591 2744 2837 
Q 2550 3084 2163 3084 
Q 1697 3084 1428 2787 
Q 1159 2491 1159 1978 
L 1159 0 
L 581 0 
L 581 4863 
L 1159 4863 
L 1159 2956 
Q 1366 3272 1645 3428 
Q 1925 3584 2291 3584 
Q 2894 3584 3203 3211 
Q 3513 2838 3513 2113 
z
" transform="scale(0.015625)"/>
      <path id="DejaVuSans-61" d="M 2194 1759 
Q 1497 1759 1228 1600 
Q 959 1441 959 1056 
Q 959 750 1161 570 
Q 1363 391 1709 391 
Q 2188 391 2477 730 
Q 2766 1069 2766 1631 
L 2766 1759 
L 2194 1759 
z
M 3341 1997 
L 3341 0 
L 2766 0 
L 2766 531 
Q 2569 213 2275 61 
Q 1981 -91 1556 -91 
Q 1019 -91 701 211 
Q 384 513 384 1019 
Q 384 1609 779 1909 
Q 1175 2209 1959 2209 
L 2766 2209 
L 2766 2266 
Q 2766 2663 2505 2880 
Q 2244 3097 1772 3097 
Q 1472 3097 1187 3025 
Q 903 2953 641 2809 
L 641 3341 
Q 956 3463 1253 3523 
Q 1550 3584 1831 3584 
Q 2591 3584 2966 3190 
Q 3341 2797 3341 1997 
z
" transform="scale(0.015625)"/>
      <path id="DejaVuSans-73" d="M 2834 3397 
L 2834 2853 
Q 2591 2978 2328 3040 
Q 2066 3103 1784 3103 
Q 1356 3103 1142 2972 
Q 928 2841 928 2578 
Q 928 2378 1081 2264 
Q 1234 2150 1697 2047 
L 1894 2003 
Q 2506 1872 2764 1633 
Q 3022 1394 3022 966 
Q 3022 478 2636 193 
Q 2250 -91 1575 -91 
Q 1294 -91 989 -36 
Q 684 19 347 128 
L 347 722 
Q 666 556 975 473 
Q 1284 391 1588 391 
Q 1994 391 2212 530 
Q 2431 669 2431 922 
Q 2431 1156 2273 1281 
Q 2116 1406 1581 1522 
L 1381 1569 
Q 847 1681 609 1914 
Q 372 2147 372 2553 
Q 372 3047 722 3315 
Q 1072 3584 1716 3584 
Q 2034 3584 2315 3537 
Q 2597 3491 2834 3397 
z
" transform="scale(0.015625)"/>
      <path id="DejaVuSans-65" d="M 3597 1894 
L 3597 1613 
L 953 1613 
Q 991 1019 1311 708 
Q 1631 397 2203 397 
Q 2534 397 2845 478 
Q 3156 559 3463 722 
L 3463 178 
Q 3153 47 2828 -22 
Q 2503 -91 2169 -91 
Q 1331 -91 842 396 
Q 353 884 353 1716 
Q 353 2575 817 3079 
Q 1281 3584 2069 3584 
Q 2775 3584 3186 3129 
Q 3597 2675 3597 1894 
z
M 3022 2063 
Q 3016 2534 2758 2815 
Q 2500 3097 2075 3097 
Q 1594 3097 1305 2825 
Q 1016 2553 972 2059 
L 3022 2063 
z
" transform="scale(0.015625)"/>
      <path id="DejaVuSans-20" transform="scale(0.015625)"/>
      <path id="DejaVuSans-6f" d="M 1959 3097 
Q 1497 3097 1228 2736 
Q 959 2375 959 1747 
Q 959 1119 1226 758 
Q 1494 397 1959 397 
Q 2419 397 2687 759 
Q 2956 1122 2956 1747 
Q 2956 2369 2687 2733 
Q 2419 3097 1959 3097 
z
M 1959 3584 
Q 2709 3584 3137 3096 
Q 3566 2609 3566 1747 
Q 3566 888 3137 398 
Q 2709 -91 1959 -91 
Q 1206 -91 779 398 
Q 353 888 353 1747 
Q 353 2609 779 3096 
Q 1206 3584 1959 3584 
z
" transform="scale(0.015625)"/>
      <path id="DejaVuSans-72" d="M 2631 2963 
Q 2534 3019 2420 3045 
Q 2306 3072 2169 3072 
Q 1681 3072 1420 2755 
Q 1159 2438 1159 1844 
L 1159 0 
L 581 0 
L 581 3500 
L 1159 3500 
L 1159 2956 
Q 1341 3275 1631 3429 
Q 1922 3584 2338 3584 
Q 2397 3584 2469 3576 
Q 2541 3569 2628 3553 
L 2631 2963 
z
" transform="scale(0.015625)"/>
      <path id="DejaVuSans-74" d="M 1172 4494 
L 1172 3500 
L 2356 3500 
L 2356 3053 
L 1172 3053 
L 1172 1153 
Q 1172 725 1289 603 
Q 1406 481 1766 481 
L 2356 481 
L 2356 0 
L 1766 0 
Q 1100 0 847 248 
Q 594 497 594 1153 
L 594 3053 
L 172 3053 
L 172 3500 
L 594 3500 
L 594 4494 
L 1172 4494 
z
" transform="scale(0.015625)"/>
      <path id="DejaVuSans-69" d="M 603 3500 
L 1178 3500 
L 1178 0 
L 603 0 
L 603 3500 
z
M 603 4863 
L 1178 4863 
L 1178 4134 
L 603 4134 
L 603 4863 
z
" transform="scale(0.015625)"/>
      <path id="DejaVuSans-28" d="M 1984 4856 
Q 1566 4138 1362 3434 
Q 1159 2731 1159 2009 
Q 1159 1288 1364 580 
Q 1569 -128 1984 -844 
L 1484 -844 
Q 1016 -109 783 600 
Q 550 1309 550 2009 
Q 550 2706 781 3412 
Q 1013 4119 1484 4856 
L 1984 4856 
z
" transform="scale(0.015625)"/>
      <path id="DejaVuSans-76" d="M 191 3500 
L 800 3500 
L 1894 563 
L 2988 3500 
L 3597 3500 
L 2284 0 
L 1503 0 
L 191 3500 
z
" transform="scale(0.015625)"/>
      <path id="DejaVuSans-29" d="M 513 4856 
L 1013 4856 
Q 1481 4119 1714 3412 
Q 1947 2706 1947 2009 
Q 1947 1309 1714 600 
Q 1481 -109 1013 -844 
L 513 -844 
Q 928 -128 1133 580 
Q 1338 1288 1338 2009 
Q 1338 2731 1133 3434 
Q 928 4138 513 4856 
z
" transform="scale(0.015625)"/>
     </defs>
     <use xlink:href="#DejaVuSans-50"/>
     <use xlink:href="#DejaVuSans-68" transform="translate(60.302734 0)"/>
     <use xlink:href="#DejaVuSans-61" transform="translate(123.681641 0)"/>
     <use xlink:href="#DejaVuSans-73" transform="translate(184.960938 0)"/>
     <use xlink:href="#DejaVuSans-65" transform="translate(237.060547 0)"/>
     <use xlink:href="#DejaVuSans-20" transform="translate(298.583984 0)"/>
     <use xlink:href="#DejaVuSans-50" transform="translate(330.371094 0)"/>
     <use xlink:href="#DejaVuSans-6f" transform="translate(387.048828 0)"/>
     <use xlink:href="#DejaVuSans-72" transform="translate(448.230469 0)"/>
     <use xlink:href="#DejaVuSans-74" transform="translate(489.34375 0)"/>
     <use xlink:href="#DejaVuSans-72" transform="translate(528.552734 0)"/>
     <use xlink:href="#DejaVuSans-61" transform="translate(569.666016 0)"/>
     <use xlink:href="#DejaVuSans-69" transform="translate(630.945312 0)"/>
     <use xlink:href="#DejaVuSans-74" transform="translate(658.728516 0)"/>
     <use xlink:href="#DejaVuSans-20" transform="translate(697.9375 0)"/>
     <use xlink:href="#DejaVuSans-28" transform="translate(729.724609 0)"/>
     <use xlink:href="#DejaVuSans-78" transform="translate(768.738281 0)"/>
     <use xlink:href="#DejaVuSans-30" transform="translate(827.917969 0)"/>
     <use xlink:href="#DejaVuSans-20" transform="translate(891.541016 0)"/>
     <use xlink:href="#DejaVuSans-76" transform="translate(923.328125 0)"/>
     <use xlink:href="#DejaVuSans-73" transform="translate(982.507812 0)"/>
     <use xlink:href="#DejaVuSans-20" transform="translate(1034.607422 0)"/>
     <use xlink:href="#DejaVuSans-78" transform="translate(1066.394531 0)"/>
     <use xlink:href="#DejaVuSans-31" transform="translate(1125.574219 0)"/>
     <use xlink:href="#DejaVuSans-29" transform="translate(1189.197266 0)"/>
    </g>
   </g>
   <g id="line2d_17">
    <path d="M 518.53331 376.348694 
L 519.283051 377.691172 
L 519.69435 379.022389 
L 520.432324 380.346074 
L 521.315158 381.651989 
L 521.737031 382.947799 
L 521.940244 384.266046 
L 521.694904 386.899485 
L 521.806388 388.226206 
L 521.773244 389.553107 
L 522.075181 392.225619 
L 520.145316 394.94636 
L 519.348361 396.360586 
L 519.125276 397.85319 
L 518.341623 399.332472 
L 515.663818 402.377499 
L 514.637261 403.968786 
L 514.227448 407.204497 
L 513.095221 408.836803 
L 511.055338 410.508348 
L 509.099849 412.256994 
L 507.551419 414.056661 
L 506.285555 415.897013 
L 505.238645 417.770293 
L 504.40106 419.688264 
L 503.263577 423.537358 
L 502.697871 425.398278 
L 501.773852 427.27224 
L 500.310637 429.244184 
L 499.058749 431.241157 
L 497.434595 433.322311 
L 495.084042 435.516566 
L 489.449997 440.011747 
L 484.077906 444.452462 
L 478.240505 448.962262 
L 475.344542 451.199971 
L 471.072792 455.898996 
L 468.591037 458.122779 
L 463.100004 464.650689 
L 460.713234 466.767473 
L 455.634791 470.852776 
L 448.693134 474.669968 
L 445.887691 476.447505 
L 442.866111 478.131133 
L 440.240237 479.744686 
L 433.847838 482.651231 
L 425.212364 484.964427 
L 414.41041 487.232037 
L 409.224529 487.641822 
L 404.647347 487.82867 
L 400.310545 487.811472 
L 396.146331 487.598371 
L 392.353952 487.199914 
L 385.322268 485.935051 
L 381.215848 485.053539 
L 372.49625 482.757353 
L 367.963316 481.333997 
L 363.768916 479.739419 
L 360.353946 478.013911 
L 357.056872 476.178605 
L 354.192941 474.251909 
L 346.403999 470.1029 
L 343.402123 467.893714 
L 340.866225 465.628548 
L 338.69532 463.310505 
L 336.964203 460.976208 
L 329.553484 453.605177 
L 327.492786 451.126236 
L 326.049427 448.604043 
L 320.858795 441.079024 
L 319.714545 438.571391 
L 318.261159 435.975467 
L 316.271131 433.427281 
L 313.768141 430.899835 
L 310.793008 428.376358 
L 308.535574 425.888036 
L 307.238438 423.416019 
L 303.821204 418.520199 
L 302.884244 416.101507 
L 301.369488 413.703108 
L 300.514061 411.272838 
L 299.958815 408.871455 
L 298.534665 406.503453 
L 294.564503 401.863744 
L 293.045922 399.609403 
L 292.020943 397.382143 
L 292.141478 395.163276 
L 292.620438 392.933643 
L 292.33188 388.434675 
L 292.378146 383.895647 
L 291.731696 381.620363 
L 291.924877 377.075021 
L 291.741117 374.729836 
L 292.42734 372.439209 
L 292.949858 370.128544 
L 294.249202 365.481348 
L 294.46147 363.087268 
L 294.281837 360.624279 
L 294.347347 358.18888 
L 294.759823 355.805607 
L 295.524327 353.404764 
L 296.939723 350.978577 
L 300.658159 346.029444 
L 302.309587 343.49961 
L 304.436157 340.991652 
L 305.3199 338.399082 
L 305.815375 335.803029 
L 307.586995 333.256449 
L 312.144041 328.167976 
L 315.177027 325.641841 
L 318.487851 323.142195 
L 328.991035 315.94005 
L 334.796222 311.571329 
L 337.17153 309.541793 
L 339.274575 307.595683 
L 341.675437 305.73865 
L 343.723021 303.974935 
L 346.462836 302.308723 
L 349.520971 300.76994 
L 356.306788 298.15036 
L 362.939647 296.181438 
L 365.691977 295.421881 
L 368.425739 294.802155 
L 371.779002 294.337284 
L 375.063504 294.042103 
L 378.191262 293.909999 
L 382.003895 293.950763 
L 385.448438 294.165756 
L 393.318385 295.124421 
L 400.545052 296.785706 
L 404.206544 297.859283 
L 410.562136 300.400679 
L 413.380299 301.841183 
L 415.528872 303.361955 
L 418.297897 304.966494 
L 420.644903 306.652247 
L 427.468019 312.106771 
L 429.830412 314.043489 
L 432.736493 316.035439 
L 436.083751 318.089871 
L 438.735299 320.20498 
L 445.100068 324.569343 
L 447.845823 326.802632 
L 450.982356 329.076589 
L 453.975608 331.390438 
L 456.518636 333.690726 
L 458.84617 335.99878 
L 460.939314 338.310784 
L 464.402257 342.933723 
L 465.345083 345.243397 
L 468.069506 349.854444 
L 469.298645 354.459152 
L 469.608444 356.756669 
L 470.23765 363.68443 
L 471.544172 372.979583 
L 471.357167 375.351849 
L 471.992491 377.664399 
L 471.859266 379.981385 
L 472.258822 382.290811 
L 472.424142 384.619012 
L 471.339167 386.962501 
L 471.262056 389.284027 
L 472.088103 391.609509 
L 471.951601 393.929153 
L 471.379968 396.250792 
L 471.190672 398.567916 
L 466.652792 405.566951 
L 464.710852 407.899002 
L 462.590015 410.195823 
L 460.990406 412.506211 
L 458.709783 414.76248 
L 452.96242 419.246339 
L 451.05219 421.385072 
L 448.921146 423.484103 
L 447.270225 425.522019 
L 439.844939 431.427067 
L 437.65955 433.213885 
L 432.765531 436.556468 
L 428.394131 439.52084 
L 425.825829 440.876308 
L 422.537156 442.09118 
L 408.861006 446.182338 
L 406.483408 446.655278 
L 404.039083 447.009413 
L 399.461526 447.361996 
L 397.042009 447.378478 
L 394.703081 447.27774 
L 392.7243 447.066955 
L 389.585951 446.405668 
L 385.225353 445.405042 
L 380.639785 443.972256 
L 378.372497 443.092697 
L 372.084855 439.90629 
L 369.838935 438.656071 
L 365.607101 435.898406 
L 363.652039 434.390787 
L 361.78573 432.811238 
L 357.356932 429.425075 
L 355.25808 427.615908 
L 349.819032 421.801353 
L 348.580698 419.762559 
L 343.865919 413.414406 
L 340.086772 406.742436 
L 339.210046 404.467442 
L 338.512632 402.174893 
L 337.302012 399.855998 
L 336.783192 397.526046 
L 336.456264 395.194209 
L 336.43408 392.869096 
L 336.857168 390.537504 
L 336.487898 385.901517 
L 336.309561 383.59016 
L 335.965963 381.280686 
L 336.257681 378.96825 
L 336.678604 376.677732 
L 336.485147 374.410844 
L 337.405277 372.052022 
L 338.103724 369.822742 
L 338.337692 367.609392 
L 338.873569 365.407086 
L 339.043543 363.217201 
L 340.285373 361.05028 
L 341.075333 358.938791 
L 341.974806 356.872207 
L 343.650065 354.815964 
L 344.223082 352.846673 
L 345.197314 350.906398 
L 346.839843 349.031754 
L 349.644413 345.424075 
L 353.902384 342.164803 
L 354.73645 340.665423 
L 355.896647 339.200322 
L 360.94212 335.325973 
L 363.345782 334.220814 
L 366.357404 332.294461 
L 368.229987 331.456397 
L 370.663623 330.731739 
L 372.049782 330.107854 
L 373.957169 329.564954 
L 377.71948 328.801539 
L 382.144252 328.466984 
L 384.263654 328.458547 
L 386.506221 328.561049 
L 391.274186 329.085219 
L 393.983856 329.547261 
L 400.293574 331.541971 
L 404.567023 333.358545 
L 408.610719 335.52821 
L 414.324461 339.339682 
L 415.997941 340.750834 
L 417.511583 342.220833 
L 421.087828 345.316109 
L 421.735581 346.951729 
L 422.614739 348.5858 
L 426.099789 351.985749 
L 427.163727 353.749825 
L 428.844455 355.549944 
L 430.267594 359.224592 
L 431.216133 361.089544 
L 431.404231 362.95949 
L 432.073028 364.838693 
L 433.443818 366.736476 
L 434.094725 368.65685 
L 434.434246 372.510439 
L 434.880853 374.434317 
L 435.991044 376.370643 
L 436.782468 378.326635 
L 437.126872 380.302645 
L 436.685498 382.261418 
L 436.938607 384.205436 
L 436.850469 386.154283 
L 436.035662 388.073655 
L 435.553828 389.985795 
L 435.588031 393.741138 
L 435.348725 395.602691 
L 434.549225 397.444302 
L 434.517003 399.271189 
L 433.651731 401.077735 
L 433.301715 402.847234 
L 432.493889 404.596762 
L 430.81104 407.977166 
L 429.988449 409.619143 
L 428.291077 411.213659 
L 427.175927 412.736147 
L 426.652423 414.227441 
L 424.800309 415.67033 
L 423.482699 417.042725 
L 421.77786 418.346336 
L 418.239849 420.710595 
L 417.102335 421.786179 
L 414.575332 423.770829 
L 411.623246 425.489153 
L 409.902919 426.234495 
L 406.231865 427.458462 
L 402.150975 428.304528 
L 400.127855 428.576169 
L 396.50115 428.814858 
L 392.933045 428.699016 
L 390.838434 428.320512 
L 385.400457 426.888833 
L 381.916017 425.716849 
L 378.551134 424.223723 
L 377.335677 423.374265 
L 375.530855 422.460064 
L 374.375413 421.474515 
L 372.813425 420.430251 
L 370.361734 418.169582 
L 368.977454 416.957317 
L 367.985386 415.704366 
L 366.624888 414.399714 
L 365.46444 413.042527 
L 363.695696 411.621822 
L 362.377919 410.148705 
L 360.667499 408.610581 
L 359.87496 407.034738 
L 358.391813 405.418225 
L 357.5065 403.754568 
L 356.326008 402.059765 
L 355.78177 400.333072 
L 355.364819 396.862319 
L 353.81757 391.604883 
L 354.123503 389.84979 
L 353.930127 388.061915 
L 352.766714 384.514372 
L 352.824676 382.722228 
L 353.036005 380.953502 
L 352.788678 379.185776 
L 353.005235 377.436266 
L 352.927057 375.697182 
L 353.657951 373.977012 
L 354.12011 372.286507 
L 354.933753 370.631236 
L 356.000341 369.005971 
L 356.874816 367.447761 
L 358.046573 365.94525 
L 360.753116 363.132938 
L 361.091728 361.810363 
L 361.719815 360.514785 
L 363.125044 359.279564 
L 363.169505 358.064427 
L 363.433137 356.844693 
L 364.365613 355.6896 
L 367.34958 352.563549 
L 368.674088 350.710838 
L 369.693187 349.851885 
L 370.944898 349.055978 
L 371.785309 348.311758 
L 374.008576 346.9997 
L 374.523923 346.418223 
L 375.428112 345.877147 
L 376.54134 345.390198 
L 380.366862 344.343043 
L 381.347139 344.117038 
L 384.010439 343.854498 
L 386.674844 343.886044 
L 391.549121 344.412072 
L 393.561637 344.778828 
L 394.925967 345.226399 
L 395.620246 345.72304 
L 397.583396 346.834184 
L 399.923679 348.13672 
L 401.316769 348.871196 
L 405.132117 351.406416 
L 405.409056 352.341655 
L 406.148905 353.2985 
L 408.099344 355.305965 
L 409.25625 356.367715 
L 409.975532 357.472835 
L 409.975532 357.472835 
" clip-path="url(#p0e85ff3bbe)" style="fill: none; stroke-dasharray: 12.95,5.6; stroke-dashoffset: 0; stroke: #ff0000; stroke-opacity: 0.8; stroke-width: 3.5"/>
   </g>
   <g id="legend_1">
    <g id="patch_7">
     <path d="M 408.860937 89.030625 
L 554.210937 89.030625 
Q 556.210937 89.030625 556.210937 87.030625 
L 556.210937 29.318125 
Q 556.210937 27.318125 554.210937 27.318125 
L 408.860937 27.318125 
Q 406.860937 27.318125 406.860937 29.318125 
L 406.860937 87.030625 
Q 406.860937 89.030625 408.860937 89.030625 
z
" style="fill: #ffffff; opacity: 0.8; stroke: #cccccc; stroke-linejoin: miter"/>
    </g>
    <g id="line2d_18">
     <path d="M 410.860937 35.416562 
L 420.860937 35.416562 
L 430.860937 35.416562 
" style="fill: none; stroke: #000000; stroke-opacity: 0.3; stroke-width: 7; stroke-linecap: square"/>
    </g>
    <g id="text_17">
     <!-- True/Underlying model -->
     <g transform="translate(438.860937 38.916562) scale(0.1 -0.1)">
      <defs>
       <path id="DejaVuSans-54" d="M -19 4666 
L 3928 4666 
L 3928 4134 
L 2272 4134 
L 2272 0 
L 1638 0 
L 1638 4134 
L -19 4134 
L -19 4666 
z
" transform="scale(0.015625)"/>
       <path id="DejaVuSans-75" d="M 544 1381 
L 544 3500 
L 1119 3500 
L 1119 1403 
Q 1119 906 1312 657 
Q 1506 409 1894 409 
Q 2359 409 2629 706 
Q 2900 1003 2900 1516 
L 2900 3500 
L 3475 3500 
L 3475 0 
L 2900 0 
L 2900 538 
Q 2691 219 2414 64 
Q 2138 -91 1772 -91 
Q 1169 -91 856 284 
Q 544 659 544 1381 
z
M 1991 3584 
L 1991 3584 
z
" transform="scale(0.015625)"/>
       <path id="DejaVuSans-2f" d="M 1625 4666 
L 2156 4666 
L 531 -594 
L 0 -594 
L 1625 4666 
z
" transform="scale(0.015625)"/>
       <path id="DejaVuSans-55" d="M 556 4666 
L 1191 4666 
L 1191 1831 
Q 1191 1081 1462 751 
Q 1734 422 2344 422 
Q 2950 422 3222 751 
Q 3494 1081 3494 1831 
L 3494 4666 
L 4128 4666 
L 4128 1753 
Q 4128 841 3676 375 
Q 3225 -91 2344 -91 
Q 1459 -91 1007 375 
Q 556 841 556 1753 
L 556 4666 
z
" transform="scale(0.015625)"/>
       <path id="DejaVuSans-6e" d="M 3513 2113 
L 3513 0 
L 2938 0 
L 2938 2094 
Q 2938 2591 2744 2837 
Q 2550 3084 2163 3084 
Q 1697 3084 1428 2787 
Q 1159 2491 1159 1978 
L 1159 0 
L 581 0 
L 581 3500 
L 1159 3500 
L 1159 2956 
Q 1366 3272 1645 3428 
Q 1925 3584 2291 3584 
Q 2894 3584 3203 3211 
Q 3513 2838 3513 2113 
z
" transform="scale(0.015625)"/>
       <path id="DejaVuSans-64" d="M 2906 2969 
L 2906 4863 
L 3481 4863 
L 3481 0 
L 2906 0 
L 2906 525 
Q 2725 213 2448 61 
Q 2172 -91 1784 -91 
Q 1150 -91 751 415 
Q 353 922 353 1747 
Q 353 2572 751 3078 
Q 1150 3584 1784 3584 
Q 2172 3584 2448 3432 
Q 2725 3281 2906 2969 
z
M 947 1747 
Q 947 1113 1208 752 
Q 1469 391 1925 391 
Q 2381 391 2643 752 
Q 2906 1113 2906 1747 
Q 2906 2381 2643 2742 
Q 2381 3103 1925 3103 
Q 1469 3103 1208 2742 
Q 947 2381 947 1747 
z
" transform="scale(0.015625)"/>
       <path id="DejaVuSans-6c" d="M 603 4863 
L 1178 4863 
L 1178 0 
L 603 0 
L 603 4863 
z
" transform="scale(0.015625)"/>
       <path id="DejaVuSans-79" d="M 2059 -325 
Q 1816 -950 1584 -1140 
Q 1353 -1331 966 -1331 
L 506 -1331 
L 506 -850 
L 844 -850 
Q 1081 -850 1212 -737 
Q 1344 -625 1503 -206 
L 1606 56 
L 191 3500 
L 800 3500 
L 1894 763 
L 2988 3500 
L 3597 3500 
L 2059 -325 
z
" transform="scale(0.015625)"/>
       <path id="DejaVuSans-67" d="M 2906 1791 
Q 2906 2416 2648 2759 
Q 2391 3103 1925 3103 
Q 1463 3103 1205 2759 
Q 947 2416 947 1791 
Q 947 1169 1205 825 
Q 1463 481 1925 481 
Q 2391 481 2648 825 
Q 2906 1169 2906 1791 
z
M 3481 434 
Q 3481 -459 3084 -895 
Q 2688 -1331 1869 -1331 
Q 1566 -1331 1297 -1286 
Q 1028 -1241 775 -1147 
L 775 -588 
Q 1028 -725 1275 -790 
Q 1522 -856 1778 -856 
Q 2344 -856 2625 -561 
Q 2906 -266 2906 331 
L 2906 616 
Q 2728 306 2450 153 
Q 2172 0 1784 0 
Q 1141 0 747 490 
Q 353 981 353 1791 
Q 353 2603 747 3093 
Q 1141 3584 1784 3584 
Q 2172 3584 2450 3431 
Q 2728 3278 2906 2969 
L 2906 3500 
L 3481 3500 
L 3481 434 
z
" transform="scale(0.015625)"/>
       <path id="DejaVuSans-6d" d="M 3328 2828 
Q 3544 3216 3844 3400 
Q 4144 3584 4550 3584 
Q 5097 3584 5394 3201 
Q 5691 2819 5691 2113 
L 5691 0 
L 5113 0 
L 5113 2094 
Q 5113 2597 4934 2840 
Q 4756 3084 4391 3084 
Q 3944 3084 3684 2787 
Q 3425 2491 3425 1978 
L 3425 0 
L 2847 0 
L 2847 2094 
Q 2847 2600 2669 2842 
Q 2491 3084 2119 3084 
Q 1678 3084 1418 2786 
Q 1159 2488 1159 1978 
L 1159 0 
L 581 0 
L 581 3500 
L 1159 3500 
L 1159 2956 
Q 1356 3278 1631 3431 
Q 1906 3584 2284 3584 
Q 2666 3584 2933 3390 
Q 3200 3197 3328 2828 
z
" transform="scale(0.015625)"/>
      </defs>
      <use xlink:href="#DejaVuSans-54"/>
      <use xlink:href="#DejaVuSans-72" transform="translate(46.333984 0)"/>
      <use xlink:href="#DejaVuSans-75" transform="translate(87.447266 0)"/>
      <use xlink:href="#DejaVuSans-65" transform="translate(150.826172 0)"/>
      <use xlink:href="#DejaVuSans-2f" transform="translate(212.349609 0)"/>
      <use xlink:href="#DejaVuSans-55" transform="translate(246.041016 0)"/>
      <use xlink:href="#DejaVuSans-6e" transform="translate(319.234375 0)"/>
      <use xlink:href="#DejaVuSans-64" transform="translate(382.613281 0)"/>
      <use xlink:href="#DejaVuSans-65" transform="translate(446.089844 0)"/>
      <use xlink:href="#DejaVuSans-72" transform="translate(507.613281 0)"/>
      <use xlink:href="#DejaVuSans-6c" transform="translate(548.726562 0)"/>
      <use xlink:href="#DejaVuSans-79" transform="translate(576.509766 0)"/>
      <use xlink:href="#DejaVuSans-69" transform="translate(635.689453 0)"/>
      <use xlink:href="#DejaVuSans-6e" transform="translate(663.472656 0)"/>
      <use xlink:href="#DejaVuSans-67" transform="translate(726.851562 0)"/>
      <use xlink:href="#DejaVuSans-20" transform="translate(790.328125 0)"/>
      <use xlink:href="#DejaVuSans-6d" transform="translate(822.115234 0)"/>
      <use xlink:href="#DejaVuSans-6f" transform="translate(919.527344 0)"/>
      <use xlink:href="#DejaVuSans-64" transform="translate(980.708984 0)"/>
      <use xlink:href="#DejaVuSans-65" transform="translate(1044.185547 0)"/>
      <use xlink:href="#DejaVuSans-6c" transform="translate(1105.708984 0)"/>
     </g>
    </g>
    <g id="line2d_19">
     <path d="M 410.860937 50.094687 
L 420.860937 50.094687 
L 430.860937 50.094687 
" style="fill: none; stroke-dasharray: 12.95,5.6; stroke-dashoffset: 0; stroke: #ff0000; stroke-opacity: 0.8; stroke-width: 3.5"/>
    </g>
    <g id="text_18">
     <!-- AutoSINDy -->
     <g transform="translate(438.860937 53.594687) scale(0.1 -0.1)">
      <defs>
       <path id="DejaVuSans-41" d="M 2188 4044 
L 1331 1722 
L 3047 1722 
L 2188 4044 
z
M 1831 4666 
L 2547 4666 
L 4325 0 
L 3669 0 
L 3244 1197 
L 1141 1197 
L 716 0 
L 50 0 
L 1831 4666 
z
" transform="scale(0.015625)"/>
       <path id="DejaVuSans-53" d="M 3425 4513 
L 3425 3897 
Q 3066 4069 2747 4153 
Q 2428 4238 2131 4238 
Q 1616 4238 1336 4038 
Q 1056 3838 1056 3469 
Q 1056 3159 1242 3001 
Q 1428 2844 1947 2747 
L 2328 2669 
Q 3034 2534 3370 2195 
Q 3706 1856 3706 1288 
Q 3706 609 3251 259 
Q 2797 -91 1919 -91 
Q 1588 -91 1214 -16 
Q 841 59 441 206 
L 441 856 
Q 825 641 1194 531 
Q 1563 422 1919 422 
Q 2459 422 2753 634 
Q 3047 847 3047 1241 
Q 3047 1584 2836 1778 
Q 2625 1972 2144 2069 
L 1759 2144 
Q 1053 2284 737 2584 
Q 422 2884 422 3419 
Q 422 4038 858 4394 
Q 1294 4750 2059 4750 
Q 2388 4750 2728 4690 
Q 3069 4631 3425 4513 
z
" transform="scale(0.015625)"/>
       <path id="DejaVuSans-49" d="M 628 4666 
L 1259 4666 
L 1259 0 
L 628 0 
L 628 4666 
z
" transform="scale(0.015625)"/>
       <path id="DejaVuSans-4e" d="M 628 4666 
L 1478 4666 
L 3547 763 
L 3547 4666 
L 4159 4666 
L 4159 0 
L 3309 0 
L 1241 3903 
L 1241 0 
L 628 0 
L 628 4666 
z
" transform="scale(0.015625)"/>
       <path id="DejaVuSans-44" d="M 1259 4147 
L 1259 519 
L 2022 519 
Q 2988 519 3436 956 
Q 3884 1394 3884 2338 
Q 3884 3275 3436 3711 
Q 2988 4147 2022 4147 
L 1259 4147 
z
M 628 4666 
L 1925 4666 
Q 3281 4666 3915 4102 
Q 4550 3538 4550 2338 
Q 4550 1131 3912 565 
Q 3275 0 1925 0 
L 628 0 
L 628 4666 
z
" transform="scale(0.015625)"/>
      </defs>
      <use xlink:href="#DejaVuSans-41"/>
      <use xlink:href="#DejaVuSans-75" transform="translate(68.408203 0)"/>
      <use xlink:href="#DejaVuSans-74" transform="translate(131.787109 0)"/>
      <use xlink:href="#DejaVuSans-6f" transform="translate(170.996094 0)"/>
      <use xlink:href="#DejaVuSans-53" transform="translate(232.177734 0)"/>
      <use xlink:href="#DejaVuSans-49" transform="translate(295.654297 0)"/>
      <use xlink:href="#DejaVuSans-4e" transform="translate(325.146484 0)"/>
      <use xlink:href="#DejaVuSans-44" transform="translate(399.951172 0)"/>
      <use xlink:href="#DejaVuSans-79" transform="translate(476.953125 0)"/>
     </g>
    </g>
    <g id="line2d_20">
     <path d="M 410.860937 64.772812 
L 420.860937 64.772812 
L 430.860937 64.772812 
" style="fill: none; stroke-dasharray: 3.5,5.775; stroke-dashoffset: 0; stroke: #008000; stroke-opacity: 0.8; stroke-width: 3.5"/>
    </g>
    <g id="text_19">
     <!-- Standard SINDy -->
     <g transform="translate(438.860937 68.272812) scale(0.1 -0.1)">
      <use xlink:href="#DejaVuSans-53"/>
      <use xlink:href="#DejaVuSans-74" transform="translate(63.476562 0)"/>
      <use xlink:href="#DejaVuSans-61" transform="translate(102.685547 0)"/>
      <use xlink:href="#DejaVuSans-6e" transform="translate(163.964844 0)"/>
      <use xlink:href="#DejaVuSans-64" transform="translate(227.34375 0)"/>
      <use xlink:href="#DejaVuSans-61" transform="translate(290.820312 0)"/>
      <use xlink:href="#DejaVuSans-72" transform="translate(352.099609 0)"/>
      <use xlink:href="#DejaVuSans-64" transform="translate(391.462891 0)"/>
      <use xlink:href="#DejaVuSans-20" transform="translate(454.939453 0)"/>
      <use xlink:href="#DejaVuSans-53" transform="translate(486.726562 0)"/>
      <use xlink:href="#DejaVuSans-49" transform="translate(550.203125 0)"/>
      <use xlink:href="#DejaVuSans-4e" transform="translate(579.695312 0)"/>
      <use xlink:href="#DejaVuSans-44" transform="translate(654.5 0)"/>
      <use xlink:href="#DejaVuSans-79" transform="translate(731.501953 0)"/>
     </g>
    </g>
    <g id="line2d_21">
     <path d="M 410.860937 79.450937 
L 420.860937 79.450937 
L 430.860937 79.450937 
" style="fill: none; stroke-dasharray: 22.4,5.6,3.5,5.6; stroke-dashoffset: 0; stroke: #0000ff; stroke-opacity: 0.8; stroke-width: 3.5"/>
    </g>
    <g id="text_20">
     <!-- Standard PySR -->
     <g transform="translate(438.860937 82.950937) scale(0.1 -0.1)">
      <defs>
       <path id="DejaVuSans-52" d="M 2841 2188 
Q 3044 2119 3236 1894 
Q 3428 1669 3622 1275 
L 4263 0 
L 3584 0 
L 2988 1197 
Q 2756 1666 2539 1819 
Q 2322 1972 1947 1972 
L 1259 1972 
L 1259 0 
L 628 0 
L 628 4666 
L 2053 4666 
Q 2853 4666 3247 4331 
Q 3641 3997 3641 3322 
Q 3641 2881 3436 2590 
Q 3231 2300 2841 2188 
z
M 1259 4147 
L 1259 2491 
L 2053 2491 
Q 2509 2491 2742 2702 
Q 2975 2913 2975 3322 
Q 2975 3731 2742 3939 
Q 2509 4147 2053 4147 
L 1259 4147 
z
" transform="scale(0.015625)"/>
      </defs>
      <use xlink:href="#DejaVuSans-53"/>
      <use xlink:href="#DejaVuSans-74" transform="translate(63.476562 0)"/>
      <use xlink:href="#DejaVuSans-61" transform="translate(102.685547 0)"/>
      <use xlink:href="#DejaVuSans-6e" transform="translate(163.964844 0)"/>
      <use xlink:href="#DejaVuSans-64" transform="translate(227.34375 0)"/>
      <use xlink:href="#DejaVuSans-61" transform="translate(290.820312 0)"/>
      <use xlink:href="#DejaVuSans-72" transform="translate(352.099609 0)"/>
      <use xlink:href="#DejaVuSans-64" transform="translate(391.462891 0)"/>
      <use xlink:href="#DejaVuSans-20" transform="translate(454.939453 0)"/>
      <use xlink:href="#DejaVuSans-50" transform="translate(486.726562 0)"/>
      <use xlink:href="#DejaVuSans-79" transform="translate(547.029297 0)"/>
      <use xlink:href="#DejaVuSans-53" transform="translate(606.208984 0)"/>
      <use xlink:href="#DejaVuSans-52" transform="translate(669.685547 0)"/>
     </g>
    </g>
   </g>
  </g>
 </g>
 <defs>
  <clipPath id="p0e85ff3bbe">
   <rect x="52.160938" y="22.318125" width="509.05" height="508.12"/>
  </clipPath>
 </defs>
</svg>
