<?xml version="1.0" encoding="utf-8" standalone="no"?>
<!DOCTYPE svg PUBLIC "-//W3C//DTD SVG 1.1//EN"
  "http://www.w3.org/Graphics/SVG/1.1/DTD/svg11.dtd">
<svg xmlns:xlink="http://www.w3.org/1999/xlink" width="871.750937pt" height="285.79625pt" viewBox="0 0 871.750937 285.79625" xmlns="http://www.w3.org/2000/svg" version="1.1">
 <metadata>
  <rdf:RDF xmlns:dc="http://purl.org/dc/elements/1.1/" xmlns:cc="http://creativecommons.org/ns#" xmlns:rdf="http://www.w3.org/1999/02/22-rdf-syntax-ns#">
   <cc:Work>
    <dc:type rdf:resource="http://purl.org/dc/dcmitype/StillImage"/>
    <dc:date>2026-04-06T02:28:05.347622</dc:date>
    <dc:format>image/svg+xml</dc:format>
    <dc:creator>
     <cc:Agent>
      <dc:title>Matplotlib v3.10.7, https://matplotlib.org/</dc:title>
     </cc:Agent>
    </dc:creator>
   </cc:Work>
  </rdf:RDF>
 </metadata>
 <defs>
  <style type="text/css">*{stroke-linejoin: round; stroke-linecap: butt}</style>
 </defs>
 <g id="figure_1">
  <g id="patch_1">
   <path d="M 0 285.79625 
L 871.750937 285.79625 
L 871.750937 0 
L 0 0 
z
" style="fill: #ffffff"/>
  </g>
  <g id="axes_1">
   <g id="patch_2">
    <path d="M 52.160938 136.79 
L 858.750937 136.79 
L 858.750937 39.64 
L 52.160938 39.64 
z
" style="fill: #ffffff"/>
   </g>
   <g id="line2d_1">
    <path d="M 88.824119 44.253242 
L 94.701984 44.115201 
L 100.579849 44.230489 
L 106.457714 44.598003 
L 112.335579 45.223164 
L 118.213443 46.11725 
L 124.091308 47.296816 
L 128.499707 48.384772 
L 132.908105 49.661247 
L 137.316504 51.139236 
L 141.724903 52.831859 
L 146.133301 54.75237 
L 150.5417 56.914137 
L 154.950099 59.329352 
L 159.358497 62.005131 
L 163.766896 64.939638 
L 168.175294 68.121415 
L 172.583693 71.529387 
L 178.461558 76.370777 
L 185.808889 82.755463 
L 199.034085 94.338432 
L 204.91195 99.125805 
L 209.320348 102.452251 
L 213.728747 105.506207 
L 218.137145 108.256543 
L 222.545544 110.68172 
L 226.953943 112.774754 
L 231.362341 114.540101 
L 235.77074 115.981495 
L 240.179138 117.103789 
L 244.587537 117.912954 
L 248.995936 118.416081 
L 253.404334 118.62139 
L 257.812733 118.535806 
L 262.221132 118.160687 
L 266.62953 117.497367 
L 271.037929 116.548169 
L 275.446327 115.316405 
L 279.854726 113.806378 
L 284.263125 112.023381 
L 288.671523 109.973697 
L 293.079922 107.6646 
L 297.48832 105.109732 
L 301.896719 102.339713 
L 307.774584 98.374206 
L 315.121915 93.12269 
L 328.347111 83.574995 
L 334.224976 79.622403 
L 338.633374 76.875514 
L 343.041773 74.357601 
L 347.450171 72.099256 
L 351.85857 70.124005 
L 356.266969 68.448306 
L 360.675367 67.081549 
L 365.083766 66.023724 
L 369.492164 65.271809 
L 373.900563 64.824591 
L 378.308962 64.679545 
L 382.71736 64.832826 
L 387.125759 65.279275 
L 391.534158 66.012415 
L 395.942556 67.024422 
L 400.350955 68.306748 
L 404.759353 69.849093 
L 409.167752 71.636323 
L 413.576151 73.648236 
L 419.454015 76.635881 
L 425.33188 79.90352 
L 434.148678 85.128821 
L 445.904407 92.130428 
L 451.782272 95.400006 
L 457.660137 98.386736 
L 462.068535 100.39397 
L 466.476934 102.171187 
L 470.885333 103.698731 
L 475.293731 104.965787 
L 479.70213 105.962841 
L 484.110529 106.68376 
L 488.518927 107.125849 
L 492.927326 107.28985 
L 497.335724 107.17994 
L 501.744123 106.803144 
L 506.152522 106.165177 
L 510.56092 105.273418 
L 514.969319 104.13915 
L 519.377717 102.777561 
L 523.786116 101.20775 
L 529.663981 98.831092 
L 535.541846 96.190947 
L 542.889177 92.636254 
L 560.522771 83.949146 
L 566.400636 81.319625 
L 572.278501 78.958553 
L 576.686899 77.399486 
L 581.095298 76.045441 
L 585.503697 74.912577 
L 589.912095 74.012412 
L 594.320494 73.351825 
L 598.728893 72.932722 
L 603.137291 72.755977 
L 607.54569 72.822044 
L 611.954088 73.127956 
L 616.362487 73.667292 
L 620.770886 74.430177 
L 625.179284 75.403283 
L 629.587683 76.569829 
L 635.465548 78.39186 
L 641.343412 80.473252 
L 648.690743 83.343378 
L 675.141135 94.007856 
L 681.019 95.988547 
L 686.896865 97.692831 
L 691.305263 98.76387 
L 695.713662 99.642392 
L 700.122061 100.319286 
L 704.530459 100.789964 
L 708.938858 101.050695 
L 713.347257 101.099974 
L 717.755655 100.939603 
L 722.164054 100.574692 
L 726.572452 100.013652 
L 730.980851 99.268205 
L 736.858716 98.012068 
L 742.736581 96.489995 
L 748.614445 94.748659 
L 755.961776 92.345855 
L 780.942702 83.894692 
L 786.820567 82.200118 
L 792.698432 80.728566 
L 798.576296 79.519101 
L 804.454161 78.600008 
L 808.86256 78.112614 
L 813.270958 77.804055 
L 817.679357 77.676173 
L 822.087756 77.727722 
L 822.087756 77.727722 
" clip-path="url(#p82a172fe3a)" style="fill: none; stroke: #000000; stroke-opacity: 0.4; stroke-width: 6; stroke-linecap: square"/>
   </g>
   <g id="matplotlib.axis_1">
    <g id="xtick_1">
     <g id="line2d_2">
      <defs>
       <path id="mf0838ea2e8" d="M 0 0 
L 0 3.5 
" style="stroke: #000000; stroke-width: 0.8"/>
      </defs>
      <g>
       <use xlink:href="#mf0838ea2e8" x="88.824119" y="136.79" style="stroke: #000000; stroke-width: 0.8"/>
      </g>
     </g>
    </g>
    <g id="xtick_2">
     <g id="line2d_3">
      <g>
       <use xlink:href="#mf0838ea2e8" x="235.476847" y="136.79" style="stroke: #000000; stroke-width: 0.8"/>
      </g>
     </g>
    </g>
    <g id="xtick_3">
     <g id="line2d_4">
      <g>
       <use xlink:href="#mf0838ea2e8" x="382.129574" y="136.79" style="stroke: #000000; stroke-width: 0.8"/>
      </g>
     </g>
    </g>
    <g id="xtick_4">
     <g id="line2d_5">
      <g>
       <use xlink:href="#mf0838ea2e8" x="528.782301" y="136.79" style="stroke: #000000; stroke-width: 0.8"/>
      </g>
     </g>
    </g>
    <g id="xtick_5">
     <g id="line2d_6">
      <g>
       <use xlink:href="#mf0838ea2e8" x="675.435028" y="136.79" style="stroke: #000000; stroke-width: 0.8"/>
      </g>
     </g>
    </g>
    <g id="xtick_6">
     <g id="line2d_7">
      <g>
       <use xlink:href="#mf0838ea2e8" x="822.087756" y="136.79" style="stroke: #000000; stroke-width: 0.8"/>
      </g>
     </g>
    </g>
   </g>
   <g id="matplotlib.axis_2">
    <g id="ytick_1">
     <g id="line2d_8">
      <defs>
       <path id="m71af641778" d="M 0 0 
L -3.5 0 
" style="stroke: #000000; stroke-width: 0.8"/>
      </defs>
      <g>
       <use xlink:href="#m71af641778" x="52.160938" y="121.634626" style="stroke: #000000; stroke-width: 0.8"/>
      </g>
     </g>
     <g id="text_1">
      <!-- −2 -->
      <g transform="translate(30.41875 125.433845) scale(0.1 -0.1)">
       <defs>
        <path id="DejaVuSans-2212" d="M 678 2272 
L 4684 2272 
L 4684 1741 
L 678 1741 
L 678 2272 
z
" transform="scale(0.015625)"/>
        <path id="DejaVuSans-32" d="M 1228 531 
L 3431 531 
L 3431 0 
L 469 0 
L 469 531 
Q 828 903 1448 1529 
Q 2069 2156 2228 2338 
Q 2531 2678 2651 2914 
Q 2772 3150 2772 3378 
Q 2772 3750 2511 3984 
Q 2250 4219 1831 4219 
Q 1534 4219 1204 4116 
Q 875 4013 500 3803 
L 500 4441 
Q 881 4594 1212 4672 
Q 1544 4750 1819 4750 
Q 2544 4750 2975 4387 
Q 3406 4025 3406 3419 
Q 3406 3131 3298 2873 
Q 3191 2616 2906 2266 
Q 2828 2175 2409 1742 
Q 1991 1309 1228 531 
z
" transform="scale(0.015625)"/>
       </defs>
       <use xlink:href="#DejaVuSans-2212"/>
       <use xlink:href="#DejaVuSans-32" transform="translate(83.789062 0)"/>
      </g>
     </g>
    </g>
    <g id="ytick_2">
     <g id="line2d_9">
      <g>
       <use xlink:href="#m71af641778" x="52.160938" y="88.292026" style="stroke: #000000; stroke-width: 0.8"/>
      </g>
     </g>
     <g id="text_2">
      <!-- 0 -->
      <g transform="translate(38.798438 92.091245) scale(0.1 -0.1)">
       <defs>
        <path id="DejaVuSans-30" d="M 2034 4250 
Q 1547 4250 1301 3770 
Q 1056 3291 1056 2328 
Q 1056 1369 1301 889 
Q 1547 409 2034 409 
Q 2525 409 2770 889 
Q 3016 1369 3016 2328 
Q 3016 3291 2770 3770 
Q 2525 4250 2034 4250 
z
M 2034 4750 
Q 2819 4750 3233 4129 
Q 3647 3509 3647 2328 
Q 3647 1150 3233 529 
Q 2819 -91 2034 -91 
Q 1250 -91 836 529 
Q 422 1150 422 2328 
Q 422 3509 836 4129 
Q 1250 4750 2034 4750 
z
" transform="scale(0.015625)"/>
       </defs>
       <use xlink:href="#DejaVuSans-30"/>
      </g>
     </g>
    </g>
    <g id="ytick_3">
     <g id="line2d_10">
      <g>
       <use xlink:href="#m71af641778" x="52.160938" y="54.949426" style="stroke: #000000; stroke-width: 0.8"/>
      </g>
     </g>
     <g id="text_3">
      <!-- 2 -->
      <g transform="translate(38.798438 58.748645) scale(0.1 -0.1)">
       <use xlink:href="#DejaVuSans-32"/>
      </g>
     </g>
    </g>
    <g id="text_4">
     <!-- $x0$ -->
     <g transform="translate(24.339063 94.365) rotate(-90) scale(0.1 -0.1)">
      <defs>
       <path id="DejaVuSans-Oblique-78" d="M 3841 3500 
L 2234 1784 
L 3219 0 
L 2559 0 
L 1819 1388 
L 531 0 
L -166 0 
L 1556 1844 
L 641 3500 
L 1300 3500 
L 1972 2234 
L 3144 3500 
L 3841 3500 
z
" transform="scale(0.015625)"/>
      </defs>
      <use xlink:href="#DejaVuSans-Oblique-78" transform="translate(0 0.78125)"/>
      <use xlink:href="#DejaVuSans-30" transform="translate(59.179688 0.78125)"/>
     </g>
    </g>
   </g>
   <g id="line2d_11">
    <path d="M 88.824119 44.253242 
L 91.763052 44.222006 
L 94.701984 44.395662 
L 97.640917 44.773193 
L 100.579849 45.353062 
L 103.518781 46.132435 
L 106.457714 47.107704 
L 109.396646 48.274478 
L 112.335579 49.62723 
L 115.274511 51.159998 
L 119.68291 53.781628 
L 124.091308 56.768259 
L 128.499707 60.094078 
L 132.908105 63.73288 
L 137.316504 67.657413 
L 141.724903 71.837009 
L 147.602768 77.741076 
L 154.950099 85.48199 
L 168.175294 99.491415 
L 174.053159 105.35899 
L 178.461558 109.504338 
L 182.869956 113.389702 
L 187.278355 116.985387 
L 191.686754 120.264301 
L 196.095152 123.200291 
L 200.503551 125.767709 
L 203.442483 127.262364 
L 206.381416 128.575739 
L 209.320348 129.701853 
L 212.259281 130.635427 
L 215.198213 131.372334 
L 218.137145 131.908921 
L 221.076078 132.242877 
L 224.01501 132.372605 
L 226.953943 132.2974 
L 229.892875 132.017813 
L 232.831807 131.534903 
L 235.77074 130.851103 
L 238.709672 129.969534 
L 241.648605 128.894198 
L 244.587537 127.630212 
L 247.526469 126.183162 
L 250.465402 124.559631 
L 254.8738 121.808809 
L 259.282199 118.701853 
L 263.690598 115.264712 
L 268.098996 111.52388 
L 272.507395 107.507309 
L 278.38526 101.780193 
L 284.263125 95.722324 
L 306.305118 72.603349 
L 310.713516 68.381892 
L 315.121915 64.40976 
L 319.530314 60.71816 
L 323.938712 57.334833 
L 328.347111 54.286076 
L 332.755509 51.597748 
L 335.694442 50.018223 
L 338.633374 48.616859 
L 341.572307 47.399999 
L 344.511239 46.37327 
L 347.450171 45.54125 
L 350.389104 44.908031 
L 353.328036 44.476342 
L 356.266969 44.248273 
L 359.205901 44.224944 
L 362.144833 44.406293 
L 365.083766 44.791718 
L 368.022698 45.379212 
L 370.961631 46.166136 
L 373.900563 47.148885 
L 376.839496 48.322776 
L 379.778428 49.682609 
L 382.71736 51.222093 
L 387.125759 53.853352 
L 391.534158 56.848941 
L 395.942556 60.18308 
L 400.350955 63.829491 
L 404.759353 67.760914 
L 409.167752 71.946727 
L 415.045617 77.856961 
L 422.392948 85.602129 
L 435.618144 99.606847 
L 441.496009 105.467636 
L 445.904407 109.606692 
L 450.312806 113.485107 
L 454.721204 117.07301 
L 459.129603 120.343514 
L 463.538002 123.270426 
L 467.9464 125.828075 
L 470.885333 127.315967 
L 473.824265 128.622286 
L 476.763197 129.741073 
L 479.70213 130.667309 
L 482.641062 131.396486 
L 485.579995 131.925441 
L 488.518927 132.251607 
L 491.45786 132.373446 
L 494.396792 132.290526 
L 497.335724 132.003004 
L 500.274657 131.512445 
L 503.213589 130.821012 
L 506.152522 129.931903 
L 509.091454 128.84935 
L 512.030386 127.578157 
L 514.969319 126.124288 
L 517.908251 124.494138 
L 522.31665 121.733917 
L 526.725048 118.618211 
L 531.133447 115.173031 
L 535.541846 111.424748 
L 539.950244 107.401593 
L 545.828109 101.667263 
L 551.705974 95.60415 
L 572.278501 73.947263 
L 578.156366 68.27748 
L 582.564764 64.312008 
L 586.973163 60.627984 
L 591.381561 57.252851 
L 595.78996 54.21296 
L 600.198359 51.534197 
L 603.137291 49.961309 
L 606.076224 48.566902 
L 609.015156 47.357247 
L 611.954088 46.337792 
L 614.893021 45.513435 
L 617.831953 44.887783 
L 620.770886 44.463872 
L 623.709818 44.243652 
L 626.64875 44.228059 
L 629.587683 44.417363 
L 632.526615 44.810459 
L 635.465548 45.405662 
L 638.40448 46.200176 
L 641.343412 47.190241 
L 644.282345 48.371449 
L 647.221277 49.7382 
L 650.16021 51.284443 
L 654.568608 53.925298 
L 658.977007 56.92985 
L 663.385406 60.272257 
L 667.793804 63.92631 
L 672.202203 67.864612 
L 676.610601 72.056357 
L 682.488466 77.973058 
L 689.835797 85.722336 
L 703.060993 99.721816 
L 708.938858 105.576105 
L 713.347257 109.708969 
L 717.755655 113.580265 
L 722.164054 117.160438 
L 726.572452 120.422497 
L 730.980851 123.340311 
L 735.38925 125.888252 
L 738.328182 127.369284 
L 741.267114 128.668524 
L 744.206047 129.780107 
L 747.144979 130.698763 
L 750.083912 131.420453 
L 753.022844 131.94164 
L 755.961776 132.260002 
L 758.900709 132.374091 
L 761.839641 132.283211 
L 764.778574 131.988012 
L 767.717506 131.489667 
L 770.656439 130.790601 
L 773.595371 129.89408 
L 776.534303 128.804114 
L 779.473236 127.525913 
L 782.412168 126.065143 
L 785.351101 124.428387 
L 789.759499 121.658793 
L 794.167898 118.534371 
L 798.576296 115.081098 
L 802.984695 111.325529 
L 807.393094 107.295692 
L 813.270958 101.553875 
L 819.148823 95.485843 
L 822.087756 92.370862 
L 822.087756 92.370862 
" clip-path="url(#p82a172fe3a)" style="fill: none; stroke-dasharray: 22.4,5.6,3.5,5.6; stroke-dashoffset: 0; stroke: #0000ff; stroke-opacity: 0.8; stroke-width: 3.5"/>
   </g>
   <g id="patch_3">
    <path d="M 52.160938 136.79 
L 52.160938 39.64 
" style="fill: none; stroke: #000000; stroke-width: 0.8; stroke-linejoin: miter; stroke-linecap: square"/>
   </g>
   <g id="patch_4">
    <path d="M 858.750937 136.79 
L 858.750937 39.64 
" style="fill: none; stroke: #000000; stroke-width: 0.8; stroke-linejoin: miter; stroke-linecap: square"/>
   </g>
   <g id="patch_5">
    <path d="M 52.160938 136.79 
L 858.750938 136.79 
" style="fill: none; stroke: #000000; stroke-width: 0.8; stroke-linejoin: miter; stroke-linecap: square"/>
   </g>
   <g id="patch_6">
    <path d="M 52.160938 39.64 
L 858.750938 39.64 
" style="fill: none; stroke: #000000; stroke-width: 0.8; stroke-linejoin: miter; stroke-linecap: square"/>
   </g>
   <g id="line2d_12">
    <path d="M 88.824119 44.253242 
L 93.232518 44.177086 
L 97.640917 44.334679 
L 102.049315 44.707636 
L 106.457714 45.282037 
L 110.866112 46.049777 
L 115.274511 47.00832 
L 119.68291 48.160883 
L 124.091308 49.515633 
L 128.499707 51.084111 
L 132.908105 52.879737 
L 137.316504 54.91566 
L 141.724903 57.20276 
L 146.133301 59.747672 
L 150.5417 62.552037 
L 154.950099 65.610344 
L 159.358497 68.909833 
L 165.236362 73.644534 
L 171.114227 78.683567 
L 191.686754 96.736462 
L 196.095152 100.260524 
L 200.503551 103.540801 
L 204.91195 106.539733 
L 209.320348 109.228174 
L 213.728747 111.586956 
L 218.137145 113.605719 
L 222.545544 115.282943 
L 226.953943 116.624679 
L 231.362341 117.641556 
L 235.77074 118.346215 
L 240.179138 118.750343 
L 244.587537 118.862676 
L 248.995936 118.687634 
L 253.404334 118.22587 
L 257.812733 117.474992 
L 262.221132 116.431874 
L 266.62953 115.094886 
L 271.037929 113.46659 
L 275.446327 111.554567 
L 279.854726 109.372832 
L 284.263125 106.940732 
L 288.671523 104.282357 
L 294.549388 100.436451 
L 300.427253 96.323043 
L 322.469246 80.527554 
L 326.877645 77.711178 
L 331.286043 75.11901 
L 335.694442 72.779506 
L 340.10284 70.712424 
L 344.511239 68.930451 
L 348.919638 67.441965 
L 353.328036 66.251793 
L 357.736435 65.362429 
L 362.144833 64.774432 
L 366.553232 64.486507 
L 370.961631 64.495935 
L 375.370029 64.798463 
L 379.778428 65.388556 
L 384.186827 66.259415 
L 388.595225 67.402651 
L 393.003624 68.808258 
L 397.412022 70.463659 
L 401.820421 72.353085 
L 406.22882 74.456748 
L 412.106684 77.550093 
L 417.984549 80.901843 
L 428.270813 87.093385 
L 437.08761 92.342746 
L 442.965475 95.617579 
L 448.84334 98.603307 
L 453.251738 100.608015 
L 457.660137 102.384058 
L 462.068535 103.912833 
L 466.476934 105.180145 
L 470.885333 106.176399 
L 475.293731 106.895741 
L 479.70213 107.335542 
L 484.110529 107.496383 
L 488.518927 107.381266 
L 492.927326 106.995821 
L 497.335724 106.348043 
L 501.744123 105.448187 
L 506.152522 104.309171 
L 510.56092 102.946225 
L 514.969319 101.377476 
L 520.847184 99.002651 
L 526.725048 96.359506 
L 534.072379 92.789488 
L 553.17544 83.340746 
L 559.053305 80.756471 
L 563.461704 79.008347 
L 567.870102 77.451304 
L 572.278501 76.104187 
L 576.686899 74.981229 
L 581.095298 74.092083 
L 585.503697 73.44277 
L 589.912095 73.036399 
L 594.320494 72.873181 
L 598.728893 72.951148 
L 603.137291 73.265945 
L 607.54569 73.810917 
L 611.954088 74.577162 
L 616.362487 75.552872 
L 620.770886 76.72355 
L 626.64875 78.556308 
L 632.526615 80.651378 
L 639.873946 83.541838 
L 664.854872 93.678517 
L 670.732737 95.698732 
L 676.610601 97.449596 
L 681.019 98.560211 
L 685.427399 99.481823 
L 689.835797 100.204676 
L 694.244196 100.722027 
L 698.652594 101.030307 
L 703.060993 101.128822 
L 707.469392 101.019379 
L 711.87779 100.706574 
L 716.286189 100.197279 
L 720.694588 99.500892 
L 726.572452 98.302209 
L 732.450317 96.82728 
L 738.328182 95.119307 
L 745.675513 92.736068 
L 758.900709 88.117878 
L 767.717506 85.124124 
L 775.064837 82.871079 
L 780.942702 81.305965 
L 786.820567 79.999553 
L 791.228965 79.20932 
L 795.637364 78.59273 
L 800.045763 78.156086 
L 804.454161 77.902928 
L 808.86256 77.833945 
L 813.270958 77.947135 
L 817.679357 78.238142 
L 822.087756 78.699888 
L 822.087756 78.699888 
" clip-path="url(#p82a172fe3a)" style="fill: none; stroke-dasharray: 3.5,5.775; stroke-dashoffset: 0; stroke: #008000; stroke-opacity: 0.8; stroke-width: 3.5"/>
   </g>
   <g id="line2d_13">
    <path d="M 88.824119 44.253242 
L 94.701984 44.076705 
L 100.579849 44.080362 
L 106.457714 44.268178 
L 112.335579 44.650196 
L 118.213443 45.242889 
L 124.091308 46.06931 
L 129.969173 47.159321 
L 134.377572 48.17154 
L 138.78597 49.37013 
L 143.194369 50.774353 
L 147.602768 52.404387 
L 152.011166 54.280285 
L 156.419565 56.420638 
L 160.827963 58.840595 
L 165.236362 61.548993 
L 169.644761 64.546729 
L 174.053159 67.822135 
L 178.461558 71.350469 
L 184.339423 76.37791 
L 193.15622 84.331283 
L 203.442483 93.572406 
L 209.320348 98.525914 
L 213.728747 101.988914 
L 218.137145 105.19628 
L 222.545544 108.124842 
L 226.953943 110.761642 
L 231.362341 113.102196 
L 235.77074 115.147503 
L 240.179138 116.90271 
L 244.587537 118.374884 
L 248.995936 119.57176 
L 253.404334 120.500507 
L 257.812733 121.167111 
L 262.221132 121.575533 
L 266.62953 121.727601 
L 271.037929 121.622821 
L 275.446327 121.258255 
L 279.854726 120.629063 
L 284.263125 119.728718 
L 288.671523 118.549947 
L 293.079922 117.08567 
L 297.48832 115.330734 
L 301.896719 113.283095 
L 306.305118 110.946689 
L 310.713516 108.3329 
L 315.121915 105.46231 
L 319.530314 102.366944 
L 325.408178 97.9643 
L 335.694442 89.871535 
L 344.511239 83.046245 
L 350.389104 78.795502 
L 354.797502 75.842355 
L 359.205901 73.128454 
L 363.6143 70.677576 
L 368.022698 68.506319 
L 372.431097 66.624473 
L 376.839496 65.03727 
L 381.247894 63.746774 
L 385.656293 62.753057 
L 390.064691 62.055416 
L 394.47309 61.653034 
L 398.881489 61.545433 
L 403.289887 61.732605 
L 407.698286 62.214843 
L 412.106684 62.992312 
L 416.515083 64.064157 
L 420.923482 65.427495 
L 425.33188 67.076366 
L 429.740279 68.999612 
L 434.148678 71.180526 
L 438.557076 73.594706 
L 444.434941 77.119876 
L 451.782272 81.878597 
L 469.415866 93.548055 
L 475.293731 97.094063 
L 479.70213 99.536444 
L 484.110529 101.75874 
L 488.518927 103.738191 
L 492.927326 105.457521 
L 497.335724 106.90479 
L 501.744123 108.071975 
L 506.152522 108.953948 
L 510.56092 109.547965 
L 514.969319 109.852757 
L 519.377717 109.868452 
L 523.786116 109.59645 
L 528.194515 109.039528 
L 532.602913 108.20265 
L 537.011312 107.093191 
L 541.419711 105.722176 
L 545.828109 104.104987 
L 550.236508 102.261774 
L 554.644906 100.2188 
L 560.522771 97.239364 
L 567.870102 93.232642 
L 584.03423 84.264204 
L 589.912095 81.270416 
L 595.78996 78.557615 
L 600.198359 76.747162 
L 604.606757 75.153042 
L 609.015156 73.792058 
L 613.423555 72.676386 
L 617.831953 71.814866 
L 622.240352 71.21309 
L 626.64875 70.873982 
L 631.057149 70.798237 
L 635.465548 70.98403 
L 639.873946 71.427354 
L 644.282345 72.121448 
L 648.690743 73.056482 
L 653.099142 74.219423 
L 657.507541 75.592989 
L 663.385406 77.71486 
L 669.26327 80.111048 
L 676.610601 83.377786 
L 697.183128 92.759344 
L 703.060993 95.13933 
L 708.938858 97.255196 
L 713.347257 98.636987 
L 717.755655 99.823497 
L 722.164054 100.801421 
L 726.572452 101.560748 
L 730.980851 102.094986 
L 735.38925 102.400385 
L 739.797648 102.476077 
L 744.206047 102.323959 
L 748.614445 101.948465 
L 753.022844 101.357147 
L 757.431243 100.560353 
L 761.839641 99.571697 
L 767.717506 97.984813 
L 773.595371 96.13652 
L 780.942702 93.549079 
L 792.698432 89.085301 
L 802.984695 85.249621 
L 810.332026 82.764369 
L 816.209891 81.0162 
L 822.087756 79.53149 
L 822.087756 79.53149 
" clip-path="url(#p82a172fe3a)" style="fill: none; stroke-dasharray: 12.95,5.6; stroke-dashoffset: 0; stroke: #ff0000; stroke-opacity: 0.8; stroke-width: 3.5"/>
   </g>
  </g>
  <g id="axes_2">
   <g id="patch_7">
    <path d="M 52.160938 248.24 
L 858.750937 248.24 
L 858.750937 151.09 
L 52.160938 151.09 
z
" style="fill: #ffffff"/>
   </g>
   <g id="line2d_14">
    <path d="M 88.824119 197.690731 
L 102.049315 201.912239 
L 113.805045 205.752996 
L 121.152376 208.379322 
L 127.030241 210.676319 
L 132.908105 213.194723 
L 138.78597 215.956545 
L 144.663835 218.960486 
L 150.5417 222.182392 
L 168.175294 232.149246 
L 172.583693 234.248444 
L 175.522625 235.460444 
L 178.461558 236.488866 
L 181.40049 237.304667 
L 184.339423 237.878591 
L 187.278355 238.181171 
L 190.217287 238.182728 
L 193.15622 237.853792 
L 196.095152 237.208255 
L 199.034085 236.279841 
L 201.973017 235.089757 
L 204.91195 233.662472 
L 207.850882 232.025718 
L 212.259281 229.246522 
L 216.667679 226.184888 
L 231.362341 215.444635 
L 240.179138 209.153946 
L 248.995936 203.148554 
L 259.282199 196.446873 
L 279.854726 183.427008 
L 287.202057 178.974489 
L 293.079922 175.662789 
L 297.48832 173.406382 
L 301.896719 171.429535 
L 304.835651 170.316946 
L 307.774584 169.397347 
L 310.713516 168.690471 
L 313.652449 168.211694 
L 316.591381 167.972035 
L 319.530314 167.978153 
L 322.469246 168.232351 
L 325.408178 168.732574 
L 328.347111 169.471593 
L 331.286043 170.430479 
L 334.224976 171.590974 
L 337.163908 172.935009 
L 341.572307 175.252801 
L 345.980705 177.870147 
L 351.85857 181.694096 
L 387.125759 205.478111 
L 395.942556 210.982987 
L 403.289887 215.296371 
L 407.698286 217.678015 
L 412.106684 219.844868 
L 416.515083 221.749445 
L 420.923482 223.345636 
L 423.862414 224.216289 
L 426.801346 224.917056 
L 429.740279 225.435295 
L 432.679211 225.758633 
L 435.618144 225.874972 
L 438.557076 225.777967 
L 441.496009 225.475191 
L 444.434941 224.971433 
L 447.373873 224.273877 
L 450.312806 223.392374 
L 453.251738 222.339443 
L 457.660137 220.472571 
L 462.068535 218.317289 
L 467.9464 215.127526 
L 475.293731 210.816634 
L 487.049461 203.565219 
L 498.805191 196.378339 
L 506.152522 192.094405 
L 512.030386 188.870509 
L 517.908251 185.904875 
L 522.31665 183.897322 
L 526.725048 182.115055 
L 531.133447 180.596021 
L 535.541846 179.380324 
L 538.480778 178.75787 
L 541.419711 178.294309 
L 544.358643 177.997615 
L 547.297575 177.873285 
L 550.236508 177.923869 
L 553.17544 178.14897 
L 556.114373 178.545244 
L 559.053305 179.1064 
L 563.461704 180.236268 
L 567.870102 181.672594 
L 572.278501 183.373662 
L 576.686899 185.296845 
L 582.564764 188.130372 
L 589.912095 191.964176 
L 616.362487 206.078312 
L 622.240352 208.885564 
L 628.118217 211.432192 
L 632.526615 213.12953 
L 636.935014 214.614564 
L 641.343412 215.853433 
L 645.751811 216.811919 
L 650.16021 217.465183 
L 654.568608 217.797771 
L 658.977007 217.803608 
L 663.385406 217.486001 
L 667.793804 216.857597 
L 672.202203 215.938408 
L 676.610601 214.753817 
L 681.019 213.333129 
L 685.427399 211.709074 
L 691.305263 209.290312 
L 698.652594 205.995444 
L 725.102986 193.845317 
L 730.980851 191.473148 
L 736.858716 189.352061 
L 741.267114 187.963374 
L 745.675513 186.779955 
L 750.083912 185.825475 
L 754.49231 185.118498 
L 758.900709 184.672481 
L 763.309107 184.495769 
L 767.717506 184.590394 
L 772.125905 184.951022 
L 776.534303 185.568484 
L 780.942702 186.427833 
L 785.351101 187.508266 
L 789.759499 188.783127 
L 795.637364 190.728344 
L 802.984695 193.43359 
L 813.270958 197.512913 
L 822.087756 201.04414 
L 822.087756 201.04414 
" clip-path="url(#pf20bd81ccd)" style="fill: none; stroke: #000000; stroke-opacity: 0.4; stroke-width: 6; stroke-linecap: square"/>
   </g>
   <g id="matplotlib.axis_3">
    <g id="xtick_7">
     <g id="line2d_15">
      <g>
       <use xlink:href="#mf0838ea2e8" x="88.824119" y="248.24" style="stroke: #000000; stroke-width: 0.8"/>
      </g>
     </g>
     <g id="text_5">
      <!-- 0 -->
      <g transform="translate(85.642869 262.838437) scale(0.1 -0.1)">
       <use xlink:href="#DejaVuSans-30"/>
      </g>
     </g>
    </g>
    <g id="xtick_8">
     <g id="line2d_16">
      <g>
       <use xlink:href="#mf0838ea2e8" x="235.476847" y="248.24" style="stroke: #000000; stroke-width: 0.8"/>
      </g>
     </g>
     <g id="text_6">
      <!-- 2 -->
      <g transform="translate(232.295597 262.838437) scale(0.1 -0.1)">
       <use xlink:href="#DejaVuSans-32"/>
      </g>
     </g>
    </g>
    <g id="xtick_9">
     <g id="line2d_17">
      <g>
       <use xlink:href="#mf0838ea2e8" x="382.129574" y="248.24" style="stroke: #000000; stroke-width: 0.8"/>
      </g>
     </g>
     <g id="text_7">
      <!-- 4 -->
      <g transform="translate(378.948324 262.838437) scale(0.1 -0.1)">
       <defs>
        <path id="DejaVuSans-34" d="M 2419 4116 
L 825 1625 
L 2419 1625 
L 2419 4116 
z
M 2253 4666 
L 3047 4666 
L 3047 1625 
L 3713 1625 
L 3713 1100 
L 3047 1100 
L 3047 0 
L 2419 0 
L 2419 1100 
L 313 1100 
L 313 1709 
L 2253 4666 
z
" transform="scale(0.015625)"/>
       </defs>
       <use xlink:href="#DejaVuSans-34"/>
      </g>
     </g>
    </g>
    <g id="xtick_10">
     <g id="line2d_18">
      <g>
       <use xlink:href="#mf0838ea2e8" x="528.782301" y="248.24" style="stroke: #000000; stroke-width: 0.8"/>
      </g>
     </g>
     <g id="text_8">
      <!-- 6 -->
      <g transform="translate(525.601051 262.838437) scale(0.1 -0.1)">
       <defs>
        <path id="DejaVuSans-36" d="M 2113 2584 
Q 1688 2584 1439 2293 
Q 1191 2003 1191 1497 
Q 1191 994 1439 701 
Q 1688 409 2113 409 
Q 2538 409 2786 701 
Q 3034 994 3034 1497 
Q 3034 2003 2786 2293 
Q 2538 2584 2113 2584 
z
M 3366 4563 
L 3366 3988 
Q 3128 4100 2886 4159 
Q 2644 4219 2406 4219 
Q 1781 4219 1451 3797 
Q 1122 3375 1075 2522 
Q 1259 2794 1537 2939 
Q 1816 3084 2150 3084 
Q 2853 3084 3261 2657 
Q 3669 2231 3669 1497 
Q 3669 778 3244 343 
Q 2819 -91 2113 -91 
Q 1303 -91 875 529 
Q 447 1150 447 2328 
Q 447 3434 972 4092 
Q 1497 4750 2381 4750 
Q 2619 4750 2861 4703 
Q 3103 4656 3366 4563 
z
" transform="scale(0.015625)"/>
       </defs>
       <use xlink:href="#DejaVuSans-36"/>
      </g>
     </g>
    </g>
    <g id="xtick_11">
     <g id="line2d_19">
      <g>
       <use xlink:href="#mf0838ea2e8" x="675.435028" y="248.24" style="stroke: #000000; stroke-width: 0.8"/>
      </g>
     </g>
     <g id="text_9">
      <!-- 8 -->
      <g transform="translate(672.253778 262.838437) scale(0.1 -0.1)">
       <defs>
        <path id="DejaVuSans-38" d="M 2034 2216 
Q 1584 2216 1326 1975 
Q 1069 1734 1069 1313 
Q 1069 891 1326 650 
Q 1584 409 2034 409 
Q 2484 409 2743 651 
Q 3003 894 3003 1313 
Q 3003 1734 2745 1975 
Q 2488 2216 2034 2216 
z
M 1403 2484 
Q 997 2584 770 2862 
Q 544 3141 544 3541 
Q 544 4100 942 4425 
Q 1341 4750 2034 4750 
Q 2731 4750 3128 4425 
Q 3525 4100 3525 3541 
Q 3525 3141 3298 2862 
Q 3072 2584 2669 2484 
Q 3125 2378 3379 2068 
Q 3634 1759 3634 1313 
Q 3634 634 3220 271 
Q 2806 -91 2034 -91 
Q 1263 -91 848 271 
Q 434 634 434 1313 
Q 434 1759 690 2068 
Q 947 2378 1403 2484 
z
M 1172 3481 
Q 1172 3119 1398 2916 
Q 1625 2713 2034 2713 
Q 2441 2713 2670 2916 
Q 2900 3119 2900 3481 
Q 2900 3844 2670 4047 
Q 2441 4250 2034 4250 
Q 1625 4250 1398 4047 
Q 1172 3844 1172 3481 
z
" transform="scale(0.015625)"/>
       </defs>
       <use xlink:href="#DejaVuSans-38"/>
      </g>
     </g>
    </g>
    <g id="xtick_12">
     <g id="line2d_20">
      <g>
       <use xlink:href="#mf0838ea2e8" x="822.087756" y="248.24" style="stroke: #000000; stroke-width: 0.8"/>
      </g>
     </g>
     <g id="text_10">
      <!-- 10 -->
      <g transform="translate(815.725256 262.838437) scale(0.1 -0.1)">
       <defs>
        <path id="DejaVuSans-31" d="M 794 531 
L 1825 531 
L 1825 4091 
L 703 3866 
L 703 4441 
L 1819 4666 
L 2450 4666 
L 2450 531 
L 3481 531 
L 3481 0 
L 794 0 
L 794 531 
z
" transform="scale(0.015625)"/>
       </defs>
       <use xlink:href="#DejaVuSans-31"/>
       <use xlink:href="#DejaVuSans-30" transform="translate(63.623047 0)"/>
      </g>
     </g>
    </g>
    <g id="text_11">
     <!-- Time -->
     <g transform="translate(443.222344 276.516562) scale(0.1 -0.1)">
      <defs>
       <path id="DejaVuSans-54" d="M -19 4666 
L 3928 4666 
L 3928 4134 
L 2272 4134 
L 2272 0 
L 1638 0 
L 1638 4134 
L -19 4134 
L -19 4666 
z
" transform="scale(0.015625)"/>
       <path id="DejaVuSans-69" d="M 603 3500 
L 1178 3500 
L 1178 0 
L 603 0 
L 603 3500 
z
M 603 4863 
L 1178 4863 
L 1178 4134 
L 603 4134 
L 603 4863 
z
" transform="scale(0.015625)"/>
       <path id="DejaVuSans-6d" d="M 3328 2828 
Q 3544 3216 3844 3400 
Q 4144 3584 4550 3584 
Q 5097 3584 5394 3201 
Q 5691 2819 5691 2113 
L 5691 0 
L 5113 0 
L 5113 2094 
Q 5113 2597 4934 2840 
Q 4756 3084 4391 3084 
Q 3944 3084 3684 2787 
Q 3425 2491 3425 1978 
L 3425 0 
L 2847 0 
L 2847 2094 
Q 2847 2600 2669 2842 
Q 2491 3084 2119 3084 
Q 1678 3084 1418 2786 
Q 1159 2488 1159 1978 
L 1159 0 
L 581 0 
L 581 3500 
L 1159 3500 
L 1159 2956 
Q 1356 3278 1631 3431 
Q 1906 3584 2284 3584 
Q 2666 3584 2933 3390 
Q 3200 3197 3328 2828 
z
" transform="scale(0.015625)"/>
       <path id="DejaVuSans-65" d="M 3597 1894 
L 3597 1613 
L 953 1613 
Q 991 1019 1311 708 
Q 1631 397 2203 397 
Q 2534 397 2845 478 
Q 3156 559 3463 722 
L 3463 178 
Q 3153 47 2828 -22 
Q 2503 -91 2169 -91 
Q 1331 -91 842 396 
Q 353 884 353 1716 
Q 353 2575 817 3079 
Q 1281 3584 2069 3584 
Q 2775 3584 3186 3129 
Q 3597 2675 3597 1894 
z
M 3022 2063 
Q 3016 2534 2758 2815 
Q 2500 3097 2075 3097 
Q 1594 3097 1305 2825 
Q 1016 2553 972 2059 
L 3022 2063 
z
" transform="scale(0.015625)"/>
      </defs>
      <use xlink:href="#DejaVuSans-54"/>
      <use xlink:href="#DejaVuSans-69" transform="translate(57.958984 0)"/>
      <use xlink:href="#DejaVuSans-6d" transform="translate(85.742188 0)"/>
      <use xlink:href="#DejaVuSans-65" transform="translate(183.154297 0)"/>
     </g>
    </g>
   </g>
   <g id="matplotlib.axis_4">
    <g id="ytick_4">
     <g id="line2d_21">
      <g>
       <use xlink:href="#m71af641778" x="52.160938" y="224.339584" style="stroke: #000000; stroke-width: 0.8"/>
      </g>
     </g>
     <g id="text_12">
      <!-- −2.5 -->
      <g transform="translate(20.878125 228.138803) scale(0.1 -0.1)">
       <defs>
        <path id="DejaVuSans-2e" d="M 684 794 
L 1344 794 
L 1344 0 
L 684 0 
L 684 794 
z
" transform="scale(0.015625)"/>
        <path id="DejaVuSans-35" d="M 691 4666 
L 3169 4666 
L 3169 4134 
L 1269 4134 
L 1269 2991 
Q 1406 3038 1543 3061 
Q 1681 3084 1819 3084 
Q 2600 3084 3056 2656 
Q 3513 2228 3513 1497 
Q 3513 744 3044 326 
Q 2575 -91 1722 -91 
Q 1428 -91 1123 -41 
Q 819 9 494 109 
L 494 744 
Q 775 591 1075 516 
Q 1375 441 1709 441 
Q 2250 441 2565 725 
Q 2881 1009 2881 1497 
Q 2881 1984 2565 2268 
Q 2250 2553 1709 2553 
Q 1456 2553 1204 2497 
Q 953 2441 691 2322 
L 691 4666 
z
" transform="scale(0.015625)"/>
       </defs>
       <use xlink:href="#DejaVuSans-2212"/>
       <use xlink:href="#DejaVuSans-32" transform="translate(83.789062 0)"/>
       <use xlink:href="#DejaVuSans-2e" transform="translate(147.412109 0)"/>
       <use xlink:href="#DejaVuSans-35" transform="translate(179.199219 0)"/>
      </g>
     </g>
    </g>
    <g id="ytick_5">
     <g id="line2d_22">
      <g>
       <use xlink:href="#m71af641778" x="52.160938" y="199.66472" style="stroke: #000000; stroke-width: 0.8"/>
      </g>
     </g>
     <g id="text_13">
      <!-- 0.0 -->
      <g transform="translate(29.257812 203.463939) scale(0.1 -0.1)">
       <use xlink:href="#DejaVuSans-30"/>
       <use xlink:href="#DejaVuSans-2e" transform="translate(63.623047 0)"/>
       <use xlink:href="#DejaVuSans-30" transform="translate(95.410156 0)"/>
      </g>
     </g>
    </g>
    <g id="ytick_6">
     <g id="line2d_23">
      <g>
       <use xlink:href="#m71af641778" x="52.160938" y="174.989856" style="stroke: #000000; stroke-width: 0.8"/>
      </g>
     </g>
     <g id="text_14">
      <!-- 2.5 -->
      <g transform="translate(29.257812 178.789074) scale(0.1 -0.1)">
       <use xlink:href="#DejaVuSans-32"/>
       <use xlink:href="#DejaVuSans-2e" transform="translate(63.623047 0)"/>
       <use xlink:href="#DejaVuSans-35" transform="translate(95.410156 0)"/>
      </g>
     </g>
    </g>
    <g id="text_15">
     <!-- $x1$ -->
     <g transform="translate(14.798438 205.815) rotate(-90) scale(0.1 -0.1)">
      <use xlink:href="#DejaVuSans-Oblique-78" transform="translate(0 0.09375)"/>
      <use xlink:href="#DejaVuSans-31" transform="translate(59.179688 0.09375)"/>
     </g>
    </g>
   </g>
   <g id="line2d_24">
    <path d="M 88.824119 197.690731 
L 102.049315 211.179232 
L 107.92718 216.901434 
L 113.805045 222.303602 
L 118.213443 226.084478 
L 122.621842 229.588988 
L 127.030241 232.779986 
L 131.438639 235.622892 
L 134.377572 237.309071 
L 137.316504 238.817592 
L 140.255436 240.140441 
L 143.194369 241.270182 
L 146.133301 242.200007 
L 149.072234 242.924438 
L 152.011166 243.438533 
L 154.950099 243.739106 
L 157.889031 243.824091 
L 160.827963 243.692717 
L 163.766896 243.346198 
L 166.705828 242.786551 
L 169.644761 242.01769 
L 172.583693 241.04445 
L 175.522625 239.872683 
L 178.461558 238.509394 
L 181.40049 236.962008 
L 185.808889 234.314198 
L 190.217287 231.301308 
L 194.625686 227.956547 
L 199.034085 224.315568 
L 203.442483 220.416826 
L 209.320348 214.888483 
L 216.667679 207.593088 
L 240.179138 183.778558 
L 246.057003 178.29002 
L 250.465402 174.428821 
L 254.8738 170.831539 
L 259.282199 167.536132 
L 263.690598 164.578063 
L 268.098996 161.989844 
L 271.037929 160.484802 
L 273.976861 159.16552 
L 276.915794 158.03964 
L 279.854726 157.113617 
L 282.793658 156.393207 
L 285.732591 155.88317 
L 288.671523 155.586612 
L 291.610456 155.505909 
L 294.549388 155.6413 
L 297.48832 155.991975 
L 300.427253 156.555658 
L 303.366185 157.328416 
L 306.305118 158.305597 
L 309.24405 159.48103 
L 312.182982 160.847944 
L 315.121915 162.398765 
L 319.530314 165.051427 
L 323.938712 168.068738 
L 328.347111 171.417545 
L 332.755509 175.062007 
L 337.163908 178.963803 
L 343.041773 184.495355 
L 350.389104 191.793314 
L 373.900563 215.604911 
L 379.778428 221.090106 
L 384.186827 224.948239 
L 388.595225 228.541877 
L 393.003624 231.83319 
L 397.412022 234.786773 
L 401.820421 237.370032 
L 404.759353 238.871643 
L 407.698286 240.187253 
L 410.637218 241.309391 
L 413.576151 242.231601 
L 416.515083 242.947905 
L 419.454015 243.453983 
L 422.392948 243.746353 
L 425.33188 243.82296 
L 428.270813 243.683509 
L 431.209745 243.328612 
L 434.148678 242.760986 
L 437.08761 241.984208 
L 440.026542 241.003203 
L 442.965475 239.824076 
L 445.904407 238.453512 
L 448.84334 236.899301 
L 453.251738 234.241753 
L 457.660137 231.220053 
L 462.068535 227.86722 
L 466.476934 224.219217 
L 470.885333 220.314429 
L 476.763197 214.779677 
L 484.110529 207.479158 
L 507.621988 183.670517 
L 513.499853 178.188661 
L 517.908251 174.333669 
L 522.31665 170.743619 
L 526.725048 167.456431 
L 531.133447 164.507319 
L 535.541846 161.929004 
L 538.480778 160.430841 
L 541.419711 159.118934 
L 544.358643 158.000504 
L 547.297575 157.082248 
L 550.236508 156.369873 
L 553.17544 155.867792 
L 556.114373 155.579659 
L 559.053305 155.507085 
L 561.992237 155.65076 
L 564.93117 156.00969 
L 567.870102 156.581317 
L 570.809035 157.362133 
L 573.747967 158.346921 
L 576.686899 159.529827 
L 579.625832 160.903944 
L 582.564764 162.461569 
L 586.973163 165.123977 
L 591.381561 168.150137 
L 595.78996 171.506927 
L 600.198359 175.158482 
L 604.606757 179.066249 
L 610.484622 184.604187 
L 617.831953 191.907256 
L 641.343412 215.712915 
L 647.221277 221.191427 
L 651.629676 225.043259 
L 656.038075 228.629721 
L 660.446473 231.9128 
L 664.854872 234.857353 
L 669.26327 237.430792 
L 672.202203 238.925414 
L 675.141135 240.233731 
L 678.080068 241.348431 
L 681.019 242.262715 
L 683.957932 242.971191 
L 686.896865 243.4691 
L 689.835797 243.753209 
L 692.77473 243.821685 
L 695.713662 243.67378 
L 698.652594 243.31085 
L 701.591527 242.735087 
L 704.530459 241.950386 
L 707.469392 240.961764 
L 710.408324 239.775084 
L 713.347257 238.397433 
L 716.286189 236.836325 
L 720.694588 234.169132 
L 725.102986 231.138506 
L 729.511385 227.777763 
L 733.919783 224.122684 
L 738.328182 220.211883 
L 744.206047 214.670803 
L 751.553378 207.365194 
L 775.064837 183.562596 
L 780.942702 178.087402 
L 785.351101 174.238709 
L 789.759499 170.655916 
L 794.167898 167.376885 
L 798.576296 164.436904 
L 802.984695 161.868361 
L 805.923627 160.377264 
L 808.86256 159.072522 
L 811.801492 157.961686 
L 814.740425 157.051217 
L 817.679357 156.346745 
L 820.618289 155.85291 
L 822.087756 155.686 
L 822.087756 155.686 
" clip-path="url(#pf20bd81ccd)" style="fill: none; stroke-dasharray: 22.4,5.6,3.5,5.6; stroke-dashoffset: 0; stroke: #0000ff; stroke-opacity: 0.8; stroke-width: 3.5"/>
   </g>
   <g id="patch_8">
    <path d="M 52.160938 248.24 
L 52.160938 151.09 
" style="fill: none; stroke: #000000; stroke-width: 0.8; stroke-linejoin: miter; stroke-linecap: square"/>
   </g>
   <g id="patch_9">
    <path d="M 858.750937 248.24 
L 858.750937 151.09 
" style="fill: none; stroke: #000000; stroke-width: 0.8; stroke-linejoin: miter; stroke-linecap: square"/>
   </g>
   <g id="patch_10">
    <path d="M 52.160938 248.24 
L 858.750938 248.24 
" style="fill: none; stroke: #000000; stroke-width: 0.8; stroke-linejoin: miter; stroke-linecap: square"/>
   </g>
   <g id="patch_11">
    <path d="M 52.160938 151.09 
L 858.750938 151.09 
" style="fill: none; stroke: #000000; stroke-width: 0.8; stroke-linejoin: miter; stroke-linecap: square"/>
   </g>
   <g id="line2d_25">
    <path d="M 88.824119 197.690731 
L 93.232518 200.099932 
L 99.110383 203.00673 
L 106.457714 206.29467 
L 121.152376 212.686472 
L 127.030241 215.498265 
L 132.908105 218.545714 
L 140.255436 222.647614 
L 156.419565 231.842548 
L 160.827963 234.051182 
L 165.236362 235.952527 
L 168.175294 236.989674 
L 171.114227 237.798917 
L 174.053159 238.34864 
L 176.992092 238.611659 
L 179.931024 238.572838 
L 182.869956 238.22926 
L 185.808889 237.587092 
L 188.747821 236.665578 
L 191.686754 235.48783 
L 194.625686 234.08143 
L 197.564618 232.474572 
L 201.973017 229.748942 
L 206.381416 226.725073 
L 212.259281 222.385613 
L 228.423409 210.217739 
L 234.301274 206.110576 
L 241.648605 201.246105 
L 276.915794 178.563298 
L 281.324192 176.055596 
L 285.732591 173.779324 
L 290.140989 171.77848 
L 294.549388 170.102021 
L 297.48832 169.194399 
L 300.427253 168.479811 
L 303.366185 167.981762 
L 306.305118 167.721153 
L 309.24405 167.716792 
L 312.182982 167.977391 
L 315.121915 168.502954 
L 318.060847 169.284546 
L 320.99978 170.300718 
L 323.938712 171.525678 
L 328.347111 173.686821 
L 332.755509 176.143578 
L 338.633374 179.726664 
L 345.980705 184.490054 
L 360.675367 194.358622 
L 373.900563 203.1289 
L 382.71736 208.714165 
L 390.064691 213.113889 
L 395.942556 216.400464 
L 401.820421 219.399654 
L 406.22882 221.397129 
L 410.637218 223.116614 
L 413.576151 224.077976 
L 416.515083 224.870352 
L 419.454015 225.476437 
L 422.392948 225.883097 
L 425.33188 226.080454 
L 428.270813 226.062896 
L 431.209745 225.831728 
L 434.148678 225.391144 
L 437.08761 224.751524 
L 440.026542 223.925908 
L 442.965475 222.929849 
L 447.373873 221.15384 
L 451.782272 219.091803 
L 456.190671 216.800293 
L 462.068535 213.477234 
L 469.415866 209.043802 
L 494.396792 193.694226 
L 501.744123 189.583718 
L 507.621988 186.567116 
L 512.030386 184.503679 
L 516.438785 182.64288 
L 520.847184 181.018011 
L 525.255582 179.666407 
L 529.663981 178.629005 
L 532.602913 178.132145 
L 535.541846 177.803904 
L 538.480778 177.65333 
L 541.419711 177.685415 
L 544.358643 177.903128 
L 547.297575 178.303362 
L 550.236508 178.880052 
L 553.17544 179.623198 
L 557.583839 181.019687 
L 561.992237 182.706946 
L 566.400636 184.628169 
L 572.278501 187.460472 
L 579.625832 191.28108 
L 607.54569 206.149942 
L 613.423555 208.961931 
L 619.301419 211.52659 
L 623.709818 213.242374 
L 628.118217 214.74158 
L 632.526615 215.988696 
L 636.935014 216.950551 
L 641.343412 217.598793 
L 644.282345 217.847191 
L 647.221277 217.944187 
L 650.16021 217.889758 
L 654.568608 217.528352 
L 658.977007 216.846515 
L 663.385406 215.869601 
L 667.793804 214.630436 
L 672.202203 213.165426 
L 678.080068 210.926253 
L 683.957932 208.440764 
L 692.77473 204.428248 
L 711.87779 195.595742 
L 719.225121 192.492202 
L 725.102986 190.245701 
L 730.980851 188.273229 
L 735.38925 187.010601 
L 739.797648 185.962793 
L 744.206047 185.155154 
L 748.614445 184.609878 
L 753.022844 184.344358 
L 757.431243 184.368414 
L 761.839641 184.682394 
L 766.24804 185.277364 
L 770.656439 186.134141 
L 775.064837 187.226449 
L 779.473236 188.52248 
L 785.351101 190.507759 
L 792.698432 193.287467 
L 802.984695 197.469973 
L 816.209891 202.82484 
L 822.087756 205.033897 
L 822.087756 205.033897 
" clip-path="url(#pf20bd81ccd)" style="fill: none; stroke-dasharray: 3.5,5.775; stroke-dashoffset: 0; stroke: #008000; stroke-opacity: 0.8; stroke-width: 3.5"/>
   </g>
   <g id="line2d_26">
    <path d="M 88.824119 197.690731 
L 109.396646 202.486575 
L 116.743977 204.457297 
L 122.621842 206.235139 
L 128.499707 208.246481 
L 134.377572 210.54033 
L 138.78597 212.472069 
L 143.194369 214.599319 
L 147.602768 216.927479 
L 153.480632 220.329041 
L 159.358497 224.006874 
L 172.583693 232.428891 
L 176.992092 234.875421 
L 179.931024 236.2846 
L 182.869956 237.466731 
L 185.808889 238.387193 
L 188.747821 239.015759 
L 191.686754 239.333989 
L 194.625686 239.334297 
L 197.564618 239.017724 
L 200.503551 238.39999 
L 203.442483 237.502146 
L 206.381416 236.354123 
L 209.320348 234.989983 
L 213.728747 232.617993 
L 218.137145 229.962383 
L 225.484476 225.195932 
L 240.179138 215.573083 
L 248.995936 210.13969 
L 259.282199 204.116036 
L 278.38526 193.018551 
L 287.202057 187.57262 
L 297.48832 180.905536 
L 306.305118 175.218569 
L 310.713516 172.567168 
L 315.121915 170.173228 
L 318.060847 168.773644 
L 320.99978 167.56854 
L 323.938712 166.58601 
L 326.877645 165.85005 
L 329.816577 165.379746 
L 332.755509 165.183947 
L 335.694442 165.267186 
L 338.633374 165.623287 
L 341.572307 166.2401 
L 344.511239 167.099834 
L 347.450171 168.178717 
L 350.389104 169.451045 
L 354.797502 171.661825 
L 359.205901 174.153412 
L 365.083766 177.769962 
L 373.900563 183.517664 
L 419.454015 213.593523 
L 426.801346 218.20549 
L 432.679211 221.594263 
L 437.08761 223.852027 
L 441.496009 225.780105 
L 444.434941 226.844877 
L 447.373873 227.709163 
L 450.312806 228.357411 
L 453.251738 228.776267 
L 456.190671 228.959702 
L 459.129603 228.905755 
L 462.068535 228.617632 
L 465.007468 228.104931 
L 467.9464 227.379835 
L 470.885333 226.45934 
L 473.824265 225.362157 
L 478.232664 223.429619 
L 482.641062 221.214713 
L 488.518927 217.934499 
L 495.866258 213.490797 
L 506.152522 206.949153 
L 531.133447 190.950354 
L 538.480778 186.553213 
L 544.358643 183.312987 
L 548.767042 181.120955 
L 553.17544 179.194596 
L 557.583839 177.590312 
L 560.522771 176.724992 
L 563.461704 176.038942 
L 566.400636 175.541605 
L 569.339568 175.240172 
L 572.278501 175.138266 
L 575.217433 175.234922 
L 578.156366 175.52704 
L 581.095298 176.006706 
L 584.03423 176.664083 
L 586.973163 177.486819 
L 591.381561 178.999559 
L 595.78996 180.800933 
L 600.198359 182.838701 
L 606.076224 185.83846 
L 613.423555 189.89954 
L 623.709818 195.885928 
L 639.873946 205.288996 
L 647.221277 209.280742 
L 653.099142 212.208866 
L 657.507541 214.18996 
L 661.915939 215.94032 
L 666.324338 217.418381 
L 670.732737 218.58639 
L 673.671669 219.176725 
L 676.610601 219.608473 
L 679.549534 219.876733 
L 682.488466 219.979211 
L 685.427399 219.916596 
L 688.366331 219.691135 
L 691.305263 219.308455 
L 695.713662 218.455344 
L 700.122061 217.295779 
L 704.530459 215.866585 
L 708.938858 214.207739 
L 714.816723 211.708196 
L 720.694588 208.962998 
L 729.511385 204.562222 
L 748.614445 194.880837 
L 755.961776 191.471976 
L 761.839641 189.017118 
L 766.24804 187.385522 
L 770.656439 185.969699 
L 775.064837 184.79965 
L 779.473236 183.901402 
L 783.881634 183.294786 
L 788.290033 182.991698 
L 792.698432 182.996025 
L 797.10683 183.301994 
L 801.515229 183.896122 
L 805.923627 184.757621 
L 810.332026 185.860208 
L 814.740425 187.174119 
L 820.618289 189.199605 
L 822.087756 189.746865 
L 822.087756 189.746865 
" clip-path="url(#pf20bd81ccd)" style="fill: none; stroke-dasharray: 12.95,5.6; stroke-dashoffset: 0; stroke: #ff0000; stroke-opacity: 0.8; stroke-width: 3.5"/>
   </g>
  </g>
  <g id="text_16">
   <!-- State Variable Simulation Comparison -->
   <g transform="translate(285.843437 20.1175) scale(0.16 -0.16)">
    <defs>
     <path id="DejaVuSans-53" d="M 3425 4513 
L 3425 3897 
Q 3066 4069 2747 4153 
Q 2428 4238 2131 4238 
Q 1616 4238 1336 4038 
Q 1056 3838 1056 3469 
Q 1056 3159 1242 3001 
Q 1428 2844 1947 2747 
L 2328 2669 
Q 3034 2534 3370 2195 
Q 3706 1856 3706 1288 
Q 3706 609 3251 259 
Q 2797 -91 1919 -91 
Q 1588 -91 1214 -16 
Q 841 59 441 206 
L 441 856 
Q 825 641 1194 531 
Q 1563 422 1919 422 
Q 2459 422 2753 634 
Q 3047 847 3047 1241 
Q 3047 1584 2836 1778 
Q 2625 1972 2144 2069 
L 1759 2144 
Q 1053 2284 737 2584 
Q 422 2884 422 3419 
Q 422 4038 858 4394 
Q 1294 4750 2059 4750 
Q 2388 4750 2728 4690 
Q 3069 4631 3425 4513 
z
" transform="scale(0.015625)"/>
     <path id="DejaVuSans-74" d="M 1172 4494 
L 1172 3500 
L 2356 3500 
L 2356 3053 
L 1172 3053 
L 1172 1153 
Q 1172 725 1289 603 
Q 1406 481 1766 481 
L 2356 481 
L 2356 0 
L 1766 0 
Q 1100 0 847 248 
Q 594 497 594 1153 
L 594 3053 
L 172 3053 
L 172 3500 
L 594 3500 
L 594 4494 
L 1172 4494 
z
" transform="scale(0.015625)"/>
     <path id="DejaVuSans-61" d="M 2194 1759 
Q 1497 1759 1228 1600 
Q 959 1441 959 1056 
Q 959 750 1161 570 
Q 1363 391 1709 391 
Q 2188 391 2477 730 
Q 2766 1069 2766 1631 
L 2766 1759 
L 2194 1759 
z
M 3341 1997 
L 3341 0 
L 2766 0 
L 2766 531 
Q 2569 213 2275 61 
Q 1981 -91 1556 -91 
Q 1019 -91 701 211 
Q 384 513 384 1019 
Q 384 1609 779 1909 
Q 1175 2209 1959 2209 
L 2766 2209 
L 2766 2266 
Q 2766 2663 2505 2880 
Q 2244 3097 1772 3097 
Q 1472 3097 1187 3025 
Q 903 2953 641 2809 
L 641 3341 
Q 956 3463 1253 3523 
Q 1550 3584 1831 3584 
Q 2591 3584 2966 3190 
Q 3341 2797 3341 1997 
z
" transform="scale(0.015625)"/>
     <path id="DejaVuSans-20" transform="scale(0.015625)"/>
     <path id="DejaVuSans-56" d="M 1831 0 
L 50 4666 
L 709 4666 
L 2188 738 
L 3669 4666 
L 4325 4666 
L 2547 0 
L 1831 0 
z
" transform="scale(0.015625)"/>
     <path id="DejaVuSans-72" d="M 2631 2963 
Q 2534 3019 2420 3045 
Q 2306 3072 2169 3072 
Q 1681 3072 1420 2755 
Q 1159 2438 1159 1844 
L 1159 0 
L 581 0 
L 581 3500 
L 1159 3500 
L 1159 2956 
Q 1341 3275 1631 3429 
Q 1922 3584 2338 3584 
Q 2397 3584 2469 3576 
Q 2541 3569 2628 3553 
L 2631 2963 
z
" transform="scale(0.015625)"/>
     <path id="DejaVuSans-62" d="M 3116 1747 
Q 3116 2381 2855 2742 
Q 2594 3103 2138 3103 
Q 1681 3103 1420 2742 
Q 1159 2381 1159 1747 
Q 1159 1113 1420 752 
Q 1681 391 2138 391 
Q 2594 391 2855 752 
Q 3116 1113 3116 1747 
z
M 1159 2969 
Q 1341 3281 1617 3432 
Q 1894 3584 2278 3584 
Q 2916 3584 3314 3078 
Q 3713 2572 3713 1747 
Q 3713 922 3314 415 
Q 2916 -91 2278 -91 
Q 1894 -91 1617 61 
Q 1341 213 1159 525 
L 1159 0 
L 581 0 
L 581 4863 
L 1159 4863 
L 1159 2969 
z
" transform="scale(0.015625)"/>
     <path id="DejaVuSans-6c" d="M 603 4863 
L 1178 4863 
L 1178 0 
L 603 0 
L 603 4863 
z
" transform="scale(0.015625)"/>
     <path id="DejaVuSans-75" d="M 544 1381 
L 544 3500 
L 1119 3500 
L 1119 1403 
Q 1119 906 1312 657 
Q 1506 409 1894 409 
Q 2359 409 2629 706 
Q 2900 1003 2900 1516 
L 2900 3500 
L 3475 3500 
L 3475 0 
L 2900 0 
L 2900 538 
Q 2691 219 2414 64 
Q 2138 -91 1772 -91 
Q 1169 -91 856 284 
Q 544 659 544 1381 
z
M 1991 3584 
L 1991 3584 
z
" transform="scale(0.015625)"/>
     <path id="DejaVuSans-6f" d="M 1959 3097 
Q 1497 3097 1228 2736 
Q 959 2375 959 1747 
Q 959 1119 1226 758 
Q 1494 397 1959 397 
Q 2419 397 2687 759 
Q 2956 1122 2956 1747 
Q 2956 2369 2687 2733 
Q 2419 3097 1959 3097 
z
M 1959 3584 
Q 2709 3584 3137 3096 
Q 3566 2609 3566 1747 
Q 3566 888 3137 398 
Q 2709 -91 1959 -91 
Q 1206 -91 779 398 
Q 353 888 353 1747 
Q 353 2609 779 3096 
Q 1206 3584 1959 3584 
z
" transform="scale(0.015625)"/>
     <path id="DejaVuSans-6e" d="M 3513 2113 
L 3513 0 
L 2938 0 
L 2938 2094 
Q 2938 2591 2744 2837 
Q 2550 3084 2163 3084 
Q 1697 3084 1428 2787 
Q 1159 2491 1159 1978 
L 1159 0 
L 581 0 
L 581 3500 
L 1159 3500 
L 1159 2956 
Q 1366 3272 1645 3428 
Q 1925 3584 2291 3584 
Q 2894 3584 3203 3211 
Q 3513 2838 3513 2113 
z
" transform="scale(0.015625)"/>
     <path id="DejaVuSans-43" d="M 4122 4306 
L 4122 3641 
Q 3803 3938 3442 4084 
Q 3081 4231 2675 4231 
Q 1875 4231 1450 3742 
Q 1025 3253 1025 2328 
Q 1025 1406 1450 917 
Q 1875 428 2675 428 
Q 3081 428 3442 575 
Q 3803 722 4122 1019 
L 4122 359 
Q 3791 134 3420 21 
Q 3050 -91 2638 -91 
Q 1578 -91 968 557 
Q 359 1206 359 2328 
Q 359 3453 968 4101 
Q 1578 4750 2638 4750 
Q 3056 4750 3426 4639 
Q 3797 4528 4122 4306 
z
" transform="scale(0.015625)"/>
     <path id="DejaVuSans-70" d="M 1159 525 
L 1159 -1331 
L 581 -1331 
L 581 3500 
L 1159 3500 
L 1159 2969 
Q 1341 3281 1617 3432 
Q 1894 3584 2278 3584 
Q 2916 3584 3314 3078 
Q 3713 2572 3713 1747 
Q 3713 922 3314 415 
Q 2916 -91 2278 -91 
Q 1894 -91 1617 61 
Q 1341 213 1159 525 
z
M 3116 1747 
Q 3116 2381 2855 2742 
Q 2594 3103 2138 3103 
Q 1681 3103 1420 2742 
Q 1159 2381 1159 1747 
Q 1159 1113 1420 752 
Q 1681 391 2138 391 
Q 2594 391 2855 752 
Q 3116 1113 3116 1747 
z
" transform="scale(0.015625)"/>
     <path id="DejaVuSans-73" d="M 2834 3397 
L 2834 2853 
Q 2591 2978 2328 3040 
Q 2066 3103 1784 3103 
Q 1356 3103 1142 2972 
Q 928 2841 928 2578 
Q 928 2378 1081 2264 
Q 1234 2150 1697 2047 
L 1894 2003 
Q 2506 1872 2764 1633 
Q 3022 1394 3022 966 
Q 3022 478 2636 193 
Q 2250 -91 1575 -91 
Q 1294 -91 989 -36 
Q 684 19 347 128 
L 347 722 
Q 666 556 975 473 
Q 1284 391 1588 391 
Q 1994 391 2212 530 
Q 2431 669 2431 922 
Q 2431 1156 2273 1281 
Q 2116 1406 1581 1522 
L 1381 1569 
Q 847 1681 609 1914 
Q 372 2147 372 2553 
Q 372 3047 722 3315 
Q 1072 3584 1716 3584 
Q 2034 3584 2315 3537 
Q 2597 3491 2834 3397 
z
" transform="scale(0.015625)"/>
    </defs>
    <use xlink:href="#DejaVuSans-53"/>
    <use xlink:href="#DejaVuSans-74" transform="translate(63.476562 0)"/>
    <use xlink:href="#DejaVuSans-61" transform="translate(102.685547 0)"/>
    <use xlink:href="#DejaVuSans-74" transform="translate(163.964844 0)"/>
    <use xlink:href="#DejaVuSans-65" transform="translate(203.173828 0)"/>
    <use xlink:href="#DejaVuSans-20" transform="translate(264.697266 0)"/>
    <use xlink:href="#DejaVuSans-56" transform="translate(296.484375 0)"/>
    <use xlink:href="#DejaVuSans-61" transform="translate(357.142578 0)"/>
    <use xlink:href="#DejaVuSans-72" transform="translate(418.421875 0)"/>
    <use xlink:href="#DejaVuSans-69" transform="translate(459.535156 0)"/>
    <use xlink:href="#DejaVuSans-61" transform="translate(487.318359 0)"/>
    <use xlink:href="#DejaVuSans-62" transform="translate(548.597656 0)"/>
    <use xlink:href="#DejaVuSans-6c" transform="translate(612.074219 0)"/>
    <use xlink:href="#DejaVuSans-65" transform="translate(639.857422 0)"/>
    <use xlink:href="#DejaVuSans-20" transform="translate(701.380859 0)"/>
    <use xlink:href="#DejaVuSans-53" transform="translate(733.167969 0)"/>
    <use xlink:href="#DejaVuSans-69" transform="translate(796.644531 0)"/>
    <use xlink:href="#DejaVuSans-6d" transform="translate(824.427734 0)"/>
    <use xlink:href="#DejaVuSans-75" transform="translate(921.839844 0)"/>
    <use xlink:href="#DejaVuSans-6c" transform="translate(985.21875 0)"/>
    <use xlink:href="#DejaVuSans-61" transform="translate(1013.001953 0)"/>
    <use xlink:href="#DejaVuSans-74" transform="translate(1074.28125 0)"/>
    <use xlink:href="#DejaVuSans-69" transform="translate(1113.490234 0)"/>
    <use xlink:href="#DejaVuSans-6f" transform="translate(1141.273438 0)"/>
    <use xlink:href="#DejaVuSans-6e" transform="translate(1202.455078 0)"/>
    <use xlink:href="#DejaVuSans-20" transform="translate(1265.833984 0)"/>
    <use xlink:href="#DejaVuSans-43" transform="translate(1297.621094 0)"/>
    <use xlink:href="#DejaVuSans-6f" transform="translate(1367.445312 0)"/>
    <use xlink:href="#DejaVuSans-6d" transform="translate(1428.626953 0)"/>
    <use xlink:href="#DejaVuSans-70" transform="translate(1526.039062 0)"/>
    <use xlink:href="#DejaVuSans-61" transform="translate(1589.515625 0)"/>
    <use xlink:href="#DejaVuSans-72" transform="translate(1650.794922 0)"/>
    <use xlink:href="#DejaVuSans-69" transform="translate(1691.908203 0)"/>
    <use xlink:href="#DejaVuSans-73" transform="translate(1719.691406 0)"/>
    <use xlink:href="#DejaVuSans-6f" transform="translate(1771.791016 0)"/>
    <use xlink:href="#DejaVuSans-6e" transform="translate(1832.972656 0)"/>
   </g>
  </g>
  <g id="legend_1">
   <g id="patch_12">
    <path d="M 753.679062 66.7125 
L 864.750937 66.7125 
Q 866.750937 66.7125 866.750937 64.7125 
L 866.750937 7 
Q 866.750937 5 864.750937 5 
L 753.679062 5 
Q 751.679062 5 751.679062 7 
L 751.679062 64.7125 
Q 751.679062 66.7125 753.679062 66.7125 
z
" style="fill: #ffffff; opacity: 0.5; stroke: #cccccc; stroke-linejoin: miter"/>
   </g>
   <g id="line2d_27">
    <path d="M 755.679062 13.098437 
L 765.679062 13.098437 
L 775.679062 13.098437 
" style="fill: none; stroke: #000000; stroke-opacity: 0.4; stroke-width: 6; stroke-linecap: square"/>
   </g>
   <g id="text_17">
    <!-- True Trajectory -->
    <g transform="translate(783.679062 16.598437) scale(0.1 -0.1)">
     <defs>
      <path id="DejaVuSans-6a" d="M 603 3500 
L 1178 3500 
L 1178 -63 
Q 1178 -731 923 -1031 
Q 669 -1331 103 -1331 
L -116 -1331 
L -116 -844 
L 38 -844 
Q 366 -844 484 -692 
Q 603 -541 603 -63 
L 603 3500 
z
M 603 4863 
L 1178 4863 
L 1178 4134 
L 603 4134 
L 603 4863 
z
" transform="scale(0.015625)"/>
      <path id="DejaVuSans-63" d="M 3122 3366 
L 3122 2828 
Q 2878 2963 2633 3030 
Q 2388 3097 2138 3097 
Q 1578 3097 1268 2742 
Q 959 2388 959 1747 
Q 959 1106 1268 751 
Q 1578 397 2138 397 
Q 2388 397 2633 464 
Q 2878 531 3122 666 
L 3122 134 
Q 2881 22 2623 -34 
Q 2366 -91 2075 -91 
Q 1284 -91 818 406 
Q 353 903 353 1747 
Q 353 2603 823 3093 
Q 1294 3584 2113 3584 
Q 2378 3584 2631 3529 
Q 2884 3475 3122 3366 
z
" transform="scale(0.015625)"/>
      <path id="DejaVuSans-79" d="M 2059 -325 
Q 1816 -950 1584 -1140 
Q 1353 -1331 966 -1331 
L 506 -1331 
L 506 -850 
L 844 -850 
Q 1081 -850 1212 -737 
Q 1344 -625 1503 -206 
L 1606 56 
L 191 3500 
L 800 3500 
L 1894 763 
L 2988 3500 
L 3597 3500 
L 2059 -325 
z
" transform="scale(0.015625)"/>
     </defs>
     <use xlink:href="#DejaVuSans-54"/>
     <use xlink:href="#DejaVuSans-72" transform="translate(46.333984 0)"/>
     <use xlink:href="#DejaVuSans-75" transform="translate(87.447266 0)"/>
     <use xlink:href="#DejaVuSans-65" transform="translate(150.826172 0)"/>
     <use xlink:href="#DejaVuSans-20" transform="translate(212.349609 0)"/>
     <use xlink:href="#DejaVuSans-54" transform="translate(244.136719 0)"/>
     <use xlink:href="#DejaVuSans-72" transform="translate(290.470703 0)"/>
     <use xlink:href="#DejaVuSans-61" transform="translate(331.583984 0)"/>
     <use xlink:href="#DejaVuSans-6a" transform="translate(392.863281 0)"/>
     <use xlink:href="#DejaVuSans-65" transform="translate(420.646484 0)"/>
     <use xlink:href="#DejaVuSans-63" transform="translate(482.169922 0)"/>
     <use xlink:href="#DejaVuSans-74" transform="translate(537.150391 0)"/>
     <use xlink:href="#DejaVuSans-6f" transform="translate(576.359375 0)"/>
     <use xlink:href="#DejaVuSans-72" transform="translate(637.541016 0)"/>
     <use xlink:href="#DejaVuSans-79" transform="translate(678.654297 0)"/>
    </g>
   </g>
   <g id="line2d_28">
    <path d="M 755.679062 27.776562 
L 765.679062 27.776562 
L 775.679062 27.776562 
" style="fill: none; stroke-dasharray: 12.95,5.6; stroke-dashoffset: 0; stroke: #ff0000; stroke-opacity: 0.8; stroke-width: 3.5"/>
   </g>
   <g id="text_18">
    <!-- AutoSINDy -->
    <g transform="translate(783.679062 31.276562) scale(0.1 -0.1)">
     <defs>
      <path id="DejaVuSans-41" d="M 2188 4044 
L 1331 1722 
L 3047 1722 
L 2188 4044 
z
M 1831 4666 
L 2547 4666 
L 4325 0 
L 3669 0 
L 3244 1197 
L 1141 1197 
L 716 0 
L 50 0 
L 1831 4666 
z
" transform="scale(0.015625)"/>
      <path id="DejaVuSans-49" d="M 628 4666 
L 1259 4666 
L 1259 0 
L 628 0 
L 628 4666 
z
" transform="scale(0.015625)"/>
      <path id="DejaVuSans-4e" d="M 628 4666 
L 1478 4666 
L 3547 763 
L 3547 4666 
L 4159 4666 
L 4159 0 
L 3309 0 
L 1241 3903 
L 1241 0 
L 628 0 
L 628 4666 
z
" transform="scale(0.015625)"/>
      <path id="DejaVuSans-44" d="M 1259 4147 
L 1259 519 
L 2022 519 
Q 2988 519 3436 956 
Q 3884 1394 3884 2338 
Q 3884 3275 3436 3711 
Q 2988 4147 2022 4147 
L 1259 4147 
z
M 628 4666 
L 1925 4666 
Q 3281 4666 3915 4102 
Q 4550 3538 4550 2338 
Q 4550 1131 3912 565 
Q 3275 0 1925 0 
L 628 0 
L 628 4666 
z
" transform="scale(0.015625)"/>
     </defs>
     <use xlink:href="#DejaVuSans-41"/>
     <use xlink:href="#DejaVuSans-75" transform="translate(68.408203 0)"/>
     <use xlink:href="#DejaVuSans-74" transform="translate(131.787109 0)"/>
     <use xlink:href="#DejaVuSans-6f" transform="translate(170.996094 0)"/>
     <use xlink:href="#DejaVuSans-53" transform="translate(232.177734 0)"/>
     <use xlink:href="#DejaVuSans-49" transform="translate(295.654297 0)"/>
     <use xlink:href="#DejaVuSans-4e" transform="translate(325.146484 0)"/>
     <use xlink:href="#DejaVuSans-44" transform="translate(399.951172 0)"/>
     <use xlink:href="#DejaVuSans-79" transform="translate(476.953125 0)"/>
    </g>
   </g>
   <g id="line2d_29">
    <path d="M 755.679062 42.454687 
L 765.679062 42.454687 
L 775.679062 42.454687 
" style="fill: none; stroke-dasharray: 3.5,5.775; stroke-dashoffset: 0; stroke: #008000; stroke-opacity: 0.8; stroke-width: 3.5"/>
   </g>
   <g id="text_19">
    <!-- Standard SINDy -->
    <g transform="translate(783.679062 45.954687) scale(0.1 -0.1)">
     <defs>
      <path id="DejaVuSans-64" d="M 2906 2969 
L 2906 4863 
L 3481 4863 
L 3481 0 
L 2906 0 
L 2906 525 
Q 2725 213 2448 61 
Q 2172 -91 1784 -91 
Q 1150 -91 751 415 
Q 353 922 353 1747 
Q 353 2572 751 3078 
Q 1150 3584 1784 3584 
Q 2172 3584 2448 3432 
Q 2725 3281 2906 2969 
z
M 947 1747 
Q 947 1113 1208 752 
Q 1469 391 1925 391 
Q 2381 391 2643 752 
Q 2906 1113 2906 1747 
Q 2906 2381 2643 2742 
Q 2381 3103 1925 3103 
Q 1469 3103 1208 2742 
Q 947 2381 947 1747 
z
" transform="scale(0.015625)"/>
     </defs>
     <use xlink:href="#DejaVuSans-53"/>
     <use xlink:href="#DejaVuSans-74" transform="translate(63.476562 0)"/>
     <use xlink:href="#DejaVuSans-61" transform="translate(102.685547 0)"/>
     <use xlink:href="#DejaVuSans-6e" transform="translate(163.964844 0)"/>
     <use xlink:href="#DejaVuSans-64" transform="translate(227.34375 0)"/>
     <use xlink:href="#DejaVuSans-61" transform="translate(290.820312 0)"/>
     <use xlink:href="#DejaVuSans-72" transform="translate(352.099609 0)"/>
     <use xlink:href="#DejaVuSans-64" transform="translate(391.462891 0)"/>
     <use xlink:href="#DejaVuSans-20" transform="translate(454.939453 0)"/>
     <use xlink:href="#DejaVuSans-53" transform="translate(486.726562 0)"/>
     <use xlink:href="#DejaVuSans-49" transform="translate(550.203125 0)"/>
     <use xlink:href="#DejaVuSans-4e" transform="translate(579.695312 0)"/>
     <use xlink:href="#DejaVuSans-44" transform="translate(654.5 0)"/>
     <use xlink:href="#DejaVuSans-79" transform="translate(731.501953 0)"/>
    </g>
   </g>
   <g id="line2d_30">
    <path d="M 755.679062 57.132812 
L 765.679062 57.132812 
L 775.679062 57.132812 
" style="fill: none; stroke-dasharray: 22.4,5.6,3.5,5.6; stroke-dashoffset: 0; stroke: #0000ff; stroke-opacity: 0.8; stroke-width: 3.5"/>
   </g>
   <g id="text_20">
    <!-- Standard PySR -->
    <g transform="translate(783.679062 60.632812) scale(0.1 -0.1)">
     <defs>
      <path id="DejaVuSans-50" d="M 1259 4147 
L 1259 2394 
L 2053 2394 
Q 2494 2394 2734 2622 
Q 2975 2850 2975 3272 
Q 2975 3691 2734 3919 
Q 2494 4147 2053 4147 
L 1259 4147 
z
M 628 4666 
L 2053 4666 
Q 2838 4666 3239 4311 
Q 3641 3956 3641 3272 
Q 3641 2581 3239 2228 
Q 2838 1875 2053 1875 
L 1259 1875 
L 1259 0 
L 628 0 
L 628 4666 
z
" transform="scale(0.015625)"/>
      <path id="DejaVuSans-52" d="M 2841 2188 
Q 3044 2119 3236 1894 
Q 3428 1669 3622 1275 
L 4263 0 
L 3584 0 
L 2988 1197 
Q 2756 1666 2539 1819 
Q 2322 1972 1947 1972 
L 1259 1972 
L 1259 0 
L 628 0 
L 628 4666 
L 2053 4666 
Q 2853 4666 3247 4331 
Q 3641 3997 3641 3322 
Q 3641 2881 3436 2590 
Q 3231 2300 2841 2188 
z
M 1259 4147 
L 1259 2491 
L 2053 2491 
Q 2509 2491 2742 2702 
Q 2975 2913 2975 3322 
Q 2975 3731 2742 3939 
Q 2509 4147 2053 4147 
L 1259 4147 
z
" transform="scale(0.015625)"/>
     </defs>
     <use xlink:href="#DejaVuSans-53"/>
     <use xlink:href="#DejaVuSans-74" transform="translate(63.476562 0)"/>
     <use xlink:href="#DejaVuSans-61" transform="translate(102.685547 0)"/>
     <use xlink:href="#DejaVuSans-6e" transform="translate(163.964844 0)"/>
     <use xlink:href="#DejaVuSans-64" transform="translate(227.34375 0)"/>
     <use xlink:href="#DejaVuSans-61" transform="translate(290.820312 0)"/>
     <use xlink:href="#DejaVuSans-72" transform="translate(352.099609 0)"/>
     <use xlink:href="#DejaVuSans-64" transform="translate(391.462891 0)"/>
     <use xlink:href="#DejaVuSans-20" transform="translate(454.939453 0)"/>
     <use xlink:href="#DejaVuSans-50" transform="translate(486.726562 0)"/>
     <use xlink:href="#DejaVuSans-79" transform="translate(547.029297 0)"/>
     <use xlink:href="#DejaVuSans-53" transform="translate(606.208984 0)"/>
     <use xlink:href="#DejaVuSans-52" transform="translate(669.685547 0)"/>
    </g>
   </g>
  </g>
 </g>
 <defs>
  <clipPath id="p82a172fe3a">
   <rect x="52.160938" y="39.64" width="806.59" height="97.15"/>
  </clipPath>
  <clipPath id="pf20bd81ccd">
   <rect x="52.160938" y="151.09" width="806.59" height="97.15"/>
  </clipPath>
 </defs>
</svg>
