<?xml version="1.0" encoding="utf-8" standalone="no"?>
<!DOCTYPE svg PUBLIC "-//W3C//DTD SVG 1.1//EN"
  "http://www.w3.org/Graphics/SVG/1.1/DTD/svg11.dtd">
<svg xmlns:xlink="http://www.w3.org/1999/xlink" width="862.210938pt" height="285.79625pt" viewBox="0 0 862.210938 285.79625" xmlns="http://www.w3.org/2000/svg" version="1.1">
 <metadata>
  <rdf:RDF xmlns:dc="http://purl.org/dc/elements/1.1/" xmlns:cc="http://creativecommons.org/ns#" xmlns:rdf="http://www.w3.org/1999/02/22-rdf-syntax-ns#">
   <cc:Work>
    <dc:type rdf:resource="http://purl.org/dc/dcmitype/StillImage"/>
    <dc:date>2026-04-06T11:31:24.695944</dc:date>
    <dc:format>image/svg+xml</dc:format>
    <dc:creator>
     <cc:Agent>
      <dc:title>Matplotlib v3.10.7, https://matplotlib.org/</dc:title>
     </cc:Agent>
    </dc:creator>
   </cc:Work>
  </rdf:RDF>
 </metadata>
 <defs>
  <style type="text/css">*{stroke-linejoin: round; stroke-linecap: butt}</style>
 </defs>
 <g id="figure_1">
  <g id="patch_1">
   <path d="M -0 285.79625 
L 862.210938 285.79625 
L 862.210938 0 
L -0 0 
z
" style="fill: #ffffff"/>
  </g>
  <g id="axes_1">
   <g id="patch_2">
    <path d="M 52.160938 136.79 
L 849.210937 136.79 
L 849.210937 39.64 
L 52.160938 39.64 
z
" style="fill: #ffffff"/>
   </g>
   <g id="line2d_1">
    <path d="M 88.390483 44.331002 
L 92.746741 44.101017 
L 97.102999 44.071141 
L 101.459257 44.240334 
L 105.815515 44.606773 
L 110.171773 45.167891 
L 114.528031 45.920222 
L 118.884289 46.859395 
L 123.240547 47.980142 
L 129.048891 49.746122 
L 134.857235 51.806706 
L 140.665579 54.142039 
L 146.473923 56.731223 
L 152.282267 59.550392 
L 159.542696 63.358849 
L 166.803126 67.434916 
L 175.515642 72.603054 
L 187.13233 79.80199 
L 211.817792 95.228615 
L 220.530308 100.393362 
L 227.790738 104.475162 
L 235.051168 108.304175 
L 240.859512 111.156317 
L 246.667856 113.799053 
L 252.4762 116.214188 
L 258.284544 118.385328 
L 264.092888 120.298553 
L 269.901232 121.94237 
L 275.709576 123.304326 
L 281.51792 124.374542 
L 285.874178 124.981408 
L 290.230436 125.418228 
L 294.586694 125.683978 
L 298.942952 125.778532 
L 303.299209 125.702659 
L 307.655467 125.45803 
L 313.463811 124.873912 
L 319.272155 124.003016 
L 325.080499 122.856092 
L 330.888843 121.44279 
L 336.697187 119.77638 
L 342.505531 117.872238 
L 348.313875 115.747414 
L 354.122219 113.420631 
L 361.382649 110.259373 
L 368.643079 106.858045 
L 377.355595 102.526849 
L 388.972283 96.470099 
L 418.014003 81.146533 
L 426.726519 76.837371 
L 435.439035 72.795224 
L 442.699465 69.68012 
L 449.959895 66.832934 
L 455.768238 64.767962 
L 461.576582 62.909354 
L 467.384926 61.270779 
L 473.19327 59.863641 
L 479.001614 58.697082 
L 484.809958 57.777978 
L 490.618302 57.110945 
L 496.426646 56.698333 
L 502.23499 56.540231 
L 508.043334 56.634965 
L 513.851678 56.98033 
L 519.660022 57.572283 
L 525.468366 58.404762 
L 531.27671 59.46969 
L 537.085054 60.756976 
L 542.893398 62.254511 
L 548.701742 63.948172 
L 555.962172 66.316271 
L 563.222602 68.929502 
L 571.935118 72.33553 
L 582.09972 76.603616 
L 595.168494 82.383822 
L 621.306041 94.030831 
L 631.470643 98.271473 
L 640.183159 101.66044 
L 647.443589 104.265796 
L 654.704019 106.639061 
L 661.964449 108.753471 
L 667.772793 110.243282 
L 673.581137 111.543198 
L 679.389481 112.645246 
L 685.197825 113.543153 
L 691.006169 114.232469 
L 696.814513 114.709924 
L 702.622857 114.972522 
L 708.431201 115.019117 
L 714.239545 114.850523 
L 720.047889 114.46951 
L 725.856233 113.880804 
L 731.664577 113.09109 
L 737.472921 112.109012 
L 744.733351 110.627235 
L 751.99378 108.88648 
L 759.25421 106.910335 
L 766.51464 104.725208 
L 775.227156 101.869742 
L 785.391758 98.285949 
L 798.460532 93.420232 
L 812.981392 87.90732 
L 812.981392 87.90732 
" clip-path="url(#p13f12a375a)" style="fill: none; stroke: #000000; stroke-opacity: 0.4; stroke-width: 6; stroke-linecap: square"/>
   </g>
   <g id="matplotlib.axis_1">
    <g id="xtick_1">
     <g id="line2d_2">
      <defs>
       <path id="mc5fbf6e7e2" d="M 0 0 
L 0 3.5 
" style="stroke: #000000; stroke-width: 0.8"/>
      </defs>
      <g>
       <use xlink:href="#mc5fbf6e7e2" x="88.390483" y="136.79" style="stroke: #000000; stroke-width: 0.8"/>
      </g>
     </g>
    </g>
    <g id="xtick_2">
     <g id="line2d_3">
      <g>
       <use xlink:href="#mc5fbf6e7e2" x="233.308665" y="136.79" style="stroke: #000000; stroke-width: 0.8"/>
      </g>
     </g>
    </g>
    <g id="xtick_3">
     <g id="line2d_4">
      <g>
       <use xlink:href="#mc5fbf6e7e2" x="378.226847" y="136.79" style="stroke: #000000; stroke-width: 0.8"/>
      </g>
     </g>
    </g>
    <g id="xtick_4">
     <g id="line2d_5">
      <g>
       <use xlink:href="#mc5fbf6e7e2" x="523.145028" y="136.79" style="stroke: #000000; stroke-width: 0.8"/>
      </g>
     </g>
    </g>
    <g id="xtick_5">
     <g id="line2d_6">
      <g>
       <use xlink:href="#mc5fbf6e7e2" x="668.06321" y="136.79" style="stroke: #000000; stroke-width: 0.8"/>
      </g>
     </g>
    </g>
    <g id="xtick_6">
     <g id="line2d_7">
      <g>
       <use xlink:href="#mc5fbf6e7e2" x="812.981392" y="136.79" style="stroke: #000000; stroke-width: 0.8"/>
      </g>
     </g>
    </g>
   </g>
   <g id="matplotlib.axis_2">
    <g id="ytick_1">
     <g id="line2d_8">
      <defs>
       <path id="m0ea8387742" d="M 0 0 
L -3.5 0 
" style="stroke: #000000; stroke-width: 0.8"/>
      </defs>
      <g>
       <use xlink:href="#m0ea8387742" x="52.160938" y="115.713528" style="stroke: #000000; stroke-width: 0.8"/>
      </g>
     </g>
     <g id="text_1">
      <!-- −0.5 -->
      <g transform="translate(20.878125 119.512746) scale(0.1 -0.1)">
       <defs>
        <path id="DejaVuSans-2212" d="M 678 2272 
L 4684 2272 
L 4684 1741 
L 678 1741 
L 678 2272 
z
" transform="scale(0.015625)"/>
        <path id="DejaVuSans-30" d="M 2034 4250 
Q 1547 4250 1301 3770 
Q 1056 3291 1056 2328 
Q 1056 1369 1301 889 
Q 1547 409 2034 409 
Q 2525 409 2770 889 
Q 3016 1369 3016 2328 
Q 3016 3291 2770 3770 
Q 2525 4250 2034 4250 
z
M 2034 4750 
Q 2819 4750 3233 4129 
Q 3647 3509 3647 2328 
Q 3647 1150 3233 529 
Q 2819 -91 2034 -91 
Q 1250 -91 836 529 
Q 422 1150 422 2328 
Q 422 3509 836 4129 
Q 1250 4750 2034 4750 
z
" transform="scale(0.015625)"/>
        <path id="DejaVuSans-2e" d="M 684 794 
L 1344 794 
L 1344 0 
L 684 0 
L 684 794 
z
" transform="scale(0.015625)"/>
        <path id="DejaVuSans-35" d="M 691 4666 
L 3169 4666 
L 3169 4134 
L 1269 4134 
L 1269 2991 
Q 1406 3038 1543 3061 
Q 1681 3084 1819 3084 
Q 2600 3084 3056 2656 
Q 3513 2228 3513 1497 
Q 3513 744 3044 326 
Q 2575 -91 1722 -91 
Q 1428 -91 1123 -41 
Q 819 9 494 109 
L 494 744 
Q 775 591 1075 516 
Q 1375 441 1709 441 
Q 2250 441 2565 725 
Q 2881 1009 2881 1497 
Q 2881 1984 2565 2268 
Q 2250 2553 1709 2553 
Q 1456 2553 1204 2497 
Q 953 2441 691 2322 
L 691 4666 
z
" transform="scale(0.015625)"/>
       </defs>
       <use xlink:href="#DejaVuSans-2212"/>
       <use xlink:href="#DejaVuSans-30" transform="translate(83.789062 0)"/>
       <use xlink:href="#DejaVuSans-2e" transform="translate(147.412109 0)"/>
       <use xlink:href="#DejaVuSans-35" transform="translate(179.199219 0)"/>
      </g>
     </g>
    </g>
    <g id="ytick_2">
     <g id="line2d_9">
      <g>
       <use xlink:href="#m0ea8387742" x="52.160938" y="88.25871" style="stroke: #000000; stroke-width: 0.8"/>
      </g>
     </g>
     <g id="text_2">
      <!-- 0.0 -->
      <g transform="translate(29.257812 92.057929) scale(0.1 -0.1)">
       <use xlink:href="#DejaVuSans-30"/>
       <use xlink:href="#DejaVuSans-2e" transform="translate(63.623047 0)"/>
       <use xlink:href="#DejaVuSans-30" transform="translate(95.410156 0)"/>
      </g>
     </g>
    </g>
    <g id="ytick_3">
     <g id="line2d_10">
      <g>
       <use xlink:href="#m0ea8387742" x="52.160938" y="60.803892" style="stroke: #000000; stroke-width: 0.8"/>
      </g>
     </g>
     <g id="text_3">
      <!-- 0.5 -->
      <g transform="translate(29.257812 64.603111) scale(0.1 -0.1)">
       <use xlink:href="#DejaVuSans-30"/>
       <use xlink:href="#DejaVuSans-2e" transform="translate(63.623047 0)"/>
       <use xlink:href="#DejaVuSans-35" transform="translate(95.410156 0)"/>
      </g>
     </g>
    </g>
    <g id="text_4">
     <!-- $x0$ -->
     <g transform="translate(14.798438 94.365) rotate(-90) scale(0.1 -0.1)">
      <defs>
       <path id="DejaVuSans-Oblique-78" d="M 3841 3500 
L 2234 1784 
L 3219 0 
L 2559 0 
L 1819 1388 
L 531 0 
L -166 0 
L 1556 1844 
L 641 3500 
L 1300 3500 
L 1972 2234 
L 3144 3500 
L 3841 3500 
z
" transform="scale(0.015625)"/>
      </defs>
      <use xlink:href="#DejaVuSans-Oblique-78" transform="translate(0 0.78125)"/>
      <use xlink:href="#DejaVuSans-30" transform="translate(59.179688 0.78125)"/>
     </g>
    </g>
   </g>
   <g id="line2d_11">
    <path d="M 88.390483 44.331002 
L 92.746741 44.099815 
L 97.102999 44.067058 
L 101.459257 44.232859 
L 105.815515 44.596471 
L 110.171773 45.156298 
L 114.528031 45.909891 
L 118.884289 46.854265 
L 123.240547 47.985983 
L 127.596805 49.300944 
L 133.405149 51.329734 
L 139.213493 53.656416 
L 145.021837 56.25839 
L 150.830181 59.112036 
L 156.638524 62.19445 
L 163.898954 66.333759 
L 171.159384 70.745155 
L 179.8719 76.321789 
L 191.488588 84.072721 
L 216.17405 100.673664 
L 224.886566 106.227595 
L 232.146996 110.61317 
L 239.407426 114.718343 
L 245.21577 117.764282 
L 251.024114 120.570542 
L 256.832458 123.115157 
L 262.640802 125.380972 
L 268.449146 127.353725 
L 272.805404 128.632362 
L 277.161662 129.731687 
L 281.51792 130.645813 
L 285.874178 131.369859 
L 290.230436 131.900281 
L 294.586694 132.234633 
L 298.942952 132.371366 
L 303.299209 132.30991 
L 307.655467 132.050509 
L 312.011725 131.594342 
L 316.367983 130.943515 
L 320.724241 130.101093 
L 325.080499 129.071486 
L 329.436757 127.860226 
L 335.245101 125.973563 
L 341.053445 123.789842 
L 346.861789 121.323106 
L 352.670133 118.58938 
L 358.478477 115.609243 
L 364.286821 112.407527 
L 371.547251 108.135208 
L 378.807681 103.614267 
L 387.520197 97.941326 
L 400.588971 89.138699 
L 418.014003 77.408495 
L 426.726519 71.783325 
L 433.986949 67.3173 
L 441.247379 63.111465 
L 447.055723 59.968046 
L 452.864066 57.046901 
L 458.67241 54.370832 
L 464.480754 51.963299 
L 470.289098 49.847531 
L 474.645356 48.464245 
L 479.001614 47.262372 
L 483.357872 46.246389 
L 487.71413 45.419937 
L 492.070388 44.786171 
L 496.426646 44.347774 
L 500.782904 44.106686 
L 505.139162 44.063966 
L 509.49542 44.219849 
L 513.851678 44.573594 
L 518.207936 45.123643 
L 522.564194 45.867612 
L 526.920452 46.802503 
L 531.27671 47.92494 
L 535.632968 49.230857 
L 541.441312 51.248046 
L 547.249656 53.563947 
L 553.058 56.156018 
L 558.866344 59.000636 
L 564.674688 62.074876 
L 571.935118 66.205229 
L 579.195548 70.609214 
L 587.908064 76.179184 
L 599.524751 83.92522 
L 624.210213 100.531377 
L 632.922729 106.092128 
L 640.183159 110.485268 
L 647.443589 114.599661 
L 653.251933 117.654101 
L 659.060277 120.469782 
L 664.868621 123.024579 
L 670.676965 125.301116 
L 676.485309 127.285127 
L 680.841567 128.572561 
L 685.197825 129.681029 
L 689.554083 130.604527 
L 693.910341 131.338204 
L 698.266599 131.878377 
L 702.622857 132.222577 
L 706.979115 132.36924 
L 711.335373 132.317689 
L 715.691631 132.06819 
L 720.047889 131.621826 
L 724.404147 130.980663 
L 728.760405 130.147763 
L 733.116663 129.127383 
L 737.472921 127.925074 
L 743.281265 126.049841 
L 749.089608 123.877026 
L 754.897952 121.420631 
L 760.706296 118.696588 
L 766.51464 115.725291 
L 772.322984 112.531411 
L 779.583414 108.26742 
L 786.843844 103.753126 
L 795.55636 98.085858 
L 808.625134 89.286857 
L 812.981392 86.326939 
L 812.981392 86.326939 
" clip-path="url(#p13f12a375a)" style="fill: none; stroke-dasharray: 22.4,5.6,3.5,5.6; stroke-dashoffset: 0; stroke: #0000ff; stroke-opacity: 0.8; stroke-width: 3.5"/>
   </g>
   <g id="patch_3">
    <path d="M 52.160938 136.79 
L 52.160938 39.64 
" style="fill: none; stroke: #000000; stroke-width: 0.8; stroke-linejoin: miter; stroke-linecap: square"/>
   </g>
   <g id="patch_4">
    <path d="M 849.210937 136.79 
L 849.210937 39.64 
" style="fill: none; stroke: #000000; stroke-width: 0.8; stroke-linejoin: miter; stroke-linecap: square"/>
   </g>
   <g id="patch_5">
    <path d="M 52.160938 136.79 
L 849.210938 136.79 
" style="fill: none; stroke: #000000; stroke-width: 0.8; stroke-linejoin: miter; stroke-linecap: square"/>
   </g>
   <g id="patch_6">
    <path d="M 52.160938 39.64 
L 849.210938 39.64 
" style="fill: none; stroke: #000000; stroke-width: 0.8; stroke-linejoin: miter; stroke-linecap: square"/>
   </g>
   <g id="line2d_12">
    <path d="M 88.390483 44.331002 
L 92.746741 44.108623 
L 97.102999 44.081551 
L 101.459257 44.246537 
L 105.815515 44.60027 
L 110.171773 45.139471 
L 114.528031 45.860892 
L 118.884289 46.761244 
L 123.240547 47.837031 
L 129.048891 49.537507 
L 134.857235 51.53186 
L 140.665579 53.806137 
L 146.473923 56.342669 
L 152.282267 59.119791 
L 158.09061 62.112038 
L 165.35104 66.111115 
L 174.063556 71.209556 
L 184.228158 77.434172 
L 213.269878 95.413187 
L 221.982394 100.477489 
L 229.242824 104.469332 
L 236.503254 108.208767 
L 243.763684 111.657722 
L 249.572028 114.18416 
L 255.380372 116.485617 
L 261.188716 118.546432 
L 266.99706 120.351972 
L 272.805404 121.888799 
L 278.613748 123.144999 
L 284.422092 124.110695 
L 288.77835 124.639819 
L 293.134608 124.999374 
L 297.490866 125.18848 
L 301.847124 125.207385 
L 306.203381 125.057383 
L 312.011725 124.59897 
L 317.820069 123.852888 
L 323.628413 122.829699 
L 329.436757 121.541733 
L 335.245101 120.002584 
L 341.053445 118.226793 
L 346.861789 116.229772 
L 352.670133 114.027899 
L 359.930563 111.014397 
L 367.190993 107.74597 
L 375.903509 103.546262 
L 386.068111 98.36504 
L 403.493143 89.157475 
L 418.014003 81.594642 
L 428.178605 76.571445 
L 436.891121 72.541671 
L 444.151551 69.428553 
L 451.41198 66.577197 
L 457.220324 64.507964 
L 463.028668 62.644977 
L 468.837012 61.003065 
L 474.645356 59.594919 
L 480.4537 58.430646 
L 486.262044 57.517609 
L 492.070388 56.860393 
L 497.878732 56.461 
L 503.687076 56.319132 
L 509.49542 56.432504 
L 515.303764 56.797159 
L 521.112108 57.407647 
L 526.920452 58.257127 
L 532.728796 59.337359 
L 538.53714 60.638622 
L 544.345484 62.149664 
L 550.153828 63.857641 
L 557.414258 66.247441 
L 564.674688 68.890854 
L 571.935118 71.753181 
L 580.647634 75.424136 
L 590.812236 79.945567 
L 611.141439 89.317993 
L 624.210213 95.226812 
L 634.374815 99.578641 
L 643.087331 103.05412 
L 650.347761 105.726141 
L 657.608191 108.161399 
L 664.868621 110.331808 
L 670.676965 111.860373 
L 676.485309 113.191726 
L 682.293653 114.315824 
L 688.101997 115.224252 
L 693.910341 115.910407 
L 699.718685 116.369671 
L 705.527029 116.599568 
L 711.335373 116.599809 
L 717.143717 116.372261 
L 722.952061 115.92084 
L 728.760405 115.251338 
L 734.568749 114.371234 
L 740.377093 113.289475 
L 746.185436 112.016283 
L 753.445866 110.173002 
L 760.706296 108.072946 
L 767.966726 105.743096 
L 776.679242 102.685559 
L 785.391758 99.395062 
L 797.008446 94.749561 
L 812.981392 88.139262 
L 812.981392 88.139262 
" clip-path="url(#p13f12a375a)" style="fill: none; stroke-dasharray: 3.5,5.775; stroke-dashoffset: 0; stroke: #008000; stroke-opacity: 0.8; stroke-width: 3.5"/>
   </g>
   <g id="line2d_13">
    <path d="M 88.390483 44.331002 
L 92.746741 44.101279 
L 97.102999 44.071509 
L 101.459257 44.24041 
L 105.815515 44.605833 
L 110.171773 45.164793 
L 114.528031 45.913388 
L 118.884289 46.846965 
L 123.240547 47.960021 
L 129.048891 49.71237 
L 134.857235 51.755768 
L 140.665579 54.071215 
L 146.473923 56.637711 
L 152.282267 59.432455 
L 159.542696 63.209548 
L 166.803126 67.254366 
L 175.515642 72.386172 
L 187.13233 79.542013 
L 213.269878 95.812103 
L 221.982394 100.942965 
L 229.242824 104.994426 
L 236.503254 108.790656 
L 242.311598 111.613987 
L 248.119942 114.224838 
L 253.928286 116.604369 
L 259.73663 118.735762 
L 265.544974 120.604321 
L 271.353318 122.197586 
L 277.161662 123.505426 
L 282.970006 124.520071 
L 287.326264 125.085334 
L 291.682522 125.481218 
L 296.03878 125.707169 
L 300.395038 125.763328 
L 304.751295 125.650642 
L 310.559639 125.240772 
L 316.367983 124.539842 
L 322.176327 123.556139 
L 327.984671 122.30015 
L 333.793015 120.784424 
L 339.601359 119.02346 
L 345.409703 117.033578 
L 351.218047 114.832765 
L 358.478477 111.814998 
L 365.738907 108.539257 
L 374.451423 104.329595 
L 384.616025 99.134907 
L 400.588971 90.659501 
L 416.561917 82.256176 
L 426.726519 77.175882 
L 435.439035 73.09702 
L 442.699465 69.945716 
L 449.959895 67.05881 
L 455.768238 64.96185 
L 461.576582 63.070149 
L 467.384926 61.396892 
L 473.19327 59.953376 
L 479.001614 58.748974 
L 484.809958 57.791062 
L 490.618302 57.084989 
L 496.426646 56.634054 
L 502.23499 56.439465 
L 508.043334 56.500391 
L 513.851678 56.813966 
L 519.660022 57.375344 
L 525.468366 58.177754 
L 531.27671 59.212543 
L 537.085054 60.469301 
L 542.893398 61.93594 
L 548.701742 63.598818 
L 555.962172 65.930273 
L 563.222602 68.512399 
L 570.483032 71.310164 
L 579.195548 74.899469 
L 590.812236 79.967031 
L 628.566471 96.732775 
L 637.278987 100.256465 
L 645.991503 103.516544 
L 653.251933 105.992307 
L 660.512363 108.218725 
L 667.772793 110.171 
L 673.581137 111.521129 
L 679.389481 112.673222 
L 685.197825 113.619926 
L 691.006169 114.355607 
L 696.814513 114.876368 
L 702.622857 115.180056 
L 708.431201 115.266269 
L 714.239545 115.136332 
L 720.047889 114.793296 
L 725.856233 114.241884 
L 731.664577 113.488431 
L 737.472921 112.540823 
L 744.733351 111.097669 
L 751.99378 109.387178 
L 759.25421 107.433732 
L 766.51464 105.264451 
L 775.227156 102.418077 
L 785.391758 98.831368 
L 798.460532 93.941151 
L 812.981392 88.369064 
L 812.981392 88.369064 
" clip-path="url(#p13f12a375a)" style="fill: none; stroke-dasharray: 12.95,5.6; stroke-dashoffset: 0; stroke: #ff0000; stroke-opacity: 0.8; stroke-width: 3.5"/>
   </g>
  </g>
  <g id="axes_2">
   <g id="patch_7">
    <path d="M 52.160938 248.24 
L 849.210937 248.24 
L 849.210937 151.09 
L 52.160938 151.09 
z
" style="fill: #ffffff"/>
   </g>
   <g id="line2d_14">
    <path d="M 88.390483 194.741433 
L 107.267601 207.562276 
L 115.980117 213.22013 
L 123.240547 217.702184 
L 130.500977 221.912029 
L 136.309321 225.04804 
L 142.117665 227.950712 
L 147.926009 230.598711 
L 153.734353 232.969741 
L 159.542696 235.044629 
L 163.898954 236.396996 
L 168.255212 237.568817 
L 172.61147 238.556078 
L 176.967728 239.35593 
L 181.323986 239.966686 
L 185.680244 240.387825 
L 190.036502 240.619989 
L 194.39276 240.664983 
L 198.749018 240.525723 
L 203.105276 240.204753 
L 207.461534 239.705062 
L 211.817792 239.030548 
L 217.626136 237.867143 
L 223.43448 236.413451 
L 229.242824 234.683829 
L 235.051168 232.694584 
L 240.859512 230.463969 
L 246.667856 228.01219 
L 253.928286 224.670386 
L 261.188716 221.065217 
L 269.901232 216.451172 
L 280.065834 210.772383 
L 296.03878 201.526468 
L 310.559639 193.181111 
L 320.724241 187.603301 
L 327.984671 183.840777 
L 335.245101 180.314975 
L 342.505531 177.073275 
L 348.313875 174.712363 
L 354.122219 172.577921 
L 359.930563 170.685508 
L 365.738907 169.048076 
L 371.547251 167.675976 
L 377.355595 166.576953 
L 383.163939 165.756103 
L 388.972283 165.215803 
L 394.780627 164.95743 
L 400.588971 164.980341 
L 406.397315 165.281552 
L 412.205659 165.855735 
L 418.014003 166.695225 
L 423.822347 167.79001 
L 429.630691 169.127742 
L 435.439035 170.693727 
L 441.247379 172.470934 
L 448.507809 174.961763 
L 455.768238 177.725222 
L 463.028668 180.725596 
L 471.741184 184.584586 
L 481.905786 189.35524 
L 496.426646 196.450643 
L 515.303764 205.639592 
L 525.468366 210.324864 
L 534.180882 214.076976 
L 541.441312 216.967039 
L 548.701742 219.605407 
L 554.510086 221.514297 
L 560.31843 223.228612 
L 566.126774 224.735904 
L 571.935118 226.026823 
L 577.743462 227.093099 
L 583.551806 227.927344 
L 589.36015 228.524519 
L 595.168494 228.881927 
L 600.976837 228.999219 
L 606.785181 228.878391 
L 612.593525 228.523784 
L 618.401869 227.942085 
L 624.210213 227.142327 
L 630.018557 226.13534 
L 635.826901 224.929735 
L 643.087331 223.160474 
L 650.347761 221.123262 
L 657.608191 218.845574 
L 664.868621 216.357373 
L 673.581137 213.139514 
L 683.745739 209.14282 
L 698.266599 203.172041 
L 718.595803 194.811755 
L 728.760405 190.858535 
L 737.472921 187.687549 
L 746.185436 184.775524 
L 753.445866 182.583619 
L 760.706296 180.630827 
L 767.966726 178.940655 
L 773.77507 177.791126 
L 779.583414 176.830423 
L 785.391758 176.064492 
L 791.200102 175.497283 
L 797.008446 175.130757 
L 802.81679 174.964881 
L 808.625134 174.997631 
L 812.981392 175.15069 
L 812.981392 175.15069 
" clip-path="url(#p15a19f8567)" style="fill: none; stroke: #000000; stroke-opacity: 0.4; stroke-width: 6; stroke-linecap: square"/>
   </g>
   <g id="matplotlib.axis_3">
    <g id="xtick_7">
     <g id="line2d_15">
      <g>
       <use xlink:href="#mc5fbf6e7e2" x="88.390483" y="248.24" style="stroke: #000000; stroke-width: 0.8"/>
      </g>
     </g>
     <g id="text_5">
      <!-- 0 -->
      <g transform="translate(85.209233 262.838437) scale(0.1 -0.1)">
       <use xlink:href="#DejaVuSans-30"/>
      </g>
     </g>
    </g>
    <g id="xtick_8">
     <g id="line2d_16">
      <g>
       <use xlink:href="#mc5fbf6e7e2" x="233.308665" y="248.24" style="stroke: #000000; stroke-width: 0.8"/>
      </g>
     </g>
     <g id="text_6">
      <!-- 1 -->
      <g transform="translate(230.127415 262.838437) scale(0.1 -0.1)">
       <defs>
        <path id="DejaVuSans-31" d="M 794 531 
L 1825 531 
L 1825 4091 
L 703 3866 
L 703 4441 
L 1819 4666 
L 2450 4666 
L 2450 531 
L 3481 531 
L 3481 0 
L 794 0 
L 794 531 
z
" transform="scale(0.015625)"/>
       </defs>
       <use xlink:href="#DejaVuSans-31"/>
      </g>
     </g>
    </g>
    <g id="xtick_9">
     <g id="line2d_17">
      <g>
       <use xlink:href="#mc5fbf6e7e2" x="378.226847" y="248.24" style="stroke: #000000; stroke-width: 0.8"/>
      </g>
     </g>
     <g id="text_7">
      <!-- 2 -->
      <g transform="translate(375.045597 262.838437) scale(0.1 -0.1)">
       <defs>
        <path id="DejaVuSans-32" d="M 1228 531 
L 3431 531 
L 3431 0 
L 469 0 
L 469 531 
Q 828 903 1448 1529 
Q 2069 2156 2228 2338 
Q 2531 2678 2651 2914 
Q 2772 3150 2772 3378 
Q 2772 3750 2511 3984 
Q 2250 4219 1831 4219 
Q 1534 4219 1204 4116 
Q 875 4013 500 3803 
L 500 4441 
Q 881 4594 1212 4672 
Q 1544 4750 1819 4750 
Q 2544 4750 2975 4387 
Q 3406 4025 3406 3419 
Q 3406 3131 3298 2873 
Q 3191 2616 2906 2266 
Q 2828 2175 2409 1742 
Q 1991 1309 1228 531 
z
" transform="scale(0.015625)"/>
       </defs>
       <use xlink:href="#DejaVuSans-32"/>
      </g>
     </g>
    </g>
    <g id="xtick_10">
     <g id="line2d_18">
      <g>
       <use xlink:href="#mc5fbf6e7e2" x="523.145028" y="248.24" style="stroke: #000000; stroke-width: 0.8"/>
      </g>
     </g>
     <g id="text_8">
      <!-- 3 -->
      <g transform="translate(519.963778 262.838437) scale(0.1 -0.1)">
       <defs>
        <path id="DejaVuSans-33" d="M 2597 2516 
Q 3050 2419 3304 2112 
Q 3559 1806 3559 1356 
Q 3559 666 3084 287 
Q 2609 -91 1734 -91 
Q 1441 -91 1130 -33 
Q 819 25 488 141 
L 488 750 
Q 750 597 1062 519 
Q 1375 441 1716 441 
Q 2309 441 2620 675 
Q 2931 909 2931 1356 
Q 2931 1769 2642 2001 
Q 2353 2234 1838 2234 
L 1294 2234 
L 1294 2753 
L 1863 2753 
Q 2328 2753 2575 2939 
Q 2822 3125 2822 3475 
Q 2822 3834 2567 4026 
Q 2313 4219 1838 4219 
Q 1578 4219 1281 4162 
Q 984 4106 628 3988 
L 628 4550 
Q 988 4650 1302 4700 
Q 1616 4750 1894 4750 
Q 2613 4750 3031 4423 
Q 3450 4097 3450 3541 
Q 3450 3153 3228 2886 
Q 3006 2619 2597 2516 
z
" transform="scale(0.015625)"/>
       </defs>
       <use xlink:href="#DejaVuSans-33"/>
      </g>
     </g>
    </g>
    <g id="xtick_11">
     <g id="line2d_19">
      <g>
       <use xlink:href="#mc5fbf6e7e2" x="668.06321" y="248.24" style="stroke: #000000; stroke-width: 0.8"/>
      </g>
     </g>
     <g id="text_9">
      <!-- 4 -->
      <g transform="translate(664.88196 262.838437) scale(0.1 -0.1)">
       <defs>
        <path id="DejaVuSans-34" d="M 2419 4116 
L 825 1625 
L 2419 1625 
L 2419 4116 
z
M 2253 4666 
L 3047 4666 
L 3047 1625 
L 3713 1625 
L 3713 1100 
L 3047 1100 
L 3047 0 
L 2419 0 
L 2419 1100 
L 313 1100 
L 313 1709 
L 2253 4666 
z
" transform="scale(0.015625)"/>
       </defs>
       <use xlink:href="#DejaVuSans-34"/>
      </g>
     </g>
    </g>
    <g id="xtick_12">
     <g id="line2d_20">
      <g>
       <use xlink:href="#mc5fbf6e7e2" x="812.981392" y="248.24" style="stroke: #000000; stroke-width: 0.8"/>
      </g>
     </g>
     <g id="text_10">
      <!-- 5 -->
      <g transform="translate(809.800142 262.838437) scale(0.1 -0.1)">
       <use xlink:href="#DejaVuSans-35"/>
      </g>
     </g>
    </g>
    <g id="text_11">
     <!-- Time -->
     <g transform="translate(438.452344 276.516562) scale(0.1 -0.1)">
      <defs>
       <path id="DejaVuSans-54" d="M -19 4666 
L 3928 4666 
L 3928 4134 
L 2272 4134 
L 2272 0 
L 1638 0 
L 1638 4134 
L -19 4134 
L -19 4666 
z
" transform="scale(0.015625)"/>
       <path id="DejaVuSans-69" d="M 603 3500 
L 1178 3500 
L 1178 0 
L 603 0 
L 603 3500 
z
M 603 4863 
L 1178 4863 
L 1178 4134 
L 603 4134 
L 603 4863 
z
" transform="scale(0.015625)"/>
       <path id="DejaVuSans-6d" d="M 3328 2828 
Q 3544 3216 3844 3400 
Q 4144 3584 4550 3584 
Q 5097 3584 5394 3201 
Q 5691 2819 5691 2113 
L 5691 0 
L 5113 0 
L 5113 2094 
Q 5113 2597 4934 2840 
Q 4756 3084 4391 3084 
Q 3944 3084 3684 2787 
Q 3425 2491 3425 1978 
L 3425 0 
L 2847 0 
L 2847 2094 
Q 2847 2600 2669 2842 
Q 2491 3084 2119 3084 
Q 1678 3084 1418 2786 
Q 1159 2488 1159 1978 
L 1159 0 
L 581 0 
L 581 3500 
L 1159 3500 
L 1159 2956 
Q 1356 3278 1631 3431 
Q 1906 3584 2284 3584 
Q 2666 3584 2933 3390 
Q 3200 3197 3328 2828 
z
" transform="scale(0.015625)"/>
       <path id="DejaVuSans-65" d="M 3597 1894 
L 3597 1613 
L 953 1613 
Q 991 1019 1311 708 
Q 1631 397 2203 397 
Q 2534 397 2845 478 
Q 3156 559 3463 722 
L 3463 178 
Q 3153 47 2828 -22 
Q 2503 -91 2169 -91 
Q 1331 -91 842 396 
Q 353 884 353 1716 
Q 353 2575 817 3079 
Q 1281 3584 2069 3584 
Q 2775 3584 3186 3129 
Q 3597 2675 3597 1894 
z
M 3022 2063 
Q 3016 2534 2758 2815 
Q 2500 3097 2075 3097 
Q 1594 3097 1305 2825 
Q 1016 2553 972 2059 
L 3022 2063 
z
" transform="scale(0.015625)"/>
      </defs>
      <use xlink:href="#DejaVuSans-54"/>
      <use xlink:href="#DejaVuSans-69" transform="translate(57.958984 0)"/>
      <use xlink:href="#DejaVuSans-6d" transform="translate(85.742188 0)"/>
      <use xlink:href="#DejaVuSans-65" transform="translate(183.154297 0)"/>
     </g>
    </g>
   </g>
   <g id="matplotlib.axis_4">
    <g id="ytick_4">
     <g id="line2d_21">
      <g>
       <use xlink:href="#m0ea8387742" x="52.160938" y="224.284823" style="stroke: #000000; stroke-width: 0.8"/>
      </g>
     </g>
     <g id="text_12">
      <!-- −1 -->
      <g transform="translate(30.41875 228.084042) scale(0.1 -0.1)">
       <use xlink:href="#DejaVuSans-2212"/>
       <use xlink:href="#DejaVuSans-31" transform="translate(83.789062 0)"/>
      </g>
     </g>
    </g>
    <g id="ytick_5">
     <g id="line2d_22">
      <g>
       <use xlink:href="#m0ea8387742" x="52.160938" y="199.665332" style="stroke: #000000; stroke-width: 0.8"/>
      </g>
     </g>
     <g id="text_13">
      <!-- 0 -->
      <g transform="translate(38.798438 203.46455) scale(0.1 -0.1)">
       <use xlink:href="#DejaVuSans-30"/>
      </g>
     </g>
    </g>
    <g id="ytick_6">
     <g id="line2d_23">
      <g>
       <use xlink:href="#m0ea8387742" x="52.160938" y="175.045841" style="stroke: #000000; stroke-width: 0.8"/>
      </g>
     </g>
     <g id="text_14">
      <!-- 1 -->
      <g transform="translate(38.798438 178.845059) scale(0.1 -0.1)">
       <use xlink:href="#DejaVuSans-31"/>
      </g>
     </g>
    </g>
    <g id="text_15">
     <!-- $x1$ -->
     <g transform="translate(24.339063 205.815) rotate(-90) scale(0.1 -0.1)">
      <use xlink:href="#DejaVuSans-Oblique-78" transform="translate(0 0.09375)"/>
      <use xlink:href="#DejaVuSans-31" transform="translate(59.179688 0.09375)"/>
     </g>
    </g>
   </g>
   <g id="line2d_24">
    <path d="M 88.390483 194.741433 
L 114.528031 212.332431 
L 123.240547 217.880129 
L 130.500977 222.256878 
L 137.761407 226.350481 
L 143.569751 229.386753 
L 149.378095 232.18469 
L 155.186439 234.722306 
L 160.994782 236.979673 
L 166.803126 238.938956 
L 171.159384 240.203351 
L 175.515642 241.285574 
L 179.8719 242.180807 
L 184.228158 242.884991 
L 188.584416 243.394981 
L 192.940674 243.708496 
L 197.296932 243.824091 
L 201.65319 243.741291 
L 206.009448 243.460431 
L 210.365706 242.982792 
L 214.721964 242.31053 
L 219.078222 241.446629 
L 223.43448 240.395015 
L 227.790738 239.160383 
L 233.599082 237.239255 
L 239.407426 235.018171 
L 245.21577 232.515041 
L 251.024114 229.750155 
L 256.832458 226.745953 
L 262.640802 223.526632 
L 269.901232 219.23904 
L 277.161662 214.7081 
L 287.326264 208.062987 
L 303.299209 197.270622 
L 316.367983 188.518331 
L 325.080499 182.911907 
L 332.340929 178.465139 
L 339.601359 174.281711 
L 345.409703 171.159328 
L 351.218047 168.263515 
L 357.026391 165.617691 
L 362.834735 163.24334 
L 368.643079 161.159669 
L 372.999337 159.79786 
L 377.355595 158.615179 
L 381.711853 157.616928 
L 386.068111 156.807636 
L 390.424369 156.190895 
L 394.780627 155.769505 
L 399.136885 155.545352 
L 403.493143 155.519425 
L 407.849401 155.691881 
L 412.205659 156.061903 
L 416.561917 156.627854 
L 420.918175 157.387186 
L 425.274433 158.336469 
L 429.630691 159.471477 
L 433.986949 160.787077 
L 439.795293 162.811853 
L 445.603637 165.131078 
L 451.41198 167.726437 
L 457.220324 170.577553 
L 463.028668 173.661995 
L 470.289098 177.808106 
L 477.549528 182.228072 
L 486.262044 187.81465 
L 497.878732 195.57656 
L 522.564194 212.19024 
L 531.27671 217.744875 
L 538.53714 222.129287 
L 545.79757 226.232166 
L 551.605914 229.276922 
L 557.414258 232.084219 
L 563.222602 234.631993 
L 569.030946 236.900214 
L 574.83929 238.870979 
L 579.195548 240.144343 
L 583.551806 241.235818 
L 587.908064 242.140498 
L 592.264322 242.854345 
L 596.62058 243.374109 
L 600.976837 243.697493 
L 605.333095 243.823027 
L 609.689353 243.750141 
L 614.045611 243.479189 
L 618.401869 243.011349 
L 622.758127 242.348756 
L 627.114385 241.494376 
L 631.470643 240.452038 
L 635.826901 239.226457 
L 641.635245 237.316905 
L 647.443589 235.106767 
L 653.251933 232.613866 
L 659.060277 229.858415 
L 664.868621 226.862778 
L 670.676965 223.651079 
L 677.937395 219.371628 
L 685.197825 214.847196 
L 693.910341 209.173324 
L 706.979115 200.375217 
L 724.404147 188.661641 
L 733.116663 183.048967 
L 740.377093 178.595122 
L 747.637522 174.403018 
L 753.445866 171.27261 
L 759.25421 168.367847 
L 765.062554 165.712233 
L 770.870898 163.327335 
L 776.679242 161.232442 
L 781.0355 159.861809 
L 785.391758 158.670031 
L 789.748016 157.662447 
L 794.104274 156.843584 
L 798.460532 156.217149 
L 802.81679 155.785915 
L 807.173048 155.551862 
L 811.529306 155.516013 
L 812.981392 155.548163 
L 812.981392 155.548163 
" clip-path="url(#p15a19f8567)" style="fill: none; stroke-dasharray: 22.4,5.6,3.5,5.6; stroke-dashoffset: 0; stroke: #0000ff; stroke-opacity: 0.8; stroke-width: 3.5"/>
   </g>
   <g id="patch_8">
    <path d="M 52.160938 248.24 
L 52.160938 151.09 
" style="fill: none; stroke: #000000; stroke-width: 0.8; stroke-linejoin: miter; stroke-linecap: square"/>
   </g>
   <g id="patch_9">
    <path d="M 849.210937 248.24 
L 849.210937 151.09 
" style="fill: none; stroke: #000000; stroke-width: 0.8; stroke-linejoin: miter; stroke-linecap: square"/>
   </g>
   <g id="patch_10">
    <path d="M 52.160938 248.24 
L 849.210938 248.24 
" style="fill: none; stroke: #000000; stroke-width: 0.8; stroke-linejoin: miter; stroke-linecap: square"/>
   </g>
   <g id="patch_11">
    <path d="M 52.160938 151.09 
L 849.210938 151.09 
" style="fill: none; stroke: #000000; stroke-width: 0.8; stroke-linejoin: miter; stroke-linecap: square"/>
   </g>
   <g id="line2d_25">
    <path d="M 88.390483 194.741433 
L 100.007171 202.687255 
L 108.719687 208.371395 
L 117.432203 213.75359 
L 124.692633 217.995218 
L 131.953063 222.007116 
L 139.213493 225.767535 
L 145.021837 228.566477 
L 150.830181 231.145647 
L 156.638524 233.468523 
L 162.446868 235.498145 
L 166.803126 236.80801 
L 171.159384 237.923416 
L 175.515642 238.836258 
L 179.8719 239.542007 
L 184.228158 240.039128 
L 188.584416 240.329382 
L 192.940674 240.41721 
L 197.296932 240.309257 
L 201.65319 240.013969 
L 206.009448 239.540735 
L 211.817792 238.649845 
L 217.626136 237.482096 
L 223.43448 236.056629 
L 229.242824 234.388563 
L 235.051168 232.489146 
L 240.859512 230.367144 
L 246.667856 228.030962 
L 252.4762 225.49085 
L 259.73663 222.05047 
L 266.99706 218.350744 
L 275.709576 213.637469 
L 287.326264 207.053554 
L 310.559639 193.79156 
L 319.272155 189.071997 
L 327.984671 184.6079 
L 335.245101 181.128162 
L 342.505531 177.904118 
L 348.313875 175.532549 
L 354.122219 173.365152 
L 359.930563 171.419719 
L 365.738907 169.713216 
L 371.547251 168.261114 
L 377.355595 167.076741 
L 383.163939 166.170557 
L 388.972283 165.549457 
L 394.780627 165.216149 
L 400.588971 165.168783 
L 406.397315 165.401209 
L 412.205659 165.903739 
L 418.014003 166.66439 
L 423.822347 167.670327 
L 429.630691 168.909189 
L 435.439035 170.369846 
L 441.247379 172.042456 
L 447.055723 173.917818 
L 454.316152 176.532142 
L 461.576582 179.424217 
L 468.837012 182.561997 
L 477.549528 186.591834 
L 489.166216 192.264928 
L 515.303764 205.170375 
L 525.468366 209.877913 
L 534.180882 213.660193 
L 541.441312 216.596135 
L 548.701742 219.30602 
L 555.962172 221.761584 
L 561.770516 223.523823 
L 567.57886 225.090918 
L 573.387204 226.449506 
L 579.195548 227.587578 
L 585.003892 228.495004 
L 590.812236 229.164028 
L 596.62058 229.58974 
L 602.428923 229.770293 
L 608.237267 229.706944 
L 614.045611 229.403791 
L 619.853955 228.867293 
L 625.662299 228.105615 
L 631.470643 227.127952 
L 637.278987 225.944014 
L 643.087331 224.563795 
L 650.347761 222.578292 
L 657.608191 220.324063 
L 664.868621 217.825971 
L 672.129051 215.113278 
L 680.841567 211.623382 
L 691.006169 207.315066 
L 730.212491 190.424896 
L 738.925007 187.035592 
L 747.637522 183.90428 
L 754.897952 181.526339 
L 762.158382 179.385923 
L 769.418812 177.50655 
L 775.227156 176.205636 
L 781.0355 175.095799 
L 786.843844 174.185999 
L 792.652188 173.483729 
L 798.460532 172.99464 
L 804.268876 172.722228 
L 810.07722 172.667622 
L 812.981392 172.721686 
L 812.981392 172.721686 
" clip-path="url(#p15a19f8567)" style="fill: none; stroke-dasharray: 3.5,5.775; stroke-dashoffset: 0; stroke: #008000; stroke-opacity: 0.8; stroke-width: 3.5"/>
   </g>
   <g id="line2d_26">
    <path d="M 88.390483 194.741433 
L 105.815515 206.572591 
L 114.528031 212.232156 
L 121.788461 216.720585 
L 129.048891 220.944734 
L 134.857235 224.100377 
L 140.665579 227.03183 
L 146.473923 229.717815 
L 152.282267 232.1392 
L 158.09061 234.279141 
L 163.898954 236.123184 
L 168.255212 237.304738 
L 172.61147 238.308999 
L 176.967728 239.132661 
L 181.323986 239.773304 
L 185.680244 240.229336 
L 190.036502 240.499966 
L 194.39276 240.585315 
L 198.749018 240.486259 
L 203.105276 240.204548 
L 207.461534 239.742731 
L 211.817792 239.104111 
L 216.17405 238.292827 
L 221.982394 236.950978 
L 227.790738 235.324311 
L 233.599082 233.428457 
L 239.407426 231.281036 
L 245.21577 228.901509 
L 251.024114 226.311004 
L 258.284544 222.810766 
L 265.544974 219.063269 
L 274.25749 214.309709 
L 285.874178 207.682914 
L 312.011725 192.621903 
L 320.724241 187.874179 
L 327.984671 184.125992 
L 335.245101 180.614631 
L 342.505531 177.381027 
L 348.313875 175.019132 
L 354.122219 172.875716 
L 359.930563 170.965841 
L 365.738907 169.302574 
L 371.547251 167.896868 
L 377.355595 166.757537 
L 383.163939 165.891184 
L 388.972283 165.302184 
L 394.780627 164.992663 
L 400.588971 164.962476 
L 406.397315 165.209266 
L 412.205659 165.728485 
L 418.014003 166.513466 
L 423.822347 167.555487 
L 429.630691 168.843835 
L 435.439035 170.365948 
L 441.247379 172.107513 
L 447.055723 174.052608 
L 454.316152 176.743553 
L 461.576582 179.688374 
L 470.289098 183.501387 
L 480.4537 188.242881 
L 493.522474 194.616676 
L 515.303764 205.26548 
L 525.468366 209.966424 
L 534.180882 213.739832 
L 541.441312 216.65448 
L 548.701742 219.323946 
L 555.962172 221.717873 
L 561.770516 223.416625 
L 567.57886 224.910201 
L 573.387204 226.188598 
L 579.195548 227.243628 
L 585.003892 228.068955 
L 590.812236 228.660123 
L 596.62058 229.014607 
L 602.428923 229.131783 
L 608.237267 229.012927 
L 614.045611 228.661178 
L 619.853955 228.0815 
L 625.662299 227.280642 
L 631.470643 226.267048 
L 637.278987 225.050781 
L 643.087331 223.643421 
L 650.347761 221.63542 
L 657.608191 219.377449 
L 664.868621 216.900499 
L 673.581137 213.686209 
L 683.745739 209.680316 
L 698.266599 203.674061 
L 720.047889 194.648551 
L 730.212491 190.674556 
L 738.925007 187.490145 
L 747.637522 184.567795 
L 754.897952 182.367941 
L 762.158382 180.408802 
L 769.418812 178.711952 
L 775.227156 177.555577 
L 781.0355 176.586246 
L 786.843844 175.809953 
L 792.652188 175.231094 
L 798.460532 174.852439 
L 804.268876 174.675146 
L 810.07722 174.698757 
L 812.981392 174.785322 
L 812.981392 174.785322 
" clip-path="url(#p15a19f8567)" style="fill: none; stroke-dasharray: 12.95,5.6; stroke-dashoffset: 0; stroke: #ff0000; stroke-opacity: 0.8; stroke-width: 3.5"/>
   </g>
  </g>
  <g id="text_16">
   <!-- State Variable Simulation Comparison -->
   <g transform="translate(276.303437 20.1175) scale(0.16 -0.16)">
    <defs>
     <path id="DejaVuSans-53" d="M 3425 4513 
L 3425 3897 
Q 3066 4069 2747 4153 
Q 2428 4238 2131 4238 
Q 1616 4238 1336 4038 
Q 1056 3838 1056 3469 
Q 1056 3159 1242 3001 
Q 1428 2844 1947 2747 
L 2328 2669 
Q 3034 2534 3370 2195 
Q 3706 1856 3706 1288 
Q 3706 609 3251 259 
Q 2797 -91 1919 -91 
Q 1588 -91 1214 -16 
Q 841 59 441 206 
L 441 856 
Q 825 641 1194 531 
Q 1563 422 1919 422 
Q 2459 422 2753 634 
Q 3047 847 3047 1241 
Q 3047 1584 2836 1778 
Q 2625 1972 2144 2069 
L 1759 2144 
Q 1053 2284 737 2584 
Q 422 2884 422 3419 
Q 422 4038 858 4394 
Q 1294 4750 2059 4750 
Q 2388 4750 2728 4690 
Q 3069 4631 3425 4513 
z
" transform="scale(0.015625)"/>
     <path id="DejaVuSans-74" d="M 1172 4494 
L 1172 3500 
L 2356 3500 
L 2356 3053 
L 1172 3053 
L 1172 1153 
Q 1172 725 1289 603 
Q 1406 481 1766 481 
L 2356 481 
L 2356 0 
L 1766 0 
Q 1100 0 847 248 
Q 594 497 594 1153 
L 594 3053 
L 172 3053 
L 172 3500 
L 594 3500 
L 594 4494 
L 1172 4494 
z
" transform="scale(0.015625)"/>
     <path id="DejaVuSans-61" d="M 2194 1759 
Q 1497 1759 1228 1600 
Q 959 1441 959 1056 
Q 959 750 1161 570 
Q 1363 391 1709 391 
Q 2188 391 2477 730 
Q 2766 1069 2766 1631 
L 2766 1759 
L 2194 1759 
z
M 3341 1997 
L 3341 0 
L 2766 0 
L 2766 531 
Q 2569 213 2275 61 
Q 1981 -91 1556 -91 
Q 1019 -91 701 211 
Q 384 513 384 1019 
Q 384 1609 779 1909 
Q 1175 2209 1959 2209 
L 2766 2209 
L 2766 2266 
Q 2766 2663 2505 2880 
Q 2244 3097 1772 3097 
Q 1472 3097 1187 3025 
Q 903 2953 641 2809 
L 641 3341 
Q 956 3463 1253 3523 
Q 1550 3584 1831 3584 
Q 2591 3584 2966 3190 
Q 3341 2797 3341 1997 
z
" transform="scale(0.015625)"/>
     <path id="DejaVuSans-20" transform="scale(0.015625)"/>
     <path id="DejaVuSans-56" d="M 1831 0 
L 50 4666 
L 709 4666 
L 2188 738 
L 3669 4666 
L 4325 4666 
L 2547 0 
L 1831 0 
z
" transform="scale(0.015625)"/>
     <path id="DejaVuSans-72" d="M 2631 2963 
Q 2534 3019 2420 3045 
Q 2306 3072 2169 3072 
Q 1681 3072 1420 2755 
Q 1159 2438 1159 1844 
L 1159 0 
L 581 0 
L 581 3500 
L 1159 3500 
L 1159 2956 
Q 1341 3275 1631 3429 
Q 1922 3584 2338 3584 
Q 2397 3584 2469 3576 
Q 2541 3569 2628 3553 
L 2631 2963 
z
" transform="scale(0.015625)"/>
     <path id="DejaVuSans-62" d="M 3116 1747 
Q 3116 2381 2855 2742 
Q 2594 3103 2138 3103 
Q 1681 3103 1420 2742 
Q 1159 2381 1159 1747 
Q 1159 1113 1420 752 
Q 1681 391 2138 391 
Q 2594 391 2855 752 
Q 3116 1113 3116 1747 
z
M 1159 2969 
Q 1341 3281 1617 3432 
Q 1894 3584 2278 3584 
Q 2916 3584 3314 3078 
Q 3713 2572 3713 1747 
Q 3713 922 3314 415 
Q 2916 -91 2278 -91 
Q 1894 -91 1617 61 
Q 1341 213 1159 525 
L 1159 0 
L 581 0 
L 581 4863 
L 1159 4863 
L 1159 2969 
z
" transform="scale(0.015625)"/>
     <path id="DejaVuSans-6c" d="M 603 4863 
L 1178 4863 
L 1178 0 
L 603 0 
L 603 4863 
z
" transform="scale(0.015625)"/>
     <path id="DejaVuSans-75" d="M 544 1381 
L 544 3500 
L 1119 3500 
L 1119 1403 
Q 1119 906 1312 657 
Q 1506 409 1894 409 
Q 2359 409 2629 706 
Q 2900 1003 2900 1516 
L 2900 3500 
L 3475 3500 
L 3475 0 
L 2900 0 
L 2900 538 
Q 2691 219 2414 64 
Q 2138 -91 1772 -91 
Q 1169 -91 856 284 
Q 544 659 544 1381 
z
M 1991 3584 
L 1991 3584 
z
" transform="scale(0.015625)"/>
     <path id="DejaVuSans-6f" d="M 1959 3097 
Q 1497 3097 1228 2736 
Q 959 2375 959 1747 
Q 959 1119 1226 758 
Q 1494 397 1959 397 
Q 2419 397 2687 759 
Q 2956 1122 2956 1747 
Q 2956 2369 2687 2733 
Q 2419 3097 1959 3097 
z
M 1959 3584 
Q 2709 3584 3137 3096 
Q 3566 2609 3566 1747 
Q 3566 888 3137 398 
Q 2709 -91 1959 -91 
Q 1206 -91 779 398 
Q 353 888 353 1747 
Q 353 2609 779 3096 
Q 1206 3584 1959 3584 
z
" transform="scale(0.015625)"/>
     <path id="DejaVuSans-6e" d="M 3513 2113 
L 3513 0 
L 2938 0 
L 2938 2094 
Q 2938 2591 2744 2837 
Q 2550 3084 2163 3084 
Q 1697 3084 1428 2787 
Q 1159 2491 1159 1978 
L 1159 0 
L 581 0 
L 581 3500 
L 1159 3500 
L 1159 2956 
Q 1366 3272 1645 3428 
Q 1925 3584 2291 3584 
Q 2894 3584 3203 3211 
Q 3513 2838 3513 2113 
z
" transform="scale(0.015625)"/>
     <path id="DejaVuSans-43" d="M 4122 4306 
L 4122 3641 
Q 3803 3938 3442 4084 
Q 3081 4231 2675 4231 
Q 1875 4231 1450 3742 
Q 1025 3253 1025 2328 
Q 1025 1406 1450 917 
Q 1875 428 2675 428 
Q 3081 428 3442 575 
Q 3803 722 4122 1019 
L 4122 359 
Q 3791 134 3420 21 
Q 3050 -91 2638 -91 
Q 1578 -91 968 557 
Q 359 1206 359 2328 
Q 359 3453 968 4101 
Q 1578 4750 2638 4750 
Q 3056 4750 3426 4639 
Q 3797 4528 4122 4306 
z
" transform="scale(0.015625)"/>
     <path id="DejaVuSans-70" d="M 1159 525 
L 1159 -1331 
L 581 -1331 
L 581 3500 
L 1159 3500 
L 1159 2969 
Q 1341 3281 1617 3432 
Q 1894 3584 2278 3584 
Q 2916 3584 3314 3078 
Q 3713 2572 3713 1747 
Q 3713 922 3314 415 
Q 2916 -91 2278 -91 
Q 1894 -91 1617 61 
Q 1341 213 1159 525 
z
M 3116 1747 
Q 3116 2381 2855 2742 
Q 2594 3103 2138 3103 
Q 1681 3103 1420 2742 
Q 1159 2381 1159 1747 
Q 1159 1113 1420 752 
Q 1681 391 2138 391 
Q 2594 391 2855 752 
Q 3116 1113 3116 1747 
z
" transform="scale(0.015625)"/>
     <path id="DejaVuSans-73" d="M 2834 3397 
L 2834 2853 
Q 2591 2978 2328 3040 
Q 2066 3103 1784 3103 
Q 1356 3103 1142 2972 
Q 928 2841 928 2578 
Q 928 2378 1081 2264 
Q 1234 2150 1697 2047 
L 1894 2003 
Q 2506 1872 2764 1633 
Q 3022 1394 3022 966 
Q 3022 478 2636 193 
Q 2250 -91 1575 -91 
Q 1294 -91 989 -36 
Q 684 19 347 128 
L 347 722 
Q 666 556 975 473 
Q 1284 391 1588 391 
Q 1994 391 2212 530 
Q 2431 669 2431 922 
Q 2431 1156 2273 1281 
Q 2116 1406 1581 1522 
L 1381 1569 
Q 847 1681 609 1914 
Q 372 2147 372 2553 
Q 372 3047 722 3315 
Q 1072 3584 1716 3584 
Q 2034 3584 2315 3537 
Q 2597 3491 2834 3397 
z
" transform="scale(0.015625)"/>
    </defs>
    <use xlink:href="#DejaVuSans-53"/>
    <use xlink:href="#DejaVuSans-74" transform="translate(63.476562 0)"/>
    <use xlink:href="#DejaVuSans-61" transform="translate(102.685547 0)"/>
    <use xlink:href="#DejaVuSans-74" transform="translate(163.964844 0)"/>
    <use xlink:href="#DejaVuSans-65" transform="translate(203.173828 0)"/>
    <use xlink:href="#DejaVuSans-20" transform="translate(264.697266 0)"/>
    <use xlink:href="#DejaVuSans-56" transform="translate(296.484375 0)"/>
    <use xlink:href="#DejaVuSans-61" transform="translate(357.142578 0)"/>
    <use xlink:href="#DejaVuSans-72" transform="translate(418.421875 0)"/>
    <use xlink:href="#DejaVuSans-69" transform="translate(459.535156 0)"/>
    <use xlink:href="#DejaVuSans-61" transform="translate(487.318359 0)"/>
    <use xlink:href="#DejaVuSans-62" transform="translate(548.597656 0)"/>
    <use xlink:href="#DejaVuSans-6c" transform="translate(612.074219 0)"/>
    <use xlink:href="#DejaVuSans-65" transform="translate(639.857422 0)"/>
    <use xlink:href="#DejaVuSans-20" transform="translate(701.380859 0)"/>
    <use xlink:href="#DejaVuSans-53" transform="translate(733.167969 0)"/>
    <use xlink:href="#DejaVuSans-69" transform="translate(796.644531 0)"/>
    <use xlink:href="#DejaVuSans-6d" transform="translate(824.427734 0)"/>
    <use xlink:href="#DejaVuSans-75" transform="translate(921.839844 0)"/>
    <use xlink:href="#DejaVuSans-6c" transform="translate(985.21875 0)"/>
    <use xlink:href="#DejaVuSans-61" transform="translate(1013.001953 0)"/>
    <use xlink:href="#DejaVuSans-74" transform="translate(1074.28125 0)"/>
    <use xlink:href="#DejaVuSans-69" transform="translate(1113.490234 0)"/>
    <use xlink:href="#DejaVuSans-6f" transform="translate(1141.273438 0)"/>
    <use xlink:href="#DejaVuSans-6e" transform="translate(1202.455078 0)"/>
    <use xlink:href="#DejaVuSans-20" transform="translate(1265.833984 0)"/>
    <use xlink:href="#DejaVuSans-43" transform="translate(1297.621094 0)"/>
    <use xlink:href="#DejaVuSans-6f" transform="translate(1367.445312 0)"/>
    <use xlink:href="#DejaVuSans-6d" transform="translate(1428.626953 0)"/>
    <use xlink:href="#DejaVuSans-70" transform="translate(1526.039062 0)"/>
    <use xlink:href="#DejaVuSans-61" transform="translate(1589.515625 0)"/>
    <use xlink:href="#DejaVuSans-72" transform="translate(1650.794922 0)"/>
    <use xlink:href="#DejaVuSans-69" transform="translate(1691.908203 0)"/>
    <use xlink:href="#DejaVuSans-73" transform="translate(1719.691406 0)"/>
    <use xlink:href="#DejaVuSans-6f" transform="translate(1771.791016 0)"/>
    <use xlink:href="#DejaVuSans-6e" transform="translate(1832.972656 0)"/>
   </g>
  </g>
  <g id="legend_1">
   <g id="patch_12">
    <path d="M 744.139063 66.7125 
L 855.210938 66.7125 
Q 857.210938 66.7125 857.210938 64.7125 
L 857.210938 7 
Q 857.210938 5 855.210938 5 
L 744.139063 5 
Q 742.139063 5 742.139063 7 
L 742.139063 64.7125 
Q 742.139063 66.7125 744.139063 66.7125 
z
" style="fill: #ffffff; opacity: 0.5; stroke: #cccccc; stroke-linejoin: miter"/>
   </g>
   <g id="line2d_27">
    <path d="M 746.139063 13.098437 
L 756.139063 13.098437 
L 766.139063 13.098437 
" style="fill: none; stroke: #000000; stroke-opacity: 0.4; stroke-width: 6; stroke-linecap: square"/>
   </g>
   <g id="text_17">
    <!-- True Trajectory -->
    <g transform="translate(774.139063 16.598437) scale(0.1 -0.1)">
     <defs>
      <path id="DejaVuSans-6a" d="M 603 3500 
L 1178 3500 
L 1178 -63 
Q 1178 -731 923 -1031 
Q 669 -1331 103 -1331 
L -116 -1331 
L -116 -844 
L 38 -844 
Q 366 -844 484 -692 
Q 603 -541 603 -63 
L 603 3500 
z
M 603 4863 
L 1178 4863 
L 1178 4134 
L 603 4134 
L 603 4863 
z
" transform="scale(0.015625)"/>
      <path id="DejaVuSans-63" d="M 3122 3366 
L 3122 2828 
Q 2878 2963 2633 3030 
Q 2388 3097 2138 3097 
Q 1578 3097 1268 2742 
Q 959 2388 959 1747 
Q 959 1106 1268 751 
Q 1578 397 2138 397 
Q 2388 397 2633 464 
Q 2878 531 3122 666 
L 3122 134 
Q 2881 22 2623 -34 
Q 2366 -91 2075 -91 
Q 1284 -91 818 406 
Q 353 903 353 1747 
Q 353 2603 823 3093 
Q 1294 3584 2113 3584 
Q 2378 3584 2631 3529 
Q 2884 3475 3122 3366 
z
" transform="scale(0.015625)"/>
      <path id="DejaVuSans-79" d="M 2059 -325 
Q 1816 -950 1584 -1140 
Q 1353 -1331 966 -1331 
L 506 -1331 
L 506 -850 
L 844 -850 
Q 1081 -850 1212 -737 
Q 1344 -625 1503 -206 
L 1606 56 
L 191 3500 
L 800 3500 
L 1894 763 
L 2988 3500 
L 3597 3500 
L 2059 -325 
z
" transform="scale(0.015625)"/>
     </defs>
     <use xlink:href="#DejaVuSans-54"/>
     <use xlink:href="#DejaVuSans-72" transform="translate(46.333984 0)"/>
     <use xlink:href="#DejaVuSans-75" transform="translate(87.447266 0)"/>
     <use xlink:href="#DejaVuSans-65" transform="translate(150.826172 0)"/>
     <use xlink:href="#DejaVuSans-20" transform="translate(212.349609 0)"/>
     <use xlink:href="#DejaVuSans-54" transform="translate(244.136719 0)"/>
     <use xlink:href="#DejaVuSans-72" transform="translate(290.470703 0)"/>
     <use xlink:href="#DejaVuSans-61" transform="translate(331.583984 0)"/>
     <use xlink:href="#DejaVuSans-6a" transform="translate(392.863281 0)"/>
     <use xlink:href="#DejaVuSans-65" transform="translate(420.646484 0)"/>
     <use xlink:href="#DejaVuSans-63" transform="translate(482.169922 0)"/>
     <use xlink:href="#DejaVuSans-74" transform="translate(537.150391 0)"/>
     <use xlink:href="#DejaVuSans-6f" transform="translate(576.359375 0)"/>
     <use xlink:href="#DejaVuSans-72" transform="translate(637.541016 0)"/>
     <use xlink:href="#DejaVuSans-79" transform="translate(678.654297 0)"/>
    </g>
   </g>
   <g id="line2d_28">
    <path d="M 746.139063 27.776562 
L 756.139063 27.776562 
L 766.139063 27.776562 
" style="fill: none; stroke-dasharray: 12.95,5.6; stroke-dashoffset: 0; stroke: #ff0000; stroke-opacity: 0.8; stroke-width: 3.5"/>
   </g>
   <g id="text_18">
    <!-- AutoSINDy -->
    <g transform="translate(774.139063 31.276562) scale(0.1 -0.1)">
     <defs>
      <path id="DejaVuSans-41" d="M 2188 4044 
L 1331 1722 
L 3047 1722 
L 2188 4044 
z
M 1831 4666 
L 2547 4666 
L 4325 0 
L 3669 0 
L 3244 1197 
L 1141 1197 
L 716 0 
L 50 0 
L 1831 4666 
z
" transform="scale(0.015625)"/>
      <path id="DejaVuSans-49" d="M 628 4666 
L 1259 4666 
L 1259 0 
L 628 0 
L 628 4666 
z
" transform="scale(0.015625)"/>
      <path id="DejaVuSans-4e" d="M 628 4666 
L 1478 4666 
L 3547 763 
L 3547 4666 
L 4159 4666 
L 4159 0 
L 3309 0 
L 1241 3903 
L 1241 0 
L 628 0 
L 628 4666 
z
" transform="scale(0.015625)"/>
      <path id="DejaVuSans-44" d="M 1259 4147 
L 1259 519 
L 2022 519 
Q 2988 519 3436 956 
Q 3884 1394 3884 2338 
Q 3884 3275 3436 3711 
Q 2988 4147 2022 4147 
L 1259 4147 
z
M 628 4666 
L 1925 4666 
Q 3281 4666 3915 4102 
Q 4550 3538 4550 2338 
Q 4550 1131 3912 565 
Q 3275 0 1925 0 
L 628 0 
L 628 4666 
z
" transform="scale(0.015625)"/>
     </defs>
     <use xlink:href="#DejaVuSans-41"/>
     <use xlink:href="#DejaVuSans-75" transform="translate(68.408203 0)"/>
     <use xlink:href="#DejaVuSans-74" transform="translate(131.787109 0)"/>
     <use xlink:href="#DejaVuSans-6f" transform="translate(170.996094 0)"/>
     <use xlink:href="#DejaVuSans-53" transform="translate(232.177734 0)"/>
     <use xlink:href="#DejaVuSans-49" transform="translate(295.654297 0)"/>
     <use xlink:href="#DejaVuSans-4e" transform="translate(325.146484 0)"/>
     <use xlink:href="#DejaVuSans-44" transform="translate(399.951172 0)"/>
     <use xlink:href="#DejaVuSans-79" transform="translate(476.953125 0)"/>
    </g>
   </g>
   <g id="line2d_29">
    <path d="M 746.139063 42.454687 
L 756.139063 42.454687 
L 766.139063 42.454687 
" style="fill: none; stroke-dasharray: 3.5,5.775; stroke-dashoffset: 0; stroke: #008000; stroke-opacity: 0.8; stroke-width: 3.5"/>
   </g>
   <g id="text_19">
    <!-- Standard SINDy -->
    <g transform="translate(774.139063 45.954687) scale(0.1 -0.1)">
     <defs>
      <path id="DejaVuSans-64" d="M 2906 2969 
L 2906 4863 
L 3481 4863 
L 3481 0 
L 2906 0 
L 2906 525 
Q 2725 213 2448 61 
Q 2172 -91 1784 -91 
Q 1150 -91 751 415 
Q 353 922 353 1747 
Q 353 2572 751 3078 
Q 1150 3584 1784 3584 
Q 2172 3584 2448 3432 
Q 2725 3281 2906 2969 
z
M 947 1747 
Q 947 1113 1208 752 
Q 1469 391 1925 391 
Q 2381 391 2643 752 
Q 2906 1113 2906 1747 
Q 2906 2381 2643 2742 
Q 2381 3103 1925 3103 
Q 1469 3103 1208 2742 
Q 947 2381 947 1747 
z
" transform="scale(0.015625)"/>
     </defs>
     <use xlink:href="#DejaVuSans-53"/>
     <use xlink:href="#DejaVuSans-74" transform="translate(63.476562 0)"/>
     <use xlink:href="#DejaVuSans-61" transform="translate(102.685547 0)"/>
     <use xlink:href="#DejaVuSans-6e" transform="translate(163.964844 0)"/>
     <use xlink:href="#DejaVuSans-64" transform="translate(227.34375 0)"/>
     <use xlink:href="#DejaVuSans-61" transform="translate(290.820312 0)"/>
     <use xlink:href="#DejaVuSans-72" transform="translate(352.099609 0)"/>
     <use xlink:href="#DejaVuSans-64" transform="translate(391.462891 0)"/>
     <use xlink:href="#DejaVuSans-20" transform="translate(454.939453 0)"/>
     <use xlink:href="#DejaVuSans-53" transform="translate(486.726562 0)"/>
     <use xlink:href="#DejaVuSans-49" transform="translate(550.203125 0)"/>
     <use xlink:href="#DejaVuSans-4e" transform="translate(579.695312 0)"/>
     <use xlink:href="#DejaVuSans-44" transform="translate(654.5 0)"/>
     <use xlink:href="#DejaVuSans-79" transform="translate(731.501953 0)"/>
    </g>
   </g>
   <g id="line2d_30">
    <path d="M 746.139063 57.132812 
L 756.139063 57.132812 
L 766.139063 57.132812 
" style="fill: none; stroke-dasharray: 22.4,5.6,3.5,5.6; stroke-dashoffset: 0; stroke: #0000ff; stroke-opacity: 0.8; stroke-width: 3.5"/>
   </g>
   <g id="text_20">
    <!-- Standard PySR -->
    <g transform="translate(774.139063 60.632812) scale(0.1 -0.1)">
     <defs>
      <path id="DejaVuSans-50" d="M 1259 4147 
L 1259 2394 
L 2053 2394 
Q 2494 2394 2734 2622 
Q 2975 2850 2975 3272 
Q 2975 3691 2734 3919 
Q 2494 4147 2053 4147 
L 1259 4147 
z
M 628 4666 
L 2053 4666 
Q 2838 4666 3239 4311 
Q 3641 3956 3641 3272 
Q 3641 2581 3239 2228 
Q 2838 1875 2053 1875 
L 1259 1875 
L 1259 0 
L 628 0 
L 628 4666 
z
" transform="scale(0.015625)"/>
      <path id="DejaVuSans-52" d="M 2841 2188 
Q 3044 2119 3236 1894 
Q 3428 1669 3622 1275 
L 4263 0 
L 3584 0 
L 2988 1197 
Q 2756 1666 2539 1819 
Q 2322 1972 1947 1972 
L 1259 1972 
L 1259 0 
L 628 0 
L 628 4666 
L 2053 4666 
Q 2853 4666 3247 4331 
Q 3641 3997 3641 3322 
Q 3641 2881 3436 2590 
Q 3231 2300 2841 2188 
z
M 1259 4147 
L 1259 2491 
L 2053 2491 
Q 2509 2491 2742 2702 
Q 2975 2913 2975 3322 
Q 2975 3731 2742 3939 
Q 2509 4147 2053 4147 
L 1259 4147 
z
" transform="scale(0.015625)"/>
     </defs>
     <use xlink:href="#DejaVuSans-53"/>
     <use xlink:href="#DejaVuSans-74" transform="translate(63.476562 0)"/>
     <use xlink:href="#DejaVuSans-61" transform="translate(102.685547 0)"/>
     <use xlink:href="#DejaVuSans-6e" transform="translate(163.964844 0)"/>
     <use xlink:href="#DejaVuSans-64" transform="translate(227.34375 0)"/>
     <use xlink:href="#DejaVuSans-61" transform="translate(290.820312 0)"/>
     <use xlink:href="#DejaVuSans-72" transform="translate(352.099609 0)"/>
     <use xlink:href="#DejaVuSans-64" transform="translate(391.462891 0)"/>
     <use xlink:href="#DejaVuSans-20" transform="translate(454.939453 0)"/>
     <use xlink:href="#DejaVuSans-50" transform="translate(486.726562 0)"/>
     <use xlink:href="#DejaVuSans-79" transform="translate(547.029297 0)"/>
     <use xlink:href="#DejaVuSans-53" transform="translate(606.208984 0)"/>
     <use xlink:href="#DejaVuSans-52" transform="translate(669.685547 0)"/>
    </g>
   </g>
  </g>
 </g>
 <defs>
  <clipPath id="p13f12a375a">
   <rect x="52.160938" y="39.64" width="797.05" height="97.15"/>
  </clipPath>
  <clipPath id="p15a19f8567">
   <rect x="52.160938" y="151.09" width="797.05" height="97.15"/>
  </clipPath>
 </defs>
</svg>
