<?xml version="1.0" encoding="utf-8" standalone="no"?>
<!DOCTYPE svg PUBLIC "-//W3C//DTD SVG 1.1//EN"
  "http://www.w3.org/Graphics/SVG/1.1/DTD/svg11.dtd">
<svg xmlns:xlink="http://www.w3.org/1999/xlink" width="568.237808pt" height="567.994375pt" viewBox="0 0 568.237808 567.994375" xmlns="http://www.w3.org/2000/svg" version="1.1">
 <metadata>
  <rdf:RDF xmlns:dc="http://purl.org/dc/elements/1.1/" xmlns:cc="http://creativecommons.org/ns#" xmlns:rdf="http://www.w3.org/1999/02/22-rdf-syntax-ns#">
   <cc:Work>
    <dc:type rdf:resource="http://purl.org/dc/dcmitype/StillImage"/>
    <dc:date>2026-04-03T20:56:21.087193</dc:date>
    <dc:format>image/svg+xml</dc:format>
    <dc:creator>
     <cc:Agent>
      <dc:title>Matplotlib v3.10.7, https://matplotlib.org/</dc:title>
     </cc:Agent>
    </dc:creator>
   </cc:Work>
  </rdf:RDF>
 </metadata>
 <defs>
  <style type="text/css">*{stroke-linejoin: round; stroke-linecap: butt}</style>
 </defs>
 <g id="figure_1">
  <g id="patch_1">
   <path d="M 0 567.994375 
L 568.237808 567.994375 
L 568.237808 0 
L 0 0 
z
" style="fill: #ffffff"/>
  </g>
  <g id="axes_1">
   <g id="patch_2">
    <path d="M 52.160938 530.438125 
L 554.651239 530.438125 
L 554.651239 22.318125 
L 52.160938 22.318125 
z
" style="fill: #ffffff"/>
   </g>
   <g id="matplotlib.axis_1">
    <g id="xtick_1">
     <g id="line2d_1">
      <defs>
       <path id="m0416dc1c76" d="M 0 0 
L 0 3.5 
" style="stroke: #000000; stroke-width: 0.8"/>
      </defs>
      <g>
       <use xlink:href="#m0416dc1c76" x="53.719492" y="530.438125" style="stroke: #000000; stroke-width: 0.8"/>
      </g>
     </g>
     <g id="text_1">
      <!-- −0.6 -->
      <g transform="translate(41.578085 545.036562) scale(0.1 -0.1)">
       <defs>
        <path id="DejaVuSans-2212" d="M 678 2272 
L 4684 2272 
L 4684 1741 
L 678 1741 
L 678 2272 
z
" transform="scale(0.015625)"/>
        <path id="DejaVuSans-30" d="M 2034 4250 
Q 1547 4250 1301 3770 
Q 1056 3291 1056 2328 
Q 1056 1369 1301 889 
Q 1547 409 2034 409 
Q 2525 409 2770 889 
Q 3016 1369 3016 2328 
Q 3016 3291 2770 3770 
Q 2525 4250 2034 4250 
z
M 2034 4750 
Q 2819 4750 3233 4129 
Q 3647 3509 3647 2328 
Q 3647 1150 3233 529 
Q 2819 -91 2034 -91 
Q 1250 -91 836 529 
Q 422 1150 422 2328 
Q 422 3509 836 4129 
Q 1250 4750 2034 4750 
z
" transform="scale(0.015625)"/>
        <path id="DejaVuSans-2e" d="M 684 794 
L 1344 794 
L 1344 0 
L 684 0 
L 684 794 
z
" transform="scale(0.015625)"/>
        <path id="DejaVuSans-36" d="M 2113 2584 
Q 1688 2584 1439 2293 
Q 1191 2003 1191 1497 
Q 1191 994 1439 701 
Q 1688 409 2113 409 
Q 2538 409 2786 701 
Q 3034 994 3034 1497 
Q 3034 2003 2786 2293 
Q 2538 2584 2113 2584 
z
M 3366 4563 
L 3366 3988 
Q 3128 4100 2886 4159 
Q 2644 4219 2406 4219 
Q 1781 4219 1451 3797 
Q 1122 3375 1075 2522 
Q 1259 2794 1537 2939 
Q 1816 3084 2150 3084 
Q 2853 3084 3261 2657 
Q 3669 2231 3669 1497 
Q 3669 778 3244 343 
Q 2819 -91 2113 -91 
Q 1303 -91 875 529 
Q 447 1150 447 2328 
Q 447 3434 972 4092 
Q 1497 4750 2381 4750 
Q 2619 4750 2861 4703 
Q 3103 4656 3366 4563 
z
" transform="scale(0.015625)"/>
       </defs>
       <use xlink:href="#DejaVuSans-2212"/>
       <use xlink:href="#DejaVuSans-30" transform="translate(83.789062 0)"/>
       <use xlink:href="#DejaVuSans-2e" transform="translate(147.412109 0)"/>
       <use xlink:href="#DejaVuSans-36" transform="translate(179.199219 0)"/>
      </g>
     </g>
    </g>
    <g id="xtick_2">
     <g id="line2d_2">
      <g>
       <use xlink:href="#m0416dc1c76" x="136.947284" y="530.438125" style="stroke: #000000; stroke-width: 0.8"/>
      </g>
     </g>
     <g id="text_2">
      <!-- −0.4 -->
      <g transform="translate(124.805878 545.036562) scale(0.1 -0.1)">
       <defs>
        <path id="DejaVuSans-34" d="M 2419 4116 
L 825 1625 
L 2419 1625 
L 2419 4116 
z
M 2253 4666 
L 3047 4666 
L 3047 1625 
L 3713 1625 
L 3713 1100 
L 3047 1100 
L 3047 0 
L 2419 0 
L 2419 1100 
L 313 1100 
L 313 1709 
L 2253 4666 
z
" transform="scale(0.015625)"/>
       </defs>
       <use xlink:href="#DejaVuSans-2212"/>
       <use xlink:href="#DejaVuSans-30" transform="translate(83.789062 0)"/>
       <use xlink:href="#DejaVuSans-2e" transform="translate(147.412109 0)"/>
       <use xlink:href="#DejaVuSans-34" transform="translate(179.199219 0)"/>
      </g>
     </g>
    </g>
    <g id="xtick_3">
     <g id="line2d_3">
      <g>
       <use xlink:href="#m0416dc1c76" x="220.175076" y="530.438125" style="stroke: #000000; stroke-width: 0.8"/>
      </g>
     </g>
     <g id="text_3">
      <!-- −0.2 -->
      <g transform="translate(208.03367 545.036562) scale(0.1 -0.1)">
       <defs>
        <path id="DejaVuSans-32" d="M 1228 531 
L 3431 531 
L 3431 0 
L 469 0 
L 469 531 
Q 828 903 1448 1529 
Q 2069 2156 2228 2338 
Q 2531 2678 2651 2914 
Q 2772 3150 2772 3378 
Q 2772 3750 2511 3984 
Q 2250 4219 1831 4219 
Q 1534 4219 1204 4116 
Q 875 4013 500 3803 
L 500 4441 
Q 881 4594 1212 4672 
Q 1544 4750 1819 4750 
Q 2544 4750 2975 4387 
Q 3406 4025 3406 3419 
Q 3406 3131 3298 2873 
Q 3191 2616 2906 2266 
Q 2828 2175 2409 1742 
Q 1991 1309 1228 531 
z
" transform="scale(0.015625)"/>
       </defs>
       <use xlink:href="#DejaVuSans-2212"/>
       <use xlink:href="#DejaVuSans-30" transform="translate(83.789062 0)"/>
       <use xlink:href="#DejaVuSans-2e" transform="translate(147.412109 0)"/>
       <use xlink:href="#DejaVuSans-32" transform="translate(179.199219 0)"/>
      </g>
     </g>
    </g>
    <g id="xtick_4">
     <g id="line2d_4">
      <g>
       <use xlink:href="#m0416dc1c76" x="303.402869" y="530.438125" style="stroke: #000000; stroke-width: 0.8"/>
      </g>
     </g>
     <g id="text_4">
      <!-- 0.0 -->
      <g transform="translate(295.451306 545.036562) scale(0.1 -0.1)">
       <use xlink:href="#DejaVuSans-30"/>
       <use xlink:href="#DejaVuSans-2e" transform="translate(63.623047 0)"/>
       <use xlink:href="#DejaVuSans-30" transform="translate(95.410156 0)"/>
      </g>
     </g>
    </g>
    <g id="xtick_5">
     <g id="line2d_5">
      <g>
       <use xlink:href="#m0416dc1c76" x="386.630661" y="530.438125" style="stroke: #000000; stroke-width: 0.8"/>
      </g>
     </g>
     <g id="text_5">
      <!-- 0.2 -->
      <g transform="translate(378.679098 545.036562) scale(0.1 -0.1)">
       <use xlink:href="#DejaVuSans-30"/>
       <use xlink:href="#DejaVuSans-2e" transform="translate(63.623047 0)"/>
       <use xlink:href="#DejaVuSans-32" transform="translate(95.410156 0)"/>
      </g>
     </g>
    </g>
    <g id="xtick_6">
     <g id="line2d_6">
      <g>
       <use xlink:href="#m0416dc1c76" x="469.858453" y="530.438125" style="stroke: #000000; stroke-width: 0.8"/>
      </g>
     </g>
     <g id="text_6">
      <!-- 0.4 -->
      <g transform="translate(461.906891 545.036562) scale(0.1 -0.1)">
       <use xlink:href="#DejaVuSans-30"/>
       <use xlink:href="#DejaVuSans-2e" transform="translate(63.623047 0)"/>
       <use xlink:href="#DejaVuSans-34" transform="translate(95.410156 0)"/>
      </g>
     </g>
    </g>
    <g id="xtick_7">
     <g id="line2d_7">
      <g>
       <use xlink:href="#m0416dc1c76" x="553.086246" y="530.438125" style="stroke: #000000; stroke-width: 0.8"/>
      </g>
     </g>
     <g id="text_7">
      <!-- 0.6 -->
      <g transform="translate(545.134683 545.036562) scale(0.1 -0.1)">
       <use xlink:href="#DejaVuSans-30"/>
       <use xlink:href="#DejaVuSans-2e" transform="translate(63.623047 0)"/>
       <use xlink:href="#DejaVuSans-36" transform="translate(95.410156 0)"/>
      </g>
     </g>
    </g>
    <g id="text_8">
     <!-- x0 -->
     <g transform="translate(297.265463 558.714687) scale(0.1 -0.1)">
      <defs>
       <path id="DejaVuSans-78" d="M 3513 3500 
L 2247 1797 
L 3578 0 
L 2900 0 
L 1881 1375 
L 863 0 
L 184 0 
L 1544 1831 
L 300 3500 
L 978 3500 
L 1906 2253 
L 2834 3500 
L 3513 3500 
z
" transform="scale(0.015625)"/>
      </defs>
      <use xlink:href="#DejaVuSans-78"/>
      <use xlink:href="#DejaVuSans-30" transform="translate(59.179688 0)"/>
     </g>
    </g>
   </g>
   <g id="matplotlib.axis_2">
    <g id="ytick_1">
     <g id="line2d_8">
      <defs>
       <path id="maaba01b673" d="M 0 0 
L -3.5 0 
" style="stroke: #000000; stroke-width: 0.8"/>
      </defs>
      <g>
       <use xlink:href="#maaba01b673" x="52.160938" y="463.963037" style="stroke: #000000; stroke-width: 0.8"/>
      </g>
     </g>
     <g id="text_9">
      <!-- −1.0 -->
      <g transform="translate(20.878125 467.762256) scale(0.1 -0.1)">
       <defs>
        <path id="DejaVuSans-31" d="M 794 531 
L 1825 531 
L 1825 4091 
L 703 3866 
L 703 4441 
L 1819 4666 
L 2450 4666 
L 2450 531 
L 3481 531 
L 3481 0 
L 794 0 
L 794 531 
z
" transform="scale(0.015625)"/>
       </defs>
       <use xlink:href="#DejaVuSans-2212"/>
       <use xlink:href="#DejaVuSans-31" transform="translate(83.789062 0)"/>
       <use xlink:href="#DejaVuSans-2e" transform="translate(147.412109 0)"/>
       <use xlink:href="#DejaVuSans-30" transform="translate(179.199219 0)"/>
      </g>
     </g>
    </g>
    <g id="ytick_2">
     <g id="line2d_9">
      <g>
       <use xlink:href="#maaba01b673" x="52.160938" y="368.894047" style="stroke: #000000; stroke-width: 0.8"/>
      </g>
     </g>
     <g id="text_10">
      <!-- −0.5 -->
      <g transform="translate(20.878125 372.693266) scale(0.1 -0.1)">
       <defs>
        <path id="DejaVuSans-35" d="M 691 4666 
L 3169 4666 
L 3169 4134 
L 1269 4134 
L 1269 2991 
Q 1406 3038 1543 3061 
Q 1681 3084 1819 3084 
Q 2600 3084 3056 2656 
Q 3513 2228 3513 1497 
Q 3513 744 3044 326 
Q 2575 -91 1722 -91 
Q 1428 -91 1123 -41 
Q 819 9 494 109 
L 494 744 
Q 775 591 1075 516 
Q 1375 441 1709 441 
Q 2250 441 2565 725 
Q 2881 1009 2881 1497 
Q 2881 1984 2565 2268 
Q 2250 2553 1709 2553 
Q 1456 2553 1204 2497 
Q 953 2441 691 2322 
L 691 4666 
z
" transform="scale(0.015625)"/>
       </defs>
       <use xlink:href="#DejaVuSans-2212"/>
       <use xlink:href="#DejaVuSans-30" transform="translate(83.789062 0)"/>
       <use xlink:href="#DejaVuSans-2e" transform="translate(147.412109 0)"/>
       <use xlink:href="#DejaVuSans-35" transform="translate(179.199219 0)"/>
      </g>
     </g>
    </g>
    <g id="ytick_3">
     <g id="line2d_10">
      <g>
       <use xlink:href="#maaba01b673" x="52.160938" y="273.825056" style="stroke: #000000; stroke-width: 0.8"/>
      </g>
     </g>
     <g id="text_11">
      <!-- 0.0 -->
      <g transform="translate(29.257812 277.624275) scale(0.1 -0.1)">
       <use xlink:href="#DejaVuSans-30"/>
       <use xlink:href="#DejaVuSans-2e" transform="translate(63.623047 0)"/>
       <use xlink:href="#DejaVuSans-30" transform="translate(95.410156 0)"/>
      </g>
     </g>
    </g>
    <g id="ytick_4">
     <g id="line2d_11">
      <g>
       <use xlink:href="#maaba01b673" x="52.160938" y="178.756066" style="stroke: #000000; stroke-width: 0.8"/>
      </g>
     </g>
     <g id="text_12">
      <!-- 0.5 -->
      <g transform="translate(29.257812 182.555285) scale(0.1 -0.1)">
       <use xlink:href="#DejaVuSans-30"/>
       <use xlink:href="#DejaVuSans-2e" transform="translate(63.623047 0)"/>
       <use xlink:href="#DejaVuSans-35" transform="translate(95.410156 0)"/>
      </g>
     </g>
    </g>
    <g id="ytick_5">
     <g id="line2d_12">
      <g>
       <use xlink:href="#maaba01b673" x="52.160938" y="83.687076" style="stroke: #000000; stroke-width: 0.8"/>
      </g>
     </g>
     <g id="text_13">
      <!-- 1.0 -->
      <g transform="translate(29.257812 87.486295) scale(0.1 -0.1)">
       <use xlink:href="#DejaVuSans-31"/>
       <use xlink:href="#DejaVuSans-2e" transform="translate(63.623047 0)"/>
       <use xlink:href="#DejaVuSans-30" transform="translate(95.410156 0)"/>
      </g>
     </g>
    </g>
    <g id="text_14">
     <!-- x1 -->
     <g transform="translate(14.798438 282.51875) rotate(-90) scale(0.1 -0.1)">
      <use xlink:href="#DejaVuSans-78"/>
      <use xlink:href="#DejaVuSans-31" transform="translate(59.179688 0)"/>
     </g>
    </g>
   </g>
   <g id="line2d_13">
    <path d="M 511.472349 178.756066 
L 513.494579 184.466406 
L 515.39171 190.164448 
L 517.164044 195.847465 
L 518.81194 201.512768 
L 520.335814 207.157703 
L 521.736142 212.779657 
L 523.013455 218.376052 
L 524.168325 223.944567 
L 525.20134 229.483697 
L 526.113249 234.990887 
L 526.904856 240.463475 
L 527.577004 245.898864 
L 528.130577 251.294517 
L 528.566497 256.647959 
L 528.885729 261.956777 
L 529.089273 267.21862 
L 529.178171 272.431197 
L 529.153506 277.592281 
L 529.016398 282.699705 
L 528.768008 287.751365 
L 528.409536 292.745217 
L 527.942223 297.679281 
L 527.367348 302.551638 
L 526.686231 307.360428 
L 525.900231 312.103857 
L 525.010746 316.780189 
L 524.019215 321.387752 
L 522.927115 325.924936 
L 521.735964 330.39019 
L 520.447319 334.782027 
L 519.062778 339.099022 
L 517.583976 343.33981 
L 516.01259 347.503089 
L 514.350335 351.587617 
L 512.598968 355.592217 
L 510.760282 359.515771 
L 508.836113 363.357222 
L 506.828334 367.115578 
L 504.738861 370.789906 
L 500.322682 377.883057 
L 495.603682 384.630452 
L 490.598599 391.026855 
L 485.323256 397.067467 
L 479.788407 402.745606 
L 474.010821 408.056419 
L 468.007939 412.996108 
L 461.797028 417.56169 
L 455.395179 421.750997 
L 448.819305 425.562678 
L 442.086145 428.996196 
L 435.21226 432.051829 
L 428.214034 434.730672 
L 421.107678 437.034634 
L 413.909223 438.966439 
L 406.634526 440.529628 
L 399.299268 441.728557 
L 391.918952 442.568397 
L 384.508907 443.055134 
L 377.084282 443.19557 
L 369.660055 442.997322 
L 362.251022 442.468823 
L 354.871808 441.619321 
L 347.535162 440.455452 
L 340.253501 438.982441 
L 333.041361 437.209969 
L 325.912673 435.147952 
L 318.880741 432.806517 
L 311.958252 430.196002 
L 305.157268 427.326956 
L 298.489229 424.210137 
L 291.964954 420.856514 
L 285.594638 417.277268 
L 279.387855 413.483788 
L 273.353557 409.487675 
L 267.500074 405.300741 
L 261.835113 400.935006 
L 256.365758 396.402704 
L 251.098473 391.716277 
L 246.039098 386.888378 
L 241.192852 381.931871 
L 236.564332 376.85983 
L 232.158057 371.68408 
L 227.979478 366.414381 
L 224.032821 361.063898 
L 220.3217 355.645671 
L 216.84917 350.172433 
L 213.617727 344.65661 
L 210.629309 339.110318 
L 207.885292 333.545366 
L 205.386497 327.973254 
L 203.133183 322.405173 
L 201.125051 316.852007 
L 199.361243 311.324332 
L 197.840341 305.832414 
L 196.560371 300.386212 
L 195.518796 294.995377 
L 194.712522 289.669251 
L 194.137897 284.416868 
L 193.790707 279.246954 
L 193.666182 274.167925 
L 193.761068 269.187033 
L 194.07245 264.31179 
L 194.595074 259.550624 
L 195.323483 254.911466 
L 196.252023 250.401745 
L 197.374842 246.028389 
L 198.685889 241.797828 
L 200.178914 237.715988 
L 201.847471 233.788296 
L 203.684915 230.019678 
L 205.684402 226.414561 
L 207.83889 222.976868 
L 210.141141 219.710024 
L 212.583715 216.616953 
L 215.158977 213.700078 
L 217.859093 210.961321 
L 220.676029 208.402103 
L 223.601556 206.023347 
L 226.627245 203.825472 
L 229.744468 201.808398 
L 232.944712 199.971727 
L 236.222887 198.317034 
L 239.571202 196.84465 
L 242.980873 195.553983 
L 246.443312 194.444131 
L 249.950126 193.513881 
L 253.493115 192.761706 
L 257.064275 192.185766 
L 260.655796 191.783913 
L 264.260063 191.553682 
L 267.869656 191.492299 
L 271.477349 191.596677 
L 275.076111 191.863417 
L 278.659106 192.288808 
L 282.219692 192.868827 
L 285.751422 193.599137 
L 290.981289 194.96615 
L 296.111928 196.643788 
L 301.124047 198.613471 
L 305.999386 200.85522 
L 310.722098 203.355089 
L 315.275045 206.096 
L 319.641378 209.057328 
L 323.805897 212.21857 
L 327.75505 215.559345 
L 331.476935 219.059394 
L 334.961295 222.698578 
L 338.199522 226.456881 
L 341.184657 230.314409 
L 343.911388 234.251389 
L 346.376052 238.24817 
L 348.576633 242.285222 
L 350.512763 246.343137 
L 352.185602 250.402723 
L 353.593653 254.447655 
L 354.737047 258.460329 
L 355.618447 262.422746 
L 356.241494 266.318 
L 356.610812 270.130271 
L 356.732007 273.844831 
L 356.611664 277.448039 
L 356.257351 280.927345 
L 355.677616 284.271289 
L 354.88199 287.469499 
L 353.880984 290.512693 
L 352.686089 293.392681 
L 351.308139 296.101963 
L 349.757066 298.63291 
L 348.045561 300.978974 
L 346.186406 303.134707 
L 344.192426 305.095752 
L 342.076484 306.858847 
L 339.851481 308.421817 
L 337.53036 309.783582 
L 335.126099 310.944155 
L 332.651718 311.904639 
L 330.120277 312.667229 
L 327.544873 313.235213 
L 324.938298 313.612597 
L 322.31164 313.801967 
L 319.677815 313.807941 
L 317.049536 313.636029 
L 314.438864 313.292234 
L 311.004994 312.577764 
L 307.647907 311.586089 
L 304.390811 310.335527 
L 301.254866 308.845952 
L 298.259179 307.138798 
L 295.420805 305.237058 
L 292.754832 303.164038 
L 290.275688 300.940298 
L 287.996713 298.590358 
L 285.92891 296.138541 
L 284.080914 293.608462 
L 282.458988 291.023028 
L 281.067026 288.404437 
L 279.906552 285.77418 
L 278.976718 283.153041 
L 278.274308 280.561094 
L 277.795405 278.016593 
L 277.536522 275.53711 
L 277.491037 273.141164 
L 277.651123 270.845434 
L 278.007784 268.66473 
L 278.550855 266.611981 
L 279.269003 264.698248 
L 280.149728 262.932712 
L 281.179358 261.322683 
L 282.343055 259.873597 
L 283.625044 258.589231 
L 285.011741 257.474564 
L 286.488604 256.532334 
L 288.040472 255.763209 
L 289.652254 255.166431 
L 290.062799 255.043941 
L 290.062799 255.043941 
" clip-path="url(#p9454441b44)" style="fill: none; stroke: #000000; stroke-opacity: 0.3; stroke-width: 7; stroke-linecap: square"/>
   </g>
   <g id="line2d_14">
    <path d="M 511.472349 178.756066 
L 513.506113 183.423969 
L 515.437021 188.136127 
L 517.264162 192.890224 
L 518.986541 197.683964 
L 520.60338 202.514978 
L 522.113923 207.380891 
L 523.51741 212.279328 
L 524.813157 217.207893 
L 526.000443 222.16419 
L 527.078757 227.145777 
L 528.047606 232.150207 
L 528.906493 237.175038 
L 529.655003 242.217811 
L 530.29268 247.276065 
L 530.819285 252.347315 
L 531.234593 257.429075 
L 531.53838 262.518862 
L 531.7305 267.614186 
L 531.810771 272.71255 
L 531.779227 277.811458 
L 531.635917 282.908414 
L 531.380889 288.000925 
L 531.014271 293.086501 
L 530.536155 298.162638 
L 529.946848 303.22686 
L 529.246672 308.276693 
L 528.435947 313.309662 
L 527.515073 318.323308 
L 526.484415 323.315153 
L 525.344551 328.282771 
L 524.09607 333.223736 
L 522.739561 338.135627 
L 521.275691 343.016043 
L 519.705093 347.862561 
L 518.028609 352.672835 
L 516.247088 357.444522 
L 514.36138 362.175277 
L 512.372412 366.86279 
L 510.281078 371.504724 
L 508.088471 376.098841 
L 505.795693 380.642905 
L 503.403845 385.134682 
L 500.914102 389.57198 
L 498.327606 393.952573 
L 495.645695 398.274361 
L 492.869714 402.535245 
L 490.001006 406.733125 
L 487.040999 410.865956 
L 483.991059 414.931652 
L 480.852796 418.928276 
L 477.627824 422.853893 
L 474.31776 426.706569 
L 470.924359 430.484436 
L 467.449208 434.185571 
L 463.89437 437.808237 
L 460.261914 441.350705 
L 452.772729 448.188211 
L 444.999887 454.684786 
L 436.966579 460.828521 
L 428.698703 466.608211 
L 420.227839 472.014045 
L 411.591791 477.037996 
L 402.83261 481.67315 
L 393.999166 485.915608 
L 385.142223 489.762868 
L 376.313534 493.215086 
L 367.560989 496.274776 
L 358.928697 498.946052 
L 350.445076 501.235248 
L 342.130181 503.149337 
L 333.986679 504.696056 
L 326.000924 505.882663 
L 318.148504 506.716051 
L 310.388518 507.20085 
L 302.675012 507.340492 
L 294.956651 507.135839 
L 287.183197 506.585387 
L 279.306977 505.685919 
L 271.294122 504.431711 
L 263.118322 502.816226 
L 254.770654 500.831845 
L 246.258078 498.471109 
L 237.598915 495.726721 
L 228.829333 492.593305 
L 219.991368 489.066528 
L 211.134816 485.144541 
L 202.311333 480.827819 
L 193.572384 476.118583 
L 184.963956 471.022135 
L 176.528947 465.544947 
L 168.303168 459.695709 
L 160.316885 453.484516 
L 152.596455 446.922474 
L 148.842475 443.513797 
L 145.162637 440.022151 
L 141.559229 436.449193 
L 138.0344 432.796622 
L 134.589972 429.066267 
L 131.227766 425.259958 
L 127.94959 421.379535 
L 124.757167 417.426875 
L 121.652158 413.403885 
L 118.636046 409.312576 
L 115.710312 405.154962 
L 112.876426 400.933064 
L 110.135809 396.648933 
L 107.48985 392.304645 
L 104.939782 387.902364 
L 102.486838 383.444254 
L 100.132236 378.932486 
L 97.877157 374.369255 
L 95.722745 369.756781 
L 93.669988 365.09735 
L 91.719873 360.393251 
L 89.873372 355.646777 
L 88.131418 350.86024 
L 86.494904 346.035975 
L 84.964561 341.176364 
L 83.541121 336.283792 
L 82.225298 331.360646 
L 81.017769 326.409328 
L 79.919162 321.432257 
L 78.929945 316.431885 
L 78.050584 311.41066 
L 77.281528 306.371037 
L 76.623188 301.315476 
L 76.075921 296.246454 
L 75.639924 291.166458 
L 75.315394 286.077975 
L 75.102508 280.983492 
L 75.001406 275.885504 
L 75.01217 270.786508 
L 75.134725 265.689001 
L 75.368994 260.595475 
L 75.714881 255.508423 
L 76.172253 250.430338 
L 76.740917 245.363714 
L 77.420525 240.311022 
L 78.210729 235.274731 
L 79.111159 230.257308 
L 80.121413 225.261217 
L 81.241024 220.288913 
L 82.469376 215.342814 
L 83.805852 210.425336 
L 85.249816 205.538889 
L 86.8006 200.685877 
L 88.457469 195.86869 
L 90.219545 191.089659 
L 92.085954 186.351119 
L 94.055797 181.655394 
L 96.12815 177.004799 
L 98.302018 172.401626 
L 100.576275 167.848097 
L 102.949796 163.346433 
L 105.421438 158.898843 
L 107.990026 154.507528 
L 110.654321 150.174652 
L 113.412968 145.9023 
L 116.264615 141.692553 
L 119.207896 137.547481 
L 122.241409 133.469142 
L 125.363696 129.459547 
L 128.573245 125.520618 
L 131.868545 121.65428 
L 135.248104 117.862438 
L 138.710358 114.146987 
L 142.253758 110.509763 
L 145.876883 106.952523 
L 149.578311 103.477024 
L 153.356707 100.085013 
L 157.210636 96.778211 
L 161.13887 93.55829 
L 165.140658 90.42688 
L 169.215249 87.385611 
L 173.362036 84.436118 
L 177.580414 81.579999 
L 181.870243 78.818838 
L 186.232099 76.154254 
L 190.666558 73.587862 
L 195.17425 71.121296 
L 199.756153 68.756172 
L 204.413615 66.49415 
L 209.148157 64.336974 
L 213.961299 62.286389 
L 218.85428 60.34414 
L 223.82903 58.512024 
L 228.886873 56.791896 
L 234.027698 55.185605 
L 239.251398 53.695004 
L 244.557224 52.321884 
L 249.944778 51.068177 
L 255.411606 49.935725 
L 260.952461 48.926102 
L 266.562094 48.04088 
L 272.234751 47.281505 
L 277.96382 46.649547 
L 283.740551 46.146211 
L 289.554369 45.772165 
L 295.394701 45.528081 
L 301.251144 45.414489 
L 307.111742 45.431877 
L 312.964604 45.580205 
L 318.798893 45.8589 
L 324.603771 46.267386 
L 330.369094 46.805005 
L 336.084113 47.470908 
L 341.740389 48.263838 
L 347.33217 49.182274 
L 352.853707 50.224692 
L 358.299823 51.389554 
L 363.666053 52.675143 
L 368.950187 54.07962 
L 374.151816 55.601137 
L 379.270531 57.237847 
L 384.306054 58.98792 
L 389.259047 60.849465 
L 394.130837 62.820652 
L 398.922941 64.899721 
L 403.636873 67.084915 
L 408.274 69.374488 
L 412.836062 71.766725 
L 417.324314 74.259971 
L 421.739447 76.852605 
L 426.082154 79.543002 
L 430.352962 82.329534 
L 434.552298 85.210617 
L 438.679968 88.184658 
L 442.735308 91.250033 
L 446.717655 94.405119 
L 450.626271 97.648272 
L 454.460223 100.977874 
L 458.218281 104.39224 
L 461.899051 107.889628 
L 465.501141 111.468292 
L 469.023153 115.126466 
L 472.463578 118.862387 
L 475.820883 122.674209 
L 479.093549 126.560021 
L 482.280061 130.517915 
L 485.378924 134.54596 
L 488.388608 138.642219 
L 491.307671 142.804675 
L 494.134741 147.031259 
L 496.868448 151.319897 
L 499.507456 155.668501 
L 502.050415 160.074972 
L 504.496096 164.537144 
L 506.843354 169.052805 
L 509.091044 173.619743 
L 511.238059 178.235731 
L 513.283282 182.898534 
L 515.225729 187.605861 
L 517.064503 192.355386 
L 518.798708 197.144784 
L 520.427485 201.971717 
L 521.94997 206.833841 
L 523.365435 211.728767 
L 524.673245 216.654084 
L 525.87276 221.607382 
L 526.963386 226.586243 
L 527.944516 231.588238 
L 528.815694 236.610914 
L 529.576548 241.651803 
L 530.226708 246.708438 
L 530.765847 251.77835 
L 531.193628 256.859058 
L 531.509865 261.948072 
L 531.714461 267.042899 
L 531.807317 272.141045 
L 531.788376 277.240019 
L 531.657577 282.337318 
L 531.415008 287.430448 
L 531.060844 292.516919 
L 530.59526 297.594241 
L 530.018472 302.659933 
L 529.330692 307.711501 
L 528.532283 312.746473 
L 527.623689 317.762397 
L 526.605357 322.756816 
L 525.477775 327.727288 
L 524.241423 332.671359 
L 522.896935 337.586612 
L 521.445022 342.470659 
L 519.886393 347.32111 
L 518.221803 352.13559 
L 516.451996 356.911712 
L 514.577868 361.647149 
L 512.600387 366.339603 
L 510.520519 370.986779 
L 508.339274 375.5864 
L 506.057652 380.136178 
L 503.6768 384.633898 
L 501.197932 389.077387 
L 498.62226 393.464467 
L 495.951043 397.792992 
L 493.18552 402.060796 
L 490.327083 406.265808 
L 487.377192 410.406002 
L 484.337309 414.479352 
L 481.208957 418.483864 
L 477.993593 422.417523 
L 474.692903 426.27843 
L 471.308673 430.064737 
L 467.842689 433.774599 
L 464.296867 437.406214 
L 460.672943 440.95774 
L 453.19986 447.813854 
L 445.442923 454.330016 
L 437.42312 460.493725 
L 429.167689 466.294094 
L 420.707534 471.721206 
L 412.079116 476.766526 
L 403.326039 481.423901 
L 394.495318 485.688242 
L 385.638269 489.557711 
L 376.806437 493.0321 
L 368.049452 496.113531 
L 359.407704 498.806567 
L 350.916534 501.11692 
L 342.591634 503.051865 
L 334.438093 504.618908 
L 326.445367 505.82567 
L 318.585234 506.678447 
L 310.821718 507.182878 
L 303.106964 507.341761 
L 295.39034 507.156344 
L 287.62043 506.625514 
L 279.752677 505.74556 
L 271.7468 504.511497 
L 263.580971 502.91641 
L 255.243474 500.952953 
L 246.738404 498.613371 
L 238.088018 495.890877 
L 229.32287 492.779186 
L 220.48755 489.274589 
L 211.63069 485.374834 
L 202.804279 481.07998 
L 194.058632 476.392894 
L 185.442339 471.317789 
L 176.996397 465.861793 
L 168.757869 460.03318 
L 160.757852 453.841885 
L 153.02149 447.299306 
L 149.259454 443.899994 
L 145.571359 440.417509 
L 141.959328 436.853564 
L 138.425485 433.209871 
L 134.971852 429.488189 
L 131.60039 425.690276 
L 128.312792 421.818024 
L 125.110701 417.873352 
L 121.995759 413.858181 
L 118.969546 409.774467 
L 116.033643 405.624162 
L 113.18945 401.409332 
L 110.438331 397.132062 
L 107.78165 392.79444 
L 105.220714 388.398582 
L 102.756857 383.946603 
L 100.391232 379.440711 
L 98.124961 374.883131 
L 95.959165 370.276087 
L 93.894904 365.621829 
L 91.933272 360.922607 
L 90.075172 356.180745 
L 88.321475 351.398578 
L 86.673052 346.578442 
L 85.13071 341.722691 
L 83.69529 336.833684 
L 82.367435 331.913829 
L 81.147755 326.965546 
L 80.03686 321.991253 
L 79.035296 316.99338 
L 78.143639 311.974363 
L 77.362264 306.936671 
L 76.691514 301.882774 
L 76.13173 296.815144 
L 75.683189 291.736256 
L 75.346197 286.648598 
L 75.120856 281.554662 
L 75.007236 276.456944 
L 75.005408 271.357938 
L 75.115374 266.260135 
L 75.337168 261.166041 
L 75.670616 256.078145 
L 76.115516 250.998935 
L 76.671666 245.930897 
L 77.338795 240.876509 
L 78.116662 235.838263 
L 79.004823 230.818616 
L 80.002803 225.820017 
L 81.110131 220.844914 
L 82.326266 215.895739 
L 83.650696 210.974945 
L 85.082709 206.084921 
L 86.621568 201.228049 
L 88.266534 196.406711 
L 90.016806 191.623263 
L 91.871605 186.880085 
L 93.829962 182.179473 
L 95.890883 177.523713 
L 98.053376 172.915089 
L 100.316385 168.355855 
L 102.678876 163.848288 
L 105.139634 159.394562 
L 107.697424 154.996839 
L 110.351012 150.657279 
L 113.09911 146.378003 
L 115.940431 142.161162 
L 118.87355 138.008779 
L 121.897024 133.922866 
L 125.009411 129.905435 
L 128.209251 125.958453 
L 131.495016 122.083911 
L 134.865187 118.283667 
L 138.318243 114.559565 
L 141.852666 110.913451 
L 145.467027 107.347129 
L 149.159665 103.862407 
L 152.92934 100.460983 
L 156.774848 97.144545 
L 160.694986 93.914783 
L 164.688661 90.773367 
L 168.755051 87.721922 
L 172.893617 84.762061 
L 172.893617 84.762061 
" clip-path="url(#p9454441b44)" style="fill: none; stroke-dasharray: 22.4,5.6,3.5,5.6; stroke-dashoffset: 0; stroke: #0000ff; stroke-opacity: 0.8; stroke-width: 3.5"/>
   </g>
   <g id="patch_3">
    <path d="M 52.160938 530.438125 
L 52.160938 22.318125 
" style="fill: none; stroke: #000000; stroke-width: 0.8; stroke-linejoin: miter; stroke-linecap: square"/>
   </g>
   <g id="patch_4">
    <path d="M 554.651239 530.438125 
L 554.651239 22.318125 
" style="fill: none; stroke: #000000; stroke-width: 0.8; stroke-linejoin: miter; stroke-linecap: square"/>
   </g>
   <g id="patch_5">
    <path d="M 52.160937 530.438125 
L 554.651239 530.438125 
" style="fill: none; stroke: #000000; stroke-width: 0.8; stroke-linejoin: miter; stroke-linecap: square"/>
   </g>
   <g id="patch_6">
    <path d="M 52.160937 22.318125 
L 554.651239 22.318125 
" style="fill: none; stroke: #000000; stroke-width: 0.8; stroke-linejoin: miter; stroke-linecap: square"/>
   </g>
   <g id="line2d_15">
    <path d="M 511.472349 178.756066 
L 513.494937 184.445972 
L 515.392892 190.121198 
L 517.166604 195.779132 
L 518.816376 201.417069 
L 520.342739 207.032536 
L 521.746249 212.623082 
L 523.027465 218.18626 
L 524.187007 223.71969 
L 525.22548 229.220963 
L 526.143673 234.687873 
L 526.942396 240.118234 
L 527.62246 245.509862 
L 528.184733 250.860636 
L 528.630069 256.168412 
L 528.959486 261.431226 
L 529.17402 266.647133 
L 529.274707 271.814188 
L 529.262637 276.930503 
L 529.138884 281.99417 
L 528.904669 287.003438 
L 528.561231 291.956572 
L 528.109806 296.851838 
L 527.551681 301.687551 
L 526.888126 306.462007 
L 526.120546 311.173644 
L 525.250357 315.820914 
L 524.278978 320.402267 
L 523.207868 324.916203 
L 522.038474 329.361199 
L 520.772365 333.735868 
L 519.411115 338.038836 
L 517.956303 342.268731 
L 514.772441 350.503974 
L 511.234057 358.431405 
L 507.354916 366.041511 
L 503.149049 373.32515 
L 498.631046 380.274125 
L 493.815714 386.880665 
L 488.718231 393.137765 
L 483.354091 399.039261 
L 477.738971 404.579464 
L 471.888868 409.753857 
L 465.819891 414.558439 
L 459.548338 418.990142 
L 453.090619 423.046862 
L 446.463212 426.727048 
L 439.682645 430.030419 
L 432.765442 432.957229 
L 425.728103 435.508689 
L 418.587031 437.686934 
L 411.358575 439.494635 
L 404.058868 440.935596 
L 396.703926 442.014088 
L 389.309544 442.735197 
L 381.891239 443.104747 
L 374.464364 443.128994 
L 367.043836 442.81506 
L 359.644369 442.170409 
L 352.280294 441.203103 
L 344.965534 439.921725 
L 337.713762 438.335162 
L 330.538058 436.452894 
L 323.451237 434.284629 
L 316.465622 431.84048 
L 309.593034 429.130895 
L 302.84499 426.16653 
L 296.232307 422.958416 
L 289.765499 419.517733 
L 283.454512 415.855916 
L 277.308738 411.984599 
L 271.337223 407.915547 
L 265.54825 403.660733 
L 259.94978 399.232207 
L 254.549153 394.642152 
L 249.353136 389.902827 
L 244.368121 385.026547 
L 239.599713 380.025673 
L 235.053189 374.912572 
L 230.733181 369.699608 
L 226.643753 364.3991 
L 222.788587 359.023338 
L 219.170587 353.584484 
L 215.79234 348.094638 
L 212.655797 342.56575 
L 209.76237 337.009607 
L 207.113101 331.437879 
L 204.708303 325.861949 
L 202.547995 320.293069 
L 200.631599 314.742214 
L 198.958056 309.220089 
L 197.525964 303.737215 
L 196.333272 298.303689 
L 195.377673 292.929436 
L 194.656327 287.623992 
L 194.16599 282.396559 
L 193.903116 277.256093 
L 193.863614 272.211041 
L 194.043181 267.269646 
L 194.437075 262.439684 
L 195.040225 257.72856 
L 195.847318 253.143392 
L 196.852614 248.690736 
L 198.050214 244.376923 
L 199.433874 240.207775 
L 200.997121 236.188718 
L 202.733293 232.324872 
L 204.635436 228.620767 
L 206.696482 225.080701 
L 208.909135 221.708442 
L 211.265957 218.507364 
L 213.759389 215.480521 
L 216.38171 212.630385 
L 219.125135 209.9592 
L 221.981768 207.46868 
L 224.943653 205.160171 
L 228.002788 203.034703 
L 231.151127 201.092757 
L 234.380615 199.334603 
L 237.683193 197.760016 
L 241.050824 196.368438 
L 244.475489 195.159021 
L 247.949239 194.13043 
L 251.46416 193.281141 
L 255.012439 192.609199 
L 258.586349 192.112363 
L 262.178242 191.788143 
L 265.780639 191.633641 
L 269.386133 191.645806 
L 272.987505 191.821226 
L 276.577677 192.156266 
L 280.149701 192.647089 
L 283.696879 193.289539 
L 287.21261 194.079343 
L 292.413434 195.53034 
L 297.508636 197.286586 
L 302.478735 199.33114 
L 307.305285 201.64636 
L 311.971115 204.213894 
L 316.460242 207.014844 
L 320.757906 210.029855 
L 324.85073 213.239177 
L 328.726525 216.622807 
L 332.374526 220.16055 
L 335.785262 223.832126 
L 338.950553 227.61725 
L 341.863654 231.495744 
L 344.519023 235.447584 
L 346.912521 239.453025 
L 349.041266 243.492658 
L 350.903596 247.547471 
L 352.49918 251.598981 
L 353.828776 255.629214 
L 354.89439 259.620859 
L 355.699114 263.557276 
L 356.247076 267.422529 
L 356.543506 271.201537 
L 356.594513 274.879973 
L 356.407183 278.444444 
L 355.989433 281.882446 
L 355.349947 285.182371 
L 354.498194 288.333656 
L 353.444251 291.326626 
L 352.198836 294.152669 
L 350.773192 296.80416 
L 349.179013 299.274438 
L 347.428428 301.557937 
L 345.533872 303.650001 
L 343.508069 305.547034 
L 341.363944 307.246404 
L 339.11456 308.746397 
L 336.773066 310.046321 
L 334.352625 311.146317 
L 331.86636 312.047465 
L 329.327292 312.75169 
L 326.748303 313.2617 
L 324.142045 313.581051 
L 321.520939 313.713976 
L 318.897084 313.665451 
L 316.282232 313.441104 
L 313.687768 313.047147 
L 310.279009 312.269896 
L 306.950487 311.22083 
L 303.725232 309.918918 
L 300.624552 308.384371 
L 297.667921 306.63843 
L 294.872918 304.703154 
L 292.255163 302.60122 
L 289.828272 300.355718 
L 287.603824 297.989962 
L 285.591333 295.527293 
L 283.79828 292.990897 
L 282.230129 290.403626 
L 280.890362 287.787841 
L 279.78053 285.165249 
L 278.900297 282.556751 
L 278.247542 279.982319 
L 277.818438 277.460873 
L 277.607554 275.010174 
L 277.607955 272.646731 
L 277.811303 270.385703 
L 278.208 268.240851 
L 278.787302 266.224477 
L 279.537458 264.347394 
L 280.445832 262.618891 
L 281.499033 261.046705 
L 282.683066 259.637045 
L 283.983457 258.394595 
L 285.385387 257.32254 
L 286.873822 256.422603 
L 288.433641 255.695066 
L 290.049755 255.138851 
L 290.049755 255.138851 
" clip-path="url(#p9454441b44)" style="fill: none; stroke-dasharray: 3.5,5.775; stroke-dashoffset: 0; stroke: #008000; stroke-opacity: 0.8; stroke-width: 3.5"/>
   </g>
   <g id="text_15">
    <!-- Phase Portrait (x0 vs x1) -->
    <g transform="translate(229.714838 16.318125) scale(0.12 -0.12)">
     <defs>
      <path id="DejaVuSans-50" d="M 1259 4147 
L 1259 2394 
L 2053 2394 
Q 2494 2394 2734 2622 
Q 2975 2850 2975 3272 
Q 2975 3691 2734 3919 
Q 2494 4147 2053 4147 
L 1259 4147 
z
M 628 4666 
L 2053 4666 
Q 2838 4666 3239 4311 
Q 3641 3956 3641 3272 
Q 3641 2581 3239 2228 
Q 2838 1875 2053 1875 
L 1259 1875 
L 1259 0 
L 628 0 
L 628 4666 
z
" transform="scale(0.015625)"/>
      <path id="DejaVuSans-68" d="M 3513 2113 
L 3513 0 
L 2938 0 
L 2938 2094 
Q 2938 2591 2744 2837 
Q 2550 3084 2163 3084 
Q 1697 3084 1428 2787 
Q 1159 2491 1159 1978 
L 1159 0 
L 581 0 
L 581 4863 
L 1159 4863 
L 1159 2956 
Q 1366 3272 1645 3428 
Q 1925 3584 2291 3584 
Q 2894 3584 3203 3211 
Q 3513 2838 3513 2113 
z
" transform="scale(0.015625)"/>
      <path id="DejaVuSans-61" d="M 2194 1759 
Q 1497 1759 1228 1600 
Q 959 1441 959 1056 
Q 959 750 1161 570 
Q 1363 391 1709 391 
Q 2188 391 2477 730 
Q 2766 1069 2766 1631 
L 2766 1759 
L 2194 1759 
z
M 3341 1997 
L 3341 0 
L 2766 0 
L 2766 531 
Q 2569 213 2275 61 
Q 1981 -91 1556 -91 
Q 1019 -91 701 211 
Q 384 513 384 1019 
Q 384 1609 779 1909 
Q 1175 2209 1959 2209 
L 2766 2209 
L 2766 2266 
Q 2766 2663 2505 2880 
Q 2244 3097 1772 3097 
Q 1472 3097 1187 3025 
Q 903 2953 641 2809 
L 641 3341 
Q 956 3463 1253 3523 
Q 1550 3584 1831 3584 
Q 2591 3584 2966 3190 
Q 3341 2797 3341 1997 
z
" transform="scale(0.015625)"/>
      <path id="DejaVuSans-73" d="M 2834 3397 
L 2834 2853 
Q 2591 2978 2328 3040 
Q 2066 3103 1784 3103 
Q 1356 3103 1142 2972 
Q 928 2841 928 2578 
Q 928 2378 1081 2264 
Q 1234 2150 1697 2047 
L 1894 2003 
Q 2506 1872 2764 1633 
Q 3022 1394 3022 966 
Q 3022 478 2636 193 
Q 2250 -91 1575 -91 
Q 1294 -91 989 -36 
Q 684 19 347 128 
L 347 722 
Q 666 556 975 473 
Q 1284 391 1588 391 
Q 1994 391 2212 530 
Q 2431 669 2431 922 
Q 2431 1156 2273 1281 
Q 2116 1406 1581 1522 
L 1381 1569 
Q 847 1681 609 1914 
Q 372 2147 372 2553 
Q 372 3047 722 3315 
Q 1072 3584 1716 3584 
Q 2034 3584 2315 3537 
Q 2597 3491 2834 3397 
z
" transform="scale(0.015625)"/>
      <path id="DejaVuSans-65" d="M 3597 1894 
L 3597 1613 
L 953 1613 
Q 991 1019 1311 708 
Q 1631 397 2203 397 
Q 2534 397 2845 478 
Q 3156 559 3463 722 
L 3463 178 
Q 3153 47 2828 -22 
Q 2503 -91 2169 -91 
Q 1331 -91 842 396 
Q 353 884 353 1716 
Q 353 2575 817 3079 
Q 1281 3584 2069 3584 
Q 2775 3584 3186 3129 
Q 3597 2675 3597 1894 
z
M 3022 2063 
Q 3016 2534 2758 2815 
Q 2500 3097 2075 3097 
Q 1594 3097 1305 2825 
Q 1016 2553 972 2059 
L 3022 2063 
z
" transform="scale(0.015625)"/>
      <path id="DejaVuSans-20" transform="scale(0.015625)"/>
      <path id="DejaVuSans-6f" d="M 1959 3097 
Q 1497 3097 1228 2736 
Q 959 2375 959 1747 
Q 959 1119 1226 758 
Q 1494 397 1959 397 
Q 2419 397 2687 759 
Q 2956 1122 2956 1747 
Q 2956 2369 2687 2733 
Q 2419 3097 1959 3097 
z
M 1959 3584 
Q 2709 3584 3137 3096 
Q 3566 2609 3566 1747 
Q 3566 888 3137 398 
Q 2709 -91 1959 -91 
Q 1206 -91 779 398 
Q 353 888 353 1747 
Q 353 2609 779 3096 
Q 1206 3584 1959 3584 
z
" transform="scale(0.015625)"/>
      <path id="DejaVuSans-72" d="M 2631 2963 
Q 2534 3019 2420 3045 
Q 2306 3072 2169 3072 
Q 1681 3072 1420 2755 
Q 1159 2438 1159 1844 
L 1159 0 
L 581 0 
L 581 3500 
L 1159 3500 
L 1159 2956 
Q 1341 3275 1631 3429 
Q 1922 3584 2338 3584 
Q 2397 3584 2469 3576 
Q 2541 3569 2628 3553 
L 2631 2963 
z
" transform="scale(0.015625)"/>
      <path id="DejaVuSans-74" d="M 1172 4494 
L 1172 3500 
L 2356 3500 
L 2356 3053 
L 1172 3053 
L 1172 1153 
Q 1172 725 1289 603 
Q 1406 481 1766 481 
L 2356 481 
L 2356 0 
L 1766 0 
Q 1100 0 847 248 
Q 594 497 594 1153 
L 594 3053 
L 172 3053 
L 172 3500 
L 594 3500 
L 594 4494 
L 1172 4494 
z
" transform="scale(0.015625)"/>
      <path id="DejaVuSans-69" d="M 603 3500 
L 1178 3500 
L 1178 0 
L 603 0 
L 603 3500 
z
M 603 4863 
L 1178 4863 
L 1178 4134 
L 603 4134 
L 603 4863 
z
" transform="scale(0.015625)"/>
      <path id="DejaVuSans-28" d="M 1984 4856 
Q 1566 4138 1362 3434 
Q 1159 2731 1159 2009 
Q 1159 1288 1364 580 
Q 1569 -128 1984 -844 
L 1484 -844 
Q 1016 -109 783 600 
Q 550 1309 550 2009 
Q 550 2706 781 3412 
Q 1013 4119 1484 4856 
L 1984 4856 
z
" transform="scale(0.015625)"/>
      <path id="DejaVuSans-76" d="M 191 3500 
L 800 3500 
L 1894 563 
L 2988 3500 
L 3597 3500 
L 2284 0 
L 1503 0 
L 191 3500 
z
" transform="scale(0.015625)"/>
      <path id="DejaVuSans-29" d="M 513 4856 
L 1013 4856 
Q 1481 4119 1714 3412 
Q 1947 2706 1947 2009 
Q 1947 1309 1714 600 
Q 1481 -109 1013 -844 
L 513 -844 
Q 928 -128 1133 580 
Q 1338 1288 1338 2009 
Q 1338 2731 1133 3434 
Q 928 4138 513 4856 
z
" transform="scale(0.015625)"/>
     </defs>
     <use xlink:href="#DejaVuSans-50"/>
     <use xlink:href="#DejaVuSans-68" transform="translate(60.302734 0)"/>
     <use xlink:href="#DejaVuSans-61" transform="translate(123.681641 0)"/>
     <use xlink:href="#DejaVuSans-73" transform="translate(184.960938 0)"/>
     <use xlink:href="#DejaVuSans-65" transform="translate(237.060547 0)"/>
     <use xlink:href="#DejaVuSans-20" transform="translate(298.583984 0)"/>
     <use xlink:href="#DejaVuSans-50" transform="translate(330.371094 0)"/>
     <use xlink:href="#DejaVuSans-6f" transform="translate(387.048828 0)"/>
     <use xlink:href="#DejaVuSans-72" transform="translate(448.230469 0)"/>
     <use xlink:href="#DejaVuSans-74" transform="translate(489.34375 0)"/>
     <use xlink:href="#DejaVuSans-72" transform="translate(528.552734 0)"/>
     <use xlink:href="#DejaVuSans-61" transform="translate(569.666016 0)"/>
     <use xlink:href="#DejaVuSans-69" transform="translate(630.945312 0)"/>
     <use xlink:href="#DejaVuSans-74" transform="translate(658.728516 0)"/>
     <use xlink:href="#DejaVuSans-20" transform="translate(697.9375 0)"/>
     <use xlink:href="#DejaVuSans-28" transform="translate(729.724609 0)"/>
     <use xlink:href="#DejaVuSans-78" transform="translate(768.738281 0)"/>
     <use xlink:href="#DejaVuSans-30" transform="translate(827.917969 0)"/>
     <use xlink:href="#DejaVuSans-20" transform="translate(891.541016 0)"/>
     <use xlink:href="#DejaVuSans-76" transform="translate(923.328125 0)"/>
     <use xlink:href="#DejaVuSans-73" transform="translate(982.507812 0)"/>
     <use xlink:href="#DejaVuSans-20" transform="translate(1034.607422 0)"/>
     <use xlink:href="#DejaVuSans-78" transform="translate(1066.394531 0)"/>
     <use xlink:href="#DejaVuSans-31" transform="translate(1125.574219 0)"/>
     <use xlink:href="#DejaVuSans-29" transform="translate(1189.197266 0)"/>
    </g>
   </g>
   <g id="line2d_16">
    <path d="M 511.472349 178.756066 
L 513.494692 184.468676 
L 515.39188 190.168794 
L 517.164258 195.853725 
L 518.812078 201.520707 
L 520.33583 207.167134 
L 521.736033 212.790417 
L 523.013205 218.387968 
L 524.167936 223.957253 
L 525.200791 229.495703 
L 526.112538 235.00091 
L 526.903967 240.470487 
L 527.57587 245.902045 
L 528.129104 251.293256 
L 528.564503 256.641753 
L 528.883088 261.94535 
L 529.085901 267.201878 
L 529.173982 272.409167 
L 529.14843 277.565111 
L 529.010329 282.66757 
L 528.760927 287.71459 
L 528.40149 292.704237 
L 527.933282 297.634578 
L 527.357622 302.503744 
L 526.675814 307.309834 
L 525.889309 312.051142 
L 524.99957 316.725979 
L 524.008061 321.332661 
L 522.91629 325.869568 
L 521.725758 330.335049 
L 520.438088 334.727655 
L 519.054914 339.045952 
L 517.577871 343.28851 
L 516.008632 347.453969 
L 514.348862 351.540934 
L 512.600332 355.548217 
L 510.764817 359.474647 
L 508.844094 363.319052 
L 506.839972 367.080335 
L 504.754255 370.757362 
L 500.345583 377.854968 
L 495.633221 384.604652 
L 490.632517 390.999727 
L 485.359208 397.034737 
L 479.829166 402.704747 
L 474.058498 408.005745 
L 468.063471 412.934637 
L 461.860449 417.48885 
L 455.465915 421.666974 
L 448.896379 425.468088 
L 442.168389 428.892139 
L 435.298459 431.93991 
L 428.303089 434.612671 
L 421.198655 436.912737 
L 414.00146 438.842863 
L 406.727661 440.406577 
L 399.393212 441.608132 
L 392.013951 442.452212 
L 384.605378 442.944393 
L 377.182834 443.090623 
L 369.761353 442.897498 
L 362.355624 442.372211 
L 354.980133 441.522309 
L 347.648852 440.356052 
L 340.37552 438.881991 
L 333.173441 437.109186 
L 326.055464 435.047146 
L 319.03416 432.705646 
L 312.121456 430.094984 
L 305.328989 427.225657 
L 298.667865 424.108522 
L 292.148658 420.75473 
L 285.781611 417.175609 
L 279.57623 413.382805 
L 273.541701 409.388081 
L 267.686614 405.2034 
L 262.01898 400.840868 
L 256.54645 396.31268 
L 251.275891 391.631146 
L 246.213836 386.808614 
L 241.366186 381.85748 
L 236.738258 376.790137 
L 232.334993 371.618982 
L 228.160542 366.356345 
L 224.218734 361.014514 
L 220.512751 355.605682 
L 217.045226 350.14192 
L 213.81841 344.635213 
L 210.833805 339.097321 
L 208.092605 333.5399 
L 205.595391 327.974376 
L 203.342236 322.411952 
L 201.332855 316.863675 
L 199.56628 311.340228 
L 198.041268 305.85214 
L 196.756018 300.4096 
L 195.708284 295.022498 
L 194.895503 289.7005 
L 194.314519 284.452811 
L 193.961943 279.288441 
L 193.833905 274.215974 
L 193.926171 269.243639 
L 194.234237 264.3794 
L 194.75312 259.630683 
L 195.47765 255.004697 
L 196.402272 250.508165 
L 197.521152 246.147426 
L 198.828248 241.928521 
L 200.31716 237.856917 
L 201.981353 233.937851 
L 203.814013 230.176043 
L 205.808138 226.575821 
L 207.95658 223.1412 
L 210.251963 219.875614 
L 212.686828 216.782269 
L 215.253546 213.863848 
L 217.944392 211.122655 
L 220.751558 208.560681 
L 223.667136 206.17936 
L 226.683184 203.979907 
L 229.791704 201.963036 
L 232.984679 200.129109 
L 236.254079 198.478195 
L 239.59189 197.009849 
L 242.990111 195.723427 
L 246.440789 194.617829 
L 249.936027 193.691646 
L 253.467973 192.943202 
L 257.028902 192.370373 
L 260.611136 191.970869 
L 264.207144 191.741999 
L 267.809511 191.680817 
L 271.410923 191.784151 
L 275.004278 192.048463 
L 278.582561 192.470077 
L 282.138978 193.044994 
L 285.666903 193.76902 
L 290.891276 195.124983 
L 296.016164 196.790791 
L 301.021718 198.749835 
L 305.889184 200.984707 
L 310.60106 203.477248 
L 315.140947 206.208739 
L 319.493795 209.159918 
L 323.645794 212.311134 
L 327.584398 215.642431 
L 331.298483 219.133635 
L 334.778132 222.764468 
L 338.014867 226.514629 
L 341.001503 230.363894 
L 343.732142 234.292186 
L 346.202296 238.279695 
L 348.408657 242.306907 
L 350.349276 246.354738 
L 352.023416 250.40457 
L 353.431505 254.438306 
L 354.575234 258.43851 
L 355.457316 262.38835 
L 356.081627 266.271769 
L 356.453047 270.073468 
L 356.577404 273.778931 
L 356.461524 277.374573 
L 356.11302 280.847619 
L 355.540373 284.186283 
L 354.752788 287.379709 
L 353.760132 290.417967 
L 352.572939 293.292198 
L 351.202246 295.994443 
L 349.659611 298.517811 
L 347.957006 300.856396 
L 346.106745 303.005246 
L 344.121458 304.960483 
L 342.013979 306.719118 
L 339.797315 308.279188 
L 337.484571 309.639656 
L 335.088889 310.800365 
L 332.623389 311.762125 
L 330.101116 312.526533 
L 327.534975 313.096064 
L 324.937682 313.473981 
L 322.321729 313.664265 
L 319.699291 313.671675 
L 317.082243 313.501584 
L 314.48206 313.160032 
L 311.060443 312.44942 
L 307.713399 311.462935 
L 304.464328 310.219203 
L 301.33492 308.738153 
L 298.345082 307.040787 
L 295.512833 305.148981 
L 292.854254 303.085278 
L 290.383425 300.872686 
L 288.112375 298.534481 
L 286.051099 296.094007 
L 284.207547 293.574492 
L 282.587652 290.998873 
L 281.195351 288.389628 
L 280.03262 285.768606 
L 279.09956 283.15689 
L 278.394463 280.574659 
L 277.913899 278.04107 
L 277.652806 275.574145 
L 277.604583 273.190657 
L 277.761221 270.906071 
L 278.113417 268.734462 
L 278.650697 266.688466 
L 279.361545 264.779239 
L 280.233525 263.016401 
L 281.253428 261.408055 
L 282.407402 259.960765 
L 283.681086 258.679576 
L 285.059745 257.568028 
L 286.528393 256.628174 
L 288.071932 255.860644 
L 290.083687 255.142289 
L 290.083687 255.142289 
" clip-path="url(#p9454441b44)" style="fill: none; stroke-dasharray: 12.95,5.6; stroke-dashoffset: 0; stroke: #ff0000; stroke-opacity: 0.8; stroke-width: 3.5"/>
   </g>
   <g id="legend_1">
    <g id="patch_7">
     <path d="M 402.301239 89.030625 
L 547.651239 89.030625 
Q 549.651239 89.030625 549.651239 87.030625 
L 549.651239 29.318125 
Q 549.651239 27.318125 547.651239 27.318125 
L 402.301239 27.318125 
Q 400.301239 27.318125 400.301239 29.318125 
L 400.301239 87.030625 
Q 400.301239 89.030625 402.301239 89.030625 
z
" style="fill: #ffffff; opacity: 0.8; stroke: #cccccc; stroke-linejoin: miter"/>
    </g>
    <g id="line2d_17">
     <path d="M 404.301239 35.416562 
L 414.301239 35.416562 
L 424.301239 35.416562 
" style="fill: none; stroke: #000000; stroke-opacity: 0.3; stroke-width: 7; stroke-linecap: square"/>
    </g>
    <g id="text_16">
     <!-- True/Underlying model -->
     <g transform="translate(432.301239 38.916562) scale(0.1 -0.1)">
      <defs>
       <path id="DejaVuSans-54" d="M -19 4666 
L 3928 4666 
L 3928 4134 
L 2272 4134 
L 2272 0 
L 1638 0 
L 1638 4134 
L -19 4134 
L -19 4666 
z
" transform="scale(0.015625)"/>
       <path id="DejaVuSans-75" d="M 544 1381 
L 544 3500 
L 1119 3500 
L 1119 1403 
Q 1119 906 1312 657 
Q 1506 409 1894 409 
Q 2359 409 2629 706 
Q 2900 1003 2900 1516 
L 2900 3500 
L 3475 3500 
L 3475 0 
L 2900 0 
L 2900 538 
Q 2691 219 2414 64 
Q 2138 -91 1772 -91 
Q 1169 -91 856 284 
Q 544 659 544 1381 
z
M 1991 3584 
L 1991 3584 
z
" transform="scale(0.015625)"/>
       <path id="DejaVuSans-2f" d="M 1625 4666 
L 2156 4666 
L 531 -594 
L 0 -594 
L 1625 4666 
z
" transform="scale(0.015625)"/>
       <path id="DejaVuSans-55" d="M 556 4666 
L 1191 4666 
L 1191 1831 
Q 1191 1081 1462 751 
Q 1734 422 2344 422 
Q 2950 422 3222 751 
Q 3494 1081 3494 1831 
L 3494 4666 
L 4128 4666 
L 4128 1753 
Q 4128 841 3676 375 
Q 3225 -91 2344 -91 
Q 1459 -91 1007 375 
Q 556 841 556 1753 
L 556 4666 
z
" transform="scale(0.015625)"/>
       <path id="DejaVuSans-6e" d="M 3513 2113 
L 3513 0 
L 2938 0 
L 2938 2094 
Q 2938 2591 2744 2837 
Q 2550 3084 2163 3084 
Q 1697 3084 1428 2787 
Q 1159 2491 1159 1978 
L 1159 0 
L 581 0 
L 581 3500 
L 1159 3500 
L 1159 2956 
Q 1366 3272 1645 3428 
Q 1925 3584 2291 3584 
Q 2894 3584 3203 3211 
Q 3513 2838 3513 2113 
z
" transform="scale(0.015625)"/>
       <path id="DejaVuSans-64" d="M 2906 2969 
L 2906 4863 
L 3481 4863 
L 3481 0 
L 2906 0 
L 2906 525 
Q 2725 213 2448 61 
Q 2172 -91 1784 -91 
Q 1150 -91 751 415 
Q 353 922 353 1747 
Q 353 2572 751 3078 
Q 1150 3584 1784 3584 
Q 2172 3584 2448 3432 
Q 2725 3281 2906 2969 
z
M 947 1747 
Q 947 1113 1208 752 
Q 1469 391 1925 391 
Q 2381 391 2643 752 
Q 2906 1113 2906 1747 
Q 2906 2381 2643 2742 
Q 2381 3103 1925 3103 
Q 1469 3103 1208 2742 
Q 947 2381 947 1747 
z
" transform="scale(0.015625)"/>
       <path id="DejaVuSans-6c" d="M 603 4863 
L 1178 4863 
L 1178 0 
L 603 0 
L 603 4863 
z
" transform="scale(0.015625)"/>
       <path id="DejaVuSans-79" d="M 2059 -325 
Q 1816 -950 1584 -1140 
Q 1353 -1331 966 -1331 
L 506 -1331 
L 506 -850 
L 844 -850 
Q 1081 -850 1212 -737 
Q 1344 -625 1503 -206 
L 1606 56 
L 191 3500 
L 800 3500 
L 1894 763 
L 2988 3500 
L 3597 3500 
L 2059 -325 
z
" transform="scale(0.015625)"/>
       <path id="DejaVuSans-67" d="M 2906 1791 
Q 2906 2416 2648 2759 
Q 2391 3103 1925 3103 
Q 1463 3103 1205 2759 
Q 947 2416 947 1791 
Q 947 1169 1205 825 
Q 1463 481 1925 481 
Q 2391 481 2648 825 
Q 2906 1169 2906 1791 
z
M 3481 434 
Q 3481 -459 3084 -895 
Q 2688 -1331 1869 -1331 
Q 1566 -1331 1297 -1286 
Q 1028 -1241 775 -1147 
L 775 -588 
Q 1028 -725 1275 -790 
Q 1522 -856 1778 -856 
Q 2344 -856 2625 -561 
Q 2906 -266 2906 331 
L 2906 616 
Q 2728 306 2450 153 
Q 2172 0 1784 0 
Q 1141 0 747 490 
Q 353 981 353 1791 
Q 353 2603 747 3093 
Q 1141 3584 1784 3584 
Q 2172 3584 2450 3431 
Q 2728 3278 2906 2969 
L 2906 3500 
L 3481 3500 
L 3481 434 
z
" transform="scale(0.015625)"/>
       <path id="DejaVuSans-6d" d="M 3328 2828 
Q 3544 3216 3844 3400 
Q 4144 3584 4550 3584 
Q 5097 3584 5394 3201 
Q 5691 2819 5691 2113 
L 5691 0 
L 5113 0 
L 5113 2094 
Q 5113 2597 4934 2840 
Q 4756 3084 4391 3084 
Q 3944 3084 3684 2787 
Q 3425 2491 3425 1978 
L 3425 0 
L 2847 0 
L 2847 2094 
Q 2847 2600 2669 2842 
Q 2491 3084 2119 3084 
Q 1678 3084 1418 2786 
Q 1159 2488 1159 1978 
L 1159 0 
L 581 0 
L 581 3500 
L 1159 3500 
L 1159 2956 
Q 1356 3278 1631 3431 
Q 1906 3584 2284 3584 
Q 2666 3584 2933 3390 
Q 3200 3197 3328 2828 
z
" transform="scale(0.015625)"/>
      </defs>
      <use xlink:href="#DejaVuSans-54"/>
      <use xlink:href="#DejaVuSans-72" transform="translate(46.333984 0)"/>
      <use xlink:href="#DejaVuSans-75" transform="translate(87.447266 0)"/>
      <use xlink:href="#DejaVuSans-65" transform="translate(150.826172 0)"/>
      <use xlink:href="#DejaVuSans-2f" transform="translate(212.349609 0)"/>
      <use xlink:href="#DejaVuSans-55" transform="translate(246.041016 0)"/>
      <use xlink:href="#DejaVuSans-6e" transform="translate(319.234375 0)"/>
      <use xlink:href="#DejaVuSans-64" transform="translate(382.613281 0)"/>
      <use xlink:href="#DejaVuSans-65" transform="translate(446.089844 0)"/>
      <use xlink:href="#DejaVuSans-72" transform="translate(507.613281 0)"/>
      <use xlink:href="#DejaVuSans-6c" transform="translate(548.726562 0)"/>
      <use xlink:href="#DejaVuSans-79" transform="translate(576.509766 0)"/>
      <use xlink:href="#DejaVuSans-69" transform="translate(635.689453 0)"/>
      <use xlink:href="#DejaVuSans-6e" transform="translate(663.472656 0)"/>
      <use xlink:href="#DejaVuSans-67" transform="translate(726.851562 0)"/>
      <use xlink:href="#DejaVuSans-20" transform="translate(790.328125 0)"/>
      <use xlink:href="#DejaVuSans-6d" transform="translate(822.115234 0)"/>
      <use xlink:href="#DejaVuSans-6f" transform="translate(919.527344 0)"/>
      <use xlink:href="#DejaVuSans-64" transform="translate(980.708984 0)"/>
      <use xlink:href="#DejaVuSans-65" transform="translate(1044.185547 0)"/>
      <use xlink:href="#DejaVuSans-6c" transform="translate(1105.708984 0)"/>
     </g>
    </g>
    <g id="line2d_18">
     <path d="M 404.301239 50.094687 
L 414.301239 50.094687 
L 424.301239 50.094687 
" style="fill: none; stroke-dasharray: 12.95,5.6; stroke-dashoffset: 0; stroke: #ff0000; stroke-opacity: 0.8; stroke-width: 3.5"/>
    </g>
    <g id="text_17">
     <!-- AutoSINDy -->
     <g transform="translate(432.301239 53.594687) scale(0.1 -0.1)">
      <defs>
       <path id="DejaVuSans-41" d="M 2188 4044 
L 1331 1722 
L 3047 1722 
L 2188 4044 
z
M 1831 4666 
L 2547 4666 
L 4325 0 
L 3669 0 
L 3244 1197 
L 1141 1197 
L 716 0 
L 50 0 
L 1831 4666 
z
" transform="scale(0.015625)"/>
       <path id="DejaVuSans-53" d="M 3425 4513 
L 3425 3897 
Q 3066 4069 2747 4153 
Q 2428 4238 2131 4238 
Q 1616 4238 1336 4038 
Q 1056 3838 1056 3469 
Q 1056 3159 1242 3001 
Q 1428 2844 1947 2747 
L 2328 2669 
Q 3034 2534 3370 2195 
Q 3706 1856 3706 1288 
Q 3706 609 3251 259 
Q 2797 -91 1919 -91 
Q 1588 -91 1214 -16 
Q 841 59 441 206 
L 441 856 
Q 825 641 1194 531 
Q 1563 422 1919 422 
Q 2459 422 2753 634 
Q 3047 847 3047 1241 
Q 3047 1584 2836 1778 
Q 2625 1972 2144 2069 
L 1759 2144 
Q 1053 2284 737 2584 
Q 422 2884 422 3419 
Q 422 4038 858 4394 
Q 1294 4750 2059 4750 
Q 2388 4750 2728 4690 
Q 3069 4631 3425 4513 
z
" transform="scale(0.015625)"/>
       <path id="DejaVuSans-49" d="M 628 4666 
L 1259 4666 
L 1259 0 
L 628 0 
L 628 4666 
z
" transform="scale(0.015625)"/>
       <path id="DejaVuSans-4e" d="M 628 4666 
L 1478 4666 
L 3547 763 
L 3547 4666 
L 4159 4666 
L 4159 0 
L 3309 0 
L 1241 3903 
L 1241 0 
L 628 0 
L 628 4666 
z
" transform="scale(0.015625)"/>
       <path id="DejaVuSans-44" d="M 1259 4147 
L 1259 519 
L 2022 519 
Q 2988 519 3436 956 
Q 3884 1394 3884 2338 
Q 3884 3275 3436 3711 
Q 2988 4147 2022 4147 
L 1259 4147 
z
M 628 4666 
L 1925 4666 
Q 3281 4666 3915 4102 
Q 4550 3538 4550 2338 
Q 4550 1131 3912 565 
Q 3275 0 1925 0 
L 628 0 
L 628 4666 
z
" transform="scale(0.015625)"/>
      </defs>
      <use xlink:href="#DejaVuSans-41"/>
      <use xlink:href="#DejaVuSans-75" transform="translate(68.408203 0)"/>
      <use xlink:href="#DejaVuSans-74" transform="translate(131.787109 0)"/>
      <use xlink:href="#DejaVuSans-6f" transform="translate(170.996094 0)"/>
      <use xlink:href="#DejaVuSans-53" transform="translate(232.177734 0)"/>
      <use xlink:href="#DejaVuSans-49" transform="translate(295.654297 0)"/>
      <use xlink:href="#DejaVuSans-4e" transform="translate(325.146484 0)"/>
      <use xlink:href="#DejaVuSans-44" transform="translate(399.951172 0)"/>
      <use xlink:href="#DejaVuSans-79" transform="translate(476.953125 0)"/>
     </g>
    </g>
    <g id="line2d_19">
     <path d="M 404.301239 64.772812 
L 414.301239 64.772812 
L 424.301239 64.772812 
" style="fill: none; stroke-dasharray: 3.5,5.775; stroke-dashoffset: 0; stroke: #008000; stroke-opacity: 0.8; stroke-width: 3.5"/>
    </g>
    <g id="text_18">
     <!-- Standard SINDy -->
     <g transform="translate(432.301239 68.272812) scale(0.1 -0.1)">
      <use xlink:href="#DejaVuSans-53"/>
      <use xlink:href="#DejaVuSans-74" transform="translate(63.476562 0)"/>
      <use xlink:href="#DejaVuSans-61" transform="translate(102.685547 0)"/>
      <use xlink:href="#DejaVuSans-6e" transform="translate(163.964844 0)"/>
      <use xlink:href="#DejaVuSans-64" transform="translate(227.34375 0)"/>
      <use xlink:href="#DejaVuSans-61" transform="translate(290.820312 0)"/>
      <use xlink:href="#DejaVuSans-72" transform="translate(352.099609 0)"/>
      <use xlink:href="#DejaVuSans-64" transform="translate(391.462891 0)"/>
      <use xlink:href="#DejaVuSans-20" transform="translate(454.939453 0)"/>
      <use xlink:href="#DejaVuSans-53" transform="translate(486.726562 0)"/>
      <use xlink:href="#DejaVuSans-49" transform="translate(550.203125 0)"/>
      <use xlink:href="#DejaVuSans-4e" transform="translate(579.695312 0)"/>
      <use xlink:href="#DejaVuSans-44" transform="translate(654.5 0)"/>
      <use xlink:href="#DejaVuSans-79" transform="translate(731.501953 0)"/>
     </g>
    </g>
    <g id="line2d_20">
     <path d="M 404.301239 79.450937 
L 414.301239 79.450937 
L 424.301239 79.450937 
" style="fill: none; stroke-dasharray: 22.4,5.6,3.5,5.6; stroke-dashoffset: 0; stroke: #0000ff; stroke-opacity: 0.8; stroke-width: 3.5"/>
    </g>
    <g id="text_19">
     <!-- Standard PySR -->
     <g transform="translate(432.301239 82.950937) scale(0.1 -0.1)">
      <defs>
       <path id="DejaVuSans-52" d="M 2841 2188 
Q 3044 2119 3236 1894 
Q 3428 1669 3622 1275 
L 4263 0 
L 3584 0 
L 2988 1197 
Q 2756 1666 2539 1819 
Q 2322 1972 1947 1972 
L 1259 1972 
L 1259 0 
L 628 0 
L 628 4666 
L 2053 4666 
Q 2853 4666 3247 4331 
Q 3641 3997 3641 3322 
Q 3641 2881 3436 2590 
Q 3231 2300 2841 2188 
z
M 1259 4147 
L 1259 2491 
L 2053 2491 
Q 2509 2491 2742 2702 
Q 2975 2913 2975 3322 
Q 2975 3731 2742 3939 
Q 2509 4147 2053 4147 
L 1259 4147 
z
" transform="scale(0.015625)"/>
      </defs>
      <use xlink:href="#DejaVuSans-53"/>
      <use xlink:href="#DejaVuSans-74" transform="translate(63.476562 0)"/>
      <use xlink:href="#DejaVuSans-61" transform="translate(102.685547 0)"/>
      <use xlink:href="#DejaVuSans-6e" transform="translate(163.964844 0)"/>
      <use xlink:href="#DejaVuSans-64" transform="translate(227.34375 0)"/>
      <use xlink:href="#DejaVuSans-61" transform="translate(290.820312 0)"/>
      <use xlink:href="#DejaVuSans-72" transform="translate(352.099609 0)"/>
      <use xlink:href="#DejaVuSans-64" transform="translate(391.462891 0)"/>
      <use xlink:href="#DejaVuSans-20" transform="translate(454.939453 0)"/>
      <use xlink:href="#DejaVuSans-50" transform="translate(486.726562 0)"/>
      <use xlink:href="#DejaVuSans-79" transform="translate(547.029297 0)"/>
      <use xlink:href="#DejaVuSans-53" transform="translate(606.208984 0)"/>
      <use xlink:href="#DejaVuSans-52" transform="translate(669.685547 0)"/>
     </g>
    </g>
   </g>
  </g>
 </g>
 <defs>
  <clipPath id="p9454441b44">
   <rect x="52.160938" y="22.318125" width="502.490302" height="508.12"/>
  </clipPath>
 </defs>
</svg>
