<?xml version="1.0" encoding="utf-8" standalone="no"?>
<!DOCTYPE svg PUBLIC "-//W3C//DTD SVG 1.1//EN"
  "http://www.w3.org/Graphics/SVG/1.1/DTD/svg11.dtd">
<svg xmlns:xlink="http://www.w3.org/1999/xlink" width="568.410312pt" height="567.994375pt" viewBox="0 0 568.410312 567.994375" xmlns="http://www.w3.org/2000/svg" version="1.1">
 <metadata>
  <rdf:RDF xmlns:dc="http://purl.org/dc/elements/1.1/" xmlns:cc="http://creativecommons.org/ns#" xmlns:rdf="http://www.w3.org/1999/02/22-rdf-syntax-ns#">
   <cc:Work>
    <dc:type rdf:resource="http://purl.org/dc/dcmitype/StillImage"/>
    <dc:date>2026-04-05T14:00:55.935828</dc:date>
    <dc:format>image/svg+xml</dc:format>
    <dc:creator>
     <cc:Agent>
      <dc:title>Matplotlib v3.10.7, https://matplotlib.org/</dc:title>
     </cc:Agent>
    </dc:creator>
   </cc:Work>
  </rdf:RDF>
 </metadata>
 <defs>
  <style type="text/css">*{stroke-linejoin: round; stroke-linecap: butt}</style>
 </defs>
 <g id="figure_1">
  <g id="patch_1">
   <path d="M 0 567.994375 
L 568.410312 567.994375 
L 568.410312 0 
L 0 0 
z
" style="fill: #ffffff"/>
  </g>
  <g id="axes_1">
   <g id="patch_2">
    <path d="M 42.620313 530.438125 
L 561.210312 530.438125 
L 561.210312 22.318125 
L 42.620313 22.318125 
z
" style="fill: #ffffff"/>
   </g>
   <g id="matplotlib.axis_1">
    <g id="xtick_1">
     <g id="line2d_1">
      <defs>
       <path id="m19fc6d9d50" d="M 0 0 
L 0 3.5 
" style="stroke: #000000; stroke-width: 0.8"/>
      </defs>
      <g>
       <use xlink:href="#m19fc6d9d50" x="124.021471" y="530.438125" style="stroke: #000000; stroke-width: 0.8"/>
      </g>
     </g>
     <g id="text_1">
      <!-- −2 -->
      <g transform="translate(116.650377 545.036562) scale(0.1 -0.1)">
       <defs>
        <path id="DejaVuSans-2212" d="M 678 2272 
L 4684 2272 
L 4684 1741 
L 678 1741 
L 678 2272 
z
" transform="scale(0.015625)"/>
        <path id="DejaVuSans-32" d="M 1228 531 
L 3431 531 
L 3431 0 
L 469 0 
L 469 531 
Q 828 903 1448 1529 
Q 2069 2156 2228 2338 
Q 2531 2678 2651 2914 
Q 2772 3150 2772 3378 
Q 2772 3750 2511 3984 
Q 2250 4219 1831 4219 
Q 1534 4219 1204 4116 
Q 875 4013 500 3803 
L 500 4441 
Q 881 4594 1212 4672 
Q 1544 4750 1819 4750 
Q 2544 4750 2975 4387 
Q 3406 4025 3406 3419 
Q 3406 3131 3298 2873 
Q 3191 2616 2906 2266 
Q 2828 2175 2409 1742 
Q 1991 1309 1228 531 
z
" transform="scale(0.015625)"/>
       </defs>
       <use xlink:href="#DejaVuSans-2212"/>
       <use xlink:href="#DejaVuSans-32" transform="translate(83.789062 0)"/>
      </g>
     </g>
    </g>
    <g id="xtick_2">
     <g id="line2d_2">
      <g>
       <use xlink:href="#m19fc6d9d50" x="212.96889" y="530.438125" style="stroke: #000000; stroke-width: 0.8"/>
      </g>
     </g>
     <g id="text_2">
      <!-- −1 -->
      <g transform="translate(205.597797 545.036562) scale(0.1 -0.1)">
       <defs>
        <path id="DejaVuSans-31" d="M 794 531 
L 1825 531 
L 1825 4091 
L 703 3866 
L 703 4441 
L 1819 4666 
L 2450 4666 
L 2450 531 
L 3481 531 
L 3481 0 
L 794 0 
L 794 531 
z
" transform="scale(0.015625)"/>
       </defs>
       <use xlink:href="#DejaVuSans-2212"/>
       <use xlink:href="#DejaVuSans-31" transform="translate(83.789062 0)"/>
      </g>
     </g>
    </g>
    <g id="xtick_3">
     <g id="line2d_3">
      <g>
       <use xlink:href="#m19fc6d9d50" x="301.91631" y="530.438125" style="stroke: #000000; stroke-width: 0.8"/>
      </g>
     </g>
     <g id="text_3">
      <!-- 0 -->
      <g transform="translate(298.73506 545.036562) scale(0.1 -0.1)">
       <defs>
        <path id="DejaVuSans-30" d="M 2034 4250 
Q 1547 4250 1301 3770 
Q 1056 3291 1056 2328 
Q 1056 1369 1301 889 
Q 1547 409 2034 409 
Q 2525 409 2770 889 
Q 3016 1369 3016 2328 
Q 3016 3291 2770 3770 
Q 2525 4250 2034 4250 
z
M 2034 4750 
Q 2819 4750 3233 4129 
Q 3647 3509 3647 2328 
Q 3647 1150 3233 529 
Q 2819 -91 2034 -91 
Q 1250 -91 836 529 
Q 422 1150 422 2328 
Q 422 3509 836 4129 
Q 1250 4750 2034 4750 
z
" transform="scale(0.015625)"/>
       </defs>
       <use xlink:href="#DejaVuSans-30"/>
      </g>
     </g>
    </g>
    <g id="xtick_4">
     <g id="line2d_4">
      <g>
       <use xlink:href="#m19fc6d9d50" x="390.863729" y="530.438125" style="stroke: #000000; stroke-width: 0.8"/>
      </g>
     </g>
     <g id="text_4">
      <!-- 1 -->
      <g transform="translate(387.682479 545.036562) scale(0.1 -0.1)">
       <use xlink:href="#DejaVuSans-31"/>
      </g>
     </g>
    </g>
    <g id="xtick_5">
     <g id="line2d_5">
      <g>
       <use xlink:href="#m19fc6d9d50" x="479.811149" y="530.438125" style="stroke: #000000; stroke-width: 0.8"/>
      </g>
     </g>
     <g id="text_5">
      <!-- 2 -->
      <g transform="translate(476.629899 545.036562) scale(0.1 -0.1)">
       <use xlink:href="#DejaVuSans-32"/>
      </g>
     </g>
    </g>
    <g id="text_6">
     <!-- x0 -->
     <g transform="translate(295.774687 558.714687) scale(0.1 -0.1)">
      <defs>
       <path id="DejaVuSans-78" d="M 3513 3500 
L 2247 1797 
L 3578 0 
L 2900 0 
L 1881 1375 
L 863 0 
L 184 0 
L 1544 1831 
L 300 3500 
L 978 3500 
L 1906 2253 
L 2834 3500 
L 3513 3500 
z
" transform="scale(0.015625)"/>
      </defs>
      <use xlink:href="#DejaVuSans-78"/>
      <use xlink:href="#DejaVuSans-30" transform="translate(59.179688 0)"/>
     </g>
    </g>
   </g>
   <g id="matplotlib.axis_2">
    <g id="ytick_1">
     <g id="line2d_6">
      <defs>
       <path id="m8d48477c85" d="M 0 0 
L -3.5 0 
" style="stroke: #000000; stroke-width: 0.8"/>
      </defs>
      <g>
       <use xlink:href="#m8d48477c85" x="42.620313" y="491.155424" style="stroke: #000000; stroke-width: 0.8"/>
      </g>
     </g>
     <g id="text_7">
      <!-- −4 -->
      <g transform="translate(20.878125 494.954643) scale(0.1 -0.1)">
       <defs>
        <path id="DejaVuSans-34" d="M 2419 4116 
L 825 1625 
L 2419 1625 
L 2419 4116 
z
M 2253 4666 
L 3047 4666 
L 3047 1625 
L 3713 1625 
L 3713 1100 
L 3047 1100 
L 3047 0 
L 2419 0 
L 2419 1100 
L 313 1100 
L 313 1709 
L 2253 4666 
z
" transform="scale(0.015625)"/>
       </defs>
       <use xlink:href="#DejaVuSans-2212"/>
       <use xlink:href="#DejaVuSans-34" transform="translate(83.789062 0)"/>
      </g>
     </g>
    </g>
    <g id="ytick_2">
     <g id="line2d_7">
      <g>
       <use xlink:href="#m8d48477c85" x="42.620313" y="383.766005" style="stroke: #000000; stroke-width: 0.8"/>
      </g>
     </g>
     <g id="text_8">
      <!-- −2 -->
      <g transform="translate(20.878125 387.565223) scale(0.1 -0.1)">
       <use xlink:href="#DejaVuSans-2212"/>
       <use xlink:href="#DejaVuSans-32" transform="translate(83.789062 0)"/>
      </g>
     </g>
    </g>
    <g id="ytick_3">
     <g id="line2d_8">
      <g>
       <use xlink:href="#m8d48477c85" x="42.620313" y="276.376586" style="stroke: #000000; stroke-width: 0.8"/>
      </g>
     </g>
     <g id="text_9">
      <!-- 0 -->
      <g transform="translate(29.257813 280.175804) scale(0.1 -0.1)">
       <use xlink:href="#DejaVuSans-30"/>
      </g>
     </g>
    </g>
    <g id="ytick_4">
     <g id="line2d_9">
      <g>
       <use xlink:href="#m8d48477c85" x="42.620313" y="168.987166" style="stroke: #000000; stroke-width: 0.8"/>
      </g>
     </g>
     <g id="text_10">
      <!-- 2 -->
      <g transform="translate(29.257813 172.786385) scale(0.1 -0.1)">
       <use xlink:href="#DejaVuSans-32"/>
      </g>
     </g>
    </g>
    <g id="ytick_5">
     <g id="line2d_10">
      <g>
       <use xlink:href="#m8d48477c85" x="42.620313" y="61.597747" style="stroke: #000000; stroke-width: 0.8"/>
      </g>
     </g>
     <g id="text_11">
      <!-- 4 -->
      <g transform="translate(29.257813 65.396966) scale(0.1 -0.1)">
       <use xlink:href="#DejaVuSans-34"/>
      </g>
     </g>
    </g>
    <g id="text_12">
     <!-- x1 -->
     <g transform="translate(14.798438 282.51875) rotate(-90) scale(0.1 -0.1)">
      <use xlink:href="#DejaVuSans-78"/>
      <use xlink:href="#DejaVuSans-31" transform="translate(59.179688 0)"/>
     </g>
    </g>
   </g>
   <g id="line2d_11">
    <path d="M 536.87916 265.637644 
L 537.316138 269.554014 
L 537.559565 273.414039 
L 537.612144 277.233652 
L 537.475735 281.028528 
L 537.150784 284.813585 
L 536.637106 288.60359 
L 535.933898 292.41317 
L 535.039737 296.256813 
L 533.952581 300.148869 
L 532.669772 304.103549 
L 530.64925 309.498169 
L 528.265513 315.062086 
L 525.508032 320.824019 
L 522.363838 326.808407 
L 518.813222 333.052643 
L 514.835956 339.587548 
L 510.411671 346.436016 
L 505.519864 353.613016 
L 500.139893 361.125591 
L 494.250977 368.972857 
L 487.832202 377.146005 
L 480.862513 385.628302 
L 473.320718 394.395087 
L 465.186315 403.43162 
L 458.686388 410.361596 
L 451.838946 417.354807 
L 444.642542 424.34818 
L 437.098937 431.278277 
L 431.879298 435.831695 
L 426.509753 440.309645 
L 420.993199 444.693062 
L 415.333167 448.962806 
L 409.533822 453.099668 
L 403.599961 457.084364 
L 397.537017 460.89754 
L 391.351054 464.519769 
L 385.04877 467.931553 
L 378.637499 471.113322 
L 372.125205 474.045432 
L 365.520488 476.708169 
L 358.832581 479.081747 
L 352.07135 481.146308 
L 345.247294 482.88192 
L 338.371548 484.268582 
L 331.455878 485.286219 
L 324.512684 485.914684 
L 317.555001 486.13376 
L 310.596496 485.923155 
L 307.12138 485.650362 
L 303.65147 485.262507 
L 300.188654 484.757034 
L 293.292533 483.405618 
L 286.448936 481.648159 
L 279.671352 479.499178 
L 272.972567 476.971985 
L 266.364732 474.081003 
L 259.859369 470.841762 
L 253.467365 467.270901 
L 247.198979 463.386169 
L 241.063835 459.206425 
L 235.070928 454.751636 
L 229.228621 450.042879 
L 223.544643 445.102339 
L 218.026094 439.953312 
L 212.67944 434.620202 
L 207.510518 429.128522 
L 202.524531 423.504896 
L 197.726052 417.777055 
L 193.11902 411.97384 
L 188.706746 406.125203 
L 184.491905 400.262203 
L 180.475926 394.4095 
L 176.656086 388.548127 
L 173.031412 382.681473 
L 169.601351 376.818078 
L 166.365275 370.965703 
L 163.322483 365.131324 
L 160.4722 359.321136 
L 157.813578 353.540553 
L 155.345695 347.794205 
L 153.067554 342.085941 
L 150.978086 336.418828 
L 149.076149 330.795149 
L 147.360525 325.216407 
L 145.829924 319.683321 
L 144.482982 314.19583 
L 143.31826 308.753089 
L 142.334248 303.353472 
L 141.52936 297.994569 
L 140.901938 292.673191 
L 140.450248 287.385364 
L 140.172465 282.127106 
L 140.066861 276.906411 
L 140.133152 271.721169 
L 140.371303 266.564619 
L 140.781214 261.430804 
L 141.362718 256.314572 
L 142.115585 251.211577 
L 143.039519 246.118277 
L 144.134159 241.031932 
L 145.399078 235.950612 
L 146.833785 230.873186 
L 148.437723 225.799332 
L 150.21027 220.72953 
L 152.150738 215.665066 
L 154.258375 210.608031 
L 156.532364 205.561319 
L 158.971821 200.528631 
L 161.575799 195.51447 
L 164.343284 190.524147 
L 167.273197 185.563773 
L 170.364396 180.640269 
L 173.61567 175.761356 
L 177.025746 170.935564 
L 180.593285 166.172223 
L 184.316881 161.481472 
L 188.195066 156.874252 
L 192.226303 152.36231 
L 196.408994 147.958196 
L 200.741389 143.674769 
L 205.21784 139.510992 
L 209.831444 135.481903 
L 214.576026 131.611292 
L 219.44506 127.92147 
L 224.431666 124.433264 
L 229.528615 121.166023 
L 234.728324 118.137609 
L 240.022858 115.364406 
L 245.40393 112.861316 
L 250.862901 110.641757 
L 256.390782 108.717669 
L 261.97823 107.099506 
L 267.61555 105.796243 
L 273.292696 104.815373 
L 278.999269 104.162906 
L 284.724519 103.843373 
L 290.457344 103.859819 
L 296.186289 104.213812 
L 301.899548 104.905435 
L 307.584963 105.93329 
L 313.230023 107.294497 
L 318.821866 108.984697 
L 324.347644 110.997374 
L 329.799742 113.315406 
L 335.169458 115.925121 
L 340.447254 118.815028 
L 345.62406 121.973239 
L 350.691269 125.387467 
L 355.640741 129.045028 
L 360.464801 132.932841 
L 365.15624 137.037427 
L 369.708314 141.344909 
L 374.114745 145.841014 
L 378.369721 150.511071 
L 382.467894 155.340009 
L 386.404382 160.312364 
L 390.174771 165.41227 
L 393.775109 170.623466 
L 397.201911 175.929293 
L 400.452158 181.312695 
L 403.523297 186.756217 
L 406.413238 192.242007 
L 409.12036 197.751818 
L 411.643506 203.267 
L 413.981983 208.768512 
L 416.135935 214.242421 
L 418.107967 219.71329 
L 419.898527 225.184603 
L 421.507637 230.653351 
L 422.935407 236.116603 
L 424.182033 241.571499 
L 425.247796 247.015253 
L 426.133066 252.445153 
L 426.8383 257.858559 
L 427.364039 263.252907 
L 427.710913 268.625705 
L 427.879638 273.974534 
L 427.871018 279.297049 
L 427.685941 284.59098 
L 427.325384 289.854128 
L 426.790411 295.08437 
L 426.082171 300.279654 
L 425.2019 305.438004 
L 424.150922 310.557516 
L 422.930646 315.636359 
L 421.542571 320.672777 
L 419.988278 325.665087 
L 418.269438 330.61168 
L 416.387912 335.514829 
L 414.345348 340.373825 
L 412.143238 345.178324 
L 409.783403 349.917973 
L 407.267999 354.582509 
L 404.599515 359.161765 
L 401.780774 363.645664 
L 398.814935 368.024223 
L 395.705488 372.28755 
L 392.456258 376.425845 
L 389.071405 380.429404 
L 385.555422 384.28861 
L 381.913136 387.993943 
L 378.149708 391.535973 
L 374.270632 394.905364 
L 370.281739 398.09287 
L 366.189191 401.08934 
L 361.999484 403.885713 
L 357.71945 406.473023 
L 353.356254 408.842395 
L 348.917393 410.985046 
L 344.410702 412.892287 
L 339.844346 414.555519 
L 335.226825 415.966237 
L 330.566976 417.116029 
L 325.873966 417.996574 
L 321.157297 418.599645 
L 316.426806 418.917105 
L 311.692649 418.940981 
L 306.9632 418.674812 
L 302.247065 418.125629 
L 297.553937 417.295809 
L 292.893246 416.188808 
L 288.274155 414.809158 
L 283.705565 413.16247 
L 279.19611 411.25543 
L 274.754158 409.095803 
L 270.387816 406.692433 
L 266.104923 404.055238 
L 261.913053 401.195215 
L 257.819517 398.124441 
L 253.831359 394.856065 
L 253.831359 394.856065 
" clip-path="url(#p912d9e89bc)" style="fill: none; stroke: #000000; stroke-opacity: 0.3; stroke-width: 7; stroke-linecap: square"/>
   </g>
   <g id="line2d_12">
    <path d="M 536.87916 265.637644 
L 537.319664 269.424006 
L 537.572303 273.183174 
L 537.63804 276.929832 
L 537.517141 280.678659 
L 537.209146 284.444333 
L 536.712821 288.24154 
L 536.026267 292.084982 
L 535.146788 295.989374 
L 534.070989 299.969438 
L 532.323967 305.419338 
L 530.20868 311.064711 
L 527.711002 316.940053 
L 524.814542 323.07928 
L 521.5007 329.515327 
L 517.748724 336.279526 
L 513.535858 343.400805 
L 508.837546 350.904627 
L 503.627699 358.811642 
L 497.879068 367.136029 
L 491.563732 375.883321 
L 484.653771 385.047915 
L 477.122088 394.610257 
L 468.943435 404.533683 
L 462.371349 412.179849 
L 455.415053 419.964667 
L 448.068644 427.847117 
L 440.328387 435.777627 
L 432.193478 443.69673 
L 426.551783 448.93674 
L 420.737197 454.118897 
L 414.751841 459.219378 
L 408.598981 464.212216 
L 402.282632 469.070317 
L 395.807585 473.765524 
L 389.179954 478.268601 
L 382.406369 482.549956 
L 375.494838 486.579873 
L 368.454177 490.328943 
L 361.294058 493.768302 
L 354.025412 496.870955 
L 346.659655 499.610746 
L 339.209344 501.96474 
L 331.687609 503.912279 
L 324.10819 505.435405 
L 316.485484 506.521077 
L 312.662458 506.89623 
L 308.83414 507.158273 
L 305.002417 507.30689 
L 301.169174 507.341761 
L 297.336287 507.262744 
L 293.505667 507.069717 
L 289.679205 506.763184 
L 285.858756 506.344147 
L 278.243307 505.172722 
L 270.674065 503.565333 
L 263.165171 501.537241 
L 255.730302 499.106427 
L 248.382589 496.293785 
L 241.13412 493.123644 
L 233.996558 489.621595 
L 226.980287 485.815558 
L 220.094951 481.734317 
L 213.34931 477.4074 
L 206.750807 472.864526 
L 200.306352 468.135386 
L 194.021466 463.248799 
L 187.900944 458.232854 
L 181.94872 453.114598 
L 176.167591 447.919146 
L 167.821515 440.033649 
L 159.869322 432.101215 
L 152.31184 424.186278 
L 145.146752 416.343387 
L 138.369292 408.618163 
L 131.972713 401.048011 
L 124.021535 391.244609 
L 116.708847 381.817201 
L 110.008626 372.79618 
L 103.893373 364.195871 
L 98.335084 356.017615 
L 93.306012 348.252638 
L 88.77926 340.884337 
L 84.729228 333.890221 
L 81.131953 327.243471 
L 77.965374 320.914202 
L 75.209476 314.870451 
L 72.846411 309.078892 
L 70.860563 303.505366 
L 69.238599 298.11525 
L 68.254218 294.172072 
L 67.4645 290.297747 
L 66.866351 286.477552 
L 66.457479 282.696779 
L 66.23626 278.940735 
L 66.201838 275.194736 
L 66.354092 271.444107 
L 66.693584 267.674166 
L 67.221678 263.870226 
L 67.940408 260.017582 
L 68.852573 256.101518 
L 69.96171 252.107311 
L 71.754386 246.634716 
L 73.916979 240.962284 
L 76.463901 235.055575 
L 79.411828 228.88077 
L 82.77964 222.405108 
L 86.588337 215.597492 
L 90.860919 208.429376 
L 95.622153 200.875812 
L 100.8983 192.91688 
L 106.716721 184.539393 
L 113.105375 175.739003 
L 120.09213 166.52294 
L 127.703915 156.912707 
L 133.838021 149.469195 
L 140.347225 141.849321 
L 147.239454 134.084919 
L 154.521005 126.215346 
L 162.195922 118.288994 
L 170.265558 110.363583 
L 175.864047 105.112802 
L 181.635902 99.914091 
L 187.579097 94.791023 
L 193.690734 89.76895 
L 199.966887 84.874835 
L 206.403082 80.136475 
L 212.99344 75.582968 
L 219.731458 71.243775 
L 226.609551 67.148681 
L 233.618999 63.327137 
L 240.75046 59.80833 
L 247.993213 56.619654 
L 255.335975 53.787421 
L 262.766509 51.335674 
L 270.271758 49.285349 
L 277.838191 47.655554 
L 285.451503 46.46022 
L 289.271202 46.029095 
L 293.097129 45.710852 
L 296.927397 45.505877 
L 300.760121 45.414489 
L 304.593415 45.437007 
L 308.425405 45.573367 
L 312.254164 45.823669 
L 316.077831 46.18697 
L 319.894548 46.662271 
L 327.499748 47.944521 
L 335.055096 49.659463 
L 342.546626 51.790715 
L 349.960748 54.319789 
L 357.2846 57.224754 
L 364.50622 60.480945 
L 371.614173 64.06222 
L 378.598363 67.940269 
L 385.449298 72.086161 
L 392.158582 76.470237 
L 398.718919 81.062796 
L 405.12367 85.834239 
L 411.367604 90.756003 
L 417.446076 95.80017 
L 423.355478 100.940198 
L 429.093133 106.151199 
L 437.373284 114.049414 
L 445.259184 121.983095 
L 452.750595 129.889565 
L 459.850222 137.715607 
L 466.563244 145.417226 
L 472.896699 152.958333 
L 480.76615 162.716677 
L 488.000274 172.094234 
L 494.625334 181.06282 
L 500.668938 189.609851 
L 506.1591 197.735417 
L 511.123489 205.449401 
L 515.588859 212.769262 
L 519.580617 219.718112 
L 523.122504 226.323206 
L 526.236333 232.614743 
L 528.941851 238.624894 
L 531.256625 244.387118 
L 533.195985 249.935647 
L 534.029049 252.640599 
L 534.029049 252.640599 
" clip-path="url(#p912d9e89bc)" style="fill: none; stroke-dasharray: 22.4,5.6,3.5,5.6; stroke-dashoffset: 0; stroke: #0000ff; stroke-opacity: 0.8; stroke-width: 3.5"/>
   </g>
   <g id="patch_3">
    <path d="M 42.620313 530.438125 
L 42.620313 22.318125 
" style="fill: none; stroke: #000000; stroke-width: 0.8; stroke-linejoin: miter; stroke-linecap: square"/>
   </g>
   <g id="patch_4">
    <path d="M 561.210312 530.438125 
L 561.210312 22.318125 
" style="fill: none; stroke: #000000; stroke-width: 0.8; stroke-linejoin: miter; stroke-linecap: square"/>
   </g>
   <g id="patch_5">
    <path d="M 42.620313 530.438125 
L 561.210312 530.438125 
" style="fill: none; stroke: #000000; stroke-width: 0.8; stroke-linejoin: miter; stroke-linecap: square"/>
   </g>
   <g id="patch_6">
    <path d="M 42.620313 22.318125 
L 561.210312 22.318125 
" style="fill: none; stroke: #000000; stroke-width: 0.8; stroke-linejoin: miter; stroke-linecap: square"/>
   </g>
   <g id="line2d_13">
    <path d="M 536.87916 265.637644 
L 537.319519 269.424011 
L 537.572073 273.183193 
L 537.637787 276.929871 
L 537.516926 280.678716 
L 537.209029 284.444402 
L 536.712865 288.241612 
L 536.026532 292.085042 
L 535.147337 295.989401 
L 534.071883 299.969409 
L 532.325421 305.419189 
L 530.210803 311.064383 
L 527.713906 316.939476 
L 524.818336 323.078379 
L 521.505488 329.51402 
L 517.754603 336.277731 
L 513.542915 343.39844 
L 508.845852 350.901618 
L 503.637305 358.807924 
L 497.889996 367.131556 
L 491.575974 375.878072 
L 484.667277 385.0419 
L 477.136763 394.603524 
L 468.959135 404.526322 
L 462.387694 412.172106 
L 455.431913 419.956636 
L 448.085871 427.838911 
L 440.345817 435.769374 
L 432.210934 443.68857 
L 426.569152 448.92872 
L 420.754397 454.111082 
L 414.768788 459.211831 
L 408.615591 464.204998 
L 402.298823 469.063484 
L 395.823278 473.759127 
L 389.195073 478.262683 
L 382.420843 482.544555 
L 375.508599 486.575014 
L 368.467162 490.324645 
L 361.306211 493.764571 
L 354.03668 496.867788 
L 346.669993 499.608128 
L 339.218712 501.962645 
L 331.695971 503.910674 
L 324.115516 505.434246 
L 316.491752 506.520314 
L 312.668189 506.895643 
L 308.839331 507.157848 
L 305.007063 507.306611 
L 301.173274 507.341613 
L 297.339838 507.262709 
L 293.508669 507.069779 
L 289.681656 506.763327 
L 285.860657 506.344354 
L 278.24411 505.173008 
L 270.673781 503.565633 
L 263.163813 501.537496 
L 255.727892 499.106584 
L 248.379155 496.293796 
L 241.129696 493.123468 
L 233.991184 489.621201 
L 226.974011 485.814925 
L 220.087826 481.733431 
L 213.341395 477.406258 
L 206.742167 472.863133 
L 200.297058 468.133755 
L 194.011591 463.246951 
L 187.890566 458.230816 
L 181.937918 453.112401 
L 176.156447 447.916827 
L 167.81001 440.031221 
L 159.857637 432.09877 
L 152.300148 424.183907 
L 145.135212 416.341174 
L 138.358048 408.616184 
L 131.961891 401.046328 
L 124.011437 391.243395 
L 116.699612 381.816511 
L 110.000349 372.796036 
L 103.886103 364.196266 
L 98.328835 356.018521 
L 93.300765 348.25401 
L 88.774971 340.886116 
L 84.725834 333.892343 
L 81.129375 327.245871 
L 77.963524 320.916813 
L 75.208258 314.873212 
L 72.845724 309.081748 
L 70.860304 303.50827 
L 69.238664 298.118164 
L 68.254456 294.174975 
L 67.464852 290.300627 
L 66.866757 286.480402 
L 66.457879 282.699598 
L 66.236594 278.943526 
L 66.202045 275.197506 
L 66.35411 271.446868 
L 66.693352 267.676936 
L 67.221134 263.873026 
L 67.939488 260.02044 
L 68.851212 256.104465 
L 69.959844 252.110383 
L 71.751742 246.638017 
L 73.91344 240.965896 
L 76.459346 235.059586 
L 79.406139 228.885276 
L 82.772703 222.410208 
L 86.580042 215.603286 
L 90.851169 208.435959 
L 95.610864 200.883272 
L 100.885409 192.925287 
L 106.702193 184.548797 
L 113.089209 175.749422 
L 120.074365 166.53435 
L 127.684637 156.925039 
L 133.817695 149.482141 
L 140.32595 141.862786 
L 147.217351 134.098783 
L 154.498215 126.229467 
L 162.172605 118.303206 
L 170.241889 110.377702 
L 175.840246 105.126749 
L 181.612056 99.927778 
L 187.555292 94.804358 
L 193.667058 89.781843 
L 199.943426 84.887197 
L 206.379923 80.148221 
L 212.970666 75.594021 
L 219.70915 71.254062 
L 226.587786 67.15814 
L 233.597852 63.335714 
L 240.730001 59.815984 
L 247.973506 56.626355 
L 255.317081 53.793154 
L 262.748485 51.340434 
L 270.254654 49.289147 
L 277.822055 47.658412 
L 285.436375 46.462173 
L 289.256594 46.030611 
L 293.083047 45.711945 
L 296.913849 45.506561 
L 300.747116 45.414778 
L 304.580959 45.436918 
L 308.413503 45.572916 
L 312.242821 45.822874 
L 316.067052 46.185849 
L 319.884337 46.660843 
L 327.490681 47.942536 
L 335.047178 49.657 
L 342.539856 51.787852 
L 349.955118 54.316601 
L 357.280095 57.221314 
L 364.502817 60.477319 
L 371.611841 64.058467 
L 378.597066 67.936442 
L 385.44899 72.082304 
L 392.159212 76.466384 
L 398.720429 81.058973 
L 405.125995 85.830464 
L 411.370675 90.752286 
L 417.449818 95.796513 
L 423.359816 100.936597 
L 429.097988 106.147644 
L 437.378764 114.0459 
L 445.26511 121.979581 
L 452.756797 129.886005 
L 459.856539 137.711953 
L 466.569531 145.413435 
L 472.902826 152.954368 
L 480.771898 162.712437 
L 488.005494 172.08969 
L 494.629923 181.057965 
L 500.672836 189.604697 
L 506.162281 197.729992 
L 511.125961 205.443745 
L 515.590653 212.763421 
L 519.581786 219.712138 
L 523.123114 226.317149 
L 526.236462 232.60865 
L 528.941585 238.618808 
L 531.256056 244.381072 
L 533.195209 249.92967 
L 534.028206 252.634662 
L 534.028206 252.634662 
" clip-path="url(#p912d9e89bc)" style="fill: none; stroke-dasharray: 3.5,5.775; stroke-dashoffset: 0; stroke: #008000; stroke-opacity: 0.8; stroke-width: 3.5"/>
   </g>
   <g id="text_13">
    <!-- Phase Portrait (x0 vs x1) -->
    <g transform="translate(228.224062 16.318125) scale(0.12 -0.12)">
     <defs>
      <path id="DejaVuSans-50" d="M 1259 4147 
L 1259 2394 
L 2053 2394 
Q 2494 2394 2734 2622 
Q 2975 2850 2975 3272 
Q 2975 3691 2734 3919 
Q 2494 4147 2053 4147 
L 1259 4147 
z
M 628 4666 
L 2053 4666 
Q 2838 4666 3239 4311 
Q 3641 3956 3641 3272 
Q 3641 2581 3239 2228 
Q 2838 1875 2053 1875 
L 1259 1875 
L 1259 0 
L 628 0 
L 628 4666 
z
" transform="scale(0.015625)"/>
      <path id="DejaVuSans-68" d="M 3513 2113 
L 3513 0 
L 2938 0 
L 2938 2094 
Q 2938 2591 2744 2837 
Q 2550 3084 2163 3084 
Q 1697 3084 1428 2787 
Q 1159 2491 1159 1978 
L 1159 0 
L 581 0 
L 581 4863 
L 1159 4863 
L 1159 2956 
Q 1366 3272 1645 3428 
Q 1925 3584 2291 3584 
Q 2894 3584 3203 3211 
Q 3513 2838 3513 2113 
z
" transform="scale(0.015625)"/>
      <path id="DejaVuSans-61" d="M 2194 1759 
Q 1497 1759 1228 1600 
Q 959 1441 959 1056 
Q 959 750 1161 570 
Q 1363 391 1709 391 
Q 2188 391 2477 730 
Q 2766 1069 2766 1631 
L 2766 1759 
L 2194 1759 
z
M 3341 1997 
L 3341 0 
L 2766 0 
L 2766 531 
Q 2569 213 2275 61 
Q 1981 -91 1556 -91 
Q 1019 -91 701 211 
Q 384 513 384 1019 
Q 384 1609 779 1909 
Q 1175 2209 1959 2209 
L 2766 2209 
L 2766 2266 
Q 2766 2663 2505 2880 
Q 2244 3097 1772 3097 
Q 1472 3097 1187 3025 
Q 903 2953 641 2809 
L 641 3341 
Q 956 3463 1253 3523 
Q 1550 3584 1831 3584 
Q 2591 3584 2966 3190 
Q 3341 2797 3341 1997 
z
" transform="scale(0.015625)"/>
      <path id="DejaVuSans-73" d="M 2834 3397 
L 2834 2853 
Q 2591 2978 2328 3040 
Q 2066 3103 1784 3103 
Q 1356 3103 1142 2972 
Q 928 2841 928 2578 
Q 928 2378 1081 2264 
Q 1234 2150 1697 2047 
L 1894 2003 
Q 2506 1872 2764 1633 
Q 3022 1394 3022 966 
Q 3022 478 2636 193 
Q 2250 -91 1575 -91 
Q 1294 -91 989 -36 
Q 684 19 347 128 
L 347 722 
Q 666 556 975 473 
Q 1284 391 1588 391 
Q 1994 391 2212 530 
Q 2431 669 2431 922 
Q 2431 1156 2273 1281 
Q 2116 1406 1581 1522 
L 1381 1569 
Q 847 1681 609 1914 
Q 372 2147 372 2553 
Q 372 3047 722 3315 
Q 1072 3584 1716 3584 
Q 2034 3584 2315 3537 
Q 2597 3491 2834 3397 
z
" transform="scale(0.015625)"/>
      <path id="DejaVuSans-65" d="M 3597 1894 
L 3597 1613 
L 953 1613 
Q 991 1019 1311 708 
Q 1631 397 2203 397 
Q 2534 397 2845 478 
Q 3156 559 3463 722 
L 3463 178 
Q 3153 47 2828 -22 
Q 2503 -91 2169 -91 
Q 1331 -91 842 396 
Q 353 884 353 1716 
Q 353 2575 817 3079 
Q 1281 3584 2069 3584 
Q 2775 3584 3186 3129 
Q 3597 2675 3597 1894 
z
M 3022 2063 
Q 3016 2534 2758 2815 
Q 2500 3097 2075 3097 
Q 1594 3097 1305 2825 
Q 1016 2553 972 2059 
L 3022 2063 
z
" transform="scale(0.015625)"/>
      <path id="DejaVuSans-20" transform="scale(0.015625)"/>
      <path id="DejaVuSans-6f" d="M 1959 3097 
Q 1497 3097 1228 2736 
Q 959 2375 959 1747 
Q 959 1119 1226 758 
Q 1494 397 1959 397 
Q 2419 397 2687 759 
Q 2956 1122 2956 1747 
Q 2956 2369 2687 2733 
Q 2419 3097 1959 3097 
z
M 1959 3584 
Q 2709 3584 3137 3096 
Q 3566 2609 3566 1747 
Q 3566 888 3137 398 
Q 2709 -91 1959 -91 
Q 1206 -91 779 398 
Q 353 888 353 1747 
Q 353 2609 779 3096 
Q 1206 3584 1959 3584 
z
" transform="scale(0.015625)"/>
      <path id="DejaVuSans-72" d="M 2631 2963 
Q 2534 3019 2420 3045 
Q 2306 3072 2169 3072 
Q 1681 3072 1420 2755 
Q 1159 2438 1159 1844 
L 1159 0 
L 581 0 
L 581 3500 
L 1159 3500 
L 1159 2956 
Q 1341 3275 1631 3429 
Q 1922 3584 2338 3584 
Q 2397 3584 2469 3576 
Q 2541 3569 2628 3553 
L 2631 2963 
z
" transform="scale(0.015625)"/>
      <path id="DejaVuSans-74" d="M 1172 4494 
L 1172 3500 
L 2356 3500 
L 2356 3053 
L 1172 3053 
L 1172 1153 
Q 1172 725 1289 603 
Q 1406 481 1766 481 
L 2356 481 
L 2356 0 
L 1766 0 
Q 1100 0 847 248 
Q 594 497 594 1153 
L 594 3053 
L 172 3053 
L 172 3500 
L 594 3500 
L 594 4494 
L 1172 4494 
z
" transform="scale(0.015625)"/>
      <path id="DejaVuSans-69" d="M 603 3500 
L 1178 3500 
L 1178 0 
L 603 0 
L 603 3500 
z
M 603 4863 
L 1178 4863 
L 1178 4134 
L 603 4134 
L 603 4863 
z
" transform="scale(0.015625)"/>
      <path id="DejaVuSans-28" d="M 1984 4856 
Q 1566 4138 1362 3434 
Q 1159 2731 1159 2009 
Q 1159 1288 1364 580 
Q 1569 -128 1984 -844 
L 1484 -844 
Q 1016 -109 783 600 
Q 550 1309 550 2009 
Q 550 2706 781 3412 
Q 1013 4119 1484 4856 
L 1984 4856 
z
" transform="scale(0.015625)"/>
      <path id="DejaVuSans-76" d="M 191 3500 
L 800 3500 
L 1894 563 
L 2988 3500 
L 3597 3500 
L 2284 0 
L 1503 0 
L 191 3500 
z
" transform="scale(0.015625)"/>
      <path id="DejaVuSans-29" d="M 513 4856 
L 1013 4856 
Q 1481 4119 1714 3412 
Q 1947 2706 1947 2009 
Q 1947 1309 1714 600 
Q 1481 -109 1013 -844 
L 513 -844 
Q 928 -128 1133 580 
Q 1338 1288 1338 2009 
Q 1338 2731 1133 3434 
Q 928 4138 513 4856 
z
" transform="scale(0.015625)"/>
     </defs>
     <use xlink:href="#DejaVuSans-50"/>
     <use xlink:href="#DejaVuSans-68" transform="translate(60.302734 0)"/>
     <use xlink:href="#DejaVuSans-61" transform="translate(123.681641 0)"/>
     <use xlink:href="#DejaVuSans-73" transform="translate(184.960938 0)"/>
     <use xlink:href="#DejaVuSans-65" transform="translate(237.060547 0)"/>
     <use xlink:href="#DejaVuSans-20" transform="translate(298.583984 0)"/>
     <use xlink:href="#DejaVuSans-50" transform="translate(330.371094 0)"/>
     <use xlink:href="#DejaVuSans-6f" transform="translate(387.048828 0)"/>
     <use xlink:href="#DejaVuSans-72" transform="translate(448.230469 0)"/>
     <use xlink:href="#DejaVuSans-74" transform="translate(489.34375 0)"/>
     <use xlink:href="#DejaVuSans-72" transform="translate(528.552734 0)"/>
     <use xlink:href="#DejaVuSans-61" transform="translate(569.666016 0)"/>
     <use xlink:href="#DejaVuSans-69" transform="translate(630.945312 0)"/>
     <use xlink:href="#DejaVuSans-74" transform="translate(658.728516 0)"/>
     <use xlink:href="#DejaVuSans-20" transform="translate(697.9375 0)"/>
     <use xlink:href="#DejaVuSans-28" transform="translate(729.724609 0)"/>
     <use xlink:href="#DejaVuSans-78" transform="translate(768.738281 0)"/>
     <use xlink:href="#DejaVuSans-30" transform="translate(827.917969 0)"/>
     <use xlink:href="#DejaVuSans-20" transform="translate(891.541016 0)"/>
     <use xlink:href="#DejaVuSans-76" transform="translate(923.328125 0)"/>
     <use xlink:href="#DejaVuSans-73" transform="translate(982.507812 0)"/>
     <use xlink:href="#DejaVuSans-20" transform="translate(1034.607422 0)"/>
     <use xlink:href="#DejaVuSans-78" transform="translate(1066.394531 0)"/>
     <use xlink:href="#DejaVuSans-31" transform="translate(1125.574219 0)"/>
     <use xlink:href="#DejaVuSans-29" transform="translate(1189.197266 0)"/>
    </g>
   </g>
   <g id="line2d_14">
    <path d="M 536.87916 265.637644 
L 537.31586 269.565918 
L 537.558429 273.437483 
L 537.609273 277.268122 
L 537.47005 281.073388 
L 537.141654 284.868605 
L 536.624179 288.668863 
L 535.917039 292.489061 
L 535.018848 296.343871 
L 533.927527 300.247765 
L 532.640289 304.214996 
L 530.613028 309.627322 
L 528.220932 315.209524 
L 525.451683 320.992916 
L 522.29092 327.007361 
L 518.722355 333.280788 
L 514.727934 339.838548 
L 510.288029 346.702571 
L 505.381702 353.890316 
L 499.987034 361.413363 
L 494.081579 369.275779 
L 487.642927 377.472222 
L 480.649392 385.985741 
L 473.080851 394.78541 
L 467.016417 401.545031 
L 460.612605 408.411934 
L 453.864793 415.352724 
L 446.770355 422.326376 
L 439.328831 429.284638 
L 431.542248 436.171931 
L 426.16198 440.692883 
L 420.632809 445.133923 
L 414.957865 449.473104 
L 409.140901 453.68755 
L 403.186333 457.753483 
L 397.099693 461.646164 
L 390.886946 465.340522 
L 384.555236 468.811228 
L 378.112392 472.033081 
L 371.566981 474.98119 
L 364.928663 477.6319 
L 358.207522 479.96212 
L 351.414666 481.951063 
L 344.561726 483.579564 
L 337.660903 484.830455 
L 330.725055 485.690231 
L 323.767296 486.1469 
L 316.801187 486.192957 
L 309.840432 485.823529 
L 302.89888 485.03681 
L 295.990314 483.835579 
L 289.128486 482.224439 
L 282.326806 480.212583 
L 275.598396 477.811555 
L 268.956021 475.03553 
L 262.411715 471.901921 
L 255.977208 468.429371 
L 249.663276 464.639033 
L 243.480129 460.553098 
L 237.437291 456.19479 
L 231.543235 451.588085 
L 225.806007 446.757177 
L 220.232495 441.72613 
L 214.828988 436.518693 
L 209.601033 431.158078 
L 204.553196 425.66628 
L 199.689645 420.064754 
L 195.013564 414.373161 
L 190.527665 408.610139 
L 186.234082 402.792992 
L 182.13425 396.937063 
L 178.229323 391.05689 
L 174.519815 385.164831 
L 171.005955 379.272153 
L 167.687621 373.38874 
L 164.564315 367.522697 
L 161.635389 361.681404 
L 158.899887 355.870456 
L 156.356733 350.094616 
L 154.004702 344.3576 
L 151.842449 338.661884 
L 149.868579 333.009442 
L 148.081633 327.401093 
L 146.480144 321.837152 
L 145.062637 316.3173 
L 143.827671 310.840536 
L 142.773824 305.405584 
L 141.899748 300.010604 
L 141.204147 294.653531 
L 140.685793 289.332036 
L 140.343563 284.043569 
L 140.176382 278.785498 
L 140.183305 273.555108 
L 140.363451 268.349694 
L 140.716028 263.166591 
L 141.240355 258.003297 
L 141.935793 252.85739 
L 142.801818 247.72679 
L 143.837946 242.609625 
L 145.043757 237.504347 
L 146.418878 232.409922 
L 147.962961 227.325551 
L 149.675676 222.251196 
L 151.556682 217.18721 
L 153.605629 212.134562 
L 155.822097 207.09508 
L 158.20564 202.070981 
L 160.755666 197.065648 
L 163.471498 192.083034 
L 166.352319 187.127975 
L 169.397079 182.206453 
L 172.604621 177.324979 
L 175.973425 172.491514 
L 179.501779 167.714688 
L 183.187672 163.004166 
L 187.028654 158.370833 
L 191.022081 153.826136 
L 195.1647 149.382903 
L 199.452963 145.054543 
L 203.882852 140.855328 
L 208.44974 136.800372 
L 213.148716 132.905177 
L 217.974084 129.185905 
L 222.919786 125.658907 
L 227.979192 122.340723 
L 233.145006 119.247775 
L 238.409611 116.396398 
L 243.764605 113.802184 
L 249.201253 111.480243 
L 254.710291 109.44477 
L 260.281931 107.70853 
L 265.906123 106.283558 
L 271.57229 105.179562 
L 277.269667 104.405113 
L 282.987196 103.966825 
L 288.713628 103.868911 
L 294.437615 104.114371 
L 300.147756 104.703067 
L 305.832676 105.633472 
L 311.481072 106.901806 
L 317.081864 108.501896 
L 322.624079 110.426377 
L 328.09719 112.665258 
L 333.490899 115.207507 
L 338.795323 118.040485 
L 344.001113 121.150141 
L 349.099201 124.521735 
L 354.081278 128.13937 
L 358.939385 131.986788 
L 363.666152 136.047276 
L 368.254868 140.303972 
L 372.699165 144.73998 
L 376.993497 149.338733 
L 381.132668 154.083911 
L 385.112072 158.95971 
L 388.927692 163.951074 
L 392.575825 169.043365 
L 396.053454 174.223131 
L 399.357837 179.477466 
L 402.486695 184.794434 
L 405.438179 190.163153 
L 408.210668 195.573312 
L 410.803011 201.015938 
L 413.214235 206.482614 
L 415.443667 211.96588 
L 417.490894 217.459197 
L 419.355642 222.956526 
L 421.037902 228.452868 
L 422.537765 233.943637 
L 423.855483 239.424921 
L 424.99144 244.893398 
L 425.946091 250.346063 
L 426.720022 255.780484 
L 427.313867 261.194436 
L 427.728338 266.586003 
L 427.964214 271.95348 
L 428.022309 277.295267 
L 427.903514 282.609852 
L 427.60875 287.895722 
L 427.138996 293.151312 
L 426.495293 298.374915 
L 425.678716 303.56472 
L 424.69044 308.718571 
L 423.531688 313.834124 
L 422.203773 318.908662 
L 420.708122 323.93903 
L 419.046229 328.921798 
L 417.219773 333.852835 
L 415.230527 338.72769 
L 413.080436 343.541298 
L 410.77165 348.287967 
L 408.306443 352.961612 
L 405.687406 357.555274 
L 402.917285 362.061618 
L 399.99911 366.472621 
L 396.93622 370.779632 
L 393.732149 374.973606 
L 390.390886 379.044752 
L 386.916632 382.982989 
L 383.313976 386.777749 
L 379.5879 390.41811 
L 375.743634 393.892946 
L 371.78695 397.19092 
L 367.723855 400.300664 
L 363.560795 403.210861 
L 359.304613 405.910412 
L 354.962411 408.388396 
L 350.541799 410.634564 
L 346.050587 412.639017 
L 341.496966 414.392685 
L 336.889419 415.887392 
L 332.236627 417.115614 
L 327.547587 418.071391 
L 322.831404 418.74946 
L 318.097375 419.146055 
L 313.354887 419.258772 
L 308.613394 419.086176 
L 303.882356 418.628829 
L 299.171214 417.888109 
L 294.489329 416.867075 
L 289.845921 415.570119 
L 285.250108 414.002587 
L 280.710702 412.171525 
L 276.236373 410.084623 
L 271.83545 407.750821 
L 267.515947 405.179914 
L 263.285637 402.3823 
L 259.151772 399.369243 
L 255.121373 396.152312 
L 253.147031 394.471144 
L 253.147031 394.471144 
" clip-path="url(#p912d9e89bc)" style="fill: none; stroke-dasharray: 12.95,5.6; stroke-dashoffset: 0; stroke: #ff0000; stroke-opacity: 0.8; stroke-width: 3.5"/>
   </g>
   <g id="legend_1">
    <g id="patch_7">
     <path d="M 229.240312 307.234375 
L 374.590312 307.234375 
Q 376.590312 307.234375 376.590312 305.234375 
L 376.590312 247.521875 
Q 376.590312 245.521875 374.590312 245.521875 
L 229.240312 245.521875 
Q 227.240312 245.521875 227.240312 247.521875 
L 227.240312 305.234375 
Q 227.240312 307.234375 229.240312 307.234375 
z
" style="fill: #ffffff; opacity: 0.8; stroke: #cccccc; stroke-linejoin: miter"/>
    </g>
    <g id="line2d_15">
     <path d="M 231.240312 253.620312 
L 241.240312 253.620312 
L 251.240312 253.620312 
" style="fill: none; stroke: #000000; stroke-opacity: 0.3; stroke-width: 7; stroke-linecap: square"/>
    </g>
    <g id="text_14">
     <!-- True/Underlying model -->
     <g transform="translate(259.240312 257.120312) scale(0.1 -0.1)">
      <defs>
       <path id="DejaVuSans-54" d="M -19 4666 
L 3928 4666 
L 3928 4134 
L 2272 4134 
L 2272 0 
L 1638 0 
L 1638 4134 
L -19 4134 
L -19 4666 
z
" transform="scale(0.015625)"/>
       <path id="DejaVuSans-75" d="M 544 1381 
L 544 3500 
L 1119 3500 
L 1119 1403 
Q 1119 906 1312 657 
Q 1506 409 1894 409 
Q 2359 409 2629 706 
Q 2900 1003 2900 1516 
L 2900 3500 
L 3475 3500 
L 3475 0 
L 2900 0 
L 2900 538 
Q 2691 219 2414 64 
Q 2138 -91 1772 -91 
Q 1169 -91 856 284 
Q 544 659 544 1381 
z
M 1991 3584 
L 1991 3584 
z
" transform="scale(0.015625)"/>
       <path id="DejaVuSans-2f" d="M 1625 4666 
L 2156 4666 
L 531 -594 
L 0 -594 
L 1625 4666 
z
" transform="scale(0.015625)"/>
       <path id="DejaVuSans-55" d="M 556 4666 
L 1191 4666 
L 1191 1831 
Q 1191 1081 1462 751 
Q 1734 422 2344 422 
Q 2950 422 3222 751 
Q 3494 1081 3494 1831 
L 3494 4666 
L 4128 4666 
L 4128 1753 
Q 4128 841 3676 375 
Q 3225 -91 2344 -91 
Q 1459 -91 1007 375 
Q 556 841 556 1753 
L 556 4666 
z
" transform="scale(0.015625)"/>
       <path id="DejaVuSans-6e" d="M 3513 2113 
L 3513 0 
L 2938 0 
L 2938 2094 
Q 2938 2591 2744 2837 
Q 2550 3084 2163 3084 
Q 1697 3084 1428 2787 
Q 1159 2491 1159 1978 
L 1159 0 
L 581 0 
L 581 3500 
L 1159 3500 
L 1159 2956 
Q 1366 3272 1645 3428 
Q 1925 3584 2291 3584 
Q 2894 3584 3203 3211 
Q 3513 2838 3513 2113 
z
" transform="scale(0.015625)"/>
       <path id="DejaVuSans-64" d="M 2906 2969 
L 2906 4863 
L 3481 4863 
L 3481 0 
L 2906 0 
L 2906 525 
Q 2725 213 2448 61 
Q 2172 -91 1784 -91 
Q 1150 -91 751 415 
Q 353 922 353 1747 
Q 353 2572 751 3078 
Q 1150 3584 1784 3584 
Q 2172 3584 2448 3432 
Q 2725 3281 2906 2969 
z
M 947 1747 
Q 947 1113 1208 752 
Q 1469 391 1925 391 
Q 2381 391 2643 752 
Q 2906 1113 2906 1747 
Q 2906 2381 2643 2742 
Q 2381 3103 1925 3103 
Q 1469 3103 1208 2742 
Q 947 2381 947 1747 
z
" transform="scale(0.015625)"/>
       <path id="DejaVuSans-6c" d="M 603 4863 
L 1178 4863 
L 1178 0 
L 603 0 
L 603 4863 
z
" transform="scale(0.015625)"/>
       <path id="DejaVuSans-79" d="M 2059 -325 
Q 1816 -950 1584 -1140 
Q 1353 -1331 966 -1331 
L 506 -1331 
L 506 -850 
L 844 -850 
Q 1081 -850 1212 -737 
Q 1344 -625 1503 -206 
L 1606 56 
L 191 3500 
L 800 3500 
L 1894 763 
L 2988 3500 
L 3597 3500 
L 2059 -325 
z
" transform="scale(0.015625)"/>
       <path id="DejaVuSans-67" d="M 2906 1791 
Q 2906 2416 2648 2759 
Q 2391 3103 1925 3103 
Q 1463 3103 1205 2759 
Q 947 2416 947 1791 
Q 947 1169 1205 825 
Q 1463 481 1925 481 
Q 2391 481 2648 825 
Q 2906 1169 2906 1791 
z
M 3481 434 
Q 3481 -459 3084 -895 
Q 2688 -1331 1869 -1331 
Q 1566 -1331 1297 -1286 
Q 1028 -1241 775 -1147 
L 775 -588 
Q 1028 -725 1275 -790 
Q 1522 -856 1778 -856 
Q 2344 -856 2625 -561 
Q 2906 -266 2906 331 
L 2906 616 
Q 2728 306 2450 153 
Q 2172 0 1784 0 
Q 1141 0 747 490 
Q 353 981 353 1791 
Q 353 2603 747 3093 
Q 1141 3584 1784 3584 
Q 2172 3584 2450 3431 
Q 2728 3278 2906 2969 
L 2906 3500 
L 3481 3500 
L 3481 434 
z
" transform="scale(0.015625)"/>
       <path id="DejaVuSans-6d" d="M 3328 2828 
Q 3544 3216 3844 3400 
Q 4144 3584 4550 3584 
Q 5097 3584 5394 3201 
Q 5691 2819 5691 2113 
L 5691 0 
L 5113 0 
L 5113 2094 
Q 5113 2597 4934 2840 
Q 4756 3084 4391 3084 
Q 3944 3084 3684 2787 
Q 3425 2491 3425 1978 
L 3425 0 
L 2847 0 
L 2847 2094 
Q 2847 2600 2669 2842 
Q 2491 3084 2119 3084 
Q 1678 3084 1418 2786 
Q 1159 2488 1159 1978 
L 1159 0 
L 581 0 
L 581 3500 
L 1159 3500 
L 1159 2956 
Q 1356 3278 1631 3431 
Q 1906 3584 2284 3584 
Q 2666 3584 2933 3390 
Q 3200 3197 3328 2828 
z
" transform="scale(0.015625)"/>
      </defs>
      <use xlink:href="#DejaVuSans-54"/>
      <use xlink:href="#DejaVuSans-72" transform="translate(46.333984 0)"/>
      <use xlink:href="#DejaVuSans-75" transform="translate(87.447266 0)"/>
      <use xlink:href="#DejaVuSans-65" transform="translate(150.826172 0)"/>
      <use xlink:href="#DejaVuSans-2f" transform="translate(212.349609 0)"/>
      <use xlink:href="#DejaVuSans-55" transform="translate(246.041016 0)"/>
      <use xlink:href="#DejaVuSans-6e" transform="translate(319.234375 0)"/>
      <use xlink:href="#DejaVuSans-64" transform="translate(382.613281 0)"/>
      <use xlink:href="#DejaVuSans-65" transform="translate(446.089844 0)"/>
      <use xlink:href="#DejaVuSans-72" transform="translate(507.613281 0)"/>
      <use xlink:href="#DejaVuSans-6c" transform="translate(548.726562 0)"/>
      <use xlink:href="#DejaVuSans-79" transform="translate(576.509766 0)"/>
      <use xlink:href="#DejaVuSans-69" transform="translate(635.689453 0)"/>
      <use xlink:href="#DejaVuSans-6e" transform="translate(663.472656 0)"/>
      <use xlink:href="#DejaVuSans-67" transform="translate(726.851562 0)"/>
      <use xlink:href="#DejaVuSans-20" transform="translate(790.328125 0)"/>
      <use xlink:href="#DejaVuSans-6d" transform="translate(822.115234 0)"/>
      <use xlink:href="#DejaVuSans-6f" transform="translate(919.527344 0)"/>
      <use xlink:href="#DejaVuSans-64" transform="translate(980.708984 0)"/>
      <use xlink:href="#DejaVuSans-65" transform="translate(1044.185547 0)"/>
      <use xlink:href="#DejaVuSans-6c" transform="translate(1105.708984 0)"/>
     </g>
    </g>
    <g id="line2d_16">
     <path d="M 231.240312 268.298437 
L 241.240312 268.298437 
L 251.240312 268.298437 
" style="fill: none; stroke-dasharray: 12.95,5.6; stroke-dashoffset: 0; stroke: #ff0000; stroke-opacity: 0.8; stroke-width: 3.5"/>
    </g>
    <g id="text_15">
     <!-- AutoSINDy -->
     <g transform="translate(259.240312 271.798437) scale(0.1 -0.1)">
      <defs>
       <path id="DejaVuSans-41" d="M 2188 4044 
L 1331 1722 
L 3047 1722 
L 2188 4044 
z
M 1831 4666 
L 2547 4666 
L 4325 0 
L 3669 0 
L 3244 1197 
L 1141 1197 
L 716 0 
L 50 0 
L 1831 4666 
z
" transform="scale(0.015625)"/>
       <path id="DejaVuSans-53" d="M 3425 4513 
L 3425 3897 
Q 3066 4069 2747 4153 
Q 2428 4238 2131 4238 
Q 1616 4238 1336 4038 
Q 1056 3838 1056 3469 
Q 1056 3159 1242 3001 
Q 1428 2844 1947 2747 
L 2328 2669 
Q 3034 2534 3370 2195 
Q 3706 1856 3706 1288 
Q 3706 609 3251 259 
Q 2797 -91 1919 -91 
Q 1588 -91 1214 -16 
Q 841 59 441 206 
L 441 856 
Q 825 641 1194 531 
Q 1563 422 1919 422 
Q 2459 422 2753 634 
Q 3047 847 3047 1241 
Q 3047 1584 2836 1778 
Q 2625 1972 2144 2069 
L 1759 2144 
Q 1053 2284 737 2584 
Q 422 2884 422 3419 
Q 422 4038 858 4394 
Q 1294 4750 2059 4750 
Q 2388 4750 2728 4690 
Q 3069 4631 3425 4513 
z
" transform="scale(0.015625)"/>
       <path id="DejaVuSans-49" d="M 628 4666 
L 1259 4666 
L 1259 0 
L 628 0 
L 628 4666 
z
" transform="scale(0.015625)"/>
       <path id="DejaVuSans-4e" d="M 628 4666 
L 1478 4666 
L 3547 763 
L 3547 4666 
L 4159 4666 
L 4159 0 
L 3309 0 
L 1241 3903 
L 1241 0 
L 628 0 
L 628 4666 
z
" transform="scale(0.015625)"/>
       <path id="DejaVuSans-44" d="M 1259 4147 
L 1259 519 
L 2022 519 
Q 2988 519 3436 956 
Q 3884 1394 3884 2338 
Q 3884 3275 3436 3711 
Q 2988 4147 2022 4147 
L 1259 4147 
z
M 628 4666 
L 1925 4666 
Q 3281 4666 3915 4102 
Q 4550 3538 4550 2338 
Q 4550 1131 3912 565 
Q 3275 0 1925 0 
L 628 0 
L 628 4666 
z
" transform="scale(0.015625)"/>
      </defs>
      <use xlink:href="#DejaVuSans-41"/>
      <use xlink:href="#DejaVuSans-75" transform="translate(68.408203 0)"/>
      <use xlink:href="#DejaVuSans-74" transform="translate(131.787109 0)"/>
      <use xlink:href="#DejaVuSans-6f" transform="translate(170.996094 0)"/>
      <use xlink:href="#DejaVuSans-53" transform="translate(232.177734 0)"/>
      <use xlink:href="#DejaVuSans-49" transform="translate(295.654297 0)"/>
      <use xlink:href="#DejaVuSans-4e" transform="translate(325.146484 0)"/>
      <use xlink:href="#DejaVuSans-44" transform="translate(399.951172 0)"/>
      <use xlink:href="#DejaVuSans-79" transform="translate(476.953125 0)"/>
     </g>
    </g>
    <g id="line2d_17">
     <path d="M 231.240312 282.976562 
L 241.240312 282.976562 
L 251.240312 282.976562 
" style="fill: none; stroke-dasharray: 3.5,5.775; stroke-dashoffset: 0; stroke: #008000; stroke-opacity: 0.8; stroke-width: 3.5"/>
    </g>
    <g id="text_16">
     <!-- Standard SINDy -->
     <g transform="translate(259.240312 286.476562) scale(0.1 -0.1)">
      <use xlink:href="#DejaVuSans-53"/>
      <use xlink:href="#DejaVuSans-74" transform="translate(63.476562 0)"/>
      <use xlink:href="#DejaVuSans-61" transform="translate(102.685547 0)"/>
      <use xlink:href="#DejaVuSans-6e" transform="translate(163.964844 0)"/>
      <use xlink:href="#DejaVuSans-64" transform="translate(227.34375 0)"/>
      <use xlink:href="#DejaVuSans-61" transform="translate(290.820312 0)"/>
      <use xlink:href="#DejaVuSans-72" transform="translate(352.099609 0)"/>
      <use xlink:href="#DejaVuSans-64" transform="translate(391.462891 0)"/>
      <use xlink:href="#DejaVuSans-20" transform="translate(454.939453 0)"/>
      <use xlink:href="#DejaVuSans-53" transform="translate(486.726562 0)"/>
      <use xlink:href="#DejaVuSans-49" transform="translate(550.203125 0)"/>
      <use xlink:href="#DejaVuSans-4e" transform="translate(579.695312 0)"/>
      <use xlink:href="#DejaVuSans-44" transform="translate(654.5 0)"/>
      <use xlink:href="#DejaVuSans-79" transform="translate(731.501953 0)"/>
     </g>
    </g>
    <g id="line2d_18">
     <path d="M 231.240312 297.654687 
L 241.240312 297.654687 
L 251.240312 297.654687 
" style="fill: none; stroke-dasharray: 22.4,5.6,3.5,5.6; stroke-dashoffset: 0; stroke: #0000ff; stroke-opacity: 0.8; stroke-width: 3.5"/>
    </g>
    <g id="text_17">
     <!-- Standard PySR -->
     <g transform="translate(259.240312 301.154687) scale(0.1 -0.1)">
      <defs>
       <path id="DejaVuSans-52" d="M 2841 2188 
Q 3044 2119 3236 1894 
Q 3428 1669 3622 1275 
L 4263 0 
L 3584 0 
L 2988 1197 
Q 2756 1666 2539 1819 
Q 2322 1972 1947 1972 
L 1259 1972 
L 1259 0 
L 628 0 
L 628 4666 
L 2053 4666 
Q 2853 4666 3247 4331 
Q 3641 3997 3641 3322 
Q 3641 2881 3436 2590 
Q 3231 2300 2841 2188 
z
M 1259 4147 
L 1259 2491 
L 2053 2491 
Q 2509 2491 2742 2702 
Q 2975 2913 2975 3322 
Q 2975 3731 2742 3939 
Q 2509 4147 2053 4147 
L 1259 4147 
z
" transform="scale(0.015625)"/>
      </defs>
      <use xlink:href="#DejaVuSans-53"/>
      <use xlink:href="#DejaVuSans-74" transform="translate(63.476562 0)"/>
      <use xlink:href="#DejaVuSans-61" transform="translate(102.685547 0)"/>
      <use xlink:href="#DejaVuSans-6e" transform="translate(163.964844 0)"/>
      <use xlink:href="#DejaVuSans-64" transform="translate(227.34375 0)"/>
      <use xlink:href="#DejaVuSans-61" transform="translate(290.820312 0)"/>
      <use xlink:href="#DejaVuSans-72" transform="translate(352.099609 0)"/>
      <use xlink:href="#DejaVuSans-64" transform="translate(391.462891 0)"/>
      <use xlink:href="#DejaVuSans-20" transform="translate(454.939453 0)"/>
      <use xlink:href="#DejaVuSans-50" transform="translate(486.726562 0)"/>
      <use xlink:href="#DejaVuSans-79" transform="translate(547.029297 0)"/>
      <use xlink:href="#DejaVuSans-53" transform="translate(606.208984 0)"/>
      <use xlink:href="#DejaVuSans-52" transform="translate(669.685547 0)"/>
     </g>
    </g>
   </g>
  </g>
 </g>
 <defs>
  <clipPath id="p912d9e89bc">
   <rect x="42.620313" y="22.318125" width="518.59" height="508.12"/>
  </clipPath>
 </defs>
</svg>
