<?xml version="1.0" encoding="utf-8" standalone="no"?>
<!DOCTYPE svg PUBLIC "-//W3C//DTD SVG 1.1//EN"
  "http://www.w3.org/Graphics/SVG/1.1/DTD/svg11.dtd">
<svg xmlns:xlink="http://www.w3.org/1999/xlink" width="568.412812pt" height="567.994375pt" viewBox="0 0 568.412812 567.994375" xmlns="http://www.w3.org/2000/svg" version="1.1">
 <metadata>
  <rdf:RDF xmlns:dc="http://purl.org/dc/elements/1.1/" xmlns:cc="http://creativecommons.org/ns#" xmlns:rdf="http://www.w3.org/1999/02/22-rdf-syntax-ns#">
   <cc:Work>
    <dc:type rdf:resource="http://purl.org/dc/dcmitype/StillImage"/>
    <dc:date>2026-04-02T02:21:27.979078</dc:date>
    <dc:format>image/svg+xml</dc:format>
    <dc:creator>
     <cc:Agent>
      <dc:title>Matplotlib v3.10.7, https://matplotlib.org/</dc:title>
     </cc:Agent>
    </dc:creator>
   </cc:Work>
  </rdf:RDF>
 </metadata>
 <defs>
  <style type="text/css">*{stroke-linejoin: round; stroke-linecap: butt}</style>
 </defs>
 <g id="figure_1">
  <g id="patch_1">
   <path d="M 0 567.994375 
L 568.412812 567.994375 
L 568.412812 0 
L 0 0 
z
" style="fill: #ffffff"/>
  </g>
  <g id="axes_1">
   <g id="patch_2">
    <path d="M 48.982813 530.438125 
L 561.212812 530.438125 
L 561.212812 22.318125 
L 48.982813 22.318125 
z
" style="fill: #ffffff"/>
   </g>
   <g id="matplotlib.axis_1">
    <g id="xtick_1">
     <g id="line2d_1">
      <defs>
       <path id="mf3cf05421e" d="M 0 0 
L 0 3.5 
" style="stroke: #000000; stroke-width: 0.8"/>
      </defs>
      <g>
       <use xlink:href="#mf3cf05421e" x="89.679783" y="530.438125" style="stroke: #000000; stroke-width: 0.8"/>
      </g>
     </g>
     <g id="text_1">
      <!-- −15 -->
      <g transform="translate(79.127439 545.036562) scale(0.1 -0.1)">
       <defs>
        <path id="DejaVuSans-2212" d="M 678 2272 
L 4684 2272 
L 4684 1741 
L 678 1741 
L 678 2272 
z
" transform="scale(0.015625)"/>
        <path id="DejaVuSans-31" d="M 794 531 
L 1825 531 
L 1825 4091 
L 703 3866 
L 703 4441 
L 1819 4666 
L 2450 4666 
L 2450 531 
L 3481 531 
L 3481 0 
L 794 0 
L 794 531 
z
" transform="scale(0.015625)"/>
        <path id="DejaVuSans-35" d="M 691 4666 
L 3169 4666 
L 3169 4134 
L 1269 4134 
L 1269 2991 
Q 1406 3038 1543 3061 
Q 1681 3084 1819 3084 
Q 2600 3084 3056 2656 
Q 3513 2228 3513 1497 
Q 3513 744 3044 326 
Q 2575 -91 1722 -91 
Q 1428 -91 1123 -41 
Q 819 9 494 109 
L 494 744 
Q 775 591 1075 516 
Q 1375 441 1709 441 
Q 2250 441 2565 725 
Q 2881 1009 2881 1497 
Q 2881 1984 2565 2268 
Q 2250 2553 1709 2553 
Q 1456 2553 1204 2497 
Q 953 2441 691 2322 
L 691 4666 
z
" transform="scale(0.015625)"/>
       </defs>
       <use xlink:href="#DejaVuSans-2212"/>
       <use xlink:href="#DejaVuSans-31" transform="translate(83.789062 0)"/>
       <use xlink:href="#DejaVuSans-35" transform="translate(147.412109 0)"/>
      </g>
     </g>
    </g>
    <g id="xtick_2">
     <g id="line2d_2">
      <g>
       <use xlink:href="#mf3cf05421e" x="149.146781" y="530.438125" style="stroke: #000000; stroke-width: 0.8"/>
      </g>
     </g>
     <g id="text_2">
      <!-- −10 -->
      <g transform="translate(138.594437 545.036562) scale(0.1 -0.1)">
       <defs>
        <path id="DejaVuSans-30" d="M 2034 4250 
Q 1547 4250 1301 3770 
Q 1056 3291 1056 2328 
Q 1056 1369 1301 889 
Q 1547 409 2034 409 
Q 2525 409 2770 889 
Q 3016 1369 3016 2328 
Q 3016 3291 2770 3770 
Q 2525 4250 2034 4250 
z
M 2034 4750 
Q 2819 4750 3233 4129 
Q 3647 3509 3647 2328 
Q 3647 1150 3233 529 
Q 2819 -91 2034 -91 
Q 1250 -91 836 529 
Q 422 1150 422 2328 
Q 422 3509 836 4129 
Q 1250 4750 2034 4750 
z
" transform="scale(0.015625)"/>
       </defs>
       <use xlink:href="#DejaVuSans-2212"/>
       <use xlink:href="#DejaVuSans-31" transform="translate(83.789062 0)"/>
       <use xlink:href="#DejaVuSans-30" transform="translate(147.412109 0)"/>
      </g>
     </g>
    </g>
    <g id="xtick_3">
     <g id="line2d_3">
      <g>
       <use xlink:href="#mf3cf05421e" x="208.613779" y="530.438125" style="stroke: #000000; stroke-width: 0.8"/>
      </g>
     </g>
     <g id="text_3">
      <!-- −5 -->
      <g transform="translate(201.242685 545.036562) scale(0.1 -0.1)">
       <use xlink:href="#DejaVuSans-2212"/>
       <use xlink:href="#DejaVuSans-35" transform="translate(83.789062 0)"/>
      </g>
     </g>
    </g>
    <g id="xtick_4">
     <g id="line2d_4">
      <g>
       <use xlink:href="#mf3cf05421e" x="268.080777" y="530.438125" style="stroke: #000000; stroke-width: 0.8"/>
      </g>
     </g>
     <g id="text_4">
      <!-- 0 -->
      <g transform="translate(264.899527 545.036562) scale(0.1 -0.1)">
       <use xlink:href="#DejaVuSans-30"/>
      </g>
     </g>
    </g>
    <g id="xtick_5">
     <g id="line2d_5">
      <g>
       <use xlink:href="#mf3cf05421e" x="327.547775" y="530.438125" style="stroke: #000000; stroke-width: 0.8"/>
      </g>
     </g>
     <g id="text_5">
      <!-- 5 -->
      <g transform="translate(324.366525 545.036562) scale(0.1 -0.1)">
       <use xlink:href="#DejaVuSans-35"/>
      </g>
     </g>
    </g>
    <g id="xtick_6">
     <g id="line2d_6">
      <g>
       <use xlink:href="#mf3cf05421e" x="387.014773" y="530.438125" style="stroke: #000000; stroke-width: 0.8"/>
      </g>
     </g>
     <g id="text_6">
      <!-- 10 -->
      <g transform="translate(380.652273 545.036562) scale(0.1 -0.1)">
       <use xlink:href="#DejaVuSans-31"/>
       <use xlink:href="#DejaVuSans-30" transform="translate(63.623047 0)"/>
      </g>
     </g>
    </g>
    <g id="xtick_7">
     <g id="line2d_7">
      <g>
       <use xlink:href="#mf3cf05421e" x="446.481771" y="530.438125" style="stroke: #000000; stroke-width: 0.8"/>
      </g>
     </g>
     <g id="text_7">
      <!-- 15 -->
      <g transform="translate(440.119271 545.036562) scale(0.1 -0.1)">
       <use xlink:href="#DejaVuSans-31"/>
       <use xlink:href="#DejaVuSans-35" transform="translate(63.623047 0)"/>
      </g>
     </g>
    </g>
    <g id="xtick_8">
     <g id="line2d_8">
      <g>
       <use xlink:href="#mf3cf05421e" x="505.948769" y="530.438125" style="stroke: #000000; stroke-width: 0.8"/>
      </g>
     </g>
     <g id="text_8">
      <!-- 20 -->
      <g transform="translate(499.586269 545.036562) scale(0.1 -0.1)">
       <defs>
        <path id="DejaVuSans-32" d="M 1228 531 
L 3431 531 
L 3431 0 
L 469 0 
L 469 531 
Q 828 903 1448 1529 
Q 2069 2156 2228 2338 
Q 2531 2678 2651 2914 
Q 2772 3150 2772 3378 
Q 2772 3750 2511 3984 
Q 2250 4219 1831 4219 
Q 1534 4219 1204 4116 
Q 875 4013 500 3803 
L 500 4441 
Q 881 4594 1212 4672 
Q 1544 4750 1819 4750 
Q 2544 4750 2975 4387 
Q 3406 4025 3406 3419 
Q 3406 3131 3298 2873 
Q 3191 2616 2906 2266 
Q 2828 2175 2409 1742 
Q 1991 1309 1228 531 
z
" transform="scale(0.015625)"/>
       </defs>
       <use xlink:href="#DejaVuSans-32"/>
       <use xlink:href="#DejaVuSans-30" transform="translate(63.623047 0)"/>
      </g>
     </g>
    </g>
    <g id="text_9">
     <!-- x0 -->
     <g transform="translate(298.957187 558.714687) scale(0.1 -0.1)">
      <defs>
       <path id="DejaVuSans-78" d="M 3513 3500 
L 2247 1797 
L 3578 0 
L 2900 0 
L 1881 1375 
L 863 0 
L 184 0 
L 1544 1831 
L 300 3500 
L 978 3500 
L 1906 2253 
L 2834 3500 
L 3513 3500 
z
" transform="scale(0.015625)"/>
      </defs>
      <use xlink:href="#DejaVuSans-78"/>
      <use xlink:href="#DejaVuSans-30" transform="translate(59.179688 0)"/>
     </g>
    </g>
   </g>
   <g id="matplotlib.axis_2">
    <g id="ytick_1">
     <g id="line2d_9">
      <defs>
       <path id="m5c2266e1a1" d="M 0 0 
L -3.5 0 
" style="stroke: #000000; stroke-width: 0.8"/>
      </defs>
      <g>
       <use xlink:href="#m5c2266e1a1" x="48.982813" y="495.448535" style="stroke: #000000; stroke-width: 0.8"/>
      </g>
     </g>
     <g id="text_10">
      <!-- −20 -->
      <g transform="translate(20.878125 499.247754) scale(0.1 -0.1)">
       <use xlink:href="#DejaVuSans-2212"/>
       <use xlink:href="#DejaVuSans-32" transform="translate(83.789062 0)"/>
       <use xlink:href="#DejaVuSans-30" transform="translate(147.412109 0)"/>
      </g>
     </g>
    </g>
    <g id="ytick_2">
     <g id="line2d_10">
      <g>
       <use xlink:href="#m5c2266e1a1" x="48.982813" y="412.192583" style="stroke: #000000; stroke-width: 0.8"/>
      </g>
     </g>
     <g id="text_11">
      <!-- −10 -->
      <g transform="translate(20.878125 415.991802) scale(0.1 -0.1)">
       <use xlink:href="#DejaVuSans-2212"/>
       <use xlink:href="#DejaVuSans-31" transform="translate(83.789062 0)"/>
       <use xlink:href="#DejaVuSans-30" transform="translate(147.412109 0)"/>
      </g>
     </g>
    </g>
    <g id="ytick_3">
     <g id="line2d_11">
      <g>
       <use xlink:href="#m5c2266e1a1" x="48.982813" y="328.936632" style="stroke: #000000; stroke-width: 0.8"/>
      </g>
     </g>
     <g id="text_12">
      <!-- 0 -->
      <g transform="translate(35.620312 332.73585) scale(0.1 -0.1)">
       <use xlink:href="#DejaVuSans-30"/>
      </g>
     </g>
    </g>
    <g id="ytick_4">
     <g id="line2d_12">
      <g>
       <use xlink:href="#m5c2266e1a1" x="48.982813" y="245.68068" style="stroke: #000000; stroke-width: 0.8"/>
      </g>
     </g>
     <g id="text_13">
      <!-- 10 -->
      <g transform="translate(29.257812 249.479899) scale(0.1 -0.1)">
       <use xlink:href="#DejaVuSans-31"/>
       <use xlink:href="#DejaVuSans-30" transform="translate(63.623047 0)"/>
      </g>
     </g>
    </g>
    <g id="ytick_5">
     <g id="line2d_13">
      <g>
       <use xlink:href="#m5c2266e1a1" x="48.982813" y="162.424728" style="stroke: #000000; stroke-width: 0.8"/>
      </g>
     </g>
     <g id="text_14">
      <!-- 20 -->
      <g transform="translate(29.257812 166.223947) scale(0.1 -0.1)">
       <use xlink:href="#DejaVuSans-32"/>
       <use xlink:href="#DejaVuSans-30" transform="translate(63.623047 0)"/>
      </g>
     </g>
    </g>
    <g id="ytick_6">
     <g id="line2d_14">
      <g>
       <use xlink:href="#m5c2266e1a1" x="48.982813" y="79.168777" style="stroke: #000000; stroke-width: 0.8"/>
      </g>
     </g>
     <g id="text_15">
      <!-- 30 -->
      <g transform="translate(29.257812 82.967995) scale(0.1 -0.1)">
       <defs>
        <path id="DejaVuSans-33" d="M 2597 2516 
Q 3050 2419 3304 2112 
Q 3559 1806 3559 1356 
Q 3559 666 3084 287 
Q 2609 -91 1734 -91 
Q 1441 -91 1130 -33 
Q 819 25 488 141 
L 488 750 
Q 750 597 1062 519 
Q 1375 441 1716 441 
Q 2309 441 2620 675 
Q 2931 909 2931 1356 
Q 2931 1769 2642 2001 
Q 2353 2234 1838 2234 
L 1294 2234 
L 1294 2753 
L 1863 2753 
Q 2328 2753 2575 2939 
Q 2822 3125 2822 3475 
Q 2822 3834 2567 4026 
Q 2313 4219 1838 4219 
Q 1578 4219 1281 4162 
Q 984 4106 628 3988 
L 628 4550 
Q 988 4650 1302 4700 
Q 1616 4750 1894 4750 
Q 2613 4750 3031 4423 
Q 3450 4097 3450 3541 
Q 3450 3153 3228 2886 
Q 3006 2619 2597 2516 
z
" transform="scale(0.015625)"/>
       </defs>
       <use xlink:href="#DejaVuSans-33"/>
       <use xlink:href="#DejaVuSans-30" transform="translate(63.623047 0)"/>
      </g>
     </g>
    </g>
    <g id="text_16">
     <!-- x1 -->
     <g transform="translate(14.798438 282.51875) rotate(-90) scale(0.1 -0.1)">
      <use xlink:href="#DejaVuSans-78"/>
      <use xlink:href="#DejaVuSans-31" transform="translate(59.179688 0)"/>
     </g>
    </g>
   </g>
   <g id="line2d_15">
    <path d="M 387.014773 245.68068 
L 387.408062 239.992905 
L 388.515629 234.65682 
L 390.220863 229.762509 
L 392.396274 225.424073 
L 394.903847 221.772031 
L 397.616503 218.812096 
L 400.435234 216.471439 
L 403.266003 214.733499 
L 406.017639 213.640327 
L 408.601835 213.292586 
L 410.939034 213.896605 
L 412.914373 215.504378 
L 414.405558 217.923795 
L 415.345914 221.001874 
L 415.725228 224.629428 
L 415.570527 228.762891 
L 414.835089 233.466449 
L 413.488367 238.712025 
L 411.520738 244.421711 
L 408.938452 250.477141 
L 405.762037 256.716319 
L 402.022741 262.927272 
L 397.801758 268.971758 
L 393.186725 274.748029 
L 388.261425 280.173851 
L 383.105781 285.186502 
L 377.795861 289.742777 
L 372.403876 293.818983 
L 366.998179 297.410942 
L 361.643265 300.533989 
L 356.409624 303.159497 
L 351.361576 305.253701 
L 346.539836 306.875948 
L 341.978891 308.080451 
L 337.707126 308.915575 
L 333.746822 309.423838 
L 330.114155 309.641912 
L 326.819198 309.60062 
L 323.86592 309.324938 
L 321.24516 308.835737 
L 318.947539 308.158645 
L 316.971158 307.318512 
L 315.310961 306.336205 
L 313.958726 305.22861 
L 312.903069 304.008625 
L 312.129441 302.685168 
L 311.62013 301.26317 
L 311.354258 299.743581 
L 311.313091 298.118572 
L 311.498142 296.369421 
L 311.912041 294.48641 
L 312.556439 292.459953 
L 313.432259 290.28013 
L 314.539693 287.936686 
L 315.878205 285.419032 
L 319.242669 279.817052 
L 323.561038 273.416072 
L 328.888818 266.149845 
L 335.222084 257.90741 
L 342.625523 248.631786 
L 351.234593 238.321481 
L 356.009764 232.845789 
L 361.068811 227.304034 
L 366.412725 221.78946 
L 372.017108 216.386439 
L 377.832137 211.170498 
L 383.782563 206.208326 
L 389.787612 201.58171 
L 395.796576 197.620938 
L 401.711252 194.710646 
L 407.393786 193.096296 
L 412.667627 192.882168 
L 417.334677 194.000017 
L 421.300986 196.357361 
L 424.506124 200.006512 
L 426.853643 204.989153 
L 428.21058 211.331817 
L 428.442973 218.929938 
L 427.551497 227.335798 
L 425.57355 236.210425 
L 422.569904 245.248955 
L 418.62609 254.173204 
L 413.853 262.777558 
L 408.386263 270.980335 
L 402.364086 278.655194 
L 395.917867 285.709729 
L 389.172117 292.090071 
L 382.244079 297.774845 
L 375.247654 302.684027 
L 368.30605 306.794093 
L 361.525925 310.134347 
L 354.992707 312.76258 
L 348.770599 314.765067 
L 342.902573 316.256571 
L 337.420278 317.314325 
L 332.346522 317.964084 
L 327.689988 318.266615 
L 323.454075 318.275913 
L 319.636901 318.039181 
L 316.231304 317.596827 
L 313.22484 316.982464 
L 310.599204 316.224325 
L 308.334341 315.34736 
L 306.411461 314.370837 
L 304.811875 313.308408 
L 303.516997 312.168104 
L 302.508339 310.952338 
L 301.767516 309.657906 
L 301.275829 308.276039 
L 301.017266 306.799028 
L 300.988028 305.226151 
L 301.184977 303.555406 
L 301.603935 301.782685 
L 302.239682 299.901776 
L 303.085956 297.904361 
L 304.135454 295.780019 
L 306.813695 291.100181 
L 310.288029 285.781264 
L 314.609133 279.750783 
L 319.820285 272.93681 
L 325.965236 265.272334 
L 333.105042 256.708296 
L 345.810151 241.966311 
L 355.711684 230.85233 
L 361.103757 224.997374 
L 366.767218 219.147842 
L 372.693405 213.48574 
L 378.832145 208.189686 
L 385.091436 203.435121 
L 391.338024 199.394456 
L 397.469963 196.216688 
L 403.378688 193.902637 
L 408.973804 192.375203 
L 414.197633 191.818815 
L 418.895899 192.704048 
L 422.926827 194.946798 
L 426.191105 198.415937 
L 428.56861 203.305046 
L 429.95742 209.494521 
L 430.305206 216.634427 
L 429.607311 224.320969 
L 427.883407 232.622057 
L 425.171013 241.269178 
L 421.532389 249.996367 
L 417.050929 258.594465 
L 411.837969 266.89706 
L 406.028253 274.744906 
L 399.750982 282.021504 
L 393.128908 288.654641 
L 386.278329 294.616388 
L 379.308534 299.903873 
L 372.329432 304.421058 
L 365.456605 308.158823 
L 358.787262 311.154446 
L 352.398009 313.472614 
L 346.344848 315.205415 
L 340.66324 316.471919 
L 335.379356 317.332175 
L 330.509105 317.814694 
L 326.057378 317.977923 
L 322.02435 317.872536 
L 318.405473 317.541438 
L 315.191482 317.019763 
L 312.368175 316.335557 
L 309.915984 315.517201 
L 307.815898 314.587979 
L 306.049368 313.564784 
L 304.597928 312.458822 
L 303.443188 311.275615 
L 302.566842 310.014999 
L 301.950662 308.671126 
L 301.575668 307.233618 
L 301.432148 305.698502 
L 301.517781 304.064812 
L 301.829207 302.329545 
L 302.361968 300.48763 
L 303.110506 298.531936 
L 304.068166 296.453269 
L 306.578826 291.879961 
L 309.879219 286.681045 
L 314.021814 280.787528 
L 319.048444 274.126961 
L 325.00291 266.630767 
L 331.939238 258.243242 
L 344.329112 243.790431 
L 353.999526 232.864166 
L 359.289519 227.068652 
L 364.896867 221.164308 
L 370.768516 215.380995 
L 376.831748 209.930794 
L 383.009283 204.987491 
L 389.219282 200.686578 
L 395.375344 197.125249 
L 401.385579 194.361777 
L 407.087134 192.433118 
L 412.41296 191.605601 
L 417.308159 192.157221 
L 421.641538 194.277628 
L 425.205613 198.068132 
L 427.72814 203.539458 
L 429.119689 210.492541 
L 429.356272 218.52638 
L 428.421018 227.275436 
L 426.344498 236.428955 
L 423.204727 245.730977 
L 419.09989 254.947986 
L 414.147718 263.86831 
L 408.489537 272.333764 
L 402.263922 280.217388 
L 395.606695 287.423447 
L 388.650927 293.887431 
L 381.526197 299.573453 
L 374.3556 304.444428 
L 367.26323 308.498982 
L 360.355157 311.770452 
L 353.71596 314.320908 
L 347.408735 316.241148 
L 341.475087 317.650699 
L 335.943635 318.632529 
L 330.834762 319.213197 
L 326.15559 319.456002 
L 321.90756 319.416259 
L 318.086443 319.141199 
L 314.682344 318.669974 
L 311.679535 318.0342 
L 309.05793 317.263029 
L 306.798206 316.381216 
L 304.880994 315.407459 
L 303.286697 314.354515 
L 301.995483 313.229199 
L 300.987294 312.032387 
L 300.241834 310.759015 
L 299.738955 309.400678 
L 299.469887 307.956039 
L 299.429983 306.4244 
L 299.613658 304.80282 
L 300.014386 303.086114 
L 300.624701 301.26686 
L 301.436199 299.33539 
L 303.626747 295.087243 
L 306.581304 290.258183 
L 310.343593 284.761686 
L 314.954021 278.512515 
L 320.457062 271.434994 
L 326.914672 263.488992 
L 334.380085 254.616993 
L 342.913278 244.743452 
L 352.578778 233.835025 
L 357.819679 228.063709 
L 363.369957 222.164244 
L 369.235167 216.226213 
L 375.386151 210.364958 
L 381.759042 204.721584 
L 388.255259 199.462957 
L 394.771786 194.812871 
L 401.236725 191.069782 
L 407.51093 188.35074 
L 413.489217 186.619603 
L 419.07374 186.172875 
L 424.057471 187.386195 
L 428.271431 190.189992 
L 431.626225 194.354475 
L 433.988397 200.233046 
L 435.188209 207.709815 
L 435.167576 216.332514 
L 433.93392 225.694198 
L 431.501609 235.606804 
L 427.927234 245.804532 
L 423.301132 256.000483 
L 417.739844 265.877043 
L 411.397288 275.175993 
L 404.450115 283.743613 
L 397.06453 291.47219 
L 389.395939 298.299323 
L 381.588951 304.207924 
L 373.777853 309.220425 
L 366.087612 313.360158 
L 358.624998 316.674883 
L 351.476926 319.232062 
L 344.710662 321.116312 
L 338.37382 322.429402 
L 332.494608 323.288326 
L 327.087878 323.765027 
L 322.15435 323.914389 
L 317.687655 323.795492 
L 313.677048 323.459095 
L 310.107416 322.947634 
L 306.959274 322.295221 
L 304.207402 321.531961 
L 301.826482 320.681999 
L 299.793619 319.761122 
L 298.086067 318.780665 
L 296.681232 317.747513 
L 295.556668 316.6641 
L 294.690082 315.528408 
L 294.05849 314.334483 
L 293.64526 313.08018 
L 293.444218 311.76614 
L 293.44897 310.390242 
L 293.652455 308.947477 
L 294.046948 307.429942 
L 294.624057 305.826847 
L 296.289219 302.306358 
L 298.602257 298.259811 
L 301.6246 293.576534 
L 305.422283 288.116785 
L 312.748709 278.11331 
L 322.376283 265.426656 
L 330.31811 255.36656 
L 339.589784 244.121647 
L 344.738368 238.123091 
L 356.060466 225.44519 
L 362.223619 218.769283 
L 368.720733 211.922489 
L 375.550104 205.127089 
L 382.63307 198.65395 
L 389.870568 192.648465 
L 397.1811 187.257801 
L 404.494651 182.671417 
L 411.664555 179.249793 
L 418.523541 177.025713 
L 424.95288 176.211719 
L 430.738539 177.346189 
L 435.692151 180.217619 
L 439.655717 185.088739 
L 442.426318 192.060295 
L 443.86565 200.643602 
L 443.895867 210.649233 
L 442.476341 221.948016 
L 439.586007 234.273619 
L 435.229884 247.214012 
L 429.508956 260.23946 
L 422.591724 272.885339 
L 414.669163 284.764083 
L 405.954107 295.563713 
L 396.68125 305.047829 
L 387.100829 313.105299 
L 377.430138 319.842101 
L 367.848875 325.348476 
L 358.508777 329.726343 
L 349.533577 333.093375 
L 341.019184 335.582971 
L 333.040094 337.338029 
L 325.627219 338.493609 
L 318.790632 339.170179 
L 312.531983 339.472675 
L 306.844501 339.490511 
L 301.712993 339.29757 
L 297.113843 338.952212 
L 293.009042 338.502231 
L 286.127594 337.449049 
L 280.787195 336.3816 
L 272.269012 334.354102 
L 269.311437 333.737475 
L 267.866678 333.577464 
L 266.700889 333.60899 
L 265.717236 333.825079 
L 264.828731 334.218891 
L 263.975677 334.797775 
L 262.63978 336.041045 
L 261.09096 337.805629 
L 257.59118 342.275829 
L 252.152272 349.619927 
L 221.20451 391.999637 
L 211.726302 404.519629 
L 200.426824 419.091634 
L 194.041618 427.103953 
L 187.151977 435.525446 
L 179.755982 444.267334 
L 171.858647 453.21484 
L 163.474957 462.199792 
L 154.668757 471.016972 
L 145.53354 479.492927 
L 136.166669 487.430813 
L 126.669183 494.609306 
L 117.162813 500.756608 
L 107.882181 505.236044 
L 99.023809 507.341761 
L 90.848047 506.578555 
L 83.703142 502.657205 
L 78.024613 495.49349 
L 74.161004 485.139159 
L 72.265994 472.070904 
L 72.464474 456.860771 
L 74.824868 439.982412 
L 79.359137 421.811085 
L 86.014712 402.949658 
L 94.566664 384.796792 
L 104.677166 367.993954 
L 115.994364 352.952298 
L 128.154385 339.90486 
L 140.78826 328.914435 
L 153.573904 319.937411 
L 166.229237 312.845258 
L 178.522252 307.451901 
L 190.27376 303.51728 
L 201.357387 300.747353 
L 211.693865 298.873264 
L 221.247291 297.730063 
L 230.010574 297.138436 
L 237.992751 296.944798 
L 245.218953 297.021503 
L 257.586545 297.597936 
L 275.514992 298.781261 
L 278.894796 298.860358 
L 281.949571 298.802348 
L 284.740307 298.593057 
L 287.312248 298.222008 
L 289.70178 297.678441 
L 291.947079 296.953569 
L 294.086014 296.040936 
L 296.156152 294.936419 
L 298.194751 293.638222 
L 298.194751 293.638222 
" clip-path="url(#pe8bb9ae96a)" style="fill: none; stroke: #000000; stroke-opacity: 0.3; stroke-width: 7; stroke-linecap: square"/>
   </g>
   <g id="line2d_16">
    <path d="M 387.014773 245.68068 
L 387.393659 239.975568 
L 388.461966 234.568643 
L 390.117138 229.502533 
L 392.256569 224.832542 
L 394.777515 220.622882 
L 397.577225 216.935616 
L 400.553966 213.894176 
L 403.60376 211.617763 
L 406.619896 210.207258 
L 409.492933 209.745228 
L 412.110697 210.295921 
L 414.358282 211.905272 
L 416.118052 214.600897 
L 417.276921 218.43145 
L 417.762913 223.46193 
L 417.50765 229.437075 
L 416.464214 236.102621 
L 414.611074 243.241638 
L 411.952083 250.67453 
L 408.516482 258.259034 
L 404.358898 265.89022 
L 399.559343 273.500494 
L 394.223217 281.059592 
L 388.45313 288.490831 
L 382.274189 295.437435 
L 375.795358 301.789353 
L 369.127871 307.491898 
L 362.374122 312.514562 
L 355.627666 316.851007 
L 348.97322 320.519076 
L 342.486663 323.560784 
L 336.2345 326.037805 
L 330.265953 328.003305 
L 324.615053 329.514559 
L 319.307526 330.628377 
L 314.36099 331.3996 
L 309.784953 331.881097 
L 305.580819 332.12377 
L 301.742309 332.171959 
L 298.257959 332.06099 
L 295.113879 331.823436 
L 289.781438 331.07644 
L 285.595831 330.101938 
L 282.393998 329.007172 
L 280.033496 327.855857 
L 278.376614 326.671114 
L 277.302175 325.444168 
L 276.957724 324.808821 
L 276.730067 324.152837 
L 276.593427 322.751159 
L 276.844912 321.172793 
L 277.477291 319.344791 
L 278.501176 317.16691 
L 280.842888 312.946768 
L 285.914941 304.589982 
L 318.197454 252.223179 
L 331.088646 231.305246 
L 347.609153 205.103554 
L 357.503902 189.669737 
L 368.642986 172.570897 
L 381.091409 153.976308 
L 394.87261 134.258824 
L 409.968459 113.994872 
L 426.319261 93.964458 
L 443.738874 75.171025 
L 461.825033 59.383007 
L 480.025081 48.754423 
L 497.53576 45.414489 
L 513.302178 51.465856 
L 526.110407 69.08628 
L 534.720057 98.666517 
L 537.929631 138.164855 
L 535.042418 185.197594 
L 525.885703 237.110209 
L 510.757426 290.683091 
L 490.233994 341.083505 
L 465.420743 385.268523 
L 437.584388 421.637316 
L 408.092021 449.830188 
L 378.137212 470.531594 
L 348.65702 484.773807 
L 320.377564 493.699267 
L 293.797551 498.531779 
L 269.230602 500.104914 
L 246.874021 498.953934 
L 226.86378 495.494368 
L 209.280841 489.994755 
L 194.151157 482.576639 
L 181.460324 473.297952 
L 171.232195 462.333931 
L 163.477237 449.883528 
L 158.159214 436.198535 
L 155.19514 421.584099 
L 154.455276 406.398722 
L 155.763131 391.054262 
L 158.920606 375.991774 
L 163.712865 361.587603 
L 169.873853 348.152657 
L 177.139717 335.922949 
L 185.249821 325.059158 
L 193.946754 315.646625 
L 202.979052 307.693265 
L 212.13155 301.125729 
L 221.218776 295.847717 
L 230.08404 291.748491 
L 238.601517 288.700583 
L 246.676247 286.559795 
L 254.243817 285.166038 
L 261.256515 284.39524 
L 267.694325 284.145912 
L 273.554063 284.313822 
L 278.840519 284.805928 
L 283.566457 285.54038 
L 287.752615 286.44652 
L 291.427706 287.464878 
L 294.628415 288.547167 
L 297.396095 289.648377 
L 301.789985 291.765001 
L 304.922641 293.594865 
L 307.932378 295.470929 
L 309.249823 296.016883 
L 309.789234 296.061468 
L 310.279903 295.947349 
L 310.745152 295.670609 
L 311.693569 294.617263 
L 313.515171 291.760519 
L 320.171575 280.967981 
L 323.682085 275.631036 
L 328.046403 269.326261 
L 333.366013 261.945038 
L 339.749924 253.374958 
L 347.286115 243.639282 
L 356.040448 232.899605 
L 360.888953 227.241591 
L 366.046981 221.455883 
L 371.47787 215.617476 
L 377.169273 209.837375 
L 383.091861 204.248846 
L 389.19466 199.006615 
L 395.40505 194.286863 
L 401.628768 190.287229 
L 407.749905 187.226807 
L 413.630907 185.346149 
L 419.115438 184.90488 
L 424.069554 186.105479 
L 428.3003 189.07864 
L 431.618053 193.890118 
L 433.864895 200.528909 
L 434.914615 208.907254 
L 434.672708 218.860639 
L 433.076376 230.147791 
L 430.091604 242.44629 
L 425.729162 255.312622 
L 420.089103 268.291152 
L 413.300498 280.992771 
L 405.514192 293.095469 
L 396.902798 304.344331 
L 387.660703 314.551541 
L 378.004065 323.596381 
L 368.146277 331.425563 
L 358.247804 338.055996 
L 348.465353 343.545489 
L 338.931404 347.976922 
L 329.753338 351.458124 
L 321.013434 354.121863 
L 312.768892 356.125638 
L 305.055108 357.5923 
L 297.884441 358.608221 
L 291.256181 359.271116 
L 285.161529 359.66834 
L 274.497447 359.963391 
L 258.329044 360.084861 
L 255.147163 360.24091 
L 252.236042 360.503758 
L 249.555605 360.895406 
L 247.063734 361.434313 
L 244.716268 362.135391 
L 242.468072 363.010058 
L 240.288183 364.070353 
L 238.15356 365.332532 
L 236.038732 366.812671 
L 233.915983 368.526261 
L 231.755345 370.488214 
L 229.524603 372.712858 
L 224.713051 378.004545 
L 219.238755 384.529837 
L 212.917857 392.489086 
L 186.701546 426.151632 
L 174.881847 440.595039 
L 168.308013 448.320215 
L 161.3075 456.236624 
L 153.916564 464.174582 
L 146.190877 471.915304 
L 138.205527 479.190906 
L 130.055021 485.684403 
L 121.856944 491.05524 
L 113.794967 494.967623 
L 106.097642 496.921577 
L 99.007568 496.50315 
L 92.781295 493.41347 
L 87.689327 487.468738 
L 84.01612 478.600234 
L 82.042658 466.809517 
L 81.944539 452.320924 
L 83.855395 435.949713 
L 87.820969 418.456007 
L 93.789562 400.485741 
L 101.612034 382.570666 
L 111.041803 365.128349 
L 121.770159 348.555541 
L 133.57247 333.542334 
L 146.125235 320.372896 
L 159.11478 309.156661 
L 172.255739 299.877347 
L 185.291056 292.392955 
L 198.001793 286.497988 
L 210.227578 282.001826 
L 221.84597 278.693418 
L 232.768889 276.369633 
L 242.942611 274.835268 
L 252.343703 273.90619 
L 260.969489 273.439598 
L 268.847883 273.322328 
L 276.01294 273.454195 
L 282.502768 273.74796 
L 293.629414 274.536978 
L 306.442499 275.49585 
L 309.907846 275.633388 
L 313.049971 275.646395 
L 315.90842 275.521114 
L 318.523467 275.245801 
L 320.936114 274.810725 
L 323.188092 274.208166 
L 325.321861 273.432416 
L 327.380607 272.479779 
L 329.40256 271.350797 
L 331.406071 270.047243 
L 333.409664 268.565623 
L 335.431985 266.904944 
L 339.606807 263.056109 
L 344.07734 258.547463 
L 357.244811 245.042374 
L 363.347331 239.129436 
L 369.842613 233.319661 
L 373.195179 230.579555 
L 376.586993 228.030685 
L 379.989828 225.739242 
L 383.36534 223.750808 
L 386.663869 222.152488 
L 389.833619 221.030507 
L 392.821381 220.457263 
L 395.572528 220.491336 
L 398.031024 221.177485 
L 400.139413 222.546646 
L 401.838829 224.615933 
L 403.068988 227.388641 
L 403.770051 230.859112 
L 403.910336 235.026824 
L 403.465534 239.770828 
L 402.420179 244.954352 
L 400.773015 250.452421 
L 398.536999 256.151848 
L 395.739295 261.951239 
L 392.421278 267.760992 
L 388.638534 273.503298 
L 384.460858 279.112138 
L 379.969002 284.527042 
L 375.207801 289.610178 
L 370.245291 294.285857 
L 365.158164 298.519142 
L 360.017161 302.28741 
L 354.887072 305.580349 
L 349.826736 308.399963 
L 344.889041 310.760571 
L 340.120923 312.688803 
L 335.563507 314.223218 
L 331.251402 315.399269 
L 327.203043 316.247776 
L 323.430964 316.800091 
L 319.9448 317.08591 
L 316.75129 317.133278 
L 313.854272 316.968583 
L 311.25469 316.616562 
L 308.950588 316.100297 
L 306.936974 315.441025 
L 305.200404 314.647897 
L 303.731155 313.727706 
L 302.523177 312.688287 
L 301.570135 311.53406 
L 300.865407 310.266034 
L 300.402084 308.881806 
L 300.172969 307.375559 
L 300.17058 305.738066 
L 300.387146 303.956687 
L 300.817457 302.01617 
L 301.466452 299.903377 
L 302.341922 297.603845 
L 303.45254 295.099692 
L 304.807863 292.369618 
L 308.295274 286.129419 
L 312.898294 278.64449 
L 318.728553 269.64244 
L 325.992856 258.88978 
L 334.963877 245.965143 
L 345.881104 230.684463 
L 352.134315 222.188805 
L 358.947201 213.177157 
L 366.339339 203.714679 
L 374.326659 193.886812 
L 382.870783 183.849863 
L 391.94044 173.857505 
L 401.47933 164.236847 
L 411.373298 155.395028 
L 421.450335 147.81922 
L 431.480577 142.076628 
L 441.176306 138.814489 
L 450.223411 138.679952 
L 458.231921 142.210325 
L 464.751679 149.807698 
L 469.388812 161.590304 
L 471.806993 177.390543 
L 471.727443 196.754974 
L 468.934235 218.956793 
L 463.379622 242.91257 
L 455.198183 267.285185 
L 444.623691 290.962705 
L 431.985772 313.093666 
L 417.709904 333.087069 
L 402.313175 350.607357 
L 386.238271 365.411492 
L 369.887411 377.465328 
L 353.638144 386.912748 
L 337.79932 394.011689 
L 322.611087 399.134144 
L 308.245213 402.745619 
L 294.808327 405.098241 
L 282.357105 406.411367 
L 270.921555 406.909709 
L 260.507432 406.781197 
L 251.096247 406.176984 
L 242.646333 405.21483 
L 235.107293 403.993609 
L 228.426875 402.578092 
L 222.550466 401.023517 
L 217.421418 399.379086 
L 212.981057 397.687969 
L 209.168674 395.9873 
L 205.9214 394.308245 
L 203.166591 392.679542 
L 200.856353 391.112467 
L 198.955566 389.612272 
L 197.427525 388.18616 
L 196.233941 386.843283 
L 195.334942 385.594744 
L 194.689075 384.453599 
L 193.982997 382.555451 
L 193.734007 380.896035 
L 193.794458 380.560528 
L 193.837114 380.621135 
L 193.853838 381.200692 
L 193.658923 382.381178 
L 193.116012 384.135303 
L 192.14482 386.439509 
L 190.698366 389.29635 
L 188.734899 392.685065 
L 186.221089 396.555188 
L 183.132029 400.82654 
L 179.482394 405.38842 
L 175.340654 410.117642 
L 170.725109 414.860083 
L 168.262903 417.170015 
L 165.719065 419.395349 
L 163.115163 421.498028 
L 160.477232 423.43579 
L 157.835767 425.162169 
L 155.225724 426.626495 
L 152.686525 427.773895 
L 150.262054 428.545294 
L 147.998735 428.879419 
L 145.921303 428.750857 
L 144.076524 428.141263 
L 142.515014 427.034979 
L 141.280332 425.426953 
L 140.408983 423.322735 
L 139.930419 420.738479 
L 139.867035 417.700944 
L 140.234171 414.247491 
L 141.040113 410.426086 
L 142.286091 406.295297 
L 143.968931 401.927603 
L 146.083036 397.422342 
L 148.594691 392.86624 
L 151.464742 388.336297 
L 154.651692 383.902137 
L 158.111704 379.62601 
L 161.798594 375.562794 
L 165.663838 371.759994 
L 169.656568 368.25774 
L 173.723573 365.088788 
L 177.809298 362.278521 
L 181.860823 359.831271 
L 185.836949 357.734784 
L 189.700982 355.9816 
L 193.420251 354.561112 
L 196.966109 353.459565 
L 200.313929 352.660061 
L 203.44311 352.142554 
L 206.337074 351.883854 
L 208.983263 351.857623 
L 208.983263 351.857623 
" clip-path="url(#pe8bb9ae96a)" style="fill: none; stroke-dasharray: 22.4,5.6,3.5,5.6; stroke-dashoffset: 0; stroke: #0000ff; stroke-opacity: 0.8; stroke-width: 3.5"/>
   </g>
   <g id="patch_3">
    <path d="M 48.982813 530.438125 
L 48.982813 22.318125 
" style="fill: none; stroke: #000000; stroke-width: 0.8; stroke-linejoin: miter; stroke-linecap: square"/>
   </g>
   <g id="patch_4">
    <path d="M 561.212812 530.438125 
L 561.212812 22.318125 
" style="fill: none; stroke: #000000; stroke-width: 0.8; stroke-linejoin: miter; stroke-linecap: square"/>
   </g>
   <g id="patch_5">
    <path d="M 48.982812 530.438125 
L 561.212812 530.438125 
" style="fill: none; stroke: #000000; stroke-width: 0.8; stroke-linejoin: miter; stroke-linecap: square"/>
   </g>
   <g id="patch_6">
    <path d="M 48.982812 22.318125 
L 561.212812 22.318125 
" style="fill: none; stroke: #000000; stroke-width: 0.8; stroke-linejoin: miter; stroke-linecap: square"/>
   </g>
   <g id="line2d_17">
    <path d="M 387.014773 245.68068 
L 387.295694 240.385375 
L 388.363833 235.41077 
L 390.038633 230.799 
L 392.147147 226.609428 
L 394.512798 222.928647 
L 396.970774 219.863528 
L 399.496112 217.418122 
L 402.064627 215.59659 
L 404.635492 214.41747 
L 407.151243 213.913684 
L 409.537776 214.132532 
L 411.704346 215.135695 
L 413.543573 216.999238 
L 414.939898 219.809666 
L 415.989417 223.495269 
L 416.600402 227.90621 
L 416.596508 232.924058 
L 415.852665 238.427901 
L 414.29507 244.294346 
L 411.901192 250.397521 
L 408.699771 256.609074 
L 404.770816 262.79817 
L 400.245609 268.831496 
L 395.306699 274.573258 
L 390.185776 279.885669 
L 384.938507 284.699485 
L 379.595765 289.018285 
L 374.273143 292.84021 
L 369.063483 296.170059 
L 364.036881 299.01929 
L 359.240688 301.406016 
L 354.699506 303.355009 
L 350.415192 304.897697 
L 346.386211 306.064328 
L 342.634743 306.86774 
L 339.143195 307.333465 
L 335.898704 307.489506 
L 332.895875 307.365419 
L 330.136777 306.99231 
L 327.630944 306.402836 
L 325.395377 305.631206 
L 323.453837 304.713047 
L 321.814592 303.669464 
L 320.466281 302.493437 
L 319.397767 301.17676 
L 318.598559 299.713223 
L 318.0588 298.098615 
L 317.769278 296.330719 
L 317.72142 294.409318 
L 317.90729 292.336191 
L 318.319598 290.115113 
L 318.95127 287.753522 
L 319.796193 285.276505 
L 320.867217 282.672722 
L 322.179442 279.922505 
L 323.745772 277.010166 
L 325.576911 273.924006 
L 327.681371 270.656306 
L 330.065463 267.203336 
L 332.733302 263.565345 
L 335.686806 259.746571 
L 338.925697 255.755233 
L 342.447498 251.603535 
L 346.247537 247.307668 
L 354.623531 238.348874 
L 363.596874 228.996108 
L 368.201871 224.343471 
L 372.850499 219.819215 
L 377.519733 215.509791 
L 382.189278 211.503276 
L 386.84157 207.889379 
L 391.461775 204.759438 
L 396.037789 202.20642 
L 400.56024 200.324921 
L 405.022486 199.211167 
L 409.257639 198.983379 
L 412.908019 199.766712 
L 416.152255 201.583797 
L 419.10416 204.438215 
L 421.774484 208.319675 
L 424.070919 213.204014 
L 425.798097 219.053201 
L 426.65759 225.815332 
L 426.247912 233.424634 
L 424.246703 241.803155 
L 420.930359 250.653953 
L 416.568067 259.553471 
L 411.390468 268.16635 
L 405.595941 276.248777 
L 399.350603 283.64848 
L 392.788305 290.304731 
L 386.010634 296.248346 
L 379.086916 301.601684 
L 372.001847 306.417743 
L 364.864437 310.556347 
L 357.919429 314.020682 
L 351.332578 316.834563 
L 345.189218 319.040629 
L 339.494255 320.700341 
L 334.17217 321.89398 
L 329.067016 322.720652 
L 324.085256 323.239721 
L 319.363409 323.439364 
L 314.933496 323.372419 
L 310.824985 323.091819 
L 307.067438 322.649322 
L 303.690513 322.095511 
L 298.188881 320.84652 
L 296.043885 320.188851 
L 294.250933 319.472815 
L 292.779639 318.673578 
L 291.603179 317.775822 
L 290.698284 316.773736 
L 290.045245 315.671022 
L 289.631837 314.483201 
L 289.454872 313.238458 
L 289.504628 311.956048 
L 289.767906 310.641963 
L 290.228159 309.288975 
L 291.656746 306.371225 
L 294.831961 300.960471 
L 302.748021 287.997267 
L 307.067635 281.23963 
L 312.407905 273.421728 
L 319.068886 264.299369 
L 322.98436 259.2004 
L 327.336161 253.730629 
L 332.158098 247.889383 
L 337.483223 241.682814 
L 349.46375 228.172885 
L 361.855249 213.192377 
L 368.59272 205.453902 
L 375.864179 197.768274 
L 383.691601 190.316592 
L 392.010835 183.293837 
L 400.671604 176.908871 
L 409.437507 171.384442 
L 417.9859 166.957277 
L 425.955967 163.962499 
L 433.164263 162.904914 
L 439.5003 164.149786 
L 444.87596 167.870145 
L 449.225492 174.046784 
L 452.486561 182.477381 
L 453.578761 193.298576 
L 452.652785 206.03008 
L 450.411304 219.917182 
L 447.087909 234.414528 
L 442.447116 249.186117 
L 435.836738 264.082682 
L 428.352779 278.267534 
L 420.150833 291.484281 
L 410.68292 303.803075 
L 399.879926 315.07921 
L 388.151601 324.953124 
L 376.378854 332.874197 
L 365.309868 338.999123 
L 355.002416 343.764663 
L 345.420938 347.404573 
L 336.480846 350.132179 
L 328.048522 352.140382 
L 319.948743 353.602498 
L 312.199764 354.655763 
L 304.944164 355.346558 
L 298.269232 355.71568 
L 292.227109 355.816394 
L 286.834786 355.714436 
L 271.004158 354.994728 
L 268.144935 355.051308 
L 263.226169 355.497074 
L 258.903846 356.150188 
L 254.942145 356.977762 
L 253.059686 357.540644 
L 251.2139 358.251535 
L 249.378227 359.148719 
L 247.522278 360.271595 
L 245.607353 361.644329 
L 241.384663 365.167534 
L 233.379617 372.47065 
L 222.727001 382.296551 
L 218.843137 386.174025 
L 214.994846 390.356996 
L 211.249685 394.848022 
L 207.633868 399.650733 
L 204.132258 404.769835 
L 200.66321 410.20278 
L 196.842986 415.956294 
L 192.259092 422.063801 
L 186.733431 428.500929 
L 180.326818 435.180682 
L 173.338974 441.953443 
L 159.757842 454.769914 
L 153.417795 460.6073 
L 146.938235 466.351959 
L 140.116448 471.964961 
L 132.897303 477.134347 
L 125.37325 481.275134 
L 117.754622 483.701528 
L 110.33029 484.665595 
L 103.632209 484.056749 
L 98.0745 481.666775 
L 93.91183 477.315482 
L 91.23942 470.850713 
L 89.993037 462.148339 
L 89.967516 451.121483 
L 91.174976 438.180272 
L 93.54502 424.276474 
L 97.038783 410.168347 
L 101.76309 396.370518 
L 107.970462 383.153981 
L 116.059115 370.546101 
L 126.069166 358.591576 
L 136.345882 348.028671 
L 146.164456 339.104773 
L 155.546787 331.799709 
L 165.169865 325.868593 
L 175.239732 321.052152 
L 185.358863 317.075372 
L 195.225251 313.768583 
L 204.545351 311.132798 
L 213.075265 309.3395 
L 220.817228 308.334765 
L 227.857458 307.838036 
L 240.17499 307.539686 
L 255.457233 307.432959 
L 263.920515 307.609526 
L 270.983259 307.805255 
L 273.999801 307.767916 
L 276.690774 307.533258 
L 279.107784 307.081209 
L 281.299605 306.435939 
L 283.310832 305.618961 
L 285.186359 304.65073 
L 286.971381 303.550646 
L 290.445597 301.022508 
L 292.177502 299.584356 
L 293.916491 297.993798 
L 295.676199 296.226064 
L 299.323717 292.075865 
L 303.286244 287.022044 
L 310.312034 277.514409 
L 316.09281 269.634817 
L 323.155832 260.43082 
L 327.302308 255.337125 
L 331.941308 249.930078 
L 337.263517 244.222221 
L 349.173567 231.862141 
L 355.242828 225.242772 
L 361.214857 218.403589 
L 372.967449 204.469192 
L 379.056628 197.652436 
L 385.665805 191.17278 
L 393.156128 185.221165 
L 401.264612 179.847347 
L 409.60005 175.354007 
L 417.850044 172.081838 
L 425.713088 170.342386 
L 432.898567 170.418052 
L 439.126756 172.56209 
L 444.128823 176.998608 
L 447.38809 183.841473 
L 448.690556 192.724688 
L 448.826587 203.202317 
L 448.188213 214.909637 
L 446.719369 227.561047 
L 443.915895 240.950064 
L 438.825623 254.949288 
L 431.640584 268.956102 
L 423.674037 282.258845 
L 415.181079 294.627331 
L 406.150398 305.867774 
L 396.304281 315.82278 
L 385.247407 324.34776 
L 373.956625 331.257614 
L 363.222493 336.700076 
L 353.353973 340.891551 
L 344.345773 344.060633 
L 335.898572 346.442398 
L 327.855034 348.18934 
L 320.230869 349.422554 
L 313.037411 350.247482 
L 306.303219 350.742079 
L 300.074069 350.956813 
L 294.412472 350.915134 
L 289.354793 350.665927 
L 271.994824 349.437771 
L 265.706339 349.599733 
L 262.201891 349.736694 
L 260.631869 349.895447 
L 259.165653 350.160675 
L 257.786084 350.560497 
L 256.472866 351.117754 
L 255.202572 351.850005 
L 253.948642 352.769529 
L 251.367947 355.16103 
L 240.735329 366.039031 
L 235.277182 371.08492 
L 224.646682 380.867673 
L 220.61734 384.840182 
L 216.528375 389.18664 
L 212.556865 393.900837 
L 209.042839 398.955556 
L 201.940243 410.089168 
L 197.576576 416.180878 
L 192.405074 422.625053 
L 186.413902 429.419076 
L 172.69854 444.022539 
L 159.847287 459.164983 
L 152.920827 466.660171 
L 145.059221 473.910636 
L 136.249706 480.651083 
L 126.830057 486.520407 
L 117.488595 491.06169 
L 109.175373 493.857116 
L 101.628991 494.735976 
L 94.035065 493.010462 
L 86.663776 488.481998 
L 80.925604 481.551265 
L 78.785472 472.698178 
L 78.690702 461.550036 
L 78.903411 448.200816 
L 79.86186 433.219982 
L 83.785959 417.638884 
L 89.867741 402.282539 
L 97.725819 387.262305 
L 107.283517 372.798505 
L 118.077252 359.299408 
L 129.179781 347.260622 
L 139.782981 336.64892 
L 150.431091 327.59044 
L 161.478998 320.15623 
L 172.926209 314.285143 
L 184.419571 309.780588 
L 195.476098 306.262461 
L 205.755837 303.559802 
L 215.083634 301.612968 
L 223.480986 300.374603 
L 231.156057 299.797211 
L 238.262133 299.637614 
L 261.976903 299.716204 
L 278.881107 299.448909 
L 282.107506 299.212753 
L 284.992588 298.797907 
L 287.582738 298.174032 
L 289.934753 297.327053 
L 292.115826 296.259216 
L 294.189734 294.990338 
L 296.189315 293.541304 
L 298.143384 291.925346 
L 302.039923 288.214128 
L 306.14857 283.836742 
L 313.306577 275.756241 
L 325.870915 261.282545 
L 333.993508 252.302622 
L 338.629459 247.413586 
L 354.427728 231.357704 
L 365.232364 219.846406 
L 375.939499 208.341879 
L 381.432004 202.855013 
L 387.214735 197.720488 
L 393.44211 193.16431 
L 400.022082 189.378485 
L 406.763881 186.473938 
L 413.449275 184.588572 
L 419.832571 183.887284 
L 425.640617 184.561966 
L 430.5728 186.831503 
L 434.301005 190.941724 
L 436.436641 196.838149 
L 437.172531 204.121971 
L 436.892941 212.542115 
L 435.819352 221.873037 
L 434.01047 231.914731 
L 431.36222 242.492722 
L 427.60775 253.45807 
L 422.319363 264.686417 
L 416.043699 275.565832 
L 409.327136 285.634832 
L 401.971005 294.874463 
L 393.908422 303.245368 
L 385.204288 310.687789 
L 376.055287 317.121565 
L 366.78989 322.446133 
L 357.863681 326.57457 
L 349.569055 329.756586 
L 341.836223 332.18868 
L 334.585592 334.000146 
L 327.759175 335.300468 
L 321.320584 336.179327 
L 315.255036 336.706598 
L 309.569349 336.932348 
L 304.296721 336.878874 
L 299.480238 336.598895 
L 291.274641 335.732229 
L 278.388238 333.966954 
L 275.310556 333.330285 
L 272.917381 332.558994 
L 269.847466 331.475761 
L 268.914347 331.426815 
L 268.188632 331.633534 
L 266.623108 332.262993 
L 265.46288 332.522204 
L 265.46288 332.522204 
" clip-path="url(#pe8bb9ae96a)" style="fill: none; stroke-dasharray: 3.5,5.775; stroke-dashoffset: 0; stroke: #008000; stroke-opacity: 0.8; stroke-width: 3.5"/>
   </g>
   <g id="text_17">
    <!-- Phase Portrait (x0 vs x1) -->
    <g transform="translate(231.406562 16.318125) scale(0.12 -0.12)">
     <defs>
      <path id="DejaVuSans-50" d="M 1259 4147 
L 1259 2394 
L 2053 2394 
Q 2494 2394 2734 2622 
Q 2975 2850 2975 3272 
Q 2975 3691 2734 3919 
Q 2494 4147 2053 4147 
L 1259 4147 
z
M 628 4666 
L 2053 4666 
Q 2838 4666 3239 4311 
Q 3641 3956 3641 3272 
Q 3641 2581 3239 2228 
Q 2838 1875 2053 1875 
L 1259 1875 
L 1259 0 
L 628 0 
L 628 4666 
z
" transform="scale(0.015625)"/>
      <path id="DejaVuSans-68" d="M 3513 2113 
L 3513 0 
L 2938 0 
L 2938 2094 
Q 2938 2591 2744 2837 
Q 2550 3084 2163 3084 
Q 1697 3084 1428 2787 
Q 1159 2491 1159 1978 
L 1159 0 
L 581 0 
L 581 4863 
L 1159 4863 
L 1159 2956 
Q 1366 3272 1645 3428 
Q 1925 3584 2291 3584 
Q 2894 3584 3203 3211 
Q 3513 2838 3513 2113 
z
" transform="scale(0.015625)"/>
      <path id="DejaVuSans-61" d="M 2194 1759 
Q 1497 1759 1228 1600 
Q 959 1441 959 1056 
Q 959 750 1161 570 
Q 1363 391 1709 391 
Q 2188 391 2477 730 
Q 2766 1069 2766 1631 
L 2766 1759 
L 2194 1759 
z
M 3341 1997 
L 3341 0 
L 2766 0 
L 2766 531 
Q 2569 213 2275 61 
Q 1981 -91 1556 -91 
Q 1019 -91 701 211 
Q 384 513 384 1019 
Q 384 1609 779 1909 
Q 1175 2209 1959 2209 
L 2766 2209 
L 2766 2266 
Q 2766 2663 2505 2880 
Q 2244 3097 1772 3097 
Q 1472 3097 1187 3025 
Q 903 2953 641 2809 
L 641 3341 
Q 956 3463 1253 3523 
Q 1550 3584 1831 3584 
Q 2591 3584 2966 3190 
Q 3341 2797 3341 1997 
z
" transform="scale(0.015625)"/>
      <path id="DejaVuSans-73" d="M 2834 3397 
L 2834 2853 
Q 2591 2978 2328 3040 
Q 2066 3103 1784 3103 
Q 1356 3103 1142 2972 
Q 928 2841 928 2578 
Q 928 2378 1081 2264 
Q 1234 2150 1697 2047 
L 1894 2003 
Q 2506 1872 2764 1633 
Q 3022 1394 3022 966 
Q 3022 478 2636 193 
Q 2250 -91 1575 -91 
Q 1294 -91 989 -36 
Q 684 19 347 128 
L 347 722 
Q 666 556 975 473 
Q 1284 391 1588 391 
Q 1994 391 2212 530 
Q 2431 669 2431 922 
Q 2431 1156 2273 1281 
Q 2116 1406 1581 1522 
L 1381 1569 
Q 847 1681 609 1914 
Q 372 2147 372 2553 
Q 372 3047 722 3315 
Q 1072 3584 1716 3584 
Q 2034 3584 2315 3537 
Q 2597 3491 2834 3397 
z
" transform="scale(0.015625)"/>
      <path id="DejaVuSans-65" d="M 3597 1894 
L 3597 1613 
L 953 1613 
Q 991 1019 1311 708 
Q 1631 397 2203 397 
Q 2534 397 2845 478 
Q 3156 559 3463 722 
L 3463 178 
Q 3153 47 2828 -22 
Q 2503 -91 2169 -91 
Q 1331 -91 842 396 
Q 353 884 353 1716 
Q 353 2575 817 3079 
Q 1281 3584 2069 3584 
Q 2775 3584 3186 3129 
Q 3597 2675 3597 1894 
z
M 3022 2063 
Q 3016 2534 2758 2815 
Q 2500 3097 2075 3097 
Q 1594 3097 1305 2825 
Q 1016 2553 972 2059 
L 3022 2063 
z
" transform="scale(0.015625)"/>
      <path id="DejaVuSans-20" transform="scale(0.015625)"/>
      <path id="DejaVuSans-6f" d="M 1959 3097 
Q 1497 3097 1228 2736 
Q 959 2375 959 1747 
Q 959 1119 1226 758 
Q 1494 397 1959 397 
Q 2419 397 2687 759 
Q 2956 1122 2956 1747 
Q 2956 2369 2687 2733 
Q 2419 3097 1959 3097 
z
M 1959 3584 
Q 2709 3584 3137 3096 
Q 3566 2609 3566 1747 
Q 3566 888 3137 398 
Q 2709 -91 1959 -91 
Q 1206 -91 779 398 
Q 353 888 353 1747 
Q 353 2609 779 3096 
Q 1206 3584 1959 3584 
z
" transform="scale(0.015625)"/>
      <path id="DejaVuSans-72" d="M 2631 2963 
Q 2534 3019 2420 3045 
Q 2306 3072 2169 3072 
Q 1681 3072 1420 2755 
Q 1159 2438 1159 1844 
L 1159 0 
L 581 0 
L 581 3500 
L 1159 3500 
L 1159 2956 
Q 1341 3275 1631 3429 
Q 1922 3584 2338 3584 
Q 2397 3584 2469 3576 
Q 2541 3569 2628 3553 
L 2631 2963 
z
" transform="scale(0.015625)"/>
      <path id="DejaVuSans-74" d="M 1172 4494 
L 1172 3500 
L 2356 3500 
L 2356 3053 
L 1172 3053 
L 1172 1153 
Q 1172 725 1289 603 
Q 1406 481 1766 481 
L 2356 481 
L 2356 0 
L 1766 0 
Q 1100 0 847 248 
Q 594 497 594 1153 
L 594 3053 
L 172 3053 
L 172 3500 
L 594 3500 
L 594 4494 
L 1172 4494 
z
" transform="scale(0.015625)"/>
      <path id="DejaVuSans-69" d="M 603 3500 
L 1178 3500 
L 1178 0 
L 603 0 
L 603 3500 
z
M 603 4863 
L 1178 4863 
L 1178 4134 
L 603 4134 
L 603 4863 
z
" transform="scale(0.015625)"/>
      <path id="DejaVuSans-28" d="M 1984 4856 
Q 1566 4138 1362 3434 
Q 1159 2731 1159 2009 
Q 1159 1288 1364 580 
Q 1569 -128 1984 -844 
L 1484 -844 
Q 1016 -109 783 600 
Q 550 1309 550 2009 
Q 550 2706 781 3412 
Q 1013 4119 1484 4856 
L 1984 4856 
z
" transform="scale(0.015625)"/>
      <path id="DejaVuSans-76" d="M 191 3500 
L 800 3500 
L 1894 563 
L 2988 3500 
L 3597 3500 
L 2284 0 
L 1503 0 
L 191 3500 
z
" transform="scale(0.015625)"/>
      <path id="DejaVuSans-29" d="M 513 4856 
L 1013 4856 
Q 1481 4119 1714 3412 
Q 1947 2706 1947 2009 
Q 1947 1309 1714 600 
Q 1481 -109 1013 -844 
L 513 -844 
Q 928 -128 1133 580 
Q 1338 1288 1338 2009 
Q 1338 2731 1133 3434 
Q 928 4138 513 4856 
z
" transform="scale(0.015625)"/>
     </defs>
     <use xlink:href="#DejaVuSans-50"/>
     <use xlink:href="#DejaVuSans-68" transform="translate(60.302734 0)"/>
     <use xlink:href="#DejaVuSans-61" transform="translate(123.681641 0)"/>
     <use xlink:href="#DejaVuSans-73" transform="translate(184.960938 0)"/>
     <use xlink:href="#DejaVuSans-65" transform="translate(237.060547 0)"/>
     <use xlink:href="#DejaVuSans-20" transform="translate(298.583984 0)"/>
     <use xlink:href="#DejaVuSans-50" transform="translate(330.371094 0)"/>
     <use xlink:href="#DejaVuSans-6f" transform="translate(387.048828 0)"/>
     <use xlink:href="#DejaVuSans-72" transform="translate(448.230469 0)"/>
     <use xlink:href="#DejaVuSans-74" transform="translate(489.34375 0)"/>
     <use xlink:href="#DejaVuSans-72" transform="translate(528.552734 0)"/>
     <use xlink:href="#DejaVuSans-61" transform="translate(569.666016 0)"/>
     <use xlink:href="#DejaVuSans-69" transform="translate(630.945312 0)"/>
     <use xlink:href="#DejaVuSans-74" transform="translate(658.728516 0)"/>
     <use xlink:href="#DejaVuSans-20" transform="translate(697.9375 0)"/>
     <use xlink:href="#DejaVuSans-28" transform="translate(729.724609 0)"/>
     <use xlink:href="#DejaVuSans-78" transform="translate(768.738281 0)"/>
     <use xlink:href="#DejaVuSans-30" transform="translate(827.917969 0)"/>
     <use xlink:href="#DejaVuSans-20" transform="translate(891.541016 0)"/>
     <use xlink:href="#DejaVuSans-76" transform="translate(923.328125 0)"/>
     <use xlink:href="#DejaVuSans-73" transform="translate(982.507812 0)"/>
     <use xlink:href="#DejaVuSans-20" transform="translate(1034.607422 0)"/>
     <use xlink:href="#DejaVuSans-78" transform="translate(1066.394531 0)"/>
     <use xlink:href="#DejaVuSans-31" transform="translate(1125.574219 0)"/>
     <use xlink:href="#DejaVuSans-29" transform="translate(1189.197266 0)"/>
    </g>
   </g>
   <g id="line2d_18">
    <path d="M 387.014773 245.68068 
L 388.055143 240.244635 
L 389.449018 235.217469 
L 391.111405 230.63749 
L 392.992681 226.541722 
L 395.077976 222.96474 
L 397.341113 219.928691 
L 399.702597 217.507202 
L 402.075501 215.774657 
L 404.369049 214.785874 
L 406.488621 214.576106 
L 408.335746 215.161041 
L 409.808107 216.536804 
L 410.79954 218.679953 
L 411.220339 221.557298 
L 411.125706 225.107357 
L 410.607858 229.241626 
L 409.727453 233.869879 
L 408.513492 238.900256 
L 406.963319 244.239262 
L 405.042626 249.791766 
L 402.685448 255.461005 
L 399.794074 261.148455 
L 396.287786 266.721973 
L 392.308903 272.060449 
L 388.035848 277.082724 
L 383.609888 281.724462 
L 379.135136 285.938149 
L 374.678555 289.693095 
L 370.26995 292.975431 
L 365.901977 295.788113 
L 361.541169 298.14582 
L 357.217006 300.064182 
L 352.994275 301.570439 
L 348.931428 302.694493 
L 345.080248 303.468419 
L 341.485854 303.926472 
L 338.186695 304.105084 
L 335.214553 304.042862 
L 332.591343 303.777599 
L 330.301806 303.317952 
L 328.332315 302.673661 
L 326.671353 301.856612 
L 325.305279 300.877105 
L 324.218336 299.743852 
L 323.392642 298.463976 
L 322.808199 297.043014 
L 322.442886 295.484914 
L 322.272462 293.792038 
L 322.270565 291.96516 
L 322.408366 290.006242 
L 322.680068 287.92323 
L 323.101937 285.720577 
L 323.691219 283.400852 
L 324.465795 280.964861 
L 325.444182 278.41165 
L 326.645531 275.738504 
L 328.089628 272.940947 
L 329.796896 270.012742 
L 331.78839 266.945891 
L 334.085802 263.730636 
L 336.711459 260.355457 
L 339.674996 256.81175 
L 346.388506 249.27262 
L 353.804375 241.301677 
L 361.710685 233.188267 
L 365.845136 229.195048 
L 370.128135 225.318618 
L 374.610984 221.612406 
L 379.321401 218.123174 
L 384.142285 214.96253 
L 388.950877 212.240043 
L 393.630709 210.056333 
L 398.071607 208.503071 
L 402.169691 207.662976 
L 405.827369 207.609823 
L 408.953346 208.408432 
L 411.456876 210.116505 
L 413.062096 212.819594 
L 413.869912 216.408019 
L 414.120613 220.714283 
L 413.976928 225.59523 
L 413.524028 230.93204 
L 412.769528 236.630233 
L 411.64348 242.619665 
L 409.99838 248.85453 
L 407.609167 255.313362 
L 404.179323 261.992868 
L 399.811729 268.592843 
L 394.965508 274.855012 
L 389.941644 280.684418 
L 384.935925 286.012176 
L 380.038944 290.795468 
L 375.236102 295.017547 
L 370.407602 298.687734 
L 365.405147 301.826874 
L 360.329462 304.434851 
L 355.265719 306.53985 
L 350.292034 308.176301 
L 345.486103 309.38306 
L 340.925201 310.203408 
L 336.686187 310.685054 
L 332.843925 310.879891 
L 329.420554 310.830841 
L 326.399643 310.563286 
L 323.767445 310.098663 
L 321.509082 309.455345 
L 319.608539 308.648645 
L 318.048672 307.690817 
L 316.811201 306.591055 
L 315.876713 305.35549 
L 315.224662 303.987193 
L 314.833736 302.487125 
L 314.680757 300.859473 
L 314.740592 299.107705 
L 314.99097 297.233736 
L 315.41274 295.238073 
L 316.709463 290.876676 
L 318.539977 285.999481 
L 320.863123 280.566603 
L 322.250911 277.640279 
L 323.878708 274.557119 
L 325.803658 271.301746 
L 328.064226 267.862157 
L 330.680198 264.229724 
L 333.652684 260.399193 
L 340.578239 252.139696 
L 348.39586 243.125425 
L 356.520873 233.607109 
L 360.963985 228.758 
L 365.765793 223.923884 
L 370.944484 219.178753 
L 376.469825 214.610817 
L 382.263158 210.322502 
L 388.197402 206.430452 
L 394.097053 203.065529 
L 399.7365 200.371519 
L 404.893601 198.475661 
L 409.577789 197.526147 
L 413.806987 197.648151 
L 417.545773 198.922653 
L 420.705381 201.386442 
L 423.1437 205.032115 
L 424.665275 209.808075 
L 425.031456 215.6445 
L 424.276847 222.411396 
L 422.63964 229.862925 
L 420.285937 237.771888 
L 417.30409 245.934369 
L 413.704702 254.169729 
L 409.420628 262.320613 
L 404.314917 270.247999 
L 398.552902 277.737499 
L 392.63464 284.642618 
L 386.877958 290.886594 
L 381.393491 296.429128 
L 376.08468 301.266387 
L 370.647774 305.430999 
L 364.707949 308.973758 
L 358.547359 311.88697 
L 352.360994 314.208558 
L 346.288639 315.988909 
L 340.459307 317.283349 
L 334.991233 318.152145 
L 329.991706 318.660503 
L 325.502532 318.872032 
L 321.488709 318.832364 
L 317.923249 318.578854 
L 314.78114 318.143297 
L 312.039351 317.551929 
L 309.676827 316.825427 
L 307.674494 315.978908 
L 306.01495 315.022006 
L 304.676687 313.9628 
L 303.647647 312.809261 
L 302.91818 311.566258 
L 302.476463 310.23573 
L 302.308503 308.816686 
L 302.398132 307.305205 
L 302.727013 305.694436 
L 303.274635 303.974599 
L 304.934974 300.154168 
L 307.215655 295.746648 
L 313.115729 284.989192 
L 316.8115 278.534882 
L 318.94146 275.013188 
L 321.349082 271.292936 
L 324.103105 267.346388 
L 327.242092 263.149958 
L 330.775654 258.689826 
L 338.920185 248.972009 
L 348.034531 238.277688 
L 357.437957 226.887597 
L 362.562329 221.067953 
L 368.21839 215.24167 
L 374.459486 209.498774 
L 381.229282 203.95721 
L 388.361761 198.76284 
L 395.581226 194.089444 
L 402.502299 190.138719 
L 408.645986 187.134407 
L 413.991799 185.217146 
L 418.830978 184.593354 
L 423.298239 185.450521 
L 427.413159 187.90411 
L 431.080173 191.997555 
L 434.088571 197.702262 
L 436.112504 204.917606 
L 436.710979 213.470938 
L 435.802541 223.098494 
L 433.686587 233.46241 
L 430.135928 244.242835 
L 425.119804 255.123958 
L 418.814785 265.793607 
L 411.604771 275.943255 
L 404.081005 285.26805 
L 396.867056 293.639937 
L 389.834676 301.088016 
L 382.698531 307.581462 
L 375.292951 313.119908 
L 367.571929 317.733441 
L 359.609119 321.482605 
L 351.597411 324.456024 
L 343.801969 326.734351 
L 336.434891 328.406767 
L 329.634385 329.563386 
L 323.466442 330.288517 
L 317.924831 330.660666 
L 312.931107 330.752535 
L 308.398796 330.627315 
L 304.305745 330.331528 
L 300.615569 329.904376 
L 297.29736 329.379366 
L 294.325699 328.784305 
L 289.345573 327.467113 
L 285.526578 326.081372 
L 282.734657 324.708729 
L 280.825503 323.37335 
L 280.151439 322.711157 
L 279.64026 322.044193 
L 279.284453 321.369044 
L 279.076818 320.68052 
L 279.010258 319.971997 
L 279.077779 319.23541 
L 279.587622 317.638611 
L 280.577381 315.809005 
L 282.073456 313.667174 
L 285.338593 309.639424 
L 293.725559 299.660176 
L 298.019965 294.110154 
L 302.748586 287.495631 
L 314.01819 270.752967 
L 317.796445 265.678357 
L 326.841986 254.235681 
L 331.978627 247.826439 
L 337.249574 240.96198 
L 348.043942 226.066038 
L 354.367299 218.067378 
L 361.573727 209.780384 
L 369.631041 201.311587 
L 378.321935 192.80547 
L 395.93175 176.455123 
L 404.387306 169.178359 
L 412.710444 163.00053 
L 420.930425 158.290917 
L 429.006693 155.401231 
L 436.828874 154.665611 
L 444.216777 156.400622 
L 450.91303 160.904974 
L 455.981897 168.331348 
L 459.447732 178.494515 
L 461.645151 191.102369 
L 462.382417 205.792267 
L 460.941447 222.131025 
L 456.743788 239.558111 
L 450.884931 257.20536 
L 443.222254 274.321736 
L 433.728308 290.332663 
L 422.631971 304.832716 
L 410.416762 317.58416 
L 397.751424 328.463918 
L 385.258742 337.452944 
L 373.271937 344.638314 
L 361.802475 350.203278 
L 350.549069 354.425574 
L 339.600652 357.542485 
L 329.349786 359.72934 
L 319.927028 361.168991 
L 311.340169 362.022757 
L 303.47498 362.430552 
L 296.220835 362.520193 
L 289.579159 362.39531 
L 278.077545 361.825634 
L 264.81055 361.066818 
L 261.256584 360.993323 
L 258.028683 361.040756 
L 255.071009 361.22337 
L 252.338571 361.552705 
L 249.785644 362.03811 
L 247.365603 362.686869 
L 245.030918 363.504201 
L 242.733159 364.49326 
L 240.428027 365.656612 
L 238.08737 367.005515 
L 235.680259 368.554119 
L 233.180828 370.315577 
L 230.569026 372.302079 
L 224.957175 376.994149 
L 221.940964 379.720948 
L 218.807207 382.716466 
L 215.629677 385.980548 
L 212.455853 389.50888 
L 209.303061 393.29362 
L 206.158483 397.323394 
L 196.182125 410.710817 
L 192.289753 415.529839 
L 187.937196 420.530837 
L 183.092137 425.710249 
L 177.761363 431.037207 
L 171.990758 436.453541 
L 165.865309 441.873777 
L 159.509102 447.185137 
L 153.085323 452.247541 
L 146.796258 456.893604 
L 140.882113 460.928951 
L 135.301168 464.214511 
L 130.013571 466.602928 
L 125.164799 467.925856 
L 120.864927 468.058137 
L 117.188639 466.917802 
L 114.175218 464.466066 
L 111.828553 460.70733 
L 110.116399 455.688991 
L 108.835521 449.445936 
L 108.230908 442.112209 
L 108.70292 433.904018 
L 110.468427 425.047736 
L 113.560806 415.779904 
L 117.829942 406.347228 
L 122.94223 397.006582 
L 128.380974 388.024909 
L 133.882129 379.59582 
L 139.725403 371.814847 
L 146.047572 364.773134 
L 152.879356 358.530586 
L 160.145419 353.115869 
L 167.664373 348.526409 
L 175.148771 344.728393 
L 182.205402 341.656771 
L 188.751086 339.227248 
L 194.922269 337.36549 
L 200.650655 336.001593 
L 205.893918 335.069552 
L 210.635701 334.507266 
L 214.885618 334.256535 
L 218.679255 334.263062 
L 222.077879 334.476551 
L 225.127303 334.863512 
L 227.84498 335.403547 
L 230.254626 336.075542 
L 232.378729 336.860794 
L 234.238548 337.743012 
L 235.854116 338.708319 
L 237.244237 339.745248 
L 238.426488 340.844746 
L 239.417218 342.000171 
L 240.2316 343.208118 
L 240.878645 344.467477 
L 241.362228 345.777651 
L 241.684533 347.140203 
L 241.846072 348.558882 
L 241.845687 350.039619 
L 241.680549 351.590528 
L 241.34616 353.221905 
L 240.836349 354.94623 
L 240.143416 356.777912 
L 239.254225 358.725321 
L 238.131888 360.804943 
L 236.742413 363.038479 
L 235.061996 365.447713 
L 233.077015 368.054512 
L 228.189798 373.948689 
L 218.909404 384.809202 
L 212.19772 393.509867 
L 200.818775 408.756048 
L 196.462607 414.386904 
L 191.743035 420.261475 
L 186.614645 426.35341 
L 181.03447 432.631066 
L 174.961989 439.057505 
L 168.411314 445.586198 
L 161.698311 452.099876 
L 154.870044 458.429897 
L 147.936332 464.397455 
L 140.935523 469.813339 
L 133.934502 474.477931 
L 127.028682 478.181211 
L 120.342011 480.702748 
L 114.026969 481.81171 
L 108.238695 481.259249 
L 103.054264 478.83571 
L 98.69329 474.525394 
L 95.364172 468.387776 
L 93.237503 460.543026 
L 92.446077 451.172016 
L 93.084883 440.516315 
L 95.211107 428.878189 
L 98.844132 416.620605 
L 103.824545 404.183014 
L 109.98217 391.976728 
L 117.304951 380.311489 
L 125.638413 369.4504 
L 134.68333 359.610346 
L 143.995732 350.96199 
L 152.99152 343.628489 
L 161.582705 337.533777 
L 170.043882 332.520421 
L 178.409136 328.488383 
L 186.649257 325.33363 
L 194.671737 322.948145 
L 202.320767 321.219917 
L 209.38621 320.034336 
L 215.814675 319.299373 
L 221.665753 318.932095 
L 226.9823 318.85497 
L 231.802905 318.999893 
L 236.161889 319.308186 
L 240.089308 319.730598 
L 246.758382 320.778645 
L 251.991383 321.935513 
L 255.970554 323.058032 
L 258.91885 324.071794 
L 261.921599 325.367199 
L 263.675845 326.420677 
L 264.367691 327.032413 
L 264.77688 327.601382 
L 264.962349 328.151944 
L 264.987828 328.429548 
L 264.987828 328.429548 
" clip-path="url(#pe8bb9ae96a)" style="fill: none; stroke-dasharray: 12.95,5.6; stroke-dashoffset: 0; stroke: #ff0000; stroke-opacity: 0.8; stroke-width: 3.5"/>
   </g>
   <g id="legend_1">
    <g id="patch_7">
     <path d="M 55.982813 89.030625 
L 201.332813 89.030625 
Q 203.332813 89.030625 203.332813 87.030625 
L 203.332813 29.318125 
Q 203.332813 27.318125 201.332813 27.318125 
L 55.982813 27.318125 
Q 53.982813 27.318125 53.982813 29.318125 
L 53.982813 87.030625 
Q 53.982813 89.030625 55.982813 89.030625 
z
" style="fill: #ffffff; opacity: 0.8; stroke: #cccccc; stroke-linejoin: miter"/>
    </g>
    <g id="line2d_19">
     <path d="M 57.982813 35.416562 
L 67.982812 35.416562 
L 77.982812 35.416562 
" style="fill: none; stroke: #000000; stroke-opacity: 0.3; stroke-width: 7; stroke-linecap: square"/>
    </g>
    <g id="text_18">
     <!-- True/Underlying model -->
     <g transform="translate(85.982812 38.916562) scale(0.1 -0.1)">
      <defs>
       <path id="DejaVuSans-54" d="M -19 4666 
L 3928 4666 
L 3928 4134 
L 2272 4134 
L 2272 0 
L 1638 0 
L 1638 4134 
L -19 4134 
L -19 4666 
z
" transform="scale(0.015625)"/>
       <path id="DejaVuSans-75" d="M 544 1381 
L 544 3500 
L 1119 3500 
L 1119 1403 
Q 1119 906 1312 657 
Q 1506 409 1894 409 
Q 2359 409 2629 706 
Q 2900 1003 2900 1516 
L 2900 3500 
L 3475 3500 
L 3475 0 
L 2900 0 
L 2900 538 
Q 2691 219 2414 64 
Q 2138 -91 1772 -91 
Q 1169 -91 856 284 
Q 544 659 544 1381 
z
M 1991 3584 
L 1991 3584 
z
" transform="scale(0.015625)"/>
       <path id="DejaVuSans-2f" d="M 1625 4666 
L 2156 4666 
L 531 -594 
L 0 -594 
L 1625 4666 
z
" transform="scale(0.015625)"/>
       <path id="DejaVuSans-55" d="M 556 4666 
L 1191 4666 
L 1191 1831 
Q 1191 1081 1462 751 
Q 1734 422 2344 422 
Q 2950 422 3222 751 
Q 3494 1081 3494 1831 
L 3494 4666 
L 4128 4666 
L 4128 1753 
Q 4128 841 3676 375 
Q 3225 -91 2344 -91 
Q 1459 -91 1007 375 
Q 556 841 556 1753 
L 556 4666 
z
" transform="scale(0.015625)"/>
       <path id="DejaVuSans-6e" d="M 3513 2113 
L 3513 0 
L 2938 0 
L 2938 2094 
Q 2938 2591 2744 2837 
Q 2550 3084 2163 3084 
Q 1697 3084 1428 2787 
Q 1159 2491 1159 1978 
L 1159 0 
L 581 0 
L 581 3500 
L 1159 3500 
L 1159 2956 
Q 1366 3272 1645 3428 
Q 1925 3584 2291 3584 
Q 2894 3584 3203 3211 
Q 3513 2838 3513 2113 
z
" transform="scale(0.015625)"/>
       <path id="DejaVuSans-64" d="M 2906 2969 
L 2906 4863 
L 3481 4863 
L 3481 0 
L 2906 0 
L 2906 525 
Q 2725 213 2448 61 
Q 2172 -91 1784 -91 
Q 1150 -91 751 415 
Q 353 922 353 1747 
Q 353 2572 751 3078 
Q 1150 3584 1784 3584 
Q 2172 3584 2448 3432 
Q 2725 3281 2906 2969 
z
M 947 1747 
Q 947 1113 1208 752 
Q 1469 391 1925 391 
Q 2381 391 2643 752 
Q 2906 1113 2906 1747 
Q 2906 2381 2643 2742 
Q 2381 3103 1925 3103 
Q 1469 3103 1208 2742 
Q 947 2381 947 1747 
z
" transform="scale(0.015625)"/>
       <path id="DejaVuSans-6c" d="M 603 4863 
L 1178 4863 
L 1178 0 
L 603 0 
L 603 4863 
z
" transform="scale(0.015625)"/>
       <path id="DejaVuSans-79" d="M 2059 -325 
Q 1816 -950 1584 -1140 
Q 1353 -1331 966 -1331 
L 506 -1331 
L 506 -850 
L 844 -850 
Q 1081 -850 1212 -737 
Q 1344 -625 1503 -206 
L 1606 56 
L 191 3500 
L 800 3500 
L 1894 763 
L 2988 3500 
L 3597 3500 
L 2059 -325 
z
" transform="scale(0.015625)"/>
       <path id="DejaVuSans-67" d="M 2906 1791 
Q 2906 2416 2648 2759 
Q 2391 3103 1925 3103 
Q 1463 3103 1205 2759 
Q 947 2416 947 1791 
Q 947 1169 1205 825 
Q 1463 481 1925 481 
Q 2391 481 2648 825 
Q 2906 1169 2906 1791 
z
M 3481 434 
Q 3481 -459 3084 -895 
Q 2688 -1331 1869 -1331 
Q 1566 -1331 1297 -1286 
Q 1028 -1241 775 -1147 
L 775 -588 
Q 1028 -725 1275 -790 
Q 1522 -856 1778 -856 
Q 2344 -856 2625 -561 
Q 2906 -266 2906 331 
L 2906 616 
Q 2728 306 2450 153 
Q 2172 0 1784 0 
Q 1141 0 747 490 
Q 353 981 353 1791 
Q 353 2603 747 3093 
Q 1141 3584 1784 3584 
Q 2172 3584 2450 3431 
Q 2728 3278 2906 2969 
L 2906 3500 
L 3481 3500 
L 3481 434 
z
" transform="scale(0.015625)"/>
       <path id="DejaVuSans-6d" d="M 3328 2828 
Q 3544 3216 3844 3400 
Q 4144 3584 4550 3584 
Q 5097 3584 5394 3201 
Q 5691 2819 5691 2113 
L 5691 0 
L 5113 0 
L 5113 2094 
Q 5113 2597 4934 2840 
Q 4756 3084 4391 3084 
Q 3944 3084 3684 2787 
Q 3425 2491 3425 1978 
L 3425 0 
L 2847 0 
L 2847 2094 
Q 2847 2600 2669 2842 
Q 2491 3084 2119 3084 
Q 1678 3084 1418 2786 
Q 1159 2488 1159 1978 
L 1159 0 
L 581 0 
L 581 3500 
L 1159 3500 
L 1159 2956 
Q 1356 3278 1631 3431 
Q 1906 3584 2284 3584 
Q 2666 3584 2933 3390 
Q 3200 3197 3328 2828 
z
" transform="scale(0.015625)"/>
      </defs>
      <use xlink:href="#DejaVuSans-54"/>
      <use xlink:href="#DejaVuSans-72" transform="translate(46.333984 0)"/>
      <use xlink:href="#DejaVuSans-75" transform="translate(87.447266 0)"/>
      <use xlink:href="#DejaVuSans-65" transform="translate(150.826172 0)"/>
      <use xlink:href="#DejaVuSans-2f" transform="translate(212.349609 0)"/>
      <use xlink:href="#DejaVuSans-55" transform="translate(246.041016 0)"/>
      <use xlink:href="#DejaVuSans-6e" transform="translate(319.234375 0)"/>
      <use xlink:href="#DejaVuSans-64" transform="translate(382.613281 0)"/>
      <use xlink:href="#DejaVuSans-65" transform="translate(446.089844 0)"/>
      <use xlink:href="#DejaVuSans-72" transform="translate(507.613281 0)"/>
      <use xlink:href="#DejaVuSans-6c" transform="translate(548.726562 0)"/>
      <use xlink:href="#DejaVuSans-79" transform="translate(576.509766 0)"/>
      <use xlink:href="#DejaVuSans-69" transform="translate(635.689453 0)"/>
      <use xlink:href="#DejaVuSans-6e" transform="translate(663.472656 0)"/>
      <use xlink:href="#DejaVuSans-67" transform="translate(726.851562 0)"/>
      <use xlink:href="#DejaVuSans-20" transform="translate(790.328125 0)"/>
      <use xlink:href="#DejaVuSans-6d" transform="translate(822.115234 0)"/>
      <use xlink:href="#DejaVuSans-6f" transform="translate(919.527344 0)"/>
      <use xlink:href="#DejaVuSans-64" transform="translate(980.708984 0)"/>
      <use xlink:href="#DejaVuSans-65" transform="translate(1044.185547 0)"/>
      <use xlink:href="#DejaVuSans-6c" transform="translate(1105.708984 0)"/>
     </g>
    </g>
    <g id="line2d_20">
     <path d="M 57.982813 50.094687 
L 67.982812 50.094687 
L 77.982812 50.094687 
" style="fill: none; stroke-dasharray: 12.95,5.6; stroke-dashoffset: 0; stroke: #ff0000; stroke-opacity: 0.8; stroke-width: 3.5"/>
    </g>
    <g id="text_19">
     <!-- AutoSINDy -->
     <g transform="translate(85.982812 53.594687) scale(0.1 -0.1)">
      <defs>
       <path id="DejaVuSans-41" d="M 2188 4044 
L 1331 1722 
L 3047 1722 
L 2188 4044 
z
M 1831 4666 
L 2547 4666 
L 4325 0 
L 3669 0 
L 3244 1197 
L 1141 1197 
L 716 0 
L 50 0 
L 1831 4666 
z
" transform="scale(0.015625)"/>
       <path id="DejaVuSans-53" d="M 3425 4513 
L 3425 3897 
Q 3066 4069 2747 4153 
Q 2428 4238 2131 4238 
Q 1616 4238 1336 4038 
Q 1056 3838 1056 3469 
Q 1056 3159 1242 3001 
Q 1428 2844 1947 2747 
L 2328 2669 
Q 3034 2534 3370 2195 
Q 3706 1856 3706 1288 
Q 3706 609 3251 259 
Q 2797 -91 1919 -91 
Q 1588 -91 1214 -16 
Q 841 59 441 206 
L 441 856 
Q 825 641 1194 531 
Q 1563 422 1919 422 
Q 2459 422 2753 634 
Q 3047 847 3047 1241 
Q 3047 1584 2836 1778 
Q 2625 1972 2144 2069 
L 1759 2144 
Q 1053 2284 737 2584 
Q 422 2884 422 3419 
Q 422 4038 858 4394 
Q 1294 4750 2059 4750 
Q 2388 4750 2728 4690 
Q 3069 4631 3425 4513 
z
" transform="scale(0.015625)"/>
       <path id="DejaVuSans-49" d="M 628 4666 
L 1259 4666 
L 1259 0 
L 628 0 
L 628 4666 
z
" transform="scale(0.015625)"/>
       <path id="DejaVuSans-4e" d="M 628 4666 
L 1478 4666 
L 3547 763 
L 3547 4666 
L 4159 4666 
L 4159 0 
L 3309 0 
L 1241 3903 
L 1241 0 
L 628 0 
L 628 4666 
z
" transform="scale(0.015625)"/>
       <path id="DejaVuSans-44" d="M 1259 4147 
L 1259 519 
L 2022 519 
Q 2988 519 3436 956 
Q 3884 1394 3884 2338 
Q 3884 3275 3436 3711 
Q 2988 4147 2022 4147 
L 1259 4147 
z
M 628 4666 
L 1925 4666 
Q 3281 4666 3915 4102 
Q 4550 3538 4550 2338 
Q 4550 1131 3912 565 
Q 3275 0 1925 0 
L 628 0 
L 628 4666 
z
" transform="scale(0.015625)"/>
      </defs>
      <use xlink:href="#DejaVuSans-41"/>
      <use xlink:href="#DejaVuSans-75" transform="translate(68.408203 0)"/>
      <use xlink:href="#DejaVuSans-74" transform="translate(131.787109 0)"/>
      <use xlink:href="#DejaVuSans-6f" transform="translate(170.996094 0)"/>
      <use xlink:href="#DejaVuSans-53" transform="translate(232.177734 0)"/>
      <use xlink:href="#DejaVuSans-49" transform="translate(295.654297 0)"/>
      <use xlink:href="#DejaVuSans-4e" transform="translate(325.146484 0)"/>
      <use xlink:href="#DejaVuSans-44" transform="translate(399.951172 0)"/>
      <use xlink:href="#DejaVuSans-79" transform="translate(476.953125 0)"/>
     </g>
    </g>
    <g id="line2d_21">
     <path d="M 57.982813 64.772812 
L 67.982812 64.772812 
L 77.982812 64.772812 
" style="fill: none; stroke-dasharray: 3.5,5.775; stroke-dashoffset: 0; stroke: #008000; stroke-opacity: 0.8; stroke-width: 3.5"/>
    </g>
    <g id="text_20">
     <!-- Standard SINDy -->
     <g transform="translate(85.982812 68.272812) scale(0.1 -0.1)">
      <use xlink:href="#DejaVuSans-53"/>
      <use xlink:href="#DejaVuSans-74" transform="translate(63.476562 0)"/>
      <use xlink:href="#DejaVuSans-61" transform="translate(102.685547 0)"/>
      <use xlink:href="#DejaVuSans-6e" transform="translate(163.964844 0)"/>
      <use xlink:href="#DejaVuSans-64" transform="translate(227.34375 0)"/>
      <use xlink:href="#DejaVuSans-61" transform="translate(290.820312 0)"/>
      <use xlink:href="#DejaVuSans-72" transform="translate(352.099609 0)"/>
      <use xlink:href="#DejaVuSans-64" transform="translate(391.462891 0)"/>
      <use xlink:href="#DejaVuSans-20" transform="translate(454.939453 0)"/>
      <use xlink:href="#DejaVuSans-53" transform="translate(486.726562 0)"/>
      <use xlink:href="#DejaVuSans-49" transform="translate(550.203125 0)"/>
      <use xlink:href="#DejaVuSans-4e" transform="translate(579.695312 0)"/>
      <use xlink:href="#DejaVuSans-44" transform="translate(654.5 0)"/>
      <use xlink:href="#DejaVuSans-79" transform="translate(731.501953 0)"/>
     </g>
    </g>
    <g id="line2d_22">
     <path d="M 57.982813 79.450937 
L 67.982812 79.450937 
L 77.982812 79.450937 
" style="fill: none; stroke-dasharray: 22.4,5.6,3.5,5.6; stroke-dashoffset: 0; stroke: #0000ff; stroke-opacity: 0.8; stroke-width: 3.5"/>
    </g>
    <g id="text_21">
     <!-- Standard PySR -->
     <g transform="translate(85.982812 82.950937) scale(0.1 -0.1)">
      <defs>
       <path id="DejaVuSans-52" d="M 2841 2188 
Q 3044 2119 3236 1894 
Q 3428 1669 3622 1275 
L 4263 0 
L 3584 0 
L 2988 1197 
Q 2756 1666 2539 1819 
Q 2322 1972 1947 1972 
L 1259 1972 
L 1259 0 
L 628 0 
L 628 4666 
L 2053 4666 
Q 2853 4666 3247 4331 
Q 3641 3997 3641 3322 
Q 3641 2881 3436 2590 
Q 3231 2300 2841 2188 
z
M 1259 4147 
L 1259 2491 
L 2053 2491 
Q 2509 2491 2742 2702 
Q 2975 2913 2975 3322 
Q 2975 3731 2742 3939 
Q 2509 4147 2053 4147 
L 1259 4147 
z
" transform="scale(0.015625)"/>
      </defs>
      <use xlink:href="#DejaVuSans-53"/>
      <use xlink:href="#DejaVuSans-74" transform="translate(63.476562 0)"/>
      <use xlink:href="#DejaVuSans-61" transform="translate(102.685547 0)"/>
      <use xlink:href="#DejaVuSans-6e" transform="translate(163.964844 0)"/>
      <use xlink:href="#DejaVuSans-64" transform="translate(227.34375 0)"/>
      <use xlink:href="#DejaVuSans-61" transform="translate(290.820312 0)"/>
      <use xlink:href="#DejaVuSans-72" transform="translate(352.099609 0)"/>
      <use xlink:href="#DejaVuSans-64" transform="translate(391.462891 0)"/>
      <use xlink:href="#DejaVuSans-20" transform="translate(454.939453 0)"/>
      <use xlink:href="#DejaVuSans-50" transform="translate(486.726562 0)"/>
      <use xlink:href="#DejaVuSans-79" transform="translate(547.029297 0)"/>
      <use xlink:href="#DejaVuSans-53" transform="translate(606.208984 0)"/>
      <use xlink:href="#DejaVuSans-52" transform="translate(669.685547 0)"/>
     </g>
    </g>
   </g>
  </g>
 </g>
 <defs>
  <clipPath id="pe8bb9ae96a">
   <rect x="48.982813" y="22.318125" width="512.23" height="508.12"/>
  </clipPath>
 </defs>
</svg>
