<?xml version="1.0" encoding="utf-8" standalone="no"?>
<!DOCTYPE svg PUBLIC "-//W3C//DTD SVG 1.1//EN"
  "http://www.w3.org/Graphics/SVG/1.1/DTD/svg11.dtd">
<svg xmlns:xlink="http://www.w3.org/1999/xlink" width="862.210312pt" height="285.79625pt" viewBox="0 0 862.210312 285.79625" xmlns="http://www.w3.org/2000/svg" version="1.1">
 <metadata>
  <rdf:RDF xmlns:dc="http://purl.org/dc/elements/1.1/" xmlns:cc="http://creativecommons.org/ns#" xmlns:rdf="http://www.w3.org/1999/02/22-rdf-syntax-ns#">
   <cc:Work>
    <dc:type rdf:resource="http://purl.org/dc/dcmitype/StillImage"/>
    <dc:date>2026-04-05T22:38:46.796681</dc:date>
    <dc:format>image/svg+xml</dc:format>
    <dc:creator>
     <cc:Agent>
      <dc:title>Matplotlib v3.10.7, https://matplotlib.org/</dc:title>
     </cc:Agent>
    </dc:creator>
   </cc:Work>
  </rdf:RDF>
 </metadata>
 <defs>
  <style type="text/css">*{stroke-linejoin: round; stroke-linecap: butt}</style>
 </defs>
 <g id="figure_1">
  <g id="patch_1">
   <path d="M 0 285.79625 
L 862.210312 285.79625 
L 862.210312 0 
L 0 0 
z
" style="fill: #ffffff"/>
  </g>
  <g id="axes_1">
   <g id="patch_2">
    <path d="M 42.620313 136.79 
L 849.210312 136.79 
L 849.210312 39.64 
L 42.620313 39.64 
z
" style="fill: #ffffff"/>
   </g>
   <g id="line2d_1">
    <path d="M 79.283494 44.498629 
L 83.691893 45.418551 
L 89.569758 46.406645 
L 98.386555 47.604085 
L 111.611751 49.124812 
L 151.287338 53.564444 
L 165.982 55.457436 
L 179.207196 57.375879 
L 190.962926 59.321597 
L 201.249189 61.27418 
L 210.065987 63.197036 
L 217.413318 65.040214 
L 223.291182 66.720767 
L 229.169047 68.630309 
L 235.046912 70.818274 
L 239.455311 72.678744 
L 243.863709 74.769315 
L 248.272108 77.127256 
L 252.680507 79.787958 
L 257.088905 82.77992 
L 261.497304 86.114398 
L 265.905702 89.756286 
L 273.253033 96.226723 
L 277.661432 100.043565 
L 282.069831 103.532675 
L 285.008763 105.583267 
L 287.947695 107.3608 
L 290.886628 108.854134 
L 293.82556 110.073624 
L 296.764493 111.036912 
L 299.703425 111.768923 
L 302.642357 112.303861 
L 307.050756 112.818421 
L 311.459155 113.071438 
L 317.33702 113.137113 
L 324.684351 112.946912 
L 334.970614 112.410856 
L 349.665276 111.394148 
L 370.237803 109.744011 
L 392.279796 107.769243 
L 412.852323 105.707534 
L 430.485917 103.720571 
L 445.180579 101.860055 
L 458.405775 99.961956 
L 470.161505 98.031523 
L 480.447768 96.090848 
L 489.264566 94.180483 
L 496.611897 92.352847 
L 502.489761 90.689506 
L 508.367626 88.802177 
L 514.245491 86.641824 
L 518.65389 84.804339 
L 523.062288 82.739482 
L 527.470687 80.410529 
L 531.879086 77.782906 
L 536.287484 74.826328 
L 540.695883 71.528255 
L 545.104281 67.914792 
L 552.451612 61.465533 
L 558.329477 56.407767 
L 561.26841 54.102269 
L 564.207342 52.020245 
L 567.146274 50.19624 
L 570.085207 48.647608 
L 573.024139 47.374505 
L 575.963072 46.360567 
L 578.902004 45.580668 
L 581.840936 45.001991 
L 586.249335 44.439405 
L 590.657734 44.151038 
L 596.535599 44.056537 
L 603.88293 44.225927 
L 614.169193 44.747422 
L 628.863855 45.752853 
L 649.436382 47.39004 
L 672.947841 49.48647 
L 693.520368 51.542787 
L 711.153963 53.52139 
L 725.848625 55.381083 
L 739.07382 57.271591 
L 750.82955 59.188204 
L 759.646347 60.823904 
L 768.463145 62.679116 
L 775.810476 64.434321 
L 781.68834 66.023399 
L 787.566205 67.825692 
L 793.44407 69.894772 
L 797.852469 71.658391 
L 802.260867 73.635453 
L 806.669266 75.857401 
L 811.077664 78.358201 
L 812.547131 79.260002 
L 812.547131 79.260002 
" clip-path="url(#p80a87adcde)" style="fill: none; stroke: #000000; stroke-opacity: 0.4; stroke-width: 6; stroke-linecap: square"/>
   </g>
   <g id="matplotlib.axis_1">
    <g id="xtick_1">
     <g id="line2d_2">
      <defs>
       <path id="mc0d26898f7" d="M 0 0 
L 0 3.5 
" style="stroke: #000000; stroke-width: 0.8"/>
      </defs>
      <g>
       <use xlink:href="#mc0d26898f7" x="79.283494" y="136.79" style="stroke: #000000; stroke-width: 0.8"/>
      </g>
     </g>
    </g>
    <g id="xtick_2">
     <g id="line2d_3">
      <g>
       <use xlink:href="#mc0d26898f7" x="225.936222" y="136.79" style="stroke: #000000; stroke-width: 0.8"/>
      </g>
     </g>
    </g>
    <g id="xtick_3">
     <g id="line2d_4">
      <g>
       <use xlink:href="#mc0d26898f7" x="372.588949" y="136.79" style="stroke: #000000; stroke-width: 0.8"/>
      </g>
     </g>
    </g>
    <g id="xtick_4">
     <g id="line2d_5">
      <g>
       <use xlink:href="#mc0d26898f7" x="519.241676" y="136.79" style="stroke: #000000; stroke-width: 0.8"/>
      </g>
     </g>
    </g>
    <g id="xtick_5">
     <g id="line2d_6">
      <g>
       <use xlink:href="#mc0d26898f7" x="665.894403" y="136.79" style="stroke: #000000; stroke-width: 0.8"/>
      </g>
     </g>
    </g>
    <g id="xtick_6">
     <g id="line2d_7">
      <g>
       <use xlink:href="#mc0d26898f7" x="812.547131" y="136.79" style="stroke: #000000; stroke-width: 0.8"/>
      </g>
     </g>
    </g>
   </g>
   <g id="matplotlib.axis_2">
    <g id="ytick_1">
     <g id="line2d_8">
      <defs>
       <path id="m77c52f8e8c" d="M 0 0 
L -3.5 0 
" style="stroke: #000000; stroke-width: 0.8"/>
      </defs>
      <g>
       <use xlink:href="#m77c52f8e8c" x="42.620313" y="112.792679" style="stroke: #000000; stroke-width: 0.8"/>
      </g>
     </g>
     <g id="text_1">
      <!-- −2 -->
      <g transform="translate(20.878125 116.591897) scale(0.1 -0.1)">
       <defs>
        <path id="DejaVuSans-2212" d="M 678 2272 
L 4684 2272 
L 4684 1741 
L 678 1741 
L 678 2272 
z
" transform="scale(0.015625)"/>
        <path id="DejaVuSans-32" d="M 1228 531 
L 3431 531 
L 3431 0 
L 469 0 
L 469 531 
Q 828 903 1448 1529 
Q 2069 2156 2228 2338 
Q 2531 2678 2651 2914 
Q 2772 3150 2772 3378 
Q 2772 3750 2511 3984 
Q 2250 4219 1831 4219 
Q 1534 4219 1204 4116 
Q 875 4013 500 3803 
L 500 4441 
Q 881 4594 1212 4672 
Q 1544 4750 1819 4750 
Q 2544 4750 2975 4387 
Q 3406 4025 3406 3419 
Q 3406 3131 3298 2873 
Q 3191 2616 2906 2266 
Q 2828 2175 2409 1742 
Q 1991 1309 1228 531 
z
" transform="scale(0.015625)"/>
       </defs>
       <use xlink:href="#DejaVuSans-2212"/>
       <use xlink:href="#DejaVuSans-32" transform="translate(83.789062 0)"/>
      </g>
     </g>
    </g>
    <g id="ytick_2">
     <g id="line2d_9">
      <g>
       <use xlink:href="#m77c52f8e8c" x="42.620313" y="78.645654" style="stroke: #000000; stroke-width: 0.8"/>
      </g>
     </g>
     <g id="text_2">
      <!-- 0 -->
      <g transform="translate(29.257813 82.444873) scale(0.1 -0.1)">
       <defs>
        <path id="DejaVuSans-30" d="M 2034 4250 
Q 1547 4250 1301 3770 
Q 1056 3291 1056 2328 
Q 1056 1369 1301 889 
Q 1547 409 2034 409 
Q 2525 409 2770 889 
Q 3016 1369 3016 2328 
Q 3016 3291 2770 3770 
Q 2525 4250 2034 4250 
z
M 2034 4750 
Q 2819 4750 3233 4129 
Q 3647 3509 3647 2328 
Q 3647 1150 3233 529 
Q 2819 -91 2034 -91 
Q 1250 -91 836 529 
Q 422 1150 422 2328 
Q 422 3509 836 4129 
Q 1250 4750 2034 4750 
z
" transform="scale(0.015625)"/>
       </defs>
       <use xlink:href="#DejaVuSans-30"/>
      </g>
     </g>
    </g>
    <g id="ytick_3">
     <g id="line2d_10">
      <g>
       <use xlink:href="#m77c52f8e8c" x="42.620313" y="44.498629" style="stroke: #000000; stroke-width: 0.8"/>
      </g>
     </g>
     <g id="text_3">
      <!-- 2 -->
      <g transform="translate(29.257813 48.297848) scale(0.1 -0.1)">
       <use xlink:href="#DejaVuSans-32"/>
      </g>
     </g>
    </g>
    <g id="text_4">
     <!-- $x0$ -->
     <g transform="translate(14.798438 94.365) rotate(-90) scale(0.1 -0.1)">
      <defs>
       <path id="DejaVuSans-Oblique-78" d="M 3841 3500 
L 2234 1784 
L 3219 0 
L 2559 0 
L 1819 1388 
L 531 0 
L -166 0 
L 1556 1844 
L 641 3500 
L 1300 3500 
L 1972 2234 
L 3144 3500 
L 3841 3500 
z
" transform="scale(0.015625)"/>
      </defs>
      <use xlink:href="#DejaVuSans-Oblique-78" transform="translate(0 0.78125)"/>
      <use xlink:href="#DejaVuSans-30" transform="translate(59.179688 0.78125)"/>
     </g>
    </g>
   </g>
   <g id="line2d_11">
    <path d="M 79.283494 44.498629 
L 89.569758 46.760501 
L 133.653744 56.081621 
L 143.940007 58.584743 
L 152.756805 60.928495 
L 161.573602 63.504157 
L 168.920933 65.866865 
L 176.268264 68.463711 
L 183.615595 71.331852 
L 189.49346 73.849442 
L 195.371325 76.591303 
L 201.249189 79.568615 
L 207.127054 82.779162 
L 214.474385 87.098721 
L 224.760649 93.501369 
L 233.577446 98.934693 
L 239.455311 102.279084 
L 243.863709 104.541131 
L 248.272108 106.541205 
L 252.680507 108.254326 
L 257.088905 109.673235 
L 261.497304 110.801868 
L 265.905702 111.661124 
L 270.314101 112.279229 
L 274.7225 112.686969 
L 280.600364 112.955873 
L 286.478229 112.970499 
L 293.82556 112.713779 
L 301.172891 112.227022 
L 309.989689 111.419673 
L 320.275952 110.249641 
L 332.031682 108.681188 
L 343.787411 106.903407 
L 355.543141 104.924169 
L 367.298871 102.729188 
L 377.585134 100.606309 
L 387.871397 98.259743 
L 396.688195 96.035668 
L 405.504992 93.575678 
L 412.852323 91.311555 
L 420.199654 88.817213 
L 427.546985 86.052854 
L 433.42485 83.619111 
L 439.302715 80.971258 
L 445.180579 78.09875 
L 451.058444 74.99185 
L 458.405775 70.809783 
L 467.222572 65.471915 
L 478.978302 58.349905 
L 484.856167 55.087105 
L 489.264566 52.882131 
L 493.672964 50.928495 
L 498.081363 49.255506 
L 502.489761 47.87009 
L 506.89816 46.762517 
L 511.306559 45.914647 
L 515.714957 45.301626 
L 520.123356 44.894637 
L 526.001221 44.622416 
L 531.879086 44.601767 
L 539.226417 44.849614 
L 546.573748 45.327765 
L 555.390545 46.126422 
L 565.676808 47.289344 
L 577.432538 48.85385 
L 589.188268 50.632184 
L 600.943997 52.61669 
L 612.699727 54.822393 
L 622.98599 56.960275 
L 633.272254 59.328905 
L 642.089051 61.579606 
L 650.905848 64.075923 
L 658.253179 66.379376 
L 665.60051 68.920563 
L 672.947841 71.733944 
L 678.825706 74.205331 
L 684.703571 76.896481 
L 690.581436 79.819734 
L 696.4593 82.96902 
L 703.806632 87.201266 
L 714.092895 93.467192 
L 722.909692 98.783985 
L 728.787557 102.05825 
L 733.195956 104.278508 
L 737.604354 106.245613 
L 742.012753 107.936485 
L 746.421151 109.341527 
L 750.82955 110.464612 
L 755.237949 111.324178 
L 759.646347 111.946752 
L 764.054746 112.361529 
L 769.932611 112.64159 
L 775.810476 112.667517 
L 783.157807 112.423264 
L 790.505138 111.946113 
L 799.321935 111.146154 
L 809.608198 109.979279 
L 812.547131 109.608218 
L 812.547131 109.608218 
" clip-path="url(#p80a87adcde)" style="fill: none; stroke-dasharray: 22.4,5.6,3.5,5.6; stroke-dashoffset: 0; stroke: #0000ff; stroke-opacity: 0.8; stroke-width: 3.5"/>
   </g>
   <g id="patch_3">
    <path d="M 42.620313 136.79 
L 42.620313 39.64 
" style="fill: none; stroke: #000000; stroke-width: 0.8; stroke-linejoin: miter; stroke-linecap: square"/>
   </g>
   <g id="patch_4">
    <path d="M 849.210312 136.79 
L 849.210312 39.64 
" style="fill: none; stroke: #000000; stroke-width: 0.8; stroke-linejoin: miter; stroke-linecap: square"/>
   </g>
   <g id="patch_5">
    <path d="M 42.620313 136.79 
L 849.210313 136.79 
" style="fill: none; stroke: #000000; stroke-width: 0.8; stroke-linejoin: miter; stroke-linecap: square"/>
   </g>
   <g id="patch_6">
    <path d="M 42.620313 39.64 
L 849.210313 39.64 
" style="fill: none; stroke: #000000; stroke-width: 0.8; stroke-linejoin: miter; stroke-linecap: square"/>
   </g>
   <g id="line2d_12">
    <path d="M 79.283494 44.498629 
L 85.161359 44.598285 
L 92.50869 45.003855 
L 102.794954 45.862386 
L 120.428548 47.605624 
L 139.531609 49.711853 
L 155.695737 51.715628 
L 168.920933 53.576935 
L 179.207196 55.220999 
L 188.023993 56.815584 
L 196.840791 58.637481 
L 204.188122 60.385853 
L 210.065987 61.983495 
L 215.943851 63.813369 
L 220.35225 65.383247 
L 224.760649 67.175431 
L 229.169047 69.270631 
L 232.10798 70.90927 
L 235.046912 72.819304 
L 237.985844 75.411 
L 242.394243 79.643073 
L 249.741574 87.100859 
L 255.619439 93.396097 
L 258.558371 96.803503 
L 261.497304 100.626509 
L 262.96677 102.9442 
L 264.436236 106.039542 
L 265.905702 110.950743 
L 267.375169 120.494075 
L 268.844635 131.860086 
L 270.314101 132.372272 
L 361.421006 132.374087 
L 812.547131 132.374087 
L 812.547131 132.374087 
" clip-path="url(#p80a87adcde)" style="fill: none; stroke-dasharray: 3.5,5.775; stroke-dashoffset: 0; stroke: #008000; stroke-opacity: 0.8; stroke-width: 3.5"/>
   </g>
   <g id="line2d_13">
    <path d="M 79.283494 44.498629 
L 83.691893 45.41624 
L 89.569758 46.399918 
L 98.386555 47.590898 
L 111.611751 49.100668 
L 149.817872 53.338578 
L 165.982 55.405001 
L 179.207196 57.323234 
L 190.962926 59.269362 
L 199.779723 60.929519 
L 208.59652 62.817993 
L 215.943851 64.618446 
L 221.821716 66.248664 
L 227.699581 68.090502 
L 233.577446 70.19532 
L 237.985844 71.984877 
L 242.394243 73.991099 
L 246.802642 76.25026 
L 251.21104 78.799706 
L 255.619439 81.672002 
L 260.027838 84.883979 
L 264.436236 88.419987 
L 270.314101 93.509928 
L 277.661432 99.943708 
L 282.069831 103.449942 
L 285.008763 105.509579 
L 287.947695 107.299547 
L 290.886628 108.804875 
L 293.82556 110.030183 
L 296.764493 110.99653 
L 299.703425 111.734405 
L 302.642357 112.278068 
L 307.050756 112.802267 
L 311.459155 113.064136 
L 317.33702 113.136217 
L 324.684351 112.951003 
L 334.970614 112.418867 
L 349.665276 111.407053 
L 371.707269 109.641323 
L 393.749262 107.663674 
L 414.321789 105.597341 
L 431.955384 103.599669 
L 446.650046 101.716872 
L 459.875241 99.791155 
L 470.161505 98.090009 
L 478.978302 96.444784 
L 487.795099 94.574035 
L 495.14243 92.791693 
L 501.020295 91.179081 
L 506.89816 89.358699 
L 512.776025 87.280239 
L 517.184423 85.514323 
L 521.592822 83.535808 
L 526.001221 81.308733 
L 530.409619 78.795692 
L 534.818018 75.963197 
L 539.226417 72.791968 
L 543.634815 69.29279 
L 549.51268 64.232972 
L 558.329477 56.552936 
L 561.26841 54.228243 
L 564.207342 52.126023 
L 567.146274 50.287648 
L 570.085207 48.733425 
L 573.024139 47.46072 
L 575.963072 46.451413 
L 578.902004 45.676202 
L 581.840936 45.101153 
L 586.249335 44.540282 
L 590.657734 44.252203 
L 596.535599 44.157041 
L 603.88293 44.325588 
L 614.169193 44.846229 
L 628.863855 45.851131 
L 649.436382 47.487788 
L 671.478375 49.446609 
L 692.050902 51.490413 
L 709.684496 53.461797 
L 724.379158 55.31482 
L 737.604354 57.204221 
L 749.360084 59.122377 
L 759.646347 61.050126 
L 768.463145 62.9511 
L 775.810476 64.7662 
L 781.68834 66.411741 
L 787.566205 68.272996 
L 793.44407 70.402325 
L 797.852469 72.214317 
L 802.260867 74.247014 
L 806.669266 76.536936 
L 811.077664 79.121199 
L 812.547131 80.05377 
L 812.547131 80.05377 
" clip-path="url(#p80a87adcde)" style="fill: none; stroke-dasharray: 12.95,5.6; stroke-dashoffset: 0; stroke: #ff0000; stroke-opacity: 0.8; stroke-width: 3.5"/>
   </g>
  </g>
  <g id="axes_2">
   <g id="patch_7">
    <path d="M 42.620313 248.24 
L 849.210312 248.24 
L 849.210312 151.09 
L 42.620313 151.09 
z
" style="fill: #ffffff"/>
   </g>
   <g id="line2d_14">
    <path d="M 79.283494 188.755385 
L 82.222427 187.803068 
L 85.161359 187.09403 
L 89.569758 186.346958 
L 93.978156 185.859587 
L 99.856021 185.449841 
L 107.203352 185.182213 
L 117.489616 185.054789 
L 132.184278 185.130189 
L 149.817872 185.439792 
L 167.451467 185.953084 
L 182.146129 186.590692 
L 193.901858 187.317213 
L 204.188122 188.188023 
L 211.535453 189.00421 
L 218.882784 190.05541 
L 224.760649 191.124517 
L 230.638513 192.456055 
L 235.046912 193.66547 
L 239.455311 195.087715 
L 243.863709 196.754498 
L 248.272108 198.67626 
L 252.680507 200.824313 
L 262.96677 206.020912 
L 265.905702 207.177428 
L 268.844635 207.955376 
L 270.314101 208.151437 
L 271.783567 208.193203 
L 273.253033 208.069406 
L 274.7225 207.773307 
L 276.191966 207.302451 
L 277.661432 206.658666 
L 279.130898 205.848065 
L 280.600364 204.881043 
L 283.539297 202.540736 
L 286.478229 199.81247 
L 293.82556 192.785626 
L 296.764493 190.297805 
L 299.703425 188.153653 
L 302.642357 186.391836 
L 305.58129 184.953365 
L 308.520222 183.797756 
L 311.459155 182.883482 
L 314.398087 182.165772 
L 318.806486 181.371727 
L 323.214884 180.823734 
L 329.092749 180.343469 
L 336.44008 179.982048 
L 348.19581 179.66901 
L 373.176735 179.313839 
L 414.321789 178.688647 
L 437.833248 178.113288 
L 453.997377 177.521416 
L 467.222572 176.837178 
L 477.508836 176.110086 
L 486.325633 175.285867 
L 493.672964 174.396657 
L 499.550829 173.501585 
L 505.428694 172.391645 
L 511.306559 171.009238 
L 515.714957 169.754971 
L 520.123356 168.280056 
L 524.531754 166.551226 
L 528.940153 164.571058 
L 534.818018 161.617528 
L 540.695883 158.584612 
L 543.634815 157.269998 
L 546.573748 156.246966 
L 548.043214 155.884762 
L 549.51268 155.644545 
L 550.982146 155.54385 
L 552.451612 155.600778 
L 553.921079 155.833993 
L 555.390545 156.26693 
L 556.860011 156.895592 
L 558.329477 157.696079 
L 561.26841 159.720093 
L 564.207342 162.160552 
L 568.615741 166.237162 
L 573.024139 170.351112 
L 575.963072 172.876188 
L 578.902004 175.079657 
L 581.840936 176.937731 
L 584.779869 178.461239 
L 587.718801 179.682458 
L 590.657734 180.651029 
L 593.596666 181.412399 
L 598.005065 182.252967 
L 602.413463 182.832101 
L 608.291328 183.336659 
L 615.638659 183.713191 
L 627.394389 184.034858 
L 650.905848 184.371279 
L 693.520368 184.997845 
L 717.031827 185.556319 
L 734.665422 186.182665 
L 747.890618 186.853085 
L 758.176881 187.570615 
L 766.993678 188.381825 
L 774.341009 189.237179 
L 780.218874 190.114417 
L 786.096739 191.226473 
L 790.505138 192.246175 
L 794.913536 193.447162 
L 799.321935 194.847319 
L 803.730333 196.462645 
L 808.138732 198.307251 
L 812.547131 200.393359 
L 812.547131 200.393359 
" clip-path="url(#p9f400e920f)" style="fill: none; stroke: #000000; stroke-opacity: 0.4; stroke-width: 6; stroke-linecap: square"/>
   </g>
   <g id="matplotlib.axis_3">
    <g id="xtick_7">
     <g id="line2d_15">
      <g>
       <use xlink:href="#mc0d26898f7" x="79.283494" y="248.24" style="stroke: #000000; stroke-width: 0.8"/>
      </g>
     </g>
     <g id="text_5">
      <!-- 0 -->
      <g transform="translate(76.102244 262.838437) scale(0.1 -0.1)">
       <use xlink:href="#DejaVuSans-30"/>
      </g>
     </g>
    </g>
    <g id="xtick_8">
     <g id="line2d_16">
      <g>
       <use xlink:href="#mc0d26898f7" x="225.936222" y="248.24" style="stroke: #000000; stroke-width: 0.8"/>
      </g>
     </g>
     <g id="text_6">
      <!-- 2 -->
      <g transform="translate(222.754972 262.838437) scale(0.1 -0.1)">
       <use xlink:href="#DejaVuSans-32"/>
      </g>
     </g>
    </g>
    <g id="xtick_9">
     <g id="line2d_17">
      <g>
       <use xlink:href="#mc0d26898f7" x="372.588949" y="248.24" style="stroke: #000000; stroke-width: 0.8"/>
      </g>
     </g>
     <g id="text_7">
      <!-- 4 -->
      <g transform="translate(369.407699 262.838437) scale(0.1 -0.1)">
       <defs>
        <path id="DejaVuSans-34" d="M 2419 4116 
L 825 1625 
L 2419 1625 
L 2419 4116 
z
M 2253 4666 
L 3047 4666 
L 3047 1625 
L 3713 1625 
L 3713 1100 
L 3047 1100 
L 3047 0 
L 2419 0 
L 2419 1100 
L 313 1100 
L 313 1709 
L 2253 4666 
z
" transform="scale(0.015625)"/>
       </defs>
       <use xlink:href="#DejaVuSans-34"/>
      </g>
     </g>
    </g>
    <g id="xtick_10">
     <g id="line2d_18">
      <g>
       <use xlink:href="#mc0d26898f7" x="519.241676" y="248.24" style="stroke: #000000; stroke-width: 0.8"/>
      </g>
     </g>
     <g id="text_8">
      <!-- 6 -->
      <g transform="translate(516.060426 262.838437) scale(0.1 -0.1)">
       <defs>
        <path id="DejaVuSans-36" d="M 2113 2584 
Q 1688 2584 1439 2293 
Q 1191 2003 1191 1497 
Q 1191 994 1439 701 
Q 1688 409 2113 409 
Q 2538 409 2786 701 
Q 3034 994 3034 1497 
Q 3034 2003 2786 2293 
Q 2538 2584 2113 2584 
z
M 3366 4563 
L 3366 3988 
Q 3128 4100 2886 4159 
Q 2644 4219 2406 4219 
Q 1781 4219 1451 3797 
Q 1122 3375 1075 2522 
Q 1259 2794 1537 2939 
Q 1816 3084 2150 3084 
Q 2853 3084 3261 2657 
Q 3669 2231 3669 1497 
Q 3669 778 3244 343 
Q 2819 -91 2113 -91 
Q 1303 -91 875 529 
Q 447 1150 447 2328 
Q 447 3434 972 4092 
Q 1497 4750 2381 4750 
Q 2619 4750 2861 4703 
Q 3103 4656 3366 4563 
z
" transform="scale(0.015625)"/>
       </defs>
       <use xlink:href="#DejaVuSans-36"/>
      </g>
     </g>
    </g>
    <g id="xtick_11">
     <g id="line2d_19">
      <g>
       <use xlink:href="#mc0d26898f7" x="665.894403" y="248.24" style="stroke: #000000; stroke-width: 0.8"/>
      </g>
     </g>
     <g id="text_9">
      <!-- 8 -->
      <g transform="translate(662.713153 262.838437) scale(0.1 -0.1)">
       <defs>
        <path id="DejaVuSans-38" d="M 2034 2216 
Q 1584 2216 1326 1975 
Q 1069 1734 1069 1313 
Q 1069 891 1326 650 
Q 1584 409 2034 409 
Q 2484 409 2743 651 
Q 3003 894 3003 1313 
Q 3003 1734 2745 1975 
Q 2488 2216 2034 2216 
z
M 1403 2484 
Q 997 2584 770 2862 
Q 544 3141 544 3541 
Q 544 4100 942 4425 
Q 1341 4750 2034 4750 
Q 2731 4750 3128 4425 
Q 3525 4100 3525 3541 
Q 3525 3141 3298 2862 
Q 3072 2584 2669 2484 
Q 3125 2378 3379 2068 
Q 3634 1759 3634 1313 
Q 3634 634 3220 271 
Q 2806 -91 2034 -91 
Q 1263 -91 848 271 
Q 434 634 434 1313 
Q 434 1759 690 2068 
Q 947 2378 1403 2484 
z
M 1172 3481 
Q 1172 3119 1398 2916 
Q 1625 2713 2034 2713 
Q 2441 2713 2670 2916 
Q 2900 3119 2900 3481 
Q 2900 3844 2670 4047 
Q 2441 4250 2034 4250 
Q 1625 4250 1398 4047 
Q 1172 3844 1172 3481 
z
" transform="scale(0.015625)"/>
       </defs>
       <use xlink:href="#DejaVuSans-38"/>
      </g>
     </g>
    </g>
    <g id="xtick_12">
     <g id="line2d_20">
      <g>
       <use xlink:href="#mc0d26898f7" x="812.547131" y="248.24" style="stroke: #000000; stroke-width: 0.8"/>
      </g>
     </g>
     <g id="text_10">
      <!-- 10 -->
      <g transform="translate(806.184631 262.838437) scale(0.1 -0.1)">
       <defs>
        <path id="DejaVuSans-31" d="M 794 531 
L 1825 531 
L 1825 4091 
L 703 3866 
L 703 4441 
L 1819 4666 
L 2450 4666 
L 2450 531 
L 3481 531 
L 3481 0 
L 794 0 
L 794 531 
z
" transform="scale(0.015625)"/>
       </defs>
       <use xlink:href="#DejaVuSans-31"/>
       <use xlink:href="#DejaVuSans-30" transform="translate(63.623047 0)"/>
      </g>
     </g>
    </g>
    <g id="text_11">
     <!-- Time -->
     <g transform="translate(433.681719 276.516562) scale(0.1 -0.1)">
      <defs>
       <path id="DejaVuSans-54" d="M -19 4666 
L 3928 4666 
L 3928 4134 
L 2272 4134 
L 2272 0 
L 1638 0 
L 1638 4134 
L -19 4134 
L -19 4666 
z
" transform="scale(0.015625)"/>
       <path id="DejaVuSans-69" d="M 603 3500 
L 1178 3500 
L 1178 0 
L 603 0 
L 603 3500 
z
M 603 4863 
L 1178 4863 
L 1178 4134 
L 603 4134 
L 603 4863 
z
" transform="scale(0.015625)"/>
       <path id="DejaVuSans-6d" d="M 3328 2828 
Q 3544 3216 3844 3400 
Q 4144 3584 4550 3584 
Q 5097 3584 5394 3201 
Q 5691 2819 5691 2113 
L 5691 0 
L 5113 0 
L 5113 2094 
Q 5113 2597 4934 2840 
Q 4756 3084 4391 3084 
Q 3944 3084 3684 2787 
Q 3425 2491 3425 1978 
L 3425 0 
L 2847 0 
L 2847 2094 
Q 2847 2600 2669 2842 
Q 2491 3084 2119 3084 
Q 1678 3084 1418 2786 
Q 1159 2488 1159 1978 
L 1159 0 
L 581 0 
L 581 3500 
L 1159 3500 
L 1159 2956 
Q 1356 3278 1631 3431 
Q 1906 3584 2284 3584 
Q 2666 3584 2933 3390 
Q 3200 3197 3328 2828 
z
" transform="scale(0.015625)"/>
       <path id="DejaVuSans-65" d="M 3597 1894 
L 3597 1613 
L 953 1613 
Q 991 1019 1311 708 
Q 1631 397 2203 397 
Q 2534 397 2845 478 
Q 3156 559 3463 722 
L 3463 178 
Q 3153 47 2828 -22 
Q 2503 -91 2169 -91 
Q 1331 -91 842 396 
Q 353 884 353 1716 
Q 353 2575 817 3079 
Q 1281 3584 2069 3584 
Q 2775 3584 3186 3129 
Q 3597 2675 3597 1894 
z
M 3022 2063 
Q 3016 2534 2758 2815 
Q 2500 3097 2075 3097 
Q 1594 3097 1305 2825 
Q 1016 2553 972 2059 
L 3022 2063 
z
" transform="scale(0.015625)"/>
      </defs>
      <use xlink:href="#DejaVuSans-54"/>
      <use xlink:href="#DejaVuSans-69" transform="translate(57.958984 0)"/>
      <use xlink:href="#DejaVuSans-6d" transform="translate(85.742188 0)"/>
      <use xlink:href="#DejaVuSans-65" transform="translate(183.154297 0)"/>
     </g>
    </g>
   </g>
   <g id="matplotlib.axis_4">
    <g id="ytick_4">
     <g id="line2d_21">
      <g>
       <use xlink:href="#m77c52f8e8c" x="42.620313" y="216.330289" style="stroke: #000000; stroke-width: 0.8"/>
      </g>
     </g>
     <g id="text_12">
      <!-- −5 -->
      <g transform="translate(20.878125 220.129508) scale(0.1 -0.1)">
       <defs>
        <path id="DejaVuSans-35" d="M 691 4666 
L 3169 4666 
L 3169 4134 
L 1269 4134 
L 1269 2991 
Q 1406 3038 1543 3061 
Q 1681 3084 1819 3084 
Q 2600 3084 3056 2656 
Q 3513 2228 3513 1497 
Q 3513 744 3044 326 
Q 2575 -91 1722 -91 
Q 1428 -91 1123 -41 
Q 819 9 494 109 
L 494 744 
Q 775 591 1075 516 
Q 1375 441 1709 441 
Q 2250 441 2565 725 
Q 2881 1009 2881 1497 
Q 2881 1984 2565 2268 
Q 2250 2553 1709 2553 
Q 1456 2553 1204 2497 
Q 953 2441 691 2322 
L 691 4666 
z
" transform="scale(0.015625)"/>
       </defs>
       <use xlink:href="#DejaVuSans-2212"/>
       <use xlink:href="#DejaVuSans-35" transform="translate(83.789062 0)"/>
      </g>
     </g>
    </g>
    <g id="ytick_5">
     <g id="line2d_22">
      <g>
       <use xlink:href="#m77c52f8e8c" x="42.620313" y="181.861659" style="stroke: #000000; stroke-width: 0.8"/>
      </g>
     </g>
     <g id="text_13">
      <!-- 0 -->
      <g transform="translate(29.257813 185.660878) scale(0.1 -0.1)">
       <use xlink:href="#DejaVuSans-30"/>
      </g>
     </g>
    </g>
    <g id="text_14">
     <!-- $x1$ -->
     <g transform="translate(14.798438 205.815) rotate(-90) scale(0.1 -0.1)">
      <use xlink:href="#DejaVuSans-Oblique-78" transform="translate(0 0.09375)"/>
      <use xlink:href="#DejaVuSans-31" transform="translate(59.179688 0.09375)"/>
     </g>
    </g>
   </g>
   <g id="line2d_23">
    <path d="M 79.283494 188.755385 
L 85.161359 188.312562 
L 92.50869 188.011223 
L 101.325487 187.894351 
L 111.611751 187.985943 
L 123.36748 188.313744 
L 135.12321 188.851968 
L 146.87894 189.613772 
L 157.165203 190.497861 
L 165.982 191.452071 
L 174.798798 192.620866 
L 183.615595 194.028199 
L 192.432392 195.666971 
L 211.535453 199.397844 
L 215.943851 200.02291 
L 220.35225 200.414573 
L 223.291182 200.505376 
L 226.230115 200.4351 
L 229.169047 200.186295 
L 232.10798 199.747972 
L 235.046912 199.119831 
L 237.985844 198.307438 
L 242.394243 196.787988 
L 246.802642 194.991614 
L 264.436236 187.352138 
L 268.844635 185.7673 
L 273.253033 184.389801 
L 277.661432 183.21575 
L 282.069831 182.228665 
L 287.947695 181.163343 
L 293.82556 180.330741 
L 301.172891 179.535292 
L 309.989689 178.828848 
L 321.745418 178.137343 
L 342.317945 177.208134 
L 368.768337 175.970594 
L 383.462999 175.070367 
L 395.218728 174.152757 
L 405.504992 173.14895 
L 414.321789 172.098039 
L 423.138586 170.838279 
L 431.955384 169.354065 
L 442.241647 167.383423 
L 453.997377 165.117843 
L 459.875241 164.219924 
L 464.28364 163.777471 
L 468.692039 163.617796 
L 471.630971 163.704031 
L 474.569904 163.961935 
L 477.508836 164.40231 
L 480.447768 165.024459 
L 483.386701 165.820781 
L 487.795099 167.3025 
L 492.203498 169.046633 
L 511.306559 176.999794 
L 515.714957 178.482852 
L 520.123356 179.767772 
L 524.531754 180.861687 
L 530.409619 182.05436 
L 536.287484 182.992582 
L 543.634815 183.889841 
L 552.451612 184.681301 
L 562.737876 185.358498 
L 578.902004 186.159211 
L 615.638659 187.893935 
L 630.333321 188.839084 
L 642.089051 189.807252 
L 652.375314 190.868927 
L 661.192112 191.980364 
L 670.008909 193.30802 
L 678.825706 194.857473 
L 703.806632 199.462828 
L 708.21503 199.919048 
L 712.623429 200.09686 
L 715.562361 200.026184 
L 718.501294 199.783624 
L 721.440226 199.361222 
L 724.379158 198.755566 
L 727.318091 197.974802 
L 731.726489 196.513436 
L 736.134888 194.783407 
L 744.951685 190.967655 
L 750.82955 188.500569 
L 756.707415 186.299524 
L 761.115814 184.871242 
L 765.524212 183.64039 
L 769.932611 182.596212 
L 775.810476 181.460426 
L 781.68834 180.567362 
L 789.035671 179.711486 
L 797.852469 178.952133 
L 809.608198 178.21482 
L 812.547131 178.060446 
L 812.547131 178.060446 
" clip-path="url(#p9f400e920f)" style="fill: none; stroke-dasharray: 22.4,5.6,3.5,5.6; stroke-dashoffset: 0; stroke: #0000ff; stroke-opacity: 0.8; stroke-width: 3.5"/>
   </g>
   <g id="patch_8">
    <path d="M 42.620313 248.24 
L 42.620313 151.09 
" style="fill: none; stroke: #000000; stroke-width: 0.8; stroke-linejoin: miter; stroke-linecap: square"/>
   </g>
   <g id="patch_9">
    <path d="M 849.210312 248.24 
L 849.210312 151.09 
" style="fill: none; stroke: #000000; stroke-width: 0.8; stroke-linejoin: miter; stroke-linecap: square"/>
   </g>
   <g id="patch_10">
    <path d="M 42.620313 248.24 
L 849.210313 248.24 
" style="fill: none; stroke: #000000; stroke-width: 0.8; stroke-linejoin: miter; stroke-linecap: square"/>
   </g>
   <g id="patch_11">
    <path d="M 42.620313 151.09 
L 849.210313 151.09 
" style="fill: none; stroke: #000000; stroke-width: 0.8; stroke-linejoin: miter; stroke-linecap: square"/>
   </g>
   <g id="line2d_24">
    <path d="M 79.283494 188.755385 
L 86.630825 187.836316 
L 95.447623 186.774451 
L 102.794954 186.176486 
L 110.142285 185.811173 
L 120.428548 185.55726 
L 132.184278 185.494454 
L 146.87894 185.649826 
L 161.573602 186.040316 
L 174.798798 186.616851 
L 186.554527 187.359232 
L 195.371325 188.120468 
L 202.718656 188.96211 
L 208.59652 189.844314 
L 213.004919 190.687053 
L 217.413318 191.757659 
L 220.35225 192.653324 
L 223.291182 193.762036 
L 226.230115 195.197163 
L 227.699581 196.105756 
L 229.169047 197.21508 
L 230.638513 198.645839 
L 232.10798 200.682366 
L 233.577446 204.311313 
L 235.046912 216.179311 
L 236.516378 219.917902 
L 249.741574 215.498959 
L 252.680507 214.799454 
L 255.619439 214.321182 
L 257.088905 214.199924 
L 258.558371 214.212646 
L 260.027838 214.468654 
L 261.497304 215.19861 
L 262.96677 216.79132 
L 264.436236 219.448728 
L 265.905702 223.206593 
L 267.375169 230.329333 
L 268.844635 242.892164 
L 270.314101 243.820665 
L 318.806486 243.824083 
L 812.547131 243.824083 
L 812.547131 243.824083 
" clip-path="url(#p9f400e920f)" style="fill: none; stroke-dasharray: 3.5,5.775; stroke-dashoffset: 0; stroke: #008000; stroke-opacity: 0.8; stroke-width: 3.5"/>
   </g>
   <g id="line2d_25">
    <path d="M 79.283494 188.755385 
L 82.222427 187.798557 
L 85.161359 187.08705 
L 89.569758 186.336268 
L 93.978156 185.841018 
L 99.856021 185.431452 
L 107.203352 185.163605 
L 117.489616 185.039208 
L 132.184278 185.11864 
L 149.817872 185.434651 
L 167.451467 185.957165 
L 182.146129 186.602943 
L 193.901858 187.33113 
L 204.188122 188.205365 
L 211.535453 189.027342 
L 218.882784 190.080827 
L 224.760649 191.146353 
L 230.638513 192.470542 
L 235.046912 193.674208 
L 239.455311 195.092137 
L 243.863709 196.752047 
L 248.272108 198.665038 
L 252.680507 200.809231 
L 262.96677 206.007389 
L 265.905702 207.173379 
L 268.844635 207.964102 
L 270.314101 208.172981 
L 271.783567 208.234494 
L 273.253033 208.13416 
L 274.7225 207.861952 
L 276.191966 207.4106 
L 277.661432 206.78066 
L 279.130898 205.976756 
L 280.600364 205.010604 
L 283.539297 202.666051 
L 286.478229 199.938077 
L 293.82556 192.877111 
L 296.764493 190.406422 
L 299.703425 188.270998 
L 302.642357 186.484287 
L 305.58129 185.025169 
L 308.520222 183.854668 
L 311.459155 182.92745 
L 314.398087 182.199012 
L 318.806486 181.393478 
L 323.214884 180.837932 
L 329.092749 180.35197 
L 336.44008 179.988138 
L 348.19581 179.67524 
L 371.707269 179.341612 
L 412.852323 178.725804 
L 436.363782 178.157281 
L 453.997377 177.517609 
L 467.222572 176.831382 
L 477.508836 176.10306 
L 486.325633 175.276237 
L 493.672964 174.38417 
L 499.550829 173.49019 
L 505.428694 172.386108 
L 511.306559 171.013108 
L 515.714957 169.765433 
L 520.123356 168.296738 
L 524.531754 166.582875 
L 528.940153 164.616278 
L 534.818018 161.67055 
L 542.165349 157.956648 
L 545.104281 156.741539 
L 548.043214 155.875415 
L 549.51268 155.619887 
L 550.982146 155.505909 
L 552.451612 155.548121 
L 553.921079 155.759502 
L 555.390545 156.148635 
L 556.860011 156.715827 
L 558.329477 157.459026 
L 559.798943 158.370565 
L 562.737876 160.624705 
L 565.676808 163.299719 
L 573.024139 170.387677 
L 575.963072 172.910557 
L 578.902004 175.105537 
L 581.840936 176.951599 
L 584.779869 178.465009 
L 587.718801 179.682469 
L 590.657734 180.648782 
L 593.596666 181.408908 
L 598.005065 182.250141 
L 602.413463 182.830337 
L 608.291328 183.337278 
L 615.638659 183.715655 
L 625.924923 184.008659 
L 646.49745 184.321239 
L 693.520368 185.017582 
L 717.031827 185.596843 
L 734.665422 186.251008 
L 747.890618 186.955187 
L 758.176881 187.70487 
L 766.993678 188.558267 
L 774.341009 189.481274 
L 780.218874 190.408078 
L 786.096739 191.55426 
L 790.505138 192.594036 
L 794.913536 193.820965 
L 799.321935 195.265642 
L 803.730333 196.954144 
L 808.138732 198.89495 
L 812.547131 201.06107 
L 812.547131 201.06107 
" clip-path="url(#p9f400e920f)" style="fill: none; stroke-dasharray: 12.95,5.6; stroke-dashoffset: 0; stroke: #ff0000; stroke-opacity: 0.8; stroke-width: 3.5"/>
   </g>
  </g>
  <g id="text_15">
   <!-- State Variable Simulation Comparison -->
   <g transform="translate(276.302812 20.1175) scale(0.16 -0.16)">
    <defs>
     <path id="DejaVuSans-53" d="M 3425 4513 
L 3425 3897 
Q 3066 4069 2747 4153 
Q 2428 4238 2131 4238 
Q 1616 4238 1336 4038 
Q 1056 3838 1056 3469 
Q 1056 3159 1242 3001 
Q 1428 2844 1947 2747 
L 2328 2669 
Q 3034 2534 3370 2195 
Q 3706 1856 3706 1288 
Q 3706 609 3251 259 
Q 2797 -91 1919 -91 
Q 1588 -91 1214 -16 
Q 841 59 441 206 
L 441 856 
Q 825 641 1194 531 
Q 1563 422 1919 422 
Q 2459 422 2753 634 
Q 3047 847 3047 1241 
Q 3047 1584 2836 1778 
Q 2625 1972 2144 2069 
L 1759 2144 
Q 1053 2284 737 2584 
Q 422 2884 422 3419 
Q 422 4038 858 4394 
Q 1294 4750 2059 4750 
Q 2388 4750 2728 4690 
Q 3069 4631 3425 4513 
z
" transform="scale(0.015625)"/>
     <path id="DejaVuSans-74" d="M 1172 4494 
L 1172 3500 
L 2356 3500 
L 2356 3053 
L 1172 3053 
L 1172 1153 
Q 1172 725 1289 603 
Q 1406 481 1766 481 
L 2356 481 
L 2356 0 
L 1766 0 
Q 1100 0 847 248 
Q 594 497 594 1153 
L 594 3053 
L 172 3053 
L 172 3500 
L 594 3500 
L 594 4494 
L 1172 4494 
z
" transform="scale(0.015625)"/>
     <path id="DejaVuSans-61" d="M 2194 1759 
Q 1497 1759 1228 1600 
Q 959 1441 959 1056 
Q 959 750 1161 570 
Q 1363 391 1709 391 
Q 2188 391 2477 730 
Q 2766 1069 2766 1631 
L 2766 1759 
L 2194 1759 
z
M 3341 1997 
L 3341 0 
L 2766 0 
L 2766 531 
Q 2569 213 2275 61 
Q 1981 -91 1556 -91 
Q 1019 -91 701 211 
Q 384 513 384 1019 
Q 384 1609 779 1909 
Q 1175 2209 1959 2209 
L 2766 2209 
L 2766 2266 
Q 2766 2663 2505 2880 
Q 2244 3097 1772 3097 
Q 1472 3097 1187 3025 
Q 903 2953 641 2809 
L 641 3341 
Q 956 3463 1253 3523 
Q 1550 3584 1831 3584 
Q 2591 3584 2966 3190 
Q 3341 2797 3341 1997 
z
" transform="scale(0.015625)"/>
     <path id="DejaVuSans-20" transform="scale(0.015625)"/>
     <path id="DejaVuSans-56" d="M 1831 0 
L 50 4666 
L 709 4666 
L 2188 738 
L 3669 4666 
L 4325 4666 
L 2547 0 
L 1831 0 
z
" transform="scale(0.015625)"/>
     <path id="DejaVuSans-72" d="M 2631 2963 
Q 2534 3019 2420 3045 
Q 2306 3072 2169 3072 
Q 1681 3072 1420 2755 
Q 1159 2438 1159 1844 
L 1159 0 
L 581 0 
L 581 3500 
L 1159 3500 
L 1159 2956 
Q 1341 3275 1631 3429 
Q 1922 3584 2338 3584 
Q 2397 3584 2469 3576 
Q 2541 3569 2628 3553 
L 2631 2963 
z
" transform="scale(0.015625)"/>
     <path id="DejaVuSans-62" d="M 3116 1747 
Q 3116 2381 2855 2742 
Q 2594 3103 2138 3103 
Q 1681 3103 1420 2742 
Q 1159 2381 1159 1747 
Q 1159 1113 1420 752 
Q 1681 391 2138 391 
Q 2594 391 2855 752 
Q 3116 1113 3116 1747 
z
M 1159 2969 
Q 1341 3281 1617 3432 
Q 1894 3584 2278 3584 
Q 2916 3584 3314 3078 
Q 3713 2572 3713 1747 
Q 3713 922 3314 415 
Q 2916 -91 2278 -91 
Q 1894 -91 1617 61 
Q 1341 213 1159 525 
L 1159 0 
L 581 0 
L 581 4863 
L 1159 4863 
L 1159 2969 
z
" transform="scale(0.015625)"/>
     <path id="DejaVuSans-6c" d="M 603 4863 
L 1178 4863 
L 1178 0 
L 603 0 
L 603 4863 
z
" transform="scale(0.015625)"/>
     <path id="DejaVuSans-75" d="M 544 1381 
L 544 3500 
L 1119 3500 
L 1119 1403 
Q 1119 906 1312 657 
Q 1506 409 1894 409 
Q 2359 409 2629 706 
Q 2900 1003 2900 1516 
L 2900 3500 
L 3475 3500 
L 3475 0 
L 2900 0 
L 2900 538 
Q 2691 219 2414 64 
Q 2138 -91 1772 -91 
Q 1169 -91 856 284 
Q 544 659 544 1381 
z
M 1991 3584 
L 1991 3584 
z
" transform="scale(0.015625)"/>
     <path id="DejaVuSans-6f" d="M 1959 3097 
Q 1497 3097 1228 2736 
Q 959 2375 959 1747 
Q 959 1119 1226 758 
Q 1494 397 1959 397 
Q 2419 397 2687 759 
Q 2956 1122 2956 1747 
Q 2956 2369 2687 2733 
Q 2419 3097 1959 3097 
z
M 1959 3584 
Q 2709 3584 3137 3096 
Q 3566 2609 3566 1747 
Q 3566 888 3137 398 
Q 2709 -91 1959 -91 
Q 1206 -91 779 398 
Q 353 888 353 1747 
Q 353 2609 779 3096 
Q 1206 3584 1959 3584 
z
" transform="scale(0.015625)"/>
     <path id="DejaVuSans-6e" d="M 3513 2113 
L 3513 0 
L 2938 0 
L 2938 2094 
Q 2938 2591 2744 2837 
Q 2550 3084 2163 3084 
Q 1697 3084 1428 2787 
Q 1159 2491 1159 1978 
L 1159 0 
L 581 0 
L 581 3500 
L 1159 3500 
L 1159 2956 
Q 1366 3272 1645 3428 
Q 1925 3584 2291 3584 
Q 2894 3584 3203 3211 
Q 3513 2838 3513 2113 
z
" transform="scale(0.015625)"/>
     <path id="DejaVuSans-43" d="M 4122 4306 
L 4122 3641 
Q 3803 3938 3442 4084 
Q 3081 4231 2675 4231 
Q 1875 4231 1450 3742 
Q 1025 3253 1025 2328 
Q 1025 1406 1450 917 
Q 1875 428 2675 428 
Q 3081 428 3442 575 
Q 3803 722 4122 1019 
L 4122 359 
Q 3791 134 3420 21 
Q 3050 -91 2638 -91 
Q 1578 -91 968 557 
Q 359 1206 359 2328 
Q 359 3453 968 4101 
Q 1578 4750 2638 4750 
Q 3056 4750 3426 4639 
Q 3797 4528 4122 4306 
z
" transform="scale(0.015625)"/>
     <path id="DejaVuSans-70" d="M 1159 525 
L 1159 -1331 
L 581 -1331 
L 581 3500 
L 1159 3500 
L 1159 2969 
Q 1341 3281 1617 3432 
Q 1894 3584 2278 3584 
Q 2916 3584 3314 3078 
Q 3713 2572 3713 1747 
Q 3713 922 3314 415 
Q 2916 -91 2278 -91 
Q 1894 -91 1617 61 
Q 1341 213 1159 525 
z
M 3116 1747 
Q 3116 2381 2855 2742 
Q 2594 3103 2138 3103 
Q 1681 3103 1420 2742 
Q 1159 2381 1159 1747 
Q 1159 1113 1420 752 
Q 1681 391 2138 391 
Q 2594 391 2855 752 
Q 3116 1113 3116 1747 
z
" transform="scale(0.015625)"/>
     <path id="DejaVuSans-73" d="M 2834 3397 
L 2834 2853 
Q 2591 2978 2328 3040 
Q 2066 3103 1784 3103 
Q 1356 3103 1142 2972 
Q 928 2841 928 2578 
Q 928 2378 1081 2264 
Q 1234 2150 1697 2047 
L 1894 2003 
Q 2506 1872 2764 1633 
Q 3022 1394 3022 966 
Q 3022 478 2636 193 
Q 2250 -91 1575 -91 
Q 1294 -91 989 -36 
Q 684 19 347 128 
L 347 722 
Q 666 556 975 473 
Q 1284 391 1588 391 
Q 1994 391 2212 530 
Q 2431 669 2431 922 
Q 2431 1156 2273 1281 
Q 2116 1406 1581 1522 
L 1381 1569 
Q 847 1681 609 1914 
Q 372 2147 372 2553 
Q 372 3047 722 3315 
Q 1072 3584 1716 3584 
Q 2034 3584 2315 3537 
Q 2597 3491 2834 3397 
z
" transform="scale(0.015625)"/>
    </defs>
    <use xlink:href="#DejaVuSans-53"/>
    <use xlink:href="#DejaVuSans-74" transform="translate(63.476562 0)"/>
    <use xlink:href="#DejaVuSans-61" transform="translate(102.685547 0)"/>
    <use xlink:href="#DejaVuSans-74" transform="translate(163.964844 0)"/>
    <use xlink:href="#DejaVuSans-65" transform="translate(203.173828 0)"/>
    <use xlink:href="#DejaVuSans-20" transform="translate(264.697266 0)"/>
    <use xlink:href="#DejaVuSans-56" transform="translate(296.484375 0)"/>
    <use xlink:href="#DejaVuSans-61" transform="translate(357.142578 0)"/>
    <use xlink:href="#DejaVuSans-72" transform="translate(418.421875 0)"/>
    <use xlink:href="#DejaVuSans-69" transform="translate(459.535156 0)"/>
    <use xlink:href="#DejaVuSans-61" transform="translate(487.318359 0)"/>
    <use xlink:href="#DejaVuSans-62" transform="translate(548.597656 0)"/>
    <use xlink:href="#DejaVuSans-6c" transform="translate(612.074219 0)"/>
    <use xlink:href="#DejaVuSans-65" transform="translate(639.857422 0)"/>
    <use xlink:href="#DejaVuSans-20" transform="translate(701.380859 0)"/>
    <use xlink:href="#DejaVuSans-53" transform="translate(733.167969 0)"/>
    <use xlink:href="#DejaVuSans-69" transform="translate(796.644531 0)"/>
    <use xlink:href="#DejaVuSans-6d" transform="translate(824.427734 0)"/>
    <use xlink:href="#DejaVuSans-75" transform="translate(921.839844 0)"/>
    <use xlink:href="#DejaVuSans-6c" transform="translate(985.21875 0)"/>
    <use xlink:href="#DejaVuSans-61" transform="translate(1013.001953 0)"/>
    <use xlink:href="#DejaVuSans-74" transform="translate(1074.28125 0)"/>
    <use xlink:href="#DejaVuSans-69" transform="translate(1113.490234 0)"/>
    <use xlink:href="#DejaVuSans-6f" transform="translate(1141.273438 0)"/>
    <use xlink:href="#DejaVuSans-6e" transform="translate(1202.455078 0)"/>
    <use xlink:href="#DejaVuSans-20" transform="translate(1265.833984 0)"/>
    <use xlink:href="#DejaVuSans-43" transform="translate(1297.621094 0)"/>
    <use xlink:href="#DejaVuSans-6f" transform="translate(1367.445312 0)"/>
    <use xlink:href="#DejaVuSans-6d" transform="translate(1428.626953 0)"/>
    <use xlink:href="#DejaVuSans-70" transform="translate(1526.039062 0)"/>
    <use xlink:href="#DejaVuSans-61" transform="translate(1589.515625 0)"/>
    <use xlink:href="#DejaVuSans-72" transform="translate(1650.794922 0)"/>
    <use xlink:href="#DejaVuSans-69" transform="translate(1691.908203 0)"/>
    <use xlink:href="#DejaVuSans-73" transform="translate(1719.691406 0)"/>
    <use xlink:href="#DejaVuSans-6f" transform="translate(1771.791016 0)"/>
    <use xlink:href="#DejaVuSans-6e" transform="translate(1832.972656 0)"/>
   </g>
  </g>
  <g id="legend_1">
   <g id="patch_12">
    <path d="M 744.138437 66.7125 
L 855.210312 66.7125 
Q 857.210312 66.7125 857.210312 64.7125 
L 857.210312 7 
Q 857.210312 5 855.210312 5 
L 744.138437 5 
Q 742.138437 5 742.138437 7 
L 742.138437 64.7125 
Q 742.138437 66.7125 744.138437 66.7125 
z
" style="fill: #ffffff; opacity: 0.5; stroke: #cccccc; stroke-linejoin: miter"/>
   </g>
   <g id="line2d_26">
    <path d="M 746.138437 13.098437 
L 756.138437 13.098437 
L 766.138437 13.098437 
" style="fill: none; stroke: #000000; stroke-opacity: 0.4; stroke-width: 6; stroke-linecap: square"/>
   </g>
   <g id="text_16">
    <!-- True Trajectory -->
    <g transform="translate(774.138437 16.598437) scale(0.1 -0.1)">
     <defs>
      <path id="DejaVuSans-6a" d="M 603 3500 
L 1178 3500 
L 1178 -63 
Q 1178 -731 923 -1031 
Q 669 -1331 103 -1331 
L -116 -1331 
L -116 -844 
L 38 -844 
Q 366 -844 484 -692 
Q 603 -541 603 -63 
L 603 3500 
z
M 603 4863 
L 1178 4863 
L 1178 4134 
L 603 4134 
L 603 4863 
z
" transform="scale(0.015625)"/>
      <path id="DejaVuSans-63" d="M 3122 3366 
L 3122 2828 
Q 2878 2963 2633 3030 
Q 2388 3097 2138 3097 
Q 1578 3097 1268 2742 
Q 959 2388 959 1747 
Q 959 1106 1268 751 
Q 1578 397 2138 397 
Q 2388 397 2633 464 
Q 2878 531 3122 666 
L 3122 134 
Q 2881 22 2623 -34 
Q 2366 -91 2075 -91 
Q 1284 -91 818 406 
Q 353 903 353 1747 
Q 353 2603 823 3093 
Q 1294 3584 2113 3584 
Q 2378 3584 2631 3529 
Q 2884 3475 3122 3366 
z
" transform="scale(0.015625)"/>
      <path id="DejaVuSans-79" d="M 2059 -325 
Q 1816 -950 1584 -1140 
Q 1353 -1331 966 -1331 
L 506 -1331 
L 506 -850 
L 844 -850 
Q 1081 -850 1212 -737 
Q 1344 -625 1503 -206 
L 1606 56 
L 191 3500 
L 800 3500 
L 1894 763 
L 2988 3500 
L 3597 3500 
L 2059 -325 
z
" transform="scale(0.015625)"/>
     </defs>
     <use xlink:href="#DejaVuSans-54"/>
     <use xlink:href="#DejaVuSans-72" transform="translate(46.333984 0)"/>
     <use xlink:href="#DejaVuSans-75" transform="translate(87.447266 0)"/>
     <use xlink:href="#DejaVuSans-65" transform="translate(150.826172 0)"/>
     <use xlink:href="#DejaVuSans-20" transform="translate(212.349609 0)"/>
     <use xlink:href="#DejaVuSans-54" transform="translate(244.136719 0)"/>
     <use xlink:href="#DejaVuSans-72" transform="translate(290.470703 0)"/>
     <use xlink:href="#DejaVuSans-61" transform="translate(331.583984 0)"/>
     <use xlink:href="#DejaVuSans-6a" transform="translate(392.863281 0)"/>
     <use xlink:href="#DejaVuSans-65" transform="translate(420.646484 0)"/>
     <use xlink:href="#DejaVuSans-63" transform="translate(482.169922 0)"/>
     <use xlink:href="#DejaVuSans-74" transform="translate(537.150391 0)"/>
     <use xlink:href="#DejaVuSans-6f" transform="translate(576.359375 0)"/>
     <use xlink:href="#DejaVuSans-72" transform="translate(637.541016 0)"/>
     <use xlink:href="#DejaVuSans-79" transform="translate(678.654297 0)"/>
    </g>
   </g>
   <g id="line2d_27">
    <path d="M 746.138437 27.776562 
L 756.138437 27.776562 
L 766.138437 27.776562 
" style="fill: none; stroke-dasharray: 12.95,5.6; stroke-dashoffset: 0; stroke: #ff0000; stroke-opacity: 0.8; stroke-width: 3.5"/>
   </g>
   <g id="text_17">
    <!-- AutoSINDy -->
    <g transform="translate(774.138437 31.276562) scale(0.1 -0.1)">
     <defs>
      <path id="DejaVuSans-41" d="M 2188 4044 
L 1331 1722 
L 3047 1722 
L 2188 4044 
z
M 1831 4666 
L 2547 4666 
L 4325 0 
L 3669 0 
L 3244 1197 
L 1141 1197 
L 716 0 
L 50 0 
L 1831 4666 
z
" transform="scale(0.015625)"/>
      <path id="DejaVuSans-49" d="M 628 4666 
L 1259 4666 
L 1259 0 
L 628 0 
L 628 4666 
z
" transform="scale(0.015625)"/>
      <path id="DejaVuSans-4e" d="M 628 4666 
L 1478 4666 
L 3547 763 
L 3547 4666 
L 4159 4666 
L 4159 0 
L 3309 0 
L 1241 3903 
L 1241 0 
L 628 0 
L 628 4666 
z
" transform="scale(0.015625)"/>
      <path id="DejaVuSans-44" d="M 1259 4147 
L 1259 519 
L 2022 519 
Q 2988 519 3436 956 
Q 3884 1394 3884 2338 
Q 3884 3275 3436 3711 
Q 2988 4147 2022 4147 
L 1259 4147 
z
M 628 4666 
L 1925 4666 
Q 3281 4666 3915 4102 
Q 4550 3538 4550 2338 
Q 4550 1131 3912 565 
Q 3275 0 1925 0 
L 628 0 
L 628 4666 
z
" transform="scale(0.015625)"/>
     </defs>
     <use xlink:href="#DejaVuSans-41"/>
     <use xlink:href="#DejaVuSans-75" transform="translate(68.408203 0)"/>
     <use xlink:href="#DejaVuSans-74" transform="translate(131.787109 0)"/>
     <use xlink:href="#DejaVuSans-6f" transform="translate(170.996094 0)"/>
     <use xlink:href="#DejaVuSans-53" transform="translate(232.177734 0)"/>
     <use xlink:href="#DejaVuSans-49" transform="translate(295.654297 0)"/>
     <use xlink:href="#DejaVuSans-4e" transform="translate(325.146484 0)"/>
     <use xlink:href="#DejaVuSans-44" transform="translate(399.951172 0)"/>
     <use xlink:href="#DejaVuSans-79" transform="translate(476.953125 0)"/>
    </g>
   </g>
   <g id="line2d_28">
    <path d="M 746.138437 42.454687 
L 756.138437 42.454687 
L 766.138437 42.454687 
" style="fill: none; stroke-dasharray: 3.5,5.775; stroke-dashoffset: 0; stroke: #008000; stroke-opacity: 0.8; stroke-width: 3.5"/>
   </g>
   <g id="text_18">
    <!-- Standard SINDy -->
    <g transform="translate(774.138437 45.954687) scale(0.1 -0.1)">
     <defs>
      <path id="DejaVuSans-64" d="M 2906 2969 
L 2906 4863 
L 3481 4863 
L 3481 0 
L 2906 0 
L 2906 525 
Q 2725 213 2448 61 
Q 2172 -91 1784 -91 
Q 1150 -91 751 415 
Q 353 922 353 1747 
Q 353 2572 751 3078 
Q 1150 3584 1784 3584 
Q 2172 3584 2448 3432 
Q 2725 3281 2906 2969 
z
M 947 1747 
Q 947 1113 1208 752 
Q 1469 391 1925 391 
Q 2381 391 2643 752 
Q 2906 1113 2906 1747 
Q 2906 2381 2643 2742 
Q 2381 3103 1925 3103 
Q 1469 3103 1208 2742 
Q 947 2381 947 1747 
z
" transform="scale(0.015625)"/>
     </defs>
     <use xlink:href="#DejaVuSans-53"/>
     <use xlink:href="#DejaVuSans-74" transform="translate(63.476562 0)"/>
     <use xlink:href="#DejaVuSans-61" transform="translate(102.685547 0)"/>
     <use xlink:href="#DejaVuSans-6e" transform="translate(163.964844 0)"/>
     <use xlink:href="#DejaVuSans-64" transform="translate(227.34375 0)"/>
     <use xlink:href="#DejaVuSans-61" transform="translate(290.820312 0)"/>
     <use xlink:href="#DejaVuSans-72" transform="translate(352.099609 0)"/>
     <use xlink:href="#DejaVuSans-64" transform="translate(391.462891 0)"/>
     <use xlink:href="#DejaVuSans-20" transform="translate(454.939453 0)"/>
     <use xlink:href="#DejaVuSans-53" transform="translate(486.726562 0)"/>
     <use xlink:href="#DejaVuSans-49" transform="translate(550.203125 0)"/>
     <use xlink:href="#DejaVuSans-4e" transform="translate(579.695312 0)"/>
     <use xlink:href="#DejaVuSans-44" transform="translate(654.5 0)"/>
     <use xlink:href="#DejaVuSans-79" transform="translate(731.501953 0)"/>
    </g>
   </g>
   <g id="line2d_29">
    <path d="M 746.138437 57.132812 
L 756.138437 57.132812 
L 766.138437 57.132812 
" style="fill: none; stroke-dasharray: 22.4,5.6,3.5,5.6; stroke-dashoffset: 0; stroke: #0000ff; stroke-opacity: 0.8; stroke-width: 3.5"/>
   </g>
   <g id="text_19">
    <!-- Standard PySR -->
    <g transform="translate(774.138437 60.632812) scale(0.1 -0.1)">
     <defs>
      <path id="DejaVuSans-50" d="M 1259 4147 
L 1259 2394 
L 2053 2394 
Q 2494 2394 2734 2622 
Q 2975 2850 2975 3272 
Q 2975 3691 2734 3919 
Q 2494 4147 2053 4147 
L 1259 4147 
z
M 628 4666 
L 2053 4666 
Q 2838 4666 3239 4311 
Q 3641 3956 3641 3272 
Q 3641 2581 3239 2228 
Q 2838 1875 2053 1875 
L 1259 1875 
L 1259 0 
L 628 0 
L 628 4666 
z
" transform="scale(0.015625)"/>
      <path id="DejaVuSans-52" d="M 2841 2188 
Q 3044 2119 3236 1894 
Q 3428 1669 3622 1275 
L 4263 0 
L 3584 0 
L 2988 1197 
Q 2756 1666 2539 1819 
Q 2322 1972 1947 1972 
L 1259 1972 
L 1259 0 
L 628 0 
L 628 4666 
L 2053 4666 
Q 2853 4666 3247 4331 
Q 3641 3997 3641 3322 
Q 3641 2881 3436 2590 
Q 3231 2300 2841 2188 
z
M 1259 4147 
L 1259 2491 
L 2053 2491 
Q 2509 2491 2742 2702 
Q 2975 2913 2975 3322 
Q 2975 3731 2742 3939 
Q 2509 4147 2053 4147 
L 1259 4147 
z
" transform="scale(0.015625)"/>
     </defs>
     <use xlink:href="#DejaVuSans-53"/>
     <use xlink:href="#DejaVuSans-74" transform="translate(63.476562 0)"/>
     <use xlink:href="#DejaVuSans-61" transform="translate(102.685547 0)"/>
     <use xlink:href="#DejaVuSans-6e" transform="translate(163.964844 0)"/>
     <use xlink:href="#DejaVuSans-64" transform="translate(227.34375 0)"/>
     <use xlink:href="#DejaVuSans-61" transform="translate(290.820312 0)"/>
     <use xlink:href="#DejaVuSans-72" transform="translate(352.099609 0)"/>
     <use xlink:href="#DejaVuSans-64" transform="translate(391.462891 0)"/>
     <use xlink:href="#DejaVuSans-20" transform="translate(454.939453 0)"/>
     <use xlink:href="#DejaVuSans-50" transform="translate(486.726562 0)"/>
     <use xlink:href="#DejaVuSans-79" transform="translate(547.029297 0)"/>
     <use xlink:href="#DejaVuSans-53" transform="translate(606.208984 0)"/>
     <use xlink:href="#DejaVuSans-52" transform="translate(669.685547 0)"/>
    </g>
   </g>
  </g>
 </g>
 <defs>
  <clipPath id="p80a87adcde">
   <rect x="42.620313" y="39.64" width="806.59" height="97.15"/>
  </clipPath>
  <clipPath id="p9f400e920f">
   <rect x="42.620313" y="151.09" width="806.59" height="97.15"/>
  </clipPath>
 </defs>
</svg>
