<?xml version="1.0" encoding="utf-8" standalone="no"?>
<!DOCTYPE svg PUBLIC "-//W3C//DTD SVG 1.1//EN"
  "http://www.w3.org/Graphics/SVG/1.1/DTD/svg11.dtd">
<svg xmlns:xlink="http://www.w3.org/1999/xlink" width="568.837812pt" height="568.578281pt" viewBox="0 0 568.837812 568.578281" xmlns="http://www.w3.org/2000/svg" version="1.1">
 <metadata>
  <rdf:RDF xmlns:dc="http://purl.org/dc/elements/1.1/" xmlns:cc="http://creativecommons.org/ns#" xmlns:rdf="http://www.w3.org/1999/02/22-rdf-syntax-ns#">
   <cc:Work>
    <dc:type rdf:resource="http://purl.org/dc/dcmitype/StillImage"/>
    <dc:date>2026-04-06T19:18:35.129676</dc:date>
    <dc:format>image/svg+xml</dc:format>
    <dc:creator>
     <cc:Agent>
      <dc:title>Matplotlib v3.10.7, https://matplotlib.org/</dc:title>
     </cc:Agent>
    </dc:creator>
   </cc:Work>
  </rdf:RDF>
 </metadata>
 <defs>
  <style type="text/css">*{stroke-linejoin: round; stroke-linecap: butt}</style>
 </defs>
 <g id="figure_1">
  <g id="patch_1">
   <path d="M 0 568.578281 
L 568.837812 568.578281 
L 568.837812 0 
L 0 0 
z
" style="fill: #ffffff"/>
  </g>
  <g id="axes_1">
   <g id="patch_2">
    <path d="M 40.807813 535.587656 
L 561.637812 535.587656 
L 561.637812 21.207656 
L 40.807813 21.207656 
z
" style="fill: #ffffff"/>
   </g>
   <g id="matplotlib.axis_1">
    <g id="xtick_1">
     <g id="line2d_1">
      <path d="M 89.911441 535.587656 
L 89.911441 21.207656 
" clip-path="url(#p89a8b4ba71)" style="fill: none; stroke: #cccccc; stroke-width: 0.8; stroke-linecap: round"/>
     </g>
     <g id="line2d_2"/>
     <g id="text_1">
      <!-- −15 -->
      <g style="fill: #262626" transform="translate(81.430191 546.245469) scale(0.1 -0.1)">
       <defs>
        <path id="ArialMT-2212" d="M 3381 1997 
L 356 1997 
L 356 2522 
L 3381 2522 
L 3381 1997 
z
" transform="scale(0.015625)"/>
        <path id="ArialMT-31" d="M 2384 0 
L 1822 0 
L 1822 3584 
Q 1619 3391 1289 3197 
Q 959 3003 697 2906 
L 697 3450 
Q 1169 3672 1522 3987 
Q 1875 4303 2022 4600 
L 2384 4600 
L 2384 0 
z
" transform="scale(0.015625)"/>
        <path id="ArialMT-35" d="M 266 1200 
L 856 1250 
Q 922 819 1161 601 
Q 1400 384 1738 384 
Q 2144 384 2425 690 
Q 2706 997 2706 1503 
Q 2706 1984 2436 2262 
Q 2166 2541 1728 2541 
Q 1456 2541 1237 2417 
Q 1019 2294 894 2097 
L 366 2166 
L 809 4519 
L 3088 4519 
L 3088 3981 
L 1259 3981 
L 1013 2750 
Q 1425 3038 1878 3038 
Q 2478 3038 2890 2622 
Q 3303 2206 3303 1553 
Q 3303 931 2941 478 
Q 2500 -78 1738 -78 
Q 1113 -78 717 272 
Q 322 622 266 1200 
z
" transform="scale(0.015625)"/>
       </defs>
       <use xlink:href="#ArialMT-2212"/>
       <use xlink:href="#ArialMT-31" transform="translate(58.398438 0)"/>
       <use xlink:href="#ArialMT-35" transform="translate(114.013672 0)"/>
      </g>
     </g>
    </g>
    <g id="xtick_2">
     <g id="line2d_3">
      <path d="M 158.82519 535.587656 
L 158.82519 21.207656 
" clip-path="url(#p89a8b4ba71)" style="fill: none; stroke: #cccccc; stroke-width: 0.8; stroke-linecap: round"/>
     </g>
     <g id="line2d_4"/>
     <g id="text_2">
      <!-- −10 -->
      <g style="fill: #262626" transform="translate(150.34394 546.245469) scale(0.1 -0.1)">
       <defs>
        <path id="ArialMT-30" d="M 266 2259 
Q 266 3072 433 3567 
Q 600 4063 929 4331 
Q 1259 4600 1759 4600 
Q 2128 4600 2406 4451 
Q 2684 4303 2865 4023 
Q 3047 3744 3150 3342 
Q 3253 2941 3253 2259 
Q 3253 1453 3087 958 
Q 2922 463 2592 192 
Q 2263 -78 1759 -78 
Q 1097 -78 719 397 
Q 266 969 266 2259 
z
M 844 2259 
Q 844 1131 1108 757 
Q 1372 384 1759 384 
Q 2147 384 2411 759 
Q 2675 1134 2675 2259 
Q 2675 3391 2411 3762 
Q 2147 4134 1753 4134 
Q 1366 4134 1134 3806 
Q 844 3388 844 2259 
z
" transform="scale(0.015625)"/>
       </defs>
       <use xlink:href="#ArialMT-2212"/>
       <use xlink:href="#ArialMT-31" transform="translate(58.398438 0)"/>
       <use xlink:href="#ArialMT-30" transform="translate(114.013672 0)"/>
      </g>
     </g>
    </g>
    <g id="xtick_3">
     <g id="line2d_5">
      <path d="M 227.73894 535.587656 
L 227.73894 21.207656 
" clip-path="url(#p89a8b4ba71)" style="fill: none; stroke: #cccccc; stroke-width: 0.8; stroke-linecap: round"/>
     </g>
     <g id="line2d_6"/>
     <g id="text_3">
      <!-- −5 -->
      <g style="fill: #262626" transform="translate(222.038159 546.245469) scale(0.1 -0.1)">
       <use xlink:href="#ArialMT-2212"/>
       <use xlink:href="#ArialMT-35" transform="translate(58.398438 0)"/>
      </g>
     </g>
    </g>
    <g id="xtick_4">
     <g id="line2d_7">
      <path d="M 296.65269 535.587656 
L 296.65269 21.207656 
" clip-path="url(#p89a8b4ba71)" style="fill: none; stroke: #cccccc; stroke-width: 0.8; stroke-linecap: round"/>
     </g>
     <g id="line2d_8"/>
     <g id="text_4">
      <!-- 0 -->
      <g style="fill: #262626" transform="translate(293.872221 546.245469) scale(0.1 -0.1)">
       <use xlink:href="#ArialMT-30"/>
      </g>
     </g>
    </g>
    <g id="xtick_5">
     <g id="line2d_9">
      <path d="M 365.566439 535.587656 
L 365.566439 21.207656 
" clip-path="url(#p89a8b4ba71)" style="fill: none; stroke: #cccccc; stroke-width: 0.8; stroke-linecap: round"/>
     </g>
     <g id="line2d_10"/>
     <g id="text_5">
      <!-- 5 -->
      <g style="fill: #262626" transform="translate(362.78597 546.245469) scale(0.1 -0.1)">
       <use xlink:href="#ArialMT-35"/>
      </g>
     </g>
    </g>
    <g id="xtick_6">
     <g id="line2d_11">
      <path d="M 434.480189 535.587656 
L 434.480189 21.207656 
" clip-path="url(#p89a8b4ba71)" style="fill: none; stroke: #cccccc; stroke-width: 0.8; stroke-linecap: round"/>
     </g>
     <g id="line2d_12"/>
     <g id="text_6">
      <!-- 10 -->
      <g style="fill: #262626" transform="translate(428.919251 546.245469) scale(0.1 -0.1)">
       <use xlink:href="#ArialMT-31"/>
       <use xlink:href="#ArialMT-30" transform="translate(55.615234 0)"/>
      </g>
     </g>
    </g>
    <g id="xtick_7">
     <g id="line2d_13">
      <path d="M 503.393938 535.587656 
L 503.393938 21.207656 
" clip-path="url(#p89a8b4ba71)" style="fill: none; stroke: #cccccc; stroke-width: 0.8; stroke-linecap: round"/>
     </g>
     <g id="line2d_14"/>
     <g id="text_7">
      <!-- 15 -->
      <g style="fill: #262626" transform="translate(497.833001 546.245469) scale(0.1 -0.1)">
       <use xlink:href="#ArialMT-31"/>
       <use xlink:href="#ArialMT-35" transform="translate(55.615234 0)"/>
      </g>
     </g>
    </g>
    <g id="text_8">
     <!-- x0 -->
     <g style="fill: #262626" transform="translate(295.942344 559.390781) scale(0.1 -0.1)">
      <defs>
       <path id="ArialMT-78" d="M 47 0 
L 1259 1725 
L 138 3319 
L 841 3319 
L 1350 2541 
Q 1494 2319 1581 2169 
Q 1719 2375 1834 2534 
L 2394 3319 
L 3066 3319 
L 1919 1756 
L 3153 0 
L 2463 0 
L 1781 1031 
L 1600 1309 
L 728 0 
L 47 0 
z
" transform="scale(0.015625)"/>
      </defs>
      <use xlink:href="#ArialMT-78"/>
      <use xlink:href="#ArialMT-30" transform="translate(50 0)"/>
     </g>
    </g>
   </g>
   <g id="matplotlib.axis_2">
    <g id="ytick_1">
     <g id="line2d_15">
      <path d="M 40.807813 491.264914 
L 561.637812 491.264914 
" clip-path="url(#p89a8b4ba71)" style="fill: none; stroke: #cccccc; stroke-width: 0.8; stroke-linecap: round"/>
     </g>
     <g id="line2d_16"/>
     <g id="text_9">
      <!-- −20 -->
      <g style="fill: #262626" transform="translate(20.345313 494.843821) scale(0.1 -0.1)">
       <defs>
        <path id="ArialMT-32" d="M 3222 541 
L 3222 0 
L 194 0 
Q 188 203 259 391 
Q 375 700 629 1000 
Q 884 1300 1366 1694 
Q 2113 2306 2375 2664 
Q 2638 3022 2638 3341 
Q 2638 3675 2398 3904 
Q 2159 4134 1775 4134 
Q 1369 4134 1125 3890 
Q 881 3647 878 3216 
L 300 3275 
Q 359 3922 746 4261 
Q 1134 4600 1788 4600 
Q 2447 4600 2831 4234 
Q 3216 3869 3216 3328 
Q 3216 3053 3103 2787 
Q 2991 2522 2730 2228 
Q 2469 1934 1863 1422 
Q 1356 997 1212 845 
Q 1069 694 975 541 
L 3222 541 
z
" transform="scale(0.015625)"/>
       </defs>
       <use xlink:href="#ArialMT-2212"/>
       <use xlink:href="#ArialMT-32" transform="translate(58.398438 0)"/>
       <use xlink:href="#ArialMT-30" transform="translate(114.013672 0)"/>
      </g>
     </g>
    </g>
    <g id="ytick_2">
     <g id="line2d_17">
      <path d="M 40.807813 387.828933 
L 561.637812 387.828933 
" clip-path="url(#p89a8b4ba71)" style="fill: none; stroke: #cccccc; stroke-width: 0.8; stroke-linecap: round"/>
     </g>
     <g id="line2d_18"/>
     <g id="text_10">
      <!-- −10 -->
      <g style="fill: #262626" transform="translate(20.345313 391.40784) scale(0.1 -0.1)">
       <use xlink:href="#ArialMT-2212"/>
       <use xlink:href="#ArialMT-31" transform="translate(58.398438 0)"/>
       <use xlink:href="#ArialMT-30" transform="translate(114.013672 0)"/>
      </g>
     </g>
    </g>
    <g id="ytick_3">
     <g id="line2d_19">
      <path d="M 40.807813 284.392952 
L 561.637812 284.392952 
" clip-path="url(#p89a8b4ba71)" style="fill: none; stroke: #cccccc; stroke-width: 0.8; stroke-linecap: round"/>
     </g>
     <g id="line2d_20"/>
     <g id="text_11">
      <!-- 0 -->
      <g style="fill: #262626" transform="translate(31.746875 287.971859) scale(0.1 -0.1)">
       <use xlink:href="#ArialMT-30"/>
      </g>
     </g>
    </g>
    <g id="ytick_4">
     <g id="line2d_21">
      <path d="M 40.807813 180.956971 
L 561.637812 180.956971 
" clip-path="url(#p89a8b4ba71)" style="fill: none; stroke: #cccccc; stroke-width: 0.8; stroke-linecap: round"/>
     </g>
     <g id="line2d_22"/>
     <g id="text_12">
      <!-- 10 -->
      <g style="fill: #262626" transform="translate(26.185938 184.535878) scale(0.1 -0.1)">
       <use xlink:href="#ArialMT-31"/>
       <use xlink:href="#ArialMT-30" transform="translate(55.615234 0)"/>
      </g>
     </g>
    </g>
    <g id="ytick_5">
     <g id="line2d_23">
      <path d="M 40.807813 77.52099 
L 561.637812 77.52099 
" clip-path="url(#p89a8b4ba71)" style="fill: none; stroke: #cccccc; stroke-width: 0.8; stroke-linecap: round"/>
     </g>
     <g id="line2d_24"/>
     <g id="text_13">
      <!-- 20 -->
      <g style="fill: #262626" transform="translate(26.185938 81.099896) scale(0.1 -0.1)">
       <use xlink:href="#ArialMT-32"/>
       <use xlink:href="#ArialMT-30" transform="translate(55.615234 0)"/>
      </g>
     </g>
    </g>
    <g id="text_14">
     <!-- x1 -->
     <g style="fill: #262626" transform="translate(14.357813 283.678125) rotate(-90) scale(0.1 -0.1)">
      <use xlink:href="#ArialMT-78"/>
      <use xlink:href="#ArialMT-31" transform="translate(50 0)"/>
     </g>
    </g>
   </g>
   <g id="line2d_25">
    <path d="M 434.480189 180.956971 
L 434.935954 173.890562 
L 436.219466 167.261088 
L 438.195588 161.180468 
L 440.716579 155.790458 
L 443.622498 151.253214 
L 446.766078 147.575835 
L 450.032585 144.667836 
L 453.313041 142.508645 
L 456.501793 141.150504 
L 459.496508 140.718476 
L 462.204987 141.468899 
L 464.494122 143.466374 
L 466.222193 146.472222 
L 467.311931 150.296382 
L 467.751501 154.803202 
L 467.572225 159.938556 
L 466.719957 165.782189 
L 465.1593 172.299216 
L 462.879099 179.392846 
L 459.886598 186.916024 
L 456.205588 194.667489 
L 451.872278 202.383886 
L 446.980762 209.893468 
L 441.632599 217.069822 
L 435.92488 223.810784 
L 429.950226 230.038429 
L 423.796788 235.699078 
L 417.548247 240.763297 
L 411.283817 245.225894 
L 405.078238 249.105923 
L 399.013196 252.367816 
L 393.16323 254.969624 
L 387.575522 256.98508 
L 382.290039 258.481537 
L 377.339674 259.519083 
L 372.750248 260.150542 
L 368.540506 260.421474 
L 364.722122 260.370173 
L 361.299695 260.02767 
L 358.262609 259.419894 
L 355.599995 258.578684 
L 353.309652 257.534915 
L 351.38572 256.314512 
L 349.818674 254.938452 
L 348.595318 253.422761 
L 347.698794 251.778517 
L 347.108575 250.011847 
L 346.800468 248.123932 
L 346.752761 246.105044 
L 346.967208 243.931924 
L 347.446858 241.592499 
L 348.193623 239.074858 
L 349.208574 236.366678 
L 350.491932 233.455218 
L 352.043076 230.32732 
L 353.860539 226.969412 
L 358.295269 219.51491 
L 363.889278 211.045777 
L 370.641776 201.425067 
L 378.586719 190.547516 
L 387.840075 178.376803 
L 393.016075 171.814009 
L 398.549815 165.011089 
L 404.412528 158.126094 
L 410.60536 151.274868 
L 417.100039 144.562233 
L 423.838826 138.082024 
L 430.734519 131.917094 
L 437.693513 126.169053 
L 444.657042 121.248249 
L 451.511306 117.632543 
L 458.096551 115.626899 
L 464.208179 115.360869 
L 469.616622 116.749668 
L 474.213008 119.678398 
L 477.927305 124.212051 
L 480.647744 130.402412 
L 482.22024 138.282445 
L 482.48955 147.722239 
L 481.456457 158.165558 
L 479.164299 169.191264 
L 475.683502 180.420603 
L 471.113186 191.50796 
L 465.581857 202.197884 
L 459.24669 212.388894 
L 452.267848 221.924026 
L 444.797602 230.688478 
L 436.980242 238.615323 
L 428.951636 245.678003 
L 420.843779 251.777099 
L 412.799453 256.883385 
L 404.942258 261.033268 
L 397.371192 264.298546 
L 390.160658 266.786406 
L 383.360454 268.639429 
L 377.007259 269.953568 
L 371.1275 270.76082 
L 365.731243 271.136679 
L 360.822426 271.148231 
L 356.398867 270.854119 
L 352.452267 270.304545 
L 348.968205 269.541268 
L 345.925468 268.599368 
L 343.300815 267.509839 
L 341.072472 266.296622 
L 339.218781 264.976675 
L 337.718202 263.559978 
L 336.549312 262.049528 
L 335.690804 260.441344 
L 335.121009 258.724533 
L 334.821371 256.889516 
L 334.787489 254.935397 
L 335.015725 252.859688 
L 335.501238 250.657285 
L 336.237977 248.320471 
L 337.218688 245.838911 
L 338.434906 243.19966 
L 341.538604 237.385498 
L 345.56486 230.777352 
L 350.572402 223.28517 
L 356.611383 214.81959 
L 363.732502 205.297357 
L 372.006517 194.657521 
L 381.50285 182.775257 
L 392.292115 169.589004 
L 398.204383 162.534445 
L 404.453024 155.260334 
L 411.016166 147.99296 
L 417.88377 140.958447 
L 424.997692 134.378707 
L 432.251315 128.471704 
L 439.490219 123.451641 
L 446.596258 119.503629 
L 453.443626 116.628686 
L 459.927566 114.731023 
L 465.981237 114.039775 
L 471.425856 115.139576 
L 476.097125 117.925936 
L 479.879956 122.235943 
L 482.635145 128.310101 
L 484.244577 135.999815 
L 484.647612 144.87033 
L 483.838851 154.419978 
L 481.841093 164.733129 
L 478.697815 175.476185 
L 474.481171 186.318718 
L 469.287799 197.00087 
L 463.246724 207.315893 
L 456.514093 217.065943 
L 449.239634 226.106282 
L 441.565596 234.347194 
L 433.626755 241.753982 
L 425.549759 248.323077 
L 417.461977 253.935161 
L 409.497353 258.578905 
L 401.768539 262.300624 
L 394.364307 265.180682 
L 387.349559 267.333489 
L 380.765388 268.906975 
L 374.642122 269.975744 
L 368.998197 270.575219 
L 363.839282 270.778012 
L 359.165579 270.647081 
L 354.971818 270.235729 
L 351.247262 269.587608 
L 347.975452 268.737561 
L 345.133713 267.720847 
L 342.700014 266.566395 
L 340.652859 265.295192 
L 338.970847 263.921161 
L 337.632669 262.451162 
L 336.617109 260.884992 
L 335.903045 259.215384 
L 335.468479 257.429444 
L 335.302161 255.522238 
L 335.401397 253.492567 
L 335.762296 251.336695 
L 336.379689 249.048327 
L 337.247138 246.618602 
L 338.356929 244.036096 
L 339.700075 241.286822 
L 343.059708 235.226814 
L 347.366471 228.347826 
L 352.673179 220.560271 
L 359.029451 211.776544 
L 366.487903 201.915233 
L 375.127622 190.906947 
L 385.013609 178.608553 
L 396.220236 165.033922 
L 402.350583 157.833659 
L 408.848697 150.498188 
L 415.653099 143.313084 
L 422.679518 136.541833 
L 429.838398 130.400346 
L 437.034899 125.056954 
L 444.168895 120.632411 
L 451.133898 117.199114 
L 457.741186 114.802976 
L 463.913057 113.774881 
L 469.585892 114.460205 
L 474.607659 117.094568 
L 478.737912 121.803836 
L 481.66116 128.601331 
L 483.273767 137.23974 
L 483.547933 147.220865 
L 482.464107 158.090564 
L 480.057717 169.462764 
L 476.419171 181.01946 
L 471.662252 192.470538 
L 465.923393 203.553018 
L 459.36637 214.070374 
L 452.151772 223.864874 
L 444.436997 232.817577 
L 436.376257 240.848337 
L 428.119714 247.912567 
L 419.810016 253.964196 
L 411.590974 259.001514 
L 403.585504 263.065941 
L 395.891625 266.234591 
L 388.582452 268.620268 
L 381.706203 270.371474 
L 375.296041 271.591286 
L 369.375587 272.312698 
L 363.953095 272.614356 
L 359.030235 272.56498 
L 354.602108 272.22325 
L 350.657244 271.637807 
L 347.177417 270.84793 
L 344.139352 269.889838 
L 341.520655 268.794287 
L 339.29888 267.584506 
L 337.451317 266.276343 
L 335.954986 264.878267 
L 334.786638 263.391366 
L 333.922756 261.809346 
L 333.339992 260.121768 
L 333.028181 258.32697 
L 332.981938 256.424084 
L 333.194791 254.409456 
L 333.659177 252.276646 
L 334.366445 250.016431 
L 335.306855 247.616801 
L 336.469578 245.06296 
L 337.845387 242.338965 
L 341.269296 236.339411 
L 345.629252 229.510643 
L 350.972079 221.746765 
L 357.349316 212.953756 
L 364.832763 203.081759 
L 373.484109 192.059316 
L 383.37286 179.792573 
L 394.573793 166.240103 
L 400.647248 159.069903 
L 407.079227 151.740494 
L 413.876166 144.36317 
L 421.004278 137.081233 
L 428.389547 130.069987 
L 435.917734 123.536746 
L 443.469458 117.759547 
L 450.961397 113.109188 
L 458.232304 109.731089 
L 465.160285 107.58035 
L 471.631948 107.025342 
L 477.40738 108.532753 
L 482.290757 112.01615 
L 486.178484 117.190042 
L 488.915903 124.493493 
L 490.306314 133.782522 
L 490.282403 144.495238 
L 488.852773 156.126057 
L 486.034072 168.441334 
L 481.891882 181.110843 
L 476.530891 193.778144 
L 470.086153 206.048639 
L 462.736037 217.601518 
L 454.685257 228.245805 
L 446.12642 237.847677 
L 437.239619 246.329607 
L 428.192436 253.670366 
L 419.14049 259.897824 
L 410.228601 265.040969 
L 401.580497 269.159134 
L 393.296904 272.336136 
L 385.455771 274.677101 
L 378.112277 276.308465 
L 371.299111 277.37558 
L 365.033484 277.967826 
L 359.316231 278.153391 
L 354.139969 278.005675 
L 349.492249 277.58774 
L 345.355556 276.952308 
L 341.707309 276.141761 
L 338.518283 275.193498 
L 335.759137 274.137517 
L 333.40334 272.993433 
L 331.424531 271.775328 
L 329.796528 270.491754 
L 328.493319 269.145737 
L 327.48907 267.734771 
L 326.757145 266.251456 
L 326.278271 264.693128 
L 326.045292 263.060583 
L 326.050798 261.351189 
L 326.286609 259.558718 
L 326.74377 257.673355 
L 327.412556 255.681693 
L 328.28247 253.566734 
L 330.584318 248.883487 
L 333.666715 243.480383 
L 337.608031 237.203014 
L 342.491479 229.864144 
L 351.808919 216.393942 
L 359.573419 205.489084 
L 368.776862 192.990568 
L 379.521406 179.020052 
L 385.487879 171.567533 
L 391.852924 163.838502 
L 398.608571 155.816694 
L 405.750784 147.522644 
L 413.280012 139.016287 
L 421.194276 130.573781 
L 429.402421 122.531647 
L 437.789647 115.07052 
L 446.261508 108.373238 
L 454.736868 102.675181 
L 463.045762 98.424206 
L 470.994346 95.661041 
L 478.445031 94.649747 
L 485.149782 96.059196 
L 490.89031 99.626618 
L 495.483517 105.678427 
L 498.694247 114.339787 
L 500.362228 125.003562 
L 500.397245 137.434412 
L 498.752217 151.471855 
L 495.402733 166.785006 
L 490.354609 182.861961 
L 483.724872 199.044588 
L 475.708788 214.755643 
L 466.527673 229.513622 
L 456.428169 242.930924 
L 445.682253 254.713852 
L 434.579915 264.724335 
L 423.372967 273.09404 
L 412.269653 279.93508 
L 401.445814 285.374078 
L 391.04484 289.55723 
L 381.177876 292.650268 
L 371.931252 294.830725 
L 363.340789 296.266402 
L 355.418162 297.106962 
L 348.165283 297.482779 
L 341.574304 297.504938 
L 335.62762 297.265231 
L 330.297862 296.836164 
L 325.540984 296.277114 
L 317.566371 294.968656 
L 311.377612 293.642472 
L 302.99129 291.510104 
L 299.07597 290.548015 
L 297.19418 290.228003 
L 295.695769 290.148906 
L 294.464134 290.304145 
L 293.389701 290.682976 
L 292.388669 291.285566 
L 291.39623 292.125108 
L 289.78461 293.8713 
L 287.869102 296.312494 
L 283.45465 302.445364 
L 276.535559 312.52696 
L 242.329797 362.741511 
L 231.34591 378.296167 
L 218.25143 396.400214 
L 210.851888 406.354601 
L 202.86778 416.817342 
L 194.296879 427.678137 
L 185.144997 438.794387 
L 175.429498 449.957161 
L 165.224371 460.911496 
L 154.637961 471.441899 
L 143.783097 481.303813 
L 132.776868 490.222268 
L 121.760344 497.859587 
L 111.005418 503.424773 
L 100.739831 506.040885 
L 91.265291 505.092689 
L 82.985369 500.220861 
L 76.404765 491.320766 
L 71.927394 478.456696 
L 69.731349 462.220887 
L 69.961359 443.324039 
L 72.696718 422.354612 
L 77.951288 399.77882 
L 85.664148 376.345658 
L 95.574637 353.792802 
L 107.291264 332.9172 
L 120.406279 314.229667 
L 134.498004 298.01972 
L 149.13886 284.365375 
L 163.955593 273.212451 
L 178.621315 264.401265 
L 192.867162 257.700637 
L 206.48548 252.81232 
L 219.329819 249.371003 
L 231.30832 247.042663 
L 242.379374 245.622366 
L 252.534767 244.887338 
L 261.784969 244.646765 
L 270.159104 244.742062 
L 277.705119 245.046652 
L 290.580243 245.905061 
L 300.905554 246.685183 
L 305.267882 246.92836 
L 309.184591 247.026628 
L 312.724639 246.954558 
L 315.958703 246.694538 
L 318.939215 246.233552 
L 321.708341 245.558232 
L 324.310321 244.657661 
L 326.789042 243.52382 
L 329.188036 242.151583 
L 331.55048 240.538723 
L 331.55048 240.538723 
" clip-path="url(#p89a8b4ba71)" style="fill: none; stroke: #000000; stroke-opacity: 0.3; stroke-width: 7; stroke-linecap: round"/>
   </g>
   <g id="line2d_26">
    <path d="M 434.480189 180.956971 
L 434.281644 184.04465 
L 433.712273 187.107742 
L 432.813823 190.119622 
L 431.624444 193.062219 
L 430.180322 195.921321 
L 428.51747 198.682878 
L 426.67002 201.335939 
L 424.671712 203.872065 
L 422.549269 206.289161 
L 420.329414 208.585132 
L 418.037328 210.758735 
L 413.32803 214.744122 
L 408.565074 218.272403 
L 403.86819 221.379635 
L 399.319176 224.109505 
L 394.976362 226.506382 
L 388.92909 229.571592 
L 381.808713 232.865387 
L 373.096695 236.588235 
L 357.345267 243.22754 
L 352.485167 245.54982 
L 348.386935 247.743603 
L 344.074702 250.318742 
L 338.757537 253.782788 
L 330.994365 259.132349 
L 320.892614 266.375359 
L 320.207643 266.874806 
L 320.207643 266.874806 
" clip-path="url(#p89a8b4ba71)" style="fill: none; stroke-dasharray: 22.4,5.6,3.5,5.6; stroke-dashoffset: 0; stroke: #0000ff; stroke-opacity: 0.8; stroke-width: 3.5"/>
   </g>
   <g id="patch_3">
    <path d="M 40.807813 535.587656 
L 40.807813 21.207656 
" style="fill: none; stroke: #cccccc; stroke-linejoin: miter; stroke-linecap: square"/>
   </g>
   <g id="patch_4">
    <path d="M 561.637812 535.587656 
L 561.637812 21.207656 
" style="fill: none; stroke: #cccccc; stroke-linejoin: miter; stroke-linecap: square"/>
   </g>
   <g id="patch_5">
    <path d="M 40.807813 535.587656 
L 561.637812 535.587656 
" style="fill: none; stroke: #cccccc; stroke-linejoin: miter; stroke-linecap: square"/>
   </g>
   <g id="patch_6">
    <path d="M 40.807813 21.207656 
L 561.637812 21.207656 
" style="fill: none; stroke: #cccccc; stroke-linejoin: miter; stroke-linecap: square"/>
   </g>
   <g id="line2d_27">
    <path d="M 434.480189 180.956971 
L 434.968036 174.056429 
L 436.245352 167.701469 
L 438.164562 161.905616 
L 440.591797 156.705351 
L 443.397195 152.146499 
L 446.457741 148.296911 
L 449.654346 145.235831 
L 452.869339 143.039505 
L 455.984103 141.79394 
L 458.888956 141.548679 
L 461.477872 142.341747 
L 463.644791 144.203057 
L 465.29871 147.114204 
L 466.36525 151.017132 
L 466.777703 155.841148 
L 466.480546 161.47377 
L 465.46115 167.764092 
L 463.712959 174.558723 
L 461.246931 181.695877 
L 458.1068 189.015823 
L 454.345878 196.362302 
L 450.031708 203.581891 
L 445.24606 210.534589 
L 440.076519 217.094838 
L 434.613865 223.167078 
L 428.948152 228.678698 
L 423.164428 233.588924 
L 417.344761 237.872617 
L 411.562697 241.532884 
L 405.888372 244.581908 
L 400.386078 247.046971 
L 395.110759 248.967242 
L 390.113657 250.385923 
L 385.432301 251.35108 
L 381.095915 251.90984 
L 377.12866 252.11119 
L 373.537828 251.994775 
L 370.327427 251.597712 
L 367.497317 250.95383 
L 365.039941 250.088885 
L 362.945836 249.023825 
L 361.20364 247.777013 
L 359.800993 246.358951 
L 358.725663 244.778491 
L 357.965115 243.042382 
L 357.508196 241.152551 
L 357.344712 239.109129 
L 357.465171 236.911042 
L 357.860309 234.555963 
L 358.524714 232.037729 
L 359.452976 229.350173 
L 360.640577 226.486976 
L 362.083677 223.439152 
L 363.781992 220.198615 
L 365.735806 216.757552 
L 370.412983 209.245169 
L 376.133276 200.875591 
L 382.919405 191.690071 
L 386.715242 186.833737 
L 390.777618 181.836224 
L 395.10244 176.730355 
L 399.677695 171.560398 
L 404.488773 166.373838 
L 409.516965 161.223349 
L 414.727768 156.18376 
L 420.082781 151.334904 
L 425.536943 146.769131 
L 431.026031 142.604886 
L 436.481485 138.964887 
L 441.827361 135.983318 
L 446.976471 133.793607 
L 451.839105 132.52054 
L 456.319311 132.286503 
L 460.321218 133.162824 
L 463.749864 135.210366 
L 466.511464 138.458416 
L 468.524089 142.875508 
L 469.712949 148.398265 
L 470.027884 154.894732 
L 469.437425 162.198482 
L 467.938442 170.111962 
L 465.556554 178.433723 
L 462.331075 186.960381 
L 458.340472 195.506811 
L 453.669146 203.892897 
L 448.415712 211.940897 
L 442.69212 219.509688 
L 436.610721 226.481358 
L 430.282723 232.776085 
L 423.810068 238.353446 
L 417.29049 243.18904 
L 410.810822 247.29213 
L 404.452923 250.684816 
L 398.291922 253.40647 
L 392.391927 255.510351 
L 386.811635 257.054851 
L 381.592278 258.101895 
L 376.766091 258.711667 
L 372.35487 258.943137 
L 368.363336 258.844003 
L 364.793703 258.459837 
L 361.63934 257.828116 
L 358.888652 256.978094 
L 356.527925 255.935612 
L 354.541523 254.717525 
L 352.913726 253.337931 
L 351.628508 251.807418 
L 350.671263 250.130984 
L 350.028275 248.311875 
L 349.68568 246.352331 
L 349.633152 244.249573 
L 349.861014 241.999975 
L 350.360569 239.598863 
L 351.123965 237.0402 
L 352.1471 234.314429 
L 353.42618 231.41176 
L 354.958926 228.321661 
L 356.743095 225.03111 
L 361.077066 217.798616 
L 366.453179 209.61803 
L 372.917328 200.422528 
L 380.520345 190.24329 
L 384.762883 184.820601 
L 389.301613 179.21597 
L 394.135502 173.46518 
L 399.257598 167.613522 
L 404.652168 161.718999 
L 410.300596 155.843654 
L 416.168206 150.074732 
L 422.208155 144.517039 
L 428.366738 139.287499 
L 434.569364 134.532702 
L 440.732884 130.407661 
L 446.766991 127.081231 
L 452.567679 124.717386 
L 458.027826 123.470572 
L 463.033739 123.488579 
L 467.468211 124.86247 
L 471.214824 127.662981 
L 474.158633 131.919501 
L 476.197203 137.589074 
L 477.240295 144.574085 
L 477.229453 152.688132 
L 476.130655 161.695076 
L 473.955644 171.324012 
L 470.737039 181.302192 
L 466.555254 191.383793 
L 461.506903 201.337155 
L 455.70967 210.926997 
L 449.302425 219.971872 
L 442.426379 228.312779 
L 435.221714 235.845695 
L 427.817951 242.513573 
L 420.333523 248.289884 
L 412.874269 253.180602 
L 405.539427 257.212449 
L 398.41732 260.44083 
L 391.590671 262.933888 
L 385.124894 264.772454 
L 379.075914 266.040009 
L 373.47969 266.816894 
L 368.353915 267.17432 
L 363.70877 267.178926 
L 359.538472 266.884529 
L 355.831514 266.337346 
L 352.570818 265.574405 
L 349.736726 264.625185 
L 347.308294 263.512577 
L 345.264673 262.253099 
L 343.585076 260.859994 
L 342.250809 259.340039 
L 341.243918 257.698443 
L 340.547719 255.937546 
L 340.148313 254.055739 
L 340.032914 252.050137 
L 340.189262 249.916961 
L 340.609468 247.648038 
L 341.286092 245.234763 
L 342.212995 242.667407 
L 343.385701 239.934627 
L 344.803384 237.02208 
L 346.465661 233.915274 
L 350.527896 227.05436 
L 355.60708 219.209538 
L 361.760471 210.232206 
L 369.072324 200.017623 
L 377.636165 188.545561 
L 382.41456 182.376049 
L 387.536719 175.952095 
L 393.004714 169.316262 
L 398.815343 162.520585 
L 404.960404 155.625142 
L 411.416929 148.714522 
L 418.153141 141.891976 
L 425.109903 135.302188 
L 432.219243 129.102601 
L 439.394353 123.476438 
L 446.530476 118.627756 
L 453.518052 114.76755 
L 460.233523 112.115471 
L 466.542878 110.873324 
L 472.305324 111.226717 
L 477.369828 113.304054 
L 481.583144 117.195828 
L 484.79751 122.915653 
L 486.875257 130.412945 
L 487.708926 139.524483 
L 487.218852 150.001499 
L 485.38026 161.490167 
L 482.209748 173.601166 
L 477.78033 185.964839 
L 472.200365 198.243406 
L 465.616921 210.127162 
L 458.204244 221.337666 
L 450.153486 231.657483 
L 441.654523 240.952309 
L 432.884005 249.143757 
L 423.995608 256.201938 
L 415.125517 262.130957 
L 406.395827 266.97344 
L 397.918481 270.808518 
L 389.795571 273.741179 
L 382.11134 275.891316 
L 374.930292 277.378891 
L 368.292533 278.315187 
L 362.215737 278.797862 
L 356.699326 278.910124 
L 351.729192 278.720893 
L 347.283307 278.287644 
L 343.334696 277.656658 
L 339.854434 276.865008 
L 336.81308 275.942539 
L 334.182013 274.911128 
L 331.933465 273.788317 
L 330.041642 272.585524 
L 328.481834 271.311388 
L 327.231972 269.969667 
L 326.27154 268.561728 
L 325.581908 267.086289 
L 325.147503 265.53864 
L 324.953524 263.913134 
L 324.988548 262.201232 
L 325.243676 260.392473 
L 325.711147 258.475666 
L 326.38543 256.438206 
L 327.264574 254.26559 
L 328.347554 251.942795 
L 331.127973 246.784002 
L 334.759258 240.821296 
L 339.293973 233.901387 
L 344.815705 225.842132 
L 355.182713 211.164088 
L 368.477398 192.804022 
L 379.238038 178.42213 
L 385.246442 170.644124 
L 391.69344 162.525435 
L 398.58792 154.117721 
L 405.927854 145.49721 
L 413.6946 136.774107 
L 421.848573 128.100347 
L 430.319368 119.676579 
L 439.016772 111.730137 
L 447.822482 104.531522 
L 456.612062 98.370908 
L 465.236774 93.582689 
L 473.530212 90.515797 
L 481.303876 89.515019 
L 488.337701 90.85164 
L 494.391832 94.751135 
L 499.231816 101.259277 
L 502.636643 110.337 
L 504.41674 121.805382 
L 504.449131 135.345034 
L 502.648685 150.538869 
L 499.020034 166.778805 
L 493.634773 183.421026 
L 486.640832 199.903423 
L 478.240016 215.719362 
L 468.686933 230.427863 
L 458.272412 243.734623 
L 447.289647 255.485118 
L 436.0051 265.614761 
L 424.638727 274.119863 
L 413.372048 281.054118 
L 402.362581 286.530249 
L 391.75488 290.713104 
L 381.677378 293.796948 
L 372.229745 295.979121 
L 363.472957 297.438819 
L 355.429102 298.327196 
L 348.090046 298.767904 
L 341.428352 298.861756 
L 335.40712 298.693757 
L 329.985157 298.333883 
L 325.120328 297.84321 
L 316.895297 296.65688 
L 310.404552 295.43142 
L 298.322318 292.981436 
L 295.893881 292.75643 
L 293.92047 292.843199 
L 292.246811 293.23838 
L 290.745553 293.942723 
L 289.31071 294.964888 
L 287.852534 296.324591 
L 286.291337 298.054183 
L 283.594016 301.447761 
L 278.936435 307.851289 
L 272.417319 317.223327 
L 260.130331 335.33164 
L 245.10647 357.459192 
L 235.15049 371.717134 
L 223.199754 388.369392 
L 209.007128 407.690942 
L 201.013751 418.340316 
L 192.414842 429.516522 
L 183.222837 441.060483 
L 173.458041 452.816516 
L 163.144945 464.605948 
L 152.321633 476.153253 
L 141.072079 487.014609 
L 129.554562 496.629254 
L 118.009895 504.412712 
L 106.739755 509.797597 
L 96.077187 512.206747 
L 86.374397 511.102939 
L 77.996212 506.036626 
L 71.320068 496.748119 
L 66.711092 483.282791 
L 64.481903 466.018885 
L 64.8535 445.601723 
L 67.932564 422.930728 
L 73.685139 399.079244 
L 81.936032 375.063828 
L 92.390123 351.917343 
L 104.647745 330.423969 
L 118.284827 311.082434 
L 132.894658 294.33143 
L 148.088773 280.35046 
L 163.484035 269.014807 
L 178.706151 260.055291 
L 193.444216 253.16651 
L 207.493668 248.054171 
L 220.749415 244.445123 
L 233.150171 242.072359 
L 244.648509 240.670808 
L 255.206596 239.987633 
L 264.810655 239.79977 
L 273.482752 239.927964 
L 288.260929 240.614412 
L 305.196554 241.532518 
L 309.763032 241.614093 
L 313.909042 241.531661 
L 317.696296 241.265148 
L 321.183876 240.79688 
L 324.424729 240.11417 
L 327.468278 239.20664 
L 330.361914 238.065522 
L 333.146379 236.684525 
L 335.860996 235.057592 
L 338.543451 233.17934 
L 341.22625 231.043951 
L 343.939791 228.645167 
L 346.713269 225.97672 
L 349.575077 223.030433 
L 355.65975 216.27273 
L 362.380847 208.3129 
L 387.973332 177.341076 
L 393.183576 171.350861 
L 398.677656 165.229778 
L 404.446404 159.038603 
L 410.473643 152.848535 
L 416.723986 146.759287 
L 423.15346 140.883166 
L 429.700503 135.35936 
L 436.286864 130.347403 
L 442.826777 126.018964 
L 449.217877 122.55767 
L 455.352779 120.142502 
L 461.116276 118.963399 
L 466.383443 119.150297 
L 471.029023 120.816457 
L 474.922937 124.052928 
L 477.941603 128.866665 
L 479.97301 135.212818 
L 480.914271 142.982749 
L 480.710101 151.946654 
L 479.32644 161.838733 
L 476.7743 172.3443 
L 473.112041 183.165637 
L 468.417394 194.01781 
L 462.812015 204.64433 
L 456.433013 214.807062 
L 449.436238 224.290859 
L 441.97941 232.962546 
L 434.215739 240.71923 
L 426.283492 247.515702 
L 418.306773 253.337166 
L 410.397365 258.200755 
L 402.658177 262.151207 
L 395.182662 265.25923 
L 388.054918 267.611934 
L 381.340135 269.304393 
L 375.089418 270.430783 
L 369.332512 271.078284 
L 364.082578 271.324236 
L 359.339097 271.235444 
L 355.090847 270.867351 
L 351.320202 270.266073 
L 348.005462 269.467906 
L 345.1232 268.502451 
L 342.649643 267.390999 
L 340.561077 266.151178 
L 338.835586 264.793459 
L 337.452187 263.325924 
L 336.391421 261.753053 
L 335.636433 260.07528 
L 335.171017 258.291991 
L 334.981482 256.399505 
L 335.056991 254.391132 
L 335.387446 252.259549 
L 335.964178 249.996004 
L 336.782511 247.588603 
L 337.838743 245.024713 
L 339.12968 242.291363 
L 340.654982 239.373437 
L 344.420436 232.9135 
L 349.166412 225.497718 
L 354.95485 216.959431 
L 361.872147 207.13221 
L 370.029731 195.907479 
L 374.610359 189.766829 
L 374.610359 189.766829 
" clip-path="url(#p89a8b4ba71)" style="fill: none; stroke-dasharray: 3.5,5.775; stroke-dashoffset: 0; stroke: #008000; stroke-opacity: 0.8; stroke-width: 3.5"/>
   </g>
   <g id="text_15">
    <!-- Phase Portrait (x0 vs x1) -->
    <g style="fill: #262626" transform="translate(241.010703 15.207656) scale(0.11 -0.11)">
     <defs>
      <path id="ArialMT-50" d="M 494 0 
L 494 4581 
L 2222 4581 
Q 2678 4581 2919 4538 
Q 3256 4481 3484 4323 
Q 3713 4166 3852 3881 
Q 3991 3597 3991 3256 
Q 3991 2672 3619 2267 
Q 3247 1863 2275 1863 
L 1100 1863 
L 1100 0 
L 494 0 
z
M 1100 2403 
L 2284 2403 
Q 2872 2403 3119 2622 
Q 3366 2841 3366 3238 
Q 3366 3525 3220 3729 
Q 3075 3934 2838 4000 
Q 2684 4041 2272 4041 
L 1100 4041 
L 1100 2403 
z
" transform="scale(0.015625)"/>
      <path id="ArialMT-68" d="M 422 0 
L 422 4581 
L 984 4581 
L 984 2938 
Q 1378 3394 1978 3394 
Q 2347 3394 2619 3248 
Q 2891 3103 3008 2847 
Q 3125 2591 3125 2103 
L 3125 0 
L 2563 0 
L 2563 2103 
Q 2563 2525 2380 2717 
Q 2197 2909 1863 2909 
Q 1613 2909 1392 2779 
Q 1172 2650 1078 2428 
Q 984 2206 984 1816 
L 984 0 
L 422 0 
z
" transform="scale(0.015625)"/>
      <path id="ArialMT-61" d="M 2588 409 
Q 2275 144 1986 34 
Q 1697 -75 1366 -75 
Q 819 -75 525 192 
Q 231 459 231 875 
Q 231 1119 342 1320 
Q 453 1522 633 1644 
Q 813 1766 1038 1828 
Q 1203 1872 1538 1913 
Q 2219 1994 2541 2106 
Q 2544 2222 2544 2253 
Q 2544 2597 2384 2738 
Q 2169 2928 1744 2928 
Q 1347 2928 1158 2789 
Q 969 2650 878 2297 
L 328 2372 
Q 403 2725 575 2942 
Q 747 3159 1072 3276 
Q 1397 3394 1825 3394 
Q 2250 3394 2515 3294 
Q 2781 3194 2906 3042 
Q 3031 2891 3081 2659 
Q 3109 2516 3109 2141 
L 3109 1391 
Q 3109 606 3145 398 
Q 3181 191 3288 0 
L 2700 0 
Q 2613 175 2588 409 
z
M 2541 1666 
Q 2234 1541 1622 1453 
Q 1275 1403 1131 1340 
Q 988 1278 909 1158 
Q 831 1038 831 891 
Q 831 666 1001 516 
Q 1172 366 1500 366 
Q 1825 366 2078 508 
Q 2331 650 2450 897 
Q 2541 1088 2541 1459 
L 2541 1666 
z
" transform="scale(0.015625)"/>
      <path id="ArialMT-73" d="M 197 991 
L 753 1078 
Q 800 744 1014 566 
Q 1228 388 1613 388 
Q 2000 388 2187 545 
Q 2375 703 2375 916 
Q 2375 1106 2209 1216 
Q 2094 1291 1634 1406 
Q 1016 1563 777 1677 
Q 538 1791 414 1992 
Q 291 2194 291 2438 
Q 291 2659 392 2848 
Q 494 3038 669 3163 
Q 800 3259 1026 3326 
Q 1253 3394 1513 3394 
Q 1903 3394 2198 3281 
Q 2494 3169 2634 2976 
Q 2775 2784 2828 2463 
L 2278 2388 
Q 2241 2644 2061 2787 
Q 1881 2931 1553 2931 
Q 1166 2931 1000 2803 
Q 834 2675 834 2503 
Q 834 2394 903 2306 
Q 972 2216 1119 2156 
Q 1203 2125 1616 2013 
Q 2213 1853 2448 1751 
Q 2684 1650 2818 1456 
Q 2953 1263 2953 975 
Q 2953 694 2789 445 
Q 2625 197 2315 61 
Q 2006 -75 1616 -75 
Q 969 -75 630 194 
Q 291 463 197 991 
z
" transform="scale(0.015625)"/>
      <path id="ArialMT-65" d="M 2694 1069 
L 3275 997 
Q 3138 488 2766 206 
Q 2394 -75 1816 -75 
Q 1088 -75 661 373 
Q 234 822 234 1631 
Q 234 2469 665 2931 
Q 1097 3394 1784 3394 
Q 2450 3394 2872 2941 
Q 3294 2488 3294 1666 
Q 3294 1616 3291 1516 
L 816 1516 
Q 847 969 1125 678 
Q 1403 388 1819 388 
Q 2128 388 2347 550 
Q 2566 713 2694 1069 
z
M 847 1978 
L 2700 1978 
Q 2663 2397 2488 2606 
Q 2219 2931 1791 2931 
Q 1403 2931 1139 2672 
Q 875 2413 847 1978 
z
" transform="scale(0.015625)"/>
      <path id="ArialMT-20" transform="scale(0.015625)"/>
      <path id="ArialMT-6f" d="M 213 1659 
Q 213 2581 725 3025 
Q 1153 3394 1769 3394 
Q 2453 3394 2887 2945 
Q 3322 2497 3322 1706 
Q 3322 1066 3130 698 
Q 2938 331 2570 128 
Q 2203 -75 1769 -75 
Q 1072 -75 642 372 
Q 213 819 213 1659 
z
M 791 1659 
Q 791 1022 1069 705 
Q 1347 388 1769 388 
Q 2188 388 2466 706 
Q 2744 1025 2744 1678 
Q 2744 2294 2464 2611 
Q 2184 2928 1769 2928 
Q 1347 2928 1069 2612 
Q 791 2297 791 1659 
z
" transform="scale(0.015625)"/>
      <path id="ArialMT-72" d="M 416 0 
L 416 3319 
L 922 3319 
L 922 2816 
Q 1116 3169 1280 3281 
Q 1444 3394 1641 3394 
Q 1925 3394 2219 3213 
L 2025 2691 
Q 1819 2813 1613 2813 
Q 1428 2813 1281 2702 
Q 1134 2591 1072 2394 
Q 978 2094 978 1738 
L 978 0 
L 416 0 
z
" transform="scale(0.015625)"/>
      <path id="ArialMT-74" d="M 1650 503 
L 1731 6 
Q 1494 -44 1306 -44 
Q 1000 -44 831 53 
Q 663 150 594 308 
Q 525 466 525 972 
L 525 2881 
L 113 2881 
L 113 3319 
L 525 3319 
L 525 4141 
L 1084 4478 
L 1084 3319 
L 1650 3319 
L 1650 2881 
L 1084 2881 
L 1084 941 
Q 1084 700 1114 631 
Q 1144 563 1211 522 
Q 1278 481 1403 481 
Q 1497 481 1650 503 
z
" transform="scale(0.015625)"/>
      <path id="ArialMT-69" d="M 425 3934 
L 425 4581 
L 988 4581 
L 988 3934 
L 425 3934 
z
M 425 0 
L 425 3319 
L 988 3319 
L 988 0 
L 425 0 
z
" transform="scale(0.015625)"/>
      <path id="ArialMT-28" d="M 1497 -1347 
Q 1031 -759 709 28 
Q 388 816 388 1659 
Q 388 2403 628 3084 
Q 909 3875 1497 4659 
L 1900 4659 
Q 1522 4009 1400 3731 
Q 1209 3300 1100 2831 
Q 966 2247 966 1656 
Q 966 153 1900 -1347 
L 1497 -1347 
z
" transform="scale(0.015625)"/>
      <path id="ArialMT-76" d="M 1344 0 
L 81 3319 
L 675 3319 
L 1388 1331 
Q 1503 1009 1600 663 
Q 1675 925 1809 1294 
L 2547 3319 
L 3125 3319 
L 1869 0 
L 1344 0 
z
" transform="scale(0.015625)"/>
      <path id="ArialMT-29" d="M 791 -1347 
L 388 -1347 
Q 1322 153 1322 1656 
Q 1322 2244 1188 2822 
Q 1081 3291 891 3722 
Q 769 4003 388 4659 
L 791 4659 
Q 1378 3875 1659 3084 
Q 1900 2403 1900 1659 
Q 1900 816 1576 28 
Q 1253 -759 791 -1347 
z
" transform="scale(0.015625)"/>
     </defs>
     <use xlink:href="#ArialMT-50"/>
     <use xlink:href="#ArialMT-68" transform="translate(66.699219 0)"/>
     <use xlink:href="#ArialMT-61" transform="translate(122.314453 0)"/>
     <use xlink:href="#ArialMT-73" transform="translate(177.929688 0)"/>
     <use xlink:href="#ArialMT-65" transform="translate(227.929688 0)"/>
     <use xlink:href="#ArialMT-20" transform="translate(283.544922 0)"/>
     <use xlink:href="#ArialMT-50" transform="translate(311.328125 0)"/>
     <use xlink:href="#ArialMT-6f" transform="translate(378.027344 0)"/>
     <use xlink:href="#ArialMT-72" transform="translate(433.642578 0)"/>
     <use xlink:href="#ArialMT-74" transform="translate(466.943359 0)"/>
     <use xlink:href="#ArialMT-72" transform="translate(494.726562 0)"/>
     <use xlink:href="#ArialMT-61" transform="translate(528.027344 0)"/>
     <use xlink:href="#ArialMT-69" transform="translate(583.642578 0)"/>
     <use xlink:href="#ArialMT-74" transform="translate(605.859375 0)"/>
     <use xlink:href="#ArialMT-20" transform="translate(633.642578 0)"/>
     <use xlink:href="#ArialMT-28" transform="translate(661.425781 0)"/>
     <use xlink:href="#ArialMT-78" transform="translate(694.726562 0)"/>
     <use xlink:href="#ArialMT-30" transform="translate(744.726562 0)"/>
     <use xlink:href="#ArialMT-20" transform="translate(800.341797 0)"/>
     <use xlink:href="#ArialMT-76" transform="translate(828.125 0)"/>
     <use xlink:href="#ArialMT-73" transform="translate(878.125 0)"/>
     <use xlink:href="#ArialMT-20" transform="translate(928.125 0)"/>
     <use xlink:href="#ArialMT-78" transform="translate(955.908203 0)"/>
     <use xlink:href="#ArialMT-31" transform="translate(1005.908203 0)"/>
     <use xlink:href="#ArialMT-29" transform="translate(1061.523438 0)"/>
    </g>
   </g>
   <g id="line2d_28">
    <path d="M 434.480189 180.956971 
L 434.92402 174.076893 
L 436.16191 167.726788 
L 438.049055 161.921944 
L 440.454889 156.705486 
L 443.251285 152.126007 
L 446.316436 148.248638 
L 449.532076 145.14801 
L 452.780938 142.897865 
L 455.946047 141.576503 
L 458.915897 141.239228 
L 461.581744 141.932041 
L 463.835953 143.686976 
L 465.589415 146.482363 
L 466.759695 150.282198 
L 467.272365 155.021567 
L 467.08638 160.58389 
L 466.17003 166.842164 
L 464.50888 173.647262 
L 462.121679 180.83187 
L 459.038299 188.229088 
L 455.304352 195.658144 
L 450.994537 202.966145 
L 446.186382 210.005267 
L 440.96823 216.645134 
L 435.436658 222.794349 
L 429.688224 228.380393 
L 423.817826 233.360298 
L 417.914851 237.713503 
L 412.062921 241.437156 
L 406.333869 244.549091 
L 400.794925 247.075412 
L 395.496766 249.05656 
L 390.482619 250.536453 
L 385.788983 251.563229 
L 381.436452 252.183103 
L 377.441632 252.440473 
L 373.815599 252.378206 
L 370.55976 252.030506 
L 367.673124 251.428321 
L 365.151793 250.599319 
L 362.987867 249.563491 
L 361.172631 248.337497 
L 359.695973 246.936016 
L 358.547512 245.366399 
L 357.717059 243.634375 
L 357.194454 241.743953 
L 356.970368 239.695348 
L 357.037126 237.485779 
L 357.387836 235.111842 
L 358.015144 232.568798 
L 358.915668 229.84943 
L 360.086846 226.946123 
L 361.526237 223.851783 
L 363.232609 220.557664 
L 365.206606 217.05587 
L 367.44963 213.3427 
L 369.963082 209.414456 
L 375.807206 200.909091 
L 382.747376 191.584167 
L 386.623796 186.653642 
L 390.766949 181.572362 
L 395.166777 176.377732 
L 399.809733 171.113789 
L 404.679727 165.829564 
L 409.755066 160.585939 
L 415.003072 155.462373 
L 420.388026 150.542174 
L 425.86878 145.921052 
L 431.386192 141.714911 
L 436.877847 138.041647 
L 442.273671 135.02962 
L 447.487862 132.807431 
L 452.430581 131.497935 
L 457.004437 131.22487 
L 461.107771 132.069979 
L 464.64094 134.094601 
L 467.501327 137.33914 
L 469.605812 141.76349 
L 470.88118 147.301901 
L 471.263457 153.848739 
L 470.72962 161.235722 
L 469.269581 169.281895 
L 466.895676 177.783896 
L 463.657316 186.527776 
L 459.61594 195.300542 
L 454.858423 203.899454 
L 449.486278 212.142172 
L 443.613092 219.880645 
L 437.357888 226.999371 
L 430.839815 233.424957 
L 424.176428 239.108078 
L 417.474608 244.036939 
L 410.833934 248.216502 
L 404.342731 251.673472 
L 398.073124 254.453457 
L 392.089407 256.609831 
L 386.43659 258.20498 
L 381.150852 259.301468 
L 376.258707 259.962949 
L 371.770486 260.242986 
L 367.694585 260.193495 
L 364.030924 259.858937 
L 360.773272 259.275016 
L 357.913113 258.474185 
L 355.438132 257.479841 
L 353.335073 256.311555 
L 351.589519 254.985345 
L 350.186954 253.510352 
L 349.11333 251.893433 
L 348.354301 250.139356 
L 347.898184 248.246866 
L 347.733931 246.213698 
L 347.85108 244.036196 
L 348.241841 241.707302 
L 348.900595 239.217919 
L 349.822831 236.558404 
L 351.003977 233.71787 
L 352.44456 230.683615 
L 354.145885 227.442724 
L 356.109468 223.983261 
L 360.83831 216.351872 
L 366.675024 207.709207 
L 373.668401 198.011104 
L 381.863179 187.292054 
L 386.414869 181.595128 
L 391.26845 175.707057 
L 396.415542 169.673146 
L 401.842527 163.549133 
L 407.532756 157.398187 
L 413.456474 151.309583 
L 419.578042 145.382807 
L 425.853098 139.734469 
L 432.219572 134.50622 
L 438.608407 129.847417 
L 444.935038 125.925008 
L 451.099022 122.910647 
L 456.992592 120.984778 
L 462.49143 120.304706 
L 467.467677 121.002619 
L 471.786186 123.201523 
L 475.318775 126.935653 
L 477.950189 132.184026 
L 479.567864 138.888441 
L 480.100879 146.879651 
L 479.507609 155.941924 
L 477.762525 165.826865 
L 474.896984 176.247856 
L 470.970698 186.915399 
L 466.065833 197.542647 
L 460.300424 207.865103 
L 453.809351 217.651829 
L 446.741282 226.72643 
L 439.249226 234.966552 
L 431.485043 242.294865 
L 423.591251 248.679938 
L 415.700379 254.118619 
L 407.930597 258.638888 
L 400.382126 262.295323 
L 393.140724 265.159507 
L 386.26907 267.317329 
L 379.819293 268.859082 
L 373.820375 269.870479 
L 368.292519 270.432292 
L 363.243924 270.617102 
L 358.671314 270.48382 
L 354.567353 270.085749 
L 350.917759 269.464559 
L 347.705525 268.656158 
L 344.910789 267.687319 
L 342.512853 266.580296 
L 340.490347 265.351534 
L 338.82249 264.011934 
L 337.488525 262.570176 
L 336.470028 261.028753 
L 335.74962 259.388256 
L 335.310889 257.647201 
L 335.140923 255.799843 
L 335.228321 253.839005 
L 335.562015 251.756848 
L 336.135804 249.541774 
L 336.944997 247.181074 
L 337.986045 244.661327 
L 339.256792 241.968083 
L 340.759895 239.084173 
L 344.47737 232.673951 
L 349.184685 225.281711 
L 354.960034 216.753664 
L 361.901462 206.948374 
L 370.117817 195.776976 
L 379.71151 183.23684 
L 385.04673 176.493565 
L 390.746971 169.474726 
L 396.807482 162.235324 
L 403.219873 154.839815 
L 409.963014 147.383032 
L 417.006777 139.978672 
L 424.30805 132.767394 
L 431.805093 125.920314 
L 439.424996 119.626572 
L 447.067823 114.109497 
L 454.621667 109.607001 
L 461.949126 106.373217 
L 468.893973 104.654154 
L 475.286868 104.696916 
L 480.945184 106.668943 
L 485.688533 110.686781 
L 489.3338 116.805307 
L 491.734549 124.915704 
L 492.76281 134.853183 
L 492.329452 146.327199 
L 490.415582 158.950643 
L 487.031266 172.31024 
L 482.2573 185.972279 
L 476.211937 199.51599 
L 469.056826 212.556998 
L 460.981961 224.778171 
L 452.193877 235.952137 
L 442.902352 245.940165 
L 433.310174 254.671348 
L 423.606823 262.125026 
L 413.962677 268.327877 
L 404.526982 273.345783 
L 395.422691 277.282287 
L 386.747955 280.26388 
L 378.573103 282.427897 
L 370.945898 283.90878 
L 363.892512 284.82896 
L 357.422371 285.294898 
L 351.531597 285.396498 
L 346.206306 285.208644 
L 341.425322 284.793295 
L 337.162367 284.20145 
L 333.387825 283.474751 
L 330.070162 282.646715 
L 327.177056 281.743838 
L 324.67632 280.786324 
L 322.536665 279.788873 
L 320.728072 278.761824 
L 319.222625 277.711012 
L 317.994002 276.639568 
L 317.019043 275.546879 
L 316.275918 274.430944 
L 315.746233 273.287061 
L 315.413811 272.109071 
L 315.263797 270.890009 
L 315.285604 269.620794 
L 315.469796 268.291797 
L 315.808329 266.892852 
L 316.932568 263.837322 
L 318.64014 260.35262 
L 320.94426 256.321504 
L 323.883579 251.611809 
L 329.639678 242.932924 
L 337.328381 231.758836 
L 351.455454 211.677227 
L 365.805743 191.719161 
L 377.559446 175.809938 
L 384.163565 167.088915 
L 391.272477 157.908915 
L 398.894829 148.331905 
L 407.023528 138.466675 
L 415.638998 128.453031 
L 424.703816 118.472112 
L 434.153501 108.755656 
L 443.907494 99.567156 
L 453.841528 91.253221 
L 463.80992 84.203012 
L 473.61676 78.868777 
L 483.031996 75.715654 
L 491.788391 75.192046 
L 499.592456 77.64151 
L 506.137274 83.332066 
L 511.13458 92.291657 
L 514.316106 104.423687 
L 515.476848 119.385824 
L 514.481806 136.658975 
L 511.285121 155.54969 
L 505.941436 175.269979 
L 498.601939 195.040424 
L 489.495543 214.130718 
L 478.917654 231.927262 
L 467.200863 248.005845 
L 454.687443 262.129416 
L 441.706881 274.206176 
L 428.563668 284.24765 
L 415.523574 292.352627 
L 402.812431 298.683316 
L 390.610195 303.457364 
L 379.048726 306.92399 
L 368.21666 309.332382 
L 358.16408 310.907635 
L 348.909453 311.837397 
L 340.448342 312.275383 
L 332.759915 312.349425 
L 325.808968 312.163271 
L 319.553217 311.808376 
L 308.924061 310.876817 
L 296.864065 309.692532 
L 290.777896 309.415691 
L 288.169373 309.485022 
L 285.789942 309.706667 
L 283.5979 310.087973 
L 281.555532 310.634584 
L 279.626446 311.351622 
L 277.778707 312.244041 
L 275.982331 313.317099 
L 274.208495 314.576131 
L 272.431457 316.027937 
L 270.627023 317.68054 
L 266.842483 321.623828 
L 262.679335 326.49371 
L 257.969381 332.400396 
L 249.514059 343.493484 
L 225.466084 375.429208 
L 214.721082 389.277253 
L 202.389995 404.650702 
L 195.61061 412.825148 
L 188.425509 421.234655 
L 180.849309 429.773804 
L 172.912346 438.292078 
L 164.663028 446.597907 
L 156.172634 454.456763 
L 147.538562 461.599041 
L 138.879693 467.729392 
L 130.352941 472.533265 
L 122.128603 475.692181 
L 114.4078 476.901251 
L 107.405959 475.902831 
L 101.351616 472.465302 
L 96.465745 466.512832 
L 92.958678 458.041929 
L 91.010092 447.206196 
L 90.75231 434.306388 
L 92.259856 419.77858 
L 95.536939 404.15389 
L 100.518595 387.993922 
L 107.074964 371.848811 
L 115.021113 356.234221 
L 124.128614 341.59408 
L 134.141411 328.260819 
L 144.793602 316.444965 
L 155.82584 306.244034 
L 166.995097 297.662242 
L 178.090735 290.612445 
L 188.932249 284.961411 
L 199.378329 280.55162 
L 209.319253 277.224896 
L 218.676018 274.828411 
L 227.396397 273.215613 
L 235.449174 272.244536 
L 242.827478 271.785301 
L 249.536829 271.717306 
L 255.598768 271.938412 
L 261.043518 272.361462 
L 265.90897 272.917975 
L 274.07094 274.224402 
L 280.43471 275.559897 
L 287.344675 277.284934 
L 294.166186 278.989617 
L 295.880286 279.247558 
L 297.250619 279.280271 
L 298.392157 279.098899 
L 299.396981 278.7092 
L 300.339976 278.109341 
L 301.284122 277.288739 
L 302.822347 275.59592 
L 305.372183 272.277869 
L 309.999308 265.723775 
L 321.390644 249.015533 
L 358.989446 193.614714 
L 371.820356 175.137587 
L 379.156636 164.770162 
L 387.154933 153.669089 
L 395.841716 141.892825 
L 405.230685 129.548387 
L 415.317596 116.795014 
L 426.073107 103.852298 
L 437.444174 90.992706 
L 449.335594 78.601276 
L 461.607484 67.175539 
L 474.06588 57.334439 
L 486.445587 49.797266 
L 498.414663 45.311039 
L 509.581088 44.588565 
L 519.503947 48.219479 
L 527.723726 56.607593 
L 533.790708 69.859057 
L 537.302769 87.730019 
L 537.963722 109.560188 
L 535.59167 134.404499 
L 530.179643 161.039871 
L 521.867061 188.160724 
L 510.951455 214.53511 
L 497.844246 239.094547 
L 483.03579 261.073849 
L 467.044947 280.039007 
L 450.37599 295.866022 
L 433.484409 308.67058 
L 416.758105 318.690296 
L 400.517585 326.227083 
L 385.003262 331.655667 
L 370.389499 335.38493 
L 356.779015 337.800266 
L 344.221434 339.222038 
L 332.726028 339.903452 
L 322.271302 340.049537 
L 312.815522 339.836919 
L 304.298529 339.414232 
L 278.113867 337.765654 
L 273.132879 337.699567 
L 268.618739 337.848104 
L 264.499687 338.228211 
L 260.708358 338.851767 
L 257.181205 339.72734 
L 253.862131 340.859199 
L 253.862131 340.859199 
" clip-path="url(#p89a8b4ba71)" style="fill: none; stroke-dasharray: 12.95,5.6; stroke-dashoffset: 0; stroke: #ff0000; stroke-opacity: 0.8; stroke-width: 3.5"/>
   </g>
   <g id="legend_1">
    <g id="line2d_29">
     <path d="M 49.807813 33.987344 
L 59.807813 33.987344 
L 69.807813 33.987344 
" style="fill: none; stroke: #000000; stroke-opacity: 0.3; stroke-width: 7; stroke-linecap: round"/>
    </g>
    <g id="text_16">
     <!-- True/Underlying model -->
     <g style="fill: #262626" transform="translate(77.807813 37.487344) scale(0.1 -0.1)">
      <defs>
       <path id="ArialMT-54" d="M 1659 0 
L 1659 4041 
L 150 4041 
L 150 4581 
L 3781 4581 
L 3781 4041 
L 2266 4041 
L 2266 0 
L 1659 0 
z
" transform="scale(0.015625)"/>
       <path id="ArialMT-75" d="M 2597 0 
L 2597 488 
Q 2209 -75 1544 -75 
Q 1250 -75 995 37 
Q 741 150 617 320 
Q 494 491 444 738 
Q 409 903 409 1263 
L 409 3319 
L 972 3319 
L 972 1478 
Q 972 1038 1006 884 
Q 1059 663 1231 536 
Q 1403 409 1656 409 
Q 1909 409 2131 539 
Q 2353 669 2445 892 
Q 2538 1116 2538 1541 
L 2538 3319 
L 3100 3319 
L 3100 0 
L 2597 0 
z
" transform="scale(0.015625)"/>
       <path id="ArialMT-2f" d="M 0 -78 
L 1328 4659 
L 1778 4659 
L 453 -78 
L 0 -78 
z
" transform="scale(0.015625)"/>
       <path id="ArialMT-55" d="M 3500 4581 
L 4106 4581 
L 4106 1934 
Q 4106 1244 3950 837 
Q 3794 431 3386 176 
Q 2978 -78 2316 -78 
Q 1672 -78 1262 144 
Q 853 366 678 786 
Q 503 1206 503 1934 
L 503 4581 
L 1109 4581 
L 1109 1938 
Q 1109 1341 1220 1058 
Q 1331 775 1601 622 
Q 1872 469 2263 469 
Q 2931 469 3215 772 
Q 3500 1075 3500 1938 
L 3500 4581 
z
" transform="scale(0.015625)"/>
       <path id="ArialMT-6e" d="M 422 0 
L 422 3319 
L 928 3319 
L 928 2847 
Q 1294 3394 1984 3394 
Q 2284 3394 2536 3286 
Q 2788 3178 2913 3003 
Q 3038 2828 3088 2588 
Q 3119 2431 3119 2041 
L 3119 0 
L 2556 0 
L 2556 2019 
Q 2556 2363 2490 2533 
Q 2425 2703 2258 2804 
Q 2091 2906 1866 2906 
Q 1506 2906 1245 2678 
Q 984 2450 984 1813 
L 984 0 
L 422 0 
z
" transform="scale(0.015625)"/>
       <path id="ArialMT-64" d="M 2575 0 
L 2575 419 
Q 2259 -75 1647 -75 
Q 1250 -75 917 144 
Q 584 363 401 755 
Q 219 1147 219 1656 
Q 219 2153 384 2558 
Q 550 2963 881 3178 
Q 1213 3394 1622 3394 
Q 1922 3394 2156 3267 
Q 2391 3141 2538 2938 
L 2538 4581 
L 3097 4581 
L 3097 0 
L 2575 0 
z
M 797 1656 
Q 797 1019 1065 703 
Q 1334 388 1700 388 
Q 2069 388 2326 689 
Q 2584 991 2584 1609 
Q 2584 2291 2321 2609 
Q 2059 2928 1675 2928 
Q 1300 2928 1048 2622 
Q 797 2316 797 1656 
z
" transform="scale(0.015625)"/>
       <path id="ArialMT-6c" d="M 409 0 
L 409 4581 
L 972 4581 
L 972 0 
L 409 0 
z
" transform="scale(0.015625)"/>
       <path id="ArialMT-79" d="M 397 -1278 
L 334 -750 
Q 519 -800 656 -800 
Q 844 -800 956 -737 
Q 1069 -675 1141 -563 
Q 1194 -478 1313 -144 
Q 1328 -97 1363 -6 
L 103 3319 
L 709 3319 
L 1400 1397 
Q 1534 1031 1641 628 
Q 1738 1016 1872 1384 
L 2581 3319 
L 3144 3319 
L 1881 -56 
Q 1678 -603 1566 -809 
Q 1416 -1088 1222 -1217 
Q 1028 -1347 759 -1347 
Q 597 -1347 397 -1278 
z
" transform="scale(0.015625)"/>
       <path id="ArialMT-67" d="M 319 -275 
L 866 -356 
Q 900 -609 1056 -725 
Q 1266 -881 1628 -881 
Q 2019 -881 2231 -725 
Q 2444 -569 2519 -288 
Q 2563 -116 2559 434 
Q 2191 0 1641 0 
Q 956 0 581 494 
Q 206 988 206 1678 
Q 206 2153 378 2554 
Q 550 2956 876 3175 
Q 1203 3394 1644 3394 
Q 2231 3394 2613 2919 
L 2613 3319 
L 3131 3319 
L 3131 450 
Q 3131 -325 2973 -648 
Q 2816 -972 2473 -1159 
Q 2131 -1347 1631 -1347 
Q 1038 -1347 672 -1080 
Q 306 -813 319 -275 
z
M 784 1719 
Q 784 1066 1043 766 
Q 1303 466 1694 466 
Q 2081 466 2343 764 
Q 2606 1063 2606 1700 
Q 2606 2309 2336 2618 
Q 2066 2928 1684 2928 
Q 1309 2928 1046 2623 
Q 784 2319 784 1719 
z
" transform="scale(0.015625)"/>
       <path id="ArialMT-6d" d="M 422 0 
L 422 3319 
L 925 3319 
L 925 2853 
Q 1081 3097 1340 3245 
Q 1600 3394 1931 3394 
Q 2300 3394 2536 3241 
Q 2772 3088 2869 2813 
Q 3263 3394 3894 3394 
Q 4388 3394 4653 3120 
Q 4919 2847 4919 2278 
L 4919 0 
L 4359 0 
L 4359 2091 
Q 4359 2428 4304 2576 
Q 4250 2725 4106 2815 
Q 3963 2906 3769 2906 
Q 3419 2906 3187 2673 
Q 2956 2441 2956 1928 
L 2956 0 
L 2394 0 
L 2394 2156 
Q 2394 2531 2256 2718 
Q 2119 2906 1806 2906 
Q 1569 2906 1367 2781 
Q 1166 2656 1075 2415 
Q 984 2175 984 1722 
L 984 0 
L 422 0 
z
" transform="scale(0.015625)"/>
      </defs>
      <use xlink:href="#ArialMT-54"/>
      <use xlink:href="#ArialMT-72" transform="translate(57.333984 0)"/>
      <use xlink:href="#ArialMT-75" transform="translate(90.634766 0)"/>
      <use xlink:href="#ArialMT-65" transform="translate(146.25 0)"/>
      <use xlink:href="#ArialMT-2f" transform="translate(201.865234 0)"/>
      <use xlink:href="#ArialMT-55" transform="translate(229.648438 0)"/>
      <use xlink:href="#ArialMT-6e" transform="translate(301.865234 0)"/>
      <use xlink:href="#ArialMT-64" transform="translate(357.480469 0)"/>
      <use xlink:href="#ArialMT-65" transform="translate(413.095703 0)"/>
      <use xlink:href="#ArialMT-72" transform="translate(468.710938 0)"/>
      <use xlink:href="#ArialMT-6c" transform="translate(502.011719 0)"/>
      <use xlink:href="#ArialMT-79" transform="translate(524.228516 0)"/>
      <use xlink:href="#ArialMT-69" transform="translate(574.228516 0)"/>
      <use xlink:href="#ArialMT-6e" transform="translate(596.445312 0)"/>
      <use xlink:href="#ArialMT-67" transform="translate(652.060547 0)"/>
      <use xlink:href="#ArialMT-20" transform="translate(707.675781 0)"/>
      <use xlink:href="#ArialMT-6d" transform="translate(735.458984 0)"/>
      <use xlink:href="#ArialMT-6f" transform="translate(818.759766 0)"/>
      <use xlink:href="#ArialMT-64" transform="translate(874.375 0)"/>
      <use xlink:href="#ArialMT-65" transform="translate(929.990234 0)"/>
      <use xlink:href="#ArialMT-6c" transform="translate(985.605469 0)"/>
     </g>
    </g>
    <g id="line2d_30">
     <path d="M 49.807813 48.371719 
L 59.807813 48.371719 
L 69.807813 48.371719 
" style="fill: none; stroke-dasharray: 12.95,5.6; stroke-dashoffset: 0; stroke: #ff0000; stroke-opacity: 0.8; stroke-width: 3.5"/>
    </g>
    <g id="text_17">
     <!-- AutoSINDy -->
     <g style="fill: #262626" transform="translate(77.807813 51.871719) scale(0.1 -0.1)">
      <defs>
       <path id="ArialMT-41" d="M -9 0 
L 1750 4581 
L 2403 4581 
L 4278 0 
L 3588 0 
L 3053 1388 
L 1138 1388 
L 634 0 
L -9 0 
z
M 1313 1881 
L 2866 1881 
L 2388 3150 
Q 2169 3728 2063 4100 
Q 1975 3659 1816 3225 
L 1313 1881 
z
" transform="scale(0.015625)"/>
       <path id="ArialMT-53" d="M 288 1472 
L 859 1522 
Q 900 1178 1048 958 
Q 1197 738 1509 602 
Q 1822 466 2213 466 
Q 2559 466 2825 569 
Q 3091 672 3220 851 
Q 3350 1031 3350 1244 
Q 3350 1459 3225 1620 
Q 3100 1781 2813 1891 
Q 2628 1963 1997 2114 
Q 1366 2266 1113 2400 
Q 784 2572 623 2826 
Q 463 3081 463 3397 
Q 463 3744 659 4045 
Q 856 4347 1234 4503 
Q 1613 4659 2075 4659 
Q 2584 4659 2973 4495 
Q 3363 4331 3572 4012 
Q 3781 3694 3797 3291 
L 3216 3247 
Q 3169 3681 2898 3903 
Q 2628 4125 2100 4125 
Q 1550 4125 1298 3923 
Q 1047 3722 1047 3438 
Q 1047 3191 1225 3031 
Q 1400 2872 2139 2705 
Q 2878 2538 3153 2413 
Q 3553 2228 3743 1945 
Q 3934 1663 3934 1294 
Q 3934 928 3725 604 
Q 3516 281 3123 101 
Q 2731 -78 2241 -78 
Q 1619 -78 1198 103 
Q 778 284 539 648 
Q 300 1013 288 1472 
z
" transform="scale(0.015625)"/>
       <path id="ArialMT-49" d="M 597 0 
L 597 4581 
L 1203 4581 
L 1203 0 
L 597 0 
z
" transform="scale(0.015625)"/>
       <path id="ArialMT-4e" d="M 488 0 
L 488 4581 
L 1109 4581 
L 3516 984 
L 3516 4581 
L 4097 4581 
L 4097 0 
L 3475 0 
L 1069 3600 
L 1069 0 
L 488 0 
z
" transform="scale(0.015625)"/>
       <path id="ArialMT-44" d="M 494 0 
L 494 4581 
L 2072 4581 
Q 2606 4581 2888 4516 
Q 3281 4425 3559 4188 
Q 3922 3881 4101 3404 
Q 4281 2928 4281 2316 
Q 4281 1794 4159 1391 
Q 4038 988 3847 723 
Q 3656 459 3429 307 
Q 3203 156 2883 78 
Q 2563 0 2147 0 
L 494 0 
z
M 1100 541 
L 2078 541 
Q 2531 541 2789 625 
Q 3047 709 3200 863 
Q 3416 1078 3536 1442 
Q 3656 1806 3656 2325 
Q 3656 3044 3420 3430 
Q 3184 3816 2847 3947 
Q 2603 4041 2063 4041 
L 1100 4041 
L 1100 541 
z
" transform="scale(0.015625)"/>
      </defs>
      <use xlink:href="#ArialMT-41"/>
      <use xlink:href="#ArialMT-75" transform="translate(66.699219 0)"/>
      <use xlink:href="#ArialMT-74" transform="translate(122.314453 0)"/>
      <use xlink:href="#ArialMT-6f" transform="translate(150.097656 0)"/>
      <use xlink:href="#ArialMT-53" transform="translate(205.712891 0)"/>
      <use xlink:href="#ArialMT-49" transform="translate(272.412109 0)"/>
      <use xlink:href="#ArialMT-4e" transform="translate(300.195312 0)"/>
      <use xlink:href="#ArialMT-44" transform="translate(372.412109 0)"/>
      <use xlink:href="#ArialMT-79" transform="translate(444.628906 0)"/>
     </g>
    </g>
    <g id="line2d_31">
     <path d="M 49.807813 62.756094 
L 59.807813 62.756094 
L 69.807813 62.756094 
" style="fill: none; stroke-dasharray: 3.5,5.775; stroke-dashoffset: 0; stroke: #008000; stroke-opacity: 0.8; stroke-width: 3.5"/>
    </g>
    <g id="text_18">
     <!-- Standard SINDy -->
     <g style="fill: #262626" transform="translate(77.807813 66.256094) scale(0.1 -0.1)">
      <use xlink:href="#ArialMT-53"/>
      <use xlink:href="#ArialMT-74" transform="translate(66.699219 0)"/>
      <use xlink:href="#ArialMT-61" transform="translate(94.482422 0)"/>
      <use xlink:href="#ArialMT-6e" transform="translate(150.097656 0)"/>
      <use xlink:href="#ArialMT-64" transform="translate(205.712891 0)"/>
      <use xlink:href="#ArialMT-61" transform="translate(261.328125 0)"/>
      <use xlink:href="#ArialMT-72" transform="translate(316.943359 0)"/>
      <use xlink:href="#ArialMT-64" transform="translate(350.244141 0)"/>
      <use xlink:href="#ArialMT-20" transform="translate(405.859375 0)"/>
      <use xlink:href="#ArialMT-53" transform="translate(433.642578 0)"/>
      <use xlink:href="#ArialMT-49" transform="translate(500.341797 0)"/>
      <use xlink:href="#ArialMT-4e" transform="translate(528.125 0)"/>
      <use xlink:href="#ArialMT-44" transform="translate(600.341797 0)"/>
      <use xlink:href="#ArialMT-79" transform="translate(672.558594 0)"/>
     </g>
    </g>
    <g id="line2d_32">
     <path d="M 49.807813 77.140469 
L 59.807813 77.140469 
L 69.807813 77.140469 
" style="fill: none; stroke-dasharray: 22.4,5.6,3.5,5.6; stroke-dashoffset: 0; stroke: #0000ff; stroke-opacity: 0.8; stroke-width: 3.5"/>
    </g>
    <g id="text_19">
     <!-- Standard PySR -->
     <g style="fill: #262626" transform="translate(77.807813 80.640469) scale(0.1 -0.1)">
      <defs>
       <path id="ArialMT-52" d="M 503 0 
L 503 4581 
L 2534 4581 
Q 3147 4581 3465 4457 
Q 3784 4334 3975 4021 
Q 4166 3709 4166 3331 
Q 4166 2844 3850 2509 
Q 3534 2175 2875 2084 
Q 3116 1969 3241 1856 
Q 3506 1613 3744 1247 
L 4541 0 
L 3778 0 
L 3172 953 
Q 2906 1366 2734 1584 
Q 2563 1803 2427 1890 
Q 2291 1978 2150 2013 
Q 2047 2034 1813 2034 
L 1109 2034 
L 1109 0 
L 503 0 
z
M 1109 2559 
L 2413 2559 
Q 2828 2559 3062 2645 
Q 3297 2731 3419 2920 
Q 3541 3109 3541 3331 
Q 3541 3656 3305 3865 
Q 3069 4075 2559 4075 
L 1109 4075 
L 1109 2559 
z
" transform="scale(0.015625)"/>
      </defs>
      <use xlink:href="#ArialMT-53"/>
      <use xlink:href="#ArialMT-74" transform="translate(66.699219 0)"/>
      <use xlink:href="#ArialMT-61" transform="translate(94.482422 0)"/>
      <use xlink:href="#ArialMT-6e" transform="translate(150.097656 0)"/>
      <use xlink:href="#ArialMT-64" transform="translate(205.712891 0)"/>
      <use xlink:href="#ArialMT-61" transform="translate(261.328125 0)"/>
      <use xlink:href="#ArialMT-72" transform="translate(316.943359 0)"/>
      <use xlink:href="#ArialMT-64" transform="translate(350.244141 0)"/>
      <use xlink:href="#ArialMT-20" transform="translate(405.859375 0)"/>
      <use xlink:href="#ArialMT-50" transform="translate(433.642578 0)"/>
      <use xlink:href="#ArialMT-79" transform="translate(500.341797 0)"/>
      <use xlink:href="#ArialMT-53" transform="translate(550.341797 0)"/>
      <use xlink:href="#ArialMT-52" transform="translate(617.041016 0)"/>
     </g>
    </g>
   </g>
  </g>
 </g>
 <defs>
  <clipPath id="p89a8b4ba71">
   <rect x="40.807813" y="21.207656" width="520.83" height="514.38"/>
  </clipPath>
 </defs>
</svg>
