<?xml version="1.0" encoding="utf-8" standalone="no"?>
<!DOCTYPE svg PUBLIC "-//W3C//DTD SVG 1.1//EN"
  "http://www.w3.org/Graphics/SVG/1.1/DTD/svg11.dtd">
<svg xmlns:xlink="http://www.w3.org/1999/xlink" width="867.640312pt" height="284.863125pt" viewBox="0 0 867.640312 284.863125" xmlns="http://www.w3.org/2000/svg" version="1.1">
 <metadata>
  <rdf:RDF xmlns:dc="http://purl.org/dc/elements/1.1/" xmlns:cc="http://creativecommons.org/ns#" xmlns:rdf="http://www.w3.org/1999/02/22-rdf-syntax-ns#">
   <cc:Work>
    <dc:type rdf:resource="http://purl.org/dc/dcmitype/StillImage"/>
    <dc:date>2026-04-03T17:06:04.700671</dc:date>
    <dc:format>image/svg+xml</dc:format>
    <dc:creator>
     <cc:Agent>
      <dc:title>Matplotlib v3.10.7, https://matplotlib.org/</dc:title>
     </cc:Agent>
    </dc:creator>
   </cc:Work>
  </rdf:RDF>
 </metadata>
 <defs>
  <style type="text/css">*{stroke-linejoin: round; stroke-linecap: butt}</style>
 </defs>
 <g id="figure_1">
  <g id="patch_1">
   <path d="M 0 284.863125 
L 867.640313 284.863125 
L 867.640313 0 
L 0 0 
z
" style="fill: #ffffff"/>
  </g>
  <g id="axes_1">
   <g id="patch_2">
    <path d="M 60.459063 137.5575 
L 853.560313 137.5575 
L 853.560313 41.62375 
L 60.459063 41.62375 
z
" style="fill: #ffffff"/>
   </g>
   <g id="matplotlib.axis_1">
    <g id="xtick_1">
     <g id="line2d_1">
      <path d="M 96.509119 137.5575 
L 96.509119 41.62375 
" clip-path="url(#p81ca463c7d)" style="fill: none; stroke: #cccccc; stroke-width: 0.8; stroke-linecap: round"/>
     </g>
    </g>
    <g id="xtick_2">
     <g id="line2d_2">
      <path d="M 240.709347 137.5575 
L 240.709347 41.62375 
" clip-path="url(#p81ca463c7d)" style="fill: none; stroke: #cccccc; stroke-width: 0.8; stroke-linecap: round"/>
     </g>
    </g>
    <g id="xtick_3">
     <g id="line2d_3">
      <path d="M 384.909574 137.5575 
L 384.909574 41.62375 
" clip-path="url(#p81ca463c7d)" style="fill: none; stroke: #cccccc; stroke-width: 0.8; stroke-linecap: round"/>
     </g>
    </g>
    <g id="xtick_4">
     <g id="line2d_4">
      <path d="M 529.109801 137.5575 
L 529.109801 41.62375 
" clip-path="url(#p81ca463c7d)" style="fill: none; stroke: #cccccc; stroke-width: 0.8; stroke-linecap: round"/>
     </g>
    </g>
    <g id="xtick_5">
     <g id="line2d_5">
      <path d="M 673.310028 137.5575 
L 673.310028 41.62375 
" clip-path="url(#p81ca463c7d)" style="fill: none; stroke: #cccccc; stroke-width: 0.8; stroke-linecap: round"/>
     </g>
    </g>
    <g id="xtick_6">
     <g id="line2d_6">
      <path d="M 817.510256 137.5575 
L 817.510256 41.62375 
" clip-path="url(#p81ca463c7d)" style="fill: none; stroke: #cccccc; stroke-width: 0.8; stroke-linecap: round"/>
     </g>
    </g>
   </g>
   <g id="matplotlib.axis_2">
    <g id="ytick_1">
     <g id="line2d_7">
      <path d="M 60.459063 131.623497 
L 853.560313 131.623497 
" clip-path="url(#p81ca463c7d)" style="fill: none; stroke: #cccccc; stroke-width: 0.8; stroke-linecap: round"/>
     </g>
     <g id="text_1">
      <!-- −0.25 -->
      <g style="fill: #262626" transform="translate(22.81375 135.422716) scale(0.1 -0.1)">
       <defs>
        <path id="DejaVuSerif-2212" d="M 678 2259 
L 4684 2259 
L 4684 1753 
L 678 1753 
L 678 2259 
z
" transform="scale(0.015625)"/>
        <path id="DejaVuSerif-30" d="M 2034 219 
Q 2513 219 2750 744 
Q 2988 1269 2988 2328 
Q 2988 3391 2750 3916 
Q 2513 4441 2034 4441 
Q 1556 4441 1318 3916 
Q 1081 3391 1081 2328 
Q 1081 1269 1318 744 
Q 1556 219 2034 219 
z
M 2034 -91 
Q 1275 -91 848 546 
Q 422 1184 422 2328 
Q 422 3475 848 4112 
Q 1275 4750 2034 4750 
Q 2797 4750 3222 4112 
Q 3647 3475 3647 2328 
Q 3647 1184 3222 546 
Q 2797 -91 2034 -91 
z
" transform="scale(0.015625)"/>
        <path id="DejaVuSerif-2e" d="M 603 325 
Q 603 500 722 622 
Q 841 744 1019 744 
Q 1191 744 1312 622 
Q 1434 500 1434 325 
Q 1434 153 1312 31 
Q 1191 -91 1019 -91 
Q 841 -91 722 29 
Q 603 150 603 325 
z
" transform="scale(0.015625)"/>
        <path id="DejaVuSerif-32" d="M 819 3553 
L 469 3553 
L 469 4384 
Q 803 4563 1142 4656 
Q 1481 4750 1806 4750 
Q 2534 4750 2956 4397 
Q 3378 4044 3378 3438 
Q 3378 2753 2422 1800 
Q 2347 1728 2309 1691 
L 1131 513 
L 3078 513 
L 3078 1088 
L 3444 1088 
L 3444 0 
L 434 0 
L 434 341 
L 1850 1753 
Q 2319 2222 2519 2614 
Q 2719 3006 2719 3438 
Q 2719 3909 2473 4175 
Q 2228 4441 1797 4441 
Q 1350 4441 1106 4219 
Q 863 3997 819 3553 
z
" transform="scale(0.015625)"/>
        <path id="DejaVuSerif-35" d="M 3219 4666 
L 3219 4153 
L 1081 4153 
L 1081 2816 
Q 1244 2928 1461 2984 
Q 1678 3041 1947 3041 
Q 2703 3041 3140 2622 
Q 3578 2203 3578 1478 
Q 3578 738 3136 323 
Q 2694 -91 1894 -91 
Q 1572 -91 1234 -12 
Q 897 66 544 225 
L 544 1131 
L 897 1131 
Q 925 688 1179 453 
Q 1434 219 1894 219 
Q 2388 219 2653 544 
Q 2919 869 2919 1478 
Q 2919 2084 2655 2407 
Q 2391 2731 1894 2731 
Q 1613 2731 1398 2631 
Q 1184 2531 1019 2322 
L 750 2322 
L 750 4666 
L 3219 4666 
z
" transform="scale(0.015625)"/>
       </defs>
       <use xlink:href="#DejaVuSerif-2212"/>
       <use xlink:href="#DejaVuSerif-30" transform="translate(83.789062 0)"/>
       <use xlink:href="#DejaVuSerif-2e" transform="translate(147.412109 0)"/>
       <use xlink:href="#DejaVuSerif-32" transform="translate(179.199219 0)"/>
       <use xlink:href="#DejaVuSerif-35" transform="translate(242.822266 0)"/>
      </g>
     </g>
    </g>
    <g id="ytick_2">
     <g id="line2d_8">
      <path d="M 60.459063 104.609633 
L 853.560313 104.609633 
" clip-path="url(#p81ca463c7d)" style="fill: none; stroke: #cccccc; stroke-width: 0.8; stroke-linecap: round"/>
     </g>
     <g id="text_2">
      <!-- 0.00 -->
      <g style="fill: #262626" transform="translate(31.193438 108.408851) scale(0.1 -0.1)">
       <use xlink:href="#DejaVuSerif-30"/>
       <use xlink:href="#DejaVuSerif-2e" transform="translate(63.623047 0)"/>
       <use xlink:href="#DejaVuSerif-30" transform="translate(95.410156 0)"/>
       <use xlink:href="#DejaVuSerif-30" transform="translate(159.033203 0)"/>
      </g>
     </g>
    </g>
    <g id="ytick_3">
     <g id="line2d_9">
      <path d="M 60.459063 77.595768 
L 853.560313 77.595768 
" clip-path="url(#p81ca463c7d)" style="fill: none; stroke: #cccccc; stroke-width: 0.8; stroke-linecap: round"/>
     </g>
     <g id="text_3">
      <!-- 0.25 -->
      <g style="fill: #262626" transform="translate(31.193438 81.394987) scale(0.1 -0.1)">
       <use xlink:href="#DejaVuSerif-30"/>
       <use xlink:href="#DejaVuSerif-2e" transform="translate(63.623047 0)"/>
       <use xlink:href="#DejaVuSerif-32" transform="translate(95.410156 0)"/>
       <use xlink:href="#DejaVuSerif-35" transform="translate(159.033203 0)"/>
      </g>
     </g>
    </g>
    <g id="ytick_4">
     <g id="line2d_10">
      <path d="M 60.459063 50.581903 
L 853.560313 50.581903 
" clip-path="url(#p81ca463c7d)" style="fill: none; stroke: #cccccc; stroke-width: 0.8; stroke-linecap: round"/>
     </g>
     <g id="text_4">
      <!-- 0.50 -->
      <g style="fill: #262626" transform="translate(31.193438 54.381122) scale(0.1 -0.1)">
       <use xlink:href="#DejaVuSerif-30"/>
       <use xlink:href="#DejaVuSerif-2e" transform="translate(63.623047 0)"/>
       <use xlink:href="#DejaVuSerif-35" transform="translate(95.410156 0)"/>
       <use xlink:href="#DejaVuSerif-30" transform="translate(159.033203 0)"/>
      </g>
     </g>
    </g>
    <g id="text_5">
     <!-- $x0$ -->
     <g style="fill: #262626" transform="translate(16.318125 96.970625) rotate(-90) scale(0.12 -0.12)">
      <defs>
       <path id="DejaVuSans-Oblique-78" d="M 3841 3500 
L 2234 1784 
L 3219 0 
L 2559 0 
L 1819 1388 
L 531 0 
L -166 0 
L 1556 1844 
L 641 3500 
L 1300 3500 
L 1972 2234 
L 3144 3500 
L 3841 3500 
z
" transform="scale(0.015625)"/>
       <path id="DejaVuSans-30" d="M 2034 4250 
Q 1547 4250 1301 3770 
Q 1056 3291 1056 2328 
Q 1056 1369 1301 889 
Q 1547 409 2034 409 
Q 2525 409 2770 889 
Q 3016 1369 3016 2328 
Q 3016 3291 2770 3770 
Q 2525 4250 2034 4250 
z
M 2034 4750 
Q 2819 4750 3233 4129 
Q 3647 3509 3647 2328 
Q 3647 1150 3233 529 
Q 2819 -91 2034 -91 
Q 1250 -91 836 529 
Q 422 1150 422 2328 
Q 422 3509 836 4129 
Q 1250 4750 2034 4750 
z
" transform="scale(0.015625)"/>
      </defs>
      <use xlink:href="#DejaVuSans-Oblique-78" transform="translate(0 0.78125)"/>
      <use xlink:href="#DejaVuSans-30" transform="translate(59.179688 0.78125)"/>
     </g>
    </g>
   </g>
   <g id="line2d_11">
    <path d="M 96.509119 50.581903 
L 100.843795 49.103987 
L 105.178472 47.916787 
L 109.513148 47.017007 
L 113.847824 46.400137 
L 118.1825 46.060311 
L 122.517176 45.99078 
L 126.851853 46.18396 
L 131.186529 46.631437 
L 135.521205 47.32396 
L 139.855881 48.251445 
L 144.190557 49.402976 
L 148.525233 50.7668 
L 152.85991 52.330334 
L 158.639478 54.702393 
L 164.419046 57.371828 
L 170.198614 60.309237 
L 175.978182 63.480695 
L 183.202643 67.719853 
L 191.871995 73.120298 
L 201.986239 79.708986 
L 232.328973 99.681006 
L 240.998325 105.024294 
L 248.222785 109.233753 
L 255.447246 113.178257 
L 262.671706 116.823381 
L 268.451274 119.504822 
L 274.230842 121.965058 
L 280.010411 124.194218 
L 285.789979 126.182652 
L 291.569547 127.923419 
L 297.349115 129.411914 
L 303.128683 130.645856 
L 308.908252 131.625285 
L 314.68782 132.352565 
L 320.467388 132.832381 
L 326.246956 133.071741 
L 332.026525 133.079438 
L 337.806093 132.862878 
L 343.585661 132.432631 
L 349.365229 131.800649 
L 355.144797 130.979706 
L 362.369258 129.708597 
L 369.593718 128.191912 
L 376.818178 126.460031 
L 385.487531 124.143458 
L 395.601775 121.184288 
L 408.605804 117.106436 
L 443.283213 106.065334 
L 454.842349 102.709107 
L 464.956594 100.026649 
L 473.625946 97.957456 
L 482.295298 96.127629 
L 490.964651 94.555619 
L 498.189111 93.451132 
L 505.413571 92.536947 
L 512.638032 91.813072 
L 519.862492 91.280099 
L 527.086952 90.935994 
L 535.756305 90.765516 
L 544.425657 90.848048 
L 553.095009 91.167533 
L 561.764362 91.703833 
L 571.878606 92.573211 
L 581.99285 93.669237 
L 593.551987 95.145314 
L 608.000907 97.232447 
L 632.564072 101.066112 
L 654.237453 104.353101 
L 668.686374 106.319124 
L 681.690402 107.862075 
L 693.249539 109.017996 
L 704.808675 109.948243 
L 716.367812 110.641033 
L 727.926948 111.094434 
L 739.486085 111.314601 
L 751.045221 111.311655 
L 762.604358 111.102391 
L 775.608386 110.647589 
L 790.057307 109.915214 
L 807.396011 108.802332 
L 817.510256 108.073541 
L 817.510256 108.073541 
" clip-path="url(#p81ca463c7d)" style="fill: none; stroke: #000000; stroke-opacity: 0.4; stroke-width: 6; stroke-linecap: round"/>
   </g>
   <g id="patch_3">
    <path d="M 60.459063 137.5575 
L 60.459063 41.62375 
" style="fill: none; stroke: #cccccc; stroke-width: 0.8; stroke-linejoin: miter; stroke-linecap: square"/>
   </g>
   <g id="patch_4">
    <path d="M 853.560313 137.5575 
L 853.560313 41.62375 
" style="fill: none; stroke: #cccccc; stroke-width: 0.8; stroke-linejoin: miter; stroke-linecap: square"/>
   </g>
   <g id="patch_5">
    <path d="M 60.459063 137.5575 
L 853.560313 137.5575 
" style="fill: none; stroke: #cccccc; stroke-width: 0.8; stroke-linejoin: miter; stroke-linecap: square"/>
   </g>
   <g id="patch_6">
    <path d="M 60.459063 41.62375 
L 853.560313 41.62375 
" style="fill: none; stroke: #cccccc; stroke-width: 0.8; stroke-linejoin: miter; stroke-linecap: square"/>
   </g>
   <g id="line2d_12">
    <path d="M 96.509119 50.581903 
L 99.398903 49.620588 
L 102.288688 48.882887 
L 105.178472 48.331389 
L 109.513148 47.78587 
L 113.847824 47.498934 
L 119.627392 47.393585 
L 126.851853 47.552227 
L 135.521205 47.996208 
L 147.080341 48.843401 
L 160.08437 50.040725 
L 173.088398 51.473647 
L 184.647535 52.960251 
L 196.206671 54.674434 
L 206.320916 56.384771 
L 216.43516 58.314712 
L 226.549404 60.488758 
L 235.218757 62.561546 
L 243.888109 64.837326 
L 252.557461 67.323567 
L 261.226814 70.022622 
L 269.896166 72.929425 
L 280.010411 76.568807 
L 290.124655 80.449921 
L 301.683791 85.134201 
L 316.132712 91.264793 
L 347.920337 104.870562 
L 358.034582 108.90294 
L 366.703934 112.114035 
L 373.928394 114.563969 
L 381.152855 116.765023 
L 386.932423 118.323352 
L 392.711991 119.687197 
L 398.491559 120.847432 
L 404.271127 121.79891 
L 410.050696 122.540467 
L 415.830264 123.07492 
L 421.609832 123.409069 
L 427.3894 123.553693 
L 434.613861 123.490823 
L 441.838321 123.188244 
L 449.062781 122.668303 
L 457.732134 121.792556 
L 466.401486 120.681353 
L 476.51573 119.1394 
L 488.074867 117.123631 
L 501.078895 114.625518 
L 521.307384 110.475874 
L 547.315441 105.174035 
L 561.764362 102.465628 
L 573.323498 100.505541 
L 584.882635 98.780901 
L 594.996879 97.494711 
L 605.111123 96.435733 
L 615.225368 95.615519 
L 625.339612 95.039336 
L 635.453857 94.709555 
L 645.568101 94.622858 
L 655.682345 94.769754 
L 665.79659 95.135069 
L 677.355726 95.793011 
L 688.914863 96.669475 
L 701.918891 97.866914 
L 719.257596 99.70489 
L 774.163494 105.741695 
L 788.612415 107.020581 
L 803.061335 108.065565 
L 816.065364 108.781454 
L 817.510256 108.8473 
L 817.510256 108.8473 
" clip-path="url(#p81ca463c7d)" style="fill: none; stroke-dasharray: 3.5,5.775; stroke-dashoffset: 0; stroke: #008000; stroke-opacity: 0.8; stroke-width: 3.5"/>
   </g>
   <g id="line2d_13">
    <path d="M 96.509119 50.581903 
L 100.843795 49.122044 
L 105.178472 47.942314 
L 109.513148 47.042112 
L 113.847824 46.4191 
L 118.1825 46.069691 
L 122.517176 45.98905 
L 126.851853 46.171062 
L 131.186529 46.608333 
L 135.521205 47.292191 
L 139.855881 48.212684 
L 144.190557 49.358581 
L 148.525233 50.717373 
L 152.85991 52.275271 
L 158.639478 54.63596 
L 164.419046 57.284946 
L 170.198614 60.191191 
L 175.978182 63.320761 
L 183.202643 67.492197 
L 191.871995 72.790672 
L 203.431132 80.175187 
L 232.328973 98.832625 
L 240.998325 104.131529 
L 248.222785 108.335149 
L 255.447246 112.30242 
L 262.671706 115.996998 
L 268.451274 118.734595 
L 274.230842 121.262533 
L 280.010411 123.568079 
L 285.789979 125.640144 
L 291.569547 127.468938 
L 297.349115 129.047233 
L 303.128683 130.370516 
L 308.908252 131.436996 
L 314.68782 132.2476 
L 320.467388 132.805974 
L 326.246956 133.118481 
L 332.026525 133.194207 
L 337.806093 133.043917 
L 343.585661 132.675884 
L 349.365229 132.102137 
L 355.144797 131.335849 
L 362.369258 130.128309 
L 369.593718 128.669858 
L 376.818178 126.990349 
L 385.487531 124.727434 
L 395.601775 121.818386 
L 407.160912 118.241504 
L 450.507673 104.527968 
L 460.621918 101.671957 
L 469.29127 99.423998 
L 477.960622 97.394 
L 486.629975 95.607031 
L 495.299327 94.081393 
L 502.523787 93.018185 
L 509.748248 92.147679 
L 516.972708 91.469718 
L 524.197168 90.983575 
L 531.421628 90.687215 
L 540.090981 90.57474 
L 548.760333 90.71554 
L 557.429685 91.093099 
L 566.099038 91.686907 
L 576.213282 92.620084 
L 586.327527 93.773452 
L 597.886663 95.308535 
L 612.335584 97.455662 
L 667.241482 105.869821 
L 680.24551 107.501907 
L 691.804647 108.742308 
L 703.363783 109.75991 
L 714.92292 110.538749 
L 726.482056 111.072434 
L 738.041193 111.364156 
L 749.600329 111.424588 
L 761.159465 111.268877 
L 774.163494 110.861819 
L 788.612415 110.164674 
L 804.506227 109.169088 
L 817.510256 108.232261 
L 817.510256 108.232261 
" clip-path="url(#p81ca463c7d)" style="fill: none; stroke-dasharray: 12.95,5.6; stroke-dashoffset: 0; stroke: #ff0000; stroke-opacity: 0.8; stroke-width: 3.5"/>
   </g>
  </g>
  <g id="axes_2">
   <g id="patch_7">
    <path d="M 60.459063 245.37125 
L 853.560313 245.37125 
L 853.560313 149.4375 
L 60.459063 149.4375 
z
" style="fill: #ffffff"/>
   </g>
   <g id="matplotlib.axis_3">
    <g id="xtick_7">
     <g id="line2d_14">
      <path d="M 96.509119 245.37125 
L 96.509119 149.4375 
" clip-path="url(#pfb855b1580)" style="fill: none; stroke: #cccccc; stroke-width: 0.8; stroke-linecap: round"/>
     </g>
     <g id="text_6">
      <!-- 0 -->
      <g style="fill: #262626" transform="translate(93.327869 259.969687) scale(0.1 -0.1)">
       <use xlink:href="#DejaVuSerif-30"/>
      </g>
     </g>
    </g>
    <g id="xtick_8">
     <g id="line2d_15">
      <path d="M 240.709347 245.37125 
L 240.709347 149.4375 
" clip-path="url(#pfb855b1580)" style="fill: none; stroke: #cccccc; stroke-width: 0.8; stroke-linecap: round"/>
     </g>
     <g id="text_7">
      <!-- 1 -->
      <g style="fill: #262626" transform="translate(237.528097 259.969687) scale(0.1 -0.1)">
       <defs>
        <path id="DejaVuSerif-31" d="M 909 0 
L 909 331 
L 1722 331 
L 1722 4213 
L 781 3603 
L 781 4013 
L 1919 4750 
L 2350 4750 
L 2350 331 
L 3163 331 
L 3163 0 
L 909 0 
z
" transform="scale(0.015625)"/>
       </defs>
       <use xlink:href="#DejaVuSerif-31"/>
      </g>
     </g>
    </g>
    <g id="xtick_9">
     <g id="line2d_16">
      <path d="M 384.909574 245.37125 
L 384.909574 149.4375 
" clip-path="url(#pfb855b1580)" style="fill: none; stroke: #cccccc; stroke-width: 0.8; stroke-linecap: round"/>
     </g>
     <g id="text_8">
      <!-- 2 -->
      <g style="fill: #262626" transform="translate(381.728324 259.969687) scale(0.1 -0.1)">
       <use xlink:href="#DejaVuSerif-32"/>
      </g>
     </g>
    </g>
    <g id="xtick_10">
     <g id="line2d_17">
      <path d="M 529.109801 245.37125 
L 529.109801 149.4375 
" clip-path="url(#pfb855b1580)" style="fill: none; stroke: #cccccc; stroke-width: 0.8; stroke-linecap: round"/>
     </g>
     <g id="text_9">
      <!-- 3 -->
      <g style="fill: #262626" transform="translate(525.928551 259.969687) scale(0.1 -0.1)">
       <defs>
        <path id="DejaVuSerif-33" d="M 622 4469 
Q 988 4606 1323 4678 
Q 1659 4750 1953 4750 
Q 2638 4750 3022 4454 
Q 3406 4159 3406 3634 
Q 3406 3213 3140 2930 
Q 2875 2647 2388 2547 
Q 2963 2466 3280 2130 
Q 3597 1794 3597 1259 
Q 3597 606 3158 257 
Q 2719 -91 1894 -91 
Q 1528 -91 1179 -12 
Q 831 66 488 225 
L 488 1131 
L 838 1131 
Q 869 681 1141 450 
Q 1413 219 1906 219 
Q 2384 219 2661 495 
Q 2938 772 2938 1253 
Q 2938 1803 2653 2086 
Q 2369 2369 1819 2369 
L 1522 2369 
L 1522 2688 
L 1678 2688 
Q 2225 2688 2498 2914 
Q 2772 3141 2772 3597 
Q 2772 4006 2547 4223 
Q 2322 4441 1900 4441 
Q 1478 4441 1245 4241 
Q 1013 4041 972 3647 
L 622 3647 
L 622 4469 
z
" transform="scale(0.015625)"/>
       </defs>
       <use xlink:href="#DejaVuSerif-33"/>
      </g>
     </g>
    </g>
    <g id="xtick_11">
     <g id="line2d_18">
      <path d="M 673.310028 245.37125 
L 673.310028 149.4375 
" clip-path="url(#pfb855b1580)" style="fill: none; stroke: #cccccc; stroke-width: 0.8; stroke-linecap: round"/>
     </g>
     <g id="text_10">
      <!-- 4 -->
      <g style="fill: #262626" transform="translate(670.128778 259.969687) scale(0.1 -0.1)">
       <defs>
        <path id="DejaVuSerif-34" d="M 2234 1581 
L 2234 4063 
L 641 1581 
L 2234 1581 
z
M 3609 0 
L 1484 0 
L 1484 331 
L 2234 331 
L 2234 1247 
L 197 1247 
L 197 1588 
L 2241 4750 
L 2859 4750 
L 2859 1581 
L 3750 1581 
L 3750 1247 
L 2859 1247 
L 2859 331 
L 3609 331 
L 3609 0 
z
" transform="scale(0.015625)"/>
       </defs>
       <use xlink:href="#DejaVuSerif-34"/>
      </g>
     </g>
    </g>
    <g id="xtick_12">
     <g id="line2d_19">
      <path d="M 817.510256 245.37125 
L 817.510256 149.4375 
" clip-path="url(#pfb855b1580)" style="fill: none; stroke: #cccccc; stroke-width: 0.8; stroke-linecap: round"/>
     </g>
     <g id="text_11">
      <!-- 5 -->
      <g style="fill: #262626" transform="translate(814.329006 259.969687) scale(0.1 -0.1)">
       <use xlink:href="#DejaVuSerif-35"/>
      </g>
     </g>
    </g>
    <g id="text_12">
     <!-- Time -->
     <g style="fill: #262626" transform="translate(441.8475 275.1675) scale(0.12 -0.12)">
      <defs>
       <path id="DejaVuSerif-54" d="M 1222 0 
L 1222 331 
L 1819 331 
L 1819 4294 
L 447 4294 
L 447 3566 
L 63 3566 
L 63 4666 
L 4206 4666 
L 4206 3566 
L 3822 3566 
L 3822 4294 
L 2450 4294 
L 2450 331 
L 3047 331 
L 3047 0 
L 1222 0 
z
" transform="scale(0.015625)"/>
       <path id="DejaVuSerif-69" d="M 622 4353 
Q 622 4497 726 4603 
Q 831 4709 978 4709 
Q 1122 4709 1226 4603 
Q 1331 4497 1331 4353 
Q 1331 4206 1228 4103 
Q 1125 4000 978 4000 
Q 831 4000 726 4103 
Q 622 4206 622 4353 
z
M 1356 331 
L 1900 331 
L 1900 0 
L 231 0 
L 231 331 
L 781 331 
L 781 2988 
L 231 2988 
L 231 3322 
L 1356 3322 
L 1356 331 
z
" transform="scale(0.015625)"/>
       <path id="DejaVuSerif-6d" d="M 3316 2675 
Q 3481 3041 3739 3227 
Q 3997 3413 4341 3413 
Q 4863 3413 5119 3089 
Q 5375 2766 5375 2113 
L 5375 331 
L 5894 331 
L 5894 0 
L 4300 0 
L 4300 331 
L 4800 331 
L 4800 2047 
Q 4800 2556 4650 2772 
Q 4500 2988 4153 2988 
Q 3769 2988 3567 2697 
Q 3366 2406 3366 1850 
L 3366 331 
L 3866 331 
L 3866 0 
L 2291 0 
L 2291 331 
L 2791 331 
L 2791 2069 
Q 2791 2566 2641 2777 
Q 2491 2988 2144 2988 
Q 1759 2988 1557 2697 
Q 1356 2406 1356 1850 
L 1356 331 
L 1856 331 
L 1856 0 
L 263 0 
L 263 331 
L 781 331 
L 781 2994 
L 231 2994 
L 231 3322 
L 1356 3322 
L 1356 2731 
Q 1516 3063 1762 3238 
Q 2009 3413 2322 3413 
Q 2709 3413 2968 3220 
Q 3228 3028 3316 2675 
z
" transform="scale(0.015625)"/>
       <path id="DejaVuSerif-65" d="M 3469 1600 
L 991 1600 
L 991 1575 
Q 991 903 1244 561 
Q 1497 219 1991 219 
Q 2369 219 2611 417 
Q 2853 616 2950 1006 
L 3413 1006 
Q 3275 459 2904 184 
Q 2534 -91 1931 -91 
Q 1203 -91 761 389 
Q 319 869 319 1663 
Q 319 2450 753 2931 
Q 1188 3413 1894 3413 
Q 2647 3413 3050 2948 
Q 3453 2484 3469 1600 
z
M 2791 1931 
Q 2772 2513 2545 2808 
Q 2319 3103 1894 3103 
Q 1497 3103 1269 2806 
Q 1041 2509 991 1931 
L 2791 1931 
z
" transform="scale(0.015625)"/>
      </defs>
      <use xlink:href="#DejaVuSerif-54"/>
      <use xlink:href="#DejaVuSerif-69" transform="translate(66.699219 0)"/>
      <use xlink:href="#DejaVuSerif-6d" transform="translate(98.681641 0)"/>
      <use xlink:href="#DejaVuSerif-65" transform="translate(193.505859 0)"/>
     </g>
    </g>
   </g>
   <g id="matplotlib.axis_4">
    <g id="ytick_5">
     <g id="line2d_20">
      <path d="M 60.459063 216.287098 
L 853.560313 216.287098 
" clip-path="url(#pfb855b1580)" style="fill: none; stroke: #cccccc; stroke-width: 0.8; stroke-linecap: round"/>
     </g>
     <g id="text_13">
      <!-- −0.5 -->
      <g style="fill: #262626" transform="translate(29.17625 220.086317) scale(0.1 -0.1)">
       <use xlink:href="#DejaVuSerif-2212"/>
       <use xlink:href="#DejaVuSerif-30" transform="translate(83.789062 0)"/>
       <use xlink:href="#DejaVuSerif-2e" transform="translate(147.412109 0)"/>
       <use xlink:href="#DejaVuSerif-35" transform="translate(179.199219 0)"/>
      </g>
     </g>
    </g>
    <g id="ytick_6">
     <g id="line2d_21">
      <path d="M 60.459063 185.042612 
L 853.560313 185.042612 
" clip-path="url(#pfb855b1580)" style="fill: none; stroke: #cccccc; stroke-width: 0.8; stroke-linecap: round"/>
     </g>
     <g id="text_14">
      <!-- 0.0 -->
      <g style="fill: #262626" transform="translate(37.555937 188.84183) scale(0.1 -0.1)">
       <use xlink:href="#DejaVuSerif-30"/>
       <use xlink:href="#DejaVuSerif-2e" transform="translate(63.623047 0)"/>
       <use xlink:href="#DejaVuSerif-30" transform="translate(95.410156 0)"/>
      </g>
     </g>
    </g>
    <g id="ytick_7">
     <g id="line2d_22">
      <path d="M 60.459063 153.798125 
L 853.560313 153.798125 
" clip-path="url(#pfb855b1580)" style="fill: none; stroke: #cccccc; stroke-width: 0.8; stroke-linecap: round"/>
     </g>
     <g id="text_15">
      <!-- 0.5 -->
      <g style="fill: #262626" transform="translate(37.555937 157.597344) scale(0.1 -0.1)">
       <use xlink:href="#DejaVuSerif-30"/>
       <use xlink:href="#DejaVuSerif-2e" transform="translate(63.623047 0)"/>
       <use xlink:href="#DejaVuSerif-35" transform="translate(95.410156 0)"/>
      </g>
     </g>
    </g>
    <g id="text_16">
     <!-- $x1$ -->
     <g style="fill: #262626" transform="translate(22.680625 204.784375) rotate(-90) scale(0.12 -0.12)">
      <defs>
       <path id="DejaVuSans-31" d="M 794 531 
L 1825 531 
L 1825 4091 
L 703 3866 
L 703 4441 
L 1819 4666 
L 2450 4666 
L 2450 531 
L 3481 531 
L 3481 0 
L 794 0 
L 794 531 
z
" transform="scale(0.015625)"/>
      </defs>
      <use xlink:href="#DejaVuSans-Oblique-78" transform="translate(0 0.09375)"/>
      <use xlink:href="#DejaVuSans-31" transform="translate(59.179688 0.09375)"/>
     </g>
    </g>
   </g>
   <g id="line2d_23">
    <path d="M 96.509119 153.798125 
L 108.068256 168.649356 
L 116.737608 179.397347 
L 123.962068 187.959271 
L 129.741637 194.483621 
L 135.521205 200.674123 
L 141.300773 206.494943 
L 145.635449 210.599329 
L 149.970125 214.467417 
L 154.304802 218.089842 
L 158.639478 221.458878 
L 162.974154 224.568442 
L 167.30883 227.412435 
L 171.643506 229.984867 
L 175.978182 232.281751 
L 180.312859 234.300456 
L 184.647535 236.039709 
L 188.982211 237.499593 
L 193.316887 238.681547 
L 197.651563 239.588368 
L 201.986239 240.224208 
L 206.320916 240.594578 
L 210.655592 240.706343 
L 214.990268 240.567726 
L 219.324944 240.188308 
L 223.65962 239.576252 
L 227.994296 238.739171 
L 232.328973 237.687999 
L 236.663649 236.434026 
L 240.998325 234.988895 
L 246.777893 232.785473 
L 252.557461 230.292967 
L 258.33703 227.541877 
L 264.116598 224.563811 
L 271.341058 220.571988 
L 280.010411 215.472154 
L 290.124655 209.229336 
L 321.91228 189.383506 
L 330.581633 184.332648 
L 337.806093 180.35131 
L 345.030553 176.620134 
L 352.255013 173.175342 
L 358.034582 170.645945 
L 363.81415 168.331321 
L 369.593718 166.241131 
L 375.373286 164.382403 
L 381.152855 162.759535 
L 386.932423 161.374289 
L 392.711991 160.22685 
L 398.491559 159.318771 
L 404.271127 158.648291 
L 410.050696 158.211805 
L 415.830264 158.00407 
L 421.609832 158.0182 
L 427.3894 158.24567 
L 433.168969 158.67631 
L 438.948537 159.298313 
L 446.172997 160.324274 
L 453.397457 161.599611 
L 460.621918 163.100111 
L 469.29127 165.155355 
L 477.960622 167.437759 
L 489.519759 170.742809 
L 505.413571 175.565745 
L 528.531844 182.575413 
L 540.090981 185.842903 
L 550.205225 188.475773 
L 558.874578 190.527014 
L 567.54393 192.363932 
L 576.213282 193.966764 
L 584.882635 195.319746 
L 593.551987 196.41286 
L 602.221339 197.241828 
L 610.890692 197.808117 
L 619.560044 198.118813 
L 628.229396 198.183013 
L 636.898749 198.013525 
L 645.568101 197.626781 
L 655.682345 196.926512 
L 665.79659 195.991195 
L 677.355726 194.684887 
L 690.359755 192.983128 
L 709.143351 190.265351 
L 742.375869 185.405623 
L 756.824789 183.522052 
L 769.828818 182.04308 
L 781.387954 180.933698 
L 792.947091 180.035347 
L 804.506227 179.359347 
L 816.065364 178.910442 
L 817.510256 178.870186 
L 817.510256 178.870186 
" clip-path="url(#pfb855b1580)" style="fill: none; stroke: #000000; stroke-opacity: 0.4; stroke-width: 6; stroke-linecap: round"/>
   </g>
   <g id="patch_8">
    <path d="M 60.459063 245.37125 
L 60.459063 149.4375 
" style="fill: none; stroke: #cccccc; stroke-width: 0.8; stroke-linejoin: miter; stroke-linecap: square"/>
   </g>
   <g id="patch_9">
    <path d="M 853.560313 245.37125 
L 853.560313 149.4375 
" style="fill: none; stroke: #cccccc; stroke-width: 0.8; stroke-linejoin: miter; stroke-linecap: square"/>
   </g>
   <g id="patch_10">
    <path d="M 60.459063 245.37125 
L 853.560313 245.37125 
" style="fill: none; stroke: #cccccc; stroke-width: 0.8; stroke-linejoin: miter; stroke-linecap: square"/>
   </g>
   <g id="patch_11">
    <path d="M 60.459063 149.4375 
L 853.560313 149.4375 
" style="fill: none; stroke: #cccccc; stroke-width: 0.8; stroke-linejoin: miter; stroke-linecap: square"/>
   </g>
   <g id="line2d_24">
    <path d="M 96.509119 153.798125 
L 97.954011 157.533054 
L 99.398903 160.932595 
L 100.843795 164.026651 
L 102.288688 166.840582 
L 103.73358 169.39637 
L 105.178472 171.713788 
L 106.623364 173.810172 
L 108.068256 175.702186 
L 109.513148 177.405842 
L 112.402932 180.308865 
L 115.292716 182.636046 
L 118.1825 184.497809 
L 121.072284 185.986114 
L 123.962068 187.18182 
L 126.851853 188.150882 
L 131.186529 189.288916 
L 135.521205 190.16729 
L 141.300773 191.085735 
L 149.970125 192.191009 
L 181.757751 195.988603 
L 193.316887 197.661063 
L 204.876024 199.565555 
L 216.43516 201.718971 
L 227.994296 204.10895 
L 240.998325 207.031522 
L 278.565518 215.686868 
L 287.234871 217.379172 
L 295.904223 218.833757 
L 303.128683 219.826069 
L 310.353144 220.591334 
L 316.132712 221.010961 
L 321.91228 221.235516 
L 327.691848 221.244861 
L 333.471417 221.020658 
L 339.250985 220.546367 
L 345.030553 219.807246 
L 350.810121 218.790354 
L 356.58969 217.484546 
L 362.369258 215.880478 
L 368.148826 213.970604 
L 373.928394 211.751268 
L 379.707962 209.25759 
L 386.932423 205.853365 
L 397.046667 200.7653 
L 415.830264 191.240768 
L 423.054724 187.830338 
L 430.279184 184.68239 
L 436.058753 182.398385 
L 443.283213 179.839832 
L 450.507673 177.564472 
L 457.732134 175.564733 
L 464.956594 173.831088 
L 472.181054 172.351629 
L 479.405514 171.112074 
L 486.629975 170.095757 
L 493.854435 169.283637 
L 501.078895 168.658906 
L 508.303356 168.224711 
L 516.972708 167.949525 
L 525.64206 167.932909 
L 534.311413 168.163714 
L 542.980765 168.629789 
L 551.650117 169.317982 
L 560.31947 170.214153 
L 570.433714 171.499523 
L 580.547958 173.010041 
L 592.107095 174.963357 
L 606.556015 177.655559 
L 634.008964 183.089102 
L 649.902777 186.113525 
L 662.906806 188.363454 
L 674.465942 190.125672 
L 684.580186 191.448878 
L 694.694431 192.545979 
L 704.808675 193.402925 
L 714.92292 194.011802 
L 725.037164 194.371285 
L 735.151408 194.486631 
L 745.265653 194.369365 
L 755.379897 194.034407 
L 766.939034 193.411742 
L 778.49817 192.569083 
L 792.947091 191.272627 
L 811.730687 189.330929 
L 817.510256 188.704447 
L 817.510256 188.704447 
" clip-path="url(#pfb855b1580)" style="fill: none; stroke-dasharray: 3.5,5.775; stroke-dashoffset: 0; stroke: #008000; stroke-opacity: 0.8; stroke-width: 3.5"/>
   </g>
   <g id="line2d_25">
    <path d="M 96.509119 153.798125 
L 108.068256 168.546334 
L 116.737608 179.235939 
L 123.962068 187.763199 
L 129.741637 194.269089 
L 135.521205 200.44924 
L 141.300773 206.267524 
L 147.080341 211.692836 
L 151.415017 215.488055 
L 155.749694 219.038307 
L 160.08437 222.336034 
L 164.419046 225.375168 
L 168.753722 228.149772 
L 173.088398 230.65533 
L 177.423075 232.888817 
L 181.757751 234.848457 
L 186.092427 236.533719 
L 190.427103 237.945318 
L 194.761779 239.085215 
L 199.096455 239.956617 
L 203.431132 240.563978 
L 207.765808 240.912999 
L 212.100484 241.010625 
L 216.43516 240.865049 
L 220.769836 240.485565 
L 225.104512 239.878586 
L 229.439189 239.0523 
L 233.773865 238.016809 
L 238.108541 236.782579 
L 242.443217 235.360441 
L 248.222785 233.191362 
L 254.002354 230.735721 
L 259.781922 228.022219 
L 265.56149 225.080711 
L 272.78595 221.130542 
L 280.010411 216.935133 
L 290.124655 210.761952 
L 310.353144 198.011408 
L 321.91228 190.877694 
L 330.581633 185.760405 
L 337.806093 181.710435 
L 345.030553 177.896556 
L 352.255013 174.35632 
L 358.034582 171.742863 
L 363.81415 169.338578 
L 369.593718 167.15431 
L 375.373286 165.198299 
L 381.152855 163.476185 
L 386.932423 161.991 
L 392.711991 160.743175 
L 398.491559 159.7321 
L 404.271127 158.958194 
L 410.050696 158.418576 
L 415.830264 158.108761 
L 421.609832 158.022734 
L 427.3894 158.152946 
L 433.168969 158.490317 
L 438.948537 159.024238 
L 446.172997 159.949392 
L 453.397457 161.135489 
L 460.621918 162.554147 
L 467.846378 164.180653 
L 476.51573 166.36321 
L 486.629975 169.159993 
L 499.634003 173.023724 
L 537.201197 184.401195 
L 547.315441 187.177063 
L 557.429685 189.715034 
L 566.099038 191.668213 
L 574.76839 193.394494 
L 583.437742 194.878404 
L 592.107095 196.106266 
L 600.776447 197.070257 
L 609.445799 197.768008 
L 618.115152 198.202543 
L 626.784504 198.382284 
L 635.453857 198.320458 
L 644.123209 198.030988 
L 652.792561 197.532142 
L 662.906806 196.713288 
L 673.02105 195.673896 
L 684.580186 194.266985 
L 699.029107 192.270049 
L 723.592272 188.592903 
L 745.265653 185.428748 
L 759.714573 183.527798 
L 772.718602 182.036888 
L 784.277738 180.921428 
L 795.836875 180.022236 
L 807.396011 179.348277 
L 817.510256 178.947547 
L 817.510256 178.947547 
" clip-path="url(#pfb855b1580)" style="fill: none; stroke-dasharray: 12.95,5.6; stroke-dashoffset: 0; stroke: #ff0000; stroke-opacity: 0.8; stroke-width: 3.5"/>
   </g>
  </g>
  <g id="text_17">
   <!-- State Variable Simulation Comparison -->
   <g style="fill: #262626" transform="translate(278.292812 20.1175) scale(0.16 -0.16)">
    <defs>
     <path id="DejaVuSerif-53" d="M 594 225 
L 594 1288 
L 953 1284 
Q 969 753 1261 498 
Q 1553 244 2150 244 
Q 2706 244 2998 464 
Q 3291 684 3291 1106 
Q 3291 1444 3114 1625 
Q 2938 1806 2369 1978 
L 1753 2163 
Q 1084 2366 811 2669 
Q 538 2972 538 3500 
Q 538 4094 959 4422 
Q 1381 4750 2144 4750 
Q 2469 4750 2856 4679 
Q 3244 4609 3681 4475 
L 3681 3481 
L 3328 3481 
Q 3275 3975 2998 4195 
Q 2722 4416 2156 4416 
Q 1663 4416 1405 4214 
Q 1147 4013 1147 3628 
Q 1147 3294 1340 3103 
Q 1534 2913 2163 2725 
L 2741 2553 
Q 3375 2363 3645 2067 
Q 3916 1772 3916 1275 
Q 3916 597 3481 253 
Q 3047 -91 2188 -91 
Q 1803 -91 1404 -12 
Q 1006 66 594 225 
z
" transform="scale(0.015625)"/>
     <path id="DejaVuSerif-74" d="M 691 2988 
L 184 2988 
L 184 3322 
L 691 3322 
L 691 4353 
L 1269 4353 
L 1269 3322 
L 2350 3322 
L 2350 2988 
L 1269 2988 
L 1269 878 
Q 1269 456 1350 337 
Q 1431 219 1650 219 
Q 1875 219 1978 351 
Q 2081 484 2088 781 
L 2522 781 
Q 2497 328 2275 118 
Q 2053 -91 1600 -91 
Q 1103 -91 897 129 
Q 691 350 691 878 
L 691 2988 
z
" transform="scale(0.015625)"/>
     <path id="DejaVuSerif-61" d="M 2547 1044 
L 2547 1747 
L 1806 1747 
Q 1378 1747 1168 1562 
Q 959 1378 959 997 
Q 959 650 1171 447 
Q 1384 244 1747 244 
Q 2106 244 2326 466 
Q 2547 688 2547 1044 
z
M 3122 2075 
L 3122 331 
L 3634 331 
L 3634 0 
L 2547 0 
L 2547 359 
Q 2356 128 2106 18 
Q 1856 -91 1522 -91 
Q 969 -91 644 203 
Q 319 497 319 997 
Q 319 1513 691 1797 
Q 1063 2081 1741 2081 
L 2547 2081 
L 2547 2309 
Q 2547 2688 2317 2895 
Q 2088 3103 1672 3103 
Q 1328 3103 1125 2947 
Q 922 2791 872 2484 
L 575 2484 
L 575 3156 
Q 875 3284 1158 3348 
Q 1441 3413 1709 3413 
Q 2400 3413 2761 3070 
Q 3122 2728 3122 2075 
z
" transform="scale(0.015625)"/>
     <path id="DejaVuSerif-20" transform="scale(0.015625)"/>
     <path id="DejaVuSerif-56" d="M 1119 4331 
L 2497 750 
L 3872 4331 
L 3347 4331 
L 3347 4666 
L 4716 4666 
L 4716 4331 
L 4263 4331 
L 2597 0 
L 2059 0 
L 403 4331 
L -63 4331 
L -63 4666 
L 1638 4666 
L 1638 4331 
L 1119 4331 
z
" transform="scale(0.015625)"/>
     <path id="DejaVuSerif-72" d="M 3059 3328 
L 3059 2497 
L 2728 2497 
Q 2713 2744 2591 2866 
Q 2469 2988 2234 2988 
Q 1809 2988 1582 2694 
Q 1356 2400 1356 1850 
L 1356 331 
L 2022 331 
L 2022 0 
L 263 0 
L 263 331 
L 781 331 
L 781 2994 
L 231 2994 
L 231 3322 
L 1356 3322 
L 1356 2731 
Q 1525 3078 1790 3245 
Q 2056 3413 2438 3413 
Q 2578 3413 2733 3391 
Q 2888 3369 3059 3328 
z
" transform="scale(0.015625)"/>
     <path id="DejaVuSerif-62" d="M 738 331 
L 738 4531 
L 184 4531 
L 184 4863 
L 1313 4863 
L 1313 2803 
Q 1481 3116 1742 3264 
Q 2003 3413 2388 3413 
Q 3000 3413 3387 2928 
Q 3775 2444 3775 1663 
Q 3775 881 3387 395 
Q 3000 -91 2388 -91 
Q 2003 -91 1742 57 
Q 1481 206 1313 519 
L 1313 0 
L 184 0 
L 184 331 
L 738 331 
z
M 1313 1497 
Q 1313 897 1542 583 
Q 1772 269 2209 269 
Q 2650 269 2876 622 
Q 3103 975 3103 1663 
Q 3103 2353 2876 2703 
Q 2650 3053 2209 3053 
Q 1772 3053 1542 2737 
Q 1313 2422 1313 1825 
L 1313 1497 
z
" transform="scale(0.015625)"/>
     <path id="DejaVuSerif-6c" d="M 1313 331 
L 1856 331 
L 1856 0 
L 184 0 
L 184 331 
L 738 331 
L 738 4531 
L 184 4531 
L 184 4863 
L 1313 4863 
L 1313 331 
z
" transform="scale(0.015625)"/>
     <path id="DejaVuSerif-75" d="M 2266 3322 
L 3341 3322 
L 3341 331 
L 3884 331 
L 3884 0 
L 2766 0 
L 2766 588 
Q 2606 256 2353 82 
Q 2100 -91 1766 -91 
Q 1213 -91 952 223 
Q 691 538 691 1209 
L 691 2988 
L 172 2988 
L 172 3322 
L 1269 3322 
L 1269 1388 
Q 1269 781 1417 556 
Q 1566 331 1947 331 
Q 2347 331 2556 625 
Q 2766 919 2766 1478 
L 2766 2988 
L 2266 2988 
L 2266 3322 
z
" transform="scale(0.015625)"/>
     <path id="DejaVuSerif-6f" d="M 1925 219 
Q 2388 219 2623 584 
Q 2859 950 2859 1663 
Q 2859 2375 2623 2739 
Q 2388 3103 1925 3103 
Q 1463 3103 1227 2739 
Q 991 2375 991 1663 
Q 991 950 1228 584 
Q 1466 219 1925 219 
z
M 1925 -91 
Q 1200 -91 759 389 
Q 319 869 319 1663 
Q 319 2456 758 2934 
Q 1197 3413 1925 3413 
Q 2653 3413 3092 2934 
Q 3531 2456 3531 1663 
Q 3531 869 3092 389 
Q 2653 -91 1925 -91 
z
" transform="scale(0.015625)"/>
     <path id="DejaVuSerif-6e" d="M 263 0 
L 263 331 
L 781 331 
L 781 2988 
L 231 2988 
L 231 3322 
L 1356 3322 
L 1356 2731 
Q 1516 3069 1770 3241 
Q 2025 3413 2363 3413 
Q 2913 3413 3172 3097 
Q 3431 2781 3431 2113 
L 3431 331 
L 3944 331 
L 3944 0 
L 2356 0 
L 2356 331 
L 2853 331 
L 2853 1931 
Q 2853 2541 2703 2767 
Q 2553 2994 2175 2994 
Q 1775 2994 1565 2701 
Q 1356 2409 1356 1850 
L 1356 331 
L 1856 331 
L 1856 0 
L 263 0 
z
" transform="scale(0.015625)"/>
     <path id="DejaVuSerif-43" d="M 4513 1234 
Q 4306 581 3820 245 
Q 3334 -91 2591 -91 
Q 2134 -91 1743 65 
Q 1353 222 1050 525 
Q 700 875 529 1320 
Q 359 1766 359 2328 
Q 359 3416 987 4083 
Q 1616 4750 2644 4750 
Q 3025 4750 3456 4650 
Q 3888 4550 4384 4347 
L 4384 3272 
L 4031 3272 
Q 3916 3859 3567 4137 
Q 3219 4416 2591 4416 
Q 1844 4416 1459 3886 
Q 1075 3356 1075 2328 
Q 1075 1303 1459 773 
Q 1844 244 2591 244 
Q 3113 244 3450 492 
Q 3788 741 3938 1234 
L 4513 1234 
z
" transform="scale(0.015625)"/>
     <path id="DejaVuSerif-70" d="M 1313 1825 
L 1313 1497 
Q 1313 897 1542 583 
Q 1772 269 2209 269 
Q 2650 269 2876 622 
Q 3103 975 3103 1663 
Q 3103 2353 2876 2703 
Q 2650 3053 2209 3053 
Q 1772 3053 1542 2737 
Q 1313 2422 1313 1825 
z
M 738 2988 
L 184 2988 
L 184 3322 
L 1313 3322 
L 1313 2803 
Q 1481 3116 1742 3264 
Q 2003 3413 2388 3413 
Q 3000 3413 3387 2928 
Q 3775 2444 3775 1663 
Q 3775 881 3387 395 
Q 3000 -91 2388 -91 
Q 2003 -91 1742 57 
Q 1481 206 1313 519 
L 1313 -997 
L 1856 -997 
L 1856 -1331 
L 184 -1331 
L 184 -997 
L 738 -997 
L 738 2988 
z
" transform="scale(0.015625)"/>
     <path id="DejaVuSerif-73" d="M 359 184 
L 359 959 
L 691 959 
Q 703 588 923 403 
Q 1144 219 1575 219 
Q 1963 219 2166 364 
Q 2369 509 2369 788 
Q 2369 1006 2220 1140 
Q 2072 1275 1594 1428 
L 1178 1569 
Q 750 1706 558 1912 
Q 366 2119 366 2438 
Q 366 2894 700 3153 
Q 1034 3413 1625 3413 
Q 1888 3413 2178 3344 
Q 2469 3275 2778 3144 
L 2778 2419 
L 2447 2419 
Q 2434 2741 2221 2922 
Q 2009 3103 1644 3103 
Q 1281 3103 1095 2975 
Q 909 2847 909 2591 
Q 909 2381 1050 2254 
Q 1191 2128 1613 1997 
L 2069 1856 
Q 2541 1709 2748 1489 
Q 2956 1269 2956 922 
Q 2956 450 2595 179 
Q 2234 -91 1600 -91 
Q 1278 -91 972 -22 
Q 666 47 359 184 
z
" transform="scale(0.015625)"/>
    </defs>
    <use xlink:href="#DejaVuSerif-53"/>
    <use xlink:href="#DejaVuSerif-74" transform="translate(68.505859 0)"/>
    <use xlink:href="#DejaVuSerif-61" transform="translate(108.691406 0)"/>
    <use xlink:href="#DejaVuSerif-74" transform="translate(168.310547 0)"/>
    <use xlink:href="#DejaVuSerif-65" transform="translate(208.496094 0)"/>
    <use xlink:href="#DejaVuSerif-20" transform="translate(267.675781 0)"/>
    <use xlink:href="#DejaVuSerif-56" transform="translate(299.462891 0)"/>
    <use xlink:href="#DejaVuSerif-61" transform="translate(362.554688 0)"/>
    <use xlink:href="#DejaVuSerif-72" transform="translate(422.173828 0)"/>
    <use xlink:href="#DejaVuSerif-69" transform="translate(469.976562 0)"/>
    <use xlink:href="#DejaVuSerif-61" transform="translate(501.958984 0)"/>
    <use xlink:href="#DejaVuSerif-62" transform="translate(561.578125 0)"/>
    <use xlink:href="#DejaVuSerif-6c" transform="translate(625.591797 0)"/>
    <use xlink:href="#DejaVuSerif-65" transform="translate(657.574219 0)"/>
    <use xlink:href="#DejaVuSerif-20" transform="translate(716.753906 0)"/>
    <use xlink:href="#DejaVuSerif-53" transform="translate(748.541016 0)"/>
    <use xlink:href="#DejaVuSerif-69" transform="translate(817.046875 0)"/>
    <use xlink:href="#DejaVuSerif-6d" transform="translate(849.029297 0)"/>
    <use xlink:href="#DejaVuSerif-75" transform="translate(943.853516 0)"/>
    <use xlink:href="#DejaVuSerif-6c" transform="translate(1008.257812 0)"/>
    <use xlink:href="#DejaVuSerif-61" transform="translate(1040.240234 0)"/>
    <use xlink:href="#DejaVuSerif-74" transform="translate(1099.859375 0)"/>
    <use xlink:href="#DejaVuSerif-69" transform="translate(1140.044922 0)"/>
    <use xlink:href="#DejaVuSerif-6f" transform="translate(1172.027344 0)"/>
    <use xlink:href="#DejaVuSerif-6e" transform="translate(1232.232422 0)"/>
    <use xlink:href="#DejaVuSerif-20" transform="translate(1296.636719 0)"/>
    <use xlink:href="#DejaVuSerif-43" transform="translate(1328.423828 0)"/>
    <use xlink:href="#DejaVuSerif-6f" transform="translate(1404.9375 0)"/>
    <use xlink:href="#DejaVuSerif-6d" transform="translate(1465.142578 0)"/>
    <use xlink:href="#DejaVuSerif-70" transform="translate(1559.966797 0)"/>
    <use xlink:href="#DejaVuSerif-61" transform="translate(1623.980469 0)"/>
    <use xlink:href="#DejaVuSerif-72" transform="translate(1683.599609 0)"/>
    <use xlink:href="#DejaVuSerif-69" transform="translate(1731.402344 0)"/>
    <use xlink:href="#DejaVuSerif-73" transform="translate(1763.384766 0)"/>
    <use xlink:href="#DejaVuSerif-6f" transform="translate(1814.703125 0)"/>
    <use xlink:href="#DejaVuSerif-6e" transform="translate(1874.908203 0)"/>
   </g>
  </g>
  <g id="legend_1">
   <g id="patch_12">
    <path d="M 745.427812 52.460938 
L 860.640312 52.460938 
Q 862.640312 52.460938 862.640312 50.460938 
L 862.640312 7 
Q 862.640312 5 860.640312 5 
L 745.427812 5 
Q 743.427812 5 743.427812 7 
L 743.427812 50.460938 
Q 743.427812 52.460938 745.427812 52.460938 
z
" style="fill: #ffffff; opacity: 0.5; stroke: #cccccc; stroke-linejoin: miter"/>
   </g>
   <g id="line2d_26">
    <path d="M 747.427812 13.098437 
L 757.427812 13.098437 
L 767.427812 13.098437 
" style="fill: none; stroke: #000000; stroke-opacity: 0.4; stroke-width: 6; stroke-linecap: round"/>
   </g>
   <g id="text_18">
    <!-- True Trajectory -->
    <g style="fill: #262626" transform="translate(775.427812 16.598437) scale(0.1 -0.1)">
     <defs>
      <path id="DejaVuSerif-6a" d="M 641 4353 
Q 641 4497 745 4603 
Q 850 4709 997 4709 
Q 1141 4709 1245 4603 
Q 1350 4497 1350 4353 
Q 1350 4206 1248 4103 
Q 1147 4000 997 4000 
Q 850 4000 745 4103 
Q 641 4206 641 4353 
z
M 781 2988 
L 238 2988 
L 238 3322 
L 1356 3322 
L 1356 -325 
Q 1356 -838 1051 -1130 
Q 747 -1422 213 -1422 
Q -13 -1422 -217 -1370 
Q -422 -1319 -616 -1216 
L -616 -531 
L -319 -531 
Q -297 -831 -164 -972 
Q -31 -1113 225 -1113 
Q 509 -1113 645 -920 
Q 781 -728 781 -325 
L 781 2988 
z
" transform="scale(0.015625)"/>
      <path id="DejaVuSerif-63" d="M 3291 997 
Q 3169 466 2822 187 
Q 2475 -91 1925 -91 
Q 1200 -91 759 389 
Q 319 869 319 1663 
Q 319 2459 759 2936 
Q 1200 3413 1925 3413 
Q 2241 3413 2553 3339 
Q 2866 3266 3181 3116 
L 3181 2266 
L 2847 2266 
Q 2781 2703 2561 2903 
Q 2341 3103 1931 3103 
Q 1466 3103 1228 2742 
Q 991 2381 991 1663 
Q 991 944 1227 581 
Q 1463 219 1931 219 
Q 2303 219 2525 412 
Q 2747 606 2828 997 
L 3291 997 
z
" transform="scale(0.015625)"/>
      <path id="DejaVuSerif-79" d="M 1381 -609 
L 1600 -56 
L 359 2988 
L -19 2988 
L -19 3322 
L 1509 3322 
L 1509 2988 
L 978 2988 
L 1913 703 
L 2847 2988 
L 2350 2988 
L 2350 3322 
L 3597 3322 
L 3597 2988 
L 3225 2988 
L 1703 -750 
Q 1547 -1138 1356 -1280 
Q 1166 -1422 819 -1422 
Q 672 -1422 517 -1397 
Q 363 -1372 206 -1325 
L 206 -691 
L 500 -691 
Q 519 -903 608 -995 
Q 697 -1088 884 -1088 
Q 1056 -1088 1161 -992 
Q 1266 -897 1381 -609 
z
" transform="scale(0.015625)"/>
     </defs>
     <use xlink:href="#DejaVuSerif-54"/>
     <use xlink:href="#DejaVuSerif-72" transform="translate(66.699219 0)"/>
     <use xlink:href="#DejaVuSerif-75" transform="translate(114.501953 0)"/>
     <use xlink:href="#DejaVuSerif-65" transform="translate(178.90625 0)"/>
     <use xlink:href="#DejaVuSerif-20" transform="translate(238.085938 0)"/>
     <use xlink:href="#DejaVuSerif-54" transform="translate(269.873047 0)"/>
     <use xlink:href="#DejaVuSerif-72" transform="translate(336.572266 0)"/>
     <use xlink:href="#DejaVuSerif-61" transform="translate(384.375 0)"/>
     <use xlink:href="#DejaVuSerif-6a" transform="translate(443.994141 0)"/>
     <use xlink:href="#DejaVuSerif-65" transform="translate(475 0)"/>
     <use xlink:href="#DejaVuSerif-63" transform="translate(534.179688 0)"/>
     <use xlink:href="#DejaVuSerif-74" transform="translate(590.185547 0)"/>
     <use xlink:href="#DejaVuSerif-6f" transform="translate(630.371094 0)"/>
     <use xlink:href="#DejaVuSerif-72" transform="translate(690.576172 0)"/>
     <use xlink:href="#DejaVuSerif-79" transform="translate(738.378906 0)"/>
    </g>
   </g>
   <g id="line2d_27">
    <path d="M 747.427812 27.91875 
L 757.427812 27.91875 
L 767.427812 27.91875 
" style="fill: none; stroke-dasharray: 12.95,5.6; stroke-dashoffset: 0; stroke: #ff0000; stroke-opacity: 0.8; stroke-width: 3.5"/>
   </g>
   <g id="text_19">
    <!-- AutoSINDy -->
    <g style="fill: #262626" transform="translate(775.427812 31.41875) scale(0.1 -0.1)">
     <defs>
      <path id="DejaVuSerif-41" d="M 1281 1691 
L 2994 1691 
L 2138 3909 
L 1281 1691 
z
M -38 0 
L -38 331 
L 372 331 
L 2034 4666 
L 2559 4666 
L 4225 331 
L 4684 331 
L 4684 0 
L 2988 0 
L 2988 331 
L 3506 331 
L 3116 1356 
L 1153 1356 
L 763 331 
L 1275 331 
L 1275 0 
L -38 0 
z
" transform="scale(0.015625)"/>
      <path id="DejaVuSerif-49" d="M 1581 331 
L 2175 331 
L 2175 0 
L 353 0 
L 353 331 
L 947 331 
L 947 4331 
L 353 4331 
L 353 4666 
L 2175 4666 
L 2175 4331 
L 1581 4331 
L 1581 331 
z
" transform="scale(0.015625)"/>
      <path id="DejaVuSerif-4e" d="M 313 0 
L 313 331 
L 941 331 
L 941 4331 
L 313 4331 
L 313 4666 
L 1509 4666 
L 4306 984 
L 4306 4331 
L 3681 4331 
L 3681 4666 
L 5319 4666 
L 5319 4331 
L 4691 4331 
L 4691 -91 
L 4313 -91 
L 1325 3841 
L 1325 331 
L 1953 331 
L 1953 0 
L 313 0 
z
" transform="scale(0.015625)"/>
      <path id="DejaVuSerif-44" d="M 1581 331 
L 2163 331 
Q 3072 331 3558 850 
Q 4044 1369 4044 2338 
Q 4044 3306 3559 3818 
Q 3075 4331 2163 4331 
L 1581 4331 
L 1581 331 
z
M 353 0 
L 353 331 
L 947 331 
L 947 4331 
L 353 4331 
L 353 4666 
L 2209 4666 
Q 3416 4666 4089 4050 
Q 4763 3434 4763 2338 
Q 4763 1238 4088 619 
Q 3413 0 2209 0 
L 353 0 
z
" transform="scale(0.015625)"/>
     </defs>
     <use xlink:href="#DejaVuSerif-41"/>
     <use xlink:href="#DejaVuSerif-75" transform="translate(72.216797 0)"/>
     <use xlink:href="#DejaVuSerif-74" transform="translate(136.621094 0)"/>
     <use xlink:href="#DejaVuSerif-6f" transform="translate(176.806641 0)"/>
     <use xlink:href="#DejaVuSerif-53" transform="translate(237.011719 0)"/>
     <use xlink:href="#DejaVuSerif-49" transform="translate(305.517578 0)"/>
     <use xlink:href="#DejaVuSerif-4e" transform="translate(345.019531 0)"/>
     <use xlink:href="#DejaVuSerif-44" transform="translate(432.519531 0)"/>
     <use xlink:href="#DejaVuSerif-79" transform="translate(512.695312 0)"/>
    </g>
   </g>
   <g id="line2d_28">
    <path d="M 747.427812 42.739062 
L 757.427812 42.739062 
L 767.427812 42.739062 
" style="fill: none; stroke-dasharray: 3.5,5.775; stroke-dashoffset: 0; stroke: #008000; stroke-opacity: 0.8; stroke-width: 3.5"/>
   </g>
   <g id="text_20">
    <!-- Standard SINDy -->
    <g style="fill: #262626" transform="translate(775.427812 46.239062) scale(0.1 -0.1)">
     <defs>
      <path id="DejaVuSerif-64" d="M 3359 331 
L 3909 331 
L 3909 0 
L 2784 0 
L 2784 519 
Q 2616 206 2355 57 
Q 2094 -91 1709 -91 
Q 1097 -91 708 395 
Q 319 881 319 1663 
Q 319 2444 706 2928 
Q 1094 3413 1709 3413 
Q 2094 3413 2355 3264 
Q 2616 3116 2784 2803 
L 2784 4531 
L 2241 4531 
L 2241 4863 
L 3359 4863 
L 3359 331 
z
M 2784 1497 
L 2784 1825 
Q 2784 2422 2554 2737 
Q 2325 3053 1888 3053 
Q 1444 3053 1217 2703 
Q 991 2353 991 1663 
Q 991 975 1217 622 
Q 1444 269 1888 269 
Q 2325 269 2554 583 
Q 2784 897 2784 1497 
z
" transform="scale(0.015625)"/>
     </defs>
     <use xlink:href="#DejaVuSerif-53"/>
     <use xlink:href="#DejaVuSerif-74" transform="translate(68.505859 0)"/>
     <use xlink:href="#DejaVuSerif-61" transform="translate(108.691406 0)"/>
     <use xlink:href="#DejaVuSerif-6e" transform="translate(168.310547 0)"/>
     <use xlink:href="#DejaVuSerif-64" transform="translate(232.714844 0)"/>
     <use xlink:href="#DejaVuSerif-61" transform="translate(296.728516 0)"/>
     <use xlink:href="#DejaVuSerif-72" transform="translate(356.347656 0)"/>
     <use xlink:href="#DejaVuSerif-64" transform="translate(404.150391 0)"/>
     <use xlink:href="#DejaVuSerif-20" transform="translate(468.164062 0)"/>
     <use xlink:href="#DejaVuSerif-53" transform="translate(499.951172 0)"/>
     <use xlink:href="#DejaVuSerif-49" transform="translate(568.457031 0)"/>
     <use xlink:href="#DejaVuSerif-4e" transform="translate(607.958984 0)"/>
     <use xlink:href="#DejaVuSerif-44" transform="translate(695.458984 0)"/>
     <use xlink:href="#DejaVuSerif-79" transform="translate(775.634766 0)"/>
    </g>
   </g>
  </g>
 </g>
 <defs>
  <clipPath id="p81ca463c7d">
   <rect x="60.459063" y="41.62375" width="793.10125" height="95.93375"/>
  </clipPath>
  <clipPath id="pfb855b1580">
   <rect x="60.459063" y="149.4375" width="793.10125" height="95.93375"/>
  </clipPath>
 </defs>
</svg>
