<?xml version="1.0" encoding="utf-8" standalone="no"?>
<!DOCTYPE svg PUBLIC "-//W3C//DTD SVG 1.1//EN"
  "http://www.w3.org/Graphics/SVG/1.1/DTD/svg11.dtd">
<svg xmlns:xlink="http://www.w3.org/1999/xlink" width="862.210938pt" height="285.79625pt" viewBox="0 0 862.210938 285.79625" xmlns="http://www.w3.org/2000/svg" version="1.1">
 <metadata>
  <rdf:RDF xmlns:dc="http://purl.org/dc/elements/1.1/" xmlns:cc="http://creativecommons.org/ns#" xmlns:rdf="http://www.w3.org/1999/02/22-rdf-syntax-ns#">
   <cc:Work>
    <dc:type rdf:resource="http://purl.org/dc/dcmitype/StillImage"/>
    <dc:date>2026-04-06T11:23:45.755694</dc:date>
    <dc:format>image/svg+xml</dc:format>
    <dc:creator>
     <cc:Agent>
      <dc:title>Matplotlib v3.10.7, https://matplotlib.org/</dc:title>
     </cc:Agent>
    </dc:creator>
   </cc:Work>
  </rdf:RDF>
 </metadata>
 <defs>
  <style type="text/css">*{stroke-linejoin: round; stroke-linecap: butt}</style>
 </defs>
 <g id="figure_1">
  <g id="patch_1">
   <path d="M -0 285.79625 
L 862.210938 285.79625 
L 862.210938 0 
L -0 0 
z
" style="fill: #ffffff"/>
  </g>
  <g id="axes_1">
   <g id="patch_2">
    <path d="M 52.160938 136.79 
L 849.210937 136.79 
L 849.210937 39.64 
L 52.160938 39.64 
z
" style="fill: #ffffff"/>
   </g>
   <g id="line2d_1">
    <path d="M 88.390483 44.330312 
L 91.294655 44.068409 
L 94.198827 44.16139 
L 97.102999 44.605821 
L 100.007171 45.395918 
L 102.911343 46.523112 
L 105.815515 47.975991 
L 108.719687 49.740296 
L 111.623859 51.798925 
L 114.528031 54.132044 
L 117.432203 56.718771 
L 120.336375 59.535266 
L 124.692633 64.13486 
L 129.048891 69.104013 
L 134.857235 76.140146 
L 153.734353 99.497696 
L 158.09061 104.417424 
L 162.446868 108.973715 
L 165.35104 111.772653 
L 168.255212 114.357669 
L 171.159384 116.711037 
L 174.063556 118.81683 
L 176.967728 120.662123 
L 179.8719 122.235063 
L 182.776072 123.523675 
L 185.680244 124.518801 
L 188.584416 125.214113 
L 191.488588 125.606122 
L 194.39276 125.694173 
L 197.296932 125.480447 
L 200.201104 124.969958 
L 203.105276 124.170557 
L 206.009448 123.092756 
L 208.91362 121.746217 
L 211.817792 120.14323 
L 214.721964 118.298739 
L 217.626136 116.22936 
L 220.530308 113.953381 
L 224.886566 110.196148 
L 229.242824 106.093757 
L 235.051168 100.231394 
L 243.763684 91.000873 
L 252.4762 81.849329 
L 258.284544 76.112373 
L 262.640802 72.125272 
L 266.99706 68.48397 
L 269.901232 66.27665 
L 272.805404 64.263775 
L 275.709576 62.460695 
L 278.613748 60.880499 
L 281.51792 59.534015 
L 284.422092 58.429812 
L 287.326264 57.574194 
L 290.230436 56.971207 
L 293.134608 56.622633 
L 296.03878 56.528003 
L 298.942952 56.685513 
L 301.847124 57.092596 
L 304.751295 57.744708 
L 307.655467 58.63529 
L 310.559639 59.755769 
L 313.463811 61.095559 
L 316.367983 62.642059 
L 319.272155 64.380658 
L 323.628413 67.311817 
L 327.984671 70.573065 
L 332.340929 74.102796 
L 338.149273 79.110298 
L 358.478477 97.037105 
L 362.834735 100.506073 
L 367.190993 103.7053 
L 371.547251 106.57927 
L 374.451423 108.291026 
L 377.355595 109.82541 
L 380.259767 111.172334 
L 383.163939 112.323411 
L 386.068111 113.271948 
L 388.972283 114.013005 
L 391.876455 114.543263 
L 394.780627 114.859458 
L 397.684799 114.959959 
L 400.588971 114.845089 
L 403.493143 114.517124 
L 406.397315 113.980301 
L 409.301487 113.240808 
L 412.205659 112.30679 
L 415.109831 111.188349 
L 418.014003 109.897541 
L 422.370261 107.666692 
L 426.726519 105.119119 
L 431.082777 102.305515 
L 436.891121 98.234081 
L 444.151551 92.822882 
L 457.220324 83.029083 
L 463.028668 78.991202 
L 467.384926 76.202735 
L 471.741184 73.671309 
L 476.097442 71.437113 
L 480.4537 69.534757 
L 483.357872 68.464636 
L 486.262044 67.560997 
L 489.166216 66.830523 
L 492.070388 66.278177 
L 494.97456 65.907204 
L 497.878732 65.719127 
L 500.782904 65.713744 
L 503.687076 65.889136 
L 506.591248 66.24166 
L 509.49542 66.765952 
L 512.399592 67.455094 
L 515.303764 68.302952 
L 519.660022 69.854772 
L 524.01628 71.713654 
L 528.372538 73.842667 
L 532.728796 76.200152 
L 538.53714 79.618003 
L 547.249656 85.090939 
L 558.866344 92.410128 
L 564.674688 95.817986 
L 569.030946 98.177326 
L 573.387204 100.32337 
L 577.743462 102.222784 
L 582.09972 103.844317 
L 586.455978 105.161274 
L 590.812236 106.153996 
L 593.716408 106.62916 
L 596.62058 106.952467 
L 599.524751 107.12331 
L 602.428923 107.142455 
L 605.333095 107.011338 
L 609.689353 106.537564 
L 614.045611 105.742066 
L 618.401869 104.642358 
L 622.758127 103.261808 
L 627.114385 101.629642 
L 631.470643 99.780945 
L 637.278987 97.046008 
L 644.539417 93.320566 
L 664.868621 82.658803 
L 670.676965 79.96479 
L 675.033223 78.146833 
L 679.389481 76.537353 
L 683.745739 75.162044 
L 688.101997 74.041355 
L 692.458255 73.190492 
L 696.814513 72.619317 
L 701.170771 72.333877 
L 705.527029 72.337073 
L 709.883287 72.626129 
L 714.239545 73.192462 
L 718.595803 74.021674 
L 722.952061 75.093559 
L 727.308319 76.382593 
L 731.664577 77.864034 
L 737.472921 80.088037 
L 744.733351 83.160245 
L 769.418812 93.935987 
L 775.227156 96.084672 
L 779.583414 97.507115 
L 783.939672 98.742345 
L 788.29593 99.771441 
L 792.652188 100.579425 
L 797.008446 101.154141 
L 801.364704 101.487992 
L 805.720962 101.578394 
L 810.07722 101.42777 
L 812.981392 101.196916 
L 812.981392 101.196916 
" clip-path="url(#p3842b93070)" style="fill: none; stroke: #000000; stroke-opacity: 0.4; stroke-width: 6; stroke-linecap: square"/>
   </g>
   <g id="matplotlib.axis_1">
    <g id="xtick_1">
     <g id="line2d_2">
      <defs>
       <path id="m80dfa12bcc" d="M 0 0 
L 0 3.5 
" style="stroke: #000000; stroke-width: 0.8"/>
      </defs>
      <g>
       <use xlink:href="#m80dfa12bcc" x="88.390483" y="136.79" style="stroke: #000000; stroke-width: 0.8"/>
      </g>
     </g>
    </g>
    <g id="xtick_2">
     <g id="line2d_3">
      <g>
       <use xlink:href="#m80dfa12bcc" x="233.308665" y="136.79" style="stroke: #000000; stroke-width: 0.8"/>
      </g>
     </g>
    </g>
    <g id="xtick_3">
     <g id="line2d_4">
      <g>
       <use xlink:href="#m80dfa12bcc" x="378.226847" y="136.79" style="stroke: #000000; stroke-width: 0.8"/>
      </g>
     </g>
    </g>
    <g id="xtick_4">
     <g id="line2d_5">
      <g>
       <use xlink:href="#m80dfa12bcc" x="523.145028" y="136.79" style="stroke: #000000; stroke-width: 0.8"/>
      </g>
     </g>
    </g>
    <g id="xtick_5">
     <g id="line2d_6">
      <g>
       <use xlink:href="#m80dfa12bcc" x="668.06321" y="136.79" style="stroke: #000000; stroke-width: 0.8"/>
      </g>
     </g>
    </g>
    <g id="xtick_6">
     <g id="line2d_7">
      <g>
       <use xlink:href="#m80dfa12bcc" x="812.981392" y="136.79" style="stroke: #000000; stroke-width: 0.8"/>
      </g>
     </g>
    </g>
   </g>
   <g id="matplotlib.axis_2">
    <g id="ytick_1">
     <g id="line2d_8">
      <defs>
       <path id="m4233cbd843" d="M 0 0 
L -3.5 0 
" style="stroke: #000000; stroke-width: 0.8"/>
      </defs>
      <g>
       <use xlink:href="#m4233cbd843" x="52.160938" y="115.645129" style="stroke: #000000; stroke-width: 0.8"/>
      </g>
     </g>
     <g id="text_1">
      <!-- −0.5 -->
      <g transform="translate(20.878125 119.444348) scale(0.1 -0.1)">
       <defs>
        <path id="DejaVuSans-2212" d="M 678 2272 
L 4684 2272 
L 4684 1741 
L 678 1741 
L 678 2272 
z
" transform="scale(0.015625)"/>
        <path id="DejaVuSans-30" d="M 2034 4250 
Q 1547 4250 1301 3770 
Q 1056 3291 1056 2328 
Q 1056 1369 1301 889 
Q 1547 409 2034 409 
Q 2525 409 2770 889 
Q 3016 1369 3016 2328 
Q 3016 3291 2770 3770 
Q 2525 4250 2034 4250 
z
M 2034 4750 
Q 2819 4750 3233 4129 
Q 3647 3509 3647 2328 
Q 3647 1150 3233 529 
Q 2819 -91 2034 -91 
Q 1250 -91 836 529 
Q 422 1150 422 2328 
Q 422 3509 836 4129 
Q 1250 4750 2034 4750 
z
" transform="scale(0.015625)"/>
        <path id="DejaVuSans-2e" d="M 684 794 
L 1344 794 
L 1344 0 
L 684 0 
L 684 794 
z
" transform="scale(0.015625)"/>
        <path id="DejaVuSans-35" d="M 691 4666 
L 3169 4666 
L 3169 4134 
L 1269 4134 
L 1269 2991 
Q 1406 3038 1543 3061 
Q 1681 3084 1819 3084 
Q 2600 3084 3056 2656 
Q 3513 2228 3513 1497 
Q 3513 744 3044 326 
Q 2575 -91 1722 -91 
Q 1428 -91 1123 -41 
Q 819 9 494 109 
L 494 744 
Q 775 591 1075 516 
Q 1375 441 1709 441 
Q 2250 441 2565 725 
Q 2881 1009 2881 1497 
Q 2881 1984 2565 2268 
Q 2250 2553 1709 2553 
Q 1456 2553 1204 2497 
Q 953 2441 691 2322 
L 691 4666 
z
" transform="scale(0.015625)"/>
       </defs>
       <use xlink:href="#DejaVuSans-2212"/>
       <use xlink:href="#DejaVuSans-30" transform="translate(83.789062 0)"/>
       <use xlink:href="#DejaVuSans-2e" transform="translate(147.412109 0)"/>
       <use xlink:href="#DejaVuSans-35" transform="translate(179.199219 0)"/>
      </g>
     </g>
    </g>
    <g id="ytick_2">
     <g id="line2d_9">
      <g>
       <use xlink:href="#m4233cbd843" x="52.160938" y="88.216353" style="stroke: #000000; stroke-width: 0.8"/>
      </g>
     </g>
     <g id="text_2">
      <!-- 0.0 -->
      <g transform="translate(29.257812 92.015572) scale(0.1 -0.1)">
       <use xlink:href="#DejaVuSans-30"/>
       <use xlink:href="#DejaVuSans-2e" transform="translate(63.623047 0)"/>
       <use xlink:href="#DejaVuSans-30" transform="translate(95.410156 0)"/>
      </g>
     </g>
    </g>
    <g id="ytick_3">
     <g id="line2d_10">
      <g>
       <use xlink:href="#m4233cbd843" x="52.160938" y="60.787577" style="stroke: #000000; stroke-width: 0.8"/>
      </g>
     </g>
     <g id="text_3">
      <!-- 0.5 -->
      <g transform="translate(29.257812 64.586796) scale(0.1 -0.1)">
       <use xlink:href="#DejaVuSans-30"/>
       <use xlink:href="#DejaVuSans-2e" transform="translate(63.623047 0)"/>
       <use xlink:href="#DejaVuSans-35" transform="translate(95.410156 0)"/>
      </g>
     </g>
    </g>
    <g id="text_4">
     <!-- $x0$ -->
     <g transform="translate(14.798438 94.365) rotate(-90) scale(0.1 -0.1)">
      <defs>
       <path id="DejaVuSans-Oblique-78" d="M 3841 3500 
L 2234 1784 
L 3219 0 
L 2559 0 
L 1819 1388 
L 531 0 
L -166 0 
L 1556 1844 
L 641 3500 
L 1300 3500 
L 1972 2234 
L 3144 3500 
L 3841 3500 
z
" transform="scale(0.015625)"/>
      </defs>
      <use xlink:href="#DejaVuSans-Oblique-78" transform="translate(0 0.78125)"/>
      <use xlink:href="#DejaVuSans-30" transform="translate(59.179688 0.78125)"/>
     </g>
    </g>
   </g>
   <g id="line2d_11">
    <path d="M 88.390483 44.330312 
L 91.294655 44.066517 
L 94.198827 44.156051 
L 97.102999 44.597562 
L 100.007171 45.388085 
L 102.911343 46.52101 
L 105.815515 47.987173 
L 108.719687 49.775309 
L 111.623859 51.870089 
L 114.528031 54.254304 
L 117.432203 56.908348 
L 120.336375 59.812234 
L 124.692633 64.58937 
L 129.048891 69.793645 
L 133.405149 75.3295 
L 140.665579 85.019724 
L 152.282267 100.650705 
L 156.638524 106.208819 
L 160.994782 111.443073 
L 165.35104 116.257418 
L 168.255212 119.189924 
L 171.159384 121.874971 
L 174.063556 124.292411 
L 176.967728 126.422999 
L 179.8719 128.248333 
L 182.776072 129.753759 
L 185.680244 130.927174 
L 188.584416 131.758762 
L 191.488588 132.242525 
L 194.39276 132.373948 
L 197.296932 132.152406 
L 200.201104 131.579652 
L 203.105276 130.659867 
L 206.009448 129.401045 
L 208.91362 127.812591 
L 211.817792 125.907817 
L 214.721964 123.702389 
L 217.626136 121.214783 
L 220.530308 118.464873 
L 223.43448 115.47238 
L 227.790738 110.580127 
L 232.146996 105.283837 
L 237.95534 97.761944 
L 248.119942 84.015567 
L 255.380372 74.369086 
L 259.73663 68.882645 
L 264.092888 63.744245 
L 268.449146 59.049216 
L 271.353318 56.206907 
L 274.25749 53.619826 
L 277.161662 51.30758 
L 280.065834 49.289329 
L 282.970006 47.582327 
L 285.874178 46.199852 
L 288.77835 45.153691 
L 291.682522 44.45169 
L 294.586694 44.099572 
L 297.490866 44.100478 
L 300.395038 44.453794 
L 303.299209 45.157394 
L 306.203381 46.205114 
L 309.107553 47.588707 
L 312.011725 49.297386 
L 314.915897 51.316703 
L 317.820069 53.630149 
L 320.724241 56.218377 
L 323.628413 59.06151 
L 326.532585 62.139174 
L 330.888843 67.141076 
L 335.245101 72.523227 
L 341.053445 80.120893 
L 359.930563 105.299274 
L 364.286821 110.594483 
L 368.643079 115.485438 
L 371.547251 118.476828 
L 374.451423 121.225823 
L 377.355595 123.712268 
L 380.259767 125.916655 
L 383.163939 127.819948 
L 386.068111 129.406939 
L 388.972283 130.664597 
L 391.876455 131.582623 
L 394.780627 132.154217 
L 397.684799 132.374091 
L 400.588971 132.241105 
L 403.493143 131.756098 
L 406.397315 130.922744 
L 409.301487 129.748227 
L 412.205659 128.241228 
L 415.109831 126.414519 
L 418.014003 124.282852 
L 420.918175 121.864153 
L 423.822347 119.178243 
L 426.726519 116.244449 
L 431.082777 111.428883 
L 435.439035 106.193504 
L 439.795293 100.634699 
L 447.055723 90.92509 
L 458.67241 75.313557 
L 463.028668 69.778483 
L 467.384926 64.575103 
L 471.741184 59.799746 
L 474.645356 56.896633 
L 477.549528 54.24368 
L 480.4537 51.86064 
L 483.357872 49.766973 
L 486.262044 47.980504 
L 489.166216 46.515383 
L 492.070388 45.384099 
L 494.97456 44.595055 
L 497.878732 44.15484 
L 500.782904 44.067104 
L 503.687076 44.33209 
L 506.591248 44.948375 
L 509.49542 45.910376 
L 512.399592 47.210702 
L 515.303764 48.839038 
L 518.207936 50.781822 
L 521.112108 53.023323 
L 524.01628 55.544476 
L 526.920452 58.325589 
L 529.824624 61.346529 
L 534.180882 66.275617 
L 538.53714 71.600905 
L 544.345484 79.148789 
L 564.674688 106.202798 
L 569.030946 111.437642 
L 573.387204 116.252289 
L 576.291376 119.185304 
L 579.195548 121.870717 
L 582.09972 124.288685 
L 585.003892 126.419646 
L 587.908064 128.245512 
L 590.812236 129.751668 
L 593.716408 130.925315 
L 596.62058 131.757727 
L 599.524751 132.241912 
L 602.428923 132.373958 
L 605.333095 132.153177 
L 608.237267 131.58068 
L 611.141439 130.661716 
L 614.045611 129.403276 
L 616.949783 127.815424 
L 619.853955 125.911288 
L 622.758127 123.706203 
L 625.662299 121.219063 
L 628.566471 118.469434 
L 631.470643 115.477414 
L 635.826901 110.585689 
L 640.183159 105.28985 
L 645.991503 97.768284 
L 656.156105 84.022022 
L 663.416535 74.375232 
L 667.772793 68.888529 
L 672.129051 63.749838 
L 676.485309 59.054004 
L 679.389481 56.211399 
L 682.293653 53.623857 
L 685.197825 51.311029 
L 688.101997 49.292604 
L 691.006169 47.584818 
L 693.910341 46.20199 
L 696.814513 45.155173 
L 699.718685 44.452457 
L 702.622857 44.10006 
L 705.527029 44.100129 
L 708.431201 44.453071 
L 711.335373 45.155992 
L 714.239545 46.20302 
L 717.143717 47.586355 
L 720.047889 49.294242 
L 722.952061 51.313185 
L 725.856233 53.62618 
L 728.760405 56.213857 
L 731.664577 59.056897 
L 734.568749 62.133848 
L 738.925007 67.13542 
L 743.281265 72.51714 
L 749.089608 80.114493 
L 767.966726 105.293219 
L 772.322984 110.588947 
L 776.679242 115.480342 
L 779.583414 118.472146 
L 782.487586 121.221507 
L 785.391758 123.708455 
L 788.29593 125.913101 
L 791.200102 127.817052 
L 794.104274 129.404681 
L 797.008446 130.662628 
L 799.912618 131.581488 
L 802.81679 132.153387 
L 805.720962 132.373998 
L 808.625134 132.241623 
L 811.529306 131.757056 
L 812.981392 131.383932 
L 812.981392 131.383932 
" clip-path="url(#p3842b93070)" style="fill: none; stroke-dasharray: 22.4,5.6,3.5,5.6; stroke-dashoffset: 0; stroke: #0000ff; stroke-opacity: 0.8; stroke-width: 3.5"/>
   </g>
   <g id="patch_3">
    <path d="M 52.160938 136.79 
L 52.160938 39.64 
" style="fill: none; stroke: #000000; stroke-width: 0.8; stroke-linejoin: miter; stroke-linecap: square"/>
   </g>
   <g id="patch_4">
    <path d="M 849.210937 136.79 
L 849.210937 39.64 
" style="fill: none; stroke: #000000; stroke-width: 0.8; stroke-linejoin: miter; stroke-linecap: square"/>
   </g>
   <g id="patch_5">
    <path d="M 52.160938 136.79 
L 849.210938 136.79 
" style="fill: none; stroke: #000000; stroke-width: 0.8; stroke-linejoin: miter; stroke-linecap: square"/>
   </g>
   <g id="patch_6">
    <path d="M 52.160938 39.64 
L 849.210938 39.64 
" style="fill: none; stroke: #000000; stroke-width: 0.8; stroke-linejoin: miter; stroke-linecap: square"/>
   </g>
   <g id="line2d_12">
    <path d="M 88.390483 44.330312 
L 91.294655 44.067192 
L 94.198827 44.157354 
L 97.102999 44.5999 
L 100.007171 45.391252 
L 102.911343 46.523833 
L 105.815515 47.986685 
L 108.719687 49.763774 
L 111.623859 51.836703 
L 114.528031 54.182815 
L 117.432203 56.778036 
L 120.336375 59.596575 
L 124.692633 64.184809 
L 129.048891 69.12463 
L 134.857235 76.099387 
L 153.734353 99.275757 
L 158.09061 104.170019 
L 162.446868 108.7019 
L 165.35104 111.483713 
L 168.255212 114.05076 
L 171.159384 116.386059 
L 174.063556 118.475606 
L 176.967728 120.30681 
L 179.8719 121.869924 
L 182.776072 123.156277 
L 185.680244 124.15877 
L 188.584416 124.871986 
L 191.488588 125.291214 
L 194.39276 125.414171 
L 197.296932 125.239873 
L 200.201104 124.769549 
L 203.105276 124.007728 
L 206.009448 122.960623 
L 208.91362 121.639026 
L 211.817792 120.055732 
L 214.721964 118.226721 
L 217.626136 116.170779 
L 220.530308 113.908082 
L 224.886566 110.175499 
L 229.242824 106.106792 
L 235.051168 100.300831 
L 243.763684 91.176408 
L 252.4762 82.141155 
L 258.284544 76.480824 
L 262.640802 72.548729 
L 266.99706 68.956099 
L 271.353318 65.75775 
L 274.25749 63.86763 
L 277.161662 62.185104 
L 280.065834 60.720294 
L 282.970006 59.481725 
L 285.874178 58.477103 
L 288.77835 57.712231 
L 291.682522 57.192078 
L 294.586694 56.920133 
L 297.490866 56.898018 
L 300.395038 57.126359 
L 303.299209 57.602791 
L 306.203381 58.323531 
L 309.107553 59.282212 
L 312.011725 60.469683 
L 314.915897 61.875183 
L 317.820069 63.484672 
L 320.724241 65.282854 
L 325.080499 68.295512 
L 329.436757 71.629239 
L 335.245101 76.454251 
L 342.505531 82.857167 
L 354.122219 93.178614 
L 359.930563 98.030618 
L 364.286821 101.413534 
L 368.643079 104.516332 
L 372.999337 107.291244 
L 377.355595 109.697173 
L 380.259767 111.078457 
L 383.163939 112.271415 
L 386.068111 113.268289 
L 388.972283 114.062661 
L 391.876455 114.649448 
L 394.780627 115.024362 
L 397.684799 115.185113 
L 400.588971 115.130339 
L 403.493143 114.860484 
L 406.397315 114.377946 
L 409.301487 113.686386 
L 412.205659 112.792335 
L 415.109831 111.703551 
L 418.014003 110.430111 
L 422.370261 108.200223 
L 426.726519 105.628823 
L 431.082777 102.769502 
L 436.891121 98.610854 
L 444.151551 93.062632 
L 457.220324 82.970484 
L 463.028668 78.785228 
L 467.384926 75.879257 
L 471.741184 73.224965 
L 476.097442 70.863954 
L 480.4537 68.831991 
L 483.357872 67.675524 
L 486.262044 66.686661 
L 489.166216 65.872253 
L 492.070388 65.237562 
L 494.97456 64.787209 
L 497.878732 64.524305 
L 500.782904 64.450685 
L 503.687076 64.567187 
L 506.591248 64.872501 
L 509.49542 65.364429 
L 512.399592 66.038668 
L 515.303764 66.889301 
L 518.207936 67.909074 
L 522.564194 69.73476 
L 526.920452 71.882368 
L 531.27671 74.307696 
L 535.632968 76.961602 
L 541.441312 80.764039 
L 551.605914 87.775451 
L 560.31843 93.696793 
L 566.126774 97.381412 
L 570.483032 99.927934 
L 574.83929 102.24254 
L 579.195548 104.288596 
L 583.551806 106.034071 
L 587.908064 107.452126 
L 590.812236 108.204302 
L 593.716408 108.79585 
L 596.62058 109.222308 
L 599.524751 109.480735 
L 602.428923 109.56923 
L 605.333095 109.486907 
L 608.237267 109.234755 
L 611.141439 108.814502 
L 614.045611 108.229864 
L 616.949783 107.485827 
L 621.306041 106.085178 
L 625.662299 104.368531 
L 630.018557 102.370354 
L 634.374815 100.130674 
L 640.183159 96.846544 
L 647.443589 92.42383 
L 663.416535 82.534937 
L 669.224879 79.23895 
L 673.581137 76.972723 
L 677.937395 74.924367 
L 682.293653 73.126552 
L 686.649911 71.608056 
L 691.006169 70.392868 
L 695.362427 69.500377 
L 698.266599 69.092159 
L 701.170771 68.836886 
L 704.074943 68.736502 
L 706.979115 68.791931 
L 709.883287 69.002449 
L 712.787459 69.36667 
L 717.143717 70.193765 
L 721.499975 71.343642 
L 725.856233 72.79362 
L 730.212491 74.51534 
L 734.568749 76.474564 
L 740.377093 79.388924 
L 747.637522 83.374211 
L 767.966726 94.84468 
L 773.77507 97.759886 
L 778.131328 99.734627 
L 782.487586 101.491764 
L 786.843844 103.002657 
L 791.200102 104.243126 
L 795.55636 105.192894 
L 799.912618 105.836481 
L 804.268876 106.163227 
L 808.625134 106.167333 
L 812.981392 105.849033 
L 812.981392 105.849033 
" clip-path="url(#p3842b93070)" style="fill: none; stroke-dasharray: 3.5,5.775; stroke-dashoffset: 0; stroke: #008000; stroke-opacity: 0.8; stroke-width: 3.5"/>
   </g>
   <g id="line2d_13">
    <path d="M 88.390483 44.330312 
L 91.294655 44.068945 
L 94.198827 44.162694 
L 97.102999 44.606887 
L 100.007171 45.395262 
L 102.911343 46.518044 
L 105.815515 47.963089 
L 108.719687 49.716252 
L 111.623859 51.760152 
L 114.528031 54.076195 
L 117.432203 56.643134 
L 120.336375 59.438131 
L 124.692633 64.004675 
L 129.048891 68.941 
L 134.857235 75.935861 
L 153.734353 99.253376 
L 158.09061 104.189831 
L 162.446868 108.771599 
L 166.803126 112.921345 
L 169.707298 115.414017 
L 172.61147 117.666172 
L 175.515642 119.66237 
L 178.419814 121.389081 
L 181.323986 122.834666 
L 184.228158 123.990761 
L 187.13233 124.850281 
L 190.036502 125.409486 
L 192.940674 125.666699 
L 195.844846 125.622331 
L 198.749018 125.280082 
L 201.65319 124.644927 
L 204.557362 123.725012 
L 207.461534 122.530294 
L 210.365706 121.072603 
L 213.269878 119.366442 
L 216.17405 117.427335 
L 219.078222 115.273198 
L 223.43448 111.681007 
L 227.790738 107.718818 
L 232.146996 103.4626 
L 237.95534 97.469652 
L 255.380372 79.189059 
L 259.73663 74.979724 
L 264.092888 71.065928 
L 268.449146 67.513892 
L 271.353318 65.375804 
L 274.25749 63.440157 
L 277.161662 61.720187 
L 280.065834 60.227673 
L 282.970006 58.972653 
L 285.874178 57.962492 
L 288.77835 57.203483 
L 291.682522 56.698957 
L 294.586694 56.450661 
L 297.490866 56.458417 
L 300.395038 56.719356 
L 303.299209 57.229521 
L 306.203381 57.98215 
L 309.107553 58.96908 
L 312.011725 60.180418 
L 314.915897 61.604081 
L 317.820069 63.227092 
L 320.724241 65.034365 
L 325.080499 68.05535 
L 329.436757 71.395136 
L 333.793015 74.98962 
L 339.601359 80.060553 
L 357.026391 95.588355 
L 361.382649 99.177213 
L 365.738907 102.519926 
L 370.095165 105.559815 
L 374.451423 108.247014 
L 377.355595 109.820679 
L 380.259767 111.207438 
L 383.163939 112.397541 
L 386.068111 113.383682 
L 388.972283 114.159764 
L 391.876455 114.721406 
L 394.780627 115.066457 
L 397.684799 115.193738 
L 400.588971 115.104638 
L 403.493143 114.801742 
L 406.397315 114.289347 
L 409.301487 113.573779 
L 412.205659 112.662268 
L 415.109831 111.564232 
L 418.014003 110.290044 
L 422.370261 108.074604 
L 426.726519 105.534509 
L 431.082777 102.719813 
L 436.891121 98.633754 
L 444.151551 93.184702 
L 457.220324 83.26267 
L 463.028668 79.146813 
L 467.384926 76.292271 
L 471.741184 73.69113 
L 476.097442 71.386148 
L 480.4537 69.414668 
L 483.357872 68.300964 
L 486.262044 67.35668 
L 489.166216 66.587533 
L 492.070388 65.9984 
L 494.97456 65.591961 
L 497.878732 65.369914 
L 500.782904 65.332377 
L 503.687076 65.477701 
L 506.591248 65.803371 
L 509.49542 66.304783 
L 512.399592 66.976451 
L 515.303764 67.811464 
L 519.660022 69.35182 
L 524.01628 71.208497 
L 528.372538 73.343812 
L 532.728796 75.715583 
L 538.53714 79.16642 
L 545.79757 83.779557 
L 560.31843 93.107171 
L 566.126774 96.548478 
L 570.483032 98.919523 
L 574.83929 101.065875 
L 579.195548 102.952254 
L 583.551806 104.548646 
L 587.908064 105.830231 
L 592.264322 106.778733 
L 595.168494 107.219539 
L 598.072666 107.504674 
L 600.976837 107.633018 
L 603.881009 107.605304 
L 606.785181 107.423051 
L 611.141439 106.866608 
L 615.497697 105.983993 
L 619.853955 104.795674 
L 624.210213 103.326971 
L 628.566471 101.608275 
L 632.922729 99.67375 
L 638.731073 96.824123 
L 645.991503 92.964278 
L 663.416535 83.489938 
L 669.224879 80.616536 
L 673.581137 78.650235 
L 677.937395 76.882508 
L 682.293653 75.342443 
L 686.649911 74.054241 
L 691.006169 73.037553 
L 695.362427 72.306815 
L 699.718685 71.870979 
L 704.074943 71.733988 
L 708.431201 71.893911 
L 712.787459 72.343841 
L 717.143717 73.07171 
L 721.499975 74.060487 
L 725.856233 75.289019 
L 730.212491 76.731823 
L 736.020835 78.938713 
L 741.829179 81.398982 
L 750.541694 85.38231 
L 765.062554 92.077745 
L 770.870898 94.528365 
L 776.679242 96.733363 
L 781.0355 98.186216 
L 785.391758 99.440345 
L 789.748016 100.475997 
L 794.104274 101.277834 
L 798.460532 101.834549 
L 802.81679 102.139754 
L 807.173048 102.191442 
L 811.529306 101.992176 
L 812.981392 101.871107 
L 812.981392 101.871107 
" clip-path="url(#p3842b93070)" style="fill: none; stroke-dasharray: 12.95,5.6; stroke-dashoffset: 0; stroke: #ff0000; stroke-opacity: 0.8; stroke-width: 3.5"/>
   </g>
  </g>
  <g id="axes_2">
   <g id="patch_7">
    <path d="M 52.160938 248.24 
L 849.210937 248.24 
L 849.210937 151.09 
L 52.160938 151.09 
z
" style="fill: #ffffff"/>
   </g>
   <g id="line2d_14">
    <path d="M 88.390483 194.750104 
L 98.555085 208.505843 
L 102.911343 214.108728 
L 107.267601 219.38522 
L 111.623859 224.23945 
L 114.528031 227.197046 
L 117.432203 229.905882 
L 120.336375 232.343613 
L 123.240547 234.490186 
L 126.144719 236.329221 
L 129.048891 237.848007 
L 131.953063 239.037509 
L 134.857235 239.892359 
L 137.761407 240.410865 
L 140.665579 240.595003 
L 143.569751 240.45037 
L 146.473923 239.983373 
L 149.378095 239.201488 
L 152.282267 238.114669 
L 155.186439 236.734816 
L 158.09061 235.075774 
L 160.994782 233.153333 
L 163.898954 230.985229 
L 166.803126 228.591142 
L 171.159384 224.624131 
L 175.515642 220.278224 
L 179.8719 215.626876 
L 185.680244 209.091888 
L 203.105276 189.183258 
L 207.461534 184.603284 
L 211.817792 180.350121 
L 216.17405 176.50498 
L 219.078222 174.203316 
L 221.982394 172.131833 
L 224.886566 170.305411 
L 227.790738 168.736328 
L 230.69491 167.434267 
L 233.599082 166.406308 
L 236.503254 165.656811 
L 239.407426 165.187787 
L 242.311598 165.000232 
L 245.21577 165.092919 
L 248.119942 165.462285 
L 251.024114 166.102428 
L 253.928286 167.005111 
L 256.832458 168.15976 
L 259.73663 169.553461 
L 262.640802 171.170967 
L 265.544974 172.99469 
L 268.449146 175.006733 
L 272.805404 178.34638 
L 277.161662 182.015615 
L 281.51792 185.947385 
L 287.326264 191.476182 
L 304.751295 208.335285 
L 309.107553 212.212705 
L 313.463811 215.809342 
L 317.820069 219.063352 
L 320.724241 221.015178 
L 323.628413 222.776124 
L 326.532585 224.333391 
L 329.436757 225.676624 
L 332.340929 226.797783 
L 335.245101 227.688962 
L 338.149273 228.344543 
L 341.053445 228.761251 
L 343.957617 228.938152 
L 346.861789 228.876651 
L 349.765961 228.580498 
L 352.670133 228.055781 
L 355.574305 227.310932 
L 358.478477 226.356611 
L 361.382649 225.201872 
L 364.286821 223.856944 
L 367.190993 222.334216 
L 371.547251 219.746357 
L 375.903509 216.838392 
L 380.259767 213.665 
L 386.068111 209.125062 
L 394.780627 201.958331 
L 403.493143 194.820297 
L 409.301487 190.331142 
L 413.657745 187.205334 
L 418.014003 184.346837 
L 422.370261 181.804933 
L 426.726519 179.620316 
L 429.630691 178.381502 
L 432.534863 177.327456 
L 435.439035 176.465106 
L 438.343207 175.799391 
L 441.247379 175.33326 
L 444.151551 175.067676 
L 447.055723 175.001612 
L 449.959895 175.132131 
L 452.864066 175.455929 
L 455.768238 175.968771 
L 458.67241 176.664935 
L 461.576582 177.537376 
L 464.480754 178.577729 
L 468.837012 180.431541 
L 473.19327 182.602781 
L 477.549528 185.046491 
L 483.357872 188.641066 
L 489.166216 192.515491 
L 510.947506 207.364491 
L 515.303764 210.006802 
L 519.660022 212.426897 
L 524.01628 214.581047 
L 528.372538 216.432895 
L 532.728796 217.953505 
L 535.632968 218.772297 
L 538.53714 219.429617 
L 541.441312 219.922406 
L 544.345484 220.249077 
L 547.249656 220.408402 
L 550.153828 220.400272 
L 553.058 220.226017 
L 555.962172 219.888403 
L 558.866344 219.391632 
L 563.222602 218.360782 
L 567.57886 217.009944 
L 571.935118 215.371479 
L 576.291376 213.480754 
L 580.647634 211.371689 
L 586.455978 208.290375 
L 593.716408 204.149333 
L 609.689353 194.897381 
L 615.497697 191.819944 
L 619.853955 189.711315 
L 624.210213 187.813127 
L 628.566471 186.155947 
L 632.922729 184.765753 
L 637.278987 183.662629 
L 641.635245 182.862445 
L 645.991503 182.376982 
L 650.347761 182.211178 
L 654.704019 182.363112 
L 659.060277 182.82401 
L 663.416535 183.578243 
L 667.772793 184.606008 
L 672.129051 185.88674 
L 676.485309 187.394268 
L 680.841567 189.099183 
L 686.649911 191.622658 
L 693.910341 195.056406 
L 714.239545 204.868968 
L 720.047889 207.342826 
L 724.404147 209.010591 
L 728.760405 210.486398 
L 733.116663 211.747252 
L 737.472921 212.771775 
L 741.829179 213.544104 
L 746.185436 214.054119 
L 750.541694 214.297437 
L 754.897952 214.275417 
L 759.25421 213.993934 
L 763.610468 213.461131 
L 767.966726 212.689374 
L 772.322984 211.695136 
L 776.679242 210.498992 
L 782.487586 208.633306 
L 788.29593 206.522498 
L 795.55636 203.647066 
L 812.981392 196.515913 
L 812.981392 196.515913 
" clip-path="url(#p53229c04f5)" style="fill: none; stroke: #000000; stroke-opacity: 0.4; stroke-width: 6; stroke-linecap: square"/>
   </g>
   <g id="matplotlib.axis_3">
    <g id="xtick_7">
     <g id="line2d_15">
      <g>
       <use xlink:href="#m80dfa12bcc" x="88.390483" y="248.24" style="stroke: #000000; stroke-width: 0.8"/>
      </g>
     </g>
     <g id="text_5">
      <!-- 0 -->
      <g transform="translate(85.209233 262.838437) scale(0.1 -0.1)">
       <use xlink:href="#DejaVuSans-30"/>
      </g>
     </g>
    </g>
    <g id="xtick_8">
     <g id="line2d_16">
      <g>
       <use xlink:href="#m80dfa12bcc" x="233.308665" y="248.24" style="stroke: #000000; stroke-width: 0.8"/>
      </g>
     </g>
     <g id="text_6">
      <!-- 2 -->
      <g transform="translate(230.127415 262.838437) scale(0.1 -0.1)">
       <defs>
        <path id="DejaVuSans-32" d="M 1228 531 
L 3431 531 
L 3431 0 
L 469 0 
L 469 531 
Q 828 903 1448 1529 
Q 2069 2156 2228 2338 
Q 2531 2678 2651 2914 
Q 2772 3150 2772 3378 
Q 2772 3750 2511 3984 
Q 2250 4219 1831 4219 
Q 1534 4219 1204 4116 
Q 875 4013 500 3803 
L 500 4441 
Q 881 4594 1212 4672 
Q 1544 4750 1819 4750 
Q 2544 4750 2975 4387 
Q 3406 4025 3406 3419 
Q 3406 3131 3298 2873 
Q 3191 2616 2906 2266 
Q 2828 2175 2409 1742 
Q 1991 1309 1228 531 
z
" transform="scale(0.015625)"/>
       </defs>
       <use xlink:href="#DejaVuSans-32"/>
      </g>
     </g>
    </g>
    <g id="xtick_9">
     <g id="line2d_17">
      <g>
       <use xlink:href="#m80dfa12bcc" x="378.226847" y="248.24" style="stroke: #000000; stroke-width: 0.8"/>
      </g>
     </g>
     <g id="text_7">
      <!-- 4 -->
      <g transform="translate(375.045597 262.838437) scale(0.1 -0.1)">
       <defs>
        <path id="DejaVuSans-34" d="M 2419 4116 
L 825 1625 
L 2419 1625 
L 2419 4116 
z
M 2253 4666 
L 3047 4666 
L 3047 1625 
L 3713 1625 
L 3713 1100 
L 3047 1100 
L 3047 0 
L 2419 0 
L 2419 1100 
L 313 1100 
L 313 1709 
L 2253 4666 
z
" transform="scale(0.015625)"/>
       </defs>
       <use xlink:href="#DejaVuSans-34"/>
      </g>
     </g>
    </g>
    <g id="xtick_10">
     <g id="line2d_18">
      <g>
       <use xlink:href="#m80dfa12bcc" x="523.145028" y="248.24" style="stroke: #000000; stroke-width: 0.8"/>
      </g>
     </g>
     <g id="text_8">
      <!-- 6 -->
      <g transform="translate(519.963778 262.838437) scale(0.1 -0.1)">
       <defs>
        <path id="DejaVuSans-36" d="M 2113 2584 
Q 1688 2584 1439 2293 
Q 1191 2003 1191 1497 
Q 1191 994 1439 701 
Q 1688 409 2113 409 
Q 2538 409 2786 701 
Q 3034 994 3034 1497 
Q 3034 2003 2786 2293 
Q 2538 2584 2113 2584 
z
M 3366 4563 
L 3366 3988 
Q 3128 4100 2886 4159 
Q 2644 4219 2406 4219 
Q 1781 4219 1451 3797 
Q 1122 3375 1075 2522 
Q 1259 2794 1537 2939 
Q 1816 3084 2150 3084 
Q 2853 3084 3261 2657 
Q 3669 2231 3669 1497 
Q 3669 778 3244 343 
Q 2819 -91 2113 -91 
Q 1303 -91 875 529 
Q 447 1150 447 2328 
Q 447 3434 972 4092 
Q 1497 4750 2381 4750 
Q 2619 4750 2861 4703 
Q 3103 4656 3366 4563 
z
" transform="scale(0.015625)"/>
       </defs>
       <use xlink:href="#DejaVuSans-36"/>
      </g>
     </g>
    </g>
    <g id="xtick_11">
     <g id="line2d_19">
      <g>
       <use xlink:href="#m80dfa12bcc" x="668.06321" y="248.24" style="stroke: #000000; stroke-width: 0.8"/>
      </g>
     </g>
     <g id="text_9">
      <!-- 8 -->
      <g transform="translate(664.88196 262.838437) scale(0.1 -0.1)">
       <defs>
        <path id="DejaVuSans-38" d="M 2034 2216 
Q 1584 2216 1326 1975 
Q 1069 1734 1069 1313 
Q 1069 891 1326 650 
Q 1584 409 2034 409 
Q 2484 409 2743 651 
Q 3003 894 3003 1313 
Q 3003 1734 2745 1975 
Q 2488 2216 2034 2216 
z
M 1403 2484 
Q 997 2584 770 2862 
Q 544 3141 544 3541 
Q 544 4100 942 4425 
Q 1341 4750 2034 4750 
Q 2731 4750 3128 4425 
Q 3525 4100 3525 3541 
Q 3525 3141 3298 2862 
Q 3072 2584 2669 2484 
Q 3125 2378 3379 2068 
Q 3634 1759 3634 1313 
Q 3634 634 3220 271 
Q 2806 -91 2034 -91 
Q 1263 -91 848 271 
Q 434 634 434 1313 
Q 434 1759 690 2068 
Q 947 2378 1403 2484 
z
M 1172 3481 
Q 1172 3119 1398 2916 
Q 1625 2713 2034 2713 
Q 2441 2713 2670 2916 
Q 2900 3119 2900 3481 
Q 2900 3844 2670 4047 
Q 2441 4250 2034 4250 
Q 1625 4250 1398 4047 
Q 1172 3844 1172 3481 
z
" transform="scale(0.015625)"/>
       </defs>
       <use xlink:href="#DejaVuSans-38"/>
      </g>
     </g>
    </g>
    <g id="xtick_12">
     <g id="line2d_20">
      <g>
       <use xlink:href="#m80dfa12bcc" x="812.981392" y="248.24" style="stroke: #000000; stroke-width: 0.8"/>
      </g>
     </g>
     <g id="text_10">
      <!-- 10 -->
      <g transform="translate(806.618892 262.838437) scale(0.1 -0.1)">
       <defs>
        <path id="DejaVuSans-31" d="M 794 531 
L 1825 531 
L 1825 4091 
L 703 3866 
L 703 4441 
L 1819 4666 
L 2450 4666 
L 2450 531 
L 3481 531 
L 3481 0 
L 794 0 
L 794 531 
z
" transform="scale(0.015625)"/>
       </defs>
       <use xlink:href="#DejaVuSans-31"/>
       <use xlink:href="#DejaVuSans-30" transform="translate(63.623047 0)"/>
      </g>
     </g>
    </g>
    <g id="text_11">
     <!-- Time -->
     <g transform="translate(438.452344 276.516562) scale(0.1 -0.1)">
      <defs>
       <path id="DejaVuSans-54" d="M -19 4666 
L 3928 4666 
L 3928 4134 
L 2272 4134 
L 2272 0 
L 1638 0 
L 1638 4134 
L -19 4134 
L -19 4666 
z
" transform="scale(0.015625)"/>
       <path id="DejaVuSans-69" d="M 603 3500 
L 1178 3500 
L 1178 0 
L 603 0 
L 603 3500 
z
M 603 4863 
L 1178 4863 
L 1178 4134 
L 603 4134 
L 603 4863 
z
" transform="scale(0.015625)"/>
       <path id="DejaVuSans-6d" d="M 3328 2828 
Q 3544 3216 3844 3400 
Q 4144 3584 4550 3584 
Q 5097 3584 5394 3201 
Q 5691 2819 5691 2113 
L 5691 0 
L 5113 0 
L 5113 2094 
Q 5113 2597 4934 2840 
Q 4756 3084 4391 3084 
Q 3944 3084 3684 2787 
Q 3425 2491 3425 1978 
L 3425 0 
L 2847 0 
L 2847 2094 
Q 2847 2600 2669 2842 
Q 2491 3084 2119 3084 
Q 1678 3084 1418 2786 
Q 1159 2488 1159 1978 
L 1159 0 
L 581 0 
L 581 3500 
L 1159 3500 
L 1159 2956 
Q 1356 3278 1631 3431 
Q 1906 3584 2284 3584 
Q 2666 3584 2933 3390 
Q 3200 3197 3328 2828 
z
" transform="scale(0.015625)"/>
       <path id="DejaVuSans-65" d="M 3597 1894 
L 3597 1613 
L 953 1613 
Q 991 1019 1311 708 
Q 1631 397 2203 397 
Q 2534 397 2845 478 
Q 3156 559 3463 722 
L 3463 178 
Q 3153 47 2828 -22 
Q 2503 -91 2169 -91 
Q 1331 -91 842 396 
Q 353 884 353 1716 
Q 353 2575 817 3079 
Q 1281 3584 2069 3584 
Q 2775 3584 3186 3129 
Q 3597 2675 3597 1894 
z
M 3022 2063 
Q 3016 2534 2758 2815 
Q 2500 3097 2075 3097 
Q 1594 3097 1305 2825 
Q 1016 2553 972 2059 
L 3022 2063 
z
" transform="scale(0.015625)"/>
      </defs>
      <use xlink:href="#DejaVuSans-54"/>
      <use xlink:href="#DejaVuSans-69" transform="translate(57.958984 0)"/>
      <use xlink:href="#DejaVuSans-6d" transform="translate(85.742188 0)"/>
      <use xlink:href="#DejaVuSans-65" transform="translate(183.154297 0)"/>
     </g>
    </g>
   </g>
   <g id="matplotlib.axis_4">
    <g id="ytick_4">
     <g id="line2d_21">
      <g>
       <use xlink:href="#m4233cbd843" x="52.160938" y="224.239276" style="stroke: #000000; stroke-width: 0.8"/>
      </g>
     </g>
     <g id="text_12">
      <!-- −1 -->
      <g transform="translate(30.41875 228.038494) scale(0.1 -0.1)">
       <use xlink:href="#DejaVuSans-2212"/>
       <use xlink:href="#DejaVuSans-31" transform="translate(83.789062 0)"/>
      </g>
     </g>
    </g>
    <g id="ytick_5">
     <g id="line2d_22">
      <g>
       <use xlink:href="#m4233cbd843" x="52.160938" y="199.664966" style="stroke: #000000; stroke-width: 0.8"/>
      </g>
     </g>
     <g id="text_13">
      <!-- 0 -->
      <g transform="translate(38.798438 203.464185) scale(0.1 -0.1)">
       <use xlink:href="#DejaVuSans-30"/>
      </g>
     </g>
    </g>
    <g id="ytick_6">
     <g id="line2d_23">
      <g>
       <use xlink:href="#m4233cbd843" x="52.160938" y="175.090657" style="stroke: #000000; stroke-width: 0.8"/>
      </g>
     </g>
     <g id="text_14">
      <!-- 1 -->
      <g transform="translate(38.798438 178.889875) scale(0.1 -0.1)">
       <use xlink:href="#DejaVuSans-31"/>
      </g>
     </g>
    </g>
    <g id="text_15">
     <!-- $x1$ -->
     <g transform="translate(24.339063 205.815) rotate(-90) scale(0.1 -0.1)">
      <use xlink:href="#DejaVuSans-Oblique-78" transform="translate(0 0.09375)"/>
      <use xlink:href="#DejaVuSans-31" transform="translate(59.179688 0.09375)"/>
     </g>
    </g>
   </g>
   <g id="line2d_24">
    <path d="M 88.390483 194.750104 
L 101.459257 212.33139 
L 105.815515 217.875591 
L 110.171773 223.092282 
L 114.528031 227.888039 
L 117.432203 230.808567 
L 120.336375 233.480537 
L 123.240547 235.88213 
L 126.144719 237.994556 
L 129.048891 239.800306 
L 131.953063 241.285204 
L 134.857235 242.437443 
L 137.761407 243.247345 
L 140.665579 243.709097 
L 143.569751 243.818399 
L 146.473923 243.574735 
L 149.378095 242.980095 
L 152.282267 242.038789 
L 155.186439 240.758987 
L 158.09061 239.150333 
L 160.994782 237.226053 
L 163.898954 235.001587 
L 166.803126 232.494544 
L 169.707298 229.725566 
L 172.61147 226.716351 
L 176.967728 221.805409 
L 181.323986 216.496401 
L 187.13233 208.964496 
L 197.296932 195.219535 
L 204.557362 185.588731 
L 208.91362 180.117227 
L 213.269878 174.99703 
L 217.626136 170.320256 
L 220.530308 167.490111 
L 223.43448 164.91713 
L 226.338652 162.621658 
L 229.242824 160.622201 
L 232.146996 158.935181 
L 235.051168 157.57351 
L 237.95534 156.548723 
L 240.859512 155.868552 
L 243.763684 155.538494 
L 246.667856 155.56156 
L 249.572028 155.936934 
L 252.4762 156.662293 
L 255.380372 157.731349 
L 258.284544 159.13564 
L 261.188716 160.864258 
L 264.092888 162.902807 
L 266.99706 165.235475 
L 269.901232 167.843047 
L 272.805404 170.704684 
L 275.709576 173.797781 
L 280.065834 178.816634 
L 284.422092 184.210345 
L 290.230436 191.816573 
L 307.655467 215.13526 
L 312.011725 220.527924 
L 316.367983 225.545752 
L 319.272155 228.637728 
L 322.176327 231.498549 
L 325.080499 234.104904 
L 327.984671 236.436272 
L 330.888843 238.473773 
L 333.793015 240.200757 
L 336.697187 241.603938 
L 339.601359 242.671411 
L 342.505531 243.395198 
L 345.409703 243.769352 
L 348.313875 243.790607 
L 351.218047 243.459367 
L 354.122219 242.77757 
L 357.026391 241.751249 
L 359.930563 240.388423 
L 362.834735 238.699763 
L 365.738907 236.699284 
L 368.643079 234.402464 
L 371.547251 231.828297 
L 374.451423 228.997297 
L 377.355595 225.931909 
L 381.711853 220.948564 
L 386.068111 215.582567 
L 391.876455 208.000262 
L 410.753573 182.818057 
L 415.109831 177.510149 
L 419.466089 172.600434 
L 422.370261 169.592221 
L 425.274433 166.824135 
L 428.178605 164.318479 
L 431.082777 162.094987 
L 433.986949 160.172189 
L 436.891121 158.564947 
L 439.795293 157.286346 
L 442.699465 156.346794 
L 445.603637 155.753302 
L 448.507809 155.511328 
L 451.41198 155.622165 
L 454.316152 156.085188 
L 457.220324 156.896854 
L 460.124496 158.050198 
L 463.028668 159.536671 
L 465.93284 161.343774 
L 468.837012 163.457294 
L 471.741184 165.86031 
L 474.645356 168.533118 
L 477.549528 171.454778 
L 481.905786 176.251739 
L 486.262044 181.469651 
L 490.618302 187.014517 
L 497.878732 196.710259 
L 509.49542 212.325146 
L 513.851678 217.869546 
L 518.207936 223.086829 
L 522.564194 227.88297 
L 525.468366 230.804038 
L 528.372538 233.476171 
L 531.27671 235.878428 
L 534.180882 237.99124 
L 537.085054 239.797501 
L 539.989226 241.283136 
L 542.893398 242.435602 
L 545.79757 243.246331 
L 548.701742 243.70853 
L 551.605914 243.818421 
L 554.510086 243.575538 
L 557.414258 242.981146 
L 560.31843 242.040663 
L 563.222602 240.761279 
L 566.126774 239.153175 
L 569.030946 237.229568 
L 571.935118 235.005331 
L 574.83929 232.498939 
L 577.743462 229.730275 
L 580.647634 226.721455 
L 585.003892 221.81099 
L 589.36015 216.502442 
L 595.168494 208.970846 
L 605.333095 195.225986 
L 612.593525 185.59485 
L 616.949783 180.123091 
L 621.306041 175.002493 
L 625.662299 170.325085 
L 628.566471 167.494657 
L 631.470643 164.921199 
L 634.374815 162.625106 
L 637.278987 160.625438 
L 640.183159 158.937658 
L 643.087331 157.575608 
L 645.991503 156.550193 
L 648.895675 155.869285 
L 651.799847 155.538962 
L 654.704019 155.561191 
L 657.608191 155.936165 
L 660.512363 156.660873 
L 663.416535 157.72922 
L 666.320707 159.133253 
L 669.224879 160.861113 
L 672.129051 162.899318 
L 675.033223 165.23144 
L 677.937395 167.838477 
L 680.841567 170.699907 
L 683.745739 173.792487 
L 688.101997 178.811003 
L 692.458255 184.20424 
L 698.266599 191.810171 
L 715.691631 215.129119 
L 720.047889 220.522232 
L 724.404147 225.540377 
L 727.308319 228.632872 
L 730.212491 231.493932 
L 733.116663 234.100803 
L 736.020835 236.432755 
L 738.925007 238.470492 
L 741.829179 240.198241 
L 744.733351 241.601742 
L 747.637522 242.669897 
L 750.541694 243.394378 
L 753.445866 243.768828 
L 756.350038 243.790933 
L 759.25421 243.46003 
L 762.158382 242.778941 
L 765.062554 241.753289 
L 767.966726 240.390754 
L 770.870898 238.702869 
L 773.77507 236.702681 
L 776.679242 234.406454 
L 779.583414 231.832793 
L 782.487586 229.002025 
L 785.391758 225.937169 
L 789.748016 220.954155 
L 794.104274 215.58863 
L 799.912618 208.006643 
L 812.981392 190.355473 
L 812.981392 190.355473 
" clip-path="url(#p53229c04f5)" style="fill: none; stroke-dasharray: 22.4,5.6,3.5,5.6; stroke-dashoffset: 0; stroke: #0000ff; stroke-opacity: 0.8; stroke-width: 3.5"/>
   </g>
   <g id="patch_8">
    <path d="M 52.160938 248.24 
L 52.160938 151.09 
" style="fill: none; stroke: #000000; stroke-width: 0.8; stroke-linejoin: miter; stroke-linecap: square"/>
   </g>
   <g id="patch_9">
    <path d="M 849.210937 248.24 
L 849.210937 151.09 
" style="fill: none; stroke: #000000; stroke-width: 0.8; stroke-linejoin: miter; stroke-linecap: square"/>
   </g>
   <g id="patch_10">
    <path d="M 52.160938 248.24 
L 849.210938 248.24 
" style="fill: none; stroke: #000000; stroke-width: 0.8; stroke-linejoin: miter; stroke-linecap: square"/>
   </g>
   <g id="patch_11">
    <path d="M 52.160938 151.09 
L 849.210938 151.09 
" style="fill: none; stroke: #000000; stroke-width: 0.8; stroke-linejoin: miter; stroke-linecap: square"/>
   </g>
   <g id="line2d_25">
    <path d="M 88.390483 194.750104 
L 101.459257 212.341871 
L 105.815515 217.820209 
L 110.171773 222.864167 
L 113.075945 225.923223 
L 115.980117 228.710621 
L 118.884289 231.208734 
L 121.788461 233.409888 
L 124.692633 235.309537 
L 127.596805 236.906027 
L 130.500977 238.198335 
L 133.405149 239.185245 
L 136.309321 239.864225 
L 139.213493 240.232096 
L 142.117665 240.28494 
L 145.021837 240.019506 
L 147.926009 239.432959 
L 150.830181 238.527395 
L 153.734353 237.308196 
L 156.638524 235.786683 
L 159.542696 233.981743 
L 162.446868 231.916067 
L 165.35104 229.617793 
L 169.707298 225.798308 
L 174.063556 221.616542 
L 178.419814 217.15542 
L 184.228158 210.883347 
L 191.488588 202.701567 
L 203.105276 189.530694 
L 207.461534 184.872978 
L 211.817792 180.545739 
L 214.721964 177.897441 
L 217.626136 175.467918 
L 220.530308 173.27835 
L 223.43448 171.342311 
L 226.338652 169.670439 
L 229.242824 168.269314 
L 232.146996 167.142489 
L 235.051168 166.292273 
L 237.95534 165.718901 
L 240.859512 165.421873 
L 243.763684 165.399455 
L 246.667856 165.648233 
L 249.572028 166.163859 
L 252.4762 166.938698 
L 255.380372 167.963456 
L 258.284544 169.225852 
L 261.188716 170.710632 
L 264.092888 172.400934 
L 268.449146 175.280386 
L 272.805404 178.514839 
L 277.161662 182.042314 
L 282.970006 187.104793 
L 288.77835 192.469583 
L 300.395038 203.612117 
L 307.655467 210.393268 
L 312.011725 214.192326 
L 316.367983 217.678613 
L 319.272155 219.789856 
L 322.176327 221.706692 
L 325.080499 223.414201 
L 327.984671 224.899795 
L 330.888843 226.154761 
L 333.793015 227.173699 
L 336.697187 227.952961 
L 339.601359 228.492023 
L 342.505531 228.791503 
L 345.409703 228.853926 
L 348.313875 228.683551 
L 351.218047 228.28566 
L 354.122219 227.66787 
L 357.026391 226.838808 
L 359.930563 225.808919 
L 362.834735 224.590183 
L 365.738907 223.195494 
L 370.095165 220.80433 
L 374.451423 218.097377 
L 378.807681 215.122758 
L 384.616025 210.820215 
L 390.424369 206.230363 
L 400.588971 197.846915 
L 407.849401 191.92713 
L 413.657745 187.479887 
L 418.014003 184.428832 
L 422.370261 181.697546 
L 425.274433 180.083241 
L 428.178605 178.650141 
L 431.082777 177.40953 
L 433.986949 176.368724 
L 436.891121 175.533482 
L 439.795293 174.906737 
L 442.699465 174.489307 
L 445.603637 174.280639 
L 448.507809 174.277823 
L 451.41198 174.477056 
L 454.316152 174.872797 
L 457.220324 175.458181 
L 460.124496 176.225394 
L 463.028668 177.165045 
L 467.384926 178.875764 
L 471.741184 180.914484 
L 476.097442 183.241708 
L 480.4537 185.81701 
L 486.262044 189.566686 
L 492.070388 193.588681 
L 502.23499 200.967519 
L 510.947506 207.210394 
L 516.75585 211.076487 
L 521.112108 213.714718 
L 525.468366 216.064948 
L 529.824624 218.079636 
L 532.728796 219.217207 
L 535.632968 220.181045 
L 538.53714 220.96488 
L 541.441312 221.56521 
L 544.345484 221.980313 
L 547.249656 222.209913 
L 550.153828 222.255961 
L 553.058 222.121216 
L 555.962172 221.810191 
L 558.866344 221.328471 
L 561.770516 220.682564 
L 566.126774 219.423124 
L 570.483032 217.841009 
L 574.83929 215.968693 
L 579.195548 213.840633 
L 583.551806 211.492535 
L 589.36015 208.082963 
L 596.62058 203.500912 
L 615.497697 191.33753 
L 621.306041 188.001636 
L 625.662299 185.765326 
L 630.018557 183.808632 
L 634.374815 182.169814 
L 637.278987 181.267989 
L 640.183159 180.526373 
L 643.087331 179.948796 
L 645.991503 179.537629 
L 648.895675 179.293774 
L 651.799847 179.216103 
L 654.704019 179.302735 
L 657.608191 179.55004 
L 660.512363 179.953485 
L 664.868621 180.839084 
L 669.224879 182.040692 
L 673.581137 183.532037 
L 677.937395 185.284052 
L 682.293653 187.265463 
L 688.101997 190.207472 
L 693.910341 193.417533 
L 702.622857 198.542075 
L 714.239545 205.424829 
L 720.047889 208.633684 
L 724.404147 210.842526 
L 728.760405 212.830376 
L 733.116663 214.557412 
L 737.472921 215.990486 
L 741.829179 217.10526 
L 746.185436 217.885754 
L 749.089608 218.215956 
L 751.99378 218.393477 
L 754.897952 218.419107 
L 759.25421 218.177563 
L 763.610468 217.611024 
L 767.966726 216.736213 
L 772.322984 215.573839 
L 776.679242 214.148252 
L 781.0355 212.486231 
L 785.391758 210.61676 
L 791.200102 207.85469 
L 798.460532 204.078755 
L 811.529306 196.890782 
L 812.981392 196.098823 
L 812.981392 196.098823 
" clip-path="url(#p53229c04f5)" style="fill: none; stroke-dasharray: 3.5,5.775; stroke-dashoffset: 0; stroke: #008000; stroke-opacity: 0.8; stroke-width: 3.5"/>
   </g>
   <g id="line2d_26">
    <path d="M 88.390483 194.750104 
L 97.102999 206.575104 
L 102.911343 214.053795 
L 107.267601 219.284199 
L 111.623859 224.090534 
L 114.528031 227.019048 
L 117.432203 229.702002 
L 120.336375 232.12035 
L 123.240547 234.256829 
L 126.144719 236.097605 
L 129.048891 237.630199 
L 131.953063 238.845554 
L 134.857235 239.736984 
L 137.761407 240.299949 
L 140.665579 240.533638 
L 143.569751 240.438686 
L 146.473923 240.019241 
L 149.378095 239.281698 
L 152.282267 238.234535 
L 155.186439 236.889525 
L 158.09061 235.259697 
L 160.994782 233.360998 
L 163.898954 231.211077 
L 166.803126 228.829196 
L 171.159384 224.868713 
L 175.515642 220.512063 
L 179.8719 215.842927 
L 185.680244 209.2837 
L 201.65319 190.950414 
L 206.009448 186.292806 
L 210.365706 181.939649 
L 214.721964 177.964285 
L 217.626136 175.557124 
L 220.530308 173.364568 
L 223.43448 171.402585 
L 226.338652 169.684358 
L 229.242824 168.221361 
L 232.146996 167.023198 
L 235.051168 166.096464 
L 237.95534 165.446566 
L 240.859512 165.075733 
L 243.763684 164.984382 
L 246.667856 165.170921 
L 249.572028 165.630799 
L 252.4762 166.358303 
L 255.380372 167.344775 
L 258.284544 168.580005 
L 261.188716 170.05202 
L 264.092888 171.746511 
L 266.99706 173.64825 
L 271.353318 176.851156 
L 275.709576 180.417995 
L 280.065834 184.279622 
L 285.874178 189.760183 
L 306.203381 209.412915 
L 310.559639 213.220963 
L 314.915897 216.733356 
L 319.272155 219.891044 
L 322.176327 221.773606 
L 325.080499 223.461946 
L 327.984671 224.944739 
L 330.888843 226.211973 
L 333.793015 227.255346 
L 336.697187 228.069007 
L 339.601359 228.648116 
L 342.505531 228.990626 
L 345.409703 229.095889 
L 348.313875 228.965099 
L 351.218047 228.601865 
L 354.122219 228.010804 
L 357.026391 227.199115 
L 359.930563 226.17521 
L 362.834735 224.949117 
L 365.738907 223.532777 
L 370.095165 221.08 
L 374.451423 218.278126 
L 378.807681 215.181993 
L 384.616025 210.69959 
L 391.876455 204.739452 
L 404.945229 193.930709 
L 410.753573 189.464464 
L 415.109831 186.374539 
L 419.466089 183.565605 
L 423.822347 181.083919 
L 426.726519 179.631469 
L 429.630691 178.352327 
L 432.534863 177.255212 
L 435.439035 176.347296 
L 438.343207 175.633773 
L 441.247379 175.118941 
L 444.151551 174.804689 
L 447.055723 174.691809 
L 449.959895 174.779417 
L 452.864066 175.06468 
L 455.768238 175.543856 
L 458.67241 176.210979 
L 461.576582 177.059119 
L 464.480754 178.079878 
L 468.837012 179.912753 
L 473.19327 182.073777 
L 477.549528 184.519635 
L 481.905786 187.202511 
L 487.71413 191.059398 
L 496.426646 197.181098 
L 506.591248 204.300246 
L 512.399592 208.106742 
L 516.75585 210.745498 
L 521.112108 213.1491 
L 525.468366 215.277914 
L 529.824624 217.097377 
L 534.180882 218.579526 
L 537.085054 219.369019 
L 539.989226 219.994022 
L 542.893398 220.450742 
L 545.79757 220.737428 
L 548.701742 220.853216 
L 551.605914 220.798739 
L 554.510086 220.576206 
L 557.414258 220.188651 
L 560.31843 219.641002 
L 564.674688 218.532189 
L 569.030946 217.101139 
L 573.387204 215.377741 
L 577.743462 213.397125 
L 582.09972 211.198231 
L 587.908064 208.000544 
L 595.168494 203.728061 
L 609.689353 195.095897 
L 615.497697 191.91355 
L 619.853955 189.721865 
L 624.210213 187.738848 
L 628.566471 185.996891 
L 632.922729 184.523936 
L 637.278987 183.342605 
L 641.635245 182.469839 
L 645.991503 181.917237 
L 650.347761 181.689973 
L 654.704019 181.787715 
L 659.060277 182.204185 
L 663.416535 182.927354 
L 667.772793 183.940229 
L 672.129051 185.220441 
L 676.485309 186.741434 
L 680.841567 188.472628 
L 686.649911 191.048764 
L 693.910341 194.575281 
L 715.691631 205.432893 
L 721.499975 207.962689 
L 725.856233 209.660237 
L 730.212491 211.155244 
L 734.568749 212.423705 
L 738.925007 213.446024 
L 743.281265 214.207481 
L 747.637522 214.697846 
L 751.99378 214.912313 
L 756.350038 214.850817 
L 760.706296 214.518249 
L 765.062554 213.924491 
L 769.418812 213.083615 
L 773.77507 212.014268 
L 778.131328 210.738733 
L 783.939672 208.762104 
L 789.748016 206.533592 
L 797.008446 203.508959 
L 812.981392 196.655023 
L 812.981392 196.655023 
" clip-path="url(#p53229c04f5)" style="fill: none; stroke-dasharray: 12.95,5.6; stroke-dashoffset: 0; stroke: #ff0000; stroke-opacity: 0.8; stroke-width: 3.5"/>
   </g>
  </g>
  <g id="text_16">
   <!-- State Variable Simulation Comparison -->
   <g transform="translate(276.303437 20.1175) scale(0.16 -0.16)">
    <defs>
     <path id="DejaVuSans-53" d="M 3425 4513 
L 3425 3897 
Q 3066 4069 2747 4153 
Q 2428 4238 2131 4238 
Q 1616 4238 1336 4038 
Q 1056 3838 1056 3469 
Q 1056 3159 1242 3001 
Q 1428 2844 1947 2747 
L 2328 2669 
Q 3034 2534 3370 2195 
Q 3706 1856 3706 1288 
Q 3706 609 3251 259 
Q 2797 -91 1919 -91 
Q 1588 -91 1214 -16 
Q 841 59 441 206 
L 441 856 
Q 825 641 1194 531 
Q 1563 422 1919 422 
Q 2459 422 2753 634 
Q 3047 847 3047 1241 
Q 3047 1584 2836 1778 
Q 2625 1972 2144 2069 
L 1759 2144 
Q 1053 2284 737 2584 
Q 422 2884 422 3419 
Q 422 4038 858 4394 
Q 1294 4750 2059 4750 
Q 2388 4750 2728 4690 
Q 3069 4631 3425 4513 
z
" transform="scale(0.015625)"/>
     <path id="DejaVuSans-74" d="M 1172 4494 
L 1172 3500 
L 2356 3500 
L 2356 3053 
L 1172 3053 
L 1172 1153 
Q 1172 725 1289 603 
Q 1406 481 1766 481 
L 2356 481 
L 2356 0 
L 1766 0 
Q 1100 0 847 248 
Q 594 497 594 1153 
L 594 3053 
L 172 3053 
L 172 3500 
L 594 3500 
L 594 4494 
L 1172 4494 
z
" transform="scale(0.015625)"/>
     <path id="DejaVuSans-61" d="M 2194 1759 
Q 1497 1759 1228 1600 
Q 959 1441 959 1056 
Q 959 750 1161 570 
Q 1363 391 1709 391 
Q 2188 391 2477 730 
Q 2766 1069 2766 1631 
L 2766 1759 
L 2194 1759 
z
M 3341 1997 
L 3341 0 
L 2766 0 
L 2766 531 
Q 2569 213 2275 61 
Q 1981 -91 1556 -91 
Q 1019 -91 701 211 
Q 384 513 384 1019 
Q 384 1609 779 1909 
Q 1175 2209 1959 2209 
L 2766 2209 
L 2766 2266 
Q 2766 2663 2505 2880 
Q 2244 3097 1772 3097 
Q 1472 3097 1187 3025 
Q 903 2953 641 2809 
L 641 3341 
Q 956 3463 1253 3523 
Q 1550 3584 1831 3584 
Q 2591 3584 2966 3190 
Q 3341 2797 3341 1997 
z
" transform="scale(0.015625)"/>
     <path id="DejaVuSans-20" transform="scale(0.015625)"/>
     <path id="DejaVuSans-56" d="M 1831 0 
L 50 4666 
L 709 4666 
L 2188 738 
L 3669 4666 
L 4325 4666 
L 2547 0 
L 1831 0 
z
" transform="scale(0.015625)"/>
     <path id="DejaVuSans-72" d="M 2631 2963 
Q 2534 3019 2420 3045 
Q 2306 3072 2169 3072 
Q 1681 3072 1420 2755 
Q 1159 2438 1159 1844 
L 1159 0 
L 581 0 
L 581 3500 
L 1159 3500 
L 1159 2956 
Q 1341 3275 1631 3429 
Q 1922 3584 2338 3584 
Q 2397 3584 2469 3576 
Q 2541 3569 2628 3553 
L 2631 2963 
z
" transform="scale(0.015625)"/>
     <path id="DejaVuSans-62" d="M 3116 1747 
Q 3116 2381 2855 2742 
Q 2594 3103 2138 3103 
Q 1681 3103 1420 2742 
Q 1159 2381 1159 1747 
Q 1159 1113 1420 752 
Q 1681 391 2138 391 
Q 2594 391 2855 752 
Q 3116 1113 3116 1747 
z
M 1159 2969 
Q 1341 3281 1617 3432 
Q 1894 3584 2278 3584 
Q 2916 3584 3314 3078 
Q 3713 2572 3713 1747 
Q 3713 922 3314 415 
Q 2916 -91 2278 -91 
Q 1894 -91 1617 61 
Q 1341 213 1159 525 
L 1159 0 
L 581 0 
L 581 4863 
L 1159 4863 
L 1159 2969 
z
" transform="scale(0.015625)"/>
     <path id="DejaVuSans-6c" d="M 603 4863 
L 1178 4863 
L 1178 0 
L 603 0 
L 603 4863 
z
" transform="scale(0.015625)"/>
     <path id="DejaVuSans-75" d="M 544 1381 
L 544 3500 
L 1119 3500 
L 1119 1403 
Q 1119 906 1312 657 
Q 1506 409 1894 409 
Q 2359 409 2629 706 
Q 2900 1003 2900 1516 
L 2900 3500 
L 3475 3500 
L 3475 0 
L 2900 0 
L 2900 538 
Q 2691 219 2414 64 
Q 2138 -91 1772 -91 
Q 1169 -91 856 284 
Q 544 659 544 1381 
z
M 1991 3584 
L 1991 3584 
z
" transform="scale(0.015625)"/>
     <path id="DejaVuSans-6f" d="M 1959 3097 
Q 1497 3097 1228 2736 
Q 959 2375 959 1747 
Q 959 1119 1226 758 
Q 1494 397 1959 397 
Q 2419 397 2687 759 
Q 2956 1122 2956 1747 
Q 2956 2369 2687 2733 
Q 2419 3097 1959 3097 
z
M 1959 3584 
Q 2709 3584 3137 3096 
Q 3566 2609 3566 1747 
Q 3566 888 3137 398 
Q 2709 -91 1959 -91 
Q 1206 -91 779 398 
Q 353 888 353 1747 
Q 353 2609 779 3096 
Q 1206 3584 1959 3584 
z
" transform="scale(0.015625)"/>
     <path id="DejaVuSans-6e" d="M 3513 2113 
L 3513 0 
L 2938 0 
L 2938 2094 
Q 2938 2591 2744 2837 
Q 2550 3084 2163 3084 
Q 1697 3084 1428 2787 
Q 1159 2491 1159 1978 
L 1159 0 
L 581 0 
L 581 3500 
L 1159 3500 
L 1159 2956 
Q 1366 3272 1645 3428 
Q 1925 3584 2291 3584 
Q 2894 3584 3203 3211 
Q 3513 2838 3513 2113 
z
" transform="scale(0.015625)"/>
     <path id="DejaVuSans-43" d="M 4122 4306 
L 4122 3641 
Q 3803 3938 3442 4084 
Q 3081 4231 2675 4231 
Q 1875 4231 1450 3742 
Q 1025 3253 1025 2328 
Q 1025 1406 1450 917 
Q 1875 428 2675 428 
Q 3081 428 3442 575 
Q 3803 722 4122 1019 
L 4122 359 
Q 3791 134 3420 21 
Q 3050 -91 2638 -91 
Q 1578 -91 968 557 
Q 359 1206 359 2328 
Q 359 3453 968 4101 
Q 1578 4750 2638 4750 
Q 3056 4750 3426 4639 
Q 3797 4528 4122 4306 
z
" transform="scale(0.015625)"/>
     <path id="DejaVuSans-70" d="M 1159 525 
L 1159 -1331 
L 581 -1331 
L 581 3500 
L 1159 3500 
L 1159 2969 
Q 1341 3281 1617 3432 
Q 1894 3584 2278 3584 
Q 2916 3584 3314 3078 
Q 3713 2572 3713 1747 
Q 3713 922 3314 415 
Q 2916 -91 2278 -91 
Q 1894 -91 1617 61 
Q 1341 213 1159 525 
z
M 3116 1747 
Q 3116 2381 2855 2742 
Q 2594 3103 2138 3103 
Q 1681 3103 1420 2742 
Q 1159 2381 1159 1747 
Q 1159 1113 1420 752 
Q 1681 391 2138 391 
Q 2594 391 2855 752 
Q 3116 1113 3116 1747 
z
" transform="scale(0.015625)"/>
     <path id="DejaVuSans-73" d="M 2834 3397 
L 2834 2853 
Q 2591 2978 2328 3040 
Q 2066 3103 1784 3103 
Q 1356 3103 1142 2972 
Q 928 2841 928 2578 
Q 928 2378 1081 2264 
Q 1234 2150 1697 2047 
L 1894 2003 
Q 2506 1872 2764 1633 
Q 3022 1394 3022 966 
Q 3022 478 2636 193 
Q 2250 -91 1575 -91 
Q 1294 -91 989 -36 
Q 684 19 347 128 
L 347 722 
Q 666 556 975 473 
Q 1284 391 1588 391 
Q 1994 391 2212 530 
Q 2431 669 2431 922 
Q 2431 1156 2273 1281 
Q 2116 1406 1581 1522 
L 1381 1569 
Q 847 1681 609 1914 
Q 372 2147 372 2553 
Q 372 3047 722 3315 
Q 1072 3584 1716 3584 
Q 2034 3584 2315 3537 
Q 2597 3491 2834 3397 
z
" transform="scale(0.015625)"/>
    </defs>
    <use xlink:href="#DejaVuSans-53"/>
    <use xlink:href="#DejaVuSans-74" transform="translate(63.476562 0)"/>
    <use xlink:href="#DejaVuSans-61" transform="translate(102.685547 0)"/>
    <use xlink:href="#DejaVuSans-74" transform="translate(163.964844 0)"/>
    <use xlink:href="#DejaVuSans-65" transform="translate(203.173828 0)"/>
    <use xlink:href="#DejaVuSans-20" transform="translate(264.697266 0)"/>
    <use xlink:href="#DejaVuSans-56" transform="translate(296.484375 0)"/>
    <use xlink:href="#DejaVuSans-61" transform="translate(357.142578 0)"/>
    <use xlink:href="#DejaVuSans-72" transform="translate(418.421875 0)"/>
    <use xlink:href="#DejaVuSans-69" transform="translate(459.535156 0)"/>
    <use xlink:href="#DejaVuSans-61" transform="translate(487.318359 0)"/>
    <use xlink:href="#DejaVuSans-62" transform="translate(548.597656 0)"/>
    <use xlink:href="#DejaVuSans-6c" transform="translate(612.074219 0)"/>
    <use xlink:href="#DejaVuSans-65" transform="translate(639.857422 0)"/>
    <use xlink:href="#DejaVuSans-20" transform="translate(701.380859 0)"/>
    <use xlink:href="#DejaVuSans-53" transform="translate(733.167969 0)"/>
    <use xlink:href="#DejaVuSans-69" transform="translate(796.644531 0)"/>
    <use xlink:href="#DejaVuSans-6d" transform="translate(824.427734 0)"/>
    <use xlink:href="#DejaVuSans-75" transform="translate(921.839844 0)"/>
    <use xlink:href="#DejaVuSans-6c" transform="translate(985.21875 0)"/>
    <use xlink:href="#DejaVuSans-61" transform="translate(1013.001953 0)"/>
    <use xlink:href="#DejaVuSans-74" transform="translate(1074.28125 0)"/>
    <use xlink:href="#DejaVuSans-69" transform="translate(1113.490234 0)"/>
    <use xlink:href="#DejaVuSans-6f" transform="translate(1141.273438 0)"/>
    <use xlink:href="#DejaVuSans-6e" transform="translate(1202.455078 0)"/>
    <use xlink:href="#DejaVuSans-20" transform="translate(1265.833984 0)"/>
    <use xlink:href="#DejaVuSans-43" transform="translate(1297.621094 0)"/>
    <use xlink:href="#DejaVuSans-6f" transform="translate(1367.445312 0)"/>
    <use xlink:href="#DejaVuSans-6d" transform="translate(1428.626953 0)"/>
    <use xlink:href="#DejaVuSans-70" transform="translate(1526.039062 0)"/>
    <use xlink:href="#DejaVuSans-61" transform="translate(1589.515625 0)"/>
    <use xlink:href="#DejaVuSans-72" transform="translate(1650.794922 0)"/>
    <use xlink:href="#DejaVuSans-69" transform="translate(1691.908203 0)"/>
    <use xlink:href="#DejaVuSans-73" transform="translate(1719.691406 0)"/>
    <use xlink:href="#DejaVuSans-6f" transform="translate(1771.791016 0)"/>
    <use xlink:href="#DejaVuSans-6e" transform="translate(1832.972656 0)"/>
   </g>
  </g>
  <g id="legend_1">
   <g id="patch_12">
    <path d="M 744.139063 66.7125 
L 855.210938 66.7125 
Q 857.210938 66.7125 857.210938 64.7125 
L 857.210938 7 
Q 857.210938 5 855.210938 5 
L 744.139063 5 
Q 742.139063 5 742.139063 7 
L 742.139063 64.7125 
Q 742.139063 66.7125 744.139063 66.7125 
z
" style="fill: #ffffff; opacity: 0.5; stroke: #cccccc; stroke-linejoin: miter"/>
   </g>
   <g id="line2d_27">
    <path d="M 746.139063 13.098437 
L 756.139063 13.098437 
L 766.139063 13.098437 
" style="fill: none; stroke: #000000; stroke-opacity: 0.4; stroke-width: 6; stroke-linecap: square"/>
   </g>
   <g id="text_17">
    <!-- True Trajectory -->
    <g transform="translate(774.139063 16.598437) scale(0.1 -0.1)">
     <defs>
      <path id="DejaVuSans-6a" d="M 603 3500 
L 1178 3500 
L 1178 -63 
Q 1178 -731 923 -1031 
Q 669 -1331 103 -1331 
L -116 -1331 
L -116 -844 
L 38 -844 
Q 366 -844 484 -692 
Q 603 -541 603 -63 
L 603 3500 
z
M 603 4863 
L 1178 4863 
L 1178 4134 
L 603 4134 
L 603 4863 
z
" transform="scale(0.015625)"/>
      <path id="DejaVuSans-63" d="M 3122 3366 
L 3122 2828 
Q 2878 2963 2633 3030 
Q 2388 3097 2138 3097 
Q 1578 3097 1268 2742 
Q 959 2388 959 1747 
Q 959 1106 1268 751 
Q 1578 397 2138 397 
Q 2388 397 2633 464 
Q 2878 531 3122 666 
L 3122 134 
Q 2881 22 2623 -34 
Q 2366 -91 2075 -91 
Q 1284 -91 818 406 
Q 353 903 353 1747 
Q 353 2603 823 3093 
Q 1294 3584 2113 3584 
Q 2378 3584 2631 3529 
Q 2884 3475 3122 3366 
z
" transform="scale(0.015625)"/>
      <path id="DejaVuSans-79" d="M 2059 -325 
Q 1816 -950 1584 -1140 
Q 1353 -1331 966 -1331 
L 506 -1331 
L 506 -850 
L 844 -850 
Q 1081 -850 1212 -737 
Q 1344 -625 1503 -206 
L 1606 56 
L 191 3500 
L 800 3500 
L 1894 763 
L 2988 3500 
L 3597 3500 
L 2059 -325 
z
" transform="scale(0.015625)"/>
     </defs>
     <use xlink:href="#DejaVuSans-54"/>
     <use xlink:href="#DejaVuSans-72" transform="translate(46.333984 0)"/>
     <use xlink:href="#DejaVuSans-75" transform="translate(87.447266 0)"/>
     <use xlink:href="#DejaVuSans-65" transform="translate(150.826172 0)"/>
     <use xlink:href="#DejaVuSans-20" transform="translate(212.349609 0)"/>
     <use xlink:href="#DejaVuSans-54" transform="translate(244.136719 0)"/>
     <use xlink:href="#DejaVuSans-72" transform="translate(290.470703 0)"/>
     <use xlink:href="#DejaVuSans-61" transform="translate(331.583984 0)"/>
     <use xlink:href="#DejaVuSans-6a" transform="translate(392.863281 0)"/>
     <use xlink:href="#DejaVuSans-65" transform="translate(420.646484 0)"/>
     <use xlink:href="#DejaVuSans-63" transform="translate(482.169922 0)"/>
     <use xlink:href="#DejaVuSans-74" transform="translate(537.150391 0)"/>
     <use xlink:href="#DejaVuSans-6f" transform="translate(576.359375 0)"/>
     <use xlink:href="#DejaVuSans-72" transform="translate(637.541016 0)"/>
     <use xlink:href="#DejaVuSans-79" transform="translate(678.654297 0)"/>
    </g>
   </g>
   <g id="line2d_28">
    <path d="M 746.139063 27.776562 
L 756.139063 27.776562 
L 766.139063 27.776562 
" style="fill: none; stroke-dasharray: 12.95,5.6; stroke-dashoffset: 0; stroke: #ff0000; stroke-opacity: 0.8; stroke-width: 3.5"/>
   </g>
   <g id="text_18">
    <!-- AutoSINDy -->
    <g transform="translate(774.139063 31.276562) scale(0.1 -0.1)">
     <defs>
      <path id="DejaVuSans-41" d="M 2188 4044 
L 1331 1722 
L 3047 1722 
L 2188 4044 
z
M 1831 4666 
L 2547 4666 
L 4325 0 
L 3669 0 
L 3244 1197 
L 1141 1197 
L 716 0 
L 50 0 
L 1831 4666 
z
" transform="scale(0.015625)"/>
      <path id="DejaVuSans-49" d="M 628 4666 
L 1259 4666 
L 1259 0 
L 628 0 
L 628 4666 
z
" transform="scale(0.015625)"/>
      <path id="DejaVuSans-4e" d="M 628 4666 
L 1478 4666 
L 3547 763 
L 3547 4666 
L 4159 4666 
L 4159 0 
L 3309 0 
L 1241 3903 
L 1241 0 
L 628 0 
L 628 4666 
z
" transform="scale(0.015625)"/>
      <path id="DejaVuSans-44" d="M 1259 4147 
L 1259 519 
L 2022 519 
Q 2988 519 3436 956 
Q 3884 1394 3884 2338 
Q 3884 3275 3436 3711 
Q 2988 4147 2022 4147 
L 1259 4147 
z
M 628 4666 
L 1925 4666 
Q 3281 4666 3915 4102 
Q 4550 3538 4550 2338 
Q 4550 1131 3912 565 
Q 3275 0 1925 0 
L 628 0 
L 628 4666 
z
" transform="scale(0.015625)"/>
     </defs>
     <use xlink:href="#DejaVuSans-41"/>
     <use xlink:href="#DejaVuSans-75" transform="translate(68.408203 0)"/>
     <use xlink:href="#DejaVuSans-74" transform="translate(131.787109 0)"/>
     <use xlink:href="#DejaVuSans-6f" transform="translate(170.996094 0)"/>
     <use xlink:href="#DejaVuSans-53" transform="translate(232.177734 0)"/>
     <use xlink:href="#DejaVuSans-49" transform="translate(295.654297 0)"/>
     <use xlink:href="#DejaVuSans-4e" transform="translate(325.146484 0)"/>
     <use xlink:href="#DejaVuSans-44" transform="translate(399.951172 0)"/>
     <use xlink:href="#DejaVuSans-79" transform="translate(476.953125 0)"/>
    </g>
   </g>
   <g id="line2d_29">
    <path d="M 746.139063 42.454687 
L 756.139063 42.454687 
L 766.139063 42.454687 
" style="fill: none; stroke-dasharray: 3.5,5.775; stroke-dashoffset: 0; stroke: #008000; stroke-opacity: 0.8; stroke-width: 3.5"/>
   </g>
   <g id="text_19">
    <!-- Standard SINDy -->
    <g transform="translate(774.139063 45.954687) scale(0.1 -0.1)">
     <defs>
      <path id="DejaVuSans-64" d="M 2906 2969 
L 2906 4863 
L 3481 4863 
L 3481 0 
L 2906 0 
L 2906 525 
Q 2725 213 2448 61 
Q 2172 -91 1784 -91 
Q 1150 -91 751 415 
Q 353 922 353 1747 
Q 353 2572 751 3078 
Q 1150 3584 1784 3584 
Q 2172 3584 2448 3432 
Q 2725 3281 2906 2969 
z
M 947 1747 
Q 947 1113 1208 752 
Q 1469 391 1925 391 
Q 2381 391 2643 752 
Q 2906 1113 2906 1747 
Q 2906 2381 2643 2742 
Q 2381 3103 1925 3103 
Q 1469 3103 1208 2742 
Q 947 2381 947 1747 
z
" transform="scale(0.015625)"/>
     </defs>
     <use xlink:href="#DejaVuSans-53"/>
     <use xlink:href="#DejaVuSans-74" transform="translate(63.476562 0)"/>
     <use xlink:href="#DejaVuSans-61" transform="translate(102.685547 0)"/>
     <use xlink:href="#DejaVuSans-6e" transform="translate(163.964844 0)"/>
     <use xlink:href="#DejaVuSans-64" transform="translate(227.34375 0)"/>
     <use xlink:href="#DejaVuSans-61" transform="translate(290.820312 0)"/>
     <use xlink:href="#DejaVuSans-72" transform="translate(352.099609 0)"/>
     <use xlink:href="#DejaVuSans-64" transform="translate(391.462891 0)"/>
     <use xlink:href="#DejaVuSans-20" transform="translate(454.939453 0)"/>
     <use xlink:href="#DejaVuSans-53" transform="translate(486.726562 0)"/>
     <use xlink:href="#DejaVuSans-49" transform="translate(550.203125 0)"/>
     <use xlink:href="#DejaVuSans-4e" transform="translate(579.695312 0)"/>
     <use xlink:href="#DejaVuSans-44" transform="translate(654.5 0)"/>
     <use xlink:href="#DejaVuSans-79" transform="translate(731.501953 0)"/>
    </g>
   </g>
   <g id="line2d_30">
    <path d="M 746.139063 57.132812 
L 756.139063 57.132812 
L 766.139063 57.132812 
" style="fill: none; stroke-dasharray: 22.4,5.6,3.5,5.6; stroke-dashoffset: 0; stroke: #0000ff; stroke-opacity: 0.8; stroke-width: 3.5"/>
   </g>
   <g id="text_20">
    <!-- Standard PySR -->
    <g transform="translate(774.139063 60.632812) scale(0.1 -0.1)">
     <defs>
      <path id="DejaVuSans-50" d="M 1259 4147 
L 1259 2394 
L 2053 2394 
Q 2494 2394 2734 2622 
Q 2975 2850 2975 3272 
Q 2975 3691 2734 3919 
Q 2494 4147 2053 4147 
L 1259 4147 
z
M 628 4666 
L 2053 4666 
Q 2838 4666 3239 4311 
Q 3641 3956 3641 3272 
Q 3641 2581 3239 2228 
Q 2838 1875 2053 1875 
L 1259 1875 
L 1259 0 
L 628 0 
L 628 4666 
z
" transform="scale(0.015625)"/>
      <path id="DejaVuSans-52" d="M 2841 2188 
Q 3044 2119 3236 1894 
Q 3428 1669 3622 1275 
L 4263 0 
L 3584 0 
L 2988 1197 
Q 2756 1666 2539 1819 
Q 2322 1972 1947 1972 
L 1259 1972 
L 1259 0 
L 628 0 
L 628 4666 
L 2053 4666 
Q 2853 4666 3247 4331 
Q 3641 3997 3641 3322 
Q 3641 2881 3436 2590 
Q 3231 2300 2841 2188 
z
M 1259 4147 
L 1259 2491 
L 2053 2491 
Q 2509 2491 2742 2702 
Q 2975 2913 2975 3322 
Q 2975 3731 2742 3939 
Q 2509 4147 2053 4147 
L 1259 4147 
z
" transform="scale(0.015625)"/>
     </defs>
     <use xlink:href="#DejaVuSans-53"/>
     <use xlink:href="#DejaVuSans-74" transform="translate(63.476562 0)"/>
     <use xlink:href="#DejaVuSans-61" transform="translate(102.685547 0)"/>
     <use xlink:href="#DejaVuSans-6e" transform="translate(163.964844 0)"/>
     <use xlink:href="#DejaVuSans-64" transform="translate(227.34375 0)"/>
     <use xlink:href="#DejaVuSans-61" transform="translate(290.820312 0)"/>
     <use xlink:href="#DejaVuSans-72" transform="translate(352.099609 0)"/>
     <use xlink:href="#DejaVuSans-64" transform="translate(391.462891 0)"/>
     <use xlink:href="#DejaVuSans-20" transform="translate(454.939453 0)"/>
     <use xlink:href="#DejaVuSans-50" transform="translate(486.726562 0)"/>
     <use xlink:href="#DejaVuSans-79" transform="translate(547.029297 0)"/>
     <use xlink:href="#DejaVuSans-53" transform="translate(606.208984 0)"/>
     <use xlink:href="#DejaVuSans-52" transform="translate(669.685547 0)"/>
    </g>
   </g>
  </g>
 </g>
 <defs>
  <clipPath id="p3842b93070">
   <rect x="52.160938" y="39.64" width="797.05" height="97.15"/>
  </clipPath>
  <clipPath id="p53229c04f5">
   <rect x="52.160938" y="151.09" width="797.05" height="97.15"/>
  </clipPath>
 </defs>
</svg>
