<?xml version="1.0" encoding="utf-8" standalone="no"?>
<!DOCTYPE svg PUBLIC "-//W3C//DTD SVG 1.1//EN"
  "http://www.w3.org/Graphics/SVG/1.1/DTD/svg11.dtd">
<svg xmlns:xlink="http://www.w3.org/1999/xlink" width="568.410938pt" height="567.994375pt" viewBox="0 0 568.410938 567.994375" xmlns="http://www.w3.org/2000/svg" version="1.1">
 <metadata>
  <rdf:RDF xmlns:dc="http://purl.org/dc/elements/1.1/" xmlns:cc="http://creativecommons.org/ns#" xmlns:rdf="http://www.w3.org/1999/02/22-rdf-syntax-ns#">
   <cc:Work>
    <dc:type rdf:resource="http://purl.org/dc/dcmitype/StillImage"/>
    <dc:date>2026-04-06T11:46:49.599960</dc:date>
    <dc:format>image/svg+xml</dc:format>
    <dc:creator>
     <cc:Agent>
      <dc:title>Matplotlib v3.10.7, https://matplotlib.org/</dc:title>
     </cc:Agent>
    </dc:creator>
   </cc:Work>
  </rdf:RDF>
 </metadata>
 <defs>
  <style type="text/css">*{stroke-linejoin: round; stroke-linecap: butt}</style>
 </defs>
 <g id="figure_1">
  <g id="patch_1">
   <path d="M 0 567.994375 
L 568.410938 567.994375 
L 568.410938 0 
L 0 0 
z
" style="fill: #ffffff"/>
  </g>
  <g id="axes_1">
   <g id="patch_2">
    <path d="M 52.160938 530.438125 
L 561.210937 530.438125 
L 561.210937 22.318125 
L 52.160938 22.318125 
z
" style="fill: #ffffff"/>
   </g>
   <g id="matplotlib.axis_1">
    <g id="xtick_1">
     <g id="line2d_1">
      <defs>
       <path id="m31e81a7f83" d="M 0 0 
L 0 3.5 
" style="stroke: #000000; stroke-width: 0.8"/>
      </defs>
      <g>
       <use xlink:href="#m31e81a7f83" x="76.730405" y="530.438125" style="stroke: #000000; stroke-width: 0.8"/>
      </g>
     </g>
     <g id="text_1">
      <!-- −0.8 -->
      <g transform="translate(64.588999 545.036562) scale(0.1 -0.1)">
       <defs>
        <path id="DejaVuSans-2212" d="M 678 2272 
L 4684 2272 
L 4684 1741 
L 678 1741 
L 678 2272 
z
" transform="scale(0.015625)"/>
        <path id="DejaVuSans-30" d="M 2034 4250 
Q 1547 4250 1301 3770 
Q 1056 3291 1056 2328 
Q 1056 1369 1301 889 
Q 1547 409 2034 409 
Q 2525 409 2770 889 
Q 3016 1369 3016 2328 
Q 3016 3291 2770 3770 
Q 2525 4250 2034 4250 
z
M 2034 4750 
Q 2819 4750 3233 4129 
Q 3647 3509 3647 2328 
Q 3647 1150 3233 529 
Q 2819 -91 2034 -91 
Q 1250 -91 836 529 
Q 422 1150 422 2328 
Q 422 3509 836 4129 
Q 1250 4750 2034 4750 
z
" transform="scale(0.015625)"/>
        <path id="DejaVuSans-2e" d="M 684 794 
L 1344 794 
L 1344 0 
L 684 0 
L 684 794 
z
" transform="scale(0.015625)"/>
        <path id="DejaVuSans-38" d="M 2034 2216 
Q 1584 2216 1326 1975 
Q 1069 1734 1069 1313 
Q 1069 891 1326 650 
Q 1584 409 2034 409 
Q 2484 409 2743 651 
Q 3003 894 3003 1313 
Q 3003 1734 2745 1975 
Q 2488 2216 2034 2216 
z
M 1403 2484 
Q 997 2584 770 2862 
Q 544 3141 544 3541 
Q 544 4100 942 4425 
Q 1341 4750 2034 4750 
Q 2731 4750 3128 4425 
Q 3525 4100 3525 3541 
Q 3525 3141 3298 2862 
Q 3072 2584 2669 2484 
Q 3125 2378 3379 2068 
Q 3634 1759 3634 1313 
Q 3634 634 3220 271 
Q 2806 -91 2034 -91 
Q 1263 -91 848 271 
Q 434 634 434 1313 
Q 434 1759 690 2068 
Q 947 2378 1403 2484 
z
M 1172 3481 
Q 1172 3119 1398 2916 
Q 1625 2713 2034 2713 
Q 2441 2713 2670 2916 
Q 2900 3119 2900 3481 
Q 2900 3844 2670 4047 
Q 2441 4250 2034 4250 
Q 1625 4250 1398 4047 
Q 1172 3844 1172 3481 
z
" transform="scale(0.015625)"/>
       </defs>
       <use xlink:href="#DejaVuSans-2212"/>
       <use xlink:href="#DejaVuSans-30" transform="translate(83.789062 0)"/>
       <use xlink:href="#DejaVuSans-2e" transform="translate(147.412109 0)"/>
       <use xlink:href="#DejaVuSans-38" transform="translate(179.199219 0)"/>
      </g>
     </g>
    </g>
    <g id="xtick_2">
     <g id="line2d_2">
      <g>
       <use xlink:href="#m31e81a7f83" x="134.218635" y="530.438125" style="stroke: #000000; stroke-width: 0.8"/>
      </g>
     </g>
     <g id="text_2">
      <!-- −0.6 -->
      <g transform="translate(122.077229 545.036562) scale(0.1 -0.1)">
       <defs>
        <path id="DejaVuSans-36" d="M 2113 2584 
Q 1688 2584 1439 2293 
Q 1191 2003 1191 1497 
Q 1191 994 1439 701 
Q 1688 409 2113 409 
Q 2538 409 2786 701 
Q 3034 994 3034 1497 
Q 3034 2003 2786 2293 
Q 2538 2584 2113 2584 
z
M 3366 4563 
L 3366 3988 
Q 3128 4100 2886 4159 
Q 2644 4219 2406 4219 
Q 1781 4219 1451 3797 
Q 1122 3375 1075 2522 
Q 1259 2794 1537 2939 
Q 1816 3084 2150 3084 
Q 2853 3084 3261 2657 
Q 3669 2231 3669 1497 
Q 3669 778 3244 343 
Q 2819 -91 2113 -91 
Q 1303 -91 875 529 
Q 447 1150 447 2328 
Q 447 3434 972 4092 
Q 1497 4750 2381 4750 
Q 2619 4750 2861 4703 
Q 3103 4656 3366 4563 
z
" transform="scale(0.015625)"/>
       </defs>
       <use xlink:href="#DejaVuSans-2212"/>
       <use xlink:href="#DejaVuSans-30" transform="translate(83.789062 0)"/>
       <use xlink:href="#DejaVuSans-2e" transform="translate(147.412109 0)"/>
       <use xlink:href="#DejaVuSans-36" transform="translate(179.199219 0)"/>
      </g>
     </g>
    </g>
    <g id="xtick_3">
     <g id="line2d_3">
      <g>
       <use xlink:href="#m31e81a7f83" x="191.706865" y="530.438125" style="stroke: #000000; stroke-width: 0.8"/>
      </g>
     </g>
     <g id="text_3">
      <!-- −0.4 -->
      <g transform="translate(179.565459 545.036562) scale(0.1 -0.1)">
       <defs>
        <path id="DejaVuSans-34" d="M 2419 4116 
L 825 1625 
L 2419 1625 
L 2419 4116 
z
M 2253 4666 
L 3047 4666 
L 3047 1625 
L 3713 1625 
L 3713 1100 
L 3047 1100 
L 3047 0 
L 2419 0 
L 2419 1100 
L 313 1100 
L 313 1709 
L 2253 4666 
z
" transform="scale(0.015625)"/>
       </defs>
       <use xlink:href="#DejaVuSans-2212"/>
       <use xlink:href="#DejaVuSans-30" transform="translate(83.789062 0)"/>
       <use xlink:href="#DejaVuSans-2e" transform="translate(147.412109 0)"/>
       <use xlink:href="#DejaVuSans-34" transform="translate(179.199219 0)"/>
      </g>
     </g>
    </g>
    <g id="xtick_4">
     <g id="line2d_4">
      <g>
       <use xlink:href="#m31e81a7f83" x="249.195095" y="530.438125" style="stroke: #000000; stroke-width: 0.8"/>
      </g>
     </g>
     <g id="text_4">
      <!-- −0.2 -->
      <g transform="translate(237.053689 545.036562) scale(0.1 -0.1)">
       <defs>
        <path id="DejaVuSans-32" d="M 1228 531 
L 3431 531 
L 3431 0 
L 469 0 
L 469 531 
Q 828 903 1448 1529 
Q 2069 2156 2228 2338 
Q 2531 2678 2651 2914 
Q 2772 3150 2772 3378 
Q 2772 3750 2511 3984 
Q 2250 4219 1831 4219 
Q 1534 4219 1204 4116 
Q 875 4013 500 3803 
L 500 4441 
Q 881 4594 1212 4672 
Q 1544 4750 1819 4750 
Q 2544 4750 2975 4387 
Q 3406 4025 3406 3419 
Q 3406 3131 3298 2873 
Q 3191 2616 2906 2266 
Q 2828 2175 2409 1742 
Q 1991 1309 1228 531 
z
" transform="scale(0.015625)"/>
       </defs>
       <use xlink:href="#DejaVuSans-2212"/>
       <use xlink:href="#DejaVuSans-30" transform="translate(83.789062 0)"/>
       <use xlink:href="#DejaVuSans-2e" transform="translate(147.412109 0)"/>
       <use xlink:href="#DejaVuSans-32" transform="translate(179.199219 0)"/>
      </g>
     </g>
    </g>
    <g id="xtick_5">
     <g id="line2d_5">
      <g>
       <use xlink:href="#m31e81a7f83" x="306.683325" y="530.438125" style="stroke: #000000; stroke-width: 0.8"/>
      </g>
     </g>
     <g id="text_5">
      <!-- 0.0 -->
      <g transform="translate(298.731763 545.036562) scale(0.1 -0.1)">
       <use xlink:href="#DejaVuSans-30"/>
       <use xlink:href="#DejaVuSans-2e" transform="translate(63.623047 0)"/>
       <use xlink:href="#DejaVuSans-30" transform="translate(95.410156 0)"/>
      </g>
     </g>
    </g>
    <g id="xtick_6">
     <g id="line2d_6">
      <g>
       <use xlink:href="#m31e81a7f83" x="364.171555" y="530.438125" style="stroke: #000000; stroke-width: 0.8"/>
      </g>
     </g>
     <g id="text_6">
      <!-- 0.2 -->
      <g transform="translate(356.219992 545.036562) scale(0.1 -0.1)">
       <use xlink:href="#DejaVuSans-30"/>
       <use xlink:href="#DejaVuSans-2e" transform="translate(63.623047 0)"/>
       <use xlink:href="#DejaVuSans-32" transform="translate(95.410156 0)"/>
      </g>
     </g>
    </g>
    <g id="xtick_7">
     <g id="line2d_7">
      <g>
       <use xlink:href="#m31e81a7f83" x="421.659785" y="530.438125" style="stroke: #000000; stroke-width: 0.8"/>
      </g>
     </g>
     <g id="text_7">
      <!-- 0.4 -->
      <g transform="translate(413.708222 545.036562) scale(0.1 -0.1)">
       <use xlink:href="#DejaVuSans-30"/>
       <use xlink:href="#DejaVuSans-2e" transform="translate(63.623047 0)"/>
       <use xlink:href="#DejaVuSans-34" transform="translate(95.410156 0)"/>
      </g>
     </g>
    </g>
    <g id="xtick_8">
     <g id="line2d_8">
      <g>
       <use xlink:href="#m31e81a7f83" x="479.148015" y="530.438125" style="stroke: #000000; stroke-width: 0.8"/>
      </g>
     </g>
     <g id="text_8">
      <!-- 0.6 -->
      <g transform="translate(471.196452 545.036562) scale(0.1 -0.1)">
       <use xlink:href="#DejaVuSans-30"/>
       <use xlink:href="#DejaVuSans-2e" transform="translate(63.623047 0)"/>
       <use xlink:href="#DejaVuSans-36" transform="translate(95.410156 0)"/>
      </g>
     </g>
    </g>
    <g id="xtick_9">
     <g id="line2d_9">
      <g>
       <use xlink:href="#m31e81a7f83" x="536.636245" y="530.438125" style="stroke: #000000; stroke-width: 0.8"/>
      </g>
     </g>
     <g id="text_9">
      <!-- 0.8 -->
      <g transform="translate(528.684682 545.036562) scale(0.1 -0.1)">
       <use xlink:href="#DejaVuSans-30"/>
       <use xlink:href="#DejaVuSans-2e" transform="translate(63.623047 0)"/>
       <use xlink:href="#DejaVuSans-38" transform="translate(95.410156 0)"/>
      </g>
     </g>
    </g>
    <g id="text_10">
     <!-- x0 -->
     <g transform="translate(300.545312 558.714687) scale(0.1 -0.1)">
      <defs>
       <path id="DejaVuSans-78" d="M 3513 3500 
L 2247 1797 
L 3578 0 
L 2900 0 
L 1881 1375 
L 863 0 
L 184 0 
L 1544 1831 
L 300 3500 
L 978 3500 
L 1906 2253 
L 2834 3500 
L 3513 3500 
z
" transform="scale(0.015625)"/>
      </defs>
      <use xlink:href="#DejaVuSans-78"/>
      <use xlink:href="#DejaVuSans-30" transform="translate(59.179688 0)"/>
     </g>
    </g>
   </g>
   <g id="matplotlib.axis_2">
    <g id="ytick_1">
     <g id="line2d_10">
      <defs>
       <path id="mdf2fe367de" d="M 0 0 
L -3.5 0 
" style="stroke: #000000; stroke-width: 0.8"/>
      </defs>
      <g>
       <use xlink:href="#mdf2fe367de" x="52.160938" y="500.929055" style="stroke: #000000; stroke-width: 0.8"/>
      </g>
     </g>
     <g id="text_11">
      <!-- −2.0 -->
      <g transform="translate(20.878125 504.728273) scale(0.1 -0.1)">
       <use xlink:href="#DejaVuSans-2212"/>
       <use xlink:href="#DejaVuSans-32" transform="translate(83.789062 0)"/>
       <use xlink:href="#DejaVuSans-2e" transform="translate(147.412109 0)"/>
       <use xlink:href="#DejaVuSans-30" transform="translate(179.199219 0)"/>
      </g>
     </g>
    </g>
    <g id="ytick_2">
     <g id="line2d_11">
      <g>
       <use xlink:href="#mdf2fe367de" x="52.160938" y="441.045852" style="stroke: #000000; stroke-width: 0.8"/>
      </g>
     </g>
     <g id="text_12">
      <!-- −1.5 -->
      <g transform="translate(20.878125 444.84507) scale(0.1 -0.1)">
       <defs>
        <path id="DejaVuSans-31" d="M 794 531 
L 1825 531 
L 1825 4091 
L 703 3866 
L 703 4441 
L 1819 4666 
L 2450 4666 
L 2450 531 
L 3481 531 
L 3481 0 
L 794 0 
L 794 531 
z
" transform="scale(0.015625)"/>
        <path id="DejaVuSans-35" d="M 691 4666 
L 3169 4666 
L 3169 4134 
L 1269 4134 
L 1269 2991 
Q 1406 3038 1543 3061 
Q 1681 3084 1819 3084 
Q 2600 3084 3056 2656 
Q 3513 2228 3513 1497 
Q 3513 744 3044 326 
Q 2575 -91 1722 -91 
Q 1428 -91 1123 -41 
Q 819 9 494 109 
L 494 744 
Q 775 591 1075 516 
Q 1375 441 1709 441 
Q 2250 441 2565 725 
Q 2881 1009 2881 1497 
Q 2881 1984 2565 2268 
Q 2250 2553 1709 2553 
Q 1456 2553 1204 2497 
Q 953 2441 691 2322 
L 691 4666 
z
" transform="scale(0.015625)"/>
       </defs>
       <use xlink:href="#DejaVuSans-2212"/>
       <use xlink:href="#DejaVuSans-31" transform="translate(83.789062 0)"/>
       <use xlink:href="#DejaVuSans-2e" transform="translate(147.412109 0)"/>
       <use xlink:href="#DejaVuSans-35" transform="translate(179.199219 0)"/>
      </g>
     </g>
    </g>
    <g id="ytick_3">
     <g id="line2d_12">
      <g>
       <use xlink:href="#mdf2fe367de" x="52.160938" y="381.162649" style="stroke: #000000; stroke-width: 0.8"/>
      </g>
     </g>
     <g id="text_13">
      <!-- −1.0 -->
      <g transform="translate(20.878125 384.961868) scale(0.1 -0.1)">
       <use xlink:href="#DejaVuSans-2212"/>
       <use xlink:href="#DejaVuSans-31" transform="translate(83.789062 0)"/>
       <use xlink:href="#DejaVuSans-2e" transform="translate(147.412109 0)"/>
       <use xlink:href="#DejaVuSans-30" transform="translate(179.199219 0)"/>
      </g>
     </g>
    </g>
    <g id="ytick_4">
     <g id="line2d_13">
      <g>
       <use xlink:href="#mdf2fe367de" x="52.160938" y="321.279446" style="stroke: #000000; stroke-width: 0.8"/>
      </g>
     </g>
     <g id="text_14">
      <!-- −0.5 -->
      <g transform="translate(20.878125 325.078665) scale(0.1 -0.1)">
       <use xlink:href="#DejaVuSans-2212"/>
       <use xlink:href="#DejaVuSans-30" transform="translate(83.789062 0)"/>
       <use xlink:href="#DejaVuSans-2e" transform="translate(147.412109 0)"/>
       <use xlink:href="#DejaVuSans-35" transform="translate(179.199219 0)"/>
      </g>
     </g>
    </g>
    <g id="ytick_5">
     <g id="line2d_14">
      <g>
       <use xlink:href="#mdf2fe367de" x="52.160938" y="261.396243" style="stroke: #000000; stroke-width: 0.8"/>
      </g>
     </g>
     <g id="text_15">
      <!-- 0.0 -->
      <g transform="translate(29.257812 265.195462) scale(0.1 -0.1)">
       <use xlink:href="#DejaVuSans-30"/>
       <use xlink:href="#DejaVuSans-2e" transform="translate(63.623047 0)"/>
       <use xlink:href="#DejaVuSans-30" transform="translate(95.410156 0)"/>
      </g>
     </g>
    </g>
    <g id="ytick_6">
     <g id="line2d_15">
      <g>
       <use xlink:href="#mdf2fe367de" x="52.160938" y="201.51304" style="stroke: #000000; stroke-width: 0.8"/>
      </g>
     </g>
     <g id="text_16">
      <!-- 0.5 -->
      <g transform="translate(29.257812 205.312259) scale(0.1 -0.1)">
       <use xlink:href="#DejaVuSans-30"/>
       <use xlink:href="#DejaVuSans-2e" transform="translate(63.623047 0)"/>
       <use xlink:href="#DejaVuSans-35" transform="translate(95.410156 0)"/>
      </g>
     </g>
    </g>
    <g id="ytick_7">
     <g id="line2d_16">
      <g>
       <use xlink:href="#mdf2fe367de" x="52.160938" y="141.629837" style="stroke: #000000; stroke-width: 0.8"/>
      </g>
     </g>
     <g id="text_17">
      <!-- 1.0 -->
      <g transform="translate(29.257812 145.429056) scale(0.1 -0.1)">
       <use xlink:href="#DejaVuSans-31"/>
       <use xlink:href="#DejaVuSans-2e" transform="translate(63.623047 0)"/>
       <use xlink:href="#DejaVuSans-30" transform="translate(95.410156 0)"/>
      </g>
     </g>
    </g>
    <g id="ytick_8">
     <g id="line2d_17">
      <g>
       <use xlink:href="#mdf2fe367de" x="52.160938" y="81.746634" style="stroke: #000000; stroke-width: 0.8"/>
      </g>
     </g>
     <g id="text_18">
      <!-- 1.5 -->
      <g transform="translate(29.257812 85.545853) scale(0.1 -0.1)">
       <use xlink:href="#DejaVuSans-31"/>
       <use xlink:href="#DejaVuSans-2e" transform="translate(63.623047 0)"/>
       <use xlink:href="#DejaVuSans-35" transform="translate(95.410156 0)"/>
      </g>
     </g>
    </g>
    <g id="text_19">
     <!-- x1 -->
     <g transform="translate(14.798438 282.51875) rotate(-90) scale(0.1 -0.1)">
      <use xlink:href="#DejaVuSans-78"/>
      <use xlink:href="#DejaVuSans-31" transform="translate(59.179688 0)"/>
     </g>
    </g>
   </g>
   <g id="line2d_18">
    <path d="M 536.636245 237.442962 
L 537.154046 242.286371 
L 537.555354 247.130878 
L 537.840171 251.974088 
L 538.008556 256.813599 
L 538.060628 261.647007 
L 537.996564 266.47191 
L 537.816697 271.286249 
L 537.52136 276.087697 
L 537.110875 280.873682 
L 536.585623 285.64166 
L 535.946045 290.389112 
L 535.192638 295.113546 
L 534.325957 299.812495 
L 533.346618 304.483521 
L 532.255292 309.12421 
L 531.052709 313.732175 
L 529.739659 318.305056 
L 528.316989 322.840518 
L 526.785604 327.336253 
L 525.146468 331.78998 
L 523.400601 336.199443 
L 521.549085 340.562414 
L 519.593057 344.87669 
L 517.533714 349.140094 
L 515.37231 353.350477 
L 513.110158 357.505715 
L 510.74863 361.603711 
L 508.289155 365.642394 
L 505.733219 369.619719 
L 503.08237 373.533668 
L 500.33821 377.38225 
L 497.502403 381.163497 
L 494.576668 384.875472 
L 491.562785 388.516261 
L 488.462575 392.084002 
L 485.27739 395.577768 
L 482.008904 398.996093 
L 478.659095 402.337067 
L 475.229962 405.598848 
L 471.723523 408.779664 
L 468.141814 411.877814 
L 464.486892 414.891665 
L 460.760832 417.819656 
L 456.965728 420.660294 
L 449.176864 426.073893 
L 441.137438 431.121925 
L 432.864898 435.794968 
L 424.376997 440.084722 
L 415.691796 443.984003 
L 406.827662 447.486746 
L 397.803272 450.588005 
L 388.637607 453.283951 
L 379.349956 455.571875 
L 369.959917 457.450186 
L 360.487391 458.918412 
L 350.952591 459.977197 
L 341.376034 460.628307 
L 331.778545 460.874624 
L 322.181255 460.720149 
L 312.604656 460.169733 
L 303.061208 459.226239 
L 293.569468 457.893758 
L 284.149603 456.177464 
L 274.821194 454.083127 
L 265.603231 451.617107 
L 256.51411 448.786358 
L 247.571642 445.598425 
L 238.793044 442.061447 
L 230.194946 438.184154 
L 221.793384 433.97587 
L 213.603807 429.44651 
L 205.641073 424.606582 
L 197.919449 419.467187 
L 190.452612 414.040018 
L 183.25365 408.337361 
L 176.335059 402.372093 
L 169.708746 396.157686 
L 163.386028 389.708201 
L 157.377632 383.038295 
L 151.693692 376.163216 
L 146.343756 369.098803 
L 141.33538 361.857899 
L 136.674838 354.448978 
L 132.371268 346.88742 
L 128.432989 339.188892 
L 124.867395 331.369097 
L 121.68095 323.443773 
L 118.879189 315.4287 
L 116.466719 307.339691 
L 114.44722 299.192599 
L 112.823441 291.003313 
L 111.597203 282.78776 
L 110.769401 274.561903 
L 110.339999 266.341745 
L 110.308033 258.143324 
L 110.671611 249.982716 
L 111.427912 241.876034 
L 112.573187 233.839429 
L 114.102758 225.889089 
L 116.01102 218.04124 
L 118.291437 210.312144 
L 120.936547 202.7181 
L 123.938872 195.274187 
L 127.294131 187.990984 
L 130.994429 180.884253 
L 135.030798 173.969788 
L 139.393721 167.26259 
L 144.073137 160.77687 
L 149.058436 154.526045 
L 154.338461 148.522743 
L 159.901509 142.778799 
L 165.73533 137.305256 
L 171.827125 132.112366 
L 178.16355 127.209589 
L 184.730714 122.605594 
L 191.514177 118.308258 
L 198.498956 114.324665 
L 205.669516 110.66111 
L 213.009778 107.323094 
L 220.503116 104.315327 
L 228.132357 101.641729 
L 235.879778 99.305426 
L 243.727229 97.30874 
L 251.66267 95.652643 
L 259.671741 94.338316 
L 267.73666 93.366789 
L 275.839937 92.738386 
L 283.964374 92.452713 
L 292.093071 92.508668 
L 300.209416 92.904436 
L 308.297094 93.63749 
L 316.340082 94.704591 
L 324.322652 96.101789 
L 332.229369 97.824421 
L 340.045089 99.867112 
L 347.754965 102.223777 
L 355.344441 104.887617 
L 362.799257 107.851121 
L 370.105443 111.106069 
L 377.249325 114.643525 
L 384.217522 118.453844 
L 390.996946 122.526668 
L 397.574804 126.850929 
L 403.938593 131.414843 
L 410.076547 136.206577 
L 415.98134 141.220826 
L 421.642401 146.448241 
L 427.048567 151.877496 
L 432.189412 157.497072 
L 437.055252 163.295255 
L 441.637145 169.260136 
L 445.926886 175.379612 
L 449.917014 181.641384 
L 453.600807 188.03296 
L 456.972282 194.541653 
L 460.0262 201.15458 
L 462.758059 207.858666 
L 465.164099 214.640639 
L 467.241302 221.487033 
L 468.987388 228.384188 
L 470.400819 235.318249 
L 471.480797 242.275166 
L 472.227264 249.240695 
L 472.640904 256.200397 
L 472.723103 263.139966 
L 472.474986 270.049822 
L 471.897788 276.916375 
L 470.993498 283.724426 
L 469.764763 290.459221 
L 468.21489 297.106457 
L 466.347844 303.652279 
L 464.168252 310.083281 
L 461.681398 316.386505 
L 458.893227 322.549441 
L 455.810343 328.56003 
L 452.440009 334.40666 
L 448.790148 340.078166 
L 444.869343 345.563835 
L 440.686834 350.853401 
L 436.252523 355.937046 
L 431.576971 360.805401 
L 426.671397 365.449547 
L 421.547681 369.861011 
L 416.218362 374.031772 
L 410.696638 377.954254 
L 404.996366 381.621332 
L 399.130159 385.027065 
L 393.105593 388.167771 
L 386.935969 391.037784 
L 380.635171 393.6319 
L 374.217055 395.945627 
L 367.695453 397.975187 
L 361.084171 399.717514 
L 354.396992 401.170256 
L 347.647672 402.331774 
L 340.849942 403.201142 
L 334.017508 403.778148 
L 327.164054 404.063292 
L 320.303233 404.057787 
L 313.448679 403.763561 
L 306.613997 403.183253 
L 299.812768 402.320216 
L 293.058549 401.178517 
L 286.364871 399.762936 
L 279.745239 398.078964 
L 273.213134 396.132807 
L 266.782013 393.931385 
L 260.464582 391.481786 
L 254.268478 388.78734 
L 248.205462 385.854002 
L 242.287975 382.688858 
L 236.5279 379.2993 
L 230.936569 375.693032 
L 225.524753 371.878068 
L 220.30267 367.86273 
L 215.279983 363.655651 
L 210.465799 359.265771 
L 205.868667 354.702341 
L 201.496583 349.974923 
L 197.356986 345.093387 
L 193.456761 340.067911 
L 189.802235 334.908984 
L 186.39918 329.627405 
L 183.252814 324.234282 
L 180.367798 318.741033 
L 177.748236 313.159383 
L 175.39768 307.50137 
L 173.319122 301.779339 
L 171.514708 296.004036 
L 169.986225 290.183226 
L 168.73628 284.329448 
L 167.766904 278.455327 
L 167.079487 272.573286 
L 166.674777 266.695547 
L 166.552884 260.834129 
L 166.713276 255.000853 
L 167.15478 249.207337 
L 167.875585 243.465 
L 168.873238 237.785056 
L 170.144645 232.178523 
L 171.686072 226.656213 
L 173.493145 221.22874 
L 175.560849 215.906517 
L 177.883529 210.699754 
L 180.45489 205.618461 
L 183.267995 200.672448 
L 186.315268 195.871321 
L 189.588492 191.224488 
L 193.07881 186.741155 
L 196.776724 182.430326 
L 200.675084 178.298859 
L 204.767954 174.352824 
L 209.045732 170.600366 
L 213.498623 167.049036 
L 218.116659 163.70578 
L 222.889695 160.576937 
L 227.80741 157.668241 
L 232.859309 154.984821 
L 238.034721 152.531199 
L 243.322801 150.311293 
L 248.712527 148.328414 
L 254.192701 146.585268 
L 259.751953 145.083954 
L 265.378735 143.825968 
L 271.061324 142.812199 
L 276.787822 142.042929 
L 282.546156 141.517837 
L 288.324077 141.235994 
L 294.10916 141.195866 
L 299.888808 141.395315 
L 305.65106 141.832325 
L 308.522782 142.139898 
L 308.522782 142.139898 
" clip-path="url(#pfb1cb136d8)" style="fill: none; stroke: #000000; stroke-opacity: 0.3; stroke-width: 7; stroke-linecap: square"/>
   </g>
   <g id="line2d_19">
    <path d="M 536.636245 237.442962 
L 537.15465 242.237536 
L 537.557664 247.041704 
L 537.845023 251.853062 
L 538.016575 256.669199 
L 538.072301 261.487703 
L 538.012181 266.30616 
L 537.836231 271.122162 
L 537.544475 275.933291 
L 537.137064 280.737135 
L 536.614267 285.531296 
L 535.976354 290.313372 
L 535.22363 295.080973 
L 534.356408 299.831697 
L 533.375129 304.563164 
L 532.280349 309.273017 
L 531.072622 313.958901 
L 529.752541 318.618468 
L 528.320701 323.249367 
L 526.77783 327.849277 
L 525.124765 332.415915 
L 523.362339 336.946997 
L 521.491426 341.440253 
L 519.512902 345.893405 
L 517.427773 350.304227 
L 515.237153 354.670534 
L 512.942155 358.990145 
L 510.543933 363.260896 
L 508.043636 367.480613 
L 505.442556 371.647189 
L 502.742091 375.758573 
L 499.943638 379.812711 
L 497.048638 383.807576 
L 494.058526 387.741127 
L 490.974892 391.611409 
L 487.799433 395.41653 
L 484.53385 399.154598 
L 481.179886 402.823751 
L 477.739284 406.422114 
L 470.605882 413.399451 
L 463.14967 420.072978 
L 455.387211 426.429412 
L 447.336392 432.456506 
L 439.015736 438.142606 
L 430.444481 443.476771 
L 421.642562 448.449161 
L 412.630174 453.050375 
L 403.427718 457.272235 
L 394.055534 461.107209 
L 384.533762 464.548559 
L 374.881879 467.590631 
L 365.119043 470.228214 
L 355.263337 472.457212 
L 345.332236 474.274086 
L 335.342462 475.675977 
L 325.309816 476.660908 
L 315.249738 477.227257 
L 305.177113 477.374318 
L 295.106695 477.101843 
L 285.053221 476.410164 
L 275.031814 475.300435 
L 265.057821 473.774142 
L 255.147517 471.833734 
L 245.317732 469.482174 
L 235.58607 466.723103 
L 225.971138 463.561155 
L 216.491974 460.001378 
L 207.16844 456.050014 
L 198.020679 451.713908 
L 189.069094 447.00073 
L 180.334011 441.919242 
L 171.835684 436.478675 
L 163.5937 430.689472 
L 155.627183 424.562654 
L 147.954545 418.110019 
L 140.593049 411.344309 
L 133.559451 404.278665 
L 130.170425 400.637761 
L 126.869048 396.927206 
L 123.65711 393.148835 
L 120.53642 389.304483 
L 117.50859 385.396094 
L 114.575159 381.425647 
L 111.737668 377.39512 
L 108.997602 373.30652 
L 106.356462 369.161853 
L 103.815559 364.963216 
L 101.376142 360.712732 
L 99.039461 356.412525 
L 96.806709 352.06474 
L 94.679098 347.671526 
L 92.657659 343.235101 
L 90.74336 338.757702 
L 88.93717 334.241571 
L 87.240002 329.688961 
L 85.652794 325.102133 
L 84.176294 320.483397 
L 82.811192 315.835079 
L 81.558179 311.159504 
L 80.417889 306.459008 
L 79.390979 301.735934 
L 78.477915 296.992656 
L 77.679102 292.231557 
L 76.99495 287.455019 
L 76.425806 282.665429 
L 75.972042 277.865183 
L 75.633835 273.05669 
L 75.411305 268.242359 
L 75.30457 263.424601 
L 75.31369 258.605823 
L 75.438749 253.788445 
L 75.67963 248.97488 
L 76.036165 244.167533 
L 76.508183 239.368813 
L 77.095453 234.581118 
L 77.797769 229.806863 
L 78.614726 225.048431 
L 79.545867 220.308197 
L 80.590733 215.588535 
L 81.748808 210.891806 
L 83.019598 206.220388 
L 84.402411 201.576606 
L 85.896508 196.962773 
L 87.50115 192.381202 
L 89.215538 187.834183 
L 91.038895 183.32403 
L 92.97025 178.85298 
L 95.008587 174.423255 
L 97.152887 170.037076 
L 99.402071 165.696636 
L 101.755089 161.404154 
L 104.210688 157.16175 
L 106.767569 152.971527 
L 109.424434 148.835585 
L 112.179919 144.755991 
L 115.032692 140.734837 
L 117.981207 136.7741 
L 121.023871 132.875731 
L 124.159089 129.041682 
L 127.385199 125.273859 
L 130.700569 121.574203 
L 134.103342 117.944513 
L 137.591612 114.386557 
L 144.816962 107.492876 
L 152.360768 100.906934 
L 160.205753 94.64147 
L 168.334046 88.708731 
L 176.726884 83.120173 
L 185.364722 77.88627 
L 194.22765 73.017025 
L 203.295326 68.521191 
L 212.547357 64.406961 
L 221.96342 60.681625 
L 231.523638 57.351468 
L 241.208399 54.42228 
L 250.999097 51.898677 
L 260.877638 49.784776 
L 270.82678 48.083896 
L 280.830193 46.798531 
L 290.872004 45.930769 
L 300.937102 45.481743 
L 311.010594 45.452181 
L 321.077769 45.842147 
L 331.123757 46.650973 
L 341.133538 47.877624 
L 351.091302 49.520107 
L 360.980799 51.575994 
L 370.784954 54.042114 
L 380.485757 56.914426 
L 390.064691 60.188435 
L 399.502255 63.858466 
L 408.778614 67.918316 
L 417.873497 72.36087 
L 426.766517 77.178024 
L 435.437266 82.361146 
L 443.865807 87.900362 
L 452.032535 93.785274 
L 459.918531 100.004592 
L 467.505834 106.546145 
L 474.77702 113.397293 
L 478.28905 116.934708 
L 481.716097 120.54437 
L 485.056289 124.224494 
L 488.307714 127.973303 
L 491.468708 131.788887 
L 494.537625 135.669323 
L 497.512819 139.612689 
L 500.392731 143.617019 
L 503.175764 147.680357 
L 505.860552 151.800632 
L 508.445749 155.975767 
L 510.930008 160.203685 
L 513.312062 164.482272 
L 515.590609 168.809421 
L 517.764569 173.182934 
L 519.832877 177.600609 
L 521.79447 182.060244 
L 523.648362 186.559607 
L 525.39353 191.09647 
L 527.029173 195.668537 
L 528.554505 200.27351 
L 529.968739 204.90909 
L 531.27117 209.572959 
L 532.461052 214.262794 
L 533.537868 218.976233 
L 534.501111 223.710908 
L 535.350276 228.464455 
L 536.084942 233.234495 
L 536.704648 238.018644 
L 537.209162 242.8145 
L 537.598265 247.619659 
L 537.871739 252.431716 
L 538.029452 257.248267 
L 538.071229 262.066892 
L 537.997131 266.885181 
L 537.807228 271.700722 
L 537.501591 276.511103 
L 537.080377 281.31392 
L 536.543704 286.106751 
L 535.891921 290.887208 
L 535.125387 295.6529 
L 534.244461 300.401439 
L 533.249589 305.13045 
L 532.141177 309.837542 
L 530.919862 314.520374 
L 529.586285 319.176611 
L 528.141091 323.803913 
L 526.585008 328.399971 
L 524.918727 332.962448 
L 523.143163 337.489086 
L 521.25924 341.977628 
L 519.267878 346.42582 
L 517.170087 350.831441 
L 514.966835 355.192239 
L 512.659317 359.506069 
L 510.248734 363.770784 
L 507.736286 367.984238 
L 505.123266 372.144331 
L 502.410919 376.248928 
L 499.60073 380.296021 
L 496.694189 384.283603 
L 493.692786 388.20967 
L 490.598109 392.072271 
L 487.411696 395.869414 
L 484.13534 399.599263 
L 480.770837 403.259983 
L 477.319985 406.849739 
L 470.166776 413.809236 
L 462.691601 420.464011 
L 454.911397 426.801082 
L 446.843768 432.807939 
L 438.507508 438.473188 
L 429.921847 443.785927 
L 421.106691 448.736193 
L 412.082294 453.314933 
L 402.869086 457.513675 
L 393.487351 461.32518 
L 383.957187 464.742725 
L 374.298164 467.760562 
L 364.52915 470.373786 
L 354.668496 472.578048 
L 344.7334 474.370065 
L 334.740576 475.746975 
L 324.705888 476.706737 
L 314.644617 477.247976 
L 304.571709 477.369772 
L 294.501893 477.072095 
L 284.449927 476.35528 
L 274.430882 475.220413 
L 264.460338 473.66924 
L 254.554319 471.703971 
L 244.729939 469.327821 
L 235.004787 466.544429 
L 225.397422 463.358354 
L 215.927092 459.774961 
L 206.613526 455.800199 
L 197.476981 451.441224 
L 188.537832 446.705682 
L 179.816444 441.602279 
L 171.3329 436.140553 
L 163.107001 430.330671 
L 155.157617 424.183951 
L 147.503173 417.712153 
L 140.160999 410.927987 
L 136.612156 407.422934 
L 133.147483 403.844836 
L 129.768936 400.19544 
L 126.478268 396.476605 
L 123.277232 392.690193 
L 120.16756 388.838074 
L 117.150935 384.92215 
L 114.228995 380.944356 
L 111.403187 376.906717 
L 108.674959 372.811261 
L 106.045741 368.660024 
L 103.516916 364.455066 
L 101.08982 360.198475 
L 98.765616 355.892415 
L 96.545462 351.539049 
L 94.430503 347.140545 
L 92.421839 342.699094 
L 90.520521 338.216908 
L 88.727434 333.696257 
L 87.043459 329.13941 
L 85.46946 324.54864 
L 84.006262 319.926237 
L 82.654636 315.274511 
L 81.415186 310.595806 
L 80.288515 305.892471 
L 79.275205 301.166853 
L 78.375801 296.421313 
L 77.590789 291.658226 
L 76.92049 286.879987 
L 76.365219 282.088991 
L 75.925275 277.28763 
L 75.600916 272.478309 
L 75.392339 267.663437 
L 75.299574 262.845428 
L 75.32265 258.026694 
L 75.461573 253.209645 
L 75.716317 248.396695 
L 76.086783 243.590261 
L 76.572713 238.792743 
L 77.173846 234.006542 
L 77.889901 229.234053 
L 78.72056 224.477674 
L 79.665436 219.739795 
L 80.723983 215.022774 
L 81.895655 210.32897 
L 83.179883 205.660734 
L 84.576068 201.020416 
L 86.083533 196.410351 
L 87.701453 191.832825 
L 89.429001 187.290126 
L 91.265327 182.78453 
L 93.209553 178.318313 
L 95.260722 173.893721 
L 97.41773 169.512942 
L 99.679473 165.178162 
L 102.044821 160.891556 
L 104.512621 156.655293 
L 107.081633 152.471504 
L 109.750469 148.342248 
L 112.517742 144.269582 
L 115.382034 140.255548 
L 118.341907 136.302179 
L 121.395827 132.411465 
L 124.542106 128.585301 
L 127.779055 124.825587 
L 131.104955 121.1342 
L 134.518062 117.513009 
L 138.016529 113.963827 
L 145.261541 107.088308 
L 152.823839 100.521186 
L 160.686441 94.275447 
L 168.831137 88.363041 
L 177.239253 82.79551 
L 185.891205 77.583306 
L 194.767003 72.736164 
L 203.84633 68.263118 
L 213.108806 64.17202 
L 222.534082 60.470269 
L 232.102287 57.164105 
L 241.79402 54.259082 
L 251.590428 51.76006 
L 261.473729 49.670855 
L 271.426583 47.994889 
L 281.43271 46.73461 
L 291.476376 45.891934 
L 301.542389 45.468119 
L 301.542389 45.468119 
" clip-path="url(#pfb1cb136d8)" style="fill: none; stroke-dasharray: 22.4,5.6,3.5,5.6; stroke-dashoffset: 0; stroke: #0000ff; stroke-opacity: 0.8; stroke-width: 3.5"/>
   </g>
   <g id="patch_3">
    <path d="M 52.160938 530.438125 
L 52.160938 22.318125 
" style="fill: none; stroke: #000000; stroke-width: 0.8; stroke-linejoin: miter; stroke-linecap: square"/>
   </g>
   <g id="patch_4">
    <path d="M 561.210937 530.438125 
L 561.210937 22.318125 
" style="fill: none; stroke: #000000; stroke-width: 0.8; stroke-linejoin: miter; stroke-linecap: square"/>
   </g>
   <g id="patch_5">
    <path d="M 52.160938 530.438125 
L 561.210938 530.438125 
" style="fill: none; stroke: #000000; stroke-width: 0.8; stroke-linejoin: miter; stroke-linecap: square"/>
   </g>
   <g id="patch_6">
    <path d="M 52.160938 22.318125 
L 561.210938 22.318125 
" style="fill: none; stroke: #000000; stroke-width: 0.8; stroke-linejoin: miter; stroke-linecap: square"/>
   </g>
   <g id="line2d_20">
    <path d="M 536.636245 237.442962 
L 537.133004 242.014025 
L 537.79355 251.14497 
L 538.040817 260.243685 
L 537.898326 269.291503 
L 537.382011 278.27101 
L 536.490643 287.168821 
L 535.215378 295.974213 
L 533.54217 304.679699 
L 531.459724 313.283395 
L 528.959895 321.785873 
L 526.046227 330.191762 
L 522.729156 338.506696 
L 519.025768 346.736122 
L 514.953861 354.880863 
L 510.529882 362.939273 
L 505.755745 370.901086 
L 500.621962 378.750492 
L 495.104459 386.465433 
L 492.19046 390.2627 
L 489.167732 394.014343 
L 486.029577 397.715657 
L 482.772372 401.361338 
L 479.395915 404.945907 
L 475.900007 408.463885 
L 472.286385 411.910286 
L 468.555853 415.27875 
L 464.716367 418.564362 
L 460.781208 421.763783 
L 456.763659 424.873675 
L 448.541231 430.814393 
L 440.19967 436.377144 
L 431.917072 441.574738 
L 416.260705 450.975465 
L 405.973211 457.305041 
L 400.066945 461.261623 
L 395.03915 465.061046 
L 392.879055 466.916799 
L 390.958719 468.752065 
L 389.280004 470.573542 
L 387.843062 472.387963 
L 386.646764 474.202612 
L 385.67933 476.024996 
L 384.924802 477.862577 
L 384.364897 479.722803 
L 383.968758 481.612853 
L 383.485908 485.507183 
L 382.936369 489.578022 
L 382.36849 491.67751 
L 381.393685 493.806229 
L 379.818587 495.947094 
L 377.408095 498.067654 
L 373.91379 500.125346 
L 369.09746 502.062112 
L 362.772607 503.807256 
L 354.878702 505.281116 
L 345.525009 506.403667 
L 335.03368 507.105672 
L 323.919624 507.341761 
L 312.80949 507.101778 
L 302.317566 506.413183 
L 292.930731 505.334464 
L 284.942653 503.94135 
L 278.451131 502.312596 
L 273.396449 500.519568 
L 269.61971 498.621498 
L 266.913001 496.664168 
L 265.056841 494.681435 
L 263.843476 492.696712 
L 263.088918 490.725293 
L 262.636948 488.77627 
L 262.147196 484.959859 
L 261.62264 481.246921 
L 261.193987 479.420676 
L 260.599142 477.60799 
L 259.810974 475.803282 
L 258.806473 474.00074 
L 257.573138 472.194624 
L 256.101344 470.379315 
L 254.384479 468.549242 
L 252.422601 466.69941 
L 250.217955 464.825131 
L 247.773093 462.92166 
L 242.199741 459.012166 
L 235.791816 454.943396 
L 228.66782 450.691922 
L 204.541766 436.635049 
L 196.140788 431.441885 
L 187.83032 425.955963 
L 179.744846 420.15705 
L 175.825066 417.134595 
L 171.999761 414.029329 
L 168.276238 410.841213 
L 164.66157 407.570286 
L 161.160375 404.217317 
L 157.775778 400.783533 
L 154.505855 397.27178 
L 151.348684 393.684904 
L 148.302404 390.025788 
L 145.364004 386.297787 
L 142.528788 382.504548 
L 139.793544 378.650322 
L 134.610301 370.775916 
L 129.792915 362.709326 
L 125.336351 354.486556 
L 121.248611 346.143275 
L 117.546238 337.714284 
L 114.247611 329.230136 
L 111.368508 320.719165 
L 108.913906 312.204376 
L 106.878455 303.704527 
L 105.248609 295.235269 
L 104.004129 286.807738 
L 103.124232 278.431593 
L 102.593354 270.114071 
L 102.404071 261.861327 
L 102.556964 253.678837 
L 103.065976 245.571919 
L 103.94979 237.54602 
L 105.231574 229.607397 
L 106.932644 221.76325 
L 107.946637 217.879045 
L 109.070433 214.021734 
L 110.304071 210.192622 
L 111.647343 206.393042 
L 113.099377 202.624412 
L 116.320576 195.186402 
L 119.938835 187.892593 
L 123.919335 180.757742 
L 128.220491 173.797511 
L 132.801207 167.027559 
L 137.623385 160.463123 
L 142.662315 154.117859 
L 147.899935 148.004616 
L 153.334132 142.134276 
L 158.972641 136.516585 
L 164.830931 131.160259 
L 170.93045 126.072596 
L 177.293585 121.26037 
L 183.939446 116.729236 
L 190.882183 112.484225 
L 198.13029 108.529963 
L 205.681107 104.871581 
L 213.527466 101.514664 
L 221.652562 98.467607 
L 230.034271 95.741411 
L 238.646237 93.350046 
L 247.457542 91.31222 
L 256.435975 89.648537 
L 265.547539 88.381584 
L 274.757639 87.533497 
L 279.388747 87.273336 
L 284.031234 87.124923 
L 288.680575 87.089905 
L 293.332194 87.169665 
L 297.981522 87.365575 
L 302.623789 87.678138 
L 307.253963 88.106603 
L 311.867012 88.650221 
L 316.457903 89.30803 
L 321.021393 90.078749 
L 325.552109 90.960245 
L 330.044713 91.949531 
L 338.894423 94.239465 
L 347.528077 96.922359 
L 355.90813 99.96812 
L 364.002226 103.346191 
L 371.784712 107.026489 
L 379.243563 110.98245 
L 386.372686 115.189221 
L 393.179805 119.626789 
L 399.679581 124.278089 
L 405.892943 129.128939 
L 411.844506 134.168964 
L 417.559476 139.389177 
L 423.058358 144.783263 
L 428.356483 150.345969 
L 433.462221 156.073023 
L 438.371008 161.960276 
L 443.072712 168.003497 
L 447.545224 174.19712 
L 451.761264 180.534399 
L 455.689281 187.00713 
L 459.298116 193.604946 
L 462.557792 200.316586 
L 465.447399 207.129371 
L 467.952912 214.030281 
L 470.068999 221.00605 
L 471.802185 228.043862 
L 473.163681 235.131167 
L 474.171234 242.255984 
L 474.843725 249.406525 
L 475.199436 256.571083 
L 475.250915 263.737243 
L 475.00753 270.892238 
L 474.469662 278.021546 
L 473.633228 285.109433 
L 472.489569 292.138634 
L 471.028 299.08966 
L 469.237694 305.942063 
L 467.112417 312.673751 
L 464.649787 319.262198 
L 461.8529 325.684635 
L 458.732176 331.919555 
L 455.301042 337.946128 
L 451.577109 343.746899 
L 447.57875 349.306607 
L 443.324186 354.61302 
L 438.828976 359.658269 
L 434.107208 364.43635 
L 429.168956 368.945494 
L 424.02241 373.185755 
L 418.673745 377.159249 
L 413.127813 380.869716 
L 407.389123 384.321451 
L 401.462809 387.518714 
L 395.35476 390.465263 
L 389.072128 393.163777 
L 382.6243 395.614576 
L 376.021646 397.816814 
L 369.277235 399.766285 
L 362.405459 401.457159 
L 355.422362 402.881561 
L 348.345905 404.029999 
L 341.19482 404.892379 
L 333.989397 405.459153 
L 326.750514 405.721712 
L 319.499765 405.673336 
L 312.259146 405.311037 
L 305.050843 404.633658 
L 297.896692 403.645121 
L 290.818067 402.351704 
L 283.835485 400.762761 
L 276.967468 398.89036 
L 270.231563 396.747623 
L 263.64195 394.34852 
L 257.211053 391.706859 
L 250.948709 388.835784 
L 244.86184 385.746697 
L 238.956054 382.450104 
L 233.234834 378.953973 
L 227.701099 375.265114 
L 222.357409 371.388782 
L 217.207135 367.328898 
L 212.254198 363.088839 
L 207.505028 358.671682 
L 202.967428 354.080707 
L 198.651319 349.319802 
L 194.568687 344.394369 
L 190.732492 339.310613 
L 187.156031 334.077303 
L 183.852077 328.70445 
L 180.831826 323.203953 
L 178.102834 317.589562 
L 175.670647 311.875884 
L 173.535008 306.07873 
L 171.693066 300.214164 
L 170.138375 294.298398 
L 168.861992 288.347205 
L 167.854025 282.376065 
L 167.105448 276.399438 
L 166.608461 270.431296 
L 166.357965 264.484828 
L 166.352964 258.572539 
L 166.594663 252.706599 
L 167.08867 246.898657 
L 167.842068 241.160202 
L 168.863449 235.502503 
L 170.161007 229.93657 
L 171.742394 224.473324 
L 173.611364 219.123121 
L 175.769385 213.895969 
L 178.213824 208.801231 
L 180.937297 203.847207 
L 183.929991 199.041652 
L 187.177553 194.390725 
L 190.664122 189.899866 
L 194.372038 185.573376 
L 198.28311 181.414506 
L 202.379112 177.425996 
L 206.643233 173.609942 
L 211.059599 169.968336 
L 215.614143 166.503198 
L 220.294964 163.217043 
L 225.091326 160.112691 
L 229.994847 157.194157 
L 234.998001 154.466055 
L 240.094439 151.93408 
L 242.675846 150.74373 
L 242.675846 150.74373 
" clip-path="url(#pfb1cb136d8)" style="fill: none; stroke-dasharray: 3.5,5.775; stroke-dashoffset: 0; stroke: #008000; stroke-opacity: 0.8; stroke-width: 3.5"/>
   </g>
   <g id="text_20">
    <!-- Phase Portrait (x0 vs x1) -->
    <g transform="translate(232.994687 16.318125) scale(0.12 -0.12)">
     <defs>
      <path id="DejaVuSans-50" d="M 1259 4147 
L 1259 2394 
L 2053 2394 
Q 2494 2394 2734 2622 
Q 2975 2850 2975 3272 
Q 2975 3691 2734 3919 
Q 2494 4147 2053 4147 
L 1259 4147 
z
M 628 4666 
L 2053 4666 
Q 2838 4666 3239 4311 
Q 3641 3956 3641 3272 
Q 3641 2581 3239 2228 
Q 2838 1875 2053 1875 
L 1259 1875 
L 1259 0 
L 628 0 
L 628 4666 
z
" transform="scale(0.015625)"/>
      <path id="DejaVuSans-68" d="M 3513 2113 
L 3513 0 
L 2938 0 
L 2938 2094 
Q 2938 2591 2744 2837 
Q 2550 3084 2163 3084 
Q 1697 3084 1428 2787 
Q 1159 2491 1159 1978 
L 1159 0 
L 581 0 
L 581 4863 
L 1159 4863 
L 1159 2956 
Q 1366 3272 1645 3428 
Q 1925 3584 2291 3584 
Q 2894 3584 3203 3211 
Q 3513 2838 3513 2113 
z
" transform="scale(0.015625)"/>
      <path id="DejaVuSans-61" d="M 2194 1759 
Q 1497 1759 1228 1600 
Q 959 1441 959 1056 
Q 959 750 1161 570 
Q 1363 391 1709 391 
Q 2188 391 2477 730 
Q 2766 1069 2766 1631 
L 2766 1759 
L 2194 1759 
z
M 3341 1997 
L 3341 0 
L 2766 0 
L 2766 531 
Q 2569 213 2275 61 
Q 1981 -91 1556 -91 
Q 1019 -91 701 211 
Q 384 513 384 1019 
Q 384 1609 779 1909 
Q 1175 2209 1959 2209 
L 2766 2209 
L 2766 2266 
Q 2766 2663 2505 2880 
Q 2244 3097 1772 3097 
Q 1472 3097 1187 3025 
Q 903 2953 641 2809 
L 641 3341 
Q 956 3463 1253 3523 
Q 1550 3584 1831 3584 
Q 2591 3584 2966 3190 
Q 3341 2797 3341 1997 
z
" transform="scale(0.015625)"/>
      <path id="DejaVuSans-73" d="M 2834 3397 
L 2834 2853 
Q 2591 2978 2328 3040 
Q 2066 3103 1784 3103 
Q 1356 3103 1142 2972 
Q 928 2841 928 2578 
Q 928 2378 1081 2264 
Q 1234 2150 1697 2047 
L 1894 2003 
Q 2506 1872 2764 1633 
Q 3022 1394 3022 966 
Q 3022 478 2636 193 
Q 2250 -91 1575 -91 
Q 1294 -91 989 -36 
Q 684 19 347 128 
L 347 722 
Q 666 556 975 473 
Q 1284 391 1588 391 
Q 1994 391 2212 530 
Q 2431 669 2431 922 
Q 2431 1156 2273 1281 
Q 2116 1406 1581 1522 
L 1381 1569 
Q 847 1681 609 1914 
Q 372 2147 372 2553 
Q 372 3047 722 3315 
Q 1072 3584 1716 3584 
Q 2034 3584 2315 3537 
Q 2597 3491 2834 3397 
z
" transform="scale(0.015625)"/>
      <path id="DejaVuSans-65" d="M 3597 1894 
L 3597 1613 
L 953 1613 
Q 991 1019 1311 708 
Q 1631 397 2203 397 
Q 2534 397 2845 478 
Q 3156 559 3463 722 
L 3463 178 
Q 3153 47 2828 -22 
Q 2503 -91 2169 -91 
Q 1331 -91 842 396 
Q 353 884 353 1716 
Q 353 2575 817 3079 
Q 1281 3584 2069 3584 
Q 2775 3584 3186 3129 
Q 3597 2675 3597 1894 
z
M 3022 2063 
Q 3016 2534 2758 2815 
Q 2500 3097 2075 3097 
Q 1594 3097 1305 2825 
Q 1016 2553 972 2059 
L 3022 2063 
z
" transform="scale(0.015625)"/>
      <path id="DejaVuSans-20" transform="scale(0.015625)"/>
      <path id="DejaVuSans-6f" d="M 1959 3097 
Q 1497 3097 1228 2736 
Q 959 2375 959 1747 
Q 959 1119 1226 758 
Q 1494 397 1959 397 
Q 2419 397 2687 759 
Q 2956 1122 2956 1747 
Q 2956 2369 2687 2733 
Q 2419 3097 1959 3097 
z
M 1959 3584 
Q 2709 3584 3137 3096 
Q 3566 2609 3566 1747 
Q 3566 888 3137 398 
Q 2709 -91 1959 -91 
Q 1206 -91 779 398 
Q 353 888 353 1747 
Q 353 2609 779 3096 
Q 1206 3584 1959 3584 
z
" transform="scale(0.015625)"/>
      <path id="DejaVuSans-72" d="M 2631 2963 
Q 2534 3019 2420 3045 
Q 2306 3072 2169 3072 
Q 1681 3072 1420 2755 
Q 1159 2438 1159 1844 
L 1159 0 
L 581 0 
L 581 3500 
L 1159 3500 
L 1159 2956 
Q 1341 3275 1631 3429 
Q 1922 3584 2338 3584 
Q 2397 3584 2469 3576 
Q 2541 3569 2628 3553 
L 2631 2963 
z
" transform="scale(0.015625)"/>
      <path id="DejaVuSans-74" d="M 1172 4494 
L 1172 3500 
L 2356 3500 
L 2356 3053 
L 1172 3053 
L 1172 1153 
Q 1172 725 1289 603 
Q 1406 481 1766 481 
L 2356 481 
L 2356 0 
L 1766 0 
Q 1100 0 847 248 
Q 594 497 594 1153 
L 594 3053 
L 172 3053 
L 172 3500 
L 594 3500 
L 594 4494 
L 1172 4494 
z
" transform="scale(0.015625)"/>
      <path id="DejaVuSans-69" d="M 603 3500 
L 1178 3500 
L 1178 0 
L 603 0 
L 603 3500 
z
M 603 4863 
L 1178 4863 
L 1178 4134 
L 603 4134 
L 603 4863 
z
" transform="scale(0.015625)"/>
      <path id="DejaVuSans-28" d="M 1984 4856 
Q 1566 4138 1362 3434 
Q 1159 2731 1159 2009 
Q 1159 1288 1364 580 
Q 1569 -128 1984 -844 
L 1484 -844 
Q 1016 -109 783 600 
Q 550 1309 550 2009 
Q 550 2706 781 3412 
Q 1013 4119 1484 4856 
L 1984 4856 
z
" transform="scale(0.015625)"/>
      <path id="DejaVuSans-76" d="M 191 3500 
L 800 3500 
L 1894 563 
L 2988 3500 
L 3597 3500 
L 2284 0 
L 1503 0 
L 191 3500 
z
" transform="scale(0.015625)"/>
      <path id="DejaVuSans-29" d="M 513 4856 
L 1013 4856 
Q 1481 4119 1714 3412 
Q 1947 2706 1947 2009 
Q 1947 1309 1714 600 
Q 1481 -109 1013 -844 
L 513 -844 
Q 928 -128 1133 580 
Q 1338 1288 1338 2009 
Q 1338 2731 1133 3434 
Q 928 4138 513 4856 
z
" transform="scale(0.015625)"/>
     </defs>
     <use xlink:href="#DejaVuSans-50"/>
     <use xlink:href="#DejaVuSans-68" transform="translate(60.302734 0)"/>
     <use xlink:href="#DejaVuSans-61" transform="translate(123.681641 0)"/>
     <use xlink:href="#DejaVuSans-73" transform="translate(184.960938 0)"/>
     <use xlink:href="#DejaVuSans-65" transform="translate(237.060547 0)"/>
     <use xlink:href="#DejaVuSans-20" transform="translate(298.583984 0)"/>
     <use xlink:href="#DejaVuSans-50" transform="translate(330.371094 0)"/>
     <use xlink:href="#DejaVuSans-6f" transform="translate(387.048828 0)"/>
     <use xlink:href="#DejaVuSans-72" transform="translate(448.230469 0)"/>
     <use xlink:href="#DejaVuSans-74" transform="translate(489.34375 0)"/>
     <use xlink:href="#DejaVuSans-72" transform="translate(528.552734 0)"/>
     <use xlink:href="#DejaVuSans-61" transform="translate(569.666016 0)"/>
     <use xlink:href="#DejaVuSans-69" transform="translate(630.945312 0)"/>
     <use xlink:href="#DejaVuSans-74" transform="translate(658.728516 0)"/>
     <use xlink:href="#DejaVuSans-20" transform="translate(697.9375 0)"/>
     <use xlink:href="#DejaVuSans-28" transform="translate(729.724609 0)"/>
     <use xlink:href="#DejaVuSans-78" transform="translate(768.738281 0)"/>
     <use xlink:href="#DejaVuSans-30" transform="translate(827.917969 0)"/>
     <use xlink:href="#DejaVuSans-20" transform="translate(891.541016 0)"/>
     <use xlink:href="#DejaVuSans-76" transform="translate(923.328125 0)"/>
     <use xlink:href="#DejaVuSans-73" transform="translate(982.507812 0)"/>
     <use xlink:href="#DejaVuSans-20" transform="translate(1034.607422 0)"/>
     <use xlink:href="#DejaVuSans-78" transform="translate(1066.394531 0)"/>
     <use xlink:href="#DejaVuSans-31" transform="translate(1125.574219 0)"/>
     <use xlink:href="#DejaVuSans-29" transform="translate(1189.197266 0)"/>
    </g>
   </g>
   <g id="line2d_21">
    <path d="M 536.636245 237.442962 
L 537.152425 242.30832 
L 537.551959 247.171593 
L 537.834861 252.030338 
L 538.001263 256.88213 
L 538.051426 261.724568 
L 537.985611 266.555251 
L 537.804115 271.371788 
L 537.507242 276.171782 
L 537.095424 280.952868 
L 536.569205 285.712714 
L 535.929131 290.448991 
L 535.175779 295.159382 
L 534.309737 299.841564 
L 533.331717 304.493261 
L 532.242537 309.112239 
L 531.043015 313.696268 
L 529.734002 318.243133 
L 528.316357 322.750613 
L 526.79106 327.216548 
L 525.159188 331.63883 
L 523.42182 336.015354 
L 521.580066 340.344032 
L 519.63504 344.622773 
L 517.587978 348.849559 
L 515.440199 353.022432 
L 513.193025 357.139434 
L 510.847808 361.198634 
L 508.405904 365.198091 
L 505.86878 369.135954 
L 503.237983 373.010436 
L 500.515057 376.819753 
L 497.701575 380.562148 
L 494.799115 384.235856 
L 491.809359 387.839212 
L 488.734053 391.370622 
L 485.574945 394.828494 
L 479.012417 401.517369 
L 472.136415 407.893802 
L 464.96231 413.946685 
L 457.50576 419.665277 
L 449.783126 425.039869 
L 441.811111 430.061326 
L 433.606819 434.7212 
L 425.187852 439.012064 
L 416.572004 442.926902 
L 407.777514 446.45983 
L 398.822815 449.605573 
L 389.726577 452.359598 
L 380.507708 454.718441 
L 371.185212 456.679069 
L 361.778257 458.239623 
L 352.306062 459.398854 
L 342.787898 460.156278 
L 333.243019 460.512468 
L 323.690671 460.468432 
L 314.149986 460.026332 
L 304.639997 459.18891 
L 295.179613 457.95966 
L 285.787477 456.343069 
L 276.482121 454.344039 
L 267.281694 451.968549 
L 258.204115 449.223107 
L 249.267001 446.114914 
L 240.487478 442.65206 
L 231.882472 438.843005 
L 223.46827 434.697161 
L 215.260824 430.22439 
L 207.275617 425.435158 
L 199.527454 420.340671 
L 192.03085 414.952449 
L 184.799477 409.282787 
L 177.846575 403.344339 
L 171.184783 397.150239 
L 164.825905 390.714184 
L 158.781391 384.050112 
L 153.061682 377.172528 
L 147.676719 370.096184 
L 142.635736 362.836173 
L 137.947031 355.407947 
L 133.618493 347.827118 
L 129.656892 340.109631 
L 126.068461 332.271561 
L 122.858653 324.329165 
L 120.031931 316.298851 
L 117.59232 308.19709 
L 115.542674 300.040448 
L 113.885293 291.845499 
L 112.621675 283.628835 
L 111.752315 275.406982 
L 111.27727 267.196446 
L 111.195426 259.013573 
L 111.505134 250.874613 
L 112.203952 242.79566 
L 113.288482 234.792547 
L 114.754898 226.880992 
L 116.598272 219.076326 
L 118.81318 211.393676 
L 121.393452 203.847857 
L 124.332058 196.453245 
L 127.621572 189.224014 
L 131.253582 182.173744 
L 135.219246 175.315723 
L 139.509062 168.662784 
L 144.112799 162.227171 
L 149.019881 156.020852 
L 154.218914 150.055027 
L 159.698153 144.340533 
L 165.445313 138.887633 
L 171.447539 133.705888 
L 177.691707 128.80452 
L 184.164069 124.191852 
L 190.850628 119.875794 
L 197.736987 115.863596 
L 204.808367 112.161723 
L 212.049798 108.776264 
L 219.445918 105.712323 
L 226.981216 102.974562 
L 234.639951 100.566927 
L 242.406188 98.492548 
L 250.263898 96.754151 
L 258.1969 95.353444 
L 266.188971 94.29169 
L 274.223833 93.569417 
L 282.285209 93.186339 
L 290.356828 93.141768 
L 298.422507 93.434012 
L 306.46613 94.060952 
L 314.471696 95.019752 
L 322.4234 96.306809 
L 330.305534 97.918131 
L 338.102716 99.848794 
L 345.799724 102.093479 
L 353.381624 104.646207 
L 360.833847 107.500313 
L 368.142012 110.648778 
L 375.292277 114.083765 
L 382.271045 117.797094 
L 389.065159 121.780011 
L 395.661976 126.023192 
L 402.049122 130.517009 
L 408.214939 135.251165 
L 414.14809 140.215093 
L 419.837803 145.397762 
L 425.273935 150.78771 
L 430.446686 156.373239 
L 435.347105 162.142159 
L 439.966618 168.08209 
L 444.297315 174.180328 
L 448.331996 180.423886 
L 452.063855 186.79962 
L 455.487026 193.294098 
L 458.596058 199.89378 
L 461.386223 206.584953 
L 463.853552 213.353784 
L 465.994494 220.186368 
L 467.806489 227.068719 
L 469.287399 233.986833 
L 470.435842 240.926692 
L 471.251193 247.874317 
L 471.733259 254.815746 
L 471.882831 261.737143 
L 471.701115 268.624745 
L 471.190058 275.464925 
L 470.352333 282.244249 
L 469.191038 288.949393 
L 467.710194 295.567351 
L 465.91421 302.085267 
L 463.808191 308.490575 
L 461.397899 314.771035 
L 458.689487 320.914601 
L 455.689933 326.909719 
L 452.406559 332.745057 
L 448.847297 338.409702 
L 445.020641 343.893185 
L 440.935424 349.185301 
L 436.601168 354.276484 
L 432.027674 359.157449 
L 427.225246 363.819437 
L 422.204625 368.25422 
L 416.976825 372.453901 
L 411.55338 376.411323 
L 405.94603 380.119656 
L 400.166883 383.572679 
L 394.228347 386.764759 
L 388.143021 389.690637 
L 381.923833 392.345867 
L 375.583838 394.726349 
L 369.136308 396.828648 
L 362.594665 398.649942 
L 355.972433 400.187809 
L 349.283265 401.440667 
L 342.540856 402.407284 
L 335.758956 403.087116 
L 328.951318 403.480223 
L 322.1317 403.587074 
L 315.313789 403.408959 
L 308.511231 402.947509 
L 301.737561 402.205027 
L 295.00618 401.184386 
L 288.330393 399.888852 
L 281.723244 398.322458 
L 275.197661 396.489547 
L 268.766299 394.395091 
L 262.441553 392.044565 
L 256.235631 389.443805 
L 250.160306 386.599324 
L 244.227165 383.517899 
L 238.44738 380.206859 
L 232.831755 376.673953 
L 227.390821 372.927237 
L 222.134528 368.975321 
L 217.072588 364.827028 
L 212.214168 360.491625 
L 207.567986 355.978697 
L 203.142418 351.298072 
L 198.945144 346.459981 
L 194.983564 341.474811 
L 191.264436 336.353261 
L 187.794013 331.10624 
L 184.578151 325.744815 
L 181.621934 320.2803 
L 178.930144 314.724093 
L 176.506848 309.087765 
L 174.355588 303.382977 
L 172.479469 297.621463 
L 170.880792 291.815032 
L 169.561543 285.975512 
L 168.522965 280.114747 
L 167.765776 274.244563 
L 167.290242 268.376763 
L 167.095832 262.523056 
L 167.181708 256.695109 
L 167.546293 250.904448 
L 168.187511 245.162473 
L 169.102845 239.480473 
L 170.289027 233.869485 
L 171.742498 228.340439 
L 173.459009 222.903981 
L 175.433857 217.570538 
L 177.661936 212.350337 
L 180.137462 207.253211 
L 182.854398 202.288837 
L 185.806097 197.466474 
L 188.985523 192.795083 
L 192.385289 188.283349 
L 195.997447 183.939448 
L 199.813837 179.771354 
L 203.825794 175.786513 
L 208.024357 171.992015 
L 212.400276 168.394612 
L 216.943881 165.000456 
L 221.645339 161.815466 
L 226.494451 158.84495 
L 231.480809 156.093825 
L 236.593808 153.566617 
L 241.822569 151.267201 
L 247.156114 149.199198 
L 252.583247 147.365567 
L 258.092664 145.768858 
L 263.672959 144.411203 
L 269.312611 143.294063 
L 275.000062 142.418636 
L 280.723699 141.785442 
L 286.4719 141.394593 
L 292.233037 141.24578 
L 297.995532 141.338046 
L 303.747839 141.670125 
L 306.616589 141.925531 
L 306.616589 141.925531 
" clip-path="url(#pfb1cb136d8)" style="fill: none; stroke-dasharray: 12.95,5.6; stroke-dashoffset: 0; stroke: #ff0000; stroke-opacity: 0.8; stroke-width: 3.5"/>
   </g>
   <g id="legend_1">
    <g id="patch_7">
     <path d="M 59.160938 525.438125 
L 204.510938 525.438125 
Q 206.510938 525.438125 206.510938 523.438125 
L 206.510938 465.725625 
Q 206.510938 463.725625 204.510938 463.725625 
L 59.160938 463.725625 
Q 57.160938 463.725625 57.160938 465.725625 
L 57.160938 523.438125 
Q 57.160938 525.438125 59.160938 525.438125 
z
" style="fill: #ffffff; opacity: 0.8; stroke: #cccccc; stroke-linejoin: miter"/>
    </g>
    <g id="line2d_22">
     <path d="M 61.160938 471.824062 
L 71.160938 471.824062 
L 81.160938 471.824062 
" style="fill: none; stroke: #000000; stroke-opacity: 0.3; stroke-width: 7; stroke-linecap: square"/>
    </g>
    <g id="text_21">
     <!-- True/Underlying model -->
     <g transform="translate(89.160938 475.324062) scale(0.1 -0.1)">
      <defs>
       <path id="DejaVuSans-54" d="M -19 4666 
L 3928 4666 
L 3928 4134 
L 2272 4134 
L 2272 0 
L 1638 0 
L 1638 4134 
L -19 4134 
L -19 4666 
z
" transform="scale(0.015625)"/>
       <path id="DejaVuSans-75" d="M 544 1381 
L 544 3500 
L 1119 3500 
L 1119 1403 
Q 1119 906 1312 657 
Q 1506 409 1894 409 
Q 2359 409 2629 706 
Q 2900 1003 2900 1516 
L 2900 3500 
L 3475 3500 
L 3475 0 
L 2900 0 
L 2900 538 
Q 2691 219 2414 64 
Q 2138 -91 1772 -91 
Q 1169 -91 856 284 
Q 544 659 544 1381 
z
M 1991 3584 
L 1991 3584 
z
" transform="scale(0.015625)"/>
       <path id="DejaVuSans-2f" d="M 1625 4666 
L 2156 4666 
L 531 -594 
L 0 -594 
L 1625 4666 
z
" transform="scale(0.015625)"/>
       <path id="DejaVuSans-55" d="M 556 4666 
L 1191 4666 
L 1191 1831 
Q 1191 1081 1462 751 
Q 1734 422 2344 422 
Q 2950 422 3222 751 
Q 3494 1081 3494 1831 
L 3494 4666 
L 4128 4666 
L 4128 1753 
Q 4128 841 3676 375 
Q 3225 -91 2344 -91 
Q 1459 -91 1007 375 
Q 556 841 556 1753 
L 556 4666 
z
" transform="scale(0.015625)"/>
       <path id="DejaVuSans-6e" d="M 3513 2113 
L 3513 0 
L 2938 0 
L 2938 2094 
Q 2938 2591 2744 2837 
Q 2550 3084 2163 3084 
Q 1697 3084 1428 2787 
Q 1159 2491 1159 1978 
L 1159 0 
L 581 0 
L 581 3500 
L 1159 3500 
L 1159 2956 
Q 1366 3272 1645 3428 
Q 1925 3584 2291 3584 
Q 2894 3584 3203 3211 
Q 3513 2838 3513 2113 
z
" transform="scale(0.015625)"/>
       <path id="DejaVuSans-64" d="M 2906 2969 
L 2906 4863 
L 3481 4863 
L 3481 0 
L 2906 0 
L 2906 525 
Q 2725 213 2448 61 
Q 2172 -91 1784 -91 
Q 1150 -91 751 415 
Q 353 922 353 1747 
Q 353 2572 751 3078 
Q 1150 3584 1784 3584 
Q 2172 3584 2448 3432 
Q 2725 3281 2906 2969 
z
M 947 1747 
Q 947 1113 1208 752 
Q 1469 391 1925 391 
Q 2381 391 2643 752 
Q 2906 1113 2906 1747 
Q 2906 2381 2643 2742 
Q 2381 3103 1925 3103 
Q 1469 3103 1208 2742 
Q 947 2381 947 1747 
z
" transform="scale(0.015625)"/>
       <path id="DejaVuSans-6c" d="M 603 4863 
L 1178 4863 
L 1178 0 
L 603 0 
L 603 4863 
z
" transform="scale(0.015625)"/>
       <path id="DejaVuSans-79" d="M 2059 -325 
Q 1816 -950 1584 -1140 
Q 1353 -1331 966 -1331 
L 506 -1331 
L 506 -850 
L 844 -850 
Q 1081 -850 1212 -737 
Q 1344 -625 1503 -206 
L 1606 56 
L 191 3500 
L 800 3500 
L 1894 763 
L 2988 3500 
L 3597 3500 
L 2059 -325 
z
" transform="scale(0.015625)"/>
       <path id="DejaVuSans-67" d="M 2906 1791 
Q 2906 2416 2648 2759 
Q 2391 3103 1925 3103 
Q 1463 3103 1205 2759 
Q 947 2416 947 1791 
Q 947 1169 1205 825 
Q 1463 481 1925 481 
Q 2391 481 2648 825 
Q 2906 1169 2906 1791 
z
M 3481 434 
Q 3481 -459 3084 -895 
Q 2688 -1331 1869 -1331 
Q 1566 -1331 1297 -1286 
Q 1028 -1241 775 -1147 
L 775 -588 
Q 1028 -725 1275 -790 
Q 1522 -856 1778 -856 
Q 2344 -856 2625 -561 
Q 2906 -266 2906 331 
L 2906 616 
Q 2728 306 2450 153 
Q 2172 0 1784 0 
Q 1141 0 747 490 
Q 353 981 353 1791 
Q 353 2603 747 3093 
Q 1141 3584 1784 3584 
Q 2172 3584 2450 3431 
Q 2728 3278 2906 2969 
L 2906 3500 
L 3481 3500 
L 3481 434 
z
" transform="scale(0.015625)"/>
       <path id="DejaVuSans-6d" d="M 3328 2828 
Q 3544 3216 3844 3400 
Q 4144 3584 4550 3584 
Q 5097 3584 5394 3201 
Q 5691 2819 5691 2113 
L 5691 0 
L 5113 0 
L 5113 2094 
Q 5113 2597 4934 2840 
Q 4756 3084 4391 3084 
Q 3944 3084 3684 2787 
Q 3425 2491 3425 1978 
L 3425 0 
L 2847 0 
L 2847 2094 
Q 2847 2600 2669 2842 
Q 2491 3084 2119 3084 
Q 1678 3084 1418 2786 
Q 1159 2488 1159 1978 
L 1159 0 
L 581 0 
L 581 3500 
L 1159 3500 
L 1159 2956 
Q 1356 3278 1631 3431 
Q 1906 3584 2284 3584 
Q 2666 3584 2933 3390 
Q 3200 3197 3328 2828 
z
" transform="scale(0.015625)"/>
      </defs>
      <use xlink:href="#DejaVuSans-54"/>
      <use xlink:href="#DejaVuSans-72" transform="translate(46.333984 0)"/>
      <use xlink:href="#DejaVuSans-75" transform="translate(87.447266 0)"/>
      <use xlink:href="#DejaVuSans-65" transform="translate(150.826172 0)"/>
      <use xlink:href="#DejaVuSans-2f" transform="translate(212.349609 0)"/>
      <use xlink:href="#DejaVuSans-55" transform="translate(246.041016 0)"/>
      <use xlink:href="#DejaVuSans-6e" transform="translate(319.234375 0)"/>
      <use xlink:href="#DejaVuSans-64" transform="translate(382.613281 0)"/>
      <use xlink:href="#DejaVuSans-65" transform="translate(446.089844 0)"/>
      <use xlink:href="#DejaVuSans-72" transform="translate(507.613281 0)"/>
      <use xlink:href="#DejaVuSans-6c" transform="translate(548.726562 0)"/>
      <use xlink:href="#DejaVuSans-79" transform="translate(576.509766 0)"/>
      <use xlink:href="#DejaVuSans-69" transform="translate(635.689453 0)"/>
      <use xlink:href="#DejaVuSans-6e" transform="translate(663.472656 0)"/>
      <use xlink:href="#DejaVuSans-67" transform="translate(726.851562 0)"/>
      <use xlink:href="#DejaVuSans-20" transform="translate(790.328125 0)"/>
      <use xlink:href="#DejaVuSans-6d" transform="translate(822.115234 0)"/>
      <use xlink:href="#DejaVuSans-6f" transform="translate(919.527344 0)"/>
      <use xlink:href="#DejaVuSans-64" transform="translate(980.708984 0)"/>
      <use xlink:href="#DejaVuSans-65" transform="translate(1044.185547 0)"/>
      <use xlink:href="#DejaVuSans-6c" transform="translate(1105.708984 0)"/>
     </g>
    </g>
    <g id="line2d_23">
     <path d="M 61.160938 486.502187 
L 71.160938 486.502187 
L 81.160938 486.502187 
" style="fill: none; stroke-dasharray: 12.95,5.6; stroke-dashoffset: 0; stroke: #ff0000; stroke-opacity: 0.8; stroke-width: 3.5"/>
    </g>
    <g id="text_22">
     <!-- AutoSINDy -->
     <g transform="translate(89.160938 490.002187) scale(0.1 -0.1)">
      <defs>
       <path id="DejaVuSans-41" d="M 2188 4044 
L 1331 1722 
L 3047 1722 
L 2188 4044 
z
M 1831 4666 
L 2547 4666 
L 4325 0 
L 3669 0 
L 3244 1197 
L 1141 1197 
L 716 0 
L 50 0 
L 1831 4666 
z
" transform="scale(0.015625)"/>
       <path id="DejaVuSans-53" d="M 3425 4513 
L 3425 3897 
Q 3066 4069 2747 4153 
Q 2428 4238 2131 4238 
Q 1616 4238 1336 4038 
Q 1056 3838 1056 3469 
Q 1056 3159 1242 3001 
Q 1428 2844 1947 2747 
L 2328 2669 
Q 3034 2534 3370 2195 
Q 3706 1856 3706 1288 
Q 3706 609 3251 259 
Q 2797 -91 1919 -91 
Q 1588 -91 1214 -16 
Q 841 59 441 206 
L 441 856 
Q 825 641 1194 531 
Q 1563 422 1919 422 
Q 2459 422 2753 634 
Q 3047 847 3047 1241 
Q 3047 1584 2836 1778 
Q 2625 1972 2144 2069 
L 1759 2144 
Q 1053 2284 737 2584 
Q 422 2884 422 3419 
Q 422 4038 858 4394 
Q 1294 4750 2059 4750 
Q 2388 4750 2728 4690 
Q 3069 4631 3425 4513 
z
" transform="scale(0.015625)"/>
       <path id="DejaVuSans-49" d="M 628 4666 
L 1259 4666 
L 1259 0 
L 628 0 
L 628 4666 
z
" transform="scale(0.015625)"/>
       <path id="DejaVuSans-4e" d="M 628 4666 
L 1478 4666 
L 3547 763 
L 3547 4666 
L 4159 4666 
L 4159 0 
L 3309 0 
L 1241 3903 
L 1241 0 
L 628 0 
L 628 4666 
z
" transform="scale(0.015625)"/>
       <path id="DejaVuSans-44" d="M 1259 4147 
L 1259 519 
L 2022 519 
Q 2988 519 3436 956 
Q 3884 1394 3884 2338 
Q 3884 3275 3436 3711 
Q 2988 4147 2022 4147 
L 1259 4147 
z
M 628 4666 
L 1925 4666 
Q 3281 4666 3915 4102 
Q 4550 3538 4550 2338 
Q 4550 1131 3912 565 
Q 3275 0 1925 0 
L 628 0 
L 628 4666 
z
" transform="scale(0.015625)"/>
      </defs>
      <use xlink:href="#DejaVuSans-41"/>
      <use xlink:href="#DejaVuSans-75" transform="translate(68.408203 0)"/>
      <use xlink:href="#DejaVuSans-74" transform="translate(131.787109 0)"/>
      <use xlink:href="#DejaVuSans-6f" transform="translate(170.996094 0)"/>
      <use xlink:href="#DejaVuSans-53" transform="translate(232.177734 0)"/>
      <use xlink:href="#DejaVuSans-49" transform="translate(295.654297 0)"/>
      <use xlink:href="#DejaVuSans-4e" transform="translate(325.146484 0)"/>
      <use xlink:href="#DejaVuSans-44" transform="translate(399.951172 0)"/>
      <use xlink:href="#DejaVuSans-79" transform="translate(476.953125 0)"/>
     </g>
    </g>
    <g id="line2d_24">
     <path d="M 61.160938 501.180312 
L 71.160938 501.180312 
L 81.160938 501.180312 
" style="fill: none; stroke-dasharray: 3.5,5.775; stroke-dashoffset: 0; stroke: #008000; stroke-opacity: 0.8; stroke-width: 3.5"/>
    </g>
    <g id="text_23">
     <!-- Standard SINDy -->
     <g transform="translate(89.160938 504.680312) scale(0.1 -0.1)">
      <use xlink:href="#DejaVuSans-53"/>
      <use xlink:href="#DejaVuSans-74" transform="translate(63.476562 0)"/>
      <use xlink:href="#DejaVuSans-61" transform="translate(102.685547 0)"/>
      <use xlink:href="#DejaVuSans-6e" transform="translate(163.964844 0)"/>
      <use xlink:href="#DejaVuSans-64" transform="translate(227.34375 0)"/>
      <use xlink:href="#DejaVuSans-61" transform="translate(290.820312 0)"/>
      <use xlink:href="#DejaVuSans-72" transform="translate(352.099609 0)"/>
      <use xlink:href="#DejaVuSans-64" transform="translate(391.462891 0)"/>
      <use xlink:href="#DejaVuSans-20" transform="translate(454.939453 0)"/>
      <use xlink:href="#DejaVuSans-53" transform="translate(486.726562 0)"/>
      <use xlink:href="#DejaVuSans-49" transform="translate(550.203125 0)"/>
      <use xlink:href="#DejaVuSans-4e" transform="translate(579.695312 0)"/>
      <use xlink:href="#DejaVuSans-44" transform="translate(654.5 0)"/>
      <use xlink:href="#DejaVuSans-79" transform="translate(731.501953 0)"/>
     </g>
    </g>
    <g id="line2d_25">
     <path d="M 61.160938 515.858437 
L 71.160938 515.858437 
L 81.160938 515.858437 
" style="fill: none; stroke-dasharray: 22.4,5.6,3.5,5.6; stroke-dashoffset: 0; stroke: #0000ff; stroke-opacity: 0.8; stroke-width: 3.5"/>
    </g>
    <g id="text_24">
     <!-- Standard PySR -->
     <g transform="translate(89.160938 519.358437) scale(0.1 -0.1)">
      <defs>
       <path id="DejaVuSans-52" d="M 2841 2188 
Q 3044 2119 3236 1894 
Q 3428 1669 3622 1275 
L 4263 0 
L 3584 0 
L 2988 1197 
Q 2756 1666 2539 1819 
Q 2322 1972 1947 1972 
L 1259 1972 
L 1259 0 
L 628 0 
L 628 4666 
L 2053 4666 
Q 2853 4666 3247 4331 
Q 3641 3997 3641 3322 
Q 3641 2881 3436 2590 
Q 3231 2300 2841 2188 
z
M 1259 4147 
L 1259 2491 
L 2053 2491 
Q 2509 2491 2742 2702 
Q 2975 2913 2975 3322 
Q 2975 3731 2742 3939 
Q 2509 4147 2053 4147 
L 1259 4147 
z
" transform="scale(0.015625)"/>
      </defs>
      <use xlink:href="#DejaVuSans-53"/>
      <use xlink:href="#DejaVuSans-74" transform="translate(63.476562 0)"/>
      <use xlink:href="#DejaVuSans-61" transform="translate(102.685547 0)"/>
      <use xlink:href="#DejaVuSans-6e" transform="translate(163.964844 0)"/>
      <use xlink:href="#DejaVuSans-64" transform="translate(227.34375 0)"/>
      <use xlink:href="#DejaVuSans-61" transform="translate(290.820312 0)"/>
      <use xlink:href="#DejaVuSans-72" transform="translate(352.099609 0)"/>
      <use xlink:href="#DejaVuSans-64" transform="translate(391.462891 0)"/>
      <use xlink:href="#DejaVuSans-20" transform="translate(454.939453 0)"/>
      <use xlink:href="#DejaVuSans-50" transform="translate(486.726562 0)"/>
      <use xlink:href="#DejaVuSans-79" transform="translate(547.029297 0)"/>
      <use xlink:href="#DejaVuSans-53" transform="translate(606.208984 0)"/>
      <use xlink:href="#DejaVuSans-52" transform="translate(669.685547 0)"/>
     </g>
    </g>
   </g>
  </g>
 </g>
 <defs>
  <clipPath id="pfb1cb136d8">
   <rect x="52.160938" y="22.318125" width="509.05" height="508.12"/>
  </clipPath>
 </defs>
</svg>
