<?xml version="1.0" encoding="utf-8" standalone="no"?>
<!DOCTYPE svg PUBLIC "-//W3C//DTD SVG 1.1//EN"
  "http://www.w3.org/Graphics/SVG/1.1/DTD/svg11.dtd">
<svg xmlns:xlink="http://www.w3.org/1999/xlink" width="568.380312pt" height="567.994375pt" viewBox="0 0 568.380312 567.994375" xmlns="http://www.w3.org/2000/svg" version="1.1">
 <metadata>
  <rdf:RDF xmlns:dc="http://purl.org/dc/elements/1.1/" xmlns:cc="http://creativecommons.org/ns#" xmlns:rdf="http://www.w3.org/1999/02/22-rdf-syntax-ns#">
   <cc:Work>
    <dc:type rdf:resource="http://purl.org/dc/dcmitype/StillImage"/>
    <dc:date>2026-04-05T22:14:15.252615</dc:date>
    <dc:format>image/svg+xml</dc:format>
    <dc:creator>
     <cc:Agent>
      <dc:title>Matplotlib v3.10.7, https://matplotlib.org/</dc:title>
     </cc:Agent>
    </dc:creator>
   </cc:Work>
  </rdf:RDF>
 </metadata>
 <defs>
  <style type="text/css">*{stroke-linejoin: round; stroke-linecap: butt}</style>
 </defs>
 <g id="figure_1">
  <g id="patch_1">
   <path d="M 0 567.994375 
L 568.380312 567.994375 
L 568.380312 0 
L 0 0 
z
" style="fill: #ffffff"/>
  </g>
  <g id="axes_1">
   <g id="patch_2">
    <path d="M 42.620313 530.438125 
L 561.180312 530.438125 
L 561.180312 22.318125 
L 42.620313 22.318125 
z
" style="fill: #ffffff"/>
   </g>
   <g id="matplotlib.axis_1">
    <g id="xtick_1">
     <g id="line2d_1">
      <defs>
       <path id="m080d5a2200" d="M 0 0 
L 0 3.5 
" style="stroke: #000000; stroke-width: 0.8"/>
      </defs>
      <g>
       <use xlink:href="#m080d5a2200" x="68.988691" y="530.438125" style="stroke: #000000; stroke-width: 0.8"/>
      </g>
     </g>
     <g id="text_1">
      <!-- −2.0 -->
      <g transform="translate(56.847285 545.036562) scale(0.1 -0.1)">
       <defs>
        <path id="DejaVuSans-2212" d="M 678 2272 
L 4684 2272 
L 4684 1741 
L 678 1741 
L 678 2272 
z
" transform="scale(0.015625)"/>
        <path id="DejaVuSans-32" d="M 1228 531 
L 3431 531 
L 3431 0 
L 469 0 
L 469 531 
Q 828 903 1448 1529 
Q 2069 2156 2228 2338 
Q 2531 2678 2651 2914 
Q 2772 3150 2772 3378 
Q 2772 3750 2511 3984 
Q 2250 4219 1831 4219 
Q 1534 4219 1204 4116 
Q 875 4013 500 3803 
L 500 4441 
Q 881 4594 1212 4672 
Q 1544 4750 1819 4750 
Q 2544 4750 2975 4387 
Q 3406 4025 3406 3419 
Q 3406 3131 3298 2873 
Q 3191 2616 2906 2266 
Q 2828 2175 2409 1742 
Q 1991 1309 1228 531 
z
" transform="scale(0.015625)"/>
        <path id="DejaVuSans-2e" d="M 684 794 
L 1344 794 
L 1344 0 
L 684 0 
L 684 794 
z
" transform="scale(0.015625)"/>
        <path id="DejaVuSans-30" d="M 2034 4250 
Q 1547 4250 1301 3770 
Q 1056 3291 1056 2328 
Q 1056 1369 1301 889 
Q 1547 409 2034 409 
Q 2525 409 2770 889 
Q 3016 1369 3016 2328 
Q 3016 3291 2770 3770 
Q 2525 4250 2034 4250 
z
M 2034 4750 
Q 2819 4750 3233 4129 
Q 3647 3509 3647 2328 
Q 3647 1150 3233 529 
Q 2819 -91 2034 -91 
Q 1250 -91 836 529 
Q 422 1150 422 2328 
Q 422 3509 836 4129 
Q 1250 4750 2034 4750 
z
" transform="scale(0.015625)"/>
       </defs>
       <use xlink:href="#DejaVuSans-2212"/>
       <use xlink:href="#DejaVuSans-32" transform="translate(83.789062 0)"/>
       <use xlink:href="#DejaVuSans-2e" transform="translate(147.412109 0)"/>
       <use xlink:href="#DejaVuSans-30" transform="translate(179.199219 0)"/>
      </g>
     </g>
    </g>
    <g id="xtick_2">
     <g id="line2d_2">
      <g>
       <use xlink:href="#m080d5a2200" x="127.188993" y="530.438125" style="stroke: #000000; stroke-width: 0.8"/>
      </g>
     </g>
     <g id="text_2">
      <!-- −1.5 -->
      <g transform="translate(115.047587 545.036562) scale(0.1 -0.1)">
       <defs>
        <path id="DejaVuSans-31" d="M 794 531 
L 1825 531 
L 1825 4091 
L 703 3866 
L 703 4441 
L 1819 4666 
L 2450 4666 
L 2450 531 
L 3481 531 
L 3481 0 
L 794 0 
L 794 531 
z
" transform="scale(0.015625)"/>
        <path id="DejaVuSans-35" d="M 691 4666 
L 3169 4666 
L 3169 4134 
L 1269 4134 
L 1269 2991 
Q 1406 3038 1543 3061 
Q 1681 3084 1819 3084 
Q 2600 3084 3056 2656 
Q 3513 2228 3513 1497 
Q 3513 744 3044 326 
Q 2575 -91 1722 -91 
Q 1428 -91 1123 -41 
Q 819 9 494 109 
L 494 744 
Q 775 591 1075 516 
Q 1375 441 1709 441 
Q 2250 441 2565 725 
Q 2881 1009 2881 1497 
Q 2881 1984 2565 2268 
Q 2250 2553 1709 2553 
Q 1456 2553 1204 2497 
Q 953 2441 691 2322 
L 691 4666 
z
" transform="scale(0.015625)"/>
       </defs>
       <use xlink:href="#DejaVuSans-2212"/>
       <use xlink:href="#DejaVuSans-31" transform="translate(83.789062 0)"/>
       <use xlink:href="#DejaVuSans-2e" transform="translate(147.412109 0)"/>
       <use xlink:href="#DejaVuSans-35" transform="translate(179.199219 0)"/>
      </g>
     </g>
    </g>
    <g id="xtick_3">
     <g id="line2d_3">
      <g>
       <use xlink:href="#m080d5a2200" x="185.389295" y="530.438125" style="stroke: #000000; stroke-width: 0.8"/>
      </g>
     </g>
     <g id="text_3">
      <!-- −1.0 -->
      <g transform="translate(173.247889 545.036562) scale(0.1 -0.1)">
       <use xlink:href="#DejaVuSans-2212"/>
       <use xlink:href="#DejaVuSans-31" transform="translate(83.789062 0)"/>
       <use xlink:href="#DejaVuSans-2e" transform="translate(147.412109 0)"/>
       <use xlink:href="#DejaVuSans-30" transform="translate(179.199219 0)"/>
      </g>
     </g>
    </g>
    <g id="xtick_4">
     <g id="line2d_4">
      <g>
       <use xlink:href="#m080d5a2200" x="243.589597" y="530.438125" style="stroke: #000000; stroke-width: 0.8"/>
      </g>
     </g>
     <g id="text_4">
      <!-- −0.5 -->
      <g transform="translate(231.448191 545.036562) scale(0.1 -0.1)">
       <use xlink:href="#DejaVuSans-2212"/>
       <use xlink:href="#DejaVuSans-30" transform="translate(83.789062 0)"/>
       <use xlink:href="#DejaVuSans-2e" transform="translate(147.412109 0)"/>
       <use xlink:href="#DejaVuSans-35" transform="translate(179.199219 0)"/>
      </g>
     </g>
    </g>
    <g id="xtick_5">
     <g id="line2d_5">
      <g>
       <use xlink:href="#m080d5a2200" x="301.7899" y="530.438125" style="stroke: #000000; stroke-width: 0.8"/>
      </g>
     </g>
     <g id="text_5">
      <!-- 0.0 -->
      <g transform="translate(293.838337 545.036562) scale(0.1 -0.1)">
       <use xlink:href="#DejaVuSans-30"/>
       <use xlink:href="#DejaVuSans-2e" transform="translate(63.623047 0)"/>
       <use xlink:href="#DejaVuSans-30" transform="translate(95.410156 0)"/>
      </g>
     </g>
    </g>
    <g id="xtick_6">
     <g id="line2d_6">
      <g>
       <use xlink:href="#m080d5a2200" x="359.990202" y="530.438125" style="stroke: #000000; stroke-width: 0.8"/>
      </g>
     </g>
     <g id="text_6">
      <!-- 0.5 -->
      <g transform="translate(352.038639 545.036562) scale(0.1 -0.1)">
       <use xlink:href="#DejaVuSans-30"/>
       <use xlink:href="#DejaVuSans-2e" transform="translate(63.623047 0)"/>
       <use xlink:href="#DejaVuSans-35" transform="translate(95.410156 0)"/>
      </g>
     </g>
    </g>
    <g id="xtick_7">
     <g id="line2d_7">
      <g>
       <use xlink:href="#m080d5a2200" x="418.190504" y="530.438125" style="stroke: #000000; stroke-width: 0.8"/>
      </g>
     </g>
     <g id="text_7">
      <!-- 1.0 -->
      <g transform="translate(410.238941 545.036562) scale(0.1 -0.1)">
       <use xlink:href="#DejaVuSans-31"/>
       <use xlink:href="#DejaVuSans-2e" transform="translate(63.623047 0)"/>
       <use xlink:href="#DejaVuSans-30" transform="translate(95.410156 0)"/>
      </g>
     </g>
    </g>
    <g id="xtick_8">
     <g id="line2d_8">
      <g>
       <use xlink:href="#m080d5a2200" x="476.390806" y="530.438125" style="stroke: #000000; stroke-width: 0.8"/>
      </g>
     </g>
     <g id="text_8">
      <!-- 1.5 -->
      <g transform="translate(468.439244 545.036562) scale(0.1 -0.1)">
       <use xlink:href="#DejaVuSans-31"/>
       <use xlink:href="#DejaVuSans-2e" transform="translate(63.623047 0)"/>
       <use xlink:href="#DejaVuSans-35" transform="translate(95.410156 0)"/>
      </g>
     </g>
    </g>
    <g id="xtick_9">
     <g id="line2d_9">
      <g>
       <use xlink:href="#m080d5a2200" x="534.591108" y="530.438125" style="stroke: #000000; stroke-width: 0.8"/>
      </g>
     </g>
     <g id="text_9">
      <!-- 2.0 -->
      <g transform="translate(526.639546 545.036562) scale(0.1 -0.1)">
       <use xlink:href="#DejaVuSans-32"/>
       <use xlink:href="#DejaVuSans-2e" transform="translate(63.623047 0)"/>
       <use xlink:href="#DejaVuSans-30" transform="translate(95.410156 0)"/>
      </g>
     </g>
    </g>
    <g id="text_10">
     <!-- x0 -->
     <g transform="translate(295.759687 558.714687) scale(0.1 -0.1)">
      <defs>
       <path id="DejaVuSans-78" d="M 3513 3500 
L 2247 1797 
L 3578 0 
L 2900 0 
L 1881 1375 
L 863 0 
L 184 0 
L 1544 1831 
L 300 3500 
L 978 3500 
L 1906 2253 
L 2834 3500 
L 3513 3500 
z
" transform="scale(0.015625)"/>
      </defs>
      <use xlink:href="#DejaVuSans-78"/>
      <use xlink:href="#DejaVuSans-30" transform="translate(59.179688 0)"/>
     </g>
    </g>
   </g>
   <g id="matplotlib.axis_2">
    <g id="ytick_1">
     <g id="line2d_10">
      <defs>
       <path id="mb5997ef9d1" d="M 0 0 
L -3.5 0 
" style="stroke: #000000; stroke-width: 0.8"/>
      </defs>
      <g>
       <use xlink:href="#mb5997ef9d1" x="42.620313" y="517.684106" style="stroke: #000000; stroke-width: 0.8"/>
      </g>
     </g>
     <g id="text_11">
      <!-- −4 -->
      <g transform="translate(20.878125 521.483325) scale(0.1 -0.1)">
       <defs>
        <path id="DejaVuSans-34" d="M 2419 4116 
L 825 1625 
L 2419 1625 
L 2419 4116 
z
M 2253 4666 
L 3047 4666 
L 3047 1625 
L 3713 1625 
L 3713 1100 
L 3047 1100 
L 3047 0 
L 2419 0 
L 2419 1100 
L 313 1100 
L 313 1709 
L 2253 4666 
z
" transform="scale(0.015625)"/>
       </defs>
       <use xlink:href="#DejaVuSans-2212"/>
       <use xlink:href="#DejaVuSans-34" transform="translate(83.789062 0)"/>
      </g>
     </g>
    </g>
    <g id="ytick_2">
     <g id="line2d_11">
      <g>
       <use xlink:href="#mb5997ef9d1" x="42.620313" y="457.309273" style="stroke: #000000; stroke-width: 0.8"/>
      </g>
     </g>
     <g id="text_12">
      <!-- −3 -->
      <g transform="translate(20.878125 461.108491) scale(0.1 -0.1)">
       <defs>
        <path id="DejaVuSans-33" d="M 2597 2516 
Q 3050 2419 3304 2112 
Q 3559 1806 3559 1356 
Q 3559 666 3084 287 
Q 2609 -91 1734 -91 
Q 1441 -91 1130 -33 
Q 819 25 488 141 
L 488 750 
Q 750 597 1062 519 
Q 1375 441 1716 441 
Q 2309 441 2620 675 
Q 2931 909 2931 1356 
Q 2931 1769 2642 2001 
Q 2353 2234 1838 2234 
L 1294 2234 
L 1294 2753 
L 1863 2753 
Q 2328 2753 2575 2939 
Q 2822 3125 2822 3475 
Q 2822 3834 2567 4026 
Q 2313 4219 1838 4219 
Q 1578 4219 1281 4162 
Q 984 4106 628 3988 
L 628 4550 
Q 988 4650 1302 4700 
Q 1616 4750 1894 4750 
Q 2613 4750 3031 4423 
Q 3450 4097 3450 3541 
Q 3450 3153 3228 2886 
Q 3006 2619 2597 2516 
z
" transform="scale(0.015625)"/>
       </defs>
       <use xlink:href="#DejaVuSans-2212"/>
       <use xlink:href="#DejaVuSans-33" transform="translate(83.789062 0)"/>
      </g>
     </g>
    </g>
    <g id="ytick_3">
     <g id="line2d_12">
      <g>
       <use xlink:href="#mb5997ef9d1" x="42.620313" y="396.934439" style="stroke: #000000; stroke-width: 0.8"/>
      </g>
     </g>
     <g id="text_13">
      <!-- −2 -->
      <g transform="translate(20.878125 400.733658) scale(0.1 -0.1)">
       <use xlink:href="#DejaVuSans-2212"/>
       <use xlink:href="#DejaVuSans-32" transform="translate(83.789062 0)"/>
      </g>
     </g>
    </g>
    <g id="ytick_4">
     <g id="line2d_13">
      <g>
       <use xlink:href="#mb5997ef9d1" x="42.620313" y="336.559606" style="stroke: #000000; stroke-width: 0.8"/>
      </g>
     </g>
     <g id="text_14">
      <!-- −1 -->
      <g transform="translate(20.878125 340.358825) scale(0.1 -0.1)">
       <use xlink:href="#DejaVuSans-2212"/>
       <use xlink:href="#DejaVuSans-31" transform="translate(83.789062 0)"/>
      </g>
     </g>
    </g>
    <g id="ytick_5">
     <g id="line2d_14">
      <g>
       <use xlink:href="#mb5997ef9d1" x="42.620313" y="276.184773" style="stroke: #000000; stroke-width: 0.8"/>
      </g>
     </g>
     <g id="text_15">
      <!-- 0 -->
      <g transform="translate(29.257813 279.983991) scale(0.1 -0.1)">
       <use xlink:href="#DejaVuSans-30"/>
      </g>
     </g>
    </g>
    <g id="ytick_6">
     <g id="line2d_15">
      <g>
       <use xlink:href="#mb5997ef9d1" x="42.620313" y="215.809939" style="stroke: #000000; stroke-width: 0.8"/>
      </g>
     </g>
     <g id="text_16">
      <!-- 1 -->
      <g transform="translate(29.257813 219.609158) scale(0.1 -0.1)">
       <use xlink:href="#DejaVuSans-31"/>
      </g>
     </g>
    </g>
    <g id="ytick_7">
     <g id="line2d_16">
      <g>
       <use xlink:href="#mb5997ef9d1" x="42.620313" y="155.435106" style="stroke: #000000; stroke-width: 0.8"/>
      </g>
     </g>
     <g id="text_17">
      <!-- 2 -->
      <g transform="translate(29.257813 159.234325) scale(0.1 -0.1)">
       <use xlink:href="#DejaVuSans-32"/>
      </g>
     </g>
    </g>
    <g id="ytick_8">
     <g id="line2d_17">
      <g>
       <use xlink:href="#mb5997ef9d1" x="42.620313" y="95.060273" style="stroke: #000000; stroke-width: 0.8"/>
      </g>
     </g>
     <g id="text_18">
      <!-- 3 -->
      <g transform="translate(29.257813 98.859491) scale(0.1 -0.1)">
       <use xlink:href="#DejaVuSans-33"/>
      </g>
     </g>
    </g>
    <g id="ytick_9">
     <g id="line2d_18">
      <g>
       <use xlink:href="#mb5997ef9d1" x="42.620313" y="34.685439" style="stroke: #000000; stroke-width: 0.8"/>
      </g>
     </g>
     <g id="text_19">
      <!-- 4 -->
      <g transform="translate(29.257813 38.484658) scale(0.1 -0.1)">
       <use xlink:href="#DejaVuSans-34"/>
      </g>
     </g>
    </g>
    <g id="text_20">
     <!-- x1 -->
     <g transform="translate(14.798438 282.51875) rotate(-90) scale(0.1 -0.1)">
      <use xlink:href="#DejaVuSans-78"/>
      <use xlink:href="#DejaVuSans-31" transform="translate(59.179688 0)"/>
     </g>
    </g>
   </g>
   <g id="line2d_19">
    <path d="M 534.591108 336.559606 
L 532.347265 332.073986 
L 530.264247 328.219266 
L 528.319439 324.894233 
L 526.492415 322.009557 
L 524.768733 319.507838 
L 523.136063 317.341617 
L 520.099027 313.842382 
L 517.301003 311.198383 
L 514.67791 309.16093 
L 512.190792 307.609854 
L 509.809384 306.450654 
L 507.506857 305.598953 
L 505.260241 304.984754 
L 503.051584 304.557268 
L 499.784958 304.203524 
L 496.544977 304.123544 
L 493.302687 304.251724 
L 488.935429 304.667979 
L 484.484692 305.320859 
L 478.755509 306.426086 
L 472.78389 307.824689 
L 466.510183 309.524386 
L 459.878202 311.563528 
L 452.816737 314.006077 
L 446.799002 316.311543 
L 440.395567 318.994176 
L 435.295726 321.322284 
L 429.912001 323.964177 
L 424.214987 326.954573 
L 418.160885 330.353179 
L 411.691497 334.244691 
L 404.73423 338.738795 
L 397.202096 343.970161 
L 391.811827 347.945146 
L 386.087703 352.371726 
L 379.993283 357.308315 
L 373.489288 362.818261 
L 366.533589 368.969848 
L 359.081217 375.836298 
L 351.0838 383.494817 
L 342.469985 392.017766 
L 333.158449 401.498882 
L 317.717941 417.596099 
L 300.292395 435.797175 
L 287.460454 448.8728 
L 280.663112 455.586895 
L 273.604074 462.331698 
L 266.282266 469.024786 
L 258.701584 475.570437 
L 250.870891 481.859629 
L 242.804019 487.77004 
L 234.519768 493.16605 
L 226.041908 497.898737 
L 217.399176 501.805881 
L 208.625279 504.711962 
L 199.757874 506.429055 
L 190.837645 506.794839 
L 181.928968 505.71063 
L 173.097192 503.117411 
L 164.403961 498.993682 
L 155.907219 493.355455 
L 147.661206 486.25626 
L 139.71646 477.787139 
L 132.119817 468.076653 
L 124.91441 457.290873 
L 118.13967 445.633388 
L 111.83577 433.396882 
L 106.021141 420.886856 
L 100.691699 408.304126 
L 95.840161 395.831188 
L 91.456143 383.632845 
L 87.526157 371.856206 
L 84.033616 360.63069 
L 80.95883 350.068021 
L 78.279009 340.262233 
L 73.996081 323.19258 
L 70.91547 309.229642 
L 68.813191 297.913679 
L 67.502005 288.897212 
L 66.808586 281.800249 
L 66.596978 276.237423 
L 66.768386 271.893973 
L 67.237414 268.503417 
L 67.937186 265.84728 
L 68.820058 263.760993 
L 69.846712 262.110288 
L 70.986275 260.788981 
L 72.218248 259.723245 
L 73.525861 258.853393 
L 75.598089 257.809229 
L 77.776677 256.981682 
L 80.816381 256.097678 
L 85.602308 255.007115 
L 94.100494 253.385533 
L 108.06832 250.678948 
L 117.292468 248.647816 
L 126.147606 246.452258 
L 133.259243 244.479356 
L 140.861567 242.124634 
L 147.65105 239.782387 
L 154.938325 237.002616 
L 161.189731 234.396298 
L 167.875997 231.384154 
L 173.222007 228.77506 
L 178.885163 225.812843 
L 184.904208 222.445352 
L 191.332844 218.594381 
L 198.239734 214.155673 
L 205.708498 208.998916 
L 211.047894 205.086019 
L 216.713421 200.732269 
L 222.740937 195.879756 
L 229.169257 190.465426 
L 236.040147 184.421077 
L 243.398331 177.673364 
L 251.294679 170.155132 
L 259.802365 161.781868 
L 268.999304 152.444014 
L 284.250125 136.54968 
L 301.460216 118.538654 
L 314.134271 105.580375 
L 320.853049 98.887899 
L 327.828588 92.106155 
L 335.065204 85.341655 
L 342.562253 78.708519 
L 350.313574 72.325799 
L 358.307486 66.317484 
L 366.526789 60.812494 
L 374.948767 55.944683 
L 383.545181 51.852839 
L 392.282277 48.680683 
L 401.12078 46.576871 
L 410.015899 45.694991 
L 418.917322 46.193565 
L 427.769218 48.236048 
L 436.510397 52.027684 
L 445.074531 57.533472 
L 453.399211 64.544088 
L 461.429355 72.855739 
L 469.117208 82.270279 
L 476.422338 92.595206 
L 483.311644 103.643666 
L 489.759348 115.234448 
L 495.746999 127.191991 
L 501.263475 139.346375 
L 506.304976 151.533331 
L 510.875033 163.594231 
L 514.9845 175.376096 
L 518.651559 186.731593 
L 521.897136 197.490562 
L 524.741579 207.516193 
L 527.214189 216.788406 
L 529.343979 225.301448 
L 531.15938 233.061305 
L 533.957845 246.404098 
L 535.825448 257.099459 
L 536.960853 265.582149 
L 537.512893 272.250173 
L 537.605121 277.456533 
L 537.343444 281.516236 
L 536.804856 284.683845 
L 536.047653 287.157558 
L 535.121178 289.102732 
L 534.061887 290.645786 
L 532.894936 291.877372 
L 531.641695 292.872608 
L 530.319846 293.692392 
L 528.231866 294.679435 
L 526.040295 295.459945 
L 522.99355 296.309626 
L 518.202672 297.364938 
L 507.937854 299.286924 
L 495.760475 301.641409 
L 486.566767 303.651297 
L 478.894059 305.541759 
L 470.660895 307.808328 
L 463.058616 310.150954 
L 456.279198 312.4566 
L 449.025663 315.168565 
L 442.816822 317.71484 
L 436.178595 320.688156 
L 429.034584 324.19344 
L 423.2917 327.245146 
L 417.172567 330.724237 
L 410.643579 334.644361 
L 403.648275 339.121318 
L 398.677271 342.533942 
L 393.421413 346.367396 
L 387.843553 350.685241 
L 381.903138 355.54777 
L 375.556215 361.012013 
L 368.75543 367.131733 
L 361.450025 373.957426 
L 353.585844 381.536323 
L 340.615023 394.412207 
L 326.048035 409.215559 
L 297.60151 438.484277 
L 297.60151 438.484277 
" clip-path="url(#p483aa9faf3)" style="fill: none; stroke: #000000; stroke-opacity: 0.3; stroke-width: 7; stroke-linecap: square"/>
   </g>
   <g id="line2d_20">
    <path d="M 534.591108 336.559606 
L 530.11763 332.207397 
L 525.949054 328.696614 
L 522.027051 325.855917 
L 518.304223 323.551168 
L 514.743185 321.681299 
L 511.312906 320.165107 
L 507.988997 318.941649 
L 504.750035 317.95871 
L 501.579495 317.177892 
L 496.9206 316.315025 
L 492.344224 315.749778 
L 487.819294 315.418787 
L 481.82487 315.263535 
L 475.833917 315.363274 
L 468.297528 315.763224 
L 460.659509 316.402088 
L 451.302035 317.418023 
L 440.048867 318.882956 
L 426.653858 320.864743 
L 408.972275 323.728374 
L 359.400314 331.942828 
L 346.310522 333.806852 
L 335.087102 335.170431 
L 325.931936 336.071113 
L 316.653238 336.743322 
L 309.637033 337.061266 
L 302.594356 337.189862 
L 295.549101 337.102062 
L 288.528035 336.771441 
L 281.561157 336.173531 
L 274.681024 335.286892 
L 267.922428 334.094387 
L 263.502199 333.12369 
L 259.163228 332.010054 
L 254.916643 330.753295 
L 250.773492 329.354719 
L 246.744734 327.81695 
L 242.840861 326.144725 
L 239.072151 324.343836 
L 235.448164 322.421892 
L 231.977855 320.38778 
L 228.669599 318.251452 
L 225.530586 316.024146 
L 222.567524 313.717663 
L 219.785845 311.344485 
L 217.190118 308.917375 
L 214.784092 306.449223 
L 212.570148 303.952669 
L 210.550141 301.440142 
L 208.724665 298.923357 
L 207.093574 296.413376 
L 205.656003 293.920576 
L 204.410083 291.454007 
L 203.353568 289.02218 
L 202.483395 286.632165 
L 201.796088 284.290137 
L 201.287766 282.001373 
L 200.954089 279.769784 
L 200.790553 277.598761 
L 200.792359 275.490478 
L 200.954604 273.446448 
L 201.272284 271.467538 
L 201.740366 269.55376 
L 202.353813 267.704816 
L 203.107658 265.919759 
L 204.490985 263.359132 
L 206.163185 260.933812 
L 208.108904 258.637179 
L 210.313658 256.461947 
L 212.763746 254.400591 
L 215.446397 252.445639 
L 218.349668 250.589949 
L 221.462388 248.826871 
L 225.920618 246.610096 
L 230.709812 244.535919 
L 235.808563 242.595765 
L 241.196539 240.78452 
L 246.853922 239.100814 
L 252.760813 237.547185 
L 258.896627 236.130223 
L 265.239476 234.860601 
L 271.765533 233.753035 
L 278.448408 232.826057 
L 285.258627 232.10154 
L 292.16316 231.604017 
L 299.125092 231.359702 
L 306.103433 231.395221 
L 311.321005 231.620865 
L 316.502158 232.027908 
L 321.625496 232.62469 
L 326.668701 233.41747 
L 331.608885 234.410387 
L 336.422812 235.604722 
L 341.087257 236.998741 
L 345.579311 238.587683 
L 349.876885 240.363223 
L 353.958896 242.314132 
L 357.805811 244.426052 
L 361.399897 246.682078 
L 364.725369 249.063278 
L 367.768946 251.549076 
L 370.519577 254.118072 
L 372.968852 256.748557 
L 375.110866 259.419197 
L 376.942021 262.109459 
L 378.461237 264.800307 
L 379.669378 267.474282 
L 380.569322 270.115996 
L 381.165613 272.712198 
L 381.464141 275.251679 
L 381.472063 277.725566 
L 381.197379 280.12683 
L 380.648827 282.450394 
L 379.835627 284.692825 
L 378.767305 286.852034 
L 377.453559 288.927216 
L 375.904124 290.918421 
L 374.128678 292.826446 
L 372.136775 294.652569 
L 369.937809 296.398347 
L 367.540969 298.065446 
L 364.052927 300.168603 
L 360.249983 302.137909 
L 356.152604 303.97538 
L 351.781065 305.681464 
L 347.155727 307.254692 
L 342.297345 308.691456 
L 337.227414 309.985848 
L 331.968556 311.129582 
L 326.544857 312.112098 
L 320.982223 312.920737 
L 315.308667 313.541092 
L 309.554547 313.957486 
L 303.752744 314.153656 
L 297.938644 314.113585 
L 292.150038 313.822481 
L 286.426835 313.267824 
L 280.810632 312.440444 
L 276.694349 311.637921 
L 272.680394 310.679213 
L 268.78683 309.566007 
L 265.03135 308.302113 
L 261.431133 306.893178 
L 258.002552 305.346845 
L 254.760955 303.672613 
L 251.720579 301.881518 
L 248.894156 299.986115 
L 246.293007 297.999968 
L 243.926786 295.937446 
L 241.803417 293.813323 
L 239.92923 291.642462 
L 238.308694 289.439441 
L 238.308694 289.439441 
" clip-path="url(#p483aa9faf3)" style="fill: none; stroke-dasharray: 22.4,5.6,3.5,5.6; stroke-dashoffset: 0; stroke: #0000ff; stroke-opacity: 0.8; stroke-width: 3.5"/>
   </g>
   <g id="patch_3">
    <path d="M 42.620313 530.438125 
L 42.620313 22.318125 
" style="fill: none; stroke: #000000; stroke-width: 0.8; stroke-linejoin: miter; stroke-linecap: square"/>
   </g>
   <g id="patch_4">
    <path d="M 561.180312 530.438125 
L 561.180312 22.318125 
" style="fill: none; stroke: #000000; stroke-width: 0.8; stroke-linejoin: miter; stroke-linecap: square"/>
   </g>
   <g id="patch_5">
    <path d="M 42.620313 530.438125 
L 561.180312 530.438125 
" style="fill: none; stroke: #000000; stroke-width: 0.8; stroke-linejoin: miter; stroke-linecap: square"/>
   </g>
   <g id="patch_6">
    <path d="M 42.620313 22.318125 
L 561.180312 22.318125 
" style="fill: none; stroke: #000000; stroke-width: 0.8; stroke-linejoin: miter; stroke-linecap: square"/>
   </g>
   <g id="line2d_21">
    <path d="M 534.591108 336.559606 
L 530.151571 330.896762 
L 526.114106 326.12311 
L 522.415074 322.13851 
L 518.995848 318.83787 
L 515.808994 316.124382 
L 512.811955 313.908092 
L 509.969196 312.111316 
L 507.251613 310.669911 
L 504.633067 309.526324 
L 502.093098 308.636467 
L 499.613312 307.961382 
L 497.178316 307.469566 
L 493.58189 307.021507 
L 490.020061 306.861676 
L 486.462496 306.940751 
L 482.883745 307.223298 
L 478.041271 307.874281 
L 473.076125 308.806943 
L 467.946267 310.005024 
L 462.610861 311.468658 
L 457.027926 313.212484 
L 451.152164 315.265431 
L 444.932521 317.672247 
L 438.309702 320.496107 
L 431.21289 323.82347 
L 425.528094 326.717987 
L 419.484735 330.023717 
L 413.030484 333.820043 
L 406.103661 338.204194 
L 398.628563 343.299199 
L 393.296903 347.163126 
L 387.649804 351.46205 
L 381.652675 356.253704 
L 375.263599 361.606044 
L 368.437153 367.591167 
L 361.121606 374.287011 
L 353.258208 381.772776 
L 344.78398 390.128847 
L 335.628118 399.416368 
L 320.454912 415.184445 
L 297.14546 439.460293 
L 284.025178 452.648414 
L 277.078247 459.369963 
L 269.871828 466.087114 
L 262.408163 472.715584 
L 254.691208 479.161859 
L 246.729436 485.310329 
L 238.539667 491.017664 
L 230.140886 496.137176 
L 221.555884 500.501694 
L 212.820993 503.937566 
L 203.975131 506.277374 
L 195.061541 507.341761 
L 186.133479 506.999761 
L 177.248122 505.166158 
L 168.463236 501.769709 
L 159.840205 496.803318 
L 151.437917 490.329209 
L 143.31399 482.436344 
L 135.51997 473.268271 
L 128.101412 462.995939 
L 121.09917 451.809368 
L 114.542365 439.91956 
L 108.453692 427.542111 
L 102.853045 414.907255 
L 97.739497 402.230454 
L 93.111673 389.72655 
L 88.961497 377.596082 
L 85.26989 366.00223 
L 82.013669 355.077013 
L 79.16506 344.9087 
L 76.693772 335.547048 
L 72.756877 319.274243 
L 69.956343 306.074039 
L 68.069918 295.536174 
L 66.909822 287.191951 
L 66.323926 280.604744 
L 66.191222 275.404547 
L 66.416545 271.291894 
L 66.925415 268.03013 
L 67.659469 265.433766 
L 68.573178 263.358666 
L 69.630831 261.692287 
L 70.804293 260.346289 
L 72.071642 259.251943 
L 73.415665 258.355149 
L 75.546407 257.288433 
L 77.786039 256.463208 
L 80.902332 255.607704 
L 84.960875 254.765704 
L 92.634104 253.479546 
L 104.523067 251.461043 
L 112.397369 249.894758 
L 119.724695 248.227157 
L 127.548833 246.206844 
L 134.73135 244.123933 
L 142.442125 241.632658 
L 149.347577 239.165326 
L 156.77129 236.249038 
L 163.148304 233.512882 
L 169.981292 230.330691 
L 177.347162 226.594651 
L 183.278246 223.345089 
L 189.612208 219.628293 
L 196.40822 215.350016 
L 203.738548 210.391966 
L 208.963745 206.63998 
L 214.495086 202.471394 
L 220.365958 197.830241 
L 226.61583 192.651757 
L 233.28915 186.864999 
L 240.434755 180.393864 
L 248.110013 173.159251 
L 256.375832 165.081042 
L 265.300746 156.091093 
L 280.083135 140.79309 
L 302.789634 117.083076 
L 315.580285 104.077844 
L 322.357191 97.406843 
L 329.392933 90.696194 
L 336.686792 84.022093 
L 344.237599 77.465892 
L 352.037577 71.137831 
L 360.074577 65.164771 
L 368.333446 59.683551 
L 376.793479 54.851309 
L 385.42329 50.839846 
L 394.189349 47.818493 
L 403.051656 45.968985 
L 411.959443 45.429639 
L 420.860674 46.323841 
L 429.697874 48.761378 
L 438.410868 52.755313 
L 446.940025 58.286202 
L 455.226223 65.299759 
L 463.215048 73.673258 
L 470.856872 83.256917 
L 478.106472 93.874281 
L 484.930772 105.321622 
L 491.301109 117.39121 
L 497.192964 129.859307 
L 502.601293 142.505217 
L 507.522298 155.108927 
L 511.9596 167.460025 
L 515.927781 179.375551 
L 519.446579 190.701502 
L 522.541145 201.323615 
L 525.240231 211.16927 
L 527.5747 220.199482 
L 531.275478 235.838699 
L 533.886002 248.480675 
L 535.622384 258.555745 
L 536.664329 266.529276 
L 537.157463 272.824314 
L 537.217435 277.796587 
L 536.935057 281.732397 
L 536.381182 284.856739 
L 535.611398 287.346 
L 534.669291 289.337931 
L 533.589067 290.940143 
L 532.397239 292.235767 
L 531.115051 293.291372 
L 529.758839 294.158287 
L 527.613343 295.1924 
L 525.362216 295.996654 
L 522.233425 296.835643 
L 518.161623 297.669098 
L 510.465607 298.958577 
L 499.491833 300.824953 
L 491.645782 302.374487 
L 484.348136 304.022312 
L 476.559741 306.017338 
L 469.413987 308.072863 
L 461.747089 310.52961 
L 454.885045 312.960701 
L 447.512587 315.831485 
L 441.183631 318.522209 
L 434.40642 321.648511 
L 427.106082 325.314632 
L 421.232015 328.499883 
L 414.963051 332.139894 
L 408.24199 336.325326 
L 400.998564 341.170796 
L 395.838848 344.835113 
L 390.380319 348.90374 
L 384.59081 353.430787 
L 378.431269 358.480351 
L 371.859341 364.121168 
L 364.826586 370.428431 
L 357.277724 377.480897 
L 349.153308 385.359866 
L 340.385471 394.134758 
L 325.870872 409.098119 
L 297.42404 438.750459 
L 284.359692 451.897427 
L 277.442776 458.597789 
L 270.26692 465.299018 
L 262.832831 471.923012 
L 255.146669 478.366853 
L 255.146669 478.366853 
" clip-path="url(#p483aa9faf3)" style="fill: none; stroke-dasharray: 3.5,5.775; stroke-dashoffset: 0; stroke: #008000; stroke-opacity: 0.8; stroke-width: 3.5"/>
   </g>
   <g id="text_21">
    <!-- Phase Portrait (x0 vs x1) -->
    <g transform="translate(228.209062 16.318125) scale(0.12 -0.12)">
     <defs>
      <path id="DejaVuSans-50" d="M 1259 4147 
L 1259 2394 
L 2053 2394 
Q 2494 2394 2734 2622 
Q 2975 2850 2975 3272 
Q 2975 3691 2734 3919 
Q 2494 4147 2053 4147 
L 1259 4147 
z
M 628 4666 
L 2053 4666 
Q 2838 4666 3239 4311 
Q 3641 3956 3641 3272 
Q 3641 2581 3239 2228 
Q 2838 1875 2053 1875 
L 1259 1875 
L 1259 0 
L 628 0 
L 628 4666 
z
" transform="scale(0.015625)"/>
      <path id="DejaVuSans-68" d="M 3513 2113 
L 3513 0 
L 2938 0 
L 2938 2094 
Q 2938 2591 2744 2837 
Q 2550 3084 2163 3084 
Q 1697 3084 1428 2787 
Q 1159 2491 1159 1978 
L 1159 0 
L 581 0 
L 581 4863 
L 1159 4863 
L 1159 2956 
Q 1366 3272 1645 3428 
Q 1925 3584 2291 3584 
Q 2894 3584 3203 3211 
Q 3513 2838 3513 2113 
z
" transform="scale(0.015625)"/>
      <path id="DejaVuSans-61" d="M 2194 1759 
Q 1497 1759 1228 1600 
Q 959 1441 959 1056 
Q 959 750 1161 570 
Q 1363 391 1709 391 
Q 2188 391 2477 730 
Q 2766 1069 2766 1631 
L 2766 1759 
L 2194 1759 
z
M 3341 1997 
L 3341 0 
L 2766 0 
L 2766 531 
Q 2569 213 2275 61 
Q 1981 -91 1556 -91 
Q 1019 -91 701 211 
Q 384 513 384 1019 
Q 384 1609 779 1909 
Q 1175 2209 1959 2209 
L 2766 2209 
L 2766 2266 
Q 2766 2663 2505 2880 
Q 2244 3097 1772 3097 
Q 1472 3097 1187 3025 
Q 903 2953 641 2809 
L 641 3341 
Q 956 3463 1253 3523 
Q 1550 3584 1831 3584 
Q 2591 3584 2966 3190 
Q 3341 2797 3341 1997 
z
" transform="scale(0.015625)"/>
      <path id="DejaVuSans-73" d="M 2834 3397 
L 2834 2853 
Q 2591 2978 2328 3040 
Q 2066 3103 1784 3103 
Q 1356 3103 1142 2972 
Q 928 2841 928 2578 
Q 928 2378 1081 2264 
Q 1234 2150 1697 2047 
L 1894 2003 
Q 2506 1872 2764 1633 
Q 3022 1394 3022 966 
Q 3022 478 2636 193 
Q 2250 -91 1575 -91 
Q 1294 -91 989 -36 
Q 684 19 347 128 
L 347 722 
Q 666 556 975 473 
Q 1284 391 1588 391 
Q 1994 391 2212 530 
Q 2431 669 2431 922 
Q 2431 1156 2273 1281 
Q 2116 1406 1581 1522 
L 1381 1569 
Q 847 1681 609 1914 
Q 372 2147 372 2553 
Q 372 3047 722 3315 
Q 1072 3584 1716 3584 
Q 2034 3584 2315 3537 
Q 2597 3491 2834 3397 
z
" transform="scale(0.015625)"/>
      <path id="DejaVuSans-65" d="M 3597 1894 
L 3597 1613 
L 953 1613 
Q 991 1019 1311 708 
Q 1631 397 2203 397 
Q 2534 397 2845 478 
Q 3156 559 3463 722 
L 3463 178 
Q 3153 47 2828 -22 
Q 2503 -91 2169 -91 
Q 1331 -91 842 396 
Q 353 884 353 1716 
Q 353 2575 817 3079 
Q 1281 3584 2069 3584 
Q 2775 3584 3186 3129 
Q 3597 2675 3597 1894 
z
M 3022 2063 
Q 3016 2534 2758 2815 
Q 2500 3097 2075 3097 
Q 1594 3097 1305 2825 
Q 1016 2553 972 2059 
L 3022 2063 
z
" transform="scale(0.015625)"/>
      <path id="DejaVuSans-20" transform="scale(0.015625)"/>
      <path id="DejaVuSans-6f" d="M 1959 3097 
Q 1497 3097 1228 2736 
Q 959 2375 959 1747 
Q 959 1119 1226 758 
Q 1494 397 1959 397 
Q 2419 397 2687 759 
Q 2956 1122 2956 1747 
Q 2956 2369 2687 2733 
Q 2419 3097 1959 3097 
z
M 1959 3584 
Q 2709 3584 3137 3096 
Q 3566 2609 3566 1747 
Q 3566 888 3137 398 
Q 2709 -91 1959 -91 
Q 1206 -91 779 398 
Q 353 888 353 1747 
Q 353 2609 779 3096 
Q 1206 3584 1959 3584 
z
" transform="scale(0.015625)"/>
      <path id="DejaVuSans-72" d="M 2631 2963 
Q 2534 3019 2420 3045 
Q 2306 3072 2169 3072 
Q 1681 3072 1420 2755 
Q 1159 2438 1159 1844 
L 1159 0 
L 581 0 
L 581 3500 
L 1159 3500 
L 1159 2956 
Q 1341 3275 1631 3429 
Q 1922 3584 2338 3584 
Q 2397 3584 2469 3576 
Q 2541 3569 2628 3553 
L 2631 2963 
z
" transform="scale(0.015625)"/>
      <path id="DejaVuSans-74" d="M 1172 4494 
L 1172 3500 
L 2356 3500 
L 2356 3053 
L 1172 3053 
L 1172 1153 
Q 1172 725 1289 603 
Q 1406 481 1766 481 
L 2356 481 
L 2356 0 
L 1766 0 
Q 1100 0 847 248 
Q 594 497 594 1153 
L 594 3053 
L 172 3053 
L 172 3500 
L 594 3500 
L 594 4494 
L 1172 4494 
z
" transform="scale(0.015625)"/>
      <path id="DejaVuSans-69" d="M 603 3500 
L 1178 3500 
L 1178 0 
L 603 0 
L 603 3500 
z
M 603 4863 
L 1178 4863 
L 1178 4134 
L 603 4134 
L 603 4863 
z
" transform="scale(0.015625)"/>
      <path id="DejaVuSans-28" d="M 1984 4856 
Q 1566 4138 1362 3434 
Q 1159 2731 1159 2009 
Q 1159 1288 1364 580 
Q 1569 -128 1984 -844 
L 1484 -844 
Q 1016 -109 783 600 
Q 550 1309 550 2009 
Q 550 2706 781 3412 
Q 1013 4119 1484 4856 
L 1984 4856 
z
" transform="scale(0.015625)"/>
      <path id="DejaVuSans-76" d="M 191 3500 
L 800 3500 
L 1894 563 
L 2988 3500 
L 3597 3500 
L 2284 0 
L 1503 0 
L 191 3500 
z
" transform="scale(0.015625)"/>
      <path id="DejaVuSans-29" d="M 513 4856 
L 1013 4856 
Q 1481 4119 1714 3412 
Q 1947 2706 1947 2009 
Q 1947 1309 1714 600 
Q 1481 -109 1013 -844 
L 513 -844 
Q 928 -128 1133 580 
Q 1338 1288 1338 2009 
Q 1338 2731 1133 3434 
Q 928 4138 513 4856 
z
" transform="scale(0.015625)"/>
     </defs>
     <use xlink:href="#DejaVuSans-50"/>
     <use xlink:href="#DejaVuSans-68" transform="translate(60.302734 0)"/>
     <use xlink:href="#DejaVuSans-61" transform="translate(123.681641 0)"/>
     <use xlink:href="#DejaVuSans-73" transform="translate(184.960938 0)"/>
     <use xlink:href="#DejaVuSans-65" transform="translate(237.060547 0)"/>
     <use xlink:href="#DejaVuSans-20" transform="translate(298.583984 0)"/>
     <use xlink:href="#DejaVuSans-50" transform="translate(330.371094 0)"/>
     <use xlink:href="#DejaVuSans-6f" transform="translate(387.048828 0)"/>
     <use xlink:href="#DejaVuSans-72" transform="translate(448.230469 0)"/>
     <use xlink:href="#DejaVuSans-74" transform="translate(489.34375 0)"/>
     <use xlink:href="#DejaVuSans-72" transform="translate(528.552734 0)"/>
     <use xlink:href="#DejaVuSans-61" transform="translate(569.666016 0)"/>
     <use xlink:href="#DejaVuSans-69" transform="translate(630.945312 0)"/>
     <use xlink:href="#DejaVuSans-74" transform="translate(658.728516 0)"/>
     <use xlink:href="#DejaVuSans-20" transform="translate(697.9375 0)"/>
     <use xlink:href="#DejaVuSans-28" transform="translate(729.724609 0)"/>
     <use xlink:href="#DejaVuSans-78" transform="translate(768.738281 0)"/>
     <use xlink:href="#DejaVuSans-30" transform="translate(827.917969 0)"/>
     <use xlink:href="#DejaVuSans-20" transform="translate(891.541016 0)"/>
     <use xlink:href="#DejaVuSans-76" transform="translate(923.328125 0)"/>
     <use xlink:href="#DejaVuSans-73" transform="translate(982.507812 0)"/>
     <use xlink:href="#DejaVuSans-20" transform="translate(1034.607422 0)"/>
     <use xlink:href="#DejaVuSans-78" transform="translate(1066.394531 0)"/>
     <use xlink:href="#DejaVuSans-31" transform="translate(1125.574219 0)"/>
     <use xlink:href="#DejaVuSans-29" transform="translate(1189.197266 0)"/>
    </g>
   </g>
   <g id="line2d_22">
    <path d="M 534.591108 336.559606 
L 532.348775 332.028535 
L 530.26841 328.13808 
L 528.327848 324.788801 
L 526.507556 321.895507 
L 524.791284 319.38983 
L 521.617582 315.326449 
L 518.717944 312.251384 
L 516.025712 309.917819 
L 513.490978 308.150388 
L 511.075263 306.819908 
L 508.74856 305.830376 
L 506.487635 305.110783 
L 504.273493 304.605721 
L 501.008748 304.16489 
L 497.777198 304.015585 
L 494.54956 304.090516 
L 490.212628 304.460437 
L 485.798734 305.077789 
L 480.120372 306.141259 
L 474.207691 307.502232 
L 468.003325 309.164684 
L 461.446434 311.159913 
L 454.46765 313.545113 
L 448.525623 315.790809 
L 442.209312 318.40098 
L 435.456531 321.454761 
L 430.060426 324.097102 
L 424.337729 327.101273 
L 418.242552 330.534799 
L 411.721054 334.479439 
L 404.70766 339.037396 
L 397.124898 344.331891 
L 391.707565 348.344511 
L 385.963633 352.803122 
L 379.855514 357.767804 
L 373.343031 363.302735 
L 366.378012 369.481053 
L 358.908426 376.379091 
L 350.87585 384.076257 
L 342.214897 392.646098 
L 332.856043 402.160714 
L 317.34532 418.263208 
L 299.843727 436.473964 
L 286.958442 449.539102 
L 280.133094 456.229349 
L 273.048804 462.946679 
L 265.704326 469.619115 
L 258.105663 476.143362 
L 250.260438 482.411412 
L 242.17771 488.302903 
L 233.877775 493.669031 
L 225.384514 498.354781 
L 216.725076 502.197902 
L 207.935112 505.028779 
L 199.059451 506.691435 
L 190.144239 507.034498 
L 181.243065 505.932138 
L 172.413899 503.302099 
L 163.716868 499.08931 
L 155.212787 493.309412 
L 146.961717 486.014397 
L 139.019767 477.322423 
L 131.437471 467.396674 
L 124.260835 456.437381 
L 117.52217 444.683742 
L 111.248866 432.379699 
L 105.459261 419.781761 
L 100.156359 407.119317 
L 95.340287 394.611466 
L 91.002521 382.456105 
L 87.124289 370.788414 
L 83.685323 359.732148 
L 80.660434 349.371459 
L 78.021525 339.751895 
L 75.73938 330.900494 
L 73.784426 322.812344 
L 70.739925 308.846491 
L 68.668223 297.571659 
L 67.37594 288.606969 
L 66.699652 281.552023 
L 66.506911 276.036062 
L 66.691386 271.736419 
L 67.169844 268.385792 
L 67.877626 265.768743 
L 68.764889 263.714996 
L 69.793337 262.091498 
L 70.934044 260.796585 
L 72.164708 259.751257 
L 73.468409 258.895185 
L 75.534073 257.869462 
L 77.705294 257.057192 
L 80.730848 256.180926 
L 85.496164 255.09893 
L 94.837436 253.305814 
L 106.899466 250.945224 
L 116.011576 248.940527 
L 124.754907 246.773006 
L 133.009497 244.469313 
L 140.627614 242.092141 
L 147.433231 239.743077 
L 154.732247 236.966094 
L 160.988727 234.357912 
L 167.680228 231.32087 
L 174.880608 227.752284 
L 180.669168 224.648562 
L 186.842492 221.100902 
L 193.45682 217.022755 
L 200.579235 212.308616 
L 208.291437 206.827637 
L 213.807281 202.672092 
L 219.662345 198.051308 
L 225.893827 192.905365 
L 232.545496 187.165908 
L 239.666187 180.759286 
L 247.309435 173.607394 
L 255.537184 165.632991 
L 264.414902 156.759265 
L 279.10914 141.649313 
L 307.894434 111.741779 
L 321.106709 98.525173 
L 328.099415 91.810641 
L 335.350919 85.119796 
L 342.858946 78.539105 
L 350.618553 72.169525 
L 358.616871 66.139592 
L 366.839021 60.582446 
L 375.266365 55.647676 
L 383.868317 51.499445 
L 392.611852 48.300268 
L 401.459628 46.223695 
L 410.363057 45.414489 
L 419.270452 46.000777 
L 428.126809 48.098777 
L 436.871846 51.764671 
L 445.445069 56.999058 
L 453.786224 63.774882 
L 461.836284 71.998909 
L 469.5445 81.509145 
L 476.862996 92.126606 
L 483.752853 103.624391 
L 490.187584 115.759206 
L 496.143106 128.272954 
L 501.610898 140.924 
L 506.59333 153.499039 
L 511.094437 165.791959 
L 515.128088 177.633591 
L 518.715491 188.905293 
L 521.879954 199.507951 
L 524.648782 209.381207 
L 527.050796 218.497336 
L 529.11562 226.843883 
L 532.350214 241.304561 
L 534.575996 253.016438 
L 535.991627 262.351481 
L 536.764487 269.708904 
L 537.033199 275.467372 
L 536.907949 279.957838 
L 536.475686 283.457063 
L 535.803995 286.188942 
L 534.945037 288.330949 
L 533.938763 290.02149 
L 532.815855 291.368164 
L 531.599436 292.452762 
L 530.307276 293.338565 
L 528.255434 294.396462 
L 526.094892 295.229622 
L 523.080623 296.122849 
L 519.138101 297.046535 
L 511.626285 298.522087 
L 495.998579 301.566194 
L 486.832129 303.601515 
L 479.168421 305.50623 
L 470.940667 307.790976 
L 463.350231 310.146769 
L 456.571962 312.473027 
L 449.305259 315.221088 
L 443.079136 317.800321 
L 436.423 320.801575 
L 429.264196 324.325537 
L 423.511494 327.388982 
L 417.379525 330.887989 
L 410.812607 334.908049 
L 403.74474 339.552817 
L 396.096571 344.949152 
L 390.628503 349.039945 
L 384.827378 353.586253 
L 378.65552 358.648447 
L 372.070077 364.293708 
L 365.024429 370.594239 
L 357.463516 377.627793 
L 349.328682 385.473818 
L 340.553817 394.206442 
L 326.035207 409.094662 
L 297.597663 438.671994 
L 291.19572 445.183057 
L 291.19572 445.183057 
" clip-path="url(#p483aa9faf3)" style="fill: none; stroke-dasharray: 12.95,5.6; stroke-dashoffset: 0; stroke: #ff0000; stroke-opacity: 0.8; stroke-width: 3.5"/>
   </g>
   <g id="legend_1">
    <g id="patch_7">
     <path d="M 49.620313 89.030625 
L 194.970313 89.030625 
Q 196.970313 89.030625 196.970313 87.030625 
L 196.970313 29.318125 
Q 196.970313 27.318125 194.970313 27.318125 
L 49.620313 27.318125 
Q 47.620313 27.318125 47.620313 29.318125 
L 47.620313 87.030625 
Q 47.620313 89.030625 49.620313 89.030625 
z
" style="fill: #ffffff; opacity: 0.8; stroke: #cccccc; stroke-linejoin: miter"/>
    </g>
    <g id="line2d_23">
     <path d="M 51.620313 35.416562 
L 61.620313 35.416562 
L 71.620313 35.416562 
" style="fill: none; stroke: #000000; stroke-opacity: 0.3; stroke-width: 7; stroke-linecap: square"/>
    </g>
    <g id="text_22">
     <!-- True/Underlying model -->
     <g transform="translate(79.620313 38.916562) scale(0.1 -0.1)">
      <defs>
       <path id="DejaVuSans-54" d="M -19 4666 
L 3928 4666 
L 3928 4134 
L 2272 4134 
L 2272 0 
L 1638 0 
L 1638 4134 
L -19 4134 
L -19 4666 
z
" transform="scale(0.015625)"/>
       <path id="DejaVuSans-75" d="M 544 1381 
L 544 3500 
L 1119 3500 
L 1119 1403 
Q 1119 906 1312 657 
Q 1506 409 1894 409 
Q 2359 409 2629 706 
Q 2900 1003 2900 1516 
L 2900 3500 
L 3475 3500 
L 3475 0 
L 2900 0 
L 2900 538 
Q 2691 219 2414 64 
Q 2138 -91 1772 -91 
Q 1169 -91 856 284 
Q 544 659 544 1381 
z
M 1991 3584 
L 1991 3584 
z
" transform="scale(0.015625)"/>
       <path id="DejaVuSans-2f" d="M 1625 4666 
L 2156 4666 
L 531 -594 
L 0 -594 
L 1625 4666 
z
" transform="scale(0.015625)"/>
       <path id="DejaVuSans-55" d="M 556 4666 
L 1191 4666 
L 1191 1831 
Q 1191 1081 1462 751 
Q 1734 422 2344 422 
Q 2950 422 3222 751 
Q 3494 1081 3494 1831 
L 3494 4666 
L 4128 4666 
L 4128 1753 
Q 4128 841 3676 375 
Q 3225 -91 2344 -91 
Q 1459 -91 1007 375 
Q 556 841 556 1753 
L 556 4666 
z
" transform="scale(0.015625)"/>
       <path id="DejaVuSans-6e" d="M 3513 2113 
L 3513 0 
L 2938 0 
L 2938 2094 
Q 2938 2591 2744 2837 
Q 2550 3084 2163 3084 
Q 1697 3084 1428 2787 
Q 1159 2491 1159 1978 
L 1159 0 
L 581 0 
L 581 3500 
L 1159 3500 
L 1159 2956 
Q 1366 3272 1645 3428 
Q 1925 3584 2291 3584 
Q 2894 3584 3203 3211 
Q 3513 2838 3513 2113 
z
" transform="scale(0.015625)"/>
       <path id="DejaVuSans-64" d="M 2906 2969 
L 2906 4863 
L 3481 4863 
L 3481 0 
L 2906 0 
L 2906 525 
Q 2725 213 2448 61 
Q 2172 -91 1784 -91 
Q 1150 -91 751 415 
Q 353 922 353 1747 
Q 353 2572 751 3078 
Q 1150 3584 1784 3584 
Q 2172 3584 2448 3432 
Q 2725 3281 2906 2969 
z
M 947 1747 
Q 947 1113 1208 752 
Q 1469 391 1925 391 
Q 2381 391 2643 752 
Q 2906 1113 2906 1747 
Q 2906 2381 2643 2742 
Q 2381 3103 1925 3103 
Q 1469 3103 1208 2742 
Q 947 2381 947 1747 
z
" transform="scale(0.015625)"/>
       <path id="DejaVuSans-6c" d="M 603 4863 
L 1178 4863 
L 1178 0 
L 603 0 
L 603 4863 
z
" transform="scale(0.015625)"/>
       <path id="DejaVuSans-79" d="M 2059 -325 
Q 1816 -950 1584 -1140 
Q 1353 -1331 966 -1331 
L 506 -1331 
L 506 -850 
L 844 -850 
Q 1081 -850 1212 -737 
Q 1344 -625 1503 -206 
L 1606 56 
L 191 3500 
L 800 3500 
L 1894 763 
L 2988 3500 
L 3597 3500 
L 2059 -325 
z
" transform="scale(0.015625)"/>
       <path id="DejaVuSans-67" d="M 2906 1791 
Q 2906 2416 2648 2759 
Q 2391 3103 1925 3103 
Q 1463 3103 1205 2759 
Q 947 2416 947 1791 
Q 947 1169 1205 825 
Q 1463 481 1925 481 
Q 2391 481 2648 825 
Q 2906 1169 2906 1791 
z
M 3481 434 
Q 3481 -459 3084 -895 
Q 2688 -1331 1869 -1331 
Q 1566 -1331 1297 -1286 
Q 1028 -1241 775 -1147 
L 775 -588 
Q 1028 -725 1275 -790 
Q 1522 -856 1778 -856 
Q 2344 -856 2625 -561 
Q 2906 -266 2906 331 
L 2906 616 
Q 2728 306 2450 153 
Q 2172 0 1784 0 
Q 1141 0 747 490 
Q 353 981 353 1791 
Q 353 2603 747 3093 
Q 1141 3584 1784 3584 
Q 2172 3584 2450 3431 
Q 2728 3278 2906 2969 
L 2906 3500 
L 3481 3500 
L 3481 434 
z
" transform="scale(0.015625)"/>
       <path id="DejaVuSans-6d" d="M 3328 2828 
Q 3544 3216 3844 3400 
Q 4144 3584 4550 3584 
Q 5097 3584 5394 3201 
Q 5691 2819 5691 2113 
L 5691 0 
L 5113 0 
L 5113 2094 
Q 5113 2597 4934 2840 
Q 4756 3084 4391 3084 
Q 3944 3084 3684 2787 
Q 3425 2491 3425 1978 
L 3425 0 
L 2847 0 
L 2847 2094 
Q 2847 2600 2669 2842 
Q 2491 3084 2119 3084 
Q 1678 3084 1418 2786 
Q 1159 2488 1159 1978 
L 1159 0 
L 581 0 
L 581 3500 
L 1159 3500 
L 1159 2956 
Q 1356 3278 1631 3431 
Q 1906 3584 2284 3584 
Q 2666 3584 2933 3390 
Q 3200 3197 3328 2828 
z
" transform="scale(0.015625)"/>
      </defs>
      <use xlink:href="#DejaVuSans-54"/>
      <use xlink:href="#DejaVuSans-72" transform="translate(46.333984 0)"/>
      <use xlink:href="#DejaVuSans-75" transform="translate(87.447266 0)"/>
      <use xlink:href="#DejaVuSans-65" transform="translate(150.826172 0)"/>
      <use xlink:href="#DejaVuSans-2f" transform="translate(212.349609 0)"/>
      <use xlink:href="#DejaVuSans-55" transform="translate(246.041016 0)"/>
      <use xlink:href="#DejaVuSans-6e" transform="translate(319.234375 0)"/>
      <use xlink:href="#DejaVuSans-64" transform="translate(382.613281 0)"/>
      <use xlink:href="#DejaVuSans-65" transform="translate(446.089844 0)"/>
      <use xlink:href="#DejaVuSans-72" transform="translate(507.613281 0)"/>
      <use xlink:href="#DejaVuSans-6c" transform="translate(548.726562 0)"/>
      <use xlink:href="#DejaVuSans-79" transform="translate(576.509766 0)"/>
      <use xlink:href="#DejaVuSans-69" transform="translate(635.689453 0)"/>
      <use xlink:href="#DejaVuSans-6e" transform="translate(663.472656 0)"/>
      <use xlink:href="#DejaVuSans-67" transform="translate(726.851562 0)"/>
      <use xlink:href="#DejaVuSans-20" transform="translate(790.328125 0)"/>
      <use xlink:href="#DejaVuSans-6d" transform="translate(822.115234 0)"/>
      <use xlink:href="#DejaVuSans-6f" transform="translate(919.527344 0)"/>
      <use xlink:href="#DejaVuSans-64" transform="translate(980.708984 0)"/>
      <use xlink:href="#DejaVuSans-65" transform="translate(1044.185547 0)"/>
      <use xlink:href="#DejaVuSans-6c" transform="translate(1105.708984 0)"/>
     </g>
    </g>
    <g id="line2d_24">
     <path d="M 51.620313 50.094687 
L 61.620313 50.094687 
L 71.620313 50.094687 
" style="fill: none; stroke-dasharray: 12.95,5.6; stroke-dashoffset: 0; stroke: #ff0000; stroke-opacity: 0.8; stroke-width: 3.5"/>
    </g>
    <g id="text_23">
     <!-- AutoSINDy -->
     <g transform="translate(79.620313 53.594687) scale(0.1 -0.1)">
      <defs>
       <path id="DejaVuSans-41" d="M 2188 4044 
L 1331 1722 
L 3047 1722 
L 2188 4044 
z
M 1831 4666 
L 2547 4666 
L 4325 0 
L 3669 0 
L 3244 1197 
L 1141 1197 
L 716 0 
L 50 0 
L 1831 4666 
z
" transform="scale(0.015625)"/>
       <path id="DejaVuSans-53" d="M 3425 4513 
L 3425 3897 
Q 3066 4069 2747 4153 
Q 2428 4238 2131 4238 
Q 1616 4238 1336 4038 
Q 1056 3838 1056 3469 
Q 1056 3159 1242 3001 
Q 1428 2844 1947 2747 
L 2328 2669 
Q 3034 2534 3370 2195 
Q 3706 1856 3706 1288 
Q 3706 609 3251 259 
Q 2797 -91 1919 -91 
Q 1588 -91 1214 -16 
Q 841 59 441 206 
L 441 856 
Q 825 641 1194 531 
Q 1563 422 1919 422 
Q 2459 422 2753 634 
Q 3047 847 3047 1241 
Q 3047 1584 2836 1778 
Q 2625 1972 2144 2069 
L 1759 2144 
Q 1053 2284 737 2584 
Q 422 2884 422 3419 
Q 422 4038 858 4394 
Q 1294 4750 2059 4750 
Q 2388 4750 2728 4690 
Q 3069 4631 3425 4513 
z
" transform="scale(0.015625)"/>
       <path id="DejaVuSans-49" d="M 628 4666 
L 1259 4666 
L 1259 0 
L 628 0 
L 628 4666 
z
" transform="scale(0.015625)"/>
       <path id="DejaVuSans-4e" d="M 628 4666 
L 1478 4666 
L 3547 763 
L 3547 4666 
L 4159 4666 
L 4159 0 
L 3309 0 
L 1241 3903 
L 1241 0 
L 628 0 
L 628 4666 
z
" transform="scale(0.015625)"/>
       <path id="DejaVuSans-44" d="M 1259 4147 
L 1259 519 
L 2022 519 
Q 2988 519 3436 956 
Q 3884 1394 3884 2338 
Q 3884 3275 3436 3711 
Q 2988 4147 2022 4147 
L 1259 4147 
z
M 628 4666 
L 1925 4666 
Q 3281 4666 3915 4102 
Q 4550 3538 4550 2338 
Q 4550 1131 3912 565 
Q 3275 0 1925 0 
L 628 0 
L 628 4666 
z
" transform="scale(0.015625)"/>
      </defs>
      <use xlink:href="#DejaVuSans-41"/>
      <use xlink:href="#DejaVuSans-75" transform="translate(68.408203 0)"/>
      <use xlink:href="#DejaVuSans-74" transform="translate(131.787109 0)"/>
      <use xlink:href="#DejaVuSans-6f" transform="translate(170.996094 0)"/>
      <use xlink:href="#DejaVuSans-53" transform="translate(232.177734 0)"/>
      <use xlink:href="#DejaVuSans-49" transform="translate(295.654297 0)"/>
      <use xlink:href="#DejaVuSans-4e" transform="translate(325.146484 0)"/>
      <use xlink:href="#DejaVuSans-44" transform="translate(399.951172 0)"/>
      <use xlink:href="#DejaVuSans-79" transform="translate(476.953125 0)"/>
     </g>
    </g>
    <g id="line2d_25">
     <path d="M 51.620313 64.772812 
L 61.620313 64.772812 
L 71.620313 64.772812 
" style="fill: none; stroke-dasharray: 3.5,5.775; stroke-dashoffset: 0; stroke: #008000; stroke-opacity: 0.8; stroke-width: 3.5"/>
    </g>
    <g id="text_24">
     <!-- Standard SINDy -->
     <g transform="translate(79.620313 68.272812) scale(0.1 -0.1)">
      <use xlink:href="#DejaVuSans-53"/>
      <use xlink:href="#DejaVuSans-74" transform="translate(63.476562 0)"/>
      <use xlink:href="#DejaVuSans-61" transform="translate(102.685547 0)"/>
      <use xlink:href="#DejaVuSans-6e" transform="translate(163.964844 0)"/>
      <use xlink:href="#DejaVuSans-64" transform="translate(227.34375 0)"/>
      <use xlink:href="#DejaVuSans-61" transform="translate(290.820312 0)"/>
      <use xlink:href="#DejaVuSans-72" transform="translate(352.099609 0)"/>
      <use xlink:href="#DejaVuSans-64" transform="translate(391.462891 0)"/>
      <use xlink:href="#DejaVuSans-20" transform="translate(454.939453 0)"/>
      <use xlink:href="#DejaVuSans-53" transform="translate(486.726562 0)"/>
      <use xlink:href="#DejaVuSans-49" transform="translate(550.203125 0)"/>
      <use xlink:href="#DejaVuSans-4e" transform="translate(579.695312 0)"/>
      <use xlink:href="#DejaVuSans-44" transform="translate(654.5 0)"/>
      <use xlink:href="#DejaVuSans-79" transform="translate(731.501953 0)"/>
     </g>
    </g>
    <g id="line2d_26">
     <path d="M 51.620313 79.450937 
L 61.620313 79.450937 
L 71.620313 79.450937 
" style="fill: none; stroke-dasharray: 22.4,5.6,3.5,5.6; stroke-dashoffset: 0; stroke: #0000ff; stroke-opacity: 0.8; stroke-width: 3.5"/>
    </g>
    <g id="text_25">
     <!-- Standard PySR -->
     <g transform="translate(79.620313 82.950937) scale(0.1 -0.1)">
      <defs>
       <path id="DejaVuSans-52" d="M 2841 2188 
Q 3044 2119 3236 1894 
Q 3428 1669 3622 1275 
L 4263 0 
L 3584 0 
L 2988 1197 
Q 2756 1666 2539 1819 
Q 2322 1972 1947 1972 
L 1259 1972 
L 1259 0 
L 628 0 
L 628 4666 
L 2053 4666 
Q 2853 4666 3247 4331 
Q 3641 3997 3641 3322 
Q 3641 2881 3436 2590 
Q 3231 2300 2841 2188 
z
M 1259 4147 
L 1259 2491 
L 2053 2491 
Q 2509 2491 2742 2702 
Q 2975 2913 2975 3322 
Q 2975 3731 2742 3939 
Q 2509 4147 2053 4147 
L 1259 4147 
z
" transform="scale(0.015625)"/>
      </defs>
      <use xlink:href="#DejaVuSans-53"/>
      <use xlink:href="#DejaVuSans-74" transform="translate(63.476562 0)"/>
      <use xlink:href="#DejaVuSans-61" transform="translate(102.685547 0)"/>
      <use xlink:href="#DejaVuSans-6e" transform="translate(163.964844 0)"/>
      <use xlink:href="#DejaVuSans-64" transform="translate(227.34375 0)"/>
      <use xlink:href="#DejaVuSans-61" transform="translate(290.820312 0)"/>
      <use xlink:href="#DejaVuSans-72" transform="translate(352.099609 0)"/>
      <use xlink:href="#DejaVuSans-64" transform="translate(391.462891 0)"/>
      <use xlink:href="#DejaVuSans-20" transform="translate(454.939453 0)"/>
      <use xlink:href="#DejaVuSans-50" transform="translate(486.726562 0)"/>
      <use xlink:href="#DejaVuSans-79" transform="translate(547.029297 0)"/>
      <use xlink:href="#DejaVuSans-53" transform="translate(606.208984 0)"/>
      <use xlink:href="#DejaVuSans-52" transform="translate(669.685547 0)"/>
     </g>
    </g>
   </g>
  </g>
 </g>
 <defs>
  <clipPath id="p483aa9faf3">
   <rect x="42.620313" y="22.318125" width="518.56" height="508.12"/>
  </clipPath>
 </defs>
</svg>
