<?xml version="1.0" encoding="utf-8" standalone="no"?>
<!DOCTYPE svg PUBLIC "-//W3C//DTD SVG 1.1//EN"
  "http://www.w3.org/Graphics/SVG/1.1/DTD/svg11.dtd">
<svg xmlns:xlink="http://www.w3.org/1999/xlink" width="862.64875pt" height="430.650625pt" viewBox="0 0 862.64875 430.650625" xmlns="http://www.w3.org/2000/svg" version="1.1">
 <metadata>
  <rdf:RDF xmlns:dc="http://purl.org/dc/elements/1.1/" xmlns:cc="http://creativecommons.org/ns#" xmlns:rdf="http://www.w3.org/1999/02/22-rdf-syntax-ns#">
   <cc:Work>
    <dc:type rdf:resource="http://purl.org/dc/dcmitype/StillImage"/>
    <dc:date>2026-04-06T19:16:31.422922</dc:date>
    <dc:format>image/svg+xml</dc:format>
    <dc:creator>
     <cc:Agent>
      <dc:title>Matplotlib v3.10.7, https://matplotlib.org/</dc:title>
     </cc:Agent>
    </dc:creator>
   </cc:Work>
  </rdf:RDF>
 </metadata>
 <defs>
  <style type="text/css">*{stroke-linejoin: round; stroke-linecap: butt}</style>
 </defs>
 <g id="figure_1">
  <g id="patch_1">
   <path d="M 0 430.650625 
L 862.64875 430.650625 
L 862.64875 0 
L 0 0 
z
" style="fill: #ffffff"/>
  </g>
  <g id="axes_1">
   <g id="patch_2">
    <path d="M 46.36875 150.956034 
L 849.64875 150.956034 
L 849.64875 38.68 
L 46.36875 38.68 
z
" style="fill: #ffffff"/>
   </g>
   <g id="matplotlib.axis_1">
    <g id="xtick_1">
     <g id="line2d_1">
      <path d="M 82.881477 150.956034 
L 82.881477 38.68 
" clip-path="url(#p9a8782293d)" style="fill: none; stroke: #cccccc; stroke-width: 0.8; stroke-linecap: round"/>
     </g>
     <g id="line2d_2"/>
    </g>
    <g id="xtick_2">
     <g id="line2d_3">
      <path d="M 228.932386 150.956034 
L 228.932386 38.68 
" clip-path="url(#p9a8782293d)" style="fill: none; stroke: #cccccc; stroke-width: 0.8; stroke-linecap: round"/>
     </g>
     <g id="line2d_4"/>
    </g>
    <g id="xtick_3">
     <g id="line2d_5">
      <path d="M 374.983295 150.956034 
L 374.983295 38.68 
" clip-path="url(#p9a8782293d)" style="fill: none; stroke: #cccccc; stroke-width: 0.8; stroke-linecap: round"/>
     </g>
     <g id="line2d_6"/>
    </g>
    <g id="xtick_4">
     <g id="line2d_7">
      <path d="M 521.034205 150.956034 
L 521.034205 38.68 
" clip-path="url(#p9a8782293d)" style="fill: none; stroke: #cccccc; stroke-width: 0.8; stroke-linecap: round"/>
     </g>
     <g id="line2d_8"/>
    </g>
    <g id="xtick_5">
     <g id="line2d_9">
      <path d="M 667.085114 150.956034 
L 667.085114 38.68 
" clip-path="url(#p9a8782293d)" style="fill: none; stroke: #cccccc; stroke-width: 0.8; stroke-linecap: round"/>
     </g>
     <g id="line2d_10"/>
    </g>
    <g id="xtick_6">
     <g id="line2d_11">
      <path d="M 813.136023 150.956034 
L 813.136023 38.68 
" clip-path="url(#p9a8782293d)" style="fill: none; stroke: #cccccc; stroke-width: 0.8; stroke-linecap: round"/>
     </g>
     <g id="line2d_12"/>
    </g>
   </g>
   <g id="matplotlib.axis_2">
    <g id="ytick_1">
     <g id="line2d_13">
      <path d="M 46.36875 121.998632 
L 849.64875 121.998632 
" clip-path="url(#p9a8782293d)" style="fill: none; stroke: #cccccc; stroke-width: 0.8; stroke-linecap: round"/>
     </g>
     <g id="line2d_14"/>
     <g id="text_1">
      <!-- −10 -->
      <g style="fill: #262626" transform="translate(25.90625 125.577538) scale(0.1 -0.1)">
       <defs>
        <path id="ArialMT-2212" d="M 3381 1997 
L 356 1997 
L 356 2522 
L 3381 2522 
L 3381 1997 
z
" transform="scale(0.015625)"/>
        <path id="ArialMT-31" d="M 2384 0 
L 1822 0 
L 1822 3584 
Q 1619 3391 1289 3197 
Q 959 3003 697 2906 
L 697 3450 
Q 1169 3672 1522 3987 
Q 1875 4303 2022 4600 
L 2384 4600 
L 2384 0 
z
" transform="scale(0.015625)"/>
        <path id="ArialMT-30" d="M 266 2259 
Q 266 3072 433 3567 
Q 600 4063 929 4331 
Q 1259 4600 1759 4600 
Q 2128 4600 2406 4451 
Q 2684 4303 2865 4023 
Q 3047 3744 3150 3342 
Q 3253 2941 3253 2259 
Q 3253 1453 3087 958 
Q 2922 463 2592 192 
Q 2263 -78 1759 -78 
Q 1097 -78 719 397 
Q 266 969 266 2259 
z
M 844 2259 
Q 844 1131 1108 757 
Q 1372 384 1759 384 
Q 2147 384 2411 759 
Q 2675 1134 2675 2259 
Q 2675 3391 2411 3762 
Q 2147 4134 1753 4134 
Q 1366 4134 1134 3806 
Q 844 3388 844 2259 
z
" transform="scale(0.015625)"/>
       </defs>
       <use xlink:href="#ArialMT-2212"/>
       <use xlink:href="#ArialMT-31" transform="translate(58.398438 0)"/>
       <use xlink:href="#ArialMT-30" transform="translate(114.013672 0)"/>
      </g>
     </g>
    </g>
    <g id="ytick_2">
     <g id="line2d_15">
      <path d="M 46.36875 91.217138 
L 849.64875 91.217138 
" clip-path="url(#p9a8782293d)" style="fill: none; stroke: #cccccc; stroke-width: 0.8; stroke-linecap: round"/>
     </g>
     <g id="line2d_16"/>
     <g id="text_2">
      <!-- 0 -->
      <g style="fill: #262626" transform="translate(37.307813 94.796044) scale(0.1 -0.1)">
       <use xlink:href="#ArialMT-30"/>
      </g>
     </g>
    </g>
    <g id="ytick_3">
     <g id="line2d_17">
      <path d="M 46.36875 60.435644 
L 849.64875 60.435644 
" clip-path="url(#p9a8782293d)" style="fill: none; stroke: #cccccc; stroke-width: 0.8; stroke-linecap: round"/>
     </g>
     <g id="line2d_18"/>
     <g id="text_3">
      <!-- 10 -->
      <g style="fill: #262626" transform="translate(31.746875 64.014551) scale(0.1 -0.1)">
       <use xlink:href="#ArialMT-31"/>
       <use xlink:href="#ArialMT-30" transform="translate(55.615234 0)"/>
      </g>
     </g>
    </g>
    <g id="text_4">
     <!-- $x0$ -->
     <g style="fill: #262626" transform="translate(19.91875 100.968017) rotate(-90) scale(0.1 -0.1)">
      <defs>
       <path id="DejaVuSans-Oblique-78" d="M 3841 3500 
L 2234 1784 
L 3219 0 
L 2559 0 
L 1819 1388 
L 531 0 
L -166 0 
L 1556 1844 
L 641 3500 
L 1300 3500 
L 1972 2234 
L 3144 3500 
L 3841 3500 
z
" transform="scale(0.015625)"/>
       <path id="DejaVuSans-30" d="M 2034 4250 
Q 1547 4250 1301 3770 
Q 1056 3291 1056 2328 
Q 1056 1369 1301 889 
Q 1547 409 2034 409 
Q 2525 409 2770 889 
Q 3016 1369 3016 2328 
Q 3016 3291 2770 3770 
Q 2525 4250 2034 4250 
z
M 2034 4750 
Q 2819 4750 3233 4129 
Q 3647 3509 3647 2328 
Q 3647 1150 3233 529 
Q 2819 -91 2034 -91 
Q 1250 -91 836 529 
Q 422 1150 422 2328 
Q 422 3509 836 4129 
Q 1250 4750 2034 4750 
z
" transform="scale(0.015625)"/>
      </defs>
      <use xlink:href="#DejaVuSans-Oblique-78" transform="translate(0 0.78125)"/>
      <use xlink:href="#DejaVuSans-30" transform="translate(59.179688 0.78125)"/>
     </g>
    </g>
   </g>
   <g id="line2d_19">
    <path d="M 82.881477 60.435644 
L 84.344913 60.333857 
L 85.808349 60.047205 
L 87.271785 59.605871 
L 90.198657 58.393861 
L 98.979273 54.243769 
L 100.442709 53.732528 
L 101.906145 53.346592 
L 103.369581 53.103217 
L 104.833017 53.005047 
L 106.296453 53.045085 
L 107.759889 53.235425 
L 109.223325 53.583972 
L 110.686761 54.093217 
L 112.150197 54.761543 
L 113.613632 55.583636 
L 116.540504 57.643848 
L 119.467376 60.112996 
L 123.857684 64.217114 
L 129.711428 69.663104 
L 132.6383 72.091452 
L 135.565172 74.222006 
L 138.492044 76.014955 
L 141.418916 77.457581 
L 144.345788 78.563742 
L 147.27266 79.343394 
L 150.199532 79.816834 
L 153.126403 80.017461 
L 156.053275 79.980222 
L 158.980147 79.706322 
L 161.907019 79.193033 
L 164.833891 78.44071 
L 167.760763 77.450287 
L 170.687635 76.200957 
L 173.614507 74.692898 
L 176.541379 72.918527 
L 179.468251 70.851943 
L 182.395123 68.460099 
L 185.321995 65.767693 
L 189.712303 61.272178 
L 195.566046 55.16132 
L 197.029482 53.796389 
L 198.492918 52.588503 
L 199.956354 51.561976 
L 201.41979 50.732449 
L 202.883226 50.124884 
L 204.346662 49.773693 
L 205.810098 49.713547 
L 207.273534 49.944271 
L 208.73697 50.456187 
L 210.200406 51.233565 
L 211.663842 52.25427 
L 213.127278 53.489601 
L 216.05415 56.463065 
L 218.981022 59.877299 
L 226.298202 68.723325 
L 229.225074 71.852392 
L 232.151945 74.58442 
L 235.078817 76.885888 
L 238.005689 78.755225 
L 240.932561 80.212877 
L 243.859433 81.296714 
L 246.786305 82.045834 
L 249.713177 82.49862 
L 252.640049 82.692794 
L 255.566921 82.649388 
L 258.493793 82.376418 
L 261.420665 81.885771 
L 264.347537 81.192611 
L 267.274409 80.293413 
L 270.201281 79.175061 
L 273.128152 77.826355 
L 276.055024 76.235971 
L 278.981896 74.388106 
L 281.908768 72.267257 
L 284.83564 69.857653 
L 287.762512 67.141715 
L 290.689384 64.14218 
L 299.47 54.752393 
L 302.396872 52.18444 
L 303.860308 51.141189 
L 305.323744 50.296357 
L 306.78718 49.681031 
L 308.250616 49.321591 
L 309.714052 49.23158 
L 311.177487 49.412203 
L 312.640923 49.858369 
L 314.104359 50.560368 
L 315.567795 51.502086 
L 317.031231 52.66194 
L 318.494667 54.011114 
L 321.421539 57.139366 
L 325.811847 62.430108 
L 330.202155 67.741251 
L 333.129027 70.961491 
L 336.055899 73.799487 
L 338.982771 76.212123 
L 341.909643 78.192525 
L 344.836515 79.755047 
L 347.763387 80.933229 
L 350.690258 81.766077 
L 353.61713 82.291745 
L 356.544002 82.548273 
L 359.470874 82.563255 
L 362.397746 82.344769 
L 365.324618 81.903185 
L 368.25149 81.253398 
L 371.178362 80.399218 
L 374.105234 79.327066 
L 377.032106 78.026116 
L 379.958978 76.485032 
L 382.88585 74.68983 
L 385.812722 72.622804 
L 388.739594 70.269934 
L 391.666465 67.611261 
L 394.593337 64.640364 
L 403.373953 55.240685 
L 406.300825 52.595366 
L 407.764261 51.473837 
L 409.227697 50.551413 
L 410.691133 49.898554 
L 412.154569 49.538405 
L 413.618005 49.477175 
L 415.081441 49.719229 
L 416.544877 50.256657 
L 418.008313 51.069266 
L 419.471749 52.131645 
L 420.935185 53.413324 
L 423.862057 56.488988 
L 426.788929 60.012189 
L 434.106108 69.053762 
L 437.03298 72.221842 
L 439.959852 74.975681 
L 442.886724 77.286144 
L 445.813596 79.156113 
L 448.740468 80.611777 
L 451.66734 81.692816 
L 454.594212 82.43962 
L 457.521084 82.893485 
L 460.447956 83.093273 
L 463.374828 83.056064 
L 466.3017 82.794394 
L 469.228571 82.324694 
L 472.155443 81.660612 
L 475.082315 80.792655 
L 478.009187 79.71055 
L 480.936059 78.403313 
L 483.862931 76.857865 
L 486.789803 75.057552 
L 489.716675 72.989714 
L 492.643547 70.634555 
L 495.570419 67.991672 
L 498.497291 65.037212 
L 502.887599 60.114592 
L 507.277906 55.131002 
L 510.204778 52.138413 
L 511.668214 50.848566 
L 513.13165 49.757944 
L 514.595086 48.889685 
L 516.058522 48.278327 
L 517.521958 47.967802 
L 518.985394 47.973142 
L 520.44883 48.292426 
L 521.912266 48.921937 
L 523.375702 49.847026 
L 524.839138 51.044315 
L 526.302574 52.483641 
L 529.229446 55.923176 
L 533.619754 61.83991 
L 538.010062 67.783247 
L 540.936934 71.384438 
L 543.863806 74.546094 
L 546.790677 77.222272 
L 549.717549 79.416296 
L 552.644421 81.154933 
L 555.571293 82.483359 
L 558.498165 83.451422 
L 561.425037 84.10606 
L 564.351909 84.493805 
L 567.278781 84.652786 
L 570.205653 84.598892 
L 573.132525 84.34743 
L 576.059397 83.916467 
L 578.986269 83.317826 
L 581.913141 82.535609 
L 584.840013 81.552724 
L 587.766884 80.348786 
L 590.693756 78.898906 
L 593.620628 77.164833 
L 596.5475 75.109396 
L 599.474372 72.70978 
L 602.401244 69.955739 
L 605.328116 66.851882 
L 608.254988 63.402833 
L 614.108732 55.91165 
L 617.035604 52.280811 
L 619.962476 49.119428 
L 621.425912 47.837376 
L 622.889348 46.811559 
L 624.352784 46.094496 
L 625.816219 45.72198 
L 627.279655 45.714159 
L 628.743091 46.081549 
L 630.206527 46.829601 
L 631.669963 47.957016 
L 633.133399 49.437658 
L 634.596835 51.227918 
L 636.060271 53.278368 
L 638.987143 57.933848 
L 646.304323 70.136211 
L 649.231195 74.404915 
L 652.158067 78.092841 
L 655.084939 81.184638 
L 658.011811 83.703045 
L 660.938683 85.710315 
L 663.865555 87.282717 
L 666.792426 88.493656 
L 669.719298 89.421714 
L 672.64617 90.133174 
L 677.036478 90.898629 
L 681.426786 91.43085 
L 688.743966 92.058805 
L 700.451454 93.026183 
L 706.305197 93.718715 
L 710.695505 94.419091 
L 715.085813 95.339619 
L 718.012685 96.118334 
L 720.939557 97.06479 
L 723.866429 98.214677 
L 726.793301 99.610947 
L 729.720173 101.30385 
L 732.647045 103.349258 
L 735.573917 105.802328 
L 738.500789 108.726763 
L 741.427661 112.162447 
L 744.354532 116.120538 
L 747.281404 120.56948 
L 751.671712 127.816094 
L 754.598584 132.678387 
L 757.525456 137.087018 
L 758.988892 138.936202 
L 760.452328 140.405871 
L 761.915764 141.405818 
L 763.3792 141.896268 
L 764.842636 141.844899 
L 766.306072 141.234002 
L 767.769508 140.060481 
L 769.232944 138.337941 
L 770.69638 136.124597 
L 772.159816 133.507882 
L 775.086688 127.431707 
L 782.403868 111.354494 
L 785.330739 105.810723 
L 788.257611 101.070147 
L 789.721047 99.004267 
L 791.184483 97.134042 
L 792.647919 95.448765 
L 795.574791 92.573319 
L 798.501663 90.267331 
L 801.428535 88.418345 
L 804.355407 86.905459 
L 807.282279 85.621372 
L 811.672587 83.950906 
L 813.136023 83.423293 
L 813.136023 83.423293 
" clip-path="url(#p9a8782293d)" style="fill: none; stroke: #000000; stroke-opacity: 0.4; stroke-width: 6; stroke-linecap: round"/>
   </g>
   <g id="line2d_20">
    <path d="M 82.881477 60.435644 
L 87.271785 60.533193 
L 91.662093 60.817897 
L 96.052401 61.279587 
L 101.906145 62.150887 
L 107.759889 63.278522 
L 115.077068 64.959007 
L 139.95548 70.989656 
L 147.27266 72.381418 
L 154.589839 73.507844 
L 161.907019 74.380236 
L 169.224199 75.029881 
L 178.004815 75.571361 
L 188.248867 75.961106 
L 201.41979 76.219263 
L 221.907894 76.361479 
L 287.762512 76.670455 
L 298.006564 77.00829 
L 306.78718 77.522291 
L 314.104359 78.180825 
L 319.958103 78.905163 
L 325.811847 79.843735 
L 331.665591 81.029347 
L 337.519335 82.483296 
L 343.373079 84.201185 
L 350.690258 86.635574 
L 360.93431 90.068773 
L 365.324618 91.273382 
L 368.25149 91.902308 
L 371.178362 92.358298 
L 374.105234 92.622941 
L 377.032106 92.691657 
L 379.958978 92.576855 
L 384.349286 92.132723 
L 394.593337 90.828447 
L 397.520209 90.658337 
L 400.447081 90.640895 
L 404.837389 90.862516 
L 413.618005 91.479456 
L 418.008313 91.489136 
L 431.179236 91.057233 
L 444.35016 91.28488 
L 453.130776 91.153969 
L 463.374828 91.247631 
L 472.155443 91.201291 
L 480.936059 91.216968 
L 491.180111 91.233095 
L 540.936934 91.21516 
L 617.035604 91.217 
L 813.136023 91.217138 
L 813.136023 91.217138 
" clip-path="url(#p9a8782293d)" style="fill: none; stroke-dasharray: 22.4,5.6,3.5,5.6; stroke-dashoffset: 0; stroke: #0000ff; stroke-opacity: 0.8; stroke-width: 3.5"/>
   </g>
   <g id="patch_3">
    <path d="M 46.36875 150.956034 
L 46.36875 38.68 
" style="fill: none; stroke: #cccccc; stroke-linejoin: miter; stroke-linecap: square"/>
   </g>
   <g id="patch_4">
    <path d="M 849.64875 150.956034 
L 849.64875 38.68 
" style="fill: none; stroke: #cccccc; stroke-linejoin: miter; stroke-linecap: square"/>
   </g>
   <g id="patch_5">
    <path d="M 46.36875 150.956034 
L 849.64875 150.956034 
" style="fill: none; stroke: #cccccc; stroke-linejoin: miter; stroke-linecap: square"/>
   </g>
   <g id="patch_6">
    <path d="M 46.36875 38.68 
L 849.64875 38.68 
" style="fill: none; stroke: #cccccc; stroke-linejoin: miter; stroke-linecap: square"/>
   </g>
   <g id="line2d_21">
    <path d="M 82.881477 60.435644 
L 84.344913 60.308832 
L 85.808349 60.004393 
L 88.735221 59.027649 
L 91.662093 57.77857 
L 98.979273 54.327965 
L 100.442709 53.837092 
L 101.906145 53.485759 
L 103.369581 53.271378 
L 104.833017 53.192611 
L 106.296453 53.25795 
L 107.759889 53.477623 
L 109.223325 53.858916 
L 110.686761 54.398293 
L 112.150197 55.085212 
L 115.077068 56.850883 
L 118.00394 59.052912 
L 122.394248 62.863186 
L 128.247992 67.987583 
L 131.174864 70.289618 
L 134.101736 72.319907 
L 137.028608 74.017829 
L 139.95548 75.360948 
L 142.882352 76.376637 
L 145.809224 77.104964 
L 148.736096 77.559757 
L 151.662968 77.729424 
L 154.589839 77.60564 
L 157.516711 77.200197 
L 160.443583 76.536623 
L 163.370455 75.635146 
L 166.297327 74.506349 
L 169.224199 73.152508 
L 172.151071 71.572231 
L 175.077943 69.75918 
L 178.004815 67.706185 
L 182.395123 64.243554 
L 188.248867 59.559463 
L 192.639174 56.253355 
L 194.10261 55.253747 
L 195.566046 54.392802 
L 197.029482 53.702145 
L 198.492918 53.179251 
L 199.956354 52.813587 
L 201.41979 52.608211 
L 202.883226 52.583756 
L 204.346662 52.759944 
L 205.810098 53.144131 
L 207.273534 53.722267 
L 208.73697 54.477242 
L 210.200406 55.389273 
L 213.127278 57.623262 
L 216.05415 60.281963 
L 224.834766 68.768676 
L 227.761638 71.241254 
L 230.68851 73.406042 
L 233.615381 75.208216 
L 236.542253 76.628614 
L 239.469125 77.705229 
L 242.395997 78.482734 
L 245.322869 78.971709 
L 248.249741 79.161353 
L 251.176613 79.056009 
L 254.103485 78.683804 
L 257.030357 78.078184 
L 259.957229 77.258609 
L 262.884101 76.226706 
L 265.810973 74.972754 
L 268.737845 73.486385 
L 271.664716 71.759782 
L 274.591588 69.775215 
L 277.51846 67.502844 
L 280.445332 64.933554 
L 287.762512 58.226572 
L 292.15282 54.571148 
L 293.616256 53.516458 
L 295.079692 52.65032 
L 296.543128 51.974454 
L 298.006564 51.468181 
L 299.47 51.134654 
L 300.933436 51.011102 
L 302.396872 51.135696 
L 303.860308 51.515047 
L 305.323744 52.135282 
L 306.78718 52.968216 
L 308.250616 53.988296 
L 309.714052 55.176472 
L 312.640923 57.981862 
L 317.031231 62.83466 
L 321.421539 67.70094 
L 324.348411 70.638701 
L 327.275283 73.242638 
L 330.202155 75.471294 
L 333.129027 77.283371 
L 336.055899 78.691332 
L 338.982771 79.753553 
L 341.909643 80.507035 
L 344.836515 80.950511 
L 347.763387 81.089783 
L 350.690258 80.961097 
L 353.61713 80.613948 
L 356.544002 80.080036 
L 359.470874 79.361134 
L 362.397746 78.435057 
L 365.324618 77.270627 
L 368.25149 75.844465 
L 371.178362 74.149041 
L 374.105234 72.19158 
L 377.032106 69.969911 
L 379.958978 67.450648 
L 382.88585 64.576018 
L 391.666465 55.247226 
L 394.593337 52.474085 
L 396.056773 51.31516 
L 397.520209 50.388806 
L 398.983645 49.656043 
L 400.447081 49.113444 
L 401.910517 48.818166 
L 403.373953 48.831554 
L 404.837389 49.165397 
L 406.300825 49.805702 
L 407.764261 50.719607 
L 409.227697 51.873486 
L 410.691133 53.242835 
L 413.618005 56.528139 
L 416.544877 60.279633 
L 422.398621 68.013931 
L 425.325493 71.506154 
L 428.252365 74.56374 
L 431.179236 77.178896 
L 434.106108 79.324269 
L 437.03298 81.012876 
L 439.959852 82.317322 
L 442.886724 83.290756 
L 445.813596 83.94433 
L 448.740468 84.300649 
L 451.66734 84.419038 
L 454.594212 84.362019 
L 457.521084 84.157606 
L 460.447956 83.79201 
L 463.374828 83.230312 
L 466.3017 82.443699 
L 469.228571 81.415363 
L 472.155443 80.13265 
L 475.082315 78.577166 
L 478.009187 76.726361 
L 480.936059 74.562915 
L 483.862931 72.073304 
L 486.789803 69.241914 
L 489.716675 66.096799 
L 492.643547 62.704393 
L 495.570419 58.967065 
L 498.497291 55.107451 
L 502.887599 49.912093 
L 504.351035 48.464452 
L 505.814471 47.304992 
L 507.277906 46.366386 
L 508.741342 45.717438 
L 510.204778 45.452683 
L 511.668214 45.579403 
L 513.13165 46.09329 
L 514.595086 46.998064 
L 516.058522 48.266392 
L 517.521958 49.855164 
L 518.985394 51.732459 
L 521.912266 56.123026 
L 532.156318 72.493607 
L 535.08319 76.352125 
L 538.010062 79.609124 
L 540.936934 82.324212 
L 543.863806 84.509423 
L 546.790677 86.242147 
L 549.717549 87.615123 
L 552.644421 88.672968 
L 555.571293 89.455185 
L 559.961601 90.275415 
L 565.815345 91.041237 
L 570.205653 91.423545 
L 577.522833 91.772152 
L 584.840013 92.15587 
L 592.157192 92.786049 
L 599.474372 93.645595 
L 603.86468 94.328059 
L 608.254988 95.217967 
L 612.645296 96.399636 
L 615.572168 97.401413 
L 618.49904 98.626428 
L 621.425912 100.139906 
L 624.352784 102.022826 
L 627.279655 104.34606 
L 630.206527 107.150374 
L 633.133399 110.508153 
L 636.060271 114.492084 
L 638.987143 119.017572 
L 641.914015 124.2361 
L 649.231195 138.180923 
L 650.694631 140.611823 
L 652.158067 142.666347 
L 653.621503 144.312996 
L 655.084939 145.406578 
L 656.548375 145.852578 
L 658.011811 145.603469 
L 659.475247 144.705917 
L 660.938683 143.088321 
L 662.402119 140.808269 
L 663.865555 137.970784 
L 666.792426 131.246038 
L 669.719298 123.566771 
L 672.64617 115.716849 
L 675.573042 108.821343 
L 678.499914 102.470112 
L 679.96335 99.68942 
L 681.426786 97.24433 
L 682.890222 95.07888 
L 685.817094 91.30319 
L 688.743966 88.10914 
L 690.207402 86.744301 
L 693.134274 84.469973 
L 696.061146 82.674692 
L 700.451454 80.449128 
L 710.695505 75.489153 
L 715.085813 73.100852 
L 719.476121 70.420784 
L 723.866429 67.400258 
L 738.500789 56.801213 
L 739.964225 55.912796 
L 741.427661 55.158774 
L 742.891097 54.563688 
L 744.354532 54.124368 
L 745.817968 53.833387 
L 747.281404 53.691201 
L 748.74484 53.708506 
L 750.208276 53.895813 
L 751.671712 54.258967 
L 753.135148 54.788664 
L 754.598584 55.471402 
L 757.525456 57.241209 
L 760.452328 59.456389 
L 764.842636 63.280904 
L 769.232944 67.164195 
L 772.159816 69.559994 
L 775.086688 71.709949 
L 778.01356 73.550139 
L 780.940432 75.037267 
L 783.867303 76.181499 
L 786.794175 77.024414 
L 789.721047 77.592552 
L 792.647919 77.881795 
L 795.574791 77.877412 
L 798.501663 77.58644 
L 801.428535 77.029512 
L 804.355407 76.230472 
L 807.282279 75.203545 
L 810.209151 73.952314 
L 813.136023 72.475479 
L 813.136023 72.475479 
" clip-path="url(#p9a8782293d)" style="fill: none; stroke-dasharray: 3.5,5.775; stroke-dashoffset: 0; stroke: #008000; stroke-opacity: 0.8; stroke-width: 3.5"/>
   </g>
   <g id="line2d_22">
    <path d="M 82.881477 60.435644 
L 84.344913 60.336888 
L 85.808349 60.058102 
L 87.271785 59.632206 
L 90.198657 58.460861 
L 98.979273 54.381845 
L 101.906145 53.498445 
L 103.369581 53.247825 
L 104.833017 53.14628 
L 106.296453 53.202049 
L 107.759889 53.420522 
L 109.223325 53.804283 
L 110.686761 54.347402 
L 112.150197 55.042965 
L 115.077068 56.84332 
L 118.00394 59.072517 
L 122.394248 62.862725 
L 128.247992 67.937083 
L 131.174864 70.219766 
L 134.101736 72.231311 
L 137.028608 73.925398 
L 139.95548 75.28497 
L 142.882352 76.315005 
L 145.809224 77.035722 
L 148.736096 77.468413 
L 151.662968 77.628717 
L 154.589839 77.526225 
L 157.516711 77.16779 
L 160.443583 76.559253 
L 163.370455 75.705681 
L 166.297327 74.610213 
L 169.224199 73.273785 
L 172.151071 71.69794 
L 175.077943 69.886243 
L 178.004815 67.850553 
L 182.395123 64.437904 
L 191.175739 57.244162 
L 194.10261 55.191841 
L 195.566046 54.319905 
L 197.029482 53.582167 
L 198.492918 53.000967 
L 199.956354 52.594667 
L 201.41979 52.377868 
L 202.883226 52.358353 
L 204.346662 52.541175 
L 205.810098 52.928318 
L 207.273534 53.511542 
L 208.73697 54.281726 
L 210.200406 55.223718 
L 213.127278 57.537089 
L 216.05415 60.256847 
L 224.834766 68.861456 
L 227.761638 71.383083 
L 230.68851 73.58603 
L 233.615381 75.42972 
L 236.542253 76.903451 
L 239.469125 78.023095 
L 242.395997 78.817526 
L 245.322869 79.313778 
L 248.249741 79.530822 
L 251.176613 79.481847 
L 254.103485 79.177915 
L 257.030357 78.629207 
L 259.957229 77.842643 
L 262.884101 76.820305 
L 265.810973 75.558745 
L 268.737845 74.050213 
L 271.664716 72.287362 
L 274.591588 70.265748 
L 277.51846 67.99059 
L 280.445332 65.483026 
L 284.83564 61.396958 
L 290.689384 55.940386 
L 293.616256 53.593523 
L 295.079692 52.606504 
L 296.543128 51.783876 
L 298.006564 51.152217 
L 299.47 50.734091 
L 300.933436 50.545159 
L 302.396872 50.597388 
L 303.860308 50.896058 
L 305.323744 51.440529 
L 306.78718 52.221622 
L 308.250616 53.223048 
L 309.714052 54.421756 
L 312.640923 57.294697 
L 315.567795 60.582613 
L 321.421539 67.383407 
L 324.348411 70.506322 
L 327.275283 73.290658 
L 330.202155 75.679524 
L 333.129027 77.648383 
L 336.055899 79.20608 
L 338.982771 80.387154 
L 341.909643 81.233019 
L 344.836515 81.777423 
L 347.763387 82.044881 
L 350.690258 82.055971 
L 353.61713 81.830523 
L 356.544002 81.384734 
L 359.470874 80.727516 
L 362.397746 79.857779 
L 365.324618 78.764806 
L 368.25149 77.431285 
L 371.178362 75.83608 
L 374.105234 73.958279 
L 377.032106 71.781151 
L 379.958978 69.297625 
L 382.88585 66.518244 
L 385.812722 63.478843 
L 396.056773 52.406919 
L 397.520209 51.116962 
L 398.983645 50.00508 
L 400.447081 49.110253 
L 401.910517 48.466287 
L 403.373953 48.098911 
L 404.837389 48.030192 
L 406.300825 48.273483 
L 407.764261 48.832002 
L 409.227697 49.696648 
L 410.691133 50.846769 
L 412.154569 52.253376 
L 413.618005 53.878755 
L 416.544877 57.619232 
L 425.325493 69.76482 
L 428.252365 73.288895 
L 431.179236 76.348489 
L 434.106108 78.913797 
L 437.03298 80.991197 
L 439.959852 82.622235 
L 442.886724 83.867065 
L 445.813596 84.781795 
L 448.740468 85.409917 
L 451.66734 85.787915 
L 454.594212 85.951045 
L 457.521084 85.931672 
L 460.447956 85.753201 
L 464.838264 85.206418 
L 467.765135 84.6494 
L 470.692007 83.923362 
L 473.618879 83.010304 
L 476.545751 81.888809 
L 479.472623 80.532248 
L 482.399495 78.909834 
L 485.326367 76.984037 
L 488.253239 74.715453 
L 491.180111 72.065268 
L 494.106983 69.005065 
L 497.033855 65.531235 
L 499.960727 61.691282 
L 508.741342 49.567211 
L 510.204778 47.850667 
L 511.668214 46.362425 
L 513.13165 45.162447 
L 514.595086 44.30315 
L 516.058522 43.831345 
L 517.521958 43.783456 
L 518.985394 44.177819 
L 520.44883 45.013773 
L 521.912266 46.27032 
L 523.375702 47.913341 
L 524.839138 49.892027 
L 526.302574 52.146978 
L 529.229446 57.220975 
L 535.08319 67.912505 
L 538.010062 72.782196 
L 540.936934 77.05611 
L 543.863806 80.684067 
L 546.790677 83.679133 
L 549.717549 86.093465 
L 552.644421 88.01184 
L 555.571293 89.531691 
L 558.498165 90.738184 
L 561.425037 91.700187 
L 565.815345 92.818637 
L 571.669089 94.002195 
L 580.449705 95.777744 
L 584.840013 96.86165 
L 589.23032 98.203127 
L 592.157192 99.299249 
L 595.084064 100.60285 
L 598.010936 102.156906 
L 600.937808 104.007477 
L 603.86468 106.202818 
L 606.791552 108.790181 
L 609.718424 111.808875 
L 612.645296 115.278897 
L 615.572168 119.182669 
L 618.49904 123.453799 
L 624.352784 132.298203 
L 625.816219 134.319753 
L 627.279655 136.145772 
L 628.743091 137.710478 
L 630.206527 138.946778 
L 631.669963 139.789739 
L 633.133399 140.190762 
L 634.596835 140.114491 
L 636.060271 139.542653 
L 637.523707 138.479657 
L 638.987143 136.953498 
L 640.450579 135.01211 
L 641.914015 132.718374 
L 644.840887 127.367682 
L 652.158067 112.898175 
L 655.084939 107.775247 
L 658.011811 103.3336 
L 660.938683 99.614573 
L 663.865555 96.571804 
L 666.792426 94.114168 
L 669.719298 92.146894 
L 672.64617 90.576966 
L 675.573042 89.308733 
L 679.96335 87.774679 
L 685.817094 86.058008 
L 693.134274 83.906357 
L 697.524582 82.356845 
L 700.451454 81.127907 
L 703.378326 79.695004 
L 706.305197 78.018267 
L 709.232069 76.059076 
L 712.158941 73.780301 
L 715.085813 71.151438 
L 718.012685 68.157931 
L 720.939557 64.815477 
L 725.329865 59.292129 
L 731.183609 51.80241 
L 732.647045 50.137584 
L 734.110481 48.645884 
L 735.573917 47.380414 
L 737.037353 46.389754 
L 738.500789 45.71717 
L 739.964225 45.397516 
L 741.427661 45.460014 
L 742.891097 45.914688 
L 744.354532 46.758572 
L 745.817968 47.969676 
L 747.281404 49.515342 
L 748.74484 51.350394 
L 751.671712 55.67668 
L 756.06202 62.969274 
L 758.988892 67.786457 
L 761.915764 72.226903 
L 764.842636 76.138054 
L 767.769508 79.468616 
L 770.69638 82.220106 
L 773.623252 84.431952 
L 776.550124 86.176788 
L 779.476996 87.537642 
L 782.403868 88.585929 
L 785.330739 89.379039 
L 788.257611 89.969049 
L 792.647919 90.582865 
L 798.501663 91.101408 
L 805.818843 91.493939 
L 813.136023 91.763149 
L 813.136023 91.763149 
" clip-path="url(#p9a8782293d)" style="fill: none; stroke-dasharray: 12.95,5.6; stroke-dashoffset: 0; stroke: #ff0000; stroke-opacity: 0.8; stroke-width: 3.5"/>
   </g>
  </g>
  <g id="axes_2">
   <g id="patch_7">
    <path d="M 46.36875 274.308017 
L 849.64875 274.308017 
L 849.64875 162.031983 
L 46.36875 162.031983 
z
" style="fill: #ffffff"/>
   </g>
   <g id="matplotlib.axis_3">
    <g id="xtick_7">
     <g id="line2d_23">
      <path d="M 82.881477 274.308017 
L 82.881477 162.031983 
" clip-path="url(#p4ccf086e1d)" style="fill: none; stroke: #cccccc; stroke-width: 0.8; stroke-linecap: round"/>
     </g>
     <g id="line2d_24"/>
    </g>
    <g id="xtick_8">
     <g id="line2d_25">
      <path d="M 228.932386 274.308017 
L 228.932386 162.031983 
" clip-path="url(#p4ccf086e1d)" style="fill: none; stroke: #cccccc; stroke-width: 0.8; stroke-linecap: round"/>
     </g>
     <g id="line2d_26"/>
    </g>
    <g id="xtick_9">
     <g id="line2d_27">
      <path d="M 374.983295 274.308017 
L 374.983295 162.031983 
" clip-path="url(#p4ccf086e1d)" style="fill: none; stroke: #cccccc; stroke-width: 0.8; stroke-linecap: round"/>
     </g>
     <g id="line2d_28"/>
    </g>
    <g id="xtick_10">
     <g id="line2d_29">
      <path d="M 521.034205 274.308017 
L 521.034205 162.031983 
" clip-path="url(#p4ccf086e1d)" style="fill: none; stroke: #cccccc; stroke-width: 0.8; stroke-linecap: round"/>
     </g>
     <g id="line2d_30"/>
    </g>
    <g id="xtick_11">
     <g id="line2d_31">
      <path d="M 667.085114 274.308017 
L 667.085114 162.031983 
" clip-path="url(#p4ccf086e1d)" style="fill: none; stroke: #cccccc; stroke-width: 0.8; stroke-linecap: round"/>
     </g>
     <g id="line2d_32"/>
    </g>
    <g id="xtick_12">
     <g id="line2d_33">
      <path d="M 813.136023 274.308017 
L 813.136023 162.031983 
" clip-path="url(#p4ccf086e1d)" style="fill: none; stroke: #cccccc; stroke-width: 0.8; stroke-linecap: round"/>
     </g>
     <g id="line2d_34"/>
    </g>
   </g>
   <g id="matplotlib.axis_4">
    <g id="ytick_4">
     <g id="line2d_35">
      <path d="M 46.36875 260.562052 
L 849.64875 260.562052 
" clip-path="url(#p4ccf086e1d)" style="fill: none; stroke: #cccccc; stroke-width: 0.8; stroke-linecap: round"/>
     </g>
     <g id="line2d_36"/>
     <g id="text_5">
      <!-- −20 -->
      <g style="fill: #262626" transform="translate(25.90625 264.140958) scale(0.1 -0.1)">
       <defs>
        <path id="ArialMT-32" d="M 3222 541 
L 3222 0 
L 194 0 
Q 188 203 259 391 
Q 375 700 629 1000 
Q 884 1300 1366 1694 
Q 2113 2306 2375 2664 
Q 2638 3022 2638 3341 
Q 2638 3675 2398 3904 
Q 2159 4134 1775 4134 
Q 1369 4134 1125 3890 
Q 881 3647 878 3216 
L 300 3275 
Q 359 3922 746 4261 
Q 1134 4600 1788 4600 
Q 2447 4600 2831 4234 
Q 3216 3869 3216 3328 
Q 3216 3053 3103 2787 
Q 2991 2522 2730 2228 
Q 2469 1934 1863 1422 
Q 1356 997 1212 845 
Q 1069 694 975 541 
L 3222 541 
z
" transform="scale(0.015625)"/>
       </defs>
       <use xlink:href="#ArialMT-2212"/>
       <use xlink:href="#ArialMT-32" transform="translate(58.398438 0)"/>
       <use xlink:href="#ArialMT-30" transform="translate(114.013672 0)"/>
      </g>
     </g>
    </g>
    <g id="ytick_5">
     <g id="line2d_37">
      <path d="M 46.36875 236.883207 
L 849.64875 236.883207 
" clip-path="url(#p4ccf086e1d)" style="fill: none; stroke: #cccccc; stroke-width: 0.8; stroke-linecap: round"/>
     </g>
     <g id="line2d_38"/>
     <g id="text_6">
      <!-- −10 -->
      <g style="fill: #262626" transform="translate(25.90625 240.462113) scale(0.1 -0.1)">
       <use xlink:href="#ArialMT-2212"/>
       <use xlink:href="#ArialMT-31" transform="translate(58.398438 0)"/>
       <use xlink:href="#ArialMT-30" transform="translate(114.013672 0)"/>
      </g>
     </g>
    </g>
    <g id="ytick_6">
     <g id="line2d_39">
      <path d="M 46.36875 213.204362 
L 849.64875 213.204362 
" clip-path="url(#p4ccf086e1d)" style="fill: none; stroke: #cccccc; stroke-width: 0.8; stroke-linecap: round"/>
     </g>
     <g id="line2d_40"/>
     <g id="text_7">
      <!-- 0 -->
      <g style="fill: #262626" transform="translate(37.307813 216.783268) scale(0.1 -0.1)">
       <use xlink:href="#ArialMT-30"/>
      </g>
     </g>
    </g>
    <g id="ytick_7">
     <g id="line2d_41">
      <path d="M 46.36875 189.525517 
L 849.64875 189.525517 
" clip-path="url(#p4ccf086e1d)" style="fill: none; stroke: #cccccc; stroke-width: 0.8; stroke-linecap: round"/>
     </g>
     <g id="line2d_42"/>
     <g id="text_8">
      <!-- 10 -->
      <g style="fill: #262626" transform="translate(31.746875 193.104423) scale(0.1 -0.1)">
       <use xlink:href="#ArialMT-31"/>
       <use xlink:href="#ArialMT-30" transform="translate(55.615234 0)"/>
      </g>
     </g>
    </g>
    <g id="ytick_8">
     <g id="line2d_43">
      <path d="M 46.36875 165.846672 
L 849.64875 165.846672 
" clip-path="url(#p4ccf086e1d)" style="fill: none; stroke: #cccccc; stroke-width: 0.8; stroke-linecap: round"/>
     </g>
     <g id="line2d_44"/>
     <g id="text_9">
      <!-- 20 -->
      <g style="fill: #262626" transform="translate(31.746875 169.425578) scale(0.1 -0.1)">
       <use xlink:href="#ArialMT-32"/>
       <use xlink:href="#ArialMT-30" transform="translate(55.615234 0)"/>
      </g>
     </g>
    </g>
    <g id="text_10">
     <!-- $x1$ -->
     <g style="fill: #262626" transform="translate(19.91875 224.32) rotate(-90) scale(0.1 -0.1)">
      <defs>
       <path id="DejaVuSans-31" d="M 794 531 
L 1825 531 
L 1825 4091 
L 703 3866 
L 703 4441 
L 1819 4666 
L 2450 4666 
L 2450 531 
L 3481 531 
L 3481 0 
L 794 0 
L 794 531 
z
" transform="scale(0.015625)"/>
      </defs>
      <use xlink:href="#DejaVuSans-Oblique-78" transform="translate(0 0.09375)"/>
      <use xlink:href="#DejaVuSans-31" transform="translate(59.179688 0.09375)"/>
     </g>
    </g>
   </g>
   <g id="line2d_45">
    <path d="M 82.881477 189.525517 
L 85.808349 186.390218 
L 87.271785 184.998226 
L 88.735221 183.764331 
L 90.198657 182.725653 
L 91.662093 181.883817 
L 93.125529 181.21811 
L 94.588965 180.723822 
L 96.052401 180.412913 
L 97.515837 180.314012 
L 98.979273 180.485801 
L 100.442709 180.943068 
L 101.906145 181.631175 
L 103.369581 182.506612 
L 104.833017 183.538325 
L 106.296453 184.713925 
L 107.759889 186.051665 
L 110.686761 189.167453 
L 119.467376 199.335728 
L 122.394248 202.057228 
L 125.32112 204.238133 
L 126.784556 205.12636 
L 128.247992 205.873081 
L 129.711428 206.468694 
L 131.174864 206.930078 
L 134.101736 207.510168 
L 137.028608 207.716746 
L 139.95548 207.626595 
L 142.882352 207.29489 
L 145.809224 206.776569 
L 150.199532 205.738177 
L 154.589839 204.43939 
L 158.980147 202.830021 
L 161.907019 201.543558 
L 164.833891 200.05881 
L 167.760763 198.352305 
L 170.687635 196.413528 
L 173.614507 194.211129 
L 176.541379 191.721011 
L 179.468251 188.934858 
L 183.858559 184.299011 
L 188.248867 179.710468 
L 191.175739 176.983318 
L 192.639174 175.856835 
L 194.10261 175.029117 
L 195.566046 174.56998 
L 197.029482 174.50908 
L 198.492918 174.827007 
L 199.956354 175.49746 
L 201.41979 176.535316 
L 202.883226 177.95243 
L 204.346662 179.756349 
L 205.810098 181.917332 
L 208.73697 186.83208 
L 213.127278 194.388044 
L 216.05415 198.903806 
L 217.517586 200.910188 
L 218.981022 202.724823 
L 220.444458 204.341631 
L 221.907894 205.737852 
L 223.37133 206.906797 
L 224.834766 207.8568 
L 226.298202 208.604296 
L 227.761638 209.173824 
L 229.225074 209.598023 
L 230.68851 209.898859 
L 233.615381 210.1697 
L 236.542253 210.105016 
L 239.469125 209.804474 
L 243.859433 209.061701 
L 248.249741 208.089445 
L 252.640049 206.908201 
L 257.030357 205.481502 
L 261.420665 203.774282 
L 264.347537 202.443288 
L 267.274409 200.930534 
L 270.201281 199.215403 
L 273.128152 197.277439 
L 276.055024 195.097584 
L 278.981896 192.661884 
L 281.908768 189.941764 
L 284.83564 186.923131 
L 292.15282 178.862695 
L 293.616256 177.510447 
L 295.079692 176.361241 
L 296.543128 175.457451 
L 298.006564 174.799312 
L 299.47 174.364894 
L 300.933436 174.206651 
L 302.396872 174.458421 
L 303.860308 175.096282 
L 305.323744 176.08294 
L 306.78718 177.473453 
L 308.250616 179.233803 
L 311.177487 183.450597 
L 314.104359 188.270841 
L 318.494667 195.559673 
L 321.421539 199.86122 
L 322.884975 201.747751 
L 324.348411 203.443333 
L 325.811847 204.947148 
L 327.275283 206.231882 
L 328.738719 207.29494 
L 330.202155 208.146926 
L 331.665591 208.806237 
L 333.129027 209.299063 
L 334.592463 209.65927 
L 337.519335 210.041169 
L 340.446207 210.05762 
L 343.373079 209.815083 
L 347.763387 209.123458 
L 352.153694 208.181388 
L 356.544002 207.031803 
L 360.93431 205.637034 
L 365.324618 203.965761 
L 368.25149 202.665065 
L 371.178362 201.186441 
L 374.105234 199.510264 
L 377.032106 197.61593 
L 379.958978 195.483936 
L 382.88585 193.098438 
L 385.812722 190.433516 
L 388.739594 187.468469 
L 393.129901 182.55281 
L 396.056773 179.357883 
L 397.520209 177.951958 
L 398.983645 176.728734 
L 400.447081 175.715855 
L 401.910517 174.929896 
L 403.373953 174.381365 
L 404.837389 174.146011 
L 406.300825 174.302897 
L 407.764261 174.905963 
L 409.227697 175.984021 
L 410.691133 177.540122 
L 412.154569 179.51765 
L 415.081441 184.290877 
L 422.398621 197.105927 
L 425.325493 201.397587 
L 426.788929 203.236011 
L 428.252365 204.853173 
L 429.7158 206.238529 
L 431.179236 207.391685 
L 432.642672 208.322125 
L 434.106108 209.047501 
L 435.569544 209.593636 
L 437.03298 209.994527 
L 438.496416 210.27377 
L 441.423288 210.507974 
L 444.35016 210.418441 
L 447.277032 210.103599 
L 451.66734 209.356527 
L 456.057648 208.396622 
L 460.447956 207.237267 
L 464.838264 205.85221 
L 469.228571 204.200834 
L 472.155443 202.912639 
L 475.082315 201.447492 
L 478.009187 199.780059 
L 480.936059 197.887455 
L 483.862931 195.751661 
L 486.789803 193.36316 
L 489.716675 190.699714 
L 492.643547 187.743196 
L 497.033855 182.837202 
L 501.424163 177.876331 
L 502.887599 176.380724 
L 504.351035 175.058191 
L 505.814471 173.993619 
L 507.277906 173.220295 
L 508.741342 172.727942 
L 510.204778 172.600888 
L 511.668214 172.945969 
L 513.13165 173.743397 
L 514.595086 174.927819 
L 516.058522 176.599745 
L 517.521958 178.726214 
L 520.44883 183.841157 
L 527.76601 197.914286 
L 529.229446 200.351005 
L 530.692882 202.549091 
L 532.156318 204.490798 
L 533.619754 206.171264 
L 535.08319 207.596871 
L 536.546626 208.774254 
L 538.010062 209.716995 
L 539.473498 210.444283 
L 540.936934 210.980183 
L 542.40037 211.353639 
L 545.327242 211.733505 
L 548.254113 211.742169 
L 551.180985 211.50103 
L 555.571293 210.85666 
L 561.425037 209.713928 
L 567.278781 208.320898 
L 571.669089 207.087639 
L 576.059397 205.63044 
L 578.986269 204.47956 
L 581.913141 203.147588 
L 584.840013 201.59478 
L 587.766884 199.775337 
L 590.693756 197.637844 
L 593.620628 195.141475 
L 596.5475 192.280281 
L 599.474372 189.082112 
L 602.401244 185.606711 
L 606.791552 179.924342 
L 609.718424 176.150634 
L 611.18186 174.442612 
L 612.645296 172.909452 
L 614.108732 171.605038 
L 615.572168 170.631893 
L 617.035604 169.999342 
L 618.49904 169.767833 
L 619.962476 170.090488 
L 621.425912 170.907152 
L 622.889348 172.292549 
L 624.352784 174.275331 
L 625.816219 176.716511 
L 627.279655 179.562215 
L 628.743091 182.775704 
L 631.669963 189.961612 
L 634.596835 197.2628 
L 636.060271 200.641237 
L 637.523707 203.712762 
L 638.987143 206.410142 
L 640.450579 208.701769 
L 641.914015 210.617784 
L 643.377451 212.183854 
L 644.840887 213.428964 
L 646.304323 214.386582 
L 647.767759 215.094649 
L 649.231195 215.593805 
L 650.694631 215.922464 
L 653.621503 216.200921 
L 656.548375 216.151119 
L 660.938683 215.779251 
L 669.719298 214.936769 
L 675.573042 214.613396 
L 681.426786 214.52203 
L 687.28053 214.644291 
L 693.134274 214.974428 
L 698.988018 215.541007 
L 703.378326 216.161268 
L 707.768633 216.998166 
L 712.158941 218.124787 
L 715.085813 219.086903 
L 718.012685 220.260908 
L 720.939557 221.693929 
L 723.866429 223.442381 
L 726.793301 225.562802 
L 729.720173 228.111216 
L 732.647045 231.140126 
L 735.573917 234.70094 
L 738.500789 238.845368 
L 741.427661 243.519312 
L 750.208276 258.28173 
L 751.671712 260.323366 
L 753.135148 262.071722 
L 754.598584 263.34572 
L 756.06202 263.944607 
L 757.525456 263.727544 
L 758.988892 262.612271 
L 760.452328 260.574838 
L 761.915764 257.62996 
L 763.3792 253.913214 
L 764.842636 249.587297 
L 767.769508 239.618807 
L 770.69638 229.091564 
L 772.159816 224.312664 
L 773.623252 220.034663 
L 775.086688 216.323838 
L 776.550124 213.198049 
L 778.01356 210.644891 
L 779.476996 208.627811 
L 780.940432 207.093885 
L 782.403868 205.974838 
L 783.867303 205.187042 
L 785.330739 204.654033 
L 786.794175 204.328894 
L 788.257611 204.16063 
L 791.184483 204.127373 
L 802.891971 204.633863 
L 805.818843 204.468809 
L 808.745715 204.108051 
L 811.672587 203.534353 
L 813.136023 203.165133 
L 813.136023 203.165133 
" clip-path="url(#p4ccf086e1d)" style="fill: none; stroke: #000000; stroke-opacity: 0.4; stroke-width: 6; stroke-linecap: round"/>
   </g>
   <g id="line2d_46">
    <path d="M 82.881477 189.525517 
L 88.735221 190.314639 
L 94.588965 191.30685 
L 101.906145 192.793205 
L 125.32112 197.871818 
L 132.6383 199.073998 
L 139.95548 199.99653 
L 147.27266 200.663641 
L 156.053275 201.192387 
L 166.297327 201.54229 
L 179.468251 201.74008 
L 202.883226 201.811311 
L 273.128152 201.938765 
L 286.299076 202.223593 
L 295.079692 202.605484 
L 302.396872 203.104784 
L 309.714052 203.827045 
L 315.567795 204.606675 
L 321.421539 205.599616 
L 327.275283 206.830693 
L 333.129027 208.307226 
L 338.982771 210.000353 
L 353.61713 214.381323 
L 358.007438 215.330248 
L 360.93431 215.750092 
L 363.861182 215.960875 
L 366.788054 215.94214 
L 369.714926 215.691161 
L 372.641798 215.22729 
L 377.032106 214.235717 
L 384.349286 212.459623 
L 387.276158 211.98374 
L 390.203029 211.762771 
L 393.129901 211.829844 
L 396.056773 212.164378 
L 400.447081 212.982439 
L 404.837389 213.776316 
L 407.764261 214.062272 
L 410.691133 214.059077 
L 413.618005 213.781776 
L 420.935185 212.736748 
L 423.862057 212.605355 
L 426.788929 212.754617 
L 435.569544 213.624944 
L 438.496416 213.537374 
L 447.277032 212.894995 
L 450.203904 213.043103 
L 456.057648 213.438125 
L 458.98452 213.361949 
L 464.838264 213.023755 
L 467.765135 213.092202 
L 473.618879 213.348483 
L 478.009187 213.171765 
L 480.936059 213.08834 
L 492.643547 213.160389 
L 497.033855 213.174183 
L 501.424163 213.266063 
L 508.741342 213.17587 
L 514.595086 213.223006 
L 518.985394 213.172328 
L 526.302574 213.195564 
L 532.156318 213.224221 
L 576.059397 213.204213 
L 603.86468 213.201609 
L 659.475247 213.2041 
L 813.136023 213.204362 
L 813.136023 213.204362 
" clip-path="url(#p4ccf086e1d)" style="fill: none; stroke-dasharray: 22.4,5.6,3.5,5.6; stroke-dashoffset: 0; stroke: #0000ff; stroke-opacity: 0.8; stroke-width: 3.5"/>
   </g>
   <g id="patch_8">
    <path d="M 46.36875 274.308017 
L 46.36875 162.031983 
" style="fill: none; stroke: #cccccc; stroke-linejoin: miter; stroke-linecap: square"/>
   </g>
   <g id="patch_9">
    <path d="M 849.64875 274.308017 
L 849.64875 162.031983 
" style="fill: none; stroke: #cccccc; stroke-linejoin: miter; stroke-linecap: square"/>
   </g>
   <g id="patch_10">
    <path d="M 46.36875 274.308017 
L 849.64875 274.308017 
" style="fill: none; stroke: #cccccc; stroke-linejoin: miter; stroke-linecap: square"/>
   </g>
   <g id="patch_11">
    <path d="M 46.36875 162.031983 
L 849.64875 162.031983 
" style="fill: none; stroke: #cccccc; stroke-linejoin: miter; stroke-linecap: square"/>
   </g>
   <g id="line2d_47">
    <path d="M 82.881477 189.525517 
L 85.808349 186.453858 
L 88.735221 183.937033 
L 90.198657 182.911442 
L 91.662093 182.052292 
L 93.125529 181.368503 
L 94.588965 180.870257 
L 96.052401 180.570904 
L 97.515837 180.493953 
L 98.979273 180.657201 
L 100.442709 181.074328 
L 101.906145 181.742518 
L 103.369581 182.640756 
L 104.833017 183.745198 
L 107.759889 186.456256 
L 110.686761 189.618694 
L 116.540504 196.187407 
L 119.467376 199.093626 
L 122.394248 201.50657 
L 123.857684 202.504992 
L 125.32112 203.363989 
L 126.784556 204.087336 
L 128.247992 204.679629 
L 129.711428 205.1464 
L 132.6383 205.726769 
L 135.565172 205.891752 
L 138.492044 205.734102 
L 141.418916 205.350259 
L 145.809224 204.479542 
L 150.199532 203.287634 
L 153.126403 202.298259 
L 156.053275 201.14608 
L 158.980147 199.82939 
L 161.907019 198.343428 
L 164.833891 196.676494 
L 167.760763 194.814273 
L 170.687635 192.757547 
L 175.077943 189.363996 
L 182.395123 183.528182 
L 185.321995 181.485846 
L 188.248867 179.868294 
L 189.712303 179.273591 
L 191.175739 178.849574 
L 192.639174 178.623438 
L 194.10261 178.628489 
L 195.566046 178.894827 
L 197.029482 179.437693 
L 198.492918 180.252704 
L 199.956354 181.321207 
L 201.41979 182.620836 
L 202.883226 184.122779 
L 205.810098 187.595912 
L 213.127278 196.981199 
L 216.05415 200.199172 
L 217.517586 201.579937 
L 218.981022 202.795509 
L 220.444458 203.845774 
L 221.907894 204.735499 
L 223.37133 205.473831 
L 224.834766 206.070197 
L 226.298202 206.533302 
L 227.761638 206.87124 
L 230.68851 207.206463 
L 233.615381 207.167076 
L 236.542253 206.865279 
L 240.932561 206.098672 
L 245.322869 205.023212 
L 248.249741 204.118386 
L 252.640049 202.469287 
L 257.030357 200.477956 
L 259.957229 198.949785 
L 262.884101 197.238328 
L 265.810973 195.316476 
L 268.737845 193.170827 
L 273.128152 189.56135 
L 283.372204 180.610723 
L 286.299076 178.554568 
L 287.762512 177.758964 
L 289.225948 177.156224 
L 290.689384 176.77338 
L 292.15282 176.648719 
L 293.616256 176.821036 
L 295.079692 177.3219 
L 296.543128 178.153169 
L 298.006564 179.295915 
L 299.47 180.728664 
L 300.933436 182.424868 
L 303.860308 186.451621 
L 311.177487 197.467599 
L 314.104359 201.192225 
L 315.567795 202.769276 
L 317.031231 204.141497 
L 318.494667 205.312021 
L 319.958103 206.290947 
L 321.421539 207.093237 
L 322.884975 207.735278 
L 324.348411 208.230933 
L 325.811847 208.592583 
L 328.738719 208.957571 
L 331.665591 208.934246 
L 334.592463 208.649899 
L 338.982771 207.937165 
L 343.373079 206.944719 
L 347.763387 205.636636 
L 352.153694 204.02601 
L 356.544002 202.12798 
L 359.470874 200.680544 
L 362.397746 199.05115 
L 365.324618 197.198177 
L 368.25149 195.080593 
L 371.178362 192.673868 
L 374.105234 189.995599 
L 378.495542 185.622304 
L 385.812722 178.191817 
L 387.276158 176.882851 
L 388.739594 175.743048 
L 390.203029 174.825376 
L 391.666465 174.168264 
L 393.129901 173.805988 
L 394.593337 173.788012 
L 396.056773 174.168063 
L 397.520209 174.96839 
L 398.983645 176.173609 
L 400.447081 177.761448 
L 401.910517 179.712923 
L 403.373953 181.996558 
L 406.300825 187.250173 
L 410.691133 195.510354 
L 413.618005 200.465086 
L 415.081441 202.617546 
L 416.544877 204.515981 
L 418.008313 206.152737 
L 419.471749 207.530852 
L 420.935185 208.664505 
L 422.398621 209.574811 
L 423.862057 210.288606 
L 425.325493 210.832123 
L 426.788929 211.227266 
L 428.252365 211.490965 
L 431.179236 211.684813 
L 434.106108 211.552651 
L 438.496416 211.043104 
L 442.886724 210.334706 
L 447.277032 209.412042 
L 453.130776 207.88945 
L 457.521084 206.557935 
L 461.911392 204.974174 
L 464.838264 203.708798 
L 467.765135 202.229693 
L 470.692007 200.499695 
L 473.618879 198.477513 
L 476.545751 196.110714 
L 479.472623 193.349875 
L 482.399495 190.18386 
L 485.326367 186.674745 
L 491.180111 179.102068 
L 494.106983 175.384142 
L 495.570419 173.669103 
L 497.033855 172.136561 
L 498.497291 170.878176 
L 499.960727 169.972494 
L 501.424163 169.468534 
L 502.887599 169.424771 
L 504.351035 169.924617 
L 505.814471 170.999953 
L 507.277906 172.62794 
L 508.741342 174.793705 
L 510.204778 177.469599 
L 511.668214 180.578303 
L 514.595086 187.593936 
L 518.985394 198.195328 
L 520.44883 201.346415 
L 521.912266 204.179402 
L 523.375702 206.672876 
L 524.839138 208.825291 
L 526.302574 210.638899 
L 527.76601 212.117771 
L 529.229446 213.278315 
L 530.692882 214.155793 
L 532.156318 214.798645 
L 533.619754 215.25523 
L 535.08319 215.56337 
L 538.010062 215.830398 
L 540.936934 215.760774 
L 548.254113 215.11196 
L 558.498165 214.23706 
L 562.888473 214.053016 
L 570.205653 214.031963 
L 578.986269 214.191622 
L 584.840013 214.502413 
L 590.693756 215.083882 
L 595.084064 215.713468 
L 599.474372 216.527499 
L 603.86468 217.578111 
L 606.791552 218.454433 
L 609.718424 219.514973 
L 612.645296 220.80689 
L 615.572168 222.388867 
L 618.49904 224.331753 
L 621.425912 226.716496 
L 624.352784 229.619794 
L 627.279655 233.102587 
L 630.206527 237.226384 
L 633.133399 242.065397 
L 636.060271 247.601164 
L 643.377451 262.592743 
L 644.840887 265.12788 
L 646.304323 267.172 
L 647.767759 268.589561 
L 649.231195 269.204561 
L 650.694631 268.83106 
L 652.158067 267.366336 
L 653.621503 264.704986 
L 655.084939 260.914037 
L 656.548375 256.07474 
L 658.011811 250.399899 
L 663.865555 225.327372 
L 665.32899 219.843573 
L 666.792426 215.050264 
L 668.255862 211.013182 
L 669.719298 207.717881 
L 671.182734 205.124338 
L 672.64617 203.16507 
L 674.109606 201.743876 
L 675.573042 200.755252 
L 677.036478 200.108089 
L 678.499914 199.729542 
L 679.96335 199.555151 
L 682.890222 199.584328 
L 691.670838 200.121889 
L 694.59771 200.082494 
L 697.524582 199.848345 
L 700.451454 199.376152 
L 703.378326 198.641209 
L 706.305197 197.638869 
L 709.232069 196.375623 
L 712.158941 194.86256 
L 715.085813 193.117709 
L 719.476121 190.146544 
L 728.256737 183.908356 
L 731.183609 182.167301 
L 734.110481 180.827882 
L 735.573917 180.352304 
L 737.037353 180.031594 
L 738.500789 179.893353 
L 739.964225 179.963264 
L 741.427661 180.263169 
L 742.891097 180.806249 
L 744.354532 181.583143 
L 745.817968 182.576242 
L 747.281404 183.764395 
L 750.208276 186.614207 
L 753.135148 189.879882 
L 758.988892 196.545273 
L 761.915764 199.447667 
L 764.842636 201.832136 
L 766.306072 202.811019 
L 767.769508 203.648896 
L 769.232944 204.350226 
L 770.69638 204.920699 
L 772.159816 205.366448 
L 775.086688 205.906091 
L 778.01356 206.038184 
L 780.940432 205.85661 
L 783.867303 205.457547 
L 788.257611 204.57121 
L 792.647919 203.363002 
L 795.574791 202.360987 
L 798.501663 201.196643 
L 801.428535 199.868805 
L 804.355407 198.371662 
L 807.282279 196.692548 
L 810.209151 194.817373 
L 813.136023 192.742543 
L 813.136023 192.742543 
" clip-path="url(#p4ccf086e1d)" style="fill: none; stroke-dasharray: 3.5,5.775; stroke-dashoffset: 0; stroke: #008000; stroke-opacity: 0.8; stroke-width: 3.5"/>
   </g>
   <g id="line2d_48">
    <path d="M 82.881477 189.525517 
L 85.808349 186.447406 
L 88.735221 183.901855 
L 90.198657 182.861762 
L 91.662093 181.992987 
L 93.125529 181.304505 
L 94.588965 180.805191 
L 96.052401 180.50698 
L 97.515837 180.430035 
L 98.979273 180.595304 
L 100.442709 181.015434 
L 101.906145 181.687245 
L 103.369581 182.592609 
L 104.833017 183.705045 
L 107.759889 186.433582 
L 110.686761 189.623265 
L 116.540504 196.213404 
L 119.467376 199.07733 
L 122.394248 201.436708 
L 123.857684 202.412218 
L 125.32112 203.253442 
L 126.784556 203.965449 
L 129.711428 205.023711 
L 132.6383 205.627436 
L 135.565172 205.828057 
L 138.492044 205.703469 
L 141.418916 205.345844 
L 145.809224 204.504132 
L 148.736096 203.75796 
L 151.662968 202.849095 
L 154.589839 201.76803 
L 157.516711 200.513761 
L 160.443583 199.088413 
L 163.370455 197.490585 
L 166.297327 195.715318 
L 169.224199 193.755915 
L 173.614507 190.492177 
L 179.468251 185.718569 
L 183.858559 182.240322 
L 186.785431 180.304938 
L 188.248867 179.532771 
L 189.712303 178.919107 
L 191.175739 178.486209 
L 192.639174 178.257387 
L 194.10261 178.264684 
L 195.566046 178.53965 
L 197.029482 179.099859 
L 198.492918 179.94102 
L 199.956354 181.042352 
L 201.41979 182.377276 
L 202.883226 183.917523 
L 205.810098 187.485292 
L 213.127278 197.142956 
L 216.05415 200.398652 
L 217.517586 201.786319 
L 218.981022 203.004279 
L 220.444458 204.05351 
L 221.907894 204.942719 
L 223.37133 205.682363 
L 224.834766 206.283504 
L 226.298202 206.755468 
L 229.225074 207.34208 
L 232.151945 207.508012 
L 235.078817 207.349323 
L 238.005689 206.973607 
L 242.395997 206.138731 
L 246.786305 204.986984 
L 249.713177 204.021726 
L 254.103485 202.280171 
L 258.493793 200.189823 
L 261.420665 198.582404 
L 264.347537 196.779381 
L 267.274409 194.758632 
L 270.201281 192.515056 
L 273.128152 190.056389 
L 277.51846 186.051403 
L 283.372204 180.631141 
L 286.299076 178.339325 
L 287.762512 177.426911 
L 289.225948 176.713933 
L 290.689384 176.222825 
L 292.15282 175.986507 
L 293.616256 176.045038 
L 295.079692 176.43884 
L 296.543128 177.186749 
L 298.006564 178.272526 
L 299.47 179.669428 
L 300.933436 181.349814 
L 302.396872 183.284109 
L 305.323744 187.722763 
L 311.177487 197.082241 
L 314.104359 201.08594 
L 315.567795 202.790385 
L 317.031231 204.276509 
L 318.494667 205.545586 
L 319.958103 206.606964 
L 321.421539 207.478431 
L 322.884975 208.180524 
L 324.348411 208.731065 
L 325.811847 209.144958 
L 327.275283 209.433184 
L 330.202155 209.674399 
L 333.129027 209.561722 
L 336.055899 209.226367 
L 340.446207 208.488425 
L 344.836515 207.492911 
L 349.226823 206.209997 
L 353.61713 204.670502 
L 358.007438 202.859572 
L 360.93431 201.451693 
L 363.861182 199.83534 
L 366.788054 197.973448 
L 369.714926 195.835595 
L 372.641798 193.407147 
L 375.56867 190.687481 
L 378.495542 187.705715 
L 384.349286 181.273429 
L 387.276158 178.109638 
L 390.203029 175.352842 
L 391.666465 174.269661 
L 393.129901 173.452182 
L 394.593337 172.93607 
L 396.056773 172.760445 
L 397.520209 172.987325 
L 398.983645 173.665542 
L 400.447081 174.794741 
L 401.910517 176.346044 
L 403.373953 178.296474 
L 404.837389 180.617345 
L 407.764261 186.094887 
L 413.618005 197.7748 
L 415.081441 200.369869 
L 416.544877 202.725788 
L 418.008313 204.812336 
L 419.471749 206.61524 
L 420.935185 208.130851 
L 422.398621 209.372283 
L 423.862057 210.36349 
L 425.325493 211.137929 
L 426.788929 211.729156 
L 428.252365 212.164837 
L 429.7158 212.464589 
L 432.642672 212.713621 
L 435.569544 212.605173 
L 439.959852 212.108969 
L 445.813596 211.208865 
L 451.66734 210.048312 
L 458.98452 208.388835 
L 463.374828 207.193113 
L 466.3017 206.225529 
L 469.228571 205.079894 
L 472.155443 203.727779 
L 475.082315 202.141237 
L 478.009187 200.282798 
L 480.936059 198.11016 
L 483.862931 195.576356 
L 486.789803 192.639179 
L 489.716675 189.272155 
L 492.643547 185.484505 
L 497.033855 179.23219 
L 501.424163 173.058145 
L 502.887599 171.224408 
L 504.351035 169.616201 
L 505.814471 168.345187 
L 507.277906 167.500857 
L 508.741342 167.135439 
L 510.204778 167.337633 
L 511.668214 168.198651 
L 513.13165 169.717647 
L 514.595086 171.87875 
L 516.058522 174.673571 
L 517.521958 178.014919 
L 520.44883 185.760315 
L 524.839138 197.845628 
L 526.302574 201.467324 
L 527.76601 204.732247 
L 529.229446 207.598709 
L 530.692882 210.055175 
L 532.156318 212.108059 
L 533.619754 213.77269 
L 535.08319 215.073731 
L 536.546626 216.051017 
L 538.010062 216.758916 
L 539.473498 217.255698 
L 540.936934 217.588714 
L 543.863806 217.882667 
L 546.790677 217.816885 
L 558.498165 216.988717 
L 562.888473 216.894115 
L 567.278781 217.049096 
L 571.669089 217.515499 
L 576.059397 218.257821 
L 580.449705 219.268677 
L 583.376577 220.129434 
L 586.303448 221.183878 
L 589.23032 222.473835 
L 592.157192 224.041205 
L 595.084064 225.928607 
L 598.010936 228.181124 
L 600.937808 230.845136 
L 603.86468 233.962547 
L 606.791552 237.555979 
L 609.718424 241.603766 
L 614.108732 248.304585 
L 618.49904 255.086782 
L 619.962476 257.087711 
L 621.425912 258.800535 
L 622.889348 260.156293 
L 624.352784 261.055892 
L 625.816219 261.35821 
L 627.279655 260.996268 
L 628.743091 259.921745 
L 630.206527 258.070267 
L 631.669963 255.467838 
L 633.133399 252.201614 
L 634.596835 248.354928 
L 637.523707 239.528499 
L 640.450579 230.453438 
L 641.914015 226.232448 
L 643.377451 222.379354 
L 644.840887 218.968008 
L 646.304323 216.038546 
L 647.767759 213.602832 
L 649.231195 211.639596 
L 650.694631 210.097843 
L 652.158067 208.912814 
L 653.621503 208.026555 
L 655.084939 207.396589 
L 656.548375 206.986454 
L 658.011811 206.755476 
L 660.938683 206.644545 
L 665.32899 206.838554 
L 672.64617 207.284648 
L 675.573042 207.290816 
L 678.499914 207.12558 
L 682.890222 206.583698 
L 687.28053 205.718366 
L 690.207402 204.931001 
L 693.134274 203.933529 
L 696.061146 202.692808 
L 698.988018 201.180342 
L 701.91489 199.370076 
L 704.841761 197.234164 
L 707.768633 194.744781 
L 710.695505 191.879746 
L 713.622377 188.636779 
L 716.549249 185.057435 
L 725.329865 173.866115 
L 726.793301 172.299104 
L 728.256737 170.9892 
L 729.720173 170.019276 
L 731.183609 169.439372 
L 732.647045 169.301988 
L 734.110481 169.693301 
L 735.573917 170.668156 
L 737.037353 172.206354 
L 738.500789 174.293537 
L 739.964225 176.904494 
L 741.427661 179.970008 
L 744.354532 186.957868 
L 748.74484 197.695622 
L 750.208276 200.913215 
L 751.671712 203.828464 
L 753.135148 206.405043 
L 754.598584 208.627783 
L 756.06202 210.494069 
L 757.525456 212.01332 
L 758.988892 213.208775 
L 760.452328 214.11929 
L 761.915764 214.793608 
L 763.3792 215.278839 
L 764.842636 215.611341 
L 767.769508 215.908534 
L 770.69638 215.838318 
L 776.550124 215.278564 
L 788.257611 214.199063 
L 792.647919 213.988428 
L 799.965099 213.893781 
L 810.209151 213.944612 
L 813.136023 214.04172 
L 813.136023 214.04172 
" clip-path="url(#p4ccf086e1d)" style="fill: none; stroke-dasharray: 12.95,5.6; stroke-dashoffset: 0; stroke: #ff0000; stroke-opacity: 0.8; stroke-width: 3.5"/>
   </g>
  </g>
  <g id="axes_3">
   <g id="patch_12">
    <path d="M 46.36875 397.66 
L 849.64875 397.66 
L 849.64875 285.383966 
L 46.36875 285.383966 
z
" style="fill: #ffffff"/>
   </g>
   <g id="matplotlib.axis_5">
    <g id="xtick_13">
     <g id="line2d_49">
      <path d="M 82.881477 397.66 
L 82.881477 285.383966 
" clip-path="url(#p416f79fe98)" style="fill: none; stroke: #cccccc; stroke-width: 0.8; stroke-linecap: round"/>
     </g>
     <g id="line2d_50"/>
     <g id="text_11">
      <!-- 0 -->
      <g style="fill: #262626" transform="translate(80.101009 408.317813) scale(0.1 -0.1)">
       <use xlink:href="#ArialMT-30"/>
      </g>
     </g>
    </g>
    <g id="xtick_14">
     <g id="line2d_51">
      <path d="M 228.932386 397.66 
L 228.932386 285.383966 
" clip-path="url(#p416f79fe98)" style="fill: none; stroke: #cccccc; stroke-width: 0.8; stroke-linecap: round"/>
     </g>
     <g id="line2d_52"/>
     <g id="text_12">
      <!-- 1 -->
      <g style="fill: #262626" transform="translate(226.151918 408.317813) scale(0.1 -0.1)">
       <use xlink:href="#ArialMT-31"/>
      </g>
     </g>
    </g>
    <g id="xtick_15">
     <g id="line2d_53">
      <path d="M 374.983295 397.66 
L 374.983295 285.383966 
" clip-path="url(#p416f79fe98)" style="fill: none; stroke: #cccccc; stroke-width: 0.8; stroke-linecap: round"/>
     </g>
     <g id="line2d_54"/>
     <g id="text_13">
      <!-- 2 -->
      <g style="fill: #262626" transform="translate(372.202827 408.317813) scale(0.1 -0.1)">
       <use xlink:href="#ArialMT-32"/>
      </g>
     </g>
    </g>
    <g id="xtick_16">
     <g id="line2d_55">
      <path d="M 521.034205 397.66 
L 521.034205 285.383966 
" clip-path="url(#p416f79fe98)" style="fill: none; stroke: #cccccc; stroke-width: 0.8; stroke-linecap: round"/>
     </g>
     <g id="line2d_56"/>
     <g id="text_14">
      <!-- 3 -->
      <g style="fill: #262626" transform="translate(518.253736 408.317813) scale(0.1 -0.1)">
       <defs>
        <path id="ArialMT-33" d="M 269 1209 
L 831 1284 
Q 928 806 1161 595 
Q 1394 384 1728 384 
Q 2125 384 2398 659 
Q 2672 934 2672 1341 
Q 2672 1728 2419 1979 
Q 2166 2231 1775 2231 
Q 1616 2231 1378 2169 
L 1441 2663 
Q 1497 2656 1531 2656 
Q 1891 2656 2178 2843 
Q 2466 3031 2466 3422 
Q 2466 3731 2256 3934 
Q 2047 4138 1716 4138 
Q 1388 4138 1169 3931 
Q 950 3725 888 3313 
L 325 3413 
Q 428 3978 793 4289 
Q 1159 4600 1703 4600 
Q 2078 4600 2393 4439 
Q 2709 4278 2876 4000 
Q 3044 3722 3044 3409 
Q 3044 3113 2884 2869 
Q 2725 2625 2413 2481 
Q 2819 2388 3044 2092 
Q 3269 1797 3269 1353 
Q 3269 753 2831 336 
Q 2394 -81 1725 -81 
Q 1122 -81 723 278 
Q 325 638 269 1209 
z
" transform="scale(0.015625)"/>
       </defs>
       <use xlink:href="#ArialMT-33"/>
      </g>
     </g>
    </g>
    <g id="xtick_17">
     <g id="line2d_57">
      <path d="M 667.085114 397.66 
L 667.085114 285.383966 
" clip-path="url(#p416f79fe98)" style="fill: none; stroke: #cccccc; stroke-width: 0.8; stroke-linecap: round"/>
     </g>
     <g id="line2d_58"/>
     <g id="text_15">
      <!-- 4 -->
      <g style="fill: #262626" transform="translate(664.304645 408.317813) scale(0.1 -0.1)">
       <defs>
        <path id="ArialMT-34" d="M 2069 0 
L 2069 1097 
L 81 1097 
L 81 1613 
L 2172 4581 
L 2631 4581 
L 2631 1613 
L 3250 1613 
L 3250 1097 
L 2631 1097 
L 2631 0 
L 2069 0 
z
M 2069 1613 
L 2069 3678 
L 634 1613 
L 2069 1613 
z
" transform="scale(0.015625)"/>
       </defs>
       <use xlink:href="#ArialMT-34"/>
      </g>
     </g>
    </g>
    <g id="xtick_18">
     <g id="line2d_59">
      <path d="M 813.136023 397.66 
L 813.136023 285.383966 
" clip-path="url(#p416f79fe98)" style="fill: none; stroke: #cccccc; stroke-width: 0.8; stroke-linecap: round"/>
     </g>
     <g id="line2d_60"/>
     <g id="text_16">
      <!-- 5 -->
      <g style="fill: #262626" transform="translate(810.355554 408.317813) scale(0.1 -0.1)">
       <defs>
        <path id="ArialMT-35" d="M 266 1200 
L 856 1250 
Q 922 819 1161 601 
Q 1400 384 1738 384 
Q 2144 384 2425 690 
Q 2706 997 2706 1503 
Q 2706 1984 2436 2262 
Q 2166 2541 1728 2541 
Q 1456 2541 1237 2417 
Q 1019 2294 894 2097 
L 366 2166 
L 809 4519 
L 3088 4519 
L 3088 3981 
L 1259 3981 
L 1013 2750 
Q 1425 3038 1878 3038 
Q 2478 3038 2890 2622 
Q 3303 2206 3303 1553 
Q 3303 931 2941 478 
Q 2500 -78 1738 -78 
Q 1113 -78 717 272 
Q 322 622 266 1200 
z
" transform="scale(0.015625)"/>
       </defs>
       <use xlink:href="#ArialMT-35"/>
      </g>
     </g>
    </g>
    <g id="text_17">
     <!-- Time -->
     <g style="fill: #262626" transform="translate(437.086094 421.463125) scale(0.1 -0.1)">
      <defs>
       <path id="ArialMT-54" d="M 1659 0 
L 1659 4041 
L 150 4041 
L 150 4581 
L 3781 4581 
L 3781 4041 
L 2266 4041 
L 2266 0 
L 1659 0 
z
" transform="scale(0.015625)"/>
       <path id="ArialMT-69" d="M 425 3934 
L 425 4581 
L 988 4581 
L 988 3934 
L 425 3934 
z
M 425 0 
L 425 3319 
L 988 3319 
L 988 0 
L 425 0 
z
" transform="scale(0.015625)"/>
       <path id="ArialMT-6d" d="M 422 0 
L 422 3319 
L 925 3319 
L 925 2853 
Q 1081 3097 1340 3245 
Q 1600 3394 1931 3394 
Q 2300 3394 2536 3241 
Q 2772 3088 2869 2813 
Q 3263 3394 3894 3394 
Q 4388 3394 4653 3120 
Q 4919 2847 4919 2278 
L 4919 0 
L 4359 0 
L 4359 2091 
Q 4359 2428 4304 2576 
Q 4250 2725 4106 2815 
Q 3963 2906 3769 2906 
Q 3419 2906 3187 2673 
Q 2956 2441 2956 1928 
L 2956 0 
L 2394 0 
L 2394 2156 
Q 2394 2531 2256 2718 
Q 2119 2906 1806 2906 
Q 1569 2906 1367 2781 
Q 1166 2656 1075 2415 
Q 984 2175 984 1722 
L 984 0 
L 422 0 
z
" transform="scale(0.015625)"/>
       <path id="ArialMT-65" d="M 2694 1069 
L 3275 997 
Q 3138 488 2766 206 
Q 2394 -75 1816 -75 
Q 1088 -75 661 373 
Q 234 822 234 1631 
Q 234 2469 665 2931 
Q 1097 3394 1784 3394 
Q 2450 3394 2872 2941 
Q 3294 2488 3294 1666 
Q 3294 1616 3291 1516 
L 816 1516 
Q 847 969 1125 678 
Q 1403 388 1819 388 
Q 2128 388 2347 550 
Q 2566 713 2694 1069 
z
M 847 1978 
L 2700 1978 
Q 2663 2397 2488 2606 
Q 2219 2931 1791 2931 
Q 1403 2931 1139 2672 
Q 875 2413 847 1978 
z
" transform="scale(0.015625)"/>
      </defs>
      <use xlink:href="#ArialMT-54"/>
      <use xlink:href="#ArialMT-69" transform="translate(57.333984 0)"/>
      <use xlink:href="#ArialMT-6d" transform="translate(79.550781 0)"/>
      <use xlink:href="#ArialMT-65" transform="translate(162.851562 0)"/>
     </g>
    </g>
   </g>
   <g id="matplotlib.axis_6">
    <g id="ytick_9">
     <g id="line2d_61">
      <path d="M 46.36875 377.411777 
L 849.64875 377.411777 
" clip-path="url(#p416f79fe98)" style="fill: none; stroke: #cccccc; stroke-width: 0.8; stroke-linecap: round"/>
     </g>
     <g id="line2d_62"/>
     <g id="text_18">
      <!-- −200 -->
      <g style="fill: #262626" transform="translate(20.345313 380.990683) scale(0.1 -0.1)">
       <use xlink:href="#ArialMT-2212"/>
       <use xlink:href="#ArialMT-32" transform="translate(58.398438 0)"/>
       <use xlink:href="#ArialMT-30" transform="translate(114.013672 0)"/>
       <use xlink:href="#ArialMT-30" transform="translate(169.628906 0)"/>
      </g>
     </g>
    </g>
    <g id="ytick_10">
     <g id="line2d_63">
      <path d="M 46.36875 341.779905 
L 849.64875 341.779905 
" clip-path="url(#p416f79fe98)" style="fill: none; stroke: #cccccc; stroke-width: 0.8; stroke-linecap: round"/>
     </g>
     <g id="line2d_64"/>
     <g id="text_19">
      <!-- −100 -->
      <g style="fill: #262626" transform="translate(20.345313 345.358811) scale(0.1 -0.1)">
       <use xlink:href="#ArialMT-2212"/>
       <use xlink:href="#ArialMT-31" transform="translate(58.398438 0)"/>
       <use xlink:href="#ArialMT-30" transform="translate(114.013672 0)"/>
       <use xlink:href="#ArialMT-30" transform="translate(169.628906 0)"/>
      </g>
     </g>
    </g>
    <g id="ytick_11">
     <g id="line2d_65">
      <path d="M 46.36875 306.148032 
L 849.64875 306.148032 
" clip-path="url(#p416f79fe98)" style="fill: none; stroke: #cccccc; stroke-width: 0.8; stroke-linecap: round"/>
     </g>
     <g id="line2d_66"/>
     <g id="text_20">
      <!-- 0 -->
      <g style="fill: #262626" transform="translate(37.307813 309.726939) scale(0.1 -0.1)">
       <use xlink:href="#ArialMT-30"/>
      </g>
     </g>
    </g>
    <g id="text_21">
     <!-- $x2$ -->
     <g style="fill: #262626" transform="translate(14.357813 347.671983) rotate(-90) scale(0.1 -0.1)">
      <defs>
       <path id="DejaVuSans-32" d="M 1228 531 
L 3431 531 
L 3431 0 
L 469 0 
L 469 531 
Q 828 903 1448 1529 
Q 2069 2156 2228 2338 
Q 2531 2678 2651 2914 
Q 2772 3150 2772 3378 
Q 2772 3750 2511 3984 
Q 2250 4219 1831 4219 
Q 1534 4219 1204 4116 
Q 875 4013 500 3803 
L 500 4441 
Q 881 4594 1212 4672 
Q 1544 4750 1819 4750 
Q 2544 4750 2975 4387 
Q 3406 4025 3406 3419 
Q 3406 3131 3298 2873 
Q 3191 2616 2906 2266 
Q 2828 2175 2409 1742 
Q 1991 1309 1228 531 
z
" transform="scale(0.015625)"/>
      </defs>
      <use xlink:href="#DejaVuSans-Oblique-78" transform="translate(0 0.78125)"/>
      <use xlink:href="#DejaVuSans-32" transform="translate(59.179688 0.78125)"/>
     </g>
    </g>
   </g>
   <g id="line2d_67">
    <path d="M 82.881477 299.021658 
L 85.808349 298.73822 
L 88.735221 298.234113 
L 93.125529 297.368167 
L 97.515837 296.572224 
L 100.442709 295.838713 
L 103.369581 295.376628 
L 107.759889 294.776432 
L 112.150197 294.227525 
L 115.077068 294.084516 
L 119.467376 294.204034 
L 125.32112 294.58512 
L 129.711428 295.179139 
L 138.492044 296.493094 
L 150.199532 298.057653 
L 167.760763 299.733208 
L 175.077943 300.014281 
L 179.468251 300.067792 
L 182.395123 299.924351 
L 186.785431 299.312009 
L 191.175739 298.510984 
L 194.10261 297.558522 
L 198.492918 296.015926 
L 202.883226 294.75754 
L 204.346662 294.300279 
L 207.273534 293.719443 
L 210.200406 293.495614 
L 214.590714 293.509931 
L 218.981022 293.775367 
L 221.907894 294.167083 
L 243.859433 297.715944 
L 255.566921 299.199544 
L 261.420665 299.738953 
L 268.737845 300.159284 
L 274.591588 300.28717 
L 283.372204 300.214872 
L 286.299076 300.101393 
L 289.225948 299.714547 
L 292.15282 299.037547 
L 303.860308 295.69579 
L 306.78718 294.765132 
L 309.714052 294.248429 
L 312.640923 293.768907 
L 315.567795 293.556359 
L 318.494667 293.546742 
L 322.884975 293.743283 
L 325.811847 294.064655 
L 336.055899 295.761663 
L 347.763387 297.604292 
L 359.470874 299.10204 
L 365.324618 299.669796 
L 372.641798 300.113528 
L 378.495542 300.261745 
L 387.276158 300.211149 
L 390.203029 300.124936 
L 393.129901 299.805425 
L 396.056773 299.178322 
L 403.373953 297.184422 
L 406.300825 296.218005 
L 410.691133 294.576862 
L 413.618005 293.85666 
L 416.544877 293.489809 
L 419.471749 293.357071 
L 423.862057 293.49965 
L 428.252365 293.938367 
L 435.569544 295.160016 
L 448.740468 297.344486 
L 458.98452 298.725991 
L 466.3017 299.541102 
L 473.618879 300.076539 
L 479.472623 300.325537 
L 485.326367 300.363542 
L 494.106983 300.170527 
L 497.033855 299.899768 
L 499.960727 299.444869 
L 502.887599 298.827216 
L 508.741342 297.102307 
L 511.668214 295.95688 
L 514.595086 295.04653 
L 516.058522 294.48865 
L 517.521958 294.068969 
L 520.44883 293.523674 
L 523.375702 293.178868 
L 526.302574 293.115343 
L 529.229446 293.309071 
L 533.619754 293.833461 
L 540.936934 295.144561 
L 549.717549 296.710749 
L 557.034729 297.84015 
L 567.278781 299.196047 
L 574.595961 299.921768 
L 586.303448 300.843682 
L 592.157192 301.142673 
L 596.5475 301.139838 
L 599.474372 300.960959 
L 606.791552 300.250045 
L 612.645296 298.748376 
L 615.572168 297.690651 
L 617.035604 297.267878 
L 619.962476 296.014229 
L 621.425912 295.488332 
L 622.889348 294.818368 
L 625.816219 293.851637 
L 630.206527 292.68105 
L 633.133399 292.314258 
L 634.596835 292.293214 
L 637.523707 292.568642 
L 641.914015 293.376554 
L 659.475247 296.965054 
L 666.792426 298.144278 
L 677.036478 299.520675 
L 687.28053 300.640319 
L 698.988018 301.70413 
L 710.695505 302.499722 
L 722.402993 303.158171 
L 728.256737 303.24392 
L 734.110481 303.055103 
L 738.500789 302.67299 
L 741.427661 302.234415 
L 744.354532 301.585334 
L 748.74484 300.203114 
L 751.671712 299.192848 
L 753.135148 298.585012 
L 756.06202 296.918861 
L 761.915764 293.517642 
L 766.306072 291.739705 
L 767.769508 291.306563 
L 769.232944 291.177639 
L 772.159816 291.328204 
L 775.086688 291.843925 
L 779.476996 292.989974 
L 785.330739 294.57084 
L 789.721047 295.559421 
L 795.574791 296.629602 
L 805.818843 298.190455 
L 813.136023 299.121079 
L 813.136023 299.121079 
" clip-path="url(#p416f79fe98)" style="fill: none; stroke: #000000; stroke-opacity: 0.4; stroke-width: 6; stroke-linecap: round"/>
   </g>
   <g id="line2d_68">
    <path d="M 82.881477 299.021658 
L 94.588965 298.109503 
L 103.369581 297.654517 
L 112.150197 297.45541 
L 120.930812 297.520491 
L 129.711428 297.820449 
L 139.95548 298.401878 
L 153.126403 299.396497 
L 172.151071 301.098031 
L 207.273534 304.517382 
L 296.543128 313.459228 
L 315.567795 315.577851 
L 330.202155 317.436331 
L 343.373079 319.334834 
L 374.105234 324.12385 
L 526.302574 347.845569 
L 813.136023 392.556544 
L 813.136023 392.556544 
" clip-path="url(#p416f79fe98)" style="fill: none; stroke-dasharray: 22.4,5.6,3.5,5.6; stroke-dashoffset: 0; stroke: #0000ff; stroke-opacity: 0.8; stroke-width: 3.5"/>
   </g>
   <g id="patch_13">
    <path d="M 46.36875 397.66 
L 46.36875 285.383966 
" style="fill: none; stroke: #cccccc; stroke-linejoin: miter; stroke-linecap: square"/>
   </g>
   <g id="patch_14">
    <path d="M 849.64875 397.66 
L 849.64875 285.383966 
" style="fill: none; stroke: #cccccc; stroke-linejoin: miter; stroke-linecap: square"/>
   </g>
   <g id="patch_15">
    <path d="M 46.36875 397.66 
L 849.64875 397.66 
" style="fill: none; stroke: #cccccc; stroke-linejoin: miter; stroke-linecap: square"/>
   </g>
   <g id="patch_16">
    <path d="M 46.36875 285.383966 
L 849.64875 285.383966 
" style="fill: none; stroke: #cccccc; stroke-linejoin: miter; stroke-linecap: square"/>
   </g>
   <g id="line2d_69">
    <path d="M 82.881477 299.021658 
L 87.271785 298.442581 
L 93.125529 297.425484 
L 106.296453 294.847901 
L 110.686761 294.356315 
L 113.613632 294.222325 
L 118.00394 294.297491 
L 122.394248 294.627052 
L 128.247992 295.317293 
L 145.809224 297.602583 
L 154.589839 298.504437 
L 161.907019 299.020934 
L 167.760763 299.24454 
L 173.614507 299.23336 
L 178.004815 299.014197 
L 182.395123 298.581717 
L 186.785431 297.931092 
L 191.175739 297.072553 
L 201.41979 294.846074 
L 205.810098 294.203385 
L 208.73697 293.988583 
L 211.663842 293.954492 
L 216.05415 294.183164 
L 220.444458 294.647016 
L 227.761638 295.689966 
L 238.005689 297.151778 
L 248.249741 298.391044 
L 255.566921 299.051651 
L 262.884101 299.489167 
L 268.737845 299.634516 
L 273.128152 299.564819 
L 277.51846 299.288615 
L 281.908768 298.765108 
L 286.299076 297.978934 
L 290.689384 296.950999 
L 299.47 294.718148 
L 302.396872 294.155578 
L 305.323744 293.786323 
L 308.250616 293.636086 
L 311.177487 293.689616 
L 315.567795 294.060476 
L 321.421539 294.878653 
L 338.982771 297.594593 
L 347.763387 298.695741 
L 355.080566 299.402102 
L 362.397746 299.920384 
L 368.25149 300.155172 
L 372.641798 300.170996 
L 377.032106 299.99221 
L 381.422414 299.566262 
L 384.349286 299.111027 
L 388.739594 298.13978 
L 393.129901 296.870431 
L 400.447081 294.583497 
L 403.373953 293.864375 
L 406.300825 293.384871 
L 409.227697 293.176225 
L 412.154569 293.226025 
L 415.081441 293.481776 
L 419.471749 294.124204 
L 442.886724 298.076219 
L 451.66734 299.208301 
L 461.911392 300.272913 
L 469.228571 300.821608 
L 475.082315 301.074266 
L 480.936059 301.089548 
L 485.326367 300.858914 
L 489.716675 300.348406 
L 492.643547 299.809139 
L 495.570419 299.065203 
L 498.497291 298.117747 
L 502.887599 296.409889 
L 508.741342 294.07123 
L 511.668214 293.184915 
L 514.595086 292.630666 
L 517.521958 292.445666 
L 520.44883 292.593303 
L 523.375702 292.989316 
L 527.76601 293.860665 
L 539.473498 296.288453 
L 546.790677 297.546417 
L 555.571293 298.840799 
L 565.815345 300.089543 
L 576.059397 301.129678 
L 589.23032 302.197982 
L 600.937808 302.958955 
L 612.645296 303.486034 
L 621.425912 303.685991 
L 627.279655 303.601562 
L 631.669963 303.312539 
L 634.596835 302.940767 
L 637.523707 302.362048 
L 640.450579 301.513669 
L 643.377451 300.319246 
L 646.304323 298.751938 
L 649.231195 296.854738 
L 655.084939 292.847138 
L 656.548375 292.02625 
L 658.011811 291.365175 
L 659.475247 290.884184 
L 660.938683 290.593833 
L 662.402119 290.487422 
L 663.865555 290.550572 
L 666.792426 291.076941 
L 671.182734 292.394404 
L 677.036478 294.191728 
L 681.426786 295.283354 
L 685.817094 296.172872 
L 691.670838 297.098256 
L 698.988018 297.993148 
L 704.841761 298.524966 
L 710.695505 298.867537 
L 716.549249 298.98958 
L 720.939557 298.898353 
L 725.329865 298.620542 
L 729.720173 298.146885 
L 734.110481 297.481124 
L 739.964225 296.343654 
L 745.817968 295.204312 
L 750.208276 294.548807 
L 753.135148 294.279605 
L 756.06202 294.168204 
L 760.452328 294.273978 
L 764.842636 294.62736 
L 770.69638 295.339118 
L 786.794175 297.471627 
L 795.574791 298.416025 
L 802.891971 298.978443 
L 808.745715 299.248608 
L 813.136023 299.31536 
L 813.136023 299.31536 
" clip-path="url(#p416f79fe98)" style="fill: none; stroke-dasharray: 3.5,5.775; stroke-dashoffset: 0; stroke: #008000; stroke-opacity: 0.8; stroke-width: 3.5"/>
   </g>
   <g id="line2d_70">
    <path d="M 82.881477 299.021658 
L 87.271785 298.455962 
L 93.125529 297.43038 
L 106.296453 294.840003 
L 110.686761 294.360195 
L 113.613632 294.23118 
L 118.00394 294.31188 
L 122.394248 294.651455 
L 128.247992 295.339174 
L 148.736096 297.944517 
L 157.516711 298.76026 
L 164.833891 299.196719 
L 170.687635 299.320312 
L 175.077943 299.235234 
L 179.468251 298.956777 
L 183.858559 298.450749 
L 188.248867 297.706913 
L 194.10261 296.425709 
L 201.41979 294.808743 
L 204.346662 294.336094 
L 207.273534 294.030147 
L 210.200406 293.906291 
L 213.127278 293.956144 
L 217.517586 294.292997 
L 223.37133 295.038608 
L 243.859433 297.923865 
L 252.640049 298.868169 
L 259.957229 299.443712 
L 265.810973 299.716451 
L 271.664716 299.75558 
L 276.055024 299.576007 
L 280.445332 299.16421 
L 284.83564 298.477564 
L 289.225948 297.51151 
L 296.543128 295.528144 
L 300.933436 294.446875 
L 303.860308 293.921388 
L 306.78718 293.609609 
L 309.714052 293.523689 
L 312.640923 293.642186 
L 317.031231 294.105566 
L 322.884975 295.004526 
L 337.519335 297.347809 
L 346.299951 298.515127 
L 355.080566 299.462204 
L 362.397746 300.051061 
L 368.25149 300.346197 
L 374.105234 300.413395 
L 378.495542 300.249168 
L 382.88585 299.832514 
L 385.812722 299.381623 
L 388.739594 298.773899 
L 393.129901 297.569442 
L 398.983645 295.608018 
L 403.373953 294.222761 
L 406.300825 293.531075 
L 409.227697 293.113573 
L 412.154569 292.990488 
L 415.081441 293.130949 
L 418.008313 293.472487 
L 422.398621 294.207711 
L 438.496416 297.135376 
L 447.277032 298.439015 
L 456.057648 299.536992 
L 466.3017 300.576581 
L 475.082315 301.233557 
L 482.399495 301.536308 
L 486.789803 301.546139 
L 491.180111 301.355422 
L 494.106983 301.072915 
L 497.033855 300.628125 
L 499.960727 299.987914 
L 502.887599 299.127618 
L 505.814471 298.042922 
L 510.204778 296.094407 
L 514.595086 294.10597 
L 517.521958 293.033462 
L 520.44883 292.335876 
L 523.375702 292.071107 
L 526.302574 292.202755 
L 529.229446 292.629093 
L 533.619754 293.565712 
L 543.863806 295.868818 
L 551.180985 297.220467 
L 559.961601 298.560297 
L 568.742217 299.674476 
L 578.986269 300.738304 
L 587.766884 301.448024 
L 595.084064 301.857106 
L 600.937808 301.995919 
L 605.328116 301.920897 
L 609.718424 301.606289 
L 612.645296 301.209002 
L 615.572168 300.61675 
L 618.49904 299.792016 
L 621.425912 298.713284 
L 624.352784 297.397775 
L 633.133399 293.135539 
L 636.060271 292.211665 
L 637.523707 291.929386 
L 638.987143 291.772533 
L 641.914015 291.807116 
L 644.840887 292.209069 
L 649.231195 293.191757 
L 658.011811 295.327097 
L 663.865555 296.518675 
L 671.182734 297.753889 
L 679.96335 298.967581 
L 688.743966 299.946254 
L 697.524582 300.685153 
L 704.841761 301.054738 
L 710.695505 301.094552 
L 715.085813 300.891653 
L 719.476121 300.399564 
L 722.402993 299.865205 
L 725.329865 299.139278 
L 728.256737 298.213819 
L 732.647045 296.516333 
L 738.500789 294.148634 
L 741.427661 293.224211 
L 744.354532 292.63458 
L 747.281404 292.421626 
L 750.208276 292.551234 
L 753.135148 292.938999 
L 757.525456 293.793159 
L 769.232944 296.241315 
L 776.550124 297.516823 
L 785.330739 298.809309 
L 795.574791 300.068406 
L 807.282279 301.248615 
L 813.136023 301.751893 
L 813.136023 301.751893 
" clip-path="url(#p416f79fe98)" style="fill: none; stroke-dasharray: 12.95,5.6; stroke-dashoffset: 0; stroke: #ff0000; stroke-opacity: 0.8; stroke-width: 3.5"/>
   </g>
  </g>
  <g id="text_22">
   <!-- State Variable Simulation Comparison -->
   <g style="fill: #262626" transform="translate(293.86625 22.4875) scale(0.16 -0.16)">
    <defs>
     <path id="ArialMT-53" d="M 288 1472 
L 859 1522 
Q 900 1178 1048 958 
Q 1197 738 1509 602 
Q 1822 466 2213 466 
Q 2559 466 2825 569 
Q 3091 672 3220 851 
Q 3350 1031 3350 1244 
Q 3350 1459 3225 1620 
Q 3100 1781 2813 1891 
Q 2628 1963 1997 2114 
Q 1366 2266 1113 2400 
Q 784 2572 623 2826 
Q 463 3081 463 3397 
Q 463 3744 659 4045 
Q 856 4347 1234 4503 
Q 1613 4659 2075 4659 
Q 2584 4659 2973 4495 
Q 3363 4331 3572 4012 
Q 3781 3694 3797 3291 
L 3216 3247 
Q 3169 3681 2898 3903 
Q 2628 4125 2100 4125 
Q 1550 4125 1298 3923 
Q 1047 3722 1047 3438 
Q 1047 3191 1225 3031 
Q 1400 2872 2139 2705 
Q 2878 2538 3153 2413 
Q 3553 2228 3743 1945 
Q 3934 1663 3934 1294 
Q 3934 928 3725 604 
Q 3516 281 3123 101 
Q 2731 -78 2241 -78 
Q 1619 -78 1198 103 
Q 778 284 539 648 
Q 300 1013 288 1472 
z
" transform="scale(0.015625)"/>
     <path id="ArialMT-74" d="M 1650 503 
L 1731 6 
Q 1494 -44 1306 -44 
Q 1000 -44 831 53 
Q 663 150 594 308 
Q 525 466 525 972 
L 525 2881 
L 113 2881 
L 113 3319 
L 525 3319 
L 525 4141 
L 1084 4478 
L 1084 3319 
L 1650 3319 
L 1650 2881 
L 1084 2881 
L 1084 941 
Q 1084 700 1114 631 
Q 1144 563 1211 522 
Q 1278 481 1403 481 
Q 1497 481 1650 503 
z
" transform="scale(0.015625)"/>
     <path id="ArialMT-61" d="M 2588 409 
Q 2275 144 1986 34 
Q 1697 -75 1366 -75 
Q 819 -75 525 192 
Q 231 459 231 875 
Q 231 1119 342 1320 
Q 453 1522 633 1644 
Q 813 1766 1038 1828 
Q 1203 1872 1538 1913 
Q 2219 1994 2541 2106 
Q 2544 2222 2544 2253 
Q 2544 2597 2384 2738 
Q 2169 2928 1744 2928 
Q 1347 2928 1158 2789 
Q 969 2650 878 2297 
L 328 2372 
Q 403 2725 575 2942 
Q 747 3159 1072 3276 
Q 1397 3394 1825 3394 
Q 2250 3394 2515 3294 
Q 2781 3194 2906 3042 
Q 3031 2891 3081 2659 
Q 3109 2516 3109 2141 
L 3109 1391 
Q 3109 606 3145 398 
Q 3181 191 3288 0 
L 2700 0 
Q 2613 175 2588 409 
z
M 2541 1666 
Q 2234 1541 1622 1453 
Q 1275 1403 1131 1340 
Q 988 1278 909 1158 
Q 831 1038 831 891 
Q 831 666 1001 516 
Q 1172 366 1500 366 
Q 1825 366 2078 508 
Q 2331 650 2450 897 
Q 2541 1088 2541 1459 
L 2541 1666 
z
" transform="scale(0.015625)"/>
     <path id="ArialMT-20" transform="scale(0.015625)"/>
     <path id="ArialMT-56" d="M 1803 0 
L 28 4581 
L 684 4581 
L 1875 1253 
Q 2019 853 2116 503 
Q 2222 878 2363 1253 
L 3600 4581 
L 4219 4581 
L 2425 0 
L 1803 0 
z
" transform="scale(0.015625)"/>
     <path id="ArialMT-72" d="M 416 0 
L 416 3319 
L 922 3319 
L 922 2816 
Q 1116 3169 1280 3281 
Q 1444 3394 1641 3394 
Q 1925 3394 2219 3213 
L 2025 2691 
Q 1819 2813 1613 2813 
Q 1428 2813 1281 2702 
Q 1134 2591 1072 2394 
Q 978 2094 978 1738 
L 978 0 
L 416 0 
z
" transform="scale(0.015625)"/>
     <path id="ArialMT-62" d="M 941 0 
L 419 0 
L 419 4581 
L 981 4581 
L 981 2947 
Q 1338 3394 1891 3394 
Q 2197 3394 2470 3270 
Q 2744 3147 2920 2923 
Q 3097 2700 3197 2384 
Q 3297 2069 3297 1709 
Q 3297 856 2875 390 
Q 2453 -75 1863 -75 
Q 1275 -75 941 416 
L 941 0 
z
M 934 1684 
Q 934 1088 1097 822 
Q 1363 388 1816 388 
Q 2184 388 2453 708 
Q 2722 1028 2722 1663 
Q 2722 2313 2464 2622 
Q 2206 2931 1841 2931 
Q 1472 2931 1203 2611 
Q 934 2291 934 1684 
z
" transform="scale(0.015625)"/>
     <path id="ArialMT-6c" d="M 409 0 
L 409 4581 
L 972 4581 
L 972 0 
L 409 0 
z
" transform="scale(0.015625)"/>
     <path id="ArialMT-75" d="M 2597 0 
L 2597 488 
Q 2209 -75 1544 -75 
Q 1250 -75 995 37 
Q 741 150 617 320 
Q 494 491 444 738 
Q 409 903 409 1263 
L 409 3319 
L 972 3319 
L 972 1478 
Q 972 1038 1006 884 
Q 1059 663 1231 536 
Q 1403 409 1656 409 
Q 1909 409 2131 539 
Q 2353 669 2445 892 
Q 2538 1116 2538 1541 
L 2538 3319 
L 3100 3319 
L 3100 0 
L 2597 0 
z
" transform="scale(0.015625)"/>
     <path id="ArialMT-6f" d="M 213 1659 
Q 213 2581 725 3025 
Q 1153 3394 1769 3394 
Q 2453 3394 2887 2945 
Q 3322 2497 3322 1706 
Q 3322 1066 3130 698 
Q 2938 331 2570 128 
Q 2203 -75 1769 -75 
Q 1072 -75 642 372 
Q 213 819 213 1659 
z
M 791 1659 
Q 791 1022 1069 705 
Q 1347 388 1769 388 
Q 2188 388 2466 706 
Q 2744 1025 2744 1678 
Q 2744 2294 2464 2611 
Q 2184 2928 1769 2928 
Q 1347 2928 1069 2612 
Q 791 2297 791 1659 
z
" transform="scale(0.015625)"/>
     <path id="ArialMT-6e" d="M 422 0 
L 422 3319 
L 928 3319 
L 928 2847 
Q 1294 3394 1984 3394 
Q 2284 3394 2536 3286 
Q 2788 3178 2913 3003 
Q 3038 2828 3088 2588 
Q 3119 2431 3119 2041 
L 3119 0 
L 2556 0 
L 2556 2019 
Q 2556 2363 2490 2533 
Q 2425 2703 2258 2804 
Q 2091 2906 1866 2906 
Q 1506 2906 1245 2678 
Q 984 2450 984 1813 
L 984 0 
L 422 0 
z
" transform="scale(0.015625)"/>
     <path id="ArialMT-43" d="M 3763 1606 
L 4369 1453 
Q 4178 706 3683 314 
Q 3188 -78 2472 -78 
Q 1731 -78 1267 223 
Q 803 525 561 1097 
Q 319 1669 319 2325 
Q 319 3041 592 3573 
Q 866 4106 1370 4382 
Q 1875 4659 2481 4659 
Q 3169 4659 3637 4309 
Q 4106 3959 4291 3325 
L 3694 3184 
Q 3534 3684 3231 3912 
Q 2928 4141 2469 4141 
Q 1941 4141 1586 3887 
Q 1231 3634 1087 3207 
Q 944 2781 944 2328 
Q 944 1744 1114 1308 
Q 1284 872 1643 656 
Q 2003 441 2422 441 
Q 2931 441 3284 734 
Q 3638 1028 3763 1606 
z
" transform="scale(0.015625)"/>
     <path id="ArialMT-70" d="M 422 -1272 
L 422 3319 
L 934 3319 
L 934 2888 
Q 1116 3141 1344 3267 
Q 1572 3394 1897 3394 
Q 2322 3394 2647 3175 
Q 2972 2956 3137 2557 
Q 3303 2159 3303 1684 
Q 3303 1175 3120 767 
Q 2938 359 2589 142 
Q 2241 -75 1856 -75 
Q 1575 -75 1351 44 
Q 1128 163 984 344 
L 984 -1272 
L 422 -1272 
z
M 931 1641 
Q 931 1000 1190 694 
Q 1450 388 1819 388 
Q 2194 388 2461 705 
Q 2728 1022 2728 1688 
Q 2728 2322 2467 2637 
Q 2206 2953 1844 2953 
Q 1484 2953 1207 2617 
Q 931 2281 931 1641 
z
" transform="scale(0.015625)"/>
     <path id="ArialMT-73" d="M 197 991 
L 753 1078 
Q 800 744 1014 566 
Q 1228 388 1613 388 
Q 2000 388 2187 545 
Q 2375 703 2375 916 
Q 2375 1106 2209 1216 
Q 2094 1291 1634 1406 
Q 1016 1563 777 1677 
Q 538 1791 414 1992 
Q 291 2194 291 2438 
Q 291 2659 392 2848 
Q 494 3038 669 3163 
Q 800 3259 1026 3326 
Q 1253 3394 1513 3394 
Q 1903 3394 2198 3281 
Q 2494 3169 2634 2976 
Q 2775 2784 2828 2463 
L 2278 2388 
Q 2241 2644 2061 2787 
Q 1881 2931 1553 2931 
Q 1166 2931 1000 2803 
Q 834 2675 834 2503 
Q 834 2394 903 2306 
Q 972 2216 1119 2156 
Q 1203 2125 1616 2013 
Q 2213 1853 2448 1751 
Q 2684 1650 2818 1456 
Q 2953 1263 2953 975 
Q 2953 694 2789 445 
Q 2625 197 2315 61 
Q 2006 -75 1616 -75 
Q 969 -75 630 194 
Q 291 463 197 991 
z
" transform="scale(0.015625)"/>
    </defs>
    <use xlink:href="#ArialMT-53"/>
    <use xlink:href="#ArialMT-74" transform="translate(66.699219 0)"/>
    <use xlink:href="#ArialMT-61" transform="translate(94.482422 0)"/>
    <use xlink:href="#ArialMT-74" transform="translate(150.097656 0)"/>
    <use xlink:href="#ArialMT-65" transform="translate(177.880859 0)"/>
    <use xlink:href="#ArialMT-20" transform="translate(233.496094 0)"/>
    <use xlink:href="#ArialMT-56" transform="translate(261.279297 0)"/>
    <use xlink:href="#ArialMT-61" transform="translate(320.603516 0)"/>
    <use xlink:href="#ArialMT-72" transform="translate(376.21875 0)"/>
    <use xlink:href="#ArialMT-69" transform="translate(409.519531 0)"/>
    <use xlink:href="#ArialMT-61" transform="translate(431.736328 0)"/>
    <use xlink:href="#ArialMT-62" transform="translate(487.351562 0)"/>
    <use xlink:href="#ArialMT-6c" transform="translate(542.966797 0)"/>
    <use xlink:href="#ArialMT-65" transform="translate(565.183594 0)"/>
    <use xlink:href="#ArialMT-20" transform="translate(620.798828 0)"/>
    <use xlink:href="#ArialMT-53" transform="translate(648.582031 0)"/>
    <use xlink:href="#ArialMT-69" transform="translate(715.28125 0)"/>
    <use xlink:href="#ArialMT-6d" transform="translate(737.498047 0)"/>
    <use xlink:href="#ArialMT-75" transform="translate(820.798828 0)"/>
    <use xlink:href="#ArialMT-6c" transform="translate(876.414062 0)"/>
    <use xlink:href="#ArialMT-61" transform="translate(898.630859 0)"/>
    <use xlink:href="#ArialMT-74" transform="translate(954.246094 0)"/>
    <use xlink:href="#ArialMT-69" transform="translate(982.029297 0)"/>
    <use xlink:href="#ArialMT-6f" transform="translate(1004.246094 0)"/>
    <use xlink:href="#ArialMT-6e" transform="translate(1059.861328 0)"/>
    <use xlink:href="#ArialMT-20" transform="translate(1115.476562 0)"/>
    <use xlink:href="#ArialMT-43" transform="translate(1143.259766 0)"/>
    <use xlink:href="#ArialMT-6f" transform="translate(1215.476562 0)"/>
    <use xlink:href="#ArialMT-6d" transform="translate(1271.091797 0)"/>
    <use xlink:href="#ArialMT-70" transform="translate(1354.392578 0)"/>
    <use xlink:href="#ArialMT-61" transform="translate(1410.007812 0)"/>
    <use xlink:href="#ArialMT-72" transform="translate(1465.623047 0)"/>
    <use xlink:href="#ArialMT-69" transform="translate(1498.923828 0)"/>
    <use xlink:href="#ArialMT-73" transform="translate(1521.140625 0)"/>
    <use xlink:href="#ArialMT-6f" transform="translate(1571.140625 0)"/>
    <use xlink:href="#ArialMT-6e" transform="translate(1626.755859 0)"/>
   </g>
  </g>
  <g id="legend_1">
   <g id="line2d_71">
    <path d="M 753.395625 12.657812 
L 763.395625 12.657812 
L 773.395625 12.657812 
" style="fill: none; stroke: #000000; stroke-opacity: 0.4; stroke-width: 6; stroke-linecap: round"/>
   </g>
   <g id="text_23">
    <!-- True Trajectory -->
    <g style="fill: #262626" transform="translate(781.395625 16.157812) scale(0.1 -0.1)">
     <defs>
      <path id="ArialMT-6a" d="M 419 3928 
L 419 4581 
L 981 4581 
L 981 3928 
L 419 3928 
z
M -294 -1288 
L -188 -809 
Q -19 -853 78 -853 
Q 250 -853 334 -739 
Q 419 -625 419 -169 
L 419 3319 
L 981 3319 
L 981 -181 
Q 981 -794 822 -1034 
Q 619 -1347 147 -1347 
Q -81 -1347 -294 -1288 
z
" transform="scale(0.015625)"/>
      <path id="ArialMT-63" d="M 2588 1216 
L 3141 1144 
Q 3050 572 2676 248 
Q 2303 -75 1759 -75 
Q 1078 -75 664 370 
Q 250 816 250 1647 
Q 250 2184 428 2587 
Q 606 2991 970 3192 
Q 1334 3394 1763 3394 
Q 2303 3394 2647 3120 
Q 2991 2847 3088 2344 
L 2541 2259 
Q 2463 2594 2264 2762 
Q 2066 2931 1784 2931 
Q 1359 2931 1093 2626 
Q 828 2322 828 1663 
Q 828 994 1084 691 
Q 1341 388 1753 388 
Q 2084 388 2306 591 
Q 2528 794 2588 1216 
z
" transform="scale(0.015625)"/>
      <path id="ArialMT-79" d="M 397 -1278 
L 334 -750 
Q 519 -800 656 -800 
Q 844 -800 956 -737 
Q 1069 -675 1141 -563 
Q 1194 -478 1313 -144 
Q 1328 -97 1363 -6 
L 103 3319 
L 709 3319 
L 1400 1397 
Q 1534 1031 1641 628 
Q 1738 1016 1872 1384 
L 2581 3319 
L 3144 3319 
L 1881 -56 
Q 1678 -603 1566 -809 
Q 1416 -1088 1222 -1217 
Q 1028 -1347 759 -1347 
Q 597 -1347 397 -1278 
z
" transform="scale(0.015625)"/>
     </defs>
     <use xlink:href="#ArialMT-54"/>
     <use xlink:href="#ArialMT-72" transform="translate(57.333984 0)"/>
     <use xlink:href="#ArialMT-75" transform="translate(90.634766 0)"/>
     <use xlink:href="#ArialMT-65" transform="translate(146.25 0)"/>
     <use xlink:href="#ArialMT-20" transform="translate(201.865234 0)"/>
     <use xlink:href="#ArialMT-54" transform="translate(227.898438 0)"/>
     <use xlink:href="#ArialMT-72" transform="translate(285.232422 0)"/>
     <use xlink:href="#ArialMT-61" transform="translate(318.533203 0)"/>
     <use xlink:href="#ArialMT-6a" transform="translate(374.148438 0)"/>
     <use xlink:href="#ArialMT-65" transform="translate(396.365234 0)"/>
     <use xlink:href="#ArialMT-63" transform="translate(451.980469 0)"/>
     <use xlink:href="#ArialMT-74" transform="translate(501.980469 0)"/>
     <use xlink:href="#ArialMT-6f" transform="translate(529.763672 0)"/>
     <use xlink:href="#ArialMT-72" transform="translate(585.378906 0)"/>
     <use xlink:href="#ArialMT-79" transform="translate(618.679688 0)"/>
    </g>
   </g>
   <g id="line2d_72">
    <path d="M 753.395625 27.042187 
L 763.395625 27.042187 
L 773.395625 27.042187 
" style="fill: none; stroke-dasharray: 12.95,5.6; stroke-dashoffset: 0; stroke: #ff0000; stroke-opacity: 0.8; stroke-width: 3.5"/>
   </g>
   <g id="text_24">
    <!-- AutoSINDy -->
    <g style="fill: #262626" transform="translate(781.395625 30.542187) scale(0.1 -0.1)">
     <defs>
      <path id="ArialMT-41" d="M -9 0 
L 1750 4581 
L 2403 4581 
L 4278 0 
L 3588 0 
L 3053 1388 
L 1138 1388 
L 634 0 
L -9 0 
z
M 1313 1881 
L 2866 1881 
L 2388 3150 
Q 2169 3728 2063 4100 
Q 1975 3659 1816 3225 
L 1313 1881 
z
" transform="scale(0.015625)"/>
      <path id="ArialMT-49" d="M 597 0 
L 597 4581 
L 1203 4581 
L 1203 0 
L 597 0 
z
" transform="scale(0.015625)"/>
      <path id="ArialMT-4e" d="M 488 0 
L 488 4581 
L 1109 4581 
L 3516 984 
L 3516 4581 
L 4097 4581 
L 4097 0 
L 3475 0 
L 1069 3600 
L 1069 0 
L 488 0 
z
" transform="scale(0.015625)"/>
      <path id="ArialMT-44" d="M 494 0 
L 494 4581 
L 2072 4581 
Q 2606 4581 2888 4516 
Q 3281 4425 3559 4188 
Q 3922 3881 4101 3404 
Q 4281 2928 4281 2316 
Q 4281 1794 4159 1391 
Q 4038 988 3847 723 
Q 3656 459 3429 307 
Q 3203 156 2883 78 
Q 2563 0 2147 0 
L 494 0 
z
M 1100 541 
L 2078 541 
Q 2531 541 2789 625 
Q 3047 709 3200 863 
Q 3416 1078 3536 1442 
Q 3656 1806 3656 2325 
Q 3656 3044 3420 3430 
Q 3184 3816 2847 3947 
Q 2603 4041 2063 4041 
L 1100 4041 
L 1100 541 
z
" transform="scale(0.015625)"/>
     </defs>
     <use xlink:href="#ArialMT-41"/>
     <use xlink:href="#ArialMT-75" transform="translate(66.699219 0)"/>
     <use xlink:href="#ArialMT-74" transform="translate(122.314453 0)"/>
     <use xlink:href="#ArialMT-6f" transform="translate(150.097656 0)"/>
     <use xlink:href="#ArialMT-53" transform="translate(205.712891 0)"/>
     <use xlink:href="#ArialMT-49" transform="translate(272.412109 0)"/>
     <use xlink:href="#ArialMT-4e" transform="translate(300.195312 0)"/>
     <use xlink:href="#ArialMT-44" transform="translate(372.412109 0)"/>
     <use xlink:href="#ArialMT-79" transform="translate(444.628906 0)"/>
    </g>
   </g>
   <g id="line2d_73">
    <path d="M 753.395625 41.426562 
L 763.395625 41.426562 
L 773.395625 41.426562 
" style="fill: none; stroke-dasharray: 3.5,5.775; stroke-dashoffset: 0; stroke: #008000; stroke-opacity: 0.8; stroke-width: 3.5"/>
   </g>
   <g id="text_25">
    <!-- Standard SINDy -->
    <g style="fill: #262626" transform="translate(781.395625 44.926562) scale(0.1 -0.1)">
     <defs>
      <path id="ArialMT-64" d="M 2575 0 
L 2575 419 
Q 2259 -75 1647 -75 
Q 1250 -75 917 144 
Q 584 363 401 755 
Q 219 1147 219 1656 
Q 219 2153 384 2558 
Q 550 2963 881 3178 
Q 1213 3394 1622 3394 
Q 1922 3394 2156 3267 
Q 2391 3141 2538 2938 
L 2538 4581 
L 3097 4581 
L 3097 0 
L 2575 0 
z
M 797 1656 
Q 797 1019 1065 703 
Q 1334 388 1700 388 
Q 2069 388 2326 689 
Q 2584 991 2584 1609 
Q 2584 2291 2321 2609 
Q 2059 2928 1675 2928 
Q 1300 2928 1048 2622 
Q 797 2316 797 1656 
z
" transform="scale(0.015625)"/>
     </defs>
     <use xlink:href="#ArialMT-53"/>
     <use xlink:href="#ArialMT-74" transform="translate(66.699219 0)"/>
     <use xlink:href="#ArialMT-61" transform="translate(94.482422 0)"/>
     <use xlink:href="#ArialMT-6e" transform="translate(150.097656 0)"/>
     <use xlink:href="#ArialMT-64" transform="translate(205.712891 0)"/>
     <use xlink:href="#ArialMT-61" transform="translate(261.328125 0)"/>
     <use xlink:href="#ArialMT-72" transform="translate(316.943359 0)"/>
     <use xlink:href="#ArialMT-64" transform="translate(350.244141 0)"/>
     <use xlink:href="#ArialMT-20" transform="translate(405.859375 0)"/>
     <use xlink:href="#ArialMT-53" transform="translate(433.642578 0)"/>
     <use xlink:href="#ArialMT-49" transform="translate(500.341797 0)"/>
     <use xlink:href="#ArialMT-4e" transform="translate(528.125 0)"/>
     <use xlink:href="#ArialMT-44" transform="translate(600.341797 0)"/>
     <use xlink:href="#ArialMT-79" transform="translate(672.558594 0)"/>
    </g>
   </g>
   <g id="line2d_74">
    <path d="M 753.395625 55.810937 
L 763.395625 55.810937 
L 773.395625 55.810937 
" style="fill: none; stroke-dasharray: 22.4,5.6,3.5,5.6; stroke-dashoffset: 0; stroke: #0000ff; stroke-opacity: 0.8; stroke-width: 3.5"/>
   </g>
   <g id="text_26">
    <!-- Standard PySR -->
    <g style="fill: #262626" transform="translate(781.395625 59.310937) scale(0.1 -0.1)">
     <defs>
      <path id="ArialMT-50" d="M 494 0 
L 494 4581 
L 2222 4581 
Q 2678 4581 2919 4538 
Q 3256 4481 3484 4323 
Q 3713 4166 3852 3881 
Q 3991 3597 3991 3256 
Q 3991 2672 3619 2267 
Q 3247 1863 2275 1863 
L 1100 1863 
L 1100 0 
L 494 0 
z
M 1100 2403 
L 2284 2403 
Q 2872 2403 3119 2622 
Q 3366 2841 3366 3238 
Q 3366 3525 3220 3729 
Q 3075 3934 2838 4000 
Q 2684 4041 2272 4041 
L 1100 4041 
L 1100 2403 
z
" transform="scale(0.015625)"/>
      <path id="ArialMT-52" d="M 503 0 
L 503 4581 
L 2534 4581 
Q 3147 4581 3465 4457 
Q 3784 4334 3975 4021 
Q 4166 3709 4166 3331 
Q 4166 2844 3850 2509 
Q 3534 2175 2875 2084 
Q 3116 1969 3241 1856 
Q 3506 1613 3744 1247 
L 4541 0 
L 3778 0 
L 3172 953 
Q 2906 1366 2734 1584 
Q 2563 1803 2427 1890 
Q 2291 1978 2150 2013 
Q 2047 2034 1813 2034 
L 1109 2034 
L 1109 0 
L 503 0 
z
M 1109 2559 
L 2413 2559 
Q 2828 2559 3062 2645 
Q 3297 2731 3419 2920 
Q 3541 3109 3541 3331 
Q 3541 3656 3305 3865 
Q 3069 4075 2559 4075 
L 1109 4075 
L 1109 2559 
z
" transform="scale(0.015625)"/>
     </defs>
     <use xlink:href="#ArialMT-53"/>
     <use xlink:href="#ArialMT-74" transform="translate(66.699219 0)"/>
     <use xlink:href="#ArialMT-61" transform="translate(94.482422 0)"/>
     <use xlink:href="#ArialMT-6e" transform="translate(150.097656 0)"/>
     <use xlink:href="#ArialMT-64" transform="translate(205.712891 0)"/>
     <use xlink:href="#ArialMT-61" transform="translate(261.328125 0)"/>
     <use xlink:href="#ArialMT-72" transform="translate(316.943359 0)"/>
     <use xlink:href="#ArialMT-64" transform="translate(350.244141 0)"/>
     <use xlink:href="#ArialMT-20" transform="translate(405.859375 0)"/>
     <use xlink:href="#ArialMT-50" transform="translate(433.642578 0)"/>
     <use xlink:href="#ArialMT-79" transform="translate(500.341797 0)"/>
     <use xlink:href="#ArialMT-53" transform="translate(550.341797 0)"/>
     <use xlink:href="#ArialMT-52" transform="translate(617.041016 0)"/>
    </g>
   </g>
  </g>
 </g>
 <defs>
  <clipPath id="p9a8782293d">
   <rect x="46.36875" y="38.68" width="803.28" height="112.276034"/>
  </clipPath>
  <clipPath id="p4ccf086e1d">
   <rect x="46.36875" y="162.031983" width="803.28" height="112.276034"/>
  </clipPath>
  <clipPath id="p416f79fe98">
   <rect x="46.36875" y="285.383966" width="803.28" height="112.276034"/>
  </clipPath>
 </defs>
</svg>
