<?xml version="1.0" encoding="utf-8" standalone="no"?>
<!DOCTYPE svg PUBLIC "-//W3C//DTD SVG 1.1//EN"
  "http://www.w3.org/Graphics/SVG/1.1/DTD/svg11.dtd">
<svg xmlns:xlink="http://www.w3.org/1999/xlink" width="852.670313pt" height="285.79625pt" viewBox="0 0 852.670313 285.79625" xmlns="http://www.w3.org/2000/svg" version="1.1">
 <metadata>
  <rdf:RDF xmlns:dc="http://purl.org/dc/elements/1.1/" xmlns:cc="http://creativecommons.org/ns#" xmlns:rdf="http://www.w3.org/1999/02/22-rdf-syntax-ns#">
   <cc:Work>
    <dc:type rdf:resource="http://purl.org/dc/dcmitype/StillImage"/>
    <dc:date>2026-04-05T22:09:23.060142</dc:date>
    <dc:format>image/svg+xml</dc:format>
    <dc:creator>
     <cc:Agent>
      <dc:title>Matplotlib v3.10.7, https://matplotlib.org/</dc:title>
     </cc:Agent>
    </dc:creator>
   </cc:Work>
  </rdf:RDF>
 </metadata>
 <defs>
  <style type="text/css">*{stroke-linejoin: round; stroke-linecap: butt}</style>
 </defs>
 <g id="figure_1">
  <g id="patch_1">
   <path d="M 0 285.79625 
L 852.670313 285.79625 
L 852.670313 0 
L 0 0 
z
" style="fill: #ffffff"/>
  </g>
  <g id="axes_1">
   <g id="patch_2">
    <path d="M 42.620313 137.593858 
L 839.670312 137.593858 
L 839.670312 41.407552 
L 42.620313 41.407552 
z
" style="fill: #ffffff"/>
   </g>
   <g id="line2d_1">
    <path d="M 78.849858 67.989516 
L 86.110288 68.678369 
L 96.27489 69.386049 
L 115.152008 70.430506 
L 154.358329 72.585328 
L 174.687533 73.932317 
L 190.660479 75.202591 
L 203.729253 76.453823 
L 213.893855 77.624743 
L 222.606371 78.831614 
L 229.866801 80.032318 
L 237.127231 81.46316 
L 242.935575 82.823456 
L 248.743919 84.421115 
L 254.552263 86.292794 
L 260.360607 88.452832 
L 267.621037 91.4717 
L 276.333553 95.125291 
L 280.689811 96.720546 
L 285.046069 98.045549 
L 289.402327 99.067007 
L 293.758584 99.803194 
L 298.114842 100.291498 
L 303.923186 100.65498 
L 311.183616 100.806755 
L 319.896132 100.74275 
L 334.416992 100.370923 
L 359.102454 99.477542 
L 391.048346 98.106872 
L 418.63798 96.714271 
L 441.871355 95.320316 
L 459.296387 94.062321 
L 473.817247 92.797754 
L 485.433935 91.578169 
L 495.598537 90.282591 
L 504.311053 88.927189 
L 511.571483 87.564753 
L 517.379827 86.273459 
L 523.188171 84.757802 
L 528.996515 82.979177 
L 534.804859 80.913081 
L 540.613203 78.582516 
L 553.681977 73.120422 
L 558.038235 71.585796 
L 562.394493 70.326816 
L 566.750751 69.364547 
L 571.107009 68.680274 
L 575.463267 68.230187 
L 581.271611 67.902951 
L 588.532041 67.77784 
L 598.696642 67.887367 
L 614.669588 68.336961 
L 642.259222 69.371975 
L 674.205114 70.782054 
L 701.794748 72.220202 
L 723.576038 73.580498 
L 741.001069 74.891283 
L 754.069843 76.078022 
L 765.686531 77.344633 
L 774.399047 78.486005 
L 781.659477 79.619736 
L 788.919907 80.975302 
L 794.728251 82.260924 
L 800.536595 83.764223 
L 803.440767 84.60983 
L 803.440767 84.60983 
" clip-path="url(#pd91dd5fc4e)" style="fill: none; stroke: #000000; stroke-opacity: 0.4; stroke-width: 6; stroke-linecap: square"/>
   </g>
   <g id="matplotlib.axis_1">
    <g id="xtick_1">
     <g id="line2d_2">
      <defs>
       <path id="m67275e0575" d="M 0 0 
L 0 3.5 
" style="stroke: #000000; stroke-width: 0.8"/>
      </defs>
      <g>
       <use xlink:href="#m67275e0575" x="78.849858" y="137.593858" style="stroke: #000000; stroke-width: 0.8"/>
      </g>
     </g>
    </g>
    <g id="xtick_2">
     <g id="line2d_3">
      <g>
       <use xlink:href="#m67275e0575" x="223.76804" y="137.593858" style="stroke: #000000; stroke-width: 0.8"/>
      </g>
     </g>
    </g>
    <g id="xtick_3">
     <g id="line2d_4">
      <g>
       <use xlink:href="#m67275e0575" x="368.686222" y="137.593858" style="stroke: #000000; stroke-width: 0.8"/>
      </g>
     </g>
    </g>
    <g id="xtick_4">
     <g id="line2d_5">
      <g>
       <use xlink:href="#m67275e0575" x="513.604403" y="137.593858" style="stroke: #000000; stroke-width: 0.8"/>
      </g>
     </g>
    </g>
    <g id="xtick_5">
     <g id="line2d_6">
      <g>
       <use xlink:href="#m67275e0575" x="658.522585" y="137.593858" style="stroke: #000000; stroke-width: 0.8"/>
      </g>
     </g>
    </g>
    <g id="xtick_6">
     <g id="line2d_7">
      <g>
       <use xlink:href="#m67275e0575" x="803.440767" y="137.593858" style="stroke: #000000; stroke-width: 0.8"/>
      </g>
     </g>
    </g>
   </g>
   <g id="matplotlib.axis_2">
    <g id="ytick_1">
     <g id="line2d_8">
      <defs>
       <path id="m0ed10bded0" d="M 0 0 
L -3.5 0 
" style="stroke: #000000; stroke-width: 0.8"/>
      </defs>
      <g>
       <use xlink:href="#m0ed10bded0" x="42.620313" y="125.132538" style="stroke: #000000; stroke-width: 0.8"/>
      </g>
     </g>
     <g id="text_1">
      <!-- −5 -->
      <g transform="translate(20.878125 128.931757) scale(0.1 -0.1)">
       <defs>
        <path id="DejaVuSans-2212" d="M 678 2272 
L 4684 2272 
L 4684 1741 
L 678 1741 
L 678 2272 
z
" transform="scale(0.015625)"/>
        <path id="DejaVuSans-35" d="M 691 4666 
L 3169 4666 
L 3169 4134 
L 1269 4134 
L 1269 2991 
Q 1406 3038 1543 3061 
Q 1681 3084 1819 3084 
Q 2600 3084 3056 2656 
Q 3513 2228 3513 1497 
Q 3513 744 3044 326 
Q 2575 -91 1722 -91 
Q 1428 -91 1123 -41 
Q 819 9 494 109 
L 494 744 
Q 775 591 1075 516 
Q 1375 441 1709 441 
Q 2250 441 2565 725 
Q 2881 1009 2881 1497 
Q 2881 1984 2565 2268 
Q 2250 2553 1709 2553 
Q 1456 2553 1204 2497 
Q 953 2441 691 2322 
L 691 4666 
z
" transform="scale(0.015625)"/>
       </defs>
       <use xlink:href="#DejaVuSans-2212"/>
       <use xlink:href="#DejaVuSans-35" transform="translate(83.789062 0)"/>
      </g>
     </g>
    </g>
    <g id="ytick_2">
     <g id="line2d_9">
      <g>
       <use xlink:href="#m0ed10bded0" x="42.620313" y="84.316094" style="stroke: #000000; stroke-width: 0.8"/>
      </g>
     </g>
     <g id="text_2">
      <!-- 0 -->
      <g transform="translate(29.257813 88.115313) scale(0.1 -0.1)">
       <defs>
        <path id="DejaVuSans-30" d="M 2034 4250 
Q 1547 4250 1301 3770 
Q 1056 3291 1056 2328 
Q 1056 1369 1301 889 
Q 1547 409 2034 409 
Q 2525 409 2770 889 
Q 3016 1369 3016 2328 
Q 3016 3291 2770 3770 
Q 2525 4250 2034 4250 
z
M 2034 4750 
Q 2819 4750 3233 4129 
Q 3647 3509 3647 2328 
Q 3647 1150 3233 529 
Q 2819 -91 2034 -91 
Q 1250 -91 836 529 
Q 422 1150 422 2328 
Q 422 3509 836 4129 
Q 1250 4750 2034 4750 
z
" transform="scale(0.015625)"/>
       </defs>
       <use xlink:href="#DejaVuSans-30"/>
      </g>
     </g>
    </g>
    <g id="ytick_3">
     <g id="line2d_10">
      <g>
       <use xlink:href="#m0ed10bded0" x="42.620313" y="43.49965" style="stroke: #000000; stroke-width: 0.8"/>
      </g>
     </g>
     <g id="text_3">
      <!-- 5 -->
      <g transform="translate(29.257813 47.298869) scale(0.1 -0.1)">
       <use xlink:href="#DejaVuSans-35"/>
      </g>
     </g>
    </g>
    <g id="text_4">
     <!-- $x0$ -->
     <g transform="translate(14.798438 95.650705) rotate(-90) scale(0.1 -0.1)">
      <defs>
       <path id="DejaVuSans-Oblique-78" d="M 3841 3500 
L 2234 1784 
L 3219 0 
L 2559 0 
L 1819 1388 
L 531 0 
L -166 0 
L 1556 1844 
L 641 3500 
L 1300 3500 
L 1972 2234 
L 3144 3500 
L 3841 3500 
z
" transform="scale(0.015625)"/>
      </defs>
      <use xlink:href="#DejaVuSans-Oblique-78" transform="translate(0 0.78125)"/>
      <use xlink:href="#DejaVuSans-30" transform="translate(59.179688 0.78125)"/>
     </g>
    </g>
   </g>
   <g id="line2d_11">
    <path d="M 78.849858 67.989516 
L 90.466546 69.415263 
L 106.439492 71.617368 
L 119.508266 73.605562 
L 129.672868 75.348615 
L 138.385384 77.053116 
L 145.645814 78.666952 
L 152.906243 80.487757 
L 160.166673 82.53452 
L 167.427103 84.815111 
L 174.687533 87.330675 
L 181.947963 90.074753 
L 192.112565 94.194593 
L 199.372995 97.086373 
L 205.181339 99.176056 
L 210.989683 101.024261 
L 219.702199 103.500593 
L 235.675145 107.773018 
L 241.483489 109.088496 
L 247.291833 110.159758 
L 253.100177 111.002517 
L 260.360607 111.789104 
L 267.621037 112.317115 
L 274.881467 112.59037 
L 280.689811 112.613975 
L 286.498155 112.451282 
L 292.306499 112.092411 
L 298.114842 111.536239 
L 305.375272 110.592095 
L 314.087788 109.197915 
L 322.800304 107.60326 
L 330.060734 106.061198 
L 335.869078 104.597463 
L 341.677422 102.88737 
L 351.842024 99.555918 
L 366.362884 94.897389 
L 375.0754 92.01164 
L 382.33583 89.360363 
L 388.144174 87.020566 
L 393.952518 84.469712 
L 399.760862 81.705816 
L 405.569206 78.733001 
L 414.281722 73.982427 
L 420.090066 70.867104 
L 425.89841 68.029265 
L 436.063012 63.484392 
L 444.775527 59.635404 
L 450.583871 57.393536 
L 460.748473 53.84159 
L 466.556817 52.001312 
L 470.913075 50.829838 
L 476.721419 49.488426 
L 483.981849 48.028262 
L 489.790193 47.060779 
L 495.598537 46.354708 
L 501.406881 45.932579 
L 507.215225 45.779657 
L 513.023569 45.876303 
L 518.831913 46.202947 
L 524.640257 46.741589 
L 530.448601 47.490449 
L 536.256945 48.485632 
L 540.613203 49.430783 
L 546.421547 50.947009 
L 555.134063 53.49014 
L 560.942407 55.395812 
L 566.750751 57.612663 
L 579.819525 62.956474 
L 584.175783 64.943459 
L 610.31333 77.683635 
L 616.121674 80.765417 
L 621.930018 84.121105 
L 627.738362 87.759027 
L 633.546706 91.665859 
L 643.711308 98.66429 
L 649.519652 102.284372 
L 665.492598 111.788031 
L 675.6572 117.212245 
L 682.91763 120.634569 
L 687.273888 122.58036 
L 691.630146 124.313043 
L 698.890576 126.958568 
L 703.246834 128.332367 
L 709.055178 129.863038 
L 714.863522 131.17946 
L 719.21978 131.98282 
L 723.576038 132.579962 
L 727.932296 132.974849 
L 732.288554 133.182816 
L 736.644811 133.211715 
L 741.001069 133.065038 
L 746.809413 132.608372 
L 752.617757 131.882677 
L 758.426101 130.896471 
L 762.782359 129.942164 
L 767.138617 128.772167 
L 774.399047 126.527283 
L 778.755305 124.997477 
L 784.563649 122.649978 
L 790.371993 120.153248 
L 794.728251 118.062015 
L 803.440767 113.623733 
L 803.440767 113.623733 
" clip-path="url(#pd91dd5fc4e)" style="fill: none; stroke-dasharray: 22.4,5.6,3.5,5.6; stroke-dashoffset: 0; stroke: #0000ff; stroke-opacity: 0.8; stroke-width: 3.5"/>
   </g>
   <g id="patch_3">
    <path d="M 42.620313 137.593858 
L 42.620313 41.407552 
" style="fill: none; stroke: #000000; stroke-width: 0.8; stroke-linejoin: miter; stroke-linecap: square"/>
   </g>
   <g id="patch_4">
    <path d="M 839.670312 137.593858 
L 839.670312 41.407552 
" style="fill: none; stroke: #000000; stroke-width: 0.8; stroke-linejoin: miter; stroke-linecap: square"/>
   </g>
   <g id="patch_5">
    <path d="M 42.620313 137.593858 
L 839.670312 137.593858 
" style="fill: none; stroke: #000000; stroke-width: 0.8; stroke-linejoin: miter; stroke-linecap: square"/>
   </g>
   <g id="patch_6">
    <path d="M 42.620313 41.407552 
L 839.670312 41.407552 
" style="fill: none; stroke: #000000; stroke-width: 0.8; stroke-linejoin: miter; stroke-linecap: square"/>
   </g>
   <g id="line2d_12">
    <path d="M 78.849858 67.989516 
L 86.110288 68.676684 
L 96.27489 69.380945 
L 115.152008 70.418659 
L 154.358329 72.566893 
L 174.687533 73.914034 
L 190.660479 75.185671 
L 203.729253 76.442919 
L 213.893855 77.621168 
L 222.606371 78.830731 
L 229.866801 80.031615 
L 237.127231 81.467081 
L 242.935575 82.832328 
L 248.743919 84.435305 
L 254.552263 86.313003 
L 260.360607 88.477202 
L 267.621037 91.501841 
L 276.333553 95.159454 
L 280.689811 96.754173 
L 285.046069 98.075269 
L 289.402327 99.091134 
L 293.758584 99.817788 
L 298.114842 100.300798 
L 303.923186 100.660041 
L 311.183616 100.80863 
L 319.896132 100.741918 
L 334.416992 100.36918 
L 359.102454 99.478944 
L 391.048346 98.113022 
L 418.63798 96.724358 
L 440.41927 95.423024 
L 457.844301 94.180806 
L 472.365161 92.936857 
L 483.981849 91.73725 
L 494.146451 90.469184 
L 502.858967 89.151061 
L 510.119397 87.827853 
L 515.927741 86.576406 
L 521.736085 85.11047 
L 527.544429 83.388866 
L 533.352773 81.382557 
L 539.161117 79.101808 
L 555.134063 72.493527 
L 559.490321 71.055744 
L 563.846579 69.916785 
L 568.202837 69.077956 
L 572.559095 68.503175 
L 576.915353 68.139293 
L 582.723697 67.891341 
L 589.984126 67.825342 
L 600.148728 67.974499 
L 617.57376 68.496097 
L 646.61548 69.614426 
L 678.561372 71.063568 
L 704.69892 72.472697 
L 725.028124 73.78519 
L 741.001069 75.023328 
L 754.069843 76.242365 
L 765.686531 77.558618 
L 774.399047 78.753672 
L 781.659477 79.938651 
L 788.919907 81.353445 
L 794.728251 82.697891 
L 800.536595 84.276074 
L 803.440767 85.165254 
L 803.440767 85.165254 
" clip-path="url(#pd91dd5fc4e)" style="fill: none; stroke-dasharray: 3.5,5.775; stroke-dashoffset: 0; stroke: #008000; stroke-opacity: 0.8; stroke-width: 3.5"/>
   </g>
   <g id="line2d_13">
    <path d="M 78.849858 67.989516 
L 86.110288 68.676684 
L 96.27489 69.380945 
L 115.152008 70.418659 
L 154.358329 72.566893 
L 174.687533 73.914034 
L 190.660479 75.185671 
L 203.729253 76.442919 
L 213.893855 77.621168 
L 222.606371 78.830731 
L 229.866801 80.031615 
L 237.127231 81.467081 
L 242.935575 82.832328 
L 248.743919 84.435305 
L 254.552263 86.313003 
L 260.360607 88.477202 
L 267.621037 91.501841 
L 276.333553 95.159454 
L 280.689811 96.754173 
L 285.046069 98.075269 
L 289.402327 99.091134 
L 293.758584 99.817788 
L 298.114842 100.300798 
L 303.923186 100.660041 
L 311.183616 100.80863 
L 319.896132 100.741918 
L 334.416992 100.36918 
L 359.102454 99.478944 
L 391.048346 98.113022 
L 418.63798 96.724358 
L 440.41927 95.423024 
L 457.844301 94.180806 
L 472.365161 92.936857 
L 483.981849 91.73725 
L 494.146451 90.469184 
L 502.858967 89.151061 
L 510.119397 87.827853 
L 515.927741 86.576406 
L 521.736085 85.11047 
L 527.544429 83.388866 
L 533.352773 81.382557 
L 539.161117 79.101808 
L 555.134063 72.493527 
L 559.490321 71.055744 
L 563.846579 69.916785 
L 568.202837 69.077956 
L 572.559095 68.503175 
L 576.915353 68.139293 
L 582.723697 67.891341 
L 589.984126 67.825342 
L 600.148728 67.974499 
L 617.57376 68.496097 
L 646.61548 69.614426 
L 678.561372 71.063568 
L 704.69892 72.472697 
L 725.028124 73.78519 
L 741.001069 75.023328 
L 754.069843 76.242365 
L 765.686531 77.558618 
L 774.399047 78.753672 
L 781.659477 79.938651 
L 788.919907 81.353445 
L 794.728251 82.697891 
L 800.536595 84.276074 
L 803.440767 85.165254 
L 803.440767 85.165254 
" clip-path="url(#pd91dd5fc4e)" style="fill: none; stroke-dasharray: 12.95,5.6; stroke-dashoffset: 0; stroke: #ff0000; stroke-opacity: 0.8; stroke-width: 3.5"/>
   </g>
  </g>
  <g id="axes_2">
   <g id="patch_7">
    <path d="M 42.620313 248.24 
L 839.670312 248.24 
L 839.670312 152.053694 
L 42.620313 152.053694 
z
" style="fill: #ffffff"/>
   </g>
   <g id="line2d_14">
    <path d="M 78.849858 202.825902 
L 81.75403 201.740424 
L 84.658202 200.932243 
L 87.562374 200.324719 
L 91.918632 199.685613 
L 97.726976 199.15195 
L 103.53532 198.84747 
L 112.247836 198.640945 
L 123.864524 198.621096 
L 139.83747 198.841824 
L 157.262501 199.307323 
L 171.783361 199.890606 
L 184.852135 200.636404 
L 195.016737 201.440643 
L 203.729253 202.347854 
L 210.989683 203.324849 
L 216.798027 204.307707 
L 222.606371 205.526305 
L 226.962629 206.632703 
L 231.318887 207.937685 
L 235.675145 209.474169 
L 240.031403 211.277619 
L 244.387661 213.372639 
L 248.743919 215.741473 
L 256.004349 220.06598 
L 260.360607 222.505637 
L 263.264779 223.823867 
L 264.716865 224.332374 
L 266.168951 224.710594 
L 267.621037 224.93407 
L 269.073123 224.981677 
L 270.525209 224.840569 
L 271.977295 224.503067 
L 273.429381 223.966372 
L 274.881467 223.232568 
L 276.333553 222.308622 
L 277.785639 221.206383 
L 280.689811 218.538835 
L 283.593983 215.42908 
L 290.854413 207.419684 
L 293.758584 204.583995 
L 296.662756 202.14003 
L 299.566928 200.131863 
L 302.4711 198.492252 
L 305.375272 197.175057 
L 308.279444 196.132941 
L 311.183616 195.314875 
L 314.087788 194.6749 
L 318.444046 193.968526 
L 322.800304 193.478974 
L 328.608648 193.045799 
L 337.321164 192.663459 
L 350.389938 192.353944 
L 425.89841 190.932269 
L 443.323441 190.295676 
L 456.392215 189.618959 
L 468.008903 188.79796 
L 476.721419 187.974161 
L 483.981849 187.097315 
L 491.242279 185.976234 
L 497.050623 184.841086 
L 501.406881 183.812038 
L 505.763139 182.598343 
L 510.119397 181.168694 
L 514.475655 179.487543 
L 518.831913 177.516974 
L 523.188171 175.259923 
L 527.544429 172.764418 
L 536.256945 167.654432 
L 539.161117 166.304433 
L 540.613203 165.771887 
L 542.065289 165.359038 
L 543.517375 165.085231 
L 544.969461 164.970456 
L 546.421547 165.035344 
L 547.873633 165.301169 
L 549.325719 165.794643 
L 550.777805 166.51121 
L 552.229891 167.423628 
L 553.681977 168.505373 
L 556.586149 171.074425 
L 559.490321 174.020877 
L 568.202837 183.326087 
L 571.107009 186.031161 
L 574.011181 188.345876 
L 576.915353 190.270017 
L 579.819525 191.828149 
L 582.723697 193.068884 
L 585.627869 194.048785 
L 588.532041 194.816051 
L 592.888298 195.662118 
L 597.244556 196.245196 
L 603.0529 196.755646 
L 610.31333 197.140127 
L 621.930018 197.476864 
L 645.163394 197.849402 
L 684.369716 198.511163 
L 706.151006 199.083981 
L 723.576038 199.75486 
L 736.644811 200.464334 
L 746.809413 201.21647 
L 755.521929 202.066441 
L 764.234445 203.159304 
L 770.042789 204.102367 
L 775.851133 205.297174 
L 780.207391 206.395484 
L 784.563649 207.693154 
L 788.919907 209.211286 
L 793.276165 210.968835 
L 797.632423 212.982602 
L 801.988681 215.267235 
L 803.440767 216.091194 
L 803.440767 216.091194 
" clip-path="url(#p438978fb59)" style="fill: none; stroke: #000000; stroke-opacity: 0.4; stroke-width: 6; stroke-linecap: square"/>
   </g>
   <g id="matplotlib.axis_3">
    <g id="xtick_7">
     <g id="line2d_15">
      <g>
       <use xlink:href="#m67275e0575" x="78.849858" y="248.24" style="stroke: #000000; stroke-width: 0.8"/>
      </g>
     </g>
     <g id="text_5">
      <!-- 0 -->
      <g transform="translate(75.668608 262.838437) scale(0.1 -0.1)">
       <use xlink:href="#DejaVuSans-30"/>
      </g>
     </g>
    </g>
    <g id="xtick_8">
     <g id="line2d_16">
      <g>
       <use xlink:href="#m67275e0575" x="223.76804" y="248.24" style="stroke: #000000; stroke-width: 0.8"/>
      </g>
     </g>
     <g id="text_6">
      <!-- 2 -->
      <g transform="translate(220.58679 262.838437) scale(0.1 -0.1)">
       <defs>
        <path id="DejaVuSans-32" d="M 1228 531 
L 3431 531 
L 3431 0 
L 469 0 
L 469 531 
Q 828 903 1448 1529 
Q 2069 2156 2228 2338 
Q 2531 2678 2651 2914 
Q 2772 3150 2772 3378 
Q 2772 3750 2511 3984 
Q 2250 4219 1831 4219 
Q 1534 4219 1204 4116 
Q 875 4013 500 3803 
L 500 4441 
Q 881 4594 1212 4672 
Q 1544 4750 1819 4750 
Q 2544 4750 2975 4387 
Q 3406 4025 3406 3419 
Q 3406 3131 3298 2873 
Q 3191 2616 2906 2266 
Q 2828 2175 2409 1742 
Q 1991 1309 1228 531 
z
" transform="scale(0.015625)"/>
       </defs>
       <use xlink:href="#DejaVuSans-32"/>
      </g>
     </g>
    </g>
    <g id="xtick_9">
     <g id="line2d_17">
      <g>
       <use xlink:href="#m67275e0575" x="368.686222" y="248.24" style="stroke: #000000; stroke-width: 0.8"/>
      </g>
     </g>
     <g id="text_7">
      <!-- 4 -->
      <g transform="translate(365.504972 262.838437) scale(0.1 -0.1)">
       <defs>
        <path id="DejaVuSans-34" d="M 2419 4116 
L 825 1625 
L 2419 1625 
L 2419 4116 
z
M 2253 4666 
L 3047 4666 
L 3047 1625 
L 3713 1625 
L 3713 1100 
L 3047 1100 
L 3047 0 
L 2419 0 
L 2419 1100 
L 313 1100 
L 313 1709 
L 2253 4666 
z
" transform="scale(0.015625)"/>
       </defs>
       <use xlink:href="#DejaVuSans-34"/>
      </g>
     </g>
    </g>
    <g id="xtick_10">
     <g id="line2d_18">
      <g>
       <use xlink:href="#m67275e0575" x="513.604403" y="248.24" style="stroke: #000000; stroke-width: 0.8"/>
      </g>
     </g>
     <g id="text_8">
      <!-- 6 -->
      <g transform="translate(510.423153 262.838437) scale(0.1 -0.1)">
       <defs>
        <path id="DejaVuSans-36" d="M 2113 2584 
Q 1688 2584 1439 2293 
Q 1191 2003 1191 1497 
Q 1191 994 1439 701 
Q 1688 409 2113 409 
Q 2538 409 2786 701 
Q 3034 994 3034 1497 
Q 3034 2003 2786 2293 
Q 2538 2584 2113 2584 
z
M 3366 4563 
L 3366 3988 
Q 3128 4100 2886 4159 
Q 2644 4219 2406 4219 
Q 1781 4219 1451 3797 
Q 1122 3375 1075 2522 
Q 1259 2794 1537 2939 
Q 1816 3084 2150 3084 
Q 2853 3084 3261 2657 
Q 3669 2231 3669 1497 
Q 3669 778 3244 343 
Q 2819 -91 2113 -91 
Q 1303 -91 875 529 
Q 447 1150 447 2328 
Q 447 3434 972 4092 
Q 1497 4750 2381 4750 
Q 2619 4750 2861 4703 
Q 3103 4656 3366 4563 
z
" transform="scale(0.015625)"/>
       </defs>
       <use xlink:href="#DejaVuSans-36"/>
      </g>
     </g>
    </g>
    <g id="xtick_11">
     <g id="line2d_19">
      <g>
       <use xlink:href="#m67275e0575" x="658.522585" y="248.24" style="stroke: #000000; stroke-width: 0.8"/>
      </g>
     </g>
     <g id="text_9">
      <!-- 8 -->
      <g transform="translate(655.341335 262.838437) scale(0.1 -0.1)">
       <defs>
        <path id="DejaVuSans-38" d="M 2034 2216 
Q 1584 2216 1326 1975 
Q 1069 1734 1069 1313 
Q 1069 891 1326 650 
Q 1584 409 2034 409 
Q 2484 409 2743 651 
Q 3003 894 3003 1313 
Q 3003 1734 2745 1975 
Q 2488 2216 2034 2216 
z
M 1403 2484 
Q 997 2584 770 2862 
Q 544 3141 544 3541 
Q 544 4100 942 4425 
Q 1341 4750 2034 4750 
Q 2731 4750 3128 4425 
Q 3525 4100 3525 3541 
Q 3525 3141 3298 2862 
Q 3072 2584 2669 2484 
Q 3125 2378 3379 2068 
Q 3634 1759 3634 1313 
Q 3634 634 3220 271 
Q 2806 -91 2034 -91 
Q 1263 -91 848 271 
Q 434 634 434 1313 
Q 434 1759 690 2068 
Q 947 2378 1403 2484 
z
M 1172 3481 
Q 1172 3119 1398 2916 
Q 1625 2713 2034 2713 
Q 2441 2713 2670 2916 
Q 2900 3119 2900 3481 
Q 2900 3844 2670 4047 
Q 2441 4250 2034 4250 
Q 1625 4250 1398 4047 
Q 1172 3844 1172 3481 
z
" transform="scale(0.015625)"/>
       </defs>
       <use xlink:href="#DejaVuSans-38"/>
      </g>
     </g>
    </g>
    <g id="xtick_12">
     <g id="line2d_20">
      <g>
       <use xlink:href="#m67275e0575" x="803.440767" y="248.24" style="stroke: #000000; stroke-width: 0.8"/>
      </g>
     </g>
     <g id="text_10">
      <!-- 10 -->
      <g transform="translate(797.078267 262.838437) scale(0.1 -0.1)">
       <defs>
        <path id="DejaVuSans-31" d="M 794 531 
L 1825 531 
L 1825 4091 
L 703 3866 
L 703 4441 
L 1819 4666 
L 2450 4666 
L 2450 531 
L 3481 531 
L 3481 0 
L 794 0 
L 794 531 
z
" transform="scale(0.015625)"/>
       </defs>
       <use xlink:href="#DejaVuSans-31"/>
       <use xlink:href="#DejaVuSans-30" transform="translate(63.623047 0)"/>
      </g>
     </g>
    </g>
    <g id="text_11">
     <!-- Time -->
     <g transform="translate(428.911719 276.516562) scale(0.1 -0.1)">
      <defs>
       <path id="DejaVuSans-54" d="M -19 4666 
L 3928 4666 
L 3928 4134 
L 2272 4134 
L 2272 0 
L 1638 0 
L 1638 4134 
L -19 4134 
L -19 4666 
z
" transform="scale(0.015625)"/>
       <path id="DejaVuSans-69" d="M 603 3500 
L 1178 3500 
L 1178 0 
L 603 0 
L 603 3500 
z
M 603 4863 
L 1178 4863 
L 1178 4134 
L 603 4134 
L 603 4863 
z
" transform="scale(0.015625)"/>
       <path id="DejaVuSans-6d" d="M 3328 2828 
Q 3544 3216 3844 3400 
Q 4144 3584 4550 3584 
Q 5097 3584 5394 3201 
Q 5691 2819 5691 2113 
L 5691 0 
L 5113 0 
L 5113 2094 
Q 5113 2597 4934 2840 
Q 4756 3084 4391 3084 
Q 3944 3084 3684 2787 
Q 3425 2491 3425 1978 
L 3425 0 
L 2847 0 
L 2847 2094 
Q 2847 2600 2669 2842 
Q 2491 3084 2119 3084 
Q 1678 3084 1418 2786 
Q 1159 2488 1159 1978 
L 1159 0 
L 581 0 
L 581 3500 
L 1159 3500 
L 1159 2956 
Q 1356 3278 1631 3431 
Q 1906 3584 2284 3584 
Q 2666 3584 2933 3390 
Q 3200 3197 3328 2828 
z
" transform="scale(0.015625)"/>
       <path id="DejaVuSans-65" d="M 3597 1894 
L 3597 1613 
L 953 1613 
Q 991 1019 1311 708 
Q 1631 397 2203 397 
Q 2534 397 2845 478 
Q 3156 559 3463 722 
L 3463 178 
Q 3153 47 2828 -22 
Q 2503 -91 2169 -91 
Q 1331 -91 842 396 
Q 353 884 353 1716 
Q 353 2575 817 3079 
Q 1281 3584 2069 3584 
Q 2775 3584 3186 3129 
Q 3597 2675 3597 1894 
z
M 3022 2063 
Q 3016 2534 2758 2815 
Q 2500 3097 2075 3097 
Q 1594 3097 1305 2825 
Q 1016 2553 972 2059 
L 3022 2063 
z
" transform="scale(0.015625)"/>
      </defs>
      <use xlink:href="#DejaVuSans-54"/>
      <use xlink:href="#DejaVuSans-69" transform="translate(57.958984 0)"/>
      <use xlink:href="#DejaVuSans-6d" transform="translate(85.742188 0)"/>
      <use xlink:href="#DejaVuSans-65" transform="translate(183.154297 0)"/>
     </g>
    </g>
   </g>
   <g id="matplotlib.axis_4">
    <g id="ytick_4">
     <g id="line2d_21">
      <g>
       <use xlink:href="#m0ed10bded0" x="42.620313" y="234.256556" style="stroke: #000000; stroke-width: 0.8"/>
      </g>
     </g>
     <g id="text_12">
      <!-- −5 -->
      <g transform="translate(20.878125 238.055775) scale(0.1 -0.1)">
       <use xlink:href="#DejaVuSans-2212"/>
       <use xlink:href="#DejaVuSans-35" transform="translate(83.789062 0)"/>
      </g>
     </g>
    </g>
    <g id="ytick_5">
     <g id="line2d_22">
      <g>
       <use xlink:href="#m0ed10bded0" x="42.620313" y="194.968239" style="stroke: #000000; stroke-width: 0.8"/>
      </g>
     </g>
     <g id="text_13">
      <!-- 0 -->
      <g transform="translate(29.257813 198.767457) scale(0.1 -0.1)">
       <use xlink:href="#DejaVuSans-30"/>
      </g>
     </g>
    </g>
    <g id="ytick_6">
     <g id="line2d_23">
      <g>
       <use xlink:href="#m0ed10bded0" x="42.620313" y="155.679921" style="stroke: #000000; stroke-width: 0.8"/>
      </g>
     </g>
     <g id="text_14">
      <!-- 5 -->
      <g transform="translate(29.257813 159.47914) scale(0.1 -0.1)">
       <use xlink:href="#DejaVuSans-35"/>
      </g>
     </g>
    </g>
    <g id="text_15">
     <!-- $x1$ -->
     <g transform="translate(14.798438 206.296847) rotate(-90) scale(0.1 -0.1)">
      <use xlink:href="#DejaVuSans-Oblique-78" transform="translate(0 0.09375)"/>
      <use xlink:href="#DejaVuSans-31" transform="translate(59.179688 0.09375)"/>
     </g>
    </g>
   </g>
   <g id="line2d_24">
    <path d="M 78.849858 202.825902 
L 84.658202 203.553306 
L 90.466546 204.070042 
L 100.631148 204.693918 
L 110.79575 205.3453 
L 118.05618 206.024978 
L 123.864524 206.765352 
L 129.672868 207.712002 
L 135.481212 208.87838 
L 141.289556 210.258525 
L 148.549985 212.237882 
L 158.714587 215.298158 
L 180.495877 221.959458 
L 184.852135 223.013014 
L 187.756307 223.472929 
L 190.660479 223.620808 
L 192.112565 223.545908 
L 193.564651 223.359186 
L 195.016737 223.056418 
L 197.920909 222.116225 
L 200.825081 220.813689 
L 209.537597 216.485529 
L 212.441769 215.423218 
L 215.345941 214.676977 
L 218.250113 214.238807 
L 221.154285 214.050639 
L 228.414715 213.850276 
L 231.318887 213.435533 
L 234.223059 212.636904 
L 237.127231 211.468312 
L 241.483489 209.296982 
L 247.291833 206.359362 
L 251.648091 204.437109 
L 256.004349 202.76274 
L 263.264779 200.280173 
L 274.881467 196.321481 
L 282.141897 193.59281 
L 290.854413 190.060857 
L 298.114842 187.157057 
L 302.4711 185.645431 
L 306.827358 184.433165 
L 311.183616 183.519223 
L 321.348218 181.668898 
L 324.25239 180.921502 
L 327.156562 179.974452 
L 330.060734 178.80233 
L 332.964906 177.419352 
L 340.225336 173.714214 
L 343.129508 172.612656 
L 344.581594 172.230369 
L 346.03368 171.970834 
L 348.937852 171.794598 
L 351.842024 171.962214 
L 360.55454 172.832917 
L 363.458712 172.853584 
L 366.362884 172.655611 
L 369.267056 172.234148 
L 372.171228 171.6 
L 375.0754 170.776974 
L 379.431658 169.255401 
L 385.240002 166.879227 
L 407.021292 157.527533 
L 409.925464 156.717036 
L 411.37755 156.490797 
L 412.829636 156.425799 
L 414.281722 156.548613 
L 415.733808 156.876203 
L 417.185894 157.408635 
L 418.63798 158.12553 
L 421.542152 159.936198 
L 424.446324 161.829442 
L 425.89841 162.646643 
L 427.350496 163.310037 
L 428.802582 163.786823 
L 430.254668 164.063566 
L 431.706754 164.146622 
L 434.610926 163.870162 
L 437.515098 163.485944 
L 438.967184 163.49704 
L 440.41927 163.759348 
L 441.871355 164.306336 
L 443.323441 165.111059 
L 449.131785 168.999685 
L 450.583871 169.680225 
L 452.035957 170.158455 
L 453.488043 170.449407 
L 456.392215 170.67802 
L 459.296387 170.980082 
L 460.748473 171.368367 
L 462.200559 171.970313 
L 463.652645 172.774781 
L 466.556817 174.743426 
L 469.460989 176.710299 
L 472.365161 178.30491 
L 475.269333 179.468598 
L 479.625591 180.737953 
L 482.529763 181.596446 
L 485.433935 182.682572 
L 488.338107 184.053583 
L 492.694365 186.491312 
L 501.406881 191.555699 
L 507.215225 194.668765 
L 513.023569 197.54973 
L 518.831913 200.191968 
L 530.448601 205.299662 
L 533.352773 206.852038 
L 536.256945 208.629425 
L 542.065289 212.456668 
L 543.517375 213.265185 
L 544.969461 213.931935 
L 546.421547 214.441719 
L 549.325719 215.071871 
L 552.229891 215.538718 
L 553.681977 215.869335 
L 555.134063 216.333377 
L 556.586149 216.960311 
L 558.038235 217.7563 
L 560.942407 219.73375 
L 563.846579 221.716246 
L 565.298665 222.460892 
L 566.750751 222.947701 
L 568.202837 223.175652 
L 571.107009 223.136594 
L 574.011181 223.127705 
L 575.463267 223.352523 
L 576.915353 223.790636 
L 578.367439 224.446264 
L 579.819525 225.294424 
L 584.175783 228.268423 
L 585.627869 229.077293 
L 587.079955 229.645793 
L 588.532041 229.938968 
L 589.984126 229.964691 
L 591.436212 229.775036 
L 594.340384 229.045495 
L 597.244556 228.319208 
L 598.696642 228.081445 
L 600.148728 227.962569 
L 601.600814 227.972929 
L 603.0529 228.114784 
L 604.504986 228.38257 
L 607.409158 229.258338 
L 610.31333 230.496999 
L 613.217502 231.980409 
L 619.025846 235.275364 
L 630.642534 241.929012 
L 633.546706 243.238029 
L 634.998792 243.668375 
L 636.450878 243.867895 
L 637.902964 243.777715 
L 639.35505 243.362001 
L 640.807136 242.625523 
L 642.259222 241.625385 
L 646.61548 238.267289 
L 648.067566 237.496465 
L 649.519652 237.07366 
L 650.971738 237.022733 
L 652.423824 237.287743 
L 655.327996 238.113523 
L 656.780082 238.188 
L 658.232168 237.762792 
L 659.684254 236.831034 
L 662.588426 234.344984 
L 664.040512 233.384289 
L 665.492598 232.864647 
L 666.944684 232.783653 
L 669.848856 233.060074 
L 671.300942 232.780172 
L 672.753028 231.963725 
L 677.109286 228.369293 
L 678.561372 227.723189 
L 680.013458 227.475434 
L 681.465544 227.424717 
L 682.91763 227.262322 
L 684.369716 226.717269 
L 685.821802 225.719226 
L 688.725974 223.15769 
L 690.17806 222.114891 
L 691.630146 221.40703 
L 693.082232 220.990217 
L 695.986404 220.345979 
L 697.43849 219.725664 
L 698.890576 218.784459 
L 704.69892 214.088484 
L 706.151006 213.239272 
L 709.055178 211.975584 
L 711.95935 210.829107 
L 713.411436 210.129854 
L 716.315608 208.346096 
L 720.671866 205.065497 
L 725.028124 201.796572 
L 730.836468 197.810568 
L 741.001069 191.239381 
L 745.357327 188.620275 
L 749.713585 186.255473 
L 755.521929 183.198834 
L 758.426101 181.363282 
L 761.330273 179.147559 
L 765.686531 175.655783 
L 767.138617 174.759949 
L 768.590703 174.091434 
L 774.399047 172.043417 
L 775.851133 171.109646 
L 778.755305 168.638545 
L 780.207391 167.434217 
L 781.659477 166.533512 
L 783.111563 166.025106 
L 786.015735 165.620386 
L 787.467821 165.22123 
L 788.919907 164.451651 
L 790.371993 163.31755 
L 793.276165 160.808872 
L 794.728251 160.031562 
L 796.180337 159.751744 
L 799.084509 159.798189 
L 800.536595 159.502048 
L 801.988681 158.756027 
L 803.440767 157.613543 
L 803.440767 157.613543 
" clip-path="url(#p438978fb59)" style="fill: none; stroke-dasharray: 22.4,5.6,3.5,5.6; stroke-dashoffset: 0; stroke: #0000ff; stroke-opacity: 0.8; stroke-width: 3.5"/>
   </g>
   <g id="patch_8">
    <path d="M 42.620313 248.24 
L 42.620313 152.053694 
" style="fill: none; stroke: #000000; stroke-width: 0.8; stroke-linejoin: miter; stroke-linecap: square"/>
   </g>
   <g id="patch_9">
    <path d="M 839.670312 248.24 
L 839.670312 152.053694 
" style="fill: none; stroke: #000000; stroke-width: 0.8; stroke-linejoin: miter; stroke-linecap: square"/>
   </g>
   <g id="patch_10">
    <path d="M 42.620313 248.24 
L 839.670312 248.24 
" style="fill: none; stroke: #000000; stroke-width: 0.8; stroke-linejoin: miter; stroke-linecap: square"/>
   </g>
   <g id="patch_11">
    <path d="M 42.620313 152.053694 
L 839.670312 152.053694 
" style="fill: none; stroke: #000000; stroke-width: 0.8; stroke-linejoin: miter; stroke-linecap: square"/>
   </g>
   <g id="line2d_25">
    <path d="M 78.849858 202.825902 
L 81.75403 201.727509 
L 84.658202 200.913669 
L 87.562374 200.303933 
L 91.918632 199.657204 
L 96.27489 199.230404 
L 102.083234 198.881083 
L 109.343664 198.66249 
L 119.508266 198.586409 
L 134.029126 198.724429 
L 151.454157 199.121274 
L 167.427103 199.694293 
L 180.495877 200.366091 
L 190.660479 201.076486 
L 199.372995 201.876491 
L 206.633425 202.732163 
L 213.893855 203.824223 
L 219.702199 204.92474 
L 225.510543 206.288944 
L 229.866801 207.527671 
L 234.223059 208.988788 
L 238.579317 210.705805 
L 242.935575 212.704655 
L 247.291833 214.987557 
L 253.100177 218.378832 
L 258.908521 221.79475 
L 261.812693 223.266773 
L 264.716865 224.385311 
L 266.168951 224.75841 
L 267.621037 224.979647 
L 269.073123 225.029241 
L 270.525209 224.890474 
L 271.977295 224.552609 
L 273.429381 224.008277 
L 274.881467 223.259226 
L 276.333553 222.312406 
L 277.785639 221.182758 
L 280.689811 218.465206 
L 283.593983 215.331412 
L 289.402327 208.82282 
L 292.306499 205.859178 
L 295.21067 203.253304 
L 298.114842 201.044208 
L 301.019014 199.223223 
L 303.923186 197.753458 
L 306.827358 196.585154 
L 309.73153 195.666011 
L 312.635702 194.94759 
L 316.99196 194.15615 
L 321.348218 193.611057 
L 327.156562 193.132734 
L 334.416992 192.770119 
L 346.03368 192.447407 
L 372.171228 192.032908 
L 408.473378 191.388882 
L 430.254668 190.790338 
L 446.227613 190.154078 
L 459.296387 189.425292 
L 469.460989 188.655984 
L 478.173505 187.786784 
L 485.433935 186.85292 
L 491.242279 185.920265 
L 497.050623 184.771853 
L 501.406881 183.733008 
L 505.763139 182.508231 
L 510.119397 181.063765 
L 514.475655 179.365577 
L 518.831913 177.387486 
L 523.188171 175.124487 
L 528.996515 171.750202 
L 534.804859 168.320926 
L 537.709031 166.823213 
L 540.613203 165.660802 
L 542.065289 165.258234 
L 543.517375 165.004415 
L 544.969461 164.917678 
L 546.421547 165.014711 
L 547.873633 165.311176 
L 549.325719 165.811751 
L 550.777805 166.516688 
L 552.229891 167.422655 
L 553.681977 168.515189 
L 556.586149 171.172038 
L 559.490321 174.271983 
L 566.750751 182.323841 
L 569.654923 185.153102 
L 572.559095 187.602976 
L 575.463267 189.65518 
L 578.367439 191.331719 
L 581.271611 192.676092 
L 584.175783 193.739919 
L 587.079955 194.574448 
L 589.984126 195.225798 
L 594.340384 195.943195 
L 598.696642 196.438159 
L 604.504986 196.874553 
L 613.217502 197.257985 
L 626.286276 197.567192 
L 701.794748 198.99888 
L 719.21978 199.638666 
L 732.288554 200.31303 
L 743.905241 201.136205 
L 752.617757 201.961555 
L 759.878187 202.844713 
L 767.138617 203.972978 
L 772.946961 205.111141 
L 778.755305 206.522995 
L 783.111563 207.805144 
L 787.467821 209.316752 
L 791.824079 211.09017 
L 796.180337 213.148548 
L 800.536595 215.485658 
L 803.440767 217.171461 
L 803.440767 217.171461 
" clip-path="url(#p438978fb59)" style="fill: none; stroke-dasharray: 3.5,5.775; stroke-dashoffset: 0; stroke: #008000; stroke-opacity: 0.8; stroke-width: 3.5"/>
   </g>
   <g id="line2d_26">
    <path d="M 78.849858 202.825902 
L 81.75403 201.727509 
L 84.658202 200.913669 
L 87.562374 200.303933 
L 91.918632 199.657204 
L 96.27489 199.230404 
L 102.083234 198.881083 
L 109.343664 198.66249 
L 119.508266 198.586409 
L 134.029126 198.724429 
L 151.454157 199.121274 
L 167.427103 199.694293 
L 180.495877 200.366091 
L 190.660479 201.076486 
L 199.372995 201.876491 
L 206.633425 202.732163 
L 213.893855 203.824223 
L 219.702199 204.92474 
L 225.510543 206.288944 
L 229.866801 207.527671 
L 234.223059 208.988788 
L 238.579317 210.705805 
L 242.935575 212.704655 
L 247.291833 214.987557 
L 253.100177 218.378832 
L 258.908521 221.79475 
L 261.812693 223.266773 
L 264.716865 224.385311 
L 266.168951 224.75841 
L 267.621037 224.979647 
L 269.073123 225.029241 
L 270.525209 224.890474 
L 271.977295 224.552609 
L 273.429381 224.008277 
L 274.881467 223.259226 
L 276.333553 222.312406 
L 277.785639 221.182758 
L 280.689811 218.465206 
L 283.593983 215.331412 
L 289.402327 208.82282 
L 292.306499 205.859178 
L 295.21067 203.253304 
L 298.114842 201.044208 
L 301.019014 199.223223 
L 303.923186 197.753458 
L 306.827358 196.585154 
L 309.73153 195.666011 
L 312.635702 194.94759 
L 316.99196 194.15615 
L 321.348218 193.611057 
L 327.156562 193.132734 
L 334.416992 192.770119 
L 346.03368 192.447407 
L 372.171228 192.032908 
L 408.473378 191.388882 
L 430.254668 190.790338 
L 446.227613 190.154078 
L 459.296387 189.425292 
L 469.460989 188.655984 
L 478.173505 187.786784 
L 485.433935 186.85292 
L 491.242279 185.920265 
L 497.050623 184.771853 
L 501.406881 183.733008 
L 505.763139 182.508231 
L 510.119397 181.063765 
L 514.475655 179.365577 
L 518.831913 177.387486 
L 523.188171 175.124487 
L 528.996515 171.750202 
L 534.804859 168.320926 
L 537.709031 166.823213 
L 540.613203 165.660802 
L 542.065289 165.258234 
L 543.517375 165.004415 
L 544.969461 164.917678 
L 546.421547 165.014711 
L 547.873633 165.311176 
L 549.325719 165.811751 
L 550.777805 166.516688 
L 552.229891 167.422655 
L 553.681977 168.515189 
L 556.586149 171.172038 
L 559.490321 174.271983 
L 566.750751 182.323841 
L 569.654923 185.153102 
L 572.559095 187.602976 
L 575.463267 189.65518 
L 578.367439 191.331719 
L 581.271611 192.676092 
L 584.175783 193.739919 
L 587.079955 194.574448 
L 589.984126 195.225798 
L 594.340384 195.943195 
L 598.696642 196.438159 
L 604.504986 196.874553 
L 613.217502 197.257985 
L 626.286276 197.567192 
L 701.794748 198.99888 
L 719.21978 199.638666 
L 732.288554 200.31303 
L 743.905241 201.136205 
L 752.617757 201.961555 
L 759.878187 202.844713 
L 767.138617 203.972978 
L 772.946961 205.111141 
L 778.755305 206.522995 
L 783.111563 207.805144 
L 787.467821 209.316752 
L 791.824079 211.09017 
L 796.180337 213.148548 
L 800.536595 215.485658 
L 803.440767 217.171461 
L 803.440767 217.171461 
" clip-path="url(#p438978fb59)" style="fill: none; stroke-dasharray: 12.95,5.6; stroke-dashoffset: 0; stroke: #ff0000; stroke-opacity: 0.8; stroke-width: 3.5"/>
   </g>
  </g>
  <g id="text_16">
   <!-- State Variable Simulation Comparison -->
   <g transform="translate(266.762812 20.1175) scale(0.16 -0.16)">
    <defs>
     <path id="DejaVuSans-53" d="M 3425 4513 
L 3425 3897 
Q 3066 4069 2747 4153 
Q 2428 4238 2131 4238 
Q 1616 4238 1336 4038 
Q 1056 3838 1056 3469 
Q 1056 3159 1242 3001 
Q 1428 2844 1947 2747 
L 2328 2669 
Q 3034 2534 3370 2195 
Q 3706 1856 3706 1288 
Q 3706 609 3251 259 
Q 2797 -91 1919 -91 
Q 1588 -91 1214 -16 
Q 841 59 441 206 
L 441 856 
Q 825 641 1194 531 
Q 1563 422 1919 422 
Q 2459 422 2753 634 
Q 3047 847 3047 1241 
Q 3047 1584 2836 1778 
Q 2625 1972 2144 2069 
L 1759 2144 
Q 1053 2284 737 2584 
Q 422 2884 422 3419 
Q 422 4038 858 4394 
Q 1294 4750 2059 4750 
Q 2388 4750 2728 4690 
Q 3069 4631 3425 4513 
z
" transform="scale(0.015625)"/>
     <path id="DejaVuSans-74" d="M 1172 4494 
L 1172 3500 
L 2356 3500 
L 2356 3053 
L 1172 3053 
L 1172 1153 
Q 1172 725 1289 603 
Q 1406 481 1766 481 
L 2356 481 
L 2356 0 
L 1766 0 
Q 1100 0 847 248 
Q 594 497 594 1153 
L 594 3053 
L 172 3053 
L 172 3500 
L 594 3500 
L 594 4494 
L 1172 4494 
z
" transform="scale(0.015625)"/>
     <path id="DejaVuSans-61" d="M 2194 1759 
Q 1497 1759 1228 1600 
Q 959 1441 959 1056 
Q 959 750 1161 570 
Q 1363 391 1709 391 
Q 2188 391 2477 730 
Q 2766 1069 2766 1631 
L 2766 1759 
L 2194 1759 
z
M 3341 1997 
L 3341 0 
L 2766 0 
L 2766 531 
Q 2569 213 2275 61 
Q 1981 -91 1556 -91 
Q 1019 -91 701 211 
Q 384 513 384 1019 
Q 384 1609 779 1909 
Q 1175 2209 1959 2209 
L 2766 2209 
L 2766 2266 
Q 2766 2663 2505 2880 
Q 2244 3097 1772 3097 
Q 1472 3097 1187 3025 
Q 903 2953 641 2809 
L 641 3341 
Q 956 3463 1253 3523 
Q 1550 3584 1831 3584 
Q 2591 3584 2966 3190 
Q 3341 2797 3341 1997 
z
" transform="scale(0.015625)"/>
     <path id="DejaVuSans-20" transform="scale(0.015625)"/>
     <path id="DejaVuSans-56" d="M 1831 0 
L 50 4666 
L 709 4666 
L 2188 738 
L 3669 4666 
L 4325 4666 
L 2547 0 
L 1831 0 
z
" transform="scale(0.015625)"/>
     <path id="DejaVuSans-72" d="M 2631 2963 
Q 2534 3019 2420 3045 
Q 2306 3072 2169 3072 
Q 1681 3072 1420 2755 
Q 1159 2438 1159 1844 
L 1159 0 
L 581 0 
L 581 3500 
L 1159 3500 
L 1159 2956 
Q 1341 3275 1631 3429 
Q 1922 3584 2338 3584 
Q 2397 3584 2469 3576 
Q 2541 3569 2628 3553 
L 2631 2963 
z
" transform="scale(0.015625)"/>
     <path id="DejaVuSans-62" d="M 3116 1747 
Q 3116 2381 2855 2742 
Q 2594 3103 2138 3103 
Q 1681 3103 1420 2742 
Q 1159 2381 1159 1747 
Q 1159 1113 1420 752 
Q 1681 391 2138 391 
Q 2594 391 2855 752 
Q 3116 1113 3116 1747 
z
M 1159 2969 
Q 1341 3281 1617 3432 
Q 1894 3584 2278 3584 
Q 2916 3584 3314 3078 
Q 3713 2572 3713 1747 
Q 3713 922 3314 415 
Q 2916 -91 2278 -91 
Q 1894 -91 1617 61 
Q 1341 213 1159 525 
L 1159 0 
L 581 0 
L 581 4863 
L 1159 4863 
L 1159 2969 
z
" transform="scale(0.015625)"/>
     <path id="DejaVuSans-6c" d="M 603 4863 
L 1178 4863 
L 1178 0 
L 603 0 
L 603 4863 
z
" transform="scale(0.015625)"/>
     <path id="DejaVuSans-75" d="M 544 1381 
L 544 3500 
L 1119 3500 
L 1119 1403 
Q 1119 906 1312 657 
Q 1506 409 1894 409 
Q 2359 409 2629 706 
Q 2900 1003 2900 1516 
L 2900 3500 
L 3475 3500 
L 3475 0 
L 2900 0 
L 2900 538 
Q 2691 219 2414 64 
Q 2138 -91 1772 -91 
Q 1169 -91 856 284 
Q 544 659 544 1381 
z
M 1991 3584 
L 1991 3584 
z
" transform="scale(0.015625)"/>
     <path id="DejaVuSans-6f" d="M 1959 3097 
Q 1497 3097 1228 2736 
Q 959 2375 959 1747 
Q 959 1119 1226 758 
Q 1494 397 1959 397 
Q 2419 397 2687 759 
Q 2956 1122 2956 1747 
Q 2956 2369 2687 2733 
Q 2419 3097 1959 3097 
z
M 1959 3584 
Q 2709 3584 3137 3096 
Q 3566 2609 3566 1747 
Q 3566 888 3137 398 
Q 2709 -91 1959 -91 
Q 1206 -91 779 398 
Q 353 888 353 1747 
Q 353 2609 779 3096 
Q 1206 3584 1959 3584 
z
" transform="scale(0.015625)"/>
     <path id="DejaVuSans-6e" d="M 3513 2113 
L 3513 0 
L 2938 0 
L 2938 2094 
Q 2938 2591 2744 2837 
Q 2550 3084 2163 3084 
Q 1697 3084 1428 2787 
Q 1159 2491 1159 1978 
L 1159 0 
L 581 0 
L 581 3500 
L 1159 3500 
L 1159 2956 
Q 1366 3272 1645 3428 
Q 1925 3584 2291 3584 
Q 2894 3584 3203 3211 
Q 3513 2838 3513 2113 
z
" transform="scale(0.015625)"/>
     <path id="DejaVuSans-43" d="M 4122 4306 
L 4122 3641 
Q 3803 3938 3442 4084 
Q 3081 4231 2675 4231 
Q 1875 4231 1450 3742 
Q 1025 3253 1025 2328 
Q 1025 1406 1450 917 
Q 1875 428 2675 428 
Q 3081 428 3442 575 
Q 3803 722 4122 1019 
L 4122 359 
Q 3791 134 3420 21 
Q 3050 -91 2638 -91 
Q 1578 -91 968 557 
Q 359 1206 359 2328 
Q 359 3453 968 4101 
Q 1578 4750 2638 4750 
Q 3056 4750 3426 4639 
Q 3797 4528 4122 4306 
z
" transform="scale(0.015625)"/>
     <path id="DejaVuSans-70" d="M 1159 525 
L 1159 -1331 
L 581 -1331 
L 581 3500 
L 1159 3500 
L 1159 2969 
Q 1341 3281 1617 3432 
Q 1894 3584 2278 3584 
Q 2916 3584 3314 3078 
Q 3713 2572 3713 1747 
Q 3713 922 3314 415 
Q 2916 -91 2278 -91 
Q 1894 -91 1617 61 
Q 1341 213 1159 525 
z
M 3116 1747 
Q 3116 2381 2855 2742 
Q 2594 3103 2138 3103 
Q 1681 3103 1420 2742 
Q 1159 2381 1159 1747 
Q 1159 1113 1420 752 
Q 1681 391 2138 391 
Q 2594 391 2855 752 
Q 3116 1113 3116 1747 
z
" transform="scale(0.015625)"/>
     <path id="DejaVuSans-73" d="M 2834 3397 
L 2834 2853 
Q 2591 2978 2328 3040 
Q 2066 3103 1784 3103 
Q 1356 3103 1142 2972 
Q 928 2841 928 2578 
Q 928 2378 1081 2264 
Q 1234 2150 1697 2047 
L 1894 2003 
Q 2506 1872 2764 1633 
Q 3022 1394 3022 966 
Q 3022 478 2636 193 
Q 2250 -91 1575 -91 
Q 1294 -91 989 -36 
Q 684 19 347 128 
L 347 722 
Q 666 556 975 473 
Q 1284 391 1588 391 
Q 1994 391 2212 530 
Q 2431 669 2431 922 
Q 2431 1156 2273 1281 
Q 2116 1406 1581 1522 
L 1381 1569 
Q 847 1681 609 1914 
Q 372 2147 372 2553 
Q 372 3047 722 3315 
Q 1072 3584 1716 3584 
Q 2034 3584 2315 3537 
Q 2597 3491 2834 3397 
z
" transform="scale(0.015625)"/>
    </defs>
    <use xlink:href="#DejaVuSans-53"/>
    <use xlink:href="#DejaVuSans-74" transform="translate(63.476562 0)"/>
    <use xlink:href="#DejaVuSans-61" transform="translate(102.685547 0)"/>
    <use xlink:href="#DejaVuSans-74" transform="translate(163.964844 0)"/>
    <use xlink:href="#DejaVuSans-65" transform="translate(203.173828 0)"/>
    <use xlink:href="#DejaVuSans-20" transform="translate(264.697266 0)"/>
    <use xlink:href="#DejaVuSans-56" transform="translate(296.484375 0)"/>
    <use xlink:href="#DejaVuSans-61" transform="translate(357.142578 0)"/>
    <use xlink:href="#DejaVuSans-72" transform="translate(418.421875 0)"/>
    <use xlink:href="#DejaVuSans-69" transform="translate(459.535156 0)"/>
    <use xlink:href="#DejaVuSans-61" transform="translate(487.318359 0)"/>
    <use xlink:href="#DejaVuSans-62" transform="translate(548.597656 0)"/>
    <use xlink:href="#DejaVuSans-6c" transform="translate(612.074219 0)"/>
    <use xlink:href="#DejaVuSans-65" transform="translate(639.857422 0)"/>
    <use xlink:href="#DejaVuSans-20" transform="translate(701.380859 0)"/>
    <use xlink:href="#DejaVuSans-53" transform="translate(733.167969 0)"/>
    <use xlink:href="#DejaVuSans-69" transform="translate(796.644531 0)"/>
    <use xlink:href="#DejaVuSans-6d" transform="translate(824.427734 0)"/>
    <use xlink:href="#DejaVuSans-75" transform="translate(921.839844 0)"/>
    <use xlink:href="#DejaVuSans-6c" transform="translate(985.21875 0)"/>
    <use xlink:href="#DejaVuSans-61" transform="translate(1013.001953 0)"/>
    <use xlink:href="#DejaVuSans-74" transform="translate(1074.28125 0)"/>
    <use xlink:href="#DejaVuSans-69" transform="translate(1113.490234 0)"/>
    <use xlink:href="#DejaVuSans-6f" transform="translate(1141.273438 0)"/>
    <use xlink:href="#DejaVuSans-6e" transform="translate(1202.455078 0)"/>
    <use xlink:href="#DejaVuSans-20" transform="translate(1265.833984 0)"/>
    <use xlink:href="#DejaVuSans-43" transform="translate(1297.621094 0)"/>
    <use xlink:href="#DejaVuSans-6f" transform="translate(1367.445312 0)"/>
    <use xlink:href="#DejaVuSans-6d" transform="translate(1428.626953 0)"/>
    <use xlink:href="#DejaVuSans-70" transform="translate(1526.039062 0)"/>
    <use xlink:href="#DejaVuSans-61" transform="translate(1589.515625 0)"/>
    <use xlink:href="#DejaVuSans-72" transform="translate(1650.794922 0)"/>
    <use xlink:href="#DejaVuSans-69" transform="translate(1691.908203 0)"/>
    <use xlink:href="#DejaVuSans-73" transform="translate(1719.691406 0)"/>
    <use xlink:href="#DejaVuSans-6f" transform="translate(1771.791016 0)"/>
    <use xlink:href="#DejaVuSans-6e" transform="translate(1832.972656 0)"/>
   </g>
  </g>
  <g id="legend_1">
   <g id="patch_12">
    <path d="M 734.598438 66.7125 
L 845.670313 66.7125 
Q 847.670313 66.7125 847.670313 64.7125 
L 847.670313 7 
Q 847.670313 5 845.670313 5 
L 734.598438 5 
Q 732.598438 5 732.598438 7 
L 732.598438 64.7125 
Q 732.598438 66.7125 734.598438 66.7125 
z
" style="fill: #ffffff; opacity: 0.5; stroke: #cccccc; stroke-linejoin: miter"/>
   </g>
   <g id="line2d_27">
    <path d="M 736.598438 13.098437 
L 746.598438 13.098437 
L 756.598438 13.098437 
" style="fill: none; stroke: #000000; stroke-opacity: 0.4; stroke-width: 6; stroke-linecap: square"/>
   </g>
   <g id="text_17">
    <!-- True Trajectory -->
    <g transform="translate(764.598438 16.598437) scale(0.1 -0.1)">
     <defs>
      <path id="DejaVuSans-6a" d="M 603 3500 
L 1178 3500 
L 1178 -63 
Q 1178 -731 923 -1031 
Q 669 -1331 103 -1331 
L -116 -1331 
L -116 -844 
L 38 -844 
Q 366 -844 484 -692 
Q 603 -541 603 -63 
L 603 3500 
z
M 603 4863 
L 1178 4863 
L 1178 4134 
L 603 4134 
L 603 4863 
z
" transform="scale(0.015625)"/>
      <path id="DejaVuSans-63" d="M 3122 3366 
L 3122 2828 
Q 2878 2963 2633 3030 
Q 2388 3097 2138 3097 
Q 1578 3097 1268 2742 
Q 959 2388 959 1747 
Q 959 1106 1268 751 
Q 1578 397 2138 397 
Q 2388 397 2633 464 
Q 2878 531 3122 666 
L 3122 134 
Q 2881 22 2623 -34 
Q 2366 -91 2075 -91 
Q 1284 -91 818 406 
Q 353 903 353 1747 
Q 353 2603 823 3093 
Q 1294 3584 2113 3584 
Q 2378 3584 2631 3529 
Q 2884 3475 3122 3366 
z
" transform="scale(0.015625)"/>
      <path id="DejaVuSans-79" d="M 2059 -325 
Q 1816 -950 1584 -1140 
Q 1353 -1331 966 -1331 
L 506 -1331 
L 506 -850 
L 844 -850 
Q 1081 -850 1212 -737 
Q 1344 -625 1503 -206 
L 1606 56 
L 191 3500 
L 800 3500 
L 1894 763 
L 2988 3500 
L 3597 3500 
L 2059 -325 
z
" transform="scale(0.015625)"/>
     </defs>
     <use xlink:href="#DejaVuSans-54"/>
     <use xlink:href="#DejaVuSans-72" transform="translate(46.333984 0)"/>
     <use xlink:href="#DejaVuSans-75" transform="translate(87.447266 0)"/>
     <use xlink:href="#DejaVuSans-65" transform="translate(150.826172 0)"/>
     <use xlink:href="#DejaVuSans-20" transform="translate(212.349609 0)"/>
     <use xlink:href="#DejaVuSans-54" transform="translate(244.136719 0)"/>
     <use xlink:href="#DejaVuSans-72" transform="translate(290.470703 0)"/>
     <use xlink:href="#DejaVuSans-61" transform="translate(331.583984 0)"/>
     <use xlink:href="#DejaVuSans-6a" transform="translate(392.863281 0)"/>
     <use xlink:href="#DejaVuSans-65" transform="translate(420.646484 0)"/>
     <use xlink:href="#DejaVuSans-63" transform="translate(482.169922 0)"/>
     <use xlink:href="#DejaVuSans-74" transform="translate(537.150391 0)"/>
     <use xlink:href="#DejaVuSans-6f" transform="translate(576.359375 0)"/>
     <use xlink:href="#DejaVuSans-72" transform="translate(637.541016 0)"/>
     <use xlink:href="#DejaVuSans-79" transform="translate(678.654297 0)"/>
    </g>
   </g>
   <g id="line2d_28">
    <path d="M 736.598438 27.776562 
L 746.598438 27.776562 
L 756.598438 27.776562 
" style="fill: none; stroke-dasharray: 12.95,5.6; stroke-dashoffset: 0; stroke: #ff0000; stroke-opacity: 0.8; stroke-width: 3.5"/>
   </g>
   <g id="text_18">
    <!-- AutoSINDy -->
    <g transform="translate(764.598438 31.276562) scale(0.1 -0.1)">
     <defs>
      <path id="DejaVuSans-41" d="M 2188 4044 
L 1331 1722 
L 3047 1722 
L 2188 4044 
z
M 1831 4666 
L 2547 4666 
L 4325 0 
L 3669 0 
L 3244 1197 
L 1141 1197 
L 716 0 
L 50 0 
L 1831 4666 
z
" transform="scale(0.015625)"/>
      <path id="DejaVuSans-49" d="M 628 4666 
L 1259 4666 
L 1259 0 
L 628 0 
L 628 4666 
z
" transform="scale(0.015625)"/>
      <path id="DejaVuSans-4e" d="M 628 4666 
L 1478 4666 
L 3547 763 
L 3547 4666 
L 4159 4666 
L 4159 0 
L 3309 0 
L 1241 3903 
L 1241 0 
L 628 0 
L 628 4666 
z
" transform="scale(0.015625)"/>
      <path id="DejaVuSans-44" d="M 1259 4147 
L 1259 519 
L 2022 519 
Q 2988 519 3436 956 
Q 3884 1394 3884 2338 
Q 3884 3275 3436 3711 
Q 2988 4147 2022 4147 
L 1259 4147 
z
M 628 4666 
L 1925 4666 
Q 3281 4666 3915 4102 
Q 4550 3538 4550 2338 
Q 4550 1131 3912 565 
Q 3275 0 1925 0 
L 628 0 
L 628 4666 
z
" transform="scale(0.015625)"/>
     </defs>
     <use xlink:href="#DejaVuSans-41"/>
     <use xlink:href="#DejaVuSans-75" transform="translate(68.408203 0)"/>
     <use xlink:href="#DejaVuSans-74" transform="translate(131.787109 0)"/>
     <use xlink:href="#DejaVuSans-6f" transform="translate(170.996094 0)"/>
     <use xlink:href="#DejaVuSans-53" transform="translate(232.177734 0)"/>
     <use xlink:href="#DejaVuSans-49" transform="translate(295.654297 0)"/>
     <use xlink:href="#DejaVuSans-4e" transform="translate(325.146484 0)"/>
     <use xlink:href="#DejaVuSans-44" transform="translate(399.951172 0)"/>
     <use xlink:href="#DejaVuSans-79" transform="translate(476.953125 0)"/>
    </g>
   </g>
   <g id="line2d_29">
    <path d="M 736.598438 42.454687 
L 746.598438 42.454687 
L 756.598438 42.454687 
" style="fill: none; stroke-dasharray: 3.5,5.775; stroke-dashoffset: 0; stroke: #008000; stroke-opacity: 0.8; stroke-width: 3.5"/>
   </g>
   <g id="text_19">
    <!-- Standard SINDy -->
    <g transform="translate(764.598438 45.954687) scale(0.1 -0.1)">
     <defs>
      <path id="DejaVuSans-64" d="M 2906 2969 
L 2906 4863 
L 3481 4863 
L 3481 0 
L 2906 0 
L 2906 525 
Q 2725 213 2448 61 
Q 2172 -91 1784 -91 
Q 1150 -91 751 415 
Q 353 922 353 1747 
Q 353 2572 751 3078 
Q 1150 3584 1784 3584 
Q 2172 3584 2448 3432 
Q 2725 3281 2906 2969 
z
M 947 1747 
Q 947 1113 1208 752 
Q 1469 391 1925 391 
Q 2381 391 2643 752 
Q 2906 1113 2906 1747 
Q 2906 2381 2643 2742 
Q 2381 3103 1925 3103 
Q 1469 3103 1208 2742 
Q 947 2381 947 1747 
z
" transform="scale(0.015625)"/>
     </defs>
     <use xlink:href="#DejaVuSans-53"/>
     <use xlink:href="#DejaVuSans-74" transform="translate(63.476562 0)"/>
     <use xlink:href="#DejaVuSans-61" transform="translate(102.685547 0)"/>
     <use xlink:href="#DejaVuSans-6e" transform="translate(163.964844 0)"/>
     <use xlink:href="#DejaVuSans-64" transform="translate(227.34375 0)"/>
     <use xlink:href="#DejaVuSans-61" transform="translate(290.820312 0)"/>
     <use xlink:href="#DejaVuSans-72" transform="translate(352.099609 0)"/>
     <use xlink:href="#DejaVuSans-64" transform="translate(391.462891 0)"/>
     <use xlink:href="#DejaVuSans-20" transform="translate(454.939453 0)"/>
     <use xlink:href="#DejaVuSans-53" transform="translate(486.726562 0)"/>
     <use xlink:href="#DejaVuSans-49" transform="translate(550.203125 0)"/>
     <use xlink:href="#DejaVuSans-4e" transform="translate(579.695312 0)"/>
     <use xlink:href="#DejaVuSans-44" transform="translate(654.5 0)"/>
     <use xlink:href="#DejaVuSans-79" transform="translate(731.501953 0)"/>
    </g>
   </g>
   <g id="line2d_30">
    <path d="M 736.598438 57.132812 
L 746.598438 57.132812 
L 756.598438 57.132812 
" style="fill: none; stroke-dasharray: 22.4,5.6,3.5,5.6; stroke-dashoffset: 0; stroke: #0000ff; stroke-opacity: 0.8; stroke-width: 3.5"/>
   </g>
   <g id="text_20">
    <!-- Standard PySR -->
    <g transform="translate(764.598438 60.632812) scale(0.1 -0.1)">
     <defs>
      <path id="DejaVuSans-50" d="M 1259 4147 
L 1259 2394 
L 2053 2394 
Q 2494 2394 2734 2622 
Q 2975 2850 2975 3272 
Q 2975 3691 2734 3919 
Q 2494 4147 2053 4147 
L 1259 4147 
z
M 628 4666 
L 2053 4666 
Q 2838 4666 3239 4311 
Q 3641 3956 3641 3272 
Q 3641 2581 3239 2228 
Q 2838 1875 2053 1875 
L 1259 1875 
L 1259 0 
L 628 0 
L 628 4666 
z
" transform="scale(0.015625)"/>
      <path id="DejaVuSans-52" d="M 2841 2188 
Q 3044 2119 3236 1894 
Q 3428 1669 3622 1275 
L 4263 0 
L 3584 0 
L 2988 1197 
Q 2756 1666 2539 1819 
Q 2322 1972 1947 1972 
L 1259 1972 
L 1259 0 
L 628 0 
L 628 4666 
L 2053 4666 
Q 2853 4666 3247 4331 
Q 3641 3997 3641 3322 
Q 3641 2881 3436 2590 
Q 3231 2300 2841 2188 
z
M 1259 4147 
L 1259 2491 
L 2053 2491 
Q 2509 2491 2742 2702 
Q 2975 2913 2975 3322 
Q 2975 3731 2742 3939 
Q 2509 4147 2053 4147 
L 1259 4147 
z
" transform="scale(0.015625)"/>
     </defs>
     <use xlink:href="#DejaVuSans-53"/>
     <use xlink:href="#DejaVuSans-74" transform="translate(63.476562 0)"/>
     <use xlink:href="#DejaVuSans-61" transform="translate(102.685547 0)"/>
     <use xlink:href="#DejaVuSans-6e" transform="translate(163.964844 0)"/>
     <use xlink:href="#DejaVuSans-64" transform="translate(227.34375 0)"/>
     <use xlink:href="#DejaVuSans-61" transform="translate(290.820312 0)"/>
     <use xlink:href="#DejaVuSans-72" transform="translate(352.099609 0)"/>
     <use xlink:href="#DejaVuSans-64" transform="translate(391.462891 0)"/>
     <use xlink:href="#DejaVuSans-20" transform="translate(454.939453 0)"/>
     <use xlink:href="#DejaVuSans-50" transform="translate(486.726562 0)"/>
     <use xlink:href="#DejaVuSans-79" transform="translate(547.029297 0)"/>
     <use xlink:href="#DejaVuSans-53" transform="translate(606.208984 0)"/>
     <use xlink:href="#DejaVuSans-52" transform="translate(669.685547 0)"/>
    </g>
   </g>
  </g>
 </g>
 <defs>
  <clipPath id="pd91dd5fc4e">
   <rect x="42.620313" y="41.407552" width="797.05" height="96.186306"/>
  </clipPath>
  <clipPath id="p438978fb59">
   <rect x="42.620313" y="152.053694" width="797.05" height="96.186306"/>
  </clipPath>
 </defs>
</svg>
