<?xml version="1.0" encoding="utf-8" standalone="no"?>
<!DOCTYPE svg PUBLIC "-//W3C//DTD SVG 1.1//EN"
  "http://www.w3.org/Graphics/SVG/1.1/DTD/svg11.dtd">
<svg xmlns:xlink="http://www.w3.org/1999/xlink" width="568.412812pt" height="567.994375pt" viewBox="0 0 568.412812 567.994375" xmlns="http://www.w3.org/2000/svg" version="1.1">
 <metadata>
  <rdf:RDF xmlns:dc="http://purl.org/dc/elements/1.1/" xmlns:cc="http://creativecommons.org/ns#" xmlns:rdf="http://www.w3.org/1999/02/22-rdf-syntax-ns#">
   <cc:Work>
    <dc:type rdf:resource="http://purl.org/dc/dcmitype/StillImage"/>
    <dc:date>2026-04-06T20:05:54.543298</dc:date>
    <dc:format>image/svg+xml</dc:format>
    <dc:creator>
     <cc:Agent>
      <dc:title>Matplotlib v3.10.7, https://matplotlib.org/</dc:title>
     </cc:Agent>
    </dc:creator>
   </cc:Work>
  </rdf:RDF>
 </metadata>
 <defs>
  <style type="text/css">*{stroke-linejoin: round; stroke-linecap: butt}</style>
 </defs>
 <g id="figure_1">
  <g id="patch_1">
   <path d="M 0 567.994375 
L 568.412812 567.994375 
L 568.412812 0 
L 0 0 
z
" style="fill: #ffffff"/>
  </g>
  <g id="axes_1">
   <g id="patch_2">
    <path d="M 48.982813 530.438125 
L 561.212812 530.438125 
L 561.212812 22.318125 
L 48.982813 22.318125 
z
" style="fill: #ffffff"/>
   </g>
   <g id="matplotlib.axis_1">
    <g id="xtick_1">
     <g id="line2d_1">
      <defs>
       <path id="m49271ba3a0" d="M 0 0 
L 0 3.5 
" style="stroke: #000000; stroke-width: 0.8"/>
      </defs>
      <g>
       <use xlink:href="#m49271ba3a0" x="141.873791" y="530.438125" style="stroke: #000000; stroke-width: 0.8"/>
      </g>
     </g>
     <g id="text_1">
      <!-- −10 -->
      <g transform="translate(131.321447 545.036562) scale(0.1 -0.1)">
       <defs>
        <path id="DejaVuSans-2212" d="M 678 2272 
L 4684 2272 
L 4684 1741 
L 678 1741 
L 678 2272 
z
" transform="scale(0.015625)"/>
        <path id="DejaVuSans-31" d="M 794 531 
L 1825 531 
L 1825 4091 
L 703 3866 
L 703 4441 
L 1819 4666 
L 2450 4666 
L 2450 531 
L 3481 531 
L 3481 0 
L 794 0 
L 794 531 
z
" transform="scale(0.015625)"/>
        <path id="DejaVuSans-30" d="M 2034 4250 
Q 1547 4250 1301 3770 
Q 1056 3291 1056 2328 
Q 1056 1369 1301 889 
Q 1547 409 2034 409 
Q 2525 409 2770 889 
Q 3016 1369 3016 2328 
Q 3016 3291 2770 3770 
Q 2525 4250 2034 4250 
z
M 2034 4750 
Q 2819 4750 3233 4129 
Q 3647 3509 3647 2328 
Q 3647 1150 3233 529 
Q 2819 -91 2034 -91 
Q 1250 -91 836 529 
Q 422 1150 422 2328 
Q 422 3509 836 4129 
Q 1250 4750 2034 4750 
z
" transform="scale(0.015625)"/>
       </defs>
       <use xlink:href="#DejaVuSans-2212"/>
       <use xlink:href="#DejaVuSans-31" transform="translate(83.789062 0)"/>
       <use xlink:href="#DejaVuSans-30" transform="translate(147.412109 0)"/>
      </g>
     </g>
    </g>
    <g id="xtick_2">
     <g id="line2d_2">
      <g>
       <use xlink:href="#m49271ba3a0" x="249.556526" y="530.438125" style="stroke: #000000; stroke-width: 0.8"/>
      </g>
     </g>
     <g id="text_2">
      <!-- 0 -->
      <g transform="translate(246.375276 545.036562) scale(0.1 -0.1)">
       <use xlink:href="#DejaVuSans-30"/>
      </g>
     </g>
    </g>
    <g id="xtick_3">
     <g id="line2d_3">
      <g>
       <use xlink:href="#m49271ba3a0" x="357.23926" y="530.438125" style="stroke: #000000; stroke-width: 0.8"/>
      </g>
     </g>
     <g id="text_3">
      <!-- 10 -->
      <g transform="translate(350.87676 545.036562) scale(0.1 -0.1)">
       <use xlink:href="#DejaVuSans-31"/>
       <use xlink:href="#DejaVuSans-30" transform="translate(63.623047 0)"/>
      </g>
     </g>
    </g>
    <g id="xtick_4">
     <g id="line2d_4">
      <g>
       <use xlink:href="#m49271ba3a0" x="464.921995" y="530.438125" style="stroke: #000000; stroke-width: 0.8"/>
      </g>
     </g>
     <g id="text_4">
      <!-- 20 -->
      <g transform="translate(458.559495 545.036562) scale(0.1 -0.1)">
       <defs>
        <path id="DejaVuSans-32" d="M 1228 531 
L 3431 531 
L 3431 0 
L 469 0 
L 469 531 
Q 828 903 1448 1529 
Q 2069 2156 2228 2338 
Q 2531 2678 2651 2914 
Q 2772 3150 2772 3378 
Q 2772 3750 2511 3984 
Q 2250 4219 1831 4219 
Q 1534 4219 1204 4116 
Q 875 4013 500 3803 
L 500 4441 
Q 881 4594 1212 4672 
Q 1544 4750 1819 4750 
Q 2544 4750 2975 4387 
Q 3406 4025 3406 3419 
Q 3406 3131 3298 2873 
Q 3191 2616 2906 2266 
Q 2828 2175 2409 1742 
Q 1991 1309 1228 531 
z
" transform="scale(0.015625)"/>
       </defs>
       <use xlink:href="#DejaVuSans-32"/>
       <use xlink:href="#DejaVuSans-30" transform="translate(63.623047 0)"/>
      </g>
     </g>
    </g>
    <g id="text_5">
     <!-- x0 -->
     <g transform="translate(298.957187 558.714687) scale(0.1 -0.1)">
      <defs>
       <path id="DejaVuSans-78" d="M 3513 3500 
L 2247 1797 
L 3578 0 
L 2900 0 
L 1881 1375 
L 863 0 
L 184 0 
L 1544 1831 
L 300 3500 
L 978 3500 
L 1906 2253 
L 2834 3500 
L 3513 3500 
z
" transform="scale(0.015625)"/>
      </defs>
      <use xlink:href="#DejaVuSans-78"/>
      <use xlink:href="#DejaVuSans-30" transform="translate(59.179688 0)"/>
     </g>
    </g>
   </g>
   <g id="matplotlib.axis_2">
    <g id="ytick_1">
     <g id="line2d_5">
      <defs>
       <path id="m092afd0413" d="M 0 0 
L -3.5 0 
" style="stroke: #000000; stroke-width: 0.8"/>
      </defs>
      <g>
       <use xlink:href="#m092afd0413" x="48.982813" y="494.494824" style="stroke: #000000; stroke-width: 0.8"/>
      </g>
     </g>
     <g id="text_6">
      <!-- −20 -->
      <g transform="translate(20.878125 498.294043) scale(0.1 -0.1)">
       <use xlink:href="#DejaVuSans-2212"/>
       <use xlink:href="#DejaVuSans-32" transform="translate(83.789062 0)"/>
       <use xlink:href="#DejaVuSans-30" transform="translate(147.412109 0)"/>
      </g>
     </g>
    </g>
    <g id="ytick_2">
     <g id="line2d_6">
      <g>
       <use xlink:href="#m092afd0413" x="48.982813" y="408.781059" style="stroke: #000000; stroke-width: 0.8"/>
      </g>
     </g>
     <g id="text_7">
      <!-- −10 -->
      <g transform="translate(20.878125 412.580277) scale(0.1 -0.1)">
       <use xlink:href="#DejaVuSans-2212"/>
       <use xlink:href="#DejaVuSans-31" transform="translate(83.789062 0)"/>
       <use xlink:href="#DejaVuSans-30" transform="translate(147.412109 0)"/>
      </g>
     </g>
    </g>
    <g id="ytick_3">
     <g id="line2d_7">
      <g>
       <use xlink:href="#m092afd0413" x="48.982813" y="323.067293" style="stroke: #000000; stroke-width: 0.8"/>
      </g>
     </g>
     <g id="text_8">
      <!-- 0 -->
      <g transform="translate(35.620312 326.866512) scale(0.1 -0.1)">
       <use xlink:href="#DejaVuSans-30"/>
      </g>
     </g>
    </g>
    <g id="ytick_4">
     <g id="line2d_8">
      <g>
       <use xlink:href="#m092afd0413" x="48.982813" y="237.353528" style="stroke: #000000; stroke-width: 0.8"/>
      </g>
     </g>
     <g id="text_9">
      <!-- 10 -->
      <g transform="translate(29.257812 241.152746) scale(0.1 -0.1)">
       <use xlink:href="#DejaVuSans-31"/>
       <use xlink:href="#DejaVuSans-30" transform="translate(63.623047 0)"/>
      </g>
     </g>
    </g>
    <g id="ytick_5">
     <g id="line2d_9">
      <g>
       <use xlink:href="#m092afd0413" x="48.982813" y="151.639762" style="stroke: #000000; stroke-width: 0.8"/>
      </g>
     </g>
     <g id="text_10">
      <!-- 20 -->
      <g transform="translate(29.257812 155.438981) scale(0.1 -0.1)">
       <use xlink:href="#DejaVuSans-32"/>
       <use xlink:href="#DejaVuSans-30" transform="translate(63.623047 0)"/>
      </g>
     </g>
    </g>
    <g id="ytick_6">
     <g id="line2d_10">
      <g>
       <use xlink:href="#m092afd0413" x="48.982813" y="65.925997" style="stroke: #000000; stroke-width: 0.8"/>
      </g>
     </g>
     <g id="text_11">
      <!-- 30 -->
      <g transform="translate(29.257812 69.725215) scale(0.1 -0.1)">
       <defs>
        <path id="DejaVuSans-33" d="M 2597 2516 
Q 3050 2419 3304 2112 
Q 3559 1806 3559 1356 
Q 3559 666 3084 287 
Q 2609 -91 1734 -91 
Q 1441 -91 1130 -33 
Q 819 25 488 141 
L 488 750 
Q 750 597 1062 519 
Q 1375 441 1716 441 
Q 2309 441 2620 675 
Q 2931 909 2931 1356 
Q 2931 1769 2642 2001 
Q 2353 2234 1838 2234 
L 1294 2234 
L 1294 2753 
L 1863 2753 
Q 2328 2753 2575 2939 
Q 2822 3125 2822 3475 
Q 2822 3834 2567 4026 
Q 2313 4219 1838 4219 
Q 1578 4219 1281 4162 
Q 984 4106 628 3988 
L 628 4550 
Q 988 4650 1302 4700 
Q 1616 4750 1894 4750 
Q 2613 4750 3031 4423 
Q 3450 4097 3450 3541 
Q 3450 3153 3228 2886 
Q 3006 2619 2597 2516 
z
" transform="scale(0.015625)"/>
       </defs>
       <use xlink:href="#DejaVuSans-33"/>
       <use xlink:href="#DejaVuSans-30" transform="translate(63.623047 0)"/>
      </g>
     </g>
    </g>
    <g id="text_12">
     <!-- x1 -->
     <g transform="translate(14.798438 282.51875) rotate(-90) scale(0.1 -0.1)">
      <use xlink:href="#DejaVuSans-78"/>
      <use xlink:href="#DejaVuSans-31" transform="translate(59.179688 0)"/>
     </g>
    </g>
   </g>
   <g id="line2d_11">
    <path d="M 357.23926 237.353528 
L 357.595344 231.497843 
L 358.598134 226.00423 
L 360.142051 220.965434 
L 362.111667 216.498921 
L 364.382021 212.739067 
L 366.838058 209.691752 
L 369.390134 207.281996 
L 371.95311 205.492749 
L 374.444438 204.367306 
L 376.784167 204.009299 
L 378.900265 204.631149 
L 380.688735 206.286386 
L 382.038853 208.777227 
L 382.890251 211.946174 
L 383.23368 215.680818 
L 383.093615 219.936305 
L 382.42775 224.778718 
L 381.208429 230.17915 
L 379.42694 236.057392 
L 377.08894 242.291586 
L 374.213017 248.714952 
L 370.827462 255.10926 
L 367.005787 261.332186 
L 362.82734 267.278979 
L 358.367978 272.864977 
L 353.700062 278.025608 
L 348.892466 282.71639 
L 344.010567 286.91293 
L 339.116253 290.610928 
L 334.26792 293.826171 
L 329.529385 296.529187 
L 324.958887 298.685214 
L 320.593288 300.355352 
L 316.463812 301.595413 
L 312.59616 302.455191 
L 309.010504 302.978459 
L 305.721491 303.202971 
L 302.73824 303.160459 
L 300.064344 302.876639 
L 297.69151 302.372997 
L 295.611247 301.675916 
L 293.821833 300.810981 
L 292.318692 299.799676 
L 291.09438 298.659383 
L 290.138589 297.403383 
L 289.438147 296.040855 
L 288.977017 294.576879 
L 288.736297 293.012429 
L 288.699025 291.339448 
L 288.866569 289.53866 
L 289.241313 287.60006 
L 289.82475 285.51378 
L 290.617717 283.269606 
L 291.620387 280.856981 
L 294.252234 275.482421 
L 297.717028 269.305137 
L 302.08755 262.287064 
L 307.363185 254.31472 
L 313.570459 245.300876 
L 320.79998 235.215432 
L 329.167353 224.139735 
L 333.747809 218.434381 
L 338.586184 212.757011 
L 343.660388 207.194486 
L 348.92531 201.824565 
L 354.31282 196.715903 
L 359.749787 191.952704 
L 365.190297 187.875006 
L 370.545439 184.878798 
L 375.690401 183.216791 
L 380.465331 182.996341 
L 384.690874 184.14719 
L 388.281967 186.574126 
L 391.183897 190.331004 
L 393.309338 195.460739 
L 394.537908 201.990646 
L 394.748316 209.813072 
L 393.941174 218.467084 
L 392.150343 227.603699 
L 389.430844 236.909058 
L 385.860119 246.096761 
L 381.538567 254.955126 
L 376.588989 263.400058 
L 371.136515 271.301488 
L 365.300114 278.564281 
L 359.192518 285.132979 
L 352.919878 290.985574 
L 346.585321 296.039681 
L 340.300399 300.271081 
L 334.16168 303.709943 
L 328.24651 306.415764 
L 322.613019 308.477367 
L 317.300113 310.012902 
L 312.336448 311.101882 
L 307.742674 311.770823 
L 303.526652 312.082285 
L 299.69146 312.091857 
L 296.235395 311.848137 
L 293.15197 311.392724 
L 290.42992 310.760224 
L 288.052671 309.979704 
L 286.002066 309.07685 
L 284.261093 308.071499 
L 282.812829 306.977706 
L 281.640448 305.803739 
L 280.72721 304.552082 
L 280.056469 303.219437 
L 279.611296 301.796775 
L 279.377193 300.276161 
L 279.350721 298.656851 
L 279.529039 296.936784 
L 279.908363 295.11173 
L 280.483968 293.175294 
L 281.250184 291.118913 
L 283.327058 286.601233 
L 286.104704 281.462643 
L 289.628823 275.629992 
L 293.939147 269.027113 
L 299.075072 261.582486 
L 305.080145 253.235118 
L 315.848792 238.860277 
L 324.278297 227.933293 
L 333.779449 216.059626 
L 338.907141 210.037409 
L 344.272706 204.208155 
L 349.830716 198.755755 
L 355.497872 193.86083 
L 361.153528 189.70088 
L 366.70538 186.429301 
L 372.055134 184.046936 
L 377.120947 182.47441 
L 381.850598 181.901597 
L 386.104403 182.812964 
L 389.754002 185.121922 
L 392.709476 188.693473 
L 394.862067 193.726915 
L 396.119495 200.09911 
L 396.43438 207.449795 
L 395.802506 215.363253 
L 394.241685 223.909399 
L 391.785886 232.811792 
L 388.491479 241.796619 
L 384.433969 250.648543 
L 379.71416 259.19624 
L 374.454048 267.275764 
L 368.770613 274.767176 
L 362.774992 281.59613 
L 356.572485 287.733875 
L 350.262038 293.177454 
L 343.943165 297.827991 
L 337.720514 301.676099 
L 331.682097 304.760157 
L 325.897273 307.146759 
L 320.416746 308.930715 
L 315.272623 310.234608 
L 310.488599 311.120259 
L 306.079078 311.617023 
L 302.048489 311.78507 
L 298.396989 311.676572 
L 295.120461 311.3357 
L 292.210516 310.798624 
L 289.654296 310.09422 
L 287.434085 309.251705 
L 285.532669 308.295051 
L 283.933255 307.24165 
L 282.619122 306.103039 
L 281.573622 304.884902 
L 280.780179 303.587072 
L 280.22229 302.203526 
L 279.88277 300.723581 
L 279.752827 299.143146 
L 279.83036 297.461228 
L 280.112324 295.674734 
L 280.594686 293.778443 
L 281.272412 291.765015 
L 282.139476 289.624983 
L 284.412625 284.916666 
L 287.400798 279.564272 
L 291.1515 273.496771 
L 295.702606 266.639576 
L 301.093774 258.922086 
L 307.37392 250.286951 
L 318.5917 235.407476 
L 327.347284 224.158655 
L 332.13684 218.19205 
L 337.213728 212.113403 
L 342.529913 206.15936 
L 348.019558 200.548263 
L 353.612693 195.459028 
L 359.23522 191.031146 
L 364.808914 187.364683 
L 370.250575 184.51963 
L 375.412758 182.534034 
L 380.234757 181.682089 
L 384.666865 182.249993 
L 388.590303 184.432997 
L 391.817213 188.335401 
L 394.101107 193.968247 
L 395.361014 201.126593 
L 395.575216 209.397601 
L 394.728438 218.404939 
L 392.848358 227.828681 
L 390.005612 237.40531 
L 386.289097 246.894416 
L 381.805405 256.078078 
L 376.682493 264.793442 
L 371.045826 272.9098 
L 365.018379 280.32859 
L 358.720633 286.983399 
L 352.269909 292.837279 
L 345.777656 297.852051 
L 339.356231 302.0263 
L 333.101667 305.394348 
L 327.090545 308.020096 
L 321.379989 309.997023 
L 316.007669 311.448186 
L 310.999497 312.459002 
L 306.373928 313.056811 
L 302.13741 313.306784 
L 298.291247 313.265868 
L 294.831611 312.982688 
L 291.749543 312.497552 
L 289.030802 311.843009 
L 286.657204 311.049072 
L 284.611251 310.141227 
L 282.87541 309.138724 
L 281.431934 308.054695 
L 280.262871 306.896158 
L 279.350057 305.664016 
L 278.675118 304.353052 
L 278.219812 302.954615 
L 277.976198 301.467329 
L 277.940069 299.890474 
L 278.106368 298.221023 
L 278.469187 296.453638 
L 279.021766 294.580677 
L 279.756495 292.592187 
L 281.739815 288.21863 
L 284.414868 283.247011 
L 287.821242 277.588251 
L 291.995519 271.154597 
L 296.977968 263.86814 
L 302.824682 255.687562 
L 309.58386 246.553651 
L 317.309805 236.388632 
L 326.06094 225.158175 
L 330.806048 219.216483 
L 335.831265 213.142859 
L 341.14162 207.02953 
L 346.710716 200.995244 
L 352.480726 195.185271 
L 358.362395 189.771403 
L 364.262453 184.984041 
L 370.115803 181.130452 
L 375.796463 178.33114 
L 381.209199 176.548898 
L 386.265421 176.088982 
L 390.777687 177.338121 
L 394.593002 180.22469 
L 397.63043 184.512113 
L 399.769138 190.564226 
L 400.855447 198.261718 
L 400.836766 207.138969 
L 399.719815 216.777021 
L 397.517602 226.982259 
L 394.281367 237.481035 
L 390.092898 247.977983 
L 385.057713 258.146111 
L 379.315167 267.719577 
L 373.025203 276.540124 
L 366.338301 284.496857 
L 359.395165 291.525535 
L 352.326726 297.608565 
L 345.254565 302.76904 
L 338.291827 307.030984 
L 331.535183 310.443563 
L 325.063325 313.076233 
L 318.937155 315.016108 
L 313.199784 316.367962 
L 307.876751 317.252243 
L 302.981502 317.743017 
L 298.514691 317.896788 
L 294.470549 317.774381 
L 290.839349 317.428053 
L 287.607407 316.901493 
L 284.757082 316.229821 
L 282.265539 315.444028 
L 280.109857 314.568974 
L 278.269304 313.620912 
L 276.723289 312.611511 
L 275.451352 311.547858 
L 274.433173 310.432461 
L 273.648567 309.263243 
L 273.076724 308.034072 
L 272.702586 306.74274 
L 272.520562 305.389908 
L 272.524865 303.973393 
L 272.7091 302.488035 
L 273.066274 300.925701 
L 273.588787 299.275281 
L 275.096424 295.650862 
L 277.190647 291.484857 
L 279.927074 286.663324 
L 283.365492 281.042397 
L 289.998832 270.743607 
L 298.715628 257.682428 
L 305.906152 247.325347 
L 314.300717 235.74847 
L 323.935163 223.168053 
L 334.793371 209.647674 
L 340.675853 202.598755 
L 346.859159 195.602747 
L 353.27207 188.938513 
L 359.824895 182.755739 
L 366.443844 177.205936 
L 373.065527 172.484157 
L 379.557151 168.961523 
L 385.767271 166.671785 
L 391.588389 165.833761 
L 396.826719 167.001722 
L 401.311715 169.95792 
L 404.900324 174.972841 
L 407.408824 182.150206 
L 408.711994 190.986902 
L 408.739353 201.287911 
L 407.454115 212.920247 
L 404.837209 225.609717 
L 400.893179 238.932126 
L 395.713456 252.3421 
L 389.4506 265.3613 
L 382.27752 277.590719 
L 374.386917 288.709166 
L 365.99128 298.473265 
L 357.317176 306.768601 
L 348.56134 313.704281 
L 339.886473 319.373211 
L 331.429956 323.880317 
L 323.303818 327.346749 
L 315.594895 329.90984 
L 308.370634 331.716709 
L 301.659023 332.906404 
L 295.469183 333.602947 
L 289.802608 333.914373 
L 284.653167 333.932735 
L 280.007104 333.734099 
L 275.843037 333.378545 
L 272.126554 332.915281 
L 265.896098 331.831008 
L 261.060905 330.732046 
L 253.34855 328.644694 
L 250.670764 328.009863 
L 249.36268 327.845128 
L 248.307176 327.877585 
L 247.416577 328.100054 
L 246.612126 328.505491 
L 245.839772 329.101464 
L 244.630251 330.381437 
L 243.227952 332.198114 
L 240.059254 336.800279 
L 235.134871 344.361183 
L 207.114794 387.991993 
L 198.533234 400.88159 
L 188.302697 415.883778 
L 182.521536 424.132629 
L 176.283662 432.802735 
L 169.587334 441.802694 
L 162.437094 451.01434 
L 154.846508 460.264539 
L 146.873383 469.342012 
L 138.602365 478.068187 
L 130.121609 486.240409 
L 121.522593 493.63082 
L 112.915534 499.959598 
L 104.512858 504.571272 
L 96.492496 506.739152 
L 89.090168 505.953415 
L 82.621178 501.916303 
L 77.479842 494.541106 
L 73.981734 483.881103 
L 72.265994 470.427058 
L 72.445697 454.767904 
L 74.582796 437.391276 
L 78.68812 418.68351 
L 84.714072 399.265272 
L 92.457001 380.576512 
L 101.611041 363.277634 
L 111.857622 347.791931 
L 122.867293 334.359317 
L 134.305993 323.044441 
L 145.882104 313.802405 
L 157.340231 306.500884 
L 168.470316 300.948308 
L 179.110121 296.897532 
L 189.145228 294.045833 
L 198.503866 292.11642 
L 207.153528 290.939469 
L 215.087798 290.330377 
L 222.314854 290.131023 
L 228.85745 290.209992 
L 234.753048 290.462395 
L 244.812206 291.173729 
L 256.287457 292.021701 
L 259.347528 292.103132 
L 262.113319 292.04341 
L 264.640049 291.827941 
L 266.968682 291.445938 
L 269.132162 290.886324 
L 271.165054 290.140053 
L 273.101644 289.200478 
L 274.975945 288.063354 
L 276.821691 286.726833 
L 276.821691 286.726833 
" clip-path="url(#p824c79e9d5)" style="fill: none; stroke: #000000; stroke-opacity: 0.3; stroke-width: 7; stroke-linecap: square"/>
   </g>
   <g id="line2d_12">
    <path d="M 357.23926 237.353528 
L 357.169673 238.529551 
L 356.964868 239.765629 
L 356.172199 242.408026 
L 354.905363 245.249859 
L 353.208943 248.250576 
L 351.128846 251.361856 
L 348.7157 254.528889 
L 346.022317 257.695454 
L 343.105328 260.807611 
L 340.022349 263.816397 
L 336.831749 266.678403 
L 333.588495 269.362979 
L 328.739288 273.005305 
L 324.041217 276.155988 
L 319.616024 278.812282 
L 315.547443 281.002369 
L 310.761968 283.275893 
L 306.742578 284.927935 
L 302.755425 286.313528 
L 299.307421 287.266865 
L 296.467205 287.809254 
L 294.468701 287.961294 
L 293.798469 287.877692 
L 293.868095 287.582096 
L 294.421753 286.486507 
L 296.03926 283.886063 
L 299.096287 279.466115 
L 303.748923 273.168057 
L 309.813633 265.34835 
L 316.740536 256.801534 
L 323.700453 248.596669 
L 329.788625 241.749837 
L 336.594267 234.494842 
L 341.482282 229.570143 
L 346.600175 224.695498 
L 351.87844 219.99559 
L 357.235981 215.597297 
L 362.57645 211.625248 
L 367.796347 208.174136 
L 372.788736 205.321908 
L 377.460164 203.083775 
L 381.730999 201.440931 
L 385.543222 200.331116 
L 388.875279 199.654463 
L 391.723239 199.297347 
L 395.15999 199.121059 
L 400.194506 199.121255 
L 401.089344 199.225467 
L 401.78074 199.532453 
L 402.043708 199.813597 
L 402.240987 200.216436 
L 402.363289 200.769168 
L 402.400066 201.503695 
L 402.148752 203.654359 
L 401.334035 206.937174 
L 399.774031 211.595181 
L 397.276773 217.765593 
L 395.618127 221.432196 
L 393.663319 225.461341 
L 391.398963 229.826337 
L 388.812603 234.49128 
L 385.905132 239.400623 
L 382.683217 244.492734 
L 379.156681 249.704718 
L 375.341971 254.964213 
L 371.267829 260.204833 
L 366.964141 265.362074 
L 362.464548 270.372963 
L 357.808449 275.185609 
L 353.036233 279.763272 
L 348.187677 284.071998 
L 343.305016 288.084455 
L 338.425456 291.792338 
L 333.58415 295.192454 
L 328.814249 298.284837 
L 324.146815 301.076958 
L 319.603962 303.58394 
L 315.206888 305.82138 
L 310.974226 307.806928 
L 306.918308 309.560456 
L 299.369953 312.451063 
L 292.602928 314.648714 
L 286.61624 316.295253 
L 281.379555 317.51251 
L 274.819016 318.748895 
L 269.6227 319.501239 
L 264.429424 320.049872 
L 258.773757 320.406459 
L 253.417835 320.496639 
L 252.913569 320.387531 
L 253.04318 320.069755 
L 254.04688 318.479174 
L 259.147683 310.511294 
L 264.198122 302.169413 
L 271.844705 289.018131 
L 282.154054 270.756488 
L 311.012558 219.111573 
L 318.217532 206.482633 
L 326.310645 192.552154 
L 335.356817 177.386194 
L 345.407699 161.128005 
L 356.476519 144.081504 
L 368.542534 126.672844 
L 381.513466 109.513716 
L 395.240069 93.319814 
L 409.487479 78.853495 
L 423.96473 66.792701 
L 438.33745 57.583503 
L 452.272343 51.305442 
L 465.481439 47.649814 
L 477.756412 45.972018 
L 489.005582 45.46943 
L 508.497673 45.422353 
L 516.886735 45.735482 
L 524.387235 47.45477 
L 530.796584 52.778044 
L 535.606408 64.984975 
L 537.929631 87.92657 
L 536.536671 124.688784 
L 530.098207 175.541747 
L 517.6271 236.494795 
L 498.922544 300.077866 
L 474.742258 358.470302 
L 446.547517 406.564775 
L 416.043572 442.893045 
L 384.7788 468.579485 
L 353.946464 485.81002 
L 324.365868 496.785521 
L 296.545558 503.274456 
L 270.76675 506.520947 
L 247.167236 507.341761 
L 225.796728 506.230405 
L 206.656257 503.446575 
L 189.726107 499.095919 
L 174.981775 493.194282 
L 162.403658 485.703799 
L 151.978209 476.581372 
L 143.696755 465.819888 
L 137.549221 453.47709 
L 133.512344 439.715807 
L 131.541457 424.800915 
L 131.557493 409.102853 
L 133.440157 393.065114 
L 137.027443 377.158569 
L 142.117007 361.83686 
L 148.475503 347.481836 
L 155.852861 334.38733 
L 163.993561 322.736995 
L 172.650683 312.613058 
L 181.596299 304.011478 
L 190.628174 296.864486 
L 199.573714 291.062073 
L 208.290349 286.470837 
L 216.66666 282.948659 
L 224.616525 280.354978 
L 232.07912 278.557018 
L 239.013944 277.43357 
L 245.397422 276.875367 
L 251.221059 276.78707 
L 256.486556 277.083726 
L 261.20592 277.693334 
L 265.396797 278.551559 
L 269.083207 279.605273 
L 272.291748 280.805357 
L 275.052731 282.113437 
L 277.397252 283.494964 
L 279.357582 284.919063 
L 280.965944 286.36268 
L 282.253986 287.80516 
L 283.25386 289.227532 
L 283.994825 290.617634 
L 284.505393 291.964663 
L 284.813029 293.259316 
L 284.943991 294.494714 
L 284.920839 295.667436 
L 284.765675 296.774364 
L 284.14061 298.784594 
L 283.207037 300.527056 
L 282.080305 302.014187 
L 280.848118 303.267018 
L 278.949404 304.760802 
L 277.123246 305.868881 
L 274.951685 306.884563 
L 272.771574 307.632389 
L 270.683772 308.099823 
L 268.967505 308.25584 
L 268.318782 308.236399 
L 268.318782 308.236399 
" clip-path="url(#p824c79e9d5)" style="fill: none; stroke-dasharray: 22.4,5.6,3.5,5.6; stroke-dashoffset: 0; stroke: #0000ff; stroke-opacity: 0.8; stroke-width: 3.5"/>
   </g>
   <g id="patch_3">
    <path d="M 48.982813 530.438125 
L 48.982813 22.318125 
" style="fill: none; stroke: #000000; stroke-width: 0.8; stroke-linejoin: miter; stroke-linecap: square"/>
   </g>
   <g id="patch_4">
    <path d="M 561.212812 530.438125 
L 561.212812 22.318125 
" style="fill: none; stroke: #000000; stroke-width: 0.8; stroke-linejoin: miter; stroke-linecap: square"/>
   </g>
   <g id="patch_5">
    <path d="M 48.982812 530.438125 
L 561.212812 530.438125 
" style="fill: none; stroke: #000000; stroke-width: 0.8; stroke-linejoin: miter; stroke-linecap: square"/>
   </g>
   <g id="patch_6">
    <path d="M 48.982812 22.318125 
L 561.212812 22.318125 
" style="fill: none; stroke: #000000; stroke-width: 0.8; stroke-linejoin: miter; stroke-linecap: square"/>
   </g>
   <g id="line2d_13">
    <path d="M 357.23926 237.353528 
L 357.702075 231.886169 
L 358.717725 226.785185 
L 360.168653 222.108005 
L 361.950621 217.912151 
L 363.964191 214.253007 
L 366.12716 211.181329 
L 368.382829 208.746301 
L 370.697491 206.998939 
L 373.022117 205.988417 
L 375.28262 205.760463 
L 377.348537 206.349065 
L 379.07716 207.76288 
L 380.337595 209.996263 
L 381.096847 212.99966 
L 381.352892 216.710391 
L 381.137174 221.049736 
L 380.471519 225.929784 
L 379.368027 231.261598 
L 377.815475 236.955247 
L 375.782963 242.900145 
L 373.234513 248.965706 
L 370.170971 254.994648 
L 366.627402 260.830948 
L 362.689498 266.34996 
L 358.462984 271.477409 
L 354.050694 276.178536 
L 349.530571 280.447832 
L 344.965348 284.284393 
L 340.404122 287.683477 
L 335.896509 290.636401 
L 331.498369 293.134652 
L 327.268499 295.176659 
L 323.262937 296.77209 
L 319.51551 297.947537 
L 316.048161 298.735738 
L 312.85711 299.176769 
L 309.93034 299.309892 
L 307.249831 299.173821 
L 304.809394 298.798744 
L 302.608005 298.211746 
L 300.654499 297.436242 
L 298.965491 296.486974 
L 297.556889 295.376183 
L 296.443674 294.113042 
L 295.623498 292.70159 
L 295.088001 291.144681 
L 294.82037 289.443805 
L 294.7971 287.599678 
L 294.994766 285.61311 
L 295.391283 283.485286 
L 295.972029 281.218383 
L 296.726605 278.814942 
L 297.651313 276.277891 
L 298.749435 273.609409 
L 300.027476 270.811217 
L 301.497064 267.881595 
L 303.170633 264.815984 
L 305.064156 261.608987 
L 309.548859 254.712614 
L 315.00423 247.069148 
L 321.385569 238.585182 
L 328.57183 229.36059 
L 332.436228 224.588614 
L 336.481988 219.817585 
L 340.719668 215.140134 
L 345.136433 210.653912 
L 349.697345 206.455177 
L 354.329525 202.638124 
L 358.938953 199.296971 
L 363.440372 196.527101 
L 367.792511 194.428975 
L 371.986273 193.10831 
L 375.982428 192.671641 
L 379.655339 193.217834 
L 382.82086 194.82412 
L 385.334063 197.531522 
L 387.140529 201.33843 
L 388.240934 206.185677 
L 388.630825 211.962978 
L 388.29473 218.514608 
L 387.235336 225.672178 
L 385.470584 233.2857 
L 383.007329 241.203768 
L 379.826404 249.236632 
L 375.931226 257.142988 
L 371.412578 264.680485 
L 366.433264 271.684336 
L 361.171894 278.091663 
L 355.758232 283.912322 
L 350.269147 289.174962 
L 344.732227 293.889031 
L 339.161964 298.044286 
L 333.594379 301.611331 
L 328.09185 304.562904 
L 322.750365 306.894512 
L 317.670241 308.634704 
L 312.92874 309.842406 
L 308.5643 310.595005 
L 304.571578 310.970641 
L 300.923698 311.041415 
L 297.5895 310.864388 
L 294.547024 310.486344 
L 291.796395 309.940774 
L 289.352223 309.253435 
L 287.235274 308.441207 
L 285.461613 307.515811 
L 284.029026 306.483521 
L 282.917256 305.346866 
L 282.094381 304.10616 
L 281.52266 302.758918 
L 281.166396 301.301691 
L 281.001184 299.729317 
L 281.010712 298.03576 
L 281.190763 296.213666 
L 281.543879 294.254752 
L 282.077498 292.149916 
L 282.799396 289.890657 
L 283.719716 287.465203 
L 284.841622 284.867217 
L 287.699274 279.131665 
L 291.39239 272.650655 
L 295.983203 265.391713 
L 301.587636 257.264313 
L 308.319211 248.064439 
L 329.652373 219.517134 
L 334.59373 213.180568 
L 339.798886 206.859129 
L 345.289424 200.661289 
L 351.076865 194.697497 
L 357.110591 189.101836 
L 363.291037 184.021362 
L 369.427975 179.624886 
L 375.32546 176.092614 
L 380.925587 173.619122 
L 386.273435 172.408513 
L 391.266973 172.654217 
L 395.628978 174.52179 
L 399.194635 178.109656 
L 401.979465 183.477191 
L 403.903977 190.603688 
L 404.699307 199.372216 
L 404.144009 209.465622 
L 402.258232 220.469873 
L 399.266238 232.029547 
L 395.290021 243.888406 
L 390.274648 255.70776 
L 384.253538 266.997621 
L 377.480087 277.376697 
L 370.256743 286.718871 
L 362.756342 295.063394 
L 355.077757 302.469025 
L 347.314904 308.963308 
L 339.562199 314.536353 
L 331.897089 319.15706 
L 324.39233 322.8085 
L 317.140972 325.527188 
L 310.255341 327.421159 
L 303.842675 328.650245 
L 297.97353 329.383302 
L 292.660067 329.762624 
L 287.859312 329.891421 
L 283.500034 329.838567 
L 279.515651 329.649945 
L 272.545894 328.985329 
L 266.936525 328.083088 
L 262.700652 327.079532 
L 259.568905 326.070813 
L 256.118422 324.678955 
L 253.05724 323.221772 
L 252.224975 322.662439 
L 251.802159 322.169475 
L 251.601033 321.47032 
L 251.47749 319.813572 
L 251.695185 319.044682 
L 252.311608 318.101478 
L 255.848014 313.423368 
L 258.707028 309.049656 
L 264.215351 300.169154 
L 271.199924 288.532863 
L 284.707234 265.667821 
L 292.438063 253.433768 
L 320.047785 211.187406 
L 327.260172 200.606213 
L 335.217012 189.34153 
L 343.752389 177.51601 
L 352.692007 165.505454 
L 362.116272 153.796522 
L 372.210387 142.693679 
L 382.705157 132.37195 
L 393.235549 123.213101 
L 403.802417 115.981926 
L 413.910092 111.653724 
L 423.417968 111.083671 
L 431.814003 114.82174 
L 438.82296 123.137173 
L 443.961843 136.15345 
L 446.820793 153.723312 
L 447.037491 175.026545 
L 444.5808 199.115895 
L 439.344717 224.715633 
L 431.772576 250.465336 
L 421.816582 275.354331 
L 410.037524 298.517927 
L 396.651897 319.424081 
L 382.129676 336.973051 
L 367.301198 350.999222 
L 352.482256 362.247822 
L 337.727425 371.358722 
L 323.237318 378.287532 
L 309.435592 382.912252 
L 296.616062 385.744013 
L 284.797835 387.58012 
L 273.866876 388.878068 
L 263.757975 389.720876 
L 254.488734 390.066621 
L 246.0912 389.964877 
L 238.557854 389.570361 
L 220.434849 388.225297 
L 215.565419 388.0169 
L 211.13444 387.976029 
L 207.076792 388.102406 
L 203.339521 388.391368 
L 199.883184 388.836893 
L 196.672088 389.433265 
L 193.676242 390.175109 
L 190.868031 391.056848 
L 188.221317 392.071967 
L 185.707857 393.215817 
L 183.305235 394.479282 
L 180.991388 395.852982 
L 176.544802 398.891608 
L 172.210221 402.246243 
L 158.998165 412.908458 
L 154.500387 416.073391 
L 152.285489 417.454969 
L 150.12691 418.658649 
L 148.049458 419.654025 
L 146.085193 420.404033 
L 144.259255 420.881319 
L 142.589603 421.067404 
L 141.094199 420.943811 
L 139.788888 420.498252 
L 138.682657 419.720473 
L 137.788053 418.620122 
L 137.117842 417.20817 
L 136.682586 415.497396 
L 136.501443 413.503285 
L 136.586784 411.25111 
L 136.939383 408.773342 
L 137.560012 406.10245 
L 138.444226 403.274281 
L 139.578851 400.330372 
L 140.939795 397.322362 
L 142.501857 394.30283 
L 144.239912 391.323978 
L 146.12841 388.439331 
L 148.143481 385.694807 
L 150.262483 383.129951 
L 152.463345 380.777143 
L 154.723936 378.654635 
L 157.021782 376.775711 
L 159.333282 375.144606 
L 161.633966 373.758508 
L 163.898534 372.612061 
L 166.101076 371.695626 
L 168.215881 370.998337 
L 170.219914 370.510068 
L 172.082629 370.218165 
L 173.786527 370.113574 
L 175.318278 370.188451 
L 176.664558 370.43495 
L 177.814708 370.845531 
L 178.764528 371.414365 
L 179.518431 372.135983 
L 180.082503 373.004897 
L 180.462992 374.015513 
L 180.669799 375.16242 
L 180.711994 376.439342 
L 180.597992 377.839724 
L 180.335646 379.35716 
L 179.394185 382.714128 
L 177.92667 386.454279 
L 175.962404 390.523636 
L 173.518933 394.870512 
L 170.596719 399.434944 
L 167.183105 404.151806 
L 163.27588 408.904523 
L 161.1432 411.247449 
L 158.898657 413.537082 
L 156.561191 415.740977 
L 154.152501 417.825265 
L 151.698598 419.753536 
L 149.235823 421.484566 
L 146.807272 422.975844 
L 144.454856 424.186244 
L 142.227789 425.070527 
L 140.159611 425.596327 
L 138.280637 425.734305 
L 136.613229 425.460408 
L 135.169819 424.76642 
L 133.96262 423.653646 
L 133.005659 422.127277 
L 132.321608 420.207815 
L 131.935891 417.921437 
L 131.870829 415.296752 
L 132.155012 412.365268 
L 132.788047 409.171057 
L 133.764918 405.760034 
L 135.071439 402.183343 
L 136.677298 398.501496 
L 138.544765 394.786589 
L 140.636721 391.108526 
L 142.916019 387.545942 
L 145.351158 384.162437 
L 147.914446 381.006198 
L 150.578445 378.120412 
L 153.315855 375.536419 
L 156.099016 373.259359 
L 158.900325 371.28946 
L 161.691539 369.623059 
L 164.444236 368.247127 
L 167.128787 367.145094 
L 169.715654 366.300475 
L 172.174127 365.696473 
L 174.475434 365.318076 
L 176.593571 365.152405 
L 178.504102 365.187628 
L 180.191822 365.414801 
L 181.648258 365.826423 
L 182.86885 366.41575 
L 183.858304 367.177123 
L 184.625445 368.104972 
L 185.181317 369.193984 
L 185.538914 370.438529 
L 185.707632 371.831849 
L 185.696868 373.367183 
L 185.514427 375.038017 
L 185.165075 376.835787 
L 184.652703 378.753503 
L 183.981175 380.784252 
L 182.175836 385.157551 
L 179.786829 389.906311 
L 176.838275 394.988909 
L 173.339121 400.360614 
L 169.265156 405.950636 
L 167.00369 408.790212 
L 164.588343 411.634252 
L 162.024489 414.452867 
L 159.322627 417.212128 
L 156.496081 419.875438 
L 153.572084 422.397859 
L 150.586986 424.730133 
L 147.582658 426.820554 
L 144.61399 428.6121 
L 141.742583 430.047155 
L 139.027346 431.070444 
L 136.528526 431.62475 
L 134.271068 431.676746 
L 132.279751 431.197077 
L 130.556239 430.166581 
L 129.118338 428.596501 
L 127.990947 426.505506 
L 127.209618 423.919573 
L 126.825606 420.878049 
L 126.87453 417.428615 
L 127.385402 413.621264 
L 128.374028 409.505635 
L 129.809174 405.151495 
L 131.650832 400.633071 
L 133.848042 396.035149 
L 136.342576 391.458786 
L 139.082109 387.006305 
L 142.023355 382.771974 
L 145.129508 378.83229 
L 148.365179 375.240695 
L 151.693969 372.028457 
L 155.078125 369.206566 
L 158.480595 366.771669 
L 161.866799 364.70954 
L 165.205747 362.998425 
L 168.468133 361.613897 
L 171.624035 360.530764 
L 174.640993 359.726307 
L 177.486862 359.179189 
L 180.125443 358.870446 
L 182.531493 358.787476 
L 184.681866 358.918425 
L 186.561051 359.253598 
L 188.169707 359.785945 
L 189.51369 360.50893 
L 190.606767 361.416892 
L 191.46439 362.504149 
L 192.100773 363.764959 
L 192.52901 365.193325 
L 192.7565 366.782511 
L 192.78165 368.52583 
L 192.602869 370.416595 
L 192.219159 372.448276 
L 191.628018 374.614295 
L 190.830287 376.908907 
L 189.833303 379.327868 
L 188.6444 381.866937 
L 185.729167 387.292011 
L 182.161464 393.16364 
L 177.981694 399.46092 
L 173.166292 406.132477 
L 170.503254 409.570927 
L 167.661022 413.048409 
L 164.643424 416.527484 
L 161.458729 419.966777 
L 158.123514 423.31809 
L 158.123514 423.31809 
" clip-path="url(#p824c79e9d5)" style="fill: none; stroke-dasharray: 3.5,5.775; stroke-dashoffset: 0; stroke: #008000; stroke-opacity: 0.8; stroke-width: 3.5"/>
   </g>
   <g id="text_13">
    <!-- Phase Portrait (x0 vs x1) -->
    <g transform="translate(231.406562 16.318125) scale(0.12 -0.12)">
     <defs>
      <path id="DejaVuSans-50" d="M 1259 4147 
L 1259 2394 
L 2053 2394 
Q 2494 2394 2734 2622 
Q 2975 2850 2975 3272 
Q 2975 3691 2734 3919 
Q 2494 4147 2053 4147 
L 1259 4147 
z
M 628 4666 
L 2053 4666 
Q 2838 4666 3239 4311 
Q 3641 3956 3641 3272 
Q 3641 2581 3239 2228 
Q 2838 1875 2053 1875 
L 1259 1875 
L 1259 0 
L 628 0 
L 628 4666 
z
" transform="scale(0.015625)"/>
      <path id="DejaVuSans-68" d="M 3513 2113 
L 3513 0 
L 2938 0 
L 2938 2094 
Q 2938 2591 2744 2837 
Q 2550 3084 2163 3084 
Q 1697 3084 1428 2787 
Q 1159 2491 1159 1978 
L 1159 0 
L 581 0 
L 581 4863 
L 1159 4863 
L 1159 2956 
Q 1366 3272 1645 3428 
Q 1925 3584 2291 3584 
Q 2894 3584 3203 3211 
Q 3513 2838 3513 2113 
z
" transform="scale(0.015625)"/>
      <path id="DejaVuSans-61" d="M 2194 1759 
Q 1497 1759 1228 1600 
Q 959 1441 959 1056 
Q 959 750 1161 570 
Q 1363 391 1709 391 
Q 2188 391 2477 730 
Q 2766 1069 2766 1631 
L 2766 1759 
L 2194 1759 
z
M 3341 1997 
L 3341 0 
L 2766 0 
L 2766 531 
Q 2569 213 2275 61 
Q 1981 -91 1556 -91 
Q 1019 -91 701 211 
Q 384 513 384 1019 
Q 384 1609 779 1909 
Q 1175 2209 1959 2209 
L 2766 2209 
L 2766 2266 
Q 2766 2663 2505 2880 
Q 2244 3097 1772 3097 
Q 1472 3097 1187 3025 
Q 903 2953 641 2809 
L 641 3341 
Q 956 3463 1253 3523 
Q 1550 3584 1831 3584 
Q 2591 3584 2966 3190 
Q 3341 2797 3341 1997 
z
" transform="scale(0.015625)"/>
      <path id="DejaVuSans-73" d="M 2834 3397 
L 2834 2853 
Q 2591 2978 2328 3040 
Q 2066 3103 1784 3103 
Q 1356 3103 1142 2972 
Q 928 2841 928 2578 
Q 928 2378 1081 2264 
Q 1234 2150 1697 2047 
L 1894 2003 
Q 2506 1872 2764 1633 
Q 3022 1394 3022 966 
Q 3022 478 2636 193 
Q 2250 -91 1575 -91 
Q 1294 -91 989 -36 
Q 684 19 347 128 
L 347 722 
Q 666 556 975 473 
Q 1284 391 1588 391 
Q 1994 391 2212 530 
Q 2431 669 2431 922 
Q 2431 1156 2273 1281 
Q 2116 1406 1581 1522 
L 1381 1569 
Q 847 1681 609 1914 
Q 372 2147 372 2553 
Q 372 3047 722 3315 
Q 1072 3584 1716 3584 
Q 2034 3584 2315 3537 
Q 2597 3491 2834 3397 
z
" transform="scale(0.015625)"/>
      <path id="DejaVuSans-65" d="M 3597 1894 
L 3597 1613 
L 953 1613 
Q 991 1019 1311 708 
Q 1631 397 2203 397 
Q 2534 397 2845 478 
Q 3156 559 3463 722 
L 3463 178 
Q 3153 47 2828 -22 
Q 2503 -91 2169 -91 
Q 1331 -91 842 396 
Q 353 884 353 1716 
Q 353 2575 817 3079 
Q 1281 3584 2069 3584 
Q 2775 3584 3186 3129 
Q 3597 2675 3597 1894 
z
M 3022 2063 
Q 3016 2534 2758 2815 
Q 2500 3097 2075 3097 
Q 1594 3097 1305 2825 
Q 1016 2553 972 2059 
L 3022 2063 
z
" transform="scale(0.015625)"/>
      <path id="DejaVuSans-20" transform="scale(0.015625)"/>
      <path id="DejaVuSans-6f" d="M 1959 3097 
Q 1497 3097 1228 2736 
Q 959 2375 959 1747 
Q 959 1119 1226 758 
Q 1494 397 1959 397 
Q 2419 397 2687 759 
Q 2956 1122 2956 1747 
Q 2956 2369 2687 2733 
Q 2419 3097 1959 3097 
z
M 1959 3584 
Q 2709 3584 3137 3096 
Q 3566 2609 3566 1747 
Q 3566 888 3137 398 
Q 2709 -91 1959 -91 
Q 1206 -91 779 398 
Q 353 888 353 1747 
Q 353 2609 779 3096 
Q 1206 3584 1959 3584 
z
" transform="scale(0.015625)"/>
      <path id="DejaVuSans-72" d="M 2631 2963 
Q 2534 3019 2420 3045 
Q 2306 3072 2169 3072 
Q 1681 3072 1420 2755 
Q 1159 2438 1159 1844 
L 1159 0 
L 581 0 
L 581 3500 
L 1159 3500 
L 1159 2956 
Q 1341 3275 1631 3429 
Q 1922 3584 2338 3584 
Q 2397 3584 2469 3576 
Q 2541 3569 2628 3553 
L 2631 2963 
z
" transform="scale(0.015625)"/>
      <path id="DejaVuSans-74" d="M 1172 4494 
L 1172 3500 
L 2356 3500 
L 2356 3053 
L 1172 3053 
L 1172 1153 
Q 1172 725 1289 603 
Q 1406 481 1766 481 
L 2356 481 
L 2356 0 
L 1766 0 
Q 1100 0 847 248 
Q 594 497 594 1153 
L 594 3053 
L 172 3053 
L 172 3500 
L 594 3500 
L 594 4494 
L 1172 4494 
z
" transform="scale(0.015625)"/>
      <path id="DejaVuSans-69" d="M 603 3500 
L 1178 3500 
L 1178 0 
L 603 0 
L 603 3500 
z
M 603 4863 
L 1178 4863 
L 1178 4134 
L 603 4134 
L 603 4863 
z
" transform="scale(0.015625)"/>
      <path id="DejaVuSans-28" d="M 1984 4856 
Q 1566 4138 1362 3434 
Q 1159 2731 1159 2009 
Q 1159 1288 1364 580 
Q 1569 -128 1984 -844 
L 1484 -844 
Q 1016 -109 783 600 
Q 550 1309 550 2009 
Q 550 2706 781 3412 
Q 1013 4119 1484 4856 
L 1984 4856 
z
" transform="scale(0.015625)"/>
      <path id="DejaVuSans-76" d="M 191 3500 
L 800 3500 
L 1894 563 
L 2988 3500 
L 3597 3500 
L 2284 0 
L 1503 0 
L 191 3500 
z
" transform="scale(0.015625)"/>
      <path id="DejaVuSans-29" d="M 513 4856 
L 1013 4856 
Q 1481 4119 1714 3412 
Q 1947 2706 1947 2009 
Q 1947 1309 1714 600 
Q 1481 -109 1013 -844 
L 513 -844 
Q 928 -128 1133 580 
Q 1338 1288 1338 2009 
Q 1338 2731 1133 3434 
Q 928 4138 513 4856 
z
" transform="scale(0.015625)"/>
     </defs>
     <use xlink:href="#DejaVuSans-50"/>
     <use xlink:href="#DejaVuSans-68" transform="translate(60.302734 0)"/>
     <use xlink:href="#DejaVuSans-61" transform="translate(123.681641 0)"/>
     <use xlink:href="#DejaVuSans-73" transform="translate(184.960938 0)"/>
     <use xlink:href="#DejaVuSans-65" transform="translate(237.060547 0)"/>
     <use xlink:href="#DejaVuSans-20" transform="translate(298.583984 0)"/>
     <use xlink:href="#DejaVuSans-50" transform="translate(330.371094 0)"/>
     <use xlink:href="#DejaVuSans-6f" transform="translate(387.048828 0)"/>
     <use xlink:href="#DejaVuSans-72" transform="translate(448.230469 0)"/>
     <use xlink:href="#DejaVuSans-74" transform="translate(489.34375 0)"/>
     <use xlink:href="#DejaVuSans-72" transform="translate(528.552734 0)"/>
     <use xlink:href="#DejaVuSans-61" transform="translate(569.666016 0)"/>
     <use xlink:href="#DejaVuSans-69" transform="translate(630.945312 0)"/>
     <use xlink:href="#DejaVuSans-74" transform="translate(658.728516 0)"/>
     <use xlink:href="#DejaVuSans-20" transform="translate(697.9375 0)"/>
     <use xlink:href="#DejaVuSans-28" transform="translate(729.724609 0)"/>
     <use xlink:href="#DejaVuSans-78" transform="translate(768.738281 0)"/>
     <use xlink:href="#DejaVuSans-30" transform="translate(827.917969 0)"/>
     <use xlink:href="#DejaVuSans-20" transform="translate(891.541016 0)"/>
     <use xlink:href="#DejaVuSans-76" transform="translate(923.328125 0)"/>
     <use xlink:href="#DejaVuSans-73" transform="translate(982.507812 0)"/>
     <use xlink:href="#DejaVuSans-20" transform="translate(1034.607422 0)"/>
     <use xlink:href="#DejaVuSans-78" transform="translate(1066.394531 0)"/>
     <use xlink:href="#DejaVuSans-31" transform="translate(1125.574219 0)"/>
     <use xlink:href="#DejaVuSans-29" transform="translate(1189.197266 0)"/>
    </g>
   </g>
   <g id="line2d_14">
    <path d="M 357.23926 237.353528 
L 357.663342 231.747676 
L 358.622257 226.562827 
L 360.016647 221.821934 
L 361.772862 217.561523 
L 363.823196 213.822515 
L 366.095429 210.656028 
L 368.5063 208.118474 
L 370.970518 206.265365 
L 373.393356 205.158766 
L 375.68187 204.841972 
L 377.745177 205.352838 
L 379.490926 206.721191 
L 380.846222 208.93408 
L 381.747771 211.963543 
L 382.142182 215.763075 
L 382.017683 220.242499 
L 381.374316 225.299349 
L 380.228392 230.81633 
L 378.583806 236.660329 
L 376.437369 242.697263 
L 373.766441 248.787995 
L 370.585886 254.805299 
L 366.940444 260.633479 
L 362.909367 266.162721 
L 358.604322 271.314168 
L 354.133066 276.027331 
L 349.593906 280.252938 
L 345.056758 283.969402 
L 340.577951 287.167917 
L 336.203631 289.852958 
L 331.971048 292.046164 
L 327.915277 293.774758 
L 324.065932 295.074976 
L 320.447359 295.985261 
L 317.082986 296.547707 
L 313.98477 296.79887 
L 311.161632 296.773071 
L 308.620527 296.502868 
L 306.361974 296.01516 
L 304.382881 295.331193 
L 302.678804 294.470211 
L 301.242436 293.446352 
L 300.065332 292.270141 
L 299.138119 290.951117 
L 298.450975 289.494094 
L 297.99428 287.901873 
L 297.758884 286.176505 
L 297.735316 284.318367 
L 297.917752 282.325244 
L 298.301437 280.194557 
L 298.881957 277.923206 
L 299.657892 275.507149 
L 300.635254 272.941101 
L 301.820055 270.219776 
L 303.218693 267.338279 
L 304.844339 264.289751 
L 306.707126 261.07033 
L 308.816216 257.676901 
L 311.176876 254.109076 
L 316.654014 246.453046 
L 323.015323 238.204457 
L 330.052825 229.566156 
L 333.771211 225.210747 
L 337.602234 220.900335 
L 341.55048 216.693803 
L 345.603994 212.665082 
L 349.749728 208.888578 
L 353.964472 205.443802 
L 358.20633 202.420091 
L 362.407477 199.916077 
L 366.499914 198.029573 
L 370.408343 196.863091 
L 374.049168 196.50933 
L 377.338826 197.044596 
L 380.190273 198.538585 
L 382.519694 201.010464 
L 384.250966 204.451616 
L 385.307851 208.82803 
L 385.667398 214.041928 
L 385.327304 219.976358 
L 384.328326 226.487237 
L 382.702486 233.407406 
L 380.471867 240.568237 
L 377.609429 247.793255 
L 374.129009 254.923487 
L 370.066684 261.808671 
L 365.53667 268.314121 
L 360.682332 274.350436 
L 355.64046 279.840609 
L 350.521164 284.732943 
L 345.391238 289.010537 
L 340.310678 292.664592 
L 335.328539 295.706825 
L 330.490438 298.17191 
L 325.840889 300.099118 
L 321.41988 301.539399 
L 317.259401 302.546704 
L 313.385828 303.174686 
L 309.815688 303.472666 
L 306.560016 303.48585 
L 303.622493 303.251958 
L 301.002891 302.803912 
L 298.696281 302.167329 
L 296.695704 301.364778 
L 294.991161 300.411565 
L 293.571897 299.320438 
L 292.426054 298.101237 
L 291.541226 296.758792 
L 290.90517 295.296405 
L 290.505065 293.715966 
L 290.329646 292.015166 
L 290.368006 290.191134 
L 290.609764 288.240156 
L 291.045799 286.156874 
L 291.670821 283.934434 
L 292.480883 281.565756 
L 293.471333 279.043578 
L 296.014126 273.504277 
L 299.368881 267.244373 
L 303.658457 260.187465 
L 309.008481 252.270167 
L 315.444228 243.478303 
L 322.816402 233.915043 
L 330.909776 223.851896 
L 335.199939 218.766183 
L 339.658494 213.73537 
L 344.303183 208.831326 
L 349.116953 204.145959 
L 354.060453 199.781046 
L 359.082012 195.844982 
L 364.099404 192.465745 
L 369.022747 189.779906 
L 373.758461 187.93657 
L 378.211121 187.070041 
L 382.28487 187.304065 
L 385.880907 188.756831 
L 388.893332 191.465196 
L 391.215758 195.444278 
L 392.735805 200.656082 
L 393.370353 206.98431 
L 393.074209 214.27407 
L 391.896382 222.31535 
L 389.919982 230.879128 
L 387.197091 239.72541 
L 383.707397 248.61369 
L 379.448794 257.32492 
L 374.487001 265.652979 
L 369.003105 273.445897 
L 363.192437 280.585845 
L 357.206268 286.995474 
L 351.131335 292.635147 
L 345.033606 297.481928 
L 338.975502 301.549864 
L 333.024289 304.868328 
L 327.250674 307.491902 
L 321.718118 309.490831 
L 316.48052 310.942844 
L 311.574448 311.926232 
L 307.026076 312.514893 
L 302.848427 312.773454 
L 299.045758 312.757004 
L 295.615546 312.511543 
L 292.549989 312.074297 
L 289.837861 311.475742 
L 287.465481 310.739732 
L 285.417801 309.885765 
L 283.678934 308.92757 
L 282.232638 307.876661 
L 281.063097 306.739042 
L 280.154918 305.518711 
L 279.493126 304.217276 
L 279.06426 302.832554 
L 278.855531 301.361152 
L 278.854624 299.798326 
L 279.051557 298.136131 
L 279.436765 296.366261 
L 280.00088 294.479698 
L 281.638307 290.313081 
L 283.920159 285.544141 
L 286.833066 280.074275 
L 290.420786 273.797642 
L 294.809687 266.600024 
L 300.206797 258.355073 
L 306.804718 248.944147 
L 314.615736 238.323177 
L 323.433816 226.626866 
L 328.177175 220.485279 
L 333.166429 214.234101 
L 338.436694 207.954107 
L 344.006783 201.73688 
L 349.849589 195.692683 
L 355.892543 189.95338 
L 362.031947 184.676251 
L 368.157341 180.048331 
L 374.165639 176.27964 
L 379.954414 173.593684 
L 385.418426 172.209403 
L 390.439382 172.341219 
L 394.889989 174.129413 
L 398.643061 177.679314 
L 401.572735 183.020026 
L 403.536096 190.061633 
L 404.3712 198.661398 
L 403.944782 208.558487 
L 402.253648 219.428092 
L 399.462102 230.90009 
L 395.683708 242.601197 
L 390.878752 254.169624 
L 385.073554 265.27955 
L 378.492466 275.665735 
L 371.431753 285.146478 
L 364.070563 293.615293 
L 356.492753 301.013186 
L 348.777617 307.322598 
L 341.040599 312.557185 
L 333.418714 316.772098 
L 326.039638 320.054833 
L 318.999864 322.522875 
L 312.367524 324.302862 
L 306.182228 325.518251 
L 300.462527 326.277654 
L 295.212387 326.672544 
L 290.424929 326.777393 
L 286.086031 326.652685 
L 282.176733 326.348172 
L 278.674922 325.90523 
L 275.556475 325.358519 
L 272.796131 324.736258 
L 270.368245 324.062035 
L 266.408524 322.626557 
L 263.482702 321.150586 
L 261.415704 319.678698 
L 260.656376 318.947224 
L 260.057974 318.216424 
L 259.606205 317.482912 
L 259.288449 316.742265 
L 259.094408 315.988866 
L 259.042228 314.418817 
L 259.397483 312.715539 
L 260.132205 310.812453 
L 261.239237 308.634005 
L 263.630633 304.656186 
L 268.35532 297.467805 
L 275.130347 287.173876 
L 284.393971 272.553097 
L 290.38138 263.164094 
L 297.746753 252.065535 
L 311.762956 231.69975 
L 322.884772 215.679889 
L 329.077415 207.081394 
L 335.809266 198.194509 
L 343.052536 189.137662 
L 350.694999 180.062023 
L 358.599107 171.174894 
L 366.697799 162.740078 
L 374.978246 155.074933 
L 383.369403 148.571911 
L 391.722134 143.670307 
L 399.791924 140.831038 
L 407.31196 140.501587 
L 413.992264 143.021908 
L 419.524095 148.63427 
L 423.615617 157.379234 
L 426.077006 169.120464 
L 426.868806 183.499892 
L 425.835991 199.983808 
L 422.72789 217.873639 
L 417.808664 236.385277 
L 411.272593 254.756235 
L 403.08168 272.272373 
L 393.722511 288.377316 
L 383.56405 302.706683 
L 372.698147 315.099485 
L 361.408267 325.523754 
L 350.086923 334.044801 
L 339.010567 340.784521 
L 328.33562 345.920448 
L 318.16294 349.684635 
L 308.569607 352.33921 
L 299.605968 354.125038 
L 291.303125 355.248008 
L 283.668581 355.862449 
L 276.695254 356.093562 
L 270.362397 356.044913 
L 264.639601 355.808759 
L 254.862595 355.084336 
L 246.996661 354.426673 
L 240.642464 354.159739 
L 237.910326 354.233998 
L 235.414557 354.466023 
L 233.111992 354.866487 
L 230.963825 355.442279 
L 228.933138 356.199315 
L 226.984436 357.142687 
L 225.086154 358.277276 
L 223.208236 359.608169 
L 221.320739 361.140474 
L 219.397232 362.880411 
L 215.35028 367.011328 
L 210.896197 372.060783 
L 205.930824 378.087503 
L 200.406398 385.136306 
L 191.014928 397.636604 
L 183.822974 407.196508 
L 175.581186 417.631384 
L 171.007863 423.12667 
L 166.160136 428.749033 
L 161.083754 434.43461 
L 155.843371 440.098535 
L 150.489825 445.614794 
L 145.067159 450.847183 
L 139.601122 455.637002 
L 134.134099 459.810249 
L 128.721318 463.191248 
L 123.450942 465.600796 
L 118.439941 466.876993 
L 113.815019 466.864185 
L 109.71317 465.450849 
L 106.26548 462.564071 
L 103.595539 458.172809 
L 101.774014 452.33864 
L 100.84135 445.161514 
L 100.823112 436.822434 
L 101.784826 427.553659 
L 103.828997 417.628935 
L 106.981356 407.356309 
L 111.095339 397.046306 
L 115.944418 386.986051 
L 121.397889 377.420639 
L 127.418326 368.550657 
L 133.948524 360.529127 
L 140.837604 353.444481 
L 147.890014 347.325206 
L 154.927796 342.143507 
L 161.821562 337.837243 
L 168.482749 334.330131 
L 174.854858 331.543669 
L 180.894432 329.401474 
L 186.572892 327.831063 
L 191.866355 326.760833 
L 196.760899 326.120768 
L 201.249963 325.843275 
L 205.333591 325.864332 
L 209.019454 326.126847 
L 212.320203 326.580613 
L 215.252966 327.184 
L 217.83775 327.90322 
L 220.096287 328.711872 
L 222.051056 329.590313 
L 223.724461 330.524094 
L 225.138019 331.504001 
L 226.312443 332.523855 
L 227.266374 333.581546 
L 228.017089 334.676953 
L 228.580128 335.812032 
L 228.968346 336.991066 
L 229.194036 338.218871 
L 229.266157 339.502298 
L 229.191644 340.849355 
L 228.976304 342.268609 
L 228.62398 343.769488 
L 227.507567 347.061801 
L 225.826374 350.824134 
L 223.523898 355.175205 
L 220.512035 360.253581 
L 216.68117 366.219525 
L 209.222686 377.204511 
L 188.063124 407.972917 
L 183.518629 414.292257 
L 178.564817 420.941235 
L 173.202531 427.898758 
L 161.472548 442.52907 
L 155.236372 450.008513 
L 148.77279 457.394969 
L 142.056119 464.504806 
L 135.107566 471.106313 
L 128.002729 476.945925 
L 120.882175 481.746329 
L 113.921001 485.220849 
L 107.295098 487.080834 
L 101.181486 487.066201 
L 95.760552 484.957488 
L 91.227131 480.59103 
L 87.799358 473.94481 
L 85.694699 465.087381 
L 85.021292 454.257036 
L 85.73164 441.805192 
L 87.790763 428.175011 
L 91.346962 413.865562 
L 96.385425 399.413838 
L 102.582982 385.29458 
L 109.701406 371.926693 
L 117.731696 359.641637 
L 126.49064 348.693339 
L 135.61726 339.217409 
L 144.825625 331.228935 
L 153.958356 324.648327 
L 162.919844 319.340505 
L 171.622315 315.156403 
L 179.978918 311.955309 
L 187.911464 309.606819 
L 195.359087 307.985797 
L 202.280011 306.966135 
L 208.655327 306.42344 
L 214.480417 306.239301 
L 219.768019 306.310134 
L 224.541319 306.549536 
L 232.673344 307.274468 
L 246.519049 308.834955 
L 250.239051 308.986148 
L 253.305588 308.775009 
L 254.660465 308.524294 
L 255.928092 308.172748 
L 257.129563 307.717312 
L 258.285063 307.154844 
L 260.528899 305.692498 
L 262.791669 303.747721 
L 265.187048 301.266675 
L 267.815799 298.181221 
L 270.762556 294.404016 
L 272.378076 292.224756 
L 272.378076 292.224756 
" clip-path="url(#p824c79e9d5)" style="fill: none; stroke-dasharray: 12.95,5.6; stroke-dashoffset: 0; stroke: #ff0000; stroke-opacity: 0.8; stroke-width: 3.5"/>
   </g>
   <g id="legend_1">
    <g id="patch_7">
     <path d="M 55.982813 89.030625 
L 201.332813 89.030625 
Q 203.332813 89.030625 203.332813 87.030625 
L 203.332813 29.318125 
Q 203.332813 27.318125 201.332813 27.318125 
L 55.982813 27.318125 
Q 53.982813 27.318125 53.982813 29.318125 
L 53.982813 87.030625 
Q 53.982813 89.030625 55.982813 89.030625 
z
" style="fill: #ffffff; opacity: 0.8; stroke: #cccccc; stroke-linejoin: miter"/>
    </g>
    <g id="line2d_15">
     <path d="M 57.982813 35.416562 
L 67.982812 35.416562 
L 77.982812 35.416562 
" style="fill: none; stroke: #000000; stroke-opacity: 0.3; stroke-width: 7; stroke-linecap: square"/>
    </g>
    <g id="text_14">
     <!-- True/Underlying model -->
     <g transform="translate(85.982812 38.916562) scale(0.1 -0.1)">
      <defs>
       <path id="DejaVuSans-54" d="M -19 4666 
L 3928 4666 
L 3928 4134 
L 2272 4134 
L 2272 0 
L 1638 0 
L 1638 4134 
L -19 4134 
L -19 4666 
z
" transform="scale(0.015625)"/>
       <path id="DejaVuSans-75" d="M 544 1381 
L 544 3500 
L 1119 3500 
L 1119 1403 
Q 1119 906 1312 657 
Q 1506 409 1894 409 
Q 2359 409 2629 706 
Q 2900 1003 2900 1516 
L 2900 3500 
L 3475 3500 
L 3475 0 
L 2900 0 
L 2900 538 
Q 2691 219 2414 64 
Q 2138 -91 1772 -91 
Q 1169 -91 856 284 
Q 544 659 544 1381 
z
M 1991 3584 
L 1991 3584 
z
" transform="scale(0.015625)"/>
       <path id="DejaVuSans-2f" d="M 1625 4666 
L 2156 4666 
L 531 -594 
L 0 -594 
L 1625 4666 
z
" transform="scale(0.015625)"/>
       <path id="DejaVuSans-55" d="M 556 4666 
L 1191 4666 
L 1191 1831 
Q 1191 1081 1462 751 
Q 1734 422 2344 422 
Q 2950 422 3222 751 
Q 3494 1081 3494 1831 
L 3494 4666 
L 4128 4666 
L 4128 1753 
Q 4128 841 3676 375 
Q 3225 -91 2344 -91 
Q 1459 -91 1007 375 
Q 556 841 556 1753 
L 556 4666 
z
" transform="scale(0.015625)"/>
       <path id="DejaVuSans-6e" d="M 3513 2113 
L 3513 0 
L 2938 0 
L 2938 2094 
Q 2938 2591 2744 2837 
Q 2550 3084 2163 3084 
Q 1697 3084 1428 2787 
Q 1159 2491 1159 1978 
L 1159 0 
L 581 0 
L 581 3500 
L 1159 3500 
L 1159 2956 
Q 1366 3272 1645 3428 
Q 1925 3584 2291 3584 
Q 2894 3584 3203 3211 
Q 3513 2838 3513 2113 
z
" transform="scale(0.015625)"/>
       <path id="DejaVuSans-64" d="M 2906 2969 
L 2906 4863 
L 3481 4863 
L 3481 0 
L 2906 0 
L 2906 525 
Q 2725 213 2448 61 
Q 2172 -91 1784 -91 
Q 1150 -91 751 415 
Q 353 922 353 1747 
Q 353 2572 751 3078 
Q 1150 3584 1784 3584 
Q 2172 3584 2448 3432 
Q 2725 3281 2906 2969 
z
M 947 1747 
Q 947 1113 1208 752 
Q 1469 391 1925 391 
Q 2381 391 2643 752 
Q 2906 1113 2906 1747 
Q 2906 2381 2643 2742 
Q 2381 3103 1925 3103 
Q 1469 3103 1208 2742 
Q 947 2381 947 1747 
z
" transform="scale(0.015625)"/>
       <path id="DejaVuSans-6c" d="M 603 4863 
L 1178 4863 
L 1178 0 
L 603 0 
L 603 4863 
z
" transform="scale(0.015625)"/>
       <path id="DejaVuSans-79" d="M 2059 -325 
Q 1816 -950 1584 -1140 
Q 1353 -1331 966 -1331 
L 506 -1331 
L 506 -850 
L 844 -850 
Q 1081 -850 1212 -737 
Q 1344 -625 1503 -206 
L 1606 56 
L 191 3500 
L 800 3500 
L 1894 763 
L 2988 3500 
L 3597 3500 
L 2059 -325 
z
" transform="scale(0.015625)"/>
       <path id="DejaVuSans-67" d="M 2906 1791 
Q 2906 2416 2648 2759 
Q 2391 3103 1925 3103 
Q 1463 3103 1205 2759 
Q 947 2416 947 1791 
Q 947 1169 1205 825 
Q 1463 481 1925 481 
Q 2391 481 2648 825 
Q 2906 1169 2906 1791 
z
M 3481 434 
Q 3481 -459 3084 -895 
Q 2688 -1331 1869 -1331 
Q 1566 -1331 1297 -1286 
Q 1028 -1241 775 -1147 
L 775 -588 
Q 1028 -725 1275 -790 
Q 1522 -856 1778 -856 
Q 2344 -856 2625 -561 
Q 2906 -266 2906 331 
L 2906 616 
Q 2728 306 2450 153 
Q 2172 0 1784 0 
Q 1141 0 747 490 
Q 353 981 353 1791 
Q 353 2603 747 3093 
Q 1141 3584 1784 3584 
Q 2172 3584 2450 3431 
Q 2728 3278 2906 2969 
L 2906 3500 
L 3481 3500 
L 3481 434 
z
" transform="scale(0.015625)"/>
       <path id="DejaVuSans-6d" d="M 3328 2828 
Q 3544 3216 3844 3400 
Q 4144 3584 4550 3584 
Q 5097 3584 5394 3201 
Q 5691 2819 5691 2113 
L 5691 0 
L 5113 0 
L 5113 2094 
Q 5113 2597 4934 2840 
Q 4756 3084 4391 3084 
Q 3944 3084 3684 2787 
Q 3425 2491 3425 1978 
L 3425 0 
L 2847 0 
L 2847 2094 
Q 2847 2600 2669 2842 
Q 2491 3084 2119 3084 
Q 1678 3084 1418 2786 
Q 1159 2488 1159 1978 
L 1159 0 
L 581 0 
L 581 3500 
L 1159 3500 
L 1159 2956 
Q 1356 3278 1631 3431 
Q 1906 3584 2284 3584 
Q 2666 3584 2933 3390 
Q 3200 3197 3328 2828 
z
" transform="scale(0.015625)"/>
      </defs>
      <use xlink:href="#DejaVuSans-54"/>
      <use xlink:href="#DejaVuSans-72" transform="translate(46.333984 0)"/>
      <use xlink:href="#DejaVuSans-75" transform="translate(87.447266 0)"/>
      <use xlink:href="#DejaVuSans-65" transform="translate(150.826172 0)"/>
      <use xlink:href="#DejaVuSans-2f" transform="translate(212.349609 0)"/>
      <use xlink:href="#DejaVuSans-55" transform="translate(246.041016 0)"/>
      <use xlink:href="#DejaVuSans-6e" transform="translate(319.234375 0)"/>
      <use xlink:href="#DejaVuSans-64" transform="translate(382.613281 0)"/>
      <use xlink:href="#DejaVuSans-65" transform="translate(446.089844 0)"/>
      <use xlink:href="#DejaVuSans-72" transform="translate(507.613281 0)"/>
      <use xlink:href="#DejaVuSans-6c" transform="translate(548.726562 0)"/>
      <use xlink:href="#DejaVuSans-79" transform="translate(576.509766 0)"/>
      <use xlink:href="#DejaVuSans-69" transform="translate(635.689453 0)"/>
      <use xlink:href="#DejaVuSans-6e" transform="translate(663.472656 0)"/>
      <use xlink:href="#DejaVuSans-67" transform="translate(726.851562 0)"/>
      <use xlink:href="#DejaVuSans-20" transform="translate(790.328125 0)"/>
      <use xlink:href="#DejaVuSans-6d" transform="translate(822.115234 0)"/>
      <use xlink:href="#DejaVuSans-6f" transform="translate(919.527344 0)"/>
      <use xlink:href="#DejaVuSans-64" transform="translate(980.708984 0)"/>
      <use xlink:href="#DejaVuSans-65" transform="translate(1044.185547 0)"/>
      <use xlink:href="#DejaVuSans-6c" transform="translate(1105.708984 0)"/>
     </g>
    </g>
    <g id="line2d_16">
     <path d="M 57.982813 50.094687 
L 67.982812 50.094687 
L 77.982812 50.094687 
" style="fill: none; stroke-dasharray: 12.95,5.6; stroke-dashoffset: 0; stroke: #ff0000; stroke-opacity: 0.8; stroke-width: 3.5"/>
    </g>
    <g id="text_15">
     <!-- AutoSINDy -->
     <g transform="translate(85.982812 53.594687) scale(0.1 -0.1)">
      <defs>
       <path id="DejaVuSans-41" d="M 2188 4044 
L 1331 1722 
L 3047 1722 
L 2188 4044 
z
M 1831 4666 
L 2547 4666 
L 4325 0 
L 3669 0 
L 3244 1197 
L 1141 1197 
L 716 0 
L 50 0 
L 1831 4666 
z
" transform="scale(0.015625)"/>
       <path id="DejaVuSans-53" d="M 3425 4513 
L 3425 3897 
Q 3066 4069 2747 4153 
Q 2428 4238 2131 4238 
Q 1616 4238 1336 4038 
Q 1056 3838 1056 3469 
Q 1056 3159 1242 3001 
Q 1428 2844 1947 2747 
L 2328 2669 
Q 3034 2534 3370 2195 
Q 3706 1856 3706 1288 
Q 3706 609 3251 259 
Q 2797 -91 1919 -91 
Q 1588 -91 1214 -16 
Q 841 59 441 206 
L 441 856 
Q 825 641 1194 531 
Q 1563 422 1919 422 
Q 2459 422 2753 634 
Q 3047 847 3047 1241 
Q 3047 1584 2836 1778 
Q 2625 1972 2144 2069 
L 1759 2144 
Q 1053 2284 737 2584 
Q 422 2884 422 3419 
Q 422 4038 858 4394 
Q 1294 4750 2059 4750 
Q 2388 4750 2728 4690 
Q 3069 4631 3425 4513 
z
" transform="scale(0.015625)"/>
       <path id="DejaVuSans-49" d="M 628 4666 
L 1259 4666 
L 1259 0 
L 628 0 
L 628 4666 
z
" transform="scale(0.015625)"/>
       <path id="DejaVuSans-4e" d="M 628 4666 
L 1478 4666 
L 3547 763 
L 3547 4666 
L 4159 4666 
L 4159 0 
L 3309 0 
L 1241 3903 
L 1241 0 
L 628 0 
L 628 4666 
z
" transform="scale(0.015625)"/>
       <path id="DejaVuSans-44" d="M 1259 4147 
L 1259 519 
L 2022 519 
Q 2988 519 3436 956 
Q 3884 1394 3884 2338 
Q 3884 3275 3436 3711 
Q 2988 4147 2022 4147 
L 1259 4147 
z
M 628 4666 
L 1925 4666 
Q 3281 4666 3915 4102 
Q 4550 3538 4550 2338 
Q 4550 1131 3912 565 
Q 3275 0 1925 0 
L 628 0 
L 628 4666 
z
" transform="scale(0.015625)"/>
      </defs>
      <use xlink:href="#DejaVuSans-41"/>
      <use xlink:href="#DejaVuSans-75" transform="translate(68.408203 0)"/>
      <use xlink:href="#DejaVuSans-74" transform="translate(131.787109 0)"/>
      <use xlink:href="#DejaVuSans-6f" transform="translate(170.996094 0)"/>
      <use xlink:href="#DejaVuSans-53" transform="translate(232.177734 0)"/>
      <use xlink:href="#DejaVuSans-49" transform="translate(295.654297 0)"/>
      <use xlink:href="#DejaVuSans-4e" transform="translate(325.146484 0)"/>
      <use xlink:href="#DejaVuSans-44" transform="translate(399.951172 0)"/>
      <use xlink:href="#DejaVuSans-79" transform="translate(476.953125 0)"/>
     </g>
    </g>
    <g id="line2d_17">
     <path d="M 57.982813 64.772812 
L 67.982812 64.772812 
L 77.982812 64.772812 
" style="fill: none; stroke-dasharray: 3.5,5.775; stroke-dashoffset: 0; stroke: #008000; stroke-opacity: 0.8; stroke-width: 3.5"/>
    </g>
    <g id="text_16">
     <!-- Standard SINDy -->
     <g transform="translate(85.982812 68.272812) scale(0.1 -0.1)">
      <use xlink:href="#DejaVuSans-53"/>
      <use xlink:href="#DejaVuSans-74" transform="translate(63.476562 0)"/>
      <use xlink:href="#DejaVuSans-61" transform="translate(102.685547 0)"/>
      <use xlink:href="#DejaVuSans-6e" transform="translate(163.964844 0)"/>
      <use xlink:href="#DejaVuSans-64" transform="translate(227.34375 0)"/>
      <use xlink:href="#DejaVuSans-61" transform="translate(290.820312 0)"/>
      <use xlink:href="#DejaVuSans-72" transform="translate(352.099609 0)"/>
      <use xlink:href="#DejaVuSans-64" transform="translate(391.462891 0)"/>
      <use xlink:href="#DejaVuSans-20" transform="translate(454.939453 0)"/>
      <use xlink:href="#DejaVuSans-53" transform="translate(486.726562 0)"/>
      <use xlink:href="#DejaVuSans-49" transform="translate(550.203125 0)"/>
      <use xlink:href="#DejaVuSans-4e" transform="translate(579.695312 0)"/>
      <use xlink:href="#DejaVuSans-44" transform="translate(654.5 0)"/>
      <use xlink:href="#DejaVuSans-79" transform="translate(731.501953 0)"/>
     </g>
    </g>
    <g id="line2d_18">
     <path d="M 57.982813 79.450937 
L 67.982812 79.450937 
L 77.982812 79.450937 
" style="fill: none; stroke-dasharray: 22.4,5.6,3.5,5.6; stroke-dashoffset: 0; stroke: #0000ff; stroke-opacity: 0.8; stroke-width: 3.5"/>
    </g>
    <g id="text_17">
     <!-- Standard PySR -->
     <g transform="translate(85.982812 82.950937) scale(0.1 -0.1)">
      <defs>
       <path id="DejaVuSans-52" d="M 2841 2188 
Q 3044 2119 3236 1894 
Q 3428 1669 3622 1275 
L 4263 0 
L 3584 0 
L 2988 1197 
Q 2756 1666 2539 1819 
Q 2322 1972 1947 1972 
L 1259 1972 
L 1259 0 
L 628 0 
L 628 4666 
L 2053 4666 
Q 2853 4666 3247 4331 
Q 3641 3997 3641 3322 
Q 3641 2881 3436 2590 
Q 3231 2300 2841 2188 
z
M 1259 4147 
L 1259 2491 
L 2053 2491 
Q 2509 2491 2742 2702 
Q 2975 2913 2975 3322 
Q 2975 3731 2742 3939 
Q 2509 4147 2053 4147 
L 1259 4147 
z
" transform="scale(0.015625)"/>
      </defs>
      <use xlink:href="#DejaVuSans-53"/>
      <use xlink:href="#DejaVuSans-74" transform="translate(63.476562 0)"/>
      <use xlink:href="#DejaVuSans-61" transform="translate(102.685547 0)"/>
      <use xlink:href="#DejaVuSans-6e" transform="translate(163.964844 0)"/>
      <use xlink:href="#DejaVuSans-64" transform="translate(227.34375 0)"/>
      <use xlink:href="#DejaVuSans-61" transform="translate(290.820312 0)"/>
      <use xlink:href="#DejaVuSans-72" transform="translate(352.099609 0)"/>
      <use xlink:href="#DejaVuSans-64" transform="translate(391.462891 0)"/>
      <use xlink:href="#DejaVuSans-20" transform="translate(454.939453 0)"/>
      <use xlink:href="#DejaVuSans-50" transform="translate(486.726562 0)"/>
      <use xlink:href="#DejaVuSans-79" transform="translate(547.029297 0)"/>
      <use xlink:href="#DejaVuSans-53" transform="translate(606.208984 0)"/>
      <use xlink:href="#DejaVuSans-52" transform="translate(669.685547 0)"/>
     </g>
    </g>
   </g>
  </g>
 </g>
 <defs>
  <clipPath id="p824c79e9d5">
   <rect x="48.982813" y="22.318125" width="512.23" height="508.12"/>
  </clipPath>
 </defs>
</svg>
